<?xml version="1.0" encoding="UTF-8" standalone="no"?><svg xmlns="http://www.w3.org/2000/svg" xmlns:xlink="http://www.w3.org/1999/xlink" contentScriptType="application/ecmascript" contentStyleType="text/css" height="289px" preserveAspectRatio="none" style="width:449px;height:289px;" version="1.1" viewBox="0 0 449 289" width="449px" zoomAndPan="magnify"><defs><filter height="300%" id="fkyi7ylae914u" width="300%" x="-1" y="-1"><feGaussianBlur result="blurOut" stdDeviation="2.0"/><feColorMatrix in="blurOut" result="blurOut2" type="matrix" values="0 0 0 0 0 0 0 0 0 0 0 0 0 0 0 0 0 0 .4 0"/><feOffset dx="4.0" dy="4.0" in="blurOut2" result="blurOut3"/><feBlend in="SourceGraphic" in2="blurOut3" mode="normal"/></filter></defs><g><!--MD5=[ed6624c6556d5e7b1bd23032162d20b7]
class Client--><rect codeLine="37" fill="#FEFECE" filter="url(#fkyi7ylae914u)" height="53.8359" id="Client" style="stroke:#A80036;stroke-width:1.5;" width="80" x="165" y="131.5"/><ellipse cx="187.2" cy="147.5" fill="#ADD1B2" rx="11" ry="11" style="stroke:#A80036;stroke-width:1.0;"/><path d="M189.2,144 Q189.4031,143.5 189.6375,143.25 Q189.8719,143 190.1375,143 Q190.6063,143 190.9031,143.2813 Q191.2,143.5625 191.2,144.2188 L191.2,145.7813 Q191.2,146.4375 190.9188,146.7188 Q190.6375,147 190.2,147 Q189.8094,147 189.5594,146.8281 Q189.3094,146.6563 189.2,146.2031 Q189.1531,145.8906 188.9813,145.7188 Q188.6688,145.3906 188.1063,145.2031 Q187.5438,145 186.9813,145 Q186.2781,145 185.6844,145.2813 Q185.1063,145.5625 184.6531,146.1875 Q184.2,146.8125 184.2,147.6719 L184.2,148.5938 Q184.2,149.625 185.0438,150.3125 Q185.8875,151 187.3875,151 Q188.2781,151 188.9031,150.7969 Q189.2625,150.6875 189.6688,150.3281 Q189.9344,150.125 190.075,150.0625 Q190.2156,150 190.3875,150 Q190.7156,150 190.95,150.2656 Q191.2,150.5156 191.2,150.875 Q191.2,151.2188 190.8563,151.625 Q190.3563,152.2188 189.5594,152.5469 Q188.5125,153 187.2313,153 Q185.7313,153 184.5281,152.4063 Q183.5594,151.9375 182.8719,150.9219 Q182.2,149.9063 182.2,148.7031 L182.2,147.6094 Q182.2,146.3594 182.7938,145.2656 Q183.4031,144.1719 184.45,143.5938 Q185.5125,143 186.7,143 Q187.4188,143 188.0438,143.25 Q188.6688,143.5 189.2,144 Z " fill="#000000"/><text fill="#000000" font-family="sans-serif" font-size="12" lengthAdjust="spacingAndGlyphs" textLength="32" x="202.8" y="152.4102">Client</text><line style="stroke:#A80036;stroke-width:1.5;" x1="166" x2="244" y1="163.5" y2="163.5"/><text fill="#000000" font-family="sans-serif" font-size="11" lengthAdjust="spacingAndGlyphs" textLength="68" x="171" y="178.9189">-String credits</text><!--MD5=[3fd616f346a44cd59a91eb10b19e157c]
class User--><rect codeLine="11" fill="#FEFECE" filter="url(#fkyi7ylae914u)" height="109.1797" id="User" style="stroke:#A80036;stroke-width:1.5;" width="97" x="7" y="104"/><ellipse cx="39.55" cy="120" fill="#A9DCDF" rx="11" ry="11" style="stroke:#A80036;stroke-width:1.0;"/><path d="M41.3,121.5 L38.0031,121.5 L37.5656,122.5 L37.5656,122.5 L38.0344,122.5 L38.55,123.125 L38.55,123.5 L38.55,123.875 L38.0344,124.5 L37.5656,124.5 L35.675,124.5 L35.0656,124.5 L34.55,123.875 L34.55,123.5 L34.55,123.125 L35.0656,122.5 L35.675,122.5 L37.9875,116.5 L37.1125,116.5 L36.0656,116.5 L35.55,115.875 L35.55,115.5 L35.55,115.125 L36.0656,114.5 L37.1125,114.5 L40.7844,114.5 L43.4719,122.5 L44.0344,122.5 L44.0344,122.5 L44.55,123.125 L44.55,123.5 L44.55,123.875 L44.0344,124.5 L43.4719,124.5 L41.5813,124.5 L41.0656,124.5 L40.55,123.875 L40.55,123.5 L40.55,123.125 L41.0656,122.5 L41.5813,122.5 L41.5813,122.5 L41.3,121.5 Z M40.7531,119.5 L39.55,115.9219 L38.5188,119.5 L40.7531,119.5 Z " fill="#000000"/><text fill="#000000" font-family="sans-serif" font-size="12" font-style="italic" lengthAdjust="spacingAndGlyphs" textLength="26" x="57.45" y="124.9102">User</text><line style="stroke:#A80036;stroke-width:1.5;" x1="8" x2="103" y1="136" y2="136"/><text fill="#000000" font-family="sans-serif" font-size="11" lengthAdjust="spacingAndGlyphs" textLength="48" x="13" y="151.4189">-Integer id</text><text fill="#000000" font-family="sans-serif" font-size="11" lengthAdjust="spacingAndGlyphs" textLength="59" x="13" y="165.2549">-String email</text><text fill="#000000" font-family="sans-serif" font-size="11" lengthAdjust="spacingAndGlyphs" textLength="85" x="13" y="179.0908">-String password</text><text fill="#000000" font-family="sans-serif" font-size="11" lengthAdjust="spacingAndGlyphs" textLength="52" x="13" y="192.9268">-Integer nif</text><text fill="#000000" font-family="sans-serif" font-size="11" lengthAdjust="spacingAndGlyphs" textLength="61" x="13" y="206.7627">-String name</text><!--MD5=[0f39e4cb6f03951afbf6d14bd2505654]
class Address--><rect codeLine="19" fill="#FEFECE" filter="url(#fkyi7ylae914u)" height="150.6875" id="Address" style="stroke:#A80036;stroke-width:1.5;" width="106" x="328.5" y="7"/><ellipse cx="356.1" cy="23" fill="#ADD1B2" rx="11" ry="11" style="stroke:#A80036;stroke-width:1.0;"/><path d="M358.1,19.5 Q358.3031,19 358.5375,18.75 Q358.7719,18.5 359.0375,18.5 Q359.5063,18.5 359.8031,18.7813 Q360.1,19.0625 360.1,19.7188 L360.1,21.2813 Q360.1,21.9375 359.8188,22.2188 Q359.5375,22.5 359.1,22.5 Q358.7094,22.5 358.4594,22.3281 Q358.2094,22.1563 358.1,21.7031 Q358.0531,21.3906 357.8813,21.2188 Q357.5688,20.8906 357.0063,20.7031 Q356.4438,20.5 355.8813,20.5 Q355.1781,20.5 354.5844,20.7813 Q354.0063,21.0625 353.5531,21.6875 Q353.1,22.3125 353.1,23.1719 L353.1,24.0938 Q353.1,25.125 353.9438,25.8125 Q354.7875,26.5 356.2875,26.5 Q357.1781,26.5 357.8031,26.2969 Q358.1625,26.1875 358.5688,25.8281 Q358.8344,25.625 358.975,25.5625 Q359.1156,25.5 359.2875,25.5 Q359.6156,25.5 359.85,25.7656 Q360.1,26.0156 360.1,26.375 Q360.1,26.7188 359.7563,27.125 Q359.2563,27.7188 358.4594,28.0469 Q357.4125,28.5 356.1313,28.5 Q354.6313,28.5 353.4281,27.9063 Q352.4594,27.4375 351.7719,26.4219 Q351.1,25.4063 351.1,24.2031 L351.1,23.1094 Q351.1,21.8594 351.6938,20.7656 Q352.3031,19.6719 353.35,19.0938 Q354.4125,18.5 355.6,18.5 Q356.3188,18.5 356.9438,18.75 Q357.5688,19 358.1,19.5 Z " fill="#000000"/><text fill="#000000" font-family="sans-serif" font-size="12" lengthAdjust="spacingAndGlyphs" textLength="46" x="372.9" y="27.9102">Address</text><line style="stroke:#A80036;stroke-width:1.5;" x1="329.5" x2="433.5" y1="39" y2="39"/><text fill="#000000" font-family="sans-serif" font-size="11" lengthAdjust="spacingAndGlyphs" textLength="48" x="334.5" y="54.4189">-Integer id</text><text fill="#000000" font-family="sans-serif" font-size="11" lengthAdjust="spacingAndGlyphs" textLength="74" x="334.5" y="68.2549">-Double latitude</text><text fill="#000000" font-family="sans-serif" font-size="11" lengthAdjust="spacingAndGlyphs" textLength="83" x="334.5" y="82.0908">-Double longitude</text><text fill="#000000" font-family="sans-serif" font-size="11" lengthAdjust="spacingAndGlyphs" textLength="90" x="334.5" y="95.9268">-String streetName</text><text fill="#000000" font-family="sans-serif" font-size="11" lengthAdjust="spacingAndGlyphs" textLength="94" x="334.5" y="109.7627">-String doorNumber</text><text fill="#000000" font-family="sans-serif" font-size="11" lengthAdjust="spacingAndGlyphs" textLength="89" x="334.5" y="123.5986">-String postalCode</text><text fill="#000000" font-family="sans-serif" font-size="11" lengthAdjust="spacingAndGlyphs" textLength="68" x="334.5" y="137.4346">-String locality</text><text fill="#000000" font-family="sans-serif" font-size="11" lengthAdjust="spacingAndGlyphs" textLength="72" x="334.5" y="151.2705">-String country</text><!--MD5=[91d4151b6d4c9a3d01b6d84b2458eece]
class CreditCard--><rect codeLine="30" fill="#FEFECE" filter="url(#fkyi7ylae914u)" height="81.5078" id="CreditCard" style="stroke:#A80036;stroke-width:1.5;" width="107" x="328" y="193.5"/><ellipse cx="349.75" cy="209.5" fill="#ADD1B2" rx="11" ry="11" style="stroke:#A80036;stroke-width:1.0;"/><path d="M351.75,206 Q351.9531,205.5 352.1875,205.25 Q352.4219,205 352.6875,205 Q353.1563,205 353.4531,205.2813 Q353.75,205.5625 353.75,206.2188 L353.75,207.7813 Q353.75,208.4375 353.4688,208.7188 Q353.1875,209 352.75,209 Q352.3594,209 352.1094,208.8281 Q351.8594,208.6563 351.75,208.2031 Q351.7031,207.8906 351.5313,207.7188 Q351.2188,207.3906 350.6563,207.2031 Q350.0938,207 349.5313,207 Q348.8281,207 348.2344,207.2813 Q347.6563,207.5625 347.2031,208.1875 Q346.75,208.8125 346.75,209.6719 L346.75,210.5938 Q346.75,211.625 347.5938,212.3125 Q348.4375,213 349.9375,213 Q350.8281,213 351.4531,212.7969 Q351.8125,212.6875 352.2188,212.3281 Q352.4844,212.125 352.625,212.0625 Q352.7656,212 352.9375,212 Q353.2656,212 353.5,212.2656 Q353.75,212.5156 353.75,212.875 Q353.75,213.2188 353.4063,213.625 Q352.9063,214.2188 352.1094,214.5469 Q351.0625,215 349.7813,215 Q348.2813,215 347.0781,214.4063 Q346.1094,213.9375 345.4219,212.9219 Q344.75,211.9063 344.75,210.7031 L344.75,209.6094 Q344.75,208.3594 345.3438,207.2656 Q345.9531,206.1719 347,205.5938 Q348.0625,205 349.25,205 Q349.9688,205 350.5938,205.25 Q351.2188,205.5 351.75,206 Z " fill="#000000"/><text fill="#000000" font-family="sans-serif" font-size="12" lengthAdjust="spacingAndGlyphs" textLength="60" x="365.25" y="214.4102">CreditCard</text><line style="stroke:#A80036;stroke-width:1.5;" x1="329" x2="434" y1="225.5" y2="225.5"/><text fill="#000000" font-family="sans-serif" font-size="11" lengthAdjust="spacingAndGlyphs" textLength="95" x="334" y="240.9189">-Long creditCardNr;</text><text fill="#000000" font-family="sans-serif" font-size="11" lengthAdjust="spacingAndGlyphs" textLength="93" x="334" y="254.7549">-String validityDate;</text><text fill="#000000" font-family="sans-serif" font-size="11" lengthAdjust="spacingAndGlyphs" textLength="65" x="334" y="268.5908">-Integer CCV;</text><!--MD5=[a605f9a646bac91c0f1ec4bed5c60b13]
reverse link User to Client--><path d="M124.75,158.5 C138.45,158.5 152.41,158.5 164.72,158.5 " fill="none" id="User-backto-Client" style="stroke:#A80036;stroke-width:1.0;"/><polygon fill="none" points="124.39,165.5,104.39,158.5,124.39,151.5,124.39,165.5" style="stroke:#A80036;stroke-width:1.0;"/><!--MD5=[c0a1760e99d434f6c874a0baff5b4a02]
link Client to Client--><path codeLine="40" d="M192.97,131.41 C189.71,113.67 193.72,96.5 205,96.5 C216.28,96.5 220.29,113.67 217.03,131.41 " fill="none" id="Client-Client" style="stroke:#A80036;stroke-width:1.0;"/><text fill="#000000" font-family="sans-serif" font-size="13" lengthAdjust="spacingAndGlyphs" textLength="50" x="180" y="87.9951">registers</text><text fill="#000000" font-family="sans-serif" font-size="13" lengthAdjust="spacingAndGlyphs" textLength="7" x="182.3787" y="120.8502">1</text><text fill="#000000" font-family="sans-serif" font-size="13" lengthAdjust="spacingAndGlyphs" textLength="7" x="212.0026" y="120.8502">1</text><!--MD5=[bd708f2371c655af07b49ddbdb30848a]
link Client to Address--><path codeLine="41" d="M245.16,141.44 C269.68,130.77 301.57,116.88 328.23,105.27 " fill="none" id="Client-Address" style="stroke:#A80036;stroke-width:1.0;"/><text fill="#000000" font-family="sans-serif" font-size="13" lengthAdjust="spacingAndGlyphs" textLength="21" x="276" y="116.9951">has</text><text fill="#000000" font-family="sans-serif" font-size="13" lengthAdjust="spacingAndGlyphs" textLength="7" x="252.9369" y="153.3672">1</text><text fill="#000000" font-family="sans-serif" font-size="13" lengthAdjust="spacingAndGlyphs" textLength="7" x="313.6015" y="122.9445">1</text><!--MD5=[0748050afd2139cbb3c9faec3f892ae9]
link Client to CreditCard--><path codeLine="42" d="M245.16,175.56 C269.58,186.19 301.3,200.01 327.9,211.59 " fill="none" id="Client-CreditCard" style="stroke:#A80036;stroke-width:1.0;"/><text fill="#000000" font-family="sans-serif" font-size="13" lengthAdjust="spacingAndGlyphs" textLength="21" x="276" y="185.9951">has</text><text fill="#000000" font-family="sans-serif" font-size="13" lengthAdjust="spacingAndGlyphs" textLength="5" x="253.0254" y="193.7231">*</text><text fill="#000000" font-family="sans-serif" font-size="13" lengthAdjust="spacingAndGlyphs" textLength="5" x="315.0109" y="223.0477">*</text><!--MD5=[316a6b57fe54e28b835e8b5d888a85fc]
@startuml
skinparam classAttributeIconSize 0
hide methods
left to right direction



class Client{
-String credits
}

abstract class User{
-Integer id
-String email
-String password
-Integer nif
-String name
}

class Address{
-Integer id
-Double latitude
-Double longitude
-String streetName
-String doorNumber
-String postalCode
-String locality
-String country
}

class CreditCard{
-Long creditCardNr;
-String validityDate;
-Integer CCV;
+CreditCard(creditCardNr,validityDate,CCV)
}

class Client extends User


Client "1" - - "1" Client : registers
Client "1" - - "1" Address : has
Client "*" - - "*" CreditCard : has

@enduml

PlantUML version 1.2020.23(Sun Dec 13 19:14:58 GMT 2020)
(GPL source distribution)
Java Runtime: OpenJDK Runtime Environment
JVM: OpenJDK 64-Bit Server VM
Default Encoding: Cp1252
Language: pt
Country: PT
--></g></svg>