<?xml version="1.0" encoding="UTF-8" standalone="no"?><svg xmlns="http://www.w3.org/2000/svg" xmlns:xlink="http://www.w3.org/1999/xlink" contentScriptType="application/ecmascript" contentStyleType="text/css" height="327px" preserveAspectRatio="none" style="width:536px;height:327px;" version="1.1" viewBox="0 0 536 327" width="536px" zoomAndPan="magnify"><defs><filter height="300%" id="f14fjfk1fxgdz0" width="300%" x="-1" y="-1"><feGaussianBlur result="blurOut" stdDeviation="2.0"/><feColorMatrix in="blurOut" result="blurOut2" type="matrix" values="0 0 0 0 0 0 0 0 0 0 0 0 0 0 0 0 0 0 .4 0"/><feOffset dx="4.0" dy="4.0" in="blurOut2" result="blurOut3"/><feBlend in="SourceGraphic" in2="blurOut3" mode="normal"/></filter></defs><g><!--MD5=[fa1e3283224feb76407c84b7e90ed808]
entity Database--><path d="M15,124.5 C15,114.5 55.5,114.5 55.5,114.5 C55.5,114.5 96,114.5 96,124.5 L96,151.1094 C96,161.1094 55.5,161.1094 55.5,161.1094 C55.5,161.1094 15,161.1094 15,151.1094 L15,124.5 " fill="#FFFFFF" filter="url(#f14fjfk1fxgdz0)" style="stroke:#000000;stroke-width:1.5;"/><path d="M15,124.5 C15,134.5 55.5,134.5 55.5,134.5 C55.5,134.5 96,134.5 96,124.5 " fill="none" style="stroke:#000000;stroke-width:1.5;"/><text fill="#000000" font-family="sans-serif" font-size="14" lengthAdjust="spacingAndGlyphs" textLength="61" x="25" y="153.0332">Database</text><!--MD5=[ed6624c6556d5e7b1bd23032162d20b7]
class Client--><rect codeLine="42" fill="#FEFECE" filter="url(#f14fjfk1fxgdz0)" height="53.8359" id="Client" style="stroke:#A80036;stroke-width:1.5;" width="80" x="250" y="111"/><ellipse cx="272.2" cy="127" fill="#ADD1B2" rx="11" ry="11" style="stroke:#A80036;stroke-width:1.0;"/><path d="M274.2,123.5 Q274.4031,123 274.6375,122.75 Q274.8719,122.5 275.1375,122.5 Q275.6063,122.5 275.9031,122.7813 Q276.2,123.0625 276.2,123.7188 L276.2,125.2813 Q276.2,125.9375 275.9188,126.2188 Q275.6375,126.5 275.2,126.5 Q274.8094,126.5 274.5594,126.3281 Q274.3094,126.1563 274.2,125.7031 Q274.1531,125.3906 273.9813,125.2188 Q273.6688,124.8906 273.1063,124.7031 Q272.5438,124.5 271.9813,124.5 Q271.2781,124.5 270.6844,124.7813 Q270.1063,125.0625 269.6531,125.6875 Q269.2,126.3125 269.2,127.1719 L269.2,128.0938 Q269.2,129.125 270.0438,129.8125 Q270.8875,130.5 272.3875,130.5 Q273.2781,130.5 273.9031,130.2969 Q274.2625,130.1875 274.6688,129.8281 Q274.9344,129.625 275.075,129.5625 Q275.2156,129.5 275.3875,129.5 Q275.7156,129.5 275.95,129.7656 Q276.2,130.0156 276.2,130.375 Q276.2,130.7188 275.8563,131.125 Q275.3563,131.7188 274.5594,132.0469 Q273.5125,132.5 272.2313,132.5 Q270.7313,132.5 269.5281,131.9063 Q268.5594,131.4375 267.8719,130.4219 Q267.2,129.4063 267.2,128.2031 L267.2,127.1094 Q267.2,125.8594 267.7938,124.7656 Q268.4031,123.6719 269.45,123.0938 Q270.5125,122.5 271.7,122.5 Q272.4188,122.5 273.0438,122.75 Q273.6688,123 274.2,123.5 Z " fill="#000000"/><text fill="#000000" font-family="sans-serif" font-size="12" lengthAdjust="spacingAndGlyphs" textLength="32" x="287.8" y="131.9102">Client</text><line style="stroke:#A80036;stroke-width:1.5;" x1="251" x2="329" y1="143" y2="143"/><text fill="#000000" font-family="sans-serif" font-size="11" lengthAdjust="spacingAndGlyphs" textLength="68" x="256" y="158.4189">-String credits</text><!--MD5=[3fd616f346a44cd59a91eb10b19e157c]
class User--><rect codeLine="11" fill="#FEFECE" filter="url(#f14fjfk1fxgdz0)" height="109.1797" id="User" style="stroke:#A80036;stroke-width:1.5;" width="97" x="7" y="204.5"/><ellipse cx="39.55" cy="220.5" fill="#A9DCDF" rx="11" ry="11" style="stroke:#A80036;stroke-width:1.0;"/><path d="M41.3,222 L38.0031,222 L37.5656,223 L37.5656,223 L38.0344,223 L38.55,223.625 L38.55,224 L38.55,224.375 L38.0344,225 L37.5656,225 L35.675,225 L35.0656,225 L34.55,224.375 L34.55,224 L34.55,223.625 L35.0656,223 L35.675,223 L37.9875,217 L37.1125,217 L36.0656,217 L35.55,216.375 L35.55,216 L35.55,215.625 L36.0656,215 L37.1125,215 L40.7844,215 L43.4719,223 L44.0344,223 L44.0344,223 L44.55,223.625 L44.55,224 L44.55,224.375 L44.0344,225 L43.4719,225 L41.5813,225 L41.0656,225 L40.55,224.375 L40.55,224 L40.55,223.625 L41.0656,223 L41.5813,223 L41.5813,223 L41.3,222 Z M40.7531,220 L39.55,216.4219 L38.5188,220 L40.7531,220 Z " fill="#000000"/><text fill="#000000" font-family="sans-serif" font-size="12" font-style="italic" lengthAdjust="spacingAndGlyphs" textLength="26" x="57.45" y="225.4102">User</text><line style="stroke:#A80036;stroke-width:1.5;" x1="8" x2="103" y1="236.5" y2="236.5"/><text fill="#000000" font-family="sans-serif" font-size="11" lengthAdjust="spacingAndGlyphs" textLength="48" x="13" y="251.9189">-Integer id</text><text fill="#000000" font-family="sans-serif" font-size="11" lengthAdjust="spacingAndGlyphs" textLength="59" x="13" y="265.7549">-String email</text><text fill="#000000" font-family="sans-serif" font-size="11" lengthAdjust="spacingAndGlyphs" textLength="85" x="13" y="279.5908">-String password</text><text fill="#000000" font-family="sans-serif" font-size="11" lengthAdjust="spacingAndGlyphs" textLength="52" x="13" y="293.4268">-Integer nif</text><text fill="#000000" font-family="sans-serif" font-size="11" lengthAdjust="spacingAndGlyphs" textLength="61" x="13" y="307.2627">-String name</text><!--MD5=[0f39e4cb6f03951afbf6d14bd2505654]
class Address--><rect codeLine="19" fill="#FEFECE" filter="url(#f14fjfk1fxgdz0)" height="150.6875" id="Address" style="stroke:#A80036;stroke-width:1.5;" width="106" x="415.5" y="130.5"/><ellipse cx="443.1" cy="146.5" fill="#ADD1B2" rx="11" ry="11" style="stroke:#A80036;stroke-width:1.0;"/><path d="M445.1,143 Q445.3031,142.5 445.5375,142.25 Q445.7719,142 446.0375,142 Q446.5063,142 446.8031,142.2813 Q447.1,142.5625 447.1,143.2188 L447.1,144.7813 Q447.1,145.4375 446.8188,145.7188 Q446.5375,146 446.1,146 Q445.7094,146 445.4594,145.8281 Q445.2094,145.6563 445.1,145.2031 Q445.0531,144.8906 444.8813,144.7188 Q444.5688,144.3906 444.0063,144.2031 Q443.4438,144 442.8813,144 Q442.1781,144 441.5844,144.2813 Q441.0063,144.5625 440.5531,145.1875 Q440.1,145.8125 440.1,146.6719 L440.1,147.5938 Q440.1,148.625 440.9438,149.3125 Q441.7875,150 443.2875,150 Q444.1781,150 444.8031,149.7969 Q445.1625,149.6875 445.5688,149.3281 Q445.8344,149.125 445.975,149.0625 Q446.1156,149 446.2875,149 Q446.6156,149 446.85,149.2656 Q447.1,149.5156 447.1,149.875 Q447.1,150.2188 446.7563,150.625 Q446.2563,151.2188 445.4594,151.5469 Q444.4125,152 443.1313,152 Q441.6313,152 440.4281,151.4063 Q439.4594,150.9375 438.7719,149.9219 Q438.1,148.9063 438.1,147.7031 L438.1,146.6094 Q438.1,145.3594 438.6938,144.2656 Q439.3031,143.1719 440.35,142.5938 Q441.4125,142 442.6,142 Q443.3188,142 443.9438,142.25 Q444.5688,142.5 445.1,143 Z " fill="#000000"/><text fill="#000000" font-family="sans-serif" font-size="12" lengthAdjust="spacingAndGlyphs" textLength="46" x="459.9" y="151.4102">Address</text><line style="stroke:#A80036;stroke-width:1.5;" x1="416.5" x2="520.5" y1="162.5" y2="162.5"/><text fill="#000000" font-family="sans-serif" font-size="11" lengthAdjust="spacingAndGlyphs" textLength="48" x="421.5" y="177.9189">-Integer id</text><text fill="#000000" font-family="sans-serif" font-size="11" lengthAdjust="spacingAndGlyphs" textLength="74" x="421.5" y="191.7549">-Double latitude</text><text fill="#000000" font-family="sans-serif" font-size="11" lengthAdjust="spacingAndGlyphs" textLength="83" x="421.5" y="205.5908">-Double longitude</text><text fill="#000000" font-family="sans-serif" font-size="11" lengthAdjust="spacingAndGlyphs" textLength="90" x="421.5" y="219.4268">-String streetName</text><text fill="#000000" font-family="sans-serif" font-size="11" lengthAdjust="spacingAndGlyphs" textLength="94" x="421.5" y="233.2627">-String doorNumber</text><text fill="#000000" font-family="sans-serif" font-size="11" lengthAdjust="spacingAndGlyphs" textLength="89" x="421.5" y="247.0986">-String postalCode</text><text fill="#000000" font-family="sans-serif" font-size="11" lengthAdjust="spacingAndGlyphs" textLength="68" x="421.5" y="260.9346">-String locality</text><text fill="#000000" font-family="sans-serif" font-size="11" lengthAdjust="spacingAndGlyphs" textLength="72" x="421.5" y="274.7705">-String country</text><!--MD5=[91d4151b6d4c9a3d01b6d84b2458eece]
class CreditCard--><rect codeLine="30" fill="#FEFECE" filter="url(#f14fjfk1fxgdz0)" height="81.5078" id="CreditCard" style="stroke:#A80036;stroke-width:1.5;" width="107" x="415" y="7"/><ellipse cx="436.75" cy="23" fill="#ADD1B2" rx="11" ry="11" style="stroke:#A80036;stroke-width:1.0;"/><path d="M438.75,19.5 Q438.9531,19 439.1875,18.75 Q439.4219,18.5 439.6875,18.5 Q440.1563,18.5 440.4531,18.7813 Q440.75,19.0625 440.75,19.7188 L440.75,21.2813 Q440.75,21.9375 440.4688,22.2188 Q440.1875,22.5 439.75,22.5 Q439.3594,22.5 439.1094,22.3281 Q438.8594,22.1563 438.75,21.7031 Q438.7031,21.3906 438.5313,21.2188 Q438.2188,20.8906 437.6563,20.7031 Q437.0938,20.5 436.5313,20.5 Q435.8281,20.5 435.2344,20.7813 Q434.6563,21.0625 434.2031,21.6875 Q433.75,22.3125 433.75,23.1719 L433.75,24.0938 Q433.75,25.125 434.5938,25.8125 Q435.4375,26.5 436.9375,26.5 Q437.8281,26.5 438.4531,26.2969 Q438.8125,26.1875 439.2188,25.8281 Q439.4844,25.625 439.625,25.5625 Q439.7656,25.5 439.9375,25.5 Q440.2656,25.5 440.5,25.7656 Q440.75,26.0156 440.75,26.375 Q440.75,26.7188 440.4063,27.125 Q439.9063,27.7188 439.1094,28.0469 Q438.0625,28.5 436.7813,28.5 Q435.2813,28.5 434.0781,27.9063 Q433.1094,27.4375 432.4219,26.4219 Q431.75,25.4063 431.75,24.2031 L431.75,23.1094 Q431.75,21.8594 432.3438,20.7656 Q432.9531,19.6719 434,19.0938 Q435.0625,18.5 436.25,18.5 Q436.9688,18.5 437.5938,18.75 Q438.2188,19 438.75,19.5 Z " fill="#000000"/><text fill="#000000" font-family="sans-serif" font-size="12" lengthAdjust="spacingAndGlyphs" textLength="60" x="452.25" y="27.9102">CreditCard</text><line style="stroke:#A80036;stroke-width:1.5;" x1="416" x2="521" y1="39" y2="39"/><text fill="#000000" font-family="sans-serif" font-size="11" lengthAdjust="spacingAndGlyphs" textLength="95" x="421" y="54.4189">-Long creditCardNr;</text><text fill="#000000" font-family="sans-serif" font-size="11" lengthAdjust="spacingAndGlyphs" textLength="93" x="421" y="68.2549">-String validityDate;</text><text fill="#000000" font-family="sans-serif" font-size="11" lengthAdjust="spacingAndGlyphs" textLength="65" x="421" y="82.0908">-Integer CCV;</text><!--MD5=[a605f9a646bac91c0f1ec4bed5c60b13]
reverse link User to Client--><path d="M121.92,224.95 C163.16,203.49 215.02,176.5 249.93,158.33 " fill="none" id="User-backto-Client" style="stroke:#A80036;stroke-width:1.0;"/><polygon fill="none" points="125.08,231.2,104.11,234.22,118.62,218.78,125.08,231.2" style="stroke:#A80036;stroke-width:1.0;"/><!--MD5=[ac0c33dc67b04049a5a44d8fea0f9b6c]
link Database to Client--><path codeLine="44" d="M96.2,138 C139.13,138 207.13,138 249.85,138 " fill="none" id="Database-Client" style="stroke:#A80036;stroke-width:1.0;"/><text fill="#000000" font-family="sans-serif" font-size="13" lengthAdjust="spacingAndGlyphs" textLength="82" x="135" y="134.4951">has registered</text><text fill="#000000" font-family="sans-serif" font-size="13" lengthAdjust="spacingAndGlyphs" textLength="7" x="104.0731" y="152.9862">1</text><text fill="#000000" font-family="sans-serif" font-size="13" lengthAdjust="spacingAndGlyphs" textLength="5" x="236.9864" y="153.0177">*</text><!--MD5=[fe65df1e099598e2fce9ebdfea6b3744]
link Database to Address--><path codeLine="45" d="M96.34,154.95 C134.47,170.24 194.02,191.72 248,201 C304.54,210.72 370.46,210.74 415.2,209.11 " fill="none" id="Database-Address" style="stroke:#A80036;stroke-width:1.0;"/><text fill="#000000" font-family="sans-serif" font-size="13" lengthAdjust="spacingAndGlyphs" textLength="82" x="249" y="197.4951">has registered</text><text fill="#000000" font-family="sans-serif" font-size="13" lengthAdjust="spacingAndGlyphs" textLength="7" x="103.9609" y="172.7972">1</text><text fill="#000000" font-family="sans-serif" font-size="13" lengthAdjust="spacingAndGlyphs" textLength="5" x="402.3531" y="224.2142">*</text><!--MD5=[0d6287e6031f223f446ddfea0960667d]
link Database to CreditCard--><path codeLine="46" d="M96.04,123.71 C108.13,119.62 121.53,115.36 134,112 C231.9,85.59 348.8,65.78 414.97,55.62 " fill="none" id="Database-CreditCard" style="stroke:#A80036;stroke-width:1.0;"/><text fill="#000000" font-family="sans-serif" font-size="13" lengthAdjust="spacingAndGlyphs" textLength="82" x="249" y="66.4951">has registered</text><text fill="#000000" font-family="sans-serif" font-size="13" lengthAdjust="spacingAndGlyphs" textLength="7" x="103.8846" y="117.3008">1</text><text fill="#000000" font-family="sans-serif" font-size="13" lengthAdjust="spacingAndGlyphs" textLength="5" x="402.0908" y="71.371">*</text><!--MD5=[bd708f2371c655af07b49ddbdb30848a]
link Client to Address--><path codeLine="47" d="M330.17,153.09 C355.26,162.76 388.1,175.41 415.38,185.92 " fill="none" id="Client-Address" style="stroke:#A80036;stroke-width:1.0;"/><text fill="#000000" font-family="sans-serif" font-size="13" lengthAdjust="spacingAndGlyphs" textLength="21" x="363" y="161.4951">has</text><text fill="#000000" font-family="sans-serif" font-size="13" lengthAdjust="spacingAndGlyphs" textLength="7" x="337.9487" y="170.7439">1</text><text fill="#000000" font-family="sans-serif" font-size="13" lengthAdjust="spacingAndGlyphs" textLength="7" x="400.4178" y="197.7631">1</text><!--MD5=[0748050afd2139cbb3c9faec3f892ae9]
link Client to CreditCard--><path codeLine="48" d="M330.17,118.03 C355.05,105.34 387.57,88.76 414.71,74.92 " fill="none" id="Client-CreditCard" style="stroke:#A80036;stroke-width:1.0;"/><text fill="#000000" font-family="sans-serif" font-size="13" lengthAdjust="spacingAndGlyphs" textLength="21" x="363" y="87.4951">has</text><text fill="#000000" font-family="sans-serif" font-size="13" lengthAdjust="spacingAndGlyphs" textLength="5" x="338.0373" y="129.3657">*</text><text fill="#000000" font-family="sans-serif" font-size="13" lengthAdjust="spacingAndGlyphs" textLength="5" x="402.146" y="93.1642">*</text><!--MD5=[2d00feec09a4ff62967934c5dc0a453a]
@startuml
skinparam classAttributeIconSize 0
hide methods
left to right direction



class Client{
-String credits
}

abstract class User{
-Integer id
-String email
-String password
-Integer nif
-String name
}

class Address{
-Integer id
-Double latitude
-Double longitude
-String streetName
-String doorNumber
-String postalCode
-String locality
-String country
}

class CreditCard{
-Long creditCardNr;
-String validityDate;
-Integer CCV;
+CreditCard(creditCardNr,validityDate,CCV)
}

database Database {

}


class Client extends User

Database "1" - - "*" Client : has registered
Database "1" - - "*" Address : has registered
Database "1" - - "*" CreditCard : has registered
Client "1" - - "1" Address : has
Client "*" - - "*" CreditCard : has

@enduml

PlantUML version 1.2020.23(Sun Dec 13 19:14:58 GMT 2020)
(GPL source distribution)
Java Runtime: OpenJDK Runtime Environment
JVM: OpenJDK 64-Bit Server VM
Default Encoding: Cp1252
Language: pt
Country: PT
--></g></svg>