<?xml version="1.0" encoding="UTF-8" standalone="no"?><svg xmlns="http://www.w3.org/2000/svg" xmlns:xlink="http://www.w3.org/1999/xlink" contentScriptType="application/ecmascript" contentStyleType="text/css" height="240px" preserveAspectRatio="none" style="width:984px;height:240px;" version="1.1" viewBox="0 0 984 240" width="984px" zoomAndPan="magnify"><defs><filter height="300%" id="f1ksezrspzlrdq" width="300%" x="-1" y="-1"><feGaussianBlur result="blurOut" stdDeviation="2.0"/><feColorMatrix in="blurOut" result="blurOut2" type="matrix" values="0 0 0 0 0 0 0 0 0 0 0 0 0 0 0 0 0 0 .4 0"/><feOffset dx="4.0" dy="4.0" in="blurOut2" result="blurOut3"/><feBlend in="SourceGraphic" in2="blurOut3" mode="normal"/></filter></defs><g><!--MD5=[f50ff5e4cd64f259303fc83dba1819fc]
entity database--><path d="M6,136 C6,126 45.5,126 45.5,126 C45.5,126 85,126 85,136 L85,162.6094 C85,172.6094 45.5,172.6094 45.5,172.6094 C45.5,172.6094 6,172.6094 6,162.6094 L6,136 " fill="#FFFFFF" filter="url(#f1ksezrspzlrdq)" style="stroke:#000000;stroke-width:1.5;"/><path d="M6,136 C6,146 45.5,146 45.5,146 C45.5,146 85,146 85,136 " fill="none" style="stroke:#000000;stroke-width:1.5;"/><text fill="#000000" font-family="sans-serif" font-size="14" lengthAdjust="spacing" textLength="59" x="16" y="164.5332">database</text><!--MD5=[c6a2171c11447acbe08a3dfeee0e1710]
class Courier--><rect codeLine="5" fill="#FEFECE" filter="url(#f1ksezrspzlrdq)" height="53.8359" id="Courier" style="stroke:#A80036;stroke-width:1.5;" width="73" x="234.5" y="71.5"/><ellipse cx="249.5" cy="87.5" fill="#ADD1B2" rx="11" ry="11" style="stroke:#A80036;stroke-width:1.0;"/><path d="M251.5,84 Q251.7031,83.5 251.9375,83.25 Q252.1719,83 252.4375,83 Q252.9063,83 253.2031,83.2813 Q253.5,83.5625 253.5,84.2188 L253.5,85.7813 Q253.5,86.4375 253.2188,86.7188 Q252.9375,87 252.5,87 Q252.1094,87 251.8594,86.8281 Q251.6094,86.6563 251.5,86.2031 Q251.4531,85.8906 251.2813,85.7188 Q250.9688,85.3906 250.4063,85.2031 Q249.8438,85 249.2813,85 Q248.5781,85 247.9844,85.2813 Q247.4063,85.5625 246.9531,86.1875 Q246.5,86.8125 246.5,87.6719 L246.5,88.5938 Q246.5,89.625 247.3438,90.3125 Q248.1875,91 249.6875,91 Q250.5781,91 251.2031,90.7969 Q251.5625,90.6875 251.9688,90.3281 Q252.2344,90.125 252.375,90.0625 Q252.5156,90 252.6875,90 Q253.0156,90 253.25,90.2656 Q253.5,90.5156 253.5,90.875 Q253.5,91.2188 253.1563,91.625 Q252.6563,92.2188 251.8594,92.5469 Q250.8125,93 249.5313,93 Q248.0313,93 246.8281,92.4063 Q245.8594,91.9375 245.1719,90.9219 Q244.5,89.9063 244.5,88.7031 L244.5,87.6094 Q244.5,86.3594 245.0938,85.2656 Q245.7031,84.1719 246.75,83.5938 Q247.8125,83 249,83 Q249.7188,83 250.3438,83.25 Q250.9688,83.5 251.5,84 Z " fill="#000000"/><text fill="#000000" font-family="sans-serif" font-size="12" lengthAdjust="spacing" textLength="41" x="263.5" y="92.4102">Courier</text><line style="stroke:#A80036;stroke-width:1.5;" x1="235.5" x2="306.5" y1="103.5" y2="103.5"/><text fill="#000000" font-family="sans-serif" font-size="11" lengthAdjust="spacing" textLength="55" x="240.5" y="118.9189">-String iban</text><!--MD5=[3fd616f346a44cd59a91eb10b19e157c]
class User--><rect codeLine="9" fill="#FEFECE" filter="url(#f1ksezrspzlrdq)" height="109.1797" id="User" style="stroke:#A80036;stroke-width:1.5;" width="97" x="431.5" y="7"/><ellipse cx="463.6" cy="23" fill="#ADD1B2" rx="11" ry="11" style="stroke:#A80036;stroke-width:1.0;"/><path d="M465.6,19.5 Q465.8031,19 466.0375,18.75 Q466.2719,18.5 466.5375,18.5 Q467.0063,18.5 467.3031,18.7813 Q467.6,19.0625 467.6,19.7188 L467.6,21.2813 Q467.6,21.9375 467.3188,22.2188 Q467.0375,22.5 466.6,22.5 Q466.2094,22.5 465.9594,22.3281 Q465.7094,22.1563 465.6,21.7031 Q465.5531,21.3906 465.3813,21.2188 Q465.0688,20.8906 464.5063,20.7031 Q463.9438,20.5 463.3813,20.5 Q462.6781,20.5 462.0844,20.7813 Q461.5063,21.0625 461.0531,21.6875 Q460.6,22.3125 460.6,23.1719 L460.6,24.0938 Q460.6,25.125 461.4438,25.8125 Q462.2875,26.5 463.7875,26.5 Q464.6781,26.5 465.3031,26.2969 Q465.6625,26.1875 466.0688,25.8281 Q466.3344,25.625 466.475,25.5625 Q466.6156,25.5 466.7875,25.5 Q467.1156,25.5 467.35,25.7656 Q467.6,26.0156 467.6,26.375 Q467.6,26.7188 467.2563,27.125 Q466.7563,27.7188 465.9594,28.0469 Q464.9125,28.5 463.6313,28.5 Q462.1313,28.5 460.9281,27.9063 Q459.9594,27.4375 459.2719,26.4219 Q458.6,25.4063 458.6,24.2031 L458.6,23.1094 Q458.6,21.8594 459.1938,20.7656 Q459.8031,19.6719 460.85,19.0938 Q461.9125,18.5 463.1,18.5 Q463.8188,18.5 464.4438,18.75 Q465.0688,19 465.6,19.5 Z " fill="#000000"/><text fill="#000000" font-family="sans-serif" font-size="12" lengthAdjust="spacing" textLength="27" x="481.4" y="27.9102">User</text><line style="stroke:#A80036;stroke-width:1.5;" x1="432.5" x2="527.5" y1="39" y2="39"/><text fill="#000000" font-family="sans-serif" font-size="11" lengthAdjust="spacing" textLength="48" x="437.5" y="54.4189">-Integer id</text><text fill="#000000" font-family="sans-serif" font-size="11" lengthAdjust="spacing" textLength="59" x="437.5" y="68.2549">-String email</text><text fill="#000000" font-family="sans-serif" font-size="11" lengthAdjust="spacing" textLength="85" x="437.5" y="82.0908">-String password</text><text fill="#000000" font-family="sans-serif" font-size="11" lengthAdjust="spacing" textLength="52" x="437.5" y="95.9268">-Integer nif</text><text fill="#000000" font-family="sans-serif" font-size="11" lengthAdjust="spacing" textLength="61" x="437.5" y="109.7627">-String name</text><!--MD5=[30da194321b846ed0272a2c085d943b8]
class DeliveryRun--><rect codeLine="17" fill="#FEFECE" filter="url(#f1ksezrspzlrdq)" height="53.8359" id="DeliveryRun" style="stroke:#A80036;stroke-width:1.5;" width="98" x="431" y="151.5"/><ellipse cx="446" cy="167.5" fill="#ADD1B2" rx="11" ry="11" style="stroke:#A80036;stroke-width:1.0;"/><path d="M448,164 Q448.2031,163.5 448.4375,163.25 Q448.6719,163 448.9375,163 Q449.4063,163 449.7031,163.2813 Q450,163.5625 450,164.2188 L450,165.7813 Q450,166.4375 449.7188,166.7188 Q449.4375,167 449,167 Q448.6094,167 448.3594,166.8281 Q448.1094,166.6563 448,166.2031 Q447.9531,165.8906 447.7813,165.7188 Q447.4688,165.3906 446.9063,165.2031 Q446.3438,165 445.7813,165 Q445.0781,165 444.4844,165.2813 Q443.9063,165.5625 443.4531,166.1875 Q443,166.8125 443,167.6719 L443,168.5938 Q443,169.625 443.8438,170.3125 Q444.6875,171 446.1875,171 Q447.0781,171 447.7031,170.7969 Q448.0625,170.6875 448.4688,170.3281 Q448.7344,170.125 448.875,170.0625 Q449.0156,170 449.1875,170 Q449.5156,170 449.75,170.2656 Q450,170.5156 450,170.875 Q450,171.2188 449.6563,171.625 Q449.1563,172.2188 448.3594,172.5469 Q447.3125,173 446.0313,173 Q444.5313,173 443.3281,172.4063 Q442.3594,171.9375 441.6719,170.9219 Q441,169.9063 441,168.7031 L441,167.6094 Q441,166.3594 441.5938,165.2656 Q442.2031,164.1719 443.25,163.5938 Q444.3125,163 445.5,163 Q446.2188,163 446.8438,163.25 Q447.4688,163.5 448,164 Z " fill="#000000"/><text fill="#000000" font-family="sans-serif" font-size="12" lengthAdjust="spacing" textLength="66" x="460" y="172.4102">DeliveryRun</text><line style="stroke:#A80036;stroke-width:1.5;" x1="432" x2="528" y1="183.5" y2="183.5"/><text fill="#000000" font-family="sans-serif" font-size="11" lengthAdjust="spacing" textLength="48" x="437" y="198.9189">-Integer id</text><!--MD5=[3aa0d89c6bfdcbf7f32042cedac57549]
class Vehicle--><rect codeLine="21" fill="#FEFECE" filter="url(#f1ksezrspzlrdq)" height="95.3438" id="Vehicle" style="stroke:#A80036;stroke-width:1.5;" width="98" x="636" y="131"/><ellipse cx="662.7" cy="147" fill="#ADD1B2" rx="11" ry="11" style="stroke:#A80036;stroke-width:1.0;"/><path d="M664.7,143.5 Q664.9031,143 665.1375,142.75 Q665.3719,142.5 665.6375,142.5 Q666.1063,142.5 666.4031,142.7813 Q666.7,143.0625 666.7,143.7188 L666.7,145.2813 Q666.7,145.9375 666.4188,146.2188 Q666.1375,146.5 665.7,146.5 Q665.3094,146.5 665.0594,146.3281 Q664.8094,146.1563 664.7,145.7031 Q664.6531,145.3906 664.4813,145.2188 Q664.1688,144.8906 663.6063,144.7031 Q663.0438,144.5 662.4813,144.5 Q661.7781,144.5 661.1844,144.7813 Q660.6063,145.0625 660.1531,145.6875 Q659.7,146.3125 659.7,147.1719 L659.7,148.0938 Q659.7,149.125 660.5438,149.8125 Q661.3875,150.5 662.8875,150.5 Q663.7781,150.5 664.4031,150.2969 Q664.7625,150.1875 665.1688,149.8281 Q665.4344,149.625 665.575,149.5625 Q665.7156,149.5 665.8875,149.5 Q666.2156,149.5 666.45,149.7656 Q666.7,150.0156 666.7,150.375 Q666.7,150.7188 666.3563,151.125 Q665.8563,151.7188 665.0594,152.0469 Q664.0125,152.5 662.7313,152.5 Q661.2313,152.5 660.0281,151.9063 Q659.0594,151.4375 658.3719,150.4219 Q657.7,149.4063 657.7,148.2031 L657.7,147.1094 Q657.7,145.8594 658.2938,144.7656 Q658.9031,143.6719 659.95,143.0938 Q661.0125,142.5 662.2,142.5 Q662.9188,142.5 663.5438,142.75 Q664.1688,143 664.7,143.5 Z " fill="#000000"/><text fill="#000000" font-family="sans-serif" font-size="12" lengthAdjust="spacing" textLength="40" x="679.3" y="151.9102">Vehicle</text><line style="stroke:#A80036;stroke-width:1.5;" x1="637" x2="733" y1="163" y2="163"/><text fill="#000000" font-family="sans-serif" font-size="11" lengthAdjust="spacing" textLength="26" x="642" y="178.4189">-int id</text><text fill="#000000" font-family="sans-serif" font-size="11" lengthAdjust="spacing" textLength="67" x="642" y="192.2549">-float potency</text><text fill="#000000" font-family="sans-serif" font-size="11" lengthAdjust="spacing" textLength="61" x="642" y="206.0908">-float weight</text><text fill="#000000" font-family="sans-serif" font-size="11" lengthAdjust="spacing" textLength="86" x="642" y="219.9268">-float maxPayload</text><!--MD5=[79eb2d862cef9730b5f9dcab29e35f17]
class Battery--><rect codeLine="28" fill="#FEFECE" filter="url(#f1ksezrspzlrdq)" height="95.3438" id="Battery" style="stroke:#A80036;stroke-width:1.5;" width="129" x="841" y="131"/><ellipse cx="883" cy="147" fill="#ADD1B2" rx="11" ry="11" style="stroke:#A80036;stroke-width:1.0;"/><path d="M885,143.5 Q885.2031,143 885.4375,142.75 Q885.6719,142.5 885.9375,142.5 Q886.4063,142.5 886.7031,142.7813 Q887,143.0625 887,143.7188 L887,145.2813 Q887,145.9375 886.7188,146.2188 Q886.4375,146.5 886,146.5 Q885.6094,146.5 885.3594,146.3281 Q885.1094,146.1563 885,145.7031 Q884.9531,145.3906 884.7813,145.2188 Q884.4688,144.8906 883.9063,144.7031 Q883.3438,144.5 882.7813,144.5 Q882.0781,144.5 881.4844,144.7813 Q880.9063,145.0625 880.4531,145.6875 Q880,146.3125 880,147.1719 L880,148.0938 Q880,149.125 880.8438,149.8125 Q881.6875,150.5 883.1875,150.5 Q884.0781,150.5 884.7031,150.2969 Q885.0625,150.1875 885.4688,149.8281 Q885.7344,149.625 885.875,149.5625 Q886.0156,149.5 886.1875,149.5 Q886.5156,149.5 886.75,149.7656 Q887,150.0156 887,150.375 Q887,150.7188 886.6563,151.125 Q886.1563,151.7188 885.3594,152.0469 Q884.3125,152.5 883.0313,152.5 Q881.5313,152.5 880.3281,151.9063 Q879.3594,151.4375 878.6719,150.4219 Q878,149.4063 878,148.2031 L878,147.1094 Q878,145.8594 878.5938,144.7656 Q879.2031,143.6719 880.25,143.0938 Q881.3125,142.5 882.5,142.5 Q883.2188,142.5 883.8438,142.75 Q884.4688,143 885,143.5 Z " fill="#000000"/><text fill="#000000" font-family="sans-serif" font-size="12" lengthAdjust="spacing" textLength="37" x="903" y="151.9102">Battery</text><line style="stroke:#A80036;stroke-width:1.5;" x1="842" x2="969" y1="163" y2="163"/><text fill="#000000" font-family="sans-serif" font-size="11" lengthAdjust="spacing" textLength="26" x="847" y="178.4189">-int id</text><text fill="#000000" font-family="sans-serif" font-size="11" lengthAdjust="spacing" textLength="117" x="847" y="192.2549">-float batteryPercentage</text><text fill="#000000" font-family="sans-serif" font-size="11" lengthAdjust="spacing" textLength="94" x="847" y="206.0908">-int batteryCapacity</text><text fill="#000000" font-family="sans-serif" font-size="11" lengthAdjust="spacing" textLength="99" x="847" y="219.9268">-float batteryVoltage</text><!--MD5=[771c3993b003aea4e1f6128d90cd4122]
link Courier to User--><path codeLine="39" d="M307.58,92.14 C341.8,86.02 393.75,76.74 431.49,69.99 " fill="none" id="Courier-User" style="stroke:#A80036;stroke-width:1.0;"/><polygon fill="#000000" points="352.922,65.7959,343.5009,64.4945,344.5352,70.2807,352.922,65.7959" style="stroke:#000000;stroke-width:1.0;"/><text fill="#000000" font-family="sans-serif" font-size="13" lengthAdjust="spacing" textLength="43" x="357" y="71.9951">acts as</text><text fill="#000000" font-family="sans-serif" font-size="13" lengthAdjust="spacing" textLength="7" x="315.4708" y="106.0087">1</text><text fill="#000000" font-family="sans-serif" font-size="13" lengthAdjust="spacing" textLength="7" x="416.526" y="86.0233">1</text><!--MD5=[074a56c4439d52c76e1cc7a8f9d070a4]
link Vehicle to Battery--><path codeLine="40" d="M734.22,178.5 C765.51,178.5 806.64,178.5 840.64,178.5 " fill="none" id="Vehicle-Battery" style="stroke:#A80036;stroke-width:1.0;"/><polygon fill="#000000" points="774,169.6758,764.9549,166.7369,764.9549,172.6147,774,169.6758" style="stroke:#000000;stroke-width:1.0;"/><text fill="#000000" font-family="sans-serif" font-size="13" lengthAdjust="spacing" textLength="32" x="778" y="174.9951">has a</text><text fill="#000000" font-family="sans-serif" font-size="13" lengthAdjust="spacing" textLength="7" x="741.9633" y="193.1707">1</text><text fill="#000000" font-family="sans-serif" font-size="13" lengthAdjust="spacing" textLength="7" x="826.1631" y="192.8705">1</text><!--MD5=[725fe60627dc131afee2af2d092b220b]
link Courier to DeliveryRun--><path codeLine="41" d="M307.58,112.25 C341.57,125.39 393.05,145.28 430.72,159.84 " fill="none" id="Courier-DeliveryRun" style="stroke:#A80036;stroke-width:1.0;"/><polygon fill="#000000" points="354.6638,119.4782,347.2863,113.4763,345.1674,118.9589,354.6638,119.4782" style="stroke:#000000;stroke-width:1.0;"/><text fill="#000000" font-family="sans-serif" font-size="13" lengthAdjust="spacing" textLength="39" x="359" y="122.9951">does a</text><text fill="#000000" font-family="sans-serif" font-size="13" lengthAdjust="spacing" textLength="7" x="315.4708" y="130.0779">1</text><text fill="#000000" font-family="sans-serif" font-size="13" lengthAdjust="spacing" textLength="7" x="415.9679" y="153.4573">1</text><!--MD5=[6d5b5abfe722faf0c7b2cb12e8076441]
link DeliveryRun to Vehicle--><path codeLine="42" d="M529.11,178.5 C561.35,178.5 603.64,178.5 635.89,178.5 " fill="none" id="DeliveryRun-Vehicle" style="stroke:#A80036;stroke-width:1.0;"/><polygon fill="#000000" points="569,169.6758,559.9549,166.7369,559.9549,172.6147,569,169.6758" style="stroke:#000000;stroke-width:1.0;"/><text fill="#000000" font-family="sans-serif" font-size="13" lengthAdjust="spacing" textLength="32" x="573" y="174.9951">has a</text><text fill="#000000" font-family="sans-serif" font-size="13" lengthAdjust="spacing" textLength="7" x="536.8371" y="193.208">1</text><text fill="#000000" font-family="sans-serif" font-size="13" lengthAdjust="spacing" textLength="7" x="621.1629" y="193.1707">1</text><!--MD5=[706043c1ddfd8af8e2c9f8d50a0c6600]
link database to Courier--><path codeLine="43" d="M85.18,140.67 C127.15,131.1 193.63,115.93 234.38,106.63 " fill="none" id="database-Courier" style="stroke:#A80036;stroke-width:1.0;"/><text fill="#000000" font-family="sans-serif" font-size="13" lengthAdjust="spacing" textLength="82" x="116" y="110.9951">has registered</text><text fill="#000000" font-family="sans-serif" font-size="13" lengthAdjust="spacing" textLength="7" x="92.8714" y="135.2334">1</text><text fill="#000000" font-family="sans-serif" font-size="13" lengthAdjust="spacing" textLength="5" x="221.3115" y="123.5051">*</text><!--MD5=[e840a47dc7204bdd8a2eb1ffa40d9791]
link database to DeliveryRun--><path codeLine="44" d="M85.26,152.1 C164.36,157.4 344.19,169.46 430.72,175.26 " fill="none" id="database-DeliveryRun" style="stroke:#A80036;stroke-width:1.0;"/><text fill="#000000" font-family="sans-serif" font-size="13" lengthAdjust="spacing" textLength="82" x="230" y="157.9951">has registered</text><text fill="#000000" font-family="sans-serif" font-size="13" lengthAdjust="spacing" textLength="7" x="92.9657" y="167.5493">1</text><text fill="#000000" font-family="sans-serif" font-size="13" lengthAdjust="spacing" textLength="5" x="418.1148" y="189.4921">*</text><!--MD5=[c9a3a6a73c6a40b2017153fd36295717]
@startuml
skinparam classAttributeIconSize 0
hide methods
left to right direction

class Courier {
      -String iban
}

 class User{
-Integer id
-String email
-String password
-Integer nif
-String name
}

class DeliveryRun{
-Integer id
}

class Vehicle{
  -int id
  -float potency
  -float weight
  -float maxPayload
}

class Battery{
  -int id
  -float batteryPercentage
  -int batteryCapacity
  -float batteryVoltage
}

database database{

}

Courier "1" - - "1" User : acts as >
Vehicle "1" - - "1" Battery : has a >
Courier "1" - - "1" DeliveryRun : does a >
DeliveryRun "1" - - "1" Vehicle :  has a >
database "1" - - "*" Courier : has registered
database "1" - - "*" DeliveryRun : has registered
@enduml

PlantUML version 1.2021.00(Sun Jan 10 10:25:05 GMT 2021)
(GPL source distribution)
Java Runtime: OpenJDK Runtime Environment
JVM: OpenJDK 64-Bit Server VM
Default Encoding: Cp1252
Language: pt
Country: PT
--></g></svg>