<?xml version="1.0" encoding="UTF-8" standalone="no"?><svg xmlns="http://www.w3.org/2000/svg" xmlns:xlink="http://www.w3.org/1999/xlink" contentScriptType="application/ecmascript" contentStyleType="text/css" height="1033px" preserveAspectRatio="none" style="width:858px;height:1033px;" version="1.1" viewBox="0 0 858 1033" width="858px" zoomAndPan="magnify"><defs><filter height="300%" id="f5ltrxwd80qu6" width="300%" x="-1" y="-1"><feGaussianBlur result="blurOut" stdDeviation="2.0"/><feColorMatrix in="blurOut" result="blurOut2" type="matrix" values="0 0 0 0 0 0 0 0 0 0 0 0 0 0 0 0 0 0 .4 0"/><feOffset dx="4.0" dy="4.0" in="blurOut2" result="blurOut3"/><feBlend in="SourceGraphic" in2="blurOut3" mode="normal"/></filter></defs><g><!--MD5=[9681dc6e01e10c6b4fe06895ae94f592]
cluster UI--><polygon fill="#DDDDDD" filter="url(#f5ltrxwd80qu6)" points="274,6,294,6,301,29.6094,450,29.6094,450,106,274,106,274,6" style="stroke:#000000;stroke-width:1.5;"/><line style="stroke:#000000;stroke-width:1.5;" x1="274" x2="301" y1="29.6094" y2="29.6094"/><text fill="#000000" font-family="sans-serif" font-size="14" font-weight="bold" lengthAdjust="spacing" textLength="14" x="278" y="22.5332">UI</text><!--MD5=[1f2cfc53d9d308f53762fd0fcbaa4873]
cluster Controller--><polygon fill="#DDDDDD" filter="url(#f5ltrxwd80qu6)" points="242,139,319,139,326,162.6094,482,162.6094,482,466,242,466,242,139" style="stroke:#000000;stroke-width:1.5;"/><line style="stroke:#000000;stroke-width:1.5;" x1="242" x2="326" y1="162.6094" y2="162.6094"/><text fill="#000000" font-family="sans-serif" font-size="14" font-weight="bold" lengthAdjust="spacing" textLength="71" x="246" y="155.5332">Controller</text><!--MD5=[15636c1ca4a123c16a2a1a8e90aca7a9]
cluster Model--><polygon fill="#DDDDDD" filter="url(#f5ltrxwd80qu6)" points="506,301,556,301,563,324.6094,841,324.6094,841,1026,506,1026,506,301" style="stroke:#000000;stroke-width:1.5;"/><line style="stroke:#000000;stroke-width:1.5;" x1="506" x2="563" y1="324.6094" y2="324.6094"/><text fill="#000000" font-family="sans-serif" font-size="14" font-weight="bold" lengthAdjust="spacing" textLength="44" x="510" y="317.5332">Model</text><!--MD5=[9dd75fd92da113d30380b27734fd2f01]
cluster Service--><polygon fill="#DDDDDD" filter="url(#f5ltrxwd80qu6)" points="530,345,590,345,597,368.6094,732,368.6094,732,459,530,459,530,345" style="stroke:#000000;stroke-width:1.5;"/><line style="stroke:#000000;stroke-width:1.5;" x1="530" x2="597" y1="368.6094" y2="368.6094"/><text fill="#000000" font-family="sans-serif" font-size="14" font-weight="bold" lengthAdjust="spacing" textLength="54" x="534" y="361.5332">Service</text><!--MD5=[f21b1f164e99c6b37934f23ad048ad54]
cluster Data--><polygon fill="#DDDDDD" filter="url(#f5ltrxwd80qu6)" points="16,338,53,338,60,361.6094,218,361.6094,218,635.5,16,635.5,16,338" style="stroke:#000000;stroke-width:1.5;"/><line style="stroke:#000000;stroke-width:1.5;" x1="16" x2="60" y1="361.6094" y2="361.6094"/><text fill="#000000" font-family="sans-serif" font-size="14" font-weight="bold" lengthAdjust="spacing" textLength="31" x="20" y="354.5332">Data</text><!--MD5=[def01d562ecb326557ef86080bd35c84]
class AvailableChargingUI--><rect codeLine="4" fill="#FEFECE" filter="url(#f5ltrxwd80qu6)" height="48" id="AvailableChargingUI" style="stroke:#A80036;stroke-width:1.5;" width="144" x="290" y="42"/><ellipse cx="305" cy="58" fill="#ADD1B2" rx="11" ry="11" style="stroke:#A80036;stroke-width:1.0;"/><path d="M307,54.5 Q307.2031,54 307.4375,53.75 Q307.6719,53.5 307.9375,53.5 Q308.4063,53.5 308.7031,53.7813 Q309,54.0625 309,54.7188 L309,56.2813 Q309,56.9375 308.7188,57.2188 Q308.4375,57.5 308,57.5 Q307.6094,57.5 307.3594,57.3281 Q307.1094,57.1563 307,56.7031 Q306.9531,56.3906 306.7813,56.2188 Q306.4688,55.8906 305.9063,55.7031 Q305.3438,55.5 304.7813,55.5 Q304.0781,55.5 303.4844,55.7813 Q302.9063,56.0625 302.4531,56.6875 Q302,57.3125 302,58.1719 L302,59.0938 Q302,60.125 302.8438,60.8125 Q303.6875,61.5 305.1875,61.5 Q306.0781,61.5 306.7031,61.2969 Q307.0625,61.1875 307.4688,60.8281 Q307.7344,60.625 307.875,60.5625 Q308.0156,60.5 308.1875,60.5 Q308.5156,60.5 308.75,60.7656 Q309,61.0156 309,61.375 Q309,61.7188 308.6563,62.125 Q308.1563,62.7188 307.3594,63.0469 Q306.3125,63.5 305.0313,63.5 Q303.5313,63.5 302.3281,62.9063 Q301.3594,62.4375 300.6719,61.4219 Q300,60.4063 300,59.2031 L300,58.1094 Q300,56.8594 300.5938,55.7656 Q301.2031,54.6719 302.25,54.0938 Q303.3125,53.5 304.5,53.5 Q305.2188,53.5 305.8438,53.75 Q306.4688,54 307,54.5 Z " fill="#000000"/><text fill="#000000" font-family="sans-serif" font-size="12" lengthAdjust="spacing" textLength="112" x="319" y="62.9102">AvailableChargingUI</text><line style="stroke:#A80036;stroke-width:1.5;" x1="291" x2="433" y1="74" y2="74"/><line style="stroke:#A80036;stroke-width:1.5;" x1="291" x2="433" y1="82" y2="82"/><!--MD5=[12ea1c116742766f102373bcbe2dd4aa]
class AvailableChargingSlotController--><rect codeLine="9" fill="#FEFECE" filter="url(#f5ltrxwd80qu6)" height="61.8359" id="AvailableChargingSlotController" style="stroke:#A80036;stroke-width:1.5;" width="207" x="258.5" y="175"/><ellipse cx="273.5" cy="191" fill="#ADD1B2" rx="11" ry="11" style="stroke:#A80036;stroke-width:1.0;"/><path d="M275.5,187.5 Q275.7031,187 275.9375,186.75 Q276.1719,186.5 276.4375,186.5 Q276.9063,186.5 277.2031,186.7813 Q277.5,187.0625 277.5,187.7188 L277.5,189.2813 Q277.5,189.9375 277.2188,190.2188 Q276.9375,190.5 276.5,190.5 Q276.1094,190.5 275.8594,190.3281 Q275.6094,190.1563 275.5,189.7031 Q275.4531,189.3906 275.2813,189.2188 Q274.9688,188.8906 274.4063,188.7031 Q273.8438,188.5 273.2813,188.5 Q272.5781,188.5 271.9844,188.7813 Q271.4063,189.0625 270.9531,189.6875 Q270.5,190.3125 270.5,191.1719 L270.5,192.0938 Q270.5,193.125 271.3438,193.8125 Q272.1875,194.5 273.6875,194.5 Q274.5781,194.5 275.2031,194.2969 Q275.5625,194.1875 275.9688,193.8281 Q276.2344,193.625 276.375,193.5625 Q276.5156,193.5 276.6875,193.5 Q277.0156,193.5 277.25,193.7656 Q277.5,194.0156 277.5,194.375 Q277.5,194.7188 277.1563,195.125 Q276.6563,195.7188 275.8594,196.0469 Q274.8125,196.5 273.5313,196.5 Q272.0313,196.5 270.8281,195.9063 Q269.8594,195.4375 269.1719,194.4219 Q268.5,193.4063 268.5,192.2031 L268.5,191.1094 Q268.5,189.8594 269.0938,188.7656 Q269.7031,187.6719 270.75,187.0938 Q271.8125,186.5 273,186.5 Q273.7188,186.5 274.3438,186.75 Q274.9688,187 275.5,187.5 Z " fill="#000000"/><text fill="#000000" font-family="sans-serif" font-size="12" lengthAdjust="spacing" textLength="175" x="287.5" y="195.9102">AvailableChargingSlotController</text><line style="stroke:#A80036;stroke-width:1.5;" x1="259.5" x2="464.5" y1="207" y2="207"/><line style="stroke:#A80036;stroke-width:1.5;" x1="259.5" x2="464.5" y1="215" y2="215"/><text fill="#000000" font-family="sans-serif" font-size="11" lengthAdjust="spacing" textLength="134" x="264.5" y="230.4189">+getAvailableChargingSlot()</text><!--MD5=[e45a4727c47b726c25e081782e8bc183]
class ApplicationPOT--><rect codeLine="13" fill="#FEFECE" filter="url(#f5ltrxwd80qu6)" height="75.6719" id="ApplicationPOT" style="stroke:#A80036;stroke-width:1.5;" width="124" x="300" y="374"/><ellipse cx="318.6" cy="390" fill="#ADD1B2" rx="11" ry="11" style="stroke:#A80036;stroke-width:1.0;"/><path d="M320.6,386.5 Q320.8031,386 321.0375,385.75 Q321.2719,385.5 321.5375,385.5 Q322.0063,385.5 322.3031,385.7813 Q322.6,386.0625 322.6,386.7188 L322.6,388.2813 Q322.6,388.9375 322.3188,389.2188 Q322.0375,389.5 321.6,389.5 Q321.2094,389.5 320.9594,389.3281 Q320.7094,389.1563 320.6,388.7031 Q320.5531,388.3906 320.3813,388.2188 Q320.0688,387.8906 319.5063,387.7031 Q318.9438,387.5 318.3813,387.5 Q317.6781,387.5 317.0844,387.7813 Q316.5063,388.0625 316.0531,388.6875 Q315.6,389.3125 315.6,390.1719 L315.6,391.0938 Q315.6,392.125 316.4438,392.8125 Q317.2875,393.5 318.7875,393.5 Q319.6781,393.5 320.3031,393.2969 Q320.6625,393.1875 321.0688,392.8281 Q321.3344,392.625 321.475,392.5625 Q321.6156,392.5 321.7875,392.5 Q322.1156,392.5 322.35,392.7656 Q322.6,393.0156 322.6,393.375 Q322.6,393.7188 322.2563,394.125 Q321.7563,394.7188 320.9594,395.0469 Q319.9125,395.5 318.6313,395.5 Q317.1313,395.5 315.9281,394.9063 Q314.9594,394.4375 314.2719,393.4219 Q313.6,392.4063 313.6,391.2031 L313.6,390.1094 Q313.6,388.8594 314.1938,387.7656 Q314.8031,386.6719 315.85,386.0938 Q316.9125,385.5 318.1,385.5 Q318.8188,385.5 319.4438,385.75 Q320.0688,386 320.6,386.5 Z " fill="#000000"/><text fill="#000000" font-family="sans-serif" font-size="12" lengthAdjust="spacing" textLength="84" x="333.4" y="394.9102">ApplicationPOT</text><line style="stroke:#A80036;stroke-width:1.5;" x1="301" x2="423" y1="406" y2="406"/><line style="stroke:#A80036;stroke-width:1.5;" x1="301" x2="423" y1="414" y2="414"/><text fill="#000000" font-family="sans-serif" font-size="11" lengthAdjust="spacing" textLength="99" x="306" y="429.4189">+static getInstance()</text><text fill="#000000" font-family="sans-serif" font-size="11" lengthAdjust="spacing" textLength="112" x="306" y="443.2549">+getCurrentUserEmail()</text><!--MD5=[7f2a9fafcebe4f099f71398fd3e2ed00]
class Pharmacy--><rect codeLine="30" fill="#FEFECE" filter="url(#f5ltrxwd80qu6)" height="89.5078" id="Pharmacy" style="stroke:#A80036;stroke-width:1.5;" width="101" x="569.5" y="543.5"/><ellipse cx="590.8" cy="559.5" fill="#ADD1B2" rx="11" ry="11" style="stroke:#A80036;stroke-width:1.0;"/><path d="M592.8,556 Q593.0031,555.5 593.2375,555.25 Q593.4719,555 593.7375,555 Q594.2063,555 594.5031,555.2813 Q594.8,555.5625 594.8,556.2188 L594.8,557.7813 Q594.8,558.4375 594.5188,558.7188 Q594.2375,559 593.8,559 Q593.4094,559 593.1594,558.8281 Q592.9094,558.6563 592.8,558.2031 Q592.7531,557.8906 592.5813,557.7188 Q592.2688,557.3906 591.7063,557.2031 Q591.1438,557 590.5813,557 Q589.8781,557 589.2844,557.2813 Q588.7063,557.5625 588.2531,558.1875 Q587.8,558.8125 587.8,559.6719 L587.8,560.5938 Q587.8,561.625 588.6438,562.3125 Q589.4875,563 590.9875,563 Q591.8781,563 592.5031,562.7969 Q592.8625,562.6875 593.2688,562.3281 Q593.5344,562.125 593.675,562.0625 Q593.8156,562 593.9875,562 Q594.3156,562 594.55,562.2656 Q594.8,562.5156 594.8,562.875 Q594.8,563.2188 594.4563,563.625 Q593.9563,564.2188 593.1594,564.5469 Q592.1125,565 590.8313,565 Q589.3313,565 588.1281,564.4063 Q587.1594,563.9375 586.4719,562.9219 Q585.8,561.9063 585.8,560.7031 L585.8,559.6094 Q585.8,558.3594 586.3938,557.2656 Q587.0031,556.1719 588.05,555.5938 Q589.1125,555 590.3,555 Q591.0188,555 591.6438,555.25 Q592.2688,555.5 592.8,556 Z " fill="#000000"/><text fill="#000000" font-family="sans-serif" font-size="12" lengthAdjust="spacing" textLength="55" x="606.2" y="564.4102">Pharmacy</text><line style="stroke:#A80036;stroke-width:1.5;" x1="570.5" x2="669.5" y1="575.5" y2="575.5"/><text fill="#000000" font-family="sans-serif" font-size="11" lengthAdjust="spacing" textLength="26" x="575.5" y="590.9189">-int id</text><text fill="#000000" font-family="sans-serif" font-size="11" lengthAdjust="spacing" textLength="61" x="575.5" y="604.7549">-String name</text><text fill="#000000" font-family="sans-serif" font-size="11" lengthAdjust="spacing" textLength="89" x="575.5" y="618.5908">-Address address</text><line style="stroke:#A80036;stroke-width:1.5;" x1="570.5" x2="669.5" y1="625.0078" y2="625.0078"/><!--MD5=[d1eeb527b96f439f56c6bd12ac0dd707]
class Park--><rect codeLine="36" fill="#FEFECE" filter="url(#f5ltrxwd80qu6)" height="75.6719" id="Park" style="stroke:#A80036;stroke-width:1.5;" width="111" x="541.5" y="752.5"/><ellipse cx="580.8" cy="768.5" fill="#ADD1B2" rx="11" ry="11" style="stroke:#A80036;stroke-width:1.0;"/><path d="M582.8,765 Q583.0031,764.5 583.2375,764.25 Q583.4719,764 583.7375,764 Q584.2063,764 584.5031,764.2813 Q584.8,764.5625 584.8,765.2188 L584.8,766.7813 Q584.8,767.4375 584.5188,767.7188 Q584.2375,768 583.8,768 Q583.4094,768 583.1594,767.8281 Q582.9094,767.6563 582.8,767.2031 Q582.7531,766.8906 582.5813,766.7188 Q582.2688,766.3906 581.7063,766.2031 Q581.1438,766 580.5813,766 Q579.8781,766 579.2844,766.2813 Q578.7063,766.5625 578.2531,767.1875 Q577.8,767.8125 577.8,768.6719 L577.8,769.5938 Q577.8,770.625 578.6438,771.3125 Q579.4875,772 580.9875,772 Q581.8781,772 582.5031,771.7969 Q582.8625,771.6875 583.2688,771.3281 Q583.5344,771.125 583.675,771.0625 Q583.8156,771 583.9875,771 Q584.3156,771 584.55,771.2656 Q584.8,771.5156 584.8,771.875 Q584.8,772.2188 584.4563,772.625 Q583.9563,773.2188 583.1594,773.5469 Q582.1125,774 580.8313,774 Q579.3313,774 578.1281,773.4063 Q577.1594,772.9375 576.4719,771.9219 Q575.8,770.9063 575.8,769.7031 L575.8,768.6094 Q575.8,767.3594 576.3938,766.2656 Q577.0031,765.1719 578.05,764.5938 Q579.1125,764 580.3,764 Q581.0188,764 581.6438,764.25 Q582.2688,764.5 582.8,765 Z " fill="#000000"/><text fill="#000000" font-family="sans-serif" font-size="12" lengthAdjust="spacing" textLength="25" x="600.2" y="773.4102">Park</text><line style="stroke:#A80036;stroke-width:1.5;" x1="542.5" x2="651.5" y1="784.5" y2="784.5"/><text fill="#000000" font-family="sans-serif" font-size="11" lengthAdjust="spacing" textLength="26" x="547.5" y="799.9189">-int id</text><text fill="#000000" font-family="sans-serif" font-size="11" lengthAdjust="spacing" textLength="99" x="547.5" y="813.7549">-int maxSlotsNumber</text><line style="stroke:#A80036;stroke-width:1.5;" x1="542.5" x2="651.5" y1="820.1719" y2="820.1719"/><!--MD5=[59d2374cee64c81d4b5b0eac02df9f3a]
class ChargingSlot--><rect codeLine="41" fill="#FEFECE" filter="url(#f5ltrxwd80qu6)" height="75.6719" id="ChargingSlot" style="stroke:#A80036;stroke-width:1.5;" width="104" x="601" y="934"/><ellipse cx="616" cy="950" fill="#ADD1B2" rx="11" ry="11" style="stroke:#A80036;stroke-width:1.0;"/><path d="M618,946.5 Q618.2031,946 618.4375,945.75 Q618.6719,945.5 618.9375,945.5 Q619.4063,945.5 619.7031,945.7813 Q620,946.0625 620,946.7188 L620,948.2813 Q620,948.9375 619.7188,949.2188 Q619.4375,949.5 619,949.5 Q618.6094,949.5 618.3594,949.3281 Q618.1094,949.1563 618,948.7031 Q617.9531,948.3906 617.7813,948.2188 Q617.4688,947.8906 616.9063,947.7031 Q616.3438,947.5 615.7813,947.5 Q615.0781,947.5 614.4844,947.7813 Q613.9063,948.0625 613.4531,948.6875 Q613,949.3125 613,950.1719 L613,951.0938 Q613,952.125 613.8438,952.8125 Q614.6875,953.5 616.1875,953.5 Q617.0781,953.5 617.7031,953.2969 Q618.0625,953.1875 618.4688,952.8281 Q618.7344,952.625 618.875,952.5625 Q619.0156,952.5 619.1875,952.5 Q619.5156,952.5 619.75,952.7656 Q620,953.0156 620,953.375 Q620,953.7188 619.6563,954.125 Q619.1563,954.7188 618.3594,955.0469 Q617.3125,955.5 616.0313,955.5 Q614.5313,955.5 613.3281,954.9063 Q612.3594,954.4375 611.6719,953.4219 Q611,952.4063 611,951.2031 L611,950.1094 Q611,948.8594 611.5938,947.7656 Q612.2031,946.6719 613.25,946.0938 Q614.3125,945.5 615.5,945.5 Q616.2188,945.5 616.8438,945.75 Q617.4688,946 618,946.5 Z " fill="#000000"/><text fill="#000000" font-family="sans-serif" font-size="12" lengthAdjust="spacing" textLength="72" x="630" y="954.9102">ChargingSlot</text><line style="stroke:#A80036;stroke-width:1.5;" x1="602" x2="704" y1="966" y2="966"/><text fill="#000000" font-family="sans-serif" font-size="11" lengthAdjust="spacing" textLength="26" x="607" y="981.4189">-int id</text><text fill="#000000" font-family="sans-serif" font-size="11" lengthAdjust="spacing" textLength="90" x="607" y="995.2549">-float outputPower</text><line style="stroke:#A80036;stroke-width:1.5;" x1="602" x2="704" y1="1001.6719" y2="1001.6719"/><!--MD5=[c6a2171c11447acbe08a3dfeee0e1710]
class Courier--><rect codeLine="46" fill="#FEFECE" filter="url(#f5ltrxwd80qu6)" height="75.6719" id="Courier" style="stroke:#A80036;stroke-width:1.5;" width="73" x="751.5" y="374"/><ellipse cx="766.5" cy="390" fill="#ADD1B2" rx="11" ry="11" style="stroke:#A80036;stroke-width:1.0;"/><path d="M768.5,386.5 Q768.7031,386 768.9375,385.75 Q769.1719,385.5 769.4375,385.5 Q769.9063,385.5 770.2031,385.7813 Q770.5,386.0625 770.5,386.7188 L770.5,388.2813 Q770.5,388.9375 770.2188,389.2188 Q769.9375,389.5 769.5,389.5 Q769.1094,389.5 768.8594,389.3281 Q768.6094,389.1563 768.5,388.7031 Q768.4531,388.3906 768.2813,388.2188 Q767.9688,387.8906 767.4063,387.7031 Q766.8438,387.5 766.2813,387.5 Q765.5781,387.5 764.9844,387.7813 Q764.4063,388.0625 763.9531,388.6875 Q763.5,389.3125 763.5,390.1719 L763.5,391.0938 Q763.5,392.125 764.3438,392.8125 Q765.1875,393.5 766.6875,393.5 Q767.5781,393.5 768.2031,393.2969 Q768.5625,393.1875 768.9688,392.8281 Q769.2344,392.625 769.375,392.5625 Q769.5156,392.5 769.6875,392.5 Q770.0156,392.5 770.25,392.7656 Q770.5,393.0156 770.5,393.375 Q770.5,393.7188 770.1563,394.125 Q769.6563,394.7188 768.8594,395.0469 Q767.8125,395.5 766.5313,395.5 Q765.0313,395.5 763.8281,394.9063 Q762.8594,394.4375 762.1719,393.4219 Q761.5,392.4063 761.5,391.2031 L761.5,390.1094 Q761.5,388.8594 762.0938,387.7656 Q762.7031,386.6719 763.75,386.0938 Q764.8125,385.5 766,385.5 Q766.7188,385.5 767.3438,385.75 Q767.9688,386 768.5,386.5 Z " fill="#000000"/><text fill="#000000" font-family="sans-serif" font-size="12" lengthAdjust="spacing" textLength="41" x="780.5" y="394.9102">Courier</text><line style="stroke:#A80036;stroke-width:1.5;" x1="752.5" x2="823.5" y1="406" y2="406"/><text fill="#000000" font-family="sans-serif" font-size="11" lengthAdjust="spacing" textLength="43" x="757.5" y="421.4189">-String id</text><text fill="#000000" font-family="sans-serif" font-size="11" lengthAdjust="spacing" textLength="55" x="757.5" y="435.2549">-String iban</text><line style="stroke:#A80036;stroke-width:1.5;" x1="752.5" x2="823.5" y1="441.6719" y2="441.6719"/><!--MD5=[f4402668d5d5bb8485350c0fdb60ac8e]
class Scooter--><rect codeLine="51" fill="#FEFECE" filter="url(#f5ltrxwd80qu6)" height="131.0156" id="Scooter" style="stroke:#A80036;stroke-width:1.5;" width="118" x="688" y="725"/><ellipse cx="722.8" cy="741" fill="#ADD1B2" rx="11" ry="11" style="stroke:#A80036;stroke-width:1.0;"/><path d="M724.8,737.5 Q725.0031,737 725.2375,736.75 Q725.4719,736.5 725.7375,736.5 Q726.2063,736.5 726.5031,736.7813 Q726.8,737.0625 726.8,737.7188 L726.8,739.2813 Q726.8,739.9375 726.5188,740.2188 Q726.2375,740.5 725.8,740.5 Q725.4094,740.5 725.1594,740.3281 Q724.9094,740.1563 724.8,739.7031 Q724.7531,739.3906 724.5813,739.2188 Q724.2688,738.8906 723.7063,738.7031 Q723.1438,738.5 722.5813,738.5 Q721.8781,738.5 721.2844,738.7813 Q720.7063,739.0625 720.2531,739.6875 Q719.8,740.3125 719.8,741.1719 L719.8,742.0938 Q719.8,743.125 720.6438,743.8125 Q721.4875,744.5 722.9875,744.5 Q723.8781,744.5 724.5031,744.2969 Q724.8625,744.1875 725.2688,743.8281 Q725.5344,743.625 725.675,743.5625 Q725.8156,743.5 725.9875,743.5 Q726.3156,743.5 726.55,743.7656 Q726.8,744.0156 726.8,744.375 Q726.8,744.7188 726.4563,745.125 Q725.9563,745.7188 725.1594,746.0469 Q724.1125,746.5 722.8313,746.5 Q721.3313,746.5 720.1281,745.9063 Q719.1594,745.4375 718.4719,744.4219 Q717.8,743.4063 717.8,742.2031 L717.8,741.1094 Q717.8,739.8594 718.3938,738.7656 Q719.0031,737.6719 720.05,737.0938 Q721.1125,736.5 722.3,736.5 Q723.0188,736.5 723.6438,736.75 Q724.2688,737 724.8,737.5 Z " fill="#000000"/><text fill="#000000" font-family="sans-serif" font-size="12" lengthAdjust="spacing" textLength="42" x="741.2" y="745.9102">Scooter</text><line style="stroke:#A80036;stroke-width:1.5;" x1="689" x2="805" y1="757" y2="757"/><text fill="#000000" font-family="sans-serif" font-size="11" lengthAdjust="spacing" textLength="26" x="694" y="772.4189">-int Id</text><text fill="#000000" font-family="sans-serif" font-size="11" lengthAdjust="spacing" textLength="75" x="694" y="786.2549">-int BatteryPerc</text><text fill="#000000" font-family="sans-serif" font-size="11" lengthAdjust="spacing" textLength="86" x="694" y="800.0908">-int CharginStatus</text><text fill="#000000" font-family="sans-serif" font-size="11" lengthAdjust="spacing" textLength="57" x="694" y="813.9268">-int Potency</text><text fill="#000000" font-family="sans-serif" font-size="11" lengthAdjust="spacing" textLength="51" x="694" y="827.7627">-int Weight</text><text fill="#000000" font-family="sans-serif" font-size="11" lengthAdjust="spacing" textLength="106" x="694" y="841.5986">-int intBatteryCapacity</text><line style="stroke:#A80036;stroke-width:1.5;" x1="689" x2="805" y1="848.0156" y2="848.0156"/><!--MD5=[3fd616f346a44cd59a91eb10b19e157c]
class User--><rect codeLine="60" fill="#FEFECE" filter="url(#f5ltrxwd80qu6)" height="117.1797" id="User" style="stroke:#A80036;stroke-width:1.5;" width="97" x="718.5" y="530"/><ellipse cx="751.05" cy="546" fill="#A9DCDF" rx="11" ry="11" style="stroke:#A80036;stroke-width:1.0;"/><path d="M752.8,547.5 L749.5031,547.5 L749.0656,548.5 L749.0656,548.5 L749.5344,548.5 L750.05,549.125 L750.05,549.5 L750.05,549.875 L749.5344,550.5 L749.0656,550.5 L747.175,550.5 L746.5656,550.5 L746.05,549.875 L746.05,549.5 L746.05,549.125 L746.5656,548.5 L747.175,548.5 L749.4875,542.5 L748.6125,542.5 L747.5656,542.5 L747.05,541.875 L747.05,541.5 L747.05,541.125 L747.5656,540.5 L748.6125,540.5 L752.2844,540.5 L754.9719,548.5 L755.5344,548.5 L755.5344,548.5 L756.05,549.125 L756.05,549.5 L756.05,549.875 L755.5344,550.5 L754.9719,550.5 L753.0813,550.5 L752.5656,550.5 L752.05,549.875 L752.05,549.5 L752.05,549.125 L752.5656,548.5 L753.0813,548.5 L753.0813,548.5 L752.8,547.5 Z M752.2531,545.5 L751.05,541.9219 L750.0188,545.5 L752.2531,545.5 Z " fill="#000000"/><text fill="#000000" font-family="sans-serif" font-size="12" font-style="italic" lengthAdjust="spacing" textLength="26" x="768.95" y="550.9102">User</text><line style="stroke:#A80036;stroke-width:1.5;" x1="719.5" x2="814.5" y1="562" y2="562"/><text fill="#000000" font-family="sans-serif" font-size="11" lengthAdjust="spacing" textLength="48" x="724.5" y="577.4189">-Integer id</text><text fill="#000000" font-family="sans-serif" font-size="11" lengthAdjust="spacing" textLength="59" x="724.5" y="591.2549">-String email</text><text fill="#000000" font-family="sans-serif" font-size="11" lengthAdjust="spacing" textLength="85" x="724.5" y="605.0908">-String password</text><text fill="#000000" font-family="sans-serif" font-size="11" lengthAdjust="spacing" textLength="30" x="724.5" y="618.9268">-int nif</text><text fill="#000000" font-family="sans-serif" font-size="11" lengthAdjust="spacing" textLength="60" x="724.5" y="632.7627">-string name</text><line style="stroke:#A80036;stroke-width:1.5;" x1="719.5" x2="814.5" y1="639.1797" y2="639.1797"/><!--MD5=[3b6a694fa07a791a99958c0d423d4693]
class CourierService--><rect codeLine="23" fill="#FEFECE" filter="url(#f5ltrxwd80qu6)" height="61.8359" id="CourierService" style="stroke:#A80036;stroke-width:1.5;" width="170" x="546" y="381"/><ellipse cx="586.65" cy="397" fill="#ADD1B2" rx="11" ry="11" style="stroke:#A80036;stroke-width:1.0;"/><path d="M588.65,393.5 Q588.8531,393 589.0875,392.75 Q589.3219,392.5 589.5875,392.5 Q590.0563,392.5 590.3531,392.7813 Q590.65,393.0625 590.65,393.7188 L590.65,395.2813 Q590.65,395.9375 590.3688,396.2188 Q590.0875,396.5 589.65,396.5 Q589.2594,396.5 589.0094,396.3281 Q588.7594,396.1563 588.65,395.7031 Q588.6031,395.3906 588.4313,395.2188 Q588.1188,394.8906 587.5563,394.7031 Q586.9938,394.5 586.4313,394.5 Q585.7281,394.5 585.1344,394.7813 Q584.5563,395.0625 584.1031,395.6875 Q583.65,396.3125 583.65,397.1719 L583.65,398.0938 Q583.65,399.125 584.4938,399.8125 Q585.3375,400.5 586.8375,400.5 Q587.7281,400.5 588.3531,400.2969 Q588.7125,400.1875 589.1188,399.8281 Q589.3844,399.625 589.525,399.5625 Q589.6656,399.5 589.8375,399.5 Q590.1656,399.5 590.4,399.7656 Q590.65,400.0156 590.65,400.375 Q590.65,400.7188 590.3063,401.125 Q589.8063,401.7188 589.0094,402.0469 Q587.9625,402.5 586.6813,402.5 Q585.1813,402.5 583.9781,401.9063 Q583.0094,401.4375 582.3219,400.4219 Q581.65,399.4063 581.65,398.2031 L581.65,397.1094 Q581.65,395.8594 582.2438,394.7656 Q582.8531,393.6719 583.9,393.0938 Q584.9625,392.5 586.15,392.5 Q586.8688,392.5 587.4938,392.75 Q588.1188,393 588.65,393.5 Z " fill="#000000"/><text fill="#000000" font-family="sans-serif" font-size="12" lengthAdjust="spacing" textLength="81" x="606.35" y="401.9102">CourierService</text><line style="stroke:#A80036;stroke-width:1.5;" x1="547" x2="715" y1="413" y2="413"/><line style="stroke:#A80036;stroke-width:1.5;" x1="547" x2="715" y1="421" y2="421"/><text fill="#000000" font-family="sans-serif" font-size="11" lengthAdjust="spacing" textLength="158" x="552" y="436.4189">+getAvailableChargingSlot(email)</text><!--MD5=[4b2d61224b33971326a22fe5d809d926]
class DataHandler--><rect codeLine="72" fill="#FEFECE" filter="url(#f5ltrxwd80qu6)" height="75.6719" id="DataHandler" style="stroke:#A80036;stroke-width:1.5;" width="104" x="65" y="374"/><ellipse cx="80.9" cy="390" fill="#ADD1B2" rx="11" ry="11" style="stroke:#A80036;stroke-width:1.0;"/><path d="M82.9,386.5 Q83.1031,386 83.3375,385.75 Q83.5719,385.5 83.8375,385.5 Q84.3063,385.5 84.6031,385.7813 Q84.9,386.0625 84.9,386.7188 L84.9,388.2813 Q84.9,388.9375 84.6188,389.2188 Q84.3375,389.5 83.9,389.5 Q83.5094,389.5 83.2594,389.3281 Q83.0094,389.1563 82.9,388.7031 Q82.8531,388.3906 82.6813,388.2188 Q82.3688,387.8906 81.8063,387.7031 Q81.2438,387.5 80.6813,387.5 Q79.9781,387.5 79.3844,387.7813 Q78.8063,388.0625 78.3531,388.6875 Q77.9,389.3125 77.9,390.1719 L77.9,391.0938 Q77.9,392.125 78.7438,392.8125 Q79.5875,393.5 81.0875,393.5 Q81.9781,393.5 82.6031,393.2969 Q82.9625,393.1875 83.3688,392.8281 Q83.6344,392.625 83.775,392.5625 Q83.9156,392.5 84.0875,392.5 Q84.4156,392.5 84.65,392.7656 Q84.9,393.0156 84.9,393.375 Q84.9,393.7188 84.5563,394.125 Q84.0563,394.7188 83.2594,395.0469 Q82.2125,395.5 80.9313,395.5 Q79.4313,395.5 78.2281,394.9063 Q77.2594,394.4375 76.5719,393.4219 Q75.9,392.4063 75.9,391.2031 L75.9,390.1094 Q75.9,388.8594 76.4938,387.7656 Q77.1031,386.6719 78.15,386.0938 Q79.2125,385.5 80.4,385.5 Q81.1188,385.5 81.7438,385.75 Q82.3688,386 82.9,386.5 Z " fill="#000000"/><text fill="#000000" font-family="sans-serif" font-size="12" lengthAdjust="spacing" textLength="70" x="95.1" y="394.9102">DataHandler</text><line style="stroke:#A80036;stroke-width:1.5;" x1="66" x2="168" y1="406" y2="406"/><line style="stroke:#A80036;stroke-width:1.5;" x1="66" x2="168" y1="414" y2="414"/><text fill="#000000" font-family="sans-serif" font-size="11" lengthAdjust="spacing" textLength="92" x="71" y="429.4189">+openConnection()</text><text fill="#000000" font-family="sans-serif" font-size="11" lengthAdjust="spacing" textLength="52" x="71" y="443.2549">+closeAll()</text><!--MD5=[17a3ebf5611c1ba9c6fd429f5d0d77a4]
class CourierDB--><rect codeLine="85" fill="#FEFECE" filter="url(#f5ltrxwd80qu6)" height="61.8359" id="CourierDB" style="stroke:#A80036;stroke-width:1.5;" width="170" x="32" y="557.5"/><ellipse cx="83.75" cy="573.5" fill="#ADD1B2" rx="11" ry="11" style="stroke:#A80036;stroke-width:1.0;"/><path d="M85.75,570 Q85.9531,569.5 86.1875,569.25 Q86.4219,569 86.6875,569 Q87.1563,569 87.4531,569.2813 Q87.75,569.5625 87.75,570.2188 L87.75,571.7813 Q87.75,572.4375 87.4688,572.7188 Q87.1875,573 86.75,573 Q86.3594,573 86.1094,572.8281 Q85.8594,572.6563 85.75,572.2031 Q85.7031,571.8906 85.5313,571.7188 Q85.2188,571.3906 84.6563,571.2031 Q84.0938,571 83.5313,571 Q82.8281,571 82.2344,571.2813 Q81.6563,571.5625 81.2031,572.1875 Q80.75,572.8125 80.75,573.6719 L80.75,574.5938 Q80.75,575.625 81.5938,576.3125 Q82.4375,577 83.9375,577 Q84.8281,577 85.4531,576.7969 Q85.8125,576.6875 86.2188,576.3281 Q86.4844,576.125 86.625,576.0625 Q86.7656,576 86.9375,576 Q87.2656,576 87.5,576.2656 Q87.75,576.5156 87.75,576.875 Q87.75,577.2188 87.4063,577.625 Q86.9063,578.2188 86.1094,578.5469 Q85.0625,579 83.7813,579 Q82.2813,579 81.0781,578.4063 Q80.1094,577.9375 79.4219,576.9219 Q78.75,575.9063 78.75,574.7031 L78.75,573.6094 Q78.75,572.3594 79.3438,571.2656 Q79.9531,570.1719 81,569.5938 Q82.0625,569 83.25,569 Q83.9688,569 84.5938,569.25 Q85.2188,569.5 85.75,570 Z " fill="#000000"/><text fill="#000000" font-family="sans-serif" font-size="12" lengthAdjust="spacing" textLength="58" x="104.25" y="578.4102">CourierDB</text><line style="stroke:#A80036;stroke-width:1.5;" x1="33" x2="201" y1="589.5" y2="589.5"/><line style="stroke:#A80036;stroke-width:1.5;" x1="33" x2="201" y1="597.5" y2="597.5"/><text fill="#000000" font-family="sans-serif" font-size="11" lengthAdjust="spacing" textLength="158" x="38" y="612.9189">+getAvailableChargingSlot(email)</text><!--MD5=[f50ff5e4cd64f259303fc83dba1819fc]
entity database--><path d="M235.5,777 C235.5,767 275,767 275,767 C275,767 314.5,767 314.5,777 L314.5,803.6094 C314.5,813.6094 275,813.6094 275,813.6094 C275,813.6094 235.5,813.6094 235.5,803.6094 L235.5,777 " fill="#FFFFFF" filter="url(#f5ltrxwd80qu6)" style="stroke:#000000;stroke-width:1.5;"/><path d="M235.5,777 C235.5,787 275,787 275,787 C275,787 314.5,787 314.5,777 " fill="none" style="stroke:#000000;stroke-width:1.5;"/><text fill="#000000" font-family="sans-serif" font-size="14" lengthAdjust="spacing" textLength="59" x="245.5" y="805.5332">database</text><!--MD5=[480dfbb70e72da71ac7a75a9e761c5f4]
reverse link DataHandler to CourierDB--><path d="M117,470.05 C117,499.1 117,533.26 117,557.22 " fill="none" id="DataHandler-backto-CourierDB" style="stroke:#A80036;stroke-width:1.0;"/><polygon fill="none" points="110,470.01,117,450.01,124,470.01,110,470.01" style="stroke:#A80036;stroke-width:1.0;"/><!--MD5=[dc068705b8665c8261dbd2e78a6f2326]
link AvailableChargingSlotController to ApplicationPOT--><path codeLine="87" d="M362,237.1 C362,271.89 362,329.39 362,368.67 " fill="none" id="AvailableChargingSlotController-to-ApplicationPOT" style="stroke:#A80036;stroke-width:1.0;stroke-dasharray:7.0,7.0;"/><polygon fill="#A80036" points="362,373.85,366,364.85,362,368.85,358,364.85,362,373.85" style="stroke:#A80036;stroke-width:1.0;"/><!--MD5=[2d9b1cbd12fde6669b7fad16b74f9e26]
link AvailableChargingUI to AvailableChargingSlotController--><path codeLine="88" d="M362,90.1 C362,111.8 362,144.6 362,169.6 " fill="none" id="AvailableChargingUI-to-AvailableChargingSlotController" style="stroke:#A80036;stroke-width:1.0;stroke-dasharray:7.0,7.0;"/><polygon fill="#A80036" points="362,174.81,366,165.81,362,169.81,358,165.81,362,174.81" style="stroke:#A80036;stroke-width:1.0;"/><!--MD5=[4be19f4274945a1977a7f062f8729df7]
link AvailableChargingSlotController to CourierService--><path codeLine="89" d="M405.13,237.15 C428.14,253.43 456.82,274.03 482,293 C519.07,320.94 560.4,353.81 590.1,377.75 " fill="none" id="AvailableChargingSlotController-to-CourierService" style="stroke:#A80036;stroke-width:1.0;stroke-dasharray:7.0,7.0;"/><polygon fill="#A80036" points="594.03,380.92,589.5479,372.1501,590.1424,377.7757,584.5169,378.3702,594.03,380.92" style="stroke:#A80036;stroke-width:1.0;"/><text fill="#000000" font-family="sans-serif" font-size="13" lengthAdjust="spacing" textLength="21" x="470" y="281.4951">has</text><!--MD5=[89b25d1c9bf6553681a153895b89905c]
link CourierService to CourierDB--><path codeLine="90" d="M570.91,443.11 C544.34,454.97 512.3,467.32 482,474 C443.55,482.47 342.86,471.18 305,482 C252.26,497.07 198.3,529.45 161.79,554.4 " fill="none" id="CourierService-to-CourierDB" style="stroke:#A80036;stroke-width:1.0;stroke-dasharray:7.0,7.0;"/><polygon fill="#A80036" points="157.43,557.4,167.1154,555.6131,161.5548,554.574,162.5938,549.0134,157.43,557.4" style="stroke:#A80036;stroke-width:1.0;"/><text fill="#000000" font-family="sans-serif" font-size="13" lengthAdjust="spacing" textLength="21" x="306" y="496.4951">has</text><!--MD5=[6186e8b4cee7708710b6e27e9dc51b19]
link CourierDB to database--><path codeLine="91" d="M141,619.88 C171.82,658.89 224.8,725.96 254.06,763 " fill="none" id="CourierDB-to-database" style="stroke:#A80036;stroke-width:1.0;"/><polygon fill="#A80036" points="257.17,766.93,254.735,757.3869,254.0727,763.0049,248.4548,762.3426,257.17,766.93" style="stroke:#A80036;stroke-width:1.0;"/><text fill="#000000" font-family="sans-serif" font-size="13" lengthAdjust="spacing" textLength="53" x="197" y="691.4951">manages</text><!--MD5=[706043c1ddfd8af8e2c9f8d50a0c6600]
link database to Courier--><path codeLine="93" d="M284.17,766.7 C305.83,715.89 365.15,592.86 455,530 C523.9,481.8 555.14,496.28 638,482 C658.66,478.44 713.18,483.24 732,474 C743.36,468.42 753.52,459.47 761.97,450.13 " fill="none" id="database-Courier" style="stroke:#A80036;stroke-width:1.0;"/><polygon fill="#000000" points="464.1681,585.9141,455.0047,588.46,458.2512,593.36,464.1681,585.9141" style="stroke:#000000;stroke-width:1.0;"/><text fill="#000000" font-family="sans-serif" font-size="13" lengthAdjust="spacing" textLength="82" x="469" y="593.9951">has registered</text><text fill="#000000" font-family="sans-serif" font-size="13" lengthAdjust="spacing" textLength="7" x="278.6229" y="756.1415">1</text><text fill="#000000" font-family="sans-serif" font-size="13" lengthAdjust="spacing" textLength="5" x="758.2199" y="471.0312">*</text><!--MD5=[771c3993b003aea4e1f6128d90cd4122]
link Courier to User--><path codeLine="94" d="M783.55,450.01 C780.75,473.22 777.09,503.62 773.93,529.94 " fill="none" id="Courier-User" style="stroke:#A80036;stroke-width:1.0;"/><polygon fill="#000000" points="783.4025,496.14,787.4012,487.5109,781.5655,486.8085,783.4025,496.14" style="stroke:#000000;stroke-width:1.0;"/><text fill="#000000" font-family="sans-serif" font-size="13" lengthAdjust="spacing" textLength="43" x="793" y="496.4951">acts as</text><text fill="#000000" font-family="sans-serif" font-size="13" lengthAdjust="spacing" textLength="7" x="775.2333" y="471.1818">1</text><text fill="#000000" font-family="sans-serif" font-size="13" lengthAdjust="spacing" textLength="7" x="767.348" y="519.3336">1</text><!--MD5=[88616e74bf96530d476f0a19698bdbd4]
link Courier to Pharmacy--><path codeLine="95" d="M761.57,450.22 C753.18,459.45 743.14,468.32 732,474 C704.5,488.03 687.58,463.33 663,482 C643.71,496.66 633.03,521.44 627.14,543.31 " fill="none" id="Courier-Pharmacy" style="stroke:#A80036;stroke-width:1.0;"/><polygon fill="#000000" points="663.8894,494.0223,672.9987,491.2891,669.6524,486.4567,663.8894,494.0223" style="stroke:#000000;stroke-width:1.0;"/><text fill="#000000" font-family="sans-serif" font-size="13" lengthAdjust="spacing" textLength="92" x="677" y="496.4951">is associated to</text><text fill="#000000" font-family="sans-serif" font-size="13" lengthAdjust="spacing" textLength="7" x="749.7999" y="471.1356">1</text><text fill="#000000" font-family="sans-serif" font-size="13" lengthAdjust="spacing" textLength="5" x="622.8505" y="532.725">*</text><!--MD5=[0ae4e3be80761dbc176b3d01b8ab98e4]
link Pharmacy to Park--><path codeLine="96" d="M614.9,633.89 C610.81,669.45 605.13,718.76 601.28,752.28 " fill="none" id="Pharmacy-Park" style="stroke:#A80036;stroke-width:1.0;"/><polygon fill="#000000" points="613.4286,691.143,617.382,682.4931,611.5426,681.8213,613.4286,691.143" style="stroke:#000000;stroke-width:1.0;"/><text fill="#000000" font-family="sans-serif" font-size="13" lengthAdjust="spacing" textLength="21" x="623" y="691.4951">has</text><text fill="#000000" font-family="sans-serif" font-size="13" lengthAdjust="spacing" textLength="7" x="606.7444" y="654.6161">1</text><text fill="#000000" font-family="sans-serif" font-size="13" lengthAdjust="spacing" textLength="7" x="594.4189" y="741.6027">1</text><!--MD5=[cf4f95b832970cfa6e3a3c87e0aa2b32]
link Pharmacy to Scooter--><path codeLine="97" d="M648.19,633.89 C665.14,660.59 687.02,695.04 705.88,724.74 " fill="none" id="Pharmacy-Scooter" style="stroke:#A80036;stroke-width:1.0;"/><polygon fill="#000000" points="690.6803,690.3967,688.3126,681.1856,683.3506,684.3364,690.6803,690.3967" style="stroke:#000000;stroke-width:1.0;"/><text fill="#000000" font-family="sans-serif" font-size="13" lengthAdjust="spacing" textLength="21" x="697" y="691.4951">has</text><text fill="#000000" font-family="sans-serif" font-size="13" lengthAdjust="spacing" textLength="7" x="644.5077" y="654.6161">1</text><text fill="#000000" font-family="sans-serif" font-size="13" lengthAdjust="spacing" textLength="5" x="696.1091" y="714.186">*</text><!--MD5=[ad77aa3b7491516c05092123a4a53a0f]
link Park to ChargingSlot--><path codeLine="98" d="M608.6,828.69 C618.21,859.5 631.8,903.06 641.41,933.86 " fill="none" id="Park-ChargingSlot" style="stroke:#A80036;stroke-width:1.0;"/><polygon fill="#000000" points="637.4891,899.9489,637.6009,890.439,631.9897,892.1895,637.4891,899.9489" style="stroke:#000000;stroke-width:1.0;"/><text fill="#000000" font-family="sans-serif" font-size="13" lengthAdjust="spacing" textLength="21" x="645" y="900.4951">has</text><text fill="#000000" font-family="sans-serif" font-size="13" lengthAdjust="spacing" textLength="7" x="602.8909" y="849.6008">1</text><text fill="#000000" font-family="sans-serif" font-size="13" lengthAdjust="spacing" textLength="7" x="631.7221" y="923.197">1</text><!--MD5=[017b3178b5b5600c846ac94a56dd8117]
link Scooter to ChargingSlot--><path codeLine="99" d="M713.2,856.05 C699.51,882.18 684.2,911.42 672.45,933.86 " fill="none" id="Scooter-ChargingSlot" style="stroke:#A80036;stroke-width:1.0;"/><polygon fill="#000000" points="699.6803,899.6051,706.4802,892.9559,701.2732,890.2289,699.6803,899.6051" style="stroke:#000000;stroke-width:1.0;"/><text fill="#000000" font-family="sans-serif" font-size="13" lengthAdjust="spacing" textLength="60" x="711" y="900.4951">belongs to</text><text fill="#000000" font-family="sans-serif" font-size="13" lengthAdjust="spacing" textLength="7" x="702.1203" y="877.608">1</text><text fill="#000000" font-family="sans-serif" font-size="13" lengthAdjust="spacing" textLength="7" x="668.2911" y="923.197">1</text><!--MD5=[33427c85eab5427b7fc395fe52a665ea]
@startuml
skinparam classAttributeIconSize 0

package "UI" #DDDDDD{
class AvailableChargingUI {

}
}
package "Controller" #DDDDDD {
class AvailableChargingSlotController{
+getAvailableChargingSlot()
}

class ApplicationPOT
{
  +static getInstance()
  +getCurrentUserEmail()
}
}


package "Model" #DDDDDD {
package "Service" #DDDDDD {
   class CourierService{
          +getAvailableChargingSlot(email)
      }
 }
}

package "Model" #DDDDDD {
class Pharmacy{
-int id
-String name
-Address address
}

class Park{
-int id
-int maxSlotsNumber
}

class ChargingSlot{
-int id
-float outputPower
}

class Courier {
      -String id
      -String iban
}

class Scooter {
-int Id
-int BatteryPerc
-int CharginStatus
-int Potency
-int Weight
-int intBatteryCapacity
}

abstract User{
  -Integer id
  -String email
  -String password
  -int nif
  -string name
}


}

package "Data" #DDDDDD {
class DataHandler{
    +openConnection()
    +closeAll()
}

class CourierDB{
 +getAvailableChargingSlot(email)
  }

}
database database{

}
class CourierDB extends DataHandler

AvailableChargingSlotController ..> ApplicationPOT
AvailableChargingUI ..> AvailableChargingSlotController
AvailableChargingSlotController ..> CourierService : has
CourierService ..> CourierDB : has
CourierDB - -> database : manages

database "1" - - "*" Courier : has registered >
Courier "1" - - "1" User : acts as >
Courier "1" - - "*" Pharmacy : is associated to >
Pharmacy "1" - - "1" Park : has >
Pharmacy "1" - - "*" Scooter : has >
Park "1" - - "1" ChargingSlot : has >
Scooter "1" - - "1" ChargingSlot : belongs to >

@enduml

PlantUML version 1.2021.00(Sun Jan 10 10:25:05 GMT 2021)
(GPL source distribution)
Java Runtime: OpenJDK Runtime Environment
JVM: OpenJDK 64-Bit Server VM
Default Encoding: Cp1252
Language: pt
Country: PT
--></g></svg>