<?xml version="1.0" encoding="UTF-8" standalone="no"?><svg xmlns="http://www.w3.org/2000/svg" xmlns:xlink="http://www.w3.org/1999/xlink" contentScriptType="application/ecmascript" contentStyleType="text/css" height="297px" preserveAspectRatio="none" style="width:1051px;height:297px;" version="1.1" viewBox="0 0 1051 297" width="1051px" zoomAndPan="magnify"><defs><filter height="300%" id="f10ygcw0wlvp3d" width="300%" x="-1" y="-1"><feGaussianBlur result="blurOut" stdDeviation="2.0"/><feColorMatrix in="blurOut" result="blurOut2" type="matrix" values="0 0 0 0 0 0 0 0 0 0 0 0 0 0 0 0 0 0 .4 0"/><feOffset dx="4.0" dy="4.0" in="blurOut2" result="blurOut3"/><feBlend in="SourceGraphic" in2="blurOut3" mode="normal"/></filter></defs><g><!--MD5=[f50ff5e4cd64f259303fc83dba1819fc]
entity database--><path d="M6,186.5 C6,176.5 45.5,176.5 45.5,176.5 C45.5,176.5 85,176.5 85,186.5 L85,213.1094 C85,223.1094 45.5,223.1094 45.5,223.1094 C45.5,223.1094 6,223.1094 6,213.1094 L6,186.5 " fill="#FFFFFF" filter="url(#f10ygcw0wlvp3d)" style="stroke:#000000;stroke-width:1.5;"/><path d="M6,186.5 C6,196.5 45.5,196.5 45.5,196.5 C45.5,196.5 85,196.5 85,186.5 " fill="none" style="stroke:#000000;stroke-width:1.5;"/><text fill="#000000" font-family="sans-serif" font-size="14" lengthAdjust="spacing" textLength="59" x="16" y="215.0332">database</text><!--MD5=[7f2a9fafcebe4f099f71398fd3e2ed00]
class Pharmacy--><rect codeLine="8" fill="#FEFECE" filter="url(#f10ygcw0wlvp3d)" height="81.5078" id="Pharmacy" style="stroke:#A80036;stroke-width:1.5;" width="101" x="482" y="57"/><ellipse cx="503.3" cy="73" fill="#ADD1B2" rx="11" ry="11" style="stroke:#A80036;stroke-width:1.0;"/><path d="M505.3,69.5 Q505.5031,69 505.7375,68.75 Q505.9719,68.5 506.2375,68.5 Q506.7063,68.5 507.0031,68.7813 Q507.3,69.0625 507.3,69.7188 L507.3,71.2813 Q507.3,71.9375 507.0188,72.2188 Q506.7375,72.5 506.3,72.5 Q505.9094,72.5 505.6594,72.3281 Q505.4094,72.1563 505.3,71.7031 Q505.2531,71.3906 505.0813,71.2188 Q504.7688,70.8906 504.2063,70.7031 Q503.6438,70.5 503.0813,70.5 Q502.3781,70.5 501.7844,70.7813 Q501.2063,71.0625 500.7531,71.6875 Q500.3,72.3125 500.3,73.1719 L500.3,74.0938 Q500.3,75.125 501.1438,75.8125 Q501.9875,76.5 503.4875,76.5 Q504.3781,76.5 505.0031,76.2969 Q505.3625,76.1875 505.7688,75.8281 Q506.0344,75.625 506.175,75.5625 Q506.3156,75.5 506.4875,75.5 Q506.8156,75.5 507.05,75.7656 Q507.3,76.0156 507.3,76.375 Q507.3,76.7188 506.9563,77.125 Q506.4563,77.7188 505.6594,78.0469 Q504.6125,78.5 503.3313,78.5 Q501.8313,78.5 500.6281,77.9063 Q499.6594,77.4375 498.9719,76.4219 Q498.3,75.4063 498.3,74.2031 L498.3,73.1094 Q498.3,71.8594 498.8938,70.7656 Q499.5031,69.6719 500.55,69.0938 Q501.6125,68.5 502.8,68.5 Q503.5188,68.5 504.1438,68.75 Q504.7688,69 505.3,69.5 Z " fill="#000000"/><text fill="#000000" font-family="sans-serif" font-size="12" lengthAdjust="spacing" textLength="55" x="518.7" y="77.9102">Pharmacy</text><line style="stroke:#A80036;stroke-width:1.5;" x1="483" x2="582" y1="89" y2="89"/><text fill="#000000" font-family="sans-serif" font-size="11" lengthAdjust="spacing" textLength="26" x="488" y="104.4189">-int id</text><text fill="#000000" font-family="sans-serif" font-size="11" lengthAdjust="spacing" textLength="61" x="488" y="118.2549">-String name</text><text fill="#000000" font-family="sans-serif" font-size="11" lengthAdjust="spacing" textLength="89" x="488" y="132.0908">-Address address</text><!--MD5=[d1eeb527b96f439f56c6bd12ac0dd707]
class Park--><rect codeLine="14" fill="#FEFECE" filter="url(#f10ygcw0wlvp3d)" height="67.6719" id="Park" style="stroke:#A80036;stroke-width:1.5;" width="111" x="682.5" y="7"/><ellipse cx="721.8" cy="23" fill="#ADD1B2" rx="11" ry="11" style="stroke:#A80036;stroke-width:1.0;"/><path d="M723.8,19.5 Q724.0031,19 724.2375,18.75 Q724.4719,18.5 724.7375,18.5 Q725.2063,18.5 725.5031,18.7813 Q725.8,19.0625 725.8,19.7188 L725.8,21.2813 Q725.8,21.9375 725.5188,22.2188 Q725.2375,22.5 724.8,22.5 Q724.4094,22.5 724.1594,22.3281 Q723.9094,22.1563 723.8,21.7031 Q723.7531,21.3906 723.5813,21.2188 Q723.2688,20.8906 722.7063,20.7031 Q722.1438,20.5 721.5813,20.5 Q720.8781,20.5 720.2844,20.7813 Q719.7063,21.0625 719.2531,21.6875 Q718.8,22.3125 718.8,23.1719 L718.8,24.0938 Q718.8,25.125 719.6438,25.8125 Q720.4875,26.5 721.9875,26.5 Q722.8781,26.5 723.5031,26.2969 Q723.8625,26.1875 724.2688,25.8281 Q724.5344,25.625 724.675,25.5625 Q724.8156,25.5 724.9875,25.5 Q725.3156,25.5 725.55,25.7656 Q725.8,26.0156 725.8,26.375 Q725.8,26.7188 725.4563,27.125 Q724.9563,27.7188 724.1594,28.0469 Q723.1125,28.5 721.8313,28.5 Q720.3313,28.5 719.1281,27.9063 Q718.1594,27.4375 717.4719,26.4219 Q716.8,25.4063 716.8,24.2031 L716.8,23.1094 Q716.8,21.8594 717.3938,20.7656 Q718.0031,19.6719 719.05,19.0938 Q720.1125,18.5 721.3,18.5 Q722.0188,18.5 722.6438,18.75 Q723.2688,19 723.8,19.5 Z " fill="#000000"/><text fill="#000000" font-family="sans-serif" font-size="12" lengthAdjust="spacing" textLength="25" x="741.2" y="27.9102">Park</text><line style="stroke:#A80036;stroke-width:1.5;" x1="683.5" x2="792.5" y1="39" y2="39"/><text fill="#000000" font-family="sans-serif" font-size="11" lengthAdjust="spacing" textLength="26" x="688.5" y="54.4189">-int id</text><text fill="#000000" font-family="sans-serif" font-size="11" lengthAdjust="spacing" textLength="99" x="688.5" y="68.2549">-int maxSlotsNumber</text><!--MD5=[59d2374cee64c81d4b5b0eac02df9f3a]
class ChargingSlot--><rect codeLine="19" fill="#FEFECE" filter="url(#f10ygcw0wlvp3d)" height="67.6719" id="ChargingSlot" style="stroke:#A80036;stroke-width:1.5;" width="105" x="932" y="73"/><ellipse cx="947.45" cy="89" fill="#ADD1B2" rx="11" ry="11" style="stroke:#A80036;stroke-width:1.0;"/><path d="M949.45,85.5 Q949.6531,85 949.8875,84.75 Q950.1219,84.5 950.3875,84.5 Q950.8563,84.5 951.1531,84.7813 Q951.45,85.0625 951.45,85.7188 L951.45,87.2813 Q951.45,87.9375 951.1688,88.2188 Q950.8875,88.5 950.45,88.5 Q950.0594,88.5 949.8094,88.3281 Q949.5594,88.1563 949.45,87.7031 Q949.4031,87.3906 949.2313,87.2188 Q948.9188,86.8906 948.3563,86.7031 Q947.7938,86.5 947.2313,86.5 Q946.5281,86.5 945.9344,86.7813 Q945.3563,87.0625 944.9031,87.6875 Q944.45,88.3125 944.45,89.1719 L944.45,90.0938 Q944.45,91.125 945.2938,91.8125 Q946.1375,92.5 947.6375,92.5 Q948.5281,92.5 949.1531,92.2969 Q949.5125,92.1875 949.9188,91.8281 Q950.1844,91.625 950.325,91.5625 Q950.4656,91.5 950.6375,91.5 Q950.9656,91.5 951.2,91.7656 Q951.45,92.0156 951.45,92.375 Q951.45,92.7188 951.1063,93.125 Q950.6063,93.7188 949.8094,94.0469 Q948.7625,94.5 947.4813,94.5 Q945.9813,94.5 944.7781,93.9063 Q943.8094,93.4375 943.1219,92.4219 Q942.45,91.4063 942.45,90.2031 L942.45,89.1094 Q942.45,87.8594 943.0438,86.7656 Q943.6531,85.6719 944.7,85.0938 Q945.7625,84.5 946.95,84.5 Q947.6688,84.5 948.2938,84.75 Q948.9188,85 949.45,85.5 Z " fill="#000000"/><text fill="#000000" font-family="sans-serif" font-size="12" lengthAdjust="spacing" textLength="72" x="961.55" y="93.9102">ChargingSlot</text><line style="stroke:#A80036;stroke-width:1.5;" x1="933" x2="1036" y1="105" y2="105"/><text fill="#000000" font-family="sans-serif" font-size="11" lengthAdjust="spacing" textLength="29" x="938" y="120.4189">-int id;</text><text fill="#000000" font-family="sans-serif" font-size="11" lengthAdjust="spacing" textLength="93" x="938" y="134.2549">-float outputPower;</text><!--MD5=[c6a2171c11447acbe08a3dfeee0e1710]
class Courier--><rect codeLine="24" fill="#FEFECE" filter="url(#f10ygcw0wlvp3d)" height="53.8359" id="Courier" style="stroke:#A80036;stroke-width:1.5;" width="73" x="242" y="173"/><ellipse cx="257" cy="189" fill="#ADD1B2" rx="11" ry="11" style="stroke:#A80036;stroke-width:1.0;"/><path d="M259,185.5 Q259.2031,185 259.4375,184.75 Q259.6719,184.5 259.9375,184.5 Q260.4063,184.5 260.7031,184.7813 Q261,185.0625 261,185.7188 L261,187.2813 Q261,187.9375 260.7188,188.2188 Q260.4375,188.5 260,188.5 Q259.6094,188.5 259.3594,188.3281 Q259.1094,188.1563 259,187.7031 Q258.9531,187.3906 258.7813,187.2188 Q258.4688,186.8906 257.9063,186.7031 Q257.3438,186.5 256.7813,186.5 Q256.0781,186.5 255.4844,186.7813 Q254.9063,187.0625 254.4531,187.6875 Q254,188.3125 254,189.1719 L254,190.0938 Q254,191.125 254.8438,191.8125 Q255.6875,192.5 257.1875,192.5 Q258.0781,192.5 258.7031,192.2969 Q259.0625,192.1875 259.4688,191.8281 Q259.7344,191.625 259.875,191.5625 Q260.0156,191.5 260.1875,191.5 Q260.5156,191.5 260.75,191.7656 Q261,192.0156 261,192.375 Q261,192.7188 260.6563,193.125 Q260.1563,193.7188 259.3594,194.0469 Q258.3125,194.5 257.0313,194.5 Q255.5313,194.5 254.3281,193.9063 Q253.3594,193.4375 252.6719,192.4219 Q252,191.4063 252,190.2031 L252,189.1094 Q252,187.8594 252.5938,186.7656 Q253.2031,185.6719 254.25,185.0938 Q255.3125,184.5 256.5,184.5 Q257.2188,184.5 257.8438,184.75 Q258.4688,185 259,185.5 Z " fill="#000000"/><text fill="#000000" font-family="sans-serif" font-size="12" lengthAdjust="spacing" textLength="41" x="271" y="193.9102">Courier</text><line style="stroke:#A80036;stroke-width:1.5;" x1="243" x2="314" y1="205" y2="205"/><text fill="#000000" font-family="sans-serif" font-size="11" lengthAdjust="spacing" textLength="55" x="248" y="220.4189">-String iban</text><!--MD5=[3fd616f346a44cd59a91eb10b19e157c]
class User--><rect codeLine="28" fill="#FEFECE" filter="url(#f10ygcw0wlvp3d)" height="109.1797" id="User" style="stroke:#A80036;stroke-width:1.5;" width="97" x="484" y="174.5"/><ellipse cx="516.55" cy="190.5" fill="#A9DCDF" rx="11" ry="11" style="stroke:#A80036;stroke-width:1.0;"/><path d="M518.3,192 L515.0031,192 L514.5656,193 L514.5656,193 L515.0344,193 L515.55,193.625 L515.55,194 L515.55,194.375 L515.0344,195 L514.5656,195 L512.675,195 L512.0656,195 L511.55,194.375 L511.55,194 L511.55,193.625 L512.0656,193 L512.675,193 L514.9875,187 L514.1125,187 L513.0656,187 L512.55,186.375 L512.55,186 L512.55,185.625 L513.0656,185 L514.1125,185 L517.7844,185 L520.4719,193 L521.0344,193 L521.0344,193 L521.55,193.625 L521.55,194 L521.55,194.375 L521.0344,195 L520.4719,195 L518.5813,195 L518.0656,195 L517.55,194.375 L517.55,194 L517.55,193.625 L518.0656,193 L518.5813,193 L518.5813,193 L518.3,192 Z M517.7531,190 L516.55,186.4219 L515.5188,190 L517.7531,190 Z " fill="#000000"/><text fill="#000000" font-family="sans-serif" font-size="12" font-style="italic" lengthAdjust="spacing" textLength="26" x="534.45" y="195.4102">User</text><line style="stroke:#A80036;stroke-width:1.5;" x1="485" x2="580" y1="206.5" y2="206.5"/><text fill="#000000" font-family="sans-serif" font-size="11" lengthAdjust="spacing" textLength="48" x="490" y="221.9189">-Integer id</text><text fill="#000000" font-family="sans-serif" font-size="11" lengthAdjust="spacing" textLength="59" x="490" y="235.7549">-String email</text><text fill="#000000" font-family="sans-serif" font-size="11" lengthAdjust="spacing" textLength="85" x="490" y="249.5908">-String password</text><text fill="#000000" font-family="sans-serif" font-size="11" lengthAdjust="spacing" textLength="30" x="490" y="263.4268">-int nif</text><text fill="#000000" font-family="sans-serif" font-size="11" lengthAdjust="spacing" textLength="60" x="490" y="277.2627">-string name</text><!--MD5=[f4402668d5d5bb8485350c0fdb60ac8e]
class Scooter--><rect codeLine="36" fill="#FEFECE" filter="url(#f10ygcw0wlvp3d)" height="123.0156" id="Scooter" style="stroke:#A80036;stroke-width:1.5;" width="118" x="679" y="110.5"/><ellipse cx="713.8" cy="126.5" fill="#ADD1B2" rx="11" ry="11" style="stroke:#A80036;stroke-width:1.0;"/><path d="M715.8,123 Q716.0031,122.5 716.2375,122.25 Q716.4719,122 716.7375,122 Q717.2063,122 717.5031,122.2813 Q717.8,122.5625 717.8,123.2188 L717.8,124.7813 Q717.8,125.4375 717.5188,125.7188 Q717.2375,126 716.8,126 Q716.4094,126 716.1594,125.8281 Q715.9094,125.6563 715.8,125.2031 Q715.7531,124.8906 715.5813,124.7188 Q715.2688,124.3906 714.7063,124.2031 Q714.1438,124 713.5813,124 Q712.8781,124 712.2844,124.2813 Q711.7063,124.5625 711.2531,125.1875 Q710.8,125.8125 710.8,126.6719 L710.8,127.5938 Q710.8,128.625 711.6438,129.3125 Q712.4875,130 713.9875,130 Q714.8781,130 715.5031,129.7969 Q715.8625,129.6875 716.2688,129.3281 Q716.5344,129.125 716.675,129.0625 Q716.8156,129 716.9875,129 Q717.3156,129 717.55,129.2656 Q717.8,129.5156 717.8,129.875 Q717.8,130.2188 717.4563,130.625 Q716.9563,131.2188 716.1594,131.5469 Q715.1125,132 713.8313,132 Q712.3313,132 711.1281,131.4063 Q710.1594,130.9375 709.4719,129.9219 Q708.8,128.9063 708.8,127.7031 L708.8,126.6094 Q708.8,125.3594 709.3938,124.2656 Q710.0031,123.1719 711.05,122.5938 Q712.1125,122 713.3,122 Q714.0188,122 714.6438,122.25 Q715.2688,122.5 715.8,123 Z " fill="#000000"/><text fill="#000000" font-family="sans-serif" font-size="12" lengthAdjust="spacing" textLength="42" x="732.2" y="131.4102">Scooter</text><line style="stroke:#A80036;stroke-width:1.5;" x1="680" x2="796" y1="142.5" y2="142.5"/><text fill="#000000" font-family="sans-serif" font-size="11" lengthAdjust="spacing" textLength="29" x="685" y="157.9189">-int Id;</text><text fill="#000000" font-family="sans-serif" font-size="11" lengthAdjust="spacing" textLength="78" x="685" y="171.7549">-int BatteryPerc;</text><text fill="#000000" font-family="sans-serif" font-size="11" lengthAdjust="spacing" textLength="89" x="685" y="185.5908">-int CharginStatus;</text><text fill="#000000" font-family="sans-serif" font-size="11" lengthAdjust="spacing" textLength="60" x="685" y="199.4268">-int Potency;</text><text fill="#000000" font-family="sans-serif" font-size="11" lengthAdjust="spacing" textLength="54" x="685" y="213.2627">-int Weight;</text><text fill="#000000" font-family="sans-serif" font-size="11" lengthAdjust="spacing" textLength="106" x="685" y="227.0986">-int intBatteryCapacity</text><!--MD5=[706043c1ddfd8af8e2c9f8d50a0c6600]
link database to Courier--><path codeLine="45" d="M85.16,200 C128.83,200 199.32,200 241.75,200 " fill="none" id="database-Courier" style="stroke:#A80036;stroke-width:1.0;"/><polygon fill="#000000" points="125,191.1758,115.9549,188.2369,115.9549,194.1147,125,191.1758" style="stroke:#000000;stroke-width:1.0;"/><text fill="#000000" font-family="sans-serif" font-size="13" lengthAdjust="spacing" textLength="82" x="129" y="196.4951">has registered</text><text fill="#000000" font-family="sans-serif" font-size="13" lengthAdjust="spacing" textLength="7" x="93.1176" y="215.0385">1</text><text fill="#000000" font-family="sans-serif" font-size="13" lengthAdjust="spacing" textLength="5" x="229.0227" y="215.1209">*</text><!--MD5=[771c3993b003aea4e1f6128d90cd4122]
link Courier to User--><path codeLine="46" d="M315.07,204.09 C359.16,209.17 434.48,217.84 483.62,223.49 " fill="none" id="Courier-User" style="stroke:#A80036;stroke-width:1.0;"/><polygon fill="#000000" points="379.4672,198.7475,370.8175,194.7936,370.1454,200.6329,379.4672,198.7475" style="stroke:#000000;stroke-width:1.0;"/><text fill="#000000" font-family="sans-serif" font-size="13" lengthAdjust="spacing" textLength="43" x="383.5" y="203.4951">acts as</text><text fill="#000000" font-family="sans-serif" font-size="13" lengthAdjust="spacing" textLength="7" x="322.9588" y="220.0161">1</text><text fill="#000000" font-family="sans-serif" font-size="13" lengthAdjust="spacing" textLength="7" x="468.9267" y="237.3635">1</text><!--MD5=[88616e74bf96530d476f0a19698bdbd4]
link Courier to Pharmacy--><path codeLine="47" d="M315.07,185.6 C358.62,167.97 432.64,138.02 481.8,118.12 " fill="none" id="Courier-Pharmacy" style="stroke:#A80036;stroke-width:1.0;"/><polygon fill="#000000" points="354.6348,120.3,345.1478,120.9691,347.353,126.4176,354.6348,120.3" style="stroke:#000000;stroke-width:1.0;"/><text fill="#000000" font-family="sans-serif" font-size="13" lengthAdjust="spacing" textLength="92" x="359" y="127.4951">is associated to</text><text fill="#000000" font-family="sans-serif" font-size="13" lengthAdjust="spacing" textLength="7" x="322.9588" y="197.8859">1</text><text fill="#000000" font-family="sans-serif" font-size="13" lengthAdjust="spacing" textLength="5" x="468.9863" y="135.8072">*</text><!--MD5=[0ae4e3be80761dbc176b3d01b8ab98e4]
link Pharmacy to Park--><path codeLine="48" d="M583.02,84.13 C613.02,75.73 651.33,64.99 682.24,56.34 " fill="none" id="Pharmacy-Park" style="stroke:#A80036;stroke-width:1.0;"/><polygon fill="#000000" points="622.8147,56.8273,613.3122,56.4367,614.8975,62.0968,622.8147,56.8273" style="stroke:#000000;stroke-width:1.0;"/><text fill="#000000" font-family="sans-serif" font-size="13" lengthAdjust="spacing" textLength="21" x="627" y="63.4951">has</text><text fill="#000000" font-family="sans-serif" font-size="13" lengthAdjust="spacing" textLength="7" x="590.9542" y="96.8249">1</text><text fill="#000000" font-family="sans-serif" font-size="13" lengthAdjust="spacing" textLength="7" x="667.6473" y="72.8691">1</text><!--MD5=[cf4f95b832970cfa6e3a3c87e0aa2b32]
link Pharmacy to Scooter--><path codeLine="49" d="M583.02,116.01 C611.96,126.53 648.64,139.87 678.94,150.89 " fill="none" id="Pharmacy-Scooter" style="stroke:#A80036;stroke-width:1.0;"/><polygon fill="#000000" points="622.699,121.8845,615.2028,116.0314,613.1941,121.5554,622.699,121.8845" style="stroke:#000000;stroke-width:1.0;"/><text fill="#000000" font-family="sans-serif" font-size="13" lengthAdjust="spacing" textLength="21" x="627" y="125.4951">has</text><text fill="#000000" font-family="sans-serif" font-size="13" lengthAdjust="spacing" textLength="7" x="590.9542" y="133.3873">1</text><text fill="#000000" font-family="sans-serif" font-size="13" lengthAdjust="spacing" textLength="5" x="666.0526" y="162.7269">*</text><!--MD5=[ad77aa3b7491516c05092123a4a53a0f]
link Park to ChargingSlot--><path codeLine="50" d="M793.57,55.73 C834.8,66.86 891.04,82.04 931.61,92.99 " fill="none" id="Park-ChargingSlot" style="stroke:#A80036;stroke-width:1.0;"/><polygon fill="#000000" points="856.3272,59.4788,848.3606,54.2843,846.8288,59.959,856.3272,59.4788" style="stroke:#000000;stroke-width:1.0;"/><text fill="#000000" font-family="sans-serif" font-size="13" lengthAdjust="spacing" textLength="21" x="860.5" y="63.4951">has</text><text fill="#000000" font-family="sans-serif" font-size="13" lengthAdjust="spacing" textLength="7" x="801.5075" y="72.3251">1</text><text fill="#000000" font-family="sans-serif" font-size="13" lengthAdjust="spacing" textLength="7" x="917.0326" y="105.7232">1</text><!--MD5=[017b3178b5b5600c846ac94a56dd8117]
link Scooter to ChargingSlot--><path codeLine="51" d="M797.25,156.51 C838.21,145.62 892.53,131.19 931.92,120.71 " fill="none" id="Scooter-ChargingSlot" style="stroke:#A80036;stroke-width:1.0;"/><polygon fill="#000000" points="836.8322,119.8912,827.3356,119.3747,828.8457,125.0553,836.8322,119.8912" style="stroke:#000000;stroke-width:1.0;"/><text fill="#000000" font-family="sans-serif" font-size="13" lengthAdjust="spacing" textLength="60" x="841" y="126.4951">belongs to</text><text fill="#000000" font-family="sans-serif" font-size="13" lengthAdjust="spacing" textLength="7" x="804.8977" y="169.1127">1</text><text fill="#000000" font-family="sans-serif" font-size="13" lengthAdjust="spacing" textLength="7" x="917.0337" y="137.3059">1</text><!--MD5=[7d8998e473bb560fa7da051546cb8bfd]
@startuml
skinparam classAttributeIconSize 0
hide methods
left to right direction

database database {
}

class Pharmacy{
-int id
-String name
-Address address
}

class Park{
-int id
-int maxSlotsNumber
}

class ChargingSlot{
-int id;
-float outputPower;
}

class Courier {
      -String iban
}

abstract User{
  -Integer id
  -String email
  -String password
  -int nif
  -string name
}

class Scooter {
-int Id;
-int BatteryPerc;
-int CharginStatus;
-int Potency;
-int Weight;
-int intBatteryCapacity
}

database "1" - - "*" Courier : has registered >
Courier "1" - - "1" User : acts as >
Courier "1" - - "*" Pharmacy : is associated to >
Pharmacy "1" - - "1" Park : has >
Pharmacy "1" - - "*" Scooter : has >
Park "1" - - "1" ChargingSlot : has >
Scooter "1" - - "1" ChargingSlot : belongs to >
@enduml

PlantUML version 1.2021.00(Sun Jan 10 10:25:05 GMT 2021)
(GPL source distribution)
Java Runtime: OpenJDK Runtime Environment
JVM: OpenJDK 64-Bit Server VM
Default Encoding: Cp1252
Language: pt
Country: PT
--></g></svg>