<?xml version="1.0" encoding="UTF-8" standalone="no"?><svg xmlns="http://www.w3.org/2000/svg" xmlns:xlink="http://www.w3.org/1999/xlink" contentScriptType="application/ecmascript" contentStyleType="text/css" height="255px" preserveAspectRatio="none" style="width:422px;height:255px;" version="1.1" viewBox="0 0 422 255" width="422px" zoomAndPan="magnify"><defs><filter height="300%" id="fbg9e4k7dhq8r" width="300%" x="-1" y="-1"><feGaussianBlur result="blurOut" stdDeviation="2.0"/><feColorMatrix in="blurOut" result="blurOut2" type="matrix" values="0 0 0 0 0 0 0 0 0 0 0 0 0 0 0 0 0 0 .4 0"/><feOffset dx="4.0" dy="4.0" in="blurOut2" result="blurOut3"/><feBlend in="SourceGraphic" in2="blurOut3" mode="normal"/></filter></defs><g><rect fill="#FFFFFF" filter="url(#fbg9e4k7dhq8r)" height="52.7031" style="stroke:#A80036;stroke-width:1.0;" width="10" x="26.5" y="99.6094"/><rect fill="#FFFFFF" filter="url(#fbg9e4k7dhq8r)" height="30.3516" style="stroke:#A80036;stroke-width:1.0;" width="10" x="373.5" y="121.9609"/><line style="stroke:#A80036;stroke-width:1.0;stroke-dasharray:5.0,5.0;" x1="31" x2="31" y1="89.6094" y2="170.3125"/><line style="stroke:#A80036;stroke-width:1.0;stroke-dasharray:5.0,5.0;" x1="378.5" x2="378.5" y1="89.6094" y2="170.3125"/><text fill="#000000" font-family="sans-serif" font-size="14" lengthAdjust="spacing" textLength="47" x="5" y="86.5332">Courier</text><ellipse cx="31.5" cy="15" fill="#FEFECE" filter="url(#fbg9e4k7dhq8r)" rx="8" ry="8" style="stroke:#A80036;stroke-width:2.0;"/><path d="M31.5,23 L31.5,50 M18.5,31 L44.5,31 M31.5,50 L18.5,65 M31.5,50 L44.5,65 " fill="none" filter="url(#fbg9e4k7dhq8r)" style="stroke:#A80036;stroke-width:2.0;"/><text fill="#000000" font-family="sans-serif" font-size="14" lengthAdjust="spacing" textLength="47" x="5" y="183.8457">Courier</text><ellipse cx="31.5" cy="196.9219" fill="#FEFECE" filter="url(#fbg9e4k7dhq8r)" rx="8" ry="8" style="stroke:#A80036;stroke-width:2.0;"/><path d="M31.5,204.9219 L31.5,231.9219 M18.5,212.9219 L44.5,212.9219 M31.5,231.9219 L18.5,246.9219 M31.5,231.9219 L44.5,246.9219 " fill="none" filter="url(#fbg9e4k7dhq8r)" style="stroke:#A80036;stroke-width:2.0;"/><rect fill="#FEFECE" filter="url(#fbg9e4k7dhq8r)" height="31.6094" style="stroke:#A80036;stroke-width:1.5;" width="64" x="344.5" y="53"/><text fill="#000000" font-family="sans-serif" font-size="14" lengthAdjust="spacing" textLength="50" x="351.5" y="74.5332">:System</text><rect fill="#FEFECE" filter="url(#fbg9e4k7dhq8r)" height="31.6094" style="stroke:#A80036;stroke-width:1.5;" width="64" x="344.5" y="169.3125"/><text fill="#000000" font-family="sans-serif" font-size="14" lengthAdjust="spacing" textLength="50" x="351.5" y="190.8457">:System</text><rect fill="#FFFFFF" filter="url(#fbg9e4k7dhq8r)" height="52.7031" style="stroke:#A80036;stroke-width:1.0;" width="10" x="26.5" y="99.6094"/><rect fill="#FFFFFF" filter="url(#fbg9e4k7dhq8r)" height="30.3516" style="stroke:#A80036;stroke-width:1.0;" width="10" x="373.5" y="121.9609"/><polygon fill="#A80036" points="361.5,117.9609,371.5,121.9609,361.5,125.9609,365.5,121.9609" style="stroke:#A80036;stroke-width:1.0;"/><line style="stroke:#A80036;stroke-width:1.0;" x1="36.5" x2="367.5" y1="121.9609" y2="121.9609"/><text fill="#000000" font-family="sans-serif" font-size="13" font-weight="bold" lengthAdjust="spacing" textLength="7" x="43.5" y="117.1045">1</text><text fill="#000000" font-family="sans-serif" font-size="13" lengthAdjust="spacing" textLength="307" x="54.5" y="117.1045">wants to know if there is an available charging station</text><polygon fill="#A80036" points="42.5,148.3125,32.5,152.3125,42.5,156.3125,38.5,152.3125" style="stroke:#A80036;stroke-width:1.0;"/><line style="stroke:#A80036;stroke-width:1.0;stroke-dasharray:2.0,2.0;" x1="36.5" x2="377.5" y1="152.3125" y2="152.3125"/><text fill="#000000" font-family="sans-serif" font-size="13" font-weight="bold" lengthAdjust="spacing" textLength="7" x="48.5" y="147.4561">2</text><text fill="#000000" font-family="sans-serif" font-size="13" lengthAdjust="spacing" textLength="293" x="59.5" y="147.4561">presents the information about the charging station</text><!--MD5=[5db0bf6b11432fdadd649bfed0120994]
@startuml
autonumber
actor "Courier" as CR

activate CR
CR -> ":System" : wants to know if there is an available charging station
activate ":System"
":System" - -> CR : presents the information about the charging station
deactivate ":System"

deactivate CR
@enduml

PlantUML version 1.2021.00(Sun Jan 10 10:25:05 GMT 2021)
(GPL source distribution)
Java Runtime: OpenJDK Runtime Environment
JVM: OpenJDK 64-Bit Server VM
Default Encoding: Cp1252
Language: pt
Country: PT
--></g></svg>