<?xml version="1.0" encoding="UTF-8" standalone="no"?><svg xmlns="http://www.w3.org/2000/svg" xmlns:xlink="http://www.w3.org/1999/xlink" contentScriptType="application/ecmascript" contentStyleType="text/css" height="739px" preserveAspectRatio="none" style="width:983px;height:739px;" version="1.1" viewBox="0 0 983 739" width="983px" zoomAndPan="magnify"><defs><filter height="300%" id="fgtgj8ivfwm80" width="300%" x="-1" y="-1"><feGaussianBlur result="blurOut" stdDeviation="2.0"/><feColorMatrix in="blurOut" result="blurOut2" type="matrix" values="0 0 0 0 0 0 0 0 0 0 0 0 0 0 0 0 0 0 .4 0"/><feOffset dx="4.0" dy="4.0" in="blurOut2" result="blurOut3"/><feBlend in="SourceGraphic" in2="blurOut3" mode="normal"/></filter></defs><g><!--MD5=[9681dc6e01e10c6b4fe06895ae94f592]
cluster UI--><polygon fill="#DDDDDD" filter="url(#fgtgj8ivfwm80)" points="196,6,216,6,223,29.6094,418,29.6094,418,106,196,106,196,6" style="stroke:#000000;stroke-width:1.5;"/><line style="stroke:#000000;stroke-width:1.5;" x1="196" x2="223" y1="29.6094" y2="29.6094"/><text fill="#000000" font-family="sans-serif" font-size="14" font-weight="bold" lengthAdjust="spacingAndGlyphs" textLength="14" x="200" y="22.5332">UI</text><!--MD5=[1f2cfc53d9d308f53762fd0fcbaa4873]
cluster Controller--><polygon fill="#DDDDDD" filter="url(#fgtgj8ivfwm80)" points="16,139,93,139,100,162.6094,439,162.6094,439,426,16,426,16,139" style="stroke:#000000;stroke-width:1.5;"/><line style="stroke:#000000;stroke-width:1.5;" x1="16" x2="100" y1="162.6094" y2="162.6094"/><text fill="#000000" font-family="sans-serif" font-size="14" font-weight="bold" lengthAdjust="spacingAndGlyphs" textLength="71" x="20" y="155.5332">Controller</text><!--MD5=[15636c1ca4a123c16a2a1a8e90aca7a9]
cluster Model--><polygon fill="#DDDDDD" filter="url(#fgtgj8ivfwm80)" points="463,284,513,284,520,307.6094,966,307.6094,966,732,463,732,463,284" style="stroke:#000000;stroke-width:1.5;"/><line style="stroke:#000000;stroke-width:1.5;" x1="463" x2="520" y1="307.6094" y2="307.6094"/><text fill="#000000" font-family="sans-serif" font-size="14" font-weight="bold" lengthAdjust="spacingAndGlyphs" textLength="44" x="467" y="300.5332">Model</text><!--MD5=[7f5e0441b00afcd8fa9ae108c086a015]
cluster Registration--><polygon fill="#DDDDDD" filter="url(#fgtgj8ivfwm80)" points="487,476,579,476,586,499.6094,942,499.6094,942,604,487,604,487,476" style="stroke:#000000;stroke-width:1.5;"/><line style="stroke:#000000;stroke-width:1.5;" x1="487" x2="586" y1="499.6094" y2="499.6094"/><text fill="#000000" font-family="sans-serif" font-size="14" font-weight="bold" lengthAdjust="spacingAndGlyphs" textLength="86" x="491" y="492.5332">Registration</text><!--MD5=[b4f48a7919e2e1bc25b7fc99913d9824]
class CalculateMostEfficientPahtUI--><rect codeLine="5" fill="#FEFECE" filter="url(#fgtgj8ivfwm80)" height="48" id="CalculateMostEfficientPahtUI" style="stroke:#A80036;stroke-width:1.5;" width="190" x="212" y="42"/><ellipse cx="227" cy="58" fill="#ADD1B2" rx="11" ry="11" style="stroke:#A80036;stroke-width:1.0;"/><path d="M229,54.5 Q229.2031,54 229.4375,53.75 Q229.6719,53.5 229.9375,53.5 Q230.4063,53.5 230.7031,53.7813 Q231,54.0625 231,54.7188 L231,56.2813 Q231,56.9375 230.7188,57.2188 Q230.4375,57.5 230,57.5 Q229.6094,57.5 229.3594,57.3281 Q229.1094,57.1563 229,56.7031 Q228.9531,56.3906 228.7813,56.2188 Q228.4688,55.8906 227.9063,55.7031 Q227.3438,55.5 226.7813,55.5 Q226.0781,55.5 225.4844,55.7813 Q224.9063,56.0625 224.4531,56.6875 Q224,57.3125 224,58.1719 L224,59.0938 Q224,60.125 224.8438,60.8125 Q225.6875,61.5 227.1875,61.5 Q228.0781,61.5 228.7031,61.2969 Q229.0625,61.1875 229.4688,60.8281 Q229.7344,60.625 229.875,60.5625 Q230.0156,60.5 230.1875,60.5 Q230.5156,60.5 230.75,60.7656 Q231,61.0156 231,61.375 Q231,61.7188 230.6563,62.125 Q230.1563,62.7188 229.3594,63.0469 Q228.3125,63.5 227.0313,63.5 Q225.5313,63.5 224.3281,62.9063 Q223.3594,62.4375 222.6719,61.4219 Q222,60.4063 222,59.2031 L222,58.1094 Q222,56.8594 222.5938,55.7656 Q223.2031,54.6719 224.25,54.0938 Q225.3125,53.5 226.5,53.5 Q227.2188,53.5 227.8438,53.75 Q228.4688,54 229,54.5 Z " fill="#000000"/><text fill="#000000" font-family="sans-serif" font-size="12" lengthAdjust="spacingAndGlyphs" textLength="158" x="241" y="62.9102">CalculateMostEfficientPahtUI</text><line style="stroke:#A80036;stroke-width:1.5;" x1="213" x2="401" y1="74" y2="74"/><line style="stroke:#A80036;stroke-width:1.5;" x1="213" x2="401" y1="82" y2="82"/><!--MD5=[165922122781c97e22b50eec8123fd29]
class CalculateMostEfficientPahtController--><rect codeLine="10" fill="#FEFECE" filter="url(#fgtgj8ivfwm80)" height="61.8359" id="CalculateMostEfficientPahtController" style="stroke:#A80036;stroke-width:1.5;" width="232" x="191" y="175"/><ellipse cx="206" cy="191" fill="#ADD1B2" rx="11" ry="11" style="stroke:#A80036;stroke-width:1.0;"/><path d="M208,187.5 Q208.2031,187 208.4375,186.75 Q208.6719,186.5 208.9375,186.5 Q209.4063,186.5 209.7031,186.7813 Q210,187.0625 210,187.7188 L210,189.2813 Q210,189.9375 209.7188,190.2188 Q209.4375,190.5 209,190.5 Q208.6094,190.5 208.3594,190.3281 Q208.1094,190.1563 208,189.7031 Q207.9531,189.3906 207.7813,189.2188 Q207.4688,188.8906 206.9063,188.7031 Q206.3438,188.5 205.7813,188.5 Q205.0781,188.5 204.4844,188.7813 Q203.9063,189.0625 203.4531,189.6875 Q203,190.3125 203,191.1719 L203,192.0938 Q203,193.125 203.8438,193.8125 Q204.6875,194.5 206.1875,194.5 Q207.0781,194.5 207.7031,194.2969 Q208.0625,194.1875 208.4688,193.8281 Q208.7344,193.625 208.875,193.5625 Q209.0156,193.5 209.1875,193.5 Q209.5156,193.5 209.75,193.7656 Q210,194.0156 210,194.375 Q210,194.7188 209.6563,195.125 Q209.1563,195.7188 208.3594,196.0469 Q207.3125,196.5 206.0313,196.5 Q204.5313,196.5 203.3281,195.9063 Q202.3594,195.4375 201.6719,194.4219 Q201,193.4063 201,192.2031 L201,191.1094 Q201,189.8594 201.5938,188.7656 Q202.2031,187.6719 203.25,187.0938 Q204.3125,186.5 205.5,186.5 Q206.2188,186.5 206.8438,186.75 Q207.4688,187 208,187.5 Z " fill="#000000"/><text fill="#000000" font-family="sans-serif" font-size="12" lengthAdjust="spacingAndGlyphs" textLength="200" x="220" y="195.9102">CalculateMostEfficientPahtController</text><line style="stroke:#A80036;stroke-width:1.5;" x1="192" x2="422" y1="207" y2="207"/><line style="stroke:#A80036;stroke-width:1.5;" x1="192" x2="422" y1="215" y2="215"/><text fill="#000000" font-family="sans-serif" font-size="11" lengthAdjust="spacingAndGlyphs" textLength="91" x="197" y="230.4189">+getShortestPath()</text><!--MD5=[e45a4727c47b726c25e081782e8bc183]
class ApplicationPOT--><rect codeLine="13" fill="#FEFECE" filter="url(#fgtgj8ivfwm80)" height="89.5078" id="ApplicationPOT" style="stroke:#A80036;stroke-width:1.5;" width="116" x="249" y="320"/><ellipse cx="264" cy="336" fill="#ADD1B2" rx="11" ry="11" style="stroke:#A80036;stroke-width:1.0;"/><path d="M266,332.5 Q266.2031,332 266.4375,331.75 Q266.6719,331.5 266.9375,331.5 Q267.4063,331.5 267.7031,331.7813 Q268,332.0625 268,332.7188 L268,334.2813 Q268,334.9375 267.7188,335.2188 Q267.4375,335.5 267,335.5 Q266.6094,335.5 266.3594,335.3281 Q266.1094,335.1563 266,334.7031 Q265.9531,334.3906 265.7813,334.2188 Q265.4688,333.8906 264.9063,333.7031 Q264.3438,333.5 263.7813,333.5 Q263.0781,333.5 262.4844,333.7813 Q261.9063,334.0625 261.4531,334.6875 Q261,335.3125 261,336.1719 L261,337.0938 Q261,338.125 261.8438,338.8125 Q262.6875,339.5 264.1875,339.5 Q265.0781,339.5 265.7031,339.2969 Q266.0625,339.1875 266.4688,338.8281 Q266.7344,338.625 266.875,338.5625 Q267.0156,338.5 267.1875,338.5 Q267.5156,338.5 267.75,338.7656 Q268,339.0156 268,339.375 Q268,339.7188 267.6563,340.125 Q267.1563,340.7188 266.3594,341.0469 Q265.3125,341.5 264.0313,341.5 Q262.5313,341.5 261.3281,340.9063 Q260.3594,340.4375 259.6719,339.4219 Q259,338.4063 259,337.2031 L259,336.1094 Q259,334.8594 259.5938,333.7656 Q260.2031,332.6719 261.25,332.0938 Q262.3125,331.5 263.5,331.5 Q264.2188,331.5 264.8438,331.75 Q265.4688,332 266,332.5 Z " fill="#000000"/><text fill="#000000" font-family="sans-serif" font-size="12" lengthAdjust="spacingAndGlyphs" textLength="84" x="278" y="340.9102">ApplicationPOT</text><line style="stroke:#A80036;stroke-width:1.5;" x1="250" x2="364" y1="352" y2="352"/><line style="stroke:#A80036;stroke-width:1.5;" x1="250" x2="364" y1="360" y2="360"/><text fill="#000000" font-family="sans-serif" font-size="11" lengthAdjust="spacingAndGlyphs" textLength="99" x="255" y="375.4189">+static getInstance()</text><text fill="#000000" font-family="sans-serif" font-size="11" lengthAdjust="spacingAndGlyphs" textLength="68" x="255" y="389.2549">+getPlatform()</text><text fill="#000000" font-family="sans-serif" font-size="11" lengthAdjust="spacingAndGlyphs" textLength="104" x="255" y="403.0908">+getCurrentSession()</text><!--MD5=[c5b08e60048ef1bcd788d24cf324082e]
class UserSession--><rect codeLine="19" fill="#FEFECE" filter="url(#fgtgj8ivfwm80)" height="61.8359" id="UserSession" style="stroke:#A80036;stroke-width:1.5;" width="124" x="32" y="175"/><ellipse cx="55.55" cy="191" fill="#ADD1B2" rx="11" ry="11" style="stroke:#A80036;stroke-width:1.0;"/><path d="M57.55,187.5 Q57.7531,187 57.9875,186.75 Q58.2219,186.5 58.4875,186.5 Q58.9563,186.5 59.2531,186.7813 Q59.55,187.0625 59.55,187.7188 L59.55,189.2813 Q59.55,189.9375 59.2688,190.2188 Q58.9875,190.5 58.55,190.5 Q58.1594,190.5 57.9094,190.3281 Q57.6594,190.1563 57.55,189.7031 Q57.5031,189.3906 57.3313,189.2188 Q57.0188,188.8906 56.4563,188.7031 Q55.8938,188.5 55.3313,188.5 Q54.6281,188.5 54.0344,188.7813 Q53.4563,189.0625 53.0031,189.6875 Q52.55,190.3125 52.55,191.1719 L52.55,192.0938 Q52.55,193.125 53.3938,193.8125 Q54.2375,194.5 55.7375,194.5 Q56.6281,194.5 57.2531,194.2969 Q57.6125,194.1875 58.0188,193.8281 Q58.2844,193.625 58.425,193.5625 Q58.5656,193.5 58.7375,193.5 Q59.0656,193.5 59.3,193.7656 Q59.55,194.0156 59.55,194.375 Q59.55,194.7188 59.2063,195.125 Q58.7063,195.7188 57.9094,196.0469 Q56.8625,196.5 55.5813,196.5 Q54.0813,196.5 52.8781,195.9063 Q51.9094,195.4375 51.2219,194.4219 Q50.55,193.4063 50.55,192.2031 L50.55,191.1094 Q50.55,189.8594 51.1438,188.7656 Q51.7531,187.6719 52.8,187.0938 Q53.8625,186.5 55.05,186.5 Q55.7688,186.5 56.3938,186.75 Q57.0188,187 57.55,187.5 Z " fill="#000000"/><text fill="#000000" font-family="sans-serif" font-size="12" lengthAdjust="spacingAndGlyphs" textLength="73" x="71.45" y="195.9102">UserSession</text><line style="stroke:#A80036;stroke-width:1.5;" x1="33" x2="155" y1="207" y2="207"/><line style="stroke:#A80036;stroke-width:1.5;" x1="33" x2="155" y1="215" y2="215"/><text fill="#000000" font-family="sans-serif" font-size="11" lengthAdjust="spacingAndGlyphs" textLength="112" x="38" y="230.4189">+getCurrentUserEmail()</text><!--MD5=[99b8db98afdc2c8404e39242ef4c1e65]
class Platform--><rect codeLine="25" fill="#FEFECE" filter="url(#fgtgj8ivfwm80)" height="89.5078" id="Platform" style="stroke:#A80036;stroke-width:1.5;" width="176" x="538" y="320"/><ellipse cx="598.75" cy="336" fill="#ADD1B2" rx="11" ry="11" style="stroke:#A80036;stroke-width:1.0;"/><path d="M600.75,332.5 Q600.9531,332 601.1875,331.75 Q601.4219,331.5 601.6875,331.5 Q602.1563,331.5 602.4531,331.7813 Q602.75,332.0625 602.75,332.7188 L602.75,334.2813 Q602.75,334.9375 602.4688,335.2188 Q602.1875,335.5 601.75,335.5 Q601.3594,335.5 601.1094,335.3281 Q600.8594,335.1563 600.75,334.7031 Q600.7031,334.3906 600.5313,334.2188 Q600.2188,333.8906 599.6563,333.7031 Q599.0938,333.5 598.5313,333.5 Q597.8281,333.5 597.2344,333.7813 Q596.6563,334.0625 596.2031,334.6875 Q595.75,335.3125 595.75,336.1719 L595.75,337.0938 Q595.75,338.125 596.5938,338.8125 Q597.4375,339.5 598.9375,339.5 Q599.8281,339.5 600.4531,339.2969 Q600.8125,339.1875 601.2188,338.8281 Q601.4844,338.625 601.625,338.5625 Q601.7656,338.5 601.9375,338.5 Q602.2656,338.5 602.5,338.7656 Q602.75,339.0156 602.75,339.375 Q602.75,339.7188 602.4063,340.125 Q601.9063,340.7188 601.1094,341.0469 Q600.0625,341.5 598.7813,341.5 Q597.2813,341.5 596.0781,340.9063 Q595.1094,340.4375 594.4219,339.4219 Q593.75,338.4063 593.75,337.2031 L593.75,336.1094 Q593.75,334.8594 594.3438,333.7656 Q594.9531,332.6719 596,332.0938 Q597.0625,331.5 598.25,331.5 Q598.9688,331.5 599.5938,331.75 Q600.2188,332 600.75,332.5 Z " fill="#000000"/><text fill="#000000" font-family="sans-serif" font-size="12" lengthAdjust="spacingAndGlyphs" textLength="46" x="619.25" y="340.9102">Platform</text><line style="stroke:#A80036;stroke-width:1.5;" x1="539" x2="713" y1="352" y2="352"/><text fill="#000000" font-family="sans-serif" font-size="11" lengthAdjust="spacingAndGlyphs" textLength="90" x="544" y="367.4189">-String designation</text><line style="stroke:#A80036;stroke-width:1.5;" x1="539" x2="713" y1="373.8359" y2="373.8359"/><text fill="#000000" font-family="sans-serif" font-size="11" lengthAdjust="spacingAndGlyphs" textLength="162" x="544" y="389.2549">+DeliveryRegistration getDelReg()</text><text fill="#000000" font-family="sans-serif" font-size="11" lengthAdjust="spacingAndGlyphs" textLength="164" x="544" y="403.0908">+OrderRegistration getOrderReg()</text><!--MD5=[ed3afe56f065d25b4329669e73deaf58]
class Database--><rect codeLine="39" fill="#FEFECE" filter="url(#fgtgj8ivfwm80)" height="48" id="Database" style="stroke:#A80036;stroke-width:1.5;" width="86" x="668" y="668"/><ellipse cx="683" cy="684" fill="#ADD1B2" rx="11" ry="11" style="stroke:#A80036;stroke-width:1.0;"/><path d="M685,680.5 Q685.2031,680 685.4375,679.75 Q685.6719,679.5 685.9375,679.5 Q686.4063,679.5 686.7031,679.7813 Q687,680.0625 687,680.7188 L687,682.2813 Q687,682.9375 686.7188,683.2188 Q686.4375,683.5 686,683.5 Q685.6094,683.5 685.3594,683.3281 Q685.1094,683.1563 685,682.7031 Q684.9531,682.3906 684.7813,682.2188 Q684.4688,681.8906 683.9063,681.7031 Q683.3438,681.5 682.7813,681.5 Q682.0781,681.5 681.4844,681.7813 Q680.9063,682.0625 680.4531,682.6875 Q680,683.3125 680,684.1719 L680,685.0938 Q680,686.125 680.8438,686.8125 Q681.6875,687.5 683.1875,687.5 Q684.0781,687.5 684.7031,687.2969 Q685.0625,687.1875 685.4688,686.8281 Q685.7344,686.625 685.875,686.5625 Q686.0156,686.5 686.1875,686.5 Q686.5156,686.5 686.75,686.7656 Q687,687.0156 687,687.375 Q687,687.7188 686.6563,688.125 Q686.1563,688.7188 685.3594,689.0469 Q684.3125,689.5 683.0313,689.5 Q681.5313,689.5 680.3281,688.9063 Q679.3594,688.4375 678.6719,687.4219 Q678,686.4063 678,685.2031 L678,684.1094 Q678,682.8594 678.5938,681.7656 Q679.2031,680.6719 680.25,680.0938 Q681.3125,679.5 682.5,679.5 Q683.2188,679.5 683.8438,679.75 Q684.4688,680 685,680.5 Z " fill="#000000"/><text fill="#000000" font-family="sans-serif" font-size="12" lengthAdjust="spacingAndGlyphs" textLength="54" x="697" y="688.9102">Database</text><line style="stroke:#A80036;stroke-width:1.5;" x1="669" x2="753" y1="700" y2="700"/><line style="stroke:#A80036;stroke-width:1.5;" x1="669" x2="753" y1="708" y2="708"/><!--MD5=[6e65d246ee27c21bf64243621dca8638]
class DeliveryRegistration--><rect codeLine="31" fill="#FEFECE" filter="url(#fgtgj8ivfwm80)" height="75.6719" id="DeliveryRegistration" style="stroke:#A80036;stroke-width:1.5;" width="246" x="503" y="512"/><ellipse cx="566.75" cy="528" fill="#ADD1B2" rx="11" ry="11" style="stroke:#A80036;stroke-width:1.0;"/><path d="M568.75,524.5 Q568.9531,524 569.1875,523.75 Q569.4219,523.5 569.6875,523.5 Q570.1563,523.5 570.4531,523.7813 Q570.75,524.0625 570.75,524.7188 L570.75,526.2813 Q570.75,526.9375 570.4688,527.2188 Q570.1875,527.5 569.75,527.5 Q569.3594,527.5 569.1094,527.3281 Q568.8594,527.1563 568.75,526.7031 Q568.7031,526.3906 568.5313,526.2188 Q568.2188,525.8906 567.6563,525.7031 Q567.0938,525.5 566.5313,525.5 Q565.8281,525.5 565.2344,525.7813 Q564.6563,526.0625 564.2031,526.6875 Q563.75,527.3125 563.75,528.1719 L563.75,529.0938 Q563.75,530.125 564.5938,530.8125 Q565.4375,531.5 566.9375,531.5 Q567.8281,531.5 568.4531,531.2969 Q568.8125,531.1875 569.2188,530.8281 Q569.4844,530.625 569.625,530.5625 Q569.7656,530.5 569.9375,530.5 Q570.2656,530.5 570.5,530.7656 Q570.75,531.0156 570.75,531.375 Q570.75,531.7188 570.4063,532.125 Q569.9063,532.7188 569.1094,533.0469 Q568.0625,533.5 566.7813,533.5 Q565.2813,533.5 564.0781,532.9063 Q563.1094,532.4375 562.4219,531.4219 Q561.75,530.4063 561.75,529.2031 L561.75,528.1094 Q561.75,526.8594 562.3438,525.7656 Q562.9531,524.6719 564,524.0938 Q565.0625,523.5 566.25,523.5 Q566.9688,523.5 567.5938,523.75 Q568.2188,524 568.75,524.5 Z " fill="#000000"/><text fill="#000000" font-family="sans-serif" font-size="12" lengthAdjust="spacingAndGlyphs" textLength="110" x="587.25" y="532.9102">DeliveryRegistration</text><line style="stroke:#A80036;stroke-width:1.5;" x1="504" x2="748" y1="544" y2="544"/><line style="stroke:#A80036;stroke-width:1.5;" x1="504" x2="748" y1="552" y2="552"/><text fill="#000000" font-family="sans-serif" font-size="11" lengthAdjust="spacingAndGlyphs" textLength="151" x="509" y="567.4189">+getShortestPath(pairAddress)</text><text fill="#000000" font-family="sans-serif" font-size="11" lengthAdjust="spacingAndGlyphs" textLength="234" x="509" y="581.2549">+getStartingAndDeliveryAddressByOrder(order)</text><!--MD5=[fa2eb4bbb726c410908f1f53a3c9f4ac]
class OrderRegistration--><rect codeLine="35" fill="#FEFECE" filter="url(#fgtgj8ivfwm80)" height="61.8359" id="OrderRegistration" style="stroke:#A80036;stroke-width:1.5;" width="141" x="784.5" y="519"/><ellipse cx="804.45" cy="535" fill="#ADD1B2" rx="11" ry="11" style="stroke:#A80036;stroke-width:1.0;"/><path d="M806.45,531.5 Q806.6531,531 806.8875,530.75 Q807.1219,530.5 807.3875,530.5 Q807.8563,530.5 808.1531,530.7813 Q808.45,531.0625 808.45,531.7188 L808.45,533.2813 Q808.45,533.9375 808.1688,534.2188 Q807.8875,534.5 807.45,534.5 Q807.0594,534.5 806.8094,534.3281 Q806.5594,534.1563 806.45,533.7031 Q806.4031,533.3906 806.2313,533.2188 Q805.9188,532.8906 805.3563,532.7031 Q804.7938,532.5 804.2313,532.5 Q803.5281,532.5 802.9344,532.7813 Q802.3563,533.0625 801.9031,533.6875 Q801.45,534.3125 801.45,535.1719 L801.45,536.0938 Q801.45,537.125 802.2938,537.8125 Q803.1375,538.5 804.6375,538.5 Q805.5281,538.5 806.1531,538.2969 Q806.5125,538.1875 806.9188,537.8281 Q807.1844,537.625 807.325,537.5625 Q807.4656,537.5 807.6375,537.5 Q807.9656,537.5 808.2,537.7656 Q808.45,538.0156 808.45,538.375 Q808.45,538.7188 808.1063,539.125 Q807.6063,539.7188 806.8094,540.0469 Q805.7625,540.5 804.4813,540.5 Q802.9813,540.5 801.7781,539.9063 Q800.8094,539.4375 800.1219,538.4219 Q799.45,537.4063 799.45,536.2031 L799.45,535.1094 Q799.45,533.8594 800.0438,532.7656 Q800.6531,531.6719 801.7,531.0938 Q802.7625,530.5 803.95,530.5 Q804.6688,530.5 805.2938,530.75 Q805.9188,531 806.45,531.5 Z " fill="#000000"/><text fill="#000000" font-family="sans-serif" font-size="12" lengthAdjust="spacingAndGlyphs" textLength="98" x="819.55" y="539.9102">OrderRegistration</text><line style="stroke:#A80036;stroke-width:1.5;" x1="785.5" x2="924.5" y1="551" y2="551"/><line style="stroke:#A80036;stroke-width:1.5;" x1="785.5" x2="924.5" y1="559" y2="559"/><text fill="#000000" font-family="sans-serif" font-size="11" lengthAdjust="spacingAndGlyphs" textLength="129" x="790.5" y="574.4189">+getOrderByCourier(email)</text><!--MD5=[59a3926ef90478f0771ee20911a14f09]
link CalculateMostEfficientPahtUI to CalculateMostEfficientPahtController--><path codeLine="43" d="M307,90.1 C307,111.8 307,144.6 307,169.6 " fill="none" id="CalculateMostEfficientPahtUI-to-CalculateMostEfficientPahtController" style="stroke:#A80036;stroke-width:1.0;stroke-dasharray:7.0,7.0;"/><polygon fill="#A80036" points="307,174.81,311,165.81,307,169.81,303,165.81,307,174.81" style="stroke:#A80036;stroke-width:1.0;"/><!--MD5=[c680b83325d9c633fa497c2d7aab0056]
link CalculateMostEfficientPahtController to Platform--><path codeLine="44" d="M368.13,237.09 C414.84,260.08 480.02,292.16 533.16,318.31 " fill="none" id="CalculateMostEfficientPahtController-to-Platform" style="stroke:#A80036;stroke-width:1.0;stroke-dasharray:7.0,7.0;"/><polygon fill="#A80036" points="537.94,320.66,531.6403,313.0895,533.4565,318.4468,528.0991,320.2631,537.94,320.66" style="stroke:#A80036;stroke-width:1.0;"/><!--MD5=[a2bc9061dc213373e9f51b4b6bc089f3]
link CalculateMostEfficientPahtController to ApplicationPOT--><path codeLine="45" d="M307,237.27 C307,259.24 307,289.44 307,314.85 " fill="none" id="CalculateMostEfficientPahtController-to-ApplicationPOT" style="stroke:#A80036;stroke-width:1.0;stroke-dasharray:7.0,7.0;"/><polygon fill="#A80036" points="307,319.86,311,310.86,307,314.86,303,310.86,307,319.86" style="stroke:#A80036;stroke-width:1.0;"/><!--MD5=[bfc8da1abaa3e8d09690fd132a7dedee]
link Platform to DeliveryRegistration--><path codeLine="46" d="M626,410.3 C626,439.58 626,477.73 626,506.61 " fill="none" id="Platform-to-DeliveryRegistration" style="stroke:#A80036;stroke-width:1.0;"/><polygon fill="#A80036" points="626,511.89,630,502.89,626,506.89,622,502.89,626,511.89" style="stroke:#A80036;stroke-width:1.0;"/><text fill="#000000" font-family="sans-serif" font-size="13" lengthAdjust="spacingAndGlyphs" textLength="21" x="627" y="456.4951">has</text><text fill="#000000" font-family="sans-serif" font-size="13" lengthAdjust="spacingAndGlyphs" textLength="7" x="618.5297" y="431.014">1</text><text fill="#000000" font-family="sans-serif" font-size="13" lengthAdjust="spacingAndGlyphs" textLength="7" x="618.3766" y="501.2323">1</text><!--MD5=[1b44e781401e6343839c91502872bf28]
link Platform to OrderRegistration--><path codeLine="47" d="M690.36,410.15 C714.84,427.56 742.67,448.12 767,468 C785.08,482.78 804.26,500.2 820.08,515.1 " fill="none" id="Platform-to-OrderRegistration" style="stroke:#A80036;stroke-width:1.0;"/><polygon fill="#A80036" points="824.03,518.83,820.2177,509.7489,820.389,515.4032,814.7347,515.5745,824.03,518.83" style="stroke:#A80036;stroke-width:1.0;"/><text fill="#000000" font-family="sans-serif" font-size="13" lengthAdjust="spacingAndGlyphs" textLength="21" x="757" y="456.4951">has</text><text fill="#000000" font-family="sans-serif" font-size="13" lengthAdjust="spacingAndGlyphs" textLength="7" x="691.5381" y="430.8438">1</text><text fill="#000000" font-family="sans-serif" font-size="13" lengthAdjust="spacingAndGlyphs" textLength="7" x="809.9206" y="508.2995">1</text><!--MD5=[77d86c52f68fe5fae6999fd4c71bb3e6]
link OrderRegistration to Database--><path codeLine="48" d="M824.11,581.03 C798.69,605.74 763,640.45 738.55,664.22 " fill="none" id="OrderRegistration-to-Database" style="stroke:#A80036;stroke-width:1.0;"/><polygon fill="#A80036" points="734.72,667.94,743.9615,664.5348,738.3052,664.4548,738.3852,658.7985,734.72,667.94" style="stroke:#A80036;stroke-width:1.0;"/><text fill="#000000" font-family="sans-serif" font-size="13" lengthAdjust="spacingAndGlyphs" textLength="68" x="784" y="634.4951">connects to</text><text fill="#000000" font-family="sans-serif" font-size="13" lengthAdjust="spacingAndGlyphs" textLength="7" x="810.3395" y="602.2599">1</text><text fill="#000000" font-family="sans-serif" font-size="13" lengthAdjust="spacingAndGlyphs" textLength="7" x="732.9014" y="657.2648">1</text><!--MD5=[96bb3526011e36d4601891b536af4a79]
link DeliveryRegistration to Database--><path codeLine="49" d="M648.56,588.15 C662.88,611.75 681.12,641.78 694.18,663.29 " fill="none" id="DeliveryRegistration-to-Database" style="stroke:#A80036;stroke-width:1.0;"/><polygon fill="#A80036" points="696.88,667.75,695.6411,657.9794,694.2907,663.4727,688.7974,662.1222,696.88,667.75" style="stroke:#A80036;stroke-width:1.0;"/><text fill="#000000" font-family="sans-serif" font-size="13" lengthAdjust="spacingAndGlyphs" textLength="68" x="679" y="634.4951">connects to</text><text fill="#000000" font-family="sans-serif" font-size="13" lengthAdjust="spacingAndGlyphs" textLength="7" x="644.5977" y="609.0544">1</text><text fill="#000000" font-family="sans-serif" font-size="13" lengthAdjust="spacingAndGlyphs" textLength="7" x="685.3649" y="657.0261">1</text><!--MD5=[37fbef0704826e82af0af6fdfab8ee46]
@startuml
skinparam classAttributeIconSize 0


package "UI" #DDDDDD {
class CalculateMostEfficientPahtUI{

}
}
package "Controller" #DDDDDD {
class CalculateMostEfficientPahtController{
+getShortestPath()
}
class ApplicationPOT
{
  +static getInstance()
  +getPlatform()
    +getCurrentSession()
}
class UserSession
{
  +getCurrentUserEmail()
}
}
package "Model" #DDDDDD {
class Platform {
  -String designation
  +DeliveryRegistration getDelReg()
  +OrderRegistration getOrderReg()
}
package "Registration" #DDDDDD {
class DeliveryRegistration{
+getShortestPath(pairAddress)
+getStartingAndDeliveryAddressByOrder(order)
}
class OrderRegistration{
+getOrderByCourier(email)
}
}
class Database{
}
}

CalculateMostEfficientPahtUI ..> CalculateMostEfficientPahtController
CalculateMostEfficientPahtController ..> Platform
CalculateMostEfficientPahtController ..> ApplicationPOT
Platform "1" - -> "1" DeliveryRegistration : has
Platform "1" - -> "1" OrderRegistration : has
OrderRegistration "1" - -> "1" Database : connects to
DeliveryRegistration "1" - -> "1" Database : connects to
@enduml

PlantUML version 1.2020.23(Sun Dec 13 19:14:58 GMT 2020)
(GPL source distribution)
Java Runtime: OpenJDK Runtime Environment
JVM: OpenJDK 64-Bit Server VM
Default Encoding: Cp1252
Language: pt
Country: PT
--></g></svg>