<?xml version="1.0" encoding="UTF-8" standalone="no"?><svg xmlns="http://www.w3.org/2000/svg" xmlns:xlink="http://www.w3.org/1999/xlink" contentScriptType="application/ecmascript" contentStyleType="text/css" height="482px" preserveAspectRatio="none" style="width:364px;height:482px;" version="1.1" viewBox="0 0 364 482" width="364px" zoomAndPan="magnify"><defs><filter height="300%" id="f1x4bxroz09h3b" width="300%" x="-1" y="-1"><feGaussianBlur result="blurOut" stdDeviation="2.0"/><feColorMatrix in="blurOut" result="blurOut2" type="matrix" values="0 0 0 0 0 0 0 0 0 0 0 0 0 0 0 0 0 0 .4 0"/><feOffset dx="4.0" dy="4.0" in="blurOut2" result="blurOut3"/><feBlend in="SourceGraphic" in2="blurOut3" mode="normal"/></filter></defs><g><!--MD5=[31a99318d73d92502100859279ac7629]
class PotApplication--><rect codeLine="3" fill="#FEFECE" filter="url(#f1x4bxroz09h3b)" height="75.6719" id="PotApplication" style="stroke:#A80036;stroke-width:1.5;" width="111" x="47.5" y="253"/><ellipse cx="62.95" cy="269" fill="#ADD1B2" rx="11" ry="11" style="stroke:#A80036;stroke-width:1.0;"/><path d="M64.95,265.5 Q65.1531,265 65.3875,264.75 Q65.6219,264.5 65.8875,264.5 Q66.3563,264.5 66.6531,264.7813 Q66.95,265.0625 66.95,265.7188 L66.95,267.2813 Q66.95,267.9375 66.6688,268.2188 Q66.3875,268.5 65.95,268.5 Q65.5594,268.5 65.3094,268.3281 Q65.0594,268.1563 64.95,267.7031 Q64.9031,267.3906 64.7313,267.2188 Q64.4188,266.8906 63.8563,266.7031 Q63.2938,266.5 62.7313,266.5 Q62.0281,266.5 61.4344,266.7813 Q60.8563,267.0625 60.4031,267.6875 Q59.95,268.3125 59.95,269.1719 L59.95,270.0938 Q59.95,271.125 60.7938,271.8125 Q61.6375,272.5 63.1375,272.5 Q64.0281,272.5 64.6531,272.2969 Q65.0125,272.1875 65.4188,271.8281 Q65.6844,271.625 65.825,271.5625 Q65.9656,271.5 66.1375,271.5 Q66.4656,271.5 66.7,271.7656 Q66.95,272.0156 66.95,272.375 Q66.95,272.7188 66.6063,273.125 Q66.1063,273.7188 65.3094,274.0469 Q64.2625,274.5 62.9813,274.5 Q61.4813,274.5 60.2781,273.9063 Q59.3094,273.4375 58.6219,272.4219 Q57.95,271.4063 57.95,270.2031 L57.95,269.1094 Q57.95,267.8594 58.5438,266.7656 Q59.1531,265.6719 60.2,265.0938 Q61.2625,264.5 62.45,264.5 Q63.1688,264.5 63.7938,264.75 Q64.4188,265 64.95,265.5 Z " fill="#000000"/><text fill="#000000" font-family="sans-serif" font-size="12" lengthAdjust="spacingAndGlyphs" textLength="78" x="77.05" y="273.9102">PotApplication</text><line style="stroke:#A80036;stroke-width:1.5;" x1="48.5" x2="157.5" y1="285" y2="285"/><line style="stroke:#A80036;stroke-width:1.5;" x1="48.5" x2="157.5" y1="293" y2="293"/><text fill="#000000" font-family="sans-serif" font-size="11" lengthAdjust="spacingAndGlyphs" textLength="99" x="53.5" y="308.4189">+static getInstance()</text><text fill="#000000" font-family="sans-serif" font-size="11" lengthAdjust="spacingAndGlyphs" textLength="68" x="53.5" y="322.2549">+getPlatform()</text><!--MD5=[b4f48a7919e2e1bc25b7fc99913d9824]
class CalculateMostEfficientPahtUI--><rect codeLine="9" fill="#FEFECE" filter="url(#f1x4bxroz09h3b)" height="48" id="CalculateMostEfficientPahtUI" style="stroke:#A80036;stroke-width:1.5;" width="190" x="28" y="7"/><ellipse cx="43" cy="23" fill="#ADD1B2" rx="11" ry="11" style="stroke:#A80036;stroke-width:1.0;"/><path d="M45,19.5 Q45.2031,19 45.4375,18.75 Q45.6719,18.5 45.9375,18.5 Q46.4063,18.5 46.7031,18.7813 Q47,19.0625 47,19.7188 L47,21.2813 Q47,21.9375 46.7188,22.2188 Q46.4375,22.5 46,22.5 Q45.6094,22.5 45.3594,22.3281 Q45.1094,22.1563 45,21.7031 Q44.9531,21.3906 44.7813,21.2188 Q44.4688,20.8906 43.9063,20.7031 Q43.3438,20.5 42.7813,20.5 Q42.0781,20.5 41.4844,20.7813 Q40.9063,21.0625 40.4531,21.6875 Q40,22.3125 40,23.1719 L40,24.0938 Q40,25.125 40.8438,25.8125 Q41.6875,26.5 43.1875,26.5 Q44.0781,26.5 44.7031,26.2969 Q45.0625,26.1875 45.4688,25.8281 Q45.7344,25.625 45.875,25.5625 Q46.0156,25.5 46.1875,25.5 Q46.5156,25.5 46.75,25.7656 Q47,26.0156 47,26.375 Q47,26.7188 46.6563,27.125 Q46.1563,27.7188 45.3594,28.0469 Q44.3125,28.5 43.0313,28.5 Q41.5313,28.5 40.3281,27.9063 Q39.3594,27.4375 38.6719,26.4219 Q38,25.4063 38,24.2031 L38,23.1094 Q38,21.8594 38.5938,20.7656 Q39.2031,19.6719 40.25,19.0938 Q41.3125,18.5 42.5,18.5 Q43.2188,18.5 43.8438,18.75 Q44.4688,19 45,19.5 Z " fill="#000000"/><text fill="#000000" font-family="sans-serif" font-size="12" lengthAdjust="spacingAndGlyphs" textLength="158" x="57" y="27.9102">CalculateMostEfficientPahtUI</text><line style="stroke:#A80036;stroke-width:1.5;" x1="29" x2="217" y1="39" y2="39"/><line style="stroke:#A80036;stroke-width:1.5;" x1="29" x2="217" y1="47" y2="47"/><!--MD5=[165922122781c97e22b50eec8123fd29]
class CalculateMostEfficientPahtController--><rect codeLine="13" fill="#FEFECE" filter="url(#f1x4bxroz09h3b)" height="75.6719" id="CalculateMostEfficientPahtController" style="stroke:#A80036;stroke-width:1.5;" width="232" x="7" y="116"/><ellipse cx="22" cy="132" fill="#ADD1B2" rx="11" ry="11" style="stroke:#A80036;stroke-width:1.0;"/><path d="M24,128.5 Q24.2031,128 24.4375,127.75 Q24.6719,127.5 24.9375,127.5 Q25.4063,127.5 25.7031,127.7813 Q26,128.0625 26,128.7188 L26,130.2813 Q26,130.9375 25.7188,131.2188 Q25.4375,131.5 25,131.5 Q24.6094,131.5 24.3594,131.3281 Q24.1094,131.1563 24,130.7031 Q23.9531,130.3906 23.7813,130.2188 Q23.4688,129.8906 22.9063,129.7031 Q22.3438,129.5 21.7813,129.5 Q21.0781,129.5 20.4844,129.7813 Q19.9063,130.0625 19.4531,130.6875 Q19,131.3125 19,132.1719 L19,133.0938 Q19,134.125 19.8438,134.8125 Q20.6875,135.5 22.1875,135.5 Q23.0781,135.5 23.7031,135.2969 Q24.0625,135.1875 24.4688,134.8281 Q24.7344,134.625 24.875,134.5625 Q25.0156,134.5 25.1875,134.5 Q25.5156,134.5 25.75,134.7656 Q26,135.0156 26,135.375 Q26,135.7188 25.6563,136.125 Q25.1563,136.7188 24.3594,137.0469 Q23.3125,137.5 22.0313,137.5 Q20.5313,137.5 19.3281,136.9063 Q18.3594,136.4375 17.6719,135.4219 Q17,134.4063 17,133.2031 L17,132.1094 Q17,130.8594 17.5938,129.7656 Q18.2031,128.6719 19.25,128.0938 Q20.3125,127.5 21.5,127.5 Q22.2188,127.5 22.8438,127.75 Q23.4688,128 24,128.5 Z " fill="#000000"/><text fill="#000000" font-family="sans-serif" font-size="12" lengthAdjust="spacingAndGlyphs" textLength="200" x="36" y="136.9102">CalculateMostEfficientPahtController</text><line style="stroke:#A80036;stroke-width:1.5;" x1="8" x2="238" y1="148" y2="148"/><line style="stroke:#A80036;stroke-width:1.5;" x1="8" x2="238" y1="156" y2="156"/><text fill="#000000" font-family="sans-serif" font-size="11" lengthAdjust="spacingAndGlyphs" textLength="82" x="13" y="171.4189">+getCourierInfo()</text><text fill="#000000" font-family="sans-serif" font-size="11" lengthAdjust="spacingAndGlyphs" textLength="93" x="13" y="185.2549">+getOrderByCour()</text><!--MD5=[99b8db98afdc2c8404e39242ef4c1e65]
class Platform--><rect codeLine="18" fill="#FEFECE" filter="url(#f1x4bxroz09h3b)" height="75.6719" id="Platform" style="stroke:#A80036;stroke-width:1.5;" width="157" x="193.5" y="253"/><ellipse cx="244.75" cy="269" fill="#ADD1B2" rx="11" ry="11" style="stroke:#A80036;stroke-width:1.0;"/><path d="M246.75,265.5 Q246.9531,265 247.1875,264.75 Q247.4219,264.5 247.6875,264.5 Q248.1563,264.5 248.4531,264.7813 Q248.75,265.0625 248.75,265.7188 L248.75,267.2813 Q248.75,267.9375 248.4688,268.2188 Q248.1875,268.5 247.75,268.5 Q247.3594,268.5 247.1094,268.3281 Q246.8594,268.1563 246.75,267.7031 Q246.7031,267.3906 246.5313,267.2188 Q246.2188,266.8906 245.6563,266.7031 Q245.0938,266.5 244.5313,266.5 Q243.8281,266.5 243.2344,266.7813 Q242.6563,267.0625 242.2031,267.6875 Q241.75,268.3125 241.75,269.1719 L241.75,270.0938 Q241.75,271.125 242.5938,271.8125 Q243.4375,272.5 244.9375,272.5 Q245.8281,272.5 246.4531,272.2969 Q246.8125,272.1875 247.2188,271.8281 Q247.4844,271.625 247.625,271.5625 Q247.7656,271.5 247.9375,271.5 Q248.2656,271.5 248.5,271.7656 Q248.75,272.0156 248.75,272.375 Q248.75,272.7188 248.4063,273.125 Q247.9063,273.7188 247.1094,274.0469 Q246.0625,274.5 244.7813,274.5 Q243.2813,274.5 242.0781,273.9063 Q241.1094,273.4375 240.4219,272.4219 Q239.75,271.4063 239.75,270.2031 L239.75,269.1094 Q239.75,267.8594 240.3438,266.7656 Q240.9531,265.6719 242,265.0938 Q243.0625,264.5 244.25,264.5 Q244.9688,264.5 245.5938,264.75 Q246.2188,265 246.75,265.5 Z " fill="#000000"/><text fill="#000000" font-family="sans-serif" font-size="12" lengthAdjust="spacingAndGlyphs" textLength="46" x="265.25" y="273.9102">Platform</text><line style="stroke:#A80036;stroke-width:1.5;" x1="194.5" x2="349.5" y1="285" y2="285"/><text fill="#000000" font-family="sans-serif" font-size="11" lengthAdjust="spacingAndGlyphs" textLength="90" x="199.5" y="300.4189">-String designation</text><line style="stroke:#A80036;stroke-width:1.5;" x1="194.5" x2="349.5" y1="306.8359" y2="306.8359"/><text fill="#000000" font-family="sans-serif" font-size="11" lengthAdjust="spacingAndGlyphs" textLength="145" x="199.5" y="322.2549">+DeliveryRegistry getDelReg()</text><!--MD5=[7eb7e92ff0e0e43fc7324156767e155f]
class DeliveryRegistry--><rect codeLine="22" fill="#FEFECE" filter="url(#f1x4bxroz09h3b)" height="61.8359" id="DeliveryRegistry" style="stroke:#A80036;stroke-width:1.5;" width="120" x="212" y="407"/><ellipse cx="227" cy="423" fill="#ADD1B2" rx="11" ry="11" style="stroke:#A80036;stroke-width:1.0;"/><path d="M229,419.5 Q229.2031,419 229.4375,418.75 Q229.6719,418.5 229.9375,418.5 Q230.4063,418.5 230.7031,418.7813 Q231,419.0625 231,419.7188 L231,421.2813 Q231,421.9375 230.7188,422.2188 Q230.4375,422.5 230,422.5 Q229.6094,422.5 229.3594,422.3281 Q229.1094,422.1563 229,421.7031 Q228.9531,421.3906 228.7813,421.2188 Q228.4688,420.8906 227.9063,420.7031 Q227.3438,420.5 226.7813,420.5 Q226.0781,420.5 225.4844,420.7813 Q224.9063,421.0625 224.4531,421.6875 Q224,422.3125 224,423.1719 L224,424.0938 Q224,425.125 224.8438,425.8125 Q225.6875,426.5 227.1875,426.5 Q228.0781,426.5 228.7031,426.2969 Q229.0625,426.1875 229.4688,425.8281 Q229.7344,425.625 229.875,425.5625 Q230.0156,425.5 230.1875,425.5 Q230.5156,425.5 230.75,425.7656 Q231,426.0156 231,426.375 Q231,426.7188 230.6563,427.125 Q230.1563,427.7188 229.3594,428.0469 Q228.3125,428.5 227.0313,428.5 Q225.5313,428.5 224.3281,427.9063 Q223.3594,427.4375 222.6719,426.4219 Q222,425.4063 222,424.2031 L222,423.1094 Q222,421.8594 222.5938,420.7656 Q223.2031,419.6719 224.25,419.0938 Q225.3125,418.5 226.5,418.5 Q227.2188,418.5 227.8438,418.75 Q228.4688,419 229,419.5 Z " fill="#000000"/><text fill="#000000" font-family="sans-serif" font-size="12" lengthAdjust="spacingAndGlyphs" textLength="88" x="241" y="427.9102">DeliveryRegistry</text><line style="stroke:#A80036;stroke-width:1.5;" x1="213" x2="331" y1="439" y2="439"/><line style="stroke:#A80036;stroke-width:1.5;" x1="213" x2="331" y1="447" y2="447"/><text fill="#000000" font-family="sans-serif" font-size="11" lengthAdjust="spacingAndGlyphs" textLength="91" x="218" y="462.4189">+getShortestPath()</text><!--MD5=[59a3926ef90478f0771ee20911a14f09]
link CalculateMostEfficientPahtUI to CalculateMostEfficientPahtController--><path codeLine="28" d="M123,55.04 C123,70.71 123,91.91 123,110.58 " fill="none" id="CalculateMostEfficientPahtUI-to-CalculateMostEfficientPahtController" style="stroke:#A80036;stroke-width:1.0;stroke-dasharray:7.0,7.0;"/><polygon fill="#A80036" points="123,115.77,127,106.77,123,110.77,119,106.77,123,115.77" style="stroke:#A80036;stroke-width:1.0;"/><!--MD5=[c680b83325d9c633fa497c2d7aab0056]
link CalculateMostEfficientPahtController to Platform--><path codeLine="29" d="M164.11,192.25 C183.65,209.95 207.06,231.16 227.07,249.29 " fill="none" id="CalculateMostEfficientPahtController-to-Platform" style="stroke:#A80036;stroke-width:1.0;stroke-dasharray:7.0,7.0;"/><polygon fill="#A80036" points="231.02,252.87,227.0426,243.86,227.3171,249.5102,221.6669,249.7847,231.02,252.87" style="stroke:#A80036;stroke-width:1.0;"/><!--MD5=[72018eaa68e4f7f3aaec1a42f859d62e]
link CalculateMostEfficientPahtController to PotApplication--><path codeLine="30" d="M117.48,192.25 C114.92,209.51 111.87,230.1 109.23,247.93 " fill="none" id="CalculateMostEfficientPahtController-to-PotApplication" style="stroke:#A80036;stroke-width:1.0;stroke-dasharray:7.0,7.0;"/><polygon fill="#A80036" points="108.5,252.87,113.7932,244.5644,109.2431,247.9255,105.882,243.3755,108.5,252.87" style="stroke:#A80036;stroke-width:1.0;"/><!--MD5=[eca9b04d072ded88cf6fce0e26bd75cf]
link Platform to DeliveryRegistry--><path codeLine="31" d="M272,329.34 C272,351.56 272,379.59 272,401.48 " fill="none" id="Platform-to-DeliveryRegistry" style="stroke:#A80036;stroke-width:1.0;"/><polygon fill="#A80036" points="272,406.62,276,397.62,272,401.62,268,397.62,272,406.62" style="stroke:#A80036;stroke-width:1.0;"/><text fill="#000000" font-family="sans-serif" font-size="13" lengthAdjust="spacingAndGlyphs" textLength="21" x="273" y="373.4951">has</text><text fill="#000000" font-family="sans-serif" font-size="13" lengthAdjust="spacingAndGlyphs" textLength="7" x="264.4422" y="350.2747">1</text><text fill="#000000" font-family="sans-serif" font-size="13" lengthAdjust="spacingAndGlyphs" textLength="7" x="264.2781" y="396.0462">1</text><!--MD5=[e8dab2fb1a87d28b37b319c530ec0f30]
@startuml
skinparam classAttributeIconSize 0

class PotApplication
{
  +static getInstance()
  +getPlatform()
}

class CalculateMostEfficientPahtUI{

}

class CalculateMostEfficientPahtController{
+getCourierInfo()
+getOrderByCour()
}

class Platform {
  -String designation
  +DeliveryRegistry getDelReg()
}
class DeliveryRegistry{
+getShortestPath()
}



CalculateMostEfficientPahtUI ..> CalculateMostEfficientPahtController
CalculateMostEfficientPahtController ..> Platform
CalculateMostEfficientPahtController ..> PotApplication
Platform "1" - -> "1" DeliveryRegistry : has
@enduml

PlantUML version 1.2020.23(Sun Dec 13 19:14:58 GMT 2020)
(GPL source distribution)
Java Runtime: OpenJDK Runtime Environment
JVM: OpenJDK 64-Bit Server VM
Default Encoding: Cp1252
Language: pt
Country: PT
--></g></svg>