<?xml version="1.0" encoding="UTF-8" standalone="no"?><svg xmlns="http://www.w3.org/2000/svg" xmlns:xlink="http://www.w3.org/1999/xlink" contentScriptType="application/ecmascript" contentStyleType="text/css" height="380px" preserveAspectRatio="none" style="width:1239px;height:380px;" version="1.1" viewBox="0 0 1239 380" width="1239px" zoomAndPan="magnify"><defs><filter height="300%" id="f1h88m25qmuv88" width="300%" x="-1" y="-1"><feGaussianBlur result="blurOut" stdDeviation="2.0"/><feColorMatrix in="blurOut" result="blurOut2" type="matrix" values="0 0 0 0 0 0 0 0 0 0 0 0 0 0 0 0 0 0 .4 0"/><feOffset dx="4.0" dy="4.0" in="blurOut2" result="blurOut3"/><feBlend in="SourceGraphic" in2="blurOut3" mode="normal"/></filter></defs><g><!--MD5=[fa1e3283224feb76407c84b7e90ed808]
entity Database--><path d="M6,218 C6,208 46.5,208 46.5,208 C46.5,208 87,208 87,218 L87,244.6094 C87,254.6094 46.5,254.6094 46.5,254.6094 C46.5,254.6094 6,254.6094 6,244.6094 L6,218 " fill="#FFFFFF" filter="url(#f1h88m25qmuv88)" style="stroke: #000000; stroke-width: 1.5;"/><path d="M6,218 C6,228 46.5,228 46.5,228 C46.5,228 87,228 87,218 " fill="none" style="stroke: #000000; stroke-width: 1.5;"/><text fill="#000000" font-family="sans-serif" font-size="14" lengthAdjust="spacingAndGlyphs" textLength="61" x="16" y="246.5332">Database</text><!--MD5=[7f2a9fafcebe4f099f71398fd3e2ed00]
class Pharmacy--><rect fill="#FEFECE" filter="url(#f1h88m25qmuv88)" height="81.5078" id="Pharmacy" style="stroke: #A80036; stroke-width: 1.5;" width="87" x="680" y="151.5"/><ellipse cx="695" cy="167.5" fill="#ADD1B2" rx="11" ry="11" style="stroke: #A80036; stroke-width: 1.0;"/><path d="M697,164 Q697.2031,163.5 697.4375,163.25 Q697.6719,163 697.9375,163 Q698.4063,163 698.7031,163.2813 Q699,163.5625 699,164.2188 L699,165.7813 Q699,166.4375 698.7188,166.7188 Q698.4375,167 698,167 Q697.6094,167 697.3594,166.8281 Q697.1094,166.6563 697,166.2031 Q696.9531,165.8906 696.7813,165.7188 Q696.4688,165.3906 695.9063,165.2031 Q695.3438,165 694.7813,165 Q694.0781,165 693.4844,165.2813 Q692.9063,165.5625 692.4531,166.1875 Q692,166.8125 692,167.6719 L692,168.5938 Q692,169.625 692.8438,170.3125 Q693.6875,171 695.1875,171 Q696.0781,171 696.7031,170.7969 Q697.0625,170.6875 697.4688,170.3281 Q697.7344,170.125 697.875,170.0625 Q698.0156,170 698.1875,170 Q698.5156,170 698.75,170.2656 Q699,170.5156 699,170.875 Q699,171.2188 698.6563,171.625 Q698.1563,172.2188 697.3594,172.5469 Q696.3125,173 695.0313,173 Q693.5313,173 692.3281,172.4063 Q691.3594,171.9375 690.6719,170.9219 Q690,169.9063 690,168.7031 L690,167.6094 Q690,166.3594 690.5938,165.2656 Q691.2031,164.1719 692.25,163.5938 Q693.3125,163 694.5,163 Q695.2188,163 695.8438,163.25 Q696.4688,163.5 697,164 Z "/><text fill="#000000" font-family="sans-serif" font-size="12" lengthAdjust="spacingAndGlyphs" textLength="55" x="709" y="172.4102">Pharmacy</text><line style="stroke: #A80036; stroke-width: 1.5;" x1="681" x2="766" y1="183.5" y2="183.5"/><text fill="#000000" font-family="sans-serif" font-size="11" lengthAdjust="spacingAndGlyphs" textLength="26" x="686" y="198.9189">-int id</text><text fill="#000000" font-family="sans-serif" font-size="11" lengthAdjust="spacingAndGlyphs" textLength="61" x="686" y="212.7549">-String name</text><text fill="#000000" font-family="sans-serif" font-size="11" lengthAdjust="spacingAndGlyphs" textLength="59" x="686" y="226.5908">-String email</text><!--MD5=[868815390a9e59f0f213a5798810649b]
class ScooterPark--><rect fill="#FEFECE" filter="url(#f1h88m25qmuv88)" height="53.8359" id="ScooterPark" style="stroke: #A80036; stroke-width: 1.5;" width="111" x="875" y="63.5"/><ellipse cx="895.4" cy="79.5" fill="#ADD1B2" rx="11" ry="11" style="stroke: #A80036; stroke-width: 1.0;"/><path d="M897.4,76 Q897.6031,75.5 897.8375,75.25 Q898.0719,75 898.3375,75 Q898.8063,75 899.1031,75.2813 Q899.4,75.5625 899.4,76.2188 L899.4,77.7813 Q899.4,78.4375 899.1188,78.7188 Q898.8375,79 898.4,79 Q898.0094,79 897.7594,78.8281 Q897.5094,78.6563 897.4,78.2031 Q897.3531,77.8906 897.1813,77.7188 Q896.8688,77.3906 896.3063,77.2031 Q895.7438,77 895.1813,77 Q894.4781,77 893.8844,77.2813 Q893.3063,77.5625 892.8531,78.1875 Q892.4,78.8125 892.4,79.6719 L892.4,80.5938 Q892.4,81.625 893.2438,82.3125 Q894.0875,83 895.5875,83 Q896.4781,83 897.1031,82.7969 Q897.4625,82.6875 897.8688,82.3281 Q898.1344,82.125 898.275,82.0625 Q898.4156,82 898.5875,82 Q898.9156,82 899.15,82.2656 Q899.4,82.5156 899.4,82.875 Q899.4,83.2188 899.0563,83.625 Q898.5563,84.2188 897.7594,84.5469 Q896.7125,85 895.4313,85 Q893.9313,85 892.7281,84.4063 Q891.7594,83.9375 891.0719,82.9219 Q890.4,81.9063 890.4,80.7031 L890.4,79.6094 Q890.4,78.3594 890.9938,77.2656 Q891.6031,76.1719 892.65,75.5938 Q893.7125,75 894.9,75 Q895.6188,75 896.2438,75.25 Q896.8688,75.5 897.4,76 Z "/><text fill="#000000" font-family="sans-serif" font-size="12" lengthAdjust="spacingAndGlyphs" textLength="67" x="910.6" y="84.4102">ScooterPark</text><line style="stroke: #A80036; stroke-width: 1.5;" x1="876" x2="985" y1="95.5" y2="95.5"/><text fill="#000000" font-family="sans-serif" font-size="11" lengthAdjust="spacingAndGlyphs" textLength="99" x="881" y="110.9189">-int maxSlotsNumber</text><!--MD5=[5efbb0d0731ef97fc2ab2cfe7ed5bd27]
class ScooterChargingSlot--><rect fill="#FEFECE" filter="url(#f1h88m25qmuv88)" height="67.6719" id="ScooterChargingSlot" style="stroke: #A80036; stroke-width: 1.5;" width="146" x="1082" y="8.5"/><ellipse cx="1097" cy="24.5" fill="#ADD1B2" rx="11" ry="11" style="stroke: #A80036; stroke-width: 1.0;"/><path d="M1099,21 Q1099.2031,20.5 1099.4375,20.25 Q1099.6719,20 1099.9375,20 Q1100.4063,20 1100.7031,20.2813 Q1101,20.5625 1101,21.2188 L1101,22.7813 Q1101,23.4375 1100.7188,23.7188 Q1100.4375,24 1100,24 Q1099.6094,24 1099.3594,23.8281 Q1099.1094,23.6563 1099,23.2031 Q1098.9531,22.8906 1098.7813,22.7188 Q1098.4688,22.3906 1097.9063,22.2031 Q1097.3438,22 1096.7813,22 Q1096.0781,22 1095.4844,22.2813 Q1094.9063,22.5625 1094.4531,23.1875 Q1094,23.8125 1094,24.6719 L1094,25.5938 Q1094,26.625 1094.8438,27.3125 Q1095.6875,28 1097.1875,28 Q1098.0781,28 1098.7031,27.7969 Q1099.0625,27.6875 1099.4688,27.3281 Q1099.7344,27.125 1099.875,27.0625 Q1100.0156,27 1100.1875,27 Q1100.5156,27 1100.75,27.2656 Q1101,27.5156 1101,27.875 Q1101,28.2188 1100.6563,28.625 Q1100.1563,29.2188 1099.3594,29.5469 Q1098.3125,30 1097.0313,30 Q1095.5313,30 1094.3281,29.4063 Q1093.3594,28.9375 1092.6719,27.9219 Q1092,26.9063 1092,25.7031 L1092,24.6094 Q1092,23.3594 1092.5938,22.2656 Q1093.2031,21.1719 1094.25,20.5938 Q1095.3125,20 1096.5,20 Q1097.2188,20 1097.8438,20.25 Q1098.4688,20.5 1099,21 Z "/><text fill="#000000" font-family="sans-serif" font-size="12" lengthAdjust="spacingAndGlyphs" textLength="114" x="1111" y="29.4102">ScooterChargingSlot</text><line style="stroke: #A80036; stroke-width: 1.5;" x1="1083" x2="1227" y1="40.5" y2="40.5"/><text fill="#000000" font-family="sans-serif" font-size="11" lengthAdjust="spacingAndGlyphs" textLength="26" x="1088" y="55.9189">-int id</text><text fill="#000000" font-family="sans-serif" font-size="11" lengthAdjust="spacingAndGlyphs" textLength="90" x="1088" y="69.7549">-float outputPower</text><!--MD5=[d3cdad78b703b3ff47b8cf68490e772e]
class ScooterParkingSlot--><rect fill="#FEFECE" filter="url(#f1h88m25qmuv88)" height="53.8359" id="ScooterParkingSlot" style="stroke: #A80036; stroke-width: 1.5;" width="137" x="1086.5" y="111.5"/><ellipse cx="1101.5" cy="127.5" fill="#ADD1B2" rx="11" ry="11" style="stroke: #A80036; stroke-width: 1.0;"/><path d="M1103.5,124 Q1103.7031,123.5 1103.9375,123.25 Q1104.1719,123 1104.4375,123 Q1104.9063,123 1105.2031,123.2813 Q1105.5,123.5625 1105.5,124.2188 L1105.5,125.7813 Q1105.5,126.4375 1105.2188,126.7188 Q1104.9375,127 1104.5,127 Q1104.1094,127 1103.8594,126.8281 Q1103.6094,126.6563 1103.5,126.2031 Q1103.4531,125.8906 1103.2813,125.7188 Q1102.9688,125.3906 1102.4063,125.2031 Q1101.8438,125 1101.2813,125 Q1100.5781,125 1099.9844,125.2813 Q1099.4063,125.5625 1098.9531,126.1875 Q1098.5,126.8125 1098.5,127.6719 L1098.5,128.5938 Q1098.5,129.625 1099.3438,130.3125 Q1100.1875,131 1101.6875,131 Q1102.5781,131 1103.2031,130.7969 Q1103.5625,130.6875 1103.9688,130.3281 Q1104.2344,130.125 1104.375,130.0625 Q1104.5156,130 1104.6875,130 Q1105.0156,130 1105.25,130.2656 Q1105.5,130.5156 1105.5,130.875 Q1105.5,131.2188 1105.1563,131.625 Q1104.6563,132.2188 1103.8594,132.5469 Q1102.8125,133 1101.5313,133 Q1100.0313,133 1098.8281,132.4063 Q1097.8594,131.9375 1097.1719,130.9219 Q1096.5,129.9063 1096.5,128.7031 L1096.5,127.6094 Q1096.5,126.3594 1097.0938,125.2656 Q1097.7031,124.1719 1098.75,123.5938 Q1099.8125,123 1101,123 Q1101.7188,123 1102.3438,123.25 Q1102.9688,123.5 1103.5,124 Z "/><text fill="#000000" font-family="sans-serif" font-size="12" lengthAdjust="spacingAndGlyphs" textLength="105" x="1115.5" y="132.4102">ScooterParkingSlot</text><line style="stroke: #A80036; stroke-width: 1.5;" x1="1087.5" x2="1222.5" y1="143.5" y2="143.5"/><text fill="#000000" font-family="sans-serif" font-size="11" lengthAdjust="spacingAndGlyphs" textLength="26" x="1092.5" y="158.9189">-int id</text><!--MD5=[f4402668d5d5bb8485350c0fdb60ac8e]
class Scooter--><rect fill="#FEFECE" filter="url(#f1h88m25qmuv88)" height="40" id="Scooter" style="stroke: #A80036; stroke-width: 1.5;" width="74" x="183" y="260.5"/><ellipse cx="198" cy="276.5" fill="#ADD1B2" rx="11" ry="11" style="stroke: #A80036; stroke-width: 1.0;"/><path d="M200,273 Q200.2031,272.5 200.4375,272.25 Q200.6719,272 200.9375,272 Q201.4063,272 201.7031,272.2813 Q202,272.5625 202,273.2188 L202,274.7813 Q202,275.4375 201.7188,275.7188 Q201.4375,276 201,276 Q200.6094,276 200.3594,275.8281 Q200.1094,275.6563 200,275.2031 Q199.9531,274.8906 199.7813,274.7188 Q199.4688,274.3906 198.9063,274.2031 Q198.3438,274 197.7813,274 Q197.0781,274 196.4844,274.2813 Q195.9063,274.5625 195.4531,275.1875 Q195,275.8125 195,276.6719 L195,277.5938 Q195,278.625 195.8438,279.3125 Q196.6875,280 198.1875,280 Q199.0781,280 199.7031,279.7969 Q200.0625,279.6875 200.4688,279.3281 Q200.7344,279.125 200.875,279.0625 Q201.0156,279 201.1875,279 Q201.5156,279 201.75,279.2656 Q202,279.5156 202,279.875 Q202,280.2188 201.6563,280.625 Q201.1563,281.2188 200.3594,281.5469 Q199.3125,282 198.0313,282 Q196.5313,282 195.3281,281.4063 Q194.3594,280.9375 193.6719,279.9219 Q193,278.9063 193,277.7031 L193,276.6094 Q193,275.3594 193.5938,274.2656 Q194.2031,273.1719 195.25,272.5938 Q196.3125,272 197.5,272 Q198.2188,272 198.8438,272.25 Q199.4688,272.5 200,273 Z "/><text fill="#000000" font-family="sans-serif" font-size="12" lengthAdjust="spacingAndGlyphs" textLength="42" x="212" y="281.4102">Scooter</text><line style="stroke: #A80036; stroke-width: 1.5;" x1="184" x2="256" y1="292.5" y2="292.5"/><!--MD5=[3aa0d89c6bfdcbf7f32042cedac57549]
class Vehicle--><rect fill="#FEFECE" filter="url(#f1h88m25qmuv88)" height="123.0156" id="Vehicle" style="stroke: #A80036; stroke-width: 1.5;" width="126" x="396" y="246"/><ellipse cx="435.3" cy="262" fill="#ADD1B2" rx="11" ry="11" style="stroke: #A80036; stroke-width: 1.0;"/><path d="M437.3,258.5 Q437.5031,258 437.7375,257.75 Q437.9719,257.5 438.2375,257.5 Q438.7063,257.5 439.0031,257.7813 Q439.3,258.0625 439.3,258.7188 L439.3,260.2813 Q439.3,260.9375 439.0188,261.2188 Q438.7375,261.5 438.3,261.5 Q437.9094,261.5 437.6594,261.3281 Q437.4094,261.1563 437.3,260.7031 Q437.2531,260.3906 437.0813,260.2188 Q436.7688,259.8906 436.2063,259.7031 Q435.6438,259.5 435.0813,259.5 Q434.3781,259.5 433.7844,259.7813 Q433.2063,260.0625 432.7531,260.6875 Q432.3,261.3125 432.3,262.1719 L432.3,263.0938 Q432.3,264.125 433.1438,264.8125 Q433.9875,265.5 435.4875,265.5 Q436.3781,265.5 437.0031,265.2969 Q437.3625,265.1875 437.7688,264.8281 Q438.0344,264.625 438.175,264.5625 Q438.3156,264.5 438.4875,264.5 Q438.8156,264.5 439.05,264.7656 Q439.3,265.0156 439.3,265.375 Q439.3,265.7188 438.9563,266.125 Q438.4563,266.7188 437.6594,267.0469 Q436.6125,267.5 435.3313,267.5 Q433.8313,267.5 432.6281,266.9063 Q431.6594,266.4375 430.9719,265.4219 Q430.3,264.4063 430.3,263.2031 L430.3,262.1094 Q430.3,260.8594 430.8938,259.7656 Q431.5031,258.6719 432.55,258.0938 Q433.6125,257.5 434.8,257.5 Q435.5188,257.5 436.1438,257.75 Q436.7688,258 437.3,258.5 Z "/><text fill="#000000" font-family="sans-serif" font-size="12" lengthAdjust="spacingAndGlyphs" textLength="40" x="454.7" y="266.9102">Vehicle</text><line style="stroke: #A80036; stroke-width: 1.5;" x1="397" x2="521" y1="278" y2="278"/><text fill="#000000" font-family="sans-serif" font-size="11" lengthAdjust="spacingAndGlyphs" textLength="26" x="402" y="293.4189">-int id</text><text fill="#000000" font-family="sans-serif" font-size="11" lengthAdjust="spacingAndGlyphs" textLength="93" x="402" y="307.2549">-String vehicleType</text><text fill="#000000" font-family="sans-serif" font-size="11" lengthAdjust="spacingAndGlyphs" textLength="67" x="402" y="321.0908">-float potency</text><text fill="#000000" font-family="sans-serif" font-size="11" lengthAdjust="spacingAndGlyphs" textLength="61" x="402" y="334.9268">-float weight</text><text fill="#000000" font-family="sans-serif" font-size="11" lengthAdjust="spacingAndGlyphs" textLength="86" x="402" y="348.7627">-float maxPayload</text><text fill="#000000" font-family="sans-serif" font-size="11" lengthAdjust="spacingAndGlyphs" textLength="114" x="402" y="362.5986">-String charngingStatus</text><!--MD5=[79eb2d862cef9730b5f9dcab29e35f17]
class Battery--><rect fill="#FEFECE" filter="url(#f1h88m25qmuv88)" height="95.3438" id="Battery" style="stroke: #A80036; stroke-width: 1.5;" width="111" x="668" y="269"/><ellipse cx="701.9" cy="285" fill="#ADD1B2" rx="11" ry="11" style="stroke: #A80036; stroke-width: 1.0;"/><path d="M703.9,281.5 Q704.1031,281 704.3375,280.75 Q704.5719,280.5 704.8375,280.5 Q705.3063,280.5 705.6031,280.7813 Q705.9,281.0625 705.9,281.7188 L705.9,283.2813 Q705.9,283.9375 705.6188,284.2188 Q705.3375,284.5 704.9,284.5 Q704.5094,284.5 704.2594,284.3281 Q704.0094,284.1563 703.9,283.7031 Q703.8531,283.3906 703.6813,283.2188 Q703.3688,282.8906 702.8063,282.7031 Q702.2438,282.5 701.6813,282.5 Q700.9781,282.5 700.3844,282.7813 Q699.8063,283.0625 699.3531,283.6875 Q698.9,284.3125 698.9,285.1719 L698.9,286.0938 Q698.9,287.125 699.7438,287.8125 Q700.5875,288.5 702.0875,288.5 Q702.9781,288.5 703.6031,288.2969 Q703.9625,288.1875 704.3688,287.8281 Q704.6344,287.625 704.775,287.5625 Q704.9156,287.5 705.0875,287.5 Q705.4156,287.5 705.65,287.7656 Q705.9,288.0156 705.9,288.375 Q705.9,288.7188 705.5563,289.125 Q705.0563,289.7188 704.2594,290.0469 Q703.2125,290.5 701.9313,290.5 Q700.4313,290.5 699.2281,289.9063 Q698.2594,289.4375 697.5719,288.4219 Q696.9,287.4063 696.9,286.2031 L696.9,285.1094 Q696.9,283.8594 697.4938,282.7656 Q698.1031,281.6719 699.15,281.0938 Q700.2125,280.5 701.4,280.5 Q702.1188,280.5 702.7438,280.75 Q703.3688,281 703.9,281.5 Z "/><text fill="#000000" font-family="sans-serif" font-size="12" lengthAdjust="spacingAndGlyphs" textLength="37" x="720.1" y="289.9102">Battery</text><line style="stroke: #A80036; stroke-width: 1.5;" x1="669" x2="778" y1="301" y2="301"/><text fill="#000000" font-family="sans-serif" font-size="11" lengthAdjust="spacingAndGlyphs" textLength="26" x="674" y="316.4189">-int id</text><text fill="#000000" font-family="sans-serif" font-size="11" lengthAdjust="spacingAndGlyphs" textLength="84" x="674" y="330.2549">-float batteryPerc</text><text fill="#000000" font-family="sans-serif" font-size="11" lengthAdjust="spacingAndGlyphs" textLength="94" x="674" y="344.0908">-int batteryCapacity</text><text fill="#000000" font-family="sans-serif" font-size="11" lengthAdjust="spacingAndGlyphs" textLength="99" x="674" y="357.9268">-float batteryVoltage</text><!--MD5=[0f39e4cb6f03951afbf6d14bd2505654]
class Address--><rect fill="#FEFECE" filter="url(#f1h88m25qmuv88)" height="136.8516" id="Address" style="stroke: #A80036; stroke-width: 1.5;" width="106" x="877.5" y="153"/><ellipse cx="905.1" cy="169" fill="#ADD1B2" rx="11" ry="11" style="stroke: #A80036; stroke-width: 1.0;"/><path d="M907.1,165.5 Q907.3031,165 907.5375,164.75 Q907.7719,164.5 908.0375,164.5 Q908.5063,164.5 908.8031,164.7813 Q909.1,165.0625 909.1,165.7188 L909.1,167.2813 Q909.1,167.9375 908.8188,168.2188 Q908.5375,168.5 908.1,168.5 Q907.7094,168.5 907.4594,168.3281 Q907.2094,168.1563 907.1,167.7031 Q907.0531,167.3906 906.8813,167.2188 Q906.5688,166.8906 906.0063,166.7031 Q905.4438,166.5 904.8813,166.5 Q904.1781,166.5 903.5844,166.7813 Q903.0063,167.0625 902.5531,167.6875 Q902.1,168.3125 902.1,169.1719 L902.1,170.0938 Q902.1,171.125 902.9438,171.8125 Q903.7875,172.5 905.2875,172.5 Q906.1781,172.5 906.8031,172.2969 Q907.1625,172.1875 907.5688,171.8281 Q907.8344,171.625 907.975,171.5625 Q908.1156,171.5 908.2875,171.5 Q908.6156,171.5 908.85,171.7656 Q909.1,172.0156 909.1,172.375 Q909.1,172.7188 908.7563,173.125 Q908.2563,173.7188 907.4594,174.0469 Q906.4125,174.5 905.1313,174.5 Q903.6313,174.5 902.4281,173.9063 Q901.4594,173.4375 900.7719,172.4219 Q900.1,171.4063 900.1,170.2031 L900.1,169.1094 Q900.1,167.8594 900.6938,166.7656 Q901.3031,165.6719 902.35,165.0938 Q903.4125,164.5 904.6,164.5 Q905.3188,164.5 905.9438,164.75 Q906.5688,165 907.1,165.5 Z "/><text fill="#000000" font-family="sans-serif" font-size="12" lengthAdjust="spacingAndGlyphs" textLength="46" x="921.9" y="173.9102">Address</text><line style="stroke: #A80036; stroke-width: 1.5;" x1="878.5" x2="982.5" y1="185" y2="185"/><text fill="#000000" font-family="sans-serif" font-size="11" lengthAdjust="spacingAndGlyphs" textLength="82" x="883.5" y="200.4189">-double longitude</text><text fill="#000000" font-family="sans-serif" font-size="11" lengthAdjust="spacingAndGlyphs" textLength="73" x="883.5" y="214.2549">-double latitude</text><text fill="#000000" font-family="sans-serif" font-size="11" lengthAdjust="spacingAndGlyphs" textLength="94" x="883.5" y="228.0908">-String doorNumber</text><text fill="#000000" font-family="sans-serif" font-size="11" lengthAdjust="spacingAndGlyphs" textLength="90" x="883.5" y="241.9268">-String streetName</text><text fill="#000000" font-family="sans-serif" font-size="11" lengthAdjust="spacingAndGlyphs" textLength="89" x="883.5" y="255.7627">-String postalCode</text><text fill="#000000" font-family="sans-serif" font-size="11" lengthAdjust="spacingAndGlyphs" textLength="68" x="883.5" y="269.5986">-String locality</text><text fill="#000000" font-family="sans-serif" font-size="11" lengthAdjust="spacingAndGlyphs" textLength="72" x="883.5" y="283.4346">-String country</text><!--MD5=[51d7b9a785c9fb041ca400474ed1d998]
link Database to Pharmacy--><path d="M87.1763,227.856 C96.9238,227.021 107.335,226.18 117,225.5 C328.085,210.64 580.974,198.771 679.893,194.357 " fill="none" id="Database-Pharmacy" style="stroke: #A80036; stroke-width: 1.0;"/><text fill="#000000" font-family="sans-serif" font-size="13" lengthAdjust="spacingAndGlyphs" textLength="21" x="309.5" y="205.9951">has</text><polygon fill="#000000" points="333.5,199.1758,339.5,202.1758,333.5,205.1758,333.5,199.1758" style="stroke: #000000; stroke-width: 1.0;"/><text fill="#000000" font-family="sans-serif" font-size="13" lengthAdjust="spacingAndGlyphs" textLength="7" x="95.0452" y="223.3431">1</text><text fill="#000000" font-family="sans-serif" font-size="13" lengthAdjust="spacingAndGlyphs" textLength="5" x="666.9684" y="209.6188">*</text><!--MD5=[f4a94ba2ad2673d4959409a96e63c979]
link Database to Scooter--><path d="M87.2766,242.865 C116.17,251.12 154.951,262.2 182.943,270.1981 " fill="none" id="Database-Scooter" style="stroke: #A80036; stroke-width: 1.0;"/><text fill="#000000" font-family="sans-serif" font-size="13" lengthAdjust="spacingAndGlyphs" textLength="21" x="118" y="247.9951">has</text><polygon fill="#000000" points="142,241.1758,148,244.1758,142,247.1758,142,241.1758" style="stroke: #000000; stroke-width: 1.0;"/><text fill="#000000" font-family="sans-serif" font-size="13" lengthAdjust="spacingAndGlyphs" textLength="7" x="94.8866" y="259.7523">1</text><text fill="#000000" font-family="sans-serif" font-size="13" lengthAdjust="spacingAndGlyphs" textLength="5" x="169.7844" y="283.2547">*</text><!--MD5=[52f80c2c106e4280525a8160ec8cd0fa]
link Scooter to Vehicle--><path d="M257.253,284.6301 C294.079,288.8255 351.817,295.4032 395.937,300.4295 " fill="none" id="Scooter-Vehicle" style="stroke: #A80036; stroke-width: 1.0;"/><text fill="#000000" font-family="sans-serif" font-size="13" lengthAdjust="spacingAndGlyphs" textLength="64" x="288" y="283.9951">is a type of</text><polygon fill="#000000" points="355,277.1758,361,280.1758,355,283.1758,355,277.1758" style="stroke: #000000; stroke-width: 1.0;"/><text fill="#000000" font-family="sans-serif" font-size="13" lengthAdjust="spacingAndGlyphs" textLength="5" x="265.0794" y="300.5479">*</text><text fill="#000000" font-family="sans-serif" font-size="13" lengthAdjust="spacingAndGlyphs" textLength="7" x="380.8246" y="314.0584">1</text><!--MD5=[074a56c4439d52c76e1cc7a8f9d070a4]
link Vehicle to Battery--><path d="M522.209,309.6329 C566.479,311.1507 625.4,313.1708 667.861,314.6267 " fill="none" id="Vehicle-Battery" style="stroke: #A80036; stroke-width: 1.0;"/><text fill="#000000" font-family="sans-serif" font-size="13" lengthAdjust="spacingAndGlyphs" textLength="21" x="578" y="306.9951">has</text><polygon fill="#000000" points="602,300.1758,608,303.1758,602,306.1758,602,300.1758" style="stroke: #000000; stroke-width: 1.0;"/><text fill="#000000" font-family="sans-serif" font-size="13" lengthAdjust="spacingAndGlyphs" textLength="7" x="529.9222" y="324.3191">1</text><text fill="#000000" font-family="sans-serif" font-size="13" lengthAdjust="spacingAndGlyphs" textLength="7" x="652.9142" y="328.9456">1</text><!--MD5=[9793812679a856b96e8ba34e2675abcc]
link Vehicle to Pharmacy--><path d="M522.017,284.524 C556.523,271.3021 600.043,253.899 638,236.5 C651.833,230.159 666.636,222.693 679.926,215.73 " fill="none" id="Vehicle-Pharmacy" style="stroke: #A80036; stroke-width: 1.0;"/><text fill="#000000" font-family="sans-serif" font-size="13" lengthAdjust="spacingAndGlyphs" textLength="71" x="553" y="232.9951">belongs to a</text><polygon fill="#000000" points="627,226.1758,633,229.1758,627,232.1758,627,226.1758" style="stroke: #000000; stroke-width: 1.0;"/><text fill="#000000" font-family="sans-serif" font-size="13" lengthAdjust="spacingAndGlyphs" textLength="5" x="530.0019" y="296.2144">*</text><text fill="#000000" font-family="sans-serif" font-size="13" lengthAdjust="spacingAndGlyphs" textLength="7" x="665.1294" y="234.4675">1</text><!--MD5=[89baec1bfb4a213750f7c61516e0a0f1]
link Pharmacy to Address--><path d="M767.475,198.579 C799.527,203.114 843.463,209.329 877.498,214.144 " fill="none" id="Pharmacy-Address" style="stroke: #A80036; stroke-width: 1.0;"/><text fill="#000000" font-family="sans-serif" font-size="13" lengthAdjust="spacingAndGlyphs" textLength="21" x="810" y="200.9951">has</text><polygon fill="#000000" points="834,194.1758,840,197.1758,834,200.1758,834,194.1758" style="stroke: #000000; stroke-width: 1.0;"/><text fill="#000000" font-family="sans-serif" font-size="13" lengthAdjust="spacingAndGlyphs" textLength="7" x="775.0413" y="214.3852">1</text><text fill="#000000" font-family="sans-serif" font-size="13" lengthAdjust="spacingAndGlyphs" textLength="7" x="862.5524" y="227.7648">1</text><!--MD5=[e7daa03d92f0a94af078cf78578db78d]
link Pharmacy to ScooterPark--><path d="M767.475,171.117 C798.705,155.578 841.218,134.426 874.86,117.687 " fill="none" id="Pharmacy-ScooterPark" style="stroke: #A80036; stroke-width: 1.0;"/><text fill="#000000" font-family="sans-serif" font-size="13" lengthAdjust="spacingAndGlyphs" textLength="21" x="810" y="130.9951">has</text><polygon fill="#000000" points="834,124.1758,840,127.1758,834,130.1758,834,124.1758" style="stroke: #000000; stroke-width: 1.0;"/><text fill="#000000" font-family="sans-serif" font-size="13" lengthAdjust="spacingAndGlyphs" textLength="7" x="775.0413" y="182.5464">1</text><text fill="#000000" font-family="sans-serif" font-size="13" lengthAdjust="spacingAndGlyphs" textLength="7" x="859.9131" y="135.945">1</text><!--MD5=[6c03f80bb0eb412de4ede466470bd7f4]
link ScooterPark to ScooterChargingSlot--><path d="M986.215,78.696 C1015.04,72.479 1050.76,64.773 1081.82,58.072 " fill="none" id="ScooterPark-ScooterChargingSlot" style="stroke: #A80036; stroke-width: 1.0;"/><text fill="#000000" font-family="sans-serif" font-size="13" lengthAdjust="spacingAndGlyphs" textLength="21" x="1017" y="60.9951">has</text><polygon fill="#000000" points="1041,54.1758,1047,57.1758,1041,60.1758,1041,54.1758" style="stroke: #000000; stroke-width: 1.0;"/><text fill="#000000" font-family="sans-serif" font-size="13" lengthAdjust="spacingAndGlyphs" textLength="7" x="994.172" y="91.7146">1</text><text fill="#000000" font-family="sans-serif" font-size="13" lengthAdjust="spacingAndGlyphs" textLength="7" x="1066.9124" y="74.033">1</text><!--MD5=[8b5c72ddee54db66c8e770f45750c925]
link ScooterPark to ScooterParkingSlot--><path d="M986.215,102.304 C1016.45,108.827 1054.28,116.987 1086.36,123.908 " fill="none" id="ScooterPark-ScooterParkingSlot" style="stroke: #A80036; stroke-width: 1.0;"/><text fill="#000000" font-family="sans-serif" font-size="13" lengthAdjust="spacingAndGlyphs" textLength="21" x="1017" y="104.9951">has</text><polygon fill="#000000" points="1041,98.1758,1047,101.1758,1041,104.1758,1041,98.1758" style="stroke: #000000; stroke-width: 1.0;"/><text fill="#000000" font-family="sans-serif" font-size="13" lengthAdjust="spacingAndGlyphs" textLength="7" x="994.172" y="118.4949">1</text><text fill="#000000" font-family="sans-serif" font-size="13" lengthAdjust="spacingAndGlyphs" textLength="7" x="1071.4697" y="136.7103">1</text><!--MD5=[3d65456e2a4ac055b88a175b0c9c9d5f]
@startuml
skinparam classAttributeIconSize 0
hide methods
left to right direction

database Database {
}

class Pharmacy {
  -int id
  -String name
-   String email
}

class ScooterPark{
-   int maxSlotsNumber
}

class ScooterChargingSlot{
-   int id
-   float outputPower
}

class ScooterParkingSlot{
-   int id
}

class Scooter{
}

class Vehicle{
  -int id
  -String vehicleType
  -float potency
  -float weight
  -float maxPayload
  -String charngingStatus
}

class Battery{
  -int id
  -float batteryPerc
  -int batteryCapacity
  -float batteryVoltage
}

class Address{
  -double longitude
  -double latitude
  -String doorNumber
  -String streetName
  -String postalCode
  -String locality
  -String country
}



Database "1" - - "*" Pharmacy : has >
Database "1" - - "*" Scooter : has >
Scooter "*" - - "1" Vehicle : is a type of >
Vehicle "1" - - "1" Battery : has >
Vehicle "*" - - "1" Pharmacy : belongs to a >
Pharmacy "1" - - "1" Address : has >
Pharmacy "1" - - "1" ScooterPark : has >
ScooterPark "1" - - "1" ScooterChargingSlot : has >
ScooterPark "1" - - "1" ScooterParkingSlot : has >
@enduml

PlantUML version 1.2020.09(Sun May 10 11:51:06 BST 2020)
(GPL source distribution)
Java Runtime: OpenJDK Runtime Environment
JVM: OpenJDK 64-Bit Server VM
Java Version: 11.0.6+8-b765.40
Operating System: Windows 10
Default Encoding: Cp1252
Language: pt
Country: PT
--></g></svg>