<?xml version="1.0" encoding="UTF-8" standalone="no"?><svg xmlns="http://www.w3.org/2000/svg" xmlns:xlink="http://www.w3.org/1999/xlink" contentScriptType="application/ecmascript" contentStyleType="text/css" height="678px" preserveAspectRatio="none" style="width:563px;height:678px;" version="1.1" viewBox="0 0 563 678" width="563px" zoomAndPan="magnify"><defs><filter height="300%" id="fxncsdcmfhwo0" width="300%" x="-1" y="-1"><feGaussianBlur result="blurOut" stdDeviation="2.0"/><feColorMatrix in="blurOut" result="blurOut2" type="matrix" values="0 0 0 0 0 0 0 0 0 0 0 0 0 0 0 0 0 0 .4 0"/><feOffset dx="4.0" dy="4.0" in="blurOut2" result="blurOut3"/><feBlend in="SourceGraphic" in2="blurOut3" mode="normal"/></filter></defs><g><!--MD5=[31a99318d73d92502100859279ac7629]
class PotApplication--><rect codeLine="3" fill="#FEFECE" filter="url(#fxncsdcmfhwo0)" height="75.6719" id="PotApplication" style="stroke: #A80036; stroke-width: 1.5;" width="116" x="7" y="274"/><ellipse cx="24.7" cy="290" fill="#ADD1B2" rx="11" ry="11" style="stroke: #A80036; stroke-width: 1.0;"/><path d="M26.7,286.5 Q26.9031,286 27.1375,285.75 Q27.3719,285.5 27.6375,285.5 Q28.1063,285.5 28.4031,285.7813 Q28.7,286.0625 28.7,286.7188 L28.7,288.2813 Q28.7,288.9375 28.4188,289.2188 Q28.1375,289.5 27.7,289.5 Q27.3094,289.5 27.0594,289.3281 Q26.8094,289.1563 26.7,288.7031 Q26.6531,288.3906 26.4813,288.2188 Q26.1688,287.8906 25.6063,287.7031 Q25.0438,287.5 24.4813,287.5 Q23.7781,287.5 23.1844,287.7813 Q22.6063,288.0625 22.1531,288.6875 Q21.7,289.3125 21.7,290.1719 L21.7,291.0938 Q21.7,292.125 22.5438,292.8125 Q23.3875,293.5 24.8875,293.5 Q25.7781,293.5 26.4031,293.2969 Q26.7625,293.1875 27.1688,292.8281 Q27.4344,292.625 27.575,292.5625 Q27.7156,292.5 27.8875,292.5 Q28.2156,292.5 28.45,292.7656 Q28.7,293.0156 28.7,293.375 Q28.7,293.7188 28.3563,294.125 Q27.8563,294.7188 27.0594,295.0469 Q26.0125,295.5 24.7313,295.5 Q23.2313,295.5 22.0281,294.9063 Q21.0594,294.4375 20.3719,293.4219 Q19.7,292.4063 19.7,291.2031 L19.7,290.1094 Q19.7,288.8594 20.2938,287.7656 Q20.9031,286.6719 21.95,286.0938 Q23.0125,285.5 24.2,285.5 Q24.9188,285.5 25.5438,285.75 Q26.1688,286 26.7,286.5 Z " fill="#000000"/><text fill="#000000" font-family="sans-serif" font-size="12" lengthAdjust="spacingAndGlyphs" textLength="78" x="39.3" y="294.9102">PotApplication</text><line style="stroke: #A80036; stroke-width: 1.5;" x1="8" x2="122" y1="306" y2="306"/><line style="stroke: #A80036; stroke-width: 1.5;" x1="8" x2="122" y1="314" y2="314"/><text fill="#000000" font-family="sans-serif" font-size="11" lengthAdjust="spacingAndGlyphs" textLength="99" x="13" y="329.4189">+static getInstance()</text><text fill="#000000" font-family="sans-serif" font-size="11" lengthAdjust="spacingAndGlyphs" textLength="104" x="13" y="343.2549">+getCurrentSession()</text><!--MD5=[c5b08e60048ef1bcd788d24cf324082e]
class UserSession--><rect codeLine="9" fill="#FEFECE" filter="url(#fxncsdcmfhwo0)" height="61.8359" id="UserSession" style="stroke: #A80036; stroke-width: 1.5;" width="105" x="158.5" y="281"/><ellipse cx="173.5" cy="297" fill="#ADD1B2" rx="11" ry="11" style="stroke: #A80036; stroke-width: 1.0;"/><path d="M175.5,293.5 Q175.7031,293 175.9375,292.75 Q176.1719,292.5 176.4375,292.5 Q176.9063,292.5 177.2031,292.7813 Q177.5,293.0625 177.5,293.7188 L177.5,295.2813 Q177.5,295.9375 177.2188,296.2188 Q176.9375,296.5 176.5,296.5 Q176.1094,296.5 175.8594,296.3281 Q175.6094,296.1563 175.5,295.7031 Q175.4531,295.3906 175.2813,295.2188 Q174.9688,294.8906 174.4063,294.7031 Q173.8438,294.5 173.2813,294.5 Q172.5781,294.5 171.9844,294.7813 Q171.4063,295.0625 170.9531,295.6875 Q170.5,296.3125 170.5,297.1719 L170.5,298.0938 Q170.5,299.125 171.3438,299.8125 Q172.1875,300.5 173.6875,300.5 Q174.5781,300.5 175.2031,300.2969 Q175.5625,300.1875 175.9688,299.8281 Q176.2344,299.625 176.375,299.5625 Q176.5156,299.5 176.6875,299.5 Q177.0156,299.5 177.25,299.7656 Q177.5,300.0156 177.5,300.375 Q177.5,300.7188 177.1563,301.125 Q176.6563,301.7188 175.8594,302.0469 Q174.8125,302.5 173.5313,302.5 Q172.0313,302.5 170.8281,301.9063 Q169.8594,301.4375 169.1719,300.4219 Q168.5,299.4063 168.5,298.2031 L168.5,297.1094 Q168.5,295.8594 169.0938,294.7656 Q169.7031,293.6719 170.75,293.0938 Q171.8125,292.5 173,292.5 Q173.7188,292.5 174.3438,292.75 Q174.9688,293 175.5,293.5 Z " fill="#000000"/><text fill="#000000" font-family="sans-serif" font-size="12" lengthAdjust="spacingAndGlyphs" textLength="73" x="187.5" y="301.9102">UserSession</text><line style="stroke: #A80036; stroke-width: 1.5;" x1="159.5" x2="262.5" y1="313" y2="313"/><line style="stroke: #A80036; stroke-width: 1.5;" x1="159.5" x2="262.5" y1="321" y2="321"/><text fill="#000000" font-family="sans-serif" font-size="11" lengthAdjust="spacingAndGlyphs" textLength="76" x="164.5" y="336.4189">+getEmailUser()</text><!--MD5=[90ee25e7cb43e177c619cc29814f7653]
class KnowDeliveryUI--><rect codeLine="13" fill="#FEFECE" filter="url(#fxncsdcmfhwo0)" height="48" id="KnowDeliveryUI" style="stroke: #A80036; stroke-width: 1.5;" width="118" x="152" y="7"/><ellipse cx="167" cy="23" fill="#ADD1B2" rx="11" ry="11" style="stroke: #A80036; stroke-width: 1.0;"/><path d="M169,19.5 Q169.2031,19 169.4375,18.75 Q169.6719,18.5 169.9375,18.5 Q170.4063,18.5 170.7031,18.7813 Q171,19.0625 171,19.7188 L171,21.2813 Q171,21.9375 170.7188,22.2188 Q170.4375,22.5 170,22.5 Q169.6094,22.5 169.3594,22.3281 Q169.1094,22.1563 169,21.7031 Q168.9531,21.3906 168.7813,21.2188 Q168.4688,20.8906 167.9063,20.7031 Q167.3438,20.5 166.7813,20.5 Q166.0781,20.5 165.4844,20.7813 Q164.9063,21.0625 164.4531,21.6875 Q164,22.3125 164,23.1719 L164,24.0938 Q164,25.125 164.8438,25.8125 Q165.6875,26.5 167.1875,26.5 Q168.0781,26.5 168.7031,26.2969 Q169.0625,26.1875 169.4688,25.8281 Q169.7344,25.625 169.875,25.5625 Q170.0156,25.5 170.1875,25.5 Q170.5156,25.5 170.75,25.7656 Q171,26.0156 171,26.375 Q171,26.7188 170.6563,27.125 Q170.1563,27.7188 169.3594,28.0469 Q168.3125,28.5 167.0313,28.5 Q165.5313,28.5 164.3281,27.9063 Q163.3594,27.4375 162.6719,26.4219 Q162,25.4063 162,24.2031 L162,23.1094 Q162,21.8594 162.5938,20.7656 Q163.2031,19.6719 164.25,19.0938 Q165.3125,18.5 166.5,18.5 Q167.2188,18.5 167.8438,18.75 Q168.4688,19 169,19.5 Z " fill="#000000"/><text fill="#000000" font-family="sans-serif" font-size="12" lengthAdjust="spacingAndGlyphs" textLength="86" x="181" y="27.9102">KnowDeliveryUI</text><line style="stroke: #A80036; stroke-width: 1.5;" x1="153" x2="269" y1="39" y2="39"/><line style="stroke: #A80036; stroke-width: 1.5;" x1="153" x2="269" y1="47" y2="47"/><!--MD5=[fcb5adf99831ef2bf308f51382f66a48]
class KnowDeliveryController--><rect codeLine="17" fill="#FEFECE" filter="url(#fxncsdcmfhwo0)" height="89.5078" id="KnowDeliveryController" style="stroke: #A80036; stroke-width: 1.5;" width="160" x="131" y="116"/><ellipse cx="146" cy="132" fill="#ADD1B2" rx="11" ry="11" style="stroke: #A80036; stroke-width: 1.0;"/><path d="M148,128.5 Q148.2031,128 148.4375,127.75 Q148.6719,127.5 148.9375,127.5 Q149.4063,127.5 149.7031,127.7813 Q150,128.0625 150,128.7188 L150,130.2813 Q150,130.9375 149.7188,131.2188 Q149.4375,131.5 149,131.5 Q148.6094,131.5 148.3594,131.3281 Q148.1094,131.1563 148,130.7031 Q147.9531,130.3906 147.7813,130.2188 Q147.4688,129.8906 146.9063,129.7031 Q146.3438,129.5 145.7813,129.5 Q145.0781,129.5 144.4844,129.7813 Q143.9063,130.0625 143.4531,130.6875 Q143,131.3125 143,132.1719 L143,133.0938 Q143,134.125 143.8438,134.8125 Q144.6875,135.5 146.1875,135.5 Q147.0781,135.5 147.7031,135.2969 Q148.0625,135.1875 148.4688,134.8281 Q148.7344,134.625 148.875,134.5625 Q149.0156,134.5 149.1875,134.5 Q149.5156,134.5 149.75,134.7656 Q150,135.0156 150,135.375 Q150,135.7188 149.6563,136.125 Q149.1563,136.7188 148.3594,137.0469 Q147.3125,137.5 146.0313,137.5 Q144.5313,137.5 143.3281,136.9063 Q142.3594,136.4375 141.6719,135.4219 Q141,134.4063 141,133.2031 L141,132.1094 Q141,130.8594 141.5938,129.7656 Q142.2031,128.6719 143.25,128.0938 Q144.3125,127.5 145.5,127.5 Q146.2188,127.5 146.8438,127.75 Q147.4688,128 148,128.5 Z " fill="#000000"/><text fill="#000000" font-family="sans-serif" font-size="12" lengthAdjust="spacingAndGlyphs" textLength="128" x="160" y="136.9102">KnowDeliveryController</text><line style="stroke: #A80036; stroke-width: 1.5;" x1="132" x2="290" y1="148" y2="148"/><line style="stroke: #A80036; stroke-width: 1.5;" x1="132" x2="290" y1="156" y2="156"/><text fill="#000000" font-family="sans-serif" font-size="11" lengthAdjust="spacingAndGlyphs" textLength="82" x="137" y="171.4189">+getCourierInfo()</text><text fill="#000000" font-family="sans-serif" font-size="11" lengthAdjust="spacingAndGlyphs" textLength="68" x="137" y="185.2549">+getPlatform()</text><text fill="#000000" font-family="sans-serif" font-size="11" lengthAdjust="spacingAndGlyphs" textLength="93" x="137" y="199.0908">+getOrderByCour()</text><!--MD5=[99b8db98afdc2c8404e39242ef4c1e65]
class Platform--><rect codeLine="23" fill="#FEFECE" filter="url(#fxncsdcmfhwo0)" height="89.5078" id="Platform" style="stroke: #A80036; stroke-width: 1.5;" width="161" x="298.5" y="267"/><ellipse cx="351.75" cy="283" fill="#ADD1B2" rx="11" ry="11" style="stroke: #A80036; stroke-width: 1.0;"/><path d="M353.75,279.5 Q353.9531,279 354.1875,278.75 Q354.4219,278.5 354.6875,278.5 Q355.1563,278.5 355.4531,278.7813 Q355.75,279.0625 355.75,279.7188 L355.75,281.2813 Q355.75,281.9375 355.4688,282.2188 Q355.1875,282.5 354.75,282.5 Q354.3594,282.5 354.1094,282.3281 Q353.8594,282.1563 353.75,281.7031 Q353.7031,281.3906 353.5313,281.2188 Q353.2188,280.8906 352.6563,280.7031 Q352.0938,280.5 351.5313,280.5 Q350.8281,280.5 350.2344,280.7813 Q349.6563,281.0625 349.2031,281.6875 Q348.75,282.3125 348.75,283.1719 L348.75,284.0938 Q348.75,285.125 349.5938,285.8125 Q350.4375,286.5 351.9375,286.5 Q352.8281,286.5 353.4531,286.2969 Q353.8125,286.1875 354.2188,285.8281 Q354.4844,285.625 354.625,285.5625 Q354.7656,285.5 354.9375,285.5 Q355.2656,285.5 355.5,285.7656 Q355.75,286.0156 355.75,286.375 Q355.75,286.7188 355.4063,287.125 Q354.9063,287.7188 354.1094,288.0469 Q353.0625,288.5 351.7813,288.5 Q350.2813,288.5 349.0781,287.9063 Q348.1094,287.4375 347.4219,286.4219 Q346.75,285.4063 346.75,284.2031 L346.75,283.1094 Q346.75,281.8594 347.3438,280.7656 Q347.9531,279.6719 349,279.0938 Q350.0625,278.5 351.25,278.5 Q351.9688,278.5 352.5938,278.75 Q353.2188,279 353.75,279.5 Z " fill="#000000"/><text fill="#000000" font-family="sans-serif" font-size="12" lengthAdjust="spacingAndGlyphs" textLength="46" x="372.25" y="287.9102">Platform</text><line style="stroke: #A80036; stroke-width: 1.5;" x1="299.5" x2="458.5" y1="299" y2="299"/><text fill="#000000" font-family="sans-serif" font-size="11" lengthAdjust="spacingAndGlyphs" textLength="90" x="304.5" y="314.4189">-String designation</text><line style="stroke: #A80036; stroke-width: 1.5;" x1="299.5" x2="458.5" y1="320.8359" y2="320.8359"/><text fill="#000000" font-family="sans-serif" font-size="11" lengthAdjust="spacingAndGlyphs" textLength="149" x="304.5" y="336.2549">+CourierRegistry getCourReg()</text><text fill="#000000" font-family="sans-serif" font-size="11" lengthAdjust="spacingAndGlyphs" textLength="143" x="304.5" y="350.0908">+OrdersRegistry getOrdReg()</text><!--MD5=[73374f95368988e8705b5dc74d7ebb9b]
class CourierRegistry--><rect codeLine="28" fill="#FEFECE" filter="url(#fxncsdcmfhwo0)" height="61.8359" id="CourierRegistry" style="stroke: #A80036; stroke-width: 1.5;" width="125" x="262.5" y="435"/><ellipse cx="280.65" cy="451" fill="#ADD1B2" rx="11" ry="11" style="stroke: #A80036; stroke-width: 1.0;"/><path d="M282.65,447.5 Q282.8531,447 283.0875,446.75 Q283.3219,446.5 283.5875,446.5 Q284.0563,446.5 284.3531,446.7813 Q284.65,447.0625 284.65,447.7188 L284.65,449.2813 Q284.65,449.9375 284.3688,450.2188 Q284.0875,450.5 283.65,450.5 Q283.2594,450.5 283.0094,450.3281 Q282.7594,450.1563 282.65,449.7031 Q282.6031,449.3906 282.4313,449.2188 Q282.1188,448.8906 281.5563,448.7031 Q280.9938,448.5 280.4313,448.5 Q279.7281,448.5 279.1344,448.7813 Q278.5563,449.0625 278.1031,449.6875 Q277.65,450.3125 277.65,451.1719 L277.65,452.0938 Q277.65,453.125 278.4938,453.8125 Q279.3375,454.5 280.8375,454.5 Q281.7281,454.5 282.3531,454.2969 Q282.7125,454.1875 283.1188,453.8281 Q283.3844,453.625 283.525,453.5625 Q283.6656,453.5 283.8375,453.5 Q284.1656,453.5 284.4,453.7656 Q284.65,454.0156 284.65,454.375 Q284.65,454.7188 284.3063,455.125 Q283.8063,455.7188 283.0094,456.0469 Q281.9625,456.5 280.6813,456.5 Q279.1813,456.5 277.9781,455.9063 Q277.0094,455.4375 276.3219,454.4219 Q275.65,453.4063 275.65,452.2031 L275.65,451.1094 Q275.65,449.8594 276.2438,448.7656 Q276.8531,447.6719 277.9,447.0938 Q278.9625,446.5 280.15,446.5 Q280.8688,446.5 281.4938,446.75 Q282.1188,447 282.65,447.5 Z " fill="#000000"/><text fill="#000000" font-family="sans-serif" font-size="12" lengthAdjust="spacingAndGlyphs" textLength="86" x="295.35" y="455.9102">CourierRegistry</text><line style="stroke: #A80036; stroke-width: 1.5;" x1="263.5" x2="386.5" y1="467" y2="467"/><line style="stroke: #A80036; stroke-width: 1.5;" x1="263.5" x2="386.5" y1="475" y2="475"/><text fill="#000000" font-family="sans-serif" font-size="11" lengthAdjust="spacingAndGlyphs" textLength="113" x="268.5" y="490.4189">+getCourByEmail(email)</text><!--MD5=[973a78770e68676c0fe706987d51f3f8]
class OrdersRegistry--><rect codeLine="32" fill="#FEFECE" filter="url(#fxncsdcmfhwo0)" height="61.8359" id="OrdersRegistry" style="stroke: #A80036; stroke-width: 1.5;" width="115" x="422.5" y="435"/><ellipse cx="437.5" cy="451" fill="#ADD1B2" rx="11" ry="11" style="stroke: #A80036; stroke-width: 1.0;"/><path d="M439.5,447.5 Q439.7031,447 439.9375,446.75 Q440.1719,446.5 440.4375,446.5 Q440.9063,446.5 441.2031,446.7813 Q441.5,447.0625 441.5,447.7188 L441.5,449.2813 Q441.5,449.9375 441.2188,450.2188 Q440.9375,450.5 440.5,450.5 Q440.1094,450.5 439.8594,450.3281 Q439.6094,450.1563 439.5,449.7031 Q439.4531,449.3906 439.2813,449.2188 Q438.9688,448.8906 438.4063,448.7031 Q437.8438,448.5 437.2813,448.5 Q436.5781,448.5 435.9844,448.7813 Q435.4063,449.0625 434.9531,449.6875 Q434.5,450.3125 434.5,451.1719 L434.5,452.0938 Q434.5,453.125 435.3438,453.8125 Q436.1875,454.5 437.6875,454.5 Q438.5781,454.5 439.2031,454.2969 Q439.5625,454.1875 439.9688,453.8281 Q440.2344,453.625 440.375,453.5625 Q440.5156,453.5 440.6875,453.5 Q441.0156,453.5 441.25,453.7656 Q441.5,454.0156 441.5,454.375 Q441.5,454.7188 441.1563,455.125 Q440.6563,455.7188 439.8594,456.0469 Q438.8125,456.5 437.5313,456.5 Q436.0313,456.5 434.8281,455.9063 Q433.8594,455.4375 433.1719,454.4219 Q432.5,453.4063 432.5,452.2031 L432.5,451.1094 Q432.5,449.8594 433.0938,448.7656 Q433.7031,447.6719 434.75,447.0938 Q435.8125,446.5 437,446.5 Q437.7188,446.5 438.3438,446.75 Q438.9688,447 439.5,447.5 Z " fill="#000000"/><text fill="#000000" font-family="sans-serif" font-size="12" lengthAdjust="spacingAndGlyphs" textLength="83" x="451.5" y="455.9102">OrdersRegistry</text><line style="stroke: #A80036; stroke-width: 1.5;" x1="423.5" x2="536.5" y1="467" y2="467"/><line style="stroke: #A80036; stroke-width: 1.5;" x1="423.5" x2="536.5" y1="475" y2="475"/><text fill="#000000" font-family="sans-serif" font-size="11" lengthAdjust="spacingAndGlyphs" textLength="80" x="428.5" y="490.4189">+getOrdersList()</text><!--MD5=[ebbd0cb5ec92d3d9b4592232293e7fd4]
class OrdersList--><rect codeLine="36" fill="#FEFECE" filter="url(#fxncsdcmfhwo0)" height="89.5078" id="OrdersList" style="stroke: #A80036; stroke-width: 1.5;" width="139" x="410.5" y="575"/><ellipse cx="447.55" cy="591" fill="#ADD1B2" rx="11" ry="11" style="stroke: #A80036; stroke-width: 1.0;"/><path d="M449.55,587.5 Q449.7531,587 449.9875,586.75 Q450.2219,586.5 450.4875,586.5 Q450.9563,586.5 451.2531,586.7813 Q451.55,587.0625 451.55,587.7188 L451.55,589.2813 Q451.55,589.9375 451.2688,590.2188 Q450.9875,590.5 450.55,590.5 Q450.1594,590.5 449.9094,590.3281 Q449.6594,590.1563 449.55,589.7031 Q449.5031,589.3906 449.3313,589.2188 Q449.0188,588.8906 448.4563,588.7031 Q447.8938,588.5 447.3313,588.5 Q446.6281,588.5 446.0344,588.7813 Q445.4563,589.0625 445.0031,589.6875 Q444.55,590.3125 444.55,591.1719 L444.55,592.0938 Q444.55,593.125 445.3938,593.8125 Q446.2375,594.5 447.7375,594.5 Q448.6281,594.5 449.2531,594.2969 Q449.6125,594.1875 450.0188,593.8281 Q450.2844,593.625 450.425,593.5625 Q450.5656,593.5 450.7375,593.5 Q451.0656,593.5 451.3,593.7656 Q451.55,594.0156 451.55,594.375 Q451.55,594.7188 451.2063,595.125 Q450.7063,595.7188 449.9094,596.0469 Q448.8625,596.5 447.5813,596.5 Q446.0813,596.5 444.8781,595.9063 Q443.9094,595.4375 443.2219,594.4219 Q442.55,593.4063 442.55,592.2031 L442.55,591.1094 Q442.55,589.8594 443.1438,588.7656 Q443.7531,587.6719 444.8,587.0938 Q445.8625,586.5 447.05,586.5 Q447.7688,586.5 448.3938,586.75 Q449.0188,587 449.55,587.5 Z " fill="#000000"/><text fill="#000000" font-family="sans-serif" font-size="12" lengthAdjust="spacingAndGlyphs" textLength="58" x="466.45" y="595.9102">OrdersList</text><line style="stroke: #A80036; stroke-width: 1.5;" x1="411.5" x2="548.5" y1="607" y2="607"/><line style="stroke: #A80036; stroke-width: 1.5;" x1="411.5" x2="548.5" y1="615" y2="615"/><text fill="#000000" font-family="sans-serif" font-size="11" lengthAdjust="spacingAndGlyphs" textLength="127" x="416.5" y="630.4189">+getOrderByCourier(cour)</text><text fill="#000000" font-family="sans-serif" font-size="11" lengthAdjust="spacingAndGlyphs" textLength="82" x="416.5" y="644.2549">+hasOrder(cour)</text><text fill="#000000" font-family="sans-serif" font-size="11" lengthAdjust="spacingAndGlyphs" textLength="115" x="416.5" y="658.0908">+getOrderByCour(cour)</text><!--MD5=[fc2793c14a7c7bf58c04bfe679bc3bb7]
link KnowDeliveryUI to KnowDeliveryController--><path codeLine="42" d="M211,55.18 C211,70.59 211,91.42 211,110.45 " fill="none" id="KnowDeliveryUI-to-KnowDeliveryController" style="stroke: #A80036; stroke-width: 1.0; stroke-dasharray: 7.0,7.0;"/><polygon fill="#A80036" points="211,115.76,215,106.76,211,110.76,207,106.76,211,115.76" style="stroke: #A80036; stroke-width: 1.0;"/><!--MD5=[6209529509848a7f707f55795ba3429b]
link KnowDeliveryController to Platform--><path codeLine="43" d="M260.95,206.3 C281.26,224.31 304.76,245.15 325.42,263.48 " fill="none" id="KnowDeliveryController-to-Platform" style="stroke: #A80036; stroke-width: 1.0; stroke-dasharray: 7.0,7.0;"/><polygon fill="#A80036" points="329.24,266.87,325.1538,257.9088,325.4967,263.5553,319.8502,263.8982,329.24,266.87" style="stroke: #A80036; stroke-width: 1.0;"/><!--MD5=[febba546ac41c7f9a4452f293c52fe24]
link KnowDeliveryController to PotApplication--><path codeLine="44" d="M167.59,206.3 C147.89,226.41 124.73,250.04 105.4,269.77 " fill="none" id="KnowDeliveryController-to-PotApplication" style="stroke: #A80036; stroke-width: 1.0; stroke-dasharray: 7.0,7.0;"/><polygon fill="#A80036" points="101.59,273.66,110.7462,270.0318,105.0896,270.0889,105.0325,264.4324,101.59,273.66" style="stroke: #A80036; stroke-width: 1.0;"/><!--MD5=[2d4c702808eedbb15de1c6ef476571c7]
link KnowDeliveryController to UserSession--><path codeLine="45" d="M211,206.3 C211,228.44 211,254.87 211,275.64 " fill="none" id="KnowDeliveryController-to-UserSession" style="stroke: #A80036; stroke-width: 1.0; stroke-dasharray: 7.0,7.0;"/><polygon fill="#A80036" points="211,280.79,215,271.79,211,275.79,207,271.79,211,280.79" style="stroke: #A80036; stroke-width: 1.0;"/><!--MD5=[11c746fa5d8049d8bd700511044558de]
link Platform to CourierRegistry--><path codeLine="46" d="M363.24,357.37 C355.02,380.51 345.11,408.41 337.43,430 " fill="none" id="Platform-to-CourierRegistry" style="stroke: #A80036; stroke-width: 1.0;"/><polygon fill="#A80036" points="335.73,434.79,342.5075,427.644,337.4008,430.0774,334.9674,424.9707,335.73,434.79" style="stroke: #A80036; stroke-width: 1.0;"/><text fill="#000000" font-family="sans-serif" font-size="13" lengthAdjust="spacingAndGlyphs" textLength="21" x="353" y="401.4951">has</text><text fill="#000000" font-family="sans-serif" font-size="13" lengthAdjust="spacingAndGlyphs" textLength="7" x="353.6519" y="378.0934">1</text><text fill="#000000" font-family="sans-serif" font-size="13" lengthAdjust="spacingAndGlyphs" textLength="7" x="330.2212" y="424.2512">1</text><!--MD5=[cf5883c02043349bf5b8088f08dcf729]
link Platform to OrdersRegistry--><path codeLine="47" d="M408.48,357.37 C423.99,380.7 442.71,408.87 457.1,430.54 " fill="none" id="Platform-to-OrdersRegistry" style="stroke: #A80036; stroke-width: 1.0;"/><polygon fill="#A80036" points="459.92,434.79,458.2559,425.0827,457.1465,430.6297,451.5995,429.5203,459.92,434.79" style="stroke: #A80036; stroke-width: 1.0;"/><text fill="#000000" font-family="sans-serif" font-size="13" lengthAdjust="spacingAndGlyphs" textLength="21" x="440" y="401.4951">has</text><text fill="#000000" font-family="sans-serif" font-size="13" lengthAdjust="spacingAndGlyphs" textLength="7" x="404.9711" y="378.0934">1</text><text fill="#000000" font-family="sans-serif" font-size="13" lengthAdjust="spacingAndGlyphs" textLength="7" x="448.0566" y="424.2512">1</text><!--MD5=[88610323b6c01dda62f313d2f436ab35]
link OrdersRegistry to OrdersList--><path codeLine="48" d="M480,497.03 C480,517.79 480,545.88 480,569.87 " fill="none" id="OrdersRegistry-to-OrdersList" style="stroke: #A80036; stroke-width: 1.0;"/><polygon fill="#A80036" points="480,574.92,484,565.92,480,569.92,476,565.92,480,574.92" style="stroke: #A80036; stroke-width: 1.0;"/><text fill="#000000" font-family="sans-serif" font-size="13" lengthAdjust="spacingAndGlyphs" textLength="21" x="481" y="541.4951">has</text><text fill="#000000" font-family="sans-serif" font-size="13" lengthAdjust="spacingAndGlyphs" textLength="7" x="472.3109" y="518.2599">1</text><text fill="#000000" font-family="sans-serif" font-size="13" lengthAdjust="spacingAndGlyphs" textLength="7" x="472.4422" y="564.0227">1</text><!--MD5=[a63d0fc2c4a6b610ccd4dc6c05906305]
@startuml
skinparam classAttributeIconSize 0

class PotApplication
{
  +static getInstance()
  +getCurrentSession()
}

class UserSession
{
  +getEmailUser()
}
class KnowDeliveryUI{

}

class KnowDeliveryController{
+getCourierInfo()
+getPlatform()
+getOrderByCour()
}

class Platform {
  -String designation
  +CourierRegistry getCourReg()
  +OrdersRegistry getOrdReg()
}
class CourierRegistry{
+getCourByEmail(email)
}

class OrdersRegistry{
+getOrdersList()
}

class OrdersList{
+getOrderByCourier(cour)
+hasOrder(cour)
+getOrderByCour(cour)
}

KnowDeliveryUI ..> KnowDeliveryController
KnowDeliveryController ..> Platform
KnowDeliveryController ..> PotApplication
KnowDeliveryController ..> UserSession
Platform "1" - -> "1" CourierRegistry : has
Platform "1" - -> "1" OrdersRegistry : has
OrdersRegistry "1" - -> "1" OrdersList : has

@enduml

PlantUML version 1.2020.20(Sat Nov 21 10:02:45 GMT 2020)
(GPL source distribution)
Java Runtime: OpenJDK Runtime Environment
JVM: OpenJDK 64-Bit Server VM
Default Encoding: Cp1252
Language: pt
Country: PT
--></g></svg>