<?xml version="1.0" encoding="UTF-8" standalone="no"?><svg xmlns="http://www.w3.org/2000/svg" xmlns:xlink="http://www.w3.org/1999/xlink" contentScriptType="application/ecmascript" contentStyleType="text/css" height="805px" preserveAspectRatio="none" style="width:1379px;height:805px;" version="1.1" viewBox="0 0 1379 805" width="1379px" zoomAndPan="magnify"><defs><filter height="300%" id="fv4rlghc8qjr3" width="300%" x="-1" y="-1"><feGaussianBlur result="blurOut" stdDeviation="2.0"/><feColorMatrix in="blurOut" result="blurOut2" type="matrix" values="0 0 0 0 0 0 0 0 0 0 0 0 0 0 0 0 0 0 .4 0"/><feOffset dx="4.0" dy="4.0" in="blurOut2" result="blurOut3"/><feBlend in="SourceGraphic" in2="blurOut3" mode="normal"/></filter></defs><g><rect fill="#FFFFFF" filter="url(#fv4rlghc8qjr3)" height="666.6797" style="stroke:#A80036;stroke-width:1.0;" width="10" x="47.5" y="99.6094"/><rect fill="#FFFFFF" filter="url(#fv4rlghc8qjr3)" height="30.3516" style="stroke:#A80036;stroke-width:1.0;" width="10" x="361.5" y="121.9609"/><rect fill="#FFFFFF" filter="url(#fv4rlghc8qjr3)" height="583.625" style="stroke:#A80036;stroke-width:1.0;" width="10" x="361.5" y="182.6641"/><rect fill="#FFFFFF" filter="url(#fv4rlghc8qjr3)" height="429.0313" style="stroke:#A80036;stroke-width:1.0;" width="10" x="527.5" y="213.0156"/><rect fill="#FFFFFF" filter="url(#fv4rlghc8qjr3)" height="36.6094" style="stroke:#A80036;stroke-width:1.0;" width="10" x="705.5" y="253.3672"/><rect fill="#FFFFFF" filter="url(#fv4rlghc8qjr3)" height="129.0547" style="stroke:#A80036;stroke-width:1.0;" width="10" x="705.5" y="512.9922"/><rect fill="#FFFFFF" filter="url(#fv4rlghc8qjr3)" height="30" style="stroke:#A80036;stroke-width:1.0;" width="10" x="918.5" y="612.0469"/><rect fill="#FFFFFF" filter="url(#fv4rlghc8qjr3)" height="30" style="stroke:#A80036;stroke-width:1.0;" width="10" x="1045" y="336.5859"/><rect fill="#FFFFFF" filter="url(#fv4rlghc8qjr3)" height="60.3516" style="stroke:#A80036;stroke-width:1.0;" width="10" x="1185" y="396.9375"/><rect fill="#FFFFFF" filter="url(#fv4rlghc8qjr3)" height="30" style="stroke:#A80036;stroke-width:1.0;" width="10" x="1315.5" y="427.2891"/><rect fill="#FFFFFF" filter="url(#fv4rlghc8qjr3)" height="309" style="stroke:#000000;stroke-width:2.0;" width="992" x="10" y="472.2891"/><rect fill="#FFFFFF" filter="url(#fv4rlghc8qjr3)" height="202.9453" style="stroke:#000000;stroke-width:2.0;" width="972" x="20" y="571.3438"/><rect fill="#FFFFFF" height="46.1875" style="stroke:none;stroke-width:1.0;" width="972" x="20" y="728.1016"/><line style="stroke:#A80036;stroke-width:1.0;stroke-dasharray:5.0,5.0;" x1="52" x2="52" y1="89.6094" y2="798.2891"/><line style="stroke:#A80036;stroke-width:1.0;stroke-dasharray:5.0,5.0;" x1="366" x2="366" y1="89.6094" y2="798.2891"/><line style="stroke:#A80036;stroke-width:1.0;stroke-dasharray:5.0,5.0;" x1="532" x2="532" y1="89.6094" y2="798.2891"/><line style="stroke:#A80036;stroke-width:1.0;stroke-dasharray:5.0,5.0;" x1="710" x2="710" y1="254.3203" y2="798.2891"/><line style="stroke:#A80036;stroke-width:1.0;stroke-dasharray:5.0,5.0;" x1="923" x2="923" y1="300.9297" y2="798.2891"/><line style="stroke:#A80036;stroke-width:1.0;stroke-dasharray:5.0,5.0;" x1="1050" x2="1050" y1="89.6094" y2="798.2891"/><line style="stroke:#A80036;stroke-width:1.0;stroke-dasharray:5.0,5.0;" x1="1190" x2="1190" y1="89.6094" y2="798.2891"/><line style="stroke:#A80036;stroke-width:1.0;stroke-dasharray:5.0,5.0;" x1="1320" x2="1320" y1="89.6094" y2="798.2891"/><text fill="#000000" font-family="sans-serif" font-size="14" lengthAdjust="spacing" textLength="39" x="30" y="86.5332">Admin</text><ellipse cx="52.5" cy="15" fill="#FEFECE" filter="url(#fv4rlghc8qjr3)" rx="8" ry="8" style="stroke:#A80036;stroke-width:2.0;"/><path d="M52.5,23 L52.5,50 M39.5,31 L65.5,31 M52.5,50 L39.5,65 M52.5,50 L65.5,65 " fill="none" filter="url(#fv4rlghc8qjr3)" style="stroke:#A80036;stroke-width:2.0;"/><rect fill="#FEFECE" filter="url(#fv4rlghc8qjr3)" height="31.6094" style="stroke:#A80036;stroke-width:1.5;" width="127" x="301" y="53"/><text fill="#000000" font-family="sans-serif" font-size="14" lengthAdjust="spacing" textLength="113" x="308" y="74.5332">RemoveProductUI</text><rect fill="#FEFECE" filter="url(#fv4rlghc8qjr3)" height="31.6094" style="stroke:#A80036;stroke-width:1.5;" width="177" x="442" y="53"/><text fill="#000000" font-family="sans-serif" font-size="14" lengthAdjust="spacing" textLength="163" x="449" y="74.5332">RemoveProductController</text><rect fill="#FEFECE" filter="url(#fv4rlghc8qjr3)" height="31.6094" style="stroke:#A80036;stroke-width:1.5;" width="112" x="992" y="53"/><text fill="#000000" font-family="sans-serif" font-size="14" lengthAdjust="spacing" textLength="98" x="999" y="74.5332">ApplicationPOT</text><rect fill="#FEFECE" filter="url(#fv4rlghc8qjr3)" height="31.6094" style="stroke:#A80036;stroke-width:1.5;" width="140" x="1118" y="53"/><text fill="#000000" font-family="sans-serif" font-size="14" lengthAdjust="spacing" textLength="126" x="1125" y="74.5332">app:ApplicationPOT</text><rect fill="#FEFECE" filter="url(#fv4rlghc8qjr3)" height="31.6094" style="stroke:#A80036;stroke-width:1.5;" width="93" x="1272" y="53"/><text fill="#000000" font-family="sans-serif" font-size="14" lengthAdjust="spacing" textLength="79" x="1279" y="74.5332">UserSession</text><rect fill="#FFFFFF" filter="url(#fv4rlghc8qjr3)" height="666.6797" style="stroke:#A80036;stroke-width:1.0;" width="10" x="47.5" y="99.6094"/><rect fill="#FFFFFF" filter="url(#fv4rlghc8qjr3)" height="30.3516" style="stroke:#A80036;stroke-width:1.0;" width="10" x="361.5" y="121.9609"/><rect fill="#FFFFFF" filter="url(#fv4rlghc8qjr3)" height="583.625" style="stroke:#A80036;stroke-width:1.0;" width="10" x="361.5" y="182.6641"/><rect fill="#FFFFFF" filter="url(#fv4rlghc8qjr3)" height="429.0313" style="stroke:#A80036;stroke-width:1.0;" width="10" x="527.5" y="213.0156"/><rect fill="#FFFFFF" filter="url(#fv4rlghc8qjr3)" height="36.6094" style="stroke:#A80036;stroke-width:1.0;" width="10" x="705.5" y="253.3672"/><rect fill="#FFFFFF" filter="url(#fv4rlghc8qjr3)" height="129.0547" style="stroke:#A80036;stroke-width:1.0;" width="10" x="705.5" y="512.9922"/><rect fill="#FFFFFF" filter="url(#fv4rlghc8qjr3)" height="30" style="stroke:#A80036;stroke-width:1.0;" width="10" x="918.5" y="612.0469"/><rect fill="#FFFFFF" filter="url(#fv4rlghc8qjr3)" height="30" style="stroke:#A80036;stroke-width:1.0;" width="10" x="1045" y="336.5859"/><rect fill="#FFFFFF" filter="url(#fv4rlghc8qjr3)" height="60.3516" style="stroke:#A80036;stroke-width:1.0;" width="10" x="1185" y="396.9375"/><rect fill="#FFFFFF" filter="url(#fv4rlghc8qjr3)" height="30" style="stroke:#A80036;stroke-width:1.0;" width="10" x="1315.5" y="427.2891"/><polygon fill="#A80036" points="349.5,117.9609,359.5,121.9609,349.5,125.9609,353.5,121.9609" style="stroke:#A80036;stroke-width:1.0;"/><line style="stroke:#A80036;stroke-width:1.0;" x1="57.5" x2="355.5" y1="121.9609" y2="121.9609"/><text fill="#000000" font-family="sans-serif" font-size="13" font-weight="bold" lengthAdjust="spacing" textLength="7" x="64.5" y="117.1045">1</text><text fill="#000000" font-family="sans-serif" font-size="13" lengthAdjust="spacing" textLength="248" x="75.5" y="117.1045">Engages the remove product feature/button</text><polygon fill="#A80036" points="68.5,148.3125,58.5,152.3125,68.5,156.3125,64.5,152.3125" style="stroke:#A80036;stroke-width:1.0;"/><line style="stroke:#A80036;stroke-width:1.0;stroke-dasharray:2.0,2.0;" x1="62.5" x2="365.5" y1="152.3125" y2="152.3125"/><text fill="#000000" font-family="sans-serif" font-size="13" font-weight="bold" lengthAdjust="spacing" textLength="7" x="74.5" y="147.4561">2</text><text fill="#000000" font-family="sans-serif" font-size="13" lengthAdjust="spacing" textLength="225" x="85.5" y="147.4561">Asks for the id of the product to update</text><polygon fill="#A80036" points="349.5,178.6641,359.5,182.6641,349.5,186.6641,353.5,182.6641" style="stroke:#A80036;stroke-width:1.0;"/><line style="stroke:#A80036;stroke-width:1.0;" x1="57.5" x2="355.5" y1="182.6641" y2="182.6641"/><text fill="#000000" font-family="sans-serif" font-size="13" font-weight="bold" lengthAdjust="spacing" textLength="7" x="64.5" y="177.8076">3</text><text fill="#000000" font-family="sans-serif" font-size="13" lengthAdjust="spacing" textLength="118" x="75.5" y="177.8076">Gives the required id</text><polygon fill="#A80036" points="515.5,209.0156,525.5,213.0156,515.5,217.0156,519.5,213.0156" style="stroke:#A80036;stroke-width:1.0;"/><line style="stroke:#A80036;stroke-width:1.0;" x1="371.5" x2="521.5" y1="213.0156" y2="213.0156"/><text fill="#000000" font-family="sans-serif" font-size="13" font-weight="bold" lengthAdjust="spacing" textLength="7" x="378.5" y="208.1592">4</text><text fill="#000000" font-family="sans-serif" font-size="13" lengthAdjust="spacing" textLength="118" x="389.5" y="208.1592">removeProduct(intId)</text><polygon fill="#A80036" points="621,239.3672,631,243.3672,621,247.3672,625,243.3672" style="stroke:#A80036;stroke-width:1.0;"/><line style="stroke:#A80036;stroke-width:1.0;" x1="537.5" x2="627" y1="243.3672" y2="243.3672"/><text fill="#000000" font-family="sans-serif" font-size="13" font-weight="bold" lengthAdjust="spacing" textLength="7" x="544.5" y="238.5107">5</text><text fill="#000000" font-family="sans-serif" font-size="13" lengthAdjust="spacing" textLength="44" x="555.5" y="238.5107">create()</text><rect fill="#FEFECE" filter="url(#fv4rlghc8qjr3)" height="31.6094" style="stroke:#A80036;stroke-width:1.5;" width="151" x="633" y="221.0156"/><text fill="#000000" font-family="sans-serif" font-size="14" lengthAdjust="spacing" textLength="137" x="640" y="242.5488">pServ:ProductService</text><polygon fill="#A80036" points="853,285.9766,863,289.9766,853,293.9766,857,289.9766" style="stroke:#A80036;stroke-width:1.0;"/><line style="stroke:#A80036;stroke-width:1.0;" x1="710.5" x2="859" y1="289.9766" y2="289.9766"/><text fill="#000000" font-family="sans-serif" font-size="13" font-weight="bold" lengthAdjust="spacing" textLength="7" x="717.5" y="285.1201">6</text><text fill="#000000" font-family="sans-serif" font-size="13" lengthAdjust="spacing" textLength="44" x="728.5" y="285.1201">create()</text><rect fill="#FEFECE" filter="url(#fv4rlghc8qjr3)" height="31.6094" style="stroke:#A80036;stroke-width:1.5;" width="113" x="865" y="267.625"/><text fill="#000000" font-family="sans-serif" font-size="14" lengthAdjust="spacing" textLength="99" x="872" y="289.1582">pDB:ProductDB</text><polygon fill="#A80036" points="1033,332.5859,1043,336.5859,1033,340.5859,1037,336.5859" style="stroke:#A80036;stroke-width:1.0;"/><line style="stroke:#A80036;stroke-width:1.0;" x1="537.5" x2="1039" y1="336.5859" y2="336.5859"/><text fill="#000000" font-family="sans-serif" font-size="13" font-weight="bold" lengthAdjust="spacing" textLength="7" x="544.5" y="331.7295">7</text><text fill="#000000" font-family="sans-serif" font-size="13" lengthAdjust="spacing" textLength="75" x="555.5" y="331.7295">getInstance()</text><polygon fill="#A80036" points="1173,392.9375,1183,396.9375,1173,400.9375,1177,396.9375" style="stroke:#A80036;stroke-width:1.0;"/><line style="stroke:#A80036;stroke-width:1.0;" x1="537.5" x2="1179" y1="396.9375" y2="396.9375"/><text fill="#000000" font-family="sans-serif" font-size="13" font-weight="bold" lengthAdjust="spacing" textLength="7" x="544.5" y="392.0811">8</text><text fill="#000000" font-family="sans-serif" font-size="13" lengthAdjust="spacing" textLength="115" x="555.5" y="392.0811">getCurrentSession()</text><polygon fill="#A80036" points="1303.5,423.2891,1313.5,427.2891,1303.5,431.2891,1307.5,427.2891" style="stroke:#A80036;stroke-width:1.0;"/><line style="stroke:#A80036;stroke-width:1.0;" x1="1195" x2="1309.5" y1="427.2891" y2="427.2891"/><text fill="#000000" font-family="sans-serif" font-size="13" font-weight="bold" lengthAdjust="spacing" textLength="7" x="1202" y="422.4326">9</text><text fill="#000000" font-family="sans-serif" font-size="13" lengthAdjust="spacing" textLength="52" x="1213" y="422.4326">getRole()</text><path d="M10,472.2891 L71,472.2891 L71,480.2891 L61,490.2891 L10,490.2891 L10,472.2891 " fill="#EEEEEE" style="stroke:#000000;stroke-width:1.0;"/><rect fill="none" height="309" style="stroke:#000000;stroke-width:2.0;" width="992" x="10" y="472.2891"/><text fill="#000000" font-family="sans-serif" font-size="13" font-weight="bold" lengthAdjust="spacing" textLength="16" x="25" y="486.7842">alt</text><text fill="#000000" font-family="sans-serif" font-size="11" font-weight="bold" lengthAdjust="spacing" textLength="210" x="86" y="485.708">[if user is authorized (if it's an admin)]</text><polygon fill="#A80036" points="693.5,508.9922,703.5,512.9922,693.5,516.9922,697.5,512.9922" style="stroke:#A80036;stroke-width:1.0;"/><line style="stroke:#A80036;stroke-width:1.0;" x1="537.5" x2="699.5" y1="512.9922" y2="512.9922"/><text fill="#000000" font-family="sans-serif" font-size="13" font-weight="bold" lengthAdjust="spacing" textLength="14" x="544.5" y="508.1357">10</text><text fill="#000000" font-family="sans-serif" font-size="13" lengthAdjust="spacing" textLength="118" x="562.5" y="508.1357">removeProduct(intId)</text><line style="stroke:#A80036;stroke-width:1.0;" x1="715.5" x2="757.5" y1="543.3438" y2="543.3438"/><line style="stroke:#A80036;stroke-width:1.0;" x1="757.5" x2="757.5" y1="543.3438" y2="556.3438"/><line style="stroke:#A80036;stroke-width:1.0;" x1="716.5" x2="757.5" y1="556.3438" y2="556.3438"/><polygon fill="#A80036" points="726.5,552.3438,716.5,556.3438,726.5,560.3438,722.5,556.3438" style="stroke:#A80036;stroke-width:1.0;"/><text fill="#000000" font-family="sans-serif" font-size="13" font-weight="bold" lengthAdjust="spacing" textLength="14" x="722.5" y="538.4873">11</text><text fill="#000000" font-family="sans-serif" font-size="13" lengthAdjust="spacing" textLength="85" x="740.5" y="538.4873">validateId(intId)</text><path d="M20,571.3438 L81,571.3438 L81,579.3438 L71,589.3438 L20,589.3438 L20,571.3438 " fill="#EEEEEE" style="stroke:#000000;stroke-width:1.0;"/><rect fill="none" height="202.9453" style="stroke:#000000;stroke-width:2.0;" width="972" x="20" y="571.3438"/><text fill="#000000" font-family="sans-serif" font-size="13" font-weight="bold" lengthAdjust="spacing" textLength="16" x="35" y="585.8389">alt</text><text fill="#000000" font-family="sans-serif" font-size="11" font-weight="bold" lengthAdjust="spacing" textLength="229" x="96" y="584.7627">[if the id given as input has a valid format]</text><polygon fill="#A80036" points="906.5,608.0469,916.5,612.0469,906.5,616.0469,910.5,612.0469" style="stroke:#A80036;stroke-width:1.0;"/><line style="stroke:#A80036;stroke-width:1.0;" x1="715.5" x2="912.5" y1="612.0469" y2="612.0469"/><text fill="#000000" font-family="sans-serif" font-size="13" font-weight="bold" lengthAdjust="spacing" textLength="14" x="722.5" y="607.1904">12</text><text fill="#000000" font-family="sans-serif" font-size="13" lengthAdjust="spacing" textLength="166" x="740.5" y="607.1904">removeProductFromDB(intId)</text><rect fill="#FFFFFF" filter="url(#fv4rlghc8qjr3)" height="42.7031" style="stroke:#000000;stroke-width:2.0;" width="126" x="862" y="650.0469"/><polygon fill="#EEEEEE" points="862,650.0469,924,650.0469,924,658.0469,914,668.0469,862,668.0469,862,650.0469" style="stroke:#000000;stroke-width:2.0;"/><text fill="#000000" font-family="sans-serif" font-size="13" font-weight="bold" lengthAdjust="spacing" textLength="17" x="875" y="665.542">ref</text><text fill="#000000" font-family="sans-serif" font-size="13" lengthAdjust="spacing" textLength="118" x="868" y="685.542">SD_CONNECTIONS</text><polygon fill="#A80036" points="68.5,716.1016,58.5,720.1016,68.5,724.1016,64.5,720.1016" style="stroke:#A80036;stroke-width:1.0;"/><line style="stroke:#A80036;stroke-width:1.0;stroke-dasharray:2.0,2.0;" x1="62.5" x2="360.5" y1="720.1016" y2="720.1016"/><text fill="#000000" font-family="sans-serif" font-size="13" font-weight="bold" lengthAdjust="spacing" textLength="14" x="74.5" y="715.2451">13</text><text fill="#000000" font-family="sans-serif" font-size="13" lengthAdjust="spacing" textLength="224" x="92.5" y="715.2451">Informs of the success of the operation</text><line style="stroke:#000000;stroke-width:1.0;stroke-dasharray:2.0,2.0;" x1="20" x2="992" y1="729.1016" y2="729.1016"/><text fill="#000000" font-family="sans-serif" font-size="11" font-weight="bold" lengthAdjust="spacing" textLength="186" x="25" y="740.5205">[if id does not have a valid format]</text><polygon fill="#A80036" points="63.5,762.2891,53.5,766.2891,63.5,770.2891,59.5,766.2891" style="stroke:#A80036;stroke-width:1.0;"/><line style="stroke:#A80036;stroke-width:1.0;" x1="57.5" x2="365.5" y1="766.2891" y2="766.2891"/><text fill="#000000" font-family="sans-serif" font-size="13" font-weight="bold" lengthAdjust="spacing" textLength="14" x="69.5" y="761.4326">14</text><text fill="#000000" font-family="sans-serif" font-size="13" lengthAdjust="spacing" textLength="262" x="87.5" y="761.4326">Informs that the operation was not successful</text><!--MD5=[e18c18043e1071a7bc2fdf34361d6aa8]
@startuml
autonumber
hide footbox

actor "Admin" as U

participant "RemoveProductUI" as UI
participant "RemoveProductController" as CTRL
participant "pServ:ProductService" as SER
participant "pDB:ProductDB" as DB
participant "ApplicationPOT" as APP
participant "app:ApplicationPOT" as APPP
participant "UserSession" as US

activate U
U -> UI : Engages the remove product feature/button
activate UI
UI - -> U : Asks for the id of the product to update
deactivate UI
U -> UI : Gives the required id
activate UI
UI -> CTRL : removeProduct(intId)
activate CTRL
CTRL -> SER** : create()
activate SER
SER -> DB** : create()
deactivate SER
CTRL -> APP : getInstance()
activate APP
deactivate APP
CTRL -> APPP : getCurrentSession()
activate APPP
APPP -> US : getRole()
activate US
deactivate US
deactivate APPP
alt if user is authorized (if it's an admin)
CTRL -> SER : removeProduct(intId)
activate SER
SER -> SER : validateId(intId)
alt if the id given as input has a valid format
SER -> DB : removeProductFromDB(intId)
activate DB
deactivate DB
ref over DB
SD_CONNECTIONS
end ref
deactivate SER
deactivate CTRL
deactivate CTRL
UI - -> U : Informs of the success of the operation
else if id does not have a valid format
UI -> U : Informs that the operation was not successful
deactivate UI
deactivate U
end alt
end alt

@enduml

PlantUML version 1.2021.00(Sun Jan 10 10:25:05 GMT 2021)
(GPL source distribution)
Java Runtime: OpenJDK Runtime Environment
JVM: OpenJDK 64-Bit Server VM
Default Encoding: Cp1252
Language: pt
Country: PT
--></g></svg>