<?xml version="1.0" encoding="UTF-8" standalone="no"?><svg xmlns="http://www.w3.org/2000/svg" xmlns:xlink="http://www.w3.org/1999/xlink" contentScriptType="application/ecmascript" contentStyleType="text/css" height="531px" preserveAspectRatio="none" style="width:1414px;height:531px;" version="1.1" viewBox="0 0 1414 531" width="1414px" zoomAndPan="magnify"><defs><filter height="300%" id="f8hr8vb3lp4zm" width="300%" x="-1" y="-1"><feGaussianBlur result="blurOut" stdDeviation="2.0"/><feColorMatrix in="blurOut" result="blurOut2" type="matrix" values="0 0 0 0 0 0 0 0 0 0 0 0 0 0 0 0 0 0 .4 0"/><feOffset dx="4.0" dy="4.0" in="blurOut2" result="blurOut3"/><feBlend in="SourceGraphic" in2="blurOut3" mode="normal"/></filter></defs><g><!--MD5=[fa1e3283224feb76407c84b7e90ed808]
entity Database--><path d="M6,240 C6,230 46.5,230 46.5,230 C46.5,230 87,230 87,240 L87,266.6094 C87,276.6094 46.5,276.6094 46.5,276.6094 C46.5,276.6094 6,276.6094 6,266.6094 L6,240 " fill="#FFFFFF" filter="url(#f8hr8vb3lp4zm)" style="stroke: #000000; stroke-width: 1.5;"/><path d="M6,240 C6,250 46.5,250 46.5,250 C46.5,250 87,250 87,240 " fill="none" style="stroke: #000000; stroke-width: 1.5;"/><text fill="#000000" font-family="sans-serif" font-size="14" lengthAdjust="spacingAndGlyphs" textLength="61" x="16" y="268.5332">Database</text><!--MD5=[7f2a9fafcebe4f099f71398fd3e2ed00]
class Pharmacy--><rect fill="#FEFECE" filter="url(#f8hr8vb3lp4zm)" height="81.5078" id="Pharmacy" style="stroke: #A80036; stroke-width: 1.5;" width="87" x="660" y="183.5"/><ellipse cx="675" cy="199.5" fill="#ADD1B2" rx="11" ry="11" style="stroke: #A80036; stroke-width: 1.0;"/><path d="M677,196 Q677.2031,195.5 677.4375,195.25 Q677.6719,195 677.9375,195 Q678.4063,195 678.7031,195.2813 Q679,195.5625 679,196.2188 L679,197.7813 Q679,198.4375 678.7188,198.7188 Q678.4375,199 678,199 Q677.6094,199 677.3594,198.8281 Q677.1094,198.6563 677,198.2031 Q676.9531,197.8906 676.7813,197.7188 Q676.4688,197.3906 675.9063,197.2031 Q675.3438,197 674.7813,197 Q674.0781,197 673.4844,197.2813 Q672.9063,197.5625 672.4531,198.1875 Q672,198.8125 672,199.6719 L672,200.5938 Q672,201.625 672.8438,202.3125 Q673.6875,203 675.1875,203 Q676.0781,203 676.7031,202.7969 Q677.0625,202.6875 677.4688,202.3281 Q677.7344,202.125 677.875,202.0625 Q678.0156,202 678.1875,202 Q678.5156,202 678.75,202.2656 Q679,202.5156 679,202.875 Q679,203.2188 678.6563,203.625 Q678.1563,204.2188 677.3594,204.5469 Q676.3125,205 675.0313,205 Q673.5313,205 672.3281,204.4063 Q671.3594,203.9375 670.6719,202.9219 Q670,201.9063 670,200.7031 L670,199.6094 Q670,198.3594 670.5938,197.2656 Q671.2031,196.1719 672.25,195.5938 Q673.3125,195 674.5,195 Q675.2188,195 675.8438,195.25 Q676.4688,195.5 677,196 Z "/><text fill="#000000" font-family="sans-serif" font-size="12" lengthAdjust="spacingAndGlyphs" textLength="55" x="689" y="204.4102">Pharmacy</text><line style="stroke: #A80036; stroke-width: 1.5;" x1="661" x2="746" y1="215.5" y2="215.5"/><text fill="#000000" font-family="sans-serif" font-size="11" lengthAdjust="spacingAndGlyphs" textLength="26" x="666" y="230.9189">-int id</text><text fill="#000000" font-family="sans-serif" font-size="11" lengthAdjust="spacingAndGlyphs" textLength="61" x="666" y="244.7549">-String name</text><text fill="#000000" font-family="sans-serif" font-size="11" lengthAdjust="spacingAndGlyphs" textLength="59" x="666" y="258.5908">-String email</text><!--MD5=[d1eeb527b96f439f56c6bd12ac0dd707]
class Park--><rect fill="#FEFECE" filter="url(#f8hr8vb3lp4zm)" height="67.6719" id="Park" style="stroke: #A80036; stroke-width: 1.5;" width="139" x="854" y="46.5"/><ellipse cx="906.75" cy="62.5" fill="#ADD1B2" rx="11" ry="11" style="stroke: #A80036; stroke-width: 1.0;"/><path d="M908.75,59 Q908.9531,58.5 909.1875,58.25 Q909.4219,58 909.6875,58 Q910.1563,58 910.4531,58.2813 Q910.75,58.5625 910.75,59.2188 L910.75,60.7813 Q910.75,61.4375 910.4688,61.7188 Q910.1875,62 909.75,62 Q909.3594,62 909.1094,61.8281 Q908.8594,61.6563 908.75,61.2031 Q908.7031,60.8906 908.5313,60.7188 Q908.2188,60.3906 907.6563,60.2031 Q907.0938,60 906.5313,60 Q905.8281,60 905.2344,60.2813 Q904.6563,60.5625 904.2031,61.1875 Q903.75,61.8125 903.75,62.6719 L903.75,63.5938 Q903.75,64.625 904.5938,65.3125 Q905.4375,66 906.9375,66 Q907.8281,66 908.4531,65.7969 Q908.8125,65.6875 909.2188,65.3281 Q909.4844,65.125 909.625,65.0625 Q909.7656,65 909.9375,65 Q910.2656,65 910.5,65.2656 Q910.75,65.5156 910.75,65.875 Q910.75,66.2188 910.4063,66.625 Q909.9063,67.2188 909.1094,67.5469 Q908.0625,68 906.7813,68 Q905.2813,68 904.0781,67.4063 Q903.1094,66.9375 902.4219,65.9219 Q901.75,64.9063 901.75,63.7031 L901.75,62.6094 Q901.75,61.3594 902.3438,60.2656 Q902.9531,59.1719 904,58.5938 Q905.0625,58 906.25,58 Q906.9688,58 907.5938,58.25 Q908.2188,58.5 908.75,59 Z "/><text fill="#000000" font-family="sans-serif" font-size="12" lengthAdjust="spacingAndGlyphs" textLength="25" x="927.25" y="67.4102">Park</text><line style="stroke: #A80036; stroke-width: 1.5;" x1="855" x2="992" y1="78.5" y2="78.5"/><text fill="#000000" font-family="sans-serif" font-size="11" lengthAdjust="spacingAndGlyphs" textLength="99" x="860" y="93.9189">-int maxSlotsNumber</text><text fill="#000000" font-family="sans-serif" font-size="11" lengthAdjust="spacingAndGlyphs" textLength="127" x="860" y="107.7549">-double totalOutputCorrent</text><!--MD5=[59d2374cee64c81d4b5b0eac02df9f3a]
class ChargingSlot--><rect fill="#FEFECE" filter="url(#f8hr8vb3lp4zm)" height="53.8359" id="ChargingSlot" style="stroke: #A80036; stroke-width: 1.5;" width="104" x="1287.5" y="8.5"/><ellipse cx="1302.5" cy="24.5" fill="#ADD1B2" rx="11" ry="11" style="stroke: #A80036; stroke-width: 1.0;"/><path d="M1304.5,21 Q1304.7031,20.5 1304.9375,20.25 Q1305.1719,20 1305.4375,20 Q1305.9063,20 1306.2031,20.2813 Q1306.5,20.5625 1306.5,21.2188 L1306.5,22.7813 Q1306.5,23.4375 1306.2188,23.7188 Q1305.9375,24 1305.5,24 Q1305.1094,24 1304.8594,23.8281 Q1304.6094,23.6563 1304.5,23.2031 Q1304.4531,22.8906 1304.2813,22.7188 Q1303.9688,22.3906 1303.4063,22.2031 Q1302.8438,22 1302.2813,22 Q1301.5781,22 1300.9844,22.2813 Q1300.4063,22.5625 1299.9531,23.1875 Q1299.5,23.8125 1299.5,24.6719 L1299.5,25.5938 Q1299.5,26.625 1300.3438,27.3125 Q1301.1875,28 1302.6875,28 Q1303.5781,28 1304.2031,27.7969 Q1304.5625,27.6875 1304.9688,27.3281 Q1305.2344,27.125 1305.375,27.0625 Q1305.5156,27 1305.6875,27 Q1306.0156,27 1306.25,27.2656 Q1306.5,27.5156 1306.5,27.875 Q1306.5,28.2188 1306.1563,28.625 Q1305.6563,29.2188 1304.8594,29.5469 Q1303.8125,30 1302.5313,30 Q1301.0313,30 1299.8281,29.4063 Q1298.8594,28.9375 1298.1719,27.9219 Q1297.5,26.9063 1297.5,25.7031 L1297.5,24.6094 Q1297.5,23.3594 1298.0938,22.2656 Q1298.7031,21.1719 1299.75,20.5938 Q1300.8125,20 1302,20 Q1302.7188,20 1303.3438,20.25 Q1303.9688,20.5 1304.5,21 Z "/><text fill="#000000" font-family="sans-serif" font-size="12" lengthAdjust="spacingAndGlyphs" textLength="72" x="1316.5" y="29.4102">ChargingSlot</text><line style="stroke: #A80036; stroke-width: 1.5;" x1="1288.5" x2="1390.5" y1="40.5" y2="40.5"/><text fill="#000000" font-family="sans-serif" font-size="11" lengthAdjust="spacingAndGlyphs" textLength="26" x="1293.5" y="55.9189">-int id</text><!--MD5=[941956f4bed192556f7b65756093b59d]
class NonChargingSlot--><rect fill="#FEFECE" filter="url(#f8hr8vb3lp4zm)" height="53.8359" id="NonChargingSlot" style="stroke: #A80036; stroke-width: 1.5;" width="127" x="1276" y="97.5"/><ellipse cx="1291" cy="113.5" fill="#ADD1B2" rx="11" ry="11" style="stroke: #A80036; stroke-width: 1.0;"/><path d="M1293,110 Q1293.2031,109.5 1293.4375,109.25 Q1293.6719,109 1293.9375,109 Q1294.4063,109 1294.7031,109.2813 Q1295,109.5625 1295,110.2188 L1295,111.7813 Q1295,112.4375 1294.7188,112.7188 Q1294.4375,113 1294,113 Q1293.6094,113 1293.3594,112.8281 Q1293.1094,112.6563 1293,112.2031 Q1292.9531,111.8906 1292.7813,111.7188 Q1292.4688,111.3906 1291.9063,111.2031 Q1291.3438,111 1290.7813,111 Q1290.0781,111 1289.4844,111.2813 Q1288.9063,111.5625 1288.4531,112.1875 Q1288,112.8125 1288,113.6719 L1288,114.5938 Q1288,115.625 1288.8438,116.3125 Q1289.6875,117 1291.1875,117 Q1292.0781,117 1292.7031,116.7969 Q1293.0625,116.6875 1293.4688,116.3281 Q1293.7344,116.125 1293.875,116.0625 Q1294.0156,116 1294.1875,116 Q1294.5156,116 1294.75,116.2656 Q1295,116.5156 1295,116.875 Q1295,117.2188 1294.6563,117.625 Q1294.1563,118.2188 1293.3594,118.5469 Q1292.3125,119 1291.0313,119 Q1289.5313,119 1288.3281,118.4063 Q1287.3594,117.9375 1286.6719,116.9219 Q1286,115.9063 1286,114.7031 L1286,113.6094 Q1286,112.3594 1286.5938,111.2656 Q1287.2031,110.1719 1288.25,109.5938 Q1289.3125,109 1290.5,109 Q1291.2188,109 1291.8438,109.25 Q1292.4688,109.5 1293,110 Z "/><text fill="#000000" font-family="sans-serif" font-size="12" lengthAdjust="spacingAndGlyphs" textLength="95" x="1305" y="118.4102">NonChargingSlot</text><line style="stroke: #A80036; stroke-width: 1.5;" x1="1277" x2="1402" y1="129.5" y2="129.5"/><text fill="#000000" font-family="sans-serif" font-size="11" lengthAdjust="spacingAndGlyphs" textLength="26" x="1282" y="144.9189">-int id</text><!--MD5=[6171c3a2f2c752b4019101857dc83635]
class ParkingSlot--><rect fill="#FEFECE" filter="url(#f8hr8vb3lp4zm)" height="53.8359" id="ParkingSlot" style="stroke: #A80036; stroke-width: 1.5;" width="95" x="1092.5" y="53.5"/><ellipse cx="1107.5" cy="69.5" fill="#ADD1B2" rx="11" ry="11" style="stroke: #A80036; stroke-width: 1.0;"/><path d="M1109.5,66 Q1109.7031,65.5 1109.9375,65.25 Q1110.1719,65 1110.4375,65 Q1110.9063,65 1111.2031,65.2813 Q1111.5,65.5625 1111.5,66.2188 L1111.5,67.7813 Q1111.5,68.4375 1111.2188,68.7188 Q1110.9375,69 1110.5,69 Q1110.1094,69 1109.8594,68.8281 Q1109.6094,68.6563 1109.5,68.2031 Q1109.4531,67.8906 1109.2813,67.7188 Q1108.9688,67.3906 1108.4063,67.2031 Q1107.8438,67 1107.2813,67 Q1106.5781,67 1105.9844,67.2813 Q1105.4063,67.5625 1104.9531,68.1875 Q1104.5,68.8125 1104.5,69.6719 L1104.5,70.5938 Q1104.5,71.625 1105.3438,72.3125 Q1106.1875,73 1107.6875,73 Q1108.5781,73 1109.2031,72.7969 Q1109.5625,72.6875 1109.9688,72.3281 Q1110.2344,72.125 1110.375,72.0625 Q1110.5156,72 1110.6875,72 Q1111.0156,72 1111.25,72.2656 Q1111.5,72.5156 1111.5,72.875 Q1111.5,73.2188 1111.1563,73.625 Q1110.6563,74.2188 1109.8594,74.5469 Q1108.8125,75 1107.5313,75 Q1106.0313,75 1104.8281,74.4063 Q1103.8594,73.9375 1103.1719,72.9219 Q1102.5,71.9063 1102.5,70.7031 L1102.5,69.6094 Q1102.5,68.3594 1103.0938,67.2656 Q1103.7031,66.1719 1104.75,65.5938 Q1105.8125,65 1107,65 Q1107.7188,65 1108.3438,65.25 Q1108.9688,65.5 1109.5,66 Z "/><text fill="#000000" font-family="sans-serif" font-size="12" lengthAdjust="spacingAndGlyphs" textLength="63" x="1121.5" y="74.4102">ParkingSlot</text><line style="stroke: #A80036; stroke-width: 1.5;" x1="1093.5" x2="1186.5" y1="85.5" y2="85.5"/><text fill="#000000" font-family="sans-serif" font-size="11" lengthAdjust="spacingAndGlyphs" textLength="26" x="1098.5" y="100.9189">-int id</text><!--MD5=[f4402668d5d5bb8485350c0fdb60ac8e]
class Scooter--><rect fill="#FEFECE" filter="url(#f8hr8vb3lp4zm)" height="40" id="Scooter" style="stroke: #A80036; stroke-width: 1.5;" width="74" x="183" y="280.5"/><ellipse cx="198" cy="296.5" fill="#ADD1B2" rx="11" ry="11" style="stroke: #A80036; stroke-width: 1.0;"/><path d="M200,293 Q200.2031,292.5 200.4375,292.25 Q200.6719,292 200.9375,292 Q201.4063,292 201.7031,292.2813 Q202,292.5625 202,293.2188 L202,294.7813 Q202,295.4375 201.7188,295.7188 Q201.4375,296 201,296 Q200.6094,296 200.3594,295.8281 Q200.1094,295.6563 200,295.2031 Q199.9531,294.8906 199.7813,294.7188 Q199.4688,294.3906 198.9063,294.2031 Q198.3438,294 197.7813,294 Q197.0781,294 196.4844,294.2813 Q195.9063,294.5625 195.4531,295.1875 Q195,295.8125 195,296.6719 L195,297.5938 Q195,298.625 195.8438,299.3125 Q196.6875,300 198.1875,300 Q199.0781,300 199.7031,299.7969 Q200.0625,299.6875 200.4688,299.3281 Q200.7344,299.125 200.875,299.0625 Q201.0156,299 201.1875,299 Q201.5156,299 201.75,299.2656 Q202,299.5156 202,299.875 Q202,300.2188 201.6563,300.625 Q201.1563,301.2188 200.3594,301.5469 Q199.3125,302 198.0313,302 Q196.5313,302 195.3281,301.4063 Q194.3594,300.9375 193.6719,299.9219 Q193,298.9063 193,297.7031 L193,296.6094 Q193,295.3594 193.5938,294.2656 Q194.2031,293.1719 195.25,292.5938 Q196.3125,292 197.5,292 Q198.2188,292 198.8438,292.25 Q199.4688,292.5 200,293 Z "/><text fill="#000000" font-family="sans-serif" font-size="12" lengthAdjust="spacingAndGlyphs" textLength="42" x="212" y="301.4102">Scooter</text><line style="stroke: #A80036; stroke-width: 1.5;" x1="184" x2="256" y1="312.5" y2="312.5"/><!--MD5=[5e13c92683bb853a25438ed3edf51dc3]
class VehicleModel--><rect fill="#FEFECE" filter="url(#f8hr8vb3lp4zm)" height="109.1797" id="VehicleModel" style="stroke: #A80036; stroke-width: 1.5;" width="109" x="649" y="301"/><ellipse cx="665.8" cy="317" fill="#ADD1B2" rx="11" ry="11" style="stroke: #A80036; stroke-width: 1.0;"/><path d="M667.8,313.5 Q668.0031,313 668.2375,312.75 Q668.4719,312.5 668.7375,312.5 Q669.2063,312.5 669.5031,312.7813 Q669.8,313.0625 669.8,313.7188 L669.8,315.2813 Q669.8,315.9375 669.5188,316.2188 Q669.2375,316.5 668.8,316.5 Q668.4094,316.5 668.1594,316.3281 Q667.9094,316.1563 667.8,315.7031 Q667.7531,315.3906 667.5813,315.2188 Q667.2688,314.8906 666.7063,314.7031 Q666.1438,314.5 665.5813,314.5 Q664.8781,314.5 664.2844,314.7813 Q663.7063,315.0625 663.2531,315.6875 Q662.8,316.3125 662.8,317.1719 L662.8,318.0938 Q662.8,319.125 663.6438,319.8125 Q664.4875,320.5 665.9875,320.5 Q666.8781,320.5 667.5031,320.2969 Q667.8625,320.1875 668.2688,319.8281 Q668.5344,319.625 668.675,319.5625 Q668.8156,319.5 668.9875,319.5 Q669.3156,319.5 669.55,319.7656 Q669.8,320.0156 669.8,320.375 Q669.8,320.7188 669.4563,321.125 Q668.9563,321.7188 668.1594,322.0469 Q667.1125,322.5 665.8313,322.5 Q664.3313,322.5 663.1281,321.9063 Q662.1594,321.4375 661.4719,320.4219 Q660.8,319.4063 660.8,318.2031 L660.8,317.1094 Q660.8,315.8594 661.3938,314.7656 Q662.0031,313.6719 663.05,313.0938 Q664.1125,312.5 665.3,312.5 Q666.0188,312.5 666.6438,312.75 Q667.2688,313 667.8,313.5 Z "/><text fill="#000000" font-family="sans-serif" font-size="12" lengthAdjust="spacingAndGlyphs" textLength="73" x="680.2" y="321.9102">VehicleModel</text><line style="stroke: #A80036; stroke-width: 1.5;" x1="650" x2="757" y1="333" y2="333"/><text fill="#000000" font-family="sans-serif" font-size="11" lengthAdjust="spacingAndGlyphs" textLength="26" x="655" y="348.4189">-int id</text><text fill="#000000" font-family="sans-serif" font-size="11" lengthAdjust="spacingAndGlyphs" textLength="90" x="655" y="362.2549">-String desigantion</text><text fill="#000000" font-family="sans-serif" font-size="11" lengthAdjust="spacingAndGlyphs" textLength="78" x="655" y="376.0908">-double potency</text><text fill="#000000" font-family="sans-serif" font-size="11" lengthAdjust="spacingAndGlyphs" textLength="72" x="655" y="389.9268">-double weight</text><text fill="#000000" font-family="sans-serif" font-size="11" lengthAdjust="spacingAndGlyphs" textLength="97" x="655" y="403.7627">-double maxPayload</text><!--MD5=[9e8cdc57c56bad5cdfc47653c9df3022]
class VehicleType--><rect fill="#FEFECE" filter="url(#f8hr8vb3lp4zm)" height="53.8359" id="VehicleType" style="stroke: #A80036; stroke-width: 1.5;" width="102" x="1089" y="234.5"/><ellipse cx="1105.8" cy="250.5" fill="#ADD1B2" rx="11" ry="11" style="stroke: #A80036; stroke-width: 1.0;"/><path d="M1107.8,247 Q1108.0031,246.5 1108.2375,246.25 Q1108.4719,246 1108.7375,246 Q1109.2063,246 1109.5031,246.2813 Q1109.8,246.5625 1109.8,247.2188 L1109.8,248.7813 Q1109.8,249.4375 1109.5188,249.7188 Q1109.2375,250 1108.8,250 Q1108.4094,250 1108.1594,249.8281 Q1107.9094,249.6563 1107.8,249.2031 Q1107.7531,248.8906 1107.5813,248.7188 Q1107.2688,248.3906 1106.7063,248.2031 Q1106.1438,248 1105.5813,248 Q1104.8781,248 1104.2844,248.2813 Q1103.7063,248.5625 1103.2531,249.1875 Q1102.8,249.8125 1102.8,250.6719 L1102.8,251.5938 Q1102.8,252.625 1103.6438,253.3125 Q1104.4875,254 1105.9875,254 Q1106.8781,254 1107.5031,253.7969 Q1107.8625,253.6875 1108.2688,253.3281 Q1108.5344,253.125 1108.675,253.0625 Q1108.8156,253 1108.9875,253 Q1109.3156,253 1109.55,253.2656 Q1109.8,253.5156 1109.8,253.875 Q1109.8,254.2188 1109.4563,254.625 Q1108.9563,255.2188 1108.1594,255.5469 Q1107.1125,256 1105.8313,256 Q1104.3313,256 1103.1281,255.4063 Q1102.1594,254.9375 1101.4719,253.9219 Q1100.8,252.9063 1100.8,251.7031 L1100.8,250.6094 Q1100.8,249.3594 1101.3938,248.2656 Q1102.0031,247.1719 1103.05,246.5938 Q1104.1125,246 1105.3,246 Q1106.0188,246 1106.6438,246.25 Q1107.2688,246.5 1107.8,247 Z "/><text fill="#000000" font-family="sans-serif" font-size="12" lengthAdjust="spacingAndGlyphs" textLength="66" x="1120.2" y="255.4102">VehicleType</text><line style="stroke: #A80036; stroke-width: 1.5;" x1="1090" x2="1190" y1="266.5" y2="266.5"/><text fill="#000000" font-family="sans-serif" font-size="11" lengthAdjust="spacingAndGlyphs" textLength="90" x="1095" y="281.9189">-String desigantion</text><!--MD5=[3aa0d89c6bfdcbf7f32042cedac57549]
class Vehicle--><rect fill="#FEFECE" filter="url(#f8hr8vb3lp4zm)" height="67.6719" id="Vehicle" style="stroke: #A80036; stroke-width: 1.5;" width="107" x="396" y="277.5"/><ellipse cx="426.75" cy="293.5" fill="#ADD1B2" rx="11" ry="11" style="stroke: #A80036; stroke-width: 1.0;"/><path d="M428.75,290 Q428.9531,289.5 429.1875,289.25 Q429.4219,289 429.6875,289 Q430.1563,289 430.4531,289.2813 Q430.75,289.5625 430.75,290.2188 L430.75,291.7813 Q430.75,292.4375 430.4688,292.7188 Q430.1875,293 429.75,293 Q429.3594,293 429.1094,292.8281 Q428.8594,292.6563 428.75,292.2031 Q428.7031,291.8906 428.5313,291.7188 Q428.2188,291.3906 427.6563,291.2031 Q427.0938,291 426.5313,291 Q425.8281,291 425.2344,291.2813 Q424.6563,291.5625 424.2031,292.1875 Q423.75,292.8125 423.75,293.6719 L423.75,294.5938 Q423.75,295.625 424.5938,296.3125 Q425.4375,297 426.9375,297 Q427.8281,297 428.4531,296.7969 Q428.8125,296.6875 429.2188,296.3281 Q429.4844,296.125 429.625,296.0625 Q429.7656,296 429.9375,296 Q430.2656,296 430.5,296.2656 Q430.75,296.5156 430.75,296.875 Q430.75,297.2188 430.4063,297.625 Q429.9063,298.2188 429.1094,298.5469 Q428.0625,299 426.7813,299 Q425.2813,299 424.0781,298.4063 Q423.1094,297.9375 422.4219,296.9219 Q421.75,295.9063 421.75,294.7031 L421.75,293.6094 Q421.75,292.3594 422.3438,291.2656 Q422.9531,290.1719 424,289.5938 Q425.0625,289 426.25,289 Q426.9688,289 427.5938,289.25 Q428.2188,289.5 428.75,290 Z "/><text fill="#000000" font-family="sans-serif" font-size="12" lengthAdjust="spacingAndGlyphs" textLength="40" x="444.25" y="298.4102">Vehicle</text><line style="stroke: #A80036; stroke-width: 1.5;" x1="397" x2="502" y1="309.5" y2="309.5"/><text fill="#000000" font-family="sans-serif" font-size="11" lengthAdjust="spacingAndGlyphs" textLength="26" x="402" y="324.9189">-int id</text><text fill="#000000" font-family="sans-serif" font-size="11" lengthAdjust="spacingAndGlyphs" textLength="95" x="402" y="338.7549">-double batteryPerc</text><!--MD5=[79eb2d862cef9730b5f9dcab29e35f17]
class Battery--><rect fill="#FEFECE" filter="url(#f8hr8vb3lp4zm)" height="95.3438" id="Battery" style="stroke: #A80036; stroke-width: 1.5;" width="122" x="862.5" y="425"/><ellipse cx="901.35" cy="441" fill="#ADD1B2" rx="11" ry="11" style="stroke: #A80036; stroke-width: 1.0;"/><path d="M903.35,437.5 Q903.5531,437 903.7875,436.75 Q904.0219,436.5 904.2875,436.5 Q904.7563,436.5 905.0531,436.7813 Q905.35,437.0625 905.35,437.7188 L905.35,439.2813 Q905.35,439.9375 905.0688,440.2188 Q904.7875,440.5 904.35,440.5 Q903.9594,440.5 903.7094,440.3281 Q903.4594,440.1563 903.35,439.7031 Q903.3031,439.3906 903.1313,439.2188 Q902.8188,438.8906 902.2563,438.7031 Q901.6938,438.5 901.1313,438.5 Q900.4281,438.5 899.8344,438.7813 Q899.2563,439.0625 898.8031,439.6875 Q898.35,440.3125 898.35,441.1719 L898.35,442.0938 Q898.35,443.125 899.1938,443.8125 Q900.0375,444.5 901.5375,444.5 Q902.4281,444.5 903.0531,444.2969 Q903.4125,444.1875 903.8188,443.8281 Q904.0844,443.625 904.225,443.5625 Q904.3656,443.5 904.5375,443.5 Q904.8656,443.5 905.1,443.7656 Q905.35,444.0156 905.35,444.375 Q905.35,444.7188 905.0063,445.125 Q904.5063,445.7188 903.7094,446.0469 Q902.6625,446.5 901.3813,446.5 Q899.8813,446.5 898.6781,445.9063 Q897.7094,445.4375 897.0219,444.4219 Q896.35,443.4063 896.35,442.2031 L896.35,441.1094 Q896.35,439.8594 896.9438,438.7656 Q897.5531,437.6719 898.6,437.0938 Q899.6625,436.5 900.85,436.5 Q901.5688,436.5 902.1938,436.75 Q902.8188,437 903.35,437.5 Z "/><text fill="#000000" font-family="sans-serif" font-size="12" lengthAdjust="spacingAndGlyphs" textLength="37" x="920.65" y="445.9102">Battery</text><line style="stroke: #A80036; stroke-width: 1.5;" x1="863.5" x2="983.5" y1="457" y2="457"/><text fill="#000000" font-family="sans-serif" font-size="11" lengthAdjust="spacingAndGlyphs" textLength="26" x="868.5" y="472.4189">-int id</text><text fill="#000000" font-family="sans-serif" font-size="11" lengthAdjust="spacingAndGlyphs" textLength="94" x="868.5" y="486.2549">-int batteryCapacity</text><text fill="#000000" font-family="sans-serif" font-size="11" lengthAdjust="spacingAndGlyphs" textLength="110" x="868.5" y="500.0908">-double batteryVoltage</text><text fill="#000000" font-family="sans-serif" font-size="11" lengthAdjust="spacingAndGlyphs" textLength="87" x="868.5" y="513.9268">-double efficiency</text><!--MD5=[0f39e4cb6f03951afbf6d14bd2505654]
class Address--><rect fill="#FEFECE" filter="url(#f8hr8vb3lp4zm)" height="150.6875" id="Address" style="stroke: #A80036; stroke-width: 1.5;" width="106" x="870.5" y="150"/><ellipse cx="898.1" cy="166" fill="#ADD1B2" rx="11" ry="11" style="stroke: #A80036; stroke-width: 1.0;"/><path d="M900.1,162.5 Q900.3031,162 900.5375,161.75 Q900.7719,161.5 901.0375,161.5 Q901.5063,161.5 901.8031,161.7813 Q902.1,162.0625 902.1,162.7188 L902.1,164.2813 Q902.1,164.9375 901.8188,165.2188 Q901.5375,165.5 901.1,165.5 Q900.7094,165.5 900.4594,165.3281 Q900.2094,165.1563 900.1,164.7031 Q900.0531,164.3906 899.8813,164.2188 Q899.5688,163.8906 899.0063,163.7031 Q898.4438,163.5 897.8813,163.5 Q897.1781,163.5 896.5844,163.7813 Q896.0063,164.0625 895.5531,164.6875 Q895.1,165.3125 895.1,166.1719 L895.1,167.0938 Q895.1,168.125 895.9438,168.8125 Q896.7875,169.5 898.2875,169.5 Q899.1781,169.5 899.8031,169.2969 Q900.1625,169.1875 900.5688,168.8281 Q900.8344,168.625 900.975,168.5625 Q901.1156,168.5 901.2875,168.5 Q901.6156,168.5 901.85,168.7656 Q902.1,169.0156 902.1,169.375 Q902.1,169.7188 901.7563,170.125 Q901.2563,170.7188 900.4594,171.0469 Q899.4125,171.5 898.1313,171.5 Q896.6313,171.5 895.4281,170.9063 Q894.4594,170.4375 893.7719,169.4219 Q893.1,168.4063 893.1,167.2031 L893.1,166.1094 Q893.1,164.8594 893.6938,163.7656 Q894.3031,162.6719 895.35,162.0938 Q896.4125,161.5 897.6,161.5 Q898.3188,161.5 898.9438,161.75 Q899.5688,162 900.1,162.5 Z "/><text fill="#000000" font-family="sans-serif" font-size="12" lengthAdjust="spacingAndGlyphs" textLength="46" x="914.9" y="170.9102">Address</text><line style="stroke: #A80036; stroke-width: 1.5;" x1="871.5" x2="975.5" y1="182" y2="182"/><text fill="#000000" font-family="sans-serif" font-size="11" lengthAdjust="spacingAndGlyphs" textLength="82" x="876.5" y="197.4189">-double longitude</text><text fill="#000000" font-family="sans-serif" font-size="11" lengthAdjust="spacingAndGlyphs" textLength="73" x="876.5" y="211.2549">-double latitude</text><text fill="#000000" font-family="sans-serif" font-size="11" lengthAdjust="spacingAndGlyphs" textLength="73" x="876.5" y="225.0908">-double altitude</text><text fill="#000000" font-family="sans-serif" font-size="11" lengthAdjust="spacingAndGlyphs" textLength="94" x="876.5" y="238.9268">-String doorNumber</text><text fill="#000000" font-family="sans-serif" font-size="11" lengthAdjust="spacingAndGlyphs" textLength="90" x="876.5" y="252.7627">-String streetName</text><text fill="#000000" font-family="sans-serif" font-size="11" lengthAdjust="spacingAndGlyphs" textLength="89" x="876.5" y="266.5986">-String postalCode</text><text fill="#000000" font-family="sans-serif" font-size="11" lengthAdjust="spacingAndGlyphs" textLength="68" x="876.5" y="280.4346">-String locality</text><text fill="#000000" font-family="sans-serif" font-size="11" lengthAdjust="spacingAndGlyphs" textLength="72" x="876.5" y="294.2705">-String country</text><!--MD5=[51d7b9a785c9fb041ca400474ed1d998]
link Database to Pharmacy--><path d="M87.1567,249.072 C96.9049,248.103 107.321,247.169 117,246.5 C319.958,232.48 563.155,226.938 659.842,225.185 " fill="none" id="Database-Pharmacy" style="stroke: #A80036; stroke-width: 1.0;"/><text fill="#000000" font-family="sans-serif" font-size="13" lengthAdjust="spacingAndGlyphs" textLength="21" x="309.5" y="229.9951">has</text><polygon fill="#000000" points="333.5,223.1758,339.5,226.1758,333.5,229.1758,333.5,223.1758" style="stroke: #000000; stroke-width: 1.0;"/><text fill="#000000" font-family="sans-serif" font-size="13" lengthAdjust="spacingAndGlyphs" textLength="7" x="95.0221" y="244.4195">1</text><text fill="#000000" font-family="sans-serif" font-size="13" lengthAdjust="spacingAndGlyphs" textLength="5" x="646.9086" y="240.2454">*</text><!--MD5=[f4a94ba2ad2673d4959409a96e63c979]
link Database to Scooter--><path d="M87.2766,264.401 C116.17,272.319 154.951,282.947 182.943,290.619 " fill="none" id="Database-Scooter" style="stroke: #A80036; stroke-width: 1.0;"/><text fill="#000000" font-family="sans-serif" font-size="13" lengthAdjust="spacingAndGlyphs" textLength="21" x="118" y="268.9951">has</text><polygon fill="#000000" points="142,262.1758,148,265.1758,142,268.1758,142,262.1758" style="stroke: #000000; stroke-width: 1.0;"/><text fill="#000000" font-family="sans-serif" font-size="13" lengthAdjust="spacingAndGlyphs" textLength="7" x="94.8866" y="281.2085">1</text><text fill="#000000" font-family="sans-serif" font-size="13" lengthAdjust="spacingAndGlyphs" textLength="5" x="169.7844" y="303.7624">*</text><!--MD5=[52f80c2c106e4280525a8160ec8cd0fa]
link Scooter to Vehicle--><path d="M257.048,302.243 C294.385,304.048 353.115,306.888 395.688,308.946 " fill="none" id="Scooter-Vehicle" style="stroke: #A80036; stroke-width: 1.0;"/><text fill="#000000" font-family="sans-serif" font-size="13" lengthAdjust="spacingAndGlyphs" textLength="64" x="288" y="299.9951">is a type of</text><polygon fill="#000000" points="355,293.1758,361,296.1758,355,299.1758,355,293.1758" style="stroke: #000000; stroke-width: 1.0;"/><text fill="#000000" font-family="sans-serif" font-size="13" lengthAdjust="spacingAndGlyphs" textLength="5" x="265.2048" y="317.7839">*</text><text fill="#000000" font-family="sans-serif" font-size="13" lengthAdjust="spacingAndGlyphs" textLength="7" x="380.9867" y="323.2186">1</text><!--MD5=[7ee5f2eef2f8ef54a9b73b97abb49ae4]
link Vehicle to VehicleModel--><path d="M503.032,327.401 C512.925,330.037 523.232,332.544 533,334.5 C571.379,342.183 615.245,347.526 648.735,350.9 " fill="none" id="Vehicle-VehicleModel" style="stroke: #A80036; stroke-width: 1.0;"/><text fill="#000000" font-family="sans-serif" font-size="13" lengthAdjust="spacingAndGlyphs" textLength="21" x="559" y="330.9951">has</text><polygon fill="#000000" points="583,324.1758,589,327.1758,583,330.1758,583,324.1758" style="stroke: #000000; stroke-width: 1.0;"/><text fill="#000000" font-family="sans-serif" font-size="13" lengthAdjust="spacingAndGlyphs" textLength="5" x="510.9115" y="344.305">*</text><text fill="#000000" font-family="sans-serif" font-size="13" lengthAdjust="spacingAndGlyphs" textLength="7" x="633.9056" y="364.8635">1</text><!--MD5=[9793812679a856b96e8ba34e2675abcc]
link Vehicle to Pharmacy--><path d="M503.106,301.412 C536.847,294.132 581.244,283.032 619,268.5 C632.61,263.262 646.849,256.347 659.635,249.556 " fill="none" id="Vehicle-Pharmacy" style="stroke: #A80036; stroke-width: 1.0;"/><text fill="#000000" font-family="sans-serif" font-size="13" lengthAdjust="spacingAndGlyphs" textLength="71" x="534" y="264.9951">belongs to a</text><polygon fill="#000000" points="608,258.1758,614,261.1758,608,264.1758,608,258.1758" style="stroke: #000000; stroke-width: 1.0;"/><text fill="#000000" font-family="sans-serif" font-size="13" lengthAdjust="spacingAndGlyphs" textLength="5" x="510.9959" y="314.6613">*</text><text fill="#000000" font-family="sans-serif" font-size="13" lengthAdjust="spacingAndGlyphs" textLength="7" x="645.0862" y="268.3867">1</text><!--MD5=[89baec1bfb4a213750f7c61516e0a0f1]
link Pharmacy to Address--><path d="M747.05,224.695 C782.364,224.857 832.727,225.088 870.443,225.261 " fill="none" id="Pharmacy-Address" style="stroke: #A80036; stroke-width: 1.0;"/><text fill="#000000" font-family="sans-serif" font-size="13" lengthAdjust="spacingAndGlyphs" textLength="21" x="789" y="220.9951">has</text><polygon fill="#000000" points="813,214.1758,819,217.1758,813,220.1758,813,214.1758" style="stroke: #000000; stroke-width: 1.0;"/><text fill="#000000" font-family="sans-serif" font-size="13" lengthAdjust="spacingAndGlyphs" textLength="7" x="755.1367" y="239.6711">1</text><text fill="#000000" font-family="sans-serif" font-size="13" lengthAdjust="spacingAndGlyphs" textLength="7" x="855.4897" y="239.8942">1</text><!--MD5=[0ae4e3be80761dbc176b3d01b8ab98e4]
link Pharmacy to Park--><path d="M747.05,196.394 C782.488,172.985 833.081,139.566 870.839,114.625 " fill="none" id="Pharmacy-Park" style="stroke: #A80036; stroke-width: 1.0;"/><text fill="#000000" font-family="sans-serif" font-size="13" lengthAdjust="spacingAndGlyphs" textLength="21" x="789" y="143.9951">has</text><polygon fill="#000000" points="813,137.1758,819,140.1758,813,143.1758,813,137.1758" style="stroke: #000000; stroke-width: 1.0;"/><text fill="#000000" font-family="sans-serif" font-size="13" lengthAdjust="spacingAndGlyphs" textLength="7" x="755.1367" y="206.5059">1</text><text fill="#000000" font-family="sans-serif" font-size="13" lengthAdjust="spacingAndGlyphs" textLength="5" x="856.0134" y="135.6842">*</text><!--MD5=[5790d77feb6b26de2794f2f777278d81]
link Park to VehicleType--><path d="M970.557,114.719 C978.13,120.557 985.84,126.633 993,132.5 C1034.47,166.48 1080.55,207.833 1109.64,234.404 " fill="none" id="Park-VehicleType" style="stroke: #A80036; stroke-width: 1.0;"/><text fill="#000000" font-family="sans-serif" font-size="13" lengthAdjust="spacingAndGlyphs" textLength="21" x="1024" y="155.9951">has</text><polygon fill="#000000" points="1048,149.1758,1054,152.1758,1048,155.1758,1048,149.1758" style="stroke: #000000; stroke-width: 1.0;"/><text fill="#000000" font-family="sans-serif" font-size="13" lengthAdjust="spacingAndGlyphs" textLength="5" x="973.4937" y="135.7949">*</text><text fill="#000000" font-family="sans-serif" font-size="13" lengthAdjust="spacingAndGlyphs" textLength="7" x="1094.8099" y="223.8428">1</text><!--MD5=[d231af42e5f994c6ef3dd0db49c43284]
link Park to ParkingSlot--><path d="M993.254,80.5 C1025.6,80.5 1063.34,80.5 1092.31,80.5 " fill="none" id="Park-ParkingSlot" style="stroke: #A80036; stroke-width: 1.0;"/><text fill="#000000" font-family="sans-serif" font-size="13" lengthAdjust="spacingAndGlyphs" textLength="21" x="1024" y="76.9951">has</text><polygon fill="#000000" points="1048,70.1758,1054,73.1758,1048,76.1758,1048,70.1758" style="stroke: #000000; stroke-width: 1.0;"/><text fill="#000000" font-family="sans-serif" font-size="13" lengthAdjust="spacingAndGlyphs" textLength="7" x="1000.8083" y="94.8552">1</text><text fill="#000000" font-family="sans-serif" font-size="13" lengthAdjust="spacingAndGlyphs" textLength="5" x="1079.6247" y="95.2596">*</text><!--MD5=[a4c65a09dd0e5e45daf0263f06c7f061]
link ParkingSlot to ChargingSlot--><path d="M1187.8,69.836 C1217.69,63.026 1256.45,54.195 1287.18,47.194 " fill="none" id="ParkingSlot-ChargingSlot" style="stroke: #A80036; stroke-width: 1.0;"/><text fill="#000000" font-family="sans-serif" font-size="13" lengthAdjust="spacingAndGlyphs" textLength="10" x="1222" y="53.9951">is</text><polygon fill="#000000" points="1235,47.1758,1241,50.1758,1235,53.1758,1235,47.1758" style="stroke: #000000; stroke-width: 1.0;"/><text fill="#000000" font-family="sans-serif" font-size="13" lengthAdjust="spacingAndGlyphs" textLength="7" x="1195.6553" y="82.9627">1</text><text fill="#000000" font-family="sans-serif" font-size="13" lengthAdjust="spacingAndGlyphs" textLength="7" x="1272.3303" y="63.4948">1</text><!--MD5=[142124bf764eff3cd61a820bcd607a89]
link ParkingSlot to NonChargingSlot--><path d="M1187.8,90.927 C1214.15,96.798 1247.4,104.205 1275.96,110.567 " fill="none" id="ParkingSlot-NonChargingSlot" style="stroke: #A80036; stroke-width: 1.0;"/><text fill="#000000" font-family="sans-serif" font-size="13" lengthAdjust="spacingAndGlyphs" textLength="10" x="1222" y="94.9951">is</text><polygon fill="#000000" points="1235,88.1758,1241,91.1758,1235,94.1758,1235,88.1758" style="stroke: #000000; stroke-width: 1.0;"/><text fill="#000000" font-family="sans-serif" font-size="13" lengthAdjust="spacingAndGlyphs" textLength="7" x="1195.6553" y="107.2832">1</text><text fill="#000000" font-family="sans-serif" font-size="13" lengthAdjust="spacingAndGlyphs" textLength="7" x="1261.2085" y="123.4059">1</text><!--MD5=[3fa83f42c878ddc47b59211fc64ec532]
link VehicleModel to Battery--><path d="M758.108,384.271 C789.625,401.187 829.558,422.6184 862.174,440.1232 " fill="none" id="VehicleModel-Battery" style="stroke: #A80036; stroke-width: 1.0;"/><text fill="#000000" font-family="sans-serif" font-size="13" lengthAdjust="spacingAndGlyphs" textLength="21" x="789" y="399.9951">has</text><polygon fill="#000000" points="813,393.1758,819,396.1758,813,399.1758,813,393.1758" style="stroke: #000000; stroke-width: 1.0;"/><text fill="#000000" font-family="sans-serif" font-size="13" lengthAdjust="spacingAndGlyphs" textLength="7" x="765.9163" y="402.7188">1</text><text fill="#000000" font-family="sans-serif" font-size="13" lengthAdjust="spacingAndGlyphs" textLength="7" x="847.6785" y="450.8002">1</text><!--MD5=[eb172a83c7b24bcb2b2c23cfcc7dc290]
link VehicleModel to VehicleType--><path d="M758.224,358.399 C816.992,360.098 913.424,358.537 993,336.5 C1030.35,326.157 1069.22,305.637 1097.45,288.671 " fill="none" id="VehicleModel-VehicleType" style="stroke: #A80036; stroke-width: 1.0;"/><text fill="#000000" font-family="sans-serif" font-size="13" lengthAdjust="spacingAndGlyphs" textLength="21" x="906.5" y="332.9951">has</text><polygon fill="#000000" points="930.5,326.1758,936.5,329.1758,930.5,332.1758,930.5,326.1758" style="stroke: #000000; stroke-width: 1.0;"/><text fill="#000000" font-family="sans-serif" font-size="13" lengthAdjust="spacingAndGlyphs" textLength="5" x="765.9135" y="373.3702">*</text><text fill="#000000" font-family="sans-serif" font-size="13" lengthAdjust="spacingAndGlyphs" textLength="7" x="1080.3766" y="309.9162">1</text><!--MD5=[9f93f7cd80275bf0915f2597f2c9deae]
@startuml
skinparam classAttributeIconSize 0
hide methods
left to right direction

database Database {
}

class Pharmacy {
  -int id
  -String name
-   String email
}

class Park{
-   int maxSlotsNumber
-   double totalOutputCorrent
}

class ChargingSlot{
-   int id
}

class NonChargingSlot{
-   int id
}

class ParkingSlot{
-   int id
}

class Scooter{
}

class VehicleModel{
  -int id
  -String desigantion
  -double potency
  -double weight
  -double maxPayload
}

class VehicleType{
  -String desigantion
}

class Vehicle{
  -int id
  -double batteryPerc
}

class Battery{
  -int id
  -int batteryCapacity
  -double batteryVoltage
  -double efficiency
}

class Address{
  -double longitude
  -double latitude
  -double altitude
  -String doorNumber
  -String streetName
  -String postalCode
  -String locality
  -String country
}



Database "1" - - "*" Pharmacy : has >
Database "1" - - "*" Scooter : has >
Scooter "*" - - "1" Vehicle : is a type of >
Vehicle "*" - - "1" VehicleModel : has >
Vehicle "*" - - "1" Pharmacy : belongs to a >
Pharmacy "1" - - "1" Address : has >
Pharmacy "1" - - "*" Park : has >
Park "*" - - "1" VehicleType : has >
Park "1" - - "*" ParkingSlot : has >
ParkingSlot "1" - - "1" ChargingSlot : is >
ParkingSlot "1" - - "1" NonChargingSlot : is >
VehicleModel "1" - - "1" Battery : has >
VehicleModel "*" - - "1" VehicleType : has >
@enduml

PlantUML version 1.2020.09(Sun May 10 11:51:06 BST 2020)
(GPL source distribution)
Java Runtime: OpenJDK Runtime Environment
JVM: OpenJDK 64-Bit Server VM
Java Version: 11.0.6+8-b765.40
Operating System: Windows 10
Default Encoding: Cp1252
Language: pt
Country: PT
--></g></svg>