<?xml version="1.0" encoding="UTF-8" standalone="no"?><svg xmlns="http://www.w3.org/2000/svg" xmlns:xlink="http://www.w3.org/1999/xlink" contentScriptType="application/ecmascript" contentStyleType="text/css" height="712.2px" preserveAspectRatio="none" style="width:687px;height:712px;" version="1.1" viewBox="0 0 687 712" width="687.6px" zoomAndPan="magnify"><defs><filter height="300%" id="f490mhlrqy8yb" width="300%" x="-1" y="-1"><feGaussianBlur result="blurOut" stdDeviation="1.2"/><feColorMatrix in="blurOut" result="blurOut2" type="matrix" values="0 0 0 0 0 0 0 0 0 0 0 0 0 0 0 0 0 0 .4 0"/><feOffset dx="2.4" dy="2.4" in="blurOut2" result="blurOut3"/><feBlend in="SourceGraphic" in2="blurOut3" mode="normal"/></filter></defs><g><!--MD5=[9681dc6e01e10c6b4fe06895ae94f592]
cluster UI--><polygon fill="#DDDDDD" filter="url(#f490mhlrqy8yb)" points="58.8,14.4,70.8,14.4,75,28.5656,166.8,28.5656,166.8,74.4,58.8,74.4,58.8,14.4" style="stroke: #000000; stroke-width: 0.8999999999999999;"/><line style="stroke: #000000; stroke-width: 0.8999999999999999;" x1="58.8" x2="75" y1="28.5656" y2="28.5656"/><text fill="#000000" font-family="sans-serif" font-size="8.4" font-weight="bold" lengthAdjust="spacingAndGlyphs" textLength="8.4" x="61.2" y="24.3199">UI</text><!--MD5=[1f2cfc53d9d308f53762fd0fcbaa4873]
cluster Controller--><polygon fill="#DDDDDD" filter="url(#f490mhlrqy8yb)" points="46.2,94.2,92.4,94.2,96.6,108.3656,179.4,108.3656,179.4,179.4,46.2,179.4,46.2,94.2" style="stroke: #000000; stroke-width: 0.8999999999999999;"/><line style="stroke: #000000; stroke-width: 0.8999999999999999;" x1="46.2" x2="96.6" y1="108.3656" y2="108.3656"/><text fill="#000000" font-family="sans-serif" font-size="8.4" font-weight="bold" lengthAdjust="spacingAndGlyphs" textLength="42.6" x="48.6" y="104.1199">Controller</text><!--MD5=[15636c1ca4a123c16a2a1a8e90aca7a9]
cluster Model--><polygon fill="#DDDDDD" filter="url(#f490mhlrqy8yb)" points="13.2,199.2,43.2,199.2,47.4,213.3656,340.2,213.3656,340.2,705,13.2,705,13.2,199.2" style="stroke: #000000; stroke-width: 0.8999999999999999;"/><line style="stroke: #000000; stroke-width: 0.8999999999999999;" x1="13.2" x2="47.4" y1="213.3656" y2="213.3656"/><text fill="#000000" font-family="sans-serif" font-size="8.4" font-weight="bold" lengthAdjust="spacingAndGlyphs" textLength="26.4" x="15.6" y="209.1199">Model</text><!--MD5=[9dd75fd92da113d30380b27734fd2f01]
cluster Service--><polygon fill="#DDDDDD" filter="url(#f490mhlrqy8yb)" points="29.4,225.6,65.4,225.6,69.6,239.7656,252.6,239.7656,252.6,310.8,29.4,310.8,29.4,225.6" style="stroke: #000000; stroke-width: 0.8999999999999999;"/><line style="stroke: #000000; stroke-width: 0.8999999999999999;" x1="29.4" x2="69.6" y1="239.7656" y2="239.7656"/><text fill="#000000" font-family="sans-serif" font-size="8.4" font-weight="bold" lengthAdjust="spacingAndGlyphs" textLength="32.4" x="31.8" y="235.5199">Service</text><!--MD5=[f21b1f164e99c6b37934f23ad048ad54]
cluster Data--><polygon fill="#DDDDDD" filter="url(#f490mhlrqy8yb)" points="442.2,229.8,464.4,229.8,468.6,243.9656,674.4,243.9656,674.4,441.6,442.2,441.6,442.2,229.8" style="stroke: #000000; stroke-width: 0.8999999999999999;"/><line style="stroke: #000000; stroke-width: 0.8999999999999999;" x1="442.2" x2="468.6" y1="243.9656" y2="243.9656"/><text fill="#000000" font-family="sans-serif" font-size="8.4" font-weight="bold" lengthAdjust="spacingAndGlyphs" textLength="18.6" x="444.6" y="239.7199">Data</text><!--MD5=[fa1e3283224feb76407c84b7e90ed808]
entity Database--><path d="M366.9,266.1 C366.9,260.1 391.2,260.1 391.2,260.1 C391.2,260.1 415.5,260.1 415.5,266.1 L415.5,282.0656 C415.5,288.0656 391.2,288.0656 391.2,288.0656 C391.2,288.0656 366.9,288.0656 366.9,282.0656 L366.9,266.1 " fill="#FFFFFF" filter="url(#f490mhlrqy8yb)" style="stroke: #000000; stroke-width: 0.8999999999999999;"/><path d="M366.9,266.1 C366.9,272.1 391.2,272.1 391.2,272.1 C391.2,272.1 415.5,272.1 415.5,266.1 " fill="none" style="stroke: #000000; stroke-width: 0.8999999999999999;"/><text fill="#000000" font-family="sans-serif" font-size="8.4" lengthAdjust="spacingAndGlyphs" textLength="36.6" x="372.9" y="283.2199">Database</text><!--MD5=[c1173569b5b0b600dda82c1c79b11dc3]
class ScooterInformationUI--><rect fill="#FEFECE" filter="url(#f490mhlrqy8yb)" height="28.8" id="ScooterInformationUI" style="stroke: #A80036; stroke-width: 0.8999999999999999;" width="88.8" x="68.4" y="36"/><ellipse cx="77.4" cy="45.6" fill="#ADD1B2" rx="6.6" ry="6.6" style="stroke: #A80036; stroke-width: 0.6;"/><path d="M78.6,43.5 Q78.7219,43.2 78.8625,43.05 Q79.0031,42.9 79.1625,42.9 Q79.4438,42.9 79.6219,43.0688 Q79.8,43.2375 79.8,43.6313 L79.8,44.5688 Q79.8,44.9625 79.6313,45.1313 Q79.4625,45.3 79.2,45.3 Q78.9656,45.3 78.8156,45.1969 Q78.6656,45.0938 78.6,44.8219 Q78.5719,44.6344 78.4688,44.5313 Q78.2813,44.3344 77.9438,44.2219 Q77.6063,44.1 77.2688,44.1 Q76.8469,44.1 76.4906,44.2688 Q76.1438,44.4375 75.8719,44.8125 Q75.6,45.1875 75.6,45.7031 L75.6,46.2563 Q75.6,46.875 76.1063,47.2875 Q76.6125,47.7 77.5125,47.7 Q78.0469,47.7 78.4219,47.5781 Q78.6375,47.5125 78.8813,47.2969 Q79.0406,47.175 79.125,47.1375 Q79.2094,47.1 79.3125,47.1 Q79.5094,47.1 79.65,47.2594 Q79.8,47.4094 79.8,47.625 Q79.8,47.8313 79.5938,48.075 Q79.2938,48.4313 78.8156,48.6281 Q78.1875,48.9 77.4188,48.9 Q76.5188,48.9 75.7969,48.5437 Q75.2156,48.2625 74.8031,47.6531 Q74.4,47.0437 74.4,46.3219 L74.4,45.6656 Q74.4,44.9156 74.7563,44.2594 Q75.1219,43.6031 75.75,43.2563 Q76.3875,42.9 77.1,42.9 Q77.5313,42.9 77.9063,43.05 Q78.2813,43.2 78.6,43.5 Z "/><text fill="#000000" font-family="sans-serif" font-size="7.2" lengthAdjust="spacingAndGlyphs" textLength="69.6" x="85.8" y="48.5461">ScooterInformationUI</text><line style="stroke: #A80036; stroke-width: 0.8999999999999999;" x1="69" x2="156.6" y1="55.2" y2="55.2"/><line style="stroke: #A80036; stroke-width: 0.8999999999999999;" x1="69" x2="156.6" y1="60" y2="60"/><!--MD5=[ac3e069f5608a55d83a94371a390203e]
class ScooterInformationController--><rect fill="#FEFECE" filter="url(#f490mhlrqy8yb)" height="53.7047" id="ScooterInformationController" style="stroke: #A80036; stroke-width: 0.8999999999999999;" width="114" x="55.8" y="115.8"/><ellipse cx="64.8" cy="125.4" fill="#ADD1B2" rx="6.6" ry="6.6" style="stroke: #A80036; stroke-width: 0.6;"/><path d="M66,123.3 Q66.1219,123 66.2625,122.85 Q66.4031,122.7 66.5625,122.7 Q66.8438,122.7 67.0219,122.8687 Q67.2,123.0375 67.2,123.4312 L67.2,124.3687 Q67.2,124.7625 67.0313,124.9312 Q66.8625,125.1 66.6,125.1 Q66.3656,125.1 66.2156,124.9969 Q66.0656,124.8938 66,124.6219 Q65.9719,124.4344 65.8687,124.3313 Q65.6812,124.1344 65.3438,124.0219 Q65.0063,123.9 64.6688,123.9 Q64.2469,123.9 63.8906,124.0688 Q63.5437,124.2375 63.2719,124.6125 Q63,124.9875 63,125.5031 L63,126.0562 Q63,126.675 63.5062,127.0875 Q64.0125,127.5 64.9125,127.5 Q65.4469,127.5 65.8219,127.3781 Q66.0375,127.3125 66.2813,127.0969 Q66.4406,126.975 66.525,126.9375 Q66.6094,126.9 66.7125,126.9 Q66.9094,126.9 67.05,127.0594 Q67.2,127.2094 67.2,127.425 Q67.2,127.6313 66.9937,127.875 Q66.6938,128.2313 66.2156,128.4281 Q65.5875,128.7 64.8188,128.7 Q63.9187,128.7 63.1969,128.3438 Q62.6156,128.0625 62.2031,127.4531 Q61.8,126.8438 61.8,126.1219 L61.8,125.4656 Q61.8,124.7156 62.1563,124.0594 Q62.5219,123.4031 63.15,123.0562 Q63.7875,122.7 64.5,122.7 Q64.9312,122.7 65.3062,122.85 Q65.6812,123 66,123.3 Z "/><text fill="#000000" font-family="sans-serif" font-size="7.2" lengthAdjust="spacingAndGlyphs" textLength="94.8" x="73.2" y="128.3461">ScooterInformationController</text><line style="stroke: #A80036; stroke-width: 0.8999999999999999;" x1="56.4" x2="169.2" y1="135" y2="135"/><line style="stroke: #A80036; stroke-width: 0.8999999999999999;" x1="56.4" x2="169.2" y1="139.8" y2="139.8"/><text fill="#000000" font-family="sans-serif" font-size="6.6" lengthAdjust="spacingAndGlyphs" textLength="58.8" x="59.4" y="149.0514">+showPharmacies()</text><text fill="#000000" font-family="sans-serif" font-size="6.6" lengthAdjust="spacingAndGlyphs" textLength="95.4" x="59.4" y="157.3529">+showScootersList(pharmacyId)</text><text fill="#000000" font-family="sans-serif" font-size="6.6" lengthAdjust="spacingAndGlyphs" textLength="99" x="59.4" y="165.6545">+getScooterInformation(scooterId)</text><!--MD5=[f4402668d5d5bb8485350c0fdb60ac8e]
class Scooter--><rect fill="#FEFECE" filter="url(#f490mhlrqy8yb)" height="111.8156" id="Scooter" style="stroke: #A80036; stroke-width: 0.8999999999999999;" width="197.4" x="132.9" y="349.2"/><ellipse cx="216.45" cy="358.8" fill="#ADD1B2" rx="6.6" ry="6.6" style="stroke: #A80036; stroke-width: 0.6;"/><path d="M217.65,356.7 Q217.7719,356.4 217.9125,356.25 Q218.0531,356.1 218.2125,356.1 Q218.4938,356.1 218.6719,356.2688 Q218.85,356.4375 218.85,356.8313 L218.85,357.7688 Q218.85,358.1625 218.6813,358.3313 Q218.5125,358.5 218.25,358.5 Q218.0156,358.5 217.8656,358.3969 Q217.7156,358.2938 217.65,358.0219 Q217.6219,357.8344 217.5187,357.7313 Q217.3312,357.5344 216.9938,357.4219 Q216.6563,357.3 216.3188,357.3 Q215.8969,357.3 215.5406,357.4688 Q215.1938,357.6375 214.9219,358.0125 Q214.65,358.3875 214.65,358.9031 L214.65,359.4563 Q214.65,360.075 215.1563,360.4875 Q215.6625,360.9 216.5625,360.9 Q217.0969,360.9 217.4719,360.7781 Q217.6875,360.7125 217.9313,360.4969 Q218.0906,360.375 218.175,360.3375 Q218.2594,360.3 218.3625,360.3 Q218.5594,360.3 218.7,360.4594 Q218.85,360.6094 218.85,360.825 Q218.85,361.0313 218.6437,361.275 Q218.3438,361.6312 217.8656,361.8281 Q217.2375,362.1 216.4688,362.1 Q215.5688,362.1 214.8469,361.7438 Q214.2656,361.4625 213.8531,360.8531 Q213.45,360.2438 213.45,359.5219 L213.45,358.8656 Q213.45,358.1156 213.8063,357.4594 Q214.1719,356.8031 214.8,356.4563 Q215.4375,356.1 216.15,356.1 Q216.5812,356.1 216.9562,356.25 Q217.3312,356.4 217.65,356.7 Z "/><text fill="#000000" font-family="sans-serif" font-size="7.2" lengthAdjust="spacingAndGlyphs" textLength="25.2" x="228.75" y="361.7461">Scooter</text><line style="stroke: #A80036; stroke-width: 0.8999999999999999;" x1="133.5" x2="329.7" y1="368.4" y2="368.4"/><text fill="#000000" font-family="sans-serif" font-size="6.6" lengthAdjust="spacingAndGlyphs" textLength="15.6" x="136.5" y="377.6514">-int id</text><text fill="#000000" font-family="sans-serif" font-size="6.6" lengthAdjust="spacingAndGlyphs" textLength="50.4" x="136.5" y="385.9529">-float batteryPerc</text><text fill="#000000" font-family="sans-serif" font-size="6.6" lengthAdjust="spacingAndGlyphs" textLength="61.2" x="136.5" y="394.2545">-String charginStatus</text><text fill="#000000" font-family="sans-serif" font-size="6.6" lengthAdjust="spacingAndGlyphs" textLength="40.2" x="136.5" y="402.5561">-float potency</text><text fill="#000000" font-family="sans-serif" font-size="6.6" lengthAdjust="spacingAndGlyphs" textLength="36.6" x="136.5" y="410.8576">-float weight</text><text fill="#000000" font-family="sans-serif" font-size="6.6" lengthAdjust="spacingAndGlyphs" textLength="56.4" x="136.5" y="419.1592">-int batteryCapacity</text><text fill="#000000" font-family="sans-serif" font-size="6.6" lengthAdjust="spacingAndGlyphs" textLength="51.6" x="136.5" y="427.4607">-float maxPayload</text><text fill="#000000" font-family="sans-serif" font-size="6.6" lengthAdjust="spacingAndGlyphs" textLength="59.4" x="136.5" y="435.7623">-float batteryVoltage</text><line style="stroke: #A80036; stroke-width: 0.8999999999999999;" x1="133.5" x2="329.7" y1="439.6125" y2="439.6125"/><text fill="#000000" font-family="sans-serif" font-size="6.6" lengthAdjust="spacingAndGlyphs" textLength="135" x="136.5" y="448.8639">+Scooter(batteryPerc, charginStatus, potency,</text><text fill="#000000" font-family="sans-serif" font-size="6.6" lengthAdjust="spacingAndGlyphs" textLength="188.4" x="138.3" y="457.1654">weight, batteryCapacity, maxPayload, batteryVoltage, pharmacy)</text><!--MD5=[0f39e4cb6f03951afbf6d14bd2505654]
class Address--><rect fill="#FEFECE" filter="url(#f490mhlrqy8yb)" height="86.9109" id="Address" style="stroke: #A80036; stroke-width: 0.8999999999999999;" width="63.6" x="199.8" y="608.4"/><ellipse cx="216.36" cy="618" fill="#ADD1B2" rx="6.6" ry="6.6" style="stroke: #A80036; stroke-width: 0.6;"/><path d="M217.56,615.9 Q217.6819,615.6 217.8225,615.45 Q217.9631,615.3 218.1225,615.3 Q218.4038,615.3 218.5819,615.4688 Q218.76,615.6375 218.76,616.0313 L218.76,616.9688 Q218.76,617.3625 218.5913,617.5313 Q218.4225,617.7 218.16,617.7 Q217.9256,617.7 217.7756,617.5969 Q217.6256,617.4938 217.56,617.2219 Q217.5319,617.0344 217.4288,616.9313 Q217.2413,616.7344 216.9038,616.6219 Q216.5663,616.5 216.2288,616.5 Q215.8069,616.5 215.4506,616.6687 Q215.1038,616.8375 214.8319,617.2125 Q214.56,617.5875 214.56,618.1031 L214.56,618.6563 Q214.56,619.275 215.0663,619.6875 Q215.5725,620.1 216.4725,620.1 Q217.0069,620.1 217.3819,619.9781 Q217.5975,619.9125 217.8413,619.6969 Q218.0006,619.575 218.085,619.5375 Q218.1694,619.5 218.2725,619.5 Q218.4694,619.5 218.61,619.6594 Q218.76,619.8094 218.76,620.025 Q218.76,620.2312 218.5538,620.475 Q218.2538,620.8313 217.7756,621.0281 Q217.1475,621.3 216.3788,621.3 Q215.4788,621.3 214.7569,620.9438 Q214.1756,620.6625 213.7631,620.0531 Q213.36,619.4438 213.36,618.7219 L213.36,618.0656 Q213.36,617.3156 213.7163,616.6594 Q214.0819,616.0031 214.71,615.6563 Q215.3475,615.3 216.06,615.3 Q216.4913,615.3 216.8663,615.45 Q217.2413,615.6 217.56,615.9 Z "/><text fill="#000000" font-family="sans-serif" font-size="7.2" lengthAdjust="spacingAndGlyphs" textLength="27.6" x="226.44" y="620.9461">Address</text><line style="stroke: #A80036; stroke-width: 0.8999999999999999;" x1="200.4" x2="262.8" y1="627.6" y2="627.6"/><text fill="#000000" font-family="sans-serif" font-size="6.6" lengthAdjust="spacingAndGlyphs" textLength="42.6" x="203.4" y="636.8514">-float longitude</text><text fill="#000000" font-family="sans-serif" font-size="6.6" lengthAdjust="spacingAndGlyphs" textLength="37.2" x="203.4" y="645.1529">-float latitude</text><text fill="#000000" font-family="sans-serif" font-size="6.6" lengthAdjust="spacingAndGlyphs" textLength="56.4" x="203.4" y="653.4545">-String doorNumber</text><text fill="#000000" font-family="sans-serif" font-size="6.6" lengthAdjust="spacingAndGlyphs" textLength="54" x="203.4" y="661.7561">-String streetName</text><text fill="#000000" font-family="sans-serif" font-size="6.6" lengthAdjust="spacingAndGlyphs" textLength="53.4" x="203.4" y="670.0576">-String postalCode</text><text fill="#000000" font-family="sans-serif" font-size="6.6" lengthAdjust="spacingAndGlyphs" textLength="40.8" x="203.4" y="678.3592">-String locality</text><text fill="#000000" font-family="sans-serif" font-size="6.6" lengthAdjust="spacingAndGlyphs" textLength="43.2" x="203.4" y="686.6607">-String country</text><line style="stroke: #A80036; stroke-width: 0.8999999999999999;" x1="200.4" x2="262.8" y1="690.5109" y2="690.5109"/><!--MD5=[7f2a9fafcebe4f099f71398fd3e2ed00]
class Pharmacy--><rect fill="#FEFECE" filter="url(#f490mhlrqy8yb)" height="53.7047" id="Pharmacy" style="stroke: #A80036; stroke-width: 0.8999999999999999;" width="94.8" x="184.2" y="507.6"/><ellipse cx="212.55" cy="517.2" fill="#ADD1B2" rx="6.6" ry="6.6" style="stroke: #A80036; stroke-width: 0.6;"/><path d="M213.75,515.1 Q213.8719,514.8 214.0125,514.65 Q214.1531,514.5 214.3125,514.5 Q214.5938,514.5 214.7719,514.6687 Q214.95,514.8375 214.95,515.2312 L214.95,516.1687 Q214.95,516.5625 214.7813,516.7312 Q214.6125,516.9 214.35,516.9 Q214.1156,516.9 213.9656,516.7969 Q213.8156,516.6938 213.75,516.4219 Q213.7219,516.2344 213.6188,516.1313 Q213.4313,515.9344 213.0938,515.8219 Q212.7563,515.7 212.4188,515.7 Q211.9969,515.7 211.6406,515.8688 Q211.2938,516.0375 211.0219,516.4125 Q210.75,516.7875 210.75,517.3031 L210.75,517.8562 Q210.75,518.475 211.2563,518.8875 Q211.7625,519.3 212.6625,519.3 Q213.1969,519.3 213.5719,519.1781 Q213.7875,519.1125 214.0313,518.8969 Q214.1906,518.775 214.275,518.7375 Q214.3594,518.7 214.4625,518.7 Q214.6594,518.7 214.8,518.8594 Q214.95,519.0094 214.95,519.225 Q214.95,519.4313 214.7438,519.675 Q214.4438,520.0313 213.9656,520.2281 Q213.3375,520.5 212.5688,520.5 Q211.6688,520.5 210.9469,520.1438 Q210.3656,519.8625 209.9531,519.2531 Q209.55,518.6438 209.55,517.9219 L209.55,517.2656 Q209.55,516.5156 209.9063,515.8594 Q210.2719,515.2031 210.9,514.8562 Q211.5375,514.5 212.25,514.5 Q212.6813,514.5 213.0563,514.65 Q213.4313,514.8 213.75,515.1 Z "/><text fill="#000000" font-family="sans-serif" font-size="7.2" lengthAdjust="spacingAndGlyphs" textLength="33" x="224.85" y="520.1461">Pharmacy</text><line style="stroke: #A80036; stroke-width: 0.8999999999999999;" x1="184.8" x2="278.4" y1="526.8" y2="526.8"/><text fill="#000000" font-family="sans-serif" font-size="6.6" lengthAdjust="spacingAndGlyphs" textLength="15.6" x="187.8" y="536.0514">-int id</text><text fill="#000000" font-family="sans-serif" font-size="6.6" lengthAdjust="spacingAndGlyphs" textLength="36.6" x="187.8" y="544.3529">-String name</text><line style="stroke: #A80036; stroke-width: 0.8999999999999999;" x1="184.8" x2="278.4" y1="548.2031" y2="548.2031"/><text fill="#000000" font-family="sans-serif" font-size="6.6" lengthAdjust="spacingAndGlyphs" textLength="87.6" x="187.8" y="557.4545">+getScootersList(pharmacyId)</text><!--MD5=[28160fdc0be430cd6f04db15a7547552]
class PharmacyService--><rect fill="#FEFECE" filter="url(#f490mhlrqy8yb)" height="45.4031" id="PharmacyService" style="stroke: #A80036; stroke-width: 0.8999999999999999;" width="76.2" x="39.3" y="251.4"/><ellipse cx="48.3" cy="261" fill="#ADD1B2" rx="6.6" ry="6.6" style="stroke: #A80036; stroke-width: 0.6;"/><path d="M49.5,258.9 Q49.6219,258.6 49.7625,258.45 Q49.9031,258.3 50.0625,258.3 Q50.3438,258.3 50.5219,258.4688 Q50.7,258.6375 50.7,259.0313 L50.7,259.9688 Q50.7,260.3625 50.5313,260.5313 Q50.3625,260.7 50.1,260.7 Q49.8656,260.7 49.7156,260.5969 Q49.5656,260.4938 49.5,260.2219 Q49.4719,260.0344 49.3688,259.9313 Q49.1813,259.7344 48.8438,259.6219 Q48.5063,259.5 48.1687,259.5 Q47.7469,259.5 47.3906,259.6688 Q47.0437,259.8375 46.7719,260.2125 Q46.5,260.5875 46.5,261.1031 L46.5,261.6563 Q46.5,262.275 47.0063,262.6875 Q47.5125,263.1 48.4125,263.1 Q48.9469,263.1 49.3219,262.9781 Q49.5375,262.9125 49.7813,262.6969 Q49.9406,262.575 50.025,262.5375 Q50.1094,262.5 50.2125,262.5 Q50.4094,262.5 50.55,262.6594 Q50.7,262.8094 50.7,263.025 Q50.7,263.2313 50.4938,263.475 Q50.1938,263.8313 49.7156,264.0281 Q49.0875,264.3 48.3188,264.3 Q47.4187,264.3 46.6969,263.9437 Q46.1156,263.6625 45.7031,263.0531 Q45.3,262.4437 45.3,261.7219 L45.3,261.0656 Q45.3,260.3156 45.6563,259.6594 Q46.0219,259.0031 46.65,258.6563 Q47.2875,258.3 48,258.3 Q48.4313,258.3 48.8063,258.45 Q49.1813,258.6 49.5,258.9 Z "/><text fill="#000000" font-family="sans-serif" font-size="7.2" lengthAdjust="spacingAndGlyphs" textLength="57" x="56.7" y="263.9461">PharmacyService</text><line style="stroke: #A80036; stroke-width: 0.8999999999999999;" x1="39.9" x2="114.9" y1="270.6" y2="270.6"/><line style="stroke: #A80036; stroke-width: 0.8999999999999999;" x1="39.9" x2="114.9" y1="275.4" y2="275.4"/><text fill="#000000" font-family="sans-serif" font-size="6.6" lengthAdjust="spacingAndGlyphs" textLength="59.4" x="42.9" y="284.6514">+PharmacyService()</text><text fill="#000000" font-family="sans-serif" font-size="6.6" lengthAdjust="spacingAndGlyphs" textLength="51" x="42.9" y="292.9529">+getPharmacies()</text><!--MD5=[aa4a745fe56463fab637f55d2a7c778f]
class ScooterService--><rect fill="#FEFECE" filter="url(#f490mhlrqy8yb)" height="53.7047" id="ScooterService" style="stroke: #A80036; stroke-width: 0.8999999999999999;" width="106.2" x="136.5" y="247.2"/><ellipse cx="162.51" cy="256.8" fill="#ADD1B2" rx="6.6" ry="6.6" style="stroke: #A80036; stroke-width: 0.6;"/><path d="M163.71,254.7 Q163.8319,254.4 163.9725,254.25 Q164.1131,254.1 164.2725,254.1 Q164.5538,254.1 164.7319,254.2687 Q164.91,254.4375 164.91,254.8312 L164.91,255.7687 Q164.91,256.1625 164.7413,256.3313 Q164.5725,256.5 164.31,256.5 Q164.0756,256.5 163.9256,256.3969 Q163.7756,256.2938 163.71,256.0219 Q163.6819,255.8344 163.5788,255.7313 Q163.3913,255.5344 163.0538,255.4219 Q162.7163,255.3 162.3788,255.3 Q161.9569,255.3 161.6006,255.4688 Q161.2538,255.6375 160.9819,256.0125 Q160.71,256.3875 160.71,256.9031 L160.71,257.4563 Q160.71,258.075 161.2163,258.4875 Q161.7225,258.9 162.6225,258.9 Q163.1569,258.9 163.5319,258.7781 Q163.7475,258.7125 163.9913,258.4969 Q164.1506,258.375 164.235,258.3375 Q164.3194,258.3 164.4225,258.3 Q164.6194,258.3 164.76,258.4594 Q164.91,258.6094 164.91,258.825 Q164.91,259.0313 164.7038,259.275 Q164.4038,259.6312 163.9256,259.8281 Q163.2975,260.1 162.5288,260.1 Q161.6288,260.1 160.9069,259.7438 Q160.3256,259.4625 159.9131,258.8531 Q159.51,258.2438 159.51,257.5219 L159.51,256.8656 Q159.51,256.1156 159.8663,255.4594 Q160.2319,254.8031 160.86,254.4562 Q161.4975,254.1 162.21,254.1 Q162.6413,254.1 163.0163,254.25 Q163.3913,254.4 163.71,254.7 Z "/><text fill="#000000" font-family="sans-serif" font-size="7.2" lengthAdjust="spacingAndGlyphs" textLength="49.2" x="174.69" y="259.7461">ScooterService</text><line style="stroke: #A80036; stroke-width: 0.8999999999999999;" x1="137.1" x2="242.1" y1="266.4" y2="266.4"/><line style="stroke: #A80036; stroke-width: 0.8999999999999999;" x1="137.1" x2="242.1" y1="271.2" y2="271.2"/><text fill="#000000" font-family="sans-serif" font-size="6.6" lengthAdjust="spacingAndGlyphs" textLength="53.4" x="140.1" y="280.4514">+ScooterService()</text><text fill="#000000" font-family="sans-serif" font-size="6.6" lengthAdjust="spacingAndGlyphs" textLength="54" x="140.1" y="288.7529">+getScootersList()</text><text fill="#000000" font-family="sans-serif" font-size="6.6" lengthAdjust="spacingAndGlyphs" textLength="99" x="140.1" y="297.0545">+getScooterInformation(scooterId)</text><!--MD5=[4b2d61224b33971326a22fe5d809d926]
class DataHandler--><rect fill="#FEFECE" filter="url(#f490mhlrqy8yb)" height="45.4031" id="DataHandler" style="stroke: #A80036; stroke-width: 0.8999999999999999;" width="62.4" x="592.2" y="251.4"/><ellipse cx="601.74" cy="261" fill="#ADD1B2" rx="6.6" ry="6.6" style="stroke: #A80036; stroke-width: 0.6;"/><path d="M602.94,258.9 Q603.0619,258.6 603.2025,258.45 Q603.3431,258.3 603.5025,258.3 Q603.7837,258.3 603.9619,258.4688 Q604.14,258.6375 604.14,259.0313 L604.14,259.9688 Q604.14,260.3625 603.9712,260.5313 Q603.8025,260.7 603.54,260.7 Q603.3056,260.7 603.1556,260.5969 Q603.0056,260.4938 602.94,260.2219 Q602.9119,260.0344 602.8087,259.9313 Q602.6212,259.7344 602.2837,259.6219 Q601.9463,259.5 601.6088,259.5 Q601.1869,259.5 600.8306,259.6688 Q600.4838,259.8375 600.2119,260.2125 Q599.94,260.5875 599.94,261.1031 L599.94,261.6563 Q599.94,262.275 600.4463,262.6875 Q600.9525,263.1 601.8525,263.1 Q602.3869,263.1 602.7619,262.9781 Q602.9775,262.9125 603.2212,262.6969 Q603.3806,262.575 603.465,262.5375 Q603.5494,262.5 603.6525,262.5 Q603.8494,262.5 603.99,262.6594 Q604.14,262.8094 604.14,263.025 Q604.14,263.2313 603.9337,263.475 Q603.6338,263.8313 603.1556,264.0281 Q602.5275,264.3 601.7588,264.3 Q600.8588,264.3 600.1369,263.9437 Q599.5556,263.6625 599.1431,263.0531 Q598.74,262.4437 598.74,261.7219 L598.74,261.0656 Q598.74,260.3156 599.0962,259.6594 Q599.4619,259.0031 600.09,258.6563 Q600.7275,258.3 601.44,258.3 Q601.8712,258.3 602.2462,258.45 Q602.6212,258.6 602.94,258.9 Z "/><text fill="#000000" font-family="sans-serif" font-size="7.2" lengthAdjust="spacingAndGlyphs" textLength="42" x="610.26" y="263.9461">DataHandler</text><line style="stroke: #A80036; stroke-width: 0.8999999999999999;" x1="592.8" x2="654" y1="270.6" y2="270.6"/><line style="stroke: #A80036; stroke-width: 0.8999999999999999;" x1="592.8" x2="654" y1="275.4" y2="275.4"/><text fill="#000000" font-family="sans-serif" font-size="6.6" lengthAdjust="spacingAndGlyphs" textLength="55.2" x="595.8" y="284.6514">+openConnection()</text><text fill="#000000" font-family="sans-serif" font-size="6.6" lengthAdjust="spacingAndGlyphs" textLength="31.2" x="595.8" y="292.9529">+closeAll()</text><!--MD5=[b860ecc58d0ca70e482845cb1f7b4615]
class PharmacyDB--><rect fill="#FEFECE" filter="url(#f490mhlrqy8yb)" height="45.4031" id="PharmacyDB" style="stroke: #A80036; stroke-width: 0.8999999999999999;" width="62.4" x="602.4" y="382.2"/><ellipse cx="611.4" cy="391.8" fill="#ADD1B2" rx="6.6" ry="6.6" style="stroke: #A80036; stroke-width: 0.6;"/><path d="M612.6,389.7 Q612.7219,389.4 612.8625,389.25 Q613.0031,389.1 613.1625,389.1 Q613.4438,389.1 613.6219,389.2688 Q613.8,389.4375 613.8,389.8313 L613.8,390.7688 Q613.8,391.1625 613.6313,391.3313 Q613.4625,391.5 613.2,391.5 Q612.9656,391.5 612.8156,391.3969 Q612.6656,391.2938 612.6,391.0219 Q612.5719,390.8344 612.4688,390.7313 Q612.2813,390.5344 611.9438,390.4219 Q611.6062,390.3 611.2688,390.3 Q610.8469,390.3 610.4906,390.4688 Q610.1438,390.6375 609.8719,391.0125 Q609.6,391.3875 609.6,391.9031 L609.6,392.4563 Q609.6,393.075 610.1062,393.4875 Q610.6125,393.9 611.5125,393.9 Q612.0469,393.9 612.4219,393.7781 Q612.6375,393.7125 612.8813,393.4969 Q613.0406,393.375 613.125,393.3375 Q613.2094,393.3 613.3125,393.3 Q613.5094,393.3 613.65,393.4594 Q613.8,393.6094 613.8,393.825 Q613.8,394.0313 613.5938,394.275 Q613.2937,394.6312 612.8156,394.8281 Q612.1875,395.1 611.4187,395.1 Q610.5188,395.1 609.7969,394.7438 Q609.2156,394.4625 608.8031,393.8531 Q608.4,393.2438 608.4,392.5219 L608.4,391.8656 Q608.4,391.1156 608.7563,390.4594 Q609.1219,389.8031 609.75,389.4563 Q610.3875,389.1 611.1,389.1 Q611.5313,389.1 611.9063,389.25 Q612.2813,389.4 612.6,389.7 Z "/><text fill="#000000" font-family="sans-serif" font-size="7.2" lengthAdjust="spacingAndGlyphs" textLength="43.2" x="619.8" y="394.7461">PharmacyDB</text><line style="stroke: #A80036; stroke-width: 0.8999999999999999;" x1="603" x2="664.2" y1="401.4" y2="401.4"/><line style="stroke: #A80036; stroke-width: 0.8999999999999999;" x1="603" x2="664.2" y1="406.2" y2="406.2"/><text fill="#000000" font-family="sans-serif" font-size="6.6" lengthAdjust="spacingAndGlyphs" textLength="45.6" x="606" y="415.4514">+PharmacyDB()</text><text fill="#000000" font-family="sans-serif" font-size="6.6" lengthAdjust="spacingAndGlyphs" textLength="51" x="606" y="423.7529">+getPharmacies()</text><!--MD5=[48d7298b3bd1f8b3e8f77915e881d788]
class ScooterDB--><rect fill="#FEFECE" filter="url(#f490mhlrqy8yb)" height="53.7047" id="ScooterDB" style="stroke: #A80036; stroke-width: 0.8999999999999999;" width="129" x="452.1" y="378"/><ellipse cx="496.35" cy="387.6" fill="#ADD1B2" rx="6.6" ry="6.6" style="stroke: #A80036; stroke-width: 0.6;"/><path d="M497.55,385.5 Q497.6719,385.2 497.8125,385.05 Q497.9531,384.9 498.1125,384.9 Q498.3937,384.9 498.5719,385.0687 Q498.75,385.2375 498.75,385.6312 L498.75,386.5687 Q498.75,386.9625 498.5812,387.1312 Q498.4125,387.3 498.15,387.3 Q497.9156,387.3 497.7656,387.1969 Q497.6156,387.0938 497.55,386.8219 Q497.5219,386.6344 497.4188,386.5313 Q497.2313,386.3344 496.8937,386.2219 Q496.5563,386.1 496.2188,386.1 Q495.7969,386.1 495.4406,386.2688 Q495.0938,386.4375 494.8219,386.8125 Q494.55,387.1875 494.55,387.7031 L494.55,388.2562 Q494.55,388.875 495.0563,389.2875 Q495.5625,389.7 496.4625,389.7 Q496.9969,389.7 497.3719,389.5781 Q497.5875,389.5125 497.8312,389.2969 Q497.9906,389.175 498.075,389.1375 Q498.1594,389.1 498.2625,389.1 Q498.4594,389.1 498.6,389.2594 Q498.75,389.4094 498.75,389.625 Q498.75,389.8313 498.5438,390.075 Q498.2438,390.4313 497.7656,390.6281 Q497.1375,390.9 496.3688,390.9 Q495.4688,390.9 494.7469,390.5438 Q494.1656,390.2625 493.7531,389.6531 Q493.35,389.0438 493.35,388.3219 L493.35,387.6656 Q493.35,386.9156 493.7062,386.2594 Q494.0719,385.6031 494.7,385.2562 Q495.3375,384.9 496.05,384.9 Q496.4813,384.9 496.8563,385.05 Q497.2313,385.2 497.55,385.5 Z "/><text fill="#000000" font-family="sans-serif" font-size="7.2" lengthAdjust="spacingAndGlyphs" textLength="35.4" x="508.65" y="390.5461">ScooterDB</text><line style="stroke: #A80036; stroke-width: 0.8999999999999999;" x1="452.7" x2="580.5" y1="397.2" y2="397.2"/><line style="stroke: #A80036; stroke-width: 0.8999999999999999;" x1="452.7" x2="580.5" y1="402" y2="402"/><text fill="#000000" font-family="sans-serif" font-size="6.6" lengthAdjust="spacingAndGlyphs" textLength="39.6" x="455.7" y="411.2514">+ScooterDB()</text><text fill="#000000" font-family="sans-serif" font-size="6.6" lengthAdjust="spacingAndGlyphs" textLength="54" x="455.7" y="419.5529">+getScootersList()</text><text fill="#000000" font-family="sans-serif" font-size="6.6" lengthAdjust="spacingAndGlyphs" textLength="121.8" x="455.7" y="427.8545">+getScooterInformationFromDB(scooterId)</text><!--MD5=[f40d64c3825bdc96a4efd5b7e3ff1420]
reverse link DataHandler to PharmacyDB--><path d="M626.1,309.1398 C627.924,332.28 630.276,362.1294 631.854,382.1952 " fill="none" id="DataHandler&lt;-PharmacyDB" style="stroke: #A80036; stroke-width: 0.6;"/><polygon fill="none" points="621.906,309.3714,625.152,297.0792,630.282,308.7126,621.906,309.3714" style="stroke: #A80036; stroke-width: 0.6;"/><!--MD5=[a2c65173c20bdf66914a8ed43c34e217]
reverse link DataHandler to ScooterDB--><path d="M609.312,307.9146 C605.274,315.87 600.504,324.1098 595.2,331.2 C582.354,348.3708 565.188,364.8864 550.176,377.8698 " fill="none" id="DataHandler&lt;-ScooterDB" style="stroke: #A80036; stroke-width: 0.6;"/><polygon fill="none" points="605.562,306.0264,614.52,297.0072,613.14,309.6456,605.562,306.0264" style="stroke: #A80036; stroke-width: 0.6;"/><!--MD5=[b1ee2edeb49b57d90d36e81718c221fe]
link ScooterInformationUI to ScooterInformationController--><path d="M112.8,64.854 C112.8,77.466 112.8,96.51 112.8,112.548 " fill="none" id="ScooterInformationUI-&gt;ScooterInformationController" style="stroke: #A80036; stroke-width: 0.6; stroke-dasharray: 7.0,7.0;"/><polygon fill="#A80036" points="112.8,115.7118,115.2,110.3118,112.8,112.7118,110.4,110.3118,112.8,115.7118" style="stroke: #A80036; stroke-width: 0.6;"/><!--MD5=[c4f46c7786367c8530505f8181d6f440]
link ScooterInformationController to PharmacyService--><path d="M105.5934,169.905 C99.3636,192.8178 90.42,225.714 84.2856,248.2752 " fill="none" id="ScooterInformationController-&gt;PharmacyService" style="stroke: #A80036; stroke-width: 0.6; stroke-dasharray: 7.0,7.0;"/><polygon fill="#A80036" points="83.4768,251.2494,87.2102,246.6688,84.2643,248.3546,82.5785,245.4088,83.4768,251.2494" style="stroke: #A80036; stroke-width: 0.6;"/><!--MD5=[147d5fc4fb6a269929c2f37f0ed303df]
link ScooterInformationController to ScooterService--><path d="M128.4342,169.905 C141.204,191.5536 159.231,222.1146 172.4058,244.4502 " fill="none" id="ScooterInformationController-&gt;ScooterService" style="stroke: #A80036; stroke-width: 0.6; stroke-dasharray: 7.0,7.0;"/><polygon fill="#A80036" points="173.9874,247.1322,173.3094,241.2619,172.4625,244.5487,169.1757,243.7018,173.9874,247.1322" style="stroke: #A80036; stroke-width: 0.6;"/><!--MD5=[04ba2cb7f5803b19c0d0e740f2a895e0]
link Database to PharmacyDB--><path d="M403.9122,288.3378 C413.496,297.6354 427.4712,309.381 442.2,315.6 C458.0448,322.2906 463.707,317.1666 480.6,320.4 C530.658,329.9808 549.168,320.9664 591.6,349.2 C603.0606,356.8254 612.66,368.6472 619.776,379.3974 " fill="none" id="Database-&gt;PharmacyDB" style="stroke: #A80036; stroke-width: 0.6;"/><polygon fill="#A80036" points="621.534,382.1046,620.6026,376.2691,619.8987,379.5895,616.5784,378.8856,621.534,382.1046" style="stroke: #A80036; stroke-width: 0.6;"/><text fill="#000000" font-family="sans-serif" font-size="7.8" lengthAdjust="spacingAndGlyphs" textLength="31.8" x="555" y="329.0971">manages</text><text fill="#000000" font-family="sans-serif" font-size="7.8" lengthAdjust="spacingAndGlyphs" textLength="4.2" x="402.1663" y="300.8657">1</text><text fill="#000000" font-family="sans-serif" font-size="7.8" lengthAdjust="spacingAndGlyphs" textLength="4.2" x="614.8107" y="375.7047">1</text><!--MD5=[70f68ce34a156c56edce71dba5c758e9]
link Database to ScooterDB--><path d="M404.3832,288.4248 C424.3224,309.0318 462.6042,348.5958 488.862,375.7332 " fill="none" id="Database-&gt;ScooterDB" style="stroke: #A80036; stroke-width: 0.6;"/><polygon fill="#A80036" points="491.0472,377.9916,489.0164,372.4422,488.9609,375.8358,485.5672,375.7803,491.0472,377.9916" style="stroke: #A80036; stroke-width: 0.6;"/><text fill="#000000" font-family="sans-serif" font-size="7.8" lengthAdjust="spacingAndGlyphs" textLength="31.8" x="443.4" y="329.0971">manages</text><text fill="#000000" font-family="sans-serif" font-size="7.8" lengthAdjust="spacingAndGlyphs" textLength="4.2" x="407.9174" y="300.9728">1</text><text fill="#000000" font-family="sans-serif" font-size="7.8" lengthAdjust="spacingAndGlyphs" textLength="4.2" x="482.44" y="371.4595">1</text><!--MD5=[ee7ed70a83e67b7f86b44988d609d45d]
link ScooterService to PharmacyDB--><path d="M242.8746,289.0014 C275.502,297.4068 318.192,307.884 356.4,315.6 C369.636,318.273 373.3992,316.7532 386.4,320.4 C398.6058,323.8242 400.4994,328.1334 412.8,331.2 C490.296,350.5206 521.9094,310.1856 591.6,349.2 C603.9,356.0868 613.734,368.22 620.784,379.3602 " fill="none" id="ScooterService-&gt;PharmacyDB" style="stroke: #A80036; stroke-width: 0.6;"/><polygon fill="#A80036" points="622.518,382.1676,621.7259,376.3116,620.9431,379.6142,617.6405,378.8314,622.518,382.1676" style="stroke: #A80036; stroke-width: 0.6;"/><text fill="#000000" font-family="sans-serif" font-size="7.8" lengthAdjust="spacingAndGlyphs" textLength="16.8" x="413.4" y="329.0971">uses</text><text fill="#000000" font-family="sans-serif" font-size="7.8" lengthAdjust="spacingAndGlyphs" textLength="4.2" x="247.4603" y="288.3477">1</text><text fill="#000000" font-family="sans-serif" font-size="7.8" lengthAdjust="spacingAndGlyphs" textLength="3" x="620.7513" y="375.6075">*</text><!--MD5=[799b1f05f2692ceb79e345e4105e6b42]
link PharmacyService to ScooterDB--><path d="M97.5924,297.0132 C105.6402,304.3386 115.4904,311.6232 126,315.6 C145.8966,323.1282 296.3118,317.5992 317.4,320.4 C324.1002,321.2898 429.4248,346.4526 435.6,349.2 C451.4082,356.2326 467.436,366.3864 481.0158,376.0722 " fill="none" id="PharmacyService-&gt;ScooterDB" style="stroke: #A80036; stroke-width: 0.6;"/><polygon fill="#A80036" points="483.522,377.8746,480.5382,372.7739,481.0861,376.1235,477.7365,376.6714,483.522,377.8746" style="stroke: #A80036; stroke-width: 0.6;"/><text fill="#000000" font-family="sans-serif" font-size="7.8" lengthAdjust="spacingAndGlyphs" textLength="16.8" x="364.2" y="329.0971">uses</text><text fill="#000000" font-family="sans-serif" font-size="7.8" lengthAdjust="spacingAndGlyphs" textLength="4.2" x="96.389" y="309.7175">1</text><text fill="#000000" font-family="sans-serif" font-size="7.8" lengthAdjust="spacingAndGlyphs" textLength="3" x="475.2272" y="371.5219">*</text><!--MD5=[2ed2b43e7f6d114538396b0b10b28567]
link PharmacyService to Pharmacy--><path d="M65.9544,297.0306 C48.5381,334.29 20.7864,410.2248 54.6,460.8 C82.5762,502.644 139.35,520.5966 181.0854,528.2814 " fill="none" id="PharmacyService-&gt;Pharmacy" style="stroke: #A80036; stroke-width: 0.6;"/><polygon fill="#A80036" points="184.0638,528.8172,179.1734,525.5,181.1111,528.2867,178.3245,530.2244,184.0638,528.8172" style="stroke: #A80036; stroke-width: 0.6;"/><text fill="#000000" font-family="sans-serif" font-size="7.8" lengthAdjust="spacingAndGlyphs" textLength="66.6" x="55.2" y="408.2971">manage services of</text><text fill="#000000" font-family="sans-serif" font-size="7.8" lengthAdjust="spacingAndGlyphs" textLength="4.2" x="59.511" y="309.7378">1</text><text fill="#000000" font-family="sans-serif" font-size="7.8" lengthAdjust="spacingAndGlyphs" textLength="3" x="176.39" y="526.3297">*</text><!--MD5=[a4fc43f4c54bc2b04150642bdfef7d93]
link ScooterService to Scooter--><path d="M168.8862,301.2906 C163.9992,310.6674 161.1846,321.3366 165,331.2 C167.0136,336.405 169.5888,341.4684 172.5498,346.341 " fill="none" id="ScooterService-&gt;Scooter" style="stroke: #A80036; stroke-width: 0.6;"/><polygon fill="#A80036" points="174.234,349.0284,173.4012,343.1781,172.6414,346.486,169.3334,345.7263,174.234,349.0284" style="stroke: #A80036; stroke-width: 0.6;"/><text fill="#000000" font-family="sans-serif" font-size="7.8" lengthAdjust="spacingAndGlyphs" textLength="66.6" x="165.6" y="329.0971">manage services of</text><text fill="#000000" font-family="sans-serif" font-size="7.8" lengthAdjust="spacingAndGlyphs" textLength="4.2" x="161.6206" y="313.707">1</text><text fill="#000000" font-family="sans-serif" font-size="7.8" lengthAdjust="spacingAndGlyphs" textLength="3" x="166.5431" y="342.6825">*</text><!--MD5=[51d7b9a785c9fb041ca400474ed1d998]
link Database to Pharmacy--><path d="M388.7886,288.4338 C381.8772,326.3976 361.1832,432.3948 340.8,460.8 C325.1646,482.5884 300.8772,499.7964 279.174,512.0388 " fill="none" id="Database-Pharmacy" style="stroke: #A80036; stroke-width: 0.6;"/><text fill="#000000" font-family="sans-serif" font-size="7.8" lengthAdjust="spacingAndGlyphs" textLength="49.2" x="376.8" y="408.2971">has registered</text><polygon fill="#000000" points="398.7,413.6109,400.5,417.2109,402.3,413.6109,398.7,413.6109" style="stroke: #000000; stroke-width: 0.6;"/><text fill="#000000" font-family="sans-serif" font-size="7.8" lengthAdjust="spacingAndGlyphs" textLength="4.2" x="383.5453" y="300.9839">1</text><text fill="#000000" font-family="sans-serif" font-size="7.8" lengthAdjust="spacingAndGlyphs" textLength="3" x="283.8514" y="507.9521">*</text><!--MD5=[f4a94ba2ad2673d4959409a96e63c979]
link Database to Scooter--><path d="M366.7908,276.4566 C336.783,279.8022 286.2288,289.9032 256.8,320.4 C249.135,328.3434 243.7902,338.5242 240.0666,349.0392 " fill="none" id="Database-Scooter" style="stroke: #A80036; stroke-width: 0.6;"/><polygon fill="#000000" points="261.6,325.0055,258,326.8055,261.6,328.6055,261.6,325.0055" style="stroke: #000000; stroke-width: 0.6;"/><text fill="#000000" font-family="sans-serif" font-size="7.8" lengthAdjust="spacingAndGlyphs" textLength="49.2" x="265.2" y="329.0971">has registered</text><text fill="#000000" font-family="sans-serif" font-size="7.8" lengthAdjust="spacingAndGlyphs" textLength="4.2" x="357.8688" y="274.5403">1</text><text fill="#000000" font-family="sans-serif" font-size="7.8" lengthAdjust="spacingAndGlyphs" textLength="3" x="237.6218" y="342.6942">*</text><!--MD5=[6f1b2737b94c689eac8b0af6a5ef1443]
link Scooter to Pharmacy--><path d="M231.6,460.9848 C231.6,477.1386 231.6,494.0514 231.6,507.5274 " fill="none" id="Scooter-Pharmacy" style="stroke: #A80036; stroke-width: 0.6;"/><text fill="#000000" font-family="sans-serif" font-size="7.8" lengthAdjust="spacingAndGlyphs" textLength="36" x="232.2" y="487.4971">belongs to</text><polygon fill="#000000" points="247.5,492.8109,249.3,496.4109,251.1,492.8109,247.5,492.8109" style="stroke: #000000; stroke-width: 0.6;"/><text fill="#000000" font-family="sans-serif" font-size="7.8" lengthAdjust="spacingAndGlyphs" textLength="3" x="228.4805" y="473.9255">*</text><text fill="#000000" font-family="sans-serif" font-size="7.8" lengthAdjust="spacingAndGlyphs" textLength="4.2" x="227.0784" y="501.1827">1</text><!--MD5=[89baec1bfb4a213750f7c61516e0a0f1]
link Pharmacy to Address--><path d="M231.6,561.8358 C231.6,575.5596 231.6,592.6362 231.6,608.1804 " fill="none" id="Pharmacy-Address" style="stroke: #A80036; stroke-width: 0.6;"/><text fill="#000000" font-family="sans-serif" font-size="7.8" lengthAdjust="spacingAndGlyphs" textLength="12.6" x="232.2" y="588.2971">has</text><polygon fill="#000000" points="235.8,593.6109,237.6,597.2109,239.4,593.6109,235.8,593.6109" style="stroke: #000000; stroke-width: 0.6;"/><text fill="#000000" font-family="sans-serif" font-size="7.8" lengthAdjust="spacingAndGlyphs" textLength="4.2" x="227.1178" y="574.2717">1</text><text fill="#000000" font-family="sans-serif" font-size="7.8" lengthAdjust="spacingAndGlyphs" textLength="4.2" x="227.1933" y="601.9161">1</text><!--MD5=[7801996eb2d43bc6a138bb97f117422d]
@startuml
skinparam classAttributeIconSize 0

database Database {
}

package "UI" #DDDDDD {
class ScooterInformationUI{
}
}

package "Controller" #DDDDDD {
class ScooterInformationController{
+showPharmacies()
+showScootersList(pharmacyId)
+getScooterInformation(scooterId)
}
}


package "Model" #DDDDDD {
 package "Service" #DDDDDD {
  class PharmacyService{
      +PharmacyService()
      +getPharmacies()
  }

  class ScooterService{
      +ScooterService()
      +getScootersList()
      +getScooterInformation(scooterId)
   }
}

package "Model" #DDDDDD {
class Scooter{
  -int id
  -float batteryPerc
  -String charginStatus
  -float potency
  -float weight
  -int batteryCapacity
  -float maxPayload
  -float batteryVoltage
  +Scooter(batteryPerc, charginStatus, potency,\n weight, batteryCapacity, maxPayload, batteryVoltage, pharmacy)
}

class Address{
  -float longitude
  -float latitude
  -String doorNumber
  -String streetName
  -String postalCode
  -String locality
  -String country
}

class Pharmacy {
  -int id
  -String name
  +getScootersList(pharmacyId)
}
}


package "Data" #DDDDDD {
class DataHandler{
    +openConnection()
    +closeAll()
}
class PharmacyDB{
     +PharmacyDB()
     +getPharmacies()
 }

 class ScooterDB{
     +ScooterDB()
     +getScootersList()
     +getScooterInformationFromDB(scooterId)
  }
}

class PharmacyDB extends DataHandler
class ScooterDB extends DataHandler

ScooterInformationUI ..> ScooterInformationController
ScooterInformationController ..> PharmacyService
ScooterInformationController ..> ScooterService
Database "1" - -> "1" PharmacyDB : manages
Database "1" - -> "1" ScooterDB : manages
ScooterService "1" - -> "*" PharmacyDB : uses
PharmacyService "1" - -> "*" ScooterDB : uses
PharmacyService "1" - -> "*" Pharmacy : manage services of
ScooterService "1" - -> "*" Scooter : manage services of

Database "1" - - "*" Pharmacy : has registered >
Database "1" - - "*" Scooter : has registered >

Scooter "*" - - "1" Pharmacy : belongs to >
Pharmacy "1" - - "1" Address : has >

@enduml

PlantUML version 1.2020.09(Sun May 10 11:51:06 BST 2020)
(GPL source distribution)
Java Runtime: OpenJDK Runtime Environment
JVM: OpenJDK 64-Bit Server VM
Java Version: 11.0.6+8-b765.40
Operating System: Windows 10
Default Encoding: Cp1252
Language: pt
Country: PT
--></g></svg>