<?xml version="1.0" encoding="UTF-8" standalone="no"?><svg xmlns="http://www.w3.org/2000/svg" xmlns:xlink="http://www.w3.org/1999/xlink" contentScriptType="application/ecmascript" contentStyleType="text/css" height="251px" preserveAspectRatio="none" style="width:564px;height:251px;" version="1.1" viewBox="0 0 564 251" width="564px" zoomAndPan="magnify"><defs><filter height="300%" id="fy9urzwmaivgw" width="300%" x="-1" y="-1"><feGaussianBlur result="blurOut" stdDeviation="2.0"/><feColorMatrix in="blurOut" result="blurOut2" type="matrix" values="0 0 0 0 0 0 0 0 0 0 0 0 0 0 0 0 0 0 .4 0"/><feOffset dx="4.0" dy="4.0" in="blurOut2" result="blurOut3"/><feBlend in="SourceGraphic" in2="blurOut3" mode="normal"/></filter></defs><g><!--MD5=[fa1e3283224feb76407c84b7e90ed808]
entity Database--><path d="M22.5,18 C22.5,8 63,8 63,8 C63,8 103.5,8 103.5,18 L103.5,44.6094 C103.5,54.6094 63,54.6094 63,54.6094 C63,54.6094 22.5,54.6094 22.5,44.6094 L22.5,18 " fill="#FFFFFF" filter="url(#fy9urzwmaivgw)" style="stroke: #000000; stroke-width: 1.5;"/><path d="M22.5,18 C22.5,28 63,28 63,28 C63,28 103.5,28 103.5,18 " fill="none" style="stroke: #000000; stroke-width: 1.5;"/><text fill="#000000" font-family="sans-serif" font-size="14" lengthAdjust="spacingAndGlyphs" textLength="61" x="32.5" y="46.5332">Database</text><!--MD5=[7f2a9fafcebe4f099f71398fd3e2ed00]
class Pharmacy--><rect fill="#FEFECE" filter="url(#fy9urzwmaivgw)" height="95.3438" id="Pharmacy" style="stroke: #A80036; stroke-width: 1.5;" width="96" x="255" y="51"/><ellipse cx="274.05" cy="67" fill="#ADD1B2" rx="11" ry="11" style="stroke: #A80036; stroke-width: 1.0;"/><path d="M276.05,63.5 Q276.2531,63 276.4875,62.75 Q276.7219,62.5 276.9875,62.5 Q277.4563,62.5 277.7531,62.7813 Q278.05,63.0625 278.05,63.7188 L278.05,65.2813 Q278.05,65.9375 277.7688,66.2188 Q277.4875,66.5 277.05,66.5 Q276.6594,66.5 276.4094,66.3281 Q276.1594,66.1563 276.05,65.7031 Q276.0031,65.3906 275.8313,65.2188 Q275.5188,64.8906 274.9563,64.7031 Q274.3938,64.5 273.8313,64.5 Q273.1281,64.5 272.5344,64.7813 Q271.9563,65.0625 271.5031,65.6875 Q271.05,66.3125 271.05,67.1719 L271.05,68.0938 Q271.05,69.125 271.8938,69.8125 Q272.7375,70.5 274.2375,70.5 Q275.1281,70.5 275.7531,70.2969 Q276.1125,70.1875 276.5188,69.8281 Q276.7844,69.625 276.925,69.5625 Q277.0656,69.5 277.2375,69.5 Q277.5656,69.5 277.8,69.7656 Q278.05,70.0156 278.05,70.375 Q278.05,70.7188 277.7063,71.125 Q277.2063,71.7188 276.4094,72.0469 Q275.3625,72.5 274.0813,72.5 Q272.5813,72.5 271.3781,71.9063 Q270.4094,71.4375 269.7219,70.4219 Q269.05,69.4063 269.05,68.2031 L269.05,67.1094 Q269.05,65.8594 269.6438,64.7656 Q270.2531,63.6719 271.3,63.0938 Q272.3625,62.5 273.55,62.5 Q274.2688,62.5 274.8938,62.75 Q275.5188,63 276.05,63.5 Z "/><text fill="#000000" font-family="sans-serif" font-size="12" lengthAdjust="spacingAndGlyphs" textLength="55" x="288.95" y="71.9102">Pharmacy</text><line style="stroke: #A80036; stroke-width: 1.5;" x1="256" x2="350" y1="83" y2="83"/><text fill="#000000" font-family="sans-serif" font-size="11" lengthAdjust="spacingAndGlyphs" textLength="26" x="261" y="98.4189">-int id</text><text fill="#000000" font-family="sans-serif" font-size="11" lengthAdjust="spacingAndGlyphs" textLength="61" x="261" y="112.2549">-String name</text><text fill="#000000" font-family="sans-serif" font-size="11" lengthAdjust="spacingAndGlyphs" textLength="77" x="261" y="126.0908">-int parkingSlots</text><text fill="#000000" font-family="sans-serif" font-size="11" lengthAdjust="spacingAndGlyphs" textLength="84" x="261" y="139.9268">-int chargingSlots</text><!--MD5=[f4402668d5d5bb8485350c0fdb60ac8e]
class Scooter--><rect fill="#FEFECE" filter="url(#fy9urzwmaivgw)" height="150.6875" id="Scooter" style="stroke: #A80036; stroke-width: 1.5;" width="114" x="6" y="90"/><ellipse cx="39" cy="106" fill="#ADD1B2" rx="11" ry="11" style="stroke: #A80036; stroke-width: 1.0;"/><path d="M41,102.5 Q41.2031,102 41.4375,101.75 Q41.6719,101.5 41.9375,101.5 Q42.4063,101.5 42.7031,101.7813 Q43,102.0625 43,102.7188 L43,104.2813 Q43,104.9375 42.7188,105.2188 Q42.4375,105.5 42,105.5 Q41.6094,105.5 41.3594,105.3281 Q41.1094,105.1563 41,104.7031 Q40.9531,104.3906 40.7813,104.2188 Q40.4688,103.8906 39.9063,103.7031 Q39.3438,103.5 38.7813,103.5 Q38.0781,103.5 37.4844,103.7813 Q36.9063,104.0625 36.4531,104.6875 Q36,105.3125 36,106.1719 L36,107.0938 Q36,108.125 36.8438,108.8125 Q37.6875,109.5 39.1875,109.5 Q40.0781,109.5 40.7031,109.2969 Q41.0625,109.1875 41.4688,108.8281 Q41.7344,108.625 41.875,108.5625 Q42.0156,108.5 42.1875,108.5 Q42.5156,108.5 42.75,108.7656 Q43,109.0156 43,109.375 Q43,109.7188 42.6563,110.125 Q42.1563,110.7188 41.3594,111.0469 Q40.3125,111.5 39.0313,111.5 Q37.5313,111.5 36.3281,110.9063 Q35.3594,110.4375 34.6719,109.4219 Q34,108.4063 34,107.2031 L34,106.1094 Q34,104.8594 34.5938,103.7656 Q35.2031,102.6719 36.25,102.0938 Q37.3125,101.5 38.5,101.5 Q39.2188,101.5 39.8438,101.75 Q40.4688,102 41,102.5 Z "/><text fill="#000000" font-family="sans-serif" font-size="12" lengthAdjust="spacingAndGlyphs" textLength="42" x="57" y="110.9102">Scooter</text><line style="stroke: #A80036; stroke-width: 1.5;" x1="7" x2="119" y1="122" y2="122"/><text fill="#000000" font-family="sans-serif" font-size="11" lengthAdjust="spacingAndGlyphs" textLength="26" x="12" y="137.4189">-int id</text><text fill="#000000" font-family="sans-serif" font-size="11" lengthAdjust="spacingAndGlyphs" textLength="84" x="12" y="151.2549">-float batteryPerc</text><text fill="#000000" font-family="sans-serif" font-size="11" lengthAdjust="spacingAndGlyphs" textLength="102" x="12" y="165.0908">-String charginStatus</text><text fill="#000000" font-family="sans-serif" font-size="11" lengthAdjust="spacingAndGlyphs" textLength="67" x="12" y="178.9268">-float potency</text><text fill="#000000" font-family="sans-serif" font-size="11" lengthAdjust="spacingAndGlyphs" textLength="61" x="12" y="192.7627">-float weight</text><text fill="#000000" font-family="sans-serif" font-size="11" lengthAdjust="spacingAndGlyphs" textLength="94" x="12" y="206.5986">-int batteryCapacity</text><text fill="#000000" font-family="sans-serif" font-size="11" lengthAdjust="spacingAndGlyphs" textLength="86" x="12" y="220.4346">-float maxPayload</text><text fill="#000000" font-family="sans-serif" font-size="11" lengthAdjust="spacingAndGlyphs" textLength="99" x="12" y="234.2705">-float batteryVoltage</text><!--MD5=[0f39e4cb6f03951afbf6d14bd2505654]
class Address--><rect fill="#FEFECE" filter="url(#fy9urzwmaivgw)" height="136.8516" id="Address" style="stroke: #A80036; stroke-width: 1.5;" width="106" x="447" y="30"/><ellipse cx="474.6" cy="46" fill="#ADD1B2" rx="11" ry="11" style="stroke: #A80036; stroke-width: 1.0;"/><path d="M476.6,42.5 Q476.8031,42 477.0375,41.75 Q477.2719,41.5 477.5375,41.5 Q478.0063,41.5 478.3031,41.7813 Q478.6,42.0625 478.6,42.7188 L478.6,44.2813 Q478.6,44.9375 478.3188,45.2188 Q478.0375,45.5 477.6,45.5 Q477.2094,45.5 476.9594,45.3281 Q476.7094,45.1563 476.6,44.7031 Q476.5531,44.3906 476.3813,44.2188 Q476.0688,43.8906 475.5063,43.7031 Q474.9438,43.5 474.3813,43.5 Q473.6781,43.5 473.0844,43.7813 Q472.5063,44.0625 472.0531,44.6875 Q471.6,45.3125 471.6,46.1719 L471.6,47.0938 Q471.6,48.125 472.4438,48.8125 Q473.2875,49.5 474.7875,49.5 Q475.6781,49.5 476.3031,49.2969 Q476.6625,49.1875 477.0688,48.8281 Q477.3344,48.625 477.475,48.5625 Q477.6156,48.5 477.7875,48.5 Q478.1156,48.5 478.35,48.7656 Q478.6,49.0156 478.6,49.375 Q478.6,49.7188 478.2563,50.125 Q477.7563,50.7188 476.9594,51.0469 Q475.9125,51.5 474.6313,51.5 Q473.1313,51.5 471.9281,50.9063 Q470.9594,50.4375 470.2719,49.4219 Q469.6,48.4063 469.6,47.2031 L469.6,46.1094 Q469.6,44.8594 470.1938,43.7656 Q470.8031,42.6719 471.85,42.0938 Q472.9125,41.5 474.1,41.5 Q474.8188,41.5 475.4438,41.75 Q476.0688,42 476.6,42.5 Z "/><text fill="#000000" font-family="sans-serif" font-size="12" lengthAdjust="spacingAndGlyphs" textLength="46" x="491.4" y="50.9102">Address</text><line style="stroke: #A80036; stroke-width: 1.5;" x1="448" x2="552" y1="62" y2="62"/><text fill="#000000" font-family="sans-serif" font-size="11" lengthAdjust="spacingAndGlyphs" textLength="71" x="453" y="77.4189">-float longitude</text><text fill="#000000" font-family="sans-serif" font-size="11" lengthAdjust="spacingAndGlyphs" textLength="62" x="453" y="91.2549">-float latitude</text><text fill="#000000" font-family="sans-serif" font-size="11" lengthAdjust="spacingAndGlyphs" textLength="94" x="453" y="105.0908">-String doorNumber</text><text fill="#000000" font-family="sans-serif" font-size="11" lengthAdjust="spacingAndGlyphs" textLength="90" x="453" y="118.9268">-String streetName</text><text fill="#000000" font-family="sans-serif" font-size="11" lengthAdjust="spacingAndGlyphs" textLength="89" x="453" y="132.7627">-String postalCode</text><text fill="#000000" font-family="sans-serif" font-size="11" lengthAdjust="spacingAndGlyphs" textLength="68" x="453" y="146.5986">-String locality</text><text fill="#000000" font-family="sans-serif" font-size="11" lengthAdjust="spacingAndGlyphs" textLength="72" x="453" y="160.4346">-String country</text><!--MD5=[51d7b9a785c9fb041ca400474ed1d998]
link Database to Pharmacy--><path d="M103.568,42.639 C145.205,54.36 210.718,72.803 254.968,85.26 " fill="none" id="Database-Pharmacy" style="stroke: #A80036; stroke-width: 1.0;"/><text fill="#000000" font-family="sans-serif" font-size="13" lengthAdjust="spacingAndGlyphs" textLength="21" x="170.5" y="53.9951">has</text><polygon fill="#000000" points="194.5,47.1758,200.5,50.1758,194.5,53.1758,194.5,47.1758" style="stroke: #000000; stroke-width: 1.0;"/><text fill="#000000" font-family="sans-serif" font-size="13" lengthAdjust="spacingAndGlyphs" textLength="7" x="111.4176" y="59.6094">1</text><text fill="#000000" font-family="sans-serif" font-size="13" lengthAdjust="spacingAndGlyphs" textLength="5" x="241.9145" y="97.9206">*</text><!--MD5=[6f1b2737b94c689eac8b0af6a5ef1443]
link Scooter to Pharmacy--><path d="M120.101,149.7068 C161.055,138.178 215.956,122.722 254.695,111.817 " fill="none" id="Scooter-Pharmacy" style="stroke: #A80036; stroke-width: 1.0;"/><text fill="#000000" font-family="sans-serif" font-size="13" lengthAdjust="spacingAndGlyphs" textLength="60" x="151" y="118.9951">belongs to</text><polygon fill="#000000" points="214,112.1758,220,115.1758,214,118.1758,214,112.1758" style="stroke: #000000; stroke-width: 1.0;"/><text fill="#000000" font-family="sans-serif" font-size="13" lengthAdjust="spacingAndGlyphs" textLength="5" x="128.1099" y="162.1993">*</text><text fill="#000000" font-family="sans-serif" font-size="13" lengthAdjust="spacingAndGlyphs" textLength="7" x="240.0861" y="128.4436">1</text><!--MD5=[89baec1bfb4a213750f7c61516e0a0f1]
link Pharmacy to Address--><path d="M351.204,98.5 C380.059,98.5 417.008,98.5 446.744,98.5 " fill="none" id="Pharmacy-Address" style="stroke: #A80036; stroke-width: 1.0;"/><text fill="#000000" font-family="sans-serif" font-size="13" lengthAdjust="spacingAndGlyphs" textLength="21" x="382" y="94.9951">has</text><polygon fill="#000000" points="406,88.1758,412,91.1758,406,94.1758,406,88.1758" style="stroke: #000000; stroke-width: 1.0;"/><text fill="#000000" font-family="sans-serif" font-size="13" lengthAdjust="spacingAndGlyphs" textLength="7" x="359.1212" y="113.2207">1</text><text fill="#000000" font-family="sans-serif" font-size="13" lengthAdjust="spacingAndGlyphs" textLength="7" x="432.1174" y="113.1037">1</text><!--MD5=[08765998932bcd21f75f6c0745b16741]
@startuml
skinparam classAttributeIconSize 0
hide methods
left to right direction

database Database {
}

class Pharmacy {
  -int id
  -String name
  -int parkingSlots
  -int chargingSlots
}

class Scooter{
  -int id
  -float batteryPerc
  -String charginStatus
  -float potency
  -float weight
  -int batteryCapacity
  -float maxPayload
  -float batteryVoltage
}

class Address{
  -float longitude
  -float latitude
  -String doorNumber
  -String streetName
  -String postalCode
  -String locality
  -String country
}



Database "1" - - "*" Pharmacy : has >
Scooter "*" - - "1" Pharmacy : belongs to >
Pharmacy "1" - - "1" Address : has >
@enduml

PlantUML version 1.2020.09(Sun May 10 11:51:06 BST 2020)
(GPL source distribution)
Java Runtime: OpenJDK Runtime Environment
JVM: OpenJDK 64-Bit Server VM
Java Version: 11.0.6+8-b765.40
Operating System: Windows 10
Default Encoding: Cp1252
Language: pt
Country: PT
--></g></svg>