<?xml version="1.0" encoding="UTF-8" standalone="no"?><svg xmlns="http://www.w3.org/2000/svg" xmlns:xlink="http://www.w3.org/1999/xlink" contentScriptType="application/ecmascript" contentStyleType="text/css" height="992px" preserveAspectRatio="none" style="width:1480px;height:992px;" version="1.1" viewBox="0 0 1480 992" width="1480px" zoomAndPan="magnify"><defs><filter height="300%" id="fq75kv1wz6g8q" width="300%" x="-1" y="-1"><feGaussianBlur result="blurOut" stdDeviation="2.0"/><feColorMatrix in="blurOut" result="blurOut2" type="matrix" values="0 0 0 0 0 0 0 0 0 0 0 0 0 0 0 0 0 0 .4 0"/><feOffset dx="4.0" dy="4.0" in="blurOut2" result="blurOut3"/><feBlend in="SourceGraphic" in2="blurOut3" mode="normal"/></filter></defs><g><!--MD5=[9681dc6e01e10c6b4fe06895ae94f592]
cluster UI--><polygon fill="#DDDDDD" filter="url(#fq75kv1wz6g8q)" points="43,24,63,24,70,47.6094,223,47.6094,223,124,43,124,43,24" style="stroke: #000000; stroke-width: 1.5;"/><line style="stroke: #000000; stroke-width: 1.5;" x1="43" x2="70" y1="47.6094" y2="47.6094"/><text fill="#000000" font-family="sans-serif" font-size="14" font-weight="bold" lengthAdjust="spacingAndGlyphs" textLength="14" x="47" y="40.5332">UI</text><!--MD5=[1f2cfc53d9d308f53762fd0fcbaa4873]
cluster Controller--><polygon fill="#DDDDDD" filter="url(#fq75kv1wz6g8q)" points="22,157,99,157,106,180.6094,244,180.6094,244,299,22,299,22,157" style="stroke: #000000; stroke-width: 1.5;"/><line style="stroke: #000000; stroke-width: 1.5;" x1="22" x2="106" y1="180.6094" y2="180.6094"/><text fill="#000000" font-family="sans-serif" font-size="14" font-weight="bold" lengthAdjust="spacingAndGlyphs" textLength="71" x="26" y="173.5332">Controller</text><!--MD5=[15636c1ca4a123c16a2a1a8e90aca7a9]
cluster Model--><polygon fill="#DDDDDD" filter="url(#fq75kv1wz6g8q)" points="287,349,337,349,344,372.6094,1047,372.6094,1047,980,287,980,287,349" style="stroke: #000000; stroke-width: 1.5;"/><line style="stroke: #000000; stroke-width: 1.5;" x1="287" x2="344" y1="372.6094" y2="372.6094"/><text fill="#000000" font-family="sans-serif" font-size="14" font-weight="bold" lengthAdjust="spacingAndGlyphs" textLength="44" x="291" y="365.5332">Model</text><!--MD5=[9dd75fd92da113d30380b27734fd2f01]
cluster Service--><polygon fill="#DDDDDD" filter="url(#fq75kv1wz6g8q)" points="311,397,371,397,378,420.6094,683,420.6094,683,539,311,539,311,397" style="stroke: #000000; stroke-width: 1.5;"/><line style="stroke: #000000; stroke-width: 1.5;" x1="311" x2="378" y1="420.6094" y2="420.6094"/><text fill="#000000" font-family="sans-serif" font-size="14" font-weight="bold" lengthAdjust="spacingAndGlyphs" textLength="54" x="315" y="413.5332">Service</text><!--MD5=[f21b1f164e99c6b37934f23ad048ad54]
cluster Data--><polygon fill="#DDDDDD" filter="url(#fq75kv1wz6g8q)" points="1071,404,1108,404,1115,427.6094,1458,427.6094,1458,755,1071,755,1071,404" style="stroke: #000000; stroke-width: 1.5;"/><line style="stroke: #000000; stroke-width: 1.5;" x1="1071" x2="1115" y1="427.6094" y2="427.6094"/><text fill="#000000" font-family="sans-serif" font-size="14" font-weight="bold" lengthAdjust="spacingAndGlyphs" textLength="31" x="1075" y="420.5332">Data</text><!--MD5=[fa1e3283224feb76407c84b7e90ed808]
entity Database--><path d="M999.5,224.5 C999.5,214.5 1040,214.5 1040,214.5 C1040,214.5 1080.5,214.5 1080.5,224.5 L1080.5,251.1094 C1080.5,261.1094 1040,261.1094 1040,261.1094 C1040,261.1094 999.5,261.1094 999.5,251.1094 L999.5,224.5 " fill="#FFFFFF" filter="url(#fq75kv1wz6g8q)" style="stroke: #000000; stroke-width: 1.5;"/><path d="M999.5,224.5 C999.5,234.5 1040,234.5 1040,234.5 C1040,234.5 1080.5,234.5 1080.5,224.5 " fill="none" style="stroke: #000000; stroke-width: 1.5;"/><text fill="#000000" font-family="sans-serif" font-size="14" lengthAdjust="spacingAndGlyphs" textLength="61" x="1009.5" y="253.0332">Database</text><!--MD5=[c1173569b5b0b600dda82c1c79b11dc3]
class ScooterInformationUI--><rect fill="#FEFECE" filter="url(#fq75kv1wz6g8q)" height="48" id="ScooterInformationUI" style="stroke: #A80036; stroke-width: 1.5;" width="148" x="59" y="60"/><ellipse cx="74" cy="76" fill="#ADD1B2" rx="11" ry="11" style="stroke: #A80036; stroke-width: 1.0;"/><path d="M76,72.5 Q76.2031,72 76.4375,71.75 Q76.6719,71.5 76.9375,71.5 Q77.4063,71.5 77.7031,71.7813 Q78,72.0625 78,72.7188 L78,74.2813 Q78,74.9375 77.7188,75.2188 Q77.4375,75.5 77,75.5 Q76.6094,75.5 76.3594,75.3281 Q76.1094,75.1563 76,74.7031 Q75.9531,74.3906 75.7813,74.2188 Q75.4688,73.8906 74.9063,73.7031 Q74.3438,73.5 73.7813,73.5 Q73.0781,73.5 72.4844,73.7813 Q71.9063,74.0625 71.4531,74.6875 Q71,75.3125 71,76.1719 L71,77.0938 Q71,78.125 71.8438,78.8125 Q72.6875,79.5 74.1875,79.5 Q75.0781,79.5 75.7031,79.2969 Q76.0625,79.1875 76.4688,78.8281 Q76.7344,78.625 76.875,78.5625 Q77.0156,78.5 77.1875,78.5 Q77.5156,78.5 77.75,78.7656 Q78,79.0156 78,79.375 Q78,79.7188 77.6563,80.125 Q77.1563,80.7188 76.3594,81.0469 Q75.3125,81.5 74.0313,81.5 Q72.5313,81.5 71.3281,80.9063 Q70.3594,80.4375 69.6719,79.4219 Q69,78.4063 69,77.2031 L69,76.1094 Q69,74.8594 69.5938,73.7656 Q70.2031,72.6719 71.25,72.0938 Q72.3125,71.5 73.5,71.5 Q74.2188,71.5 74.8438,71.75 Q75.4688,72 76,72.5 Z "/><text fill="#000000" font-family="sans-serif" font-size="12" lengthAdjust="spacingAndGlyphs" textLength="116" x="88" y="80.9102">ScooterInformationUI</text><line style="stroke: #A80036; stroke-width: 1.5;" x1="60" x2="206" y1="92" y2="92"/><line style="stroke: #A80036; stroke-width: 1.5;" x1="60" x2="206" y1="100" y2="100"/><!--MD5=[ac3e069f5608a55d83a94371a390203e]
class ScooterInformationController--><rect fill="#FEFECE" filter="url(#fq75kv1wz6g8q)" height="89.5078" id="ScooterInformationController" style="stroke: #A80036; stroke-width: 1.5;" width="190" x="38" y="193"/><ellipse cx="53" cy="209" fill="#ADD1B2" rx="11" ry="11" style="stroke: #A80036; stroke-width: 1.0;"/><path d="M55,205.5 Q55.2031,205 55.4375,204.75 Q55.6719,204.5 55.9375,204.5 Q56.4063,204.5 56.7031,204.7813 Q57,205.0625 57,205.7188 L57,207.2813 Q57,207.9375 56.7188,208.2188 Q56.4375,208.5 56,208.5 Q55.6094,208.5 55.3594,208.3281 Q55.1094,208.1563 55,207.7031 Q54.9531,207.3906 54.7813,207.2188 Q54.4688,206.8906 53.9063,206.7031 Q53.3438,206.5 52.7813,206.5 Q52.0781,206.5 51.4844,206.7813 Q50.9063,207.0625 50.4531,207.6875 Q50,208.3125 50,209.1719 L50,210.0938 Q50,211.125 50.8438,211.8125 Q51.6875,212.5 53.1875,212.5 Q54.0781,212.5 54.7031,212.2969 Q55.0625,212.1875 55.4688,211.8281 Q55.7344,211.625 55.875,211.5625 Q56.0156,211.5 56.1875,211.5 Q56.5156,211.5 56.75,211.7656 Q57,212.0156 57,212.375 Q57,212.7188 56.6563,213.125 Q56.1563,213.7188 55.3594,214.0469 Q54.3125,214.5 53.0313,214.5 Q51.5313,214.5 50.3281,213.9063 Q49.3594,213.4375 48.6719,212.4219 Q48,211.4063 48,210.2031 L48,209.1094 Q48,207.8594 48.5938,206.7656 Q49.2031,205.6719 50.25,205.0938 Q51.3125,204.5 52.5,204.5 Q53.2188,204.5 53.8438,204.75 Q54.4688,205 55,205.5 Z "/><text fill="#000000" font-family="sans-serif" font-size="12" lengthAdjust="spacingAndGlyphs" textLength="158" x="67" y="213.9102">ScooterInformationController</text><line style="stroke: #A80036; stroke-width: 1.5;" x1="39" x2="227" y1="225" y2="225"/><line style="stroke: #A80036; stroke-width: 1.5;" x1="39" x2="227" y1="233" y2="233"/><text fill="#000000" font-family="sans-serif" font-size="11" lengthAdjust="spacingAndGlyphs" textLength="98" x="44" y="248.4189">+showPharmacies()</text><text fill="#000000" font-family="sans-serif" font-size="11" lengthAdjust="spacingAndGlyphs" textLength="159" x="44" y="262.2549">+showScootersList(pharmacyId)</text><text fill="#000000" font-family="sans-serif" font-size="11" lengthAdjust="spacingAndGlyphs" textLength="165" x="44" y="276.0908">+getScooterInformation(scooterId)</text><!--MD5=[f4402668d5d5bb8485350c0fdb60ac8e]
class Scooter--><rect fill="#FEFECE" filter="url(#fq75kv1wz6g8q)" height="186.3594" id="Scooter" style="stroke: #A80036; stroke-width: 1.5;" width="329" x="701.5" y="385"/><ellipse cx="840.75" cy="401" fill="#ADD1B2" rx="11" ry="11" style="stroke: #A80036; stroke-width: 1.0;"/><path d="M842.75,397.5 Q842.9531,397 843.1875,396.75 Q843.4219,396.5 843.6875,396.5 Q844.1563,396.5 844.4531,396.7813 Q844.75,397.0625 844.75,397.7188 L844.75,399.2813 Q844.75,399.9375 844.4688,400.2188 Q844.1875,400.5 843.75,400.5 Q843.3594,400.5 843.1094,400.3281 Q842.8594,400.1563 842.75,399.7031 Q842.7031,399.3906 842.5313,399.2188 Q842.2188,398.8906 841.6563,398.7031 Q841.0938,398.5 840.5313,398.5 Q839.8281,398.5 839.2344,398.7813 Q838.6563,399.0625 838.2031,399.6875 Q837.75,400.3125 837.75,401.1719 L837.75,402.0938 Q837.75,403.125 838.5938,403.8125 Q839.4375,404.5 840.9375,404.5 Q841.8281,404.5 842.4531,404.2969 Q842.8125,404.1875 843.2188,403.8281 Q843.4844,403.625 843.625,403.5625 Q843.7656,403.5 843.9375,403.5 Q844.2656,403.5 844.5,403.7656 Q844.75,404.0156 844.75,404.375 Q844.75,404.7188 844.4063,405.125 Q843.9063,405.7188 843.1094,406.0469 Q842.0625,406.5 840.7813,406.5 Q839.2813,406.5 838.0781,405.9063 Q837.1094,405.4375 836.4219,404.4219 Q835.75,403.4063 835.75,402.2031 L835.75,401.1094 Q835.75,399.8594 836.3438,398.7656 Q836.9531,397.6719 838,397.0938 Q839.0625,396.5 840.25,396.5 Q840.9688,396.5 841.5938,396.75 Q842.2188,397 842.75,397.5 Z "/><text fill="#000000" font-family="sans-serif" font-size="12" lengthAdjust="spacingAndGlyphs" textLength="42" x="861.25" y="405.9102">Scooter</text><line style="stroke: #A80036; stroke-width: 1.5;" x1="702.5" x2="1029.5" y1="417" y2="417"/><text fill="#000000" font-family="sans-serif" font-size="11" lengthAdjust="spacingAndGlyphs" textLength="26" x="707.5" y="432.4189">-int id</text><text fill="#000000" font-family="sans-serif" font-size="11" lengthAdjust="spacingAndGlyphs" textLength="84" x="707.5" y="446.2549">-float batteryPerc</text><text fill="#000000" font-family="sans-serif" font-size="11" lengthAdjust="spacingAndGlyphs" textLength="102" x="707.5" y="460.0908">-String charginStatus</text><text fill="#000000" font-family="sans-serif" font-size="11" lengthAdjust="spacingAndGlyphs" textLength="67" x="707.5" y="473.9268">-float potency</text><text fill="#000000" font-family="sans-serif" font-size="11" lengthAdjust="spacingAndGlyphs" textLength="61" x="707.5" y="487.7627">-float weight</text><text fill="#000000" font-family="sans-serif" font-size="11" lengthAdjust="spacingAndGlyphs" textLength="94" x="707.5" y="501.5986">-int batteryCapacity</text><text fill="#000000" font-family="sans-serif" font-size="11" lengthAdjust="spacingAndGlyphs" textLength="86" x="707.5" y="515.4346">-float maxPayload</text><text fill="#000000" font-family="sans-serif" font-size="11" lengthAdjust="spacingAndGlyphs" textLength="99" x="707.5" y="529.2705">-float batteryVoltage</text><line style="stroke: #A80036; stroke-width: 1.5;" x1="702.5" x2="1029.5" y1="535.6875" y2="535.6875"/><text fill="#000000" font-family="sans-serif" font-size="11" lengthAdjust="spacingAndGlyphs" textLength="225" x="707.5" y="551.1064">+Scooter(batteryPerc, charginStatus, potency,</text><text fill="#000000" font-family="sans-serif" font-size="11" lengthAdjust="spacingAndGlyphs" textLength="314" x="710.5" y="564.9424">weight, batteryCapacity, maxPayload, batteryVoltage, pharmacy)</text><!--MD5=[0f39e4cb6f03951afbf6d14bd2505654]
class Address--><rect fill="#FEFECE" filter="url(#fq75kv1wz6g8q)" height="144.8516" id="Address" style="stroke: #A80036; stroke-width: 1.5;" width="106" x="550" y="819"/><ellipse cx="577.6" cy="835" fill="#ADD1B2" rx="11" ry="11" style="stroke: #A80036; stroke-width: 1.0;"/><path d="M579.6,831.5 Q579.8031,831 580.0375,830.75 Q580.2719,830.5 580.5375,830.5 Q581.0063,830.5 581.3031,830.7813 Q581.6,831.0625 581.6,831.7188 L581.6,833.2813 Q581.6,833.9375 581.3188,834.2188 Q581.0375,834.5 580.6,834.5 Q580.2094,834.5 579.9594,834.3281 Q579.7094,834.1563 579.6,833.7031 Q579.5531,833.3906 579.3813,833.2188 Q579.0688,832.8906 578.5063,832.7031 Q577.9438,832.5 577.3813,832.5 Q576.6781,832.5 576.0844,832.7813 Q575.5063,833.0625 575.0531,833.6875 Q574.6,834.3125 574.6,835.1719 L574.6,836.0938 Q574.6,837.125 575.4438,837.8125 Q576.2875,838.5 577.7875,838.5 Q578.6781,838.5 579.3031,838.2969 Q579.6625,838.1875 580.0688,837.8281 Q580.3344,837.625 580.475,837.5625 Q580.6156,837.5 580.7875,837.5 Q581.1156,837.5 581.35,837.7656 Q581.6,838.0156 581.6,838.375 Q581.6,838.7188 581.2563,839.125 Q580.7563,839.7188 579.9594,840.0469 Q578.9125,840.5 577.6313,840.5 Q576.1313,840.5 574.9281,839.9063 Q573.9594,839.4375 573.2719,838.4219 Q572.6,837.4063 572.6,836.2031 L572.6,835.1094 Q572.6,833.8594 573.1938,832.7656 Q573.8031,831.6719 574.85,831.0938 Q575.9125,830.5 577.1,830.5 Q577.8188,830.5 578.4438,830.75 Q579.0688,831 579.6,831.5 Z "/><text fill="#000000" font-family="sans-serif" font-size="12" lengthAdjust="spacingAndGlyphs" textLength="46" x="594.4" y="839.9102">Address</text><line style="stroke: #A80036; stroke-width: 1.5;" x1="551" x2="655" y1="851" y2="851"/><text fill="#000000" font-family="sans-serif" font-size="11" lengthAdjust="spacingAndGlyphs" textLength="71" x="556" y="866.4189">-float longitude</text><text fill="#000000" font-family="sans-serif" font-size="11" lengthAdjust="spacingAndGlyphs" textLength="62" x="556" y="880.2549">-float latitude</text><text fill="#000000" font-family="sans-serif" font-size="11" lengthAdjust="spacingAndGlyphs" textLength="94" x="556" y="894.0908">-String doorNumber</text><text fill="#000000" font-family="sans-serif" font-size="11" lengthAdjust="spacingAndGlyphs" textLength="90" x="556" y="907.9268">-String streetName</text><text fill="#000000" font-family="sans-serif" font-size="11" lengthAdjust="spacingAndGlyphs" textLength="89" x="556" y="921.7627">-String postalCode</text><text fill="#000000" font-family="sans-serif" font-size="11" lengthAdjust="spacingAndGlyphs" textLength="68" x="556" y="935.5986">-String locality</text><text fill="#000000" font-family="sans-serif" font-size="11" lengthAdjust="spacingAndGlyphs" textLength="72" x="556" y="949.4346">-String country</text><line style="stroke: #A80036; stroke-width: 1.5;" x1="551" x2="655" y1="955.8516" y2="955.8516"/><!--MD5=[7f2a9fafcebe4f099f71398fd3e2ed00]
class Pharmacy--><rect fill="#FEFECE" filter="url(#fq75kv1wz6g8q)" height="89.5078" id="Pharmacy" style="stroke: #A80036; stroke-width: 1.5;" width="158" x="524" y="649"/><ellipse cx="571.25" cy="665" fill="#ADD1B2" rx="11" ry="11" style="stroke: #A80036; stroke-width: 1.0;"/><path d="M573.25,661.5 Q573.4531,661 573.6875,660.75 Q573.9219,660.5 574.1875,660.5 Q574.6563,660.5 574.9531,660.7813 Q575.25,661.0625 575.25,661.7188 L575.25,663.2813 Q575.25,663.9375 574.9688,664.2188 Q574.6875,664.5 574.25,664.5 Q573.8594,664.5 573.6094,664.3281 Q573.3594,664.1563 573.25,663.7031 Q573.2031,663.3906 573.0313,663.2188 Q572.7188,662.8906 572.1563,662.7031 Q571.5938,662.5 571.0313,662.5 Q570.3281,662.5 569.7344,662.7813 Q569.1563,663.0625 568.7031,663.6875 Q568.25,664.3125 568.25,665.1719 L568.25,666.0938 Q568.25,667.125 569.0938,667.8125 Q569.9375,668.5 571.4375,668.5 Q572.3281,668.5 572.9531,668.2969 Q573.3125,668.1875 573.7188,667.8281 Q573.9844,667.625 574.125,667.5625 Q574.2656,667.5 574.4375,667.5 Q574.7656,667.5 575,667.7656 Q575.25,668.0156 575.25,668.375 Q575.25,668.7188 574.9063,669.125 Q574.4063,669.7188 573.6094,670.0469 Q572.5625,670.5 571.2813,670.5 Q569.7813,670.5 568.5781,669.9063 Q567.6094,669.4375 566.9219,668.4219 Q566.25,667.4063 566.25,666.2031 L566.25,665.1094 Q566.25,663.8594 566.8438,662.7656 Q567.4531,661.6719 568.5,661.0938 Q569.5625,660.5 570.75,660.5 Q571.4688,660.5 572.0938,660.75 Q572.7188,661 573.25,661.5 Z "/><text fill="#000000" font-family="sans-serif" font-size="12" lengthAdjust="spacingAndGlyphs" textLength="55" x="591.75" y="669.9102">Pharmacy</text><line style="stroke: #A80036; stroke-width: 1.5;" x1="525" x2="681" y1="681" y2="681"/><text fill="#000000" font-family="sans-serif" font-size="11" lengthAdjust="spacingAndGlyphs" textLength="26" x="530" y="696.4189">-int id</text><text fill="#000000" font-family="sans-serif" font-size="11" lengthAdjust="spacingAndGlyphs" textLength="61" x="530" y="710.2549">-String name</text><line style="stroke: #A80036; stroke-width: 1.5;" x1="525" x2="681" y1="716.6719" y2="716.6719"/><text fill="#000000" font-family="sans-serif" font-size="11" lengthAdjust="spacingAndGlyphs" textLength="146" x="530" y="732.0908">+getScootersList(pharmacyId)</text><!--MD5=[28160fdc0be430cd6f04db15a7547552]
class PharmacyService--><rect fill="#FEFECE" filter="url(#fq75kv1wz6g8q)" height="75.6719" id="PharmacyService" style="stroke: #A80036; stroke-width: 1.5;" width="127" x="539.5" y="440"/><ellipse cx="554.5" cy="456" fill="#ADD1B2" rx="11" ry="11" style="stroke: #A80036; stroke-width: 1.0;"/><path d="M556.5,452.5 Q556.7031,452 556.9375,451.75 Q557.1719,451.5 557.4375,451.5 Q557.9063,451.5 558.2031,451.7813 Q558.5,452.0625 558.5,452.7188 L558.5,454.2813 Q558.5,454.9375 558.2188,455.2188 Q557.9375,455.5 557.5,455.5 Q557.1094,455.5 556.8594,455.3281 Q556.6094,455.1563 556.5,454.7031 Q556.4531,454.3906 556.2813,454.2188 Q555.9688,453.8906 555.4063,453.7031 Q554.8438,453.5 554.2813,453.5 Q553.5781,453.5 552.9844,453.7813 Q552.4063,454.0625 551.9531,454.6875 Q551.5,455.3125 551.5,456.1719 L551.5,457.0938 Q551.5,458.125 552.3438,458.8125 Q553.1875,459.5 554.6875,459.5 Q555.5781,459.5 556.2031,459.2969 Q556.5625,459.1875 556.9688,458.8281 Q557.2344,458.625 557.375,458.5625 Q557.5156,458.5 557.6875,458.5 Q558.0156,458.5 558.25,458.7656 Q558.5,459.0156 558.5,459.375 Q558.5,459.7188 558.1563,460.125 Q557.6563,460.7188 556.8594,461.0469 Q555.8125,461.5 554.5313,461.5 Q553.0313,461.5 551.8281,460.9063 Q550.8594,460.4375 550.1719,459.4219 Q549.5,458.4063 549.5,457.2031 L549.5,456.1094 Q549.5,454.8594 550.0938,453.7656 Q550.7031,452.6719 551.75,452.0938 Q552.8125,451.5 554,451.5 Q554.7188,451.5 555.3438,451.75 Q555.9688,452 556.5,452.5 Z "/><text fill="#000000" font-family="sans-serif" font-size="12" lengthAdjust="spacingAndGlyphs" textLength="95" x="568.5" y="460.9102">PharmacyService</text><line style="stroke: #A80036; stroke-width: 1.5;" x1="540.5" x2="665.5" y1="472" y2="472"/><line style="stroke: #A80036; stroke-width: 1.5;" x1="540.5" x2="665.5" y1="480" y2="480"/><text fill="#000000" font-family="sans-serif" font-size="11" lengthAdjust="spacingAndGlyphs" textLength="99" x="545.5" y="495.4189">+PharmacyService()</text><text fill="#000000" font-family="sans-serif" font-size="11" lengthAdjust="spacingAndGlyphs" textLength="85" x="545.5" y="509.2549">+getPharmacies()</text><!--MD5=[aa4a745fe56463fab637f55d2a7c778f]
class ScooterService--><rect fill="#FEFECE" filter="url(#fq75kv1wz6g8q)" height="89.5078" id="ScooterService" style="stroke: #A80036; stroke-width: 1.5;" width="177" x="327.5" y="433"/><ellipse cx="370.85" cy="449" fill="#ADD1B2" rx="11" ry="11" style="stroke: #A80036; stroke-width: 1.0;"/><path d="M372.85,445.5 Q373.0531,445 373.2875,444.75 Q373.5219,444.5 373.7875,444.5 Q374.2563,444.5 374.5531,444.7813 Q374.85,445.0625 374.85,445.7188 L374.85,447.2813 Q374.85,447.9375 374.5688,448.2188 Q374.2875,448.5 373.85,448.5 Q373.4594,448.5 373.2094,448.3281 Q372.9594,448.1563 372.85,447.7031 Q372.8031,447.3906 372.6313,447.2188 Q372.3188,446.8906 371.7563,446.7031 Q371.1938,446.5 370.6313,446.5 Q369.9281,446.5 369.3344,446.7813 Q368.7563,447.0625 368.3031,447.6875 Q367.85,448.3125 367.85,449.1719 L367.85,450.0938 Q367.85,451.125 368.6938,451.8125 Q369.5375,452.5 371.0375,452.5 Q371.9281,452.5 372.5531,452.2969 Q372.9125,452.1875 373.3188,451.8281 Q373.5844,451.625 373.725,451.5625 Q373.8656,451.5 374.0375,451.5 Q374.3656,451.5 374.6,451.7656 Q374.85,452.0156 374.85,452.375 Q374.85,452.7188 374.5063,453.125 Q374.0063,453.7188 373.2094,454.0469 Q372.1625,454.5 370.8813,454.5 Q369.3813,454.5 368.1781,453.9063 Q367.2094,453.4375 366.5219,452.4219 Q365.85,451.4063 365.85,450.2031 L365.85,449.1094 Q365.85,447.8594 366.4438,446.7656 Q367.0531,445.6719 368.1,445.0938 Q369.1625,444.5 370.35,444.5 Q371.0688,444.5 371.6938,444.75 Q372.3188,445 372.85,445.5 Z "/><text fill="#000000" font-family="sans-serif" font-size="12" lengthAdjust="spacingAndGlyphs" textLength="82" x="391.15" y="453.9102">ScooterService</text><line style="stroke: #A80036; stroke-width: 1.5;" x1="328.5" x2="503.5" y1="465" y2="465"/><line style="stroke: #A80036; stroke-width: 1.5;" x1="328.5" x2="503.5" y1="473" y2="473"/><text fill="#000000" font-family="sans-serif" font-size="11" lengthAdjust="spacingAndGlyphs" textLength="89" x="333.5" y="488.4189">+ScooterService()</text><text fill="#000000" font-family="sans-serif" font-size="11" lengthAdjust="spacingAndGlyphs" textLength="90" x="333.5" y="502.2549">+getScootersList()</text><text fill="#000000" font-family="sans-serif" font-size="11" lengthAdjust="spacingAndGlyphs" textLength="165" x="333.5" y="516.0908">+getScooterInformation(scooterId)</text><!--MD5=[4b2d61224b33971326a22fe5d809d926]
class DataHandler--><rect fill="#FEFECE" filter="url(#fq75kv1wz6g8q)" height="75.6719" id="DataHandler" style="stroke: #A80036; stroke-width: 1.5;" width="104" x="1316" y="440"/><ellipse cx="1331.9" cy="456" fill="#ADD1B2" rx="11" ry="11" style="stroke: #A80036; stroke-width: 1.0;"/><path d="M1333.9,452.5 Q1334.1031,452 1334.3375,451.75 Q1334.5719,451.5 1334.8375,451.5 Q1335.3063,451.5 1335.6031,451.7813 Q1335.9,452.0625 1335.9,452.7188 L1335.9,454.2813 Q1335.9,454.9375 1335.6188,455.2188 Q1335.3375,455.5 1334.9,455.5 Q1334.5094,455.5 1334.2594,455.3281 Q1334.0094,455.1563 1333.9,454.7031 Q1333.8531,454.3906 1333.6813,454.2188 Q1333.3688,453.8906 1332.8063,453.7031 Q1332.2438,453.5 1331.6813,453.5 Q1330.9781,453.5 1330.3844,453.7813 Q1329.8063,454.0625 1329.3531,454.6875 Q1328.9,455.3125 1328.9,456.1719 L1328.9,457.0938 Q1328.9,458.125 1329.7438,458.8125 Q1330.5875,459.5 1332.0875,459.5 Q1332.9781,459.5 1333.6031,459.2969 Q1333.9625,459.1875 1334.3688,458.8281 Q1334.6344,458.625 1334.775,458.5625 Q1334.9156,458.5 1335.0875,458.5 Q1335.4156,458.5 1335.65,458.7656 Q1335.9,459.0156 1335.9,459.375 Q1335.9,459.7188 1335.5563,460.125 Q1335.0563,460.7188 1334.2594,461.0469 Q1333.2125,461.5 1331.9313,461.5 Q1330.4313,461.5 1329.2281,460.9063 Q1328.2594,460.4375 1327.5719,459.4219 Q1326.9,458.4063 1326.9,457.2031 L1326.9,456.1094 Q1326.9,454.8594 1327.4938,453.7656 Q1328.1031,452.6719 1329.15,452.0938 Q1330.2125,451.5 1331.4,451.5 Q1332.1188,451.5 1332.7438,451.75 Q1333.3688,452 1333.9,452.5 Z "/><text fill="#000000" font-family="sans-serif" font-size="12" lengthAdjust="spacingAndGlyphs" textLength="70" x="1346.1" y="460.9102">DataHandler</text><line style="stroke: #A80036; stroke-width: 1.5;" x1="1317" x2="1419" y1="472" y2="472"/><line style="stroke: #A80036; stroke-width: 1.5;" x1="1317" x2="1419" y1="480" y2="480"/><text fill="#000000" font-family="sans-serif" font-size="11" lengthAdjust="spacingAndGlyphs" textLength="92" x="1322" y="495.4189">+openConnection()</text><text fill="#000000" font-family="sans-serif" font-size="11" lengthAdjust="spacingAndGlyphs" textLength="52" x="1322" y="509.2549">+closeAll()</text><!--MD5=[b860ecc58d0ca70e482845cb1f7b4615]
class PharmacyDB--><rect fill="#FEFECE" filter="url(#fq75kv1wz6g8q)" height="75.6719" id="PharmacyDB" style="stroke: #A80036; stroke-width: 1.5;" width="104" x="1087" y="656"/><ellipse cx="1102" cy="672" fill="#ADD1B2" rx="11" ry="11" style="stroke: #A80036; stroke-width: 1.0;"/><path d="M1104,668.5 Q1104.2031,668 1104.4375,667.75 Q1104.6719,667.5 1104.9375,667.5 Q1105.4063,667.5 1105.7031,667.7813 Q1106,668.0625 1106,668.7188 L1106,670.2813 Q1106,670.9375 1105.7188,671.2188 Q1105.4375,671.5 1105,671.5 Q1104.6094,671.5 1104.3594,671.3281 Q1104.1094,671.1563 1104,670.7031 Q1103.9531,670.3906 1103.7813,670.2188 Q1103.4688,669.8906 1102.9063,669.7031 Q1102.3438,669.5 1101.7813,669.5 Q1101.0781,669.5 1100.4844,669.7813 Q1099.9063,670.0625 1099.4531,670.6875 Q1099,671.3125 1099,672.1719 L1099,673.0938 Q1099,674.125 1099.8438,674.8125 Q1100.6875,675.5 1102.1875,675.5 Q1103.0781,675.5 1103.7031,675.2969 Q1104.0625,675.1875 1104.4688,674.8281 Q1104.7344,674.625 1104.875,674.5625 Q1105.0156,674.5 1105.1875,674.5 Q1105.5156,674.5 1105.75,674.7656 Q1106,675.0156 1106,675.375 Q1106,675.7188 1105.6563,676.125 Q1105.1563,676.7188 1104.3594,677.0469 Q1103.3125,677.5 1102.0313,677.5 Q1100.5313,677.5 1099.3281,676.9063 Q1098.3594,676.4375 1097.6719,675.4219 Q1097,674.4063 1097,673.2031 L1097,672.1094 Q1097,670.8594 1097.5938,669.7656 Q1098.2031,668.6719 1099.25,668.0938 Q1100.3125,667.5 1101.5,667.5 Q1102.2188,667.5 1102.8438,667.75 Q1103.4688,668 1104,668.5 Z "/><text fill="#000000" font-family="sans-serif" font-size="12" lengthAdjust="spacingAndGlyphs" textLength="72" x="1116" y="676.9102">PharmacyDB</text><line style="stroke: #A80036; stroke-width: 1.5;" x1="1088" x2="1190" y1="688" y2="688"/><line style="stroke: #A80036; stroke-width: 1.5;" x1="1088" x2="1190" y1="696" y2="696"/><text fill="#000000" font-family="sans-serif" font-size="11" lengthAdjust="spacingAndGlyphs" textLength="76" x="1093" y="711.4189">+PharmacyDB()</text><text fill="#000000" font-family="sans-serif" font-size="11" lengthAdjust="spacingAndGlyphs" textLength="85" x="1093" y="725.2549">+getPharmacies()</text><!--MD5=[48d7298b3bd1f8b3e8f77915e881d788]
class ScooterDB--><rect fill="#FEFECE" filter="url(#fq75kv1wz6g8q)" height="89.5078" id="ScooterDB" style="stroke: #A80036; stroke-width: 1.5;" width="215" x="1226.5" y="649"/><ellipse cx="1300.25" cy="665" fill="#ADD1B2" rx="11" ry="11" style="stroke: #A80036; stroke-width: 1.0;"/><path d="M1302.25,661.5 Q1302.4531,661 1302.6875,660.75 Q1302.9219,660.5 1303.1875,660.5 Q1303.6563,660.5 1303.9531,660.7813 Q1304.25,661.0625 1304.25,661.7188 L1304.25,663.2813 Q1304.25,663.9375 1303.9688,664.2188 Q1303.6875,664.5 1303.25,664.5 Q1302.8594,664.5 1302.6094,664.3281 Q1302.3594,664.1563 1302.25,663.7031 Q1302.2031,663.3906 1302.0313,663.2188 Q1301.7188,662.8906 1301.1563,662.7031 Q1300.5938,662.5 1300.0313,662.5 Q1299.3281,662.5 1298.7344,662.7813 Q1298.1563,663.0625 1297.7031,663.6875 Q1297.25,664.3125 1297.25,665.1719 L1297.25,666.0938 Q1297.25,667.125 1298.0938,667.8125 Q1298.9375,668.5 1300.4375,668.5 Q1301.3281,668.5 1301.9531,668.2969 Q1302.3125,668.1875 1302.7188,667.8281 Q1302.9844,667.625 1303.125,667.5625 Q1303.2656,667.5 1303.4375,667.5 Q1303.7656,667.5 1304,667.7656 Q1304.25,668.0156 1304.25,668.375 Q1304.25,668.7188 1303.9063,669.125 Q1303.4063,669.7188 1302.6094,670.0469 Q1301.5625,670.5 1300.2813,670.5 Q1298.7813,670.5 1297.5781,669.9063 Q1296.6094,669.4375 1295.9219,668.4219 Q1295.25,667.4063 1295.25,666.2031 L1295.25,665.1094 Q1295.25,663.8594 1295.8438,662.7656 Q1296.4531,661.6719 1297.5,661.0938 Q1298.5625,660.5 1299.75,660.5 Q1300.4688,660.5 1301.0938,660.75 Q1301.7188,661 1302.25,661.5 Z "/><text fill="#000000" font-family="sans-serif" font-size="12" lengthAdjust="spacingAndGlyphs" textLength="59" x="1320.75" y="669.9102">ScooterDB</text><line style="stroke: #A80036; stroke-width: 1.5;" x1="1227.5" x2="1440.5" y1="681" y2="681"/><line style="stroke: #A80036; stroke-width: 1.5;" x1="1227.5" x2="1440.5" y1="689" y2="689"/><text fill="#000000" font-family="sans-serif" font-size="11" lengthAdjust="spacingAndGlyphs" textLength="66" x="1232.5" y="704.4189">+ScooterDB()</text><text fill="#000000" font-family="sans-serif" font-size="11" lengthAdjust="spacingAndGlyphs" textLength="90" x="1232.5" y="718.2549">+getScootersList()</text><text fill="#000000" font-family="sans-serif" font-size="11" lengthAdjust="spacingAndGlyphs" textLength="203" x="1232.5" y="732.0908">+getScooterInformationFromDB(scooterId)</text><!--MD5=[f40d64c3825bdc96a4efd5b7e3ff1420]
reverse link DataHandler to PharmacyDB--><path d="M1325.46,531.813 C1314.06,545.032 1301.44,558.888 1289,571 C1257.61,601.559 1219.25,632.665 1189.17,655.82 " fill="none" id="DataHandler&lt;-PharmacyDB" style="stroke: #A80036; stroke-width: 1.0;"/><polygon fill="none" points="1320.41,526.939,1338.66,516.164,1331.12,535.965,1320.41,526.939" style="stroke: #A80036; stroke-width: 1.0;"/><!--MD5=[a2c65173c20bdf66914a8ed43c34e217]
reverse link DataHandler to ScooterDB--><path d="M1358.89,536.344 C1353.28,571.638 1346.2,616.193 1341.03,648.756 " fill="none" id="DataHandler&lt;-ScooterDB" style="stroke: #A80036; stroke-width: 1.0;"/><polygon fill="none" points="1352.03,534.93,1362.08,516.276,1365.85,537.127,1352.03,534.93" style="stroke: #A80036; stroke-width: 1.0;"/><!--MD5=[b1ee2edeb49b57d90d36e81718c221fe]
link ScooterInformationUI to ScooterInformationController--><path d="M133,108.086 C133,129.108 133,160.852 133,187.58 " fill="none" id="ScooterInformationUI-&gt;ScooterInformationController" style="stroke: #A80036; stroke-width: 1.0; stroke-dasharray: 7.0,7.0;"/><polygon fill="#A80036" points="133,192.853,137,183.853,133,187.853,129,183.853,133,192.853" style="stroke: #A80036; stroke-width: 1.0;"/><!--MD5=[c4f46c7786367c8530505f8181d6f440]
link ScooterInformationController to PharmacyService--><path d="M228.135,243.888 C312.765,252.576 436.083,276.357 522,341 C553.476,364.682 575.097,404.478 588.032,434.921 " fill="none" id="ScooterInformationController-&gt;PharmacyService" style="stroke: #A80036; stroke-width: 1.0; stroke-dasharray: 7.0,7.0;"/><polygon fill="#A80036" points="590.034,439.722,590.2617,429.8758,588.1095,435.1072,582.8781,432.955,590.034,439.722" style="stroke: #A80036; stroke-width: 1.0;"/><!--MD5=[147d5fc4fb6a269929c2f37f0ed303df]
link ScooterInformationController to ScooterService--><path d="M121.99,283.293 C120.347,300.967 122.477,320.132 135,333 C147.801,346.154 283.525,332.909 300,341 C338.231,359.776 368.811,397.511 388.955,428.479 " fill="none" id="ScooterInformationController-&gt;ScooterService" style="stroke: #A80036; stroke-width: 1.0; stroke-dasharray: 7.0,7.0;"/><polygon fill="#A80036" points="391.851,432.996,390.3618,423.2604,389.1528,428.7865,383.6266,427.5775,391.851,432.996" style="stroke: #A80036; stroke-width: 1.0;"/><!--MD5=[04ba2cb7f5803b19c0d0e740f2a895e0]
link Database to PharmacyDB--><path d="M1054.12,261.79 C1062.59,276.47 1072.87,296.251 1079,315 C1099.21,376.866 1123.62,565.396 1133.97,650.509 " fill="none" id="Database-&gt;PharmacyDB" style="stroke: #A80036; stroke-width: 1.0;"/><polygon fill="#A80036" points="1134.61,655.717,1137.4969,646.3007,1134.0078,650.7534,1129.5551,647.2643,1134.61,655.717" style="stroke: #A80036; stroke-width: 1.0;"/><text fill="#000000" font-family="sans-serif" font-size="13" lengthAdjust="spacingAndGlyphs" textLength="53" x="1125" y="483.4951">manages</text><text fill="#000000" font-family="sans-serif" font-size="13" lengthAdjust="spacingAndGlyphs" textLength="7" x="1049.5759" y="282.7224">1</text><text fill="#000000" font-family="sans-serif" font-size="13" lengthAdjust="spacingAndGlyphs" textLength="7" x="1126.2046" y="645.0285">1</text><!--MD5=[70f68ce34a156c56edce71dba5c758e9]
link Database to ScooterDB--><path d="M1080.8,257.081 C1114.32,274.023 1160.47,302.51 1187,341 C1246.77,427.708 1199.21,475.683 1244,571 C1256.33,597.238 1274.71,623.483 1291.65,644.871 " fill="none" id="Database-&gt;ScooterDB" style="stroke: #A80036; stroke-width: 1.0;"/><polygon fill="#A80036" points="1294.8,648.807,1292.2991,639.281,1291.6757,644.9034,1286.0533,644.2799,1294.8,648.807" style="stroke: #A80036; stroke-width: 1.0;"/><text fill="#000000" font-family="sans-serif" font-size="13" lengthAdjust="spacingAndGlyphs" textLength="53" x="1245" y="483.4951">manages</text><text fill="#000000" font-family="sans-serif" font-size="13" lengthAdjust="spacingAndGlyphs" textLength="7" x="1088.4141" y="256.5444">1</text><text fill="#000000" font-family="sans-serif" font-size="13" lengthAdjust="spacingAndGlyphs" textLength="7" x="1281.2616" y="638.2215">1</text><!--MD5=[ee7ed70a83e67b7f86b44988d609d45d]
link ScooterService to PharmacyDB--><path d="M454.491,523.112 C472.963,541.215 496.593,560.384 522,571 C682.406,638.024 742.135,564.011 912,601 C934.669,605.936 939.157,611.179 961,619 C999.112,632.646 1009.57,633.577 1047,649 C1058.56,653.764 1070.75,659.248 1082.33,664.693 " fill="none" id="ScooterService-&gt;PharmacyDB" style="stroke: #A80036; stroke-width: 1.0;"/><polygon fill="#A80036" points="1086.91,666.857,1080.4719,659.4038,1082.3865,664.7268,1077.0635,666.6414,1086.91,666.857" style="stroke: #A80036; stroke-width: 1.0;"/><text fill="#000000" font-family="sans-serif" font-size="13" lengthAdjust="spacingAndGlyphs" textLength="28" x="962" y="615.4951">uses</text><text fill="#000000" font-family="sans-serif" font-size="13" lengthAdjust="spacingAndGlyphs" textLength="7" x="452.4116" y="544.1353">1</text><text fill="#000000" font-family="sans-serif" font-size="13" lengthAdjust="spacingAndGlyphs" textLength="5" x="1073.8921" y="659.2404">*</text><!--MD5=[799b1f05f2692ceb79e345e4105e6b42]
link PharmacyService to ScooterDB--><path d="M620.272,516.096 C631.522,535.864 648.182,558.603 670,571 C733.061,606.83 923.355,589.706 995,601 C1091.29,616.178 1115.31,622.104 1209,649 C1213.05,650.163 1217.17,651.386 1221.31,652.653 " fill="none" id="PharmacyService-&gt;ScooterDB" style="stroke: #A80036; stroke-width: 1.0;"/><polygon fill="#A80036" points="1226.19,654.16,1218.7839,647.6677,1221.4156,652.6751,1216.4081,655.3068,1226.19,654.16" style="stroke: #A80036; stroke-width: 1.0;"/><text fill="#000000" font-family="sans-serif" font-size="13" lengthAdjust="spacingAndGlyphs" textLength="28" x="1094" y="615.4951">uses</text><text fill="#000000" font-family="sans-serif" font-size="13" lengthAdjust="spacingAndGlyphs" textLength="7" x="615.553" y="537.2821">1</text><text fill="#000000" font-family="sans-serif" font-size="13" lengthAdjust="spacingAndGlyphs" textLength="5" x="1213.4338" y="648.321">*</text><!--MD5=[2ed2b43e7f6d114538396b0b10b28567]
link PharmacyService to Pharmacy--><path d="M603,516.276 C603,551.574 603,604.804 603,643.618 " fill="none" id="PharmacyService-&gt;Pharmacy" style="stroke: #A80036; stroke-width: 1.0;"/><polygon fill="#A80036" points="603,648.756,607,639.756,603,643.756,599,639.756,603,648.756" style="stroke: #A80036; stroke-width: 1.0;"/><text fill="#000000" font-family="sans-serif" font-size="13" lengthAdjust="spacingAndGlyphs" textLength="111" x="604" y="615.4951">manage services of</text><text fill="#000000" font-family="sans-serif" font-size="13" lengthAdjust="spacingAndGlyphs" textLength="7" x="595.4422" y="537.2005">1</text><text fill="#000000" font-family="sans-serif" font-size="13" lengthAdjust="spacingAndGlyphs" textLength="5" x="597.6172" y="638.1627">*</text><!--MD5=[51d7b9a785c9fb041ca400474ed1d998]
link Database to Pharmacy--><path d="M999.257,240.925 C840.128,248.851 266.698,281.394 214,341 C146.292,417.583 153.492,488.61 214,571 C250.868,621.201 420.906,660.04 523.579,679.411 " fill="none" id="Database-Pharmacy" style="stroke: #A80036; stroke-width: 1.0;"/><polygon fill="#000000" points="222,476.6758,216,479.6758,222,482.6758,222,476.6758" style="stroke: #000000; stroke-width: 1.0;"/><text fill="#000000" font-family="sans-serif" font-size="13" lengthAdjust="spacingAndGlyphs" textLength="82" x="228" y="483.4951">has registered</text><text fill="#000000" font-family="sans-serif" font-size="13" lengthAdjust="spacingAndGlyphs" textLength="7" x="984.3762" y="237.5822">1</text><text fill="#000000" font-family="sans-serif" font-size="13" lengthAdjust="spacingAndGlyphs" textLength="5" x="511.0269" y="674.8626">*</text><!--MD5=[f4a94ba2ad2673d4959409a96e63c979]
link Database to Scooter--><path d="M1020.8,261.571 C1008.3,276.495 991.813,296.625 978,315 C961.256,337.275 943.821,361.786 927.833,384.852 " fill="none" id="Database-Scooter" style="stroke: #A80036; stroke-width: 1.0;"/><text fill="#000000" font-family="sans-serif" font-size="13" lengthAdjust="spacingAndGlyphs" textLength="82" x="979" y="329.4951">has registered</text><polygon fill="#000000" points="1015.5,338.3516,1018.5,344.3516,1021.5,338.3516,1015.5,338.3516" style="stroke: #000000; stroke-width: 1.0;"/><text fill="#000000" font-family="sans-serif" font-size="13" lengthAdjust="spacingAndGlyphs" textLength="7" x="1008.5506" y="282.4527">1</text><text fill="#000000" font-family="sans-serif" font-size="13" lengthAdjust="spacingAndGlyphs" textLength="5" x="927.5611" y="374.2866">*</text><!--MD5=[6f1b2737b94c689eac8b0af6a5ef1443]
link Scooter to Pharmacy--><path d="M778.74,571.153 C761.258,587.825 742.545,604.5 724,619 C710.615,629.465 695.655,639.665 680.942,648.982 " fill="none" id="Scooter-Pharmacy" style="stroke: #A80036; stroke-width: 1.0;"/><polygon fill="#000000" points="753,608.6758,747,611.6758,753,614.6758,753,608.6758" style="stroke: #000000; stroke-width: 1.0;"/><text fill="#000000" font-family="sans-serif" font-size="13" lengthAdjust="spacingAndGlyphs" textLength="60" x="759" y="615.4951">belongs to</text><text fill="#000000" font-family="sans-serif" font-size="13" lengthAdjust="spacingAndGlyphs" textLength="5" x="766.5873" y="592.7084">*</text><text fill="#000000" font-family="sans-serif" font-size="13" lengthAdjust="spacingAndGlyphs" textLength="7" x="685.8062" y="638.0946">1</text><!--MD5=[89baec1bfb4a213750f7c61516e0a0f1]
link Pharmacy to Address--><path d="M603,739.362 C603,762.795 603,792.132 603,818.709 " fill="none" id="Pharmacy-Address" style="stroke: #A80036; stroke-width: 1.0;"/><text fill="#000000" font-family="sans-serif" font-size="13" lengthAdjust="spacingAndGlyphs" textLength="21" x="604" y="785.4951">has</text><polygon fill="#000000" points="610,794.3516,613,800.3516,616,794.3516,610,794.3516" style="stroke: #000000; stroke-width: 1.0;"/><text fill="#000000" font-family="sans-serif" font-size="13" lengthAdjust="spacingAndGlyphs" textLength="7" x="595.5297" y="760.0843">1</text><text fill="#000000" font-family="sans-serif" font-size="13" lengthAdjust="spacingAndGlyphs" textLength="7" x="595.6391" y="807.8983">1</text><!--MD5=[ecee4808b60523e7456b285358deb68b]
@startuml
skinparam classAttributeIconSize 0

database Database {
}

package "UI" #DDDDDD {
class ScooterInformationUI{
}
}

package "Controller" #DDDDDD {
class ScooterInformationController{
+showPharmacies()
+showScootersList(pharmacyId)
+getScooterInformation(scooterId)
}
}


package "Model" #DDDDDD {
 package "Service" #DDDDDD {
  class PharmacyService{
      +PharmacyService()
      +getPharmacies()
  }

  class ScooterService{
      +ScooterService()
      +getScootersList()
      +getScooterInformation(scooterId)
   }
}

package "Model" #DDDDDD {
class Scooter{
  -int id
  -float batteryPerc
  -String charginStatus
  -float potency
  -float weight
  -int batteryCapacity
  -float maxPayload
  -float batteryVoltage
  +Scooter(batteryPerc, charginStatus, potency,\n weight, batteryCapacity, maxPayload, batteryVoltage, pharmacy)
}

class Address{
  -float longitude
  -float latitude
  -String doorNumber
  -String streetName
  -String postalCode
  -String locality
  -String country
}

class Pharmacy {
  -int id
  -String name
  +getScootersList(pharmacyId)
}
}


package "Data" #DDDDDD {
class DataHandler{
    +openConnection()
    +closeAll()
}
class PharmacyDB{
     +PharmacyDB()
     +getPharmacies()
 }

 class ScooterDB{
     +ScooterDB()
     +getScootersList()
     +getScooterInformationFromDB(scooterId)
  }
}

class PharmacyDB extends DataHandler
class ScooterDB extends DataHandler

ScooterInformationUI ..> ScooterInformationController
ScooterInformationController ..> PharmacyService
ScooterInformationController ..> ScooterService
Database "1" - -> "1" PharmacyDB : manages
Database "1" - -> "1" ScooterDB : manages
ScooterService "1" - -> "*" PharmacyDB : uses
PharmacyService "1" - -> "*" ScooterDB : uses
PharmacyService "1" - -> "*" Pharmacy : manage services of

Database "1" - - "*" Pharmacy : has registered >
Database "1" - - "*" Scooter : has registered >

Scooter "*" - - "1" Pharmacy : belongs to >
Pharmacy "1" - - "1" Address : has >

@enduml

PlantUML version 1.2020.09(Sun May 10 11:51:06 BST 2020)
(GPL source distribution)
Java Runtime: OpenJDK Runtime Environment
JVM: OpenJDK 64-Bit Server VM
Java Version: 11.0.6+8-b765.40
Operating System: Windows 10
Default Encoding: Cp1252
Language: pt
Country: PT
--></g></svg>