<?xml version="1.0" encoding="UTF-8" standalone="no"?><svg xmlns="http://www.w3.org/2000/svg" xmlns:xlink="http://www.w3.org/1999/xlink" contentScriptType="application/ecmascript" contentStyleType="text/css" height="301.7px" preserveAspectRatio="none" style="width:667px;height:301px;" version="1.1" viewBox="0 0 667 301" width="667.8px" zoomAndPan="magnify"><defs><filter height="300%" id="f1ry6s9xrnn056" width="300%" x="-1" y="-1"><feGaussianBlur result="blurOut" stdDeviation="1.4"/><feColorMatrix in="blurOut" result="blurOut2" type="matrix" values="0 0 0 0 0 0 0 0 0 0 0 0 0 0 0 0 0 0 .4 0"/><feOffset dx="2.8" dy="2.8" in="blurOut2" result="blurOut3"/><feBlend in="SourceGraphic" in2="blurOut3" mode="normal"/></filter></defs><g><!--MD5=[fa1e3283224feb76407c84b7e90ed808]
entity Database--><path d="M4.2,168.7 C4.2,161.7 32.55,161.7 32.55,161.7 C32.55,161.7 60.9,161.7 60.9,168.7 L60.9,187.3266 C60.9,194.3266 32.55,194.3266 32.55,194.3266 C32.55,194.3266 4.2,194.3266 4.2,187.3266 L4.2,168.7 " fill="#FFFFFF" filter="url(#f1ry6s9xrnn056)" style="stroke: #000000; stroke-width: 1.0499999999999998;"/><path d="M4.2,168.7 C4.2,175.7 32.55,175.7 32.55,175.7 C32.55,175.7 60.9,175.7 60.9,168.7 " fill="none" style="stroke: #000000; stroke-width: 1.0499999999999998;"/><text fill="#000000" font-family="sans-serif" font-size="9.8" lengthAdjust="spacingAndGlyphs" textLength="42.7" x="11.2" y="188.6732">Database</text><!--MD5=[7f2a9fafcebe4f099f71398fd3e2ed00]
class Pharmacy--><rect fill="#FEFECE" filter="url(#f1ry6s9xrnn056)" height="47.3703" id="Pharmacy" style="stroke: #A80036; stroke-width: 1.0499999999999998;" width="60.9" x="281.05" y="131.25"/><ellipse cx="291.55" cy="142.45" fill="#ADD1B2" rx="7.7" ry="7.7" style="stroke: #A80036; stroke-width: 0.7;"/><path d="M292.95,140 Q293.0922,139.65 293.2562,139.475 Q293.4203,139.3 293.6063,139.3 Q293.9344,139.3 294.1422,139.4969 Q294.35,139.6938 294.35,140.1531 L294.35,141.2469 Q294.35,141.7062 294.1531,141.9031 Q293.9562,142.1 293.65,142.1 Q293.3766,142.1 293.2016,141.9797 Q293.0266,141.8594 292.95,141.5422 Q292.9172,141.3234 292.7969,141.2031 Q292.5781,140.9734 292.1844,140.8422 Q291.7906,140.7 291.3969,140.7 Q290.9047,140.7 290.4891,140.8969 Q290.0844,141.0938 289.7672,141.5313 Q289.45,141.9688 289.45,142.5703 L289.45,143.2156 Q289.45,143.9375 290.0406,144.4188 Q290.6312,144.9 291.6813,144.9 Q292.3047,144.9 292.7422,144.7578 Q292.9938,144.6812 293.2781,144.4297 Q293.4641,144.2875 293.5625,144.2437 Q293.6609,144.2 293.7813,144.2 Q294.0109,144.2 294.175,144.3859 Q294.35,144.5609 294.35,144.8125 Q294.35,145.0531 294.1094,145.3375 Q293.7594,145.7531 293.2016,145.9828 Q292.4688,146.3 291.5719,146.3 Q290.5219,146.3 289.6797,145.8844 Q289.0016,145.5562 288.5203,144.8453 Q288.05,144.1344 288.05,143.2922 L288.05,142.5266 Q288.05,141.6516 288.4656,140.8859 Q288.8922,140.1203 289.625,139.7156 Q290.3688,139.3 291.2,139.3 Q291.7031,139.3 292.1406,139.475 Q292.5781,139.65 292.95,140 Z "/><text fill="#000000" font-family="sans-serif" font-size="8.4" lengthAdjust="spacingAndGlyphs" textLength="38.5" x="301.35" y="145.8871">Pharmacy</text><line style="stroke: #A80036; stroke-width: 1.0499999999999998;" x1="281.75" x2="341.25" y1="153.65" y2="153.65"/><text fill="#000000" font-family="sans-serif" font-size="7.7" lengthAdjust="spacingAndGlyphs" textLength="18.2" x="285.25" y="164.4433">-int id</text><text fill="#000000" font-family="sans-serif" font-size="7.7" lengthAdjust="spacingAndGlyphs" textLength="42.7" x="285.25" y="174.1284">-String name</text><!--MD5=[868815390a9e59f0f213a5798810649b]
class ScooterPark--><rect fill="#FEFECE" filter="url(#f1ry6s9xrnn056)" height="37.6852" id="ScooterPark" style="stroke: #A80036; stroke-width: 1.0499999999999998;" width="77.7" x="413" y="44.45"/><ellipse cx="427.28" cy="55.65" fill="#ADD1B2" rx="7.7" ry="7.7" style="stroke: #A80036; stroke-width: 0.7;"/><path d="M428.68,53.2 Q428.8222,52.85 428.9863,52.675 Q429.1503,52.5 429.3362,52.5 Q429.6644,52.5 429.8722,52.6969 Q430.08,52.8938 430.08,53.3531 L430.08,54.4469 Q430.08,54.9063 429.8831,55.1031 Q429.6863,55.3 429.38,55.3 Q429.1066,55.3 428.9316,55.1797 Q428.7566,55.0594 428.68,54.7422 Q428.6472,54.5234 428.5269,54.4031 Q428.3081,54.1734 427.9144,54.0422 Q427.5206,53.9 427.1269,53.9 Q426.6347,53.9 426.2191,54.0969 Q425.8144,54.2937 425.4972,54.7312 Q425.18,55.1687 425.18,55.7703 L425.18,56.4156 Q425.18,57.1375 425.7706,57.6188 Q426.3613,58.1 427.4112,58.1 Q428.0347,58.1 428.4722,57.9578 Q428.7237,57.8812 429.0081,57.6297 Q429.1941,57.4875 429.2925,57.4437 Q429.3909,57.4 429.5112,57.4 Q429.7409,57.4 429.905,57.5859 Q430.08,57.7609 430.08,58.0125 Q430.08,58.2531 429.8394,58.5375 Q429.4894,58.9531 428.9316,59.1828 Q428.1987,59.5 427.3019,59.5 Q426.2519,59.5 425.4097,59.0844 Q424.7316,58.7562 424.2503,58.0453 Q423.78,57.3344 423.78,56.4922 L423.78,55.7266 Q423.78,54.8516 424.1956,54.0859 Q424.6222,53.3203 425.355,52.9156 Q426.0987,52.5 426.93,52.5 Q427.4331,52.5 427.8706,52.675 Q428.3081,52.85 428.68,53.2 Z "/><text fill="#000000" font-family="sans-serif" font-size="8.4" lengthAdjust="spacingAndGlyphs" textLength="46.9" x="437.92" y="59.0871">ScooterPark</text><line style="stroke: #A80036; stroke-width: 1.0499999999999998;" x1="413.7" x2="490" y1="66.85" y2="66.85"/><text fill="#000000" font-family="sans-serif" font-size="7.7" lengthAdjust="spacingAndGlyphs" textLength="69.3" x="417.2" y="77.6433">-int maxSlotsNumber</text><!--MD5=[5efbb0d0731ef97fc2ab2cfe7ed5bd27]
class ScooterChargingSlot--><rect fill="#FEFECE" filter="url(#f1ry6s9xrnn056)" height="47.3703" id="ScooterChargingSlot" style="stroke: #A80036; stroke-width: 1.0499999999999998;" width="102.2" x="557.9" y="5.95"/><ellipse cx="568.4" cy="17.15" fill="#ADD1B2" rx="7.7" ry="7.7" style="stroke: #A80036; stroke-width: 0.7;"/><path d="M569.8,14.7 Q569.9422,14.35 570.1062,14.175 Q570.2703,14 570.4563,14 Q570.7844,14 570.9922,14.1969 Q571.2,14.3937 571.2,14.8531 L571.2,15.9469 Q571.2,16.4063 571.0031,16.6031 Q570.8063,16.8 570.5,16.8 Q570.2266,16.8 570.0516,16.6797 Q569.8766,16.5594 569.8,16.2422 Q569.7672,16.0234 569.6469,15.9031 Q569.4281,15.6734 569.0344,15.5422 Q568.6406,15.4 568.2469,15.4 Q567.7547,15.4 567.3391,15.5969 Q566.9344,15.7938 566.6172,16.2313 Q566.3,16.6688 566.3,17.2703 L566.3,17.9156 Q566.3,18.6375 566.8906,19.1188 Q567.4812,19.6 568.5313,19.6 Q569.1547,19.6 569.5922,19.4578 Q569.8438,19.3812 570.1281,19.1297 Q570.3141,18.9875 570.4125,18.9437 Q570.5109,18.9 570.6312,18.9 Q570.8609,18.9 571.025,19.0859 Q571.2,19.2609 571.2,19.5125 Q571.2,19.7531 570.9594,20.0375 Q570.6094,20.4531 570.0516,20.6828 Q569.3187,21 568.4219,21 Q567.3719,21 566.5297,20.5844 Q565.8516,20.2562 565.3703,19.5453 Q564.9,18.8344 564.9,17.9922 L564.9,17.2266 Q564.9,16.3516 565.3156,15.5859 Q565.7422,14.8203 566.475,14.4156 Q567.2188,14 568.05,14 Q568.5531,14 568.9906,14.175 Q569.4281,14.35 569.8,14.7 Z "/><text fill="#000000" font-family="sans-serif" font-size="8.4" lengthAdjust="spacingAndGlyphs" textLength="79.8" x="578.2" y="20.5871">ScooterChargingSlot</text><line style="stroke: #A80036; stroke-width: 1.0499999999999998;" x1="558.6" x2="659.4" y1="28.35" y2="28.35"/><text fill="#000000" font-family="sans-serif" font-size="7.7" lengthAdjust="spacingAndGlyphs" textLength="18.2" x="562.1" y="39.1433">-int id</text><text fill="#000000" font-family="sans-serif" font-size="7.7" lengthAdjust="spacingAndGlyphs" textLength="63" x="562.1" y="48.8284">-float outputPower</text><!--MD5=[d3cdad78b703b3ff47b8cf68490e772e]
class ScooterParkingSlot--><rect fill="#FEFECE" filter="url(#f1ry6s9xrnn056)" height="37.6852" id="ScooterParkingSlot" style="stroke: #A80036; stroke-width: 1.0499999999999998;" width="95.9" x="561.05" y="78.05"/><ellipse cx="571.55" cy="89.25" fill="#ADD1B2" rx="7.7" ry="7.7" style="stroke: #A80036; stroke-width: 0.7;"/><path d="M572.95,86.8 Q573.0922,86.45 573.2562,86.275 Q573.4203,86.1 573.6062,86.1 Q573.9344,86.1 574.1422,86.2969 Q574.35,86.4937 574.35,86.9531 L574.35,88.0469 Q574.35,88.5063 574.1531,88.7031 Q573.9563,88.9 573.65,88.9 Q573.3766,88.9 573.2016,88.7797 Q573.0266,88.6594 572.95,88.3422 Q572.9172,88.1234 572.7969,88.0031 Q572.5781,87.7734 572.1844,87.6422 Q571.7906,87.5 571.3969,87.5 Q570.9047,87.5 570.4891,87.6969 Q570.0844,87.8938 569.7672,88.3313 Q569.45,88.7688 569.45,89.3703 L569.45,90.0156 Q569.45,90.7375 570.0406,91.2188 Q570.6312,91.7 571.6813,91.7 Q572.3047,91.7 572.7422,91.5578 Q572.9938,91.4812 573.2781,91.2297 Q573.4641,91.0875 573.5625,91.0437 Q573.6609,91 573.7813,91 Q574.0109,91 574.175,91.1859 Q574.35,91.3609 574.35,91.6125 Q574.35,91.8531 574.1094,92.1375 Q573.7594,92.5531 573.2016,92.7828 Q572.4688,93.1 571.5719,93.1 Q570.5219,93.1 569.6797,92.6844 Q569.0016,92.3562 568.5203,91.6453 Q568.05,90.9344 568.05,90.0922 L568.05,89.3266 Q568.05,88.4516 568.4656,87.6859 Q568.8922,86.9203 569.625,86.5156 Q570.3688,86.1 571.2,86.1 Q571.7031,86.1 572.1406,86.275 Q572.5781,86.45 572.95,86.8 Z "/><text fill="#000000" font-family="sans-serif" font-size="8.4" lengthAdjust="spacingAndGlyphs" textLength="73.5" x="581.35" y="92.6871">ScooterParkingSlot</text><line style="stroke: #A80036; stroke-width: 1.0499999999999998;" x1="561.75" x2="656.25" y1="100.45" y2="100.45"/><text fill="#000000" font-family="sans-serif" font-size="7.7" lengthAdjust="spacingAndGlyphs" textLength="18.2" x="565.25" y="111.2433">-int id</text><!--MD5=[f4402668d5d5bb8485350c0fdb60ac8e]
class Scooter--><rect fill="#FEFECE" filter="url(#f1ry6s9xrnn056)" height="28" id="Scooter" style="stroke: #A80036; stroke-width: 1.0499999999999998;" width="51.8" x="128.1" y="204.05"/><ellipse cx="138.6" cy="215.25" fill="#ADD1B2" rx="7.7" ry="7.7" style="stroke: #A80036; stroke-width: 0.7;"/><path d="M140,212.8 Q140.1422,212.45 140.3062,212.275 Q140.4703,212.1 140.6563,212.1 Q140.9844,212.1 141.1922,212.2969 Q141.4,212.4937 141.4,212.9531 L141.4,214.0469 Q141.4,214.5063 141.2031,214.7031 Q141.0063,214.9 140.7,214.9 Q140.4266,214.9 140.2516,214.7797 Q140.0766,214.6594 140,214.3422 Q139.9672,214.1234 139.8469,214.0031 Q139.6281,213.7734 139.2344,213.6422 Q138.8406,213.5 138.4469,213.5 Q137.9547,213.5 137.5391,213.6969 Q137.1344,213.8937 136.8172,214.3312 Q136.5,214.7687 136.5,215.3703 L136.5,216.0156 Q136.5,216.7375 137.0906,217.2188 Q137.6812,217.7 138.7313,217.7 Q139.3547,217.7 139.7922,217.5578 Q140.0438,217.4813 140.3281,217.2297 Q140.5141,217.0875 140.6125,217.0438 Q140.7109,217 140.8312,217 Q141.0609,217 141.225,217.1859 Q141.4,217.3609 141.4,217.6125 Q141.4,217.8531 141.1594,218.1375 Q140.8094,218.5531 140.2516,218.7828 Q139.5187,219.1 138.6219,219.1 Q137.5719,219.1 136.7297,218.6844 Q136.0516,218.3563 135.5703,217.6453 Q135.1,216.9344 135.1,216.0922 L135.1,215.3266 Q135.1,214.4516 135.5156,213.6859 Q135.9422,212.9203 136.675,212.5156 Q137.4188,212.1 138.25,212.1 Q138.7531,212.1 139.1906,212.275 Q139.6281,212.45 140,212.8 Z "/><text fill="#000000" font-family="sans-serif" font-size="8.4" lengthAdjust="spacingAndGlyphs" textLength="29.4" x="148.4" y="218.6871">Scooter</text><line style="stroke: #A80036; stroke-width: 1.0499999999999998;" x1="128.8" x2="179.2" y1="226.45" y2="226.45"/><!--MD5=[3aa0d89c6bfdcbf7f32042cedac57549]
class Vehicle--><rect fill="#FEFECE" filter="url(#f1ry6s9xrnn056)" height="66.7406" id="Vehicle" style="stroke: #A80036; stroke-width: 1.0499999999999998;" width="68.6" x="277.2" y="215.6"/><ellipse cx="295.89" cy="226.8" fill="#ADD1B2" rx="7.7" ry="7.7" style="stroke: #A80036; stroke-width: 0.7;"/><path d="M297.29,224.35 Q297.4322,224 297.5963,223.825 Q297.7603,223.65 297.9462,223.65 Q298.2744,223.65 298.4822,223.8469 Q298.69,224.0438 298.69,224.5031 L298.69,225.5969 Q298.69,226.0562 298.4931,226.2531 Q298.2963,226.45 297.99,226.45 Q297.7166,226.45 297.5416,226.3297 Q297.3666,226.2094 297.29,225.8922 Q297.2572,225.6734 297.1369,225.5531 Q296.9181,225.3234 296.5244,225.1922 Q296.1306,225.05 295.7369,225.05 Q295.2447,225.05 294.8291,225.2469 Q294.4244,225.4438 294.1072,225.8813 Q293.79,226.3188 293.79,226.9203 L293.79,227.5656 Q293.79,228.2875 294.3806,228.7687 Q294.9713,229.25 296.0212,229.25 Q296.6447,229.25 297.0822,229.1078 Q297.3337,229.0312 297.6181,228.7797 Q297.8041,228.6375 297.9025,228.5937 Q298.0009,228.55 298.1213,228.55 Q298.3509,228.55 298.515,228.7359 Q298.69,228.9109 298.69,229.1625 Q298.69,229.4031 298.4494,229.6875 Q298.0994,230.1031 297.5416,230.3328 Q296.8088,230.65 295.9119,230.65 Q294.8619,230.65 294.0197,230.2344 Q293.3416,229.9062 292.8603,229.1953 Q292.39,228.4844 292.39,227.6422 L292.39,226.8766 Q292.39,226.0016 292.8056,225.2359 Q293.2322,224.4703 293.965,224.0656 Q294.7087,223.65 295.54,223.65 Q296.0431,223.65 296.4806,223.825 Q296.9181,224 297.29,224.35 Z "/><text fill="#000000" font-family="sans-serif" font-size="8.4" lengthAdjust="spacingAndGlyphs" textLength="28" x="307.51" y="230.2371">Vehicle</text><line style="stroke: #A80036; stroke-width: 1.0499999999999998;" x1="277.9" x2="345.1" y1="238" y2="238"/><text fill="#000000" font-family="sans-serif" font-size="7.7" lengthAdjust="spacingAndGlyphs" textLength="18.2" x="281.4" y="248.7933">-int id</text><text fill="#000000" font-family="sans-serif" font-size="7.7" lengthAdjust="spacingAndGlyphs" textLength="46.9" x="281.4" y="258.4784">-float potency</text><text fill="#000000" font-family="sans-serif" font-size="7.7" lengthAdjust="spacingAndGlyphs" textLength="42.7" x="281.4" y="268.1636">-float weight</text><text fill="#000000" font-family="sans-serif" font-size="7.7" lengthAdjust="spacingAndGlyphs" textLength="60.2" x="281.4" y="277.8487">-float maxPayload</text><!--MD5=[79eb2d862cef9730b5f9dcab29e35f17]
class Battery--><rect fill="#FEFECE" filter="url(#f1ry6s9xrnn056)" height="66.7406" id="Battery" style="stroke: #A80036; stroke-width: 1.0499999999999998;" width="77.7" x="413" y="227.5"/><ellipse cx="436.73" cy="238.7" fill="#ADD1B2" rx="7.7" ry="7.7" style="stroke: #A80036; stroke-width: 0.7;"/><path d="M438.13,236.25 Q438.2722,235.9 438.4363,235.725 Q438.6003,235.55 438.7862,235.55 Q439.1144,235.55 439.3222,235.7469 Q439.53,235.9438 439.53,236.4031 L439.53,237.4969 Q439.53,237.9562 439.3331,238.1531 Q439.1362,238.35 438.83,238.35 Q438.5566,238.35 438.3816,238.2297 Q438.2066,238.1094 438.13,237.7922 Q438.0972,237.5734 437.9769,237.4531 Q437.7581,237.2234 437.3644,237.0922 Q436.9706,236.95 436.5769,236.95 Q436.0847,236.95 435.6691,237.1469 Q435.2644,237.3437 434.9472,237.7812 Q434.63,238.2187 434.63,238.8203 L434.63,239.4656 Q434.63,240.1875 435.2206,240.6688 Q435.8113,241.15 436.8613,241.15 Q437.4847,241.15 437.9222,241.0078 Q438.1738,240.9312 438.4581,240.6797 Q438.6441,240.5375 438.7425,240.4937 Q438.8409,240.45 438.9612,240.45 Q439.1909,240.45 439.355,240.6359 Q439.53,240.8109 439.53,241.0625 Q439.53,241.3031 439.2894,241.5875 Q438.9394,242.0031 438.3816,242.2328 Q437.6487,242.55 436.7519,242.55 Q435.7019,242.55 434.8597,242.1344 Q434.1816,241.8062 433.7003,241.0953 Q433.23,240.3844 433.23,239.5422 L433.23,238.7766 Q433.23,237.9016 433.6456,237.1359 Q434.0722,236.3703 434.805,235.9656 Q435.5488,235.55 436.38,235.55 Q436.8831,235.55 437.3206,235.725 Q437.7581,235.9 438.13,236.25 Z "/><text fill="#000000" font-family="sans-serif" font-size="8.4" lengthAdjust="spacingAndGlyphs" textLength="25.9" x="449.47" y="242.1371">Battery</text><line style="stroke: #A80036; stroke-width: 1.0499999999999998;" x1="413.7" x2="490" y1="249.9" y2="249.9"/><text fill="#000000" font-family="sans-serif" font-size="7.7" lengthAdjust="spacingAndGlyphs" textLength="18.2" x="417.2" y="260.6933">-int id</text><text fill="#000000" font-family="sans-serif" font-size="7.7" lengthAdjust="spacingAndGlyphs" textLength="58.8" x="417.2" y="270.3784">-float batteryPerc</text><text fill="#000000" font-family="sans-serif" font-size="7.7" lengthAdjust="spacingAndGlyphs" textLength="65.8" x="417.2" y="280.0636">-int batteryCapacity</text><text fill="#000000" font-family="sans-serif" font-size="7.7" lengthAdjust="spacingAndGlyphs" textLength="69.3" x="417.2" y="289.7487">-float batteryVoltage</text><!--MD5=[0f39e4cb6f03951afbf6d14bd2505654]
class Address--><rect fill="#FEFECE" filter="url(#f1ry6s9xrnn056)" height="95.7961" id="Address" style="stroke: #A80036; stroke-width: 1.0499999999999998;" width="74.2" x="414.75" y="107.1"/><ellipse cx="434.07" cy="118.3" fill="#ADD1B2" rx="7.7" ry="7.7" style="stroke: #A80036; stroke-width: 0.7;"/><path d="M435.47,115.85 Q435.6122,115.5 435.7763,115.325 Q435.9403,115.15 436.1262,115.15 Q436.4544,115.15 436.6622,115.3469 Q436.87,115.5437 436.87,116.0031 L436.87,117.0969 Q436.87,117.5562 436.6731,117.7531 Q436.4763,117.95 436.17,117.95 Q435.8966,117.95 435.7216,117.8297 Q435.5466,117.7094 435.47,117.3922 Q435.4372,117.1734 435.3169,117.0531 Q435.0981,116.8234 434.7044,116.6922 Q434.3106,116.55 433.9169,116.55 Q433.4247,116.55 433.0091,116.7469 Q432.6044,116.9438 432.2872,117.3813 Q431.97,117.8188 431.97,118.4203 L431.97,119.0656 Q431.97,119.7875 432.5606,120.2688 Q433.1513,120.75 434.2013,120.75 Q434.8247,120.75 435.2622,120.6078 Q435.5138,120.5312 435.7981,120.2797 Q435.9841,120.1375 436.0825,120.0937 Q436.1809,120.05 436.3013,120.05 Q436.5309,120.05 436.695,120.2359 Q436.87,120.4109 436.87,120.6625 Q436.87,120.9031 436.6294,121.1875 Q436.2794,121.6031 435.7216,121.8328 Q434.9888,122.15 434.0919,122.15 Q433.0419,122.15 432.1997,121.7344 Q431.5216,121.4062 431.0403,120.6953 Q430.57,119.9844 430.57,119.1422 L430.57,118.3766 Q430.57,117.5016 430.9856,116.7359 Q431.4122,115.9703 432.145,115.5656 Q432.8888,115.15 433.72,115.15 Q434.2231,115.15 434.6606,115.325 Q435.0981,115.5 435.47,115.85 Z "/><text fill="#000000" font-family="sans-serif" font-size="8.4" lengthAdjust="spacingAndGlyphs" textLength="32.2" x="445.83" y="121.7371">Address</text><line style="stroke: #A80036; stroke-width: 1.0499999999999998;" x1="415.45" x2="488.25" y1="129.5" y2="129.5"/><text fill="#000000" font-family="sans-serif" font-size="7.7" lengthAdjust="spacingAndGlyphs" textLength="49.7" x="418.95" y="140.2933">-float longitude</text><text fill="#000000" font-family="sans-serif" font-size="7.7" lengthAdjust="spacingAndGlyphs" textLength="43.4" x="418.95" y="149.9784">-float latitude</text><text fill="#000000" font-family="sans-serif" font-size="7.7" lengthAdjust="spacingAndGlyphs" textLength="65.8" x="418.95" y="159.6636">-String doorNumber</text><text fill="#000000" font-family="sans-serif" font-size="7.7" lengthAdjust="spacingAndGlyphs" textLength="63" x="418.95" y="169.3487">-String streetName</text><text fill="#000000" font-family="sans-serif" font-size="7.7" lengthAdjust="spacingAndGlyphs" textLength="62.3" x="418.95" y="179.0339">-String postalCode</text><text fill="#000000" font-family="sans-serif" font-size="7.7" lengthAdjust="spacingAndGlyphs" textLength="47.6" x="418.95" y="188.719">-String locality</text><text fill="#000000" font-family="sans-serif" font-size="7.7" lengthAdjust="spacingAndGlyphs" textLength="50.4" x="418.95" y="198.4042">-String country</text><!--MD5=[51d7b9a785c9fb041ca400474ed1d998]
link Database to Pharmacy--><path d="M61.1333,175.8295 C113.6457,171.4587 226.7783,162.043 280.8428,157.5434 " fill="none" id="Database-Pharmacy" style="stroke: #A80036; stroke-width: 0.7;"/><text fill="#000000" font-family="sans-serif" font-size="9.1" lengthAdjust="spacingAndGlyphs" textLength="14.7" x="142.1" y="163.0966">has</text><polygon fill="#000000" points="158.9,158.323,163.1,160.423,158.9,162.523,158.9,158.323" style="stroke: #000000; stroke-width: 0.7;"/><text fill="#000000" font-family="sans-serif" font-size="9.1" lengthAdjust="spacingAndGlyphs" textLength="4.9" x="66.4672" y="185.8844">1</text><text fill="#000000" font-family="sans-serif" font-size="9.1" lengthAdjust="spacingAndGlyphs" textLength="3.5" x="271.9754" y="168.3699">*</text><!--MD5=[f4a94ba2ad2673d4959409a96e63c979]
link Database to Scooter--><path d="M61.0936,187.404 C81.319,194.1261 108.4657,203.1491 128.0601,209.6612 " fill="none" id="Database-Scooter" style="stroke: #A80036; stroke-width: 0.7;"/><text fill="#000000" font-family="sans-serif" font-size="9.1" lengthAdjust="spacingAndGlyphs" textLength="14.7" x="82.6" y="191.7966">has</text><polygon fill="#000000" points="99.4,187.023,103.6,189.123,99.4,191.223,99.4,187.023" style="stroke: #000000; stroke-width: 0.7;"/><text fill="#000000" font-family="sans-serif" font-size="9.1" lengthAdjust="spacingAndGlyphs" textLength="4.9" x="66.4206" y="199.4483">1</text><text fill="#000000" font-family="sans-serif" font-size="9.1" lengthAdjust="spacingAndGlyphs" textLength="3.5" x="118.8491" y="218.558">*</text><!--MD5=[6f1b2737b94c689eac8b0af6a5ef1443]
link Scooter to Pharmacy--><path d="M180.0456,211.5792 C200.9042,205.884 231.0266,196.8029 256.2,185.85 C264.4831,182.2457 273.1344,177.7412 281.0451,173.299 " fill="none" id="Scooter-Pharmacy" style="stroke: #A80036; stroke-width: 0.7;"/><text fill="#000000" font-family="sans-serif" font-size="9.1" lengthAdjust="spacingAndGlyphs" textLength="42" x="203" y="183.3966">belongs to</text><polygon fill="#000000" points="247.1,178.623,251.3,180.723,247.1,182.823,247.1,178.623" style="stroke: #000000; stroke-width: 0.7;"/><text fill="#000000" font-family="sans-serif" font-size="9.1" lengthAdjust="spacingAndGlyphs" textLength="3.5" x="185.5179" y="220.8786">*</text><text fill="#000000" font-family="sans-serif" font-size="9.1" lengthAdjust="spacingAndGlyphs" textLength="4.9" x="270.4896" y="186.8855">1</text><!--MD5=[52f80c2c106e4280525a8160ec8cd0fa]
link Scooter to Vehicle--><path d="M179.9119,226.8879 C186.6683,229.0314 194.0106,231.1604 200.9,232.75 C226.1721,238.581 255.2256,242.7291 277.1104,245.353 " fill="none" id="Scooter-Vehicle" style="stroke: #A80036; stroke-width: 0.7;"/><text fill="#000000" font-family="sans-serif" font-size="9.1" lengthAdjust="spacingAndGlyphs" textLength="44.8" x="201.6" y="230.2966">is a type of</text><polygon fill="#000000" points="248.5,225.523,252.7,227.623,248.5,229.723,248.5,225.523" style="stroke: #000000; stroke-width: 0.7;"/><text fill="#000000" font-family="sans-serif" font-size="9.1" lengthAdjust="spacingAndGlyphs" textLength="3.5" x="185.6172" y="239.3377">*</text><text fill="#000000" font-family="sans-serif" font-size="9.1" lengthAdjust="spacingAndGlyphs" textLength="4.9" x="266.7996" y="255.1089">1</text><!--MD5=[074a56c4439d52c76e1cc7a8f9d070a4]
link Vehicle to Battery--><path d="M345.8357,251.7306 C366.0762,253.4641 391.9041,255.6761 412.9167,257.4756 " fill="none" id="Vehicle-Battery" style="stroke: #A80036; stroke-width: 0.7;"/><text fill="#000000" font-family="sans-serif" font-size="9.1" lengthAdjust="spacingAndGlyphs" textLength="14.7" x="367.5" y="250.5966">has</text><polygon fill="#000000" points="384.3,245.823,388.5,247.923,384.3,250.023,384.3,245.823" style="stroke: #000000; stroke-width: 0.7;"/><text fill="#000000" font-family="sans-serif" font-size="9.1" lengthAdjust="spacingAndGlyphs" textLength="4.9" x="351.4685" y="262.4762">1</text><text fill="#000000" font-family="sans-serif" font-size="9.1" lengthAdjust="spacingAndGlyphs" textLength="4.9" x="402.4558" y="267.2351">1</text><!--MD5=[89baec1bfb4a213750f7c61516e0a0f1]
link Pharmacy to Address--><path d="M342.0081,155.05 C363.2993,155.05 392.0651,155.05 414.7199,155.05 " fill="none" id="Pharmacy-Address" style="stroke: #A80036; stroke-width: 0.7;"/><text fill="#000000" font-family="sans-serif" font-size="9.1" lengthAdjust="spacingAndGlyphs" textLength="14.7" x="367.5" y="152.5966">has</text><polygon fill="#000000" points="384.3,147.823,388.5,149.923,384.3,152.023,384.3,147.823" style="stroke: #000000; stroke-width: 0.7;"/><text fill="#000000" font-family="sans-serif" font-size="9.1" lengthAdjust="spacingAndGlyphs" textLength="4.9" x="347.4668" y="165.4635">1</text><text fill="#000000" font-family="sans-serif" font-size="9.1" lengthAdjust="spacingAndGlyphs" textLength="4.9" x="404.2539" y="165.3087">1</text><!--MD5=[e7daa03d92f0a94af078cf78578db78d]
link Pharmacy to ScooterPark--><path d="M342.0081,135.3779 C365.7717,119.6958 398.846,97.8684 422.3422,82.3613 " fill="none" id="Pharmacy-ScooterPark" style="stroke: #A80036; stroke-width: 0.7;"/><text fill="#000000" font-family="sans-serif" font-size="9.1" lengthAdjust="spacingAndGlyphs" textLength="14.7" x="367.5" y="100.7966">has</text><polygon fill="#000000" points="384.3,96.023,388.5,98.123,384.3,100.223,384.3,96.023" style="stroke: #000000; stroke-width: 0.7;"/><text fill="#000000" font-family="sans-serif" font-size="9.1" lengthAdjust="spacingAndGlyphs" textLength="4.9" x="347.4668" y="142.5332">1</text><text fill="#000000" font-family="sans-serif" font-size="9.1" lengthAdjust="spacingAndGlyphs" textLength="4.9" x="410.4514" y="97.2311">1</text><!--MD5=[6c03f80bb0eb412de4ede466470bd7f4]
link ScooterPark to ScooterChargingSlot--><path d="M490.8505,55.0872 C511.0259,50.7353 536.0285,45.3411 557.7726,40.6504 " fill="none" id="ScooterPark-ScooterChargingSlot" style="stroke: #A80036; stroke-width: 0.7;"/><text fill="#000000" font-family="sans-serif" font-size="9.1" lengthAdjust="spacingAndGlyphs" textLength="14.7" x="512.4" y="42.6966">has</text><polygon fill="#000000" points="529.2,37.923,533.4,40.023,529.2,42.123,529.2,37.923" style="stroke: #000000; stroke-width: 0.7;"/><text fill="#000000" font-family="sans-serif" font-size="9.1" lengthAdjust="spacingAndGlyphs" textLength="4.9" x="496.4204" y="64.2002">1</text><text fill="#000000" font-family="sans-serif" font-size="9.1" lengthAdjust="spacingAndGlyphs" textLength="4.9" x="547.3371" y="51.8231">1</text><!--MD5=[8b5c72ddee54db66c8e770f45750c925]
link ScooterPark to ScooterParkingSlot--><path d="M490.8505,71.6128 C512.0171,76.1789 538.496,81.8909 560.9513,86.7356 " fill="none" id="ScooterPark-ScooterParkingSlot" style="stroke: #A80036; stroke-width: 0.7;"/><text fill="#000000" font-family="sans-serif" font-size="9.1" lengthAdjust="spacingAndGlyphs" textLength="14.7" x="512.4" y="73.4966">has</text><polygon fill="#000000" points="529.2,68.723,533.4,70.823,529.2,72.923,529.2,68.723" style="stroke: #000000; stroke-width: 0.7;"/><text fill="#000000" font-family="sans-serif" font-size="9.1" lengthAdjust="spacingAndGlyphs" textLength="4.9" x="496.4204" y="82.9464">1</text><text fill="#000000" font-family="sans-serif" font-size="9.1" lengthAdjust="spacingAndGlyphs" textLength="4.9" x="550.528" y="95.6972">1</text><!--MD5=[8dab2f816742d0071b492423777ca571]
@startuml
skinparam classAttributeIconSize 0
hide methods
left to right direction

database Database {
}

class Pharmacy {
  -int id
  -String name
}

class ScooterPark{
-   int maxSlotsNumber
}

class ScooterChargingSlot{
-   int id
-   float outputPower
}

class ScooterParkingSlot{
-   int id
}

class Scooter{
}

class Vehicle{
  -int id
  -float potency
  -float weight
  -float maxPayload
}

class Battery{
  -int id
  -float batteryPerc
  -int batteryCapacity
  -float batteryVoltage
}

class Address{
  -float longitude
  -float latitude
  -String doorNumber
  -String streetName
  -String postalCode
  -String locality
  -String country
}



Database "1" - - "*" Pharmacy : has >
Database "1" - - "*" Scooter : has >
Scooter "*" - - "1" Pharmacy : belongs to >
Scooter "*" - - "1" Vehicle : is a type of >
Vehicle "1" - - "1" Battery : has >
Pharmacy "1" - - "1" Address : has >
Pharmacy "1" - - "1" ScooterPark : has >
ScooterPark "1" - - "1" ScooterChargingSlot : has >
ScooterPark "1" - - "1" ScooterParkingSlot : has >
@enduml

PlantUML version 1.2020.09(Sun May 10 11:51:06 BST 2020)
(GPL source distribution)
Java Runtime: OpenJDK Runtime Environment
JVM: OpenJDK 64-Bit Server VM
Java Version: 11.0.6+8-b765.40
Operating System: Windows 10
Default Encoding: Cp1252
Language: pt
Country: PT
--></g></svg>