<?xml version="1.0" encoding="UTF-8" standalone="no"?><svg xmlns="http://www.w3.org/2000/svg" xmlns:xlink="http://www.w3.org/1999/xlink" contentScriptType="application/ecmascript" contentStyleType="text/css" height="1495px" preserveAspectRatio="none" style="width:1209px;height:1495px;" version="1.1" viewBox="0 0 1209 1495" width="1209px" zoomAndPan="magnify"><defs><filter height="300%" id="faywny72ulofr" width="300%" x="-1" y="-1"><feGaussianBlur result="blurOut" stdDeviation="2.0"/><feColorMatrix in="blurOut" result="blurOut2" type="matrix" values="0 0 0 0 0 0 0 0 0 0 0 0 0 0 0 0 0 0 .4 0"/><feOffset dx="4.0" dy="4.0" in="blurOut2" result="blurOut3"/><feBlend in="SourceGraphic" in2="blurOut3" mode="normal"/></filter></defs><g><!--MD5=[9681dc6e01e10c6b4fe06895ae94f592]
cluster UI--><polygon fill="#DDDDDD" filter="url(#faywny72ulofr)" points="119,24,139,24,146,47.6094,277,47.6094,277,124,119,124,119,24" style="stroke: #000000; stroke-width: 1.5;"/><line style="stroke: #000000; stroke-width: 1.5;" x1="119" x2="146" y1="47.6094" y2="47.6094"/><text fill="#000000" font-family="sans-serif" font-size="14" font-weight="bold" lengthAdjust="spacingAndGlyphs" textLength="14" x="123" y="40.5332">UI</text><!--MD5=[1f2cfc53d9d308f53762fd0fcbaa4873]
cluster Controller--><polygon fill="#DDDDDD" filter="url(#faywny72ulofr)" points="96,157,173,157,180,180.6094,300,180.6094,300,299,96,299,96,157" style="stroke: #000000; stroke-width: 1.5;"/><line style="stroke: #000000; stroke-width: 1.5;" x1="96" x2="180" y1="180.6094" y2="180.6094"/><text fill="#000000" font-family="sans-serif" font-size="14" font-weight="bold" lengthAdjust="spacingAndGlyphs" textLength="71" x="100" y="173.5332">Controller</text><!--MD5=[15636c1ca4a123c16a2a1a8e90aca7a9]
cluster Model--><polygon fill="#DDDDDD" filter="url(#faywny72ulofr)" points="22,332,72,332,79,355.6094,564,355.6094,564,1483,22,1483,22,332" style="stroke: #000000; stroke-width: 1.5;"/><line style="stroke: #000000; stroke-width: 1.5;" x1="22" x2="79" y1="355.6094" y2="355.6094"/><text fill="#000000" font-family="sans-serif" font-size="14" font-weight="bold" lengthAdjust="spacingAndGlyphs" textLength="44" x="26" y="348.5332">Model</text><!--MD5=[9dd75fd92da113d30380b27734fd2f01]
cluster Service--><polygon fill="#DDDDDD" filter="url(#faywny72ulofr)" points="46,376,106,376,113,399.6094,540,399.6094,540,531,46,531,46,376" style="stroke: #000000; stroke-width: 1.5;"/><line style="stroke: #000000; stroke-width: 1.5;" x1="46" x2="113" y1="399.6094" y2="399.6094"/><text fill="#000000" font-family="sans-serif" font-size="14" font-weight="bold" lengthAdjust="spacingAndGlyphs" textLength="54" x="50" y="392.5332">Service</text><!--MD5=[f21b1f164e99c6b37934f23ad048ad54]
cluster Data--><polygon fill="#DDDDDD" filter="url(#faywny72ulofr)" points="678,389.5,715,389.5,722,413.1094,1187,413.1094,1187,714,678,714,678,389.5" style="stroke: #000000; stroke-width: 1.5;"/><line style="stroke: #000000; stroke-width: 1.5;" x1="678" x2="722" y1="413.1094" y2="413.1094"/><text fill="#000000" font-family="sans-serif" font-size="14" font-weight="bold" lengthAdjust="spacingAndGlyphs" textLength="31" x="682" y="406.0332">Data</text><!--MD5=[fa1e3283224feb76407c84b7e90ed808]
entity Database--><path d="M580.5,450 C580.5,440 621,440 621,440 C621,440 661.5,440 661.5,450 L661.5,476.6094 C661.5,486.6094 621,486.6094 621,486.6094 C621,486.6094 580.5,486.6094 580.5,476.6094 L580.5,450 " fill="#FFFFFF" filter="url(#faywny72ulofr)" style="stroke: #000000; stroke-width: 1.5;"/><path d="M580.5,450 C580.5,460 621,460 621,460 C621,460 661.5,460 661.5,450 " fill="none" style="stroke: #000000; stroke-width: 1.5;"/><text fill="#000000" font-family="sans-serif" font-size="14" lengthAdjust="spacingAndGlyphs" textLength="61" x="590.5" y="478.5332">Database</text><!--MD5=[56b05040cba7ba1143e43c771f04a5c5]
class UpdateScooterUI--><rect fill="#FEFECE" filter="url(#faywny72ulofr)" height="48" id="UpdateScooterUI" style="stroke: #A80036; stroke-width: 1.5;" width="126" x="135" y="60"/><ellipse cx="150" cy="76" fill="#ADD1B2" rx="11" ry="11" style="stroke: #A80036; stroke-width: 1.0;"/><path d="M152,72.5 Q152.2031,72 152.4375,71.75 Q152.6719,71.5 152.9375,71.5 Q153.4063,71.5 153.7031,71.7813 Q154,72.0625 154,72.7188 L154,74.2813 Q154,74.9375 153.7188,75.2188 Q153.4375,75.5 153,75.5 Q152.6094,75.5 152.3594,75.3281 Q152.1094,75.1563 152,74.7031 Q151.9531,74.3906 151.7813,74.2188 Q151.4688,73.8906 150.9063,73.7031 Q150.3438,73.5 149.7813,73.5 Q149.0781,73.5 148.4844,73.7813 Q147.9063,74.0625 147.4531,74.6875 Q147,75.3125 147,76.1719 L147,77.0938 Q147,78.125 147.8438,78.8125 Q148.6875,79.5 150.1875,79.5 Q151.0781,79.5 151.7031,79.2969 Q152.0625,79.1875 152.4688,78.8281 Q152.7344,78.625 152.875,78.5625 Q153.0156,78.5 153.1875,78.5 Q153.5156,78.5 153.75,78.7656 Q154,79.0156 154,79.375 Q154,79.7188 153.6563,80.125 Q153.1563,80.7188 152.3594,81.0469 Q151.3125,81.5 150.0313,81.5 Q148.5313,81.5 147.3281,80.9063 Q146.3594,80.4375 145.6719,79.4219 Q145,78.4063 145,77.2031 L145,76.1094 Q145,74.8594 145.5938,73.7656 Q146.2031,72.6719 147.25,72.0938 Q148.3125,71.5 149.5,71.5 Q150.2188,71.5 150.8438,71.75 Q151.4688,72 152,72.5 Z "/><text fill="#000000" font-family="sans-serif" font-size="12" lengthAdjust="spacingAndGlyphs" textLength="94" x="164" y="80.9102">UpdateScooterUI</text><line style="stroke: #A80036; stroke-width: 1.5;" x1="136" x2="260" y1="92" y2="92"/><line style="stroke: #A80036; stroke-width: 1.5;" x1="136" x2="260" y1="100" y2="100"/><!--MD5=[3e55a46d736e61deccb82423bbd922fc]
class UpdateScooterController--><rect fill="#FEFECE" filter="url(#faywny72ulofr)" height="89.5078" id="UpdateScooterController" style="stroke: #A80036; stroke-width: 1.5;" width="171" x="112.5" y="193"/><ellipse cx="128.85" cy="209" fill="#ADD1B2" rx="11" ry="11" style="stroke: #A80036; stroke-width: 1.0;"/><path d="M130.85,205.5 Q131.0531,205 131.2875,204.75 Q131.5219,204.5 131.7875,204.5 Q132.2563,204.5 132.5531,204.7813 Q132.85,205.0625 132.85,205.7188 L132.85,207.2813 Q132.85,207.9375 132.5688,208.2188 Q132.2875,208.5 131.85,208.5 Q131.4594,208.5 131.2094,208.3281 Q130.9594,208.1563 130.85,207.7031 Q130.8031,207.3906 130.6313,207.2188 Q130.3188,206.8906 129.7563,206.7031 Q129.1938,206.5 128.6313,206.5 Q127.9281,206.5 127.3344,206.7813 Q126.7563,207.0625 126.3031,207.6875 Q125.85,208.3125 125.85,209.1719 L125.85,210.0938 Q125.85,211.125 126.6938,211.8125 Q127.5375,212.5 129.0375,212.5 Q129.9281,212.5 130.5531,212.2969 Q130.9125,212.1875 131.3188,211.8281 Q131.5844,211.625 131.725,211.5625 Q131.8656,211.5 132.0375,211.5 Q132.3656,211.5 132.6,211.7656 Q132.85,212.0156 132.85,212.375 Q132.85,212.7188 132.5063,213.125 Q132.0063,213.7188 131.2094,214.0469 Q130.1625,214.5 128.8813,214.5 Q127.3813,214.5 126.1781,213.9063 Q125.2094,213.4375 124.5219,212.4219 Q123.85,211.4063 123.85,210.2031 L123.85,209.1094 Q123.85,207.8594 124.4438,206.7656 Q125.0531,205.6719 126.1,205.0938 Q127.1625,204.5 128.35,204.5 Q129.0688,204.5 129.6938,204.75 Q130.3188,205 130.85,205.5 Z "/><text fill="#000000" font-family="sans-serif" font-size="12" lengthAdjust="spacingAndGlyphs" textLength="136" x="143.15" y="213.9102">UpdateScooterController</text><line style="stroke: #A80036; stroke-width: 1.5;" x1="113.5" x2="282.5" y1="225" y2="225"/><line style="stroke: #A80036; stroke-width: 1.5;" x1="113.5" x2="282.5" y1="233" y2="233"/><text fill="#000000" font-family="sans-serif" font-size="11" lengthAdjust="spacingAndGlyphs" textLength="98" x="118.5" y="248.4189">+showPharmacies()</text><text fill="#000000" font-family="sans-serif" font-size="11" lengthAdjust="spacingAndGlyphs" textLength="159" x="118.5" y="262.2549">+showScootersList(pharmacyId)</text><text fill="#000000" font-family="sans-serif" font-size="11" lengthAdjust="spacingAndGlyphs" textLength="112" x="118.5" y="276.0908">+updateScooter(scoot)</text><!--MD5=[868815390a9e59f0f213a5798810649b]
class ScooterPark--><rect fill="#FEFECE" filter="url(#faywny72ulofr)" height="61.8359" id="ScooterPark" style="stroke: #A80036; stroke-width: 1.5;" width="111" x="131.5" y="1209.5"/><ellipse cx="151.9" cy="1225.5" fill="#ADD1B2" rx="11" ry="11" style="stroke: #A80036; stroke-width: 1.0;"/><path d="M153.9,1222 Q154.1031,1221.5 154.3375,1221.25 Q154.5719,1221 154.8375,1221 Q155.3063,1221 155.6031,1221.2813 Q155.9,1221.5625 155.9,1222.2188 L155.9,1223.7813 Q155.9,1224.4375 155.6188,1224.7188 Q155.3375,1225 154.9,1225 Q154.5094,1225 154.2594,1224.8281 Q154.0094,1224.6563 153.9,1224.2031 Q153.8531,1223.8906 153.6813,1223.7188 Q153.3688,1223.3906 152.8063,1223.2031 Q152.2438,1223 151.6813,1223 Q150.9781,1223 150.3844,1223.2813 Q149.8063,1223.5625 149.3531,1224.1875 Q148.9,1224.8125 148.9,1225.6719 L148.9,1226.5938 Q148.9,1227.625 149.7438,1228.3125 Q150.5875,1229 152.0875,1229 Q152.9781,1229 153.6031,1228.7969 Q153.9625,1228.6875 154.3688,1228.3281 Q154.6344,1228.125 154.775,1228.0625 Q154.9156,1228 155.0875,1228 Q155.4156,1228 155.65,1228.2656 Q155.9,1228.5156 155.9,1228.875 Q155.9,1229.2188 155.5563,1229.625 Q155.0563,1230.2188 154.2594,1230.5469 Q153.2125,1231 151.9313,1231 Q150.4313,1231 149.2281,1230.4063 Q148.2594,1229.9375 147.5719,1228.9219 Q146.9,1227.9063 146.9,1226.7031 L146.9,1225.6094 Q146.9,1224.3594 147.4938,1223.2656 Q148.1031,1222.1719 149.15,1221.5938 Q150.2125,1221 151.4,1221 Q152.1188,1221 152.7438,1221.25 Q153.3688,1221.5 153.9,1222 Z "/><text fill="#000000" font-family="sans-serif" font-size="12" lengthAdjust="spacingAndGlyphs" textLength="67" x="167.1" y="1230.4102">ScooterPark</text><line style="stroke: #A80036; stroke-width: 1.5;" x1="132.5" x2="241.5" y1="1241.5" y2="1241.5"/><text fill="#000000" font-family="sans-serif" font-size="11" lengthAdjust="spacingAndGlyphs" textLength="99" x="137.5" y="1256.9189">-int maxSlotsNumber</text><line style="stroke: #A80036; stroke-width: 1.5;" x1="132.5" x2="241.5" y1="1263.3359" y2="1263.3359"/><!--MD5=[5efbb0d0731ef97fc2ab2cfe7ed5bd27]
class ScooterChargingSlot--><rect fill="#FEFECE" filter="url(#faywny72ulofr)" height="75.6719" id="ScooterChargingSlot" style="stroke: #A80036; stroke-width: 1.5;" width="146" x="63" y="1391"/><ellipse cx="78" cy="1407" fill="#ADD1B2" rx="11" ry="11" style="stroke: #A80036; stroke-width: 1.0;"/><path d="M80,1403.5 Q80.2031,1403 80.4375,1402.75 Q80.6719,1402.5 80.9375,1402.5 Q81.4063,1402.5 81.7031,1402.7813 Q82,1403.0625 82,1403.7188 L82,1405.2813 Q82,1405.9375 81.7188,1406.2188 Q81.4375,1406.5 81,1406.5 Q80.6094,1406.5 80.3594,1406.3281 Q80.1094,1406.1563 80,1405.7031 Q79.9531,1405.3906 79.7813,1405.2188 Q79.4688,1404.8906 78.9063,1404.7031 Q78.3438,1404.5 77.7813,1404.5 Q77.0781,1404.5 76.4844,1404.7813 Q75.9063,1405.0625 75.4531,1405.6875 Q75,1406.3125 75,1407.1719 L75,1408.0938 Q75,1409.125 75.8438,1409.8125 Q76.6875,1410.5 78.1875,1410.5 Q79.0781,1410.5 79.7031,1410.2969 Q80.0625,1410.1875 80.4688,1409.8281 Q80.7344,1409.625 80.875,1409.5625 Q81.0156,1409.5 81.1875,1409.5 Q81.5156,1409.5 81.75,1409.7656 Q82,1410.0156 82,1410.375 Q82,1410.7188 81.6563,1411.125 Q81.1563,1411.7188 80.3594,1412.0469 Q79.3125,1412.5 78.0313,1412.5 Q76.5313,1412.5 75.3281,1411.9063 Q74.3594,1411.4375 73.6719,1410.4219 Q73,1409.4063 73,1408.2031 L73,1407.1094 Q73,1405.8594 73.5938,1404.7656 Q74.2031,1403.6719 75.25,1403.0938 Q76.3125,1402.5 77.5,1402.5 Q78.2188,1402.5 78.8438,1402.75 Q79.4688,1403 80,1403.5 Z "/><text fill="#000000" font-family="sans-serif" font-size="12" lengthAdjust="spacingAndGlyphs" textLength="114" x="92" y="1411.9102">ScooterChargingSlot</text><line style="stroke: #A80036; stroke-width: 1.5;" x1="64" x2="208" y1="1423" y2="1423"/><text fill="#000000" font-family="sans-serif" font-size="11" lengthAdjust="spacingAndGlyphs" textLength="26" x="69" y="1438.4189">-int id</text><text fill="#000000" font-family="sans-serif" font-size="11" lengthAdjust="spacingAndGlyphs" textLength="90" x="69" y="1452.2549">-float outputPower</text><line style="stroke: #A80036; stroke-width: 1.5;" x1="64" x2="208" y1="1458.6719" y2="1458.6719"/><!--MD5=[d3cdad78b703b3ff47b8cf68490e772e]
class ScooterParkingSlot--><rect fill="#FEFECE" filter="url(#faywny72ulofr)" height="61.8359" id="ScooterParkingSlot" style="stroke: #A80036; stroke-width: 1.5;" width="137" x="244.5" y="1398"/><ellipse cx="259.5" cy="1414" fill="#ADD1B2" rx="11" ry="11" style="stroke: #A80036; stroke-width: 1.0;"/><path d="M261.5,1410.5 Q261.7031,1410 261.9375,1409.75 Q262.1719,1409.5 262.4375,1409.5 Q262.9063,1409.5 263.2031,1409.7813 Q263.5,1410.0625 263.5,1410.7188 L263.5,1412.2813 Q263.5,1412.9375 263.2188,1413.2188 Q262.9375,1413.5 262.5,1413.5 Q262.1094,1413.5 261.8594,1413.3281 Q261.6094,1413.1563 261.5,1412.7031 Q261.4531,1412.3906 261.2813,1412.2188 Q260.9688,1411.8906 260.4063,1411.7031 Q259.8438,1411.5 259.2813,1411.5 Q258.5781,1411.5 257.9844,1411.7813 Q257.4063,1412.0625 256.9531,1412.6875 Q256.5,1413.3125 256.5,1414.1719 L256.5,1415.0938 Q256.5,1416.125 257.3438,1416.8125 Q258.1875,1417.5 259.6875,1417.5 Q260.5781,1417.5 261.2031,1417.2969 Q261.5625,1417.1875 261.9688,1416.8281 Q262.2344,1416.625 262.375,1416.5625 Q262.5156,1416.5 262.6875,1416.5 Q263.0156,1416.5 263.25,1416.7656 Q263.5,1417.0156 263.5,1417.375 Q263.5,1417.7188 263.1563,1418.125 Q262.6563,1418.7188 261.8594,1419.0469 Q260.8125,1419.5 259.5313,1419.5 Q258.0313,1419.5 256.8281,1418.9063 Q255.8594,1418.4375 255.1719,1417.4219 Q254.5,1416.4063 254.5,1415.2031 L254.5,1414.1094 Q254.5,1412.8594 255.0938,1411.7656 Q255.7031,1410.6719 256.75,1410.0938 Q257.8125,1409.5 259,1409.5 Q259.7188,1409.5 260.3438,1409.75 Q260.9688,1410 261.5,1410.5 Z "/><text fill="#000000" font-family="sans-serif" font-size="12" lengthAdjust="spacingAndGlyphs" textLength="105" x="273.5" y="1418.9102">ScooterParkingSlot</text><line style="stroke: #A80036; stroke-width: 1.5;" x1="245.5" x2="380.5" y1="1430" y2="1430"/><text fill="#000000" font-family="sans-serif" font-size="11" lengthAdjust="spacingAndGlyphs" textLength="26" x="250.5" y="1445.4189">-int id</text><line style="stroke: #A80036; stroke-width: 1.5;" x1="245.5" x2="380.5" y1="1451.8359" y2="1451.8359"/><!--MD5=[f4402668d5d5bb8485350c0fdb60ac8e]
class Scooter--><rect fill="#FEFECE" filter="url(#faywny72ulofr)" height="75.6719" id="Scooter" style="stroke: #A80036; stroke-width: 1.5;" width="337" x="162.5" y="608.5"/><ellipse cx="305.75" cy="624.5" fill="#ADD1B2" rx="11" ry="11" style="stroke: #A80036; stroke-width: 1.0;"/><path d="M307.75,621 Q307.9531,620.5 308.1875,620.25 Q308.4219,620 308.6875,620 Q309.1563,620 309.4531,620.2813 Q309.75,620.5625 309.75,621.2188 L309.75,622.7813 Q309.75,623.4375 309.4688,623.7188 Q309.1875,624 308.75,624 Q308.3594,624 308.1094,623.8281 Q307.8594,623.6563 307.75,623.2031 Q307.7031,622.8906 307.5313,622.7188 Q307.2188,622.3906 306.6563,622.2031 Q306.0938,622 305.5313,622 Q304.8281,622 304.2344,622.2813 Q303.6563,622.5625 303.2031,623.1875 Q302.75,623.8125 302.75,624.6719 L302.75,625.5938 Q302.75,626.625 303.5938,627.3125 Q304.4375,628 305.9375,628 Q306.8281,628 307.4531,627.7969 Q307.8125,627.6875 308.2188,627.3281 Q308.4844,627.125 308.625,627.0625 Q308.7656,627 308.9375,627 Q309.2656,627 309.5,627.2656 Q309.75,627.5156 309.75,627.875 Q309.75,628.2188 309.4063,628.625 Q308.9063,629.2188 308.1094,629.5469 Q307.0625,630 305.7813,630 Q304.2813,630 303.0781,629.4063 Q302.1094,628.9375 301.4219,627.9219 Q300.75,626.9063 300.75,625.7031 L300.75,624.6094 Q300.75,623.3594 301.3438,622.2656 Q301.9531,621.1719 303,620.5938 Q304.0625,620 305.25,620 Q305.9688,620 306.5938,620.25 Q307.2188,620.5 307.75,621 Z "/><text fill="#000000" font-family="sans-serif" font-size="12" lengthAdjust="spacingAndGlyphs" textLength="42" x="326.25" y="629.4102">Scooter</text><line style="stroke: #A80036; stroke-width: 1.5;" x1="163.5" x2="498.5" y1="640.5" y2="640.5"/><line style="stroke: #A80036; stroke-width: 1.5;" x1="163.5" x2="498.5" y1="648.5" y2="648.5"/><text fill="#000000" font-family="sans-serif" font-size="11" lengthAdjust="spacingAndGlyphs" textLength="225" x="168.5" y="663.9189">+Scooter(batteryPerc, charginStatus, potency,</text><text fill="#000000" font-family="sans-serif" font-size="11" lengthAdjust="spacingAndGlyphs" textLength="322" x="171.5" y="677.7549">weight, batteryCapacity, maxPayload, batteryVoltage, pharmacyId)</text><!--MD5=[3aa0d89c6bfdcbf7f32042cedac57549]
class Vehicle--><rect fill="#FEFECE" filter="url(#faywny72ulofr)" height="131.0156" id="Vehicle" style="stroke: #A80036; stroke-width: 1.5;" width="126" x="268" y="778"/><ellipse cx="307.3" cy="794" fill="#ADD1B2" rx="11" ry="11" style="stroke: #A80036; stroke-width: 1.0;"/><path d="M309.3,790.5 Q309.5031,790 309.7375,789.75 Q309.9719,789.5 310.2375,789.5 Q310.7063,789.5 311.0031,789.7813 Q311.3,790.0625 311.3,790.7188 L311.3,792.2813 Q311.3,792.9375 311.0188,793.2188 Q310.7375,793.5 310.3,793.5 Q309.9094,793.5 309.6594,793.3281 Q309.4094,793.1563 309.3,792.7031 Q309.2531,792.3906 309.0813,792.2188 Q308.7688,791.8906 308.2063,791.7031 Q307.6438,791.5 307.0813,791.5 Q306.3781,791.5 305.7844,791.7813 Q305.2063,792.0625 304.7531,792.6875 Q304.3,793.3125 304.3,794.1719 L304.3,795.0938 Q304.3,796.125 305.1438,796.8125 Q305.9875,797.5 307.4875,797.5 Q308.3781,797.5 309.0031,797.2969 Q309.3625,797.1875 309.7688,796.8281 Q310.0344,796.625 310.175,796.5625 Q310.3156,796.5 310.4875,796.5 Q310.8156,796.5 311.05,796.7656 Q311.3,797.0156 311.3,797.375 Q311.3,797.7188 310.9563,798.125 Q310.4563,798.7188 309.6594,799.0469 Q308.6125,799.5 307.3313,799.5 Q305.8313,799.5 304.6281,798.9063 Q303.6594,798.4375 302.9719,797.4219 Q302.3,796.4063 302.3,795.2031 L302.3,794.1094 Q302.3,792.8594 302.8938,791.7656 Q303.5031,790.6719 304.55,790.0938 Q305.6125,789.5 306.8,789.5 Q307.5188,789.5 308.1438,789.75 Q308.7688,790 309.3,790.5 Z "/><text fill="#000000" font-family="sans-serif" font-size="12" lengthAdjust="spacingAndGlyphs" textLength="40" x="326.7" y="798.9102">Vehicle</text><line style="stroke: #A80036; stroke-width: 1.5;" x1="269" x2="393" y1="810" y2="810"/><text fill="#000000" font-family="sans-serif" font-size="11" lengthAdjust="spacingAndGlyphs" textLength="26" x="274" y="825.4189">-int id</text><text fill="#000000" font-family="sans-serif" font-size="11" lengthAdjust="spacingAndGlyphs" textLength="93" x="274" y="839.2549">-String vehicleType</text><text fill="#000000" font-family="sans-serif" font-size="11" lengthAdjust="spacingAndGlyphs" textLength="67" x="274" y="853.0908">-float potency</text><text fill="#000000" font-family="sans-serif" font-size="11" lengthAdjust="spacingAndGlyphs" textLength="61" x="274" y="866.9268">-float weight</text><text fill="#000000" font-family="sans-serif" font-size="11" lengthAdjust="spacingAndGlyphs" textLength="86" x="274" y="880.7627">-float maxPayload</text><text fill="#000000" font-family="sans-serif" font-size="11" lengthAdjust="spacingAndGlyphs" textLength="114" x="274" y="894.5986">-String charngingStatus</text><line style="stroke: #A80036; stroke-width: 1.5;" x1="269" x2="393" y1="901.0156" y2="901.0156"/><!--MD5=[79eb2d862cef9730b5f9dcab29e35f17]
class Battery--><rect fill="#FEFECE" filter="url(#faywny72ulofr)" height="103.3438" id="Battery" style="stroke: #A80036; stroke-width: 1.5;" width="111" x="133.5" y="987"/><ellipse cx="167.4" cy="1003" fill="#ADD1B2" rx="11" ry="11" style="stroke: #A80036; stroke-width: 1.0;"/><path d="M169.4,999.5 Q169.6031,999 169.8375,998.75 Q170.0719,998.5 170.3375,998.5 Q170.8063,998.5 171.1031,998.7813 Q171.4,999.0625 171.4,999.7188 L171.4,1001.2813 Q171.4,1001.9375 171.1188,1002.2188 Q170.8375,1002.5 170.4,1002.5 Q170.0094,1002.5 169.7594,1002.3281 Q169.5094,1002.1563 169.4,1001.7031 Q169.3531,1001.3906 169.1813,1001.2188 Q168.8688,1000.8906 168.3063,1000.7031 Q167.7438,1000.5 167.1813,1000.5 Q166.4781,1000.5 165.8844,1000.7813 Q165.3063,1001.0625 164.8531,1001.6875 Q164.4,1002.3125 164.4,1003.1719 L164.4,1004.0938 Q164.4,1005.125 165.2438,1005.8125 Q166.0875,1006.5 167.5875,1006.5 Q168.4781,1006.5 169.1031,1006.2969 Q169.4625,1006.1875 169.8688,1005.8281 Q170.1344,1005.625 170.275,1005.5625 Q170.4156,1005.5 170.5875,1005.5 Q170.9156,1005.5 171.15,1005.7656 Q171.4,1006.0156 171.4,1006.375 Q171.4,1006.7188 171.0563,1007.125 Q170.5563,1007.7188 169.7594,1008.0469 Q168.7125,1008.5 167.4313,1008.5 Q165.9313,1008.5 164.7281,1007.9063 Q163.7594,1007.4375 163.0719,1006.4219 Q162.4,1005.4063 162.4,1004.2031 L162.4,1003.1094 Q162.4,1001.8594 162.9938,1000.7656 Q163.6031,999.6719 164.65,999.0938 Q165.7125,998.5 166.9,998.5 Q167.6188,998.5 168.2438,998.75 Q168.8688,999 169.4,999.5 Z "/><text fill="#000000" font-family="sans-serif" font-size="12" lengthAdjust="spacingAndGlyphs" textLength="37" x="185.6" y="1007.9102">Battery</text><line style="stroke: #A80036; stroke-width: 1.5;" x1="134.5" x2="243.5" y1="1019" y2="1019"/><text fill="#000000" font-family="sans-serif" font-size="11" lengthAdjust="spacingAndGlyphs" textLength="26" x="139.5" y="1034.4189">-int id</text><text fill="#000000" font-family="sans-serif" font-size="11" lengthAdjust="spacingAndGlyphs" textLength="84" x="139.5" y="1048.2549">-float batteryPerc</text><text fill="#000000" font-family="sans-serif" font-size="11" lengthAdjust="spacingAndGlyphs" textLength="94" x="139.5" y="1062.0908">-int batteryCapacity</text><text fill="#000000" font-family="sans-serif" font-size="11" lengthAdjust="spacingAndGlyphs" textLength="99" x="139.5" y="1075.9268">-float batteryVoltage</text><line style="stroke: #A80036; stroke-width: 1.5;" x1="134.5" x2="243.5" y1="1082.3438" y2="1082.3438"/><!--MD5=[0f39e4cb6f03951afbf6d14bd2505654]
class Address--><rect fill="#FEFECE" filter="url(#faywny72ulofr)" height="144.8516" id="Address" style="stroke: #A80036; stroke-width: 1.5;" width="106" x="278" y="1168"/><ellipse cx="305.6" cy="1184" fill="#ADD1B2" rx="11" ry="11" style="stroke: #A80036; stroke-width: 1.0;"/><path d="M307.6,1180.5 Q307.8031,1180 308.0375,1179.75 Q308.2719,1179.5 308.5375,1179.5 Q309.0063,1179.5 309.3031,1179.7813 Q309.6,1180.0625 309.6,1180.7188 L309.6,1182.2813 Q309.6,1182.9375 309.3188,1183.2188 Q309.0375,1183.5 308.6,1183.5 Q308.2094,1183.5 307.9594,1183.3281 Q307.7094,1183.1563 307.6,1182.7031 Q307.5531,1182.3906 307.3813,1182.2188 Q307.0688,1181.8906 306.5063,1181.7031 Q305.9438,1181.5 305.3813,1181.5 Q304.6781,1181.5 304.0844,1181.7813 Q303.5063,1182.0625 303.0531,1182.6875 Q302.6,1183.3125 302.6,1184.1719 L302.6,1185.0938 Q302.6,1186.125 303.4438,1186.8125 Q304.2875,1187.5 305.7875,1187.5 Q306.6781,1187.5 307.3031,1187.2969 Q307.6625,1187.1875 308.0688,1186.8281 Q308.3344,1186.625 308.475,1186.5625 Q308.6156,1186.5 308.7875,1186.5 Q309.1156,1186.5 309.35,1186.7656 Q309.6,1187.0156 309.6,1187.375 Q309.6,1187.7188 309.2563,1188.125 Q308.7563,1188.7188 307.9594,1189.0469 Q306.9125,1189.5 305.6313,1189.5 Q304.1313,1189.5 302.9281,1188.9063 Q301.9594,1188.4375 301.2719,1187.4219 Q300.6,1186.4063 300.6,1185.2031 L300.6,1184.1094 Q300.6,1182.8594 301.1938,1181.7656 Q301.8031,1180.6719 302.85,1180.0938 Q303.9125,1179.5 305.1,1179.5 Q305.8188,1179.5 306.4438,1179.75 Q307.0688,1180 307.6,1180.5 Z "/><text fill="#000000" font-family="sans-serif" font-size="12" lengthAdjust="spacingAndGlyphs" textLength="46" x="322.4" y="1188.9102">Address</text><line style="stroke: #A80036; stroke-width: 1.5;" x1="279" x2="383" y1="1200" y2="1200"/><text fill="#000000" font-family="sans-serif" font-size="11" lengthAdjust="spacingAndGlyphs" textLength="82" x="284" y="1215.4189">-double longitude</text><text fill="#000000" font-family="sans-serif" font-size="11" lengthAdjust="spacingAndGlyphs" textLength="73" x="284" y="1229.2549">-double latitude</text><text fill="#000000" font-family="sans-serif" font-size="11" lengthAdjust="spacingAndGlyphs" textLength="94" x="284" y="1243.0908">-String doorNumber</text><text fill="#000000" font-family="sans-serif" font-size="11" lengthAdjust="spacingAndGlyphs" textLength="90" x="284" y="1256.9268">-String streetName</text><text fill="#000000" font-family="sans-serif" font-size="11" lengthAdjust="spacingAndGlyphs" textLength="89" x="284" y="1270.7627">-String postalCode</text><text fill="#000000" font-family="sans-serif" font-size="11" lengthAdjust="spacingAndGlyphs" textLength="68" x="284" y="1284.5986">-String locality</text><text fill="#000000" font-family="sans-serif" font-size="11" lengthAdjust="spacingAndGlyphs" textLength="72" x="284" y="1298.4346">-String country</text><line style="stroke: #A80036; stroke-width: 1.5;" x1="279" x2="383" y1="1304.8516" y2="1304.8516"/><!--MD5=[7f2a9fafcebe4f099f71398fd3e2ed00]
class Pharmacy--><rect fill="#FEFECE" filter="url(#faywny72ulofr)" height="103.3438" id="Pharmacy" style="stroke: #A80036; stroke-width: 1.5;" width="102" x="280" y="987"/><ellipse cx="301.75" cy="1003" fill="#ADD1B2" rx="11" ry="11" style="stroke: #A80036; stroke-width: 1.0;"/><path d="M303.75,999.5 Q303.9531,999 304.1875,998.75 Q304.4219,998.5 304.6875,998.5 Q305.1563,998.5 305.4531,998.7813 Q305.75,999.0625 305.75,999.7188 L305.75,1001.2813 Q305.75,1001.9375 305.4688,1002.2188 Q305.1875,1002.5 304.75,1002.5 Q304.3594,1002.5 304.1094,1002.3281 Q303.8594,1002.1563 303.75,1001.7031 Q303.7031,1001.3906 303.5313,1001.2188 Q303.2188,1000.8906 302.6563,1000.7031 Q302.0938,1000.5 301.5313,1000.5 Q300.8281,1000.5 300.2344,1000.7813 Q299.6563,1001.0625 299.2031,1001.6875 Q298.75,1002.3125 298.75,1003.1719 L298.75,1004.0938 Q298.75,1005.125 299.5938,1005.8125 Q300.4375,1006.5 301.9375,1006.5 Q302.8281,1006.5 303.4531,1006.2969 Q303.8125,1006.1875 304.2188,1005.8281 Q304.4844,1005.625 304.625,1005.5625 Q304.7656,1005.5 304.9375,1005.5 Q305.2656,1005.5 305.5,1005.7656 Q305.75,1006.0156 305.75,1006.375 Q305.75,1006.7188 305.4063,1007.125 Q304.9063,1007.7188 304.1094,1008.0469 Q303.0625,1008.5 301.7813,1008.5 Q300.2813,1008.5 299.0781,1007.9063 Q298.1094,1007.4375 297.4219,1006.4219 Q296.75,1005.4063 296.75,1004.2031 L296.75,1003.1094 Q296.75,1001.8594 297.3438,1000.7656 Q297.9531,999.6719 299,999.0938 Q300.0625,998.5 301.25,998.5 Q301.9688,998.5 302.5938,998.75 Q303.2188,999 303.75,999.5 Z "/><text fill="#000000" font-family="sans-serif" font-size="12" lengthAdjust="spacingAndGlyphs" textLength="55" x="317.25" y="1007.9102">Pharmacy</text><line style="stroke: #A80036; stroke-width: 1.5;" x1="281" x2="381" y1="1019" y2="1019"/><text fill="#000000" font-family="sans-serif" font-size="11" lengthAdjust="spacingAndGlyphs" textLength="26" x="286" y="1034.4189">-int id</text><text fill="#000000" font-family="sans-serif" font-size="11" lengthAdjust="spacingAndGlyphs" textLength="61" x="286" y="1048.2549">-String name</text><text fill="#000000" font-family="sans-serif" font-size="11" lengthAdjust="spacingAndGlyphs" textLength="59" x="286" y="1062.0908">-String email</text><line style="stroke: #A80036; stroke-width: 1.5;" x1="281" x2="381" y1="1068.5078" y2="1068.5078"/><text fill="#000000" font-family="sans-serif" font-size="11" lengthAdjust="spacingAndGlyphs" textLength="90" x="286" y="1083.9268">+getScootersList()</text><!--MD5=[28160fdc0be430cd6f04db15a7547552]
class PharmacyService--><rect fill="#FEFECE" filter="url(#faywny72ulofr)" height="75.6719" id="PharmacyService" style="stroke: #A80036; stroke-width: 1.5;" width="127" x="62.5" y="425.5"/><ellipse cx="77.5" cy="441.5" fill="#ADD1B2" rx="11" ry="11" style="stroke: #A80036; stroke-width: 1.0;"/><path d="M79.5,438 Q79.7031,437.5 79.9375,437.25 Q80.1719,437 80.4375,437 Q80.9063,437 81.2031,437.2813 Q81.5,437.5625 81.5,438.2188 L81.5,439.7813 Q81.5,440.4375 81.2188,440.7188 Q80.9375,441 80.5,441 Q80.1094,441 79.8594,440.8281 Q79.6094,440.6563 79.5,440.2031 Q79.4531,439.8906 79.2813,439.7188 Q78.9688,439.3906 78.4063,439.2031 Q77.8438,439 77.2813,439 Q76.5781,439 75.9844,439.2813 Q75.4063,439.5625 74.9531,440.1875 Q74.5,440.8125 74.5,441.6719 L74.5,442.5938 Q74.5,443.625 75.3438,444.3125 Q76.1875,445 77.6875,445 Q78.5781,445 79.2031,444.7969 Q79.5625,444.6875 79.9688,444.3281 Q80.2344,444.125 80.375,444.0625 Q80.5156,444 80.6875,444 Q81.0156,444 81.25,444.2656 Q81.5,444.5156 81.5,444.875 Q81.5,445.2188 81.1563,445.625 Q80.6563,446.2188 79.8594,446.5469 Q78.8125,447 77.5313,447 Q76.0313,447 74.8281,446.4063 Q73.8594,445.9375 73.1719,444.9219 Q72.5,443.9063 72.5,442.7031 L72.5,441.6094 Q72.5,440.3594 73.0938,439.2656 Q73.7031,438.1719 74.75,437.5938 Q75.8125,437 77,437 Q77.7188,437 78.3438,437.25 Q78.9688,437.5 79.5,438 Z "/><text fill="#000000" font-family="sans-serif" font-size="12" lengthAdjust="spacingAndGlyphs" textLength="95" x="91.5" y="446.4102">PharmacyService</text><line style="stroke: #A80036; stroke-width: 1.5;" x1="63.5" x2="188.5" y1="457.5" y2="457.5"/><line style="stroke: #A80036; stroke-width: 1.5;" x1="63.5" x2="188.5" y1="465.5" y2="465.5"/><text fill="#000000" font-family="sans-serif" font-size="11" lengthAdjust="spacingAndGlyphs" textLength="99" x="68.5" y="480.9189">+PharmacyService()</text><text fill="#000000" font-family="sans-serif" font-size="11" lengthAdjust="spacingAndGlyphs" textLength="85" x="68.5" y="494.7549">+getPharmacies()</text><!--MD5=[aa4a745fe56463fab637f55d2a7c778f]
class ScooterService--><rect fill="#FEFECE" filter="url(#faywny72ulofr)" height="103.3438" id="ScooterService" style="stroke: #A80036; stroke-width: 1.5;" width="299" x="224.5" y="412"/><ellipse cx="328.75" cy="428" fill="#ADD1B2" rx="11" ry="11" style="stroke: #A80036; stroke-width: 1.0;"/><path d="M330.75,424.5 Q330.9531,424 331.1875,423.75 Q331.4219,423.5 331.6875,423.5 Q332.1563,423.5 332.4531,423.7813 Q332.75,424.0625 332.75,424.7188 L332.75,426.2813 Q332.75,426.9375 332.4688,427.2188 Q332.1875,427.5 331.75,427.5 Q331.3594,427.5 331.1094,427.3281 Q330.8594,427.1563 330.75,426.7031 Q330.7031,426.3906 330.5313,426.2188 Q330.2188,425.8906 329.6563,425.7031 Q329.0938,425.5 328.5313,425.5 Q327.8281,425.5 327.2344,425.7813 Q326.6563,426.0625 326.2031,426.6875 Q325.75,427.3125 325.75,428.1719 L325.75,429.0938 Q325.75,430.125 326.5938,430.8125 Q327.4375,431.5 328.9375,431.5 Q329.8281,431.5 330.4531,431.2969 Q330.8125,431.1875 331.2188,430.8281 Q331.4844,430.625 331.625,430.5625 Q331.7656,430.5 331.9375,430.5 Q332.2656,430.5 332.5,430.7656 Q332.75,431.0156 332.75,431.375 Q332.75,431.7188 332.4063,432.125 Q331.9063,432.7188 331.1094,433.0469 Q330.0625,433.5 328.7813,433.5 Q327.2813,433.5 326.0781,432.9063 Q325.1094,432.4375 324.4219,431.4219 Q323.75,430.4063 323.75,429.2031 L323.75,428.1094 Q323.75,426.8594 324.3438,425.7656 Q324.9531,424.6719 326,424.0938 Q327.0625,423.5 328.25,423.5 Q328.9688,423.5 329.5938,423.75 Q330.2188,424 330.75,424.5 Z "/><text fill="#000000" font-family="sans-serif" font-size="12" lengthAdjust="spacingAndGlyphs" textLength="82" x="349.25" y="432.9102">ScooterService</text><line style="stroke: #A80036; stroke-width: 1.5;" x1="225.5" x2="522.5" y1="444" y2="444"/><line style="stroke: #A80036; stroke-width: 1.5;" x1="225.5" x2="522.5" y1="452" y2="452"/><text fill="#000000" font-family="sans-serif" font-size="11" lengthAdjust="spacingAndGlyphs" textLength="89" x="230.5" y="467.4189">+ScooterService()</text><text fill="#000000" font-family="sans-serif" font-size="11" lengthAdjust="spacingAndGlyphs" textLength="146" x="230.5" y="481.2549">+getScootersList(pharmacyId)</text><text fill="#000000" font-family="sans-serif" font-size="11" lengthAdjust="spacingAndGlyphs" textLength="287" x="230.5" y="495.0908">+updateScooter(designation, potency, weight, maxPayload,</text><text fill="#000000" font-family="sans-serif" font-size="11" lengthAdjust="spacingAndGlyphs" textLength="211" x="230.5" y="508.9268">batteryCapacity, batteryVoltage, efficiency)</text><!--MD5=[4b2d61224b33971326a22fe5d809d926]
class DataHandler--><rect fill="#FEFECE" filter="url(#faywny72ulofr)" height="75.6719" id="DataHandler" style="stroke: #A80036; stroke-width: 1.5;" width="104" x="876" y="425.5"/><ellipse cx="891.9" cy="441.5" fill="#ADD1B2" rx="11" ry="11" style="stroke: #A80036; stroke-width: 1.0;"/><path d="M893.9,438 Q894.1031,437.5 894.3375,437.25 Q894.5719,437 894.8375,437 Q895.3063,437 895.6031,437.2813 Q895.9,437.5625 895.9,438.2188 L895.9,439.7813 Q895.9,440.4375 895.6188,440.7188 Q895.3375,441 894.9,441 Q894.5094,441 894.2594,440.8281 Q894.0094,440.6563 893.9,440.2031 Q893.8531,439.8906 893.6813,439.7188 Q893.3688,439.3906 892.8063,439.2031 Q892.2438,439 891.6813,439 Q890.9781,439 890.3844,439.2813 Q889.8063,439.5625 889.3531,440.1875 Q888.9,440.8125 888.9,441.6719 L888.9,442.5938 Q888.9,443.625 889.7438,444.3125 Q890.5875,445 892.0875,445 Q892.9781,445 893.6031,444.7969 Q893.9625,444.6875 894.3688,444.3281 Q894.6344,444.125 894.775,444.0625 Q894.9156,444 895.0875,444 Q895.4156,444 895.65,444.2656 Q895.9,444.5156 895.9,444.875 Q895.9,445.2188 895.5563,445.625 Q895.0563,446.2188 894.2594,446.5469 Q893.2125,447 891.9313,447 Q890.4313,447 889.2281,446.4063 Q888.2594,445.9375 887.5719,444.9219 Q886.9,443.9063 886.9,442.7031 L886.9,441.6094 Q886.9,440.3594 887.4938,439.2656 Q888.1031,438.1719 889.15,437.5938 Q890.2125,437 891.4,437 Q892.1188,437 892.7438,437.25 Q893.3688,437.5 893.9,438 Z "/><text fill="#000000" font-family="sans-serif" font-size="12" lengthAdjust="spacingAndGlyphs" textLength="70" x="906.1" y="446.4102">DataHandler</text><line style="stroke: #A80036; stroke-width: 1.5;" x1="877" x2="979" y1="457.5" y2="457.5"/><line style="stroke: #A80036; stroke-width: 1.5;" x1="877" x2="979" y1="465.5" y2="465.5"/><text fill="#000000" font-family="sans-serif" font-size="11" lengthAdjust="spacingAndGlyphs" textLength="92" x="882" y="480.9189">+openConnection()</text><text fill="#000000" font-family="sans-serif" font-size="11" lengthAdjust="spacingAndGlyphs" textLength="52" x="882" y="494.7549">+closeAll()</text><!--MD5=[b860ecc58d0ca70e482845cb1f7b4615]
class PharmacyDB--><rect fill="#FEFECE" filter="url(#faywny72ulofr)" height="75.6719" id="PharmacyDB" style="stroke: #A80036; stroke-width: 1.5;" width="104" x="1067" y="608.5"/><ellipse cx="1082" cy="624.5" fill="#ADD1B2" rx="11" ry="11" style="stroke: #A80036; stroke-width: 1.0;"/><path d="M1084,621 Q1084.2031,620.5 1084.4375,620.25 Q1084.6719,620 1084.9375,620 Q1085.4063,620 1085.7031,620.2813 Q1086,620.5625 1086,621.2188 L1086,622.7813 Q1086,623.4375 1085.7188,623.7188 Q1085.4375,624 1085,624 Q1084.6094,624 1084.3594,623.8281 Q1084.1094,623.6563 1084,623.2031 Q1083.9531,622.8906 1083.7813,622.7188 Q1083.4688,622.3906 1082.9063,622.2031 Q1082.3438,622 1081.7813,622 Q1081.0781,622 1080.4844,622.2813 Q1079.9063,622.5625 1079.4531,623.1875 Q1079,623.8125 1079,624.6719 L1079,625.5938 Q1079,626.625 1079.8438,627.3125 Q1080.6875,628 1082.1875,628 Q1083.0781,628 1083.7031,627.7969 Q1084.0625,627.6875 1084.4688,627.3281 Q1084.7344,627.125 1084.875,627.0625 Q1085.0156,627 1085.1875,627 Q1085.5156,627 1085.75,627.2656 Q1086,627.5156 1086,627.875 Q1086,628.2188 1085.6563,628.625 Q1085.1563,629.2188 1084.3594,629.5469 Q1083.3125,630 1082.0313,630 Q1080.5313,630 1079.3281,629.4063 Q1078.3594,628.9375 1077.6719,627.9219 Q1077,626.9063 1077,625.7031 L1077,624.6094 Q1077,623.3594 1077.5938,622.2656 Q1078.2031,621.1719 1079.25,620.5938 Q1080.3125,620 1081.5,620 Q1082.2188,620 1082.8438,620.25 Q1083.4688,620.5 1084,621 Z "/><text fill="#000000" font-family="sans-serif" font-size="12" lengthAdjust="spacingAndGlyphs" textLength="72" x="1096" y="629.4102">PharmacyDB</text><line style="stroke: #A80036; stroke-width: 1.5;" x1="1068" x2="1170" y1="640.5" y2="640.5"/><line style="stroke: #A80036; stroke-width: 1.5;" x1="1068" x2="1170" y1="648.5" y2="648.5"/><text fill="#000000" font-family="sans-serif" font-size="11" lengthAdjust="spacingAndGlyphs" textLength="76" x="1073" y="663.9189">+PharmacyDB()</text><text fill="#000000" font-family="sans-serif" font-size="11" lengthAdjust="spacingAndGlyphs" textLength="85" x="1073" y="677.7549">+getPharmacies()</text><!--MD5=[48d7298b3bd1f8b3e8f77915e881d788]
class ScooterDB--><rect fill="#FEFECE" filter="url(#faywny72ulofr)" height="103.3438" id="ScooterDB" style="stroke: #A80036; stroke-width: 1.5;" width="337" x="694.5" y="595"/><ellipse cx="829.25" cy="611" fill="#ADD1B2" rx="11" ry="11" style="stroke: #A80036; stroke-width: 1.0;"/><path d="M831.25,607.5 Q831.4531,607 831.6875,606.75 Q831.9219,606.5 832.1875,606.5 Q832.6563,606.5 832.9531,606.7813 Q833.25,607.0625 833.25,607.7188 L833.25,609.2813 Q833.25,609.9375 832.9688,610.2188 Q832.6875,610.5 832.25,610.5 Q831.8594,610.5 831.6094,610.3281 Q831.3594,610.1563 831.25,609.7031 Q831.2031,609.3906 831.0313,609.2188 Q830.7188,608.8906 830.1563,608.7031 Q829.5938,608.5 829.0313,608.5 Q828.3281,608.5 827.7344,608.7813 Q827.1563,609.0625 826.7031,609.6875 Q826.25,610.3125 826.25,611.1719 L826.25,612.0938 Q826.25,613.125 827.0938,613.8125 Q827.9375,614.5 829.4375,614.5 Q830.3281,614.5 830.9531,614.2969 Q831.3125,614.1875 831.7188,613.8281 Q831.9844,613.625 832.125,613.5625 Q832.2656,613.5 832.4375,613.5 Q832.7656,613.5 833,613.7656 Q833.25,614.0156 833.25,614.375 Q833.25,614.7188 832.9063,615.125 Q832.4063,615.7188 831.6094,616.0469 Q830.5625,616.5 829.2813,616.5 Q827.7813,616.5 826.5781,615.9063 Q825.6094,615.4375 824.9219,614.4219 Q824.25,613.4063 824.25,612.2031 L824.25,611.1094 Q824.25,609.8594 824.8438,608.7656 Q825.4531,607.6719 826.5,607.0938 Q827.5625,606.5 828.75,606.5 Q829.4688,606.5 830.0938,606.75 Q830.7188,607 831.25,607.5 Z "/><text fill="#000000" font-family="sans-serif" font-size="12" lengthAdjust="spacingAndGlyphs" textLength="59" x="849.75" y="615.9102">ScooterDB</text><line style="stroke: #A80036; stroke-width: 1.5;" x1="695.5" x2="1030.5" y1="627" y2="627"/><line style="stroke: #A80036; stroke-width: 1.5;" x1="695.5" x2="1030.5" y1="635" y2="635"/><text fill="#000000" font-family="sans-serif" font-size="11" lengthAdjust="spacingAndGlyphs" textLength="66" x="700.5" y="650.4189">+ScooterDB()</text><text fill="#000000" font-family="sans-serif" font-size="11" lengthAdjust="spacingAndGlyphs" textLength="90" x="700.5" y="664.2549">+getScootersList()</text><text fill="#000000" font-family="sans-serif" font-size="11" lengthAdjust="spacingAndGlyphs" textLength="325" x="700.5" y="678.0908">+updateScooterFromDB(designation, potency, weight, maxPayload,</text><text fill="#000000" font-family="sans-serif" font-size="11" lengthAdjust="spacingAndGlyphs" textLength="211" x="700.5" y="691.9268">batteryCapacity, batteryVoltage, efficiency)</text><!--MD5=[f40d64c3825bdc96a4efd5b7e3ff1420]
reverse link DataHandler to PharmacyDB--><path d="M981.768,515.453 C1012.99,545.043 1051.63,581.655 1079.94,608.485 " fill="none" id="DataHandler&lt;-PharmacyDB" style="stroke: #A80036; stroke-width: 1.0;"/><polygon fill="none" points="976.815,520.403,967.113,501.565,986.445,510.241,976.815,520.403" style="stroke: #A80036; stroke-width: 1.0;"/><!--MD5=[a2c65173c20bdf66914a8ed43c34e217]
reverse link DataHandler to ScooterDB--><path d="M923.579,521.618 C921.355,536.065 918.014,551.347 913,565 C909.313,575.038 904.275,585.169 898.81,594.697 " fill="none" id="DataHandler&lt;-ScooterDB" style="stroke: #A80036; stroke-width: 1.0;"/><polygon fill="none" points="916.645,520.652,926.072,501.675,930.537,522.389,916.645,520.652" style="stroke: #A80036; stroke-width: 1.0;"/><!--MD5=[068c19e9ee2b8d6f5118254dd44da898]
link UpdateScooterUI to UpdateScooterController--><path d="M198,108.09 C198,129.11 198,160.85 198,187.58 " fill="none" id="UpdateScooterUI-&gt;UpdateScooterController" style="stroke: #A80036; stroke-width: 1.0; stroke-dasharray: 7.0,7.0;"/><polygon fill="#A80036" points="198,192.85,202,183.85,198,187.85,194,183.85,198,192.85" style="stroke: #A80036; stroke-width: 1.0;"/><!--MD5=[8726f40d04d7fff4643080593f315b6b]
link UpdateScooterController to PharmacyService--><path d="M183.775,283.16 C170.95,322.97 152.218,381.12 139.592,420.31 " fill="none" id="UpdateScooterController-&gt;PharmacyService" style="stroke: #A80036; stroke-width: 1.0; stroke-dasharray: 7.0,7.0;"/><polygon fill="#A80036" points="137.929,425.47,144.5098,418.1424,139.4711,420.7138,136.8998,415.6751,137.929,425.47" style="stroke: #A80036; stroke-width: 1.0;"/><!--MD5=[ca01bf2db4ec991acca53a5e6a0a6b09]
link UpdateScooterController to ScooterService--><path d="M232.772,283.16 C260.899,318.87 300.648,369.35 330.813,407.66 " fill="none" id="UpdateScooterController-&gt;ScooterService" style="stroke: #A80036; stroke-width: 1.0; stroke-dasharray: 7.0,7.0;"/><polygon fill="#A80036" points="334.071,411.8,331.636,402.2569,330.9737,407.8749,325.3558,407.2126,334.071,411.8" style="stroke: #A80036; stroke-width: 1.0;"/><!--MD5=[04ba2cb7f5803b19c0d0e740f2a895e0]
link Database to PharmacyDB--><path d="M631.777,487.27 C641.319,504.654 656.996,527.514 678,539 C696.782,549.271 752.768,544.268 774,547 C835.528,554.917 991.835,570.906 1049,595 C1055.84,597.885 1062.66,601.545 1069.21,605.573 " fill="none" id="Database-&gt;PharmacyDB" style="stroke: #A80036; stroke-width: 1.0;"/><polygon fill="#A80036" points="1073.69,608.415,1068.2214,600.2239,1069.4641,605.7426,1063.9455,606.9853,1073.69,608.415" style="stroke: #A80036; stroke-width: 1.0;"/><text fill="#000000" font-family="sans-serif" font-size="13" lengthAdjust="spacingAndGlyphs" textLength="53" x="914" y="561.4951">manages</text><text fill="#000000" font-family="sans-serif" font-size="13" lengthAdjust="spacingAndGlyphs" textLength="7" x="626.4598" y="508.1977">1</text><text fill="#000000" font-family="sans-serif" font-size="13" lengthAdjust="spacingAndGlyphs" textLength="7" x="1057.9957" y="597.7618">1</text><!--MD5=[70f68ce34a156c56edce71dba5c758e9]
link Database to ScooterDB--><path d="M634.946,487.27 C645.419,503.094 660.859,523.966 678,539 C700.65,558.867 727.572,576.856 753.767,592.156 " fill="none" id="Database-&gt;ScooterDB" style="stroke: #A80036; stroke-width: 1.0;"/><polygon fill="#A80036" points="758.305,594.785,752.521,586.8134,753.9781,592.2794,748.5121,593.7365,758.305,594.785" style="stroke: #A80036; stroke-width: 1.0;"/><text fill="#000000" font-family="sans-serif" font-size="13" lengthAdjust="spacingAndGlyphs" textLength="53" x="712" y="561.4951">manages</text><text fill="#000000" font-family="sans-serif" font-size="13" lengthAdjust="spacingAndGlyphs" textLength="7" x="638.9804" y="508.1977">1</text><text fill="#000000" font-family="sans-serif" font-size="13" lengthAdjust="spacingAndGlyphs" textLength="7" x="736.7663" y="584.2564">1</text><!--MD5=[ee7ed70a83e67b7f86b44988d609d45d]
link ScooterService to PharmacyDB--><path d="M385.735,515.08 C392.758,533.902 403.801,553.47 421,565 C479.026,603.897 983.057,571.944 1049,595 C1056.61,597.662 1064.12,601.438 1071.23,605.74 " fill="none" id="ScooterService-&gt;PharmacyDB" style="stroke: #A80036; stroke-width: 1.0;"/><polygon fill="#A80036" points="1075.6,608.482,1070.1016,600.3108,1071.3644,605.8249,1065.8503,607.0878,1075.6,608.482" style="stroke: #A80036; stroke-width: 1.0;"/><text fill="#000000" font-family="sans-serif" font-size="13" lengthAdjust="spacingAndGlyphs" textLength="28" x="422" y="561.4951">uses</text><text fill="#000000" font-family="sans-serif" font-size="13" lengthAdjust="spacingAndGlyphs" textLength="7" x="379.893" y="536.9541">1</text><text fill="#000000" font-family="sans-serif" font-size="13" lengthAdjust="spacingAndGlyphs" textLength="5" x="1068.0591" y="597.5552">*</text><!--MD5=[799b1f05f2692ceb79e345e4105e6b42]
link PharmacyService to ScooterDB--><path d="M156.508,501.889 C170.322,516.097 187.849,530.818 207,539 C232.596,549.936 305.128,539.743 332,547 C349.27,551.664 350.952,559.581 368,565 C451.985,591.696 476.994,580.995 564,595 C604.581,601.532 648.22,608.777 689.278,615.693 " fill="none" id="PharmacyService-&gt;ScooterDB" style="stroke: #A80036; stroke-width: 1.0;"/><polygon fill="#A80036" points="694.272,616.534,686.061,611.0953,689.3414,615.7039,684.7328,618.9843,694.272,616.534" style="stroke: #A80036; stroke-width: 1.0;"/><text fill="#000000" font-family="sans-serif" font-size="13" lengthAdjust="spacingAndGlyphs" textLength="28" x="369" y="561.4951">uses</text><text fill="#000000" font-family="sans-serif" font-size="13" lengthAdjust="spacingAndGlyphs" textLength="7" x="153.6436" y="522.5395">1</text><text fill="#000000" font-family="sans-serif" font-size="13" lengthAdjust="spacingAndGlyphs" textLength="5" x="681.5132" y="612.309">*</text><!--MD5=[2ed2b43e7f6d114538396b0b10b28567]
link PharmacyService to Pharmacy--><path d="M124.998,501.751 C124.482,552.351 126.539,645.296 145,722 C171.519,832.188 178.94,864.2 244,957 C253.021,969.868 264.402,982.222 275.932,993.224 " fill="none" id="PharmacyService-&gt;Pharmacy" style="stroke: #A80036; stroke-width: 1.0;"/><polygon fill="#A80036" points="279.845,996.902,276.027,987.8233,276.2019,993.4774,270.5477,993.6523,279.845,996.902" style="stroke: #A80036; stroke-width: 1.0;"/><text fill="#000000" font-family="sans-serif" font-size="13" lengthAdjust="spacingAndGlyphs" textLength="111" x="152" y="744.4951">manage services of</text><text fill="#000000" font-family="sans-serif" font-size="13" lengthAdjust="spacingAndGlyphs" textLength="7" x="117.2805" y="522.6715">1</text><text fill="#000000" font-family="sans-serif" font-size="13" lengthAdjust="spacingAndGlyphs" textLength="5" x="266.9644" y="987.113">*</text><!--MD5=[a4fc43f4c54bc2b04150642bdfef7d93]
link ScooterService to Scooter--><path d="M243.554,515.287 C232.323,524.28 222.429,534.775 215,547 C201.308,569.53 215.916,589.462 238.841,605.398 " fill="none" id="ScooterService-&gt;Scooter" style="stroke: #A80036; stroke-width: 1.0;"/><polygon fill="#A80036" points="243.214,608.327,237.9628,599.9948,239.0599,605.5443,233.5105,606.6414,243.214,608.327" style="stroke: #A80036; stroke-width: 1.0;"/><text fill="#000000" font-family="sans-serif" font-size="13" lengthAdjust="spacingAndGlyphs" textLength="111" x="216" y="561.4951">manage services of</text><text fill="#000000" font-family="sans-serif" font-size="13" lengthAdjust="spacingAndGlyphs" textLength="7" x="218.555" y="536.8165">1</text><text fill="#000000" font-family="sans-serif" font-size="13" lengthAdjust="spacingAndGlyphs" textLength="5" x="222.1318" y="597.6581">*</text><!--MD5=[51d7b9a785c9fb041ca400474ed1d998]
link Database to Pharmacy--><path d="M620.35,487.26 C619.278,507.9 616.448,538.985 609,565 C556.025,750.026 541.587,803.871 425,957 C412.896,972.898 397.18,987.869 382.075,1000.489 " fill="none" id="Database-Pharmacy" style="stroke: #A80036; stroke-width: 1.0;"/><text fill="#000000" font-family="sans-serif" font-size="13" lengthAdjust="spacingAndGlyphs" textLength="82" x="559" y="744.4951">has registered</text><polygon fill="#000000" points="595.5,753.3516,598.5,759.3516,601.5,753.3516,595.5,753.3516" style="stroke: #000000; stroke-width: 1.0;"/><text fill="#000000" font-family="sans-serif" font-size="13" lengthAdjust="spacingAndGlyphs" textLength="7" x="612.3903" y="508.1854">1</text><text fill="#000000" font-family="sans-serif" font-size="13" lengthAdjust="spacingAndGlyphs" textLength="5" x="389.9438" y="991.2268">*</text><!--MD5=[f4a94ba2ad2673d4959409a96e63c979]
link Database to Scooter--><path d="M601.962,487.31 C586.821,504.007 564.22,525.948 540,539 C527.095,545.955 521.634,541.611 508,547 C496.185,551.67 441.315,582.451 395.759,608.378 " fill="none" id="Database-Scooter" style="stroke: #A80036; stroke-width: 1.0;"/><polygon fill="#000000" points="516,554.6758,510,557.6758,516,560.6758,516,554.6758" style="stroke: #000000; stroke-width: 1.0;"/><text fill="#000000" font-family="sans-serif" font-size="13" lengthAdjust="spacingAndGlyphs" textLength="82" x="522" y="561.4951">has registered</text><text fill="#000000" font-family="sans-serif" font-size="13" lengthAdjust="spacingAndGlyphs" textLength="7" x="589.7501" y="508.247">1</text><text fill="#000000" font-family="sans-serif" font-size="13" lengthAdjust="spacingAndGlyphs" textLength="5" x="401.8489" y="597.7182">*</text><!--MD5=[074a56c4439d52c76e1cc7a8f9d070a4]
link Vehicle to Battery--><path d="M283.519,909.035 C264.894,934.348 243.835,962.97 226.33,986.762 " fill="none" id="Vehicle-Battery" style="stroke: #A80036; stroke-width: 1.0;"/><text fill="#000000" font-family="sans-serif" font-size="13" lengthAdjust="spacingAndGlyphs" textLength="21" x="261" y="953.4951">has</text><polygon fill="#000000" points="267,962.3516,270,968.3516,273,962.3516,267,962.3516" style="stroke: #000000; stroke-width: 1.0;"/><text fill="#000000" font-family="sans-serif" font-size="13" lengthAdjust="spacingAndGlyphs" textLength="7" x="270.943" y="930.5914">1</text><text fill="#000000" font-family="sans-serif" font-size="13" lengthAdjust="spacingAndGlyphs" textLength="7" x="223.8759" y="976.2303">1</text><!--MD5=[9793812679a856b96e8ba34e2675abcc]
link Vehicle to Pharmacy--><path d="M331,909.035 C331,934.348 331,962.97 331,986.762 " fill="none" id="Vehicle-Pharmacy" style="stroke: #A80036; stroke-width: 1.0;"/><text fill="#000000" font-family="sans-serif" font-size="13" lengthAdjust="spacingAndGlyphs" textLength="71" x="332" y="953.4951">belongs to a</text><polygon fill="#000000" points="363,962.3516,366,968.3516,369,962.3516,363,962.3516" style="stroke: #000000; stroke-width: 1.0;"/><text fill="#000000" font-family="sans-serif" font-size="13" lengthAdjust="spacingAndGlyphs" textLength="5" x="325.7266" y="930.5914">*</text><text fill="#000000" font-family="sans-serif" font-size="13" lengthAdjust="spacingAndGlyphs" textLength="7" x="323.5297" y="976.2303">1</text><!--MD5=[52f80c2c106e4280525a8160ec8cd0fa]
link Scooter to Vehicle--><path d="M331,684.637 C331,710.937 331,746.897 331,777.853 " fill="none" id="Scooter-Vehicle" style="stroke: #A80036; stroke-width: 1.0;"/><text fill="#000000" font-family="sans-serif" font-size="13" lengthAdjust="spacingAndGlyphs" textLength="64" x="332" y="744.4951">is a type of</text><polygon fill="#000000" points="359.5,753.3516,362.5,759.3516,365.5,753.3516,359.5,753.3516" style="stroke: #000000; stroke-width: 1.0;"/><text fill="#000000" font-family="sans-serif" font-size="13" lengthAdjust="spacingAndGlyphs" textLength="5" x="325.6016" y="705.5394">*</text><text fill="#000000" font-family="sans-serif" font-size="13" lengthAdjust="spacingAndGlyphs" textLength="7" x="323.6172" y="767.3113">1</text><!--MD5=[89baec1bfb4a213750f7c61516e0a0f1]
link Pharmacy to Address--><path d="M331,1090.227 C331,1113.72 331,1142.049 331,1167.687 " fill="none" id="Pharmacy-Address" style="stroke: #A80036; stroke-width: 1.0;"/><text fill="#000000" font-family="sans-serif" font-size="13" lengthAdjust="spacingAndGlyphs" textLength="21" x="332" y="1134.4951">has</text><polygon fill="#000000" points="338,1143.3516,341,1149.3516,344,1143.3516,338,1143.3516" style="stroke: #000000; stroke-width: 1.0;"/><text fill="#000000" font-family="sans-serif" font-size="13" lengthAdjust="spacingAndGlyphs" textLength="7" x="323.5297" y="1111.7485">1</text><text fill="#000000" font-family="sans-serif" font-size="13" lengthAdjust="spacingAndGlyphs" textLength="7" x="323.6555" y="1157.2517">1</text><!--MD5=[e7daa03d92f0a94af078cf78578db78d]
link Pharmacy to ScooterPark--><path d="M294.477,1090.227 C267.397,1127.838 231.39,1177.847 208.701,1209.36 " fill="none" id="Pharmacy-ScooterPark" style="stroke: #A80036; stroke-width: 1.0;"/><text fill="#000000" font-family="sans-serif" font-size="13" lengthAdjust="spacingAndGlyphs" textLength="21" x="273" y="1134.4951">has</text><polygon fill="#000000" points="279,1143.3516,282,1149.3516,285,1143.3516,279,1143.3516" style="stroke: #000000; stroke-width: 1.0;"/><text fill="#000000" font-family="sans-serif" font-size="13" lengthAdjust="spacingAndGlyphs" textLength="7" x="282.0989" y="1111.7485">1</text><text fill="#000000" font-family="sans-serif" font-size="13" lengthAdjust="spacingAndGlyphs" textLength="7" x="205.455" y="1198.8357">1</text><!--MD5=[6c03f80bb0eb412de4ede466470bd7f4]
link ScooterPark to ScooterChargingSlot--><path d="M178.692,1271.88 C169.801,1304.393 155.691,1355.993 146.149,1390.888 " fill="none" id="ScooterPark-ScooterChargingSlot" style="stroke: #A80036; stroke-width: 1.0;"/><text fill="#000000" font-family="sans-serif" font-size="13" lengthAdjust="spacingAndGlyphs" textLength="21" x="160" y="1357.4951">has</text><polygon fill="#000000" points="166,1366.3516,169,1372.3516,172,1366.3516,166,1366.3516" style="stroke: #000000; stroke-width: 1.0;"/><text fill="#000000" font-family="sans-serif" font-size="13" lengthAdjust="spacingAndGlyphs" textLength="7" x="169.4411" y="1292.9311">1</text><text fill="#000000" font-family="sans-serif" font-size="13" lengthAdjust="spacingAndGlyphs" textLength="7" x="140.3334" y="1380.23">1</text><!--MD5=[8b5c72ddee54db66c8e770f45750c925]
link ScooterPark to ScooterParkingSlot--><path d="M207.525,1271.88 C231.025,1306.664 269.284,1363.294 292.693,1397.943 " fill="none" id="ScooterPark-ScooterParkingSlot" style="stroke: #A80036; stroke-width: 1.0;"/><text fill="#000000" font-family="sans-serif" font-size="13" lengthAdjust="spacingAndGlyphs" textLength="21" x="266" y="1357.4951">has</text><polygon fill="#000000" points="272,1366.3516,275,1372.3516,278,1366.3516,272,1366.3516" style="stroke: #000000; stroke-width: 1.0;"/><text fill="#000000" font-family="sans-serif" font-size="13" lengthAdjust="spacingAndGlyphs" textLength="7" x="203.7704" y="1292.9311">1</text><text fill="#000000" font-family="sans-serif" font-size="13" lengthAdjust="spacingAndGlyphs" textLength="7" x="280.4852" y="1386.9508">1</text><!--MD5=[4876439faebea75bd65ff94adf618c34]
@startuml
skinparam classAttributeIconSize 0

database Database {
}

package "UI" #DDDDDD {
class UpdateScooterUI{
}
}

package "Controller" #DDDDDD {
class UpdateScooterController{
+showPharmacies()
+showScootersList(pharmacyId)
+updateScooter(scoot)
}
}


package "Model" #DDDDDD {
 package "Service" #DDDDDD {
  class PharmacyService{
      +PharmacyService()
      +getPharmacies()
  }

  class ScooterService{
      +ScooterService()
      +getScootersList(pharmacyId)
      +updateScooter(designation, potency, weight, maxPayload,\nbatteryCapacity, batteryVoltage, efficiency)
   }
}

package "Model" #DDDDDD {
class ScooterPark{
-   int maxSlotsNumber
}

class ScooterChargingSlot{
-   int id
-   float outputPower
}

class ScooterParkingSlot{
-   int id
}

class Scooter{
+Scooter(batteryPerc, charginStatus, potency,\n weight, batteryCapacity, maxPayload, batteryVoltage, pharmacyId)

}

class Vehicle{
  -int id
  -String vehicleType
  -float potency
  -float weight
  -float maxPayload
  -String charngingStatus
}

class Battery{
  -int id
  -float batteryPerc
  -int batteryCapacity
  -float batteryVoltage
}

class Address{
  -double longitude
  -double latitude
  -String doorNumber
  -String streetName
  -String postalCode
  -String locality
  -String country
}

class Pharmacy {
  -int id
  -String name
-   String email
  +getScootersList()
}
}


package "Data" #DDDDDD {
class DataHandler{
    +openConnection()
    +closeAll()
}
class PharmacyDB{
     +PharmacyDB()
     +getPharmacies()
 }

 class ScooterDB{
     +ScooterDB()
     +getScootersList()
     +updateScooterFromDB(designation, potency, weight, maxPayload,\nbatteryCapacity, batteryVoltage, efficiency)
  }
}

class PharmacyDB extends DataHandler
class ScooterDB extends DataHandler

UpdateScooterUI ..> UpdateScooterController
UpdateScooterController ..> PharmacyService
UpdateScooterController ..> ScooterService
Database "1" - -> "1" PharmacyDB : manages
Database "1" - -> "1" ScooterDB : manages
ScooterService "1" - -> "*" PharmacyDB : uses
PharmacyService "1" - -> "*" ScooterDB : uses
PharmacyService "1" - -> "*" Pharmacy : manage services of
ScooterService "1" - -> "*" Scooter : manage services of

Database "1" - - "*" Pharmacy : has registered >
Database "1" - - "*" Scooter : has registered >

Vehicle "1" - - "1" Battery : has >
Vehicle "*" - - "1" Pharmacy : belongs to a >
Scooter "*" - - "1" Vehicle : is a type of >
Pharmacy "1" - - "1" Address : has >
Pharmacy "1" - - "1" ScooterPark : has >
ScooterPark "1" - - "1" ScooterChargingSlot : has >
ScooterPark "1" - - "1" ScooterParkingSlot : has >

@enduml

PlantUML version 1.2020.09(Sun May 10 11:51:06 BST 2020)
(GPL source distribution)
Java Runtime: OpenJDK Runtime Environment
JVM: OpenJDK 64-Bit Server VM
Java Version: 11.0.6+8-b765.40
Operating System: Windows 10
Default Encoding: Cp1252
Language: pt
Country: PT
--></g></svg>