<?xml version="1.0" encoding="UTF-8" standalone="no"?><svg xmlns="http://www.w3.org/2000/svg" xmlns:xlink="http://www.w3.org/1999/xlink" contentScriptType="application/ecmascript" contentStyleType="text/css" height="531px" preserveAspectRatio="none" style="width:1437px;height:531px;" version="1.1" viewBox="0 0 1437 531" width="1437px" zoomAndPan="magnify"><defs><filter height="300%" id="f1fjxqa55tj8ek" width="300%" x="-1" y="-1"><feGaussianBlur result="blurOut" stdDeviation="2.0"/><feColorMatrix in="blurOut" result="blurOut2" type="matrix" values="0 0 0 0 0 0 0 0 0 0 0 0 0 0 0 0 0 0 .4 0"/><feOffset dx="4.0" dy="4.0" in="blurOut2" result="blurOut3"/><feBlend in="SourceGraphic" in2="blurOut3" mode="normal"/></filter></defs><g><!--MD5=[fa1e3283224feb76407c84b7e90ed808]
entity Database--><path d="M6,246 C6,236 46.5,236 46.5,236 C46.5,236 87,236 87,246 L87,272.6094 C87,282.6094 46.5,282.6094 46.5,282.6094 C46.5,282.6094 6,282.6094 6,272.6094 L6,246 " fill="#FFFFFF" filter="url(#f1fjxqa55tj8ek)" style="stroke: #000000; stroke-width: 1.5;"/><path d="M6,246 C6,256 46.5,256 46.5,256 C46.5,256 87,256 87,246 " fill="none" style="stroke: #000000; stroke-width: 1.5;"/><text fill="#000000" font-family="sans-serif" font-size="14" lengthAdjust="spacingAndGlyphs" textLength="61" x="16" y="274.5332">Database</text><!--MD5=[7f2a9fafcebe4f099f71398fd3e2ed00]
class Pharmacy--><rect fill="#FEFECE" filter="url(#f1fjxqa55tj8ek)" height="81.5078" id="Pharmacy" style="stroke: #A80036; stroke-width: 1.5;" width="87" x="683" y="183.5"/><ellipse cx="698" cy="199.5" fill="#ADD1B2" rx="11" ry="11" style="stroke: #A80036; stroke-width: 1.0;"/><path d="M700,196 Q700.2031,195.5 700.4375,195.25 Q700.6719,195 700.9375,195 Q701.4063,195 701.7031,195.2813 Q702,195.5625 702,196.2188 L702,197.7813 Q702,198.4375 701.7188,198.7188 Q701.4375,199 701,199 Q700.6094,199 700.3594,198.8281 Q700.1094,198.6563 700,198.2031 Q699.9531,197.8906 699.7813,197.7188 Q699.4688,197.3906 698.9063,197.2031 Q698.3438,197 697.7813,197 Q697.0781,197 696.4844,197.2813 Q695.9063,197.5625 695.4531,198.1875 Q695,198.8125 695,199.6719 L695,200.5938 Q695,201.625 695.8438,202.3125 Q696.6875,203 698.1875,203 Q699.0781,203 699.7031,202.7969 Q700.0625,202.6875 700.4688,202.3281 Q700.7344,202.125 700.875,202.0625 Q701.0156,202 701.1875,202 Q701.5156,202 701.75,202.2656 Q702,202.5156 702,202.875 Q702,203.2188 701.6563,203.625 Q701.1563,204.2188 700.3594,204.5469 Q699.3125,205 698.0313,205 Q696.5313,205 695.3281,204.4063 Q694.3594,203.9375 693.6719,202.9219 Q693,201.9063 693,200.7031 L693,199.6094 Q693,198.3594 693.5938,197.2656 Q694.2031,196.1719 695.25,195.5938 Q696.3125,195 697.5,195 Q698.2188,195 698.8438,195.25 Q699.4688,195.5 700,196 Z "/><text fill="#000000" font-family="sans-serif" font-size="12" lengthAdjust="spacingAndGlyphs" textLength="55" x="712" y="204.4102">Pharmacy</text><line style="stroke: #A80036; stroke-width: 1.5;" x1="684" x2="769" y1="215.5" y2="215.5"/><text fill="#000000" font-family="sans-serif" font-size="11" lengthAdjust="spacingAndGlyphs" textLength="26" x="689" y="230.9189">-int id</text><text fill="#000000" font-family="sans-serif" font-size="11" lengthAdjust="spacingAndGlyphs" textLength="61" x="689" y="244.7549">-String name</text><text fill="#000000" font-family="sans-serif" font-size="11" lengthAdjust="spacingAndGlyphs" textLength="59" x="689" y="258.5908">-String email</text><!--MD5=[d1eeb527b96f439f56c6bd12ac0dd707]
class Park--><rect fill="#FEFECE" filter="url(#f1fjxqa55tj8ek)" height="67.6719" id="Park" style="stroke: #A80036; stroke-width: 1.5;" width="139" x="877" y="46.5"/><ellipse cx="929.75" cy="62.5" fill="#ADD1B2" rx="11" ry="11" style="stroke: #A80036; stroke-width: 1.0;"/><path d="M931.75,59 Q931.9531,58.5 932.1875,58.25 Q932.4219,58 932.6875,58 Q933.1563,58 933.4531,58.2813 Q933.75,58.5625 933.75,59.2188 L933.75,60.7813 Q933.75,61.4375 933.4688,61.7188 Q933.1875,62 932.75,62 Q932.3594,62 932.1094,61.8281 Q931.8594,61.6563 931.75,61.2031 Q931.7031,60.8906 931.5313,60.7188 Q931.2188,60.3906 930.6563,60.2031 Q930.0938,60 929.5313,60 Q928.8281,60 928.2344,60.2813 Q927.6563,60.5625 927.2031,61.1875 Q926.75,61.8125 926.75,62.6719 L926.75,63.5938 Q926.75,64.625 927.5938,65.3125 Q928.4375,66 929.9375,66 Q930.8281,66 931.4531,65.7969 Q931.8125,65.6875 932.2188,65.3281 Q932.4844,65.125 932.625,65.0625 Q932.7656,65 932.9375,65 Q933.2656,65 933.5,65.2656 Q933.75,65.5156 933.75,65.875 Q933.75,66.2188 933.4063,66.625 Q932.9063,67.2188 932.1094,67.5469 Q931.0625,68 929.7813,68 Q928.2813,68 927.0781,67.4063 Q926.1094,66.9375 925.4219,65.9219 Q924.75,64.9063 924.75,63.7031 L924.75,62.6094 Q924.75,61.3594 925.3438,60.2656 Q925.9531,59.1719 927,58.5938 Q928.0625,58 929.25,58 Q929.9688,58 930.5938,58.25 Q931.2188,58.5 931.75,59 Z "/><text fill="#000000" font-family="sans-serif" font-size="12" lengthAdjust="spacingAndGlyphs" textLength="25" x="950.25" y="67.4102">Park</text><line style="stroke: #A80036; stroke-width: 1.5;" x1="878" x2="1015" y1="78.5" y2="78.5"/><text fill="#000000" font-family="sans-serif" font-size="11" lengthAdjust="spacingAndGlyphs" textLength="99" x="883" y="93.9189">-int maxSlotsNumber</text><text fill="#000000" font-family="sans-serif" font-size="11" lengthAdjust="spacingAndGlyphs" textLength="127" x="883" y="107.7549">-double totalOutputCorrent</text><!--MD5=[59d2374cee64c81d4b5b0eac02df9f3a]
class ChargingSlot--><rect fill="#FEFECE" filter="url(#f1fjxqa55tj8ek)" height="53.8359" id="ChargingSlot" style="stroke: #A80036; stroke-width: 1.5;" width="104" x="1310.5" y="8.5"/><ellipse cx="1325.5" cy="24.5" fill="#ADD1B2" rx="11" ry="11" style="stroke: #A80036; stroke-width: 1.0;"/><path d="M1327.5,21 Q1327.7031,20.5 1327.9375,20.25 Q1328.1719,20 1328.4375,20 Q1328.9063,20 1329.2031,20.2813 Q1329.5,20.5625 1329.5,21.2188 L1329.5,22.7813 Q1329.5,23.4375 1329.2188,23.7188 Q1328.9375,24 1328.5,24 Q1328.1094,24 1327.8594,23.8281 Q1327.6094,23.6563 1327.5,23.2031 Q1327.4531,22.8906 1327.2813,22.7188 Q1326.9688,22.3906 1326.4063,22.2031 Q1325.8438,22 1325.2813,22 Q1324.5781,22 1323.9844,22.2813 Q1323.4063,22.5625 1322.9531,23.1875 Q1322.5,23.8125 1322.5,24.6719 L1322.5,25.5938 Q1322.5,26.625 1323.3438,27.3125 Q1324.1875,28 1325.6875,28 Q1326.5781,28 1327.2031,27.7969 Q1327.5625,27.6875 1327.9688,27.3281 Q1328.2344,27.125 1328.375,27.0625 Q1328.5156,27 1328.6875,27 Q1329.0156,27 1329.25,27.2656 Q1329.5,27.5156 1329.5,27.875 Q1329.5,28.2188 1329.1563,28.625 Q1328.6563,29.2188 1327.8594,29.5469 Q1326.8125,30 1325.5313,30 Q1324.0313,30 1322.8281,29.4063 Q1321.8594,28.9375 1321.1719,27.9219 Q1320.5,26.9063 1320.5,25.7031 L1320.5,24.6094 Q1320.5,23.3594 1321.0938,22.2656 Q1321.7031,21.1719 1322.75,20.5938 Q1323.8125,20 1325,20 Q1325.7188,20 1326.3438,20.25 Q1326.9688,20.5 1327.5,21 Z "/><text fill="#000000" font-family="sans-serif" font-size="12" lengthAdjust="spacingAndGlyphs" textLength="72" x="1339.5" y="29.4102">ChargingSlot</text><line style="stroke: #A80036; stroke-width: 1.5;" x1="1311.5" x2="1413.5" y1="40.5" y2="40.5"/><text fill="#000000" font-family="sans-serif" font-size="11" lengthAdjust="spacingAndGlyphs" textLength="26" x="1316.5" y="55.9189">-int id</text><!--MD5=[941956f4bed192556f7b65756093b59d]
class NonChargingSlot--><rect fill="#FEFECE" filter="url(#f1fjxqa55tj8ek)" height="53.8359" id="NonChargingSlot" style="stroke: #A80036; stroke-width: 1.5;" width="127" x="1299" y="97.5"/><ellipse cx="1314" cy="113.5" fill="#ADD1B2" rx="11" ry="11" style="stroke: #A80036; stroke-width: 1.0;"/><path d="M1316,110 Q1316.2031,109.5 1316.4375,109.25 Q1316.6719,109 1316.9375,109 Q1317.4063,109 1317.7031,109.2813 Q1318,109.5625 1318,110.2188 L1318,111.7813 Q1318,112.4375 1317.7188,112.7188 Q1317.4375,113 1317,113 Q1316.6094,113 1316.3594,112.8281 Q1316.1094,112.6563 1316,112.2031 Q1315.9531,111.8906 1315.7813,111.7188 Q1315.4688,111.3906 1314.9063,111.2031 Q1314.3438,111 1313.7813,111 Q1313.0781,111 1312.4844,111.2813 Q1311.9063,111.5625 1311.4531,112.1875 Q1311,112.8125 1311,113.6719 L1311,114.5938 Q1311,115.625 1311.8438,116.3125 Q1312.6875,117 1314.1875,117 Q1315.0781,117 1315.7031,116.7969 Q1316.0625,116.6875 1316.4688,116.3281 Q1316.7344,116.125 1316.875,116.0625 Q1317.0156,116 1317.1875,116 Q1317.5156,116 1317.75,116.2656 Q1318,116.5156 1318,116.875 Q1318,117.2188 1317.6563,117.625 Q1317.1563,118.2188 1316.3594,118.5469 Q1315.3125,119 1314.0313,119 Q1312.5313,119 1311.3281,118.4063 Q1310.3594,117.9375 1309.6719,116.9219 Q1309,115.9063 1309,114.7031 L1309,113.6094 Q1309,112.3594 1309.5938,111.2656 Q1310.2031,110.1719 1311.25,109.5938 Q1312.3125,109 1313.5,109 Q1314.2188,109 1314.8438,109.25 Q1315.4688,109.5 1316,110 Z "/><text fill="#000000" font-family="sans-serif" font-size="12" lengthAdjust="spacingAndGlyphs" textLength="95" x="1328" y="118.4102">NonChargingSlot</text><line style="stroke: #A80036; stroke-width: 1.5;" x1="1300" x2="1425" y1="129.5" y2="129.5"/><text fill="#000000" font-family="sans-serif" font-size="11" lengthAdjust="spacingAndGlyphs" textLength="26" x="1305" y="144.9189">-int id</text><!--MD5=[6171c3a2f2c752b4019101857dc83635]
class ParkingSlot--><rect fill="#FEFECE" filter="url(#f1fjxqa55tj8ek)" height="53.8359" id="ParkingSlot" style="stroke: #A80036; stroke-width: 1.5;" width="95" x="1115.5" y="53.5"/><ellipse cx="1130.5" cy="69.5" fill="#ADD1B2" rx="11" ry="11" style="stroke: #A80036; stroke-width: 1.0;"/><path d="M1132.5,66 Q1132.7031,65.5 1132.9375,65.25 Q1133.1719,65 1133.4375,65 Q1133.9063,65 1134.2031,65.2813 Q1134.5,65.5625 1134.5,66.2188 L1134.5,67.7813 Q1134.5,68.4375 1134.2188,68.7188 Q1133.9375,69 1133.5,69 Q1133.1094,69 1132.8594,68.8281 Q1132.6094,68.6563 1132.5,68.2031 Q1132.4531,67.8906 1132.2813,67.7188 Q1131.9688,67.3906 1131.4063,67.2031 Q1130.8438,67 1130.2813,67 Q1129.5781,67 1128.9844,67.2813 Q1128.4063,67.5625 1127.9531,68.1875 Q1127.5,68.8125 1127.5,69.6719 L1127.5,70.5938 Q1127.5,71.625 1128.3438,72.3125 Q1129.1875,73 1130.6875,73 Q1131.5781,73 1132.2031,72.7969 Q1132.5625,72.6875 1132.9688,72.3281 Q1133.2344,72.125 1133.375,72.0625 Q1133.5156,72 1133.6875,72 Q1134.0156,72 1134.25,72.2656 Q1134.5,72.5156 1134.5,72.875 Q1134.5,73.2188 1134.1563,73.625 Q1133.6563,74.2188 1132.8594,74.5469 Q1131.8125,75 1130.5313,75 Q1129.0313,75 1127.8281,74.4063 Q1126.8594,73.9375 1126.1719,72.9219 Q1125.5,71.9063 1125.5,70.7031 L1125.5,69.6094 Q1125.5,68.3594 1126.0938,67.2656 Q1126.7031,66.1719 1127.75,65.5938 Q1128.8125,65 1130,65 Q1130.7188,65 1131.3438,65.25 Q1131.9688,65.5 1132.5,66 Z "/><text fill="#000000" font-family="sans-serif" font-size="12" lengthAdjust="spacingAndGlyphs" textLength="63" x="1144.5" y="74.4102">ParkingSlot</text><line style="stroke: #A80036; stroke-width: 1.5;" x1="1116.5" x2="1209.5" y1="85.5" y2="85.5"/><text fill="#000000" font-family="sans-serif" font-size="11" lengthAdjust="spacingAndGlyphs" textLength="26" x="1121.5" y="100.9189">-int id</text><!--MD5=[f4402668d5d5bb8485350c0fdb60ac8e]
class Scooter--><rect fill="#FEFECE" filter="url(#f1fjxqa55tj8ek)" height="40" id="Scooter" style="stroke: #A80036; stroke-width: 1.5;" width="74" x="183" y="289.5"/><ellipse cx="198" cy="305.5" fill="#ADD1B2" rx="11" ry="11" style="stroke: #A80036; stroke-width: 1.0;"/><path d="M200,302 Q200.2031,301.5 200.4375,301.25 Q200.6719,301 200.9375,301 Q201.4063,301 201.7031,301.2813 Q202,301.5625 202,302.2188 L202,303.7813 Q202,304.4375 201.7188,304.7188 Q201.4375,305 201,305 Q200.6094,305 200.3594,304.8281 Q200.1094,304.6563 200,304.2031 Q199.9531,303.8906 199.7813,303.7188 Q199.4688,303.3906 198.9063,303.2031 Q198.3438,303 197.7813,303 Q197.0781,303 196.4844,303.2813 Q195.9063,303.5625 195.4531,304.1875 Q195,304.8125 195,305.6719 L195,306.5938 Q195,307.625 195.8438,308.3125 Q196.6875,309 198.1875,309 Q199.0781,309 199.7031,308.7969 Q200.0625,308.6875 200.4688,308.3281 Q200.7344,308.125 200.875,308.0625 Q201.0156,308 201.1875,308 Q201.5156,308 201.75,308.2656 Q202,308.5156 202,308.875 Q202,309.2188 201.6563,309.625 Q201.1563,310.2188 200.3594,310.5469 Q199.3125,311 198.0313,311 Q196.5313,311 195.3281,310.4063 Q194.3594,309.9375 193.6719,308.9219 Q193,307.9063 193,306.7031 L193,305.6094 Q193,304.3594 193.5938,303.2656 Q194.2031,302.1719 195.25,301.5938 Q196.3125,301 197.5,301 Q198.2188,301 198.8438,301.25 Q199.4688,301.5 200,302 Z "/><text fill="#000000" font-family="sans-serif" font-size="12" lengthAdjust="spacingAndGlyphs" textLength="42" x="212" y="310.4102">Scooter</text><line style="stroke: #A80036; stroke-width: 1.5;" x1="184" x2="256" y1="321.5" y2="321.5"/><!--MD5=[5e13c92683bb853a25438ed3edf51dc3]
class VehicleModel--><rect fill="#FEFECE" filter="url(#f1fjxqa55tj8ek)" height="109.1797" id="VehicleModel" style="stroke: #A80036; stroke-width: 1.5;" width="109" x="672" y="301"/><ellipse cx="688.8" cy="317" fill="#ADD1B2" rx="11" ry="11" style="stroke: #A80036; stroke-width: 1.0;"/><path d="M690.8,313.5 Q691.0031,313 691.2375,312.75 Q691.4719,312.5 691.7375,312.5 Q692.2063,312.5 692.5031,312.7813 Q692.8,313.0625 692.8,313.7188 L692.8,315.2813 Q692.8,315.9375 692.5188,316.2188 Q692.2375,316.5 691.8,316.5 Q691.4094,316.5 691.1594,316.3281 Q690.9094,316.1563 690.8,315.7031 Q690.7531,315.3906 690.5813,315.2188 Q690.2688,314.8906 689.7063,314.7031 Q689.1438,314.5 688.5813,314.5 Q687.8781,314.5 687.2844,314.7813 Q686.7063,315.0625 686.2531,315.6875 Q685.8,316.3125 685.8,317.1719 L685.8,318.0938 Q685.8,319.125 686.6438,319.8125 Q687.4875,320.5 688.9875,320.5 Q689.8781,320.5 690.5031,320.2969 Q690.8625,320.1875 691.2688,319.8281 Q691.5344,319.625 691.675,319.5625 Q691.8156,319.5 691.9875,319.5 Q692.3156,319.5 692.55,319.7656 Q692.8,320.0156 692.8,320.375 Q692.8,320.7188 692.4563,321.125 Q691.9563,321.7188 691.1594,322.0469 Q690.1125,322.5 688.8313,322.5 Q687.3313,322.5 686.1281,321.9063 Q685.1594,321.4375 684.4719,320.4219 Q683.8,319.4063 683.8,318.2031 L683.8,317.1094 Q683.8,315.8594 684.3938,314.7656 Q685.0031,313.6719 686.05,313.0938 Q687.1125,312.5 688.3,312.5 Q689.0188,312.5 689.6438,312.75 Q690.2688,313 690.8,313.5 Z "/><text fill="#000000" font-family="sans-serif" font-size="12" lengthAdjust="spacingAndGlyphs" textLength="73" x="703.2" y="321.9102">VehicleModel</text><line style="stroke: #A80036; stroke-width: 1.5;" x1="673" x2="780" y1="333" y2="333"/><text fill="#000000" font-family="sans-serif" font-size="11" lengthAdjust="spacingAndGlyphs" textLength="26" x="678" y="348.4189">-int id</text><text fill="#000000" font-family="sans-serif" font-size="11" lengthAdjust="spacingAndGlyphs" textLength="90" x="678" y="362.2549">-String desigantion</text><text fill="#000000" font-family="sans-serif" font-size="11" lengthAdjust="spacingAndGlyphs" textLength="78" x="678" y="376.0908">-double potency</text><text fill="#000000" font-family="sans-serif" font-size="11" lengthAdjust="spacingAndGlyphs" textLength="72" x="678" y="389.9268">-double weight</text><text fill="#000000" font-family="sans-serif" font-size="11" lengthAdjust="spacingAndGlyphs" textLength="97" x="678" y="403.7627">-double maxPayload</text><!--MD5=[9e8cdc57c56bad5cdfc47653c9df3022]
class VehicleType--><rect fill="#FEFECE" filter="url(#f1fjxqa55tj8ek)" height="53.8359" id="VehicleType" style="stroke: #A80036; stroke-width: 1.5;" width="102" x="1112" y="234.5"/><ellipse cx="1128.8" cy="250.5" fill="#ADD1B2" rx="11" ry="11" style="stroke: #A80036; stroke-width: 1.0;"/><path d="M1130.8,247 Q1131.0031,246.5 1131.2375,246.25 Q1131.4719,246 1131.7375,246 Q1132.2063,246 1132.5031,246.2813 Q1132.8,246.5625 1132.8,247.2188 L1132.8,248.7813 Q1132.8,249.4375 1132.5188,249.7188 Q1132.2375,250 1131.8,250 Q1131.4094,250 1131.1594,249.8281 Q1130.9094,249.6563 1130.8,249.2031 Q1130.7531,248.8906 1130.5813,248.7188 Q1130.2688,248.3906 1129.7063,248.2031 Q1129.1438,248 1128.5813,248 Q1127.8781,248 1127.2844,248.2813 Q1126.7063,248.5625 1126.2531,249.1875 Q1125.8,249.8125 1125.8,250.6719 L1125.8,251.5938 Q1125.8,252.625 1126.6438,253.3125 Q1127.4875,254 1128.9875,254 Q1129.8781,254 1130.5031,253.7969 Q1130.8625,253.6875 1131.2688,253.3281 Q1131.5344,253.125 1131.675,253.0625 Q1131.8156,253 1131.9875,253 Q1132.3156,253 1132.55,253.2656 Q1132.8,253.5156 1132.8,253.875 Q1132.8,254.2188 1132.4563,254.625 Q1131.9563,255.2188 1131.1594,255.5469 Q1130.1125,256 1128.8313,256 Q1127.3313,256 1126.1281,255.4063 Q1125.1594,254.9375 1124.4719,253.9219 Q1123.8,252.9063 1123.8,251.7031 L1123.8,250.6094 Q1123.8,249.3594 1124.3938,248.2656 Q1125.0031,247.1719 1126.05,246.5938 Q1127.1125,246 1128.3,246 Q1129.0188,246 1129.6438,246.25 Q1130.2688,246.5 1130.8,247 Z "/><text fill="#000000" font-family="sans-serif" font-size="12" lengthAdjust="spacingAndGlyphs" textLength="66" x="1143.2" y="255.4102">VehicleType</text><line style="stroke: #A80036; stroke-width: 1.5;" x1="1113" x2="1213" y1="266.5" y2="266.5"/><text fill="#000000" font-family="sans-serif" font-size="11" lengthAdjust="spacingAndGlyphs" textLength="90" x="1118" y="281.9189">-String desigantion</text><!--MD5=[3aa0d89c6bfdcbf7f32042cedac57549]
class Vehicle--><rect fill="#FEFECE" filter="url(#f1fjxqa55tj8ek)" height="67.6719" id="Vehicle" style="stroke: #A80036; stroke-width: 1.5;" width="107" x="396" y="299.5"/><ellipse cx="426.75" cy="315.5" fill="#ADD1B2" rx="11" ry="11" style="stroke: #A80036; stroke-width: 1.0;"/><path d="M428.75,312 Q428.9531,311.5 429.1875,311.25 Q429.4219,311 429.6875,311 Q430.1563,311 430.4531,311.2813 Q430.75,311.5625 430.75,312.2188 L430.75,313.7813 Q430.75,314.4375 430.4688,314.7188 Q430.1875,315 429.75,315 Q429.3594,315 429.1094,314.8281 Q428.8594,314.6563 428.75,314.2031 Q428.7031,313.8906 428.5313,313.7188 Q428.2188,313.3906 427.6563,313.2031 Q427.0938,313 426.5313,313 Q425.8281,313 425.2344,313.2813 Q424.6563,313.5625 424.2031,314.1875 Q423.75,314.8125 423.75,315.6719 L423.75,316.5938 Q423.75,317.625 424.5938,318.3125 Q425.4375,319 426.9375,319 Q427.8281,319 428.4531,318.7969 Q428.8125,318.6875 429.2188,318.3281 Q429.4844,318.125 429.625,318.0625 Q429.7656,318 429.9375,318 Q430.2656,318 430.5,318.2656 Q430.75,318.5156 430.75,318.875 Q430.75,319.2188 430.4063,319.625 Q429.9063,320.2188 429.1094,320.5469 Q428.0625,321 426.7813,321 Q425.2813,321 424.0781,320.4063 Q423.1094,319.9375 422.4219,318.9219 Q421.75,317.9063 421.75,316.7031 L421.75,315.6094 Q421.75,314.3594 422.3438,313.2656 Q422.9531,312.1719 424,311.5938 Q425.0625,311 426.25,311 Q426.9688,311 427.5938,311.25 Q428.2188,311.5 428.75,312 Z "/><text fill="#000000" font-family="sans-serif" font-size="12" lengthAdjust="spacingAndGlyphs" textLength="40" x="444.25" y="320.4102">Vehicle</text><line style="stroke: #A80036; stroke-width: 1.5;" x1="397" x2="502" y1="331.5" y2="331.5"/><text fill="#000000" font-family="sans-serif" font-size="11" lengthAdjust="spacingAndGlyphs" textLength="26" x="402" y="346.9189">-int id</text><text fill="#000000" font-family="sans-serif" font-size="11" lengthAdjust="spacingAndGlyphs" textLength="95" x="402" y="360.7549">-double batteryPerc</text><!--MD5=[79eb2d862cef9730b5f9dcab29e35f17]
class Battery--><rect fill="#FEFECE" filter="url(#f1fjxqa55tj8ek)" height="95.3438" id="Battery" style="stroke: #A80036; stroke-width: 1.5;" width="122" x="885.5" y="425"/><ellipse cx="924.35" cy="441" fill="#ADD1B2" rx="11" ry="11" style="stroke: #A80036; stroke-width: 1.0;"/><path d="M926.35,437.5 Q926.5531,437 926.7875,436.75 Q927.0219,436.5 927.2875,436.5 Q927.7563,436.5 928.0531,436.7813 Q928.35,437.0625 928.35,437.7188 L928.35,439.2813 Q928.35,439.9375 928.0688,440.2188 Q927.7875,440.5 927.35,440.5 Q926.9594,440.5 926.7094,440.3281 Q926.4594,440.1563 926.35,439.7031 Q926.3031,439.3906 926.1313,439.2188 Q925.8188,438.8906 925.2563,438.7031 Q924.6938,438.5 924.1313,438.5 Q923.4281,438.5 922.8344,438.7813 Q922.2563,439.0625 921.8031,439.6875 Q921.35,440.3125 921.35,441.1719 L921.35,442.0938 Q921.35,443.125 922.1938,443.8125 Q923.0375,444.5 924.5375,444.5 Q925.4281,444.5 926.0531,444.2969 Q926.4125,444.1875 926.8188,443.8281 Q927.0844,443.625 927.225,443.5625 Q927.3656,443.5 927.5375,443.5 Q927.8656,443.5 928.1,443.7656 Q928.35,444.0156 928.35,444.375 Q928.35,444.7188 928.0063,445.125 Q927.5063,445.7188 926.7094,446.0469 Q925.6625,446.5 924.3813,446.5 Q922.8813,446.5 921.6781,445.9063 Q920.7094,445.4375 920.0219,444.4219 Q919.35,443.4063 919.35,442.2031 L919.35,441.1094 Q919.35,439.8594 919.9438,438.7656 Q920.5531,437.6719 921.6,437.0938 Q922.6625,436.5 923.85,436.5 Q924.5688,436.5 925.1938,436.75 Q925.8188,437 926.35,437.5 Z "/><text fill="#000000" font-family="sans-serif" font-size="12" lengthAdjust="spacingAndGlyphs" textLength="37" x="943.65" y="445.9102">Battery</text><line style="stroke: #A80036; stroke-width: 1.5;" x1="886.5" x2="1006.5" y1="457" y2="457"/><text fill="#000000" font-family="sans-serif" font-size="11" lengthAdjust="spacingAndGlyphs" textLength="26" x="891.5" y="472.4189">-int id</text><text fill="#000000" font-family="sans-serif" font-size="11" lengthAdjust="spacingAndGlyphs" textLength="94" x="891.5" y="486.2549">-int batteryCapacity</text><text fill="#000000" font-family="sans-serif" font-size="11" lengthAdjust="spacingAndGlyphs" textLength="110" x="891.5" y="500.0908">-double batteryVoltage</text><text fill="#000000" font-family="sans-serif" font-size="11" lengthAdjust="spacingAndGlyphs" textLength="87" x="891.5" y="513.9268">-double efficiency</text><!--MD5=[0f39e4cb6f03951afbf6d14bd2505654]
class Address--><rect fill="#FEFECE" filter="url(#f1fjxqa55tj8ek)" height="150.6875" id="Address" style="stroke: #A80036; stroke-width: 1.5;" width="106" x="893.5" y="150"/><ellipse cx="921.1" cy="166" fill="#ADD1B2" rx="11" ry="11" style="stroke: #A80036; stroke-width: 1.0;"/><path d="M923.1,162.5 Q923.3031,162 923.5375,161.75 Q923.7719,161.5 924.0375,161.5 Q924.5063,161.5 924.8031,161.7813 Q925.1,162.0625 925.1,162.7188 L925.1,164.2813 Q925.1,164.9375 924.8188,165.2188 Q924.5375,165.5 924.1,165.5 Q923.7094,165.5 923.4594,165.3281 Q923.2094,165.1563 923.1,164.7031 Q923.0531,164.3906 922.8813,164.2188 Q922.5688,163.8906 922.0063,163.7031 Q921.4438,163.5 920.8813,163.5 Q920.1781,163.5 919.5844,163.7813 Q919.0063,164.0625 918.5531,164.6875 Q918.1,165.3125 918.1,166.1719 L918.1,167.0938 Q918.1,168.125 918.9438,168.8125 Q919.7875,169.5 921.2875,169.5 Q922.1781,169.5 922.8031,169.2969 Q923.1625,169.1875 923.5688,168.8281 Q923.8344,168.625 923.975,168.5625 Q924.1156,168.5 924.2875,168.5 Q924.6156,168.5 924.85,168.7656 Q925.1,169.0156 925.1,169.375 Q925.1,169.7188 924.7563,170.125 Q924.2563,170.7188 923.4594,171.0469 Q922.4125,171.5 921.1313,171.5 Q919.6313,171.5 918.4281,170.9063 Q917.4594,170.4375 916.7719,169.4219 Q916.1,168.4063 916.1,167.2031 L916.1,166.1094 Q916.1,164.8594 916.6938,163.7656 Q917.3031,162.6719 918.35,162.0938 Q919.4125,161.5 920.6,161.5 Q921.3188,161.5 921.9438,161.75 Q922.5688,162 923.1,162.5 Z "/><text fill="#000000" font-family="sans-serif" font-size="12" lengthAdjust="spacingAndGlyphs" textLength="46" x="937.9" y="170.9102">Address</text><line style="stroke: #A80036; stroke-width: 1.5;" x1="894.5" x2="998.5" y1="182" y2="182"/><text fill="#000000" font-family="sans-serif" font-size="11" lengthAdjust="spacingAndGlyphs" textLength="82" x="899.5" y="197.4189">-double longitude</text><text fill="#000000" font-family="sans-serif" font-size="11" lengthAdjust="spacingAndGlyphs" textLength="73" x="899.5" y="211.2549">-double latitude</text><text fill="#000000" font-family="sans-serif" font-size="11" lengthAdjust="spacingAndGlyphs" textLength="73" x="899.5" y="225.0908">-double altitude</text><text fill="#000000" font-family="sans-serif" font-size="11" lengthAdjust="spacingAndGlyphs" textLength="94" x="899.5" y="238.9268">-String doorNumber</text><text fill="#000000" font-family="sans-serif" font-size="11" lengthAdjust="spacingAndGlyphs" textLength="90" x="899.5" y="252.7627">-String streetName</text><text fill="#000000" font-family="sans-serif" font-size="11" lengthAdjust="spacingAndGlyphs" textLength="89" x="899.5" y="266.5986">-String postalCode</text><text fill="#000000" font-family="sans-serif" font-size="11" lengthAdjust="spacingAndGlyphs" textLength="68" x="899.5" y="280.4346">-String locality</text><text fill="#000000" font-family="sans-serif" font-size="11" lengthAdjust="spacingAndGlyphs" textLength="72" x="899.5" y="294.2705">-String country</text><!--MD5=[506621ed787cd332d48b035cccfe5c39]
class QRCode--><rect fill="#FEFECE" filter="url(#f1fjxqa55tj8ek)" height="40" id="QRCode" style="stroke: #A80036; stroke-width: 1.5;" width="80" x="686.5" y="445.5"/><ellipse cx="701.5" cy="461.5" fill="#ADD1B2" rx="11" ry="11" style="stroke: #A80036; stroke-width: 1.0;"/><path d="M703.5,458 Q703.7031,457.5 703.9375,457.25 Q704.1719,457 704.4375,457 Q704.9063,457 705.2031,457.2813 Q705.5,457.5625 705.5,458.2188 L705.5,459.7813 Q705.5,460.4375 705.2188,460.7188 Q704.9375,461 704.5,461 Q704.1094,461 703.8594,460.8281 Q703.6094,460.6563 703.5,460.2031 Q703.4531,459.8906 703.2813,459.7188 Q702.9688,459.3906 702.4063,459.2031 Q701.8438,459 701.2813,459 Q700.5781,459 699.9844,459.2813 Q699.4063,459.5625 698.9531,460.1875 Q698.5,460.8125 698.5,461.6719 L698.5,462.5938 Q698.5,463.625 699.3438,464.3125 Q700.1875,465 701.6875,465 Q702.5781,465 703.2031,464.7969 Q703.5625,464.6875 703.9688,464.3281 Q704.2344,464.125 704.375,464.0625 Q704.5156,464 704.6875,464 Q705.0156,464 705.25,464.2656 Q705.5,464.5156 705.5,464.875 Q705.5,465.2188 705.1563,465.625 Q704.6563,466.2188 703.8594,466.5469 Q702.8125,467 701.5313,467 Q700.0313,467 698.8281,466.4063 Q697.8594,465.9375 697.1719,464.9219 Q696.5,463.9063 696.5,462.7031 L696.5,461.6094 Q696.5,460.3594 697.0938,459.2656 Q697.7031,458.1719 698.75,457.5938 Q699.8125,457 701,457 Q701.7188,457 702.3438,457.25 Q702.9688,457.5 703.5,458 Z "/><text fill="#000000" font-family="sans-serif" font-size="12" lengthAdjust="spacingAndGlyphs" textLength="48" x="715.5" y="466.4102">QRCode</text><line style="stroke: #A80036; stroke-width: 1.5;" x1="687.5" x2="765.5" y1="477.5" y2="477.5"/><!--MD5=[51d7b9a785c9fb041ca400474ed1d998]
link Database to Pharmacy--><path d="M87.1731,255.81 C96.9207,254.976 107.333,254.147 117,253.5 C329.107,239.295 583.262,229.519 682.679,225.974 " fill="none" id="Database-Pharmacy" style="stroke: #A80036; stroke-width: 1.0;"/><text fill="#000000" font-family="sans-serif" font-size="13" lengthAdjust="spacingAndGlyphs" textLength="21" x="309.5" y="235.9951">has</text><polygon fill="#000000" points="333.5,229.1758,339.5,232.1758,333.5,235.1758,333.5,229.1758" style="stroke: #000000; stroke-width: 1.0;"/><text fill="#000000" font-family="sans-serif" font-size="13" lengthAdjust="spacingAndGlyphs" textLength="7" x="95.0414" y="251.2889">1</text><text fill="#000000" font-family="sans-serif" font-size="13" lengthAdjust="spacingAndGlyphs" textLength="5" x="670.0071" y="241.1081">*</text><!--MD5=[f4a94ba2ad2673d4959409a96e63c979]
link Database to Scooter--><path d="M87.2766,271.097 C116.17,279.52 154.951,290.827 182.943,298.988 " fill="none" id="Database-Scooter" style="stroke: #A80036; stroke-width: 1.0;"/><text fill="#000000" font-family="sans-serif" font-size="13" lengthAdjust="spacingAndGlyphs" textLength="21" x="118" y="275.9951">has</text><polygon fill="#000000" points="142,269.1758,148,272.1758,142,275.1758,142,269.1758" style="stroke: #000000; stroke-width: 1.0;"/><text fill="#000000" font-family="sans-serif" font-size="13" lengthAdjust="spacingAndGlyphs" textLength="7" x="94.8866" y="288.0241">1</text><text fill="#000000" font-family="sans-serif" font-size="13" lengthAdjust="spacingAndGlyphs" textLength="5" x="169.7844" y="312.0013">*</text><!--MD5=[52f80c2c106e4280525a8160ec8cd0fa]
link Scooter to Vehicle--><path d="M257.048,313.303 C294.385,317.242 353.115,323.437 395.688,327.929 " fill="none" id="Scooter-Vehicle" style="stroke: #A80036; stroke-width: 1.0;"/><text fill="#000000" font-family="sans-serif" font-size="13" lengthAdjust="spacingAndGlyphs" textLength="64" x="288" y="312.9951">is a type of</text><polygon fill="#000000" points="355,306.1758,361,309.1758,355,312.1758,355,306.1758" style="stroke: #000000; stroke-width: 1.0;"/><text fill="#000000" font-family="sans-serif" font-size="13" lengthAdjust="spacingAndGlyphs" textLength="5" x="265.2048" y="329.2687">*</text><text fill="#000000" font-family="sans-serif" font-size="13" lengthAdjust="spacingAndGlyphs" textLength="7" x="380.9867" y="341.7962">1</text><!--MD5=[7ee5f2eef2f8ef54a9b73b97abb49ae4]
link Vehicle to VehicleModel--><path d="M503.197,337.716 C551.545,341.584 622.841,347.287 671.572,351.186 " fill="none" id="Vehicle-VehicleModel" style="stroke: #A80036; stroke-width: 1.0;"/><text fill="#000000" font-family="sans-serif" font-size="13" lengthAdjust="spacingAndGlyphs" textLength="21" x="570.5" y="336.9951">has</text><polygon fill="#000000" points="594.5,330.1758,600.5,333.1758,594.5,336.1758,594.5,330.1758" style="stroke: #000000; stroke-width: 1.0;"/><text fill="#000000" font-family="sans-serif" font-size="13" lengthAdjust="spacingAndGlyphs" textLength="5" x="511.0997" y="352.9768">*</text><text fill="#000000" font-family="sans-serif" font-size="13" lengthAdjust="spacingAndGlyphs" textLength="7" x="657.0859" y="365.1644">1</text><!--MD5=[9793812679a856b96e8ba34e2675abcc]
link Vehicle to Pharmacy--><path d="M503.218,319.984 C542.318,309.179 596.5,292.55 642,272.5 C655.618,266.499 669.86,258.869 682.645,251.468 " fill="none" id="Vehicle-Pharmacy" style="stroke: #A80036; stroke-width: 1.0;"/><text fill="#000000" font-family="sans-serif" font-size="13" lengthAdjust="spacingAndGlyphs" textLength="71" x="545.5" y="268.9951">belongs to a</text><polygon fill="#000000" points="619.5,262.1758,625.5,265.1758,619.5,268.1758,619.5,262.1758" style="stroke: #000000; stroke-width: 1.0;"/><text fill="#000000" font-family="sans-serif" font-size="13" lengthAdjust="spacingAndGlyphs" textLength="5" x="511.1237" y="332.7512">*</text><text fill="#000000" font-family="sans-serif" font-size="13" lengthAdjust="spacingAndGlyphs" textLength="7" x="668.0978" y="270.6034">1</text><!--MD5=[c56f9665aed968baea9131018f1cc577]
link Vehicle to QRCode--><path d="M503.292,359.151 C513.16,363.93 523.391,368.874 533,373.5 C586.066,399.045 647.473,428.3481 686.388,446.8868 " fill="none" id="Vehicle-QRCode" style="stroke: #A80036; stroke-width: 1.0;"/><text fill="#000000" font-family="sans-serif" font-size="13" lengthAdjust="spacingAndGlyphs" textLength="94" x="534" y="369.9951">is identified by a</text><polygon fill="#000000" points="631,363.1758,637,366.1758,631,369.1758,631,363.1758" style="stroke: #000000; stroke-width: 1.0;"/><text fill="#000000" font-family="sans-serif" font-size="13" lengthAdjust="spacingAndGlyphs" textLength="7" x="510.9906" y="377.2136">1</text><text fill="#000000" font-family="sans-serif" font-size="13" lengthAdjust="spacingAndGlyphs" textLength="7" x="671.6196" y="458.5228">1</text><!--MD5=[89baec1bfb4a213750f7c61516e0a0f1]
link Pharmacy to Address--><path d="M770.05,224.695 C805.364,224.857 855.727,225.088 893.443,225.261 " fill="none" id="Pharmacy-Address" style="stroke: #A80036; stroke-width: 1.0;"/><text fill="#000000" font-family="sans-serif" font-size="13" lengthAdjust="spacingAndGlyphs" textLength="21" x="812" y="220.9951">has</text><polygon fill="#000000" points="836,214.1758,842,217.1758,836,220.1758,836,214.1758" style="stroke: #000000; stroke-width: 1.0;"/><text fill="#000000" font-family="sans-serif" font-size="13" lengthAdjust="spacingAndGlyphs" textLength="7" x="778.1367" y="239.6711">1</text><text fill="#000000" font-family="sans-serif" font-size="13" lengthAdjust="spacingAndGlyphs" textLength="7" x="878.4897" y="239.8942">1</text><!--MD5=[0ae4e3be80761dbc176b3d01b8ab98e4]
link Pharmacy to Park--><path d="M770.05,196.394 C805.488,172.985 856.081,139.566 893.839,114.625 " fill="none" id="Pharmacy-Park" style="stroke: #A80036; stroke-width: 1.0;"/><text fill="#000000" font-family="sans-serif" font-size="13" lengthAdjust="spacingAndGlyphs" textLength="21" x="812" y="143.9951">has</text><polygon fill="#000000" points="836,137.1758,842,140.1758,836,143.1758,836,137.1758" style="stroke: #000000; stroke-width: 1.0;"/><text fill="#000000" font-family="sans-serif" font-size="13" lengthAdjust="spacingAndGlyphs" textLength="7" x="778.1367" y="206.5059">1</text><text fill="#000000" font-family="sans-serif" font-size="13" lengthAdjust="spacingAndGlyphs" textLength="5" x="879.0134" y="135.6842">*</text><!--MD5=[5790d77feb6b26de2794f2f777278d81]
link Park to VehicleType--><path d="M993.557,114.719 C1001.13,120.557 1008.84,126.633 1016,132.5 C1057.47,166.48 1103.55,207.833 1132.64,234.404 " fill="none" id="Park-VehicleType" style="stroke: #A80036; stroke-width: 1.0;"/><text fill="#000000" font-family="sans-serif" font-size="13" lengthAdjust="spacingAndGlyphs" textLength="21" x="1047" y="155.9951">has</text><polygon fill="#000000" points="1071,149.1758,1077,152.1758,1071,155.1758,1071,149.1758" style="stroke: #000000; stroke-width: 1.0;"/><text fill="#000000" font-family="sans-serif" font-size="13" lengthAdjust="spacingAndGlyphs" textLength="5" x="996.4937" y="135.7949">*</text><text fill="#000000" font-family="sans-serif" font-size="13" lengthAdjust="spacingAndGlyphs" textLength="7" x="1117.8099" y="223.8428">1</text><!--MD5=[d231af42e5f994c6ef3dd0db49c43284]
link Park to ParkingSlot--><path d="M1016.25,80.5 C1048.6,80.5 1086.34,80.5 1115.31,80.5 " fill="none" id="Park-ParkingSlot" style="stroke: #A80036; stroke-width: 1.0;"/><text fill="#000000" font-family="sans-serif" font-size="13" lengthAdjust="spacingAndGlyphs" textLength="21" x="1047" y="76.9951">has</text><polygon fill="#000000" points="1071,70.1758,1077,73.1758,1071,76.1758,1071,70.1758" style="stroke: #000000; stroke-width: 1.0;"/><text fill="#000000" font-family="sans-serif" font-size="13" lengthAdjust="spacingAndGlyphs" textLength="7" x="1023.8039" y="94.8552">1</text><text fill="#000000" font-family="sans-serif" font-size="13" lengthAdjust="spacingAndGlyphs" textLength="5" x="1102.6247" y="95.2596">*</text><!--MD5=[a4c65a09dd0e5e45daf0263f06c7f061]
link ParkingSlot to ChargingSlot--><path d="M1210.8,69.836 C1240.69,63.026 1279.45,54.195 1310.18,47.194 " fill="none" id="ParkingSlot-ChargingSlot" style="stroke: #A80036; stroke-width: 1.0;"/><text fill="#000000" font-family="sans-serif" font-size="13" lengthAdjust="spacingAndGlyphs" textLength="10" x="1245" y="53.9951">is</text><polygon fill="#000000" points="1258,47.1758,1264,50.1758,1258,53.1758,1258,47.1758" style="stroke: #000000; stroke-width: 1.0;"/><text fill="#000000" font-family="sans-serif" font-size="13" lengthAdjust="spacingAndGlyphs" textLength="7" x="1218.6553" y="82.9627">1</text><text fill="#000000" font-family="sans-serif" font-size="13" lengthAdjust="spacingAndGlyphs" textLength="7" x="1295.3303" y="63.4948">1</text><!--MD5=[142124bf764eff3cd61a820bcd607a89]
link ParkingSlot to NonChargingSlot--><path d="M1210.8,90.927 C1237.15,96.798 1270.4,104.205 1298.96,110.567 " fill="none" id="ParkingSlot-NonChargingSlot" style="stroke: #A80036; stroke-width: 1.0;"/><text fill="#000000" font-family="sans-serif" font-size="13" lengthAdjust="spacingAndGlyphs" textLength="10" x="1245" y="94.9951">is</text><polygon fill="#000000" points="1258,88.1758,1264,91.1758,1258,94.1758,1258,88.1758" style="stroke: #000000; stroke-width: 1.0;"/><text fill="#000000" font-family="sans-serif" font-size="13" lengthAdjust="spacingAndGlyphs" textLength="7" x="1218.6553" y="107.2832">1</text><text fill="#000000" font-family="sans-serif" font-size="13" lengthAdjust="spacingAndGlyphs" textLength="7" x="1284.2085" y="123.4059">1</text><!--MD5=[3fa83f42c878ddc47b59211fc64ec532]
link VehicleModel to Battery--><path d="M781.108,384.271 C812.625,401.187 852.558,422.6184 885.174,440.1232 " fill="none" id="VehicleModel-Battery" style="stroke: #A80036; stroke-width: 1.0;"/><text fill="#000000" font-family="sans-serif" font-size="13" lengthAdjust="spacingAndGlyphs" textLength="21" x="812" y="399.9951">has</text><polygon fill="#000000" points="836,393.1758,842,396.1758,836,399.1758,836,393.1758" style="stroke: #000000; stroke-width: 1.0;"/><text fill="#000000" font-family="sans-serif" font-size="13" lengthAdjust="spacingAndGlyphs" textLength="7" x="788.9163" y="402.7188">1</text><text fill="#000000" font-family="sans-serif" font-size="13" lengthAdjust="spacingAndGlyphs" textLength="7" x="870.6785" y="450.8002">1</text><!--MD5=[eb172a83c7b24bcb2b2c23cfcc7dc290]
link VehicleModel to VehicleType--><path d="M781.224,358.399 C839.992,360.098 936.424,358.537 1016,336.5 C1053.35,326.157 1092.22,305.637 1120.45,288.671 " fill="none" id="VehicleModel-VehicleType" style="stroke: #A80036; stroke-width: 1.0;"/><text fill="#000000" font-family="sans-serif" font-size="13" lengthAdjust="spacingAndGlyphs" textLength="21" x="929.5" y="332.9951">has</text><polygon fill="#000000" points="953.5,326.1758,959.5,329.1758,953.5,332.1758,953.5,326.1758" style="stroke: #000000; stroke-width: 1.0;"/><text fill="#000000" font-family="sans-serif" font-size="13" lengthAdjust="spacingAndGlyphs" textLength="5" x="788.9135" y="373.3702">*</text><text fill="#000000" font-family="sans-serif" font-size="13" lengthAdjust="spacingAndGlyphs" textLength="7" x="1103.3766" y="309.9162">1</text><!--MD5=[ed28720d678671826e11e444d4e53cab]
@startuml
skinparam classAttributeIconSize 0
hide methods
left to right direction

database Database {
}

class Pharmacy {
  -int id
  -String name
-   String email
}

class Park{
-   int maxSlotsNumber
-   double totalOutputCorrent
}

class ChargingSlot{
-   int id
}

class NonChargingSlot{
-   int id
}

class ParkingSlot{
-   int id
}

class Scooter{
}

class VehicleModel{
  -int id
  -String desigantion
  -double potency
  -double weight
  -double maxPayload
}

class VehicleType{
  -String desigantion
}

class Vehicle{
  -int id
  -double batteryPerc
}

class Battery{
  -int id
  -int batteryCapacity
  -double batteryVoltage
  -double efficiency
}

class Address{
  -double longitude
  -double latitude
  -double altitude
  -String doorNumber
  -String streetName
  -String postalCode
  -String locality
  -String country
}

class QRCode{
}


Database "1" - - "*" Pharmacy : has >
Database "1" - - "*" Scooter : has >
Scooter "*" - - "1" Vehicle : is a type of >
Vehicle "*" - - "1" VehicleModel : has >
Vehicle "*" - - "1" Pharmacy : belongs to a >
Vehicle "1" - - "1" QRCode : is identified by a >
Pharmacy "1" - - "1" Address : has >
Pharmacy "1" - - "*" Park : has >
Park "*" - - "1" VehicleType : has >
Park "1" - - "*" ParkingSlot : has >
ParkingSlot "1" - - "1" ChargingSlot : is >
ParkingSlot "1" - - "1" NonChargingSlot : is >
VehicleModel "1" - - "1" Battery : has >
VehicleModel "*" - - "1" VehicleType : has >
@enduml

PlantUML version 1.2020.09(Sun May 10 11:51:06 BST 2020)
(GPL source distribution)
Java Runtime: OpenJDK Runtime Environment
JVM: OpenJDK 64-Bit Server VM
Java Version: 11.0.6+8-b765.40
Operating System: Windows 10
Default Encoding: Cp1252
Language: pt
Country: PT
--></g></svg>