<?xml version="1.0" encoding="UTF-8" standalone="no"?><svg xmlns="http://www.w3.org/2000/svg" xmlns:xlink="http://www.w3.org/1999/xlink" contentScriptType="application/ecmascript" contentStyleType="text/css" height="609px" preserveAspectRatio="none" style="width:1652px;height:609px;" version="1.1" viewBox="0 0 1652 609" width="1652px" zoomAndPan="magnify"><defs><filter height="300%" id="f1jnffo8dv9h0c" width="300%" x="-1" y="-1"><feGaussianBlur result="blurOut" stdDeviation="2.0"/><feColorMatrix in="blurOut" result="blurOut2" type="matrix" values="0 0 0 0 0 0 0 0 0 0 0 0 0 0 0 0 0 0 .4 0"/><feOffset dx="4.0" dy="4.0" in="blurOut2" result="blurOut3"/><feBlend in="SourceGraphic" in2="blurOut3" mode="normal"/></filter></defs><g><!--MD5=[9681dc6e01e10c6b4fe06895ae94f592]
cluster UI--><polygon fill="#DDDDDD" filter="url(#f1jnffo8dv9h0c)" points="80,6,100,6,107,29.6094,302,29.6094,302,126,80,126,80,6" style="stroke:#000000;stroke-width:1.5;"/><line style="stroke:#000000;stroke-width:1.5;" x1="80" x2="107" y1="29.6094" y2="29.6094"/><text fill="#000000" font-family="sans-serif" font-size="14" font-weight="bold" lengthAdjust="spacing" textLength="14" x="84" y="22.5332">UI</text><!--MD5=[1f2cfc53d9d308f53762fd0fcbaa4873]
cluster Controller--><polygon fill="#DDDDDD" filter="url(#f1jnffo8dv9h0c)" points="16,166,93,166,100,189.6094,323,189.6094,323,554,16,554,16,166" style="stroke:#000000;stroke-width:1.5;"/><line style="stroke:#000000;stroke-width:1.5;" x1="16" x2="100" y1="189.6094" y2="189.6094"/><text fill="#000000" font-family="sans-serif" font-size="14" font-weight="bold" lengthAdjust="spacing" textLength="71" x="20" y="182.5332">Controller</text><!--MD5=[15636c1ca4a123c16a2a1a8e90aca7a9]
cluster Model--><polygon fill="#DDDDDD" filter="url(#f1jnffo8dv9h0c)" points="347,355,397,355,404,378.6094,1138,378.6094,1138,602.5,347,602.5,347,355" style="stroke:#000000;stroke-width:1.5;"/><line style="stroke:#000000;stroke-width:1.5;" x1="347" x2="404" y1="378.6094" y2="378.6094"/><text fill="#000000" font-family="sans-serif" font-size="14" font-weight="bold" lengthAdjust="spacing" textLength="44" x="351" y="371.5332">Model</text><!--MD5=[9dd75fd92da113d30380b27734fd2f01]
cluster Service--><polygon fill="#DDDDDD" filter="url(#f1jnffo8dv9h0c)" points="810,399,870,399,877,422.6094,1114,422.6094,1114,561,810,561,810,399" style="stroke:#000000;stroke-width:1.5;"/><line style="stroke:#000000;stroke-width:1.5;" x1="810" x2="877" y1="422.6094" y2="422.6094"/><text fill="#000000" font-family="sans-serif" font-size="14" font-weight="bold" lengthAdjust="spacing" textLength="54" x="814" y="415.5332">Service</text><!--MD5=[f21b1f164e99c6b37934f23ad048ad54]
cluster Data--><polygon fill="#DDDDDD" filter="url(#f1jnffo8dv9h0c)" points="1162,159,1199,159,1206,182.6094,1635,182.6094,1635,561,1162,561,1162,159" style="stroke:#000000;stroke-width:1.5;"/><line style="stroke:#000000;stroke-width:1.5;" x1="1162" x2="1206" y1="182.6094" y2="182.6094"/><text fill="#000000" font-family="sans-serif" font-size="14" font-weight="bold" lengthAdjust="spacing" textLength="31" x="1166" y="175.5332">Data</text><!--MD5=[b4f48a7919e2e1bc25b7fc99913d9824]
class CalculateMostEfficientPahtUI--><rect codeLine="5" fill="#FEFECE" filter="url(#f1jnffo8dv9h0c)" height="48" id="CalculateMostEfficientPahtUI" style="stroke:#A80036;stroke-width:1.5;" width="190" x="96" y="62"/><ellipse cx="111" cy="78" fill="#ADD1B2" rx="11" ry="11" style="stroke:#A80036;stroke-width:1.0;"/><path d="M113,74.5 Q113.2031,74 113.4375,73.75 Q113.6719,73.5 113.9375,73.5 Q114.4063,73.5 114.7031,73.7813 Q115,74.0625 115,74.7188 L115,76.2813 Q115,76.9375 114.7188,77.2188 Q114.4375,77.5 114,77.5 Q113.6094,77.5 113.3594,77.3281 Q113.1094,77.1563 113,76.7031 Q112.9531,76.3906 112.7813,76.2188 Q112.4688,75.8906 111.9063,75.7031 Q111.3438,75.5 110.7813,75.5 Q110.0781,75.5 109.4844,75.7813 Q108.9063,76.0625 108.4531,76.6875 Q108,77.3125 108,78.1719 L108,79.0938 Q108,80.125 108.8438,80.8125 Q109.6875,81.5 111.1875,81.5 Q112.0781,81.5 112.7031,81.2969 Q113.0625,81.1875 113.4688,80.8281 Q113.7344,80.625 113.875,80.5625 Q114.0156,80.5 114.1875,80.5 Q114.5156,80.5 114.75,80.7656 Q115,81.0156 115,81.375 Q115,81.7188 114.6563,82.125 Q114.1563,82.7188 113.3594,83.0469 Q112.3125,83.5 111.0313,83.5 Q109.5313,83.5 108.3281,82.9063 Q107.3594,82.4375 106.6719,81.4219 Q106,80.4063 106,79.2031 L106,78.1094 Q106,76.8594 106.5938,75.7656 Q107.2031,74.6719 108.25,74.0938 Q109.3125,73.5 110.5,73.5 Q111.2188,73.5 111.8438,73.75 Q112.4688,74 113,74.5 Z " fill="#000000"/><text fill="#000000" font-family="sans-serif" font-size="12" lengthAdjust="spacing" textLength="158" x="125" y="82.9102">CalculateMostEfficientPahtUI</text><line style="stroke:#A80036;stroke-width:1.5;" x1="97" x2="285" y1="94" y2="94"/><line style="stroke:#A80036;stroke-width:1.5;" x1="97" x2="285" y1="102" y2="102"/><!--MD5=[165922122781c97e22b50eec8123fd29]
class CalculateMostEfficientPahtController--><rect codeLine="10" fill="#FEFECE" filter="url(#f1jnffo8dv9h0c)" height="61.8359" id="CalculateMostEfficientPahtController" style="stroke:#A80036;stroke-width:1.5;" width="232" x="75" y="222"/><ellipse cx="90" cy="238" fill="#ADD1B2" rx="11" ry="11" style="stroke:#A80036;stroke-width:1.0;"/><path d="M92,234.5 Q92.2031,234 92.4375,233.75 Q92.6719,233.5 92.9375,233.5 Q93.4063,233.5 93.7031,233.7813 Q94,234.0625 94,234.7188 L94,236.2813 Q94,236.9375 93.7188,237.2188 Q93.4375,237.5 93,237.5 Q92.6094,237.5 92.3594,237.3281 Q92.1094,237.1563 92,236.7031 Q91.9531,236.3906 91.7813,236.2188 Q91.4688,235.8906 90.9063,235.7031 Q90.3438,235.5 89.7813,235.5 Q89.0781,235.5 88.4844,235.7813 Q87.9063,236.0625 87.4531,236.6875 Q87,237.3125 87,238.1719 L87,239.0938 Q87,240.125 87.8438,240.8125 Q88.6875,241.5 90.1875,241.5 Q91.0781,241.5 91.7031,241.2969 Q92.0625,241.1875 92.4688,240.8281 Q92.7344,240.625 92.875,240.5625 Q93.0156,240.5 93.1875,240.5 Q93.5156,240.5 93.75,240.7656 Q94,241.0156 94,241.375 Q94,241.7188 93.6563,242.125 Q93.1563,242.7188 92.3594,243.0469 Q91.3125,243.5 90.0313,243.5 Q88.5313,243.5 87.3281,242.9063 Q86.3594,242.4375 85.6719,241.4219 Q85,240.4063 85,239.2031 L85,238.1094 Q85,236.8594 85.5938,235.7656 Q86.2031,234.6719 87.25,234.0938 Q88.3125,233.5 89.5,233.5 Q90.2188,233.5 90.8438,233.75 Q91.4688,234 92,234.5 Z " fill="#000000"/><text fill="#000000" font-family="sans-serif" font-size="12" lengthAdjust="spacing" textLength="200" x="104" y="242.9102">CalculateMostEfficientPahtController</text><line style="stroke:#A80036;stroke-width:1.5;" x1="76" x2="306" y1="254" y2="254"/><line style="stroke:#A80036;stroke-width:1.5;" x1="76" x2="306" y1="262" y2="262"/><text fill="#000000" font-family="sans-serif" font-size="11" lengthAdjust="spacing" textLength="91" x="81" y="277.4189">+getShortestPath()</text><!--MD5=[e45a4727c47b726c25e081782e8bc183]
class ApplicationPOT--><rect codeLine="13" fill="#FEFECE" filter="url(#f1jnffo8dv9h0c)" height="75.6719" id="ApplicationPOT" style="stroke:#A80036;stroke-width:1.5;" width="116" x="32" y="462"/><ellipse cx="47" cy="478" fill="#ADD1B2" rx="11" ry="11" style="stroke:#A80036;stroke-width:1.0;"/><path d="M49,474.5 Q49.2031,474 49.4375,473.75 Q49.6719,473.5 49.9375,473.5 Q50.4063,473.5 50.7031,473.7813 Q51,474.0625 51,474.7188 L51,476.2813 Q51,476.9375 50.7188,477.2188 Q50.4375,477.5 50,477.5 Q49.6094,477.5 49.3594,477.3281 Q49.1094,477.1563 49,476.7031 Q48.9531,476.3906 48.7813,476.2188 Q48.4688,475.8906 47.9063,475.7031 Q47.3438,475.5 46.7813,475.5 Q46.0781,475.5 45.4844,475.7813 Q44.9063,476.0625 44.4531,476.6875 Q44,477.3125 44,478.1719 L44,479.0938 Q44,480.125 44.8438,480.8125 Q45.6875,481.5 47.1875,481.5 Q48.0781,481.5 48.7031,481.2969 Q49.0625,481.1875 49.4688,480.8281 Q49.7344,480.625 49.875,480.5625 Q50.0156,480.5 50.1875,480.5 Q50.5156,480.5 50.75,480.7656 Q51,481.0156 51,481.375 Q51,481.7188 50.6563,482.125 Q50.1563,482.7188 49.3594,483.0469 Q48.3125,483.5 47.0313,483.5 Q45.5313,483.5 44.3281,482.9063 Q43.3594,482.4375 42.6719,481.4219 Q42,480.4063 42,479.2031 L42,478.1094 Q42,476.8594 42.5938,475.7656 Q43.2031,474.6719 44.25,474.0938 Q45.3125,473.5 46.5,473.5 Q47.2188,473.5 47.8438,473.75 Q48.4688,474 49,474.5 Z " fill="#000000"/><text fill="#000000" font-family="sans-serif" font-size="12" lengthAdjust="spacing" textLength="84" x="61" y="482.9102">ApplicationPOT</text><line style="stroke:#A80036;stroke-width:1.5;" x1="33" x2="147" y1="494" y2="494"/><line style="stroke:#A80036;stroke-width:1.5;" x1="33" x2="147" y1="502" y2="502"/><text fill="#000000" font-family="sans-serif" font-size="11" lengthAdjust="spacing" textLength="99" x="38" y="517.4189">+static getInstance()</text><text fill="#000000" font-family="sans-serif" font-size="11" lengthAdjust="spacing" textLength="104" x="38" y="531.2549">+getCurrentSession()</text><!--MD5=[c5b08e60048ef1bcd788d24cf324082e]
class UserSession--><rect codeLine="18" fill="#FEFECE" filter="url(#f1jnffo8dv9h0c)" height="61.8359" id="UserSession" style="stroke:#A80036;stroke-width:1.5;" width="124" x="183" y="469"/><ellipse cx="206.55" cy="485" fill="#ADD1B2" rx="11" ry="11" style="stroke:#A80036;stroke-width:1.0;"/><path d="M208.55,481.5 Q208.7531,481 208.9875,480.75 Q209.2219,480.5 209.4875,480.5 Q209.9563,480.5 210.2531,480.7813 Q210.55,481.0625 210.55,481.7188 L210.55,483.2813 Q210.55,483.9375 210.2688,484.2188 Q209.9875,484.5 209.55,484.5 Q209.1594,484.5 208.9094,484.3281 Q208.6594,484.1563 208.55,483.7031 Q208.5031,483.3906 208.3313,483.2188 Q208.0188,482.8906 207.4563,482.7031 Q206.8938,482.5 206.3313,482.5 Q205.6281,482.5 205.0344,482.7813 Q204.4563,483.0625 204.0031,483.6875 Q203.55,484.3125 203.55,485.1719 L203.55,486.0938 Q203.55,487.125 204.3938,487.8125 Q205.2375,488.5 206.7375,488.5 Q207.6281,488.5 208.2531,488.2969 Q208.6125,488.1875 209.0188,487.8281 Q209.2844,487.625 209.425,487.5625 Q209.5656,487.5 209.7375,487.5 Q210.0656,487.5 210.3,487.7656 Q210.55,488.0156 210.55,488.375 Q210.55,488.7188 210.2063,489.125 Q209.7063,489.7188 208.9094,490.0469 Q207.8625,490.5 206.5813,490.5 Q205.0813,490.5 203.8781,489.9063 Q202.9094,489.4375 202.2219,488.4219 Q201.55,487.4063 201.55,486.2031 L201.55,485.1094 Q201.55,483.8594 202.1438,482.7656 Q202.7531,481.6719 203.8,481.0938 Q204.8625,480.5 206.05,480.5 Q206.7688,480.5 207.3938,480.75 Q208.0188,481 208.55,481.5 Z " fill="#000000"/><text fill="#000000" font-family="sans-serif" font-size="12" lengthAdjust="spacing" textLength="73" x="222.45" y="489.9102">UserSession</text><line style="stroke:#A80036;stroke-width:1.5;" x1="184" x2="306" y1="501" y2="501"/><line style="stroke:#A80036;stroke-width:1.5;" x1="184" x2="306" y1="509" y2="509"/><text fill="#000000" font-family="sans-serif" font-size="11" lengthAdjust="spacing" textLength="112" x="189" y="524.4189">+getCurrentUserEmail()</text><!--MD5=[0f39e4cb6f03951afbf6d14bd2505654]
class Address--><rect codeLine="25" fill="#FEFECE" filter="url(#f1jnffo8dv9h0c)" height="172.5234" id="Address" style="stroke:#A80036;stroke-width:1.5;" width="401" x="363.5" y="413.5"/><ellipse cx="536.75" cy="429.5" fill="#ADD1B2" rx="11" ry="11" style="stroke:#A80036;stroke-width:1.0;"/><path d="M538.75,426 Q538.9531,425.5 539.1875,425.25 Q539.4219,425 539.6875,425 Q540.1563,425 540.4531,425.2813 Q540.75,425.5625 540.75,426.2188 L540.75,427.7813 Q540.75,428.4375 540.4688,428.7188 Q540.1875,429 539.75,429 Q539.3594,429 539.1094,428.8281 Q538.8594,428.6563 538.75,428.2031 Q538.7031,427.8906 538.5313,427.7188 Q538.2188,427.3906 537.6563,427.2031 Q537.0938,427 536.5313,427 Q535.8281,427 535.2344,427.2813 Q534.6563,427.5625 534.2031,428.1875 Q533.75,428.8125 533.75,429.6719 L533.75,430.5938 Q533.75,431.625 534.5938,432.3125 Q535.4375,433 536.9375,433 Q537.8281,433 538.4531,432.7969 Q538.8125,432.6875 539.2188,432.3281 Q539.4844,432.125 539.625,432.0625 Q539.7656,432 539.9375,432 Q540.2656,432 540.5,432.2656 Q540.75,432.5156 540.75,432.875 Q540.75,433.2188 540.4063,433.625 Q539.9063,434.2188 539.1094,434.5469 Q538.0625,435 536.7813,435 Q535.2813,435 534.0781,434.4063 Q533.1094,433.9375 532.4219,432.9219 Q531.75,431.9063 531.75,430.7031 L531.75,429.6094 Q531.75,428.3594 532.3438,427.2656 Q532.9531,426.1719 534,425.5938 Q535.0625,425 536.25,425 Q536.9688,425 537.5938,425.25 Q538.2188,425.5 538.75,426 Z " fill="#000000"/><text fill="#000000" font-family="sans-serif" font-size="12" lengthAdjust="spacing" textLength="46" x="557.25" y="434.4102">Address</text><line style="stroke:#A80036;stroke-width:1.5;" x1="364.5" x2="763.5" y1="445.5" y2="445.5"/><text fill="#000000" font-family="sans-serif" font-size="11" lengthAdjust="spacing" textLength="48" x="369.5" y="460.9189">-Integer id</text><text fill="#000000" font-family="sans-serif" font-size="11" lengthAdjust="spacing" textLength="74" x="369.5" y="474.7549">-Double latitude</text><text fill="#000000" font-family="sans-serif" font-size="11" lengthAdjust="spacing" textLength="83" x="369.5" y="488.5908">-Double longitude</text><text fill="#000000" font-family="sans-serif" font-size="11" lengthAdjust="spacing" textLength="90" x="369.5" y="502.4268">-String streetName</text><text fill="#000000" font-family="sans-serif" font-size="11" lengthAdjust="spacing" textLength="94" x="369.5" y="516.2627">-String doorNumber</text><text fill="#000000" font-family="sans-serif" font-size="11" lengthAdjust="spacing" textLength="89" x="369.5" y="530.0986">-String postalCode</text><text fill="#000000" font-family="sans-serif" font-size="11" lengthAdjust="spacing" textLength="68" x="369.5" y="543.9346">-String locality</text><text fill="#000000" font-family="sans-serif" font-size="11" lengthAdjust="spacing" textLength="72" x="369.5" y="557.7705">-String country</text><line style="stroke:#A80036;stroke-width:1.5;" x1="364.5" x2="763.5" y1="564.1875" y2="564.1875"/><text fill="#000000" font-family="sans-serif" font-size="11" lengthAdjust="spacing" textLength="389" x="369.5" y="579.6064">+Address(latitude,longitude,streetName,doorNumber,postalCode,locality,country)</text><!--MD5=[a737da5453cdca5d1b508e41d49c1154]
class DeliveryRunService--><rect codeLine="38" fill="#FEFECE" filter="url(#f1jnffo8dv9h0c)" height="89.5078" id="DeliveryRunService" style="stroke:#A80036;stroke-width:1.5;" width="272" x="826" y="455"/><ellipse cx="904.75" cy="471" fill="#ADD1B2" rx="11" ry="11" style="stroke:#A80036;stroke-width:1.0;"/><path d="M906.75,467.5 Q906.9531,467 907.1875,466.75 Q907.4219,466.5 907.6875,466.5 Q908.1563,466.5 908.4531,466.7813 Q908.75,467.0625 908.75,467.7188 L908.75,469.2813 Q908.75,469.9375 908.4688,470.2188 Q908.1875,470.5 907.75,470.5 Q907.3594,470.5 907.1094,470.3281 Q906.8594,470.1563 906.75,469.7031 Q906.7031,469.3906 906.5313,469.2188 Q906.2188,468.8906 905.6563,468.7031 Q905.0938,468.5 904.5313,468.5 Q903.8281,468.5 903.2344,468.7813 Q902.6563,469.0625 902.2031,469.6875 Q901.75,470.3125 901.75,471.1719 L901.75,472.0938 Q901.75,473.125 902.5938,473.8125 Q903.4375,474.5 904.9375,474.5 Q905.8281,474.5 906.4531,474.2969 Q906.8125,474.1875 907.2188,473.8281 Q907.4844,473.625 907.625,473.5625 Q907.7656,473.5 907.9375,473.5 Q908.2656,473.5 908.5,473.7656 Q908.75,474.0156 908.75,474.375 Q908.75,474.7188 908.4063,475.125 Q907.9063,475.7188 907.1094,476.0469 Q906.0625,476.5 904.7813,476.5 Q903.2813,476.5 902.0781,475.9063 Q901.1094,475.4375 900.4219,474.4219 Q899.75,473.4063 899.75,472.2031 L899.75,471.1094 Q899.75,469.8594 900.3438,468.7656 Q900.9531,467.6719 902,467.0938 Q903.0625,466.5 904.25,466.5 Q904.9688,466.5 905.5938,466.75 Q906.2188,467 906.75,467.5 Z " fill="#000000"/><text fill="#000000" font-family="sans-serif" font-size="12" lengthAdjust="spacing" textLength="106" x="925.25" y="475.9102">DeliveryRunService</text><line style="stroke:#A80036;stroke-width:1.5;" x1="827" x2="1097" y1="487" y2="487"/><line style="stroke:#A80036;stroke-width:1.5;" x1="827" x2="1097" y1="495" y2="495"/><text fill="#000000" font-family="sans-serif" font-size="11" lengthAdjust="spacing" textLength="109" x="832" y="510.4189">+DeliveryRunService()</text><text fill="#000000" font-family="sans-serif" font-size="11" lengthAdjust="spacing" textLength="186" x="832" y="524.2549">+getAddressesByDeliveryRunId(email)</text><text fill="#000000" font-family="sans-serif" font-size="11" lengthAdjust="spacing" textLength="260" x="832" y="538.0908">+calculateMostEfficientPath(addressA, addressB, list)</text><!--MD5=[4b2d61224b33971326a22fe5d809d926]
class DataHandler--><rect codeLine="47" fill="#FEFECE" filter="url(#f1jnffo8dv9h0c)" height="75.6719" id="DataHandler" style="stroke:#A80036;stroke-width:1.5;" width="104" x="1262" y="215"/><ellipse cx="1277.9" cy="231" fill="#ADD1B2" rx="11" ry="11" style="stroke:#A80036;stroke-width:1.0;"/><path d="M1279.9,227.5 Q1280.1031,227 1280.3375,226.75 Q1280.5719,226.5 1280.8375,226.5 Q1281.3063,226.5 1281.6031,226.7813 Q1281.9,227.0625 1281.9,227.7188 L1281.9,229.2813 Q1281.9,229.9375 1281.6188,230.2188 Q1281.3375,230.5 1280.9,230.5 Q1280.5094,230.5 1280.2594,230.3281 Q1280.0094,230.1563 1279.9,229.7031 Q1279.8531,229.3906 1279.6813,229.2188 Q1279.3688,228.8906 1278.8063,228.7031 Q1278.2438,228.5 1277.6813,228.5 Q1276.9781,228.5 1276.3844,228.7813 Q1275.8063,229.0625 1275.3531,229.6875 Q1274.9,230.3125 1274.9,231.1719 L1274.9,232.0938 Q1274.9,233.125 1275.7438,233.8125 Q1276.5875,234.5 1278.0875,234.5 Q1278.9781,234.5 1279.6031,234.2969 Q1279.9625,234.1875 1280.3688,233.8281 Q1280.6344,233.625 1280.775,233.5625 Q1280.9156,233.5 1281.0875,233.5 Q1281.4156,233.5 1281.65,233.7656 Q1281.9,234.0156 1281.9,234.375 Q1281.9,234.7188 1281.5563,235.125 Q1281.0563,235.7188 1280.2594,236.0469 Q1279.2125,236.5 1277.9313,236.5 Q1276.4313,236.5 1275.2281,235.9063 Q1274.2594,235.4375 1273.5719,234.4219 Q1272.9,233.4063 1272.9,232.2031 L1272.9,231.1094 Q1272.9,229.8594 1273.4938,228.7656 Q1274.1031,227.6719 1275.15,227.0938 Q1276.2125,226.5 1277.4,226.5 Q1278.1188,226.5 1278.7438,226.75 Q1279.3688,227 1279.9,227.5 Z " fill="#000000"/><text fill="#000000" font-family="sans-serif" font-size="12" lengthAdjust="spacing" textLength="70" x="1292.1" y="235.9102">DataHandler</text><line style="stroke:#A80036;stroke-width:1.5;" x1="1263" x2="1365" y1="247" y2="247"/><line style="stroke:#A80036;stroke-width:1.5;" x1="1263" x2="1365" y1="255" y2="255"/><text fill="#000000" font-family="sans-serif" font-size="11" lengthAdjust="spacing" textLength="92" x="1268" y="270.4189">+openConnection()</text><text fill="#000000" font-family="sans-serif" font-size="11" lengthAdjust="spacing" textLength="52" x="1268" y="284.2549">+closeAll()</text><!--MD5=[9ca1ca07947173ef4f790b05206a7839]
class DeliveryRunDB--><rect codeLine="68" fill="#FEFECE" filter="url(#f1jnffo8dv9h0c)" height="89.5078" id="DeliveryRunDB" style="stroke:#A80036;stroke-width:1.5;" width="272" x="1178" y="455"/><ellipse cx="1268.25" cy="471" fill="#ADD1B2" rx="11" ry="11" style="stroke:#A80036;stroke-width:1.0;"/><path d="M1270.25,467.5 Q1270.4531,467 1270.6875,466.75 Q1270.9219,466.5 1271.1875,466.5 Q1271.6563,466.5 1271.9531,466.7813 Q1272.25,467.0625 1272.25,467.7188 L1272.25,469.2813 Q1272.25,469.9375 1271.9688,470.2188 Q1271.6875,470.5 1271.25,470.5 Q1270.8594,470.5 1270.6094,470.3281 Q1270.3594,470.1563 1270.25,469.7031 Q1270.2031,469.3906 1270.0313,469.2188 Q1269.7188,468.8906 1269.1563,468.7031 Q1268.5938,468.5 1268.0313,468.5 Q1267.3281,468.5 1266.7344,468.7813 Q1266.1563,469.0625 1265.7031,469.6875 Q1265.25,470.3125 1265.25,471.1719 L1265.25,472.0938 Q1265.25,473.125 1266.0938,473.8125 Q1266.9375,474.5 1268.4375,474.5 Q1269.3281,474.5 1269.9531,474.2969 Q1270.3125,474.1875 1270.7188,473.8281 Q1270.9844,473.625 1271.125,473.5625 Q1271.2656,473.5 1271.4375,473.5 Q1271.7656,473.5 1272,473.7656 Q1272.25,474.0156 1272.25,474.375 Q1272.25,474.7188 1271.9063,475.125 Q1271.4063,475.7188 1270.6094,476.0469 Q1269.5625,476.5 1268.2813,476.5 Q1266.7813,476.5 1265.5781,475.9063 Q1264.6094,475.4375 1263.9219,474.4219 Q1263.25,473.4063 1263.25,472.2031 L1263.25,471.1094 Q1263.25,469.8594 1263.8438,468.7656 Q1264.4531,467.6719 1265.5,467.0938 Q1266.5625,466.5 1267.75,466.5 Q1268.4688,466.5 1269.0938,466.75 Q1269.7188,467 1270.25,467.5 Z " fill="#000000"/><text fill="#000000" font-family="sans-serif" font-size="12" lengthAdjust="spacing" textLength="83" x="1288.75" y="475.9102">DeliveryRunDB</text><line style="stroke:#A80036;stroke-width:1.5;" x1="1179" x2="1449" y1="487" y2="487"/><line style="stroke:#A80036;stroke-width:1.5;" x1="1179" x2="1449" y1="495" y2="495"/><text fill="#000000" font-family="sans-serif" font-size="11" lengthAdjust="spacing" textLength="86" x="1184" y="510.4189">+DeliveryRunDB()</text><text fill="#000000" font-family="sans-serif" font-size="11" lengthAdjust="spacing" textLength="186" x="1184" y="524.2549">+getAddressesByDeliveryRunId(email)</text><text fill="#000000" font-family="sans-serif" font-size="11" lengthAdjust="spacing" textLength="260" x="1184" y="538.0908">+calculateMostEfficientPath(addressA, addressB, list)</text><!--MD5=[f50ff5e4cd64f259303fc83dba1819fc]
entity database--><path d="M1539.5,486.5 C1539.5,476.5 1579,476.5 1579,476.5 C1579,476.5 1618.5,476.5 1618.5,486.5 L1618.5,513.1094 C1618.5,523.1094 1579,523.1094 1579,523.1094 C1579,523.1094 1539.5,523.1094 1539.5,513.1094 L1539.5,486.5 " fill="#FFFFFF" filter="url(#f1jnffo8dv9h0c)" style="stroke:#000000;stroke-width:1.5;"/><path d="M1539.5,486.5 C1539.5,496.5 1579,496.5 1579,496.5 C1579,496.5 1618.5,496.5 1618.5,486.5 " fill="none" style="stroke:#000000;stroke-width:1.5;"/><text fill="#000000" font-family="sans-serif" font-size="14" lengthAdjust="spacing" textLength="59" x="1549.5" y="515.0332">database</text><!--MD5=[18fc422498c0231d3358fd565a540831]
link CalculateMostEfficientPahtController to UserSession--><path codeLine="60" d="M197.62,284.04 C207.62,329.41 226.54,415.23 237.19,463.58 " fill="none" id="CalculateMostEfficientPahtController-to-UserSession" style="stroke:#A80036;stroke-width:1.0;stroke-dasharray:7.0,7.0;"/><polygon fill="#A80036" points="238.32,468.71,240.2724,459.0566,237.2353,463.8291,232.4629,460.792,238.32,468.71" style="stroke:#A80036;stroke-width:1.0;"/><!--MD5=[59a3926ef90478f0771ee20911a14f09]
link CalculateMostEfficientPahtUI to CalculateMostEfficientPahtController--><path codeLine="61" d="M191,110.29 C191,138.03 191,184.65 191,216.8 " fill="none" id="CalculateMostEfficientPahtUI-to-CalculateMostEfficientPahtController" style="stroke:#A80036;stroke-width:1.0;stroke-dasharray:7.0,7.0;"/><polygon fill="#A80036" points="191,221.83,195,212.83,191,216.83,187,212.83,191,221.83" style="stroke:#A80036;stroke-width:1.0;"/><!--MD5=[a2bc9061dc213373e9f51b4b6bc089f3]
link CalculateMostEfficientPahtController to ApplicationPOT--><path codeLine="62" d="M178.62,284.04 C160.7,327.49 127.5,408.04 107.21,457.24 " fill="none" id="CalculateMostEfficientPahtController-to-ApplicationPOT" style="stroke:#A80036;stroke-width:1.0;stroke-dasharray:7.0,7.0;"/><polygon fill="#A80036" points="105.29,461.91,112.4081,455.1032,107.1887,457.2845,105.0073,452.0652,105.29,461.91" style="stroke:#A80036;stroke-width:1.0;"/><!--MD5=[6fc40e9020b985e20f28d79354a8fd52]
link CalculateMostEfficientPahtController to DeliveryRunService--><path codeLine="63" d="M307.11,261.84 C464.23,274 734.94,300.96 822,347 C867.56,371.09 906.08,416.01 931.1,450.8 " fill="none" id="CalculateMostEfficientPahtController-to-DeliveryRunService" style="stroke:#A80036;stroke-width:1.0;stroke-dasharray:7.0,7.0;"/><polygon fill="#A80036" points="934.09,454.99,932.1266,445.3388,931.1892,450.9175,925.6106,449.9801,934.09,454.99" style="stroke:#A80036;stroke-width:1.0;"/><!--MD5=[8e09015b00e7d26f702e8314ea43b90d]
link DeliveryRunService to DeliveryRunDB--><path codeLine="64" d="M1098.09,500 C1122.57,500 1148.13,500 1172.74,500 " fill="none" id="DeliveryRunService-to-DeliveryRunDB" style="stroke:#A80036;stroke-width:1.0;"/><polygon fill="#A80036" points="1177.98,500,1168.98,496,1172.98,500,1168.98,504,1177.98,500" style="stroke:#A80036;stroke-width:1.0;"/><text fill="#000000" font-family="sans-serif" font-size="13" lengthAdjust="spacing" textLength="21" x="1127.5" y="493.4951">has</text><!--MD5=[a3f0b4e3d77545db9a818cb88a127818]
link DeliveryRunService to Address--><path codeLine="65" d="M825.8,500 C807.76,500 788.96,500 770.08,500 " fill="none" id="DeliveryRunService-to-Address" style="stroke:#A80036;stroke-width:1.0;"/><polygon fill="#A80036" points="764.75,500,773.75,504,769.75,500,773.75,496,764.75,500" style="stroke:#A80036;stroke-width:1.0;"/><text fill="#000000" font-family="sans-serif" font-size="13" lengthAdjust="spacing" textLength="25" x="782.75" y="493.4951">gets</text><text fill="#000000" font-family="sans-serif" font-size="13" lengthAdjust="spacing" textLength="7" x="811.1602" y="497.0807">1</text><text fill="#000000" font-family="sans-serif" font-size="13" lengthAdjust="spacing" textLength="7" x="772.7285" y="497.1988">1</text><!--MD5=[d08e84f5e4a674503c50c807922733bf]
link DeliveryRunDB to database--><path codeLine="66" d="M1450.38,500 C1480.68,500 1510.71,500 1534.13,500 " fill="none" id="DeliveryRunDB-to-database" style="stroke:#A80036;stroke-width:1.0;"/><polygon fill="#A80036" points="1539.32,500,1530.32,496,1534.32,500,1530.32,504,1539.32,500" style="stroke:#A80036;stroke-width:1.0;"/><text fill="#000000" font-family="sans-serif" font-size="13" lengthAdjust="spacing" textLength="53" x="1468.25" y="493.4951">manages</text><!--MD5=[f10718be10e84828a30878701a9de11a]
link database to Address--><path codeLine="67" d="M1569.07,476.37 C1553.34,442.42 1519.13,381.14 1468,356 C1402.39,323.74 880.56,336.87 810,356 C767.55,367.51 724.92,388.39 687.35,410.74 " fill="none" id="database-to-Address" style="stroke:#A80036;stroke-width:1.0;"/><polygon fill="#A80036" points="682.79,413.47,692.5654,412.2695,687.0775,410.8975,688.4495,405.4096,682.79,413.47" style="stroke:#A80036;stroke-width:1.0;"/><text fill="#000000" font-family="sans-serif" font-size="13" lengthAdjust="spacing" textLength="21" x="1025.5" y="335.4951">has</text><!--MD5=[cdb9bbb74957a692bceb8c72ed2ae8d3]
reverse link DataHandler to DeliveryRunDB--><path d="M1314,311.3 C1314,355.11 1314,414.62 1314,454.79 " fill="none" id="DataHandler-backto-DeliveryRunDB" style="stroke:#A80036;stroke-width:1.0;"/><polygon fill="none" points="1307,311.21,1314,291.21,1321,311.21,1307,311.21" style="stroke:#A80036;stroke-width:1.0;"/><!--MD5=[0fa2104c8fb818a16933393454836f25]
@startuml
skinparam classAttributeIconSize 0


package "UI" #DDDDDD {
class CalculateMostEfficientPahtUI{

}
}
package "Controller" #DDDDDD {
class CalculateMostEfficientPahtController{
+getShortestPath()
}
class ApplicationPOT
{
  +static getInstance()
    +getCurrentSession()
}
class UserSession
{
  +getCurrentUserEmail()
}
}
package "Model" #DDDDDD {

class Address{
-Integer id
-Double latitude
-Double longitude
-String streetName
-String doorNumber
-String postalCode
-String locality
-String country
+Address(latitude,longitude,streetName,doorNumber,postalCode,locality,country)
}
package Service #DDDDDD {

class DeliveryRunService{
+DeliveryRunService()
+getAddressesByDeliveryRunId(email)
+calculateMostEfficientPath(addressA, addressB, list)
}

}
}
package "Data" #DDDDDD {
class DataHandler{
+openConnection()
+closeAll()
}

 class DeliveryRunDB{
 +DeliveryRunDB()
 +getAddressesByDeliveryRunId(email)
 +calculateMostEfficientPath(addressA, addressB, list)
 }
 database database{
 }
 }
CalculateMostEfficientPahtController ..> UserSession
CalculateMostEfficientPahtUI ..> CalculateMostEfficientPahtController
CalculateMostEfficientPahtController ..> ApplicationPOT
CalculateMostEfficientPahtController ..> DeliveryRunService
DeliveryRunService  ->  DeliveryRunDB : has
DeliveryRunService "1" -> "1" Address : gets
DeliveryRunDB -> database : manages
database ->Address : has
class DeliveryRunDB extends DataHandler

@enduml

PlantUML version 1.2021.00(Sun Jan 10 10:25:05 GMT 2021)
(GPL source distribution)
Java Runtime: OpenJDK Runtime Environment
JVM: OpenJDK 64-Bit Server VM
Default Encoding: Cp1252
Language: pt
Country: PT
--></g></svg>