<?xml version="1.0" encoding="UTF-8" standalone="no"?><svg xmlns="http://www.w3.org/2000/svg" xmlns:xlink="http://www.w3.org/1999/xlink" contentScriptType="application/ecmascript" contentStyleType="text/css" height="1157px" preserveAspectRatio="none" style="width:1286px;height:1157px;" version="1.1" viewBox="0 0 1286 1157" width="1286px" zoomAndPan="magnify"><defs><filter height="300%" id="flsb32l91i2kj" width="300%" x="-1" y="-1"><feGaussianBlur result="blurOut" stdDeviation="2.0"/><feColorMatrix in="blurOut" result="blurOut2" type="matrix" values="0 0 0 0 0 0 0 0 0 0 0 0 0 0 0 0 0 0 .4 0"/><feOffset dx="4.0" dy="4.0" in="blurOut2" result="blurOut3"/><feBlend in="SourceGraphic" in2="blurOut3" mode="normal"/></filter></defs><g><!--MD5=[9681dc6e01e10c6b4fe06895ae94f592]
cluster UI--><polygon fill="#DDDDDD" filter="url(#flsb32l91i2kj)" points="576,24,596,24,603,47.6094,752,47.6094,752,144,576,144,576,24" style="stroke: #000000; stroke-width: 1.5;"/><line style="stroke: #000000; stroke-width: 1.5;" x1="576" x2="603" y1="47.6094" y2="47.6094"/><text fill="#000000" font-family="sans-serif" font-size="14" font-weight="bold" lengthAdjust="spacingAndGlyphs" textLength="14" x="580" y="40.5332">UI</text><!--MD5=[1f2cfc53d9d308f53762fd0fcbaa4873]
cluster Controller--><polygon fill="#DDDDDD" filter="url(#flsb32l91i2kj)" points="512,177,589,177,596,200.6094,816,200.6094,816,544,512,544,512,177" style="stroke: #000000; stroke-width: 1.5;"/><line style="stroke: #000000; stroke-width: 1.5;" x1="512" x2="596" y1="200.6094" y2="200.6094"/><text fill="#000000" font-family="sans-serif" font-size="14" font-weight="bold" lengthAdjust="spacingAndGlyphs" textLength="71" x="516" y="193.5332">Controller</text><!--MD5=[15636c1ca4a123c16a2a1a8e90aca7a9]
cluster Model--><polygon fill="#DDDDDD" filter="url(#flsb32l91i2kj)" points="22,359,72,359,79,382.6094,488,382.6094,488,1145,22,1145,22,359" style="stroke: #000000; stroke-width: 1.5;"/><line style="stroke: #000000; stroke-width: 1.5;" x1="22" x2="79" y1="382.6094" y2="382.6094"/><text fill="#000000" font-family="sans-serif" font-size="14" font-weight="bold" lengthAdjust="spacingAndGlyphs" textLength="44" x="26" y="375.5332">Model</text><!--MD5=[9dd75fd92da113d30380b27734fd2f01]
cluster Service--><polygon fill="#DDDDDD" filter="url(#flsb32l91i2kj)" points="130,403,190,403,197,426.6094,464,426.6094,464,537,130,537,130,403" style="stroke: #000000; stroke-width: 1.5;"/><line style="stroke: #000000; stroke-width: 1.5;" x1="130" x2="197" y1="426.6094" y2="426.6094"/><text fill="#000000" font-family="sans-serif" font-size="14" font-weight="bold" lengthAdjust="spacingAndGlyphs" textLength="54" x="134" y="419.5332">Service</text><!--MD5=[f21b1f164e99c6b37934f23ad048ad54]
cluster Data--><polygon fill="#DDDDDD" filter="url(#flsb32l91i2kj)" points="930,396,967,396,974,419.6094,1264,419.6094,1264,713.5,930,713.5,930,396" style="stroke: #000000; stroke-width: 1.5;"/><line style="stroke: #000000; stroke-width: 1.5;" x1="930" x2="974" y1="419.6094" y2="419.6094"/><text fill="#000000" font-family="sans-serif" font-size="14" font-weight="bold" lengthAdjust="spacingAndGlyphs" textLength="31" x="934" y="412.5332">Data</text><!--MD5=[da0eded3ac63ec22007033aea4e0958a]
class FinishDeliveryRunUI--><rect fill="#FEFECE" filter="url(#flsb32l91i2kj)" height="48" id="FinishDeliveryRunUI" style="stroke: #A80036; stroke-width: 1.5;" width="144" x="592" y="80"/><ellipse cx="607" cy="96" fill="#ADD1B2" rx="11" ry="11" style="stroke: #A80036; stroke-width: 1.0;"/><path d="M609,92.5 Q609.2031,92 609.4375,91.75 Q609.6719,91.5 609.9375,91.5 Q610.4063,91.5 610.7031,91.7813 Q611,92.0625 611,92.7188 L611,94.2813 Q611,94.9375 610.7188,95.2188 Q610.4375,95.5 610,95.5 Q609.6094,95.5 609.3594,95.3281 Q609.1094,95.1563 609,94.7031 Q608.9531,94.3906 608.7813,94.2188 Q608.4688,93.8906 607.9063,93.7031 Q607.3438,93.5 606.7813,93.5 Q606.0781,93.5 605.4844,93.7813 Q604.9063,94.0625 604.4531,94.6875 Q604,95.3125 604,96.1719 L604,97.0938 Q604,98.125 604.8438,98.8125 Q605.6875,99.5 607.1875,99.5 Q608.0781,99.5 608.7031,99.2969 Q609.0625,99.1875 609.4688,98.8281 Q609.7344,98.625 609.875,98.5625 Q610.0156,98.5 610.1875,98.5 Q610.5156,98.5 610.75,98.7656 Q611,99.0156 611,99.375 Q611,99.7188 610.6563,100.125 Q610.1563,100.7188 609.3594,101.0469 Q608.3125,101.5 607.0313,101.5 Q605.5313,101.5 604.3281,100.9063 Q603.3594,100.4375 602.6719,99.4219 Q602,98.4063 602,97.2031 L602,96.1094 Q602,94.8594 602.5938,93.7656 Q603.2031,92.6719 604.25,92.0938 Q605.3125,91.5 606.5,91.5 Q607.2188,91.5 607.8438,91.75 Q608.4688,92 609,92.5 Z "/><text fill="#000000" font-family="sans-serif" font-size="12" lengthAdjust="spacingAndGlyphs" textLength="112" x="621" y="100.9102">FinishDeliveryRunUI</text><line style="stroke: #A80036; stroke-width: 1.5;" x1="593" x2="735" y1="112" y2="112"/><line style="stroke: #A80036; stroke-width: 1.5;" x1="593" x2="735" y1="120" y2="120"/><!--MD5=[2645dc4ac75fca030c5915f8262d04ce]
class FinishDeliveryRunController--><rect fill="#FEFECE" filter="url(#flsb32l91i2kj)" height="61.8359" id="FinishDeliveryRunController" style="stroke: #A80036; stroke-width: 1.5;" width="271" x="528.5" y="233"/><ellipse cx="582.75" cy="249" fill="#ADD1B2" rx="11" ry="11" style="stroke: #A80036; stroke-width: 1.0;"/><path d="M584.75,245.5 Q584.9531,245 585.1875,244.75 Q585.4219,244.5 585.6875,244.5 Q586.1563,244.5 586.4531,244.7813 Q586.75,245.0625 586.75,245.7188 L586.75,247.2813 Q586.75,247.9375 586.4688,248.2188 Q586.1875,248.5 585.75,248.5 Q585.3594,248.5 585.1094,248.3281 Q584.8594,248.1563 584.75,247.7031 Q584.7031,247.3906 584.5313,247.2188 Q584.2188,246.8906 583.6563,246.7031 Q583.0938,246.5 582.5313,246.5 Q581.8281,246.5 581.2344,246.7813 Q580.6563,247.0625 580.2031,247.6875 Q579.75,248.3125 579.75,249.1719 L579.75,250.0938 Q579.75,251.125 580.5938,251.8125 Q581.4375,252.5 582.9375,252.5 Q583.8281,252.5 584.4531,252.2969 Q584.8125,252.1875 585.2188,251.8281 Q585.4844,251.625 585.625,251.5625 Q585.7656,251.5 585.9375,251.5 Q586.2656,251.5 586.5,251.7656 Q586.75,252.0156 586.75,252.375 Q586.75,252.7188 586.4063,253.125 Q585.9063,253.7188 585.1094,254.0469 Q584.0625,254.5 582.7813,254.5 Q581.2813,254.5 580.0781,253.9063 Q579.1094,253.4375 578.4219,252.4219 Q577.75,251.4063 577.75,250.2031 L577.75,249.1094 Q577.75,247.8594 578.3438,246.7656 Q578.9531,245.6719 580,245.0938 Q581.0625,244.5 582.25,244.5 Q582.9688,244.5 583.5938,244.75 Q584.2188,245 584.75,245.5 Z "/><text fill="#000000" font-family="sans-serif" font-size="12" lengthAdjust="spacingAndGlyphs" textLength="154" x="603.25" y="253.9102">FinishDeliveryRunController</text><line style="stroke: #A80036; stroke-width: 1.5;" x1="529.5" x2="798.5" y1="265" y2="265"/><line style="stroke: #A80036; stroke-width: 1.5;" x1="529.5" x2="798.5" y1="273" y2="273"/><text fill="#000000" font-family="sans-serif" font-size="11" lengthAdjust="spacingAndGlyphs" textLength="259" x="534.5" y="288.4189">+finishDeliveryRun(deliveryRunID, batteryPercentage)</text><!--MD5=[e45a4727c47b726c25e081782e8bc183]
class ApplicationPOT--><rect fill="#FEFECE" filter="url(#flsb32l91i2kj)" height="75.6719" id="ApplicationPOT" style="stroke: #A80036; stroke-width: 1.5;" width="124" x="602" y="452"/><ellipse cx="620.6" cy="468" fill="#ADD1B2" rx="11" ry="11" style="stroke: #A80036; stroke-width: 1.0;"/><path d="M622.6,464.5 Q622.8031,464 623.0375,463.75 Q623.2719,463.5 623.5375,463.5 Q624.0063,463.5 624.3031,463.7813 Q624.6,464.0625 624.6,464.7188 L624.6,466.2813 Q624.6,466.9375 624.3188,467.2188 Q624.0375,467.5 623.6,467.5 Q623.2094,467.5 622.9594,467.3281 Q622.7094,467.1563 622.6,466.7031 Q622.5531,466.3906 622.3813,466.2188 Q622.0688,465.8906 621.5063,465.7031 Q620.9438,465.5 620.3813,465.5 Q619.6781,465.5 619.0844,465.7813 Q618.5063,466.0625 618.0531,466.6875 Q617.6,467.3125 617.6,468.1719 L617.6,469.0938 Q617.6,470.125 618.4438,470.8125 Q619.2875,471.5 620.7875,471.5 Q621.6781,471.5 622.3031,471.2969 Q622.6625,471.1875 623.0688,470.8281 Q623.3344,470.625 623.475,470.5625 Q623.6156,470.5 623.7875,470.5 Q624.1156,470.5 624.35,470.7656 Q624.6,471.0156 624.6,471.375 Q624.6,471.7188 624.2563,472.125 Q623.7563,472.7188 622.9594,473.0469 Q621.9125,473.5 620.6313,473.5 Q619.1313,473.5 617.9281,472.9063 Q616.9594,472.4375 616.2719,471.4219 Q615.6,470.4063 615.6,469.2031 L615.6,468.1094 Q615.6,466.8594 616.1938,465.7656 Q616.8031,464.6719 617.85,464.0938 Q618.9125,463.5 620.1,463.5 Q620.8188,463.5 621.4438,463.75 Q622.0688,464 622.6,464.5 Z "/><text fill="#000000" font-family="sans-serif" font-size="12" lengthAdjust="spacingAndGlyphs" textLength="84" x="635.4" y="472.9102">ApplicationPOT</text><line style="stroke: #A80036; stroke-width: 1.5;" x1="603" x2="725" y1="484" y2="484"/><line style="stroke: #A80036; stroke-width: 1.5;" x1="603" x2="725" y1="492" y2="492"/><text fill="#000000" font-family="sans-serif" font-size="11" lengthAdjust="spacingAndGlyphs" textLength="99" x="608" y="507.4189">+static getInstance()</text><text fill="#000000" font-family="sans-serif" font-size="11" lengthAdjust="spacingAndGlyphs" textLength="112" x="608" y="521.2549">+getCurrentUserEmail()</text><!--MD5=[3fd616f346a44cd59a91eb10b19e157c]
class User--><rect fill="#FEFECE" filter="url(#flsb32l91i2kj)" height="117.1797" id="User" style="stroke: #A80036; stroke-width: 1.5;" width="97" x="38.5" y="608"/><ellipse cx="71.05" cy="624" fill="#A9DCDF" rx="11" ry="11" style="stroke: #A80036; stroke-width: 1.0;"/><path d="M72.8,625.5 L69.5031,625.5 L69.0656,626.5 L69.0656,626.5 L69.5344,626.5 L70.05,627.125 L70.05,627.5 L70.05,627.875 L69.5344,628.5 L69.0656,628.5 L67.175,628.5 L66.5656,628.5 L66.05,627.875 L66.05,627.5 L66.05,627.125 L66.5656,626.5 L67.175,626.5 L69.4875,620.5 L68.6125,620.5 L67.5656,620.5 L67.05,619.875 L67.05,619.5 L67.05,619.125 L67.5656,618.5 L68.6125,618.5 L72.2844,618.5 L74.9719,626.5 L75.5344,626.5 L75.5344,626.5 L76.05,627.125 L76.05,627.5 L76.05,627.875 L75.5344,628.5 L74.9719,628.5 L73.0813,628.5 L72.5656,628.5 L72.05,627.875 L72.05,627.5 L72.05,627.125 L72.5656,626.5 L73.0813,626.5 L73.0813,626.5 L72.8,625.5 Z M72.2531,623.5 L71.05,619.9219 L70.0188,623.5 L72.2531,623.5 Z "/><text fill="#000000" font-family="sans-serif" font-size="12" font-style="italic" lengthAdjust="spacingAndGlyphs" textLength="26" x="88.95" y="628.9102">User</text><line style="stroke: #A80036; stroke-width: 1.5;" x1="39.5" x2="134.5" y1="640" y2="640"/><text fill="#000000" font-family="sans-serif" font-size="11" lengthAdjust="spacingAndGlyphs" textLength="48" x="44.5" y="655.4189">-Integer id</text><text fill="#000000" font-family="sans-serif" font-size="11" lengthAdjust="spacingAndGlyphs" textLength="59" x="44.5" y="669.2549">-String email</text><text fill="#000000" font-family="sans-serif" font-size="11" lengthAdjust="spacingAndGlyphs" textLength="85" x="44.5" y="683.0908">-String password</text><text fill="#000000" font-family="sans-serif" font-size="11" lengthAdjust="spacingAndGlyphs" textLength="61" x="44.5" y="696.9268">-String name</text><text fill="#000000" font-family="sans-serif" font-size="11" lengthAdjust="spacingAndGlyphs" textLength="52" x="44.5" y="710.7627">-Integer nif</text><line style="stroke: #A80036; stroke-width: 1.5;" x1="39.5" x2="134.5" y1="717.1797" y2="717.1797"/><!--MD5=[c6a2171c11447acbe08a3dfeee0e1710]
class Courier--><rect fill="#FEFECE" filter="url(#flsb32l91i2kj)" height="61.8359" id="Courier" style="stroke: #A80036; stroke-width: 1.5;" width="73" x="38.5" y="459"/><ellipse cx="53.5" cy="475" fill="#ADD1B2" rx="11" ry="11" style="stroke: #A80036; stroke-width: 1.0;"/><path d="M55.5,471.5 Q55.7031,471 55.9375,470.75 Q56.1719,470.5 56.4375,470.5 Q56.9063,470.5 57.2031,470.7813 Q57.5,471.0625 57.5,471.7188 L57.5,473.2813 Q57.5,473.9375 57.2188,474.2188 Q56.9375,474.5 56.5,474.5 Q56.1094,474.5 55.8594,474.3281 Q55.6094,474.1563 55.5,473.7031 Q55.4531,473.3906 55.2813,473.2188 Q54.9688,472.8906 54.4063,472.7031 Q53.8438,472.5 53.2813,472.5 Q52.5781,472.5 51.9844,472.7813 Q51.4063,473.0625 50.9531,473.6875 Q50.5,474.3125 50.5,475.1719 L50.5,476.0938 Q50.5,477.125 51.3438,477.8125 Q52.1875,478.5 53.6875,478.5 Q54.5781,478.5 55.2031,478.2969 Q55.5625,478.1875 55.9688,477.8281 Q56.2344,477.625 56.375,477.5625 Q56.5156,477.5 56.6875,477.5 Q57.0156,477.5 57.25,477.7656 Q57.5,478.0156 57.5,478.375 Q57.5,478.7188 57.1563,479.125 Q56.6563,479.7188 55.8594,480.0469 Q54.8125,480.5 53.5313,480.5 Q52.0313,480.5 50.8281,479.9063 Q49.8594,479.4375 49.1719,478.4219 Q48.5,477.4063 48.5,476.2031 L48.5,475.1094 Q48.5,473.8594 49.0938,472.7656 Q49.7031,471.6719 50.75,471.0938 Q51.8125,470.5 53,470.5 Q53.7188,470.5 54.3438,470.75 Q54.9688,471 55.5,471.5 Z "/><text fill="#000000" font-family="sans-serif" font-size="12" lengthAdjust="spacingAndGlyphs" textLength="41" x="67.5" y="479.9102">Courier</text><line style="stroke: #A80036; stroke-width: 1.5;" x1="39.5" x2="110.5" y1="491" y2="491"/><text fill="#000000" font-family="sans-serif" font-size="11" lengthAdjust="spacingAndGlyphs" textLength="55" x="44.5" y="506.4189">-String iban</text><line style="stroke: #A80036; stroke-width: 1.5;" x1="39.5" x2="110.5" y1="512.8359" y2="512.8359"/><!--MD5=[30da194321b846ed0272a2c085d943b8]
class DeliveryRun--><rect fill="#FEFECE" filter="url(#flsb32l91i2kj)" height="61.8359" id="DeliveryRun" style="stroke: #A80036; stroke-width: 1.5;" width="98" x="264" y="635.5"/><ellipse cx="279" cy="651.5" fill="#ADD1B2" rx="11" ry="11" style="stroke: #A80036; stroke-width: 1.0;"/><path d="M281,648 Q281.2031,647.5 281.4375,647.25 Q281.6719,647 281.9375,647 Q282.4063,647 282.7031,647.2813 Q283,647.5625 283,648.2188 L283,649.7813 Q283,650.4375 282.7188,650.7188 Q282.4375,651 282,651 Q281.6094,651 281.3594,650.8281 Q281.1094,650.6563 281,650.2031 Q280.9531,649.8906 280.7813,649.7188 Q280.4688,649.3906 279.9063,649.2031 Q279.3438,649 278.7813,649 Q278.0781,649 277.4844,649.2813 Q276.9063,649.5625 276.4531,650.1875 Q276,650.8125 276,651.6719 L276,652.5938 Q276,653.625 276.8438,654.3125 Q277.6875,655 279.1875,655 Q280.0781,655 280.7031,654.7969 Q281.0625,654.6875 281.4688,654.3281 Q281.7344,654.125 281.875,654.0625 Q282.0156,654 282.1875,654 Q282.5156,654 282.75,654.2656 Q283,654.5156 283,654.875 Q283,655.2188 282.6563,655.625 Q282.1563,656.2188 281.3594,656.5469 Q280.3125,657 279.0313,657 Q277.5313,657 276.3281,656.4063 Q275.3594,655.9375 274.6719,654.9219 Q274,653.9063 274,652.7031 L274,651.6094 Q274,650.3594 274.5938,649.2656 Q275.2031,648.1719 276.25,647.5938 Q277.3125,647 278.5,647 Q279.2188,647 279.8438,647.25 Q280.4688,647.5 281,648 Z "/><text fill="#000000" font-family="sans-serif" font-size="12" lengthAdjust="spacingAndGlyphs" textLength="66" x="293" y="656.4102">DeliveryRun</text><line style="stroke: #A80036; stroke-width: 1.5;" x1="265" x2="361" y1="667.5" y2="667.5"/><text fill="#000000" font-family="sans-serif" font-size="11" lengthAdjust="spacingAndGlyphs" textLength="48" x="270" y="682.9189">-Integer id</text><line style="stroke: #A80036; stroke-width: 1.5;" x1="265" x2="361" y1="689.3359" y2="689.3359"/><!--MD5=[3aa0d89c6bfdcbf7f32042cedac57549]
class Vehicle--><rect fill="#FEFECE" filter="url(#flsb32l91i2kj)" height="144.8516" id="Vehicle" style="stroke: #A80036; stroke-width: 1.5;" width="114" x="256" y="803"/><ellipse cx="289.9" cy="819" fill="#ADD1B2" rx="11" ry="11" style="stroke: #A80036; stroke-width: 1.0;"/><path d="M291.9,815.5 Q292.1031,815 292.3375,814.75 Q292.5719,814.5 292.8375,814.5 Q293.3063,814.5 293.6031,814.7813 Q293.9,815.0625 293.9,815.7188 L293.9,817.2813 Q293.9,817.9375 293.6188,818.2188 Q293.3375,818.5 292.9,818.5 Q292.5094,818.5 292.2594,818.3281 Q292.0094,818.1563 291.9,817.7031 Q291.8531,817.3906 291.6813,817.2188 Q291.3688,816.8906 290.8063,816.7031 Q290.2438,816.5 289.6813,816.5 Q288.9781,816.5 288.3844,816.7813 Q287.8063,817.0625 287.3531,817.6875 Q286.9,818.3125 286.9,819.1719 L286.9,820.0938 Q286.9,821.125 287.7438,821.8125 Q288.5875,822.5 290.0875,822.5 Q290.9781,822.5 291.6031,822.2969 Q291.9625,822.1875 292.3688,821.8281 Q292.6344,821.625 292.775,821.5625 Q292.9156,821.5 293.0875,821.5 Q293.4156,821.5 293.65,821.7656 Q293.9,822.0156 293.9,822.375 Q293.9,822.7188 293.5563,823.125 Q293.0563,823.7188 292.2594,824.0469 Q291.2125,824.5 289.9313,824.5 Q288.4313,824.5 287.2281,823.9063 Q286.2594,823.4375 285.5719,822.4219 Q284.9,821.4063 284.9,820.2031 L284.9,819.1094 Q284.9,817.8594 285.4938,816.7656 Q286.1031,815.6719 287.15,815.0938 Q288.2125,814.5 289.4,814.5 Q290.1188,814.5 290.7438,814.75 Q291.3688,815 291.9,815.5 Z "/><text fill="#000000" font-family="sans-serif" font-size="12" lengthAdjust="spacingAndGlyphs" textLength="40" x="308.1" y="823.9102">Vehicle</text><line style="stroke: #A80036; stroke-width: 1.5;" x1="257" x2="369" y1="835" y2="835"/><text fill="#000000" font-family="sans-serif" font-size="11" lengthAdjust="spacingAndGlyphs" textLength="26" x="262" y="850.4189">-int id</text><text fill="#000000" font-family="sans-serif" font-size="11" lengthAdjust="spacingAndGlyphs" textLength="84" x="262" y="864.2549">-float batteryPerc</text><text fill="#000000" font-family="sans-serif" font-size="11" lengthAdjust="spacingAndGlyphs" textLength="102" x="262" y="878.0908">-String charginStatus</text><text fill="#000000" font-family="sans-serif" font-size="11" lengthAdjust="spacingAndGlyphs" textLength="67" x="262" y="891.9268">-float potency</text><text fill="#000000" font-family="sans-serif" font-size="11" lengthAdjust="spacingAndGlyphs" textLength="61" x="262" y="905.7627">-float weight</text><text fill="#000000" font-family="sans-serif" font-size="11" lengthAdjust="spacingAndGlyphs" textLength="94" x="262" y="919.5986">-int batteryCapacity</text><text fill="#000000" font-family="sans-serif" font-size="11" lengthAdjust="spacingAndGlyphs" textLength="86" x="262" y="933.4346">-float maxPayload</text><line style="stroke: #A80036; stroke-width: 1.5;" x1="257" x2="369" y1="939.8516" y2="939.8516"/><!--MD5=[79eb2d862cef9730b5f9dcab29e35f17]
class Battery--><rect fill="#FEFECE" filter="url(#flsb32l91i2kj)" height="103.3438" id="Battery" style="stroke: #A80036; stroke-width: 1.5;" width="129" x="248.5" y="1026"/><ellipse cx="290.5" cy="1042" fill="#ADD1B2" rx="11" ry="11" style="stroke: #A80036; stroke-width: 1.0;"/><path d="M292.5,1038.5 Q292.7031,1038 292.9375,1037.75 Q293.1719,1037.5 293.4375,1037.5 Q293.9063,1037.5 294.2031,1037.7813 Q294.5,1038.0625 294.5,1038.7188 L294.5,1040.2813 Q294.5,1040.9375 294.2188,1041.2188 Q293.9375,1041.5 293.5,1041.5 Q293.1094,1041.5 292.8594,1041.3281 Q292.6094,1041.1563 292.5,1040.7031 Q292.4531,1040.3906 292.2813,1040.2188 Q291.9688,1039.8906 291.4063,1039.7031 Q290.8438,1039.5 290.2813,1039.5 Q289.5781,1039.5 288.9844,1039.7813 Q288.4063,1040.0625 287.9531,1040.6875 Q287.5,1041.3125 287.5,1042.1719 L287.5,1043.0938 Q287.5,1044.125 288.3438,1044.8125 Q289.1875,1045.5 290.6875,1045.5 Q291.5781,1045.5 292.2031,1045.2969 Q292.5625,1045.1875 292.9688,1044.8281 Q293.2344,1044.625 293.375,1044.5625 Q293.5156,1044.5 293.6875,1044.5 Q294.0156,1044.5 294.25,1044.7656 Q294.5,1045.0156 294.5,1045.375 Q294.5,1045.7188 294.1563,1046.125 Q293.6563,1046.7188 292.8594,1047.0469 Q291.8125,1047.5 290.5313,1047.5 Q289.0313,1047.5 287.8281,1046.9063 Q286.8594,1046.4375 286.1719,1045.4219 Q285.5,1044.4063 285.5,1043.2031 L285.5,1042.1094 Q285.5,1040.8594 286.0938,1039.7656 Q286.7031,1038.6719 287.75,1038.0938 Q288.8125,1037.5 290,1037.5 Q290.7188,1037.5 291.3438,1037.75 Q291.9688,1038 292.5,1038.5 Z "/><text fill="#000000" font-family="sans-serif" font-size="12" lengthAdjust="spacingAndGlyphs" textLength="37" x="310.5" y="1046.9102">Battery</text><line style="stroke: #A80036; stroke-width: 1.5;" x1="249.5" x2="376.5" y1="1058" y2="1058"/><text fill="#000000" font-family="sans-serif" font-size="11" lengthAdjust="spacingAndGlyphs" textLength="26" x="254.5" y="1073.4189">-int id</text><text fill="#000000" font-family="sans-serif" font-size="11" lengthAdjust="spacingAndGlyphs" textLength="117" x="254.5" y="1087.2549">-float batteryPercentage</text><text fill="#000000" font-family="sans-serif" font-size="11" lengthAdjust="spacingAndGlyphs" textLength="94" x="254.5" y="1101.0908">-int batteryCapacity</text><text fill="#000000" font-family="sans-serif" font-size="11" lengthAdjust="spacingAndGlyphs" textLength="99" x="254.5" y="1114.9268">-float batteryVoltage</text><line style="stroke: #A80036; stroke-width: 1.5;" x1="249.5" x2="376.5" y1="1121.3438" y2="1121.3438"/><!--MD5=[a737da5453cdca5d1b508e41d49c1154]
class DeliveryRunService--><rect fill="#FEFECE" filter="url(#flsb32l91i2kj)" height="61.8359" id="DeliveryRunService" style="stroke: #A80036; stroke-width: 1.5;" width="301" x="146.5" y="459"/><ellipse cx="239.75" cy="475" fill="#ADD1B2" rx="11" ry="11" style="stroke: #A80036; stroke-width: 1.0;"/><path d="M241.75,471.5 Q241.9531,471 242.1875,470.75 Q242.4219,470.5 242.6875,470.5 Q243.1563,470.5 243.4531,470.7813 Q243.75,471.0625 243.75,471.7188 L243.75,473.2813 Q243.75,473.9375 243.4688,474.2188 Q243.1875,474.5 242.75,474.5 Q242.3594,474.5 242.1094,474.3281 Q241.8594,474.1563 241.75,473.7031 Q241.7031,473.3906 241.5313,473.2188 Q241.2188,472.8906 240.6563,472.7031 Q240.0938,472.5 239.5313,472.5 Q238.8281,472.5 238.2344,472.7813 Q237.6563,473.0625 237.2031,473.6875 Q236.75,474.3125 236.75,475.1719 L236.75,476.0938 Q236.75,477.125 237.5938,477.8125 Q238.4375,478.5 239.9375,478.5 Q240.8281,478.5 241.4531,478.2969 Q241.8125,478.1875 242.2188,477.8281 Q242.4844,477.625 242.625,477.5625 Q242.7656,477.5 242.9375,477.5 Q243.2656,477.5 243.5,477.7656 Q243.75,478.0156 243.75,478.375 Q243.75,478.7188 243.4063,479.125 Q242.9063,479.7188 242.1094,480.0469 Q241.0625,480.5 239.7813,480.5 Q238.2813,480.5 237.0781,479.9063 Q236.1094,479.4375 235.4219,478.4219 Q234.75,477.4063 234.75,476.2031 L234.75,475.1094 Q234.75,473.8594 235.3438,472.7656 Q235.9531,471.6719 237,471.0938 Q238.0625,470.5 239.25,470.5 Q239.9688,470.5 240.5938,470.75 Q241.2188,471 241.75,471.5 Z "/><text fill="#000000" font-family="sans-serif" font-size="12" lengthAdjust="spacingAndGlyphs" textLength="106" x="260.25" y="479.9102">DeliveryRunService</text><line style="stroke: #A80036; stroke-width: 1.5;" x1="147.5" x2="446.5" y1="491" y2="491"/><line style="stroke: #A80036; stroke-width: 1.5;" x1="147.5" x2="446.5" y1="499" y2="499"/><text fill="#000000" font-family="sans-serif" font-size="11" lengthAdjust="spacingAndGlyphs" textLength="289" x="152.5" y="514.4189">+finishDeliveryRun(deliveryRunID, batteryPercentage, email)</text><!--MD5=[4b2d61224b33971326a22fe5d809d926]
class DataHandler--><rect fill="#FEFECE" filter="url(#flsb32l91i2kj)" height="75.6719" id="DataHandler" style="stroke: #A80036; stroke-width: 1.5;" width="104" x="1045" y="452"/><ellipse cx="1060.9" cy="468" fill="#ADD1B2" rx="11" ry="11" style="stroke: #A80036; stroke-width: 1.0;"/><path d="M1062.9,464.5 Q1063.1031,464 1063.3375,463.75 Q1063.5719,463.5 1063.8375,463.5 Q1064.3063,463.5 1064.6031,463.7813 Q1064.9,464.0625 1064.9,464.7188 L1064.9,466.2813 Q1064.9,466.9375 1064.6188,467.2188 Q1064.3375,467.5 1063.9,467.5 Q1063.5094,467.5 1063.2594,467.3281 Q1063.0094,467.1563 1062.9,466.7031 Q1062.8531,466.3906 1062.6813,466.2188 Q1062.3688,465.8906 1061.8063,465.7031 Q1061.2438,465.5 1060.6813,465.5 Q1059.9781,465.5 1059.3844,465.7813 Q1058.8063,466.0625 1058.3531,466.6875 Q1057.9,467.3125 1057.9,468.1719 L1057.9,469.0938 Q1057.9,470.125 1058.7438,470.8125 Q1059.5875,471.5 1061.0875,471.5 Q1061.9781,471.5 1062.6031,471.2969 Q1062.9625,471.1875 1063.3688,470.8281 Q1063.6344,470.625 1063.775,470.5625 Q1063.9156,470.5 1064.0875,470.5 Q1064.4156,470.5 1064.65,470.7656 Q1064.9,471.0156 1064.9,471.375 Q1064.9,471.7188 1064.5563,472.125 Q1064.0563,472.7188 1063.2594,473.0469 Q1062.2125,473.5 1060.9313,473.5 Q1059.4313,473.5 1058.2281,472.9063 Q1057.2594,472.4375 1056.5719,471.4219 Q1055.9,470.4063 1055.9,469.2031 L1055.9,468.1094 Q1055.9,466.8594 1056.4938,465.7656 Q1057.1031,464.6719 1058.15,464.0938 Q1059.2125,463.5 1060.4,463.5 Q1061.1188,463.5 1061.7438,463.75 Q1062.3688,464 1062.9,464.5 Z "/><text fill="#000000" font-family="sans-serif" font-size="12" lengthAdjust="spacingAndGlyphs" textLength="70" x="1075.1" y="472.9102">DataHandler</text><line style="stroke: #A80036; stroke-width: 1.5;" x1="1046" x2="1148" y1="484" y2="484"/><line style="stroke: #A80036; stroke-width: 1.5;" x1="1046" x2="1148" y1="492" y2="492"/><text fill="#000000" font-family="sans-serif" font-size="11" lengthAdjust="spacingAndGlyphs" textLength="92" x="1051" y="507.4189">+openConnection()</text><text fill="#000000" font-family="sans-serif" font-size="11" lengthAdjust="spacingAndGlyphs" textLength="52" x="1051" y="521.2549">+closeAll()</text><!--MD5=[9ca1ca07947173ef4f790b05206a7839]
class DeliveryRunDB--><rect fill="#FEFECE" filter="url(#flsb32l91i2kj)" height="61.8359" id="DeliveryRunDB" style="stroke: #A80036; stroke-width: 1.5;" width="301" x="946.5" y="635.5"/><ellipse cx="1051.25" cy="651.5" fill="#ADD1B2" rx="11" ry="11" style="stroke: #A80036; stroke-width: 1.0;"/><path d="M1053.25,648 Q1053.4531,647.5 1053.6875,647.25 Q1053.9219,647 1054.1875,647 Q1054.6563,647 1054.9531,647.2813 Q1055.25,647.5625 1055.25,648.2188 L1055.25,649.7813 Q1055.25,650.4375 1054.9688,650.7188 Q1054.6875,651 1054.25,651 Q1053.8594,651 1053.6094,650.8281 Q1053.3594,650.6563 1053.25,650.2031 Q1053.2031,649.8906 1053.0313,649.7188 Q1052.7188,649.3906 1052.1563,649.2031 Q1051.5938,649 1051.0313,649 Q1050.3281,649 1049.7344,649.2813 Q1049.1563,649.5625 1048.7031,650.1875 Q1048.25,650.8125 1048.25,651.6719 L1048.25,652.5938 Q1048.25,653.625 1049.0938,654.3125 Q1049.9375,655 1051.4375,655 Q1052.3281,655 1052.9531,654.7969 Q1053.3125,654.6875 1053.7188,654.3281 Q1053.9844,654.125 1054.125,654.0625 Q1054.2656,654 1054.4375,654 Q1054.7656,654 1055,654.2656 Q1055.25,654.5156 1055.25,654.875 Q1055.25,655.2188 1054.9063,655.625 Q1054.4063,656.2188 1053.6094,656.5469 Q1052.5625,657 1051.2813,657 Q1049.7813,657 1048.5781,656.4063 Q1047.6094,655.9375 1046.9219,654.9219 Q1046.25,653.9063 1046.25,652.7031 L1046.25,651.6094 Q1046.25,650.3594 1046.8438,649.2656 Q1047.4531,648.1719 1048.5,647.5938 Q1049.5625,647 1050.75,647 Q1051.4688,647 1052.0938,647.25 Q1052.7188,647.5 1053.25,648 Z "/><text fill="#000000" font-family="sans-serif" font-size="12" lengthAdjust="spacingAndGlyphs" textLength="83" x="1071.75" y="656.4102">DeliveryRunDB</text><line style="stroke: #A80036; stroke-width: 1.5;" x1="947.5" x2="1246.5" y1="667.5" y2="667.5"/><line style="stroke: #A80036; stroke-width: 1.5;" x1="947.5" x2="1246.5" y1="675.5" y2="675.5"/><text fill="#000000" font-family="sans-serif" font-size="11" lengthAdjust="spacingAndGlyphs" textLength="289" x="952.5" y="690.9189">+finishDeliveryRun(deliveryRunID, batteryPercentage, email)</text><!--MD5=[fa1e3283224feb76407c84b7e90ed808]
entity Database--><path d="M832.5,476.5 C832.5,466.5 873,466.5 873,466.5 C873,466.5 913.5,466.5 913.5,476.5 L913.5,503.1094 C913.5,513.1094 873,513.1094 873,513.1094 C873,513.1094 832.5,513.1094 832.5,503.1094 L832.5,476.5 " fill="#FFFFFF" filter="url(#flsb32l91i2kj)" style="stroke: #000000; stroke-width: 1.5;"/><path d="M832.5,476.5 C832.5,486.5 873,486.5 873,486.5 C873,486.5 913.5,486.5 913.5,476.5 " fill="none" style="stroke: #000000; stroke-width: 1.5;"/><text fill="#000000" font-family="sans-serif" font-size="14" lengthAdjust="spacingAndGlyphs" textLength="61" x="842.5" y="505.0332">Database</text><!--MD5=[cdb9bbb74957a692bceb8c72ed2ae8d3]
reverse link DataHandler to DeliveryRunDB--><path d="M1097,548.045 C1097,577.102 1097,611.257 1097,635.223 " fill="none" id="DataHandler&lt;-DeliveryRunDB" style="stroke: #A80036; stroke-width: 1.0;"/><polygon fill="none" points="1090,548.007,1097,528.007,1104,548.007,1090,548.007" style="stroke: #A80036; stroke-width: 1.0;"/><!--MD5=[af56636b02fc0a66409860992570a9ee]
link FinishDeliveryRunController to ApplicationPOT--><path d="M664,295.21 C664,334.226 664,402.359 664,446.562 " fill="none" id="FinishDeliveryRunController-&gt;ApplicationPOT" style="stroke: #A80036; stroke-width: 1.0; stroke-dasharray: 7.0,7.0;"/><polygon fill="#A80036" points="664,451.83,668,442.83,664,446.83,660,442.83,664,451.83" style="stroke: #A80036; stroke-width: 1.0;"/><!--MD5=[6a3af62403e3f94f6980d992ba728e37]
link FinishDeliveryRunUI to FinishDeliveryRunController--><path d="M664,128.31 C664,154.52 664,197.373 664,227.694 " fill="none" id="FinishDeliveryRunUI-&gt;FinishDeliveryRunController" style="stroke: #A80036; stroke-width: 1.0; stroke-dasharray: 7.0,7.0;"/><polygon fill="#A80036" points="664,232.825,668,223.825,664,227.825,660,223.825,664,232.825" style="stroke: #A80036; stroke-width: 1.0;"/><!--MD5=[c537656284af498d1121aef8c2906506]
link FinishDeliveryRunController to DeliveryRunService--><path d="M528.422,278.666 C459.551,288.114 385.016,303.007 359,325 C320.781,357.309 306.08,415.764 300.453,453.453 " fill="none" id="FinishDeliveryRunController-&gt;DeliveryRunService" style="stroke: #A80036; stroke-width: 1.0; stroke-dasharray: 7.0,7.0;"/><polygon fill="#A80036" points="299.687,458.858,304.9098,450.508,300.3883,453.9074,296.9889,449.3859,299.687,458.858" style="stroke: #A80036; stroke-width: 1.0;"/><text fill="#000000" font-family="sans-serif" font-size="13" lengthAdjust="spacingAndGlyphs" textLength="21" x="360" y="339.4951">has</text><!--MD5=[8e09015b00e7d26f702e8314ea43b90d]
link DeliveryRunService to DeliveryRunDB--><path d="M396.087,521.012 C432.374,531.5 473.881,542.912 512,552 C656.404,586.428 822.72,617.92 941.016,638.951 " fill="none" id="DeliveryRunService-&gt;DeliveryRunDB" style="stroke: #A80036; stroke-width: 1.0; stroke-dasharray: 7.0,7.0;"/><polygon fill="#A80036" points="946.26,639.882,938.0981,634.3699,941.337,639.0077,936.6992,642.2466,946.26,639.882" style="stroke: #A80036; stroke-width: 1.0;"/><text fill="#000000" font-family="sans-serif" font-size="13" lengthAdjust="spacingAndGlyphs" textLength="21" x="625" y="574.4951">has</text><!--MD5=[80d326aa5e8c3ff3df548bb21a83deb4]
link DeliveryRunDB to Database--><path d="M1046.69,635.442 C1012.4,613.988 966.746,583.464 930,552 C917.735,541.498 905.35,528.584 895.272,517.346 " fill="none" id="DeliveryRunDB-&gt;Database" style="stroke: #A80036; stroke-width: 1.0;"/><polygon fill="#A80036" points="891.947,513.606,894.936,522.9904,895.2686,517.3433,900.9156,517.6759,891.947,513.606" style="stroke: #A80036; stroke-width: 1.0;"/><text fill="#000000" font-family="sans-serif" font-size="13" lengthAdjust="spacingAndGlyphs" textLength="53" x="961" y="574.4951">manages</text><!--MD5=[771c3993b003aea4e1f6128d90cd4122]
link Courier to User--><path d="M77.0902,521.396 C78.7287,545.222 81.0561,579.066 83.0437,607.969 " fill="none" id="Courier-User" style="stroke: #A80036; stroke-width: 1.0;"/><text fill="#000000" font-family="sans-serif" font-size="13" lengthAdjust="spacingAndGlyphs" textLength="43" x="82" y="574.4951">acts as</text><polygon fill="#000000" points="99,583.3516,102,589.3516,105,583.3516,99,583.3516" style="stroke: #000000; stroke-width: 1.0;"/><text fill="#000000" font-family="sans-serif" font-size="13" lengthAdjust="spacingAndGlyphs" textLength="7" x="69.8215" y="542.4501">1</text><text fill="#000000" font-family="sans-serif" font-size="13" lengthAdjust="spacingAndGlyphs" textLength="7" x="75.0884" y="596.9508">1</text><!--MD5=[725fe60627dc131afee2af2d092b220b]
link Courier to DeliveryRun--><path d="M98.084,521.255 C107.217,531.887 118.32,543.332 130,552 C136.705,556.976 139.684,555.975 147,560 C189.483,583.374 235.911,613.278 268.837,635.275 " fill="none" id="Courier-DeliveryRun" style="stroke: #A80036; stroke-width: 1.0;"/><text fill="#000000" font-family="sans-serif" font-size="13" lengthAdjust="spacingAndGlyphs" textLength="39" x="176" y="574.4951">does a</text><polygon fill="#000000" points="218,567.6758,224,570.6758,218,573.6758,218,567.6758" style="stroke: #000000; stroke-width: 1.0;"/><text fill="#000000" font-family="sans-serif" font-size="13" lengthAdjust="spacingAndGlyphs" textLength="7" x="94.8172" y="542.2822">1</text><text fill="#000000" font-family="sans-serif" font-size="13" lengthAdjust="spacingAndGlyphs" textLength="7" x="252.0065" y="624.7331">1</text><!--MD5=[074a56c4439d52c76e1cc7a8f9d070a4]
link Vehicle to Battery--><path d="M313,948.14 C313,973.807 313,1002.192 313,1025.73 " fill="none" id="Vehicle-Battery" style="stroke: #A80036; stroke-width: 1.0;"/><text fill="#000000" font-family="sans-serif" font-size="13" lengthAdjust="spacingAndGlyphs" textLength="32" x="314" y="992.4951">has a</text><polygon fill="#000000" points="325.5,1001.3516,328.5,1007.3516,331.5,1001.3516,325.5,1001.3516" style="stroke: #000000; stroke-width: 1.0;"/><text fill="#000000" font-family="sans-serif" font-size="13" lengthAdjust="spacingAndGlyphs" textLength="7" x="305.6664" y="969.3449">1</text><text fill="#000000" font-family="sans-serif" font-size="13" lengthAdjust="spacingAndGlyphs" textLength="7" x="305.5297" y="1015.194">1</text><!--MD5=[6d5b5abfe722faf0c7b2cb12e8076441]
link DeliveryRun to Vehicle--><path d="M313,697.6 C313,725.072 313,766.758 313,802.765 " fill="none" id="DeliveryRun-Vehicle" style="stroke: #A80036; stroke-width: 1.0;"/><text fill="#000000" font-family="sans-serif" font-size="13" lengthAdjust="spacingAndGlyphs" textLength="32" x="314" y="769.4951">has a</text><polygon fill="#000000" points="325.5,778.3516,328.5,784.3516,331.5,778.3516,325.5,778.3516" style="stroke: #000000; stroke-width: 1.0;"/><text fill="#000000" font-family="sans-serif" font-size="13" lengthAdjust="spacingAndGlyphs" textLength="7" x="305.3109" y="718.8437">1</text><text fill="#000000" font-family="sans-serif" font-size="13" lengthAdjust="spacingAndGlyphs" textLength="7" x="305.6391" y="791.9601">1</text><!--MD5=[1f74e66c977173bcc34c5159ed1c7544]
link Database to Courier--><path d="M870.068,466.29 C864.948,436.309 851.302,385.85 816,363 C752.013,321.582 193.713,321.161 130,363 C97.8654,384.102 84.4147,428.436 78.8455,458.719 " fill="none" id="Database-Courier" style="stroke: #A80036; stroke-width: 1.0;"/><text fill="#000000" font-family="sans-serif" font-size="13" lengthAdjust="spacingAndGlyphs" textLength="82" x="391" y="339.4951">has registered</text><text fill="#000000" font-family="sans-serif" font-size="13" lengthAdjust="spacingAndGlyphs" textLength="7" x="861.4198" y="455.7545">1</text><text fill="#000000" font-family="sans-serif" font-size="13" lengthAdjust="spacingAndGlyphs" textLength="5" x="74.123" y="448.1656">*</text><!--MD5=[1b963c1ada7d76c5fc22ebda70f72c11]
link Database to DeliveryRun--><path d="M857.283,513.673 C847.012,526.804 832.472,542.556 816,552 C666.113,637.941 456.335,658.809 362.162,663.876 " fill="none" id="Database-DeliveryRun" style="stroke: #A80036; stroke-width: 1.0;"/><text fill="#000000" font-family="sans-serif" font-size="13" lengthAdjust="spacingAndGlyphs" textLength="82" x="793" y="574.4951">has registered</text><text fill="#000000" font-family="sans-serif" font-size="13" lengthAdjust="spacingAndGlyphs" textLength="7" x="845.8391" y="534.5783">1</text><text fill="#000000" font-family="sans-serif" font-size="13" lengthAdjust="spacingAndGlyphs" textLength="5" x="370.0727" y="659.7838">*</text><!--MD5=[c7d3fc406cf5e62cf62085099fbfb6bf]
@startuml
skinparam classAttributeIconSize 0

package "UI" #DDDDDD{
class FinishDeliveryRunUI {

}
}
package "Controller" #DDDDDD {
class FinishDeliveryRunController{
+finishDeliveryRun(deliveryRunID, batteryPercentage)
}



class ApplicationPOT
{
  +static getInstance()
  +getCurrentUserEmail()
}
}


package "Model" #DDDDDD {
package "Service" #DDDDDD {
   class DeliveryRunService{
          +finishDeliveryRun(deliveryRunID, batteryPercentage, email)

      }


 }
}

package "Model" #DDDDDD {
abstract class User{
-Integer id
-String email
-String password
-String name
-Integer nif
}

class Courier {
      -String iban
}



class DeliveryRun{
-Integer id
}

class Vehicle{
  -int id
  -float batteryPerc
  -String charginStatus
  -float potency
  -float weight
  -int batteryCapacity
  -float maxPayload
}

class Battery{
  -int id
  -float batteryPercentage
  -int batteryCapacity
  -float batteryVoltage
}


}


package "Data" #DDDDDD {
class DataHandler{
    +openConnection()
    +closeAll()
}

class DeliveryRunDB{
 +finishDeliveryRun(deliveryRunID, batteryPercentage, email)
  }

}

database Database {
}

class DeliveryRunDB extends DataHandler

FinishDeliveryRunController ..> ApplicationPOT
FinishDeliveryRunUI ..> FinishDeliveryRunController
FinishDeliveryRunController ..> DeliveryRunService : has
DeliveryRunService ..> DeliveryRunDB : has
DeliveryRunDB - -> Database : manages

Courier "1" - - "1" User : acts as >
Courier "1" - - "1" DeliveryRun : does a >
Vehicle "1" - - "1" Battery : has a >
DeliveryRun "1" - - "1" Vehicle :  has a >
Database "1" - - "*" Courier : has registered
Database "1" - - "*" DeliveryRun : has registered

@enduml

PlantUML version 1.2020.09(Sun May 10 11:51:06 BST 2020)
(GPL source distribution)
Java Runtime: OpenJDK Runtime Environment
JVM: OpenJDK 64-Bit Server VM
Java Version: 11.0.6+8-b765.40
Operating System: Windows 10
Default Encoding: Cp1252
Language: pt
Country: PT
--></g></svg>