<?xml version="1.0" encoding="UTF-8" standalone="no"?><svg xmlns="http://www.w3.org/2000/svg" xmlns:xlink="http://www.w3.org/1999/xlink" contentScriptType="application/ecmascript" contentStyleType="text/css" height="238px" preserveAspectRatio="none" style="width:981px;height:238px;" version="1.1" viewBox="0 0 981 238" width="981px" zoomAndPan="magnify"><defs><filter height="300%" id="f1ksezrspzlrdq" width="300%" x="-1" y="-1"><feGaussianBlur result="blurOut" stdDeviation="2.0"/><feColorMatrix in="blurOut" result="blurOut2" type="matrix" values="0 0 0 0 0 0 0 0 0 0 0 0 0 0 0 0 0 0 .4 0"/><feOffset dx="4.0" dy="4.0" in="blurOut2" result="blurOut3"/><feBlend in="SourceGraphic" in2="blurOut3" mode="normal"/></filter></defs><g><!--MD5=[f50ff5e4cd64f259303fc83dba1819fc]
entity database--><path d="M6,132 C6,122 45.5,122 45.5,122 C45.5,122 85,122 85,132 L85,158.6094 C85,168.6094 45.5,168.6094 45.5,168.6094 C45.5,168.6094 6,168.6094 6,158.6094 L6,132 " fill="#FFFFFF" filter="url(#f1ksezrspzlrdq)" style="stroke: #000000; stroke-width: 1.5;"/><path d="M6,132 C6,142 45.5,142 45.5,142 C45.5,142 85,142 85,132 " fill="none" style="stroke: #000000; stroke-width: 1.5;"/><text fill="#000000" font-family="sans-serif" font-size="14" lengthAdjust="spacingAndGlyphs" textLength="59" x="16" y="160.5332">database</text><!--MD5=[c6a2171c11447acbe08a3dfeee0e1710]
class Courier--><rect fill="#FEFECE" filter="url(#f1ksezrspzlrdq)" height="53.8359" id="Courier" style="stroke: #A80036; stroke-width: 1.5;" width="73" x="234.5" y="72.5"/><ellipse cx="249.5" cy="88.5" fill="#ADD1B2" rx="11" ry="11" style="stroke: #A80036; stroke-width: 1.0;"/><path d="M251.5,85 Q251.7031,84.5 251.9375,84.25 Q252.1719,84 252.4375,84 Q252.9063,84 253.2031,84.2813 Q253.5,84.5625 253.5,85.2188 L253.5,86.7813 Q253.5,87.4375 253.2188,87.7188 Q252.9375,88 252.5,88 Q252.1094,88 251.8594,87.8281 Q251.6094,87.6563 251.5,87.2031 Q251.4531,86.8906 251.2813,86.7188 Q250.9688,86.3906 250.4063,86.2031 Q249.8438,86 249.2813,86 Q248.5781,86 247.9844,86.2813 Q247.4063,86.5625 246.9531,87.1875 Q246.5,87.8125 246.5,88.6719 L246.5,89.5938 Q246.5,90.625 247.3438,91.3125 Q248.1875,92 249.6875,92 Q250.5781,92 251.2031,91.7969 Q251.5625,91.6875 251.9688,91.3281 Q252.2344,91.125 252.375,91.0625 Q252.5156,91 252.6875,91 Q253.0156,91 253.25,91.2656 Q253.5,91.5156 253.5,91.875 Q253.5,92.2188 253.1563,92.625 Q252.6563,93.2188 251.8594,93.5469 Q250.8125,94 249.5313,94 Q248.0313,94 246.8281,93.4063 Q245.8594,92.9375 245.1719,91.9219 Q244.5,90.9063 244.5,89.7031 L244.5,88.6094 Q244.5,87.3594 245.0938,86.2656 Q245.7031,85.1719 246.75,84.5938 Q247.8125,84 249,84 Q249.7188,84 250.3438,84.25 Q250.9688,84.5 251.5,85 Z "/><text fill="#000000" font-family="sans-serif" font-size="12" lengthAdjust="spacingAndGlyphs" textLength="41" x="263.5" y="93.4102">Courier</text><line style="stroke: #A80036; stroke-width: 1.5;" x1="235.5" x2="306.5" y1="104.5" y2="104.5"/><text fill="#000000" font-family="sans-serif" font-size="11" lengthAdjust="spacingAndGlyphs" textLength="55" x="240.5" y="119.9189">-String iban</text><!--MD5=[3fd616f346a44cd59a91eb10b19e157c]
class User--><rect fill="#FEFECE" filter="url(#f1ksezrspzlrdq)" height="109.1797" id="User" style="stroke: #A80036; stroke-width: 1.5;" width="97" x="431.5" y="8"/><ellipse cx="463.6" cy="24" fill="#ADD1B2" rx="11" ry="11" style="stroke: #A80036; stroke-width: 1.0;"/><path d="M465.6,20.5 Q465.8031,20 466.0375,19.75 Q466.2719,19.5 466.5375,19.5 Q467.0063,19.5 467.3031,19.7813 Q467.6,20.0625 467.6,20.7188 L467.6,22.2813 Q467.6,22.9375 467.3188,23.2188 Q467.0375,23.5 466.6,23.5 Q466.2094,23.5 465.9594,23.3281 Q465.7094,23.1563 465.6,22.7031 Q465.5531,22.3906 465.3813,22.2188 Q465.0688,21.8906 464.5063,21.7031 Q463.9438,21.5 463.3813,21.5 Q462.6781,21.5 462.0844,21.7813 Q461.5063,22.0625 461.0531,22.6875 Q460.6,23.3125 460.6,24.1719 L460.6,25.0938 Q460.6,26.125 461.4438,26.8125 Q462.2875,27.5 463.7875,27.5 Q464.6781,27.5 465.3031,27.2969 Q465.6625,27.1875 466.0688,26.8281 Q466.3344,26.625 466.475,26.5625 Q466.6156,26.5 466.7875,26.5 Q467.1156,26.5 467.35,26.7656 Q467.6,27.0156 467.6,27.375 Q467.6,27.7188 467.2563,28.125 Q466.7563,28.7188 465.9594,29.0469 Q464.9125,29.5 463.6313,29.5 Q462.1313,29.5 460.9281,28.9063 Q459.9594,28.4375 459.2719,27.4219 Q458.6,26.4063 458.6,25.2031 L458.6,24.1094 Q458.6,22.8594 459.1938,21.7656 Q459.8031,20.6719 460.85,20.0938 Q461.9125,19.5 463.1,19.5 Q463.8188,19.5 464.4438,19.75 Q465.0688,20 465.6,20.5 Z "/><text fill="#000000" font-family="sans-serif" font-size="12" lengthAdjust="spacingAndGlyphs" textLength="27" x="481.4" y="28.9102">User</text><line style="stroke: #A80036; stroke-width: 1.5;" x1="432.5" x2="527.5" y1="40" y2="40"/><text fill="#000000" font-family="sans-serif" font-size="11" lengthAdjust="spacingAndGlyphs" textLength="48" x="437.5" y="55.4189">-Integer id</text><text fill="#000000" font-family="sans-serif" font-size="11" lengthAdjust="spacingAndGlyphs" textLength="59" x="437.5" y="69.2549">-String email</text><text fill="#000000" font-family="sans-serif" font-size="11" lengthAdjust="spacingAndGlyphs" textLength="85" x="437.5" y="83.0908">-String password</text><text fill="#000000" font-family="sans-serif" font-size="11" lengthAdjust="spacingAndGlyphs" textLength="52" x="437.5" y="96.9268">-Integer nif</text><text fill="#000000" font-family="sans-serif" font-size="11" lengthAdjust="spacingAndGlyphs" textLength="61" x="437.5" y="110.7627">-String name</text><!--MD5=[30da194321b846ed0272a2c085d943b8]
class DeliveryRun--><rect fill="#FEFECE" filter="url(#f1ksezrspzlrdq)" height="53.8359" id="DeliveryRun" style="stroke: #A80036; stroke-width: 1.5;" width="98" x="431" y="152.5"/><ellipse cx="446" cy="168.5" fill="#ADD1B2" rx="11" ry="11" style="stroke: #A80036; stroke-width: 1.0;"/><path d="M448,165 Q448.2031,164.5 448.4375,164.25 Q448.6719,164 448.9375,164 Q449.4063,164 449.7031,164.2813 Q450,164.5625 450,165.2188 L450,166.7813 Q450,167.4375 449.7188,167.7188 Q449.4375,168 449,168 Q448.6094,168 448.3594,167.8281 Q448.1094,167.6563 448,167.2031 Q447.9531,166.8906 447.7813,166.7188 Q447.4688,166.3906 446.9063,166.2031 Q446.3438,166 445.7813,166 Q445.0781,166 444.4844,166.2813 Q443.9063,166.5625 443.4531,167.1875 Q443,167.8125 443,168.6719 L443,169.5938 Q443,170.625 443.8438,171.3125 Q444.6875,172 446.1875,172 Q447.0781,172 447.7031,171.7969 Q448.0625,171.6875 448.4688,171.3281 Q448.7344,171.125 448.875,171.0625 Q449.0156,171 449.1875,171 Q449.5156,171 449.75,171.2656 Q450,171.5156 450,171.875 Q450,172.2188 449.6563,172.625 Q449.1563,173.2188 448.3594,173.5469 Q447.3125,174 446.0313,174 Q444.5313,174 443.3281,173.4063 Q442.3594,172.9375 441.6719,171.9219 Q441,170.9063 441,169.7031 L441,168.6094 Q441,167.3594 441.5938,166.2656 Q442.2031,165.1719 443.25,164.5938 Q444.3125,164 445.5,164 Q446.2188,164 446.8438,164.25 Q447.4688,164.5 448,165 Z "/><text fill="#000000" font-family="sans-serif" font-size="12" lengthAdjust="spacingAndGlyphs" textLength="66" x="460" y="173.4102">DeliveryRun</text><line style="stroke: #A80036; stroke-width: 1.5;" x1="432" x2="528" y1="184.5" y2="184.5"/><text fill="#000000" font-family="sans-serif" font-size="11" lengthAdjust="spacingAndGlyphs" textLength="48" x="437" y="199.9189">-Integer id</text><!--MD5=[3aa0d89c6bfdcbf7f32042cedac57549]
class Vehicle--><rect fill="#FEFECE" filter="url(#f1ksezrspzlrdq)" height="95.3438" id="Vehicle" style="stroke: #A80036; stroke-width: 1.5;" width="98" x="636" y="132"/><ellipse cx="662.7" cy="148" fill="#ADD1B2" rx="11" ry="11" style="stroke: #A80036; stroke-width: 1.0;"/><path d="M664.7,144.5 Q664.9031,144 665.1375,143.75 Q665.3719,143.5 665.6375,143.5 Q666.1063,143.5 666.4031,143.7813 Q666.7,144.0625 666.7,144.7188 L666.7,146.2813 Q666.7,146.9375 666.4188,147.2188 Q666.1375,147.5 665.7,147.5 Q665.3094,147.5 665.0594,147.3281 Q664.8094,147.1563 664.7,146.7031 Q664.6531,146.3906 664.4813,146.2188 Q664.1688,145.8906 663.6063,145.7031 Q663.0438,145.5 662.4813,145.5 Q661.7781,145.5 661.1844,145.7813 Q660.6063,146.0625 660.1531,146.6875 Q659.7,147.3125 659.7,148.1719 L659.7,149.0938 Q659.7,150.125 660.5438,150.8125 Q661.3875,151.5 662.8875,151.5 Q663.7781,151.5 664.4031,151.2969 Q664.7625,151.1875 665.1688,150.8281 Q665.4344,150.625 665.575,150.5625 Q665.7156,150.5 665.8875,150.5 Q666.2156,150.5 666.45,150.7656 Q666.7,151.0156 666.7,151.375 Q666.7,151.7188 666.3563,152.125 Q665.8563,152.7188 665.0594,153.0469 Q664.0125,153.5 662.7313,153.5 Q661.2313,153.5 660.0281,152.9063 Q659.0594,152.4375 658.3719,151.4219 Q657.7,150.4063 657.7,149.2031 L657.7,148.1094 Q657.7,146.8594 658.2938,145.7656 Q658.9031,144.6719 659.95,144.0938 Q661.0125,143.5 662.2,143.5 Q662.9188,143.5 663.5438,143.75 Q664.1688,144 664.7,144.5 Z "/><text fill="#000000" font-family="sans-serif" font-size="12" lengthAdjust="spacingAndGlyphs" textLength="40" x="679.3" y="152.9102">Vehicle</text><line style="stroke: #A80036; stroke-width: 1.5;" x1="637" x2="733" y1="164" y2="164"/><text fill="#000000" font-family="sans-serif" font-size="11" lengthAdjust="spacingAndGlyphs" textLength="26" x="642" y="179.4189">-int id</text><text fill="#000000" font-family="sans-serif" font-size="11" lengthAdjust="spacingAndGlyphs" textLength="67" x="642" y="193.2549">-float potency</text><text fill="#000000" font-family="sans-serif" font-size="11" lengthAdjust="spacingAndGlyphs" textLength="61" x="642" y="207.0908">-float weight</text><text fill="#000000" font-family="sans-serif" font-size="11" lengthAdjust="spacingAndGlyphs" textLength="86" x="642" y="220.9268">-float maxPayload</text><!--MD5=[79eb2d862cef9730b5f9dcab29e35f17]
class Battery--><rect fill="#FEFECE" filter="url(#f1ksezrspzlrdq)" height="95.3438" id="Battery" style="stroke: #A80036; stroke-width: 1.5;" width="129" x="841" y="132"/><ellipse cx="883" cy="148" fill="#ADD1B2" rx="11" ry="11" style="stroke: #A80036; stroke-width: 1.0;"/><path d="M885,144.5 Q885.2031,144 885.4375,143.75 Q885.6719,143.5 885.9375,143.5 Q886.4063,143.5 886.7031,143.7813 Q887,144.0625 887,144.7188 L887,146.2813 Q887,146.9375 886.7188,147.2188 Q886.4375,147.5 886,147.5 Q885.6094,147.5 885.3594,147.3281 Q885.1094,147.1563 885,146.7031 Q884.9531,146.3906 884.7813,146.2188 Q884.4688,145.8906 883.9063,145.7031 Q883.3438,145.5 882.7813,145.5 Q882.0781,145.5 881.4844,145.7813 Q880.9063,146.0625 880.4531,146.6875 Q880,147.3125 880,148.1719 L880,149.0938 Q880,150.125 880.8438,150.8125 Q881.6875,151.5 883.1875,151.5 Q884.0781,151.5 884.7031,151.2969 Q885.0625,151.1875 885.4688,150.8281 Q885.7344,150.625 885.875,150.5625 Q886.0156,150.5 886.1875,150.5 Q886.5156,150.5 886.75,150.7656 Q887,151.0156 887,151.375 Q887,151.7188 886.6563,152.125 Q886.1563,152.7188 885.3594,153.0469 Q884.3125,153.5 883.0313,153.5 Q881.5313,153.5 880.3281,152.9063 Q879.3594,152.4375 878.6719,151.4219 Q878,150.4063 878,149.2031 L878,148.1094 Q878,146.8594 878.5938,145.7656 Q879.2031,144.6719 880.25,144.0938 Q881.3125,143.5 882.5,143.5 Q883.2188,143.5 883.8438,143.75 Q884.4688,144 885,144.5 Z "/><text fill="#000000" font-family="sans-serif" font-size="12" lengthAdjust="spacingAndGlyphs" textLength="37" x="903" y="152.9102">Battery</text><line style="stroke: #A80036; stroke-width: 1.5;" x1="842" x2="969" y1="164" y2="164"/><text fill="#000000" font-family="sans-serif" font-size="11" lengthAdjust="spacingAndGlyphs" textLength="26" x="847" y="179.4189">-int id</text><text fill="#000000" font-family="sans-serif" font-size="11" lengthAdjust="spacingAndGlyphs" textLength="117" x="847" y="193.2549">-float batteryPercentage</text><text fill="#000000" font-family="sans-serif" font-size="11" lengthAdjust="spacingAndGlyphs" textLength="94" x="847" y="207.0908">-int batteryCapacity</text><text fill="#000000" font-family="sans-serif" font-size="11" lengthAdjust="spacingAndGlyphs" textLength="99" x="847" y="220.9268">-float batteryVoltage</text><!--MD5=[771c3993b003aea4e1f6128d90cd4122]
link Courier to User--><path d="M307.585,93.139 C341.801,87.024 393.746,77.739 431.486,70.993 " fill="none" id="Courier-User" style="stroke: #A80036; stroke-width: 1.0;"/><text fill="#000000" font-family="sans-serif" font-size="13" lengthAdjust="spacingAndGlyphs" textLength="43" x="344" y="72.9951">acts as</text><polygon fill="#000000" points="390,66.1758,396,69.1758,390,72.1758,390,66.1758" style="stroke: #000000; stroke-width: 1.0;"/><text fill="#000000" font-family="sans-serif" font-size="13" lengthAdjust="spacingAndGlyphs" textLength="7" x="315.4767" y="107.0076">1</text><text fill="#000000" font-family="sans-serif" font-size="13" lengthAdjust="spacingAndGlyphs" textLength="7" x="416.5214" y="87.0268">1</text><!--MD5=[074a56c4439d52c76e1cc7a8f9d070a4]
link Vehicle to Battery--><path d="M734.221,179.5 C765.514,179.5 806.644,179.5 840.64,179.5 " fill="none" id="Vehicle-Battery" style="stroke: #A80036; stroke-width: 1.0;"/><text fill="#000000" font-family="sans-serif" font-size="13" lengthAdjust="spacingAndGlyphs" textLength="32" x="765" y="175.9951">has a</text><polygon fill="#000000" points="800,169.1758,806,172.1758,800,175.1758,800,169.1758" style="stroke: #000000; stroke-width: 1.0;"/><text fill="#000000" font-family="sans-serif" font-size="13" lengthAdjust="spacingAndGlyphs" textLength="7" x="741.9644" y="194.1707">1</text><text fill="#000000" font-family="sans-serif" font-size="13" lengthAdjust="spacingAndGlyphs" textLength="7" x="826.1631" y="193.8705">1</text><!--MD5=[725fe60627dc131afee2af2d092b220b]
link Courier to DeliveryRun--><path d="M307.585,113.252 C341.569,126.387 393.045,146.2807 430.719,160.8406 " fill="none" id="Courier-DeliveryRun" style="stroke: #A80036; stroke-width: 1.0;"/><text fill="#000000" font-family="sans-serif" font-size="13" lengthAdjust="spacingAndGlyphs" textLength="39" x="346" y="123.9951">does a</text><polygon fill="#000000" points="388,117.1758,394,120.1758,388,123.1758,388,117.1758" style="stroke: #000000; stroke-width: 1.0;"/><text fill="#000000" font-family="sans-serif" font-size="13" lengthAdjust="spacingAndGlyphs" textLength="7" x="315.4767" y="131.0803">1</text><text fill="#000000" font-family="sans-serif" font-size="13" lengthAdjust="spacingAndGlyphs" textLength="7" x="415.9668" y="154.458">1</text><!--MD5=[6d5b5abfe722faf0c7b2cb12e8076441]
link DeliveryRun to Vehicle--><path d="M529.108,179.5 C561.351,179.5 603.642,179.5 635.886,179.5 " fill="none" id="DeliveryRun-Vehicle" style="stroke: #A80036; stroke-width: 1.0;"/><text fill="#000000" font-family="sans-serif" font-size="13" lengthAdjust="spacingAndGlyphs" textLength="32" x="560" y="175.9951">has a</text><polygon fill="#000000" points="595,169.1758,601,172.1758,595,175.1758,595,169.1758" style="stroke: #000000; stroke-width: 1.0;"/><text fill="#000000" font-family="sans-serif" font-size="13" lengthAdjust="spacingAndGlyphs" textLength="7" x="537.1636" y="194.2596">1</text><text fill="#000000" font-family="sans-serif" font-size="13" lengthAdjust="spacingAndGlyphs" textLength="7" x="621.1583" y="194.1707">1</text><!--MD5=[706043c1ddfd8af8e2c9f8d50a0c6600]
link database to Courier--><path d="M85.1756,137.5399 C127.155,128.8999 193.634,115.217 234.377,106.832 " fill="none" id="database-Courier" style="stroke: #A80036; stroke-width: 1.0;"/><text fill="#000000" font-family="sans-serif" font-size="13" lengthAdjust="spacingAndGlyphs" textLength="82" x="116" y="109.9951">has registered</text><text fill="#000000" font-family="sans-serif" font-size="13" lengthAdjust="spacingAndGlyphs" textLength="7" x="92.8663" y="132.2583">1</text><text fill="#000000" font-family="sans-serif" font-size="13" lengthAdjust="spacingAndGlyphs" textLength="5" x="221.3079" y="123.5425">*</text><!--MD5=[e840a47dc7204bdd8a2eb1ffa40d9791]
link database to DeliveryRun--><path d="M85.2811,149.3957 C122.209,153.0381 179.361,158.5009 229,162.5 C299.03,168.1418 380.198,173.431 430.58,176.5671 " fill="none" id="database-DeliveryRun" style="stroke: #A80036; stroke-width: 1.0;"/><text fill="#000000" font-family="sans-serif" font-size="13" lengthAdjust="spacingAndGlyphs" textLength="82" x="230" y="158.9951">has registered</text><text fill="#000000" font-family="sans-serif" font-size="13" lengthAdjust="spacingAndGlyphs" textLength="7" x="92.9905" y="165.0758">1</text><text fill="#000000" font-family="sans-serif" font-size="13" lengthAdjust="spacingAndGlyphs" textLength="5" x="417.9543" y="190.8443">*</text><!--MD5=[9be93be266593992f3cb1ded8025d7ab]
@startuml
skinparam classAttributeIconSize 0
hide methods
left to right direction

class Courier {
      -String iban
}

 class User{
-Integer id
-String email
-String password
-Integer nif
-String name
}

class DeliveryRun{
-Integer id
}

class Vehicle{
  -int id
  -float potency
  -float weight
  -float maxPayload
}

class Battery{
  -int id
  -float batteryPercentage
  -int batteryCapacity
  -float batteryVoltage
}

database database{

}

Courier "1" - - "1" User : acts as >
Vehicle "1" - - "1" Battery : has a >
Courier "1" - - "1" DeliveryRun : does a >
DeliveryRun "1" - - "1" Vehicle :  has a >
database "1" - - "*" Courier : has registered
database "1" - - "*" DeliveryRun : has registered
@enduml

PlantUML version 1.2020.09(Sun May 10 11:51:06 BST 2020)
(GPL source distribution)
Java Runtime: OpenJDK Runtime Environment
JVM: OpenJDK 64-Bit Server VM
Java Version: 11.0.6+8-b765.40
Operating System: Windows 10
Default Encoding: Cp1252
Language: pt
Country: PT
--></g></svg>