<?xml version="1.0" encoding="UTF-8" standalone="no"?><svg xmlns="http://www.w3.org/2000/svg" xmlns:xlink="http://www.w3.org/1999/xlink" contentScriptType="application/ecmascript" contentStyleType="text/css" height="978px" preserveAspectRatio="none" style="width:1578px;height:978px;" version="1.1" viewBox="0 0 1578 978" width="1578px" zoomAndPan="magnify"><defs><filter height="300%" id="fdn1uq3yai2n" width="300%" x="-1" y="-1"><feGaussianBlur result="blurOut" stdDeviation="2.0"/><feColorMatrix in="blurOut" result="blurOut2" type="matrix" values="0 0 0 0 0 0 0 0 0 0 0 0 0 0 0 0 0 0 .4 0"/><feOffset dx="4.0" dy="4.0" in="blurOut2" result="blurOut3"/><feBlend in="SourceGraphic" in2="blurOut3" mode="normal"/></filter></defs><g><!--MD5=[9681dc6e01e10c6b4fe06895ae94f592]
cluster UI--><polygon fill="#DDDDDD" filter="url(#fdn1uq3yai2n)" points="212,24,232,24,239,47.6094,378,47.6094,378,124,212,124,212,24" style="stroke: #000000; stroke-width: 1.5;"/><line style="stroke: #000000; stroke-width: 1.5;" x1="212" x2="239" y1="47.6094" y2="47.6094"/><text fill="#000000" font-family="sans-serif" font-size="14" font-weight="bold" lengthAdjust="spacingAndGlyphs" textLength="14" x="216" y="40.5332">UI</text><!--MD5=[1f2cfc53d9d308f53762fd0fcbaa4873]
cluster Controller--><polygon fill="#DDDDDD" filter="url(#fdn1uq3yai2n)" points="22,157,99,157,106,180.6094,568,180.6094,568,299,22,299,22,157" style="stroke: #000000; stroke-width: 1.5;"/><line style="stroke: #000000; stroke-width: 1.5;" x1="22" x2="106" y1="180.6094" y2="180.6094"/><text fill="#000000" font-family="sans-serif" font-size="14" font-weight="bold" lengthAdjust="spacingAndGlyphs" textLength="71" x="26" y="173.5332">Controller</text><!--MD5=[15636c1ca4a123c16a2a1a8e90aca7a9]
cluster Model--><polygon fill="#DDDDDD" filter="url(#fdn1uq3yai2n)" points="448,349,498,349,505,372.6094,1167,372.6094,1167,966,448,966,448,349" style="stroke: #000000; stroke-width: 1.5;"/><line style="stroke: #000000; stroke-width: 1.5;" x1="448" x2="505" y1="372.6094" y2="372.6094"/><text fill="#000000" font-family="sans-serif" font-size="14" font-weight="bold" lengthAdjust="spacingAndGlyphs" textLength="44" x="452" y="365.5332">Model</text><!--MD5=[9dd75fd92da113d30380b27734fd2f01]
cluster Service--><polygon fill="#DDDDDD" filter="url(#fdn1uq3yai2n)" points="472,404,532,404,539,427.6094,795,427.6094,795,532,472,532,472,404" style="stroke: #000000; stroke-width: 1.5;"/><line style="stroke: #000000; stroke-width: 1.5;" x1="472" x2="539" y1="427.6094" y2="427.6094"/><text fill="#000000" font-family="sans-serif" font-size="14" font-weight="bold" lengthAdjust="spacingAndGlyphs" textLength="54" x="476" y="420.5332">Service</text><!--MD5=[f21b1f164e99c6b37934f23ad048ad54]
cluster Data--><polygon fill="#DDDDDD" filter="url(#fdn1uq3yai2n)" points="1257,404,1294,404,1301,427.6094,1556,427.6094,1556,741,1257,741,1257,404" style="stroke: #000000; stroke-width: 1.5;"/><line style="stroke: #000000; stroke-width: 1.5;" x1="1257" x2="1301" y1="427.6094" y2="427.6094"/><text fill="#000000" font-family="sans-serif" font-size="14" font-weight="bold" lengthAdjust="spacingAndGlyphs" textLength="31" x="1261" y="420.5332">Data</text><!--MD5=[fa1e3283224feb76407c84b7e90ed808]
entity Database--><path d="M1061.5,224.5 C1061.5,214.5 1102,214.5 1102,214.5 C1102,214.5 1142.5,214.5 1142.5,224.5 L1142.5,251.1094 C1142.5,261.1094 1102,261.1094 1102,261.1094 C1102,261.1094 1061.5,261.1094 1061.5,251.1094 L1061.5,224.5 " fill="#FFFFFF" filter="url(#fdn1uq3yai2n)" style="stroke: #000000; stroke-width: 1.5;"/><path d="M1061.5,224.5 C1061.5,234.5 1102,234.5 1102,234.5 C1102,234.5 1142.5,234.5 1142.5,224.5 " fill="none" style="stroke: #000000; stroke-width: 1.5;"/><text fill="#000000" font-family="sans-serif" font-size="14" lengthAdjust="spacingAndGlyphs" textLength="61" x="1071.5" y="253.0332">Database</text><!--MD5=[2e02dc687a7adedd6993cedb12e41a52]
class RegisterScooterUI--><rect fill="#FEFECE" filter="url(#fdn1uq3yai2n)" height="48" id="RegisterScooterUI" style="stroke: #A80036; stroke-width: 1.5;" width="133" x="228.5" y="60"/><ellipse cx="243.5" cy="76" fill="#ADD1B2" rx="11" ry="11" style="stroke: #A80036; stroke-width: 1.0;"/><path d="M245.5,72.5 Q245.7031,72 245.9375,71.75 Q246.1719,71.5 246.4375,71.5 Q246.9063,71.5 247.2031,71.7813 Q247.5,72.0625 247.5,72.7188 L247.5,74.2813 Q247.5,74.9375 247.2188,75.2188 Q246.9375,75.5 246.5,75.5 Q246.1094,75.5 245.8594,75.3281 Q245.6094,75.1563 245.5,74.7031 Q245.4531,74.3906 245.2813,74.2188 Q244.9688,73.8906 244.4063,73.7031 Q243.8438,73.5 243.2813,73.5 Q242.5781,73.5 241.9844,73.7813 Q241.4063,74.0625 240.9531,74.6875 Q240.5,75.3125 240.5,76.1719 L240.5,77.0938 Q240.5,78.125 241.3438,78.8125 Q242.1875,79.5 243.6875,79.5 Q244.5781,79.5 245.2031,79.2969 Q245.5625,79.1875 245.9688,78.8281 Q246.2344,78.625 246.375,78.5625 Q246.5156,78.5 246.6875,78.5 Q247.0156,78.5 247.25,78.7656 Q247.5,79.0156 247.5,79.375 Q247.5,79.7188 247.1563,80.125 Q246.6563,80.7188 245.8594,81.0469 Q244.8125,81.5 243.5313,81.5 Q242.0313,81.5 240.8281,80.9063 Q239.8594,80.4375 239.1719,79.4219 Q238.5,78.4063 238.5,77.2031 L238.5,76.1094 Q238.5,74.8594 239.0938,73.7656 Q239.7031,72.6719 240.75,72.0938 Q241.8125,71.5 243,71.5 Q243.7188,71.5 244.3438,71.75 Q244.9688,72 245.5,72.5 Z "/><text fill="#000000" font-family="sans-serif" font-size="12" lengthAdjust="spacingAndGlyphs" textLength="101" x="257.5" y="80.9102">RegisterScooterUI</text><line style="stroke: #A80036; stroke-width: 1.5;" x1="229.5" x2="360.5" y1="92" y2="92"/><line style="stroke: #A80036; stroke-width: 1.5;" x1="229.5" x2="360.5" y1="100" y2="100"/><!--MD5=[b762eabfe222fdd6cf4857c585db3ba3]
class RegisterScooterController--><rect fill="#FEFECE" filter="url(#fdn1uq3yai2n)" height="89.5078" id="RegisterScooterController" style="stroke: #A80036; stroke-width: 1.5;" width="513" x="38.5" y="193"/><ellipse cx="219.25" cy="209" fill="#ADD1B2" rx="11" ry="11" style="stroke: #A80036; stroke-width: 1.0;"/><path d="M221.25,205.5 Q221.4531,205 221.6875,204.75 Q221.9219,204.5 222.1875,204.5 Q222.6563,204.5 222.9531,204.7813 Q223.25,205.0625 223.25,205.7188 L223.25,207.2813 Q223.25,207.9375 222.9688,208.2188 Q222.6875,208.5 222.25,208.5 Q221.8594,208.5 221.6094,208.3281 Q221.3594,208.1563 221.25,207.7031 Q221.2031,207.3906 221.0313,207.2188 Q220.7188,206.8906 220.1563,206.7031 Q219.5938,206.5 219.0313,206.5 Q218.3281,206.5 217.7344,206.7813 Q217.1563,207.0625 216.7031,207.6875 Q216.25,208.3125 216.25,209.1719 L216.25,210.0938 Q216.25,211.125 217.0938,211.8125 Q217.9375,212.5 219.4375,212.5 Q220.3281,212.5 220.9531,212.2969 Q221.3125,212.1875 221.7188,211.8281 Q221.9844,211.625 222.125,211.5625 Q222.2656,211.5 222.4375,211.5 Q222.7656,211.5 223,211.7656 Q223.25,212.0156 223.25,212.375 Q223.25,212.7188 222.9063,213.125 Q222.4063,213.7188 221.6094,214.0469 Q220.5625,214.5 219.2813,214.5 Q217.7813,214.5 216.5781,213.9063 Q215.6094,213.4375 214.9219,212.4219 Q214.25,211.4063 214.25,210.2031 L214.25,209.1094 Q214.25,207.8594 214.8438,206.7656 Q215.4531,205.6719 216.5,205.0938 Q217.5625,204.5 218.75,204.5 Q219.4688,204.5 220.0938,204.75 Q220.7188,205 221.25,205.5 Z "/><text fill="#000000" font-family="sans-serif" font-size="12" lengthAdjust="spacingAndGlyphs" textLength="143" x="239.75" y="213.9102">RegisterScooterController</text><line style="stroke: #A80036; stroke-width: 1.5;" x1="39.5" x2="550.5" y1="225" y2="225"/><line style="stroke: #A80036; stroke-width: 1.5;" x1="39.5" x2="550.5" y1="233" y2="233"/><text fill="#000000" font-family="sans-serif" font-size="11" lengthAdjust="spacingAndGlyphs" textLength="85" x="44.5" y="248.4189">+getPharmacies()</text><text fill="#000000" font-family="sans-serif" font-size="11" lengthAdjust="spacingAndGlyphs" textLength="501" x="44.5" y="262.2549">+newScooter(batteryPerc, chargingStatus, potency, weight, batteryCapacity, maxPayload, pharmacyId)</text><text fill="#000000" font-family="sans-serif" font-size="11" lengthAdjust="spacingAndGlyphs" textLength="116" x="44.5" y="276.0908">+registerScooter(scoot)</text><!--MD5=[f4402668d5d5bb8485350c0fdb60ac8e]
class Scooter--><rect fill="#FEFECE" filter="url(#fdn1uq3yai2n)" height="186.3594" id="Scooter" style="stroke: #A80036; stroke-width: 1.5;" width="337" x="813.5" y="385"/><ellipse cx="956.75" cy="401" fill="#ADD1B2" rx="11" ry="11" style="stroke: #A80036; stroke-width: 1.0;"/><path d="M958.75,397.5 Q958.9531,397 959.1875,396.75 Q959.4219,396.5 959.6875,396.5 Q960.1563,396.5 960.4531,396.7813 Q960.75,397.0625 960.75,397.7188 L960.75,399.2813 Q960.75,399.9375 960.4688,400.2188 Q960.1875,400.5 959.75,400.5 Q959.3594,400.5 959.1094,400.3281 Q958.8594,400.1563 958.75,399.7031 Q958.7031,399.3906 958.5313,399.2188 Q958.2188,398.8906 957.6563,398.7031 Q957.0938,398.5 956.5313,398.5 Q955.8281,398.5 955.2344,398.7813 Q954.6563,399.0625 954.2031,399.6875 Q953.75,400.3125 953.75,401.1719 L953.75,402.0938 Q953.75,403.125 954.5938,403.8125 Q955.4375,404.5 956.9375,404.5 Q957.8281,404.5 958.4531,404.2969 Q958.8125,404.1875 959.2188,403.8281 Q959.4844,403.625 959.625,403.5625 Q959.7656,403.5 959.9375,403.5 Q960.2656,403.5 960.5,403.7656 Q960.75,404.0156 960.75,404.375 Q960.75,404.7188 960.4063,405.125 Q959.9063,405.7188 959.1094,406.0469 Q958.0625,406.5 956.7813,406.5 Q955.2813,406.5 954.0781,405.9063 Q953.1094,405.4375 952.4219,404.4219 Q951.75,403.4063 951.75,402.2031 L951.75,401.1094 Q951.75,399.8594 952.3438,398.7656 Q952.9531,397.6719 954,397.0938 Q955.0625,396.5 956.25,396.5 Q956.9688,396.5 957.5938,396.75 Q958.2188,397 958.75,397.5 Z "/><text fill="#000000" font-family="sans-serif" font-size="12" lengthAdjust="spacingAndGlyphs" textLength="42" x="977.25" y="405.9102">Scooter</text><line style="stroke: #A80036; stroke-width: 1.5;" x1="814.5" x2="1149.5" y1="417" y2="417"/><text fill="#000000" font-family="sans-serif" font-size="11" lengthAdjust="spacingAndGlyphs" textLength="26" x="819.5" y="432.4189">-int id</text><text fill="#000000" font-family="sans-serif" font-size="11" lengthAdjust="spacingAndGlyphs" textLength="84" x="819.5" y="446.2549">-float batteryPerc</text><text fill="#000000" font-family="sans-serif" font-size="11" lengthAdjust="spacingAndGlyphs" textLength="102" x="819.5" y="460.0908">-String charginStatus</text><text fill="#000000" font-family="sans-serif" font-size="11" lengthAdjust="spacingAndGlyphs" textLength="67" x="819.5" y="473.9268">-float potency</text><text fill="#000000" font-family="sans-serif" font-size="11" lengthAdjust="spacingAndGlyphs" textLength="61" x="819.5" y="487.7627">-float weight</text><text fill="#000000" font-family="sans-serif" font-size="11" lengthAdjust="spacingAndGlyphs" textLength="94" x="819.5" y="501.5986">-int batteryCapacity</text><text fill="#000000" font-family="sans-serif" font-size="11" lengthAdjust="spacingAndGlyphs" textLength="86" x="819.5" y="515.4346">-float maxPayload</text><text fill="#000000" font-family="sans-serif" font-size="11" lengthAdjust="spacingAndGlyphs" textLength="99" x="819.5" y="529.2705">-float batteryVoltage</text><line style="stroke: #A80036; stroke-width: 1.5;" x1="814.5" x2="1149.5" y1="535.6875" y2="535.6875"/><text fill="#000000" font-family="sans-serif" font-size="11" lengthAdjust="spacingAndGlyphs" textLength="225" x="819.5" y="551.1064">+Scooter(batteryPerc, charginStatus, potency,</text><text fill="#000000" font-family="sans-serif" font-size="11" lengthAdjust="spacingAndGlyphs" textLength="322" x="822.5" y="564.9424">weight, batteryCapacity, maxPayload, batteryVoltage, pharmacyId)</text><!--MD5=[0f39e4cb6f03951afbf6d14bd2505654]
class Address--><rect fill="#FEFECE" filter="url(#fdn1uq3yai2n)" height="144.8516" id="Address" style="stroke: #A80036; stroke-width: 1.5;" width="106" x="662" y="805"/><ellipse cx="689.6" cy="821" fill="#ADD1B2" rx="11" ry="11" style="stroke: #A80036; stroke-width: 1.0;"/><path d="M691.6,817.5 Q691.8031,817 692.0375,816.75 Q692.2719,816.5 692.5375,816.5 Q693.0063,816.5 693.3031,816.7813 Q693.6,817.0625 693.6,817.7188 L693.6,819.2813 Q693.6,819.9375 693.3188,820.2188 Q693.0375,820.5 692.6,820.5 Q692.2094,820.5 691.9594,820.3281 Q691.7094,820.1563 691.6,819.7031 Q691.5531,819.3906 691.3813,819.2188 Q691.0688,818.8906 690.5063,818.7031 Q689.9438,818.5 689.3813,818.5 Q688.6781,818.5 688.0844,818.7813 Q687.5063,819.0625 687.0531,819.6875 Q686.6,820.3125 686.6,821.1719 L686.6,822.0938 Q686.6,823.125 687.4438,823.8125 Q688.2875,824.5 689.7875,824.5 Q690.6781,824.5 691.3031,824.2969 Q691.6625,824.1875 692.0688,823.8281 Q692.3344,823.625 692.475,823.5625 Q692.6156,823.5 692.7875,823.5 Q693.1156,823.5 693.35,823.7656 Q693.6,824.0156 693.6,824.375 Q693.6,824.7188 693.2563,825.125 Q692.7563,825.7188 691.9594,826.0469 Q690.9125,826.5 689.6313,826.5 Q688.1313,826.5 686.9281,825.9063 Q685.9594,825.4375 685.2719,824.4219 Q684.6,823.4063 684.6,822.2031 L684.6,821.1094 Q684.6,819.8594 685.1938,818.7656 Q685.8031,817.6719 686.85,817.0938 Q687.9125,816.5 689.1,816.5 Q689.8188,816.5 690.4438,816.75 Q691.0688,817 691.6,817.5 Z "/><text fill="#000000" font-family="sans-serif" font-size="12" lengthAdjust="spacingAndGlyphs" textLength="46" x="706.4" y="825.9102">Address</text><line style="stroke: #A80036; stroke-width: 1.5;" x1="663" x2="767" y1="837" y2="837"/><text fill="#000000" font-family="sans-serif" font-size="11" lengthAdjust="spacingAndGlyphs" textLength="71" x="668" y="852.4189">-float longitude</text><text fill="#000000" font-family="sans-serif" font-size="11" lengthAdjust="spacingAndGlyphs" textLength="62" x="668" y="866.2549">-float latitude</text><text fill="#000000" font-family="sans-serif" font-size="11" lengthAdjust="spacingAndGlyphs" textLength="94" x="668" y="880.0908">-String doorNumber</text><text fill="#000000" font-family="sans-serif" font-size="11" lengthAdjust="spacingAndGlyphs" textLength="90" x="668" y="893.9268">-String streetName</text><text fill="#000000" font-family="sans-serif" font-size="11" lengthAdjust="spacingAndGlyphs" textLength="89" x="668" y="907.7627">-String postalCode</text><text fill="#000000" font-family="sans-serif" font-size="11" lengthAdjust="spacingAndGlyphs" textLength="68" x="668" y="921.5986">-String locality</text><text fill="#000000" font-family="sans-serif" font-size="11" lengthAdjust="spacingAndGlyphs" textLength="72" x="668" y="935.4346">-String country</text><line style="stroke: #A80036; stroke-width: 1.5;" x1="663" x2="767" y1="941.8516" y2="941.8516"/><!--MD5=[7f2a9fafcebe4f099f71398fd3e2ed00]
class Pharmacy--><rect fill="#FEFECE" filter="url(#fdn1uq3yai2n)" height="75.6719" id="Pharmacy" style="stroke: #A80036; stroke-width: 1.5;" width="87" x="671.5" y="649"/><ellipse cx="686.5" cy="665" fill="#ADD1B2" rx="11" ry="11" style="stroke: #A80036; stroke-width: 1.0;"/><path d="M688.5,661.5 Q688.7031,661 688.9375,660.75 Q689.1719,660.5 689.4375,660.5 Q689.9063,660.5 690.2031,660.7813 Q690.5,661.0625 690.5,661.7188 L690.5,663.2813 Q690.5,663.9375 690.2188,664.2188 Q689.9375,664.5 689.5,664.5 Q689.1094,664.5 688.8594,664.3281 Q688.6094,664.1563 688.5,663.7031 Q688.4531,663.3906 688.2813,663.2188 Q687.9688,662.8906 687.4063,662.7031 Q686.8438,662.5 686.2813,662.5 Q685.5781,662.5 684.9844,662.7813 Q684.4063,663.0625 683.9531,663.6875 Q683.5,664.3125 683.5,665.1719 L683.5,666.0938 Q683.5,667.125 684.3438,667.8125 Q685.1875,668.5 686.6875,668.5 Q687.5781,668.5 688.2031,668.2969 Q688.5625,668.1875 688.9688,667.8281 Q689.2344,667.625 689.375,667.5625 Q689.5156,667.5 689.6875,667.5 Q690.0156,667.5 690.25,667.7656 Q690.5,668.0156 690.5,668.375 Q690.5,668.7188 690.1563,669.125 Q689.6563,669.7188 688.8594,670.0469 Q687.8125,670.5 686.5313,670.5 Q685.0313,670.5 683.8281,669.9063 Q682.8594,669.4375 682.1719,668.4219 Q681.5,667.4063 681.5,666.2031 L681.5,665.1094 Q681.5,663.8594 682.0938,662.7656 Q682.7031,661.6719 683.75,661.0938 Q684.8125,660.5 686,660.5 Q686.7188,660.5 687.3438,660.75 Q687.9688,661 688.5,661.5 Z "/><text fill="#000000" font-family="sans-serif" font-size="12" lengthAdjust="spacingAndGlyphs" textLength="55" x="700.5" y="669.9102">Pharmacy</text><line style="stroke: #A80036; stroke-width: 1.5;" x1="672.5" x2="757.5" y1="681" y2="681"/><text fill="#000000" font-family="sans-serif" font-size="11" lengthAdjust="spacingAndGlyphs" textLength="26" x="677.5" y="696.4189">-int id</text><text fill="#000000" font-family="sans-serif" font-size="11" lengthAdjust="spacingAndGlyphs" textLength="61" x="677.5" y="710.2549">-String name</text><line style="stroke: #A80036; stroke-width: 1.5;" x1="672.5" x2="757.5" y1="716.6719" y2="716.6719"/><!--MD5=[28160fdc0be430cd6f04db15a7547552]
class PharmacyService--><rect fill="#FEFECE" filter="url(#fdn1uq3yai2n)" height="75.6719" id="PharmacyService" style="stroke: #A80036; stroke-width: 1.5;" width="127" x="651.5" y="440"/><ellipse cx="666.5" cy="456" fill="#ADD1B2" rx="11" ry="11" style="stroke: #A80036; stroke-width: 1.0;"/><path d="M668.5,452.5 Q668.7031,452 668.9375,451.75 Q669.1719,451.5 669.4375,451.5 Q669.9063,451.5 670.2031,451.7813 Q670.5,452.0625 670.5,452.7188 L670.5,454.2813 Q670.5,454.9375 670.2188,455.2188 Q669.9375,455.5 669.5,455.5 Q669.1094,455.5 668.8594,455.3281 Q668.6094,455.1563 668.5,454.7031 Q668.4531,454.3906 668.2813,454.2188 Q667.9688,453.8906 667.4063,453.7031 Q666.8438,453.5 666.2813,453.5 Q665.5781,453.5 664.9844,453.7813 Q664.4063,454.0625 663.9531,454.6875 Q663.5,455.3125 663.5,456.1719 L663.5,457.0938 Q663.5,458.125 664.3438,458.8125 Q665.1875,459.5 666.6875,459.5 Q667.5781,459.5 668.2031,459.2969 Q668.5625,459.1875 668.9688,458.8281 Q669.2344,458.625 669.375,458.5625 Q669.5156,458.5 669.6875,458.5 Q670.0156,458.5 670.25,458.7656 Q670.5,459.0156 670.5,459.375 Q670.5,459.7188 670.1563,460.125 Q669.6563,460.7188 668.8594,461.0469 Q667.8125,461.5 666.5313,461.5 Q665.0313,461.5 663.8281,460.9063 Q662.8594,460.4375 662.1719,459.4219 Q661.5,458.4063 661.5,457.2031 L661.5,456.1094 Q661.5,454.8594 662.0938,453.7656 Q662.7031,452.6719 663.75,452.0938 Q664.8125,451.5 666,451.5 Q666.7188,451.5 667.3438,451.75 Q667.9688,452 668.5,452.5 Z "/><text fill="#000000" font-family="sans-serif" font-size="12" lengthAdjust="spacingAndGlyphs" textLength="95" x="680.5" y="460.9102">PharmacyService</text><line style="stroke: #A80036; stroke-width: 1.5;" x1="652.5" x2="777.5" y1="472" y2="472"/><line style="stroke: #A80036; stroke-width: 1.5;" x1="652.5" x2="777.5" y1="480" y2="480"/><text fill="#000000" font-family="sans-serif" font-size="11" lengthAdjust="spacingAndGlyphs" textLength="99" x="657.5" y="495.4189">+PharmacyService()</text><text fill="#000000" font-family="sans-serif" font-size="11" lengthAdjust="spacingAndGlyphs" textLength="85" x="657.5" y="509.2549">+getPharmacies()</text><!--MD5=[aa4a745fe56463fab637f55d2a7c778f]
class ScooterService--><rect fill="#FEFECE" filter="url(#fdn1uq3yai2n)" height="75.6719" id="ScooterService" style="stroke: #A80036; stroke-width: 1.5;" width="128" x="488" y="440"/><ellipse cx="509.3" cy="456" fill="#ADD1B2" rx="11" ry="11" style="stroke: #A80036; stroke-width: 1.0;"/><path d="M511.3,452.5 Q511.5031,452 511.7375,451.75 Q511.9719,451.5 512.2375,451.5 Q512.7063,451.5 513.0031,451.7813 Q513.3,452.0625 513.3,452.7188 L513.3,454.2813 Q513.3,454.9375 513.0188,455.2188 Q512.7375,455.5 512.3,455.5 Q511.9094,455.5 511.6594,455.3281 Q511.4094,455.1563 511.3,454.7031 Q511.2531,454.3906 511.0813,454.2188 Q510.7688,453.8906 510.2063,453.7031 Q509.6438,453.5 509.0813,453.5 Q508.3781,453.5 507.7844,453.7813 Q507.2063,454.0625 506.7531,454.6875 Q506.3,455.3125 506.3,456.1719 L506.3,457.0938 Q506.3,458.125 507.1438,458.8125 Q507.9875,459.5 509.4875,459.5 Q510.3781,459.5 511.0031,459.2969 Q511.3625,459.1875 511.7688,458.8281 Q512.0344,458.625 512.175,458.5625 Q512.3156,458.5 512.4875,458.5 Q512.8156,458.5 513.05,458.7656 Q513.3,459.0156 513.3,459.375 Q513.3,459.7188 512.9563,460.125 Q512.4563,460.7188 511.6594,461.0469 Q510.6125,461.5 509.3313,461.5 Q507.8313,461.5 506.6281,460.9063 Q505.6594,460.4375 504.9719,459.4219 Q504.3,458.4063 504.3,457.2031 L504.3,456.1094 Q504.3,454.8594 504.8938,453.7656 Q505.5031,452.6719 506.55,452.0938 Q507.6125,451.5 508.8,451.5 Q509.5188,451.5 510.1438,451.75 Q510.7688,452 511.3,452.5 Z "/><text fill="#000000" font-family="sans-serif" font-size="12" lengthAdjust="spacingAndGlyphs" textLength="82" x="524.7" y="460.9102">ScooterService</text><line style="stroke: #A80036; stroke-width: 1.5;" x1="489" x2="615" y1="472" y2="472"/><line style="stroke: #A80036; stroke-width: 1.5;" x1="489" x2="615" y1="480" y2="480"/><text fill="#000000" font-family="sans-serif" font-size="11" lengthAdjust="spacingAndGlyphs" textLength="89" x="494" y="495.4189">+ScooterService()</text><text fill="#000000" font-family="sans-serif" font-size="11" lengthAdjust="spacingAndGlyphs" textLength="116" x="494" y="509.2549">+registerScooter(scoot)</text><!--MD5=[4b2d61224b33971326a22fe5d809d926]
class DataHandler--><rect fill="#FEFECE" filter="url(#fdn1uq3yai2n)" height="75.6719" id="DataHandler" style="stroke: #A80036; stroke-width: 1.5;" width="104" x="1436" y="440"/><ellipse cx="1451.9" cy="456" fill="#ADD1B2" rx="11" ry="11" style="stroke: #A80036; stroke-width: 1.0;"/><path d="M1453.9,452.5 Q1454.1031,452 1454.3375,451.75 Q1454.5719,451.5 1454.8375,451.5 Q1455.3063,451.5 1455.6031,451.7813 Q1455.9,452.0625 1455.9,452.7188 L1455.9,454.2813 Q1455.9,454.9375 1455.6188,455.2188 Q1455.3375,455.5 1454.9,455.5 Q1454.5094,455.5 1454.2594,455.3281 Q1454.0094,455.1563 1453.9,454.7031 Q1453.8531,454.3906 1453.6813,454.2188 Q1453.3688,453.8906 1452.8063,453.7031 Q1452.2438,453.5 1451.6813,453.5 Q1450.9781,453.5 1450.3844,453.7813 Q1449.8063,454.0625 1449.3531,454.6875 Q1448.9,455.3125 1448.9,456.1719 L1448.9,457.0938 Q1448.9,458.125 1449.7438,458.8125 Q1450.5875,459.5 1452.0875,459.5 Q1452.9781,459.5 1453.6031,459.2969 Q1453.9625,459.1875 1454.3688,458.8281 Q1454.6344,458.625 1454.775,458.5625 Q1454.9156,458.5 1455.0875,458.5 Q1455.4156,458.5 1455.65,458.7656 Q1455.9,459.0156 1455.9,459.375 Q1455.9,459.7188 1455.5563,460.125 Q1455.0563,460.7188 1454.2594,461.0469 Q1453.2125,461.5 1451.9313,461.5 Q1450.4313,461.5 1449.2281,460.9063 Q1448.2594,460.4375 1447.5719,459.4219 Q1446.9,458.4063 1446.9,457.2031 L1446.9,456.1094 Q1446.9,454.8594 1447.4938,453.7656 Q1448.1031,452.6719 1449.15,452.0938 Q1450.2125,451.5 1451.4,451.5 Q1452.1188,451.5 1452.7438,451.75 Q1453.3688,452 1453.9,452.5 Z "/><text fill="#000000" font-family="sans-serif" font-size="12" lengthAdjust="spacingAndGlyphs" textLength="70" x="1466.1" y="460.9102">DataHandler</text><line style="stroke: #A80036; stroke-width: 1.5;" x1="1437" x2="1539" y1="472" y2="472"/><line style="stroke: #A80036; stroke-width: 1.5;" x1="1437" x2="1539" y1="480" y2="480"/><text fill="#000000" font-family="sans-serif" font-size="11" lengthAdjust="spacingAndGlyphs" textLength="92" x="1442" y="495.4189">+openConnection()</text><text fill="#000000" font-family="sans-serif" font-size="11" lengthAdjust="spacingAndGlyphs" textLength="52" x="1442" y="509.2549">+closeAll()</text><!--MD5=[b860ecc58d0ca70e482845cb1f7b4615]
class PharmacyDB--><rect fill="#FEFECE" filter="url(#fdn1uq3yai2n)" height="75.6719" id="PharmacyDB" style="stroke: #A80036; stroke-width: 1.5;" width="104" x="1273" y="649"/><ellipse cx="1288" cy="665" fill="#ADD1B2" rx="11" ry="11" style="stroke: #A80036; stroke-width: 1.0;"/><path d="M1290,661.5 Q1290.2031,661 1290.4375,660.75 Q1290.6719,660.5 1290.9375,660.5 Q1291.4063,660.5 1291.7031,660.7813 Q1292,661.0625 1292,661.7188 L1292,663.2813 Q1292,663.9375 1291.7188,664.2188 Q1291.4375,664.5 1291,664.5 Q1290.6094,664.5 1290.3594,664.3281 Q1290.1094,664.1563 1290,663.7031 Q1289.9531,663.3906 1289.7813,663.2188 Q1289.4688,662.8906 1288.9063,662.7031 Q1288.3438,662.5 1287.7813,662.5 Q1287.0781,662.5 1286.4844,662.7813 Q1285.9063,663.0625 1285.4531,663.6875 Q1285,664.3125 1285,665.1719 L1285,666.0938 Q1285,667.125 1285.8438,667.8125 Q1286.6875,668.5 1288.1875,668.5 Q1289.0781,668.5 1289.7031,668.2969 Q1290.0625,668.1875 1290.4688,667.8281 Q1290.7344,667.625 1290.875,667.5625 Q1291.0156,667.5 1291.1875,667.5 Q1291.5156,667.5 1291.75,667.7656 Q1292,668.0156 1292,668.375 Q1292,668.7188 1291.6563,669.125 Q1291.1563,669.7188 1290.3594,670.0469 Q1289.3125,670.5 1288.0313,670.5 Q1286.5313,670.5 1285.3281,669.9063 Q1284.3594,669.4375 1283.6719,668.4219 Q1283,667.4063 1283,666.2031 L1283,665.1094 Q1283,663.8594 1283.5938,662.7656 Q1284.2031,661.6719 1285.25,661.0938 Q1286.3125,660.5 1287.5,660.5 Q1288.2188,660.5 1288.8438,660.75 Q1289.4688,661 1290,661.5 Z "/><text fill="#000000" font-family="sans-serif" font-size="12" lengthAdjust="spacingAndGlyphs" textLength="72" x="1302" y="669.9102">PharmacyDB</text><line style="stroke: #A80036; stroke-width: 1.5;" x1="1274" x2="1376" y1="681" y2="681"/><line style="stroke: #A80036; stroke-width: 1.5;" x1="1274" x2="1376" y1="689" y2="689"/><text fill="#000000" font-family="sans-serif" font-size="11" lengthAdjust="spacingAndGlyphs" textLength="76" x="1279" y="704.4189">+PharmacyDB()</text><text fill="#000000" font-family="sans-serif" font-size="11" lengthAdjust="spacingAndGlyphs" textLength="85" x="1279" y="718.2549">+getPharmacies()</text><!--MD5=[48d7298b3bd1f8b3e8f77915e881d788]
class ScooterDB--><rect fill="#FEFECE" filter="url(#fdn1uq3yai2n)" height="75.6719" id="ScooterDB" style="stroke: #A80036; stroke-width: 1.5;" width="128" x="1412" y="649"/><ellipse cx="1443.65" cy="665" fill="#ADD1B2" rx="11" ry="11" style="stroke: #A80036; stroke-width: 1.0;"/><path d="M1445.65,661.5 Q1445.8531,661 1446.0875,660.75 Q1446.3219,660.5 1446.5875,660.5 Q1447.0563,660.5 1447.3531,660.7813 Q1447.65,661.0625 1447.65,661.7188 L1447.65,663.2813 Q1447.65,663.9375 1447.3688,664.2188 Q1447.0875,664.5 1446.65,664.5 Q1446.2594,664.5 1446.0094,664.3281 Q1445.7594,664.1563 1445.65,663.7031 Q1445.6031,663.3906 1445.4313,663.2188 Q1445.1188,662.8906 1444.5563,662.7031 Q1443.9938,662.5 1443.4313,662.5 Q1442.7281,662.5 1442.1344,662.7813 Q1441.5563,663.0625 1441.1031,663.6875 Q1440.65,664.3125 1440.65,665.1719 L1440.65,666.0938 Q1440.65,667.125 1441.4938,667.8125 Q1442.3375,668.5 1443.8375,668.5 Q1444.7281,668.5 1445.3531,668.2969 Q1445.7125,668.1875 1446.1188,667.8281 Q1446.3844,667.625 1446.525,667.5625 Q1446.6656,667.5 1446.8375,667.5 Q1447.1656,667.5 1447.4,667.7656 Q1447.65,668.0156 1447.65,668.375 Q1447.65,668.7188 1447.3063,669.125 Q1446.8063,669.7188 1446.0094,670.0469 Q1444.9625,670.5 1443.6813,670.5 Q1442.1813,670.5 1440.9781,669.9063 Q1440.0094,669.4375 1439.3219,668.4219 Q1438.65,667.4063 1438.65,666.2031 L1438.65,665.1094 Q1438.65,663.8594 1439.2438,662.7656 Q1439.8531,661.6719 1440.9,661.0938 Q1441.9625,660.5 1443.15,660.5 Q1443.8688,660.5 1444.4938,660.75 Q1445.1188,661 1445.65,661.5 Z "/><text fill="#000000" font-family="sans-serif" font-size="12" lengthAdjust="spacingAndGlyphs" textLength="59" x="1461.35" y="669.9102">ScooterDB</text><line style="stroke: #A80036; stroke-width: 1.5;" x1="1413" x2="1539" y1="681" y2="681"/><line style="stroke: #A80036; stroke-width: 1.5;" x1="1413" x2="1539" y1="689" y2="689"/><text fill="#000000" font-family="sans-serif" font-size="11" lengthAdjust="spacingAndGlyphs" textLength="66" x="1418" y="704.4189">+ScooterDB()</text><text fill="#000000" font-family="sans-serif" font-size="11" lengthAdjust="spacingAndGlyphs" textLength="116" x="1418" y="718.2549">+registerScooter(scoot)</text><!--MD5=[f40d64c3825bdc96a4efd5b7e3ff1420]
reverse link DataHandler to PharmacyDB--><path d="M1446.3,531.951 C1417.47,568.571 1379.82,616.383 1354.16,648.965 " fill="none" id="DataHandler&lt;-PharmacyDB" style="stroke: #A80036; stroke-width: 1.0;"/><polygon fill="none" points="1440.99,527.39,1458.86,516.007,1451.99,536.051,1440.99,527.39" style="stroke: #A80036; stroke-width: 1.0;"/><!--MD5=[a2c65173c20bdf66914a8ed43c34e217]
reverse link DataHandler to ScooterDB--><path d="M1484.68,536.205 C1482.6,572.21 1479.96,617.63 1478.15,648.965 " fill="none" id="DataHandler&lt;-ScooterDB" style="stroke: #A80036; stroke-width: 1.0;"/><polygon fill="none" points="1477.71,535.569,1485.85,516.007,1491.69,536.379,1477.71,535.569" style="stroke: #A80036; stroke-width: 1.0;"/><!--MD5=[954f86ea882ac5dcad44771d5b1b4c17]
link RegisterScooterUI to RegisterScooterController--><path d="M295,108.086 C295,129.108 295,160.852 295,187.58 " fill="none" id="RegisterScooterUI-&gt;RegisterScooterController" style="stroke: #A80036; stroke-width: 1.0; stroke-dasharray: 7.0,7.0;"/><polygon fill="#A80036" points="295,192.853,299,183.853,295,187.853,291,183.853,295,192.853" style="stroke: #A80036; stroke-width: 1.0;"/><!--MD5=[3483b254801180bcfb852ef80db9ffdb]
link RegisterScooterController to PharmacyService--><path d="M524.401,283.134 C563.12,297.372 601.058,316.176 633,341 C664.1,365.169 686.025,404.715 699.331,434.949 " fill="none" id="RegisterScooterController-&gt;PharmacyService" style="stroke: #A80036; stroke-width: 1.0; stroke-dasharray: 7.0,7.0;"/><polygon fill="#A80036" points="701.392,439.718,701.4912,429.8696,699.4074,435.1287,694.1483,433.045,701.392,439.718" style="stroke: #A80036; stroke-width: 1.0;"/><!--MD5=[fbd790f96af27a62db13e48d70800838]
link RegisterScooterController to ScooterService--><path d="M283.454,283.23 C281.612,300.894 283.548,320.068 296,333 C308.731,346.222 445.024,331.963 461,341 C497.295,361.53 521.886,403.227 536.262,435.069 " fill="none" id="RegisterScooterController-&gt;ScooterService" style="stroke: #A80036; stroke-width: 1.0; stroke-dasharray: 7.0,7.0;"/><polygon fill="#A80036" points="538.309,439.692,538.3224,429.8432,536.2845,435.1202,531.0075,433.0823,538.309,439.692" style="stroke: #A80036; stroke-width: 1.0;"/><!--MD5=[04ba2cb7f5803b19c0d0e740f2a895e0]
link Database to PharmacyDB--><path d="M1126.59,261.614 C1140.72,275.767 1157.82,295.054 1169,315 C1227.23,418.865 1196.78,463.507 1248,571 C1260.31,596.826 1277.82,623.504 1293.04,644.656 " fill="none" id="Database-&gt;PharmacyDB" style="stroke: #A80036; stroke-width: 1.0;"/><polygon fill="#A80036" points="1296.05,648.811,1294.0007,639.1777,1293.1131,644.7645,1287.5263,643.8768,1296.05,648.811" style="stroke: #A80036; stroke-width: 1.0;"/><text fill="#000000" font-family="sans-serif" font-size="13" lengthAdjust="spacingAndGlyphs" textLength="53" x="1249" y="483.4951">manages</text><text fill="#000000" font-family="sans-serif" font-size="13" lengthAdjust="spacingAndGlyphs" textLength="7" x="1124.4671" y="282.5057">1</text><text fill="#000000" font-family="sans-serif" font-size="13" lengthAdjust="spacingAndGlyphs" textLength="7" x="1283.2698" y="638.1392">1</text><!--MD5=[70f68ce34a156c56edce71dba5c758e9]
link Database to ScooterDB--><path d="M1142.79,248.29 C1189.54,261.092 1265.09,288.749 1307,341 C1372.89,423.153 1312.81,478.962 1364,571 C1379.62,599.089 1403.9,625.209 1425.86,645.434 " fill="none" id="Database-&gt;ScooterDB" style="stroke: #A80036; stroke-width: 1.0;"/><polygon fill="#A80036" points="1429.65,648.884,1425.6968,639.8633,1425.9561,645.5142,1420.3052,645.7735,1429.65,648.884" style="stroke: #A80036; stroke-width: 1.0;"/><text fill="#000000" font-family="sans-serif" font-size="13" lengthAdjust="spacingAndGlyphs" textLength="53" x="1365" y="483.4951">manages</text><text fill="#000000" font-family="sans-serif" font-size="13" lengthAdjust="spacingAndGlyphs" textLength="7" x="1150.4023" y="246.2425">1</text><text fill="#000000" font-family="sans-serif" font-size="13" lengthAdjust="spacingAndGlyphs" textLength="7" x="1413.7705" y="638.2252">1</text><!--MD5=[ee7ed70a83e67b7f86b44988d609d45d]
link ScooterService to PharmacyDB--><path d="M574.926,516.364 C589.271,536.22 609.642,558.956 634,571 C713.11,610.117 944.58,578.823 1030,601 C1048.48,605.797 1051.03,612.558 1069,619 C1105.35,632.031 1204.37,656.843 1268.06,672.341 " fill="none" id="ScooterService-&gt;PharmacyDB" style="stroke: #A80036; stroke-width: 1.0;"/><polygon fill="#A80036" points="1272.97,673.533,1265.175,667.5133,1268.1126,672.3476,1263.2783,675.2852,1272.97,673.533" style="stroke: #A80036; stroke-width: 1.0;"/><text fill="#000000" font-family="sans-serif" font-size="13" lengthAdjust="spacingAndGlyphs" textLength="28" x="1070" y="615.4951">uses</text><text fill="#000000" font-family="sans-serif" font-size="13" lengthAdjust="spacingAndGlyphs" textLength="7" x="571.022" y="537.3025">1</text><text fill="#000000" font-family="sans-serif" font-size="13" lengthAdjust="spacingAndGlyphs" textLength="5" x="1259.9609" y="667.9251">*</text><!--MD5=[799b1f05f2692ceb79e345e4105e6b42]
link PharmacyService to ScooterDB--><path d="M732.272,516.096 C743.522,535.864 760.182,558.603 782,571 C845.061,606.83 1035.07,591.699 1107,601 C1235.69,617.642 1270.91,611.046 1395,649 C1398.93,650.203 1402.92,651.554 1406.91,653.012 " fill="none" id="PharmacyService-&gt;ScooterDB" style="stroke: #A80036; stroke-width: 1.0;"/><polygon fill="#A80036" points="1411.6,654.768,1404.5796,647.8605,1406.9189,653.011,1401.7684,655.3502,1411.6,654.768" style="stroke: #A80036; stroke-width: 1.0;"/><text fill="#000000" font-family="sans-serif" font-size="13" lengthAdjust="spacingAndGlyphs" textLength="28" x="1264" y="615.4951">uses</text><text fill="#000000" font-family="sans-serif" font-size="13" lengthAdjust="spacingAndGlyphs" textLength="7" x="727.553" y="537.2821">1</text><text fill="#000000" font-family="sans-serif" font-size="13" lengthAdjust="spacingAndGlyphs" textLength="5" x="1398.8647" y="647.6506">*</text><!--MD5=[2ed2b43e7f6d114538396b0b10b28567]
link PharmacyService to Pharmacy--><path d="M715,516.007 C715,551.808 715,606.016 715,643.552 " fill="none" id="PharmacyService-&gt;Pharmacy" style="stroke: #A80036; stroke-width: 1.0;"/><polygon fill="#A80036" points="715,648.965,719,639.965,715,643.965,711,639.965,715,648.965" style="stroke: #A80036; stroke-width: 1.0;"/><text fill="#000000" font-family="sans-serif" font-size="13" lengthAdjust="spacingAndGlyphs" textLength="111" x="716" y="615.4951">manage services of</text><text fill="#000000" font-family="sans-serif" font-size="13" lengthAdjust="spacingAndGlyphs" textLength="7" x="707.4203" y="537.1783">1</text><text fill="#000000" font-family="sans-serif" font-size="13" lengthAdjust="spacingAndGlyphs" textLength="5" x="709.5391" y="638.0351">*</text><!--MD5=[51d7b9a785c9fb041ca400474ed1d998]
link Database to Pharmacy--><path d="M1061.29,243.983 C909.749,262.623 386.44,327.843 375,341 C307.927,418.14 315.412,487.942 375,571 C443.651,666.692 596.255,683.771 671.431,686.156 " fill="none" id="Database-Pharmacy" style="stroke: #A80036; stroke-width: 1.0;"/><text fill="#000000" font-family="sans-serif" font-size="13" lengthAdjust="spacingAndGlyphs" textLength="82" x="376" y="483.4951">has registered</text><polygon fill="#000000" points="412.5,492.3516,415.5,498.3516,418.5,492.3516,412.5,492.3516" style="stroke: #000000; stroke-width: 1.0;"/><text fill="#000000" font-family="sans-serif" font-size="13" lengthAdjust="spacingAndGlyphs" textLength="7" x="1046.4151" y="241.1849">1</text><text fill="#000000" font-family="sans-serif" font-size="13" lengthAdjust="spacingAndGlyphs" textLength="5" x="658.5129" y="682.1895">*</text><!--MD5=[f4a94ba2ad2673d4959409a96e63c979]
link Database to Scooter--><path d="M1090.49,261.82 C1076.21,290.151 1050.97,340.204 1028.43,384.91 " fill="none" id="Database-Scooter" style="stroke: #A80036; stroke-width: 1.0;"/><text fill="#000000" font-family="sans-serif" font-size="13" lengthAdjust="spacingAndGlyphs" textLength="82" x="1065" y="329.4951">has registered</text><polygon fill="#000000" points="1101.5,338.3516,1104.5,344.3516,1107.5,338.3516,1101.5,338.3516" style="stroke: #000000; stroke-width: 1.0;"/><text fill="#000000" font-family="sans-serif" font-size="13" lengthAdjust="spacingAndGlyphs" textLength="7" x="1080.0189" y="282.7593">1</text><text fill="#000000" font-family="sans-serif" font-size="13" lengthAdjust="spacingAndGlyphs" textLength="5" x="1027.068" y="374.0333">*</text><!--MD5=[6f1b2737b94c689eac8b0af6a5ef1443]
link Scooter to Pharmacy--><path d="M892.931,571.327 C874.821,588.072 855.366,604.73 836,619 C811.836,636.806 782.421,653.197 758.644,665.31 " fill="none" id="Scooter-Pharmacy" style="stroke: #A80036; stroke-width: 1.0;"/><polygon fill="#000000" points="866,608.6758,860,611.6758,866,614.6758,866,608.6758" style="stroke: #000000; stroke-width: 1.0;"/><text fill="#000000" font-family="sans-serif" font-size="13" lengthAdjust="spacingAndGlyphs" textLength="60" x="872" y="615.4951">belongs to</text><text fill="#000000" font-family="sans-serif" font-size="13" lengthAdjust="spacingAndGlyphs" textLength="5" x="880.6341" y="592.8963">*</text><text fill="#000000" font-family="sans-serif" font-size="13" lengthAdjust="spacingAndGlyphs" textLength="7" x="766.4522" y="657.944">1</text><!--MD5=[89baec1bfb4a213750f7c61516e0a0f1]
link Pharmacy to Address--><path d="M715,725.242 C715,747.988 715,777.83 715,804.993 " fill="none" id="Pharmacy-Address" style="stroke: #A80036; stroke-width: 1.0;"/><text fill="#000000" font-family="sans-serif" font-size="13" lengthAdjust="spacingAndGlyphs" textLength="21" x="716" y="771.4951">has</text><polygon fill="#000000" points="722,780.3516,725,786.3516,728,780.3516,722,780.3516" style="stroke: #000000; stroke-width: 1.0;"/><text fill="#000000" font-family="sans-serif" font-size="13" lengthAdjust="spacingAndGlyphs" textLength="7" x="707.4422" y="746.1611">1</text><text fill="#000000" font-family="sans-serif" font-size="13" lengthAdjust="spacingAndGlyphs" textLength="7" x="707.6391" y="794.2116">1</text><!--MD5=[451632f813fa2354bb524a7b1f07d0ad]
@startuml
skinparam classAttributeIconSize 0

database Database {
}

package "UI" #DDDDDD {
class RegisterScooterUI{
}
}

package "Controller" #DDDDDD {
class RegisterScooterController{
+getPharmacies()
+newScooter(batteryPerc, chargingStatus, potency, weight, batteryCapacity, maxPayload, pharmacyId)
+registerScooter(scoot)
}
}


package "Model" #DDDDDD {
 package "Service" #DDDDDD {
  class PharmacyService{
      +PharmacyService()
      +getPharmacies()
  }

  class ScooterService{
      +ScooterService()
      +registerScooter(scoot)
   }
}

package "Model" #DDDDDD {
class Scooter{
  -int id
  -float batteryPerc
  -String charginStatus
  -float potency
  -float weight
  -int batteryCapacity
  -float maxPayload
  -float batteryVoltage
  +Scooter(batteryPerc, charginStatus, potency,\n weight, batteryCapacity, maxPayload, batteryVoltage, pharmacyId)
}

class Address{
  -float longitude
  -float latitude
  -String doorNumber
  -String streetName
  -String postalCode
  -String locality
  -String country
}

class Pharmacy {
  -int id
  -String name
}
}


package "Data" #DDDDDD {
class DataHandler{
    +openConnection()
    +closeAll()
}
class PharmacyDB{
     +PharmacyDB()
     +getPharmacies()
 }

 class ScooterDB{
     +ScooterDB()
     +registerScooter(scoot)
  }
}

class PharmacyDB extends DataHandler
class ScooterDB extends DataHandler

RegisterScooterUI ..> RegisterScooterController
RegisterScooterController ..> PharmacyService
RegisterScooterController ..> ScooterService
Database "1" - -> "1" PharmacyDB : manages
Database "1" - -> "1" ScooterDB : manages
ScooterService "1" - -> "*" PharmacyDB : uses
PharmacyService "1" - -> "*" ScooterDB : uses
PharmacyService "1" - -> "*" Pharmacy : manage services of

Database "1" - - "*" Pharmacy : has registered >
Database "1" - - "*" Scooter : has registered >

Scooter "*" - - "1" Pharmacy : belongs to >
Pharmacy "1" - - "1" Address : has >

@enduml

PlantUML version 1.2020.09(Sun May 10 11:51:06 BST 2020)
(GPL source distribution)
Java Runtime: OpenJDK Runtime Environment
JVM: OpenJDK 64-Bit Server VM
Java Version: 11.0.6+8-b765.40
Operating System: Windows 10
Default Encoding: Cp1252
Language: pt
Country: PT
--></g></svg>