<?xml version="1.0" encoding="UTF-8" standalone="no"?><svg xmlns="http://www.w3.org/2000/svg" xmlns:xlink="http://www.w3.org/1999/xlink" contentScriptType="application/ecmascript" contentStyleType="text/css" height="695.4px" preserveAspectRatio="none" style="width:639px;height:695px;" version="1.1" viewBox="0 0 639 695" width="639.6px" zoomAndPan="magnify"><defs><filter height="300%" id="f1a05lg0d4zq14" width="300%" x="-1" y="-1"><feGaussianBlur result="blurOut" stdDeviation="1.2"/><feColorMatrix in="blurOut" result="blurOut2" type="matrix" values="0 0 0 0 0 0 0 0 0 0 0 0 0 0 0 0 0 0 .4 0"/><feOffset dx="2.4" dy="2.4" in="blurOut2" result="blurOut3"/><feBlend in="SourceGraphic" in2="blurOut3" mode="normal"/></filter></defs><g><!--MD5=[9681dc6e01e10c6b4fe06895ae94f592]
cluster UI--><polygon fill="#DDDDDD" filter="url(#f1a05lg0d4zq14)" points="149.4,14.4,161.4,14.4,165.6,28.5656,249,28.5656,249,74.4,149.4,74.4,149.4,14.4" style="stroke: #000000; stroke-width: 0.8999999999999999;"/><line style="stroke: #000000; stroke-width: 0.8999999999999999;" x1="149.4" x2="165.6" y1="28.5656" y2="28.5656"/><text fill="#000000" font-family="sans-serif" font-size="8.4" font-weight="bold" lengthAdjust="spacingAndGlyphs" textLength="8.4" x="151.8" y="24.3199">UI</text><!--MD5=[1f2cfc53d9d308f53762fd0fcbaa4873]
cluster Controller--><polygon fill="#DDDDDD" filter="url(#f1a05lg0d4zq14)" points="35.4,94.2,81.6,94.2,85.8,108.3656,363,108.3656,363,179.4,35.4,179.4,35.4,94.2" style="stroke: #000000; stroke-width: 0.8999999999999999;"/><line style="stroke: #000000; stroke-width: 0.8999999999999999;" x1="35.4" x2="85.8" y1="108.3656" y2="108.3656"/><text fill="#000000" font-family="sans-serif" font-size="8.4" font-weight="bold" lengthAdjust="spacingAndGlyphs" textLength="42.6" x="37.8" y="104.1199">Controller</text><!--MD5=[15636c1ca4a123c16a2a1a8e90aca7a9]
cluster Model--><polygon fill="#DDDDDD" filter="url(#f1a05lg0d4zq14)" points="13.2,199.2,43.2,199.2,47.4,213.3656,345,213.3656,345,688.2,13.2,688.2,13.2,199.2" style="stroke: #000000; stroke-width: 0.8999999999999999;"/><line style="stroke: #000000; stroke-width: 0.8999999999999999;" x1="13.2" x2="47.4" y1="213.3656" y2="213.3656"/><text fill="#000000" font-family="sans-serif" font-size="8.4" font-weight="bold" lengthAdjust="spacingAndGlyphs" textLength="26.4" x="15.6" y="209.1199">Model</text><!--MD5=[9dd75fd92da113d30380b27734fd2f01]
cluster Service--><polygon fill="#DDDDDD" filter="url(#f1a05lg0d4zq14)" points="93,225.6,129,225.6,133.2,239.7656,286.8,239.7656,286.8,302.4,93,302.4,93,225.6" style="stroke: #000000; stroke-width: 0.8999999999999999;"/><line style="stroke: #000000; stroke-width: 0.8999999999999999;" x1="93" x2="133.2" y1="239.7656" y2="239.7656"/><text fill="#000000" font-family="sans-serif" font-size="8.4" font-weight="bold" lengthAdjust="spacingAndGlyphs" textLength="32.4" x="95.4" y="235.5199">Service</text><!--MD5=[f21b1f164e99c6b37934f23ad048ad54]
cluster Data--><polygon fill="#DDDDDD" filter="url(#f1a05lg0d4zq14)" points="447,225.6,469.2,225.6,473.4,239.7656,626.4,239.7656,626.4,429,447,429,447,225.6" style="stroke: #000000; stroke-width: 0.8999999999999999;"/><line style="stroke: #000000; stroke-width: 0.8999999999999999;" x1="447" x2="473.4" y1="239.7656" y2="239.7656"/><text fill="#000000" font-family="sans-serif" font-size="8.4" font-weight="bold" lengthAdjust="spacingAndGlyphs" textLength="18.6" x="449.4" y="235.5199">Data</text><!--MD5=[fa1e3283224feb76407c84b7e90ed808]
entity Database--><path d="M371.7,261.9 C371.7,255.9 396,255.9 396,255.9 C396,255.9 420.3,255.9 420.3,261.9 L420.3,277.8656 C420.3,283.8656 396,283.8656 396,283.8656 C396,283.8656 371.7,283.8656 371.7,277.8656 L371.7,261.9 " fill="#FFFFFF" filter="url(#f1a05lg0d4zq14)" style="stroke: #000000; stroke-width: 0.8999999999999999;"/><path d="M371.7,261.9 C371.7,267.9 396,267.9 396,267.9 C396,267.9 420.3,267.9 420.3,261.9 " fill="none" style="stroke: #000000; stroke-width: 0.8999999999999999;"/><text fill="#000000" font-family="sans-serif" font-size="8.4" lengthAdjust="spacingAndGlyphs" textLength="36.6" x="377.7" y="279.0199">Database</text><!--MD5=[2e02dc687a7adedd6993cedb12e41a52]
class RegisterScooterUI--><rect fill="#FEFECE" filter="url(#f1a05lg0d4zq14)" height="28.8" id="RegisterScooterUI" style="stroke: #A80036; stroke-width: 0.8999999999999999;" width="79.8" x="159.3" y="36"/><ellipse cx="168.3" cy="45.6" fill="#ADD1B2" rx="6.6" ry="6.6" style="stroke: #A80036; stroke-width: 0.6;"/><path d="M169.5,43.5 Q169.6219,43.2 169.7625,43.05 Q169.9031,42.9 170.0625,42.9 Q170.3438,42.9 170.5219,43.0688 Q170.7,43.2375 170.7,43.6313 L170.7,44.5688 Q170.7,44.9625 170.5313,45.1313 Q170.3625,45.3 170.1,45.3 Q169.8656,45.3 169.7156,45.1969 Q169.5656,45.0938 169.5,44.8219 Q169.4719,44.6344 169.3688,44.5313 Q169.1813,44.3344 168.8438,44.2219 Q168.5063,44.1 168.1688,44.1 Q167.7469,44.1 167.3906,44.2688 Q167.0438,44.4375 166.7719,44.8125 Q166.5,45.1875 166.5,45.7031 L166.5,46.2563 Q166.5,46.875 167.0063,47.2875 Q167.5125,47.7 168.4125,47.7 Q168.9469,47.7 169.3219,47.5781 Q169.5375,47.5125 169.7813,47.2969 Q169.9406,47.175 170.025,47.1375 Q170.1094,47.1 170.2125,47.1 Q170.4094,47.1 170.55,47.2594 Q170.7,47.4094 170.7,47.625 Q170.7,47.8313 170.4938,48.075 Q170.1938,48.4313 169.7156,48.6281 Q169.0875,48.9 168.3188,48.9 Q167.4188,48.9 166.6969,48.5437 Q166.1156,48.2625 165.7031,47.6531 Q165.3,47.0437 165.3,46.3219 L165.3,45.6656 Q165.3,44.9156 165.6563,44.2594 Q166.0219,43.6031 166.65,43.2563 Q167.2875,42.9 168,42.9 Q168.4313,42.9 168.8063,43.05 Q169.1813,43.2 169.5,43.5 Z "/><text fill="#000000" font-family="sans-serif" font-size="7.2" lengthAdjust="spacingAndGlyphs" textLength="60.6" x="176.7" y="48.5461">RegisterScooterUI</text><line style="stroke: #A80036; stroke-width: 0.8999999999999999;" x1="159.9" x2="238.5" y1="55.2" y2="55.2"/><line style="stroke: #A80036; stroke-width: 0.8999999999999999;" x1="159.9" x2="238.5" y1="60" y2="60"/><!--MD5=[b762eabfe222fdd6cf4857c585db3ba3]
class RegisterScooterController--><rect fill="#FEFECE" filter="url(#f1a05lg0d4zq14)" height="53.7047" id="RegisterScooterController" style="stroke: #A80036; stroke-width: 0.8999999999999999;" width="307.8" x="45.3" y="115.8"/><ellipse cx="153.75" cy="125.4" fill="#ADD1B2" rx="6.6" ry="6.6" style="stroke: #A80036; stroke-width: 0.6;"/><path d="M154.95,123.3 Q155.0719,123 155.2125,122.85 Q155.3531,122.7 155.5125,122.7 Q155.7938,122.7 155.9719,122.8687 Q156.15,123.0375 156.15,123.4312 L156.15,124.3687 Q156.15,124.7625 155.9813,124.9312 Q155.8125,125.1 155.55,125.1 Q155.3156,125.1 155.1656,124.9969 Q155.0156,124.8938 154.95,124.6219 Q154.9219,124.4344 154.8188,124.3313 Q154.6313,124.1344 154.2938,124.0219 Q153.9562,123.9 153.6188,123.9 Q153.1969,123.9 152.8406,124.0688 Q152.4938,124.2375 152.2219,124.6125 Q151.95,124.9875 151.95,125.5031 L151.95,126.0562 Q151.95,126.675 152.4562,127.0875 Q152.9625,127.5 153.8625,127.5 Q154.3969,127.5 154.7719,127.3781 Q154.9875,127.3125 155.2313,127.0969 Q155.3906,126.975 155.475,126.9375 Q155.5594,126.9 155.6625,126.9 Q155.8594,126.9 156,127.0594 Q156.15,127.2094 156.15,127.425 Q156.15,127.6313 155.9438,127.875 Q155.6437,128.2313 155.1656,128.4281 Q154.5375,128.7 153.7687,128.7 Q152.8688,128.7 152.1469,128.3438 Q151.5656,128.0625 151.1531,127.4531 Q150.75,126.8438 150.75,126.1219 L150.75,125.4656 Q150.75,124.7156 151.1063,124.0594 Q151.4719,123.4031 152.1,123.0562 Q152.7375,122.7 153.45,122.7 Q153.8813,122.7 154.2563,122.85 Q154.6313,123 154.95,123.3 Z "/><text fill="#000000" font-family="sans-serif" font-size="7.2" lengthAdjust="spacingAndGlyphs" textLength="85.8" x="166.05" y="128.3461">RegisterScooterController</text><line style="stroke: #A80036; stroke-width: 0.8999999999999999;" x1="45.9" x2="352.5" y1="135" y2="135"/><line style="stroke: #A80036; stroke-width: 0.8999999999999999;" x1="45.9" x2="352.5" y1="139.8" y2="139.8"/><text fill="#000000" font-family="sans-serif" font-size="6.6" lengthAdjust="spacingAndGlyphs" textLength="51" x="48.9" y="149.0514">+getPharmacies()</text><text fill="#000000" font-family="sans-serif" font-size="6.6" lengthAdjust="spacingAndGlyphs" textLength="300.6" x="48.9" y="157.3529">+newScooter(batteryPerc, chargingStatus, potency, weight, batteryCapacity, maxPayload, pharmacyId)</text><text fill="#000000" font-family="sans-serif" font-size="6.6" lengthAdjust="spacingAndGlyphs" textLength="69.6" x="48.9" y="165.6545">+registerScooter(scoot)</text><!--MD5=[f4402668d5d5bb8485350c0fdb60ac8e]
class Scooter--><rect fill="#FEFECE" filter="url(#f1a05lg0d4zq14)" height="111.8156" id="Scooter" style="stroke: #A80036; stroke-width: 0.8999999999999999;" width="202.2" x="132.9" y="340.8"/><ellipse cx="218.85" cy="350.4" fill="#ADD1B2" rx="6.6" ry="6.6" style="stroke: #A80036; stroke-width: 0.6;"/><path d="M220.05,348.3 Q220.1719,348 220.3125,347.85 Q220.4531,347.7 220.6125,347.7 Q220.8937,347.7 221.0719,347.8688 Q221.25,348.0375 221.25,348.4313 L221.25,349.3688 Q221.25,349.7625 221.0812,349.9313 Q220.9125,350.1 220.65,350.1 Q220.4156,350.1 220.2656,349.9969 Q220.1156,349.8938 220.05,349.6219 Q220.0219,349.4344 219.9188,349.3313 Q219.7313,349.1344 219.3937,349.0219 Q219.0563,348.9 218.7188,348.9 Q218.2969,348.9 217.9406,349.0687 Q217.5938,349.2375 217.3219,349.6125 Q217.05,349.9875 217.05,350.5031 L217.05,351.0563 Q217.05,351.675 217.5563,352.0875 Q218.0625,352.5 218.9625,352.5 Q219.4969,352.5 219.8719,352.3781 Q220.0875,352.3125 220.3312,352.0969 Q220.4906,351.975 220.575,351.9375 Q220.6594,351.9 220.7625,351.9 Q220.9594,351.9 221.1,352.0594 Q221.25,352.2094 221.25,352.425 Q221.25,352.6312 221.0438,352.875 Q220.7438,353.2313 220.2656,353.4281 Q219.6375,353.7 218.8688,353.7 Q217.9688,353.7 217.2469,353.3438 Q216.6656,353.0625 216.2531,352.4531 Q215.85,351.8438 215.85,351.1219 L215.85,350.4656 Q215.85,349.7156 216.2062,349.0594 Q216.5719,348.4031 217.2,348.0563 Q217.8375,347.7 218.55,347.7 Q218.9813,347.7 219.3563,347.85 Q219.7313,348 220.05,348.3 Z "/><text fill="#000000" font-family="sans-serif" font-size="7.2" lengthAdjust="spacingAndGlyphs" textLength="25.2" x="231.15" y="353.3461">Scooter</text><line style="stroke: #A80036; stroke-width: 0.8999999999999999;" x1="133.5" x2="334.5" y1="360" y2="360"/><text fill="#000000" font-family="sans-serif" font-size="6.6" lengthAdjust="spacingAndGlyphs" textLength="15.6" x="136.5" y="369.2514">-int id</text><text fill="#000000" font-family="sans-serif" font-size="6.6" lengthAdjust="spacingAndGlyphs" textLength="50.4" x="136.5" y="377.5529">-float batteryPerc</text><text fill="#000000" font-family="sans-serif" font-size="6.6" lengthAdjust="spacingAndGlyphs" textLength="61.2" x="136.5" y="385.8545">-String charginStatus</text><text fill="#000000" font-family="sans-serif" font-size="6.6" lengthAdjust="spacingAndGlyphs" textLength="40.2" x="136.5" y="394.1561">-float potency</text><text fill="#000000" font-family="sans-serif" font-size="6.6" lengthAdjust="spacingAndGlyphs" textLength="36.6" x="136.5" y="402.4576">-float weight</text><text fill="#000000" font-family="sans-serif" font-size="6.6" lengthAdjust="spacingAndGlyphs" textLength="56.4" x="136.5" y="410.7592">-int batteryCapacity</text><text fill="#000000" font-family="sans-serif" font-size="6.6" lengthAdjust="spacingAndGlyphs" textLength="51.6" x="136.5" y="419.0607">-float maxPayload</text><text fill="#000000" font-family="sans-serif" font-size="6.6" lengthAdjust="spacingAndGlyphs" textLength="59.4" x="136.5" y="427.3623">-float batteryVoltage</text><line style="stroke: #A80036; stroke-width: 0.8999999999999999;" x1="133.5" x2="334.5" y1="431.2125" y2="431.2125"/><text fill="#000000" font-family="sans-serif" font-size="6.6" lengthAdjust="spacingAndGlyphs" textLength="135" x="136.5" y="440.4639">+Scooter(batteryPerc, charginStatus, potency,</text><text fill="#000000" font-family="sans-serif" font-size="6.6" lengthAdjust="spacingAndGlyphs" textLength="193.2" x="138.3" y="448.7654">weight, batteryCapacity, maxPayload, batteryVoltage, pharmacyId)</text><!--MD5=[0f39e4cb6f03951afbf6d14bd2505654]
class Address--><rect fill="#FEFECE" filter="url(#f1a05lg0d4zq14)" height="86.9109" id="Address" style="stroke: #A80036; stroke-width: 0.8999999999999999;" width="63.6" x="202.2" y="591.6"/><ellipse cx="218.76" cy="601.2" fill="#ADD1B2" rx="6.6" ry="6.6" style="stroke: #A80036; stroke-width: 0.6;"/><path d="M219.96,599.1 Q220.0819,598.8 220.2225,598.65 Q220.3631,598.5 220.5225,598.5 Q220.8038,598.5 220.9819,598.6687 Q221.16,598.8375 221.16,599.2312 L221.16,600.1687 Q221.16,600.5625 220.9913,600.7312 Q220.8225,600.9 220.56,600.9 Q220.3256,600.9 220.1756,600.7969 Q220.0256,600.6938 219.96,600.4219 Q219.9319,600.2344 219.8288,600.1313 Q219.6413,599.9344 219.3038,599.8219 Q218.9663,599.7 218.6288,599.7 Q218.2069,599.7 217.8506,599.8688 Q217.5038,600.0375 217.2319,600.4125 Q216.96,600.7875 216.96,601.3031 L216.96,601.8562 Q216.96,602.475 217.4663,602.8875 Q217.9725,603.3 218.8725,603.3 Q219.4069,603.3 219.7819,603.1781 Q219.9975,603.1125 220.2413,602.8969 Q220.4006,602.775 220.485,602.7375 Q220.5694,602.7 220.6725,602.7 Q220.8694,602.7 221.01,602.8594 Q221.16,603.0094 221.16,603.225 Q221.16,603.4313 220.9538,603.675 Q220.6538,604.0313 220.1756,604.2281 Q219.5475,604.5 218.7788,604.5 Q217.8788,604.5 217.1569,604.1438 Q216.5756,603.8625 216.1631,603.2531 Q215.76,602.6438 215.76,601.9219 L215.76,601.2656 Q215.76,600.5156 216.1163,599.8594 Q216.4819,599.2031 217.11,598.8562 Q217.7475,598.5 218.46,598.5 Q218.8913,598.5 219.2663,598.65 Q219.6413,598.8 219.96,599.1 Z "/><text fill="#000000" font-family="sans-serif" font-size="7.2" lengthAdjust="spacingAndGlyphs" textLength="27.6" x="228.84" y="604.1461">Address</text><line style="stroke: #A80036; stroke-width: 0.8999999999999999;" x1="202.8" x2="265.2" y1="610.8" y2="610.8"/><text fill="#000000" font-family="sans-serif" font-size="6.6" lengthAdjust="spacingAndGlyphs" textLength="42.6" x="205.8" y="620.0514">-float longitude</text><text fill="#000000" font-family="sans-serif" font-size="6.6" lengthAdjust="spacingAndGlyphs" textLength="37.2" x="205.8" y="628.3529">-float latitude</text><text fill="#000000" font-family="sans-serif" font-size="6.6" lengthAdjust="spacingAndGlyphs" textLength="56.4" x="205.8" y="636.6545">-String doorNumber</text><text fill="#000000" font-family="sans-serif" font-size="6.6" lengthAdjust="spacingAndGlyphs" textLength="54" x="205.8" y="644.9561">-String streetName</text><text fill="#000000" font-family="sans-serif" font-size="6.6" lengthAdjust="spacingAndGlyphs" textLength="53.4" x="205.8" y="653.2576">-String postalCode</text><text fill="#000000" font-family="sans-serif" font-size="6.6" lengthAdjust="spacingAndGlyphs" textLength="40.8" x="205.8" y="661.5592">-String locality</text><text fill="#000000" font-family="sans-serif" font-size="6.6" lengthAdjust="spacingAndGlyphs" textLength="43.2" x="205.8" y="669.8607">-String country</text><line style="stroke: #A80036; stroke-width: 0.8999999999999999;" x1="202.8" x2="265.2" y1="673.7109" y2="673.7109"/><!--MD5=[7f2a9fafcebe4f099f71398fd3e2ed00]
class Pharmacy--><rect fill="#FEFECE" filter="url(#f1a05lg0d4zq14)" height="45.4031" id="Pharmacy" style="stroke: #A80036; stroke-width: 0.8999999999999999;" width="52.2" x="207.9" y="499.2"/><ellipse cx="216.9" cy="508.8" fill="#ADD1B2" rx="6.6" ry="6.6" style="stroke: #A80036; stroke-width: 0.6;"/><path d="M218.1,506.7 Q218.2219,506.4 218.3625,506.25 Q218.5031,506.1 218.6625,506.1 Q218.9438,506.1 219.1219,506.2687 Q219.3,506.4375 219.3,506.8312 L219.3,507.7687 Q219.3,508.1625 219.1313,508.3312 Q218.9625,508.5 218.7,508.5 Q218.4656,508.5 218.3156,508.3969 Q218.1656,508.2938 218.1,508.0219 Q218.0719,507.8344 217.9688,507.7313 Q217.7813,507.5344 217.4438,507.4219 Q217.1063,507.3 216.7687,507.3 Q216.3469,507.3 215.9906,507.4688 Q215.6437,507.6375 215.3719,508.0125 Q215.1,508.3875 215.1,508.9031 L215.1,509.4562 Q215.1,510.075 215.6063,510.4875 Q216.1125,510.9 217.0125,510.9 Q217.5469,510.9 217.9219,510.7781 Q218.1375,510.7125 218.3813,510.4969 Q218.5406,510.375 218.625,510.3375 Q218.7094,510.3 218.8125,510.3 Q219.0094,510.3 219.15,510.4594 Q219.3,510.6094 219.3,510.825 Q219.3,511.0313 219.0938,511.275 Q218.7938,511.6312 218.3156,511.8281 Q217.6875,512.1 216.9188,512.1 Q216.0187,512.1 215.2969,511.7438 Q214.7156,511.4625 214.3031,510.8531 Q213.9,510.2438 213.9,509.5219 L213.9,508.8656 Q213.9,508.1156 214.2563,507.4594 Q214.6219,506.8031 215.25,506.4562 Q215.8875,506.1 216.6,506.1 Q217.0313,506.1 217.4063,506.25 Q217.7813,506.4 218.1,506.7 Z "/><text fill="#000000" font-family="sans-serif" font-size="7.2" lengthAdjust="spacingAndGlyphs" textLength="33" x="225.3" y="511.7461">Pharmacy</text><line style="stroke: #A80036; stroke-width: 0.8999999999999999;" x1="208.5" x2="259.5" y1="518.4" y2="518.4"/><text fill="#000000" font-family="sans-serif" font-size="6.6" lengthAdjust="spacingAndGlyphs" textLength="15.6" x="211.5" y="527.6514">-int id</text><text fill="#000000" font-family="sans-serif" font-size="6.6" lengthAdjust="spacingAndGlyphs" textLength="36.6" x="211.5" y="535.9529">-String name</text><line style="stroke: #A80036; stroke-width: 0.8999999999999999;" x1="208.5" x2="259.5" y1="539.8031" y2="539.8031"/><!--MD5=[28160fdc0be430cd6f04db15a7547552]
class PharmacyService--><rect fill="#FEFECE" filter="url(#f1a05lg0d4zq14)" height="45.4031" id="PharmacyService" style="stroke: #A80036; stroke-width: 0.8999999999999999;" width="76.2" x="102.9" y="247.2"/><ellipse cx="111.9" cy="256.8" fill="#ADD1B2" rx="6.6" ry="6.6" style="stroke: #A80036; stroke-width: 0.6;"/><path d="M113.1,254.7 Q113.2219,254.4 113.3625,254.25 Q113.5031,254.1 113.6625,254.1 Q113.9438,254.1 114.1219,254.2687 Q114.3,254.4375 114.3,254.8312 L114.3,255.7687 Q114.3,256.1625 114.1313,256.3313 Q113.9625,256.5 113.7,256.5 Q113.4656,256.5 113.3156,256.3969 Q113.1656,256.2938 113.1,256.0219 Q113.0719,255.8344 112.9688,255.7313 Q112.7813,255.5344 112.4438,255.4219 Q112.1063,255.3 111.7688,255.3 Q111.3469,255.3 110.9906,255.4688 Q110.6438,255.6375 110.3719,256.0125 Q110.1,256.3875 110.1,256.9031 L110.1,257.4563 Q110.1,258.075 110.6063,258.4875 Q111.1125,258.9 112.0125,258.9 Q112.5469,258.9 112.9219,258.7781 Q113.1375,258.7125 113.3813,258.4969 Q113.5406,258.375 113.625,258.3375 Q113.7094,258.3 113.8125,258.3 Q114.0094,258.3 114.15,258.4594 Q114.3,258.6094 114.3,258.825 Q114.3,259.0313 114.0938,259.275 Q113.7938,259.6312 113.3156,259.8281 Q112.6875,260.1 111.9188,260.1 Q111.0188,260.1 110.2969,259.7438 Q109.7156,259.4625 109.3031,258.8531 Q108.9,258.2438 108.9,257.5219 L108.9,256.8656 Q108.9,256.1156 109.2563,255.4594 Q109.6219,254.8031 110.25,254.4562 Q110.8875,254.1 111.6,254.1 Q112.0313,254.1 112.4063,254.25 Q112.7813,254.4 113.1,254.7 Z "/><text fill="#000000" font-family="sans-serif" font-size="7.2" lengthAdjust="spacingAndGlyphs" textLength="57" x="120.3" y="259.7461">PharmacyService</text><line style="stroke: #A80036; stroke-width: 0.8999999999999999;" x1="103.5" x2="178.5" y1="266.4" y2="266.4"/><line style="stroke: #A80036; stroke-width: 0.8999999999999999;" x1="103.5" x2="178.5" y1="271.2" y2="271.2"/><text fill="#000000" font-family="sans-serif" font-size="6.6" lengthAdjust="spacingAndGlyphs" textLength="59.4" x="106.5" y="280.4514">+PharmacyService()</text><text fill="#000000" font-family="sans-serif" font-size="6.6" lengthAdjust="spacingAndGlyphs" textLength="51" x="106.5" y="288.7529">+getPharmacies()</text><!--MD5=[aa4a745fe56463fab637f55d2a7c778f]
class ScooterService--><rect fill="#FEFECE" filter="url(#f1a05lg0d4zq14)" height="45.4031" id="ScooterService" style="stroke: #A80036; stroke-width: 0.8999999999999999;" width="76.8" x="200.4" y="247.2"/><ellipse cx="213.18" cy="256.8" fill="#ADD1B2" rx="6.6" ry="6.6" style="stroke: #A80036; stroke-width: 0.6;"/><path d="M214.38,254.7 Q214.5019,254.4 214.6425,254.25 Q214.7831,254.1 214.9425,254.1 Q215.2238,254.1 215.4019,254.2687 Q215.58,254.4375 215.58,254.8312 L215.58,255.7687 Q215.58,256.1625 215.4113,256.3313 Q215.2425,256.5 214.98,256.5 Q214.7456,256.5 214.5956,256.3969 Q214.4456,256.2938 214.38,256.0219 Q214.3519,255.8344 214.2488,255.7313 Q214.0613,255.5344 213.7238,255.4219 Q213.3863,255.3 213.0488,255.3 Q212.6269,255.3 212.2706,255.4688 Q211.9238,255.6375 211.6519,256.0125 Q211.38,256.3875 211.38,256.9031 L211.38,257.4563 Q211.38,258.075 211.8863,258.4875 Q212.3925,258.9 213.2925,258.9 Q213.8269,258.9 214.2019,258.7781 Q214.4175,258.7125 214.6613,258.4969 Q214.8206,258.375 214.905,258.3375 Q214.9894,258.3 215.0925,258.3 Q215.2894,258.3 215.43,258.4594 Q215.58,258.6094 215.58,258.825 Q215.58,259.0313 215.3738,259.275 Q215.0738,259.6312 214.5956,259.8281 Q213.9675,260.1 213.1988,260.1 Q212.2988,260.1 211.5769,259.7438 Q210.9956,259.4625 210.5831,258.8531 Q210.18,258.2438 210.18,257.5219 L210.18,256.8656 Q210.18,256.1156 210.5363,255.4594 Q210.9019,254.8031 211.53,254.4562 Q212.1675,254.1 212.88,254.1 Q213.3113,254.1 213.6863,254.25 Q214.0613,254.4 214.38,254.7 Z "/><text fill="#000000" font-family="sans-serif" font-size="7.2" lengthAdjust="spacingAndGlyphs" textLength="49.2" x="222.42" y="259.7461">ScooterService</text><line style="stroke: #A80036; stroke-width: 0.8999999999999999;" x1="201" x2="276.6" y1="266.4" y2="266.4"/><line style="stroke: #A80036; stroke-width: 0.8999999999999999;" x1="201" x2="276.6" y1="271.2" y2="271.2"/><text fill="#000000" font-family="sans-serif" font-size="6.6" lengthAdjust="spacingAndGlyphs" textLength="53.4" x="204" y="280.4514">+ScooterService()</text><text fill="#000000" font-family="sans-serif" font-size="6.6" lengthAdjust="spacingAndGlyphs" textLength="69.6" x="204" y="288.7529">+registerScooter(scoot)</text><!--MD5=[4b2d61224b33971326a22fe5d809d926]
class DataHandler--><rect fill="#FEFECE" filter="url(#f1a05lg0d4zq14)" height="45.4031" id="DataHandler" style="stroke: #A80036; stroke-width: 0.8999999999999999;" width="62.4" x="549" y="247.2"/><ellipse cx="558.54" cy="256.8" fill="#ADD1B2" rx="6.6" ry="6.6" style="stroke: #A80036; stroke-width: 0.6;"/><path d="M559.74,254.7 Q559.8619,254.4 560.0025,254.25 Q560.1431,254.1 560.3025,254.1 Q560.5838,254.1 560.7619,254.2687 Q560.94,254.4375 560.94,254.8312 L560.94,255.7687 Q560.94,256.1625 560.7713,256.3313 Q560.6025,256.5 560.34,256.5 Q560.1056,256.5 559.9556,256.3969 Q559.8056,256.2938 559.74,256.0219 Q559.7119,255.8344 559.6088,255.7313 Q559.4213,255.5344 559.0838,255.4219 Q558.7462,255.3 558.4087,255.3 Q557.9869,255.3 557.6306,255.4688 Q557.2837,255.6375 557.0119,256.0125 Q556.74,256.3875 556.74,256.9031 L556.74,257.4563 Q556.74,258.075 557.2462,258.4875 Q557.7525,258.9 558.6525,258.9 Q559.1869,258.9 559.5619,258.7781 Q559.7775,258.7125 560.0213,258.4969 Q560.1806,258.375 560.265,258.3375 Q560.3494,258.3 560.4525,258.3 Q560.6494,258.3 560.79,258.4594 Q560.94,258.6094 560.94,258.825 Q560.94,259.0313 560.7338,259.275 Q560.4337,259.6312 559.9556,259.8281 Q559.3275,260.1 558.5587,260.1 Q557.6587,260.1 556.9369,259.7438 Q556.3556,259.4625 555.9431,258.8531 Q555.54,258.2438 555.54,257.5219 L555.54,256.8656 Q555.54,256.1156 555.8963,255.4594 Q556.2619,254.8031 556.89,254.4562 Q557.5275,254.1 558.24,254.1 Q558.6713,254.1 559.0463,254.25 Q559.4213,254.4 559.74,254.7 Z "/><text fill="#000000" font-family="sans-serif" font-size="7.2" lengthAdjust="spacingAndGlyphs" textLength="42" x="567.06" y="259.7461">DataHandler</text><line style="stroke: #A80036; stroke-width: 0.8999999999999999;" x1="549.6" x2="610.8" y1="266.4" y2="266.4"/><line style="stroke: #A80036; stroke-width: 0.8999999999999999;" x1="549.6" x2="610.8" y1="271.2" y2="271.2"/><text fill="#000000" font-family="sans-serif" font-size="6.6" lengthAdjust="spacingAndGlyphs" textLength="55.2" x="552.6" y="280.4514">+openConnection()</text><text fill="#000000" font-family="sans-serif" font-size="6.6" lengthAdjust="spacingAndGlyphs" textLength="31.2" x="552.6" y="288.7529">+closeAll()</text><!--MD5=[b860ecc58d0ca70e482845cb1f7b4615]
class PharmacyDB--><rect fill="#FEFECE" filter="url(#f1a05lg0d4zq14)" height="45.4031" id="PharmacyDB" style="stroke: #A80036; stroke-width: 0.8999999999999999;" width="62.4" x="554.4" y="373.8"/><ellipse cx="563.4" cy="383.4" fill="#ADD1B2" rx="6.6" ry="6.6" style="stroke: #A80036; stroke-width: 0.6;"/><path d="M564.6,381.3 Q564.7219,381 564.8625,380.85 Q565.0031,380.7 565.1625,380.7 Q565.4438,380.7 565.6219,380.8688 Q565.8,381.0375 565.8,381.4313 L565.8,382.3688 Q565.8,382.7625 565.6313,382.9313 Q565.4625,383.1 565.2,383.1 Q564.9656,383.1 564.8156,382.9969 Q564.6656,382.8938 564.6,382.6219 Q564.5719,382.4344 564.4688,382.3313 Q564.2813,382.1344 563.9438,382.0219 Q563.6062,381.9 563.2688,381.9 Q562.8469,381.9 562.4906,382.0687 Q562.1438,382.2375 561.8719,382.6125 Q561.6,382.9875 561.6,383.5031 L561.6,384.0563 Q561.6,384.675 562.1062,385.0875 Q562.6125,385.5 563.5125,385.5 Q564.0469,385.5 564.4219,385.3781 Q564.6375,385.3125 564.8813,385.0969 Q565.0406,384.975 565.125,384.9375 Q565.2094,384.9 565.3125,384.9 Q565.5094,384.9 565.65,385.0594 Q565.8,385.2094 565.8,385.425 Q565.8,385.6312 565.5938,385.875 Q565.2937,386.2313 564.8156,386.4281 Q564.1875,386.7 563.4187,386.7 Q562.5188,386.7 561.7969,386.3438 Q561.2156,386.0625 560.8031,385.4531 Q560.4,384.8438 560.4,384.1219 L560.4,383.4656 Q560.4,382.7156 560.7563,382.0594 Q561.1219,381.4031 561.75,381.0563 Q562.3875,380.7 563.1,380.7 Q563.5313,380.7 563.9063,380.85 Q564.2813,381 564.6,381.3 Z "/><text fill="#000000" font-family="sans-serif" font-size="7.2" lengthAdjust="spacingAndGlyphs" textLength="43.2" x="571.8" y="386.3461">PharmacyDB</text><line style="stroke: #A80036; stroke-width: 0.8999999999999999;" x1="555" x2="616.2" y1="393" y2="393"/><line style="stroke: #A80036; stroke-width: 0.8999999999999999;" x1="555" x2="616.2" y1="397.8" y2="397.8"/><text fill="#000000" font-family="sans-serif" font-size="6.6" lengthAdjust="spacingAndGlyphs" textLength="45.6" x="558" y="407.0514">+PharmacyDB()</text><text fill="#000000" font-family="sans-serif" font-size="6.6" lengthAdjust="spacingAndGlyphs" textLength="51" x="558" y="415.3529">+getPharmacies()</text><!--MD5=[48d7298b3bd1f8b3e8f77915e881d788]
class ScooterDB--><rect fill="#FEFECE" filter="url(#f1a05lg0d4zq14)" height="45.4031" id="ScooterDB" style="stroke: #A80036; stroke-width: 0.8999999999999999;" width="76.8" x="456.6" y="373.8"/><ellipse cx="475.59" cy="383.4" fill="#ADD1B2" rx="6.6" ry="6.6" style="stroke: #A80036; stroke-width: 0.6;"/><path d="M476.79,381.3 Q476.9119,381 477.0525,380.85 Q477.1931,380.7 477.3525,380.7 Q477.6337,380.7 477.8119,380.8688 Q477.99,381.0375 477.99,381.4313 L477.99,382.3688 Q477.99,382.7625 477.8212,382.9313 Q477.6525,383.1 477.39,383.1 Q477.1556,383.1 477.0056,382.9969 Q476.8556,382.8938 476.79,382.6219 Q476.7619,382.4344 476.6587,382.3313 Q476.4712,382.1344 476.1337,382.0219 Q475.7963,381.9 475.4587,381.9 Q475.0369,381.9 474.6806,382.0687 Q474.3337,382.2375 474.0619,382.6125 Q473.79,382.9875 473.79,383.5031 L473.79,384.0563 Q473.79,384.675 474.2963,385.0875 Q474.8025,385.5 475.7025,385.5 Q476.2369,385.5 476.6119,385.3781 Q476.8275,385.3125 477.0712,385.0969 Q477.2306,384.975 477.315,384.9375 Q477.3994,384.9 477.5025,384.9 Q477.6994,384.9 477.84,385.0594 Q477.99,385.2094 477.99,385.425 Q477.99,385.6312 477.7837,385.875 Q477.4838,386.2313 477.0056,386.4281 Q476.3775,386.7 475.6088,386.7 Q474.7087,386.7 473.9869,386.3438 Q473.4056,386.0625 472.9931,385.4531 Q472.59,384.8438 472.59,384.1219 L472.59,383.4656 Q472.59,382.7156 472.9462,382.0594 Q473.3119,381.4031 473.94,381.0563 Q474.5775,380.7 475.29,380.7 Q475.7212,380.7 476.0962,380.85 Q476.4712,381 476.79,381.3 Z "/><text fill="#000000" font-family="sans-serif" font-size="7.2" lengthAdjust="spacingAndGlyphs" textLength="35.4" x="486.21" y="386.3461">ScooterDB</text><line style="stroke: #A80036; stroke-width: 0.8999999999999999;" x1="457.2" x2="532.8" y1="393" y2="393"/><line style="stroke: #A80036; stroke-width: 0.8999999999999999;" x1="457.2" x2="532.8" y1="397.8" y2="397.8"/><text fill="#000000" font-family="sans-serif" font-size="6.6" lengthAdjust="spacingAndGlyphs" textLength="39.6" x="460.2" y="407.0514">+ScooterDB()</text><text fill="#000000" font-family="sans-serif" font-size="6.6" lengthAdjust="spacingAndGlyphs" textLength="69.6" x="460.2" y="415.3529">+registerScooter(scoot)</text><!--MD5=[f40d64c3825bdc96a4efd5b7e3ff1420]
reverse link DataHandler to PharmacyDB--><path d="M581.6874,305.1414 C582.6312,327.0522 583.824,354.7536 584.643,373.7748 " fill="none" id="DataHandler&lt;-PharmacyDB" style="stroke: #A80036; stroke-width: 0.6;"/><polygon fill="none" points="577.4856,305.1888,581.1654,293.019,585.8778,304.827,577.4856,305.1888" style="stroke: #A80036; stroke-width: 0.6;"/><!--MD5=[a2c65173c20bdf66914a8ed43c34e217]
reverse link DataHandler to ScooterDB--><path d="M576.4176,304.9194 C574.7196,311.1966 572.2848,317.4468 568.8,322.8 C561.4092,334.1538 554.2296,331.6926 544.2,340.8 C533.0808,350.8974 521.8482,363.2946 512.9286,373.7814 " fill="none" id="DataHandler&lt;-ScooterDB" style="stroke: #A80036; stroke-width: 0.6;"/><polygon fill="none" points="572.328,303.954,578.8554,293.0436,580.5564,305.643,572.328,303.954" style="stroke: #A80036; stroke-width: 0.6;"/><!--MD5=[954f86ea882ac5dcad44771d5b1b4c17]
link RegisterScooterUI to RegisterScooterController--><path d="M199.2,64.854 C199.2,77.466 199.2,96.51 199.2,112.548 " fill="none" id="RegisterScooterUI-&gt;RegisterScooterController" style="stroke: #A80036; stroke-width: 0.6; stroke-dasharray: 7.0,7.0;"/><polygon fill="#A80036" points="199.2,115.7118,201.6,110.3118,199.2,112.7118,196.8,110.3118,199.2,115.7118" style="stroke: #A80036; stroke-width: 0.6;"/><!--MD5=[3483b254801180bcfb852ef80db9ffdb]
link RegisterScooterController to PharmacyService--><path d="M186.9996,169.8138 C176.8872,191.7066 162.6084,222.6192 152.6508,244.1766 " fill="none" id="RegisterScooterController-&gt;PharmacyService" style="stroke: #A80036; stroke-width: 0.6; stroke-dasharray: 7.0,7.0;"/><polygon fill="#A80036" points="151.3368,247.0218,155.7805,243.1265,152.5952,244.2985,151.4232,241.1131,151.3368,247.0218" style="stroke: #A80036; stroke-width: 0.6;"/><!--MD5=[fbd790f96af27a62db13e48d70800838]
link RegisterScooterController to ScooterService--><path d="M207.5016,169.8138 C214.3542,191.6172 224.0184,222.3672 230.7894,243.912 " fill="none" id="RegisterScooterController-&gt;ScooterService" style="stroke: #A80036; stroke-width: 0.6; stroke-dasharray: 7.0,7.0;"/><polygon fill="#A80036" points="231.7668,247.0218,232.4364,241.1505,230.8669,244.16,227.8574,242.5905,231.7668,247.0218" style="stroke: #A80036; stroke-width: 0.6;"/><!--MD5=[04ba2cb7f5803b19c0d0e740f2a895e0]
link Database to PharmacyDB--><path d="M410.925,284.229 C420.5304,292.2204 433.6734,301.782 447,307.2 C460.2408,312.5832 465.0726,308.0184 478.8,312 C509.3028,320.8476 519.3264,321.051 544.2,340.8 C554.6652,349.1088 563.8704,360.657 570.927,371.0442 " fill="none" id="Database-&gt;PharmacyDB" style="stroke: #A80036; stroke-width: 0.6;"/><polygon fill="#A80036" points="572.6742,373.6578,571.6674,367.8349,571.0065,371.164,567.6774,370.5031,572.6742,373.6578" style="stroke: #A80036; stroke-width: 0.6;"/><text fill="#000000" font-family="sans-serif" font-size="7.8" lengthAdjust="spacingAndGlyphs" textLength="31.8" x="514.8" y="320.6971">manages</text><text fill="#000000" font-family="sans-serif" font-size="7.8" lengthAdjust="spacingAndGlyphs" textLength="4.2" x="414.862" y="296.778">1</text><text fill="#000000" font-family="sans-serif" font-size="7.8" lengthAdjust="spacingAndGlyphs" textLength="4.2" x="565.7977" y="367.2496">1</text><!--MD5=[70f68ce34a156c56edce71dba5c758e9]
link Database to ScooterDB--><path d="M409.1658,284.2494 C416.6178,292.1628 425.9814,302.4264 433.8,312 C449.5728,331.3146 466.152,354.2562 478.0698,371.2794 " fill="none" id="Database-&gt;ScooterDB" style="stroke: #A80036; stroke-width: 0.6;"/><polygon fill="#A80036" points="479.7942,373.7472,478.6704,367.9457,478.0767,371.2875,474.7349,370.6937,479.7942,373.7472" style="stroke: #A80036; stroke-width: 0.6;"/><text fill="#000000" font-family="sans-serif" font-size="7.8" lengthAdjust="spacingAndGlyphs" textLength="31.8" x="441.6" y="320.6971">manages</text><text fill="#000000" font-family="sans-serif" font-size="7.8" lengthAdjust="spacingAndGlyphs" textLength="4.2" x="407.5248" y="296.8031">1</text><text fill="#000000" font-family="sans-serif" font-size="7.8" lengthAdjust="spacingAndGlyphs" textLength="4.2" x="477.4597" y="367.3549">1</text><!--MD5=[ee7ed70a83e67b7f86b44988d609d45d]
link ScooterService to PharmacyDB--><path d="M277.335,283.068 C319.8018,296.667 385.4742,317.244 411,322.8 C469.371,335.5056 492.6822,310.5588 544.2,340.8 C556.2,347.844 565.8336,359.8602 572.7774,370.8858 " fill="none" id="ScooterService-&gt;PharmacyDB" style="stroke: #A80036; stroke-width: 0.6;"/><polygon fill="#A80036" points="574.485,373.6644,573.7032,367.807,572.9146,371.1082,569.6134,370.3196,574.485,373.6644" style="stroke: #A80036; stroke-width: 0.6;"/><text fill="#000000" font-family="sans-serif" font-size="7.8" lengthAdjust="spacingAndGlyphs" textLength="16.8" x="411.6" y="320.6971">uses</text><text fill="#000000" font-family="sans-serif" font-size="7.8" lengthAdjust="spacingAndGlyphs" textLength="4.2" x="282.0334" y="282.5446">1</text><text fill="#000000" font-family="sans-serif" font-size="7.8" lengthAdjust="spacingAndGlyphs" textLength="3" x="572.7723" y="367.2574">*</text><!--MD5=[799b1f05f2692ceb79e345e4105e6b42]
link PharmacyService to ScooterDB--><path d="M164.5014,292.8012 C171.9738,298.5552 180.6408,304.0224 189.6,307.2 C217.3896,317.0562 293.268,306.312 322.2,312 C335.859,314.685 338.2068,319.0062 351.6,322.8 C390.345,333.7746 404.9724,321.6558 440.4,340.8 C454.1814,348.2472 466.7016,360.3078 476.2668,371.259 " fill="none" id="PharmacyService-&gt;ScooterDB" style="stroke: #A80036; stroke-width: 0.6;"/><polygon fill="#A80036" points="478.3854,373.7226,476.6846,368.0633,476.4295,371.4479,473.045,371.1928,478.3854,373.7226" style="stroke: #A80036; stroke-width: 0.6;"/><text fill="#000000" font-family="sans-serif" font-size="7.8" lengthAdjust="spacingAndGlyphs" textLength="16.8" x="352.2" y="320.6971">uses</text><text fill="#000000" font-family="sans-serif" font-size="7.8" lengthAdjust="spacingAndGlyphs" textLength="4.2" x="163.846" y="305.5035">1</text><text fill="#000000" font-family="sans-serif" font-size="7.8" lengthAdjust="spacingAndGlyphs" textLength="3" x="472.1587" y="367.326">*</text><!--MD5=[2ed2b43e7f6d114538396b0b10b28567]
link PharmacyService to Pharmacy--><path d="M102.8694,290.8128 C84.6666,302.7072 64.692,319.5966 54.6,340.8 C33.2833,385.5858 26.5196,411.5142 54.6,452.4 C88.5246,501.7956 163.1274,515.844 204.6486,519.8298 " fill="none" id="PharmacyService-&gt;Pharmacy" style="stroke: #A80036; stroke-width: 0.6;"/><polygon fill="#A80036" points="207.825,520.1214,202.6671,517.2377,204.8376,519.8471,202.2282,522.0176,207.825,520.1214" style="stroke: #A80036; stroke-width: 0.6;"/><text fill="#000000" font-family="sans-serif" font-size="7.8" lengthAdjust="spacingAndGlyphs" textLength="66.6" x="55.2" y="399.8971">manage services of</text><text fill="#000000" font-family="sans-serif" font-size="7.8" lengthAdjust="spacingAndGlyphs" textLength="4.2" x="94.0177" y="291.1849">1</text><text fill="#000000" font-family="sans-serif" font-size="7.8" lengthAdjust="spacingAndGlyphs" textLength="3" x="200.0684" y="517.5056">*</text><!--MD5=[a4fc43f4c54bc2b04150642bdfef7d93]
link ScooterService to Scooter--><path d="M212.979,292.8198 C205.776,298.155 197.6958,303.4014 189.6,307.2 C181.4028,311.046 175.398,304.8828 169.8,312 C163.275,320.2956 162.9204,329.1024 166.293,337.7724 " fill="none" id="ScooterService-&gt;Scooter" style="stroke: #A80036; stroke-width: 0.6;"/><polygon fill="#A80036" points="167.5758,340.7064,167.6096,334.7972,166.3731,337.958,163.2122,336.7215,167.5758,340.7064" style="stroke: #A80036; stroke-width: 0.6;"/><text fill="#000000" font-family="sans-serif" font-size="7.8" lengthAdjust="spacingAndGlyphs" textLength="66.6" x="170.4" y="320.6971">manage services of</text><text fill="#000000" font-family="sans-serif" font-size="7.8" lengthAdjust="spacingAndGlyphs" textLength="4.2" x="204.1546" y="305.5252">1</text><text fill="#000000" font-family="sans-serif" font-size="7.8" lengthAdjust="spacingAndGlyphs" textLength="3" x="159.1631" y="334.3668">*</text><!--MD5=[51d7b9a785c9fb041ca400474ed1d998]
link Database to Pharmacy--><path d="M393.555,284.2332 C386.637,321.6708 366.0936,425.0892 345.6,452.4 C323.7936,481.461 285.8382,501.0942 260.322,511.7664 " fill="none" id="Database-Pharmacy" style="stroke: #A80036; stroke-width: 0.6;"/><text fill="#000000" font-family="sans-serif" font-size="7.8" lengthAdjust="spacingAndGlyphs" textLength="49.2" x="382.2" y="399.8971">has registered</text><polygon fill="#000000" points="404.1,405.2109,405.9,408.8109,407.7,405.2109,404.1,405.2109" style="stroke: #000000; stroke-width: 0.6;"/><text fill="#000000" font-family="sans-serif" font-size="7.8" lengthAdjust="spacingAndGlyphs" textLength="4.2" x="388.304" y="296.7832">1</text><text fill="#000000" font-family="sans-serif" font-size="7.8" lengthAdjust="spacingAndGlyphs" textLength="3" x="264.93" y="507.8073">*</text><!--MD5=[f4a94ba2ad2673d4959409a96e63c979]
link Database to Scooter--><path d="M371.5662,279.8478 C349.6212,287.898 316.3968,299.4594 286.8,307.2 C275.7696,310.0848 270.1656,304.4754 261.6,312 C252.9504,319.5978 247.0002,329.9538 242.91,340.7994 " fill="none" id="Database-Scooter" style="stroke: #A80036; stroke-width: 0.6;"/><polygon fill="#000000" points="266.4,316.6055,262.8,318.4055,266.4,320.2055,266.4,316.6055" style="stroke: #000000; stroke-width: 0.6;"/><text fill="#000000" font-family="sans-serif" font-size="7.8" lengthAdjust="spacingAndGlyphs" textLength="49.2" x="270" y="320.6971">has registered</text><text fill="#000000" font-family="sans-serif" font-size="7.8" lengthAdjust="spacingAndGlyphs" textLength="4.2" x="362.6399" y="279.2837">1</text><text fill="#000000" font-family="sans-serif" font-size="7.8" lengthAdjust="spacingAndGlyphs" textLength="3" x="240.5236" y="334.2778">*</text><!--MD5=[6f1b2737b94c689eac8b0af6a5ef1443]
link Scooter to Pharmacy--><path d="M234,452.58 C234,469.011 234,486.0762 234,499.1034 " fill="none" id="Scooter-Pharmacy" style="stroke: #A80036; stroke-width: 0.6;"/><text fill="#000000" font-family="sans-serif" font-size="7.8" lengthAdjust="spacingAndGlyphs" textLength="36" x="234.6" y="479.0971">belongs to</text><polygon fill="#000000" points="249.9,484.4109,251.7,488.0109,253.5,484.4109,249.9,484.4109" style="stroke: #000000; stroke-width: 0.6;"/><text fill="#000000" font-family="sans-serif" font-size="7.8" lengthAdjust="spacingAndGlyphs" textLength="3" x="230.8805" y="465.5203">*</text><text fill="#000000" font-family="sans-serif" font-size="7.8" lengthAdjust="spacingAndGlyphs" textLength="4.2" x="229.4259" y="492.7033">1</text><!--MD5=[89baec1bfb4a213750f7c61516e0a0f1]
link Pharmacy to Address--><path d="M234,544.9758 C234,558.3054 234,575.6706 234,591.5544 " fill="none" id="Pharmacy-Address" style="stroke: #A80036; stroke-width: 0.6;"/><text fill="#000000" font-family="sans-serif" font-size="7.8" lengthAdjust="spacingAndGlyphs" textLength="12.6" x="234.6" y="571.4971">has</text><polygon fill="#000000" points="238.2,576.8109,240,580.4109,241.8,576.8109,238.2,576.8109" style="stroke: #000000; stroke-width: 0.6;"/><text fill="#000000" font-family="sans-serif" font-size="7.8" lengthAdjust="spacingAndGlyphs" textLength="4.2" x="229.4653" y="557.5321">1</text><text fill="#000000" font-family="sans-serif" font-size="7.8" lengthAdjust="spacingAndGlyphs" textLength="4.2" x="229.5834" y="585.0813">1</text><!--MD5=[a78296bea4c4d34722de3a0b55526a19]
@startuml
skinparam classAttributeIconSize 0

database Database {
}

package "UI" #DDDDDD {
class RegisterScooterUI{
}
}

package "Controller" #DDDDDD {
class RegisterScooterController{
+getPharmacies()
+newScooter(batteryPerc, chargingStatus, potency, weight, batteryCapacity, maxPayload, pharmacyId)
+registerScooter(scoot)
}
}


package "Model" #DDDDDD {
 package "Service" #DDDDDD {
  class PharmacyService{
      +PharmacyService()
      +getPharmacies()
  }

  class ScooterService{
      +ScooterService()
      +registerScooter(scoot)
   }
}

package "Model" #DDDDDD {
class Scooter{
  -int id
  -float batteryPerc
  -String charginStatus
  -float potency
  -float weight
  -int batteryCapacity
  -float maxPayload
  -float batteryVoltage
  +Scooter(batteryPerc, charginStatus, potency,\n weight, batteryCapacity, maxPayload, batteryVoltage, pharmacyId)
}

class Address{
  -float longitude
  -float latitude
  -String doorNumber
  -String streetName
  -String postalCode
  -String locality
  -String country
}

class Pharmacy {
  -int id
  -String name
}
}


package "Data" #DDDDDD {
class DataHandler{
    +openConnection()
    +closeAll()
}
class PharmacyDB{
     +PharmacyDB()
     +getPharmacies()
 }

 class ScooterDB{
     +ScooterDB()
     +registerScooter(scoot)
  }
}

class PharmacyDB extends DataHandler
class ScooterDB extends DataHandler

RegisterScooterUI ..> RegisterScooterController
RegisterScooterController ..> PharmacyService
RegisterScooterController ..> ScooterService
Database "1" - -> "1" PharmacyDB : manages
Database "1" - -> "1" ScooterDB : manages
ScooterService "1" - -> "*" PharmacyDB : uses
PharmacyService "1" - -> "*" ScooterDB : uses
PharmacyService "1" - -> "*" Pharmacy : manage services of
ScooterService "1" - -> "*" Scooter : manage services of

Database "1" - - "*" Pharmacy : has registered >
Database "1" - - "*" Scooter : has registered >

Scooter "*" - - "1" Pharmacy : belongs to >
Pharmacy "1" - - "1" Address : has >

@enduml

PlantUML version 1.2020.09(Sun May 10 11:51:06 BST 2020)
(GPL source distribution)
Java Runtime: OpenJDK Runtime Environment
JVM: OpenJDK 64-Bit Server VM
Java Version: 11.0.6+8-b765.40
Operating System: Windows 10
Default Encoding: Cp1252
Language: pt
Country: PT
--></g></svg>