<?xml version="1.0" encoding="UTF-8" standalone="no"?><svg xmlns="http://www.w3.org/2000/svg" xmlns:xlink="http://www.w3.org/1999/xlink" contentScriptType="application/ecmascript" contentStyleType="text/css" height="1441px" preserveAspectRatio="none" style="width:877px;height:1441px;" version="1.1" viewBox="0 0 877 1441" width="877px" zoomAndPan="magnify"><defs><filter height="300%" id="f17ozhvrf2u8ku" width="300%" x="-1" y="-1"><feGaussianBlur result="blurOut" stdDeviation="2.0"/><feColorMatrix in="blurOut" result="blurOut2" type="matrix" values="0 0 0 0 0 0 0 0 0 0 0 0 0 0 0 0 0 0 .4 0"/><feOffset dx="4.0" dy="4.0" in="blurOut2" result="blurOut3"/><feBlend in="SourceGraphic" in2="blurOut3" mode="normal"/></filter></defs><g><!--MD5=[9681dc6e01e10c6b4fe06895ae94f592]
cluster UI--><polygon fill="#DDDDDD" filter="url(#f17ozhvrf2u8ku)" points="212,24,232,24,239,47.6094,378,47.6094,378,124,212,124,212,24" style="stroke: #000000; stroke-width: 1.5;"/><line style="stroke: #000000; stroke-width: 1.5;" x1="212" x2="239" y1="47.6094" y2="47.6094"/><text fill="#000000" font-family="sans-serif" font-size="14" font-weight="bold" lengthAdjust="spacingAndGlyphs" textLength="14" x="216" y="40.5332">UI</text><!--MD5=[1f2cfc53d9d308f53762fd0fcbaa4873]
cluster Controller--><polygon fill="#DDDDDD" filter="url(#f17ozhvrf2u8ku)" points="22,157,99,157,106,180.6094,568,180.6094,568,299,22,299,22,157" style="stroke: #000000; stroke-width: 1.5;"/><line style="stroke: #000000; stroke-width: 1.5;" x1="22" x2="106" y1="180.6094" y2="180.6094"/><text fill="#000000" font-family="sans-serif" font-size="14" font-weight="bold" lengthAdjust="spacingAndGlyphs" textLength="71" x="26" y="173.5332">Controller</text><!--MD5=[15636c1ca4a123c16a2a1a8e90aca7a9]
cluster Model--><polygon fill="#DDDDDD" filter="url(#f17ozhvrf2u8ku)" points="35,332,85,332,92,355.6094,442,355.6094,442,1429,35,1429,35,332" style="stroke: #000000; stroke-width: 1.5;"/><line style="stroke: #000000; stroke-width: 1.5;" x1="35" x2="92" y1="355.6094" y2="355.6094"/><text fill="#000000" font-family="sans-serif" font-size="14" font-weight="bold" lengthAdjust="spacingAndGlyphs" textLength="44" x="39" y="348.5332">Model</text><!--MD5=[9dd75fd92da113d30380b27734fd2f01]
cluster Service--><polygon fill="#DDDDDD" filter="url(#f17ozhvrf2u8ku)" points="73,376,133,376,140,399.6094,396,399.6094,396,504,73,504,73,376" style="stroke: #000000; stroke-width: 1.5;"/><line style="stroke: #000000; stroke-width: 1.5;" x1="73" x2="140" y1="399.6094" y2="399.6094"/><text fill="#000000" font-family="sans-serif" font-size="14" font-weight="bold" lengthAdjust="spacingAndGlyphs" textLength="54" x="77" y="392.5332">Service</text><!--MD5=[f21b1f164e99c6b37934f23ad048ad54]
cluster Data--><polygon fill="#DDDDDD" filter="url(#f17ozhvrf2u8ku)" points="556,376,593,376,600,399.6094,855,399.6094,855,660,556,660,556,376" style="stroke: #000000; stroke-width: 1.5;"/><line style="stroke: #000000; stroke-width: 1.5;" x1="556" x2="600" y1="399.6094" y2="399.6094"/><text fill="#000000" font-family="sans-serif" font-size="14" font-weight="bold" lengthAdjust="spacingAndGlyphs" textLength="31" x="560" y="392.5332">Data</text><!--MD5=[fa1e3283224feb76407c84b7e90ed808]
entity Database--><path d="M458.5,436.5 C458.5,426.5 499,426.5 499,426.5 C499,426.5 539.5,426.5 539.5,436.5 L539.5,463.1094 C539.5,473.1094 499,473.1094 499,473.1094 C499,473.1094 458.5,473.1094 458.5,463.1094 L458.5,436.5 " fill="#FFFFFF" filter="url(#f17ozhvrf2u8ku)" style="stroke: #000000; stroke-width: 1.5;"/><path d="M458.5,436.5 C458.5,446.5 499,446.5 499,446.5 C499,446.5 539.5,446.5 539.5,436.5 " fill="none" style="stroke: #000000; stroke-width: 1.5;"/><text fill="#000000" font-family="sans-serif" font-size="14" lengthAdjust="spacingAndGlyphs" textLength="61" x="468.5" y="465.0332">Database</text><!--MD5=[2e02dc687a7adedd6993cedb12e41a52]
class RegisterScooterUI--><rect fill="#FEFECE" filter="url(#f17ozhvrf2u8ku)" height="48" id="RegisterScooterUI" style="stroke: #A80036; stroke-width: 1.5;" width="133" x="228.5" y="60"/><ellipse cx="243.5" cy="76" fill="#ADD1B2" rx="11" ry="11" style="stroke: #A80036; stroke-width: 1.0;"/><path d="M245.5,72.5 Q245.7031,72 245.9375,71.75 Q246.1719,71.5 246.4375,71.5 Q246.9063,71.5 247.2031,71.7813 Q247.5,72.0625 247.5,72.7188 L247.5,74.2813 Q247.5,74.9375 247.2188,75.2188 Q246.9375,75.5 246.5,75.5 Q246.1094,75.5 245.8594,75.3281 Q245.6094,75.1563 245.5,74.7031 Q245.4531,74.3906 245.2813,74.2188 Q244.9688,73.8906 244.4063,73.7031 Q243.8438,73.5 243.2813,73.5 Q242.5781,73.5 241.9844,73.7813 Q241.4063,74.0625 240.9531,74.6875 Q240.5,75.3125 240.5,76.1719 L240.5,77.0938 Q240.5,78.125 241.3438,78.8125 Q242.1875,79.5 243.6875,79.5 Q244.5781,79.5 245.2031,79.2969 Q245.5625,79.1875 245.9688,78.8281 Q246.2344,78.625 246.375,78.5625 Q246.5156,78.5 246.6875,78.5 Q247.0156,78.5 247.25,78.7656 Q247.5,79.0156 247.5,79.375 Q247.5,79.7188 247.1563,80.125 Q246.6563,80.7188 245.8594,81.0469 Q244.8125,81.5 243.5313,81.5 Q242.0313,81.5 240.8281,80.9063 Q239.8594,80.4375 239.1719,79.4219 Q238.5,78.4063 238.5,77.2031 L238.5,76.1094 Q238.5,74.8594 239.0938,73.7656 Q239.7031,72.6719 240.75,72.0938 Q241.8125,71.5 243,71.5 Q243.7188,71.5 244.3438,71.75 Q244.9688,72 245.5,72.5 Z "/><text fill="#000000" font-family="sans-serif" font-size="12" lengthAdjust="spacingAndGlyphs" textLength="101" x="257.5" y="80.9102">RegisterScooterUI</text><line style="stroke: #A80036; stroke-width: 1.5;" x1="229.5" x2="360.5" y1="92" y2="92"/><line style="stroke: #A80036; stroke-width: 1.5;" x1="229.5" x2="360.5" y1="100" y2="100"/><!--MD5=[b762eabfe222fdd6cf4857c585db3ba3]
class RegisterScooterController--><rect fill="#FEFECE" filter="url(#f17ozhvrf2u8ku)" height="89.5078" id="RegisterScooterController" style="stroke: #A80036; stroke-width: 1.5;" width="513" x="38.5" y="193"/><ellipse cx="219.25" cy="209" fill="#ADD1B2" rx="11" ry="11" style="stroke: #A80036; stroke-width: 1.0;"/><path d="M221.25,205.5 Q221.4531,205 221.6875,204.75 Q221.9219,204.5 222.1875,204.5 Q222.6563,204.5 222.9531,204.7813 Q223.25,205.0625 223.25,205.7188 L223.25,207.2813 Q223.25,207.9375 222.9688,208.2188 Q222.6875,208.5 222.25,208.5 Q221.8594,208.5 221.6094,208.3281 Q221.3594,208.1563 221.25,207.7031 Q221.2031,207.3906 221.0313,207.2188 Q220.7188,206.8906 220.1563,206.7031 Q219.5938,206.5 219.0313,206.5 Q218.3281,206.5 217.7344,206.7813 Q217.1563,207.0625 216.7031,207.6875 Q216.25,208.3125 216.25,209.1719 L216.25,210.0938 Q216.25,211.125 217.0938,211.8125 Q217.9375,212.5 219.4375,212.5 Q220.3281,212.5 220.9531,212.2969 Q221.3125,212.1875 221.7188,211.8281 Q221.9844,211.625 222.125,211.5625 Q222.2656,211.5 222.4375,211.5 Q222.7656,211.5 223,211.7656 Q223.25,212.0156 223.25,212.375 Q223.25,212.7188 222.9063,213.125 Q222.4063,213.7188 221.6094,214.0469 Q220.5625,214.5 219.2813,214.5 Q217.7813,214.5 216.5781,213.9063 Q215.6094,213.4375 214.9219,212.4219 Q214.25,211.4063 214.25,210.2031 L214.25,209.1094 Q214.25,207.8594 214.8438,206.7656 Q215.4531,205.6719 216.5,205.0938 Q217.5625,204.5 218.75,204.5 Q219.4688,204.5 220.0938,204.75 Q220.7188,205 221.25,205.5 Z "/><text fill="#000000" font-family="sans-serif" font-size="12" lengthAdjust="spacingAndGlyphs" textLength="143" x="239.75" y="213.9102">RegisterScooterController</text><line style="stroke: #A80036; stroke-width: 1.5;" x1="39.5" x2="550.5" y1="225" y2="225"/><line style="stroke: #A80036; stroke-width: 1.5;" x1="39.5" x2="550.5" y1="233" y2="233"/><text fill="#000000" font-family="sans-serif" font-size="11" lengthAdjust="spacingAndGlyphs" textLength="85" x="44.5" y="248.4189">+getPharmacies()</text><text fill="#000000" font-family="sans-serif" font-size="11" lengthAdjust="spacingAndGlyphs" textLength="501" x="44.5" y="262.2549">+newScooter(batteryPerc, chargingStatus, potency, weight, batteryCapacity, maxPayload, pharmacyId)</text><text fill="#000000" font-family="sans-serif" font-size="11" lengthAdjust="spacingAndGlyphs" textLength="116" x="44.5" y="276.0908">+registerScooter(scoot)</text><!--MD5=[868815390a9e59f0f213a5798810649b]
class ScooterPark--><rect fill="#FEFECE" filter="url(#f17ozhvrf2u8ku)" height="61.8359" id="ScooterPark" style="stroke: #A80036; stroke-width: 1.5;" width="111" x="96.5" y="1155.5"/><ellipse cx="116.9" cy="1171.5" fill="#ADD1B2" rx="11" ry="11" style="stroke: #A80036; stroke-width: 1.0;"/><path d="M118.9,1168 Q119.1031,1167.5 119.3375,1167.25 Q119.5719,1167 119.8375,1167 Q120.3063,1167 120.6031,1167.2813 Q120.9,1167.5625 120.9,1168.2188 L120.9,1169.7813 Q120.9,1170.4375 120.6188,1170.7188 Q120.3375,1171 119.9,1171 Q119.5094,1171 119.2594,1170.8281 Q119.0094,1170.6563 118.9,1170.2031 Q118.8531,1169.8906 118.6813,1169.7188 Q118.3688,1169.3906 117.8063,1169.2031 Q117.2438,1169 116.6813,1169 Q115.9781,1169 115.3844,1169.2813 Q114.8063,1169.5625 114.3531,1170.1875 Q113.9,1170.8125 113.9,1171.6719 L113.9,1172.5938 Q113.9,1173.625 114.7438,1174.3125 Q115.5875,1175 117.0875,1175 Q117.9781,1175 118.6031,1174.7969 Q118.9625,1174.6875 119.3688,1174.3281 Q119.6344,1174.125 119.775,1174.0625 Q119.9156,1174 120.0875,1174 Q120.4156,1174 120.65,1174.2656 Q120.9,1174.5156 120.9,1174.875 Q120.9,1175.2188 120.5563,1175.625 Q120.0563,1176.2188 119.2594,1176.5469 Q118.2125,1177 116.9313,1177 Q115.4313,1177 114.2281,1176.4063 Q113.2594,1175.9375 112.5719,1174.9219 Q111.9,1173.9063 111.9,1172.7031 L111.9,1171.6094 Q111.9,1170.3594 112.4938,1169.2656 Q113.1031,1168.1719 114.15,1167.5938 Q115.2125,1167 116.4,1167 Q117.1188,1167 117.7438,1167.25 Q118.3688,1167.5 118.9,1168 Z "/><text fill="#000000" font-family="sans-serif" font-size="12" lengthAdjust="spacingAndGlyphs" textLength="67" x="132.1" y="1176.4102">ScooterPark</text><line style="stroke: #A80036; stroke-width: 1.5;" x1="97.5" x2="206.5" y1="1187.5" y2="1187.5"/><text fill="#000000" font-family="sans-serif" font-size="11" lengthAdjust="spacingAndGlyphs" textLength="99" x="102.5" y="1202.9189">-int maxSlotsNumber</text><line style="stroke: #A80036; stroke-width: 1.5;" x1="97.5" x2="206.5" y1="1209.3359" y2="1209.3359"/><!--MD5=[5efbb0d0731ef97fc2ab2cfe7ed5bd27]
class ScooterChargingSlot--><rect fill="#FEFECE" filter="url(#f17ozhvrf2u8ku)" height="75.6719" id="ScooterChargingSlot" style="stroke: #A80036; stroke-width: 1.5;" width="146" x="55" y="1337"/><ellipse cx="70" cy="1353" fill="#ADD1B2" rx="11" ry="11" style="stroke: #A80036; stroke-width: 1.0;"/><path d="M72,1349.5 Q72.2031,1349 72.4375,1348.75 Q72.6719,1348.5 72.9375,1348.5 Q73.4063,1348.5 73.7031,1348.7813 Q74,1349.0625 74,1349.7188 L74,1351.2813 Q74,1351.9375 73.7188,1352.2188 Q73.4375,1352.5 73,1352.5 Q72.6094,1352.5 72.3594,1352.3281 Q72.1094,1352.1563 72,1351.7031 Q71.9531,1351.3906 71.7813,1351.2188 Q71.4688,1350.8906 70.9063,1350.7031 Q70.3438,1350.5 69.7813,1350.5 Q69.0781,1350.5 68.4844,1350.7813 Q67.9063,1351.0625 67.4531,1351.6875 Q67,1352.3125 67,1353.1719 L67,1354.0938 Q67,1355.125 67.8438,1355.8125 Q68.6875,1356.5 70.1875,1356.5 Q71.0781,1356.5 71.7031,1356.2969 Q72.0625,1356.1875 72.4688,1355.8281 Q72.7344,1355.625 72.875,1355.5625 Q73.0156,1355.5 73.1875,1355.5 Q73.5156,1355.5 73.75,1355.7656 Q74,1356.0156 74,1356.375 Q74,1356.7188 73.6563,1357.125 Q73.1563,1357.7188 72.3594,1358.0469 Q71.3125,1358.5 70.0313,1358.5 Q68.5313,1358.5 67.3281,1357.9063 Q66.3594,1357.4375 65.6719,1356.4219 Q65,1355.4063 65,1354.2031 L65,1353.1094 Q65,1351.8594 65.5938,1350.7656 Q66.2031,1349.6719 67.25,1349.0938 Q68.3125,1348.5 69.5,1348.5 Q70.2188,1348.5 70.8438,1348.75 Q71.4688,1349 72,1349.5 Z "/><text fill="#000000" font-family="sans-serif" font-size="12" lengthAdjust="spacingAndGlyphs" textLength="114" x="84" y="1357.9102">ScooterChargingSlot</text><line style="stroke: #A80036; stroke-width: 1.5;" x1="56" x2="200" y1="1369" y2="1369"/><text fill="#000000" font-family="sans-serif" font-size="11" lengthAdjust="spacingAndGlyphs" textLength="26" x="61" y="1384.4189">-int id</text><text fill="#000000" font-family="sans-serif" font-size="11" lengthAdjust="spacingAndGlyphs" textLength="90" x="61" y="1398.2549">-float outputPower</text><line style="stroke: #A80036; stroke-width: 1.5;" x1="56" x2="200" y1="1404.6719" y2="1404.6719"/><!--MD5=[d3cdad78b703b3ff47b8cf68490e772e]
class ScooterParkingSlot--><rect fill="#FEFECE" filter="url(#f17ozhvrf2u8ku)" height="61.8359" id="ScooterParkingSlot" style="stroke: #A80036; stroke-width: 1.5;" width="137" x="236.5" y="1344"/><ellipse cx="251.5" cy="1360" fill="#ADD1B2" rx="11" ry="11" style="stroke: #A80036; stroke-width: 1.0;"/><path d="M253.5,1356.5 Q253.7031,1356 253.9375,1355.75 Q254.1719,1355.5 254.4375,1355.5 Q254.9063,1355.5 255.2031,1355.7813 Q255.5,1356.0625 255.5,1356.7188 L255.5,1358.2813 Q255.5,1358.9375 255.2188,1359.2188 Q254.9375,1359.5 254.5,1359.5 Q254.1094,1359.5 253.8594,1359.3281 Q253.6094,1359.1563 253.5,1358.7031 Q253.4531,1358.3906 253.2813,1358.2188 Q252.9688,1357.8906 252.4063,1357.7031 Q251.8438,1357.5 251.2813,1357.5 Q250.5781,1357.5 249.9844,1357.7813 Q249.4063,1358.0625 248.9531,1358.6875 Q248.5,1359.3125 248.5,1360.1719 L248.5,1361.0938 Q248.5,1362.125 249.3438,1362.8125 Q250.1875,1363.5 251.6875,1363.5 Q252.5781,1363.5 253.2031,1363.2969 Q253.5625,1363.1875 253.9688,1362.8281 Q254.2344,1362.625 254.375,1362.5625 Q254.5156,1362.5 254.6875,1362.5 Q255.0156,1362.5 255.25,1362.7656 Q255.5,1363.0156 255.5,1363.375 Q255.5,1363.7188 255.1563,1364.125 Q254.6563,1364.7188 253.8594,1365.0469 Q252.8125,1365.5 251.5313,1365.5 Q250.0313,1365.5 248.8281,1364.9063 Q247.8594,1364.4375 247.1719,1363.4219 Q246.5,1362.4063 246.5,1361.2031 L246.5,1360.1094 Q246.5,1358.8594 247.0938,1357.7656 Q247.7031,1356.6719 248.75,1356.0938 Q249.8125,1355.5 251,1355.5 Q251.7188,1355.5 252.3438,1355.75 Q252.9688,1356 253.5,1356.5 Z "/><text fill="#000000" font-family="sans-serif" font-size="12" lengthAdjust="spacingAndGlyphs" textLength="105" x="265.5" y="1364.9102">ScooterParkingSlot</text><line style="stroke: #A80036; stroke-width: 1.5;" x1="237.5" x2="372.5" y1="1376" y2="1376"/><text fill="#000000" font-family="sans-serif" font-size="11" lengthAdjust="spacingAndGlyphs" textLength="26" x="242.5" y="1391.4189">-int id</text><line style="stroke: #A80036; stroke-width: 1.5;" x1="237.5" x2="372.5" y1="1397.8359" y2="1397.8359"/><!--MD5=[f4402668d5d5bb8485350c0fdb60ac8e]
class Scooter--><rect fill="#FEFECE" filter="url(#f17ozhvrf2u8ku)" height="75.6719" id="Scooter" style="stroke: #A80036; stroke-width: 1.5;" width="337" x="88.5" y="568"/><ellipse cx="231.75" cy="584" fill="#ADD1B2" rx="11" ry="11" style="stroke: #A80036; stroke-width: 1.0;"/><path d="M233.75,580.5 Q233.9531,580 234.1875,579.75 Q234.4219,579.5 234.6875,579.5 Q235.1563,579.5 235.4531,579.7813 Q235.75,580.0625 235.75,580.7188 L235.75,582.2813 Q235.75,582.9375 235.4688,583.2188 Q235.1875,583.5 234.75,583.5 Q234.3594,583.5 234.1094,583.3281 Q233.8594,583.1563 233.75,582.7031 Q233.7031,582.3906 233.5313,582.2188 Q233.2188,581.8906 232.6563,581.7031 Q232.0938,581.5 231.5313,581.5 Q230.8281,581.5 230.2344,581.7813 Q229.6563,582.0625 229.2031,582.6875 Q228.75,583.3125 228.75,584.1719 L228.75,585.0938 Q228.75,586.125 229.5938,586.8125 Q230.4375,587.5 231.9375,587.5 Q232.8281,587.5 233.4531,587.2969 Q233.8125,587.1875 234.2188,586.8281 Q234.4844,586.625 234.625,586.5625 Q234.7656,586.5 234.9375,586.5 Q235.2656,586.5 235.5,586.7656 Q235.75,587.0156 235.75,587.375 Q235.75,587.7188 235.4063,588.125 Q234.9063,588.7188 234.1094,589.0469 Q233.0625,589.5 231.7813,589.5 Q230.2813,589.5 229.0781,588.9063 Q228.1094,588.4375 227.4219,587.4219 Q226.75,586.4063 226.75,585.2031 L226.75,584.1094 Q226.75,582.8594 227.3438,581.7656 Q227.9531,580.6719 229,580.0938 Q230.0625,579.5 231.25,579.5 Q231.9688,579.5 232.5938,579.75 Q233.2188,580 233.75,580.5 Z "/><text fill="#000000" font-family="sans-serif" font-size="12" lengthAdjust="spacingAndGlyphs" textLength="42" x="252.25" y="588.9102">Scooter</text><line style="stroke: #A80036; stroke-width: 1.5;" x1="89.5" x2="424.5" y1="600" y2="600"/><line style="stroke: #A80036; stroke-width: 1.5;" x1="89.5" x2="424.5" y1="608" y2="608"/><text fill="#000000" font-family="sans-serif" font-size="11" lengthAdjust="spacingAndGlyphs" textLength="225" x="94.5" y="623.4189">+Scooter(batteryPerc, charginStatus, potency,</text><text fill="#000000" font-family="sans-serif" font-size="11" lengthAdjust="spacingAndGlyphs" textLength="322" x="97.5" y="637.2549">weight, batteryCapacity, maxPayload, batteryVoltage, pharmacyId)</text><!--MD5=[3aa0d89c6bfdcbf7f32042cedac57549]
class Vehicle--><rect fill="#FEFECE" filter="url(#f17ozhvrf2u8ku)" height="131.0156" id="Vehicle" style="stroke: #A80036; stroke-width: 1.5;" width="126" x="194" y="724"/><ellipse cx="233.3" cy="740" fill="#ADD1B2" rx="11" ry="11" style="stroke: #A80036; stroke-width: 1.0;"/><path d="M235.3,736.5 Q235.5031,736 235.7375,735.75 Q235.9719,735.5 236.2375,735.5 Q236.7063,735.5 237.0031,735.7813 Q237.3,736.0625 237.3,736.7188 L237.3,738.2813 Q237.3,738.9375 237.0188,739.2188 Q236.7375,739.5 236.3,739.5 Q235.9094,739.5 235.6594,739.3281 Q235.4094,739.1563 235.3,738.7031 Q235.2531,738.3906 235.0813,738.2188 Q234.7688,737.8906 234.2063,737.7031 Q233.6438,737.5 233.0813,737.5 Q232.3781,737.5 231.7844,737.7813 Q231.2063,738.0625 230.7531,738.6875 Q230.3,739.3125 230.3,740.1719 L230.3,741.0938 Q230.3,742.125 231.1438,742.8125 Q231.9875,743.5 233.4875,743.5 Q234.3781,743.5 235.0031,743.2969 Q235.3625,743.1875 235.7688,742.8281 Q236.0344,742.625 236.175,742.5625 Q236.3156,742.5 236.4875,742.5 Q236.8156,742.5 237.05,742.7656 Q237.3,743.0156 237.3,743.375 Q237.3,743.7188 236.9563,744.125 Q236.4563,744.7188 235.6594,745.0469 Q234.6125,745.5 233.3313,745.5 Q231.8313,745.5 230.6281,744.9063 Q229.6594,744.4375 228.9719,743.4219 Q228.3,742.4063 228.3,741.2031 L228.3,740.1094 Q228.3,738.8594 228.8938,737.7656 Q229.5031,736.6719 230.55,736.0938 Q231.6125,735.5 232.8,735.5 Q233.5188,735.5 234.1438,735.75 Q234.7688,736 235.3,736.5 Z "/><text fill="#000000" font-family="sans-serif" font-size="12" lengthAdjust="spacingAndGlyphs" textLength="40" x="252.7" y="744.9102">Vehicle</text><line style="stroke: #A80036; stroke-width: 1.5;" x1="195" x2="319" y1="756" y2="756"/><text fill="#000000" font-family="sans-serif" font-size="11" lengthAdjust="spacingAndGlyphs" textLength="26" x="200" y="771.4189">-int id</text><text fill="#000000" font-family="sans-serif" font-size="11" lengthAdjust="spacingAndGlyphs" textLength="93" x="200" y="785.2549">-String vehicleType</text><text fill="#000000" font-family="sans-serif" font-size="11" lengthAdjust="spacingAndGlyphs" textLength="67" x="200" y="799.0908">-float potency</text><text fill="#000000" font-family="sans-serif" font-size="11" lengthAdjust="spacingAndGlyphs" textLength="61" x="200" y="812.9268">-float weight</text><text fill="#000000" font-family="sans-serif" font-size="11" lengthAdjust="spacingAndGlyphs" textLength="86" x="200" y="826.7627">-float maxPayload</text><text fill="#000000" font-family="sans-serif" font-size="11" lengthAdjust="spacingAndGlyphs" textLength="114" x="200" y="840.5986">-String charngingStatus</text><line style="stroke: #A80036; stroke-width: 1.5;" x1="195" x2="319" y1="847.0156" y2="847.0156"/><!--MD5=[79eb2d862cef9730b5f9dcab29e35f17]
class Battery--><rect fill="#FEFECE" filter="url(#f17ozhvrf2u8ku)" height="103.3438" id="Battery" style="stroke: #A80036; stroke-width: 1.5;" width="111" x="75.5" y="933"/><ellipse cx="109.4" cy="949" fill="#ADD1B2" rx="11" ry="11" style="stroke: #A80036; stroke-width: 1.0;"/><path d="M111.4,945.5 Q111.6031,945 111.8375,944.75 Q112.0719,944.5 112.3375,944.5 Q112.8063,944.5 113.1031,944.7813 Q113.4,945.0625 113.4,945.7188 L113.4,947.2813 Q113.4,947.9375 113.1188,948.2188 Q112.8375,948.5 112.4,948.5 Q112.0094,948.5 111.7594,948.3281 Q111.5094,948.1563 111.4,947.7031 Q111.3531,947.3906 111.1813,947.2188 Q110.8688,946.8906 110.3063,946.7031 Q109.7438,946.5 109.1813,946.5 Q108.4781,946.5 107.8844,946.7813 Q107.3063,947.0625 106.8531,947.6875 Q106.4,948.3125 106.4,949.1719 L106.4,950.0938 Q106.4,951.125 107.2438,951.8125 Q108.0875,952.5 109.5875,952.5 Q110.4781,952.5 111.1031,952.2969 Q111.4625,952.1875 111.8688,951.8281 Q112.1344,951.625 112.275,951.5625 Q112.4156,951.5 112.5875,951.5 Q112.9156,951.5 113.15,951.7656 Q113.4,952.0156 113.4,952.375 Q113.4,952.7188 113.0563,953.125 Q112.5563,953.7188 111.7594,954.0469 Q110.7125,954.5 109.4313,954.5 Q107.9313,954.5 106.7281,953.9063 Q105.7594,953.4375 105.0719,952.4219 Q104.4,951.4063 104.4,950.2031 L104.4,949.1094 Q104.4,947.8594 104.9938,946.7656 Q105.6031,945.6719 106.65,945.0938 Q107.7125,944.5 108.9,944.5 Q109.6188,944.5 110.2438,944.75 Q110.8688,945 111.4,945.5 Z "/><text fill="#000000" font-family="sans-serif" font-size="12" lengthAdjust="spacingAndGlyphs" textLength="37" x="127.6" y="953.9102">Battery</text><line style="stroke: #A80036; stroke-width: 1.5;" x1="76.5" x2="185.5" y1="965" y2="965"/><text fill="#000000" font-family="sans-serif" font-size="11" lengthAdjust="spacingAndGlyphs" textLength="26" x="81.5" y="980.4189">-int id</text><text fill="#000000" font-family="sans-serif" font-size="11" lengthAdjust="spacingAndGlyphs" textLength="84" x="81.5" y="994.2549">-float batteryPerc</text><text fill="#000000" font-family="sans-serif" font-size="11" lengthAdjust="spacingAndGlyphs" textLength="94" x="81.5" y="1008.0908">-int batteryCapacity</text><text fill="#000000" font-family="sans-serif" font-size="11" lengthAdjust="spacingAndGlyphs" textLength="99" x="81.5" y="1021.9268">-float batteryVoltage</text><line style="stroke: #A80036; stroke-width: 1.5;" x1="76.5" x2="185.5" y1="1028.3438" y2="1028.3438"/><!--MD5=[0f39e4cb6f03951afbf6d14bd2505654]
class Address--><rect fill="#FEFECE" filter="url(#f17ozhvrf2u8ku)" height="144.8516" id="Address" style="stroke: #A80036; stroke-width: 1.5;" width="106" x="243" y="1114"/><ellipse cx="270.6" cy="1130" fill="#ADD1B2" rx="11" ry="11" style="stroke: #A80036; stroke-width: 1.0;"/><path d="M272.6,1126.5 Q272.8031,1126 273.0375,1125.75 Q273.2719,1125.5 273.5375,1125.5 Q274.0063,1125.5 274.3031,1125.7813 Q274.6,1126.0625 274.6,1126.7188 L274.6,1128.2813 Q274.6,1128.9375 274.3188,1129.2188 Q274.0375,1129.5 273.6,1129.5 Q273.2094,1129.5 272.9594,1129.3281 Q272.7094,1129.1563 272.6,1128.7031 Q272.5531,1128.3906 272.3813,1128.2188 Q272.0688,1127.8906 271.5063,1127.7031 Q270.9438,1127.5 270.3813,1127.5 Q269.6781,1127.5 269.0844,1127.7813 Q268.5063,1128.0625 268.0531,1128.6875 Q267.6,1129.3125 267.6,1130.1719 L267.6,1131.0938 Q267.6,1132.125 268.4438,1132.8125 Q269.2875,1133.5 270.7875,1133.5 Q271.6781,1133.5 272.3031,1133.2969 Q272.6625,1133.1875 273.0688,1132.8281 Q273.3344,1132.625 273.475,1132.5625 Q273.6156,1132.5 273.7875,1132.5 Q274.1156,1132.5 274.35,1132.7656 Q274.6,1133.0156 274.6,1133.375 Q274.6,1133.7188 274.2563,1134.125 Q273.7563,1134.7188 272.9594,1135.0469 Q271.9125,1135.5 270.6313,1135.5 Q269.1313,1135.5 267.9281,1134.9063 Q266.9594,1134.4375 266.2719,1133.4219 Q265.6,1132.4063 265.6,1131.2031 L265.6,1130.1094 Q265.6,1128.8594 266.1938,1127.7656 Q266.8031,1126.6719 267.85,1126.0938 Q268.9125,1125.5 270.1,1125.5 Q270.8188,1125.5 271.4438,1125.75 Q272.0688,1126 272.6,1126.5 Z "/><text fill="#000000" font-family="sans-serif" font-size="12" lengthAdjust="spacingAndGlyphs" textLength="46" x="287.4" y="1134.9102">Address</text><line style="stroke: #A80036; stroke-width: 1.5;" x1="244" x2="348" y1="1146" y2="1146"/><text fill="#000000" font-family="sans-serif" font-size="11" lengthAdjust="spacingAndGlyphs" textLength="82" x="249" y="1161.4189">-double longitude</text><text fill="#000000" font-family="sans-serif" font-size="11" lengthAdjust="spacingAndGlyphs" textLength="73" x="249" y="1175.2549">-double latitude</text><text fill="#000000" font-family="sans-serif" font-size="11" lengthAdjust="spacingAndGlyphs" textLength="94" x="249" y="1189.0908">-String doorNumber</text><text fill="#000000" font-family="sans-serif" font-size="11" lengthAdjust="spacingAndGlyphs" textLength="90" x="249" y="1202.9268">-String streetName</text><text fill="#000000" font-family="sans-serif" font-size="11" lengthAdjust="spacingAndGlyphs" textLength="89" x="249" y="1216.7627">-String postalCode</text><text fill="#000000" font-family="sans-serif" font-size="11" lengthAdjust="spacingAndGlyphs" textLength="68" x="249" y="1230.5986">-String locality</text><text fill="#000000" font-family="sans-serif" font-size="11" lengthAdjust="spacingAndGlyphs" textLength="72" x="249" y="1244.4346">-String country</text><line style="stroke: #A80036; stroke-width: 1.5;" x1="244" x2="348" y1="1250.8516" y2="1250.8516"/><!--MD5=[7f2a9fafcebe4f099f71398fd3e2ed00]
class Pharmacy--><rect fill="#FEFECE" filter="url(#f17ozhvrf2u8ku)" height="75.6719" id="Pharmacy" style="stroke: #A80036; stroke-width: 1.5;" width="87" x="221.5" y="946.5"/><ellipse cx="236.5" cy="962.5" fill="#ADD1B2" rx="11" ry="11" style="stroke: #A80036; stroke-width: 1.0;"/><path d="M238.5,959 Q238.7031,958.5 238.9375,958.25 Q239.1719,958 239.4375,958 Q239.9063,958 240.2031,958.2813 Q240.5,958.5625 240.5,959.2188 L240.5,960.7813 Q240.5,961.4375 240.2188,961.7188 Q239.9375,962 239.5,962 Q239.1094,962 238.8594,961.8281 Q238.6094,961.6563 238.5,961.2031 Q238.4531,960.8906 238.2813,960.7188 Q237.9688,960.3906 237.4063,960.2031 Q236.8438,960 236.2813,960 Q235.5781,960 234.9844,960.2813 Q234.4063,960.5625 233.9531,961.1875 Q233.5,961.8125 233.5,962.6719 L233.5,963.5938 Q233.5,964.625 234.3438,965.3125 Q235.1875,966 236.6875,966 Q237.5781,966 238.2031,965.7969 Q238.5625,965.6875 238.9688,965.3281 Q239.2344,965.125 239.375,965.0625 Q239.5156,965 239.6875,965 Q240.0156,965 240.25,965.2656 Q240.5,965.5156 240.5,965.875 Q240.5,966.2188 240.1563,966.625 Q239.6563,967.2188 238.8594,967.5469 Q237.8125,968 236.5313,968 Q235.0313,968 233.8281,967.4063 Q232.8594,966.9375 232.1719,965.9219 Q231.5,964.9063 231.5,963.7031 L231.5,962.6094 Q231.5,961.3594 232.0938,960.2656 Q232.7031,959.1719 233.75,958.5938 Q234.8125,958 236,958 Q236.7188,958 237.3438,958.25 Q237.9688,958.5 238.5,959 Z "/><text fill="#000000" font-family="sans-serif" font-size="12" lengthAdjust="spacingAndGlyphs" textLength="55" x="250.5" y="967.4102">Pharmacy</text><line style="stroke: #A80036; stroke-width: 1.5;" x1="222.5" x2="307.5" y1="978.5" y2="978.5"/><text fill="#000000" font-family="sans-serif" font-size="11" lengthAdjust="spacingAndGlyphs" textLength="26" x="227.5" y="993.9189">-int id</text><text fill="#000000" font-family="sans-serif" font-size="11" lengthAdjust="spacingAndGlyphs" textLength="61" x="227.5" y="1007.7549">-String name</text><line style="stroke: #A80036; stroke-width: 1.5;" x1="222.5" x2="307.5" y1="1014.1719" y2="1014.1719"/><!--MD5=[28160fdc0be430cd6f04db15a7547552]
class PharmacyService--><rect fill="#FEFECE" filter="url(#f17ozhvrf2u8ku)" height="75.6719" id="PharmacyService" style="stroke: #A80036; stroke-width: 1.5;" width="127" x="89.5" y="412"/><ellipse cx="104.5" cy="428" fill="#ADD1B2" rx="11" ry="11" style="stroke: #A80036; stroke-width: 1.0;"/><path d="M106.5,424.5 Q106.7031,424 106.9375,423.75 Q107.1719,423.5 107.4375,423.5 Q107.9063,423.5 108.2031,423.7813 Q108.5,424.0625 108.5,424.7188 L108.5,426.2813 Q108.5,426.9375 108.2188,427.2188 Q107.9375,427.5 107.5,427.5 Q107.1094,427.5 106.8594,427.3281 Q106.6094,427.1563 106.5,426.7031 Q106.4531,426.3906 106.2813,426.2188 Q105.9688,425.8906 105.4063,425.7031 Q104.8438,425.5 104.2813,425.5 Q103.5781,425.5 102.9844,425.7813 Q102.4063,426.0625 101.9531,426.6875 Q101.5,427.3125 101.5,428.1719 L101.5,429.0938 Q101.5,430.125 102.3438,430.8125 Q103.1875,431.5 104.6875,431.5 Q105.5781,431.5 106.2031,431.2969 Q106.5625,431.1875 106.9688,430.8281 Q107.2344,430.625 107.375,430.5625 Q107.5156,430.5 107.6875,430.5 Q108.0156,430.5 108.25,430.7656 Q108.5,431.0156 108.5,431.375 Q108.5,431.7188 108.1563,432.125 Q107.6563,432.7188 106.8594,433.0469 Q105.8125,433.5 104.5313,433.5 Q103.0313,433.5 101.8281,432.9063 Q100.8594,432.4375 100.1719,431.4219 Q99.5,430.4063 99.5,429.2031 L99.5,428.1094 Q99.5,426.8594 100.0938,425.7656 Q100.7031,424.6719 101.75,424.0938 Q102.8125,423.5 104,423.5 Q104.7188,423.5 105.3438,423.75 Q105.9688,424 106.5,424.5 Z "/><text fill="#000000" font-family="sans-serif" font-size="12" lengthAdjust="spacingAndGlyphs" textLength="95" x="118.5" y="432.9102">PharmacyService</text><line style="stroke: #A80036; stroke-width: 1.5;" x1="90.5" x2="215.5" y1="444" y2="444"/><line style="stroke: #A80036; stroke-width: 1.5;" x1="90.5" x2="215.5" y1="452" y2="452"/><text fill="#000000" font-family="sans-serif" font-size="11" lengthAdjust="spacingAndGlyphs" textLength="99" x="95.5" y="467.4189">+PharmacyService()</text><text fill="#000000" font-family="sans-serif" font-size="11" lengthAdjust="spacingAndGlyphs" textLength="85" x="95.5" y="481.2549">+getPharmacies()</text><!--MD5=[aa4a745fe56463fab637f55d2a7c778f]
class ScooterService--><rect fill="#FEFECE" filter="url(#f17ozhvrf2u8ku)" height="75.6719" id="ScooterService" style="stroke: #A80036; stroke-width: 1.5;" width="128" x="252" y="412"/><ellipse cx="273.3" cy="428" fill="#ADD1B2" rx="11" ry="11" style="stroke: #A80036; stroke-width: 1.0;"/><path d="M275.3,424.5 Q275.5031,424 275.7375,423.75 Q275.9719,423.5 276.2375,423.5 Q276.7063,423.5 277.0031,423.7813 Q277.3,424.0625 277.3,424.7188 L277.3,426.2813 Q277.3,426.9375 277.0188,427.2188 Q276.7375,427.5 276.3,427.5 Q275.9094,427.5 275.6594,427.3281 Q275.4094,427.1563 275.3,426.7031 Q275.2531,426.3906 275.0813,426.2188 Q274.7688,425.8906 274.2063,425.7031 Q273.6438,425.5 273.0813,425.5 Q272.3781,425.5 271.7844,425.7813 Q271.2063,426.0625 270.7531,426.6875 Q270.3,427.3125 270.3,428.1719 L270.3,429.0938 Q270.3,430.125 271.1438,430.8125 Q271.9875,431.5 273.4875,431.5 Q274.3781,431.5 275.0031,431.2969 Q275.3625,431.1875 275.7688,430.8281 Q276.0344,430.625 276.175,430.5625 Q276.3156,430.5 276.4875,430.5 Q276.8156,430.5 277.05,430.7656 Q277.3,431.0156 277.3,431.375 Q277.3,431.7188 276.9563,432.125 Q276.4563,432.7188 275.6594,433.0469 Q274.6125,433.5 273.3313,433.5 Q271.8313,433.5 270.6281,432.9063 Q269.6594,432.4375 268.9719,431.4219 Q268.3,430.4063 268.3,429.2031 L268.3,428.1094 Q268.3,426.8594 268.8938,425.7656 Q269.5031,424.6719 270.55,424.0938 Q271.6125,423.5 272.8,423.5 Q273.5188,423.5 274.1438,423.75 Q274.7688,424 275.3,424.5 Z "/><text fill="#000000" font-family="sans-serif" font-size="12" lengthAdjust="spacingAndGlyphs" textLength="82" x="288.7" y="432.9102">ScooterService</text><line style="stroke: #A80036; stroke-width: 1.5;" x1="253" x2="379" y1="444" y2="444"/><line style="stroke: #A80036; stroke-width: 1.5;" x1="253" x2="379" y1="452" y2="452"/><text fill="#000000" font-family="sans-serif" font-size="11" lengthAdjust="spacingAndGlyphs" textLength="89" x="258" y="467.4189">+ScooterService()</text><text fill="#000000" font-family="sans-serif" font-size="11" lengthAdjust="spacingAndGlyphs" textLength="116" x="258" y="481.2549">+registerScooter(scoot)</text><!--MD5=[4b2d61224b33971326a22fe5d809d926]
class DataHandler--><rect fill="#FEFECE" filter="url(#f17ozhvrf2u8ku)" height="75.6719" id="DataHandler" style="stroke: #A80036; stroke-width: 1.5;" width="104" x="724" y="412"/><ellipse cx="739.9" cy="428" fill="#ADD1B2" rx="11" ry="11" style="stroke: #A80036; stroke-width: 1.0;"/><path d="M741.9,424.5 Q742.1031,424 742.3375,423.75 Q742.5719,423.5 742.8375,423.5 Q743.3063,423.5 743.6031,423.7813 Q743.9,424.0625 743.9,424.7188 L743.9,426.2813 Q743.9,426.9375 743.6188,427.2188 Q743.3375,427.5 742.9,427.5 Q742.5094,427.5 742.2594,427.3281 Q742.0094,427.1563 741.9,426.7031 Q741.8531,426.3906 741.6813,426.2188 Q741.3688,425.8906 740.8063,425.7031 Q740.2438,425.5 739.6813,425.5 Q738.9781,425.5 738.3844,425.7813 Q737.8063,426.0625 737.3531,426.6875 Q736.9,427.3125 736.9,428.1719 L736.9,429.0938 Q736.9,430.125 737.7438,430.8125 Q738.5875,431.5 740.0875,431.5 Q740.9781,431.5 741.6031,431.2969 Q741.9625,431.1875 742.3688,430.8281 Q742.6344,430.625 742.775,430.5625 Q742.9156,430.5 743.0875,430.5 Q743.4156,430.5 743.65,430.7656 Q743.9,431.0156 743.9,431.375 Q743.9,431.7188 743.5563,432.125 Q743.0563,432.7188 742.2594,433.0469 Q741.2125,433.5 739.9313,433.5 Q738.4313,433.5 737.2281,432.9063 Q736.2594,432.4375 735.5719,431.4219 Q734.9,430.4063 734.9,429.2031 L734.9,428.1094 Q734.9,426.8594 735.4938,425.7656 Q736.1031,424.6719 737.15,424.0938 Q738.2125,423.5 739.4,423.5 Q740.1188,423.5 740.7438,423.75 Q741.3688,424 741.9,424.5 Z "/><text fill="#000000" font-family="sans-serif" font-size="12" lengthAdjust="spacingAndGlyphs" textLength="70" x="754.1" y="432.9102">DataHandler</text><line style="stroke: #A80036; stroke-width: 1.5;" x1="725" x2="827" y1="444" y2="444"/><line style="stroke: #A80036; stroke-width: 1.5;" x1="725" x2="827" y1="452" y2="452"/><text fill="#000000" font-family="sans-serif" font-size="11" lengthAdjust="spacingAndGlyphs" textLength="92" x="730" y="467.4189">+openConnection()</text><text fill="#000000" font-family="sans-serif" font-size="11" lengthAdjust="spacingAndGlyphs" textLength="52" x="730" y="481.2549">+closeAll()</text><!--MD5=[b860ecc58d0ca70e482845cb1f7b4615]
class PharmacyDB--><rect fill="#FEFECE" filter="url(#f17ozhvrf2u8ku)" height="75.6719" id="PharmacyDB" style="stroke: #A80036; stroke-width: 1.5;" width="104" x="735" y="568"/><ellipse cx="750" cy="584" fill="#ADD1B2" rx="11" ry="11" style="stroke: #A80036; stroke-width: 1.0;"/><path d="M752,580.5 Q752.2031,580 752.4375,579.75 Q752.6719,579.5 752.9375,579.5 Q753.4063,579.5 753.7031,579.7813 Q754,580.0625 754,580.7188 L754,582.2813 Q754,582.9375 753.7188,583.2188 Q753.4375,583.5 753,583.5 Q752.6094,583.5 752.3594,583.3281 Q752.1094,583.1563 752,582.7031 Q751.9531,582.3906 751.7813,582.2188 Q751.4688,581.8906 750.9063,581.7031 Q750.3438,581.5 749.7813,581.5 Q749.0781,581.5 748.4844,581.7813 Q747.9063,582.0625 747.4531,582.6875 Q747,583.3125 747,584.1719 L747,585.0938 Q747,586.125 747.8438,586.8125 Q748.6875,587.5 750.1875,587.5 Q751.0781,587.5 751.7031,587.2969 Q752.0625,587.1875 752.4688,586.8281 Q752.7344,586.625 752.875,586.5625 Q753.0156,586.5 753.1875,586.5 Q753.5156,586.5 753.75,586.7656 Q754,587.0156 754,587.375 Q754,587.7188 753.6563,588.125 Q753.1563,588.7188 752.3594,589.0469 Q751.3125,589.5 750.0313,589.5 Q748.5313,589.5 747.3281,588.9063 Q746.3594,588.4375 745.6719,587.4219 Q745,586.4063 745,585.2031 L745,584.1094 Q745,582.8594 745.5938,581.7656 Q746.2031,580.6719 747.25,580.0938 Q748.3125,579.5 749.5,579.5 Q750.2188,579.5 750.8438,579.75 Q751.4688,580 752,580.5 Z "/><text fill="#000000" font-family="sans-serif" font-size="12" lengthAdjust="spacingAndGlyphs" textLength="72" x="764" y="588.9102">PharmacyDB</text><line style="stroke: #A80036; stroke-width: 1.5;" x1="736" x2="838" y1="600" y2="600"/><line style="stroke: #A80036; stroke-width: 1.5;" x1="736" x2="838" y1="608" y2="608"/><text fill="#000000" font-family="sans-serif" font-size="11" lengthAdjust="spacingAndGlyphs" textLength="76" x="741" y="623.4189">+PharmacyDB()</text><text fill="#000000" font-family="sans-serif" font-size="11" lengthAdjust="spacingAndGlyphs" textLength="85" x="741" y="637.2549">+getPharmacies()</text><!--MD5=[48d7298b3bd1f8b3e8f77915e881d788]
class ScooterDB--><rect fill="#FEFECE" filter="url(#f17ozhvrf2u8ku)" height="75.6719" id="ScooterDB" style="stroke: #A80036; stroke-width: 1.5;" width="128" x="572" y="568"/><ellipse cx="603.65" cy="584" fill="#ADD1B2" rx="11" ry="11" style="stroke: #A80036; stroke-width: 1.0;"/><path d="M605.65,580.5 Q605.8531,580 606.0875,579.75 Q606.3219,579.5 606.5875,579.5 Q607.0563,579.5 607.3531,579.7813 Q607.65,580.0625 607.65,580.7188 L607.65,582.2813 Q607.65,582.9375 607.3688,583.2188 Q607.0875,583.5 606.65,583.5 Q606.2594,583.5 606.0094,583.3281 Q605.7594,583.1563 605.65,582.7031 Q605.6031,582.3906 605.4313,582.2188 Q605.1188,581.8906 604.5563,581.7031 Q603.9938,581.5 603.4313,581.5 Q602.7281,581.5 602.1344,581.7813 Q601.5563,582.0625 601.1031,582.6875 Q600.65,583.3125 600.65,584.1719 L600.65,585.0938 Q600.65,586.125 601.4938,586.8125 Q602.3375,587.5 603.8375,587.5 Q604.7281,587.5 605.3531,587.2969 Q605.7125,587.1875 606.1188,586.8281 Q606.3844,586.625 606.525,586.5625 Q606.6656,586.5 606.8375,586.5 Q607.1656,586.5 607.4,586.7656 Q607.65,587.0156 607.65,587.375 Q607.65,587.7188 607.3063,588.125 Q606.8063,588.7188 606.0094,589.0469 Q604.9625,589.5 603.6813,589.5 Q602.1813,589.5 600.9781,588.9063 Q600.0094,588.4375 599.3219,587.4219 Q598.65,586.4063 598.65,585.2031 L598.65,584.1094 Q598.65,582.8594 599.2438,581.7656 Q599.8531,580.6719 600.9,580.0938 Q601.9625,579.5 603.15,579.5 Q603.8688,579.5 604.4938,579.75 Q605.1188,580 605.65,580.5 Z "/><text fill="#000000" font-family="sans-serif" font-size="12" lengthAdjust="spacingAndGlyphs" textLength="59" x="621.35" y="588.9102">ScooterDB</text><line style="stroke: #A80036; stroke-width: 1.5;" x1="573" x2="699" y1="600" y2="600"/><line style="stroke: #A80036; stroke-width: 1.5;" x1="573" x2="699" y1="608" y2="608"/><text fill="#000000" font-family="sans-serif" font-size="11" lengthAdjust="spacingAndGlyphs" textLength="66" x="578" y="623.4189">+ScooterDB()</text><text fill="#000000" font-family="sans-serif" font-size="11" lengthAdjust="spacingAndGlyphs" textLength="116" x="578" y="637.2549">+registerScooter(scoot)</text><!--MD5=[f40d64c3825bdc96a4efd5b7e3ff1420]
reverse link DataHandler to PharmacyDB--><path d="M780.102,508.435 C781.521,528.288 783.071,549.999 784.343,567.798 " fill="none" id="DataHandler&lt;-PharmacyDB" style="stroke: #A80036; stroke-width: 1.0;"/><polygon fill="none" points="773.106,508.727,778.663,488.279,787.07,507.73,773.106,508.727" style="stroke: #A80036; stroke-width: 1.0;"/><!--MD5=[a2c65173c20bdf66914a8ed43c34e217]
reverse link DataHandler to ScooterDB--><path d="M778.874,508.372 C777.214,518.889 773.918,529.282 768,538 C763.453,544.698 731.405,561.033 700.029,575.896 " fill="none" id="DataHandler&lt;-ScooterDB" style="stroke: #A80036; stroke-width: 1.0;"/><polygon fill="none" points="771.893,507.849,780.311,488.403,785.857,508.854,771.893,507.849" style="stroke: #A80036; stroke-width: 1.0;"/><!--MD5=[954f86ea882ac5dcad44771d5b1b4c17]
link RegisterScooterUI to RegisterScooterController--><path d="M295,108.09 C295,129.11 295,160.85 295,187.58 " fill="none" id="RegisterScooterUI-&gt;RegisterScooterController" style="stroke: #A80036; stroke-width: 1.0; stroke-dasharray: 7.0,7.0;"/><polygon fill="#A80036" points="295,192.85,299,183.85,295,187.85,291,183.85,295,192.85" style="stroke: #A80036; stroke-width: 1.0;"/><!--MD5=[3483b254801180bcfb852ef80db9ffdb]
link RegisterScooterController to PharmacyService--><path d="M262.623,283.27 C253.259,296.3 243.111,310.65 234,324 C215.272,351.45 194.937,382.84 179.326,407.29 " fill="none" id="RegisterScooterController-&gt;PharmacyService" style="stroke: #A80036; stroke-width: 1.0; stroke-dasharray: 7.0,7.0;"/><polygon fill="#A80036" points="176.467,411.78,184.6763,406.3387,179.1535,407.563,177.9291,402.0403,176.467,411.78" style="stroke: #A80036; stroke-width: 1.0;"/><!--MD5=[fbd790f96af27a62db13e48d70800838]
link RegisterScooterController to ScooterService--><path d="M299.402,283.02 C303.036,319.36 308.161,370.61 311.752,406.52 " fill="none" id="RegisterScooterController-&gt;ScooterService" style="stroke: #A80036; stroke-width: 1.0; stroke-dasharray: 7.0,7.0;"/><polygon fill="#A80036" points="312.27,411.7,315.3501,402.3452,311.7701,406.7251,307.3902,403.145,312.27,411.7" style="stroke: #A80036; stroke-width: 1.0;"/><!--MD5=[04ba2cb7f5803b19c0d0e740f2a895e0]
link Database to PharmacyDB--><path d="M513.626,473.51 C523.776,487.107 538.577,503.418 556,512 C589.246,528.376 603.692,508.74 639,520 C671.157,530.255 703.999,548.213 730.55,564.989 " fill="none" id="Database-&gt;PharmacyDB" style="stroke: #A80036; stroke-width: 1.0;"/><polygon fill="#A80036" points="735.094,567.886,729.6566,559.6741,730.8783,565.1975,725.355,566.4192,735.094,567.886" style="stroke: #A80036; stroke-width: 1.0;"/><text fill="#000000" font-family="sans-serif" font-size="13" lengthAdjust="spacingAndGlyphs" textLength="53" x="684" y="534.4951">manages</text><text fill="#000000" font-family="sans-serif" font-size="13" lengthAdjust="spacingAndGlyphs" textLength="7" x="509.338" y="494.7761">1</text><text fill="#000000" font-family="sans-serif" font-size="13" lengthAdjust="spacingAndGlyphs" textLength="7" x="719.9562" y="558.658">1</text><!--MD5=[70f68ce34a156c56edce71dba5c758e9]
link Database to ScooterDB--><path d="M519.215,473.723 C540.3,497.425 573.803,535.086 599.529,564.003 " fill="none" id="Database-&gt;ScooterDB" style="stroke: #A80036; stroke-width: 1.0;"/><polygon fill="#A80036" points="602.945,567.844,599.9522,558.4609,599.6219,564.1081,593.9747,563.7778,602.945,567.844" style="stroke: #A80036; stroke-width: 1.0;"/><text fill="#000000" font-family="sans-serif" font-size="13" lengthAdjust="spacingAndGlyphs" textLength="53" x="577" y="534.4951">manages</text><text fill="#000000" font-family="sans-serif" font-size="13" lengthAdjust="spacingAndGlyphs" textLength="7" x="524.6991" y="494.6399">1</text><text fill="#000000" font-family="sans-serif" font-size="13" lengthAdjust="spacingAndGlyphs" textLength="7" x="589.4336" y="557.1781">1</text><!--MD5=[ee7ed70a83e67b7f86b44988d609d45d]
link ScooterService to PharmacyDB--><path d="M298.04,488.084 C292.53,505.29 290.726,524.805 303,538 C334.412,571.77 672.666,555.286 717,568 C721.367,569.252 725.772,570.798 730.134,572.54 " fill="none" id="ScooterService-&gt;PharmacyDB" style="stroke: #A80036; stroke-width: 1.0;"/><polygon fill="#A80036" points="734.846,574.503,728.0763,567.3496,730.2305,572.5802,724.9999,574.7344,734.846,574.503" style="stroke: #A80036; stroke-width: 1.0;"/><text fill="#000000" font-family="sans-serif" font-size="13" lengthAdjust="spacingAndGlyphs" textLength="28" x="304" y="534.4951">uses</text><text fill="#000000" font-family="sans-serif" font-size="13" lengthAdjust="spacingAndGlyphs" textLength="7" x="287.4857" y="509.2681">1</text><text fill="#000000" font-family="sans-serif" font-size="13" lengthAdjust="spacingAndGlyphs" textLength="5" x="722.1603" y="584.7416">*</text><!--MD5=[799b1f05f2692ceb79e345e4105e6b42]
link PharmacyService to ScooterDB--><path d="M187.649,488.187 C206.443,506.076 231.094,526.16 257,538 C332.759,572.625 359.97,553.529 442,568 C483.525,575.325 529.924,584.151 566.93,591.345 " fill="none" id="PharmacyService-&gt;ScooterDB" style="stroke: #A80036; stroke-width: 1.0;"/><polygon fill="#A80036" points="571.857,592.304,563.7858,586.66,566.9489,591.3498,562.2591,594.5129,571.857,592.304" style="stroke: #A80036; stroke-width: 1.0;"/><text fill="#000000" font-family="sans-serif" font-size="13" lengthAdjust="spacingAndGlyphs" textLength="28" x="258" y="534.4951">uses</text><text fill="#000000" font-family="sans-serif" font-size="13" lengthAdjust="spacingAndGlyphs" textLength="7" x="185.6134" y="509.0973">1</text><text fill="#000000" font-family="sans-serif" font-size="13" lengthAdjust="spacingAndGlyphs" textLength="5" x="559.1514" y="587.3298">*</text><!--MD5=[2ed2b43e7f6d114538396b0b10b28567]
link PharmacyService to Pharmacy--><path d="M105.7287,488.297 C96.3146,497.734 87.3779,508.491 81,520 C49.044,577.665 56.9091,603.596 71,668 C95.5677,780.29 111.782,809.756 179,903 C189.931,918.164 204.021,932.762 217.619,945.265 " fill="none" id="PharmacyService-&gt;Pharmacy" style="stroke: #A80036; stroke-width: 1.0;"/><polygon fill="#A80036" points="221.438,948.735,217.4646,939.7232,217.7366,945.3736,212.0862,945.6456,221.438,948.735" style="stroke: #A80036; stroke-width: 1.0;"/><text fill="#000000" font-family="sans-serif" font-size="13" lengthAdjust="spacingAndGlyphs" textLength="111" x="78" y="690.4951">manage services of</text><text fill="#000000" font-family="sans-serif" font-size="13" lengthAdjust="spacingAndGlyphs" textLength="7" x="90.637" y="509.2249">1</text><text fill="#000000" font-family="sans-serif" font-size="13" lengthAdjust="spacingAndGlyphs" textLength="5" x="208.5211" y="938.7664">*</text><!--MD5=[a4fc43f4c54bc2b04150642bdfef7d93]
link ScooterService to Scooter--><path d="M275.787,488.115 C263.272,497.583 248.84,506.601 234,512 C219.671,517.214 107.463,508.908 97,520 C79.8723,538.157 88.7374,553.225 109.126,565.374 " fill="none" id="ScooterService-&gt;Scooter" style="stroke: #A80036; stroke-width: 1.0;"/><polygon fill="#A80036" points="113.647,567.922,107.7716,560.0176,109.2915,565.4664,103.8427,566.9863,113.647,567.922" style="stroke: #A80036; stroke-width: 1.0;"/><text fill="#000000" font-family="sans-serif" font-size="13" lengthAdjust="spacingAndGlyphs" textLength="111" x="98" y="534.4951">manage services of</text><text fill="#000000" font-family="sans-serif" font-size="13" lengthAdjust="spacingAndGlyphs" textLength="7" x="261.547" y="509.3042">1</text><text fill="#000000" font-family="sans-serif" font-size="13" lengthAdjust="spacingAndGlyphs" textLength="5" x="82.6669" y="557.27">*</text><!--MD5=[51d7b9a785c9fb041ca400474ed1d998]
link Database to Pharmacy--><path d="M498.532,473.787 C497.779,491.488 495.858,516.55 491,538 C479.581,588.426 383.453,862.919 356,903 C343.246,921.62 325.256,938.738 308.635,952.357 " fill="none" id="Database-Pharmacy" style="stroke: #A80036; stroke-width: 1.0;"/><text fill="#000000" font-family="sans-serif" font-size="13" lengthAdjust="spacingAndGlyphs" textLength="82" x="448" y="690.4951">has registered</text><polygon fill="#000000" points="484.5,699.3516,487.5,705.3516,490.5,699.3516,484.5,699.3516" style="stroke: #000000; stroke-width: 1.0;"/><text fill="#000000" font-family="sans-serif" font-size="13" lengthAdjust="spacingAndGlyphs" textLength="7" x="490.6144" y="494.7187">1</text><text fill="#000000" font-family="sans-serif" font-size="13" lengthAdjust="spacingAndGlyphs" textLength="5" x="316.5645" y="943.0109">*</text><!--MD5=[f4a94ba2ad2673d4959409a96e63c979]
link Database to Scooter--><path d="M463.138,473.647 C441.865,487.095 414.378,504.494 390,520 C365.375,535.663 338.221,553.005 314.903,567.918 " fill="none" id="Database-Scooter" style="stroke: #A80036; stroke-width: 1.0;"/><polygon fill="#000000" points="398,527.6758,392,530.6758,398,533.6758,398,527.6758" style="stroke: #000000; stroke-width: 1.0;"/><text fill="#000000" font-family="sans-serif" font-size="13" lengthAdjust="spacingAndGlyphs" textLength="82" x="404" y="534.4951">has registered</text><text fill="#000000" font-family="sans-serif" font-size="13" lengthAdjust="spacingAndGlyphs" textLength="7" x="447.0355" y="494.5463">1</text><text fill="#000000" font-family="sans-serif" font-size="13" lengthAdjust="spacingAndGlyphs" textLength="5" x="319.7717" y="557.2653">*</text><!--MD5=[074a56c4439d52c76e1cc7a8f9d070a4]
link Vehicle to Battery--><path d="M214.869,855.035 C198.343,880.348 179.657,908.97 164.124,932.762 " fill="none" id="Vehicle-Battery" style="stroke: #A80036; stroke-width: 1.0;"/><text fill="#000000" font-family="sans-serif" font-size="13" lengthAdjust="spacingAndGlyphs" textLength="21" x="195" y="899.4951">has</text><polygon fill="#000000" points="201,908.3516,204,914.3516,207,908.3516,201,908.3516" style="stroke: #000000; stroke-width: 1.0;"/><text fill="#000000" font-family="sans-serif" font-size="13" lengthAdjust="spacingAndGlyphs" textLength="7" x="202.8781" y="876.5914">1</text><text fill="#000000" font-family="sans-serif" font-size="13" lengthAdjust="spacingAndGlyphs" textLength="7" x="161.1047" y="922.2303">1</text><!--MD5=[9793812679a856b96e8ba34e2675abcc]
link Vehicle to Pharmacy--><path d="M259.675,855.035 C260.933,885.389 262.389,920.501 263.46,946.337 " fill="none" id="Vehicle-Pharmacy" style="stroke: #A80036; stroke-width: 1.0;"/><text fill="#000000" font-family="sans-serif" font-size="13" lengthAdjust="spacingAndGlyphs" textLength="71" x="263" y="899.4951">belongs to a</text><polygon fill="#000000" points="294,908.3516,297,914.3516,300,908.3516,294,908.3516" style="stroke: #000000; stroke-width: 1.0;"/><text fill="#000000" font-family="sans-serif" font-size="13" lengthAdjust="spacingAndGlyphs" textLength="5" x="254.6941" y="876.5914">*</text><text fill="#000000" font-family="sans-serif" font-size="13" lengthAdjust="spacingAndGlyphs" textLength="7" x="255.5623" y="935.6699">1</text><!--MD5=[52f80c2c106e4280525a8160ec8cd0fa]
link Scooter to Vehicle--><path d="M257,644.167 C257,667.087 257,697.112 257,723.838 " fill="none" id="Scooter-Vehicle" style="stroke: #A80036; stroke-width: 1.0;"/><text fill="#000000" font-family="sans-serif" font-size="13" lengthAdjust="spacingAndGlyphs" textLength="64" x="258" y="690.4951">is a type of</text><polygon fill="#000000" points="285.5,699.3516,288.5,705.3516,291.5,699.3516,285.5,699.3516" style="stroke: #000000; stroke-width: 1.0;"/><text fill="#000000" font-family="sans-serif" font-size="13" lengthAdjust="spacingAndGlyphs" textLength="5" x="251.6016" y="665.0741">*</text><text fill="#000000" font-family="sans-serif" font-size="13" lengthAdjust="spacingAndGlyphs" textLength="7" x="249.6172" y="713.2947">1</text><!--MD5=[89baec1bfb4a213750f7c61516e0a0f1]
link Pharmacy to Address--><path d="M270.758,1022.65 C274.715,1048.18 280.097,1082.902 284.875,1113.726 " fill="none" id="Pharmacy-Address" style="stroke: #A80036; stroke-width: 1.0;"/><text fill="#000000" font-family="sans-serif" font-size="13" lengthAdjust="spacingAndGlyphs" textLength="21" x="281" y="1080.4951">has</text><polygon fill="#000000" points="287,1089.3516,290,1095.3516,293,1089.3516,287,1089.3516" style="stroke: #000000; stroke-width: 1.0;"/><text fill="#000000" font-family="sans-serif" font-size="13" lengthAdjust="spacingAndGlyphs" textLength="7" x="264.1179" y="1043.5544">1</text><text fill="#000000" font-family="sans-serif" font-size="13" lengthAdjust="spacingAndGlyphs" textLength="7" x="276.3668" y="1102.9171">1</text><!--MD5=[e7daa03d92f0a94af078cf78578db78d]
link Pharmacy to ScooterPark--><path d="M244.01,1022.65 C222.373,1060.945 189.052,1119.921 169.005,1155.403 " fill="none" id="Pharmacy-ScooterPark" style="stroke: #A80036; stroke-width: 1.0;"/><text fill="#000000" font-family="sans-serif" font-size="13" lengthAdjust="spacingAndGlyphs" textLength="21" x="220" y="1080.4951">has</text><polygon fill="#000000" points="226,1089.3516,229,1095.3516,232,1089.3516,226,1089.3516" style="stroke: #000000; stroke-width: 1.0;"/><text fill="#000000" font-family="sans-serif" font-size="13" lengthAdjust="spacingAndGlyphs" textLength="7" x="233.1069" y="1043.5544">1</text><text fill="#000000" font-family="sans-serif" font-size="13" lengthAdjust="spacingAndGlyphs" textLength="7" x="164.9592" y="1144.402">1</text><!--MD5=[6c03f80bb0eb412de4ede466470bd7f4]
link ScooterPark to ScooterChargingSlot--><path d="M148.091,1217.88 C143.907,1250.393 137.266,1301.993 132.776,1336.888 " fill="none" id="ScooterPark-ScooterChargingSlot" style="stroke: #A80036; stroke-width: 1.0;"/><text fill="#000000" font-family="sans-serif" font-size="13" lengthAdjust="spacingAndGlyphs" textLength="21" x="140" y="1303.4951">has</text><polygon fill="#000000" points="146,1312.3516,149,1318.3516,152,1312.3516,146,1312.3516" style="stroke: #000000; stroke-width: 1.0;"/><text fill="#000000" font-family="sans-serif" font-size="13" lengthAdjust="spacingAndGlyphs" textLength="7" x="139.6787" y="1238.9311">1</text><text fill="#000000" font-family="sans-serif" font-size="13" lengthAdjust="spacingAndGlyphs" textLength="7" x="126.0033" y="1326.23">1</text><!--MD5=[8b5c72ddee54db66c8e770f45750c925]
link ScooterPark to ScooterParkingSlot--><path d="M176.923,1217.88 C205.459,1252.664 251.917,1309.294 280.342,1343.943 " fill="none" id="ScooterPark-ScooterParkingSlot" style="stroke: #A80036; stroke-width: 1.0;"/><text fill="#000000" font-family="sans-serif" font-size="13" lengthAdjust="spacingAndGlyphs" textLength="21" x="248" y="1303.4951">has</text><polygon fill="#000000" points="254,1312.3516,257,1318.3516,260,1312.3516,254,1312.3516" style="stroke: #000000; stroke-width: 1.0;"/><text fill="#000000" font-family="sans-serif" font-size="13" lengthAdjust="spacingAndGlyphs" textLength="7" x="174.0068" y="1238.9311">1</text><text fill="#000000" font-family="sans-serif" font-size="13" lengthAdjust="spacingAndGlyphs" textLength="7" x="267.1824" y="1332.9508">1</text><!--MD5=[f31cf6d707142a37c4389c80ae145db3]
@startuml
skinparam classAttributeIconSize 0

database Database {
}

package "UI" #DDDDDD {
class RegisterScooterUI{
}
}

package "Controller" #DDDDDD {
class RegisterScooterController{
+getPharmacies()
+newScooter(batteryPerc, chargingStatus, potency, weight, batteryCapacity, maxPayload, pharmacyId)
+registerScooter(scoot)
}
}


package "Model" #DDDDDD {
 package "Service" #DDDDDD {
  class PharmacyService{
      +PharmacyService()
      +getPharmacies()
  }

  class ScooterService{
      +ScooterService()
      +registerScooter(scoot)
   }
}

package "Model" #DDDDDD {
class ScooterPark{
-   int maxSlotsNumber
}

class ScooterChargingSlot{
-   int id
-   float outputPower
}

class ScooterParkingSlot{
-   int id
}

class Scooter{
+Scooter(batteryPerc, charginStatus, potency,\n weight, batteryCapacity, maxPayload, batteryVoltage, pharmacyId)

}

class Vehicle{
  -int id
  -String vehicleType
  -float potency
  -float weight
  -float maxPayload
  -String charngingStatus
}

class Battery{
  -int id
  -float batteryPerc
  -int batteryCapacity
  -float batteryVoltage
}


class Address{
  -double longitude
  -double latitude
  -String doorNumber
  -String streetName
  -String postalCode
  -String locality
  -String country
}

class Pharmacy {
  -int id
  -String name
}
}


package "Data" #DDDDDD {
class DataHandler{
    +openConnection()
    +closeAll()
}
class PharmacyDB{
     +PharmacyDB()
     +getPharmacies()
 }

 class ScooterDB{
     +ScooterDB()
     +registerScooter(scoot)
  }
}

class PharmacyDB extends DataHandler
class ScooterDB extends DataHandler

RegisterScooterUI ..> RegisterScooterController
RegisterScooterController ..> PharmacyService
RegisterScooterController ..> ScooterService
Database "1" - -> "1" PharmacyDB : manages
Database "1" - -> "1" ScooterDB : manages
ScooterService "1" - -> "*" PharmacyDB : uses
PharmacyService "1" - -> "*" ScooterDB : uses
PharmacyService "1" - -> "*" Pharmacy : manage services of
ScooterService "1" - -> "*" Scooter : manage services of

Database "1" - - "*" Pharmacy : has registered >
Database "1" - - "*" Scooter : has registered >

Vehicle "1" - - "1" Battery : has >
Vehicle "*" - - "1" Pharmacy : belongs to a >
Scooter "*" - - "1" Vehicle : is a type of >
Pharmacy "1" - - "1" Address : has >
Pharmacy "1" - - "1" ScooterPark : has >
ScooterPark "1" - - "1" ScooterChargingSlot : has >
ScooterPark "1" - - "1" ScooterParkingSlot : has >

@enduml

PlantUML version 1.2020.09(Sun May 10 11:51:06 BST 2020)
(GPL source distribution)
Java Runtime: OpenJDK Runtime Environment
JVM: OpenJDK 64-Bit Server VM
Java Version: 11.0.6+8-b765.40
Operating System: Windows 10
Default Encoding: Cp1252
Language: pt
Country: PT
--></g></svg>