<?xml version="1.0" encoding="UTF-8" standalone="no"?><svg xmlns="http://www.w3.org/2000/svg" xmlns:xlink="http://www.w3.org/1999/xlink" contentScriptType="application/ecmascript" contentStyleType="text/css" height="1147.5px" preserveAspectRatio="none" style="width:913px;height:1147px;" version="1.1" viewBox="0 0 913 1147" width="913.75px" zoomAndPan="magnify"><defs><filter height="300%" id="f1frijyalxjjnc" width="300%" x="-1" y="-1"><feGaussianBlur result="blurOut" stdDeviation="2.5"/><feColorMatrix in="blurOut" result="blurOut2" type="matrix" values="0 0 0 0 0 0 0 0 0 0 0 0 0 0 0 0 0 0 .4 0"/><feOffset dx="5.0" dy="5.0" in="blurOut2" result="blurOut3"/><feBlend in="SourceGraphic" in2="blurOut3" mode="normal"/></filter></defs><g><!--MD5=[9681dc6e01e10c6b4fe06895ae94f592]
cluster UI--><polygon fill="#DDDDDD" filter="url(#f1frijyalxjjnc)" points="125,7.5,150,7.5,158.75,37.0117,357.5,37.0117,357.5,132.5,125,132.5,125,7.5" style="stroke:#000000;stroke-width:1.875;"/><line style="stroke:#000000;stroke-width:1.875;" x1="125" x2="158.75" y1="37.0117" y2="37.0117"/><text fill="#000000" font-family="sans-serif" font-size="17.5" font-weight="bold" lengthAdjust="spacingAndGlyphs" textLength="17.5" x="130" y="28.1665">UI</text><!--MD5=[1f2cfc53d9d308f53762fd0fcbaa4873]
cluster Controller--><polygon fill="#DDDDDD" filter="url(#f1frijyalxjjnc)" points="20,173.75,116.25,173.75,125,203.2617,380,203.2617,380,635.625,20,635.625,20,173.75" style="stroke:#000000;stroke-width:1.875;"/><line style="stroke:#000000;stroke-width:1.875;" x1="20" x2="125" y1="203.2617" y2="203.2617"/><text fill="#000000" font-family="sans-serif" font-size="17.5" font-weight="bold" lengthAdjust="spacingAndGlyphs" textLength="88.75" x="25" y="194.4165">Controller</text><!--MD5=[15636c1ca4a123c16a2a1a8e90aca7a9]
cluster Model--><polygon fill="#DDDDDD" filter="url(#f1frijyalxjjnc)" points="410,475.625,472.5,475.625,481.25,505.1367,692.5,505.1367,692.5,1138.75,410,1138.75,410,475.625" style="stroke:#000000;stroke-width:1.875;"/><line style="stroke:#000000;stroke-width:1.875;" x1="410" x2="481.25" y1="505.1367" y2="505.1367"/><text fill="#000000" font-family="sans-serif" font-size="17.5" font-weight="bold" lengthAdjust="spacingAndGlyphs" textLength="55" x="415" y="496.2915">Model</text><!--MD5=[7f5e0441b00afcd8fa9ae108c086a015]
cluster Registration--><polygon fill="#DDDDDD" filter="url(#f1frijyalxjjnc)" points="440,750,555,750,563.75,779.5117,662.5,779.5117,662.5,892.5,440,892.5,440,750" style="stroke:#000000;stroke-width:1.875;"/><line style="stroke:#000000;stroke-width:1.875;" x1="440" x2="563.75" y1="779.5117" y2="779.5117"/><text fill="#000000" font-family="sans-serif" font-size="17.5" font-weight="bold" lengthAdjust="spacingAndGlyphs" textLength="107.5" x="445" y="770.6665">Registration</text><!--MD5=[f21b1f164e99c6b37934f23ad048ad54]
cluster Data--><polygon fill="#DDDDDD" filter="url(#f1frijyalxjjnc)" points="722.5,423.75,768.75,423.75,777.5,453.2617,892.5,453.2617,892.5,687.5,722.5,687.5,722.5,423.75" style="stroke:#000000;stroke-width:1.875;"/><line style="stroke:#000000;stroke-width:1.875;" x1="722.5" x2="777.5" y1="453.2617" y2="453.2617"/><text fill="#000000" font-family="sans-serif" font-size="17.5" font-weight="bold" lengthAdjust="spacingAndGlyphs" textLength="38.75" x="727.5" y="444.4165">Data</text><!--MD5=[4deaad5e1f2c546a7ecdc722ea6059c9]
class ProductRegistrationUI--><rect codeLine="3" fill="#FEFECE" filter="url(#f1frijyalxjjnc)" height="60" id="ProductRegistrationUI" style="stroke:#A80036;stroke-width:1.875;" width="191.25" x="145.625" y="52.5"/><ellipse cx="164.375" cy="72.5" fill="#ADD1B2" rx="13.75" ry="13.75" style="stroke:#A80036;stroke-width:1.25;"/><path d="M166.875,68.125 Q167.1289,67.5 167.4219,67.1875 Q167.7148,66.875 168.0469,66.875 Q168.6328,66.875 169.0039,67.2266 Q169.375,67.5781 169.375,68.3984 L169.375,70.3516 Q169.375,71.1719 169.0234,71.5234 Q168.6719,71.875 168.125,71.875 Q167.6367,71.875 167.3242,71.6602 Q167.0117,71.4453 166.875,70.8789 Q166.8164,70.4883 166.6016,70.2734 Q166.2109,69.8633 165.5078,69.6289 Q164.8047,69.375 164.1016,69.375 Q163.2227,69.375 162.4805,69.7266 Q161.7578,70.0781 161.1914,70.8594 Q160.625,71.6406 160.625,72.7148 L160.625,73.8672 Q160.625,75.1563 161.6797,76.0156 Q162.7344,76.875 164.6094,76.875 Q165.7227,76.875 166.5039,76.6211 Q166.9531,76.4844 167.4609,76.0352 Q167.793,75.7813 167.9688,75.7031 Q168.1445,75.625 168.3594,75.625 Q168.7695,75.625 169.0625,75.957 Q169.375,76.2695 169.375,76.7188 Q169.375,77.1484 168.9453,77.6563 Q168.3203,78.3984 167.3242,78.8086 Q166.0156,79.375 164.4141,79.375 Q162.5391,79.375 161.0352,78.6328 Q159.8242,78.0469 158.9648,76.7773 Q158.125,75.5078 158.125,74.0039 L158.125,72.6367 Q158.125,71.0742 158.8672,69.707 Q159.6289,68.3398 160.9375,67.6172 Q162.2656,66.875 163.75,66.875 Q164.6484,66.875 165.4297,67.1875 Q166.2109,67.5 166.875,68.125 Z " fill="#000000"/><text fill="#000000" font-family="sans-serif" font-size="15" lengthAdjust="spacingAndGlyphs" textLength="151.25" x="181.875" y="78.6377">ProductRegistrationUI</text><line style="stroke:#A80036;stroke-width:1.875;" x1="146.875" x2="335.625" y1="92.5" y2="92.5"/><line style="stroke:#A80036;stroke-width:1.875;" x1="146.875" x2="335.625" y1="102.5" y2="102.5"/><!--MD5=[f139174f753b4a16cdf71f02c3f70992]
class ProductInformationController--><rect codeLine="8" fill="#FEFECE" filter="url(#f1frijyalxjjnc)" height="146.4746" id="ProductInformationController" style="stroke:#A80036;stroke-width:1.875;" width="237.5" x="122.5" y="218.75"/><ellipse cx="141.25" cy="238.75" fill="#ADD1B2" rx="13.75" ry="13.75" style="stroke:#A80036;stroke-width:1.25;"/><path d="M143.75,234.375 Q144.0039,233.75 144.2969,233.4375 Q144.5898,233.125 144.9219,233.125 Q145.5078,233.125 145.8789,233.4766 Q146.25,233.8281 146.25,234.6484 L146.25,236.6016 Q146.25,237.4219 145.8984,237.7734 Q145.5469,238.125 145,238.125 Q144.5117,238.125 144.1992,237.9102 Q143.8867,237.6953 143.75,237.1289 Q143.6914,236.7383 143.4766,236.5234 Q143.0859,236.1133 142.3828,235.8789 Q141.6797,235.625 140.9766,235.625 Q140.0977,235.625 139.3555,235.9766 Q138.6328,236.3281 138.0664,237.1094 Q137.5,237.8906 137.5,238.9648 L137.5,240.1172 Q137.5,241.4063 138.5547,242.2656 Q139.6094,243.125 141.4844,243.125 Q142.5977,243.125 143.3789,242.8711 Q143.8281,242.7344 144.3359,242.2852 Q144.668,242.0313 144.8438,241.9531 Q145.0195,241.875 145.2344,241.875 Q145.6445,241.875 145.9375,242.207 Q146.25,242.5195 146.25,242.9688 Q146.25,243.3984 145.8203,243.9063 Q145.1953,244.6484 144.1992,245.0586 Q142.8906,245.625 141.2891,245.625 Q139.4141,245.625 137.9102,244.8828 Q136.6992,244.2969 135.8398,243.0273 Q135,241.7578 135,240.2539 L135,238.8867 Q135,237.3242 135.7422,235.957 Q136.5039,234.5898 137.8125,233.8672 Q139.1406,233.125 140.625,233.125 Q141.5234,233.125 142.3047,233.4375 Q143.0859,233.75 143.75,234.375 Z " fill="#000000"/><text fill="#000000" font-family="sans-serif" font-size="15" lengthAdjust="spacingAndGlyphs" textLength="197.5" x="158.75" y="244.8877">ProductInformationController</text><line style="stroke:#A80036;stroke-width:1.875;" x1="123.75" x2="358.75" y1="258.75" y2="258.75"/><text fill="#000000" font-family="sans-serif" font-size="13.75" lengthAdjust="spacingAndGlyphs" textLength="27.5" x="130" y="278.0237">-app</text><text fill="#000000" font-family="sans-serif" font-size="13.75" lengthAdjust="spacingAndGlyphs" textLength="26.25" x="130" y="295.3186">-plat</text><text fill="#000000" font-family="sans-serif" font-size="13.75" lengthAdjust="spacingAndGlyphs" textLength="17.5" x="130" y="312.6135">-pr</text><line style="stroke:#A80036;stroke-width:1.875;" x1="123.75" x2="358.75" y1="320.6348" y2="320.6348"/><text fill="#000000" font-family="sans-serif" font-size="13.75" lengthAdjust="spacingAndGlyphs" textLength="165" x="130" y="339.9084">+verifyProductId(productId)</text><text fill="#000000" font-family="sans-serif" font-size="13.75" lengthAdjust="spacingAndGlyphs" textLength="166.25" x="130" y="357.2034">+removeProductFromDB(id)</text><!--MD5=[c5b08e60048ef1bcd788d24cf324082e]
class UserSession--><rect codeLine="16" fill="#FEFECE" filter="url(#f1frijyalxjjnc)" height="77.2949" id="UserSession" style="stroke:#A80036;stroke-width:1.875;" width="136.25" x="40.625" y="529.375"/><ellipse cx="61.625" cy="549.375" fill="#ADD1B2" rx="13.75" ry="13.75" style="stroke:#A80036;stroke-width:1.25;"/><path d="M64.125,545 Q64.3789,544.375 64.6719,544.0625 Q64.9648,543.75 65.2969,543.75 Q65.8828,543.75 66.2539,544.1016 Q66.625,544.4531 66.625,545.2734 L66.625,547.2266 Q66.625,548.0469 66.2734,548.3984 Q65.9219,548.75 65.375,548.75 Q64.8867,548.75 64.5742,548.5352 Q64.2617,548.3203 64.125,547.7539 Q64.0664,547.3633 63.8516,547.1484 Q63.4609,546.7383 62.7578,546.5039 Q62.0547,546.25 61.3516,546.25 Q60.4727,546.25 59.7305,546.6016 Q59.0078,546.9531 58.4414,547.7344 Q57.875,548.5156 57.875,549.5898 L57.875,550.7422 Q57.875,552.0313 58.9297,552.8906 Q59.9844,553.75 61.8594,553.75 Q62.9727,553.75 63.7539,553.4961 Q64.2031,553.3594 64.7109,552.9102 Q65.043,552.6563 65.2188,552.5781 Q65.3945,552.5 65.6094,552.5 Q66.0195,552.5 66.3125,552.832 Q66.625,553.1445 66.625,553.5938 Q66.625,554.0234 66.1953,554.5313 Q65.5703,555.2734 64.5742,555.6836 Q63.2656,556.25 61.6641,556.25 Q59.7891,556.25 58.2852,555.5078 Q57.0742,554.9219 56.2148,553.6523 Q55.375,552.3828 55.375,550.8789 L55.375,549.5117 Q55.375,547.9492 56.1172,546.582 Q56.8789,545.2148 58.1875,544.4922 Q59.5156,543.75 61,543.75 Q61.8984,543.75 62.6797,544.0625 Q63.4609,544.375 64.125,545 Z " fill="#000000"/><text fill="#000000" font-family="sans-serif" font-size="15" lengthAdjust="spacingAndGlyphs" textLength="91.25" x="79.625" y="555.5127">UserSession</text><line style="stroke:#A80036;stroke-width:1.875;" x1="41.875" x2="175.625" y1="569.375" y2="569.375"/><line style="stroke:#A80036;stroke-width:1.875;" x1="41.875" x2="175.625" y1="579.375" y2="579.375"/><text fill="#000000" font-family="sans-serif" font-size="13.75" lengthAdjust="spacingAndGlyphs" textLength="121.25" x="48.125" y="598.6487">+getEmailUtilizador()</text><!--MD5=[55ab8fe8b19adc7d0dfe7390d7a86160]
class ApplicationPot--><rect codeLine="20" fill="#FEFECE" filter="url(#f1frijyalxjjnc)" height="94.5898" id="ApplicationPot" style="stroke:#A80036;stroke-width:1.875;" width="138.75" x="220.625" y="520.625"/><ellipse cx="239.9375" cy="540.625" fill="#ADD1B2" rx="13.75" ry="13.75" style="stroke:#A80036;stroke-width:1.25;"/><path d="M242.4375,536.25 Q242.6914,535.625 242.9844,535.3125 Q243.2773,535 243.6094,535 Q244.1953,535 244.5664,535.3516 Q244.9375,535.7031 244.9375,536.5234 L244.9375,538.4766 Q244.9375,539.2969 244.5859,539.6484 Q244.2344,540 243.6875,540 Q243.1992,540 242.8867,539.7852 Q242.5742,539.5703 242.4375,539.0039 Q242.3789,538.6133 242.1641,538.3984 Q241.7734,537.9883 241.0703,537.7539 Q240.3672,537.5 239.6641,537.5 Q238.7852,537.5 238.043,537.8516 Q237.3203,538.2031 236.7539,538.9844 Q236.1875,539.7656 236.1875,540.8398 L236.1875,541.9922 Q236.1875,543.2813 237.2422,544.1406 Q238.2969,545 240.1719,545 Q241.2852,545 242.0664,544.7461 Q242.5156,544.6094 243.0234,544.1602 Q243.3555,543.9063 243.5313,543.8281 Q243.707,543.75 243.9219,543.75 Q244.332,543.75 244.625,544.082 Q244.9375,544.3945 244.9375,544.8438 Q244.9375,545.2734 244.5078,545.7813 Q243.8828,546.5234 242.8867,546.9336 Q241.5781,547.5 239.9766,547.5 Q238.1016,547.5 236.5977,546.7578 Q235.3867,546.1719 234.5273,544.9023 Q233.6875,543.6328 233.6875,542.1289 L233.6875,540.7617 Q233.6875,539.1992 234.4297,537.832 Q235.1914,536.4648 236.5,535.7422 Q237.8281,535 239.3125,535 Q240.2109,535 240.9922,535.3125 Q241.7734,535.625 242.4375,536.25 Z " fill="#000000"/><text fill="#000000" font-family="sans-serif" font-size="15" lengthAdjust="spacingAndGlyphs" textLength="97.5" x="257.5625" y="546.7627">ApplicationPot</text><line style="stroke:#A80036;stroke-width:1.875;" x1="221.875" x2="358.125" y1="560.625" y2="560.625"/><line style="stroke:#A80036;stroke-width:1.875;" x1="221.875" x2="358.125" y1="570.625" y2="570.625"/><text fill="#000000" font-family="sans-serif" font-size="13.75" lengthAdjust="spacingAndGlyphs" textLength="123.75" x="228.125" y="589.8987">+static getInstance()</text><text fill="#000000" font-family="sans-serif" font-size="13.75" lengthAdjust="spacingAndGlyphs" textLength="113.75" x="228.125" y="607.1936">+getSessaoAtual()</text><!--MD5=[99b8db98afdc2c8404e39242ef4c1e65]
class Platform--><rect codeLine="27" fill="#FEFECE" filter="url(#f1frijyalxjjnc)" height="94.5898" id="Platform" style="stroke:#A80036;stroke-width:1.875;" width="127.5" x="458.75" y="520.625"/><ellipse cx="491" cy="540.625" fill="#ADD1B2" rx="13.75" ry="13.75" style="stroke:#A80036;stroke-width:1.25;"/><path d="M493.5,536.25 Q493.7539,535.625 494.0469,535.3125 Q494.3398,535 494.6719,535 Q495.2578,535 495.6289,535.3516 Q496,535.7031 496,536.5234 L496,538.4766 Q496,539.2969 495.6484,539.6484 Q495.2969,540 494.75,540 Q494.2617,540 493.9492,539.7852 Q493.6367,539.5703 493.5,539.0039 Q493.4414,538.6133 493.2266,538.3984 Q492.8359,537.9883 492.1328,537.7539 Q491.4297,537.5 490.7266,537.5 Q489.8477,537.5 489.1055,537.8516 Q488.3828,538.2031 487.8164,538.9844 Q487.25,539.7656 487.25,540.8398 L487.25,541.9922 Q487.25,543.2813 488.3047,544.1406 Q489.3594,545 491.2344,545 Q492.3477,545 493.1289,544.7461 Q493.5781,544.6094 494.0859,544.1602 Q494.418,543.9063 494.5938,543.8281 Q494.7695,543.75 494.9844,543.75 Q495.3945,543.75 495.6875,544.082 Q496,544.3945 496,544.8438 Q496,545.2734 495.5703,545.7813 Q494.9453,546.5234 493.9492,546.9336 Q492.6406,547.5 491.0391,547.5 Q489.1641,547.5 487.6602,546.7578 Q486.4492,546.1719 485.5898,544.9023 Q484.75,543.6328 484.75,542.1289 L484.75,540.7617 Q484.75,539.1992 485.4922,537.832 Q486.2539,536.4648 487.5625,535.7422 Q488.8906,535 490.375,535 Q491.2734,535 492.0547,535.3125 Q492.8359,535.625 493.5,536.25 Z " fill="#000000"/><text fill="#000000" font-family="sans-serif" font-size="15" lengthAdjust="spacingAndGlyphs" textLength="57.5" x="511.5" y="546.7627">Platform</text><line style="stroke:#A80036;stroke-width:1.875;" x1="460" x2="585" y1="560.625" y2="560.625"/><text fill="#000000" font-family="sans-serif" font-size="13.75" lengthAdjust="spacingAndGlyphs" textLength="112.5" x="466.25" y="579.8987">-String designation</text><line style="stroke:#A80036;stroke-width:1.875;" x1="460" x2="585" y1="587.9199" y2="587.9199"/><text fill="#000000" font-family="sans-serif" font-size="13.75" lengthAdjust="spacingAndGlyphs" textLength="106.25" x="466.25" y="607.1936">+getProductReg()</text><!--MD5=[72136138052d025cffdce3c22fbd185f]
class Product--><rect codeLine="32" fill="#FEFECE" filter="url(#f1frijyalxjjnc)" height="146.4746" id="Product" style="stroke:#A80036;stroke-width:1.875;" width="147.5" x="477.5" y="972.5"/><ellipse cx="521" cy="992.5" fill="#ADD1B2" rx="13.75" ry="13.75" style="stroke:#A80036;stroke-width:1.25;"/><path d="M523.5,988.125 Q523.7539,987.5 524.0469,987.1875 Q524.3398,986.875 524.6719,986.875 Q525.2578,986.875 525.6289,987.2266 Q526,987.5781 526,988.3984 L526,990.3516 Q526,991.1719 525.6484,991.5234 Q525.2969,991.875 524.75,991.875 Q524.2617,991.875 523.9492,991.6602 Q523.6367,991.4453 523.5,990.8789 Q523.4414,990.4883 523.2266,990.2734 Q522.8359,989.8633 522.1328,989.6289 Q521.4297,989.375 520.7266,989.375 Q519.8477,989.375 519.1055,989.7266 Q518.3828,990.0781 517.8164,990.8594 Q517.25,991.6406 517.25,992.7148 L517.25,993.8672 Q517.25,995.1563 518.3047,996.0156 Q519.3594,996.875 521.2344,996.875 Q522.3477,996.875 523.1289,996.6211 Q523.5781,996.4844 524.0859,996.0352 Q524.418,995.7813 524.5938,995.7031 Q524.7695,995.625 524.9844,995.625 Q525.3945,995.625 525.6875,995.957 Q526,996.2695 526,996.7188 Q526,997.1484 525.5703,997.6563 Q524.9453,998.3984 523.9492,998.8086 Q522.6406,999.375 521.0391,999.375 Q519.1641,999.375 517.6602,998.6328 Q516.4492,998.0469 515.5898,996.7773 Q514.75,995.5078 514.75,994.0039 L514.75,992.6367 Q514.75,991.0742 515.4922,989.707 Q516.2539,988.3398 517.5625,987.6172 Q518.8906,986.875 520.375,986.875 Q521.2734,986.875 522.0547,987.1875 Q522.8359,987.5 523.5,988.125 Z " fill="#000000"/><text fill="#000000" font-family="sans-serif" font-size="15" lengthAdjust="spacingAndGlyphs" textLength="52.5" x="544" y="998.6377">Product</text><line style="stroke:#A80036;stroke-width:1.875;" x1="478.75" x2="623.75" y1="1012.5" y2="1012.5"/><text fill="#000000" font-family="sans-serif" font-size="13.75" lengthAdjust="spacingAndGlyphs" textLength="100" x="485" y="1031.7737">-String productId</text><text fill="#000000" font-family="sans-serif" font-size="13.75" lengthAdjust="spacingAndGlyphs" textLength="76.25" x="485" y="1049.0686">-String name</text><text fill="#000000" font-family="sans-serif" font-size="13.75" lengthAdjust="spacingAndGlyphs" textLength="110" x="485" y="1066.3635">-String description</text><text fill="#000000" font-family="sans-serif" font-size="13.75" lengthAdjust="spacingAndGlyphs" textLength="121.25" x="485" y="1083.6584">-Double unitaryPrice</text><text fill="#000000" font-family="sans-serif" font-size="13.75" lengthAdjust="spacingAndGlyphs" textLength="132.5" x="485" y="1100.9534">-Double unitaryWeight</text><line style="stroke:#A80036;stroke-width:1.875;" x1="478.75" x2="623.75" y1="1108.9746" y2="1108.9746"/><!--MD5=[9c2d4e25e0086734e4ce1577f70bbb4e]
class ProductRegistration--><rect codeLine="68" fill="#FEFECE" filter="url(#f1frijyalxjjnc)" height="77.2949" id="ProductRegistration" style="stroke:#A80036;stroke-width:1.875;" width="181.25" x="460.625" y="795"/><ellipse cx="481.625" cy="815" fill="#ADD1B2" rx="13.75" ry="13.75" style="stroke:#A80036;stroke-width:1.25;"/><path d="M484.125,810.625 Q484.3789,810 484.6719,809.6875 Q484.9648,809.375 485.2969,809.375 Q485.8828,809.375 486.2539,809.7266 Q486.625,810.0781 486.625,810.8984 L486.625,812.8516 Q486.625,813.6719 486.2734,814.0234 Q485.9219,814.375 485.375,814.375 Q484.8867,814.375 484.5742,814.1602 Q484.2617,813.9453 484.125,813.3789 Q484.0664,812.9883 483.8516,812.7734 Q483.4609,812.3633 482.7578,812.1289 Q482.0547,811.875 481.3516,811.875 Q480.4727,811.875 479.7305,812.2266 Q479.0078,812.5781 478.4414,813.3594 Q477.875,814.1406 477.875,815.2148 L477.875,816.3672 Q477.875,817.6563 478.9297,818.5156 Q479.9844,819.375 481.8594,819.375 Q482.9727,819.375 483.7539,819.1211 Q484.2031,818.9844 484.7109,818.5352 Q485.043,818.2813 485.2188,818.2031 Q485.3945,818.125 485.6094,818.125 Q486.0195,818.125 486.3125,818.457 Q486.625,818.7695 486.625,819.2188 Q486.625,819.6484 486.1953,820.1563 Q485.5703,820.8984 484.5742,821.3086 Q483.2656,821.875 481.6641,821.875 Q479.7891,821.875 478.2852,821.1328 Q477.0742,820.5469 476.2148,819.2773 Q475.375,818.0078 475.375,816.5039 L475.375,815.1367 Q475.375,813.5742 476.1172,812.207 Q476.8789,810.8398 478.1875,810.1172 Q479.5156,809.375 481,809.375 Q481.8984,809.375 482.6797,809.6875 Q483.4609,810 484.125,810.625 Z " fill="#000000"/><text fill="#000000" font-family="sans-serif" font-size="15" lengthAdjust="spacingAndGlyphs" textLength="136.25" x="499.625" y="821.1377">ProductRegistration</text><line style="stroke:#A80036;stroke-width:1.875;" x1="461.875" x2="640.625" y1="835" y2="835"/><line style="stroke:#A80036;stroke-width:1.875;" x1="461.875" x2="640.625" y1="845" y2="845"/><text fill="#000000" font-family="sans-serif" font-size="13.75" lengthAdjust="spacingAndGlyphs" textLength="166.25" x="468.125" y="864.2737">+removeProductFromDB(id)</text><!--MD5=[4b2d61224b33971326a22fe5d809d926]
class DataHandler--><rect codeLine="49" fill="#FEFECE" filter="url(#f1frijyalxjjnc)" height="198.3594" id="DataHandler" style="stroke:#A80036;stroke-width:1.875;" width="130" x="742.5" y="468.75"/><ellipse cx="762.375" cy="488.75" fill="#ADD1B2" rx="13.75" ry="13.75" style="stroke:#A80036;stroke-width:1.25;"/><path d="M764.875,484.375 Q765.1289,483.75 765.4219,483.4375 Q765.7148,483.125 766.0469,483.125 Q766.6328,483.125 767.0039,483.4766 Q767.375,483.8281 767.375,484.6484 L767.375,486.6016 Q767.375,487.4219 767.0234,487.7734 Q766.6719,488.125 766.125,488.125 Q765.6367,488.125 765.3242,487.9102 Q765.0117,487.6953 764.875,487.1289 Q764.8164,486.7383 764.6016,486.5234 Q764.2109,486.1133 763.5078,485.8789 Q762.8047,485.625 762.1016,485.625 Q761.2227,485.625 760.4805,485.9766 Q759.7578,486.3281 759.1914,487.1094 Q758.625,487.8906 758.625,488.9648 L758.625,490.1172 Q758.625,491.4063 759.6797,492.2656 Q760.7344,493.125 762.6094,493.125 Q763.7227,493.125 764.5039,492.8711 Q764.9531,492.7344 765.4609,492.2852 Q765.793,492.0313 765.9688,491.9531 Q766.1445,491.875 766.3594,491.875 Q766.7695,491.875 767.0625,492.207 Q767.375,492.5195 767.375,492.9688 Q767.375,493.3984 766.9453,493.9063 Q766.3203,494.6484 765.3242,495.0586 Q764.0156,495.625 762.4141,495.625 Q760.5391,495.625 759.0352,494.8828 Q757.8242,494.2969 756.9648,493.0273 Q756.125,491.7578 756.125,490.2539 L756.125,488.8867 Q756.125,487.3242 756.8672,485.957 Q757.6289,484.5898 758.9375,483.8672 Q760.2656,483.125 761.75,483.125 Q762.6484,483.125 763.4297,483.4375 Q764.2109,483.75 764.875,484.375 Z " fill="#000000"/><text fill="#000000" font-family="sans-serif" font-size="15" lengthAdjust="spacingAndGlyphs" textLength="87.5" x="780.125" y="494.8877">DataHandler</text><line style="stroke:#A80036;stroke-width:1.875;" x1="743.75" x2="871.25" y1="508.75" y2="508.75"/><text fill="#000000" font-family="sans-serif" font-size="13.75" lengthAdjust="spacingAndGlyphs" textLength="46.25" x="750" y="528.0237">-jdbcUrl</text><text fill="#000000" font-family="sans-serif" font-size="13.75" lengthAdjust="spacingAndGlyphs" textLength="65" x="750" y="545.3186">-username</text><text fill="#000000" font-family="sans-serif" font-size="13.75" lengthAdjust="spacingAndGlyphs" textLength="67.5" x="750" y="562.6135">-password</text><text fill="#000000" font-family="sans-serif" font-size="13.75" lengthAdjust="spacingAndGlyphs" textLength="71.25" x="750" y="579.9084">-connection</text><text fill="#000000" font-family="sans-serif" font-size="13.75" lengthAdjust="spacingAndGlyphs" textLength="51.25" x="750" y="597.2034">-callStmt</text><text fill="#000000" font-family="sans-serif" font-size="13.75" lengthAdjust="spacingAndGlyphs" textLength="30" x="750" y="614.4983">-rSet</text><line style="stroke:#A80036;stroke-width:1.875;" x1="743.75" x2="871.25" y1="622.5195" y2="622.5195"/><text fill="#000000" font-family="sans-serif" font-size="13.75" lengthAdjust="spacingAndGlyphs" textLength="115" x="750" y="641.7932">+openConnection()</text><text fill="#000000" font-family="sans-serif" font-size="13.75" lengthAdjust="spacingAndGlyphs" textLength="65" x="750" y="659.0881">+closeAll()</text><!--MD5=[71e179eba0e26681800a8bcdd70d2fc3]
link ProductRegistrationUI to ProductInformationController--><path codeLine="62" d="M241.25,112.5125 C241.25,138.225 241.25,177.1125 241.25,212 " fill="none" id="ProductRegistrationUI-to-ProductInformationController" style="stroke:#A80036;stroke-width:1.25;stroke-dasharray:7.0,7.0;"/><polygon fill="#A80036" points="241.25,218.475,246.25,207.225,241.25,212.225,236.25,207.225,241.25,218.475" style="stroke:#A80036;stroke-width:1.25;"/><!--MD5=[9beeaa44dffb6e1614690bba0adb57c2]
link ProductInformationController to Platform--><path codeLine="63" d="M326.9,365.0875 C344.7625,380.7875 363.25,397.55 380,413.75 C413.825,446.45 449.9125,485.275 477.3125,515.65 " fill="none" id="ProductInformationController-to-Platform" style="stroke:#A80036;stroke-width:1.25;stroke-dasharray:7.0,7.0;"/><polygon fill="#A80036" points="481.6375,520.45,477.8281,508.7431,477.4565,515.8044,470.3952,515.4328,481.6375,520.45" style="stroke:#A80036;stroke-width:1.25;"/><!--MD5=[fc1b3d12d78868cdf962d87230fd2759]
link ProductInformationController to ApplicationPot--><path codeLine="64" d="M254.0625,365.05 C262.3625,411.6625 272.9875,471.3625 280.5375,513.7125 " fill="none" id="ProductInformationController-to-ApplicationPot" style="stroke:#A80036;stroke-width:1.25;stroke-dasharray:7.0,7.0;"/><polygon fill="#A80036" points="281.7125,520.35,284.6774,508.4013,280.6243,514.1955,274.8301,510.1424,281.7125,520.35" style="stroke:#A80036;stroke-width:1.25;"/><!--MD5=[e2618e1083405a6e3bb7bd8d0d61255d]
link ProductInformationController to UserSession--><path codeLine="65" d="M206.4375,365.05 C182.175,415.175 150.5875,480.4375 130,522.975 " fill="none" id="ProductInformationController-to-UserSession" style="stroke:#A80036;stroke-width:1.25;stroke-dasharray:7.0,7.0;"/><polygon fill="#A80036" points="127.0375,529.075,136.4502,521.1401,129.7681,523.4531,127.4551,516.771,127.0375,529.075" style="stroke:#A80036;stroke-width:1.25;"/><!--MD5=[d66af76ceb485933559009e4f59cdc90]
link Platform to ProductRegistration--><path codeLine="66" d="M527.575,615.8125 C533.1375,666.7125 541.95,747.4 547.1125,794.625 " fill="none" id="Platform-ProductRegistration" style="stroke:#A80036;stroke-width:1.25;"/><polygon fill="#000000" points="546.9289,725.1828,549.3527,713.5443,542.0489,714.3423,546.9289,725.1828" style="stroke:#000000;stroke-width:1.25;"/><text fill="#000000" font-family="sans-serif" font-size="16.25" lengthAdjust="spacingAndGlyphs" textLength="26.25" x="557.5" y="725.6189">has</text><text fill="#000000" font-family="sans-serif" font-size="16.25" lengthAdjust="spacingAndGlyphs" textLength="8.75" x="518.9366" y="641.943">1</text><text fill="#000000" font-family="sans-serif" font-size="16.25" lengthAdjust="spacingAndGlyphs" textLength="8.75" x="536.6068" y="781.4283">1</text><!--MD5=[3952d548186971eff118ff5187ac3af9]
link ProductRegistration to Product--><path codeLine="67" d="M551.25,872.9125 C551.25,900.6125 551.25,939 551.25,972.4375 " fill="none" id="ProductRegistration-Product" style="stroke:#A80036;stroke-width:1.25;"/><polygon fill="#000000" points="557.5,930.2197,561.1737,918.9134,553.8263,918.9134,557.5,930.2197" style="stroke:#000000;stroke-width:1.25;"/><text fill="#000000" font-family="sans-serif" font-size="16.25" lengthAdjust="spacingAndGlyphs" textLength="56.25" x="568.75" y="930.6189">Creates</text><text fill="#000000" font-family="sans-serif" font-size="16.25" lengthAdjust="spacingAndGlyphs" textLength="8.75" x="541.666" y="899.2144">1</text><text fill="#000000" font-family="sans-serif" font-size="16.25" lengthAdjust="spacingAndGlyphs" textLength="25" x="524.7266" y="959.181">1..*</text><!--MD5=[236efe61c3b933e5e93090a082570e59]
reverse link DataHandler to ProductRegistration--><path d="M726.45,686.2125 C714.0625,701.525 700.9125,716.5375 687.5,730 C663.675,753.9 634.05,776.8375 608.525,794.9375 " fill="none" id="DataHandler-backto-ProductRegistration" style="stroke:#A80036;stroke-width:1.25;"/><polygon fill="none" points="719.95,680.325,742.25,666.0375,733.725,691.1125,719.95,680.325" style="stroke:#A80036;stroke-width:1.25;"/><!--MD5=[dc4d38303374ad67a16ab3c5a86a5a46]
@startuml
skinparam classAttributeIconSize 0
package "UI" #DDDDDD {
    class ProductRegistrationUI{
    }
}

package "Controller" #DDDDDD {
    class ProductInformationController{
        -app
        -plat
        -pr
        +verifyProductId(productId)
        +removeProductFromDB(id)
    }

    class UserSession {
        +getEmailUtilizador()
    }

    class ApplicationPot {
        +static getInstance()
        +getSessaoAtual()
    }
}

package "Model" #DDDDDD {
    class Platform {
        -String designation
        +getProductReg()
    }

    class Product{
        -String productId
        -String name
        -String description
        -Double unitaryPrice
        -Double unitaryWeight
    }

    package "Registration" #DDDDDD {
        class ProductRegistration{
            +removeProductFromDB(id)
        }
    }
}


package "Data" #DDDDDD {
    class DataHandler{
        -jdbcUrl
        -username
        -password
        -connection
        -callStmt
        -rSet
        +openConnection()
        +closeAll()
    }
}


ProductRegistrationUI ..> ProductInformationController
ProductInformationController ..> Platform
ProductInformationController ..> ApplicationPot
ProductInformationController ..> UserSession
Platform "1" - - "1" ProductRegistration: has >
ProductRegistration "1" - - "1..*" Product: Creates >
class ProductRegistration extends DataHandler
@enduml

PlantUML version 1.2020.23(Sun Dec 13 19:14:58 GMT 2020)
(GPL source distribution)
Java Runtime: OpenJDK Runtime Environment
JVM: OpenJDK 64-Bit Server VM
Default Encoding: Cp1252
Language: pt
Country: PT
--></g></svg>