<?xml version="1.0" encoding="UTF-8" standalone="no"?><svg xmlns="http://www.w3.org/2000/svg" xmlns:xlink="http://www.w3.org/1999/xlink" contentScriptType="application/ecmascript" contentStyleType="text/css" height="541px" preserveAspectRatio="none" style="width:709px;height:541px;" version="1.1" viewBox="0 0 709 541" width="709px" zoomAndPan="magnify"><defs><filter height="300%" id="f1w9v5rtfn5quw" width="300%" x="-1" y="-1"><feGaussianBlur result="blurOut" stdDeviation="2.0"/><feColorMatrix in="blurOut" result="blurOut2" type="matrix" values="0 0 0 0 0 0 0 0 0 0 0 0 0 0 0 0 0 0 .4 0"/><feOffset dx="4.0" dy="4.0" in="blurOut2" result="blurOut3"/><feBlend in="SourceGraphic" in2="blurOut3" mode="normal"/></filter></defs><g><!--MD5=[9681dc6e01e10c6b4fe06895ae94f592]
cluster UI--><polygon fill="#DDDDDD" filter="url(#f1w9v5rtfn5quw)" points="37,6,57,6,64,29.6094,217,29.6094,217,106,37,106,37,6" style="stroke:#000000;stroke-width:1.5;"/><line style="stroke:#000000;stroke-width:1.5;" x1="37" x2="64" y1="29.6094" y2="29.6094"/><text fill="#000000" font-family="sans-serif" font-size="14" font-weight="bold" lengthAdjust="spacing" textLength="14" x="41" y="22.5332">UI</text><!--MD5=[1f2cfc53d9d308f53762fd0fcbaa4873]
cluster Controller--><polygon fill="#DDDDDD" filter="url(#f1w9v5rtfn5quw)" points="16,139,93,139,100,162.6094,238,162.6094,238,267,16,267,16,139" style="stroke:#000000;stroke-width:1.5;"/><line style="stroke:#000000;stroke-width:1.5;" x1="16" x2="100" y1="162.6094" y2="162.6094"/><text fill="#000000" font-family="sans-serif" font-size="14" font-weight="bold" lengthAdjust="spacing" textLength="71" x="20" y="155.5332">Controller</text><!--MD5=[15636c1ca4a123c16a2a1a8e90aca7a9]
cluster Model--><polygon fill="#DDDDDD" filter="url(#f1w9v5rtfn5quw)" points="19,324,69,324,76,347.6094,602,347.6094,602,534,19,534,19,324" style="stroke:#000000;stroke-width:1.5;"/><line style="stroke:#000000;stroke-width:1.5;" x1="19" x2="76" y1="347.6094" y2="347.6094"/><text fill="#000000" font-family="sans-serif" font-size="14" font-weight="bold" lengthAdjust="spacing" textLength="44" x="23" y="340.5332">Model</text><!--MD5=[9dd75fd92da113d30380b27734fd2f01]
cluster Service--><polygon fill="#DDDDDD" filter="url(#f1w9v5rtfn5quw)" points="43,368,103,368,110,391.6094,211,391.6094,211,510,43,510,43,368" style="stroke:#000000;stroke-width:1.5;"/><line style="stroke:#000000;stroke-width:1.5;" x1="43" x2="110" y1="391.6094" y2="391.6094"/><text fill="#000000" font-family="sans-serif" font-size="14" font-weight="bold" lengthAdjust="spacing" textLength="54" x="47" y="384.5332">Service</text><!--MD5=[f21b1f164e99c6b37934f23ad048ad54]
cluster Data--><polygon fill="#DDDDDD" filter="url(#f1w9v5rtfn5quw)" points="324,6,361,6,368,29.6094,492,29.6094,492,274,324,274,324,6" style="stroke:#000000;stroke-width:1.5;"/><line style="stroke:#000000;stroke-width:1.5;" x1="324" x2="368" y1="29.6094" y2="29.6094"/><text fill="#000000" font-family="sans-serif" font-size="14" font-weight="bold" lengthAdjust="spacing" textLength="31" x="328" y="22.5332">Data</text><!--MD5=[2ad01079924d5d773ba4a070e050cd95]
class ProductInformationUI--><rect codeLine="3" fill="#FEFECE" filter="url(#f1w9v5rtfn5quw)" height="48" id="ProductInformationUI" style="stroke:#A80036;stroke-width:1.5;" width="148" x="53" y="42"/><ellipse cx="68" cy="58" fill="#ADD1B2" rx="11" ry="11" style="stroke:#A80036;stroke-width:1.0;"/><path d="M70,54.5 Q70.2031,54 70.4375,53.75 Q70.6719,53.5 70.9375,53.5 Q71.4063,53.5 71.7031,53.7813 Q72,54.0625 72,54.7188 L72,56.2813 Q72,56.9375 71.7188,57.2188 Q71.4375,57.5 71,57.5 Q70.6094,57.5 70.3594,57.3281 Q70.1094,57.1563 70,56.7031 Q69.9531,56.3906 69.7813,56.2188 Q69.4688,55.8906 68.9063,55.7031 Q68.3438,55.5 67.7813,55.5 Q67.0781,55.5 66.4844,55.7813 Q65.9063,56.0625 65.4531,56.6875 Q65,57.3125 65,58.1719 L65,59.0938 Q65,60.125 65.8438,60.8125 Q66.6875,61.5 68.1875,61.5 Q69.0781,61.5 69.7031,61.2969 Q70.0625,61.1875 70.4688,60.8281 Q70.7344,60.625 70.875,60.5625 Q71.0156,60.5 71.1875,60.5 Q71.5156,60.5 71.75,60.7656 Q72,61.0156 72,61.375 Q72,61.7188 71.6563,62.125 Q71.1563,62.7188 70.3594,63.0469 Q69.3125,63.5 68.0313,63.5 Q66.5313,63.5 65.3281,62.9063 Q64.3594,62.4375 63.6719,61.4219 Q63,60.4063 63,59.2031 L63,58.1094 Q63,56.8594 63.5938,55.7656 Q64.2031,54.6719 65.25,54.0938 Q66.3125,53.5 67.5,53.5 Q68.2188,53.5 68.8438,53.75 Q69.4688,54 70,54.5 Z " fill="#000000"/><text fill="#000000" font-family="sans-serif" font-size="12" lengthAdjust="spacing" textLength="116" x="82" y="62.9102">ProductInformationUI</text><line style="stroke:#A80036;stroke-width:1.5;" x1="54" x2="200" y1="74" y2="74"/><line style="stroke:#A80036;stroke-width:1.5;" x1="54" x2="200" y1="82" y2="82"/><!--MD5=[f139174f753b4a16cdf71f02c3f70992]
class ProductInformationController--><rect codeLine="8" fill="#FEFECE" filter="url(#f1w9v5rtfn5quw)" height="75.6719" id="ProductInformationController" style="stroke:#A80036;stroke-width:1.5;" width="190" x="32" y="175"/><ellipse cx="47" cy="191" fill="#ADD1B2" rx="11" ry="11" style="stroke:#A80036;stroke-width:1.0;"/><path d="M49,187.5 Q49.2031,187 49.4375,186.75 Q49.6719,186.5 49.9375,186.5 Q50.4063,186.5 50.7031,186.7813 Q51,187.0625 51,187.7188 L51,189.2813 Q51,189.9375 50.7188,190.2188 Q50.4375,190.5 50,190.5 Q49.6094,190.5 49.3594,190.3281 Q49.1094,190.1563 49,189.7031 Q48.9531,189.3906 48.7813,189.2188 Q48.4688,188.8906 47.9063,188.7031 Q47.3438,188.5 46.7813,188.5 Q46.0781,188.5 45.4844,188.7813 Q44.9063,189.0625 44.4531,189.6875 Q44,190.3125 44,191.1719 L44,192.0938 Q44,193.125 44.8438,193.8125 Q45.6875,194.5 47.1875,194.5 Q48.0781,194.5 48.7031,194.2969 Q49.0625,194.1875 49.4688,193.8281 Q49.7344,193.625 49.875,193.5625 Q50.0156,193.5 50.1875,193.5 Q50.5156,193.5 50.75,193.7656 Q51,194.0156 51,194.375 Q51,194.7188 50.6563,195.125 Q50.1563,195.7188 49.3594,196.0469 Q48.3125,196.5 47.0313,196.5 Q45.5313,196.5 44.3281,195.9063 Q43.3594,195.4375 42.6719,194.4219 Q42,193.4063 42,192.2031 L42,191.1094 Q42,189.8594 42.5938,188.7656 Q43.2031,187.6719 44.25,187.0938 Q45.3125,186.5 46.5,186.5 Q47.2188,186.5 47.8438,186.75 Q48.4688,187 49,187.5 Z " fill="#000000"/><text fill="#000000" font-family="sans-serif" font-size="12" lengthAdjust="spacing" textLength="158" x="61" y="195.9102">ProductInformationController</text><line style="stroke:#A80036;stroke-width:1.5;" x1="33" x2="221" y1="207" y2="207"/><text fill="#000000" font-family="sans-serif" font-size="11" lengthAdjust="spacing" textLength="140" x="38" y="222.4189">-ProductService prodService</text><line style="stroke:#A80036;stroke-width:1.5;" x1="33" x2="221" y1="228.8359" y2="228.8359"/><text fill="#000000" font-family="sans-serif" font-size="11" lengthAdjust="spacing" textLength="85" x="38" y="244.2549">+getProduct(intId)</text><!--MD5=[72136138052d025cffdce3c22fbd185f]
class Product--><rect codeLine="15" fill="#FEFECE" filter="url(#f1w9v5rtfn5quw)" height="131.0156" id="Product" style="stroke:#A80036;stroke-width:1.5;" width="356" x="230" y="383.5"/><ellipse cx="382.75" cy="399.5" fill="#ADD1B2" rx="11" ry="11" style="stroke:#A80036;stroke-width:1.0;"/><path d="M384.75,396 Q384.9531,395.5 385.1875,395.25 Q385.4219,395 385.6875,395 Q386.1563,395 386.4531,395.2813 Q386.75,395.5625 386.75,396.2188 L386.75,397.7813 Q386.75,398.4375 386.4688,398.7188 Q386.1875,399 385.75,399 Q385.3594,399 385.1094,398.8281 Q384.8594,398.6563 384.75,398.2031 Q384.7031,397.8906 384.5313,397.7188 Q384.2188,397.3906 383.6563,397.2031 Q383.0938,397 382.5313,397 Q381.8281,397 381.2344,397.2813 Q380.6563,397.5625 380.2031,398.1875 Q379.75,398.8125 379.75,399.6719 L379.75,400.5938 Q379.75,401.625 380.5938,402.3125 Q381.4375,403 382.9375,403 Q383.8281,403 384.4531,402.7969 Q384.8125,402.6875 385.2188,402.3281 Q385.4844,402.125 385.625,402.0625 Q385.7656,402 385.9375,402 Q386.2656,402 386.5,402.2656 Q386.75,402.5156 386.75,402.875 Q386.75,403.2188 386.4063,403.625 Q385.9063,404.2188 385.1094,404.5469 Q384.0625,405 382.7813,405 Q381.2813,405 380.0781,404.4063 Q379.1094,403.9375 378.4219,402.9219 Q377.75,401.9063 377.75,400.7031 L377.75,399.6094 Q377.75,398.3594 378.3438,397.2656 Q378.9531,396.1719 380,395.5938 Q381.0625,395 382.25,395 Q382.9688,395 383.5938,395.25 Q384.2188,395.5 384.75,396 Z " fill="#000000"/><text fill="#000000" font-family="sans-serif" font-size="12" lengthAdjust="spacing" textLength="42" x="403.25" y="404.4102">Product</text><line style="stroke:#A80036;stroke-width:1.5;" x1="231" x2="585" y1="415.5" y2="415.5"/><text fill="#000000" font-family="sans-serif" font-size="11" lengthAdjust="spacing" textLength="37" x="236" y="430.9189">-int intId</text><text fill="#000000" font-family="sans-serif" font-size="11" lengthAdjust="spacing" textLength="75" x="236" y="444.7549">-String strName</text><text fill="#000000" font-family="sans-serif" font-size="11" lengthAdjust="spacing" textLength="102" x="236" y="458.5908">-String strDescription</text><text fill="#000000" font-family="sans-serif" font-size="11" lengthAdjust="spacing" textLength="95" x="236" y="472.4268">-float fltUnitaryPrice</text><text fill="#000000" font-family="sans-serif" font-size="11" lengthAdjust="spacing" textLength="104" x="236" y="486.2627">-float fltUnitaryWeight</text><line style="stroke:#A80036;stroke-width:1.5;" x1="231" x2="585" y1="492.6797" y2="492.6797"/><text fill="#000000" font-family="sans-serif" font-size="11" lengthAdjust="spacing" textLength="344" x="236" y="508.0986">+Product(intId, strName, strDescription, fltUnitaryPrice, fltUnitaryWeight)</text><!--MD5=[58a28f2d5507ae66b1dc95167690ce61]
class ProductService--><rect codeLine="25" fill="#FEFECE" filter="url(#f1w9v5rtfn5quw)" height="89.5078" id="ProductService" style="stroke:#A80036;stroke-width:1.5;" width="135" x="59.5" y="404"/><ellipse cx="83.95" cy="420" fill="#ADD1B2" rx="11" ry="11" style="stroke:#A80036;stroke-width:1.0;"/><path d="M85.95,416.5 Q86.1531,416 86.3875,415.75 Q86.6219,415.5 86.8875,415.5 Q87.3563,415.5 87.6531,415.7813 Q87.95,416.0625 87.95,416.7188 L87.95,418.2813 Q87.95,418.9375 87.6688,419.2188 Q87.3875,419.5 86.95,419.5 Q86.5594,419.5 86.3094,419.3281 Q86.0594,419.1563 85.95,418.7031 Q85.9031,418.3906 85.7313,418.2188 Q85.4188,417.8906 84.8563,417.7031 Q84.2938,417.5 83.7313,417.5 Q83.0281,417.5 82.4344,417.7813 Q81.8563,418.0625 81.4031,418.6875 Q80.95,419.3125 80.95,420.1719 L80.95,421.0938 Q80.95,422.125 81.7938,422.8125 Q82.6375,423.5 84.1375,423.5 Q85.0281,423.5 85.6531,423.2969 Q86.0125,423.1875 86.4188,422.8281 Q86.6844,422.625 86.825,422.5625 Q86.9656,422.5 87.1375,422.5 Q87.4656,422.5 87.7,422.7656 Q87.95,423.0156 87.95,423.375 Q87.95,423.7188 87.6063,424.125 Q87.1063,424.7188 86.3094,425.0469 Q85.2625,425.5 83.9813,425.5 Q82.4813,425.5 81.2781,424.9063 Q80.3094,424.4375 79.6219,423.4219 Q78.95,422.4063 78.95,421.2031 L78.95,420.1094 Q78.95,418.8594 79.5438,417.7656 Q80.1531,416.6719 81.2,416.0938 Q82.2625,415.5 83.45,415.5 Q84.1688,415.5 84.7938,415.75 Q85.4188,416 85.95,416.5 Z " fill="#000000"/><text fill="#000000" font-family="sans-serif" font-size="12" lengthAdjust="spacing" textLength="82" x="100.05" y="424.9102">ProductService</text><line style="stroke:#A80036;stroke-width:1.5;" x1="60.5" x2="193.5" y1="436" y2="436"/><text fill="#000000" font-family="sans-serif" font-size="11" lengthAdjust="spacing" textLength="109" x="65.5" y="451.4189">-ProductDB productDB</text><line style="stroke:#A80036;stroke-width:1.5;" x1="60.5" x2="193.5" y1="457.8359" y2="457.8359"/><text fill="#000000" font-family="sans-serif" font-size="11" lengthAdjust="spacing" textLength="78" x="65.5" y="473.2549">+validateId(intId)</text><text fill="#000000" font-family="sans-serif" font-size="11" lengthAdjust="spacing" textLength="123" x="65.5" y="487.0908">+getProductFromDB(intId)</text><!--MD5=[14642d0f06463c9c71840e97f6df5111]
class ProductDB--><rect codeLine="54" fill="#FEFECE" filter="url(#f1w9v5rtfn5quw)" height="89.5078" id="ProductDB" style="stroke:#A80036;stroke-width:1.5;" width="135" x="340.5" y="168"/><ellipse cx="375.3" cy="184" fill="#ADD1B2" rx="11" ry="11" style="stroke:#A80036;stroke-width:1.0;"/><path d="M377.3,180.5 Q377.5031,180 377.7375,179.75 Q377.9719,179.5 378.2375,179.5 Q378.7063,179.5 379.0031,179.7813 Q379.3,180.0625 379.3,180.7188 L379.3,182.2813 Q379.3,182.9375 379.0188,183.2188 Q378.7375,183.5 378.3,183.5 Q377.9094,183.5 377.6594,183.3281 Q377.4094,183.1563 377.3,182.7031 Q377.2531,182.3906 377.0813,182.2188 Q376.7688,181.8906 376.2063,181.7031 Q375.6438,181.5 375.0813,181.5 Q374.3781,181.5 373.7844,181.7813 Q373.2063,182.0625 372.7531,182.6875 Q372.3,183.3125 372.3,184.1719 L372.3,185.0938 Q372.3,186.125 373.1438,186.8125 Q373.9875,187.5 375.4875,187.5 Q376.3781,187.5 377.0031,187.2969 Q377.3625,187.1875 377.7688,186.8281 Q378.0344,186.625 378.175,186.5625 Q378.3156,186.5 378.4875,186.5 Q378.8156,186.5 379.05,186.7656 Q379.3,187.0156 379.3,187.375 Q379.3,187.7188 378.9563,188.125 Q378.4563,188.7188 377.6594,189.0469 Q376.6125,189.5 375.3313,189.5 Q373.8313,189.5 372.6281,188.9063 Q371.6594,188.4375 370.9719,187.4219 Q370.3,186.4063 370.3,185.2031 L370.3,184.1094 Q370.3,182.8594 370.8938,181.7656 Q371.5031,180.6719 372.55,180.0938 Q373.6125,179.5 374.8,179.5 Q375.5188,179.5 376.1438,179.75 Q376.7688,180 377.3,180.5 Z " fill="#000000"/><text fill="#000000" font-family="sans-serif" font-size="12" lengthAdjust="spacing" textLength="59" x="393.7" y="188.9102">ProductDB</text><line style="stroke:#A80036;stroke-width:1.5;" x1="341.5" x2="474.5" y1="200" y2="200"/><line style="stroke:#A80036;stroke-width:1.5;" x1="341.5" x2="474.5" y1="208" y2="208"/><text fill="#000000" font-family="sans-serif" font-size="11" lengthAdjust="spacing" textLength="92" x="346.5" y="223.4189">+openConnection()</text><text fill="#000000" font-family="sans-serif" font-size="11" lengthAdjust="spacing" textLength="52" x="346.5" y="237.2549">+closeAll()</text><text fill="#000000" font-family="sans-serif" font-size="11" lengthAdjust="spacing" textLength="123" x="346.5" y="251.0908">+getProductFromDB(intId)</text><!--MD5=[4b2d61224b33971326a22fe5d809d926]
class DataHandler--><rect codeLine="41" fill="#FEFECE" filter="url(#f1w9v5rtfn5quw)" height="48" id="DataHandler" style="stroke:#A80036;stroke-width:1.5;" width="102" x="357" y="42"/><ellipse cx="372" cy="58" fill="#ADD1B2" rx="11" ry="11" style="stroke:#A80036;stroke-width:1.0;"/><path d="M374,54.5 Q374.2031,54 374.4375,53.75 Q374.6719,53.5 374.9375,53.5 Q375.4063,53.5 375.7031,53.7813 Q376,54.0625 376,54.7188 L376,56.2813 Q376,56.9375 375.7188,57.2188 Q375.4375,57.5 375,57.5 Q374.6094,57.5 374.3594,57.3281 Q374.1094,57.1563 374,56.7031 Q373.9531,56.3906 373.7813,56.2188 Q373.4688,55.8906 372.9063,55.7031 Q372.3438,55.5 371.7813,55.5 Q371.0781,55.5 370.4844,55.7813 Q369.9063,56.0625 369.4531,56.6875 Q369,57.3125 369,58.1719 L369,59.0938 Q369,60.125 369.8438,60.8125 Q370.6875,61.5 372.1875,61.5 Q373.0781,61.5 373.7031,61.2969 Q374.0625,61.1875 374.4688,60.8281 Q374.7344,60.625 374.875,60.5625 Q375.0156,60.5 375.1875,60.5 Q375.5156,60.5 375.75,60.7656 Q376,61.0156 376,61.375 Q376,61.7188 375.6563,62.125 Q375.1563,62.7188 374.3594,63.0469 Q373.3125,63.5 372.0313,63.5 Q370.5313,63.5 369.3281,62.9063 Q368.3594,62.4375 367.6719,61.4219 Q367,60.4063 367,59.2031 L367,58.1094 Q367,56.8594 367.5938,55.7656 Q368.2031,54.6719 369.25,54.0938 Q370.3125,53.5 371.5,53.5 Q372.2188,53.5 372.8438,53.75 Q373.4688,54 374,54.5 Z " fill="#000000"/><text fill="#000000" font-family="sans-serif" font-size="12" lengthAdjust="spacing" textLength="70" x="386" y="62.9102">DataHandler</text><line style="stroke:#A80036;stroke-width:1.5;" x1="358" x2="458" y1="74" y2="74"/><line style="stroke:#A80036;stroke-width:1.5;" x1="358" x2="458" y1="82" y2="82"/><!--MD5=[fa1e3283224feb76407c84b7e90ed808]
entity Database--><path d="M621.5,435.5 C621.5,425.5 662,425.5 662,425.5 C662,425.5 702.5,425.5 702.5,435.5 L702.5,462.1094 C702.5,472.1094 662,472.1094 662,472.1094 C662,472.1094 621.5,472.1094 621.5,462.1094 L621.5,435.5 " fill="#FFFFFF" filter="url(#f1w9v5rtfn5quw)" style="stroke:#000000;stroke-width:1.5;"/><path d="M621.5,435.5 C621.5,445.5 662,445.5 662,445.5 C662,445.5 702.5,445.5 702.5,435.5 " fill="none" style="stroke:#000000;stroke-width:1.5;"/><text fill="#000000" font-family="sans-serif" font-size="14" lengthAdjust="spacing" textLength="61" x="631.5" y="464.0332">Database</text><!--MD5=[68e777bef28986f155ac30a42dfc287f]
link ProductInformationUI to ProductInformationController--><path codeLine="49" d="M127,90.3 C127,111.69 127,143.89 127,169.81 " fill="none" id="ProductInformationUI-to-ProductInformationController" style="stroke:#A80036;stroke-width:1.0;stroke-dasharray:7.0,7.0;"/><polygon fill="#A80036" points="127,174.9,131,165.9,127,169.9,123,165.9,127,174.9" style="stroke:#A80036;stroke-width:1.0;"/><!--MD5=[3c7074c756bf868cad31268539b022c5]
link ProductInformationController to ProductService--><path codeLine="50" d="M127,251.08 C127,291.03 127,354.81 127,398.91 " fill="none" id="ProductInformationController-to-ProductService" style="stroke:#A80036;stroke-width:1.0;stroke-dasharray:7.0,7.0;"/><polygon fill="#A80036" points="127,403.92,131,394.92,127,398.92,123,394.92,127,403.92" style="stroke:#A80036;stroke-width:1.0;"/><!--MD5=[65eab6f40d4d775c122a00bc563858e3]
link ProductService to ProductDB--><path codeLine="51" d="M142.6,403.71 C154.29,375.7 172.65,340.32 198,316 C236.66,278.91 291.38,252.93 335.28,236.47 " fill="none" id="ProductService-to-ProductDB" style="stroke:#A80036;stroke-width:1.0;"/><polygon fill="#A80036" points="340.03,234.71,330.2008,234.0887,335.3419,236.4484,332.9822,241.5896,340.03,234.71" style="stroke:#A80036;stroke-width:1.0;"/><text fill="#000000" font-family="sans-serif" font-size="13" lengthAdjust="spacing" textLength="21" x="229" y="304.4951">has</text><!--MD5=[22b902179b0d2415a8fe6b614787ffd4]
link ProductDB to Database--><path codeLine="52" d="M475.72,236.72 C516.63,253.3 567.39,279.34 602,316 C630.26,345.93 646.9,391.49 655.23,420.5 " fill="none" id="ProductDB-to-Database" style="stroke:#A80036;stroke-width:1.0;"/><polygon fill="#A80036" points="656.6,425.36,658.0348,415.6162,655.2566,420.5438,650.329,417.7656,656.6,425.36" style="stroke:#A80036;stroke-width:1.0;"/><text fill="#000000" font-family="sans-serif" font-size="13" lengthAdjust="spacing" textLength="53" x="594" y="304.4951">manages</text><!--MD5=[1f2c14ffbf2f7607137de3024d98f898]
link ProductDB to Product--><path codeLine="53" d="M408,258.01 C408,291.84 408,339.23 408,378.21 " fill="none" id="ProductDB-to-Product" style="stroke:#A80036;stroke-width:1.0;"/><polygon fill="#A80036" points="408,383.41,412,374.41,408,378.41,404,374.41,408,383.41" style="stroke:#A80036;stroke-width:1.0;"/><text fill="#000000" font-family="sans-serif" font-size="13" lengthAdjust="spacing" textLength="43" x="409" y="304.4951">creates</text><!--MD5=[92b0f60a0e0bbfb4c881030f1b2815dc]
reverse link DataHandler to ProductDB--><path d="M408,110.32 C408,128.54 408,149.71 408,168 " fill="none" id="DataHandler-backto-ProductDB" style="stroke:#A80036;stroke-width:1.0;"/><polygon fill="none" points="401,110.3,408,90.3,415,110.3,401,110.3" style="stroke:#A80036;stroke-width:1.0;"/><!--MD5=[b8f91512fc9f0b524a38b9e3c7d288e9]
@startuml
skinparam classAttributeIconSize 0
package "UI" #DDDDDD {
    class ProductInformationUI{
    }
}

package "Controller" #DDDDDD {
    class ProductInformationController {
        -ProductService prodService
        +getProduct(intId)
    }
}

package "Model" #DDDDDD {
    class Product {
        -int intId
        -String strName
        -String strDescription
        -float fltUnitaryPrice
        -float fltUnitaryWeight
        +Product(intId, strName, strDescription, fltUnitaryPrice, fltUnitaryWeight)
    }

    package "Service" #DDDDDD {
        class ProductService {
            -ProductDB productDB
            +validateId(intId)
            +getProductFromDB(intId)
        }
    }
}


package "Data" #DDDDDD {
    class ProductDB {
            +openConnection()
            +closeAll()
            +getProductFromDB(intId)
    }

    class DataHandler {
    }
}

database Database {

}

ProductInformationUI ..> ProductInformationController
ProductInformationController ..> ProductService
ProductService - -> ProductDB : has
ProductDB - -> Database: manages
ProductDB - -> Product : creates
class ProductDB extends DataHandler
@enduml

PlantUML version 1.2021.00(Sun Jan 10 10:25:05 GMT 2021)
(GPL source distribution)
Java Runtime: OpenJDK Runtime Environment
JVM: OpenJDK 64-Bit Server VM
Default Encoding: Cp1252
Language: pt
Country: PT
--></g></svg>