<?xml version="1.0" encoding="UTF-8" standalone="no"?><svg xmlns="http://www.w3.org/2000/svg" xmlns:xlink="http://www.w3.org/1999/xlink" contentScriptType="application/ecmascript" contentStyleType="text/css" height="821px" preserveAspectRatio="none" style="width:1923px;height:821px;" version="1.1" viewBox="0 0 1923 821" width="1923px" zoomAndPan="magnify"><defs><filter height="300%" id="foahrg2kcees2" width="300%" x="-1" y="-1"><feGaussianBlur result="blurOut" stdDeviation="2.0"/><feColorMatrix in="blurOut" result="blurOut2" type="matrix" values="0 0 0 0 0 0 0 0 0 0 0 0 0 0 0 0 0 0 .4 0"/><feOffset dx="4.0" dy="4.0" in="blurOut2" result="blurOut3"/><feBlend in="SourceGraphic" in2="blurOut3" mode="normal"/></filter></defs><g><rect fill="#FFFFFF" filter="url(#foahrg2kcees2)" height="683.2891" style="stroke:#A80036;stroke-width:1.0;" width="10" x="47.5" y="99.6094"/><rect fill="#FFFFFF" filter="url(#foahrg2kcees2)" height="30.3516" style="stroke:#A80036;stroke-width:1.0;" width="10" x="392.5" y="121.9609"/><rect fill="#FFFFFF" filter="url(#foahrg2kcees2)" height="600.2344" style="stroke:#A80036;stroke-width:1.0;" width="10" x="392.5" y="182.6641"/><rect fill="#FFFFFF" filter="url(#foahrg2kcees2)" height="429.3828" style="stroke:#A80036;stroke-width:1.0;" width="10" x="576.5" y="213.0156"/><rect fill="#FFFFFF" filter="url(#foahrg2kcees2)" height="36.6094" style="stroke:#A80036;stroke-width:1.0;" width="10" x="763.5" y="253.3672"/><rect fill="#FFFFFF" filter="url(#foahrg2kcees2)" height="129.4063" style="stroke:#A80036;stroke-width:1.0;" width="10" x="763.5" y="512.9922"/><rect fill="#FFFFFF" filter="url(#foahrg2kcees2)" height="30.3516" style="stroke:#A80036;stroke-width:1.0;" width="10" x="953.5" y="612.0469"/><rect fill="#FFFFFF" filter="url(#foahrg2kcees2)" height="30" style="stroke:#A80036;stroke-width:1.0;" width="10" x="1589.5" y="336.5859"/><rect fill="#FFFFFF" filter="url(#foahrg2kcees2)" height="60.3516" style="stroke:#A80036;stroke-width:1.0;" width="10" x="1729.5" y="396.9375"/><rect fill="#FFFFFF" filter="url(#foahrg2kcees2)" height="30" style="stroke:#A80036;stroke-width:1.0;" width="10" x="1860" y="427.2891"/><rect fill="#FFFFFF" filter="url(#foahrg2kcees2)" height="325.6094" style="stroke:#000000;stroke-width:2.0;" width="1536.5" x="10" y="472.2891"/><rect fill="#FFFFFF" filter="url(#foahrg2kcees2)" height="219.5547" style="stroke:#000000;stroke-width:2.0;" width="1516.5" x="20" y="571.3438"/><rect fill="#FFFFFF" height="46.1875" style="stroke:none;stroke-width:1.0;" width="1516.5" x="20" y="744.7109"/><line style="stroke:#A80036;stroke-width:1.0;stroke-dasharray:5.0,5.0;" x1="52" x2="52" y1="89.6094" y2="814.8984"/><line style="stroke:#A80036;stroke-width:1.0;stroke-dasharray:5.0,5.0;" x1="397" x2="397" y1="89.6094" y2="814.8984"/><line style="stroke:#A80036;stroke-width:1.0;stroke-dasharray:5.0,5.0;" x1="581" x2="581" y1="89.6094" y2="814.8984"/><line style="stroke:#A80036;stroke-width:1.0;stroke-dasharray:5.0,5.0;" x1="768" x2="768" y1="254.3203" y2="814.8984"/><line style="stroke:#A80036;stroke-width:1.0;stroke-dasharray:5.0,5.0;" x1="958" x2="958" y1="300.9297" y2="814.8984"/><line style="stroke:#A80036;stroke-width:1.0;stroke-dasharray:5.0,5.0;" x1="1466.5" x2="1466.5" y1="653.3516" y2="814.8984"/><line style="stroke:#A80036;stroke-width:1.0;stroke-dasharray:5.0,5.0;" x1="1594.5" x2="1594.5" y1="89.6094" y2="814.8984"/><line style="stroke:#A80036;stroke-width:1.0;stroke-dasharray:5.0,5.0;" x1="1734.5" x2="1734.5" y1="89.6094" y2="814.8984"/><line style="stroke:#A80036;stroke-width:1.0;stroke-dasharray:5.0,5.0;" x1="1864.5" x2="1864.5" y1="89.6094" y2="814.8984"/><text fill="#000000" font-family="sans-serif" font-size="14" lengthAdjust="spacing" textLength="39" x="30" y="86.5332">Admin</text><ellipse cx="52.5" cy="15" fill="#FEFECE" filter="url(#foahrg2kcees2)" rx="8" ry="8" style="stroke:#A80036;stroke-width:2.0;"/><path d="M52.5,23 L52.5,50 M39.5,31 L65.5,31 M52.5,50 L39.5,65 M52.5,50 L65.5,65 " fill="none" filter="url(#foahrg2kcees2)" style="stroke:#A80036;stroke-width:2.0;"/><rect fill="#FEFECE" filter="url(#foahrg2kcees2)" height="31.6094" style="stroke:#A80036;stroke-width:1.5;" width="145" x="323" y="53"/><text fill="#000000" font-family="sans-serif" font-size="14" lengthAdjust="spacing" textLength="131" x="330" y="74.5332">ProductInformationUI</text><rect fill="#FEFECE" filter="url(#foahrg2kcees2)" height="31.6094" style="stroke:#A80036;stroke-width:1.5;" width="195" x="482" y="53"/><text fill="#000000" font-family="sans-serif" font-size="14" lengthAdjust="spacing" textLength="181" x="489" y="74.5332">ProductInformationController</text><rect fill="#FEFECE" filter="url(#foahrg2kcees2)" height="31.6094" style="stroke:#A80036;stroke-width:1.5;" width="112" x="1536.5" y="53"/><text fill="#000000" font-family="sans-serif" font-size="14" lengthAdjust="spacing" textLength="98" x="1543.5" y="74.5332">ApplicationPOT</text><rect fill="#FEFECE" filter="url(#foahrg2kcees2)" height="31.6094" style="stroke:#A80036;stroke-width:1.5;" width="140" x="1662.5" y="53"/><text fill="#000000" font-family="sans-serif" font-size="14" lengthAdjust="spacing" textLength="126" x="1669.5" y="74.5332">app:ApplicationPOT</text><rect fill="#FEFECE" filter="url(#foahrg2kcees2)" height="31.6094" style="stroke:#A80036;stroke-width:1.5;" width="93" x="1816.5" y="53"/><text fill="#000000" font-family="sans-serif" font-size="14" lengthAdjust="spacing" textLength="79" x="1823.5" y="74.5332">UserSession</text><rect fill="#FFFFFF" filter="url(#foahrg2kcees2)" height="683.2891" style="stroke:#A80036;stroke-width:1.0;" width="10" x="47.5" y="99.6094"/><rect fill="#FFFFFF" filter="url(#foahrg2kcees2)" height="30.3516" style="stroke:#A80036;stroke-width:1.0;" width="10" x="392.5" y="121.9609"/><rect fill="#FFFFFF" filter="url(#foahrg2kcees2)" height="600.2344" style="stroke:#A80036;stroke-width:1.0;" width="10" x="392.5" y="182.6641"/><rect fill="#FFFFFF" filter="url(#foahrg2kcees2)" height="429.3828" style="stroke:#A80036;stroke-width:1.0;" width="10" x="576.5" y="213.0156"/><rect fill="#FFFFFF" filter="url(#foahrg2kcees2)" height="36.6094" style="stroke:#A80036;stroke-width:1.0;" width="10" x="763.5" y="253.3672"/><rect fill="#FFFFFF" filter="url(#foahrg2kcees2)" height="129.4063" style="stroke:#A80036;stroke-width:1.0;" width="10" x="763.5" y="512.9922"/><rect fill="#FFFFFF" filter="url(#foahrg2kcees2)" height="30.3516" style="stroke:#A80036;stroke-width:1.0;" width="10" x="953.5" y="612.0469"/><rect fill="#FFFFFF" filter="url(#foahrg2kcees2)" height="30" style="stroke:#A80036;stroke-width:1.0;" width="10" x="1589.5" y="336.5859"/><rect fill="#FFFFFF" filter="url(#foahrg2kcees2)" height="60.3516" style="stroke:#A80036;stroke-width:1.0;" width="10" x="1729.5" y="396.9375"/><rect fill="#FFFFFF" filter="url(#foahrg2kcees2)" height="30" style="stroke:#A80036;stroke-width:1.0;" width="10" x="1860" y="427.2891"/><polygon fill="#A80036" points="380.5,117.9609,390.5,121.9609,380.5,125.9609,384.5,121.9609" style="stroke:#A80036;stroke-width:1.0;"/><line style="stroke:#A80036;stroke-width:1.0;" x1="57.5" x2="386.5" y1="121.9609" y2="121.9609"/><text fill="#000000" font-family="sans-serif" font-size="13" font-weight="bold" lengthAdjust="spacing" textLength="7" x="64.5" y="117.1045">1</text><text fill="#000000" font-family="sans-serif" font-size="13" lengthAdjust="spacing" textLength="303" x="75.5" y="117.1045">Engages the verify product information feature/button</text><polygon fill="#A80036" points="68.5,148.3125,58.5,152.3125,68.5,156.3125,64.5,152.3125" style="stroke:#A80036;stroke-width:1.0;"/><line style="stroke:#A80036;stroke-width:1.0;stroke-dasharray:2.0,2.0;" x1="62.5" x2="396.5" y1="152.3125" y2="152.3125"/><text fill="#000000" font-family="sans-serif" font-size="13" font-weight="bold" lengthAdjust="spacing" textLength="7" x="74.5" y="147.4561">2</text><text fill="#000000" font-family="sans-serif" font-size="13" lengthAdjust="spacing" textLength="300" x="85.5" y="147.4561">Asks for the id of the product to get information from</text><polygon fill="#A80036" points="380.5,178.6641,390.5,182.6641,380.5,186.6641,384.5,182.6641" style="stroke:#A80036;stroke-width:1.0;"/><line style="stroke:#A80036;stroke-width:1.0;" x1="57.5" x2="386.5" y1="182.6641" y2="182.6641"/><text fill="#000000" font-family="sans-serif" font-size="13" font-weight="bold" lengthAdjust="spacing" textLength="7" x="64.5" y="177.8076">3</text><text fill="#000000" font-family="sans-serif" font-size="13" lengthAdjust="spacing" textLength="118" x="75.5" y="177.8076">Gives the required id</text><polygon fill="#A80036" points="564.5,209.0156,574.5,213.0156,564.5,217.0156,568.5,213.0156" style="stroke:#A80036;stroke-width:1.0;"/><line style="stroke:#A80036;stroke-width:1.0;" x1="402.5" x2="570.5" y1="213.0156" y2="213.0156"/><text fill="#000000" font-family="sans-serif" font-size="13" font-weight="bold" lengthAdjust="spacing" textLength="7" x="409.5" y="208.1592">4</text><text fill="#000000" font-family="sans-serif" font-size="13" lengthAdjust="spacing" textLength="95" x="420.5" y="208.1592">getProduct(intId)</text><polygon fill="#A80036" points="679,239.3672,689,243.3672,679,247.3672,683,243.3672" style="stroke:#A80036;stroke-width:1.0;"/><line style="stroke:#A80036;stroke-width:1.0;" x1="586.5" x2="685" y1="243.3672" y2="243.3672"/><text fill="#000000" font-family="sans-serif" font-size="13" font-weight="bold" lengthAdjust="spacing" textLength="7" x="593.5" y="238.5107">5</text><text fill="#000000" font-family="sans-serif" font-size="13" lengthAdjust="spacing" textLength="44" x="604.5" y="238.5107">create()</text><rect fill="#FEFECE" filter="url(#foahrg2kcees2)" height="31.6094" style="stroke:#A80036;stroke-width:1.5;" width="151" x="691" y="221.0156"/><text fill="#000000" font-family="sans-serif" font-size="14" lengthAdjust="spacing" textLength="137" x="698" y="242.5488">pServ:ProductService</text><polygon fill="#A80036" points="888,285.9766,898,289.9766,888,293.9766,892,289.9766" style="stroke:#A80036;stroke-width:1.0;"/><line style="stroke:#A80036;stroke-width:1.0;" x1="768.5" x2="894" y1="289.9766" y2="289.9766"/><text fill="#000000" font-family="sans-serif" font-size="13" font-weight="bold" lengthAdjust="spacing" textLength="7" x="775.5" y="285.1201">6</text><text fill="#000000" font-family="sans-serif" font-size="13" lengthAdjust="spacing" textLength="44" x="786.5" y="285.1201">create()</text><rect fill="#FEFECE" filter="url(#foahrg2kcees2)" height="31.6094" style="stroke:#A80036;stroke-width:1.5;" width="113" x="900" y="267.625"/><text fill="#000000" font-family="sans-serif" font-size="14" lengthAdjust="spacing" textLength="99" x="907" y="289.1582">pDB:ProductDB</text><polygon fill="#A80036" points="1577.5,332.5859,1587.5,336.5859,1577.5,340.5859,1581.5,336.5859" style="stroke:#A80036;stroke-width:1.0;"/><line style="stroke:#A80036;stroke-width:1.0;" x1="586.5" x2="1583.5" y1="336.5859" y2="336.5859"/><text fill="#000000" font-family="sans-serif" font-size="13" font-weight="bold" lengthAdjust="spacing" textLength="7" x="593.5" y="331.7295">7</text><text fill="#000000" font-family="sans-serif" font-size="13" lengthAdjust="spacing" textLength="75" x="604.5" y="331.7295">getInstance()</text><polygon fill="#A80036" points="1717.5,392.9375,1727.5,396.9375,1717.5,400.9375,1721.5,396.9375" style="stroke:#A80036;stroke-width:1.0;"/><line style="stroke:#A80036;stroke-width:1.0;" x1="586.5" x2="1723.5" y1="396.9375" y2="396.9375"/><text fill="#000000" font-family="sans-serif" font-size="13" font-weight="bold" lengthAdjust="spacing" textLength="7" x="593.5" y="392.0811">8</text><text fill="#000000" font-family="sans-serif" font-size="13" lengthAdjust="spacing" textLength="115" x="604.5" y="392.0811">getCurrentSession()</text><polygon fill="#A80036" points="1848,423.2891,1858,427.2891,1848,431.2891,1852,427.2891" style="stroke:#A80036;stroke-width:1.0;"/><line style="stroke:#A80036;stroke-width:1.0;" x1="1739.5" x2="1854" y1="427.2891" y2="427.2891"/><text fill="#000000" font-family="sans-serif" font-size="13" font-weight="bold" lengthAdjust="spacing" textLength="7" x="1746.5" y="422.4326">9</text><text fill="#000000" font-family="sans-serif" font-size="13" lengthAdjust="spacing" textLength="52" x="1757.5" y="422.4326">getRole()</text><path d="M10,472.2891 L71,472.2891 L71,480.2891 L61,490.2891 L10,490.2891 L10,472.2891 " fill="#EEEEEE" style="stroke:#000000;stroke-width:1.0;"/><rect fill="none" height="325.6094" style="stroke:#000000;stroke-width:2.0;" width="1536.5" x="10" y="472.2891"/><text fill="#000000" font-family="sans-serif" font-size="13" font-weight="bold" lengthAdjust="spacing" textLength="16" x="25" y="486.7842">alt</text><text fill="#000000" font-family="sans-serif" font-size="11" font-weight="bold" lengthAdjust="spacing" textLength="210" x="86" y="485.708">[if user is authorized (if it's an admin)]</text><polygon fill="#A80036" points="751.5,508.9922,761.5,512.9922,751.5,516.9922,755.5,512.9922" style="stroke:#A80036;stroke-width:1.0;"/><line style="stroke:#A80036;stroke-width:1.0;" x1="586.5" x2="757.5" y1="512.9922" y2="512.9922"/><text fill="#000000" font-family="sans-serif" font-size="13" font-weight="bold" lengthAdjust="spacing" textLength="14" x="593.5" y="508.1357">10</text><text fill="#000000" font-family="sans-serif" font-size="13" lengthAdjust="spacing" textLength="95" x="611.5" y="508.1357">getProduct(intId)</text><line style="stroke:#A80036;stroke-width:1.0;" x1="773.5" x2="815.5" y1="543.3438" y2="543.3438"/><line style="stroke:#A80036;stroke-width:1.0;" x1="815.5" x2="815.5" y1="543.3438" y2="556.3438"/><line style="stroke:#A80036;stroke-width:1.0;" x1="774.5" x2="815.5" y1="556.3438" y2="556.3438"/><polygon fill="#A80036" points="784.5,552.3438,774.5,556.3438,784.5,560.3438,780.5,556.3438" style="stroke:#A80036;stroke-width:1.0;"/><text fill="#000000" font-family="sans-serif" font-size="13" font-weight="bold" lengthAdjust="spacing" textLength="14" x="780.5" y="538.4873">11</text><text fill="#000000" font-family="sans-serif" font-size="13" lengthAdjust="spacing" textLength="85" x="798.5" y="538.4873">validateId(intId)</text><path d="M20,571.3438 L81,571.3438 L81,579.3438 L71,589.3438 L20,589.3438 L20,571.3438 " fill="#EEEEEE" style="stroke:#000000;stroke-width:1.0;"/><rect fill="none" height="219.5547" style="stroke:#000000;stroke-width:2.0;" width="1516.5" x="20" y="571.3438"/><text fill="#000000" font-family="sans-serif" font-size="13" font-weight="bold" lengthAdjust="spacing" textLength="16" x="35" y="585.8389">alt</text><text fill="#000000" font-family="sans-serif" font-size="11" font-weight="bold" lengthAdjust="spacing" textLength="229" x="96" y="584.7627">[if the id given as input has a valid format]</text><polygon fill="#A80036" points="941.5,608.0469,951.5,612.0469,941.5,616.0469,945.5,612.0469" style="stroke:#A80036;stroke-width:1.0;"/><line style="stroke:#A80036;stroke-width:1.0;" x1="773.5" x2="947.5" y1="612.0469" y2="612.0469"/><text fill="#000000" font-family="sans-serif" font-size="13" font-weight="bold" lengthAdjust="spacing" textLength="14" x="780.5" y="607.1904">12</text><text fill="#000000" font-family="sans-serif" font-size="13" lengthAdjust="spacing" textLength="143" x="798.5" y="607.1904">getProductFromDB(intId)</text><polygon fill="#A80036" points="1395.5,638.3984,1405.5,642.3984,1395.5,646.3984,1399.5,642.3984" style="stroke:#A80036;stroke-width:1.0;"/><line style="stroke:#A80036;stroke-width:1.0;" x1="958.5" x2="1401.5" y1="642.3984" y2="642.3984"/><text fill="#000000" font-family="sans-serif" font-size="13" font-weight="bold" lengthAdjust="spacing" textLength="14" x="965.5" y="637.542">13</text><text fill="#000000" font-family="sans-serif" font-size="13" lengthAdjust="spacing" textLength="402" x="983.5" y="637.542">create(intId, strName, strDescription, fltUnitaryPrice, fltUnitaryWeight)</text><rect fill="#FEFECE" filter="url(#foahrg2kcees2)" height="31.6094" style="stroke:#A80036;stroke-width:1.5;" width="115" x="1407.5" y="620.0469"/><text fill="#000000" font-family="sans-serif" font-size="14" lengthAdjust="spacing" textLength="101" x="1414.5" y="641.5801">product:Product</text><rect fill="#FFFFFF" filter="url(#foahrg2kcees2)" height="42.7031" style="stroke:#000000;stroke-width:2.0;" width="126" x="897" y="666.6563"/><polygon fill="#EEEEEE" points="897,666.6563,959,666.6563,959,674.6563,949,684.6563,897,684.6563,897,666.6563" style="stroke:#000000;stroke-width:2.0;"/><text fill="#000000" font-family="sans-serif" font-size="13" font-weight="bold" lengthAdjust="spacing" textLength="17" x="910" y="682.1514">ref</text><text fill="#000000" font-family="sans-serif" font-size="13" lengthAdjust="spacing" textLength="118" x="903" y="702.1514">SD_CONNECTIONS</text><polygon fill="#A80036" points="68.5,732.7109,58.5,736.7109,68.5,740.7109,64.5,736.7109" style="stroke:#A80036;stroke-width:1.0;"/><line style="stroke:#A80036;stroke-width:1.0;stroke-dasharray:2.0,2.0;" x1="62.5" x2="391.5" y1="736.7109" y2="736.7109"/><text fill="#000000" font-family="sans-serif" font-size="13" font-weight="bold" lengthAdjust="spacing" textLength="14" x="74.5" y="731.8545">14</text><text fill="#000000" font-family="sans-serif" font-size="13" lengthAdjust="spacing" textLength="224" x="92.5" y="731.8545">Informs of the success of the operation</text><line style="stroke:#000000;stroke-width:1.0;stroke-dasharray:2.0,2.0;" x1="20" x2="1536.5" y1="745.7109" y2="745.7109"/><text fill="#000000" font-family="sans-serif" font-size="11" font-weight="bold" lengthAdjust="spacing" textLength="186" x="25" y="757.1299">[if id does not have a valid format]</text><polygon fill="#A80036" points="63.5,778.8984,53.5,782.8984,63.5,786.8984,59.5,782.8984" style="stroke:#A80036;stroke-width:1.0;"/><line style="stroke:#A80036;stroke-width:1.0;" x1="57.5" x2="396.5" y1="782.8984" y2="782.8984"/><text fill="#000000" font-family="sans-serif" font-size="13" font-weight="bold" lengthAdjust="spacing" textLength="14" x="69.5" y="778.042">15</text><text fill="#000000" font-family="sans-serif" font-size="13" lengthAdjust="spacing" textLength="262" x="87.5" y="778.042">Informs that the operation was not successful</text><!--MD5=[0febb8060af88aa4034c6ce23e27901a]
@startuml
autonumber
hide footbox

actor "Admin" as U

participant "ProductInformationUI" as UI
participant "ProductInformationController" as CTRL
participant "pServ:ProductService" as SER
participant "pDB:ProductDB" as DB
participant "product:Product" as PROD
participant "ApplicationPOT" as APP
participant "app:ApplicationPOT" as APPP
participant "UserSession" as US

activate U
U -> UI : Engages the verify product information feature/button
activate UI
UI - -> U : Asks for the id of the product to get information from
deactivate UI
U -> UI : Gives the required id
activate UI
UI -> CTRL : getProduct(intId)
activate CTRL
CTRL -> SER** : create()
activate SER
SER -> DB** : create()
deactivate SER
CTRL -> APP : getInstance()
activate APP
deactivate APP
CTRL -> APPP : getCurrentSession()
activate APPP
APPP -> US : getRole()
activate US
deactivate US
deactivate APPP
alt if user is authorized (if it's an admin)
CTRL -> SER : getProduct(intId)
activate SER
SER -> SER : validateId(intId)
alt if the id given as input has a valid format
SER -> DB : getProductFromDB(intId)
activate DB
DB -> PROD** : create(intId, strName, strDescription, fltUnitaryPrice, fltUnitaryWeight)
deactivate DB
ref over DB
SD_CONNECTIONS
end ref
deactivate SER
deactivate CTRL
deactivate CTRL
UI - -> U : Informs of the success of the operation
else if id does not have a valid format
UI -> U : Informs that the operation was not successful
deactivate UI
deactivate U
end alt
end alt

@enduml

PlantUML version 1.2021.00(Sun Jan 10 10:25:05 GMT 2021)
(GPL source distribution)
Java Runtime: OpenJDK Runtime Environment
JVM: OpenJDK 64-Bit Server VM
Default Encoding: Cp1252
Language: pt
Country: PT
--></g></svg>