<?xml version="1.0" encoding="UTF-8" standalone="no"?><svg xmlns="http://www.w3.org/2000/svg" xmlns:xlink="http://www.w3.org/1999/xlink" contentScriptType="application/ecmascript" contentStyleType="text/css" height="1511px" preserveAspectRatio="none" style="width:1799px;height:1511px;" version="1.1" viewBox="0 0 1799 1511" width="1799px" zoomAndPan="magnify"><defs><filter height="300%" id="f1vs9d7ep91jab" width="300%" x="-1" y="-1"><feGaussianBlur result="blurOut" stdDeviation="2.0"/><feColorMatrix in="blurOut" result="blurOut2" type="matrix" values="0 0 0 0 0 0 0 0 0 0 0 0 0 0 0 0 0 0 .4 0"/><feOffset dx="4.0" dy="4.0" in="blurOut2" result="blurOut3"/><feBlend in="SourceGraphic" in2="blurOut3" mode="normal"/></filter></defs><g><!--MD5=[9681dc6e01e10c6b4fe06895ae94f592]
cluster UI--><polygon fill="#DDDDDD" filter="url(#f1vs9d7ep91jab)" points="177,24,197,24,204,47.6094,327,47.6094,327,124,177,124,177,24" style="stroke: #000000; stroke-width: 1.5;"/><line style="stroke: #000000; stroke-width: 1.5;" x1="177" x2="204" y1="47.6094" y2="47.6094"/><text fill="#000000" font-family="sans-serif" font-size="14" font-weight="bold" lengthAdjust="spacingAndGlyphs" textLength="14" x="181" y="40.5332">UI</text><!--MD5=[1f2cfc53d9d308f53762fd0fcbaa4873]
cluster Controller--><polygon fill="#DDDDDD" filter="url(#f1vs9d7ep91jab)" points="22,157,99,157,106,180.6094,482,180.6094,482,498.5,22,498.5,22,157" style="stroke: #000000; stroke-width: 1.5;"/><line style="stroke: #000000; stroke-width: 1.5;" x1="22" x2="106" y1="180.6094" y2="180.6094"/><text fill="#000000" font-family="sans-serif" font-size="14" font-weight="bold" lengthAdjust="spacingAndGlyphs" textLength="71" x="26" y="173.5332">Controller</text><!--MD5=[15636c1ca4a123c16a2a1a8e90aca7a9]
cluster Model--><polygon fill="#DDDDDD" filter="url(#f1vs9d7ep91jab)" points="506,357,556,357,563,380.6094,1617,380.6094,1617,1499,506,1499,506,357" style="stroke: #000000; stroke-width: 1.5;"/><line style="stroke: #000000; stroke-width: 1.5;" x1="506" x2="563" y1="380.6094" y2="380.6094"/><text fill="#000000" font-family="sans-serif" font-size="14" font-weight="bold" lengthAdjust="spacingAndGlyphs" textLength="44" x="510" y="373.5332">Model</text><!--MD5=[7f5e0441b00afcd8fa9ae108c086a015]
cluster Registration--><polygon fill="#DDDDDD" filter="url(#f1vs9d7ep91jab)" points="530,560,622,560,629,583.6094,1593,583.6094,1593,688,530,688,530,560" style="stroke: #000000; stroke-width: 1.5;"/><line style="stroke: #000000; stroke-width: 1.5;" x1="530" x2="629" y1="583.6094" y2="583.6094"/><text fill="#000000" font-family="sans-serif" font-size="14" font-weight="bold" lengthAdjust="spacingAndGlyphs" textLength="86" x="534" y="576.5332">Registration</text><!--MD5=[f21b1f164e99c6b37934f23ad048ad54]
cluster Data--><polygon fill="#DDDDDD" filter="url(#f1vs9d7ep91jab)" points="1641,370.5,1678,370.5,1685,394.1094,1777,394.1094,1777,498.5,1641,498.5,1641,370.5" style="stroke: #000000; stroke-width: 1.5;"/><line style="stroke: #000000; stroke-width: 1.5;" x1="1641" x2="1685" y1="394.1094" y2="394.1094"/><text fill="#000000" font-family="sans-serif" font-size="14" font-weight="bold" lengthAdjust="spacingAndGlyphs" textLength="31" x="1645" y="387.0332">Data</text><!--MD5=[35750e3ed6157e0e9f921c1e2e63111c]
class MakeAnOrderUI--><rect fill="#FEFECE" filter="url(#f1vs9d7ep91jab)" height="48" id="MakeAnOrderUI" style="stroke: #A80036; stroke-width: 1.5;" width="118" x="193" y="60"/><ellipse cx="208" cy="76" fill="#ADD1B2" rx="11" ry="11" style="stroke: #A80036; stroke-width: 1.0;"/><path d="M210,72.5 Q210.2031,72 210.4375,71.75 Q210.6719,71.5 210.9375,71.5 Q211.4063,71.5 211.7031,71.7813 Q212,72.0625 212,72.7188 L212,74.2813 Q212,74.9375 211.7188,75.2188 Q211.4375,75.5 211,75.5 Q210.6094,75.5 210.3594,75.3281 Q210.1094,75.1563 210,74.7031 Q209.9531,74.3906 209.7813,74.2188 Q209.4688,73.8906 208.9063,73.7031 Q208.3438,73.5 207.7813,73.5 Q207.0781,73.5 206.4844,73.7813 Q205.9063,74.0625 205.4531,74.6875 Q205,75.3125 205,76.1719 L205,77.0938 Q205,78.125 205.8438,78.8125 Q206.6875,79.5 208.1875,79.5 Q209.0781,79.5 209.7031,79.2969 Q210.0625,79.1875 210.4688,78.8281 Q210.7344,78.625 210.875,78.5625 Q211.0156,78.5 211.1875,78.5 Q211.5156,78.5 211.75,78.7656 Q212,79.0156 212,79.375 Q212,79.7188 211.6563,80.125 Q211.1563,80.7188 210.3594,81.0469 Q209.3125,81.5 208.0313,81.5 Q206.5313,81.5 205.3281,80.9063 Q204.3594,80.4375 203.6719,79.4219 Q203,78.4063 203,77.2031 L203,76.1094 Q203,74.8594 203.5938,73.7656 Q204.2031,72.6719 205.25,72.0938 Q206.3125,71.5 207.5,71.5 Q208.2188,71.5 208.8438,71.75 Q209.4688,72 210,72.5 Z "/><text fill="#000000" font-family="sans-serif" font-size="12" lengthAdjust="spacingAndGlyphs" textLength="86" x="222" y="80.9102">MakeAnOrderUI</text><line style="stroke: #A80036; stroke-width: 1.5;" x1="194" x2="310" y1="92" y2="92"/><line style="stroke: #A80036; stroke-width: 1.5;" x1="194" x2="310" y1="100" y2="100"/><!--MD5=[7f25cae4ec750c15eb10841bd194e692]
class MakeAnOrderController--><rect fill="#FEFECE" filter="url(#f1vs9d7ep91jab)" height="117.1797" id="MakeAnOrderController" style="stroke: #A80036; stroke-width: 1.5;" width="427" x="38.5" y="193"/><ellipse cx="183.75" cy="209" fill="#ADD1B2" rx="11" ry="11" style="stroke: #A80036; stroke-width: 1.0;"/><path d="M185.75,205.5 Q185.9531,205 186.1875,204.75 Q186.4219,204.5 186.6875,204.5 Q187.1563,204.5 187.4531,204.7813 Q187.75,205.0625 187.75,205.7188 L187.75,207.2813 Q187.75,207.9375 187.4688,208.2188 Q187.1875,208.5 186.75,208.5 Q186.3594,208.5 186.1094,208.3281 Q185.8594,208.1563 185.75,207.7031 Q185.7031,207.3906 185.5313,207.2188 Q185.2188,206.8906 184.6563,206.7031 Q184.0938,206.5 183.5313,206.5 Q182.8281,206.5 182.2344,206.7813 Q181.6563,207.0625 181.2031,207.6875 Q180.75,208.3125 180.75,209.1719 L180.75,210.0938 Q180.75,211.125 181.5938,211.8125 Q182.4375,212.5 183.9375,212.5 Q184.8281,212.5 185.4531,212.2969 Q185.8125,212.1875 186.2188,211.8281 Q186.4844,211.625 186.625,211.5625 Q186.7656,211.5 186.9375,211.5 Q187.2656,211.5 187.5,211.7656 Q187.75,212.0156 187.75,212.375 Q187.75,212.7188 187.4063,213.125 Q186.9063,213.7188 186.1094,214.0469 Q185.0625,214.5 183.7813,214.5 Q182.2813,214.5 181.0781,213.9063 Q180.1094,213.4375 179.4219,212.4219 Q178.75,211.4063 178.75,210.2031 L178.75,209.1094 Q178.75,207.8594 179.3438,206.7656 Q179.9531,205.6719 181,205.0938 Q182.0625,204.5 183.25,204.5 Q183.9688,204.5 184.5938,204.75 Q185.2188,205 185.75,205.5 Z "/><text fill="#000000" font-family="sans-serif" font-size="12" lengthAdjust="spacingAndGlyphs" textLength="128" x="204.25" y="213.9102">MakeAnOrderController</text><line style="stroke: #A80036; stroke-width: 1.5;" x1="39.5" x2="464.5" y1="225" y2="225"/><line style="stroke: #A80036; stroke-width: 1.5;" x1="39.5" x2="464.5" y1="233" y2="233"/><text fill="#000000" font-family="sans-serif" font-size="11" lengthAdjust="spacingAndGlyphs" textLength="415" x="44.5" y="248.4189">+newOrder(amount, totalWeight, additionalFee, orderDate, description, status, latitude,</text><text fill="#000000" font-family="sans-serif" font-size="11" lengthAdjust="spacingAndGlyphs" textLength="364" x="44.5" y="262.2549">longitude, streetName, doorNumber, postalCode, locality, country, products)</text><text fill="#000000" font-family="sans-serif" font-size="11" lengthAdjust="spacingAndGlyphs" textLength="79" x="44.5" y="276.0908">+registerOrder()</text><text fill="#000000" font-family="sans-serif" font-size="11" lengthAdjust="spacingAndGlyphs" textLength="172" x="44.5" y="289.9268">+getAvailableProducts(pharmacyId)</text><text fill="#000000" font-family="sans-serif" font-size="11" lengthAdjust="spacingAndGlyphs" textLength="85" x="44.5" y="303.7627">+getPharmacies()</text><!--MD5=[e45a4727c47b726c25e081782e8bc183]
class ApplicationPOT--><rect fill="#FEFECE" filter="url(#f1vs9d7ep91jab)" height="75.6719" id="ApplicationPOT" style="stroke: #A80036; stroke-width: 1.5;" width="116" x="154" y="406.5"/><ellipse cx="169" cy="422.5" fill="#ADD1B2" rx="11" ry="11" style="stroke: #A80036; stroke-width: 1.0;"/><path d="M171,419 Q171.2031,418.5 171.4375,418.25 Q171.6719,418 171.9375,418 Q172.4063,418 172.7031,418.2813 Q173,418.5625 173,419.2188 L173,420.7813 Q173,421.4375 172.7188,421.7188 Q172.4375,422 172,422 Q171.6094,422 171.3594,421.8281 Q171.1094,421.6563 171,421.2031 Q170.9531,420.8906 170.7813,420.7188 Q170.4688,420.3906 169.9063,420.2031 Q169.3438,420 168.7813,420 Q168.0781,420 167.4844,420.2813 Q166.9063,420.5625 166.4531,421.1875 Q166,421.8125 166,422.6719 L166,423.5938 Q166,424.625 166.8438,425.3125 Q167.6875,426 169.1875,426 Q170.0781,426 170.7031,425.7969 Q171.0625,425.6875 171.4688,425.3281 Q171.7344,425.125 171.875,425.0625 Q172.0156,425 172.1875,425 Q172.5156,425 172.75,425.2656 Q173,425.5156 173,425.875 Q173,426.2188 172.6563,426.625 Q172.1563,427.2188 171.3594,427.5469 Q170.3125,428 169.0313,428 Q167.5313,428 166.3281,427.4063 Q165.3594,426.9375 164.6719,425.9219 Q164,424.9063 164,423.7031 L164,422.6094 Q164,421.3594 164.5938,420.2656 Q165.2031,419.1719 166.25,418.5938 Q167.3125,418 168.5,418 Q169.2188,418 169.8438,418.25 Q170.4688,418.5 171,419 Z "/><text fill="#000000" font-family="sans-serif" font-size="12" lengthAdjust="spacingAndGlyphs" textLength="84" x="183" y="427.4102">ApplicationPOT</text><line style="stroke: #A80036; stroke-width: 1.5;" x1="155" x2="269" y1="438.5" y2="438.5"/><line style="stroke: #A80036; stroke-width: 1.5;" x1="155" x2="269" y1="446.5" y2="446.5"/><text fill="#000000" font-family="sans-serif" font-size="11" lengthAdjust="spacingAndGlyphs" textLength="99" x="160" y="461.9189">+static getInstance()</text><text fill="#000000" font-family="sans-serif" font-size="11" lengthAdjust="spacingAndGlyphs" textLength="68" x="160" y="475.7549">+getPlatform()</text><!--MD5=[c5b08e60048ef1bcd788d24cf324082e]
class UserSession--><rect fill="#FEFECE" filter="url(#f1vs9d7ep91jab)" height="61.8359" id="UserSession" style="stroke: #A80036; stroke-width: 1.5;" width="116" x="305" y="413.5"/><ellipse cx="324.95" cy="429.5" fill="#ADD1B2" rx="11" ry="11" style="stroke: #A80036; stroke-width: 1.0;"/><path d="M326.95,426 Q327.1531,425.5 327.3875,425.25 Q327.6219,425 327.8875,425 Q328.3563,425 328.6531,425.2813 Q328.95,425.5625 328.95,426.2188 L328.95,427.7813 Q328.95,428.4375 328.6688,428.7188 Q328.3875,429 327.95,429 Q327.5594,429 327.3094,428.8281 Q327.0594,428.6563 326.95,428.2031 Q326.9031,427.8906 326.7313,427.7188 Q326.4188,427.3906 325.8563,427.2031 Q325.2938,427 324.7313,427 Q324.0281,427 323.4344,427.2813 Q322.8563,427.5625 322.4031,428.1875 Q321.95,428.8125 321.95,429.6719 L321.95,430.5938 Q321.95,431.625 322.7938,432.3125 Q323.6375,433 325.1375,433 Q326.0281,433 326.6531,432.7969 Q327.0125,432.6875 327.4188,432.3281 Q327.6844,432.125 327.825,432.0625 Q327.9656,432 328.1375,432 Q328.4656,432 328.7,432.2656 Q328.95,432.5156 328.95,432.875 Q328.95,433.2188 328.6063,433.625 Q328.1063,434.2188 327.3094,434.5469 Q326.2625,435 324.9813,435 Q323.4813,435 322.2781,434.4063 Q321.3094,433.9375 320.6219,432.9219 Q319.95,431.9063 319.95,430.7031 L319.95,429.6094 Q319.95,428.3594 320.5438,427.2656 Q321.1531,426.1719 322.2,425.5938 Q323.2625,425 324.45,425 Q325.1688,425 325.7938,425.25 Q326.4188,425.5 326.95,426 Z "/><text fill="#000000" font-family="sans-serif" font-size="12" lengthAdjust="spacingAndGlyphs" textLength="73" x="340.05" y="434.4102">UserSession</text><line style="stroke: #A80036; stroke-width: 1.5;" x1="306" x2="420" y1="445.5" y2="445.5"/><line style="stroke: #A80036; stroke-width: 1.5;" x1="306" x2="420" y1="453.5" y2="453.5"/><text fill="#000000" font-family="sans-serif" font-size="11" lengthAdjust="spacingAndGlyphs" textLength="104" x="311" y="468.9189">+getCurrentSession()</text><!--MD5=[99b8db98afdc2c8404e39242ef4c1e65]
class Platform--><rect fill="#FEFECE" filter="url(#f1vs9d7ep91jab)" height="103.3438" id="Platform" style="stroke: #A80036; stroke-width: 1.5;" width="102" x="532" y="393"/><ellipse cx="557.8" cy="409" fill="#ADD1B2" rx="11" ry="11" style="stroke: #A80036; stroke-width: 1.0;"/><path d="M559.8,405.5 Q560.0031,405 560.2375,404.75 Q560.4719,404.5 560.7375,404.5 Q561.2063,404.5 561.5031,404.7813 Q561.8,405.0625 561.8,405.7188 L561.8,407.2813 Q561.8,407.9375 561.5188,408.2188 Q561.2375,408.5 560.8,408.5 Q560.4094,408.5 560.1594,408.3281 Q559.9094,408.1563 559.8,407.7031 Q559.7531,407.3906 559.5813,407.2188 Q559.2688,406.8906 558.7063,406.7031 Q558.1438,406.5 557.5813,406.5 Q556.8781,406.5 556.2844,406.7813 Q555.7063,407.0625 555.2531,407.6875 Q554.8,408.3125 554.8,409.1719 L554.8,410.0938 Q554.8,411.125 555.6438,411.8125 Q556.4875,412.5 557.9875,412.5 Q558.8781,412.5 559.5031,412.2969 Q559.8625,412.1875 560.2688,411.8281 Q560.5344,411.625 560.675,411.5625 Q560.8156,411.5 560.9875,411.5 Q561.3156,411.5 561.55,411.7656 Q561.8,412.0156 561.8,412.375 Q561.8,412.7188 561.4563,413.125 Q560.9563,413.7188 560.1594,414.0469 Q559.1125,414.5 557.8313,414.5 Q556.3313,414.5 555.1281,413.9063 Q554.1594,413.4375 553.4719,412.4219 Q552.8,411.4063 552.8,410.2031 L552.8,409.1094 Q552.8,407.8594 553.3938,406.7656 Q554.0031,405.6719 555.05,405.0938 Q556.1125,404.5 557.3,404.5 Q558.0188,404.5 558.6438,404.75 Q559.2688,405 559.8,405.5 Z "/><text fill="#000000" font-family="sans-serif" font-size="12" lengthAdjust="spacingAndGlyphs" textLength="46" x="574.2" y="413.9102">Platform</text><line style="stroke: #A80036; stroke-width: 1.5;" x1="533" x2="633" y1="425" y2="425"/><text fill="#000000" font-family="sans-serif" font-size="11" lengthAdjust="spacingAndGlyphs" textLength="90" x="538" y="440.4189">-String designation</text><line style="stroke: #A80036; stroke-width: 1.5;" x1="533" x2="633" y1="446.8359" y2="446.8359"/><text fill="#000000" font-family="sans-serif" font-size="11" lengthAdjust="spacingAndGlyphs" textLength="74" x="538" y="462.2549">+getClientReg()</text><text fill="#000000" font-family="sans-serif" font-size="11" lengthAdjust="spacingAndGlyphs" textLength="85" x="538" y="476.0908">+getProductReg()</text><text fill="#000000" font-family="sans-serif" font-size="11" lengthAdjust="spacingAndGlyphs" textLength="76" x="538" y="489.9268">+getOrderReg()</text><!--MD5=[3fd616f346a44cd59a91eb10b19e157c]
class User--><rect fill="#FEFECE" filter="url(#f1vs9d7ep91jab)" height="103.3438" id="User" style="stroke: #A80036; stroke-width: 1.5;" width="97" x="531.5" y="1226"/><ellipse cx="564.05" cy="1242" fill="#A9DCDF" rx="11" ry="11" style="stroke: #A80036; stroke-width: 1.0;"/><path d="M565.8,1243.5 L562.5031,1243.5 L562.0656,1244.5 L562.0656,1244.5 L562.5344,1244.5 L563.05,1245.125 L563.05,1245.5 L563.05,1245.875 L562.5344,1246.5 L562.0656,1246.5 L560.175,1246.5 L559.5656,1246.5 L559.05,1245.875 L559.05,1245.5 L559.05,1245.125 L559.5656,1244.5 L560.175,1244.5 L562.4875,1238.5 L561.6125,1238.5 L560.5656,1238.5 L560.05,1237.875 L560.05,1237.5 L560.05,1237.125 L560.5656,1236.5 L561.6125,1236.5 L565.2844,1236.5 L567.9719,1244.5 L568.5344,1244.5 L568.5344,1244.5 L569.05,1245.125 L569.05,1245.5 L569.05,1245.875 L568.5344,1246.5 L567.9719,1246.5 L566.0813,1246.5 L565.5656,1246.5 L565.05,1245.875 L565.05,1245.5 L565.05,1245.125 L565.5656,1244.5 L566.0813,1244.5 L566.0813,1244.5 L565.8,1243.5 Z M565.2531,1241.5 L564.05,1237.9219 L563.0188,1241.5 L565.2531,1241.5 Z "/><text fill="#000000" font-family="sans-serif" font-size="12" font-style="italic" lengthAdjust="spacingAndGlyphs" textLength="26" x="581.95" y="1246.9102">User</text><line style="stroke: #A80036; stroke-width: 1.5;" x1="532.5" x2="627.5" y1="1258" y2="1258"/><text fill="#000000" font-family="sans-serif" font-size="11" lengthAdjust="spacingAndGlyphs" textLength="61" x="537.5" y="1273.4189">-String name</text><text fill="#000000" font-family="sans-serif" font-size="11" lengthAdjust="spacingAndGlyphs" textLength="59" x="537.5" y="1287.2549">-String email</text><text fill="#000000" font-family="sans-serif" font-size="11" lengthAdjust="spacingAndGlyphs" textLength="85" x="537.5" y="1301.0908">-String password</text><text fill="#000000" font-family="sans-serif" font-size="11" lengthAdjust="spacingAndGlyphs" textLength="52" x="537.5" y="1314.9268">-Integer nif</text><line style="stroke: #A80036; stroke-width: 1.5;" x1="532.5" x2="627.5" y1="1321.3438" y2="1321.3438"/><!--MD5=[ed6624c6556d5e7b1bd23032162d20b7]
class Client--><rect fill="#FEFECE" filter="url(#f1vs9d7ep91jab)" height="131.0156" id="Client" style="stroke: #A80036; stroke-width: 1.5;" width="155" x="704.5" y="752"/><ellipse cx="761.75" cy="768" fill="#ADD1B2" rx="11" ry="11" style="stroke: #A80036; stroke-width: 1.0;"/><path d="M763.75,764.5 Q763.9531,764 764.1875,763.75 Q764.4219,763.5 764.6875,763.5 Q765.1563,763.5 765.4531,763.7813 Q765.75,764.0625 765.75,764.7188 L765.75,766.2813 Q765.75,766.9375 765.4688,767.2188 Q765.1875,767.5 764.75,767.5 Q764.3594,767.5 764.1094,767.3281 Q763.8594,767.1563 763.75,766.7031 Q763.7031,766.3906 763.5313,766.2188 Q763.2188,765.8906 762.6563,765.7031 Q762.0938,765.5 761.5313,765.5 Q760.8281,765.5 760.2344,765.7813 Q759.6563,766.0625 759.2031,766.6875 Q758.75,767.3125 758.75,768.1719 L758.75,769.0938 Q758.75,770.125 759.5938,770.8125 Q760.4375,771.5 761.9375,771.5 Q762.8281,771.5 763.4531,771.2969 Q763.8125,771.1875 764.2188,770.8281 Q764.4844,770.625 764.625,770.5625 Q764.7656,770.5 764.9375,770.5 Q765.2656,770.5 765.5,770.7656 Q765.75,771.0156 765.75,771.375 Q765.75,771.7188 765.4063,772.125 Q764.9063,772.7188 764.1094,773.0469 Q763.0625,773.5 761.7813,773.5 Q760.2813,773.5 759.0781,772.9063 Q758.1094,772.4375 757.4219,771.4219 Q756.75,770.4063 756.75,769.2031 L756.75,768.1094 Q756.75,766.8594 757.3438,765.7656 Q757.9531,764.6719 759,764.0938 Q760.0625,763.5 761.25,763.5 Q761.9688,763.5 762.5938,763.75 Q763.2188,764 763.75,764.5 Z "/><text fill="#000000" font-family="sans-serif" font-size="12" lengthAdjust="spacingAndGlyphs" textLength="32" x="782.25" y="772.9102">Client</text><line style="stroke: #A80036; stroke-width: 1.5;" x1="705.5" x2="858.5" y1="784" y2="784"/><text fill="#000000" font-family="sans-serif" font-size="11" lengthAdjust="spacingAndGlyphs" textLength="45" x="710.5" y="799.4189">-int IBAN;</text><text fill="#000000" font-family="sans-serif" font-size="11" lengthAdjust="spacingAndGlyphs" textLength="114" x="710.5" y="813.2549">-long creditCardNumber</text><text fill="#000000" font-family="sans-serif" font-size="11" lengthAdjust="spacingAndGlyphs" textLength="89" x="710.5" y="827.0908">-Address address</text><text fill="#000000" font-family="sans-serif" font-size="11" lengthAdjust="spacingAndGlyphs" textLength="73" x="710.5" y="840.9268">-int validityDate</text><text fill="#000000" font-family="sans-serif" font-size="11" lengthAdjust="spacingAndGlyphs" textLength="40" x="710.5" y="854.7627">-int CCV</text><line style="stroke: #A80036; stroke-width: 1.5;" x1="705.5" x2="858.5" y1="861.1797" y2="861.1797"/><text fill="#000000" font-family="sans-serif" font-size="11" lengthAdjust="spacingAndGlyphs" textLength="143" x="710.5" y="876.5986">+addCredits(addtionalCredits)</text><!--MD5=[0f39e4cb6f03951afbf6d14bd2505654]
class Address--><rect fill="#FEFECE" filter="url(#f1vs9d7ep91jab)" height="158.6875" id="Address" style="stroke: #A80036; stroke-width: 1.5;" width="342" x="819" y="1198"/><ellipse cx="962.75" cy="1214" fill="#ADD1B2" rx="11" ry="11" style="stroke: #A80036; stroke-width: 1.0;"/><path d="M964.75,1210.5 Q964.9531,1210 965.1875,1209.75 Q965.4219,1209.5 965.6875,1209.5 Q966.1563,1209.5 966.4531,1209.7813 Q966.75,1210.0625 966.75,1210.7188 L966.75,1212.2813 Q966.75,1212.9375 966.4688,1213.2188 Q966.1875,1213.5 965.75,1213.5 Q965.3594,1213.5 965.1094,1213.3281 Q964.8594,1213.1563 964.75,1212.7031 Q964.7031,1212.3906 964.5313,1212.2188 Q964.2188,1211.8906 963.6563,1211.7031 Q963.0938,1211.5 962.5313,1211.5 Q961.8281,1211.5 961.2344,1211.7813 Q960.6563,1212.0625 960.2031,1212.6875 Q959.75,1213.3125 959.75,1214.1719 L959.75,1215.0938 Q959.75,1216.125 960.5938,1216.8125 Q961.4375,1217.5 962.9375,1217.5 Q963.8281,1217.5 964.4531,1217.2969 Q964.8125,1217.1875 965.2188,1216.8281 Q965.4844,1216.625 965.625,1216.5625 Q965.7656,1216.5 965.9375,1216.5 Q966.2656,1216.5 966.5,1216.7656 Q966.75,1217.0156 966.75,1217.375 Q966.75,1217.7188 966.4063,1218.125 Q965.9063,1218.7188 965.1094,1219.0469 Q964.0625,1219.5 962.7813,1219.5 Q961.2813,1219.5 960.0781,1218.9063 Q959.1094,1218.4375 958.4219,1217.4219 Q957.75,1216.4063 957.75,1215.2031 L957.75,1214.1094 Q957.75,1212.8594 958.3438,1211.7656 Q958.9531,1210.6719 960,1210.0938 Q961.0625,1209.5 962.25,1209.5 Q962.9688,1209.5 963.5938,1209.75 Q964.2188,1210 964.75,1210.5 Z "/><text fill="#000000" font-family="sans-serif" font-size="12" lengthAdjust="spacingAndGlyphs" textLength="46" x="983.25" y="1218.9102">Address</text><line style="stroke: #A80036; stroke-width: 1.5;" x1="820" x2="1160" y1="1230" y2="1230"/><text fill="#000000" font-family="sans-serif" font-size="11" lengthAdjust="spacingAndGlyphs" textLength="90" x="825" y="1245.4189">-String streetName</text><text fill="#000000" font-family="sans-serif" font-size="11" lengthAdjust="spacingAndGlyphs" textLength="94" x="825" y="1259.2549">-String doorNumber</text><text fill="#000000" font-family="sans-serif" font-size="11" lengthAdjust="spacingAndGlyphs" textLength="89" x="825" y="1273.0908">-String postalCode</text><text fill="#000000" font-family="sans-serif" font-size="11" lengthAdjust="spacingAndGlyphs" textLength="68" x="825" y="1286.9268">-String locality</text><text fill="#000000" font-family="sans-serif" font-size="11" lengthAdjust="spacingAndGlyphs" textLength="72" x="825" y="1300.7627">-String country</text><text fill="#000000" font-family="sans-serif" font-size="11" lengthAdjust="spacingAndGlyphs" textLength="71" x="825" y="1314.5986">-float longitude</text><text fill="#000000" font-family="sans-serif" font-size="11" lengthAdjust="spacingAndGlyphs" textLength="62" x="825" y="1328.4346">-float latitude</text><line style="stroke: #A80036; stroke-width: 1.5;" x1="820" x2="1160" y1="1334.8516" y2="1334.8516"/><text fill="#000000" font-family="sans-serif" font-size="11" lengthAdjust="spacingAndGlyphs" textLength="330" x="825" y="1350.2705">+create(streetName,doorNumber,locality,country,longitude,longitude)</text><!--MD5=[cf4d6237fcae255cd2e1656cf84a30e2]
class Order--><rect fill="#FEFECE" filter="url(#f1vs9d7ep91jab)" height="158.6875" id="Order" style="stroke: #A80036; stroke-width: 1.5;" width="666" x="810" y="961"/><ellipse cx="1123.25" cy="977" fill="#ADD1B2" rx="11" ry="11" style="stroke: #A80036; stroke-width: 1.0;"/><path d="M1125.25,973.5 Q1125.4531,973 1125.6875,972.75 Q1125.9219,972.5 1126.1875,972.5 Q1126.6563,972.5 1126.9531,972.7813 Q1127.25,973.0625 1127.25,973.7188 L1127.25,975.2813 Q1127.25,975.9375 1126.9688,976.2188 Q1126.6875,976.5 1126.25,976.5 Q1125.8594,976.5 1125.6094,976.3281 Q1125.3594,976.1563 1125.25,975.7031 Q1125.2031,975.3906 1125.0313,975.2188 Q1124.7188,974.8906 1124.1563,974.7031 Q1123.5938,974.5 1123.0313,974.5 Q1122.3281,974.5 1121.7344,974.7813 Q1121.1563,975.0625 1120.7031,975.6875 Q1120.25,976.3125 1120.25,977.1719 L1120.25,978.0938 Q1120.25,979.125 1121.0938,979.8125 Q1121.9375,980.5 1123.4375,980.5 Q1124.3281,980.5 1124.9531,980.2969 Q1125.3125,980.1875 1125.7188,979.8281 Q1125.9844,979.625 1126.125,979.5625 Q1126.2656,979.5 1126.4375,979.5 Q1126.7656,979.5 1127,979.7656 Q1127.25,980.0156 1127.25,980.375 Q1127.25,980.7188 1126.9063,981.125 Q1126.4063,981.7188 1125.6094,982.0469 Q1124.5625,982.5 1123.2813,982.5 Q1121.7813,982.5 1120.5781,981.9063 Q1119.6094,981.4375 1118.9219,980.4219 Q1118.25,979.4063 1118.25,978.2031 L1118.25,977.1094 Q1118.25,975.8594 1118.8438,974.7656 Q1119.4531,973.6719 1120.5,973.0938 Q1121.5625,972.5 1122.75,972.5 Q1123.4688,972.5 1124.0938,972.75 Q1124.7188,973 1125.25,973.5 Z "/><text fill="#000000" font-family="sans-serif" font-size="12" lengthAdjust="spacingAndGlyphs" textLength="31" x="1143.75" y="981.9102">Order</text><line style="stroke: #A80036; stroke-width: 1.5;" x1="811" x2="1475" y1="993" y2="993"/><text fill="#000000" font-family="sans-serif" font-size="11" lengthAdjust="spacingAndGlyphs" textLength="26" x="816" y="1008.4189">-int id</text><text fill="#000000" font-family="sans-serif" font-size="11" lengthAdjust="spacingAndGlyphs" textLength="63" x="816" y="1022.2549">-float amount</text><text fill="#000000" font-family="sans-serif" font-size="11" lengthAdjust="spacingAndGlyphs" textLength="81" x="816" y="1036.0908">-float totalWeight</text><text fill="#000000" font-family="sans-serif" font-size="11" lengthAdjust="spacingAndGlyphs" textLength="91" x="816" y="1049.9268">-float additionalFee</text><text fill="#000000" font-family="sans-serif" font-size="11" lengthAdjust="spacingAndGlyphs" textLength="77" x="816" y="1063.7627">-Date orderDate</text><text fill="#000000" font-family="sans-serif" font-size="11" lengthAdjust="spacingAndGlyphs" textLength="88" x="816" y="1077.5986">-String description</text><text fill="#000000" font-family="sans-serif" font-size="11" lengthAdjust="spacingAndGlyphs" textLength="65" x="816" y="1091.4346">-String status</text><line style="stroke: #A80036; stroke-width: 1.5;" x1="811" x2="1475" y1="1097.8516" y2="1097.8516"/><text fill="#000000" font-family="sans-serif" font-size="11" lengthAdjust="spacingAndGlyphs" textLength="654" x="816" y="1113.2705">+create(amount, additionalFee, dateOrder, description, mapProducts, client, streetName,doorNumber,locality,country,longitude,longitude)</text><!--MD5=[72136138052d025cffdce3c22fbd185f]
class Product--><rect fill="#FEFECE" filter="url(#f1vs9d7ep91jab)" height="117.1797" id="Product" style="stroke: #A80036; stroke-width: 1.5;" width="106" x="1327" y="1219"/><ellipse cx="1356.4" cy="1235" fill="#ADD1B2" rx="11" ry="11" style="stroke: #A80036; stroke-width: 1.0;"/><path d="M1358.4,1231.5 Q1358.6031,1231 1358.8375,1230.75 Q1359.0719,1230.5 1359.3375,1230.5 Q1359.8063,1230.5 1360.1031,1230.7813 Q1360.4,1231.0625 1360.4,1231.7188 L1360.4,1233.2813 Q1360.4,1233.9375 1360.1188,1234.2188 Q1359.8375,1234.5 1359.4,1234.5 Q1359.0094,1234.5 1358.7594,1234.3281 Q1358.5094,1234.1563 1358.4,1233.7031 Q1358.3531,1233.3906 1358.1813,1233.2188 Q1357.8688,1232.8906 1357.3063,1232.7031 Q1356.7438,1232.5 1356.1813,1232.5 Q1355.4781,1232.5 1354.8844,1232.7813 Q1354.3063,1233.0625 1353.8531,1233.6875 Q1353.4,1234.3125 1353.4,1235.1719 L1353.4,1236.0938 Q1353.4,1237.125 1354.2438,1237.8125 Q1355.0875,1238.5 1356.5875,1238.5 Q1357.4781,1238.5 1358.1031,1238.2969 Q1358.4625,1238.1875 1358.8688,1237.8281 Q1359.1344,1237.625 1359.275,1237.5625 Q1359.4156,1237.5 1359.5875,1237.5 Q1359.9156,1237.5 1360.15,1237.7656 Q1360.4,1238.0156 1360.4,1238.375 Q1360.4,1238.7188 1360.0563,1239.125 Q1359.5563,1239.7188 1358.7594,1240.0469 Q1357.7125,1240.5 1356.4313,1240.5 Q1354.9313,1240.5 1353.7281,1239.9063 Q1352.7594,1239.4375 1352.0719,1238.4219 Q1351.4,1237.4063 1351.4,1236.2031 L1351.4,1235.1094 Q1351.4,1233.8594 1351.9938,1232.7656 Q1352.6031,1231.6719 1353.65,1231.0938 Q1354.7125,1230.5 1355.9,1230.5 Q1356.6188,1230.5 1357.2438,1230.75 Q1357.8688,1231 1358.4,1231.5 Z "/><text fill="#000000" font-family="sans-serif" font-size="12" lengthAdjust="spacingAndGlyphs" textLength="42" x="1373.6" y="1239.9102">Product</text><line style="stroke: #A80036; stroke-width: 1.5;" x1="1328" x2="1432" y1="1251" y2="1251"/><text fill="#000000" font-family="sans-serif" font-size="11" lengthAdjust="spacingAndGlyphs" textLength="26" x="1333" y="1266.4189">-int id</text><text fill="#000000" font-family="sans-serif" font-size="11" lengthAdjust="spacingAndGlyphs" textLength="61" x="1333" y="1280.2549">-String name</text><text fill="#000000" font-family="sans-serif" font-size="11" lengthAdjust="spacingAndGlyphs" textLength="88" x="1333" y="1294.0908">-String description</text><text fill="#000000" font-family="sans-serif" font-size="11" lengthAdjust="spacingAndGlyphs" textLength="85" x="1333" y="1307.9268">-float unitaryPrice</text><text fill="#000000" font-family="sans-serif" font-size="11" lengthAdjust="spacingAndGlyphs" textLength="94" x="1333" y="1321.7627">-float unitaryWeight</text><line style="stroke: #A80036; stroke-width: 1.5;" x1="1328" x2="1432" y1="1328.1797" y2="1328.1797"/><!--MD5=[7f2a9fafcebe4f099f71398fd3e2ed00]
class Pharmacy--><rect fill="#FEFECE" filter="url(#f1vs9d7ep91jab)" height="75.6719" id="Pharmacy" style="stroke: #A80036; stroke-width: 1.5;" width="87" x="663.5" y="1239.5"/><ellipse cx="678.5" cy="1255.5" fill="#ADD1B2" rx="11" ry="11" style="stroke: #A80036; stroke-width: 1.0;"/><path d="M680.5,1252 Q680.7031,1251.5 680.9375,1251.25 Q681.1719,1251 681.4375,1251 Q681.9063,1251 682.2031,1251.2813 Q682.5,1251.5625 682.5,1252.2188 L682.5,1253.7813 Q682.5,1254.4375 682.2188,1254.7188 Q681.9375,1255 681.5,1255 Q681.1094,1255 680.8594,1254.8281 Q680.6094,1254.6563 680.5,1254.2031 Q680.4531,1253.8906 680.2813,1253.7188 Q679.9688,1253.3906 679.4063,1253.2031 Q678.8438,1253 678.2813,1253 Q677.5781,1253 676.9844,1253.2813 Q676.4063,1253.5625 675.9531,1254.1875 Q675.5,1254.8125 675.5,1255.6719 L675.5,1256.5938 Q675.5,1257.625 676.3438,1258.3125 Q677.1875,1259 678.6875,1259 Q679.5781,1259 680.2031,1258.7969 Q680.5625,1258.6875 680.9688,1258.3281 Q681.2344,1258.125 681.375,1258.0625 Q681.5156,1258 681.6875,1258 Q682.0156,1258 682.25,1258.2656 Q682.5,1258.5156 682.5,1258.875 Q682.5,1259.2188 682.1563,1259.625 Q681.6563,1260.2188 680.8594,1260.5469 Q679.8125,1261 678.5313,1261 Q677.0313,1261 675.8281,1260.4063 Q674.8594,1259.9375 674.1719,1258.9219 Q673.5,1257.9063 673.5,1256.7031 L673.5,1255.6094 Q673.5,1254.3594 674.0938,1253.2656 Q674.7031,1252.1719 675.75,1251.5938 Q676.8125,1251 678,1251 Q678.7188,1251 679.3438,1251.25 Q679.9688,1251.5 680.5,1252 Z "/><text fill="#000000" font-family="sans-serif" font-size="12" lengthAdjust="spacingAndGlyphs" textLength="55" x="692.5" y="1260.4102">Pharmacy</text><line style="stroke: #A80036; stroke-width: 1.5;" x1="664.5" x2="749.5" y1="1271.5" y2="1271.5"/><text fill="#000000" font-family="sans-serif" font-size="11" lengthAdjust="spacingAndGlyphs" textLength="26" x="669.5" y="1286.9189">-int id</text><text fill="#000000" font-family="sans-serif" font-size="11" lengthAdjust="spacingAndGlyphs" textLength="61" x="669.5" y="1300.7549">-String name</text><line style="stroke: #A80036; stroke-width: 1.5;" x1="664.5" x2="749.5" y1="1307.1719" y2="1307.1719"/><!--MD5=[2fa756869cccd4a326cf3bfeb06b754f]
class PharmacyManager--><rect fill="#FEFECE" filter="url(#f1vs9d7ep91jab)" height="48" id="PharmacyManager" style="stroke: #A80036; stroke-width: 1.5;" width="135" x="561.5" y="1435"/><ellipse cx="576.5" cy="1451" fill="#ADD1B2" rx="11" ry="11" style="stroke: #A80036; stroke-width: 1.0;"/><path d="M578.5,1447.5 Q578.7031,1447 578.9375,1446.75 Q579.1719,1446.5 579.4375,1446.5 Q579.9063,1446.5 580.2031,1446.7813 Q580.5,1447.0625 580.5,1447.7188 L580.5,1449.2813 Q580.5,1449.9375 580.2188,1450.2188 Q579.9375,1450.5 579.5,1450.5 Q579.1094,1450.5 578.8594,1450.3281 Q578.6094,1450.1563 578.5,1449.7031 Q578.4531,1449.3906 578.2813,1449.2188 Q577.9688,1448.8906 577.4063,1448.7031 Q576.8438,1448.5 576.2813,1448.5 Q575.5781,1448.5 574.9844,1448.7813 Q574.4063,1449.0625 573.9531,1449.6875 Q573.5,1450.3125 573.5,1451.1719 L573.5,1452.0938 Q573.5,1453.125 574.3438,1453.8125 Q575.1875,1454.5 576.6875,1454.5 Q577.5781,1454.5 578.2031,1454.2969 Q578.5625,1454.1875 578.9688,1453.8281 Q579.2344,1453.625 579.375,1453.5625 Q579.5156,1453.5 579.6875,1453.5 Q580.0156,1453.5 580.25,1453.7656 Q580.5,1454.0156 580.5,1454.375 Q580.5,1454.7188 580.1563,1455.125 Q579.6563,1455.7188 578.8594,1456.0469 Q577.8125,1456.5 576.5313,1456.5 Q575.0313,1456.5 573.8281,1455.9063 Q572.8594,1455.4375 572.1719,1454.4219 Q571.5,1453.4063 571.5,1452.2031 L571.5,1451.1094 Q571.5,1449.8594 572.0938,1448.7656 Q572.7031,1447.6719 573.75,1447.0938 Q574.8125,1446.5 576,1446.5 Q576.7188,1446.5 577.3438,1446.75 Q577.9688,1447 578.5,1447.5 Z "/><text fill="#000000" font-family="sans-serif" font-size="12" lengthAdjust="spacingAndGlyphs" textLength="103" x="590.5" y="1455.9102">PharmacyManager</text><line style="stroke: #A80036; stroke-width: 1.5;" x1="562.5" x2="695.5" y1="1467" y2="1467"/><line style="stroke: #A80036; stroke-width: 1.5;" x1="562.5" x2="695.5" y1="1475" y2="1475"/><!--MD5=[fa2eb4bbb726c410908f1f53a3c9f4ac]
class OrderRegistration--><rect fill="#FEFECE" filter="url(#f1vs9d7ep91jab)" height="75.6719" id="OrderRegistration" style="stroke: #A80036; stroke-width: 1.5;" width="456" x="902" y="596"/><ellipse cx="1076.75" cy="612" fill="#ADD1B2" rx="11" ry="11" style="stroke: #A80036; stroke-width: 1.0;"/><path d="M1078.75,608.5 Q1078.9531,608 1079.1875,607.75 Q1079.4219,607.5 1079.6875,607.5 Q1080.1563,607.5 1080.4531,607.7813 Q1080.75,608.0625 1080.75,608.7188 L1080.75,610.2813 Q1080.75,610.9375 1080.4688,611.2188 Q1080.1875,611.5 1079.75,611.5 Q1079.3594,611.5 1079.1094,611.3281 Q1078.8594,611.1563 1078.75,610.7031 Q1078.7031,610.3906 1078.5313,610.2188 Q1078.2188,609.8906 1077.6563,609.7031 Q1077.0938,609.5 1076.5313,609.5 Q1075.8281,609.5 1075.2344,609.7813 Q1074.6563,610.0625 1074.2031,610.6875 Q1073.75,611.3125 1073.75,612.1719 L1073.75,613.0938 Q1073.75,614.125 1074.5938,614.8125 Q1075.4375,615.5 1076.9375,615.5 Q1077.8281,615.5 1078.4531,615.2969 Q1078.8125,615.1875 1079.2188,614.8281 Q1079.4844,614.625 1079.625,614.5625 Q1079.7656,614.5 1079.9375,614.5 Q1080.2656,614.5 1080.5,614.7656 Q1080.75,615.0156 1080.75,615.375 Q1080.75,615.7188 1080.4063,616.125 Q1079.9063,616.7188 1079.1094,617.0469 Q1078.0625,617.5 1076.7813,617.5 Q1075.2813,617.5 1074.0781,616.9063 Q1073.1094,616.4375 1072.4219,615.4219 Q1071.75,614.4063 1071.75,613.2031 L1071.75,612.1094 Q1071.75,610.8594 1072.3438,609.7656 Q1072.9531,608.6719 1074,608.0938 Q1075.0625,607.5 1076.25,607.5 Q1076.9688,607.5 1077.5938,607.75 Q1078.2188,608 1078.75,608.5 Z "/><text fill="#000000" font-family="sans-serif" font-size="12" lengthAdjust="spacingAndGlyphs" textLength="98" x="1097.25" y="616.9102">OrderRegistration</text><line style="stroke: #A80036; stroke-width: 1.5;" x1="903" x2="1357" y1="628" y2="628"/><line style="stroke: #A80036; stroke-width: 1.5;" x1="903" x2="1357" y1="636" y2="636"/><text fill="#000000" font-family="sans-serif" font-size="11" lengthAdjust="spacingAndGlyphs" textLength="444" x="908" y="651.4189">+addPharmacy(address, amount, additionalFee, dateOrder, description, mapProducts, client)</text><text fill="#000000" font-family="sans-serif" font-size="11" lengthAdjust="spacingAndGlyphs" textLength="105" x="908" y="665.2549">+registerOrder(order)</text><!--MD5=[c5b7c01e8de644a6bcc6ccb0cb86eabf]
class PharmacyRegistration--><rect fill="#FEFECE" filter="url(#f1vs9d7ep91jab)" height="61.8359" id="PharmacyRegistration" style="stroke: #A80036; stroke-width: 1.5;" width="154" x="713" y="603"/><ellipse cx="728" cy="619" fill="#ADD1B2" rx="11" ry="11" style="stroke: #A80036; stroke-width: 1.0;"/><path d="M730,615.5 Q730.2031,615 730.4375,614.75 Q730.6719,614.5 730.9375,614.5 Q731.4063,614.5 731.7031,614.7813 Q732,615.0625 732,615.7188 L732,617.2813 Q732,617.9375 731.7188,618.2188 Q731.4375,618.5 731,618.5 Q730.6094,618.5 730.3594,618.3281 Q730.1094,618.1563 730,617.7031 Q729.9531,617.3906 729.7813,617.2188 Q729.4688,616.8906 728.9063,616.7031 Q728.3438,616.5 727.7813,616.5 Q727.0781,616.5 726.4844,616.7813 Q725.9063,617.0625 725.4531,617.6875 Q725,618.3125 725,619.1719 L725,620.0938 Q725,621.125 725.8438,621.8125 Q726.6875,622.5 728.1875,622.5 Q729.0781,622.5 729.7031,622.2969 Q730.0625,622.1875 730.4688,621.8281 Q730.7344,621.625 730.875,621.5625 Q731.0156,621.5 731.1875,621.5 Q731.5156,621.5 731.75,621.7656 Q732,622.0156 732,622.375 Q732,622.7188 731.6563,623.125 Q731.1563,623.7188 730.3594,624.0469 Q729.3125,624.5 728.0313,624.5 Q726.5313,624.5 725.3281,623.9063 Q724.3594,623.4375 723.6719,622.4219 Q723,621.4063 723,620.2031 L723,619.1094 Q723,617.8594 723.5938,616.7656 Q724.2031,615.6719 725.25,615.0938 Q726.3125,614.5 727.5,614.5 Q728.2188,614.5 728.8438,614.75 Q729.4688,615 730,615.5 Z "/><text fill="#000000" font-family="sans-serif" font-size="12" lengthAdjust="spacingAndGlyphs" textLength="122" x="742" y="623.9102">PharmacyRegistration</text><line style="stroke: #A80036; stroke-width: 1.5;" x1="714" x2="866" y1="635" y2="635"/><line style="stroke: #A80036; stroke-width: 1.5;" x1="714" x2="866" y1="643" y2="643"/><text fill="#000000" font-family="sans-serif" font-size="11" lengthAdjust="spacingAndGlyphs" textLength="85" x="719" y="658.4189">+getPharmacies()</text><!--MD5=[9c2d4e25e0086734e4ce1577f70bbb4e]
class ProductRegistration--><rect fill="#FEFECE" filter="url(#f1vs9d7ep91jab)" height="61.8359" id="ProductRegistration" style="stroke: #A80036; stroke-width: 1.5;" width="184" x="1393" y="603"/><ellipse cx="1427.35" cy="619" fill="#ADD1B2" rx="11" ry="11" style="stroke: #A80036; stroke-width: 1.0;"/><path d="M1429.35,615.5 Q1429.5531,615 1429.7875,614.75 Q1430.0219,614.5 1430.2875,614.5 Q1430.7563,614.5 1431.0531,614.7813 Q1431.35,615.0625 1431.35,615.7188 L1431.35,617.2813 Q1431.35,617.9375 1431.0688,618.2188 Q1430.7875,618.5 1430.35,618.5 Q1429.9594,618.5 1429.7094,618.3281 Q1429.4594,618.1563 1429.35,617.7031 Q1429.3031,617.3906 1429.1313,617.2188 Q1428.8188,616.8906 1428.2563,616.7031 Q1427.6938,616.5 1427.1313,616.5 Q1426.4281,616.5 1425.8344,616.7813 Q1425.2563,617.0625 1424.8031,617.6875 Q1424.35,618.3125 1424.35,619.1719 L1424.35,620.0938 Q1424.35,621.125 1425.1938,621.8125 Q1426.0375,622.5 1427.5375,622.5 Q1428.4281,622.5 1429.0531,622.2969 Q1429.4125,622.1875 1429.8188,621.8281 Q1430.0844,621.625 1430.225,621.5625 Q1430.3656,621.5 1430.5375,621.5 Q1430.8656,621.5 1431.1,621.7656 Q1431.35,622.0156 1431.35,622.375 Q1431.35,622.7188 1431.0063,623.125 Q1430.5063,623.7188 1429.7094,624.0469 Q1428.6625,624.5 1427.3813,624.5 Q1425.8813,624.5 1424.6781,623.9063 Q1423.7094,623.4375 1423.0219,622.4219 Q1422.35,621.4063 1422.35,620.2031 L1422.35,619.1094 Q1422.35,617.8594 1422.9438,616.7656 Q1423.5531,615.6719 1424.6,615.0938 Q1425.6625,614.5 1426.85,614.5 Q1427.5688,614.5 1428.1938,614.75 Q1428.8188,615 1429.35,615.5 Z "/><text fill="#000000" font-family="sans-serif" font-size="12" lengthAdjust="spacingAndGlyphs" textLength="109" x="1445.65" y="623.9102">ProductRegistration</text><line style="stroke: #A80036; stroke-width: 1.5;" x1="1394" x2="1576" y1="635" y2="635"/><line style="stroke: #A80036; stroke-width: 1.5;" x1="1394" x2="1576" y1="643" y2="643"/><text fill="#000000" font-family="sans-serif" font-size="11" lengthAdjust="spacingAndGlyphs" textLength="172" x="1399" y="658.4189">+getAvailableProducts(pharmacyId)</text><!--MD5=[d0b42ea7f64b79a0b58ded84ada2dba0]
class ClientRegistration--><rect fill="#FEFECE" filter="url(#f1vs9d7ep91jab)" height="61.8359" id="ClientRegistration" style="stroke: #A80036; stroke-width: 1.5;" width="131" x="546.5" y="603"/><ellipse cx="561.5" cy="619" fill="#ADD1B2" rx="11" ry="11" style="stroke: #A80036; stroke-width: 1.0;"/><path d="M563.5,615.5 Q563.7031,615 563.9375,614.75 Q564.1719,614.5 564.4375,614.5 Q564.9063,614.5 565.2031,614.7813 Q565.5,615.0625 565.5,615.7188 L565.5,617.2813 Q565.5,617.9375 565.2188,618.2188 Q564.9375,618.5 564.5,618.5 Q564.1094,618.5 563.8594,618.3281 Q563.6094,618.1563 563.5,617.7031 Q563.4531,617.3906 563.2813,617.2188 Q562.9688,616.8906 562.4063,616.7031 Q561.8438,616.5 561.2813,616.5 Q560.5781,616.5 559.9844,616.7813 Q559.4063,617.0625 558.9531,617.6875 Q558.5,618.3125 558.5,619.1719 L558.5,620.0938 Q558.5,621.125 559.3438,621.8125 Q560.1875,622.5 561.6875,622.5 Q562.5781,622.5 563.2031,622.2969 Q563.5625,622.1875 563.9688,621.8281 Q564.2344,621.625 564.375,621.5625 Q564.5156,621.5 564.6875,621.5 Q565.0156,621.5 565.25,621.7656 Q565.5,622.0156 565.5,622.375 Q565.5,622.7188 565.1563,623.125 Q564.6563,623.7188 563.8594,624.0469 Q562.8125,624.5 561.5313,624.5 Q560.0313,624.5 558.8281,623.9063 Q557.8594,623.4375 557.1719,622.4219 Q556.5,621.4063 556.5,620.2031 L556.5,619.1094 Q556.5,617.8594 557.0938,616.7656 Q557.7031,615.6719 558.75,615.0938 Q559.8125,614.5 561,614.5 Q561.7188,614.5 562.3438,614.75 Q562.9688,615 563.5,615.5 Z "/><text fill="#000000" font-family="sans-serif" font-size="12" lengthAdjust="spacingAndGlyphs" textLength="99" x="575.5" y="623.9102">ClientRegistration</text><line style="stroke: #A80036; stroke-width: 1.5;" x1="547.5" x2="676.5" y1="635" y2="635"/><line style="stroke: #A80036; stroke-width: 1.5;" x1="547.5" x2="676.5" y1="643" y2="643"/><text fill="#000000" font-family="sans-serif" font-size="11" lengthAdjust="spacingAndGlyphs" textLength="116" x="552.5" y="658.4189">+getClientByEmail(email)</text><!--MD5=[4b2d61224b33971326a22fe5d809d926]
class DataHandler--><rect fill="#FEFECE" filter="url(#f1vs9d7ep91jab)" height="75.6719" id="DataHandler" style="stroke: #A80036; stroke-width: 1.5;" width="104" x="1657" y="406.5"/><ellipse cx="1672.9" cy="422.5" fill="#ADD1B2" rx="11" ry="11" style="stroke: #A80036; stroke-width: 1.0;"/><path d="M1674.9,419 Q1675.1031,418.5 1675.3375,418.25 Q1675.5719,418 1675.8375,418 Q1676.3063,418 1676.6031,418.2813 Q1676.9,418.5625 1676.9,419.2188 L1676.9,420.7813 Q1676.9,421.4375 1676.6188,421.7188 Q1676.3375,422 1675.9,422 Q1675.5094,422 1675.2594,421.8281 Q1675.0094,421.6563 1674.9,421.2031 Q1674.8531,420.8906 1674.6813,420.7188 Q1674.3688,420.3906 1673.8063,420.2031 Q1673.2438,420 1672.6813,420 Q1671.9781,420 1671.3844,420.2813 Q1670.8063,420.5625 1670.3531,421.1875 Q1669.9,421.8125 1669.9,422.6719 L1669.9,423.5938 Q1669.9,424.625 1670.7438,425.3125 Q1671.5875,426 1673.0875,426 Q1673.9781,426 1674.6031,425.7969 Q1674.9625,425.6875 1675.3688,425.3281 Q1675.6344,425.125 1675.775,425.0625 Q1675.9156,425 1676.0875,425 Q1676.4156,425 1676.65,425.2656 Q1676.9,425.5156 1676.9,425.875 Q1676.9,426.2188 1676.5563,426.625 Q1676.0563,427.2188 1675.2594,427.5469 Q1674.2125,428 1672.9313,428 Q1671.4313,428 1670.2281,427.4063 Q1669.2594,426.9375 1668.5719,425.9219 Q1667.9,424.9063 1667.9,423.7031 L1667.9,422.6094 Q1667.9,421.3594 1668.4938,420.2656 Q1669.1031,419.1719 1670.15,418.5938 Q1671.2125,418 1672.4,418 Q1673.1188,418 1673.7438,418.25 Q1674.3688,418.5 1674.9,419 Z "/><text fill="#000000" font-family="sans-serif" font-size="12" lengthAdjust="spacingAndGlyphs" textLength="70" x="1687.1" y="427.4102">DataHandler</text><line style="stroke: #A80036; stroke-width: 1.5;" x1="1658" x2="1760" y1="438.5" y2="438.5"/><line style="stroke: #A80036; stroke-width: 1.5;" x1="1658" x2="1760" y1="446.5" y2="446.5"/><text fill="#000000" font-family="sans-serif" font-size="11" lengthAdjust="spacingAndGlyphs" textLength="92" x="1663" y="461.9189">+openConnection()</text><text fill="#000000" font-family="sans-serif" font-size="11" lengthAdjust="spacingAndGlyphs" textLength="52" x="1663" y="475.7549">+closeAll()</text><!--MD5=[88cdc1ff0babf321196dd88b9a70f9c4]
reverse link DataHandler to PharmacyRegistration--><path d="M1645.58,493.15 C1636.35,498.39 1626.69,503.07 1617,506.5 C1452.87,564.682 1400.82,533.624 1227,544 C1208.03,545.132 902.755,545.221 885,552 C857.664,562.436 832.74,584.391 815.287,602.814 " fill="none" id="DataHandler&lt;-PharmacyRegistration" style="stroke: #A80036; stroke-width: 1.0;"/><polygon fill="none" points="1641.99,487.14,1662.68,482.55,1649.37,499.04,1641.99,487.14" style="stroke: #A80036; stroke-width: 1.0;"/><!--MD5=[5492ee0b86dcb5b05a3714da40c61534]
reverse link User to PharmacyManager--><path d="M599.214,1348.885 C607.537,1379.374 616.714,1412.994 622.652,1434.7462 " fill="none" id="User&lt;-PharmacyManager" style="stroke: #A80036; stroke-width: 1.0;"/><polygon fill="none" points="592.424,1350.595,593.91,1329.457,605.93,1346.908,592.424,1350.595" style="stroke: #A80036; stroke-width: 1.0;"/><!--MD5=[a36b29e78612905c5aab28d0d19b6079]
link MakeAnOrderUI to MakeAnOrderController--><path d="M252,108.01 C252,128.58 252,159.69 252,187.6 " fill="none" id="MakeAnOrderUI-&gt;MakeAnOrderController" style="stroke: #A80036; stroke-width: 1.0; stroke-dasharray: 7.0,7.0;"/><polygon fill="#A80036" points="252,192.78,256,183.78,252,187.78,248,183.78,252,192.78" style="stroke: #A80036; stroke-width: 1.0;"/><!--MD5=[feca89a249e60d462d16f9719ea3f968]
link MakeAnOrderController to Platform--><path d="M410.151,310.04 C434.962,321.54 459.738,334.58 482,349 C499.559,360.37 516.863,374.95 532.053,389.23 " fill="none" id="MakeAnOrderController-&gt;Platform" style="stroke: #A80036; stroke-width: 1.0; stroke-dasharray: 7.0,7.0;"/><polygon fill="#A80036" points="535.869,392.85,532.0934,383.7536,532.2419,389.4085,526.587,389.557,535.869,392.85" style="stroke: #A80036; stroke-width: 1.0;"/><!--MD5=[da044d77d4d681fe9cef81e1781c5eb3]
link MakeAnOrderController to ApplicationPOT--><path d="M239.944,310.07 C233.794,339.43 226.447,374.51 220.831,401.33 " fill="none" id="MakeAnOrderController-&gt;ApplicationPOT" style="stroke: #A80036; stroke-width: 1.0; stroke-dasharray: 7.0,7.0;"/><polygon fill="#A80036" points="219.803,406.24,225.5689,398.2554,220.8316,401.3469,217.7401,396.6096,219.803,406.24" style="stroke: #A80036; stroke-width: 1.0;"/><!--MD5=[86c56b58e3b3d58f3f9123d18f3804af]
link MakeAnOrderController to UserSession--><path d="M285.454,310.07 C304.161,342.25 326.857,381.31 342.848,408.82 " fill="none" id="MakeAnOrderController-&gt;UserSession" style="stroke: #A80036; stroke-width: 1.0; stroke-dasharray: 7.0,7.0;"/><polygon fill="#A80036" points="345.554,413.48,344.4868,403.6891,343.0402,409.1579,337.5714,407.7113,345.554,413.48" style="stroke: #A80036; stroke-width: 1.0;"/><!--MD5=[a11b4989068d0b492dc06e46ace33666]
link Platform to ClientRegistration--><path d="M590.848,496.24 C595.806,528.3 602.09,568.926 606.516,597.541 " fill="none" id="Platform-&gt;ClientRegistration" style="stroke: #A80036; stroke-width: 1.0;"/><polygon fill="#A80036" points="607.32,602.74,609.8973,593.2344,606.5557,597.7988,601.9913,594.4572,607.32,602.74" style="stroke: #A80036; stroke-width: 1.0;"/><text fill="#000000" font-family="sans-serif" font-size="13" lengthAdjust="spacingAndGlyphs" textLength="21" x="599" y="540.4951">has</text><text fill="#000000" font-family="sans-serif" font-size="13" lengthAdjust="spacingAndGlyphs" textLength="7" x="584.4323" y="517.7632">1</text><text fill="#000000" font-family="sans-serif" font-size="13" lengthAdjust="spacingAndGlyphs" textLength="7" x="598.6329" y="592.1909">1</text><!--MD5=[b397f3671494b735fa996c3471f458db]
link ClientRegistration to Client--><path d="M640.454,665.379 C661.531,687.882 691.098,719.449 717.761,747.916 " fill="none" id="ClientRegistration-&gt;Client" style="stroke: #A80036; stroke-width: 1.0;"/><polygon fill="#A80036" points="721.334,751.73,718.0993,742.4275,717.9153,748.0813,712.2615,747.8973,721.334,751.73" style="stroke: #A80036; stroke-width: 1.0;"/><text fill="#000000" font-family="sans-serif" font-size="13" lengthAdjust="spacingAndGlyphs" textLength="53" x="693" y="718.4951">manages</text><text fill="#000000" font-family="sans-serif" font-size="13" lengthAdjust="spacingAndGlyphs" textLength="7" x="638.2109" y="686.4299">1</text><text fill="#000000" font-family="sans-serif" font-size="13" lengthAdjust="spacingAndGlyphs" textLength="5" x="709.4252" y="741.1749">*</text><!--MD5=[3952d548186971eff118ff5187ac3af9]
link ProductRegistration to Product--><path d="M1492.23,665.246 C1509.43,743.068 1547.52,955.64 1494,1120 C1482.34,1155.796 1459.07,1190.223 1436.57,1217.629 " fill="none" id="ProductRegistration-&gt;Product" style="stroke: #A80036; stroke-width: 1.0;"/><polygon fill="#A80036" points="1433.26,1221.621,1442.0882,1217.2548,1436.4553,1217.7752,1435.9349,1212.1423,1433.26,1221.621" style="stroke: #A80036; stroke-width: 1.0;"/><text fill="#000000" font-family="sans-serif" font-size="13" lengthAdjust="spacingAndGlyphs" textLength="53" x="1522" y="927.4951">manages</text><text fill="#000000" font-family="sans-serif" font-size="13" lengthAdjust="spacingAndGlyphs" textLength="7" x="1485.941" y="686.2715">1</text><text fill="#000000" font-family="sans-serif" font-size="13" lengthAdjust="spacingAndGlyphs" textLength="5" x="1441.1013" y="1210.1452">*</text><!--MD5=[6ac8005c0de3a3c9973530d8c311fc29]
link OrderRegistration to Order--><path d="M1131.2,672.329 C1133.26,736.378 1137.51,868.701 1140.31,955.761 " fill="none" id="OrderRegistration-&gt;Order" style="stroke: #A80036; stroke-width: 1.0;"/><polygon fill="#A80036" points="1140.47,960.909,1144.1801,951.7857,1140.3101,955.9116,1136.1842,952.0415,1140.47,960.909" style="stroke: #A80036; stroke-width: 1.0;"/><text fill="#000000" font-family="sans-serif" font-size="13" lengthAdjust="spacingAndGlyphs" textLength="53" x="1138" y="822.9951">manages</text><text fill="#000000" font-family="sans-serif" font-size="13" lengthAdjust="spacingAndGlyphs" textLength="7" x="1123.8334" y="693.262">1</text><text fill="#000000" font-family="sans-serif" font-size="13" lengthAdjust="spacingAndGlyphs" textLength="5" x="1134.9906" y="950.0872">*</text><!--MD5=[5ff5ffe647f3322c5636b56420fe5cb4]
link PharmacyRegistration to Pharmacy--><path d="M752.499,665.225 C728.961,686.664 700.58,717.647 687,752 C620.587,920.007 669.032,1142.355 694.268,1234.12 " fill="none" id="PharmacyRegistration-&gt;Pharmacy" style="stroke: #A80036; stroke-width: 1.0;"/><polygon fill="#A80036" points="695.673,1239.183,697.1181,1229.4407,694.3347,1234.3654,689.41,1231.582,695.673,1239.183" style="stroke: #A80036; stroke-width: 1.0;"/><text fill="#000000" font-family="sans-serif" font-size="13" lengthAdjust="spacingAndGlyphs" textLength="53" x="656" y="927.4951">manages</text><text fill="#000000" font-family="sans-serif" font-size="13" lengthAdjust="spacingAndGlyphs" textLength="7" x="737.6832" y="686.2465">1</text><text fill="#000000" font-family="sans-serif" font-size="13" lengthAdjust="spacingAndGlyphs" textLength="5" x="688.2965" y="1228.7758">*</text><!--MD5=[5df16df72a49edaa4f00919f1e597f76]
link Order to Product--><path d="M1222.25,1120.078 C1256.7,1154.236 1296.13,1193.342 1326.96,1223.908 " fill="none" id="Order-Product" style="stroke: #A80036; stroke-width: 1.0;"/><text fill="#000000" font-family="sans-serif" font-size="13" lengthAdjust="spacingAndGlyphs" textLength="21" x="1269" y="1164.4951">has</text><polygon fill="#000000" points="1293,1157.6758,1299,1160.6758,1293,1163.6758,1293,1157.6758" style="stroke: #000000; stroke-width: 1.0;"/><text fill="#000000" font-family="sans-serif" font-size="13" lengthAdjust="spacingAndGlyphs" textLength="7" x="1221.7598" y="1141.1279">1</text><text fill="#000000" font-family="sans-serif" font-size="13" lengthAdjust="spacingAndGlyphs" textLength="5" x="1314.1497" y="1212.7538">*</text><!--MD5=[341c66bf56a9f106d2cc06efe44d7382]
link Order to Pharmacy--><path d="M948.587,1120.148 C899.427,1142.868 847.657,1169.349 802,1198 C782.971,1209.941 763.571,1225.293 747.304,1239.248 " fill="none" id="Order-Pharmacy" style="stroke: #A80036; stroke-width: 1.0;"/><polygon fill="#000000" points="890,1157.6758,884,1160.6758,890,1163.6758,890,1157.6758" style="stroke: #000000; stroke-width: 1.0;"/><text fill="#000000" font-family="sans-serif" font-size="13" lengthAdjust="spacingAndGlyphs" textLength="21" x="896" y="1164.4951">has</text><text fill="#000000" font-family="sans-serif" font-size="13" lengthAdjust="spacingAndGlyphs" textLength="7" x="924.5789" y="1141.2039">1</text><text fill="#000000" font-family="sans-serif" font-size="13" lengthAdjust="spacingAndGlyphs" textLength="7" x="746.8597" y="1228.565">1</text><!--MD5=[879bec428a80d843af24dc47845bf14c]
link Client to Order--><path d="M859.887,866.182 C904.969,893.78 962.839,929.208 1014.5,960.832 " fill="none" id="Client-Order" style="stroke: #A80036; stroke-width: 1.0;"/><text fill="#000000" font-family="sans-serif" font-size="13" lengthAdjust="spacingAndGlyphs" textLength="39" x="963" y="927.4951">makes</text><polygon fill="#000000" points="1005,920.6758,1011,923.6758,1005,926.6758,1005,920.6758" style="stroke: #000000; stroke-width: 1.0;"/><text fill="#000000" font-family="sans-serif" font-size="13" lengthAdjust="spacingAndGlyphs" textLength="7" x="867.3899" y="867.443">1</text><text fill="#000000" font-family="sans-serif" font-size="13" lengthAdjust="spacingAndGlyphs" textLength="7" x="995.3313" y="950.2758">1</text><!--MD5=[bd708f2371c655af07b49ddbdb30848a]
link Client to Address--><path d="M757.225,883.21 C736.999,947.225 717.598,1046.07 757,1120 C773.444,1150.855 798.974,1176.707 827.204,1197.938 " fill="none" id="Client-Address" style="stroke: #A80036; stroke-width: 1.0;"/><text fill="#000000" font-family="sans-serif" font-size="13" lengthAdjust="spacingAndGlyphs" textLength="21" x="758" y="1045.9951">has</text><polygon fill="#000000" points="764,1054.8516,767,1060.8516,770,1054.8516,764,1054.8516" style="stroke: #000000; stroke-width: 1.0;"/><text fill="#000000" font-family="sans-serif" font-size="13" lengthAdjust="spacingAndGlyphs" textLength="7" x="747.3091" y="904.3238">1</text><text fill="#000000" font-family="sans-serif" font-size="13" lengthAdjust="spacingAndGlyphs" textLength="7" x="804.3539" y="1187.119">1</text><!--MD5=[dd2bca8e69277b6dcf04d6bf8fed5dca]
link Order to Address--><path d="M1091.84,1120.078 C1075.51,1145.163 1057.44,1172.916 1041.11,1197.996 " fill="none" id="Order-Address" style="stroke: #A80036; stroke-width: 1.0;"/><text fill="#000000" font-family="sans-serif" font-size="13" lengthAdjust="spacingAndGlyphs" textLength="21" x="1072" y="1164.4951">has</text><polygon fill="#000000" points="1078,1173.3516,1081,1179.3516,1084,1173.3516,1078,1173.3516" style="stroke: #000000; stroke-width: 1.0;"/><text fill="#000000" font-family="sans-serif" font-size="13" lengthAdjust="spacingAndGlyphs" textLength="7" x="1080.1427" y="1141.1279">1</text><text fill="#000000" font-family="sans-serif" font-size="13" lengthAdjust="spacingAndGlyphs" textLength="7" x="1038.6478" y="1187.1825">1</text><!--MD5=[1563ddde69eb8abda9b50e9ab8dfb994]
link Pharmacy to PharmacyManager--><path d="M690.838,1315.693 C675.265,1351.531 652.19,1404.632 639.077,1434.8108 " fill="none" id="Pharmacy-PharmacyManager" style="stroke: #A80036; stroke-width: 1.0;"/><text fill="#000000" font-family="sans-serif" font-size="13" lengthAdjust="spacingAndGlyphs" textLength="21" x="660" y="1401.4951">has</text><polygon fill="#000000" points="666,1410.3516,669,1416.3516,672,1410.3516,666,1410.3516" style="stroke: #000000; stroke-width: 1.0;"/><text fill="#000000" font-family="sans-serif" font-size="13" lengthAdjust="spacingAndGlyphs" textLength="7" x="680.7044" y="1336.6043">1</text><text fill="#000000" font-family="sans-serif" font-size="13" lengthAdjust="spacingAndGlyphs" textLength="7" x="633.7624" y="1424.1025">1</text><!--MD5=[b3c09c6b268118f3e56ea4ea85b22a16]
@startuml
skinparam classAttributeIconSize 0

package "UI" #DDDDDD {
class MakeAnOrderUI{

}
}


package "Controller" #DDDDDD {
class MakeAnOrderController{
+newOrder(amount, totalWeight, additionalFee, orderDate, description, status, latitude,
longitude, streetName, doorNumber, postalCode, locality, country, products)
+registerOrder()
+getAvailableProducts(pharmacyId)
+getPharmacies()
}

class ApplicationPOT
{
  +static getInstance()
  +getPlatform()
}

class UserSession
{
  +getCurrentSession()
}
}


package "Model" #DDDDDD {
class Platform {
  -String designation
  +getClientReg()
  +getProductReg()
  +getOrderReg()
}
package "Registration" #DDDDDD {

  class OrderRegistration{
       +addPharmacy(address, amount, additionalFee, dateOrder, description, mapProducts, client)
       +registerOrder(order)
  }

  class PharmacyRegistration{
          +getPharmacies()
  }

  class ProductRegistration{
          +getAvailableProducts(pharmacyId)
  }
  class ClientRegistration{
        +getClientByEmail(email)
  }
 }
}

package "Model" #DDDDDD {
abstract class User{
-   String name
-   String email
-   String password
-   Integer nif
}

class Client{
-int IBAN;
-long creditCardNumber
-Address address
-int validityDate
-int CCV
+addCredits(addtionalCredits)
}

class Address{
-   String streetName
-   String doorNumber
-   String postalCode
-   String locality
-   String country
-   float longitude
-   float latitude
+create(streetName,doorNumber,locality,country,longitude,longitude)
}

class Order{
-   int id
-   float amount
-   float totalWeight
-   float additionalFee
-   Date orderDate
-   String description
-   String status
+create(amount, additionalFee, dateOrder, description, mapProducts, client, streetName,doorNumber,locality,country,longitude,longitude)
}

class Product{
-   int id
-   String name
-   String description
-   float unitaryPrice
-   float unitaryWeight
}

class Pharmacy{
-   int id
-   String name
}

class PharmacyManager{
}

}


package "Data" #DDDDDD {
class DataHandler{
    +openConnection()
    +closeAll()
}
}

class PharmacyRegistration extends DataHandler

class PharmacyManager extends User

MakeAnOrderUI ..> MakeAnOrderController
MakeAnOrderController ..> Platform
MakeAnOrderController ..> ApplicationPOT
MakeAnOrderController ..> UserSession
Platform "1" - -> "1" ClientRegistration : has
ClientRegistration "1" - -> "*" Client : manages
ProductRegistration "1" - -> "*" Product : manages
OrderRegistration "1" - -> "*" Order : manages
PharmacyRegistration "1" - -> "*" Pharmacy : manages

Order "1" - - "*" Product : has >
Order "1" - - "1" Pharmacy : has >
Client "1" - - "1" Order : makes >
Client "1" - - "1" Address : has >
Order "1" - - "1" Address : has >
Pharmacy "1" - - "1" PharmacyManager : has >

@enduml

PlantUML version 1.2020.09(Sun May 10 11:51:06 BST 2020)
(GPL source distribution)
Java Runtime: OpenJDK Runtime Environment
JVM: OpenJDK 64-Bit Server VM
Java Version: 11.0.6+8-b520.66
Operating System: Windows 10
Default Encoding: Cp1252
Language: pt
Country: PT
--></g></svg>