<?xml version="1.0" encoding="UTF-8" standalone="no"?><svg xmlns="http://www.w3.org/2000/svg" xmlns:xlink="http://www.w3.org/1999/xlink" contentScriptType="application/ecmascript" contentStyleType="text/css" height="491px" preserveAspectRatio="none" style="width:1267px;height:491px;" version="1.1" viewBox="0 0 1267 491" width="1267px" zoomAndPan="magnify"><defs><filter height="300%" id="f1mem8nblf45b9" width="300%" x="-1" y="-1"><feGaussianBlur result="blurOut" stdDeviation="2.0"/><feColorMatrix in="blurOut" result="blurOut2" type="matrix" values="0 0 0 0 0 0 0 0 0 0 0 0 0 0 0 0 0 0 .4 0"/><feOffset dx="4.0" dy="4.0" in="blurOut2" result="blurOut3"/><feBlend in="SourceGraphic" in2="blurOut3" mode="normal"/></filter></defs><g><!--MD5=[99b8db98afdc2c8404e39242ef4c1e65]
class Platform--><rect fill="#FEFECE" filter="url(#f1mem8nblf45b9)" height="53.8359" id="Platform" style="stroke: #A80036; stroke-width: 1.5;" width="102" x="6" y="225"/><ellipse cx="31.8" cy="241" fill="#ADD1B2" rx="11" ry="11" style="stroke: #A80036; stroke-width: 1.0;"/><path d="M33.8,237.5 Q34.0031,237 34.2375,236.75 Q34.4719,236.5 34.7375,236.5 Q35.2063,236.5 35.5031,236.7813 Q35.8,237.0625 35.8,237.7188 L35.8,239.2813 Q35.8,239.9375 35.5188,240.2188 Q35.2375,240.5 34.8,240.5 Q34.4094,240.5 34.1594,240.3281 Q33.9094,240.1563 33.8,239.7031 Q33.7531,239.3906 33.5813,239.2188 Q33.2688,238.8906 32.7063,238.7031 Q32.1438,238.5 31.5813,238.5 Q30.8781,238.5 30.2844,238.7813 Q29.7063,239.0625 29.2531,239.6875 Q28.8,240.3125 28.8,241.1719 L28.8,242.0938 Q28.8,243.125 29.6438,243.8125 Q30.4875,244.5 31.9875,244.5 Q32.8781,244.5 33.5031,244.2969 Q33.8625,244.1875 34.2688,243.8281 Q34.5344,243.625 34.675,243.5625 Q34.8156,243.5 34.9875,243.5 Q35.3156,243.5 35.55,243.7656 Q35.8,244.0156 35.8,244.375 Q35.8,244.7188 35.4563,245.125 Q34.9563,245.7188 34.1594,246.0469 Q33.1125,246.5 31.8313,246.5 Q30.3313,246.5 29.1281,245.9063 Q28.1594,245.4375 27.4719,244.4219 Q26.8,243.4063 26.8,242.2031 L26.8,241.1094 Q26.8,239.8594 27.3938,238.7656 Q28.0031,237.6719 29.05,237.0938 Q30.1125,236.5 31.3,236.5 Q32.0188,236.5 32.6438,236.75 Q33.2688,237 33.8,237.5 Z "/><text fill="#000000" font-family="sans-serif" font-size="12" lengthAdjust="spacingAndGlyphs" textLength="46" x="48.2" y="245.9102">Platform</text><line style="stroke: #A80036; stroke-width: 1.5;" x1="7" x2="107" y1="257" y2="257"/><text fill="#000000" font-family="sans-serif" font-size="11" lengthAdjust="spacingAndGlyphs" textLength="90" x="12" y="272.4189">-String designation</text><!--MD5=[ed6624c6556d5e7b1bd23032162d20b7]
class Client--><rect fill="#FEFECE" filter="url(#f1mem8nblf45b9)" height="95.3438" id="Client" style="stroke: #A80036; stroke-width: 1.5;" width="126" x="265" y="136.5"/><ellipse cx="307.9" cy="152.5" fill="#ADD1B2" rx="11" ry="11" style="stroke: #A80036; stroke-width: 1.0;"/><path d="M309.9,149 Q310.1031,148.5 310.3375,148.25 Q310.5719,148 310.8375,148 Q311.3063,148 311.6031,148.2813 Q311.9,148.5625 311.9,149.2188 L311.9,150.7813 Q311.9,151.4375 311.6188,151.7188 Q311.3375,152 310.9,152 Q310.5094,152 310.2594,151.8281 Q310.0094,151.6563 309.9,151.2031 Q309.8531,150.8906 309.6813,150.7188 Q309.3688,150.3906 308.8063,150.2031 Q308.2438,150 307.6813,150 Q306.9781,150 306.3844,150.2813 Q305.8063,150.5625 305.3531,151.1875 Q304.9,151.8125 304.9,152.6719 L304.9,153.5938 Q304.9,154.625 305.7438,155.3125 Q306.5875,156 308.0875,156 Q308.9781,156 309.6031,155.7969 Q309.9625,155.6875 310.3688,155.3281 Q310.6344,155.125 310.775,155.0625 Q310.9156,155 311.0875,155 Q311.4156,155 311.65,155.2656 Q311.9,155.5156 311.9,155.875 Q311.9,156.2188 311.5563,156.625 Q311.0563,157.2188 310.2594,157.5469 Q309.2125,158 307.9313,158 Q306.4313,158 305.2281,157.4063 Q304.2594,156.9375 303.5719,155.9219 Q302.9,154.9063 302.9,153.7031 L302.9,152.6094 Q302.9,151.3594 303.4938,150.2656 Q304.1031,149.1719 305.15,148.5938 Q306.2125,148 307.4,148 Q308.1188,148 308.7438,148.25 Q309.3688,148.5 309.9,149 Z "/><text fill="#000000" font-family="sans-serif" font-size="12" lengthAdjust="spacingAndGlyphs" textLength="32" x="328.1" y="157.4102">Client</text><line style="stroke: #A80036; stroke-width: 1.5;" x1="266" x2="390" y1="168.5" y2="168.5"/><text fill="#000000" font-family="sans-serif" font-size="11" lengthAdjust="spacingAndGlyphs" textLength="42" x="271" y="183.9189">-int IBAN</text><text fill="#000000" font-family="sans-serif" font-size="11" lengthAdjust="spacingAndGlyphs" textLength="114" x="271" y="197.7549">-long creditCardNumber</text><text fill="#000000" font-family="sans-serif" font-size="11" lengthAdjust="spacingAndGlyphs" textLength="73" x="271" y="211.5908">-int validityDate</text><text fill="#000000" font-family="sans-serif" font-size="11" lengthAdjust="spacingAndGlyphs" textLength="40" x="271" y="225.4268">-int CCV</text><!--MD5=[3fd616f346a44cd59a91eb10b19e157c]
class User--><rect fill="#FEFECE" filter="url(#f1mem8nblf45b9)" height="95.3438" id="User" style="stroke: #A80036; stroke-width: 1.5;" width="97" x="1159" y="28.5"/><ellipse cx="1191.1" cy="44.5" fill="#ADD1B2" rx="11" ry="11" style="stroke: #A80036; stroke-width: 1.0;"/><path d="M1193.1,41 Q1193.3031,40.5 1193.5375,40.25 Q1193.7719,40 1194.0375,40 Q1194.5063,40 1194.8031,40.2813 Q1195.1,40.5625 1195.1,41.2188 L1195.1,42.7813 Q1195.1,43.4375 1194.8188,43.7188 Q1194.5375,44 1194.1,44 Q1193.7094,44 1193.4594,43.8281 Q1193.2094,43.6563 1193.1,43.2031 Q1193.0531,42.8906 1192.8813,42.7188 Q1192.5688,42.3906 1192.0063,42.2031 Q1191.4438,42 1190.8813,42 Q1190.1781,42 1189.5844,42.2813 Q1189.0063,42.5625 1188.5531,43.1875 Q1188.1,43.8125 1188.1,44.6719 L1188.1,45.5938 Q1188.1,46.625 1188.9438,47.3125 Q1189.7875,48 1191.2875,48 Q1192.1781,48 1192.8031,47.7969 Q1193.1625,47.6875 1193.5688,47.3281 Q1193.8344,47.125 1193.975,47.0625 Q1194.1156,47 1194.2875,47 Q1194.6156,47 1194.85,47.2656 Q1195.1,47.5156 1195.1,47.875 Q1195.1,48.2188 1194.7563,48.625 Q1194.2563,49.2188 1193.4594,49.5469 Q1192.4125,50 1191.1313,50 Q1189.6313,50 1188.4281,49.4063 Q1187.4594,48.9375 1186.7719,47.9219 Q1186.1,46.9063 1186.1,45.7031 L1186.1,44.6094 Q1186.1,43.3594 1186.6938,42.2656 Q1187.3031,41.1719 1188.35,40.5938 Q1189.4125,40 1190.6,40 Q1191.3188,40 1191.9438,40.25 Q1192.5688,40.5 1193.1,41 Z "/><text fill="#000000" font-family="sans-serif" font-size="12" lengthAdjust="spacingAndGlyphs" textLength="27" x="1208.9" y="49.4102">User</text><line style="stroke: #A80036; stroke-width: 1.5;" x1="1160" x2="1255" y1="60.5" y2="60.5"/><text fill="#000000" font-family="sans-serif" font-size="11" lengthAdjust="spacingAndGlyphs" textLength="61" x="1165" y="75.9189">-String name</text><text fill="#000000" font-family="sans-serif" font-size="11" lengthAdjust="spacingAndGlyphs" textLength="59" x="1165" y="89.7549">-String email</text><text fill="#000000" font-family="sans-serif" font-size="11" lengthAdjust="spacingAndGlyphs" textLength="85" x="1165" y="103.5908">-String password</text><text fill="#000000" font-family="sans-serif" font-size="11" lengthAdjust="spacingAndGlyphs" textLength="52" x="1165" y="117.4268">-Integer nif</text><!--MD5=[0f39e4cb6f03951afbf6d14bd2505654]
class Address--><rect fill="#FEFECE" filter="url(#f1mem8nblf45b9)" height="136.8516" id="Address" style="stroke: #A80036; stroke-width: 1.5;" width="106" x="704" y="96.5"/><ellipse cx="731.6" cy="112.5" fill="#ADD1B2" rx="11" ry="11" style="stroke: #A80036; stroke-width: 1.0;"/><path d="M733.6,109 Q733.8031,108.5 734.0375,108.25 Q734.2719,108 734.5375,108 Q735.0063,108 735.3031,108.2813 Q735.6,108.5625 735.6,109.2188 L735.6,110.7813 Q735.6,111.4375 735.3188,111.7188 Q735.0375,112 734.6,112 Q734.2094,112 733.9594,111.8281 Q733.7094,111.6563 733.6,111.2031 Q733.5531,110.8906 733.3813,110.7188 Q733.0688,110.3906 732.5063,110.2031 Q731.9438,110 731.3813,110 Q730.6781,110 730.0844,110.2813 Q729.5063,110.5625 729.0531,111.1875 Q728.6,111.8125 728.6,112.6719 L728.6,113.5938 Q728.6,114.625 729.4438,115.3125 Q730.2875,116 731.7875,116 Q732.6781,116 733.3031,115.7969 Q733.6625,115.6875 734.0688,115.3281 Q734.3344,115.125 734.475,115.0625 Q734.6156,115 734.7875,115 Q735.1156,115 735.35,115.2656 Q735.6,115.5156 735.6,115.875 Q735.6,116.2188 735.2563,116.625 Q734.7563,117.2188 733.9594,117.5469 Q732.9125,118 731.6313,118 Q730.1313,118 728.9281,117.4063 Q727.9594,116.9375 727.2719,115.9219 Q726.6,114.9063 726.6,113.7031 L726.6,112.6094 Q726.6,111.3594 727.1938,110.2656 Q727.8031,109.1719 728.85,108.5938 Q729.9125,108 731.1,108 Q731.8188,108 732.4438,108.25 Q733.0688,108.5 733.6,109 Z "/><text fill="#000000" font-family="sans-serif" font-size="12" lengthAdjust="spacingAndGlyphs" textLength="46" x="748.4" y="117.4102">Address</text><line style="stroke: #A80036; stroke-width: 1.5;" x1="705" x2="809" y1="128.5" y2="128.5"/><text fill="#000000" font-family="sans-serif" font-size="11" lengthAdjust="spacingAndGlyphs" textLength="90" x="710" y="143.9189">-String streetName</text><text fill="#000000" font-family="sans-serif" font-size="11" lengthAdjust="spacingAndGlyphs" textLength="94" x="710" y="157.7549">-String doorNumber</text><text fill="#000000" font-family="sans-serif" font-size="11" lengthAdjust="spacingAndGlyphs" textLength="89" x="710" y="171.5908">-String postalCode</text><text fill="#000000" font-family="sans-serif" font-size="11" lengthAdjust="spacingAndGlyphs" textLength="68" x="710" y="185.4268">-String locality</text><text fill="#000000" font-family="sans-serif" font-size="11" lengthAdjust="spacingAndGlyphs" textLength="72" x="710" y="199.2627">-String country</text><text fill="#000000" font-family="sans-serif" font-size="11" lengthAdjust="spacingAndGlyphs" textLength="71" x="710" y="213.0986">-float longitude</text><text fill="#000000" font-family="sans-serif" font-size="11" lengthAdjust="spacingAndGlyphs" textLength="62" x="710" y="226.9346">-float latitude</text><!--MD5=[cf4d6237fcae255cd2e1656cf84a30e2]
class Order--><rect fill="#FEFECE" filter="url(#f1mem8nblf45b9)" height="136.8516" id="Order" style="stroke: #A80036; stroke-width: 1.5;" width="103" x="505" y="235.5"/><ellipse cx="538" cy="251.5" fill="#ADD1B2" rx="11" ry="11" style="stroke: #A80036; stroke-width: 1.0;"/><path d="M540,248 Q540.2031,247.5 540.4375,247.25 Q540.6719,247 540.9375,247 Q541.4063,247 541.7031,247.2813 Q542,247.5625 542,248.2188 L542,249.7813 Q542,250.4375 541.7188,250.7188 Q541.4375,251 541,251 Q540.6094,251 540.3594,250.8281 Q540.1094,250.6563 540,250.2031 Q539.9531,249.8906 539.7813,249.7188 Q539.4688,249.3906 538.9063,249.2031 Q538.3438,249 537.7813,249 Q537.0781,249 536.4844,249.2813 Q535.9063,249.5625 535.4531,250.1875 Q535,250.8125 535,251.6719 L535,252.5938 Q535,253.625 535.8438,254.3125 Q536.6875,255 538.1875,255 Q539.0781,255 539.7031,254.7969 Q540.0625,254.6875 540.4688,254.3281 Q540.7344,254.125 540.875,254.0625 Q541.0156,254 541.1875,254 Q541.5156,254 541.75,254.2656 Q542,254.5156 542,254.875 Q542,255.2188 541.6563,255.625 Q541.1563,256.2188 540.3594,256.5469 Q539.3125,257 538.0313,257 Q536.5313,257 535.3281,256.4063 Q534.3594,255.9375 533.6719,254.9219 Q533,253.9063 533,252.7031 L533,251.6094 Q533,250.3594 533.5938,249.2656 Q534.2031,248.1719 535.25,247.5938 Q536.3125,247 537.5,247 Q538.2188,247 538.8438,247.25 Q539.4688,247.5 540,248 Z "/><text fill="#000000" font-family="sans-serif" font-size="12" lengthAdjust="spacingAndGlyphs" textLength="31" x="556" y="256.4102">Order</text><line style="stroke: #A80036; stroke-width: 1.5;" x1="506" x2="607" y1="267.5" y2="267.5"/><text fill="#000000" font-family="sans-serif" font-size="11" lengthAdjust="spacingAndGlyphs" textLength="26" x="511" y="282.9189">-int id</text><text fill="#000000" font-family="sans-serif" font-size="11" lengthAdjust="spacingAndGlyphs" textLength="63" x="511" y="296.7549">-float amount</text><text fill="#000000" font-family="sans-serif" font-size="11" lengthAdjust="spacingAndGlyphs" textLength="81" x="511" y="310.5908">-float totalWeight</text><text fill="#000000" font-family="sans-serif" font-size="11" lengthAdjust="spacingAndGlyphs" textLength="91" x="511" y="324.4268">-float additionalFee</text><text fill="#000000" font-family="sans-serif" font-size="11" lengthAdjust="spacingAndGlyphs" textLength="77" x="511" y="338.2627">-Date orderDate</text><text fill="#000000" font-family="sans-serif" font-size="11" lengthAdjust="spacingAndGlyphs" textLength="88" x="511" y="352.0986">-String description</text><text fill="#000000" font-family="sans-serif" font-size="11" lengthAdjust="spacingAndGlyphs" textLength="65" x="511" y="365.9346">-String status</text><!--MD5=[72136138052d025cffdce3c22fbd185f]
class Product--><rect fill="#FEFECE" filter="url(#f1mem8nblf45b9)" height="109.1797" id="Product" style="stroke: #A80036; stroke-width: 1.5;" width="106" x="704" y="268.5"/><ellipse cx="733.4" cy="284.5" fill="#ADD1B2" rx="11" ry="11" style="stroke: #A80036; stroke-width: 1.0;"/><path d="M735.4,281 Q735.6031,280.5 735.8375,280.25 Q736.0719,280 736.3375,280 Q736.8063,280 737.1031,280.2813 Q737.4,280.5625 737.4,281.2188 L737.4,282.7813 Q737.4,283.4375 737.1188,283.7188 Q736.8375,284 736.4,284 Q736.0094,284 735.7594,283.8281 Q735.5094,283.6563 735.4,283.2031 Q735.3531,282.8906 735.1813,282.7188 Q734.8688,282.3906 734.3063,282.2031 Q733.7438,282 733.1813,282 Q732.4781,282 731.8844,282.2813 Q731.3063,282.5625 730.8531,283.1875 Q730.4,283.8125 730.4,284.6719 L730.4,285.5938 Q730.4,286.625 731.2438,287.3125 Q732.0875,288 733.5875,288 Q734.4781,288 735.1031,287.7969 Q735.4625,287.6875 735.8688,287.3281 Q736.1344,287.125 736.275,287.0625 Q736.4156,287 736.5875,287 Q736.9156,287 737.15,287.2656 Q737.4,287.5156 737.4,287.875 Q737.4,288.2188 737.0563,288.625 Q736.5563,289.2188 735.7594,289.5469 Q734.7125,290 733.4313,290 Q731.9313,290 730.7281,289.4063 Q729.7594,288.9375 729.0719,287.9219 Q728.4,286.9063 728.4,285.7031 L728.4,284.6094 Q728.4,283.3594 728.9938,282.2656 Q729.6031,281.1719 730.65,280.5938 Q731.7125,280 732.9,280 Q733.6188,280 734.2438,280.25 Q734.8688,280.5 735.4,281 Z "/><text fill="#000000" font-family="sans-serif" font-size="12" lengthAdjust="spacingAndGlyphs" textLength="42" x="750.6" y="289.4102">Product</text><line style="stroke: #A80036; stroke-width: 1.5;" x1="705" x2="809" y1="300.5" y2="300.5"/><text fill="#000000" font-family="sans-serif" font-size="11" lengthAdjust="spacingAndGlyphs" textLength="26" x="710" y="315.9189">-int id</text><text fill="#000000" font-family="sans-serif" font-size="11" lengthAdjust="spacingAndGlyphs" textLength="61" x="710" y="329.7549">-String name</text><text fill="#000000" font-family="sans-serif" font-size="11" lengthAdjust="spacingAndGlyphs" textLength="88" x="710" y="343.5908">-String description</text><text fill="#000000" font-family="sans-serif" font-size="11" lengthAdjust="spacingAndGlyphs" textLength="85" x="710" y="357.4268">-float unitaryPrice</text><text fill="#000000" font-family="sans-serif" font-size="11" lengthAdjust="spacingAndGlyphs" textLength="94" x="710" y="371.2627">-float unitaryWeight</text><!--MD5=[7f2a9fafcebe4f099f71398fd3e2ed00]
class Pharmacy--><rect fill="#FEFECE" filter="url(#f1mem8nblf45b9)" height="67.6719" id="Pharmacy" style="stroke: #A80036; stroke-width: 1.5;" width="87" x="713.5" y="413"/><ellipse cx="728.5" cy="429" fill="#ADD1B2" rx="11" ry="11" style="stroke: #A80036; stroke-width: 1.0;"/><path d="M730.5,425.5 Q730.7031,425 730.9375,424.75 Q731.1719,424.5 731.4375,424.5 Q731.9063,424.5 732.2031,424.7813 Q732.5,425.0625 732.5,425.7188 L732.5,427.2813 Q732.5,427.9375 732.2188,428.2188 Q731.9375,428.5 731.5,428.5 Q731.1094,428.5 730.8594,428.3281 Q730.6094,428.1563 730.5,427.7031 Q730.4531,427.3906 730.2813,427.2188 Q729.9688,426.8906 729.4063,426.7031 Q728.8438,426.5 728.2813,426.5 Q727.5781,426.5 726.9844,426.7813 Q726.4063,427.0625 725.9531,427.6875 Q725.5,428.3125 725.5,429.1719 L725.5,430.0938 Q725.5,431.125 726.3438,431.8125 Q727.1875,432.5 728.6875,432.5 Q729.5781,432.5 730.2031,432.2969 Q730.5625,432.1875 730.9688,431.8281 Q731.2344,431.625 731.375,431.5625 Q731.5156,431.5 731.6875,431.5 Q732.0156,431.5 732.25,431.7656 Q732.5,432.0156 732.5,432.375 Q732.5,432.7188 732.1563,433.125 Q731.6563,433.7188 730.8594,434.0469 Q729.8125,434.5 728.5313,434.5 Q727.0313,434.5 725.8281,433.9063 Q724.8594,433.4375 724.1719,432.4219 Q723.5,431.4063 723.5,430.2031 L723.5,429.1094 Q723.5,427.8594 724.0938,426.7656 Q724.7031,425.6719 725.75,425.0938 Q726.8125,424.5 728,424.5 Q728.7188,424.5 729.3438,424.75 Q729.9688,425 730.5,425.5 Z "/><text fill="#000000" font-family="sans-serif" font-size="12" lengthAdjust="spacingAndGlyphs" textLength="55" x="742.5" y="433.9102">Pharmacy</text><line style="stroke: #A80036; stroke-width: 1.5;" x1="714.5" x2="799.5" y1="445" y2="445"/><text fill="#000000" font-family="sans-serif" font-size="11" lengthAdjust="spacingAndGlyphs" textLength="26" x="719.5" y="460.4189">-int id</text><text fill="#000000" font-family="sans-serif" font-size="11" lengthAdjust="spacingAndGlyphs" textLength="61" x="719.5" y="474.2549">-String name</text><!--MD5=[2fa756869cccd4a326cf3bfeb06b754f]
class PharmacyManager--><rect fill="#FEFECE" filter="url(#f1mem8nblf45b9)" height="40" id="PharmacyManager" style="stroke: #A80036; stroke-width: 1.5;" width="135" x="906" y="166"/><ellipse cx="921" cy="182" fill="#ADD1B2" rx="11" ry="11" style="stroke: #A80036; stroke-width: 1.0;"/><path d="M923,178.5 Q923.2031,178 923.4375,177.75 Q923.6719,177.5 923.9375,177.5 Q924.4063,177.5 924.7031,177.7813 Q925,178.0625 925,178.7188 L925,180.2813 Q925,180.9375 924.7188,181.2188 Q924.4375,181.5 924,181.5 Q923.6094,181.5 923.3594,181.3281 Q923.1094,181.1563 923,180.7031 Q922.9531,180.3906 922.7813,180.2188 Q922.4688,179.8906 921.9063,179.7031 Q921.3438,179.5 920.7813,179.5 Q920.0781,179.5 919.4844,179.7813 Q918.9063,180.0625 918.4531,180.6875 Q918,181.3125 918,182.1719 L918,183.0938 Q918,184.125 918.8438,184.8125 Q919.6875,185.5 921.1875,185.5 Q922.0781,185.5 922.7031,185.2969 Q923.0625,185.1875 923.4688,184.8281 Q923.7344,184.625 923.875,184.5625 Q924.0156,184.5 924.1875,184.5 Q924.5156,184.5 924.75,184.7656 Q925,185.0156 925,185.375 Q925,185.7188 924.6563,186.125 Q924.1563,186.7188 923.3594,187.0469 Q922.3125,187.5 921.0313,187.5 Q919.5313,187.5 918.3281,186.9063 Q917.3594,186.4375 916.6719,185.4219 Q916,184.4063 916,183.2031 L916,182.1094 Q916,180.8594 916.5938,179.7656 Q917.2031,178.6719 918.25,178.0938 Q919.3125,177.5 920.5,177.5 Q921.2188,177.5 921.8438,177.75 Q922.4688,178 923,178.5 Z "/><text fill="#000000" font-family="sans-serif" font-size="12" lengthAdjust="spacingAndGlyphs" textLength="103" x="935" y="186.9102">PharmacyManager</text><line style="stroke: #A80036; stroke-width: 1.5;" x1="907" x2="1040" y1="198" y2="198"/><!--MD5=[6f4f5a959b7eecf0b4982552d890dec0]
link Platform to Client--><path d="M108.281,239.289 C152.533,228.103 217.136,211.772 264.662,199.758 " fill="none" id="Platform-Client" style="stroke: #A80036; stroke-width: 1.0;"/><text fill="#000000" font-family="sans-serif" font-size="13" lengthAdjust="spacingAndGlyphs" textLength="82" x="139" y="203.4951">has registered</text><polygon fill="#000000" points="224,196.6758,230,199.6758,224,202.6758,224,196.6758" style="stroke: #000000; stroke-width: 1.0;"/><text fill="#000000" font-family="sans-serif" font-size="13" lengthAdjust="spacingAndGlyphs" textLength="7" x="115.9846" y="252.1579">1</text><text fill="#000000" font-family="sans-serif" font-size="13" lengthAdjust="spacingAndGlyphs" textLength="5" x="252.0495" y="216.0006">*</text><!--MD5=[46120166855af3d867105a26a4c9094b]
link Platform to Order--><path d="M108.441,257.272 C203.794,267.239 409.47,288.737 504.926,298.714 " fill="none" id="Platform-Order" style="stroke: #A80036; stroke-width: 1.0;"/><text fill="#000000" font-family="sans-serif" font-size="13" lengthAdjust="spacingAndGlyphs" textLength="82" x="280.5" y="269.4951">has registered</text><polygon fill="#000000" points="365.5,262.6758,371.5,265.6758,365.5,268.6758,365.5,262.6758" style="stroke: #000000; stroke-width: 1.0;"/><text fill="#000000" font-family="sans-serif" font-size="13" lengthAdjust="spacingAndGlyphs" textLength="7" x="116.1671" y="272.6697">1</text><text fill="#000000" font-family="sans-serif" font-size="13" lengthAdjust="spacingAndGlyphs" textLength="5" x="491.9839" y="312.6445">*</text><!--MD5=[5df16df72a49edaa4f00919f1e597f76]
link Order to Product--><path d="M608.104,308.844 C637.394,311.647 674.194,315.17 703.758,318 " fill="none" id="Order-Product" style="stroke: #A80036; stroke-width: 1.0;"/><text fill="#000000" font-family="sans-serif" font-size="13" lengthAdjust="spacingAndGlyphs" textLength="21" x="639" y="307.4951">has</text><polygon fill="#000000" points="663,300.6758,669,303.6758,663,306.6758,663,300.6758" style="stroke: #000000; stroke-width: 1.0;"/><text fill="#000000" font-family="sans-serif" font-size="13" lengthAdjust="spacingAndGlyphs" textLength="7" x="615.853" y="324.1805">1</text><text fill="#000000" font-family="sans-serif" font-size="13" lengthAdjust="spacingAndGlyphs" textLength="5" x="690.9193" y="331.9291">*</text><!--MD5=[341c66bf56a9f106d2cc06efe44d7382]
link Order to Pharmacy--><path d="M608.104,340.455 C640.61,363.873 682.366,393.9541 713.216,416.1781 " fill="none" id="Order-Pharmacy" style="stroke: #A80036; stroke-width: 1.0;"/><text fill="#000000" font-family="sans-serif" font-size="13" lengthAdjust="spacingAndGlyphs" textLength="21" x="639" y="358.4951">has</text><polygon fill="#000000" points="663,351.6758,669,354.6758,663,357.6758,663,351.6758" style="stroke: #000000; stroke-width: 1.0;"/><text fill="#000000" font-family="sans-serif" font-size="13" lengthAdjust="spacingAndGlyphs" textLength="7" x="615.853" y="360.2368">1</text><text fill="#000000" font-family="sans-serif" font-size="13" lengthAdjust="spacingAndGlyphs" textLength="5" x="700.5502" y="425.9496">*</text><!--MD5=[9a8dc34b38f85b9f3fcdb440f4bffc6a]
link Client to User--><path d="M366.393,136.166 C407.326,89.663 477.589,26 555.5,26 C555.5,26 555.5,26 974.5,26 C1039.39,26 1112.25,44.926 1158.71,59.49 " fill="none" id="Client-User" style="stroke: #A80036; stroke-width: 1.0;"/><text fill="#000000" font-family="sans-serif" font-size="13" lengthAdjust="spacingAndGlyphs" textLength="43" x="729" y="22.4951">acts as</text><polygon fill="#000000" points="775,15.6758,781,18.6758,775,21.6758,775,15.6758" style="stroke: #000000; stroke-width: 1.0;"/><text fill="#000000" font-family="sans-serif" font-size="13" lengthAdjust="spacingAndGlyphs" textLength="22" x="348.2451" y="125.81">0..1</text><text fill="#000000" font-family="sans-serif" font-size="13" lengthAdjust="spacingAndGlyphs" textLength="7" x="1144.0299" y="71.7358">1</text><!--MD5=[879bec428a80d843af24dc47845bf14c]
link Client to Order--><path d="M391.192,216.949 C426.945,235.891 471.284,259.382 504.889,277.186 " fill="none" id="Client-Order" style="stroke: #A80036; stroke-width: 1.0;"/><text fill="#000000" font-family="sans-serif" font-size="13" lengthAdjust="spacingAndGlyphs" textLength="39" x="422" y="229.4951">makes</text><polygon fill="#000000" points="464,222.6758,470,225.6758,464,228.6758,464,222.6758" style="stroke: #000000; stroke-width: 1.0;"/><text fill="#000000" font-family="sans-serif" font-size="13" lengthAdjust="spacingAndGlyphs" textLength="7" x="398.9033" y="235.1793">1</text><text fill="#000000" font-family="sans-serif" font-size="13" lengthAdjust="spacingAndGlyphs" textLength="7" x="490.139" y="288.0706">1</text><!--MD5=[bd708f2371c655af07b49ddbdb30848a]
link Client to Address--><path d="M391.089,181.237 C475.515,177.481 625.021,170.828 703.91,167.318 " fill="none" id="Client-Address" style="stroke: #A80036; stroke-width: 1.0;"/><text fill="#000000" font-family="sans-serif" font-size="13" lengthAdjust="spacingAndGlyphs" textLength="21" x="539.5" y="167.4951">has</text><polygon fill="#000000" points="563.5,160.6758,569.5,163.6758,563.5,166.6758,563.5,160.6758" style="stroke: #000000; stroke-width: 1.0;"/><text fill="#000000" font-family="sans-serif" font-size="13" lengthAdjust="spacingAndGlyphs" textLength="7" x="399.2045" y="195.3709">1</text><text fill="#000000" font-family="sans-serif" font-size="13" lengthAdjust="spacingAndGlyphs" textLength="7" x="688.952" y="182.2992">1</text><!--MD5=[dd2bca8e69277b6dcf04d6bf8fed5dca]
link Order to Address--><path d="M608.104,268.565 C637.394,248.054 674.194,222.285 703.758,201.582 " fill="none" id="Order-Address" style="stroke: #A80036; stroke-width: 1.0;"/><text fill="#000000" font-family="sans-serif" font-size="13" lengthAdjust="spacingAndGlyphs" textLength="21" x="639" y="222.4951">has</text><polygon fill="#000000" points="663,215.6758,669,218.6758,663,221.6758,663,215.6758" style="stroke: #000000; stroke-width: 1.0;"/><text fill="#000000" font-family="sans-serif" font-size="13" lengthAdjust="spacingAndGlyphs" textLength="7" x="615.853" y="278.2372">1</text><text fill="#000000" font-family="sans-serif" font-size="13" lengthAdjust="spacingAndGlyphs" textLength="7" x="689.1333" y="221.1014">1</text><!--MD5=[63120965f33aa30485eaf56f4034632c]
link PharmacyManager to User--><path d="M1016.78,165.952 C1056.91,146.928 1117.12,118.377 1158.91,98.564 " fill="none" id="PharmacyManager-User" style="stroke: #A80036; stroke-width: 1.0;"/><text fill="#000000" font-family="sans-serif" font-size="13" lengthAdjust="spacingAndGlyphs" textLength="43" x="1072" y="110.4951">acts as</text><polygon fill="#000000" points="1118,103.6758,1124,106.6758,1118,109.6758,1118,103.6758" style="stroke: #000000; stroke-width: 1.0;"/><text fill="#000000" font-family="sans-serif" font-size="13" lengthAdjust="spacingAndGlyphs" textLength="22" x="1004.2661" y="155.2597">0..1</text><text fill="#000000" font-family="sans-serif" font-size="13" lengthAdjust="spacingAndGlyphs" textLength="7" x="1143.9337" y="116.7398">1</text><!--MD5=[1563ddde69eb8abda9b50e9ab8dfb994]
link Pharmacy to PharmacyManager--><path d="M793.303,412.8972 C799.011,407.0447 804.762,400.9346 810,395 C868.396,328.839 930.604,244.357 958.059,206.251 " fill="none" id="Pharmacy-PharmacyManager" style="stroke: #A80036; stroke-width: 1.0;"/><polygon fill="#000000" points="847,309,850,303,853,309,847,309" style="stroke: #000000; stroke-width: 1.0;"/><text fill="#000000" font-family="sans-serif" font-size="13" lengthAdjust="spacingAndGlyphs" textLength="21" x="841" y="325.4951">has</text><text fill="#000000" font-family="sans-serif" font-size="13" lengthAdjust="spacingAndGlyphs" textLength="7" x="792.7611" y="402.1702">1</text><text fill="#000000" font-family="sans-serif" font-size="13" lengthAdjust="spacingAndGlyphs" textLength="7" x="945.9686" y="227.3858">1</text><!--MD5=[4ef4be0d12b577df9f04b8c15d0fd3bc]
@startuml
skinparam classAttributeIconSize 0
hide methods
left to right direction

class Platform {
-   String designation
}
class Client{
-   int IBAN
-   long creditCardNumber
-   int validityDate
-   int CCV
}

class User{
-   String name
-   String email
-   String password
-   Integer nif
}

class Address{
-   String streetName
-   String doorNumber
-   String postalCode
-   String locality
-   String country
-   float longitude
-   float latitude
}

class Order{
-   int id
-   float amount
-   float totalWeight
-   float additionalFee
-   Date orderDate
-   String description
-   String status
}

class Product{
-   int id
-   String name
-   String description
-   float unitaryPrice
-   float unitaryWeight
}

class Pharmacy{
-   int id
-   String name
}

class PharmacyManager{
}

Platform "1" - - "*" Client : has registered >
Platform "1" - - "*" Order : has registered >
Order "1" - - "*" Product : has >
Order "1" - - "*" Pharmacy : has >
Client "0..1" - - "1" User: acts as >
Client "1" - - "1" Order : makes >
Client "1" - - "1" Address : has >
Order "1" - - "1" Address : has >
PharmacyManager "0..1" - - "1" User: acts as >
Pharmacy "1" - - "1" PharmacyManager : has >
@enduml

PlantUML version 1.2020.09(Sun May 10 11:51:06 BST 2020)
(GPL source distribution)
Java Runtime: OpenJDK Runtime Environment
JVM: OpenJDK 64-Bit Server VM
Java Version: 11.0.6+8-b520.66
Operating System: Windows 10
Default Encoding: Cp1252
Language: pt
Country: PT
--></g></svg>