<?xml version="1.0" encoding="UTF-8" standalone="no"?><svg xmlns="http://www.w3.org/2000/svg" xmlns:xlink="http://www.w3.org/1999/xlink" contentScriptType="application/ecmascript" contentStyleType="text/css" height="367px" preserveAspectRatio="none" style="width:825px;height:367px;" version="1.1" viewBox="0 0 825 367" width="825px" zoomAndPan="magnify"><defs><filter height="300%" id="fy65hdomu1ck3" width="300%" x="-1" y="-1"><feGaussianBlur result="blurOut" stdDeviation="2.0"/><feColorMatrix in="blurOut" result="blurOut2" type="matrix" values="0 0 0 0 0 0 0 0 0 0 0 0 0 0 0 0 0 0 .4 0"/><feOffset dx="4.0" dy="4.0" in="blurOut2" result="blurOut3"/><feBlend in="SourceGraphic" in2="blurOut3" mode="normal"/></filter></defs><g><!--MD5=[99b8db98afdc2c8404e39242ef4c1e65]
class Platform--><rect fill="#FEFECE" filter="url(#fy65hdomu1ck3)" height="53.8359" id="Platform" style="stroke: #A80036; stroke-width: 1.5;" width="102" x="6" y="203.5"/><ellipse cx="31.8" cy="219.5" fill="#ADD1B2" rx="11" ry="11" style="stroke: #A80036; stroke-width: 1.0;"/><path d="M33.8,216 Q34.0031,215.5 34.2375,215.25 Q34.4719,215 34.7375,215 Q35.2063,215 35.5031,215.2813 Q35.8,215.5625 35.8,216.2188 L35.8,217.7813 Q35.8,218.4375 35.5188,218.7188 Q35.2375,219 34.8,219 Q34.4094,219 34.1594,218.8281 Q33.9094,218.6563 33.8,218.2031 Q33.7531,217.8906 33.5813,217.7188 Q33.2688,217.3906 32.7063,217.2031 Q32.1438,217 31.5813,217 Q30.8781,217 30.2844,217.2813 Q29.7063,217.5625 29.2531,218.1875 Q28.8,218.8125 28.8,219.6719 L28.8,220.5938 Q28.8,221.625 29.6438,222.3125 Q30.4875,223 31.9875,223 Q32.8781,223 33.5031,222.7969 Q33.8625,222.6875 34.2688,222.3281 Q34.5344,222.125 34.675,222.0625 Q34.8156,222 34.9875,222 Q35.3156,222 35.55,222.2656 Q35.8,222.5156 35.8,222.875 Q35.8,223.2188 35.4563,223.625 Q34.9563,224.2188 34.1594,224.5469 Q33.1125,225 31.8313,225 Q30.3313,225 29.1281,224.4063 Q28.1594,223.9375 27.4719,222.9219 Q26.8,221.9063 26.8,220.7031 L26.8,219.6094 Q26.8,218.3594 27.3938,217.2656 Q28.0031,216.1719 29.05,215.5938 Q30.1125,215 31.3,215 Q32.0188,215 32.6438,215.25 Q33.2688,215.5 33.8,216 Z "/><text fill="#000000" font-family="sans-serif" font-size="12" lengthAdjust="spacingAndGlyphs" textLength="46" x="48.2" y="224.4102">Platform</text><line style="stroke: #A80036; stroke-width: 1.5;" x1="7" x2="107" y1="235.5" y2="235.5"/><text fill="#000000" font-family="sans-serif" font-size="11" lengthAdjust="spacingAndGlyphs" textLength="90" x="12" y="250.9189">-String designation</text><!--MD5=[ed6624c6556d5e7b1bd23032162d20b7]
class Client--><rect fill="#FEFECE" filter="url(#fy65hdomu1ck3)" height="95.3438" id="Client" style="stroke: #A80036; stroke-width: 1.5;" width="126" x="265" y="115"/><ellipse cx="307.9" cy="131" fill="#ADD1B2" rx="11" ry="11" style="stroke: #A80036; stroke-width: 1.0;"/><path d="M309.9,127.5 Q310.1031,127 310.3375,126.75 Q310.5719,126.5 310.8375,126.5 Q311.3063,126.5 311.6031,126.7813 Q311.9,127.0625 311.9,127.7188 L311.9,129.2813 Q311.9,129.9375 311.6188,130.2188 Q311.3375,130.5 310.9,130.5 Q310.5094,130.5 310.2594,130.3281 Q310.0094,130.1563 309.9,129.7031 Q309.8531,129.3906 309.6813,129.2188 Q309.3688,128.8906 308.8063,128.7031 Q308.2438,128.5 307.6813,128.5 Q306.9781,128.5 306.3844,128.7813 Q305.8063,129.0625 305.3531,129.6875 Q304.9,130.3125 304.9,131.1719 L304.9,132.0938 Q304.9,133.125 305.7438,133.8125 Q306.5875,134.5 308.0875,134.5 Q308.9781,134.5 309.6031,134.2969 Q309.9625,134.1875 310.3688,133.8281 Q310.6344,133.625 310.775,133.5625 Q310.9156,133.5 311.0875,133.5 Q311.4156,133.5 311.65,133.7656 Q311.9,134.0156 311.9,134.375 Q311.9,134.7188 311.5563,135.125 Q311.0563,135.7188 310.2594,136.0469 Q309.2125,136.5 307.9313,136.5 Q306.4313,136.5 305.2281,135.9063 Q304.2594,135.4375 303.5719,134.4219 Q302.9,133.4063 302.9,132.2031 L302.9,131.1094 Q302.9,129.8594 303.4938,128.7656 Q304.1031,127.6719 305.15,127.0938 Q306.2125,126.5 307.4,126.5 Q308.1188,126.5 308.7438,126.75 Q309.3688,127 309.9,127.5 Z "/><text fill="#000000" font-family="sans-serif" font-size="12" lengthAdjust="spacingAndGlyphs" textLength="32" x="328.1" y="135.9102">Client</text><line style="stroke: #A80036; stroke-width: 1.5;" x1="266" x2="390" y1="147" y2="147"/><text fill="#000000" font-family="sans-serif" font-size="11" lengthAdjust="spacingAndGlyphs" textLength="42" x="271" y="162.4189">-int IBAN</text><text fill="#000000" font-family="sans-serif" font-size="11" lengthAdjust="spacingAndGlyphs" textLength="114" x="271" y="176.2549">-long creditCardNumber</text><text fill="#000000" font-family="sans-serif" font-size="11" lengthAdjust="spacingAndGlyphs" textLength="73" x="271" y="190.0908">-int validityDate</text><text fill="#000000" font-family="sans-serif" font-size="11" lengthAdjust="spacingAndGlyphs" textLength="40" x="271" y="203.9268">-int CCV</text><!--MD5=[3fd616f346a44cd59a91eb10b19e157c]
class User--><rect fill="#FEFECE" filter="url(#fy65hdomu1ck3)" height="81.5078" id="User" style="stroke: #A80036; stroke-width: 1.5;" width="97" x="512" y="8.5"/><ellipse cx="544.1" cy="24.5" fill="#ADD1B2" rx="11" ry="11" style="stroke: #A80036; stroke-width: 1.0;"/><path d="M546.1,21 Q546.3031,20.5 546.5375,20.25 Q546.7719,20 547.0375,20 Q547.5063,20 547.8031,20.2813 Q548.1,20.5625 548.1,21.2188 L548.1,22.7813 Q548.1,23.4375 547.8188,23.7188 Q547.5375,24 547.1,24 Q546.7094,24 546.4594,23.8281 Q546.2094,23.6563 546.1,23.2031 Q546.0531,22.8906 545.8813,22.7188 Q545.5688,22.3906 545.0063,22.2031 Q544.4438,22 543.8813,22 Q543.1781,22 542.5844,22.2813 Q542.0063,22.5625 541.5531,23.1875 Q541.1,23.8125 541.1,24.6719 L541.1,25.5938 Q541.1,26.625 541.9438,27.3125 Q542.7875,28 544.2875,28 Q545.1781,28 545.8031,27.7969 Q546.1625,27.6875 546.5688,27.3281 Q546.8344,27.125 546.975,27.0625 Q547.1156,27 547.2875,27 Q547.6156,27 547.85,27.2656 Q548.1,27.5156 548.1,27.875 Q548.1,28.2188 547.7563,28.625 Q547.2563,29.2188 546.4594,29.5469 Q545.4125,30 544.1313,30 Q542.6313,30 541.4281,29.4063 Q540.4594,28.9375 539.7719,27.9219 Q539.1,26.9063 539.1,25.7031 L539.1,24.6094 Q539.1,23.3594 539.6938,22.2656 Q540.3031,21.1719 541.35,20.5938 Q542.4125,20 543.6,20 Q544.3188,20 544.9438,20.25 Q545.5688,20.5 546.1,21 Z "/><text fill="#000000" font-family="sans-serif" font-size="12" lengthAdjust="spacingAndGlyphs" textLength="27" x="561.9" y="29.4102">User</text><line style="stroke: #A80036; stroke-width: 1.5;" x1="513" x2="608" y1="40.5" y2="40.5"/><text fill="#000000" font-family="sans-serif" font-size="11" lengthAdjust="spacingAndGlyphs" textLength="61" x="518" y="55.9189">-String name</text><text fill="#000000" font-family="sans-serif" font-size="11" lengthAdjust="spacingAndGlyphs" textLength="59" x="518" y="69.7549">-String email</text><text fill="#000000" font-family="sans-serif" font-size="11" lengthAdjust="spacingAndGlyphs" textLength="85" x="518" y="83.5908">-String password</text><!--MD5=[0f39e4cb6f03951afbf6d14bd2505654]
class Address--><rect fill="#FEFECE" filter="url(#fy65hdomu1ck3)" height="136.8516" id="Address" style="stroke: #A80036; stroke-width: 1.5;" width="106" x="708" y="75"/><ellipse cx="735.6" cy="91" fill="#ADD1B2" rx="11" ry="11" style="stroke: #A80036; stroke-width: 1.0;"/><path d="M737.6,87.5 Q737.8031,87 738.0375,86.75 Q738.2719,86.5 738.5375,86.5 Q739.0063,86.5 739.3031,86.7813 Q739.6,87.0625 739.6,87.7188 L739.6,89.2813 Q739.6,89.9375 739.3188,90.2188 Q739.0375,90.5 738.6,90.5 Q738.2094,90.5 737.9594,90.3281 Q737.7094,90.1563 737.6,89.7031 Q737.5531,89.3906 737.3813,89.2188 Q737.0688,88.8906 736.5063,88.7031 Q735.9438,88.5 735.3813,88.5 Q734.6781,88.5 734.0844,88.7813 Q733.5063,89.0625 733.0531,89.6875 Q732.6,90.3125 732.6,91.1719 L732.6,92.0938 Q732.6,93.125 733.4438,93.8125 Q734.2875,94.5 735.7875,94.5 Q736.6781,94.5 737.3031,94.2969 Q737.6625,94.1875 738.0688,93.8281 Q738.3344,93.625 738.475,93.5625 Q738.6156,93.5 738.7875,93.5 Q739.1156,93.5 739.35,93.7656 Q739.6,94.0156 739.6,94.375 Q739.6,94.7188 739.2563,95.125 Q738.7563,95.7188 737.9594,96.0469 Q736.9125,96.5 735.6313,96.5 Q734.1313,96.5 732.9281,95.9063 Q731.9594,95.4375 731.2719,94.4219 Q730.6,93.4063 730.6,92.2031 L730.6,91.1094 Q730.6,89.8594 731.1938,88.7656 Q731.8031,87.6719 732.85,87.0938 Q733.9125,86.5 735.1,86.5 Q735.8188,86.5 736.4438,86.75 Q737.0688,87 737.6,87.5 Z "/><text fill="#000000" font-family="sans-serif" font-size="12" lengthAdjust="spacingAndGlyphs" textLength="46" x="752.4" y="95.9102">Address</text><line style="stroke: #A80036; stroke-width: 1.5;" x1="709" x2="813" y1="107" y2="107"/><text fill="#000000" font-family="sans-serif" font-size="11" lengthAdjust="spacingAndGlyphs" textLength="90" x="714" y="122.4189">-String streetName</text><text fill="#000000" font-family="sans-serif" font-size="11" lengthAdjust="spacingAndGlyphs" textLength="94" x="714" y="136.2549">-String doorNumber</text><text fill="#000000" font-family="sans-serif" font-size="11" lengthAdjust="spacingAndGlyphs" textLength="89" x="714" y="150.0908">-String postalCode</text><text fill="#000000" font-family="sans-serif" font-size="11" lengthAdjust="spacingAndGlyphs" textLength="68" x="714" y="163.9268">-String locality</text><text fill="#000000" font-family="sans-serif" font-size="11" lengthAdjust="spacingAndGlyphs" textLength="72" x="714" y="177.7627">-String country</text><text fill="#000000" font-family="sans-serif" font-size="11" lengthAdjust="spacingAndGlyphs" textLength="71" x="714" y="191.5986">-float longitude</text><text fill="#000000" font-family="sans-serif" font-size="11" lengthAdjust="spacingAndGlyphs" textLength="62" x="714" y="205.4346">-float latitude</text><!--MD5=[cf4d6237fcae255cd2e1656cf84a30e2]
class Order--><rect fill="#FEFECE" filter="url(#fy65hdomu1ck3)" height="136.8516" id="Order" style="stroke: #A80036; stroke-width: 1.5;" width="103" x="509" y="214"/><ellipse cx="542" cy="230" fill="#ADD1B2" rx="11" ry="11" style="stroke: #A80036; stroke-width: 1.0;"/><path d="M544,226.5 Q544.2031,226 544.4375,225.75 Q544.6719,225.5 544.9375,225.5 Q545.4063,225.5 545.7031,225.7813 Q546,226.0625 546,226.7188 L546,228.2813 Q546,228.9375 545.7188,229.2188 Q545.4375,229.5 545,229.5 Q544.6094,229.5 544.3594,229.3281 Q544.1094,229.1563 544,228.7031 Q543.9531,228.3906 543.7813,228.2188 Q543.4688,227.8906 542.9063,227.7031 Q542.3438,227.5 541.7813,227.5 Q541.0781,227.5 540.4844,227.7813 Q539.9063,228.0625 539.4531,228.6875 Q539,229.3125 539,230.1719 L539,231.0938 Q539,232.125 539.8438,232.8125 Q540.6875,233.5 542.1875,233.5 Q543.0781,233.5 543.7031,233.2969 Q544.0625,233.1875 544.4688,232.8281 Q544.7344,232.625 544.875,232.5625 Q545.0156,232.5 545.1875,232.5 Q545.5156,232.5 545.75,232.7656 Q546,233.0156 546,233.375 Q546,233.7188 545.6563,234.125 Q545.1563,234.7188 544.3594,235.0469 Q543.3125,235.5 542.0313,235.5 Q540.5313,235.5 539.3281,234.9063 Q538.3594,234.4375 537.6719,233.4219 Q537,232.4063 537,231.2031 L537,230.1094 Q537,228.8594 537.5938,227.7656 Q538.2031,226.6719 539.25,226.0938 Q540.3125,225.5 541.5,225.5 Q542.2188,225.5 542.8438,225.75 Q543.4688,226 544,226.5 Z "/><text fill="#000000" font-family="sans-serif" font-size="12" lengthAdjust="spacingAndGlyphs" textLength="31" x="560" y="234.9102">Order</text><line style="stroke: #A80036; stroke-width: 1.5;" x1="510" x2="611" y1="246" y2="246"/><text fill="#000000" font-family="sans-serif" font-size="11" lengthAdjust="spacingAndGlyphs" textLength="26" x="515" y="261.4189">-int id</text><text fill="#000000" font-family="sans-serif" font-size="11" lengthAdjust="spacingAndGlyphs" textLength="63" x="515" y="275.2549">-float amount</text><text fill="#000000" font-family="sans-serif" font-size="11" lengthAdjust="spacingAndGlyphs" textLength="81" x="515" y="289.0908">-float totalWeight</text><text fill="#000000" font-family="sans-serif" font-size="11" lengthAdjust="spacingAndGlyphs" textLength="91" x="515" y="302.9268">-float additionalFee</text><text fill="#000000" font-family="sans-serif" font-size="11" lengthAdjust="spacingAndGlyphs" textLength="77" x="515" y="316.7627">-Date orderDate</text><text fill="#000000" font-family="sans-serif" font-size="11" lengthAdjust="spacingAndGlyphs" textLength="88" x="515" y="330.5986">-String description</text><text fill="#000000" font-family="sans-serif" font-size="11" lengthAdjust="spacingAndGlyphs" textLength="65" x="515" y="344.4346">-String status</text><!--MD5=[72136138052d025cffdce3c22fbd185f]
class Product--><rect fill="#FEFECE" filter="url(#fy65hdomu1ck3)" height="109.1797" id="Product" style="stroke: #A80036; stroke-width: 1.5;" width="106" x="708" y="247"/><ellipse cx="737.4" cy="263" fill="#ADD1B2" rx="11" ry="11" style="stroke: #A80036; stroke-width: 1.0;"/><path d="M739.4,259.5 Q739.6031,259 739.8375,258.75 Q740.0719,258.5 740.3375,258.5 Q740.8063,258.5 741.1031,258.7813 Q741.4,259.0625 741.4,259.7188 L741.4,261.2813 Q741.4,261.9375 741.1188,262.2188 Q740.8375,262.5 740.4,262.5 Q740.0094,262.5 739.7594,262.3281 Q739.5094,262.1563 739.4,261.7031 Q739.3531,261.3906 739.1813,261.2188 Q738.8688,260.8906 738.3063,260.7031 Q737.7438,260.5 737.1813,260.5 Q736.4781,260.5 735.8844,260.7813 Q735.3063,261.0625 734.8531,261.6875 Q734.4,262.3125 734.4,263.1719 L734.4,264.0938 Q734.4,265.125 735.2438,265.8125 Q736.0875,266.5 737.5875,266.5 Q738.4781,266.5 739.1031,266.2969 Q739.4625,266.1875 739.8688,265.8281 Q740.1344,265.625 740.275,265.5625 Q740.4156,265.5 740.5875,265.5 Q740.9156,265.5 741.15,265.7656 Q741.4,266.0156 741.4,266.375 Q741.4,266.7188 741.0563,267.125 Q740.5563,267.7188 739.7594,268.0469 Q738.7125,268.5 737.4313,268.5 Q735.9313,268.5 734.7281,267.9063 Q733.7594,267.4375 733.0719,266.4219 Q732.4,265.4063 732.4,264.2031 L732.4,263.1094 Q732.4,261.8594 732.9938,260.7656 Q733.6031,259.6719 734.65,259.0938 Q735.7125,258.5 736.9,258.5 Q737.6188,258.5 738.2438,258.75 Q738.8688,259 739.4,259.5 Z "/><text fill="#000000" font-family="sans-serif" font-size="12" lengthAdjust="spacingAndGlyphs" textLength="42" x="754.6" y="267.9102">Product</text><line style="stroke: #A80036; stroke-width: 1.5;" x1="709" x2="813" y1="279" y2="279"/><text fill="#000000" font-family="sans-serif" font-size="11" lengthAdjust="spacingAndGlyphs" textLength="26" x="714" y="294.4189">-int id</text><text fill="#000000" font-family="sans-serif" font-size="11" lengthAdjust="spacingAndGlyphs" textLength="61" x="714" y="308.2549">-String name</text><text fill="#000000" font-family="sans-serif" font-size="11" lengthAdjust="spacingAndGlyphs" textLength="88" x="714" y="322.0908">-String description</text><text fill="#000000" font-family="sans-serif" font-size="11" lengthAdjust="spacingAndGlyphs" textLength="85" x="714" y="335.9268">-float unitaryPrice</text><text fill="#000000" font-family="sans-serif" font-size="11" lengthAdjust="spacingAndGlyphs" textLength="94" x="714" y="349.7627">-float unitaryWeight</text><!--MD5=[6f4f5a959b7eecf0b4982552d890dec0]
link Platform to Client--><path d="M108.281,217.789 C152.533,206.603 217.136,190.272 264.662,178.258 " fill="none" id="Platform-Client" style="stroke: #A80036; stroke-width: 1.0;"/><text fill="#000000" font-family="sans-serif" font-size="13" lengthAdjust="spacingAndGlyphs" textLength="82" x="139" y="181.9951">has registered</text><polygon fill="#000000" points="224,175.1758,230,178.1758,224,181.1758,224,175.1758" style="stroke: #000000; stroke-width: 1.0;"/><text fill="#000000" font-family="sans-serif" font-size="13" lengthAdjust="spacingAndGlyphs" textLength="7" x="115.9846" y="230.6579">1</text><text fill="#000000" font-family="sans-serif" font-size="13" lengthAdjust="spacingAndGlyphs" textLength="5" x="252.0495" y="194.5006">*</text><!--MD5=[46120166855af3d867105a26a4c9094b]
link Platform to Order--><path d="M108.382,235.724 C204.383,245.678 412.514,267.2591 508.779,277.2407 " fill="none" id="Platform-Order" style="stroke: #A80036; stroke-width: 1.0;"/><text fill="#000000" font-family="sans-serif" font-size="13" lengthAdjust="spacingAndGlyphs" textLength="82" x="280.5" y="247.9951">has registered</text><polygon fill="#000000" points="365.5,241.1758,371.5,244.1758,365.5,247.1758,365.5,241.1758" style="stroke: #000000; stroke-width: 1.0;"/><text fill="#000000" font-family="sans-serif" font-size="13" lengthAdjust="spacingAndGlyphs" textLength="7" x="116.0998" y="251.115">1</text><text fill="#000000" font-family="sans-serif" font-size="13" lengthAdjust="spacingAndGlyphs" textLength="5" x="496.1542" y="291.1564">*</text><!--MD5=[5df16df72a49edaa4f00919f1e597f76]
link Order to Product--><path d="M612.104,287.3437 C641.394,290.1473 678.194,293.6697 707.758,296.4995 " fill="none" id="Order-Product" style="stroke: #A80036; stroke-width: 1.0;"/><text fill="#000000" font-family="sans-serif" font-size="13" lengthAdjust="spacingAndGlyphs" textLength="21" x="643" y="285.9951">has</text><polygon fill="#000000" points="667,279.1758,673,282.1758,667,285.1758,667,279.1758" style="stroke: #000000; stroke-width: 1.0;"/><text fill="#000000" font-family="sans-serif" font-size="13" lengthAdjust="spacingAndGlyphs" textLength="7" x="619.853" y="302.6801">1</text><text fill="#000000" font-family="sans-serif" font-size="13" lengthAdjust="spacingAndGlyphs" textLength="5" x="694.9193" y="310.4285">*</text><!--MD5=[9a8dc34b38f85b9f3fcdb440f4bffc6a]
link Client to User--><path d="M391.073,132.069 C429.075,113.439 476.957,89.966 511.945,72.813 " fill="none" id="Client-User" style="stroke: #A80036; stroke-width: 1.0;"/><text fill="#000000" font-family="sans-serif" font-size="13" lengthAdjust="spacingAndGlyphs" textLength="43" x="422" y="85.9951">acts as</text><polygon fill="#000000" points="468,79.1758,474,82.1758,468,85.1758,468,79.1758" style="stroke: #000000; stroke-width: 1.0;"/><text fill="#000000" font-family="sans-serif" font-size="13" lengthAdjust="spacingAndGlyphs" textLength="22" x="399.1747" y="143.1112">0..1</text><text fill="#000000" font-family="sans-serif" font-size="13" lengthAdjust="spacingAndGlyphs" textLength="7" x="496.9741" y="91.1675">1</text><!--MD5=[879bec428a80d843af24dc47845bf14c]
link Client to Order--><path d="M391.073,194.816 C428.008,214.045 474.277,238.132 508.969,256.193 " fill="none" id="Client-Order" style="stroke: #A80036; stroke-width: 1.0;"/><text fill="#000000" font-family="sans-serif" font-size="13" lengthAdjust="spacingAndGlyphs" textLength="39" x="424" y="207.9951">makes</text><polygon fill="#000000" points="466,201.1758,472,204.1758,466,207.1758,466,201.1758" style="stroke: #000000; stroke-width: 1.0;"/><text fill="#000000" font-family="sans-serif" font-size="13" lengthAdjust="spacingAndGlyphs" textLength="7" x="399.1866" y="213.2251">1</text><text fill="#000000" font-family="sans-serif" font-size="13" lengthAdjust="spacingAndGlyphs" textLength="7" x="493.8863" y="267.036">1</text><!--MD5=[bd708f2371c655af07b49ddbdb30848a]
link Client to Address--><path d="M391.211,159.758 C476.533,155.996 628.323,149.305 707.953,145.794 " fill="none" id="Client-Address" style="stroke: #A80036; stroke-width: 1.0;"/><text fill="#000000" font-family="sans-serif" font-size="13" lengthAdjust="spacingAndGlyphs" textLength="21" x="543.5" y="145.9951">has</text><polygon fill="#000000" points="567.5,139.1758,573.5,142.1758,567.5,145.1758,567.5,139.1758" style="stroke: #000000; stroke-width: 1.0;"/><text fill="#000000" font-family="sans-serif" font-size="13" lengthAdjust="spacingAndGlyphs" textLength="7" x="398.9245" y="173.8615">1</text><text fill="#000000" font-family="sans-serif" font-size="13" lengthAdjust="spacingAndGlyphs" textLength="7" x="693.0011" y="160.7719">1</text><!--MD5=[dd2bca8e69277b6dcf04d6bf8fed5dca]
link Order to Address--><path d="M612.104,247.065 C641.394,226.554 678.194,200.785 707.758,180.082 " fill="none" id="Order-Address" style="stroke: #A80036; stroke-width: 1.0;"/><text fill="#000000" font-family="sans-serif" font-size="13" lengthAdjust="spacingAndGlyphs" textLength="21" x="643" y="200.9951">has</text><polygon fill="#000000" points="667,194.1758,673,197.1758,667,200.1758,667,194.1758" style="stroke: #000000; stroke-width: 1.0;"/><text fill="#000000" font-family="sans-serif" font-size="13" lengthAdjust="spacingAndGlyphs" textLength="7" x="619.853" y="256.7372">1</text><text fill="#000000" font-family="sans-serif" font-size="13" lengthAdjust="spacingAndGlyphs" textLength="7" x="693.1333" y="199.6014">1</text><!--MD5=[d6b286086d0b92ddff1b68b32eab05c4]
@startuml
skinparam classAttributeIconSize 0
hide methods
left to right direction

class Platform {
-   String designation
}
class Client{
-   int IBAN
-   long creditCardNumber
-   int validityDate
-   int CCV
}

class User{
-   String name
-   String email
-   String password
}

class Address{
-   String streetName
-   String doorNumber
-   String postalCode
-   String locality
-   String country
-   float longitude
-   float latitude
}

class Order{
-   int id
-   float amount
-   float totalWeight
-   float additionalFee
-   Date orderDate
-   String description
-   String status
}

class Product{
-   int id
-   String name
-   String description
-   float unitaryPrice
-   float unitaryWeight
}

Platform "1" - - "*" Client : has registered >
Platform "1" - - "*" Order : has registered >
Order "1" - - "*" Product : has >
Client "0..1" - - "1" User: acts as >
Client "1" - - "1" Order : makes >
Client "1" - - "1" Address : has >
Order "1" - - "1" Address : has >
@enduml

PlantUML version 1.2020.09(Sun May 10 11:51:06 BST 2020)
(GPL source distribution)
Java Runtime: OpenJDK Runtime Environment
JVM: OpenJDK 64-Bit Server VM
Java Version: 11.0.6+8-b520.66
Operating System: Windows 10
Default Encoding: Cp1252
Language: pt
Country: PT
--></g></svg>