<?xml version="1.0" encoding="UTF-8" standalone="no"?><svg xmlns="http://www.w3.org/2000/svg" xmlns:xlink="http://www.w3.org/1999/xlink" contentScriptType="application/ecmascript" contentStyleType="text/css" height="1316px" preserveAspectRatio="none" style="width:1665px;height:1316px;" version="1.1" viewBox="0 0 1665 1316" width="1665px" zoomAndPan="magnify"><defs><filter height="300%" id="fpn67vb82dzz2" width="300%" x="-1" y="-1"><feGaussianBlur result="blurOut" stdDeviation="2.0"/><feColorMatrix in="blurOut" result="blurOut2" type="matrix" values="0 0 0 0 0 0 0 0 0 0 0 0 0 0 0 0 0 0 .4 0"/><feOffset dx="4.0" dy="4.0" in="blurOut2" result="blurOut3"/><feBlend in="SourceGraphic" in2="blurOut3" mode="normal"/></filter></defs><g><!--MD5=[9681dc6e01e10c6b4fe06895ae94f592]
cluster UI--><polygon fill="#DDDDDD" filter="url(#fpn67vb82dzz2)" points="189,24,209,24,216,47.6094,355,47.6094,355,124,189,124,189,24" style="stroke: #000000; stroke-width: 1.5;"/><line style="stroke: #000000; stroke-width: 1.5;" x1="189" x2="216" y1="47.6094" y2="47.6094"/><text fill="#000000" font-family="sans-serif" font-size="14" font-weight="bold" lengthAdjust="spacingAndGlyphs" textLength="14" x="193" y="40.5332">UI</text><!--MD5=[1f2cfc53d9d308f53762fd0fcbaa4873]
cluster Controller--><polygon fill="#DDDDDD" filter="url(#fpn67vb82dzz2)" points="22,157,99,157,106,180.6094,522,180.6094,522,443.5,22,443.5,22,157" style="stroke: #000000; stroke-width: 1.5;"/><line style="stroke: #000000; stroke-width: 1.5;" x1="22" x2="106" y1="180.6094" y2="180.6094"/><text fill="#000000" font-family="sans-serif" font-size="14" font-weight="bold" lengthAdjust="spacingAndGlyphs" textLength="71" x="26" y="173.5332">Controller</text><!--MD5=[15636c1ca4a123c16a2a1a8e90aca7a9]
cluster Model--><polygon fill="#DDDDDD" filter="url(#fpn67vb82dzz2)" points="546,302,596,302,603,325.6094,1483,325.6094,1483,1304,546,1304,546,302" style="stroke: #000000; stroke-width: 1.5;"/><line style="stroke: #000000; stroke-width: 1.5;" x1="546" x2="603" y1="325.6094" y2="325.6094"/><text fill="#000000" font-family="sans-serif" font-size="14" font-weight="bold" lengthAdjust="spacingAndGlyphs" textLength="44" x="550" y="318.5332">Model</text><!--MD5=[7f5e0441b00afcd8fa9ae108c086a015]
cluster Registration--><polygon fill="#DDDDDD" filter="url(#fpn67vb82dzz2)" points="883,505,975,505,982,528.6094,1459,528.6094,1459,647,883,647,883,505" style="stroke: #000000; stroke-width: 1.5;"/><line style="stroke: #000000; stroke-width: 1.5;" x1="883" x2="982" y1="528.6094" y2="528.6094"/><text fill="#000000" font-family="sans-serif" font-size="14" font-weight="bold" lengthAdjust="spacingAndGlyphs" textLength="86" x="887" y="521.5332">Registration</text><!--MD5=[f21b1f164e99c6b37934f23ad048ad54]
cluster Data--><polygon fill="#DDDDDD" filter="url(#fpn67vb82dzz2)" points="1507,315.5,1544,315.5,1551,339.1094,1643,339.1094,1643,443.5,1507,443.5,1507,315.5" style="stroke: #000000; stroke-width: 1.5;"/><line style="stroke: #000000; stroke-width: 1.5;" x1="1507" x2="1551" y1="339.1094" y2="339.1094"/><text fill="#000000" font-family="sans-serif" font-size="14" font-weight="bold" lengthAdjust="spacingAndGlyphs" textLength="31" x="1511" y="332.0332">Data</text><!--MD5=[1dccaa194489f6479f13a7c9be473604]
class GenerateInvoiceUI--><rect fill="#FEFECE" filter="url(#fpn67vb82dzz2)" height="48" id="GenerateInvoiceUI" style="stroke: #A80036; stroke-width: 1.5;" width="133" x="205.5" y="60"/><ellipse cx="220.5" cy="76" fill="#ADD1B2" rx="11" ry="11" style="stroke: #A80036; stroke-width: 1.0;"/><path d="M222.5,72.5 Q222.7031,72 222.9375,71.75 Q223.1719,71.5 223.4375,71.5 Q223.9063,71.5 224.2031,71.7813 Q224.5,72.0625 224.5,72.7188 L224.5,74.2813 Q224.5,74.9375 224.2188,75.2188 Q223.9375,75.5 223.5,75.5 Q223.1094,75.5 222.8594,75.3281 Q222.6094,75.1563 222.5,74.7031 Q222.4531,74.3906 222.2813,74.2188 Q221.9688,73.8906 221.4063,73.7031 Q220.8438,73.5 220.2813,73.5 Q219.5781,73.5 218.9844,73.7813 Q218.4063,74.0625 217.9531,74.6875 Q217.5,75.3125 217.5,76.1719 L217.5,77.0938 Q217.5,78.125 218.3438,78.8125 Q219.1875,79.5 220.6875,79.5 Q221.5781,79.5 222.2031,79.2969 Q222.5625,79.1875 222.9688,78.8281 Q223.2344,78.625 223.375,78.5625 Q223.5156,78.5 223.6875,78.5 Q224.0156,78.5 224.25,78.7656 Q224.5,79.0156 224.5,79.375 Q224.5,79.7188 224.1563,80.125 Q223.6563,80.7188 222.8594,81.0469 Q221.8125,81.5 220.5313,81.5 Q219.0313,81.5 217.8281,80.9063 Q216.8594,80.4375 216.1719,79.4219 Q215.5,78.4063 215.5,77.2031 L215.5,76.1094 Q215.5,74.8594 216.0938,73.7656 Q216.7031,72.6719 217.75,72.0938 Q218.8125,71.5 220,71.5 Q220.7188,71.5 221.3438,71.75 Q221.9688,72 222.5,72.5 Z "/><text fill="#000000" font-family="sans-serif" font-size="12" lengthAdjust="spacingAndGlyphs" textLength="101" x="234.5" y="80.9102">GenerateInvoiceUI</text><line style="stroke: #A80036; stroke-width: 1.5;" x1="206.5" x2="337.5" y1="92" y2="92"/><line style="stroke: #A80036; stroke-width: 1.5;" x1="206.5" x2="337.5" y1="100" y2="100"/><!--MD5=[3289848d71879b0f734b9b16b9111738]
class GenerateInvoiceController--><rect fill="#FEFECE" filter="url(#fpn67vb82dzz2)" height="61.8359" id="GenerateInvoiceController" style="stroke: #A80036; stroke-width: 1.5;" width="467" x="38.5" y="193"/><ellipse cx="196.25" cy="209" fill="#ADD1B2" rx="11" ry="11" style="stroke: #A80036; stroke-width: 1.0;"/><path d="M198.25,205.5 Q198.4531,205 198.6875,204.75 Q198.9219,204.5 199.1875,204.5 Q199.6563,204.5 199.9531,204.7813 Q200.25,205.0625 200.25,205.7188 L200.25,207.2813 Q200.25,207.9375 199.9688,208.2188 Q199.6875,208.5 199.25,208.5 Q198.8594,208.5 198.6094,208.3281 Q198.3594,208.1563 198.25,207.7031 Q198.2031,207.3906 198.0313,207.2188 Q197.7188,206.8906 197.1563,206.7031 Q196.5938,206.5 196.0313,206.5 Q195.3281,206.5 194.7344,206.7813 Q194.1563,207.0625 193.7031,207.6875 Q193.25,208.3125 193.25,209.1719 L193.25,210.0938 Q193.25,211.125 194.0938,211.8125 Q194.9375,212.5 196.4375,212.5 Q197.3281,212.5 197.9531,212.2969 Q198.3125,212.1875 198.7188,211.8281 Q198.9844,211.625 199.125,211.5625 Q199.2656,211.5 199.4375,211.5 Q199.7656,211.5 200,211.7656 Q200.25,212.0156 200.25,212.375 Q200.25,212.7188 199.9063,213.125 Q199.4063,213.7188 198.6094,214.0469 Q197.5625,214.5 196.2813,214.5 Q194.7813,214.5 193.5781,213.9063 Q192.6094,213.4375 191.9219,212.4219 Q191.25,211.4063 191.25,210.2031 L191.25,209.1094 Q191.25,207.8594 191.8438,206.7656 Q192.4531,205.6719 193.5,205.0938 Q194.5625,204.5 195.75,204.5 Q196.4688,204.5 197.0938,204.75 Q197.7188,205 198.25,205.5 Z "/><text fill="#000000" font-family="sans-serif" font-size="12" lengthAdjust="spacingAndGlyphs" textLength="143" x="216.75" y="213.9102">GenerateInvoiceController</text><line style="stroke: #A80036; stroke-width: 1.5;" x1="39.5" x2="504.5" y1="225" y2="225"/><line style="stroke: #A80036; stroke-width: 1.5;" x1="39.5" x2="504.5" y1="233" y2="233"/><text fill="#000000" font-family="sans-serif" font-size="11" lengthAdjust="spacingAndGlyphs" textLength="455" x="44.5" y="248.4189">+registerNewUser(name,email,password,address,gpsLocation,creditCardNr,validityDate,CCV)</text><!--MD5=[e45a4727c47b726c25e081782e8bc183]
class ApplicationPOT--><rect fill="#FEFECE" filter="url(#fpn67vb82dzz2)" height="75.6719" id="ApplicationPOT" style="stroke: #A80036; stroke-width: 1.5;" width="116" x="325" y="351.5"/><ellipse cx="340" cy="367.5" fill="#ADD1B2" rx="11" ry="11" style="stroke: #A80036; stroke-width: 1.0;"/><path d="M342,364 Q342.2031,363.5 342.4375,363.25 Q342.6719,363 342.9375,363 Q343.4063,363 343.7031,363.2813 Q344,363.5625 344,364.2188 L344,365.7813 Q344,366.4375 343.7188,366.7188 Q343.4375,367 343,367 Q342.6094,367 342.3594,366.8281 Q342.1094,366.6563 342,366.2031 Q341.9531,365.8906 341.7813,365.7188 Q341.4688,365.3906 340.9063,365.2031 Q340.3438,365 339.7813,365 Q339.0781,365 338.4844,365.2813 Q337.9063,365.5625 337.4531,366.1875 Q337,366.8125 337,367.6719 L337,368.5938 Q337,369.625 337.8438,370.3125 Q338.6875,371 340.1875,371 Q341.0781,371 341.7031,370.7969 Q342.0625,370.6875 342.4688,370.3281 Q342.7344,370.125 342.875,370.0625 Q343.0156,370 343.1875,370 Q343.5156,370 343.75,370.2656 Q344,370.5156 344,370.875 Q344,371.2188 343.6563,371.625 Q343.1563,372.2188 342.3594,372.5469 Q341.3125,373 340.0313,373 Q338.5313,373 337.3281,372.4063 Q336.3594,371.9375 335.6719,370.9219 Q335,369.9063 335,368.7031 L335,367.6094 Q335,366.3594 335.5938,365.2656 Q336.2031,364.1719 337.25,363.5938 Q338.3125,363 339.5,363 Q340.2188,363 340.8438,363.25 Q341.4688,363.5 342,364 Z "/><text fill="#000000" font-family="sans-serif" font-size="12" lengthAdjust="spacingAndGlyphs" textLength="84" x="354" y="372.4102">ApplicationPOT</text><line style="stroke: #A80036; stroke-width: 1.5;" x1="326" x2="440" y1="383.5" y2="383.5"/><line style="stroke: #A80036; stroke-width: 1.5;" x1="326" x2="440" y1="391.5" y2="391.5"/><text fill="#000000" font-family="sans-serif" font-size="11" lengthAdjust="spacingAndGlyphs" textLength="99" x="331" y="406.9189">+static getInstance()</text><text fill="#000000" font-family="sans-serif" font-size="11" lengthAdjust="spacingAndGlyphs" textLength="68" x="331" y="420.7549">+getPlatform()</text><!--MD5=[c5b08e60048ef1bcd788d24cf324082e]
class UserSession--><rect fill="#FEFECE" filter="url(#fpn67vb82dzz2)" height="61.8359" id="UserSession" style="stroke: #A80036; stroke-width: 1.5;" width="116" x="174" y="358.5"/><ellipse cx="193.95" cy="374.5" fill="#ADD1B2" rx="11" ry="11" style="stroke: #A80036; stroke-width: 1.0;"/><path d="M195.95,371 Q196.1531,370.5 196.3875,370.25 Q196.6219,370 196.8875,370 Q197.3563,370 197.6531,370.2813 Q197.95,370.5625 197.95,371.2188 L197.95,372.7813 Q197.95,373.4375 197.6688,373.7188 Q197.3875,374 196.95,374 Q196.5594,374 196.3094,373.8281 Q196.0594,373.6563 195.95,373.2031 Q195.9031,372.8906 195.7313,372.7188 Q195.4188,372.3906 194.8563,372.2031 Q194.2938,372 193.7313,372 Q193.0281,372 192.4344,372.2813 Q191.8563,372.5625 191.4031,373.1875 Q190.95,373.8125 190.95,374.6719 L190.95,375.5938 Q190.95,376.625 191.7938,377.3125 Q192.6375,378 194.1375,378 Q195.0281,378 195.6531,377.7969 Q196.0125,377.6875 196.4188,377.3281 Q196.6844,377.125 196.825,377.0625 Q196.9656,377 197.1375,377 Q197.4656,377 197.7,377.2656 Q197.95,377.5156 197.95,377.875 Q197.95,378.2188 197.6063,378.625 Q197.1063,379.2188 196.3094,379.5469 Q195.2625,380 193.9813,380 Q192.4813,380 191.2781,379.4063 Q190.3094,378.9375 189.6219,377.9219 Q188.95,376.9063 188.95,375.7031 L188.95,374.6094 Q188.95,373.3594 189.5438,372.2656 Q190.1531,371.1719 191.2,370.5938 Q192.2625,370 193.45,370 Q194.1688,370 194.7938,370.25 Q195.4188,370.5 195.95,371 Z "/><text fill="#000000" font-family="sans-serif" font-size="12" lengthAdjust="spacingAndGlyphs" textLength="73" x="209.05" y="379.4102">UserSession</text><line style="stroke: #A80036; stroke-width: 1.5;" x1="175" x2="289" y1="390.5" y2="390.5"/><line style="stroke: #A80036; stroke-width: 1.5;" x1="175" x2="289" y1="398.5" y2="398.5"/><text fill="#000000" font-family="sans-serif" font-size="11" lengthAdjust="spacingAndGlyphs" textLength="104" x="180" y="413.9189">+getCurrentSession()</text><!--MD5=[99b8db98afdc2c8404e39242ef4c1e65]
class Platform--><rect fill="#FEFECE" filter="url(#fpn67vb82dzz2)" height="103.3438" id="Platform" style="stroke: #A80036; stroke-width: 1.5;" width="102" x="848" y="338"/><ellipse cx="873.8" cy="354" fill="#ADD1B2" rx="11" ry="11" style="stroke: #A80036; stroke-width: 1.0;"/><path d="M875.8,350.5 Q876.0031,350 876.2375,349.75 Q876.4719,349.5 876.7375,349.5 Q877.2063,349.5 877.5031,349.7813 Q877.8,350.0625 877.8,350.7188 L877.8,352.2813 Q877.8,352.9375 877.5188,353.2188 Q877.2375,353.5 876.8,353.5 Q876.4094,353.5 876.1594,353.3281 Q875.9094,353.1563 875.8,352.7031 Q875.7531,352.3906 875.5813,352.2188 Q875.2688,351.8906 874.7063,351.7031 Q874.1438,351.5 873.5813,351.5 Q872.8781,351.5 872.2844,351.7813 Q871.7063,352.0625 871.2531,352.6875 Q870.8,353.3125 870.8,354.1719 L870.8,355.0938 Q870.8,356.125 871.6438,356.8125 Q872.4875,357.5 873.9875,357.5 Q874.8781,357.5 875.5031,357.2969 Q875.8625,357.1875 876.2688,356.8281 Q876.5344,356.625 876.675,356.5625 Q876.8156,356.5 876.9875,356.5 Q877.3156,356.5 877.55,356.7656 Q877.8,357.0156 877.8,357.375 Q877.8,357.7188 877.4563,358.125 Q876.9563,358.7188 876.1594,359.0469 Q875.1125,359.5 873.8313,359.5 Q872.3313,359.5 871.1281,358.9063 Q870.1594,358.4375 869.4719,357.4219 Q868.8,356.4063 868.8,355.2031 L868.8,354.1094 Q868.8,352.8594 869.3938,351.7656 Q870.0031,350.6719 871.05,350.0938 Q872.1125,349.5 873.3,349.5 Q874.0188,349.5 874.6438,349.75 Q875.2688,350 875.8,350.5 Z "/><text fill="#000000" font-family="sans-serif" font-size="12" lengthAdjust="spacingAndGlyphs" textLength="46" x="890.2" y="358.9102">Platform</text><line style="stroke: #A80036; stroke-width: 1.5;" x1="849" x2="949" y1="370" y2="370"/><text fill="#000000" font-family="sans-serif" font-size="11" lengthAdjust="spacingAndGlyphs" textLength="90" x="854" y="385.4189">-String designation</text><line style="stroke: #A80036; stroke-width: 1.5;" x1="849" x2="949" y1="391.8359" y2="391.8359"/><text fill="#000000" font-family="sans-serif" font-size="11" lengthAdjust="spacingAndGlyphs" textLength="74" x="854" y="407.2549">+getClientReg()</text><text fill="#000000" font-family="sans-serif" font-size="11" lengthAdjust="spacingAndGlyphs" textLength="85" x="854" y="421.0908">+getProductReg()</text><text fill="#000000" font-family="sans-serif" font-size="11" lengthAdjust="spacingAndGlyphs" textLength="76" x="854" y="434.9268">+getOrderReg()</text><!--MD5=[3fd616f346a44cd59a91eb10b19e157c]
class User--><rect fill="#FEFECE" filter="url(#fpn67vb82dzz2)" height="89.5078" id="User" style="stroke: #A80036; stroke-width: 1.5;" width="97" x="729.5" y="541"/><ellipse cx="762.05" cy="557" fill="#A9DCDF" rx="11" ry="11" style="stroke: #A80036; stroke-width: 1.0;"/><path d="M763.8,558.5 L760.5031,558.5 L760.0656,559.5 L760.0656,559.5 L760.5344,559.5 L761.05,560.125 L761.05,560.5 L761.05,560.875 L760.5344,561.5 L760.0656,561.5 L758.175,561.5 L757.5656,561.5 L757.05,560.875 L757.05,560.5 L757.05,560.125 L757.5656,559.5 L758.175,559.5 L760.4875,553.5 L759.6125,553.5 L758.5656,553.5 L758.05,552.875 L758.05,552.5 L758.05,552.125 L758.5656,551.5 L759.6125,551.5 L763.2844,551.5 L765.9719,559.5 L766.5344,559.5 L766.5344,559.5 L767.05,560.125 L767.05,560.5 L767.05,560.875 L766.5344,561.5 L765.9719,561.5 L764.0813,561.5 L763.5656,561.5 L763.05,560.875 L763.05,560.5 L763.05,560.125 L763.5656,559.5 L764.0813,559.5 L764.0813,559.5 L763.8,558.5 Z M763.2531,556.5 L762.05,552.9219 L761.0188,556.5 L763.2531,556.5 Z "/><text fill="#000000" font-family="sans-serif" font-size="12" font-style="italic" lengthAdjust="spacingAndGlyphs" textLength="26" x="779.95" y="561.9102">User</text><line style="stroke: #A80036; stroke-width: 1.5;" x1="730.5" x2="825.5" y1="573" y2="573"/><text fill="#000000" font-family="sans-serif" font-size="11" lengthAdjust="spacingAndGlyphs" textLength="59" x="735.5" y="588.4189">-String email</text><text fill="#000000" font-family="sans-serif" font-size="11" lengthAdjust="spacingAndGlyphs" textLength="85" x="735.5" y="602.2549">-String password</text><text fill="#000000" font-family="sans-serif" font-size="11" lengthAdjust="spacingAndGlyphs" textLength="61" x="735.5" y="616.0908">-String name</text><line style="stroke: #A80036; stroke-width: 1.5;" x1="730.5" x2="825.5" y1="622.5078" y2="622.5078"/><!--MD5=[ed6624c6556d5e7b1bd23032162d20b7]
class Client--><rect fill="#FEFECE" filter="url(#fpn67vb82dzz2)" height="117.1797" id="Client" style="stroke: #A80036; stroke-width: 1.5;" width="126" x="678" y="711"/><ellipse cx="720.9" cy="727" fill="#ADD1B2" rx="11" ry="11" style="stroke: #A80036; stroke-width: 1.0;"/><path d="M722.9,723.5 Q723.1031,723 723.3375,722.75 Q723.5719,722.5 723.8375,722.5 Q724.3063,722.5 724.6031,722.7813 Q724.9,723.0625 724.9,723.7188 L724.9,725.2813 Q724.9,725.9375 724.6188,726.2188 Q724.3375,726.5 723.9,726.5 Q723.5094,726.5 723.2594,726.3281 Q723.0094,726.1563 722.9,725.7031 Q722.8531,725.3906 722.6813,725.2188 Q722.3688,724.8906 721.8063,724.7031 Q721.2438,724.5 720.6813,724.5 Q719.9781,724.5 719.3844,724.7813 Q718.8063,725.0625 718.3531,725.6875 Q717.9,726.3125 717.9,727.1719 L717.9,728.0938 Q717.9,729.125 718.7438,729.8125 Q719.5875,730.5 721.0875,730.5 Q721.9781,730.5 722.6031,730.2969 Q722.9625,730.1875 723.3688,729.8281 Q723.6344,729.625 723.775,729.5625 Q723.9156,729.5 724.0875,729.5 Q724.4156,729.5 724.65,729.7656 Q724.9,730.0156 724.9,730.375 Q724.9,730.7188 724.5563,731.125 Q724.0563,731.7188 723.2594,732.0469 Q722.2125,732.5 720.9313,732.5 Q719.4313,732.5 718.2281,731.9063 Q717.2594,731.4375 716.5719,730.4219 Q715.9,729.4063 715.9,728.2031 L715.9,727.1094 Q715.9,725.8594 716.4938,724.7656 Q717.1031,723.6719 718.15,723.0938 Q719.2125,722.5 720.4,722.5 Q721.1188,722.5 721.7438,722.75 Q722.3688,723 722.9,723.5 Z "/><text fill="#000000" font-family="sans-serif" font-size="12" lengthAdjust="spacingAndGlyphs" textLength="32" x="741.1" y="731.9102">Client</text><line style="stroke: #A80036; stroke-width: 1.5;" x1="679" x2="803" y1="743" y2="743"/><text fill="#000000" font-family="sans-serif" font-size="11" lengthAdjust="spacingAndGlyphs" textLength="45" x="684" y="758.4189">-int IBAN;</text><text fill="#000000" font-family="sans-serif" font-size="11" lengthAdjust="spacingAndGlyphs" textLength="114" x="684" y="772.2549">-long creditCardNumber</text><text fill="#000000" font-family="sans-serif" font-size="11" lengthAdjust="spacingAndGlyphs" textLength="89" x="684" y="786.0908">-Address address</text><text fill="#000000" font-family="sans-serif" font-size="11" lengthAdjust="spacingAndGlyphs" textLength="73" x="684" y="799.9268">-int validityDate</text><text fill="#000000" font-family="sans-serif" font-size="11" lengthAdjust="spacingAndGlyphs" textLength="40" x="684" y="813.7627">-int CCV</text><line style="stroke: #A80036; stroke-width: 1.5;" x1="679" x2="803" y1="820.1797" y2="820.1797"/><!--MD5=[0f39e4cb6f03951afbf6d14bd2505654]
class Address--><rect fill="#FEFECE" filter="url(#fpn67vb82dzz2)" height="144.8516" id="Address" style="stroke: #A80036; stroke-width: 1.5;" width="106" x="740" y="1143"/><ellipse cx="767.6" cy="1159" fill="#ADD1B2" rx="11" ry="11" style="stroke: #A80036; stroke-width: 1.0;"/><path d="M769.6,1155.5 Q769.8031,1155 770.0375,1154.75 Q770.2719,1154.5 770.5375,1154.5 Q771.0063,1154.5 771.3031,1154.7813 Q771.6,1155.0625 771.6,1155.7188 L771.6,1157.2813 Q771.6,1157.9375 771.3188,1158.2188 Q771.0375,1158.5 770.6,1158.5 Q770.2094,1158.5 769.9594,1158.3281 Q769.7094,1158.1563 769.6,1157.7031 Q769.5531,1157.3906 769.3813,1157.2188 Q769.0688,1156.8906 768.5063,1156.7031 Q767.9438,1156.5 767.3813,1156.5 Q766.6781,1156.5 766.0844,1156.7813 Q765.5063,1157.0625 765.0531,1157.6875 Q764.6,1158.3125 764.6,1159.1719 L764.6,1160.0938 Q764.6,1161.125 765.4438,1161.8125 Q766.2875,1162.5 767.7875,1162.5 Q768.6781,1162.5 769.3031,1162.2969 Q769.6625,1162.1875 770.0688,1161.8281 Q770.3344,1161.625 770.475,1161.5625 Q770.6156,1161.5 770.7875,1161.5 Q771.1156,1161.5 771.35,1161.7656 Q771.6,1162.0156 771.6,1162.375 Q771.6,1162.7188 771.2563,1163.125 Q770.7563,1163.7188 769.9594,1164.0469 Q768.9125,1164.5 767.6313,1164.5 Q766.1313,1164.5 764.9281,1163.9063 Q763.9594,1163.4375 763.2719,1162.4219 Q762.6,1161.4063 762.6,1160.2031 L762.6,1159.1094 Q762.6,1157.8594 763.1938,1156.7656 Q763.8031,1155.6719 764.85,1155.0938 Q765.9125,1154.5 767.1,1154.5 Q767.8188,1154.5 768.4438,1154.75 Q769.0688,1155 769.6,1155.5 Z "/><text fill="#000000" font-family="sans-serif" font-size="12" lengthAdjust="spacingAndGlyphs" textLength="46" x="784.4" y="1163.9102">Address</text><line style="stroke: #A80036; stroke-width: 1.5;" x1="741" x2="845" y1="1175" y2="1175"/><text fill="#000000" font-family="sans-serif" font-size="11" lengthAdjust="spacingAndGlyphs" textLength="90" x="746" y="1190.4189">-String streetName</text><text fill="#000000" font-family="sans-serif" font-size="11" lengthAdjust="spacingAndGlyphs" textLength="94" x="746" y="1204.2549">-String doorNumber</text><text fill="#000000" font-family="sans-serif" font-size="11" lengthAdjust="spacingAndGlyphs" textLength="89" x="746" y="1218.0908">-String postalCode</text><text fill="#000000" font-family="sans-serif" font-size="11" lengthAdjust="spacingAndGlyphs" textLength="68" x="746" y="1231.9268">-String locality</text><text fill="#000000" font-family="sans-serif" font-size="11" lengthAdjust="spacingAndGlyphs" textLength="72" x="746" y="1245.7627">-String country</text><text fill="#000000" font-family="sans-serif" font-size="11" lengthAdjust="spacingAndGlyphs" textLength="71" x="746" y="1259.5986">-float longitude</text><text fill="#000000" font-family="sans-serif" font-size="11" lengthAdjust="spacingAndGlyphs" textLength="62" x="746" y="1273.4346">-float latitude</text><line style="stroke: #A80036; stroke-width: 1.5;" x1="741" x2="845" y1="1279.8516" y2="1279.8516"/><!--MD5=[cf4d6237fcae255cd2e1656cf84a30e2]
class Order--><rect fill="#FEFECE" filter="url(#fpn67vb82dzz2)" height="158.6875" id="Order" style="stroke: #A80036; stroke-width: 1.5;" width="191" x="812.5" y="906"/><ellipse cx="888.25" cy="922" fill="#ADD1B2" rx="11" ry="11" style="stroke: #A80036; stroke-width: 1.0;"/><path d="M890.25,918.5 Q890.4531,918 890.6875,917.75 Q890.9219,917.5 891.1875,917.5 Q891.6563,917.5 891.9531,917.7813 Q892.25,918.0625 892.25,918.7188 L892.25,920.2813 Q892.25,920.9375 891.9688,921.2188 Q891.6875,921.5 891.25,921.5 Q890.8594,921.5 890.6094,921.3281 Q890.3594,921.1563 890.25,920.7031 Q890.2031,920.3906 890.0313,920.2188 Q889.7188,919.8906 889.1563,919.7031 Q888.5938,919.5 888.0313,919.5 Q887.3281,919.5 886.7344,919.7813 Q886.1563,920.0625 885.7031,920.6875 Q885.25,921.3125 885.25,922.1719 L885.25,923.0938 Q885.25,924.125 886.0938,924.8125 Q886.9375,925.5 888.4375,925.5 Q889.3281,925.5 889.9531,925.2969 Q890.3125,925.1875 890.7188,924.8281 Q890.9844,924.625 891.125,924.5625 Q891.2656,924.5 891.4375,924.5 Q891.7656,924.5 892,924.7656 Q892.25,925.0156 892.25,925.375 Q892.25,925.7188 891.9063,926.125 Q891.4063,926.7188 890.6094,927.0469 Q889.5625,927.5 888.2813,927.5 Q886.7813,927.5 885.5781,926.9063 Q884.6094,926.4375 883.9219,925.4219 Q883.25,924.4063 883.25,923.2031 L883.25,922.1094 Q883.25,920.8594 883.8438,919.7656 Q884.4531,918.6719 885.5,918.0938 Q886.5625,917.5 887.75,917.5 Q888.4688,917.5 889.0938,917.75 Q889.7188,918 890.25,918.5 Z "/><text fill="#000000" font-family="sans-serif" font-size="12" lengthAdjust="spacingAndGlyphs" textLength="31" x="908.75" y="926.9102">Order</text><line style="stroke: #A80036; stroke-width: 1.5;" x1="813.5" x2="1002.5" y1="938" y2="938"/><text fill="#000000" font-family="sans-serif" font-size="11" lengthAdjust="spacingAndGlyphs" textLength="26" x="818.5" y="953.4189">-int id</text><text fill="#000000" font-family="sans-serif" font-size="11" lengthAdjust="spacingAndGlyphs" textLength="63" x="818.5" y="967.2549">-float amount</text><text fill="#000000" font-family="sans-serif" font-size="11" lengthAdjust="spacingAndGlyphs" textLength="81" x="818.5" y="981.0908">-float totalWeight</text><text fill="#000000" font-family="sans-serif" font-size="11" lengthAdjust="spacingAndGlyphs" textLength="91" x="818.5" y="994.9268">-float additionalFee</text><text fill="#000000" font-family="sans-serif" font-size="11" lengthAdjust="spacingAndGlyphs" textLength="77" x="818.5" y="1008.7627">-Date orderDate</text><text fill="#000000" font-family="sans-serif" font-size="11" lengthAdjust="spacingAndGlyphs" textLength="88" x="818.5" y="1022.5986">-String description</text><text fill="#000000" font-family="sans-serif" font-size="11" lengthAdjust="spacingAndGlyphs" textLength="65" x="818.5" y="1036.4346">-String status</text><line style="stroke: #A80036; stroke-width: 1.5;" x1="813.5" x2="1002.5" y1="1042.8516" y2="1042.8516"/><text fill="#000000" font-family="sans-serif" font-size="11" lengthAdjust="spacingAndGlyphs" textLength="179" x="818.5" y="1058.2705">+create(date, totalPrice, order, client)</text><!--MD5=[72136138052d025cffdce3c22fbd185f]
class Product--><rect fill="#FEFECE" filter="url(#fpn67vb82dzz2)" height="117.1797" id="Product" style="stroke: #A80036; stroke-width: 1.5;" width="106" x="933" y="1157"/><ellipse cx="962.4" cy="1173" fill="#ADD1B2" rx="11" ry="11" style="stroke: #A80036; stroke-width: 1.0;"/><path d="M964.4,1169.5 Q964.6031,1169 964.8375,1168.75 Q965.0719,1168.5 965.3375,1168.5 Q965.8063,1168.5 966.1031,1168.7813 Q966.4,1169.0625 966.4,1169.7188 L966.4,1171.2813 Q966.4,1171.9375 966.1188,1172.2188 Q965.8375,1172.5 965.4,1172.5 Q965.0094,1172.5 964.7594,1172.3281 Q964.5094,1172.1563 964.4,1171.7031 Q964.3531,1171.3906 964.1813,1171.2188 Q963.8688,1170.8906 963.3063,1170.7031 Q962.7438,1170.5 962.1813,1170.5 Q961.4781,1170.5 960.8844,1170.7813 Q960.3063,1171.0625 959.8531,1171.6875 Q959.4,1172.3125 959.4,1173.1719 L959.4,1174.0938 Q959.4,1175.125 960.2438,1175.8125 Q961.0875,1176.5 962.5875,1176.5 Q963.4781,1176.5 964.1031,1176.2969 Q964.4625,1176.1875 964.8688,1175.8281 Q965.1344,1175.625 965.275,1175.5625 Q965.4156,1175.5 965.5875,1175.5 Q965.9156,1175.5 966.15,1175.7656 Q966.4,1176.0156 966.4,1176.375 Q966.4,1176.7188 966.0563,1177.125 Q965.5563,1177.7188 964.7594,1178.0469 Q963.7125,1178.5 962.4313,1178.5 Q960.9313,1178.5 959.7281,1177.9063 Q958.7594,1177.4375 958.0719,1176.4219 Q957.4,1175.4063 957.4,1174.2031 L957.4,1173.1094 Q957.4,1171.8594 957.9938,1170.7656 Q958.6031,1169.6719 959.65,1169.0938 Q960.7125,1168.5 961.9,1168.5 Q962.6188,1168.5 963.2438,1168.75 Q963.8688,1169 964.4,1169.5 Z "/><text fill="#000000" font-family="sans-serif" font-size="12" lengthAdjust="spacingAndGlyphs" textLength="42" x="979.6" y="1177.9102">Product</text><line style="stroke: #A80036; stroke-width: 1.5;" x1="934" x2="1038" y1="1189" y2="1189"/><text fill="#000000" font-family="sans-serif" font-size="11" lengthAdjust="spacingAndGlyphs" textLength="26" x="939" y="1204.4189">-int id</text><text fill="#000000" font-family="sans-serif" font-size="11" lengthAdjust="spacingAndGlyphs" textLength="61" x="939" y="1218.2549">-String name</text><text fill="#000000" font-family="sans-serif" font-size="11" lengthAdjust="spacingAndGlyphs" textLength="88" x="939" y="1232.0908">-String description</text><text fill="#000000" font-family="sans-serif" font-size="11" lengthAdjust="spacingAndGlyphs" textLength="85" x="939" y="1245.9268">-float unitaryPrice</text><text fill="#000000" font-family="sans-serif" font-size="11" lengthAdjust="spacingAndGlyphs" textLength="94" x="939" y="1259.7627">-float unitaryWeight</text><line style="stroke: #A80036; stroke-width: 1.5;" x1="934" x2="1038" y1="1266.1797" y2="1266.1797"/><!--MD5=[894442645724153f40a9f7a43026dbfc]
class Invoice--><rect fill="#FEFECE" filter="url(#fpn67vb82dzz2)" height="75.6719" id="Invoice" style="stroke: #A80036; stroke-width: 1.5;" width="89" x="1070.5" y="731.5"/><ellipse cx="1094.05" cy="747.5" fill="#ADD1B2" rx="11" ry="11" style="stroke: #A80036; stroke-width: 1.0;"/><path d="M1096.05,744 Q1096.2531,743.5 1096.4875,743.25 Q1096.7219,743 1096.9875,743 Q1097.4563,743 1097.7531,743.2813 Q1098.05,743.5625 1098.05,744.2188 L1098.05,745.7813 Q1098.05,746.4375 1097.7688,746.7188 Q1097.4875,747 1097.05,747 Q1096.6594,747 1096.4094,746.8281 Q1096.1594,746.6563 1096.05,746.2031 Q1096.0031,745.8906 1095.8313,745.7188 Q1095.5188,745.3906 1094.9563,745.2031 Q1094.3938,745 1093.8313,745 Q1093.1281,745 1092.5344,745.2813 Q1091.9563,745.5625 1091.5031,746.1875 Q1091.05,746.8125 1091.05,747.6719 L1091.05,748.5938 Q1091.05,749.625 1091.8938,750.3125 Q1092.7375,751 1094.2375,751 Q1095.1281,751 1095.7531,750.7969 Q1096.1125,750.6875 1096.5188,750.3281 Q1096.7844,750.125 1096.925,750.0625 Q1097.0656,750 1097.2375,750 Q1097.5656,750 1097.8,750.2656 Q1098.05,750.5156 1098.05,750.875 Q1098.05,751.2188 1097.7063,751.625 Q1097.2063,752.2188 1096.4094,752.5469 Q1095.3625,753 1094.0813,753 Q1092.5813,753 1091.3781,752.4063 Q1090.4094,751.9375 1089.7219,750.9219 Q1089.05,749.9063 1089.05,748.7031 L1089.05,747.6094 Q1089.05,746.3594 1089.6438,745.2656 Q1090.2531,744.1719 1091.3,743.5938 Q1092.3625,743 1093.55,743 Q1094.2688,743 1094.8938,743.25 Q1095.5188,743.5 1096.05,744 Z "/><text fill="#000000" font-family="sans-serif" font-size="12" lengthAdjust="spacingAndGlyphs" textLength="38" x="1109.95" y="752.4102">Invoice</text><line style="stroke: #A80036; stroke-width: 1.5;" x1="1071.5" x2="1158.5" y1="763.5" y2="763.5"/><text fill="#000000" font-family="sans-serif" font-size="11" lengthAdjust="spacingAndGlyphs" textLength="77" x="1076.5" y="778.9189">-Date orderDate</text><text fill="#000000" font-family="sans-serif" font-size="11" lengthAdjust="spacingAndGlyphs" textLength="63" x="1076.5" y="792.7549">-float amount</text><line style="stroke: #A80036; stroke-width: 1.5;" x1="1071.5" x2="1158.5" y1="799.1719" y2="799.1719"/><!--MD5=[91d4151b6d4c9a3d01b6d84b2458eece]
class CreditCard--><rect fill="#FEFECE" filter="url(#fpn67vb82dzz2)" height="89.5078" id="CreditCard" style="stroke: #A80036; stroke-width: 1.5;" width="117" x="1145.5" y="940.5"/><ellipse cx="1171.75" cy="956.5" fill="#ADD1B2" rx="11" ry="11" style="stroke: #A80036; stroke-width: 1.0;"/><path d="M1173.75,953 Q1173.9531,952.5 1174.1875,952.25 Q1174.4219,952 1174.6875,952 Q1175.1563,952 1175.4531,952.2813 Q1175.75,952.5625 1175.75,953.2188 L1175.75,954.7813 Q1175.75,955.4375 1175.4688,955.7188 Q1175.1875,956 1174.75,956 Q1174.3594,956 1174.1094,955.8281 Q1173.8594,955.6563 1173.75,955.2031 Q1173.7031,954.8906 1173.5313,954.7188 Q1173.2188,954.3906 1172.6563,954.2031 Q1172.0938,954 1171.5313,954 Q1170.8281,954 1170.2344,954.2813 Q1169.6563,954.5625 1169.2031,955.1875 Q1168.75,955.8125 1168.75,956.6719 L1168.75,957.5938 Q1168.75,958.625 1169.5938,959.3125 Q1170.4375,960 1171.9375,960 Q1172.8281,960 1173.4531,959.7969 Q1173.8125,959.6875 1174.2188,959.3281 Q1174.4844,959.125 1174.625,959.0625 Q1174.7656,959 1174.9375,959 Q1175.2656,959 1175.5,959.2656 Q1175.75,959.5156 1175.75,959.875 Q1175.75,960.2188 1175.4063,960.625 Q1174.9063,961.2188 1174.1094,961.5469 Q1173.0625,962 1171.7813,962 Q1170.2813,962 1169.0781,961.4063 Q1168.1094,960.9375 1167.4219,959.9219 Q1166.75,958.9063 1166.75,957.7031 L1166.75,956.6094 Q1166.75,955.3594 1167.3438,954.2656 Q1167.9531,953.1719 1169,952.5938 Q1170.0625,952 1171.25,952 Q1171.9688,952 1172.5938,952.25 Q1173.2188,952.5 1173.75,953 Z "/><text fill="#000000" font-family="sans-serif" font-size="12" lengthAdjust="spacingAndGlyphs" textLength="60" x="1188.25" y="961.4102">CreditCard</text><line style="stroke: #A80036; stroke-width: 1.5;" x1="1146.5" x2="1261.5" y1="972.5" y2="972.5"/><text fill="#000000" font-family="sans-serif" font-size="11" lengthAdjust="spacingAndGlyphs" textLength="105" x="1151.5" y="987.9189">-int creditCardNumber</text><text fill="#000000" font-family="sans-serif" font-size="11" lengthAdjust="spacingAndGlyphs" textLength="88" x="1151.5" y="1001.7549">-Date validatyDate</text><text fill="#000000" font-family="sans-serif" font-size="11" lengthAdjust="spacingAndGlyphs" textLength="40" x="1151.5" y="1015.5908">-int CCV</text><line style="stroke: #A80036; stroke-width: 1.5;" x1="1146.5" x2="1261.5" y1="1022.0078" y2="1022.0078"/><!--MD5=[d0b42ea7f64b79a0b58ded84ada2dba0]
class ClientRegistration--><rect fill="#FEFECE" filter="url(#fpn67vb82dzz2)" height="61.8359" id="ClientRegistration" style="stroke: #A80036; stroke-width: 1.5;" width="131" x="899.5" y="555"/><ellipse cx="914.5" cy="571" fill="#ADD1B2" rx="11" ry="11" style="stroke: #A80036; stroke-width: 1.0;"/><path d="M916.5,567.5 Q916.7031,567 916.9375,566.75 Q917.1719,566.5 917.4375,566.5 Q917.9063,566.5 918.2031,566.7813 Q918.5,567.0625 918.5,567.7188 L918.5,569.2813 Q918.5,569.9375 918.2188,570.2188 Q917.9375,570.5 917.5,570.5 Q917.1094,570.5 916.8594,570.3281 Q916.6094,570.1563 916.5,569.7031 Q916.4531,569.3906 916.2813,569.2188 Q915.9688,568.8906 915.4063,568.7031 Q914.8438,568.5 914.2813,568.5 Q913.5781,568.5 912.9844,568.7813 Q912.4063,569.0625 911.9531,569.6875 Q911.5,570.3125 911.5,571.1719 L911.5,572.0938 Q911.5,573.125 912.3438,573.8125 Q913.1875,574.5 914.6875,574.5 Q915.5781,574.5 916.2031,574.2969 Q916.5625,574.1875 916.9688,573.8281 Q917.2344,573.625 917.375,573.5625 Q917.5156,573.5 917.6875,573.5 Q918.0156,573.5 918.25,573.7656 Q918.5,574.0156 918.5,574.375 Q918.5,574.7188 918.1563,575.125 Q917.6563,575.7188 916.8594,576.0469 Q915.8125,576.5 914.5313,576.5 Q913.0313,576.5 911.8281,575.9063 Q910.8594,575.4375 910.1719,574.4219 Q909.5,573.4063 909.5,572.2031 L909.5,571.1094 Q909.5,569.8594 910.0938,568.7656 Q910.7031,567.6719 911.75,567.0938 Q912.8125,566.5 914,566.5 Q914.7188,566.5 915.3438,566.75 Q915.9688,567 916.5,567.5 Z "/><text fill="#000000" font-family="sans-serif" font-size="12" lengthAdjust="spacingAndGlyphs" textLength="99" x="928.5" y="575.9102">ClientRegistration</text><line style="stroke: #A80036; stroke-width: 1.5;" x1="900.5" x2="1029.5" y1="587" y2="587"/><line style="stroke: #A80036; stroke-width: 1.5;" x1="900.5" x2="1029.5" y1="595" y2="595"/><text fill="#000000" font-family="sans-serif" font-size="11" lengthAdjust="spacingAndGlyphs" textLength="113" x="905.5" y="610.4189">+getUserByEmail(email)</text><!--MD5=[fa2eb4bbb726c410908f1f53a3c9f4ac]
class OrderRegistration--><rect fill="#FEFECE" filter="url(#fpn67vb82dzz2)" height="61.8359" id="OrderRegistration" style="stroke: #A80036; stroke-width: 1.5;" width="130" x="1066" y="555"/><ellipse cx="1081" cy="571" fill="#ADD1B2" rx="11" ry="11" style="stroke: #A80036; stroke-width: 1.0;"/><path d="M1083,567.5 Q1083.2031,567 1083.4375,566.75 Q1083.6719,566.5 1083.9375,566.5 Q1084.4063,566.5 1084.7031,566.7813 Q1085,567.0625 1085,567.7188 L1085,569.2813 Q1085,569.9375 1084.7188,570.2188 Q1084.4375,570.5 1084,570.5 Q1083.6094,570.5 1083.3594,570.3281 Q1083.1094,570.1563 1083,569.7031 Q1082.9531,569.3906 1082.7813,569.2188 Q1082.4688,568.8906 1081.9063,568.7031 Q1081.3438,568.5 1080.7813,568.5 Q1080.0781,568.5 1079.4844,568.7813 Q1078.9063,569.0625 1078.4531,569.6875 Q1078,570.3125 1078,571.1719 L1078,572.0938 Q1078,573.125 1078.8438,573.8125 Q1079.6875,574.5 1081.1875,574.5 Q1082.0781,574.5 1082.7031,574.2969 Q1083.0625,574.1875 1083.4688,573.8281 Q1083.7344,573.625 1083.875,573.5625 Q1084.0156,573.5 1084.1875,573.5 Q1084.5156,573.5 1084.75,573.7656 Q1085,574.0156 1085,574.375 Q1085,574.7188 1084.6563,575.125 Q1084.1563,575.7188 1083.3594,576.0469 Q1082.3125,576.5 1081.0313,576.5 Q1079.5313,576.5 1078.3281,575.9063 Q1077.3594,575.4375 1076.6719,574.4219 Q1076,573.4063 1076,572.2031 L1076,571.1094 Q1076,569.8594 1076.5938,568.7656 Q1077.2031,567.6719 1078.25,567.0938 Q1079.3125,566.5 1080.5,566.5 Q1081.2188,566.5 1081.8438,566.75 Q1082.4688,567 1083,567.5 Z "/><text fill="#000000" font-family="sans-serif" font-size="12" lengthAdjust="spacingAndGlyphs" textLength="98" x="1095" y="575.9102">OrderRegistration</text><line style="stroke: #A80036; stroke-width: 1.5;" x1="1067" x2="1195" y1="587" y2="587"/><line style="stroke: #A80036; stroke-width: 1.5;" x1="1067" x2="1195" y1="595" y2="595"/><text fill="#000000" font-family="sans-serif" font-size="11" lengthAdjust="spacingAndGlyphs" textLength="87" x="1072" y="610.4189">+getLatestOrder()</text><!--MD5=[2da22c488c07fa667d29c3679beb7994]
class InvoiceRegistration--><rect fill="#FEFECE" filter="url(#fpn67vb82dzz2)" height="89.5078" id="InvoiceRegistration" style="stroke: #A80036; stroke-width: 1.5;" width="212" x="1231" y="541"/><ellipse cx="1280.25" cy="557" fill="#ADD1B2" rx="11" ry="11" style="stroke: #A80036; stroke-width: 1.0;"/><path d="M1282.25,553.5 Q1282.4531,553 1282.6875,552.75 Q1282.9219,552.5 1283.1875,552.5 Q1283.6563,552.5 1283.9531,552.7813 Q1284.25,553.0625 1284.25,553.7188 L1284.25,555.2813 Q1284.25,555.9375 1283.9688,556.2188 Q1283.6875,556.5 1283.25,556.5 Q1282.8594,556.5 1282.6094,556.3281 Q1282.3594,556.1563 1282.25,555.7031 Q1282.2031,555.3906 1282.0313,555.2188 Q1281.7188,554.8906 1281.1563,554.7031 Q1280.5938,554.5 1280.0313,554.5 Q1279.3281,554.5 1278.7344,554.7813 Q1278.1563,555.0625 1277.7031,555.6875 Q1277.25,556.3125 1277.25,557.1719 L1277.25,558.0938 Q1277.25,559.125 1278.0938,559.8125 Q1278.9375,560.5 1280.4375,560.5 Q1281.3281,560.5 1281.9531,560.2969 Q1282.3125,560.1875 1282.7188,559.8281 Q1282.9844,559.625 1283.125,559.5625 Q1283.2656,559.5 1283.4375,559.5 Q1283.7656,559.5 1284,559.7656 Q1284.25,560.0156 1284.25,560.375 Q1284.25,560.7188 1283.9063,561.125 Q1283.4063,561.7188 1282.6094,562.0469 Q1281.5625,562.5 1280.2813,562.5 Q1278.7813,562.5 1277.5781,561.9063 Q1276.6094,561.4375 1275.9219,560.4219 Q1275.25,559.4063 1275.25,558.2031 L1275.25,557.1094 Q1275.25,555.8594 1275.8438,554.7656 Q1276.4531,553.6719 1277.5,553.0938 Q1278.5625,552.5 1279.75,552.5 Q1280.4688,552.5 1281.0938,552.75 Q1281.7188,553 1282.25,553.5 Z "/><text fill="#000000" font-family="sans-serif" font-size="12" lengthAdjust="spacingAndGlyphs" textLength="105" x="1300.75" y="561.9102">InvoiceRegistration</text><line style="stroke: #A80036; stroke-width: 1.5;" x1="1232" x2="1442" y1="573" y2="573"/><line style="stroke: #A80036; stroke-width: 1.5;" x1="1232" x2="1442" y1="581" y2="581"/><text fill="#000000" font-family="sans-serif" font-size="11" lengthAdjust="spacingAndGlyphs" textLength="200" x="1237" y="596.4189">+addInvoice(date, totalPrice, order, client)</text><text fill="#000000" font-family="sans-serif" font-size="11" lengthAdjust="spacingAndGlyphs" textLength="85" x="1237" y="610.2549">+validateInvoice()</text><text fill="#000000" font-family="sans-serif" font-size="11" lengthAdjust="spacingAndGlyphs" textLength="85" x="1237" y="624.0908">+registerInvoice()</text><!--MD5=[4b2d61224b33971326a22fe5d809d926]
class DataHandler--><rect fill="#FEFECE" filter="url(#fpn67vb82dzz2)" height="75.6719" id="DataHandler" style="stroke: #A80036; stroke-width: 1.5;" width="104" x="1523" y="351.5"/><ellipse cx="1538.9" cy="367.5" fill="#ADD1B2" rx="11" ry="11" style="stroke: #A80036; stroke-width: 1.0;"/><path d="M1540.9,364 Q1541.1031,363.5 1541.3375,363.25 Q1541.5719,363 1541.8375,363 Q1542.3063,363 1542.6031,363.2813 Q1542.9,363.5625 1542.9,364.2188 L1542.9,365.7813 Q1542.9,366.4375 1542.6188,366.7188 Q1542.3375,367 1541.9,367 Q1541.5094,367 1541.2594,366.8281 Q1541.0094,366.6563 1540.9,366.2031 Q1540.8531,365.8906 1540.6813,365.7188 Q1540.3688,365.3906 1539.8063,365.2031 Q1539.2438,365 1538.6813,365 Q1537.9781,365 1537.3844,365.2813 Q1536.8063,365.5625 1536.3531,366.1875 Q1535.9,366.8125 1535.9,367.6719 L1535.9,368.5938 Q1535.9,369.625 1536.7438,370.3125 Q1537.5875,371 1539.0875,371 Q1539.9781,371 1540.6031,370.7969 Q1540.9625,370.6875 1541.3688,370.3281 Q1541.6344,370.125 1541.775,370.0625 Q1541.9156,370 1542.0875,370 Q1542.4156,370 1542.65,370.2656 Q1542.9,370.5156 1542.9,370.875 Q1542.9,371.2188 1542.5563,371.625 Q1542.0563,372.2188 1541.2594,372.5469 Q1540.2125,373 1538.9313,373 Q1537.4313,373 1536.2281,372.4063 Q1535.2594,371.9375 1534.5719,370.9219 Q1533.9,369.9063 1533.9,368.7031 L1533.9,367.6094 Q1533.9,366.3594 1534.4938,365.2656 Q1535.1031,364.1719 1536.15,363.5938 Q1537.2125,363 1538.4,363 Q1539.1188,363 1539.7438,363.25 Q1540.3688,363.5 1540.9,364 Z "/><text fill="#000000" font-family="sans-serif" font-size="12" lengthAdjust="spacingAndGlyphs" textLength="70" x="1553.1" y="372.4102">DataHandler</text><line style="stroke: #A80036; stroke-width: 1.5;" x1="1524" x2="1626" y1="383.5" y2="383.5"/><line style="stroke: #A80036; stroke-width: 1.5;" x1="1524" x2="1626" y1="391.5" y2="391.5"/><text fill="#000000" font-family="sans-serif" font-size="11" lengthAdjust="spacingAndGlyphs" textLength="92" x="1529" y="406.9189">+openConnection()</text><text fill="#000000" font-family="sans-serif" font-size="11" lengthAdjust="spacingAndGlyphs" textLength="52" x="1529" y="420.7549">+closeAll()</text><!--MD5=[67d8189a9792620110f434aadc3cc064]
reverse link DataHandler to ClientRegistration--><path d="M1511.64,438.342 C1502.41,443.553 1492.72,448.167 1483,451.5 C1373.8,488.941 1338.72,458.176 1224,471 C1219.12,471.546 1053.36,494.739 1049,497 C1023.12,510.409 1000.734,534.934 985.593,554.693 " fill="none" id="DataHandler&lt;-ClientRegistration" style="stroke: #A80036; stroke-width: 1.0;"/><polygon fill="none" points="1508.06,432.33,1528.75,427.764,1515.42,444.237,1508.06,432.33" style="stroke: #A80036; stroke-width: 1.0;"/><!--MD5=[a0a9f24c5aef5191bf6fd13181b79eb0]
reverse link DataHandler to InvoiceRegistration--><path d="M1514.08,440.283 C1476.05,471.362 1427.54,511.011 1390.91,540.946 " fill="none" id="DataHandler&lt;-InvoiceRegistration" style="stroke: #A80036; stroke-width: 1.0;"/><polygon fill="none" points="1509.76,434.777,1529.67,427.542,1518.62,445.618,1509.76,434.777" style="stroke: #A80036; stroke-width: 1.0;"/><!--MD5=[09bb80ac49ff7f1738cb05fab67061cd]
reverse link DataHandler to OrderRegistration--><path d="M1509.71,438.445 C1501.02,443.419 1491.99,447.944 1483,451.5 C1370.24,496.084 1320.92,439.818 1214,497 C1188.44,510.667 1166.32,535.171 1151.36,554.857 " fill="none" id="DataHandler&lt;-OrderRegistration" style="stroke: #A80036; stroke-width: 1.0;"/><polygon fill="none" points="1506.28,432.338,1526.97,427.774,1513.64,444.246,1506.28,432.338" style="stroke: #A80036; stroke-width: 1.0;"/><!--MD5=[a605f9a646bac91c0f1ec4bed5c60b13]
reverse link User to Client--><path d="M736.801,649.344 C734.912,653.851 733.277,658.425 732,663 C727.751,678.227 727.372,695.13 728.743,710.863 " fill="none" id="User&lt;-Client" style="stroke: #A80036; stroke-width: 1.0;"/><polygon fill="none" points="730.565,646.162,745.727,631.36,743.105,652.387,730.565,646.162" style="stroke: #A80036; stroke-width: 1.0;"/><!--MD5=[5c26898e5f896f066407315f529b2504]
link GenerateInvoiceUI to GenerateInvoiceController--><path d="M272,108.1 C272,129.8 272,162.6 272,187.6 " fill="none" id="GenerateInvoiceUI-&gt;GenerateInvoiceController" style="stroke: #A80036; stroke-width: 1.0; stroke-dasharray: 7.0,7.0;"/><polygon fill="#A80036" points="272,192.81,276,183.81,272,187.81,268,183.81,272,192.81" style="stroke: #A80036; stroke-width: 1.0;"/><!--MD5=[acb2b7a6cedd3b3dcb0de18ad7955d3e]
link GenerateInvoiceController to Platform--><path d="M387.367,255.08 C522.32,290.27 740.276,347.11 842.574,373.786 " fill="none" id="GenerateInvoiceController-&gt;Platform" style="stroke: #A80036; stroke-width: 1.0; stroke-dasharray: 7.0,7.0;"/><polygon fill="#A80036" points="847.655,375.111,839.9552,368.9699,842.8167,373.8496,837.937,376.7112,847.655,375.111" style="stroke: #A80036; stroke-width: 1.0;"/><!--MD5=[30f146cbee39bebfa6a3941b9c623469]
link GenerateInvoiceController to ApplicationPOT--><path d="M292.618,255.37 C310.187,281.25 335.598,318.68 355.004,347.263 " fill="none" id="GenerateInvoiceController-&gt;ApplicationPOT" style="stroke: #A80036; stroke-width: 1.0; stroke-dasharray: 7.0,7.0;"/><polygon fill="#A80036" points="357.822,351.414,356.0764,341.7211,355.0137,347.2772,349.4575,346.2144,357.822,351.414" style="stroke: #A80036; stroke-width: 1.0;"/><!--MD5=[cfec298ada7ecd923a2f1ea10aa38a77]
link GenerateInvoiceController to UserSession--><path d="M264.57,255.37 C257.778,283.13 247.734,324.186 240.598,353.355 " fill="none" id="GenerateInvoiceController-&gt;UserSession" style="stroke: #A80036; stroke-width: 1.0; stroke-dasharray: 7.0,7.0;"/><polygon fill="#A80036" points="239.39,358.293,245.4151,350.5021,240.5788,353.4364,237.6445,348.6,239.39,358.293" style="stroke: #A80036; stroke-width: 1.0;"/><!--MD5=[a11b4989068d0b492dc06e46ace33666]
link Platform to ClientRegistration--><path d="M916.168,441.095 C927.806,475.391 942.887,519.833 953.191,550.198 " fill="none" id="Platform-&gt;ClientRegistration" style="stroke: #A80036; stroke-width: 1.0;"/><polygon fill="#A80036" points="954.802,554.947,955.6993,545.1391,953.196,550.2119,948.1232,547.7087,954.802,554.947" style="stroke: #A80036; stroke-width: 1.0;"/><text fill="#000000" font-family="sans-serif" font-size="13" lengthAdjust="spacingAndGlyphs" textLength="21" x="933" y="485.4951">has</text><text fill="#000000" font-family="sans-serif" font-size="13" lengthAdjust="spacingAndGlyphs" textLength="7" x="911.0901" y="462.9712">1</text><text fill="#000000" font-family="sans-serif" font-size="13" lengthAdjust="spacingAndGlyphs" textLength="7" x="944.8056" y="543.9557">1</text><!--MD5=[1b44e781401e6343839c91502872bf28]
link Platform to OrderRegistration--><path d="M942.05,441.015 C959.794,458.794 981.663,477.253 1005,489 C1022.36,497.74 1030.93,487.693 1048,497 C1071.65,509.901 1092.45,531.973 1107.3,550.784 " fill="none" id="Platform-&gt;OrderRegistration" style="stroke: #A80036; stroke-width: 1.0;"/><polygon fill="#A80036" points="1110.57,554.99,1108.218,545.4261,1107.5069,551.0381,1101.8949,550.327,1110.57,554.99" style="stroke: #A80036; stroke-width: 1.0;"/><text fill="#000000" font-family="sans-serif" font-size="13" lengthAdjust="spacingAndGlyphs" textLength="21" x="1006" y="485.4951">has</text><text fill="#000000" font-family="sans-serif" font-size="13" lengthAdjust="spacingAndGlyphs" textLength="7" x="940.6117" y="462.88">1</text><text fill="#000000" font-family="sans-serif" font-size="13" lengthAdjust="spacingAndGlyphs" textLength="7" x="1098.3353" y="544.0081">1</text><!--MD5=[38814379a58ed40e2a5e872028e81d87]
link Platform to InvoiceRegistration--><path d="M950.224,402.821 C1014.14,419.304 1125.76,451.786 1214,497 C1236.05,508.299 1258.56,523.225 1278.19,537.568 " fill="none" id="Platform-&gt;InvoiceRegistration" style="stroke: #A80036; stroke-width: 1.0;"/><polygon fill="#A80036" points="1282.59,540.811,1277.7046,532.2592,1278.5603,537.851,1272.9686,538.7067,1282.59,540.811" style="stroke: #A80036; stroke-width: 1.0;"/><text fill="#000000" font-family="sans-serif" font-size="13" lengthAdjust="spacingAndGlyphs" textLength="21" x="1190" y="485.4951">has</text><text fill="#000000" font-family="sans-serif" font-size="13" lengthAdjust="spacingAndGlyphs" textLength="7" x="957.9196" y="401.0649">1</text><text fill="#000000" font-family="sans-serif" font-size="13" lengthAdjust="spacingAndGlyphs" textLength="7" x="1266.7225" y="530.2262">1</text><!--MD5=[b397f3671494b735fa996c3471f458db]
link ClientRegistration to Client--><path d="M942.876,617.223 C930.745,631.323 914.432,646.779 896,655 C869.364,666.88 787.231,644.121 765,663 C752.349,673.744 745.572,689.639 742.121,705.85 " fill="none" id="ClientRegistration-&gt;Client" style="stroke: #A80036; stroke-width: 1.0;"/><polygon fill="#A80036" points="741.154,710.886,746.7795,702.8018,742.0969,705.9757,738.923,701.2932,741.154,710.886" style="stroke: #A80036; stroke-width: 1.0;"/><text fill="#000000" font-family="sans-serif" font-size="13" lengthAdjust="spacingAndGlyphs" textLength="53" x="766" y="677.4951">manages</text><text fill="#000000" font-family="sans-serif" font-size="13" lengthAdjust="spacingAndGlyphs" textLength="7" x="930.9914" y="638.2441">1</text><text fill="#000000" font-family="sans-serif" font-size="13" lengthAdjust="spacingAndGlyphs" textLength="5" x="735.8681" y="700.273">*</text><!--MD5=[cae5fa790faafbad147b0b7281c932b5]
link InvoiceRegistration to Invoice--><path d="M1282.98,631.168 C1246.59,660.913 1199.01,699.819 1163.77,728.624 " fill="none" id="InvoiceRegistration-&gt;Invoice" style="stroke: #A80036; stroke-width: 1.0;"/><polygon fill="#A80036" points="1159.54,732.085,1169.037,729.476,1163.4079,728.9165,1163.9674,723.2874,1159.54,732.085" style="stroke: #A80036; stroke-width: 1.0;"/><text fill="#000000" font-family="sans-serif" font-size="13" lengthAdjust="spacingAndGlyphs" textLength="53" x="1240" y="677.4951">manages</text><text fill="#000000" font-family="sans-serif" font-size="13" lengthAdjust="spacingAndGlyphs" textLength="7" x="1268.2508" y="651.8643">1</text><text fill="#000000" font-family="sans-serif" font-size="13" lengthAdjust="spacingAndGlyphs" textLength="5" x="1167.625" y="721.8328">*</text><!--MD5=[6ac8005c0de3a3c9973530d8c311fc29]
link OrderRegistration to Order--><path d="M1094.66,617.259 C1060.16,646.607 1011.61,689.726 998,711 C960.802,769.143 937.547,844.134 924.017,900.882 " fill="none" id="OrderRegistration-&gt;Order" style="stroke: #A80036; stroke-width: 1.0;"/><polygon fill="#A80036" points="922.819,905.969,928.777,898.1266,923.966,901.1023,920.9903,896.2914,922.819,905.969" style="stroke: #A80036; stroke-width: 1.0;"/><text fill="#000000" font-family="sans-serif" font-size="13" lengthAdjust="spacingAndGlyphs" textLength="53" x="999" y="774.9951">manages</text><text fill="#000000" font-family="sans-serif" font-size="13" lengthAdjust="spacingAndGlyphs" textLength="7" x="1080.0655" y="638.287">1</text><text fill="#000000" font-family="sans-serif" font-size="13" lengthAdjust="spacingAndGlyphs" textLength="5" x="918.9932" y="895.153">*</text><!--MD5=[6f4f5a959b7eecf0b4982552d890dec0]
link Platform to Client--><path d="M847.745,392.964 C781.253,399.239 667.564,421.15 615,497 C575.002,554.717 586.445,590.846 615,655 C628.229,684.722 653.513,709.932 677.981,728.987 " fill="none" id="Platform-Client" style="stroke: #A80036; stroke-width: 1.0;"/><text fill="#000000" font-family="sans-serif" font-size="13" lengthAdjust="spacingAndGlyphs" textLength="82" x="616" y="591.4951">has registered</text><polygon fill="#000000" points="652.5,600.3516,655.5,606.3516,658.5,600.3516,652.5,600.3516" style="stroke: #000000; stroke-width: 1.0;"/><text fill="#000000" font-family="sans-serif" font-size="13" lengthAdjust="spacingAndGlyphs" textLength="7" x="833.0451" y="389.8218">1</text><text fill="#000000" font-family="sans-serif" font-size="13" lengthAdjust="spacingAndGlyphs" textLength="5" x="664.9959" y="720.5801">*</text><!--MD5=[46120166855af3d867105a26a4c9094b]
link Platform to Order--><path d="M889.799,441.247 C887.03,458.838 884.365,478.728 883,497 C872.237,641.092 886.9,809.492 897.895,905.906 " fill="none" id="Platform-Order" style="stroke: #A80036; stroke-width: 1.0;"/><text fill="#000000" font-family="sans-serif" font-size="13" lengthAdjust="spacingAndGlyphs" textLength="82" x="881" y="677.4951">has registered</text><polygon fill="#000000" points="917.5,686.3516,920.5,692.3516,923.5,686.3516,917.5,686.3516" style="stroke: #000000; stroke-width: 1.0;"/><text fill="#000000" font-family="sans-serif" font-size="13" lengthAdjust="spacingAndGlyphs" textLength="7" x="881.0923" y="462.7711">1</text><text fill="#000000" font-family="sans-serif" font-size="13" lengthAdjust="spacingAndGlyphs" textLength="5" x="891.6936" y="895.084">*</text><!--MD5=[5df16df72a49edaa4f00919f1e597f76]
link Order to Product--><path d="M934.952,1065.284 C945.256,1095.403 956.805,1129.16 966.307,1156.937 " fill="none" id="Order-Product" style="stroke: #A80036; stroke-width: 1.0;"/><text fill="#000000" font-family="sans-serif" font-size="13" lengthAdjust="spacingAndGlyphs" textLength="21" x="950" y="1109.4951">has</text><polygon fill="#000000" points="956,1118.3516,959,1124.3516,962,1118.3516,956,1118.3516" style="stroke: #000000; stroke-width: 1.0;"/><text fill="#000000" font-family="sans-serif" font-size="13" lengthAdjust="spacingAndGlyphs" textLength="7" x="929.8941" y="1086.0762">1</text><text fill="#000000" font-family="sans-serif" font-size="13" lengthAdjust="spacingAndGlyphs" textLength="5" x="958.6022" y="1146.3302">*</text><!--MD5=[879bec428a80d843af24dc47845bf14c]
link Client to Order--><path d="M769.505,828.127 C778.427,844.187 788.875,861.259 800,876 C807.605,886.077 816.106,896.15 824.909,905.873 " fill="none" id="Client-Order" style="stroke: #A80036; stroke-width: 1.0;"/><text fill="#000000" font-family="sans-serif" font-size="13" lengthAdjust="spacingAndGlyphs" textLength="39" x="801" y="872.4951">makes</text><polygon fill="#000000" points="816,881.3516,819,887.3516,822,881.3516,816,881.3516" style="stroke: #000000; stroke-width: 1.0;"/><text fill="#000000" font-family="sans-serif" font-size="13" lengthAdjust="spacingAndGlyphs" textLength="7" x="765.5525" y="849.7528">1</text><text fill="#000000" font-family="sans-serif" font-size="13" lengthAdjust="spacingAndGlyphs" textLength="7" x="809.6558" y="895.0478">1</text><!--MD5=[bd708f2371c655af07b49ddbdb30848a]
link Client to Address--><path d="M741.757,828.063 C743.185,887.632 747.283,983.237 759,1065 C762.663,1090.558 768.431,1118.212 774.183,1142.703 " fill="none" id="Client-Address" style="stroke: #A80036; stroke-width: 1.0;"/><text fill="#000000" font-family="sans-serif" font-size="13" lengthAdjust="spacingAndGlyphs" textLength="21" x="760" y="990.9951">has</text><polygon fill="#000000" points="766,999.8516,769,1005.8516,772,999.8516,766,999.8516" style="stroke: #000000; stroke-width: 1.0;"/><text fill="#000000" font-family="sans-serif" font-size="13" lengthAdjust="spacingAndGlyphs" textLength="7" x="734.4227" y="849.681">1</text><text fill="#000000" font-family="sans-serif" font-size="13" lengthAdjust="spacingAndGlyphs" textLength="7" x="764.9862" y="1132.2693">1</text><!--MD5=[dd2bca8e69277b6dcf04d6bf8fed5dca]
link Order to Address--><path d="M868.262,1065.284 C855.538,1090.512 841.526,1118.292 829.077,1142.973 " fill="none" id="Order-Address" style="stroke: #A80036; stroke-width: 1.0;"/><text fill="#000000" font-family="sans-serif" font-size="13" lengthAdjust="spacingAndGlyphs" textLength="21" x="852" y="1109.4951">has</text><polygon fill="#000000" points="858,1118.3516,861,1124.3516,864,1118.3516,858,1118.3516" style="stroke: #000000; stroke-width: 1.0;"/><text fill="#000000" font-family="sans-serif" font-size="13" lengthAdjust="spacingAndGlyphs" textLength="7" x="857.6814" y="1086.0762">1</text><text fill="#000000" font-family="sans-serif" font-size="13" lengthAdjust="spacingAndGlyphs" textLength="7" x="825.4365" y="1132.1896">1</text><!--MD5=[4f0092e2f5693c7657a2634bfbc15acf]
link Invoice to Order--><path d="M1078.06,807.861 C1062.82,823.331 1045.01,841.485 1029,858 C1014.09,873.382 998.209,889.886 983.031,905.727 " fill="none" id="Invoice-Order" style="stroke: #A80036; stroke-width: 1.0;"/><text fill="#000000" font-family="sans-serif" font-size="13" lengthAdjust="spacingAndGlyphs" textLength="21" x="1030" y="872.4951">has</text><polygon fill="#000000" points="1036,881.3516,1039,887.3516,1042,881.3516,1036,881.3516" style="stroke: #000000; stroke-width: 1.0;"/><text fill="#000000" font-family="sans-serif" font-size="13" lengthAdjust="spacingAndGlyphs" textLength="7" x="1064.6149" y="828.7991">1</text><text fill="#000000" font-family="sans-serif" font-size="13" lengthAdjust="spacingAndGlyphs" textLength="7" x="982.6253" y="895.1612">1</text><!--MD5=[72e744b1f7ec345412f1ea79f30940ed]
link Invoice to Product--><path d="M1104.22,807.592 C1081.73,885.019 1029.64,1064.313 1002.74,1156.884 " fill="none" id="Invoice-Product" style="stroke: #A80036; stroke-width: 1.0;"/><text fill="#000000" font-family="sans-serif" font-size="13" lengthAdjust="spacingAndGlyphs" textLength="21" x="1074" y="990.9951">has</text><polygon fill="#000000" points="1080,999.8516,1083,1005.8516,1086,999.8516,1080,999.8516" style="stroke: #000000; stroke-width: 1.0;"/><text fill="#000000" font-family="sans-serif" font-size="13" lengthAdjust="spacingAndGlyphs" textLength="7" x="1094.8549" y="828.7774">1</text><text fill="#000000" font-family="sans-serif" font-size="13" lengthAdjust="spacingAndGlyphs" textLength="5" x="999.4755" y="1146.2708">*</text><!--MD5=[02c3880b26c7eaf602597a8933cd7cde]
link Invoice to CreditCard--><path d="M1130.5,807.776 C1145.84,844.659 1169.32,901.12 1185.6,940.256 " fill="none" id="Invoice-CreditCard" style="stroke: #A80036; stroke-width: 1.0;"/><text fill="#000000" font-family="sans-serif" font-size="13" lengthAdjust="spacingAndGlyphs" textLength="84" x="1157" y="872.4951">is payed using</text><polygon fill="#000000" points="1194.5,881.3516,1197.5,887.3516,1200.5,881.3516,1194.5,881.3516" style="stroke: #000000; stroke-width: 1.0;"/><text fill="#000000" font-family="sans-serif" font-size="13" lengthAdjust="spacingAndGlyphs" textLength="7" x="1125.4125" y="828.7005">1</text><text fill="#000000" font-family="sans-serif" font-size="13" lengthAdjust="spacingAndGlyphs" textLength="5" x="1177.3997" y="929.6627">*</text><!--MD5=[0a8717af944a71a5c0002ed588f5689a]
@startuml
skinparam classAttributeIconSize 0

package "UI" #DDDDDD {
class GenerateInvoiceUI{

}
}


package "Controller" #DDDDDD {
class GenerateInvoiceController{
+registerNewUser(name,email,password,address,gpsLocation,creditCardNr,validityDate,CCV)
}

class ApplicationPOT
{
  +static getInstance()
  +getPlatform()
}

class UserSession
{
  +getCurrentSession()
}
}


package "Model" #DDDDDD {
class Platform {
  -String designation
  +getClientReg()
  +getProductReg()
  +getOrderReg()
}
package "Registration" #DDDDDD {
 class ClientRegistration{
     +getUserByEmail(email)
 }

  class OrderRegistration{
       +getLatestOrder()
   }
   
   class InvoiceRegistration{
          +addInvoice(date, totalPrice, order, client)
          +validateInvoice()
          +registerInvoice()
      }
 }
}

package "Model" #DDDDDD {
abstract class User{
-String email
-String password
-String name
}

class Client{
-int IBAN;
-long creditCardNumber
-Address address
-int validityDate
-int CCV
}

class Address{
-   String streetName
-   String doorNumber
-   String postalCode
-   String locality
-   String country
-   float longitude
-   float latitude
}

class Order{
-   int id
-   float amount
-   float totalWeight
-   float additionalFee
-   Date orderDate
-   String description
-   String status
+create(date, totalPrice, order, client)
}

class Product{
-   int id
-   String name
-   String description
-   float unitaryPrice
-   float unitaryWeight
}

class Invoice{
-   Date orderDate
-   float amount
}

class CreditCard{
-   int creditCardNumber
-   Date validatyDate
-   int CCV
}

}


package "Data" #DDDDDD {
class DataHandler{
    +openConnection()
    +closeAll()
}
}

class ClientRegistration extends DataHandler
class InvoiceRegistration extends DataHandler
class OrderRegistration extends DataHandler

class Client extends User

GenerateInvoiceUI ..> GenerateInvoiceController
GenerateInvoiceController ..> Platform
GenerateInvoiceController ..> ApplicationPOT
GenerateInvoiceController ..> UserSession
Platform "1" - -> "1" ClientRegistration : has
Platform "1" - -> "1" OrderRegistration : has
Platform "1" - -> "1" InvoiceRegistration : has
ClientRegistration "1" - -> "*" Client : manages
InvoiceRegistration "1" - -> "*" Invoice : manages
OrderRegistration "1" - -> "*" Order : manages

Platform "1" - - "*" Client : has registered >
Platform "1" - - "*" Order : has registered >
Order "1" - - "*" Product : has >
Client "1" - - "1" Order : makes >
Client "1" - - "1" Address : has >
Order "1" - - "1" Address : has >
Invoice "1" - - "1" Order : has >
Invoice "1" - - "*" Product : has >
Invoice "1" - - "*" CreditCard : is payed using >

@enduml

PlantUML version 1.2020.09(Sun May 10 11:51:06 BST 2020)
(GPL source distribution)
Java Runtime: OpenJDK Runtime Environment
JVM: OpenJDK 64-Bit Server VM
Java Version: 11.0.6+8-b520.66
Operating System: Windows 10
Default Encoding: Cp1252
Language: pt
Country: PT
--></g></svg>