<?xml version="1.0" encoding="UTF-8" standalone="no"?><svg xmlns="http://www.w3.org/2000/svg" xmlns:xlink="http://www.w3.org/1999/xlink" contentScriptType="application/ecmascript" contentStyleType="text/css" height="566px" preserveAspectRatio="none" style="width:880px;height:566px;" version="1.1" viewBox="0 0 880 566" width="880px" zoomAndPan="magnify"><defs><filter height="300%" id="fu3b9sz08zkx0" width="300%" x="-1" y="-1"><feGaussianBlur result="blurOut" stdDeviation="2.0"/><feColorMatrix in="blurOut" result="blurOut2" type="matrix" values="0 0 0 0 0 0 0 0 0 0 0 0 0 0 0 0 0 0 .4 0"/><feOffset dx="4.0" dy="4.0" in="blurOut2" result="blurOut3"/><feBlend in="SourceGraphic" in2="blurOut3" mode="normal"/></filter></defs><g><!--MD5=[99b8db98afdc2c8404e39242ef4c1e65]
class Platform--><rect fill="#FEFECE" filter="url(#fu3b9sz08zkx0)" height="53.8359" id="Platform" style="stroke: #A80036; stroke-width: 1.5;" width="102" x="6" y="202"/><ellipse cx="31.8" cy="218" fill="#ADD1B2" rx="11" ry="11" style="stroke: #A80036; stroke-width: 1.0;"/><path d="M33.8,214.5 Q34.0031,214 34.2375,213.75 Q34.4719,213.5 34.7375,213.5 Q35.2063,213.5 35.5031,213.7813 Q35.8,214.0625 35.8,214.7188 L35.8,216.2813 Q35.8,216.9375 35.5188,217.2188 Q35.2375,217.5 34.8,217.5 Q34.4094,217.5 34.1594,217.3281 Q33.9094,217.1563 33.8,216.7031 Q33.7531,216.3906 33.5813,216.2188 Q33.2688,215.8906 32.7063,215.7031 Q32.1438,215.5 31.5813,215.5 Q30.8781,215.5 30.2844,215.7813 Q29.7063,216.0625 29.2531,216.6875 Q28.8,217.3125 28.8,218.1719 L28.8,219.0938 Q28.8,220.125 29.6438,220.8125 Q30.4875,221.5 31.9875,221.5 Q32.8781,221.5 33.5031,221.2969 Q33.8625,221.1875 34.2688,220.8281 Q34.5344,220.625 34.675,220.5625 Q34.8156,220.5 34.9875,220.5 Q35.3156,220.5 35.55,220.7656 Q35.8,221.0156 35.8,221.375 Q35.8,221.7188 35.4563,222.125 Q34.9563,222.7188 34.1594,223.0469 Q33.1125,223.5 31.8313,223.5 Q30.3313,223.5 29.1281,222.9063 Q28.1594,222.4375 27.4719,221.4219 Q26.8,220.4063 26.8,219.2031 L26.8,218.1094 Q26.8,216.8594 27.3938,215.7656 Q28.0031,214.6719 29.05,214.0938 Q30.1125,213.5 31.3,213.5 Q32.0188,213.5 32.6438,213.75 Q33.2688,214 33.8,214.5 Z "/><text fill="#000000" font-family="sans-serif" font-size="12" lengthAdjust="spacingAndGlyphs" textLength="46" x="48.2" y="222.9102">Platform</text><line style="stroke: #A80036; stroke-width: 1.5;" x1="7" x2="107" y1="234" y2="234"/><text fill="#000000" font-family="sans-serif" font-size="11" lengthAdjust="spacingAndGlyphs" textLength="90" x="12" y="249.4189">-String designation</text><!--MD5=[ed6624c6556d5e7b1bd23032162d20b7]
class Client--><rect fill="#FEFECE" filter="url(#fu3b9sz08zkx0)" height="95.3438" id="Client" style="stroke: #A80036; stroke-width: 1.5;" width="126" x="265" y="105.5"/><ellipse cx="307.9" cy="121.5" fill="#ADD1B2" rx="11" ry="11" style="stroke: #A80036; stroke-width: 1.0;"/><path d="M309.9,118 Q310.1031,117.5 310.3375,117.25 Q310.5719,117 310.8375,117 Q311.3063,117 311.6031,117.2813 Q311.9,117.5625 311.9,118.2188 L311.9,119.7813 Q311.9,120.4375 311.6188,120.7188 Q311.3375,121 310.9,121 Q310.5094,121 310.2594,120.8281 Q310.0094,120.6563 309.9,120.2031 Q309.8531,119.8906 309.6813,119.7188 Q309.3688,119.3906 308.8063,119.2031 Q308.2438,119 307.6813,119 Q306.9781,119 306.3844,119.2813 Q305.8063,119.5625 305.3531,120.1875 Q304.9,120.8125 304.9,121.6719 L304.9,122.5938 Q304.9,123.625 305.7438,124.3125 Q306.5875,125 308.0875,125 Q308.9781,125 309.6031,124.7969 Q309.9625,124.6875 310.3688,124.3281 Q310.6344,124.125 310.775,124.0625 Q310.9156,124 311.0875,124 Q311.4156,124 311.65,124.2656 Q311.9,124.5156 311.9,124.875 Q311.9,125.2188 311.5563,125.625 Q311.0563,126.2188 310.2594,126.5469 Q309.2125,127 307.9313,127 Q306.4313,127 305.2281,126.4063 Q304.2594,125.9375 303.5719,124.9219 Q302.9,123.9063 302.9,122.7031 L302.9,121.6094 Q302.9,120.3594 303.4938,119.2656 Q304.1031,118.1719 305.15,117.5938 Q306.2125,117 307.4,117 Q308.1188,117 308.7438,117.25 Q309.3688,117.5 309.9,118 Z "/><text fill="#000000" font-family="sans-serif" font-size="12" lengthAdjust="spacingAndGlyphs" textLength="32" x="328.1" y="126.4102">Client</text><line style="stroke: #A80036; stroke-width: 1.5;" x1="266" x2="390" y1="137.5" y2="137.5"/><text fill="#000000" font-family="sans-serif" font-size="11" lengthAdjust="spacingAndGlyphs" textLength="42" x="271" y="152.9189">-int IBAN</text><text fill="#000000" font-family="sans-serif" font-size="11" lengthAdjust="spacingAndGlyphs" textLength="114" x="271" y="166.7549">-long creditCardNumber</text><text fill="#000000" font-family="sans-serif" font-size="11" lengthAdjust="spacingAndGlyphs" textLength="73" x="271" y="180.5908">-int validityDate</text><text fill="#000000" font-family="sans-serif" font-size="11" lengthAdjust="spacingAndGlyphs" textLength="40" x="271" y="194.4268">-int CCV</text><!--MD5=[3fd616f346a44cd59a91eb10b19e157c]
class User--><rect fill="#FEFECE" filter="url(#fu3b9sz08zkx0)" height="81.5078" id="User" style="stroke: #A80036; stroke-width: 1.5;" width="97" x="560" y="8"/><ellipse cx="592.1" cy="24" fill="#ADD1B2" rx="11" ry="11" style="stroke: #A80036; stroke-width: 1.0;"/><path d="M594.1,20.5 Q594.3031,20 594.5375,19.75 Q594.7719,19.5 595.0375,19.5 Q595.5063,19.5 595.8031,19.7813 Q596.1,20.0625 596.1,20.7188 L596.1,22.2813 Q596.1,22.9375 595.8188,23.2188 Q595.5375,23.5 595.1,23.5 Q594.7094,23.5 594.4594,23.3281 Q594.2094,23.1563 594.1,22.7031 Q594.0531,22.3906 593.8813,22.2188 Q593.5688,21.8906 593.0063,21.7031 Q592.4438,21.5 591.8813,21.5 Q591.1781,21.5 590.5844,21.7813 Q590.0063,22.0625 589.5531,22.6875 Q589.1,23.3125 589.1,24.1719 L589.1,25.0938 Q589.1,26.125 589.9438,26.8125 Q590.7875,27.5 592.2875,27.5 Q593.1781,27.5 593.8031,27.2969 Q594.1625,27.1875 594.5688,26.8281 Q594.8344,26.625 594.975,26.5625 Q595.1156,26.5 595.2875,26.5 Q595.6156,26.5 595.85,26.7656 Q596.1,27.0156 596.1,27.375 Q596.1,27.7188 595.7563,28.125 Q595.2563,28.7188 594.4594,29.0469 Q593.4125,29.5 592.1313,29.5 Q590.6313,29.5 589.4281,28.9063 Q588.4594,28.4375 587.7719,27.4219 Q587.1,26.4063 587.1,25.2031 L587.1,24.1094 Q587.1,22.8594 587.6938,21.7656 Q588.3031,20.6719 589.35,20.0938 Q590.4125,19.5 591.6,19.5 Q592.3188,19.5 592.9438,19.75 Q593.5688,20 594.1,20.5 Z "/><text fill="#000000" font-family="sans-serif" font-size="12" lengthAdjust="spacingAndGlyphs" textLength="27" x="609.9" y="28.9102">User</text><line style="stroke: #A80036; stroke-width: 1.5;" x1="561" x2="656" y1="40" y2="40"/><text fill="#000000" font-family="sans-serif" font-size="11" lengthAdjust="spacingAndGlyphs" textLength="61" x="566" y="55.4189">-String name</text><text fill="#000000" font-family="sans-serif" font-size="11" lengthAdjust="spacingAndGlyphs" textLength="59" x="566" y="69.2549">-String email</text><text fill="#000000" font-family="sans-serif" font-size="11" lengthAdjust="spacingAndGlyphs" textLength="85" x="566" y="83.0908">-String password</text><!--MD5=[0f39e4cb6f03951afbf6d14bd2505654]
class Address--><rect fill="#FEFECE" filter="url(#fu3b9sz08zkx0)" height="136.8516" id="Address" style="stroke: #A80036; stroke-width: 1.5;" width="106" x="763" y="106.5"/><ellipse cx="790.6" cy="122.5" fill="#ADD1B2" rx="11" ry="11" style="stroke: #A80036; stroke-width: 1.0;"/><path d="M792.6,119 Q792.8031,118.5 793.0375,118.25 Q793.2719,118 793.5375,118 Q794.0063,118 794.3031,118.2813 Q794.6,118.5625 794.6,119.2188 L794.6,120.7813 Q794.6,121.4375 794.3188,121.7188 Q794.0375,122 793.6,122 Q793.2094,122 792.9594,121.8281 Q792.7094,121.6563 792.6,121.2031 Q792.5531,120.8906 792.3813,120.7188 Q792.0688,120.3906 791.5063,120.2031 Q790.9438,120 790.3813,120 Q789.6781,120 789.0844,120.2813 Q788.5063,120.5625 788.0531,121.1875 Q787.6,121.8125 787.6,122.6719 L787.6,123.5938 Q787.6,124.625 788.4438,125.3125 Q789.2875,126 790.7875,126 Q791.6781,126 792.3031,125.7969 Q792.6625,125.6875 793.0688,125.3281 Q793.3344,125.125 793.475,125.0625 Q793.6156,125 793.7875,125 Q794.1156,125 794.35,125.2656 Q794.6,125.5156 794.6,125.875 Q794.6,126.2188 794.2563,126.625 Q793.7563,127.2188 792.9594,127.5469 Q791.9125,128 790.6313,128 Q789.1313,128 787.9281,127.4063 Q786.9594,126.9375 786.2719,125.9219 Q785.6,124.9063 785.6,123.7031 L785.6,122.6094 Q785.6,121.3594 786.1938,120.2656 Q786.8031,119.1719 787.85,118.5938 Q788.9125,118 790.1,118 Q790.8188,118 791.4438,118.25 Q792.0688,118.5 792.6,119 Z "/><text fill="#000000" font-family="sans-serif" font-size="12" lengthAdjust="spacingAndGlyphs" textLength="46" x="807.4" y="127.4102">Address</text><line style="stroke: #A80036; stroke-width: 1.5;" x1="764" x2="868" y1="138.5" y2="138.5"/><text fill="#000000" font-family="sans-serif" font-size="11" lengthAdjust="spacingAndGlyphs" textLength="90" x="769" y="153.9189">-String streetName</text><text fill="#000000" font-family="sans-serif" font-size="11" lengthAdjust="spacingAndGlyphs" textLength="94" x="769" y="167.7549">-String doorNumber</text><text fill="#000000" font-family="sans-serif" font-size="11" lengthAdjust="spacingAndGlyphs" textLength="89" x="769" y="181.5908">-String postalCode</text><text fill="#000000" font-family="sans-serif" font-size="11" lengthAdjust="spacingAndGlyphs" textLength="68" x="769" y="195.4268">-String locality</text><text fill="#000000" font-family="sans-serif" font-size="11" lengthAdjust="spacingAndGlyphs" textLength="72" x="769" y="209.2627">-String country</text><text fill="#000000" font-family="sans-serif" font-size="11" lengthAdjust="spacingAndGlyphs" textLength="71" x="769" y="223.0986">-float longitude</text><text fill="#000000" font-family="sans-serif" font-size="11" lengthAdjust="spacingAndGlyphs" textLength="62" x="769" y="236.9346">-float latitude</text><!--MD5=[cf4d6237fcae255cd2e1656cf84a30e2]
class Order--><rect fill="#FEFECE" filter="url(#fu3b9sz08zkx0)" height="136.8516" id="Order" style="stroke: #A80036; stroke-width: 1.5;" width="103" x="557" y="213.5"/><ellipse cx="590" cy="229.5" fill="#ADD1B2" rx="11" ry="11" style="stroke: #A80036; stroke-width: 1.0;"/><path d="M592,226 Q592.2031,225.5 592.4375,225.25 Q592.6719,225 592.9375,225 Q593.4063,225 593.7031,225.2813 Q594,225.5625 594,226.2188 L594,227.7813 Q594,228.4375 593.7188,228.7188 Q593.4375,229 593,229 Q592.6094,229 592.3594,228.8281 Q592.1094,228.6563 592,228.2031 Q591.9531,227.8906 591.7813,227.7188 Q591.4688,227.3906 590.9063,227.2031 Q590.3438,227 589.7813,227 Q589.0781,227 588.4844,227.2813 Q587.9063,227.5625 587.4531,228.1875 Q587,228.8125 587,229.6719 L587,230.5938 Q587,231.625 587.8438,232.3125 Q588.6875,233 590.1875,233 Q591.0781,233 591.7031,232.7969 Q592.0625,232.6875 592.4688,232.3281 Q592.7344,232.125 592.875,232.0625 Q593.0156,232 593.1875,232 Q593.5156,232 593.75,232.2656 Q594,232.5156 594,232.875 Q594,233.2188 593.6563,233.625 Q593.1563,234.2188 592.3594,234.5469 Q591.3125,235 590.0313,235 Q588.5313,235 587.3281,234.4063 Q586.3594,233.9375 585.6719,232.9219 Q585,231.9063 585,230.7031 L585,229.6094 Q585,228.3594 585.5938,227.2656 Q586.2031,226.1719 587.25,225.5938 Q588.3125,225 589.5,225 Q590.2188,225 590.8438,225.25 Q591.4688,225.5 592,226 Z "/><text fill="#000000" font-family="sans-serif" font-size="12" lengthAdjust="spacingAndGlyphs" textLength="31" x="608" y="234.4102">Order</text><line style="stroke: #A80036; stroke-width: 1.5;" x1="558" x2="659" y1="245.5" y2="245.5"/><text fill="#000000" font-family="sans-serif" font-size="11" lengthAdjust="spacingAndGlyphs" textLength="26" x="563" y="260.9189">-int id</text><text fill="#000000" font-family="sans-serif" font-size="11" lengthAdjust="spacingAndGlyphs" textLength="63" x="563" y="274.7549">-float amount</text><text fill="#000000" font-family="sans-serif" font-size="11" lengthAdjust="spacingAndGlyphs" textLength="81" x="563" y="288.5908">-float totalWeight</text><text fill="#000000" font-family="sans-serif" font-size="11" lengthAdjust="spacingAndGlyphs" textLength="91" x="563" y="302.4268">-float additionalFee</text><text fill="#000000" font-family="sans-serif" font-size="11" lengthAdjust="spacingAndGlyphs" textLength="77" x="563" y="316.2627">-Date orderDate</text><text fill="#000000" font-family="sans-serif" font-size="11" lengthAdjust="spacingAndGlyphs" textLength="88" x="563" y="330.0986">-String description</text><text fill="#000000" font-family="sans-serif" font-size="11" lengthAdjust="spacingAndGlyphs" textLength="65" x="563" y="343.9346">-String status</text><!--MD5=[72136138052d025cffdce3c22fbd185f]
class Product--><rect fill="#FEFECE" filter="url(#fu3b9sz08zkx0)" height="109.1797" id="Product" style="stroke: #A80036; stroke-width: 1.5;" width="106" x="763" y="310.5"/><ellipse cx="792.4" cy="326.5" fill="#ADD1B2" rx="11" ry="11" style="stroke: #A80036; stroke-width: 1.0;"/><path d="M794.4,323 Q794.6031,322.5 794.8375,322.25 Q795.0719,322 795.3375,322 Q795.8063,322 796.1031,322.2813 Q796.4,322.5625 796.4,323.2188 L796.4,324.7813 Q796.4,325.4375 796.1188,325.7188 Q795.8375,326 795.4,326 Q795.0094,326 794.7594,325.8281 Q794.5094,325.6563 794.4,325.2031 Q794.3531,324.8906 794.1813,324.7188 Q793.8688,324.3906 793.3063,324.2031 Q792.7438,324 792.1813,324 Q791.4781,324 790.8844,324.2813 Q790.3063,324.5625 789.8531,325.1875 Q789.4,325.8125 789.4,326.6719 L789.4,327.5938 Q789.4,328.625 790.2438,329.3125 Q791.0875,330 792.5875,330 Q793.4781,330 794.1031,329.7969 Q794.4625,329.6875 794.8688,329.3281 Q795.1344,329.125 795.275,329.0625 Q795.4156,329 795.5875,329 Q795.9156,329 796.15,329.2656 Q796.4,329.5156 796.4,329.875 Q796.4,330.2188 796.0563,330.625 Q795.5563,331.2188 794.7594,331.5469 Q793.7125,332 792.4313,332 Q790.9313,332 789.7281,331.4063 Q788.7594,330.9375 788.0719,329.9219 Q787.4,328.9063 787.4,327.7031 L787.4,326.6094 Q787.4,325.3594 787.9938,324.2656 Q788.6031,323.1719 789.65,322.5938 Q790.7125,322 791.9,322 Q792.6188,322 793.2438,322.25 Q793.8688,322.5 794.4,323 Z "/><text fill="#000000" font-family="sans-serif" font-size="12" lengthAdjust="spacingAndGlyphs" textLength="42" x="809.6" y="331.4102">Product</text><line style="stroke: #A80036; stroke-width: 1.5;" x1="764" x2="868" y1="342.5" y2="342.5"/><text fill="#000000" font-family="sans-serif" font-size="11" lengthAdjust="spacingAndGlyphs" textLength="26" x="769" y="357.9189">-int id</text><text fill="#000000" font-family="sans-serif" font-size="11" lengthAdjust="spacingAndGlyphs" textLength="61" x="769" y="371.7549">-String name</text><text fill="#000000" font-family="sans-serif" font-size="11" lengthAdjust="spacingAndGlyphs" textLength="88" x="769" y="385.5908">-String description</text><text fill="#000000" font-family="sans-serif" font-size="11" lengthAdjust="spacingAndGlyphs" textLength="85" x="769" y="399.4268">-float unitaryPrice</text><text fill="#000000" font-family="sans-serif" font-size="11" lengthAdjust="spacingAndGlyphs" textLength="94" x="769" y="413.2627">-float unitaryWeight</text><!--MD5=[894442645724153f40a9f7a43026dbfc]
class Invoice--><rect fill="#FEFECE" filter="url(#fu3b9sz08zkx0)" height="67.6719" id="Invoice" style="stroke: #A80036; stroke-width: 1.5;" width="89" x="283.5" y="370"/><ellipse cx="307.05" cy="386" fill="#ADD1B2" rx="11" ry="11" style="stroke: #A80036; stroke-width: 1.0;"/><path d="M309.05,382.5 Q309.2531,382 309.4875,381.75 Q309.7219,381.5 309.9875,381.5 Q310.4563,381.5 310.7531,381.7813 Q311.05,382.0625 311.05,382.7188 L311.05,384.2813 Q311.05,384.9375 310.7688,385.2188 Q310.4875,385.5 310.05,385.5 Q309.6594,385.5 309.4094,385.3281 Q309.1594,385.1563 309.05,384.7031 Q309.0031,384.3906 308.8313,384.2188 Q308.5188,383.8906 307.9563,383.7031 Q307.3938,383.5 306.8313,383.5 Q306.1281,383.5 305.5344,383.7813 Q304.9563,384.0625 304.5031,384.6875 Q304.05,385.3125 304.05,386.1719 L304.05,387.0938 Q304.05,388.125 304.8938,388.8125 Q305.7375,389.5 307.2375,389.5 Q308.1281,389.5 308.7531,389.2969 Q309.1125,389.1875 309.5188,388.8281 Q309.7844,388.625 309.925,388.5625 Q310.0656,388.5 310.2375,388.5 Q310.5656,388.5 310.8,388.7656 Q311.05,389.0156 311.05,389.375 Q311.05,389.7188 310.7063,390.125 Q310.2063,390.7188 309.4094,391.0469 Q308.3625,391.5 307.0813,391.5 Q305.5813,391.5 304.3781,390.9063 Q303.4094,390.4375 302.7219,389.4219 Q302.05,388.4063 302.05,387.2031 L302.05,386.1094 Q302.05,384.8594 302.6438,383.7656 Q303.2531,382.6719 304.3,382.0938 Q305.3625,381.5 306.55,381.5 Q307.2688,381.5 307.8938,381.75 Q308.5188,382 309.05,382.5 Z "/><text fill="#000000" font-family="sans-serif" font-size="12" lengthAdjust="spacingAndGlyphs" textLength="38" x="322.95" y="390.9102">Invoice</text><line style="stroke: #A80036; stroke-width: 1.5;" x1="284.5" x2="371.5" y1="402" y2="402"/><text fill="#000000" font-family="sans-serif" font-size="11" lengthAdjust="spacingAndGlyphs" textLength="77" x="289.5" y="417.4189">-Date orderDate</text><text fill="#000000" font-family="sans-serif" font-size="11" lengthAdjust="spacingAndGlyphs" textLength="63" x="289.5" y="431.2549">-float amount</text><!--MD5=[91d4151b6d4c9a3d01b6d84b2458eece]
class CreditCard--><rect fill="#FEFECE" filter="url(#fu3b9sz08zkx0)" height="81.5078" id="CreditCard" style="stroke: #A80036; stroke-width: 1.5;" width="117" x="550" y="474"/><ellipse cx="576.25" cy="490" fill="#ADD1B2" rx="11" ry="11" style="stroke: #A80036; stroke-width: 1.0;"/><path d="M578.25,486.5 Q578.4531,486 578.6875,485.75 Q578.9219,485.5 579.1875,485.5 Q579.6563,485.5 579.9531,485.7813 Q580.25,486.0625 580.25,486.7188 L580.25,488.2813 Q580.25,488.9375 579.9688,489.2188 Q579.6875,489.5 579.25,489.5 Q578.8594,489.5 578.6094,489.3281 Q578.3594,489.1563 578.25,488.7031 Q578.2031,488.3906 578.0313,488.2188 Q577.7188,487.8906 577.1563,487.7031 Q576.5938,487.5 576.0313,487.5 Q575.3281,487.5 574.7344,487.7813 Q574.1563,488.0625 573.7031,488.6875 Q573.25,489.3125 573.25,490.1719 L573.25,491.0938 Q573.25,492.125 574.0938,492.8125 Q574.9375,493.5 576.4375,493.5 Q577.3281,493.5 577.9531,493.2969 Q578.3125,493.1875 578.7188,492.8281 Q578.9844,492.625 579.125,492.5625 Q579.2656,492.5 579.4375,492.5 Q579.7656,492.5 580,492.7656 Q580.25,493.0156 580.25,493.375 Q580.25,493.7188 579.9063,494.125 Q579.4063,494.7188 578.6094,495.0469 Q577.5625,495.5 576.2813,495.5 Q574.7813,495.5 573.5781,494.9063 Q572.6094,494.4375 571.9219,493.4219 Q571.25,492.4063 571.25,491.2031 L571.25,490.1094 Q571.25,488.8594 571.8438,487.7656 Q572.4531,486.6719 573.5,486.0938 Q574.5625,485.5 575.75,485.5 Q576.4688,485.5 577.0938,485.75 Q577.7188,486 578.25,486.5 Z "/><text fill="#000000" font-family="sans-serif" font-size="12" lengthAdjust="spacingAndGlyphs" textLength="60" x="592.75" y="494.9102">CreditCard</text><line style="stroke: #A80036; stroke-width: 1.5;" x1="551" x2="666" y1="506" y2="506"/><text fill="#000000" font-family="sans-serif" font-size="11" lengthAdjust="spacingAndGlyphs" textLength="105" x="556" y="521.4189">-int creditCardNumber</text><text fill="#000000" font-family="sans-serif" font-size="11" lengthAdjust="spacingAndGlyphs" textLength="88" x="556" y="535.2549">-Date validatyDate</text><text fill="#000000" font-family="sans-serif" font-size="11" lengthAdjust="spacingAndGlyphs" textLength="40" x="556" y="549.0908">-int CCV</text><!--MD5=[6f4f5a959b7eecf0b4982552d890dec0]
link Platform to Client--><path d="M108.281,214.794 C152.533,202.292 217.136,184.04 264.662,170.612 " fill="none" id="Platform-Client" style="stroke: #A80036; stroke-width: 1.0;"/><text fill="#000000" font-family="sans-serif" font-size="13" lengthAdjust="spacingAndGlyphs" textLength="82" x="139" y="176.4951">has registered</text><polygon fill="#000000" points="224,169.6758,230,172.6758,224,175.6758,224,169.6758" style="stroke: #000000; stroke-width: 1.0;"/><text fill="#000000" font-family="sans-serif" font-size="13" lengthAdjust="spacingAndGlyphs" textLength="7" x="115.9846" y="227.4527">1</text><text fill="#000000" font-family="sans-serif" font-size="13" lengthAdjust="spacingAndGlyphs" textLength="5" x="252.0495" y="187.069">*</text><!--MD5=[46120166855af3d867105a26a4c9094b]
link Platform to Order--><path d="M108.221,233.844 C212.608,243.912 451.999,267.002 556.799,277.11 " fill="none" id="Platform-Order" style="stroke: #A80036; stroke-width: 1.0;"/><text fill="#000000" font-family="sans-serif" font-size="13" lengthAdjust="spacingAndGlyphs" textLength="82" x="280.5" y="245.4951">has registered</text><polygon fill="#000000" points="365.5,238.6758,371.5,241.6758,365.5,244.6758,365.5,238.6758" style="stroke: #000000; stroke-width: 1.0;"/><text fill="#000000" font-family="sans-serif" font-size="13" lengthAdjust="spacingAndGlyphs" textLength="7" x="115.9161" y="249.1816">1</text><text fill="#000000" font-family="sans-serif" font-size="13" lengthAdjust="spacingAndGlyphs" textLength="5" x="543.8382" y="291.0986">*</text><!--MD5=[5df16df72a49edaa4f00919f1e597f76]
link Order to Product--><path d="M660.346,308.37 C672.239,314.15 684.954,320.023 697,325 C718.192,333.755 742.065,342.118 762.765,348.912 " fill="none" id="Order-Product" style="stroke: #A80036; stroke-width: 1.0;"/><text fill="#000000" font-family="sans-serif" font-size="13" lengthAdjust="spacingAndGlyphs" textLength="21" x="698" y="321.4951">has</text><polygon fill="#000000" points="722,314.6758,728,317.6758,722,320.6758,722,314.6758" style="stroke: #000000; stroke-width: 1.0;"/><text fill="#000000" font-family="sans-serif" font-size="13" lengthAdjust="spacingAndGlyphs" textLength="7" x="668.129" y="326.7336">1</text><text fill="#000000" font-family="sans-serif" font-size="13" lengthAdjust="spacingAndGlyphs" textLength="5" x="749.9273" y="361.2818">*</text><!--MD5=[9a8dc34b38f85b9f3fcdb440f4bffc6a]
link Client to User--><path d="M391.279,128.403 C401.206,124.548 411.374,120.638 421,117 C468.068,99.213 522.109,79.597 559.861,66.023 " fill="none" id="Client-User" style="stroke: #A80036; stroke-width: 1.0;"/><text fill="#000000" font-family="sans-serif" font-size="13" lengthAdjust="spacingAndGlyphs" textLength="43" x="442.5" y="78.4951">acts as</text><polygon fill="#000000" points="488.5,71.6758,494.5,74.6758,488.5,77.6758,488.5,71.6758" style="stroke: #000000; stroke-width: 1.0;"/><text fill="#000000" font-family="sans-serif" font-size="13" lengthAdjust="spacingAndGlyphs" textLength="22" x="398.939" y="140.187">0..1</text><text fill="#000000" font-family="sans-serif" font-size="13" lengthAdjust="spacingAndGlyphs" textLength="7" x="544.8772" y="83.4144">1</text><!--MD5=[879bec428a80d843af24dc47845bf14c]
link Client to Order--><path d="M391.154,181.79 C441.012,204.883 510.123,236.896 556.703,258.471 " fill="none" id="Client-Order" style="stroke: #A80036; stroke-width: 1.0;"/><text fill="#000000" font-family="sans-serif" font-size="13" lengthAdjust="spacingAndGlyphs" textLength="39" x="444.5" y="194.4951">makes</text><polygon fill="#000000" points="486.5,187.6758,492.5,190.6758,486.5,193.6758,486.5,187.6758" style="stroke: #000000; stroke-width: 1.0;"/><text fill="#000000" font-family="sans-serif" font-size="13" lengthAdjust="spacingAndGlyphs" textLength="7" x="398.8609" y="199.5394">1</text><text fill="#000000" font-family="sans-serif" font-size="13" lengthAdjust="spacingAndGlyphs" textLength="7" x="541.9269" y="269.8175">1</text><!--MD5=[bd708f2371c655af07b49ddbdb30848a]
link Client to Address--><path d="M391.046,155.809 C487.775,160.187 672.758,168.561 762.959,172.644 " fill="none" id="Client-Address" style="stroke: #A80036; stroke-width: 1.0;"/><text fill="#000000" font-family="sans-serif" font-size="13" lengthAdjust="spacingAndGlyphs" textLength="21" x="591.5" y="160.4951">has</text><polygon fill="#000000" points="615.5,153.6758,621.5,156.6758,615.5,159.6758,615.5,153.6758" style="stroke: #000000; stroke-width: 1.0;"/><text fill="#000000" font-family="sans-serif" font-size="13" lengthAdjust="spacingAndGlyphs" textLength="7" x="399.1563" y="170.6219">1</text><text fill="#000000" font-family="sans-serif" font-size="13" lengthAdjust="spacingAndGlyphs" textLength="7" x="748.0079" y="186.968">1</text><!--MD5=[dd2bca8e69277b6dcf04d6bf8fed5dca]
link Order to Address--><path d="M660.034,255.688 C691.289,239.414 731.324,218.569 762.871,202.142 " fill="none" id="Order-Address" style="stroke: #A80036; stroke-width: 1.0;"/><text fill="#000000" font-family="sans-serif" font-size="13" lengthAdjust="spacingAndGlyphs" textLength="21" x="698" y="214.4951">has</text><polygon fill="#000000" points="722,207.6758,728,210.6758,722,213.6758,722,207.6758" style="stroke: #000000; stroke-width: 1.0;"/><text fill="#000000" font-family="sans-serif" font-size="13" lengthAdjust="spacingAndGlyphs" textLength="7" x="668.1171" y="266.5303">1</text><text fill="#000000" font-family="sans-serif" font-size="13" lengthAdjust="spacingAndGlyphs" textLength="7" x="747.9075" y="220.6141">1</text><!--MD5=[4f0092e2f5693c7657a2634bfbc15acf]
link Invoice to Order--><path d="M372.516,384.937 C422.389,363.09 504.017,327.332 556.743,304.235 " fill="none" id="Invoice-Order" style="stroke: #A80036; stroke-width: 1.0;"/><text fill="#000000" font-family="sans-serif" font-size="13" lengthAdjust="spacingAndGlyphs" textLength="21" x="453.5" y="317.4951">has</text><polygon fill="#000000" points="477.5,310.6758,483.5,313.6758,477.5,316.6758,477.5,310.6758" style="stroke: #000000; stroke-width: 1.0;"/><text fill="#000000" font-family="sans-serif" font-size="13" lengthAdjust="spacingAndGlyphs" textLength="7" x="380.4687" y="396.6561">1</text><text fill="#000000" font-family="sans-serif" font-size="13" lengthAdjust="spacingAndGlyphs" textLength="7" x="541.9725" y="322.0171">1</text><!--MD5=[72e744b1f7ec345412f1ea79f30940ed]
link Invoice to Product--><path d="M372.577,402.901 C437.045,400.999 561.577,396.266 667,386 C698.9,382.894 734.465,377.897 762.736,373.557 " fill="none" id="Invoice-Product" style="stroke: #A80036; stroke-width: 1.0;"/><text fill="#000000" font-family="sans-serif" font-size="13" lengthAdjust="spacingAndGlyphs" textLength="21" x="591.5" y="382.4951">has</text><polygon fill="#000000" points="615.5,375.6758,621.5,378.6758,615.5,381.6758,615.5,375.6758" style="stroke: #000000; stroke-width: 1.0;"/><text fill="#000000" font-family="sans-serif" font-size="13" lengthAdjust="spacingAndGlyphs" textLength="7" x="380.5398" y="417.5954">1</text><text fill="#000000" font-family="sans-serif" font-size="13" lengthAdjust="spacingAndGlyphs" textLength="5" x="749.8942" y="389.3925">*</text><!--MD5=[02c3880b26c7eaf602597a8933cd7cde]
link Invoice to CreditCard--><path d="M372.579,425.954 C387.754,433.301 404.989,441.315 421,448 C463.543,465.7616 512.647,483.2862 549.788,495.9554 " fill="none" id="Invoice-CreditCard" style="stroke: #A80036; stroke-width: 1.0;"/><text fill="#000000" font-family="sans-serif" font-size="13" lengthAdjust="spacingAndGlyphs" textLength="84" x="422" y="444.4951">is payed using</text><polygon fill="#000000" points="509,437.6758,515,440.6758,509,443.6758,509,437.6758" style="stroke: #000000; stroke-width: 1.0;"/><text fill="#000000" font-family="sans-serif" font-size="13" lengthAdjust="spacingAndGlyphs" textLength="7" x="380.5421" y="444.4665">1</text><text fill="#000000" font-family="sans-serif" font-size="13" lengthAdjust="spacingAndGlyphs" textLength="5" x="536.9452" y="508.0895">*</text><!--MD5=[231d16c5fc42c0a0c148149404e0fe18]
@startuml
skinparam classAttributeIconSize 0
hide methods
left to right direction

class Platform {
-   String designation
}
class Client{
-   int IBAN
-   long creditCardNumber
-   int validityDate
-   int CCV
}

class User{
-   String name
-   String email
-   String password
}

class Address{
-   String streetName
-   String doorNumber
-   String postalCode
-   String locality
-   String country
-   float longitude
-   float latitude
}

class Order{
-   int id
-   float amount
-   float totalWeight
-   float additionalFee
-   Date orderDate
-   String description
-   String status
}

class Product{
-   int id
-   String name
-   String description
-   float unitaryPrice
-   float unitaryWeight
}

class Invoice{
-   Date orderDate
-   float amount
}

class CreditCard{
-   int creditCardNumber
-   Date validatyDate
-   int CCV
}

Platform "1" - - "*" Client : has registered >
Platform "1" - - "*" Order : has registered >
Order "1" - - "*" Product : has >
Client "0..1" - - "1" User: acts as >
Client "1" - - "1" Order : makes >
Client "1" - - "1" Address : has >
Order "1" - - "1" Address : has >
Invoice "1" - - "1" Order : has >
Invoice "1" - - "*" Product : has >
Invoice "1" - - "*" CreditCard : is payed using >
@enduml

PlantUML version 1.2020.09(Sun May 10 11:51:06 BST 2020)
(GPL source distribution)
Java Runtime: OpenJDK Runtime Environment
JVM: OpenJDK 64-Bit Server VM
Java Version: 11.0.6+8-b520.66
Operating System: Windows 10
Default Encoding: Cp1252
Language: pt
Country: PT
--></g></svg>