<?xml version="1.0" encoding="UTF-8" standalone="no"?><svg xmlns="http://www.w3.org/2000/svg" xmlns:xlink="http://www.w3.org/1999/xlink" contentScriptType="application/ecmascript" contentStyleType="text/css" height="164px" preserveAspectRatio="none" style="width:761px;height:164px;" version="1.1" viewBox="0 0 761 164" width="761px" zoomAndPan="magnify"><defs><filter height="300%" id="f1jnas7nutspkq" width="300%" x="-1" y="-1"><feGaussianBlur result="blurOut" stdDeviation="2.0"/><feColorMatrix in="blurOut" result="blurOut2" type="matrix" values="0 0 0 0 0 0 0 0 0 0 0 0 0 0 0 0 0 0 .4 0"/><feOffset dx="4.0" dy="4.0" in="blurOut2" result="blurOut3"/><feBlend in="SourceGraphic" in2="blurOut3" mode="normal"/></filter></defs><g><!--MD5=[99b8db98afdc2c8404e39242ef4c1e65]
class Platform--><rect codeLine="5" fill="#FEFECE" filter="url(#f1jnas7nutspkq)" height="53.8359" id="Platform" style="stroke: #A80036; stroke-width: 1.5;" width="102" x="7" y="27.5"/><ellipse cx="32.8" cy="43.5" fill="#ADD1B2" rx="11" ry="11" style="stroke: #A80036; stroke-width: 1.0;"/><path d="M34.8,40 Q35.0031,39.5 35.2375,39.25 Q35.4719,39 35.7375,39 Q36.2063,39 36.5031,39.2813 Q36.8,39.5625 36.8,40.2188 L36.8,41.7813 Q36.8,42.4375 36.5188,42.7188 Q36.2375,43 35.8,43 Q35.4094,43 35.1594,42.8281 Q34.9094,42.6563 34.8,42.2031 Q34.7531,41.8906 34.5813,41.7188 Q34.2688,41.3906 33.7063,41.2031 Q33.1438,41 32.5813,41 Q31.8781,41 31.2844,41.2813 Q30.7062,41.5625 30.2531,42.1875 Q29.8,42.8125 29.8,43.6719 L29.8,44.5938 Q29.8,45.625 30.6437,46.3125 Q31.4875,47 32.9875,47 Q33.8781,47 34.5031,46.7969 Q34.8625,46.6875 35.2688,46.3281 Q35.5344,46.125 35.675,46.0625 Q35.8156,46 35.9875,46 Q36.3156,46 36.55,46.2656 Q36.8,46.5156 36.8,46.875 Q36.8,47.2188 36.4563,47.625 Q35.9563,48.2188 35.1594,48.5469 Q34.1125,49 32.8313,49 Q31.3312,49 30.1281,48.4063 Q29.1594,47.9375 28.4719,46.9219 Q27.8,45.9063 27.8,44.7031 L27.8,43.6094 Q27.8,42.3594 28.3937,41.2656 Q29.0031,40.1719 30.05,39.5938 Q31.1125,39 32.3,39 Q33.0188,39 33.6438,39.25 Q34.2688,39.5 34.8,40 Z " fill="#000000"/><text fill="#000000" font-family="sans-serif" font-size="12" lengthAdjust="spacingAndGlyphs" textLength="46" x="49.2" y="48.4102">Platform</text><line style="stroke: #A80036; stroke-width: 1.5;" x1="8" x2="108" y1="59.5" y2="59.5"/><text fill="#000000" font-family="sans-serif" font-size="11" lengthAdjust="spacingAndGlyphs" textLength="90" x="13" y="74.9189">-String designation</text><!--MD5=[c6a2171c11447acbe08a3dfeee0e1710]
class Courier--><rect codeLine="8" fill="#FEFECE" filter="url(#f1jnas7nutspkq)" height="95.3438" id="Courier" style="stroke: #A80036; stroke-width: 1.5;" width="73" x="459" y="7"/><ellipse cx="474" cy="23" fill="#ADD1B2" rx="11" ry="11" style="stroke: #A80036; stroke-width: 1.0;"/><path d="M476,19.5 Q476.2031,19 476.4375,18.75 Q476.6719,18.5 476.9375,18.5 Q477.4063,18.5 477.7031,18.7813 Q478,19.0625 478,19.7188 L478,21.2813 Q478,21.9375 477.7188,22.2188 Q477.4375,22.5 477,22.5 Q476.6094,22.5 476.3594,22.3281 Q476.1094,22.1563 476,21.7031 Q475.9531,21.3906 475.7813,21.2188 Q475.4688,20.8906 474.9063,20.7031 Q474.3438,20.5 473.7813,20.5 Q473.0781,20.5 472.4844,20.7813 Q471.9063,21.0625 471.4531,21.6875 Q471,22.3125 471,23.1719 L471,24.0938 Q471,25.125 471.8438,25.8125 Q472.6875,26.5 474.1875,26.5 Q475.0781,26.5 475.7031,26.2969 Q476.0625,26.1875 476.4688,25.8281 Q476.7344,25.625 476.875,25.5625 Q477.0156,25.5 477.1875,25.5 Q477.5156,25.5 477.75,25.7656 Q478,26.0156 478,26.375 Q478,26.7188 477.6563,27.125 Q477.1563,27.7188 476.3594,28.0469 Q475.3125,28.5 474.0313,28.5 Q472.5313,28.5 471.3281,27.9063 Q470.3594,27.4375 469.6719,26.4219 Q469,25.4063 469,24.2031 L469,23.1094 Q469,21.8594 469.5938,20.7656 Q470.2031,19.6719 471.25,19.0938 Q472.3125,18.5 473.5,18.5 Q474.2188,18.5 474.8438,18.75 Q475.4688,19 476,19.5 Z " fill="#000000"/><text fill="#000000" font-family="sans-serif" font-size="12" lengthAdjust="spacingAndGlyphs" textLength="41" x="488" y="27.9102">Courier</text><line style="stroke: #A80036; stroke-width: 1.5;" x1="460" x2="531" y1="39" y2="39"/><text fill="#000000" font-family="sans-serif" font-size="11" lengthAdjust="spacingAndGlyphs" textLength="26" x="465" y="54.4189">-int id</text><text fill="#000000" font-family="sans-serif" font-size="11" lengthAdjust="spacingAndGlyphs" textLength="59" x="465" y="68.2549">-String email</text><text fill="#000000" font-family="sans-serif" font-size="11" lengthAdjust="spacingAndGlyphs" textLength="61" x="465" y="82.0908">-String nome</text><text fill="#000000" font-family="sans-serif" font-size="11" lengthAdjust="spacingAndGlyphs" textLength="42" x="465" y="95.9268">-int IBAN</text><!--MD5=[3fd616f346a44cd59a91eb10b19e157c]
class User--><rect codeLine="14" fill="#FEFECE" filter="url(#f1jnas7nutspkq)" height="81.5078" id="User" style="stroke: #A80036; stroke-width: 1.5;" width="97" x="650" y="13.5"/><ellipse cx="682.1" cy="29.5" fill="#ADD1B2" rx="11" ry="11" style="stroke: #A80036; stroke-width: 1.0;"/><path d="M684.1,26 Q684.3031,25.5 684.5375,25.25 Q684.7719,25 685.0375,25 Q685.5063,25 685.8031,25.2813 Q686.1,25.5625 686.1,26.2188 L686.1,27.7813 Q686.1,28.4375 685.8188,28.7188 Q685.5375,29 685.1,29 Q684.7094,29 684.4594,28.8281 Q684.2094,28.6563 684.1,28.2031 Q684.0531,27.8906 683.8813,27.7188 Q683.5688,27.3906 683.0063,27.2031 Q682.4438,27 681.8813,27 Q681.1781,27 680.5844,27.2813 Q680.0063,27.5625 679.5531,28.1875 Q679.1,28.8125 679.1,29.6719 L679.1,30.5938 Q679.1,31.625 679.9438,32.3125 Q680.7875,33 682.2875,33 Q683.1781,33 683.8031,32.7969 Q684.1625,32.6875 684.5688,32.3281 Q684.8344,32.125 684.975,32.0625 Q685.1156,32 685.2875,32 Q685.6156,32 685.85,32.2656 Q686.1,32.5156 686.1,32.875 Q686.1,33.2188 685.7563,33.625 Q685.2563,34.2188 684.4594,34.5469 Q683.4125,35 682.1313,35 Q680.6313,35 679.4281,34.4063 Q678.4594,33.9375 677.7719,32.9219 Q677.1,31.9063 677.1,30.7031 L677.1,29.6094 Q677.1,28.3594 677.6938,27.2656 Q678.3031,26.1719 679.35,25.5938 Q680.4125,25 681.6,25 Q682.3188,25 682.9438,25.25 Q683.5688,25.5 684.1,26 Z " fill="#000000"/><text fill="#000000" font-family="sans-serif" font-size="12" lengthAdjust="spacingAndGlyphs" textLength="27" x="699.9" y="34.4102">User</text><line style="stroke: #A80036; stroke-width: 1.5;" x1="651" x2="746" y1="45.5" y2="45.5"/><text fill="#000000" font-family="sans-serif" font-size="11" lengthAdjust="spacingAndGlyphs" textLength="61" x="656" y="60.9189">-String name</text><text fill="#000000" font-family="sans-serif" font-size="11" lengthAdjust="spacingAndGlyphs" textLength="59" x="656" y="74.7549">-String email</text><text fill="#000000" font-family="sans-serif" font-size="11" lengthAdjust="spacingAndGlyphs" textLength="85" x="656" y="88.5908">-String password</text><!--MD5=[cf4d6237fcae255cd2e1656cf84a30e2]
class Order--><rect codeLine="20" fill="#FEFECE" filter="url(#f1jnas7nutspkq)" height="81.5078" id="Order" style="stroke: #A80036; stroke-width: 1.5;" width="67" x="281" y="68.5"/><ellipse cx="297.8" cy="84.5" fill="#ADD1B2" rx="11" ry="11" style="stroke: #A80036; stroke-width: 1.0;"/><path d="M299.8,81 Q300.0031,80.5 300.2375,80.25 Q300.4719,80 300.7375,80 Q301.2063,80 301.5031,80.2813 Q301.8,80.5625 301.8,81.2188 L301.8,82.7813 Q301.8,83.4375 301.5188,83.7188 Q301.2375,84 300.8,84 Q300.4094,84 300.1594,83.8281 Q299.9094,83.6563 299.8,83.2031 Q299.7531,82.8906 299.5813,82.7188 Q299.2688,82.3906 298.7063,82.2031 Q298.1438,82 297.5813,82 Q296.8781,82 296.2844,82.2813 Q295.7063,82.5625 295.2531,83.1875 Q294.8,83.8125 294.8,84.6719 L294.8,85.5938 Q294.8,86.625 295.6438,87.3125 Q296.4875,88 297.9875,88 Q298.8781,88 299.5031,87.7969 Q299.8625,87.6875 300.2688,87.3281 Q300.5344,87.125 300.675,87.0625 Q300.8156,87 300.9875,87 Q301.3156,87 301.55,87.2656 Q301.8,87.5156 301.8,87.875 Q301.8,88.2188 301.4563,88.625 Q300.9563,89.2188 300.1594,89.5469 Q299.1125,90 297.8313,90 Q296.3313,90 295.1281,89.4063 Q294.1594,88.9375 293.4719,87.9219 Q292.8,86.9063 292.8,85.7031 L292.8,84.6094 Q292.8,83.3594 293.3938,82.2656 Q294.0031,81.1719 295.05,80.5938 Q296.1125,80 297.3,80 Q298.0188,80 298.6438,80.25 Q299.2688,80.5 299.8,81 Z " fill="#000000"/><text fill="#000000" font-family="sans-serif" font-size="12" lengthAdjust="spacingAndGlyphs" textLength="31" x="312.2" y="89.4102">Order</text><line style="stroke: #A80036; stroke-width: 1.5;" x1="282" x2="347" y1="100.5" y2="100.5"/><text fill="#000000" font-family="sans-serif" font-size="11" lengthAdjust="spacingAndGlyphs" textLength="26" x="287" y="115.9189">-int id</text><text fill="#000000" font-family="sans-serif" font-size="11" lengthAdjust="spacingAndGlyphs" textLength="41" x="287" y="129.7549">-location</text><text fill="#000000" font-family="sans-serif" font-size="11" lengthAdjust="spacingAndGlyphs" textLength="55" x="287" y="143.5908">-completar!!</text><!--MD5=[f0cfa747e910e280deb3c434245f2238]
link Platform to Courier--><path codeLine="26" d="M109.3,48.7 C119.14,47.78 129.38,46.98 139,46.5 C194.24,43.74 411.29,48.69 429,49.5 C438.68,49.94 449.16,50.64 458.83,51.38 " fill="none" id="Platform-Courier" style="stroke: #A80036; stroke-width: 1.0;"/><polygon fill="#000000" points="275.9999,37.7141,266.9776,34.7059,266.9325,40.5836,275.9999,37.7141" style="stroke: #000000; stroke-width: 1.0;"/><text fill="#000000" font-family="sans-serif" font-size="13" lengthAdjust="spacingAndGlyphs" textLength="82" x="280" y="42.9951">has registered</text><text fill="#000000" font-family="sans-serif" font-size="13" lengthAdjust="spacingAndGlyphs" textLength="7" x="117.0063" y="62.5407">1</text><text fill="#000000" font-family="sans-serif" font-size="13" lengthAdjust="spacingAndGlyphs" textLength="5" x="446.1184" y="46.6866">*</text><!--MD5=[46120166855af3d867105a26a4c9094b]
link Platform to Order--><path codeLine="27" d="M109.28,65.37 C160.13,76.35 237.24,93.02 280.7,102.41 " fill="none" id="Platform-Order" style="stroke: #A80036; stroke-width: 1.0;"/><polygon fill="#000000" points="148.8872,64.7318,140.6669,59.9488,139.4255,65.6941,148.8872,64.7318" style="stroke: #000000; stroke-width: 1.0;"/><text fill="#000000" font-family="sans-serif" font-size="13" lengthAdjust="spacingAndGlyphs" textLength="82" x="153" y="68.9951">has registered</text><text fill="#000000" font-family="sans-serif" font-size="13" lengthAdjust="spacingAndGlyphs" textLength="7" x="116.9834" y="81.555">1</text><text fill="#000000" font-family="sans-serif" font-size="13" lengthAdjust="spacingAndGlyphs" textLength="5" x="268.2131" y="116.1798">*</text><!--MD5=[771c3993b003aea4e1f6128d90cd4122]
link Courier to User--><path codeLine="28" d="M532.43,54.5 C565.18,54.5 613.79,54.5 649.78,54.5 " fill="none" id="Courier-User" style="stroke: #A80036; stroke-width: 1.0;"/><polygon fill="#000000" points="572,45.6758,562.9549,42.7369,562.9549,48.6147,572,45.6758" style="stroke: #000000; stroke-width: 1.0;"/><text fill="#000000" font-family="sans-serif" font-size="13" lengthAdjust="spacingAndGlyphs" textLength="43" x="576" y="50.9951">acts as</text><text fill="#000000" font-family="sans-serif" font-size="13" lengthAdjust="spacingAndGlyphs" textLength="22" x="540.0688" y="69.2707">0..1</text><text fill="#000000" font-family="sans-serif" font-size="13" lengthAdjust="spacingAndGlyphs" textLength="7" x="635.1102" y="69.2321">1</text><!--MD5=[e0c68841ed96abd06ddb24eae0836667]
link Order to Courier--><path codeLine="29" d="M348.33,99.41 C379.62,89.8 426.6,75.36 458.81,65.47 " fill="none" id="Order-Courier" style="stroke: #A80036; stroke-width: 1.0;"/><polygon fill="#000000" points="402.7795,65.2075,393.2702,65.0543,394.9963,70.673,402.7795,65.2075" style="stroke: #000000; stroke-width: 1.0;"/><text fill="#000000" font-family="sans-serif" font-size="13" lengthAdjust="spacingAndGlyphs" textLength="21" x="407" y="71.9951">has</text><text fill="#000000" font-family="sans-serif" font-size="13" lengthAdjust="spacingAndGlyphs" textLength="7" x="356.0293" y="112.5611">1</text><text fill="#000000" font-family="sans-serif" font-size="13" lengthAdjust="spacingAndGlyphs" textLength="7" x="443.8976" y="82.7006">1</text><!--MD5=[9de2e215cf725f8f39dc66309c22bf35]
@startuml
skinparam classAttributeIconSize 0
hide methods
left to right direction

class Platform {
-   String designation
}
class Courier{
-   int id
-   String email
-   String nome
-   int IBAN
}
class User{
-   String name
-   String email
-   String password
}

class Order{
-   int id
-   location
-   completar!!
}

Platform "1" - - "*" Courier : has registered >
Platform "1" - - "*" Order : has registered >
Courier "0..1" - - "1" User: acts as >
Order "1" - - "1" Courier : has >
@enduml

PlantUML version 1.2020.20(Sat Nov 21 10:02:45 GMT 2020)
(GPL source distribution)
Java Runtime: OpenJDK Runtime Environment
JVM: OpenJDK 64-Bit Server VM
Default Encoding: Cp1252
Language: pt
Country: PT
--></g></svg>