<?xml version="1.0" encoding="UTF-8" standalone="no"?><svg xmlns="http://www.w3.org/2000/svg" xmlns:xlink="http://www.w3.org/1999/xlink" contentScriptType="application/ecmascript" contentStyleType="text/css" height="755px" preserveAspectRatio="none" style="width:346px;height:755px;" version="1.1" viewBox="0 0 346 755" width="346px" zoomAndPan="magnify"><defs><filter height="300%" id="f15onww3567rbd" width="300%" x="-1" y="-1"><feGaussianBlur result="blurOut" stdDeviation="2.0"/><feColorMatrix in="blurOut" result="blurOut2" type="matrix" values="0 0 0 0 0 0 0 0 0 0 0 0 0 0 0 0 0 0 .4 0"/><feOffset dx="4.0" dy="4.0" in="blurOut2" result="blurOut3"/><feBlend in="SourceGraphic" in2="blurOut3" mode="normal"/></filter></defs><g><!--MD5=[1f2cfc53d9d308f53762fd0fcbaa4873]
cluster Controller--><polygon fill="#DDDDDD" filter="url(#f15onww3567rbd)" points="114,6,191,6,198,29.6094,300,29.6094,300,120,114,120,114,6" style="stroke:#000000;stroke-width:1.5;"/><line style="stroke:#000000;stroke-width:1.5;" x1="114" x2="198" y1="29.6094" y2="29.6094"/><text fill="#000000" font-family="sans-serif" font-size="14" font-weight="bold" lengthAdjust="spacing" textLength="71" x="118" y="22.5332">Controller</text><!--MD5=[15636c1ca4a123c16a2a1a8e90aca7a9]
cluster Model--><polygon fill="#DDDDDD" filter="url(#f15onww3567rbd)" points="16,170,66,170,73,193.6094,329,193.6094,329,748,16,748,16,170" style="stroke:#000000;stroke-width:1.5;"/><line style="stroke:#000000;stroke-width:1.5;" x1="16" x2="73" y1="193.6094" y2="193.6094"/><text fill="#000000" font-family="sans-serif" font-size="14" font-weight="bold" lengthAdjust="spacing" textLength="44" x="20" y="186.5332">Model</text><!--MD5=[9dd75fd92da113d30380b27734fd2f01]
cluster Service--><polygon fill="#DDDDDD" filter="url(#f15onww3567rbd)" points="109,214,169,214,176,237.6094,305,237.6094,305,342,109,342,109,214" style="stroke:#000000;stroke-width:1.5;"/><line style="stroke:#000000;stroke-width:1.5;" x1="109" x2="176" y1="237.6094" y2="237.6094"/><text fill="#000000" font-family="sans-serif" font-size="14" font-weight="bold" lengthAdjust="spacing" textLength="54" x="113" y="230.5332">Service</text><!--MD5=[6e4d4f038d24ab980a218ce423778b47]
class MoveDroneController--><rect codeLine="4" fill="#FEFECE" filter="url(#f15onww3567rbd)" height="61.8359" id="MoveDroneController" style="stroke:#A80036;stroke-width:1.5;" width="154" x="130" y="42"/><ellipse cx="147.7" cy="58" fill="#ADD1B2" rx="11" ry="11" style="stroke:#A80036;stroke-width:1.0;"/><path d="M149.7,54.5 Q149.9031,54 150.1375,53.75 Q150.3719,53.5 150.6375,53.5 Q151.1063,53.5 151.4031,53.7813 Q151.7,54.0625 151.7,54.7188 L151.7,56.2813 Q151.7,56.9375 151.4188,57.2188 Q151.1375,57.5 150.7,57.5 Q150.3094,57.5 150.0594,57.3281 Q149.8094,57.1563 149.7,56.7031 Q149.6531,56.3906 149.4813,56.2188 Q149.1688,55.8906 148.6063,55.7031 Q148.0438,55.5 147.4813,55.5 Q146.7781,55.5 146.1844,55.7813 Q145.6063,56.0625 145.1531,56.6875 Q144.7,57.3125 144.7,58.1719 L144.7,59.0938 Q144.7,60.125 145.5438,60.8125 Q146.3875,61.5 147.8875,61.5 Q148.7781,61.5 149.4031,61.2969 Q149.7625,61.1875 150.1688,60.8281 Q150.4344,60.625 150.575,60.5625 Q150.7156,60.5 150.8875,60.5 Q151.2156,60.5 151.45,60.7656 Q151.7,61.0156 151.7,61.375 Q151.7,61.7188 151.3563,62.125 Q150.8563,62.7188 150.0594,63.0469 Q149.0125,63.5 147.7313,63.5 Q146.2313,63.5 145.0281,62.9063 Q144.0594,62.4375 143.3719,61.4219 Q142.7,60.4063 142.7,59.2031 L142.7,58.1094 Q142.7,56.8594 143.2938,55.7656 Q143.9031,54.6719 144.95,54.0938 Q146.0125,53.5 147.2,53.5 Q147.9188,53.5 148.5438,53.75 Q149.1688,54 149.7,54.5 Z " fill="#000000"/><text fill="#000000" font-family="sans-serif" font-size="12" lengthAdjust="spacing" textLength="116" x="162.3" y="62.9102">MoveDroneController</text><line style="stroke:#A80036;stroke-width:1.5;" x1="131" x2="283" y1="74" y2="74"/><line style="stroke:#A80036;stroke-width:1.5;" x1="131" x2="283" y1="82" y2="82"/><text fill="#000000" font-family="sans-serif" font-size="11" lengthAdjust="spacing" textLength="142" x="136" y="97.4189">+moveDrone(pathInfo, drone)</text><!--MD5=[0f39e4cb6f03951afbf6d14bd2505654]
class Address--><rect codeLine="21" fill="#FEFECE" filter="url(#f15onww3567rbd)" height="144.8516" id="Address" style="stroke:#A80036;stroke-width:1.5;" width="106" x="202" y="587"/><ellipse cx="229.6" cy="603" fill="#ADD1B2" rx="11" ry="11" style="stroke:#A80036;stroke-width:1.0;"/><path d="M231.6,599.5 Q231.8031,599 232.0375,598.75 Q232.2719,598.5 232.5375,598.5 Q233.0063,598.5 233.3031,598.7813 Q233.6,599.0625 233.6,599.7188 L233.6,601.2813 Q233.6,601.9375 233.3188,602.2188 Q233.0375,602.5 232.6,602.5 Q232.2094,602.5 231.9594,602.3281 Q231.7094,602.1563 231.6,601.7031 Q231.5531,601.3906 231.3813,601.2188 Q231.0688,600.8906 230.5063,600.7031 Q229.9438,600.5 229.3813,600.5 Q228.6781,600.5 228.0844,600.7813 Q227.5063,601.0625 227.0531,601.6875 Q226.6,602.3125 226.6,603.1719 L226.6,604.0938 Q226.6,605.125 227.4438,605.8125 Q228.2875,606.5 229.7875,606.5 Q230.6781,606.5 231.3031,606.2969 Q231.6625,606.1875 232.0688,605.8281 Q232.3344,605.625 232.475,605.5625 Q232.6156,605.5 232.7875,605.5 Q233.1156,605.5 233.35,605.7656 Q233.6,606.0156 233.6,606.375 Q233.6,606.7188 233.2563,607.125 Q232.7563,607.7188 231.9594,608.0469 Q230.9125,608.5 229.6313,608.5 Q228.1313,608.5 226.9281,607.9063 Q225.9594,607.4375 225.2719,606.4219 Q224.6,605.4063 224.6,604.2031 L224.6,603.1094 Q224.6,601.8594 225.1938,600.7656 Q225.8031,599.6719 226.85,599.0938 Q227.9125,598.5 229.1,598.5 Q229.8188,598.5 230.4438,598.75 Q231.0688,599 231.6,599.5 Z " fill="#000000"/><text fill="#000000" font-family="sans-serif" font-size="12" lengthAdjust="spacing" textLength="46" x="246.4" y="607.9102">Address</text><line style="stroke:#A80036;stroke-width:1.5;" x1="203" x2="307" y1="619" y2="619"/><text fill="#000000" font-family="sans-serif" font-size="11" lengthAdjust="spacing" textLength="90" x="208" y="634.4189">-String streetName</text><text fill="#000000" font-family="sans-serif" font-size="11" lengthAdjust="spacing" textLength="94" x="208" y="648.2549">-String doorNumber</text><text fill="#000000" font-family="sans-serif" font-size="11" lengthAdjust="spacing" textLength="89" x="208" y="662.0908">-String postalCode</text><text fill="#000000" font-family="sans-serif" font-size="11" lengthAdjust="spacing" textLength="68" x="208" y="675.9268">-String locality</text><text fill="#000000" font-family="sans-serif" font-size="11" lengthAdjust="spacing" textLength="72" x="208" y="689.7627">-String country</text><text fill="#000000" font-family="sans-serif" font-size="11" lengthAdjust="spacing" textLength="71" x="208" y="703.5986">-float longitude</text><text fill="#000000" font-family="sans-serif" font-size="11" lengthAdjust="spacing" textLength="62" x="208" y="717.4346">-float latitude</text><line style="stroke:#A80036;stroke-width:1.5;" x1="203" x2="307" y1="723.8516" y2="723.8516"/><!--MD5=[30da194321b846ed0272a2c085d943b8]
class DeliveryRun--><rect codeLine="31" fill="#FEFECE" filter="url(#f15onww3567rbd)" height="103.3438" id="DeliveryRun" style="stroke:#A80036;stroke-width:1.5;" width="116" x="197" y="406"/><ellipse cx="220.1" cy="422" fill="#ADD1B2" rx="11" ry="11" style="stroke:#A80036;stroke-width:1.0;"/><path d="M222.1,418.5 Q222.3031,418 222.5375,417.75 Q222.7719,417.5 223.0375,417.5 Q223.5063,417.5 223.8031,417.7813 Q224.1,418.0625 224.1,418.7188 L224.1,420.2813 Q224.1,420.9375 223.8188,421.2188 Q223.5375,421.5 223.1,421.5 Q222.7094,421.5 222.4594,421.3281 Q222.2094,421.1563 222.1,420.7031 Q222.0531,420.3906 221.8813,420.2188 Q221.5688,419.8906 221.0063,419.7031 Q220.4438,419.5 219.8813,419.5 Q219.1781,419.5 218.5844,419.7813 Q218.0063,420.0625 217.5531,420.6875 Q217.1,421.3125 217.1,422.1719 L217.1,423.0938 Q217.1,424.125 217.9438,424.8125 Q218.7875,425.5 220.2875,425.5 Q221.1781,425.5 221.8031,425.2969 Q222.1625,425.1875 222.5688,424.8281 Q222.8344,424.625 222.975,424.5625 Q223.1156,424.5 223.2875,424.5 Q223.6156,424.5 223.85,424.7656 Q224.1,425.0156 224.1,425.375 Q224.1,425.7188 223.7563,426.125 Q223.2563,426.7188 222.4594,427.0469 Q221.4125,427.5 220.1313,427.5 Q218.6313,427.5 217.4281,426.9063 Q216.4594,426.4375 215.7719,425.4219 Q215.1,424.4063 215.1,423.2031 L215.1,422.1094 Q215.1,420.8594 215.6938,419.7656 Q216.3031,418.6719 217.35,418.0938 Q218.4125,417.5 219.6,417.5 Q220.3188,417.5 220.9438,417.75 Q221.5688,418 222.1,418.5 Z " fill="#000000"/><text fill="#000000" font-family="sans-serif" font-size="12" lengthAdjust="spacing" textLength="66" x="235.9" y="426.9102">DeliveryRun</text><line style="stroke:#A80036;stroke-width:1.5;" x1="198" x2="312" y1="438" y2="438"/><text fill="#000000" font-family="sans-serif" font-size="11" lengthAdjust="spacing" textLength="48" x="203" y="453.4189">-Integer id</text><text fill="#000000" font-family="sans-serif" font-size="11" lengthAdjust="spacing" textLength="82" x="203" y="467.2549">-Integer courierId</text><text fill="#000000" font-family="sans-serif" font-size="11" lengthAdjust="spacing" textLength="82" x="203" y="481.0908">-Integer vehicleId</text><text fill="#000000" font-family="sans-serif" font-size="11" lengthAdjust="spacing" textLength="104" x="203" y="494.9268">-String deliveryStatus</text><line style="stroke:#A80036;stroke-width:1.5;" x1="198" x2="312" y1="501.3438" y2="501.3438"/><!--MD5=[3aa0d89c6bfdcbf7f32042cedac57549]
class Vehicle--><rect codeLine="59" fill="#FEFECE" filter="url(#f15onww3567rbd)" height="144.8516" id="Vehicle" style="stroke:#A80036;stroke-width:1.5;" width="114" x="49" y="587"/><ellipse cx="82.9" cy="603" fill="#ADD1B2" rx="11" ry="11" style="stroke:#A80036;stroke-width:1.0;"/><path d="M84.9,599.5 Q85.1031,599 85.3375,598.75 Q85.5719,598.5 85.8375,598.5 Q86.3063,598.5 86.6031,598.7813 Q86.9,599.0625 86.9,599.7188 L86.9,601.2813 Q86.9,601.9375 86.6188,602.2188 Q86.3375,602.5 85.9,602.5 Q85.5094,602.5 85.2594,602.3281 Q85.0094,602.1563 84.9,601.7031 Q84.8531,601.3906 84.6813,601.2188 Q84.3688,600.8906 83.8063,600.7031 Q83.2438,600.5 82.6813,600.5 Q81.9781,600.5 81.3844,600.7813 Q80.8063,601.0625 80.3531,601.6875 Q79.9,602.3125 79.9,603.1719 L79.9,604.0938 Q79.9,605.125 80.7438,605.8125 Q81.5875,606.5 83.0875,606.5 Q83.9781,606.5 84.6031,606.2969 Q84.9625,606.1875 85.3688,605.8281 Q85.6344,605.625 85.775,605.5625 Q85.9156,605.5 86.0875,605.5 Q86.4156,605.5 86.65,605.7656 Q86.9,606.0156 86.9,606.375 Q86.9,606.7188 86.5563,607.125 Q86.0563,607.7188 85.2594,608.0469 Q84.2125,608.5 82.9313,608.5 Q81.4313,608.5 80.2281,607.9063 Q79.2594,607.4375 78.5719,606.4219 Q77.9,605.4063 77.9,604.2031 L77.9,603.1094 Q77.9,601.8594 78.4938,600.7656 Q79.1031,599.6719 80.15,599.0938 Q81.2125,598.5 82.4,598.5 Q83.1188,598.5 83.7438,598.75 Q84.3688,599 84.9,599.5 Z " fill="#000000"/><text fill="#000000" font-family="sans-serif" font-size="12" lengthAdjust="spacing" textLength="40" x="101.1" y="607.9102">Vehicle</text><line style="stroke:#A80036;stroke-width:1.5;" x1="50" x2="162" y1="619" y2="619"/><text fill="#000000" font-family="sans-serif" font-size="11" lengthAdjust="spacing" textLength="26" x="55" y="634.4189">-int id</text><text fill="#000000" font-family="sans-serif" font-size="11" lengthAdjust="spacing" textLength="84" x="55" y="648.2549">-float batteryPerc</text><text fill="#000000" font-family="sans-serif" font-size="11" lengthAdjust="spacing" textLength="102" x="55" y="662.0908">-String charginStatus</text><text fill="#000000" font-family="sans-serif" font-size="11" lengthAdjust="spacing" textLength="67" x="55" y="675.9268">-float potency</text><text fill="#000000" font-family="sans-serif" font-size="11" lengthAdjust="spacing" textLength="61" x="55" y="689.7627">-float weight</text><text fill="#000000" font-family="sans-serif" font-size="11" lengthAdjust="spacing" textLength="94" x="55" y="703.5986">-int batteryCapacity</text><text fill="#000000" font-family="sans-serif" font-size="11" lengthAdjust="spacing" textLength="86" x="55" y="717.4346">-float maxPayload</text><line style="stroke:#A80036;stroke-width:1.5;" x1="50" x2="162" y1="723.8516" y2="723.8516"/><!--MD5=[79eb2d862cef9730b5f9dcab29e35f17]
class Battery--><rect codeLine="48" fill="#FEFECE" filter="url(#f15onww3567rbd)" height="103.3438" id="Battery" style="stroke:#A80036;stroke-width:1.5;" width="129" x="32.5" y="406"/><ellipse cx="74.5" cy="422" fill="#ADD1B2" rx="11" ry="11" style="stroke:#A80036;stroke-width:1.0;"/><path d="M76.5,418.5 Q76.7031,418 76.9375,417.75 Q77.1719,417.5 77.4375,417.5 Q77.9063,417.5 78.2031,417.7813 Q78.5,418.0625 78.5,418.7188 L78.5,420.2813 Q78.5,420.9375 78.2188,421.2188 Q77.9375,421.5 77.5,421.5 Q77.1094,421.5 76.8594,421.3281 Q76.6094,421.1563 76.5,420.7031 Q76.4531,420.3906 76.2813,420.2188 Q75.9688,419.8906 75.4063,419.7031 Q74.8438,419.5 74.2813,419.5 Q73.5781,419.5 72.9844,419.7813 Q72.4063,420.0625 71.9531,420.6875 Q71.5,421.3125 71.5,422.1719 L71.5,423.0938 Q71.5,424.125 72.3438,424.8125 Q73.1875,425.5 74.6875,425.5 Q75.5781,425.5 76.2031,425.2969 Q76.5625,425.1875 76.9688,424.8281 Q77.2344,424.625 77.375,424.5625 Q77.5156,424.5 77.6875,424.5 Q78.0156,424.5 78.25,424.7656 Q78.5,425.0156 78.5,425.375 Q78.5,425.7188 78.1563,426.125 Q77.6563,426.7188 76.8594,427.0469 Q75.8125,427.5 74.5313,427.5 Q73.0313,427.5 71.8281,426.9063 Q70.8594,426.4375 70.1719,425.4219 Q69.5,424.4063 69.5,423.2031 L69.5,422.1094 Q69.5,420.8594 70.0938,419.7656 Q70.7031,418.6719 71.75,418.0938 Q72.8125,417.5 74,417.5 Q74.7188,417.5 75.3438,417.75 Q75.9688,418 76.5,418.5 Z " fill="#000000"/><text fill="#000000" font-family="sans-serif" font-size="12" lengthAdjust="spacing" textLength="37" x="94.5" y="426.9102">Battery</text><line style="stroke:#A80036;stroke-width:1.5;" x1="33.5" x2="160.5" y1="438" y2="438"/><text fill="#000000" font-family="sans-serif" font-size="11" lengthAdjust="spacing" textLength="26" x="38.5" y="453.4189">-int id</text><text fill="#000000" font-family="sans-serif" font-size="11" lengthAdjust="spacing" textLength="117" x="38.5" y="467.2549">-float batteryPercentage</text><text fill="#000000" font-family="sans-serif" font-size="11" lengthAdjust="spacing" textLength="94" x="38.5" y="481.0908">-int batteryCapacity</text><text fill="#000000" font-family="sans-serif" font-size="11" lengthAdjust="spacing" textLength="99" x="38.5" y="494.9268">-float batteryVoltage</text><line style="stroke:#A80036;stroke-width:1.5;" x1="33.5" x2="160.5" y1="501.3438" y2="501.3438"/><!--MD5=[f0386d752ae2001320683395ba6b7079]
class DroneService--><rect codeLine="13" fill="#FEFECE" filter="url(#f15onww3567rbd)" height="75.6719" id="DroneService" style="stroke:#A80036;stroke-width:1.5;" width="164" x="125" y="250"/><ellipse cx="166.1" cy="266" fill="#ADD1B2" rx="11" ry="11" style="stroke:#A80036;stroke-width:1.0;"/><path d="M168.1,262.5 Q168.3031,262 168.5375,261.75 Q168.7719,261.5 169.0375,261.5 Q169.5063,261.5 169.8031,261.7813 Q170.1,262.0625 170.1,262.7188 L170.1,264.2813 Q170.1,264.9375 169.8188,265.2188 Q169.5375,265.5 169.1,265.5 Q168.7094,265.5 168.4594,265.3281 Q168.2094,265.1563 168.1,264.7031 Q168.0531,264.3906 167.8813,264.2188 Q167.5688,263.8906 167.0063,263.7031 Q166.4438,263.5 165.8813,263.5 Q165.1781,263.5 164.5844,263.7813 Q164.0063,264.0625 163.5531,264.6875 Q163.1,265.3125 163.1,266.1719 L163.1,267.0938 Q163.1,268.125 163.9438,268.8125 Q164.7875,269.5 166.2875,269.5 Q167.1781,269.5 167.8031,269.2969 Q168.1625,269.1875 168.5688,268.8281 Q168.8344,268.625 168.975,268.5625 Q169.1156,268.5 169.2875,268.5 Q169.6156,268.5 169.85,268.7656 Q170.1,269.0156 170.1,269.375 Q170.1,269.7188 169.7563,270.125 Q169.2563,270.7188 168.4594,271.0469 Q167.4125,271.5 166.1313,271.5 Q164.6313,271.5 163.4281,270.9063 Q162.4594,270.4375 161.7719,269.4219 Q161.1,268.4063 161.1,267.2031 L161.1,266.1094 Q161.1,264.8594 161.6938,263.7656 Q162.3031,262.6719 163.35,262.0938 Q164.4125,261.5 165.6,261.5 Q166.3188,261.5 166.9438,261.75 Q167.5688,262 168.1,262.5 Z " fill="#000000"/><text fill="#000000" font-family="sans-serif" font-size="12" lengthAdjust="spacing" textLength="74" x="185.9" y="270.9102">DroneService</text><line style="stroke:#A80036;stroke-width:1.5;" x1="126" x2="288" y1="282" y2="282"/><text fill="#000000" font-family="sans-serif" font-size="11" lengthAdjust="spacing" textLength="67" x="131" y="297.4189">+startDelivery</text><line style="stroke:#A80036;stroke-width:1.5;" x1="126" x2="288" y1="303.8359" y2="303.8359"/><text fill="#000000" font-family="sans-serif" font-size="11" lengthAdjust="spacing" textLength="152" x="131" y="319.2549">+checkEnergy(distance, drone)</text><!--MD5=[8f6eb1e4d9608264928e41b1f3be662d]
reverse link Battery to Vehicle--><path d="M100.19,529.43 C101.03,548.01 101.93,568.06 102.77,586.69 " fill="none" id="Battery-backto-Vehicle" style="stroke:#A80036;stroke-width:1.0;"/><polygon fill="none" points="93.19,529.52,99.28,509.23,107.17,528.89,93.19,529.52" style="stroke:#A80036;stroke-width:1.0;"/><!--MD5=[43a8a0a42fb3648d24c718f8d0ac0e5d]
link MoveDroneController to DroneService--><path codeLine="61" d="M207,104.07 C207,140.8 207,203.16 207,244.72 " fill="none" id="MoveDroneController-to-DroneService" style="stroke:#A80036;stroke-width:1.0;stroke-dasharray:7.0,7.0;"/><polygon fill="#A80036" points="207,249.93,211,240.93,207,244.93,203,240.93,207,249.93" style="stroke:#A80036;stroke-width:1.0;"/><text fill="#000000" font-family="sans-serif" font-size="13" lengthAdjust="spacing" textLength="21" x="208" y="150.4951">has</text><!--MD5=[6d5b5abfe722faf0c7b2cb12e8076441]
link DeliveryRun to Vehicle--><path codeLine="63" d="M217.21,509.23 C199.71,532.72 178.6,561.05 159.5,586.69 " fill="none" id="DeliveryRun-Vehicle" style="stroke:#A80036;stroke-width:1.0;"/><polygon fill="#000000" points="195.0128,552.1853,202.7735,546.6878,198.06,543.1761,195.0128,552.1853" style="stroke:#000000;stroke-width:1.0;"/><text fill="#000000" font-family="sans-serif" font-size="13" lengthAdjust="spacing" textLength="32" x="207" y="553.4951">has a</text><text fill="#000000" font-family="sans-serif" font-size="13" lengthAdjust="spacing" textLength="7" x="204.6617" y="530.7519">1</text><text fill="#000000" font-family="sans-serif" font-size="13" lengthAdjust="spacing" textLength="7" x="157.4219" y="576.255">1</text><!--MD5=[0f1f1bba6c770dacf7ea3fa51c3b2f1b]
link DeliveryRun to Address--><path codeLine="64" d="M255,509.23 C255,532.72 255,561.05 255,586.69 " fill="none" id="DeliveryRun-Address" style="stroke:#A80036;stroke-width:1.0;"/><text fill="#000000" font-family="sans-serif" font-size="13" lengthAdjust="spacing" textLength="21" x="256" y="553.4951">has</text><text fill="#000000" font-family="sans-serif" font-size="13" lengthAdjust="spacing" textLength="7" x="247.5297" y="530.7519">1</text><text fill="#000000" font-family="sans-serif" font-size="13" lengthAdjust="spacing" textLength="5" x="249.7539" y="576.255">*</text><!--MD5=[ab0667eaeef891ae70a29f1f5c468da2]
link DroneService to DeliveryRun--><path codeLine="65" d="M217.65,326.17 C224.36,349.59 233.12,380.14 240.46,405.77 " fill="none" id="DroneService-DeliveryRun" style="stroke:#A80036;stroke-width:1.0;"/><text fill="#000000" font-family="sans-serif" font-size="13" lengthAdjust="spacing" textLength="88" x="232" y="372.4951">has associated</text><text fill="#000000" font-family="sans-serif" font-size="13" lengthAdjust="spacing" textLength="7" x="211.7895" y="347.0776">1</text><text fill="#000000" font-family="sans-serif" font-size="13" lengthAdjust="spacing" textLength="7" x="231.0359" y="395.2394">1</text><!--MD5=[f388bc82f0670268360dc8cd8dad8bcd]
@startuml
skinparam classAttributeIconSize 0

package "Controller" #DDDDDD {
class MoveDroneController{
+moveDrone(pathInfo, drone)
}

}


package "Model" #DDDDDD {
package "Service" #DDDDDD {
   class DroneService{
          +checkEnergy(distance, drone)
          +startDelivery
      }
 }
}

package "Model" #DDDDDD {
class Address{
-   String streetName
-   String doorNumber
-   String postalCode
-   String locality
-   String country
-   float longitude
-   float latitude
}

class DeliveryRun{
- Integer id
- Integer courierId
- Integer vehicleId
- String deliveryStatus
}

class Vehicle{
  -int id
  -float batteryPerc
  -String charginStatus
  -float potency
  -float weight
  -int batteryCapacity
  -float maxPayload
}

class Battery{
  -int id
  -float batteryPercentage
  -int batteryCapacity
  -float batteryVoltage
}


}


class Vehicle extends Battery

MoveDroneController ..> DroneService : has

DeliveryRun "1" - - "1" Vehicle :  has a >
DeliveryRun "1" - - "*" Address :  has
DroneService "1" - - "1" DeliveryRun : has associated


@enduml

PlantUML version 1.2021.00(Sun Jan 10 10:25:05 GMT 2021)
(GPL source distribution)
Java Runtime: OpenJDK Runtime Environment
JVM: OpenJDK 64-Bit Server VM
Default Encoding: Cp1252
Language: pt
Country: PT
--></g></svg>