<?xml version="1.0" encoding="UTF-8" standalone="no"?><svg xmlns="http://www.w3.org/2000/svg" xmlns:xlink="http://www.w3.org/1999/xlink" contentScriptType="application/ecmascript" contentStyleType="text/css" height="993px" preserveAspectRatio="none" style="width:1404px;height:993px;" version="1.1" viewBox="0 0 1404 993" width="1404px" zoomAndPan="magnify"><defs><filter height="300%" id="ftzgjr0nzz4lv" width="300%" x="-1" y="-1"><feGaussianBlur result="blurOut" stdDeviation="2.0"/><feColorMatrix in="blurOut" result="blurOut2" type="matrix" values="0 0 0 0 0 0 0 0 0 0 0 0 0 0 0 0 0 0 .4 0"/><feOffset dx="4.0" dy="4.0" in="blurOut2" result="blurOut3"/><feBlend in="SourceGraphic" in2="blurOut3" mode="normal"/></filter></defs><g><!--MD5=[1f2cfc53d9d308f53762fd0fcbaa4873]
cluster Controller--><polygon fill="#DDDDDD" filter="url(#ftzgjr0nzz4lv)" points="945,139,1022,139,1029,162.6094,1387,162.6094,1387,490.5,945,490.5,945,139" style="stroke:#000000;stroke-width:1.5;"/><line style="stroke:#000000;stroke-width:1.5;" x1="945" x2="1029" y1="162.6094" y2="162.6094"/><text fill="#000000" font-family="sans-serif" font-size="14" font-weight="bold" lengthAdjust="spacing" textLength="71" x="949" y="155.5332">Controller</text><!--MD5=[9681dc6e01e10c6b4fe06895ae94f592]
cluster UI--><polygon fill="#DDDDDD" filter="url(#ftzgjr0nzz4lv)" points="1088,6,1108,6,1115,29.6094,1244,29.6094,1244,106,1088,106,1088,6" style="stroke:#000000;stroke-width:1.5;"/><line style="stroke:#000000;stroke-width:1.5;" x1="1088" x2="1115" y1="29.6094" y2="29.6094"/><text fill="#000000" font-family="sans-serif" font-size="14" font-weight="bold" lengthAdjust="spacing" textLength="14" x="1092" y="22.5332">UI</text><!--MD5=[15636c1ca4a123c16a2a1a8e90aca7a9]
cluster Model--><polygon fill="#DDDDDD" filter="url(#ftzgjr0nzz4lv)" points="194,298,244,298,251,321.6094,921,321.6094,921,986,194,986,194,298" style="stroke:#000000;stroke-width:1.5;"/><line style="stroke:#000000;stroke-width:1.5;" x1="194" x2="251" y1="321.6094" y2="321.6094"/><text fill="#000000" font-family="sans-serif" font-size="14" font-weight="bold" lengthAdjust="spacing" textLength="44" x="198" y="314.5332">Model</text><!--MD5=[9dd75fd92da113d30380b27734fd2f01]
cluster Service--><polygon fill="#DDDDDD" filter="url(#ftzgjr0nzz4lv)" points="285,342,345,342,352,365.6094,701,365.6094,701,525,285,525,285,342" style="stroke:#000000;stroke-width:1.5;"/><line style="stroke:#000000;stroke-width:1.5;" x1="285" x2="352" y1="365.6094" y2="365.6094"/><text fill="#000000" font-family="sans-serif" font-size="14" font-weight="bold" lengthAdjust="spacing" textLength="54" x="289" y="358.5332">Service</text><!--MD5=[f21b1f164e99c6b37934f23ad048ad54]
cluster Data--><polygon fill="#DDDDDD" filter="url(#ftzgjr0nzz4lv)" points="16,139,53,139,60,162.6094,170,162.6094,170,497.5,16,497.5,16,139" style="stroke:#000000;stroke-width:1.5;"/><line style="stroke:#000000;stroke-width:1.5;" x1="16" x2="60" y1="162.6094" y2="162.6094"/><text fill="#000000" font-family="sans-serif" font-size="14" font-weight="bold" lengthAdjust="spacing" textLength="31" x="20" y="155.5332">Data</text><!--MD5=[7e40339c58605559321960399585b560]
cluster Utils--><polygon fill="#DDDDDD" filter="url(#ftzgjr0nzz4lv)" points="945,580.5,982,580.5,989,604.1094,1161,604.1094,1161,694.5,945,694.5,945,580.5" style="stroke:#000000;stroke-width:1.5;"/><line style="stroke:#000000;stroke-width:1.5;" x1="945" x2="989" y1="604.1094" y2="604.1094"/><text fill="#000000" font-family="sans-serif" font-size="14" font-weight="bold" lengthAdjust="spacing" textLength="31" x="949" y="597.0332">Utils</text><!--MD5=[e45a4727c47b726c25e081782e8bc183]
class ApplicationPOT--><rect codeLine="5" fill="#FEFECE" filter="url(#ftzgjr0nzz4lv)" height="61.8359" id="ApplicationPOT" style="stroke:#A80036;stroke-width:1.5;" width="116" x="1108" y="412.5"/><ellipse cx="1123" cy="428.5" fill="#ADD1B2" rx="11" ry="11" style="stroke:#A80036;stroke-width:1.0;"/><path d="M1125,425 Q1125.2031,424.5 1125.4375,424.25 Q1125.6719,424 1125.9375,424 Q1126.4063,424 1126.7031,424.2813 Q1127,424.5625 1127,425.2188 L1127,426.7813 Q1127,427.4375 1126.7188,427.7188 Q1126.4375,428 1126,428 Q1125.6094,428 1125.3594,427.8281 Q1125.1094,427.6563 1125,427.2031 Q1124.9531,426.8906 1124.7813,426.7188 Q1124.4688,426.3906 1123.9063,426.2031 Q1123.3438,426 1122.7813,426 Q1122.0781,426 1121.4844,426.2813 Q1120.9063,426.5625 1120.4531,427.1875 Q1120,427.8125 1120,428.6719 L1120,429.5938 Q1120,430.625 1120.8438,431.3125 Q1121.6875,432 1123.1875,432 Q1124.0781,432 1124.7031,431.7969 Q1125.0625,431.6875 1125.4688,431.3281 Q1125.7344,431.125 1125.875,431.0625 Q1126.0156,431 1126.1875,431 Q1126.5156,431 1126.75,431.2656 Q1127,431.5156 1127,431.875 Q1127,432.2188 1126.6563,432.625 Q1126.1563,433.2188 1125.3594,433.5469 Q1124.3125,434 1123.0313,434 Q1121.5313,434 1120.3281,433.4063 Q1119.3594,432.9375 1118.6719,431.9219 Q1118,430.9063 1118,429.7031 L1118,428.6094 Q1118,427.3594 1118.5938,426.2656 Q1119.2031,425.1719 1120.25,424.5938 Q1121.3125,424 1122.5,424 Q1123.2188,424 1123.8438,424.25 Q1124.4688,424.5 1125,425 Z " fill="#000000"/><text fill="#000000" font-family="sans-serif" font-size="12" lengthAdjust="spacing" textLength="84" x="1137" y="433.4102">ApplicationPOT</text><line style="stroke:#A80036;stroke-width:1.5;" x1="1109" x2="1223" y1="444.5" y2="444.5"/><line style="stroke:#A80036;stroke-width:1.5;" x1="1109" x2="1223" y1="452.5" y2="452.5"/><text fill="#000000" font-family="sans-serif" font-size="11" lengthAdjust="spacing" textLength="99" x="1114" y="467.9189">+static getInstance()</text><!--MD5=[1a7fda4a36185bcd740bdf14b2b3a45e]
class RegisterClientController--><rect codeLine="20" fill="#FEFECE" filter="url(#ftzgjr0nzz4lv)" height="75.6719" id="RegisterClientController" style="stroke:#A80036;stroke-width:1.5;" width="410" x="961" y="175"/><ellipse cx="1095.25" cy="191" fill="#ADD1B2" rx="11" ry="11" style="stroke:#A80036;stroke-width:1.0;"/><path d="M1097.25,187.5 Q1097.4531,187 1097.6875,186.75 Q1097.9219,186.5 1098.1875,186.5 Q1098.6563,186.5 1098.9531,186.7813 Q1099.25,187.0625 1099.25,187.7188 L1099.25,189.2813 Q1099.25,189.9375 1098.9688,190.2188 Q1098.6875,190.5 1098.25,190.5 Q1097.8594,190.5 1097.6094,190.3281 Q1097.3594,190.1563 1097.25,189.7031 Q1097.2031,189.3906 1097.0313,189.2188 Q1096.7188,188.8906 1096.1563,188.7031 Q1095.5938,188.5 1095.0313,188.5 Q1094.3281,188.5 1093.7344,188.7813 Q1093.1563,189.0625 1092.7031,189.6875 Q1092.25,190.3125 1092.25,191.1719 L1092.25,192.0938 Q1092.25,193.125 1093.0938,193.8125 Q1093.9375,194.5 1095.4375,194.5 Q1096.3281,194.5 1096.9531,194.2969 Q1097.3125,194.1875 1097.7188,193.8281 Q1097.9844,193.625 1098.125,193.5625 Q1098.2656,193.5 1098.4375,193.5 Q1098.7656,193.5 1099,193.7656 Q1099.25,194.0156 1099.25,194.375 Q1099.25,194.7188 1098.9063,195.125 Q1098.4063,195.7188 1097.6094,196.0469 Q1096.5625,196.5 1095.2813,196.5 Q1093.7813,196.5 1092.5781,195.9063 Q1091.6094,195.4375 1090.9219,194.4219 Q1090.25,193.4063 1090.25,192.2031 L1090.25,191.1094 Q1090.25,189.8594 1090.8438,188.7656 Q1091.4531,187.6719 1092.5,187.0938 Q1093.5625,186.5 1094.75,186.5 Q1095.4688,186.5 1096.0938,186.75 Q1096.7188,187 1097.25,187.5 Z " fill="#000000"/><text fill="#000000" font-family="sans-serif" font-size="12" lengthAdjust="spacing" textLength="133" x="1115.75" y="195.9102">RegisterClientController</text><line style="stroke:#A80036;stroke-width:1.5;" x1="962" x2="1370" y1="207" y2="207"/><line style="stroke:#A80036;stroke-width:1.5;" x1="962" x2="1370" y1="215" y2="215"/><text fill="#000000" font-family="sans-serif" font-size="11" lengthAdjust="spacing" textLength="398" x="967" y="230.4189">+registerNewClient(name,nif,email,password,latitude,longitude,altitude,streetName,</text><text fill="#000000" font-family="sans-serif" font-size="11" lengthAdjust="spacing" textLength="343" x="967" y="244.2549">doorNumber,postalCode,locality,country,creditCardNr,validityDate,CCV)</text><!--MD5=[71152100d89f377ebd8dc97f1c2b0d02]
class RegisterClientUI--><rect codeLine="13" fill="#FEFECE" filter="url(#ftzgjr0nzz4lv)" height="48" id="RegisterClientUI" style="stroke:#A80036;stroke-width:1.5;" width="123" x="1104.5" y="42"/><ellipse cx="1119.5" cy="58" fill="#ADD1B2" rx="11" ry="11" style="stroke:#A80036;stroke-width:1.0;"/><path d="M1121.5,54.5 Q1121.7031,54 1121.9375,53.75 Q1122.1719,53.5 1122.4375,53.5 Q1122.9063,53.5 1123.2031,53.7813 Q1123.5,54.0625 1123.5,54.7188 L1123.5,56.2813 Q1123.5,56.9375 1123.2188,57.2188 Q1122.9375,57.5 1122.5,57.5 Q1122.1094,57.5 1121.8594,57.3281 Q1121.6094,57.1563 1121.5,56.7031 Q1121.4531,56.3906 1121.2813,56.2188 Q1120.9688,55.8906 1120.4063,55.7031 Q1119.8438,55.5 1119.2813,55.5 Q1118.5781,55.5 1117.9844,55.7813 Q1117.4063,56.0625 1116.9531,56.6875 Q1116.5,57.3125 1116.5,58.1719 L1116.5,59.0938 Q1116.5,60.125 1117.3438,60.8125 Q1118.1875,61.5 1119.6875,61.5 Q1120.5781,61.5 1121.2031,61.2969 Q1121.5625,61.1875 1121.9688,60.8281 Q1122.2344,60.625 1122.375,60.5625 Q1122.5156,60.5 1122.6875,60.5 Q1123.0156,60.5 1123.25,60.7656 Q1123.5,61.0156 1123.5,61.375 Q1123.5,61.7188 1123.1563,62.125 Q1122.6563,62.7188 1121.8594,63.0469 Q1120.8125,63.5 1119.5313,63.5 Q1118.0313,63.5 1116.8281,62.9063 Q1115.8594,62.4375 1115.1719,61.4219 Q1114.5,60.4063 1114.5,59.2031 L1114.5,58.1094 Q1114.5,56.8594 1115.0938,55.7656 Q1115.7031,54.6719 1116.75,54.0938 Q1117.8125,53.5 1119,53.5 Q1119.7188,53.5 1120.3438,53.75 Q1120.9688,54 1121.5,54.5 Z " fill="#000000"/><text fill="#000000" font-family="sans-serif" font-size="12" lengthAdjust="spacing" textLength="91" x="1133.5" y="62.9102">RegisterClientUI</text><line style="stroke:#A80036;stroke-width:1.5;" x1="1105.5" x2="1226.5" y1="74" y2="74"/><line style="stroke:#A80036;stroke-width:1.5;" x1="1105.5" x2="1226.5" y1="82" y2="82"/><!--MD5=[3fd616f346a44cd59a91eb10b19e157c]
class User--><rect codeLine="34" fill="#FEFECE" filter="url(#ftzgjr0nzz4lv)" height="131.0156" id="User" style="stroke:#A80036;stroke-width:1.5;" width="170" x="724" y="378"/><ellipse cx="791.75" cy="394" fill="#A9DCDF" rx="11" ry="11" style="stroke:#A80036;stroke-width:1.0;"/><path d="M793.5,395.5 L790.2031,395.5 L789.7656,396.5 L789.7656,396.5 L790.2344,396.5 L790.75,397.125 L790.75,397.5 L790.75,397.875 L790.2344,398.5 L789.7656,398.5 L787.875,398.5 L787.2656,398.5 L786.75,397.875 L786.75,397.5 L786.75,397.125 L787.2656,396.5 L787.875,396.5 L790.1875,390.5 L789.3125,390.5 L788.2656,390.5 L787.75,389.875 L787.75,389.5 L787.75,389.125 L788.2656,388.5 L789.3125,388.5 L792.9844,388.5 L795.6719,396.5 L796.2344,396.5 L796.2344,396.5 L796.75,397.125 L796.75,397.5 L796.75,397.875 L796.2344,398.5 L795.6719,398.5 L793.7813,398.5 L793.2656,398.5 L792.75,397.875 L792.75,397.5 L792.75,397.125 L793.2656,396.5 L793.7813,396.5 L793.7813,396.5 L793.5,395.5 Z M792.9531,393.5 L791.75,389.9219 L790.7188,393.5 L792.9531,393.5 Z " fill="#000000"/><text fill="#000000" font-family="sans-serif" font-size="12" font-style="italic" lengthAdjust="spacing" textLength="26" x="812.25" y="398.9102">User</text><line style="stroke:#A80036;stroke-width:1.5;" x1="725" x2="893" y1="410" y2="410"/><text fill="#000000" font-family="sans-serif" font-size="11" lengthAdjust="spacing" textLength="48" x="730" y="425.4189">-Integer id</text><text fill="#000000" font-family="sans-serif" font-size="11" lengthAdjust="spacing" textLength="59" x="730" y="439.2549">-String email</text><text fill="#000000" font-family="sans-serif" font-size="11" lengthAdjust="spacing" textLength="85" x="730" y="453.0908">-String password</text><text fill="#000000" font-family="sans-serif" font-size="11" lengthAdjust="spacing" textLength="52" x="730" y="466.9268">-Integer nif</text><text fill="#000000" font-family="sans-serif" font-size="11" lengthAdjust="spacing" textLength="61" x="730" y="480.7627">-String name</text><line style="stroke:#A80036;stroke-width:1.5;" x1="725" x2="893" y1="487.1797" y2="487.1797"/><text fill="#000000" font-family="sans-serif" font-size="11" lengthAdjust="spacing" textLength="158" x="730" y="502.5986">+User(email,password,nif,name)</text><!--MD5=[ed6624c6556d5e7b1bd23032162d20b7]
class Client--><rect codeLine="56" fill="#FEFECE" filter="url(#ftzgjr0nzz4lv)" height="117.1797" id="Client" style="stroke:#A80036;stroke-width:1.5;" width="545" x="220.5" y="589"/><ellipse cx="472.75" cy="605" fill="#ADD1B2" rx="11" ry="11" style="stroke:#A80036;stroke-width:1.0;"/><path d="M474.75,601.5 Q474.9531,601 475.1875,600.75 Q475.4219,600.5 475.6875,600.5 Q476.1563,600.5 476.4531,600.7813 Q476.75,601.0625 476.75,601.7188 L476.75,603.2813 Q476.75,603.9375 476.4688,604.2188 Q476.1875,604.5 475.75,604.5 Q475.3594,604.5 475.1094,604.3281 Q474.8594,604.1563 474.75,603.7031 Q474.7031,603.3906 474.5313,603.2188 Q474.2188,602.8906 473.6563,602.7031 Q473.0938,602.5 472.5313,602.5 Q471.8281,602.5 471.2344,602.7813 Q470.6563,603.0625 470.2031,603.6875 Q469.75,604.3125 469.75,605.1719 L469.75,606.0938 Q469.75,607.125 470.5938,607.8125 Q471.4375,608.5 472.9375,608.5 Q473.8281,608.5 474.4531,608.2969 Q474.8125,608.1875 475.2188,607.8281 Q475.4844,607.625 475.625,607.5625 Q475.7656,607.5 475.9375,607.5 Q476.2656,607.5 476.5,607.7656 Q476.75,608.0156 476.75,608.375 Q476.75,608.7188 476.4063,609.125 Q475.9063,609.7188 475.1094,610.0469 Q474.0625,610.5 472.7813,610.5 Q471.2813,610.5 470.0781,609.9063 Q469.1094,609.4375 468.4219,608.4219 Q467.75,607.4063 467.75,606.2031 L467.75,605.1094 Q467.75,603.8594 468.3438,602.7656 Q468.9531,601.6719 470,601.0938 Q471.0625,600.5 472.25,600.5 Q472.9688,600.5 473.5938,600.75 Q474.2188,601 474.75,601.5 Z " fill="#000000"/><text fill="#000000" font-family="sans-serif" font-size="12" lengthAdjust="spacing" textLength="32" x="493.25" y="609.9102">Client</text><line style="stroke:#A80036;stroke-width:1.5;" x1="221.5" x2="764.5" y1="621" y2="621"/><text fill="#000000" font-family="sans-serif" font-size="11" lengthAdjust="spacing" textLength="68" x="226.5" y="636.4189">-String credits</text><text fill="#000000" font-family="sans-serif" font-size="11" lengthAdjust="spacing" textLength="89" x="226.5" y="650.2549">-Address address</text><text fill="#000000" font-family="sans-serif" font-size="11" lengthAdjust="spacing" textLength="108" x="226.5" y="664.0908">-CreditCard creditCard</text><line style="stroke:#A80036;stroke-width:1.5;" x1="221.5" x2="764.5" y1="670.5078" y2="670.5078"/><text fill="#000000" font-family="sans-serif" font-size="11" lengthAdjust="spacing" textLength="533" x="226.5" y="685.9268">+Client(name,nif,email,password,latitude,longitude,altitude,streetName,doorNumber,postalCode,locality,country,</text><text fill="#000000" font-family="sans-serif" font-size="11" lengthAdjust="spacing" textLength="148" x="226.5" y="699.7627">creditCardNr,validityDate,CCV)</text><!--MD5=[0f39e4cb6f03951afbf6d14bd2505654]
class Address--><rect codeLine="64" fill="#FEFECE" filter="url(#ftzgjr0nzz4lv)" height="186.3594" id="Address" style="stroke:#A80036;stroke-width:1.5;" width="438" x="210" y="784"/><ellipse cx="401.75" cy="800" fill="#ADD1B2" rx="11" ry="11" style="stroke:#A80036;stroke-width:1.0;"/><path d="M403.75,796.5 Q403.9531,796 404.1875,795.75 Q404.4219,795.5 404.6875,795.5 Q405.1563,795.5 405.4531,795.7813 Q405.75,796.0625 405.75,796.7188 L405.75,798.2813 Q405.75,798.9375 405.4688,799.2188 Q405.1875,799.5 404.75,799.5 Q404.3594,799.5 404.1094,799.3281 Q403.8594,799.1563 403.75,798.7031 Q403.7031,798.3906 403.5313,798.2188 Q403.2188,797.8906 402.6563,797.7031 Q402.0938,797.5 401.5313,797.5 Q400.8281,797.5 400.2344,797.7813 Q399.6563,798.0625 399.2031,798.6875 Q398.75,799.3125 398.75,800.1719 L398.75,801.0938 Q398.75,802.125 399.5938,802.8125 Q400.4375,803.5 401.9375,803.5 Q402.8281,803.5 403.4531,803.2969 Q403.8125,803.1875 404.2188,802.8281 Q404.4844,802.625 404.625,802.5625 Q404.7656,802.5 404.9375,802.5 Q405.2656,802.5 405.5,802.7656 Q405.75,803.0156 405.75,803.375 Q405.75,803.7188 405.4063,804.125 Q404.9063,804.7188 404.1094,805.0469 Q403.0625,805.5 401.7813,805.5 Q400.2813,805.5 399.0781,804.9063 Q398.1094,804.4375 397.4219,803.4219 Q396.75,802.4063 396.75,801.2031 L396.75,800.1094 Q396.75,798.8594 397.3438,797.7656 Q397.9531,796.6719 399,796.0938 Q400.0625,795.5 401.25,795.5 Q401.9688,795.5 402.5938,795.75 Q403.2188,796 403.75,796.5 Z " fill="#000000"/><text fill="#000000" font-family="sans-serif" font-size="12" lengthAdjust="spacing" textLength="46" x="422.25" y="804.9102">Address</text><line style="stroke:#A80036;stroke-width:1.5;" x1="211" x2="647" y1="816" y2="816"/><text fill="#000000" font-family="sans-serif" font-size="11" lengthAdjust="spacing" textLength="48" x="216" y="831.4189">-Integer id</text><text fill="#000000" font-family="sans-serif" font-size="11" lengthAdjust="spacing" textLength="74" x="216" y="845.2549">-Double latitude</text><text fill="#000000" font-family="sans-serif" font-size="11" lengthAdjust="spacing" textLength="83" x="216" y="859.0908">-Double longitude</text><text fill="#000000" font-family="sans-serif" font-size="11" lengthAdjust="spacing" textLength="74" x="216" y="872.9268">-Double altitude</text><text fill="#000000" font-family="sans-serif" font-size="11" lengthAdjust="spacing" textLength="90" x="216" y="886.7627">-String streetName</text><text fill="#000000" font-family="sans-serif" font-size="11" lengthAdjust="spacing" textLength="94" x="216" y="900.5986">-String doorNumber</text><text fill="#000000" font-family="sans-serif" font-size="11" lengthAdjust="spacing" textLength="89" x="216" y="914.4346">-String postalCode</text><text fill="#000000" font-family="sans-serif" font-size="11" lengthAdjust="spacing" textLength="68" x="216" y="928.2705">-String locality</text><text fill="#000000" font-family="sans-serif" font-size="11" lengthAdjust="spacing" textLength="72" x="216" y="942.1064">-String country</text><line style="stroke:#A80036;stroke-width:1.5;" x1="211" x2="647" y1="948.5234" y2="948.5234"/><text fill="#000000" font-family="sans-serif" font-size="11" lengthAdjust="spacing" textLength="426" x="216" y="963.9424">+Address(latitude,longitude,altitude,streetName,doorNumber,postalCode,locality,country)</text><!--MD5=[91d4151b6d4c9a3d01b6d84b2458eece]
class CreditCard--><rect codeLine="77" fill="#FEFECE" filter="url(#ftzgjr0nzz4lv)" height="103.3438" id="CreditCard" style="stroke:#A80036;stroke-width:1.5;" width="221" x="683.5" y="825.5"/><ellipse cx="759.75" cy="841.5" fill="#ADD1B2" rx="11" ry="11" style="stroke:#A80036;stroke-width:1.0;"/><path d="M761.75,838 Q761.9531,837.5 762.1875,837.25 Q762.4219,837 762.6875,837 Q763.1563,837 763.4531,837.2813 Q763.75,837.5625 763.75,838.2188 L763.75,839.7813 Q763.75,840.4375 763.4688,840.7188 Q763.1875,841 762.75,841 Q762.3594,841 762.1094,840.8281 Q761.8594,840.6563 761.75,840.2031 Q761.7031,839.8906 761.5313,839.7188 Q761.2188,839.3906 760.6563,839.2031 Q760.0938,839 759.5313,839 Q758.8281,839 758.2344,839.2813 Q757.6563,839.5625 757.2031,840.1875 Q756.75,840.8125 756.75,841.6719 L756.75,842.5938 Q756.75,843.625 757.5938,844.3125 Q758.4375,845 759.9375,845 Q760.8281,845 761.4531,844.7969 Q761.8125,844.6875 762.2188,844.3281 Q762.4844,844.125 762.625,844.0625 Q762.7656,844 762.9375,844 Q763.2656,844 763.5,844.2656 Q763.75,844.5156 763.75,844.875 Q763.75,845.2188 763.4063,845.625 Q762.9063,846.2188 762.1094,846.5469 Q761.0625,847 759.7813,847 Q758.2813,847 757.0781,846.4063 Q756.1094,845.9375 755.4219,844.9219 Q754.75,843.9063 754.75,842.7031 L754.75,841.6094 Q754.75,840.3594 755.3438,839.2656 Q755.9531,838.1719 757,837.5938 Q758.0625,837 759.25,837 Q759.9688,837 760.5938,837.25 Q761.2188,837.5 761.75,838 Z " fill="#000000"/><text fill="#000000" font-family="sans-serif" font-size="12" lengthAdjust="spacing" textLength="60" x="780.25" y="846.4102">CreditCard</text><line style="stroke:#A80036;stroke-width:1.5;" x1="684.5" x2="903.5" y1="857.5" y2="857.5"/><text fill="#000000" font-family="sans-serif" font-size="11" lengthAdjust="spacing" textLength="109" x="689.5" y="872.9189">-Long m_creditCardNr;</text><text fill="#000000" font-family="sans-serif" font-size="11" lengthAdjust="spacing" textLength="101" x="689.5" y="886.7549">-Date m_validityDate;</text><text fill="#000000" font-family="sans-serif" font-size="11" lengthAdjust="spacing" textLength="79" x="689.5" y="900.5908">-Integer m_CCV;</text><line style="stroke:#A80036;stroke-width:1.5;" x1="684.5" x2="903.5" y1="907.0078" y2="907.0078"/><text fill="#000000" font-family="sans-serif" font-size="11" lengthAdjust="spacing" textLength="209" x="689.5" y="922.4268">+CreditCard(creditCardNr,validityDate,CCV)</text><!--MD5=[1694002c828dea395e5c4a77f70ed3d4]
class ClientService--><rect codeLine="45" fill="#FEFECE" filter="url(#ftzgjr0nzz4lv)" height="131.0156" id="ClientService" style="stroke:#A80036;stroke-width:1.5;" width="384" x="301" y="378"/><ellipse cx="452.75" cy="394" fill="#ADD1B2" rx="11" ry="11" style="stroke:#A80036;stroke-width:1.0;"/><path d="M454.75,390.5 Q454.9531,390 455.1875,389.75 Q455.4219,389.5 455.6875,389.5 Q456.1563,389.5 456.4531,389.7813 Q456.75,390.0625 456.75,390.7188 L456.75,392.2813 Q456.75,392.9375 456.4688,393.2188 Q456.1875,393.5 455.75,393.5 Q455.3594,393.5 455.1094,393.3281 Q454.8594,393.1563 454.75,392.7031 Q454.7031,392.3906 454.5313,392.2188 Q454.2188,391.8906 453.6563,391.7031 Q453.0938,391.5 452.5313,391.5 Q451.8281,391.5 451.2344,391.7813 Q450.6563,392.0625 450.2031,392.6875 Q449.75,393.3125 449.75,394.1719 L449.75,395.0938 Q449.75,396.125 450.5938,396.8125 Q451.4375,397.5 452.9375,397.5 Q453.8281,397.5 454.4531,397.2969 Q454.8125,397.1875 455.2188,396.8281 Q455.4844,396.625 455.625,396.5625 Q455.7656,396.5 455.9375,396.5 Q456.2656,396.5 456.5,396.7656 Q456.75,397.0156 456.75,397.375 Q456.75,397.7188 456.4063,398.125 Q455.9063,398.7188 455.1094,399.0469 Q454.0625,399.5 452.7813,399.5 Q451.2813,399.5 450.0781,398.9063 Q449.1094,398.4375 448.4219,397.4219 Q447.75,396.4063 447.75,395.2031 L447.75,394.1094 Q447.75,392.8594 448.3438,391.7656 Q448.9531,390.6719 450,390.0938 Q451.0625,389.5 452.25,389.5 Q452.9688,389.5 453.5938,389.75 Q454.2188,390 454.75,390.5 Z " fill="#000000"/><text fill="#000000" font-family="sans-serif" font-size="12" lengthAdjust="spacing" textLength="72" x="473.25" y="398.9102">ClientService</text><line style="stroke:#A80036;stroke-width:1.5;" x1="302" x2="684" y1="410" y2="410"/><line style="stroke:#A80036;stroke-width:1.5;" x1="302" x2="684" y1="418" y2="418"/><text fill="#000000" font-family="sans-serif" font-size="11" lengthAdjust="spacing" textLength="77" x="307" y="433.4189">+ClientService()</text><text fill="#000000" font-family="sans-serif" font-size="11" lengthAdjust="spacing" textLength="372" x="307" y="447.2549">+validateInput(name,nif,email,password,latitude,longitude,altitude,streetName,</text><text fill="#000000" font-family="sans-serif" font-size="11" lengthAdjust="spacing" textLength="343" x="307" y="461.0908">doorNumber,postalCode,locality,country,creditCardNr,validityDate,CCV)</text><text fill="#000000" font-family="sans-serif" font-size="11" lengthAdjust="spacing" textLength="360" x="307" y="474.9268">+newClient(name,nif,email,password,latitude,longitude,altitude,streetName,</text><text fill="#000000" font-family="sans-serif" font-size="11" lengthAdjust="spacing" textLength="343" x="307" y="488.7627">doorNumber,postalCode,locality,country,creditCardNr,validityDate,CCV)</text><text fill="#000000" font-family="sans-serif" font-size="11" lengthAdjust="spacing" textLength="125" x="307" y="502.5986">+registerNewClient(client)</text><!--MD5=[4b2d61224b33971326a22fe5d809d926]
class DataHandler--><rect codeLine="88" fill="#FEFECE" filter="url(#ftzgjr0nzz4lv)" height="75.6719" id="DataHandler" style="stroke:#A80036;stroke-width:1.5;" width="104" x="41" y="175"/><ellipse cx="56.9" cy="191" fill="#ADD1B2" rx="11" ry="11" style="stroke:#A80036;stroke-width:1.0;"/><path d="M58.9,187.5 Q59.1031,187 59.3375,186.75 Q59.5719,186.5 59.8375,186.5 Q60.3063,186.5 60.6031,186.7813 Q60.9,187.0625 60.9,187.7188 L60.9,189.2813 Q60.9,189.9375 60.6188,190.2188 Q60.3375,190.5 59.9,190.5 Q59.5094,190.5 59.2594,190.3281 Q59.0094,190.1563 58.9,189.7031 Q58.8531,189.3906 58.6813,189.2188 Q58.3688,188.8906 57.8063,188.7031 Q57.2438,188.5 56.6813,188.5 Q55.9781,188.5 55.3844,188.7813 Q54.8063,189.0625 54.3531,189.6875 Q53.9,190.3125 53.9,191.1719 L53.9,192.0938 Q53.9,193.125 54.7438,193.8125 Q55.5875,194.5 57.0875,194.5 Q57.9781,194.5 58.6031,194.2969 Q58.9625,194.1875 59.3688,193.8281 Q59.6344,193.625 59.775,193.5625 Q59.9156,193.5 60.0875,193.5 Q60.4156,193.5 60.65,193.7656 Q60.9,194.0156 60.9,194.375 Q60.9,194.7188 60.5563,195.125 Q60.0563,195.7188 59.2594,196.0469 Q58.2125,196.5 56.9313,196.5 Q55.4313,196.5 54.2281,195.9063 Q53.2594,195.4375 52.5719,194.4219 Q51.9,193.4063 51.9,192.2031 L51.9,191.1094 Q51.9,189.8594 52.4938,188.7656 Q53.1031,187.6719 54.15,187.0938 Q55.2125,186.5 56.4,186.5 Q57.1188,186.5 57.7438,186.75 Q58.3688,187 58.9,187.5 Z " fill="#000000"/><text fill="#000000" font-family="sans-serif" font-size="12" lengthAdjust="spacing" textLength="70" x="71.1" y="195.9102">DataHandler</text><line style="stroke:#A80036;stroke-width:1.5;" x1="42" x2="144" y1="207" y2="207"/><line style="stroke:#A80036;stroke-width:1.5;" x1="42" x2="144" y1="215" y2="215"/><text fill="#000000" font-family="sans-serif" font-size="11" lengthAdjust="spacing" textLength="92" x="47" y="230.4189">+openConnection()</text><text fill="#000000" font-family="sans-serif" font-size="11" lengthAdjust="spacing" textLength="52" x="47" y="244.2549">+closeAll()</text><!--MD5=[79201099e7ad95730d4f601b46d6ddd1]
class ClientDB--><rect codeLine="115" fill="#FEFECE" filter="url(#ftzgjr0nzz4lv)" height="75.6719" id="ClientDB" style="stroke:#A80036;stroke-width:1.5;" width="121" x="32.5" y="405.5"/><ellipse cx="65.5" cy="421.5" fill="#ADD1B2" rx="11" ry="11" style="stroke:#A80036;stroke-width:1.0;"/><path d="M67.5,418 Q67.7031,417.5 67.9375,417.25 Q68.1719,417 68.4375,417 Q68.9063,417 69.2031,417.2813 Q69.5,417.5625 69.5,418.2188 L69.5,419.7813 Q69.5,420.4375 69.2188,420.7188 Q68.9375,421 68.5,421 Q68.1094,421 67.8594,420.8281 Q67.6094,420.6563 67.5,420.2031 Q67.4531,419.8906 67.2813,419.7188 Q66.9688,419.3906 66.4063,419.2031 Q65.8438,419 65.2813,419 Q64.5781,419 63.9844,419.2813 Q63.4063,419.5625 62.9531,420.1875 Q62.5,420.8125 62.5,421.6719 L62.5,422.5938 Q62.5,423.625 63.3438,424.3125 Q64.1875,425 65.6875,425 Q66.5781,425 67.2031,424.7969 Q67.5625,424.6875 67.9688,424.3281 Q68.2344,424.125 68.375,424.0625 Q68.5156,424 68.6875,424 Q69.0156,424 69.25,424.2656 Q69.5,424.5156 69.5,424.875 Q69.5,425.2188 69.1563,425.625 Q68.6563,426.2188 67.8594,426.5469 Q66.8125,427 65.5313,427 Q64.0313,427 62.8281,426.4063 Q61.8594,425.9375 61.1719,424.9219 Q60.5,423.9063 60.5,422.7031 L60.5,421.6094 Q60.5,420.3594 61.0938,419.2656 Q61.7031,418.1719 62.75,417.5938 Q63.8125,417 65,417 Q65.7188,417 66.3438,417.25 Q66.9688,417.5 67.5,418 Z " fill="#000000"/><text fill="#000000" font-family="sans-serif" font-size="12" lengthAdjust="spacing" textLength="49" x="83.5" y="426.4102">ClientDB</text><line style="stroke:#A80036;stroke-width:1.5;" x1="33.5" x2="152.5" y1="437.5" y2="437.5"/><line style="stroke:#A80036;stroke-width:1.5;" x1="33.5" x2="152.5" y1="445.5" y2="445.5"/><text fill="#000000" font-family="sans-serif" font-size="11" lengthAdjust="spacing" textLength="54" x="38.5" y="460.9189">+ClientDB()</text><text fill="#000000" font-family="sans-serif" font-size="11" lengthAdjust="spacing" textLength="109" x="38.5" y="474.7549">+addClientToDB(client)</text><!--MD5=[c840dcc083a700c3ead433bcdc35255f]
class EncryptPassword--><rect codeLine="101" fill="#FEFECE" filter="url(#ftzgjr0nzz4lv)" height="61.8359" id="EncryptPassword" style="stroke:#A80036;stroke-width:1.5;" width="184" x="961" y="616.5"/><ellipse cx="1001.2" cy="632.5" fill="#ADD1B2" rx="11" ry="11" style="stroke:#A80036;stroke-width:1.0;"/><path d="M1003.2,629 Q1003.4031,628.5 1003.6375,628.25 Q1003.8719,628 1004.1375,628 Q1004.6063,628 1004.9031,628.2813 Q1005.2,628.5625 1005.2,629.2188 L1005.2,630.7813 Q1005.2,631.4375 1004.9188,631.7188 Q1004.6375,632 1004.2,632 Q1003.8094,632 1003.5594,631.8281 Q1003.3094,631.6563 1003.2,631.2031 Q1003.1531,630.8906 1002.9813,630.7188 Q1002.6688,630.3906 1002.1063,630.2031 Q1001.5438,630 1000.9813,630 Q1000.2781,630 999.6844,630.2813 Q999.1063,630.5625 998.6531,631.1875 Q998.2,631.8125 998.2,632.6719 L998.2,633.5938 Q998.2,634.625 999.0438,635.3125 Q999.8875,636 1001.3875,636 Q1002.2781,636 1002.9031,635.7969 Q1003.2625,635.6875 1003.6688,635.3281 Q1003.9344,635.125 1004.075,635.0625 Q1004.2156,635 1004.3875,635 Q1004.7156,635 1004.95,635.2656 Q1005.2,635.5156 1005.2,635.875 Q1005.2,636.2188 1004.8563,636.625 Q1004.3563,637.2188 1003.5594,637.5469 Q1002.5125,638 1001.2313,638 Q999.7313,638 998.5281,637.4063 Q997.5594,636.9375 996.8719,635.9219 Q996.2,634.9063 996.2,633.7031 L996.2,632.6094 Q996.2,631.3594 996.7938,630.2656 Q997.4031,629.1719 998.45,628.5938 Q999.5125,628 1000.7,628 Q1001.4188,628 1002.0438,628.25 Q1002.6688,628.5 1003.2,629 Z " fill="#000000"/><text fill="#000000" font-family="sans-serif" font-size="12" lengthAdjust="spacing" textLength="96" x="1020.8" y="637.4102">EncryptPassword</text><line style="stroke:#A80036;stroke-width:1.5;" x1="962" x2="1144" y1="648.5" y2="648.5"/><line style="stroke:#A80036;stroke-width:1.5;" x1="962" x2="1144" y1="656.5" y2="656.5"/><text fill="#000000" font-family="sans-serif" font-size="11" lengthAdjust="spacing" textLength="172" x="967" y="671.9189">+encryptPasswordMD5(password)</text><!--MD5=[a605f9a646bac91c0f1ec4bed5c60b13]
reverse link User to Client--><path d="M717.64,521.29 C712.08,525.35 706.51,529.29 701,533 C671.66,552.77 638.56,572.07 607.54,588.98 " fill="none" id="User-backto-Client" style="stroke:#A80036;stroke-width:1.0;"/><polygon fill="none" points="713.49,515.65,733.67,509.18,721.92,526.82,713.49,515.65" style="stroke:#A80036;stroke-width:1.0;"/><!--MD5=[98d2d934d445daef8d5bcbeea20c1f70]
link RegisterClientUI to RegisterClientController--><path codeLine="109" d="M1166,90.3 C1166,111.69 1166,143.89 1166,169.81 " fill="none" id="RegisterClientUI-to-RegisterClientController" style="stroke:#A80036;stroke-width:1.0;stroke-dasharray:7.0,7.0;"/><polygon fill="#A80036" points="1166,174.9,1170,165.9,1166,169.9,1162,165.9,1166,174.9" style="stroke:#A80036;stroke-width:1.0;"/><!--MD5=[d10b0fd9a8ca7db857f4ef882c38a5ac]
link RegisterClientController to ApplicationPOT--><path codeLine="110" d="M1166,251.22 C1166,294.36 1166,364.93 1166,407.22 " fill="none" id="RegisterClientController-to-ApplicationPOT" style="stroke:#A80036;stroke-width:1.0;stroke-dasharray:7.0,7.0;"/><polygon fill="#A80036" points="1166,412.24,1170,403.24,1166,407.24,1162,403.24,1166,412.24" style="stroke:#A80036;stroke-width:1.0;"/><!--MD5=[35b6d6a67e97969833e5f22445dc4a2e]
link RegisterClientController to ClientService--><path codeLine="111" d="M960.97,224.02 C874.26,233.94 773.9,253.14 689,290 C642.64,310.13 597.64,343.8 562.47,374.39 " fill="none" id="RegisterClientController-to-ClientService" style="stroke:#A80036;stroke-width:1.0;stroke-dasharray:7.0,7.0;"/><polygon fill="#A80036" points="558.67,377.72,568.0835,374.824,562.44,374.4356,562.8284,368.7921,558.67,377.72" style="stroke:#A80036;stroke-width:1.0;"/><!--MD5=[0c14ad20ad99024cc361e625c7ea3878]
link ClientService to Client--><path codeLine="112" d="M493,509.25 C493,533.16 493,560.21 493,583.93 " fill="none" id="ClientService-to-Client" style="stroke:#A80036;stroke-width:1.0;"/><polygon fill="#A80036" points="493,588.94,497,579.94,493,583.94,489,579.94,493,588.94" style="stroke:#A80036;stroke-width:1.0;"/><text fill="#000000" font-family="sans-serif" font-size="13" lengthAdjust="spacing" textLength="43" x="494" y="555.4951">creates</text><text fill="#000000" font-family="sans-serif" font-size="13" lengthAdjust="spacing" textLength="7" x="485.6391" y="530.3679">1</text><text fill="#000000" font-family="sans-serif" font-size="13" lengthAdjust="spacing" textLength="5" x="487.6953" y="578.3336">*</text><!--MD5=[6084c45bafb98ee2a46a6fd7dcb03b82]
link ClientService to ClientDB--><path codeLine="113" d="M300.57,443.5 C249.58,443.5 197.95,443.5 158.93,443.5 " fill="none" id="ClientService-to-ClientDB" style="stroke:#A80036;stroke-width:1.0;"/><polygon fill="#A80036" points="153.75,443.5,162.75,447.5,158.75,443.5,162.75,439.5,153.75,443.5" style="stroke:#A80036;stroke-width:1.0;"/><text fill="#000000" font-family="sans-serif" font-size="13" lengthAdjust="spacing" textLength="21" x="216.75" y="436.9951">has</text><text fill="#000000" font-family="sans-serif" font-size="13" lengthAdjust="spacing" textLength="7" x="285.9165" y="440.6892">1</text><text fill="#000000" font-family="sans-serif" font-size="13" lengthAdjust="spacing" textLength="7" x="161.5805" y="440.0615">1</text><!--MD5=[b67798991dcc1b7c511eb5877031188b]
link ClientDB to Client--><path codeLine="114" d="M153.75,475.18 C212.03,504.61 301.62,549.85 374.1,586.45 " fill="none" id="ClientDB-to-Client" style="stroke:#A80036;stroke-width:1.0;"/><polygon fill="#A80036" points="378.85,588.85,372.628,581.2154,374.3894,586.5911,369.0137,588.3525,378.85,588.85" style="stroke:#A80036;stroke-width:1.0;"/><text fill="#000000" font-family="sans-serif" font-size="13" lengthAdjust="spacing" textLength="28" x="317" y="555.4951">adds</text><text fill="#000000" font-family="sans-serif" font-size="13" lengthAdjust="spacing" textLength="7" x="161.5805" y="475.6025">1</text><text fill="#000000" font-family="sans-serif" font-size="13" lengthAdjust="spacing" textLength="5" x="359.6333" y="578.2326">*</text><!--MD5=[3e68ff64a050c8736bbdec119ca630fc]
reverse link DataHandler to ClientDB--><path d="M93,271.44 C93,313.38 93,369.03 93,405.29 " fill="none" id="DataHandler-backto-ClientDB" style="stroke:#A80036;stroke-width:1.0;"/><polygon fill="none" points="86,271.22,93,251.22,100,271.22,86,271.22" style="stroke:#A80036;stroke-width:1.0;"/><!--MD5=[bd708f2371c655af07b49ddbdb30848a]
link Client to Address--><path codeLine="116" d="M449.55,706.12 C444.11,715.69 439.3,725.83 436,736 C431.62,749.5 428.87,764.12 427.24,778.65 " fill="none" id="Client-to-Address" style="stroke:#A80036;stroke-width:1.0;"/><polygon fill="#A80036" points="426.69,783.99,431.5949,775.4494,427.2045,779.0165,423.6373,774.6262,426.69,783.99" style="stroke:#A80036;stroke-width:1.0;"/><text fill="#000000" font-family="sans-serif" font-size="13" lengthAdjust="spacing" textLength="21" x="437" y="750.4951">has</text><text fill="#000000" font-family="sans-serif" font-size="13" lengthAdjust="spacing" textLength="7" x="436.828" y="727.7449">1</text><text fill="#000000" font-family="sans-serif" font-size="13" lengthAdjust="spacing" textLength="7" x="419.2089" y="773.1199">1</text><!--MD5=[0748050afd2139cbb3c9faec3f892ae9]
link Client to CreditCard--><path codeLine="117" d="M569.34,706.2 C616.51,741.85 676.64,787.3 722.82,822.2 " fill="none" id="Client-to-CreditCard" style="stroke:#A80036;stroke-width:1.0;"/><polygon fill="#A80036" points="726.96,825.33,722.1945,816.7109,722.972,822.314,717.3689,823.0916,726.96,825.33" style="stroke:#A80036;stroke-width:1.0;"/><text fill="#000000" font-family="sans-serif" font-size="13" lengthAdjust="spacing" textLength="21" x="626" y="750.4951">has</text><text fill="#000000" font-family="sans-serif" font-size="13" lengthAdjust="spacing" textLength="5" x="573.3393" y="727.8347">*</text><text fill="#000000" font-family="sans-serif" font-size="13" lengthAdjust="spacing" textLength="5" x="712.6156" y="814.8075">*</text><!--MD5=[f3011274975ebac28a81eb7ea4ca3cdc]
link User to EncryptPassword--><path codeLine="118" d="M887.21,509.25 C928.87,543.73 978.38,584.72 1012.38,612.87 " fill="none" id="User-to-EncryptPassword" style="stroke:#A80036;stroke-width:1.0;stroke-dasharray:7.0,7.0;"/><polygon fill="#A80036" points="1016.45,616.24,1012.0935,607.407,1012.6077,613.0405,1006.9743,613.5547,1016.45,616.24" style="stroke:#A80036;stroke-width:1.0;"/><text fill="#000000" font-family="sans-serif" font-size="13" lengthAdjust="spacing" textLength="85" x="946" y="555.4951">encrypts using</text><!--MD5=[ca35b403233ffc65321f01a6170cba60]
@startuml
skinparam classAttributeIconSize 0


package "Controller" #DDDDDD {
class ApplicationPOT
{
  +static getInstance()
}
}


package "UI" #DDDDDD {
class RegisterClientUI{

}
}


package "Controller" #DDDDDD {
class RegisterClientController{
+registerNewClient(name,nif,email,password,latitude,longitude,altitude,streetName,\ndoorNumber,postalCode,locality,country,creditCardNr,validityDate,CCV)
}
}


package "Model" #DDDDDD {






package "Model" #DDDDDD {
abstract class User{
-Integer id
-String email
-String password
-Integer nif
-String name
+User(email,password,nif,name)
}

package Service #DDDDDD {

class ClientService{
+ClientService()
+validateInput(name,nif,email,password,latitude,longitude,altitude,streetName,\ndoorNumber,postalCode,locality,country,creditCardNr,validityDate,CCV)
+newClient(name,nif,email,password,latitude,longitude,altitude,streetName,\ndoorNumber,postalCode,locality,country,creditCardNr,validityDate,CCV)
+registerNewClient(client)
}

}

class Client extends User

class Client{
-String credits
-Address address
-CreditCard creditCard
+Client(name,nif,email,password,latitude,longitude,altitude,streetName,doorNumber,postalCode,locality,country,
                        creditCardNr,validityDate,CCV)
}

class Address{
-Integer id
-Double latitude
-Double longitude
-Double altitude
-String streetName
-String doorNumber
-String postalCode
-String locality
-String country
+Address(latitude,longitude,altitude,streetName,doorNumber,postalCode,locality,country)
}

class CreditCard{
-Long m_creditCardNr;
-Date m_validityDate;
-Integer m_CCV;
+CreditCard(creditCardNr,validityDate,CCV)
}

}


package "Data" #DDDDDD {
class DataHandler{
+openConnection()
+closeAll()
}

 class ClientDB{
 +ClientDB()
 +addClientToDB(client)
 }

}

package "Utils" #DDDDDD {
class EncryptPassword {
+encryptPasswordMD5(password)
}

}



RegisterClientUI ..> RegisterClientController
RegisterClientController ..> ApplicationPOT
RegisterClientController ..> ClientService
ClientService "1" - -> "*" Client : creates
ClientService "1" -> "1" ClientDB : has
ClientDB "1" - -> "*" Client : adds
class ClientDB extends DataHandler
Client "1" - -> "1" Address : has
Client "*" - -> "*" CreditCard : has
User ..> EncryptPassword : encrypts using

@enduml

PlantUML version 1.2021.00(Sun Jan 10 10:25:05 GMT 2021)
(GPL source distribution)
Java Runtime: OpenJDK Runtime Environment
JVM: OpenJDK 64-Bit Server VM
Default Encoding: Cp1252
Language: pt
Country: PT
--></g></svg>