<?xml version="1.0" encoding="UTF-8" standalone="no"?><svg xmlns="http://www.w3.org/2000/svg" xmlns:xlink="http://www.w3.org/1999/xlink" contentScriptType="application/ecmascript" contentStyleType="text/css" height="993px" preserveAspectRatio="none" style="width:1404px;height:993px;" version="1.1" viewBox="0 0 1404 993" width="1404px" zoomAndPan="magnify"><defs><filter height="300%" id="f1riur5t3die6q" width="300%" x="-1" y="-1"><feGaussianBlur result="blurOut" stdDeviation="2.0"/><feColorMatrix in="blurOut" result="blurOut2" type="matrix" values="0 0 0 0 0 0 0 0 0 0 0 0 0 0 0 0 0 0 .4 0"/><feOffset dx="4.0" dy="4.0" in="blurOut2" result="blurOut3"/><feBlend in="SourceGraphic" in2="blurOut3" mode="normal"/></filter></defs><g><!--MD5=[1f2cfc53d9d308f53762fd0fcbaa4873]
cluster Controller--><polygon fill="#DDDDDD" filter="url(#f1riur5t3die6q)" points="945,139,1022,139,1029,162.6094,1387,162.6094,1387,490.5,945,490.5,945,139" style="stroke:#000000;stroke-width:1.5;"/><line style="stroke:#000000;stroke-width:1.5;" x1="945" x2="1029" y1="162.6094" y2="162.6094"/><text fill="#000000" font-family="sans-serif" font-size="14" font-weight="bold" lengthAdjust="spacing" textLength="71" x="949" y="155.5332">Controller</text><!--MD5=[9681dc6e01e10c6b4fe06895ae94f592]
cluster UI--><polygon fill="#DDDDDD" filter="url(#f1riur5t3die6q)" points="1088,6,1108,6,1115,29.6094,1244,29.6094,1244,106,1088,106,1088,6" style="stroke:#000000;stroke-width:1.5;"/><line style="stroke:#000000;stroke-width:1.5;" x1="1088" x2="1115" y1="29.6094" y2="29.6094"/><text fill="#000000" font-family="sans-serif" font-size="14" font-weight="bold" lengthAdjust="spacing" textLength="14" x="1092" y="22.5332">UI</text><!--MD5=[15636c1ca4a123c16a2a1a8e90aca7a9]
cluster Model--><polygon fill="#DDDDDD" filter="url(#f1riur5t3die6q)" points="194,298,244,298,251,321.6094,921,321.6094,921,986,194,986,194,298" style="stroke:#000000;stroke-width:1.5;"/><line style="stroke:#000000;stroke-width:1.5;" x1="194" x2="251" y1="321.6094" y2="321.6094"/><text fill="#000000" font-family="sans-serif" font-size="14" font-weight="bold" lengthAdjust="spacing" textLength="44" x="198" y="314.5332">Model</text><!--MD5=[9dd75fd92da113d30380b27734fd2f01]
cluster Service--><polygon fill="#DDDDDD" filter="url(#f1riur5t3die6q)" points="300,342,360,342,367,365.6094,716,365.6094,716,525,300,525,300,342" style="stroke:#000000;stroke-width:1.5;"/><line style="stroke:#000000;stroke-width:1.5;" x1="300" x2="367" y1="365.6094" y2="365.6094"/><text fill="#000000" font-family="sans-serif" font-size="14" font-weight="bold" lengthAdjust="spacing" textLength="54" x="304" y="358.5332">Service</text><!--MD5=[f21b1f164e99c6b37934f23ad048ad54]
cluster Data--><polygon fill="#DDDDDD" filter="url(#f1riur5t3die6q)" points="16,139,53,139,60,162.6094,170,162.6094,170,497.5,16,497.5,16,139" style="stroke:#000000;stroke-width:1.5;"/><line style="stroke:#000000;stroke-width:1.5;" x1="16" x2="60" y1="162.6094" y2="162.6094"/><text fill="#000000" font-family="sans-serif" font-size="14" font-weight="bold" lengthAdjust="spacing" textLength="31" x="20" y="155.5332">Data</text><!--MD5=[7e40339c58605559321960399585b560]
cluster Utils--><polygon fill="#DDDDDD" filter="url(#f1riur5t3die6q)" points="945,580.5,982,580.5,989,604.1094,1360,604.1094,1360,694.5,945,694.5,945,580.5" style="stroke:#000000;stroke-width:1.5;"/><line style="stroke:#000000;stroke-width:1.5;" x1="945" x2="989" y1="604.1094" y2="604.1094"/><text fill="#000000" font-family="sans-serif" font-size="14" font-weight="bold" lengthAdjust="spacing" textLength="31" x="949" y="597.0332">Utils</text><!--MD5=[e45a4727c47b726c25e081782e8bc183]
class ApplicationPOT--><rect codeLine="5" fill="#FEFECE" filter="url(#f1riur5t3die6q)" height="61.8359" id="ApplicationPOT" style="stroke:#A80036;stroke-width:1.5;" width="116" x="1108" y="412.5"/><ellipse cx="1123" cy="428.5" fill="#ADD1B2" rx="11" ry="11" style="stroke:#A80036;stroke-width:1.0;"/><path d="M1125,425 Q1125.2031,424.5 1125.4375,424.25 Q1125.6719,424 1125.9375,424 Q1126.4063,424 1126.7031,424.2813 Q1127,424.5625 1127,425.2188 L1127,426.7813 Q1127,427.4375 1126.7188,427.7188 Q1126.4375,428 1126,428 Q1125.6094,428 1125.3594,427.8281 Q1125.1094,427.6563 1125,427.2031 Q1124.9531,426.8906 1124.7813,426.7188 Q1124.4688,426.3906 1123.9063,426.2031 Q1123.3438,426 1122.7813,426 Q1122.0781,426 1121.4844,426.2813 Q1120.9063,426.5625 1120.4531,427.1875 Q1120,427.8125 1120,428.6719 L1120,429.5938 Q1120,430.625 1120.8438,431.3125 Q1121.6875,432 1123.1875,432 Q1124.0781,432 1124.7031,431.7969 Q1125.0625,431.6875 1125.4688,431.3281 Q1125.7344,431.125 1125.875,431.0625 Q1126.0156,431 1126.1875,431 Q1126.5156,431 1126.75,431.2656 Q1127,431.5156 1127,431.875 Q1127,432.2188 1126.6563,432.625 Q1126.1563,433.2188 1125.3594,433.5469 Q1124.3125,434 1123.0313,434 Q1121.5313,434 1120.3281,433.4063 Q1119.3594,432.9375 1118.6719,431.9219 Q1118,430.9063 1118,429.7031 L1118,428.6094 Q1118,427.3594 1118.5938,426.2656 Q1119.2031,425.1719 1120.25,424.5938 Q1121.3125,424 1122.5,424 Q1123.2188,424 1123.8438,424.25 Q1124.4688,424.5 1125,425 Z " fill="#000000"/><text fill="#000000" font-family="sans-serif" font-size="12" lengthAdjust="spacing" textLength="84" x="1137" y="433.4102">ApplicationPOT</text><line style="stroke:#A80036;stroke-width:1.5;" x1="1109" x2="1223" y1="444.5" y2="444.5"/><line style="stroke:#A80036;stroke-width:1.5;" x1="1109" x2="1223" y1="452.5" y2="452.5"/><text fill="#000000" font-family="sans-serif" font-size="11" lengthAdjust="spacing" textLength="99" x="1114" y="467.9189">+static getInstance()</text><!--MD5=[1a7fda4a36185bcd740bdf14b2b3a45e]
class RegisterClientController--><rect codeLine="20" fill="#FEFECE" filter="url(#f1riur5t3die6q)" height="75.6719" id="RegisterClientController" style="stroke:#A80036;stroke-width:1.5;" width="410" x="961" y="175"/><ellipse cx="1095.25" cy="191" fill="#ADD1B2" rx="11" ry="11" style="stroke:#A80036;stroke-width:1.0;"/><path d="M1097.25,187.5 Q1097.4531,187 1097.6875,186.75 Q1097.9219,186.5 1098.1875,186.5 Q1098.6563,186.5 1098.9531,186.7813 Q1099.25,187.0625 1099.25,187.7188 L1099.25,189.2813 Q1099.25,189.9375 1098.9688,190.2188 Q1098.6875,190.5 1098.25,190.5 Q1097.8594,190.5 1097.6094,190.3281 Q1097.3594,190.1563 1097.25,189.7031 Q1097.2031,189.3906 1097.0313,189.2188 Q1096.7188,188.8906 1096.1563,188.7031 Q1095.5938,188.5 1095.0313,188.5 Q1094.3281,188.5 1093.7344,188.7813 Q1093.1563,189.0625 1092.7031,189.6875 Q1092.25,190.3125 1092.25,191.1719 L1092.25,192.0938 Q1092.25,193.125 1093.0938,193.8125 Q1093.9375,194.5 1095.4375,194.5 Q1096.3281,194.5 1096.9531,194.2969 Q1097.3125,194.1875 1097.7188,193.8281 Q1097.9844,193.625 1098.125,193.5625 Q1098.2656,193.5 1098.4375,193.5 Q1098.7656,193.5 1099,193.7656 Q1099.25,194.0156 1099.25,194.375 Q1099.25,194.7188 1098.9063,195.125 Q1098.4063,195.7188 1097.6094,196.0469 Q1096.5625,196.5 1095.2813,196.5 Q1093.7813,196.5 1092.5781,195.9063 Q1091.6094,195.4375 1090.9219,194.4219 Q1090.25,193.4063 1090.25,192.2031 L1090.25,191.1094 Q1090.25,189.8594 1090.8438,188.7656 Q1091.4531,187.6719 1092.5,187.0938 Q1093.5625,186.5 1094.75,186.5 Q1095.4688,186.5 1096.0938,186.75 Q1096.7188,187 1097.25,187.5 Z " fill="#000000"/><text fill="#000000" font-family="sans-serif" font-size="12" lengthAdjust="spacing" textLength="133" x="1115.75" y="195.9102">RegisterClientController</text><line style="stroke:#A80036;stroke-width:1.5;" x1="962" x2="1370" y1="207" y2="207"/><line style="stroke:#A80036;stroke-width:1.5;" x1="962" x2="1370" y1="215" y2="215"/><text fill="#000000" font-family="sans-serif" font-size="11" lengthAdjust="spacing" textLength="398" x="967" y="230.4189">+registerNewClient(name,nif,email,password,latitude,longitude,altitude,streetName,</text><text fill="#000000" font-family="sans-serif" font-size="11" lengthAdjust="spacing" textLength="343" x="967" y="244.2549">doorNumber,postalCode,locality,country,creditCardNr,validityDate,CCV)</text><!--MD5=[71152100d89f377ebd8dc97f1c2b0d02]
class RegisterClientUI--><rect codeLine="13" fill="#FEFECE" filter="url(#f1riur5t3die6q)" height="48" id="RegisterClientUI" style="stroke:#A80036;stroke-width:1.5;" width="123" x="1104.5" y="42"/><ellipse cx="1119.5" cy="58" fill="#ADD1B2" rx="11" ry="11" style="stroke:#A80036;stroke-width:1.0;"/><path d="M1121.5,54.5 Q1121.7031,54 1121.9375,53.75 Q1122.1719,53.5 1122.4375,53.5 Q1122.9063,53.5 1123.2031,53.7813 Q1123.5,54.0625 1123.5,54.7188 L1123.5,56.2813 Q1123.5,56.9375 1123.2188,57.2188 Q1122.9375,57.5 1122.5,57.5 Q1122.1094,57.5 1121.8594,57.3281 Q1121.6094,57.1563 1121.5,56.7031 Q1121.4531,56.3906 1121.2813,56.2188 Q1120.9688,55.8906 1120.4063,55.7031 Q1119.8438,55.5 1119.2813,55.5 Q1118.5781,55.5 1117.9844,55.7813 Q1117.4063,56.0625 1116.9531,56.6875 Q1116.5,57.3125 1116.5,58.1719 L1116.5,59.0938 Q1116.5,60.125 1117.3438,60.8125 Q1118.1875,61.5 1119.6875,61.5 Q1120.5781,61.5 1121.2031,61.2969 Q1121.5625,61.1875 1121.9688,60.8281 Q1122.2344,60.625 1122.375,60.5625 Q1122.5156,60.5 1122.6875,60.5 Q1123.0156,60.5 1123.25,60.7656 Q1123.5,61.0156 1123.5,61.375 Q1123.5,61.7188 1123.1563,62.125 Q1122.6563,62.7188 1121.8594,63.0469 Q1120.8125,63.5 1119.5313,63.5 Q1118.0313,63.5 1116.8281,62.9063 Q1115.8594,62.4375 1115.1719,61.4219 Q1114.5,60.4063 1114.5,59.2031 L1114.5,58.1094 Q1114.5,56.8594 1115.0938,55.7656 Q1115.7031,54.6719 1116.75,54.0938 Q1117.8125,53.5 1119,53.5 Q1119.7188,53.5 1120.3438,53.75 Q1120.9688,54 1121.5,54.5 Z " fill="#000000"/><text fill="#000000" font-family="sans-serif" font-size="12" lengthAdjust="spacing" textLength="91" x="1133.5" y="62.9102">RegisterClientUI</text><line style="stroke:#A80036;stroke-width:1.5;" x1="1105.5" x2="1226.5" y1="74" y2="74"/><line style="stroke:#A80036;stroke-width:1.5;" x1="1105.5" x2="1226.5" y1="82" y2="82"/><!--MD5=[3fd616f346a44cd59a91eb10b19e157c]
class User--><rect codeLine="34" fill="#FEFECE" filter="url(#f1riur5t3die6q)" height="131.0156" id="User" style="stroke:#A80036;stroke-width:1.5;" width="170" x="735" y="378"/><ellipse cx="802.75" cy="394" fill="#A9DCDF" rx="11" ry="11" style="stroke:#A80036;stroke-width:1.0;"/><path d="M804.5,395.5 L801.2031,395.5 L800.7656,396.5 L800.7656,396.5 L801.2344,396.5 L801.75,397.125 L801.75,397.5 L801.75,397.875 L801.2344,398.5 L800.7656,398.5 L798.875,398.5 L798.2656,398.5 L797.75,397.875 L797.75,397.5 L797.75,397.125 L798.2656,396.5 L798.875,396.5 L801.1875,390.5 L800.3125,390.5 L799.2656,390.5 L798.75,389.875 L798.75,389.5 L798.75,389.125 L799.2656,388.5 L800.3125,388.5 L803.9844,388.5 L806.6719,396.5 L807.2344,396.5 L807.2344,396.5 L807.75,397.125 L807.75,397.5 L807.75,397.875 L807.2344,398.5 L806.6719,398.5 L804.7813,398.5 L804.2656,398.5 L803.75,397.875 L803.75,397.5 L803.75,397.125 L804.2656,396.5 L804.7813,396.5 L804.7813,396.5 L804.5,395.5 Z M803.9531,393.5 L802.75,389.9219 L801.7188,393.5 L803.9531,393.5 Z " fill="#000000"/><text fill="#000000" font-family="sans-serif" font-size="12" font-style="italic" lengthAdjust="spacing" textLength="26" x="823.25" y="398.9102">User</text><line style="stroke:#A80036;stroke-width:1.5;" x1="736" x2="904" y1="410" y2="410"/><text fill="#000000" font-family="sans-serif" font-size="11" lengthAdjust="spacing" textLength="48" x="741" y="425.4189">-Integer id</text><text fill="#000000" font-family="sans-serif" font-size="11" lengthAdjust="spacing" textLength="59" x="741" y="439.2549">-String email</text><text fill="#000000" font-family="sans-serif" font-size="11" lengthAdjust="spacing" textLength="85" x="741" y="453.0908">-String password</text><text fill="#000000" font-family="sans-serif" font-size="11" lengthAdjust="spacing" textLength="52" x="741" y="466.9268">-Integer nif</text><text fill="#000000" font-family="sans-serif" font-size="11" lengthAdjust="spacing" textLength="61" x="741" y="480.7627">-String name</text><line style="stroke:#A80036;stroke-width:1.5;" x1="736" x2="904" y1="487.1797" y2="487.1797"/><text fill="#000000" font-family="sans-serif" font-size="11" lengthAdjust="spacing" textLength="158" x="741" y="502.5986">+User(email,password,nif,name)</text><!--MD5=[ed6624c6556d5e7b1bd23032162d20b7]
class Client--><rect codeLine="56" fill="#FEFECE" filter="url(#f1riur5t3die6q)" height="117.1797" id="Client" style="stroke:#A80036;stroke-width:1.5;" width="545" x="235.5" y="589"/><ellipse cx="487.75" cy="605" fill="#ADD1B2" rx="11" ry="11" style="stroke:#A80036;stroke-width:1.0;"/><path d="M489.75,601.5 Q489.9531,601 490.1875,600.75 Q490.4219,600.5 490.6875,600.5 Q491.1563,600.5 491.4531,600.7813 Q491.75,601.0625 491.75,601.7188 L491.75,603.2813 Q491.75,603.9375 491.4688,604.2188 Q491.1875,604.5 490.75,604.5 Q490.3594,604.5 490.1094,604.3281 Q489.8594,604.1563 489.75,603.7031 Q489.7031,603.3906 489.5313,603.2188 Q489.2188,602.8906 488.6563,602.7031 Q488.0938,602.5 487.5313,602.5 Q486.8281,602.5 486.2344,602.7813 Q485.6563,603.0625 485.2031,603.6875 Q484.75,604.3125 484.75,605.1719 L484.75,606.0938 Q484.75,607.125 485.5938,607.8125 Q486.4375,608.5 487.9375,608.5 Q488.8281,608.5 489.4531,608.2969 Q489.8125,608.1875 490.2188,607.8281 Q490.4844,607.625 490.625,607.5625 Q490.7656,607.5 490.9375,607.5 Q491.2656,607.5 491.5,607.7656 Q491.75,608.0156 491.75,608.375 Q491.75,608.7188 491.4063,609.125 Q490.9063,609.7188 490.1094,610.0469 Q489.0625,610.5 487.7813,610.5 Q486.2813,610.5 485.0781,609.9063 Q484.1094,609.4375 483.4219,608.4219 Q482.75,607.4063 482.75,606.2031 L482.75,605.1094 Q482.75,603.8594 483.3438,602.7656 Q483.9531,601.6719 485,601.0938 Q486.0625,600.5 487.25,600.5 Q487.9688,600.5 488.5938,600.75 Q489.2188,601 489.75,601.5 Z " fill="#000000"/><text fill="#000000" font-family="sans-serif" font-size="12" lengthAdjust="spacing" textLength="32" x="508.25" y="609.9102">Client</text><line style="stroke:#A80036;stroke-width:1.5;" x1="236.5" x2="779.5" y1="621" y2="621"/><text fill="#000000" font-family="sans-serif" font-size="11" lengthAdjust="spacing" textLength="68" x="241.5" y="636.4189">-String credits</text><text fill="#000000" font-family="sans-serif" font-size="11" lengthAdjust="spacing" textLength="89" x="241.5" y="650.2549">-Address address</text><text fill="#000000" font-family="sans-serif" font-size="11" lengthAdjust="spacing" textLength="108" x="241.5" y="664.0908">-CreditCard creditCard</text><line style="stroke:#A80036;stroke-width:1.5;" x1="236.5" x2="779.5" y1="670.5078" y2="670.5078"/><text fill="#000000" font-family="sans-serif" font-size="11" lengthAdjust="spacing" textLength="533" x="241.5" y="685.9268">+Client(name,nif,email,password,latitude,longitude,altitude,streetName,doorNumber,postalCode,locality,country,</text><text fill="#000000" font-family="sans-serif" font-size="11" lengthAdjust="spacing" textLength="148" x="241.5" y="699.7627">creditCardNr,validityDate,CCV)</text><!--MD5=[0f39e4cb6f03951afbf6d14bd2505654]
class Address--><rect codeLine="64" fill="#FEFECE" filter="url(#f1riur5t3die6q)" height="186.3594" id="Address" style="stroke:#A80036;stroke-width:1.5;" width="438" x="210" y="784"/><ellipse cx="401.75" cy="800" fill="#ADD1B2" rx="11" ry="11" style="stroke:#A80036;stroke-width:1.0;"/><path d="M403.75,796.5 Q403.9531,796 404.1875,795.75 Q404.4219,795.5 404.6875,795.5 Q405.1563,795.5 405.4531,795.7813 Q405.75,796.0625 405.75,796.7188 L405.75,798.2813 Q405.75,798.9375 405.4688,799.2188 Q405.1875,799.5 404.75,799.5 Q404.3594,799.5 404.1094,799.3281 Q403.8594,799.1563 403.75,798.7031 Q403.7031,798.3906 403.5313,798.2188 Q403.2188,797.8906 402.6563,797.7031 Q402.0938,797.5 401.5313,797.5 Q400.8281,797.5 400.2344,797.7813 Q399.6563,798.0625 399.2031,798.6875 Q398.75,799.3125 398.75,800.1719 L398.75,801.0938 Q398.75,802.125 399.5938,802.8125 Q400.4375,803.5 401.9375,803.5 Q402.8281,803.5 403.4531,803.2969 Q403.8125,803.1875 404.2188,802.8281 Q404.4844,802.625 404.625,802.5625 Q404.7656,802.5 404.9375,802.5 Q405.2656,802.5 405.5,802.7656 Q405.75,803.0156 405.75,803.375 Q405.75,803.7188 405.4063,804.125 Q404.9063,804.7188 404.1094,805.0469 Q403.0625,805.5 401.7813,805.5 Q400.2813,805.5 399.0781,804.9063 Q398.1094,804.4375 397.4219,803.4219 Q396.75,802.4063 396.75,801.2031 L396.75,800.1094 Q396.75,798.8594 397.3438,797.7656 Q397.9531,796.6719 399,796.0938 Q400.0625,795.5 401.25,795.5 Q401.9688,795.5 402.5938,795.75 Q403.2188,796 403.75,796.5 Z " fill="#000000"/><text fill="#000000" font-family="sans-serif" font-size="12" lengthAdjust="spacing" textLength="46" x="422.25" y="804.9102">Address</text><line style="stroke:#A80036;stroke-width:1.5;" x1="211" x2="647" y1="816" y2="816"/><text fill="#000000" font-family="sans-serif" font-size="11" lengthAdjust="spacing" textLength="48" x="216" y="831.4189">-Integer id</text><text fill="#000000" font-family="sans-serif" font-size="11" lengthAdjust="spacing" textLength="74" x="216" y="845.2549">-Double latitude</text><text fill="#000000" font-family="sans-serif" font-size="11" lengthAdjust="spacing" textLength="83" x="216" y="859.0908">-Double longitude</text><text fill="#000000" font-family="sans-serif" font-size="11" lengthAdjust="spacing" textLength="74" x="216" y="872.9268">-Double altitude</text><text fill="#000000" font-family="sans-serif" font-size="11" lengthAdjust="spacing" textLength="90" x="216" y="886.7627">-String streetName</text><text fill="#000000" font-family="sans-serif" font-size="11" lengthAdjust="spacing" textLength="94" x="216" y="900.5986">-String doorNumber</text><text fill="#000000" font-family="sans-serif" font-size="11" lengthAdjust="spacing" textLength="89" x="216" y="914.4346">-String postalCode</text><text fill="#000000" font-family="sans-serif" font-size="11" lengthAdjust="spacing" textLength="68" x="216" y="928.2705">-String locality</text><text fill="#000000" font-family="sans-serif" font-size="11" lengthAdjust="spacing" textLength="72" x="216" y="942.1064">-String country</text><line style="stroke:#A80036;stroke-width:1.5;" x1="211" x2="647" y1="948.5234" y2="948.5234"/><text fill="#000000" font-family="sans-serif" font-size="11" lengthAdjust="spacing" textLength="426" x="216" y="963.9424">+Address(latitude,longitude,altitude,streetName,doorNumber,postalCode,locality,country)</text><!--MD5=[91d4151b6d4c9a3d01b6d84b2458eece]
class CreditCard--><rect codeLine="77" fill="#FEFECE" filter="url(#f1riur5t3die6q)" height="103.3438" id="CreditCard" style="stroke:#A80036;stroke-width:1.5;" width="221" x="683.5" y="825.5"/><ellipse cx="759.75" cy="841.5" fill="#ADD1B2" rx="11" ry="11" style="stroke:#A80036;stroke-width:1.0;"/><path d="M761.75,838 Q761.9531,837.5 762.1875,837.25 Q762.4219,837 762.6875,837 Q763.1563,837 763.4531,837.2813 Q763.75,837.5625 763.75,838.2188 L763.75,839.7813 Q763.75,840.4375 763.4688,840.7188 Q763.1875,841 762.75,841 Q762.3594,841 762.1094,840.8281 Q761.8594,840.6563 761.75,840.2031 Q761.7031,839.8906 761.5313,839.7188 Q761.2188,839.3906 760.6563,839.2031 Q760.0938,839 759.5313,839 Q758.8281,839 758.2344,839.2813 Q757.6563,839.5625 757.2031,840.1875 Q756.75,840.8125 756.75,841.6719 L756.75,842.5938 Q756.75,843.625 757.5938,844.3125 Q758.4375,845 759.9375,845 Q760.8281,845 761.4531,844.7969 Q761.8125,844.6875 762.2188,844.3281 Q762.4844,844.125 762.625,844.0625 Q762.7656,844 762.9375,844 Q763.2656,844 763.5,844.2656 Q763.75,844.5156 763.75,844.875 Q763.75,845.2188 763.4063,845.625 Q762.9063,846.2188 762.1094,846.5469 Q761.0625,847 759.7813,847 Q758.2813,847 757.0781,846.4063 Q756.1094,845.9375 755.4219,844.9219 Q754.75,843.9063 754.75,842.7031 L754.75,841.6094 Q754.75,840.3594 755.3438,839.2656 Q755.9531,838.1719 757,837.5938 Q758.0625,837 759.25,837 Q759.9688,837 760.5938,837.25 Q761.2188,837.5 761.75,838 Z " fill="#000000"/><text fill="#000000" font-family="sans-serif" font-size="12" lengthAdjust="spacing" textLength="60" x="780.25" y="846.4102">CreditCard</text><line style="stroke:#A80036;stroke-width:1.5;" x1="684.5" x2="903.5" y1="857.5" y2="857.5"/><text fill="#000000" font-family="sans-serif" font-size="11" lengthAdjust="spacing" textLength="109" x="689.5" y="872.9189">-Long m_creditCardNr;</text><text fill="#000000" font-family="sans-serif" font-size="11" lengthAdjust="spacing" textLength="101" x="689.5" y="886.7549">-Date m_validityDate;</text><text fill="#000000" font-family="sans-serif" font-size="11" lengthAdjust="spacing" textLength="79" x="689.5" y="900.5908">-Integer m_CCV;</text><line style="stroke:#A80036;stroke-width:1.5;" x1="684.5" x2="903.5" y1="907.0078" y2="907.0078"/><text fill="#000000" font-family="sans-serif" font-size="11" lengthAdjust="spacing" textLength="209" x="689.5" y="922.4268">+CreditCard(creditCardNr,validityDate,CCV)</text><!--MD5=[1694002c828dea395e5c4a77f70ed3d4]
class ClientService--><rect codeLine="45" fill="#FEFECE" filter="url(#f1riur5t3die6q)" height="131.0156" id="ClientService" style="stroke:#A80036;stroke-width:1.5;" width="384" x="316" y="378"/><ellipse cx="467.75" cy="394" fill="#ADD1B2" rx="11" ry="11" style="stroke:#A80036;stroke-width:1.0;"/><path d="M469.75,390.5 Q469.9531,390 470.1875,389.75 Q470.4219,389.5 470.6875,389.5 Q471.1563,389.5 471.4531,389.7813 Q471.75,390.0625 471.75,390.7188 L471.75,392.2813 Q471.75,392.9375 471.4688,393.2188 Q471.1875,393.5 470.75,393.5 Q470.3594,393.5 470.1094,393.3281 Q469.8594,393.1563 469.75,392.7031 Q469.7031,392.3906 469.5313,392.2188 Q469.2188,391.8906 468.6563,391.7031 Q468.0938,391.5 467.5313,391.5 Q466.8281,391.5 466.2344,391.7813 Q465.6563,392.0625 465.2031,392.6875 Q464.75,393.3125 464.75,394.1719 L464.75,395.0938 Q464.75,396.125 465.5938,396.8125 Q466.4375,397.5 467.9375,397.5 Q468.8281,397.5 469.4531,397.2969 Q469.8125,397.1875 470.2188,396.8281 Q470.4844,396.625 470.625,396.5625 Q470.7656,396.5 470.9375,396.5 Q471.2656,396.5 471.5,396.7656 Q471.75,397.0156 471.75,397.375 Q471.75,397.7188 471.4063,398.125 Q470.9063,398.7188 470.1094,399.0469 Q469.0625,399.5 467.7813,399.5 Q466.2813,399.5 465.0781,398.9063 Q464.1094,398.4375 463.4219,397.4219 Q462.75,396.4063 462.75,395.2031 L462.75,394.1094 Q462.75,392.8594 463.3438,391.7656 Q463.9531,390.6719 465,390.0938 Q466.0625,389.5 467.25,389.5 Q467.9688,389.5 468.5938,389.75 Q469.2188,390 469.75,390.5 Z " fill="#000000"/><text fill="#000000" font-family="sans-serif" font-size="12" lengthAdjust="spacing" textLength="72" x="488.25" y="398.9102">ClientService</text><line style="stroke:#A80036;stroke-width:1.5;" x1="317" x2="699" y1="410" y2="410"/><line style="stroke:#A80036;stroke-width:1.5;" x1="317" x2="699" y1="418" y2="418"/><text fill="#000000" font-family="sans-serif" font-size="11" lengthAdjust="spacing" textLength="77" x="322" y="433.4189">+ClientService()</text><text fill="#000000" font-family="sans-serif" font-size="11" lengthAdjust="spacing" textLength="372" x="322" y="447.2549">+validateInput(name,nif,email,password,latitude,longitude,altitude,streetName,</text><text fill="#000000" font-family="sans-serif" font-size="11" lengthAdjust="spacing" textLength="343" x="322" y="461.0908">doorNumber,postalCode,locality,country,creditCardNr,validityDate,CCV)</text><text fill="#000000" font-family="sans-serif" font-size="11" lengthAdjust="spacing" textLength="360" x="322" y="474.9268">+newClient(name,nif,email,password,latitude,longitude,altitude,streetName,</text><text fill="#000000" font-family="sans-serif" font-size="11" lengthAdjust="spacing" textLength="343" x="322" y="488.7627">doorNumber,postalCode,locality,country,creditCardNr,validityDate,CCV)</text><text fill="#000000" font-family="sans-serif" font-size="11" lengthAdjust="spacing" textLength="125" x="322" y="502.5986">+registerNewClient(client)</text><!--MD5=[4b2d61224b33971326a22fe5d809d926]
class DataHandler--><rect codeLine="88" fill="#FEFECE" filter="url(#f1riur5t3die6q)" height="75.6719" id="DataHandler" style="stroke:#A80036;stroke-width:1.5;" width="104" x="41" y="175"/><ellipse cx="56.9" cy="191" fill="#ADD1B2" rx="11" ry="11" style="stroke:#A80036;stroke-width:1.0;"/><path d="M58.9,187.5 Q59.1031,187 59.3375,186.75 Q59.5719,186.5 59.8375,186.5 Q60.3063,186.5 60.6031,186.7813 Q60.9,187.0625 60.9,187.7188 L60.9,189.2813 Q60.9,189.9375 60.6188,190.2188 Q60.3375,190.5 59.9,190.5 Q59.5094,190.5 59.2594,190.3281 Q59.0094,190.1563 58.9,189.7031 Q58.8531,189.3906 58.6813,189.2188 Q58.3688,188.8906 57.8063,188.7031 Q57.2438,188.5 56.6813,188.5 Q55.9781,188.5 55.3844,188.7813 Q54.8063,189.0625 54.3531,189.6875 Q53.9,190.3125 53.9,191.1719 L53.9,192.0938 Q53.9,193.125 54.7438,193.8125 Q55.5875,194.5 57.0875,194.5 Q57.9781,194.5 58.6031,194.2969 Q58.9625,194.1875 59.3688,193.8281 Q59.6344,193.625 59.775,193.5625 Q59.9156,193.5 60.0875,193.5 Q60.4156,193.5 60.65,193.7656 Q60.9,194.0156 60.9,194.375 Q60.9,194.7188 60.5563,195.125 Q60.0563,195.7188 59.2594,196.0469 Q58.2125,196.5 56.9313,196.5 Q55.4313,196.5 54.2281,195.9063 Q53.2594,195.4375 52.5719,194.4219 Q51.9,193.4063 51.9,192.2031 L51.9,191.1094 Q51.9,189.8594 52.4938,188.7656 Q53.1031,187.6719 54.15,187.0938 Q55.2125,186.5 56.4,186.5 Q57.1188,186.5 57.7438,186.75 Q58.3688,187 58.9,187.5 Z " fill="#000000"/><text fill="#000000" font-family="sans-serif" font-size="12" lengthAdjust="spacing" textLength="70" x="71.1" y="195.9102">DataHandler</text><line style="stroke:#A80036;stroke-width:1.5;" x1="42" x2="144" y1="207" y2="207"/><line style="stroke:#A80036;stroke-width:1.5;" x1="42" x2="144" y1="215" y2="215"/><text fill="#000000" font-family="sans-serif" font-size="11" lengthAdjust="spacing" textLength="92" x="47" y="230.4189">+openConnection()</text><text fill="#000000" font-family="sans-serif" font-size="11" lengthAdjust="spacing" textLength="52" x="47" y="244.2549">+closeAll()</text><!--MD5=[79201099e7ad95730d4f601b46d6ddd1]
class ClientDB--><rect codeLine="121" fill="#FEFECE" filter="url(#f1riur5t3die6q)" height="75.6719" id="ClientDB" style="stroke:#A80036;stroke-width:1.5;" width="121" x="32.5" y="405.5"/><ellipse cx="65.5" cy="421.5" fill="#ADD1B2" rx="11" ry="11" style="stroke:#A80036;stroke-width:1.0;"/><path d="M67.5,418 Q67.7031,417.5 67.9375,417.25 Q68.1719,417 68.4375,417 Q68.9063,417 69.2031,417.2813 Q69.5,417.5625 69.5,418.2188 L69.5,419.7813 Q69.5,420.4375 69.2188,420.7188 Q68.9375,421 68.5,421 Q68.1094,421 67.8594,420.8281 Q67.6094,420.6563 67.5,420.2031 Q67.4531,419.8906 67.2813,419.7188 Q66.9688,419.3906 66.4063,419.2031 Q65.8438,419 65.2813,419 Q64.5781,419 63.9844,419.2813 Q63.4063,419.5625 62.9531,420.1875 Q62.5,420.8125 62.5,421.6719 L62.5,422.5938 Q62.5,423.625 63.3438,424.3125 Q64.1875,425 65.6875,425 Q66.5781,425 67.2031,424.7969 Q67.5625,424.6875 67.9688,424.3281 Q68.2344,424.125 68.375,424.0625 Q68.5156,424 68.6875,424 Q69.0156,424 69.25,424.2656 Q69.5,424.5156 69.5,424.875 Q69.5,425.2188 69.1563,425.625 Q68.6563,426.2188 67.8594,426.5469 Q66.8125,427 65.5313,427 Q64.0313,427 62.8281,426.4063 Q61.8594,425.9375 61.1719,424.9219 Q60.5,423.9063 60.5,422.7031 L60.5,421.6094 Q60.5,420.3594 61.0938,419.2656 Q61.7031,418.1719 62.75,417.5938 Q63.8125,417 65,417 Q65.7188,417 66.3438,417.25 Q66.9688,417.5 67.5,418 Z " fill="#000000"/><text fill="#000000" font-family="sans-serif" font-size="12" lengthAdjust="spacing" textLength="49" x="83.5" y="426.4102">ClientDB</text><line style="stroke:#A80036;stroke-width:1.5;" x1="33.5" x2="152.5" y1="437.5" y2="437.5"/><line style="stroke:#A80036;stroke-width:1.5;" x1="33.5" x2="152.5" y1="445.5" y2="445.5"/><text fill="#000000" font-family="sans-serif" font-size="11" lengthAdjust="spacing" textLength="54" x="38.5" y="460.9189">+ClientDB()</text><text fill="#000000" font-family="sans-serif" font-size="11" lengthAdjust="spacing" textLength="109" x="38.5" y="474.7549">+addClientToDB(client)</text><!--MD5=[c840dcc083a700c3ead433bcdc35255f]
class EncryptPassword--><rect codeLine="101" fill="#FEFECE" filter="url(#f1riur5t3die6q)" height="61.8359" id="EncryptPassword" style="stroke:#A80036;stroke-width:1.5;" width="184" x="1160" y="616.5"/><ellipse cx="1200.2" cy="632.5" fill="#ADD1B2" rx="11" ry="11" style="stroke:#A80036;stroke-width:1.0;"/><path d="M1202.2,629 Q1202.4031,628.5 1202.6375,628.25 Q1202.8719,628 1203.1375,628 Q1203.6063,628 1203.9031,628.2813 Q1204.2,628.5625 1204.2,629.2188 L1204.2,630.7813 Q1204.2,631.4375 1203.9188,631.7188 Q1203.6375,632 1203.2,632 Q1202.8094,632 1202.5594,631.8281 Q1202.3094,631.6563 1202.2,631.2031 Q1202.1531,630.8906 1201.9813,630.7188 Q1201.6688,630.3906 1201.1063,630.2031 Q1200.5438,630 1199.9813,630 Q1199.2781,630 1198.6844,630.2813 Q1198.1063,630.5625 1197.6531,631.1875 Q1197.2,631.8125 1197.2,632.6719 L1197.2,633.5938 Q1197.2,634.625 1198.0438,635.3125 Q1198.8875,636 1200.3875,636 Q1201.2781,636 1201.9031,635.7969 Q1202.2625,635.6875 1202.6688,635.3281 Q1202.9344,635.125 1203.075,635.0625 Q1203.2156,635 1203.3875,635 Q1203.7156,635 1203.95,635.2656 Q1204.2,635.5156 1204.2,635.875 Q1204.2,636.2188 1203.8563,636.625 Q1203.3563,637.2188 1202.5594,637.5469 Q1201.5125,638 1200.2313,638 Q1198.7313,638 1197.5281,637.4063 Q1196.5594,636.9375 1195.8719,635.9219 Q1195.2,634.9063 1195.2,633.7031 L1195.2,632.6094 Q1195.2,631.3594 1195.7938,630.2656 Q1196.4031,629.1719 1197.45,628.5938 Q1198.5125,628 1199.7,628 Q1200.4188,628 1201.0438,628.25 Q1201.6688,628.5 1202.2,629 Z " fill="#000000"/><text fill="#000000" font-family="sans-serif" font-size="12" lengthAdjust="spacing" textLength="96" x="1219.8" y="637.4102">EncryptPassword</text><line style="stroke:#A80036;stroke-width:1.5;" x1="1161" x2="1343" y1="648.5" y2="648.5"/><line style="stroke:#A80036;stroke-width:1.5;" x1="1161" x2="1343" y1="656.5" y2="656.5"/><text fill="#000000" font-family="sans-serif" font-size="11" lengthAdjust="spacing" textLength="172" x="1166" y="671.9189">+encryptPasswordMD5(password)</text><!--MD5=[dbd744789a27dfb7a38205596e031569]
class EmailSender--><rect codeLine="105" fill="#FEFECE" filter="url(#f1riur5t3die6q)" height="61.8359" id="EmailSender" style="stroke:#A80036;stroke-width:1.5;" width="163" x="961.5" y="616.5"/><ellipse cx="1003.05" cy="632.5" fill="#ADD1B2" rx="11" ry="11" style="stroke:#A80036;stroke-width:1.0;"/><path d="M1005.05,629 Q1005.2531,628.5 1005.4875,628.25 Q1005.7219,628 1005.9875,628 Q1006.4563,628 1006.7531,628.2813 Q1007.05,628.5625 1007.05,629.2188 L1007.05,630.7813 Q1007.05,631.4375 1006.7688,631.7188 Q1006.4875,632 1006.05,632 Q1005.6594,632 1005.4094,631.8281 Q1005.1594,631.6563 1005.05,631.2031 Q1005.0031,630.8906 1004.8313,630.7188 Q1004.5188,630.3906 1003.9563,630.2031 Q1003.3938,630 1002.8313,630 Q1002.1281,630 1001.5344,630.2813 Q1000.9563,630.5625 1000.5031,631.1875 Q1000.05,631.8125 1000.05,632.6719 L1000.05,633.5938 Q1000.05,634.625 1000.8938,635.3125 Q1001.7375,636 1003.2375,636 Q1004.1281,636 1004.7531,635.7969 Q1005.1125,635.6875 1005.5188,635.3281 Q1005.7844,635.125 1005.925,635.0625 Q1006.0656,635 1006.2375,635 Q1006.5656,635 1006.8,635.2656 Q1007.05,635.5156 1007.05,635.875 Q1007.05,636.2188 1006.7063,636.625 Q1006.2063,637.2188 1005.4094,637.5469 Q1004.3625,638 1003.0813,638 Q1001.5813,638 1000.3781,637.4063 Q999.4094,636.9375 998.7219,635.9219 Q998.05,634.9063 998.05,633.7031 L998.05,632.6094 Q998.05,631.3594 998.6438,630.2656 Q999.2531,629.1719 1000.3,628.5938 Q1001.3625,628 1002.55,628 Q1003.2688,628 1003.8938,628.25 Q1004.5188,628.5 1005.05,629 Z " fill="#000000"/><text fill="#000000" font-family="sans-serif" font-size="12" lengthAdjust="spacing" textLength="72" x="1022.95" y="637.4102">EmailSender</text><line style="stroke:#A80036;stroke-width:1.5;" x1="962.5" x2="1123.5" y1="648.5" y2="648.5"/><line style="stroke:#A80036;stroke-width:1.5;" x1="962.5" x2="1123.5" y1="656.5" y2="656.5"/><text fill="#000000" font-family="sans-serif" font-size="11" lengthAdjust="spacing" textLength="151" x="967.5" y="671.9189">+sendEmail(email,subject,body)</text><!--MD5=[a605f9a646bac91c0f1ec4bed5c60b13]
reverse link User to Client--><path d="M732.04,521.44 C726.69,525.46 721.32,529.34 716,533 C687.1,552.87 654.38,572.09 623.59,588.89 " fill="none" id="User-backto-Client" style="stroke:#A80036;stroke-width:1.0;"/><polygon fill="none" points="727.84,515.83,747.92,509.07,736.44,526.88,727.84,515.83" style="stroke:#A80036;stroke-width:1.0;"/><!--MD5=[98d2d934d445daef8d5bcbeea20c1f70]
link RegisterClientUI to RegisterClientController--><path codeLine="114" d="M1166,90.3 C1166,111.69 1166,143.89 1166,169.81 " fill="none" id="RegisterClientUI-to-RegisterClientController" style="stroke:#A80036;stroke-width:1.0;stroke-dasharray:7.0,7.0;"/><polygon fill="#A80036" points="1166,174.9,1170,165.9,1166,169.9,1162,165.9,1166,174.9" style="stroke:#A80036;stroke-width:1.0;"/><!--MD5=[d10b0fd9a8ca7db857f4ef882c38a5ac]
link RegisterClientController to ApplicationPOT--><path codeLine="115" d="M1166,251.22 C1166,294.36 1166,364.93 1166,407.22 " fill="none" id="RegisterClientController-to-ApplicationPOT" style="stroke:#A80036;stroke-width:1.0;stroke-dasharray:7.0,7.0;"/><polygon fill="#A80036" points="1166,412.24,1170,403.24,1166,407.24,1162,403.24,1166,412.24" style="stroke:#A80036;stroke-width:1.0;"/><!--MD5=[35b6d6a67e97969833e5f22445dc4a2e]
link RegisterClientController to ClientService--><path codeLine="116" d="M960.8,225.72 C878.36,235.99 784.07,255 704,290 C657.69,310.25 612.69,343.93 577.52,374.49 " fill="none" id="RegisterClientController-to-ClientService" style="stroke:#A80036;stroke-width:1.0;stroke-dasharray:7.0,7.0;"/><polygon fill="#A80036" points="573.71,377.82,583.1172,374.9038,577.4729,374.5275,577.8492,368.8832,573.71,377.82" style="stroke:#A80036;stroke-width:1.0;"/><!--MD5=[0c14ad20ad99024cc361e625c7ea3878]
link ClientService to Client--><path codeLine="117" d="M508,509.25 C508,533.16 508,560.21 508,583.93 " fill="none" id="ClientService-to-Client" style="stroke:#A80036;stroke-width:1.0;"/><polygon fill="#A80036" points="508,588.94,512,579.94,508,583.94,504,579.94,508,588.94" style="stroke:#A80036;stroke-width:1.0;"/><text fill="#000000" font-family="sans-serif" font-size="13" lengthAdjust="spacing" textLength="43" x="509" y="555.4951">creates</text><text fill="#000000" font-family="sans-serif" font-size="13" lengthAdjust="spacing" textLength="7" x="500.6391" y="530.3679">1</text><text fill="#000000" font-family="sans-serif" font-size="13" lengthAdjust="spacing" textLength="5" x="502.6953" y="578.3336">*</text><!--MD5=[6084c45bafb98ee2a46a6fd7dcb03b82]
link ClientService to ClientDB--><path codeLine="118" d="M315.6,443.5 C259.29,443.5 201.49,443.5 158.91,443.5 " fill="none" id="ClientService-to-ClientDB" style="stroke:#A80036;stroke-width:1.0;"/><polygon fill="#A80036" points="153.79,443.5,162.79,447.5,158.79,443.5,162.79,439.5,153.79,443.5" style="stroke:#A80036;stroke-width:1.0;"/><text fill="#000000" font-family="sans-serif" font-size="13" lengthAdjust="spacing" textLength="21" x="224.25" y="436.9951">has</text><text fill="#000000" font-family="sans-serif" font-size="13" lengthAdjust="spacing" textLength="7" x="300.9477" y="440.6892">1</text><text fill="#000000" font-family="sans-serif" font-size="13" lengthAdjust="spacing" textLength="7" x="161.6253" y="440.0615">1</text><!--MD5=[92df39b912f566aead566551e042e14a]
link ClientService to EmailSender--><path codeLine="119" d="M634.34,509.07 C657.05,518.49 680.87,527.01 704,533 C745.88,543.84 758.67,532.08 801,541 C824.93,546.04 829.39,552.6 853,559 C882.74,567.06 892.28,561.34 921,572.5 C947.73,582.89 975.24,599.02 997.35,613.57 " fill="none" id="ClientService-to-EmailSender" style="stroke:#A80036;stroke-width:1.0;"/><polygon fill="#A80036" points="1001.7,616.45,996.3974,608.1504,997.5288,613.693,991.9862,614.8244,1001.7,616.45" style="stroke:#A80036;stroke-width:1.0;"/><text fill="#000000" font-family="sans-serif" font-size="13" lengthAdjust="spacing" textLength="105" x="854" y="555.4951">sends email using</text><text fill="#000000" font-family="sans-serif" font-size="13" lengthAdjust="spacing" textLength="7" x="640.7756" y="530.6302">1</text><text fill="#000000" font-family="sans-serif" font-size="13" lengthAdjust="spacing" textLength="7" x="984.9" y="605.4593">1</text><!--MD5=[b67798991dcc1b7c511eb5877031188b]
link ClientDB to Client--><path codeLine="120" d="M153.79,474.09 C214.27,503.53 308.8,549.54 385,586.63 " fill="none" id="ClientDB-to-Client" style="stroke:#A80036;stroke-width:1.0;"/><polygon fill="#A80036" points="389.53,588.84,383.182,581.3098,385.0325,586.6555,379.6868,588.5059,389.53,588.84" style="stroke:#A80036;stroke-width:1.0;"/><text fill="#000000" font-family="sans-serif" font-size="13" lengthAdjust="spacing" textLength="28" x="326" y="555.4951">adds</text><text fill="#000000" font-family="sans-serif" font-size="13" lengthAdjust="spacing" textLength="7" x="161.6253" y="474.3797">1</text><text fill="#000000" font-family="sans-serif" font-size="13" lengthAdjust="spacing" textLength="5" x="369.7868" y="578.2214">*</text><!--MD5=[3e68ff64a050c8736bbdec119ca630fc]
reverse link DataHandler to ClientDB--><path d="M93,271.44 C93,313.38 93,369.03 93,405.29 " fill="none" id="DataHandler-backto-ClientDB" style="stroke:#A80036;stroke-width:1.0;"/><polygon fill="none" points="86,271.22,93,251.22,100,271.22,86,271.22" style="stroke:#A80036;stroke-width:1.0;"/><!--MD5=[bd708f2371c655af07b49ddbdb30848a]
link Client to Address--><path codeLine="122" d="M487.96,706.2 C480.29,728.29 471.32,754.14 462.71,778.92 " fill="none" id="Client-to-Address" style="stroke:#A80036;stroke-width:1.0;"/><polygon fill="#A80036" points="461,783.85,467.7321,776.6612,462.6409,779.1269,460.1752,774.0357,461,783.85" style="stroke:#A80036;stroke-width:1.0;"/><text fill="#000000" font-family="sans-serif" font-size="13" lengthAdjust="spacing" textLength="21" x="476" y="750.4951">has</text><text fill="#000000" font-family="sans-serif" font-size="13" lengthAdjust="spacing" textLength="7" x="478.0911" y="727.8347">1</text><text fill="#000000" font-family="sans-serif" font-size="13" lengthAdjust="spacing" textLength="7" x="456.2711" y="773.2844">1</text><!--MD5=[0748050afd2139cbb3c9faec3f892ae9]
link Client to CreditCard--><path codeLine="123" d="M580.54,706.2 C625.36,741.85 682.49,787.3 726.36,822.2 " fill="none" id="Client-to-CreditCard" style="stroke:#A80036;stroke-width:1.0;"/><polygon fill="#A80036" points="730.3,825.33,725.7476,816.5964,726.3873,822.217,720.7667,822.8567,730.3,825.33" style="stroke:#A80036;stroke-width:1.0;"/><text fill="#000000" font-family="sans-serif" font-size="13" lengthAdjust="spacing" textLength="21" x="634" y="750.4951">has</text><text fill="#000000" font-family="sans-serif" font-size="13" lengthAdjust="spacing" textLength="5" x="584.0761" y="727.8347">*</text><text fill="#000000" font-family="sans-serif" font-size="13" lengthAdjust="spacing" textLength="5" x="716.4044" y="814.8075">*</text><!--MD5=[f3011274975ebac28a81eb7ea4ca3cdc]
link User to EncryptPassword--><path codeLine="124" d="M901.16,509.14 C915.21,518.19 930.11,526.58 945,533 C1027,568.35 1059.58,538.13 1142,572.5 C1166.29,582.63 1190.83,598.47 1210.55,612.91 " fill="none" id="User-to-EncryptPassword" style="stroke:#A80036;stroke-width:1.0;"/><polygon fill="#A80036" points="1214.94,616.16,1210.0714,607.5986,1210.9162,613.1921,1205.3227,614.0368,1214.94,616.16" style="stroke:#A80036;stroke-width:1.0;"/><text fill="#000000" font-family="sans-serif" font-size="13" lengthAdjust="spacing" textLength="85" x="1098" y="555.4951">encrypts using</text><!--MD5=[cbc173ae2b885c01202e0f02b1f6b3b7]
@startuml
skinparam classAttributeIconSize 0


package "Controller" #DDDDDD {
class ApplicationPOT
{
  +static getInstance()
}
}


package "UI" #DDDDDD {
class RegisterClientUI{

}
}


package "Controller" #DDDDDD {
class RegisterClientController{
+registerNewClient(name,nif,email,password,latitude,longitude,altitude,streetName,\ndoorNumber,postalCode,locality,country,creditCardNr,validityDate,CCV)
}
}


package "Model" #DDDDDD {






package "Model" #DDDDDD {
abstract class User{
-Integer id
-String email
-String password
-Integer nif
-String name
+User(email,password,nif,name)
}

package Service #DDDDDD {

class ClientService{
+ClientService()
+validateInput(name,nif,email,password,latitude,longitude,altitude,streetName,\ndoorNumber,postalCode,locality,country,creditCardNr,validityDate,CCV)
+newClient(name,nif,email,password,latitude,longitude,altitude,streetName,\ndoorNumber,postalCode,locality,country,creditCardNr,validityDate,CCV)
+registerNewClient(client)
}

}

class Client extends User

class Client{
-String credits
-Address address
-CreditCard creditCard
+Client(name,nif,email,password,latitude,longitude,altitude,streetName,doorNumber,postalCode,locality,country,
                        creditCardNr,validityDate,CCV)
}

class Address{
-Integer id
-Double latitude
-Double longitude
-Double altitude
-String streetName
-String doorNumber
-String postalCode
-String locality
-String country
+Address(latitude,longitude,altitude,streetName,doorNumber,postalCode,locality,country)
}

class CreditCard{
-Long m_creditCardNr;
-Date m_validityDate;
-Integer m_CCV;
+CreditCard(creditCardNr,validityDate,CCV)
}

}


package "Data" #DDDDDD {
class DataHandler{
+openConnection()
+closeAll()
}

 class ClientDB{
 +ClientDB()
 +addClientToDB(client)
 }

}

package "Utils" #DDDDDD {
class EncryptPassword {
+encryptPasswordMD5(password)
}

class EmailSender {
+sendEmail(email,subject,body)
}


}



RegisterClientUI ..> RegisterClientController
RegisterClientController ..> ApplicationPOT
RegisterClientController ..> ClientService
ClientService "1" - -> "*" Client : creates
ClientService "1" -> "1" ClientDB : has
ClientService "1" - -> "1" EmailSender : sends email using
ClientDB "1" - -> "*" Client : adds
class ClientDB extends DataHandler
Client "1" - -> "1" Address : has
Client "*" - -> "*" CreditCard : has
User - -> EncryptPassword : encrypts using

@enduml

PlantUML version 1.2021.00(Sun Jan 10 10:25:05 GMT 2021)
(GPL source distribution)
Java Runtime: OpenJDK Runtime Environment
JVM: OpenJDK 64-Bit Server VM
Default Encoding: Cp1252
Language: pt
Country: PT
--></g></svg>