<?xml version="1.0" encoding="UTF-8" standalone="no"?><svg xmlns="http://www.w3.org/2000/svg" xmlns:xlink="http://www.w3.org/1999/xlink" contentScriptType="application/ecmascript" contentStyleType="text/css" height="695.2px" preserveAspectRatio="none" style="width:1433px;height:695px;" version="1.1" viewBox="0 0 1433 695" width="1433.6px" zoomAndPan="magnify"><defs><filter height="300%" id="f7e32linkj6zx" width="300%" x="-1" y="-1"><feGaussianBlur result="blurOut" stdDeviation="1.6"/><feColorMatrix in="blurOut" result="blurOut2" type="matrix" values="0 0 0 0 0 0 0 0 0 0 0 0 0 0 0 0 0 0 .4 0"/><feOffset dx="3.2" dy="3.2" in="blurOut2" result="blurOut3"/><feBlend in="SourceGraphic" in2="blurOut3" mode="normal"/></filter></defs><g><!--MD5=[1f2cfc53d9d308f53762fd0fcbaa4873]
cluster Controller--><polygon fill="#DDDDDD" filter="url(#f7e32linkj6zx)" points="552.8,111.2,614.4,111.2,620,130.0875,738.4,130.0875,738.4,386.8,552.8,386.8,552.8,111.2" style="stroke:#000000;stroke-width:1.2000000000000002;"/><line style="stroke:#000000;stroke-width:1.2000000000000002;" x1="552.8" x2="620" y1="130.0875" y2="130.0875"/><text fill="#000000" font-family="sans-serif" font-size="11.2" font-weight="bold" lengthAdjust="spacing" textLength="56.8" x="556" y="124.4266">Controller</text><!--MD5=[f21b1f164e99c6b37934f23ad048ad54]
cluster Data--><polygon fill="#DDDDDD" filter="url(#f7e32linkj6zx)" points="12.8,284.4,42.4,284.4,48,303.2875,533.6,303.2875,533.6,566.4,12.8,566.4,12.8,284.4" style="stroke:#000000;stroke-width:1.2000000000000002;"/><line style="stroke:#000000;stroke-width:1.2000000000000002;" x1="12.8" x2="48" y1="303.2875" y2="303.2875"/><text fill="#000000" font-family="sans-serif" font-size="11.2" font-weight="bold" lengthAdjust="spacing" textLength="24.8" x="16" y="297.6266">Data</text><!--MD5=[9681dc6e01e10c6b4fe06895ae94f592]
cluster UI--><polygon fill="#DDDDDD" filter="url(#f7e32linkj6zx)" points="569.6,4.8,585.6,4.8,591.2,23.6875,721.6,23.6875,721.6,84.8,569.6,84.8,569.6,4.8" style="stroke:#000000;stroke-width:1.2000000000000002;"/><line style="stroke:#000000;stroke-width:1.2000000000000002;" x1="569.6" x2="591.2" y1="23.6875" y2="23.6875"/><text fill="#000000" font-family="sans-serif" font-size="11.2" font-weight="bold" lengthAdjust="spacing" textLength="11.2" x="572.8" y="18.0266">UI</text><!--MD5=[15636c1ca4a123c16a2a1a8e90aca7a9]
cluster Model--><polygon fill="#DDDDDD" filter="url(#f7e32linkj6zx)" points="757.6,227.2,797.6,227.2,803.2,246.0875,1420,246.0875,1420,689.6,757.6,689.6,757.6,227.2" style="stroke:#000000;stroke-width:1.2000000000000002;"/><line style="stroke:#000000;stroke-width:1.2000000000000002;" x1="757.6" x2="803.2" y1="246.0875" y2="246.0875"/><text fill="#000000" font-family="sans-serif" font-size="11.2" font-weight="bold" lengthAdjust="spacing" textLength="35.2" x="760.8" y="240.4266">Model</text><!--MD5=[9dd75fd92da113d30380b27734fd2f01]
cluster Service--><polygon fill="#DDDDDD" filter="url(#f7e32linkj6zx)" points="869.6,262.4,917.6,262.4,923.2,281.2875,1400.8,281.2875,1400.8,408.8,869.6,408.8,869.6,262.4" style="stroke:#000000;stroke-width:1.2000000000000002;"/><line style="stroke:#000000;stroke-width:1.2000000000000002;" x1="869.6" x2="923.2" y1="281.2875" y2="281.2875"/><text fill="#000000" font-family="sans-serif" font-size="11.2" font-weight="bold" lengthAdjust="spacing" textLength="43.2" x="872.8" y="275.6266">Service</text><!--MD5=[e45a4727c47b726c25e081782e8bc183]
class ApplicationPOT--><rect codeLine="5" fill="#FEFECE" filter="url(#f7e32linkj6zx)" height="60.5375" id="ApplicationPOT" style="stroke:#A80036;stroke-width:1.2000000000000002;" width="123.2" x="596.8" y="313.2"/><ellipse cx="622.48" cy="326" fill="#ADD1B2" rx="8.8" ry="8.8" style="stroke:#A80036;stroke-width:0.8;"/><path d="M624.08,323.2 Q624.2425,322.8 624.43,322.6 Q624.6175,322.4 624.83,322.4 Q625.205,322.4 625.4425,322.625 Q625.68,322.85 625.68,323.375 L625.68,324.625 Q625.68,325.15 625.455,325.375 Q625.23,325.6 624.88,325.6 Q624.5675,325.6 624.3675,325.4625 Q624.1675,325.325 624.08,324.9625 Q624.0425,324.7125 623.905,324.575 Q623.655,324.3125 623.205,324.1625 Q622.755,324 622.305,324 Q621.7425,324 621.2675,324.225 Q620.805,324.45 620.4425,324.95 Q620.08,325.45 620.08,326.1375 L620.08,326.875 Q620.08,327.7 620.755,328.25 Q621.43,328.8 622.63,328.8 Q623.3425,328.8 623.8425,328.6375 Q624.13,328.55 624.455,328.2625 Q624.6675,328.1 624.78,328.05 Q624.8925,328 625.03,328 Q625.2925,328 625.48,328.2125 Q625.68,328.4125 625.68,328.7 Q625.68,328.975 625.405,329.3 Q625.005,329.775 624.3675,330.0375 Q623.53,330.4 622.505,330.4 Q621.305,330.4 620.3425,329.925 Q619.5675,329.55 619.0175,328.7375 Q618.48,327.925 618.48,326.9625 L618.48,326.0875 Q618.48,325.0875 618.955,324.2125 Q619.4425,323.3375 620.28,322.875 Q621.13,322.4 622.08,322.4 Q622.655,322.4 623.155,322.6 Q623.655,322.8 624.08,323.2 Z " fill="#000000"/><text fill="#000000" font-family="sans-serif" font-size="9.6" lengthAdjust="spacing" textLength="67.2" x="636.72" y="329.9281">ApplicationPOT</text><line style="stroke:#A80036;stroke-width:1.2000000000000002;" x1="597.6" x2="719.2" y1="338.8" y2="338.8"/><line style="stroke:#A80036;stroke-width:1.2000000000000002;" x1="597.6" x2="719.2" y1="345.2" y2="345.2"/><text fill="#000000" font-family="sans-serif" font-size="8.8" lengthAdjust="spacing" textLength="79.2" x="601.6" y="357.5352">+static getInstance()</text><text fill="#000000" font-family="sans-serif" font-size="8.8" lengthAdjust="spacing" textLength="113.6" x="601.6" y="368.6039">+getCurrentSession(session)</text><!--MD5=[f01fb6f833aa9a112f02b2f0746b832b]
class RegisterDeliveryRunController--><rect codeLine="50" fill="#FEFECE" filter="url(#f7e32linkj6zx)" height="49.4688" id="RegisterDeliveryRunController" style="stroke:#A80036;stroke-width:1.2000000000000002;" width="159.2" x="566" y="140"/><ellipse cx="578" cy="152.8" fill="#ADD1B2" rx="8.8" ry="8.8" style="stroke:#A80036;stroke-width:0.8;"/><path d="M579.6,150 Q579.7625,149.6 579.95,149.4 Q580.1375,149.2 580.35,149.2 Q580.725,149.2 580.9625,149.425 Q581.2,149.65 581.2,150.175 L581.2,151.425 Q581.2,151.95 580.975,152.175 Q580.75,152.4 580.4,152.4 Q580.0875,152.4 579.8875,152.2625 Q579.6875,152.125 579.6,151.7625 Q579.5625,151.5125 579.425,151.375 Q579.175,151.1125 578.725,150.9625 Q578.275,150.8 577.825,150.8 Q577.2625,150.8 576.7875,151.025 Q576.325,151.25 575.9625,151.75 Q575.6,152.25 575.6,152.9375 L575.6,153.675 Q575.6,154.5 576.275,155.05 Q576.95,155.6 578.15,155.6 Q578.8625,155.6 579.3625,155.4375 Q579.65,155.35 579.975,155.0625 Q580.1875,154.9 580.3,154.85 Q580.4125,154.8 580.55,154.8 Q580.8125,154.8 581,155.0125 Q581.2,155.2125 581.2,155.5 Q581.2,155.775 580.925,156.1 Q580.525,156.575 579.8875,156.8375 Q579.05,157.2 578.025,157.2 Q576.825,157.2 575.8625,156.725 Q575.0875,156.35 574.5375,155.5375 Q574,154.725 574,153.7625 L574,152.8875 Q574,151.8875 574.475,151.0125 Q574.9625,150.1375 575.8,149.675 Q576.65,149.2 577.6,149.2 Q578.175,149.2 578.675,149.4 Q579.175,149.6 579.6,150 Z " fill="#000000"/><text fill="#000000" font-family="sans-serif" font-size="9.6" lengthAdjust="spacing" textLength="133.6" x="589.2" y="156.7281">RegisterDeliveryRunController</text><line style="stroke:#A80036;stroke-width:1.2000000000000002;" x1="566.8" x2="724.4" y1="165.6" y2="165.6"/><line style="stroke:#A80036;stroke-width:1.2000000000000002;" x1="566.8" x2="724.4" y1="172" y2="172"/><text fill="#000000" font-family="sans-serif" font-size="8.8" lengthAdjust="spacing" textLength="118.4" x="570.8" y="184.3352">+registerDeliveryRun(lstOrder)</text><!--MD5=[9ca1ca07947173ef4f790b05206a7839]
class DeliveryRunDB--><rect codeLine="128" fill="#FEFECE" filter="url(#f7e32linkj6zx)" height="82.675" id="DeliveryRunDB" style="stroke:#A80036;stroke-width:1.2000000000000002;" width="164" x="356.4" y="471.2"/><ellipse cx="401.8" cy="484" fill="#ADD1B2" rx="8.8" ry="8.8" style="stroke:#A80036;stroke-width:0.8;"/><path d="M403.4,481.2 Q403.5625,480.8 403.75,480.6 Q403.9375,480.4 404.15,480.4 Q404.525,480.4 404.7625,480.625 Q405,480.85 405,481.375 L405,482.625 Q405,483.15 404.775,483.375 Q404.55,483.6 404.2,483.6 Q403.8875,483.6 403.6875,483.4625 Q403.4875,483.325 403.4,482.9625 Q403.3625,482.7125 403.225,482.575 Q402.975,482.3125 402.525,482.1625 Q402.075,482 401.625,482 Q401.0625,482 400.5875,482.225 Q400.125,482.45 399.7625,482.95 Q399.4,483.45 399.4,484.1375 L399.4,484.875 Q399.4,485.7 400.075,486.25 Q400.75,486.8 401.95,486.8 Q402.6625,486.8 403.1625,486.6375 Q403.45,486.55 403.775,486.2625 Q403.9875,486.1 404.1,486.05 Q404.2125,486 404.35,486 Q404.6125,486 404.8,486.2125 Q405,486.4125 405,486.7 Q405,486.975 404.725,487.3 Q404.325,487.775 403.6875,488.0375 Q402.85,488.4 401.825,488.4 Q400.625,488.4 399.6625,487.925 Q398.8875,487.55 398.3375,486.7375 Q397.8,485.925 397.8,484.9625 L397.8,484.0875 Q397.8,483.0875 398.275,482.2125 Q398.7625,481.3375 399.6,480.875 Q400.45,480.4 401.4,480.4 Q401.975,480.4 402.475,480.6 Q402.975,480.8 403.4,481.2 Z " fill="#000000"/><text fill="#000000" font-family="sans-serif" font-size="9.6" lengthAdjust="spacing" textLength="66.4" x="418.2" y="487.9281">DeliveryRunDB</text><line style="stroke:#A80036;stroke-width:1.2000000000000002;" x1="357.2" x2="519.6" y1="496.8" y2="496.8"/><line style="stroke:#A80036;stroke-width:1.2000000000000002;" x1="357.2" x2="519.6" y1="503.2" y2="503.2"/><text fill="#000000" font-family="sans-serif" font-size="8.8" lengthAdjust="spacing" textLength="68.8" x="361.2" y="515.5352">+DeliveryRunDB()</text><text fill="#000000" font-family="sans-serif" font-size="8.8" lengthAdjust="spacing" textLength="136" x="361.2" y="526.6039">+addNewDeliveryRun(deliveryRun)</text><text fill="#000000" font-family="sans-serif" font-size="8.8" lengthAdjust="spacing" textLength="154.4" x="361.2" y="537.6727">+getMostChargedScooter(vehicleModel)</text><text fill="#000000" font-family="sans-serif" font-size="8.8" lengthAdjust="spacing" textLength="147.2" x="361.2" y="548.7414">+getMostChargedDrone(vehicleModel)</text><!--MD5=[b860ecc58d0ca70e482845cb1f7b4615]
class PharmacyDB--><rect codeLine="129" fill="#FEFECE" filter="url(#f7e32linkj6zx)" height="60.5375" id="PharmacyDB" style="stroke:#A80036;stroke-width:1.2000000000000002;" width="91.2" x="25.6" y="482"/><ellipse cx="41.2" cy="494.8" fill="#ADD1B2" rx="8.8" ry="8.8" style="stroke:#A80036;stroke-width:0.8;"/><path d="M42.8,492 Q42.9625,491.6 43.15,491.4 Q43.3375,491.2 43.55,491.2 Q43.925,491.2 44.1625,491.425 Q44.4,491.65 44.4,492.175 L44.4,493.425 Q44.4,493.95 44.175,494.175 Q43.95,494.4 43.6,494.4 Q43.2875,494.4 43.0875,494.2625 Q42.8875,494.125 42.8,493.7625 Q42.7625,493.5125 42.625,493.375 Q42.375,493.1125 41.925,492.9625 Q41.475,492.8 41.025,492.8 Q40.4625,492.8 39.9875,493.025 Q39.525,493.25 39.1625,493.75 Q38.8,494.25 38.8,494.9375 L38.8,495.675 Q38.8,496.5 39.475,497.05 Q40.15,497.6 41.35,497.6 Q42.0625,497.6 42.5625,497.4375 Q42.85,497.35 43.175,497.0625 Q43.3875,496.9 43.5,496.85 Q43.6125,496.8 43.75,496.8 Q44.0125,496.8 44.2,497.0125 Q44.4,497.2125 44.4,497.5 Q44.4,497.775 44.125,498.1 Q43.725,498.575 43.0875,498.8375 Q42.25,499.2 41.225,499.2 Q40.025,499.2 39.0625,498.725 Q38.2875,498.35 37.7375,497.5375 Q37.2,496.725 37.2,495.7625 L37.2,494.8875 Q37.2,493.8875 37.675,493.0125 Q38.1625,492.1375 39,491.675 Q39.85,491.2 40.8,491.2 Q41.375,491.2 41.875,491.4 Q42.375,491.6 42.8,492 Z " fill="#000000"/><text fill="#000000" font-family="sans-serif" font-size="9.6" lengthAdjust="spacing" textLength="57.6" x="53.2" y="498.7281">PharmacyDB</text><line style="stroke:#A80036;stroke-width:1.2000000000000002;" x1="26.4" x2="116" y1="507.6" y2="507.6"/><line style="stroke:#A80036;stroke-width:1.2000000000000002;" x1="26.4" x2="116" y1="514" y2="514"/><text fill="#000000" font-family="sans-serif" font-size="8.8" lengthAdjust="spacing" textLength="60.8" x="30.4" y="526.3352">+PharmacyDB()</text><text fill="#000000" font-family="sans-serif" font-size="8.8" lengthAdjust="spacing" textLength="81.6" x="30.4" y="537.4039">+getSuitableCourier()</text><!--MD5=[0eeba38b962813fa642822f4f72de053]
class VehicleDB--><rect codeLine="130" fill="#FEFECE" filter="url(#f7e32linkj6zx)" height="60.5375" id="VehicleDB" style="stroke:#A80036;stroke-width:1.2000000000000002;" width="183.2" x="145.2" y="482"/><ellipse cx="210.6" cy="494.8" fill="#ADD1B2" rx="8.8" ry="8.8" style="stroke:#A80036;stroke-width:0.8;"/><path d="M212.2,492 Q212.3625,491.6 212.55,491.4 Q212.7375,491.2 212.95,491.2 Q213.325,491.2 213.5625,491.425 Q213.8,491.65 213.8,492.175 L213.8,493.425 Q213.8,493.95 213.575,494.175 Q213.35,494.4 213,494.4 Q212.6875,494.4 212.4875,494.2625 Q212.2875,494.125 212.2,493.7625 Q212.1625,493.5125 212.025,493.375 Q211.775,493.1125 211.325,492.9625 Q210.875,492.8 210.425,492.8 Q209.8625,492.8 209.3875,493.025 Q208.925,493.25 208.5625,493.75 Q208.2,494.25 208.2,494.9375 L208.2,495.675 Q208.2,496.5 208.875,497.05 Q209.55,497.6 210.75,497.6 Q211.4625,497.6 211.9625,497.4375 Q212.25,497.35 212.575,497.0625 Q212.7875,496.9 212.9,496.85 Q213.0125,496.8 213.15,496.8 Q213.4125,496.8 213.6,497.0125 Q213.8,497.2125 213.8,497.5 Q213.8,497.775 213.525,498.1 Q213.125,498.575 212.4875,498.8375 Q211.65,499.2 210.625,499.2 Q209.425,499.2 208.4625,498.725 Q207.6875,498.35 207.1375,497.5375 Q206.6,496.725 206.6,495.7625 L206.6,494.8875 Q206.6,493.8875 207.075,493.0125 Q207.5625,492.1375 208.4,491.675 Q209.25,491.2 210.2,491.2 Q210.775,491.2 211.275,491.4 Q211.775,491.6 212.2,492 Z " fill="#000000"/><text fill="#000000" font-family="sans-serif" font-size="9.6" lengthAdjust="spacing" textLength="45.6" x="227" y="498.7281">VehicleDB</text><line style="stroke:#A80036;stroke-width:1.2000000000000002;" x1="146" x2="327.6" y1="507.6" y2="507.6"/><line style="stroke:#A80036;stroke-width:1.2000000000000002;" x1="146" x2="327.6" y1="514" y2="514"/><text fill="#000000" font-family="sans-serif" font-size="8.8" lengthAdjust="spacing" textLength="51.2" x="150" y="526.3352">+VehicleDB()</text><text fill="#000000" font-family="sans-serif" font-size="8.8" lengthAdjust="spacing" textLength="173.6" x="150" y="537.4039">+calculateBestVehicleAndBestPath(lstOrder)</text><!--MD5=[4b2d61224b33971326a22fe5d809d926]
class DataHandler--><rect codeLine="32" fill="#FEFECE" filter="url(#f7e32linkj6zx)" height="60.5375" id="DataHandler" style="stroke:#A80036;stroke-width:1.2000000000000002;" width="83.2" x="195.2" y="313.2"/><ellipse cx="207.92" cy="326" fill="#ADD1B2" rx="8.8" ry="8.8" style="stroke:#A80036;stroke-width:0.8;"/><path d="M209.52,323.2 Q209.6825,322.8 209.87,322.6 Q210.0575,322.4 210.27,322.4 Q210.645,322.4 210.8825,322.625 Q211.12,322.85 211.12,323.375 L211.12,324.625 Q211.12,325.15 210.895,325.375 Q210.67,325.6 210.32,325.6 Q210.0075,325.6 209.8075,325.4625 Q209.6075,325.325 209.52,324.9625 Q209.4825,324.7125 209.345,324.575 Q209.095,324.3125 208.645,324.1625 Q208.195,324 207.745,324 Q207.1825,324 206.7075,324.225 Q206.245,324.45 205.8825,324.95 Q205.52,325.45 205.52,326.1375 L205.52,326.875 Q205.52,327.7 206.195,328.25 Q206.87,328.8 208.07,328.8 Q208.7825,328.8 209.2825,328.6375 Q209.57,328.55 209.895,328.2625 Q210.1075,328.1 210.22,328.05 Q210.3325,328 210.47,328 Q210.7325,328 210.92,328.2125 Q211.12,328.4125 211.12,328.7 Q211.12,328.975 210.845,329.3 Q210.445,329.775 209.8075,330.0375 Q208.97,330.4 207.945,330.4 Q206.745,330.4 205.7825,329.925 Q205.0075,329.55 204.4575,328.7375 Q203.92,327.925 203.92,326.9625 L203.92,326.0875 Q203.92,325.0875 204.395,324.2125 Q204.8825,323.3375 205.72,322.875 Q206.57,322.4 207.52,322.4 Q208.095,322.4 208.595,322.6 Q209.095,322.8 209.52,323.2 Z " fill="#000000"/><text fill="#000000" font-family="sans-serif" font-size="9.6" lengthAdjust="spacing" textLength="56" x="219.28" y="329.9281">DataHandler</text><line style="stroke:#A80036;stroke-width:1.2000000000000002;" x1="196" x2="277.6" y1="338.8" y2="338.8"/><line style="stroke:#A80036;stroke-width:1.2000000000000002;" x1="196" x2="277.6" y1="345.2" y2="345.2"/><text fill="#000000" font-family="sans-serif" font-size="8.8" lengthAdjust="spacing" textLength="73.6" x="200" y="357.5352">+openConnection()</text><text fill="#000000" font-family="sans-serif" font-size="8.8" lengthAdjust="spacing" textLength="41.6" x="200" y="368.6039">+closeAll()</text><!--MD5=[02e76adba4e853acf9425b1b68b8acc5]
class RegisterDeliveryRunUI--><rect codeLine="40" fill="#FEFECE" filter="url(#f7e32linkj6zx)" height="38.4" id="RegisterDeliveryRunUI" style="stroke:#A80036;stroke-width:1.2000000000000002;" width="125.6" x="582.8" y="33.6"/><ellipse cx="594.8" cy="46.4" fill="#ADD1B2" rx="8.8" ry="8.8" style="stroke:#A80036;stroke-width:0.8;"/><path d="M596.4,43.6 Q596.5625,43.2 596.75,43 Q596.9375,42.8 597.15,42.8 Q597.525,42.8 597.7625,43.025 Q598,43.25 598,43.775 L598,45.025 Q598,45.55 597.775,45.775 Q597.55,46 597.2,46 Q596.8875,46 596.6875,45.8625 Q596.4875,45.725 596.4,45.3625 Q596.3625,45.1125 596.225,44.975 Q595.975,44.7125 595.525,44.5625 Q595.075,44.4 594.625,44.4 Q594.0625,44.4 593.5875,44.625 Q593.125,44.85 592.7625,45.35 Q592.4,45.85 592.4,46.5375 L592.4,47.275 Q592.4,48.1 593.075,48.65 Q593.75,49.2 594.95,49.2 Q595.6625,49.2 596.1625,49.0375 Q596.45,48.95 596.775,48.6625 Q596.9875,48.5 597.1,48.45 Q597.2125,48.4 597.35,48.4 Q597.6125,48.4 597.8,48.6125 Q598,48.8125 598,49.1 Q598,49.375 597.725,49.7 Q597.325,50.175 596.6875,50.4375 Q595.85,50.8 594.825,50.8 Q593.625,50.8 592.6625,50.325 Q591.8875,49.95 591.3375,49.1375 Q590.8,48.325 590.8,47.3625 L590.8,46.4875 Q590.8,45.4875 591.275,44.6125 Q591.7625,43.7375 592.6,43.275 Q593.45,42.8 594.4,42.8 Q594.975,42.8 595.475,43 Q595.975,43.2 596.4,43.6 Z " fill="#000000"/><text fill="#000000" font-family="sans-serif" font-size="9.6" lengthAdjust="spacing" textLength="100" x="606" y="50.3281">RegisterDeliveryRunUI</text><line style="stroke:#A80036;stroke-width:1.2000000000000002;" x1="583.6" x2="707.6" y1="59.2" y2="59.2"/><line style="stroke:#A80036;stroke-width:1.2000000000000002;" x1="583.6" x2="707.6" y1="65.6" y2="65.6"/><!--MD5=[c6a2171c11447acbe08a3dfeee0e1710]
class Courier--><rect codeLine="59" fill="#FEFECE" filter="url(#f7e32linkj6zx)" height="49.4688" id="Courier" style="stroke:#A80036;stroke-width:1.2000000000000002;" width="186.4" x="1090" y="627.2"/><ellipse cx="1163.4" cy="640" fill="#ADD1B2" rx="8.8" ry="8.8" style="stroke:#A80036;stroke-width:0.8;"/><path d="M1165,637.2 Q1165.1625,636.8 1165.35,636.6 Q1165.5375,636.4 1165.75,636.4 Q1166.125,636.4 1166.3625,636.625 Q1166.6,636.85 1166.6,637.375 L1166.6,638.625 Q1166.6,639.15 1166.375,639.375 Q1166.15,639.6 1165.8,639.6 Q1165.4875,639.6 1165.2875,639.4625 Q1165.0875,639.325 1165,638.9625 Q1164.9625,638.7125 1164.825,638.575 Q1164.575,638.3125 1164.125,638.1625 Q1163.675,638 1163.225,638 Q1162.6625,638 1162.1875,638.225 Q1161.725,638.45 1161.3625,638.95 Q1161,639.45 1161,640.1375 L1161,640.875 Q1161,641.7 1161.675,642.25 Q1162.35,642.8 1163.55,642.8 Q1164.2625,642.8 1164.7625,642.6375 Q1165.05,642.55 1165.375,642.2625 Q1165.5875,642.1 1165.7,642.05 Q1165.8125,642 1165.95,642 Q1166.2125,642 1166.4,642.2125 Q1166.6,642.4125 1166.6,642.7 Q1166.6,642.975 1166.325,643.3 Q1165.925,643.775 1165.2875,644.0375 Q1164.45,644.4 1163.425,644.4 Q1162.225,644.4 1161.2625,643.925 Q1160.4875,643.55 1159.9375,642.7375 Q1159.4,641.925 1159.4,640.9625 L1159.4,640.0875 Q1159.4,639.0875 1159.875,638.2125 Q1160.3625,637.3375 1161.2,636.875 Q1162.05,636.4 1163,636.4 Q1163.575,636.4 1164.075,636.6 Q1164.575,636.8 1165,637.2 Z " fill="#000000"/><text fill="#000000" font-family="sans-serif" font-size="9.6" lengthAdjust="spacing" textLength="32.8" x="1179.8" y="643.9281">Courier</text><line style="stroke:#A80036;stroke-width:1.2000000000000002;" x1="1090.8" x2="1275.6" y1="652.8" y2="652.8"/><line style="stroke:#A80036;stroke-width:1.2000000000000002;" x1="1090.8" x2="1275.6" y1="659.2" y2="659.2"/><text fill="#000000" font-family="sans-serif" font-size="8.8" lengthAdjust="spacing" textLength="176.8" x="1094.8" y="671.5352">+Courier(id,name,email,pw,nif,iban,pharmacy)</text><!--MD5=[30da194321b846ed0272a2c085d943b8]
class DeliveryRun--><rect codeLine="63" fill="#FEFECE" filter="url(#f7e32linkj6zx)" height="104.8125" id="DeliveryRun" style="stroke:#A80036;stroke-width:1.2000000000000002;" width="157.6" x="1226.8" y="460"/><ellipse cx="1275.8" cy="472.8" fill="#ADD1B2" rx="8.8" ry="8.8" style="stroke:#A80036;stroke-width:0.8;"/><path d="M1277.4,470 Q1277.5625,469.6 1277.75,469.4 Q1277.9375,469.2 1278.15,469.2 Q1278.525,469.2 1278.7625,469.425 Q1279,469.65 1279,470.175 L1279,471.425 Q1279,471.95 1278.775,472.175 Q1278.55,472.4 1278.2,472.4 Q1277.8875,472.4 1277.6875,472.2625 Q1277.4875,472.125 1277.4,471.7625 Q1277.3625,471.5125 1277.225,471.375 Q1276.975,471.1125 1276.525,470.9625 Q1276.075,470.8 1275.625,470.8 Q1275.0625,470.8 1274.5875,471.025 Q1274.125,471.25 1273.7625,471.75 Q1273.4,472.25 1273.4,472.9375 L1273.4,473.675 Q1273.4,474.5 1274.075,475.05 Q1274.75,475.6 1275.95,475.6 Q1276.6625,475.6 1277.1625,475.4375 Q1277.45,475.35 1277.775,475.0625 Q1277.9875,474.9 1278.1,474.85 Q1278.2125,474.8 1278.35,474.8 Q1278.6125,474.8 1278.8,475.0125 Q1279,475.2125 1279,475.5 Q1279,475.775 1278.725,476.1 Q1278.325,476.575 1277.6875,476.8375 Q1276.85,477.2 1275.825,477.2 Q1274.625,477.2 1273.6625,476.725 Q1272.8875,476.35 1272.3375,475.5375 Q1271.8,474.725 1271.8,473.7625 L1271.8,472.8875 Q1271.8,471.8875 1272.275,471.0125 Q1272.7625,470.1375 1273.6,469.675 Q1274.45,469.2 1275.4,469.2 Q1275.975,469.2 1276.475,469.4 Q1276.975,469.6 1277.4,470 Z " fill="#000000"/><text fill="#000000" font-family="sans-serif" font-size="9.6" lengthAdjust="spacing" textLength="52.8" x="1292.2" y="476.7281">DeliveryRun</text><line style="stroke:#A80036;stroke-width:1.2000000000000002;" x1="1227.6" x2="1383.6" y1="485.6" y2="485.6"/><text fill="#000000" font-family="sans-serif" font-size="8.8" lengthAdjust="spacing" textLength="58.4" x="1231.6" y="497.9352">-Integer m_intId</text><text fill="#000000" font-family="sans-serif" font-size="8.8" lengthAdjust="spacing" textLength="77.6" x="1231.6" y="509.0039">-Courier m_oCourier</text><text fill="#000000" font-family="sans-serif" font-size="8.8" lengthAdjust="spacing" textLength="79.2" x="1231.6" y="520.0727">-Vehicle m_oVehicle</text><text fill="#000000" font-family="sans-serif" font-size="8.8" lengthAdjust="spacing" textLength="93.6" x="1231.6" y="531.1414">-List&lt;Order&gt; m_lstOrder</text><text fill="#000000" font-family="sans-serif" font-size="8.8" lengthAdjust="spacing" textLength="102.4" x="1231.6" y="542.2102">-DeliveryStatus m_oStatus</text><line style="stroke:#A80036;stroke-width:1.2000000000000002;" x1="1227.6" x2="1383.6" y1="547.3438" y2="547.3438"/><text fill="#000000" font-family="sans-serif" font-size="8.8" lengthAdjust="spacing" textLength="148" x="1231.6" y="559.6789">+DeliveryRun(courier,lstOrder,vehicle)</text><!--MD5=[c5b08e60048ef1bcd788d24cf324082e]
class UserSession--><rect codeLine="75" fill="#FEFECE" filter="url(#f7e32linkj6zx)" height="60.5375" id="UserSession" style="stroke:#A80036;stroke-width:1.2000000000000002;" width="84" x="770.8" y="313.2"/><ellipse cx="782.8" cy="326" fill="#ADD1B2" rx="8.8" ry="8.8" style="stroke:#A80036;stroke-width:0.8;"/><path d="M784.4,323.2 Q784.5625,322.8 784.75,322.6 Q784.9375,322.4 785.15,322.4 Q785.525,322.4 785.7625,322.625 Q786,322.85 786,323.375 L786,324.625 Q786,325.15 785.775,325.375 Q785.55,325.6 785.2,325.6 Q784.8875,325.6 784.6875,325.4625 Q784.4875,325.325 784.4,324.9625 Q784.3625,324.7125 784.225,324.575 Q783.975,324.3125 783.525,324.1625 Q783.075,324 782.625,324 Q782.0625,324 781.5875,324.225 Q781.125,324.45 780.7625,324.95 Q780.4,325.45 780.4,326.1375 L780.4,326.875 Q780.4,327.7 781.075,328.25 Q781.75,328.8 782.95,328.8 Q783.6625,328.8 784.1625,328.6375 Q784.45,328.55 784.775,328.2625 Q784.9875,328.1 785.1,328.05 Q785.2125,328 785.35,328 Q785.6125,328 785.8,328.2125 Q786,328.4125 786,328.7 Q786,328.975 785.725,329.3 Q785.325,329.775 784.6875,330.0375 Q783.85,330.4 782.825,330.4 Q781.625,330.4 780.6625,329.925 Q779.8875,329.55 779.3375,328.7375 Q778.8,327.925 778.8,326.9625 L778.8,326.0875 Q778.8,325.0875 779.275,324.2125 Q779.7625,323.3375 780.6,322.875 Q781.45,322.4 782.4,322.4 Q782.975,322.4 783.475,322.6 Q783.975,322.8 784.4,323.2 Z " fill="#000000"/><text fill="#000000" font-family="sans-serif" font-size="9.6" lengthAdjust="spacing" textLength="58.4" x="794" y="329.9281">UserSession</text><line style="stroke:#A80036;stroke-width:1.2000000000000002;" x1="771.6" x2="854" y1="338.8" y2="338.8"/><text fill="#000000" font-family="sans-serif" font-size="8.8" lengthAdjust="spacing" textLength="47.2" x="775.6" y="351.1352">-String email</text><line style="stroke:#A80036;stroke-width:1.2000000000000002;" x1="771.6" x2="854" y1="356.2688" y2="356.2688"/><text fill="#000000" font-family="sans-serif" font-size="8.8" lengthAdjust="spacing" textLength="40" x="775.6" y="368.6039">+getRole()</text><!--MD5=[f160ba300d47c98b270c2929f680544d]
class DeliveryStatus--><rect codeLine="105" fill="#FEFECE" filter="url(#f7e32linkj6zx)" height="49.4688" id="DeliveryStatus" style="stroke:#A80036;stroke-width:1.2000000000000002;" width="88" x="1304.8" y="627.2"/><ellipse cx="1316.8" cy="640" fill="#EB937F" rx="8.8" ry="8.8" style="stroke:#A80036;stroke-width:0.8;"/><path d="M1315.6,640.8 L1315.6,642.4 L1318.8,642.4 L1318.8,641.6 L1318.8,641.2125 L1319.3,640.8 L1319.6,640.8 L1319.9,640.8 L1320.4,641.2125 L1320.4,641.6 L1320.4,644 L1314,644 L1313.6125,644 L1313.2,643.5 L1313.2,643.2 L1313.2,642.9 L1313.6125,642.4 L1314,642.4 L1314,642.4 L1314,637.6 L1314,637.6 L1313.6125,637.6 L1313.2,637.1 L1313.2,636.8 L1313.2,636.5 L1313.6125,636 L1314,636 L1320.4,636 L1320.4,638.4 L1320.4,638.7875 L1319.9,639.2 L1319.6,639.2 L1319.3,639.2 L1318.8,638.7875 L1318.8,638.4 L1318.8,637.6 L1315.6,637.6 L1315.6,639.2 L1316.4,639.2 L1316.4,638.8125 L1316.4,638.8125 L1316.9,638.4 L1317.2,638.4 L1317.5,638.4 L1318,638.8125 L1318,639.2 L1318,640.8 L1318,641.1875 L1317.5,641.6 L1317.5,641.6 L1317.2,641.6 L1316.9,641.6 L1316.4,641.1875 L1316.4,641.1875 L1316.4,640.8 L1315.6,640.8 Z " fill="#000000"/><text fill="#000000" font-family="sans-serif" font-size="9.6" lengthAdjust="spacing" textLength="62.4" x="1328" y="643.9281">DeliveryStatus</text><line style="stroke:#A80036;stroke-width:1.2000000000000002;" x1="1305.6" x2="1392" y1="652.8" y2="652.8"/><line style="stroke:#A80036;stroke-width:1.2000000000000002;" x1="1305.6" x2="1392" y1="659.2" y2="659.2"/><text fill="#000000" font-family="sans-serif" font-size="8.8" lengthAdjust="spacing" textLength="67.2" x="1309.6" y="671.5352">+DeliveryStatus()</text><!--MD5=[a737da5453cdca5d1b508e41d49c1154]
class DeliveryRunService--><rect codeLine="83" fill="#FEFECE" filter="url(#f7e32linkj6zx)" height="104.8125" id="DeliveryRunService" style="stroke:#A80036;stroke-width:1.2000000000000002;" width="164" x="1223.6" y="291.2"/><ellipse cx="1259.8" cy="304" fill="#ADD1B2" rx="8.8" ry="8.8" style="stroke:#A80036;stroke-width:0.8;"/><path d="M1261.4,301.2 Q1261.5625,300.8 1261.75,300.6 Q1261.9375,300.4 1262.15,300.4 Q1262.525,300.4 1262.7625,300.625 Q1263,300.85 1263,301.375 L1263,302.625 Q1263,303.15 1262.775,303.375 Q1262.55,303.6 1262.2,303.6 Q1261.8875,303.6 1261.6875,303.4625 Q1261.4875,303.325 1261.4,302.9625 Q1261.3625,302.7125 1261.225,302.575 Q1260.975,302.3125 1260.525,302.1625 Q1260.075,302 1259.625,302 Q1259.0625,302 1258.5875,302.225 Q1258.125,302.45 1257.7625,302.95 Q1257.4,303.45 1257.4,304.1375 L1257.4,304.875 Q1257.4,305.7 1258.075,306.25 Q1258.75,306.8 1259.95,306.8 Q1260.6625,306.8 1261.1625,306.6375 Q1261.45,306.55 1261.775,306.2625 Q1261.9875,306.1 1262.1,306.05 Q1262.2125,306 1262.35,306 Q1262.6125,306 1262.8,306.2125 Q1263,306.4125 1263,306.7 Q1263,306.975 1262.725,307.3 Q1262.325,307.775 1261.6875,308.0375 Q1260.85,308.4 1259.825,308.4 Q1258.625,308.4 1257.6625,307.925 Q1256.8875,307.55 1256.3375,306.7375 Q1255.8,305.925 1255.8,304.9625 L1255.8,304.0875 Q1255.8,303.0875 1256.275,302.2125 Q1256.7625,301.3375 1257.6,300.875 Q1258.45,300.4 1259.4,300.4 Q1259.975,300.4 1260.475,300.6 Q1260.975,300.8 1261.4,301.2 Z " fill="#000000"/><text fill="#000000" font-family="sans-serif" font-size="9.6" lengthAdjust="spacing" textLength="84.8" x="1276.2" y="307.9281">DeliveryRunService</text><line style="stroke:#A80036;stroke-width:1.2000000000000002;" x1="1224.4" x2="1386.8" y1="316.8" y2="316.8"/><line style="stroke:#A80036;stroke-width:1.2000000000000002;" x1="1224.4" x2="1386.8" y1="323.2" y2="323.2"/><text fill="#000000" font-family="sans-serif" font-size="8.8" lengthAdjust="spacing" textLength="87.2" x="1228.4" y="335.5352">+DeliveryRunService()</text><text fill="#000000" font-family="sans-serif" font-size="8.8" lengthAdjust="spacing" textLength="136" x="1228.4" y="346.6039">+newDeliveryRun(courier,lstOrder)</text><text fill="#000000" font-family="sans-serif" font-size="8.8" lengthAdjust="spacing" textLength="136" x="1228.4" y="357.6727">+addNewDeliveryRun(deliveryRun)</text><text fill="#000000" font-family="sans-serif" font-size="8.8" lengthAdjust="spacing" textLength="154.4" x="1228.4" y="368.7414">+getMostChargedScooter(vehicleModel)</text><text fill="#000000" font-family="sans-serif" font-size="8.8" lengthAdjust="spacing" textLength="147.2" x="1228.4" y="379.8102">+getMostChargedDrone(vehicleModel)</text><text fill="#000000" font-family="sans-serif" font-size="8.8" lengthAdjust="spacing" textLength="147.2" x="1228.4" y="390.8789">+getMostEfficientVehicleModel(lstPair)</text><!--MD5=[28160fdc0be430cd6f04db15a7547552]
class PharmacyService--><rect codeLine="92" fill="#FEFECE" filter="url(#f7e32linkj6zx)" height="60.5375" id="PharmacyService" style="stroke:#A80036;stroke-width:1.2000000000000002;" width="101.6" x="882.8" y="313.2"/><ellipse cx="894.8" cy="326" fill="#ADD1B2" rx="8.8" ry="8.8" style="stroke:#A80036;stroke-width:0.8;"/><path d="M896.4,323.2 Q896.5625,322.8 896.75,322.6 Q896.9375,322.4 897.15,322.4 Q897.525,322.4 897.7625,322.625 Q898,322.85 898,323.375 L898,324.625 Q898,325.15 897.775,325.375 Q897.55,325.6 897.2,325.6 Q896.8875,325.6 896.6875,325.4625 Q896.4875,325.325 896.4,324.9625 Q896.3625,324.7125 896.225,324.575 Q895.975,324.3125 895.525,324.1625 Q895.075,324 894.625,324 Q894.0625,324 893.5875,324.225 Q893.125,324.45 892.7625,324.95 Q892.4,325.45 892.4,326.1375 L892.4,326.875 Q892.4,327.7 893.075,328.25 Q893.75,328.8 894.95,328.8 Q895.6625,328.8 896.1625,328.6375 Q896.45,328.55 896.775,328.2625 Q896.9875,328.1 897.1,328.05 Q897.2125,328 897.35,328 Q897.6125,328 897.8,328.2125 Q898,328.4125 898,328.7 Q898,328.975 897.725,329.3 Q897.325,329.775 896.6875,330.0375 Q895.85,330.4 894.825,330.4 Q893.625,330.4 892.6625,329.925 Q891.8875,329.55 891.3375,328.7375 Q890.8,327.925 890.8,326.9625 L890.8,326.0875 Q890.8,325.0875 891.275,324.2125 Q891.7625,323.3375 892.6,322.875 Q893.45,322.4 894.4,322.4 Q894.975,322.4 895.475,322.6 Q895.975,322.8 896.4,323.2 Z " fill="#000000"/><text fill="#000000" font-family="sans-serif" font-size="9.6" lengthAdjust="spacing" textLength="76" x="906" y="329.9281">PharmacyService</text><line style="stroke:#A80036;stroke-width:1.2000000000000002;" x1="883.6" x2="983.6" y1="338.8" y2="338.8"/><line style="stroke:#A80036;stroke-width:1.2000000000000002;" x1="883.6" x2="983.6" y1="345.2" y2="345.2"/><text fill="#000000" font-family="sans-serif" font-size="8.8" lengthAdjust="spacing" textLength="79.2" x="887.6" y="357.5352">+PharmacyService()</text><text fill="#000000" font-family="sans-serif" font-size="8.8" lengthAdjust="spacing" textLength="81.6" x="887.6" y="368.6039">+getSuitableCourier()</text><!--MD5=[a62a3515678abb2a72322417639054c0]
class GraphService--><rect codeLine="97" fill="#FEFECE" filter="url(#f7e32linkj6zx)" height="60.5375" id="GraphService" style="stroke:#A80036;stroke-width:1.2000000000000002;" width="183.2" x="1012.4" y="313.2"/><ellipse cx="1071" cy="326" fill="#ADD1B2" rx="8.8" ry="8.8" style="stroke:#A80036;stroke-width:0.8;"/><path d="M1072.6,323.2 Q1072.7625,322.8 1072.95,322.6 Q1073.1375,322.4 1073.35,322.4 Q1073.725,322.4 1073.9625,322.625 Q1074.2,322.85 1074.2,323.375 L1074.2,324.625 Q1074.2,325.15 1073.975,325.375 Q1073.75,325.6 1073.4,325.6 Q1073.0875,325.6 1072.8875,325.4625 Q1072.6875,325.325 1072.6,324.9625 Q1072.5625,324.7125 1072.425,324.575 Q1072.175,324.3125 1071.725,324.1625 Q1071.275,324 1070.825,324 Q1070.2625,324 1069.7875,324.225 Q1069.325,324.45 1068.9625,324.95 Q1068.6,325.45 1068.6,326.1375 L1068.6,326.875 Q1068.6,327.7 1069.275,328.25 Q1069.95,328.8 1071.15,328.8 Q1071.8625,328.8 1072.3625,328.6375 Q1072.65,328.55 1072.975,328.2625 Q1073.1875,328.1 1073.3,328.05 Q1073.4125,328 1073.55,328 Q1073.8125,328 1074,328.2125 Q1074.2,328.4125 1074.2,328.7 Q1074.2,328.975 1073.925,329.3 Q1073.525,329.775 1072.8875,330.0375 Q1072.05,330.4 1071.025,330.4 Q1069.825,330.4 1068.8625,329.925 Q1068.0875,329.55 1067.5375,328.7375 Q1067,327.925 1067,326.9625 L1067,326.0875 Q1067,325.0875 1067.475,324.2125 Q1067.9625,323.3375 1068.8,322.875 Q1069.65,322.4 1070.6,322.4 Q1071.175,322.4 1071.675,322.6 Q1072.175,322.8 1072.6,323.2 Z " fill="#000000"/><text fill="#000000" font-family="sans-serif" font-size="9.6" lengthAdjust="spacing" textLength="59.2" x="1087.4" y="329.9281">GraphService</text><line style="stroke:#A80036;stroke-width:1.2000000000000002;" x1="1013.2" x2="1194.8" y1="338.8" y2="338.8"/><line style="stroke:#A80036;stroke-width:1.2000000000000002;" x1="1013.2" x2="1194.8" y1="345.2" y2="345.2"/><text fill="#000000" font-family="sans-serif" font-size="8.8" lengthAdjust="spacing" textLength="64.8" x="1017.2" y="357.5352">+GraphService()</text><text fill="#000000" font-family="sans-serif" font-size="8.8" lengthAdjust="spacing" textLength="173.6" x="1017.2" y="368.6039">+calculateBestVehicleAndBestPath(lstOrder)</text><!--MD5=[1a65ce568429082258ed08f90faa106d]
link RegisterDeliveryRunUI to RegisterDeliveryRunController--><path codeLine="115" d="M645.6,72.0784 C645.6,89.4424 645.6,115.6784 645.6,135.6832 " fill="none" id="RegisterDeliveryRunUI-to-RegisterDeliveryRunController" style="stroke:#A80036;stroke-width:0.8;stroke-dasharray:7.0,7.0;"/><polygon fill="#A80036" points="645.6,139.852,648.8,132.652,645.6,135.852,642.4,132.652,645.6,139.852" style="stroke:#A80036;stroke-width:0.8;"/><!--MD5=[8cbb4125a0c5ef1a1566aa7d34251320]
link RegisterDeliveryRunController to DeliveryRunService--><path codeLine="116" d="M725.3216,165.8 C860.56,167.3808 1128.208,176.2472 1209.6,220.8 C1237.32,235.9712 1259.776,262.8328 1275.992,287.4952 " fill="none" id="RegisterDeliveryRunController-to-DeliveryRunService" style="stroke:#A80036;stroke-width:0.8;stroke-dasharray:7.0,7.0;"/><polygon fill="#A80036" points="1278.336,291.1168,1277.11,283.3337,1276.1625,287.7589,1271.7373,286.8113,1278.336,291.1168" style="stroke:#A80036;stroke-width:0.8;"/><!--MD5=[b90d0817470d9be981e9382b4ae6554c]
link RegisterDeliveryRunController to GraphService--><path codeLine="117" d="M725.4608,171.6968 C814.744,179.6192 952.792,195.5096 998.4,220.8 C1035.952,241.62 1066.392,281.2408 1084.776,309.6872 " fill="none" id="RegisterDeliveryRunController-to-GraphService" style="stroke:#A80036;stroke-width:0.8;stroke-dasharray:7.0,7.0;"/><polygon fill="#A80036" points="1086.952,313.0992,1085.7717,305.309,1084.7982,309.7286,1080.3787,308.7551,1086.952,313.0992" style="stroke:#A80036;stroke-width:0.8;"/><!--MD5=[517bebb8c3ebacb0b36a7a829eed2129]
link RegisterDeliveryRunController to ApplicationPOT--><path codeLine="118" d="M647.3528,189.8672 C649.5768,220.6536 653.4248,273.924 655.9416,308.7632 " fill="none" id="RegisterDeliveryRunController-to-ApplicationPOT" style="stroke:#A80036;stroke-width:0.8;stroke-dasharray:7.0,7.0;"/><polygon fill="#A80036" points="656.2416,312.9176,658.9149,305.5059,655.9536,308.928,652.5315,305.9667,656.2416,312.9176" style="stroke:#A80036;stroke-width:0.8;"/><!--MD5=[b624cbac74af6d9c9297734f0ba97cea]
link RegisterDeliveryRunController to PharmacyService--><path codeLine="119" d="M725.2472,176.6032 C783.6,186.0688 856.544,201.2776 880,220.8 C906.776,243.0856 920.6,281.3696 927.44,309.1176 " fill="none" id="RegisterDeliveryRunController-to-PharmacyService" style="stroke:#A80036;stroke-width:0.8;stroke-dasharray:7.0,7.0;"/><polygon fill="#A80036" points="928.4,313.132,929.8357,305.3848,927.4687,309.2419,923.6116,306.8749,928.4,313.132" style="stroke:#A80036;stroke-width:0.8;"/><!--MD5=[1838217b62f5cff8f2cd541cc9393f89]
link PharmacyService to PharmacyDB--><path codeLine="120" d="M919.368,374.2136 C910.384,389.4208 897.2,406.5048 880,415.2 C868.216,421.1568 417.9624,420.592 404.8,421.6 C282.3672,430.9784 243.0752,409.3864 131.2,460 C120.832,464.6904 110.892,471.7472 102.1888,479.1488 " fill="none" id="PharmacyService-to-PharmacyDB" style="stroke:#A80036;stroke-width:0.8;"/><polygon fill="#A80036" points="99.0392,481.8872,106.5719,479.5767,102.0574,479.2622,102.3719,474.7476,99.0392,481.8872" style="stroke:#A80036;stroke-width:0.8;"/><polygon fill="#000000" points="404.8326,429.4501,412.3092,430.8605,411.7103,426.1965,404.8326,429.4501" style="stroke:#000000;stroke-width:0.8;"/><text fill="#000000" font-family="sans-serif" font-size="10.4" lengthAdjust="spacing" textLength="16.8" x="416" y="433.1961">has</text><text fill="#000000" font-family="sans-serif" font-size="10.4" lengthAdjust="spacing" textLength="5.6" x="911.0535" y="390.9521">1</text><text fill="#000000" font-family="sans-serif" font-size="10.4" lengthAdjust="spacing" textLength="5.6" x="97.8993" y="473.3566">1</text><!--MD5=[8e09015b00e7d26f702e8314ea43b90d]
link DeliveryRunService to DeliveryRunDB--><path codeLine="121" d="M1247.128,396.1344 C1235.4,403.924 1222.656,410.8104 1209.6,415.2 C1184.28,423.7144 755.1856,417.4256 728.8,421.6 C658.4144,432.7368 581.4992,457.1584 524.5184,477.7552 " fill="none" id="DeliveryRunService-to-DeliveryRunDB" style="stroke:#A80036;stroke-width:0.8;"/><polygon fill="#A80036" points="520.4504,479.232,528.3101,479.7838,524.2104,477.8674,526.1268,473.7677,520.4504,479.232" style="stroke:#A80036;stroke-width:0.8;"/><polygon fill="#000000" points="728.8253,429.3896,736.2795,430.9137,735.7517,426.2411,728.8253,429.3896" style="stroke:#000000;stroke-width:0.8;"/><text fill="#000000" font-family="sans-serif" font-size="10.4" lengthAdjust="spacing" textLength="16.8" x="740" y="433.1961">has</text><text fill="#000000" font-family="sans-serif" font-size="10.4" lengthAdjust="spacing" textLength="5.6" x="1234.8264" y="413.3911">1</text><text fill="#000000" font-family="sans-serif" font-size="10.4" lengthAdjust="spacing" textLength="5.6" x="526.6816" y="474.3225">1</text><!--MD5=[090cbd6505a3dc81406022b87b561db0]
link GraphService to VehicleDB--><path codeLine="122" d="M1070.728,374.0064 C1051.136,389.4576 1025.04,406.8424 998.4,415.2 C978.808,421.3464 649.2784,420.0552 628.8,421.6 C500.736,431.2616 465.3208,422.796 342.4,460 C325.836,465.0136 308.6568,472.368 293.088,479.9632 " fill="none" id="GraphService-to-VehicleDB" style="stroke:#A80036;stroke-width:0.8;"/><polygon fill="#A80036" points="289.1656,481.8984,297.0383,481.5819,292.7526,480.1283,294.2062,475.8426,289.1656,481.8984" style="stroke:#A80036;stroke-width:0.8;"/><polygon fill="#000000" points="628.8366,429.4807,636.3239,430.8333,635.689,426.1741,628.8366,429.4807" style="stroke:#000000;stroke-width:0.8;"/><text fill="#000000" font-family="sans-serif" font-size="10.4" lengthAdjust="spacing" textLength="16.8" x="640" y="433.1961">has</text><text fill="#000000" font-family="sans-serif" font-size="10.4" lengthAdjust="spacing" textLength="5.6" x="1059.1536" y="390.9436">1</text><text fill="#000000" font-family="sans-serif" font-size="10.4" lengthAdjust="spacing" textLength="5.6" x="292.3945" y="473.3698">1</text><!--MD5=[b4470ce3575abd5b7d073686c8d1312f]
link DeliveryRun to Courier--><path codeLine="123" d="M1259.672,564.9784 C1241.92,584.9944 1222.336,607.076 1207.432,623.8813 " fill="none" id="DeliveryRun-to-Courier" style="stroke:#A80036;stroke-width:0.8;"/><polygon fill="#A80036" points="1204.704,626.9562,1211.8746,623.6908,1207.3573,623.9628,1207.0853,619.4455,1204.704,626.9562" style="stroke:#A80036;stroke-width:0.8;"/><polygon fill="#000000" points="1238.1459,599.1332,1244.7062,595.2796,1241.1882,592.1595,1238.1459,599.1332" style="stroke:#000000;stroke-width:0.8;"/><text fill="#000000" font-family="sans-serif" font-size="10.4" lengthAdjust="spacing" textLength="16.8" x="1248" y="600.3961">has</text><text fill="#000000" font-family="sans-serif" font-size="10.4" lengthAdjust="spacing" textLength="5.6" x="1249.0469" y="581.8705">1</text><text fill="#000000" font-family="sans-serif" font-size="10.4" lengthAdjust="spacing" textLength="5.6" x="1202.9617" y="618.5093">1</text><!--MD5=[e18d03d320f17b2dea52510b2a2c0308]
link DeliveryRun to DeliveryStatus--><path codeLine="124" d="M1321.808,564.9784 C1327.968,584.6624 1334.76,606.3432 1339.984,623.0402 " fill="none" id="DeliveryRun-to-DeliveryStatus" style="stroke:#A80036;stroke-width:0.8;"/><polygon fill="#A80036" points="1341.208,626.9562,1342.1108,619.129,1340.013,623.1388,1336.0031,621.041,1341.208,626.9562" style="stroke:#A80036;stroke-width:0.8;"/><text fill="#000000" font-family="sans-serif" font-size="10.4" lengthAdjust="spacing" textLength="16.8" x="1333.6" y="600.3961">has</text><text fill="#000000" font-family="sans-serif" font-size="10.4" lengthAdjust="spacing" textLength="5.6" x="1317.5907" y="581.8705">1</text><text fill="#000000" font-family="sans-serif" font-size="10.4" lengthAdjust="spacing" textLength="5.6" x="1333.4647" y="618.5093">1</text><!--MD5=[ab7202c0ad762d609b406832fa0f044a]
link DeliveryRunService to DeliveryRun--><path codeLine="126" d="M1305.6,396.1584 C1305.6,415.0512 1305.6,436.4944 1305.6,455.7296 " fill="none" id="DeliveryRunService-to-DeliveryRun" style="stroke:#A80036;stroke-width:0.8;"/><polygon fill="#A80036" points="1305.6,459.7984,1308.8,452.5984,1305.6,455.7984,1302.4,452.5984,1305.6,459.7984" style="stroke:#A80036;stroke-width:0.8;"/><text fill="#000000" font-family="sans-serif" font-size="10.4" lengthAdjust="spacing" textLength="34.4" x="1306.4" y="433.1961">creates</text><text fill="#000000" font-family="sans-serif" font-size="10.4" lengthAdjust="spacing" textLength="5.6" x="1299.7113" y="413.0484">1</text><text fill="#000000" font-family="sans-serif" font-size="10.4" lengthAdjust="spacing" textLength="4" x="1301.3813" y="451.3559">*</text><!--MD5=[cdb9bbb74957a692bceb8c72ed2ae8d3]
reverse link DataHandler to DeliveryRunDB--><path d="M285.0928,384.4528 C316.7344,410.6944 357.9512,444.8784 389.6784,471.192 " fill="none" id="DataHandler-backto-DeliveryRunDB" style="stroke:#A80036;stroke-width:0.8;"/><polygon fill="none" points="281.3504,388.624,272.6096,374.0992,288.5,380.0032,281.3504,388.624" style="stroke:#A80036;stroke-width:0.8;"/><!--MD5=[f40d64c3825bdc96a4efd5b7e3ff1420]
reverse link DataHandler to PharmacyDB--><path d="M195.5848,386.0136 C166.0416,415.8416 126.96,455.3008 100.5496,481.9664 " fill="none" id="DataHandler-backto-PharmacyDB" style="stroke:#A80036;stroke-width:0.8;"/><polygon fill="none" points="191.956,381.7192,207.1944,374.292,199.9136,389.6008,191.956,381.7192" style="stroke:#A80036;stroke-width:0.8;"/><!--MD5=[a5b9aad460591e28976d2736bb1bbcd4]
reverse link DataHandler to VehicleDB--><path d="M236.8,390.4552 C236.8,419.6696 236.8,456.6048 236.8,481.9664 " fill="none" id="DataHandler-backto-VehicleDB" style="stroke:#A80036;stroke-width:0.8;"/><polygon fill="none" points="231.2,390.292,236.8,374.292,242.4,390.292,231.2,390.292" style="stroke:#A80036;stroke-width:0.8;"/><!--MD5=[b9af1f772d12807ca45af06731b7d10f]
link ApplicationPOT to UserSession--><path codeLine="131" d="M720.0888,343.6 C735.5976,343.6 751.9784,343.6 766.5848,343.6 " fill="none" id="ApplicationPOT-to-UserSession" style="stroke:#A80036;stroke-width:0.8;"/><polygon fill="#A80036" points="770.6552,343.6,763.4552,340.4,766.6552,343.6,763.4552,346.8,770.6552,343.6" style="stroke:#A80036;stroke-width:0.8;"/><text fill="#000000" font-family="sans-serif" font-size="10.4" lengthAdjust="spacing" textLength="16.8" x="737" y="338.3961">has</text><text fill="#000000" font-family="sans-serif" font-size="10.4" lengthAdjust="spacing" textLength="5.6" x="726.4369" y="340.9929">1</text><text fill="#000000" font-family="sans-serif" font-size="10.4" lengthAdjust="spacing" textLength="5.6" x="758.7348" y="340.7343">1</text><!--MD5=[3784a4bd4c43eb4f1e47b2d2414b6d33]
@startuml
skinparam classAttributeIconSize 0


package "Controller" #DDDDDD {
class ApplicationPOT
{
  +static getInstance()
  +getCurrentSession(session)
}
}

package "Data" #DDDDDD {

class DeliveryRunDB {
+DeliveryRunDB()
+addNewDeliveryRun(deliveryRun)
+getMostChargedScooter(vehicleModel)
+getMostChargedDrone(vehicleModel)
}

class PharmacyDB {
+PharmacyDB()
+getSuitableCourier()
}

class VehicleDB {
+VehicleDB()
+calculateBestVehicleAndBestPath(lstOrder)
}


class DataHandler{
+openConnection()
+closeAll()
}

}

package "UI" #DDDDDD {
class RegisterDeliveryRunUI{

}



}


package "Controller" #DDDDDD {
class RegisterDeliveryRunController{
+registerDeliveryRun(lstOrder)
}
}


package "Model" #DDDDDD {


class Courier{
+Courier(id,name,email,pw,nif,iban,pharmacy)
}

class DeliveryRun{
-Integer m_intId
-Courier m_oCourier
-Vehicle m_oVehicle
-List<Order> m_lstOrder
-DeliveryStatus m_oStatus
+DeliveryRun(courier,lstOrder,vehicle)
}

}

package "Model" #DDDDDD {
class UserSession{
-String email
+getRole()
}

package "Service" #DDDDDD {


class DeliveryRunService {
+DeliveryRunService()
+newDeliveryRun(courier,lstOrder)
+addNewDeliveryRun(deliveryRun)
+getMostChargedScooter(vehicleModel)
+getMostChargedDrone(vehicleModel)
+getMostEfficientVehicleModel(lstPair)
}

class PharmacyService {
+PharmacyService()
+getSuitableCourier()
}

class GraphService {
+GraphService()
+calculateBestVehicleAndBestPath(lstOrder)
}


}

enum DeliveryStatus{
+DeliveryStatus()
}
}






RegisterDeliveryRunUI ..> RegisterDeliveryRunController
RegisterDeliveryRunController ..> DeliveryRunService
RegisterDeliveryRunController ..> GraphService
RegisterDeliveryRunController ..> ApplicationPOT
RegisterDeliveryRunController ..> PharmacyService
PharmacyService "1" - -> "1" PharmacyDB : has >
DeliveryRunService "1" - -> "1" DeliveryRunDB : has >
GraphService "1" - -> "1" VehicleDB : has >
DeliveryRun "1" - -> "1" Courier : has >
DeliveryRun "1" - -> "1" DeliveryStatus : has

DeliveryRunService "1" - -> "*" DeliveryRun : creates

class DeliveryRunDB extends DataHandler
class PharmacyDB extends DataHandler
class VehicleDB extends DataHandler
ApplicationPOT "1" -> "1" UserSession : has

@enduml

PlantUML version 1.2021.00(Sun Jan 10 10:25:05 GMT 2021)
(GPL source distribution)
Java Runtime: OpenJDK Runtime Environment
JVM: OpenJDK 64-Bit Server VM
Default Encoding: Cp1252
Language: pt
Country: PT
--></g></svg>