<?xml version="1.0" encoding="UTF-8" standalone="no"?><svg xmlns="http://www.w3.org/2000/svg" xmlns:xlink="http://www.w3.org/1999/xlink" contentScriptType="application/ecmascript" contentStyleType="text/css" height="269px" preserveAspectRatio="none" style="width:549px;height:269px;" version="1.1" viewBox="0 0 549 269" width="549px" zoomAndPan="magnify"><defs><filter height="300%" id="frqm8mtcec5gb" width="300%" x="-1" y="-1"><feGaussianBlur result="blurOut" stdDeviation="2.0"/><feColorMatrix in="blurOut" result="blurOut2" type="matrix" values="0 0 0 0 0 0 0 0 0 0 0 0 0 0 0 0 0 0 .4 0"/><feOffset dx="4.0" dy="4.0" in="blurOut2" result="blurOut3"/><feBlend in="SourceGraphic" in2="blurOut3" mode="normal"/></filter></defs><g><!--MD5=[fa1e3283224feb76407c84b7e90ed808]
entity Database--><path d="M6,77 C6,67 46.5,67 46.5,67 C46.5,67 87,67 87,77 L87,103.6094 C87,113.6094 46.5,113.6094 46.5,113.6094 C46.5,113.6094 6,113.6094 6,103.6094 L6,77 " fill="#FFFFFF" filter="url(#frqm8mtcec5gb)" style="stroke:#000000;stroke-width:1.5;"/><path d="M6,77 C6,87 46.5,87 46.5,87 C46.5,87 87,87 87,77 " fill="none" style="stroke:#000000;stroke-width:1.5;"/><text fill="#000000" font-family="sans-serif" font-size="14" lengthAdjust="spacing" textLength="61" x="16" y="105.5332">Database</text><!--MD5=[db6d18d8099558415abc41d00477ab92]
class Admin--><rect codeLine="5" fill="#FEFECE" filter="url(#frqm8mtcec5gb)" height="40" id="Admin" style="stroke:#A80036;stroke-width:1.5;" width="67" x="13" y="167.5"/><ellipse cx="28" cy="183.5" fill="#ADD1B2" rx="11" ry="11" style="stroke:#A80036;stroke-width:1.0;"/><path d="M30,180 Q30.2031,179.5 30.4375,179.25 Q30.6719,179 30.9375,179 Q31.4063,179 31.7031,179.2813 Q32,179.5625 32,180.2188 L32,181.7813 Q32,182.4375 31.7188,182.7188 Q31.4375,183 31,183 Q30.6094,183 30.3594,182.8281 Q30.1094,182.6563 30,182.2031 Q29.9531,181.8906 29.7813,181.7188 Q29.4688,181.3906 28.9063,181.2031 Q28.3438,181 27.7813,181 Q27.0781,181 26.4844,181.2813 Q25.9063,181.5625 25.4531,182.1875 Q25,182.8125 25,183.6719 L25,184.5938 Q25,185.625 25.8438,186.3125 Q26.6875,187 28.1875,187 Q29.0781,187 29.7031,186.7969 Q30.0625,186.6875 30.4688,186.3281 Q30.7344,186.125 30.875,186.0625 Q31.0156,186 31.1875,186 Q31.5156,186 31.75,186.2656 Q32,186.5156 32,186.875 Q32,187.2188 31.6563,187.625 Q31.1563,188.2188 30.3594,188.5469 Q29.3125,189 28.0313,189 Q26.5313,189 25.3281,188.4063 Q24.3594,187.9375 23.6719,186.9219 Q23,185.9063 23,184.7031 L23,183.6094 Q23,182.3594 23.5938,181.2656 Q24.2031,180.1719 25.25,179.5938 Q26.3125,179 27.5,179 Q28.2188,179 28.8438,179.25 Q29.4688,179.5 30,180 Z " fill="#000000"/><text fill="#000000" font-family="sans-serif" font-size="12" lengthAdjust="spacing" textLength="35" x="42" y="188.4102">Admin</text><line style="stroke:#A80036;stroke-width:1.5;" x1="14" x2="79" y1="199.5" y2="199.5"/><!--MD5=[3fd616f346a44cd59a91eb10b19e157c]
class User--><rect codeLine="9" fill="#FEFECE" filter="url(#frqm8mtcec5gb)" height="109.1797" id="User" style="stroke:#A80036;stroke-width:1.5;" width="97" x="231.5" y="7"/><ellipse cx="264.05" cy="23" fill="#A9DCDF" rx="11" ry="11" style="stroke:#A80036;stroke-width:1.0;"/><path d="M265.8,24.5 L262.5031,24.5 L262.0656,25.5 L262.0656,25.5 L262.5344,25.5 L263.05,26.125 L263.05,26.5 L263.05,26.875 L262.5344,27.5 L262.0656,27.5 L260.175,27.5 L259.5656,27.5 L259.05,26.875 L259.05,26.5 L259.05,26.125 L259.5656,25.5 L260.175,25.5 L262.4875,19.5 L261.6125,19.5 L260.5656,19.5 L260.05,18.875 L260.05,18.5 L260.05,18.125 L260.5656,17.5 L261.6125,17.5 L265.2844,17.5 L267.9719,25.5 L268.5344,25.5 L268.5344,25.5 L269.05,26.125 L269.05,26.5 L269.05,26.875 L268.5344,27.5 L267.9719,27.5 L266.0813,27.5 L265.5656,27.5 L265.05,26.875 L265.05,26.5 L265.05,26.125 L265.5656,25.5 L266.0813,25.5 L266.0813,25.5 L265.8,24.5 Z M265.2531,22.5 L264.05,18.9219 L263.0188,22.5 L265.2531,22.5 Z " fill="#000000"/><text fill="#000000" font-family="sans-serif" font-size="12" font-style="italic" lengthAdjust="spacing" textLength="26" x="281.95" y="27.9102">User</text><line style="stroke:#A80036;stroke-width:1.5;" x1="232.5" x2="327.5" y1="39" y2="39"/><text fill="#000000" font-family="sans-serif" font-size="11" lengthAdjust="spacing" textLength="48" x="237.5" y="54.4189">-Integer id</text><text fill="#000000" font-family="sans-serif" font-size="11" lengthAdjust="spacing" textLength="59" x="237.5" y="68.2549">-String email</text><text fill="#000000" font-family="sans-serif" font-size="11" lengthAdjust="spacing" textLength="85" x="237.5" y="82.0908">-String password</text><text fill="#000000" font-family="sans-serif" font-size="11" lengthAdjust="spacing" textLength="52" x="237.5" y="95.9268">-Integer nif</text><text fill="#000000" font-family="sans-serif" font-size="11" lengthAdjust="spacing" textLength="61" x="237.5" y="109.7627">-String name</text><!--MD5=[30da194321b846ed0272a2c085d943b8]
class DeliveryRun--><rect codeLine="17" fill="#FEFECE" filter="url(#frqm8mtcec5gb)" height="95.3438" id="DeliveryRun" style="stroke:#A80036;stroke-width:1.5;" width="98" x="231" y="160"/><ellipse cx="246" cy="176" fill="#ADD1B2" rx="11" ry="11" style="stroke:#A80036;stroke-width:1.0;"/><path d="M248,172.5 Q248.2031,172 248.4375,171.75 Q248.6719,171.5 248.9375,171.5 Q249.4063,171.5 249.7031,171.7813 Q250,172.0625 250,172.7188 L250,174.2813 Q250,174.9375 249.7188,175.2188 Q249.4375,175.5 249,175.5 Q248.6094,175.5 248.3594,175.3281 Q248.1094,175.1563 248,174.7031 Q247.9531,174.3906 247.7813,174.2188 Q247.4688,173.8906 246.9063,173.7031 Q246.3438,173.5 245.7813,173.5 Q245.0781,173.5 244.4844,173.7813 Q243.9063,174.0625 243.4531,174.6875 Q243,175.3125 243,176.1719 L243,177.0938 Q243,178.125 243.8438,178.8125 Q244.6875,179.5 246.1875,179.5 Q247.0781,179.5 247.7031,179.2969 Q248.0625,179.1875 248.4688,178.8281 Q248.7344,178.625 248.875,178.5625 Q249.0156,178.5 249.1875,178.5 Q249.5156,178.5 249.75,178.7656 Q250,179.0156 250,179.375 Q250,179.7188 249.6563,180.125 Q249.1563,180.7188 248.3594,181.0469 Q247.3125,181.5 246.0313,181.5 Q244.5313,181.5 243.3281,180.9063 Q242.3594,180.4375 241.6719,179.4219 Q241,178.4063 241,177.2031 L241,176.1094 Q241,174.8594 241.5938,173.7656 Q242.2031,172.6719 243.25,172.0938 Q244.3125,171.5 245.5,171.5 Q246.2188,171.5 246.8438,171.75 Q247.4688,172 248,172.5 Z " fill="#000000"/><text fill="#000000" font-family="sans-serif" font-size="12" lengthAdjust="spacing" textLength="66" x="260" y="180.9102">DeliveryRun</text><line style="stroke:#A80036;stroke-width:1.5;" x1="232" x2="328" y1="192" y2="192"/><text fill="#000000" font-family="sans-serif" font-size="11" lengthAdjust="spacing" textLength="48" x="237" y="207.4189">-Integer id</text><text fill="#000000" font-family="sans-serif" font-size="11" lengthAdjust="spacing" textLength="76" x="237" y="221.2549">-Courier courier</text><text fill="#000000" font-family="sans-serif" font-size="11" lengthAdjust="spacing" textLength="82" x="237" y="235.0908">-Scooter scooter</text><text fill="#000000" font-family="sans-serif" font-size="11" lengthAdjust="spacing" textLength="64" x="237" y="248.9268">-Drone drone</text><!--MD5=[f160ba300d47c98b270c2929f680544d]
class DeliveryStatus--><rect codeLine="24" fill="#FEFECE" filter="url(#frqm8mtcec5gb)" height="53.8359" id="DeliveryStatus" style="stroke:#A80036;stroke-width:1.5;" width="110" x="425" y="180.5"/><ellipse cx="440" cy="196.5" fill="#ADD1B2" rx="11" ry="11" style="stroke:#A80036;stroke-width:1.0;"/><path d="M442,193 Q442.2031,192.5 442.4375,192.25 Q442.6719,192 442.9375,192 Q443.4063,192 443.7031,192.2813 Q444,192.5625 444,193.2188 L444,194.7813 Q444,195.4375 443.7188,195.7188 Q443.4375,196 443,196 Q442.6094,196 442.3594,195.8281 Q442.1094,195.6563 442,195.2031 Q441.9531,194.8906 441.7813,194.7188 Q441.4688,194.3906 440.9063,194.2031 Q440.3438,194 439.7813,194 Q439.0781,194 438.4844,194.2813 Q437.9063,194.5625 437.4531,195.1875 Q437,195.8125 437,196.6719 L437,197.5938 Q437,198.625 437.8438,199.3125 Q438.6875,200 440.1875,200 Q441.0781,200 441.7031,199.7969 Q442.0625,199.6875 442.4688,199.3281 Q442.7344,199.125 442.875,199.0625 Q443.0156,199 443.1875,199 Q443.5156,199 443.75,199.2656 Q444,199.5156 444,199.875 Q444,200.2188 443.6563,200.625 Q443.1563,201.2188 442.3594,201.5469 Q441.3125,202 440.0313,202 Q438.5313,202 437.3281,201.4063 Q436.3594,200.9375 435.6719,199.9219 Q435,198.9063 435,197.7031 L435,196.6094 Q435,195.3594 435.5938,194.2656 Q436.2031,193.1719 437.25,192.5938 Q438.3125,192 439.5,192 Q440.2188,192 440.8438,192.25 Q441.4688,192.5 442,193 Z " fill="#000000"/><text fill="#000000" font-family="sans-serif" font-size="12" lengthAdjust="spacing" textLength="78" x="454" y="201.4102">DeliveryStatus</text><line style="stroke:#A80036;stroke-width:1.5;" x1="426" x2="534" y1="212.5" y2="212.5"/><text fill="#000000" font-family="sans-serif" font-size="11" lengthAdjust="spacing" textLength="90" x="431" y="227.9189">-String designation</text><!--MD5=[66e25ec2fb5d71c0b850aa388279f367]
link Database to User--><path codeLine="33" d="M87.03,85.55 C126.94,80.55 188.6,72.82 231.22,67.49 " fill="none" id="Database-User" style="stroke:#A80036;stroke-width:1.0;"/><text fill="#000000" font-family="sans-serif" font-size="13" lengthAdjust="spacing" textLength="82" x="118" y="68.9951">has registered</text><text fill="#000000" font-family="sans-serif" font-size="13" lengthAdjust="spacing" textLength="7" x="94.8728" y="99.6545">1</text><text fill="#000000" font-family="sans-serif" font-size="13" lengthAdjust="spacing" textLength="5" x="218.3678" y="83.1405">*</text><!--MD5=[1b963c1ada7d76c5fc22ebda70f72c11]
link Database to DeliveryRun--><path codeLine="34" d="M87.02,101.98 C118.86,112.03 164.21,128.19 201,148.5 C211.11,154.08 221.35,160.86 230.94,167.81 " fill="none" id="Database-DeliveryRun" style="stroke:#A80036;stroke-width:1.0;"/><text fill="#000000" font-family="sans-serif" font-size="13" lengthAdjust="spacing" textLength="82" x="118" y="109.9951">has registered</text><text fill="#000000" font-family="sans-serif" font-size="13" lengthAdjust="spacing" textLength="7" x="95.1362" y="119.1352">1</text><text fill="#000000" font-family="sans-serif" font-size="13" lengthAdjust="spacing" textLength="5" x="218.0449" y="176.4532">*</text><!--MD5=[478425156ee10c55cac736d5b0b47b37]
link Admin to User--><path codeLine="35" d="M80.14,192.41 C112.96,195.68 163.87,196.04 201,174.5 C213.53,167.23 231.73,141.41 247.41,116.28 " fill="none" id="Admin-User" style="stroke:#A80036;stroke-width:1.0;"/><polygon fill="#000000" points="150.5508,163.6046,141.1009,164.6765,143.5357,170.0263,150.5508,163.6046" style="stroke:#000000;stroke-width:1.0;"/><text fill="#000000" font-family="sans-serif" font-size="13" lengthAdjust="spacing" textLength="21" x="155" y="170.9951">is a</text><text fill="#000000" font-family="sans-serif" font-size="13" lengthAdjust="spacing" textLength="7" x="87.8001" y="208.6041">1</text><text fill="#000000" font-family="sans-serif" font-size="13" lengthAdjust="spacing" textLength="7" x="235.786" y="137.8298">1</text><!--MD5=[e18d03d320f17b2dea52510b2a2c0308]
link DeliveryRun to DeliveryStatus--><path codeLine="36" d="M329.18,207.5 C358.03,207.5 394.77,207.5 424.65,207.5 " fill="none" id="DeliveryRun-DeliveryStatus" style="stroke:#A80036;stroke-width:1.0;"/><polygon fill="#000000" points="369,198.6758,359.9549,195.7369,359.9549,201.6147,369,198.6758" style="stroke:#000000;stroke-width:1.0;"/><text fill="#000000" font-family="sans-serif" font-size="13" lengthAdjust="spacing" textLength="21" x="373" y="203.9951">has</text><text fill="#000000" font-family="sans-serif" font-size="13" lengthAdjust="spacing" textLength="7" x="336.9174" y="222.1707">1</text><text fill="#000000" font-family="sans-serif" font-size="13" lengthAdjust="spacing" textLength="7" x="410.1098" y="222.0531">1</text><!--MD5=[a6af3ddf147e30ec8ddf9140e4464bbd]
link Admin to DeliveryRun--><path codeLine="37" d="M74.04,207.68 C86.4,215.85 101.73,224.33 117,228.5 C154.48,238.73 198.24,232 230.83,223.53 " fill="none" id="Admin-DeliveryRun" style="stroke:#A80036;stroke-width:1.0;"/><polygon fill="#000000" points="136.4746,220.1787,127.771,216.3449,127.1798,222.193,136.4746,220.1787" style="stroke:#000000;stroke-width:1.0;"/><text fill="#000000" font-family="sans-serif" font-size="13" lengthAdjust="spacing" textLength="50" x="140.5" y="224.9951">registers</text><text fill="#000000" font-family="sans-serif" font-size="13" lengthAdjust="spacing" textLength="7" x="73.8013" y="229.1502">1</text><text fill="#000000" font-family="sans-serif" font-size="13" lengthAdjust="spacing" textLength="5" x="217.918" y="240.7053">*</text><!--MD5=[18ea8191b3726df2a3cb9ec69968bc1c]
@startuml
skinparam classAttributeIconSize 0
hide methods
left to right direction

class Admin{

}

abstract class User{
-Integer id
-String email
-String password
-Integer nif
-String name
}

class DeliveryRun{
-Integer id
-Courier courier
-Scooter scooter
-Drone drone
}

class DeliveryStatus{
-String designation
}

database Database{

}


Database "1" - - "*" User : has registered
Database "1" - - "*" DeliveryRun : has registered
Admin "1" - - "1" User : is a >
DeliveryRun"1" - - "1" DeliveryStatus : has >
Admin "1" - - "*" DeliveryRun : registers >

@enduml

PlantUML version 1.2021.00(Sun Jan 10 10:25:05 GMT 2021)
(GPL source distribution)
Java Runtime: OpenJDK Runtime Environment
JVM: OpenJDK 64-Bit Server VM
Default Encoding: Cp1252
Language: pt
Country: PT
--></g></svg>