<?xml version="1.0" encoding="UTF-8" standalone="no"?><svg xmlns="http://www.w3.org/2000/svg" xmlns:xlink="http://www.w3.org/1999/xlink" contentScriptType="application/ecmascript" contentStyleType="text/css" height="1904px" preserveAspectRatio="none" style="width:2329px;height:1904px;" version="1.1" viewBox="0 0 2329 1904" width="2329px" zoomAndPan="magnify"><defs><filter height="300%" id="f1i25c46sfe6sh" width="300%" x="-1" y="-1"><feGaussianBlur result="blurOut" stdDeviation="2.0"/><feColorMatrix in="blurOut" result="blurOut2" type="matrix" values="0 0 0 0 0 0 0 0 0 0 0 0 0 0 0 0 0 0 .4 0"/><feOffset dx="4.0" dy="4.0" in="blurOut2" result="blurOut3"/><feBlend in="SourceGraphic" in2="blurOut3" mode="normal"/></filter></defs><g><rect fill="#FFFFFF" filter="url(#f1i25c46sfe6sh)" height="1788.375" style="stroke:#A80036;stroke-width:1.0;" width="10" x="37.5" y="99.6094"/><rect fill="#FFFFFF" filter="url(#f1i25c46sfe6sh)" height="60.3516" style="stroke:#A80036;stroke-width:1.0;" width="10" x="306.5" y="121.9609"/><rect fill="#FFFFFF" filter="url(#f1i25c46sfe6sh)" height="1567.7813" style="stroke:#A80036;stroke-width:1.0;" width="10" x="306.5" y="212.6641"/><rect fill="#FFFFFF" filter="url(#f1i25c46sfe6sh)" height="30" style="stroke:#A80036;stroke-width:1.0;" width="10" x="306.5" y="1842.9844"/><rect fill="#FFFFFF" filter="url(#f1i25c46sfe6sh)" height="1443.0234" style="stroke:#A80036;stroke-width:1.0;" width="10" x="511.5" y="243.0156"/><rect fill="#FFFFFF" filter="url(#f1i25c46sfe6sh)" height="30" style="stroke:#A80036;stroke-width:1.0;" width="10" x="684.5" y="658.6797"/><rect fill="#FFFFFF" filter="url(#f1i25c46sfe6sh)" height="30" style="stroke:#A80036;stroke-width:1.0;" width="10" x="812.5" y="719.0313"/><rect fill="#FFFFFF" filter="url(#f1i25c46sfe6sh)" height="30" style="stroke:#A80036;stroke-width:1.0;" width="10" x="933" y="779.3828"/><rect fill="#FFFFFF" filter="url(#f1i25c46sfe6sh)" height="54.2188" style="stroke:#A80036;stroke-width:1.0;" width="10" x="1066.5" y="283.3672"/><rect fill="#FFFFFF" filter="url(#f1i25c46sfe6sh)" height="60.3516" style="stroke:#A80036;stroke-width:1.0;" width="10" x="1066.5" y="1167.25"/><rect fill="#FFFFFF" filter="url(#f1i25c46sfe6sh)" height="60.3516" style="stroke:#A80036;stroke-width:1.0;" width="10" x="1066.5" y="1321.4922"/><rect fill="#FFFFFF" filter="url(#f1i25c46sfe6sh)" height="94.5703" style="stroke:#A80036;stroke-width:1.0;" width="10" x="1066.5" y="1466.8984"/><rect fill="#FFFFFF" filter="url(#f1i25c46sfe6sh)" height="60.3516" style="stroke:#A80036;stroke-width:1.0;" width="10" x="1066.5" y="1625.6875"/><rect fill="#FFFFFF" filter="url(#f1i25c46sfe6sh)" height="54.2188" style="stroke:#A80036;stroke-width:1.0;" width="10" x="1204" y="411.8047"/><rect fill="#FFFFFF" filter="url(#f1i25c46sfe6sh)" height="60.3516" style="stroke:#A80036;stroke-width:1.0;" width="10" x="1204" y="865.0859"/><rect fill="#FFFFFF" filter="url(#f1i25c46sfe6sh)" height="54.2188" style="stroke:#A80036;stroke-width:1.0;" width="10" x="1334.5" y="540.2422"/><rect fill="#FFFFFF" filter="url(#f1i25c46sfe6sh)" height="60.3516" style="stroke:#A80036;stroke-width:1.0;" width="10" x="1334.5" y="1028.8438"/><rect fill="#FFFFFF" filter="url(#f1i25c46sfe6sh)" height="30" style="stroke:#A80036;stroke-width:1.0;" width="10" x="1469.5" y="1197.6016"/><rect fill="#FFFFFF" filter="url(#f1i25c46sfe6sh)" height="30" style="stroke:#A80036;stroke-width:1.0;" width="10" x="1469.5" y="1351.8438"/><rect fill="#FFFFFF" filter="url(#f1i25c46sfe6sh)" height="30" style="stroke:#A80036;stroke-width:1.0;" width="10" x="1469.5" y="1656.0391"/><rect fill="#FFFFFF" filter="url(#f1i25c46sfe6sh)" height="30" style="stroke:#A80036;stroke-width:1.0;" width="10" x="1594" y="895.4375"/><rect fill="#FFFFFF" filter="url(#f1i25c46sfe6sh)" height="30" style="stroke:#A80036;stroke-width:1.0;" width="10" x="1699.5" y="1059.1953"/><rect fill="#FFFFFF" filter="url(#f1i25c46sfe6sh)" height="54.2188" style="stroke:#A80036;stroke-width:1.0;" width="10" x="1811" y="1507.25"/><rect fill="#FFFFFF" filter="url(#f1i25c46sfe6sh)" height="1056.6016" style="stroke:#000000;stroke-width:2.0;" width="2020" x="10" y="824.3828"/><rect fill="#FFFFFF" filter="url(#f1i25c46sfe6sh)" height="449.4063" style="stroke:#000000;stroke-width:2.0;" width="1365" x="401.5" y="988.1406"/><rect fill="#FFFFFF" height="154.2422" style="stroke:none;stroke-width:1.0;" width="1365" x="401.5" y="1283.3047"/><rect fill="#FFFFFF" height="92.5391" style="stroke:none;stroke-width:1.0;" width="2020" x="10" y="1788.4453"/><line style="stroke:#A80036;stroke-width:1.0;stroke-dasharray:5.0,5.0;" x1="42" x2="42" y1="89.6094" y2="1897.9844"/><line style="stroke:#A80036;stroke-width:1.0;stroke-dasharray:5.0,5.0;" x1="311.5" x2="311.5" y1="89.6094" y2="1897.9844"/><line style="stroke:#A80036;stroke-width:1.0;stroke-dasharray:5.0,5.0;" x1="516.5" x2="516.5" y1="89.6094" y2="1897.9844"/><line style="stroke:#A80036;stroke-width:1.0;stroke-dasharray:5.0,5.0;" x1="689.5" x2="689.5" y1="89.6094" y2="1897.9844"/><line style="stroke:#A80036;stroke-width:1.0;stroke-dasharray:5.0,5.0;" x1="817.5" x2="817.5" y1="89.6094" y2="1897.9844"/><line style="stroke:#A80036;stroke-width:1.0;stroke-dasharray:5.0,5.0;" x1="937.5" x2="937.5" y1="89.6094" y2="1897.9844"/><line style="stroke:#A80036;stroke-width:1.0;stroke-dasharray:5.0,5.0;" x1="1071.5" x2="1071.5" y1="293.125" y2="1897.9844"/><line style="stroke:#A80036;stroke-width:1.0;stroke-dasharray:5.0,5.0;" x1="1208.5" x2="1208.5" y1="421.5625" y2="1897.9844"/><line style="stroke:#A80036;stroke-width:1.0;stroke-dasharray:5.0,5.0;" x1="1339.5" x2="1339.5" y1="550" y2="1897.9844"/><line style="stroke:#A80036;stroke-width:1.0;stroke-dasharray:5.0,5.0;" x1="1474.5" x2="1474.5" y1="357.3438" y2="1897.9844"/><line style="stroke:#A80036;stroke-width:1.0;stroke-dasharray:5.0,5.0;" x1="1598.5" x2="1598.5" y1="485.7813" y2="1897.9844"/><line style="stroke:#A80036;stroke-width:1.0;stroke-dasharray:5.0,5.0;" x1="1704.5" x2="1704.5" y1="614.2188" y2="1897.9844"/><line style="stroke:#A80036;stroke-width:1.0;stroke-dasharray:5.0,5.0;" x1="1815.5" x2="1815.5" y1="1517.0078" y2="1897.9844"/><line style="stroke:#A80036;stroke-width:1.0;stroke-dasharray:5.0,5.0;" x1="1963" x2="1963" y1="1581.2266" y2="1897.9844"/><line style="stroke:#A80036;stroke-width:1.0;stroke-dasharray:5.0,5.0;" x1="2064" x2="2064" y1="89.6094" y2="1897.9844"/><line style="stroke:#A80036;stroke-width:1.0;stroke-dasharray:5.0,5.0;" x1="2136" x2="2136" y1="89.6094" y2="1897.9844"/><line style="stroke:#A80036;stroke-width:1.0;stroke-dasharray:5.0,5.0;" x1="2222" x2="2222" y1="89.6094" y2="1897.9844"/><line style="stroke:#A80036;stroke-width:1.0;stroke-dasharray:5.0,5.0;" x1="2300" x2="2300" y1="89.6094" y2="1897.9844"/><text fill="#000000" font-family="sans-serif" font-size="14" lengthAdjust="spacing" textLength="39" x="20" y="86.5332">Admin</text><ellipse cx="42.5" cy="15" fill="#FEFECE" filter="url(#f1i25c46sfe6sh)" rx="8" ry="8" style="stroke:#A80036;stroke-width:2.0;"/><path d="M42.5,23 L42.5,50 M29.5,31 L55.5,31 M42.5,50 L29.5,65 M42.5,50 L55.5,65 " fill="none" filter="url(#f1i25c46sfe6sh)" style="stroke:#A80036;stroke-width:2.0;"/><rect fill="#FEFECE" filter="url(#f1i25c46sfe6sh)" height="31.6094" style="stroke:#A80036;stroke-width:1.5;" width="156" x="231.5" y="53"/><text fill="#000000" font-family="sans-serif" font-size="14" lengthAdjust="spacing" textLength="142" x="238.5" y="74.5332">RegisterDeliveryRunUI</text><rect fill="#FEFECE" filter="url(#f1i25c46sfe6sh)" height="31.6094" style="stroke:#A80036;stroke-width:1.5;" width="206" x="411.5" y="53"/><text fill="#000000" font-family="sans-serif" font-size="14" lengthAdjust="spacing" textLength="192" x="418.5" y="74.5332">RegisterDeliveryRunController</text><rect fill="#FEFECE" filter="url(#f1i25c46sfe6sh)" height="31.6094" style="stroke:#A80036;stroke-width:1.5;" width="112" x="631.5" y="53"/><text fill="#000000" font-family="sans-serif" font-size="14" lengthAdjust="spacing" textLength="98" x="638.5" y="74.5332">ApplicationPOT</text><rect fill="#FEFECE" filter="url(#f1i25c46sfe6sh)" height="49.2188" style="stroke:#A80036;stroke-width:1.5;" width="116" x="757.5" y="35.3906"/><text fill="#000000" font-family="sans-serif" font-size="14" lengthAdjust="spacing" textLength="24" x="803.5" y="56.9238">app</text><text fill="#000000" font-family="sans-serif" font-size="14" lengthAdjust="spacing" textLength="102" x="764.5" y="74.5332">:ApplicationPOT</text><rect fill="#FEFECE" filter="url(#f1i25c46sfe6sh)" height="49.2188" style="stroke:#A80036;stroke-width:1.5;" width="97" x="887.5" y="35.3906"/><text fill="#000000" font-family="sans-serif" font-size="14" lengthAdjust="spacing" textLength="48" x="912" y="56.9238">session</text><text fill="#000000" font-family="sans-serif" font-size="14" lengthAdjust="spacing" textLength="83" x="894.5" y="74.5332">:UserSession</text><rect fill="#FEFECE" filter="url(#f1i25c46sfe6sh)" height="49.2188" style="stroke:#A80036;stroke-width:1.5;" width="65" x="2030" y="35.3906"/><text fill="#000000" font-family="sans-serif" font-size="14" lengthAdjust="spacing" textLength="44" x="2040.5" y="56.9238">courier</text><text fill="#000000" font-family="sans-serif" font-size="14" lengthAdjust="spacing" textLength="51" x="2037" y="74.5332">:Courier</text><rect fill="#FEFECE" filter="url(#f1i25c46sfe6sh)" height="31.6094" style="stroke:#A80036;stroke-width:1.5;" width="51" x="2109" y="53"/><text fill="#000000" font-family="sans-serif" font-size="14" lengthAdjust="spacing" textLength="37" x="2116" y="74.5332">Order</text><rect fill="#FEFECE" filter="url(#f1i25c46sfe6sh)" height="31.6094" style="stroke:#A80036;stroke-width:1.5;" width="93" x="2174" y="53"/><text fill="#000000" font-family="sans-serif" font-size="14" lengthAdjust="spacing" textLength="79" x="2181" y="74.5332">DataHandler</text><rect fill="#FEFECE" filter="url(#f1i25c46sfe6sh)" height="31.6094" style="stroke:#A80036;stroke-width:1.5;" width="34" x="2281" y="53"/><text fill="#000000" font-family="sans-serif" font-size="14" lengthAdjust="spacing" textLength="20" x="2288" y="74.5332">OS</text><rect fill="#FFFFFF" filter="url(#f1i25c46sfe6sh)" height="1788.375" style="stroke:#A80036;stroke-width:1.0;" width="10" x="37.5" y="99.6094"/><rect fill="#FFFFFF" filter="url(#f1i25c46sfe6sh)" height="60.3516" style="stroke:#A80036;stroke-width:1.0;" width="10" x="306.5" y="121.9609"/><rect fill="#FFFFFF" filter="url(#f1i25c46sfe6sh)" height="1567.7813" style="stroke:#A80036;stroke-width:1.0;" width="10" x="306.5" y="212.6641"/><rect fill="#FFFFFF" filter="url(#f1i25c46sfe6sh)" height="30" style="stroke:#A80036;stroke-width:1.0;" width="10" x="306.5" y="1842.9844"/><rect fill="#FFFFFF" filter="url(#f1i25c46sfe6sh)" height="1443.0234" style="stroke:#A80036;stroke-width:1.0;" width="10" x="511.5" y="243.0156"/><rect fill="#FFFFFF" filter="url(#f1i25c46sfe6sh)" height="30" style="stroke:#A80036;stroke-width:1.0;" width="10" x="684.5" y="658.6797"/><rect fill="#FFFFFF" filter="url(#f1i25c46sfe6sh)" height="30" style="stroke:#A80036;stroke-width:1.0;" width="10" x="812.5" y="719.0313"/><rect fill="#FFFFFF" filter="url(#f1i25c46sfe6sh)" height="30" style="stroke:#A80036;stroke-width:1.0;" width="10" x="933" y="779.3828"/><rect fill="#FFFFFF" filter="url(#f1i25c46sfe6sh)" height="54.2188" style="stroke:#A80036;stroke-width:1.0;" width="10" x="1066.5" y="283.3672"/><rect fill="#FFFFFF" filter="url(#f1i25c46sfe6sh)" height="60.3516" style="stroke:#A80036;stroke-width:1.0;" width="10" x="1066.5" y="1167.25"/><rect fill="#FFFFFF" filter="url(#f1i25c46sfe6sh)" height="60.3516" style="stroke:#A80036;stroke-width:1.0;" width="10" x="1066.5" y="1321.4922"/><rect fill="#FFFFFF" filter="url(#f1i25c46sfe6sh)" height="94.5703" style="stroke:#A80036;stroke-width:1.0;" width="10" x="1066.5" y="1466.8984"/><rect fill="#FFFFFF" filter="url(#f1i25c46sfe6sh)" height="60.3516" style="stroke:#A80036;stroke-width:1.0;" width="10" x="1066.5" y="1625.6875"/><rect fill="#FFFFFF" filter="url(#f1i25c46sfe6sh)" height="54.2188" style="stroke:#A80036;stroke-width:1.0;" width="10" x="1204" y="411.8047"/><rect fill="#FFFFFF" filter="url(#f1i25c46sfe6sh)" height="60.3516" style="stroke:#A80036;stroke-width:1.0;" width="10" x="1204" y="865.0859"/><rect fill="#FFFFFF" filter="url(#f1i25c46sfe6sh)" height="54.2188" style="stroke:#A80036;stroke-width:1.0;" width="10" x="1334.5" y="540.2422"/><rect fill="#FFFFFF" filter="url(#f1i25c46sfe6sh)" height="60.3516" style="stroke:#A80036;stroke-width:1.0;" width="10" x="1334.5" y="1028.8438"/><rect fill="#FFFFFF" filter="url(#f1i25c46sfe6sh)" height="30" style="stroke:#A80036;stroke-width:1.0;" width="10" x="1469.5" y="1197.6016"/><rect fill="#FFFFFF" filter="url(#f1i25c46sfe6sh)" height="30" style="stroke:#A80036;stroke-width:1.0;" width="10" x="1469.5" y="1351.8438"/><rect fill="#FFFFFF" filter="url(#f1i25c46sfe6sh)" height="30" style="stroke:#A80036;stroke-width:1.0;" width="10" x="1469.5" y="1656.0391"/><rect fill="#FFFFFF" filter="url(#f1i25c46sfe6sh)" height="30" style="stroke:#A80036;stroke-width:1.0;" width="10" x="1594" y="895.4375"/><rect fill="#FFFFFF" filter="url(#f1i25c46sfe6sh)" height="30" style="stroke:#A80036;stroke-width:1.0;" width="10" x="1699.5" y="1059.1953"/><rect fill="#FFFFFF" filter="url(#f1i25c46sfe6sh)" height="54.2188" style="stroke:#A80036;stroke-width:1.0;" width="10" x="1811" y="1507.25"/><polygon fill="#A80036" points="294.5,117.9609,304.5,121.9609,294.5,125.9609,298.5,121.9609" style="stroke:#A80036;stroke-width:1.0;"/><line style="stroke:#A80036;stroke-width:1.0;" x1="47.5" x2="300.5" y1="121.9609" y2="121.9609"/><text fill="#000000" font-family="sans-serif" font-size="13" font-weight="bold" lengthAdjust="spacing" textLength="7" x="54.5" y="117.1045">1</text><text fill="#000000" font-family="sans-serif" font-size="13" lengthAdjust="spacing" textLength="229" x="65.5" y="117.1045">Initiates the registration of a delivery run</text><polygon fill="#A80036" points="58.5,178.3125,48.5,182.3125,58.5,186.3125,54.5,182.3125" style="stroke:#A80036;stroke-width:1.0;"/><line style="stroke:#A80036;stroke-width:1.0;stroke-dasharray:2.0,2.0;" x1="52.5" x2="310.5" y1="182.3125" y2="182.3125"/><text fill="#000000" font-family="sans-serif" font-size="13" font-weight="bold" lengthAdjust="spacing" textLength="7" x="64.5" y="177.4561">2</text><text fill="#000000" font-family="sans-serif" font-size="13" lengthAdjust="spacing" textLength="134" x="75.5" y="177.4561">Asks for a list of orders</text><polygon fill="#A80036" points="294.5,208.6641,304.5,212.6641,294.5,216.6641,298.5,212.6641" style="stroke:#A80036;stroke-width:1.0;"/><line style="stroke:#A80036;stroke-width:1.0;" x1="47.5" x2="300.5" y1="212.6641" y2="212.6641"/><text fill="#000000" font-family="sans-serif" font-size="13" font-weight="bold" lengthAdjust="spacing" textLength="7" x="54.5" y="207.8076">3</text><text fill="#000000" font-family="sans-serif" font-size="13" lengthAdjust="spacing" textLength="104" x="65.5" y="207.8076">Gives an order list</text><polygon fill="#A80036" points="499.5,239.0156,509.5,243.0156,499.5,247.0156,503.5,243.0156" style="stroke:#A80036;stroke-width:1.0;"/><line style="stroke:#A80036;stroke-width:1.0;" x1="316.5" x2="505.5" y1="243.0156" y2="243.0156"/><text fill="#000000" font-family="sans-serif" font-size="13" font-weight="bold" lengthAdjust="spacing" textLength="7" x="323.5" y="238.1592">4</text><text fill="#000000" font-family="sans-serif" font-size="13" lengthAdjust="spacing" textLength="165" x="334.5" y="238.1592">registerDeliveryRun(lstOrder)</text><polygon fill="#A80036" points="986.5,269.3672,996.5,273.3672,986.5,277.3672,990.5,273.3672" style="stroke:#A80036;stroke-width:1.0;"/><line style="stroke:#A80036;stroke-width:1.0;" x1="521.5" x2="992.5" y1="273.3672" y2="273.3672"/><text fill="#000000" font-family="sans-serif" font-size="13" font-weight="bold" lengthAdjust="spacing" textLength="7" x="528.5" y="268.5107">5</text><text fill="#000000" font-family="sans-serif" font-size="13" lengthAdjust="spacing" textLength="44" x="539.5" y="268.5107">create()</text><rect fill="#FEFECE" filter="url(#f1i25c46sfe6sh)" height="49.2188" style="stroke:#A80036;stroke-width:1.5;" width="142" x="998.5" y="251.0156"/><text fill="#000000" font-family="sans-serif" font-size="14" lengthAdjust="spacing" textLength="122" x="1008.5" y="272.5488">deliveryRunService</text><text fill="#000000" font-family="sans-serif" font-size="14" lengthAdjust="spacing" textLength="128" x="1005.5" y="290.1582">:DeliveryRunService</text><polygon fill="#A80036" points="1403.5,333.5859,1413.5,337.5859,1403.5,341.5859,1407.5,337.5859" style="stroke:#A80036;stroke-width:1.0;"/><line style="stroke:#A80036;stroke-width:1.0;" x1="1071.5" x2="1409.5" y1="337.5859" y2="337.5859"/><text fill="#000000" font-family="sans-serif" font-size="13" font-weight="bold" lengthAdjust="spacing" textLength="7" x="1078.5" y="332.7295">6</text><text fill="#000000" font-family="sans-serif" font-size="13" lengthAdjust="spacing" textLength="44" x="1089.5" y="332.7295">create()</text><rect fill="#FEFECE" filter="url(#f1i25c46sfe6sh)" height="49.2188" style="stroke:#A80036;stroke-width:1.5;" width="114" x="1415.5" y="315.2344"/><text fill="#000000" font-family="sans-serif" font-size="14" lengthAdjust="spacing" textLength="94" x="1425.5" y="336.7676">deliveryRunDB</text><text fill="#000000" font-family="sans-serif" font-size="14" lengthAdjust="spacing" textLength="100" x="1422.5" y="354.377">:DeliveryRunDB</text><polygon fill="#A80036" points="1142.5,397.8047,1152.5,401.8047,1142.5,405.8047,1146.5,401.8047" style="stroke:#A80036;stroke-width:1.0;"/><line style="stroke:#A80036;stroke-width:1.0;" x1="521.5" x2="1148.5" y1="401.8047" y2="401.8047"/><text fill="#000000" font-family="sans-serif" font-size="13" font-weight="bold" lengthAdjust="spacing" textLength="7" x="528.5" y="396.9482">7</text><text fill="#000000" font-family="sans-serif" font-size="13" lengthAdjust="spacing" textLength="44" x="539.5" y="396.9482">create()</text><rect fill="#FEFECE" filter="url(#f1i25c46sfe6sh)" height="49.2188" style="stroke:#A80036;stroke-width:1.5;" width="105" x="1154.5" y="379.4531"/><text fill="#000000" font-family="sans-serif" font-size="14" lengthAdjust="spacing" textLength="84" x="1165" y="400.9863">graphService</text><text fill="#000000" font-family="sans-serif" font-size="14" lengthAdjust="spacing" textLength="91" x="1161.5" y="418.5957">:GraphService</text><polygon fill="#A80036" points="1543.5,462.0234,1553.5,466.0234,1543.5,470.0234,1547.5,466.0234" style="stroke:#A80036;stroke-width:1.0;"/><line style="stroke:#A80036;stroke-width:1.0;" x1="1209" x2="1549.5" y1="466.0234" y2="466.0234"/><text fill="#000000" font-family="sans-serif" font-size="13" font-weight="bold" lengthAdjust="spacing" textLength="7" x="1216" y="461.167">8</text><text fill="#000000" font-family="sans-serif" font-size="13" lengthAdjust="spacing" textLength="44" x="1227" y="461.167">create()</text><rect fill="#FEFECE" filter="url(#f1i25c46sfe6sh)" height="49.2188" style="stroke:#A80036;stroke-width:1.5;" width="83" x="1555.5" y="443.6719"/><text fill="#000000" font-family="sans-serif" font-size="14" lengthAdjust="spacing" textLength="65" x="1564.5" y="465.2051">VehicleDB</text><text fill="#000000" font-family="sans-serif" font-size="14" lengthAdjust="spacing" textLength="69" x="1562.5" y="482.8145">:VehicleDB</text><polygon fill="#A80036" points="1261.5,526.2422,1271.5,530.2422,1261.5,534.2422,1265.5,530.2422" style="stroke:#A80036;stroke-width:1.0;"/><line style="stroke:#A80036;stroke-width:1.0;" x1="521.5" x2="1267.5" y1="530.2422" y2="530.2422"/><text fill="#000000" font-family="sans-serif" font-size="13" font-weight="bold" lengthAdjust="spacing" textLength="7" x="528.5" y="525.3857">9</text><text fill="#000000" font-family="sans-serif" font-size="13" lengthAdjust="spacing" textLength="44" x="539.5" y="525.3857">create()</text><rect fill="#FEFECE" filter="url(#f1i25c46sfe6sh)" height="49.2188" style="stroke:#A80036;stroke-width:1.5;" width="128" x="1273.5" y="507.8906"/><text fill="#000000" font-family="sans-serif" font-size="14" lengthAdjust="spacing" textLength="109" x="1283" y="529.4238">pharmacyService</text><text fill="#000000" font-family="sans-serif" font-size="14" lengthAdjust="spacing" textLength="114" x="1280.5" y="547.0332">:PharmacyService</text><polygon fill="#A80036" points="1640.5,590.4609,1650.5,594.4609,1640.5,598.4609,1644.5,594.4609" style="stroke:#A80036;stroke-width:1.0;"/><line style="stroke:#A80036;stroke-width:1.0;" x1="1339.5" x2="1646.5" y1="594.4609" y2="594.4609"/><text fill="#000000" font-family="sans-serif" font-size="13" font-weight="bold" lengthAdjust="spacing" textLength="14" x="1346.5" y="589.6045">10</text><text fill="#000000" font-family="sans-serif" font-size="13" lengthAdjust="spacing" textLength="44" x="1364.5" y="589.6045">create()</text><rect fill="#FEFECE" filter="url(#f1i25c46sfe6sh)" height="49.2188" style="stroke:#A80036;stroke-width:1.5;" width="100" x="1652.5" y="572.1094"/><text fill="#000000" font-family="sans-serif" font-size="14" lengthAdjust="spacing" textLength="81" x="1662" y="593.6426">pharmacyDB</text><text fill="#000000" font-family="sans-serif" font-size="14" lengthAdjust="spacing" textLength="86" x="1659.5" y="611.252">:PharmacyDB</text><polygon fill="#A80036" points="672.5,654.6797,682.5,658.6797,672.5,662.6797,676.5,658.6797" style="stroke:#A80036;stroke-width:1.0;"/><line style="stroke:#A80036;stroke-width:1.0;" x1="521.5" x2="678.5" y1="658.6797" y2="658.6797"/><text fill="#000000" font-family="sans-serif" font-size="13" font-weight="bold" lengthAdjust="spacing" textLength="14" x="528.5" y="653.8232">11</text><text fill="#000000" font-family="sans-serif" font-size="13" lengthAdjust="spacing" textLength="112" x="546.5" y="653.8232">app = getInstance()</text><polygon fill="#A80036" points="800.5,715.0313,810.5,719.0313,800.5,723.0313,804.5,719.0313" style="stroke:#A80036;stroke-width:1.0;"/><line style="stroke:#A80036;stroke-width:1.0;" x1="521.5" x2="806.5" y1="719.0313" y2="719.0313"/><text fill="#000000" font-family="sans-serif" font-size="13" font-weight="bold" lengthAdjust="spacing" textLength="14" x="528.5" y="714.1748">12</text><text fill="#000000" font-family="sans-serif" font-size="13" lengthAdjust="spacing" textLength="115" x="546.5" y="714.1748">getCurrentSession()</text><polygon fill="#A80036" points="921,775.3828,931,779.3828,921,783.3828,925,779.3828" style="stroke:#A80036;stroke-width:1.0;"/><line style="stroke:#A80036;stroke-width:1.0;" x1="521.5" x2="927" y1="779.3828" y2="779.3828"/><text fill="#000000" font-family="sans-serif" font-size="13" font-weight="bold" lengthAdjust="spacing" textLength="14" x="528.5" y="774.5264">13</text><text fill="#000000" font-family="sans-serif" font-size="13" lengthAdjust="spacing" textLength="52" x="546.5" y="774.5264">getRole()</text><path d="M10,824.3828 L71,824.3828 L71,832.3828 L61,842.3828 L10,842.3828 L10,824.3828 " fill="#EEEEEE" style="stroke:#000000;stroke-width:1.0;"/><rect fill="none" height="1056.6016" style="stroke:#000000;stroke-width:2.0;" width="2020" x="10" y="824.3828"/><text fill="#000000" font-family="sans-serif" font-size="13" font-weight="bold" lengthAdjust="spacing" textLength="16" x="25" y="838.8779">alt</text><text fill="#000000" font-family="sans-serif" font-size="11" font-weight="bold" lengthAdjust="spacing" textLength="210" x="86" y="837.8018">[if user is authorized (if it's an admin)]</text><polygon fill="#A80036" points="1192,861.0859,1202,865.0859,1192,869.0859,1196,865.0859" style="stroke:#A80036;stroke-width:1.0;"/><line style="stroke:#A80036;stroke-width:1.0;" x1="521.5" x2="1198" y1="865.0859" y2="865.0859"/><text fill="#000000" font-family="sans-serif" font-size="13" font-weight="bold" lengthAdjust="spacing" textLength="14" x="528.5" y="860.2295">14</text><text fill="#000000" font-family="sans-serif" font-size="13" lengthAdjust="spacing" textLength="343" x="546.5" y="860.2295">vehicleModel = calculateBestVehicleAndBestPath(lstOrder)</text><polygon fill="#A80036" points="1582,891.4375,1592,895.4375,1582,899.4375,1586,895.4375" style="stroke:#A80036;stroke-width:1.0;"/><line style="stroke:#A80036;stroke-width:1.0;" x1="1214" x2="1588" y1="895.4375" y2="895.4375"/><text fill="#000000" font-family="sans-serif" font-size="13" font-weight="bold" lengthAdjust="spacing" textLength="14" x="1221" y="890.5811">15</text><text fill="#000000" font-family="sans-serif" font-size="13" lengthAdjust="spacing" textLength="343" x="1239" y="890.5811">vehicleModel = calculateBestVehicleAndBestPath(lstOrder)</text><rect fill="#FFFFFF" filter="url(#f1i25c46sfe6sh)" height="42.7031" style="stroke:#000000;stroke-width:2.0;" width="126" x="1552.5" y="933.4375"/><polygon fill="#EEEEEE" points="1552.5,933.4375,1614.5,933.4375,1614.5,941.4375,1604.5,951.4375,1552.5,951.4375,1552.5,933.4375" style="stroke:#000000;stroke-width:2.0;"/><text fill="#000000" font-family="sans-serif" font-size="13" font-weight="bold" lengthAdjust="spacing" textLength="17" x="1565.5" y="948.9326">ref</text><text fill="#000000" font-family="sans-serif" font-size="13" lengthAdjust="spacing" textLength="118" x="1558.5" y="968.9326">SD_CONNECTIONS</text><path d="M401.5,988.1406 L462.5,988.1406 L462.5,996.1406 L452.5,1006.1406 L401.5,1006.1406 L401.5,988.1406 " fill="#EEEEEE" style="stroke:#000000;stroke-width:1.0;"/><rect fill="none" height="449.4063" style="stroke:#000000;stroke-width:2.0;" width="1365" x="401.5" y="988.1406"/><text fill="#000000" font-family="sans-serif" font-size="13" font-weight="bold" lengthAdjust="spacing" textLength="16" x="416.5" y="1002.6357">alt</text><text fill="#000000" font-family="sans-serif" font-size="11" font-weight="bold" lengthAdjust="spacing" textLength="125" x="477.5" y="1001.5596">[if vehicle is a scooter]</text><polygon fill="#A80036" points="1322.5,1024.8438,1332.5,1028.8438,1322.5,1032.8438,1326.5,1028.8438" style="stroke:#A80036;stroke-width:1.0;"/><line style="stroke:#A80036;stroke-width:1.0;" x1="521.5" x2="1328.5" y1="1028.8438" y2="1028.8438"/><text fill="#000000" font-family="sans-serif" font-size="13" font-weight="bold" lengthAdjust="spacing" textLength="14" x="528.5" y="1023.9873">16</text><text fill="#000000" font-family="sans-serif" font-size="13" lengthAdjust="spacing" textLength="169" x="546.5" y="1023.9873">courier = getSuitableCourier()</text><polygon fill="#A80036" points="1687.5,1055.1953,1697.5,1059.1953,1687.5,1063.1953,1691.5,1059.1953" style="stroke:#A80036;stroke-width:1.0;"/><line style="stroke:#A80036;stroke-width:1.0;" x1="1344.5" x2="1693.5" y1="1059.1953" y2="1059.1953"/><text fill="#000000" font-family="sans-serif" font-size="13" font-weight="bold" lengthAdjust="spacing" textLength="14" x="1351.5" y="1054.3389">17</text><text fill="#000000" font-family="sans-serif" font-size="13" lengthAdjust="spacing" textLength="114" x="1369.5" y="1054.3389">getSuitableCourier()</text><rect fill="#FFFFFF" filter="url(#f1i25c46sfe6sh)" height="42.7031" style="stroke:#000000;stroke-width:2.0;" width="126" x="1649.5" y="1097.1953"/><polygon fill="#EEEEEE" points="1649.5,1097.1953,1711.5,1097.1953,1711.5,1105.1953,1701.5,1115.1953,1649.5,1115.1953,1649.5,1097.1953" style="stroke:#000000;stroke-width:2.0;"/><text fill="#000000" font-family="sans-serif" font-size="13" font-weight="bold" lengthAdjust="spacing" textLength="17" x="1662.5" y="1112.6904">ref</text><text fill="#000000" font-family="sans-serif" font-size="13" lengthAdjust="spacing" textLength="118" x="1655.5" y="1132.6904">SD_CONNECTIONS</text><polygon fill="#A80036" points="1054.5,1163.25,1064.5,1167.25,1054.5,1171.25,1058.5,1167.25" style="stroke:#A80036;stroke-width:1.0;"/><line style="stroke:#A80036;stroke-width:1.0;" x1="521.5" x2="1060.5" y1="1167.25" y2="1167.25"/><text fill="#000000" font-family="sans-serif" font-size="13" font-weight="bold" lengthAdjust="spacing" textLength="14" x="528.5" y="1162.3936">18</text><text fill="#000000" font-family="sans-serif" font-size="13" lengthAdjust="spacing" textLength="203" x="546.5" y="1162.3936">vehicle = getMostChargedScooter()</text><polygon fill="#A80036" points="1457.5,1193.6016,1467.5,1197.6016,1457.5,1201.6016,1461.5,1197.6016" style="stroke:#A80036;stroke-width:1.0;"/><line style="stroke:#A80036;stroke-width:1.0;" x1="1076.5" x2="1463.5" y1="1197.6016" y2="1197.6016"/><text fill="#000000" font-family="sans-serif" font-size="13" font-weight="bold" lengthAdjust="spacing" textLength="14" x="1083.5" y="1192.7451">19</text><text fill="#000000" font-family="sans-serif" font-size="13" lengthAdjust="spacing" textLength="203" x="1101.5" y="1192.7451">vehicle = getMostChargedScooter()</text><rect fill="#FFFFFF" filter="url(#f1i25c46sfe6sh)" height="42.7031" style="stroke:#000000;stroke-width:2.0;" width="126" x="1412.5" y="1235.6016"/><polygon fill="#EEEEEE" points="1412.5,1235.6016,1474.5,1235.6016,1474.5,1243.6016,1464.5,1253.6016,1412.5,1253.6016,1412.5,1235.6016" style="stroke:#000000;stroke-width:2.0;"/><text fill="#000000" font-family="sans-serif" font-size="13" font-weight="bold" lengthAdjust="spacing" textLength="17" x="1425.5" y="1251.0967">ref</text><text fill="#000000" font-family="sans-serif" font-size="13" lengthAdjust="spacing" textLength="118" x="1418.5" y="1271.0967">SD_CONNECTIONS</text><line style="stroke:#000000;stroke-width:1.0;stroke-dasharray:2.0,2.0;" x1="401.5" x2="1766.5" y1="1284.3047" y2="1284.3047"/><text fill="#000000" font-family="sans-serif" font-size="11" font-weight="bold" lengthAdjust="spacing" textLength="115" x="406.5" y="1295.7236">[if vehicle is a drone]</text><polygon fill="#A80036" points="1054.5,1317.4922,1064.5,1321.4922,1054.5,1325.4922,1058.5,1321.4922" style="stroke:#A80036;stroke-width:1.0;"/><line style="stroke:#A80036;stroke-width:1.0;" x1="521.5" x2="1060.5" y1="1321.4922" y2="1321.4922"/><text fill="#000000" font-family="sans-serif" font-size="13" font-weight="bold" lengthAdjust="spacing" textLength="14" x="528.5" y="1316.6357">20</text><text fill="#000000" font-family="sans-serif" font-size="13" lengthAdjust="spacing" textLength="192" x="546.5" y="1316.6357">vehicle = getMostChargedDrone()</text><polygon fill="#A80036" points="1457.5,1347.8438,1467.5,1351.8438,1457.5,1355.8438,1461.5,1351.8438" style="stroke:#A80036;stroke-width:1.0;"/><line style="stroke:#A80036;stroke-width:1.0;" x1="1076.5" x2="1463.5" y1="1351.8438" y2="1351.8438"/><text fill="#000000" font-family="sans-serif" font-size="13" font-weight="bold" lengthAdjust="spacing" textLength="14" x="1083.5" y="1346.9873">21</text><text fill="#000000" font-family="sans-serif" font-size="13" lengthAdjust="spacing" textLength="192" x="1101.5" y="1346.9873">vehicle = getMostChargedDrone()</text><rect fill="#FFFFFF" filter="url(#f1i25c46sfe6sh)" height="42.7031" style="stroke:#000000;stroke-width:2.0;" width="126" x="1412.5" y="1389.8438"/><polygon fill="#EEEEEE" points="1412.5,1389.8438,1474.5,1389.8438,1474.5,1397.8438,1464.5,1407.8438,1412.5,1407.8438,1412.5,1389.8438" style="stroke:#000000;stroke-width:2.0;"/><text fill="#000000" font-family="sans-serif" font-size="13" font-weight="bold" lengthAdjust="spacing" textLength="17" x="1425.5" y="1405.3389">ref</text><text fill="#000000" font-family="sans-serif" font-size="13" lengthAdjust="spacing" textLength="118" x="1418.5" y="1425.3389">SD_CONNECTIONS</text><polygon fill="#A80036" points="1054.5,1462.8984,1064.5,1466.8984,1054.5,1470.8984,1058.5,1466.8984" style="stroke:#A80036;stroke-width:1.0;"/><line style="stroke:#A80036;stroke-width:1.0;" x1="521.5" x2="1060.5" y1="1466.8984" y2="1466.8984"/><text fill="#000000" font-family="sans-serif" font-size="13" font-weight="bold" lengthAdjust="spacing" textLength="14" x="528.5" y="1462.042">22</text><text fill="#000000" font-family="sans-serif" font-size="13" lengthAdjust="spacing" textLength="317" x="546.5" y="1462.042">deliveryRun = newDeliveryRun(courier,lstOrder, vehicle)</text><polygon fill="#A80036" points="1754.5,1493.25,1764.5,1497.25,1754.5,1501.25,1758.5,1497.25" style="stroke:#A80036;stroke-width:1.0;"/><line style="stroke:#A80036;stroke-width:1.0;" x1="1076.5" x2="1760.5" y1="1497.25" y2="1497.25"/><text fill="#000000" font-family="sans-serif" font-size="13" font-weight="bold" lengthAdjust="spacing" textLength="14" x="1083.5" y="1492.3936">23</text><text fill="#000000" font-family="sans-serif" font-size="13" lengthAdjust="spacing" textLength="176" x="1101.5" y="1492.3936">create(courier,lstOrder,vehicle)</text><rect fill="#FEFECE" filter="url(#f1i25c46sfe6sh)" height="49.2188" style="stroke:#A80036;stroke-width:1.5;" width="95" x="1766.5" y="1474.8984"/><text fill="#000000" font-family="sans-serif" font-size="14" lengthAdjust="spacing" textLength="75" x="1776.5" y="1496.4316">deliveryRun</text><text fill="#000000" font-family="sans-serif" font-size="14" lengthAdjust="spacing" textLength="81" x="1773.5" y="1514.041">:DeliveryRun</text><polygon fill="#A80036" points="1895,1557.4688,1905,1561.4688,1895,1565.4688,1899,1561.4688" style="stroke:#A80036;stroke-width:1.0;"/><line style="stroke:#A80036;stroke-width:1.0;" x1="1816" x2="1901" y1="1561.4688" y2="1561.4688"/><text fill="#000000" font-family="sans-serif" font-size="13" font-weight="bold" lengthAdjust="spacing" textLength="14" x="1823" y="1556.6123">24</text><text fill="#000000" font-family="sans-serif" font-size="13" lengthAdjust="spacing" textLength="44" x="1841" y="1556.6123">create()</text><rect fill="#FEFECE" filter="url(#f1i25c46sfe6sh)" height="49.2188" style="stroke:#A80036;stroke-width:1.5;" width="109" x="1907" y="1539.1172"/><text fill="#000000" font-family="sans-serif" font-size="14" lengthAdjust="spacing" textLength="38" x="1942.5" y="1560.6504">status</text><text fill="#000000" font-family="sans-serif" font-size="14" lengthAdjust="spacing" textLength="95" x="1914" y="1578.2598">:DeliveryStatus</text><polygon fill="#A80036" points="1054.5,1621.6875,1064.5,1625.6875,1054.5,1629.6875,1058.5,1625.6875" style="stroke:#A80036;stroke-width:1.0;"/><line style="stroke:#A80036;stroke-width:1.0;" x1="521.5" x2="1060.5" y1="1625.6875" y2="1625.6875"/><text fill="#000000" font-family="sans-serif" font-size="13" font-weight="bold" lengthAdjust="spacing" textLength="14" x="528.5" y="1620.8311">25</text><text fill="#000000" font-family="sans-serif" font-size="13" lengthAdjust="spacing" textLength="188" x="546.5" y="1620.8311">addNewDeliveryRun(deliveryRun)</text><polygon fill="#A80036" points="1457.5,1652.0391,1467.5,1656.0391,1457.5,1660.0391,1461.5,1656.0391" style="stroke:#A80036;stroke-width:1.0;"/><line style="stroke:#A80036;stroke-width:1.0;" x1="1076.5" x2="1463.5" y1="1656.0391" y2="1656.0391"/><text fill="#000000" font-family="sans-serif" font-size="13" font-weight="bold" lengthAdjust="spacing" textLength="14" x="1083.5" y="1651.1826">26</text><text fill="#000000" font-family="sans-serif" font-size="13" lengthAdjust="spacing" textLength="188" x="1101.5" y="1651.1826">addNewDeliveryRun(deliveryRun)</text><rect fill="#FFFFFF" filter="url(#f1i25c46sfe6sh)" height="42.7031" style="stroke:#000000;stroke-width:2.0;" width="126" x="1412.5" y="1694.0391"/><polygon fill="#EEEEEE" points="1412.5,1694.0391,1474.5,1694.0391,1474.5,1702.0391,1464.5,1712.0391,1412.5,1712.0391,1412.5,1694.0391" style="stroke:#000000;stroke-width:2.0;"/><text fill="#000000" font-family="sans-serif" font-size="13" font-weight="bold" lengthAdjust="spacing" textLength="17" x="1425.5" y="1709.5342">ref</text><text fill="#000000" font-family="sans-serif" font-size="13" lengthAdjust="spacing" textLength="118" x="1418.5" y="1729.5342">SD_CONNECTIONS</text><polygon fill="#A80036" points="58.5,1776.4453,48.5,1780.4453,58.5,1784.4453,54.5,1780.4453" style="stroke:#A80036;stroke-width:1.0;"/><line style="stroke:#A80036;stroke-width:1.0;stroke-dasharray:2.0,2.0;" x1="52.5" x2="310.5" y1="1780.4453" y2="1780.4453"/><text fill="#000000" font-family="sans-serif" font-size="13" font-weight="bold" lengthAdjust="spacing" textLength="14" x="64.5" y="1767.4131">27</text><text fill="#000000" font-family="sans-serif" font-size="13" lengthAdjust="spacing" textLength="217" x="82.5" y="1759.2373">Registers the delivery run and informs</text><text fill="#000000" font-family="sans-serif" font-size="13" lengthAdjust="spacing" textLength="200" x="82.5" y="1775.5889">about the success of the operation</text><line style="stroke:#000000;stroke-width:1.0;stroke-dasharray:2.0,2.0;" x1="10" x2="2030" y1="1789.4453" y2="1789.4453"/><text fill="#000000" font-family="sans-serif" font-size="11" font-weight="bold" lengthAdjust="spacing" textLength="140" x="15" y="1800.8643">[if User is not authorized]</text><polygon fill="#A80036" points="58.5,1838.9844,48.5,1842.9844,58.5,1846.9844,54.5,1842.9844" style="stroke:#A80036;stroke-width:1.0;"/><line style="stroke:#A80036;stroke-width:1.0;stroke-dasharray:2.0,2.0;" x1="52.5" x2="305.5" y1="1842.9844" y2="1842.9844"/><text fill="#000000" font-family="sans-serif" font-size="13" font-weight="bold" lengthAdjust="spacing" textLength="14" x="64.5" y="1829.9521">28</text><text fill="#000000" font-family="sans-serif" font-size="13" lengthAdjust="spacing" textLength="181" x="82.5" y="1821.7764">Informs about the unsuccess of</text><text fill="#000000" font-family="sans-serif" font-size="13" lengthAdjust="spacing" textLength="75" x="82.5" y="1838.1279">the operation</text><!--MD5=[833ae4d3d281c4d801c866e882353d9c]
@startuml
autonumber
hide footbox

actor "Admin" as U

participant "RegisterDeliveryRunUI" as UI
participant "RegisterDeliveryRunController" as CTRL
participant "ApplicationPOT" as _APP
participant "app\n:ApplicationPOT" as APP
participant "session\n:UserSession" as SESSION
participant "deliveryRunService\n:DeliveryRunService" as DRS
participant "graphService\n:GraphService" as GF
participant "pharmacyService\n:PharmacyService" as PS
participant "deliveryRunDB\n:DeliveryRunDB" as DB
participant "VehicleDB\n:VehicleDB" as GFDB
participant "pharmacyDB\n:PharmacyDB" as PDB
participant "deliveryRun\n:DeliveryRun" as DR
participant "status\n:DeliveryStatus" as DS

participant "courier\n:Courier" as C
participant "Order" as A

participant "DataHandler" as DH

activate U

U -> UI : Initiates the registration of a delivery run
activate UI







deactivate CTRL


UI - -> U: Asks for a list of orders

deactivate UI




U -> UI : Gives an order list
activate UI
UI -> CTRL : registerDeliveryRun(lstOrder)
activate CTRL




CTRL -> DRS** : create()
activate DRS
DRS -> DB** : create()
deactivate DRS

CTRL -> GF** : create()
activate GF
GF -> GFDB** : create()
deactivate GF

CTRL -> PS** : create()
activate PS
PS -> PDB** : create()
deactivate PS


deactivate OS
CTRL -> _APP: app = getInstance()
activate _APP
deactivate _APP

CTRL -> APP : getCurrentSession()
activate APP
deactivate APP

CTRL -> SESSION : getRole()
activate SESSION
deactivate SESSION

alt if user is authorized (if it's an admin)


CTRL -> GF : vehicleModel = calculateBestVehicleAndBestPath(lstOrder)
activate GF
GF -> GFDB : vehicleModel = calculateBestVehicleAndBestPath(lstOrder)
activate GFDB
ref over GFDB
SD_CONNECTIONS
end ref
deactivate GF
deactivate GFDB

alt if vehicle is a scooter


CTRL -> PS : courier = getSuitableCourier()
activate PS
PS -> PDB : getSuitableCourier()
activate PDB
ref over PDB
SD_CONNECTIONS
end ref
deactivate PS
deactivate PDB

CTRL -> DRS : vehicle = getMostChargedScooter()
activate DRS
DRS -> DB : vehicle = getMostChargedScooter()
activate DB
ref over DB
SD_CONNECTIONS
end ref
deactivate DRS
deactivate DB

else if vehicle is a drone

CTRL -> DRS : vehicle = getMostChargedDrone()
activate DRS
DRS -> DB : vehicle = getMostChargedDrone()
activate DB
ref over DB
SD_CONNECTIONS
end ref
deactivate DRS
deactivate DB

end

CTRL -> DRS : deliveryRun = newDeliveryRun(courier,lstOrder, vehicle)
activate DRS
DRS -> DR** : create(courier,lstOrder,vehicle)
activate DR
DR -> DS** : create()
deactivate DRS


deactivate DR

CTRL -> DRS : addNewDeliveryRun(deliveryRun)
activate DRS
DRS -> DB : addNewDeliveryRun(deliveryRun)
activate DB
deactivate DRS
ref over DB
SD_CONNECTIONS
end ref
deactivate DB


deactivate DB
deactivate DRS

deactivate CTRL

UI - -> U : Registers the delivery run and informs\nabout the success of the operation
deactivate UI

else if User is not authorized


UI - -> U : Informs about the unsuccess of\nthe operation
activate UI
deactivate UI
end








deactivate U


@enduml

PlantUML version 1.2021.00(Sun Jan 10 10:25:05 GMT 2021)
(GPL source distribution)
Java Runtime: OpenJDK Runtime Environment
JVM: OpenJDK 64-Bit Server VM
Default Encoding: Cp1252
Language: pt
Country: PT
--></g></svg>