<?xml version="1.0" encoding="UTF-8" standalone="no"?><svg xmlns="http://www.w3.org/2000/svg" xmlns:xlink="http://www.w3.org/1999/xlink" contentScriptType="application/ecmascript" contentStyleType="text/css" height="335px" preserveAspectRatio="none" style="width:878px;height:335px;" version="1.1" viewBox="0 0 878 335" width="878px" zoomAndPan="magnify"><defs><filter height="300%" id="fqy9ke9ajbpms" width="300%" x="-1" y="-1"><feGaussianBlur result="blurOut" stdDeviation="2.0"/><feColorMatrix in="blurOut" result="blurOut2" type="matrix" values="0 0 0 0 0 0 0 0 0 0 0 0 0 0 0 0 0 0 .4 0"/><feOffset dx="4.0" dy="4.0" in="blurOut2" result="blurOut3"/><feBlend in="SourceGraphic" in2="blurOut3" mode="normal"/></filter></defs><g><!--MD5=[99b8db98afdc2c8404e39242ef4c1e65]
class Platform--><rect codeLine="5" fill="#FEFECE" filter="url(#fqy9ke9ajbpms)" height="53.8359" id="Platform" style="stroke:#A80036;stroke-width:1.5;" width="102" x="7" y="128.5"/><ellipse cx="32.8" cy="144.5" fill="#ADD1B2" rx="11" ry="11" style="stroke:#A80036;stroke-width:1.0;"/><path d="M34.8,141 Q35.0031,140.5 35.2375,140.25 Q35.4719,140 35.7375,140 Q36.2063,140 36.5031,140.2813 Q36.8,140.5625 36.8,141.2188 L36.8,142.7813 Q36.8,143.4375 36.5188,143.7188 Q36.2375,144 35.8,144 Q35.4094,144 35.1594,143.8281 Q34.9094,143.6563 34.8,143.2031 Q34.7531,142.8906 34.5813,142.7188 Q34.2688,142.3906 33.7063,142.2031 Q33.1438,142 32.5813,142 Q31.8781,142 31.2844,142.2813 Q30.7062,142.5625 30.2531,143.1875 Q29.8,143.8125 29.8,144.6719 L29.8,145.5938 Q29.8,146.625 30.6437,147.3125 Q31.4875,148 32.9875,148 Q33.8781,148 34.5031,147.7969 Q34.8625,147.6875 35.2688,147.3281 Q35.5344,147.125 35.675,147.0625 Q35.8156,147 35.9875,147 Q36.3156,147 36.55,147.2656 Q36.8,147.5156 36.8,147.875 Q36.8,148.2188 36.4563,148.625 Q35.9563,149.2188 35.1594,149.5469 Q34.1125,150 32.8313,150 Q31.3312,150 30.1281,149.4063 Q29.1594,148.9375 28.4719,147.9219 Q27.8,146.9063 27.8,145.7031 L27.8,144.6094 Q27.8,143.3594 28.3937,142.2656 Q29.0031,141.1719 30.05,140.5938 Q31.1125,140 32.3,140 Q33.0188,140 33.6438,140.25 Q34.2688,140.5 34.8,141 Z " fill="#000000"/><text fill="#000000" font-family="sans-serif" font-size="12" lengthAdjust="spacingAndGlyphs" textLength="46" x="49.2" y="149.4102">Platform</text><line style="stroke:#A80036;stroke-width:1.5;" x1="8" x2="108" y1="160.5" y2="160.5"/><text fill="#000000" font-family="sans-serif" font-size="11" lengthAdjust="spacingAndGlyphs" textLength="90" x="13" y="175.9189">-String designation</text><!--MD5=[ed6624c6556d5e7b1bd23032162d20b7]
class Client--><rect codeLine="8" fill="#FEFECE" filter="url(#fqy9ke9ajbpms)" height="95.3438" id="Client" style="stroke:#A80036;stroke-width:1.5;" width="126" x="266" y="7"/><ellipse cx="308.9" cy="23" fill="#ADD1B2" rx="11" ry="11" style="stroke:#A80036;stroke-width:1.0;"/><path d="M310.9,19.5 Q311.1031,19 311.3375,18.75 Q311.5719,18.5 311.8375,18.5 Q312.3063,18.5 312.6031,18.7813 Q312.9,19.0625 312.9,19.7188 L312.9,21.2813 Q312.9,21.9375 312.6188,22.2188 Q312.3375,22.5 311.9,22.5 Q311.5094,22.5 311.2594,22.3281 Q311.0094,22.1563 310.9,21.7031 Q310.8531,21.3906 310.6813,21.2188 Q310.3688,20.8906 309.8063,20.7031 Q309.2438,20.5 308.6813,20.5 Q307.9781,20.5 307.3844,20.7813 Q306.8063,21.0625 306.3531,21.6875 Q305.9,22.3125 305.9,23.1719 L305.9,24.0938 Q305.9,25.125 306.7438,25.8125 Q307.5875,26.5 309.0875,26.5 Q309.9781,26.5 310.6031,26.2969 Q310.9625,26.1875 311.3688,25.8281 Q311.6344,25.625 311.775,25.5625 Q311.9156,25.5 312.0875,25.5 Q312.4156,25.5 312.65,25.7656 Q312.9,26.0156 312.9,26.375 Q312.9,26.7188 312.5563,27.125 Q312.0563,27.7188 311.2594,28.0469 Q310.2125,28.5 308.9313,28.5 Q307.4313,28.5 306.2281,27.9063 Q305.2594,27.4375 304.5719,26.4219 Q303.9,25.4063 303.9,24.2031 L303.9,23.1094 Q303.9,21.8594 304.4938,20.7656 Q305.1031,19.6719 306.15,19.0938 Q307.2125,18.5 308.4,18.5 Q309.1188,18.5 309.7438,18.75 Q310.3688,19 310.9,19.5 Z " fill="#000000"/><text fill="#000000" font-family="sans-serif" font-size="12" lengthAdjust="spacingAndGlyphs" textLength="32" x="329.1" y="27.9102">Client</text><line style="stroke:#A80036;stroke-width:1.5;" x1="267" x2="391" y1="39" y2="39"/><text fill="#000000" font-family="sans-serif" font-size="11" lengthAdjust="spacingAndGlyphs" textLength="42" x="272" y="54.4189">-int IBAN</text><text fill="#000000" font-family="sans-serif" font-size="11" lengthAdjust="spacingAndGlyphs" textLength="114" x="272" y="68.2549">-long creditCardNumber</text><text fill="#000000" font-family="sans-serif" font-size="11" lengthAdjust="spacingAndGlyphs" textLength="73" x="272" y="82.0908">-int validityDate</text><text fill="#000000" font-family="sans-serif" font-size="11" lengthAdjust="spacingAndGlyphs" textLength="40" x="272" y="95.9268">-int CCV</text><!--MD5=[0f39e4cb6f03951afbf6d14bd2505654]
class Address--><rect codeLine="15" fill="#FEFECE" filter="url(#fqy9ke9ajbpms)" height="136.8516" id="Address" style="stroke:#A80036;stroke-width:1.5;" width="106" x="758" y="37"/><ellipse cx="785.6" cy="53" fill="#ADD1B2" rx="11" ry="11" style="stroke:#A80036;stroke-width:1.0;"/><path d="M787.6,49.5 Q787.8031,49 788.0375,48.75 Q788.2719,48.5 788.5375,48.5 Q789.0063,48.5 789.3031,48.7813 Q789.6,49.0625 789.6,49.7188 L789.6,51.2813 Q789.6,51.9375 789.3188,52.2188 Q789.0375,52.5 788.6,52.5 Q788.2094,52.5 787.9594,52.3281 Q787.7094,52.1563 787.6,51.7031 Q787.5531,51.3906 787.3813,51.2188 Q787.0688,50.8906 786.5063,50.7031 Q785.9438,50.5 785.3813,50.5 Q784.6781,50.5 784.0844,50.7813 Q783.5063,51.0625 783.0531,51.6875 Q782.6,52.3125 782.6,53.1719 L782.6,54.0938 Q782.6,55.125 783.4438,55.8125 Q784.2875,56.5 785.7875,56.5 Q786.6781,56.5 787.3031,56.2969 Q787.6625,56.1875 788.0688,55.8281 Q788.3344,55.625 788.475,55.5625 Q788.6156,55.5 788.7875,55.5 Q789.1156,55.5 789.35,55.7656 Q789.6,56.0156 789.6,56.375 Q789.6,56.7188 789.2563,57.125 Q788.7563,57.7188 787.9594,58.0469 Q786.9125,58.5 785.6313,58.5 Q784.1313,58.5 782.9281,57.9063 Q781.9594,57.4375 781.2719,56.4219 Q780.6,55.4063 780.6,54.2031 L780.6,53.1094 Q780.6,51.8594 781.1938,50.7656 Q781.8031,49.6719 782.85,49.0938 Q783.9125,48.5 785.1,48.5 Q785.8188,48.5 786.4438,48.75 Q787.0688,49 787.6,49.5 Z " fill="#000000"/><text fill="#000000" font-family="sans-serif" font-size="12" lengthAdjust="spacingAndGlyphs" textLength="46" x="802.4" y="57.9102">Address</text><line style="stroke:#A80036;stroke-width:1.5;" x1="759" x2="863" y1="69" y2="69"/><text fill="#000000" font-family="sans-serif" font-size="11" lengthAdjust="spacingAndGlyphs" textLength="90" x="764" y="84.4189">-String streetName</text><text fill="#000000" font-family="sans-serif" font-size="11" lengthAdjust="spacingAndGlyphs" textLength="94" x="764" y="98.2549">-String doorNumber</text><text fill="#000000" font-family="sans-serif" font-size="11" lengthAdjust="spacingAndGlyphs" textLength="89" x="764" y="112.0908">-String postalCode</text><text fill="#000000" font-family="sans-serif" font-size="11" lengthAdjust="spacingAndGlyphs" textLength="68" x="764" y="125.9268">-String locality</text><text fill="#000000" font-family="sans-serif" font-size="11" lengthAdjust="spacingAndGlyphs" textLength="72" x="764" y="139.7627">-String country</text><text fill="#000000" font-family="sans-serif" font-size="11" lengthAdjust="spacingAndGlyphs" textLength="71" x="764" y="153.5986">-float longitude</text><text fill="#000000" font-family="sans-serif" font-size="11" lengthAdjust="spacingAndGlyphs" textLength="62" x="764" y="167.4346">-float latitude</text><!--MD5=[cf4d6237fcae255cd2e1656cf84a30e2]
class Order--><rect codeLine="25" fill="#FEFECE" filter="url(#fqy9ke9ajbpms)" height="136.8516" id="Order" style="stroke:#A80036;stroke-width:1.5;" width="103" x="559" y="106"/><ellipse cx="592" cy="122" fill="#ADD1B2" rx="11" ry="11" style="stroke:#A80036;stroke-width:1.0;"/><path d="M594,118.5 Q594.2031,118 594.4375,117.75 Q594.6719,117.5 594.9375,117.5 Q595.4063,117.5 595.7031,117.7813 Q596,118.0625 596,118.7188 L596,120.2813 Q596,120.9375 595.7188,121.2188 Q595.4375,121.5 595,121.5 Q594.6094,121.5 594.3594,121.3281 Q594.1094,121.1563 594,120.7031 Q593.9531,120.3906 593.7813,120.2188 Q593.4688,119.8906 592.9063,119.7031 Q592.3438,119.5 591.7813,119.5 Q591.0781,119.5 590.4844,119.7813 Q589.9063,120.0625 589.4531,120.6875 Q589,121.3125 589,122.1719 L589,123.0938 Q589,124.125 589.8438,124.8125 Q590.6875,125.5 592.1875,125.5 Q593.0781,125.5 593.7031,125.2969 Q594.0625,125.1875 594.4688,124.8281 Q594.7344,124.625 594.875,124.5625 Q595.0156,124.5 595.1875,124.5 Q595.5156,124.5 595.75,124.7656 Q596,125.0156 596,125.375 Q596,125.7188 595.6563,126.125 Q595.1563,126.7188 594.3594,127.0469 Q593.3125,127.5 592.0313,127.5 Q590.5313,127.5 589.3281,126.9063 Q588.3594,126.4375 587.6719,125.4219 Q587,124.4063 587,123.2031 L587,122.1094 Q587,120.8594 587.5938,119.7656 Q588.2031,118.6719 589.25,118.0938 Q590.3125,117.5 591.5,117.5 Q592.2188,117.5 592.8438,117.75 Q593.4688,118 594,118.5 Z " fill="#000000"/><text fill="#000000" font-family="sans-serif" font-size="12" lengthAdjust="spacingAndGlyphs" textLength="31" x="610" y="126.9102">Order</text><line style="stroke:#A80036;stroke-width:1.5;" x1="560" x2="661" y1="138" y2="138"/><text fill="#000000" font-family="sans-serif" font-size="11" lengthAdjust="spacingAndGlyphs" textLength="26" x="565" y="153.4189">-int id</text><text fill="#000000" font-family="sans-serif" font-size="11" lengthAdjust="spacingAndGlyphs" textLength="63" x="565" y="167.2549">-float amount</text><text fill="#000000" font-family="sans-serif" font-size="11" lengthAdjust="spacingAndGlyphs" textLength="81" x="565" y="181.0908">-float totalWeight</text><text fill="#000000" font-family="sans-serif" font-size="11" lengthAdjust="spacingAndGlyphs" textLength="91" x="565" y="194.9268">-float additionalFee</text><text fill="#000000" font-family="sans-serif" font-size="11" lengthAdjust="spacingAndGlyphs" textLength="77" x="565" y="208.7627">-Date orderDate</text><text fill="#000000" font-family="sans-serif" font-size="11" lengthAdjust="spacingAndGlyphs" textLength="88" x="565" y="222.5986">-String description</text><text fill="#000000" font-family="sans-serif" font-size="11" lengthAdjust="spacingAndGlyphs" textLength="65" x="565" y="236.4346">-String status</text><!--MD5=[c6a2171c11447acbe08a3dfeee0e1710]
class Courier--><rect codeLine="36" fill="#FEFECE" filter="url(#fqy9ke9ajbpms)" height="95.3438" id="Courier" style="stroke:#A80036;stroke-width:1.5;" width="73" x="292.5" y="226"/><ellipse cx="307.5" cy="242" fill="#ADD1B2" rx="11" ry="11" style="stroke:#A80036;stroke-width:1.0;"/><path d="M309.5,238.5 Q309.7031,238 309.9375,237.75 Q310.1719,237.5 310.4375,237.5 Q310.9063,237.5 311.2031,237.7813 Q311.5,238.0625 311.5,238.7188 L311.5,240.2813 Q311.5,240.9375 311.2188,241.2188 Q310.9375,241.5 310.5,241.5 Q310.1094,241.5 309.8594,241.3281 Q309.6094,241.1563 309.5,240.7031 Q309.4531,240.3906 309.2813,240.2188 Q308.9688,239.8906 308.4063,239.7031 Q307.8438,239.5 307.2813,239.5 Q306.5781,239.5 305.9844,239.7813 Q305.4063,240.0625 304.9531,240.6875 Q304.5,241.3125 304.5,242.1719 L304.5,243.0938 Q304.5,244.125 305.3438,244.8125 Q306.1875,245.5 307.6875,245.5 Q308.5781,245.5 309.2031,245.2969 Q309.5625,245.1875 309.9688,244.8281 Q310.2344,244.625 310.375,244.5625 Q310.5156,244.5 310.6875,244.5 Q311.0156,244.5 311.25,244.7656 Q311.5,245.0156 311.5,245.375 Q311.5,245.7188 311.1563,246.125 Q310.6563,246.7188 309.8594,247.0469 Q308.8125,247.5 307.5313,247.5 Q306.0313,247.5 304.8281,246.9063 Q303.8594,246.4375 303.1719,245.4219 Q302.5,244.4063 302.5,243.2031 L302.5,242.1094 Q302.5,240.8594 303.0938,239.7656 Q303.7031,238.6719 304.75,238.0938 Q305.8125,237.5 307,237.5 Q307.7188,237.5 308.3438,237.75 Q308.9688,238 309.5,238.5 Z " fill="#000000"/><text fill="#000000" font-family="sans-serif" font-size="12" lengthAdjust="spacingAndGlyphs" textLength="41" x="321.5" y="246.9102">Courier</text><line style="stroke:#A80036;stroke-width:1.5;" x1="293.5" x2="364.5" y1="258" y2="258"/><text fill="#000000" font-family="sans-serif" font-size="11" lengthAdjust="spacingAndGlyphs" textLength="43" x="298.5" y="273.4189">-String id</text><text fill="#000000" font-family="sans-serif" font-size="11" lengthAdjust="spacingAndGlyphs" textLength="61" x="298.5" y="287.2549">-String name</text><text fill="#000000" font-family="sans-serif" font-size="11" lengthAdjust="spacingAndGlyphs" textLength="47" x="298.5" y="301.0908">-String nif</text><text fill="#000000" font-family="sans-serif" font-size="11" lengthAdjust="spacingAndGlyphs" textLength="55" x="298.5" y="314.9268">-String iban</text><!--MD5=[6f4f5a959b7eecf0b4982552d890dec0]
link Platform to Client--><path codeLine="43" d="M109.28,136.62 C153.53,120.01 218.14,95.75 265.66,77.91 " fill="none" id="Platform-Client" style="stroke:#A80036;stroke-width:1.0;"/><polygon fill="#000000" points="148.681,79.9184,139.18,80.3461,141.246,85.849,148.681,79.9184" style="stroke:#000000;stroke-width:1.0;"/><text fill="#000000" font-family="sans-serif" font-size="13" lengthAdjust="spacingAndGlyphs" textLength="82" x="153" y="86.9951">has registered</text><text fill="#000000" font-family="sans-serif" font-size="13" lengthAdjust="spacingAndGlyphs" textLength="7" x="116.9834" y="148.6214">1</text><text fill="#000000" font-family="sans-serif" font-size="13" lengthAdjust="spacingAndGlyphs" textLength="5" x="253.0473" y="95.0374">*</text><!--MD5=[f0cfa747e910e280deb3c434245f2238]
link Platform to Courier--><path codeLine="44" d="M105.85,182.59 C116.61,188.44 128.09,194.39 139,199.5 C191.17,223.94 253.8,247.34 292.24,261.07 " fill="none" id="Platform-Courier" style="stroke:#A80036;stroke-width:1.0;"/><polygon fill="#000000" points="148.6082,192.6161,141.4124,186.3974,139.1314,191.8147,148.6082,192.6161" style="stroke:#000000;stroke-width:1.0;"/><text fill="#000000" font-family="sans-serif" font-size="13" lengthAdjust="spacingAndGlyphs" textLength="82" x="153" y="195.9951">has registered</text><text fill="#000000" font-family="sans-serif" font-size="13" lengthAdjust="spacingAndGlyphs" textLength="7" x="108.5516" y="203.8175">1</text><text fill="#000000" font-family="sans-serif" font-size="13" lengthAdjust="spacingAndGlyphs" textLength="5" x="279.5107" y="273.6937">*</text><!--MD5=[42412c6d1ec7cdf26c030834d47a2bbe]
link Courier to Order--><path codeLine="45" d="M365.68,260.86 C414.69,243.5 503.09,212.19 558.9,192.42 " fill="none" id="Courier-Order" style="stroke:#A80036;stroke-width:1.0;"/><polygon fill="#000000" points="431.7131,194.0064,422.2058,194.2561,424.1683,199.7966,431.7131,194.0064" style="stroke:#000000;stroke-width:1.0;"/><text fill="#000000" font-family="sans-serif" font-size="13" lengthAdjust="spacingAndGlyphs" textLength="92" x="436" y="200.9951">is associated to</text><text fill="#000000" font-family="sans-serif" font-size="13" lengthAdjust="spacingAndGlyphs" textLength="7" x="373.5904" y="273.4424">1</text><text fill="#000000" font-family="sans-serif" font-size="13" lengthAdjust="spacingAndGlyphs" textLength="5" x="545.9541" y="209.7588">*</text><!--MD5=[dd2bca8e69277b6dcf04d6bf8fed5dca]
link Order to Address--><path codeLine="46" d="M662.1,156.91 C691.39,146.73 728.19,133.94 757.76,123.66 " fill="none" id="Order-Address" style="stroke:#A80036;stroke-width:1.0;"/><polygon fill="#000000" points="701.7228,126.0342,692.2142,126.2278,694.144,131.7799,701.7228,126.0342" style="stroke:#000000;stroke-width:1.0;"/><text fill="#000000" font-family="sans-serif" font-size="13" lengthAdjust="spacingAndGlyphs" textLength="21" x="706" y="132.9951">has</text><text fill="#000000" font-family="sans-serif" font-size="13" lengthAdjust="spacingAndGlyphs" textLength="7" x="669.8484" y="169.0917">1</text><text fill="#000000" font-family="sans-serif" font-size="13" lengthAdjust="spacingAndGlyphs" textLength="5" x="744.9216" y="140.869">*</text><!--MD5=[46120166855af3d867105a26a4c9094b]
link Platform to Order--><path codeLine="47" d="M109.31,157.24 C213.89,160.85 453.72,169.12 558.71,172.75 " fill="none" id="Platform-Order" style="stroke:#A80036;stroke-width:1.0;"/><polygon fill="#000000" points="290.497,154.8482,281.5587,151.5991,281.356,157.4734,290.497,154.8482" style="stroke:#000000;stroke-width:1.0;"/><text fill="#000000" font-family="sans-serif" font-size="13" lengthAdjust="spacingAndGlyphs" textLength="82" x="294.5" y="159.9951">has registered</text><text fill="#000000" font-family="sans-serif" font-size="13" lengthAdjust="spacingAndGlyphs" textLength="7" x="117.0177" y="172.1411">1</text><text fill="#000000" font-family="sans-serif" font-size="13" lengthAdjust="spacingAndGlyphs" textLength="5" x="546.0755" y="187.1592">*</text><!--MD5=[879bec428a80d843af24dc47845bf14c]
link Client to Order--><path codeLine="48" d="M392.39,75.31 C432.11,89.22 484.3,108.73 529,129.5 C538.87,134.09 549.18,139.41 559,144.76 " fill="none" id="Client-Order" style="stroke:#A80036;stroke-width:1.0;"/><polygon fill="#000000" points="458.1151,81.5995,450.8971,75.4067,448.6355,80.8321,458.1151,81.5995" style="stroke:#000000;stroke-width:1.0;"/><text fill="#000000" font-family="sans-serif" font-size="13" lengthAdjust="spacingAndGlyphs" textLength="39" x="462.5" y="84.9951">makes</text><text fill="#000000" font-family="sans-serif" font-size="13" lengthAdjust="spacingAndGlyphs" textLength="7" x="400.1242" y="92.1367">1</text><text fill="#000000" font-family="sans-serif" font-size="13" lengthAdjust="spacingAndGlyphs" textLength="7" x="543.9219" y="155.0988">1</text><!--MD5=[bd708f2371c655af07b49ddbdb30848a]
link Client to Address--><path codeLine="49" d="M392.42,55.22 C431.69,56.12 483.4,58.11 529,62.5 C609.32,70.24 701.66,85.63 757.91,95.74 " fill="none" id="Client-Address" style="stroke:#A80036;stroke-width:1.0;"/><polygon fill="#000000" points="602.4696,58.2267,593.8034,54.309,593.1557,60.1511,602.4696,58.2267" style="stroke:#000000;stroke-width:1.0;"/><text fill="#000000" font-family="sans-serif" font-size="13" lengthAdjust="spacingAndGlyphs" textLength="21" x="606.5" y="62.9951">has</text><text fill="#000000" font-family="sans-serif" font-size="13" lengthAdjust="spacingAndGlyphs" textLength="7" x="400.1576" y="69.7238">1</text><text fill="#000000" font-family="sans-serif" font-size="13" lengthAdjust="spacingAndGlyphs" textLength="7" x="742.952" y="109.0228">1</text><!--MD5=[6dcd6c29156ab1540161ff2cae80b939]
@startuml
skinparam classAttributeIconSize 0
hide methods
left to right direction

class Platform {
-   String designation
}
class Client{
-   int IBAN
-   long creditCardNumber
-   int validityDate
-   int CCV
}

class Address{
-   String streetName
-   String doorNumber
-   String postalCode
-   String locality
-   String country
-   float longitude
-   float latitude
}

class Order{
-   int id
-   float amount
-   float totalWeight
-   float additionalFee
-   Date orderDate
-   String description
-   String status
}


class Courier {
      -String id
      -String name
      -String nif
      -String iban
}

Platform "1" - - "*" Client : has registered >
Platform "1" - - "*" Courier : has registered >
Courier "1" - - "*" Order : is associated to >
Order "1" - - "*" Address : has >
Platform "1" - - "*" Order : has registered >
Client "1" - - "1" Order : makes >
Client "1" - - "1" Address : has >
@enduml

PlantUML version 1.2020.23(Sun Dec 13 19:14:58 GMT 2020)
(GPL source distribution)
Java Runtime: OpenJDK Runtime Environment
JVM: OpenJDK 64-Bit Server VM
Default Encoding: Cp1252
Language: pt
Country: PT
--></g></svg>