<?xml version="1.0" encoding="UTF-8" standalone="no"?><svg xmlns="http://www.w3.org/2000/svg" xmlns:xlink="http://www.w3.org/1999/xlink" contentScriptType="application/ecmascript" contentStyleType="text/css" height="904px" preserveAspectRatio="none" style="width:1311px;height:904px;" version="1.1" viewBox="0 0 1311 904" width="1311px" zoomAndPan="magnify"><defs><filter height="300%" id="f1hniplquz7xjv" width="300%" x="-1" y="-1"><feGaussianBlur result="blurOut" stdDeviation="2.0"/><feColorMatrix in="blurOut" result="blurOut2" type="matrix" values="0 0 0 0 0 0 0 0 0 0 0 0 0 0 0 0 0 0 .4 0"/><feOffset dx="4.0" dy="4.0" in="blurOut2" result="blurOut3"/><feBlend in="SourceGraphic" in2="blurOut3" mode="normal"/></filter></defs><g><!--MD5=[9681dc6e01e10c6b4fe06895ae94f592]
cluster UI--><polygon fill="#DDDDDD" filter="url(#f1hniplquz7xjv)" points="93,24,113,24,120,47.6094,257,47.6094,257,124,93,124,93,24" style="stroke: #000000; stroke-width: 1.5;"/><line style="stroke: #000000; stroke-width: 1.5;" x1="93" x2="120" y1="47.6094" y2="47.6094"/><text fill="#000000" font-family="sans-serif" font-size="14" font-weight="bold" lengthAdjust="spacingAndGlyphs" textLength="14" x="97" y="40.5332">UI</text><!--MD5=[1f2cfc53d9d308f53762fd0fcbaa4873]
cluster Controller--><polygon fill="#DDDDDD" filter="url(#f1hniplquz7xjv)" points="22,157,99,157,106,180.6094,328,180.6094,328,465,22,465,22,157" style="stroke: #000000; stroke-width: 1.5;"/><line style="stroke: #000000; stroke-width: 1.5;" x1="22" x2="106" y1="180.6094" y2="180.6094"/><text fill="#000000" font-family="sans-serif" font-size="14" font-weight="bold" lengthAdjust="spacingAndGlyphs" textLength="71" x="26" y="173.5332">Controller</text><!--MD5=[15636c1ca4a123c16a2a1a8e90aca7a9]
cluster Model--><polygon fill="#DDDDDD" filter="url(#f1hniplquz7xjv)" points="352,330,402,330,409,353.6094,1129,353.6094,1129,892,352,892,352,330" style="stroke: #000000; stroke-width: 1.5;"/><line style="stroke: #000000; stroke-width: 1.5;" x1="352" x2="409" y1="353.6094" y2="353.6094"/><text fill="#000000" font-family="sans-serif" font-size="14" font-weight="bold" lengthAdjust="spacingAndGlyphs" textLength="44" x="356" y="346.5332">Model</text><!--MD5=[7f5e0441b00afcd8fa9ae108c086a015]
cluster Registration--><polygon fill="#DDDDDD" filter="url(#f1hniplquz7xjv)" points="704,520,796,520,803,543.6094,1105,543.6094,1105,648,704,648,704,520" style="stroke: #000000; stroke-width: 1.5;"/><line style="stroke: #000000; stroke-width: 1.5;" x1="704" x2="803" y1="543.6094" y2="543.6094"/><text fill="#000000" font-family="sans-serif" font-size="14" font-weight="bold" lengthAdjust="spacingAndGlyphs" textLength="86" x="708" y="536.5332">Registration</text><!--MD5=[f21b1f164e99c6b37934f23ad048ad54]
cluster Data--><polygon fill="#DDDDDD" filter="url(#f1hniplquz7xjv)" points="1153,337,1190,337,1197,360.6094,1289,360.6094,1289,465,1153,465,1153,337" style="stroke: #000000; stroke-width: 1.5;"/><line style="stroke: #000000; stroke-width: 1.5;" x1="1153" x2="1197" y1="360.6094" y2="360.6094"/><text fill="#000000" font-family="sans-serif" font-size="14" font-weight="bold" lengthAdjust="spacingAndGlyphs" textLength="31" x="1157" y="353.5332">Data</text><!--MD5=[6e833f4d304e2534fd2d5c5fc5d919d8]
class RemoveScooterUI--><rect fill="#FEFECE" filter="url(#f1hniplquz7xjv)" height="48" id="RemoveScooterUI" style="stroke: #A80036; stroke-width: 1.5;" width="132" x="109" y="60"/><ellipse cx="124" cy="76" fill="#ADD1B2" rx="11" ry="11" style="stroke: #A80036; stroke-width: 1.0;"/><path d="M126,72.5 Q126.2031,72 126.4375,71.75 Q126.6719,71.5 126.9375,71.5 Q127.4063,71.5 127.7031,71.7813 Q128,72.0625 128,72.7188 L128,74.2813 Q128,74.9375 127.7188,75.2188 Q127.4375,75.5 127,75.5 Q126.6094,75.5 126.3594,75.3281 Q126.1094,75.1563 126,74.7031 Q125.9531,74.3906 125.7813,74.2188 Q125.4688,73.8906 124.9063,73.7031 Q124.3438,73.5 123.7813,73.5 Q123.0781,73.5 122.4844,73.7813 Q121.9063,74.0625 121.4531,74.6875 Q121,75.3125 121,76.1719 L121,77.0938 Q121,78.125 121.8438,78.8125 Q122.6875,79.5 124.1875,79.5 Q125.0781,79.5 125.7031,79.2969 Q126.0625,79.1875 126.4688,78.8281 Q126.7344,78.625 126.875,78.5625 Q127.0156,78.5 127.1875,78.5 Q127.5156,78.5 127.75,78.7656 Q128,79.0156 128,79.375 Q128,79.7188 127.6563,80.125 Q127.1563,80.7188 126.3594,81.0469 Q125.3125,81.5 124.0313,81.5 Q122.5313,81.5 121.3281,80.9063 Q120.3594,80.4375 119.6719,79.4219 Q119,78.4063 119,77.2031 L119,76.1094 Q119,74.8594 119.5938,73.7656 Q120.2031,72.6719 121.25,72.0938 Q122.3125,71.5 123.5,71.5 Q124.2188,71.5 124.8438,71.75 Q125.4688,72 126,72.5 Z "/><text fill="#000000" font-family="sans-serif" font-size="12" lengthAdjust="spacingAndGlyphs" textLength="100" x="138" y="80.9102">RemoveScooterUI</text><line style="stroke: #A80036; stroke-width: 1.5;" x1="110" x2="240" y1="92" y2="92"/><line style="stroke: #A80036; stroke-width: 1.5;" x1="110" x2="240" y1="100" y2="100"/><!--MD5=[bac027668d924653165cf48795e5a572]
class RemoveScooterController--><rect fill="#FEFECE" filter="url(#f1hniplquz7xjv)" height="89.5078" id="RemoveScooterController" style="stroke: #A80036; stroke-width: 1.5;" width="273" x="38.5" y="193"/><ellipse cx="99.75" cy="209" fill="#ADD1B2" rx="11" ry="11" style="stroke: #A80036; stroke-width: 1.0;"/><path d="M101.75,205.5 Q101.9531,205 102.1875,204.75 Q102.4219,204.5 102.6875,204.5 Q103.1563,204.5 103.4531,204.7813 Q103.75,205.0625 103.75,205.7188 L103.75,207.2813 Q103.75,207.9375 103.4688,208.2188 Q103.1875,208.5 102.75,208.5 Q102.3594,208.5 102.1094,208.3281 Q101.8594,208.1563 101.75,207.7031 Q101.7031,207.3906 101.5313,207.2188 Q101.2188,206.8906 100.6563,206.7031 Q100.0938,206.5 99.5313,206.5 Q98.8281,206.5 98.2344,206.7813 Q97.6563,207.0625 97.2031,207.6875 Q96.75,208.3125 96.75,209.1719 L96.75,210.0938 Q96.75,211.125 97.5938,211.8125 Q98.4375,212.5 99.9375,212.5 Q100.8281,212.5 101.4531,212.2969 Q101.8125,212.1875 102.2188,211.8281 Q102.4844,211.625 102.625,211.5625 Q102.7656,211.5 102.9375,211.5 Q103.2656,211.5 103.5,211.7656 Q103.75,212.0156 103.75,212.375 Q103.75,212.7188 103.4063,213.125 Q102.9063,213.7188 102.1094,214.0469 Q101.0625,214.5 99.7813,214.5 Q98.2813,214.5 97.0781,213.9063 Q96.1094,213.4375 95.4219,212.4219 Q94.75,211.4063 94.75,210.2031 L94.75,209.1094 Q94.75,207.8594 95.3438,206.7656 Q95.9531,205.6719 97,205.0938 Q98.0625,204.5 99.25,204.5 Q99.9688,204.5 100.5938,204.75 Q101.2188,205 101.75,205.5 Z "/><text fill="#000000" font-family="sans-serif" font-size="12" lengthAdjust="spacingAndGlyphs" textLength="142" x="120.25" y="213.9102">RemoveScooterController</text><line style="stroke: #A80036; stroke-width: 1.5;" x1="39.5" x2="310.5" y1="225" y2="225"/><line style="stroke: #A80036; stroke-width: 1.5;" x1="39.5" x2="310.5" y1="233" y2="233"/><text fill="#000000" font-family="sans-serif" font-size="11" lengthAdjust="spacingAndGlyphs" textLength="261" x="44.5" y="248.4189">+removeScooter(batteryPerc, charginStatus, potency,</text><text fill="#000000" font-family="sans-serif" font-size="11" lengthAdjust="spacingAndGlyphs" textLength="173" x="47.5" y="262.2549">weight, batteryCapacity, pharmacy)</text><text fill="#000000" font-family="sans-serif" font-size="11" lengthAdjust="spacingAndGlyphs" textLength="151" x="44.5" y="276.0908">+showScootersList(pharmacy)</text><!--MD5=[e45a4727c47b726c25e081782e8bc183]
class ApplicationPOT--><rect fill="#FEFECE" filter="url(#f1hniplquz7xjv)" height="75.6719" id="ApplicationPOT" style="stroke: #A80036; stroke-width: 1.5;" width="116" x="41" y="373"/><ellipse cx="56" cy="389" fill="#ADD1B2" rx="11" ry="11" style="stroke: #A80036; stroke-width: 1.0;"/><path d="M58,385.5 Q58.2031,385 58.4375,384.75 Q58.6719,384.5 58.9375,384.5 Q59.4063,384.5 59.7031,384.7813 Q60,385.0625 60,385.7188 L60,387.2813 Q60,387.9375 59.7188,388.2188 Q59.4375,388.5 59,388.5 Q58.6094,388.5 58.3594,388.3281 Q58.1094,388.1563 58,387.7031 Q57.9531,387.3906 57.7813,387.2188 Q57.4688,386.8906 56.9063,386.7031 Q56.3438,386.5 55.7813,386.5 Q55.0781,386.5 54.4844,386.7813 Q53.9063,387.0625 53.4531,387.6875 Q53,388.3125 53,389.1719 L53,390.0938 Q53,391.125 53.8438,391.8125 Q54.6875,392.5 56.1875,392.5 Q57.0781,392.5 57.7031,392.2969 Q58.0625,392.1875 58.4688,391.8281 Q58.7344,391.625 58.875,391.5625 Q59.0156,391.5 59.1875,391.5 Q59.5156,391.5 59.75,391.7656 Q60,392.0156 60,392.375 Q60,392.7188 59.6563,393.125 Q59.1563,393.7188 58.3594,394.0469 Q57.3125,394.5 56.0313,394.5 Q54.5313,394.5 53.3281,393.9063 Q52.3594,393.4375 51.6719,392.4219 Q51,391.4063 51,390.2031 L51,389.1094 Q51,387.8594 51.5938,386.7656 Q52.2031,385.6719 53.25,385.0938 Q54.3125,384.5 55.5,384.5 Q56.2188,384.5 56.8438,384.75 Q57.4688,385 58,385.5 Z "/><text fill="#000000" font-family="sans-serif" font-size="12" lengthAdjust="spacingAndGlyphs" textLength="84" x="70" y="393.9102">ApplicationPOT</text><line style="stroke: #A80036; stroke-width: 1.5;" x1="42" x2="156" y1="405" y2="405"/><line style="stroke: #A80036; stroke-width: 1.5;" x1="42" x2="156" y1="413" y2="413"/><text fill="#000000" font-family="sans-serif" font-size="11" lengthAdjust="spacingAndGlyphs" textLength="99" x="47" y="428.4189">+static getInstance()</text><text fill="#000000" font-family="sans-serif" font-size="11" lengthAdjust="spacingAndGlyphs" textLength="68" x="47" y="442.2549">+getPlatform()</text><!--MD5=[c5b08e60048ef1bcd788d24cf324082e]
class UserSession--><rect fill="#FEFECE" filter="url(#f1hniplquz7xjv)" height="61.8359" id="UserSession" style="stroke: #A80036; stroke-width: 1.5;" width="116" x="192" y="380"/><ellipse cx="211.95" cy="396" fill="#ADD1B2" rx="11" ry="11" style="stroke: #A80036; stroke-width: 1.0;"/><path d="M213.95,392.5 Q214.1531,392 214.3875,391.75 Q214.6219,391.5 214.8875,391.5 Q215.3563,391.5 215.6531,391.7813 Q215.95,392.0625 215.95,392.7188 L215.95,394.2813 Q215.95,394.9375 215.6688,395.2188 Q215.3875,395.5 214.95,395.5 Q214.5594,395.5 214.3094,395.3281 Q214.0594,395.1563 213.95,394.7031 Q213.9031,394.3906 213.7313,394.2188 Q213.4188,393.8906 212.8563,393.7031 Q212.2938,393.5 211.7313,393.5 Q211.0281,393.5 210.4344,393.7813 Q209.8563,394.0625 209.4031,394.6875 Q208.95,395.3125 208.95,396.1719 L208.95,397.0938 Q208.95,398.125 209.7938,398.8125 Q210.6375,399.5 212.1375,399.5 Q213.0281,399.5 213.6531,399.2969 Q214.0125,399.1875 214.4188,398.8281 Q214.6844,398.625 214.825,398.5625 Q214.9656,398.5 215.1375,398.5 Q215.4656,398.5 215.7,398.7656 Q215.95,399.0156 215.95,399.375 Q215.95,399.7188 215.6063,400.125 Q215.1063,400.7188 214.3094,401.0469 Q213.2625,401.5 211.9813,401.5 Q210.4813,401.5 209.2781,400.9063 Q208.3094,400.4375 207.6219,399.4219 Q206.95,398.4063 206.95,397.2031 L206.95,396.1094 Q206.95,394.8594 207.5438,393.7656 Q208.1531,392.6719 209.2,392.0938 Q210.2625,391.5 211.45,391.5 Q212.1688,391.5 212.7938,391.75 Q213.4188,392 213.95,392.5 Z "/><text fill="#000000" font-family="sans-serif" font-size="12" lengthAdjust="spacingAndGlyphs" textLength="73" x="227.05" y="400.9102">UserSession</text><line style="stroke: #A80036; stroke-width: 1.5;" x1="193" x2="307" y1="412" y2="412"/><line style="stroke: #A80036; stroke-width: 1.5;" x1="193" x2="307" y1="420" y2="420"/><text fill="#000000" font-family="sans-serif" font-size="11" lengthAdjust="spacingAndGlyphs" textLength="104" x="198" y="435.4189">+getCurrentSession()</text><!--MD5=[99b8db98afdc2c8404e39242ef4c1e65]
class Platform--><rect fill="#FEFECE" filter="url(#f1hniplquz7xjv)" height="89.5078" id="Platform" style="stroke: #A80036; stroke-width: 1.5;" width="102" x="422" y="366"/><ellipse cx="447.8" cy="382" fill="#ADD1B2" rx="11" ry="11" style="stroke: #A80036; stroke-width: 1.0;"/><path d="M449.8,378.5 Q450.0031,378 450.2375,377.75 Q450.4719,377.5 450.7375,377.5 Q451.2063,377.5 451.5031,377.7813 Q451.8,378.0625 451.8,378.7188 L451.8,380.2813 Q451.8,380.9375 451.5188,381.2188 Q451.2375,381.5 450.8,381.5 Q450.4094,381.5 450.1594,381.3281 Q449.9094,381.1563 449.8,380.7031 Q449.7531,380.3906 449.5813,380.2188 Q449.2688,379.8906 448.7063,379.7031 Q448.1438,379.5 447.5813,379.5 Q446.8781,379.5 446.2844,379.7813 Q445.7063,380.0625 445.2531,380.6875 Q444.8,381.3125 444.8,382.1719 L444.8,383.0938 Q444.8,384.125 445.6438,384.8125 Q446.4875,385.5 447.9875,385.5 Q448.8781,385.5 449.5031,385.2969 Q449.8625,385.1875 450.2688,384.8281 Q450.5344,384.625 450.675,384.5625 Q450.8156,384.5 450.9875,384.5 Q451.3156,384.5 451.55,384.7656 Q451.8,385.0156 451.8,385.375 Q451.8,385.7188 451.4563,386.125 Q450.9563,386.7188 450.1594,387.0469 Q449.1125,387.5 447.8313,387.5 Q446.3313,387.5 445.1281,386.9063 Q444.1594,386.4375 443.4719,385.4219 Q442.8,384.4063 442.8,383.2031 L442.8,382.1094 Q442.8,380.8594 443.3938,379.7656 Q444.0031,378.6719 445.05,378.0938 Q446.1125,377.5 447.3,377.5 Q448.0188,377.5 448.6438,377.75 Q449.2688,378 449.8,378.5 Z "/><text fill="#000000" font-family="sans-serif" font-size="12" lengthAdjust="spacingAndGlyphs" textLength="46" x="464.2" y="386.9102">Platform</text><line style="stroke: #A80036; stroke-width: 1.5;" x1="423" x2="523" y1="398" y2="398"/><text fill="#000000" font-family="sans-serif" font-size="11" lengthAdjust="spacingAndGlyphs" textLength="90" x="428" y="413.4189">-String designation</text><line style="stroke: #A80036; stroke-width: 1.5;" x1="423" x2="523" y1="419.8359" y2="419.8359"/><text fill="#000000" font-family="sans-serif" font-size="11" lengthAdjust="spacingAndGlyphs" textLength="75" x="428" y="435.2549">+gePharmReg()</text><text fill="#000000" font-family="sans-serif" font-size="11" lengthAdjust="spacingAndGlyphs" textLength="76" x="428" y="449.0908">+getScootReg()</text><!--MD5=[f4402668d5d5bb8485350c0fdb60ac8e]
class Scooter--><rect fill="#FEFECE" filter="url(#f1hniplquz7xjv)" height="158.6875" id="Scooter" style="stroke: #A80036; stroke-width: 1.5;" width="237" x="390.5" y="717"/><ellipse cx="483.75" cy="733" fill="#ADD1B2" rx="11" ry="11" style="stroke: #A80036; stroke-width: 1.0;"/><path d="M485.75,729.5 Q485.9531,729 486.1875,728.75 Q486.4219,728.5 486.6875,728.5 Q487.1563,728.5 487.4531,728.7813 Q487.75,729.0625 487.75,729.7188 L487.75,731.2813 Q487.75,731.9375 487.4688,732.2188 Q487.1875,732.5 486.75,732.5 Q486.3594,732.5 486.1094,732.3281 Q485.8594,732.1563 485.75,731.7031 Q485.7031,731.3906 485.5313,731.2188 Q485.2188,730.8906 484.6563,730.7031 Q484.0938,730.5 483.5313,730.5 Q482.8281,730.5 482.2344,730.7813 Q481.6563,731.0625 481.2031,731.6875 Q480.75,732.3125 480.75,733.1719 L480.75,734.0938 Q480.75,735.125 481.5938,735.8125 Q482.4375,736.5 483.9375,736.5 Q484.8281,736.5 485.4531,736.2969 Q485.8125,736.1875 486.2188,735.8281 Q486.4844,735.625 486.625,735.5625 Q486.7656,735.5 486.9375,735.5 Q487.2656,735.5 487.5,735.7656 Q487.75,736.0156 487.75,736.375 Q487.75,736.7188 487.4063,737.125 Q486.9063,737.7188 486.1094,738.0469 Q485.0625,738.5 483.7813,738.5 Q482.2813,738.5 481.0781,737.9063 Q480.1094,737.4375 479.4219,736.4219 Q478.75,735.4063 478.75,734.2031 L478.75,733.1094 Q478.75,731.8594 479.3438,730.7656 Q479.9531,729.6719 481,729.0938 Q482.0625,728.5 483.25,728.5 Q483.9688,728.5 484.5938,728.75 Q485.2188,729 485.75,729.5 Z "/><text fill="#000000" font-family="sans-serif" font-size="12" lengthAdjust="spacingAndGlyphs" textLength="42" x="504.25" y="737.9102">Scooter</text><line style="stroke: #A80036; stroke-width: 1.5;" x1="391.5" x2="626.5" y1="749" y2="749"/><text fill="#000000" font-family="sans-serif" font-size="11" lengthAdjust="spacingAndGlyphs" textLength="26" x="396.5" y="764.4189">-int id</text><text fill="#000000" font-family="sans-serif" font-size="11" lengthAdjust="spacingAndGlyphs" textLength="74" x="396.5" y="778.2549">-int batteryPerc</text><text fill="#000000" font-family="sans-serif" font-size="11" lengthAdjust="spacingAndGlyphs" textLength="85" x="396.5" y="792.0908">-int charginStatus</text><text fill="#000000" font-family="sans-serif" font-size="11" lengthAdjust="spacingAndGlyphs" textLength="57" x="396.5" y="805.9268">-int potency</text><text fill="#000000" font-family="sans-serif" font-size="11" lengthAdjust="spacingAndGlyphs" textLength="51" x="396.5" y="819.7627">-int weight</text><text fill="#000000" font-family="sans-serif" font-size="11" lengthAdjust="spacingAndGlyphs" textLength="94" x="396.5" y="833.5986">-int batteryCapacity</text><line style="stroke: #A80036; stroke-width: 1.5;" x1="391.5" x2="626.5" y1="840.0156" y2="840.0156"/><text fill="#000000" font-family="sans-serif" font-size="11" lengthAdjust="spacingAndGlyphs" textLength="225" x="396.5" y="855.4346">+Scooter(batteryPerc, charginStatus, potency,</text><text fill="#000000" font-family="sans-serif" font-size="11" lengthAdjust="spacingAndGlyphs" textLength="119" x="399.5" y="869.2705">weight, batteryCapacity)</text><!--MD5=[0f39e4cb6f03951afbf6d14bd2505654]
class Address--><rect fill="#FEFECE" filter="url(#f1hniplquz7xjv)" height="144.8516" id="Address" style="stroke: #A80036; stroke-width: 1.5;" width="106" x="663" y="724"/><ellipse cx="690.6" cy="740" fill="#ADD1B2" rx="11" ry="11" style="stroke: #A80036; stroke-width: 1.0;"/><path d="M692.6,736.5 Q692.8031,736 693.0375,735.75 Q693.2719,735.5 693.5375,735.5 Q694.0063,735.5 694.3031,735.7813 Q694.6,736.0625 694.6,736.7188 L694.6,738.2813 Q694.6,738.9375 694.3188,739.2188 Q694.0375,739.5 693.6,739.5 Q693.2094,739.5 692.9594,739.3281 Q692.7094,739.1563 692.6,738.7031 Q692.5531,738.3906 692.3813,738.2188 Q692.0688,737.8906 691.5063,737.7031 Q690.9438,737.5 690.3813,737.5 Q689.6781,737.5 689.0844,737.7813 Q688.5063,738.0625 688.0531,738.6875 Q687.6,739.3125 687.6,740.1719 L687.6,741.0938 Q687.6,742.125 688.4438,742.8125 Q689.2875,743.5 690.7875,743.5 Q691.6781,743.5 692.3031,743.2969 Q692.6625,743.1875 693.0688,742.8281 Q693.3344,742.625 693.475,742.5625 Q693.6156,742.5 693.7875,742.5 Q694.1156,742.5 694.35,742.7656 Q694.6,743.0156 694.6,743.375 Q694.6,743.7188 694.2563,744.125 Q693.7563,744.7188 692.9594,745.0469 Q691.9125,745.5 690.6313,745.5 Q689.1313,745.5 687.9281,744.9063 Q686.9594,744.4375 686.2719,743.4219 Q685.6,742.4063 685.6,741.2031 L685.6,740.1094 Q685.6,738.8594 686.1938,737.7656 Q686.8031,736.6719 687.85,736.0938 Q688.9125,735.5 690.1,735.5 Q690.8188,735.5 691.4438,735.75 Q692.0688,736 692.6,736.5 Z "/><text fill="#000000" font-family="sans-serif" font-size="12" lengthAdjust="spacingAndGlyphs" textLength="46" x="707.4" y="744.9102">Address</text><line style="stroke: #A80036; stroke-width: 1.5;" x1="664" x2="768" y1="756" y2="756"/><text fill="#000000" font-family="sans-serif" font-size="11" lengthAdjust="spacingAndGlyphs" textLength="71" x="669" y="771.4189">-float longitude</text><text fill="#000000" font-family="sans-serif" font-size="11" lengthAdjust="spacingAndGlyphs" textLength="62" x="669" y="785.2549">-float latitude</text><text fill="#000000" font-family="sans-serif" font-size="11" lengthAdjust="spacingAndGlyphs" textLength="94" x="669" y="799.0908">-String doorNumber</text><text fill="#000000" font-family="sans-serif" font-size="11" lengthAdjust="spacingAndGlyphs" textLength="90" x="669" y="812.9268">-String streetName</text><text fill="#000000" font-family="sans-serif" font-size="11" lengthAdjust="spacingAndGlyphs" textLength="89" x="669" y="826.7627">-String postalCode</text><text fill="#000000" font-family="sans-serif" font-size="11" lengthAdjust="spacingAndGlyphs" textLength="68" x="669" y="840.5986">-String locality</text><text fill="#000000" font-family="sans-serif" font-size="11" lengthAdjust="spacingAndGlyphs" textLength="72" x="669" y="854.4346">-String country</text><line style="stroke: #A80036; stroke-width: 1.5;" x1="664" x2="768" y1="860.8516" y2="860.8516"/><!--MD5=[7f2a9fafcebe4f099f71398fd3e2ed00]
class Pharmacy--><rect fill="#FEFECE" filter="url(#f1hniplquz7xjv)" height="89.5078" id="Pharmacy" style="stroke: #A80036; stroke-width: 1.5;" width="150" x="535" y="549"/><ellipse cx="578.35" cy="565" fill="#ADD1B2" rx="11" ry="11" style="stroke: #A80036; stroke-width: 1.0;"/><path d="M580.35,561.5 Q580.5531,561 580.7875,560.75 Q581.0219,560.5 581.2875,560.5 Q581.7563,560.5 582.0531,560.7813 Q582.35,561.0625 582.35,561.7188 L582.35,563.2813 Q582.35,563.9375 582.0688,564.2188 Q581.7875,564.5 581.35,564.5 Q580.9594,564.5 580.7094,564.3281 Q580.4594,564.1563 580.35,563.7031 Q580.3031,563.3906 580.1313,563.2188 Q579.8188,562.8906 579.2563,562.7031 Q578.6938,562.5 578.1313,562.5 Q577.4281,562.5 576.8344,562.7813 Q576.2563,563.0625 575.8031,563.6875 Q575.35,564.3125 575.35,565.1719 L575.35,566.0938 Q575.35,567.125 576.1938,567.8125 Q577.0375,568.5 578.5375,568.5 Q579.4281,568.5 580.0531,568.2969 Q580.4125,568.1875 580.8188,567.8281 Q581.0844,567.625 581.225,567.5625 Q581.3656,567.5 581.5375,567.5 Q581.8656,567.5 582.1,567.7656 Q582.35,568.0156 582.35,568.375 Q582.35,568.7188 582.0063,569.125 Q581.5063,569.7188 580.7094,570.0469 Q579.6625,570.5 578.3813,570.5 Q576.8813,570.5 575.6781,569.9063 Q574.7094,569.4375 574.0219,568.4219 Q573.35,567.4063 573.35,566.2031 L573.35,565.1094 Q573.35,563.8594 573.9438,562.7656 Q574.5531,561.6719 575.6,561.0938 Q576.6625,560.5 577.85,560.5 Q578.5688,560.5 579.1938,560.75 Q579.8188,561 580.35,561.5 Z "/><text fill="#000000" font-family="sans-serif" font-size="12" lengthAdjust="spacingAndGlyphs" textLength="55" x="598.65" y="569.9102">Pharmacy</text><line style="stroke: #A80036; stroke-width: 1.5;" x1="536" x2="684" y1="581" y2="581"/><text fill="#000000" font-family="sans-serif" font-size="11" lengthAdjust="spacingAndGlyphs" textLength="26" x="541" y="596.4189">-int id</text><text fill="#000000" font-family="sans-serif" font-size="11" lengthAdjust="spacingAndGlyphs" textLength="61" x="541" y="610.2549">-String name</text><line style="stroke: #A80036; stroke-width: 1.5;" x1="536" x2="684" y1="616.6719" y2="616.6719"/><text fill="#000000" font-family="sans-serif" font-size="11" lengthAdjust="spacingAndGlyphs" textLength="138" x="541" y="632.0908">+getScootersList(pharmacy)</text><!--MD5=[c5b7c01e8de644a6bcc6ccb0cb86eabf]
class PharmacyRegistration--><rect fill="#FEFECE" filter="url(#f1hniplquz7xjv)" height="75.6719" id="PharmacyRegistration" style="stroke: #A80036; stroke-width: 1.5;" width="166" x="720" y="556"/><ellipse cx="740.4" cy="572" fill="#ADD1B2" rx="11" ry="11" style="stroke: #A80036; stroke-width: 1.0;"/><path d="M742.4,568.5 Q742.6031,568 742.8375,567.75 Q743.0719,567.5 743.3375,567.5 Q743.8063,567.5 744.1031,567.7813 Q744.4,568.0625 744.4,568.7188 L744.4,570.2813 Q744.4,570.9375 744.1188,571.2188 Q743.8375,571.5 743.4,571.5 Q743.0094,571.5 742.7594,571.3281 Q742.5094,571.1563 742.4,570.7031 Q742.3531,570.3906 742.1813,570.2188 Q741.8688,569.8906 741.3063,569.7031 Q740.7438,569.5 740.1813,569.5 Q739.4781,569.5 738.8844,569.7813 Q738.3063,570.0625 737.8531,570.6875 Q737.4,571.3125 737.4,572.1719 L737.4,573.0938 Q737.4,574.125 738.2438,574.8125 Q739.0875,575.5 740.5875,575.5 Q741.4781,575.5 742.1031,575.2969 Q742.4625,575.1875 742.8688,574.8281 Q743.1344,574.625 743.275,574.5625 Q743.4156,574.5 743.5875,574.5 Q743.9156,574.5 744.15,574.7656 Q744.4,575.0156 744.4,575.375 Q744.4,575.7188 744.0563,576.125 Q743.5563,576.7188 742.7594,577.0469 Q741.7125,577.5 740.4313,577.5 Q738.9313,577.5 737.7281,576.9063 Q736.7594,576.4375 736.0719,575.4219 Q735.4,574.4063 735.4,573.2031 L735.4,572.1094 Q735.4,570.8594 735.9938,569.7656 Q736.6031,568.6719 737.65,568.0938 Q738.7125,567.5 739.9,567.5 Q740.6188,567.5 741.2438,567.75 Q741.8688,568 742.4,568.5 Z "/><text fill="#000000" font-family="sans-serif" font-size="12" lengthAdjust="spacingAndGlyphs" textLength="122" x="755.6" y="576.9102">PharmacyRegistration</text><line style="stroke: #A80036; stroke-width: 1.5;" x1="721" x2="885" y1="588" y2="588"/><line style="stroke: #A80036; stroke-width: 1.5;" x1="721" x2="885" y1="596" y2="596"/><text fill="#000000" font-family="sans-serif" font-size="11" lengthAdjust="spacingAndGlyphs" textLength="154" x="726" y="611.4189">+getPharmacyById(pharmacyId)</text><text fill="#000000" font-family="sans-serif" font-size="11" lengthAdjust="spacingAndGlyphs" textLength="83" x="726" y="625.2549">+getConnection()</text><!--MD5=[4a15ac34fd2b3f03c890a74250c9952b]
class ScooterRegistration--><rect fill="#FEFECE" filter="url(#f1hniplquz7xjv)" height="61.8359" id="ScooterRegistration" style="stroke: #A80036; stroke-width: 1.5;" width="168" x="921" y="563"/><ellipse cx="948.15" cy="579" fill="#ADD1B2" rx="11" ry="11" style="stroke: #A80036; stroke-width: 1.0;"/><path d="M950.15,575.5 Q950.3531,575 950.5875,574.75 Q950.8219,574.5 951.0875,574.5 Q951.5563,574.5 951.8531,574.7813 Q952.15,575.0625 952.15,575.7188 L952.15,577.2813 Q952.15,577.9375 951.8688,578.2188 Q951.5875,578.5 951.15,578.5 Q950.7594,578.5 950.5094,578.3281 Q950.2594,578.1563 950.15,577.7031 Q950.1031,577.3906 949.9313,577.2188 Q949.6188,576.8906 949.0563,576.7031 Q948.4938,576.5 947.9313,576.5 Q947.2281,576.5 946.6344,576.7813 Q946.0563,577.0625 945.6031,577.6875 Q945.15,578.3125 945.15,579.1719 L945.15,580.0938 Q945.15,581.125 945.9938,581.8125 Q946.8375,582.5 948.3375,582.5 Q949.2281,582.5 949.8531,582.2969 Q950.2125,582.1875 950.6188,581.8281 Q950.8844,581.625 951.025,581.5625 Q951.1656,581.5 951.3375,581.5 Q951.6656,581.5 951.9,581.7656 Q952.15,582.0156 952.15,582.375 Q952.15,582.7188 951.8063,583.125 Q951.3063,583.7188 950.5094,584.0469 Q949.4625,584.5 948.1813,584.5 Q946.6813,584.5 945.4781,583.9063 Q944.5094,583.4375 943.8219,582.4219 Q943.15,581.4063 943.15,580.2031 L943.15,579.1094 Q943.15,577.8594 943.7438,576.7656 Q944.3531,575.6719 945.4,575.0938 Q946.4625,574.5 947.65,574.5 Q948.3688,574.5 948.9938,574.75 Q949.6188,575 950.15,575.5 Z "/><text fill="#000000" font-family="sans-serif" font-size="12" lengthAdjust="spacingAndGlyphs" textLength="109" x="964.85" y="583.9102">ScooterRegistration</text><line style="stroke: #A80036; stroke-width: 1.5;" x1="922" x2="1088" y1="595" y2="595"/><line style="stroke: #A80036; stroke-width: 1.5;" x1="922" x2="1088" y1="603" y2="603"/><text fill="#000000" font-family="sans-serif" font-size="11" lengthAdjust="spacingAndGlyphs" textLength="156" x="927" y="618.4189">+RemoveScooterFromDB(scoot)</text><!--MD5=[4b2d61224b33971326a22fe5d809d926]
class DataHandler--><rect fill="#FEFECE" filter="url(#f1hniplquz7xjv)" height="75.6719" id="DataHandler" style="stroke: #A80036; stroke-width: 1.5;" width="104" x="1169" y="373"/><ellipse cx="1184.9" cy="389" fill="#ADD1B2" rx="11" ry="11" style="stroke: #A80036; stroke-width: 1.0;"/><path d="M1186.9,385.5 Q1187.1031,385 1187.3375,384.75 Q1187.5719,384.5 1187.8375,384.5 Q1188.3063,384.5 1188.6031,384.7813 Q1188.9,385.0625 1188.9,385.7188 L1188.9,387.2813 Q1188.9,387.9375 1188.6188,388.2188 Q1188.3375,388.5 1187.9,388.5 Q1187.5094,388.5 1187.2594,388.3281 Q1187.0094,388.1563 1186.9,387.7031 Q1186.8531,387.3906 1186.6813,387.2188 Q1186.3688,386.8906 1185.8063,386.7031 Q1185.2438,386.5 1184.6813,386.5 Q1183.9781,386.5 1183.3844,386.7813 Q1182.8063,387.0625 1182.3531,387.6875 Q1181.9,388.3125 1181.9,389.1719 L1181.9,390.0938 Q1181.9,391.125 1182.7438,391.8125 Q1183.5875,392.5 1185.0875,392.5 Q1185.9781,392.5 1186.6031,392.2969 Q1186.9625,392.1875 1187.3688,391.8281 Q1187.6344,391.625 1187.775,391.5625 Q1187.9156,391.5 1188.0875,391.5 Q1188.4156,391.5 1188.65,391.7656 Q1188.9,392.0156 1188.9,392.375 Q1188.9,392.7188 1188.5563,393.125 Q1188.0563,393.7188 1187.2594,394.0469 Q1186.2125,394.5 1184.9313,394.5 Q1183.4313,394.5 1182.2281,393.9063 Q1181.2594,393.4375 1180.5719,392.4219 Q1179.9,391.4063 1179.9,390.2031 L1179.9,389.1094 Q1179.9,387.8594 1180.4938,386.7656 Q1181.1031,385.6719 1182.15,385.0938 Q1183.2125,384.5 1184.4,384.5 Q1185.1188,384.5 1185.7438,384.75 Q1186.3688,385 1186.9,385.5 Z "/><text fill="#000000" font-family="sans-serif" font-size="12" lengthAdjust="spacingAndGlyphs" textLength="70" x="1199.1" y="393.9102">DataHandler</text><line style="stroke: #A80036; stroke-width: 1.5;" x1="1170" x2="1272" y1="405" y2="405"/><line style="stroke: #A80036; stroke-width: 1.5;" x1="1170" x2="1272" y1="413" y2="413"/><text fill="#000000" font-family="sans-serif" font-size="11" lengthAdjust="spacingAndGlyphs" textLength="92" x="1175" y="428.4189">+openConnection()</text><text fill="#000000" font-family="sans-serif" font-size="11" lengthAdjust="spacingAndGlyphs" textLength="52" x="1175" y="442.2549">+closeAll()</text><!--MD5=[88cdc1ff0babf321196dd88b9a70f9c4]
reverse link DataHandler to PharmacyRegistration--><path d="M1155.7,459.91 C1147.01,464.889 1137.99,469.425 1129,473 C1034.69,510.509 996.513,470.265 904,512 C880.643,522.537 858.06,539.752 840.193,555.608 " fill="none" id="DataHandler&lt;-PharmacyRegistration" style="stroke: #A80036; stroke-width: 1.0;"/><polygon fill="none" points="1152.26,453.803,1172.95,449.232,1159.63,465.709,1152.26,453.803" style="stroke: #A80036; stroke-width: 1.0;"/><!--MD5=[527120703de7dfffd3117b230a6ddff3]
reverse link DataHandler to ScooterRegistration--><path d="M1161.2,462.107 C1122.6,494.453 1073.67,535.46 1040.95,562.876 " fill="none" id="DataHandler&lt;-ScooterRegistration" style="stroke: #A80036; stroke-width: 1.0;"/><polygon fill="none" points="1156.94,456.545,1176.77,449.065,1165.93,467.276,1156.94,456.545" style="stroke: #A80036; stroke-width: 1.0;"/><!--MD5=[d51a3d7ceb60387716e9812879733fde]
link RemoveScooterUI to RemoveScooterController--><path d="M175,108.086 C175,129.108 175,160.852 175,187.58 " fill="none" id="RemoveScooterUI-&gt;RemoveScooterController" style="stroke: #A80036; stroke-width: 1.0; stroke-dasharray: 7.0,7.0;"/><polygon fill="#A80036" points="175,192.853,179,183.853,175,187.853,171,183.853,175,192.853" style="stroke: #A80036; stroke-width: 1.0;"/><!--MD5=[e2004a2e156ed7f1cbb52b558551c1fc]
link RemoveScooterController to Platform--><path d="M257.986,283.072 C280.801,295.445 305.463,309.058 328,322 C357.692,339.05 390.324,358.766 417.101,375.208 " fill="none" id="RemoveScooterController-&gt;Platform" style="stroke: #A80036; stroke-width: 1.0; stroke-dasharray: 7.0,7.0;"/><polygon fill="#A80036" points="421.687,378.028,416.1156,369.9065,417.4278,375.409,411.9252,376.7212,421.687,378.028" style="stroke: #A80036; stroke-width: 1.0;"/><!--MD5=[ef611f9e0adaa461bbca4767595d7761]
link RemoveScooterController to ApplicationPOT--><path d="M155.428,283.037 C143.794,309.214 129.118,342.234 117.65,368.038 " fill="none" id="RemoveScooterController-&gt;ApplicationPOT" style="stroke: #A80036; stroke-width: 1.0; stroke-dasharray: 7.0,7.0;"/><polygon fill="#A80036" points="115.547,372.769,122.8569,366.1686,117.5773,368.1998,115.5461,362.9201,115.547,372.769" style="stroke: #A80036; stroke-width: 1.0;"/><!--MD5=[5b0609a22cd8acd8066db74e37271ce4]
link RemoveScooterController to UserSession--><path d="M194.314,283.037 C206.858,311.637 222.984,348.403 234.651,375.004 " fill="none" id="RemoveScooterController-&gt;UserSession" style="stroke: #A80036; stroke-width: 1.0; stroke-dasharray: 7.0,7.0;"/><polygon fill="#A80036" points="236.776,379.848,236.8234,369.9993,234.7673,375.2692,229.4974,373.2131,236.776,379.848" style="stroke: #A80036; stroke-width: 1.0;"/><!--MD5=[f94ed16b1d761a53d4eba61183b6d758]
link Platform to PharmacyRegistration--><path d="M524.442,427.176 C575.488,443.576 654.742,472.731 716,512 C733.618,523.294 750.93,538.35 765.413,552.416 " fill="none" id="Platform-&gt;PharmacyRegistration" style="stroke: #A80036; stroke-width: 1.0;"/><polygon fill="#A80036" points="769.033,555.968,765.4122,546.8089,765.4648,552.4655,759.8082,552.518,769.033,555.968" style="stroke: #A80036; stroke-width: 1.0;"/><text fill="#000000" font-family="sans-serif" font-size="13" lengthAdjust="spacingAndGlyphs" textLength="21" x="698" y="500.4951">has</text><text fill="#000000" font-family="sans-serif" font-size="13" lengthAdjust="spacingAndGlyphs" textLength="7" x="532.1682" y="425.8802">1</text><text fill="#000000" font-family="sans-serif" font-size="13" lengthAdjust="spacingAndGlyphs" textLength="7" x="755.125" y="545.0386">1</text><!--MD5=[10d7a1607bc161c4e7d004457651c20f]
link ScooterRegistration to Scooter--><path d="M961.818,625.144 C944.481,636.144 923.912,647.867 904,656 C794.919,700.551 755.586,673.706 646,717 C641.411,718.813 636.79,720.759 632.164,722.811 " fill="none" id="ScooterRegistration-&gt;Scooter" style="stroke: #A80036; stroke-width: 1.0;"/><polygon fill="#A80036" points="627.538,724.896,637.3867,724.8426,632.096,722.8406,634.098,717.5498,627.538,724.896" style="stroke: #A80036; stroke-width: 1.0;"/><text fill="#000000" font-family="sans-serif" font-size="13" lengthAdjust="spacingAndGlyphs" textLength="53" x="868" y="683.4951">manages</text><text fill="#000000" font-family="sans-serif" font-size="13" lengthAdjust="spacingAndGlyphs" textLength="7" x="945.6275" y="646.3963">1</text><text fill="#000000" font-family="sans-serif" font-size="13" lengthAdjust="spacingAndGlyphs" textLength="5" x="635.6702" y="717.065">*</text><!--MD5=[4a07f137c208f82f57837154e1cfa51e]
link Platform to Pharmacy--><path d="M506.514,456.278 C527.823,484.431 555.307,520.741 576.595,548.866 " fill="none" id="Platform-Pharmacy" style="stroke: #A80036; stroke-width: 1.0;"/><text fill="#000000" font-family="sans-serif" font-size="13" lengthAdjust="spacingAndGlyphs" textLength="82" x="543" y="500.4951">has registered</text><polygon fill="#000000" points="579.5,509.3516,582.5,515.3516,585.5,509.3516,579.5,509.3516" style="stroke: #000000; stroke-width: 1.0;"/><text fill="#000000" font-family="sans-serif" font-size="13" lengthAdjust="spacingAndGlyphs" textLength="7" x="503.5471" y="476.989">1</text><text fill="#000000" font-family="sans-serif" font-size="13" lengthAdjust="spacingAndGlyphs" textLength="5" x="566.097" y="538.2896">*</text><!--MD5=[423ba1e9b983bd24d1236c4cf89ceca7]
link Platform to Scooter--><path d="M443.506,456.405 C434.048,473.113 424.788,492.741 420,512 C404.558,574.109 402.071,594.563 420,656 C426.116,676.959 436.445,697.768 447.946,716.67 " fill="none" id="Platform-Scooter" style="stroke: #A80036; stroke-width: 1.0;"/><text fill="#000000" font-family="sans-serif" font-size="13" lengthAdjust="spacingAndGlyphs" textLength="82" x="421" y="599.4951">has registered</text><polygon fill="#000000" points="457.5,608.3516,460.5,614.3516,463.5,608.3516,457.5,608.3516" style="stroke: #000000; stroke-width: 1.0;"/><text fill="#000000" font-family="sans-serif" font-size="13" lengthAdjust="spacingAndGlyphs" textLength="7" x="432.0724" y="477.1331">1</text><text fill="#000000" font-family="sans-serif" font-size="13" lengthAdjust="spacingAndGlyphs" textLength="5" x="437.0871" y="706.0989">*</text><!--MD5=[cf4f95b832970cfa6e3a3c87e0aa2b32]
link Pharmacy to Scooter--><path d="M587.835,639.001 C576.338,661.825 561.943,690.401 548.611,716.866 " fill="none" id="Pharmacy-Scooter" style="stroke: #A80036; stroke-width: 1.0;"/><text fill="#000000" font-family="sans-serif" font-size="13" lengthAdjust="spacingAndGlyphs" textLength="21" x="573" y="683.4951">has</text><polygon fill="#000000" points="579,692.3516,582,698.3516,585,692.3516,579,692.3516" style="stroke: #000000; stroke-width: 1.0;"/><text fill="#000000" font-family="sans-serif" font-size="13" lengthAdjust="spacingAndGlyphs" textLength="7" x="577.2259" y="660.0087">1</text><text fill="#000000" font-family="sans-serif" font-size="13" lengthAdjust="spacingAndGlyphs" textLength="5" x="547.1481" y="706.0401">*</text><!--MD5=[89baec1bfb4a213750f7c61516e0a0f1]
link Pharmacy to Address--><path d="M633.262,639.001 C646.365,663.785 663.053,695.35 678.005,723.631 " fill="none" id="Pharmacy-Address" style="stroke: #A80036; stroke-width: 1.0;"/><text fill="#000000" font-family="sans-serif" font-size="13" lengthAdjust="spacingAndGlyphs" textLength="21" x="657" y="683.4951">has</text><polygon fill="#000000" points="663,692.3516,666,698.3516,669,692.3516,663,692.3516" style="stroke: #000000; stroke-width: 1.0;"/><text fill="#000000" font-family="sans-serif" font-size="13" lengthAdjust="spacingAndGlyphs" textLength="7" x="629.041" y="660.0087">1</text><text fill="#000000" font-family="sans-serif" font-size="13" lengthAdjust="spacingAndGlyphs" textLength="7" x="666.9203" y="713.1902">1</text><!--MD5=[0ab77f5292c3e08926ac0780d4d2672b]
@startuml
skinparam classAttributeIconSize 0

package "UI" #DDDDDD {
class RemoveScooterUI{

}
}


package "Controller" #DDDDDD {
class RemoveScooterController{
+removeScooter(batteryPerc, charginStatus, potency,\n weight, batteryCapacity, pharmacy)
+showScootersList(pharmacy)
}

class ApplicationPOT
{
  +static getInstance()
  +getPlatform()
}

class UserSession
{
  +getCurrentSession()
}
}


package "Model" #DDDDDD {
class Platform {
  -String designation
  +gePharmReg()
  +getScootReg()
}
package "Registration" #DDDDDD {
 class PharmacyRegistration{
     +getPharmacyById(pharmacyId)
     +getConnection()
 }

 class ScooterRegistration{
      +RemoveScooterFromDB(scoot)
  }
 }
}

package "Model" #DDDDDD {
class Scooter{
  -int id
  -int batteryPerc
  -int charginStatus
  -int potency
  -int weight
  -int batteryCapacity
  +Scooter(batteryPerc, charginStatus, potency,\n weight, batteryCapacity)
}

class Address{
  -float longitude
  -float latitude
  -String doorNumber
  -String streetName
  -String postalCode
  -String locality
  -String country
}

class Pharmacy {
  -int id
  -String name
  +getScootersList(pharmacy)
}

}


package "Data" #DDDDDD {
class DataHandler{
    +openConnection()
    +closeAll()
}
}

class PharmacyRegistration extends DataHandler
class ScooterRegistration extends DataHandler

RemoveScooterUI ..> RemoveScooterController
RemoveScooterController ..> Platform
RemoveScooterController ..> ApplicationPOT
RemoveScooterController ..> UserSession
Platform "1" - -> "1" PharmacyRegistration : has
ScooterRegistration "1" - -> "*" Scooter : manages

Platform "1" - - "*" Pharmacy : has registered >
Platform "1" - - "*" Scooter : has registered >

Pharmacy "1" - - "*" Scooter : has >
Pharmacy "1" - - "1" Address : has >

@enduml

PlantUML version 1.2020.09(Sun May 10 11:51:06 BST 2020)
(GPL source distribution)
Java Runtime: OpenJDK Runtime Environment
JVM: OpenJDK 64-Bit Server VM
Java Version: 11.0.6+8-b765.40
Operating System: Windows 10
Default Encoding: Cp1252
Language: pt
Country: PT
--></g></svg>