<?xml version="1.0" encoding="UTF-8" standalone="no"?><svg xmlns="http://www.w3.org/2000/svg" xmlns:xlink="http://www.w3.org/1999/xlink" contentScriptType="application/ecmascript" contentStyleType="text/css" height="1471px" preserveAspectRatio="none" style="width:1200px;height:1471px;" version="1.1" viewBox="0 0 1200 1471" width="1200px" zoomAndPan="magnify"><defs><filter height="300%" id="fmg07u4j1txd6" width="300%" x="-1" y="-1"><feGaussianBlur result="blurOut" stdDeviation="2.0"/><feColorMatrix in="blurOut" result="blurOut2" type="matrix" values="0 0 0 0 0 0 0 0 0 0 0 0 0 0 0 0 0 0 .4 0"/><feOffset dx="4.0" dy="4.0" in="blurOut2" result="blurOut3"/><feBlend in="SourceGraphic" in2="blurOut3" mode="normal"/></filter></defs><g><!--MD5=[9681dc6e01e10c6b4fe06895ae94f592]
cluster UI--><polygon fill="#DDDDDD" filter="url(#fmg07u4j1txd6)" points="93,24,113,24,120,47.6094,257,47.6094,257,124,93,124,93,24" style="stroke: #000000; stroke-width: 1.5;"/><line style="stroke: #000000; stroke-width: 1.5;" x1="93" x2="120" y1="47.6094" y2="47.6094"/><text fill="#000000" font-family="sans-serif" font-size="14" font-weight="bold" lengthAdjust="spacingAndGlyphs" textLength="14" x="97" y="40.5332">UI</text><!--MD5=[1f2cfc53d9d308f53762fd0fcbaa4873]
cluster Controller--><polygon fill="#DDDDDD" filter="url(#fmg07u4j1txd6)" points="22,157,99,157,106,180.6094,328,180.6094,328,465,22,465,22,157" style="stroke: #000000; stroke-width: 1.5;"/><line style="stroke: #000000; stroke-width: 1.5;" x1="22" x2="106" y1="180.6094" y2="180.6094"/><text fill="#000000" font-family="sans-serif" font-size="14" font-weight="bold" lengthAdjust="spacingAndGlyphs" textLength="71" x="26" y="173.5332">Controller</text><!--MD5=[15636c1ca4a123c16a2a1a8e90aca7a9]
cluster Model--><polygon fill="#DDDDDD" filter="url(#fmg07u4j1txd6)" points="352,330,402,330,409,353.6094,1018,353.6094,1018,1459,352,1459,352,330" style="stroke: #000000; stroke-width: 1.5;"/><line style="stroke: #000000; stroke-width: 1.5;" x1="352" x2="409" y1="353.6094" y2="353.6094"/><text fill="#000000" font-family="sans-serif" font-size="14" font-weight="bold" lengthAdjust="spacingAndGlyphs" textLength="44" x="356" y="346.5332">Model</text><!--MD5=[7f5e0441b00afcd8fa9ae108c086a015]
cluster Registration--><polygon fill="#DDDDDD" filter="url(#fmg07u4j1txd6)" points="593,520,685,520,692,543.6094,994,543.6094,994,648,593,648,593,520" style="stroke: #000000; stroke-width: 1.5;"/><line style="stroke: #000000; stroke-width: 1.5;" x1="593" x2="692" y1="543.6094" y2="543.6094"/><text fill="#000000" font-family="sans-serif" font-size="14" font-weight="bold" lengthAdjust="spacingAndGlyphs" textLength="86" x="597" y="536.5332">Registration</text><!--MD5=[f21b1f164e99c6b37934f23ad048ad54]
cluster Data--><polygon fill="#DDDDDD" filter="url(#fmg07u4j1txd6)" points="1042,337,1079,337,1086,360.6094,1178,360.6094,1178,465,1042,465,1042,337" style="stroke: #000000; stroke-width: 1.5;"/><line style="stroke: #000000; stroke-width: 1.5;" x1="1042" x2="1086" y1="360.6094" y2="360.6094"/><text fill="#000000" font-family="sans-serif" font-size="14" font-weight="bold" lengthAdjust="spacingAndGlyphs" textLength="31" x="1046" y="353.5332">Data</text><!--MD5=[6e833f4d304e2534fd2d5c5fc5d919d8]
class RemoveScooterUI--><rect fill="#FEFECE" filter="url(#fmg07u4j1txd6)" height="48" id="RemoveScooterUI" style="stroke: #A80036; stroke-width: 1.5;" width="132" x="109" y="60"/><ellipse cx="124" cy="76" fill="#ADD1B2" rx="11" ry="11" style="stroke: #A80036; stroke-width: 1.0;"/><path d="M126,72.5 Q126.2031,72 126.4375,71.75 Q126.6719,71.5 126.9375,71.5 Q127.4063,71.5 127.7031,71.7813 Q128,72.0625 128,72.7188 L128,74.2813 Q128,74.9375 127.7188,75.2188 Q127.4375,75.5 127,75.5 Q126.6094,75.5 126.3594,75.3281 Q126.1094,75.1563 126,74.7031 Q125.9531,74.3906 125.7813,74.2188 Q125.4688,73.8906 124.9063,73.7031 Q124.3438,73.5 123.7813,73.5 Q123.0781,73.5 122.4844,73.7813 Q121.9063,74.0625 121.4531,74.6875 Q121,75.3125 121,76.1719 L121,77.0938 Q121,78.125 121.8438,78.8125 Q122.6875,79.5 124.1875,79.5 Q125.0781,79.5 125.7031,79.2969 Q126.0625,79.1875 126.4688,78.8281 Q126.7344,78.625 126.875,78.5625 Q127.0156,78.5 127.1875,78.5 Q127.5156,78.5 127.75,78.7656 Q128,79.0156 128,79.375 Q128,79.7188 127.6563,80.125 Q127.1563,80.7188 126.3594,81.0469 Q125.3125,81.5 124.0313,81.5 Q122.5313,81.5 121.3281,80.9063 Q120.3594,80.4375 119.6719,79.4219 Q119,78.4063 119,77.2031 L119,76.1094 Q119,74.8594 119.5938,73.7656 Q120.2031,72.6719 121.25,72.0938 Q122.3125,71.5 123.5,71.5 Q124.2188,71.5 124.8438,71.75 Q125.4688,72 126,72.5 Z "/><text fill="#000000" font-family="sans-serif" font-size="12" lengthAdjust="spacingAndGlyphs" textLength="100" x="138" y="80.9102">RemoveScooterUI</text><line style="stroke: #A80036; stroke-width: 1.5;" x1="110" x2="240" y1="92" y2="92"/><line style="stroke: #A80036; stroke-width: 1.5;" x1="110" x2="240" y1="100" y2="100"/><!--MD5=[bac027668d924653165cf48795e5a572]
class RemoveScooterController--><rect fill="#FEFECE" filter="url(#fmg07u4j1txd6)" height="89.5078" id="RemoveScooterController" style="stroke: #A80036; stroke-width: 1.5;" width="273" x="38.5" y="193"/><ellipse cx="99.75" cy="209" fill="#ADD1B2" rx="11" ry="11" style="stroke: #A80036; stroke-width: 1.0;"/><path d="M101.75,205.5 Q101.9531,205 102.1875,204.75 Q102.4219,204.5 102.6875,204.5 Q103.1563,204.5 103.4531,204.7813 Q103.75,205.0625 103.75,205.7188 L103.75,207.2813 Q103.75,207.9375 103.4688,208.2188 Q103.1875,208.5 102.75,208.5 Q102.3594,208.5 102.1094,208.3281 Q101.8594,208.1563 101.75,207.7031 Q101.7031,207.3906 101.5313,207.2188 Q101.2188,206.8906 100.6563,206.7031 Q100.0938,206.5 99.5313,206.5 Q98.8281,206.5 98.2344,206.7813 Q97.6563,207.0625 97.2031,207.6875 Q96.75,208.3125 96.75,209.1719 L96.75,210.0938 Q96.75,211.125 97.5938,211.8125 Q98.4375,212.5 99.9375,212.5 Q100.8281,212.5 101.4531,212.2969 Q101.8125,212.1875 102.2188,211.8281 Q102.4844,211.625 102.625,211.5625 Q102.7656,211.5 102.9375,211.5 Q103.2656,211.5 103.5,211.7656 Q103.75,212.0156 103.75,212.375 Q103.75,212.7188 103.4063,213.125 Q102.9063,213.7188 102.1094,214.0469 Q101.0625,214.5 99.7813,214.5 Q98.2813,214.5 97.0781,213.9063 Q96.1094,213.4375 95.4219,212.4219 Q94.75,211.4063 94.75,210.2031 L94.75,209.1094 Q94.75,207.8594 95.3438,206.7656 Q95.9531,205.6719 97,205.0938 Q98.0625,204.5 99.25,204.5 Q99.9688,204.5 100.5938,204.75 Q101.2188,205 101.75,205.5 Z "/><text fill="#000000" font-family="sans-serif" font-size="12" lengthAdjust="spacingAndGlyphs" textLength="142" x="120.25" y="213.9102">RemoveScooterController</text><line style="stroke: #A80036; stroke-width: 1.5;" x1="39.5" x2="310.5" y1="225" y2="225"/><line style="stroke: #A80036; stroke-width: 1.5;" x1="39.5" x2="310.5" y1="233" y2="233"/><text fill="#000000" font-family="sans-serif" font-size="11" lengthAdjust="spacingAndGlyphs" textLength="261" x="44.5" y="248.4189">+removeScooter(batteryPerc, charginStatus, potency,</text><text fill="#000000" font-family="sans-serif" font-size="11" lengthAdjust="spacingAndGlyphs" textLength="173" x="47.5" y="262.2549">weight, batteryCapacity, pharmacy)</text><text fill="#000000" font-family="sans-serif" font-size="11" lengthAdjust="spacingAndGlyphs" textLength="151" x="44.5" y="276.0908">+showScootersList(pharmacy)</text><!--MD5=[e45a4727c47b726c25e081782e8bc183]
class ApplicationPOT--><rect fill="#FEFECE" filter="url(#fmg07u4j1txd6)" height="75.6719" id="ApplicationPOT" style="stroke: #A80036; stroke-width: 1.5;" width="116" x="41" y="373"/><ellipse cx="56" cy="389" fill="#ADD1B2" rx="11" ry="11" style="stroke: #A80036; stroke-width: 1.0;"/><path d="M58,385.5 Q58.2031,385 58.4375,384.75 Q58.6719,384.5 58.9375,384.5 Q59.4063,384.5 59.7031,384.7813 Q60,385.0625 60,385.7188 L60,387.2813 Q60,387.9375 59.7188,388.2188 Q59.4375,388.5 59,388.5 Q58.6094,388.5 58.3594,388.3281 Q58.1094,388.1563 58,387.7031 Q57.9531,387.3906 57.7813,387.2188 Q57.4688,386.8906 56.9063,386.7031 Q56.3438,386.5 55.7813,386.5 Q55.0781,386.5 54.4844,386.7813 Q53.9063,387.0625 53.4531,387.6875 Q53,388.3125 53,389.1719 L53,390.0938 Q53,391.125 53.8438,391.8125 Q54.6875,392.5 56.1875,392.5 Q57.0781,392.5 57.7031,392.2969 Q58.0625,392.1875 58.4688,391.8281 Q58.7344,391.625 58.875,391.5625 Q59.0156,391.5 59.1875,391.5 Q59.5156,391.5 59.75,391.7656 Q60,392.0156 60,392.375 Q60,392.7188 59.6563,393.125 Q59.1563,393.7188 58.3594,394.0469 Q57.3125,394.5 56.0313,394.5 Q54.5313,394.5 53.3281,393.9063 Q52.3594,393.4375 51.6719,392.4219 Q51,391.4063 51,390.2031 L51,389.1094 Q51,387.8594 51.5938,386.7656 Q52.2031,385.6719 53.25,385.0938 Q54.3125,384.5 55.5,384.5 Q56.2188,384.5 56.8438,384.75 Q57.4688,385 58,385.5 Z "/><text fill="#000000" font-family="sans-serif" font-size="12" lengthAdjust="spacingAndGlyphs" textLength="84" x="70" y="393.9102">ApplicationPOT</text><line style="stroke: #A80036; stroke-width: 1.5;" x1="42" x2="156" y1="405" y2="405"/><line style="stroke: #A80036; stroke-width: 1.5;" x1="42" x2="156" y1="413" y2="413"/><text fill="#000000" font-family="sans-serif" font-size="11" lengthAdjust="spacingAndGlyphs" textLength="99" x="47" y="428.4189">+static getInstance()</text><text fill="#000000" font-family="sans-serif" font-size="11" lengthAdjust="spacingAndGlyphs" textLength="68" x="47" y="442.2549">+getPlatform()</text><!--MD5=[c5b08e60048ef1bcd788d24cf324082e]
class UserSession--><rect fill="#FEFECE" filter="url(#fmg07u4j1txd6)" height="61.8359" id="UserSession" style="stroke: #A80036; stroke-width: 1.5;" width="116" x="192" y="380"/><ellipse cx="211.95" cy="396" fill="#ADD1B2" rx="11" ry="11" style="stroke: #A80036; stroke-width: 1.0;"/><path d="M213.95,392.5 Q214.1531,392 214.3875,391.75 Q214.6219,391.5 214.8875,391.5 Q215.3563,391.5 215.6531,391.7813 Q215.95,392.0625 215.95,392.7188 L215.95,394.2813 Q215.95,394.9375 215.6688,395.2188 Q215.3875,395.5 214.95,395.5 Q214.5594,395.5 214.3094,395.3281 Q214.0594,395.1563 213.95,394.7031 Q213.9031,394.3906 213.7313,394.2188 Q213.4188,393.8906 212.8563,393.7031 Q212.2938,393.5 211.7313,393.5 Q211.0281,393.5 210.4344,393.7813 Q209.8563,394.0625 209.4031,394.6875 Q208.95,395.3125 208.95,396.1719 L208.95,397.0938 Q208.95,398.125 209.7938,398.8125 Q210.6375,399.5 212.1375,399.5 Q213.0281,399.5 213.6531,399.2969 Q214.0125,399.1875 214.4188,398.8281 Q214.6844,398.625 214.825,398.5625 Q214.9656,398.5 215.1375,398.5 Q215.4656,398.5 215.7,398.7656 Q215.95,399.0156 215.95,399.375 Q215.95,399.7188 215.6063,400.125 Q215.1063,400.7188 214.3094,401.0469 Q213.2625,401.5 211.9813,401.5 Q210.4813,401.5 209.2781,400.9063 Q208.3094,400.4375 207.6219,399.4219 Q206.95,398.4063 206.95,397.2031 L206.95,396.1094 Q206.95,394.8594 207.5438,393.7656 Q208.1531,392.6719 209.2,392.0938 Q210.2625,391.5 211.45,391.5 Q212.1688,391.5 212.7938,391.75 Q213.4188,392 213.95,392.5 Z "/><text fill="#000000" font-family="sans-serif" font-size="12" lengthAdjust="spacingAndGlyphs" textLength="73" x="227.05" y="400.9102">UserSession</text><line style="stroke: #A80036; stroke-width: 1.5;" x1="193" x2="307" y1="412" y2="412"/><line style="stroke: #A80036; stroke-width: 1.5;" x1="193" x2="307" y1="420" y2="420"/><text fill="#000000" font-family="sans-serif" font-size="11" lengthAdjust="spacingAndGlyphs" textLength="104" x="198" y="435.4189">+getCurrentSession()</text><!--MD5=[99b8db98afdc2c8404e39242ef4c1e65]
class Platform--><rect fill="#FEFECE" filter="url(#fmg07u4j1txd6)" height="89.5078" id="Platform" style="stroke: #A80036; stroke-width: 1.5;" width="102" x="389" y="366"/><ellipse cx="414.8" cy="382" fill="#ADD1B2" rx="11" ry="11" style="stroke: #A80036; stroke-width: 1.0;"/><path d="M416.8,378.5 Q417.0031,378 417.2375,377.75 Q417.4719,377.5 417.7375,377.5 Q418.2063,377.5 418.5031,377.7813 Q418.8,378.0625 418.8,378.7188 L418.8,380.2813 Q418.8,380.9375 418.5188,381.2188 Q418.2375,381.5 417.8,381.5 Q417.4094,381.5 417.1594,381.3281 Q416.9094,381.1563 416.8,380.7031 Q416.7531,380.3906 416.5813,380.2188 Q416.2688,379.8906 415.7063,379.7031 Q415.1438,379.5 414.5813,379.5 Q413.8781,379.5 413.2844,379.7813 Q412.7063,380.0625 412.2531,380.6875 Q411.8,381.3125 411.8,382.1719 L411.8,383.0938 Q411.8,384.125 412.6438,384.8125 Q413.4875,385.5 414.9875,385.5 Q415.8781,385.5 416.5031,385.2969 Q416.8625,385.1875 417.2688,384.8281 Q417.5344,384.625 417.675,384.5625 Q417.8156,384.5 417.9875,384.5 Q418.3156,384.5 418.55,384.7656 Q418.8,385.0156 418.8,385.375 Q418.8,385.7188 418.4563,386.125 Q417.9563,386.7188 417.1594,387.0469 Q416.1125,387.5 414.8313,387.5 Q413.3313,387.5 412.1281,386.9063 Q411.1594,386.4375 410.4719,385.4219 Q409.8,384.4063 409.8,383.2031 L409.8,382.1094 Q409.8,380.8594 410.3938,379.7656 Q411.0031,378.6719 412.05,378.0938 Q413.1125,377.5 414.3,377.5 Q415.0188,377.5 415.6438,377.75 Q416.2688,378 416.8,378.5 Z "/><text fill="#000000" font-family="sans-serif" font-size="12" lengthAdjust="spacingAndGlyphs" textLength="46" x="431.2" y="386.9102">Platform</text><line style="stroke: #A80036; stroke-width: 1.5;" x1="390" x2="490" y1="398" y2="398"/><text fill="#000000" font-family="sans-serif" font-size="11" lengthAdjust="spacingAndGlyphs" textLength="90" x="395" y="413.4189">-String designation</text><line style="stroke: #A80036; stroke-width: 1.5;" x1="390" x2="490" y1="419.8359" y2="419.8359"/><text fill="#000000" font-family="sans-serif" font-size="11" lengthAdjust="spacingAndGlyphs" textLength="75" x="395" y="435.2549">+gePharmReg()</text><text fill="#000000" font-family="sans-serif" font-size="11" lengthAdjust="spacingAndGlyphs" textLength="76" x="395" y="449.0908">+getScootReg()</text><!--MD5=[f4402668d5d5bb8485350c0fdb60ac8e]
class Scooter--><rect fill="#FEFECE" filter="url(#fmg07u4j1txd6)" height="158.6875" id="Scooter" style="stroke: #A80036; stroke-width: 1.5;" width="237" x="427.5" y="712"/><ellipse cx="520.75" cy="728" fill="#ADD1B2" rx="11" ry="11" style="stroke: #A80036; stroke-width: 1.0;"/><path d="M522.75,724.5 Q522.9531,724 523.1875,723.75 Q523.4219,723.5 523.6875,723.5 Q524.1563,723.5 524.4531,723.7813 Q524.75,724.0625 524.75,724.7188 L524.75,726.2813 Q524.75,726.9375 524.4688,727.2188 Q524.1875,727.5 523.75,727.5 Q523.3594,727.5 523.1094,727.3281 Q522.8594,727.1563 522.75,726.7031 Q522.7031,726.3906 522.5313,726.2188 Q522.2188,725.8906 521.6563,725.7031 Q521.0938,725.5 520.5313,725.5 Q519.8281,725.5 519.2344,725.7813 Q518.6563,726.0625 518.2031,726.6875 Q517.75,727.3125 517.75,728.1719 L517.75,729.0938 Q517.75,730.125 518.5938,730.8125 Q519.4375,731.5 520.9375,731.5 Q521.8281,731.5 522.4531,731.2969 Q522.8125,731.1875 523.2188,730.8281 Q523.4844,730.625 523.625,730.5625 Q523.7656,730.5 523.9375,730.5 Q524.2656,730.5 524.5,730.7656 Q524.75,731.0156 524.75,731.375 Q524.75,731.7188 524.4063,732.125 Q523.9063,732.7188 523.1094,733.0469 Q522.0625,733.5 520.7813,733.5 Q519.2813,733.5 518.0781,732.9063 Q517.1094,732.4375 516.4219,731.4219 Q515.75,730.4063 515.75,729.2031 L515.75,728.1094 Q515.75,726.8594 516.3438,725.7656 Q516.9531,724.6719 518,724.0938 Q519.0625,723.5 520.25,723.5 Q520.9688,723.5 521.5938,723.75 Q522.2188,724 522.75,724.5 Z "/><text fill="#000000" font-family="sans-serif" font-size="12" lengthAdjust="spacingAndGlyphs" textLength="42" x="541.25" y="732.9102">Scooter</text><line style="stroke: #A80036; stroke-width: 1.5;" x1="428.5" x2="663.5" y1="744" y2="744"/><text fill="#000000" font-family="sans-serif" font-size="11" lengthAdjust="spacingAndGlyphs" textLength="26" x="433.5" y="759.4189">-int id</text><text fill="#000000" font-family="sans-serif" font-size="11" lengthAdjust="spacingAndGlyphs" textLength="74" x="433.5" y="773.2549">-int batteryPerc</text><text fill="#000000" font-family="sans-serif" font-size="11" lengthAdjust="spacingAndGlyphs" textLength="85" x="433.5" y="787.0908">-int charginStatus</text><text fill="#000000" font-family="sans-serif" font-size="11" lengthAdjust="spacingAndGlyphs" textLength="57" x="433.5" y="800.9268">-int potency</text><text fill="#000000" font-family="sans-serif" font-size="11" lengthAdjust="spacingAndGlyphs" textLength="51" x="433.5" y="814.7627">-int weight</text><text fill="#000000" font-family="sans-serif" font-size="11" lengthAdjust="spacingAndGlyphs" textLength="94" x="433.5" y="828.5986">-int batteryCapacity</text><line style="stroke: #A80036; stroke-width: 1.5;" x1="428.5" x2="663.5" y1="835.0156" y2="835.0156"/><text fill="#000000" font-family="sans-serif" font-size="11" lengthAdjust="spacingAndGlyphs" textLength="225" x="433.5" y="850.4346">+Scooter(batteryPerc, charginStatus, potency,</text><text fill="#000000" font-family="sans-serif" font-size="11" lengthAdjust="spacingAndGlyphs" textLength="119" x="436.5" y="864.2705">weight, batteryCapacity)</text><!--MD5=[0f39e4cb6f03951afbf6d14bd2505654]
class Address--><rect fill="#FEFECE" filter="url(#fmg07u4j1txd6)" height="144.8516" id="Address" style="stroke: #A80036; stroke-width: 1.5;" width="106" x="380" y="1117"/><ellipse cx="407.6" cy="1133" fill="#ADD1B2" rx="11" ry="11" style="stroke: #A80036; stroke-width: 1.0;"/><path d="M409.6,1129.5 Q409.8031,1129 410.0375,1128.75 Q410.2719,1128.5 410.5375,1128.5 Q411.0063,1128.5 411.3031,1128.7813 Q411.6,1129.0625 411.6,1129.7188 L411.6,1131.2813 Q411.6,1131.9375 411.3188,1132.2188 Q411.0375,1132.5 410.6,1132.5 Q410.2094,1132.5 409.9594,1132.3281 Q409.7094,1132.1563 409.6,1131.7031 Q409.5531,1131.3906 409.3813,1131.2188 Q409.0688,1130.8906 408.5063,1130.7031 Q407.9438,1130.5 407.3813,1130.5 Q406.6781,1130.5 406.0844,1130.7813 Q405.5063,1131.0625 405.0531,1131.6875 Q404.6,1132.3125 404.6,1133.1719 L404.6,1134.0938 Q404.6,1135.125 405.4438,1135.8125 Q406.2875,1136.5 407.7875,1136.5 Q408.6781,1136.5 409.3031,1136.2969 Q409.6625,1136.1875 410.0688,1135.8281 Q410.3344,1135.625 410.475,1135.5625 Q410.6156,1135.5 410.7875,1135.5 Q411.1156,1135.5 411.35,1135.7656 Q411.6,1136.0156 411.6,1136.375 Q411.6,1136.7188 411.2563,1137.125 Q410.7563,1137.7188 409.9594,1138.0469 Q408.9125,1138.5 407.6313,1138.5 Q406.1313,1138.5 404.9281,1137.9063 Q403.9594,1137.4375 403.2719,1136.4219 Q402.6,1135.4063 402.6,1134.2031 L402.6,1133.1094 Q402.6,1131.8594 403.1938,1130.7656 Q403.8031,1129.6719 404.85,1129.0938 Q405.9125,1128.5 407.1,1128.5 Q407.8188,1128.5 408.4438,1128.75 Q409.0688,1129 409.6,1129.5 Z "/><text fill="#000000" font-family="sans-serif" font-size="12" lengthAdjust="spacingAndGlyphs" textLength="46" x="424.4" y="1137.9102">Address</text><line style="stroke: #A80036; stroke-width: 1.5;" x1="381" x2="485" y1="1149" y2="1149"/><text fill="#000000" font-family="sans-serif" font-size="11" lengthAdjust="spacingAndGlyphs" textLength="71" x="386" y="1164.4189">-float longitude</text><text fill="#000000" font-family="sans-serif" font-size="11" lengthAdjust="spacingAndGlyphs" textLength="62" x="386" y="1178.2549">-float latitude</text><text fill="#000000" font-family="sans-serif" font-size="11" lengthAdjust="spacingAndGlyphs" textLength="94" x="386" y="1192.0908">-String doorNumber</text><text fill="#000000" font-family="sans-serif" font-size="11" lengthAdjust="spacingAndGlyphs" textLength="90" x="386" y="1205.9268">-String streetName</text><text fill="#000000" font-family="sans-serif" font-size="11" lengthAdjust="spacingAndGlyphs" textLength="89" x="386" y="1219.7627">-String postalCode</text><text fill="#000000" font-family="sans-serif" font-size="11" lengthAdjust="spacingAndGlyphs" textLength="68" x="386" y="1233.5986">-String locality</text><text fill="#000000" font-family="sans-serif" font-size="11" lengthAdjust="spacingAndGlyphs" textLength="72" x="386" y="1247.4346">-String country</text><line style="stroke: #A80036; stroke-width: 1.5;" x1="381" x2="485" y1="1253.8516" y2="1253.8516"/><!--MD5=[7f2a9fafcebe4f099f71398fd3e2ed00]
class Pharmacy--><rect fill="#FEFECE" filter="url(#fmg07u4j1txd6)" height="89.5078" id="Pharmacy" style="stroke: #A80036; stroke-width: 1.5;" width="102" x="382" y="949"/><ellipse cx="403.75" cy="965" fill="#ADD1B2" rx="11" ry="11" style="stroke: #A80036; stroke-width: 1.0;"/><path d="M405.75,961.5 Q405.9531,961 406.1875,960.75 Q406.4219,960.5 406.6875,960.5 Q407.1563,960.5 407.4531,960.7813 Q407.75,961.0625 407.75,961.7188 L407.75,963.2813 Q407.75,963.9375 407.4688,964.2188 Q407.1875,964.5 406.75,964.5 Q406.3594,964.5 406.1094,964.3281 Q405.8594,964.1563 405.75,963.7031 Q405.7031,963.3906 405.5313,963.2188 Q405.2188,962.8906 404.6563,962.7031 Q404.0938,962.5 403.5313,962.5 Q402.8281,962.5 402.2344,962.7813 Q401.6563,963.0625 401.2031,963.6875 Q400.75,964.3125 400.75,965.1719 L400.75,966.0938 Q400.75,967.125 401.5938,967.8125 Q402.4375,968.5 403.9375,968.5 Q404.8281,968.5 405.4531,968.2969 Q405.8125,968.1875 406.2188,967.8281 Q406.4844,967.625 406.625,967.5625 Q406.7656,967.5 406.9375,967.5 Q407.2656,967.5 407.5,967.7656 Q407.75,968.0156 407.75,968.375 Q407.75,968.7188 407.4063,969.125 Q406.9063,969.7188 406.1094,970.0469 Q405.0625,970.5 403.7813,970.5 Q402.2813,970.5 401.0781,969.9063 Q400.1094,969.4375 399.4219,968.4219 Q398.75,967.4063 398.75,966.2031 L398.75,965.1094 Q398.75,963.8594 399.3438,962.7656 Q399.9531,961.6719 401,961.0938 Q402.0625,960.5 403.25,960.5 Q403.9688,960.5 404.5938,960.75 Q405.2188,961 405.75,961.5 Z "/><text fill="#000000" font-family="sans-serif" font-size="12" lengthAdjust="spacingAndGlyphs" textLength="55" x="419.25" y="969.9102">Pharmacy</text><line style="stroke: #A80036; stroke-width: 1.5;" x1="383" x2="483" y1="981" y2="981"/><text fill="#000000" font-family="sans-serif" font-size="11" lengthAdjust="spacingAndGlyphs" textLength="26" x="388" y="996.4189">-int id</text><text fill="#000000" font-family="sans-serif" font-size="11" lengthAdjust="spacingAndGlyphs" textLength="61" x="388" y="1010.2549">-String name</text><line style="stroke: #A80036; stroke-width: 1.5;" x1="383" x2="483" y1="1016.6719" y2="1016.6719"/><text fill="#000000" font-family="sans-serif" font-size="11" lengthAdjust="spacingAndGlyphs" textLength="90" x="388" y="1032.0908">+getScootersList()</text><!--MD5=[3fd616f346a44cd59a91eb10b19e157c]
class User--><rect fill="#FEFECE" filter="url(#fmg07u4j1txd6)" height="103.3438" id="User" style="stroke: #A80036; stroke-width: 1.5;" width="97" x="540.5" y="1340"/><ellipse cx="572.6" cy="1356" fill="#ADD1B2" rx="11" ry="11" style="stroke: #A80036; stroke-width: 1.0;"/><path d="M574.6,1352.5 Q574.8031,1352 575.0375,1351.75 Q575.2719,1351.5 575.5375,1351.5 Q576.0063,1351.5 576.3031,1351.7813 Q576.6,1352.0625 576.6,1352.7188 L576.6,1354.2813 Q576.6,1354.9375 576.3188,1355.2188 Q576.0375,1355.5 575.6,1355.5 Q575.2094,1355.5 574.9594,1355.3281 Q574.7094,1355.1563 574.6,1354.7031 Q574.5531,1354.3906 574.3813,1354.2188 Q574.0688,1353.8906 573.5063,1353.7031 Q572.9438,1353.5 572.3813,1353.5 Q571.6781,1353.5 571.0844,1353.7813 Q570.5063,1354.0625 570.0531,1354.6875 Q569.6,1355.3125 569.6,1356.1719 L569.6,1357.0938 Q569.6,1358.125 570.4438,1358.8125 Q571.2875,1359.5 572.7875,1359.5 Q573.6781,1359.5 574.3031,1359.2969 Q574.6625,1359.1875 575.0688,1358.8281 Q575.3344,1358.625 575.475,1358.5625 Q575.6156,1358.5 575.7875,1358.5 Q576.1156,1358.5 576.35,1358.7656 Q576.6,1359.0156 576.6,1359.375 Q576.6,1359.7188 576.2563,1360.125 Q575.7563,1360.7188 574.9594,1361.0469 Q573.9125,1361.5 572.6313,1361.5 Q571.1313,1361.5 569.9281,1360.9063 Q568.9594,1360.4375 568.2719,1359.4219 Q567.6,1358.4063 567.6,1357.2031 L567.6,1356.1094 Q567.6,1354.8594 568.1938,1353.7656 Q568.8031,1352.6719 569.85,1352.0938 Q570.9125,1351.5 572.1,1351.5 Q572.8188,1351.5 573.4438,1351.75 Q574.0688,1352 574.6,1352.5 Z "/><text fill="#000000" font-family="sans-serif" font-size="12" lengthAdjust="spacingAndGlyphs" textLength="27" x="590.4" y="1360.9102">User</text><line style="stroke: #A80036; stroke-width: 1.5;" x1="541.5" x2="636.5" y1="1372" y2="1372"/><text fill="#000000" font-family="sans-serif" font-size="11" lengthAdjust="spacingAndGlyphs" textLength="61" x="546.5" y="1387.4189">-String name</text><text fill="#000000" font-family="sans-serif" font-size="11" lengthAdjust="spacingAndGlyphs" textLength="59" x="546.5" y="1401.2549">-String email</text><text fill="#000000" font-family="sans-serif" font-size="11" lengthAdjust="spacingAndGlyphs" textLength="85" x="546.5" y="1415.0908">-String password</text><text fill="#000000" font-family="sans-serif" font-size="11" lengthAdjust="spacingAndGlyphs" textLength="52" x="546.5" y="1428.9268">-Integer nif</text><line style="stroke: #A80036; stroke-width: 1.5;" x1="541.5" x2="636.5" y1="1435.3438" y2="1435.3438"/><!--MD5=[2fa756869cccd4a326cf3bfeb06b754f]
class PharmacyManager--><rect fill="#FEFECE" filter="url(#fmg07u4j1txd6)" height="48" id="PharmacyManager" style="stroke: #A80036; stroke-width: 1.5;" width="135" x="521.5" y="1165.5"/><ellipse cx="536.5" cy="1181.5" fill="#ADD1B2" rx="11" ry="11" style="stroke: #A80036; stroke-width: 1.0;"/><path d="M538.5,1178 Q538.7031,1177.5 538.9375,1177.25 Q539.1719,1177 539.4375,1177 Q539.9063,1177 540.2031,1177.2813 Q540.5,1177.5625 540.5,1178.2188 L540.5,1179.7813 Q540.5,1180.4375 540.2188,1180.7188 Q539.9375,1181 539.5,1181 Q539.1094,1181 538.8594,1180.8281 Q538.6094,1180.6563 538.5,1180.2031 Q538.4531,1179.8906 538.2813,1179.7188 Q537.9688,1179.3906 537.4063,1179.2031 Q536.8438,1179 536.2813,1179 Q535.5781,1179 534.9844,1179.2813 Q534.4063,1179.5625 533.9531,1180.1875 Q533.5,1180.8125 533.5,1181.6719 L533.5,1182.5938 Q533.5,1183.625 534.3438,1184.3125 Q535.1875,1185 536.6875,1185 Q537.5781,1185 538.2031,1184.7969 Q538.5625,1184.6875 538.9688,1184.3281 Q539.2344,1184.125 539.375,1184.0625 Q539.5156,1184 539.6875,1184 Q540.0156,1184 540.25,1184.2656 Q540.5,1184.5156 540.5,1184.875 Q540.5,1185.2188 540.1563,1185.625 Q539.6563,1186.2188 538.8594,1186.5469 Q537.8125,1187 536.5313,1187 Q535.0313,1187 533.8281,1186.4063 Q532.8594,1185.9375 532.1719,1184.9219 Q531.5,1183.9063 531.5,1182.7031 L531.5,1181.6094 Q531.5,1180.3594 532.0938,1179.2656 Q532.7031,1178.1719 533.75,1177.5938 Q534.8125,1177 536,1177 Q536.7188,1177 537.3438,1177.25 Q537.9688,1177.5 538.5,1178 Z "/><text fill="#000000" font-family="sans-serif" font-size="12" lengthAdjust="spacingAndGlyphs" textLength="103" x="550.5" y="1186.4102">PharmacyManager</text><line style="stroke: #A80036; stroke-width: 1.5;" x1="522.5" x2="655.5" y1="1197.5" y2="1197.5"/><line style="stroke: #A80036; stroke-width: 1.5;" x1="522.5" x2="655.5" y1="1205.5" y2="1205.5"/><!--MD5=[c5b7c01e8de644a6bcc6ccb0cb86eabf]
class PharmacyRegistration--><rect fill="#FEFECE" filter="url(#fmg07u4j1txd6)" height="75.6719" id="PharmacyRegistration" style="stroke: #A80036; stroke-width: 1.5;" width="166" x="609" y="556"/><ellipse cx="629.4" cy="572" fill="#ADD1B2" rx="11" ry="11" style="stroke: #A80036; stroke-width: 1.0;"/><path d="M631.4,568.5 Q631.6031,568 631.8375,567.75 Q632.0719,567.5 632.3375,567.5 Q632.8063,567.5 633.1031,567.7813 Q633.4,568.0625 633.4,568.7188 L633.4,570.2813 Q633.4,570.9375 633.1188,571.2188 Q632.8375,571.5 632.4,571.5 Q632.0094,571.5 631.7594,571.3281 Q631.5094,571.1563 631.4,570.7031 Q631.3531,570.3906 631.1813,570.2188 Q630.8688,569.8906 630.3063,569.7031 Q629.7438,569.5 629.1813,569.5 Q628.4781,569.5 627.8844,569.7813 Q627.3063,570.0625 626.8531,570.6875 Q626.4,571.3125 626.4,572.1719 L626.4,573.0938 Q626.4,574.125 627.2438,574.8125 Q628.0875,575.5 629.5875,575.5 Q630.4781,575.5 631.1031,575.2969 Q631.4625,575.1875 631.8688,574.8281 Q632.1344,574.625 632.275,574.5625 Q632.4156,574.5 632.5875,574.5 Q632.9156,574.5 633.15,574.7656 Q633.4,575.0156 633.4,575.375 Q633.4,575.7188 633.0563,576.125 Q632.5563,576.7188 631.7594,577.0469 Q630.7125,577.5 629.4313,577.5 Q627.9313,577.5 626.7281,576.9063 Q625.7594,576.4375 625.0719,575.4219 Q624.4,574.4063 624.4,573.2031 L624.4,572.1094 Q624.4,570.8594 624.9938,569.7656 Q625.6031,568.6719 626.65,568.0938 Q627.7125,567.5 628.9,567.5 Q629.6188,567.5 630.2438,567.75 Q630.8688,568 631.4,568.5 Z "/><text fill="#000000" font-family="sans-serif" font-size="12" lengthAdjust="spacingAndGlyphs" textLength="122" x="644.6" y="576.9102">PharmacyRegistration</text><line style="stroke: #A80036; stroke-width: 1.5;" x1="610" x2="774" y1="588" y2="588"/><line style="stroke: #A80036; stroke-width: 1.5;" x1="610" x2="774" y1="596" y2="596"/><text fill="#000000" font-family="sans-serif" font-size="11" lengthAdjust="spacingAndGlyphs" textLength="154" x="615" y="611.4189">+getPharmacyById(pharmacyId)</text><text fill="#000000" font-family="sans-serif" font-size="11" lengthAdjust="spacingAndGlyphs" textLength="83" x="615" y="625.2549">+getConnection()</text><!--MD5=[4a15ac34fd2b3f03c890a74250c9952b]
class ScooterRegistration--><rect fill="#FEFECE" filter="url(#fmg07u4j1txd6)" height="61.8359" id="ScooterRegistration" style="stroke: #A80036; stroke-width: 1.5;" width="168" x="810" y="563"/><ellipse cx="837.15" cy="579" fill="#ADD1B2" rx="11" ry="11" style="stroke: #A80036; stroke-width: 1.0;"/><path d="M839.15,575.5 Q839.3531,575 839.5875,574.75 Q839.8219,574.5 840.0875,574.5 Q840.5563,574.5 840.8531,574.7813 Q841.15,575.0625 841.15,575.7188 L841.15,577.2813 Q841.15,577.9375 840.8688,578.2188 Q840.5875,578.5 840.15,578.5 Q839.7594,578.5 839.5094,578.3281 Q839.2594,578.1563 839.15,577.7031 Q839.1031,577.3906 838.9313,577.2188 Q838.6188,576.8906 838.0563,576.7031 Q837.4938,576.5 836.9313,576.5 Q836.2281,576.5 835.6344,576.7813 Q835.0563,577.0625 834.6031,577.6875 Q834.15,578.3125 834.15,579.1719 L834.15,580.0938 Q834.15,581.125 834.9938,581.8125 Q835.8375,582.5 837.3375,582.5 Q838.2281,582.5 838.8531,582.2969 Q839.2125,582.1875 839.6188,581.8281 Q839.8844,581.625 840.025,581.5625 Q840.1656,581.5 840.3375,581.5 Q840.6656,581.5 840.9,581.7656 Q841.15,582.0156 841.15,582.375 Q841.15,582.7188 840.8063,583.125 Q840.3063,583.7188 839.5094,584.0469 Q838.4625,584.5 837.1813,584.5 Q835.6813,584.5 834.4781,583.9063 Q833.5094,583.4375 832.8219,582.4219 Q832.15,581.4063 832.15,580.2031 L832.15,579.1094 Q832.15,577.8594 832.7438,576.7656 Q833.3531,575.6719 834.4,575.0938 Q835.4625,574.5 836.65,574.5 Q837.3688,574.5 837.9938,574.75 Q838.6188,575 839.15,575.5 Z "/><text fill="#000000" font-family="sans-serif" font-size="12" lengthAdjust="spacingAndGlyphs" textLength="109" x="853.85" y="583.9102">ScooterRegistration</text><line style="stroke: #A80036; stroke-width: 1.5;" x1="811" x2="977" y1="595" y2="595"/><line style="stroke: #A80036; stroke-width: 1.5;" x1="811" x2="977" y1="603" y2="603"/><text fill="#000000" font-family="sans-serif" font-size="11" lengthAdjust="spacingAndGlyphs" textLength="156" x="816" y="618.4189">+RemoveScooterFromDB(scoot)</text><!--MD5=[4b2d61224b33971326a22fe5d809d926]
class DataHandler--><rect fill="#FEFECE" filter="url(#fmg07u4j1txd6)" height="75.6719" id="DataHandler" style="stroke: #A80036; stroke-width: 1.5;" width="104" x="1058" y="373"/><ellipse cx="1073.9" cy="389" fill="#ADD1B2" rx="11" ry="11" style="stroke: #A80036; stroke-width: 1.0;"/><path d="M1075.9,385.5 Q1076.1031,385 1076.3375,384.75 Q1076.5719,384.5 1076.8375,384.5 Q1077.3063,384.5 1077.6031,384.7813 Q1077.9,385.0625 1077.9,385.7188 L1077.9,387.2813 Q1077.9,387.9375 1077.6188,388.2188 Q1077.3375,388.5 1076.9,388.5 Q1076.5094,388.5 1076.2594,388.3281 Q1076.0094,388.1563 1075.9,387.7031 Q1075.8531,387.3906 1075.6813,387.2188 Q1075.3688,386.8906 1074.8063,386.7031 Q1074.2438,386.5 1073.6813,386.5 Q1072.9781,386.5 1072.3844,386.7813 Q1071.8063,387.0625 1071.3531,387.6875 Q1070.9,388.3125 1070.9,389.1719 L1070.9,390.0938 Q1070.9,391.125 1071.7438,391.8125 Q1072.5875,392.5 1074.0875,392.5 Q1074.9781,392.5 1075.6031,392.2969 Q1075.9625,392.1875 1076.3688,391.8281 Q1076.6344,391.625 1076.775,391.5625 Q1076.9156,391.5 1077.0875,391.5 Q1077.4156,391.5 1077.65,391.7656 Q1077.9,392.0156 1077.9,392.375 Q1077.9,392.7188 1077.5563,393.125 Q1077.0563,393.7188 1076.2594,394.0469 Q1075.2125,394.5 1073.9313,394.5 Q1072.4313,394.5 1071.2281,393.9063 Q1070.2594,393.4375 1069.5719,392.4219 Q1068.9,391.4063 1068.9,390.2031 L1068.9,389.1094 Q1068.9,387.8594 1069.4938,386.7656 Q1070.1031,385.6719 1071.15,385.0938 Q1072.2125,384.5 1073.4,384.5 Q1074.1188,384.5 1074.7438,384.75 Q1075.3688,385 1075.9,385.5 Z "/><text fill="#000000" font-family="sans-serif" font-size="12" lengthAdjust="spacingAndGlyphs" textLength="70" x="1088.1" y="393.9102">DataHandler</text><line style="stroke: #A80036; stroke-width: 1.5;" x1="1059" x2="1161" y1="405" y2="405"/><line style="stroke: #A80036; stroke-width: 1.5;" x1="1059" x2="1161" y1="413" y2="413"/><text fill="#000000" font-family="sans-serif" font-size="11" lengthAdjust="spacingAndGlyphs" textLength="92" x="1064" y="428.4189">+openConnection()</text><text fill="#000000" font-family="sans-serif" font-size="11" lengthAdjust="spacingAndGlyphs" textLength="52" x="1064" y="442.2549">+closeAll()</text><!--MD5=[88cdc1ff0babf321196dd88b9a70f9c4]
reverse link DataHandler to PharmacyRegistration--><path d="M1044.7,459.91 C1036.01,464.89 1026.99,469.43 1018,473 C923.695,510.509 885.513,470.27 793,512 C769.643,522.537 747.06,539.752 729.193,555.608 " fill="none" id="DataHandler&lt;-PharmacyRegistration" style="stroke: #A80036; stroke-width: 1.0;"/><polygon fill="none" points="1041.26,453.8,1061.95,449.23,1048.63,465.71,1041.26,453.8" style="stroke: #A80036; stroke-width: 1.0;"/><!--MD5=[527120703de7dfffd3117b230a6ddff3]
reverse link DataHandler to ScooterRegistration--><path d="M1050.2,462.11 C1011.6,494.453 962.666,535.46 929.949,562.876 " fill="none" id="DataHandler&lt;-ScooterRegistration" style="stroke: #A80036; stroke-width: 1.0;"/><polygon fill="none" points="1045.94,456.55,1065.77,449.06,1054.93,467.28,1045.94,456.55" style="stroke: #A80036; stroke-width: 1.0;"/><!--MD5=[d51a3d7ceb60387716e9812879733fde]
link RemoveScooterUI to RemoveScooterController--><path d="M175,108.09 C175,129.11 175,160.85 175,187.58 " fill="none" id="RemoveScooterUI-&gt;RemoveScooterController" style="stroke: #A80036; stroke-width: 1.0; stroke-dasharray: 7.0,7.0;"/><polygon fill="#A80036" points="175,192.85,179,183.85,175,187.85,171,183.85,175,192.85" style="stroke: #A80036; stroke-width: 1.0;"/><!--MD5=[e2004a2e156ed7f1cbb52b558551c1fc]
link RemoveScooterController to Platform--><path d="M262.265,283.04 C284.154,294.98 307.293,308.39 328,322 C347.211,334.63 367.24,349.69 384.959,363.75 " fill="none" id="RemoveScooterController-&gt;Platform" style="stroke: #A80036; stroke-width: 1.0; stroke-dasharray: 7.0,7.0;"/><polygon fill="#A80036" points="388.938,366.92,384.3895,358.1844,385.0267,363.8052,379.4059,364.4425,388.938,366.92" style="stroke: #A80036; stroke-width: 1.0;"/><!--MD5=[ef611f9e0adaa461bbca4767595d7761]
link RemoveScooterController to ApplicationPOT--><path d="M155.428,283.04 C143.794,309.21 129.118,342.23 117.65,368.04 " fill="none" id="RemoveScooterController-&gt;ApplicationPOT" style="stroke: #A80036; stroke-width: 1.0; stroke-dasharray: 7.0,7.0;"/><polygon fill="#A80036" points="115.547,372.77,122.8552,366.1677,117.5761,368.2002,115.5436,362.9211,115.547,372.77" style="stroke: #A80036; stroke-width: 1.0;"/><!--MD5=[5b0609a22cd8acd8066db74e37271ce4]
link RemoveScooterController to UserSession--><path d="M194.314,283.04 C206.858,311.64 222.984,348.4 234.651,375 " fill="none" id="RemoveScooterController-&gt;UserSession" style="stroke: #A80036; stroke-width: 1.0; stroke-dasharray: 7.0,7.0;"/><polygon fill="#A80036" points="236.776,379.85,236.8389,370.0013,234.7745,375.2681,229.5078,373.2037,236.776,379.85" style="stroke: #A80036; stroke-width: 1.0;"/><!--MD5=[f94ed16b1d761a53d4eba61183b6d758]
link Platform to PharmacyRegistration--><path d="M491.039,434.15 C519.048,447.38 553.727,465.56 582,486 C608.634,505.256 635.143,530.801 655.462,552.102 " fill="none" id="Platform-&gt;PharmacyRegistration" style="stroke: #A80036; stroke-width: 1.0;"/><polygon fill="#A80036" points="658.925,555.754,655.634,546.4712,655.4843,552.1261,649.8294,551.9764,658.925,555.754" style="stroke: #A80036; stroke-width: 1.0;"/><text fill="#000000" font-family="sans-serif" font-size="13" lengthAdjust="spacingAndGlyphs" textLength="21" x="602" y="500.4951">has</text><text fill="#000000" font-family="sans-serif" font-size="13" lengthAdjust="spacingAndGlyphs" textLength="7" x="499.0494" y="452.2822">1</text><text fill="#000000" font-family="sans-serif" font-size="13" lengthAdjust="spacingAndGlyphs" textLength="7" x="645.4101" y="545.0721">1</text><!--MD5=[10d7a1607bc161c4e7d004457651c20f]
link ScooterRegistration to Scooter--><path d="M845.201,625.073 C828.716,635.072 810.145,646.161 793,656 C769.157,669.683 718.502,697.35 669.234,724.053 " fill="none" id="ScooterRegistration-&gt;Scooter" style="stroke: #A80036; stroke-width: 1.0;"/><polygon fill="#A80036" points="664.778,726.468,674.5967,725.6979,669.1743,724.0863,670.7859,718.6638,664.778,726.468" style="stroke: #A80036; stroke-width: 1.0;"/><text fill="#000000" font-family="sans-serif" font-size="13" lengthAdjust="spacingAndGlyphs" textLength="53" x="778" y="678.4951">manages</text><text fill="#000000" font-family="sans-serif" font-size="13" lengthAdjust="spacingAndGlyphs" textLength="7" x="827.9046" y="646.3114">1</text><text fill="#000000" font-family="sans-serif" font-size="13" lengthAdjust="spacingAndGlyphs" textLength="5" x="672.5474" y="719.3058">*</text><!--MD5=[4a07f137c208f82f57837154e1cfa51e]
link Platform to Pharmacy--><path d="M426.263,456.35 C423.581,466.05 420.988,476.32 419,486 C380.291,674.53 380.859,729.24 413,919 C414.645,928.71 417.01,938.989 419.541,948.698 " fill="none" id="Platform-Pharmacy" style="stroke: #A80036; stroke-width: 1.0;"/><text fill="#000000" font-family="sans-serif" font-size="13" lengthAdjust="spacingAndGlyphs" textLength="82" x="392" y="678.4951">has registered</text><polygon fill="#000000" points="428.5,687.3516,431.5,693.3516,434.5,687.3516,428.5,687.3516" style="stroke: #000000; stroke-width: 1.0;"/><text fill="#000000" font-family="sans-serif" font-size="13" lengthAdjust="spacingAndGlyphs" textLength="7" x="416.9468" y="477.0707">1</text><text fill="#000000" font-family="sans-serif" font-size="13" lengthAdjust="spacingAndGlyphs" textLength="5" x="412.0973" y="938.0958">*</text><!--MD5=[423ba1e9b983bd24d1236c4cf89ceca7]
link Platform to Scooter--><path d="M431.041,456.32 C422.886,510.375 418.532,601.288 467,656 C477.294,667.62 489.433,653.647 501,664 C515.156,676.67 524.859,694.094 531.51,711.96 " fill="none" id="Platform-Scooter" style="stroke: #A80036; stroke-width: 1.0;"/><text fill="#000000" font-family="sans-serif" font-size="13" lengthAdjust="spacingAndGlyphs" textLength="82" x="468" y="599.4951">has registered</text><polygon fill="#000000" points="504.5,608.3516,507.5,614.3516,510.5,608.3516,504.5,608.3516" style="stroke: #000000; stroke-width: 1.0;"/><text fill="#000000" font-family="sans-serif" font-size="13" lengthAdjust="spacingAndGlyphs" textLength="7" x="430.3074" y="477.0367">1</text><text fill="#000000" font-family="sans-serif" font-size="13" lengthAdjust="spacingAndGlyphs" textLength="5" x="524.8906" y="701.1431">*</text><!--MD5=[754ae0e32ddeeb427901936d97e772de]
link Platform to PharmacyManager--><path d="M491.051,439.39 C518.198,456.62 549.667,481.398 568,512 C601.383,567.723 556.831,602.044 593,656 C619.022,694.82 659.406,671.09 682,712 C768.589,868.787 647.347,1093.606 603.644,1165.482 " fill="none" id="Platform-PharmacyManager" style="stroke: #A80036; stroke-width: 1.0;"/><text fill="#000000" font-family="sans-serif" font-size="13" lengthAdjust="spacingAndGlyphs" textLength="82" x="713" y="796.9951">has registered</text><polygon fill="#000000" points="749.5,805.8516,752.5,811.8516,755.5,805.8516,749.5,805.8516" style="stroke: #000000; stroke-width: 1.0;"/><text fill="#000000" font-family="sans-serif" font-size="13" lengthAdjust="spacingAndGlyphs" textLength="7" x="499.0632" y="439.9419">1</text><text fill="#000000" font-family="sans-serif" font-size="13" lengthAdjust="spacingAndGlyphs" textLength="5" x="601.7559" y="1154.8175">*</text><!--MD5=[cf4f95b832970cfa6e3a3c87e0aa2b32]
link Pharmacy to Scooter--><path d="M484.17,949.538 C493.04,940.173 501.49,929.813 508,919 C516.812,904.364 523.714,887.534 529.07,871.025 " fill="none" id="Pharmacy-Scooter" style="stroke: #A80036; stroke-width: 1.0;"/><polygon fill="#000000" points="524,912,527,906,530,912,524,912" style="stroke: #000000; stroke-width: 1.0;"/><text fill="#000000" font-family="sans-serif" font-size="13" lengthAdjust="spacingAndGlyphs" textLength="21" x="518" y="928.4951">has</text><text fill="#000000" font-family="sans-serif" font-size="13" lengthAdjust="spacingAndGlyphs" textLength="7" x="491.858" y="939.715">1</text><text fill="#000000" font-family="sans-serif" font-size="13" lengthAdjust="spacingAndGlyphs" textLength="5" x="522.4002" y="892.0703">*</text><!--MD5=[6f1b2737b94c689eac8b0af6a5ef1443]
link Scooter to Pharmacy--><path d="M443.296,871.19 C436.025,880.474 429.716,890.437 425,901 C418.399,915.786 418.251,933.225 420.493,948.923 " fill="none" id="Scooter-Pharmacy" style="stroke: #A80036; stroke-width: 1.0;"/><text fill="#000000" font-family="sans-serif" font-size="13" lengthAdjust="spacingAndGlyphs" textLength="60" x="426" y="915.4951">belongs to</text><polygon fill="#000000" points="451.5,924.3516,454.5,930.3516,457.5,924.3516,451.5,924.3516" style="stroke: #000000; stroke-width: 1.0;"/><text fill="#000000" font-family="sans-serif" font-size="13" lengthAdjust="spacingAndGlyphs" textLength="5" x="429.255" y="892.2495">*</text><text fill="#000000" font-family="sans-serif" font-size="13" lengthAdjust="spacingAndGlyphs" textLength="7" x="419.0575" y="938.0262">1</text><!--MD5=[89baec1bfb4a213750f7c61516e0a0f1]
link Pharmacy to Address--><path d="M433,1039.393 C433,1062.266 433,1090.727 433,1116.634 " fill="none" id="Pharmacy-Address" style="stroke: #A80036; stroke-width: 1.0;"/><text fill="#000000" font-family="sans-serif" font-size="13" lengthAdjust="spacingAndGlyphs" textLength="21" x="434" y="1083.4951">has</text><polygon fill="#000000" points="440,1092.3516,443,1098.3516,446,1092.3516,440,1092.3516" style="stroke: #000000; stroke-width: 1.0;"/><text fill="#000000" font-family="sans-serif" font-size="13" lengthAdjust="spacingAndGlyphs" textLength="7" x="425.5297" y="1060.1195">1</text><text fill="#000000" font-family="sans-serif" font-size="13" lengthAdjust="spacingAndGlyphs" textLength="7" x="425.6555" y="1106.1935">1</text><!--MD5=[63120965f33aa30485eaf56f4034632c]
link PharmacyManager to User--><path d="M589,1213.834 C589,1244.541 589,1299.35 589,1339.803 " fill="none" id="PharmacyManager-User" style="stroke: #A80036; stroke-width: 1.0;"/><text fill="#000000" font-family="sans-serif" font-size="13" lengthAdjust="spacingAndGlyphs" textLength="43" x="590" y="1306.4951">acts as</text><polygon fill="#000000" points="607,1315.3516,610,1321.3516,613,1315.3516,607,1315.3516" style="stroke: #000000; stroke-width: 1.0;"/><text fill="#000000" font-family="sans-serif" font-size="13" lengthAdjust="spacingAndGlyphs" textLength="22" x="564.4563" y="1234.847">0..1</text><text fill="#000000" font-family="sans-serif" font-size="13" lengthAdjust="spacingAndGlyphs" textLength="7" x="581.5297" y="1329.2769">1</text><!--MD5=[09fe915c748217accc4fcc978cf154f9]
link PharmacyManager to Scooter--><path d="M587.065,1165.361 C582.907,1116.477 572.555,999.116 561,901 C559.866,891.368 558.588,881.268 557.269,871.268 " fill="none" id="PharmacyManager-Scooter" style="stroke: #A80036; stroke-width: 1.0;"/><polygon fill="#000000" points="596.5,996,599.5,990,602.5,996,596.5,996" style="stroke: #000000; stroke-width: 1.0;"/><text fill="#000000" font-family="sans-serif" font-size="13" lengthAdjust="spacingAndGlyphs" textLength="50" x="576" y="1012.4951">registers</text><text fill="#000000" font-family="sans-serif" font-size="13" lengthAdjust="spacingAndGlyphs" textLength="7" x="578.6723" y="1154.6655">1</text><text fill="#000000" font-family="sans-serif" font-size="13" lengthAdjust="spacingAndGlyphs" textLength="20" x="537.3741" y="892.0589">1..*</text><!--MD5=[1563ddde69eb8abda9b50e9ab8dfb994]
link Pharmacy to PharmacyManager--><path d="M468.79,1039.393 C500.453,1078.668 545.398,1134.416 570.396,1165.423 " fill="none" id="Pharmacy-PharmacyManager" style="stroke: #A80036; stroke-width: 1.0;"/><text fill="#000000" font-family="sans-serif" font-size="13" lengthAdjust="spacingAndGlyphs" textLength="21" x="508" y="1083.4951">has</text><polygon fill="#000000" points="514,1092.3516,517,1098.3516,520,1092.3516,514,1092.3516" style="stroke: #000000; stroke-width: 1.0;"/><text fill="#000000" font-family="sans-serif" font-size="13" lengthAdjust="spacingAndGlyphs" textLength="7" x="466.129" y="1060.1195">1</text><text fill="#000000" font-family="sans-serif" font-size="13" lengthAdjust="spacingAndGlyphs" textLength="7" x="557.7318" y="1154.7434">1</text><!--MD5=[057022d97fd27c1d17ea95b2852e8bb8]
@startuml
skinparam classAttributeIconSize 0

package "UI" #DDDDDD {
class RemoveScooterUI{

}
}


package "Controller" #DDDDDD {
class RemoveScooterController{
+removeScooter(batteryPerc, charginStatus, potency,\n weight, batteryCapacity, pharmacy)
+showScootersList(pharmacy)
}

class ApplicationPOT
{
  +static getInstance()
  +getPlatform()
}

class UserSession
{
  +getCurrentSession()
}
}


package "Model" #DDDDDD {
class Platform {
  -String designation
  +gePharmReg()
  +getScootReg()
}
package "Registration" #DDDDDD {
 class PharmacyRegistration{
     +getPharmacyById(pharmacyId)
     +getConnection()
 }

 class ScooterRegistration{
      +RemoveScooterFromDB(scoot)
  }
 }
}

package "Model" #DDDDDD {
class Scooter{
  -int id
  -int batteryPerc
  -int charginStatus
  -int potency
  -int weight
  -int batteryCapacity
  +Scooter(batteryPerc, charginStatus, potency,\n weight, batteryCapacity)
}

class Address{
  -float longitude
  -float latitude
  -String doorNumber
  -String streetName
  -String postalCode
  -String locality
  -String country
}

class Pharmacy {
  -int id
  -String name
  +getScootersList()
}

class User{
-   String name
-   String email
-   String password
-   Integer nif
}

class PharmacyManager {
}

}


package "Data" #DDDDDD {
class DataHandler{
    +openConnection()
    +closeAll()
}
}

class PharmacyRegistration extends DataHandler
class ScooterRegistration extends DataHandler

RemoveScooterUI ..> RemoveScooterController
RemoveScooterController ..> Platform
RemoveScooterController ..> ApplicationPOT
RemoveScooterController ..> UserSession
Platform "1" - -> "1" PharmacyRegistration : has
ScooterRegistration "1" - -> "*" Scooter : manages

Platform "1" - - "*" Pharmacy : has registered >
Platform "1" - - "*" Scooter : has registered >
Platform "1" - - "*" PharmacyManager : has registered >

Pharmacy "1" - - "*" Scooter : has >
Pharmacy "1" - - "1" Address : has >
PharmacyManager "0..1" - - "1" User: acts as >
PharmacyManager "1" - - "1..*" Scooter : registers >
Pharmacy "1" - - "1" PharmacyManager : has >
Scooter "*" - - "1" Pharmacy : belongs to >

@enduml

PlantUML version 1.2020.09(Sun May 10 11:51:06 BST 2020)
(GPL source distribution)
Java Runtime: OpenJDK Runtime Environment
JVM: OpenJDK 64-Bit Server VM
Java Version: 11.0.6+8-b765.40
Operating System: Windows 10
Default Encoding: Cp1252
Language: pt
Country: PT
--></g></svg>