<?xml version="1.0" encoding="UTF-8" standalone="no"?><svg xmlns="http://www.w3.org/2000/svg" xmlns:xlink="http://www.w3.org/1999/xlink" contentScriptType="application/ecmascript" contentStyleType="text/css" height="1471px" preserveAspectRatio="none" style="width:1200px;height:1471px;" version="1.1" viewBox="0 0 1200 1471" width="1200px" zoomAndPan="magnify"><defs><filter height="300%" id="f1tag1w5hlo6jh" width="300%" x="-1" y="-1"><feGaussianBlur result="blurOut" stdDeviation="2.0"/><feColorMatrix in="blurOut" result="blurOut2" type="matrix" values="0 0 0 0 0 0 0 0 0 0 0 0 0 0 0 0 0 0 .4 0"/><feOffset dx="4.0" dy="4.0" in="blurOut2" result="blurOut3"/><feBlend in="SourceGraphic" in2="blurOut3" mode="normal"/></filter></defs><g><!--MD5=[9681dc6e01e10c6b4fe06895ae94f592]
cluster UI--><polygon fill="#DDDDDD" filter="url(#f1tag1w5hlo6jh)" points="93,24,113,24,120,47.6094,257,47.6094,257,124,93,124,93,24" style="stroke: #000000; stroke-width: 1.5;"/><line style="stroke: #000000; stroke-width: 1.5;" x1="93" x2="120" y1="47.6094" y2="47.6094"/><text fill="#000000" font-family="sans-serif" font-size="14" font-weight="bold" lengthAdjust="spacingAndGlyphs" textLength="14" x="97" y="40.5332">UI</text><!--MD5=[1f2cfc53d9d308f53762fd0fcbaa4873]
cluster Controller--><polygon fill="#DDDDDD" filter="url(#f1tag1w5hlo6jh)" points="22,157,99,157,106,180.6094,328,180.6094,328,465,22,465,22,157" style="stroke: #000000; stroke-width: 1.5;"/><line style="stroke: #000000; stroke-width: 1.5;" x1="22" x2="106" y1="180.6094" y2="180.6094"/><text fill="#000000" font-family="sans-serif" font-size="14" font-weight="bold" lengthAdjust="spacingAndGlyphs" textLength="71" x="26" y="173.5332">Controller</text><!--MD5=[15636c1ca4a123c16a2a1a8e90aca7a9]
cluster Model--><polygon fill="#DDDDDD" filter="url(#f1tag1w5hlo6jh)" points="352,330,402,330,409,353.6094,1018,353.6094,1018,1459,352,1459,352,330" style="stroke: #000000; stroke-width: 1.5;"/><line style="stroke: #000000; stroke-width: 1.5;" x1="352" x2="409" y1="353.6094" y2="353.6094"/><text fill="#000000" font-family="sans-serif" font-size="14" font-weight="bold" lengthAdjust="spacingAndGlyphs" textLength="44" x="356" y="346.5332">Model</text><!--MD5=[7f5e0441b00afcd8fa9ae108c086a015]
cluster Registration--><polygon fill="#DDDDDD" filter="url(#f1tag1w5hlo6jh)" points="593,520,685,520,692,543.6094,994,543.6094,994,648,593,648,593,520" style="stroke: #000000; stroke-width: 1.5;"/><line style="stroke: #000000; stroke-width: 1.5;" x1="593" x2="692" y1="543.6094" y2="543.6094"/><text fill="#000000" font-family="sans-serif" font-size="14" font-weight="bold" lengthAdjust="spacingAndGlyphs" textLength="86" x="597" y="536.5332">Registration</text><!--MD5=[f21b1f164e99c6b37934f23ad048ad54]
cluster Data--><polygon fill="#DDDDDD" filter="url(#f1tag1w5hlo6jh)" points="1042,337,1079,337,1086,360.6094,1178,360.6094,1178,465,1042,465,1042,337" style="stroke: #000000; stroke-width: 1.5;"/><line style="stroke: #000000; stroke-width: 1.5;" x1="1042" x2="1086" y1="360.6094" y2="360.6094"/><text fill="#000000" font-family="sans-serif" font-size="14" font-weight="bold" lengthAdjust="spacingAndGlyphs" textLength="31" x="1046" y="353.5332">Data</text><!--MD5=[6e833f4d304e2534fd2d5c5fc5d919d8]
class RemoveScooterUI--><rect fill="#FEFECE" filter="url(#f1tag1w5hlo6jh)" height="48" id="RemoveScooterUI" style="stroke: #A80036; stroke-width: 1.5;" width="132" x="109" y="60"/><ellipse cx="124" cy="76" fill="#ADD1B2" rx="11" ry="11" style="stroke: #A80036; stroke-width: 1.0;"/><path d="M126,72.5 Q126.2031,72 126.4375,71.75 Q126.6719,71.5 126.9375,71.5 Q127.4063,71.5 127.7031,71.7813 Q128,72.0625 128,72.7188 L128,74.2813 Q128,74.9375 127.7188,75.2188 Q127.4375,75.5 127,75.5 Q126.6094,75.5 126.3594,75.3281 Q126.1094,75.1563 126,74.7031 Q125.9531,74.3906 125.7813,74.2188 Q125.4688,73.8906 124.9063,73.7031 Q124.3438,73.5 123.7813,73.5 Q123.0781,73.5 122.4844,73.7813 Q121.9063,74.0625 121.4531,74.6875 Q121,75.3125 121,76.1719 L121,77.0938 Q121,78.125 121.8438,78.8125 Q122.6875,79.5 124.1875,79.5 Q125.0781,79.5 125.7031,79.2969 Q126.0625,79.1875 126.4688,78.8281 Q126.7344,78.625 126.875,78.5625 Q127.0156,78.5 127.1875,78.5 Q127.5156,78.5 127.75,78.7656 Q128,79.0156 128,79.375 Q128,79.7188 127.6563,80.125 Q127.1563,80.7188 126.3594,81.0469 Q125.3125,81.5 124.0313,81.5 Q122.5313,81.5 121.3281,80.9063 Q120.3594,80.4375 119.6719,79.4219 Q119,78.4063 119,77.2031 L119,76.1094 Q119,74.8594 119.5938,73.7656 Q120.2031,72.6719 121.25,72.0938 Q122.3125,71.5 123.5,71.5 Q124.2188,71.5 124.8438,71.75 Q125.4688,72 126,72.5 Z "/><text fill="#000000" font-family="sans-serif" font-size="12" lengthAdjust="spacingAndGlyphs" textLength="100" x="138" y="80.9102">RemoveScooterUI</text><line style="stroke: #A80036; stroke-width: 1.5;" x1="110" x2="240" y1="92" y2="92"/><line style="stroke: #A80036; stroke-width: 1.5;" x1="110" x2="240" y1="100" y2="100"/><!--MD5=[bac027668d924653165cf48795e5a572]
class RemoveScooterController--><rect fill="#FEFECE" filter="url(#f1tag1w5hlo6jh)" height="89.5078" id="RemoveScooterController" style="stroke: #A80036; stroke-width: 1.5;" width="273" x="38.5" y="193"/><ellipse cx="99.75" cy="209" fill="#ADD1B2" rx="11" ry="11" style="stroke: #A80036; stroke-width: 1.0;"/><path d="M101.75,205.5 Q101.9531,205 102.1875,204.75 Q102.4219,204.5 102.6875,204.5 Q103.1563,204.5 103.4531,204.7813 Q103.75,205.0625 103.75,205.7188 L103.75,207.2813 Q103.75,207.9375 103.4688,208.2188 Q103.1875,208.5 102.75,208.5 Q102.3594,208.5 102.1094,208.3281 Q101.8594,208.1563 101.75,207.7031 Q101.7031,207.3906 101.5313,207.2188 Q101.2188,206.8906 100.6563,206.7031 Q100.0938,206.5 99.5313,206.5 Q98.8281,206.5 98.2344,206.7813 Q97.6563,207.0625 97.2031,207.6875 Q96.75,208.3125 96.75,209.1719 L96.75,210.0938 Q96.75,211.125 97.5938,211.8125 Q98.4375,212.5 99.9375,212.5 Q100.8281,212.5 101.4531,212.2969 Q101.8125,212.1875 102.2188,211.8281 Q102.4844,211.625 102.625,211.5625 Q102.7656,211.5 102.9375,211.5 Q103.2656,211.5 103.5,211.7656 Q103.75,212.0156 103.75,212.375 Q103.75,212.7188 103.4063,213.125 Q102.9063,213.7188 102.1094,214.0469 Q101.0625,214.5 99.7813,214.5 Q98.2813,214.5 97.0781,213.9063 Q96.1094,213.4375 95.4219,212.4219 Q94.75,211.4063 94.75,210.2031 L94.75,209.1094 Q94.75,207.8594 95.3438,206.7656 Q95.9531,205.6719 97,205.0938 Q98.0625,204.5 99.25,204.5 Q99.9688,204.5 100.5938,204.75 Q101.2188,205 101.75,205.5 Z "/><text fill="#000000" font-family="sans-serif" font-size="12" lengthAdjust="spacingAndGlyphs" textLength="142" x="120.25" y="213.9102">RemoveScooterController</text><line style="stroke: #A80036; stroke-width: 1.5;" x1="39.5" x2="310.5" y1="225" y2="225"/><line style="stroke: #A80036; stroke-width: 1.5;" x1="39.5" x2="310.5" y1="233" y2="233"/><text fill="#000000" font-family="sans-serif" font-size="11" lengthAdjust="spacingAndGlyphs" textLength="261" x="44.5" y="248.4189">+removeScooter(batteryPerc, charginStatus, potency,</text><text fill="#000000" font-family="sans-serif" font-size="11" lengthAdjust="spacingAndGlyphs" textLength="173" x="47.5" y="262.2549">weight, batteryCapacity, pharmacy)</text><text fill="#000000" font-family="sans-serif" font-size="11" lengthAdjust="spacingAndGlyphs" textLength="151" x="44.5" y="276.0908">+showScootersList(pharmacy)</text><!--MD5=[e45a4727c47b726c25e081782e8bc183]
class ApplicationPOT--><rect fill="#FEFECE" filter="url(#f1tag1w5hlo6jh)" height="75.6719" id="ApplicationPOT" style="stroke: #A80036; stroke-width: 1.5;" width="116" x="41" y="373"/><ellipse cx="56" cy="389" fill="#ADD1B2" rx="11" ry="11" style="stroke: #A80036; stroke-width: 1.0;"/><path d="M58,385.5 Q58.2031,385 58.4375,384.75 Q58.6719,384.5 58.9375,384.5 Q59.4063,384.5 59.7031,384.7813 Q60,385.0625 60,385.7188 L60,387.2813 Q60,387.9375 59.7188,388.2188 Q59.4375,388.5 59,388.5 Q58.6094,388.5 58.3594,388.3281 Q58.1094,388.1563 58,387.7031 Q57.9531,387.3906 57.7813,387.2188 Q57.4688,386.8906 56.9063,386.7031 Q56.3438,386.5 55.7813,386.5 Q55.0781,386.5 54.4844,386.7813 Q53.9063,387.0625 53.4531,387.6875 Q53,388.3125 53,389.1719 L53,390.0938 Q53,391.125 53.8438,391.8125 Q54.6875,392.5 56.1875,392.5 Q57.0781,392.5 57.7031,392.2969 Q58.0625,392.1875 58.4688,391.8281 Q58.7344,391.625 58.875,391.5625 Q59.0156,391.5 59.1875,391.5 Q59.5156,391.5 59.75,391.7656 Q60,392.0156 60,392.375 Q60,392.7188 59.6563,393.125 Q59.1563,393.7188 58.3594,394.0469 Q57.3125,394.5 56.0313,394.5 Q54.5313,394.5 53.3281,393.9063 Q52.3594,393.4375 51.6719,392.4219 Q51,391.4063 51,390.2031 L51,389.1094 Q51,387.8594 51.5938,386.7656 Q52.2031,385.6719 53.25,385.0938 Q54.3125,384.5 55.5,384.5 Q56.2188,384.5 56.8438,384.75 Q57.4688,385 58,385.5 Z "/><text fill="#000000" font-family="sans-serif" font-size="12" lengthAdjust="spacingAndGlyphs" textLength="84" x="70" y="393.9102">ApplicationPOT</text><line style="stroke: #A80036; stroke-width: 1.5;" x1="42" x2="156" y1="405" y2="405"/><line style="stroke: #A80036; stroke-width: 1.5;" x1="42" x2="156" y1="413" y2="413"/><text fill="#000000" font-family="sans-serif" font-size="11" lengthAdjust="spacingAndGlyphs" textLength="99" x="47" y="428.4189">+static getInstance()</text><text fill="#000000" font-family="sans-serif" font-size="11" lengthAdjust="spacingAndGlyphs" textLength="68" x="47" y="442.2549">+getPlatform()</text><!--MD5=[c5b08e60048ef1bcd788d24cf324082e]
class UserSession--><rect fill="#FEFECE" filter="url(#f1tag1w5hlo6jh)" height="61.8359" id="UserSession" style="stroke: #A80036; stroke-width: 1.5;" width="116" x="192" y="380"/><ellipse cx="211.95" cy="396" fill="#ADD1B2" rx="11" ry="11" style="stroke: #A80036; stroke-width: 1.0;"/><path d="M213.95,392.5 Q214.1531,392 214.3875,391.75 Q214.6219,391.5 214.8875,391.5 Q215.3563,391.5 215.6531,391.7813 Q215.95,392.0625 215.95,392.7188 L215.95,394.2813 Q215.95,394.9375 215.6688,395.2188 Q215.3875,395.5 214.95,395.5 Q214.5594,395.5 214.3094,395.3281 Q214.0594,395.1563 213.95,394.7031 Q213.9031,394.3906 213.7313,394.2188 Q213.4188,393.8906 212.8563,393.7031 Q212.2938,393.5 211.7313,393.5 Q211.0281,393.5 210.4344,393.7813 Q209.8563,394.0625 209.4031,394.6875 Q208.95,395.3125 208.95,396.1719 L208.95,397.0938 Q208.95,398.125 209.7938,398.8125 Q210.6375,399.5 212.1375,399.5 Q213.0281,399.5 213.6531,399.2969 Q214.0125,399.1875 214.4188,398.8281 Q214.6844,398.625 214.825,398.5625 Q214.9656,398.5 215.1375,398.5 Q215.4656,398.5 215.7,398.7656 Q215.95,399.0156 215.95,399.375 Q215.95,399.7188 215.6063,400.125 Q215.1063,400.7188 214.3094,401.0469 Q213.2625,401.5 211.9813,401.5 Q210.4813,401.5 209.2781,400.9063 Q208.3094,400.4375 207.6219,399.4219 Q206.95,398.4063 206.95,397.2031 L206.95,396.1094 Q206.95,394.8594 207.5438,393.7656 Q208.1531,392.6719 209.2,392.0938 Q210.2625,391.5 211.45,391.5 Q212.1688,391.5 212.7938,391.75 Q213.4188,392 213.95,392.5 Z "/><text fill="#000000" font-family="sans-serif" font-size="12" lengthAdjust="spacingAndGlyphs" textLength="73" x="227.05" y="400.9102">UserSession</text><line style="stroke: #A80036; stroke-width: 1.5;" x1="193" x2="307" y1="412" y2="412"/><line style="stroke: #A80036; stroke-width: 1.5;" x1="193" x2="307" y1="420" y2="420"/><text fill="#000000" font-family="sans-serif" font-size="11" lengthAdjust="spacingAndGlyphs" textLength="104" x="198" y="435.4189">+getCurrentSession()</text><!--MD5=[99b8db98afdc2c8404e39242ef4c1e65]
class Platform--><rect fill="#FEFECE" filter="url(#f1tag1w5hlo6jh)" height="89.5078" id="Platform" style="stroke: #A80036; stroke-width: 1.5;" width="102" x="389" y="366"/><ellipse cx="414.8" cy="382" fill="#ADD1B2" rx="11" ry="11" style="stroke: #A80036; stroke-width: 1.0;"/><path d="M416.8,378.5 Q417.0031,378 417.2375,377.75 Q417.4719,377.5 417.7375,377.5 Q418.2063,377.5 418.5031,377.7813 Q418.8,378.0625 418.8,378.7188 L418.8,380.2813 Q418.8,380.9375 418.5188,381.2188 Q418.2375,381.5 417.8,381.5 Q417.4094,381.5 417.1594,381.3281 Q416.9094,381.1563 416.8,380.7031 Q416.7531,380.3906 416.5813,380.2188 Q416.2688,379.8906 415.7063,379.7031 Q415.1438,379.5 414.5813,379.5 Q413.8781,379.5 413.2844,379.7813 Q412.7063,380.0625 412.2531,380.6875 Q411.8,381.3125 411.8,382.1719 L411.8,383.0938 Q411.8,384.125 412.6438,384.8125 Q413.4875,385.5 414.9875,385.5 Q415.8781,385.5 416.5031,385.2969 Q416.8625,385.1875 417.2688,384.8281 Q417.5344,384.625 417.675,384.5625 Q417.8156,384.5 417.9875,384.5 Q418.3156,384.5 418.55,384.7656 Q418.8,385.0156 418.8,385.375 Q418.8,385.7188 418.4563,386.125 Q417.9563,386.7188 417.1594,387.0469 Q416.1125,387.5 414.8313,387.5 Q413.3313,387.5 412.1281,386.9063 Q411.1594,386.4375 410.4719,385.4219 Q409.8,384.4063 409.8,383.2031 L409.8,382.1094 Q409.8,380.8594 410.3938,379.7656 Q411.0031,378.6719 412.05,378.0938 Q413.1125,377.5 414.3,377.5 Q415.0188,377.5 415.6438,377.75 Q416.2688,378 416.8,378.5 Z "/><text fill="#000000" font-family="sans-serif" font-size="12" lengthAdjust="spacingAndGlyphs" textLength="46" x="431.2" y="386.9102">Platform</text><line style="stroke: #A80036; stroke-width: 1.5;" x1="390" x2="490" y1="398" y2="398"/><text fill="#000000" font-family="sans-serif" font-size="11" lengthAdjust="spacingAndGlyphs" textLength="90" x="395" y="413.4189">-String designation</text><line style="stroke: #A80036; stroke-width: 1.5;" x1="390" x2="490" y1="419.8359" y2="419.8359"/><text fill="#000000" font-family="sans-serif" font-size="11" lengthAdjust="spacingAndGlyphs" textLength="75" x="395" y="435.2549">+gePharmReg()</text><text fill="#000000" font-family="sans-serif" font-size="11" lengthAdjust="spacingAndGlyphs" textLength="76" x="395" y="449.0908">+getScootReg()</text><!--MD5=[f4402668d5d5bb8485350c0fdb60ac8e]
class Scooter--><rect fill="#FEFECE" filter="url(#f1tag1w5hlo6jh)" height="158.6875" id="Scooter" style="stroke: #A80036; stroke-width: 1.5;" width="237" x="438.5" y="712"/><ellipse cx="531.75" cy="728" fill="#ADD1B2" rx="11" ry="11" style="stroke: #A80036; stroke-width: 1.0;"/><path d="M533.75,724.5 Q533.9531,724 534.1875,723.75 Q534.4219,723.5 534.6875,723.5 Q535.1563,723.5 535.4531,723.7813 Q535.75,724.0625 535.75,724.7188 L535.75,726.2813 Q535.75,726.9375 535.4688,727.2188 Q535.1875,727.5 534.75,727.5 Q534.3594,727.5 534.1094,727.3281 Q533.8594,727.1563 533.75,726.7031 Q533.7031,726.3906 533.5313,726.2188 Q533.2188,725.8906 532.6563,725.7031 Q532.0938,725.5 531.5313,725.5 Q530.8281,725.5 530.2344,725.7813 Q529.6563,726.0625 529.2031,726.6875 Q528.75,727.3125 528.75,728.1719 L528.75,729.0938 Q528.75,730.125 529.5938,730.8125 Q530.4375,731.5 531.9375,731.5 Q532.8281,731.5 533.4531,731.2969 Q533.8125,731.1875 534.2188,730.8281 Q534.4844,730.625 534.625,730.5625 Q534.7656,730.5 534.9375,730.5 Q535.2656,730.5 535.5,730.7656 Q535.75,731.0156 535.75,731.375 Q535.75,731.7188 535.4063,732.125 Q534.9063,732.7188 534.1094,733.0469 Q533.0625,733.5 531.7813,733.5 Q530.2813,733.5 529.0781,732.9063 Q528.1094,732.4375 527.4219,731.4219 Q526.75,730.4063 526.75,729.2031 L526.75,728.1094 Q526.75,726.8594 527.3438,725.7656 Q527.9531,724.6719 529,724.0938 Q530.0625,723.5 531.25,723.5 Q531.9688,723.5 532.5938,723.75 Q533.2188,724 533.75,724.5 Z "/><text fill="#000000" font-family="sans-serif" font-size="12" lengthAdjust="spacingAndGlyphs" textLength="42" x="552.25" y="732.9102">Scooter</text><line style="stroke: #A80036; stroke-width: 1.5;" x1="439.5" x2="674.5" y1="744" y2="744"/><text fill="#000000" font-family="sans-serif" font-size="11" lengthAdjust="spacingAndGlyphs" textLength="26" x="444.5" y="759.4189">-int id</text><text fill="#000000" font-family="sans-serif" font-size="11" lengthAdjust="spacingAndGlyphs" textLength="74" x="444.5" y="773.2549">-int batteryPerc</text><text fill="#000000" font-family="sans-serif" font-size="11" lengthAdjust="spacingAndGlyphs" textLength="85" x="444.5" y="787.0908">-int charginStatus</text><text fill="#000000" font-family="sans-serif" font-size="11" lengthAdjust="spacingAndGlyphs" textLength="57" x="444.5" y="800.9268">-int potency</text><text fill="#000000" font-family="sans-serif" font-size="11" lengthAdjust="spacingAndGlyphs" textLength="51" x="444.5" y="814.7627">-int weight</text><text fill="#000000" font-family="sans-serif" font-size="11" lengthAdjust="spacingAndGlyphs" textLength="94" x="444.5" y="828.5986">-int batteryCapacity</text><line style="stroke: #A80036; stroke-width: 1.5;" x1="439.5" x2="674.5" y1="835.0156" y2="835.0156"/><text fill="#000000" font-family="sans-serif" font-size="11" lengthAdjust="spacingAndGlyphs" textLength="225" x="444.5" y="850.4346">+Scooter(batteryPerc, charginStatus, potency,</text><text fill="#000000" font-family="sans-serif" font-size="11" lengthAdjust="spacingAndGlyphs" textLength="119" x="447.5" y="864.2705">weight, batteryCapacity)</text><!--MD5=[0f39e4cb6f03951afbf6d14bd2505654]
class Address--><rect fill="#FEFECE" filter="url(#f1tag1w5hlo6jh)" height="144.8516" id="Address" style="stroke: #A80036; stroke-width: 1.5;" width="106" x="391" y="1117"/><ellipse cx="418.6" cy="1133" fill="#ADD1B2" rx="11" ry="11" style="stroke: #A80036; stroke-width: 1.0;"/><path d="M420.6,1129.5 Q420.8031,1129 421.0375,1128.75 Q421.2719,1128.5 421.5375,1128.5 Q422.0063,1128.5 422.3031,1128.7813 Q422.6,1129.0625 422.6,1129.7188 L422.6,1131.2813 Q422.6,1131.9375 422.3188,1132.2188 Q422.0375,1132.5 421.6,1132.5 Q421.2094,1132.5 420.9594,1132.3281 Q420.7094,1132.1563 420.6,1131.7031 Q420.5531,1131.3906 420.3813,1131.2188 Q420.0688,1130.8906 419.5063,1130.7031 Q418.9438,1130.5 418.3813,1130.5 Q417.6781,1130.5 417.0844,1130.7813 Q416.5063,1131.0625 416.0531,1131.6875 Q415.6,1132.3125 415.6,1133.1719 L415.6,1134.0938 Q415.6,1135.125 416.4438,1135.8125 Q417.2875,1136.5 418.7875,1136.5 Q419.6781,1136.5 420.3031,1136.2969 Q420.6625,1136.1875 421.0688,1135.8281 Q421.3344,1135.625 421.475,1135.5625 Q421.6156,1135.5 421.7875,1135.5 Q422.1156,1135.5 422.35,1135.7656 Q422.6,1136.0156 422.6,1136.375 Q422.6,1136.7188 422.2563,1137.125 Q421.7563,1137.7188 420.9594,1138.0469 Q419.9125,1138.5 418.6313,1138.5 Q417.1313,1138.5 415.9281,1137.9063 Q414.9594,1137.4375 414.2719,1136.4219 Q413.6,1135.4063 413.6,1134.2031 L413.6,1133.1094 Q413.6,1131.8594 414.1938,1130.7656 Q414.8031,1129.6719 415.85,1129.0938 Q416.9125,1128.5 418.1,1128.5 Q418.8188,1128.5 419.4438,1128.75 Q420.0688,1129 420.6,1129.5 Z "/><text fill="#000000" font-family="sans-serif" font-size="12" lengthAdjust="spacingAndGlyphs" textLength="46" x="435.4" y="1137.9102">Address</text><line style="stroke: #A80036; stroke-width: 1.5;" x1="392" x2="496" y1="1149" y2="1149"/><text fill="#000000" font-family="sans-serif" font-size="11" lengthAdjust="spacingAndGlyphs" textLength="71" x="397" y="1164.4189">-float longitude</text><text fill="#000000" font-family="sans-serif" font-size="11" lengthAdjust="spacingAndGlyphs" textLength="62" x="397" y="1178.2549">-float latitude</text><text fill="#000000" font-family="sans-serif" font-size="11" lengthAdjust="spacingAndGlyphs" textLength="94" x="397" y="1192.0908">-String doorNumber</text><text fill="#000000" font-family="sans-serif" font-size="11" lengthAdjust="spacingAndGlyphs" textLength="90" x="397" y="1205.9268">-String streetName</text><text fill="#000000" font-family="sans-serif" font-size="11" lengthAdjust="spacingAndGlyphs" textLength="89" x="397" y="1219.7627">-String postalCode</text><text fill="#000000" font-family="sans-serif" font-size="11" lengthAdjust="spacingAndGlyphs" textLength="68" x="397" y="1233.5986">-String locality</text><text fill="#000000" font-family="sans-serif" font-size="11" lengthAdjust="spacingAndGlyphs" textLength="72" x="397" y="1247.4346">-String country</text><line style="stroke: #A80036; stroke-width: 1.5;" x1="392" x2="496" y1="1253.8516" y2="1253.8516"/><!--MD5=[7f2a9fafcebe4f099f71398fd3e2ed00]
class Pharmacy--><rect fill="#FEFECE" filter="url(#f1tag1w5hlo6jh)" height="89.5078" id="Pharmacy" style="stroke: #A80036; stroke-width: 1.5;" width="150" x="369" y="949"/><ellipse cx="412.35" cy="965" fill="#ADD1B2" rx="11" ry="11" style="stroke: #A80036; stroke-width: 1.0;"/><path d="M414.35,961.5 Q414.5531,961 414.7875,960.75 Q415.0219,960.5 415.2875,960.5 Q415.7563,960.5 416.0531,960.7813 Q416.35,961.0625 416.35,961.7188 L416.35,963.2813 Q416.35,963.9375 416.0688,964.2188 Q415.7875,964.5 415.35,964.5 Q414.9594,964.5 414.7094,964.3281 Q414.4594,964.1563 414.35,963.7031 Q414.3031,963.3906 414.1313,963.2188 Q413.8188,962.8906 413.2563,962.7031 Q412.6938,962.5 412.1313,962.5 Q411.4281,962.5 410.8344,962.7813 Q410.2563,963.0625 409.8031,963.6875 Q409.35,964.3125 409.35,965.1719 L409.35,966.0938 Q409.35,967.125 410.1938,967.8125 Q411.0375,968.5 412.5375,968.5 Q413.4281,968.5 414.0531,968.2969 Q414.4125,968.1875 414.8188,967.8281 Q415.0844,967.625 415.225,967.5625 Q415.3656,967.5 415.5375,967.5 Q415.8656,967.5 416.1,967.7656 Q416.35,968.0156 416.35,968.375 Q416.35,968.7188 416.0063,969.125 Q415.5063,969.7188 414.7094,970.0469 Q413.6625,970.5 412.3813,970.5 Q410.8813,970.5 409.6781,969.9063 Q408.7094,969.4375 408.0219,968.4219 Q407.35,967.4063 407.35,966.2031 L407.35,965.1094 Q407.35,963.8594 407.9438,962.7656 Q408.5531,961.6719 409.6,961.0938 Q410.6625,960.5 411.85,960.5 Q412.5688,960.5 413.1938,960.75 Q413.8188,961 414.35,961.5 Z "/><text fill="#000000" font-family="sans-serif" font-size="12" lengthAdjust="spacingAndGlyphs" textLength="55" x="432.65" y="969.9102">Pharmacy</text><line style="stroke: #A80036; stroke-width: 1.5;" x1="370" x2="518" y1="981" y2="981"/><text fill="#000000" font-family="sans-serif" font-size="11" lengthAdjust="spacingAndGlyphs" textLength="26" x="375" y="996.4189">-int id</text><text fill="#000000" font-family="sans-serif" font-size="11" lengthAdjust="spacingAndGlyphs" textLength="61" x="375" y="1010.2549">-String name</text><line style="stroke: #A80036; stroke-width: 1.5;" x1="370" x2="518" y1="1016.6719" y2="1016.6719"/><text fill="#000000" font-family="sans-serif" font-size="11" lengthAdjust="spacingAndGlyphs" textLength="138" x="375" y="1032.0908">+getScootersList(pharmacy)</text><!--MD5=[3fd616f346a44cd59a91eb10b19e157c]
class User--><rect fill="#FEFECE" filter="url(#f1tag1w5hlo6jh)" height="103.3438" id="User" style="stroke: #A80036; stroke-width: 1.5;" width="97" x="551.5" y="1340"/><ellipse cx="583.6" cy="1356" fill="#ADD1B2" rx="11" ry="11" style="stroke: #A80036; stroke-width: 1.0;"/><path d="M585.6,1352.5 Q585.8031,1352 586.0375,1351.75 Q586.2719,1351.5 586.5375,1351.5 Q587.0063,1351.5 587.3031,1351.7813 Q587.6,1352.0625 587.6,1352.7188 L587.6,1354.2813 Q587.6,1354.9375 587.3188,1355.2188 Q587.0375,1355.5 586.6,1355.5 Q586.2094,1355.5 585.9594,1355.3281 Q585.7094,1355.1563 585.6,1354.7031 Q585.5531,1354.3906 585.3813,1354.2188 Q585.0688,1353.8906 584.5063,1353.7031 Q583.9438,1353.5 583.3813,1353.5 Q582.6781,1353.5 582.0844,1353.7813 Q581.5063,1354.0625 581.0531,1354.6875 Q580.6,1355.3125 580.6,1356.1719 L580.6,1357.0938 Q580.6,1358.125 581.4438,1358.8125 Q582.2875,1359.5 583.7875,1359.5 Q584.6781,1359.5 585.3031,1359.2969 Q585.6625,1359.1875 586.0688,1358.8281 Q586.3344,1358.625 586.475,1358.5625 Q586.6156,1358.5 586.7875,1358.5 Q587.1156,1358.5 587.35,1358.7656 Q587.6,1359.0156 587.6,1359.375 Q587.6,1359.7188 587.2563,1360.125 Q586.7563,1360.7188 585.9594,1361.0469 Q584.9125,1361.5 583.6313,1361.5 Q582.1313,1361.5 580.9281,1360.9063 Q579.9594,1360.4375 579.2719,1359.4219 Q578.6,1358.4063 578.6,1357.2031 L578.6,1356.1094 Q578.6,1354.8594 579.1938,1353.7656 Q579.8031,1352.6719 580.85,1352.0938 Q581.9125,1351.5 583.1,1351.5 Q583.8188,1351.5 584.4438,1351.75 Q585.0688,1352 585.6,1352.5 Z "/><text fill="#000000" font-family="sans-serif" font-size="12" lengthAdjust="spacingAndGlyphs" textLength="27" x="601.4" y="1360.9102">User</text><line style="stroke: #A80036; stroke-width: 1.5;" x1="552.5" x2="647.5" y1="1372" y2="1372"/><text fill="#000000" font-family="sans-serif" font-size="11" lengthAdjust="spacingAndGlyphs" textLength="61" x="557.5" y="1387.4189">-String name</text><text fill="#000000" font-family="sans-serif" font-size="11" lengthAdjust="spacingAndGlyphs" textLength="59" x="557.5" y="1401.2549">-String email</text><text fill="#000000" font-family="sans-serif" font-size="11" lengthAdjust="spacingAndGlyphs" textLength="85" x="557.5" y="1415.0908">-String password</text><text fill="#000000" font-family="sans-serif" font-size="11" lengthAdjust="spacingAndGlyphs" textLength="52" x="557.5" y="1428.9268">-Integer nif</text><line style="stroke: #A80036; stroke-width: 1.5;" x1="552.5" x2="647.5" y1="1435.3438" y2="1435.3438"/><!--MD5=[2fa756869cccd4a326cf3bfeb06b754f]
class PharmacyManager--><rect fill="#FEFECE" filter="url(#f1tag1w5hlo6jh)" height="48" id="PharmacyManager" style="stroke: #A80036; stroke-width: 1.5;" width="135" x="532.5" y="1165.5"/><ellipse cx="547.5" cy="1181.5" fill="#ADD1B2" rx="11" ry="11" style="stroke: #A80036; stroke-width: 1.0;"/><path d="M549.5,1178 Q549.7031,1177.5 549.9375,1177.25 Q550.1719,1177 550.4375,1177 Q550.9063,1177 551.2031,1177.2813 Q551.5,1177.5625 551.5,1178.2188 L551.5,1179.7813 Q551.5,1180.4375 551.2188,1180.7188 Q550.9375,1181 550.5,1181 Q550.1094,1181 549.8594,1180.8281 Q549.6094,1180.6563 549.5,1180.2031 Q549.4531,1179.8906 549.2813,1179.7188 Q548.9688,1179.3906 548.4063,1179.2031 Q547.8438,1179 547.2813,1179 Q546.5781,1179 545.9844,1179.2813 Q545.4063,1179.5625 544.9531,1180.1875 Q544.5,1180.8125 544.5,1181.6719 L544.5,1182.5938 Q544.5,1183.625 545.3438,1184.3125 Q546.1875,1185 547.6875,1185 Q548.5781,1185 549.2031,1184.7969 Q549.5625,1184.6875 549.9688,1184.3281 Q550.2344,1184.125 550.375,1184.0625 Q550.5156,1184 550.6875,1184 Q551.0156,1184 551.25,1184.2656 Q551.5,1184.5156 551.5,1184.875 Q551.5,1185.2188 551.1563,1185.625 Q550.6563,1186.2188 549.8594,1186.5469 Q548.8125,1187 547.5313,1187 Q546.0313,1187 544.8281,1186.4063 Q543.8594,1185.9375 543.1719,1184.9219 Q542.5,1183.9063 542.5,1182.7031 L542.5,1181.6094 Q542.5,1180.3594 543.0938,1179.2656 Q543.7031,1178.1719 544.75,1177.5938 Q545.8125,1177 547,1177 Q547.7188,1177 548.3438,1177.25 Q548.9688,1177.5 549.5,1178 Z "/><text fill="#000000" font-family="sans-serif" font-size="12" lengthAdjust="spacingAndGlyphs" textLength="103" x="561.5" y="1186.4102">PharmacyManager</text><line style="stroke: #A80036; stroke-width: 1.5;" x1="533.5" x2="666.5" y1="1197.5" y2="1197.5"/><line style="stroke: #A80036; stroke-width: 1.5;" x1="533.5" x2="666.5" y1="1205.5" y2="1205.5"/><!--MD5=[c5b7c01e8de644a6bcc6ccb0cb86eabf]
class PharmacyRegistration--><rect fill="#FEFECE" filter="url(#f1tag1w5hlo6jh)" height="75.6719" id="PharmacyRegistration" style="stroke: #A80036; stroke-width: 1.5;" width="166" x="609" y="556"/><ellipse cx="629.4" cy="572" fill="#ADD1B2" rx="11" ry="11" style="stroke: #A80036; stroke-width: 1.0;"/><path d="M631.4,568.5 Q631.6031,568 631.8375,567.75 Q632.0719,567.5 632.3375,567.5 Q632.8063,567.5 633.1031,567.7813 Q633.4,568.0625 633.4,568.7188 L633.4,570.2813 Q633.4,570.9375 633.1188,571.2188 Q632.8375,571.5 632.4,571.5 Q632.0094,571.5 631.7594,571.3281 Q631.5094,571.1563 631.4,570.7031 Q631.3531,570.3906 631.1813,570.2188 Q630.8688,569.8906 630.3063,569.7031 Q629.7438,569.5 629.1813,569.5 Q628.4781,569.5 627.8844,569.7813 Q627.3063,570.0625 626.8531,570.6875 Q626.4,571.3125 626.4,572.1719 L626.4,573.0938 Q626.4,574.125 627.2438,574.8125 Q628.0875,575.5 629.5875,575.5 Q630.4781,575.5 631.1031,575.2969 Q631.4625,575.1875 631.8688,574.8281 Q632.1344,574.625 632.275,574.5625 Q632.4156,574.5 632.5875,574.5 Q632.9156,574.5 633.15,574.7656 Q633.4,575.0156 633.4,575.375 Q633.4,575.7188 633.0563,576.125 Q632.5563,576.7188 631.7594,577.0469 Q630.7125,577.5 629.4313,577.5 Q627.9313,577.5 626.7281,576.9063 Q625.7594,576.4375 625.0719,575.4219 Q624.4,574.4063 624.4,573.2031 L624.4,572.1094 Q624.4,570.8594 624.9938,569.7656 Q625.6031,568.6719 626.65,568.0938 Q627.7125,567.5 628.9,567.5 Q629.6188,567.5 630.2438,567.75 Q630.8688,568 631.4,568.5 Z "/><text fill="#000000" font-family="sans-serif" font-size="12" lengthAdjust="spacingAndGlyphs" textLength="122" x="644.6" y="576.9102">PharmacyRegistration</text><line style="stroke: #A80036; stroke-width: 1.5;" x1="610" x2="774" y1="588" y2="588"/><line style="stroke: #A80036; stroke-width: 1.5;" x1="610" x2="774" y1="596" y2="596"/><text fill="#000000" font-family="sans-serif" font-size="11" lengthAdjust="spacingAndGlyphs" textLength="154" x="615" y="611.4189">+getPharmacyById(pharmacyId)</text><text fill="#000000" font-family="sans-serif" font-size="11" lengthAdjust="spacingAndGlyphs" textLength="83" x="615" y="625.2549">+getConnection()</text><!--MD5=[4a15ac34fd2b3f03c890a74250c9952b]
class ScooterRegistration--><rect fill="#FEFECE" filter="url(#f1tag1w5hlo6jh)" height="61.8359" id="ScooterRegistration" style="stroke: #A80036; stroke-width: 1.5;" width="168" x="810" y="563"/><ellipse cx="837.15" cy="579" fill="#ADD1B2" rx="11" ry="11" style="stroke: #A80036; stroke-width: 1.0;"/><path d="M839.15,575.5 Q839.3531,575 839.5875,574.75 Q839.8219,574.5 840.0875,574.5 Q840.5563,574.5 840.8531,574.7813 Q841.15,575.0625 841.15,575.7188 L841.15,577.2813 Q841.15,577.9375 840.8688,578.2188 Q840.5875,578.5 840.15,578.5 Q839.7594,578.5 839.5094,578.3281 Q839.2594,578.1563 839.15,577.7031 Q839.1031,577.3906 838.9313,577.2188 Q838.6188,576.8906 838.0563,576.7031 Q837.4938,576.5 836.9313,576.5 Q836.2281,576.5 835.6344,576.7813 Q835.0563,577.0625 834.6031,577.6875 Q834.15,578.3125 834.15,579.1719 L834.15,580.0938 Q834.15,581.125 834.9938,581.8125 Q835.8375,582.5 837.3375,582.5 Q838.2281,582.5 838.8531,582.2969 Q839.2125,582.1875 839.6188,581.8281 Q839.8844,581.625 840.025,581.5625 Q840.1656,581.5 840.3375,581.5 Q840.6656,581.5 840.9,581.7656 Q841.15,582.0156 841.15,582.375 Q841.15,582.7188 840.8063,583.125 Q840.3063,583.7188 839.5094,584.0469 Q838.4625,584.5 837.1813,584.5 Q835.6813,584.5 834.4781,583.9063 Q833.5094,583.4375 832.8219,582.4219 Q832.15,581.4063 832.15,580.2031 L832.15,579.1094 Q832.15,577.8594 832.7438,576.7656 Q833.3531,575.6719 834.4,575.0938 Q835.4625,574.5 836.65,574.5 Q837.3688,574.5 837.9938,574.75 Q838.6188,575 839.15,575.5 Z "/><text fill="#000000" font-family="sans-serif" font-size="12" lengthAdjust="spacingAndGlyphs" textLength="109" x="853.85" y="583.9102">ScooterRegistration</text><line style="stroke: #A80036; stroke-width: 1.5;" x1="811" x2="977" y1="595" y2="595"/><line style="stroke: #A80036; stroke-width: 1.5;" x1="811" x2="977" y1="603" y2="603"/><text fill="#000000" font-family="sans-serif" font-size="11" lengthAdjust="spacingAndGlyphs" textLength="156" x="816" y="618.4189">+RemoveScooterFromDB(scoot)</text><!--MD5=[4b2d61224b33971326a22fe5d809d926]
class DataHandler--><rect fill="#FEFECE" filter="url(#f1tag1w5hlo6jh)" height="75.6719" id="DataHandler" style="stroke: #A80036; stroke-width: 1.5;" width="104" x="1058" y="373"/><ellipse cx="1073.9" cy="389" fill="#ADD1B2" rx="11" ry="11" style="stroke: #A80036; stroke-width: 1.0;"/><path d="M1075.9,385.5 Q1076.1031,385 1076.3375,384.75 Q1076.5719,384.5 1076.8375,384.5 Q1077.3063,384.5 1077.6031,384.7813 Q1077.9,385.0625 1077.9,385.7188 L1077.9,387.2813 Q1077.9,387.9375 1077.6188,388.2188 Q1077.3375,388.5 1076.9,388.5 Q1076.5094,388.5 1076.2594,388.3281 Q1076.0094,388.1563 1075.9,387.7031 Q1075.8531,387.3906 1075.6813,387.2188 Q1075.3688,386.8906 1074.8063,386.7031 Q1074.2438,386.5 1073.6813,386.5 Q1072.9781,386.5 1072.3844,386.7813 Q1071.8063,387.0625 1071.3531,387.6875 Q1070.9,388.3125 1070.9,389.1719 L1070.9,390.0938 Q1070.9,391.125 1071.7438,391.8125 Q1072.5875,392.5 1074.0875,392.5 Q1074.9781,392.5 1075.6031,392.2969 Q1075.9625,392.1875 1076.3688,391.8281 Q1076.6344,391.625 1076.775,391.5625 Q1076.9156,391.5 1077.0875,391.5 Q1077.4156,391.5 1077.65,391.7656 Q1077.9,392.0156 1077.9,392.375 Q1077.9,392.7188 1077.5563,393.125 Q1077.0563,393.7188 1076.2594,394.0469 Q1075.2125,394.5 1073.9313,394.5 Q1072.4313,394.5 1071.2281,393.9063 Q1070.2594,393.4375 1069.5719,392.4219 Q1068.9,391.4063 1068.9,390.2031 L1068.9,389.1094 Q1068.9,387.8594 1069.4938,386.7656 Q1070.1031,385.6719 1071.15,385.0938 Q1072.2125,384.5 1073.4,384.5 Q1074.1188,384.5 1074.7438,384.75 Q1075.3688,385 1075.9,385.5 Z "/><text fill="#000000" font-family="sans-serif" font-size="12" lengthAdjust="spacingAndGlyphs" textLength="70" x="1088.1" y="393.9102">DataHandler</text><line style="stroke: #A80036; stroke-width: 1.5;" x1="1059" x2="1161" y1="405" y2="405"/><line style="stroke: #A80036; stroke-width: 1.5;" x1="1059" x2="1161" y1="413" y2="413"/><text fill="#000000" font-family="sans-serif" font-size="11" lengthAdjust="spacingAndGlyphs" textLength="92" x="1064" y="428.4189">+openConnection()</text><text fill="#000000" font-family="sans-serif" font-size="11" lengthAdjust="spacingAndGlyphs" textLength="52" x="1064" y="442.2549">+closeAll()</text><!--MD5=[88cdc1ff0babf321196dd88b9a70f9c4]
reverse link DataHandler to PharmacyRegistration--><path d="M1044.7,459.91 C1036.01,464.89 1026.99,469.43 1018,473 C923.695,510.509 885.513,470.27 793,512 C769.643,522.537 747.06,539.752 729.193,555.608 " fill="none" id="DataHandler&lt;-PharmacyRegistration" style="stroke: #A80036; stroke-width: 1.0;"/><polygon fill="none" points="1041.26,453.8,1061.95,449.23,1048.63,465.71,1041.26,453.8" style="stroke: #A80036; stroke-width: 1.0;"/><!--MD5=[527120703de7dfffd3117b230a6ddff3]
reverse link DataHandler to ScooterRegistration--><path d="M1050.2,462.11 C1011.6,494.453 962.666,535.46 929.949,562.876 " fill="none" id="DataHandler&lt;-ScooterRegistration" style="stroke: #A80036; stroke-width: 1.0;"/><polygon fill="none" points="1045.94,456.55,1065.77,449.06,1054.93,467.28,1045.94,456.55" style="stroke: #A80036; stroke-width: 1.0;"/><!--MD5=[d51a3d7ceb60387716e9812879733fde]
link RemoveScooterUI to RemoveScooterController--><path d="M175,108.09 C175,129.11 175,160.85 175,187.58 " fill="none" id="RemoveScooterUI-&gt;RemoveScooterController" style="stroke: #A80036; stroke-width: 1.0; stroke-dasharray: 7.0,7.0;"/><polygon fill="#A80036" points="175,192.85,179,183.85,175,187.85,171,183.85,175,192.85" style="stroke: #A80036; stroke-width: 1.0;"/><!--MD5=[e2004a2e156ed7f1cbb52b558551c1fc]
link RemoveScooterController to Platform--><path d="M262.265,283.04 C284.154,294.98 307.293,308.39 328,322 C347.211,334.63 367.24,349.69 384.959,363.75 " fill="none" id="RemoveScooterController-&gt;Platform" style="stroke: #A80036; stroke-width: 1.0; stroke-dasharray: 7.0,7.0;"/><polygon fill="#A80036" points="388.938,366.92,384.3895,358.1844,385.0267,363.8052,379.4059,364.4425,388.938,366.92" style="stroke: #A80036; stroke-width: 1.0;"/><!--MD5=[ef611f9e0adaa461bbca4767595d7761]
link RemoveScooterController to ApplicationPOT--><path d="M155.428,283.04 C143.794,309.21 129.118,342.23 117.65,368.04 " fill="none" id="RemoveScooterController-&gt;ApplicationPOT" style="stroke: #A80036; stroke-width: 1.0; stroke-dasharray: 7.0,7.0;"/><polygon fill="#A80036" points="115.547,372.77,122.8552,366.1677,117.5761,368.2002,115.5436,362.9211,115.547,372.77" style="stroke: #A80036; stroke-width: 1.0;"/><!--MD5=[5b0609a22cd8acd8066db74e37271ce4]
link RemoveScooterController to UserSession--><path d="M194.314,283.04 C206.858,311.64 222.984,348.4 234.651,375 " fill="none" id="RemoveScooterController-&gt;UserSession" style="stroke: #A80036; stroke-width: 1.0; stroke-dasharray: 7.0,7.0;"/><polygon fill="#A80036" points="236.776,379.85,236.8389,370.0013,234.7745,375.2681,229.5078,373.2037,236.776,379.85" style="stroke: #A80036; stroke-width: 1.0;"/><!--MD5=[f94ed16b1d761a53d4eba61183b6d758]
link Platform to PharmacyRegistration--><path d="M491.039,434.15 C519.048,447.38 553.727,465.56 582,486 C608.634,505.256 635.143,530.801 655.462,552.102 " fill="none" id="Platform-&gt;PharmacyRegistration" style="stroke: #A80036; stroke-width: 1.0;"/><polygon fill="#A80036" points="658.925,555.754,655.634,546.4712,655.4843,552.1261,649.8294,551.9764,658.925,555.754" style="stroke: #A80036; stroke-width: 1.0;"/><text fill="#000000" font-family="sans-serif" font-size="13" lengthAdjust="spacingAndGlyphs" textLength="21" x="602" y="500.4951">has</text><text fill="#000000" font-family="sans-serif" font-size="13" lengthAdjust="spacingAndGlyphs" textLength="7" x="499.0494" y="452.2822">1</text><text fill="#000000" font-family="sans-serif" font-size="13" lengthAdjust="spacingAndGlyphs" textLength="7" x="645.4101" y="545.0721">1</text><!--MD5=[10d7a1607bc161c4e7d004457651c20f]
link ScooterRegistration to Scooter--><path d="M844.833,625.036 C828.404,634.981 809.961,646.047 793,656 C756.456,677.444 716.493,700.404 680.013,721.173 " fill="none" id="ScooterRegistration-&gt;Scooter" style="stroke: #A80036; stroke-width: 1.0;"/><polygon fill="#A80036" points="675.582,723.695,685.3823,722.718,679.9271,721.2211,681.424,715.7659,675.582,723.695" style="stroke: #A80036; stroke-width: 1.0;"/><text fill="#000000" font-family="sans-serif" font-size="13" lengthAdjust="spacingAndGlyphs" textLength="53" x="774" y="678.4951">manages</text><text fill="#000000" font-family="sans-serif" font-size="13" lengthAdjust="spacingAndGlyphs" textLength="7" x="827.4642" y="646.2671">1</text><text fill="#000000" font-family="sans-serif" font-size="13" lengthAdjust="spacingAndGlyphs" textLength="5" x="683.3388" y="716.3551">*</text><!--MD5=[4a07f137c208f82f57837154e1cfa51e]
link Platform to Pharmacy--><path d="M426.263,456.35 C423.581,466.05 420.988,476.32 419,486 C380.292,674.524 387.505,730.035 424,919 C425.867,928.669 428.326,938.932 430.879,948.637 " fill="none" id="Platform-Pharmacy" style="stroke: #A80036; stroke-width: 1.0;"/><text fill="#000000" font-family="sans-serif" font-size="13" lengthAdjust="spacingAndGlyphs" textLength="82" x="395" y="678.4951">has registered</text><polygon fill="#000000" points="431.5,687.3516,434.5,693.3516,437.5,687.3516,431.5,687.3516" style="stroke: #000000; stroke-width: 1.0;"/><text fill="#000000" font-family="sans-serif" font-size="13" lengthAdjust="spacingAndGlyphs" textLength="7" x="416.9468" y="477.0707">1</text><text fill="#000000" font-family="sans-serif" font-size="13" lengthAdjust="spacingAndGlyphs" textLength="5" x="423.487" y="938.0255">*</text><!--MD5=[423ba1e9b983bd24d1236c4cf89ceca7]
link Platform to Scooter--><path d="M431.041,456.32 C422.886,510.375 418.532,601.288 467,656 C477.294,667.62 489.053,654.088 501,664 C516.065,676.498 527.213,693.86 535.412,711.722 " fill="none" id="Platform-Scooter" style="stroke: #A80036; stroke-width: 1.0;"/><text fill="#000000" font-family="sans-serif" font-size="13" lengthAdjust="spacingAndGlyphs" textLength="82" x="468" y="599.4951">has registered</text><polygon fill="#000000" points="504.5,608.3516,507.5,614.3516,510.5,608.3516,504.5,608.3516" style="stroke: #000000; stroke-width: 1.0;"/><text fill="#000000" font-family="sans-serif" font-size="13" lengthAdjust="spacingAndGlyphs" textLength="7" x="430.3074" y="477.0367">1</text><text fill="#000000" font-family="sans-serif" font-size="13" lengthAdjust="spacingAndGlyphs" textLength="5" x="528.1914" y="701.1557">*</text><!--MD5=[754ae0e32ddeeb427901936d97e772de]
link Platform to PharmacyManager--><path d="M491.051,439.39 C518.198,456.62 549.667,481.398 568,512 C601.383,567.723 555.464,602.986 593,656 C622.435,697.573 667.242,668.054 693,712 C783.569,866.523 659.7,1092.836 614.988,1165.286 " fill="none" id="Platform-PharmacyManager" style="stroke: #A80036; stroke-width: 1.0;"/><text fill="#000000" font-family="sans-serif" font-size="13" lengthAdjust="spacingAndGlyphs" textLength="82" x="726" y="796.9951">has registered</text><polygon fill="#000000" points="762.5,805.8516,765.5,811.8516,768.5,805.8516,762.5,805.8516" style="stroke: #000000; stroke-width: 1.0;"/><text fill="#000000" font-family="sans-serif" font-size="13" lengthAdjust="spacingAndGlyphs" textLength="7" x="499.0632" y="439.9419">1</text><text fill="#000000" font-family="sans-serif" font-size="13" lengthAdjust="spacingAndGlyphs" textLength="5" x="613.1881" y="1154.5713">*</text><!--MD5=[cf4f95b832970cfa6e3a3c87e0aa2b32]
link Pharmacy to Scooter--><path d="M495.94,948.721 C504.528,939.572 512.678,929.499 519,919 C527.812,904.364 534.714,887.534 540.07,871.025 " fill="none" id="Pharmacy-Scooter" style="stroke: #A80036; stroke-width: 1.0;"/><polygon fill="#000000" points="535,912,538,906,541,912,535,912" style="stroke: #000000; stroke-width: 1.0;"/><text fill="#000000" font-family="sans-serif" font-size="13" lengthAdjust="spacingAndGlyphs" textLength="21" x="529" y="928.4951">has</text><text fill="#000000" font-family="sans-serif" font-size="13" lengthAdjust="spacingAndGlyphs" textLength="7" x="496.3574" y="938.1224">1</text><text fill="#000000" font-family="sans-serif" font-size="13" lengthAdjust="spacingAndGlyphs" textLength="5" x="533.4002" y="892.0703">*</text><!--MD5=[6f1b2737b94c689eac8b0af6a5ef1443]
link Scooter to Pharmacy--><path d="M454.296,871.19 C447.025,880.474 440.716,890.437 436,901 C429.399,915.786 429.251,933.225 431.493,948.923 " fill="none" id="Scooter-Pharmacy" style="stroke: #A80036; stroke-width: 1.0;"/><text fill="#000000" font-family="sans-serif" font-size="13" lengthAdjust="spacingAndGlyphs" textLength="60" x="437" y="915.4951">belongs to</text><polygon fill="#000000" points="462.5,924.3516,465.5,930.3516,468.5,924.3516,462.5,924.3516" style="stroke: #000000; stroke-width: 1.0;"/><text fill="#000000" font-family="sans-serif" font-size="13" lengthAdjust="spacingAndGlyphs" textLength="5" x="440.255" y="892.2495">*</text><text fill="#000000" font-family="sans-serif" font-size="13" lengthAdjust="spacingAndGlyphs" textLength="7" x="430.0575" y="938.0262">1</text><!--MD5=[89baec1bfb4a213750f7c61516e0a0f1]
link Pharmacy to Address--><path d="M444,1039.393 C444,1062.266 444,1090.727 444,1116.634 " fill="none" id="Pharmacy-Address" style="stroke: #A80036; stroke-width: 1.0;"/><text fill="#000000" font-family="sans-serif" font-size="13" lengthAdjust="spacingAndGlyphs" textLength="21" x="445" y="1083.4951">has</text><polygon fill="#000000" points="451,1092.3516,454,1098.3516,457,1092.3516,451,1092.3516" style="stroke: #000000; stroke-width: 1.0;"/><text fill="#000000" font-family="sans-serif" font-size="13" lengthAdjust="spacingAndGlyphs" textLength="7" x="436.5297" y="1060.1195">1</text><text fill="#000000" font-family="sans-serif" font-size="13" lengthAdjust="spacingAndGlyphs" textLength="7" x="436.6555" y="1106.1935">1</text><!--MD5=[63120965f33aa30485eaf56f4034632c]
link PharmacyManager to User--><path d="M600,1213.834 C600,1244.541 600,1299.35 600,1339.803 " fill="none" id="PharmacyManager-User" style="stroke: #A80036; stroke-width: 1.0;"/><text fill="#000000" font-family="sans-serif" font-size="13" lengthAdjust="spacingAndGlyphs" textLength="43" x="601" y="1306.4951">acts as</text><polygon fill="#000000" points="618,1315.3516,621,1321.3516,624,1315.3516,618,1315.3516" style="stroke: #000000; stroke-width: 1.0;"/><text fill="#000000" font-family="sans-serif" font-size="13" lengthAdjust="spacingAndGlyphs" textLength="22" x="575.4563" y="1234.847">0..1</text><text fill="#000000" font-family="sans-serif" font-size="13" lengthAdjust="spacingAndGlyphs" textLength="7" x="592.5297" y="1329.2769">1</text><!--MD5=[09fe915c748217accc4fcc978cf154f9]
link PharmacyManager to Scooter--><path d="M598.065,1165.361 C593.907,1116.477 583.555,999.116 572,901 C570.866,891.368 569.588,881.268 568.269,871.268 " fill="none" id="PharmacyManager-Scooter" style="stroke: #A80036; stroke-width: 1.0;"/><polygon fill="#000000" points="607.5,996,610.5,990,613.5,996,607.5,996" style="stroke: #000000; stroke-width: 1.0;"/><text fill="#000000" font-family="sans-serif" font-size="13" lengthAdjust="spacingAndGlyphs" textLength="50" x="587" y="1012.4951">registers</text><text fill="#000000" font-family="sans-serif" font-size="13" lengthAdjust="spacingAndGlyphs" textLength="7" x="589.6723" y="1154.6655">1</text><text fill="#000000" font-family="sans-serif" font-size="13" lengthAdjust="spacingAndGlyphs" textLength="20" x="548.3741" y="892.0589">1..*</text><!--MD5=[1563ddde69eb8abda9b50e9ab8dfb994]
link Pharmacy to PharmacyManager--><path d="M479.79,1039.393 C511.453,1078.668 556.398,1134.416 581.396,1165.423 " fill="none" id="Pharmacy-PharmacyManager" style="stroke: #A80036; stroke-width: 1.0;"/><text fill="#000000" font-family="sans-serif" font-size="13" lengthAdjust="spacingAndGlyphs" textLength="21" x="519" y="1083.4951">has</text><polygon fill="#000000" points="525,1092.3516,528,1098.3516,531,1092.3516,525,1092.3516" style="stroke: #000000; stroke-width: 1.0;"/><text fill="#000000" font-family="sans-serif" font-size="13" lengthAdjust="spacingAndGlyphs" textLength="7" x="477.129" y="1060.1195">1</text><text fill="#000000" font-family="sans-serif" font-size="13" lengthAdjust="spacingAndGlyphs" textLength="7" x="568.7318" y="1154.7434">1</text><!--MD5=[615fb478cafc5ae74ffe6798f573dfb1]
@startuml
skinparam classAttributeIconSize 0

package "UI" #DDDDDD {
class RemoveScooterUI{

}
}


package "Controller" #DDDDDD {
class RemoveScooterController{
+removeScooter(batteryPerc, charginStatus, potency,\n weight, batteryCapacity, pharmacy)
+showScootersList(pharmacy)
}

class ApplicationPOT
{
  +static getInstance()
  +getPlatform()
}

class UserSession
{
  +getCurrentSession()
}
}


package "Model" #DDDDDD {
class Platform {
  -String designation
  +gePharmReg()
  +getScootReg()
}
package "Registration" #DDDDDD {
 class PharmacyRegistration{
     +getPharmacyById(pharmacyId)
     +getConnection()
 }

 class ScooterRegistration{
      +RemoveScooterFromDB(scoot)
  }
 }
}

package "Model" #DDDDDD {
class Scooter{
  -int id
  -int batteryPerc
  -int charginStatus
  -int potency
  -int weight
  -int batteryCapacity
  +Scooter(batteryPerc, charginStatus, potency,\n weight, batteryCapacity)
}

class Address{
  -float longitude
  -float latitude
  -String doorNumber
  -String streetName
  -String postalCode
  -String locality
  -String country
}

class Pharmacy {
  -int id
  -String name
  +getScootersList(pharmacy)
}

class User{
-   String name
-   String email
-   String password
-   Integer nif
}

class PharmacyManager {
}

}


package "Data" #DDDDDD {
class DataHandler{
    +openConnection()
    +closeAll()
}
}

class PharmacyRegistration extends DataHandler
class ScooterRegistration extends DataHandler

RemoveScooterUI ..> RemoveScooterController
RemoveScooterController ..> Platform
RemoveScooterController ..> ApplicationPOT
RemoveScooterController ..> UserSession
Platform "1" - -> "1" PharmacyRegistration : has
ScooterRegistration "1" - -> "*" Scooter : manages

Platform "1" - - "*" Pharmacy : has registered >
Platform "1" - - "*" Scooter : has registered >
Platform "1" - - "*" PharmacyManager : has registered >

Pharmacy "1" - - "*" Scooter : has >
Pharmacy "1" - - "1" Address : has >
PharmacyManager "0..1" - - "1" User: acts as >
PharmacyManager "1" - - "1..*" Scooter : registers >
Pharmacy "1" - - "1" PharmacyManager : has >
Scooter "*" - - "1" Pharmacy : belongs to >

@enduml

PlantUML version 1.2020.09(Sun May 10 11:51:06 BST 2020)
(GPL source distribution)
Java Runtime: OpenJDK Runtime Environment
JVM: OpenJDK 64-Bit Server VM
Java Version: 11.0.6+8-b765.40
Operating System: Windows 10
Default Encoding: Cp1252
Language: pt
Country: PT
--></g></svg>