<?xml version="1.0" encoding="UTF-8" standalone="no"?><svg xmlns="http://www.w3.org/2000/svg" xmlns:xlink="http://www.w3.org/1999/xlink" contentScriptType="application/ecmascript" contentStyleType="text/css" height="678px" preserveAspectRatio="none" style="width:859px;height:678px;" version="1.1" viewBox="0 0 859 678" width="859px" zoomAndPan="magnify"><defs><filter height="300%" id="f17s8cf94rbxc9" width="300%" x="-1" y="-1"><feGaussianBlur result="blurOut" stdDeviation="2.0"/><feColorMatrix in="blurOut" result="blurOut2" type="matrix" values="0 0 0 0 0 0 0 0 0 0 0 0 0 0 0 0 0 0 .4 0"/><feOffset dx="4.0" dy="4.0" in="blurOut2" result="blurOut3"/><feBlend in="SourceGraphic" in2="blurOut3" mode="normal"/></filter></defs><g><!--MD5=[fa1e3283224feb76407c84b7e90ed808]
entity Database--><path d="M6,339.09 C6,329.09 46.5,329.09 46.5,329.09 C46.5,329.09 87,329.09 87,339.09 L87,365.6994 C87,375.6994 46.5,375.6994 46.5,375.6994 C46.5,375.6994 6,375.6994 6,365.6994 L6,339.09 " fill="#FFFFFF" filter="url(#f17s8cf94rbxc9)" style="stroke: #000000; stroke-width: 1.5;"/><path d="M6,339.09 C6,349.09 46.5,349.09 46.5,349.09 C46.5,349.09 87,349.09 87,339.09 " fill="none" style="stroke: #000000; stroke-width: 1.5;"/><text fill="#000000" font-family="sans-serif" font-size="14" lengthAdjust="spacingAndGlyphs" textLength="61" x="16" y="367.6232">Database</text><!--MD5=[ed6624c6556d5e7b1bd23032162d20b7]
class Client--><rect fill="#FEFECE" filter="url(#f17s8cf94rbxc9)" height="95.3438" id="Client" style="stroke: #A80036; stroke-width: 1.5;" width="126" x="244" y="94.09"/><ellipse cx="286.9" cy="110.09" fill="#ADD1B2" rx="11" ry="11" style="stroke: #A80036; stroke-width: 1.0;"/><path d="M288.9,106.59 Q289.1031,106.09 289.3375,105.84 Q289.5719,105.59 289.8375,105.59 Q290.3063,105.59 290.6031,105.8713 Q290.9,106.1525 290.9,106.8088 L290.9,108.3713 Q290.9,109.0275 290.6188,109.3088 Q290.3375,109.59 289.9,109.59 Q289.5094,109.59 289.2594,109.4181 Q289.0094,109.2463 288.9,108.7931 Q288.8531,108.4806 288.6813,108.3088 Q288.3688,107.9806 287.8063,107.7931 Q287.2438,107.59 286.6813,107.59 Q285.9781,107.59 285.3844,107.8713 Q284.8063,108.1525 284.3531,108.7775 Q283.9,109.4025 283.9,110.2619 L283.9,111.1838 Q283.9,112.215 284.7438,112.9025 Q285.5875,113.59 287.0875,113.59 Q287.9781,113.59 288.6031,113.3869 Q288.9625,113.2775 289.3688,112.9181 Q289.6344,112.715 289.775,112.6525 Q289.9156,112.59 290.0875,112.59 Q290.4156,112.59 290.65,112.8556 Q290.9,113.1056 290.9,113.465 Q290.9,113.8088 290.5563,114.215 Q290.0563,114.8088 289.2594,115.1369 Q288.2125,115.59 286.9313,115.59 Q285.4313,115.59 284.2281,114.9963 Q283.2594,114.5275 282.5719,113.5119 Q281.9,112.4963 281.9,111.2931 L281.9,110.1994 Q281.9,108.9494 282.4938,107.8556 Q283.1031,106.7619 284.15,106.1838 Q285.2125,105.59 286.4,105.59 Q287.1188,105.59 287.7438,105.84 Q288.3688,106.09 288.9,106.59 Z "/><text fill="#000000" font-family="sans-serif" font-size="12" lengthAdjust="spacingAndGlyphs" textLength="32" x="307.1" y="115.0002">Client</text><line style="stroke: #A80036; stroke-width: 1.5;" x1="245" x2="369" y1="126.09" y2="126.09"/><text fill="#000000" font-family="sans-serif" font-size="11" lengthAdjust="spacingAndGlyphs" textLength="42" x="250" y="141.5089">-int IBAN</text><text fill="#000000" font-family="sans-serif" font-size="11" lengthAdjust="spacingAndGlyphs" textLength="114" x="250" y="155.3449">-long creditCardNumber</text><text fill="#000000" font-family="sans-serif" font-size="11" lengthAdjust="spacingAndGlyphs" textLength="73" x="250" y="169.1808">-int validityDate</text><text fill="#000000" font-family="sans-serif" font-size="11" lengthAdjust="spacingAndGlyphs" textLength="40" x="250" y="183.0168">-int CCV</text><!--MD5=[3fd616f346a44cd59a91eb10b19e157c]
class User--><rect fill="#FEFECE" filter="url(#f17s8cf94rbxc9)" height="81.5078" id="User" style="stroke: #A80036; stroke-width: 1.5;" width="97" x="539" y="7.59"/><ellipse cx="571.1" cy="23.59" fill="#ADD1B2" rx="11" ry="11" style="stroke: #A80036; stroke-width: 1.0;"/><path d="M573.1,20.09 Q573.3031,19.59 573.5375,19.34 Q573.7719,19.09 574.0375,19.09 Q574.5063,19.09 574.8031,19.3713 Q575.1,19.6525 575.1,20.3088 L575.1,21.8713 Q575.1,22.5275 574.8188,22.8088 Q574.5375,23.09 574.1,23.09 Q573.7094,23.09 573.4594,22.9181 Q573.2094,22.7463 573.1,22.2931 Q573.0531,21.9806 572.8813,21.8088 Q572.5688,21.4806 572.0063,21.2931 Q571.4438,21.09 570.8813,21.09 Q570.1781,21.09 569.5844,21.3713 Q569.0063,21.6525 568.5531,22.2775 Q568.1,22.9025 568.1,23.7619 L568.1,24.6838 Q568.1,25.715 568.9438,26.4025 Q569.7875,27.09 571.2875,27.09 Q572.1781,27.09 572.8031,26.8869 Q573.1625,26.7775 573.5688,26.4181 Q573.8344,26.215 573.975,26.1525 Q574.1156,26.09 574.2875,26.09 Q574.6156,26.09 574.85,26.3556 Q575.1,26.6056 575.1,26.965 Q575.1,27.3088 574.7563,27.715 Q574.2563,28.3088 573.4594,28.6369 Q572.4125,29.09 571.1313,29.09 Q569.6313,29.09 568.4281,28.4963 Q567.4594,28.0275 566.7719,27.0119 Q566.1,25.9963 566.1,24.7931 L566.1,23.6994 Q566.1,22.4494 566.6938,21.3556 Q567.3031,20.2619 568.35,19.6838 Q569.4125,19.09 570.6,19.09 Q571.3188,19.09 571.9438,19.34 Q572.5688,19.59 573.1,20.09 Z "/><text fill="#000000" font-family="sans-serif" font-size="12" lengthAdjust="spacingAndGlyphs" textLength="27" x="588.9" y="28.5002">User</text><line style="stroke: #A80036; stroke-width: 1.5;" x1="540" x2="635" y1="39.59" y2="39.59"/><text fill="#000000" font-family="sans-serif" font-size="11" lengthAdjust="spacingAndGlyphs" textLength="61" x="545" y="55.0089">-String name</text><text fill="#000000" font-family="sans-serif" font-size="11" lengthAdjust="spacingAndGlyphs" textLength="59" x="545" y="68.8449">-String email</text><text fill="#000000" font-family="sans-serif" font-size="11" lengthAdjust="spacingAndGlyphs" textLength="85" x="545" y="82.6808">-String password</text><!--MD5=[0f39e4cb6f03951afbf6d14bd2505654]
class Address--><rect fill="#FEFECE" filter="url(#f17s8cf94rbxc9)" height="136.8516" id="Address" style="stroke: #A80036; stroke-width: 1.5;" width="106" x="742" y="162.09"/><ellipse cx="769.6" cy="178.09" fill="#ADD1B2" rx="11" ry="11" style="stroke: #A80036; stroke-width: 1.0;"/><path d="M771.6,174.59 Q771.8031,174.09 772.0375,173.84 Q772.2719,173.59 772.5375,173.59 Q773.0063,173.59 773.3031,173.8712 Q773.6,174.1525 773.6,174.8087 L773.6,176.3712 Q773.6,177.0275 773.3188,177.3087 Q773.0375,177.59 772.6,177.59 Q772.2094,177.59 771.9594,177.4181 Q771.7094,177.2462 771.6,176.7931 Q771.5531,176.4806 771.3813,176.3087 Q771.0688,175.9806 770.5063,175.7931 Q769.9438,175.59 769.3813,175.59 Q768.6781,175.59 768.0844,175.8712 Q767.5063,176.1525 767.0531,176.7775 Q766.6,177.4025 766.6,178.2619 L766.6,179.1837 Q766.6,180.215 767.4438,180.9025 Q768.2875,181.59 769.7875,181.59 Q770.6781,181.59 771.3031,181.3869 Q771.6625,181.2775 772.0688,180.9181 Q772.3344,180.715 772.475,180.6525 Q772.6156,180.59 772.7875,180.59 Q773.1156,180.59 773.35,180.8556 Q773.6,181.1056 773.6,181.465 Q773.6,181.8087 773.2563,182.215 Q772.7563,182.8087 771.9594,183.1369 Q770.9125,183.59 769.6313,183.59 Q768.1313,183.59 766.9281,182.9962 Q765.9594,182.5275 765.2719,181.5119 Q764.6,180.4962 764.6,179.2931 L764.6,178.1994 Q764.6,176.9494 765.1938,175.8556 Q765.8031,174.7619 766.85,174.1837 Q767.9125,173.59 769.1,173.59 Q769.8188,173.59 770.4438,173.84 Q771.0688,174.09 771.6,174.59 Z "/><text fill="#000000" font-family="sans-serif" font-size="12" lengthAdjust="spacingAndGlyphs" textLength="46" x="786.4" y="183.0002">Address</text><line style="stroke: #A80036; stroke-width: 1.5;" x1="743" x2="847" y1="194.09" y2="194.09"/><text fill="#000000" font-family="sans-serif" font-size="11" lengthAdjust="spacingAndGlyphs" textLength="90" x="748" y="209.5089">-String streetName</text><text fill="#000000" font-family="sans-serif" font-size="11" lengthAdjust="spacingAndGlyphs" textLength="94" x="748" y="223.3449">-String doorNumber</text><text fill="#000000" font-family="sans-serif" font-size="11" lengthAdjust="spacingAndGlyphs" textLength="89" x="748" y="237.1808">-String postalCode</text><text fill="#000000" font-family="sans-serif" font-size="11" lengthAdjust="spacingAndGlyphs" textLength="68" x="748" y="251.0168">-String locality</text><text fill="#000000" font-family="sans-serif" font-size="11" lengthAdjust="spacingAndGlyphs" textLength="72" x="748" y="264.8527">-String country</text><text fill="#000000" font-family="sans-serif" font-size="11" lengthAdjust="spacingAndGlyphs" textLength="71" x="748" y="278.6886">-float longitude</text><text fill="#000000" font-family="sans-serif" font-size="11" lengthAdjust="spacingAndGlyphs" textLength="62" x="748" y="292.5246">-float latitude</text><!--MD5=[cf4d6237fcae255cd2e1656cf84a30e2]
class Order--><rect fill="#FEFECE" filter="url(#f17s8cf94rbxc9)" height="136.8516" id="Order" style="stroke: #A80036; stroke-width: 1.5;" width="103" x="536" y="284.09"/><ellipse cx="569" cy="300.09" fill="#ADD1B2" rx="11" ry="11" style="stroke: #A80036; stroke-width: 1.0;"/><path d="M571,296.59 Q571.2031,296.09 571.4375,295.84 Q571.6719,295.59 571.9375,295.59 Q572.4063,295.59 572.7031,295.8713 Q573,296.1525 573,296.8088 L573,298.3713 Q573,299.0275 572.7188,299.3088 Q572.4375,299.59 572,299.59 Q571.6094,299.59 571.3594,299.4181 Q571.1094,299.2463 571,298.7931 Q570.9531,298.4806 570.7813,298.3088 Q570.4688,297.9806 569.9063,297.7931 Q569.3438,297.59 568.7813,297.59 Q568.0781,297.59 567.4844,297.8713 Q566.9063,298.1525 566.4531,298.7775 Q566,299.4025 566,300.2619 L566,301.1838 Q566,302.215 566.8438,302.9025 Q567.6875,303.59 569.1875,303.59 Q570.0781,303.59 570.7031,303.3869 Q571.0625,303.2775 571.4688,302.9181 Q571.7344,302.715 571.875,302.6525 Q572.0156,302.59 572.1875,302.59 Q572.5156,302.59 572.75,302.8556 Q573,303.1056 573,303.465 Q573,303.8088 572.6563,304.215 Q572.1563,304.8088 571.3594,305.1369 Q570.3125,305.59 569.0313,305.59 Q567.5313,305.59 566.3281,304.9963 Q565.3594,304.5275 564.6719,303.5119 Q564,302.4963 564,301.2931 L564,300.1994 Q564,298.9494 564.5938,297.8556 Q565.2031,296.7619 566.25,296.1838 Q567.3125,295.59 568.5,295.59 Q569.2188,295.59 569.8438,295.84 Q570.4688,296.09 571,296.59 Z "/><text fill="#000000" font-family="sans-serif" font-size="12" lengthAdjust="spacingAndGlyphs" textLength="31" x="587" y="305.0002">Order</text><line style="stroke: #A80036; stroke-width: 1.5;" x1="537" x2="638" y1="316.09" y2="316.09"/><text fill="#000000" font-family="sans-serif" font-size="11" lengthAdjust="spacingAndGlyphs" textLength="26" x="542" y="331.5089">-int id</text><text fill="#000000" font-family="sans-serif" font-size="11" lengthAdjust="spacingAndGlyphs" textLength="63" x="542" y="345.3449">-float amount</text><text fill="#000000" font-family="sans-serif" font-size="11" lengthAdjust="spacingAndGlyphs" textLength="81" x="542" y="359.1808">-float totalWeight</text><text fill="#000000" font-family="sans-serif" font-size="11" lengthAdjust="spacingAndGlyphs" textLength="91" x="542" y="373.0168">-float additionalFee</text><text fill="#000000" font-family="sans-serif" font-size="11" lengthAdjust="spacingAndGlyphs" textLength="77" x="542" y="386.8527">-Date orderDate</text><text fill="#000000" font-family="sans-serif" font-size="11" lengthAdjust="spacingAndGlyphs" textLength="88" x="542" y="400.6886">-String description</text><text fill="#000000" font-family="sans-serif" font-size="11" lengthAdjust="spacingAndGlyphs" textLength="65" x="542" y="414.5246">-String status</text><!--MD5=[72136138052d025cffdce3c22fbd185f]
class Product--><rect fill="#FEFECE" filter="url(#f17s8cf94rbxc9)" height="109.1797" id="Product" style="stroke: #A80036; stroke-width: 1.5;" width="106" x="742" y="420.09"/><ellipse cx="771.4" cy="436.09" fill="#ADD1B2" rx="11" ry="11" style="stroke: #A80036; stroke-width: 1.0;"/><path d="M773.4,432.59 Q773.6031,432.09 773.8375,431.84 Q774.0719,431.59 774.3375,431.59 Q774.8063,431.59 775.1031,431.8713 Q775.4,432.1525 775.4,432.8088 L775.4,434.3713 Q775.4,435.0275 775.1188,435.3088 Q774.8375,435.59 774.4,435.59 Q774.0094,435.59 773.7594,435.4181 Q773.5094,435.2463 773.4,434.7931 Q773.3531,434.4806 773.1813,434.3088 Q772.8688,433.9806 772.3063,433.7931 Q771.7438,433.59 771.1813,433.59 Q770.4781,433.59 769.8844,433.8713 Q769.3063,434.1525 768.8531,434.7775 Q768.4,435.4025 768.4,436.2619 L768.4,437.1838 Q768.4,438.215 769.2438,438.9025 Q770.0875,439.59 771.5875,439.59 Q772.4781,439.59 773.1031,439.3869 Q773.4625,439.2775 773.8688,438.9181 Q774.1344,438.715 774.275,438.6525 Q774.4156,438.59 774.5875,438.59 Q774.9156,438.59 775.15,438.8556 Q775.4,439.1056 775.4,439.465 Q775.4,439.8088 775.0563,440.215 Q774.5563,440.8088 773.7594,441.1369 Q772.7125,441.59 771.4313,441.59 Q769.9313,441.59 768.7281,440.9963 Q767.7594,440.5275 767.0719,439.5119 Q766.4,438.4963 766.4,437.2931 L766.4,436.1994 Q766.4,434.9494 766.9938,433.8556 Q767.6031,432.7619 768.65,432.1838 Q769.7125,431.59 770.9,431.59 Q771.6188,431.59 772.2438,431.84 Q772.8688,432.09 773.4,432.59 Z "/><text fill="#000000" font-family="sans-serif" font-size="12" lengthAdjust="spacingAndGlyphs" textLength="42" x="788.6" y="441.0002">Product</text><line style="stroke: #A80036; stroke-width: 1.5;" x1="743" x2="847" y1="452.09" y2="452.09"/><text fill="#000000" font-family="sans-serif" font-size="11" lengthAdjust="spacingAndGlyphs" textLength="26" x="748" y="467.5089">-int id</text><text fill="#000000" font-family="sans-serif" font-size="11" lengthAdjust="spacingAndGlyphs" textLength="61" x="748" y="481.3449">-String name</text><text fill="#000000" font-family="sans-serif" font-size="11" lengthAdjust="spacingAndGlyphs" textLength="88" x="748" y="495.1808">-String description</text><text fill="#000000" font-family="sans-serif" font-size="11" lengthAdjust="spacingAndGlyphs" textLength="85" x="748" y="509.0168">-float unitaryPrice</text><text fill="#000000" font-family="sans-serif" font-size="11" lengthAdjust="spacingAndGlyphs" textLength="94" x="748" y="522.8527">-float unitaryWeight</text><!--MD5=[894442645724153f40a9f7a43026dbfc]
class Invoice--><rect fill="#FEFECE" filter="url(#f17s8cf94rbxc9)" height="67.6719" id="Invoice" style="stroke: #A80036; stroke-width: 1.5;" width="89" x="262.5" y="431.59"/><ellipse cx="286.05" cy="447.59" fill="#ADD1B2" rx="11" ry="11" style="stroke: #A80036; stroke-width: 1.0;"/><path d="M288.05,444.09 Q288.2531,443.59 288.4875,443.34 Q288.7219,443.09 288.9875,443.09 Q289.4563,443.09 289.7531,443.3713 Q290.05,443.6525 290.05,444.3088 L290.05,445.8713 Q290.05,446.5275 289.7688,446.8088 Q289.4875,447.09 289.05,447.09 Q288.6594,447.09 288.4094,446.9181 Q288.1594,446.7463 288.05,446.2931 Q288.0031,445.9806 287.8313,445.8088 Q287.5188,445.4806 286.9563,445.2931 Q286.3938,445.09 285.8313,445.09 Q285.1281,445.09 284.5344,445.3713 Q283.9563,445.6525 283.5031,446.2775 Q283.05,446.9025 283.05,447.7619 L283.05,448.6838 Q283.05,449.715 283.8938,450.4025 Q284.7375,451.09 286.2375,451.09 Q287.1281,451.09 287.7531,450.8869 Q288.1125,450.7775 288.5188,450.4181 Q288.7844,450.215 288.925,450.1525 Q289.0656,450.09 289.2375,450.09 Q289.5656,450.09 289.8,450.3556 Q290.05,450.6056 290.05,450.965 Q290.05,451.3088 289.7063,451.715 Q289.2063,452.3088 288.4094,452.6369 Q287.3625,453.09 286.0813,453.09 Q284.5813,453.09 283.3781,452.4963 Q282.4094,452.0275 281.7219,451.0119 Q281.05,449.9963 281.05,448.7931 L281.05,447.6994 Q281.05,446.4494 281.6438,445.3556 Q282.2531,444.2619 283.3,443.6838 Q284.3625,443.09 285.55,443.09 Q286.2688,443.09 286.8938,443.34 Q287.5188,443.59 288.05,444.09 Z "/><text fill="#000000" font-family="sans-serif" font-size="12" lengthAdjust="spacingAndGlyphs" textLength="38" x="301.95" y="452.5002">Invoice</text><line style="stroke: #A80036; stroke-width: 1.5;" x1="263.5" x2="350.5" y1="463.59" y2="463.59"/><text fill="#000000" font-family="sans-serif" font-size="11" lengthAdjust="spacingAndGlyphs" textLength="77" x="268.5" y="479.0089">-Date orderDate</text><text fill="#000000" font-family="sans-serif" font-size="11" lengthAdjust="spacingAndGlyphs" textLength="63" x="268.5" y="492.8449">-float amount</text><!--MD5=[91d4151b6d4c9a3d01b6d84b2458eece]
class CreditCard--><rect fill="#FEFECE" filter="url(#f17s8cf94rbxc9)" height="81.5078" id="CreditCard" style="stroke: #A80036; stroke-width: 1.5;" width="117" x="529" y="544.59"/><ellipse cx="555.25" cy="560.59" fill="#ADD1B2" rx="11" ry="11" style="stroke: #A80036; stroke-width: 1.0;"/><path d="M557.25,557.09 Q557.4531,556.59 557.6875,556.34 Q557.9219,556.09 558.1875,556.09 Q558.6563,556.09 558.9531,556.3713 Q559.25,556.6525 559.25,557.3088 L559.25,558.8713 Q559.25,559.5275 558.9688,559.8088 Q558.6875,560.09 558.25,560.09 Q557.8594,560.09 557.6094,559.9181 Q557.3594,559.7463 557.25,559.2931 Q557.2031,558.9806 557.0313,558.8088 Q556.7188,558.4806 556.1563,558.2931 Q555.5938,558.09 555.0313,558.09 Q554.3281,558.09 553.7344,558.3713 Q553.1563,558.6525 552.7031,559.2775 Q552.25,559.9025 552.25,560.7619 L552.25,561.6838 Q552.25,562.715 553.0938,563.4025 Q553.9375,564.09 555.4375,564.09 Q556.3281,564.09 556.9531,563.8869 Q557.3125,563.7775 557.7188,563.4181 Q557.9844,563.215 558.125,563.1525 Q558.2656,563.09 558.4375,563.09 Q558.7656,563.09 559,563.3556 Q559.25,563.6056 559.25,563.965 Q559.25,564.3088 558.9063,564.715 Q558.4063,565.3088 557.6094,565.6369 Q556.5625,566.09 555.2813,566.09 Q553.7813,566.09 552.5781,565.4963 Q551.6094,565.0275 550.9219,564.0119 Q550.25,562.9963 550.25,561.7931 L550.25,560.6994 Q550.25,559.4494 550.8438,558.3556 Q551.4531,557.2619 552.5,556.6838 Q553.5625,556.09 554.75,556.09 Q555.4688,556.09 556.0938,556.34 Q556.7188,556.59 557.25,557.09 Z "/><text fill="#000000" font-family="sans-serif" font-size="12" lengthAdjust="spacingAndGlyphs" textLength="60" x="571.75" y="565.5002">CreditCard</text><line style="stroke: #A80036; stroke-width: 1.5;" x1="530" x2="645" y1="576.59" y2="576.59"/><text fill="#000000" font-family="sans-serif" font-size="11" lengthAdjust="spacingAndGlyphs" textLength="105" x="535" y="592.0089">-int creditCardNumber</text><text fill="#000000" font-family="sans-serif" font-size="11" lengthAdjust="spacingAndGlyphs" textLength="88" x="535" y="605.8449">-Date validatyDate</text><text fill="#000000" font-family="sans-serif" font-size="11" lengthAdjust="spacingAndGlyphs" textLength="40" x="535" y="619.6808">-int CCV</text><!--MD5=[ac0c33dc67b04049a5a44d8fea0f9b6c]
link Database to Client--><path d="M54.4592,329.064 C64.0797,300.389 84.085,252.226 117,223.59 C151.692,193.407 171.818,205.899 214,187.59 C223.665,183.395 233.761,178.69 243.577,173.933 " fill="none" id="Database-Client" style="stroke: #A80036; stroke-width: 1.0;"/><text fill="#000000" font-family="sans-serif" font-size="13" lengthAdjust="spacingAndGlyphs" textLength="82" x="118" y="184.0851">has registered</text><polygon fill="#000000" points="203,177.2658,209,180.2658,203,183.2658,203,177.2658" style="stroke: #000000; stroke-width: 1.0;"/><text fill="#000000" font-family="sans-serif" font-size="13" lengthAdjust="spacingAndGlyphs" textLength="7" x="57.5389" y="318.1862">1</text><text fill="#000000" font-family="sans-serif" font-size="13" lengthAdjust="spacingAndGlyphs" textLength="5" x="230.9547" y="192.0932">*</text><!--MD5=[ac0c33dc67b04049a5a44d8fea0f9b6c]
link Database to Client--><path d="M48.7797,328.906 C52.3462,288.374 65.8524,206.164 117,165.59 C152.241,137.633 203.379,132.607 243.578,134.038 " fill="none" id="Database-Client-1" style="stroke: #A80036; stroke-width: 1.0;"/><polygon fill="#000000" points="154.5,126.59,157.5,120.59,160.5,126.59,154.5,126.59" style="stroke: #000000; stroke-width: 1.0;"/><text fill="#000000" font-family="sans-serif" font-size="13" lengthAdjust="spacingAndGlyphs" textLength="82" x="118" y="143.0851">has registered</text><text fill="#000000" font-family="sans-serif" font-size="13" lengthAdjust="spacingAndGlyphs" textLength="7" x="41.467" y="318.3772">1</text><text fill="#000000" font-family="sans-serif" font-size="13" lengthAdjust="spacingAndGlyphs" textLength="5" x="230.9558" y="147.5854">*</text><!--MD5=[3105658e3b0e17fcc7b59acd4e6ef463]
link Database to Order--><path d="M87.134,352.59 C183.286,352.59 428.86,352.59 535.638,352.59 " fill="none" id="Database-Order" style="stroke: #A80036; stroke-width: 1.0;"/><text fill="#000000" font-family="sans-serif" font-size="13" lengthAdjust="spacingAndGlyphs" textLength="82" x="259.5" y="349.0851">has registered</text><polygon fill="#000000" points="344.5,342.2658,350.5,345.2658,344.5,348.2658,344.5,342.2658" style="stroke: #000000; stroke-width: 1.0;"/><text fill="#000000" font-family="sans-serif" font-size="13" lengthAdjust="spacingAndGlyphs" textLength="7" x="94.9954" y="367.5762">1</text><text fill="#000000" font-family="sans-serif" font-size="13" lengthAdjust="spacingAndGlyphs" textLength="5" x="522.9933" y="367.2453">*</text><!--MD5=[22f0edd2925765a3c38d923b02900659]
link Database to Product--><path d="M50.6669,376.118 C56.8663,413.327 73.9732,485.9 117,528.59 C178.799,589.9044 475.521,638.3881 529,644.5898 C580.654,650.5797 598.674,666.1363 646,644.5898 C697.641,621.0789 738.263,569.6627 763.781,529.495 " fill="none" id="Database-Product" style="stroke: #A80036; stroke-width: 1.0;"/><text fill="#000000" font-family="sans-serif" font-size="13" lengthAdjust="spacingAndGlyphs" textLength="82" x="402" y="619.0849">has registered</text><polygon fill="#000000" points="487,612.2656,493,615.2656,487,618.2656,487,612.2656" style="stroke: #000000; stroke-width: 1.0;"/><text fill="#000000" font-family="sans-serif" font-size="13" lengthAdjust="spacingAndGlyphs" textLength="7" x="43.8295" y="397.3885">1</text><text fill="#000000" font-family="sans-serif" font-size="13" lengthAdjust="spacingAndGlyphs" textLength="5" x="754.6715" y="550.6671">*</text><!--MD5=[fe65df1e099598e2fce9ebdfea6b3744]
link Database to Address--><path d="M87.0923,336.119 C96.7502,332.565 107.142,329.12 117,326.59 C345.526,267.921 627.271,242.486 741.857,234.043 " fill="none" id="Database-Address" style="stroke: #A80036; stroke-width: 1.0;"/><text fill="#000000" font-family="sans-serif" font-size="13" lengthAdjust="spacingAndGlyphs" textLength="82" x="402" y="254.0851">has registered</text><polygon fill="#000000" points="487,247.2658,493,250.2658,487,253.2658,487,247.2658" style="stroke: #000000; stroke-width: 1.0;"/><text fill="#000000" font-family="sans-serif" font-size="13" lengthAdjust="spacingAndGlyphs" textLength="7" x="94.9462" y="348.1713">1</text><text fill="#000000" font-family="sans-serif" font-size="13" lengthAdjust="spacingAndGlyphs" textLength="5" x="729.0322" y="249.1839">*</text><!--MD5=[79ef9072c49a7de144f8667891df3d49]
link Database to Invoice--><path d="M81.654,376.258 C92.6524,383.317 105.0831,390.727 117,396.59 C164.954,420.183 223.098,440.221 262.122,452.527 " fill="none" id="Database-Invoice" style="stroke: #A80036; stroke-width: 1.0;"/><text fill="#000000" font-family="sans-serif" font-size="13" lengthAdjust="spacingAndGlyphs" textLength="82" x="118" y="393.0851">has registered</text><polygon fill="#000000" points="203,386.2658,209,389.2658,203,392.2658,203,386.2658" style="stroke: #000000; stroke-width: 1.0;"/><text fill="#000000" font-family="sans-serif" font-size="13" lengthAdjust="spacingAndGlyphs" textLength="7" x="81.974" y="397.1622">1</text><text fill="#000000" font-family="sans-serif" font-size="13" lengthAdjust="spacingAndGlyphs" textLength="5" x="249.5711" y="465.2694">*</text><!--MD5=[0d6287e6031f223f446ddfea0960667d]
link Database to CreditCard--><path d="M62.66,376.156 C75.7276,395.477 95.7921,422.912 117,443.59 C166.904,492.246 179.613,508.904 244,535.59 C338.511,574.7611 458.795,583.9454 528.772,585.7031 " fill="none" id="Database-CreditCard" style="stroke: #A80036; stroke-width: 1.0;"/><text fill="#000000" font-family="sans-serif" font-size="13" lengthAdjust="spacingAndGlyphs" textLength="82" x="259.5" y="532.0851">has registered</text><polygon fill="#000000" points="344.5,525.2658,350.5,528.2658,344.5,531.2658,344.5,525.2658" style="stroke: #000000; stroke-width: 1.0;"/><text fill="#000000" font-family="sans-serif" font-size="13" lengthAdjust="spacingAndGlyphs" textLength="7" x="58.5876" y="397.0366">1</text><text fill="#000000" font-family="sans-serif" font-size="13" lengthAdjust="spacingAndGlyphs" textLength="5" x="515.9272" y="600.2918">*</text><!--MD5=[5df16df72a49edaa4f00919f1e597f76]
link Order to Product--><path d="M639.034,382.591 C670.289,401.146 710.324,424.913 741.871,443.642 " fill="none" id="Order-Product" style="stroke: #A80036; stroke-width: 1.0;"/><text fill="#000000" font-family="sans-serif" font-size="13" lengthAdjust="spacingAndGlyphs" textLength="21" x="677" y="402.0851">has</text><polygon fill="#000000" points="701,395.2658,707,398.2658,701,401.2658,701,395.2658" style="stroke: #000000; stroke-width: 1.0;"/><text fill="#000000" font-family="sans-serif" font-size="13" lengthAdjust="spacingAndGlyphs" textLength="7" x="647.1171" y="401.7042">1</text><text fill="#000000" font-family="sans-serif" font-size="13" lengthAdjust="spacingAndGlyphs" textLength="5" x="729.0482" y="453.9221">*</text><!--MD5=[9a8dc34b38f85b9f3fcdb440f4bffc6a]
link Client to User--><path d="M370.154,120.835 C421.134,103.811 492.244,80.065 538.813,64.514 " fill="none" id="Client-User" style="stroke: #A80036; stroke-width: 1.0;"/><text fill="#000000" font-family="sans-serif" font-size="13" lengthAdjust="spacingAndGlyphs" textLength="43" x="421.5" y="75.0851">acts as</text><polygon fill="#000000" points="467.5,68.2658,473.5,71.2658,467.5,74.2658,467.5,68.2658" style="stroke: #000000; stroke-width: 1.0;"/><text fill="#000000" font-family="sans-serif" font-size="13" lengthAdjust="spacingAndGlyphs" textLength="22" x="377.8011" y="133.0152">0..1</text><text fill="#000000" font-family="sans-serif" font-size="13" lengthAdjust="spacingAndGlyphs" textLength="7" x="524.148" y="81.5849">1</text><!--MD5=[879bec428a80d843af24dc47845bf14c]
link Client to Order--><path d="M370.44,173.232 C380.254,177.885 390.345,182.487 400,186.59 C443.089,204.901 462.116,193.753 499,222.59 C520.004,239.011 537.749,261.911 551.653,283.923 " fill="none" id="Client-Order" style="stroke: #A80036; stroke-width: 1.0;"/><text fill="#000000" font-family="sans-serif" font-size="13" lengthAdjust="spacingAndGlyphs" textLength="39" x="423.5" y="183.0851">makes</text><polygon fill="#000000" points="465.5,176.2658,471.5,179.2658,465.5,182.2658,465.5,176.2658" style="stroke: #000000; stroke-width: 1.0;"/><text fill="#000000" font-family="sans-serif" font-size="13" lengthAdjust="spacingAndGlyphs" textLength="7" x="378.1799" y="191.3112">1</text><text fill="#000000" font-family="sans-serif" font-size="13" lengthAdjust="spacingAndGlyphs" textLength="7" x="540.3494" y="273.06">1</text><!--MD5=[bd708f2371c655af07b49ddbdb30848a]
link Client to Address--><path d="M370.307,147.719 C450.273,156.4 592.901,174.643 712,204.59 C721.704,207.03 731.945,209.974 741.778,212.99 " fill="none" id="Client-Address" style="stroke: #A80036; stroke-width: 1.0;"/><text fill="#000000" font-family="sans-serif" font-size="13" lengthAdjust="spacingAndGlyphs" textLength="21" x="570.5" y="165.0851">has</text><polygon fill="#000000" points="594.5,158.2658,600.5,161.2658,594.5,164.2658,594.5,158.2658" style="stroke: #000000; stroke-width: 1.0;"/><text fill="#000000" font-family="sans-serif" font-size="13" lengthAdjust="spacingAndGlyphs" textLength="7" x="378.0316" y="162.8482">1</text><text fill="#000000" font-family="sans-serif" font-size="13" lengthAdjust="spacingAndGlyphs" textLength="7" x="727.156" y="225.2287">1</text><!--MD5=[dd2bca8e69277b6dcf04d6bf8fed5dca]
link Order to Address--><path d="M639.034,322.589 C670.289,304.034 710.324,280.266 741.871,261.537 " fill="none" id="Order-Address" style="stroke: #A80036; stroke-width: 1.0;"/><text fill="#000000" font-family="sans-serif" font-size="13" lengthAdjust="spacingAndGlyphs" textLength="21" x="677" y="277.0851">has</text><polygon fill="#000000" points="701,270.2658,707,273.2658,701,276.2658,701,270.2658" style="stroke: #000000; stroke-width: 1.0;"/><text fill="#000000" font-family="sans-serif" font-size="13" lengthAdjust="spacingAndGlyphs" textLength="7" x="647.1171" y="332.8894">1</text><text fill="#000000" font-family="sans-serif" font-size="13" lengthAdjust="spacingAndGlyphs" textLength="7" x="726.9075" y="280.5442">1</text><!--MD5=[4f0092e2f5693c7657a2634bfbc15acf]
link Invoice to Order--><path d="M351.813,451.422 C390.902,438.391 449.448,417.909 499,396.59 C511.027,391.415 523.735,385.373 535.626,379.453 " fill="none" id="Invoice-Order" style="stroke: #A80036; stroke-width: 1.0;"/><text fill="#000000" font-family="sans-serif" font-size="13" lengthAdjust="spacingAndGlyphs" textLength="21" x="432.5" y="393.0851">has</text><polygon fill="#000000" points="456.5,386.2658,462.5,389.2658,456.5,392.2658,456.5,386.2658" style="stroke: #000000; stroke-width: 1.0;"/><text fill="#000000" font-family="sans-serif" font-size="13" lengthAdjust="spacingAndGlyphs" textLength="7" x="359.5129" y="463.9883">1</text><text fill="#000000" font-family="sans-serif" font-size="13" lengthAdjust="spacingAndGlyphs" textLength="7" x="520.839" y="397.8859">1</text><!--MD5=[72e744b1f7ec345412f1ea79f30940ed]
link Invoice to Product--><path d="M351.557,466.396 C441.024,468.053 645.165,471.834 741.643,473.62 " fill="none" id="Invoice-Product" style="stroke: #A80036; stroke-width: 1.0;"/><text fill="#000000" font-family="sans-serif" font-size="13" lengthAdjust="spacingAndGlyphs" textLength="21" x="570.5" y="466.0851">has</text><polygon fill="#000000" points="594.5,459.2658,600.5,462.2658,594.5,465.2658,594.5,459.2658" style="stroke: #000000; stroke-width: 1.0;"/><text fill="#000000" font-family="sans-serif" font-size="13" lengthAdjust="spacingAndGlyphs" textLength="7" x="359.5164" y="481.4059">1</text><text fill="#000000" font-family="sans-serif" font-size="13" lengthAdjust="spacingAndGlyphs" textLength="5" x="729.1372" y="488.0713">*</text><!--MD5=[02c3880b26c7eaf602597a8933cd7cde]
link Invoice to CreditCard--><path d="M351.608,492.832 C366.638,501.646 383.776,511.075 400,518.59 C441.988,538.039 491.337,555.545 528.721,567.7821 " fill="none" id="Invoice-CreditCard" style="stroke: #A80036; stroke-width: 1.0;"/><text fill="#000000" font-family="sans-serif" font-size="13" lengthAdjust="spacingAndGlyphs" textLength="84" x="401" y="515.0851">is payed using</text><polygon fill="#000000" points="488,508.2658,494,511.2658,488,514.2658,488,508.2658" style="stroke: #000000; stroke-width: 1.0;"/><text fill="#000000" font-family="sans-serif" font-size="13" lengthAdjust="spacingAndGlyphs" textLength="7" x="359.5759" y="512.2204">1</text><text fill="#000000" font-family="sans-serif" font-size="13" lengthAdjust="spacingAndGlyphs" textLength="5" x="515.8696" y="580.0746">*</text><!--MD5=[3f3da25622048a004facf61a9104d279]
@startuml
skinparam classAttributeIconSize 0
hide methods
left to right direction

database Database {
}

class Client{
-   int IBAN
-   long creditCardNumber
-   int validityDate
-   int CCV
}

class User{
-   String name
-   String email
-   String password
}

class Address{
-   String streetName
-   String doorNumber
-   String postalCode
-   String locality
-   String country
-   float longitude
-   float latitude
}

class Order{
-   int id
-   float amount
-   float totalWeight
-   float additionalFee
-   Date orderDate
-   String description
-   String status
}

class Product{
-   int id
-   String name
-   String description
-   float unitaryPrice
-   float unitaryWeight
}

class Invoice{
-   Date orderDate
-   float amount
}

class CreditCard{
-   int creditCardNumber
-   Date validatyDate
-   int CCV
}

Database "1" - - "*" Client : has registered >
Database "1" - - "*" Order : has registered >
Database "1" - - "*" Product : has registered >
Database "1" - - "*" Address : has registered >
Database "1" - - "*" Invoice : has registered >
Database "1" - - "*" Client : has registered >
Database "1" - - "*" CreditCard : has registered >
Order "1" - - "*" Product : has >
Client "0..1" - - "1" User: acts as >
Client "1" - - "1" Order : makes >
Client "1" - - "1" Address : has >
Order "1" - - "1" Address : has >
Invoice "1" - - "1" Order : has >
Invoice "1" - - "*" Product : has >
Invoice "1" - - "*" CreditCard : is payed using >
@enduml

PlantUML version 1.2020.09(Sun May 10 11:51:06 BST 2020)
(GPL source distribution)
Java Runtime: OpenJDK Runtime Environment
JVM: OpenJDK 64-Bit Server VM
Java Version: 11.0.6+8-b520.66
Operating System: Windows 10
Default Encoding: Cp1252
Language: pt
Country: PT
--></g></svg>