<?xml version="1.0" encoding="UTF-8" standalone="no"?><svg xmlns="http://www.w3.org/2000/svg" xmlns:xlink="http://www.w3.org/1999/xlink" contentScriptType="application/ecmascript" contentStyleType="text/css" height="1261px" preserveAspectRatio="none" style="width:1831px;height:1261px;" version="1.1" viewBox="0 0 1831 1261" width="1831px" zoomAndPan="magnify"><defs><filter height="300%" id="f16z4ngwwu5ytf" width="300%" x="-1" y="-1"><feGaussianBlur result="blurOut" stdDeviation="2.0"/><feColorMatrix in="blurOut" result="blurOut2" type="matrix" values="0 0 0 0 0 0 0 0 0 0 0 0 0 0 0 0 0 0 .4 0"/><feOffset dx="4.0" dy="4.0" in="blurOut2" result="blurOut3"/><feBlend in="SourceGraphic" in2="blurOut3" mode="normal"/></filter></defs><g><!--MD5=[9681dc6e01e10c6b4fe06895ae94f592]
cluster UI--><polygon fill="#DDDDDD" filter="url(#f16z4ngwwu5ytf)" points="189,24,209,24,216,47.6094,355,47.6094,355,144,189,144,189,24" style="stroke: #000000; stroke-width: 1.5;"/><line style="stroke: #000000; stroke-width: 1.5;" x1="189" x2="216" y1="47.6094" y2="47.6094"/><text fill="#000000" font-family="sans-serif" font-size="14" font-weight="bold" lengthAdjust="spacingAndGlyphs" textLength="14" x="193" y="40.5332">UI</text><!--MD5=[1f2cfc53d9d308f53762fd0fcbaa4873]
cluster Controller--><polygon fill="#DDDDDD" filter="url(#f16z4ngwwu5ytf)" points="22,184,99,184,106,207.6094,522,207.6094,522,578.5,22,578.5,22,184" style="stroke: #000000; stroke-width: 1.5;"/><line style="stroke: #000000; stroke-width: 1.5;" x1="22" x2="106" y1="207.6094" y2="207.6094"/><text fill="#000000" font-family="sans-serif" font-size="14" font-weight="bold" lengthAdjust="spacingAndGlyphs" textLength="71" x="26" y="200.5332">Controller</text><!--MD5=[15636c1ca4a123c16a2a1a8e90aca7a9]
cluster Model--><polygon fill="#DDDDDD" filter="url(#f16z4ngwwu5ytf)" points="546,373,596,373,603,396.6094,1245,396.6094,1245,1249,546,1249,546,373" style="stroke: #000000; stroke-width: 1.5;"/><line style="stroke: #000000; stroke-width: 1.5;" x1="546" x2="603" y1="396.6094" y2="396.6094"/><text fill="#000000" font-family="sans-serif" font-size="14" font-weight="bold" lengthAdjust="spacingAndGlyphs" textLength="44" x="550" y="389.5332">Model</text><!--MD5=[9dd75fd92da113d30380b27734fd2f01]
cluster Service--><polygon fill="#DDDDDD" filter="url(#f16z4ngwwu5ytf)" points="678,417,738,417,745,440.6094,1221,440.6094,1221,592,678,592,678,417" style="stroke: #000000; stroke-width: 1.5;"/><line style="stroke: #000000; stroke-width: 1.5;" x1="678" x2="745" y1="440.6094" y2="440.6094"/><text fill="#000000" font-family="sans-serif" font-size="14" font-weight="bold" lengthAdjust="spacingAndGlyphs" textLength="54" x="682" y="433.5332">Service</text><!--MD5=[f21b1f164e99c6b37934f23ad048ad54]
cluster Data--><polygon fill="#DDDDDD" filter="url(#f16z4ngwwu5ytf)" points="1269,177,1306,177,1313,200.6094,1809,200.6094,1809,592,1269,592,1269,177" style="stroke: #000000; stroke-width: 1.5;"/><line style="stroke: #000000; stroke-width: 1.5;" x1="1269" x2="1313" y1="200.6094" y2="200.6094"/><text fill="#000000" font-family="sans-serif" font-size="14" font-weight="bold" lengthAdjust="spacingAndGlyphs" textLength="31" x="1273" y="193.5332">Data</text><!--MD5=[1dccaa194489f6479f13a7c9be473604]
class GenerateInvoiceUI--><rect fill="#FEFECE" filter="url(#f16z4ngwwu5ytf)" height="48" id="GenerateInvoiceUI" style="stroke: #A80036; stroke-width: 1.5;" width="133" x="205.5" y="80"/><ellipse cx="220.5" cy="96" fill="#ADD1B2" rx="11" ry="11" style="stroke: #A80036; stroke-width: 1.0;"/><path d="M222.5,92.5 Q222.7031,92 222.9375,91.75 Q223.1719,91.5 223.4375,91.5 Q223.9063,91.5 224.2031,91.7813 Q224.5,92.0625 224.5,92.7188 L224.5,94.2813 Q224.5,94.9375 224.2188,95.2188 Q223.9375,95.5 223.5,95.5 Q223.1094,95.5 222.8594,95.3281 Q222.6094,95.1563 222.5,94.7031 Q222.4531,94.3906 222.2813,94.2188 Q221.9688,93.8906 221.4063,93.7031 Q220.8438,93.5 220.2813,93.5 Q219.5781,93.5 218.9844,93.7813 Q218.4063,94.0625 217.9531,94.6875 Q217.5,95.3125 217.5,96.1719 L217.5,97.0938 Q217.5,98.125 218.3438,98.8125 Q219.1875,99.5 220.6875,99.5 Q221.5781,99.5 222.2031,99.2969 Q222.5625,99.1875 222.9688,98.8281 Q223.2344,98.625 223.375,98.5625 Q223.5156,98.5 223.6875,98.5 Q224.0156,98.5 224.25,98.7656 Q224.5,99.0156 224.5,99.375 Q224.5,99.7188 224.1563,100.125 Q223.6563,100.7188 222.8594,101.0469 Q221.8125,101.5 220.5313,101.5 Q219.0313,101.5 217.8281,100.9063 Q216.8594,100.4375 216.1719,99.4219 Q215.5,98.4063 215.5,97.2031 L215.5,96.1094 Q215.5,94.8594 216.0938,93.7656 Q216.7031,92.6719 217.75,92.0938 Q218.8125,91.5 220,91.5 Q220.7188,91.5 221.3438,91.75 Q221.9688,92 222.5,92.5 Z "/><text fill="#000000" font-family="sans-serif" font-size="12" lengthAdjust="spacingAndGlyphs" textLength="101" x="234.5" y="100.9102">GenerateInvoiceUI</text><line style="stroke: #A80036; stroke-width: 1.5;" x1="206.5" x2="337.5" y1="112" y2="112"/><line style="stroke: #A80036; stroke-width: 1.5;" x1="206.5" x2="337.5" y1="120" y2="120"/><!--MD5=[fa1e3283224feb76407c84b7e90ed808]
entity Database--><path d="M1261.5,701 C1261.5,691 1302,691 1302,691 C1302,691 1342.5,691 1342.5,701 L1342.5,727.6094 C1342.5,737.6094 1302,737.6094 1302,737.6094 C1302,737.6094 1261.5,737.6094 1261.5,727.6094 L1261.5,701 " fill="#FFFFFF" filter="url(#f16z4ngwwu5ytf)" style="stroke: #000000; stroke-width: 1.5;"/><path d="M1261.5,701 C1261.5,711 1302,711 1302,711 C1302,711 1342.5,711 1342.5,701 " fill="none" style="stroke: #000000; stroke-width: 1.5;"/><text fill="#000000" font-family="sans-serif" font-size="14" lengthAdjust="spacingAndGlyphs" textLength="61" x="1271.5" y="729.5332">Database</text><!--MD5=[3289848d71879b0f734b9b16b9111738]
class GenerateInvoiceController--><rect fill="#FEFECE" filter="url(#f16z4ngwwu5ytf)" height="61.8359" id="GenerateInvoiceController" style="stroke: #A80036; stroke-width: 1.5;" width="467" x="38.5" y="240"/><ellipse cx="196.25" cy="256" fill="#ADD1B2" rx="11" ry="11" style="stroke: #A80036; stroke-width: 1.0;"/><path d="M198.25,252.5 Q198.4531,252 198.6875,251.75 Q198.9219,251.5 199.1875,251.5 Q199.6563,251.5 199.9531,251.7813 Q200.25,252.0625 200.25,252.7188 L200.25,254.2813 Q200.25,254.9375 199.9688,255.2188 Q199.6875,255.5 199.25,255.5 Q198.8594,255.5 198.6094,255.3281 Q198.3594,255.1563 198.25,254.7031 Q198.2031,254.3906 198.0313,254.2188 Q197.7188,253.8906 197.1563,253.7031 Q196.5938,253.5 196.0313,253.5 Q195.3281,253.5 194.7344,253.7813 Q194.1563,254.0625 193.7031,254.6875 Q193.25,255.3125 193.25,256.1719 L193.25,257.0938 Q193.25,258.125 194.0938,258.8125 Q194.9375,259.5 196.4375,259.5 Q197.3281,259.5 197.9531,259.2969 Q198.3125,259.1875 198.7188,258.8281 Q198.9844,258.625 199.125,258.5625 Q199.2656,258.5 199.4375,258.5 Q199.7656,258.5 200,258.7656 Q200.25,259.0156 200.25,259.375 Q200.25,259.7188 199.9063,260.125 Q199.4063,260.7188 198.6094,261.0469 Q197.5625,261.5 196.2813,261.5 Q194.7813,261.5 193.5781,260.9063 Q192.6094,260.4375 191.9219,259.4219 Q191.25,258.4063 191.25,257.2031 L191.25,256.1094 Q191.25,254.8594 191.8438,253.7656 Q192.4531,252.6719 193.5,252.0938 Q194.5625,251.5 195.75,251.5 Q196.4688,251.5 197.0938,251.75 Q197.7188,252 198.25,252.5 Z "/><text fill="#000000" font-family="sans-serif" font-size="12" lengthAdjust="spacingAndGlyphs" textLength="143" x="216.75" y="260.9102">GenerateInvoiceController</text><line style="stroke: #A80036; stroke-width: 1.5;" x1="39.5" x2="504.5" y1="272" y2="272"/><line style="stroke: #A80036; stroke-width: 1.5;" x1="39.5" x2="504.5" y1="280" y2="280"/><text fill="#000000" font-family="sans-serif" font-size="11" lengthAdjust="spacingAndGlyphs" textLength="455" x="44.5" y="295.4189">+registerNewUser(name,email,password,address,gpsLocation,creditCardNr,validityDate,CCV)</text><!--MD5=[e45a4727c47b726c25e081782e8bc183]
class ApplicationPOT--><rect fill="#FEFECE" filter="url(#f16z4ngwwu5ytf)" height="75.6719" id="ApplicationPOT" style="stroke: #A80036; stroke-width: 1.5;" width="116" x="174" y="486.5"/><ellipse cx="189" cy="502.5" fill="#ADD1B2" rx="11" ry="11" style="stroke: #A80036; stroke-width: 1.0;"/><path d="M191,499 Q191.2031,498.5 191.4375,498.25 Q191.6719,498 191.9375,498 Q192.4063,498 192.7031,498.2813 Q193,498.5625 193,499.2188 L193,500.7813 Q193,501.4375 192.7188,501.7188 Q192.4375,502 192,502 Q191.6094,502 191.3594,501.8281 Q191.1094,501.6563 191,501.2031 Q190.9531,500.8906 190.7813,500.7188 Q190.4688,500.3906 189.9063,500.2031 Q189.3438,500 188.7813,500 Q188.0781,500 187.4844,500.2813 Q186.9063,500.5625 186.4531,501.1875 Q186,501.8125 186,502.6719 L186,503.5938 Q186,504.625 186.8438,505.3125 Q187.6875,506 189.1875,506 Q190.0781,506 190.7031,505.7969 Q191.0625,505.6875 191.4688,505.3281 Q191.7344,505.125 191.875,505.0625 Q192.0156,505 192.1875,505 Q192.5156,505 192.75,505.2656 Q193,505.5156 193,505.875 Q193,506.2188 192.6563,506.625 Q192.1563,507.2188 191.3594,507.5469 Q190.3125,508 189.0313,508 Q187.5313,508 186.3281,507.4063 Q185.3594,506.9375 184.6719,505.9219 Q184,504.9063 184,503.7031 L184,502.6094 Q184,501.3594 184.5938,500.2656 Q185.2031,499.1719 186.25,498.5938 Q187.3125,498 188.5,498 Q189.2188,498 189.8438,498.25 Q190.4688,498.5 191,499 Z "/><text fill="#000000" font-family="sans-serif" font-size="12" lengthAdjust="spacingAndGlyphs" textLength="84" x="203" y="507.4102">ApplicationPOT</text><line style="stroke: #A80036; stroke-width: 1.5;" x1="175" x2="289" y1="518.5" y2="518.5"/><line style="stroke: #A80036; stroke-width: 1.5;" x1="175" x2="289" y1="526.5" y2="526.5"/><text fill="#000000" font-family="sans-serif" font-size="11" lengthAdjust="spacingAndGlyphs" textLength="99" x="180" y="541.9189">+static getInstance()</text><text fill="#000000" font-family="sans-serif" font-size="11" lengthAdjust="spacingAndGlyphs" textLength="68" x="180" y="555.7549">+getPlatform()</text><!--MD5=[c5b08e60048ef1bcd788d24cf324082e]
class UserSession--><rect fill="#FEFECE" filter="url(#f16z4ngwwu5ytf)" height="61.8359" id="UserSession" style="stroke: #A80036; stroke-width: 1.5;" width="116" x="325" y="493.5"/><ellipse cx="344.95" cy="509.5" fill="#ADD1B2" rx="11" ry="11" style="stroke: #A80036; stroke-width: 1.0;"/><path d="M346.95,506 Q347.1531,505.5 347.3875,505.25 Q347.6219,505 347.8875,505 Q348.3563,505 348.6531,505.2813 Q348.95,505.5625 348.95,506.2188 L348.95,507.7813 Q348.95,508.4375 348.6688,508.7188 Q348.3875,509 347.95,509 Q347.5594,509 347.3094,508.8281 Q347.0594,508.6563 346.95,508.2031 Q346.9031,507.8906 346.7313,507.7188 Q346.4188,507.3906 345.8563,507.2031 Q345.2938,507 344.7313,507 Q344.0281,507 343.4344,507.2813 Q342.8563,507.5625 342.4031,508.1875 Q341.95,508.8125 341.95,509.6719 L341.95,510.5938 Q341.95,511.625 342.7938,512.3125 Q343.6375,513 345.1375,513 Q346.0281,513 346.6531,512.7969 Q347.0125,512.6875 347.4188,512.3281 Q347.6844,512.125 347.825,512.0625 Q347.9656,512 348.1375,512 Q348.4656,512 348.7,512.2656 Q348.95,512.5156 348.95,512.875 Q348.95,513.2188 348.6063,513.625 Q348.1063,514.2188 347.3094,514.5469 Q346.2625,515 344.9813,515 Q343.4813,515 342.2781,514.4063 Q341.3094,513.9375 340.6219,512.9219 Q339.95,511.9063 339.95,510.7031 L339.95,509.6094 Q339.95,508.3594 340.5438,507.2656 Q341.1531,506.1719 342.2,505.5938 Q343.2625,505 344.45,505 Q345.1688,505 345.7938,505.25 Q346.4188,505.5 346.95,506 Z "/><text fill="#000000" font-family="sans-serif" font-size="12" lengthAdjust="spacingAndGlyphs" textLength="73" x="360.05" y="514.4102">UserSession</text><line style="stroke: #A80036; stroke-width: 1.5;" x1="326" x2="440" y1="525.5" y2="525.5"/><line style="stroke: #A80036; stroke-width: 1.5;" x1="326" x2="440" y1="533.5" y2="533.5"/><text fill="#000000" font-family="sans-serif" font-size="11" lengthAdjust="spacingAndGlyphs" textLength="104" x="331" y="548.9189">+getCurrentSession()</text><!--MD5=[3fd616f346a44cd59a91eb10b19e157c]
class User--><rect fill="#FEFECE" filter="url(#f16z4ngwwu5ytf)" height="89.5078" id="User" style="stroke: #A80036; stroke-width: 1.5;" width="97" x="562.5" y="479.5"/><ellipse cx="595.05" cy="495.5" fill="#A9DCDF" rx="11" ry="11" style="stroke: #A80036; stroke-width: 1.0;"/><path d="M596.8,497 L593.5031,497 L593.0656,498 L593.0656,498 L593.5344,498 L594.05,498.625 L594.05,499 L594.05,499.375 L593.5344,500 L593.0656,500 L591.175,500 L590.5656,500 L590.05,499.375 L590.05,499 L590.05,498.625 L590.5656,498 L591.175,498 L593.4875,492 L592.6125,492 L591.5656,492 L591.05,491.375 L591.05,491 L591.05,490.625 L591.5656,490 L592.6125,490 L596.2844,490 L598.9719,498 L599.5344,498 L599.5344,498 L600.05,498.625 L600.05,499 L600.05,499.375 L599.5344,500 L598.9719,500 L597.0813,500 L596.5656,500 L596.05,499.375 L596.05,499 L596.05,498.625 L596.5656,498 L597.0813,498 L597.0813,498 L596.8,497 Z M596.2531,495 L595.05,491.4219 L594.0188,495 L596.2531,495 Z "/><text fill="#000000" font-family="sans-serif" font-size="12" font-style="italic" lengthAdjust="spacingAndGlyphs" textLength="26" x="612.95" y="500.4102">User</text><line style="stroke: #A80036; stroke-width: 1.5;" x1="563.5" x2="658.5" y1="511.5" y2="511.5"/><text fill="#000000" font-family="sans-serif" font-size="11" lengthAdjust="spacingAndGlyphs" textLength="59" x="568.5" y="526.9189">-String email</text><text fill="#000000" font-family="sans-serif" font-size="11" lengthAdjust="spacingAndGlyphs" textLength="85" x="568.5" y="540.7549">-String password</text><text fill="#000000" font-family="sans-serif" font-size="11" lengthAdjust="spacingAndGlyphs" textLength="61" x="568.5" y="554.5908">-String name</text><line style="stroke: #A80036; stroke-width: 1.5;" x1="563.5" x2="658.5" y1="561.0078" y2="561.0078"/><!--MD5=[ed6624c6556d5e7b1bd23032162d20b7]
class Client--><rect fill="#FEFECE" filter="url(#f16z4ngwwu5ytf)" height="117.1797" id="Client" style="stroke: #A80036; stroke-width: 1.5;" width="126" x="676" y="656"/><ellipse cx="718.9" cy="672" fill="#ADD1B2" rx="11" ry="11" style="stroke: #A80036; stroke-width: 1.0;"/><path d="M720.9,668.5 Q721.1031,668 721.3375,667.75 Q721.5719,667.5 721.8375,667.5 Q722.3063,667.5 722.6031,667.7813 Q722.9,668.0625 722.9,668.7188 L722.9,670.2813 Q722.9,670.9375 722.6188,671.2188 Q722.3375,671.5 721.9,671.5 Q721.5094,671.5 721.2594,671.3281 Q721.0094,671.1563 720.9,670.7031 Q720.8531,670.3906 720.6813,670.2188 Q720.3688,669.8906 719.8063,669.7031 Q719.2438,669.5 718.6813,669.5 Q717.9781,669.5 717.3844,669.7813 Q716.8063,670.0625 716.3531,670.6875 Q715.9,671.3125 715.9,672.1719 L715.9,673.0938 Q715.9,674.125 716.7438,674.8125 Q717.5875,675.5 719.0875,675.5 Q719.9781,675.5 720.6031,675.2969 Q720.9625,675.1875 721.3688,674.8281 Q721.6344,674.625 721.775,674.5625 Q721.9156,674.5 722.0875,674.5 Q722.4156,674.5 722.65,674.7656 Q722.9,675.0156 722.9,675.375 Q722.9,675.7188 722.5563,676.125 Q722.0563,676.7188 721.2594,677.0469 Q720.2125,677.5 718.9313,677.5 Q717.4313,677.5 716.2281,676.9063 Q715.2594,676.4375 714.5719,675.4219 Q713.9,674.4063 713.9,673.2031 L713.9,672.1094 Q713.9,670.8594 714.4938,669.7656 Q715.1031,668.6719 716.15,668.0938 Q717.2125,667.5 718.4,667.5 Q719.1188,667.5 719.7438,667.75 Q720.3688,668 720.9,668.5 Z "/><text fill="#000000" font-family="sans-serif" font-size="12" lengthAdjust="spacingAndGlyphs" textLength="32" x="739.1" y="676.9102">Client</text><line style="stroke: #A80036; stroke-width: 1.5;" x1="677" x2="801" y1="688" y2="688"/><text fill="#000000" font-family="sans-serif" font-size="11" lengthAdjust="spacingAndGlyphs" textLength="45" x="682" y="703.4189">-int IBAN;</text><text fill="#000000" font-family="sans-serif" font-size="11" lengthAdjust="spacingAndGlyphs" textLength="114" x="682" y="717.2549">-long creditCardNumber</text><text fill="#000000" font-family="sans-serif" font-size="11" lengthAdjust="spacingAndGlyphs" textLength="89" x="682" y="731.0908">-Address address</text><text fill="#000000" font-family="sans-serif" font-size="11" lengthAdjust="spacingAndGlyphs" textLength="73" x="682" y="744.9268">-int validityDate</text><text fill="#000000" font-family="sans-serif" font-size="11" lengthAdjust="spacingAndGlyphs" textLength="40" x="682" y="758.7627">-int CCV</text><line style="stroke: #A80036; stroke-width: 1.5;" x1="677" x2="801" y1="765.1797" y2="765.1797"/><!--MD5=[0f39e4cb6f03951afbf6d14bd2505654]
class Address--><rect fill="#FEFECE" filter="url(#f16z4ngwwu5ytf)" height="144.8516" id="Address" style="stroke: #A80036; stroke-width: 1.5;" width="106" x="819" y="1088"/><ellipse cx="846.6" cy="1104" fill="#ADD1B2" rx="11" ry="11" style="stroke: #A80036; stroke-width: 1.0;"/><path d="M848.6,1100.5 Q848.8031,1100 849.0375,1099.75 Q849.2719,1099.5 849.5375,1099.5 Q850.0063,1099.5 850.3031,1099.7813 Q850.6,1100.0625 850.6,1100.7188 L850.6,1102.2813 Q850.6,1102.9375 850.3188,1103.2188 Q850.0375,1103.5 849.6,1103.5 Q849.2094,1103.5 848.9594,1103.3281 Q848.7094,1103.1563 848.6,1102.7031 Q848.5531,1102.3906 848.3813,1102.2188 Q848.0688,1101.8906 847.5063,1101.7031 Q846.9438,1101.5 846.3813,1101.5 Q845.6781,1101.5 845.0844,1101.7813 Q844.5063,1102.0625 844.0531,1102.6875 Q843.6,1103.3125 843.6,1104.1719 L843.6,1105.0938 Q843.6,1106.125 844.4438,1106.8125 Q845.2875,1107.5 846.7875,1107.5 Q847.6781,1107.5 848.3031,1107.2969 Q848.6625,1107.1875 849.0688,1106.8281 Q849.3344,1106.625 849.475,1106.5625 Q849.6156,1106.5 849.7875,1106.5 Q850.1156,1106.5 850.35,1106.7656 Q850.6,1107.0156 850.6,1107.375 Q850.6,1107.7188 850.2563,1108.125 Q849.7563,1108.7188 848.9594,1109.0469 Q847.9125,1109.5 846.6313,1109.5 Q845.1313,1109.5 843.9281,1108.9063 Q842.9594,1108.4375 842.2719,1107.4219 Q841.6,1106.4063 841.6,1105.2031 L841.6,1104.1094 Q841.6,1102.8594 842.1938,1101.7656 Q842.8031,1100.6719 843.85,1100.0938 Q844.9125,1099.5 846.1,1099.5 Q846.8188,1099.5 847.4438,1099.75 Q848.0688,1100 848.6,1100.5 Z "/><text fill="#000000" font-family="sans-serif" font-size="12" lengthAdjust="spacingAndGlyphs" textLength="46" x="863.4" y="1108.9102">Address</text><line style="stroke: #A80036; stroke-width: 1.5;" x1="820" x2="924" y1="1120" y2="1120"/><text fill="#000000" font-family="sans-serif" font-size="11" lengthAdjust="spacingAndGlyphs" textLength="90" x="825" y="1135.4189">-String streetName</text><text fill="#000000" font-family="sans-serif" font-size="11" lengthAdjust="spacingAndGlyphs" textLength="94" x="825" y="1149.2549">-String doorNumber</text><text fill="#000000" font-family="sans-serif" font-size="11" lengthAdjust="spacingAndGlyphs" textLength="89" x="825" y="1163.0908">-String postalCode</text><text fill="#000000" font-family="sans-serif" font-size="11" lengthAdjust="spacingAndGlyphs" textLength="68" x="825" y="1176.9268">-String locality</text><text fill="#000000" font-family="sans-serif" font-size="11" lengthAdjust="spacingAndGlyphs" textLength="72" x="825" y="1190.7627">-String country</text><text fill="#000000" font-family="sans-serif" font-size="11" lengthAdjust="spacingAndGlyphs" textLength="71" x="825" y="1204.5986">-float longitude</text><text fill="#000000" font-family="sans-serif" font-size="11" lengthAdjust="spacingAndGlyphs" textLength="62" x="825" y="1218.4346">-float latitude</text><line style="stroke: #A80036; stroke-width: 1.5;" x1="820" x2="924" y1="1224.8516" y2="1224.8516"/><!--MD5=[cf4d6237fcae255cd2e1656cf84a30e2]
class Order--><rect fill="#FEFECE" filter="url(#f16z4ngwwu5ytf)" height="158.6875" id="Order" style="stroke: #A80036; stroke-width: 1.5;" width="191" x="776.5" y="851"/><ellipse cx="852.25" cy="867" fill="#ADD1B2" rx="11" ry="11" style="stroke: #A80036; stroke-width: 1.0;"/><path d="M854.25,863.5 Q854.4531,863 854.6875,862.75 Q854.9219,862.5 855.1875,862.5 Q855.6563,862.5 855.9531,862.7813 Q856.25,863.0625 856.25,863.7188 L856.25,865.2813 Q856.25,865.9375 855.9688,866.2188 Q855.6875,866.5 855.25,866.5 Q854.8594,866.5 854.6094,866.3281 Q854.3594,866.1563 854.25,865.7031 Q854.2031,865.3906 854.0313,865.2188 Q853.7188,864.8906 853.1563,864.7031 Q852.5938,864.5 852.0313,864.5 Q851.3281,864.5 850.7344,864.7813 Q850.1563,865.0625 849.7031,865.6875 Q849.25,866.3125 849.25,867.1719 L849.25,868.0938 Q849.25,869.125 850.0938,869.8125 Q850.9375,870.5 852.4375,870.5 Q853.3281,870.5 853.9531,870.2969 Q854.3125,870.1875 854.7188,869.8281 Q854.9844,869.625 855.125,869.5625 Q855.2656,869.5 855.4375,869.5 Q855.7656,869.5 856,869.7656 Q856.25,870.0156 856.25,870.375 Q856.25,870.7188 855.9063,871.125 Q855.4063,871.7188 854.6094,872.0469 Q853.5625,872.5 852.2813,872.5 Q850.7813,872.5 849.5781,871.9063 Q848.6094,871.4375 847.9219,870.4219 Q847.25,869.4063 847.25,868.2031 L847.25,867.1094 Q847.25,865.8594 847.8438,864.7656 Q848.4531,863.6719 849.5,863.0938 Q850.5625,862.5 851.75,862.5 Q852.4688,862.5 853.0938,862.75 Q853.7188,863 854.25,863.5 Z "/><text fill="#000000" font-family="sans-serif" font-size="12" lengthAdjust="spacingAndGlyphs" textLength="31" x="872.75" y="871.9102">Order</text><line style="stroke: #A80036; stroke-width: 1.5;" x1="777.5" x2="966.5" y1="883" y2="883"/><text fill="#000000" font-family="sans-serif" font-size="11" lengthAdjust="spacingAndGlyphs" textLength="26" x="782.5" y="898.4189">-int id</text><text fill="#000000" font-family="sans-serif" font-size="11" lengthAdjust="spacingAndGlyphs" textLength="63" x="782.5" y="912.2549">-float amount</text><text fill="#000000" font-family="sans-serif" font-size="11" lengthAdjust="spacingAndGlyphs" textLength="81" x="782.5" y="926.0908">-float totalWeight</text><text fill="#000000" font-family="sans-serif" font-size="11" lengthAdjust="spacingAndGlyphs" textLength="91" x="782.5" y="939.9268">-float additionalFee</text><text fill="#000000" font-family="sans-serif" font-size="11" lengthAdjust="spacingAndGlyphs" textLength="77" x="782.5" y="953.7627">-Date orderDate</text><text fill="#000000" font-family="sans-serif" font-size="11" lengthAdjust="spacingAndGlyphs" textLength="88" x="782.5" y="967.5986">-String description</text><text fill="#000000" font-family="sans-serif" font-size="11" lengthAdjust="spacingAndGlyphs" textLength="65" x="782.5" y="981.4346">-String status</text><line style="stroke: #A80036; stroke-width: 1.5;" x1="777.5" x2="966.5" y1="987.8516" y2="987.8516"/><text fill="#000000" font-family="sans-serif" font-size="11" lengthAdjust="spacingAndGlyphs" textLength="179" x="782.5" y="1003.2705">+create(date, totalPrice, order, client)</text><!--MD5=[72136138052d025cffdce3c22fbd185f]
class Product--><rect fill="#FEFECE" filter="url(#f16z4ngwwu5ytf)" height="117.1797" id="Product" style="stroke: #A80036; stroke-width: 1.5;" width="106" x="985" y="1102"/><ellipse cx="1014.4" cy="1118" fill="#ADD1B2" rx="11" ry="11" style="stroke: #A80036; stroke-width: 1.0;"/><path d="M1016.4,1114.5 Q1016.6031,1114 1016.8375,1113.75 Q1017.0719,1113.5 1017.3375,1113.5 Q1017.8063,1113.5 1018.1031,1113.7813 Q1018.4,1114.0625 1018.4,1114.7188 L1018.4,1116.2813 Q1018.4,1116.9375 1018.1188,1117.2188 Q1017.8375,1117.5 1017.4,1117.5 Q1017.0094,1117.5 1016.7594,1117.3281 Q1016.5094,1117.1563 1016.4,1116.7031 Q1016.3531,1116.3906 1016.1813,1116.2188 Q1015.8688,1115.8906 1015.3063,1115.7031 Q1014.7438,1115.5 1014.1813,1115.5 Q1013.4781,1115.5 1012.8844,1115.7813 Q1012.3063,1116.0625 1011.8531,1116.6875 Q1011.4,1117.3125 1011.4,1118.1719 L1011.4,1119.0938 Q1011.4,1120.125 1012.2438,1120.8125 Q1013.0875,1121.5 1014.5875,1121.5 Q1015.4781,1121.5 1016.1031,1121.2969 Q1016.4625,1121.1875 1016.8688,1120.8281 Q1017.1344,1120.625 1017.275,1120.5625 Q1017.4156,1120.5 1017.5875,1120.5 Q1017.9156,1120.5 1018.15,1120.7656 Q1018.4,1121.0156 1018.4,1121.375 Q1018.4,1121.7188 1018.0563,1122.125 Q1017.5563,1122.7188 1016.7594,1123.0469 Q1015.7125,1123.5 1014.4313,1123.5 Q1012.9313,1123.5 1011.7281,1122.9063 Q1010.7594,1122.4375 1010.0719,1121.4219 Q1009.4,1120.4063 1009.4,1119.2031 L1009.4,1118.1094 Q1009.4,1116.8594 1009.9938,1115.7656 Q1010.6031,1114.6719 1011.65,1114.0938 Q1012.7125,1113.5 1013.9,1113.5 Q1014.6188,1113.5 1015.2438,1113.75 Q1015.8688,1114 1016.4,1114.5 Z "/><text fill="#000000" font-family="sans-serif" font-size="12" lengthAdjust="spacingAndGlyphs" textLength="42" x="1031.6" y="1122.9102">Product</text><line style="stroke: #A80036; stroke-width: 1.5;" x1="986" x2="1090" y1="1134" y2="1134"/><text fill="#000000" font-family="sans-serif" font-size="11" lengthAdjust="spacingAndGlyphs" textLength="26" x="991" y="1149.4189">-int id</text><text fill="#000000" font-family="sans-serif" font-size="11" lengthAdjust="spacingAndGlyphs" textLength="61" x="991" y="1163.2549">-String name</text><text fill="#000000" font-family="sans-serif" font-size="11" lengthAdjust="spacingAndGlyphs" textLength="88" x="991" y="1177.0908">-String description</text><text fill="#000000" font-family="sans-serif" font-size="11" lengthAdjust="spacingAndGlyphs" textLength="85" x="991" y="1190.9268">-float unitaryPrice</text><text fill="#000000" font-family="sans-serif" font-size="11" lengthAdjust="spacingAndGlyphs" textLength="94" x="991" y="1204.7627">-float unitaryWeight</text><line style="stroke: #A80036; stroke-width: 1.5;" x1="986" x2="1090" y1="1211.1797" y2="1211.1797"/><!--MD5=[894442645724153f40a9f7a43026dbfc]
class Invoice--><rect fill="#FEFECE" filter="url(#f16z4ngwwu5ytf)" height="75.6719" id="Invoice" style="stroke: #A80036; stroke-width: 1.5;" width="89" x="1030.5" y="676.5"/><ellipse cx="1054.05" cy="692.5" fill="#ADD1B2" rx="11" ry="11" style="stroke: #A80036; stroke-width: 1.0;"/><path d="M1056.05,689 Q1056.2531,688.5 1056.4875,688.25 Q1056.7219,688 1056.9875,688 Q1057.4563,688 1057.7531,688.2813 Q1058.05,688.5625 1058.05,689.2188 L1058.05,690.7813 Q1058.05,691.4375 1057.7688,691.7188 Q1057.4875,692 1057.05,692 Q1056.6594,692 1056.4094,691.8281 Q1056.1594,691.6563 1056.05,691.2031 Q1056.0031,690.8906 1055.8313,690.7188 Q1055.5188,690.3906 1054.9563,690.2031 Q1054.3938,690 1053.8313,690 Q1053.1281,690 1052.5344,690.2813 Q1051.9563,690.5625 1051.5031,691.1875 Q1051.05,691.8125 1051.05,692.6719 L1051.05,693.5938 Q1051.05,694.625 1051.8938,695.3125 Q1052.7375,696 1054.2375,696 Q1055.1281,696 1055.7531,695.7969 Q1056.1125,695.6875 1056.5188,695.3281 Q1056.7844,695.125 1056.925,695.0625 Q1057.0656,695 1057.2375,695 Q1057.5656,695 1057.8,695.2656 Q1058.05,695.5156 1058.05,695.875 Q1058.05,696.2188 1057.7063,696.625 Q1057.2063,697.2188 1056.4094,697.5469 Q1055.3625,698 1054.0813,698 Q1052.5813,698 1051.3781,697.4063 Q1050.4094,696.9375 1049.7219,695.9219 Q1049.05,694.9063 1049.05,693.7031 L1049.05,692.6094 Q1049.05,691.3594 1049.6438,690.2656 Q1050.2531,689.1719 1051.3,688.5938 Q1052.3625,688 1053.55,688 Q1054.2688,688 1054.8938,688.25 Q1055.5188,688.5 1056.05,689 Z "/><text fill="#000000" font-family="sans-serif" font-size="12" lengthAdjust="spacingAndGlyphs" textLength="38" x="1069.95" y="697.4102">Invoice</text><line style="stroke: #A80036; stroke-width: 1.5;" x1="1031.5" x2="1118.5" y1="708.5" y2="708.5"/><text fill="#000000" font-family="sans-serif" font-size="11" lengthAdjust="spacingAndGlyphs" textLength="77" x="1036.5" y="723.9189">-Date orderDate</text><text fill="#000000" font-family="sans-serif" font-size="11" lengthAdjust="spacingAndGlyphs" textLength="63" x="1036.5" y="737.7549">-float amount</text><line style="stroke: #A80036; stroke-width: 1.5;" x1="1031.5" x2="1118.5" y1="744.1719" y2="744.1719"/><!--MD5=[91d4151b6d4c9a3d01b6d84b2458eece]
class CreditCard--><rect fill="#FEFECE" filter="url(#f16z4ngwwu5ytf)" height="89.5078" id="CreditCard" style="stroke: #A80036; stroke-width: 1.5;" width="117" x="1110.5" y="885.5"/><ellipse cx="1136.75" cy="901.5" fill="#ADD1B2" rx="11" ry="11" style="stroke: #A80036; stroke-width: 1.0;"/><path d="M1138.75,898 Q1138.9531,897.5 1139.1875,897.25 Q1139.4219,897 1139.6875,897 Q1140.1563,897 1140.4531,897.2813 Q1140.75,897.5625 1140.75,898.2188 L1140.75,899.7813 Q1140.75,900.4375 1140.4688,900.7188 Q1140.1875,901 1139.75,901 Q1139.3594,901 1139.1094,900.8281 Q1138.8594,900.6563 1138.75,900.2031 Q1138.7031,899.8906 1138.5313,899.7188 Q1138.2188,899.3906 1137.6563,899.2031 Q1137.0938,899 1136.5313,899 Q1135.8281,899 1135.2344,899.2813 Q1134.6563,899.5625 1134.2031,900.1875 Q1133.75,900.8125 1133.75,901.6719 L1133.75,902.5938 Q1133.75,903.625 1134.5938,904.3125 Q1135.4375,905 1136.9375,905 Q1137.8281,905 1138.4531,904.7969 Q1138.8125,904.6875 1139.2188,904.3281 Q1139.4844,904.125 1139.625,904.0625 Q1139.7656,904 1139.9375,904 Q1140.2656,904 1140.5,904.2656 Q1140.75,904.5156 1140.75,904.875 Q1140.75,905.2188 1140.4063,905.625 Q1139.9063,906.2188 1139.1094,906.5469 Q1138.0625,907 1136.7813,907 Q1135.2813,907 1134.0781,906.4063 Q1133.1094,905.9375 1132.4219,904.9219 Q1131.75,903.9063 1131.75,902.7031 L1131.75,901.6094 Q1131.75,900.3594 1132.3438,899.2656 Q1132.9531,898.1719 1134,897.5938 Q1135.0625,897 1136.25,897 Q1136.9688,897 1137.5938,897.25 Q1138.2188,897.5 1138.75,898 Z "/><text fill="#000000" font-family="sans-serif" font-size="12" lengthAdjust="spacingAndGlyphs" textLength="60" x="1153.25" y="906.4102">CreditCard</text><line style="stroke: #A80036; stroke-width: 1.5;" x1="1111.5" x2="1226.5" y1="917.5" y2="917.5"/><text fill="#000000" font-family="sans-serif" font-size="11" lengthAdjust="spacingAndGlyphs" textLength="105" x="1116.5" y="932.9189">-int creditCardNumber</text><text fill="#000000" font-family="sans-serif" font-size="11" lengthAdjust="spacingAndGlyphs" textLength="88" x="1116.5" y="946.7549">-Date validatyDate</text><text fill="#000000" font-family="sans-serif" font-size="11" lengthAdjust="spacingAndGlyphs" textLength="40" x="1116.5" y="960.5908">-int CCV</text><line style="stroke: #A80036; stroke-width: 1.5;" x1="1111.5" x2="1226.5" y1="967.0078" y2="967.0078"/><!--MD5=[1694002c828dea395e5c4a77f70ed3d4]
class ClientService--><rect fill="#FEFECE" filter="url(#f16z4ngwwu5ytf)" height="75.6719" id="ClientService" style="stroke: #A80036; stroke-width: 1.5;" width="125" x="694.5" y="486.5"/><ellipse cx="718.95" cy="502.5" fill="#ADD1B2" rx="11" ry="11" style="stroke: #A80036; stroke-width: 1.0;"/><path d="M720.95,499 Q721.1531,498.5 721.3875,498.25 Q721.6219,498 721.8875,498 Q722.3563,498 722.6531,498.2813 Q722.95,498.5625 722.95,499.2188 L722.95,500.7813 Q722.95,501.4375 722.6688,501.7188 Q722.3875,502 721.95,502 Q721.5594,502 721.3094,501.8281 Q721.0594,501.6563 720.95,501.2031 Q720.9031,500.8906 720.7313,500.7188 Q720.4188,500.3906 719.8563,500.2031 Q719.2938,500 718.7313,500 Q718.0281,500 717.4344,500.2813 Q716.8563,500.5625 716.4031,501.1875 Q715.95,501.8125 715.95,502.6719 L715.95,503.5938 Q715.95,504.625 716.7938,505.3125 Q717.6375,506 719.1375,506 Q720.0281,506 720.6531,505.7969 Q721.0125,505.6875 721.4188,505.3281 Q721.6844,505.125 721.825,505.0625 Q721.9656,505 722.1375,505 Q722.4656,505 722.7,505.2656 Q722.95,505.5156 722.95,505.875 Q722.95,506.2188 722.6063,506.625 Q722.1063,507.2188 721.3094,507.5469 Q720.2625,508 718.9813,508 Q717.4813,508 716.2781,507.4063 Q715.3094,506.9375 714.6219,505.9219 Q713.95,504.9063 713.95,503.7031 L713.95,502.6094 Q713.95,501.3594 714.5438,500.2656 Q715.1531,499.1719 716.2,498.5938 Q717.2625,498 718.45,498 Q719.1688,498 719.7938,498.25 Q720.4188,498.5 720.95,499 Z "/><text fill="#000000" font-family="sans-serif" font-size="12" lengthAdjust="spacingAndGlyphs" textLength="72" x="735.05" y="507.4102">ClientService</text><line style="stroke: #A80036; stroke-width: 1.5;" x1="695.5" x2="818.5" y1="518.5" y2="518.5"/><line style="stroke: #A80036; stroke-width: 1.5;" x1="695.5" x2="818.5" y1="526.5" y2="526.5"/><text fill="#000000" font-family="sans-serif" font-size="11" lengthAdjust="spacingAndGlyphs" textLength="77" x="700.5" y="541.9189">+ClientService()</text><text fill="#000000" font-family="sans-serif" font-size="11" lengthAdjust="spacingAndGlyphs" textLength="113" x="700.5" y="555.7549">+getUserByEmail(email)</text><!--MD5=[7655a4d4bd54a6253b7313a085dd4122]
class OrderService--><rect fill="#FEFECE" filter="url(#f16z4ngwwu5ytf)" height="75.6719" id="OrderService" style="stroke: #A80036; stroke-width: 1.5;" width="103" x="854.5" y="486.5"/><ellipse cx="869.5" cy="502.5" fill="#ADD1B2" rx="11" ry="11" style="stroke: #A80036; stroke-width: 1.0;"/><path d="M871.5,499 Q871.7031,498.5 871.9375,498.25 Q872.1719,498 872.4375,498 Q872.9063,498 873.2031,498.2813 Q873.5,498.5625 873.5,499.2188 L873.5,500.7813 Q873.5,501.4375 873.2188,501.7188 Q872.9375,502 872.5,502 Q872.1094,502 871.8594,501.8281 Q871.6094,501.6563 871.5,501.2031 Q871.4531,500.8906 871.2813,500.7188 Q870.9688,500.3906 870.4063,500.2031 Q869.8438,500 869.2813,500 Q868.5781,500 867.9844,500.2813 Q867.4063,500.5625 866.9531,501.1875 Q866.5,501.8125 866.5,502.6719 L866.5,503.5938 Q866.5,504.625 867.3438,505.3125 Q868.1875,506 869.6875,506 Q870.5781,506 871.2031,505.7969 Q871.5625,505.6875 871.9688,505.3281 Q872.2344,505.125 872.375,505.0625 Q872.5156,505 872.6875,505 Q873.0156,505 873.25,505.2656 Q873.5,505.5156 873.5,505.875 Q873.5,506.2188 873.1563,506.625 Q872.6563,507.2188 871.8594,507.5469 Q870.8125,508 869.5313,508 Q868.0313,508 866.8281,507.4063 Q865.8594,506.9375 865.1719,505.9219 Q864.5,504.9063 864.5,503.7031 L864.5,502.6094 Q864.5,501.3594 865.0938,500.2656 Q865.7031,499.1719 866.75,498.5938 Q867.8125,498 869,498 Q869.7188,498 870.3438,498.25 Q870.9688,498.5 871.5,499 Z "/><text fill="#000000" font-family="sans-serif" font-size="12" lengthAdjust="spacingAndGlyphs" textLength="71" x="883.5" y="507.4102">OrderService</text><line style="stroke: #A80036; stroke-width: 1.5;" x1="855.5" x2="956.5" y1="518.5" y2="518.5"/><line style="stroke: #A80036; stroke-width: 1.5;" x1="855.5" x2="956.5" y1="526.5" y2="526.5"/><text fill="#000000" font-family="sans-serif" font-size="11" lengthAdjust="spacingAndGlyphs" textLength="79" x="860.5" y="541.9189">+OrderService()</text><text fill="#000000" font-family="sans-serif" font-size="11" lengthAdjust="spacingAndGlyphs" textLength="87" x="860.5" y="555.7549">+getLatestOrder()</text><!--MD5=[a2b308c60193bd02425eb123f7d61e32]
class InvoiceService--><rect fill="#FEFECE" filter="url(#f16z4ngwwu5ytf)" height="103.3438" id="InvoiceService" style="stroke: #A80036; stroke-width: 1.5;" width="212" x="993" y="473"/><ellipse cx="1055.75" cy="489" fill="#ADD1B2" rx="11" ry="11" style="stroke: #A80036; stroke-width: 1.0;"/><path d="M1057.75,485.5 Q1057.9531,485 1058.1875,484.75 Q1058.4219,484.5 1058.6875,484.5 Q1059.1563,484.5 1059.4531,484.7813 Q1059.75,485.0625 1059.75,485.7188 L1059.75,487.2813 Q1059.75,487.9375 1059.4688,488.2188 Q1059.1875,488.5 1058.75,488.5 Q1058.3594,488.5 1058.1094,488.3281 Q1057.8594,488.1563 1057.75,487.7031 Q1057.7031,487.3906 1057.5313,487.2188 Q1057.2188,486.8906 1056.6563,486.7031 Q1056.0938,486.5 1055.5313,486.5 Q1054.8281,486.5 1054.2344,486.7813 Q1053.6563,487.0625 1053.2031,487.6875 Q1052.75,488.3125 1052.75,489.1719 L1052.75,490.0938 Q1052.75,491.125 1053.5938,491.8125 Q1054.4375,492.5 1055.9375,492.5 Q1056.8281,492.5 1057.4531,492.2969 Q1057.8125,492.1875 1058.2188,491.8281 Q1058.4844,491.625 1058.625,491.5625 Q1058.7656,491.5 1058.9375,491.5 Q1059.2656,491.5 1059.5,491.7656 Q1059.75,492.0156 1059.75,492.375 Q1059.75,492.7188 1059.4063,493.125 Q1058.9063,493.7188 1058.1094,494.0469 Q1057.0625,494.5 1055.7813,494.5 Q1054.2813,494.5 1053.0781,493.9063 Q1052.1094,493.4375 1051.4219,492.4219 Q1050.75,491.4063 1050.75,490.2031 L1050.75,489.1094 Q1050.75,487.8594 1051.3438,486.7656 Q1051.9531,485.6719 1053,485.0938 Q1054.0625,484.5 1055.25,484.5 Q1055.9688,484.5 1056.5938,484.75 Q1057.2188,485 1057.75,485.5 Z "/><text fill="#000000" font-family="sans-serif" font-size="12" lengthAdjust="spacingAndGlyphs" textLength="78" x="1076.25" y="493.9102">InvoiceService</text><line style="stroke: #A80036; stroke-width: 1.5;" x1="994" x2="1204" y1="505" y2="505"/><line style="stroke: #A80036; stroke-width: 1.5;" x1="994" x2="1204" y1="513" y2="513"/><text fill="#000000" font-family="sans-serif" font-size="11" lengthAdjust="spacingAndGlyphs" textLength="85" x="999" y="528.4189">+InvoiceService()</text><text fill="#000000" font-family="sans-serif" font-size="11" lengthAdjust="spacingAndGlyphs" textLength="200" x="999" y="542.2549">+addInvoice(date, totalPrice, order, client)</text><text fill="#000000" font-family="sans-serif" font-size="11" lengthAdjust="spacingAndGlyphs" textLength="85" x="999" y="556.0908">+validateInvoice()</text><text fill="#000000" font-family="sans-serif" font-size="11" lengthAdjust="spacingAndGlyphs" textLength="85" x="999" y="569.9268">+registerInvoice()</text><!--MD5=[4b2d61224b33971326a22fe5d809d926]
class DataHandler--><rect fill="#FEFECE" filter="url(#f16z4ngwwu5ytf)" height="75.6719" id="DataHandler" style="stroke: #A80036; stroke-width: 1.5;" width="104" x="1474" y="233"/><ellipse cx="1489.9" cy="249" fill="#ADD1B2" rx="11" ry="11" style="stroke: #A80036; stroke-width: 1.0;"/><path d="M1491.9,245.5 Q1492.1031,245 1492.3375,244.75 Q1492.5719,244.5 1492.8375,244.5 Q1493.3063,244.5 1493.6031,244.7813 Q1493.9,245.0625 1493.9,245.7188 L1493.9,247.2813 Q1493.9,247.9375 1493.6188,248.2188 Q1493.3375,248.5 1492.9,248.5 Q1492.5094,248.5 1492.2594,248.3281 Q1492.0094,248.1563 1491.9,247.7031 Q1491.8531,247.3906 1491.6813,247.2188 Q1491.3688,246.8906 1490.8063,246.7031 Q1490.2438,246.5 1489.6813,246.5 Q1488.9781,246.5 1488.3844,246.7813 Q1487.8063,247.0625 1487.3531,247.6875 Q1486.9,248.3125 1486.9,249.1719 L1486.9,250.0938 Q1486.9,251.125 1487.7438,251.8125 Q1488.5875,252.5 1490.0875,252.5 Q1490.9781,252.5 1491.6031,252.2969 Q1491.9625,252.1875 1492.3688,251.8281 Q1492.6344,251.625 1492.775,251.5625 Q1492.9156,251.5 1493.0875,251.5 Q1493.4156,251.5 1493.65,251.7656 Q1493.9,252.0156 1493.9,252.375 Q1493.9,252.7188 1493.5563,253.125 Q1493.0563,253.7188 1492.2594,254.0469 Q1491.2125,254.5 1489.9313,254.5 Q1488.4313,254.5 1487.2281,253.9063 Q1486.2594,253.4375 1485.5719,252.4219 Q1484.9,251.4063 1484.9,250.2031 L1484.9,249.1094 Q1484.9,247.8594 1485.4938,246.7656 Q1486.1031,245.6719 1487.15,245.0938 Q1488.2125,244.5 1489.4,244.5 Q1490.1188,244.5 1490.7438,244.75 Q1491.3688,245 1491.9,245.5 Z "/><text fill="#000000" font-family="sans-serif" font-size="12" lengthAdjust="spacingAndGlyphs" textLength="70" x="1504.1" y="253.9102">DataHandler</text><line style="stroke: #A80036; stroke-width: 1.5;" x1="1475" x2="1577" y1="265" y2="265"/><line style="stroke: #A80036; stroke-width: 1.5;" x1="1475" x2="1577" y1="273" y2="273"/><text fill="#000000" font-family="sans-serif" font-size="11" lengthAdjust="spacingAndGlyphs" textLength="92" x="1480" y="288.4189">+openConnection()</text><text fill="#000000" font-family="sans-serif" font-size="11" lengthAdjust="spacingAndGlyphs" textLength="52" x="1480" y="302.2549">+closeAll()</text><!--MD5=[754da686d7bb9aed9b7dcea4de3b7227]
class OrderDB--><rect fill="#FEFECE" filter="url(#f16z4ngwwu5ytf)" height="75.6719" id="OrderDB" style="stroke: #A80036; stroke-width: 1.5;" width="99" x="1285.5" y="486.5"/><ellipse cx="1309.05" cy="502.5" fill="#ADD1B2" rx="11" ry="11" style="stroke: #A80036; stroke-width: 1.0;"/><path d="M1311.05,499 Q1311.2531,498.5 1311.4875,498.25 Q1311.7219,498 1311.9875,498 Q1312.4563,498 1312.7531,498.2813 Q1313.05,498.5625 1313.05,499.2188 L1313.05,500.7813 Q1313.05,501.4375 1312.7688,501.7188 Q1312.4875,502 1312.05,502 Q1311.6594,502 1311.4094,501.8281 Q1311.1594,501.6563 1311.05,501.2031 Q1311.0031,500.8906 1310.8313,500.7188 Q1310.5188,500.3906 1309.9563,500.2031 Q1309.3938,500 1308.8313,500 Q1308.1281,500 1307.5344,500.2813 Q1306.9563,500.5625 1306.5031,501.1875 Q1306.05,501.8125 1306.05,502.6719 L1306.05,503.5938 Q1306.05,504.625 1306.8938,505.3125 Q1307.7375,506 1309.2375,506 Q1310.1281,506 1310.7531,505.7969 Q1311.1125,505.6875 1311.5188,505.3281 Q1311.7844,505.125 1311.925,505.0625 Q1312.0656,505 1312.2375,505 Q1312.5656,505 1312.8,505.2656 Q1313.05,505.5156 1313.05,505.875 Q1313.05,506.2188 1312.7063,506.625 Q1312.2063,507.2188 1311.4094,507.5469 Q1310.3625,508 1309.0813,508 Q1307.5813,508 1306.3781,507.4063 Q1305.4094,506.9375 1304.7219,505.9219 Q1304.05,504.9063 1304.05,503.7031 L1304.05,502.6094 Q1304.05,501.3594 1304.6438,500.2656 Q1305.2531,499.1719 1306.3,498.5938 Q1307.3625,498 1308.55,498 Q1309.2688,498 1309.8938,498.25 Q1310.5188,498.5 1311.05,499 Z "/><text fill="#000000" font-family="sans-serif" font-size="12" lengthAdjust="spacingAndGlyphs" textLength="48" x="1324.95" y="507.4102">OrderDB</text><line style="stroke: #A80036; stroke-width: 1.5;" x1="1286.5" x2="1383.5" y1="518.5" y2="518.5"/><line style="stroke: #A80036; stroke-width: 1.5;" x1="1286.5" x2="1383.5" y1="526.5" y2="526.5"/><text fill="#000000" font-family="sans-serif" font-size="11" lengthAdjust="spacingAndGlyphs" textLength="56" x="1291.5" y="541.9189">+OrderDB()</text><text fill="#000000" font-family="sans-serif" font-size="11" lengthAdjust="spacingAndGlyphs" textLength="87" x="1291.5" y="555.7549">+getLatestOrder()</text><!--MD5=[626508efa9364241d3eb528117743d20]
class InvoiceDB--><rect fill="#FEFECE" filter="url(#f16z4ngwwu5ytf)" height="103.3438" id="InvoiceDB" style="stroke: #A80036; stroke-width: 1.5;" width="212" x="1420" y="473"/><ellipse cx="1494.25" cy="489" fill="#ADD1B2" rx="11" ry="11" style="stroke: #A80036; stroke-width: 1.0;"/><path d="M1496.25,485.5 Q1496.4531,485 1496.6875,484.75 Q1496.9219,484.5 1497.1875,484.5 Q1497.6563,484.5 1497.9531,484.7813 Q1498.25,485.0625 1498.25,485.7188 L1498.25,487.2813 Q1498.25,487.9375 1497.9688,488.2188 Q1497.6875,488.5 1497.25,488.5 Q1496.8594,488.5 1496.6094,488.3281 Q1496.3594,488.1563 1496.25,487.7031 Q1496.2031,487.3906 1496.0313,487.2188 Q1495.7188,486.8906 1495.1563,486.7031 Q1494.5938,486.5 1494.0313,486.5 Q1493.3281,486.5 1492.7344,486.7813 Q1492.1563,487.0625 1491.7031,487.6875 Q1491.25,488.3125 1491.25,489.1719 L1491.25,490.0938 Q1491.25,491.125 1492.0938,491.8125 Q1492.9375,492.5 1494.4375,492.5 Q1495.3281,492.5 1495.9531,492.2969 Q1496.3125,492.1875 1496.7188,491.8281 Q1496.9844,491.625 1497.125,491.5625 Q1497.2656,491.5 1497.4375,491.5 Q1497.7656,491.5 1498,491.7656 Q1498.25,492.0156 1498.25,492.375 Q1498.25,492.7188 1497.9063,493.125 Q1497.4063,493.7188 1496.6094,494.0469 Q1495.5625,494.5 1494.2813,494.5 Q1492.7813,494.5 1491.5781,493.9063 Q1490.6094,493.4375 1489.9219,492.4219 Q1489.25,491.4063 1489.25,490.2031 L1489.25,489.1094 Q1489.25,487.8594 1489.8438,486.7656 Q1490.4531,485.6719 1491.5,485.0938 Q1492.5625,484.5 1493.75,484.5 Q1494.4688,484.5 1495.0938,484.75 Q1495.7188,485 1496.25,485.5 Z "/><text fill="#000000" font-family="sans-serif" font-size="12" lengthAdjust="spacingAndGlyphs" textLength="55" x="1514.75" y="493.9102">InvoiceDB</text><line style="stroke: #A80036; stroke-width: 1.5;" x1="1421" x2="1631" y1="505" y2="505"/><line style="stroke: #A80036; stroke-width: 1.5;" x1="1421" x2="1631" y1="513" y2="513"/><text fill="#000000" font-family="sans-serif" font-size="11" lengthAdjust="spacingAndGlyphs" textLength="62" x="1426" y="528.4189">+InvoiceDB()</text><text fill="#000000" font-family="sans-serif" font-size="11" lengthAdjust="spacingAndGlyphs" textLength="200" x="1426" y="542.2549">+addInvoice(date, totalPrice, order, client)</text><text fill="#000000" font-family="sans-serif" font-size="11" lengthAdjust="spacingAndGlyphs" textLength="85" x="1426" y="556.0908">+validateInvoice()</text><text fill="#000000" font-family="sans-serif" font-size="11" lengthAdjust="spacingAndGlyphs" textLength="85" x="1426" y="569.9268">+registerInvoice()</text><!--MD5=[79201099e7ad95730d4f601b46d6ddd1]
class ClientDB--><rect fill="#FEFECE" filter="url(#f16z4ngwwu5ytf)" height="75.6719" id="ClientDB" style="stroke: #A80036; stroke-width: 1.5;" width="125" x="1667.5" y="486.5"/><ellipse cx="1702.3" cy="502.5" fill="#ADD1B2" rx="11" ry="11" style="stroke: #A80036; stroke-width: 1.0;"/><path d="M1704.3,499 Q1704.5031,498.5 1704.7375,498.25 Q1704.9719,498 1705.2375,498 Q1705.7063,498 1706.0031,498.2813 Q1706.3,498.5625 1706.3,499.2188 L1706.3,500.7813 Q1706.3,501.4375 1706.0188,501.7188 Q1705.7375,502 1705.3,502 Q1704.9094,502 1704.6594,501.8281 Q1704.4094,501.6563 1704.3,501.2031 Q1704.2531,500.8906 1704.0813,500.7188 Q1703.7688,500.3906 1703.2063,500.2031 Q1702.6438,500 1702.0813,500 Q1701.3781,500 1700.7844,500.2813 Q1700.2063,500.5625 1699.7531,501.1875 Q1699.3,501.8125 1699.3,502.6719 L1699.3,503.5938 Q1699.3,504.625 1700.1438,505.3125 Q1700.9875,506 1702.4875,506 Q1703.3781,506 1704.0031,505.7969 Q1704.3625,505.6875 1704.7688,505.3281 Q1705.0344,505.125 1705.175,505.0625 Q1705.3156,505 1705.4875,505 Q1705.8156,505 1706.05,505.2656 Q1706.3,505.5156 1706.3,505.875 Q1706.3,506.2188 1705.9563,506.625 Q1705.4563,507.2188 1704.6594,507.5469 Q1703.6125,508 1702.3313,508 Q1700.8313,508 1699.6281,507.4063 Q1698.6594,506.9375 1697.9719,505.9219 Q1697.3,504.9063 1697.3,503.7031 L1697.3,502.6094 Q1697.3,501.3594 1697.8938,500.2656 Q1698.5031,499.1719 1699.55,498.5938 Q1700.6125,498 1701.8,498 Q1702.5188,498 1703.1438,498.25 Q1703.7688,498.5 1704.3,499 Z "/><text fill="#000000" font-family="sans-serif" font-size="12" lengthAdjust="spacingAndGlyphs" textLength="49" x="1720.7" y="507.4102">ClientDB</text><line style="stroke: #A80036; stroke-width: 1.5;" x1="1668.5" x2="1791.5" y1="518.5" y2="518.5"/><line style="stroke: #A80036; stroke-width: 1.5;" x1="1668.5" x2="1791.5" y1="526.5" y2="526.5"/><text fill="#000000" font-family="sans-serif" font-size="11" lengthAdjust="spacingAndGlyphs" textLength="54" x="1673.5" y="541.9189">+ClientDB()</text><text fill="#000000" font-family="sans-serif" font-size="11" lengthAdjust="spacingAndGlyphs" textLength="113" x="1673.5" y="555.7549">+getUserByEmail(email)</text><!--MD5=[2f9070a8678fa3632917e71f4f5307f9]
reverse link DataHandler to InvoiceDB--><path d="M1526,329.227 C1526,372.44 1526,431.195 1526,472.742 " fill="none" id="DataHandler&lt;-InvoiceDB" style="stroke: #A80036; stroke-width: 1.0;"/><polygon fill="none" points="1519,329.11,1526,309.11,1533,329.11,1519,329.11" style="stroke: #A80036; stroke-width: 1.0;"/><!--MD5=[3e68ff64a050c8736bbdec119ca630fc]
reverse link DataHandler to ClientDB--><path d="M1594.57,314.731 C1614.08,329.071 1634.28,346.24 1650,365 C1680.78,401.741 1703.68,452.328 1716.92,486.384 " fill="none" id="DataHandler&lt;-ClientDB" style="stroke: #A80036; stroke-width: 1.0;"/><polygon fill="none" points="1590.42,320.369,1578.09,303.134,1598.47,308.92,1590.42,320.369" style="stroke: #A80036; stroke-width: 1.0;"/><!--MD5=[a70a1ce0b64eb5f63a24e19fe51145d7]
reverse link DataHandler to OrderDB--><path d="M1457.13,313.717 C1437.43,328.105 1417.2,345.555 1402,365 C1373.38,401.596 1354.81,452.214 1344.64,486.317 " fill="none" id="DataHandler&lt;-OrderDB" style="stroke: #A80036; stroke-width: 1.0;"/><polygon fill="none" points="1453.38,307.798,1473.8,302.131,1461.37,319.294,1453.38,307.798" style="stroke: #A80036; stroke-width: 1.0;"/><!--MD5=[a605f9a646bac91c0f1ec4bed5c60b13]
reverse link User to Client--><path d="M652.43,586.35 C667.609,608.645 684.731,633.793 699.717,655.803 " fill="none" id="User&lt;-Client" style="stroke: #A80036; stroke-width: 1.0;"/><polygon fill="none" points="646.48,590.049,641.01,569.578,658.052,582.17,646.48,590.049" style="stroke: #A80036; stroke-width: 1.0;"/><!--MD5=[5c26898e5f896f066407315f529b2504]
link GenerateInvoiceUI to GenerateInvoiceController--><path d="M272,128.29 C272,156.03 272,202.65 272,234.8 " fill="none" id="GenerateInvoiceUI-&gt;GenerateInvoiceController" style="stroke: #A80036; stroke-width: 1.0; stroke-dasharray: 7.0,7.0;"/><polygon fill="#A80036" points="272,239.83,276,230.83,272,234.83,268,230.83,272,239.83" style="stroke: #A80036; stroke-width: 1.0;"/><!--MD5=[17b8c7b04509f84466291cfafba69e02]
link GenerateInvoiceController to ClientService--><path d="M490.476,302.024 C574.578,317.351 658.128,338.432 690,365 C724.995,394.172 742.073,444.834 750.161,481.03 " fill="none" id="GenerateInvoiceController-&gt;ClientService" style="stroke: #A80036; stroke-width: 1.0; stroke-dasharray: 7.0,7.0;"/><polygon fill="#A80036" points="751.29,486.262,753.2995,476.6203,750.2343,481.3747,745.4798,478.3095,751.29,486.262" style="stroke: #A80036; stroke-width: 1.0;"/><!--MD5=[2b4e34085fa28c326878b180e8c6c8ef]
link GenerateInvoiceController to OrderService--><path d="M505.681,287.887 C637.344,301.125 785.482,324.572 837,365 C873.118,393.343 890.709,444.41 899.018,480.922 " fill="none" id="GenerateInvoiceController-&gt;OrderService" style="stroke: #A80036; stroke-width: 1.0; stroke-dasharray: 7.0,7.0;"/><polygon fill="#A80036" points="900.178,486.199,902.154,476.5504,899.1053,481.3154,894.3403,478.2667,900.178,486.199" style="stroke: #A80036; stroke-width: 1.0;"/><!--MD5=[dbc3e9789931405ef78e94a2894c6860]
link GenerateInvoiceController to InvoiceService--><path d="M505.887,282.953 C679.091,294.737 897.847,318.461 975,365 C1015.8,389.61 1048.32,432.981 1069.8,468.14 " fill="none" id="GenerateInvoiceController-&gt;InvoiceService" style="stroke: #A80036; stroke-width: 1.0; stroke-dasharray: 7.0,7.0;"/><polygon fill="#A80036" points="1072.63,472.823,1071.3935,463.0521,1070.0418,468.545,1064.5488,467.1933,1072.63,472.823" style="stroke: #A80036; stroke-width: 1.0;"/><!--MD5=[30f146cbee39bebfa6a3941b9c623469]
link GenerateInvoiceController to ApplicationPOT--><path d="M267.175,302.337 C260.084,346.924 246.818,430.335 238.759,481.002 " fill="none" id="GenerateInvoiceController-&gt;ApplicationPOT" style="stroke: #A80036; stroke-width: 1.0; stroke-dasharray: 7.0,7.0;"/><polygon fill="#A80036" points="237.948,486.104,243.3128,477.8445,238.7338,481.1661,235.4122,476.5872,237.948,486.104" style="stroke: #A80036; stroke-width: 1.0;"/><!--MD5=[cfec298ada7ecd923a2f1ea10aa38a77]
link GenerateInvoiceController to UserSession--><path d="M285.389,302.337 C306.113,349.292 345.84,439.305 367.68,488.788 " fill="none" id="GenerateInvoiceController-&gt;UserSession" style="stroke: #A80036; stroke-width: 1.0; stroke-dasharray: 7.0,7.0;"/><polygon fill="#A80036" points="369.736,493.447,369.762,483.5982,367.7174,488.8726,362.443,486.828,369.736,493.447" style="stroke: #A80036; stroke-width: 1.0;"/><!--MD5=[ac0c33dc67b04049a5a44d8fea0f9b6c]
link Database to Client--><path d="M1284.79,690.761 C1274.61,678.467 1260.65,664.324 1245,656 C1136.95,598.525 1093.14,610.51 971.5,624 C906.985,631.155 888.821,630.804 829,656 C819.983,659.798 810.88,664.498 802.104,669.571 " fill="none" id="Database-Client" style="stroke: #A80036; stroke-width: 1.0;"/><polygon fill="#000000" points="979.5,615.6758,973.5,618.6758,979.5,621.6758,979.5,615.6758" style="stroke: #000000; stroke-width: 1.0;"/><text fill="#000000" font-family="sans-serif" font-size="13" lengthAdjust="spacingAndGlyphs" textLength="82" x="985.5" y="622.4951">has registered</text><text fill="#000000" font-family="sans-serif" font-size="13" lengthAdjust="spacingAndGlyphs" textLength="7" x="1272.4831" y="680.2181">1</text><text fill="#000000" font-family="sans-serif" font-size="13" lengthAdjust="spacingAndGlyphs" textLength="5" x="810.0995" y="660.6259">*</text><!--MD5=[ac0c33dc67b04049a5a44d8fea0f9b6c]
link Database to Client--><path d="M1284.79,690.761 C1274.61,678.467 1260.65,664.324 1245,656 C1136.95,598.525 1093.14,610.51 971.5,624 C906.985,631.155 888.821,630.804 829,656 C819.983,659.798 810.88,664.498 802.104,669.571 " fill="none" id="Database-Client-1" style="stroke: #A80036; stroke-width: 1.0;"/><polygon fill="#000000" points="979.5,615.6758,973.5,618.6758,979.5,621.6758,979.5,615.6758" style="stroke: #000000; stroke-width: 1.0;"/><text fill="#000000" font-family="sans-serif" font-size="13" lengthAdjust="spacingAndGlyphs" textLength="82" x="985.5" y="622.4951">has registered</text><text fill="#000000" font-family="sans-serif" font-size="13" lengthAdjust="spacingAndGlyphs" textLength="7" x="1281.2768" y="680.2181">1</text><text fill="#000000" font-family="sans-serif" font-size="13" lengthAdjust="spacingAndGlyphs" textLength="5" x="810.0995" y="678.5759">*</text><!--MD5=[3105658e3b0e17fcc7b59acd4e6ef463]
link Database to Order--><path d="M1281.53,738.069 C1271.06,749.105 1257.84,762.283 1245,773 C1230.52,785.085 1192.49,813.949 1175,821 C1099.78,851.317 1070.71,821.929 995,851 C985.895,854.496 976.747,858.716 967.774,863.363 " fill="none" id="Database-Order" style="stroke: #A80036; stroke-width: 1.0;"/><polygon fill="#000000" points="1213,810.6758,1207,813.6758,1213,816.6758,1213,810.6758" style="stroke: #000000; stroke-width: 1.0;"/><text fill="#000000" font-family="sans-serif" font-size="13" lengthAdjust="spacingAndGlyphs" textLength="82" x="1219" y="817.4951">has registered</text><text fill="#000000" font-family="sans-serif" font-size="13" lengthAdjust="spacingAndGlyphs" textLength="7" x="1268.9869" y="758.9503">1</text><text fill="#000000" font-family="sans-serif" font-size="13" lengthAdjust="spacingAndGlyphs" textLength="5" x="975.6052" y="854.8971">*</text><!--MD5=[22f0edd2925765a3c38d923b02900659]
link Database to Product--><path d="M1342.69,721.288 C1406.54,732.863 1527.93,765.548 1576,851 C1610.65,912.591 1610.65,948.409 1576,1010 C1527.76,1095.759 1217.73,1139.515 1091.43,1153.957 " fill="none" id="Database-Product" style="stroke: #A80036; stroke-width: 1.0;"/><text fill="#000000" font-family="sans-serif" font-size="13" lengthAdjust="spacingAndGlyphs" textLength="82" x="1602" y="935.9951">has registered</text><polygon fill="#000000" points="1638.5,944.8516,1641.5,950.8516,1644.5,944.8516,1638.5,944.8516" style="stroke: #000000; stroke-width: 1.0;"/><text fill="#000000" font-family="sans-serif" font-size="13" lengthAdjust="spacingAndGlyphs" textLength="7" x="1350.5613" y="718.6333">1</text><text fill="#000000" font-family="sans-serif" font-size="13" lengthAdjust="spacingAndGlyphs" textLength="5" x="1098.9456" y="1149.5094">*</text><!--MD5=[fe65df1e099598e2fce9ebdfea6b3744]
link Database to Address--><path d="M1342.68,729.505 C1384.12,746.403 1440.06,777.996 1423,821 C1380.44,928.255 1343.7,950.234 1245,1010 C1135.23,1076.467 1082.02,1031.103 967,1088 C952.661,1095.093 938.297,1104.444 925.237,1114.037 " fill="none" id="Database-Address" style="stroke: #A80036; stroke-width: 1.0;"/><polygon fill="#000000" points="1417,929.1758,1411,932.1758,1417,935.1758,1417,929.1758" style="stroke: #000000; stroke-width: 1.0;"/><text fill="#000000" font-family="sans-serif" font-size="13" lengthAdjust="spacingAndGlyphs" textLength="82" x="1423" y="935.9951">has registered</text><text fill="#000000" font-family="sans-serif" font-size="13" lengthAdjust="spacingAndGlyphs" textLength="7" x="1350.5496" y="747.164">1</text><text fill="#000000" font-family="sans-serif" font-size="13" lengthAdjust="spacingAndGlyphs" textLength="5" x="933.075" y="1103.9084">*</text><!--MD5=[79ef9072c49a7de144f8667891df3d49]
link Database to Invoice--><path d="M1261.34,714.5 C1221.44,714.5 1160.77,714.5 1119.58,714.5 " fill="none" id="Database-Invoice" style="stroke: #A80036; stroke-width: 1.0;"/><polygon fill="#000000" points="1150,701.1758,1144,704.1758,1150,707.1758,1150,701.1758" style="stroke: #000000; stroke-width: 1.0;"/><text fill="#000000" font-family="sans-serif" font-size="13" lengthAdjust="spacingAndGlyphs" textLength="82" x="1156" y="707.9951">has registered</text><text fill="#000000" font-family="sans-serif" font-size="13" lengthAdjust="spacingAndGlyphs" textLength="7" x="1246.474" y="710.6362">1</text><text fill="#000000" font-family="sans-serif" font-size="13" lengthAdjust="spacingAndGlyphs" textLength="5" x="1127.3776" y="710.7264">*</text><!--MD5=[0d6287e6031f223f446ddfea0960667d]
link Database to CreditCard--><path d="M1310.82,738.177 C1318,760.447 1325.01,794.799 1312,821 C1294.33,856.588 1258.79,883.641 1227.56,901.832 " fill="none" id="Database-CreditCard" style="stroke: #A80036; stroke-width: 1.0;"/><text fill="#000000" font-family="sans-serif" font-size="13" lengthAdjust="spacingAndGlyphs" textLength="82" x="1319" y="817.4951">has registered</text><polygon fill="#000000" points="1355.5,826.3516,1358.5,832.3516,1361.5,826.3516,1355.5,826.3516" style="stroke: #000000; stroke-width: 1.0;"/><text fill="#000000" font-family="sans-serif" font-size="13" lengthAdjust="spacingAndGlyphs" textLength="7" x="1305.0503" y="759.0832">1</text><text fill="#000000" font-family="sans-serif" font-size="13" lengthAdjust="spacingAndGlyphs" textLength="5" x="1235.3833" y="894.6831">*</text><!--MD5=[a26c1e8f966c8ca17fc1e4b16022a20f]
link InvoiceService to Invoice--><path d="M1092.51,576.376 C1088.72,606.064 1083.99,643.079 1080.4,671.166 " fill="none" id="InvoiceService-&gt;Invoice" style="stroke: #A80036; stroke-width: 1.0;"/><polygon fill="#A80036" points="1079.75,676.303,1084.8599,667.8835,1080.3846,671.3434,1076.9246,666.8681,1079.75,676.303" style="stroke: #A80036; stroke-width: 1.0;"/><text fill="#000000" font-family="sans-serif" font-size="13" lengthAdjust="spacingAndGlyphs" textLength="118" x="1090" y="622.4951">manages services of</text><text fill="#000000" font-family="sans-serif" font-size="13" lengthAdjust="spacingAndGlyphs" textLength="7" x="1084.1676" y="597.9175">1</text><text fill="#000000" font-family="sans-serif" font-size="13" lengthAdjust="spacingAndGlyphs" textLength="5" x="1075.1508" y="665.6298">*</text><!--MD5=[d08aa9cf2184aded4942f150a9c9533e]
link InvoiceService to InvoiceDB--><path d="M1142.57,472.801 C1173.89,439.864 1219.24,400.098 1269,382 C1324.55,361.797 1348.2,357.501 1402,382 C1441.13,399.821 1472.71,436.767 1494.2,468.573 " fill="none" id="InvoiceService-&gt;InvoiceDB" style="stroke: #A80036; stroke-width: 1.0;"/><polygon fill="#A80036" points="1497.03,472.823,1495.3766,463.1139,1494.2611,468.6597,1488.7153,467.5441,1497.03,472.823" style="stroke: #A80036; stroke-width: 1.0;"/><text fill="#000000" font-family="sans-serif" font-size="13" lengthAdjust="spacingAndGlyphs" textLength="28" x="1301" y="353.4951">uses</text><text fill="#000000" font-family="sans-serif" font-size="13" lengthAdjust="spacingAndGlyphs" textLength="7" x="1140.9544" y="462.2746">1</text><text fill="#000000" font-family="sans-serif" font-size="13" lengthAdjust="spacingAndGlyphs" textLength="7" x="1485.6668" y="462.2995">1</text><!--MD5=[25822178bb7ccf0ac74068c83bd694ea]
link OrderService to Order--><path d="M884.627,562.91 C877.914,576.639 871.377,592.597 868,608 C858.467,651.483 862.366,765.582 866.659,845.425 " fill="none" id="OrderService-&gt;Order" style="stroke: #A80036; stroke-width: 1.0;"/><polygon fill="#A80036" points="866.943,850.633,870.4484,841.4291,866.6715,845.6404,862.4602,841.8635,866.943,850.633" style="stroke: #A80036; stroke-width: 1.0;"/><text fill="#000000" font-family="sans-serif" font-size="13" lengthAdjust="spacingAndGlyphs" textLength="118" x="865" y="719.9951">manages services of</text><text fill="#000000" font-family="sans-serif" font-size="13" lengthAdjust="spacingAndGlyphs" textLength="7" x="873.8183" y="583.5637">1</text><text fill="#000000" font-family="sans-serif" font-size="13" lengthAdjust="spacingAndGlyphs" textLength="5" x="861.2463" y="840.0585">*</text><!--MD5=[e014bfb9ec9545017a6274519c26a430]
link OrderService to OrderDB--><path d="M912.809,486.354 C921.107,452.401 938.784,404.702 975,382 C1067.64,323.93 1122.46,334.638 1221,382 C1263.77,402.556 1295.51,447.836 1314.5,481.874 " fill="none" id="OrderService-&gt;OrderDB" style="stroke: #A80036; stroke-width: 1.0;"/><polygon fill="#A80036" points="1316.98,486.387,1316.1562,476.5727,1314.5742,482.0038,1309.1431,480.4219,1316.98,486.387" style="stroke: #A80036; stroke-width: 1.0;"/><text fill="#000000" font-family="sans-serif" font-size="13" lengthAdjust="spacingAndGlyphs" textLength="28" x="1107" y="353.4951">uses</text><text fill="#000000" font-family="sans-serif" font-size="13" lengthAdjust="spacingAndGlyphs" textLength="7" x="906.3984" y="475.6899">1</text><text fill="#000000" font-family="sans-serif" font-size="13" lengthAdjust="spacingAndGlyphs" textLength="7" x="1306.1468" y="475.7288">1</text><!--MD5=[0c14ad20ad99024cc361e625c7ea3878]
link ClientService to Client--><path d="M744.276,562.832 C740.124,576.824 736.055,592.973 734,608 C732.119,621.753 731.787,636.598 732.254,650.686 " fill="none" id="ClientService-&gt;Client" style="stroke: #A80036; stroke-width: 1.0;"/><polygon fill="#A80036" points="732.46,655.839,736.0969,646.6862,732.26,650.843,728.1033,647.0062,732.46,655.839" style="stroke: #A80036; stroke-width: 1.0;"/><text fill="#000000" font-family="sans-serif" font-size="13" lengthAdjust="spacingAndGlyphs" textLength="118" x="735" y="622.4951">manages services of</text><text fill="#000000" font-family="sans-serif" font-size="13" lengthAdjust="spacingAndGlyphs" textLength="7" x="734.6903" y="583.7654">1</text><text fill="#000000" font-family="sans-serif" font-size="13" lengthAdjust="spacingAndGlyphs" textLength="5" x="726.3583" y="645.2203">*</text><!--MD5=[6084c45bafb98ee2a46a6fd7dcb03b82]
link ClientService to ClientDB--><path d="M766.6,486.492 C777.452,452.385 798.804,404.36 837,382 C914.958,336.363 1572.04,336.363 1650,382 C1686.41,403.312 1707.51,447.939 1718.8,481.608 " fill="none" id="ClientService-&gt;ClientDB" style="stroke: #A80036; stroke-width: 1.0;"/><polygon fill="#A80036" points="1720.4,486.492,1721.4071,476.6948,1718.8471,481.7392,1713.8027,479.1793,1720.4,486.492" style="stroke: #A80036; stroke-width: 1.0;"/><text fill="#000000" font-family="sans-serif" font-size="13" lengthAdjust="spacingAndGlyphs" textLength="28" x="1348" y="353.4951">uses</text><text fill="#000000" font-family="sans-serif" font-size="13" lengthAdjust="spacingAndGlyphs" textLength="7" x="760.7247" y="475.5671">1</text><text fill="#000000" font-family="sans-serif" font-size="13" lengthAdjust="spacingAndGlyphs" textLength="7" x="1710.9847" y="475.5671">1</text><!--MD5=[121c0a5f78d9c8be647709b07812f151]
link InvoiceDB to Database--><path d="M1465.68,576.128 C1421.1,613.54 1362.54,662.691 1328.9,690.919 " fill="none" id="InvoiceDB-Database" style="stroke: #A80036; stroke-width: 1.0;"/><polygon fill="#000000" points="1436,615.6758,1430,618.6758,1436,621.6758,1436,615.6758" style="stroke: #000000; stroke-width: 1.0;"/><text fill="#000000" font-family="sans-serif" font-size="13" lengthAdjust="spacingAndGlyphs" textLength="53" x="1442" y="622.4951">manages</text><!--MD5=[c1d40978cf3bbccd0894074af6ae6424]
link ClientDB to Database--><path d="M1696.87,562.505 C1683.4,575.804 1667,589.979 1650,600 C1548.03,660.094 1410.23,692.824 1342.71,706.198 " fill="none" id="ClientDB-Database" style="stroke: #A80036; stroke-width: 1.0;"/><polygon fill="#000000" points="1640,615.6758,1634,618.6758,1640,621.6758,1640,615.6758" style="stroke: #000000; stroke-width: 1.0;"/><text fill="#000000" font-family="sans-serif" font-size="13" lengthAdjust="spacingAndGlyphs" textLength="53" x="1646" y="622.4951">manages</text><!--MD5=[e3614ee0a80fcb9a49b96fae5e25d21b]
link OrderDB to Database--><path d="M1328.48,562.643 C1321.77,600.845 1311.55,659.117 1305.97,690.897 " fill="none" id="OrderDB-Database" style="stroke: #A80036; stroke-width: 1.0;"/><text fill="#000000" font-family="sans-serif" font-size="13" lengthAdjust="spacingAndGlyphs" textLength="53" x="1322" y="622.4951">manages</text><polygon fill="#000000" points="1344,631.3516,1347,637.3516,1350,631.3516,1344,631.3516" style="stroke: #000000; stroke-width: 1.0;"/><!--MD5=[5df16df72a49edaa4f00919f1e597f76]
link Order to Product--><path d="M929.36,1010.284 C951.289,1040.403 975.866,1074.16 996.09,1101.937 " fill="none" id="Order-Product" style="stroke: #A80036; stroke-width: 1.0;"/><text fill="#000000" font-family="sans-serif" font-size="13" lengthAdjust="spacingAndGlyphs" textLength="21" x="961" y="1054.4951">has</text><polygon fill="#000000" points="967,1063.3516,970,1069.3516,973,1063.3516,967,1063.3516" style="stroke: #000000; stroke-width: 1.0;"/><text fill="#000000" font-family="sans-serif" font-size="13" lengthAdjust="spacingAndGlyphs" textLength="7" x="926.8203" y="1031.0762">1</text><text fill="#000000" font-family="sans-serif" font-size="13" lengthAdjust="spacingAndGlyphs" textLength="5" x="985.6775" y="1091.3302">*</text><!--MD5=[879bec428a80d843af24dc47845bf14c]
link Client to Order--><path d="M774.817,773.13 C789.666,797.022 807.129,825.121 823.126,850.861 " fill="none" id="Client-Order" style="stroke: #A80036; stroke-width: 1.0;"/><text fill="#000000" font-family="sans-serif" font-size="13" lengthAdjust="spacingAndGlyphs" textLength="39" x="803" y="817.4951">makes</text><polygon fill="#000000" points="818,826.3516,821,832.3516,824,826.3516,818,826.3516" style="stroke: #000000; stroke-width: 1.0;"/><text fill="#000000" font-family="sans-serif" font-size="13" lengthAdjust="spacingAndGlyphs" textLength="7" x="771.7556" y="794.7561">1</text><text fill="#000000" font-family="sans-serif" font-size="13" lengthAdjust="spacingAndGlyphs" textLength="7" x="811.1341" y="840.0347">1</text><!--MD5=[bd708f2371c655af07b49ddbdb30848a]
link Client to Address--><path d="M721.65,773.039 C706.374,834.261 691.076,932.746 723,1010 C742.383,1056.905 784.405,1096.816 818.896,1123.571 " fill="none" id="Client-Address" style="stroke: #A80036; stroke-width: 1.0;"/><text fill="#000000" font-family="sans-serif" font-size="13" lengthAdjust="spacingAndGlyphs" textLength="21" x="724" y="935.9951">has</text><polygon fill="#000000" points="730,944.8516,733,950.8516,736,944.8516,730,944.8516" style="stroke: #000000; stroke-width: 1.0;"/><text fill="#000000" font-family="sans-serif" font-size="13" lengthAdjust="spacingAndGlyphs" textLength="7" x="712.1089" y="794.654">1</text><text fill="#000000" font-family="sans-serif" font-size="13" lengthAdjust="spacingAndGlyphs" textLength="7" x="803.9361" y="1114.7831">1</text><!--MD5=[dd2bca8e69277b6dcf04d6bf8fed5dca]
link Order to Address--><path d="M872,1010.284 C872,1035.512 872,1063.292 872,1087.973 " fill="none" id="Order-Address" style="stroke: #A80036; stroke-width: 1.0;"/><text fill="#000000" font-family="sans-serif" font-size="13" lengthAdjust="spacingAndGlyphs" textLength="21" x="873" y="1054.4951">has</text><polygon fill="#000000" points="879,1063.3516,882,1069.3516,885,1063.3516,879,1063.3516" style="stroke: #000000; stroke-width: 1.0;"/><text fill="#000000" font-family="sans-serif" font-size="13" lengthAdjust="spacingAndGlyphs" textLength="7" x="864.7102" y="1031.0762">1</text><text fill="#000000" font-family="sans-serif" font-size="13" lengthAdjust="spacingAndGlyphs" textLength="7" x="864.6391" y="1077.1896">1</text><!--MD5=[4f0092e2f5693c7657a2634bfbc15acf]
link Invoice to Order--><path d="M1037.92,752.727 C1022.66,768.176 1004.874,786.351 989,803 C974.343,818.372 958.817,834.948 944.03,850.877 " fill="none" id="Invoice-Order" style="stroke: #A80036; stroke-width: 1.0;"/><text fill="#000000" font-family="sans-serif" font-size="13" lengthAdjust="spacingAndGlyphs" textLength="21" x="990" y="817.4951">has</text><polygon fill="#000000" points="996,826.3516,999,832.3516,1002,826.3516,996,826.3516" style="stroke: #000000; stroke-width: 1.0;"/><text fill="#000000" font-family="sans-serif" font-size="13" lengthAdjust="spacingAndGlyphs" textLength="7" x="1024.4526" y="773.6437">1</text><text fill="#000000" font-family="sans-serif" font-size="13" lengthAdjust="spacingAndGlyphs" textLength="7" x="943.5618" y="840.0522">1</text><!--MD5=[72e744b1f7ec345412f1ea79f30940ed]
link Invoice to Product--><path d="M1067.69,752.843 C1064.9,768.31 1061.93,786.466 1060,803 C1047.75,908.015 1042.06,1031.282 1039.62,1101.906 " fill="none" id="Invoice-Product" style="stroke: #A80036; stroke-width: 1.0;"/><text fill="#000000" font-family="sans-serif" font-size="13" lengthAdjust="spacingAndGlyphs" textLength="21" x="1056" y="935.9951">has</text><polygon fill="#000000" points="1062,944.8516,1065,950.8516,1068,944.8516,1062,944.8516" style="stroke: #000000; stroke-width: 1.0;"/><text fill="#000000" font-family="sans-serif" font-size="13" lengthAdjust="spacingAndGlyphs" textLength="7" x="1058.9672" y="773.7782">1</text><text fill="#000000" font-family="sans-serif" font-size="13" lengthAdjust="spacingAndGlyphs" textLength="5" x="1034.5127" y="1091.2954">*</text><!--MD5=[02c3880b26c7eaf602597a8933cd7cde]
link Invoice to CreditCard--><path d="M1067.09,752.8 C1064.36,773.537 1063.76,799.431 1072,821 C1081.24,845.195 1098.63,867.409 1116.16,885.349 " fill="none" id="Invoice-CreditCard" style="stroke: #A80036; stroke-width: 1.0;"/><text fill="#000000" font-family="sans-serif" font-size="13" lengthAdjust="spacingAndGlyphs" textLength="84" x="1073" y="817.4951">is payed using</text><polygon fill="#000000" points="1110.5,826.3516,1113.5,832.3516,1116.5,826.3516,1110.5,826.3516" style="stroke: #000000; stroke-width: 1.0;"/><text fill="#000000" font-family="sans-serif" font-size="13" lengthAdjust="spacingAndGlyphs" textLength="7" x="1066.3872" y="773.7283">1</text><text fill="#000000" font-family="sans-serif" font-size="13" lengthAdjust="spacingAndGlyphs" textLength="5" x="1102.6861" y="874.77">*</text><!--MD5=[736f319cc4063fa2910c4975135736c9]
@startuml
skinparam classAttributeIconSize 0

package "UI" #DDDDDD {
class GenerateInvoiceUI{

}
}

database Database{
}


package "Controller" #DDDDDD {
class GenerateInvoiceController{
+registerNewUser(name,email,password,address,gpsLocation,creditCardNr,validityDate,CCV)
}

class ApplicationPOT
{
  +static getInstance()
  +getPlatform()
}

class UserSession
{
  +getCurrentSession()
}
}


package "Model" #DDDDDD {
package "Service" #DDDDDD {
 class ClientService{
          +ClientService()
     +getUserByEmail(email)
 }

  class OrderService{
          +OrderService()
       +getLatestOrder()
   }

   class InvoiceService{
          +InvoiceService()
          +addInvoice(date, totalPrice, order, client)
          +validateInvoice()
          +registerInvoice()
      }
 }
}

package "Model" #DDDDDD {
abstract class User{
-String email
-String password
-String name
}

class Client{
-int IBAN;
-long creditCardNumber
-Address address
-int validityDate
-int CCV
}

class Address{
-   String streetName
-   String doorNumber
-   String postalCode
-   String locality
-   String country
-   float longitude
-   float latitude
}

class Order{
-   int id
-   float amount
-   float totalWeight
-   float additionalFee
-   Date orderDate
-   String description
-   String status
+create(date, totalPrice, order, client)
}

class Product{
-   int id
-   String name
-   String description
-   float unitaryPrice
-   float unitaryWeight
}

class Invoice{
-   Date orderDate
-   float amount
}

class CreditCard{
-   int creditCardNumber
-   Date validatyDate
-   int CCV
}

}


package "Data" #DDDDDD {
class DataHandler{
    +openConnection()
    +closeAll()
}
class OrderDB{
          +OrderDB()
       +getLatestOrder()
  }

class InvoiceDB{
          +InvoiceDB()
          +addInvoice(date, totalPrice, order, client)
          +validateInvoice()
          +registerInvoice()
  }

class ClientDB{
          +ClientDB()
     +getUserByEmail(email)
  }

}

class InvoiceDB extends DataHandler
class ClientDB extends DataHandler
class OrderDB extends DataHandler

class Client extends User

GenerateInvoiceUI ..> GenerateInvoiceController
GenerateInvoiceController ..> ClientService
GenerateInvoiceController ..> OrderService
GenerateInvoiceController ..> InvoiceService
GenerateInvoiceController ..> ApplicationPOT
GenerateInvoiceController ..> UserSession

Database "1" - - "*" Client : has registered >
Database "1" - - "*" Order : has registered >
Database "1" - - "*" Product : has registered >
Database "1" - - "*" Address : has registered >
Database "1" - - "*" Invoice : has registered >
Database "1" - - "*" Client : has registered >
Database "1" - - "*" CreditCard : has registered >
InvoiceService "1" - -> "*" Invoice : manages services of
InvoiceService "1" - -> "1" InvoiceDB : uses
OrderService "1" - -> "*" Order : manages services of
OrderService "1" - -> "1" OrderDB : uses
ClientService "1" - -> "*" Client : manages services of
ClientService "1" - -> "1" ClientDB : uses

InvoiceDB - - Database : manages >
ClientDB - - Database : manages >
OrderDB - - Database : manages >
Order "1" - - "*" Product : has >
Client "1" - - "1" Order : makes >
Client "1" - - "1" Address : has >
Order "1" - - "1" Address : has >
Invoice "1" - - "1" Order : has >
Invoice "1" - - "*" Product : has >
Invoice "1" - - "*" CreditCard : is payed using >

@enduml

PlantUML version 1.2020.09(Sun May 10 11:51:06 BST 2020)
(GPL source distribution)
Java Runtime: OpenJDK Runtime Environment
JVM: OpenJDK 64-Bit Server VM
Java Version: 11.0.6+8-b520.66
Operating System: Windows 10
Default Encoding: Cp1252
Language: pt
Country: PT
--></g></svg>