<?xml version="1.0" encoding="UTF-8" standalone="no"?><svg xmlns="http://www.w3.org/2000/svg" xmlns:xlink="http://www.w3.org/1999/xlink" contentScriptType="application/ecmascript" contentStyleType="text/css" height="192.5px" preserveAspectRatio="none" style="width:651px;height:192px;" version="1.1" viewBox="0 0 651 192" width="651.25px" zoomAndPan="magnify"><defs><filter height="300%" id="f1dyfjow7uljsa" width="300%" x="-1" y="-1"><feGaussianBlur result="blurOut" stdDeviation="2.5"/><feColorMatrix in="blurOut" result="blurOut2" type="matrix" values="0 0 0 0 0 0 0 0 0 0 0 0 0 0 0 0 0 0 .4 0"/><feOffset dx="5.0" dy="5.0" in="blurOut2" result="blurOut3"/><feBlend in="SourceGraphic" in2="blurOut3" mode="normal"/></filter></defs><g><!--MD5=[99b8db98afdc2c8404e39242ef4c1e65]
class Platform--><rect codeLine="5" fill="#FEFECE" filter="url(#f1dyfjow7uljsa)" height="67.2949" id="Platform" style="stroke:#A80036;stroke-width:1.875;" width="127.5" x="8.75" y="34.375"/><ellipse cx="41" cy="54.375" fill="#ADD1B2" rx="13.75" ry="13.75" style="stroke:#A80036;stroke-width:1.25;"/><path d="M43.5,50 Q43.7539,49.375 44.0469,49.0625 Q44.3398,48.75 44.6719,48.75 Q45.2578,48.75 45.6289,49.1016 Q46,49.4531 46,50.2734 L46,52.2266 Q46,53.0469 45.6484,53.3984 Q45.2969,53.75 44.75,53.75 Q44.2617,53.75 43.9492,53.5352 Q43.6367,53.3203 43.5,52.7539 Q43.4414,52.3633 43.2266,52.1484 Q42.8359,51.7383 42.1328,51.5039 Q41.4297,51.25 40.7266,51.25 Q39.8477,51.25 39.1055,51.6016 Q38.3828,51.9531 37.8164,52.7344 Q37.25,53.5156 37.25,54.5898 L37.25,55.7422 Q37.25,57.0313 38.3047,57.8906 Q39.3594,58.75 41.2344,58.75 Q42.3477,58.75 43.1289,58.4961 Q43.5781,58.3594 44.0859,57.9102 Q44.418,57.6563 44.5938,57.5781 Q44.7695,57.5 44.9844,57.5 Q45.3945,57.5 45.6875,57.832 Q46,58.1445 46,58.5938 Q46,59.0234 45.5703,59.5313 Q44.9453,60.2734 43.9492,60.6836 Q42.6406,61.25 41.0391,61.25 Q39.1641,61.25 37.6602,60.5078 Q36.4492,59.9219 35.5898,58.6523 Q34.75,57.3828 34.75,55.8789 L34.75,54.5117 Q34.75,52.9492 35.4922,51.582 Q36.2539,50.2148 37.5625,49.4922 Q38.8906,48.75 40.375,48.75 Q41.2734,48.75 42.0547,49.0625 Q42.8359,49.375 43.5,50 Z " fill="#000000"/><text fill="#000000" font-family="sans-serif" font-size="15" lengthAdjust="spacingAndGlyphs" textLength="57.5" x="61.5" y="60.5127">Platform</text><line style="stroke:#A80036;stroke-width:1.875;" x1="10" x2="135" y1="74.375" y2="74.375"/><text fill="#000000" font-family="sans-serif" font-size="13.75" lengthAdjust="spacingAndGlyphs" textLength="112.5" x="16.25" y="93.6487">-String designation</text><!--MD5=[72136138052d025cffdce3c22fbd185f]
class Product--><rect codeLine="9" fill="#FEFECE" filter="url(#f1dyfjow7uljsa)" height="119.1797" id="Product" style="stroke:#A80036;stroke-width:1.875;" width="125" x="508.75" y="8.75"/><ellipse cx="542.125" cy="28.75" fill="#ADD1B2" rx="13.75" ry="13.75" style="stroke:#A80036;stroke-width:1.25;"/><path d="M544.625,24.375 Q544.8789,23.75 545.1719,23.4375 Q545.4648,23.125 545.7969,23.125 Q546.3828,23.125 546.7539,23.4766 Q547.125,23.8281 547.125,24.6484 L547.125,26.6016 Q547.125,27.4219 546.7734,27.7734 Q546.4219,28.125 545.875,28.125 Q545.3867,28.125 545.0742,27.9102 Q544.7617,27.6953 544.625,27.1289 Q544.5664,26.7383 544.3516,26.5234 Q543.9609,26.1133 543.2578,25.8789 Q542.5547,25.625 541.8516,25.625 Q540.9727,25.625 540.2305,25.9766 Q539.5078,26.3281 538.9414,27.1094 Q538.375,27.8906 538.375,28.9648 L538.375,30.1172 Q538.375,31.4063 539.4297,32.2656 Q540.4844,33.125 542.3594,33.125 Q543.4727,33.125 544.2539,32.8711 Q544.7031,32.7344 545.2109,32.2852 Q545.543,32.0313 545.7188,31.9531 Q545.8945,31.875 546.1094,31.875 Q546.5195,31.875 546.8125,32.207 Q547.125,32.5195 547.125,32.9688 Q547.125,33.3984 546.6953,33.9063 Q546.0703,34.6484 545.0742,35.0586 Q543.7656,35.625 542.1641,35.625 Q540.2891,35.625 538.7852,34.8828 Q537.5742,34.2969 536.7148,33.0273 Q535.875,31.7578 535.875,30.2539 L535.875,28.8867 Q535.875,27.3242 536.6172,25.957 Q537.3789,24.5898 538.6875,23.8672 Q540.0156,23.125 541.5,23.125 Q542.3984,23.125 543.1797,23.4375 Q543.9609,23.75 544.625,24.375 Z " fill="#000000"/><text fill="#000000" font-family="sans-serif" font-size="15" lengthAdjust="spacingAndGlyphs" textLength="52.5" x="562.875" y="34.8877">Product</text><line style="stroke:#A80036;stroke-width:1.875;" x1="510" x2="632.5" y1="48.75" y2="48.75"/><text fill="#000000" font-family="sans-serif" font-size="13.75" lengthAdjust="spacingAndGlyphs" textLength="100" x="516.25" y="68.0237">-String productId</text><text fill="#000000" font-family="sans-serif" font-size="13.75" lengthAdjust="spacingAndGlyphs" textLength="76.25" x="516.25" y="85.3186">-String name</text><text fill="#000000" font-family="sans-serif" font-size="13.75" lengthAdjust="spacingAndGlyphs" textLength="110" x="516.25" y="102.6135">-String description</text><text fill="#000000" font-family="sans-serif" font-size="13.75" lengthAdjust="spacingAndGlyphs" textLength="80" x="516.25" y="119.9084">-Double price</text><!--MD5=[3fd616f346a44cd59a91eb10b19e157c]
class User--><rect codeLine="16" fill="#FEFECE" filter="url(#f1dyfjow7uljsa)" height="84.5898" id="User" style="stroke:#A80036;stroke-width:1.875;" width="121.25" x="256.25" y="90.625"/><ellipse cx="296.9375" cy="110.625" fill="#A9DCDF" rx="13.75" ry="13.75" style="stroke:#A80036;stroke-width:1.25;"/><path d="M299.125,112.5 L295.0039,112.5 L294.457,113.75 L294.457,113.75 L295.043,113.75 L295.6875,114.5313 L295.6875,115 L295.6875,115.4688 L295.043,116.25 L294.457,116.25 L292.0938,116.25 L291.332,116.25 L290.6875,115.4688 L290.6875,115 L290.6875,114.5313 L291.332,113.75 L292.0938,113.75 L294.9844,106.25 L293.8906,106.25 L292.582,106.25 L291.9375,105.4688 L291.9375,105 L291.9375,104.5313 L292.582,103.75 L293.8906,103.75 L298.4805,103.75 L301.8398,113.75 L302.543,113.75 L302.543,113.75 L303.1875,114.5313 L303.1875,115 L303.1875,115.4688 L302.543,116.25 L301.8398,116.25 L299.4766,116.25 L298.832,116.25 L298.1875,115.4688 L298.1875,115 L298.1875,114.5313 L298.832,113.75 L299.4766,113.75 L299.4766,113.75 L299.125,112.5 Z M298.4414,110 L296.9375,105.5273 L295.6484,110 L298.4414,110 Z " fill="#000000"/><text fill="#000000" font-family="sans-serif" font-size="15" font-style="italic" lengthAdjust="spacingAndGlyphs" textLength="32.5" x="319.3125" y="116.7627">User</text><line style="stroke:#A80036;stroke-width:1.875;" x1="257.5" x2="376.25" y1="130.625" y2="130.625"/><text fill="#000000" font-family="sans-serif" font-size="13.75" lengthAdjust="spacingAndGlyphs" textLength="73.75" x="263.75" y="149.8987">-String email</text><text fill="#000000" font-family="sans-serif" font-size="13.75" lengthAdjust="spacingAndGlyphs" textLength="106.25" x="263.75" y="167.1936">-String password</text><!--MD5=[057ee07bb7b2e2aedbcccdbc42ce2201]
link User to Product--><path codeLine="21" d="M377.8125,117.725 C417.2375,107.55 468.775,94.25 508.55,83.9875 " fill="none" id="User-Product" style="stroke:#A80036;stroke-width:1.25;"/><text fill="#000000" font-family="sans-serif" font-size="16.25" lengthAdjust="spacingAndGlyphs" textLength="53.75" x="416.25" y="91.2439">creates</text><text fill="#000000" font-family="sans-serif" font-size="16.25" lengthAdjust="spacingAndGlyphs" textLength="8.75" x="387.4053" y="133.8632">1</text><text fill="#000000" font-family="sans-serif" font-size="16.25" lengthAdjust="spacingAndGlyphs" textLength="6.25" x="492.632" y="104.6557">*</text><!--MD5=[17a83e2477c2a4c4a0146b9f70505d3e]
link Platform to Product--><path codeLine="22" d="M136.6875,65.45 C148.975,65.025 161.7625,64.625 173.75,64.375 C305.9375,61.55 339.075,59.775 471.25,63.125 C483.2625,63.425 496.0875,63.9375 508.3875,64.525 " fill="none" id="Platform-Product" style="stroke:#A80036;stroke-width:1.25;"/><polygon fill="#000000" points="306.875,50.8292,295.5595,47.1837,295.5778,54.531,306.875,50.8292" style="stroke:#000000;stroke-width:1.25;"/><text fill="#000000" font-family="sans-serif" font-size="16.25" lengthAdjust="spacingAndGlyphs" textLength="26.25" x="311.875" y="57.4939">has</text><text fill="#000000" font-family="sans-serif" font-size="16.25" lengthAdjust="spacingAndGlyphs" textLength="8.75" x="146.3291" y="83.3943">1</text><text fill="#000000" font-family="sans-serif" font-size="16.25" lengthAdjust="spacingAndGlyphs" textLength="6.25" x="492.4456" y="82.3346">*</text><!--MD5=[0cdafcc0dad84b6396b2a91da681dfee]
link Platform to User--><path codeLine="23" d="M136.35,84.95 C173.3125,94.875 219.8125,107.375 256.2,117.15 " fill="none" id="Platform-User" style="stroke:#A80036;stroke-width:1.25;"/><polygon fill="#000000" points="186.0359,87.4664,176.07,80.9849,174.1636,88.0806,186.0359,87.4664" style="stroke:#000000;stroke-width:1.25;"/><text fill="#000000" font-family="sans-serif" font-size="16.25" lengthAdjust="spacingAndGlyphs" textLength="26.25" x="191.25" y="92.4939">has</text><text fill="#000000" font-family="sans-serif" font-size="16.25" lengthAdjust="spacingAndGlyphs" textLength="8.75" x="146.3705" y="105.8062">1</text><text fill="#000000" font-family="sans-serif" font-size="16.25" lengthAdjust="spacingAndGlyphs" textLength="6.25" x="240.1806" y="133.169">*</text><!--MD5=[8641b8ca1910613706f47b038efbc485]
@startuml
skinparam classAttributeIconSize 0
hide methods
left to right direction

class Platform {
    -String designation
}

class Product{
    -String productId
    -String name
    -String description
    -Double price
}

abstract class User{
    -String email
    -String password
}

User "1" - - "*" Product : creates
Platform "1" - - "*" Product : has >
Platform "1" - - "*" User : has >

@enduml

PlantUML version 1.2020.23(Sun Dec 13 19:14:58 GMT 2020)
(GPL source distribution)
Java Runtime: OpenJDK Runtime Environment
JVM: OpenJDK 64-Bit Server VM
Default Encoding: Cp1252
Language: pt
Country: PT
--></g></svg>