<?xml version="1.0" encoding="UTF-8" standalone="no"?><svg xmlns="http://www.w3.org/2000/svg" xmlns:xlink="http://www.w3.org/1999/xlink" contentScriptType="application/ecmascript" contentStyleType="text/css" height="1230px" preserveAspectRatio="none" style="width:798px;height:1230px;" version="1.1" viewBox="0 0 798 1230" width="798.75px" zoomAndPan="magnify"><defs><filter height="300%" id="fpz3cgoa7ytaa" width="300%" x="-1" y="-1"><feGaussianBlur result="blurOut" stdDeviation="2.5"/><feColorMatrix in="blurOut" result="blurOut2" type="matrix" values="0 0 0 0 0 0 0 0 0 0 0 0 0 0 0 0 0 0 .4 0"/><feOffset dx="5.0" dy="5.0" in="blurOut2" result="blurOut3"/><feBlend in="SourceGraphic" in2="blurOut3" mode="normal"/></filter></defs><g><!--MD5=[9681dc6e01e10c6b4fe06895ae94f592]
cluster UI--><polygon fill="#DDDDDD" filter="url(#fpz3cgoa7ytaa)" points="390,7.5,415,7.5,423.75,37.0117,622.5,37.0117,622.5,132.5,390,132.5,390,7.5" style="stroke:#000000;stroke-width:1.875;"/><line style="stroke:#000000;stroke-width:1.875;" x1="390" x2="423.75" y1="37.0117" y2="37.0117"/><text fill="#000000" font-family="sans-serif" font-size="17.5" font-weight="bold" lengthAdjust="spacingAndGlyphs" textLength="17.5" x="395" y="28.1665">UI</text><!--MD5=[1f2cfc53d9d308f53762fd0fcbaa4873]
cluster Controller--><polygon fill="#DDDDDD" filter="url(#fpz3cgoa7ytaa)" points="332.5,173.75,428.75,173.75,437.5,203.2617,680,203.2617,680,351.25,332.5,351.25,332.5,173.75" style="stroke:#000000;stroke-width:1.875;"/><line style="stroke:#000000;stroke-width:1.875;" x1="332.5" x2="437.5" y1="203.2617" y2="203.2617"/><text fill="#000000" font-family="sans-serif" font-size="17.5" font-weight="bold" lengthAdjust="spacingAndGlyphs" textLength="88.75" x="337.5" y="194.4165">Controller</text><!--MD5=[15636c1ca4a123c16a2a1a8e90aca7a9]
cluster Model--><polygon fill="#DDDDDD" filter="url(#fpz3cgoa7ytaa)" points="77.5,392.5,140,392.5,148.75,422.0117,777.5,422.0117,777.5,621.25,77.5,621.25,77.5,392.5" style="stroke:#000000;stroke-width:1.875;"/><line style="stroke:#000000;stroke-width:1.875;" x1="77.5" x2="148.75" y1="422.0117" y2="422.0117"/><text fill="#000000" font-family="sans-serif" font-size="17.5" font-weight="bold" lengthAdjust="spacingAndGlyphs" textLength="55" x="82.5" y="413.1665">Model</text><!--MD5=[7f5e0441b00afcd8fa9ae108c086a015]
cluster Registration--><polygon fill="#DDDDDD" filter="url(#fpz3cgoa7ytaa)" points="20,701.25,135,701.25,143.75,730.7617,302.5,730.7617,302.5,895,20,895,20,701.25" style="stroke:#000000;stroke-width:1.875;"/><line style="stroke:#000000;stroke-width:1.875;" x1="20" x2="143.75" y1="730.7617" y2="730.7617"/><text fill="#000000" font-family="sans-serif" font-size="17.5" font-weight="bold" lengthAdjust="spacingAndGlyphs" textLength="107.5" x="25" y="721.9165">Registration</text><!--MD5=[f21b1f164e99c6b37934f23ad048ad54]
cluster Data--><polygon fill="#DDDDDD" filter="url(#fpz3cgoa7ytaa)" points="332.5,683.75,378.75,683.75,387.5,713.2617,692.5,713.2617,692.5,1221.25,332.5,1221.25,332.5,683.75" style="stroke:#000000;stroke-width:1.875;"/><line style="stroke:#000000;stroke-width:1.875;" x1="332.5" x2="387.5" y1="713.2617" y2="713.2617"/><text fill="#000000" font-family="sans-serif" font-size="17.5" font-weight="bold" lengthAdjust="spacingAndGlyphs" textLength="38.75" x="337.5" y="704.4165">Data</text><!--MD5=[4deaad5e1f2c546a7ecdc722ea6059c9]
class ProductRegistrationUI--><rect codeLine="3" fill="#FEFECE" filter="url(#fpz3cgoa7ytaa)" height="60" id="ProductRegistrationUI" style="stroke:#A80036;stroke-width:1.875;" width="191.25" x="410.625" y="52.5"/><ellipse cx="429.375" cy="72.5" fill="#ADD1B2" rx="13.75" ry="13.75" style="stroke:#A80036;stroke-width:1.25;"/><path d="M431.875,68.125 Q432.1289,67.5 432.4219,67.1875 Q432.7148,66.875 433.0469,66.875 Q433.6328,66.875 434.0039,67.2266 Q434.375,67.5781 434.375,68.3984 L434.375,70.3516 Q434.375,71.1719 434.0234,71.5234 Q433.6719,71.875 433.125,71.875 Q432.6367,71.875 432.3242,71.6602 Q432.0117,71.4453 431.875,70.8789 Q431.8164,70.4883 431.6016,70.2734 Q431.2109,69.8633 430.5078,69.6289 Q429.8047,69.375 429.1016,69.375 Q428.2227,69.375 427.4805,69.7266 Q426.7578,70.0781 426.1914,70.8594 Q425.625,71.6406 425.625,72.7148 L425.625,73.8672 Q425.625,75.1563 426.6797,76.0156 Q427.7344,76.875 429.6094,76.875 Q430.7227,76.875 431.5039,76.6211 Q431.9531,76.4844 432.4609,76.0352 Q432.793,75.7813 432.9688,75.7031 Q433.1445,75.625 433.3594,75.625 Q433.7695,75.625 434.0625,75.957 Q434.375,76.2695 434.375,76.7188 Q434.375,77.1484 433.9453,77.6563 Q433.3203,78.3984 432.3242,78.8086 Q431.0156,79.375 429.4141,79.375 Q427.5391,79.375 426.0352,78.6328 Q424.8242,78.0469 423.9648,76.7773 Q423.125,75.5078 423.125,74.0039 L423.125,72.6367 Q423.125,71.0742 423.8672,69.707 Q424.6289,68.3398 425.9375,67.6172 Q427.2656,66.875 428.75,66.875 Q429.6484,66.875 430.4297,67.1875 Q431.2109,67.5 431.875,68.125 Z " fill="#000000"/><text fill="#000000" font-family="sans-serif" font-size="15" lengthAdjust="spacingAndGlyphs" textLength="151.25" x="446.875" y="78.6377">ProductRegistrationUI</text><line style="stroke:#A80036;stroke-width:1.875;" x1="411.875" x2="600.625" y1="92.5" y2="92.5"/><line style="stroke:#A80036;stroke-width:1.875;" x1="411.875" x2="600.625" y1="102.5" y2="102.5"/><!--MD5=[1fba7439c23efe4c1b23c96e9da6b715]
class ProductRegistrationController--><rect codeLine="8" fill="#FEFECE" filter="url(#fpz3cgoa7ytaa)" height="111.8848" id="ProductRegistrationController" style="stroke:#A80036;stroke-width:1.875;" width="306.25" x="353.125" y="218.75"/><ellipse cx="400" cy="238.75" fill="#ADD1B2" rx="13.75" ry="13.75" style="stroke:#A80036;stroke-width:1.25;"/><path d="M402.5,234.375 Q402.7539,233.75 403.0469,233.4375 Q403.3398,233.125 403.6719,233.125 Q404.2578,233.125 404.6289,233.4766 Q405,233.8281 405,234.6484 L405,236.6016 Q405,237.4219 404.6484,237.7734 Q404.2969,238.125 403.75,238.125 Q403.2617,238.125 402.9492,237.9102 Q402.6367,237.6953 402.5,237.1289 Q402.4414,236.7383 402.2266,236.5234 Q401.8359,236.1133 401.1328,235.8789 Q400.4297,235.625 399.7266,235.625 Q398.8477,235.625 398.1055,235.9766 Q397.3828,236.3281 396.8164,237.1094 Q396.25,237.8906 396.25,238.9648 L396.25,240.1172 Q396.25,241.4063 397.3047,242.2656 Q398.3594,243.125 400.2344,243.125 Q401.3477,243.125 402.1289,242.8711 Q402.5781,242.7344 403.0859,242.2852 Q403.418,242.0313 403.5938,241.9531 Q403.7695,241.875 403.9844,241.875 Q404.3945,241.875 404.6875,242.207 Q405,242.5195 405,242.9688 Q405,243.3984 404.5703,243.9063 Q403.9453,244.6484 402.9492,245.0586 Q401.6406,245.625 400.0391,245.625 Q398.1641,245.625 396.6602,244.8828 Q395.4492,244.2969 394.5898,243.0273 Q393.75,241.7578 393.75,240.2539 L393.75,238.8867 Q393.75,237.3242 394.4922,235.957 Q395.2539,234.5898 396.5625,233.8672 Q397.8906,233.125 399.375,233.125 Q400.2734,233.125 401.0547,233.4375 Q401.8359,233.75 402.5,234.375 Z " fill="#000000"/><text fill="#000000" font-family="sans-serif" font-size="15" lengthAdjust="spacingAndGlyphs" textLength="203.75" x="423.75" y="244.8877">ProductRegistrationController</text><line style="stroke:#A80036;stroke-width:1.875;" x1="354.375" x2="658.125" y1="258.75" y2="258.75"/><line style="stroke:#A80036;stroke-width:1.875;" x1="354.375" x2="658.125" y1="268.75" y2="268.75"/><text fill="#000000" font-family="sans-serif" font-size="13.75" lengthAdjust="spacingAndGlyphs" textLength="222.5" x="360.625" y="288.0237">+addProduct(name,description,price)</text><text fill="#000000" font-family="sans-serif" font-size="13.75" lengthAdjust="spacingAndGlyphs" textLength="291.25" x="360.625" y="305.3186">+updateProduct(product,name,description,price)</text><text fill="#000000" font-family="sans-serif" font-size="13.75" lengthAdjust="spacingAndGlyphs" textLength="132.5" x="360.625" y="322.6135">+deleteProduct(name)</text><!--MD5=[99b8db98afdc2c8404e39242ef4c1e65]
class Platform--><rect codeLine="16" fill="#FEFECE" filter="url(#fpz3cgoa7ytaa)" height="94.5898" id="Platform" style="stroke:#A80036;stroke-width:1.875;" width="127.5" x="97.5" y="471.875"/><ellipse cx="129.75" cy="491.875" fill="#ADD1B2" rx="13.75" ry="13.75" style="stroke:#A80036;stroke-width:1.25;"/><path d="M132.25,487.5 Q132.5039,486.875 132.7969,486.5625 Q133.0898,486.25 133.4219,486.25 Q134.0078,486.25 134.3789,486.6016 Q134.75,486.9531 134.75,487.7734 L134.75,489.7266 Q134.75,490.5469 134.3984,490.8984 Q134.0469,491.25 133.5,491.25 Q133.0117,491.25 132.6992,491.0352 Q132.3867,490.8203 132.25,490.2539 Q132.1914,489.8633 131.9766,489.6484 Q131.5859,489.2383 130.8828,489.0039 Q130.1797,488.75 129.4766,488.75 Q128.5977,488.75 127.8555,489.1016 Q127.1328,489.4531 126.5664,490.2344 Q126,491.0156 126,492.0898 L126,493.2422 Q126,494.5313 127.0547,495.3906 Q128.1094,496.25 129.9844,496.25 Q131.0977,496.25 131.8789,495.9961 Q132.3281,495.8594 132.8359,495.4102 Q133.168,495.1563 133.3438,495.0781 Q133.5195,495 133.7344,495 Q134.1445,495 134.4375,495.332 Q134.75,495.6445 134.75,496.0938 Q134.75,496.5234 134.3203,497.0313 Q133.6953,497.7734 132.6992,498.1836 Q131.3906,498.75 129.7891,498.75 Q127.9141,498.75 126.4102,498.0078 Q125.1992,497.4219 124.3398,496.1523 Q123.5,494.8828 123.5,493.3789 L123.5,492.0117 Q123.5,490.4492 124.2422,489.082 Q125.0039,487.7148 126.3125,486.9922 Q127.6406,486.25 129.125,486.25 Q130.0234,486.25 130.8047,486.5625 Q131.5859,486.875 132.25,487.5 Z " fill="#000000"/><text fill="#000000" font-family="sans-serif" font-size="15" lengthAdjust="spacingAndGlyphs" textLength="57.5" x="150.25" y="498.0127">Platform</text><line style="stroke:#A80036;stroke-width:1.875;" x1="98.75" x2="223.75" y1="511.875" y2="511.875"/><text fill="#000000" font-family="sans-serif" font-size="13.75" lengthAdjust="spacingAndGlyphs" textLength="112.5" x="105" y="531.1487">-String designation</text><line style="stroke:#A80036;stroke-width:1.875;" x1="98.75" x2="223.75" y1="539.1699" y2="539.1699"/><text fill="#000000" font-family="sans-serif" font-size="13.75" lengthAdjust="spacingAndGlyphs" textLength="106.25" x="105" y="558.4436">+getProductReg()</text><!--MD5=[c5b08e60048ef1bcd788d24cf324082e]
class UserSession--><rect codeLine="21" fill="#FEFECE" filter="url(#fpz3cgoa7ytaa)" height="77.2949" id="UserSession" style="stroke:#A80036;stroke-width:1.875;" width="136.25" x="438.125" y="480.625"/><ellipse cx="459.125" cy="500.625" fill="#ADD1B2" rx="13.75" ry="13.75" style="stroke:#A80036;stroke-width:1.25;"/><path d="M461.625,496.25 Q461.8789,495.625 462.1719,495.3125 Q462.4648,495 462.7969,495 Q463.3828,495 463.7539,495.3516 Q464.125,495.7031 464.125,496.5234 L464.125,498.4766 Q464.125,499.2969 463.7734,499.6484 Q463.4219,500 462.875,500 Q462.3867,500 462.0742,499.7852 Q461.7617,499.5703 461.625,499.0039 Q461.5664,498.6133 461.3516,498.3984 Q460.9609,497.9883 460.2578,497.7539 Q459.5547,497.5 458.8516,497.5 Q457.9727,497.5 457.2305,497.8516 Q456.5078,498.2031 455.9414,498.9844 Q455.375,499.7656 455.375,500.8398 L455.375,501.9922 Q455.375,503.2813 456.4297,504.1406 Q457.4844,505 459.3594,505 Q460.4727,505 461.2539,504.7461 Q461.7031,504.6094 462.2109,504.1602 Q462.543,503.9063 462.7188,503.8281 Q462.8945,503.75 463.1094,503.75 Q463.5195,503.75 463.8125,504.082 Q464.125,504.3945 464.125,504.8438 Q464.125,505.2734 463.6953,505.7813 Q463.0703,506.5234 462.0742,506.9336 Q460.7656,507.5 459.1641,507.5 Q457.2891,507.5 455.7852,506.7578 Q454.5742,506.1719 453.7148,504.9023 Q452.875,503.6328 452.875,502.1289 L452.875,500.7617 Q452.875,499.1992 453.6172,497.832 Q454.3789,496.4648 455.6875,495.7422 Q457.0156,495 458.5,495 Q459.3984,495 460.1797,495.3125 Q460.9609,495.625 461.625,496.25 Z " fill="#000000"/><text fill="#000000" font-family="sans-serif" font-size="15" lengthAdjust="spacingAndGlyphs" textLength="91.25" x="477.125" y="506.7627">UserSession</text><line style="stroke:#A80036;stroke-width:1.875;" x1="439.375" x2="573.125" y1="520.625" y2="520.625"/><line style="stroke:#A80036;stroke-width:1.875;" x1="439.375" x2="573.125" y1="530.625" y2="530.625"/><text fill="#000000" font-family="sans-serif" font-size="13.75" lengthAdjust="spacingAndGlyphs" textLength="121.25" x="445.625" y="549.8987">+getEmailUtilizador()</text><!--MD5=[55ab8fe8b19adc7d0dfe7390d7a86160]
class ApplicationPot--><rect codeLine="25" fill="#FEFECE" filter="url(#fpz3cgoa7ytaa)" height="94.5898" id="ApplicationPot" style="stroke:#A80036;stroke-width:1.875;" width="138.75" x="618.125" y="471.875"/><ellipse cx="637.4375" cy="491.875" fill="#ADD1B2" rx="13.75" ry="13.75" style="stroke:#A80036;stroke-width:1.25;"/><path d="M639.9375,487.5 Q640.1914,486.875 640.4844,486.5625 Q640.7773,486.25 641.1094,486.25 Q641.6953,486.25 642.0664,486.6016 Q642.4375,486.9531 642.4375,487.7734 L642.4375,489.7266 Q642.4375,490.5469 642.0859,490.8984 Q641.7344,491.25 641.1875,491.25 Q640.6992,491.25 640.3867,491.0352 Q640.0742,490.8203 639.9375,490.2539 Q639.8789,489.8633 639.6641,489.6484 Q639.2734,489.2383 638.5703,489.0039 Q637.8672,488.75 637.1641,488.75 Q636.2852,488.75 635.543,489.1016 Q634.8203,489.4531 634.2539,490.2344 Q633.6875,491.0156 633.6875,492.0898 L633.6875,493.2422 Q633.6875,494.5313 634.7422,495.3906 Q635.7969,496.25 637.6719,496.25 Q638.7852,496.25 639.5664,495.9961 Q640.0156,495.8594 640.5234,495.4102 Q640.8555,495.1563 641.0313,495.0781 Q641.207,495 641.4219,495 Q641.832,495 642.125,495.332 Q642.4375,495.6445 642.4375,496.0938 Q642.4375,496.5234 642.0078,497.0313 Q641.3828,497.7734 640.3867,498.1836 Q639.0781,498.75 637.4766,498.75 Q635.6016,498.75 634.0977,498.0078 Q632.8867,497.4219 632.0273,496.1523 Q631.1875,494.8828 631.1875,493.3789 L631.1875,492.0117 Q631.1875,490.4492 631.9297,489.082 Q632.6914,487.7148 634,486.9922 Q635.3281,486.25 636.8125,486.25 Q637.7109,486.25 638.4922,486.5625 Q639.2734,486.875 639.9375,487.5 Z " fill="#000000"/><text fill="#000000" font-family="sans-serif" font-size="15" lengthAdjust="spacingAndGlyphs" textLength="97.5" x="655.0625" y="498.0127">ApplicationPot</text><line style="stroke:#A80036;stroke-width:1.875;" x1="619.375" x2="755.625" y1="511.875" y2="511.875"/><line style="stroke:#A80036;stroke-width:1.875;" x1="619.375" x2="755.625" y1="521.875" y2="521.875"/><text fill="#000000" font-family="sans-serif" font-size="13.75" lengthAdjust="spacingAndGlyphs" textLength="123.75" x="625.625" y="541.1487">+static getInstance()</text><text fill="#000000" font-family="sans-serif" font-size="13.75" lengthAdjust="spacingAndGlyphs" textLength="113.75" x="625.625" y="558.4436">+getSessaoAtual()</text><!--MD5=[72136138052d025cffdce3c22fbd185f]
class Product--><rect codeLine="30" fill="#FEFECE" filter="url(#fpz3cgoa7ytaa)" height="163.7695" id="Product" style="stroke:#A80036;stroke-width:1.875;" width="125" x="268.75" y="437.5"/><ellipse cx="302.125" cy="457.5" fill="#ADD1B2" rx="13.75" ry="13.75" style="stroke:#A80036;stroke-width:1.25;"/><path d="M304.625,453.125 Q304.8789,452.5 305.1719,452.1875 Q305.4648,451.875 305.7969,451.875 Q306.3828,451.875 306.7539,452.2266 Q307.125,452.5781 307.125,453.3984 L307.125,455.3516 Q307.125,456.1719 306.7734,456.5234 Q306.4219,456.875 305.875,456.875 Q305.3867,456.875 305.0742,456.6602 Q304.7617,456.4453 304.625,455.8789 Q304.5664,455.4883 304.3516,455.2734 Q303.9609,454.8633 303.2578,454.6289 Q302.5547,454.375 301.8516,454.375 Q300.9727,454.375 300.2305,454.7266 Q299.5078,455.0781 298.9414,455.8594 Q298.375,456.6406 298.375,457.7148 L298.375,458.8672 Q298.375,460.1563 299.4297,461.0156 Q300.4844,461.875 302.3594,461.875 Q303.4727,461.875 304.2539,461.6211 Q304.7031,461.4844 305.2109,461.0352 Q305.543,460.7813 305.7188,460.7031 Q305.8945,460.625 306.1094,460.625 Q306.5195,460.625 306.8125,460.957 Q307.125,461.2695 307.125,461.7188 Q307.125,462.1484 306.6953,462.6563 Q306.0703,463.3984 305.0742,463.8086 Q303.7656,464.375 302.1641,464.375 Q300.2891,464.375 298.7852,463.6328 Q297.5742,463.0469 296.7148,461.7773 Q295.875,460.5078 295.875,459.0039 L295.875,457.6367 Q295.875,456.0742 296.6172,454.707 Q297.3789,453.3398 298.6875,452.6172 Q300.0156,451.875 301.5,451.875 Q302.3984,451.875 303.1797,452.1875 Q303.9609,452.5 304.625,453.125 Z " fill="#000000"/><text fill="#000000" font-family="sans-serif" font-size="15" lengthAdjust="spacingAndGlyphs" textLength="52.5" x="322.875" y="463.6377">Product</text><line style="stroke:#A80036;stroke-width:1.875;" x1="270" x2="392.5" y1="477.5" y2="477.5"/><text fill="#000000" font-family="sans-serif" font-size="13.75" lengthAdjust="spacingAndGlyphs" textLength="100" x="276.25" y="496.7737">-String productId</text><text fill="#000000" font-family="sans-serif" font-size="13.75" lengthAdjust="spacingAndGlyphs" textLength="76.25" x="276.25" y="514.0686">-String name</text><text fill="#000000" font-family="sans-serif" font-size="13.75" lengthAdjust="spacingAndGlyphs" textLength="110" x="276.25" y="531.3635">-String description</text><text fill="#000000" font-family="sans-serif" font-size="13.75" lengthAdjust="spacingAndGlyphs" textLength="80" x="276.25" y="548.6584">-Double price</text><line style="stroke:#A80036;stroke-width:1.875;" x1="270" x2="392.5" y1="556.6797" y2="556.6797"/><text fill="#000000" font-family="sans-serif" font-size="13.75" lengthAdjust="spacingAndGlyphs" textLength="47.5" x="276.25" y="575.9534">+save()</text><text fill="#000000" font-family="sans-serif" font-size="13.75" lengthAdjust="spacingAndGlyphs" textLength="53.75" x="276.25" y="593.2483">+delete()</text><!--MD5=[9c2d4e25e0086734e4ce1577f70bbb4e]
class ProductRegistration--><rect codeLine="41" fill="#FEFECE" filter="url(#fpz3cgoa7ytaa)" height="129.1797" id="ProductRegistration" style="stroke:#A80036;stroke-width:1.875;" width="242.5" x="40" y="746.25"/><ellipse cx="88.5625" cy="766.25" fill="#ADD1B2" rx="13.75" ry="13.75" style="stroke:#A80036;stroke-width:1.25;"/><path d="M91.0625,761.875 Q91.3164,761.25 91.6094,760.9375 Q91.9023,760.625 92.2344,760.625 Q92.8203,760.625 93.1914,760.9766 Q93.5625,761.3281 93.5625,762.1484 L93.5625,764.1016 Q93.5625,764.9219 93.2109,765.2734 Q92.8594,765.625 92.3125,765.625 Q91.8242,765.625 91.5117,765.4102 Q91.1992,765.1953 91.0625,764.6289 Q91.0039,764.2383 90.7891,764.0234 Q90.3984,763.6133 89.6953,763.3789 Q88.9922,763.125 88.2891,763.125 Q87.4102,763.125 86.668,763.4766 Q85.9453,763.8281 85.3789,764.6094 Q84.8125,765.3906 84.8125,766.4648 L84.8125,767.6172 Q84.8125,768.9063 85.8672,769.7656 Q86.9219,770.625 88.7969,770.625 Q89.9102,770.625 90.6914,770.3711 Q91.1406,770.2344 91.6484,769.7852 Q91.9805,769.5313 92.1563,769.4531 Q92.332,769.375 92.5469,769.375 Q92.957,769.375 93.25,769.707 Q93.5625,770.0195 93.5625,770.4688 Q93.5625,770.8984 93.1328,771.4063 Q92.5078,772.1484 91.5117,772.5586 Q90.2031,773.125 88.6016,773.125 Q86.7266,773.125 85.2227,772.3828 Q84.0117,771.7969 83.1523,770.5273 Q82.3125,769.2578 82.3125,767.7539 L82.3125,766.3867 Q82.3125,764.8242 83.0547,763.457 Q83.8164,762.0898 85.125,761.3672 Q86.4531,760.625 87.9375,760.625 Q88.8359,760.625 89.6172,760.9375 Q90.3984,761.25 91.0625,761.875 Z " fill="#000000"/><text fill="#000000" font-family="sans-serif" font-size="15" lengthAdjust="spacingAndGlyphs" textLength="136.25" x="112.6875" y="772.3877">ProductRegistration</text><line style="stroke:#A80036;stroke-width:1.875;" x1="41.25" x2="281.25" y1="786.25" y2="786.25"/><line style="stroke:#A80036;stroke-width:1.875;" x1="41.25" x2="281.25" y1="796.25" y2="796.25"/><text fill="#000000" font-family="sans-serif" font-size="13.75" lengthAdjust="spacingAndGlyphs" textLength="227.5" x="47.5" y="815.5237">+newProduct(name,description,price)</text><text fill="#000000" font-family="sans-serif" font-size="13.75" lengthAdjust="spacingAndGlyphs" textLength="156.25" x="47.5" y="832.8186">+validateProduct(product)</text><text fill="#000000" font-family="sans-serif" font-size="13.75" lengthAdjust="spacingAndGlyphs" textLength="132.5" x="47.5" y="850.1135">+addProduct(product)</text><text fill="#000000" font-family="sans-serif" font-size="13.75" lengthAdjust="spacingAndGlyphs" textLength="156.25" x="47.5" y="867.4084">+registerProduct(product)</text><!--MD5=[14642d0f06463c9c71840e97f6df5111]
class ProductDB--><rect codeLine="50" fill="#FEFECE" filter="url(#fpz3cgoa7ytaa)" height="163.7695" id="ProductDB" style="stroke:#A80036;stroke-width:1.875;" width="320" x="352.5" y="728.75"/><ellipse cx="470.3125" cy="748.75" fill="#ADD1B2" rx="13.75" ry="13.75" style="stroke:#A80036;stroke-width:1.25;"/><path d="M472.8125,744.375 Q473.0664,743.75 473.3594,743.4375 Q473.6523,743.125 473.9844,743.125 Q474.5703,743.125 474.9414,743.4766 Q475.3125,743.8281 475.3125,744.6484 L475.3125,746.6016 Q475.3125,747.4219 474.9609,747.7734 Q474.6094,748.125 474.0625,748.125 Q473.5742,748.125 473.2617,747.9102 Q472.9492,747.6953 472.8125,747.1289 Q472.7539,746.7383 472.5391,746.5234 Q472.1484,746.1133 471.4453,745.8789 Q470.7422,745.625 470.0391,745.625 Q469.1602,745.625 468.418,745.9766 Q467.6953,746.3281 467.1289,747.1094 Q466.5625,747.8906 466.5625,748.9648 L466.5625,750.1172 Q466.5625,751.4063 467.6172,752.2656 Q468.6719,753.125 470.5469,753.125 Q471.6602,753.125 472.4414,752.8711 Q472.8906,752.7344 473.3984,752.2852 Q473.7305,752.0313 473.9063,751.9531 Q474.082,751.875 474.2969,751.875 Q474.707,751.875 475,752.207 Q475.3125,752.5195 475.3125,752.9688 Q475.3125,753.3984 474.8828,753.9063 Q474.2578,754.6484 473.2617,755.0586 Q471.9531,755.625 470.3516,755.625 Q468.4766,755.625 466.9727,754.8828 Q465.7617,754.2969 464.9023,753.0273 Q464.0625,751.7578 464.0625,750.2539 L464.0625,748.8867 Q464.0625,747.3242 464.8047,745.957 Q465.5664,744.5898 466.875,743.8672 Q468.2031,743.125 469.6875,743.125 Q470.5859,743.125 471.3672,743.4375 Q472.1484,743.75 472.8125,744.375 Z " fill="#000000"/><text fill="#000000" font-family="sans-serif" font-size="15" lengthAdjust="spacingAndGlyphs" textLength="73.75" x="495.9375" y="754.8877">ProductDB</text><line style="stroke:#A80036;stroke-width:1.875;" x1="353.75" x2="671.25" y1="768.75" y2="768.75"/><line style="stroke:#A80036;stroke-width:1.875;" x1="353.75" x2="671.25" y1="778.75" y2="778.75"/><text fill="#000000" font-family="sans-serif" font-size="13.75" lengthAdjust="spacingAndGlyphs" textLength="92.5" x="360" y="798.0237">+getProduct(id)</text><text fill="#000000" font-family="sans-serif" font-size="13.75" lengthAdjust="spacingAndGlyphs" textLength="132.5" x="360" y="815.3186">+addProduct(product)</text><text fill="#000000" font-family="sans-serif" font-size="13.75" lengthAdjust="spacingAndGlyphs" textLength="282.5" x="360" y="832.6135">+addProduct(productId,name,description,price)</text><text fill="#000000" font-family="sans-serif" font-size="13.75" lengthAdjust="spacingAndGlyphs" textLength="118.75" x="360" y="849.9084">+removeProduct(id)</text><text fill="#000000" font-family="sans-serif" font-size="13.75" lengthAdjust="spacingAndGlyphs" textLength="291.25" x="360" y="867.2034">+updateProduct(product,name,description,price)</text><text fill="#000000" font-family="sans-serif" font-size="13.75" lengthAdjust="spacingAndGlyphs" textLength="305" x="360" y="884.4983">+udpdateProduc(productId,name,description,price)</text><!--MD5=[4b2d61224b33971326a22fe5d809d926]
class DataHandler--><rect codeLine="59" fill="#FEFECE" filter="url(#fpz3cgoa7ytaa)" height="232.9492" id="DataHandler" style="stroke:#A80036;stroke-width:1.875;" width="161.25" x="431.875" y="968.75"/><ellipse cx="465.8125" cy="988.75" fill="#ADD1B2" rx="13.75" ry="13.75" style="stroke:#A80036;stroke-width:1.25;"/><path d="M468.3125,984.375 Q468.5664,983.75 468.8594,983.4375 Q469.1523,983.125 469.4844,983.125 Q470.0703,983.125 470.4414,983.4766 Q470.8125,983.8281 470.8125,984.6484 L470.8125,986.6016 Q470.8125,987.4219 470.4609,987.7734 Q470.1094,988.125 469.5625,988.125 Q469.0742,988.125 468.7617,987.9102 Q468.4492,987.6953 468.3125,987.1289 Q468.2539,986.7383 468.0391,986.5234 Q467.6484,986.1133 466.9453,985.8789 Q466.2422,985.625 465.5391,985.625 Q464.6602,985.625 463.918,985.9766 Q463.1953,986.3281 462.6289,987.1094 Q462.0625,987.8906 462.0625,988.9648 L462.0625,990.1172 Q462.0625,991.4063 463.1172,992.2656 Q464.1719,993.125 466.0469,993.125 Q467.1602,993.125 467.9414,992.8711 Q468.3906,992.7344 468.8984,992.2852 Q469.2305,992.0313 469.4063,991.9531 Q469.582,991.875 469.7969,991.875 Q470.207,991.875 470.5,992.207 Q470.8125,992.5195 470.8125,992.9688 Q470.8125,993.3984 470.3828,993.9063 Q469.7578,994.6484 468.7617,995.0586 Q467.4531,995.625 465.8516,995.625 Q463.9766,995.625 462.4727,994.8828 Q461.2617,994.2969 460.4023,993.0273 Q459.5625,991.7578 459.5625,990.2539 L459.5625,988.8867 Q459.5625,987.3242 460.3047,985.957 Q461.0664,984.5898 462.375,983.8672 Q463.7031,983.125 465.1875,983.125 Q466.0859,983.125 466.8672,983.4375 Q467.6484,983.75 468.3125,984.375 Z " fill="#000000"/><text fill="#000000" font-family="sans-serif" font-size="15" lengthAdjust="spacingAndGlyphs" textLength="87.5" x="486.6875" y="994.8877">DataHandler</text><line style="stroke:#A80036;stroke-width:1.875;" x1="433.125" x2="591.875" y1="1008.75" y2="1008.75"/><text fill="#000000" font-family="sans-serif" font-size="13.75" lengthAdjust="spacingAndGlyphs" textLength="46.25" x="439.375" y="1028.0237">-jdbcUrl</text><text fill="#000000" font-family="sans-serif" font-size="13.75" lengthAdjust="spacingAndGlyphs" textLength="65" x="439.375" y="1045.3186">-username</text><text fill="#000000" font-family="sans-serif" font-size="13.75" lengthAdjust="spacingAndGlyphs" textLength="67.5" x="439.375" y="1062.6135">-password</text><text fill="#000000" font-family="sans-serif" font-size="13.75" lengthAdjust="spacingAndGlyphs" textLength="71.25" x="439.375" y="1079.9084">-connection</text><text fill="#000000" font-family="sans-serif" font-size="13.75" lengthAdjust="spacingAndGlyphs" textLength="51.25" x="439.375" y="1097.2034">-callStmt</text><text fill="#000000" font-family="sans-serif" font-size="13.75" lengthAdjust="spacingAndGlyphs" textLength="30" x="439.375" y="1114.4983">-rSet</text><line style="stroke:#A80036;stroke-width:1.875;" x1="433.125" x2="591.875" y1="1122.5195" y2="1122.5195"/><text fill="#000000" font-family="sans-serif" font-size="13.75" lengthAdjust="spacingAndGlyphs" textLength="146.25" x="439.375" y="1141.7932">+scriptRunner(fileName)</text><text fill="#000000" font-family="sans-serif" font-size="13.75" lengthAdjust="spacingAndGlyphs" textLength="115" x="439.375" y="1159.0881">+openConnection()</text><text fill="#000000" font-family="sans-serif" font-size="13.75" lengthAdjust="spacingAndGlyphs" textLength="65" x="439.375" y="1176.3831">+closeAll()</text><text fill="#000000" font-family="sans-serif" font-size="13.75" lengthAdjust="spacingAndGlyphs" textLength="103.75" x="439.375" y="1193.678">+getConnection()</text><!--MD5=[e1833de5805bf16c943ad78fe634bd0c]
link ProductRegistrationUI to ProductRegistrationController--><path codeLine="74" d="M506.25,112.6125 C506.25,138.8875 506.25,178.5625 506.25,211.975 " fill="none" id="ProductRegistrationUI-to-ProductRegistrationController" style="stroke:#A80036;stroke-width:1.25;stroke-dasharray:7.0,7.0;"/><polygon fill="#A80036" points="506.25,218.5625,511.25,207.3125,506.25,212.3125,501.25,207.3125,506.25,218.5625" style="stroke:#A80036;stroke-width:1.25;"/><!--MD5=[2f98a73801bf1c78b54c5bc1c79f3deb]
link ProductRegistrationController to Platform--><path codeLine="75" d="M352.95,320.5375 C315.4375,336.1125 277.225,356.4375 246.25,382.5 C219.55,404.9625 198.5875,438.025 184.1625,465.875 " fill="none" id="ProductRegistrationController-to-Platform" style="stroke:#A80036;stroke-width:1.25;stroke-dasharray:7.0,7.0;"/><polygon fill="#A80036" points="181.1875,471.7375,190.7307,463.96,184.0111,466.1617,181.8094,459.4421,181.1875,471.7375" style="stroke:#A80036;stroke-width:1.25;"/><!--MD5=[cd3ec08f147c90fd71182ddbe54d59d8]
link ProductRegistrationController to ApplicationPot--><path codeLine="76" d="M555.075,331.55 C568.775,347.675 583.4125,365.5375 596.25,382.5 C616.625,409.4375 637.7875,440.65 654.5875,466.3375 " fill="none" id="ProductRegistrationController-to-ApplicationPot" style="stroke:#A80036;stroke-width:1.25;stroke-dasharray:7.0,7.0;"/><polygon fill="#A80036" points="658.1,471.725,656.1451,459.5701,654.6869,466.4892,647.7678,465.0311,658.1,471.725" style="stroke:#A80036;stroke-width:1.25;"/><!--MD5=[daeca3eb50266c6032f12f18312ca8c2]
link ProductRegistrationController to UserSession--><path codeLine="77" d="M506.25,331.7375 C506.25,374.85 506.25,433.85 506.25,473.825 " fill="none" id="ProductRegistrationController-to-UserSession" style="stroke:#A80036;stroke-width:1.25;stroke-dasharray:7.0,7.0;"/><polygon fill="#A80036" points="506.25,480.575,511.25,469.325,506.25,474.325,501.25,469.325,506.25,480.575" style="stroke:#A80036;stroke-width:1.25;"/><!--MD5=[d66af76ceb485933559009e4f59cdc90]
link Platform to ProductRegistration--><path codeLine="78" d="M161.25,567.0125 C161.25,615.4875 161.25,691.8375 161.25,745.875 " fill="none" id="Platform-ProductRegistration" style="stroke:#A80036;stroke-width:1.25;"/><polygon fill="#000000" points="167.5,658.9697,171.1737,647.6634,163.8263,647.6634,167.5,658.9697" style="stroke:#000000;stroke-width:1.25;"/><text fill="#000000" font-family="sans-serif" font-size="16.25" lengthAdjust="spacingAndGlyphs" textLength="26.25" x="178.75" y="659.3689">has</text><text fill="#000000" font-family="sans-serif" font-size="16.25" lengthAdjust="spacingAndGlyphs" textLength="8.75" x="151.7754" y="593.498">1</text><text fill="#000000" font-family="sans-serif" font-size="16.25" lengthAdjust="spacingAndGlyphs" textLength="8.75" x="151.9121" y="732.7">1</text><!--MD5=[3952d548186971eff118ff5187ac3af9]
link ProductRegistration to Product--><path codeLine="79" d="M198.5625,745.9875 C223.5875,703.4875 256.75,647.1625 283.675,601.4375 " fill="none" id="ProductRegistration-Product" style="stroke:#A80036;stroke-width:1.25;"/><polygon fill="#000000" points="266.9212,647.334,258.0188,655.2129,264.3501,658.9408,266.9212,647.334" style="stroke:#000000;stroke-width:1.25;"/><text fill="#000000" font-family="sans-serif" font-size="16.25" lengthAdjust="spacingAndGlyphs" textLength="56.25" x="275" y="659.3689">Creates</text><text fill="#000000" font-family="sans-serif" font-size="16.25" lengthAdjust="spacingAndGlyphs" textLength="8.75" x="194.2385" y="732.8276">1</text><text fill="#000000" font-family="sans-serif" font-size="16.25" lengthAdjust="spacingAndGlyphs" textLength="25" x="252.1043" y="628.3987">1..*</text><!--MD5=[4d2ededb5fd28b42e6480ae60d94de4f]
link Product to ProductDB--><path codeLine="80" d="M381.975,601.4375 C405.7375,639.2875 434.0625,684.4125 458.25,722.9375 " fill="none" id="Product-to-ProductDB" style="stroke:#A80036;stroke-width:1.25;stroke-dasharray:7.0,7.0;"/><polygon fill="#A80036" points="461.7875,728.575,460.0354,716.3892,458.4622,723.2831,451.5683,721.7098,461.7875,728.575" style="stroke:#A80036;stroke-width:1.25;"/><!--MD5=[5e392f7198e785fc2bbee8f85993c80f]
link ProductDB to DataHandler--><path codeLine="81" d="M512.5,892.7125 C512.5,914.4625 512.5,938.475 512.5,961.9125 " fill="none" id="ProductDB-to-DataHandler" style="stroke:#A80036;stroke-width:1.25;stroke-dasharray:7.0,7.0;"/><polygon fill="#A80036" points="512.5,968.5125,517.5,957.2625,512.5,962.2625,507.5,957.2625,512.5,968.5125" style="stroke:#A80036;stroke-width:1.25;"/><!--MD5=[fff51fa7aaeb87af384c7841ae98879a]
@startuml
skinparam classAttributeIconSize 0
package "UI" #DDDDDD {
    class ProductRegistrationUI{
    }
}

package "Controller" #DDDDDD {
    class ProductRegistrationController{
        +addProduct(name,description,price)
        +updateProduct(product,name,description,price)
        +deleteProduct(name)
    }
}

package "Model" #DDDDDD {
    class Platform {
        -String designation
        +getProductReg()
    }

    class UserSession {
        +getEmailUtilizador()
    }

    class ApplicationPot {
        +static getInstance()
        +getSessaoAtual()
    }

    class Product{
        -String productId
        -String name
        -String description
        -Double price
        +save()
        +delete()
    }
}

package "Registration" #DDDDDD {
    class ProductRegistration{
        +newProduct(name,description,price)
        +validateProduct(product)
        +addProduct(product)
        +registerProduct(product)
    }
}

package "Data" #DDDDDD {
    class ProductDB{
        +getProduct(id)
        +addProduct(product)
        +addProduct(productId,name,description,price)
        +removeProduct(id)
        +updateProduct(product,name,description,price)
        +udpdateProduc(productId,name,description,price)
    }

    class DataHandler{
        -jdbcUrl
        -username
        -password
        -connection
        -callStmt
        -rSet
        +scriptRunner(fileName)
        +openConnection()
        +closeAll()
        +getConnection()
    }
}


ProductRegistrationUI ..> ProductRegistrationController
ProductRegistrationController ..> Platform
ProductRegistrationController ..> ApplicationPot
ProductRegistrationController ..> UserSession
Platform "1" - - "1" ProductRegistration: has >
ProductRegistration "1" - - "1..*" Product: Creates >
Product ..> ProductDB
ProductDB ..> DataHandler
@enduml

PlantUML version 1.2020.23(Sun Dec 13 19:14:58 GMT 2020)
(GPL source distribution)
Java Runtime: OpenJDK Runtime Environment
JVM: OpenJDK 64-Bit Server VM
Default Encoding: Cp1252
Language: pt
Country: PT
--></g></svg>