<?xml version="1.0" encoding="UTF-8" standalone="no"?><svg xmlns="http://www.w3.org/2000/svg" xmlns:xlink="http://www.w3.org/1999/xlink" contentScriptType="application/ecmascript" contentStyleType="text/css" height="251px" preserveAspectRatio="none" style="width:564px;height:251px;" version="1.1" viewBox="0 0 564 251" width="564px" zoomAndPan="magnify"><defs><filter height="300%" id="f1f6ohtutkcqk0" width="300%" x="-1" y="-1"><feGaussianBlur result="blurOut" stdDeviation="2.0"/><feColorMatrix in="blurOut" result="blurOut2" type="matrix" values="0 0 0 0 0 0 0 0 0 0 0 0 0 0 0 0 0 0 .4 0"/><feOffset dx="4.0" dy="4.0" in="blurOut2" result="blurOut3"/><feBlend in="SourceGraphic" in2="blurOut3" mode="normal"/></filter></defs><g><!--MD5=[fa1e3283224feb76407c84b7e90ed808]
entity Database--><path d="M22.5,18 C22.5,8 63,8 63,8 C63,8 103.5,8 103.5,18 L103.5,44.6094 C103.5,54.6094 63,54.6094 63,54.6094 C63,54.6094 22.5,54.6094 22.5,44.6094 L22.5,18 " fill="#FFFFFF" filter="url(#f1f6ohtutkcqk0)" style="stroke: #000000; stroke-width: 1.5;"/><path d="M22.5,18 C22.5,28 63,28 63,28 C63,28 103.5,28 103.5,18 " fill="none" style="stroke: #000000; stroke-width: 1.5;"/><text fill="#000000" font-family="sans-serif" font-size="14" lengthAdjust="spacingAndGlyphs" textLength="61" x="32.5" y="46.5332">Database</text><!--MD5=[7f2a9fafcebe4f099f71398fd3e2ed00]
class Pharmacy--><rect fill="#FEFECE" filter="url(#f1f6ohtutkcqk0)" height="95.3438" id="Pharmacy" style="stroke: #A80036; stroke-width: 1.5;" width="96" x="255" y="51"/><ellipse cx="274.05" cy="67" fill="#ADD1B2" rx="11" ry="11" style="stroke: #A80036; stroke-width: 1.0;"/><path d="M276.05,63.5 Q276.2531,63 276.4875,62.75 Q276.7219,62.5 276.9875,62.5 Q277.4563,62.5 277.7531,62.7813 Q278.05,63.0625 278.05,63.7188 L278.05,65.2813 Q278.05,65.9375 277.7688,66.2188 Q277.4875,66.5 277.05,66.5 Q276.6594,66.5 276.4094,66.3281 Q276.1594,66.1563 276.05,65.7031 Q276.0031,65.3906 275.8313,65.2188 Q275.5188,64.8906 274.9563,64.7031 Q274.3938,64.5 273.8313,64.5 Q273.1281,64.5 272.5344,64.7813 Q271.9563,65.0625 271.5031,65.6875 Q271.05,66.3125 271.05,67.1719 L271.05,68.0938 Q271.05,69.125 271.8938,69.8125 Q272.7375,70.5 274.2375,70.5 Q275.1281,70.5 275.7531,70.2969 Q276.1125,70.1875 276.5188,69.8281 Q276.7844,69.625 276.925,69.5625 Q277.0656,69.5 277.2375,69.5 Q277.5656,69.5 277.8,69.7656 Q278.05,70.0156 278.05,70.375 Q278.05,70.7188 277.7063,71.125 Q277.2063,71.7188 276.4094,72.0469 Q275.3625,72.5 274.0813,72.5 Q272.5813,72.5 271.3781,71.9063 Q270.4094,71.4375 269.7219,70.4219 Q269.05,69.4063 269.05,68.2031 L269.05,67.1094 Q269.05,65.8594 269.6438,64.7656 Q270.2531,63.6719 271.3,63.0938 Q272.3625,62.5 273.55,62.5 Q274.2688,62.5 274.8938,62.75 Q275.5188,63 276.05,63.5 Z "/><text fill="#000000" font-family="sans-serif" font-size="12" lengthAdjust="spacingAndGlyphs" textLength="55" x="288.95" y="71.9102">Pharmacy</text><line style="stroke: #A80036; stroke-width: 1.5;" x1="256" x2="350" y1="83" y2="83"/><text fill="#000000" font-family="sans-serif" font-size="11" lengthAdjust="spacingAndGlyphs" textLength="26" x="261" y="98.4189">-int id</text><text fill="#000000" font-family="sans-serif" font-size="11" lengthAdjust="spacingAndGlyphs" textLength="61" x="261" y="112.2549">-String name</text><text fill="#000000" font-family="sans-serif" font-size="11" lengthAdjust="spacingAndGlyphs" textLength="77" x="261" y="126.0908">-int parkingSlots</text><text fill="#000000" font-family="sans-serif" font-size="11" lengthAdjust="spacingAndGlyphs" textLength="84" x="261" y="139.9268">-int chargingSlots</text><!--MD5=[2e3f1e60e74253ff42e47f8bfdb04ee2]
class Drone--><rect fill="#FEFECE" filter="url(#f1f6ohtutkcqk0)" height="150.6875" id="Drone" style="stroke: #A80036; stroke-width: 1.5;" width="114" x="6" y="90"/><ellipse cx="42.6" cy="106" fill="#ADD1B2" rx="11" ry="11" style="stroke: #A80036; stroke-width: 1.0;"/><path d="M44.6,102.5 Q44.8031,102 45.0375,101.75 Q45.2719,101.5 45.5375,101.5 Q46.0063,101.5 46.3031,101.7813 Q46.6,102.0625 46.6,102.7188 L46.6,104.2813 Q46.6,104.9375 46.3188,105.2188 Q46.0375,105.5 45.6,105.5 Q45.2094,105.5 44.9594,105.3281 Q44.7094,105.1563 44.6,104.7031 Q44.5531,104.3906 44.3813,104.2188 Q44.0688,103.8906 43.5063,103.7031 Q42.9438,103.5 42.3813,103.5 Q41.6781,103.5 41.0844,103.7813 Q40.5063,104.0625 40.0531,104.6875 Q39.6,105.3125 39.6,106.1719 L39.6,107.0938 Q39.6,108.125 40.4438,108.8125 Q41.2875,109.5 42.7875,109.5 Q43.6781,109.5 44.3031,109.2969 Q44.6625,109.1875 45.0688,108.8281 Q45.3344,108.625 45.475,108.5625 Q45.6156,108.5 45.7875,108.5 Q46.1156,108.5 46.35,108.7656 Q46.6,109.0156 46.6,109.375 Q46.6,109.7188 46.2563,110.125 Q45.7563,110.7188 44.9594,111.0469 Q43.9125,111.5 42.6313,111.5 Q41.1313,111.5 39.9281,110.9063 Q38.9594,110.4375 38.2719,109.4219 Q37.6,108.4063 37.6,107.2031 L37.6,106.1094 Q37.6,104.8594 38.1938,103.7656 Q38.8031,102.6719 39.85,102.0938 Q40.9125,101.5 42.1,101.5 Q42.8188,101.5 43.4438,101.75 Q44.0688,102 44.6,102.5 Z "/><text fill="#000000" font-family="sans-serif" font-size="12" lengthAdjust="spacingAndGlyphs" textLength="34" x="61.4" y="110.9102">Drone</text><line style="stroke: #A80036; stroke-width: 1.5;" x1="7" x2="119" y1="122" y2="122"/><text fill="#000000" font-family="sans-serif" font-size="11" lengthAdjust="spacingAndGlyphs" textLength="26" x="12" y="137.4189">-int id</text><text fill="#000000" font-family="sans-serif" font-size="11" lengthAdjust="spacingAndGlyphs" textLength="84" x="12" y="151.2549">-float batteryPerc</text><text fill="#000000" font-family="sans-serif" font-size="11" lengthAdjust="spacingAndGlyphs" textLength="102" x="12" y="165.0908">-String charginStatus</text><text fill="#000000" font-family="sans-serif" font-size="11" lengthAdjust="spacingAndGlyphs" textLength="67" x="12" y="178.9268">-float potency</text><text fill="#000000" font-family="sans-serif" font-size="11" lengthAdjust="spacingAndGlyphs" textLength="61" x="12" y="192.7627">-float weight</text><text fill="#000000" font-family="sans-serif" font-size="11" lengthAdjust="spacingAndGlyphs" textLength="94" x="12" y="206.5986">-int batteryCapacity</text><text fill="#000000" font-family="sans-serif" font-size="11" lengthAdjust="spacingAndGlyphs" textLength="86" x="12" y="220.4346">-float maxPayload</text><text fill="#000000" font-family="sans-serif" font-size="11" lengthAdjust="spacingAndGlyphs" textLength="99" x="12" y="234.2705">-float batteryVoltage</text><!--MD5=[0f39e4cb6f03951afbf6d14bd2505654]
class Address--><rect fill="#FEFECE" filter="url(#f1f6ohtutkcqk0)" height="136.8516" id="Address" style="stroke: #A80036; stroke-width: 1.5;" width="106" x="447" y="30"/><ellipse cx="474.6" cy="46" fill="#ADD1B2" rx="11" ry="11" style="stroke: #A80036; stroke-width: 1.0;"/><path d="M476.6,42.5 Q476.8031,42 477.0375,41.75 Q477.2719,41.5 477.5375,41.5 Q478.0063,41.5 478.3031,41.7813 Q478.6,42.0625 478.6,42.7188 L478.6,44.2813 Q478.6,44.9375 478.3188,45.2188 Q478.0375,45.5 477.6,45.5 Q477.2094,45.5 476.9594,45.3281 Q476.7094,45.1563 476.6,44.7031 Q476.5531,44.3906 476.3813,44.2188 Q476.0688,43.8906 475.5063,43.7031 Q474.9438,43.5 474.3813,43.5 Q473.6781,43.5 473.0844,43.7813 Q472.5063,44.0625 472.0531,44.6875 Q471.6,45.3125 471.6,46.1719 L471.6,47.0938 Q471.6,48.125 472.4438,48.8125 Q473.2875,49.5 474.7875,49.5 Q475.6781,49.5 476.3031,49.2969 Q476.6625,49.1875 477.0688,48.8281 Q477.3344,48.625 477.475,48.5625 Q477.6156,48.5 477.7875,48.5 Q478.1156,48.5 478.35,48.7656 Q478.6,49.0156 478.6,49.375 Q478.6,49.7188 478.2563,50.125 Q477.7563,50.7188 476.9594,51.0469 Q475.9125,51.5 474.6313,51.5 Q473.1313,51.5 471.9281,50.9063 Q470.9594,50.4375 470.2719,49.4219 Q469.6,48.4063 469.6,47.2031 L469.6,46.1094 Q469.6,44.8594 470.1938,43.7656 Q470.8031,42.6719 471.85,42.0938 Q472.9125,41.5 474.1,41.5 Q474.8188,41.5 475.4438,41.75 Q476.0688,42 476.6,42.5 Z "/><text fill="#000000" font-family="sans-serif" font-size="12" lengthAdjust="spacingAndGlyphs" textLength="46" x="491.4" y="50.9102">Address</text><line style="stroke: #A80036; stroke-width: 1.5;" x1="448" x2="552" y1="62" y2="62"/><text fill="#000000" font-family="sans-serif" font-size="11" lengthAdjust="spacingAndGlyphs" textLength="71" x="453" y="77.4189">-float longitude</text><text fill="#000000" font-family="sans-serif" font-size="11" lengthAdjust="spacingAndGlyphs" textLength="62" x="453" y="91.2549">-float latitude</text><text fill="#000000" font-family="sans-serif" font-size="11" lengthAdjust="spacingAndGlyphs" textLength="94" x="453" y="105.0908">-String doorNumber</text><text fill="#000000" font-family="sans-serif" font-size="11" lengthAdjust="spacingAndGlyphs" textLength="90" x="453" y="118.9268">-String streetName</text><text fill="#000000" font-family="sans-serif" font-size="11" lengthAdjust="spacingAndGlyphs" textLength="89" x="453" y="132.7627">-String postalCode</text><text fill="#000000" font-family="sans-serif" font-size="11" lengthAdjust="spacingAndGlyphs" textLength="68" x="453" y="146.5986">-String locality</text><text fill="#000000" font-family="sans-serif" font-size="11" lengthAdjust="spacingAndGlyphs" textLength="72" x="453" y="160.4346">-String country</text><!--MD5=[51d7b9a785c9fb041ca400474ed1d998]
link Database to Pharmacy--><path d="M103.568,42.639 C145.205,54.36 210.718,72.803 254.968,85.26 " fill="none" id="Database-Pharmacy" style="stroke: #A80036; stroke-width: 1.0;"/><text fill="#000000" font-family="sans-serif" font-size="13" lengthAdjust="spacingAndGlyphs" textLength="21" x="170.5" y="53.9951">has</text><polygon fill="#000000" points="194.5,47.1758,200.5,50.1758,194.5,53.1758,194.5,47.1758" style="stroke: #000000; stroke-width: 1.0;"/><text fill="#000000" font-family="sans-serif" font-size="13" lengthAdjust="spacingAndGlyphs" textLength="7" x="111.4176" y="59.6094">1</text><text fill="#000000" font-family="sans-serif" font-size="13" lengthAdjust="spacingAndGlyphs" textLength="5" x="241.9145" y="97.9206">*</text><!--MD5=[0b0bc9c7f03600b7866f5e5adba791e4]
link Drone to Pharmacy--><path d="M120.101,149.7068 C161.055,138.178 215.956,122.722 254.695,111.817 " fill="none" id="Drone-Pharmacy" style="stroke: #A80036; stroke-width: 1.0;"/><text fill="#000000" font-family="sans-serif" font-size="13" lengthAdjust="spacingAndGlyphs" textLength="60" x="151" y="118.9951">belongs to</text><polygon fill="#000000" points="214,112.1758,220,115.1758,214,118.1758,214,112.1758" style="stroke: #000000; stroke-width: 1.0;"/><text fill="#000000" font-family="sans-serif" font-size="13" lengthAdjust="spacingAndGlyphs" textLength="5" x="128.1099" y="162.1993">*</text><text fill="#000000" font-family="sans-serif" font-size="13" lengthAdjust="spacingAndGlyphs" textLength="7" x="240.0861" y="128.4436">1</text><!--MD5=[89baec1bfb4a213750f7c61516e0a0f1]
link Pharmacy to Address--><path d="M351.204,98.5 C380.059,98.5 417.008,98.5 446.744,98.5 " fill="none" id="Pharmacy-Address" style="stroke: #A80036; stroke-width: 1.0;"/><text fill="#000000" font-family="sans-serif" font-size="13" lengthAdjust="spacingAndGlyphs" textLength="21" x="382" y="94.9951">has</text><polygon fill="#000000" points="406,88.1758,412,91.1758,406,94.1758,406,88.1758" style="stroke: #000000; stroke-width: 1.0;"/><text fill="#000000" font-family="sans-serif" font-size="13" lengthAdjust="spacingAndGlyphs" textLength="7" x="359.1212" y="113.2207">1</text><text fill="#000000" font-family="sans-serif" font-size="13" lengthAdjust="spacingAndGlyphs" textLength="7" x="432.1174" y="113.1037">1</text><!--MD5=[48e3c22ac922644a653b11359dcc433a]
@startuml
skinparam classAttributeIconSize 0
hide methods
left to right direction

database Database {
}

class Pharmacy {
  -int id
  -String name
  -int parkingSlots
  -int chargingSlots
}

class Drone{
  -int id
  -float batteryPerc
  -String charginStatus
  -float potency
  -float weight
  -int batteryCapacity
  -float maxPayload
  -float batteryVoltage
}

class Address{
  -float longitude
  -float latitude
  -String doorNumber
  -String streetName
  -String postalCode
  -String locality
  -String country
}



Database "1" - - "*" Pharmacy : has >
Drone "*" - - "1" Pharmacy : belongs to >
Pharmacy "1" - - "1" Address : has >
@enduml

PlantUML version 1.2020.09(Sun May 10 11:51:06 BST 2020)
(GPL source distribution)
Java Runtime: OpenJDK Runtime Environment
JVM: OpenJDK 64-Bit Server VM
Java Version: 11.0.6+8-b765.40
Operating System: Windows 10
Default Encoding: Cp1252
Language: pt
Country: PT
--></g></svg>