<?xml version="1.0" encoding="UTF-8" standalone="no"?><svg xmlns="http://www.w3.org/2000/svg" xmlns:xlink="http://www.w3.org/1999/xlink" contentScriptType="application/ecmascript" contentStyleType="text/css" height="1441px" preserveAspectRatio="none" style="width:974px;height:1441px;" version="1.1" viewBox="0 0 974 1441" width="974px" zoomAndPan="magnify"><defs><filter height="300%" id="fdtjtcr2tpld" width="300%" x="-1" y="-1"><feGaussianBlur result="blurOut" stdDeviation="2.0"/><feColorMatrix in="blurOut" result="blurOut2" type="matrix" values="0 0 0 0 0 0 0 0 0 0 0 0 0 0 0 0 0 0 .4 0"/><feOffset dx="4.0" dy="4.0" in="blurOut2" result="blurOut3"/><feBlend in="SourceGraphic" in2="blurOut3" mode="normal"/></filter></defs><g><!--MD5=[9681dc6e01e10c6b4fe06895ae94f592]
cluster UI--><polygon fill="#DDDDDD" filter="url(#fdtjtcr2tpld)" points="211,24,231,24,238,47.6094,369,47.6094,369,124,211,124,211,24" style="stroke: #000000; stroke-width: 1.5;"/><line style="stroke: #000000; stroke-width: 1.5;" x1="211" x2="238" y1="47.6094" y2="47.6094"/><text fill="#000000" font-family="sans-serif" font-size="14" font-weight="bold" lengthAdjust="spacingAndGlyphs" textLength="14" x="215" y="40.5332">UI</text><!--MD5=[1f2cfc53d9d308f53762fd0fcbaa4873]
cluster Controller--><polygon fill="#DDDDDD" filter="url(#fdtjtcr2tpld)" points="22,157,99,157,106,180.6094,558,180.6094,558,299,22,299,22,157" style="stroke: #000000; stroke-width: 1.5;"/><line style="stroke: #000000; stroke-width: 1.5;" x1="22" x2="106" y1="180.6094" y2="180.6094"/><text fill="#000000" font-family="sans-serif" font-size="14" font-weight="bold" lengthAdjust="spacingAndGlyphs" textLength="71" x="26" y="173.5332">Controller</text><!--MD5=[15636c1ca4a123c16a2a1a8e90aca7a9]
cluster Model--><polygon fill="#DDDDDD" filter="url(#fdtjtcr2tpld)" points="121,332,171,332,178,355.6094,528,355.6094,528,1429,121,1429,121,332" style="stroke: #000000; stroke-width: 1.5;"/><line style="stroke: #000000; stroke-width: 1.5;" x1="121" x2="178" y1="355.6094" y2="355.6094"/><text fill="#000000" font-family="sans-serif" font-size="14" font-weight="bold" lengthAdjust="spacingAndGlyphs" textLength="44" x="125" y="348.5332">Model</text><!--MD5=[9dd75fd92da113d30380b27734fd2f01]
cluster Service--><polygon fill="#DDDDDD" filter="url(#fdtjtcr2tpld)" points="145,376,205,376,212,399.6094,460,399.6094,460,504,145,504,145,376" style="stroke: #000000; stroke-width: 1.5;"/><line style="stroke: #000000; stroke-width: 1.5;" x1="145" x2="212" y1="399.6094" y2="399.6094"/><text fill="#000000" font-family="sans-serif" font-size="14" font-weight="bold" lengthAdjust="spacingAndGlyphs" textLength="54" x="149" y="392.5332">Service</text><!--MD5=[f21b1f164e99c6b37934f23ad048ad54]
cluster Data--><polygon fill="#DDDDDD" filter="url(#fdtjtcr2tpld)" points="661,376,698,376,705,399.6094,952,399.6094,952,660,661,660,661,376" style="stroke: #000000; stroke-width: 1.5;"/><line style="stroke: #000000; stroke-width: 1.5;" x1="661" x2="705" y1="399.6094" y2="399.6094"/><text fill="#000000" font-family="sans-serif" font-size="14" font-weight="bold" lengthAdjust="spacingAndGlyphs" textLength="31" x="665" y="392.5332">Data</text><!--MD5=[fa1e3283224feb76407c84b7e90ed808]
entity Database--><path d="M563.5,436.5 C563.5,426.5 604,426.5 604,426.5 C604,426.5 644.5,426.5 644.5,436.5 L644.5,463.1094 C644.5,473.1094 604,473.1094 604,473.1094 C604,473.1094 563.5,473.1094 563.5,463.1094 L563.5,436.5 " fill="#FFFFFF" filter="url(#fdtjtcr2tpld)" style="stroke: #000000; stroke-width: 1.5;"/><path d="M563.5,436.5 C563.5,446.5 604,446.5 604,446.5 C604,446.5 644.5,446.5 644.5,436.5 " fill="none" style="stroke: #000000; stroke-width: 1.5;"/><text fill="#000000" font-family="sans-serif" font-size="14" lengthAdjust="spacingAndGlyphs" textLength="61" x="573.5" y="465.0332">Database</text><!--MD5=[f251daccc4f62ba7ef84cad74c4911ba]
class RegisterDroneUI--><rect fill="#FEFECE" filter="url(#fdtjtcr2tpld)" height="48" id="RegisterDroneUI" style="stroke: #A80036; stroke-width: 1.5;" width="125" x="227.5" y="60"/><ellipse cx="242.5" cy="76" fill="#ADD1B2" rx="11" ry="11" style="stroke: #A80036; stroke-width: 1.0;"/><path d="M244.5,72.5 Q244.7031,72 244.9375,71.75 Q245.1719,71.5 245.4375,71.5 Q245.9063,71.5 246.2031,71.7813 Q246.5,72.0625 246.5,72.7188 L246.5,74.2813 Q246.5,74.9375 246.2188,75.2188 Q245.9375,75.5 245.5,75.5 Q245.1094,75.5 244.8594,75.3281 Q244.6094,75.1563 244.5,74.7031 Q244.4531,74.3906 244.2813,74.2188 Q243.9688,73.8906 243.4063,73.7031 Q242.8438,73.5 242.2813,73.5 Q241.5781,73.5 240.9844,73.7813 Q240.4063,74.0625 239.9531,74.6875 Q239.5,75.3125 239.5,76.1719 L239.5,77.0938 Q239.5,78.125 240.3438,78.8125 Q241.1875,79.5 242.6875,79.5 Q243.5781,79.5 244.2031,79.2969 Q244.5625,79.1875 244.9688,78.8281 Q245.2344,78.625 245.375,78.5625 Q245.5156,78.5 245.6875,78.5 Q246.0156,78.5 246.25,78.7656 Q246.5,79.0156 246.5,79.375 Q246.5,79.7188 246.1563,80.125 Q245.6563,80.7188 244.8594,81.0469 Q243.8125,81.5 242.5313,81.5 Q241.0313,81.5 239.8281,80.9063 Q238.8594,80.4375 238.1719,79.4219 Q237.5,78.4063 237.5,77.2031 L237.5,76.1094 Q237.5,74.8594 238.0938,73.7656 Q238.7031,72.6719 239.75,72.0938 Q240.8125,71.5 242,71.5 Q242.7188,71.5 243.3438,71.75 Q243.9688,72 244.5,72.5 Z "/><text fill="#000000" font-family="sans-serif" font-size="12" lengthAdjust="spacingAndGlyphs" textLength="93" x="256.5" y="80.9102">RegisterDroneUI</text><line style="stroke: #A80036; stroke-width: 1.5;" x1="228.5" x2="351.5" y1="92" y2="92"/><line style="stroke: #A80036; stroke-width: 1.5;" x1="228.5" x2="351.5" y1="100" y2="100"/><!--MD5=[7bfe739f2abd87692f4d4d8e06b95cec]
class RegisterDroneController--><rect fill="#FEFECE" filter="url(#fdtjtcr2tpld)" height="89.5078" id="RegisterDroneController" style="stroke: #A80036; stroke-width: 1.5;" width="504" x="38" y="193"/><ellipse cx="218.25" cy="209" fill="#ADD1B2" rx="11" ry="11" style="stroke: #A80036; stroke-width: 1.0;"/><path d="M220.25,205.5 Q220.4531,205 220.6875,204.75 Q220.9219,204.5 221.1875,204.5 Q221.6563,204.5 221.9531,204.7813 Q222.25,205.0625 222.25,205.7188 L222.25,207.2813 Q222.25,207.9375 221.9688,208.2188 Q221.6875,208.5 221.25,208.5 Q220.8594,208.5 220.6094,208.3281 Q220.3594,208.1563 220.25,207.7031 Q220.2031,207.3906 220.0313,207.2188 Q219.7188,206.8906 219.1563,206.7031 Q218.5938,206.5 218.0313,206.5 Q217.3281,206.5 216.7344,206.7813 Q216.1563,207.0625 215.7031,207.6875 Q215.25,208.3125 215.25,209.1719 L215.25,210.0938 Q215.25,211.125 216.0938,211.8125 Q216.9375,212.5 218.4375,212.5 Q219.3281,212.5 219.9531,212.2969 Q220.3125,212.1875 220.7188,211.8281 Q220.9844,211.625 221.125,211.5625 Q221.2656,211.5 221.4375,211.5 Q221.7656,211.5 222,211.7656 Q222.25,212.0156 222.25,212.375 Q222.25,212.7188 221.9063,213.125 Q221.4063,213.7188 220.6094,214.0469 Q219.5625,214.5 218.2813,214.5 Q216.7813,214.5 215.5781,213.9063 Q214.6094,213.4375 213.9219,212.4219 Q213.25,211.4063 213.25,210.2031 L213.25,209.1094 Q213.25,207.8594 213.8438,206.7656 Q214.4531,205.6719 215.5,205.0938 Q216.5625,204.5 217.75,204.5 Q218.4688,204.5 219.0938,204.75 Q219.7188,205 220.25,205.5 Z "/><text fill="#000000" font-family="sans-serif" font-size="12" lengthAdjust="spacingAndGlyphs" textLength="135" x="238.75" y="213.9102">RegisterDroneController</text><line style="stroke: #A80036; stroke-width: 1.5;" x1="39" x2="541" y1="225" y2="225"/><line style="stroke: #A80036; stroke-width: 1.5;" x1="39" x2="541" y1="233" y2="233"/><text fill="#000000" font-family="sans-serif" font-size="11" lengthAdjust="spacingAndGlyphs" textLength="85" x="44" y="248.4189">+getPharmacies()</text><text fill="#000000" font-family="sans-serif" font-size="11" lengthAdjust="spacingAndGlyphs" textLength="492" x="44" y="262.2549">+newDrone(batteryPerc, chargingStatus, potency, weight, batteryCapacity, maxPayload, pharmacyId)</text><text fill="#000000" font-family="sans-serif" font-size="11" lengthAdjust="spacingAndGlyphs" textLength="108" x="44" y="276.0908">+registerDrone(drone)</text><!--MD5=[b024fca8ac3dd8106de85a4004acf2e0]
class DronePark--><rect fill="#FEFECE" filter="url(#fdtjtcr2tpld)" height="61.8359" id="DronePark" style="stroke: #A80036; stroke-width: 1.5;" width="111" x="178.5" y="1155.5"/><ellipse cx="202.5" cy="1171.5" fill="#ADD1B2" rx="11" ry="11" style="stroke: #A80036; stroke-width: 1.0;"/><path d="M204.5,1168 Q204.7031,1167.5 204.9375,1167.25 Q205.1719,1167 205.4375,1167 Q205.9063,1167 206.2031,1167.2813 Q206.5,1167.5625 206.5,1168.2188 L206.5,1169.7813 Q206.5,1170.4375 206.2188,1170.7188 Q205.9375,1171 205.5,1171 Q205.1094,1171 204.8594,1170.8281 Q204.6094,1170.6563 204.5,1170.2031 Q204.4531,1169.8906 204.2813,1169.7188 Q203.9688,1169.3906 203.4063,1169.2031 Q202.8438,1169 202.2813,1169 Q201.5781,1169 200.9844,1169.2813 Q200.4063,1169.5625 199.9531,1170.1875 Q199.5,1170.8125 199.5,1171.6719 L199.5,1172.5938 Q199.5,1173.625 200.3438,1174.3125 Q201.1875,1175 202.6875,1175 Q203.5781,1175 204.2031,1174.7969 Q204.5625,1174.6875 204.9688,1174.3281 Q205.2344,1174.125 205.375,1174.0625 Q205.5156,1174 205.6875,1174 Q206.0156,1174 206.25,1174.2656 Q206.5,1174.5156 206.5,1174.875 Q206.5,1175.2188 206.1563,1175.625 Q205.6563,1176.2188 204.8594,1176.5469 Q203.8125,1177 202.5313,1177 Q201.0313,1177 199.8281,1176.4063 Q198.8594,1175.9375 198.1719,1174.9219 Q197.5,1173.9063 197.5,1172.7031 L197.5,1171.6094 Q197.5,1170.3594 198.0938,1169.2656 Q198.7031,1168.1719 199.75,1167.5938 Q200.8125,1167 202,1167 Q202.7188,1167 203.3438,1167.25 Q203.9688,1167.5 204.5,1168 Z "/><text fill="#000000" font-family="sans-serif" font-size="12" lengthAdjust="spacingAndGlyphs" textLength="59" x="218.5" y="1176.4102">DronePark</text><line style="stroke: #A80036; stroke-width: 1.5;" x1="179.5" x2="288.5" y1="1187.5" y2="1187.5"/><text fill="#000000" font-family="sans-serif" font-size="11" lengthAdjust="spacingAndGlyphs" textLength="99" x="184.5" y="1202.9189">-int maxSlotsNumber</text><line style="stroke: #A80036; stroke-width: 1.5;" x1="179.5" x2="288.5" y1="1209.3359" y2="1209.3359"/><!--MD5=[fbe13b0c274c50d99f674380efb6c2c4]
class DroneChargingSlot--><rect fill="#FEFECE" filter="url(#fdtjtcr2tpld)" height="75.6719" id="DroneChargingSlot" style="stroke: #A80036; stroke-width: 1.5;" width="138" x="141" y="1337"/><ellipse cx="156" cy="1353" fill="#ADD1B2" rx="11" ry="11" style="stroke: #A80036; stroke-width: 1.0;"/><path d="M158,1349.5 Q158.2031,1349 158.4375,1348.75 Q158.6719,1348.5 158.9375,1348.5 Q159.4063,1348.5 159.7031,1348.7813 Q160,1349.0625 160,1349.7188 L160,1351.2813 Q160,1351.9375 159.7188,1352.2188 Q159.4375,1352.5 159,1352.5 Q158.6094,1352.5 158.3594,1352.3281 Q158.1094,1352.1563 158,1351.7031 Q157.9531,1351.3906 157.7813,1351.2188 Q157.4688,1350.8906 156.9063,1350.7031 Q156.3438,1350.5 155.7813,1350.5 Q155.0781,1350.5 154.4844,1350.7813 Q153.9063,1351.0625 153.4531,1351.6875 Q153,1352.3125 153,1353.1719 L153,1354.0938 Q153,1355.125 153.8438,1355.8125 Q154.6875,1356.5 156.1875,1356.5 Q157.0781,1356.5 157.7031,1356.2969 Q158.0625,1356.1875 158.4688,1355.8281 Q158.7344,1355.625 158.875,1355.5625 Q159.0156,1355.5 159.1875,1355.5 Q159.5156,1355.5 159.75,1355.7656 Q160,1356.0156 160,1356.375 Q160,1356.7188 159.6563,1357.125 Q159.1563,1357.7188 158.3594,1358.0469 Q157.3125,1358.5 156.0313,1358.5 Q154.5313,1358.5 153.3281,1357.9063 Q152.3594,1357.4375 151.6719,1356.4219 Q151,1355.4063 151,1354.2031 L151,1353.1094 Q151,1351.8594 151.5938,1350.7656 Q152.2031,1349.6719 153.25,1349.0938 Q154.3125,1348.5 155.5,1348.5 Q156.2188,1348.5 156.8438,1348.75 Q157.4688,1349 158,1349.5 Z "/><text fill="#000000" font-family="sans-serif" font-size="12" lengthAdjust="spacingAndGlyphs" textLength="106" x="170" y="1357.9102">DroneChargingSlot</text><line style="stroke: #A80036; stroke-width: 1.5;" x1="142" x2="278" y1="1369" y2="1369"/><text fill="#000000" font-family="sans-serif" font-size="11" lengthAdjust="spacingAndGlyphs" textLength="26" x="147" y="1384.4189">-int id</text><text fill="#000000" font-family="sans-serif" font-size="11" lengthAdjust="spacingAndGlyphs" textLength="90" x="147" y="1398.2549">-float outputPower</text><line style="stroke: #A80036; stroke-width: 1.5;" x1="142" x2="278" y1="1404.6719" y2="1404.6719"/><!--MD5=[9b53198e8727c85f4d6d8ebbe9b70e18]
class DroneParkingSlot--><rect fill="#FEFECE" filter="url(#fdtjtcr2tpld)" height="61.8359" id="DroneParkingSlot" style="stroke: #A80036; stroke-width: 1.5;" width="129" x="314.5" y="1344"/><ellipse cx="329.5" cy="1360" fill="#ADD1B2" rx="11" ry="11" style="stroke: #A80036; stroke-width: 1.0;"/><path d="M331.5,1356.5 Q331.7031,1356 331.9375,1355.75 Q332.1719,1355.5 332.4375,1355.5 Q332.9063,1355.5 333.2031,1355.7813 Q333.5,1356.0625 333.5,1356.7188 L333.5,1358.2813 Q333.5,1358.9375 333.2188,1359.2188 Q332.9375,1359.5 332.5,1359.5 Q332.1094,1359.5 331.8594,1359.3281 Q331.6094,1359.1563 331.5,1358.7031 Q331.4531,1358.3906 331.2813,1358.2188 Q330.9688,1357.8906 330.4063,1357.7031 Q329.8438,1357.5 329.2813,1357.5 Q328.5781,1357.5 327.9844,1357.7813 Q327.4063,1358.0625 326.9531,1358.6875 Q326.5,1359.3125 326.5,1360.1719 L326.5,1361.0938 Q326.5,1362.125 327.3438,1362.8125 Q328.1875,1363.5 329.6875,1363.5 Q330.5781,1363.5 331.2031,1363.2969 Q331.5625,1363.1875 331.9688,1362.8281 Q332.2344,1362.625 332.375,1362.5625 Q332.5156,1362.5 332.6875,1362.5 Q333.0156,1362.5 333.25,1362.7656 Q333.5,1363.0156 333.5,1363.375 Q333.5,1363.7188 333.1563,1364.125 Q332.6563,1364.7188 331.8594,1365.0469 Q330.8125,1365.5 329.5313,1365.5 Q328.0313,1365.5 326.8281,1364.9063 Q325.8594,1364.4375 325.1719,1363.4219 Q324.5,1362.4063 324.5,1361.2031 L324.5,1360.1094 Q324.5,1358.8594 325.0938,1357.7656 Q325.7031,1356.6719 326.75,1356.0938 Q327.8125,1355.5 329,1355.5 Q329.7188,1355.5 330.3438,1355.75 Q330.9688,1356 331.5,1356.5 Z "/><text fill="#000000" font-family="sans-serif" font-size="12" lengthAdjust="spacingAndGlyphs" textLength="97" x="343.5" y="1364.9102">DroneParkingSlot</text><line style="stroke: #A80036; stroke-width: 1.5;" x1="315.5" x2="442.5" y1="1376" y2="1376"/><text fill="#000000" font-family="sans-serif" font-size="11" lengthAdjust="spacingAndGlyphs" textLength="26" x="320.5" y="1391.4189">-int id</text><line style="stroke: #A80036; stroke-width: 1.5;" x1="315.5" x2="442.5" y1="1397.8359" y2="1397.8359"/><!--MD5=[2e3f1e60e74253ff42e47f8bfdb04ee2]
class Drone--><rect fill="#FEFECE" filter="url(#fdtjtcr2tpld)" height="75.6719" id="Drone" style="stroke: #A80036; stroke-width: 1.5;" width="337" x="174.5" y="568"/><ellipse cx="321.75" cy="584" fill="#ADD1B2" rx="11" ry="11" style="stroke: #A80036; stroke-width: 1.0;"/><path d="M323.75,580.5 Q323.9531,580 324.1875,579.75 Q324.4219,579.5 324.6875,579.5 Q325.1563,579.5 325.4531,579.7813 Q325.75,580.0625 325.75,580.7188 L325.75,582.2813 Q325.75,582.9375 325.4688,583.2188 Q325.1875,583.5 324.75,583.5 Q324.3594,583.5 324.1094,583.3281 Q323.8594,583.1563 323.75,582.7031 Q323.7031,582.3906 323.5313,582.2188 Q323.2188,581.8906 322.6563,581.7031 Q322.0938,581.5 321.5313,581.5 Q320.8281,581.5 320.2344,581.7813 Q319.6563,582.0625 319.2031,582.6875 Q318.75,583.3125 318.75,584.1719 L318.75,585.0938 Q318.75,586.125 319.5938,586.8125 Q320.4375,587.5 321.9375,587.5 Q322.8281,587.5 323.4531,587.2969 Q323.8125,587.1875 324.2188,586.8281 Q324.4844,586.625 324.625,586.5625 Q324.7656,586.5 324.9375,586.5 Q325.2656,586.5 325.5,586.7656 Q325.75,587.0156 325.75,587.375 Q325.75,587.7188 325.4063,588.125 Q324.9063,588.7188 324.1094,589.0469 Q323.0625,589.5 321.7813,589.5 Q320.2813,589.5 319.0781,588.9063 Q318.1094,588.4375 317.4219,587.4219 Q316.75,586.4063 316.75,585.2031 L316.75,584.1094 Q316.75,582.8594 317.3438,581.7656 Q317.9531,580.6719 319,580.0938 Q320.0625,579.5 321.25,579.5 Q321.9688,579.5 322.5938,579.75 Q323.2188,580 323.75,580.5 Z "/><text fill="#000000" font-family="sans-serif" font-size="12" lengthAdjust="spacingAndGlyphs" textLength="34" x="342.25" y="588.9102">Drone</text><line style="stroke: #A80036; stroke-width: 1.5;" x1="175.5" x2="510.5" y1="600" y2="600"/><line style="stroke: #A80036; stroke-width: 1.5;" x1="175.5" x2="510.5" y1="608" y2="608"/><text fill="#000000" font-family="sans-serif" font-size="11" lengthAdjust="spacingAndGlyphs" textLength="216" x="180.5" y="623.4189">+Drone(batteryPerc, charginStatus, potency,</text><text fill="#000000" font-family="sans-serif" font-size="11" lengthAdjust="spacingAndGlyphs" textLength="322" x="183.5" y="637.2549">weight, batteryCapacity, maxPayload, batteryVoltage, pharmacyId)</text><!--MD5=[3aa0d89c6bfdcbf7f32042cedac57549]
class Vehicle--><rect fill="#FEFECE" filter="url(#fdtjtcr2tpld)" height="131.0156" id="Vehicle" style="stroke: #A80036; stroke-width: 1.5;" width="126" x="280" y="724"/><ellipse cx="319.3" cy="740" fill="#ADD1B2" rx="11" ry="11" style="stroke: #A80036; stroke-width: 1.0;"/><path d="M321.3,736.5 Q321.5031,736 321.7375,735.75 Q321.9719,735.5 322.2375,735.5 Q322.7063,735.5 323.0031,735.7813 Q323.3,736.0625 323.3,736.7188 L323.3,738.2813 Q323.3,738.9375 323.0188,739.2188 Q322.7375,739.5 322.3,739.5 Q321.9094,739.5 321.6594,739.3281 Q321.4094,739.1563 321.3,738.7031 Q321.2531,738.3906 321.0813,738.2188 Q320.7688,737.8906 320.2063,737.7031 Q319.6438,737.5 319.0813,737.5 Q318.3781,737.5 317.7844,737.7813 Q317.2063,738.0625 316.7531,738.6875 Q316.3,739.3125 316.3,740.1719 L316.3,741.0938 Q316.3,742.125 317.1438,742.8125 Q317.9875,743.5 319.4875,743.5 Q320.3781,743.5 321.0031,743.2969 Q321.3625,743.1875 321.7688,742.8281 Q322.0344,742.625 322.175,742.5625 Q322.3156,742.5 322.4875,742.5 Q322.8156,742.5 323.05,742.7656 Q323.3,743.0156 323.3,743.375 Q323.3,743.7188 322.9563,744.125 Q322.4563,744.7188 321.6594,745.0469 Q320.6125,745.5 319.3313,745.5 Q317.8313,745.5 316.6281,744.9063 Q315.6594,744.4375 314.9719,743.4219 Q314.3,742.4063 314.3,741.2031 L314.3,740.1094 Q314.3,738.8594 314.8938,737.7656 Q315.5031,736.6719 316.55,736.0938 Q317.6125,735.5 318.8,735.5 Q319.5188,735.5 320.1438,735.75 Q320.7688,736 321.3,736.5 Z "/><text fill="#000000" font-family="sans-serif" font-size="12" lengthAdjust="spacingAndGlyphs" textLength="40" x="338.7" y="744.9102">Vehicle</text><line style="stroke: #A80036; stroke-width: 1.5;" x1="281" x2="405" y1="756" y2="756"/><text fill="#000000" font-family="sans-serif" font-size="11" lengthAdjust="spacingAndGlyphs" textLength="26" x="286" y="771.4189">-int id</text><text fill="#000000" font-family="sans-serif" font-size="11" lengthAdjust="spacingAndGlyphs" textLength="93" x="286" y="785.2549">-String vehicleType</text><text fill="#000000" font-family="sans-serif" font-size="11" lengthAdjust="spacingAndGlyphs" textLength="67" x="286" y="799.0908">-float potency</text><text fill="#000000" font-family="sans-serif" font-size="11" lengthAdjust="spacingAndGlyphs" textLength="61" x="286" y="812.9268">-float weight</text><text fill="#000000" font-family="sans-serif" font-size="11" lengthAdjust="spacingAndGlyphs" textLength="86" x="286" y="826.7627">-float maxPayload</text><text fill="#000000" font-family="sans-serif" font-size="11" lengthAdjust="spacingAndGlyphs" textLength="114" x="286" y="840.5986">-String charngingStatus</text><line style="stroke: #A80036; stroke-width: 1.5;" x1="281" x2="405" y1="847.0156" y2="847.0156"/><!--MD5=[79eb2d862cef9730b5f9dcab29e35f17]
class Battery--><rect fill="#FEFECE" filter="url(#fdtjtcr2tpld)" height="103.3438" id="Battery" style="stroke: #A80036; stroke-width: 1.5;" width="111" x="156.5" y="933"/><ellipse cx="190.4" cy="949" fill="#ADD1B2" rx="11" ry="11" style="stroke: #A80036; stroke-width: 1.0;"/><path d="M192.4,945.5 Q192.6031,945 192.8375,944.75 Q193.0719,944.5 193.3375,944.5 Q193.8063,944.5 194.1031,944.7813 Q194.4,945.0625 194.4,945.7188 L194.4,947.2813 Q194.4,947.9375 194.1188,948.2188 Q193.8375,948.5 193.4,948.5 Q193.0094,948.5 192.7594,948.3281 Q192.5094,948.1563 192.4,947.7031 Q192.3531,947.3906 192.1813,947.2188 Q191.8688,946.8906 191.3063,946.7031 Q190.7438,946.5 190.1813,946.5 Q189.4781,946.5 188.8844,946.7813 Q188.3063,947.0625 187.8531,947.6875 Q187.4,948.3125 187.4,949.1719 L187.4,950.0938 Q187.4,951.125 188.2438,951.8125 Q189.0875,952.5 190.5875,952.5 Q191.4781,952.5 192.1031,952.2969 Q192.4625,952.1875 192.8688,951.8281 Q193.1344,951.625 193.275,951.5625 Q193.4156,951.5 193.5875,951.5 Q193.9156,951.5 194.15,951.7656 Q194.4,952.0156 194.4,952.375 Q194.4,952.7188 194.0563,953.125 Q193.5563,953.7188 192.7594,954.0469 Q191.7125,954.5 190.4313,954.5 Q188.9313,954.5 187.7281,953.9063 Q186.7594,953.4375 186.0719,952.4219 Q185.4,951.4063 185.4,950.2031 L185.4,949.1094 Q185.4,947.8594 185.9938,946.7656 Q186.6031,945.6719 187.65,945.0938 Q188.7125,944.5 189.9,944.5 Q190.6188,944.5 191.2438,944.75 Q191.8688,945 192.4,945.5 Z "/><text fill="#000000" font-family="sans-serif" font-size="12" lengthAdjust="spacingAndGlyphs" textLength="37" x="208.6" y="953.9102">Battery</text><line style="stroke: #A80036; stroke-width: 1.5;" x1="157.5" x2="266.5" y1="965" y2="965"/><text fill="#000000" font-family="sans-serif" font-size="11" lengthAdjust="spacingAndGlyphs" textLength="26" x="162.5" y="980.4189">-int id</text><text fill="#000000" font-family="sans-serif" font-size="11" lengthAdjust="spacingAndGlyphs" textLength="84" x="162.5" y="994.2549">-float batteryPerc</text><text fill="#000000" font-family="sans-serif" font-size="11" lengthAdjust="spacingAndGlyphs" textLength="94" x="162.5" y="1008.0908">-int batteryCapacity</text><text fill="#000000" font-family="sans-serif" font-size="11" lengthAdjust="spacingAndGlyphs" textLength="99" x="162.5" y="1021.9268">-float batteryVoltage</text><line style="stroke: #A80036; stroke-width: 1.5;" x1="157.5" x2="266.5" y1="1028.3438" y2="1028.3438"/><!--MD5=[0f39e4cb6f03951afbf6d14bd2505654]
class Address--><rect fill="#FEFECE" filter="url(#fdtjtcr2tpld)" height="144.8516" id="Address" style="stroke: #A80036; stroke-width: 1.5;" width="106" x="325" y="1114"/><ellipse cx="352.6" cy="1130" fill="#ADD1B2" rx="11" ry="11" style="stroke: #A80036; stroke-width: 1.0;"/><path d="M354.6,1126.5 Q354.8031,1126 355.0375,1125.75 Q355.2719,1125.5 355.5375,1125.5 Q356.0063,1125.5 356.3031,1125.7813 Q356.6,1126.0625 356.6,1126.7188 L356.6,1128.2813 Q356.6,1128.9375 356.3188,1129.2188 Q356.0375,1129.5 355.6,1129.5 Q355.2094,1129.5 354.9594,1129.3281 Q354.7094,1129.1563 354.6,1128.7031 Q354.5531,1128.3906 354.3813,1128.2188 Q354.0688,1127.8906 353.5063,1127.7031 Q352.9438,1127.5 352.3813,1127.5 Q351.6781,1127.5 351.0844,1127.7813 Q350.5063,1128.0625 350.0531,1128.6875 Q349.6,1129.3125 349.6,1130.1719 L349.6,1131.0938 Q349.6,1132.125 350.4438,1132.8125 Q351.2875,1133.5 352.7875,1133.5 Q353.6781,1133.5 354.3031,1133.2969 Q354.6625,1133.1875 355.0688,1132.8281 Q355.3344,1132.625 355.475,1132.5625 Q355.6156,1132.5 355.7875,1132.5 Q356.1156,1132.5 356.35,1132.7656 Q356.6,1133.0156 356.6,1133.375 Q356.6,1133.7188 356.2563,1134.125 Q355.7563,1134.7188 354.9594,1135.0469 Q353.9125,1135.5 352.6313,1135.5 Q351.1313,1135.5 349.9281,1134.9063 Q348.9594,1134.4375 348.2719,1133.4219 Q347.6,1132.4063 347.6,1131.2031 L347.6,1130.1094 Q347.6,1128.8594 348.1938,1127.7656 Q348.8031,1126.6719 349.85,1126.0938 Q350.9125,1125.5 352.1,1125.5 Q352.8188,1125.5 353.4438,1125.75 Q354.0688,1126 354.6,1126.5 Z "/><text fill="#000000" font-family="sans-serif" font-size="12" lengthAdjust="spacingAndGlyphs" textLength="46" x="369.4" y="1134.9102">Address</text><line style="stroke: #A80036; stroke-width: 1.5;" x1="326" x2="430" y1="1146" y2="1146"/><text fill="#000000" font-family="sans-serif" font-size="11" lengthAdjust="spacingAndGlyphs" textLength="82" x="331" y="1161.4189">-double longitude</text><text fill="#000000" font-family="sans-serif" font-size="11" lengthAdjust="spacingAndGlyphs" textLength="73" x="331" y="1175.2549">-double latitude</text><text fill="#000000" font-family="sans-serif" font-size="11" lengthAdjust="spacingAndGlyphs" textLength="94" x="331" y="1189.0908">-String doorNumber</text><text fill="#000000" font-family="sans-serif" font-size="11" lengthAdjust="spacingAndGlyphs" textLength="90" x="331" y="1202.9268">-String streetName</text><text fill="#000000" font-family="sans-serif" font-size="11" lengthAdjust="spacingAndGlyphs" textLength="89" x="331" y="1216.7627">-String postalCode</text><text fill="#000000" font-family="sans-serif" font-size="11" lengthAdjust="spacingAndGlyphs" textLength="68" x="331" y="1230.5986">-String locality</text><text fill="#000000" font-family="sans-serif" font-size="11" lengthAdjust="spacingAndGlyphs" textLength="72" x="331" y="1244.4346">-String country</text><line style="stroke: #A80036; stroke-width: 1.5;" x1="326" x2="430" y1="1250.8516" y2="1250.8516"/><!--MD5=[7f2a9fafcebe4f099f71398fd3e2ed00]
class Pharmacy--><rect fill="#FEFECE" filter="url(#fdtjtcr2tpld)" height="75.6719" id="Pharmacy" style="stroke: #A80036; stroke-width: 1.5;" width="87" x="302.5" y="946.5"/><ellipse cx="317.5" cy="962.5" fill="#ADD1B2" rx="11" ry="11" style="stroke: #A80036; stroke-width: 1.0;"/><path d="M319.5,959 Q319.7031,958.5 319.9375,958.25 Q320.1719,958 320.4375,958 Q320.9063,958 321.2031,958.2813 Q321.5,958.5625 321.5,959.2188 L321.5,960.7813 Q321.5,961.4375 321.2188,961.7188 Q320.9375,962 320.5,962 Q320.1094,962 319.8594,961.8281 Q319.6094,961.6563 319.5,961.2031 Q319.4531,960.8906 319.2813,960.7188 Q318.9688,960.3906 318.4063,960.2031 Q317.8438,960 317.2813,960 Q316.5781,960 315.9844,960.2813 Q315.4063,960.5625 314.9531,961.1875 Q314.5,961.8125 314.5,962.6719 L314.5,963.5938 Q314.5,964.625 315.3438,965.3125 Q316.1875,966 317.6875,966 Q318.5781,966 319.2031,965.7969 Q319.5625,965.6875 319.9688,965.3281 Q320.2344,965.125 320.375,965.0625 Q320.5156,965 320.6875,965 Q321.0156,965 321.25,965.2656 Q321.5,965.5156 321.5,965.875 Q321.5,966.2188 321.1563,966.625 Q320.6563,967.2188 319.8594,967.5469 Q318.8125,968 317.5313,968 Q316.0313,968 314.8281,967.4063 Q313.8594,966.9375 313.1719,965.9219 Q312.5,964.9063 312.5,963.7031 L312.5,962.6094 Q312.5,961.3594 313.0938,960.2656 Q313.7031,959.1719 314.75,958.5938 Q315.8125,958 317,958 Q317.7188,958 318.3438,958.25 Q318.9688,958.5 319.5,959 Z "/><text fill="#000000" font-family="sans-serif" font-size="12" lengthAdjust="spacingAndGlyphs" textLength="55" x="331.5" y="967.4102">Pharmacy</text><line style="stroke: #A80036; stroke-width: 1.5;" x1="303.5" x2="388.5" y1="978.5" y2="978.5"/><text fill="#000000" font-family="sans-serif" font-size="11" lengthAdjust="spacingAndGlyphs" textLength="26" x="308.5" y="993.9189">-int id</text><text fill="#000000" font-family="sans-serif" font-size="11" lengthAdjust="spacingAndGlyphs" textLength="61" x="308.5" y="1007.7549">-String name</text><line style="stroke: #A80036; stroke-width: 1.5;" x1="303.5" x2="388.5" y1="1014.1719" y2="1014.1719"/><!--MD5=[28160fdc0be430cd6f04db15a7547552]
class PharmacyService--><rect fill="#FEFECE" filter="url(#fdtjtcr2tpld)" height="75.6719" id="PharmacyService" style="stroke: #A80036; stroke-width: 1.5;" width="127" x="161.5" y="412"/><ellipse cx="176.5" cy="428" fill="#ADD1B2" rx="11" ry="11" style="stroke: #A80036; stroke-width: 1.0;"/><path d="M178.5,424.5 Q178.7031,424 178.9375,423.75 Q179.1719,423.5 179.4375,423.5 Q179.9063,423.5 180.2031,423.7813 Q180.5,424.0625 180.5,424.7188 L180.5,426.2813 Q180.5,426.9375 180.2188,427.2188 Q179.9375,427.5 179.5,427.5 Q179.1094,427.5 178.8594,427.3281 Q178.6094,427.1563 178.5,426.7031 Q178.4531,426.3906 178.2813,426.2188 Q177.9688,425.8906 177.4063,425.7031 Q176.8438,425.5 176.2813,425.5 Q175.5781,425.5 174.9844,425.7813 Q174.4063,426.0625 173.9531,426.6875 Q173.5,427.3125 173.5,428.1719 L173.5,429.0938 Q173.5,430.125 174.3438,430.8125 Q175.1875,431.5 176.6875,431.5 Q177.5781,431.5 178.2031,431.2969 Q178.5625,431.1875 178.9688,430.8281 Q179.2344,430.625 179.375,430.5625 Q179.5156,430.5 179.6875,430.5 Q180.0156,430.5 180.25,430.7656 Q180.5,431.0156 180.5,431.375 Q180.5,431.7188 180.1563,432.125 Q179.6563,432.7188 178.8594,433.0469 Q177.8125,433.5 176.5313,433.5 Q175.0313,433.5 173.8281,432.9063 Q172.8594,432.4375 172.1719,431.4219 Q171.5,430.4063 171.5,429.2031 L171.5,428.1094 Q171.5,426.8594 172.0938,425.7656 Q172.7031,424.6719 173.75,424.0938 Q174.8125,423.5 176,423.5 Q176.7188,423.5 177.3438,423.75 Q177.9688,424 178.5,424.5 Z "/><text fill="#000000" font-family="sans-serif" font-size="12" lengthAdjust="spacingAndGlyphs" textLength="95" x="190.5" y="432.9102">PharmacyService</text><line style="stroke: #A80036; stroke-width: 1.5;" x1="162.5" x2="287.5" y1="444" y2="444"/><line style="stroke: #A80036; stroke-width: 1.5;" x1="162.5" x2="287.5" y1="452" y2="452"/><text fill="#000000" font-family="sans-serif" font-size="11" lengthAdjust="spacingAndGlyphs" textLength="99" x="167.5" y="467.4189">+PharmacyService()</text><text fill="#000000" font-family="sans-serif" font-size="11" lengthAdjust="spacingAndGlyphs" textLength="85" x="167.5" y="481.2549">+getPharmacies()</text><!--MD5=[f0386d752ae2001320683395ba6b7079]
class DroneService--><rect fill="#FEFECE" filter="url(#fdtjtcr2tpld)" height="75.6719" id="DroneService" style="stroke: #A80036; stroke-width: 1.5;" width="120" x="324" y="412"/><ellipse cx="345.3" cy="428" fill="#ADD1B2" rx="11" ry="11" style="stroke: #A80036; stroke-width: 1.0;"/><path d="M347.3,424.5 Q347.5031,424 347.7375,423.75 Q347.9719,423.5 348.2375,423.5 Q348.7063,423.5 349.0031,423.7813 Q349.3,424.0625 349.3,424.7188 L349.3,426.2813 Q349.3,426.9375 349.0188,427.2188 Q348.7375,427.5 348.3,427.5 Q347.9094,427.5 347.6594,427.3281 Q347.4094,427.1563 347.3,426.7031 Q347.2531,426.3906 347.0813,426.2188 Q346.7688,425.8906 346.2063,425.7031 Q345.6438,425.5 345.0813,425.5 Q344.3781,425.5 343.7844,425.7813 Q343.2063,426.0625 342.7531,426.6875 Q342.3,427.3125 342.3,428.1719 L342.3,429.0938 Q342.3,430.125 343.1438,430.8125 Q343.9875,431.5 345.4875,431.5 Q346.3781,431.5 347.0031,431.2969 Q347.3625,431.1875 347.7688,430.8281 Q348.0344,430.625 348.175,430.5625 Q348.3156,430.5 348.4875,430.5 Q348.8156,430.5 349.05,430.7656 Q349.3,431.0156 349.3,431.375 Q349.3,431.7188 348.9563,432.125 Q348.4563,432.7188 347.6594,433.0469 Q346.6125,433.5 345.3313,433.5 Q343.8313,433.5 342.6281,432.9063 Q341.6594,432.4375 340.9719,431.4219 Q340.3,430.4063 340.3,429.2031 L340.3,428.1094 Q340.3,426.8594 340.8938,425.7656 Q341.5031,424.6719 342.55,424.0938 Q343.6125,423.5 344.8,423.5 Q345.5188,423.5 346.1438,423.75 Q346.7688,424 347.3,424.5 Z "/><text fill="#000000" font-family="sans-serif" font-size="12" lengthAdjust="spacingAndGlyphs" textLength="74" x="360.7" y="432.9102">DroneService</text><line style="stroke: #A80036; stroke-width: 1.5;" x1="325" x2="443" y1="444" y2="444"/><line style="stroke: #A80036; stroke-width: 1.5;" x1="325" x2="443" y1="452" y2="452"/><text fill="#000000" font-family="sans-serif" font-size="11" lengthAdjust="spacingAndGlyphs" textLength="80" x="330" y="467.4189">+DroneService()</text><text fill="#000000" font-family="sans-serif" font-size="11" lengthAdjust="spacingAndGlyphs" textLength="108" x="330" y="481.2549">+registerDrone(drone)</text><!--MD5=[4b2d61224b33971326a22fe5d809d926]
class DataHandler--><rect fill="#FEFECE" filter="url(#fdtjtcr2tpld)" height="75.6719" id="DataHandler" style="stroke: #A80036; stroke-width: 1.5;" width="104" x="823" y="412"/><ellipse cx="838.9" cy="428" fill="#ADD1B2" rx="11" ry="11" style="stroke: #A80036; stroke-width: 1.0;"/><path d="M840.9,424.5 Q841.1031,424 841.3375,423.75 Q841.5719,423.5 841.8375,423.5 Q842.3063,423.5 842.6031,423.7813 Q842.9,424.0625 842.9,424.7188 L842.9,426.2813 Q842.9,426.9375 842.6188,427.2188 Q842.3375,427.5 841.9,427.5 Q841.5094,427.5 841.2594,427.3281 Q841.0094,427.1563 840.9,426.7031 Q840.8531,426.3906 840.6813,426.2188 Q840.3688,425.8906 839.8063,425.7031 Q839.2438,425.5 838.6813,425.5 Q837.9781,425.5 837.3844,425.7813 Q836.8063,426.0625 836.3531,426.6875 Q835.9,427.3125 835.9,428.1719 L835.9,429.0938 Q835.9,430.125 836.7438,430.8125 Q837.5875,431.5 839.0875,431.5 Q839.9781,431.5 840.6031,431.2969 Q840.9625,431.1875 841.3688,430.8281 Q841.6344,430.625 841.775,430.5625 Q841.9156,430.5 842.0875,430.5 Q842.4156,430.5 842.65,430.7656 Q842.9,431.0156 842.9,431.375 Q842.9,431.7188 842.5563,432.125 Q842.0563,432.7188 841.2594,433.0469 Q840.2125,433.5 838.9313,433.5 Q837.4313,433.5 836.2281,432.9063 Q835.2594,432.4375 834.5719,431.4219 Q833.9,430.4063 833.9,429.2031 L833.9,428.1094 Q833.9,426.8594 834.4938,425.7656 Q835.1031,424.6719 836.15,424.0938 Q837.2125,423.5 838.4,423.5 Q839.1188,423.5 839.7438,423.75 Q840.3688,424 840.9,424.5 Z "/><text fill="#000000" font-family="sans-serif" font-size="12" lengthAdjust="spacingAndGlyphs" textLength="70" x="853.1" y="432.9102">DataHandler</text><line style="stroke: #A80036; stroke-width: 1.5;" x1="824" x2="926" y1="444" y2="444"/><line style="stroke: #A80036; stroke-width: 1.5;" x1="824" x2="926" y1="452" y2="452"/><text fill="#000000" font-family="sans-serif" font-size="11" lengthAdjust="spacingAndGlyphs" textLength="92" x="829" y="467.4189">+openConnection()</text><text fill="#000000" font-family="sans-serif" font-size="11" lengthAdjust="spacingAndGlyphs" textLength="52" x="829" y="481.2549">+closeAll()</text><!--MD5=[b860ecc58d0ca70e482845cb1f7b4615]
class PharmacyDB--><rect fill="#FEFECE" filter="url(#fdtjtcr2tpld)" height="75.6719" id="PharmacyDB" style="stroke: #A80036; stroke-width: 1.5;" width="104" x="832" y="568"/><ellipse cx="847" cy="584" fill="#ADD1B2" rx="11" ry="11" style="stroke: #A80036; stroke-width: 1.0;"/><path d="M849,580.5 Q849.2031,580 849.4375,579.75 Q849.6719,579.5 849.9375,579.5 Q850.4063,579.5 850.7031,579.7813 Q851,580.0625 851,580.7188 L851,582.2813 Q851,582.9375 850.7188,583.2188 Q850.4375,583.5 850,583.5 Q849.6094,583.5 849.3594,583.3281 Q849.1094,583.1563 849,582.7031 Q848.9531,582.3906 848.7813,582.2188 Q848.4688,581.8906 847.9063,581.7031 Q847.3438,581.5 846.7813,581.5 Q846.0781,581.5 845.4844,581.7813 Q844.9063,582.0625 844.4531,582.6875 Q844,583.3125 844,584.1719 L844,585.0938 Q844,586.125 844.8438,586.8125 Q845.6875,587.5 847.1875,587.5 Q848.0781,587.5 848.7031,587.2969 Q849.0625,587.1875 849.4688,586.8281 Q849.7344,586.625 849.875,586.5625 Q850.0156,586.5 850.1875,586.5 Q850.5156,586.5 850.75,586.7656 Q851,587.0156 851,587.375 Q851,587.7188 850.6563,588.125 Q850.1563,588.7188 849.3594,589.0469 Q848.3125,589.5 847.0313,589.5 Q845.5313,589.5 844.3281,588.9063 Q843.3594,588.4375 842.6719,587.4219 Q842,586.4063 842,585.2031 L842,584.1094 Q842,582.8594 842.5938,581.7656 Q843.2031,580.6719 844.25,580.0938 Q845.3125,579.5 846.5,579.5 Q847.2188,579.5 847.8438,579.75 Q848.4688,580 849,580.5 Z "/><text fill="#000000" font-family="sans-serif" font-size="12" lengthAdjust="spacingAndGlyphs" textLength="72" x="861" y="588.9102">PharmacyDB</text><line style="stroke: #A80036; stroke-width: 1.5;" x1="833" x2="935" y1="600" y2="600"/><line style="stroke: #A80036; stroke-width: 1.5;" x1="833" x2="935" y1="608" y2="608"/><text fill="#000000" font-family="sans-serif" font-size="11" lengthAdjust="spacingAndGlyphs" textLength="76" x="838" y="623.4189">+PharmacyDB()</text><text fill="#000000" font-family="sans-serif" font-size="11" lengthAdjust="spacingAndGlyphs" textLength="85" x="838" y="637.2549">+getPharmacies()</text><!--MD5=[e5e4874ffcb9901dc5acd0f1e94e7c33]
class DroneDB--><rect fill="#FEFECE" filter="url(#fdtjtcr2tpld)" height="75.6719" id="DroneDB" style="stroke: #A80036; stroke-width: 1.5;" width="120" x="677" y="568"/><ellipse cx="708.65" cy="584" fill="#ADD1B2" rx="11" ry="11" style="stroke: #A80036; stroke-width: 1.0;"/><path d="M710.65,580.5 Q710.8531,580 711.0875,579.75 Q711.3219,579.5 711.5875,579.5 Q712.0563,579.5 712.3531,579.7813 Q712.65,580.0625 712.65,580.7188 L712.65,582.2813 Q712.65,582.9375 712.3688,583.2188 Q712.0875,583.5 711.65,583.5 Q711.2594,583.5 711.0094,583.3281 Q710.7594,583.1563 710.65,582.7031 Q710.6031,582.3906 710.4313,582.2188 Q710.1188,581.8906 709.5563,581.7031 Q708.9938,581.5 708.4313,581.5 Q707.7281,581.5 707.1344,581.7813 Q706.5563,582.0625 706.1031,582.6875 Q705.65,583.3125 705.65,584.1719 L705.65,585.0938 Q705.65,586.125 706.4938,586.8125 Q707.3375,587.5 708.8375,587.5 Q709.7281,587.5 710.3531,587.2969 Q710.7125,587.1875 711.1188,586.8281 Q711.3844,586.625 711.525,586.5625 Q711.6656,586.5 711.8375,586.5 Q712.1656,586.5 712.4,586.7656 Q712.65,587.0156 712.65,587.375 Q712.65,587.7188 712.3063,588.125 Q711.8063,588.7188 711.0094,589.0469 Q709.9625,589.5 708.6813,589.5 Q707.1813,589.5 705.9781,588.9063 Q705.0094,588.4375 704.3219,587.4219 Q703.65,586.4063 703.65,585.2031 L703.65,584.1094 Q703.65,582.8594 704.2438,581.7656 Q704.8531,580.6719 705.9,580.0938 Q706.9625,579.5 708.15,579.5 Q708.8688,579.5 709.4938,579.75 Q710.1188,580 710.65,580.5 Z "/><text fill="#000000" font-family="sans-serif" font-size="12" lengthAdjust="spacingAndGlyphs" textLength="51" x="726.35" y="588.9102">DroneDB</text><line style="stroke: #A80036; stroke-width: 1.5;" x1="678" x2="796" y1="600" y2="600"/><line style="stroke: #A80036; stroke-width: 1.5;" x1="678" x2="796" y1="608" y2="608"/><text fill="#000000" font-family="sans-serif" font-size="11" lengthAdjust="spacingAndGlyphs" textLength="57" x="683" y="623.4189">+DroneDB()</text><text fill="#000000" font-family="sans-serif" font-size="11" lengthAdjust="spacingAndGlyphs" textLength="108" x="683" y="637.2549">+registerDrone(drone)</text><!--MD5=[f40d64c3825bdc96a4efd5b7e3ff1420]
reverse link DataHandler to PharmacyDB--><path d="M878.357,508.435 C879.517,528.288 880.786,549.999 881.826,567.798 " fill="none" id="DataHandler&lt;-PharmacyDB" style="stroke: #A80036; stroke-width: 1.0;"/><polygon fill="none" points="871.358,508.653,877.179,488.279,885.334,507.837,871.358,508.653" style="stroke: #A80036; stroke-width: 1.0;"/><!--MD5=[18feea515641fb3f6597b6a3b4d6a380]
reverse link DataHandler to DroneDB--><path d="M877.831,508.343 C876.174,518.863 872.891,529.264 867,538 C864.658,541.473 830.168,559.178 797.305,575.515 " fill="none" id="DataHandler&lt;-DroneDB" style="stroke: #A80036; stroke-width: 1.0;"/><polygon fill="none" points="870.85,507.82,879.27,488.375,884.814,508.827,870.85,507.82" style="stroke: #A80036; stroke-width: 1.0;"/><!--MD5=[bc0b3096c7aa5bff2ed42868e0b826ca]
link RegisterDroneUI to RegisterDroneController--><path d="M290,108.09 C290,129.11 290,160.85 290,187.58 " fill="none" id="RegisterDroneUI-&gt;RegisterDroneController" style="stroke: #A80036; stroke-width: 1.0; stroke-dasharray: 7.0,7.0;"/><polygon fill="#A80036" points="290,192.85,294,183.85,290,187.85,286,183.85,290,192.85" style="stroke: #A80036; stroke-width: 1.0;"/><!--MD5=[41c0da9b77ec484983d59968149e9773]
link RegisterDroneController to PharmacyService--><path d="M276.374,283.02 C265.126,319.36 249.263,370.61 238.149,406.52 " fill="none" id="RegisterDroneController-&gt;PharmacyService" style="stroke: #A80036; stroke-width: 1.0; stroke-dasharray: 7.0,7.0;"/><polygon fill="#A80036" points="236.544,411.7,243.0161,404.2762,238.0158,406.9215,235.3705,401.9213,236.544,411.7" style="stroke: #A80036; stroke-width: 1.0;"/><!--MD5=[9f539eda316dc5b78e96ddf8ff397f5c]
link RegisterDroneController to DroneService--><path d="M309.705,283.02 C326.038,319.51 349.1,371.03 365.182,406.96 " fill="none" id="RegisterDroneController-&gt;DroneService" style="stroke: #A80036; stroke-width: 1.0; stroke-dasharray: 7.0,7.0;"/><polygon fill="#A80036" points="367.305,411.7,367.2793,401.8512,365.2624,407.1363,359.9773,405.1194,367.305,411.7" style="stroke: #A80036; stroke-width: 1.0;"/><!--MD5=[04ba2cb7f5803b19c0d0e740f2a895e0]
link Database to PharmacyDB--><path d="M618.861,473.8 C629.007,487.33 643.717,503.462 661,512 C693.433,528.023 707.649,508.658 742,520 C773.078,530.262 804.614,548.22 830.047,564.995 " fill="none" id="Database-&gt;PharmacyDB" style="stroke: #A80036; stroke-width: 1.0;"/><polygon fill="#A80036" points="834.398,567.892,829.1231,559.5748,830.236,565.1211,824.6897,566.2341,834.398,567.892" style="stroke: #A80036; stroke-width: 1.0;"/><text fill="#000000" font-family="sans-serif" font-size="13" lengthAdjust="spacingAndGlyphs" textLength="53" x="785" y="534.4951">manages</text><text fill="#000000" font-family="sans-serif" font-size="13" lengthAdjust="spacingAndGlyphs" textLength="7" x="614.4882" y="494.7347">1</text><text fill="#000000" font-family="sans-serif" font-size="13" lengthAdjust="spacingAndGlyphs" textLength="7" x="817.9392" y="557.2347">1</text><!--MD5=[3bc0a5f81cd94df0c3ef53dec7c84f6e]
link Database to DroneDB--><path d="M623.625,473.723 C644.094,497.425 676.619,535.086 701.594,564.003 " fill="none" id="Database-&gt;DroneDB" style="stroke: #A80036; stroke-width: 1.0;"/><polygon fill="#A80036" points="704.91,567.844,702.0563,558.4176,701.6425,564.0593,696.0008,563.6456,704.91,567.844" style="stroke: #A80036; stroke-width: 1.0;"/><text fill="#000000" font-family="sans-serif" font-size="13" lengthAdjust="spacingAndGlyphs" textLength="53" x="680" y="534.4951">manages</text><text fill="#000000" font-family="sans-serif" font-size="13" lengthAdjust="spacingAndGlyphs" textLength="7" x="628.9727" y="494.6399">1</text><text fill="#000000" font-family="sans-serif" font-size="13" lengthAdjust="spacingAndGlyphs" textLength="7" x="691.5705" y="557.1781">1</text><!--MD5=[319fcd49d9a70ab1205ee2f78c6af69e]
link DroneService to PharmacyDB--><path d="M387.456,488.217 C391.151,506.114 398.69,526.196 414,538 C484.593,592.427 728.347,543.319 814,568 C818.365,569.258 822.77,570.807 827.131,572.553 " fill="none" id="DroneService-&gt;PharmacyDB" style="stroke: #A80036; stroke-width: 1.0;"/><polygon fill="#A80036" points="831.842,574.518,825.0769,567.3603,827.2277,572.5923,821.9957,574.7431,831.842,574.518" style="stroke: #A80036; stroke-width: 1.0;"/><text fill="#000000" font-family="sans-serif" font-size="13" lengthAdjust="spacingAndGlyphs" textLength="28" x="415" y="534.4951">uses</text><text fill="#000000" font-family="sans-serif" font-size="13" lengthAdjust="spacingAndGlyphs" textLength="7" x="380.449" y="509.1321">1</text><text fill="#000000" font-family="sans-serif" font-size="13" lengthAdjust="spacingAndGlyphs" textLength="5" x="819.1557" y="584.7588">*</text><!--MD5=[4aef795f878f9415740bac6fb901c4c8]
link DroneService to DroneDB--><path d="M360.447,488.134 C352.995,504.941 349.363,524.107 361,538 C361.313,538.373 563.979,574.338 671.599,593.413 " fill="none" id="DroneService-&gt;DroneDB" style="stroke: #A80036; stroke-width: 1.0;"/><polygon fill="#A80036" points="676.651,594.309,668.4876,588.7992,671.7278,593.4361,667.0909,596.6763,676.651,594.309" style="stroke: #A80036; stroke-width: 1.0;"/><text fill="#000000" font-family="sans-serif" font-size="13" lengthAdjust="spacingAndGlyphs" textLength="28" x="362" y="534.4951">uses</text><text fill="#000000" font-family="sans-serif" font-size="13" lengthAdjust="spacingAndGlyphs" textLength="7" x="349.1354" y="509.0359">1</text><text fill="#000000" font-family="sans-serif" font-size="13" lengthAdjust="spacingAndGlyphs" textLength="5" x="663.9913" y="589.4457">*</text><!--MD5=[2ed2b43e7f6d114538396b0b10b28567]
link PharmacyService to Pharmacy--><path d="M196.516,488.239 C181.56,510.171 164.764,539.19 157,568 C145.435,610.913 147.731,624.533 157,668 C180.858,779.88 196.145,809.461 262,903 C272.222,917.519 285.328,931.558 298.133,943.736 " fill="none" id="PharmacyService-&gt;Pharmacy" style="stroke: #A80036; stroke-width: 1.0;"/><polygon fill="#A80036" points="302.094,947.454,298.2705,938.3776,298.4488,944.0316,292.7948,944.2099,302.094,947.454" style="stroke: #A80036; stroke-width: 1.0;"/><text fill="#000000" font-family="sans-serif" font-size="13" lengthAdjust="spacingAndGlyphs" textLength="111" x="164" y="690.4951">manage services of</text><text fill="#000000" font-family="sans-serif" font-size="13" lengthAdjust="spacingAndGlyphs" textLength="7" x="184.4185" y="509.1576">1</text><text fill="#000000" font-family="sans-serif" font-size="13" lengthAdjust="spacingAndGlyphs" textLength="5" x="289.408" y="937.5447">*</text><!--MD5=[e3cc844120729527281d37c09bce0e7b]
link DroneService to Drone--><path d="M345.518,488.217 C333.71,497.564 320.09,506.493 306,512 C285.649,519.954 222.809,503.933 208,520 C192.033,537.324 201.583,552.52 221.456,565.09 " fill="none" id="DroneService-&gt;Drone" style="stroke: #A80036; stroke-width: 1.0;"/><polygon fill="#A80036" points="226.135,567.897,220.4752,559.8368,221.8474,565.3247,216.3595,566.697,226.135,567.897" style="stroke: #A80036; stroke-width: 1.0;"/><text fill="#000000" font-family="sans-serif" font-size="13" lengthAdjust="spacingAndGlyphs" textLength="111" x="209" y="534.4951">manage services of</text><text fill="#000000" font-family="sans-serif" font-size="13" lengthAdjust="spacingAndGlyphs" textLength="7" x="331.8271" y="509.1321">1</text><text fill="#000000" font-family="sans-serif" font-size="13" lengthAdjust="spacingAndGlyphs" textLength="5" x="199.8731" y="557.2406">*</text><!--MD5=[51d7b9a785c9fb041ca400474ed1d998]
link Database to Pharmacy--><path d="M604.348,473.533 C604.109,491.315 602.622,516.603 597,538 C551.569,710.898 531.014,756.898 428,903 C417.079,918.489 402.971,933.568 389.546,946.408 " fill="none" id="Database-Pharmacy" style="stroke: #A80036; stroke-width: 1.0;"/><text fill="#000000" font-family="sans-serif" font-size="13" lengthAdjust="spacingAndGlyphs" textLength="82" x="558" y="690.4951">has registered</text><polygon fill="#000000" points="594.5,699.3516,597.5,705.3516,600.5,699.3516,594.5,699.3516" style="stroke: #000000; stroke-width: 1.0;"/><text fill="#000000" font-family="sans-serif" font-size="13" lengthAdjust="spacingAndGlyphs" textLength="7" x="596.6191" y="494.4059">1</text><text fill="#000000" font-family="sans-serif" font-size="13" lengthAdjust="spacingAndGlyphs" textLength="5" x="391.8573" y="935.7535">*</text><!--MD5=[96117966725c1e8921b92ed7b1677b7b]
link Database to Drone--><path d="M569.205,473.548 C541.292,491.449 500.97,516.889 465,538 C448.015,547.968 429.48,558.38 412.103,567.943 " fill="none" id="Database-Drone" style="stroke: #A80036; stroke-width: 1.0;"/><polygon fill="#000000" points="500,527.6758,494,530.6758,500,533.6758,500,527.6758" style="stroke: #000000; stroke-width: 1.0;"/><text fill="#000000" font-family="sans-serif" font-size="13" lengthAdjust="spacingAndGlyphs" textLength="82" x="506" y="534.4951">has registered</text><text fill="#000000" font-family="sans-serif" font-size="13" lengthAdjust="spacingAndGlyphs" textLength="7" x="553.3493" y="494.4244">1</text><text fill="#000000" font-family="sans-serif" font-size="13" lengthAdjust="spacingAndGlyphs" textLength="5" x="419.3829" y="557.009">*</text><!--MD5=[074a56c4439d52c76e1cc7a8f9d070a4]
link Vehicle to Battery--><path d="M299.197,855.035 C282.015,880.348 262.588,908.97 246.438,932.762 " fill="none" id="Vehicle-Battery" style="stroke: #A80036; stroke-width: 1.0;"/><text fill="#000000" font-family="sans-serif" font-size="13" lengthAdjust="spacingAndGlyphs" textLength="21" x="279" y="899.4951">has</text><polygon fill="#000000" points="285,908.3516,288,914.3516,291,908.3516,285,908.3516" style="stroke: #000000; stroke-width: 1.0;"/><text fill="#000000" font-family="sans-serif" font-size="13" lengthAdjust="spacingAndGlyphs" textLength="7" x="287.0232" y="876.5914">1</text><text fill="#000000" font-family="sans-serif" font-size="13" lengthAdjust="spacingAndGlyphs" textLength="7" x="243.5953" y="922.2303">1</text><!--MD5=[3f58d672939e81cd871f2f51e09decba]
link Drone to Vehicle--><path d="M343,644.167 C343,667.087 343,697.112 343,723.838 " fill="none" id="Drone-Vehicle" style="stroke: #A80036; stroke-width: 1.0;"/><text fill="#000000" font-family="sans-serif" font-size="13" lengthAdjust="spacingAndGlyphs" textLength="64" x="344" y="690.4951">is a type of</text><polygon fill="#000000" points="371.5,699.3516,374.5,705.3516,377.5,699.3516,371.5,699.3516" style="stroke: #000000; stroke-width: 1.0;"/><text fill="#000000" font-family="sans-serif" font-size="13" lengthAdjust="spacingAndGlyphs" textLength="5" x="337.6016" y="665.0741">*</text><text fill="#000000" font-family="sans-serif" font-size="13" lengthAdjust="spacingAndGlyphs" textLength="7" x="335.6172" y="713.2947">1</text><!--MD5=[9793812679a856b96e8ba34e2675abcc]
link Vehicle to Pharmacy--><path d="M344.003,855.035 C344.475,885.389 345.021,920.501 345.422,946.337 " fill="none" id="Vehicle-Pharmacy" style="stroke: #A80036; stroke-width: 1.0;"/><text fill="#000000" font-family="sans-serif" font-size="13" lengthAdjust="spacingAndGlyphs" textLength="60" x="346" y="899.4951">belongs to</text><polygon fill="#000000" points="371.5,908.3516,374.5,914.3516,377.5,908.3516,371.5,908.3516" style="stroke: #000000; stroke-width: 1.0;"/><text fill="#000000" font-family="sans-serif" font-size="13" lengthAdjust="spacingAndGlyphs" textLength="5" x="338.8393" y="876.5914">*</text><text fill="#000000" font-family="sans-serif" font-size="13" lengthAdjust="spacingAndGlyphs" textLength="7" x="337.6956" y="935.6699">1</text><!--MD5=[89baec1bfb4a213750f7c61516e0a0f1]
link Pharmacy to Address--><path d="M351.944,1022.65 C356.029,1048.18 361.584,1082.902 366.516,1113.726 " fill="none" id="Pharmacy-Address" style="stroke: #A80036; stroke-width: 1.0;"/><text fill="#000000" font-family="sans-serif" font-size="13" lengthAdjust="spacingAndGlyphs" textLength="21" x="363" y="1080.4951">has</text><polygon fill="#000000" points="369,1089.3516,372,1095.3516,375,1089.3516,369,1089.3516" style="stroke: #000000; stroke-width: 1.0;"/><text fill="#000000" font-family="sans-serif" font-size="13" lengthAdjust="spacingAndGlyphs" textLength="7" x="345.3335" y="1043.5544">1</text><text fill="#000000" font-family="sans-serif" font-size="13" lengthAdjust="spacingAndGlyphs" textLength="7" x="357.9708" y="1102.9171">1</text><!--MD5=[38e089e476d423925ff503e653533f7d]
link Pharmacy to DronePark--><path d="M325.196,1022.65 C303.751,1060.945 270.724,1119.921 250.854,1155.403 " fill="none" id="Pharmacy-DronePark" style="stroke: #A80036; stroke-width: 1.0;"/><text fill="#000000" font-family="sans-serif" font-size="13" lengthAdjust="spacingAndGlyphs" textLength="21" x="302" y="1080.4951">has</text><polygon fill="#000000" points="308,1089.3516,311,1095.3516,314,1089.3516,308,1089.3516" style="stroke: #000000; stroke-width: 1.0;"/><text fill="#000000" font-family="sans-serif" font-size="13" lengthAdjust="spacingAndGlyphs" textLength="7" x="314.3226" y="1043.5544">1</text><text fill="#000000" font-family="sans-serif" font-size="13" lengthAdjust="spacingAndGlyphs" textLength="7" x="246.7752" y="1144.402">1</text><!--MD5=[7536b4ac16cca54a78c22aa555a9c2ab]
link DronePark to DroneChargingSlot--><path d="M230.091,1217.88 C225.907,1250.393 219.266,1301.993 214.776,1336.888 " fill="none" id="DronePark-DroneChargingSlot" style="stroke: #A80036; stroke-width: 1.0;"/><text fill="#000000" font-family="sans-serif" font-size="13" lengthAdjust="spacingAndGlyphs" textLength="21" x="222" y="1303.4951">has</text><polygon fill="#000000" points="228,1312.3516,231,1318.3516,234,1312.3516,228,1312.3516" style="stroke: #000000; stroke-width: 1.0;"/><text fill="#000000" font-family="sans-serif" font-size="13" lengthAdjust="spacingAndGlyphs" textLength="7" x="221.6787" y="1238.9311">1</text><text fill="#000000" font-family="sans-serif" font-size="13" lengthAdjust="spacingAndGlyphs" textLength="7" x="208.0033" y="1326.23">1</text><!--MD5=[90d11682e395649ab5adc896502c3617]
link DronePark to DroneParkingSlot--><path d="M257.619,1217.88 C284.663,1252.664 328.692,1309.294 355.631,1343.943 " fill="none" id="DronePark-DroneParkingSlot" style="stroke: #A80036; stroke-width: 1.0;"/><text fill="#000000" font-family="sans-serif" font-size="13" lengthAdjust="spacingAndGlyphs" textLength="21" x="325" y="1303.4951">has</text><polygon fill="#000000" points="331,1312.3516,334,1318.3516,337,1312.3516,331,1312.3516" style="stroke: #000000; stroke-width: 1.0;"/><text fill="#000000" font-family="sans-serif" font-size="13" lengthAdjust="spacingAndGlyphs" textLength="7" x="254.4542" y="1238.9311">1</text><text fill="#000000" font-family="sans-serif" font-size="13" lengthAdjust="spacingAndGlyphs" textLength="7" x="342.7534" y="1332.9508">1</text><!--MD5=[fb612d37f8f0ada0400f3e9d43a23c40]
@startuml
skinparam classAttributeIconSize 0

database Database {
}

package "UI" #DDDDDD {
class RegisterDroneUI{
}
}

package "Controller" #DDDDDD {
class RegisterDroneController{
+getPharmacies()
+newDrone(batteryPerc, chargingStatus, potency, weight, batteryCapacity, maxPayload, pharmacyId)
+registerDrone(drone)
}
}


package "Model" #DDDDDD {
 package "Service" #DDDDDD {
  class PharmacyService{
      +PharmacyService()
      +getPharmacies()
  }

  class DroneService{
      +DroneService()
      +registerDrone(drone)
   }
}

package "Model" #DDDDDD {
class DronePark{
-   int maxSlotsNumber
}

class DroneChargingSlot{
-   int id
-   float outputPower
}

class DroneParkingSlot{
-   int id
}

class Drone{
  +Drone(batteryPerc, charginStatus, potency,\n weight, batteryCapacity, maxPayload, batteryVoltage, pharmacyId)
}

class Vehicle{
  -int id
  -String vehicleType
  -float potency
  -float weight
  -float maxPayload
  -String charngingStatus
}

class Battery{
  -int id
  -float batteryPerc
  -int batteryCapacity
  -float batteryVoltage
}

class Address{
  -double longitude
  -double latitude
  -String doorNumber
  -String streetName
  -String postalCode
  -String locality
  -String country
}

class Pharmacy {
  -int id
  -String name
}
}


package "Data" #DDDDDD {
class DataHandler{
    +openConnection()
    +closeAll()
}
class PharmacyDB{
     +PharmacyDB()
     +getPharmacies()
 }

 class DroneDB{
     +DroneDB()
     +registerDrone(drone)
  }
}

class PharmacyDB extends DataHandler
class DroneDB extends DataHandler

RegisterDroneUI ..> RegisterDroneController
RegisterDroneController ..> PharmacyService
RegisterDroneController ..> DroneService
Database "1" - -> "1" PharmacyDB : manages
Database "1" - -> "1" DroneDB : manages
DroneService "1" - -> "*" PharmacyDB : uses
DroneService "1" - -> "*" DroneDB : uses
PharmacyService "1" - -> "*" Pharmacy : manage services of
DroneService "1" - -> "*" Drone : manage services of

Database "1" - - "*" Pharmacy : has registered >
Database "1" - - "*" Drone : has registered >

Vehicle "1" - - "1" Battery : has >
Drone "*" - - "1" Vehicle : is a type of >
Vehicle "*" - - "1" Pharmacy : belongs to >
Pharmacy "1" - - "1" Address : has >
Pharmacy "1" - - "1" DronePark : has >
DronePark "1" - - "1" DroneChargingSlot : has >
DronePark "1" - - "1" DroneParkingSlot : has >

@enduml

PlantUML version 1.2020.09(Sun May 10 11:51:06 BST 2020)
(GPL source distribution)
Java Runtime: OpenJDK Runtime Environment
JVM: OpenJDK 64-Bit Server VM
Java Version: 11.0.6+8-b765.40
Operating System: Windows 10
Default Encoding: Cp1252
Language: pt
Country: PT
--></g></svg>