<?xml version="1.0" encoding="UTF-8" standalone="no"?><svg xmlns="http://www.w3.org/2000/svg" xmlns:xlink="http://www.w3.org/1999/xlink" contentScriptType="application/ecmascript" contentStyleType="text/css" height="1232px" preserveAspectRatio="none" style="width:1063px;height:1232px;" version="1.1" viewBox="0 0 1063 1232" width="1063px" zoomAndPan="magnify"><defs><filter height="300%" id="fgt5g0c1ykwor" width="300%" x="-1" y="-1"><feGaussianBlur result="blurOut" stdDeviation="2.0"/><feColorMatrix in="blurOut" result="blurOut2" type="matrix" values="0 0 0 0 0 0 0 0 0 0 0 0 0 0 0 0 0 0 .4 0"/><feOffset dx="4.0" dy="4.0" in="blurOut2" result="blurOut3"/><feBlend in="SourceGraphic" in2="blurOut3" mode="normal"/></filter></defs><g><!--MD5=[9681dc6e01e10c6b4fe06895ae94f592]
cluster UI--><polygon fill="#DDDDDD" filter="url(#fgt5g0c1ykwor)" points="211,24,231,24,238,47.6094,369,47.6094,369,124,211,124,211,24" style="stroke: #000000; stroke-width: 1.5;"/><line style="stroke: #000000; stroke-width: 1.5;" x1="211" x2="238" y1="47.6094" y2="47.6094"/><text fill="#000000" font-family="sans-serif" font-size="14" font-weight="bold" lengthAdjust="spacingAndGlyphs" textLength="14" x="215" y="40.5332">UI</text><!--MD5=[1f2cfc53d9d308f53762fd0fcbaa4873]
cluster Controller--><polygon fill="#DDDDDD" filter="url(#fgt5g0c1ykwor)" points="22,157,99,157,106,180.6094,558,180.6094,558,299,22,299,22,157" style="stroke: #000000; stroke-width: 1.5;"/><line style="stroke: #000000; stroke-width: 1.5;" x1="22" x2="106" y1="180.6094" y2="180.6094"/><text fill="#000000" font-family="sans-serif" font-size="14" font-weight="bold" lengthAdjust="spacingAndGlyphs" textLength="71" x="26" y="173.5332">Controller</text><!--MD5=[15636c1ca4a123c16a2a1a8e90aca7a9]
cluster Model--><polygon fill="#DDDDDD" filter="url(#fgt5g0c1ykwor)" points="27,332,77,332,84,355.6094,580,355.6094,580,1220,27,1220,27,332" style="stroke: #000000; stroke-width: 1.5;"/><line style="stroke: #000000; stroke-width: 1.5;" x1="27" x2="84" y1="355.6094" y2="355.6094"/><text fill="#000000" font-family="sans-serif" font-size="14" font-weight="bold" lengthAdjust="spacingAndGlyphs" textLength="44" x="31" y="348.5332">Model</text><!--MD5=[9dd75fd92da113d30380b27734fd2f01]
cluster Service--><polygon fill="#DDDDDD" filter="url(#fgt5g0c1ykwor)" points="96,376,156,376,163,399.6094,411,399.6094,411,504,96,504,96,376" style="stroke: #000000; stroke-width: 1.5;"/><line style="stroke: #000000; stroke-width: 1.5;" x1="96" x2="163" y1="399.6094" y2="399.6094"/><text fill="#000000" font-family="sans-serif" font-size="14" font-weight="bold" lengthAdjust="spacingAndGlyphs" textLength="54" x="100" y="392.5332">Service</text><!--MD5=[f21b1f164e99c6b37934f23ad048ad54]
cluster Data--><polygon fill="#DDDDDD" filter="url(#fgt5g0c1ykwor)" points="750,376,787,376,794,399.6094,1041,399.6094,1041,660,750,660,750,376" style="stroke: #000000; stroke-width: 1.5;"/><line style="stroke: #000000; stroke-width: 1.5;" x1="750" x2="794" y1="399.6094" y2="399.6094"/><text fill="#000000" font-family="sans-serif" font-size="14" font-weight="bold" lengthAdjust="spacingAndGlyphs" textLength="31" x="754" y="392.5332">Data</text><!--MD5=[fa1e3283224feb76407c84b7e90ed808]
entity Database--><path d="M631.5,436.5 C631.5,426.5 672,426.5 672,426.5 C672,426.5 712.5,426.5 712.5,436.5 L712.5,463.1094 C712.5,473.1094 672,473.1094 672,473.1094 C672,473.1094 631.5,473.1094 631.5,463.1094 L631.5,436.5 " fill="#FFFFFF" filter="url(#fgt5g0c1ykwor)" style="stroke: #000000; stroke-width: 1.5;"/><path d="M631.5,436.5 C631.5,446.5 672,446.5 672,446.5 C672,446.5 712.5,446.5 712.5,436.5 " fill="none" style="stroke: #000000; stroke-width: 1.5;"/><text fill="#000000" font-family="sans-serif" font-size="14" lengthAdjust="spacingAndGlyphs" textLength="61" x="641.5" y="465.0332">Database</text><!--MD5=[f251daccc4f62ba7ef84cad74c4911ba]
class RegisterDroneUI--><rect fill="#FEFECE" filter="url(#fgt5g0c1ykwor)" height="48" id="RegisterDroneUI" style="stroke: #A80036; stroke-width: 1.5;" width="125" x="227.5" y="60"/><ellipse cx="242.5" cy="76" fill="#ADD1B2" rx="11" ry="11" style="stroke: #A80036; stroke-width: 1.0;"/><path d="M244.5,72.5 Q244.7031,72 244.9375,71.75 Q245.1719,71.5 245.4375,71.5 Q245.9063,71.5 246.2031,71.7813 Q246.5,72.0625 246.5,72.7188 L246.5,74.2813 Q246.5,74.9375 246.2188,75.2188 Q245.9375,75.5 245.5,75.5 Q245.1094,75.5 244.8594,75.3281 Q244.6094,75.1563 244.5,74.7031 Q244.4531,74.3906 244.2813,74.2188 Q243.9688,73.8906 243.4063,73.7031 Q242.8438,73.5 242.2813,73.5 Q241.5781,73.5 240.9844,73.7813 Q240.4063,74.0625 239.9531,74.6875 Q239.5,75.3125 239.5,76.1719 L239.5,77.0938 Q239.5,78.125 240.3438,78.8125 Q241.1875,79.5 242.6875,79.5 Q243.5781,79.5 244.2031,79.2969 Q244.5625,79.1875 244.9688,78.8281 Q245.2344,78.625 245.375,78.5625 Q245.5156,78.5 245.6875,78.5 Q246.0156,78.5 246.25,78.7656 Q246.5,79.0156 246.5,79.375 Q246.5,79.7188 246.1563,80.125 Q245.6563,80.7188 244.8594,81.0469 Q243.8125,81.5 242.5313,81.5 Q241.0313,81.5 239.8281,80.9063 Q238.8594,80.4375 238.1719,79.4219 Q237.5,78.4063 237.5,77.2031 L237.5,76.1094 Q237.5,74.8594 238.0938,73.7656 Q238.7031,72.6719 239.75,72.0938 Q240.8125,71.5 242,71.5 Q242.7188,71.5 243.3438,71.75 Q243.9688,72 244.5,72.5 Z "/><text fill="#000000" font-family="sans-serif" font-size="12" lengthAdjust="spacingAndGlyphs" textLength="93" x="256.5" y="80.9102">RegisterDroneUI</text><line style="stroke: #A80036; stroke-width: 1.5;" x1="228.5" x2="351.5" y1="92" y2="92"/><line style="stroke: #A80036; stroke-width: 1.5;" x1="228.5" x2="351.5" y1="100" y2="100"/><!--MD5=[7bfe739f2abd87692f4d4d8e06b95cec]
class RegisterDroneController--><rect fill="#FEFECE" filter="url(#fgt5g0c1ykwor)" height="89.5078" id="RegisterDroneController" style="stroke: #A80036; stroke-width: 1.5;" width="504" x="38" y="193"/><ellipse cx="218.25" cy="209" fill="#ADD1B2" rx="11" ry="11" style="stroke: #A80036; stroke-width: 1.0;"/><path d="M220.25,205.5 Q220.4531,205 220.6875,204.75 Q220.9219,204.5 221.1875,204.5 Q221.6563,204.5 221.9531,204.7813 Q222.25,205.0625 222.25,205.7188 L222.25,207.2813 Q222.25,207.9375 221.9688,208.2188 Q221.6875,208.5 221.25,208.5 Q220.8594,208.5 220.6094,208.3281 Q220.3594,208.1563 220.25,207.7031 Q220.2031,207.3906 220.0313,207.2188 Q219.7188,206.8906 219.1563,206.7031 Q218.5938,206.5 218.0313,206.5 Q217.3281,206.5 216.7344,206.7813 Q216.1563,207.0625 215.7031,207.6875 Q215.25,208.3125 215.25,209.1719 L215.25,210.0938 Q215.25,211.125 216.0938,211.8125 Q216.9375,212.5 218.4375,212.5 Q219.3281,212.5 219.9531,212.2969 Q220.3125,212.1875 220.7188,211.8281 Q220.9844,211.625 221.125,211.5625 Q221.2656,211.5 221.4375,211.5 Q221.7656,211.5 222,211.7656 Q222.25,212.0156 222.25,212.375 Q222.25,212.7188 221.9063,213.125 Q221.4063,213.7188 220.6094,214.0469 Q219.5625,214.5 218.2813,214.5 Q216.7813,214.5 215.5781,213.9063 Q214.6094,213.4375 213.9219,212.4219 Q213.25,211.4063 213.25,210.2031 L213.25,209.1094 Q213.25,207.8594 213.8438,206.7656 Q214.4531,205.6719 215.5,205.0938 Q216.5625,204.5 217.75,204.5 Q218.4688,204.5 219.0938,204.75 Q219.7188,205 220.25,205.5 Z "/><text fill="#000000" font-family="sans-serif" font-size="12" lengthAdjust="spacingAndGlyphs" textLength="135" x="238.75" y="213.9102">RegisterDroneController</text><line style="stroke: #A80036; stroke-width: 1.5;" x1="39" x2="541" y1="225" y2="225"/><line style="stroke: #A80036; stroke-width: 1.5;" x1="39" x2="541" y1="233" y2="233"/><text fill="#000000" font-family="sans-serif" font-size="11" lengthAdjust="spacingAndGlyphs" textLength="85" x="44" y="248.4189">+getPharmacies()</text><text fill="#000000" font-family="sans-serif" font-size="11" lengthAdjust="spacingAndGlyphs" textLength="492" x="44" y="262.2549">+newDrone(batteryPerc, chargingStatus, potency, weight, batteryCapacity, maxPayload, pharmacyId)</text><text fill="#000000" font-family="sans-serif" font-size="11" lengthAdjust="spacingAndGlyphs" textLength="108" x="44" y="276.0908">+registerDrone(drone)</text><!--MD5=[b024fca8ac3dd8106de85a4004acf2e0]
class DronePark--><rect fill="#FEFECE" filter="url(#fgt5g0c1ykwor)" height="61.8359" id="DronePark" style="stroke: #A80036; stroke-width: 1.5;" width="111" x="311.5" y="946.5"/><ellipse cx="335.5" cy="962.5" fill="#ADD1B2" rx="11" ry="11" style="stroke: #A80036; stroke-width: 1.0;"/><path d="M337.5,959 Q337.7031,958.5 337.9375,958.25 Q338.1719,958 338.4375,958 Q338.9063,958 339.2031,958.2813 Q339.5,958.5625 339.5,959.2188 L339.5,960.7813 Q339.5,961.4375 339.2188,961.7188 Q338.9375,962 338.5,962 Q338.1094,962 337.8594,961.8281 Q337.6094,961.6563 337.5,961.2031 Q337.4531,960.8906 337.2813,960.7188 Q336.9688,960.3906 336.4063,960.2031 Q335.8438,960 335.2813,960 Q334.5781,960 333.9844,960.2813 Q333.4063,960.5625 332.9531,961.1875 Q332.5,961.8125 332.5,962.6719 L332.5,963.5938 Q332.5,964.625 333.3438,965.3125 Q334.1875,966 335.6875,966 Q336.5781,966 337.2031,965.7969 Q337.5625,965.6875 337.9688,965.3281 Q338.2344,965.125 338.375,965.0625 Q338.5156,965 338.6875,965 Q339.0156,965 339.25,965.2656 Q339.5,965.5156 339.5,965.875 Q339.5,966.2188 339.1563,966.625 Q338.6563,967.2188 337.8594,967.5469 Q336.8125,968 335.5313,968 Q334.0313,968 332.8281,967.4063 Q331.8594,966.9375 331.1719,965.9219 Q330.5,964.9063 330.5,963.7031 L330.5,962.6094 Q330.5,961.3594 331.0938,960.2656 Q331.7031,959.1719 332.75,958.5938 Q333.8125,958 335,958 Q335.7188,958 336.3438,958.25 Q336.9688,958.5 337.5,959 Z "/><text fill="#000000" font-family="sans-serif" font-size="12" lengthAdjust="spacingAndGlyphs" textLength="59" x="351.5" y="967.4102">DronePark</text><line style="stroke: #A80036; stroke-width: 1.5;" x1="312.5" x2="421.5" y1="978.5" y2="978.5"/><text fill="#000000" font-family="sans-serif" font-size="11" lengthAdjust="spacingAndGlyphs" textLength="99" x="317.5" y="993.9189">-int maxSlotsNumber</text><line style="stroke: #A80036; stroke-width: 1.5;" x1="312.5" x2="421.5" y1="1000.3359" y2="1000.3359"/><!--MD5=[fbe13b0c274c50d99f674380efb6c2c4]
class DroneChargingSlot--><rect fill="#FEFECE" filter="url(#fgt5g0c1ykwor)" height="75.6719" id="DroneChargingSlot" style="stroke: #A80036; stroke-width: 1.5;" width="138" x="218" y="1128"/><ellipse cx="233" cy="1144" fill="#ADD1B2" rx="11" ry="11" style="stroke: #A80036; stroke-width: 1.0;"/><path d="M235,1140.5 Q235.2031,1140 235.4375,1139.75 Q235.6719,1139.5 235.9375,1139.5 Q236.4063,1139.5 236.7031,1139.7813 Q237,1140.0625 237,1140.7188 L237,1142.2813 Q237,1142.9375 236.7188,1143.2188 Q236.4375,1143.5 236,1143.5 Q235.6094,1143.5 235.3594,1143.3281 Q235.1094,1143.1563 235,1142.7031 Q234.9531,1142.3906 234.7813,1142.2188 Q234.4688,1141.8906 233.9063,1141.7031 Q233.3438,1141.5 232.7813,1141.5 Q232.0781,1141.5 231.4844,1141.7813 Q230.9063,1142.0625 230.4531,1142.6875 Q230,1143.3125 230,1144.1719 L230,1145.0938 Q230,1146.125 230.8438,1146.8125 Q231.6875,1147.5 233.1875,1147.5 Q234.0781,1147.5 234.7031,1147.2969 Q235.0625,1147.1875 235.4688,1146.8281 Q235.7344,1146.625 235.875,1146.5625 Q236.0156,1146.5 236.1875,1146.5 Q236.5156,1146.5 236.75,1146.7656 Q237,1147.0156 237,1147.375 Q237,1147.7188 236.6563,1148.125 Q236.1563,1148.7188 235.3594,1149.0469 Q234.3125,1149.5 233.0313,1149.5 Q231.5313,1149.5 230.3281,1148.9063 Q229.3594,1148.4375 228.6719,1147.4219 Q228,1146.4063 228,1145.2031 L228,1144.1094 Q228,1142.8594 228.5938,1141.7656 Q229.2031,1140.6719 230.25,1140.0938 Q231.3125,1139.5 232.5,1139.5 Q233.2188,1139.5 233.8438,1139.75 Q234.4688,1140 235,1140.5 Z "/><text fill="#000000" font-family="sans-serif" font-size="12" lengthAdjust="spacingAndGlyphs" textLength="106" x="247" y="1148.9102">DroneChargingSlot</text><line style="stroke: #A80036; stroke-width: 1.5;" x1="219" x2="355" y1="1160" y2="1160"/><text fill="#000000" font-family="sans-serif" font-size="11" lengthAdjust="spacingAndGlyphs" textLength="26" x="224" y="1175.4189">-int id</text><text fill="#000000" font-family="sans-serif" font-size="11" lengthAdjust="spacingAndGlyphs" textLength="90" x="224" y="1189.2549">-float outputPower</text><line style="stroke: #A80036; stroke-width: 1.5;" x1="219" x2="355" y1="1195.6719" y2="1195.6719"/><!--MD5=[9b53198e8727c85f4d6d8ebbe9b70e18]
class DroneParkingSlot--><rect fill="#FEFECE" filter="url(#fgt5g0c1ykwor)" height="61.8359" id="DroneParkingSlot" style="stroke: #A80036; stroke-width: 1.5;" width="129" x="391.5" y="1135"/><ellipse cx="406.5" cy="1151" fill="#ADD1B2" rx="11" ry="11" style="stroke: #A80036; stroke-width: 1.0;"/><path d="M408.5,1147.5 Q408.7031,1147 408.9375,1146.75 Q409.1719,1146.5 409.4375,1146.5 Q409.9063,1146.5 410.2031,1146.7813 Q410.5,1147.0625 410.5,1147.7188 L410.5,1149.2813 Q410.5,1149.9375 410.2188,1150.2188 Q409.9375,1150.5 409.5,1150.5 Q409.1094,1150.5 408.8594,1150.3281 Q408.6094,1150.1563 408.5,1149.7031 Q408.4531,1149.3906 408.2813,1149.2188 Q407.9688,1148.8906 407.4063,1148.7031 Q406.8438,1148.5 406.2813,1148.5 Q405.5781,1148.5 404.9844,1148.7813 Q404.4063,1149.0625 403.9531,1149.6875 Q403.5,1150.3125 403.5,1151.1719 L403.5,1152.0938 Q403.5,1153.125 404.3438,1153.8125 Q405.1875,1154.5 406.6875,1154.5 Q407.5781,1154.5 408.2031,1154.2969 Q408.5625,1154.1875 408.9688,1153.8281 Q409.2344,1153.625 409.375,1153.5625 Q409.5156,1153.5 409.6875,1153.5 Q410.0156,1153.5 410.25,1153.7656 Q410.5,1154.0156 410.5,1154.375 Q410.5,1154.7188 410.1563,1155.125 Q409.6563,1155.7188 408.8594,1156.0469 Q407.8125,1156.5 406.5313,1156.5 Q405.0313,1156.5 403.8281,1155.9063 Q402.8594,1155.4375 402.1719,1154.4219 Q401.5,1153.4063 401.5,1152.2031 L401.5,1151.1094 Q401.5,1149.8594 402.0938,1148.7656 Q402.7031,1147.6719 403.75,1147.0938 Q404.8125,1146.5 406,1146.5 Q406.7188,1146.5 407.3438,1146.75 Q407.9688,1147 408.5,1147.5 Z "/><text fill="#000000" font-family="sans-serif" font-size="12" lengthAdjust="spacingAndGlyphs" textLength="97" x="420.5" y="1155.9102">DroneParkingSlot</text><line style="stroke: #A80036; stroke-width: 1.5;" x1="392.5" x2="519.5" y1="1167" y2="1167"/><text fill="#000000" font-family="sans-serif" font-size="11" lengthAdjust="spacingAndGlyphs" textLength="26" x="397.5" y="1182.4189">-int id</text><line style="stroke: #A80036; stroke-width: 1.5;" x1="392.5" x2="519.5" y1="1188.8359" y2="1188.8359"/><!--MD5=[2e3f1e60e74253ff42e47f8bfdb04ee2]
class Drone--><rect fill="#FEFECE" filter="url(#fgt5g0c1ykwor)" height="75.6719" id="Drone" style="stroke: #A80036; stroke-width: 1.5;" width="337" x="226.5" y="568"/><ellipse cx="373.75" cy="584" fill="#ADD1B2" rx="11" ry="11" style="stroke: #A80036; stroke-width: 1.0;"/><path d="M375.75,580.5 Q375.9531,580 376.1875,579.75 Q376.4219,579.5 376.6875,579.5 Q377.1563,579.5 377.4531,579.7813 Q377.75,580.0625 377.75,580.7188 L377.75,582.2813 Q377.75,582.9375 377.4688,583.2188 Q377.1875,583.5 376.75,583.5 Q376.3594,583.5 376.1094,583.3281 Q375.8594,583.1563 375.75,582.7031 Q375.7031,582.3906 375.5313,582.2188 Q375.2188,581.8906 374.6563,581.7031 Q374.0938,581.5 373.5313,581.5 Q372.8281,581.5 372.2344,581.7813 Q371.6563,582.0625 371.2031,582.6875 Q370.75,583.3125 370.75,584.1719 L370.75,585.0938 Q370.75,586.125 371.5938,586.8125 Q372.4375,587.5 373.9375,587.5 Q374.8281,587.5 375.4531,587.2969 Q375.8125,587.1875 376.2188,586.8281 Q376.4844,586.625 376.625,586.5625 Q376.7656,586.5 376.9375,586.5 Q377.2656,586.5 377.5,586.7656 Q377.75,587.0156 377.75,587.375 Q377.75,587.7188 377.4063,588.125 Q376.9063,588.7188 376.1094,589.0469 Q375.0625,589.5 373.7813,589.5 Q372.2813,589.5 371.0781,588.9063 Q370.1094,588.4375 369.4219,587.4219 Q368.75,586.4063 368.75,585.2031 L368.75,584.1094 Q368.75,582.8594 369.3438,581.7656 Q369.9531,580.6719 371,580.0938 Q372.0625,579.5 373.25,579.5 Q373.9688,579.5 374.5938,579.75 Q375.2188,580 375.75,580.5 Z "/><text fill="#000000" font-family="sans-serif" font-size="12" lengthAdjust="spacingAndGlyphs" textLength="34" x="394.25" y="588.9102">Drone</text><line style="stroke: #A80036; stroke-width: 1.5;" x1="227.5" x2="562.5" y1="600" y2="600"/><line style="stroke: #A80036; stroke-width: 1.5;" x1="227.5" x2="562.5" y1="608" y2="608"/><text fill="#000000" font-family="sans-serif" font-size="11" lengthAdjust="spacingAndGlyphs" textLength="216" x="232.5" y="623.4189">+Drone(batteryPerc, charginStatus, potency,</text><text fill="#000000" font-family="sans-serif" font-size="11" lengthAdjust="spacingAndGlyphs" textLength="322" x="235.5" y="637.2549">weight, batteryCapacity, maxPayload, batteryVoltage, pharmacyId)</text><!--MD5=[3aa0d89c6bfdcbf7f32042cedac57549]
class Vehicle--><rect fill="#FEFECE" filter="url(#fgt5g0c1ykwor)" height="103.3438" id="Vehicle" style="stroke: #A80036; stroke-width: 1.5;" width="98" x="195" y="724"/><ellipse cx="221.7" cy="740" fill="#ADD1B2" rx="11" ry="11" style="stroke: #A80036; stroke-width: 1.0;"/><path d="M223.7,736.5 Q223.9031,736 224.1375,735.75 Q224.3719,735.5 224.6375,735.5 Q225.1063,735.5 225.4031,735.7813 Q225.7,736.0625 225.7,736.7188 L225.7,738.2813 Q225.7,738.9375 225.4188,739.2188 Q225.1375,739.5 224.7,739.5 Q224.3094,739.5 224.0594,739.3281 Q223.8094,739.1563 223.7,738.7031 Q223.6531,738.3906 223.4813,738.2188 Q223.1688,737.8906 222.6063,737.7031 Q222.0438,737.5 221.4813,737.5 Q220.7781,737.5 220.1844,737.7813 Q219.6063,738.0625 219.1531,738.6875 Q218.7,739.3125 218.7,740.1719 L218.7,741.0938 Q218.7,742.125 219.5438,742.8125 Q220.3875,743.5 221.8875,743.5 Q222.7781,743.5 223.4031,743.2969 Q223.7625,743.1875 224.1688,742.8281 Q224.4344,742.625 224.575,742.5625 Q224.7156,742.5 224.8875,742.5 Q225.2156,742.5 225.45,742.7656 Q225.7,743.0156 225.7,743.375 Q225.7,743.7188 225.3563,744.125 Q224.8563,744.7188 224.0594,745.0469 Q223.0125,745.5 221.7313,745.5 Q220.2313,745.5 219.0281,744.9063 Q218.0594,744.4375 217.3719,743.4219 Q216.7,742.4063 216.7,741.2031 L216.7,740.1094 Q216.7,738.8594 217.2938,737.7656 Q217.9031,736.6719 218.95,736.0938 Q220.0125,735.5 221.2,735.5 Q221.9188,735.5 222.5438,735.75 Q223.1688,736 223.7,736.5 Z "/><text fill="#000000" font-family="sans-serif" font-size="12" lengthAdjust="spacingAndGlyphs" textLength="40" x="238.3" y="744.9102">Vehicle</text><line style="stroke: #A80036; stroke-width: 1.5;" x1="196" x2="292" y1="756" y2="756"/><text fill="#000000" font-family="sans-serif" font-size="11" lengthAdjust="spacingAndGlyphs" textLength="26" x="201" y="771.4189">-int id</text><text fill="#000000" font-family="sans-serif" font-size="11" lengthAdjust="spacingAndGlyphs" textLength="67" x="201" y="785.2549">-float potency</text><text fill="#000000" font-family="sans-serif" font-size="11" lengthAdjust="spacingAndGlyphs" textLength="61" x="201" y="799.0908">-float weight</text><text fill="#000000" font-family="sans-serif" font-size="11" lengthAdjust="spacingAndGlyphs" textLength="86" x="201" y="812.9268">-float maxPayload</text><line style="stroke: #A80036; stroke-width: 1.5;" x1="196" x2="292" y1="819.3438" y2="819.3438"/><!--MD5=[79eb2d862cef9730b5f9dcab29e35f17]
class Battery--><rect fill="#FEFECE" filter="url(#fgt5g0c1ykwor)" height="103.3438" id="Battery" style="stroke: #A80036; stroke-width: 1.5;" width="111" x="165.5" y="926"/><ellipse cx="199.4" cy="942" fill="#ADD1B2" rx="11" ry="11" style="stroke: #A80036; stroke-width: 1.0;"/><path d="M201.4,938.5 Q201.6031,938 201.8375,937.75 Q202.0719,937.5 202.3375,937.5 Q202.8063,937.5 203.1031,937.7813 Q203.4,938.0625 203.4,938.7188 L203.4,940.2813 Q203.4,940.9375 203.1188,941.2188 Q202.8375,941.5 202.4,941.5 Q202.0094,941.5 201.7594,941.3281 Q201.5094,941.1563 201.4,940.7031 Q201.3531,940.3906 201.1813,940.2188 Q200.8688,939.8906 200.3063,939.7031 Q199.7438,939.5 199.1813,939.5 Q198.4781,939.5 197.8844,939.7813 Q197.3063,940.0625 196.8531,940.6875 Q196.4,941.3125 196.4,942.1719 L196.4,943.0938 Q196.4,944.125 197.2438,944.8125 Q198.0875,945.5 199.5875,945.5 Q200.4781,945.5 201.1031,945.2969 Q201.4625,945.1875 201.8688,944.8281 Q202.1344,944.625 202.275,944.5625 Q202.4156,944.5 202.5875,944.5 Q202.9156,944.5 203.15,944.7656 Q203.4,945.0156 203.4,945.375 Q203.4,945.7188 203.0563,946.125 Q202.5563,946.7188 201.7594,947.0469 Q200.7125,947.5 199.4313,947.5 Q197.9313,947.5 196.7281,946.9063 Q195.7594,946.4375 195.0719,945.4219 Q194.4,944.4063 194.4,943.2031 L194.4,942.1094 Q194.4,940.8594 194.9938,939.7656 Q195.6031,938.6719 196.65,938.0938 Q197.7125,937.5 198.9,937.5 Q199.6188,937.5 200.2438,937.75 Q200.8688,938 201.4,938.5 Z "/><text fill="#000000" font-family="sans-serif" font-size="12" lengthAdjust="spacingAndGlyphs" textLength="37" x="217.6" y="946.9102">Battery</text><line style="stroke: #A80036; stroke-width: 1.5;" x1="166.5" x2="275.5" y1="958" y2="958"/><text fill="#000000" font-family="sans-serif" font-size="11" lengthAdjust="spacingAndGlyphs" textLength="26" x="171.5" y="973.4189">-int id</text><text fill="#000000" font-family="sans-serif" font-size="11" lengthAdjust="spacingAndGlyphs" textLength="84" x="171.5" y="987.2549">-float batteryPerc</text><text fill="#000000" font-family="sans-serif" font-size="11" lengthAdjust="spacingAndGlyphs" textLength="94" x="171.5" y="1001.0908">-int batteryCapacity</text><text fill="#000000" font-family="sans-serif" font-size="11" lengthAdjust="spacingAndGlyphs" textLength="99" x="171.5" y="1014.9268">-float batteryVoltage</text><line style="stroke: #A80036; stroke-width: 1.5;" x1="166.5" x2="275.5" y1="1021.3438" y2="1021.3438"/><!--MD5=[0f39e4cb6f03951afbf6d14bd2505654]
class Address--><rect fill="#FEFECE" filter="url(#fgt5g0c1ykwor)" height="144.8516" id="Address" style="stroke: #A80036; stroke-width: 1.5;" width="106" x="458" y="905"/><ellipse cx="485.6" cy="921" fill="#ADD1B2" rx="11" ry="11" style="stroke: #A80036; stroke-width: 1.0;"/><path d="M487.6,917.5 Q487.8031,917 488.0375,916.75 Q488.2719,916.5 488.5375,916.5 Q489.0063,916.5 489.3031,916.7813 Q489.6,917.0625 489.6,917.7188 L489.6,919.2813 Q489.6,919.9375 489.3188,920.2188 Q489.0375,920.5 488.6,920.5 Q488.2094,920.5 487.9594,920.3281 Q487.7094,920.1563 487.6,919.7031 Q487.5531,919.3906 487.3813,919.2188 Q487.0688,918.8906 486.5063,918.7031 Q485.9438,918.5 485.3813,918.5 Q484.6781,918.5 484.0844,918.7813 Q483.5063,919.0625 483.0531,919.6875 Q482.6,920.3125 482.6,921.1719 L482.6,922.0938 Q482.6,923.125 483.4438,923.8125 Q484.2875,924.5 485.7875,924.5 Q486.6781,924.5 487.3031,924.2969 Q487.6625,924.1875 488.0688,923.8281 Q488.3344,923.625 488.475,923.5625 Q488.6156,923.5 488.7875,923.5 Q489.1156,923.5 489.35,923.7656 Q489.6,924.0156 489.6,924.375 Q489.6,924.7188 489.2563,925.125 Q488.7563,925.7188 487.9594,926.0469 Q486.9125,926.5 485.6313,926.5 Q484.1313,926.5 482.9281,925.9063 Q481.9594,925.4375 481.2719,924.4219 Q480.6,923.4063 480.6,922.2031 L480.6,921.1094 Q480.6,919.8594 481.1938,918.7656 Q481.8031,917.6719 482.85,917.0938 Q483.9125,916.5 485.1,916.5 Q485.8188,916.5 486.4438,916.75 Q487.0688,917 487.6,917.5 Z "/><text fill="#000000" font-family="sans-serif" font-size="12" lengthAdjust="spacingAndGlyphs" textLength="46" x="502.4" y="925.9102">Address</text><line style="stroke: #A80036; stroke-width: 1.5;" x1="459" x2="563" y1="937" y2="937"/><text fill="#000000" font-family="sans-serif" font-size="11" lengthAdjust="spacingAndGlyphs" textLength="82" x="464" y="952.4189">-double longitude</text><text fill="#000000" font-family="sans-serif" font-size="11" lengthAdjust="spacingAndGlyphs" textLength="62" x="464" y="966.2549">-float latitude</text><text fill="#000000" font-family="sans-serif" font-size="11" lengthAdjust="spacingAndGlyphs" textLength="94" x="464" y="980.0908">-String doorNumber</text><text fill="#000000" font-family="sans-serif" font-size="11" lengthAdjust="spacingAndGlyphs" textLength="90" x="464" y="993.9268">-String streetName</text><text fill="#000000" font-family="sans-serif" font-size="11" lengthAdjust="spacingAndGlyphs" textLength="89" x="464" y="1007.7627">-String postalCode</text><text fill="#000000" font-family="sans-serif" font-size="11" lengthAdjust="spacingAndGlyphs" textLength="68" x="464" y="1021.5986">-String locality</text><text fill="#000000" font-family="sans-serif" font-size="11" lengthAdjust="spacingAndGlyphs" textLength="72" x="464" y="1035.4346">-String country</text><line style="stroke: #A80036; stroke-width: 1.5;" x1="459" x2="563" y1="1041.8516" y2="1041.8516"/><!--MD5=[7f2a9fafcebe4f099f71398fd3e2ed00]
class Pharmacy--><rect fill="#FEFECE" filter="url(#fgt5g0c1ykwor)" height="75.6719" id="Pharmacy" style="stroke: #A80036; stroke-width: 1.5;" width="87" x="351.5" y="737.5"/><ellipse cx="366.5" cy="753.5" fill="#ADD1B2" rx="11" ry="11" style="stroke: #A80036; stroke-width: 1.0;"/><path d="M368.5,750 Q368.7031,749.5 368.9375,749.25 Q369.1719,749 369.4375,749 Q369.9063,749 370.2031,749.2813 Q370.5,749.5625 370.5,750.2188 L370.5,751.7813 Q370.5,752.4375 370.2188,752.7188 Q369.9375,753 369.5,753 Q369.1094,753 368.8594,752.8281 Q368.6094,752.6563 368.5,752.2031 Q368.4531,751.8906 368.2813,751.7188 Q367.9688,751.3906 367.4063,751.2031 Q366.8438,751 366.2813,751 Q365.5781,751 364.9844,751.2813 Q364.4063,751.5625 363.9531,752.1875 Q363.5,752.8125 363.5,753.6719 L363.5,754.5938 Q363.5,755.625 364.3438,756.3125 Q365.1875,757 366.6875,757 Q367.5781,757 368.2031,756.7969 Q368.5625,756.6875 368.9688,756.3281 Q369.2344,756.125 369.375,756.0625 Q369.5156,756 369.6875,756 Q370.0156,756 370.25,756.2656 Q370.5,756.5156 370.5,756.875 Q370.5,757.2188 370.1563,757.625 Q369.6563,758.2188 368.8594,758.5469 Q367.8125,759 366.5313,759 Q365.0313,759 363.8281,758.4063 Q362.8594,757.9375 362.1719,756.9219 Q361.5,755.9063 361.5,754.7031 L361.5,753.6094 Q361.5,752.3594 362.0938,751.2656 Q362.7031,750.1719 363.75,749.5938 Q364.8125,749 366,749 Q366.7188,749 367.3438,749.25 Q367.9688,749.5 368.5,750 Z "/><text fill="#000000" font-family="sans-serif" font-size="12" lengthAdjust="spacingAndGlyphs" textLength="55" x="380.5" y="758.4102">Pharmacy</text><line style="stroke: #A80036; stroke-width: 1.5;" x1="352.5" x2="437.5" y1="769.5" y2="769.5"/><text fill="#000000" font-family="sans-serif" font-size="11" lengthAdjust="spacingAndGlyphs" textLength="26" x="357.5" y="784.9189">-int id</text><text fill="#000000" font-family="sans-serif" font-size="11" lengthAdjust="spacingAndGlyphs" textLength="61" x="357.5" y="798.7549">-String name</text><line style="stroke: #A80036; stroke-width: 1.5;" x1="352.5" x2="437.5" y1="805.1719" y2="805.1719"/><!--MD5=[28160fdc0be430cd6f04db15a7547552]
class PharmacyService--><rect fill="#FEFECE" filter="url(#fgt5g0c1ykwor)" height="75.6719" id="PharmacyService" style="stroke: #A80036; stroke-width: 1.5;" width="127" x="112.5" y="412"/><ellipse cx="127.5" cy="428" fill="#ADD1B2" rx="11" ry="11" style="stroke: #A80036; stroke-width: 1.0;"/><path d="M129.5,424.5 Q129.7031,424 129.9375,423.75 Q130.1719,423.5 130.4375,423.5 Q130.9063,423.5 131.2031,423.7813 Q131.5,424.0625 131.5,424.7188 L131.5,426.2813 Q131.5,426.9375 131.2188,427.2188 Q130.9375,427.5 130.5,427.5 Q130.1094,427.5 129.8594,427.3281 Q129.6094,427.1563 129.5,426.7031 Q129.4531,426.3906 129.2813,426.2188 Q128.9688,425.8906 128.4063,425.7031 Q127.8438,425.5 127.2813,425.5 Q126.5781,425.5 125.9844,425.7813 Q125.4063,426.0625 124.9531,426.6875 Q124.5,427.3125 124.5,428.1719 L124.5,429.0938 Q124.5,430.125 125.3438,430.8125 Q126.1875,431.5 127.6875,431.5 Q128.5781,431.5 129.2031,431.2969 Q129.5625,431.1875 129.9688,430.8281 Q130.2344,430.625 130.375,430.5625 Q130.5156,430.5 130.6875,430.5 Q131.0156,430.5 131.25,430.7656 Q131.5,431.0156 131.5,431.375 Q131.5,431.7188 131.1563,432.125 Q130.6563,432.7188 129.8594,433.0469 Q128.8125,433.5 127.5313,433.5 Q126.0313,433.5 124.8281,432.9063 Q123.8594,432.4375 123.1719,431.4219 Q122.5,430.4063 122.5,429.2031 L122.5,428.1094 Q122.5,426.8594 123.0938,425.7656 Q123.7031,424.6719 124.75,424.0938 Q125.8125,423.5 127,423.5 Q127.7188,423.5 128.3438,423.75 Q128.9688,424 129.5,424.5 Z "/><text fill="#000000" font-family="sans-serif" font-size="12" lengthAdjust="spacingAndGlyphs" textLength="95" x="141.5" y="432.9102">PharmacyService</text><line style="stroke: #A80036; stroke-width: 1.5;" x1="113.5" x2="238.5" y1="444" y2="444"/><line style="stroke: #A80036; stroke-width: 1.5;" x1="113.5" x2="238.5" y1="452" y2="452"/><text fill="#000000" font-family="sans-serif" font-size="11" lengthAdjust="spacingAndGlyphs" textLength="99" x="118.5" y="467.4189">+PharmacyService()</text><text fill="#000000" font-family="sans-serif" font-size="11" lengthAdjust="spacingAndGlyphs" textLength="85" x="118.5" y="481.2549">+getPharmacies()</text><!--MD5=[f0386d752ae2001320683395ba6b7079]
class DroneService--><rect fill="#FEFECE" filter="url(#fgt5g0c1ykwor)" height="75.6719" id="DroneService" style="stroke: #A80036; stroke-width: 1.5;" width="120" x="275" y="412"/><ellipse cx="296.3" cy="428" fill="#ADD1B2" rx="11" ry="11" style="stroke: #A80036; stroke-width: 1.0;"/><path d="M298.3,424.5 Q298.5031,424 298.7375,423.75 Q298.9719,423.5 299.2375,423.5 Q299.7063,423.5 300.0031,423.7813 Q300.3,424.0625 300.3,424.7188 L300.3,426.2813 Q300.3,426.9375 300.0188,427.2188 Q299.7375,427.5 299.3,427.5 Q298.9094,427.5 298.6594,427.3281 Q298.4094,427.1563 298.3,426.7031 Q298.2531,426.3906 298.0813,426.2188 Q297.7688,425.8906 297.2063,425.7031 Q296.6438,425.5 296.0813,425.5 Q295.3781,425.5 294.7844,425.7813 Q294.2063,426.0625 293.7531,426.6875 Q293.3,427.3125 293.3,428.1719 L293.3,429.0938 Q293.3,430.125 294.1438,430.8125 Q294.9875,431.5 296.4875,431.5 Q297.3781,431.5 298.0031,431.2969 Q298.3625,431.1875 298.7688,430.8281 Q299.0344,430.625 299.175,430.5625 Q299.3156,430.5 299.4875,430.5 Q299.8156,430.5 300.05,430.7656 Q300.3,431.0156 300.3,431.375 Q300.3,431.7188 299.9563,432.125 Q299.4563,432.7188 298.6594,433.0469 Q297.6125,433.5 296.3313,433.5 Q294.8313,433.5 293.6281,432.9063 Q292.6594,432.4375 291.9719,431.4219 Q291.3,430.4063 291.3,429.2031 L291.3,428.1094 Q291.3,426.8594 291.8938,425.7656 Q292.5031,424.6719 293.55,424.0938 Q294.6125,423.5 295.8,423.5 Q296.5188,423.5 297.1438,423.75 Q297.7688,424 298.3,424.5 Z "/><text fill="#000000" font-family="sans-serif" font-size="12" lengthAdjust="spacingAndGlyphs" textLength="74" x="311.7" y="432.9102">DroneService</text><line style="stroke: #A80036; stroke-width: 1.5;" x1="276" x2="394" y1="444" y2="444"/><line style="stroke: #A80036; stroke-width: 1.5;" x1="276" x2="394" y1="452" y2="452"/><text fill="#000000" font-family="sans-serif" font-size="11" lengthAdjust="spacingAndGlyphs" textLength="80" x="281" y="467.4189">+DroneService()</text><text fill="#000000" font-family="sans-serif" font-size="11" lengthAdjust="spacingAndGlyphs" textLength="108" x="281" y="481.2549">+registerDrone(drone)</text><!--MD5=[4b2d61224b33971326a22fe5d809d926]
class DataHandler--><rect fill="#FEFECE" filter="url(#fgt5g0c1ykwor)" height="75.6719" id="DataHandler" style="stroke: #A80036; stroke-width: 1.5;" width="104" x="902" y="412"/><ellipse cx="917.9" cy="428" fill="#ADD1B2" rx="11" ry="11" style="stroke: #A80036; stroke-width: 1.0;"/><path d="M919.9,424.5 Q920.1031,424 920.3375,423.75 Q920.5719,423.5 920.8375,423.5 Q921.3063,423.5 921.6031,423.7813 Q921.9,424.0625 921.9,424.7188 L921.9,426.2813 Q921.9,426.9375 921.6188,427.2188 Q921.3375,427.5 920.9,427.5 Q920.5094,427.5 920.2594,427.3281 Q920.0094,427.1563 919.9,426.7031 Q919.8531,426.3906 919.6813,426.2188 Q919.3688,425.8906 918.8063,425.7031 Q918.2438,425.5 917.6813,425.5 Q916.9781,425.5 916.3844,425.7813 Q915.8063,426.0625 915.3531,426.6875 Q914.9,427.3125 914.9,428.1719 L914.9,429.0938 Q914.9,430.125 915.7438,430.8125 Q916.5875,431.5 918.0875,431.5 Q918.9781,431.5 919.6031,431.2969 Q919.9625,431.1875 920.3688,430.8281 Q920.6344,430.625 920.775,430.5625 Q920.9156,430.5 921.0875,430.5 Q921.4156,430.5 921.65,430.7656 Q921.9,431.0156 921.9,431.375 Q921.9,431.7188 921.5563,432.125 Q921.0563,432.7188 920.2594,433.0469 Q919.2125,433.5 917.9313,433.5 Q916.4313,433.5 915.2281,432.9063 Q914.2594,432.4375 913.5719,431.4219 Q912.9,430.4063 912.9,429.2031 L912.9,428.1094 Q912.9,426.8594 913.4938,425.7656 Q914.1031,424.6719 915.15,424.0938 Q916.2125,423.5 917.4,423.5 Q918.1188,423.5 918.7438,423.75 Q919.3688,424 919.9,424.5 Z "/><text fill="#000000" font-family="sans-serif" font-size="12" lengthAdjust="spacingAndGlyphs" textLength="70" x="932.1" y="432.9102">DataHandler</text><line style="stroke: #A80036; stroke-width: 1.5;" x1="903" x2="1005" y1="444" y2="444"/><line style="stroke: #A80036; stroke-width: 1.5;" x1="903" x2="1005" y1="452" y2="452"/><text fill="#000000" font-family="sans-serif" font-size="11" lengthAdjust="spacingAndGlyphs" textLength="92" x="908" y="467.4189">+openConnection()</text><text fill="#000000" font-family="sans-serif" font-size="11" lengthAdjust="spacingAndGlyphs" textLength="52" x="908" y="481.2549">+closeAll()</text><!--MD5=[b860ecc58d0ca70e482845cb1f7b4615]
class PharmacyDB--><rect fill="#FEFECE" filter="url(#fgt5g0c1ykwor)" height="75.6719" id="PharmacyDB" style="stroke: #A80036; stroke-width: 1.5;" width="104" x="921" y="568"/><ellipse cx="936" cy="584" fill="#ADD1B2" rx="11" ry="11" style="stroke: #A80036; stroke-width: 1.0;"/><path d="M938,580.5 Q938.2031,580 938.4375,579.75 Q938.6719,579.5 938.9375,579.5 Q939.4063,579.5 939.7031,579.7813 Q940,580.0625 940,580.7188 L940,582.2813 Q940,582.9375 939.7188,583.2188 Q939.4375,583.5 939,583.5 Q938.6094,583.5 938.3594,583.3281 Q938.1094,583.1563 938,582.7031 Q937.9531,582.3906 937.7813,582.2188 Q937.4688,581.8906 936.9063,581.7031 Q936.3438,581.5 935.7813,581.5 Q935.0781,581.5 934.4844,581.7813 Q933.9063,582.0625 933.4531,582.6875 Q933,583.3125 933,584.1719 L933,585.0938 Q933,586.125 933.8438,586.8125 Q934.6875,587.5 936.1875,587.5 Q937.0781,587.5 937.7031,587.2969 Q938.0625,587.1875 938.4688,586.8281 Q938.7344,586.625 938.875,586.5625 Q939.0156,586.5 939.1875,586.5 Q939.5156,586.5 939.75,586.7656 Q940,587.0156 940,587.375 Q940,587.7188 939.6563,588.125 Q939.1563,588.7188 938.3594,589.0469 Q937.3125,589.5 936.0313,589.5 Q934.5313,589.5 933.3281,588.9063 Q932.3594,588.4375 931.6719,587.4219 Q931,586.4063 931,585.2031 L931,584.1094 Q931,582.8594 931.5938,581.7656 Q932.2031,580.6719 933.25,580.0938 Q934.3125,579.5 935.5,579.5 Q936.2188,579.5 936.8438,579.75 Q937.4688,580 938,580.5 Z "/><text fill="#000000" font-family="sans-serif" font-size="12" lengthAdjust="spacingAndGlyphs" textLength="72" x="950" y="588.9102">PharmacyDB</text><line style="stroke: #A80036; stroke-width: 1.5;" x1="922" x2="1024" y1="600" y2="600"/><line style="stroke: #A80036; stroke-width: 1.5;" x1="922" x2="1024" y1="608" y2="608"/><text fill="#000000" font-family="sans-serif" font-size="11" lengthAdjust="spacingAndGlyphs" textLength="76" x="927" y="623.4189">+PharmacyDB()</text><text fill="#000000" font-family="sans-serif" font-size="11" lengthAdjust="spacingAndGlyphs" textLength="85" x="927" y="637.2549">+getPharmacies()</text><!--MD5=[e5e4874ffcb9901dc5acd0f1e94e7c33]
class DroneDB--><rect fill="#FEFECE" filter="url(#fgt5g0c1ykwor)" height="75.6719" id="DroneDB" style="stroke: #A80036; stroke-width: 1.5;" width="120" x="766" y="568"/><ellipse cx="797.65" cy="584" fill="#ADD1B2" rx="11" ry="11" style="stroke: #A80036; stroke-width: 1.0;"/><path d="M799.65,580.5 Q799.8531,580 800.0875,579.75 Q800.3219,579.5 800.5875,579.5 Q801.0563,579.5 801.3531,579.7813 Q801.65,580.0625 801.65,580.7188 L801.65,582.2813 Q801.65,582.9375 801.3688,583.2188 Q801.0875,583.5 800.65,583.5 Q800.2594,583.5 800.0094,583.3281 Q799.7594,583.1563 799.65,582.7031 Q799.6031,582.3906 799.4313,582.2188 Q799.1188,581.8906 798.5563,581.7031 Q797.9938,581.5 797.4313,581.5 Q796.7281,581.5 796.1344,581.7813 Q795.5563,582.0625 795.1031,582.6875 Q794.65,583.3125 794.65,584.1719 L794.65,585.0938 Q794.65,586.125 795.4938,586.8125 Q796.3375,587.5 797.8375,587.5 Q798.7281,587.5 799.3531,587.2969 Q799.7125,587.1875 800.1188,586.8281 Q800.3844,586.625 800.525,586.5625 Q800.6656,586.5 800.8375,586.5 Q801.1656,586.5 801.4,586.7656 Q801.65,587.0156 801.65,587.375 Q801.65,587.7188 801.3063,588.125 Q800.8063,588.7188 800.0094,589.0469 Q798.9625,589.5 797.6813,589.5 Q796.1813,589.5 794.9781,588.9063 Q794.0094,588.4375 793.3219,587.4219 Q792.65,586.4063 792.65,585.2031 L792.65,584.1094 Q792.65,582.8594 793.2438,581.7656 Q793.8531,580.6719 794.9,580.0938 Q795.9625,579.5 797.15,579.5 Q797.8688,579.5 798.4938,579.75 Q799.1188,580 799.65,580.5 Z "/><text fill="#000000" font-family="sans-serif" font-size="12" lengthAdjust="spacingAndGlyphs" textLength="51" x="815.35" y="588.9102">DroneDB</text><line style="stroke: #A80036; stroke-width: 1.5;" x1="767" x2="885" y1="600" y2="600"/><line style="stroke: #A80036; stroke-width: 1.5;" x1="767" x2="885" y1="608" y2="608"/><text fill="#000000" font-family="sans-serif" font-size="11" lengthAdjust="spacingAndGlyphs" textLength="57" x="772" y="623.4189">+DroneDB()</text><text fill="#000000" font-family="sans-serif" font-size="11" lengthAdjust="spacingAndGlyphs" textLength="108" x="772" y="637.2549">+registerDrone(drone)</text><!--MD5=[f40d64c3825bdc96a4efd5b7e3ff1420]
reverse link DataHandler to PharmacyDB--><path d="M961.086,508.435 C963.535,528.288 966.214,549.999 968.41,567.798 " fill="none" id="DataHandler&lt;-PharmacyDB" style="stroke: #A80036; stroke-width: 1.0;"/><polygon fill="none" points="954.101,508.986,958.599,488.279,967.996,507.271,954.101,508.986" style="stroke: #A80036; stroke-width: 1.0;"/><!--MD5=[18feea515641fb3f6597b6a3b4d6a380]
reverse link DataHandler to DroneDB--><path d="M934.797,506.761 C929.641,517.718 923.396,528.69 916,538 C907.276,548.982 896.34,559.086 885.127,567.938 " fill="none" id="DataHandler&lt;-DroneDB" style="stroke: #A80036; stroke-width: 1.0;"/><polygon fill="none" points="928.472,503.745,942.683,488.028,941.375,509.178,928.472,503.745" style="stroke: #A80036; stroke-width: 1.0;"/><!--MD5=[bc0b3096c7aa5bff2ed42868e0b826ca]
link RegisterDroneUI to RegisterDroneController--><path d="M290,108.09 C290,129.11 290,160.85 290,187.58 " fill="none" id="RegisterDroneUI-&gt;RegisterDroneController" style="stroke: #A80036; stroke-width: 1.0; stroke-dasharray: 7.0,7.0;"/><polygon fill="#A80036" points="290,192.85,294,183.85,290,187.85,286,183.85,290,192.85" style="stroke: #A80036; stroke-width: 1.0;"/><!--MD5=[41c0da9b77ec484983d59968149e9773]
link RegisterDroneController to PharmacyService--><path d="M266.102,283.023 C246.294,319.511 218.325,371.032 198.821,406.961 " fill="none" id="RegisterDroneController-&gt;PharmacyService" style="stroke: #A80036; stroke-width: 1.0; stroke-dasharray: 7.0,7.0;"/><polygon fill="#A80036" points="196.247,411.703,204.0573,405.7031,198.6332,407.3092,197.0272,401.8851,196.247,411.703" style="stroke: #A80036; stroke-width: 1.0;"/><!--MD5=[9f539eda316dc5b78e96ddf8ff397f5c]
link RegisterDroneController to DroneService--><path d="M299.433,283.023 C307.22,319.362 318.203,370.612 325.897,406.52 " fill="none" id="RegisterDroneController-&gt;DroneService" style="stroke: #A80036; stroke-width: 1.0; stroke-dasharray: 7.0,7.0;"/><polygon fill="#A80036" points="327.008,411.703,329.0315,402.0643,325.9594,406.8142,321.2094,403.7421,327.008,411.703" style="stroke: #A80036; stroke-width: 1.0;"/><!--MD5=[04ba2cb7f5803b19c0d0e740f2a895e0]
link Database to PharmacyDB--><path d="M694.095,473.635 C708.66,487.1 728.888,503.222 750,512 C776.469,523.005 786.676,511.333 814,520 C857.212,533.706 864.024,546.622 904,568 C907.961,570.118 912.049,572.306 916.166,574.511 " fill="none" id="Database-&gt;PharmacyDB" style="stroke: #A80036; stroke-width: 1.0;"/><polygon fill="#A80036" points="920.639,576.907,914.5941,569.1314,916.2315,574.5461,910.8168,576.1835,920.639,576.907" style="stroke: #A80036; stroke-width: 1.0;"/><text fill="#000000" font-family="sans-serif" font-size="13" lengthAdjust="spacingAndGlyphs" textLength="53" x="855" y="534.4951">manages</text><text fill="#000000" font-family="sans-serif" font-size="13" lengthAdjust="spacingAndGlyphs" textLength="7" x="700.0138" y="494.5315">1</text><text fill="#000000" font-family="sans-serif" font-size="13" lengthAdjust="spacingAndGlyphs" textLength="7" x="906.1327" y="569.4634">1</text><!--MD5=[3bc0a5f81cd94df0c3ef53dec7c84f6e]
link Database to DroneDB--><path d="M693.176,473.846 C709.761,491.579 733.538,516.655 755,538 C763.622,546.575 772.988,555.607 782.004,564.165 " fill="none" id="Database-&gt;DroneDB" style="stroke: #A80036; stroke-width: 1.0;"/><polygon fill="#A80036" points="785.844,567.801,782.0591,558.7084,782.2134,564.3632,776.5586,564.5174,785.844,567.801" style="stroke: #A80036; stroke-width: 1.0;"/><text fill="#000000" font-family="sans-serif" font-size="13" lengthAdjust="spacingAndGlyphs" textLength="53" x="756" y="534.4951">manages</text><text fill="#000000" font-family="sans-serif" font-size="13" lengthAdjust="spacingAndGlyphs" textLength="7" x="690.2636" y="494.7913">1</text><text fill="#000000" font-family="sans-serif" font-size="13" lengthAdjust="spacingAndGlyphs" textLength="7" x="771.0678" y="557.1275">1</text><!--MD5=[319fcd49d9a70ab1205ee2f78c6af69e]
link DroneService to PharmacyDB--><path d="M372.728,488.164 C396.6,511.633 423.136,537.616 424,538 C521.663,581.406 801.208,538.74 904,568 C908.041,569.15 912.111,570.562 916.146,572.155 " fill="none" id="DroneService-&gt;PharmacyDB" style="stroke: #A80036; stroke-width: 1.0;"/><polygon fill="#A80036" points="920.861,574.104,914.0712,566.9697,916.2401,572.1942,911.0156,574.3631,920.861,574.104" style="stroke: #A80036; stroke-width: 1.0;"/><text fill="#000000" font-family="sans-serif" font-size="13" lengthAdjust="spacingAndGlyphs" textLength="28" x="425" y="534.4951">uses</text><text fill="#000000" font-family="sans-serif" font-size="13" lengthAdjust="spacingAndGlyphs" textLength="7" x="371.1831" y="509.0707">1</text><text fill="#000000" font-family="sans-serif" font-size="13" lengthAdjust="spacingAndGlyphs" textLength="5" x="907.8359" y="584.1393">*</text><!--MD5=[4aef795f878f9415740bac6fb901c4c8]
link DroneService to DroneDB--><path d="M341.141,488.345 C346.1,506.276 355.017,526.349 371,538 C437.303,586.332 659.336,548.359 739,568 C746.121,569.756 753.408,572.026 760.584,574.578 " fill="none" id="DroneService-&gt;DroneDB" style="stroke: #A80036; stroke-width: 1.0;"/><polygon fill="#A80036" points="765.532,576.386,758.4514,569.5402,760.8357,574.6701,755.7058,577.0544,765.532,576.386" style="stroke: #A80036; stroke-width: 1.0;"/><text fill="#000000" font-family="sans-serif" font-size="13" lengthAdjust="spacingAndGlyphs" textLength="28" x="372" y="534.4951">uses</text><text fill="#000000" font-family="sans-serif" font-size="13" lengthAdjust="spacingAndGlyphs" textLength="7" x="334.5619" y="509.2805">1</text><text fill="#000000" font-family="sans-serif" font-size="13" lengthAdjust="spacingAndGlyphs" textLength="5" x="752.8578" y="569.3383">*</text><!--MD5=[2ed2b43e7f6d114538396b0b10b28567]
link PharmacyService to Pharmacy--><path d="M142.181,488.101 C104.4179,534.167 53.7976,613.333 96,668 C156.078,745.822 219.295,686.076 310,724 C322.303,729.144 334.967,735.816 346.639,742.616 " fill="none" id="PharmacyService-&gt;Pharmacy" style="stroke: #A80036; stroke-width: 1.0;"/><polygon fill="#A80036" points="351.232,745.327,345.5146,737.3075,346.9261,742.7855,341.4482,744.197,351.232,745.327" style="stroke: #A80036; stroke-width: 1.0;"/><text fill="#000000" font-family="sans-serif" font-size="13" lengthAdjust="spacingAndGlyphs" textLength="111" x="97" y="611.4951">manage services of</text><text fill="#000000" font-family="sans-serif" font-size="13" lengthAdjust="spacingAndGlyphs" textLength="7" x="129" y="509.2879">1</text><text fill="#000000" font-family="sans-serif" font-size="13" lengthAdjust="spacingAndGlyphs" textLength="5" x="338.5689" y="736.556">*</text><!--MD5=[e3cc844120729527281d37c09bce0e7b]
link DroneService to Drone--><path d="M294.841,488.084 C283.319,497.084 270.264,505.869 257,512 C240.939,519.425 229.184,506.289 218,520 C212.943,526.199 213.453,531.418 218,538 C225.253,548.501 234.381,557.358 244.646,564.829 " fill="none" id="DroneService-&gt;Drone" style="stroke: #A80036; stroke-width: 1.0;"/><polygon fill="#A80036" points="248.793,567.731,243.714,559.2928,244.6969,564.8636,239.1261,565.8465,248.793,567.731" style="stroke: #A80036; stroke-width: 1.0;"/><text fill="#000000" font-family="sans-serif" font-size="13" lengthAdjust="spacingAndGlyphs" textLength="111" x="219" y="534.4951">manage services of</text><text fill="#000000" font-family="sans-serif" font-size="13" lengthAdjust="spacingAndGlyphs" textLength="7" x="280.61" y="509.2681">1</text><text fill="#000000" font-family="sans-serif" font-size="13" lengthAdjust="spacingAndGlyphs" textLength="5" x="217.3046" y="557.045">*</text><!--MD5=[51d7b9a785c9fb041ca400474ed1d998]
link Database to Pharmacy--><path d="M667.595,473.556 C658.294,516.072 633.086,609.082 581,668 C542.06,712.048 480.335,742.292 438.784,758.993 " fill="none" id="Database-Pharmacy" style="stroke: #A80036; stroke-width: 1.0;"/><text fill="#000000" font-family="sans-serif" font-size="13" lengthAdjust="spacingAndGlyphs" textLength="82" x="640" y="611.4951">has registered</text><polygon fill="#000000" points="676.5,620.3516,679.5,626.3516,682.5,620.3516,676.5,620.3516" style="stroke: #000000; stroke-width: 1.0;"/><text fill="#000000" font-family="sans-serif" font-size="13" lengthAdjust="spacingAndGlyphs" textLength="7" x="658.767" y="494.4343">1</text><text fill="#000000" font-family="sans-serif" font-size="13" lengthAdjust="spacingAndGlyphs" textLength="5" x="446.4498" y="752.4854">*</text><!--MD5=[96117966725c1e8921b92ed7b1677b7b]
link Database to Drone--><path d="M631.421,465.441 C598.114,477.982 550.221,497.615 511,520 C486.606,533.923 461.25,552.024 440.489,567.942 " fill="none" id="Database-Drone" style="stroke: #A80036; stroke-width: 1.0;"/><polygon fill="#000000" points="519,527.6758,513,530.6758,519,533.6758,519,527.6758" style="stroke: #000000; stroke-width: 1.0;"/><text fill="#000000" font-family="sans-serif" font-size="13" lengthAdjust="spacingAndGlyphs" textLength="82" x="525" y="534.4951">has registered</text><text fill="#000000" font-family="sans-serif" font-size="13" lengthAdjust="spacingAndGlyphs" textLength="7" x="616.5694" y="464.3276">1</text><text fill="#000000" font-family="sans-serif" font-size="13" lengthAdjust="spacingAndGlyphs" textLength="5" x="443.4151" y="557.0078">*</text><!--MD5=[074a56c4439d52c76e1cc7a8f9d070a4]
link Vehicle to Battery--><path d="M238.166,827.227 C234.693,857.432 230.3,895.632 226.827,925.827 " fill="none" id="Vehicle-Battery" style="stroke: #A80036; stroke-width: 1.0;"/><text fill="#000000" font-family="sans-serif" font-size="13" lengthAdjust="spacingAndGlyphs" textLength="21" x="236" y="871.4951">has</text><polygon fill="#000000" points="242,880.3516,245,886.3516,248,880.3516,242,880.3516" style="stroke: #000000; stroke-width: 1.0;"/><text fill="#000000" font-family="sans-serif" font-size="13" lengthAdjust="spacingAndGlyphs" textLength="7" x="229.9117" y="848.7485">1</text><text fill="#000000" font-family="sans-serif" font-size="13" lengthAdjust="spacingAndGlyphs" textLength="7" x="220.1397" y="915.3041">1</text><!--MD5=[3f58d672939e81cd871f2f51e09decba]
link Drone to Vehicle--><path d="M342.44,644.188 C330.458,653.852 318.249,664.735 308,676 C294.893,690.405 282.659,707.771 272.47,723.883 " fill="none" id="Drone-Vehicle" style="stroke: #A80036; stroke-width: 1.0;"/><text fill="#000000" font-family="sans-serif" font-size="13" lengthAdjust="spacingAndGlyphs" textLength="64" x="309" y="690.4951">is a type of</text><polygon fill="#000000" points="336.5,699.3516,339.5,705.3516,342.5,699.3516,336.5,699.3516" style="stroke: #000000; stroke-width: 1.0;"/><text fill="#000000" font-family="sans-serif" font-size="13" lengthAdjust="spacingAndGlyphs" textLength="5" x="328.6648" y="665.0985">*</text><text fill="#000000" font-family="sans-serif" font-size="13" lengthAdjust="spacingAndGlyphs" textLength="7" x="268.9814" y="712.995">1</text><!--MD5=[0b0bc9c7f03600b7866f5e5adba791e4]
link Drone to Pharmacy--><path d="M395,644.174 C395,671.931 395,709.698 395,737.43 " fill="none" id="Drone-Pharmacy" style="stroke: #A80036; stroke-width: 1.0;"/><text fill="#000000" font-family="sans-serif" font-size="13" lengthAdjust="spacingAndGlyphs" textLength="60" x="396" y="690.4951">belongs to</text><polygon fill="#000000" points="421.5,699.3516,424.5,705.3516,427.5,699.3516,421.5,699.3516" style="stroke: #000000; stroke-width: 1.0;"/><text fill="#000000" font-family="sans-serif" font-size="13" lengthAdjust="spacingAndGlyphs" textLength="5" x="389.6016" y="665.0823">*</text><text fill="#000000" font-family="sans-serif" font-size="13" lengthAdjust="spacingAndGlyphs" textLength="7" x="387.3766" y="726.7794">1</text><!--MD5=[89baec1bfb4a213750f7c61516e0a0f1]
link Pharmacy to Address--><path d="M416.547,813.65 C431.354,839.18 451.493,873.902 469.371,904.726 " fill="none" id="Pharmacy-Address" style="stroke: #A80036; stroke-width: 1.0;"/><text fill="#000000" font-family="sans-serif" font-size="13" lengthAdjust="spacingAndGlyphs" textLength="21" x="451" y="871.4951">has</text><polygon fill="#000000" points="457,880.3516,460,886.3516,463,880.3516,457,880.3516" style="stroke: #000000; stroke-width: 1.0;"/><text fill="#000000" font-family="sans-serif" font-size="13" lengthAdjust="spacingAndGlyphs" textLength="7" x="412.4232" y="834.5544">1</text><text fill="#000000" font-family="sans-serif" font-size="13" lengthAdjust="spacingAndGlyphs" textLength="7" x="457.7171" y="893.9171">1</text><!--MD5=[38e089e476d423925ff503e653533f7d]
link Pharmacy to DronePark--><path d="M389.799,813.65 C384.438,851.945 376.181,910.921 371.214,946.403 " fill="none" id="Pharmacy-DronePark" style="stroke: #A80036; stroke-width: 1.0;"/><text fill="#000000" font-family="sans-serif" font-size="13" lengthAdjust="spacingAndGlyphs" textLength="21" x="385" y="871.4951">has</text><polygon fill="#000000" points="391,880.3516,394,886.3516,397,880.3516,391,880.3516" style="stroke: #000000; stroke-width: 1.0;"/><text fill="#000000" font-family="sans-serif" font-size="13" lengthAdjust="spacingAndGlyphs" textLength="7" x="381.4123" y="834.5544">1</text><text fill="#000000" font-family="sans-serif" font-size="13" lengthAdjust="spacingAndGlyphs" textLength="7" x="364.3702" y="935.402">1</text><!--MD5=[7536b4ac16cca54a78c22aa555a9c2ab]
link DronePark to DroneChargingSlot--><path d="M353.969,1008.88 C340.022,1041.393 317.888,1092.993 302.919,1127.888 " fill="none" id="DronePark-DroneChargingSlot" style="stroke: #A80036; stroke-width: 1.0;"/><text fill="#000000" font-family="sans-serif" font-size="13" lengthAdjust="spacingAndGlyphs" textLength="21" x="324" y="1094.4951">has</text><polygon fill="#000000" points="330,1103.3516,333,1109.3516,336,1103.3516,330,1103.3516" style="stroke: #000000; stroke-width: 1.0;"/><text fill="#000000" font-family="sans-serif" font-size="13" lengthAdjust="spacingAndGlyphs" textLength="7" x="343.8178" y="1029.9311">1</text><text fill="#000000" font-family="sans-serif" font-size="13" lengthAdjust="spacingAndGlyphs" textLength="7" x="298.1311" y="1117.23">1</text><!--MD5=[90d11682e395649ab5adc896502c3617]
link DronePark to DroneParkingSlot--><path d="M381.497,1008.88 C398.097,1043.664 425.122,1100.294 441.656,1134.943 " fill="none" id="DronePark-DroneParkingSlot" style="stroke: #A80036; stroke-width: 1.0;"/><text fill="#000000" font-family="sans-serif" font-size="13" lengthAdjust="spacingAndGlyphs" textLength="21" x="424" y="1094.4951">has</text><polygon fill="#000000" points="430,1103.3516,433,1109.3516,436,1103.3516,430,1103.3516" style="stroke: #000000; stroke-width: 1.0;"/><text fill="#000000" font-family="sans-serif" font-size="13" lengthAdjust="spacingAndGlyphs" textLength="7" x="376.5933" y="1029.9311">1</text><text fill="#000000" font-family="sans-serif" font-size="13" lengthAdjust="spacingAndGlyphs" textLength="7" x="430.7526" y="1123.9508">1</text><!--MD5=[424b3f360d07515b09dc782623972cb0]
@startuml
skinparam classAttributeIconSize 0

database Database {
}

package "UI" #DDDDDD {
class RegisterDroneUI{
}
}

package "Controller" #DDDDDD {
class RegisterDroneController{
+getPharmacies()
+newDrone(batteryPerc, chargingStatus, potency, weight, batteryCapacity, maxPayload, pharmacyId)
+registerDrone(drone)
}
}


package "Model" #DDDDDD {
 package "Service" #DDDDDD {
  class PharmacyService{
      +PharmacyService()
      +getPharmacies()
  }

  class DroneService{
      +DroneService()
      +registerDrone(drone)
   }
}

package "Model" #DDDDDD {
class DronePark{
-   int maxSlotsNumber
}

class DroneChargingSlot{
-   int id
-   float outputPower
}

class DroneParkingSlot{
-   int id
}

class Drone{
  +Drone(batteryPerc, charginStatus, potency,\n weight, batteryCapacity, maxPayload, batteryVoltage, pharmacyId)
}

class Vehicle{
  -int id
  -float potency
  -float weight
  -float maxPayload
}

class Battery{
  -int id
  -float batteryPerc
  -int batteryCapacity
  -float batteryVoltage
}

class Address{
  -double longitude
  -float latitude
  -String doorNumber
  -String streetName
  -String postalCode
  -String locality
  -String country
}

class Pharmacy {
  -int id
  -String name
}
}


package "Data" #DDDDDD {
class DataHandler{
    +openConnection()
    +closeAll()
}
class PharmacyDB{
     +PharmacyDB()
     +getPharmacies()
 }

 class DroneDB{
     +DroneDB()
     +registerDrone(drone)
  }
}

class PharmacyDB extends DataHandler
class DroneDB extends DataHandler

RegisterDroneUI ..> RegisterDroneController
RegisterDroneController ..> PharmacyService
RegisterDroneController ..> DroneService
Database "1" - -> "1" PharmacyDB : manages
Database "1" - -> "1" DroneDB : manages
DroneService "1" - -> "*" PharmacyDB : uses
DroneService "1" - -> "*" DroneDB : uses
PharmacyService "1" - -> "*" Pharmacy : manage services of
DroneService "1" - -> "*" Drone : manage services of

Database "1" - - "*" Pharmacy : has registered >
Database "1" - - "*" Drone : has registered >

Vehicle "1" - - "1" Battery : has >
Drone "*" - - "1" Vehicle : is a type of >
Drone "*" - - "1" Pharmacy : belongs to >
Pharmacy "1" - - "1" Address : has >
Pharmacy "1" - - "1" DronePark : has >
DronePark "1" - - "1" DroneChargingSlot : has >
DronePark "1" - - "1" DroneParkingSlot : has >

@enduml

PlantUML version 1.2020.09(Sun May 10 11:51:06 BST 2020)
(GPL source distribution)
Java Runtime: OpenJDK Runtime Environment
JVM: OpenJDK 64-Bit Server VM
Java Version: 11.0.6+8-b765.40
Operating System: Windows 10
Default Encoding: Cp1252
Language: pt
Country: PT
--></g></svg>