<?xml version="1.0" encoding="UTF-8" standalone="no"?><svg xmlns="http://www.w3.org/2000/svg" xmlns:xlink="http://www.w3.org/1999/xlink" contentScriptType="application/ecmascript" contentStyleType="text/css" height="874.2px" preserveAspectRatio="none" style="width:1293px;height:874px;" version="1.1" viewBox="0 0 1293 874" width="1293px" zoomAndPan="magnify"><defs><filter height="300%" id="f15lwlnucu7d7t" width="300%" x="-1" y="-1"><feGaussianBlur result="blurOut" stdDeviation="1.2"/><feColorMatrix in="blurOut" result="blurOut2" type="matrix" values="0 0 0 0 0 0 0 0 0 0 0 0 0 0 0 0 0 0 .4 0"/><feOffset dx="2.4" dy="2.4" in="blurOut2" result="blurOut3"/><feBlend in="SourceGraphic" in2="blurOut3" mode="normal"/></filter></defs><g><!--MD5=[9681dc6e01e10c6b4fe06895ae94f592]
cluster UI--><polygon fill="#DDDDDD" filter="url(#f15lwlnucu7d7t)" points="147.6,14.4,159.6,14.4,163.8,28.5656,242.4,28.5656,242.4,74.4,147.6,74.4,147.6,14.4" style="stroke: #000000; stroke-width: 0.8999999999999999;"/><line style="stroke: #000000; stroke-width: 0.8999999999999999;" x1="147.6" x2="163.8" y1="28.5656" y2="28.5656"/><text fill="#000000" font-family="sans-serif" font-size="8.4" font-weight="bold" lengthAdjust="spacingAndGlyphs" textLength="8.4" x="150" y="24.3199">UI</text><!--MD5=[f21b1f164e99c6b37934f23ad048ad54]
cluster Data--><polygon fill="#DDDDDD" filter="url(#f15lwlnucu7d7t)" points="1063.2,303.6,1085.4,303.6,1089.6,317.7656,1279.8,317.7656,1279.8,498.9,1063.2,498.9,1063.2,303.6" style="stroke: #000000; stroke-width: 0.8999999999999999;"/><line style="stroke: #000000; stroke-width: 0.8999999999999999;" x1="1063.2" x2="1089.6" y1="317.7656" y2="317.7656"/><text fill="#000000" font-family="sans-serif" font-size="8.4" font-weight="bold" lengthAdjust="spacingAndGlyphs" textLength="18.6" x="1065.6" y="313.5199">Data</text><!--MD5=[1f2cfc53d9d308f53762fd0fcbaa4873]
cluster Controller--><polygon fill="#DDDDDD" filter="url(#f15lwlnucu7d7t)" points="13.2,94.2,59.4,94.2,63.6,108.3656,376.8,108.3656,376.8,270.6,13.2,270.6,13.2,94.2" style="stroke: #000000; stroke-width: 0.8999999999999999;"/><line style="stroke: #000000; stroke-width: 0.8999999999999999;" x1="13.2" x2="63.6" y1="108.3656" y2="108.3656"/><text fill="#000000" font-family="sans-serif" font-size="8.4" font-weight="bold" lengthAdjust="spacingAndGlyphs" textLength="42.6" x="15.6" y="104.1199">Controller</text><!--MD5=[15636c1ca4a123c16a2a1a8e90aca7a9]
cluster Model--><polygon fill="#DDDDDD" filter="url(#f15lwlnucu7d7t)" points="391.2,189.6,421.2,189.6,425.4,203.7656,1048.8,203.7656,1048.8,867,391.2,867,391.2,189.6" style="stroke: #000000; stroke-width: 0.8999999999999999;"/><line style="stroke: #000000; stroke-width: 0.8999999999999999;" x1="391.2" x2="425.4" y1="203.7656" y2="203.7656"/><text fill="#000000" font-family="sans-serif" font-size="8.4" font-weight="bold" lengthAdjust="spacingAndGlyphs" textLength="26.4" x="393.6" y="199.5199">Model</text><!--MD5=[7f5e0441b00afcd8fa9ae108c086a015]
cluster Registration--><polygon fill="#DDDDDD" filter="url(#f15lwlnucu7d7t)" points="535.8,303.6,591,303.6,595.2,317.7656,1034.4,317.7656,1034.4,380.4,535.8,380.4,535.8,303.6" style="stroke: #000000; stroke-width: 0.8999999999999999;"/><line style="stroke: #000000; stroke-width: 0.8999999999999999;" x1="535.8" x2="595.2" y1="317.7656" y2="317.7656"/><text fill="#000000" font-family="sans-serif" font-size="8.4" font-weight="bold" lengthAdjust="spacingAndGlyphs" textLength="51.6" x="538.2" y="313.5199">Registration</text><!--MD5=[f251daccc4f62ba7ef84cad74c4911ba]
class RegisterDroneUI--><rect fill="#FEFECE" filter="url(#f15lwlnucu7d7t)" height="28.8" id="RegisterDroneUI" style="stroke: #A80036; stroke-width: 0.8999999999999999;" width="75" x="157.5" y="36"/><ellipse cx="166.5" cy="45.6" fill="#ADD1B2" rx="6.6" ry="6.6" style="stroke: #A80036; stroke-width: 0.6;"/><path d="M167.7,43.5 Q167.8219,43.2 167.9625,43.05 Q168.1031,42.9 168.2625,42.9 Q168.5438,42.9 168.7219,43.0688 Q168.9,43.2375 168.9,43.6313 L168.9,44.5688 Q168.9,44.9625 168.7313,45.1313 Q168.5625,45.3 168.3,45.3 Q168.0656,45.3 167.9156,45.1969 Q167.7656,45.0938 167.7,44.8219 Q167.6719,44.6344 167.5688,44.5313 Q167.3813,44.3344 167.0438,44.2219 Q166.7062,44.1 166.3688,44.1 Q165.9469,44.1 165.5906,44.2688 Q165.2438,44.4375 164.9719,44.8125 Q164.7,45.1875 164.7,45.7031 L164.7,46.2563 Q164.7,46.875 165.2062,47.2875 Q165.7125,47.7 166.6125,47.7 Q167.1469,47.7 167.5219,47.5781 Q167.7375,47.5125 167.9813,47.2969 Q168.1406,47.175 168.225,47.1375 Q168.3094,47.1 168.4125,47.1 Q168.6094,47.1 168.75,47.2594 Q168.9,47.4094 168.9,47.625 Q168.9,47.8313 168.6938,48.075 Q168.3937,48.4313 167.9156,48.6281 Q167.2875,48.9 166.5187,48.9 Q165.6188,48.9 164.8969,48.5437 Q164.3156,48.2625 163.9031,47.6531 Q163.5,47.0437 163.5,46.3219 L163.5,45.6656 Q163.5,44.9156 163.8563,44.2594 Q164.2219,43.6031 164.85,43.2563 Q165.4875,42.9 166.2,42.9 Q166.6313,42.9 167.0063,43.05 Q167.3813,43.2 167.7,43.5 Z "/><text fill="#000000" font-family="sans-serif" font-size="7.2" lengthAdjust="spacingAndGlyphs" textLength="55.8" x="174.9" y="48.5461">RegisterDroneUI</text><line style="stroke: #A80036; stroke-width: 0.8999999999999999;" x1="158.1" x2="231.9" y1="55.2" y2="55.2"/><line style="stroke: #A80036; stroke-width: 0.8999999999999999;" x1="158.1" x2="231.9" y1="60" y2="60"/><!--MD5=[e5e4874ffcb9901dc5acd0f1e94e7c33]
class DroneDB--><rect fill="#FEFECE" filter="url(#f15lwlnucu7d7t)" height="37.1016" id="DroneDB" style="stroke: #A80036; stroke-width: 0.8999999999999999;" width="75.6" x="1072.8" y="452.1"/><ellipse cx="1093.41" cy="461.7" fill="#ADD1B2" rx="6.6" ry="6.6" style="stroke: #A80036; stroke-width: 0.6;"/><path d="M1094.61,459.6 Q1094.7319,459.3 1094.8725,459.15 Q1095.0131,459 1095.1725,459 Q1095.4538,459 1095.6319,459.1688 Q1095.81,459.3375 1095.81,459.7313 L1095.81,460.6688 Q1095.81,461.0625 1095.6413,461.2313 Q1095.4725,461.4 1095.21,461.4 Q1094.9756,461.4 1094.8256,461.2969 Q1094.6756,461.1937 1094.61,460.9219 Q1094.5819,460.7344 1094.4788,460.6312 Q1094.2913,460.4344 1093.9538,460.3219 Q1093.6162,460.2 1093.2788,460.2 Q1092.8569,460.2 1092.5006,460.3688 Q1092.1538,460.5375 1091.8819,460.9125 Q1091.61,461.2875 1091.61,461.8031 L1091.61,462.3563 Q1091.61,462.975 1092.1162,463.3875 Q1092.6225,463.8 1093.5225,463.8 Q1094.0569,463.8 1094.4319,463.6781 Q1094.6475,463.6125 1094.8913,463.3969 Q1095.0506,463.275 1095.135,463.2375 Q1095.2194,463.2 1095.3225,463.2 Q1095.5194,463.2 1095.66,463.3594 Q1095.81,463.5094 1095.81,463.725 Q1095.81,463.9313 1095.6038,464.175 Q1095.3037,464.5313 1094.8256,464.7281 Q1094.1975,465 1093.4287,465 Q1092.5288,465 1091.8069,464.6437 Q1091.2256,464.3625 1090.8131,463.7531 Q1090.41,463.1437 1090.41,462.4219 L1090.41,461.7656 Q1090.41,461.0156 1090.7663,460.3594 Q1091.1319,459.7031 1091.76,459.3563 Q1092.3975,459 1093.11,459 Q1093.5413,459 1093.9163,459.15 Q1094.2913,459.3 1094.61,459.6 Z "/><text fill="#000000" font-family="sans-serif" font-size="7.2" lengthAdjust="spacingAndGlyphs" textLength="30.6" x="1104.39" y="464.6461">DroneDB</text><line style="stroke: #A80036; stroke-width: 0.8999999999999999;" x1="1073.4" x2="1147.8" y1="471.3" y2="471.3"/><line style="stroke: #A80036; stroke-width: 0.8999999999999999;" x1="1073.4" x2="1147.8" y1="476.1" y2="476.1"/><text fill="#000000" font-family="sans-serif" font-size="6.6" lengthAdjust="spacingAndGlyphs" textLength="68.4" x="1076.4" y="485.3514">+registersDrone(drone)</text><!--MD5=[b860ecc58d0ca70e482845cb1f7b4615]
class PharmacyDB--><rect fill="#FEFECE" filter="url(#f15lwlnucu7d7t)" height="37.1016" id="PharmacyDB" style="stroke: #A80036; stroke-width: 0.8999999999999999;" width="100.8" x="1169.4" y="452.1"/><ellipse cx="1195.68" cy="461.7" fill="#ADD1B2" rx="6.6" ry="6.6" style="stroke: #A80036; stroke-width: 0.6;"/><path d="M1196.88,459.6 Q1197.0019,459.3 1197.1425,459.15 Q1197.2831,459 1197.4425,459 Q1197.7237,459 1197.9019,459.1688 Q1198.08,459.3375 1198.08,459.7313 L1198.08,460.6688 Q1198.08,461.0625 1197.9112,461.2313 Q1197.7425,461.4 1197.48,461.4 Q1197.2456,461.4 1197.0956,461.2969 Q1196.9456,461.1937 1196.88,460.9219 Q1196.8519,460.7344 1196.7488,460.6312 Q1196.5613,460.4344 1196.2237,460.3219 Q1195.8863,460.2 1195.5488,460.2 Q1195.1269,460.2 1194.7706,460.3688 Q1194.4238,460.5375 1194.1519,460.9125 Q1193.88,461.2875 1193.88,461.8031 L1193.88,462.3563 Q1193.88,462.975 1194.3863,463.3875 Q1194.8925,463.8 1195.7925,463.8 Q1196.3269,463.8 1196.7019,463.6781 Q1196.9175,463.6125 1197.1612,463.3969 Q1197.3206,463.275 1197.405,463.2375 Q1197.4894,463.2 1197.5925,463.2 Q1197.7894,463.2 1197.93,463.3594 Q1198.08,463.5094 1198.08,463.725 Q1198.08,463.9313 1197.8738,464.175 Q1197.5738,464.5313 1197.0956,464.7281 Q1196.4675,465 1195.6988,465 Q1194.7988,465 1194.0769,464.6437 Q1193.4956,464.3625 1193.0831,463.7531 Q1192.68,463.1437 1192.68,462.4219 L1192.68,461.7656 Q1192.68,461.0156 1193.0362,460.3594 Q1193.4019,459.7031 1194.03,459.3563 Q1194.6675,459 1195.38,459 Q1195.8113,459 1196.1863,459.15 Q1196.5613,459.3 1196.88,459.6 Z "/><text fill="#000000" font-family="sans-serif" font-size="7.2" lengthAdjust="spacingAndGlyphs" textLength="43.2" x="1207.92" y="464.6461">PharmacyDB</text><line style="stroke: #A80036; stroke-width: 0.8999999999999999;" x1="1170" x2="1269.6" y1="471.3" y2="471.3"/><line style="stroke: #A80036; stroke-width: 0.8999999999999999;" x1="1170" x2="1269.6" y1="476.1" y2="476.1"/><text fill="#000000" font-family="sans-serif" font-size="6.6" lengthAdjust="spacingAndGlyphs" textLength="93.6" x="1173" y="485.3514">+getPharmacyByManager(email)</text><!--MD5=[4b2d61224b33971326a22fe5d809d926]
class DataHandler--><rect fill="#FEFECE" filter="url(#f15lwlnucu7d7t)" height="45.4031" id="DataHandler" style="stroke: #A80036; stroke-width: 0.8999999999999999;" width="62.4" x="1134" y="325.2"/><ellipse cx="1143.54" cy="334.8" fill="#ADD1B2" rx="6.6" ry="6.6" style="stroke: #A80036; stroke-width: 0.6;"/><path d="M1144.74,332.7 Q1144.8619,332.4 1145.0025,332.25 Q1145.1431,332.1 1145.3025,332.1 Q1145.5838,332.1 1145.7619,332.2688 Q1145.94,332.4375 1145.94,332.8313 L1145.94,333.7688 Q1145.94,334.1625 1145.7713,334.3313 Q1145.6025,334.5 1145.34,334.5 Q1145.1056,334.5 1144.9556,334.3969 Q1144.8056,334.2938 1144.74,334.0219 Q1144.7119,333.8344 1144.6088,333.7313 Q1144.4213,333.5344 1144.0838,333.4219 Q1143.7463,333.3 1143.4088,333.3 Q1142.9869,333.3 1142.6306,333.4688 Q1142.2838,333.6375 1142.0119,334.0125 Q1141.74,334.3875 1141.74,334.9031 L1141.74,335.4563 Q1141.74,336.075 1142.2463,336.4875 Q1142.7525,336.9 1143.6525,336.9 Q1144.1869,336.9 1144.5619,336.7781 Q1144.7775,336.7125 1145.0213,336.4969 Q1145.1806,336.375 1145.265,336.3375 Q1145.3494,336.3 1145.4525,336.3 Q1145.6494,336.3 1145.79,336.4594 Q1145.94,336.6094 1145.94,336.825 Q1145.94,337.0313 1145.7338,337.275 Q1145.4338,337.6312 1144.9556,337.8281 Q1144.3275,338.1 1143.5588,338.1 Q1142.6588,338.1 1141.9369,337.7438 Q1141.3556,337.4625 1140.9431,336.8531 Q1140.54,336.2438 1140.54,335.5219 L1140.54,334.8656 Q1140.54,334.1156 1140.8963,333.4594 Q1141.2619,332.8031 1141.89,332.4563 Q1142.5275,332.1 1143.24,332.1 Q1143.6713,332.1 1144.0463,332.25 Q1144.4213,332.4 1144.74,332.7 Z "/><text fill="#000000" font-family="sans-serif" font-size="7.2" lengthAdjust="spacingAndGlyphs" textLength="42" x="1152.06" y="337.7461">DataHandler</text><line style="stroke: #A80036; stroke-width: 0.8999999999999999;" x1="1134.6" x2="1195.8" y1="344.4" y2="344.4"/><line style="stroke: #A80036; stroke-width: 0.8999999999999999;" x1="1134.6" x2="1195.8" y1="349.2" y2="349.2"/><text fill="#000000" font-family="sans-serif" font-size="6.6" lengthAdjust="spacingAndGlyphs" textLength="55.2" x="1137.6" y="358.4514">+openConnection()</text><text fill="#000000" font-family="sans-serif" font-size="6.6" lengthAdjust="spacingAndGlyphs" textLength="31.2" x="1137.6" y="366.7529">+closeAll()</text><!--MD5=[7bfe739f2abd87692f4d4d8e06b95cec]
class RegisterDroneController--><rect fill="#FEFECE" filter="url(#f15lwlnucu7d7t)" height="45.4031" id="RegisterDroneController" style="stroke: #A80036; stroke-width: 0.8999999999999999;" width="343.8" x="23.1" y="115.8"/><ellipse cx="151.95" cy="125.4" fill="#ADD1B2" rx="6.6" ry="6.6" style="stroke: #A80036; stroke-width: 0.6;"/><path d="M153.15,123.3 Q153.2719,123 153.4125,122.85 Q153.5531,122.7 153.7125,122.7 Q153.9938,122.7 154.1719,122.8687 Q154.35,123.0375 154.35,123.4312 L154.35,124.3687 Q154.35,124.7625 154.1813,124.9312 Q154.0125,125.1 153.75,125.1 Q153.5156,125.1 153.3656,124.9969 Q153.2156,124.8938 153.15,124.6219 Q153.1219,124.4344 153.0187,124.3313 Q152.8312,124.1344 152.4938,124.0219 Q152.1563,123.9 151.8188,123.9 Q151.3969,123.9 151.0406,124.0688 Q150.6938,124.2375 150.4219,124.6125 Q150.15,124.9875 150.15,125.5031 L150.15,126.0562 Q150.15,126.675 150.6563,127.0875 Q151.1625,127.5 152.0625,127.5 Q152.5969,127.5 152.9719,127.3781 Q153.1875,127.3125 153.4313,127.0969 Q153.5906,126.975 153.675,126.9375 Q153.7594,126.9 153.8625,126.9 Q154.0594,126.9 154.2,127.0594 Q154.35,127.2094 154.35,127.425 Q154.35,127.6313 154.1437,127.875 Q153.8438,128.2313 153.3656,128.4281 Q152.7375,128.7 151.9688,128.7 Q151.0688,128.7 150.3469,128.3438 Q149.7656,128.0625 149.3531,127.4531 Q148.95,126.8438 148.95,126.1219 L148.95,125.4656 Q148.95,124.7156 149.3063,124.0594 Q149.6719,123.4031 150.3,123.0562 Q150.9375,122.7 151.65,122.7 Q152.0812,122.7 152.4562,122.85 Q152.8312,123 153.15,123.3 Z "/><text fill="#000000" font-family="sans-serif" font-size="7.2" lengthAdjust="spacingAndGlyphs" textLength="81" x="164.25" y="128.3461">RegisterDroneController</text><line style="stroke: #A80036; stroke-width: 0.8999999999999999;" x1="23.7" x2="366.3" y1="135" y2="135"/><line style="stroke: #A80036; stroke-width: 0.8999999999999999;" x1="23.7" x2="366.3" y1="139.8" y2="139.8"/><text fill="#000000" font-family="sans-serif" font-size="6.6" lengthAdjust="spacingAndGlyphs" textLength="336.6" x="26.7" y="149.0514">+newDrone(batteryPerc, chargingStatus, potency, weight, batteryCapacity, maxPayload, batteryVoltage, pharmacy)</text><text fill="#000000" font-family="sans-serif" font-size="6.6" lengthAdjust="spacingAndGlyphs" textLength="68.4" x="26.7" y="157.3529">+registersDrone(drone)</text><!--MD5=[e45a4727c47b726c25e081782e8bc183]
class ApplicationPOT--><rect fill="#FEFECE" filter="url(#f15lwlnucu7d7t)" height="45.4031" id="ApplicationPOT" style="stroke: #A80036; stroke-width: 0.8999999999999999;" width="69.6" x="136.2" y="215.4"/><ellipse cx="145.2" cy="225" fill="#ADD1B2" rx="6.6" ry="6.6" style="stroke: #A80036; stroke-width: 0.6;"/><path d="M146.4,222.9 Q146.5219,222.6 146.6625,222.45 Q146.8031,222.3 146.9625,222.3 Q147.2438,222.3 147.4219,222.4688 Q147.6,222.6375 147.6,223.0313 L147.6,223.9688 Q147.6,224.3625 147.4313,224.5313 Q147.2625,224.7 147,224.7 Q146.7656,224.7 146.6156,224.5969 Q146.4656,224.4938 146.4,224.2219 Q146.3719,224.0344 146.2687,223.9313 Q146.0812,223.7344 145.7438,223.6219 Q145.4063,223.5 145.0688,223.5 Q144.6469,223.5 144.2906,223.6688 Q143.9438,223.8375 143.6719,224.2125 Q143.4,224.5875 143.4,225.1031 L143.4,225.6563 Q143.4,226.275 143.9063,226.6875 Q144.4125,227.1 145.3125,227.1 Q145.8469,227.1 146.2219,226.9781 Q146.4375,226.9125 146.6813,226.6969 Q146.8406,226.575 146.925,226.5375 Q147.0094,226.5 147.1125,226.5 Q147.3094,226.5 147.45,226.6594 Q147.6,226.8094 147.6,227.025 Q147.6,227.2313 147.3937,227.475 Q147.0938,227.8312 146.6156,228.0281 Q145.9875,228.3 145.2188,228.3 Q144.3188,228.3 143.5969,227.9438 Q143.0156,227.6625 142.6031,227.0531 Q142.2,226.4438 142.2,225.7219 L142.2,225.0656 Q142.2,224.3156 142.5563,223.6594 Q142.9219,223.0031 143.55,222.6563 Q144.1875,222.3 144.9,222.3 Q145.3312,222.3 145.7062,222.45 Q146.0812,222.6 146.4,222.9 Z "/><text fill="#000000" font-family="sans-serif" font-size="7.2" lengthAdjust="spacingAndGlyphs" textLength="50.4" x="153.6" y="227.9461">ApplicationPOT</text><line style="stroke: #A80036; stroke-width: 0.8999999999999999;" x1="136.8" x2="205.2" y1="234.6" y2="234.6"/><line style="stroke: #A80036; stroke-width: 0.8999999999999999;" x1="136.8" x2="205.2" y1="239.4" y2="239.4"/><text fill="#000000" font-family="sans-serif" font-size="6.6" lengthAdjust="spacingAndGlyphs" textLength="59.4" x="139.8" y="248.6514">+static getInstance()</text><text fill="#000000" font-family="sans-serif" font-size="6.6" lengthAdjust="spacingAndGlyphs" textLength="40.8" x="139.8" y="256.9529">+getPlatform()</text><!--MD5=[c5b08e60048ef1bcd788d24cf324082e]
class UserSession--><rect fill="#FEFECE" filter="url(#f15lwlnucu7d7t)" height="37.1016" id="UserSession" style="stroke: #A80036; stroke-width: 0.8999999999999999;" width="69.6" x="226.8" y="219.6"/><ellipse cx="238.77" cy="229.2" fill="#ADD1B2" rx="6.6" ry="6.6" style="stroke: #A80036; stroke-width: 0.6;"/><path d="M239.97,227.1 Q240.0919,226.8 240.2325,226.65 Q240.3731,226.5 240.5325,226.5 Q240.8137,226.5 240.9919,226.6688 Q241.17,226.8375 241.17,227.2313 L241.17,228.1688 Q241.17,228.5625 241.0012,228.7313 Q240.8325,228.9 240.57,228.9 Q240.3356,228.9 240.1856,228.7969 Q240.0356,228.6938 239.97,228.4219 Q239.9419,228.2344 239.8387,228.1313 Q239.6512,227.9344 239.3137,227.8219 Q238.9763,227.7 238.6388,227.7 Q238.2169,227.7 237.8606,227.8688 Q237.5138,228.0375 237.2419,228.4125 Q236.97,228.7875 236.97,229.3031 L236.97,229.8563 Q236.97,230.475 237.4763,230.8875 Q237.9825,231.3 238.8825,231.3 Q239.4169,231.3 239.7919,231.1781 Q240.0075,231.1125 240.2512,230.8969 Q240.4106,230.775 240.495,230.7375 Q240.5794,230.7 240.6825,230.7 Q240.8794,230.7 241.02,230.8594 Q241.17,231.0094 241.17,231.225 Q241.17,231.4312 240.9637,231.675 Q240.6638,232.0313 240.1856,232.2281 Q239.5575,232.5 238.7888,232.5 Q237.8888,232.5 237.1669,232.1437 Q236.5856,231.8625 236.1731,231.2531 Q235.77,230.6437 235.77,229.9219 L235.77,229.2656 Q235.77,228.5156 236.1262,227.8594 Q236.4919,227.2031 237.12,226.8563 Q237.7575,226.5 238.47,226.5 Q238.9012,226.5 239.2762,226.65 Q239.6512,226.8 239.97,227.1 Z "/><text fill="#000000" font-family="sans-serif" font-size="7.2" lengthAdjust="spacingAndGlyphs" textLength="43.8" x="247.83" y="232.1461">UserSession</text><line style="stroke: #A80036; stroke-width: 0.8999999999999999;" x1="227.4" x2="295.8" y1="238.8" y2="238.8"/><line style="stroke: #A80036; stroke-width: 0.8999999999999999;" x1="227.4" x2="295.8" y1="243.6" y2="243.6"/><text fill="#000000" font-family="sans-serif" font-size="6.6" lengthAdjust="spacingAndGlyphs" textLength="62.4" x="230.4" y="252.8514">+getCurrentSession()</text><!--MD5=[99b8db98afdc2c8404e39242ef4c1e65]
class Platform--><rect fill="#FEFECE" filter="url(#f15lwlnucu7d7t)" height="53.7047" id="Platform" style="stroke: #A80036; stroke-width: 0.8999999999999999;" width="61.2" x="413.4" y="211.2"/><ellipse cx="428.88" cy="220.8" fill="#ADD1B2" rx="6.6" ry="6.6" style="stroke: #A80036; stroke-width: 0.6;"/><path d="M430.08,218.7 Q430.2019,218.4 430.3425,218.25 Q430.4831,218.1 430.6425,218.1 Q430.9238,218.1 431.1019,218.2687 Q431.28,218.4375 431.28,218.8312 L431.28,219.7687 Q431.28,220.1625 431.1113,220.3312 Q430.9425,220.5 430.68,220.5 Q430.4456,220.5 430.2956,220.3969 Q430.1456,220.2938 430.08,220.0219 Q430.0519,219.8344 429.9487,219.7313 Q429.7612,219.5344 429.4238,219.4219 Q429.0862,219.3 428.7488,219.3 Q428.3269,219.3 427.9706,219.4688 Q427.6238,219.6375 427.3519,220.0125 Q427.08,220.3875 427.08,220.9031 L427.08,221.4562 Q427.08,222.075 427.5862,222.4875 Q428.0925,222.9 428.9925,222.9 Q429.5269,222.9 429.9019,222.7781 Q430.1175,222.7125 430.3613,222.4969 Q430.5206,222.375 430.605,222.3375 Q430.6894,222.3 430.7925,222.3 Q430.9894,222.3 431.13,222.4594 Q431.28,222.6094 431.28,222.825 Q431.28,223.0313 431.0737,223.275 Q430.7737,223.6313 430.2956,223.8281 Q429.6675,224.1 428.8987,224.1 Q427.9988,224.1 427.2769,223.7438 Q426.6956,223.4625 426.2831,222.8531 Q425.88,222.2438 425.88,221.5219 L425.88,220.8656 Q425.88,220.1156 426.2363,219.4594 Q426.6019,218.8031 427.23,218.4562 Q427.8675,218.1 428.58,218.1 Q429.0112,218.1 429.3862,218.25 Q429.7612,218.4 430.08,218.7 Z "/><text fill="#000000" font-family="sans-serif" font-size="7.2" lengthAdjust="spacingAndGlyphs" textLength="27.6" x="438.72" y="223.7461">Platform</text><line style="stroke: #A80036; stroke-width: 0.8999999999999999;" x1="414" x2="474" y1="230.4" y2="230.4"/><text fill="#000000" font-family="sans-serif" font-size="6.6" lengthAdjust="spacingAndGlyphs" textLength="54" x="417" y="239.6514">-String designation</text><line style="stroke: #A80036; stroke-width: 0.8999999999999999;" x1="414" x2="474" y1="243.5016" y2="243.5016"/><text fill="#000000" font-family="sans-serif" font-size="6.6" lengthAdjust="spacingAndGlyphs" textLength="45" x="417" y="252.7529">+gePharmReg()</text><text fill="#000000" font-family="sans-serif" font-size="6.6" lengthAdjust="spacingAndGlyphs" textLength="46.2" x="417" y="261.0545">+getDroneReg()</text><!--MD5=[2e3f1e60e74253ff42e47f8bfdb04ee2]
class Drone--><rect fill="#FEFECE" filter="url(#f15lwlnucu7d7t)" height="103.5141" id="Drone" style="stroke: #A80036; stroke-width: 0.8999999999999999;" width="330.6" x="433.5" y="418.8"/><ellipse cx="586.05" cy="428.4" fill="#ADD1B2" rx="6.6" ry="6.6" style="stroke: #A80036; stroke-width: 0.6;"/><path d="M587.25,426.3 Q587.3719,426 587.5125,425.85 Q587.6531,425.7 587.8125,425.7 Q588.0938,425.7 588.2719,425.8688 Q588.45,426.0375 588.45,426.4313 L588.45,427.3688 Q588.45,427.7625 588.2813,427.9313 Q588.1125,428.1 587.85,428.1 Q587.6156,428.1 587.4656,427.9969 Q587.3156,427.8938 587.25,427.6219 Q587.2219,427.4344 587.1188,427.3313 Q586.9313,427.1344 586.5938,427.0219 Q586.2563,426.9 585.9187,426.9 Q585.4969,426.9 585.1406,427.0687 Q584.7937,427.2375 584.5219,427.6125 Q584.25,427.9875 584.25,428.5031 L584.25,429.0563 Q584.25,429.675 584.7563,430.0875 Q585.2625,430.5 586.1625,430.5 Q586.6969,430.5 587.0719,430.3781 Q587.2875,430.3125 587.5313,430.0969 Q587.6906,429.975 587.775,429.9375 Q587.8594,429.9 587.9625,429.9 Q588.1594,429.9 588.3,430.0594 Q588.45,430.2094 588.45,430.425 Q588.45,430.6312 588.2438,430.875 Q587.9438,431.2313 587.4656,431.4281 Q586.8375,431.7 586.0688,431.7 Q585.1687,431.7 584.4469,431.3438 Q583.8656,431.0625 583.4531,430.4531 Q583.05,429.8438 583.05,429.1219 L583.05,428.4656 Q583.05,427.7156 583.4063,427.0594 Q583.7719,426.4031 584.4,426.0563 Q585.0375,425.7 585.75,425.7 Q586.1813,425.7 586.5563,425.85 Q586.9313,426 587.25,426.3 Z "/><text fill="#000000" font-family="sans-serif" font-size="7.2" lengthAdjust="spacingAndGlyphs" textLength="20.4" x="598.35" y="431.3461">Drone</text><line style="stroke: #A80036; stroke-width: 0.8999999999999999;" x1="434.1" x2="763.5" y1="438" y2="438"/><text fill="#000000" font-family="sans-serif" font-size="6.6" lengthAdjust="spacingAndGlyphs" textLength="15.6" x="437.1" y="447.2514">-int id</text><text fill="#000000" font-family="sans-serif" font-size="6.6" lengthAdjust="spacingAndGlyphs" textLength="50.4" x="437.1" y="455.5529">-float batteryPerc</text><text fill="#000000" font-family="sans-serif" font-size="6.6" lengthAdjust="spacingAndGlyphs" textLength="61.2" x="437.1" y="463.8545">-String charginStatus</text><text fill="#000000" font-family="sans-serif" font-size="6.6" lengthAdjust="spacingAndGlyphs" textLength="40.2" x="437.1" y="472.1561">-float potency</text><text fill="#000000" font-family="sans-serif" font-size="6.6" lengthAdjust="spacingAndGlyphs" textLength="36.6" x="437.1" y="480.4576">-float weight</text><text fill="#000000" font-family="sans-serif" font-size="6.6" lengthAdjust="spacingAndGlyphs" textLength="56.4" x="437.1" y="488.7592">-int batteryCapacity</text><text fill="#000000" font-family="sans-serif" font-size="6.6" lengthAdjust="spacingAndGlyphs" textLength="51.6" x="437.1" y="497.0607">-float maxPayload</text><text fill="#000000" font-family="sans-serif" font-size="6.6" lengthAdjust="spacingAndGlyphs" textLength="59.4" x="437.1" y="505.3623">-float batteryVoltage</text><line style="stroke: #A80036; stroke-width: 0.8999999999999999;" x1="434.1" x2="763.5" y1="509.2125" y2="509.2125"/><text fill="#000000" font-family="sans-serif" font-size="6.6" lengthAdjust="spacingAndGlyphs" textLength="323.4" x="437.1" y="518.4639">+Drone(batteryPerc, chargingStatus, potency, weight, batteryCapacity, maxPayload, batteryVoltage, pharmacy)</text><!--MD5=[0f39e4cb6f03951afbf6d14bd2505654]
class Address--><rect fill="#FEFECE" filter="url(#f15lwlnucu7d7t)" height="86.9109" id="Address" style="stroke: #A80036; stroke-width: 0.8999999999999999;" width="63.6" x="522" y="661.8"/><ellipse cx="538.56" cy="671.4" fill="#ADD1B2" rx="6.6" ry="6.6" style="stroke: #A80036; stroke-width: 0.6;"/><path d="M539.76,669.3 Q539.8819,669 540.0225,668.85 Q540.1631,668.7 540.3225,668.7 Q540.6038,668.7 540.7819,668.8688 Q540.96,669.0375 540.96,669.4313 L540.96,670.3688 Q540.96,670.7625 540.7913,670.9313 Q540.6225,671.1 540.36,671.1 Q540.1256,671.1 539.9756,670.9969 Q539.8256,670.8938 539.76,670.6219 Q539.7319,670.4344 539.6288,670.3313 Q539.4413,670.1344 539.1038,670.0219 Q538.7663,669.9 538.4288,669.9 Q538.0069,669.9 537.6506,670.0688 Q537.3038,670.2375 537.0319,670.6125 Q536.76,670.9875 536.76,671.5031 L536.76,672.0563 Q536.76,672.675 537.2663,673.0875 Q537.7725,673.5 538.6725,673.5 Q539.2069,673.5 539.5819,673.3781 Q539.7975,673.3125 540.0413,673.0969 Q540.2006,672.975 540.285,672.9375 Q540.3694,672.9 540.4725,672.9 Q540.6694,672.9 540.81,673.0594 Q540.96,673.2094 540.96,673.425 Q540.96,673.6313 540.7538,673.875 Q540.4538,674.2312 539.9756,674.4281 Q539.3475,674.7 538.5788,674.7 Q537.6788,674.7 536.9569,674.3438 Q536.3756,674.0625 535.9631,673.4531 Q535.56,672.8438 535.56,672.1219 L535.56,671.4656 Q535.56,670.7156 535.9163,670.0594 Q536.2819,669.4031 536.91,669.0563 Q537.5475,668.7 538.26,668.7 Q538.6913,668.7 539.0663,668.85 Q539.4413,669 539.76,669.3 Z "/><text fill="#000000" font-family="sans-serif" font-size="7.2" lengthAdjust="spacingAndGlyphs" textLength="27.6" x="548.64" y="674.3461">Address</text><line style="stroke: #A80036; stroke-width: 0.8999999999999999;" x1="522.6" x2="585" y1="681" y2="681"/><text fill="#000000" font-family="sans-serif" font-size="6.6" lengthAdjust="spacingAndGlyphs" textLength="42.6" x="525.6" y="690.2514">-float longitude</text><text fill="#000000" font-family="sans-serif" font-size="6.6" lengthAdjust="spacingAndGlyphs" textLength="37.2" x="525.6" y="698.5529">-float latitude</text><text fill="#000000" font-family="sans-serif" font-size="6.6" lengthAdjust="spacingAndGlyphs" textLength="56.4" x="525.6" y="706.8545">-String doorNumber</text><text fill="#000000" font-family="sans-serif" font-size="6.6" lengthAdjust="spacingAndGlyphs" textLength="54" x="525.6" y="715.1561">-String streetName</text><text fill="#000000" font-family="sans-serif" font-size="6.6" lengthAdjust="spacingAndGlyphs" textLength="53.4" x="525.6" y="723.4576">-String postalCode</text><text fill="#000000" font-family="sans-serif" font-size="6.6" lengthAdjust="spacingAndGlyphs" textLength="40.8" x="525.6" y="731.7592">-String locality</text><text fill="#000000" font-family="sans-serif" font-size="6.6" lengthAdjust="spacingAndGlyphs" textLength="43.2" x="525.6" y="740.0607">-String country</text><line style="stroke: #A80036; stroke-width: 0.8999999999999999;" x1="522.6" x2="585" y1="743.9109" y2="743.9109"/><!--MD5=[7f2a9fafcebe4f099f71398fd3e2ed00]
class Pharmacy--><rect fill="#FEFECE" filter="url(#f15lwlnucu7d7t)" height="45.4031" id="Pharmacy" style="stroke: #A80036; stroke-width: 0.8999999999999999;" width="52.2" x="527.7" y="569.4"/><ellipse cx="536.7" cy="579" fill="#ADD1B2" rx="6.6" ry="6.6" style="stroke: #A80036; stroke-width: 0.6;"/><path d="M537.9,576.9 Q538.0219,576.6 538.1625,576.45 Q538.3031,576.3 538.4625,576.3 Q538.7438,576.3 538.9219,576.4688 Q539.1,576.6375 539.1,577.0313 L539.1,577.9688 Q539.1,578.3625 538.9313,578.5313 Q538.7625,578.7 538.5,578.7 Q538.2656,578.7 538.1156,578.5969 Q537.9656,578.4938 537.9,578.2219 Q537.8719,578.0344 537.7688,577.9313 Q537.5813,577.7344 537.2438,577.6219 Q536.9063,577.5 536.5688,577.5 Q536.1469,577.5 535.7906,577.6687 Q535.4438,577.8375 535.1719,578.2125 Q534.9,578.5875 534.9,579.1031 L534.9,579.6563 Q534.9,580.275 535.4063,580.6875 Q535.9125,581.1 536.8125,581.1 Q537.3469,581.1 537.7219,580.9781 Q537.9375,580.9125 538.1813,580.6969 Q538.3406,580.575 538.425,580.5375 Q538.5094,580.5 538.6125,580.5 Q538.8094,580.5 538.95,580.6594 Q539.1,580.8094 539.1,581.025 Q539.1,581.2312 538.8938,581.475 Q538.5938,581.8313 538.1156,582.0281 Q537.4875,582.3 536.7188,582.3 Q535.8188,582.3 535.0969,581.9438 Q534.5156,581.6625 534.1031,581.0531 Q533.7,580.4438 533.7,579.7219 L533.7,579.0656 Q533.7,578.3156 534.0563,577.6594 Q534.4219,577.0031 535.05,576.6563 Q535.6875,576.3 536.4,576.3 Q536.8313,576.3 537.2063,576.45 Q537.5813,576.6 537.9,576.9 Z "/><text fill="#000000" font-family="sans-serif" font-size="7.2" lengthAdjust="spacingAndGlyphs" textLength="33" x="545.1" y="581.9461">Pharmacy</text><line style="stroke: #A80036; stroke-width: 0.8999999999999999;" x1="528.3" x2="579.3" y1="588.6" y2="588.6"/><text fill="#000000" font-family="sans-serif" font-size="6.6" lengthAdjust="spacingAndGlyphs" textLength="15.6" x="531.3" y="597.8514">-int id</text><text fill="#000000" font-family="sans-serif" font-size="6.6" lengthAdjust="spacingAndGlyphs" textLength="36.6" x="531.3" y="606.1529">-String name</text><line style="stroke: #A80036; stroke-width: 0.8999999999999999;" x1="528.3" x2="579.3" y1="610.0031" y2="610.0031"/><!--MD5=[3fd616f346a44cd59a91eb10b19e157c]
class User--><rect fill="#FEFECE" filter="url(#f15lwlnucu7d7t)" height="62.0062" id="User" style="stroke: #A80036; stroke-width: 0.8999999999999999;" width="58.2" x="618.3" y="795.6"/><ellipse cx="637.56" cy="805.2" fill="#ADD1B2" rx="6.6" ry="6.6" style="stroke: #A80036; stroke-width: 0.6;"/><path d="M638.76,803.1 Q638.8819,802.8 639.0225,802.65 Q639.1631,802.5 639.3225,802.5 Q639.6037,802.5 639.7819,802.6687 Q639.96,802.8375 639.96,803.2312 L639.96,804.1687 Q639.96,804.5625 639.7912,804.7312 Q639.6225,804.9 639.36,804.9 Q639.1256,804.9 638.9756,804.7969 Q638.8256,804.6938 638.76,804.4219 Q638.7319,804.2344 638.6288,804.1313 Q638.4413,803.9344 638.1037,803.8219 Q637.7662,803.7 637.4287,803.7 Q637.0069,803.7 636.6506,803.8688 Q636.3037,804.0375 636.0319,804.4125 Q635.76,804.7875 635.76,805.3031 L635.76,805.8562 Q635.76,806.475 636.2662,806.8875 Q636.7725,807.3 637.6725,807.3 Q638.2069,807.3 638.5819,807.1781 Q638.7975,807.1125 639.0412,806.8969 Q639.2006,806.775 639.285,806.7375 Q639.3694,806.7 639.4725,806.7 Q639.6694,806.7 639.81,806.8594 Q639.96,807.0094 639.96,807.225 Q639.96,807.4313 639.7538,807.675 Q639.4537,808.0313 638.9756,808.2281 Q638.3475,808.5 637.5787,808.5 Q636.6787,808.5 635.9569,808.1438 Q635.3756,807.8625 634.9631,807.2531 Q634.56,806.6438 634.56,805.9219 L634.56,805.2656 Q634.56,804.5156 634.9162,803.8594 Q635.2819,803.2031 635.91,802.8562 Q636.5475,802.5 637.26,802.5 Q637.6913,802.5 638.0663,802.65 Q638.4413,802.8 638.76,803.1 Z "/><text fill="#000000" font-family="sans-serif" font-size="7.2" lengthAdjust="spacingAndGlyphs" textLength="16.2" x="648.24" y="808.1461">User</text><line style="stroke: #A80036; stroke-width: 0.8999999999999999;" x1="618.9" x2="675.9" y1="814.8" y2="814.8"/><text fill="#000000" font-family="sans-serif" font-size="6.6" lengthAdjust="spacingAndGlyphs" textLength="36.6" x="621.9" y="824.0514">-String name</text><text fill="#000000" font-family="sans-serif" font-size="6.6" lengthAdjust="spacingAndGlyphs" textLength="35.4" x="621.9" y="832.3529">-String email</text><text fill="#000000" font-family="sans-serif" font-size="6.6" lengthAdjust="spacingAndGlyphs" textLength="51" x="621.9" y="840.6545">-String password</text><text fill="#000000" font-family="sans-serif" font-size="6.6" lengthAdjust="spacingAndGlyphs" textLength="31.2" x="621.9" y="848.9561">-Integer nif</text><line style="stroke: #A80036; stroke-width: 0.8999999999999999;" x1="618.9" x2="675.9" y1="852.8063" y2="852.8063"/><!--MD5=[2fa756869cccd4a326cf3bfeb06b754f]
class PharmacyManager--><rect fill="#FEFECE" filter="url(#f15lwlnucu7d7t)" height="28.8" id="PharmacyManager" style="stroke: #A80036; stroke-width: 0.8999999999999999;" width="81" x="606.9" y="690.9"/><ellipse cx="615.9" cy="700.5" fill="#ADD1B2" rx="6.6" ry="6.6" style="stroke: #A80036; stroke-width: 0.6;"/><path d="M617.1,698.4 Q617.2219,698.1 617.3625,697.95 Q617.5031,697.8 617.6625,697.8 Q617.9438,697.8 618.1219,697.9688 Q618.3,698.1375 618.3,698.5313 L618.3,699.4688 Q618.3,699.8625 618.1313,700.0313 Q617.9625,700.2 617.7,700.2 Q617.4656,700.2 617.3156,700.0969 Q617.1656,699.9938 617.1,699.7219 Q617.0719,699.5344 616.9688,699.4313 Q616.7813,699.2344 616.4438,699.1219 Q616.1062,699 615.7688,699 Q615.3469,699 614.9906,699.1687 Q614.6438,699.3375 614.3719,699.7125 Q614.1,700.0875 614.1,700.6031 L614.1,701.1563 Q614.1,701.775 614.6062,702.1875 Q615.1125,702.6 616.0125,702.6 Q616.5469,702.6 616.9219,702.4781 Q617.1375,702.4125 617.3813,702.1969 Q617.5406,702.075 617.625,702.0375 Q617.7094,702 617.8125,702 Q618.0094,702 618.15,702.1594 Q618.3,702.3094 618.3,702.525 Q618.3,702.7312 618.0938,702.975 Q617.7937,703.3313 617.3156,703.5281 Q616.6875,703.8 615.9187,703.8 Q615.0188,703.8 614.2969,703.4438 Q613.7156,703.1625 613.3031,702.5531 Q612.9,701.9438 612.9,701.2219 L612.9,700.5656 Q612.9,699.8156 613.2563,699.1594 Q613.6219,698.5031 614.25,698.1563 Q614.8875,697.8 615.6,697.8 Q616.0313,697.8 616.4063,697.95 Q616.7813,698.1 617.1,698.4 Z "/><text fill="#000000" font-family="sans-serif" font-size="7.2" lengthAdjust="spacingAndGlyphs" textLength="61.8" x="624.3" y="703.4461">PharmacyManager</text><line style="stroke: #A80036; stroke-width: 0.8999999999999999;" x1="607.5" x2="687.3" y1="710.1" y2="710.1"/><line style="stroke: #A80036; stroke-width: 0.8999999999999999;" x1="607.5" x2="687.3" y1="714.9" y2="714.9"/><!--MD5=[c5b7c01e8de644a6bcc6ccb0cb86eabf]
class PharmacyRegistration--><rect fill="#FEFECE" filter="url(#f15lwlnucu7d7t)" height="45.4031" id="PharmacyRegistration" style="stroke: #A80036; stroke-width: 0.8999999999999999;" width="114" x="910.8" y="325.2"/><ellipse cx="929.52" cy="334.8" fill="#ADD1B2" rx="6.6" ry="6.6" style="stroke: #A80036; stroke-width: 0.6;"/><path d="M930.72,332.7 Q930.8419,332.4 930.9825,332.25 Q931.1231,332.1 931.2825,332.1 Q931.5638,332.1 931.7419,332.2688 Q931.92,332.4375 931.92,332.8313 L931.92,333.7688 Q931.92,334.1625 931.7513,334.3313 Q931.5825,334.5 931.32,334.5 Q931.0856,334.5 930.9356,334.3969 Q930.7856,334.2938 930.72,334.0219 Q930.6919,333.8344 930.5888,333.7313 Q930.4013,333.5344 930.0638,333.4219 Q929.7262,333.3 929.3888,333.3 Q928.9669,333.3 928.6106,333.4688 Q928.2638,333.6375 927.9919,334.0125 Q927.72,334.3875 927.72,334.9031 L927.72,335.4563 Q927.72,336.075 928.2262,336.4875 Q928.7325,336.9 929.6325,336.9 Q930.1669,336.9 930.5419,336.7781 Q930.7575,336.7125 931.0013,336.4969 Q931.1606,336.375 931.245,336.3375 Q931.3294,336.3 931.4325,336.3 Q931.6294,336.3 931.77,336.4594 Q931.92,336.6094 931.92,336.825 Q931.92,337.0313 931.7138,337.275 Q931.4137,337.6312 930.9356,337.8281 Q930.3075,338.1 929.5387,338.1 Q928.6388,338.1 927.9169,337.7438 Q927.3356,337.4625 926.9231,336.8531 Q926.52,336.2438 926.52,335.5219 L926.52,334.8656 Q926.52,334.1156 926.8763,333.4594 Q927.2419,332.8031 927.87,332.4563 Q928.5075,332.1 929.22,332.1 Q929.6513,332.1 930.0263,332.25 Q930.4013,332.4 930.72,332.7 Z "/><text fill="#000000" font-family="sans-serif" font-size="7.2" lengthAdjust="spacingAndGlyphs" textLength="73.2" x="940.08" y="337.7461">PharmacyRegistration</text><line style="stroke: #A80036; stroke-width: 0.8999999999999999;" x1="911.4" x2="1024.2" y1="344.4" y2="344.4"/><line style="stroke: #A80036; stroke-width: 0.8999999999999999;" x1="911.4" x2="1024.2" y1="349.2" y2="349.2"/><text fill="#000000" font-family="sans-serif" font-size="6.6" lengthAdjust="spacingAndGlyphs" textLength="106.8" x="914.4" y="358.4514">+getPharmacyByManager(userEmail)</text><text fill="#000000" font-family="sans-serif" font-size="6.6" lengthAdjust="spacingAndGlyphs" textLength="49.8" x="914.4" y="366.7529">+getConnection()</text><!--MD5=[ced1e9239f781b746b1483fee286de90]
class DroneRegistration--><rect fill="#FEFECE" filter="url(#f15lwlnucu7d7t)" height="45.4031" id="DroneRegistration" style="stroke: #A80036; stroke-width: 0.8999999999999999;" width="343.8" x="545.7" y="325.2"/><ellipse cx="684.75" cy="334.8" fill="#ADD1B2" rx="6.6" ry="6.6" style="stroke: #A80036; stroke-width: 0.6;"/><path d="M685.95,332.7 Q686.0719,332.4 686.2125,332.25 Q686.3531,332.1 686.5125,332.1 Q686.7937,332.1 686.9719,332.2688 Q687.15,332.4375 687.15,332.8313 L687.15,333.7688 Q687.15,334.1625 686.9812,334.3313 Q686.8125,334.5 686.55,334.5 Q686.3156,334.5 686.1656,334.3969 Q686.0156,334.2938 685.95,334.0219 Q685.9219,333.8344 685.8188,333.7313 Q685.6313,333.5344 685.2937,333.4219 Q684.9563,333.3 684.6188,333.3 Q684.1969,333.3 683.8406,333.4688 Q683.4938,333.6375 683.2219,334.0125 Q682.95,334.3875 682.95,334.9031 L682.95,335.4563 Q682.95,336.075 683.4563,336.4875 Q683.9625,336.9 684.8625,336.9 Q685.3969,336.9 685.7719,336.7781 Q685.9875,336.7125 686.2312,336.4969 Q686.3906,336.375 686.475,336.3375 Q686.5594,336.3 686.6625,336.3 Q686.8594,336.3 687,336.4594 Q687.15,336.6094 687.15,336.825 Q687.15,337.0313 686.9438,337.275 Q686.6438,337.6312 686.1656,337.8281 Q685.5375,338.1 684.7688,338.1 Q683.8688,338.1 683.1469,337.7438 Q682.5656,337.4625 682.1531,336.8531 Q681.75,336.2438 681.75,335.5219 L681.75,334.8656 Q681.75,334.1156 682.1062,333.4594 Q682.4719,332.8031 683.1,332.4563 Q683.7375,332.1 684.45,332.1 Q684.8813,332.1 685.2563,332.25 Q685.6313,332.4 685.95,332.7 Z "/><text fill="#000000" font-family="sans-serif" font-size="7.2" lengthAdjust="spacingAndGlyphs" textLength="60.6" x="697.05" y="337.7461">DroneRegistration</text><line style="stroke: #A80036; stroke-width: 0.8999999999999999;" x1="546.3" x2="888.9" y1="344.4" y2="344.4"/><line style="stroke: #A80036; stroke-width: 0.8999999999999999;" x1="546.3" x2="888.9" y1="349.2" y2="349.2"/><text fill="#000000" font-family="sans-serif" font-size="6.6" lengthAdjust="spacingAndGlyphs" textLength="336.6" x="549.3" y="358.4514">+newDrone(batteryPerc, chargingStatus, potency, weight, batteryCapacity, maxPayload, batteryVoltage, pharmacy)</text><text fill="#000000" font-family="sans-serif" font-size="6.6" lengthAdjust="spacingAndGlyphs" textLength="324.6" x="549.3" y="366.7529">+create(batteryPerc, chargingStatus, potency, weight, batteryCapacity, maxPayload, batteryVoltage, pharmacy)</text><!--MD5=[f40d64c3825bdc96a4efd5b7e3ff1420]
reverse link DataHandler to PharmacyDB--><path d="M1180.146,381.8604 C1190.298,404.4456 1203.33,433.455 1211.628,451.9182 " fill="none" id="DataHandler&lt;-PharmacyDB" style="stroke: #A80036; stroke-width: 0.6;"/><polygon fill="none" points="1176.3,383.5524,1175.214,370.8852,1183.962,380.109,1176.3,383.5524" style="stroke: #A80036; stroke-width: 0.6;"/><!--MD5=[18feea515641fb3f6597b6a3b4d6a380]
reverse link DataHandler to DroneDB--><path d="M1150.254,381.8604 C1140.102,404.4456 1127.07,433.455 1118.772,451.9182 " fill="none" id="DataHandler&lt;-DroneDB" style="stroke: #A80036; stroke-width: 0.6;"/><polygon fill="none" points="1146.438,380.109,1155.186,370.8852,1154.1,383.5524,1146.438,380.109" style="stroke: #A80036; stroke-width: 0.6;"/><!--MD5=[ca9a3460670b0b14eacab738358d67e2]
link PharmacyRegistration to PharmacyDB--><path d="M1024.956,370.8432 C1037.526,375.648 1050.792,380.6496 1063.2,385.2 C1105.638,400.7646 1119.96,396.3552 1159.2,418.8 C1174.008,427.2696 1188.66,439.5384 1199.844,449.9538 " fill="none" id="PharmacyRegistration-&gt;PharmacyDB" style="stroke: #A80036; stroke-width: 0.6; stroke-dasharray: 7.0,7.0;"/><polygon fill="#A80036" points="1202.034,452.0106,1199.7455,446.5624,1199.849,449.9549,1196.4565,450.0584,1202.034,452.0106" style="stroke: #A80036; stroke-width: 0.6;"/><!--MD5=[fc924cf8b99d488958ad5318bd0e3768]
link DroneRegistration to DroneDB--><path d="M828.588,370.8048 C920.832,389.4678 1038.618,413.8698 1048.8,418.8 C1064.682,426.4896 1079.97,439.1148 1091.364,449.9154 " fill="none" id="DroneRegistration-&gt;DroneDB" style="stroke: #A80036; stroke-width: 0.6; stroke-dasharray: 7.0,7.0;"/><polygon fill="#A80036" points="1093.59,452.049,1091.3499,446.5807,1091.4233,449.974,1088.03,450.0474,1093.59,452.049" style="stroke: #A80036; stroke-width: 0.6;"/><!--MD5=[bc0b3096c7aa5bff2ed42868e0b826ca]
link RegisterDroneUI to RegisterDroneController--><path d="M195,64.98 C195,77.814 195,97.134 195,112.686 " fill="none" id="RegisterDroneUI-&gt;RegisterDroneController" style="stroke: #A80036; stroke-width: 0.6; stroke-dasharray: 7.0,7.0;"/><polygon fill="#A80036" points="195,115.74,197.4,110.34,195,112.74,192.6,110.34,195,115.74" style="stroke: #A80036; stroke-width: 0.6;"/><!--MD5=[5f3c89325042c56571350b39f8a628ae]
link RegisterDroneController to Platform--><path d="M314.1912,161.436 C335.6052,167.562 357.2976,175.236 376.8,184.8 C389.7426,191.148 402.54,200.28 413.4384,209.172 " fill="none" id="RegisterDroneController-&gt;Platform" style="stroke: #A80036; stroke-width: 0.6; stroke-dasharray: 7.0,7.0;"/><polygon fill="#A80036" points="415.8774,211.182,413.2387,205.8945,413.5631,209.2731,410.1845,209.5975,415.8774,211.182" style="stroke: #A80036; stroke-width: 0.6;"/><!--MD5=[c48fc7411bee1908e91d986bbd4a1730]
link RegisterDroneController to ApplicationPOT--><path d="M189.5538,161.526 C185.8716,176.628 181.002,196.59 177.1752,212.28 " fill="none" id="RegisterDroneController-&gt;ApplicationPOT" style="stroke: #A80036; stroke-width: 0.6; stroke-dasharray: 7.0,7.0;"/><polygon fill="#A80036" points="176.4246,215.358,180.0364,210.681,177.1359,212.4435,175.3733,209.543,176.4246,215.358" style="stroke: #A80036; stroke-width: 0.6;"/><!--MD5=[83758c17cff970c0687244d31198b0de]
link RegisterDroneController to UserSession--><path d="M210.1128,161.526 C221.3694,178.158 236.6256,200.7 247.605,216.924 " fill="none" id="RegisterDroneController-&gt;UserSession" style="stroke: #A80036; stroke-width: 0.6; stroke-dasharray: 7.0,7.0;"/><polygon fill="#A80036" points="249.3294,219.468,248.2931,213.6503,247.6491,216.9827,244.3167,216.3387,249.3294,219.468" style="stroke: #A80036; stroke-width: 0.6;"/><!--MD5=[f94ed16b1d761a53d4eba61183b6d758]
link Platform to PharmacyRegistration--><path d="M474.687,240.888 C563.9058,247.254 821.844,267.912 900,298.8 C914.46,304.5156 928.722,313.9872 940.404,323.058 " fill="none" id="Platform-&gt;PharmacyRegistration" style="stroke: #A80036; stroke-width: 0.6;"/><polygon fill="#A80036" points="943.008,325.1076,940.2429,319.8851,940.6484,323.2549,937.2786,323.6605,943.008,325.1076" style="stroke: #A80036; stroke-width: 0.6;"/><text fill="#000000" font-family="sans-serif" font-size="7.8" lengthAdjust="spacingAndGlyphs" textLength="12.6" x="880.8" y="291.8971">has</text><text fill="#000000" font-family="sans-serif" font-size="7.8" lengthAdjust="spacingAndGlyphs" textLength="4.2" x="479.2977" y="239.1237">1</text><text fill="#000000" font-family="sans-serif" font-size="7.8" lengthAdjust="spacingAndGlyphs" textLength="4.2" x="934.0179" y="318.7083">1</text><!--MD5=[e4f4aac5cfb9dadeb0ff92307b6e7890]
link DroneRegistration to Drone--><path d="M695.808,370.8852 C683.244,383.7354 666.864,400.4868 651.156,416.556 " fill="none" id="DroneRegistration-&gt;Drone" style="stroke: #A80036; stroke-width: 0.6;"/><polygon fill="#A80036" points="649.044,418.716,654.5364,416.5357,651.1425,416.5721,651.1061,413.1782,649.044,418.716" style="stroke: #A80036; stroke-width: 0.6;"/><text fill="#000000" font-family="sans-serif" font-size="7.8" lengthAdjust="spacingAndGlyphs" textLength="31.8" x="676.8" y="398.6971">manages</text><text fill="#000000" font-family="sans-serif" font-size="7.8" lengthAdjust="spacingAndGlyphs" textLength="4.2" x="687.8002" y="383.4271">1</text><text fill="#000000" font-family="sans-serif" font-size="7.8" lengthAdjust="spacingAndGlyphs" textLength="3" x="650.2329" y="412.3545">*</text><!--MD5=[4a07f137c208f82f57837154e1cfa51e]
link Platform to Pharmacy--><path d="M432.2904,265.392 C410.709,318.8406 371.3646,441.1188 423,522.6 C446.4318,559.5756 496.6716,577.905 527.6166,586.0242 " fill="none" id="Platform-Pharmacy" style="stroke: #A80036; stroke-width: 0.6;"/><text fill="#000000" font-family="sans-serif" font-size="7.8" lengthAdjust="spacingAndGlyphs" textLength="49.2" x="400.2" y="398.6971">has registered</text><polygon fill="#000000" points="422.1,404.0109,423.9,407.6109,425.7,404.0109,422.1,404.0109" style="stroke: #000000; stroke-width: 0.6;"/><text fill="#000000" font-family="sans-serif" font-size="7.8" lengthAdjust="spacingAndGlyphs" textLength="4.2" x="426.2347" y="277.822">1</text><text fill="#000000" font-family="sans-serif" font-size="7.8" lengthAdjust="spacingAndGlyphs" textLength="3" x="519.8585" y="582.6699">*</text><!--MD5=[5bb38e60e03978cbc837a35333e12cff]
link Platform to Drone--><path d="M438.6246,265.392 C433.7316,297.825 431.1192,352.3728 460.2,385.2 C466.3764,392.172 472.0704,386.259 480.6,390 C498.1368,397.6914 515.853,408.0348 532.0434,418.7292 " fill="none" id="Platform-Drone" style="stroke: #A80036; stroke-width: 0.6;"/><text fill="#000000" font-family="sans-serif" font-size="7.8" lengthAdjust="spacingAndGlyphs" textLength="49.2" x="460.8" y="351.2971">has registered</text><polygon fill="#000000" points="482.7,356.6109,484.5,360.2109,486.3,356.6109,482.7,356.6109" style="stroke: #000000; stroke-width: 0.6;"/><text fill="#000000" font-family="sans-serif" font-size="7.8" lengthAdjust="spacingAndGlyphs" textLength="4.2" x="433.4201" y="277.822">1</text><text fill="#000000" font-family="sans-serif" font-size="7.8" lengthAdjust="spacingAndGlyphs" textLength="3" x="523.1776" y="412.3689">*</text><!--MD5=[754ae0e32ddeeb427901936d97e772de]
link Platform to PharmacyManager--><path d="M474.6306,255.234 C490.9188,265.572 509.8002,280.4388 520.8,298.8 C540.8298,332.2338 507.8022,358.0872 535.8,385.2 C555.0486,403.8402 757.02,398.5764 774.6,418.8 C850.596,506.2398 711.72,646.3902 663.216,690.7596 " fill="none" id="Platform-PharmacyManager" style="stroke: #A80036; stroke-width: 0.6;"/><text fill="#000000" font-family="sans-serif" font-size="7.8" lengthAdjust="spacingAndGlyphs" textLength="49.2" x="798" y="473.9971">has registered</text><polygon fill="#000000" points="819.9,479.3109,821.7,482.9109,823.5,479.3109,819.9,479.3109" style="stroke: #000000; stroke-width: 0.6;"/><text fill="#000000" font-family="sans-serif" font-size="7.8" lengthAdjust="spacingAndGlyphs" textLength="4.2" x="479.4379" y="255.5651">1</text><text fill="#000000" font-family="sans-serif" font-size="7.8" lengthAdjust="spacingAndGlyphs" textLength="3" x="663.8845" y="684.3277">*</text><!--MD5=[63120965f33aa30485eaf56f4034632c]
link PharmacyManager to User--><path d="M647.4,719.9004 C647.4,738.3246 647.4,771.21 647.4,795.4818 " fill="none" id="PharmacyManager-User" style="stroke: #A80036; stroke-width: 0.6;"/><text fill="#000000" font-family="sans-serif" font-size="7.8" lengthAdjust="spacingAndGlyphs" textLength="25.8" x="648" y="775.4971">acts as</text><polygon fill="#000000" points="658.2,780.8109,660,784.4109,661.8,780.8109,658.2,780.8109" style="stroke: #000000; stroke-width: 0.6;"/><text fill="#000000" font-family="sans-serif" font-size="7.8" lengthAdjust="spacingAndGlyphs" textLength="13.2" x="632.6737" y="732.5082">0..1</text><text fill="#000000" font-family="sans-serif" font-size="7.8" lengthAdjust="spacingAndGlyphs" textLength="4.2" x="642.9178" y="789.1661">1</text><!--MD5=[56f64f3f2a0611c4d6d77727dd267505]
link PharmacyManager to Drone--><path d="M647.298,690.8226 C646.788,662.2218 643.98,594.8496 629.4,540.6 C627.81,534.6936 625.794,528.6468 623.55,522.705 " fill="none" id="PharmacyManager-Drone" style="stroke: #A80036; stroke-width: 0.6;"/><polygon fill="#000000" points="655.5,593.4,657.3,589.8,659.1,593.4,655.5,593.4" style="stroke: #000000; stroke-width: 0.6;"/><text fill="#000000" font-family="sans-serif" font-size="7.8" lengthAdjust="spacingAndGlyphs" textLength="30" x="643.2" y="603.2971">registers</text><text fill="#000000" font-family="sans-serif" font-size="7.8" lengthAdjust="spacingAndGlyphs" textLength="4.2" x="642.5337" y="684.4069">1</text><text fill="#000000" font-family="sans-serif" font-size="7.8" lengthAdjust="spacingAndGlyphs" textLength="12" x="612.9855" y="535.1702">1..*</text><!--MD5=[1563ddde69eb8abda9b50e9ab8dfb994]
link Pharmacy to PharmacyManager--><path d="M572.5164,615.1758 C591.402,637.7538 619.968,671.907 635.802,690.8358 " fill="none" id="Pharmacy-PharmacyManager" style="stroke: #A80036; stroke-width: 0.6;"/><text fill="#000000" font-family="sans-serif" font-size="7.8" lengthAdjust="spacingAndGlyphs" textLength="12.6" x="595.8" y="641.6971">has</text><polygon fill="#000000" points="599.4,647.0109,601.2,650.6109,603,647.0109,599.4,647.0109" style="stroke: #000000; stroke-width: 0.6;"/><text fill="#000000" font-family="sans-serif" font-size="7.8" lengthAdjust="spacingAndGlyphs" textLength="4.2" x="570.9646" y="627.7321">1</text><text fill="#000000" font-family="sans-serif" font-size="7.8" lengthAdjust="spacingAndGlyphs" textLength="4.2" x="628.0919" y="684.4234">1</text><!--MD5=[f8ebe161610107101fe1df9bed99a2fd]
link Pharmacy to Drone--><path d="M549.4848,569.3424 C548.5566,560.2518 548.5716,549.7458 551.4,540.6 C553.2732,534.5424 555.879,528.5424 558.9132,522.7554 " fill="none" id="Pharmacy-Drone" style="stroke: #A80036; stroke-width: 0.6;"/><polygon fill="#000000" points="555.6,547.2,557.4,543.6,559.2,547.2,555.6,547.2" style="stroke: #000000; stroke-width: 0.6;"/><text fill="#000000" font-family="sans-serif" font-size="7.8" lengthAdjust="spacingAndGlyphs" textLength="12.6" x="552" y="557.0971">has</text><text fill="#000000" font-family="sans-serif" font-size="7.8" lengthAdjust="spacingAndGlyphs" textLength="4.2" x="544.1421" y="562.9493">1</text><text fill="#000000" font-family="sans-serif" font-size="7.8" lengthAdjust="spacingAndGlyphs" textLength="3" x="552.7445" y="535.2245">*</text><!--MD5=[0b0bc9c7f03600b7866f5e5adba791e4]
link Drone to Pharmacy--><path d="M585.5154,522.6972 C582.534,532.3578 579.1332,542.283 575.4,551.4 C572.9682,557.3388 569.913,563.544 566.8722,569.2524 " fill="none" id="Drone-Pharmacy" style="stroke: #A80036; stroke-width: 0.6;"/><text fill="#000000" font-family="sans-serif" font-size="7.8" lengthAdjust="spacingAndGlyphs" textLength="36" x="580.2" y="549.2971">belongs to</text><polygon fill="#000000" points="595.5,554.6109,597.3,558.2109,599.1,554.6109,595.5,554.6109" style="stroke: #000000; stroke-width: 0.6;"/><text fill="#000000" font-family="sans-serif" font-size="7.8" lengthAdjust="spacingAndGlyphs" textLength="3" x="581.3835" y="535.1618">*</text><text fill="#000000" font-family="sans-serif" font-size="7.8" lengthAdjust="spacingAndGlyphs" textLength="4.2" x="564.6266" y="562.8432">1</text><!--MD5=[89baec1bfb4a213750f7c61516e0a0f1]
link Pharmacy to Address--><path d="M553.8,615.1758 C553.8,628.5054 553.8,645.8706 553.8,661.7544 " fill="none" id="Pharmacy-Address" style="stroke: #A80036; stroke-width: 0.6;"/><text fill="#000000" font-family="sans-serif" font-size="7.8" lengthAdjust="spacingAndGlyphs" textLength="12.6" x="554.4" y="641.6971">has</text><polygon fill="#000000" points="558,647.0109,559.8,650.6109,561.6,647.0109,558,647.0109" style="stroke: #000000; stroke-width: 0.6;"/><text fill="#000000" font-family="sans-serif" font-size="7.8" lengthAdjust="spacingAndGlyphs" textLength="4.2" x="549.2653" y="627.7321">1</text><text fill="#000000" font-family="sans-serif" font-size="7.8" lengthAdjust="spacingAndGlyphs" textLength="4.2" x="549.3834" y="655.2813">1</text><!--MD5=[c741c8cf8837f911b22766193bbc8f91]
@startuml
skinparam classAttributeIconSize 0

package "UI" #DDDDDD {
class RegisterDroneUI{

}
}


package "Data" #DDDDDD {
class DroneDB{
+registersDrone(drone)
}

class PharmacyDB{
+getPharmacyByManager(email)
}
}


package "Controller" #DDDDDD {
class RegisterDroneController{
+newDrone(batteryPerc, chargingStatus, potency, weight, batteryCapacity, maxPayload, batteryVoltage, pharmacy)
+registersDrone(drone)
}

class ApplicationPOT
{
  +static getInstance()
  +getPlatform()
}

class UserSession
{
  +getCurrentSession()
}
}


package "Model" #DDDDDD {
class Platform {
  -String designation
  +gePharmReg()
  +getDroneReg()
}
package "Registration" #DDDDDD {
 class PharmacyRegistration{
     +getPharmacyByManager(userEmail)
     +getConnection()
 }

 class DroneRegistration{
      +newDrone(batteryPerc, chargingStatus, potency, weight, batteryCapacity, maxPayload, batteryVoltage, pharmacy)
      +create(batteryPerc, chargingStatus, potency, weight, batteryCapacity, maxPayload, batteryVoltage, pharmacy)
  }
 }
}

package "Model" #DDDDDD {
class Drone{
  -int id
  -float batteryPerc
  -String charginStatus
  -float potency
  -float weight
  -int batteryCapacity
  -float maxPayload
  -float batteryVoltage
  +Drone(batteryPerc, chargingStatus, potency, weight, batteryCapacity, maxPayload, batteryVoltage, pharmacy)
}

class Address{
  -float longitude
  -float latitude
  -String doorNumber
  -String streetName
  -String postalCode
  -String locality
  -String country
}

class Pharmacy {
  -int id
  -String name
}

class User{
-   String name
-   String email
-   String password
-   Integer nif
}

class PharmacyManager {
}

}


package "Data" #DDDDDD {
class DataHandler{
    +openConnection()
    +closeAll()
}
}

class PharmacyDB extends DataHandler
class DroneDB extends DataHandler

PharmacyRegistration ..> PharmacyDB
DroneRegistration ..> DroneDB

RegisterDroneUI ..> RegisterDroneController
RegisterDroneController ..> Platform
RegisterDroneController ..> ApplicationPOT
RegisterDroneController ..> UserSession
Platform "1" - -> "1" PharmacyRegistration : has
DroneRegistration "1" - -> "*" Drone : manages

Platform "1" - - "*" Pharmacy : has registered >
Platform "1" - - "*" Drone : has registered >
Platform "1" - - "*" PharmacyManager : has registered >

PharmacyManager "0..1" - - "1" User: acts as >
PharmacyManager "1" - - "1..*" Drone : registers >
Pharmacy "1" - - "1" PharmacyManager : has >
Pharmacy "1" - - "*" Drone : has >
Pharmacy "1" - - "1" Address : has >
Drone "*" - - "1" Pharmacy : belongs to >

@enduml

PlantUML version 1.2020.09(Sun May 10 11:51:06 BST 2020)
(GPL source distribution)
Java Runtime: OpenJDK Runtime Environment
JVM: OpenJDK 64-Bit Server VM
Java Version: 11.0.6+8-b765.40
Operating System: Windows 10
Default Encoding: Cp1252
Language: pt
Country: PT
--></g></svg>