<?xml version="1.0" encoding="UTF-8" standalone="no"?><svg xmlns="http://www.w3.org/2000/svg" xmlns:xlink="http://www.w3.org/1999/xlink" contentScriptType="application/ecmascript" contentStyleType="text/css" height="695.4px" preserveAspectRatio="none" style="width:637px;height:695px;" version="1.1" viewBox="0 0 637 695" width="637.8px" zoomAndPan="magnify"><defs><filter height="300%" id="f2r3huy15uwfs" width="300%" x="-1" y="-1"><feGaussianBlur result="blurOut" stdDeviation="1.2"/><feColorMatrix in="blurOut" result="blurOut2" type="matrix" values="0 0 0 0 0 0 0 0 0 0 0 0 0 0 0 0 0 0 .4 0"/><feOffset dx="2.4" dy="2.4" in="blurOut2" result="blurOut3"/><feBlend in="SourceGraphic" in2="blurOut3" mode="normal"/></filter></defs><g><!--MD5=[9681dc6e01e10c6b4fe06895ae94f592]
cluster UI--><polygon fill="#DDDDDD" filter="url(#f2r3huy15uwfs)" points="126.6,14.4,138.6,14.4,142.8,28.5656,221.4,28.5656,221.4,74.4,126.6,74.4,126.6,14.4" style="stroke: #000000; stroke-width: 0.8999999999999999;"/><line style="stroke: #000000; stroke-width: 0.8999999999999999;" x1="126.6" x2="142.8" y1="28.5656" y2="28.5656"/><text fill="#000000" font-family="sans-serif" font-size="8.4" font-weight="bold" lengthAdjust="spacingAndGlyphs" textLength="8.4" x="129" y="24.3199">UI</text><!--MD5=[1f2cfc53d9d308f53762fd0fcbaa4873]
cluster Controller--><polygon fill="#DDDDDD" filter="url(#f2r3huy15uwfs)" points="13.2,94.2,59.4,94.2,63.6,108.3656,334.8,108.3656,334.8,179.4,13.2,179.4,13.2,94.2" style="stroke: #000000; stroke-width: 0.8999999999999999;"/><line style="stroke: #000000; stroke-width: 0.8999999999999999;" x1="13.2" x2="63.6" y1="108.3656" y2="108.3656"/><text fill="#000000" font-family="sans-serif" font-size="8.4" font-weight="bold" lengthAdjust="spacingAndGlyphs" textLength="42.6" x="15.6" y="104.1199">Controller</text><!--MD5=[15636c1ca4a123c16a2a1a8e90aca7a9]
cluster Model--><polygon fill="#DDDDDD" filter="url(#f2r3huy15uwfs)" points="16.2,199.2,46.2,199.2,50.4,213.3656,348,213.3656,348,688.2,16.2,688.2,16.2,199.2" style="stroke: #000000; stroke-width: 0.8999999999999999;"/><line style="stroke: #000000; stroke-width: 0.8999999999999999;" x1="16.2" x2="50.4" y1="213.3656" y2="213.3656"/><text fill="#000000" font-family="sans-serif" font-size="8.4" font-weight="bold" lengthAdjust="spacingAndGlyphs" textLength="26.4" x="18.6" y="209.1199">Model</text><!--MD5=[9dd75fd92da113d30380b27734fd2f01]
cluster Service--><polygon fill="#DDDDDD" filter="url(#f2r3huy15uwfs)" points="57.6,225.6,93.6,225.6,97.8,239.7656,246.6,239.7656,246.6,302.4,57.6,302.4,57.6,225.6" style="stroke: #000000; stroke-width: 0.8999999999999999;"/><line style="stroke: #000000; stroke-width: 0.8999999999999999;" x1="57.6" x2="97.8" y1="239.7656" y2="239.7656"/><text fill="#000000" font-family="sans-serif" font-size="8.4" font-weight="bold" lengthAdjust="spacingAndGlyphs" textLength="32.4" x="60" y="235.5199">Service</text><!--MD5=[f21b1f164e99c6b37934f23ad048ad54]
cluster Data--><polygon fill="#DDDDDD" filter="url(#f2r3huy15uwfs)" points="450,225.6,472.2,225.6,476.4,239.7656,624.6,239.7656,624.6,429,450,429,450,225.6" style="stroke: #000000; stroke-width: 0.8999999999999999;"/><line style="stroke: #000000; stroke-width: 0.8999999999999999;" x1="450" x2="476.4" y1="239.7656" y2="239.7656"/><text fill="#000000" font-family="sans-serif" font-size="8.4" font-weight="bold" lengthAdjust="spacingAndGlyphs" textLength="18.6" x="452.4" y="235.5199">Data</text><!--MD5=[fa1e3283224feb76407c84b7e90ed808]
entity Database--><path d="M378.9,261.9 C378.9,255.9 403.2,255.9 403.2,255.9 C403.2,255.9 427.5,255.9 427.5,261.9 L427.5,277.8656 C427.5,283.8656 403.2,283.8656 403.2,283.8656 C403.2,283.8656 378.9,283.8656 378.9,277.8656 L378.9,261.9 " fill="#FFFFFF" filter="url(#f2r3huy15uwfs)" style="stroke: #000000; stroke-width: 0.8999999999999999;"/><path d="M378.9,261.9 C378.9,267.9 403.2,267.9 403.2,267.9 C403.2,267.9 427.5,267.9 427.5,261.9 " fill="none" style="stroke: #000000; stroke-width: 0.8999999999999999;"/><text fill="#000000" font-family="sans-serif" font-size="8.4" lengthAdjust="spacingAndGlyphs" textLength="36.6" x="384.9" y="279.0199">Database</text><!--MD5=[f251daccc4f62ba7ef84cad74c4911ba]
class RegisterDroneUI--><rect fill="#FEFECE" filter="url(#f2r3huy15uwfs)" height="28.8" id="RegisterDroneUI" style="stroke: #A80036; stroke-width: 0.8999999999999999;" width="75" x="136.5" y="36"/><ellipse cx="145.5" cy="45.6" fill="#ADD1B2" rx="6.6" ry="6.6" style="stroke: #A80036; stroke-width: 0.6;"/><path d="M146.7,43.5 Q146.8219,43.2 146.9625,43.05 Q147.1031,42.9 147.2625,42.9 Q147.5438,42.9 147.7219,43.0688 Q147.9,43.2375 147.9,43.6313 L147.9,44.5688 Q147.9,44.9625 147.7313,45.1313 Q147.5625,45.3 147.3,45.3 Q147.0656,45.3 146.9156,45.1969 Q146.7656,45.0938 146.7,44.8219 Q146.6719,44.6344 146.5688,44.5313 Q146.3813,44.3344 146.0438,44.2219 Q145.7062,44.1 145.3688,44.1 Q144.9469,44.1 144.5906,44.2688 Q144.2438,44.4375 143.9719,44.8125 Q143.7,45.1875 143.7,45.7031 L143.7,46.2563 Q143.7,46.875 144.2062,47.2875 Q144.7125,47.7 145.6125,47.7 Q146.1469,47.7 146.5219,47.5781 Q146.7375,47.5125 146.9813,47.2969 Q147.1406,47.175 147.225,47.1375 Q147.3094,47.1 147.4125,47.1 Q147.6094,47.1 147.75,47.2594 Q147.9,47.4094 147.9,47.625 Q147.9,47.8313 147.6938,48.075 Q147.3937,48.4313 146.9156,48.6281 Q146.2875,48.9 145.5187,48.9 Q144.6188,48.9 143.8969,48.5437 Q143.3156,48.2625 142.9031,47.6531 Q142.5,47.0437 142.5,46.3219 L142.5,45.6656 Q142.5,44.9156 142.8563,44.2594 Q143.2219,43.6031 143.85,43.2563 Q144.4875,42.9 145.2,42.9 Q145.6313,42.9 146.0063,43.05 Q146.3813,43.2 146.7,43.5 Z "/><text fill="#000000" font-family="sans-serif" font-size="7.2" lengthAdjust="spacingAndGlyphs" textLength="55.8" x="153.9" y="48.5461">RegisterDroneUI</text><line style="stroke: #A80036; stroke-width: 0.8999999999999999;" x1="137.1" x2="210.9" y1="55.2" y2="55.2"/><line style="stroke: #A80036; stroke-width: 0.8999999999999999;" x1="137.1" x2="210.9" y1="60" y2="60"/><!--MD5=[7bfe739f2abd87692f4d4d8e06b95cec]
class RegisterDroneController--><rect fill="#FEFECE" filter="url(#f2r3huy15uwfs)" height="53.7047" id="RegisterDroneController" style="stroke: #A80036; stroke-width: 0.8999999999999999;" width="302.4" x="22.8" y="115.8"/><ellipse cx="130.95" cy="125.4" fill="#ADD1B2" rx="6.6" ry="6.6" style="stroke: #A80036; stroke-width: 0.6;"/><path d="M132.15,123.3 Q132.2719,123 132.4125,122.85 Q132.5531,122.7 132.7125,122.7 Q132.9938,122.7 133.1719,122.8687 Q133.35,123.0375 133.35,123.4312 L133.35,124.3687 Q133.35,124.7625 133.1813,124.9312 Q133.0125,125.1 132.75,125.1 Q132.5156,125.1 132.3656,124.9969 Q132.2156,124.8938 132.15,124.6219 Q132.1219,124.4344 132.0187,124.3313 Q131.8312,124.1344 131.4938,124.0219 Q131.1563,123.9 130.8188,123.9 Q130.3969,123.9 130.0406,124.0688 Q129.6938,124.2375 129.4219,124.6125 Q129.15,124.9875 129.15,125.5031 L129.15,126.0562 Q129.15,126.675 129.6563,127.0875 Q130.1625,127.5 131.0625,127.5 Q131.5969,127.5 131.9719,127.3781 Q132.1875,127.3125 132.4313,127.0969 Q132.5906,126.975 132.675,126.9375 Q132.7594,126.9 132.8625,126.9 Q133.0594,126.9 133.2,127.0594 Q133.35,127.2094 133.35,127.425 Q133.35,127.6313 133.1437,127.875 Q132.8438,128.2313 132.3656,128.4281 Q131.7375,128.7 130.9688,128.7 Q130.0688,128.7 129.3469,128.3438 Q128.7656,128.0625 128.3531,127.4531 Q127.95,126.8438 127.95,126.1219 L127.95,125.4656 Q127.95,124.7156 128.3063,124.0594 Q128.6719,123.4031 129.3,123.0562 Q129.9375,122.7 130.65,122.7 Q131.0812,122.7 131.4562,122.85 Q131.8312,123 132.15,123.3 Z "/><text fill="#000000" font-family="sans-serif" font-size="7.2" lengthAdjust="spacingAndGlyphs" textLength="81" x="143.25" y="128.3461">RegisterDroneController</text><line style="stroke: #A80036; stroke-width: 0.8999999999999999;" x1="23.4" x2="324.6" y1="135" y2="135"/><line style="stroke: #A80036; stroke-width: 0.8999999999999999;" x1="23.4" x2="324.6" y1="139.8" y2="139.8"/><text fill="#000000" font-family="sans-serif" font-size="6.6" lengthAdjust="spacingAndGlyphs" textLength="51" x="26.4" y="149.0514">+getPharmacies()</text><text fill="#000000" font-family="sans-serif" font-size="6.6" lengthAdjust="spacingAndGlyphs" textLength="295.2" x="26.4" y="157.3529">+newDrone(batteryPerc, chargingStatus, potency, weight, batteryCapacity, maxPayload, pharmacyId)</text><text fill="#000000" font-family="sans-serif" font-size="6.6" lengthAdjust="spacingAndGlyphs" textLength="64.8" x="26.4" y="165.6545">+registerDrone(drone)</text><!--MD5=[2e3f1e60e74253ff42e47f8bfdb04ee2]
class Drone--><rect fill="#FEFECE" filter="url(#f2r3huy15uwfs)" height="111.8156" id="Drone" style="stroke: #A80036; stroke-width: 0.8999999999999999;" width="202.2" x="135.9" y="340.8"/><ellipse cx="224.25" cy="350.4" fill="#ADD1B2" rx="6.6" ry="6.6" style="stroke: #A80036; stroke-width: 0.6;"/><path d="M225.45,348.3 Q225.5719,348 225.7125,347.85 Q225.8531,347.7 226.0125,347.7 Q226.2938,347.7 226.4719,347.8688 Q226.65,348.0375 226.65,348.4313 L226.65,349.3688 Q226.65,349.7625 226.4813,349.9313 Q226.3125,350.1 226.05,350.1 Q225.8156,350.1 225.6656,349.9969 Q225.5156,349.8938 225.45,349.6219 Q225.4219,349.4344 225.3188,349.3313 Q225.1313,349.1344 224.7938,349.0219 Q224.4562,348.9 224.1188,348.9 Q223.6969,348.9 223.3406,349.0687 Q222.9938,349.2375 222.7219,349.6125 Q222.45,349.9875 222.45,350.5031 L222.45,351.0563 Q222.45,351.675 222.9562,352.0875 Q223.4625,352.5 224.3625,352.5 Q224.8969,352.5 225.2719,352.3781 Q225.4875,352.3125 225.7313,352.0969 Q225.8906,351.975 225.975,351.9375 Q226.0594,351.9 226.1625,351.9 Q226.3594,351.9 226.5,352.0594 Q226.65,352.2094 226.65,352.425 Q226.65,352.6312 226.4438,352.875 Q226.1437,353.2313 225.6656,353.4281 Q225.0375,353.7 224.2687,353.7 Q223.3688,353.7 222.6469,353.3438 Q222.0656,353.0625 221.6531,352.4531 Q221.25,351.8438 221.25,351.1219 L221.25,350.4656 Q221.25,349.7156 221.6063,349.0594 Q221.9719,348.4031 222.6,348.0563 Q223.2375,347.7 223.95,347.7 Q224.3813,347.7 224.7563,347.85 Q225.1313,348 225.45,348.3 Z "/><text fill="#000000" font-family="sans-serif" font-size="7.2" lengthAdjust="spacingAndGlyphs" textLength="20.4" x="236.55" y="353.3461">Drone</text><line style="stroke: #A80036; stroke-width: 0.8999999999999999;" x1="136.5" x2="337.5" y1="360" y2="360"/><text fill="#000000" font-family="sans-serif" font-size="6.6" lengthAdjust="spacingAndGlyphs" textLength="15.6" x="139.5" y="369.2514">-int id</text><text fill="#000000" font-family="sans-serif" font-size="6.6" lengthAdjust="spacingAndGlyphs" textLength="50.4" x="139.5" y="377.5529">-float batteryPerc</text><text fill="#000000" font-family="sans-serif" font-size="6.6" lengthAdjust="spacingAndGlyphs" textLength="61.2" x="139.5" y="385.8545">-String charginStatus</text><text fill="#000000" font-family="sans-serif" font-size="6.6" lengthAdjust="spacingAndGlyphs" textLength="40.2" x="139.5" y="394.1561">-float potency</text><text fill="#000000" font-family="sans-serif" font-size="6.6" lengthAdjust="spacingAndGlyphs" textLength="36.6" x="139.5" y="402.4576">-float weight</text><text fill="#000000" font-family="sans-serif" font-size="6.6" lengthAdjust="spacingAndGlyphs" textLength="56.4" x="139.5" y="410.7592">-int batteryCapacity</text><text fill="#000000" font-family="sans-serif" font-size="6.6" lengthAdjust="spacingAndGlyphs" textLength="51.6" x="139.5" y="419.0607">-float maxPayload</text><text fill="#000000" font-family="sans-serif" font-size="6.6" lengthAdjust="spacingAndGlyphs" textLength="59.4" x="139.5" y="427.3623">-float batteryVoltage</text><line style="stroke: #A80036; stroke-width: 0.8999999999999999;" x1="136.5" x2="337.5" y1="431.2125" y2="431.2125"/><text fill="#000000" font-family="sans-serif" font-size="6.6" lengthAdjust="spacingAndGlyphs" textLength="129.6" x="139.5" y="440.4639">+Drone(batteryPerc, charginStatus, potency,</text><text fill="#000000" font-family="sans-serif" font-size="6.6" lengthAdjust="spacingAndGlyphs" textLength="193.2" x="141.3" y="448.7654">weight, batteryCapacity, maxPayload, batteryVoltage, pharmacyId)</text><!--MD5=[0f39e4cb6f03951afbf6d14bd2505654]
class Address--><rect fill="#FEFECE" filter="url(#f2r3huy15uwfs)" height="86.9109" id="Address" style="stroke: #A80036; stroke-width: 0.8999999999999999;" width="63.6" x="205.2" y="591.6"/><ellipse cx="221.76" cy="601.2" fill="#ADD1B2" rx="6.6" ry="6.6" style="stroke: #A80036; stroke-width: 0.6;"/><path d="M222.96,599.1 Q223.0819,598.8 223.2225,598.65 Q223.3631,598.5 223.5225,598.5 Q223.8038,598.5 223.9819,598.6687 Q224.16,598.8375 224.16,599.2312 L224.16,600.1687 Q224.16,600.5625 223.9913,600.7312 Q223.8225,600.9 223.56,600.9 Q223.3256,600.9 223.1756,600.7969 Q223.0256,600.6938 222.96,600.4219 Q222.9319,600.2344 222.8288,600.1313 Q222.6413,599.9344 222.3038,599.8219 Q221.9663,599.7 221.6288,599.7 Q221.2069,599.7 220.8506,599.8688 Q220.5038,600.0375 220.2319,600.4125 Q219.96,600.7875 219.96,601.3031 L219.96,601.8562 Q219.96,602.475 220.4663,602.8875 Q220.9725,603.3 221.8725,603.3 Q222.4069,603.3 222.7819,603.1781 Q222.9975,603.1125 223.2413,602.8969 Q223.4006,602.775 223.485,602.7375 Q223.5694,602.7 223.6725,602.7 Q223.8694,602.7 224.01,602.8594 Q224.16,603.0094 224.16,603.225 Q224.16,603.4313 223.9538,603.675 Q223.6538,604.0313 223.1756,604.2281 Q222.5475,604.5 221.7788,604.5 Q220.8788,604.5 220.1569,604.1438 Q219.5756,603.8625 219.1631,603.2531 Q218.76,602.6438 218.76,601.9219 L218.76,601.2656 Q218.76,600.5156 219.1163,599.8594 Q219.4819,599.2031 220.11,598.8562 Q220.7475,598.5 221.46,598.5 Q221.8913,598.5 222.2663,598.65 Q222.6413,598.8 222.96,599.1 Z "/><text fill="#000000" font-family="sans-serif" font-size="7.2" lengthAdjust="spacingAndGlyphs" textLength="27.6" x="231.84" y="604.1461">Address</text><line style="stroke: #A80036; stroke-width: 0.8999999999999999;" x1="205.8" x2="268.2" y1="610.8" y2="610.8"/><text fill="#000000" font-family="sans-serif" font-size="6.6" lengthAdjust="spacingAndGlyphs" textLength="42.6" x="208.8" y="620.0514">-float longitude</text><text fill="#000000" font-family="sans-serif" font-size="6.6" lengthAdjust="spacingAndGlyphs" textLength="37.2" x="208.8" y="628.3529">-float latitude</text><text fill="#000000" font-family="sans-serif" font-size="6.6" lengthAdjust="spacingAndGlyphs" textLength="56.4" x="208.8" y="636.6545">-String doorNumber</text><text fill="#000000" font-family="sans-serif" font-size="6.6" lengthAdjust="spacingAndGlyphs" textLength="54" x="208.8" y="644.9561">-String streetName</text><text fill="#000000" font-family="sans-serif" font-size="6.6" lengthAdjust="spacingAndGlyphs" textLength="53.4" x="208.8" y="653.2576">-String postalCode</text><text fill="#000000" font-family="sans-serif" font-size="6.6" lengthAdjust="spacingAndGlyphs" textLength="40.8" x="208.8" y="661.5592">-String locality</text><text fill="#000000" font-family="sans-serif" font-size="6.6" lengthAdjust="spacingAndGlyphs" textLength="43.2" x="208.8" y="669.8607">-String country</text><line style="stroke: #A80036; stroke-width: 0.8999999999999999;" x1="205.8" x2="268.2" y1="673.7109" y2="673.7109"/><!--MD5=[7f2a9fafcebe4f099f71398fd3e2ed00]
class Pharmacy--><rect fill="#FEFECE" filter="url(#f2r3huy15uwfs)" height="45.4031" id="Pharmacy" style="stroke: #A80036; stroke-width: 0.8999999999999999;" width="52.2" x="210.9" y="499.2"/><ellipse cx="219.9" cy="508.8" fill="#ADD1B2" rx="6.6" ry="6.6" style="stroke: #A80036; stroke-width: 0.6;"/><path d="M221.1,506.7 Q221.2219,506.4 221.3625,506.25 Q221.5031,506.1 221.6625,506.1 Q221.9438,506.1 222.1219,506.2687 Q222.3,506.4375 222.3,506.8312 L222.3,507.7687 Q222.3,508.1625 222.1313,508.3312 Q221.9625,508.5 221.7,508.5 Q221.4656,508.5 221.3156,508.3969 Q221.1656,508.2938 221.1,508.0219 Q221.0719,507.8344 220.9688,507.7313 Q220.7813,507.5344 220.4438,507.4219 Q220.1063,507.3 219.7687,507.3 Q219.3469,507.3 218.9906,507.4688 Q218.6437,507.6375 218.3719,508.0125 Q218.1,508.3875 218.1,508.9031 L218.1,509.4562 Q218.1,510.075 218.6063,510.4875 Q219.1125,510.9 220.0125,510.9 Q220.5469,510.9 220.9219,510.7781 Q221.1375,510.7125 221.3813,510.4969 Q221.5406,510.375 221.625,510.3375 Q221.7094,510.3 221.8125,510.3 Q222.0094,510.3 222.15,510.4594 Q222.3,510.6094 222.3,510.825 Q222.3,511.0313 222.0938,511.275 Q221.7938,511.6312 221.3156,511.8281 Q220.6875,512.1 219.9188,512.1 Q219.0187,512.1 218.2969,511.7438 Q217.7156,511.4625 217.3031,510.8531 Q216.9,510.2438 216.9,509.5219 L216.9,508.8656 Q216.9,508.1156 217.2563,507.4594 Q217.6219,506.8031 218.25,506.4562 Q218.8875,506.1 219.6,506.1 Q220.0313,506.1 220.4063,506.25 Q220.7813,506.4 221.1,506.7 Z "/><text fill="#000000" font-family="sans-serif" font-size="7.2" lengthAdjust="spacingAndGlyphs" textLength="33" x="228.3" y="511.7461">Pharmacy</text><line style="stroke: #A80036; stroke-width: 0.8999999999999999;" x1="211.5" x2="262.5" y1="518.4" y2="518.4"/><text fill="#000000" font-family="sans-serif" font-size="6.6" lengthAdjust="spacingAndGlyphs" textLength="15.6" x="214.5" y="527.6514">-int id</text><text fill="#000000" font-family="sans-serif" font-size="6.6" lengthAdjust="spacingAndGlyphs" textLength="36.6" x="214.5" y="535.9529">-String name</text><line style="stroke: #A80036; stroke-width: 0.8999999999999999;" x1="211.5" x2="262.5" y1="539.8031" y2="539.8031"/><!--MD5=[28160fdc0be430cd6f04db15a7547552]
class PharmacyService--><rect fill="#FEFECE" filter="url(#f2r3huy15uwfs)" height="45.4031" id="PharmacyService" style="stroke: #A80036; stroke-width: 0.8999999999999999;" width="76.2" x="67.5" y="247.2"/><ellipse cx="76.5" cy="256.8" fill="#ADD1B2" rx="6.6" ry="6.6" style="stroke: #A80036; stroke-width: 0.6;"/><path d="M77.7,254.7 Q77.8219,254.4 77.9625,254.25 Q78.1031,254.1 78.2625,254.1 Q78.5438,254.1 78.7219,254.2687 Q78.9,254.4375 78.9,254.8312 L78.9,255.7687 Q78.9,256.1625 78.7313,256.3313 Q78.5625,256.5 78.3,256.5 Q78.0656,256.5 77.9156,256.3969 Q77.7656,256.2938 77.7,256.0219 Q77.6719,255.8344 77.5688,255.7313 Q77.3813,255.5344 77.0438,255.4219 Q76.7063,255.3 76.3687,255.3 Q75.9469,255.3 75.5906,255.4688 Q75.2437,255.6375 74.9719,256.0125 Q74.7,256.3875 74.7,256.9031 L74.7,257.4563 Q74.7,258.075 75.2063,258.4875 Q75.7125,258.9 76.6125,258.9 Q77.1469,258.9 77.5219,258.7781 Q77.7375,258.7125 77.9813,258.4969 Q78.1406,258.375 78.225,258.3375 Q78.3094,258.3 78.4125,258.3 Q78.6094,258.3 78.75,258.4594 Q78.9,258.6094 78.9,258.825 Q78.9,259.0313 78.6938,259.275 Q78.3938,259.6312 77.9156,259.8281 Q77.2875,260.1 76.5188,260.1 Q75.6187,260.1 74.8969,259.7438 Q74.3156,259.4625 73.9031,258.8531 Q73.5,258.2438 73.5,257.5219 L73.5,256.8656 Q73.5,256.1156 73.8563,255.4594 Q74.2219,254.8031 74.85,254.4562 Q75.4875,254.1 76.2,254.1 Q76.6313,254.1 77.0063,254.25 Q77.3813,254.4 77.7,254.7 Z "/><text fill="#000000" font-family="sans-serif" font-size="7.2" lengthAdjust="spacingAndGlyphs" textLength="57" x="84.9" y="259.7461">PharmacyService</text><line style="stroke: #A80036; stroke-width: 0.8999999999999999;" x1="68.1" x2="143.1" y1="266.4" y2="266.4"/><line style="stroke: #A80036; stroke-width: 0.8999999999999999;" x1="68.1" x2="143.1" y1="271.2" y2="271.2"/><text fill="#000000" font-family="sans-serif" font-size="6.6" lengthAdjust="spacingAndGlyphs" textLength="59.4" x="71.1" y="280.4514">+PharmacyService()</text><text fill="#000000" font-family="sans-serif" font-size="6.6" lengthAdjust="spacingAndGlyphs" textLength="51" x="71.1" y="288.7529">+getPharmacies()</text><!--MD5=[f0386d752ae2001320683395ba6b7079]
class DroneService--><rect fill="#FEFECE" filter="url(#f2r3huy15uwfs)" height="45.4031" id="DroneService" style="stroke: #A80036; stroke-width: 0.8999999999999999;" width="72" x="165" y="247.2"/><ellipse cx="177.78" cy="256.8" fill="#ADD1B2" rx="6.6" ry="6.6" style="stroke: #A80036; stroke-width: 0.6;"/><path d="M178.98,254.7 Q179.1019,254.4 179.2425,254.25 Q179.3831,254.1 179.5425,254.1 Q179.8238,254.1 180.0019,254.2687 Q180.18,254.4375 180.18,254.8312 L180.18,255.7687 Q180.18,256.1625 180.0113,256.3313 Q179.8425,256.5 179.58,256.5 Q179.3456,256.5 179.1956,256.3969 Q179.0456,256.2938 178.98,256.0219 Q178.9519,255.8344 178.8488,255.7313 Q178.6613,255.5344 178.3238,255.4219 Q177.9863,255.3 177.6488,255.3 Q177.2269,255.3 176.8706,255.4688 Q176.5238,255.6375 176.2519,256.0125 Q175.98,256.3875 175.98,256.9031 L175.98,257.4563 Q175.98,258.075 176.4863,258.4875 Q176.9925,258.9 177.8925,258.9 Q178.4269,258.9 178.8019,258.7781 Q179.0175,258.7125 179.2613,258.4969 Q179.4206,258.375 179.505,258.3375 Q179.5894,258.3 179.6925,258.3 Q179.8894,258.3 180.03,258.4594 Q180.18,258.6094 180.18,258.825 Q180.18,259.0313 179.9738,259.275 Q179.6738,259.6312 179.1956,259.8281 Q178.5675,260.1 177.7988,260.1 Q176.8988,260.1 176.1769,259.7438 Q175.5956,259.4625 175.1831,258.8531 Q174.78,258.2438 174.78,257.5219 L174.78,256.8656 Q174.78,256.1156 175.1363,255.4594 Q175.5019,254.8031 176.13,254.4562 Q176.7675,254.1 177.48,254.1 Q177.9113,254.1 178.2863,254.25 Q178.6613,254.4 178.98,254.7 Z "/><text fill="#000000" font-family="sans-serif" font-size="7.2" lengthAdjust="spacingAndGlyphs" textLength="44.4" x="187.02" y="259.7461">DroneService</text><line style="stroke: #A80036; stroke-width: 0.8999999999999999;" x1="165.6" x2="236.4" y1="266.4" y2="266.4"/><line style="stroke: #A80036; stroke-width: 0.8999999999999999;" x1="165.6" x2="236.4" y1="271.2" y2="271.2"/><text fill="#000000" font-family="sans-serif" font-size="6.6" lengthAdjust="spacingAndGlyphs" textLength="48" x="168.6" y="280.4514">+DroneService()</text><text fill="#000000" font-family="sans-serif" font-size="6.6" lengthAdjust="spacingAndGlyphs" textLength="64.8" x="168.6" y="288.7529">+registerDrone(drone)</text><!--MD5=[4b2d61224b33971326a22fe5d809d926]
class DataHandler--><rect fill="#FEFECE" filter="url(#f2r3huy15uwfs)" height="45.4031" id="DataHandler" style="stroke: #A80036; stroke-width: 0.8999999999999999;" width="62.4" x="541.2" y="247.2"/><ellipse cx="550.74" cy="256.8" fill="#ADD1B2" rx="6.6" ry="6.6" style="stroke: #A80036; stroke-width: 0.6;"/><path d="M551.94,254.7 Q552.0619,254.4 552.2025,254.25 Q552.3431,254.1 552.5025,254.1 Q552.7837,254.1 552.9619,254.2687 Q553.14,254.4375 553.14,254.8312 L553.14,255.7687 Q553.14,256.1625 552.9712,256.3313 Q552.8025,256.5 552.54,256.5 Q552.3056,256.5 552.1556,256.3969 Q552.0056,256.2938 551.94,256.0219 Q551.9119,255.8344 551.8087,255.7313 Q551.6212,255.5344 551.2837,255.4219 Q550.9463,255.3 550.6088,255.3 Q550.1869,255.3 549.8306,255.4688 Q549.4838,255.6375 549.2119,256.0125 Q548.94,256.3875 548.94,256.9031 L548.94,257.4563 Q548.94,258.075 549.4463,258.4875 Q549.9525,258.9 550.8525,258.9 Q551.3869,258.9 551.7619,258.7781 Q551.9775,258.7125 552.2212,258.4969 Q552.3806,258.375 552.465,258.3375 Q552.5494,258.3 552.6525,258.3 Q552.8494,258.3 552.99,258.4594 Q553.14,258.6094 553.14,258.825 Q553.14,259.0313 552.9337,259.275 Q552.6338,259.6312 552.1556,259.8281 Q551.5275,260.1 550.7588,260.1 Q549.8588,260.1 549.1369,259.7438 Q548.5556,259.4625 548.1431,258.8531 Q547.74,258.2438 547.74,257.5219 L547.74,256.8656 Q547.74,256.1156 548.0962,255.4594 Q548.4619,254.8031 549.09,254.4562 Q549.7275,254.1 550.44,254.1 Q550.8712,254.1 551.2462,254.25 Q551.6212,254.4 551.94,254.7 Z "/><text fill="#000000" font-family="sans-serif" font-size="7.2" lengthAdjust="spacingAndGlyphs" textLength="42" x="559.26" y="259.7461">DataHandler</text><line style="stroke: #A80036; stroke-width: 0.8999999999999999;" x1="541.8" x2="603" y1="266.4" y2="266.4"/><line style="stroke: #A80036; stroke-width: 0.8999999999999999;" x1="541.8" x2="603" y1="271.2" y2="271.2"/><text fill="#000000" font-family="sans-serif" font-size="6.6" lengthAdjust="spacingAndGlyphs" textLength="55.2" x="544.8" y="280.4514">+openConnection()</text><text fill="#000000" font-family="sans-serif" font-size="6.6" lengthAdjust="spacingAndGlyphs" textLength="31.2" x="544.8" y="288.7529">+closeAll()</text><!--MD5=[b860ecc58d0ca70e482845cb1f7b4615]
class PharmacyDB--><rect fill="#FEFECE" filter="url(#f2r3huy15uwfs)" height="45.4031" id="PharmacyDB" style="stroke: #A80036; stroke-width: 0.8999999999999999;" width="62.4" x="552.6" y="373.8"/><ellipse cx="561.6" cy="383.4" fill="#ADD1B2" rx="6.6" ry="6.6" style="stroke: #A80036; stroke-width: 0.6;"/><path d="M562.8,381.3 Q562.9219,381 563.0625,380.85 Q563.2031,380.7 563.3625,380.7 Q563.6438,380.7 563.8219,380.8688 Q564,381.0375 564,381.4313 L564,382.3688 Q564,382.7625 563.8313,382.9313 Q563.6625,383.1 563.4,383.1 Q563.1656,383.1 563.0156,382.9969 Q562.8656,382.8938 562.8,382.6219 Q562.7719,382.4344 562.6687,382.3313 Q562.4812,382.1344 562.1438,382.0219 Q561.8063,381.9 561.4688,381.9 Q561.0469,381.9 560.6906,382.0687 Q560.3438,382.2375 560.0719,382.6125 Q559.8,382.9875 559.8,383.5031 L559.8,384.0563 Q559.8,384.675 560.3063,385.0875 Q560.8125,385.5 561.7125,385.5 Q562.2469,385.5 562.6219,385.3781 Q562.8375,385.3125 563.0813,385.0969 Q563.2406,384.975 563.325,384.9375 Q563.4094,384.9 563.5125,384.9 Q563.7094,384.9 563.85,385.0594 Q564,385.2094 564,385.425 Q564,385.6312 563.7937,385.875 Q563.4938,386.2313 563.0156,386.4281 Q562.3875,386.7 561.6188,386.7 Q560.7188,386.7 559.9969,386.3438 Q559.4156,386.0625 559.0031,385.4531 Q558.6,384.8438 558.6,384.1219 L558.6,383.4656 Q558.6,382.7156 558.9563,382.0594 Q559.3219,381.4031 559.95,381.0563 Q560.5875,380.7 561.3,380.7 Q561.7312,380.7 562.1062,380.85 Q562.4812,381 562.8,381.3 Z "/><text fill="#000000" font-family="sans-serif" font-size="7.2" lengthAdjust="spacingAndGlyphs" textLength="43.2" x="570" y="386.3461">PharmacyDB</text><line style="stroke: #A80036; stroke-width: 0.8999999999999999;" x1="553.2" x2="614.4" y1="393" y2="393"/><line style="stroke: #A80036; stroke-width: 0.8999999999999999;" x1="553.2" x2="614.4" y1="397.8" y2="397.8"/><text fill="#000000" font-family="sans-serif" font-size="6.6" lengthAdjust="spacingAndGlyphs" textLength="45.6" x="556.2" y="407.0514">+PharmacyDB()</text><text fill="#000000" font-family="sans-serif" font-size="6.6" lengthAdjust="spacingAndGlyphs" textLength="51" x="556.2" y="415.3529">+getPharmacies()</text><!--MD5=[e5e4874ffcb9901dc5acd0f1e94e7c33]
class DroneDB--><rect fill="#FEFECE" filter="url(#f2r3huy15uwfs)" height="45.4031" id="DroneDB" style="stroke: #A80036; stroke-width: 0.8999999999999999;" width="72" x="459.6" y="373.8"/><ellipse cx="478.59" cy="383.4" fill="#ADD1B2" rx="6.6" ry="6.6" style="stroke: #A80036; stroke-width: 0.6;"/><path d="M479.79,381.3 Q479.9119,381 480.0525,380.85 Q480.1931,380.7 480.3525,380.7 Q480.6337,380.7 480.8119,380.8688 Q480.99,381.0375 480.99,381.4313 L480.99,382.3688 Q480.99,382.7625 480.8212,382.9313 Q480.6525,383.1 480.39,383.1 Q480.1556,383.1 480.0056,382.9969 Q479.8556,382.8938 479.79,382.6219 Q479.7619,382.4344 479.6587,382.3313 Q479.4712,382.1344 479.1337,382.0219 Q478.7963,381.9 478.4587,381.9 Q478.0369,381.9 477.6806,382.0687 Q477.3337,382.2375 477.0619,382.6125 Q476.79,382.9875 476.79,383.5031 L476.79,384.0563 Q476.79,384.675 477.2963,385.0875 Q477.8025,385.5 478.7025,385.5 Q479.2369,385.5 479.6119,385.3781 Q479.8275,385.3125 480.0712,385.0969 Q480.2306,384.975 480.315,384.9375 Q480.3994,384.9 480.5025,384.9 Q480.6994,384.9 480.84,385.0594 Q480.99,385.2094 480.99,385.425 Q480.99,385.6312 480.7837,385.875 Q480.4838,386.2313 480.0056,386.4281 Q479.3775,386.7 478.6088,386.7 Q477.7087,386.7 476.9869,386.3438 Q476.4056,386.0625 475.9931,385.4531 Q475.59,384.8438 475.59,384.1219 L475.59,383.4656 Q475.59,382.7156 475.9462,382.0594 Q476.3119,381.4031 476.94,381.0563 Q477.5775,380.7 478.29,380.7 Q478.7212,380.7 479.0962,380.85 Q479.4712,381 479.79,381.3 Z "/><text fill="#000000" font-family="sans-serif" font-size="7.2" lengthAdjust="spacingAndGlyphs" textLength="30.6" x="489.21" y="386.3461">DroneDB</text><line style="stroke: #A80036; stroke-width: 0.8999999999999999;" x1="460.2" x2="531" y1="393" y2="393"/><line style="stroke: #A80036; stroke-width: 0.8999999999999999;" x1="460.2" x2="531" y1="397.8" y2="397.8"/><text fill="#000000" font-family="sans-serif" font-size="6.6" lengthAdjust="spacingAndGlyphs" textLength="34.2" x="463.2" y="407.0514">+DroneDB()</text><text fill="#000000" font-family="sans-serif" font-size="6.6" lengthAdjust="spacingAndGlyphs" textLength="64.8" x="463.2" y="415.3529">+registerDrone(drone)</text><!--MD5=[f40d64c3825bdc96a4efd5b7e3ff1420]
reverse link DataHandler to PharmacyDB--><path d="M575.526,304.9878 C577.5204,326.9226 580.0464,354.7092 581.7798,373.7748 " fill="none" id="DataHandler&lt;-PharmacyDB" style="stroke: #A80036; stroke-width: 0.6;"/><polygon fill="none" points="571.3416,305.3502,574.4382,293.019,579.7074,304.5894,571.3416,305.3502" style="stroke: #A80036; stroke-width: 0.6;"/><!--MD5=[18feea515641fb3f6597b6a3b4d6a380]
reverse link DataHandler to DroneDB--><path d="M559.107,304.0782 C556.218,310.422 553.0002,316.9122 549.6,322.8 C539.2146,340.7832 525.2502,359.6064 514.1244,373.6608 " fill="none" id="DataHandler&lt;-DroneDB" style="stroke: #A80036; stroke-width: 0.6;"/><polygon fill="none" points="555.2928,302.3166,563.9196,292.977,562.9998,305.6574,555.2928,302.3166" style="stroke: #A80036; stroke-width: 0.6;"/><!--MD5=[bc0b3096c7aa5bff2ed42868e0b826ca]
link RegisterDroneUI to RegisterDroneController--><path d="M174,64.854 C174,77.466 174,96.51 174,112.548 " fill="none" id="RegisterDroneUI-&gt;RegisterDroneController" style="stroke: #A80036; stroke-width: 0.6; stroke-dasharray: 7.0,7.0;"/><polygon fill="#A80036" points="174,115.7118,176.4,110.3118,174,112.7118,171.6,110.3118,174,115.7118" style="stroke: #A80036; stroke-width: 0.6;"/><!--MD5=[41c0da9b77ec484983d59968149e9773]
link RegisterDroneController to PharmacyService--><path d="M159.6612,169.8138 C147.7764,191.7066 130.995,222.6192 119.2926,244.1766 " fill="none" id="RegisterDroneController-&gt;PharmacyService" style="stroke: #A80036; stroke-width: 0.6; stroke-dasharray: 7.0,7.0;"/><polygon fill="#A80036" points="117.7482,247.0218,122.4344,243.4219,119.1799,244.3855,118.2163,241.1311,117.7482,247.0218" style="stroke: #A80036; stroke-width: 0.6;"/><!--MD5=[9f539eda316dc5b78e96ddf8ff397f5c]
link RegisterDroneController to DroneService--><path d="M179.6598,169.8138 C184.332,191.6172 190.9218,222.3672 195.5382,243.912 " fill="none" id="RegisterDroneController-&gt;DroneService" style="stroke: #A80036; stroke-width: 0.6; stroke-dasharray: 7.0,7.0;"/><polygon fill="#A80036" points="196.2048,247.0218,197.4189,241.2386,195.5756,244.0885,192.7257,242.2452,196.2048,247.0218" style="stroke: #A80036; stroke-width: 0.6;"/><!--MD5=[04ba2cb7f5803b19c0d0e740f2a895e0]
link Database to PharmacyDB--><path d="M416.7252,284.1984 C425.475,292.1784 437.5284,301.7382 450,307.2 C462.1278,312.5112 466.7334,308.1468 479.4,312 C508.8546,320.9598 518.4228,321.4884 542.4,340.8 C552.807,349.182 562.0044,360.7392 569.0712,371.1138 " fill="none" id="Database-&gt;PharmacyDB" style="stroke: #A80036; stroke-width: 0.6;"/><polygon fill="#A80036" points="570.8214,373.7232,569.8054,367.9019,569.1498,371.2321,565.8196,370.5765,570.8214,373.7232" style="stroke: #A80036; stroke-width: 0.6;"/><text fill="#000000" font-family="sans-serif" font-size="7.8" lengthAdjust="spacingAndGlyphs" textLength="31.8" x="513" y="320.6971">manages</text><text fill="#000000" font-family="sans-serif" font-size="7.8" lengthAdjust="spacingAndGlyphs" textLength="4.2" x="420.3385" y="296.7403">1</text><text fill="#000000" font-family="sans-serif" font-size="7.8" lengthAdjust="spacingAndGlyphs" textLength="4.2" x="563.9355" y="367.3267">1</text><!--MD5=[3bc0a5f81cd94df0c3ef53dec7c84f6e]
link Database to DroneDB--><path d="M413.2644,284.259 C428.625,305.1054 458.1546,345.1818 477.3576,371.2422 " fill="none" id="Database-&gt;DroneDB" style="stroke: #A80036; stroke-width: 0.6;"/><polygon fill="#A80036" points="479.1828,373.719,477.9122,367.9479,477.4034,371.3037,474.0477,370.7949,479.1828,373.719" style="stroke: #A80036; stroke-width: 0.6;"/><text fill="#000000" font-family="sans-serif" font-size="7.8" lengthAdjust="spacingAndGlyphs" textLength="31.8" x="442.2" y="320.6971">manages</text><text fill="#000000" font-family="sans-serif" font-size="7.8" lengthAdjust="spacingAndGlyphs" textLength="4.2" x="410.9062" y="296.815">1</text><text fill="#000000" font-family="sans-serif" font-size="7.8" lengthAdjust="spacingAndGlyphs" textLength="4.2" x="471.6844" y="367.3217">1</text><!--MD5=[319fcd49d9a70ab1205ee2f78c6af69e]
link DroneService to PharmacyDB--><path d="M223.6368,292.8984 C237.96,306.9798 253.8816,322.5696 254.4,322.8 C312.9978,348.8436 485.9676,310.347 542.4,340.8 C554.7426,347.4606 564.4548,359.5746 571.3608,370.7604 " fill="none" id="DroneService-&gt;PharmacyDB" style="stroke: #A80036; stroke-width: 0.6;"/><polygon fill="#A80036" points="573.0564,373.5804,572.3318,367.7157,571.511,371.0091,568.2176,370.1883,573.0564,373.5804" style="stroke: #A80036; stroke-width: 0.6;"/><text fill="#000000" font-family="sans-serif" font-size="7.8" lengthAdjust="spacingAndGlyphs" textLength="16.8" x="255" y="320.6971">uses</text><text fill="#000000" font-family="sans-serif" font-size="7.8" lengthAdjust="spacingAndGlyphs" textLength="4.2" x="222.7099" y="305.4424">1</text><text fill="#000000" font-family="sans-serif" font-size="7.8" lengthAdjust="spacingAndGlyphs" textLength="3" x="571.4677" y="367.331">*</text><!--MD5=[4aef795f878f9415740bac6fb901c4c8]
link DroneService to DroneDB--><path d="M204.6846,293.007 C207.66,303.7656 213.0102,315.8094 222.6,322.8 C262.3818,351.7992 399.0144,319.5054 443.4,340.8 C457.4406,347.5362 469.6338,359.8008 478.6968,371.0616 " fill="none" id="DroneService-&gt;DroneDB" style="stroke: #A80036; stroke-width: 0.6;"/><polygon fill="#A80036" points="480.699,373.596,479.2362,367.8706,478.8399,371.2415,475.469,370.8451,480.699,373.596" style="stroke: #A80036; stroke-width: 0.6;"/><text fill="#000000" font-family="sans-serif" font-size="7.8" lengthAdjust="spacingAndGlyphs" textLength="16.8" x="223.2" y="320.6971">uses</text><text fill="#000000" font-family="sans-serif" font-size="7.8" lengthAdjust="spacingAndGlyphs" textLength="4.2" x="200.7371" y="305.5683">1</text><text fill="#000000" font-family="sans-serif" font-size="7.8" lengthAdjust="spacingAndGlyphs" textLength="3" x="478.3957" y="367.3493">*</text><!--MD5=[2ed2b43e7f6d114538396b0b10b28567]
link PharmacyService to Pharmacy--><path d="M85.164,292.9278 C74.7162,305.8812 63.0734,323.0976 57.6,340.8 C42.9482,388.1868 29.5196,411.5142 57.6,452.4 C91.5246,501.7956 166.1274,515.844 207.6486,519.8298 " fill="none" id="PharmacyService-&gt;Pharmacy" style="stroke: #A80036; stroke-width: 0.6;"/><polygon fill="#A80036" points="210.825,520.1214,205.6671,517.2377,207.8376,519.8471,205.2282,522.0176,210.825,520.1214" style="stroke: #A80036; stroke-width: 0.6;"/><text fill="#000000" font-family="sans-serif" font-size="7.8" lengthAdjust="spacingAndGlyphs" textLength="66.6" x="58.2" y="399.8971">manage services of</text><text fill="#000000" font-family="sans-serif" font-size="7.8" lengthAdjust="spacingAndGlyphs" textLength="4.2" x="77.3723" y="305.4765">1</text><text fill="#000000" font-family="sans-serif" font-size="7.8" lengthAdjust="spacingAndGlyphs" textLength="3" x="203.0684" y="517.5056">*</text><!--MD5=[e3cc844120729527281d37c09bce0e7b]
link DroneService to Drone--><path d="M176.9046,292.8504 C169.9914,298.2504 162.1584,303.5214 154.2,307.2 C144.5634,311.655 137.5104,303.7734 130.8,312 C127.7658,315.7194 128.568,318.5508 130.8,322.8 C133.7082,328.3368 137.2464,333.537 141.2418,338.4078 " fill="none" id="DroneService-&gt;Drone" style="stroke: #A80036; stroke-width: 0.6;"/><polygon fill="#A80036" points="143.2386,340.7724,141.5871,335.0985,141.3026,338.4807,137.9204,338.1962,143.2386,340.7724" style="stroke: #A80036; stroke-width: 0.6;"/><text fill="#000000" font-family="sans-serif" font-size="7.8" lengthAdjust="spacingAndGlyphs" textLength="66.6" x="131.4" y="320.6971">manage services of</text><text fill="#000000" font-family="sans-serif" font-size="7.8" lengthAdjust="spacingAndGlyphs" textLength="4.2" x="168.366" y="305.5608">1</text><text fill="#000000" font-family="sans-serif" font-size="7.8" lengthAdjust="spacingAndGlyphs" textLength="3" x="132.3498" y="334.2486">*</text><!--MD5=[51d7b9a785c9fb041ca400474ed1d998]
link Database to Pharmacy--><path d="M400.4184,284.2386 C392.5782,321.6906 369.5118,425.1414 348.6,452.4 C326.4846,481.227 288.6054,500.9178 263.1906,511.6668 " fill="none" id="Database-Pharmacy" style="stroke: #A80036; stroke-width: 0.6;"/><text fill="#000000" font-family="sans-serif" font-size="7.8" lengthAdjust="spacingAndGlyphs" textLength="49.2" x="387.6" y="399.8971">has registered</text><polygon fill="#000000" points="409.5,405.2109,411.3,408.8109,413.1,405.2109,409.5,405.2109" style="stroke: #000000; stroke-width: 0.6;"/><text fill="#000000" font-family="sans-serif" font-size="7.8" lengthAdjust="spacingAndGlyphs" textLength="4.2" x="395.0895" y="296.7898">1</text><text fill="#000000" font-family="sans-serif" font-size="7.8" lengthAdjust="spacingAndGlyphs" textLength="3" x="267.9499" y="507.5979">*</text><!--MD5=[96117966725c1e8921b92ed7b1677b7b]
link Database to Drone--><path d="M378.7104,277.5216 C358.1154,284.1408 328.5948,295.5594 306.6,312 C295.7538,320.1072 285.537,330.2382 276.444,340.6302 " fill="none" id="Database-Drone" style="stroke: #A80036; stroke-width: 0.6;"/><polygon fill="#000000" points="311.4,316.6055,307.8,318.4055,311.4,320.2055,311.4,316.6055" style="stroke: #000000; stroke-width: 0.6;"/><text fill="#000000" font-family="sans-serif" font-size="7.8" lengthAdjust="spacingAndGlyphs" textLength="49.2" x="315" y="320.6971">has registered</text><text fill="#000000" font-family="sans-serif" font-size="7.8" lengthAdjust="spacingAndGlyphs" textLength="4.2" x="369.9403" y="276.5247">1</text><text fill="#000000" font-family="sans-serif" font-size="7.8" lengthAdjust="spacingAndGlyphs" textLength="3" x="276.4677" y="334.2845">*</text><!--MD5=[0b0bc9c7f03600b7866f5e5adba791e4]
link Drone to Pharmacy--><path d="M237,452.58 C237,469.011 237,486.0762 237,499.1034 " fill="none" id="Drone-Pharmacy" style="stroke: #A80036; stroke-width: 0.6;"/><text fill="#000000" font-family="sans-serif" font-size="7.8" lengthAdjust="spacingAndGlyphs" textLength="36" x="237.6" y="479.0971">belongs to</text><polygon fill="#000000" points="252.9,484.4109,254.7,488.0109,256.5,484.4109,252.9,484.4109" style="stroke: #000000; stroke-width: 0.6;"/><text fill="#000000" font-family="sans-serif" font-size="7.8" lengthAdjust="spacingAndGlyphs" textLength="3" x="233.8805" y="465.5203">*</text><text fill="#000000" font-family="sans-serif" font-size="7.8" lengthAdjust="spacingAndGlyphs" textLength="4.2" x="232.4259" y="492.7033">1</text><!--MD5=[89baec1bfb4a213750f7c61516e0a0f1]
link Pharmacy to Address--><path d="M237,544.9758 C237,558.3054 237,575.6706 237,591.5544 " fill="none" id="Pharmacy-Address" style="stroke: #A80036; stroke-width: 0.6;"/><text fill="#000000" font-family="sans-serif" font-size="7.8" lengthAdjust="spacingAndGlyphs" textLength="12.6" x="237.6" y="571.4971">has</text><polygon fill="#000000" points="241.2,576.8109,243,580.4109,244.8,576.8109,241.2,576.8109" style="stroke: #000000; stroke-width: 0.6;"/><text fill="#000000" font-family="sans-serif" font-size="7.8" lengthAdjust="spacingAndGlyphs" textLength="4.2" x="232.4653" y="557.5321">1</text><text fill="#000000" font-family="sans-serif" font-size="7.8" lengthAdjust="spacingAndGlyphs" textLength="4.2" x="232.5834" y="585.0813">1</text><!--MD5=[b8be7aeb3758443071458d1513f80ed0]
@startuml
skinparam classAttributeIconSize 0

database Database {
}

package "UI" #DDDDDD {
class RegisterDroneUI{
}
}

package "Controller" #DDDDDD {
class RegisterDroneController{
+getPharmacies()
+newDrone(batteryPerc, chargingStatus, potency, weight, batteryCapacity, maxPayload, pharmacyId)
+registerDrone(drone)
}
}


package "Model" #DDDDDD {
 package "Service" #DDDDDD {
  class PharmacyService{
      +PharmacyService()
      +getPharmacies()
  }

  class DroneService{
      +DroneService()
      +registerDrone(drone)
   }
}

package "Model" #DDDDDD {
class Drone{
  -int id
  -float batteryPerc
  -String charginStatus
  -float potency
  -float weight
  -int batteryCapacity
  -float maxPayload
  -float batteryVoltage
  +Drone(batteryPerc, charginStatus, potency,\n weight, batteryCapacity, maxPayload, batteryVoltage, pharmacyId)
}

class Address{
  -float longitude
  -float latitude
  -String doorNumber
  -String streetName
  -String postalCode
  -String locality
  -String country
}

class Pharmacy {
  -int id
  -String name
}
}


package "Data" #DDDDDD {
class DataHandler{
    +openConnection()
    +closeAll()
}
class PharmacyDB{
     +PharmacyDB()
     +getPharmacies()
 }

 class DroneDB{
     +DroneDB()
     +registerDrone(drone)
  }
}

class PharmacyDB extends DataHandler
class DroneDB extends DataHandler

RegisterDroneUI ..> RegisterDroneController
RegisterDroneController ..> PharmacyService
RegisterDroneController ..> DroneService
Database "1" - -> "1" PharmacyDB : manages
Database "1" - -> "1" DroneDB : manages
DroneService "1" - -> "*" PharmacyDB : uses
DroneService "1" - -> "*" DroneDB : uses
PharmacyService "1" - -> "*" Pharmacy : manage services of
DroneService "1" - -> "*" Drone : manage services of

Database "1" - - "*" Pharmacy : has registered >
Database "1" - - "*" Drone : has registered >

Drone "*" - - "1" Pharmacy : belongs to >
Pharmacy "1" - - "1" Address : has >

@enduml

PlantUML version 1.2020.09(Sun May 10 11:51:06 BST 2020)
(GPL source distribution)
Java Runtime: OpenJDK Runtime Environment
JVM: OpenJDK 64-Bit Server VM
Java Version: 11.0.6+8-b765.40
Operating System: Windows 10
Default Encoding: Cp1252
Language: pt
Country: PT
--></g></svg>