<?xml version="1.0" encoding="UTF-8" standalone="no"?><svg xmlns="http://www.w3.org/2000/svg" xmlns:xlink="http://www.w3.org/1999/xlink" contentScriptType="application/ecmascript" contentStyleType="text/css" height="1441px" preserveAspectRatio="none" style="width:966px;height:1441px;" version="1.1" viewBox="0 0 966 1441" width="966px" zoomAndPan="magnify"><defs><filter height="300%" id="f11iwtsxtdva4v" width="300%" x="-1" y="-1"><feGaussianBlur result="blurOut" stdDeviation="2.0"/><feColorMatrix in="blurOut" result="blurOut2" type="matrix" values="0 0 0 0 0 0 0 0 0 0 0 0 0 0 0 0 0 0 .4 0"/><feOffset dx="4.0" dy="4.0" in="blurOut2" result="blurOut3"/><feBlend in="SourceGraphic" in2="blurOut3" mode="normal"/></filter></defs><g><!--MD5=[9681dc6e01e10c6b4fe06895ae94f592]
cluster UI--><polygon fill="#DDDDDD" filter="url(#f11iwtsxtdva4v)" points="207,24,227,24,234,47.6094,365,47.6094,365,124,207,124,207,24" style="stroke: #000000; stroke-width: 1.5;"/><line style="stroke: #000000; stroke-width: 1.5;" x1="207" x2="234" y1="47.6094" y2="47.6094"/><text fill="#000000" font-family="sans-serif" font-size="14" font-weight="bold" lengthAdjust="spacingAndGlyphs" textLength="14" x="211" y="40.5332">UI</text><!--MD5=[1f2cfc53d9d308f53762fd0fcbaa4873]
cluster Controller--><polygon fill="#DDDDDD" filter="url(#f11iwtsxtdva4v)" points="22,157,99,157,106,180.6094,550,180.6094,550,299,22,299,22,157" style="stroke: #000000; stroke-width: 1.5;"/><line style="stroke: #000000; stroke-width: 1.5;" x1="22" x2="106" y1="180.6094" y2="180.6094"/><text fill="#000000" font-family="sans-serif" font-size="14" font-weight="bold" lengthAdjust="spacingAndGlyphs" textLength="71" x="26" y="173.5332">Controller</text><!--MD5=[15636c1ca4a123c16a2a1a8e90aca7a9]
cluster Model--><polygon fill="#DDDDDD" filter="url(#f11iwtsxtdva4v)" points="117,332,167,332,174,355.6094,516,355.6094,516,1429,117,1429,117,332" style="stroke: #000000; stroke-width: 1.5;"/><line style="stroke: #000000; stroke-width: 1.5;" x1="117" x2="174" y1="355.6094" y2="355.6094"/><text fill="#000000" font-family="sans-serif" font-size="14" font-weight="bold" lengthAdjust="spacingAndGlyphs" textLength="44" x="121" y="348.5332">Model</text><!--MD5=[9dd75fd92da113d30380b27734fd2f01]
cluster Service--><polygon fill="#DDDDDD" filter="url(#f11iwtsxtdva4v)" points="141,376,201,376,208,399.6094,456,399.6094,456,504,141,504,141,376" style="stroke: #000000; stroke-width: 1.5;"/><line style="stroke: #000000; stroke-width: 1.5;" x1="141" x2="208" y1="399.6094" y2="399.6094"/><text fill="#000000" font-family="sans-serif" font-size="14" font-weight="bold" lengthAdjust="spacingAndGlyphs" textLength="54" x="145" y="392.5332">Service</text><!--MD5=[f21b1f164e99c6b37934f23ad048ad54]
cluster Data--><polygon fill="#DDDDDD" filter="url(#f11iwtsxtdva4v)" points="653,376,690,376,697,399.6094,944,399.6094,944,660,653,660,653,376" style="stroke: #000000; stroke-width: 1.5;"/><line style="stroke: #000000; stroke-width: 1.5;" x1="653" x2="697" y1="399.6094" y2="399.6094"/><text fill="#000000" font-family="sans-serif" font-size="14" font-weight="bold" lengthAdjust="spacingAndGlyphs" textLength="31" x="657" y="392.5332">Data</text><!--MD5=[fa1e3283224feb76407c84b7e90ed808]
entity Database--><path d="M555.5,436.5 C555.5,426.5 596,426.5 596,426.5 C596,426.5 636.5,426.5 636.5,436.5 L636.5,463.1094 C636.5,473.1094 596,473.1094 596,473.1094 C596,473.1094 555.5,473.1094 555.5,463.1094 L555.5,436.5 " fill="#FFFFFF" filter="url(#f11iwtsxtdva4v)" style="stroke: #000000; stroke-width: 1.5;"/><path d="M555.5,436.5 C555.5,446.5 596,446.5 596,446.5 C596,446.5 636.5,446.5 636.5,436.5 " fill="none" style="stroke: #000000; stroke-width: 1.5;"/><text fill="#000000" font-family="sans-serif" font-size="14" lengthAdjust="spacingAndGlyphs" textLength="61" x="565.5" y="465.0332">Database</text><!--MD5=[f251daccc4f62ba7ef84cad74c4911ba]
class RegisterDroneUI--><rect fill="#FEFECE" filter="url(#f11iwtsxtdva4v)" height="48" id="RegisterDroneUI" style="stroke: #A80036; stroke-width: 1.5;" width="125" x="223.5" y="60"/><ellipse cx="238.5" cy="76" fill="#ADD1B2" rx="11" ry="11" style="stroke: #A80036; stroke-width: 1.0;"/><path d="M240.5,72.5 Q240.7031,72 240.9375,71.75 Q241.1719,71.5 241.4375,71.5 Q241.9063,71.5 242.2031,71.7813 Q242.5,72.0625 242.5,72.7188 L242.5,74.2813 Q242.5,74.9375 242.2188,75.2188 Q241.9375,75.5 241.5,75.5 Q241.1094,75.5 240.8594,75.3281 Q240.6094,75.1563 240.5,74.7031 Q240.4531,74.3906 240.2813,74.2188 Q239.9688,73.8906 239.4063,73.7031 Q238.8438,73.5 238.2813,73.5 Q237.5781,73.5 236.9844,73.7813 Q236.4063,74.0625 235.9531,74.6875 Q235.5,75.3125 235.5,76.1719 L235.5,77.0938 Q235.5,78.125 236.3438,78.8125 Q237.1875,79.5 238.6875,79.5 Q239.5781,79.5 240.2031,79.2969 Q240.5625,79.1875 240.9688,78.8281 Q241.2344,78.625 241.375,78.5625 Q241.5156,78.5 241.6875,78.5 Q242.0156,78.5 242.25,78.7656 Q242.5,79.0156 242.5,79.375 Q242.5,79.7188 242.1563,80.125 Q241.6563,80.7188 240.8594,81.0469 Q239.8125,81.5 238.5313,81.5 Q237.0313,81.5 235.8281,80.9063 Q234.8594,80.4375 234.1719,79.4219 Q233.5,78.4063 233.5,77.2031 L233.5,76.1094 Q233.5,74.8594 234.0938,73.7656 Q234.7031,72.6719 235.75,72.0938 Q236.8125,71.5 238,71.5 Q238.7188,71.5 239.3438,71.75 Q239.9688,72 240.5,72.5 Z "/><text fill="#000000" font-family="sans-serif" font-size="12" lengthAdjust="spacingAndGlyphs" textLength="93" x="252.5" y="80.9102">RegisterDroneUI</text><line style="stroke: #A80036; stroke-width: 1.5;" x1="224.5" x2="347.5" y1="92" y2="92"/><line style="stroke: #A80036; stroke-width: 1.5;" x1="224.5" x2="347.5" y1="100" y2="100"/><!--MD5=[7bfe739f2abd87692f4d4d8e06b95cec]
class RegisterDroneController--><rect fill="#FEFECE" filter="url(#f11iwtsxtdva4v)" height="89.5078" id="RegisterDroneController" style="stroke: #A80036; stroke-width: 1.5;" width="496" x="38" y="193"/><ellipse cx="214.25" cy="209" fill="#ADD1B2" rx="11" ry="11" style="stroke: #A80036; stroke-width: 1.0;"/><path d="M216.25,205.5 Q216.4531,205 216.6875,204.75 Q216.9219,204.5 217.1875,204.5 Q217.6563,204.5 217.9531,204.7813 Q218.25,205.0625 218.25,205.7188 L218.25,207.2813 Q218.25,207.9375 217.9688,208.2188 Q217.6875,208.5 217.25,208.5 Q216.8594,208.5 216.6094,208.3281 Q216.3594,208.1563 216.25,207.7031 Q216.2031,207.3906 216.0313,207.2188 Q215.7188,206.8906 215.1563,206.7031 Q214.5938,206.5 214.0313,206.5 Q213.3281,206.5 212.7344,206.7813 Q212.1563,207.0625 211.7031,207.6875 Q211.25,208.3125 211.25,209.1719 L211.25,210.0938 Q211.25,211.125 212.0938,211.8125 Q212.9375,212.5 214.4375,212.5 Q215.3281,212.5 215.9531,212.2969 Q216.3125,212.1875 216.7188,211.8281 Q216.9844,211.625 217.125,211.5625 Q217.2656,211.5 217.4375,211.5 Q217.7656,211.5 218,211.7656 Q218.25,212.0156 218.25,212.375 Q218.25,212.7188 217.9063,213.125 Q217.4063,213.7188 216.6094,214.0469 Q215.5625,214.5 214.2813,214.5 Q212.7813,214.5 211.5781,213.9063 Q210.6094,213.4375 209.9219,212.4219 Q209.25,211.4063 209.25,210.2031 L209.25,209.1094 Q209.25,207.8594 209.8438,206.7656 Q210.4531,205.6719 211.5,205.0938 Q212.5625,204.5 213.75,204.5 Q214.4688,204.5 215.0938,204.75 Q215.7188,205 216.25,205.5 Z "/><text fill="#000000" font-family="sans-serif" font-size="12" lengthAdjust="spacingAndGlyphs" textLength="135" x="234.75" y="213.9102">RegisterDroneController</text><line style="stroke: #A80036; stroke-width: 1.5;" x1="39" x2="533" y1="225" y2="225"/><line style="stroke: #A80036; stroke-width: 1.5;" x1="39" x2="533" y1="233" y2="233"/><text fill="#000000" font-family="sans-serif" font-size="11" lengthAdjust="spacingAndGlyphs" textLength="85" x="44" y="248.4189">+getPharmacies()</text><text fill="#000000" font-family="sans-serif" font-size="11" lengthAdjust="spacingAndGlyphs" textLength="484" x="44" y="262.2549">+newDrone(batteryPerc, chargingStatus, potency, weight, batteryCapacity, maxPayload, pharmacy)</text><text fill="#000000" font-family="sans-serif" font-size="11" lengthAdjust="spacingAndGlyphs" textLength="108" x="44" y="276.0908">+registerDrone(drone)</text><!--MD5=[b024fca8ac3dd8106de85a4004acf2e0]
class DronePark--><rect fill="#FEFECE" filter="url(#f11iwtsxtdva4v)" height="61.8359" id="DronePark" style="stroke: #A80036; stroke-width: 1.5;" width="111" x="174.5" y="1155.5"/><ellipse cx="198.5" cy="1171.5" fill="#ADD1B2" rx="11" ry="11" style="stroke: #A80036; stroke-width: 1.0;"/><path d="M200.5,1168 Q200.7031,1167.5 200.9375,1167.25 Q201.1719,1167 201.4375,1167 Q201.9063,1167 202.2031,1167.2813 Q202.5,1167.5625 202.5,1168.2188 L202.5,1169.7813 Q202.5,1170.4375 202.2188,1170.7188 Q201.9375,1171 201.5,1171 Q201.1094,1171 200.8594,1170.8281 Q200.6094,1170.6563 200.5,1170.2031 Q200.4531,1169.8906 200.2813,1169.7188 Q199.9688,1169.3906 199.4063,1169.2031 Q198.8438,1169 198.2813,1169 Q197.5781,1169 196.9844,1169.2813 Q196.4063,1169.5625 195.9531,1170.1875 Q195.5,1170.8125 195.5,1171.6719 L195.5,1172.5938 Q195.5,1173.625 196.3438,1174.3125 Q197.1875,1175 198.6875,1175 Q199.5781,1175 200.2031,1174.7969 Q200.5625,1174.6875 200.9688,1174.3281 Q201.2344,1174.125 201.375,1174.0625 Q201.5156,1174 201.6875,1174 Q202.0156,1174 202.25,1174.2656 Q202.5,1174.5156 202.5,1174.875 Q202.5,1175.2188 202.1563,1175.625 Q201.6563,1176.2188 200.8594,1176.5469 Q199.8125,1177 198.5313,1177 Q197.0313,1177 195.8281,1176.4063 Q194.8594,1175.9375 194.1719,1174.9219 Q193.5,1173.9063 193.5,1172.7031 L193.5,1171.6094 Q193.5,1170.3594 194.0938,1169.2656 Q194.7031,1168.1719 195.75,1167.5938 Q196.8125,1167 198,1167 Q198.7188,1167 199.3438,1167.25 Q199.9688,1167.5 200.5,1168 Z "/><text fill="#000000" font-family="sans-serif" font-size="12" lengthAdjust="spacingAndGlyphs" textLength="59" x="214.5" y="1176.4102">DronePark</text><line style="stroke: #A80036; stroke-width: 1.5;" x1="175.5" x2="284.5" y1="1187.5" y2="1187.5"/><text fill="#000000" font-family="sans-serif" font-size="11" lengthAdjust="spacingAndGlyphs" textLength="99" x="180.5" y="1202.9189">-int maxSlotsNumber</text><line style="stroke: #A80036; stroke-width: 1.5;" x1="175.5" x2="284.5" y1="1209.3359" y2="1209.3359"/><!--MD5=[fbe13b0c274c50d99f674380efb6c2c4]
class DroneChargingSlot--><rect fill="#FEFECE" filter="url(#f11iwtsxtdva4v)" height="75.6719" id="DroneChargingSlot" style="stroke: #A80036; stroke-width: 1.5;" width="138" x="137" y="1337"/><ellipse cx="152" cy="1353" fill="#ADD1B2" rx="11" ry="11" style="stroke: #A80036; stroke-width: 1.0;"/><path d="M154,1349.5 Q154.2031,1349 154.4375,1348.75 Q154.6719,1348.5 154.9375,1348.5 Q155.4063,1348.5 155.7031,1348.7813 Q156,1349.0625 156,1349.7188 L156,1351.2813 Q156,1351.9375 155.7188,1352.2188 Q155.4375,1352.5 155,1352.5 Q154.6094,1352.5 154.3594,1352.3281 Q154.1094,1352.1563 154,1351.7031 Q153.9531,1351.3906 153.7813,1351.2188 Q153.4688,1350.8906 152.9063,1350.7031 Q152.3438,1350.5 151.7813,1350.5 Q151.0781,1350.5 150.4844,1350.7813 Q149.9063,1351.0625 149.4531,1351.6875 Q149,1352.3125 149,1353.1719 L149,1354.0938 Q149,1355.125 149.8438,1355.8125 Q150.6875,1356.5 152.1875,1356.5 Q153.0781,1356.5 153.7031,1356.2969 Q154.0625,1356.1875 154.4688,1355.8281 Q154.7344,1355.625 154.875,1355.5625 Q155.0156,1355.5 155.1875,1355.5 Q155.5156,1355.5 155.75,1355.7656 Q156,1356.0156 156,1356.375 Q156,1356.7188 155.6563,1357.125 Q155.1563,1357.7188 154.3594,1358.0469 Q153.3125,1358.5 152.0313,1358.5 Q150.5313,1358.5 149.3281,1357.9063 Q148.3594,1357.4375 147.6719,1356.4219 Q147,1355.4063 147,1354.2031 L147,1353.1094 Q147,1351.8594 147.5938,1350.7656 Q148.2031,1349.6719 149.25,1349.0938 Q150.3125,1348.5 151.5,1348.5 Q152.2188,1348.5 152.8438,1348.75 Q153.4688,1349 154,1349.5 Z "/><text fill="#000000" font-family="sans-serif" font-size="12" lengthAdjust="spacingAndGlyphs" textLength="106" x="166" y="1357.9102">DroneChargingSlot</text><line style="stroke: #A80036; stroke-width: 1.5;" x1="138" x2="274" y1="1369" y2="1369"/><text fill="#000000" font-family="sans-serif" font-size="11" lengthAdjust="spacingAndGlyphs" textLength="26" x="143" y="1384.4189">-int id</text><text fill="#000000" font-family="sans-serif" font-size="11" lengthAdjust="spacingAndGlyphs" textLength="90" x="143" y="1398.2549">-float outputPower</text><line style="stroke: #A80036; stroke-width: 1.5;" x1="138" x2="274" y1="1404.6719" y2="1404.6719"/><!--MD5=[9b53198e8727c85f4d6d8ebbe9b70e18]
class DroneParkingSlot--><rect fill="#FEFECE" filter="url(#f11iwtsxtdva4v)" height="61.8359" id="DroneParkingSlot" style="stroke: #A80036; stroke-width: 1.5;" width="129" x="310.5" y="1344"/><ellipse cx="325.5" cy="1360" fill="#ADD1B2" rx="11" ry="11" style="stroke: #A80036; stroke-width: 1.0;"/><path d="M327.5,1356.5 Q327.7031,1356 327.9375,1355.75 Q328.1719,1355.5 328.4375,1355.5 Q328.9063,1355.5 329.2031,1355.7813 Q329.5,1356.0625 329.5,1356.7188 L329.5,1358.2813 Q329.5,1358.9375 329.2188,1359.2188 Q328.9375,1359.5 328.5,1359.5 Q328.1094,1359.5 327.8594,1359.3281 Q327.6094,1359.1563 327.5,1358.7031 Q327.4531,1358.3906 327.2813,1358.2188 Q326.9688,1357.8906 326.4063,1357.7031 Q325.8438,1357.5 325.2813,1357.5 Q324.5781,1357.5 323.9844,1357.7813 Q323.4063,1358.0625 322.9531,1358.6875 Q322.5,1359.3125 322.5,1360.1719 L322.5,1361.0938 Q322.5,1362.125 323.3438,1362.8125 Q324.1875,1363.5 325.6875,1363.5 Q326.5781,1363.5 327.2031,1363.2969 Q327.5625,1363.1875 327.9688,1362.8281 Q328.2344,1362.625 328.375,1362.5625 Q328.5156,1362.5 328.6875,1362.5 Q329.0156,1362.5 329.25,1362.7656 Q329.5,1363.0156 329.5,1363.375 Q329.5,1363.7188 329.1563,1364.125 Q328.6563,1364.7188 327.8594,1365.0469 Q326.8125,1365.5 325.5313,1365.5 Q324.0313,1365.5 322.8281,1364.9063 Q321.8594,1364.4375 321.1719,1363.4219 Q320.5,1362.4063 320.5,1361.2031 L320.5,1360.1094 Q320.5,1358.8594 321.0938,1357.7656 Q321.7031,1356.6719 322.75,1356.0938 Q323.8125,1355.5 325,1355.5 Q325.7188,1355.5 326.3438,1355.75 Q326.9688,1356 327.5,1356.5 Z "/><text fill="#000000" font-family="sans-serif" font-size="12" lengthAdjust="spacingAndGlyphs" textLength="97" x="339.5" y="1364.9102">DroneParkingSlot</text><line style="stroke: #A80036; stroke-width: 1.5;" x1="311.5" x2="438.5" y1="1376" y2="1376"/><text fill="#000000" font-family="sans-serif" font-size="11" lengthAdjust="spacingAndGlyphs" textLength="26" x="316.5" y="1391.4189">-int id</text><line style="stroke: #A80036; stroke-width: 1.5;" x1="311.5" x2="438.5" y1="1397.8359" y2="1397.8359"/><!--MD5=[2e3f1e60e74253ff42e47f8bfdb04ee2]
class Drone--><rect fill="#FEFECE" filter="url(#f11iwtsxtdva4v)" height="75.6719" id="Drone" style="stroke: #A80036; stroke-width: 1.5;" width="329" x="170.5" y="568"/><ellipse cx="313.75" cy="584" fill="#ADD1B2" rx="11" ry="11" style="stroke: #A80036; stroke-width: 1.0;"/><path d="M315.75,580.5 Q315.9531,580 316.1875,579.75 Q316.4219,579.5 316.6875,579.5 Q317.1563,579.5 317.4531,579.7813 Q317.75,580.0625 317.75,580.7188 L317.75,582.2813 Q317.75,582.9375 317.4688,583.2188 Q317.1875,583.5 316.75,583.5 Q316.3594,583.5 316.1094,583.3281 Q315.8594,583.1563 315.75,582.7031 Q315.7031,582.3906 315.5313,582.2188 Q315.2188,581.8906 314.6563,581.7031 Q314.0938,581.5 313.5313,581.5 Q312.8281,581.5 312.2344,581.7813 Q311.6563,582.0625 311.2031,582.6875 Q310.75,583.3125 310.75,584.1719 L310.75,585.0938 Q310.75,586.125 311.5938,586.8125 Q312.4375,587.5 313.9375,587.5 Q314.8281,587.5 315.4531,587.2969 Q315.8125,587.1875 316.2188,586.8281 Q316.4844,586.625 316.625,586.5625 Q316.7656,586.5 316.9375,586.5 Q317.2656,586.5 317.5,586.7656 Q317.75,587.0156 317.75,587.375 Q317.75,587.7188 317.4063,588.125 Q316.9063,588.7188 316.1094,589.0469 Q315.0625,589.5 313.7813,589.5 Q312.2813,589.5 311.0781,588.9063 Q310.1094,588.4375 309.4219,587.4219 Q308.75,586.4063 308.75,585.2031 L308.75,584.1094 Q308.75,582.8594 309.3438,581.7656 Q309.9531,580.6719 311,580.0938 Q312.0625,579.5 313.25,579.5 Q313.9688,579.5 314.5938,579.75 Q315.2188,580 315.75,580.5 Z "/><text fill="#000000" font-family="sans-serif" font-size="12" lengthAdjust="spacingAndGlyphs" textLength="34" x="334.25" y="588.9102">Drone</text><line style="stroke: #A80036; stroke-width: 1.5;" x1="171.5" x2="498.5" y1="600" y2="600"/><line style="stroke: #A80036; stroke-width: 1.5;" x1="171.5" x2="498.5" y1="608" y2="608"/><text fill="#000000" font-family="sans-serif" font-size="11" lengthAdjust="spacingAndGlyphs" textLength="216" x="176.5" y="623.4189">+Drone(batteryPerc, charginStatus, potency,</text><text fill="#000000" font-family="sans-serif" font-size="11" lengthAdjust="spacingAndGlyphs" textLength="314" x="179.5" y="637.2549">weight, batteryCapacity, maxPayload, batteryVoltage, pharmacy)</text><!--MD5=[3aa0d89c6bfdcbf7f32042cedac57549]
class Vehicle--><rect fill="#FEFECE" filter="url(#f11iwtsxtdva4v)" height="131.0156" id="Vehicle" style="stroke: #A80036; stroke-width: 1.5;" width="126" x="272" y="724"/><ellipse cx="311.3" cy="740" fill="#ADD1B2" rx="11" ry="11" style="stroke: #A80036; stroke-width: 1.0;"/><path d="M313.3,736.5 Q313.5031,736 313.7375,735.75 Q313.9719,735.5 314.2375,735.5 Q314.7063,735.5 315.0031,735.7813 Q315.3,736.0625 315.3,736.7188 L315.3,738.2813 Q315.3,738.9375 315.0188,739.2188 Q314.7375,739.5 314.3,739.5 Q313.9094,739.5 313.6594,739.3281 Q313.4094,739.1563 313.3,738.7031 Q313.2531,738.3906 313.0813,738.2188 Q312.7688,737.8906 312.2063,737.7031 Q311.6438,737.5 311.0813,737.5 Q310.3781,737.5 309.7844,737.7813 Q309.2063,738.0625 308.7531,738.6875 Q308.3,739.3125 308.3,740.1719 L308.3,741.0938 Q308.3,742.125 309.1438,742.8125 Q309.9875,743.5 311.4875,743.5 Q312.3781,743.5 313.0031,743.2969 Q313.3625,743.1875 313.7688,742.8281 Q314.0344,742.625 314.175,742.5625 Q314.3156,742.5 314.4875,742.5 Q314.8156,742.5 315.05,742.7656 Q315.3,743.0156 315.3,743.375 Q315.3,743.7188 314.9563,744.125 Q314.4563,744.7188 313.6594,745.0469 Q312.6125,745.5 311.3313,745.5 Q309.8313,745.5 308.6281,744.9063 Q307.6594,744.4375 306.9719,743.4219 Q306.3,742.4063 306.3,741.2031 L306.3,740.1094 Q306.3,738.8594 306.8938,737.7656 Q307.5031,736.6719 308.55,736.0938 Q309.6125,735.5 310.8,735.5 Q311.5188,735.5 312.1438,735.75 Q312.7688,736 313.3,736.5 Z "/><text fill="#000000" font-family="sans-serif" font-size="12" lengthAdjust="spacingAndGlyphs" textLength="40" x="330.7" y="744.9102">Vehicle</text><line style="stroke: #A80036; stroke-width: 1.5;" x1="273" x2="397" y1="756" y2="756"/><text fill="#000000" font-family="sans-serif" font-size="11" lengthAdjust="spacingAndGlyphs" textLength="26" x="278" y="771.4189">-int id</text><text fill="#000000" font-family="sans-serif" font-size="11" lengthAdjust="spacingAndGlyphs" textLength="93" x="278" y="785.2549">-String vehicleType</text><text fill="#000000" font-family="sans-serif" font-size="11" lengthAdjust="spacingAndGlyphs" textLength="67" x="278" y="799.0908">-float potency</text><text fill="#000000" font-family="sans-serif" font-size="11" lengthAdjust="spacingAndGlyphs" textLength="61" x="278" y="812.9268">-float weight</text><text fill="#000000" font-family="sans-serif" font-size="11" lengthAdjust="spacingAndGlyphs" textLength="86" x="278" y="826.7627">-float maxPayload</text><text fill="#000000" font-family="sans-serif" font-size="11" lengthAdjust="spacingAndGlyphs" textLength="114" x="278" y="840.5986">-String charngingStatus</text><line style="stroke: #A80036; stroke-width: 1.5;" x1="273" x2="397" y1="847.0156" y2="847.0156"/><!--MD5=[79eb2d862cef9730b5f9dcab29e35f17]
class Battery--><rect fill="#FEFECE" filter="url(#f11iwtsxtdva4v)" height="103.3438" id="Battery" style="stroke: #A80036; stroke-width: 1.5;" width="111" x="151.5" y="933"/><ellipse cx="185.4" cy="949" fill="#ADD1B2" rx="11" ry="11" style="stroke: #A80036; stroke-width: 1.0;"/><path d="M187.4,945.5 Q187.6031,945 187.8375,944.75 Q188.0719,944.5 188.3375,944.5 Q188.8063,944.5 189.1031,944.7813 Q189.4,945.0625 189.4,945.7188 L189.4,947.2813 Q189.4,947.9375 189.1188,948.2188 Q188.8375,948.5 188.4,948.5 Q188.0094,948.5 187.7594,948.3281 Q187.5094,948.1563 187.4,947.7031 Q187.3531,947.3906 187.1813,947.2188 Q186.8688,946.8906 186.3063,946.7031 Q185.7438,946.5 185.1813,946.5 Q184.4781,946.5 183.8844,946.7813 Q183.3063,947.0625 182.8531,947.6875 Q182.4,948.3125 182.4,949.1719 L182.4,950.0938 Q182.4,951.125 183.2438,951.8125 Q184.0875,952.5 185.5875,952.5 Q186.4781,952.5 187.1031,952.2969 Q187.4625,952.1875 187.8688,951.8281 Q188.1344,951.625 188.275,951.5625 Q188.4156,951.5 188.5875,951.5 Q188.9156,951.5 189.15,951.7656 Q189.4,952.0156 189.4,952.375 Q189.4,952.7188 189.0563,953.125 Q188.5563,953.7188 187.7594,954.0469 Q186.7125,954.5 185.4313,954.5 Q183.9313,954.5 182.7281,953.9063 Q181.7594,953.4375 181.0719,952.4219 Q180.4,951.4063 180.4,950.2031 L180.4,949.1094 Q180.4,947.8594 180.9938,946.7656 Q181.6031,945.6719 182.65,945.0938 Q183.7125,944.5 184.9,944.5 Q185.6188,944.5 186.2438,944.75 Q186.8688,945 187.4,945.5 Z "/><text fill="#000000" font-family="sans-serif" font-size="12" lengthAdjust="spacingAndGlyphs" textLength="37" x="203.6" y="953.9102">Battery</text><line style="stroke: #A80036; stroke-width: 1.5;" x1="152.5" x2="261.5" y1="965" y2="965"/><text fill="#000000" font-family="sans-serif" font-size="11" lengthAdjust="spacingAndGlyphs" textLength="26" x="157.5" y="980.4189">-int id</text><text fill="#000000" font-family="sans-serif" font-size="11" lengthAdjust="spacingAndGlyphs" textLength="84" x="157.5" y="994.2549">-float batteryPerc</text><text fill="#000000" font-family="sans-serif" font-size="11" lengthAdjust="spacingAndGlyphs" textLength="94" x="157.5" y="1008.0908">-int batteryCapacity</text><text fill="#000000" font-family="sans-serif" font-size="11" lengthAdjust="spacingAndGlyphs" textLength="99" x="157.5" y="1021.9268">-float batteryVoltage</text><line style="stroke: #A80036; stroke-width: 1.5;" x1="152.5" x2="261.5" y1="1028.3438" y2="1028.3438"/><!--MD5=[0f39e4cb6f03951afbf6d14bd2505654]
class Address--><rect fill="#FEFECE" filter="url(#f11iwtsxtdva4v)" height="144.8516" id="Address" style="stroke: #A80036; stroke-width: 1.5;" width="106" x="321" y="1114"/><ellipse cx="348.6" cy="1130" fill="#ADD1B2" rx="11" ry="11" style="stroke: #A80036; stroke-width: 1.0;"/><path d="M350.6,1126.5 Q350.8031,1126 351.0375,1125.75 Q351.2719,1125.5 351.5375,1125.5 Q352.0063,1125.5 352.3031,1125.7813 Q352.6,1126.0625 352.6,1126.7188 L352.6,1128.2813 Q352.6,1128.9375 352.3188,1129.2188 Q352.0375,1129.5 351.6,1129.5 Q351.2094,1129.5 350.9594,1129.3281 Q350.7094,1129.1563 350.6,1128.7031 Q350.5531,1128.3906 350.3813,1128.2188 Q350.0688,1127.8906 349.5063,1127.7031 Q348.9438,1127.5 348.3813,1127.5 Q347.6781,1127.5 347.0844,1127.7813 Q346.5063,1128.0625 346.0531,1128.6875 Q345.6,1129.3125 345.6,1130.1719 L345.6,1131.0938 Q345.6,1132.125 346.4438,1132.8125 Q347.2875,1133.5 348.7875,1133.5 Q349.6781,1133.5 350.3031,1133.2969 Q350.6625,1133.1875 351.0688,1132.8281 Q351.3344,1132.625 351.475,1132.5625 Q351.6156,1132.5 351.7875,1132.5 Q352.1156,1132.5 352.35,1132.7656 Q352.6,1133.0156 352.6,1133.375 Q352.6,1133.7188 352.2563,1134.125 Q351.7563,1134.7188 350.9594,1135.0469 Q349.9125,1135.5 348.6313,1135.5 Q347.1313,1135.5 345.9281,1134.9063 Q344.9594,1134.4375 344.2719,1133.4219 Q343.6,1132.4063 343.6,1131.2031 L343.6,1130.1094 Q343.6,1128.8594 344.1938,1127.7656 Q344.8031,1126.6719 345.85,1126.0938 Q346.9125,1125.5 348.1,1125.5 Q348.8188,1125.5 349.4438,1125.75 Q350.0688,1126 350.6,1126.5 Z "/><text fill="#000000" font-family="sans-serif" font-size="12" lengthAdjust="spacingAndGlyphs" textLength="46" x="365.4" y="1134.9102">Address</text><line style="stroke: #A80036; stroke-width: 1.5;" x1="322" x2="426" y1="1146" y2="1146"/><text fill="#000000" font-family="sans-serif" font-size="11" lengthAdjust="spacingAndGlyphs" textLength="82" x="327" y="1161.4189">-double longitude</text><text fill="#000000" font-family="sans-serif" font-size="11" lengthAdjust="spacingAndGlyphs" textLength="73" x="327" y="1175.2549">-double latitude</text><text fill="#000000" font-family="sans-serif" font-size="11" lengthAdjust="spacingAndGlyphs" textLength="94" x="327" y="1189.0908">-String doorNumber</text><text fill="#000000" font-family="sans-serif" font-size="11" lengthAdjust="spacingAndGlyphs" textLength="90" x="327" y="1202.9268">-String streetName</text><text fill="#000000" font-family="sans-serif" font-size="11" lengthAdjust="spacingAndGlyphs" textLength="89" x="327" y="1216.7627">-String postalCode</text><text fill="#000000" font-family="sans-serif" font-size="11" lengthAdjust="spacingAndGlyphs" textLength="68" x="327" y="1230.5986">-String locality</text><text fill="#000000" font-family="sans-serif" font-size="11" lengthAdjust="spacingAndGlyphs" textLength="72" x="327" y="1244.4346">-String country</text><line style="stroke: #A80036; stroke-width: 1.5;" x1="322" x2="426" y1="1250.8516" y2="1250.8516"/><!--MD5=[7f2a9fafcebe4f099f71398fd3e2ed00]
class Pharmacy--><rect fill="#FEFECE" filter="url(#f11iwtsxtdva4v)" height="75.6719" id="Pharmacy" style="stroke: #A80036; stroke-width: 1.5;" width="87" x="297.5" y="946.5"/><ellipse cx="312.5" cy="962.5" fill="#ADD1B2" rx="11" ry="11" style="stroke: #A80036; stroke-width: 1.0;"/><path d="M314.5,959 Q314.7031,958.5 314.9375,958.25 Q315.1719,958 315.4375,958 Q315.9063,958 316.2031,958.2813 Q316.5,958.5625 316.5,959.2188 L316.5,960.7813 Q316.5,961.4375 316.2188,961.7188 Q315.9375,962 315.5,962 Q315.1094,962 314.8594,961.8281 Q314.6094,961.6563 314.5,961.2031 Q314.4531,960.8906 314.2813,960.7188 Q313.9688,960.3906 313.4063,960.2031 Q312.8438,960 312.2813,960 Q311.5781,960 310.9844,960.2813 Q310.4063,960.5625 309.9531,961.1875 Q309.5,961.8125 309.5,962.6719 L309.5,963.5938 Q309.5,964.625 310.3438,965.3125 Q311.1875,966 312.6875,966 Q313.5781,966 314.2031,965.7969 Q314.5625,965.6875 314.9688,965.3281 Q315.2344,965.125 315.375,965.0625 Q315.5156,965 315.6875,965 Q316.0156,965 316.25,965.2656 Q316.5,965.5156 316.5,965.875 Q316.5,966.2188 316.1563,966.625 Q315.6563,967.2188 314.8594,967.5469 Q313.8125,968 312.5313,968 Q311.0313,968 309.8281,967.4063 Q308.8594,966.9375 308.1719,965.9219 Q307.5,964.9063 307.5,963.7031 L307.5,962.6094 Q307.5,961.3594 308.0938,960.2656 Q308.7031,959.1719 309.75,958.5938 Q310.8125,958 312,958 Q312.7188,958 313.3438,958.25 Q313.9688,958.5 314.5,959 Z "/><text fill="#000000" font-family="sans-serif" font-size="12" lengthAdjust="spacingAndGlyphs" textLength="55" x="326.5" y="967.4102">Pharmacy</text><line style="stroke: #A80036; stroke-width: 1.5;" x1="298.5" x2="383.5" y1="978.5" y2="978.5"/><text fill="#000000" font-family="sans-serif" font-size="11" lengthAdjust="spacingAndGlyphs" textLength="26" x="303.5" y="993.9189">-int id</text><text fill="#000000" font-family="sans-serif" font-size="11" lengthAdjust="spacingAndGlyphs" textLength="61" x="303.5" y="1007.7549">-String name</text><line style="stroke: #A80036; stroke-width: 1.5;" x1="298.5" x2="383.5" y1="1014.1719" y2="1014.1719"/><!--MD5=[28160fdc0be430cd6f04db15a7547552]
class PharmacyService--><rect fill="#FEFECE" filter="url(#f11iwtsxtdva4v)" height="75.6719" id="PharmacyService" style="stroke: #A80036; stroke-width: 1.5;" width="127" x="157.5" y="412"/><ellipse cx="172.5" cy="428" fill="#ADD1B2" rx="11" ry="11" style="stroke: #A80036; stroke-width: 1.0;"/><path d="M174.5,424.5 Q174.7031,424 174.9375,423.75 Q175.1719,423.5 175.4375,423.5 Q175.9063,423.5 176.2031,423.7813 Q176.5,424.0625 176.5,424.7188 L176.5,426.2813 Q176.5,426.9375 176.2188,427.2188 Q175.9375,427.5 175.5,427.5 Q175.1094,427.5 174.8594,427.3281 Q174.6094,427.1563 174.5,426.7031 Q174.4531,426.3906 174.2813,426.2188 Q173.9688,425.8906 173.4063,425.7031 Q172.8438,425.5 172.2813,425.5 Q171.5781,425.5 170.9844,425.7813 Q170.4063,426.0625 169.9531,426.6875 Q169.5,427.3125 169.5,428.1719 L169.5,429.0938 Q169.5,430.125 170.3438,430.8125 Q171.1875,431.5 172.6875,431.5 Q173.5781,431.5 174.2031,431.2969 Q174.5625,431.1875 174.9688,430.8281 Q175.2344,430.625 175.375,430.5625 Q175.5156,430.5 175.6875,430.5 Q176.0156,430.5 176.25,430.7656 Q176.5,431.0156 176.5,431.375 Q176.5,431.7188 176.1563,432.125 Q175.6563,432.7188 174.8594,433.0469 Q173.8125,433.5 172.5313,433.5 Q171.0313,433.5 169.8281,432.9063 Q168.8594,432.4375 168.1719,431.4219 Q167.5,430.4063 167.5,429.2031 L167.5,428.1094 Q167.5,426.8594 168.0938,425.7656 Q168.7031,424.6719 169.75,424.0938 Q170.8125,423.5 172,423.5 Q172.7188,423.5 173.3438,423.75 Q173.9688,424 174.5,424.5 Z "/><text fill="#000000" font-family="sans-serif" font-size="12" lengthAdjust="spacingAndGlyphs" textLength="95" x="186.5" y="432.9102">PharmacyService</text><line style="stroke: #A80036; stroke-width: 1.5;" x1="158.5" x2="283.5" y1="444" y2="444"/><line style="stroke: #A80036; stroke-width: 1.5;" x1="158.5" x2="283.5" y1="452" y2="452"/><text fill="#000000" font-family="sans-serif" font-size="11" lengthAdjust="spacingAndGlyphs" textLength="99" x="163.5" y="467.4189">+PharmacyService()</text><text fill="#000000" font-family="sans-serif" font-size="11" lengthAdjust="spacingAndGlyphs" textLength="85" x="163.5" y="481.2549">+getPharmacies()</text><!--MD5=[f0386d752ae2001320683395ba6b7079]
class DroneService--><rect fill="#FEFECE" filter="url(#f11iwtsxtdva4v)" height="75.6719" id="DroneService" style="stroke: #A80036; stroke-width: 1.5;" width="120" x="320" y="412"/><ellipse cx="341.3" cy="428" fill="#ADD1B2" rx="11" ry="11" style="stroke: #A80036; stroke-width: 1.0;"/><path d="M343.3,424.5 Q343.5031,424 343.7375,423.75 Q343.9719,423.5 344.2375,423.5 Q344.7063,423.5 345.0031,423.7813 Q345.3,424.0625 345.3,424.7188 L345.3,426.2813 Q345.3,426.9375 345.0188,427.2188 Q344.7375,427.5 344.3,427.5 Q343.9094,427.5 343.6594,427.3281 Q343.4094,427.1563 343.3,426.7031 Q343.2531,426.3906 343.0813,426.2188 Q342.7688,425.8906 342.2063,425.7031 Q341.6438,425.5 341.0813,425.5 Q340.3781,425.5 339.7844,425.7813 Q339.2063,426.0625 338.7531,426.6875 Q338.3,427.3125 338.3,428.1719 L338.3,429.0938 Q338.3,430.125 339.1438,430.8125 Q339.9875,431.5 341.4875,431.5 Q342.3781,431.5 343.0031,431.2969 Q343.3625,431.1875 343.7688,430.8281 Q344.0344,430.625 344.175,430.5625 Q344.3156,430.5 344.4875,430.5 Q344.8156,430.5 345.05,430.7656 Q345.3,431.0156 345.3,431.375 Q345.3,431.7188 344.9563,432.125 Q344.4563,432.7188 343.6594,433.0469 Q342.6125,433.5 341.3313,433.5 Q339.8313,433.5 338.6281,432.9063 Q337.6594,432.4375 336.9719,431.4219 Q336.3,430.4063 336.3,429.2031 L336.3,428.1094 Q336.3,426.8594 336.8938,425.7656 Q337.5031,424.6719 338.55,424.0938 Q339.6125,423.5 340.8,423.5 Q341.5188,423.5 342.1438,423.75 Q342.7688,424 343.3,424.5 Z "/><text fill="#000000" font-family="sans-serif" font-size="12" lengthAdjust="spacingAndGlyphs" textLength="74" x="356.7" y="432.9102">DroneService</text><line style="stroke: #A80036; stroke-width: 1.5;" x1="321" x2="439" y1="444" y2="444"/><line style="stroke: #A80036; stroke-width: 1.5;" x1="321" x2="439" y1="452" y2="452"/><text fill="#000000" font-family="sans-serif" font-size="11" lengthAdjust="spacingAndGlyphs" textLength="80" x="326" y="467.4189">+DroneService()</text><text fill="#000000" font-family="sans-serif" font-size="11" lengthAdjust="spacingAndGlyphs" textLength="108" x="326" y="481.2549">+registerDrone(drone)</text><!--MD5=[4b2d61224b33971326a22fe5d809d926]
class DataHandler--><rect fill="#FEFECE" filter="url(#f11iwtsxtdva4v)" height="75.6719" id="DataHandler" style="stroke: #A80036; stroke-width: 1.5;" width="104" x="815" y="412"/><ellipse cx="830.9" cy="428" fill="#ADD1B2" rx="11" ry="11" style="stroke: #A80036; stroke-width: 1.0;"/><path d="M832.9,424.5 Q833.1031,424 833.3375,423.75 Q833.5719,423.5 833.8375,423.5 Q834.3063,423.5 834.6031,423.7813 Q834.9,424.0625 834.9,424.7188 L834.9,426.2813 Q834.9,426.9375 834.6188,427.2188 Q834.3375,427.5 833.9,427.5 Q833.5094,427.5 833.2594,427.3281 Q833.0094,427.1563 832.9,426.7031 Q832.8531,426.3906 832.6813,426.2188 Q832.3688,425.8906 831.8063,425.7031 Q831.2438,425.5 830.6813,425.5 Q829.9781,425.5 829.3844,425.7813 Q828.8063,426.0625 828.3531,426.6875 Q827.9,427.3125 827.9,428.1719 L827.9,429.0938 Q827.9,430.125 828.7438,430.8125 Q829.5875,431.5 831.0875,431.5 Q831.9781,431.5 832.6031,431.2969 Q832.9625,431.1875 833.3688,430.8281 Q833.6344,430.625 833.775,430.5625 Q833.9156,430.5 834.0875,430.5 Q834.4156,430.5 834.65,430.7656 Q834.9,431.0156 834.9,431.375 Q834.9,431.7188 834.5563,432.125 Q834.0563,432.7188 833.2594,433.0469 Q832.2125,433.5 830.9313,433.5 Q829.4313,433.5 828.2281,432.9063 Q827.2594,432.4375 826.5719,431.4219 Q825.9,430.4063 825.9,429.2031 L825.9,428.1094 Q825.9,426.8594 826.4938,425.7656 Q827.1031,424.6719 828.15,424.0938 Q829.2125,423.5 830.4,423.5 Q831.1188,423.5 831.7438,423.75 Q832.3688,424 832.9,424.5 Z "/><text fill="#000000" font-family="sans-serif" font-size="12" lengthAdjust="spacingAndGlyphs" textLength="70" x="845.1" y="432.9102">DataHandler</text><line style="stroke: #A80036; stroke-width: 1.5;" x1="816" x2="918" y1="444" y2="444"/><line style="stroke: #A80036; stroke-width: 1.5;" x1="816" x2="918" y1="452" y2="452"/><text fill="#000000" font-family="sans-serif" font-size="11" lengthAdjust="spacingAndGlyphs" textLength="92" x="821" y="467.4189">+openConnection()</text><text fill="#000000" font-family="sans-serif" font-size="11" lengthAdjust="spacingAndGlyphs" textLength="52" x="821" y="481.2549">+closeAll()</text><!--MD5=[b860ecc58d0ca70e482845cb1f7b4615]
class PharmacyDB--><rect fill="#FEFECE" filter="url(#f11iwtsxtdva4v)" height="75.6719" id="PharmacyDB" style="stroke: #A80036; stroke-width: 1.5;" width="104" x="824" y="568"/><ellipse cx="839" cy="584" fill="#ADD1B2" rx="11" ry="11" style="stroke: #A80036; stroke-width: 1.0;"/><path d="M841,580.5 Q841.2031,580 841.4375,579.75 Q841.6719,579.5 841.9375,579.5 Q842.4063,579.5 842.7031,579.7813 Q843,580.0625 843,580.7188 L843,582.2813 Q843,582.9375 842.7188,583.2188 Q842.4375,583.5 842,583.5 Q841.6094,583.5 841.3594,583.3281 Q841.1094,583.1563 841,582.7031 Q840.9531,582.3906 840.7813,582.2188 Q840.4688,581.8906 839.9063,581.7031 Q839.3438,581.5 838.7813,581.5 Q838.0781,581.5 837.4844,581.7813 Q836.9063,582.0625 836.4531,582.6875 Q836,583.3125 836,584.1719 L836,585.0938 Q836,586.125 836.8438,586.8125 Q837.6875,587.5 839.1875,587.5 Q840.0781,587.5 840.7031,587.2969 Q841.0625,587.1875 841.4688,586.8281 Q841.7344,586.625 841.875,586.5625 Q842.0156,586.5 842.1875,586.5 Q842.5156,586.5 842.75,586.7656 Q843,587.0156 843,587.375 Q843,587.7188 842.6563,588.125 Q842.1563,588.7188 841.3594,589.0469 Q840.3125,589.5 839.0313,589.5 Q837.5313,589.5 836.3281,588.9063 Q835.3594,588.4375 834.6719,587.4219 Q834,586.4063 834,585.2031 L834,584.1094 Q834,582.8594 834.5938,581.7656 Q835.2031,580.6719 836.25,580.0938 Q837.3125,579.5 838.5,579.5 Q839.2188,579.5 839.8438,579.75 Q840.4688,580 841,580.5 Z "/><text fill="#000000" font-family="sans-serif" font-size="12" lengthAdjust="spacingAndGlyphs" textLength="72" x="853" y="588.9102">PharmacyDB</text><line style="stroke: #A80036; stroke-width: 1.5;" x1="825" x2="927" y1="600" y2="600"/><line style="stroke: #A80036; stroke-width: 1.5;" x1="825" x2="927" y1="608" y2="608"/><text fill="#000000" font-family="sans-serif" font-size="11" lengthAdjust="spacingAndGlyphs" textLength="76" x="830" y="623.4189">+PharmacyDB()</text><text fill="#000000" font-family="sans-serif" font-size="11" lengthAdjust="spacingAndGlyphs" textLength="85" x="830" y="637.2549">+getPharmacies()</text><!--MD5=[e5e4874ffcb9901dc5acd0f1e94e7c33]
class DroneDB--><rect fill="#FEFECE" filter="url(#f11iwtsxtdva4v)" height="75.6719" id="DroneDB" style="stroke: #A80036; stroke-width: 1.5;" width="120" x="669" y="568"/><ellipse cx="700.65" cy="584" fill="#ADD1B2" rx="11" ry="11" style="stroke: #A80036; stroke-width: 1.0;"/><path d="M702.65,580.5 Q702.8531,580 703.0875,579.75 Q703.3219,579.5 703.5875,579.5 Q704.0563,579.5 704.3531,579.7813 Q704.65,580.0625 704.65,580.7188 L704.65,582.2813 Q704.65,582.9375 704.3688,583.2188 Q704.0875,583.5 703.65,583.5 Q703.2594,583.5 703.0094,583.3281 Q702.7594,583.1563 702.65,582.7031 Q702.6031,582.3906 702.4313,582.2188 Q702.1188,581.8906 701.5563,581.7031 Q700.9938,581.5 700.4313,581.5 Q699.7281,581.5 699.1344,581.7813 Q698.5563,582.0625 698.1031,582.6875 Q697.65,583.3125 697.65,584.1719 L697.65,585.0938 Q697.65,586.125 698.4938,586.8125 Q699.3375,587.5 700.8375,587.5 Q701.7281,587.5 702.3531,587.2969 Q702.7125,587.1875 703.1188,586.8281 Q703.3844,586.625 703.525,586.5625 Q703.6656,586.5 703.8375,586.5 Q704.1656,586.5 704.4,586.7656 Q704.65,587.0156 704.65,587.375 Q704.65,587.7188 704.3063,588.125 Q703.8063,588.7188 703.0094,589.0469 Q701.9625,589.5 700.6813,589.5 Q699.1813,589.5 697.9781,588.9063 Q697.0094,588.4375 696.3219,587.4219 Q695.65,586.4063 695.65,585.2031 L695.65,584.1094 Q695.65,582.8594 696.2438,581.7656 Q696.8531,580.6719 697.9,580.0938 Q698.9625,579.5 700.15,579.5 Q700.8688,579.5 701.4938,579.75 Q702.1188,580 702.65,580.5 Z "/><text fill="#000000" font-family="sans-serif" font-size="12" lengthAdjust="spacingAndGlyphs" textLength="51" x="718.35" y="588.9102">DroneDB</text><line style="stroke: #A80036; stroke-width: 1.5;" x1="670" x2="788" y1="600" y2="600"/><line style="stroke: #A80036; stroke-width: 1.5;" x1="670" x2="788" y1="608" y2="608"/><text fill="#000000" font-family="sans-serif" font-size="11" lengthAdjust="spacingAndGlyphs" textLength="57" x="675" y="623.4189">+DroneDB()</text><text fill="#000000" font-family="sans-serif" font-size="11" lengthAdjust="spacingAndGlyphs" textLength="108" x="675" y="637.2549">+registerDrone(drone)</text><!--MD5=[f40d64c3825bdc96a4efd5b7e3ff1420]
reverse link DataHandler to PharmacyDB--><path d="M870.357,508.435 C871.517,528.288 872.786,549.999 873.826,567.798 " fill="none" id="DataHandler&lt;-PharmacyDB" style="stroke: #A80036; stroke-width: 1.0;"/><polygon fill="none" points="863.358,508.653,869.179,488.279,877.334,507.837,863.358,508.653" style="stroke: #A80036; stroke-width: 1.0;"/><!--MD5=[18feea515641fb3f6597b6a3b4d6a380]
reverse link DataHandler to DroneDB--><path d="M869.831,508.343 C868.174,518.863 864.891,529.264 859,538 C856.658,541.473 822.168,559.178 789.305,575.515 " fill="none" id="DataHandler&lt;-DroneDB" style="stroke: #A80036; stroke-width: 1.0;"/><polygon fill="none" points="862.85,507.82,871.27,488.375,876.814,508.827,862.85,507.82" style="stroke: #A80036; stroke-width: 1.0;"/><!--MD5=[bc0b3096c7aa5bff2ed42868e0b826ca]
link RegisterDroneUI to RegisterDroneController--><path d="M286,108.09 C286,129.11 286,160.85 286,187.58 " fill="none" id="RegisterDroneUI-&gt;RegisterDroneController" style="stroke: #A80036; stroke-width: 1.0; stroke-dasharray: 7.0,7.0;"/><polygon fill="#A80036" points="286,192.85,290,183.85,286,187.85,282,183.85,286,192.85" style="stroke: #A80036; stroke-width: 1.0;"/><!--MD5=[41c0da9b77ec484983d59968149e9773]
link RegisterDroneController to PharmacyService--><path d="M272.374,283.02 C261.126,319.36 245.263,370.61 234.149,406.52 " fill="none" id="RegisterDroneController-&gt;PharmacyService" style="stroke: #A80036; stroke-width: 1.0; stroke-dasharray: 7.0,7.0;"/><polygon fill="#A80036" points="232.544,411.7,239.0161,404.2762,234.0158,406.9215,231.3705,401.9213,232.544,411.7" style="stroke: #A80036; stroke-width: 1.0;"/><!--MD5=[9f539eda316dc5b78e96ddf8ff397f5c]
link RegisterDroneController to DroneService--><path d="M305.705,283.02 C322.038,319.51 345.1,371.03 361.182,406.96 " fill="none" id="RegisterDroneController-&gt;DroneService" style="stroke: #A80036; stroke-width: 1.0; stroke-dasharray: 7.0,7.0;"/><polygon fill="#A80036" points="363.305,411.7,363.2793,401.8512,361.2624,407.1363,355.9773,405.1194,363.305,411.7" style="stroke: #A80036; stroke-width: 1.0;"/><!--MD5=[04ba2cb7f5803b19c0d0e740f2a895e0]
link Database to PharmacyDB--><path d="M610.861,473.8 C621.007,487.33 635.717,503.462 653,512 C685.433,528.023 699.649,508.658 734,520 C765.078,530.262 796.614,548.22 822.047,564.995 " fill="none" id="Database-&gt;PharmacyDB" style="stroke: #A80036; stroke-width: 1.0;"/><polygon fill="#A80036" points="826.398,567.892,821.1231,559.5748,822.236,565.1211,816.6897,566.2341,826.398,567.892" style="stroke: #A80036; stroke-width: 1.0;"/><text fill="#000000" font-family="sans-serif" font-size="13" lengthAdjust="spacingAndGlyphs" textLength="53" x="777" y="534.4951">manages</text><text fill="#000000" font-family="sans-serif" font-size="13" lengthAdjust="spacingAndGlyphs" textLength="7" x="606.4882" y="494.7347">1</text><text fill="#000000" font-family="sans-serif" font-size="13" lengthAdjust="spacingAndGlyphs" textLength="7" x="809.9392" y="557.2347">1</text><!--MD5=[3bc0a5f81cd94df0c3ef53dec7c84f6e]
link Database to DroneDB--><path d="M615.625,473.723 C636.094,497.425 668.619,535.086 693.594,564.003 " fill="none" id="Database-&gt;DroneDB" style="stroke: #A80036; stroke-width: 1.0;"/><polygon fill="#A80036" points="696.91,567.844,694.0563,558.4176,693.6425,564.0593,688.0008,563.6456,696.91,567.844" style="stroke: #A80036; stroke-width: 1.0;"/><text fill="#000000" font-family="sans-serif" font-size="13" lengthAdjust="spacingAndGlyphs" textLength="53" x="672" y="534.4951">manages</text><text fill="#000000" font-family="sans-serif" font-size="13" lengthAdjust="spacingAndGlyphs" textLength="7" x="620.9727" y="494.6399">1</text><text fill="#000000" font-family="sans-serif" font-size="13" lengthAdjust="spacingAndGlyphs" textLength="7" x="683.5705" y="557.1781">1</text><!--MD5=[319fcd49d9a70ab1205ee2f78c6af69e]
link DroneService to PharmacyDB--><path d="M381.668,488.088 C384.518,505.951 391.14,526.041 406,538 C475.444,593.885 720.347,543.319 806,568 C810.365,569.258 814.77,570.807 819.131,572.553 " fill="none" id="DroneService-&gt;PharmacyDB" style="stroke: #A80036; stroke-width: 1.0;"/><polygon fill="#A80036" points="823.842,574.518,817.0769,567.3603,819.2277,572.5923,813.9957,574.7431,823.842,574.518" style="stroke: #A80036; stroke-width: 1.0;"/><text fill="#000000" font-family="sans-serif" font-size="13" lengthAdjust="spacingAndGlyphs" textLength="28" x="407" y="534.4951">uses</text><text fill="#000000" font-family="sans-serif" font-size="13" lengthAdjust="spacingAndGlyphs" textLength="7" x="374.3646" y="509.2727">1</text><text fill="#000000" font-family="sans-serif" font-size="13" lengthAdjust="spacingAndGlyphs" textLength="5" x="811.1557" y="584.7588">*</text><!--MD5=[4aef795f878f9415740bac6fb901c4c8]
link DroneService to DroneDB--><path d="M353.823,488.415 C345.585,505.085 341.322,524.057 353,538 C354.251,539.493 556.477,574.933 663.797,593.65 " fill="none" id="DroneService-&gt;DroneDB" style="stroke: #A80036; stroke-width: 1.0;"/><polygon fill="#A80036" points="668.835,594.529,660.6555,589.043,663.9093,593.6704,659.2818,596.9242,668.835,594.529" style="stroke: #A80036; stroke-width: 1.0;"/><text fill="#000000" font-family="sans-serif" font-size="13" lengthAdjust="spacingAndGlyphs" textLength="28" x="354" y="534.4951">uses</text><text fill="#000000" font-family="sans-serif" font-size="13" lengthAdjust="spacingAndGlyphs" textLength="7" x="342.2787" y="509.0695">1</text><text fill="#000000" font-family="sans-serif" font-size="13" lengthAdjust="spacingAndGlyphs" textLength="5" x="655.806" y="589.5729">*</text><!--MD5=[2ed2b43e7f6d114538396b0b10b28567]
link PharmacyService to Pharmacy--><path d="M192.516,488.239 C177.56,510.171 160.764,539.19 153,568 C141.435,610.913 143.886,624.5 153,668 C176.386,779.612 190.408,809.716 256,903 C266.579,918.045 280.3,932.512 293.619,944.931 " fill="none" id="PharmacyService-&gt;Pharmacy" style="stroke: #A80036; stroke-width: 1.0;"/><polygon fill="#A80036" points="297.363,948.377,293.4516,939.3381,293.6848,944.9902,288.0327,945.2233,297.363,948.377" style="stroke: #A80036; stroke-width: 1.0;"/><text fill="#000000" font-family="sans-serif" font-size="13" lengthAdjust="spacingAndGlyphs" textLength="111" x="160" y="690.4951">manage services of</text><text fill="#000000" font-family="sans-serif" font-size="13" lengthAdjust="spacingAndGlyphs" textLength="7" x="180.4185" y="509.1576">1</text><text fill="#000000" font-family="sans-serif" font-size="13" lengthAdjust="spacingAndGlyphs" textLength="5" x="284.4332" y="938.3469">*</text><!--MD5=[e3cc844120729527281d37c09bce0e7b]
link DroneService to Drone--><path d="M341.53,488.246 C329.722,497.594 316.099,506.516 302,512 C280.81,520.243 215.436,503.306 200,520 C184.005,537.299 193.546,552.486 213.419,565.056 " fill="none" id="DroneService-&gt;Drone" style="stroke: #A80036; stroke-width: 1.0;"/><polygon fill="#A80036" points="218.099,567.863,212.4372,559.8042,213.8108,565.2918,208.3232,566.6654,218.099,567.863" style="stroke: #A80036; stroke-width: 1.0;"/><text fill="#000000" font-family="sans-serif" font-size="13" lengthAdjust="spacingAndGlyphs" textLength="111" x="201" y="534.4951">manage services of</text><text fill="#000000" font-family="sans-serif" font-size="13" lengthAdjust="spacingAndGlyphs" textLength="7" x="327.841" y="509.1657">1</text><text fill="#000000" font-family="sans-serif" font-size="13" lengthAdjust="spacingAndGlyphs" textLength="5" x="191.8307" y="557.2005">*</text><!--MD5=[51d7b9a785c9fb041ca400474ed1d998]
link Database to Pharmacy--><path d="M596.321,473.526 C596.067,491.304 594.574,516.59 589,538 C544.053,710.641 524.021,756.656 422,903 C411.229,918.451 397.297,933.52 384.034,946.363 " fill="none" id="Database-Pharmacy" style="stroke: #A80036; stroke-width: 1.0;"/><text fill="#000000" font-family="sans-serif" font-size="13" lengthAdjust="spacingAndGlyphs" textLength="82" x="549" y="690.4951">has registered</text><polygon fill="#000000" points="585.5,699.3516,588.5,705.3516,591.5,699.3516,585.5,699.3516" style="stroke: #000000; stroke-width: 1.0;"/><text fill="#000000" font-family="sans-serif" font-size="13" lengthAdjust="spacingAndGlyphs" textLength="7" x="588.5461" y="494.796">1</text><text fill="#000000" font-family="sans-serif" font-size="13" lengthAdjust="spacingAndGlyphs" textLength="5" x="386.2541" y="935.7005">*</text><!--MD5=[96117966725c1e8921b92ed7b1677b7b]
link Database to Drone--><path d="M561.205,473.548 C533.292,491.449 492.97,516.889 457,538 C440.015,547.968 421.48,558.38 404.103,567.943 " fill="none" id="Database-Drone" style="stroke: #A80036; stroke-width: 1.0;"/><polygon fill="#000000" points="492,527.6758,486,530.6758,492,533.6758,492,527.6758" style="stroke: #000000; stroke-width: 1.0;"/><text fill="#000000" font-family="sans-serif" font-size="13" lengthAdjust="spacingAndGlyphs" textLength="82" x="498" y="534.4951">has registered</text><text fill="#000000" font-family="sans-serif" font-size="13" lengthAdjust="spacingAndGlyphs" textLength="7" x="545.3493" y="494.4244">1</text><text fill="#000000" font-family="sans-serif" font-size="13" lengthAdjust="spacingAndGlyphs" textLength="5" x="411.3829" y="557.009">*</text><!--MD5=[074a56c4439d52c76e1cc7a8f9d070a4]
link Vehicle to Battery--><path d="M292.2,855.035 C275.412,880.348 256.429,908.97 240.65,932.762 " fill="none" id="Vehicle-Battery" style="stroke: #A80036; stroke-width: 1.0;"/><text fill="#000000" font-family="sans-serif" font-size="13" lengthAdjust="spacingAndGlyphs" textLength="21" x="272" y="899.4951">has</text><polygon fill="#000000" points="278,908.3516,281,914.3516,284,908.3516,278,908.3516" style="stroke: #000000; stroke-width: 1.0;"/><text fill="#000000" font-family="sans-serif" font-size="13" lengthAdjust="spacingAndGlyphs" textLength="7" x="280.1359" y="876.5914">1</text><text fill="#000000" font-family="sans-serif" font-size="13" lengthAdjust="spacingAndGlyphs" textLength="7" x="237.7014" y="922.2303">1</text><!--MD5=[3f58d672939e81cd871f2f51e09decba]
link Drone to Vehicle--><path d="M335,644.167 C335,667.087 335,697.112 335,723.838 " fill="none" id="Drone-Vehicle" style="stroke: #A80036; stroke-width: 1.0;"/><text fill="#000000" font-family="sans-serif" font-size="13" lengthAdjust="spacingAndGlyphs" textLength="64" x="336" y="690.4951">is a type of</text><polygon fill="#000000" points="363.5,699.3516,366.5,705.3516,369.5,699.3516,363.5,699.3516" style="stroke: #000000; stroke-width: 1.0;"/><text fill="#000000" font-family="sans-serif" font-size="13" lengthAdjust="spacingAndGlyphs" textLength="5" x="329.6016" y="665.0741">*</text><text fill="#000000" font-family="sans-serif" font-size="13" lengthAdjust="spacingAndGlyphs" textLength="7" x="327.6172" y="713.2947">1</text><!--MD5=[9793812679a856b96e8ba34e2675abcc]
link Vehicle to Pharmacy--><path d="M337.006,855.035 C337.95,885.389 339.041,920.501 339.845,946.337 " fill="none" id="Vehicle-Pharmacy" style="stroke: #A80036; stroke-width: 1.0;"/><text fill="#000000" font-family="sans-serif" font-size="13" lengthAdjust="spacingAndGlyphs" textLength="60" x="340" y="899.4951">belongs to</text><polygon fill="#000000" points="365.5,908.3516,368.5,914.3516,371.5,908.3516,365.5,908.3516" style="stroke: #000000; stroke-width: 1.0;"/><text fill="#000000" font-family="sans-serif" font-size="13" lengthAdjust="spacingAndGlyphs" textLength="5" x="331.952" y="876.5914">*</text><text fill="#000000" font-family="sans-serif" font-size="13" lengthAdjust="spacingAndGlyphs" textLength="7" x="332.0158" y="935.6699">1</text><!--MD5=[89baec1bfb4a213750f7c61516e0a0f1]
link Pharmacy to Address--><path d="M347.13,1022.65 C351.342,1048.18 357.071,1082.902 362.157,1113.726 " fill="none" id="Pharmacy-Address" style="stroke: #A80036; stroke-width: 1.0;"/><text fill="#000000" font-family="sans-serif" font-size="13" lengthAdjust="spacingAndGlyphs" textLength="21" x="358" y="1080.4951">has</text><polygon fill="#000000" points="364,1089.3516,367,1095.3516,370,1089.3516,364,1089.3516" style="stroke: #000000; stroke-width: 1.0;"/><text fill="#000000" font-family="sans-serif" font-size="13" lengthAdjust="spacingAndGlyphs" textLength="7" x="340.5492" y="1043.5544">1</text><text fill="#000000" font-family="sans-serif" font-size="13" lengthAdjust="spacingAndGlyphs" textLength="7" x="353.5748" y="1102.9171">1</text><!--MD5=[38e089e476d423925ff503e653533f7d]
link Pharmacy to DronePark--><path d="M320.382,1022.65 C299.128,1060.945 266.396,1119.921 246.704,1155.403 " fill="none" id="Pharmacy-DronePark" style="stroke: #A80036; stroke-width: 1.0;"/><text fill="#000000" font-family="sans-serif" font-size="13" lengthAdjust="spacingAndGlyphs" textLength="21" x="297" y="1080.4951">has</text><polygon fill="#000000" points="303,1089.3516,306,1095.3516,309,1089.3516,303,1089.3516" style="stroke: #000000; stroke-width: 1.0;"/><text fill="#000000" font-family="sans-serif" font-size="13" lengthAdjust="spacingAndGlyphs" textLength="7" x="309.5382" y="1043.5544">1</text><text fill="#000000" font-family="sans-serif" font-size="13" lengthAdjust="spacingAndGlyphs" textLength="7" x="242.5924" y="1144.402">1</text><!--MD5=[7536b4ac16cca54a78c22aa555a9c2ab]
link DronePark to DroneChargingSlot--><path d="M226.091,1217.88 C221.907,1250.393 215.266,1301.993 210.776,1336.888 " fill="none" id="DronePark-DroneChargingSlot" style="stroke: #A80036; stroke-width: 1.0;"/><text fill="#000000" font-family="sans-serif" font-size="13" lengthAdjust="spacingAndGlyphs" textLength="21" x="218" y="1303.4951">has</text><polygon fill="#000000" points="224,1312.3516,227,1318.3516,230,1312.3516,224,1312.3516" style="stroke: #000000; stroke-width: 1.0;"/><text fill="#000000" font-family="sans-serif" font-size="13" lengthAdjust="spacingAndGlyphs" textLength="7" x="217.6787" y="1238.9311">1</text><text fill="#000000" font-family="sans-serif" font-size="13" lengthAdjust="spacingAndGlyphs" textLength="7" x="204.0033" y="1326.23">1</text><!--MD5=[90d11682e395649ab5adc896502c3617]
link DronePark to DroneParkingSlot--><path d="M253.619,1217.88 C280.663,1252.664 324.692,1309.294 351.631,1343.943 " fill="none" id="DronePark-DroneParkingSlot" style="stroke: #A80036; stroke-width: 1.0;"/><text fill="#000000" font-family="sans-serif" font-size="13" lengthAdjust="spacingAndGlyphs" textLength="21" x="321" y="1303.4951">has</text><polygon fill="#000000" points="327,1312.3516,330,1318.3516,333,1312.3516,327,1312.3516" style="stroke: #000000; stroke-width: 1.0;"/><text fill="#000000" font-family="sans-serif" font-size="13" lengthAdjust="spacingAndGlyphs" textLength="7" x="250.4542" y="1238.9311">1</text><text fill="#000000" font-family="sans-serif" font-size="13" lengthAdjust="spacingAndGlyphs" textLength="7" x="338.7534" y="1332.9508">1</text><!--MD5=[0fe2b639e78fe0ddf57e8a717f56cd78]
@startuml
skinparam classAttributeIconSize 0

database Database {
}

package "UI" #DDDDDD {
class RegisterDroneUI{
}
}

package "Controller" #DDDDDD {
class RegisterDroneController{
+getPharmacies()
+newDrone(batteryPerc, chargingStatus, potency, weight, batteryCapacity, maxPayload, pharmacy)
+registerDrone(drone)
}
}


package "Model" #DDDDDD {
 package "Service" #DDDDDD {
  class PharmacyService{
      +PharmacyService()
      +getPharmacies()
  }

  class DroneService{
      +DroneService()
      +registerDrone(drone)
   }
}

package "Model" #DDDDDD {
class DronePark{
-   int maxSlotsNumber
}

class DroneChargingSlot{
-   int id
-   float outputPower
}

class DroneParkingSlot{
-   int id
}

class Drone{
  +Drone(batteryPerc, charginStatus, potency,\n weight, batteryCapacity, maxPayload, batteryVoltage, pharmacy)
}

class Vehicle{
  -int id
  -String vehicleType
  -float potency
  -float weight
  -float maxPayload
  -String charngingStatus
}

class Battery{
  -int id
  -float batteryPerc
  -int batteryCapacity
  -float batteryVoltage
}

class Address{
  -double longitude
  -double latitude
  -String doorNumber
  -String streetName
  -String postalCode
  -String locality
  -String country
}

class Pharmacy {
  -int id
  -String name
}
}


package "Data" #DDDDDD {
class DataHandler{
    +openConnection()
    +closeAll()
}
class PharmacyDB{
     +PharmacyDB()
     +getPharmacies()
 }

 class DroneDB{
     +DroneDB()
     +registerDrone(drone)
  }
}

class PharmacyDB extends DataHandler
class DroneDB extends DataHandler

RegisterDroneUI ..> RegisterDroneController
RegisterDroneController ..> PharmacyService
RegisterDroneController ..> DroneService
Database "1" - -> "1" PharmacyDB : manages
Database "1" - -> "1" DroneDB : manages
DroneService "1" - -> "*" PharmacyDB : uses
DroneService "1" - -> "*" DroneDB : uses
PharmacyService "1" - -> "*" Pharmacy : manage services of
DroneService "1" - -> "*" Drone : manage services of

Database "1" - - "*" Pharmacy : has registered >
Database "1" - - "*" Drone : has registered >

Vehicle "1" - - "1" Battery : has >
Drone "*" - - "1" Vehicle : is a type of >
Vehicle "*" - - "1" Pharmacy : belongs to >
Pharmacy "1" - - "1" Address : has >
Pharmacy "1" - - "1" DronePark : has >
DronePark "1" - - "1" DroneChargingSlot : has >
DronePark "1" - - "1" DroneParkingSlot : has >

@enduml

PlantUML version 1.2020.09(Sun May 10 11:51:06 BST 2020)
(GPL source distribution)
Java Runtime: OpenJDK Runtime Environment
JVM: OpenJDK 64-Bit Server VM
Java Version: 11.0.6+8-b765.40
Operating System: Windows 10
Default Encoding: Cp1252
Language: pt
Country: PT
--></g></svg>