<?xml version="1.0" encoding="UTF-8" standalone="no"?><svg xmlns="http://www.w3.org/2000/svg" xmlns:xlink="http://www.w3.org/1999/xlink" contentScriptType="application/ecmascript" contentStyleType="text/css" height="258.6px" preserveAspectRatio="none" style="width:469px;height:258px;" version="1.1" viewBox="0 0 469 258" width="469.2px" zoomAndPan="magnify"><defs><filter height="300%" id="fnw98cg66atl5" width="300%" x="-1" y="-1"><feGaussianBlur result="blurOut" stdDeviation="1.2"/><feColorMatrix in="blurOut" result="blurOut2" type="matrix" values="0 0 0 0 0 0 0 0 0 0 0 0 0 0 0 0 0 0 .4 0"/><feOffset dx="2.4" dy="2.4" in="blurOut2" result="blurOut3"/><feBlend in="SourceGraphic" in2="blurOut3" mode="normal"/></filter></defs><g><!--MD5=[99b8db98afdc2c8404e39242ef4c1e65]
class Platform--><rect fill="#FEFECE" filter="url(#fnw98cg66atl5)" height="32.3016" id="Platform" style="stroke: #A80036; stroke-width: 0.8999999999999999;" width="61.2" x="3.6" y="72.3"/><ellipse cx="19.08" cy="81.9" fill="#ADD1B2" rx="6.6" ry="6.6" style="stroke: #A80036; stroke-width: 0.6;"/><path d="M20.28,79.8 Q20.4019,79.5 20.5425,79.35 Q20.6831,79.2 20.8425,79.2 Q21.1237,79.2 21.3019,79.3687 Q21.48,79.5375 21.48,79.9312 L21.48,80.8687 Q21.48,81.2625 21.3112,81.4312 Q21.1425,81.6 20.88,81.6 Q20.6456,81.6 20.4956,81.4969 Q20.3456,81.3938 20.28,81.1219 Q20.2519,80.9344 20.1487,80.8313 Q19.9612,80.6344 19.6237,80.5219 Q19.2863,80.4 18.9488,80.4 Q18.5269,80.4 18.1706,80.5688 Q17.8238,80.7375 17.5519,81.1125 Q17.28,81.4875 17.28,82.0031 L17.28,82.5562 Q17.28,83.175 17.7863,83.5875 Q18.2925,84 19.1925,84 Q19.7269,84 20.1019,83.8781 Q20.3175,83.8125 20.5612,83.5969 Q20.7206,83.475 20.805,83.4375 Q20.8894,83.4 20.9925,83.4 Q21.1894,83.4 21.33,83.5594 Q21.48,83.7094 21.48,83.925 Q21.48,84.1313 21.2737,84.375 Q20.9738,84.7313 20.4956,84.9281 Q19.8675,85.2 19.0988,85.2 Q18.1988,85.2 17.4769,84.8438 Q16.8956,84.5625 16.4831,83.9531 Q16.08,83.3438 16.08,82.6219 L16.08,81.9656 Q16.08,81.2156 16.4363,80.5594 Q16.8019,79.9031 17.43,79.5562 Q18.0675,79.2 18.78,79.2 Q19.2112,79.2 19.5862,79.35 Q19.9612,79.5 20.28,79.8 Z "/><text fill="#000000" font-family="sans-serif" font-size="7.2" lengthAdjust="spacingAndGlyphs" textLength="27.6" x="28.92" y="84.8461">Platform</text><line style="stroke: #A80036; stroke-width: 0.8999999999999999;" x1="4.2" x2="64.2" y1="91.5" y2="91.5"/><text fill="#000000" font-family="sans-serif" font-size="6.6" lengthAdjust="spacingAndGlyphs" textLength="54" x="7.2" y="100.7514">-String designation</text><!--MD5=[7f2a9fafcebe4f099f71398fd3e2ed00]
class Pharmacy--><rect fill="#FEFECE" filter="url(#fnw98cg66atl5)" height="57.2063" id="Pharmacy" style="stroke: #A80036; stroke-width: 0.8999999999999999;" width="57.6" x="122.7" y="106.8"/><ellipse cx="134.13" cy="116.4" fill="#ADD1B2" rx="6.6" ry="6.6" style="stroke: #A80036; stroke-width: 0.6;"/><path d="M135.33,114.3 Q135.4519,114 135.5925,113.85 Q135.7331,113.7 135.8925,113.7 Q136.1738,113.7 136.3519,113.8687 Q136.53,114.0375 136.53,114.4312 L136.53,115.3687 Q136.53,115.7625 136.3613,115.9312 Q136.1925,116.1 135.93,116.1 Q135.6956,116.1 135.5456,115.9969 Q135.3956,115.8938 135.33,115.6219 Q135.3019,115.4344 135.1988,115.3313 Q135.0113,115.1344 134.6738,115.0219 Q134.3363,114.9 133.9988,114.9 Q133.5769,114.9 133.2206,115.0688 Q132.8738,115.2375 132.6019,115.6125 Q132.33,115.9875 132.33,116.5031 L132.33,117.0562 Q132.33,117.675 132.8363,118.0875 Q133.3425,118.5 134.2425,118.5 Q134.7769,118.5 135.1519,118.3781 Q135.3675,118.3125 135.6113,118.0969 Q135.7706,117.975 135.855,117.9375 Q135.9394,117.9 136.0425,117.9 Q136.2394,117.9 136.38,118.0594 Q136.53,118.2094 136.53,118.425 Q136.53,118.6313 136.3238,118.875 Q136.0238,119.2312 135.5456,119.4281 Q134.9175,119.7 134.1488,119.7 Q133.2488,119.7 132.5269,119.3438 Q131.9456,119.0625 131.5331,118.4531 Q131.13,117.8438 131.13,117.1219 L131.13,116.4656 Q131.13,115.7156 131.4863,115.0594 Q131.8519,114.4031 132.48,114.0562 Q133.1175,113.7 133.83,113.7 Q134.2613,113.7 134.6363,113.85 Q135.0113,114 135.33,114.3 Z "/><text fill="#000000" font-family="sans-serif" font-size="7.2" lengthAdjust="spacingAndGlyphs" textLength="33" x="143.07" y="119.3461">Pharmacy</text><line style="stroke: #A80036; stroke-width: 0.8999999999999999;" x1="123.3" x2="179.7" y1="126" y2="126"/><text fill="#000000" font-family="sans-serif" font-size="6.6" lengthAdjust="spacingAndGlyphs" textLength="15.6" x="126.3" y="135.2514">-int id</text><text fill="#000000" font-family="sans-serif" font-size="6.6" lengthAdjust="spacingAndGlyphs" textLength="36.6" x="126.3" y="143.5529">-String name</text><text fill="#000000" font-family="sans-serif" font-size="6.6" lengthAdjust="spacingAndGlyphs" textLength="46.2" x="126.3" y="151.8545">-int parkingSlots</text><text fill="#000000" font-family="sans-serif" font-size="6.6" lengthAdjust="spacingAndGlyphs" textLength="50.4" x="126.3" y="160.1561">-int chargingSlots</text><!--MD5=[3fd616f346a44cd59a91eb10b19e157c]
class User--><rect fill="#FEFECE" filter="url(#fnw98cg66atl5)" height="57.2063" id="User" style="stroke: #A80036; stroke-width: 0.8999999999999999;" width="58.2" x="399.3" y="4.8"/><ellipse cx="418.56" cy="14.4" fill="#ADD1B2" rx="6.6" ry="6.6" style="stroke: #A80036; stroke-width: 0.6;"/><path d="M419.76,12.3 Q419.8819,12 420.0225,11.85 Q420.1631,11.7 420.3225,11.7 Q420.6038,11.7 420.7819,11.8688 Q420.96,12.0375 420.96,12.4313 L420.96,13.3688 Q420.96,13.7625 420.7913,13.9313 Q420.6225,14.1 420.36,14.1 Q420.1256,14.1 419.9756,13.9969 Q419.8256,13.8937 419.76,13.6219 Q419.7319,13.4344 419.6288,13.3312 Q419.4413,13.1344 419.1038,13.0219 Q418.7663,12.9 418.4288,12.9 Q418.0069,12.9 417.6506,13.0688 Q417.3038,13.2375 417.0319,13.6125 Q416.76,13.9875 416.76,14.5031 L416.76,15.0562 Q416.76,15.675 417.2663,16.0875 Q417.7725,16.5 418.6725,16.5 Q419.2069,16.5 419.5819,16.3781 Q419.7975,16.3125 420.0413,16.0969 Q420.2006,15.975 420.285,15.9375 Q420.3694,15.9 420.4725,15.9 Q420.6694,15.9 420.81,16.0594 Q420.96,16.2094 420.96,16.425 Q420.96,16.6312 420.7538,16.875 Q420.4538,17.2313 419.9756,17.4281 Q419.3475,17.7 418.5788,17.7 Q417.6788,17.7 416.9569,17.3438 Q416.3756,17.0625 415.9631,16.4531 Q415.56,15.8438 415.56,15.1219 L415.56,14.4656 Q415.56,13.7156 415.9163,13.0594 Q416.2819,12.4031 416.91,12.0563 Q417.5475,11.7 418.26,11.7 Q418.6913,11.7 419.0663,11.85 Q419.4413,12 419.76,12.3 Z "/><text fill="#000000" font-family="sans-serif" font-size="7.2" lengthAdjust="spacingAndGlyphs" textLength="16.2" x="429.24" y="17.3461">User</text><line style="stroke: #A80036; stroke-width: 0.8999999999999999;" x1="399.9" x2="456.9" y1="24" y2="24"/><text fill="#000000" font-family="sans-serif" font-size="6.6" lengthAdjust="spacingAndGlyphs" textLength="36.6" x="402.9" y="33.2514">-String name</text><text fill="#000000" font-family="sans-serif" font-size="6.6" lengthAdjust="spacingAndGlyphs" textLength="35.4" x="402.9" y="41.5529">-String email</text><text fill="#000000" font-family="sans-serif" font-size="6.6" lengthAdjust="spacingAndGlyphs" textLength="51" x="402.9" y="49.8545">-String password</text><text fill="#000000" font-family="sans-serif" font-size="6.6" lengthAdjust="spacingAndGlyphs" textLength="31.2" x="402.9" y="58.1561">-Integer nif</text><!--MD5=[2fa756869cccd4a326cf3bfeb06b754f]
class PharmacyManager--><rect fill="#FEFECE" filter="url(#fnw98cg66atl5)" height="24" id="PharmacyManager" style="stroke: #A80036; stroke-width: 0.8999999999999999;" width="81" x="238.2" y="57.9"/><ellipse cx="247.2" cy="67.5" fill="#ADD1B2" rx="6.6" ry="6.6" style="stroke: #A80036; stroke-width: 0.6;"/><path d="M248.4,65.4 Q248.5219,65.1 248.6625,64.95 Q248.8031,64.8 248.9625,64.8 Q249.2437,64.8 249.4219,64.9688 Q249.6,65.1375 249.6,65.5313 L249.6,66.4688 Q249.6,66.8625 249.4312,67.0313 Q249.2625,67.2 249,67.2 Q248.7656,67.2 248.6156,67.0969 Q248.4656,66.9937 248.4,66.7219 Q248.3719,66.5344 248.2687,66.4312 Q248.0812,66.2344 247.7437,66.1219 Q247.4063,66 247.0688,66 Q246.6469,66 246.2906,66.1688 Q245.9438,66.3375 245.6719,66.7125 Q245.4,67.0875 245.4,67.6031 L245.4,68.1563 Q245.4,68.775 245.9063,69.1875 Q246.4125,69.6 247.3125,69.6 Q247.8469,69.6 248.2219,69.4781 Q248.4375,69.4125 248.6812,69.1969 Q248.8406,69.075 248.925,69.0375 Q249.0094,69 249.1125,69 Q249.3094,69 249.45,69.1594 Q249.6,69.3094 249.6,69.525 Q249.6,69.7313 249.3937,69.975 Q249.0938,70.3313 248.6156,70.5281 Q247.9875,70.8 247.2188,70.8 Q246.3188,70.8 245.5969,70.4438 Q245.0156,70.1625 244.6031,69.5531 Q244.2,68.9438 244.2,68.2219 L244.2,67.5656 Q244.2,66.8156 244.5562,66.1594 Q244.9219,65.5031 245.55,65.1563 Q246.1875,64.8 246.9,64.8 Q247.3312,64.8 247.7062,64.95 Q248.0812,65.1 248.4,65.4 Z "/><text fill="#000000" font-family="sans-serif" font-size="7.2" lengthAdjust="spacingAndGlyphs" textLength="61.8" x="255.6" y="70.4461">PharmacyManager</text><line style="stroke: #A80036; stroke-width: 0.8999999999999999;" x1="238.8" x2="318.6" y1="77.1" y2="77.1"/><!--MD5=[2e3f1e60e74253ff42e47f8bfdb04ee2]
class Drone--><rect fill="#FEFECE" filter="url(#fnw98cg66atl5)" height="90.4125" id="Drone" style="stroke: #A80036; stroke-width: 0.8999999999999999;" width="68.4" x="394.2" y="82.8"/><ellipse cx="416.16" cy="92.4" fill="#ADD1B2" rx="6.6" ry="6.6" style="stroke: #A80036; stroke-width: 0.6;"/><path d="M417.36,90.3 Q417.4819,90 417.6225,89.85 Q417.7631,89.7 417.9225,89.7 Q418.2038,89.7 418.3819,89.8687 Q418.56,90.0375 418.56,90.4312 L418.56,91.3687 Q418.56,91.7625 418.3913,91.9312 Q418.2225,92.1 417.96,92.1 Q417.7256,92.1 417.5756,91.9969 Q417.4256,91.8938 417.36,91.6219 Q417.3319,91.4344 417.2288,91.3313 Q417.0413,91.1344 416.7038,91.0219 Q416.3663,90.9 416.0288,90.9 Q415.6069,90.9 415.2506,91.0688 Q414.9038,91.2375 414.6319,91.6125 Q414.36,91.9875 414.36,92.5031 L414.36,93.0562 Q414.36,93.675 414.8663,94.0875 Q415.3725,94.5 416.2725,94.5 Q416.8069,94.5 417.1819,94.3781 Q417.3975,94.3125 417.6413,94.0969 Q417.8006,93.975 417.885,93.9375 Q417.9694,93.9 418.0725,93.9 Q418.2694,93.9 418.41,94.0594 Q418.56,94.2094 418.56,94.425 Q418.56,94.6313 418.3538,94.875 Q418.0538,95.2313 417.5756,95.4281 Q416.9475,95.7 416.1788,95.7 Q415.2788,95.7 414.5569,95.3438 Q413.9756,95.0625 413.5631,94.4531 Q413.16,93.8438 413.16,93.1219 L413.16,92.4656 Q413.16,91.7156 413.5163,91.0594 Q413.8819,90.4031 414.51,90.0562 Q415.1475,89.7 415.86,89.7 Q416.2913,89.7 416.6663,89.85 Q417.0413,90 417.36,90.3 Z "/><text fill="#000000" font-family="sans-serif" font-size="7.2" lengthAdjust="spacingAndGlyphs" textLength="20.4" x="427.44" y="95.3461">Drone</text><line style="stroke: #A80036; stroke-width: 0.8999999999999999;" x1="394.8" x2="462" y1="102" y2="102"/><text fill="#000000" font-family="sans-serif" font-size="6.6" lengthAdjust="spacingAndGlyphs" textLength="15.6" x="397.8" y="111.2514">-int id</text><text fill="#000000" font-family="sans-serif" font-size="6.6" lengthAdjust="spacingAndGlyphs" textLength="50.4" x="397.8" y="119.5529">-float batteryPerc</text><text fill="#000000" font-family="sans-serif" font-size="6.6" lengthAdjust="spacingAndGlyphs" textLength="61.2" x="397.8" y="127.8545">-String charginStatus</text><text fill="#000000" font-family="sans-serif" font-size="6.6" lengthAdjust="spacingAndGlyphs" textLength="40.2" x="397.8" y="136.1561">-float potency</text><text fill="#000000" font-family="sans-serif" font-size="6.6" lengthAdjust="spacingAndGlyphs" textLength="36.6" x="397.8" y="144.4576">-float weight</text><text fill="#000000" font-family="sans-serif" font-size="6.6" lengthAdjust="spacingAndGlyphs" textLength="56.4" x="397.8" y="152.7592">-int batteryCapacity</text><text fill="#000000" font-family="sans-serif" font-size="6.6" lengthAdjust="spacingAndGlyphs" textLength="51.6" x="397.8" y="161.0607">-float maxPayload</text><text fill="#000000" font-family="sans-serif" font-size="6.6" lengthAdjust="spacingAndGlyphs" textLength="59.4" x="397.8" y="169.3623">-float batteryVoltage</text><!--MD5=[0f39e4cb6f03951afbf6d14bd2505654]
class Address--><rect fill="#FEFECE" filter="url(#fnw98cg66atl5)" height="82.1109" id="Address" style="stroke: #A80036; stroke-width: 0.8999999999999999;" width="63.6" x="246.9" y="170.4"/><ellipse cx="263.46" cy="180" fill="#ADD1B2" rx="6.6" ry="6.6" style="stroke: #A80036; stroke-width: 0.6;"/><path d="M264.66,177.9 Q264.7819,177.6 264.9225,177.45 Q265.0631,177.3 265.2225,177.3 Q265.5038,177.3 265.6819,177.4688 Q265.86,177.6375 265.86,178.0313 L265.86,178.9688 Q265.86,179.3625 265.6913,179.5313 Q265.5225,179.7 265.26,179.7 Q265.0256,179.7 264.8756,179.5969 Q264.7256,179.4938 264.66,179.2219 Q264.6319,179.0344 264.5288,178.9313 Q264.3413,178.7344 264.0038,178.6219 Q263.6663,178.5 263.3288,178.5 Q262.9069,178.5 262.5506,178.6688 Q262.2038,178.8375 261.9319,179.2125 Q261.66,179.5875 261.66,180.1031 L261.66,180.6563 Q261.66,181.275 262.1663,181.6875 Q262.6725,182.1 263.5725,182.1 Q264.1069,182.1 264.4819,181.9781 Q264.6975,181.9125 264.9413,181.6969 Q265.1006,181.575 265.185,181.5375 Q265.2694,181.5 265.3725,181.5 Q265.5694,181.5 265.71,181.6594 Q265.86,181.8094 265.86,182.025 Q265.86,182.2313 265.6538,182.475 Q265.3538,182.8312 264.8756,183.0281 Q264.2475,183.3 263.4788,183.3 Q262.5788,183.3 261.8569,182.9438 Q261.2756,182.6625 260.8631,182.0531 Q260.46,181.4438 260.46,180.7219 L260.46,180.0656 Q260.46,179.3156 260.8163,178.6594 Q261.1819,178.0031 261.81,177.6563 Q262.4475,177.3 263.16,177.3 Q263.5913,177.3 263.9663,177.45 Q264.3413,177.6 264.66,177.9 Z "/><text fill="#000000" font-family="sans-serif" font-size="7.2" lengthAdjust="spacingAndGlyphs" textLength="27.6" x="273.54" y="182.9461">Address</text><line style="stroke: #A80036; stroke-width: 0.8999999999999999;" x1="247.5" x2="309.9" y1="189.6" y2="189.6"/><text fill="#000000" font-family="sans-serif" font-size="6.6" lengthAdjust="spacingAndGlyphs" textLength="42.6" x="250.5" y="198.8514">-float longitude</text><text fill="#000000" font-family="sans-serif" font-size="6.6" lengthAdjust="spacingAndGlyphs" textLength="37.2" x="250.5" y="207.1529">-float latitude</text><text fill="#000000" font-family="sans-serif" font-size="6.6" lengthAdjust="spacingAndGlyphs" textLength="56.4" x="250.5" y="215.4545">-String doorNumber</text><text fill="#000000" font-family="sans-serif" font-size="6.6" lengthAdjust="spacingAndGlyphs" textLength="54" x="250.5" y="223.7561">-String streetName</text><text fill="#000000" font-family="sans-serif" font-size="6.6" lengthAdjust="spacingAndGlyphs" textLength="53.4" x="250.5" y="232.0576">-String postalCode</text><text fill="#000000" font-family="sans-serif" font-size="6.6" lengthAdjust="spacingAndGlyphs" textLength="40.8" x="250.5" y="240.3592">-String locality</text><text fill="#000000" font-family="sans-serif" font-size="6.6" lengthAdjust="spacingAndGlyphs" textLength="43.2" x="250.5" y="248.6607">-String country</text><!--MD5=[4a07f137c208f82f57837154e1cfa51e]
link Platform to Pharmacy--><path d="M64.8498,100.6128 C82.6542,107.79 105.0804,116.8302 122.574,123.882 " fill="none" id="Platform-Pharmacy" style="stroke: #A80036; stroke-width: 0.6;"/><text fill="#000000" font-family="sans-serif" font-size="7.8" lengthAdjust="spacingAndGlyphs" textLength="12.6" x="83.4" y="106.7971">has</text><polygon fill="#000000" points="97.8,102.7055,101.4,104.5055,97.8,106.3055,97.8,102.7055" style="stroke: #000000; stroke-width: 0.6;"/><text fill="#000000" font-family="sans-serif" font-size="7.8" lengthAdjust="spacingAndGlyphs" textLength="4.2" x="69.6599" y="111.2167">1</text><text fill="#000000" font-family="sans-serif" font-size="7.8" lengthAdjust="spacingAndGlyphs" textLength="3" x="114.915" y="130.966">*</text><!--MD5=[754ae0e32ddeeb427901936d97e772de]
link Platform to PharmacyManager--><path d="M64.8774,86.2008 C108.486,82.8666 189.3594,76.6842 237.9972,72.966 " fill="none" id="Platform-PharmacyManager" style="stroke: #A80036; stroke-width: 0.6;"/><text fill="#000000" font-family="sans-serif" font-size="7.8" lengthAdjust="spacingAndGlyphs" textLength="49.2" x="123" y="74.9971">has registered</text><polygon fill="#000000" points="174,70.9055,177.6,72.7055,174,74.5055,174,70.9055" style="stroke: #000000; stroke-width: 0.6;"/><text fill="#000000" font-family="sans-serif" font-size="7.8" lengthAdjust="spacingAndGlyphs" textLength="4.2" x="69.6916" y="94.6879">1</text><text fill="#000000" font-family="sans-serif" font-size="7.8" lengthAdjust="spacingAndGlyphs" textLength="3" x="230.3813" y="81.9349">*</text><!--MD5=[63120965f33aa30485eaf56f4034632c]
link PharmacyManager to User--><path d="M319.2906,60.0438 C344.547,53.8188 376.5762,45.9246 399.273,40.3308 " fill="none" id="PharmacyManager-User" style="stroke: #A80036; stroke-width: 0.6;"/><text fill="#000000" font-family="sans-serif" font-size="7.8" lengthAdjust="spacingAndGlyphs" textLength="25.8" x="339.9" y="44.3971">acts as</text><polygon fill="#000000" points="367.5,40.3055,371.1,42.1055,367.5,43.9055,367.5,40.3055" style="stroke: #000000; stroke-width: 0.6;"/><text fill="#000000" font-family="sans-serif" font-size="7.8" lengthAdjust="spacingAndGlyphs" textLength="13.2" x="323.9359" y="67.6535">0..1</text><text fill="#000000" font-family="sans-serif" font-size="7.8" lengthAdjust="spacingAndGlyphs" textLength="4.2" x="390.2914" y="50.2398">1</text><!--MD5=[56f64f3f2a0611c4d6d77727dd267505]
link PharmacyManager to Drone--><path d="M310.0692,81.9588 C334.536,91.548 368.7282,104.949 393.9636,114.8388 " fill="none" id="PharmacyManager-Drone" style="stroke: #A80036; stroke-width: 0.6;"/><text fill="#000000" font-family="sans-serif" font-size="7.8" lengthAdjust="spacingAndGlyphs" textLength="30" x="337.8" y="91.1971">registers</text><polygon fill="#000000" points="369.6,87.1055,373.2,88.9055,369.6,90.7055,369.6,87.1055" style="stroke: #000000; stroke-width: 0.6;"/><text fill="#000000" font-family="sans-serif" font-size="7.8" lengthAdjust="spacingAndGlyphs" textLength="4.2" x="314.1012" y="94.8271">1</text><text fill="#000000" font-family="sans-serif" font-size="7.8" lengthAdjust="spacingAndGlyphs" textLength="12" x="377.2881" y="121.9806">1..*</text><!--MD5=[1563ddde69eb8abda9b50e9ab8dfb994]
link Pharmacy to PharmacyManager--><path d="M180.3768,120.6228 C202.8696,108.948 233.9496,92.8164 254.9724,81.9042 " fill="none" id="Pharmacy-PharmacyManager" style="stroke: #A80036; stroke-width: 0.6;"/><text fill="#000000" font-family="sans-serif" font-size="7.8" lengthAdjust="spacingAndGlyphs" textLength="12.6" x="199.2" y="98.3971">has</text><polygon fill="#000000" points="213.6,94.3055,217.2,96.1055,213.6,97.9055,213.6,94.3055" style="stroke: #000000; stroke-width: 0.6;"/><text fill="#000000" font-family="sans-serif" font-size="7.8" lengthAdjust="spacingAndGlyphs" textLength="4.2" x="185.1201" y="127.2078">1</text><text fill="#000000" font-family="sans-serif" font-size="7.8" lengthAdjust="spacingAndGlyphs" textLength="4.2" x="243.5084" y="94.7571">1</text><!--MD5=[0b0bc9c7f03600b7866f5e5adba791e4]
link Drone to Pharmacy--><path d="M394.0794,128.9808 C339.1668,130.4148 231.4308,133.2282 180.309,134.5632 " fill="none" id="Drone-Pharmacy" style="stroke: #A80036; stroke-width: 0.6;"/><polygon fill="#000000" points="261,124.3055,257.4,126.1055,261,127.9055,261,124.3055" style="stroke: #000000; stroke-width: 0.6;"/><text fill="#000000" font-family="sans-serif" font-size="7.8" lengthAdjust="spacingAndGlyphs" textLength="36" x="264.6" y="128.3971">belongs to</text><text fill="#000000" font-family="sans-serif" font-size="7.8" lengthAdjust="spacingAndGlyphs" textLength="3" x="386.4899" y="137.8312">*</text><text fill="#000000" font-family="sans-serif" font-size="7.8" lengthAdjust="spacingAndGlyphs" textLength="4.2" x="185.0419" y="143.2828">1</text><!--MD5=[89baec1bfb4a213750f7c61516e0a0f1]
link Pharmacy to Address--><path d="M180.3768,152.4006 C200.112,164.3358 226.4586,180.2694 246.8226,192.5844 " fill="none" id="Pharmacy-Address" style="stroke: #A80036; stroke-width: 0.6;"/><text fill="#000000" font-family="sans-serif" font-size="7.8" lengthAdjust="spacingAndGlyphs" textLength="12.6" x="199.2" y="161.9971">has</text><polygon fill="#000000" points="213.6,157.9055,217.2,159.7055,213.6,161.5055,213.6,157.9055" style="stroke: #000000; stroke-width: 0.6;"/><text fill="#000000" font-family="sans-serif" font-size="7.8" lengthAdjust="spacingAndGlyphs" textLength="4.2" x="185.1201" y="163.8516">1</text><text fill="#000000" font-family="sans-serif" font-size="7.8" lengthAdjust="spacingAndGlyphs" textLength="4.2" x="237.8445" y="198.7176">1</text><!--MD5=[281df73376f31ec3f09cb51e971692ae]
@startuml
skinparam classAttributeIconSize 0
hide methods
left to right direction

class Platform {
  -String designation
}

class Pharmacy {
  -int id
  -String name
  -int parkingSlots
  -int chargingSlots
}

class User{
-   String name
-   String email
-   String password
-   Integer nif
}

class PharmacyManager {
}

class Drone{
  -int id
  -float batteryPerc
  -String charginStatus
  -float potency
  -float weight
  -int batteryCapacity
  -float maxPayload
  -float batteryVoltage
}

class Address{
  -float longitude
  -float latitude
  -String doorNumber
  -String streetName
  -String postalCode
  -String locality
  -String country
}



Platform "1" - - "*" Pharmacy : has >
Platform "1" - - "*" PharmacyManager : has registered >
PharmacyManager "0..1" - - "1" User: acts as >
PharmacyManager "1" - - "1..*" Drone : registers >
Pharmacy "1" - - "1" PharmacyManager : has >
Drone "*" - - "1" Pharmacy : belongs to >
Pharmacy "1" - - "1" Address : has >
@enduml

PlantUML version 1.2020.09(Sun May 10 11:51:06 BST 2020)
(GPL source distribution)
Java Runtime: OpenJDK Runtime Environment
JVM: OpenJDK 64-Bit Server VM
Java Version: 11.0.6+8-b765.40
Operating System: Windows 10
Default Encoding: Cp1252
Language: pt
Country: PT
--></g></svg>