<?xml version="1.0" encoding="UTF-8" standalone="no"?><svg xmlns="http://www.w3.org/2000/svg" xmlns:xlink="http://www.w3.org/1999/xlink" contentScriptType="application/ecmascript" contentStyleType="text/css" height="712.2px" preserveAspectRatio="none" style="width:673px;height:712px;" version="1.1" viewBox="0 0 673 712" width="673.2px" zoomAndPan="magnify"><defs><filter height="300%" id="f1u8xiigeajggs" width="300%" x="-1" y="-1"><feGaussianBlur result="blurOut" stdDeviation="1.2"/><feColorMatrix in="blurOut" result="blurOut2" type="matrix" values="0 0 0 0 0 0 0 0 0 0 0 0 0 0 0 0 0 0 .4 0"/><feOffset dx="2.4" dy="2.4" in="blurOut2" result="blurOut3"/><feBlend in="SourceGraphic" in2="blurOut3" mode="normal"/></filter></defs><g><!--MD5=[9681dc6e01e10c6b4fe06895ae94f592]
cluster UI--><polygon fill="#DDDDDD" filter="url(#f1u8xiigeajggs)" points="106.8,14.4,118.8,14.4,123,28.5656,205.2,28.5656,205.2,74.4,106.8,74.4,106.8,14.4" style="stroke: #000000; stroke-width: 0.8999999999999999;"/><line style="stroke: #000000; stroke-width: 0.8999999999999999;" x1="106.8" x2="123" y1="28.5656" y2="28.5656"/><text fill="#000000" font-family="sans-serif" font-size="8.4" font-weight="bold" lengthAdjust="spacingAndGlyphs" textLength="8.4" x="109.2" y="24.3199">UI</text><!--MD5=[1f2cfc53d9d308f53762fd0fcbaa4873]
cluster Controller--><polygon fill="#DDDDDD" filter="url(#f1u8xiigeajggs)" points="94.2,94.2,140.4,94.2,144.6,108.3656,217.8,108.3656,217.8,179.4,94.2,179.4,94.2,94.2" style="stroke: #000000; stroke-width: 0.8999999999999999;"/><line style="stroke: #000000; stroke-width: 0.8999999999999999;" x1="94.2" x2="144.6" y1="108.3656" y2="108.3656"/><text fill="#000000" font-family="sans-serif" font-size="8.4" font-weight="bold" lengthAdjust="spacingAndGlyphs" textLength="42.6" x="96.6" y="104.1199">Controller</text><!--MD5=[15636c1ca4a123c16a2a1a8e90aca7a9]
cluster Model--><polygon fill="#DDDDDD" filter="url(#f1u8xiigeajggs)" points="13.2,199.2,43.2,199.2,47.4,213.3656,345,213.3656,345,705,13.2,705,13.2,199.2" style="stroke: #000000; stroke-width: 0.8999999999999999;"/><line style="stroke: #000000; stroke-width: 0.8999999999999999;" x1="13.2" x2="47.4" y1="213.3656" y2="213.3656"/><text fill="#000000" font-family="sans-serif" font-size="8.4" font-weight="bold" lengthAdjust="spacingAndGlyphs" textLength="26.4" x="15.6" y="209.1199">Model</text><!--MD5=[9dd75fd92da113d30380b27734fd2f01]
cluster Service--><polygon fill="#DDDDDD" filter="url(#f1u8xiigeajggs)" points="76.8,225.6,112.8,225.6,117,239.7656,280.8,239.7656,280.8,310.8,76.8,310.8,76.8,225.6" style="stroke: #000000; stroke-width: 0.8999999999999999;"/><line style="stroke: #000000; stroke-width: 0.8999999999999999;" x1="76.8" x2="117" y1="239.7656" y2="239.7656"/><text fill="#000000" font-family="sans-serif" font-size="8.4" font-weight="bold" lengthAdjust="spacingAndGlyphs" textLength="32.4" x="79.2" y="235.5199">Service</text><!--MD5=[f21b1f164e99c6b37934f23ad048ad54]
cluster Data--><polygon fill="#DDDDDD" filter="url(#f1u8xiigeajggs)" points="447,229.8,469.2,229.8,473.4,243.9656,660,243.9656,660,441.6,447,441.6,447,229.8" style="stroke: #000000; stroke-width: 0.8999999999999999;"/><line style="stroke: #000000; stroke-width: 0.8999999999999999;" x1="447" x2="473.4" y1="243.9656" y2="243.9656"/><text fill="#000000" font-family="sans-serif" font-size="8.4" font-weight="bold" lengthAdjust="spacingAndGlyphs" textLength="18.6" x="449.4" y="239.7199">Data</text><!--MD5=[fa1e3283224feb76407c84b7e90ed808]
entity Database--><path d="M371.7,266.1 C371.7,260.1 396,260.1 396,260.1 C396,260.1 420.3,260.1 420.3,266.1 L420.3,282.0656 C420.3,288.0656 396,288.0656 396,288.0656 C396,288.0656 371.7,288.0656 371.7,282.0656 L371.7,266.1 " fill="#FFFFFF" filter="url(#f1u8xiigeajggs)" style="stroke: #000000; stroke-width: 0.8999999999999999;"/><path d="M371.7,266.1 C371.7,272.1 396,272.1 396,272.1 C396,272.1 420.3,272.1 420.3,266.1 " fill="none" style="stroke: #000000; stroke-width: 0.8999999999999999;"/><text fill="#000000" font-family="sans-serif" font-size="8.4" lengthAdjust="spacingAndGlyphs" textLength="36.6" x="377.7" y="283.2199">Database</text><!--MD5=[6e833f4d304e2534fd2d5c5fc5d919d8]
class RemoveScooterUI--><rect fill="#FEFECE" filter="url(#f1u8xiigeajggs)" height="28.8" id="RemoveScooterUI" style="stroke: #A80036; stroke-width: 0.8999999999999999;" width="79.2" x="116.4" y="36"/><ellipse cx="125.4" cy="45.6" fill="#ADD1B2" rx="6.6" ry="6.6" style="stroke: #A80036; stroke-width: 0.6;"/><path d="M126.6,43.5 Q126.7219,43.2 126.8625,43.05 Q127.0031,42.9 127.1625,42.9 Q127.4438,42.9 127.6219,43.0688 Q127.8,43.2375 127.8,43.6313 L127.8,44.5688 Q127.8,44.9625 127.6313,45.1313 Q127.4625,45.3 127.2,45.3 Q126.9656,45.3 126.8156,45.1969 Q126.6656,45.0938 126.6,44.8219 Q126.5719,44.6344 126.4688,44.5313 Q126.2813,44.3344 125.9438,44.2219 Q125.6062,44.1 125.2688,44.1 Q124.8469,44.1 124.4906,44.2688 Q124.1438,44.4375 123.8719,44.8125 Q123.6,45.1875 123.6,45.7031 L123.6,46.2563 Q123.6,46.875 124.1062,47.2875 Q124.6125,47.7 125.5125,47.7 Q126.0469,47.7 126.4219,47.5781 Q126.6375,47.5125 126.8813,47.2969 Q127.0406,47.175 127.125,47.1375 Q127.2094,47.1 127.3125,47.1 Q127.5094,47.1 127.65,47.2594 Q127.8,47.4094 127.8,47.625 Q127.8,47.8313 127.5938,48.075 Q127.2937,48.4313 126.8156,48.6281 Q126.1875,48.9 125.4187,48.9 Q124.5188,48.9 123.7969,48.5437 Q123.2156,48.2625 122.8031,47.6531 Q122.4,47.0437 122.4,46.3219 L122.4,45.6656 Q122.4,44.9156 122.7563,44.2594 Q123.1219,43.6031 123.75,43.2563 Q124.3875,42.9 125.1,42.9 Q125.5313,42.9 125.9063,43.05 Q126.2813,43.2 126.6,43.5 Z "/><text fill="#000000" font-family="sans-serif" font-size="7.2" lengthAdjust="spacingAndGlyphs" textLength="60" x="133.8" y="48.5461">RemoveScooterUI</text><line style="stroke: #A80036; stroke-width: 0.8999999999999999;" x1="117" x2="195" y1="55.2" y2="55.2"/><line style="stroke: #A80036; stroke-width: 0.8999999999999999;" x1="117" x2="195" y1="60" y2="60"/><!--MD5=[bac027668d924653165cf48795e5a572]
class RemoveScooterController--><rect fill="#FEFECE" filter="url(#f1u8xiigeajggs)" height="53.7047" id="RemoveScooterController" style="stroke: #A80036; stroke-width: 0.8999999999999999;" width="104.4" x="103.8" y="115.8"/><ellipse cx="112.8" cy="125.4" fill="#ADD1B2" rx="6.6" ry="6.6" style="stroke: #A80036; stroke-width: 0.6;"/><path d="M114,123.3 Q114.1219,123 114.2625,122.85 Q114.4031,122.7 114.5625,122.7 Q114.8438,122.7 115.0219,122.8687 Q115.2,123.0375 115.2,123.4312 L115.2,124.3687 Q115.2,124.7625 115.0313,124.9312 Q114.8625,125.1 114.6,125.1 Q114.3656,125.1 114.2156,124.9969 Q114.0656,124.8938 114,124.6219 Q113.9719,124.4344 113.8687,124.3313 Q113.6812,124.1344 113.3438,124.0219 Q113.0063,123.9 112.6688,123.9 Q112.2469,123.9 111.8906,124.0688 Q111.5438,124.2375 111.2719,124.6125 Q111,124.9875 111,125.5031 L111,126.0562 Q111,126.675 111.5063,127.0875 Q112.0125,127.5 112.9125,127.5 Q113.4469,127.5 113.8219,127.3781 Q114.0375,127.3125 114.2813,127.0969 Q114.4406,126.975 114.525,126.9375 Q114.6094,126.9 114.7125,126.9 Q114.9094,126.9 115.05,127.0594 Q115.2,127.2094 115.2,127.425 Q115.2,127.6313 114.9937,127.875 Q114.6938,128.2313 114.2156,128.4281 Q113.5875,128.7 112.8188,128.7 Q111.9188,128.7 111.1969,128.3438 Q110.6156,128.0625 110.2031,127.4531 Q109.8,126.8438 109.8,126.1219 L109.8,125.4656 Q109.8,124.7156 110.1563,124.0594 Q110.5219,123.4031 111.15,123.0562 Q111.7875,122.7 112.5,122.7 Q112.9312,122.7 113.3062,122.85 Q113.6812,123 114,123.3 Z "/><text fill="#000000" font-family="sans-serif" font-size="7.2" lengthAdjust="spacingAndGlyphs" textLength="85.2" x="121.2" y="128.3461">RemoveScooterController</text><line style="stroke: #A80036; stroke-width: 0.8999999999999999;" x1="104.4" x2="207.6" y1="135" y2="135"/><line style="stroke: #A80036; stroke-width: 0.8999999999999999;" x1="104.4" x2="207.6" y1="139.8" y2="139.8"/><text fill="#000000" font-family="sans-serif" font-size="6.6" lengthAdjust="spacingAndGlyphs" textLength="58.8" x="107.4" y="149.0514">+showPharmacies()</text><text fill="#000000" font-family="sans-serif" font-size="6.6" lengthAdjust="spacingAndGlyphs" textLength="95.4" x="107.4" y="157.3529">+showScootersList(pharmacyId)</text><text fill="#000000" font-family="sans-serif" font-size="6.6" lengthAdjust="spacingAndGlyphs" textLength="79.8" x="107.4" y="165.6545">+removeScooter(scooterId)</text><!--MD5=[f4402668d5d5bb8485350c0fdb60ac8e]
class Scooter--><rect fill="#FEFECE" filter="url(#f1u8xiigeajggs)" height="111.8156" id="Scooter" style="stroke: #A80036; stroke-width: 0.8999999999999999;" width="202.2" x="132.9" y="349.2"/><ellipse cx="218.85" cy="358.8" fill="#ADD1B2" rx="6.6" ry="6.6" style="stroke: #A80036; stroke-width: 0.6;"/><path d="M220.05,356.7 Q220.1719,356.4 220.3125,356.25 Q220.4531,356.1 220.6125,356.1 Q220.8937,356.1 221.0719,356.2688 Q221.25,356.4375 221.25,356.8313 L221.25,357.7688 Q221.25,358.1625 221.0812,358.3313 Q220.9125,358.5 220.65,358.5 Q220.4156,358.5 220.2656,358.3969 Q220.1156,358.2938 220.05,358.0219 Q220.0219,357.8344 219.9188,357.7313 Q219.7313,357.5344 219.3937,357.4219 Q219.0563,357.3 218.7188,357.3 Q218.2969,357.3 217.9406,357.4688 Q217.5938,357.6375 217.3219,358.0125 Q217.05,358.3875 217.05,358.9031 L217.05,359.4563 Q217.05,360.075 217.5563,360.4875 Q218.0625,360.9 218.9625,360.9 Q219.4969,360.9 219.8719,360.7781 Q220.0875,360.7125 220.3312,360.4969 Q220.4906,360.375 220.575,360.3375 Q220.6594,360.3 220.7625,360.3 Q220.9594,360.3 221.1,360.4594 Q221.25,360.6094 221.25,360.825 Q221.25,361.0313 221.0438,361.275 Q220.7438,361.6312 220.2656,361.8281 Q219.6375,362.1 218.8688,362.1 Q217.9688,362.1 217.2469,361.7438 Q216.6656,361.4625 216.2531,360.8531 Q215.85,360.2438 215.85,359.5219 L215.85,358.8656 Q215.85,358.1156 216.2062,357.4594 Q216.5719,356.8031 217.2,356.4563 Q217.8375,356.1 218.55,356.1 Q218.9813,356.1 219.3563,356.25 Q219.7313,356.4 220.05,356.7 Z "/><text fill="#000000" font-family="sans-serif" font-size="7.2" lengthAdjust="spacingAndGlyphs" textLength="25.2" x="231.15" y="361.7461">Scooter</text><line style="stroke: #A80036; stroke-width: 0.8999999999999999;" x1="133.5" x2="334.5" y1="368.4" y2="368.4"/><text fill="#000000" font-family="sans-serif" font-size="6.6" lengthAdjust="spacingAndGlyphs" textLength="15.6" x="136.5" y="377.6514">-int id</text><text fill="#000000" font-family="sans-serif" font-size="6.6" lengthAdjust="spacingAndGlyphs" textLength="50.4" x="136.5" y="385.9529">-float batteryPerc</text><text fill="#000000" font-family="sans-serif" font-size="6.6" lengthAdjust="spacingAndGlyphs" textLength="61.2" x="136.5" y="394.2545">-String charginStatus</text><text fill="#000000" font-family="sans-serif" font-size="6.6" lengthAdjust="spacingAndGlyphs" textLength="40.2" x="136.5" y="402.5561">-float potency</text><text fill="#000000" font-family="sans-serif" font-size="6.6" lengthAdjust="spacingAndGlyphs" textLength="36.6" x="136.5" y="410.8576">-float weight</text><text fill="#000000" font-family="sans-serif" font-size="6.6" lengthAdjust="spacingAndGlyphs" textLength="56.4" x="136.5" y="419.1592">-int batteryCapacity</text><text fill="#000000" font-family="sans-serif" font-size="6.6" lengthAdjust="spacingAndGlyphs" textLength="51.6" x="136.5" y="427.4607">-float maxPayload</text><text fill="#000000" font-family="sans-serif" font-size="6.6" lengthAdjust="spacingAndGlyphs" textLength="59.4" x="136.5" y="435.7623">-float batteryVoltage</text><line style="stroke: #A80036; stroke-width: 0.8999999999999999;" x1="133.5" x2="334.5" y1="439.6125" y2="439.6125"/><text fill="#000000" font-family="sans-serif" font-size="6.6" lengthAdjust="spacingAndGlyphs" textLength="135" x="136.5" y="448.8639">+Scooter(batteryPerc, charginStatus, potency,</text><text fill="#000000" font-family="sans-serif" font-size="6.6" lengthAdjust="spacingAndGlyphs" textLength="193.2" x="138.3" y="457.1654">weight, batteryCapacity, maxPayload, batteryVoltage, pharmacyId)</text><!--MD5=[0f39e4cb6f03951afbf6d14bd2505654]
class Address--><rect fill="#FEFECE" filter="url(#f1u8xiigeajggs)" height="86.9109" id="Address" style="stroke: #A80036; stroke-width: 0.8999999999999999;" width="63.6" x="202.2" y="608.4"/><ellipse cx="218.76" cy="618" fill="#ADD1B2" rx="6.6" ry="6.6" style="stroke: #A80036; stroke-width: 0.6;"/><path d="M219.96,615.9 Q220.0819,615.6 220.2225,615.45 Q220.3631,615.3 220.5225,615.3 Q220.8038,615.3 220.9819,615.4688 Q221.16,615.6375 221.16,616.0313 L221.16,616.9688 Q221.16,617.3625 220.9913,617.5313 Q220.8225,617.7 220.56,617.7 Q220.3256,617.7 220.1756,617.5969 Q220.0256,617.4938 219.96,617.2219 Q219.9319,617.0344 219.8288,616.9313 Q219.6413,616.7344 219.3038,616.6219 Q218.9663,616.5 218.6288,616.5 Q218.2069,616.5 217.8506,616.6687 Q217.5038,616.8375 217.2319,617.2125 Q216.96,617.5875 216.96,618.1031 L216.96,618.6563 Q216.96,619.275 217.4663,619.6875 Q217.9725,620.1 218.8725,620.1 Q219.4069,620.1 219.7819,619.9781 Q219.9975,619.9125 220.2413,619.6969 Q220.4006,619.575 220.485,619.5375 Q220.5694,619.5 220.6725,619.5 Q220.8694,619.5 221.01,619.6594 Q221.16,619.8094 221.16,620.025 Q221.16,620.2312 220.9538,620.475 Q220.6538,620.8313 220.1756,621.0281 Q219.5475,621.3 218.7788,621.3 Q217.8788,621.3 217.1569,620.9438 Q216.5756,620.6625 216.1631,620.0531 Q215.76,619.4438 215.76,618.7219 L215.76,618.0656 Q215.76,617.3156 216.1163,616.6594 Q216.4819,616.0031 217.11,615.6563 Q217.7475,615.3 218.46,615.3 Q218.8913,615.3 219.2663,615.45 Q219.6413,615.6 219.96,615.9 Z "/><text fill="#000000" font-family="sans-serif" font-size="7.2" lengthAdjust="spacingAndGlyphs" textLength="27.6" x="228.84" y="620.9461">Address</text><line style="stroke: #A80036; stroke-width: 0.8999999999999999;" x1="202.8" x2="265.2" y1="627.6" y2="627.6"/><text fill="#000000" font-family="sans-serif" font-size="6.6" lengthAdjust="spacingAndGlyphs" textLength="42.6" x="205.8" y="636.8514">-float longitude</text><text fill="#000000" font-family="sans-serif" font-size="6.6" lengthAdjust="spacingAndGlyphs" textLength="37.2" x="205.8" y="645.1529">-float latitude</text><text fill="#000000" font-family="sans-serif" font-size="6.6" lengthAdjust="spacingAndGlyphs" textLength="56.4" x="205.8" y="653.4545">-String doorNumber</text><text fill="#000000" font-family="sans-serif" font-size="6.6" lengthAdjust="spacingAndGlyphs" textLength="54" x="205.8" y="661.7561">-String streetName</text><text fill="#000000" font-family="sans-serif" font-size="6.6" lengthAdjust="spacingAndGlyphs" textLength="53.4" x="205.8" y="670.0576">-String postalCode</text><text fill="#000000" font-family="sans-serif" font-size="6.6" lengthAdjust="spacingAndGlyphs" textLength="40.8" x="205.8" y="678.3592">-String locality</text><text fill="#000000" font-family="sans-serif" font-size="6.6" lengthAdjust="spacingAndGlyphs" textLength="43.2" x="205.8" y="686.6607">-String country</text><line style="stroke: #A80036; stroke-width: 0.8999999999999999;" x1="202.8" x2="265.2" y1="690.5109" y2="690.5109"/><!--MD5=[7f2a9fafcebe4f099f71398fd3e2ed00]
class Pharmacy--><rect fill="#FEFECE" filter="url(#f1u8xiigeajggs)" height="53.7047" id="Pharmacy" style="stroke: #A80036; stroke-width: 0.8999999999999999;" width="94.8" x="186.6" y="507.6"/><ellipse cx="214.95" cy="517.2" fill="#ADD1B2" rx="6.6" ry="6.6" style="stroke: #A80036; stroke-width: 0.6;"/><path d="M216.15,515.1 Q216.2719,514.8 216.4125,514.65 Q216.5531,514.5 216.7125,514.5 Q216.9938,514.5 217.1719,514.6687 Q217.35,514.8375 217.35,515.2312 L217.35,516.1687 Q217.35,516.5625 217.1813,516.7312 Q217.0125,516.9 216.75,516.9 Q216.5156,516.9 216.3656,516.7969 Q216.2156,516.6938 216.15,516.4219 Q216.1219,516.2344 216.0187,516.1313 Q215.8312,515.9344 215.4938,515.8219 Q215.1563,515.7 214.8188,515.7 Q214.3969,515.7 214.0406,515.8688 Q213.6938,516.0375 213.4219,516.4125 Q213.15,516.7875 213.15,517.3031 L213.15,517.8562 Q213.15,518.475 213.6563,518.8875 Q214.1625,519.3 215.0625,519.3 Q215.5969,519.3 215.9719,519.1781 Q216.1875,519.1125 216.4313,518.8969 Q216.5906,518.775 216.675,518.7375 Q216.7594,518.7 216.8625,518.7 Q217.0594,518.7 217.2,518.8594 Q217.35,519.0094 217.35,519.225 Q217.35,519.4313 217.1437,519.675 Q216.8438,520.0313 216.3656,520.2281 Q215.7375,520.5 214.9688,520.5 Q214.0688,520.5 213.3469,520.1438 Q212.7656,519.8625 212.3531,519.2531 Q211.95,518.6438 211.95,517.9219 L211.95,517.2656 Q211.95,516.5156 212.3063,515.8594 Q212.6719,515.2031 213.3,514.8562 Q213.9375,514.5 214.65,514.5 Q215.0812,514.5 215.4562,514.65 Q215.8312,514.8 216.15,515.1 Z "/><text fill="#000000" font-family="sans-serif" font-size="7.2" lengthAdjust="spacingAndGlyphs" textLength="33" x="227.25" y="520.1461">Pharmacy</text><line style="stroke: #A80036; stroke-width: 0.8999999999999999;" x1="187.2" x2="280.8" y1="526.8" y2="526.8"/><text fill="#000000" font-family="sans-serif" font-size="6.6" lengthAdjust="spacingAndGlyphs" textLength="15.6" x="190.2" y="536.0514">-int id</text><text fill="#000000" font-family="sans-serif" font-size="6.6" lengthAdjust="spacingAndGlyphs" textLength="36.6" x="190.2" y="544.3529">-String name</text><line style="stroke: #A80036; stroke-width: 0.8999999999999999;" x1="187.2" x2="280.8" y1="548.2031" y2="548.2031"/><text fill="#000000" font-family="sans-serif" font-size="6.6" lengthAdjust="spacingAndGlyphs" textLength="87.6" x="190.2" y="557.4545">+getScootersList(pharmacyId)</text><!--MD5=[28160fdc0be430cd6f04db15a7547552]
class PharmacyService--><rect fill="#FEFECE" filter="url(#f1u8xiigeajggs)" height="45.4031" id="PharmacyService" style="stroke: #A80036; stroke-width: 0.8999999999999999;" width="76.2" x="86.7" y="251.4"/><ellipse cx="95.7" cy="261" fill="#ADD1B2" rx="6.6" ry="6.6" style="stroke: #A80036; stroke-width: 0.6;"/><path d="M96.9,258.9 Q97.0219,258.6 97.1625,258.45 Q97.3031,258.3 97.4625,258.3 Q97.7437,258.3 97.9219,258.4688 Q98.1,258.6375 98.1,259.0313 L98.1,259.9688 Q98.1,260.3625 97.9312,260.5313 Q97.7625,260.7 97.5,260.7 Q97.2656,260.7 97.1156,260.5969 Q96.9656,260.4938 96.9,260.2219 Q96.8719,260.0344 96.7688,259.9313 Q96.5813,259.7344 96.2437,259.6219 Q95.9063,259.5 95.5688,259.5 Q95.1469,259.5 94.7906,259.6688 Q94.4438,259.8375 94.1719,260.2125 Q93.9,260.5875 93.9,261.1031 L93.9,261.6563 Q93.9,262.275 94.4063,262.6875 Q94.9125,263.1 95.8125,263.1 Q96.3469,263.1 96.7219,262.9781 Q96.9375,262.9125 97.1812,262.6969 Q97.3406,262.575 97.425,262.5375 Q97.5094,262.5 97.6125,262.5 Q97.8094,262.5 97.95,262.6594 Q98.1,262.8094 98.1,263.025 Q98.1,263.2313 97.8938,263.475 Q97.5938,263.8313 97.1156,264.0281 Q96.4875,264.3 95.7188,264.3 Q94.8188,264.3 94.0969,263.9437 Q93.5156,263.6625 93.1031,263.0531 Q92.7,262.4437 92.7,261.7219 L92.7,261.0656 Q92.7,260.3156 93.0562,259.6594 Q93.4219,259.0031 94.05,258.6563 Q94.6875,258.3 95.4,258.3 Q95.8313,258.3 96.2063,258.45 Q96.5813,258.6 96.9,258.9 Z "/><text fill="#000000" font-family="sans-serif" font-size="7.2" lengthAdjust="spacingAndGlyphs" textLength="57" x="104.1" y="263.9461">PharmacyService</text><line style="stroke: #A80036; stroke-width: 0.8999999999999999;" x1="87.3" x2="162.3" y1="270.6" y2="270.6"/><line style="stroke: #A80036; stroke-width: 0.8999999999999999;" x1="87.3" x2="162.3" y1="275.4" y2="275.4"/><text fill="#000000" font-family="sans-serif" font-size="6.6" lengthAdjust="spacingAndGlyphs" textLength="59.4" x="90.3" y="284.6514">+PharmacyService()</text><text fill="#000000" font-family="sans-serif" font-size="6.6" lengthAdjust="spacingAndGlyphs" textLength="51" x="90.3" y="292.9529">+getPharmacies()</text><!--MD5=[aa4a745fe56463fab637f55d2a7c778f]
class ScooterService--><rect fill="#FEFECE" filter="url(#f1u8xiigeajggs)" height="53.7047" id="ScooterService" style="stroke: #A80036; stroke-width: 0.8999999999999999;" width="87" x="183.9" y="247.2"/><ellipse cx="201.27" cy="256.8" fill="#ADD1B2" rx="6.6" ry="6.6" style="stroke: #A80036; stroke-width: 0.6;"/><path d="M202.47,254.7 Q202.5919,254.4 202.7325,254.25 Q202.8731,254.1 203.0325,254.1 Q203.3138,254.1 203.4919,254.2687 Q203.67,254.4375 203.67,254.8312 L203.67,255.7687 Q203.67,256.1625 203.5013,256.3313 Q203.3325,256.5 203.07,256.5 Q202.8356,256.5 202.6856,256.3969 Q202.5356,256.2938 202.47,256.0219 Q202.4419,255.8344 202.3387,255.7313 Q202.1512,255.5344 201.8138,255.4219 Q201.4763,255.3 201.1388,255.3 Q200.7169,255.3 200.3606,255.4688 Q200.0138,255.6375 199.7419,256.0125 Q199.47,256.3875 199.47,256.9031 L199.47,257.4563 Q199.47,258.075 199.9763,258.4875 Q200.4825,258.9 201.3825,258.9 Q201.9169,258.9 202.2919,258.7781 Q202.5075,258.7125 202.7513,258.4969 Q202.9106,258.375 202.995,258.3375 Q203.0794,258.3 203.1825,258.3 Q203.3794,258.3 203.52,258.4594 Q203.67,258.6094 203.67,258.825 Q203.67,259.0313 203.4637,259.275 Q203.1638,259.6312 202.6856,259.8281 Q202.0575,260.1 201.2888,260.1 Q200.3888,260.1 199.6669,259.7438 Q199.0856,259.4625 198.6731,258.8531 Q198.27,258.2438 198.27,257.5219 L198.27,256.8656 Q198.27,256.1156 198.6263,255.4594 Q198.9919,254.8031 199.62,254.4562 Q200.2575,254.1 200.97,254.1 Q201.4012,254.1 201.7762,254.25 Q202.1512,254.4 202.47,254.7 Z "/><text fill="#000000" font-family="sans-serif" font-size="7.2" lengthAdjust="spacingAndGlyphs" textLength="49.2" x="211.53" y="259.7461">ScooterService</text><line style="stroke: #A80036; stroke-width: 0.8999999999999999;" x1="184.5" x2="270.3" y1="266.4" y2="266.4"/><line style="stroke: #A80036; stroke-width: 0.8999999999999999;" x1="184.5" x2="270.3" y1="271.2" y2="271.2"/><text fill="#000000" font-family="sans-serif" font-size="6.6" lengthAdjust="spacingAndGlyphs" textLength="53.4" x="187.5" y="280.4514">+ScooterService()</text><text fill="#000000" font-family="sans-serif" font-size="6.6" lengthAdjust="spacingAndGlyphs" textLength="54" x="187.5" y="288.7529">+getScootersList()</text><text fill="#000000" font-family="sans-serif" font-size="6.6" lengthAdjust="spacingAndGlyphs" textLength="79.8" x="187.5" y="297.0545">+removeScooter(scooterId)</text><!--MD5=[4b2d61224b33971326a22fe5d809d926]
class DataHandler--><rect fill="#FEFECE" filter="url(#f1u8xiigeajggs)" height="45.4031" id="DataHandler" style="stroke: #A80036; stroke-width: 0.8999999999999999;" width="62.4" x="579.6" y="251.4"/><ellipse cx="589.14" cy="261" fill="#ADD1B2" rx="6.6" ry="6.6" style="stroke: #A80036; stroke-width: 0.6;"/><path d="M590.34,258.9 Q590.4619,258.6 590.6025,258.45 Q590.7431,258.3 590.9025,258.3 Q591.1837,258.3 591.3619,258.4688 Q591.54,258.6375 591.54,259.0313 L591.54,259.9688 Q591.54,260.3625 591.3712,260.5313 Q591.2025,260.7 590.94,260.7 Q590.7056,260.7 590.5556,260.5969 Q590.4056,260.4938 590.34,260.2219 Q590.3119,260.0344 590.2088,259.9313 Q590.0213,259.7344 589.6837,259.6219 Q589.3462,259.5 589.0088,259.5 Q588.5869,259.5 588.2306,259.6688 Q587.8838,259.8375 587.6119,260.2125 Q587.34,260.5875 587.34,261.1031 L587.34,261.6563 Q587.34,262.275 587.8462,262.6875 Q588.3525,263.1 589.2525,263.1 Q589.7869,263.1 590.1619,262.9781 Q590.3775,262.9125 590.6212,262.6969 Q590.7806,262.575 590.865,262.5375 Q590.9494,262.5 591.0525,262.5 Q591.2494,262.5 591.39,262.6594 Q591.54,262.8094 591.54,263.025 Q591.54,263.2313 591.3338,263.475 Q591.0337,263.8313 590.5556,264.0281 Q589.9275,264.3 589.1587,264.3 Q588.2588,264.3 587.5369,263.9437 Q586.9556,263.6625 586.5431,263.0531 Q586.14,262.4437 586.14,261.7219 L586.14,261.0656 Q586.14,260.3156 586.4962,259.6594 Q586.8619,259.0031 587.49,258.6563 Q588.1275,258.3 588.84,258.3 Q589.2713,258.3 589.6463,258.45 Q590.0213,258.6 590.34,258.9 Z "/><text fill="#000000" font-family="sans-serif" font-size="7.2" lengthAdjust="spacingAndGlyphs" textLength="42" x="597.66" y="263.9461">DataHandler</text><line style="stroke: #A80036; stroke-width: 0.8999999999999999;" x1="580.2" x2="641.4" y1="270.6" y2="270.6"/><line style="stroke: #A80036; stroke-width: 0.8999999999999999;" x1="580.2" x2="641.4" y1="275.4" y2="275.4"/><text fill="#000000" font-family="sans-serif" font-size="6.6" lengthAdjust="spacingAndGlyphs" textLength="55.2" x="583.2" y="284.6514">+openConnection()</text><text fill="#000000" font-family="sans-serif" font-size="6.6" lengthAdjust="spacingAndGlyphs" textLength="31.2" x="583.2" y="292.9529">+closeAll()</text><!--MD5=[b860ecc58d0ca70e482845cb1f7b4615]
class PharmacyDB--><rect fill="#FEFECE" filter="url(#f1u8xiigeajggs)" height="45.4031" id="PharmacyDB" style="stroke: #A80036; stroke-width: 0.8999999999999999;" width="62.4" x="588" y="382.2"/><ellipse cx="597" cy="391.8" fill="#ADD1B2" rx="6.6" ry="6.6" style="stroke: #A80036; stroke-width: 0.6;"/><path d="M598.2,389.7 Q598.3219,389.4 598.4625,389.25 Q598.6031,389.1 598.7625,389.1 Q599.0437,389.1 599.2219,389.2688 Q599.4,389.4375 599.4,389.8313 L599.4,390.7688 Q599.4,391.1625 599.2312,391.3313 Q599.0625,391.5 598.8,391.5 Q598.5656,391.5 598.4156,391.3969 Q598.2656,391.2938 598.2,391.0219 Q598.1719,390.8344 598.0688,390.7313 Q597.8813,390.5344 597.5437,390.4219 Q597.2063,390.3 596.8688,390.3 Q596.4469,390.3 596.0906,390.4688 Q595.7438,390.6375 595.4719,391.0125 Q595.2,391.3875 595.2,391.9031 L595.2,392.4563 Q595.2,393.075 595.7063,393.4875 Q596.2125,393.9 597.1125,393.9 Q597.6469,393.9 598.0219,393.7781 Q598.2375,393.7125 598.4812,393.4969 Q598.6406,393.375 598.725,393.3375 Q598.8094,393.3 598.9125,393.3 Q599.1094,393.3 599.25,393.4594 Q599.4,393.6094 599.4,393.825 Q599.4,394.0313 599.1938,394.275 Q598.8938,394.6312 598.4156,394.8281 Q597.7875,395.1 597.0188,395.1 Q596.1188,395.1 595.3969,394.7438 Q594.8156,394.4625 594.4031,393.8531 Q594,393.2438 594,392.5219 L594,391.8656 Q594,391.1156 594.3562,390.4594 Q594.7219,389.8031 595.35,389.4563 Q595.9875,389.1 596.7,389.1 Q597.1313,389.1 597.5063,389.25 Q597.8813,389.4 598.2,389.7 Z "/><text fill="#000000" font-family="sans-serif" font-size="7.2" lengthAdjust="spacingAndGlyphs" textLength="43.2" x="605.4" y="394.7461">PharmacyDB</text><line style="stroke: #A80036; stroke-width: 0.8999999999999999;" x1="588.6" x2="649.8" y1="401.4" y2="401.4"/><line style="stroke: #A80036; stroke-width: 0.8999999999999999;" x1="588.6" x2="649.8" y1="406.2" y2="406.2"/><text fill="#000000" font-family="sans-serif" font-size="6.6" lengthAdjust="spacingAndGlyphs" textLength="45.6" x="591.6" y="415.4514">+PharmacyDB()</text><text fill="#000000" font-family="sans-serif" font-size="6.6" lengthAdjust="spacingAndGlyphs" textLength="51" x="591.6" y="423.7529">+getPharmacies()</text><!--MD5=[48d7298b3bd1f8b3e8f77915e881d788]
class ScooterDB--><rect fill="#FEFECE" filter="url(#f1u8xiigeajggs)" height="53.7047" id="ScooterDB" style="stroke: #A80036; stroke-width: 0.8999999999999999;" width="109.8" x="456.9" y="378"/><ellipse cx="491.55" cy="387.6" fill="#ADD1B2" rx="6.6" ry="6.6" style="stroke: #A80036; stroke-width: 0.6;"/><path d="M492.75,385.5 Q492.8719,385.2 493.0125,385.05 Q493.1531,384.9 493.3125,384.9 Q493.5938,384.9 493.7719,385.0687 Q493.95,385.2375 493.95,385.6312 L493.95,386.5687 Q493.95,386.9625 493.7813,387.1312 Q493.6125,387.3 493.35,387.3 Q493.1156,387.3 492.9656,387.1969 Q492.8156,387.0938 492.75,386.8219 Q492.7219,386.6344 492.6188,386.5313 Q492.4313,386.3344 492.0938,386.2219 Q491.7562,386.1 491.4188,386.1 Q490.9969,386.1 490.6406,386.2688 Q490.2938,386.4375 490.0219,386.8125 Q489.75,387.1875 489.75,387.7031 L489.75,388.2562 Q489.75,388.875 490.2562,389.2875 Q490.7625,389.7 491.6625,389.7 Q492.1969,389.7 492.5719,389.5781 Q492.7875,389.5125 493.0313,389.2969 Q493.1906,389.175 493.275,389.1375 Q493.3594,389.1 493.4625,389.1 Q493.6594,389.1 493.8,389.2594 Q493.95,389.4094 493.95,389.625 Q493.95,389.8313 493.7438,390.075 Q493.4437,390.4313 492.9656,390.6281 Q492.3375,390.9 491.5687,390.9 Q490.6688,390.9 489.9469,390.5438 Q489.3656,390.2625 488.9531,389.6531 Q488.55,389.0438 488.55,388.3219 L488.55,387.6656 Q488.55,386.9156 488.9063,386.2594 Q489.2719,385.6031 489.9,385.2562 Q490.5375,384.9 491.25,384.9 Q491.6813,384.9 492.0563,385.05 Q492.4313,385.2 492.75,385.5 Z "/><text fill="#000000" font-family="sans-serif" font-size="7.2" lengthAdjust="spacingAndGlyphs" textLength="35.4" x="503.85" y="390.5461">ScooterDB</text><line style="stroke: #A80036; stroke-width: 0.8999999999999999;" x1="457.5" x2="566.1" y1="397.2" y2="397.2"/><line style="stroke: #A80036; stroke-width: 0.8999999999999999;" x1="457.5" x2="566.1" y1="402" y2="402"/><text fill="#000000" font-family="sans-serif" font-size="6.6" lengthAdjust="spacingAndGlyphs" textLength="39.6" x="460.5" y="411.2514">+ScooterDB()</text><text fill="#000000" font-family="sans-serif" font-size="6.6" lengthAdjust="spacingAndGlyphs" textLength="87.6" x="460.5" y="419.5529">+getScootersList(pharmacyId)</text><text fill="#000000" font-family="sans-serif" font-size="6.6" lengthAdjust="spacingAndGlyphs" textLength="102.6" x="460.5" y="427.8545">+removeScooterFromDB(scooterId)</text><!--MD5=[f40d64c3825bdc96a4efd5b7e3ff1420]
reverse link DataHandler to PharmacyDB--><path d="M613.026,309.1398 C614.526,332.28 616.458,362.1294 617.76,382.1952 " fill="none" id="DataHandler&lt;-PharmacyDB" style="stroke: #A80036; stroke-width: 0.6;"/><polygon fill="none" points="608.832,309.3258,612.246,297.0792,617.214,308.7822,608.832,309.3258" style="stroke: #A80036; stroke-width: 0.6;"/><!--MD5=[a2c65173c20bdf66914a8ed43c34e217]
reverse link DataHandler to ScooterDB--><path d="M600.2952,308.5032 C597.1332,316.2864 593.2416,324.3006 588.6,331.2 C576.879,348.6228 560.3676,365.0442 545.6562,377.901 " fill="none" id="DataHandler&lt;-ScooterDB" style="stroke: #A80036; stroke-width: 0.6;"/><polygon fill="none" points="596.4324,306.8388,604.536,297.0426,604.308,309.7542,596.4324,306.8388" style="stroke: #A80036; stroke-width: 0.6;"/><!--MD5=[d51a3d7ceb60387716e9812879733fde]
link RemoveScooterUI to RemoveScooterController--><path d="M156,64.854 C156,77.466 156,96.51 156,112.548 " fill="none" id="RemoveScooterUI-&gt;RemoveScooterController" style="stroke: #A80036; stroke-width: 0.6; stroke-dasharray: 7.0,7.0;"/><polygon fill="#A80036" points="156,115.7118,158.4,110.3118,156,112.7118,153.6,110.3118,156,115.7118" style="stroke: #A80036; stroke-width: 0.6;"/><!--MD5=[ff5a4a60aaf10293bc99b1ac287cfc38]
link RemoveScooterController to PharmacyService--><path d="M149.6484,169.905 C144.1578,192.8178 136.275,225.714 130.8684,248.2752 " fill="none" id="RemoveScooterController-&gt;PharmacyService" style="stroke: #A80036; stroke-width: 0.6; stroke-dasharray: 7.0,7.0;"/><polygon fill="#A80036" points="130.1556,251.2494,133.7486,246.5579,130.8551,248.3321,129.0809,245.4386,130.1556,251.2494" style="stroke: #A80036; stroke-width: 0.6;"/><!--MD5=[2ee6cd406d0851546e49c24833055b96]
link RemoveScooterController to ScooterService--><path d="M170.535,169.905 C182.4066,191.5536 199.1664,222.1146 211.4148,244.4502 " fill="none" id="RemoveScooterController-&gt;ScooterService" style="stroke: #A80036; stroke-width: 0.6; stroke-dasharray: 7.0,7.0;"/><polygon fill="#A80036" points="212.8854,247.1322,212.3933,241.2434,211.4429,244.5018,208.1846,243.5514,212.8854,247.1322" style="stroke: #A80036; stroke-width: 0.6;"/><!--MD5=[04ba2cb7f5803b19c0d0e740f2a895e0]
link Database to PharmacyDB--><path d="M408.7278,288.3012 C418.3188,297.5808 432.297,309.3204 447,315.6 C461.8446,321.9402 467.229,316.962 483,320.4 C525.7752,329.7246 541.2798,324.1722 577.2,349.2 C588.4032,357.006 597.9216,368.7264 605.052,379.3626 " fill="none" id="Database-&gt;PharmacyDB" style="stroke: #A80036; stroke-width: 0.6;"/><polygon fill="#A80036" points="606.81,382.0398,605.8535,376.2084,605.1639,379.5317,601.8406,378.8421,606.81,382.0398" style="stroke: #A80036; stroke-width: 0.6;"/><text fill="#000000" font-family="sans-serif" font-size="7.8" lengthAdjust="spacingAndGlyphs" textLength="31.8" x="541.2" y="329.0971">manages</text><text fill="#000000" font-family="sans-serif" font-size="7.8" lengthAdjust="spacingAndGlyphs" textLength="4.2" x="412.3421" y="301.0597">1</text><text fill="#000000" font-family="sans-serif" font-size="7.8" lengthAdjust="spacingAndGlyphs" textLength="4.2" x="600.0297" y="375.6284">1</text><!--MD5=[70f68ce34a156c56edce71dba5c758e9]
link Database to ScooterDB--><path d="M408.1434,288.3648 C416.259,297.432 427.1724,309.6282 436.8,320.4 C453.1914,338.739 471.5862,359.3406 486.0564,375.552 " fill="none" id="Database-&gt;ScooterDB" style="stroke: #A80036; stroke-width: 0.6;"/><polygon fill="#A80036" points="488.1618,377.9112,486.3559,372.2846,486.1639,375.6733,482.7752,375.4813,488.1618,377.9112" style="stroke: #A80036; stroke-width: 0.6;"/><text fill="#000000" font-family="sans-serif" font-size="7.8" lengthAdjust="spacingAndGlyphs" textLength="31.8" x="445.8" y="329.0971">manages</text><text fill="#000000" font-family="sans-serif" font-size="7.8" lengthAdjust="spacingAndGlyphs" textLength="4.2" x="406.2659" y="300.899">1</text><text fill="#000000" font-family="sans-serif" font-size="7.8" lengthAdjust="spacingAndGlyphs" textLength="4.2" x="480.0206" y="371.5641">1</text><!--MD5=[ee7ed70a83e67b7f86b44988d609d45d]
link ScooterService to PharmacyDB--><path d="M270.9894,289.7124 C296.9532,298.1868 330.6894,308.4912 361.2,315.6 C374.0946,318.6042 377.9406,316.524 390.6,320.4 C401.5524,323.7534 402.9642,328.1322 414,331.2 C484.3074,350.7438 513.696,313.251 577.2,349.2 C589.3722,356.0904 599.1456,368.0928 606.192,379.149 " fill="none" id="ScooterService-&gt;PharmacyDB" style="stroke: #A80036; stroke-width: 0.6;"/><polygon fill="#A80036" points="607.92,381.936,607.1049,376.0832,606.3351,379.3888,603.0294,378.619,607.92,381.936" style="stroke: #A80036; stroke-width: 0.6;"/><text fill="#000000" font-family="sans-serif" font-size="7.8" lengthAdjust="spacingAndGlyphs" textLength="16.8" x="414.6" y="329.0971">uses</text><text fill="#000000" font-family="sans-serif" font-size="7.8" lengthAdjust="spacingAndGlyphs" textLength="4.2" x="275.7011" y="289.3403">1</text><text fill="#000000" font-family="sans-serif" font-size="7.8" lengthAdjust="spacingAndGlyphs" textLength="3" x="606.2391" y="375.679">*</text><!--MD5=[799b1f05f2692ceb79e345e4105e6b42]
link PharmacyService to ScooterDB--><path d="M145.245,297.1872 C153.2502,304.4358 163.0074,311.625 173.4,315.6 C188.8506,321.5094 305.8098,318.1632 322.2,320.4 C328.8966,321.3138 434.31,346.269 440.4,349.2 C454.761,356.1114 468.9822,366.2454 480.9072,375.9498 " fill="none" id="PharmacyService-&gt;ScooterDB" style="stroke: #A80036; stroke-width: 0.6;"/><polygon fill="#A80036" points="483.261,377.8842,480.6127,372.6016,480.9432,375.9795,477.5652,376.3101,483.261,377.8842" style="stroke: #A80036; stroke-width: 0.6;"/><text fill="#000000" font-family="sans-serif" font-size="7.8" lengthAdjust="spacingAndGlyphs" textLength="16.8" x="369" y="329.0971">uses</text><text fill="#000000" font-family="sans-serif" font-size="7.8" lengthAdjust="spacingAndGlyphs" textLength="4.2" x="143.9687" y="309.7454">1</text><text fill="#000000" font-family="sans-serif" font-size="7.8" lengthAdjust="spacingAndGlyphs" textLength="3" x="475.6613" y="371.5329">*</text><!--MD5=[2ed2b43e7f6d114538396b0b10b28567]
link PharmacyService to Pharmacy--><path d="M94.905,297.1014 C79.7256,310.3482 62.7964,328.5702 54.6,349.2 C36.2862,395.295 26.9347,419.6322 54.6,460.8 C83.1378,503.2662 141.093,521.1102 183.4362,528.6 " fill="none" id="PharmacyService-&gt;Pharmacy" style="stroke: #A80036; stroke-width: 0.6;"/><polygon fill="#A80036" points="186.4572,529.1214,181.5438,525.8383,183.5009,528.6114,180.7278,530.5685,186.4572,529.1214" style="stroke: #A80036; stroke-width: 0.6;"/><text fill="#000000" font-family="sans-serif" font-size="7.8" lengthAdjust="spacingAndGlyphs" textLength="66.6" x="55.2" y="408.2971">manage services of</text><text fill="#000000" font-family="sans-serif" font-size="7.8" lengthAdjust="spacingAndGlyphs" textLength="4.2" x="85.6058" y="309.6459">1</text><text fill="#000000" font-family="sans-serif" font-size="7.8" lengthAdjust="spacingAndGlyphs" textLength="3" x="178.7828" y="526.6629">*</text><!--MD5=[a4fc43f4c54bc2b04150642bdfef7d93]
link ScooterService to Scooter--><path d="M191.4834,301.2726 C180.648,309.6384 171.2166,317.472 169.8,320.4 C167.7096,324.7212 168.1092,326.7078 169.8,331.2 C171.7596,336.4056 174.276,341.4828 177.174,346.3782 " fill="none" id="ScooterService-&gt;Scooter" style="stroke: #A80036; stroke-width: 0.6;"/><polygon fill="#A80036" points="178.8216,349.0782,178.0579,343.2184,177.2591,346.5172,173.9603,345.7184,178.8216,349.0782" style="stroke: #A80036; stroke-width: 0.6;"/><text fill="#000000" font-family="sans-serif" font-size="7.8" lengthAdjust="spacingAndGlyphs" textLength="66.6" x="170.4" y="329.0971">manage services of</text><text fill="#000000" font-family="sans-serif" font-size="7.8" lengthAdjust="spacingAndGlyphs" textLength="4.2" x="181.9373" y="313.8874">1</text><text fill="#000000" font-family="sans-serif" font-size="7.8" lengthAdjust="spacingAndGlyphs" textLength="3" x="171.305" y="342.7363">*</text><!--MD5=[51d7b9a785c9fb041ca400474ed1d998]
link Database to Pharmacy--><path d="M393.603,288.4446 C386.7294,326.4348 366.1254,432.4974 345.6,460.8 C329.3442,483.2154 303.9474,500.6538 281.4852,512.8782 " fill="none" id="Database-Pharmacy" style="stroke: #A80036; stroke-width: 0.6;"/><text fill="#000000" font-family="sans-serif" font-size="7.8" lengthAdjust="spacingAndGlyphs" textLength="49.2" x="382.2" y="408.2971">has registered</text><polygon fill="#000000" points="404.1,413.6109,405.9,417.2109,407.7,413.6109,404.1,413.6109" style="stroke: #000000; stroke-width: 0.6;"/><text fill="#000000" font-family="sans-serif" font-size="7.8" lengthAdjust="spacingAndGlyphs" textLength="4.2" x="388.3631" y="300.9972">1</text><text fill="#000000" font-family="sans-serif" font-size="7.8" lengthAdjust="spacingAndGlyphs" textLength="3" x="286.1541" y="508.8715">*</text><!--MD5=[f4a94ba2ad2673d4959409a96e63c979]
link Database to Scooter--><path d="M371.5056,284.2416 C348.3372,292.989 312.4914,306.0504 280.8,315.6 C272.3778,318.138 268.041,314.4096 261.6,320.4 C253.2822,328.1358 247.467,338.4186 243.402,349.1286 " fill="none" id="Database-Scooter" style="stroke: #A80036; stroke-width: 0.6;"/><polygon fill="#000000" points="266.4,325.0055,262.8,326.8055,266.4,328.6055,266.4,325.0055" style="stroke: #000000; stroke-width: 0.6;"/><text fill="#000000" font-family="sans-serif" font-size="7.8" lengthAdjust="spacingAndGlyphs" textLength="49.2" x="270" y="329.0971">has registered</text><text fill="#000000" font-family="sans-serif" font-size="7.8" lengthAdjust="spacingAndGlyphs" textLength="4.2" x="362.7347" y="283.6778">1</text><text fill="#000000" font-family="sans-serif" font-size="7.8" lengthAdjust="spacingAndGlyphs" textLength="3" x="241.0564" y="342.6011">*</text><!--MD5=[6f1b2737b94c689eac8b0af6a5ef1443]
link Scooter to Pharmacy--><path d="M234,460.9848 C234,477.1386 234,494.0514 234,507.5274 " fill="none" id="Scooter-Pharmacy" style="stroke: #A80036; stroke-width: 0.6;"/><text fill="#000000" font-family="sans-serif" font-size="7.8" lengthAdjust="spacingAndGlyphs" textLength="36" x="234.6" y="487.4971">belongs to</text><polygon fill="#000000" points="249.9,492.8109,251.7,496.4109,253.5,492.8109,249.9,492.8109" style="stroke: #000000; stroke-width: 0.6;"/><text fill="#000000" font-family="sans-serif" font-size="7.8" lengthAdjust="spacingAndGlyphs" textLength="3" x="230.8805" y="473.9255">*</text><text fill="#000000" font-family="sans-serif" font-size="7.8" lengthAdjust="spacingAndGlyphs" textLength="4.2" x="229.4784" y="501.1827">1</text><!--MD5=[89baec1bfb4a213750f7c61516e0a0f1]
link Pharmacy to Address--><path d="M234,561.8358 C234,575.5596 234,592.6362 234,608.1804 " fill="none" id="Pharmacy-Address" style="stroke: #A80036; stroke-width: 0.6;"/><text fill="#000000" font-family="sans-serif" font-size="7.8" lengthAdjust="spacingAndGlyphs" textLength="12.6" x="234.6" y="588.2971">has</text><polygon fill="#000000" points="238.2,593.6109,240,597.2109,241.8,593.6109,238.2,593.6109" style="stroke: #000000; stroke-width: 0.6;"/><text fill="#000000" font-family="sans-serif" font-size="7.8" lengthAdjust="spacingAndGlyphs" textLength="4.2" x="229.5178" y="574.2717">1</text><text fill="#000000" font-family="sans-serif" font-size="7.8" lengthAdjust="spacingAndGlyphs" textLength="4.2" x="229.5933" y="601.9161">1</text><!--MD5=[10b0c48bd9b25b49e78e1cb08215780d]
@startuml
skinparam classAttributeIconSize 0

database Database {
}

package "UI" #DDDDDD {
class RemoveScooterUI{
}
}

package "Controller" #DDDDDD {
class RemoveScooterController{
+showPharmacies()
+showScootersList(pharmacyId)
+removeScooter(scooterId)
}
}


package "Model" #DDDDDD {
 package "Service" #DDDDDD {
  class PharmacyService{
      +PharmacyService()
      +getPharmacies()
  }

  class ScooterService{
      +ScooterService()
      +getScootersList()
      +removeScooter(scooterId)
   }
}

package "Model" #DDDDDD {
class Scooter{
  -int id
  -float batteryPerc
  -String charginStatus
  -float potency
  -float weight
  -int batteryCapacity
  -float maxPayload
  -float batteryVoltage
  +Scooter(batteryPerc, charginStatus, potency,\n weight, batteryCapacity, maxPayload, batteryVoltage, pharmacyId)
}

class Address{
  -float longitude
  -float latitude
  -String doorNumber
  -String streetName
  -String postalCode
  -String locality
  -String country
}

class Pharmacy {
  -int id
  -String name
  +getScootersList(pharmacyId)
}
}


package "Data" #DDDDDD {
class DataHandler{
    +openConnection()
    +closeAll()
}
class PharmacyDB{
     +PharmacyDB()
     +getPharmacies()
 }

 class ScooterDB{
     +ScooterDB()
     +getScootersList(pharmacyId)
     +removeScooterFromDB(scooterId)
  }
}

class PharmacyDB extends DataHandler
class ScooterDB extends DataHandler

RemoveScooterUI ..> RemoveScooterController
RemoveScooterController ..> PharmacyService
RemoveScooterController ..> ScooterService
Database "1" - -> "1" PharmacyDB : manages
Database "1" - -> "1" ScooterDB : manages
ScooterService "1" - -> "*" PharmacyDB : uses
PharmacyService "1" - -> "*" ScooterDB : uses
PharmacyService "1" - -> "*" Pharmacy : manage services of
ScooterService "1" - -> "*" Scooter : manage services of

Database "1" - - "*" Pharmacy : has registered >
Database "1" - - "*" Scooter : has registered >

Scooter "*" - - "1" Pharmacy : belongs to >
Pharmacy "1" - - "1" Address : has >

@enduml

PlantUML version 1.2020.09(Sun May 10 11:51:06 BST 2020)
(GPL source distribution)
Java Runtime: OpenJDK Runtime Environment
JVM: OpenJDK 64-Bit Server VM
Java Version: 11.0.6+8-b765.40
Operating System: Windows 10
Default Encoding: Cp1252
Language: pt
Country: PT
--></g></svg>