<?xml version="1.0" encoding="UTF-8" standalone="no"?><svg xmlns="http://www.w3.org/2000/svg" xmlns:xlink="http://www.w3.org/1999/xlink" contentScriptType="application/ecmascript" contentStyleType="text/css" height="1469px" preserveAspectRatio="none" style="width:920px;height:1469px;" version="1.1" viewBox="0 0 920 1469" width="920px" zoomAndPan="magnify"><defs><filter height="300%" id="fo2ql2xiqlae2" width="300%" x="-1" y="-1"><feGaussianBlur result="blurOut" stdDeviation="2.0"/><feColorMatrix in="blurOut" result="blurOut2" type="matrix" values="0 0 0 0 0 0 0 0 0 0 0 0 0 0 0 0 0 0 .4 0"/><feOffset dx="4.0" dy="4.0" in="blurOut2" result="blurOut3"/><feBlend in="SourceGraphic" in2="blurOut3" mode="normal"/></filter></defs><g><!--MD5=[9681dc6e01e10c6b4fe06895ae94f592]
cluster UI--><polygon fill="#DDDDDD" filter="url(#fo2ql2xiqlae2)" points="102,24,122,24,129,47.6094,266,47.6094,266,124,102,124,102,24" style="stroke: #000000; stroke-width: 1.5;"/><line style="stroke: #000000; stroke-width: 1.5;" x1="102" x2="129" y1="47.6094" y2="47.6094"/><text fill="#000000" font-family="sans-serif" font-size="14" font-weight="bold" lengthAdjust="spacingAndGlyphs" textLength="14" x="106" y="40.5332">UI</text><!--MD5=[1f2cfc53d9d308f53762fd0fcbaa4873]
cluster Controller--><polygon fill="#DDDDDD" filter="url(#fo2ql2xiqlae2)" points="81,157,158,157,165,180.6094,287,180.6094,287,299,81,299,81,157" style="stroke: #000000; stroke-width: 1.5;"/><line style="stroke: #000000; stroke-width: 1.5;" x1="81" x2="165" y1="180.6094" y2="180.6094"/><text fill="#000000" font-family="sans-serif" font-size="14" font-weight="bold" lengthAdjust="spacingAndGlyphs" textLength="71" x="85" y="173.5332">Controller</text><!--MD5=[15636c1ca4a123c16a2a1a8e90aca7a9]
cluster Model--><polygon fill="#DDDDDD" filter="url(#fo2ql2xiqlae2)" points="22,332,72,332,79,355.6094,429,355.6094,429,1457,22,1457,22,332" style="stroke: #000000; stroke-width: 1.5;"/><line style="stroke: #000000; stroke-width: 1.5;" x1="22" x2="79" y1="355.6094" y2="355.6094"/><text fill="#000000" font-family="sans-serif" font-size="14" font-weight="bold" lengthAdjust="spacingAndGlyphs" textLength="44" x="26" y="348.5332">Model</text><!--MD5=[9dd75fd92da113d30380b27734fd2f01]
cluster Service--><polygon fill="#DDDDDD" filter="url(#fo2ql2xiqlae2)" points="52,376,112,376,119,399.6094,392,399.6094,392,518,52,518,52,376" style="stroke: #000000; stroke-width: 1.5;"/><line style="stroke: #000000; stroke-width: 1.5;" x1="52" x2="119" y1="399.6094" y2="399.6094"/><text fill="#000000" font-family="sans-serif" font-size="14" font-weight="bold" lengthAdjust="spacingAndGlyphs" textLength="54" x="56" y="392.5332">Service</text><!--MD5=[f21b1f164e99c6b37934f23ad048ad54]
cluster Data--><polygon fill="#DDDDDD" filter="url(#fo2ql2xiqlae2)" points="543,383,580,383,587,406.6094,898,406.6094,898,688,543,688,543,383" style="stroke: #000000; stroke-width: 1.5;"/><line style="stroke: #000000; stroke-width: 1.5;" x1="543" x2="587" y1="406.6094" y2="406.6094"/><text fill="#000000" font-family="sans-serif" font-size="14" font-weight="bold" lengthAdjust="spacingAndGlyphs" textLength="31" x="547" y="399.5332">Data</text><!--MD5=[fa1e3283224feb76407c84b7e90ed808]
entity Database--><path d="M445.5,443.5 C445.5,433.5 486,433.5 486,433.5 C486,433.5 526.5,433.5 526.5,443.5 L526.5,470.1094 C526.5,480.1094 486,480.1094 486,480.1094 C486,480.1094 445.5,480.1094 445.5,470.1094 L445.5,443.5 " fill="#FFFFFF" filter="url(#fo2ql2xiqlae2)" style="stroke: #000000; stroke-width: 1.5;"/><path d="M445.5,443.5 C445.5,453.5 486,453.5 486,453.5 C486,453.5 526.5,453.5 526.5,443.5 " fill="none" style="stroke: #000000; stroke-width: 1.5;"/><text fill="#000000" font-family="sans-serif" font-size="14" lengthAdjust="spacingAndGlyphs" textLength="61" x="455.5" y="472.0332">Database</text><!--MD5=[6e833f4d304e2534fd2d5c5fc5d919d8]
class RemoveScooterUI--><rect fill="#FEFECE" filter="url(#fo2ql2xiqlae2)" height="48" id="RemoveScooterUI" style="stroke: #A80036; stroke-width: 1.5;" width="132" x="118" y="60"/><ellipse cx="133" cy="76" fill="#ADD1B2" rx="11" ry="11" style="stroke: #A80036; stroke-width: 1.0;"/><path d="M135,72.5 Q135.2031,72 135.4375,71.75 Q135.6719,71.5 135.9375,71.5 Q136.4063,71.5 136.7031,71.7813 Q137,72.0625 137,72.7188 L137,74.2813 Q137,74.9375 136.7188,75.2188 Q136.4375,75.5 136,75.5 Q135.6094,75.5 135.3594,75.3281 Q135.1094,75.1563 135,74.7031 Q134.9531,74.3906 134.7813,74.2188 Q134.4688,73.8906 133.9063,73.7031 Q133.3438,73.5 132.7813,73.5 Q132.0781,73.5 131.4844,73.7813 Q130.9063,74.0625 130.4531,74.6875 Q130,75.3125 130,76.1719 L130,77.0938 Q130,78.125 130.8438,78.8125 Q131.6875,79.5 133.1875,79.5 Q134.0781,79.5 134.7031,79.2969 Q135.0625,79.1875 135.4688,78.8281 Q135.7344,78.625 135.875,78.5625 Q136.0156,78.5 136.1875,78.5 Q136.5156,78.5 136.75,78.7656 Q137,79.0156 137,79.375 Q137,79.7188 136.6563,80.125 Q136.1563,80.7188 135.3594,81.0469 Q134.3125,81.5 133.0313,81.5 Q131.5313,81.5 130.3281,80.9063 Q129.3594,80.4375 128.6719,79.4219 Q128,78.4063 128,77.2031 L128,76.1094 Q128,74.8594 128.5938,73.7656 Q129.2031,72.6719 130.25,72.0938 Q131.3125,71.5 132.5,71.5 Q133.2188,71.5 133.8438,71.75 Q134.4688,72 135,72.5 Z "/><text fill="#000000" font-family="sans-serif" font-size="12" lengthAdjust="spacingAndGlyphs" textLength="100" x="147" y="80.9102">RemoveScooterUI</text><line style="stroke: #A80036; stroke-width: 1.5;" x1="119" x2="249" y1="92" y2="92"/><line style="stroke: #A80036; stroke-width: 1.5;" x1="119" x2="249" y1="100" y2="100"/><!--MD5=[bac027668d924653165cf48795e5a572]
class RemoveScooterController--><rect fill="#FEFECE" filter="url(#fo2ql2xiqlae2)" height="89.5078" id="RemoveScooterController" style="stroke: #A80036; stroke-width: 1.5;" width="174" x="97" y="193"/><ellipse cx="112" cy="209" fill="#ADD1B2" rx="11" ry="11" style="stroke: #A80036; stroke-width: 1.0;"/><path d="M114,205.5 Q114.2031,205 114.4375,204.75 Q114.6719,204.5 114.9375,204.5 Q115.4063,204.5 115.7031,204.7813 Q116,205.0625 116,205.7188 L116,207.2813 Q116,207.9375 115.7188,208.2188 Q115.4375,208.5 115,208.5 Q114.6094,208.5 114.3594,208.3281 Q114.1094,208.1563 114,207.7031 Q113.9531,207.3906 113.7813,207.2188 Q113.4688,206.8906 112.9063,206.7031 Q112.3438,206.5 111.7813,206.5 Q111.0781,206.5 110.4844,206.7813 Q109.9063,207.0625 109.4531,207.6875 Q109,208.3125 109,209.1719 L109,210.0938 Q109,211.125 109.8438,211.8125 Q110.6875,212.5 112.1875,212.5 Q113.0781,212.5 113.7031,212.2969 Q114.0625,212.1875 114.4688,211.8281 Q114.7344,211.625 114.875,211.5625 Q115.0156,211.5 115.1875,211.5 Q115.5156,211.5 115.75,211.7656 Q116,212.0156 116,212.375 Q116,212.7188 115.6563,213.125 Q115.1563,213.7188 114.3594,214.0469 Q113.3125,214.5 112.0313,214.5 Q110.5313,214.5 109.3281,213.9063 Q108.3594,213.4375 107.6719,212.4219 Q107,211.4063 107,210.2031 L107,209.1094 Q107,207.8594 107.5938,206.7656 Q108.2031,205.6719 109.25,205.0938 Q110.3125,204.5 111.5,204.5 Q112.2188,204.5 112.8438,204.75 Q113.4688,205 114,205.5 Z "/><text fill="#000000" font-family="sans-serif" font-size="12" lengthAdjust="spacingAndGlyphs" textLength="142" x="126" y="213.9102">RemoveScooterController</text><line style="stroke: #A80036; stroke-width: 1.5;" x1="98" x2="270" y1="225" y2="225"/><line style="stroke: #A80036; stroke-width: 1.5;" x1="98" x2="270" y1="233" y2="233"/><text fill="#000000" font-family="sans-serif" font-size="11" lengthAdjust="spacingAndGlyphs" textLength="98" x="103" y="248.4189">+showPharmacies()</text><text fill="#000000" font-family="sans-serif" font-size="11" lengthAdjust="spacingAndGlyphs" textLength="159" x="103" y="262.2549">+showScootersList(pharmacyId)</text><text fill="#000000" font-family="sans-serif" font-size="11" lengthAdjust="spacingAndGlyphs" textLength="133" x="103" y="276.0908">+removeScooter(scooterId)</text><!--MD5=[868815390a9e59f0f213a5798810649b]
class ScooterPark--><rect fill="#FEFECE" filter="url(#fo2ql2xiqlae2)" height="61.8359" id="ScooterPark" style="stroke: #A80036; stroke-width: 1.5;" width="111" x="129.5" y="1183.5"/><ellipse cx="149.9" cy="1199.5" fill="#ADD1B2" rx="11" ry="11" style="stroke: #A80036; stroke-width: 1.0;"/><path d="M151.9,1196 Q152.1031,1195.5 152.3375,1195.25 Q152.5719,1195 152.8375,1195 Q153.3063,1195 153.6031,1195.2813 Q153.9,1195.5625 153.9,1196.2188 L153.9,1197.7813 Q153.9,1198.4375 153.6188,1198.7188 Q153.3375,1199 152.9,1199 Q152.5094,1199 152.2594,1198.8281 Q152.0094,1198.6563 151.9,1198.2031 Q151.8531,1197.8906 151.6813,1197.7188 Q151.3688,1197.3906 150.8063,1197.2031 Q150.2438,1197 149.6813,1197 Q148.9781,1197 148.3844,1197.2813 Q147.8063,1197.5625 147.3531,1198.1875 Q146.9,1198.8125 146.9,1199.6719 L146.9,1200.5938 Q146.9,1201.625 147.7438,1202.3125 Q148.5875,1203 150.0875,1203 Q150.9781,1203 151.6031,1202.7969 Q151.9625,1202.6875 152.3688,1202.3281 Q152.6344,1202.125 152.775,1202.0625 Q152.9156,1202 153.0875,1202 Q153.4156,1202 153.65,1202.2656 Q153.9,1202.5156 153.9,1202.875 Q153.9,1203.2188 153.5563,1203.625 Q153.0563,1204.2188 152.2594,1204.5469 Q151.2125,1205 149.9313,1205 Q148.4313,1205 147.2281,1204.4063 Q146.2594,1203.9375 145.5719,1202.9219 Q144.9,1201.9063 144.9,1200.7031 L144.9,1199.6094 Q144.9,1198.3594 145.4938,1197.2656 Q146.1031,1196.1719 147.15,1195.5938 Q148.2125,1195 149.4,1195 Q150.1188,1195 150.7438,1195.25 Q151.3688,1195.5 151.9,1196 Z "/><text fill="#000000" font-family="sans-serif" font-size="12" lengthAdjust="spacingAndGlyphs" textLength="67" x="165.1" y="1204.4102">ScooterPark</text><line style="stroke: #A80036; stroke-width: 1.5;" x1="130.5" x2="239.5" y1="1215.5" y2="1215.5"/><text fill="#000000" font-family="sans-serif" font-size="11" lengthAdjust="spacingAndGlyphs" textLength="99" x="135.5" y="1230.9189">-int maxSlotsNumber</text><line style="stroke: #A80036; stroke-width: 1.5;" x1="130.5" x2="239.5" y1="1237.3359" y2="1237.3359"/><!--MD5=[5efbb0d0731ef97fc2ab2cfe7ed5bd27]
class ScooterChargingSlot--><rect fill="#FEFECE" filter="url(#fo2ql2xiqlae2)" height="75.6719" id="ScooterChargingSlot" style="stroke: #A80036; stroke-width: 1.5;" width="146" x="62" y="1365"/><ellipse cx="77" cy="1381" fill="#ADD1B2" rx="11" ry="11" style="stroke: #A80036; stroke-width: 1.0;"/><path d="M79,1377.5 Q79.2031,1377 79.4375,1376.75 Q79.6719,1376.5 79.9375,1376.5 Q80.4063,1376.5 80.7031,1376.7813 Q81,1377.0625 81,1377.7188 L81,1379.2813 Q81,1379.9375 80.7188,1380.2188 Q80.4375,1380.5 80,1380.5 Q79.6094,1380.5 79.3594,1380.3281 Q79.1094,1380.1563 79,1379.7031 Q78.9531,1379.3906 78.7813,1379.2188 Q78.4688,1378.8906 77.9063,1378.7031 Q77.3438,1378.5 76.7813,1378.5 Q76.0781,1378.5 75.4844,1378.7813 Q74.9063,1379.0625 74.4531,1379.6875 Q74,1380.3125 74,1381.1719 L74,1382.0938 Q74,1383.125 74.8438,1383.8125 Q75.6875,1384.5 77.1875,1384.5 Q78.0781,1384.5 78.7031,1384.2969 Q79.0625,1384.1875 79.4688,1383.8281 Q79.7344,1383.625 79.875,1383.5625 Q80.0156,1383.5 80.1875,1383.5 Q80.5156,1383.5 80.75,1383.7656 Q81,1384.0156 81,1384.375 Q81,1384.7188 80.6563,1385.125 Q80.1563,1385.7188 79.3594,1386.0469 Q78.3125,1386.5 77.0313,1386.5 Q75.5313,1386.5 74.3281,1385.9063 Q73.3594,1385.4375 72.6719,1384.4219 Q72,1383.4063 72,1382.2031 L72,1381.1094 Q72,1379.8594 72.5938,1378.7656 Q73.2031,1377.6719 74.25,1377.0938 Q75.3125,1376.5 76.5,1376.5 Q77.2188,1376.5 77.8438,1376.75 Q78.4688,1377 79,1377.5 Z "/><text fill="#000000" font-family="sans-serif" font-size="12" lengthAdjust="spacingAndGlyphs" textLength="114" x="91" y="1385.9102">ScooterChargingSlot</text><line style="stroke: #A80036; stroke-width: 1.5;" x1="63" x2="207" y1="1397" y2="1397"/><text fill="#000000" font-family="sans-serif" font-size="11" lengthAdjust="spacingAndGlyphs" textLength="26" x="68" y="1412.4189">-int id</text><text fill="#000000" font-family="sans-serif" font-size="11" lengthAdjust="spacingAndGlyphs" textLength="90" x="68" y="1426.2549">-float outputPower</text><line style="stroke: #A80036; stroke-width: 1.5;" x1="63" x2="207" y1="1432.6719" y2="1432.6719"/><!--MD5=[d3cdad78b703b3ff47b8cf68490e772e]
class ScooterParkingSlot--><rect fill="#FEFECE" filter="url(#fo2ql2xiqlae2)" height="61.8359" id="ScooterParkingSlot" style="stroke: #A80036; stroke-width: 1.5;" width="137" x="243.5" y="1372"/><ellipse cx="258.5" cy="1388" fill="#ADD1B2" rx="11" ry="11" style="stroke: #A80036; stroke-width: 1.0;"/><path d="M260.5,1384.5 Q260.7031,1384 260.9375,1383.75 Q261.1719,1383.5 261.4375,1383.5 Q261.9063,1383.5 262.2031,1383.7813 Q262.5,1384.0625 262.5,1384.7188 L262.5,1386.2813 Q262.5,1386.9375 262.2188,1387.2188 Q261.9375,1387.5 261.5,1387.5 Q261.1094,1387.5 260.8594,1387.3281 Q260.6094,1387.1563 260.5,1386.7031 Q260.4531,1386.3906 260.2813,1386.2188 Q259.9688,1385.8906 259.4063,1385.7031 Q258.8438,1385.5 258.2813,1385.5 Q257.5781,1385.5 256.9844,1385.7813 Q256.4063,1386.0625 255.9531,1386.6875 Q255.5,1387.3125 255.5,1388.1719 L255.5,1389.0938 Q255.5,1390.125 256.3438,1390.8125 Q257.1875,1391.5 258.6875,1391.5 Q259.5781,1391.5 260.2031,1391.2969 Q260.5625,1391.1875 260.9688,1390.8281 Q261.2344,1390.625 261.375,1390.5625 Q261.5156,1390.5 261.6875,1390.5 Q262.0156,1390.5 262.25,1390.7656 Q262.5,1391.0156 262.5,1391.375 Q262.5,1391.7188 262.1563,1392.125 Q261.6563,1392.7188 260.8594,1393.0469 Q259.8125,1393.5 258.5313,1393.5 Q257.0313,1393.5 255.8281,1392.9063 Q254.8594,1392.4375 254.1719,1391.4219 Q253.5,1390.4063 253.5,1389.2031 L253.5,1388.1094 Q253.5,1386.8594 254.0938,1385.7656 Q254.7031,1384.6719 255.75,1384.0938 Q256.8125,1383.5 258,1383.5 Q258.7188,1383.5 259.3438,1383.75 Q259.9688,1384 260.5,1384.5 Z "/><text fill="#000000" font-family="sans-serif" font-size="12" lengthAdjust="spacingAndGlyphs" textLength="105" x="272.5" y="1392.9102">ScooterParkingSlot</text><line style="stroke: #A80036; stroke-width: 1.5;" x1="244.5" x2="379.5" y1="1404" y2="1404"/><text fill="#000000" font-family="sans-serif" font-size="11" lengthAdjust="spacingAndGlyphs" textLength="26" x="249.5" y="1419.4189">-int id</text><line style="stroke: #A80036; stroke-width: 1.5;" x1="244.5" x2="379.5" y1="1425.8359" y2="1425.8359"/><!--MD5=[f4402668d5d5bb8485350c0fdb60ac8e]
class Scooter--><rect fill="#FEFECE" filter="url(#fo2ql2xiqlae2)" height="75.6719" id="Scooter" style="stroke: #A80036; stroke-width: 1.5;" width="337" x="75.5" y="589"/><ellipse cx="218.75" cy="605" fill="#ADD1B2" rx="11" ry="11" style="stroke: #A80036; stroke-width: 1.0;"/><path d="M220.75,601.5 Q220.9531,601 221.1875,600.75 Q221.4219,600.5 221.6875,600.5 Q222.1563,600.5 222.4531,600.7813 Q222.75,601.0625 222.75,601.7188 L222.75,603.2813 Q222.75,603.9375 222.4688,604.2188 Q222.1875,604.5 221.75,604.5 Q221.3594,604.5 221.1094,604.3281 Q220.8594,604.1563 220.75,603.7031 Q220.7031,603.3906 220.5313,603.2188 Q220.2188,602.8906 219.6563,602.7031 Q219.0938,602.5 218.5313,602.5 Q217.8281,602.5 217.2344,602.7813 Q216.6563,603.0625 216.2031,603.6875 Q215.75,604.3125 215.75,605.1719 L215.75,606.0938 Q215.75,607.125 216.5938,607.8125 Q217.4375,608.5 218.9375,608.5 Q219.8281,608.5 220.4531,608.2969 Q220.8125,608.1875 221.2188,607.8281 Q221.4844,607.625 221.625,607.5625 Q221.7656,607.5 221.9375,607.5 Q222.2656,607.5 222.5,607.7656 Q222.75,608.0156 222.75,608.375 Q222.75,608.7188 222.4063,609.125 Q221.9063,609.7188 221.1094,610.0469 Q220.0625,610.5 218.7813,610.5 Q217.2813,610.5 216.0781,609.9063 Q215.1094,609.4375 214.4219,608.4219 Q213.75,607.4063 213.75,606.2031 L213.75,605.1094 Q213.75,603.8594 214.3438,602.7656 Q214.9531,601.6719 216,601.0938 Q217.0625,600.5 218.25,600.5 Q218.9688,600.5 219.5938,600.75 Q220.2188,601 220.75,601.5 Z "/><text fill="#000000" font-family="sans-serif" font-size="12" lengthAdjust="spacingAndGlyphs" textLength="42" x="239.25" y="609.9102">Scooter</text><line style="stroke: #A80036; stroke-width: 1.5;" x1="76.5" x2="411.5" y1="621" y2="621"/><line style="stroke: #A80036; stroke-width: 1.5;" x1="76.5" x2="411.5" y1="629" y2="629"/><text fill="#000000" font-family="sans-serif" font-size="11" lengthAdjust="spacingAndGlyphs" textLength="225" x="81.5" y="644.4189">+Scooter(batteryPerc, charginStatus, potency,</text><text fill="#000000" font-family="sans-serif" font-size="11" lengthAdjust="spacingAndGlyphs" textLength="322" x="84.5" y="658.2549">weight, batteryCapacity, maxPayload, batteryVoltage, pharmacyId)</text><!--MD5=[3aa0d89c6bfdcbf7f32042cedac57549]
class Vehicle--><rect fill="#FEFECE" filter="url(#fo2ql2xiqlae2)" height="131.0156" id="Vehicle" style="stroke: #A80036; stroke-width: 1.5;" width="126" x="129" y="752"/><ellipse cx="168.3" cy="768" fill="#ADD1B2" rx="11" ry="11" style="stroke: #A80036; stroke-width: 1.0;"/><path d="M170.3,764.5 Q170.5031,764 170.7375,763.75 Q170.9719,763.5 171.2375,763.5 Q171.7063,763.5 172.0031,763.7813 Q172.3,764.0625 172.3,764.7188 L172.3,766.2813 Q172.3,766.9375 172.0188,767.2188 Q171.7375,767.5 171.3,767.5 Q170.9094,767.5 170.6594,767.3281 Q170.4094,767.1563 170.3,766.7031 Q170.2531,766.3906 170.0813,766.2188 Q169.7688,765.8906 169.2063,765.7031 Q168.6438,765.5 168.0813,765.5 Q167.3781,765.5 166.7844,765.7813 Q166.2063,766.0625 165.7531,766.6875 Q165.3,767.3125 165.3,768.1719 L165.3,769.0938 Q165.3,770.125 166.1438,770.8125 Q166.9875,771.5 168.4875,771.5 Q169.3781,771.5 170.0031,771.2969 Q170.3625,771.1875 170.7688,770.8281 Q171.0344,770.625 171.175,770.5625 Q171.3156,770.5 171.4875,770.5 Q171.8156,770.5 172.05,770.7656 Q172.3,771.0156 172.3,771.375 Q172.3,771.7188 171.9563,772.125 Q171.4563,772.7188 170.6594,773.0469 Q169.6125,773.5 168.3313,773.5 Q166.8313,773.5 165.6281,772.9063 Q164.6594,772.4375 163.9719,771.4219 Q163.3,770.4063 163.3,769.2031 L163.3,768.1094 Q163.3,766.8594 163.8938,765.7656 Q164.5031,764.6719 165.55,764.0938 Q166.6125,763.5 167.8,763.5 Q168.5188,763.5 169.1438,763.75 Q169.7688,764 170.3,764.5 Z "/><text fill="#000000" font-family="sans-serif" font-size="12" lengthAdjust="spacingAndGlyphs" textLength="40" x="187.7" y="772.9102">Vehicle</text><line style="stroke: #A80036; stroke-width: 1.5;" x1="130" x2="254" y1="784" y2="784"/><text fill="#000000" font-family="sans-serif" font-size="11" lengthAdjust="spacingAndGlyphs" textLength="26" x="135" y="799.4189">-int id</text><text fill="#000000" font-family="sans-serif" font-size="11" lengthAdjust="spacingAndGlyphs" textLength="93" x="135" y="813.2549">-String vehicleType</text><text fill="#000000" font-family="sans-serif" font-size="11" lengthAdjust="spacingAndGlyphs" textLength="67" x="135" y="827.0908">-float potency</text><text fill="#000000" font-family="sans-serif" font-size="11" lengthAdjust="spacingAndGlyphs" textLength="61" x="135" y="840.9268">-float weight</text><text fill="#000000" font-family="sans-serif" font-size="11" lengthAdjust="spacingAndGlyphs" textLength="86" x="135" y="854.7627">-float maxPayload</text><text fill="#000000" font-family="sans-serif" font-size="11" lengthAdjust="spacingAndGlyphs" textLength="114" x="135" y="868.5986">-String charngingStatus</text><line style="stroke: #A80036; stroke-width: 1.5;" x1="130" x2="254" y1="875.0156" y2="875.0156"/><!--MD5=[79eb2d862cef9730b5f9dcab29e35f17]
class Battery--><rect fill="#FEFECE" filter="url(#fo2ql2xiqlae2)" height="103.3438" id="Battery" style="stroke: #A80036; stroke-width: 1.5;" width="111" x="99.5" y="961"/><ellipse cx="133.4" cy="977" fill="#ADD1B2" rx="11" ry="11" style="stroke: #A80036; stroke-width: 1.0;"/><path d="M135.4,973.5 Q135.6031,973 135.8375,972.75 Q136.0719,972.5 136.3375,972.5 Q136.8063,972.5 137.1031,972.7813 Q137.4,973.0625 137.4,973.7188 L137.4,975.2813 Q137.4,975.9375 137.1188,976.2188 Q136.8375,976.5 136.4,976.5 Q136.0094,976.5 135.7594,976.3281 Q135.5094,976.1563 135.4,975.7031 Q135.3531,975.3906 135.1813,975.2188 Q134.8688,974.8906 134.3063,974.7031 Q133.7438,974.5 133.1813,974.5 Q132.4781,974.5 131.8844,974.7813 Q131.3063,975.0625 130.8531,975.6875 Q130.4,976.3125 130.4,977.1719 L130.4,978.0938 Q130.4,979.125 131.2438,979.8125 Q132.0875,980.5 133.5875,980.5 Q134.4781,980.5 135.1031,980.2969 Q135.4625,980.1875 135.8688,979.8281 Q136.1344,979.625 136.275,979.5625 Q136.4156,979.5 136.5875,979.5 Q136.9156,979.5 137.15,979.7656 Q137.4,980.0156 137.4,980.375 Q137.4,980.7188 137.0563,981.125 Q136.5563,981.7188 135.7594,982.0469 Q134.7125,982.5 133.4313,982.5 Q131.9313,982.5 130.7281,981.9063 Q129.7594,981.4375 129.0719,980.4219 Q128.4,979.4063 128.4,978.2031 L128.4,977.1094 Q128.4,975.8594 128.9938,974.7656 Q129.6031,973.6719 130.65,973.0938 Q131.7125,972.5 132.9,972.5 Q133.6188,972.5 134.2438,972.75 Q134.8688,973 135.4,973.5 Z "/><text fill="#000000" font-family="sans-serif" font-size="12" lengthAdjust="spacingAndGlyphs" textLength="37" x="151.6" y="981.9102">Battery</text><line style="stroke: #A80036; stroke-width: 1.5;" x1="100.5" x2="209.5" y1="993" y2="993"/><text fill="#000000" font-family="sans-serif" font-size="11" lengthAdjust="spacingAndGlyphs" textLength="26" x="105.5" y="1008.4189">-int id</text><text fill="#000000" font-family="sans-serif" font-size="11" lengthAdjust="spacingAndGlyphs" textLength="84" x="105.5" y="1022.2549">-float batteryPerc</text><text fill="#000000" font-family="sans-serif" font-size="11" lengthAdjust="spacingAndGlyphs" textLength="94" x="105.5" y="1036.0908">-int batteryCapacity</text><text fill="#000000" font-family="sans-serif" font-size="11" lengthAdjust="spacingAndGlyphs" textLength="99" x="105.5" y="1049.9268">-float batteryVoltage</text><line style="stroke: #A80036; stroke-width: 1.5;" x1="100.5" x2="209.5" y1="1056.3438" y2="1056.3438"/><!--MD5=[0f39e4cb6f03951afbf6d14bd2505654]
class Address--><rect fill="#FEFECE" filter="url(#fo2ql2xiqlae2)" height="144.8516" id="Address" style="stroke: #A80036; stroke-width: 1.5;" width="106" x="276" y="1142"/><ellipse cx="303.6" cy="1158" fill="#ADD1B2" rx="11" ry="11" style="stroke: #A80036; stroke-width: 1.0;"/><path d="M305.6,1154.5 Q305.8031,1154 306.0375,1153.75 Q306.2719,1153.5 306.5375,1153.5 Q307.0063,1153.5 307.3031,1153.7813 Q307.6,1154.0625 307.6,1154.7188 L307.6,1156.2813 Q307.6,1156.9375 307.3188,1157.2188 Q307.0375,1157.5 306.6,1157.5 Q306.2094,1157.5 305.9594,1157.3281 Q305.7094,1157.1563 305.6,1156.7031 Q305.5531,1156.3906 305.3813,1156.2188 Q305.0688,1155.8906 304.5063,1155.7031 Q303.9438,1155.5 303.3813,1155.5 Q302.6781,1155.5 302.0844,1155.7813 Q301.5063,1156.0625 301.0531,1156.6875 Q300.6,1157.3125 300.6,1158.1719 L300.6,1159.0938 Q300.6,1160.125 301.4438,1160.8125 Q302.2875,1161.5 303.7875,1161.5 Q304.6781,1161.5 305.3031,1161.2969 Q305.6625,1161.1875 306.0688,1160.8281 Q306.3344,1160.625 306.475,1160.5625 Q306.6156,1160.5 306.7875,1160.5 Q307.1156,1160.5 307.35,1160.7656 Q307.6,1161.0156 307.6,1161.375 Q307.6,1161.7188 307.2563,1162.125 Q306.7563,1162.7188 305.9594,1163.0469 Q304.9125,1163.5 303.6313,1163.5 Q302.1313,1163.5 300.9281,1162.9063 Q299.9594,1162.4375 299.2719,1161.4219 Q298.6,1160.4063 298.6,1159.2031 L298.6,1158.1094 Q298.6,1156.8594 299.1938,1155.7656 Q299.8031,1154.6719 300.85,1154.0938 Q301.9125,1153.5 303.1,1153.5 Q303.8188,1153.5 304.4438,1153.75 Q305.0688,1154 305.6,1154.5 Z "/><text fill="#000000" font-family="sans-serif" font-size="12" lengthAdjust="spacingAndGlyphs" textLength="46" x="320.4" y="1162.9102">Address</text><line style="stroke: #A80036; stroke-width: 1.5;" x1="277" x2="381" y1="1174" y2="1174"/><text fill="#000000" font-family="sans-serif" font-size="11" lengthAdjust="spacingAndGlyphs" textLength="82" x="282" y="1189.4189">-double longitude</text><text fill="#000000" font-family="sans-serif" font-size="11" lengthAdjust="spacingAndGlyphs" textLength="73" x="282" y="1203.2549">-double latitude</text><text fill="#000000" font-family="sans-serif" font-size="11" lengthAdjust="spacingAndGlyphs" textLength="94" x="282" y="1217.0908">-String doorNumber</text><text fill="#000000" font-family="sans-serif" font-size="11" lengthAdjust="spacingAndGlyphs" textLength="90" x="282" y="1230.9268">-String streetName</text><text fill="#000000" font-family="sans-serif" font-size="11" lengthAdjust="spacingAndGlyphs" textLength="89" x="282" y="1244.7627">-String postalCode</text><text fill="#000000" font-family="sans-serif" font-size="11" lengthAdjust="spacingAndGlyphs" textLength="68" x="282" y="1258.5986">-String locality</text><text fill="#000000" font-family="sans-serif" font-size="11" lengthAdjust="spacingAndGlyphs" textLength="72" x="282" y="1272.4346">-String country</text><line style="stroke: #A80036; stroke-width: 1.5;" x1="277" x2="381" y1="1278.8516" y2="1278.8516"/><!--MD5=[7f2a9fafcebe4f099f71398fd3e2ed00]
class Pharmacy--><rect fill="#FEFECE" filter="url(#fo2ql2xiqlae2)" height="89.5078" id="Pharmacy" style="stroke: #A80036; stroke-width: 1.5;" width="158" x="246" y="967.5"/><ellipse cx="293.25" cy="983.5" fill="#ADD1B2" rx="11" ry="11" style="stroke: #A80036; stroke-width: 1.0;"/><path d="M295.25,980 Q295.4531,979.5 295.6875,979.25 Q295.9219,979 296.1875,979 Q296.6563,979 296.9531,979.2813 Q297.25,979.5625 297.25,980.2188 L297.25,981.7813 Q297.25,982.4375 296.9688,982.7188 Q296.6875,983 296.25,983 Q295.8594,983 295.6094,982.8281 Q295.3594,982.6563 295.25,982.2031 Q295.2031,981.8906 295.0313,981.7188 Q294.7188,981.3906 294.1563,981.2031 Q293.5938,981 293.0313,981 Q292.3281,981 291.7344,981.2813 Q291.1563,981.5625 290.7031,982.1875 Q290.25,982.8125 290.25,983.6719 L290.25,984.5938 Q290.25,985.625 291.0938,986.3125 Q291.9375,987 293.4375,987 Q294.3281,987 294.9531,986.7969 Q295.3125,986.6875 295.7188,986.3281 Q295.9844,986.125 296.125,986.0625 Q296.2656,986 296.4375,986 Q296.7656,986 297,986.2656 Q297.25,986.5156 297.25,986.875 Q297.25,987.2188 296.9063,987.625 Q296.4063,988.2188 295.6094,988.5469 Q294.5625,989 293.2813,989 Q291.7813,989 290.5781,988.4063 Q289.6094,987.9375 288.9219,986.9219 Q288.25,985.9063 288.25,984.7031 L288.25,983.6094 Q288.25,982.3594 288.8438,981.2656 Q289.4531,980.1719 290.5,979.5938 Q291.5625,979 292.75,979 Q293.4688,979 294.0938,979.25 Q294.7188,979.5 295.25,980 Z "/><text fill="#000000" font-family="sans-serif" font-size="12" lengthAdjust="spacingAndGlyphs" textLength="55" x="313.75" y="988.4102">Pharmacy</text><line style="stroke: #A80036; stroke-width: 1.5;" x1="247" x2="403" y1="999.5" y2="999.5"/><text fill="#000000" font-family="sans-serif" font-size="11" lengthAdjust="spacingAndGlyphs" textLength="26" x="252" y="1014.9189">-int id</text><text fill="#000000" font-family="sans-serif" font-size="11" lengthAdjust="spacingAndGlyphs" textLength="61" x="252" y="1028.7549">-String name</text><line style="stroke: #A80036; stroke-width: 1.5;" x1="247" x2="403" y1="1035.1719" y2="1035.1719"/><text fill="#000000" font-family="sans-serif" font-size="11" lengthAdjust="spacingAndGlyphs" textLength="146" x="252" y="1050.5908">+getScootersList(pharmacyId)</text><!--MD5=[28160fdc0be430cd6f04db15a7547552]
class PharmacyService--><rect fill="#FEFECE" filter="url(#fo2ql2xiqlae2)" height="75.6719" id="PharmacyService" style="stroke: #A80036; stroke-width: 1.5;" width="127" x="68.5" y="419"/><ellipse cx="83.5" cy="435" fill="#ADD1B2" rx="11" ry="11" style="stroke: #A80036; stroke-width: 1.0;"/><path d="M85.5,431.5 Q85.7031,431 85.9375,430.75 Q86.1719,430.5 86.4375,430.5 Q86.9063,430.5 87.2031,430.7813 Q87.5,431.0625 87.5,431.7188 L87.5,433.2813 Q87.5,433.9375 87.2188,434.2188 Q86.9375,434.5 86.5,434.5 Q86.1094,434.5 85.8594,434.3281 Q85.6094,434.1563 85.5,433.7031 Q85.4531,433.3906 85.2813,433.2188 Q84.9688,432.8906 84.4063,432.7031 Q83.8438,432.5 83.2813,432.5 Q82.5781,432.5 81.9844,432.7813 Q81.4063,433.0625 80.9531,433.6875 Q80.5,434.3125 80.5,435.1719 L80.5,436.0938 Q80.5,437.125 81.3438,437.8125 Q82.1875,438.5 83.6875,438.5 Q84.5781,438.5 85.2031,438.2969 Q85.5625,438.1875 85.9688,437.8281 Q86.2344,437.625 86.375,437.5625 Q86.5156,437.5 86.6875,437.5 Q87.0156,437.5 87.25,437.7656 Q87.5,438.0156 87.5,438.375 Q87.5,438.7188 87.1563,439.125 Q86.6563,439.7188 85.8594,440.0469 Q84.8125,440.5 83.5313,440.5 Q82.0313,440.5 80.8281,439.9063 Q79.8594,439.4375 79.1719,438.4219 Q78.5,437.4063 78.5,436.2031 L78.5,435.1094 Q78.5,433.8594 79.0938,432.7656 Q79.7031,431.6719 80.75,431.0938 Q81.8125,430.5 83,430.5 Q83.7188,430.5 84.3438,430.75 Q84.9688,431 85.5,431.5 Z "/><text fill="#000000" font-family="sans-serif" font-size="12" lengthAdjust="spacingAndGlyphs" textLength="95" x="97.5" y="439.9102">PharmacyService</text><line style="stroke: #A80036; stroke-width: 1.5;" x1="69.5" x2="194.5" y1="451" y2="451"/><line style="stroke: #A80036; stroke-width: 1.5;" x1="69.5" x2="194.5" y1="459" y2="459"/><text fill="#000000" font-family="sans-serif" font-size="11" lengthAdjust="spacingAndGlyphs" textLength="99" x="74.5" y="474.4189">+PharmacyService()</text><text fill="#000000" font-family="sans-serif" font-size="11" lengthAdjust="spacingAndGlyphs" textLength="85" x="74.5" y="488.2549">+getPharmacies()</text><!--MD5=[aa4a745fe56463fab637f55d2a7c778f]
class ScooterService--><rect fill="#FEFECE" filter="url(#fo2ql2xiqlae2)" height="89.5078" id="ScooterService" style="stroke: #A80036; stroke-width: 1.5;" width="145" x="230.5" y="412"/><ellipse cx="259.45" cy="428" fill="#ADD1B2" rx="11" ry="11" style="stroke: #A80036; stroke-width: 1.0;"/><path d="M261.45,424.5 Q261.6531,424 261.8875,423.75 Q262.1219,423.5 262.3875,423.5 Q262.8563,423.5 263.1531,423.7813 Q263.45,424.0625 263.45,424.7188 L263.45,426.2813 Q263.45,426.9375 263.1688,427.2188 Q262.8875,427.5 262.45,427.5 Q262.0594,427.5 261.8094,427.3281 Q261.5594,427.1563 261.45,426.7031 Q261.4031,426.3906 261.2313,426.2188 Q260.9188,425.8906 260.3563,425.7031 Q259.7938,425.5 259.2313,425.5 Q258.5281,425.5 257.9344,425.7813 Q257.3563,426.0625 256.9031,426.6875 Q256.45,427.3125 256.45,428.1719 L256.45,429.0938 Q256.45,430.125 257.2938,430.8125 Q258.1375,431.5 259.6375,431.5 Q260.5281,431.5 261.1531,431.2969 Q261.5125,431.1875 261.9188,430.8281 Q262.1844,430.625 262.325,430.5625 Q262.4656,430.5 262.6375,430.5 Q262.9656,430.5 263.2,430.7656 Q263.45,431.0156 263.45,431.375 Q263.45,431.7188 263.1063,432.125 Q262.6063,432.7188 261.8094,433.0469 Q260.7625,433.5 259.4813,433.5 Q257.9813,433.5 256.7781,432.9063 Q255.8094,432.4375 255.1219,431.4219 Q254.45,430.4063 254.45,429.2031 L254.45,428.1094 Q254.45,426.8594 255.0438,425.7656 Q255.6531,424.6719 256.7,424.0938 Q257.7625,423.5 258.95,423.5 Q259.6688,423.5 260.2938,423.75 Q260.9188,424 261.45,424.5 Z "/><text fill="#000000" font-family="sans-serif" font-size="12" lengthAdjust="spacingAndGlyphs" textLength="82" x="276.55" y="432.9102">ScooterService</text><line style="stroke: #A80036; stroke-width: 1.5;" x1="231.5" x2="374.5" y1="444" y2="444"/><line style="stroke: #A80036; stroke-width: 1.5;" x1="231.5" x2="374.5" y1="452" y2="452"/><text fill="#000000" font-family="sans-serif" font-size="11" lengthAdjust="spacingAndGlyphs" textLength="89" x="236.5" y="467.4189">+ScooterService()</text><text fill="#000000" font-family="sans-serif" font-size="11" lengthAdjust="spacingAndGlyphs" textLength="90" x="236.5" y="481.2549">+getScootersList()</text><text fill="#000000" font-family="sans-serif" font-size="11" lengthAdjust="spacingAndGlyphs" textLength="133" x="236.5" y="495.0908">+removeScooter(scooterId)</text><!--MD5=[4b2d61224b33971326a22fe5d809d926]
class DataHandler--><rect fill="#FEFECE" filter="url(#fo2ql2xiqlae2)" height="75.6719" id="DataHandler" style="stroke: #A80036; stroke-width: 1.5;" width="104" x="758" y="419"/><ellipse cx="773.9" cy="435" fill="#ADD1B2" rx="11" ry="11" style="stroke: #A80036; stroke-width: 1.0;"/><path d="M775.9,431.5 Q776.1031,431 776.3375,430.75 Q776.5719,430.5 776.8375,430.5 Q777.3063,430.5 777.6031,430.7813 Q777.9,431.0625 777.9,431.7188 L777.9,433.2813 Q777.9,433.9375 777.6188,434.2188 Q777.3375,434.5 776.9,434.5 Q776.5094,434.5 776.2594,434.3281 Q776.0094,434.1563 775.9,433.7031 Q775.8531,433.3906 775.6813,433.2188 Q775.3688,432.8906 774.8063,432.7031 Q774.2438,432.5 773.6813,432.5 Q772.9781,432.5 772.3844,432.7813 Q771.8063,433.0625 771.3531,433.6875 Q770.9,434.3125 770.9,435.1719 L770.9,436.0938 Q770.9,437.125 771.7438,437.8125 Q772.5875,438.5 774.0875,438.5 Q774.9781,438.5 775.6031,438.2969 Q775.9625,438.1875 776.3688,437.8281 Q776.6344,437.625 776.775,437.5625 Q776.9156,437.5 777.0875,437.5 Q777.4156,437.5 777.65,437.7656 Q777.9,438.0156 777.9,438.375 Q777.9,438.7188 777.5563,439.125 Q777.0563,439.7188 776.2594,440.0469 Q775.2125,440.5 773.9313,440.5 Q772.4313,440.5 771.2281,439.9063 Q770.2594,439.4375 769.5719,438.4219 Q768.9,437.4063 768.9,436.2031 L768.9,435.1094 Q768.9,433.8594 769.4938,432.7656 Q770.1031,431.6719 771.15,431.0938 Q772.2125,430.5 773.4,430.5 Q774.1188,430.5 774.7438,430.75 Q775.3688,431 775.9,431.5 Z "/><text fill="#000000" font-family="sans-serif" font-size="12" lengthAdjust="spacingAndGlyphs" textLength="70" x="788.1" y="439.9102">DataHandler</text><line style="stroke: #A80036; stroke-width: 1.5;" x1="759" x2="861" y1="451" y2="451"/><line style="stroke: #A80036; stroke-width: 1.5;" x1="759" x2="861" y1="459" y2="459"/><text fill="#000000" font-family="sans-serif" font-size="11" lengthAdjust="spacingAndGlyphs" textLength="92" x="764" y="474.4189">+openConnection()</text><text fill="#000000" font-family="sans-serif" font-size="11" lengthAdjust="spacingAndGlyphs" textLength="52" x="764" y="488.2549">+closeAll()</text><!--MD5=[b860ecc58d0ca70e482845cb1f7b4615]
class PharmacyDB--><rect fill="#FEFECE" filter="url(#fo2ql2xiqlae2)" height="75.6719" id="PharmacyDB" style="stroke: #A80036; stroke-width: 1.5;" width="104" x="778" y="589"/><ellipse cx="793" cy="605" fill="#ADD1B2" rx="11" ry="11" style="stroke: #A80036; stroke-width: 1.0;"/><path d="M795,601.5 Q795.2031,601 795.4375,600.75 Q795.6719,600.5 795.9375,600.5 Q796.4063,600.5 796.7031,600.7813 Q797,601.0625 797,601.7188 L797,603.2813 Q797,603.9375 796.7188,604.2188 Q796.4375,604.5 796,604.5 Q795.6094,604.5 795.3594,604.3281 Q795.1094,604.1563 795,603.7031 Q794.9531,603.3906 794.7813,603.2188 Q794.4688,602.8906 793.9063,602.7031 Q793.3438,602.5 792.7813,602.5 Q792.0781,602.5 791.4844,602.7813 Q790.9063,603.0625 790.4531,603.6875 Q790,604.3125 790,605.1719 L790,606.0938 Q790,607.125 790.8438,607.8125 Q791.6875,608.5 793.1875,608.5 Q794.0781,608.5 794.7031,608.2969 Q795.0625,608.1875 795.4688,607.8281 Q795.7344,607.625 795.875,607.5625 Q796.0156,607.5 796.1875,607.5 Q796.5156,607.5 796.75,607.7656 Q797,608.0156 797,608.375 Q797,608.7188 796.6563,609.125 Q796.1563,609.7188 795.3594,610.0469 Q794.3125,610.5 793.0313,610.5 Q791.5313,610.5 790.3281,609.9063 Q789.3594,609.4375 788.6719,608.4219 Q788,607.4063 788,606.2031 L788,605.1094 Q788,603.8594 788.5938,602.7656 Q789.2031,601.6719 790.25,601.0938 Q791.3125,600.5 792.5,600.5 Q793.2188,600.5 793.8438,600.75 Q794.4688,601 795,601.5 Z "/><text fill="#000000" font-family="sans-serif" font-size="12" lengthAdjust="spacingAndGlyphs" textLength="72" x="807" y="609.9102">PharmacyDB</text><line style="stroke: #A80036; stroke-width: 1.5;" x1="779" x2="881" y1="621" y2="621"/><line style="stroke: #A80036; stroke-width: 1.5;" x1="779" x2="881" y1="629" y2="629"/><text fill="#000000" font-family="sans-serif" font-size="11" lengthAdjust="spacingAndGlyphs" textLength="76" x="784" y="644.4189">+PharmacyDB()</text><text fill="#000000" font-family="sans-serif" font-size="11" lengthAdjust="spacingAndGlyphs" textLength="85" x="784" y="658.2549">+getPharmacies()</text><!--MD5=[48d7298b3bd1f8b3e8f77915e881d788]
class ScooterDB--><rect fill="#FEFECE" filter="url(#fo2ql2xiqlae2)" height="89.5078" id="ScooterDB" style="stroke: #A80036; stroke-width: 1.5;" width="183" x="559.5" y="582"/><ellipse cx="617.25" cy="598" fill="#ADD1B2" rx="11" ry="11" style="stroke: #A80036; stroke-width: 1.0;"/><path d="M619.25,594.5 Q619.4531,594 619.6875,593.75 Q619.9219,593.5 620.1875,593.5 Q620.6563,593.5 620.9531,593.7813 Q621.25,594.0625 621.25,594.7188 L621.25,596.2813 Q621.25,596.9375 620.9688,597.2188 Q620.6875,597.5 620.25,597.5 Q619.8594,597.5 619.6094,597.3281 Q619.3594,597.1563 619.25,596.7031 Q619.2031,596.3906 619.0313,596.2188 Q618.7188,595.8906 618.1563,595.7031 Q617.5938,595.5 617.0313,595.5 Q616.3281,595.5 615.7344,595.7813 Q615.1563,596.0625 614.7031,596.6875 Q614.25,597.3125 614.25,598.1719 L614.25,599.0938 Q614.25,600.125 615.0938,600.8125 Q615.9375,601.5 617.4375,601.5 Q618.3281,601.5 618.9531,601.2969 Q619.3125,601.1875 619.7188,600.8281 Q619.9844,600.625 620.125,600.5625 Q620.2656,600.5 620.4375,600.5 Q620.7656,600.5 621,600.7656 Q621.25,601.0156 621.25,601.375 Q621.25,601.7188 620.9063,602.125 Q620.4063,602.7188 619.6094,603.0469 Q618.5625,603.5 617.2813,603.5 Q615.7813,603.5 614.5781,602.9063 Q613.6094,602.4375 612.9219,601.4219 Q612.25,600.4063 612.25,599.2031 L612.25,598.1094 Q612.25,596.8594 612.8438,595.7656 Q613.4531,594.6719 614.5,594.0938 Q615.5625,593.5 616.75,593.5 Q617.4688,593.5 618.0938,593.75 Q618.7188,594 619.25,594.5 Z "/><text fill="#000000" font-family="sans-serif" font-size="12" lengthAdjust="spacingAndGlyphs" textLength="59" x="637.75" y="602.9102">ScooterDB</text><line style="stroke: #A80036; stroke-width: 1.5;" x1="560.5" x2="741.5" y1="614" y2="614"/><line style="stroke: #A80036; stroke-width: 1.5;" x1="560.5" x2="741.5" y1="622" y2="622"/><text fill="#000000" font-family="sans-serif" font-size="11" lengthAdjust="spacingAndGlyphs" textLength="66" x="565.5" y="637.4189">+ScooterDB()</text><text fill="#000000" font-family="sans-serif" font-size="11" lengthAdjust="spacingAndGlyphs" textLength="146" x="565.5" y="651.2549">+getScootersList(pharmacyId)</text><text fill="#000000" font-family="sans-serif" font-size="11" lengthAdjust="spacingAndGlyphs" textLength="171" x="565.5" y="665.0908">+removeScooterFromDB(scooterId)</text><!--MD5=[f40d64c3825bdc96a4efd5b7e3ff1420]
reverse link DataHandler to PharmacyDB--><path d="M816.804,515.152 C819.702,539.494 823,567.197 825.574,588.82 " fill="none" id="DataHandler&lt;-PharmacyDB" style="stroke: #A80036; stroke-width: 1.0;"/><polygon fill="none" points="809.852,515.972,814.439,495.285,823.754,514.317,809.852,515.972" style="stroke: #A80036; stroke-width: 1.0;"/><!--MD5=[a2c65173c20bdf66914a8ed43c34e217]
reverse link DataHandler to ScooterDB--><path d="M808.038,515.34 C805.408,528.326 800.808,541.395 793,552 C785.501,562.186 765.39,574.481 742.581,586.098 " fill="none" id="DataHandler&lt;-ScooterDB" style="stroke: #A80036; stroke-width: 1.0;"/><polygon fill="none" points="801.121,514.256,810.729,495.37,814.995,516.126,801.121,514.256" style="stroke: #A80036; stroke-width: 1.0;"/><!--MD5=[d51a3d7ceb60387716e9812879733fde]
link RemoveScooterUI to RemoveScooterController--><path d="M184,108.09 C184,129.11 184,160.85 184,187.58 " fill="none" id="RemoveScooterUI-&gt;RemoveScooterController" style="stroke: #A80036; stroke-width: 1.0; stroke-dasharray: 7.0,7.0;"/><polygon fill="#A80036" points="184,192.85,188,183.85,184,187.85,180,183.85,184,192.85" style="stroke: #A80036; stroke-width: 1.0;"/><!--MD5=[ff5a4a60aaf10293bc99b1ac287cfc38]
link RemoveScooterController to PharmacyService--><path d="M173.414,283.17 C164.263,321.36 151.125,376.19 142.114,413.79 " fill="none" id="RemoveScooterController-&gt;PharmacyService" style="stroke: #A80036; stroke-width: 1.0; stroke-dasharray: 7.0,7.0;"/><polygon fill="#A80036" points="140.926,418.75,146.9013,410.9208,142.0838,413.8859,139.1187,409.0684,140.926,418.75" style="stroke: #A80036; stroke-width: 1.0;"/><!--MD5=[2ee6cd406d0851546e49c24833055b96]
link RemoveScooterController to ScooterService--><path d="M208.225,283.17 C228.011,319.26 255.944,370.19 276.358,407.42 " fill="none" id="RemoveScooterController-&gt;ScooterService" style="stroke: #A80036; stroke-width: 1.0; stroke-dasharray: 7.0,7.0;"/><polygon fill="#A80036" points="278.809,411.89,277.9961,402.0747,276.4081,407.5041,270.9787,405.9161,278.809,411.89" style="stroke: #A80036; stroke-width: 1.0;"/><!--MD5=[04ba2cb7f5803b19c0d0e740f2a895e0]
link Database to PharmacyDB--><path d="M498.518,480.75 C508.412,496.336 523.748,515.943 543,526 C560.601,535.195 612.64,529.585 632,534 C691.237,547.508 705.557,555.029 760,582 C764.437,584.198 768.95,586.603 773.437,589.119 " fill="none" id="Database-&gt;PharmacyDB" style="stroke: #A80036; stroke-width: 1.0;"/><polygon fill="#A80036" points="777.912,591.669,772.0711,583.739,773.5673,589.1945,768.1119,590.6906,777.912,591.669" style="stroke: #A80036; stroke-width: 1.0;"/><text fill="#000000" font-family="sans-serif" font-size="13" lengthAdjust="spacingAndGlyphs" textLength="53" x="695" y="548.4951">manages</text><text fill="#000000" font-family="sans-serif" font-size="13" lengthAdjust="spacingAndGlyphs" textLength="7" x="493.6034" y="501.6731">1</text><text fill="#000000" font-family="sans-serif" font-size="13" lengthAdjust="spacingAndGlyphs" textLength="7" x="763.0949" y="601.3685">1</text><!--MD5=[70f68ce34a156c56edce71dba5c758e9]
link Database to ScooterDB--><path d="M503.798,480.661 C514.71,494.186 529.193,511.495 543,526 C559.87,543.724 579.231,562.18 596.858,578.341 " fill="none" id="Database-&gt;ScooterDB" style="stroke: #A80036; stroke-width: 1.0;"/><polygon fill="#A80036" points="600.826,581.967,596.8799,572.9432,597.1348,578.5943,591.4837,578.8492,600.826,581.967" style="stroke: #A80036; stroke-width: 1.0;"/><text fill="#000000" font-family="sans-serif" font-size="13" lengthAdjust="spacingAndGlyphs" textLength="53" x="570" y="548.4951">manages</text><text fill="#000000" font-family="sans-serif" font-size="13" lengthAdjust="spacingAndGlyphs" textLength="7" x="508.7232" y="501.5635">1</text><text fill="#000000" font-family="sans-serif" font-size="13" lengthAdjust="spacingAndGlyphs" textLength="7" x="585.2717" y="571.0772">1</text><!--MD5=[ee7ed70a83e67b7f86b44988d609d45d]
link ScooterService to PharmacyDB--><path d="M282.28,502.415 C277.405,519.897 276.694,538.885 289,552 C324.882,590.241 710.099,565.884 760,582 C764.414,583.425 768.828,585.192 773.174,587.191 " fill="none" id="ScooterService-&gt;PharmacyDB" style="stroke: #A80036; stroke-width: 1.0;"/><polygon fill="#A80036" points="777.858,589.446,771.4831,581.9386,773.3527,587.2776,768.0137,589.1472,777.858,589.446" style="stroke: #A80036; stroke-width: 1.0;"/><text fill="#000000" font-family="sans-serif" font-size="13" lengthAdjust="spacingAndGlyphs" textLength="28" x="290" y="548.4951">uses</text><text fill="#000000" font-family="sans-serif" font-size="13" lengthAdjust="spacingAndGlyphs" textLength="7" x="272.0254" y="523.1444">1</text><text fill="#000000" font-family="sans-serif" font-size="13" lengthAdjust="spacingAndGlyphs" textLength="5" x="764.8325" y="580.3003">*</text><!--MD5=[799b1f05f2692ceb79e345e4105e6b42]
link PharmacyService to ScooterDB--><path d="M163.353,495.425 C182.282,515.469 208.096,538.707 236,552 C314.37,589.334 343.517,566.892 429,582 C470.102,589.264 515.32,598.077 554.16,605.901 " fill="none" id="PharmacyService-&gt;ScooterDB" style="stroke: #A80036; stroke-width: 1.0;"/><polygon fill="#A80036" points="559.352,606.949,551.3221,601.2463,554.451,605.9591,549.7382,609.088,559.352,606.949" style="stroke: #A80036; stroke-width: 1.0;"/><text fill="#000000" font-family="sans-serif" font-size="13" lengthAdjust="spacingAndGlyphs" textLength="28" x="237" y="548.4951">uses</text><text fill="#000000" font-family="sans-serif" font-size="13" lengthAdjust="spacingAndGlyphs" textLength="7" x="160.618" y="516.081">1</text><text fill="#000000" font-family="sans-serif" font-size="13" lengthAdjust="spacingAndGlyphs" textLength="5" x="546.5554" y="602.1561">*</text><!--MD5=[2ed2b43e7f6d114538396b0b10b28567]
link PharmacyService to Pharmacy--><path d="M92.4998,495.258 C82.3982,506.759 72.5519,520.087 66,534 C56.7856,553.566 59.7839,560.446 58,582 C46.7962,717.373 54.116,759.649 111,883 C121.737,906.283 122.761,915.259 143,931 C174.623,955.595 191.253,945.044 228,961 C232.284,962.86 236.641,964.829 241.017,966.869 " fill="none" id="PharmacyService-&gt;Pharmacy" style="stroke: #A80036; stroke-width: 1.0;"/><polygon fill="#A80036" points="245.77,969.109,239.3311,961.6565,241.2463,966.9793,235.9235,968.8945,245.77,969.109" style="stroke: #A80036; stroke-width: 1.0;"/><text fill="#000000" font-family="sans-serif" font-size="13" lengthAdjust="spacingAndGlyphs" textLength="111" x="58" y="718.4951">manage services of</text><text fill="#000000" font-family="sans-serif" font-size="13" lengthAdjust="spacingAndGlyphs" textLength="7" x="78.6466" y="516.1796">1</text><text fill="#000000" font-family="sans-serif" font-size="13" lengthAdjust="spacingAndGlyphs" textLength="5" x="232.9801" y="961.7461">*</text><!--MD5=[a4fc43f4c54bc2b04150642bdfef7d93]
link ScooterService to Scooter--><path d="M255.186,502.171 C242.351,511.669 227.878,520.497 213,526 C199.427,531.02 92.9138,523.457 83,534 C63.299,554.951 76.9521,572.482 103.0803,586.43 " fill="none" id="ScooterService-&gt;Scooter" style="stroke: #A80036; stroke-width: 1.0;"/><polygon fill="#A80036" points="107.736,588.815,101.5493,581.1518,103.2858,586.5355,97.9021,588.272,107.736,588.815" style="stroke: #A80036; stroke-width: 1.0;"/><text fill="#000000" font-family="sans-serif" font-size="13" lengthAdjust="spacingAndGlyphs" textLength="111" x="84" y="548.4951">manage services of</text><text fill="#000000" font-family="sans-serif" font-size="13" lengthAdjust="spacingAndGlyphs" textLength="7" x="241.2907" y="522.8677">1</text><text fill="#000000" font-family="sans-serif" font-size="13" lengthAdjust="spacingAndGlyphs" textLength="5" x="78.0189" y="578.1439">*</text><!--MD5=[51d7b9a785c9fb041ca400474ed1d998]
link Database to Pharmacy--><path d="M486.439,480.744 C486.895,546.151 482.56,739.25 421,883 C407.845,913.718 385.929,943.873 366.356,967.243 " fill="none" id="Database-Pharmacy" style="stroke: #A80036; stroke-width: 1.0;"/><text fill="#000000" font-family="sans-serif" font-size="13" lengthAdjust="spacingAndGlyphs" textLength="82" x="471" y="718.4951">has registered</text><polygon fill="#000000" points="507.5,727.3516,510.5,733.3516,513.5,727.3516,507.5,727.3516" style="stroke: #000000; stroke-width: 1.0;"/><text fill="#000000" font-family="sans-serif" font-size="13" lengthAdjust="spacingAndGlyphs" textLength="7" x="478.7311" y="501.6657">1</text><text fill="#000000" font-family="sans-serif" font-size="13" lengthAdjust="spacingAndGlyphs" textLength="5" x="367.3058" y="956.6477">*</text><!--MD5=[f4a94ba2ad2673d4959409a96e63c979]
link Database to Scooter--><path d="M457.205,480.706 C439.017,494.569 414.736,512.218 392,526 C385.201,530.121 382.835,529.939 376,534 C347.904,550.696 317.918,571.347 293.637,588.851 " fill="none" id="Database-Scooter" style="stroke: #A80036; stroke-width: 1.0;"/><polygon fill="#000000" points="384,541.6758,378,544.6758,384,547.6758,384,541.6758" style="stroke: #000000; stroke-width: 1.0;"/><text fill="#000000" font-family="sans-serif" font-size="13" lengthAdjust="spacingAndGlyphs" textLength="82" x="390" y="548.4951">has registered</text><text fill="#000000" font-family="sans-serif" font-size="13" lengthAdjust="spacingAndGlyphs" textLength="7" x="442.7368" y="501.6189">1</text><text fill="#000000" font-family="sans-serif" font-size="13" lengthAdjust="spacingAndGlyphs" textLength="5" x="297.0333" y="578.1864">*</text><!--MD5=[074a56c4439d52c76e1cc7a8f9d070a4]
link Vehicle to Battery--><path d="M161.506,883.042 C157.992,892.887 154.967,903.076 153,913 C149.957,928.352 149.344,945.313 149.814,960.771 " fill="none" id="Vehicle-Battery" style="stroke: #A80036; stroke-width: 1.0;"/><text fill="#000000" font-family="sans-serif" font-size="13" lengthAdjust="spacingAndGlyphs" textLength="21" x="154" y="927.4951">has</text><polygon fill="#000000" points="160,936.3516,163,942.3516,166,936.3516,160,936.3516" style="stroke: #000000; stroke-width: 1.0;"/><text fill="#000000" font-family="sans-serif" font-size="13" lengthAdjust="spacingAndGlyphs" textLength="7" x="150.7879" y="904.5991">1</text><text fill="#000000" font-family="sans-serif" font-size="13" lengthAdjust="spacingAndGlyphs" textLength="7" x="141.6468" y="950.2406">1</text><!--MD5=[9793812679a856b96e8ba34e2675abcc]
link Vehicle to Pharmacy--><path d="M207.232,883.214 C212.831,899.64 220.268,916.676 230,931 C238.99,944.232 250.721,956.541 262.857,967.354 " fill="none" id="Vehicle-Pharmacy" style="stroke: #A80036; stroke-width: 1.0;"/><text fill="#000000" font-family="sans-serif" font-size="13" lengthAdjust="spacingAndGlyphs" textLength="71" x="231" y="927.4951">belongs to a</text><polygon fill="#000000" points="262,936.3516,265,942.3516,268,936.3516,262,936.3516" style="stroke: #000000; stroke-width: 1.0;"/><text fill="#000000" font-family="sans-serif" font-size="13" lengthAdjust="spacingAndGlyphs" textLength="5" x="203.545" y="904.3282">*</text><text fill="#000000" font-family="sans-serif" font-size="13" lengthAdjust="spacingAndGlyphs" textLength="7" x="245.8054" y="956.7757">1</text><!--MD5=[52f80c2c106e4280525a8160ec8cd0fa]
link Scooter to Vehicle--><path d="M233.726,665.242 C226.919,689.919 217.807,722.949 209.835,751.847 " fill="none" id="Scooter-Vehicle" style="stroke: #A80036; stroke-width: 1.0;"/><text fill="#000000" font-family="sans-serif" font-size="13" lengthAdjust="spacingAndGlyphs" textLength="64" x="224" y="718.4951">is a type of</text><polygon fill="#000000" points="251.5,727.3516,254.5,733.3516,257.5,727.3516,251.5,727.3516" style="stroke: #000000; stroke-width: 1.0;"/><text fill="#000000" font-family="sans-serif" font-size="13" lengthAdjust="spacingAndGlyphs" textLength="5" x="226.6901" y="686.1611">*</text><text fill="#000000" font-family="sans-serif" font-size="13" lengthAdjust="spacingAndGlyphs" textLength="7" x="204.4029" y="741.3047">1</text><!--MD5=[6f1b2737b94c689eac8b0af6a5ef1443]
link Scooter to Pharmacy--><path d="M284.905,665.188 C294.896,676.595 304.334,689.892 310,704 C345.359,792.036 338.896,905.821 331.608,967.325 " fill="none" id="Scooter-Pharmacy" style="stroke: #A80036; stroke-width: 1.0;"/><text fill="#000000" font-family="sans-serif" font-size="13" lengthAdjust="spacingAndGlyphs" textLength="60" x="339" y="822.9951">belongs to</text><polygon fill="#000000" points="364.5,831.8516,367.5,837.8516,370.5,831.8516,364.5,831.8516" style="stroke: #000000; stroke-width: 1.0;"/><text fill="#000000" font-family="sans-serif" font-size="13" lengthAdjust="spacingAndGlyphs" textLength="5" x="286.0258" y="686.0985">*</text><text fill="#000000" font-family="sans-serif" font-size="13" lengthAdjust="spacingAndGlyphs" textLength="7" x="325.0839" y="956.7423">1</text><!--MD5=[89baec1bfb4a213750f7c61516e0a0f1]
link Pharmacy to Address--><path d="M325.888,1057.886 C326.38,1082.514 327.005,1113.74 327.565,1141.746 " fill="none" id="Pharmacy-Address" style="stroke: #A80036; stroke-width: 1.0;"/><text fill="#000000" font-family="sans-serif" font-size="13" lengthAdjust="spacingAndGlyphs" textLength="21" x="328" y="1108.4951">has</text><polygon fill="#000000" points="334,1117.3516,337,1123.3516,340,1117.3516,334,1117.3516" style="stroke: #000000; stroke-width: 1.0;"/><text fill="#000000" font-family="sans-serif" font-size="13" lengthAdjust="spacingAndGlyphs" textLength="7" x="318.537" y="1078.6116">1</text><text fill="#000000" font-family="sans-serif" font-size="13" lengthAdjust="spacingAndGlyphs" textLength="7" x="320.0561" y="1130.9391">1</text><!--MD5=[e7daa03d92f0a94af078cf78578db78d]
link Pharmacy to ScooterPark--><path d="M293.929,1057.886 C267.185,1096.093 229.323,1150.182 206.007,1183.49 " fill="none" id="Pharmacy-ScooterPark" style="stroke: #A80036; stroke-width: 1.0;"/><text fill="#000000" font-family="sans-serif" font-size="13" lengthAdjust="spacingAndGlyphs" textLength="21" x="269" y="1108.4951">has</text><polygon fill="#000000" points="275,1117.3516,278,1123.3516,281,1117.3516,275,1117.3516" style="stroke: #000000; stroke-width: 1.0;"/><text fill="#000000" font-family="sans-serif" font-size="13" lengthAdjust="spacingAndGlyphs" textLength="7" x="282.2835" y="1078.6116">1</text><text fill="#000000" font-family="sans-serif" font-size="13" lengthAdjust="spacingAndGlyphs" textLength="7" x="202.8367" y="1172.5081">1</text><!--MD5=[6c03f80bb0eb412de4ede466470bd7f4]
link ScooterPark to ScooterChargingSlot--><path d="M176.855,1245.88 C168.139,1278.393 154.305,1329.993 144.95,1364.888 " fill="none" id="ScooterPark-ScooterChargingSlot" style="stroke: #A80036; stroke-width: 1.0;"/><text fill="#000000" font-family="sans-serif" font-size="13" lengthAdjust="spacingAndGlyphs" textLength="21" x="159" y="1331.4951">has</text><polygon fill="#000000" points="165,1340.3516,168,1346.3516,171,1340.3516,165,1340.3516" style="stroke: #000000; stroke-width: 1.0;"/><text fill="#000000" font-family="sans-serif" font-size="13" lengthAdjust="spacingAndGlyphs" textLength="7" x="167.6352" y="1266.9311">1</text><text fill="#000000" font-family="sans-serif" font-size="13" lengthAdjust="spacingAndGlyphs" textLength="7" x="139.0989" y="1354.23">1</text><!--MD5=[8b5c72ddee54db66c8e770f45750c925]
link ScooterPark to ScooterParkingSlot--><path d="M205.687,1245.88 C229.374,1280.664 267.937,1337.294 291.532,1371.943 " fill="none" id="ScooterPark-ScooterParkingSlot" style="stroke: #A80036; stroke-width: 1.0;"/><text fill="#000000" font-family="sans-serif" font-size="13" lengthAdjust="spacingAndGlyphs" textLength="21" x="265" y="1331.4951">has</text><polygon fill="#000000" points="271,1340.3516,274,1346.3516,277,1340.3516,271,1340.3516" style="stroke: #000000; stroke-width: 1.0;"/><text fill="#000000" font-family="sans-serif" font-size="13" lengthAdjust="spacingAndGlyphs" textLength="7" x="201.9633" y="1266.9311">1</text><text fill="#000000" font-family="sans-serif" font-size="13" lengthAdjust="spacingAndGlyphs" textLength="7" x="279.289" y="1360.9508">1</text><!--MD5=[92b4e415bbea60b6e260189ee50aa538]
@startuml
skinparam classAttributeIconSize 0

database Database {
}

package "UI" #DDDDDD {
class RemoveScooterUI{
}
}

package "Controller" #DDDDDD {
class RemoveScooterController{
+showPharmacies()
+showScootersList(pharmacyId)
+removeScooter(scooterId)
}
}


package "Model" #DDDDDD {
 package "Service" #DDDDDD {
  class PharmacyService{
      +PharmacyService()
      +getPharmacies()
  }

  class ScooterService{
      +ScooterService()
      +getScootersList()
      +removeScooter(scooterId)
   }
}

package "Model" #DDDDDD {
class ScooterPark{
-   int maxSlotsNumber
}

class ScooterChargingSlot{
-   int id
-   float outputPower
}

class ScooterParkingSlot{
-   int id
}

class Scooter{
+Scooter(batteryPerc, charginStatus, potency,\n weight, batteryCapacity, maxPayload, batteryVoltage, pharmacyId)

}

class Vehicle{
  -int id
  -String vehicleType
  -float potency
  -float weight
  -float maxPayload
  -String charngingStatus
}

class Battery{
  -int id
  -float batteryPerc
  -int batteryCapacity
  -float batteryVoltage
}

class Address{
  -double longitude
  -double latitude
  -String doorNumber
  -String streetName
  -String postalCode
  -String locality
  -String country
}

class Pharmacy {
  -int id
  -String name
  +getScootersList(pharmacyId)
}
}


package "Data" #DDDDDD {
class DataHandler{
    +openConnection()
    +closeAll()
}
class PharmacyDB{
     +PharmacyDB()
     +getPharmacies()
 }

 class ScooterDB{
     +ScooterDB()
     +getScootersList(pharmacyId)
     +removeScooterFromDB(scooterId)
  }
}

class PharmacyDB extends DataHandler
class ScooterDB extends DataHandler

RemoveScooterUI ..> RemoveScooterController
RemoveScooterController ..> PharmacyService
RemoveScooterController ..> ScooterService
Database "1" - -> "1" PharmacyDB : manages
Database "1" - -> "1" ScooterDB : manages
ScooterService "1" - -> "*" PharmacyDB : uses
PharmacyService "1" - -> "*" ScooterDB : uses
PharmacyService "1" - -> "*" Pharmacy : manage services of
ScooterService "1" - -> "*" Scooter : manage services of

Database "1" - - "*" Pharmacy : has registered >
Database "1" - - "*" Scooter : has registered >

Vehicle "1" - - "1" Battery : has >
Vehicle "*" - - "1" Pharmacy : belongs to a >
Scooter "*" - - "1" Vehicle : is a type of >
Scooter "*" - - "1" Pharmacy : belongs to >
Pharmacy "1" - - "1" Address : has >
Pharmacy "1" - - "1" ScooterPark : has >
ScooterPark "1" - - "1" ScooterChargingSlot : has >
ScooterPark "1" - - "1" ScooterParkingSlot : has >

@enduml

PlantUML version 1.2020.09(Sun May 10 11:51:06 BST 2020)
(GPL source distribution)
Java Runtime: OpenJDK Runtime Environment
JVM: OpenJDK 64-Bit Server VM
Java Version: 11.0.6+8-b765.40
Operating System: Windows 10
Default Encoding: Cp1252
Language: pt
Country: PT
--></g></svg>