<?xml version="1.0" encoding="UTF-8" standalone="no"?><svg xmlns="http://www.w3.org/2000/svg" xmlns:xlink="http://www.w3.org/1999/xlink" contentScriptType="application/ecmascript" contentStyleType="text/css" height="992px" preserveAspectRatio="none" style="width:1426px;height:992px;" version="1.1" viewBox="0 0 1426 992" width="1426px" zoomAndPan="magnify"><defs><filter height="300%" id="fmy9rk90vwlij" width="300%" x="-1" y="-1"><feGaussianBlur result="blurOut" stdDeviation="2.0"/><feColorMatrix in="blurOut" result="blurOut2" type="matrix" values="0 0 0 0 0 0 0 0 0 0 0 0 0 0 0 0 0 0 .4 0"/><feOffset dx="4.0" dy="4.0" in="blurOut2" result="blurOut3"/><feBlend in="SourceGraphic" in2="blurOut3" mode="normal"/></filter></defs><g><!--MD5=[9681dc6e01e10c6b4fe06895ae94f592]
cluster UI--><polygon fill="#DDDDDD" filter="url(#fmy9rk90vwlij)" points="43,24,63,24,70,47.6094,207,47.6094,207,124,43,124,43,24" style="stroke: #000000; stroke-width: 1.5;"/><line style="stroke: #000000; stroke-width: 1.5;" x1="43" x2="70" y1="47.6094" y2="47.6094"/><text fill="#000000" font-family="sans-serif" font-size="14" font-weight="bold" lengthAdjust="spacingAndGlyphs" textLength="14" x="47" y="40.5332">UI</text><!--MD5=[1f2cfc53d9d308f53762fd0fcbaa4873]
cluster Controller--><polygon fill="#DDDDDD" filter="url(#fmy9rk90vwlij)" points="22,157,99,157,106,180.6094,228,180.6094,228,299,22,299,22,157" style="stroke: #000000; stroke-width: 1.5;"/><line style="stroke: #000000; stroke-width: 1.5;" x1="22" x2="106" y1="180.6094" y2="180.6094"/><text fill="#000000" font-family="sans-serif" font-size="14" font-weight="bold" lengthAdjust="spacingAndGlyphs" textLength="71" x="26" y="173.5332">Controller</text><!--MD5=[15636c1ca4a123c16a2a1a8e90aca7a9]
cluster Model--><polygon fill="#DDDDDD" filter="url(#fmy9rk90vwlij)" points="279,349,329,349,336,372.6094,1015,372.6094,1015,980,279,980,279,349" style="stroke: #000000; stroke-width: 1.5;"/><line style="stroke: #000000; stroke-width: 1.5;" x1="279" x2="336" y1="372.6094" y2="372.6094"/><text fill="#000000" font-family="sans-serif" font-size="14" font-weight="bold" lengthAdjust="spacingAndGlyphs" textLength="44" x="283" y="365.5332">Model</text><!--MD5=[9dd75fd92da113d30380b27734fd2f01]
cluster Service--><polygon fill="#DDDDDD" filter="url(#fmy9rk90vwlij)" points="303,397,363,397,370,420.6094,643,420.6094,643,539,303,539,303,397" style="stroke: #000000; stroke-width: 1.5;"/><line style="stroke: #000000; stroke-width: 1.5;" x1="303" x2="370" y1="420.6094" y2="420.6094"/><text fill="#000000" font-family="sans-serif" font-size="14" font-weight="bold" lengthAdjust="spacingAndGlyphs" textLength="54" x="307" y="413.5332">Service</text><!--MD5=[f21b1f164e99c6b37934f23ad048ad54]
cluster Data--><polygon fill="#DDDDDD" filter="url(#fmy9rk90vwlij)" points="1049,404,1086,404,1093,427.6094,1404,427.6094,1404,755,1049,755,1049,404" style="stroke: #000000; stroke-width: 1.5;"/><line style="stroke: #000000; stroke-width: 1.5;" x1="1049" x2="1093" y1="427.6094" y2="427.6094"/><text fill="#000000" font-family="sans-serif" font-size="14" font-weight="bold" lengthAdjust="spacingAndGlyphs" textLength="31" x="1053" y="420.5332">Data</text><!--MD5=[fa1e3283224feb76407c84b7e90ed808]
entity Database--><path d="M967.5,224.5 C967.5,214.5 1008,214.5 1008,214.5 C1008,214.5 1048.5,214.5 1048.5,224.5 L1048.5,251.1094 C1048.5,261.1094 1008,261.1094 1008,261.1094 C1008,261.1094 967.5,261.1094 967.5,251.1094 L967.5,224.5 " fill="#FFFFFF" filter="url(#fmy9rk90vwlij)" style="stroke: #000000; stroke-width: 1.5;"/><path d="M967.5,224.5 C967.5,234.5 1008,234.5 1008,234.5 C1008,234.5 1048.5,234.5 1048.5,224.5 " fill="none" style="stroke: #000000; stroke-width: 1.5;"/><text fill="#000000" font-family="sans-serif" font-size="14" lengthAdjust="spacingAndGlyphs" textLength="61" x="977.5" y="253.0332">Database</text><!--MD5=[6e833f4d304e2534fd2d5c5fc5d919d8]
class RemoveScooterUI--><rect fill="#FEFECE" filter="url(#fmy9rk90vwlij)" height="48" id="RemoveScooterUI" style="stroke: #A80036; stroke-width: 1.5;" width="132" x="59" y="60"/><ellipse cx="74" cy="76" fill="#ADD1B2" rx="11" ry="11" style="stroke: #A80036; stroke-width: 1.0;"/><path d="M76,72.5 Q76.2031,72 76.4375,71.75 Q76.6719,71.5 76.9375,71.5 Q77.4063,71.5 77.7031,71.7813 Q78,72.0625 78,72.7188 L78,74.2813 Q78,74.9375 77.7188,75.2188 Q77.4375,75.5 77,75.5 Q76.6094,75.5 76.3594,75.3281 Q76.1094,75.1563 76,74.7031 Q75.9531,74.3906 75.7813,74.2188 Q75.4688,73.8906 74.9063,73.7031 Q74.3438,73.5 73.7813,73.5 Q73.0781,73.5 72.4844,73.7813 Q71.9063,74.0625 71.4531,74.6875 Q71,75.3125 71,76.1719 L71,77.0938 Q71,78.125 71.8438,78.8125 Q72.6875,79.5 74.1875,79.5 Q75.0781,79.5 75.7031,79.2969 Q76.0625,79.1875 76.4688,78.8281 Q76.7344,78.625 76.875,78.5625 Q77.0156,78.5 77.1875,78.5 Q77.5156,78.5 77.75,78.7656 Q78,79.0156 78,79.375 Q78,79.7188 77.6563,80.125 Q77.1563,80.7188 76.3594,81.0469 Q75.3125,81.5 74.0313,81.5 Q72.5313,81.5 71.3281,80.9063 Q70.3594,80.4375 69.6719,79.4219 Q69,78.4063 69,77.2031 L69,76.1094 Q69,74.8594 69.5938,73.7656 Q70.2031,72.6719 71.25,72.0938 Q72.3125,71.5 73.5,71.5 Q74.2188,71.5 74.8438,71.75 Q75.4688,72 76,72.5 Z "/><text fill="#000000" font-family="sans-serif" font-size="12" lengthAdjust="spacingAndGlyphs" textLength="100" x="88" y="80.9102">RemoveScooterUI</text><line style="stroke: #A80036; stroke-width: 1.5;" x1="60" x2="190" y1="92" y2="92"/><line style="stroke: #A80036; stroke-width: 1.5;" x1="60" x2="190" y1="100" y2="100"/><!--MD5=[bac027668d924653165cf48795e5a572]
class RemoveScooterController--><rect fill="#FEFECE" filter="url(#fmy9rk90vwlij)" height="89.5078" id="RemoveScooterController" style="stroke: #A80036; stroke-width: 1.5;" width="174" x="38" y="193"/><ellipse cx="53" cy="209" fill="#ADD1B2" rx="11" ry="11" style="stroke: #A80036; stroke-width: 1.0;"/><path d="M55,205.5 Q55.2031,205 55.4375,204.75 Q55.6719,204.5 55.9375,204.5 Q56.4063,204.5 56.7031,204.7813 Q57,205.0625 57,205.7188 L57,207.2813 Q57,207.9375 56.7188,208.2188 Q56.4375,208.5 56,208.5 Q55.6094,208.5 55.3594,208.3281 Q55.1094,208.1563 55,207.7031 Q54.9531,207.3906 54.7813,207.2188 Q54.4688,206.8906 53.9063,206.7031 Q53.3438,206.5 52.7813,206.5 Q52.0781,206.5 51.4844,206.7813 Q50.9063,207.0625 50.4531,207.6875 Q50,208.3125 50,209.1719 L50,210.0938 Q50,211.125 50.8438,211.8125 Q51.6875,212.5 53.1875,212.5 Q54.0781,212.5 54.7031,212.2969 Q55.0625,212.1875 55.4688,211.8281 Q55.7344,211.625 55.875,211.5625 Q56.0156,211.5 56.1875,211.5 Q56.5156,211.5 56.75,211.7656 Q57,212.0156 57,212.375 Q57,212.7188 56.6563,213.125 Q56.1563,213.7188 55.3594,214.0469 Q54.3125,214.5 53.0313,214.5 Q51.5313,214.5 50.3281,213.9063 Q49.3594,213.4375 48.6719,212.4219 Q48,211.4063 48,210.2031 L48,209.1094 Q48,207.8594 48.5938,206.7656 Q49.2031,205.6719 50.25,205.0938 Q51.3125,204.5 52.5,204.5 Q53.2188,204.5 53.8438,204.75 Q54.4688,205 55,205.5 Z "/><text fill="#000000" font-family="sans-serif" font-size="12" lengthAdjust="spacingAndGlyphs" textLength="142" x="67" y="213.9102">RemoveScooterController</text><line style="stroke: #A80036; stroke-width: 1.5;" x1="39" x2="211" y1="225" y2="225"/><line style="stroke: #A80036; stroke-width: 1.5;" x1="39" x2="211" y1="233" y2="233"/><text fill="#000000" font-family="sans-serif" font-size="11" lengthAdjust="spacingAndGlyphs" textLength="98" x="44" y="248.4189">+showPharmacies()</text><text fill="#000000" font-family="sans-serif" font-size="11" lengthAdjust="spacingAndGlyphs" textLength="159" x="44" y="262.2549">+showScootersList(pharmacyId)</text><text fill="#000000" font-family="sans-serif" font-size="11" lengthAdjust="spacingAndGlyphs" textLength="133" x="44" y="276.0908">+removeScooter(scooterId)</text><!--MD5=[f4402668d5d5bb8485350c0fdb60ac8e]
class Scooter--><rect fill="#FEFECE" filter="url(#fmy9rk90vwlij)" height="186.3594" id="Scooter" style="stroke: #A80036; stroke-width: 1.5;" width="337" x="661.5" y="385"/><ellipse cx="804.75" cy="401" fill="#ADD1B2" rx="11" ry="11" style="stroke: #A80036; stroke-width: 1.0;"/><path d="M806.75,397.5 Q806.9531,397 807.1875,396.75 Q807.4219,396.5 807.6875,396.5 Q808.1563,396.5 808.4531,396.7813 Q808.75,397.0625 808.75,397.7188 L808.75,399.2813 Q808.75,399.9375 808.4688,400.2188 Q808.1875,400.5 807.75,400.5 Q807.3594,400.5 807.1094,400.3281 Q806.8594,400.1563 806.75,399.7031 Q806.7031,399.3906 806.5313,399.2188 Q806.2188,398.8906 805.6563,398.7031 Q805.0938,398.5 804.5313,398.5 Q803.8281,398.5 803.2344,398.7813 Q802.6563,399.0625 802.2031,399.6875 Q801.75,400.3125 801.75,401.1719 L801.75,402.0938 Q801.75,403.125 802.5938,403.8125 Q803.4375,404.5 804.9375,404.5 Q805.8281,404.5 806.4531,404.2969 Q806.8125,404.1875 807.2188,403.8281 Q807.4844,403.625 807.625,403.5625 Q807.7656,403.5 807.9375,403.5 Q808.2656,403.5 808.5,403.7656 Q808.75,404.0156 808.75,404.375 Q808.75,404.7188 808.4063,405.125 Q807.9063,405.7188 807.1094,406.0469 Q806.0625,406.5 804.7813,406.5 Q803.2813,406.5 802.0781,405.9063 Q801.1094,405.4375 800.4219,404.4219 Q799.75,403.4063 799.75,402.2031 L799.75,401.1094 Q799.75,399.8594 800.3438,398.7656 Q800.9531,397.6719 802,397.0938 Q803.0625,396.5 804.25,396.5 Q804.9688,396.5 805.5938,396.75 Q806.2188,397 806.75,397.5 Z "/><text fill="#000000" font-family="sans-serif" font-size="12" lengthAdjust="spacingAndGlyphs" textLength="42" x="825.25" y="405.9102">Scooter</text><line style="stroke: #A80036; stroke-width: 1.5;" x1="662.5" x2="997.5" y1="417" y2="417"/><text fill="#000000" font-family="sans-serif" font-size="11" lengthAdjust="spacingAndGlyphs" textLength="26" x="667.5" y="432.4189">-int id</text><text fill="#000000" font-family="sans-serif" font-size="11" lengthAdjust="spacingAndGlyphs" textLength="84" x="667.5" y="446.2549">-float batteryPerc</text><text fill="#000000" font-family="sans-serif" font-size="11" lengthAdjust="spacingAndGlyphs" textLength="102" x="667.5" y="460.0908">-String charginStatus</text><text fill="#000000" font-family="sans-serif" font-size="11" lengthAdjust="spacingAndGlyphs" textLength="67" x="667.5" y="473.9268">-float potency</text><text fill="#000000" font-family="sans-serif" font-size="11" lengthAdjust="spacingAndGlyphs" textLength="61" x="667.5" y="487.7627">-float weight</text><text fill="#000000" font-family="sans-serif" font-size="11" lengthAdjust="spacingAndGlyphs" textLength="94" x="667.5" y="501.5986">-int batteryCapacity</text><text fill="#000000" font-family="sans-serif" font-size="11" lengthAdjust="spacingAndGlyphs" textLength="86" x="667.5" y="515.4346">-float maxPayload</text><text fill="#000000" font-family="sans-serif" font-size="11" lengthAdjust="spacingAndGlyphs" textLength="99" x="667.5" y="529.2705">-float batteryVoltage</text><line style="stroke: #A80036; stroke-width: 1.5;" x1="662.5" x2="997.5" y1="535.6875" y2="535.6875"/><text fill="#000000" font-family="sans-serif" font-size="11" lengthAdjust="spacingAndGlyphs" textLength="225" x="667.5" y="551.1064">+Scooter(batteryPerc, charginStatus, potency,</text><text fill="#000000" font-family="sans-serif" font-size="11" lengthAdjust="spacingAndGlyphs" textLength="322" x="670.5" y="564.9424">weight, batteryCapacity, maxPayload, batteryVoltage, pharmacyId)</text><!--MD5=[0f39e4cb6f03951afbf6d14bd2505654]
class Address--><rect fill="#FEFECE" filter="url(#fmy9rk90vwlij)" height="144.8516" id="Address" style="stroke: #A80036; stroke-width: 1.5;" width="106" x="510" y="819"/><ellipse cx="537.6" cy="835" fill="#ADD1B2" rx="11" ry="11" style="stroke: #A80036; stroke-width: 1.0;"/><path d="M539.6,831.5 Q539.8031,831 540.0375,830.75 Q540.2719,830.5 540.5375,830.5 Q541.0063,830.5 541.3031,830.7813 Q541.6,831.0625 541.6,831.7188 L541.6,833.2813 Q541.6,833.9375 541.3188,834.2188 Q541.0375,834.5 540.6,834.5 Q540.2094,834.5 539.9594,834.3281 Q539.7094,834.1563 539.6,833.7031 Q539.5531,833.3906 539.3813,833.2188 Q539.0688,832.8906 538.5063,832.7031 Q537.9438,832.5 537.3813,832.5 Q536.6781,832.5 536.0844,832.7813 Q535.5063,833.0625 535.0531,833.6875 Q534.6,834.3125 534.6,835.1719 L534.6,836.0938 Q534.6,837.125 535.4438,837.8125 Q536.2875,838.5 537.7875,838.5 Q538.6781,838.5 539.3031,838.2969 Q539.6625,838.1875 540.0688,837.8281 Q540.3344,837.625 540.475,837.5625 Q540.6156,837.5 540.7875,837.5 Q541.1156,837.5 541.35,837.7656 Q541.6,838.0156 541.6,838.375 Q541.6,838.7188 541.2563,839.125 Q540.7563,839.7188 539.9594,840.0469 Q538.9125,840.5 537.6313,840.5 Q536.1313,840.5 534.9281,839.9063 Q533.9594,839.4375 533.2719,838.4219 Q532.6,837.4063 532.6,836.2031 L532.6,835.1094 Q532.6,833.8594 533.1938,832.7656 Q533.8031,831.6719 534.85,831.0938 Q535.9125,830.5 537.1,830.5 Q537.8188,830.5 538.4438,830.75 Q539.0688,831 539.6,831.5 Z "/><text fill="#000000" font-family="sans-serif" font-size="12" lengthAdjust="spacingAndGlyphs" textLength="46" x="554.4" y="839.9102">Address</text><line style="stroke: #A80036; stroke-width: 1.5;" x1="511" x2="615" y1="851" y2="851"/><text fill="#000000" font-family="sans-serif" font-size="11" lengthAdjust="spacingAndGlyphs" textLength="71" x="516" y="866.4189">-float longitude</text><text fill="#000000" font-family="sans-serif" font-size="11" lengthAdjust="spacingAndGlyphs" textLength="62" x="516" y="880.2549">-float latitude</text><text fill="#000000" font-family="sans-serif" font-size="11" lengthAdjust="spacingAndGlyphs" textLength="94" x="516" y="894.0908">-String doorNumber</text><text fill="#000000" font-family="sans-serif" font-size="11" lengthAdjust="spacingAndGlyphs" textLength="90" x="516" y="907.9268">-String streetName</text><text fill="#000000" font-family="sans-serif" font-size="11" lengthAdjust="spacingAndGlyphs" textLength="89" x="516" y="921.7627">-String postalCode</text><text fill="#000000" font-family="sans-serif" font-size="11" lengthAdjust="spacingAndGlyphs" textLength="68" x="516" y="935.5986">-String locality</text><text fill="#000000" font-family="sans-serif" font-size="11" lengthAdjust="spacingAndGlyphs" textLength="72" x="516" y="949.4346">-String country</text><line style="stroke: #A80036; stroke-width: 1.5;" x1="511" x2="615" y1="955.8516" y2="955.8516"/><!--MD5=[7f2a9fafcebe4f099f71398fd3e2ed00]
class Pharmacy--><rect fill="#FEFECE" filter="url(#fmy9rk90vwlij)" height="89.5078" id="Pharmacy" style="stroke: #A80036; stroke-width: 1.5;" width="158" x="484" y="649"/><ellipse cx="531.25" cy="665" fill="#ADD1B2" rx="11" ry="11" style="stroke: #A80036; stroke-width: 1.0;"/><path d="M533.25,661.5 Q533.4531,661 533.6875,660.75 Q533.9219,660.5 534.1875,660.5 Q534.6563,660.5 534.9531,660.7813 Q535.25,661.0625 535.25,661.7188 L535.25,663.2813 Q535.25,663.9375 534.9688,664.2188 Q534.6875,664.5 534.25,664.5 Q533.8594,664.5 533.6094,664.3281 Q533.3594,664.1563 533.25,663.7031 Q533.2031,663.3906 533.0313,663.2188 Q532.7188,662.8906 532.1563,662.7031 Q531.5938,662.5 531.0313,662.5 Q530.3281,662.5 529.7344,662.7813 Q529.1563,663.0625 528.7031,663.6875 Q528.25,664.3125 528.25,665.1719 L528.25,666.0938 Q528.25,667.125 529.0938,667.8125 Q529.9375,668.5 531.4375,668.5 Q532.3281,668.5 532.9531,668.2969 Q533.3125,668.1875 533.7188,667.8281 Q533.9844,667.625 534.125,667.5625 Q534.2656,667.5 534.4375,667.5 Q534.7656,667.5 535,667.7656 Q535.25,668.0156 535.25,668.375 Q535.25,668.7188 534.9063,669.125 Q534.4063,669.7188 533.6094,670.0469 Q532.5625,670.5 531.2813,670.5 Q529.7813,670.5 528.5781,669.9063 Q527.6094,669.4375 526.9219,668.4219 Q526.25,667.4063 526.25,666.2031 L526.25,665.1094 Q526.25,663.8594 526.8438,662.7656 Q527.4531,661.6719 528.5,661.0938 Q529.5625,660.5 530.75,660.5 Q531.4688,660.5 532.0938,660.75 Q532.7188,661 533.25,661.5 Z "/><text fill="#000000" font-family="sans-serif" font-size="12" lengthAdjust="spacingAndGlyphs" textLength="55" x="551.75" y="669.9102">Pharmacy</text><line style="stroke: #A80036; stroke-width: 1.5;" x1="485" x2="641" y1="681" y2="681"/><text fill="#000000" font-family="sans-serif" font-size="11" lengthAdjust="spacingAndGlyphs" textLength="26" x="490" y="696.4189">-int id</text><text fill="#000000" font-family="sans-serif" font-size="11" lengthAdjust="spacingAndGlyphs" textLength="61" x="490" y="710.2549">-String name</text><line style="stroke: #A80036; stroke-width: 1.5;" x1="485" x2="641" y1="716.6719" y2="716.6719"/><text fill="#000000" font-family="sans-serif" font-size="11" lengthAdjust="spacingAndGlyphs" textLength="146" x="490" y="732.0908">+getScootersList(pharmacyId)</text><!--MD5=[28160fdc0be430cd6f04db15a7547552]
class PharmacyService--><rect fill="#FEFECE" filter="url(#fmy9rk90vwlij)" height="75.6719" id="PharmacyService" style="stroke: #A80036; stroke-width: 1.5;" width="127" x="499.5" y="440"/><ellipse cx="514.5" cy="456" fill="#ADD1B2" rx="11" ry="11" style="stroke: #A80036; stroke-width: 1.0;"/><path d="M516.5,452.5 Q516.7031,452 516.9375,451.75 Q517.1719,451.5 517.4375,451.5 Q517.9063,451.5 518.2031,451.7813 Q518.5,452.0625 518.5,452.7188 L518.5,454.2813 Q518.5,454.9375 518.2188,455.2188 Q517.9375,455.5 517.5,455.5 Q517.1094,455.5 516.8594,455.3281 Q516.6094,455.1563 516.5,454.7031 Q516.4531,454.3906 516.2813,454.2188 Q515.9688,453.8906 515.4063,453.7031 Q514.8438,453.5 514.2813,453.5 Q513.5781,453.5 512.9844,453.7813 Q512.4063,454.0625 511.9531,454.6875 Q511.5,455.3125 511.5,456.1719 L511.5,457.0938 Q511.5,458.125 512.3438,458.8125 Q513.1875,459.5 514.6875,459.5 Q515.5781,459.5 516.2031,459.2969 Q516.5625,459.1875 516.9688,458.8281 Q517.2344,458.625 517.375,458.5625 Q517.5156,458.5 517.6875,458.5 Q518.0156,458.5 518.25,458.7656 Q518.5,459.0156 518.5,459.375 Q518.5,459.7188 518.1563,460.125 Q517.6563,460.7188 516.8594,461.0469 Q515.8125,461.5 514.5313,461.5 Q513.0313,461.5 511.8281,460.9063 Q510.8594,460.4375 510.1719,459.4219 Q509.5,458.4063 509.5,457.2031 L509.5,456.1094 Q509.5,454.8594 510.0938,453.7656 Q510.7031,452.6719 511.75,452.0938 Q512.8125,451.5 514,451.5 Q514.7188,451.5 515.3438,451.75 Q515.9688,452 516.5,452.5 Z "/><text fill="#000000" font-family="sans-serif" font-size="12" lengthAdjust="spacingAndGlyphs" textLength="95" x="528.5" y="460.9102">PharmacyService</text><line style="stroke: #A80036; stroke-width: 1.5;" x1="500.5" x2="625.5" y1="472" y2="472"/><line style="stroke: #A80036; stroke-width: 1.5;" x1="500.5" x2="625.5" y1="480" y2="480"/><text fill="#000000" font-family="sans-serif" font-size="11" lengthAdjust="spacingAndGlyphs" textLength="99" x="505.5" y="495.4189">+PharmacyService()</text><text fill="#000000" font-family="sans-serif" font-size="11" lengthAdjust="spacingAndGlyphs" textLength="85" x="505.5" y="509.2549">+getPharmacies()</text><!--MD5=[aa4a745fe56463fab637f55d2a7c778f]
class ScooterService--><rect fill="#FEFECE" filter="url(#fmy9rk90vwlij)" height="89.5078" id="ScooterService" style="stroke: #A80036; stroke-width: 1.5;" width="145" x="319.5" y="433"/><ellipse cx="348.45" cy="449" fill="#ADD1B2" rx="11" ry="11" style="stroke: #A80036; stroke-width: 1.0;"/><path d="M350.45,445.5 Q350.6531,445 350.8875,444.75 Q351.1219,444.5 351.3875,444.5 Q351.8563,444.5 352.1531,444.7813 Q352.45,445.0625 352.45,445.7188 L352.45,447.2813 Q352.45,447.9375 352.1688,448.2188 Q351.8875,448.5 351.45,448.5 Q351.0594,448.5 350.8094,448.3281 Q350.5594,448.1563 350.45,447.7031 Q350.4031,447.3906 350.2313,447.2188 Q349.9188,446.8906 349.3563,446.7031 Q348.7938,446.5 348.2313,446.5 Q347.5281,446.5 346.9344,446.7813 Q346.3563,447.0625 345.9031,447.6875 Q345.45,448.3125 345.45,449.1719 L345.45,450.0938 Q345.45,451.125 346.2938,451.8125 Q347.1375,452.5 348.6375,452.5 Q349.5281,452.5 350.1531,452.2969 Q350.5125,452.1875 350.9188,451.8281 Q351.1844,451.625 351.325,451.5625 Q351.4656,451.5 351.6375,451.5 Q351.9656,451.5 352.2,451.7656 Q352.45,452.0156 352.45,452.375 Q352.45,452.7188 352.1063,453.125 Q351.6063,453.7188 350.8094,454.0469 Q349.7625,454.5 348.4813,454.5 Q346.9813,454.5 345.7781,453.9063 Q344.8094,453.4375 344.1219,452.4219 Q343.45,451.4063 343.45,450.2031 L343.45,449.1094 Q343.45,447.8594 344.0438,446.7656 Q344.6531,445.6719 345.7,445.0938 Q346.7625,444.5 347.95,444.5 Q348.6688,444.5 349.2938,444.75 Q349.9188,445 350.45,445.5 Z "/><text fill="#000000" font-family="sans-serif" font-size="12" lengthAdjust="spacingAndGlyphs" textLength="82" x="365.55" y="453.9102">ScooterService</text><line style="stroke: #A80036; stroke-width: 1.5;" x1="320.5" x2="463.5" y1="465" y2="465"/><line style="stroke: #A80036; stroke-width: 1.5;" x1="320.5" x2="463.5" y1="473" y2="473"/><text fill="#000000" font-family="sans-serif" font-size="11" lengthAdjust="spacingAndGlyphs" textLength="89" x="325.5" y="488.4189">+ScooterService()</text><text fill="#000000" font-family="sans-serif" font-size="11" lengthAdjust="spacingAndGlyphs" textLength="90" x="325.5" y="502.2549">+getScootersList()</text><text fill="#000000" font-family="sans-serif" font-size="11" lengthAdjust="spacingAndGlyphs" textLength="133" x="325.5" y="516.0908">+removeScooter(scooterId)</text><!--MD5=[4b2d61224b33971326a22fe5d809d926]
class DataHandler--><rect fill="#FEFECE" filter="url(#fmy9rk90vwlij)" height="75.6719" id="DataHandler" style="stroke: #A80036; stroke-width: 1.5;" width="104" x="1284" y="440"/><ellipse cx="1299.9" cy="456" fill="#ADD1B2" rx="11" ry="11" style="stroke: #A80036; stroke-width: 1.0;"/><path d="M1301.9,452.5 Q1302.1031,452 1302.3375,451.75 Q1302.5719,451.5 1302.8375,451.5 Q1303.3063,451.5 1303.6031,451.7813 Q1303.9,452.0625 1303.9,452.7188 L1303.9,454.2813 Q1303.9,454.9375 1303.6188,455.2188 Q1303.3375,455.5 1302.9,455.5 Q1302.5094,455.5 1302.2594,455.3281 Q1302.0094,455.1563 1301.9,454.7031 Q1301.8531,454.3906 1301.6813,454.2188 Q1301.3688,453.8906 1300.8063,453.7031 Q1300.2438,453.5 1299.6813,453.5 Q1298.9781,453.5 1298.3844,453.7813 Q1297.8063,454.0625 1297.3531,454.6875 Q1296.9,455.3125 1296.9,456.1719 L1296.9,457.0938 Q1296.9,458.125 1297.7438,458.8125 Q1298.5875,459.5 1300.0875,459.5 Q1300.9781,459.5 1301.6031,459.2969 Q1301.9625,459.1875 1302.3688,458.8281 Q1302.6344,458.625 1302.775,458.5625 Q1302.9156,458.5 1303.0875,458.5 Q1303.4156,458.5 1303.65,458.7656 Q1303.9,459.0156 1303.9,459.375 Q1303.9,459.7188 1303.5563,460.125 Q1303.0563,460.7188 1302.2594,461.0469 Q1301.2125,461.5 1299.9313,461.5 Q1298.4313,461.5 1297.2281,460.9063 Q1296.2594,460.4375 1295.5719,459.4219 Q1294.9,458.4063 1294.9,457.2031 L1294.9,456.1094 Q1294.9,454.8594 1295.4938,453.7656 Q1296.1031,452.6719 1297.15,452.0938 Q1298.2125,451.5 1299.4,451.5 Q1300.1188,451.5 1300.7438,451.75 Q1301.3688,452 1301.9,452.5 Z "/><text fill="#000000" font-family="sans-serif" font-size="12" lengthAdjust="spacingAndGlyphs" textLength="70" x="1314.1" y="460.9102">DataHandler</text><line style="stroke: #A80036; stroke-width: 1.5;" x1="1285" x2="1387" y1="472" y2="472"/><line style="stroke: #A80036; stroke-width: 1.5;" x1="1285" x2="1387" y1="480" y2="480"/><text fill="#000000" font-family="sans-serif" font-size="11" lengthAdjust="spacingAndGlyphs" textLength="92" x="1290" y="495.4189">+openConnection()</text><text fill="#000000" font-family="sans-serif" font-size="11" lengthAdjust="spacingAndGlyphs" textLength="52" x="1290" y="509.2549">+closeAll()</text><!--MD5=[b860ecc58d0ca70e482845cb1f7b4615]
class PharmacyDB--><rect fill="#FEFECE" filter="url(#fmy9rk90vwlij)" height="75.6719" id="PharmacyDB" style="stroke: #A80036; stroke-width: 1.5;" width="104" x="1065" y="656"/><ellipse cx="1080" cy="672" fill="#ADD1B2" rx="11" ry="11" style="stroke: #A80036; stroke-width: 1.0;"/><path d="M1082,668.5 Q1082.2031,668 1082.4375,667.75 Q1082.6719,667.5 1082.9375,667.5 Q1083.4063,667.5 1083.7031,667.7813 Q1084,668.0625 1084,668.7188 L1084,670.2813 Q1084,670.9375 1083.7188,671.2188 Q1083.4375,671.5 1083,671.5 Q1082.6094,671.5 1082.3594,671.3281 Q1082.1094,671.1563 1082,670.7031 Q1081.9531,670.3906 1081.7813,670.2188 Q1081.4688,669.8906 1080.9063,669.7031 Q1080.3438,669.5 1079.7813,669.5 Q1079.0781,669.5 1078.4844,669.7813 Q1077.9063,670.0625 1077.4531,670.6875 Q1077,671.3125 1077,672.1719 L1077,673.0938 Q1077,674.125 1077.8438,674.8125 Q1078.6875,675.5 1080.1875,675.5 Q1081.0781,675.5 1081.7031,675.2969 Q1082.0625,675.1875 1082.4688,674.8281 Q1082.7344,674.625 1082.875,674.5625 Q1083.0156,674.5 1083.1875,674.5 Q1083.5156,674.5 1083.75,674.7656 Q1084,675.0156 1084,675.375 Q1084,675.7188 1083.6563,676.125 Q1083.1563,676.7188 1082.3594,677.0469 Q1081.3125,677.5 1080.0313,677.5 Q1078.5313,677.5 1077.3281,676.9063 Q1076.3594,676.4375 1075.6719,675.4219 Q1075,674.4063 1075,673.2031 L1075,672.1094 Q1075,670.8594 1075.5938,669.7656 Q1076.2031,668.6719 1077.25,668.0938 Q1078.3125,667.5 1079.5,667.5 Q1080.2188,667.5 1080.8438,667.75 Q1081.4688,668 1082,668.5 Z "/><text fill="#000000" font-family="sans-serif" font-size="12" lengthAdjust="spacingAndGlyphs" textLength="72" x="1094" y="676.9102">PharmacyDB</text><line style="stroke: #A80036; stroke-width: 1.5;" x1="1066" x2="1168" y1="688" y2="688"/><line style="stroke: #A80036; stroke-width: 1.5;" x1="1066" x2="1168" y1="696" y2="696"/><text fill="#000000" font-family="sans-serif" font-size="11" lengthAdjust="spacingAndGlyphs" textLength="76" x="1071" y="711.4189">+PharmacyDB()</text><text fill="#000000" font-family="sans-serif" font-size="11" lengthAdjust="spacingAndGlyphs" textLength="85" x="1071" y="725.2549">+getPharmacies()</text><!--MD5=[48d7298b3bd1f8b3e8f77915e881d788]
class ScooterDB--><rect fill="#FEFECE" filter="url(#fmy9rk90vwlij)" height="89.5078" id="ScooterDB" style="stroke: #A80036; stroke-width: 1.5;" width="183" x="1204.5" y="649"/><ellipse cx="1262.25" cy="665" fill="#ADD1B2" rx="11" ry="11" style="stroke: #A80036; stroke-width: 1.0;"/><path d="M1264.25,661.5 Q1264.4531,661 1264.6875,660.75 Q1264.9219,660.5 1265.1875,660.5 Q1265.6563,660.5 1265.9531,660.7813 Q1266.25,661.0625 1266.25,661.7188 L1266.25,663.2813 Q1266.25,663.9375 1265.9688,664.2188 Q1265.6875,664.5 1265.25,664.5 Q1264.8594,664.5 1264.6094,664.3281 Q1264.3594,664.1563 1264.25,663.7031 Q1264.2031,663.3906 1264.0313,663.2188 Q1263.7188,662.8906 1263.1563,662.7031 Q1262.5938,662.5 1262.0313,662.5 Q1261.3281,662.5 1260.7344,662.7813 Q1260.1563,663.0625 1259.7031,663.6875 Q1259.25,664.3125 1259.25,665.1719 L1259.25,666.0938 Q1259.25,667.125 1260.0938,667.8125 Q1260.9375,668.5 1262.4375,668.5 Q1263.3281,668.5 1263.9531,668.2969 Q1264.3125,668.1875 1264.7188,667.8281 Q1264.9844,667.625 1265.125,667.5625 Q1265.2656,667.5 1265.4375,667.5 Q1265.7656,667.5 1266,667.7656 Q1266.25,668.0156 1266.25,668.375 Q1266.25,668.7188 1265.9063,669.125 Q1265.4063,669.7188 1264.6094,670.0469 Q1263.5625,670.5 1262.2813,670.5 Q1260.7813,670.5 1259.5781,669.9063 Q1258.6094,669.4375 1257.9219,668.4219 Q1257.25,667.4063 1257.25,666.2031 L1257.25,665.1094 Q1257.25,663.8594 1257.8438,662.7656 Q1258.4531,661.6719 1259.5,661.0938 Q1260.5625,660.5 1261.75,660.5 Q1262.4688,660.5 1263.0938,660.75 Q1263.7188,661 1264.25,661.5 Z "/><text fill="#000000" font-family="sans-serif" font-size="12" lengthAdjust="spacingAndGlyphs" textLength="59" x="1282.75" y="669.9102">ScooterDB</text><line style="stroke: #A80036; stroke-width: 1.5;" x1="1205.5" x2="1386.5" y1="681" y2="681"/><line style="stroke: #A80036; stroke-width: 1.5;" x1="1205.5" x2="1386.5" y1="689" y2="689"/><text fill="#000000" font-family="sans-serif" font-size="11" lengthAdjust="spacingAndGlyphs" textLength="66" x="1210.5" y="704.4189">+ScooterDB()</text><text fill="#000000" font-family="sans-serif" font-size="11" lengthAdjust="spacingAndGlyphs" textLength="146" x="1210.5" y="718.2549">+getScootersList(pharmacyId)</text><text fill="#000000" font-family="sans-serif" font-size="11" lengthAdjust="spacingAndGlyphs" textLength="171" x="1210.5" y="732.0908">+removeScooterFromDB(scooterId)</text><!--MD5=[f40d64c3825bdc96a4efd5b7e3ff1420]
reverse link DataHandler to PharmacyDB--><path d="M1292.88,531.866 C1281.57,544.988 1269.13,558.785 1257,571 C1227.13,601.087 1191.01,632.455 1162.94,655.849 " fill="none" id="DataHandler&lt;-PharmacyDB" style="stroke: #A80036; stroke-width: 1.0;"/><polygon fill="none" points="1287.76,527.083,1306.03,516.347,1298.44,536.132,1287.76,527.083" style="stroke: #A80036; stroke-width: 1.0;"/><!--MD5=[a2c65173c20bdf66914a8ed43c34e217]
reverse link DataHandler to ScooterDB--><path d="M1325.28,536.344 C1318.68,571.638 1310.36,616.193 1304.27,648.756 " fill="none" id="DataHandler&lt;-ScooterDB" style="stroke: #A80036; stroke-width: 1.0;"/><polygon fill="none" points="1318.48,534.649,1329.03,516.276,1332.24,537.222,1318.48,534.649" style="stroke: #A80036; stroke-width: 1.0;"/><!--MD5=[d51a3d7ceb60387716e9812879733fde]
link RemoveScooterUI to RemoveScooterController--><path d="M125,108.086 C125,129.108 125,160.852 125,187.58 " fill="none" id="RemoveScooterUI-&gt;RemoveScooterController" style="stroke: #A80036; stroke-width: 1.0; stroke-dasharray: 7.0,7.0;"/><polygon fill="#A80036" points="125,192.853,129,183.853,125,187.853,121,183.853,125,192.853" style="stroke: #A80036; stroke-width: 1.0;"/><!--MD5=[ff5a4a60aaf10293bc99b1ac287cfc38]
link RemoveScooterController to PharmacyService--><path d="M212.018,245.791 C289.756,255.762 403.207,280.356 482,341 C513.215,365.025 534.868,404.78 547.881,435.12 " fill="none" id="RemoveScooterController-&gt;PharmacyService" style="stroke: #A80036; stroke-width: 1.0; stroke-dasharray: 7.0,7.0;"/><polygon fill="#A80036" points="549.895,439.904,550.0898,430.0571,547.9551,435.2957,542.7165,433.1609,549.895,439.904" style="stroke: #A80036; stroke-width: 1.0;"/><!--MD5=[2ee6cd406d0851546e49c24833055b96]
link RemoveScooterController to ScooterService--><path d="M113.99,283.293 C112.347,300.967 114.477,320.132 127,333 C139.801,346.154 275.827,332.319 292,341 C327.318,359.957 353.442,397.478 370.114,428.316 " fill="none" id="RemoveScooterController-&gt;ScooterService" style="stroke: #A80036; stroke-width: 1.0; stroke-dasharray: 7.0,7.0;"/><polygon fill="#A80036" points="372.506,432.814,371.8138,422.9895,370.1592,428.399,364.7498,426.7444,372.506,432.814" style="stroke: #A80036; stroke-width: 1.0;"/><!--MD5=[04ba2cb7f5803b19c0d0e740f2a895e0]
link Database to PharmacyDB--><path d="M1021.76,261.515 C1030.2,276.249 1040.59,296.191 1047,315 C1052.42,330.903 1092.64,555.73 1109.54,650.915 " fill="none" id="Database-&gt;PharmacyDB" style="stroke: #A80036; stroke-width: 1.0;"/><polygon fill="#A80036" points="1110.43,655.898,1112.7965,646.3377,1109.5567,650.9749,1104.9195,647.735,1110.43,655.898" style="stroke: #A80036; stroke-width: 1.0;"/><text fill="#000000" font-family="sans-serif" font-size="13" lengthAdjust="spacingAndGlyphs" textLength="53" x="1096" y="483.4951">manages</text><text fill="#000000" font-family="sans-serif" font-size="13" lengthAdjust="spacingAndGlyphs" textLength="7" x="1017.2609" y="282.7824">1</text><text fill="#000000" font-family="sans-serif" font-size="13" lengthAdjust="spacingAndGlyphs" textLength="7" x="1101.6363" y="645.2417">1</text><!--MD5=[70f68ce34a156c56edce71dba5c758e9]
link Database to ScooterDB--><path d="M1048.8,257.081 C1082.32,274.023 1128.47,302.51 1155,341 C1214.77,427.708 1168.77,474.966 1212,571 C1223.68,596.941 1240.95,623.244 1256.8,644.752 " fill="none" id="Database-&gt;ScooterDB" style="stroke: #A80036; stroke-width: 1.0;"/><polygon fill="#A80036" points="1259.95,648.988,1257.7928,639.3783,1256.9679,644.9747,1251.3715,644.1497,1259.95,648.988" style="stroke: #A80036; stroke-width: 1.0;"/><text fill="#000000" font-family="sans-serif" font-size="13" lengthAdjust="spacingAndGlyphs" textLength="53" x="1213" y="483.4951">manages</text><text fill="#000000" font-family="sans-serif" font-size="13" lengthAdjust="spacingAndGlyphs" textLength="7" x="1056.4141" y="256.5444">1</text><text fill="#000000" font-family="sans-serif" font-size="13" lengthAdjust="spacingAndGlyphs" textLength="7" x="1246.6467" y="638.1016">1</text><!--MD5=[ee7ed70a83e67b7f86b44988d609d45d]
link ScooterService to PharmacyDB--><path d="M423.45,523.068 C438.896,541.162 459.113,560.337 482,571 C561.996,608.27 791.697,582.553 878,601 C901.097,605.937 905.724,611.15 928,619 C966.576,632.594 976.862,634.223 1015,649 C1029.7,654.697 1045.42,661.243 1060,667.514 " fill="none" id="ScooterService-&gt;PharmacyDB" style="stroke: #A80036; stroke-width: 1.0;"/><polygon fill="#A80036" points="1064.9,669.629,1058.2272,662.3851,1060.3108,667.6442,1055.0516,669.7278,1064.9,669.629" style="stroke: #A80036; stroke-width: 1.0;"/><text fill="#000000" font-family="sans-serif" font-size="13" lengthAdjust="spacingAndGlyphs" textLength="28" x="929" y="615.4951">uses</text><text fill="#000000" font-family="sans-serif" font-size="13" lengthAdjust="spacingAndGlyphs" textLength="7" x="420.3805" y="544.0851">1</text><text fill="#000000" font-family="sans-serif" font-size="13" lengthAdjust="spacingAndGlyphs" textLength="5" x="1051.8806" y="662.4195">*</text><!--MD5=[799b1f05f2692ceb79e345e4105e6b42]
link PharmacyService to ScooterDB--><path d="M580.263,516.112 C591.51,535.886 608.17,558.624 630,571 C694.443,607.534 888.755,589.919 962,601 C1063.1,616.295 1089.22,619.084 1187,649 C1191.07,650.245 1195.2,651.578 1199.35,652.978 " fill="none" id="PharmacyService-&gt;ScooterDB" style="stroke: #A80036; stroke-width: 1.0;"/><polygon fill="#A80036" points="1204.23,654.65,1197.0225,647.9379,1199.5024,653.0222,1194.4181,655.5021,1204.23,654.65" style="stroke: #A80036; stroke-width: 1.0;"/><text fill="#000000" font-family="sans-serif" font-size="13" lengthAdjust="spacingAndGlyphs" textLength="28" x="1073" y="615.4951">uses</text><text fill="#000000" font-family="sans-serif" font-size="13" lengthAdjust="spacingAndGlyphs" textLength="7" x="575.5425" y="537.3007">1</text><text fill="#000000" font-family="sans-serif" font-size="13" lengthAdjust="spacingAndGlyphs" textLength="5" x="1191.4233" y="648.2589">*</text><!--MD5=[2ed2b43e7f6d114538396b0b10b28567]
link PharmacyService to Pharmacy--><path d="M563,516.276 C563,551.574 563,604.804 563,643.618 " fill="none" id="PharmacyService-&gt;Pharmacy" style="stroke: #A80036; stroke-width: 1.0;"/><polygon fill="#A80036" points="563,648.756,567,639.756,563,643.756,559,639.756,563,648.756" style="stroke: #A80036; stroke-width: 1.0;"/><text fill="#000000" font-family="sans-serif" font-size="13" lengthAdjust="spacingAndGlyphs" textLength="111" x="564" y="615.4951">manage services of</text><text fill="#000000" font-family="sans-serif" font-size="13" lengthAdjust="spacingAndGlyphs" textLength="7" x="555.4422" y="537.2005">1</text><text fill="#000000" font-family="sans-serif" font-size="13" lengthAdjust="spacingAndGlyphs" textLength="5" x="557.6172" y="638.1627">*</text><!--MD5=[51d7b9a785c9fb041ca400474ed1d998]
link Database to Pharmacy--><path d="M967.377,241.076 C811.387,249.455 256.969,283.138 206,341 C138.431,417.706 146.543,487.848 206,571 C268.955,659.044 399.389,684.257 483.953,691.068 " fill="none" id="Database-Pharmacy" style="stroke: #A80036; stroke-width: 1.0;"/><polygon fill="#000000" points="214,476.6758,208,479.6758,214,482.6758,214,476.6758" style="stroke: #000000; stroke-width: 1.0;"/><text fill="#000000" font-family="sans-serif" font-size="13" lengthAdjust="spacingAndGlyphs" textLength="82" x="220" y="483.4951">has registered</text><text fill="#000000" font-family="sans-serif" font-size="13" lengthAdjust="spacingAndGlyphs" textLength="7" x="952.5176" y="237.7601">1</text><text fill="#000000" font-family="sans-serif" font-size="13" lengthAdjust="spacingAndGlyphs" textLength="5" x="470.9257" y="687.5285">*</text><!--MD5=[f4a94ba2ad2673d4959409a96e63c979]
link Database to Scooter--><path d="M988.899,261.648 C976.442,276.603 959.964,296.74 946,315 C928.979,337.257 911.117,361.648 894.648,384.594 " fill="none" id="Database-Scooter" style="stroke: #A80036; stroke-width: 1.0;"/><text fill="#000000" font-family="sans-serif" font-size="13" lengthAdjust="spacingAndGlyphs" textLength="82" x="947" y="329.4951">has registered</text><polygon fill="#000000" points="983.5,338.3516,986.5,344.3516,989.5,338.3516,983.5,338.3516" style="stroke: #000000; stroke-width: 1.0;"/><text fill="#000000" font-family="sans-serif" font-size="13" lengthAdjust="spacingAndGlyphs" textLength="7" x="976.6725" y="282.5475">1</text><text fill="#000000" font-family="sans-serif" font-size="13" lengthAdjust="spacingAndGlyphs" textLength="5" x="894.6004" y="374.008">*</text><!--MD5=[6f1b2737b94c689eac8b0af6a5ef1443]
link Scooter to Pharmacy--><path d="M740.032,571.028 C722.081,587.711 702.914,604.422 684,619 C670.543,629.372 655.55,639.529 640.826,648.833 " fill="none" id="Scooter-Pharmacy" style="stroke: #A80036; stroke-width: 1.0;"/><polygon fill="#000000" points="714,608.6758,708,611.6758,714,614.6758,714,608.6758" style="stroke: #000000; stroke-width: 1.0;"/><text fill="#000000" font-family="sans-serif" font-size="13" lengthAdjust="spacingAndGlyphs" textLength="60" x="720" y="615.4951">belongs to</text><text fill="#000000" font-family="sans-serif" font-size="13" lengthAdjust="spacingAndGlyphs" textLength="5" x="727.3745" y="592.8892">*</text><text fill="#000000" font-family="sans-serif" font-size="13" lengthAdjust="spacingAndGlyphs" textLength="7" x="645.2072" y="638.2515">1</text><!--MD5=[89baec1bfb4a213750f7c61516e0a0f1]
link Pharmacy to Address--><path d="M563,739.362 C563,762.795 563,792.132 563,818.709 " fill="none" id="Pharmacy-Address" style="stroke: #A80036; stroke-width: 1.0;"/><text fill="#000000" font-family="sans-serif" font-size="13" lengthAdjust="spacingAndGlyphs" textLength="21" x="564" y="785.4951">has</text><polygon fill="#000000" points="570,794.3516,573,800.3516,576,794.3516,570,794.3516" style="stroke: #000000; stroke-width: 1.0;"/><text fill="#000000" font-family="sans-serif" font-size="13" lengthAdjust="spacingAndGlyphs" textLength="7" x="555.5297" y="760.0843">1</text><text fill="#000000" font-family="sans-serif" font-size="13" lengthAdjust="spacingAndGlyphs" textLength="7" x="555.6391" y="807.8983">1</text><!--MD5=[7f667b423b227271d25bbf91946e89e3]
@startuml
skinparam classAttributeIconSize 0

database Database {
}

package "UI" #DDDDDD {
class RemoveScooterUI{
}
}

package "Controller" #DDDDDD {
class RemoveScooterController{
+showPharmacies()
+showScootersList(pharmacyId)
+removeScooter(scooterId)
}
}


package "Model" #DDDDDD {
 package "Service" #DDDDDD {
  class PharmacyService{
      +PharmacyService()
      +getPharmacies()
  }

  class ScooterService{
      +ScooterService()
      +getScootersList()
      +removeScooter(scooterId)
   }
}

package "Model" #DDDDDD {
class Scooter{
  -int id
  -float batteryPerc
  -String charginStatus
  -float potency
  -float weight
  -int batteryCapacity
  -float maxPayload
  -float batteryVoltage
  +Scooter(batteryPerc, charginStatus, potency,\n weight, batteryCapacity, maxPayload, batteryVoltage, pharmacyId)
}

class Address{
  -float longitude
  -float latitude
  -String doorNumber
  -String streetName
  -String postalCode
  -String locality
  -String country
}

class Pharmacy {
  -int id
  -String name
  +getScootersList(pharmacyId)
}
}


package "Data" #DDDDDD {
class DataHandler{
    +openConnection()
    +closeAll()
}
class PharmacyDB{
     +PharmacyDB()
     +getPharmacies()
 }

 class ScooterDB{
     +ScooterDB()
     +getScootersList(pharmacyId)
     +removeScooterFromDB(scooterId)
  }
}

class PharmacyDB extends DataHandler
class ScooterDB extends DataHandler

RemoveScooterUI ..> RemoveScooterController
RemoveScooterController ..> PharmacyService
RemoveScooterController ..> ScooterService
Database "1" - -> "1" PharmacyDB : manages
Database "1" - -> "1" ScooterDB : manages
ScooterService "1" - -> "*" PharmacyDB : uses
PharmacyService "1" - -> "*" ScooterDB : uses
PharmacyService "1" - -> "*" Pharmacy : manage services of

Database "1" - - "*" Pharmacy : has registered >
Database "1" - - "*" Scooter : has registered >

Scooter "*" - - "1" Pharmacy : belongs to >
Pharmacy "1" - - "1" Address : has >

@enduml

PlantUML version 1.2020.09(Sun May 10 11:51:06 BST 2020)
(GPL source distribution)
Java Runtime: OpenJDK Runtime Environment
JVM: OpenJDK 64-Bit Server VM
Java Version: 11.0.6+8-b765.40
Operating System: Windows 10
Default Encoding: Cp1252
Language: pt
Country: PT
--></g></svg>