<?xml version="1.0" encoding="UTF-8" standalone="no"?><svg xmlns="http://www.w3.org/2000/svg" xmlns:xlink="http://www.w3.org/1999/xlink" contentScriptType="application/ecmascript" contentStyleType="text/css" height="301.7px" preserveAspectRatio="none" style="width:548px;height:301px;" version="1.1" viewBox="0 0 548 301" width="548.8px" zoomAndPan="magnify"><defs><filter height="300%" id="f148tttxn4pdrm" width="300%" x="-1" y="-1"><feGaussianBlur result="blurOut" stdDeviation="1.4"/><feColorMatrix in="blurOut" result="blurOut2" type="matrix" values="0 0 0 0 0 0 0 0 0 0 0 0 0 0 0 0 0 0 .4 0"/><feOffset dx="2.8" dy="2.8" in="blurOut2" result="blurOut3"/><feBlend in="SourceGraphic" in2="blurOut3" mode="normal"/></filter></defs><g><!--MD5=[fa1e3283224feb76407c84b7e90ed808]
entity Database--><path d="M4.2,145.6 C4.2,138.6 32.55,138.6 32.55,138.6 C32.55,138.6 60.9,138.6 60.9,145.6 L60.9,164.2266 C60.9,171.2266 32.55,171.2266 32.55,171.2266 C32.55,171.2266 4.2,171.2266 4.2,164.2266 L4.2,145.6 " fill="#FFFFFF" filter="url(#f148tttxn4pdrm)" style="stroke: #000000; stroke-width: 1.0499999999999998;"/><path d="M4.2,145.6 C4.2,152.6 32.55,152.6 32.55,152.6 C32.55,152.6 60.9,152.6 60.9,145.6 " fill="none" style="stroke: #000000; stroke-width: 1.0499999999999998;"/><text fill="#000000" font-family="sans-serif" font-size="9.8" lengthAdjust="spacingAndGlyphs" textLength="42.7" x="11.2" y="165.5732">Database</text><!--MD5=[7f2a9fafcebe4f099f71398fd3e2ed00]
class Pharmacy--><rect fill="#FEFECE" filter="url(#f148tttxn4pdrm)" height="47.3703" id="Pharmacy" style="stroke: #A80036; stroke-width: 1.0499999999999998;" width="60.9" x="162.05" y="131.25"/><ellipse cx="172.55" cy="142.45" fill="#ADD1B2" rx="7.7" ry="7.7" style="stroke: #A80036; stroke-width: 0.7;"/><path d="M173.95,140 Q174.0922,139.65 174.2563,139.475 Q174.4203,139.3 174.6063,139.3 Q174.9344,139.3 175.1422,139.4969 Q175.35,139.6938 175.35,140.1531 L175.35,141.2469 Q175.35,141.7062 175.1531,141.9031 Q174.9562,142.1 174.65,142.1 Q174.3766,142.1 174.2016,141.9797 Q174.0266,141.8594 173.95,141.5422 Q173.9172,141.3234 173.7969,141.2031 Q173.5781,140.9734 173.1844,140.8422 Q172.7906,140.7 172.3969,140.7 Q171.9047,140.7 171.4891,140.8969 Q171.0844,141.0938 170.7672,141.5313 Q170.45,141.9688 170.45,142.5703 L170.45,143.2156 Q170.45,143.9375 171.0406,144.4188 Q171.6313,144.9 172.6812,144.9 Q173.3047,144.9 173.7422,144.7578 Q173.9937,144.6812 174.2781,144.4297 Q174.4641,144.2875 174.5625,144.2437 Q174.6609,144.2 174.7813,144.2 Q175.0109,144.2 175.175,144.3859 Q175.35,144.5609 175.35,144.8125 Q175.35,145.0531 175.1094,145.3375 Q174.7594,145.7531 174.2016,145.9828 Q173.4688,146.3 172.5719,146.3 Q171.5219,146.3 170.6797,145.8844 Q170.0016,145.5562 169.5203,144.8453 Q169.05,144.1344 169.05,143.2922 L169.05,142.5266 Q169.05,141.6516 169.4656,140.8859 Q169.8922,140.1203 170.625,139.7156 Q171.3687,139.3 172.2,139.3 Q172.7031,139.3 173.1406,139.475 Q173.5781,139.65 173.95,140 Z "/><text fill="#000000" font-family="sans-serif" font-size="8.4" lengthAdjust="spacingAndGlyphs" textLength="38.5" x="182.35" y="145.8871">Pharmacy</text><line style="stroke: #A80036; stroke-width: 1.0499999999999998;" x1="162.75" x2="222.25" y1="153.65" y2="153.65"/><text fill="#000000" font-family="sans-serif" font-size="7.7" lengthAdjust="spacingAndGlyphs" textLength="18.2" x="166.25" y="164.4433">-int id</text><text fill="#000000" font-family="sans-serif" font-size="7.7" lengthAdjust="spacingAndGlyphs" textLength="42.7" x="166.25" y="174.1284">-String name</text><!--MD5=[868815390a9e59f0f213a5798810649b]
class ScooterPark--><rect fill="#FEFECE" filter="url(#f148tttxn4pdrm)" height="37.6852" id="ScooterPark" style="stroke: #A80036; stroke-width: 1.0499999999999998;" width="77.7" x="294" y="44.45"/><ellipse cx="308.28" cy="55.65" fill="#ADD1B2" rx="7.7" ry="7.7" style="stroke: #A80036; stroke-width: 0.7;"/><path d="M309.68,53.2 Q309.8222,52.85 309.9863,52.675 Q310.1503,52.5 310.3362,52.5 Q310.6644,52.5 310.8722,52.6969 Q311.08,52.8938 311.08,53.3531 L311.08,54.4469 Q311.08,54.9063 310.8831,55.1031 Q310.6863,55.3 310.38,55.3 Q310.1066,55.3 309.9316,55.1797 Q309.7566,55.0594 309.68,54.7422 Q309.6472,54.5234 309.5269,54.4031 Q309.3081,54.1734 308.9144,54.0422 Q308.5206,53.9 308.1269,53.9 Q307.6347,53.9 307.2191,54.0969 Q306.8144,54.2937 306.4972,54.7312 Q306.18,55.1687 306.18,55.7703 L306.18,56.4156 Q306.18,57.1375 306.7706,57.6188 Q307.3613,58.1 308.4112,58.1 Q309.0347,58.1 309.4722,57.9578 Q309.7237,57.8812 310.0081,57.6297 Q310.1941,57.4875 310.2925,57.4437 Q310.3909,57.4 310.5112,57.4 Q310.7409,57.4 310.905,57.5859 Q311.08,57.7609 311.08,58.0125 Q311.08,58.2531 310.8394,58.5375 Q310.4894,58.9531 309.9316,59.1828 Q309.1987,59.5 308.3019,59.5 Q307.2519,59.5 306.4097,59.0844 Q305.7316,58.7562 305.2503,58.0453 Q304.78,57.3344 304.78,56.4922 L304.78,55.7266 Q304.78,54.8516 305.1956,54.0859 Q305.6222,53.3203 306.355,52.9156 Q307.0987,52.5 307.93,52.5 Q308.4331,52.5 308.8706,52.675 Q309.3081,52.85 309.68,53.2 Z "/><text fill="#000000" font-family="sans-serif" font-size="8.4" lengthAdjust="spacingAndGlyphs" textLength="46.9" x="318.92" y="59.0871">ScooterPark</text><line style="stroke: #A80036; stroke-width: 1.0499999999999998;" x1="294.7" x2="371" y1="66.85" y2="66.85"/><text fill="#000000" font-family="sans-serif" font-size="7.7" lengthAdjust="spacingAndGlyphs" textLength="69.3" x="298.2" y="77.6433">-int maxSlotsNumber</text><!--MD5=[5efbb0d0731ef97fc2ab2cfe7ed5bd27]
class ScooterChargingSlot--><rect fill="#FEFECE" filter="url(#f148tttxn4pdrm)" height="47.3703" id="ScooterChargingSlot" style="stroke: #A80036; stroke-width: 1.0499999999999998;" width="102.2" x="438.9" y="5.95"/><ellipse cx="449.4" cy="17.15" fill="#ADD1B2" rx="7.7" ry="7.7" style="stroke: #A80036; stroke-width: 0.7;"/><path d="M450.8,14.7 Q450.9422,14.35 451.1063,14.175 Q451.2703,14 451.4562,14 Q451.7844,14 451.9922,14.1969 Q452.2,14.3937 452.2,14.8531 L452.2,15.9469 Q452.2,16.4063 452.0031,16.6031 Q451.8063,16.8 451.5,16.8 Q451.2266,16.8 451.0516,16.6797 Q450.8766,16.5594 450.8,16.2422 Q450.7672,16.0234 450.6469,15.9031 Q450.4281,15.6734 450.0344,15.5422 Q449.6406,15.4 449.2469,15.4 Q448.7547,15.4 448.3391,15.5969 Q447.9344,15.7938 447.6172,16.2313 Q447.3,16.6688 447.3,17.2703 L447.3,17.9156 Q447.3,18.6375 447.8906,19.1188 Q448.4813,19.6 449.5312,19.6 Q450.1547,19.6 450.5922,19.4578 Q450.8437,19.3812 451.1281,19.1297 Q451.3141,18.9875 451.4125,18.9437 Q451.5109,18.9 451.6312,18.9 Q451.8609,18.9 452.025,19.0859 Q452.2,19.2609 452.2,19.5125 Q452.2,19.7531 451.9594,20.0375 Q451.6094,20.4531 451.0516,20.6828 Q450.3187,21 449.4219,21 Q448.3719,21 447.5297,20.5844 Q446.8516,20.2562 446.3703,19.5453 Q445.9,18.8344 445.9,17.9922 L445.9,17.2266 Q445.9,16.3516 446.3156,15.5859 Q446.7422,14.8203 447.475,14.4156 Q448.2187,14 449.05,14 Q449.5531,14 449.9906,14.175 Q450.4281,14.35 450.8,14.7 Z "/><text fill="#000000" font-family="sans-serif" font-size="8.4" lengthAdjust="spacingAndGlyphs" textLength="79.8" x="459.2" y="20.5871">ScooterChargingSlot</text><line style="stroke: #A80036; stroke-width: 1.0499999999999998;" x1="439.6" x2="540.4" y1="28.35" y2="28.35"/><text fill="#000000" font-family="sans-serif" font-size="7.7" lengthAdjust="spacingAndGlyphs" textLength="18.2" x="443.1" y="39.1433">-int id</text><text fill="#000000" font-family="sans-serif" font-size="7.7" lengthAdjust="spacingAndGlyphs" textLength="63" x="443.1" y="48.8284">-float outputPower</text><!--MD5=[d3cdad78b703b3ff47b8cf68490e772e]
class ScooterParkingSlot--><rect fill="#FEFECE" filter="url(#f148tttxn4pdrm)" height="37.6852" id="ScooterParkingSlot" style="stroke: #A80036; stroke-width: 1.0499999999999998;" width="95.9" x="442.05" y="78.05"/><ellipse cx="452.55" cy="89.25" fill="#ADD1B2" rx="7.7" ry="7.7" style="stroke: #A80036; stroke-width: 0.7;"/><path d="M453.95,86.8 Q454.0922,86.45 454.2562,86.275 Q454.4203,86.1 454.6063,86.1 Q454.9344,86.1 455.1422,86.2969 Q455.35,86.4937 455.35,86.9531 L455.35,88.0469 Q455.35,88.5063 455.1531,88.7031 Q454.9562,88.9 454.65,88.9 Q454.3766,88.9 454.2016,88.7797 Q454.0266,88.6594 453.95,88.3422 Q453.9172,88.1234 453.7969,88.0031 Q453.5781,87.7734 453.1844,87.6422 Q452.7906,87.5 452.3969,87.5 Q451.9047,87.5 451.4891,87.6969 Q451.0844,87.8938 450.7672,88.3313 Q450.45,88.7688 450.45,89.3703 L450.45,90.0156 Q450.45,90.7375 451.0406,91.2188 Q451.6312,91.7 452.6813,91.7 Q453.3047,91.7 453.7422,91.5578 Q453.9938,91.4812 454.2781,91.2297 Q454.4641,91.0875 454.5625,91.0437 Q454.6609,91 454.7812,91 Q455.0109,91 455.175,91.1859 Q455.35,91.3609 455.35,91.6125 Q455.35,91.8531 455.1094,92.1375 Q454.7594,92.5531 454.2016,92.7828 Q453.4687,93.1 452.5719,93.1 Q451.5219,93.1 450.6797,92.6844 Q450.0016,92.3562 449.5203,91.6453 Q449.05,90.9344 449.05,90.0922 L449.05,89.3266 Q449.05,88.4516 449.4656,87.6859 Q449.8922,86.9203 450.625,86.5156 Q451.3688,86.1 452.2,86.1 Q452.7031,86.1 453.1406,86.275 Q453.5781,86.45 453.95,86.8 Z "/><text fill="#000000" font-family="sans-serif" font-size="8.4" lengthAdjust="spacingAndGlyphs" textLength="73.5" x="462.35" y="92.6871">ScooterParkingSlot</text><line style="stroke: #A80036; stroke-width: 1.0499999999999998;" x1="442.75" x2="537.25" y1="100.45" y2="100.45"/><text fill="#000000" font-family="sans-serif" font-size="7.7" lengthAdjust="spacingAndGlyphs" textLength="18.2" x="446.25" y="111.2433">-int id</text><!--MD5=[f4402668d5d5bb8485350c0fdb60ac8e]
class Scooter--><rect fill="#FEFECE" filter="url(#f148tttxn4pdrm)" height="28" id="Scooter" style="stroke: #A80036; stroke-width: 1.0499999999999998;" width="51.8" x="6.65" y="213.85"/><ellipse cx="17.15" cy="225.05" fill="#ADD1B2" rx="7.7" ry="7.7" style="stroke: #A80036; stroke-width: 0.7;"/><path d="M18.55,222.6 Q18.6922,222.25 18.8563,222.075 Q19.0203,221.9 19.2062,221.9 Q19.5344,221.9 19.7422,222.0969 Q19.95,222.2938 19.95,222.7531 L19.95,223.8469 Q19.95,224.3062 19.7531,224.5031 Q19.5563,224.7 19.25,224.7 Q18.9766,224.7 18.8016,224.5797 Q18.6266,224.4594 18.55,224.1422 Q18.5172,223.9234 18.3969,223.8031 Q18.1781,223.5734 17.7844,223.4422 Q17.3906,223.3 16.9969,223.3 Q16.5047,223.3 16.0891,223.4969 Q15.6844,223.6938 15.3672,224.1313 Q15.05,224.5688 15.05,225.1703 L15.05,225.8156 Q15.05,226.5375 15.6406,227.0187 Q16.2313,227.5 17.2813,227.5 Q17.9047,227.5 18.3422,227.3578 Q18.5938,227.2812 18.8781,227.0297 Q19.0641,226.8875 19.1625,226.8437 Q19.2609,226.8 19.3812,226.8 Q19.6109,226.8 19.775,226.9859 Q19.95,227.1609 19.95,227.4125 Q19.95,227.6531 19.7094,227.9375 Q19.3594,228.3531 18.8016,228.5828 Q18.0687,228.9 17.1719,228.9 Q16.1219,228.9 15.2797,228.4844 Q14.6016,228.1562 14.1203,227.4453 Q13.65,226.7344 13.65,225.8922 L13.65,225.1266 Q13.65,224.2516 14.0656,223.4859 Q14.4922,222.7203 15.225,222.3156 Q15.9687,221.9 16.8,221.9 Q17.3031,221.9 17.7406,222.075 Q18.1781,222.25 18.55,222.6 Z "/><text fill="#000000" font-family="sans-serif" font-size="8.4" lengthAdjust="spacingAndGlyphs" textLength="29.4" x="26.95" y="228.4871">Scooter</text><line style="stroke: #A80036; stroke-width: 1.0499999999999998;" x1="7.35" x2="57.75" y1="236.25" y2="236.25"/><!--MD5=[3aa0d89c6bfdcbf7f32042cedac57549]
class Vehicle--><rect fill="#FEFECE" filter="url(#f148tttxn4pdrm)" height="66.7406" id="Vehicle" style="stroke: #A80036; stroke-width: 1.0499999999999998;" width="68.6" x="158.2" y="215.6"/><ellipse cx="176.89" cy="226.8" fill="#ADD1B2" rx="7.7" ry="7.7" style="stroke: #A80036; stroke-width: 0.7;"/><path d="M178.29,224.35 Q178.4322,224 178.5962,223.825 Q178.7603,223.65 178.9463,223.65 Q179.2744,223.65 179.4822,223.8469 Q179.69,224.0438 179.69,224.5031 L179.69,225.5969 Q179.69,226.0562 179.4931,226.2531 Q179.2963,226.45 178.99,226.45 Q178.7166,226.45 178.5416,226.3297 Q178.3666,226.2094 178.29,225.8922 Q178.2572,225.6734 178.1369,225.5531 Q177.9181,225.3234 177.5244,225.1922 Q177.1306,225.05 176.7369,225.05 Q176.2447,225.05 175.8291,225.2469 Q175.4244,225.4438 175.1072,225.8813 Q174.79,226.3188 174.79,226.9203 L174.79,227.5656 Q174.79,228.2875 175.3806,228.7687 Q175.9712,229.25 177.0212,229.25 Q177.6447,229.25 178.0822,229.1078 Q178.3337,229.0312 178.6181,228.7797 Q178.8041,228.6375 178.9025,228.5937 Q179.0009,228.55 179.1212,228.55 Q179.3509,228.55 179.515,228.7359 Q179.69,228.9109 179.69,229.1625 Q179.69,229.4031 179.4494,229.6875 Q179.0994,230.1031 178.5416,230.3328 Q177.8087,230.65 176.9119,230.65 Q175.8619,230.65 175.0197,230.2344 Q174.3416,229.9062 173.8603,229.1953 Q173.39,228.4844 173.39,227.6422 L173.39,226.8766 Q173.39,226.0016 173.8056,225.2359 Q174.2322,224.4703 174.965,224.0656 Q175.7087,223.65 176.54,223.65 Q177.0431,223.65 177.4806,223.825 Q177.9181,224 178.29,224.35 Z "/><text fill="#000000" font-family="sans-serif" font-size="8.4" lengthAdjust="spacingAndGlyphs" textLength="28" x="188.51" y="230.2371">Vehicle</text><line style="stroke: #A80036; stroke-width: 1.0499999999999998;" x1="158.9" x2="226.1" y1="238" y2="238"/><text fill="#000000" font-family="sans-serif" font-size="7.7" lengthAdjust="spacingAndGlyphs" textLength="18.2" x="162.4" y="248.7933">-int id</text><text fill="#000000" font-family="sans-serif" font-size="7.7" lengthAdjust="spacingAndGlyphs" textLength="46.9" x="162.4" y="258.4784">-float potency</text><text fill="#000000" font-family="sans-serif" font-size="7.7" lengthAdjust="spacingAndGlyphs" textLength="42.7" x="162.4" y="268.1636">-float weight</text><text fill="#000000" font-family="sans-serif" font-size="7.7" lengthAdjust="spacingAndGlyphs" textLength="60.2" x="162.4" y="277.8487">-float maxPayload</text><!--MD5=[79eb2d862cef9730b5f9dcab29e35f17]
class Battery--><rect fill="#FEFECE" filter="url(#f148tttxn4pdrm)" height="66.7406" id="Battery" style="stroke: #A80036; stroke-width: 1.0499999999999998;" width="77.7" x="294" y="227.5"/><ellipse cx="317.73" cy="238.7" fill="#ADD1B2" rx="7.7" ry="7.7" style="stroke: #A80036; stroke-width: 0.7;"/><path d="M319.13,236.25 Q319.2722,235.9 319.4363,235.725 Q319.6003,235.55 319.7862,235.55 Q320.1144,235.55 320.3222,235.7469 Q320.53,235.9438 320.53,236.4031 L320.53,237.4969 Q320.53,237.9562 320.3331,238.1531 Q320.1362,238.35 319.83,238.35 Q319.5566,238.35 319.3816,238.2297 Q319.2066,238.1094 319.13,237.7922 Q319.0972,237.5734 318.9769,237.4531 Q318.7581,237.2234 318.3644,237.0922 Q317.9706,236.95 317.5769,236.95 Q317.0847,236.95 316.6691,237.1469 Q316.2644,237.3437 315.9472,237.7812 Q315.63,238.2187 315.63,238.8203 L315.63,239.4656 Q315.63,240.1875 316.2206,240.6688 Q316.8113,241.15 317.8613,241.15 Q318.4847,241.15 318.9222,241.0078 Q319.1738,240.9312 319.4581,240.6797 Q319.6441,240.5375 319.7425,240.4937 Q319.8409,240.45 319.9612,240.45 Q320.1909,240.45 320.355,240.6359 Q320.53,240.8109 320.53,241.0625 Q320.53,241.3031 320.2894,241.5875 Q319.9394,242.0031 319.3816,242.2328 Q318.6487,242.55 317.7519,242.55 Q316.7019,242.55 315.8597,242.1344 Q315.1816,241.8062 314.7003,241.0953 Q314.23,240.3844 314.23,239.5422 L314.23,238.7766 Q314.23,237.9016 314.6456,237.1359 Q315.0722,236.3703 315.805,235.9656 Q316.5488,235.55 317.38,235.55 Q317.8831,235.55 318.3206,235.725 Q318.7581,235.9 319.13,236.25 Z "/><text fill="#000000" font-family="sans-serif" font-size="8.4" lengthAdjust="spacingAndGlyphs" textLength="25.9" x="330.47" y="242.1371">Battery</text><line style="stroke: #A80036; stroke-width: 1.0499999999999998;" x1="294.7" x2="371" y1="249.9" y2="249.9"/><text fill="#000000" font-family="sans-serif" font-size="7.7" lengthAdjust="spacingAndGlyphs" textLength="18.2" x="298.2" y="260.6933">-int id</text><text fill="#000000" font-family="sans-serif" font-size="7.7" lengthAdjust="spacingAndGlyphs" textLength="58.8" x="298.2" y="270.3784">-float batteryPerc</text><text fill="#000000" font-family="sans-serif" font-size="7.7" lengthAdjust="spacingAndGlyphs" textLength="65.8" x="298.2" y="280.0636">-int batteryCapacity</text><text fill="#000000" font-family="sans-serif" font-size="7.7" lengthAdjust="spacingAndGlyphs" textLength="69.3" x="298.2" y="289.7487">-float batteryVoltage</text><!--MD5=[0f39e4cb6f03951afbf6d14bd2505654]
class Address--><rect fill="#FEFECE" filter="url(#f148tttxn4pdrm)" height="95.7961" id="Address" style="stroke: #A80036; stroke-width: 1.0499999999999998;" width="74.2" x="295.75" y="107.1"/><ellipse cx="315.07" cy="118.3" fill="#ADD1B2" rx="7.7" ry="7.7" style="stroke: #A80036; stroke-width: 0.7;"/><path d="M316.47,115.85 Q316.6122,115.5 316.7763,115.325 Q316.9403,115.15 317.1262,115.15 Q317.4544,115.15 317.6622,115.3469 Q317.87,115.5437 317.87,116.0031 L317.87,117.0969 Q317.87,117.5562 317.6731,117.7531 Q317.4763,117.95 317.17,117.95 Q316.8966,117.95 316.7216,117.8297 Q316.5466,117.7094 316.47,117.3922 Q316.4372,117.1734 316.3169,117.0531 Q316.0981,116.8234 315.7044,116.6922 Q315.3106,116.55 314.9169,116.55 Q314.4247,116.55 314.0091,116.7469 Q313.6044,116.9438 313.2872,117.3813 Q312.97,117.8188 312.97,118.4203 L312.97,119.0656 Q312.97,119.7875 313.5606,120.2688 Q314.1513,120.75 315.2013,120.75 Q315.8247,120.75 316.2622,120.6078 Q316.5138,120.5312 316.7981,120.2797 Q316.9841,120.1375 317.0825,120.0937 Q317.1809,120.05 317.3013,120.05 Q317.5309,120.05 317.695,120.2359 Q317.87,120.4109 317.87,120.6625 Q317.87,120.9031 317.6294,121.1875 Q317.2794,121.6031 316.7216,121.8328 Q315.9888,122.15 315.0919,122.15 Q314.0419,122.15 313.1997,121.7344 Q312.5216,121.4062 312.0403,120.6953 Q311.57,119.9844 311.57,119.1422 L311.57,118.3766 Q311.57,117.5016 311.9856,116.7359 Q312.4122,115.9703 313.145,115.5656 Q313.8888,115.15 314.72,115.15 Q315.2231,115.15 315.6606,115.325 Q316.0981,115.5 316.47,115.85 Z "/><text fill="#000000" font-family="sans-serif" font-size="8.4" lengthAdjust="spacingAndGlyphs" textLength="32.2" x="326.83" y="121.7371">Address</text><line style="stroke: #A80036; stroke-width: 1.0499999999999998;" x1="296.45" x2="369.25" y1="129.5" y2="129.5"/><text fill="#000000" font-family="sans-serif" font-size="7.7" lengthAdjust="spacingAndGlyphs" textLength="49.7" x="299.95" y="140.2933">-float longitude</text><text fill="#000000" font-family="sans-serif" font-size="7.7" lengthAdjust="spacingAndGlyphs" textLength="43.4" x="299.95" y="149.9784">-float latitude</text><text fill="#000000" font-family="sans-serif" font-size="7.7" lengthAdjust="spacingAndGlyphs" textLength="65.8" x="299.95" y="159.6636">-String doorNumber</text><text fill="#000000" font-family="sans-serif" font-size="7.7" lengthAdjust="spacingAndGlyphs" textLength="63" x="299.95" y="169.3487">-String streetName</text><text fill="#000000" font-family="sans-serif" font-size="7.7" lengthAdjust="spacingAndGlyphs" textLength="62.3" x="299.95" y="179.0339">-String postalCode</text><text fill="#000000" font-family="sans-serif" font-size="7.7" lengthAdjust="spacingAndGlyphs" textLength="47.6" x="299.95" y="188.719">-String locality</text><text fill="#000000" font-family="sans-serif" font-size="7.7" lengthAdjust="spacingAndGlyphs" textLength="50.4" x="299.95" y="198.4042">-String country</text><!--MD5=[51d7b9a785c9fb041ca400474ed1d998]
link Database to Pharmacy--><path d="M61.0488,155.05 C89.2906,155.05 132.8894,155.05 161.8736,155.05 " fill="none" id="Database-Pharmacy" style="stroke: #A80036; stroke-width: 0.7;"/><text fill="#000000" font-family="sans-serif" font-size="9.1" lengthAdjust="spacingAndGlyphs" textLength="14.7" x="97.65" y="152.5966">has</text><polygon fill="#000000" points="114.45,147.823,118.65,149.923,114.45,152.023,114.45,147.823" style="stroke: #000000; stroke-width: 0.7;"/><text fill="#000000" font-family="sans-serif" font-size="9.1" lengthAdjust="spacingAndGlyphs" textLength="4.9" x="66.5615" y="165.5404">1</text><text fill="#000000" font-family="sans-serif" font-size="9.1" lengthAdjust="spacingAndGlyphs" textLength="3.5" x="153.0113" y="165.4635">*</text><!--MD5=[6f1b2737b94c689eac8b0af6a5ef1443]
link Scooter to Pharmacy--><path d="M58.5481,216.2342 C86.6999,203.308 132.146,182.441 161.9989,168.7336 " fill="none" id="Scooter-Pharmacy" style="stroke: #A80036; stroke-width: 0.7;"/><text fill="#000000" font-family="sans-serif" font-size="9.1" lengthAdjust="spacingAndGlyphs" textLength="42" x="84" y="177.7966">belongs to</text><polygon fill="#000000" points="128.1,173.023,132.3,175.123,128.1,177.223,128.1,173.023" style="stroke: #000000; stroke-width: 0.7;"/><text fill="#000000" font-family="sans-serif" font-size="9.1" lengthAdjust="spacingAndGlyphs" textLength="3.5" x="64.011" y="224.5206">*</text><text fill="#000000" font-family="sans-serif" font-size="9.1" lengthAdjust="spacingAndGlyphs" textLength="4.9" x="151.6414" y="181.4134">1</text><!--MD5=[52f80c2c106e4280525a8160ec8cd0fa]
link Scooter to Vehicle--><path d="M58.5401,235.7776 C65.9964,237.8384 74.2175,239.8438 81.9,241.15 C107.2617,245.4619 136.3096,247.3683 158.1706,248.2068 " fill="none" id="Scooter-Vehicle" style="stroke: #A80036; stroke-width: 0.7;"/><text fill="#000000" font-family="sans-serif" font-size="9.1" lengthAdjust="spacingAndGlyphs" textLength="44.8" x="82.6" y="238.6966">is a type of</text><polygon fill="#000000" points="129.5,233.923,133.7,236.023,129.5,238.123,129.5,233.923" style="stroke: #000000; stroke-width: 0.7;"/><text fill="#000000" font-family="sans-serif" font-size="9.1" lengthAdjust="spacingAndGlyphs" textLength="3.5" x="64.0014" y="247.9117">*</text><text fill="#000000" font-family="sans-serif" font-size="9.1" lengthAdjust="spacingAndGlyphs" textLength="4.9" x="147.6388" y="258.4128">1</text><!--MD5=[074a56c4439d52c76e1cc7a8f9d070a4]
link Vehicle to Battery--><path d="M226.8357,251.7306 C247.0762,253.4641 272.9041,255.6761 293.9167,257.4756 " fill="none" id="Vehicle-Battery" style="stroke: #A80036; stroke-width: 0.7;"/><text fill="#000000" font-family="sans-serif" font-size="9.1" lengthAdjust="spacingAndGlyphs" textLength="14.7" x="248.5" y="250.5966">has</text><polygon fill="#000000" points="265.3,245.823,269.5,247.923,265.3,250.023,265.3,245.823" style="stroke: #000000; stroke-width: 0.7;"/><text fill="#000000" font-family="sans-serif" font-size="9.1" lengthAdjust="spacingAndGlyphs" textLength="4.9" x="232.4685" y="262.4762">1</text><text fill="#000000" font-family="sans-serif" font-size="9.1" lengthAdjust="spacingAndGlyphs" textLength="4.9" x="283.4558" y="267.2351">1</text><!--MD5=[89baec1bfb4a213750f7c61516e0a0f1]
link Pharmacy to Address--><path d="M223.0081,155.05 C244.2993,155.05 273.0651,155.05 295.7199,155.05 " fill="none" id="Pharmacy-Address" style="stroke: #A80036; stroke-width: 0.7;"/><text fill="#000000" font-family="sans-serif" font-size="9.1" lengthAdjust="spacingAndGlyphs" textLength="14.7" x="248.5" y="152.5966">has</text><polygon fill="#000000" points="265.3,147.823,269.5,149.923,265.3,152.023,265.3,147.823" style="stroke: #000000; stroke-width: 0.7;"/><text fill="#000000" font-family="sans-serif" font-size="9.1" lengthAdjust="spacingAndGlyphs" textLength="4.9" x="228.4668" y="165.4635">1</text><text fill="#000000" font-family="sans-serif" font-size="9.1" lengthAdjust="spacingAndGlyphs" textLength="4.9" x="285.2539" y="165.3087">1</text><!--MD5=[e7daa03d92f0a94af078cf78578db78d]
link Pharmacy to ScooterPark--><path d="M223.0081,135.3779 C246.7717,119.6958 279.846,97.8684 303.3422,82.3613 " fill="none" id="Pharmacy-ScooterPark" style="stroke: #A80036; stroke-width: 0.7;"/><text fill="#000000" font-family="sans-serif" font-size="9.1" lengthAdjust="spacingAndGlyphs" textLength="14.7" x="248.5" y="100.7966">has</text><polygon fill="#000000" points="265.3,96.023,269.5,98.123,265.3,100.223,265.3,96.023" style="stroke: #000000; stroke-width: 0.7;"/><text fill="#000000" font-family="sans-serif" font-size="9.1" lengthAdjust="spacingAndGlyphs" textLength="4.9" x="228.4668" y="142.5332">1</text><text fill="#000000" font-family="sans-serif" font-size="9.1" lengthAdjust="spacingAndGlyphs" textLength="4.9" x="291.4514" y="97.2311">1</text><!--MD5=[6c03f80bb0eb412de4ede466470bd7f4]
link ScooterPark to ScooterChargingSlot--><path d="M371.8505,55.0872 C392.0259,50.7353 417.0285,45.3411 438.7726,40.6504 " fill="none" id="ScooterPark-ScooterChargingSlot" style="stroke: #A80036; stroke-width: 0.7;"/><text fill="#000000" font-family="sans-serif" font-size="9.1" lengthAdjust="spacingAndGlyphs" textLength="14.7" x="393.4" y="42.6966">has</text><polygon fill="#000000" points="410.2,37.923,414.4,40.023,410.2,42.123,410.2,37.923" style="stroke: #000000; stroke-width: 0.7;"/><text fill="#000000" font-family="sans-serif" font-size="9.1" lengthAdjust="spacingAndGlyphs" textLength="4.9" x="377.4204" y="64.2002">1</text><text fill="#000000" font-family="sans-serif" font-size="9.1" lengthAdjust="spacingAndGlyphs" textLength="4.9" x="428.3371" y="51.8231">1</text><!--MD5=[8b5c72ddee54db66c8e770f45750c925]
link ScooterPark to ScooterParkingSlot--><path d="M371.8505,71.6128 C393.0171,76.1789 419.496,81.8909 441.9513,86.7356 " fill="none" id="ScooterPark-ScooterParkingSlot" style="stroke: #A80036; stroke-width: 0.7;"/><text fill="#000000" font-family="sans-serif" font-size="9.1" lengthAdjust="spacingAndGlyphs" textLength="14.7" x="393.4" y="73.4966">has</text><polygon fill="#000000" points="410.2,68.723,414.4,70.823,410.2,72.923,410.2,68.723" style="stroke: #000000; stroke-width: 0.7;"/><text fill="#000000" font-family="sans-serif" font-size="9.1" lengthAdjust="spacingAndGlyphs" textLength="4.9" x="377.4204" y="82.9464">1</text><text fill="#000000" font-family="sans-serif" font-size="9.1" lengthAdjust="spacingAndGlyphs" textLength="4.9" x="431.528" y="95.6972">1</text><!--MD5=[031542fc4ddadfd34b37ab01027f22c3]
@startuml
skinparam classAttributeIconSize 0
hide methods
left to right direction

database Database {
}

class Pharmacy {
  -int id
  -String name
}

class ScooterPark{
-   int maxSlotsNumber
}

class ScooterChargingSlot{
-   int id
-   float outputPower
}

class ScooterParkingSlot{
-   int id
}

class Scooter{
}

class Vehicle{
  -int id
  -float potency
  -float weight
  -float maxPayload
}

class Battery{
  -int id
  -float batteryPerc
  -int batteryCapacity
  -float batteryVoltage
}

class Address{
  -float longitude
  -float latitude
  -String doorNumber
  -String streetName
  -String postalCode
  -String locality
  -String country
}



Database "1" - - "*" Pharmacy : has >
Scooter "*" - - "1" Pharmacy : belongs to >
Scooter "*" - - "1" Vehicle : is a type of >
Vehicle "1" - - "1" Battery : has >
Pharmacy "1" - - "1" Address : has >
Pharmacy "1" - - "1" ScooterPark : has >
ScooterPark "1" - - "1" ScooterChargingSlot : has >
ScooterPark "1" - - "1" ScooterParkingSlot : has >
@enduml

PlantUML version 1.2020.09(Sun May 10 11:51:06 BST 2020)
(GPL source distribution)
Java Runtime: OpenJDK Runtime Environment
JVM: OpenJDK 64-Bit Server VM
Java Version: 11.0.6+8-b765.40
Operating System: Windows 10
Default Encoding: Cp1252
Language: pt
Country: PT
--></g></svg>