<?xml version="1.0" encoding="UTF-8" standalone="no"?><svg xmlns="http://www.w3.org/2000/svg" xmlns:xlink="http://www.w3.org/1999/xlink" contentScriptType="application/ecmascript" contentStyleType="text/css" height="1260px" preserveAspectRatio="none" style="width:1122px;height:1260px;" version="1.1" viewBox="0 0 1122 1260" width="1122px" zoomAndPan="magnify"><defs><filter height="300%" id="f142une4c3v72d" width="300%" x="-1" y="-1"><feGaussianBlur result="blurOut" stdDeviation="2.0"/><feColorMatrix in="blurOut" result="blurOut2" type="matrix" values="0 0 0 0 0 0 0 0 0 0 0 0 0 0 0 0 0 0 .4 0"/><feOffset dx="4.0" dy="4.0" in="blurOut2" result="blurOut3"/><feBlend in="SourceGraphic" in2="blurOut3" mode="normal"/></filter></defs><g><!--MD5=[9681dc6e01e10c6b4fe06895ae94f592]
cluster UI--><polygon fill="#DDDDDD" filter="url(#f142une4c3v72d)" points="167,24,187,24,194,47.6094,331,47.6094,331,124,167,124,167,24" style="stroke: #000000; stroke-width: 1.5;"/><line style="stroke: #000000; stroke-width: 1.5;" x1="167" x2="194" y1="47.6094" y2="47.6094"/><text fill="#000000" font-family="sans-serif" font-size="14" font-weight="bold" lengthAdjust="spacingAndGlyphs" textLength="14" x="171" y="40.5332">UI</text><!--MD5=[1f2cfc53d9d308f53762fd0fcbaa4873]
cluster Controller--><polygon fill="#DDDDDD" filter="url(#f142une4c3v72d)" points="146,157,223,157,230,180.6094,352,180.6094,352,299,146,299,146,157" style="stroke: #000000; stroke-width: 1.5;"/><line style="stroke: #000000; stroke-width: 1.5;" x1="146" x2="230" y1="180.6094" y2="180.6094"/><text fill="#000000" font-family="sans-serif" font-size="14" font-weight="bold" lengthAdjust="spacingAndGlyphs" textLength="71" x="150" y="173.5332">Controller</text><!--MD5=[15636c1ca4a123c16a2a1a8e90aca7a9]
cluster Model--><polygon fill="#DDDDDD" filter="url(#f142une4c3v72d)" points="22,332,72,332,79,355.6094,575,355.6094,575,1248,22,1248,22,332" style="stroke: #000000; stroke-width: 1.5;"/><line style="stroke: #000000; stroke-width: 1.5;" x1="22" x2="79" y1="355.6094" y2="355.6094"/><text fill="#000000" font-family="sans-serif" font-size="14" font-weight="bold" lengthAdjust="spacingAndGlyphs" textLength="44" x="26" y="348.5332">Model</text><!--MD5=[9dd75fd92da113d30380b27734fd2f01]
cluster Service--><polygon fill="#DDDDDD" filter="url(#f142une4c3v72d)" points="117,376,177,376,184,399.6094,457,399.6094,457,518,117,518,117,376" style="stroke: #000000; stroke-width: 1.5;"/><line style="stroke: #000000; stroke-width: 1.5;" x1="117" x2="184" y1="399.6094" y2="399.6094"/><text fill="#000000" font-family="sans-serif" font-size="14" font-weight="bold" lengthAdjust="spacingAndGlyphs" textLength="54" x="121" y="392.5332">Service</text><!--MD5=[f21b1f164e99c6b37934f23ad048ad54]
cluster Data--><polygon fill="#DDDDDD" filter="url(#f142une4c3v72d)" points="745,383,782,383,789,406.6094,1100,406.6094,1100,688,745,688,745,383" style="stroke: #000000; stroke-width: 1.5;"/><line style="stroke: #000000; stroke-width: 1.5;" x1="745" x2="789" y1="406.6094" y2="406.6094"/><text fill="#000000" font-family="sans-serif" font-size="14" font-weight="bold" lengthAdjust="spacingAndGlyphs" textLength="31" x="749" y="399.5332">Data</text><!--MD5=[fa1e3283224feb76407c84b7e90ed808]
entity Database--><path d="M633.5,443.5 C633.5,433.5 674,433.5 674,433.5 C674,433.5 714.5,433.5 714.5,443.5 L714.5,470.1094 C714.5,480.1094 674,480.1094 674,480.1094 C674,480.1094 633.5,480.1094 633.5,470.1094 L633.5,443.5 " fill="#FFFFFF" filter="url(#f142une4c3v72d)" style="stroke: #000000; stroke-width: 1.5;"/><path d="M633.5,443.5 C633.5,453.5 674,453.5 674,453.5 C674,453.5 714.5,453.5 714.5,443.5 " fill="none" style="stroke: #000000; stroke-width: 1.5;"/><text fill="#000000" font-family="sans-serif" font-size="14" lengthAdjust="spacingAndGlyphs" textLength="61" x="643.5" y="472.0332">Database</text><!--MD5=[6e833f4d304e2534fd2d5c5fc5d919d8]
class RemoveScooterUI--><rect fill="#FEFECE" filter="url(#f142une4c3v72d)" height="48" id="RemoveScooterUI" style="stroke: #A80036; stroke-width: 1.5;" width="132" x="183" y="60"/><ellipse cx="198" cy="76" fill="#ADD1B2" rx="11" ry="11" style="stroke: #A80036; stroke-width: 1.0;"/><path d="M200,72.5 Q200.2031,72 200.4375,71.75 Q200.6719,71.5 200.9375,71.5 Q201.4063,71.5 201.7031,71.7813 Q202,72.0625 202,72.7188 L202,74.2813 Q202,74.9375 201.7188,75.2188 Q201.4375,75.5 201,75.5 Q200.6094,75.5 200.3594,75.3281 Q200.1094,75.1563 200,74.7031 Q199.9531,74.3906 199.7813,74.2188 Q199.4688,73.8906 198.9063,73.7031 Q198.3438,73.5 197.7813,73.5 Q197.0781,73.5 196.4844,73.7813 Q195.9063,74.0625 195.4531,74.6875 Q195,75.3125 195,76.1719 L195,77.0938 Q195,78.125 195.8438,78.8125 Q196.6875,79.5 198.1875,79.5 Q199.0781,79.5 199.7031,79.2969 Q200.0625,79.1875 200.4688,78.8281 Q200.7344,78.625 200.875,78.5625 Q201.0156,78.5 201.1875,78.5 Q201.5156,78.5 201.75,78.7656 Q202,79.0156 202,79.375 Q202,79.7188 201.6563,80.125 Q201.1563,80.7188 200.3594,81.0469 Q199.3125,81.5 198.0313,81.5 Q196.5313,81.5 195.3281,80.9063 Q194.3594,80.4375 193.6719,79.4219 Q193,78.4063 193,77.2031 L193,76.1094 Q193,74.8594 193.5938,73.7656 Q194.2031,72.6719 195.25,72.0938 Q196.3125,71.5 197.5,71.5 Q198.2188,71.5 198.8438,71.75 Q199.4688,72 200,72.5 Z "/><text fill="#000000" font-family="sans-serif" font-size="12" lengthAdjust="spacingAndGlyphs" textLength="100" x="212" y="80.9102">RemoveScooterUI</text><line style="stroke: #A80036; stroke-width: 1.5;" x1="184" x2="314" y1="92" y2="92"/><line style="stroke: #A80036; stroke-width: 1.5;" x1="184" x2="314" y1="100" y2="100"/><!--MD5=[bac027668d924653165cf48795e5a572]
class RemoveScooterController--><rect fill="#FEFECE" filter="url(#f142une4c3v72d)" height="89.5078" id="RemoveScooterController" style="stroke: #A80036; stroke-width: 1.5;" width="174" x="162" y="193"/><ellipse cx="177" cy="209" fill="#ADD1B2" rx="11" ry="11" style="stroke: #A80036; stroke-width: 1.0;"/><path d="M179,205.5 Q179.2031,205 179.4375,204.75 Q179.6719,204.5 179.9375,204.5 Q180.4063,204.5 180.7031,204.7813 Q181,205.0625 181,205.7188 L181,207.2813 Q181,207.9375 180.7188,208.2188 Q180.4375,208.5 180,208.5 Q179.6094,208.5 179.3594,208.3281 Q179.1094,208.1563 179,207.7031 Q178.9531,207.3906 178.7813,207.2188 Q178.4688,206.8906 177.9063,206.7031 Q177.3438,206.5 176.7813,206.5 Q176.0781,206.5 175.4844,206.7813 Q174.9063,207.0625 174.4531,207.6875 Q174,208.3125 174,209.1719 L174,210.0938 Q174,211.125 174.8438,211.8125 Q175.6875,212.5 177.1875,212.5 Q178.0781,212.5 178.7031,212.2969 Q179.0625,212.1875 179.4688,211.8281 Q179.7344,211.625 179.875,211.5625 Q180.0156,211.5 180.1875,211.5 Q180.5156,211.5 180.75,211.7656 Q181,212.0156 181,212.375 Q181,212.7188 180.6563,213.125 Q180.1563,213.7188 179.3594,214.0469 Q178.3125,214.5 177.0313,214.5 Q175.5313,214.5 174.3281,213.9063 Q173.3594,213.4375 172.6719,212.4219 Q172,211.4063 172,210.2031 L172,209.1094 Q172,207.8594 172.5938,206.7656 Q173.2031,205.6719 174.25,205.0938 Q175.3125,204.5 176.5,204.5 Q177.2188,204.5 177.8438,204.75 Q178.4688,205 179,205.5 Z "/><text fill="#000000" font-family="sans-serif" font-size="12" lengthAdjust="spacingAndGlyphs" textLength="142" x="191" y="213.9102">RemoveScooterController</text><line style="stroke: #A80036; stroke-width: 1.5;" x1="163" x2="335" y1="225" y2="225"/><line style="stroke: #A80036; stroke-width: 1.5;" x1="163" x2="335" y1="233" y2="233"/><text fill="#000000" font-family="sans-serif" font-size="11" lengthAdjust="spacingAndGlyphs" textLength="98" x="168" y="248.4189">+showPharmacies()</text><text fill="#000000" font-family="sans-serif" font-size="11" lengthAdjust="spacingAndGlyphs" textLength="159" x="168" y="262.2549">+showScootersList(pharmacyId)</text><text fill="#000000" font-family="sans-serif" font-size="11" lengthAdjust="spacingAndGlyphs" textLength="133" x="168" y="276.0908">+removeScooter(scooterId)</text><!--MD5=[868815390a9e59f0f213a5798810649b]
class ScooterPark--><rect fill="#FEFECE" filter="url(#f142une4c3v72d)" height="61.8359" id="ScooterPark" style="stroke: #A80036; stroke-width: 1.5;" width="111" x="306.5" y="974.5"/><ellipse cx="326.9" cy="990.5" fill="#ADD1B2" rx="11" ry="11" style="stroke: #A80036; stroke-width: 1.0;"/><path d="M328.9,987 Q329.1031,986.5 329.3375,986.25 Q329.5719,986 329.8375,986 Q330.3063,986 330.6031,986.2813 Q330.9,986.5625 330.9,987.2188 L330.9,988.7813 Q330.9,989.4375 330.6188,989.7188 Q330.3375,990 329.9,990 Q329.5094,990 329.2594,989.8281 Q329.0094,989.6563 328.9,989.2031 Q328.8531,988.8906 328.6813,988.7188 Q328.3688,988.3906 327.8063,988.2031 Q327.2438,988 326.6813,988 Q325.9781,988 325.3844,988.2813 Q324.8063,988.5625 324.3531,989.1875 Q323.9,989.8125 323.9,990.6719 L323.9,991.5938 Q323.9,992.625 324.7438,993.3125 Q325.5875,994 327.0875,994 Q327.9781,994 328.6031,993.7969 Q328.9625,993.6875 329.3688,993.3281 Q329.6344,993.125 329.775,993.0625 Q329.9156,993 330.0875,993 Q330.4156,993 330.65,993.2656 Q330.9,993.5156 330.9,993.875 Q330.9,994.2188 330.5563,994.625 Q330.0563,995.2188 329.2594,995.5469 Q328.2125,996 326.9313,996 Q325.4313,996 324.2281,995.4063 Q323.2594,994.9375 322.5719,993.9219 Q321.9,992.9063 321.9,991.7031 L321.9,990.6094 Q321.9,989.3594 322.4938,988.2656 Q323.1031,987.1719 324.15,986.5938 Q325.2125,986 326.4,986 Q327.1188,986 327.7438,986.25 Q328.3688,986.5 328.9,987 Z "/><text fill="#000000" font-family="sans-serif" font-size="12" lengthAdjust="spacingAndGlyphs" textLength="67" x="342.1" y="995.4102">ScooterPark</text><line style="stroke: #A80036; stroke-width: 1.5;" x1="307.5" x2="416.5" y1="1006.5" y2="1006.5"/><text fill="#000000" font-family="sans-serif" font-size="11" lengthAdjust="spacingAndGlyphs" textLength="99" x="312.5" y="1021.9189">-int maxSlotsNumber</text><line style="stroke: #A80036; stroke-width: 1.5;" x1="307.5" x2="416.5" y1="1028.3359" y2="1028.3359"/><!--MD5=[5efbb0d0731ef97fc2ab2cfe7ed5bd27]
class ScooterChargingSlot--><rect fill="#FEFECE" filter="url(#f142une4c3v72d)" height="75.6719" id="ScooterChargingSlot" style="stroke: #A80036; stroke-width: 1.5;" width="146" x="201" y="1156"/><ellipse cx="216" cy="1172" fill="#ADD1B2" rx="11" ry="11" style="stroke: #A80036; stroke-width: 1.0;"/><path d="M218,1168.5 Q218.2031,1168 218.4375,1167.75 Q218.6719,1167.5 218.9375,1167.5 Q219.4063,1167.5 219.7031,1167.7813 Q220,1168.0625 220,1168.7188 L220,1170.2813 Q220,1170.9375 219.7188,1171.2188 Q219.4375,1171.5 219,1171.5 Q218.6094,1171.5 218.3594,1171.3281 Q218.1094,1171.1563 218,1170.7031 Q217.9531,1170.3906 217.7813,1170.2188 Q217.4688,1169.8906 216.9063,1169.7031 Q216.3438,1169.5 215.7813,1169.5 Q215.0781,1169.5 214.4844,1169.7813 Q213.9063,1170.0625 213.4531,1170.6875 Q213,1171.3125 213,1172.1719 L213,1173.0938 Q213,1174.125 213.8438,1174.8125 Q214.6875,1175.5 216.1875,1175.5 Q217.0781,1175.5 217.7031,1175.2969 Q218.0625,1175.1875 218.4688,1174.8281 Q218.7344,1174.625 218.875,1174.5625 Q219.0156,1174.5 219.1875,1174.5 Q219.5156,1174.5 219.75,1174.7656 Q220,1175.0156 220,1175.375 Q220,1175.7188 219.6563,1176.125 Q219.1563,1176.7188 218.3594,1177.0469 Q217.3125,1177.5 216.0313,1177.5 Q214.5313,1177.5 213.3281,1176.9063 Q212.3594,1176.4375 211.6719,1175.4219 Q211,1174.4063 211,1173.2031 L211,1172.1094 Q211,1170.8594 211.5938,1169.7656 Q212.2031,1168.6719 213.25,1168.0938 Q214.3125,1167.5 215.5,1167.5 Q216.2188,1167.5 216.8438,1167.75 Q217.4688,1168 218,1168.5 Z "/><text fill="#000000" font-family="sans-serif" font-size="12" lengthAdjust="spacingAndGlyphs" textLength="114" x="230" y="1176.9102">ScooterChargingSlot</text><line style="stroke: #A80036; stroke-width: 1.5;" x1="202" x2="346" y1="1188" y2="1188"/><text fill="#000000" font-family="sans-serif" font-size="11" lengthAdjust="spacingAndGlyphs" textLength="26" x="207" y="1203.4189">-int id</text><text fill="#000000" font-family="sans-serif" font-size="11" lengthAdjust="spacingAndGlyphs" textLength="90" x="207" y="1217.2549">-float outputPower</text><line style="stroke: #A80036; stroke-width: 1.5;" x1="202" x2="346" y1="1223.6719" y2="1223.6719"/><!--MD5=[d3cdad78b703b3ff47b8cf68490e772e]
class ScooterParkingSlot--><rect fill="#FEFECE" filter="url(#f142une4c3v72d)" height="61.8359" id="ScooterParkingSlot" style="stroke: #A80036; stroke-width: 1.5;" width="137" x="382.5" y="1163"/><ellipse cx="397.5" cy="1179" fill="#ADD1B2" rx="11" ry="11" style="stroke: #A80036; stroke-width: 1.0;"/><path d="M399.5,1175.5 Q399.7031,1175 399.9375,1174.75 Q400.1719,1174.5 400.4375,1174.5 Q400.9063,1174.5 401.2031,1174.7813 Q401.5,1175.0625 401.5,1175.7188 L401.5,1177.2813 Q401.5,1177.9375 401.2188,1178.2188 Q400.9375,1178.5 400.5,1178.5 Q400.1094,1178.5 399.8594,1178.3281 Q399.6094,1178.1563 399.5,1177.7031 Q399.4531,1177.3906 399.2813,1177.2188 Q398.9688,1176.8906 398.4063,1176.7031 Q397.8438,1176.5 397.2813,1176.5 Q396.5781,1176.5 395.9844,1176.7813 Q395.4063,1177.0625 394.9531,1177.6875 Q394.5,1178.3125 394.5,1179.1719 L394.5,1180.0938 Q394.5,1181.125 395.3438,1181.8125 Q396.1875,1182.5 397.6875,1182.5 Q398.5781,1182.5 399.2031,1182.2969 Q399.5625,1182.1875 399.9688,1181.8281 Q400.2344,1181.625 400.375,1181.5625 Q400.5156,1181.5 400.6875,1181.5 Q401.0156,1181.5 401.25,1181.7656 Q401.5,1182.0156 401.5,1182.375 Q401.5,1182.7188 401.1563,1183.125 Q400.6563,1183.7188 399.8594,1184.0469 Q398.8125,1184.5 397.5313,1184.5 Q396.0313,1184.5 394.8281,1183.9063 Q393.8594,1183.4375 393.1719,1182.4219 Q392.5,1181.4063 392.5,1180.2031 L392.5,1179.1094 Q392.5,1177.8594 393.0938,1176.7656 Q393.7031,1175.6719 394.75,1175.0938 Q395.8125,1174.5 397,1174.5 Q397.7188,1174.5 398.3438,1174.75 Q398.9688,1175 399.5,1175.5 Z "/><text fill="#000000" font-family="sans-serif" font-size="12" lengthAdjust="spacingAndGlyphs" textLength="105" x="411.5" y="1183.9102">ScooterParkingSlot</text><line style="stroke: #A80036; stroke-width: 1.5;" x1="383.5" x2="518.5" y1="1195" y2="1195"/><text fill="#000000" font-family="sans-serif" font-size="11" lengthAdjust="spacingAndGlyphs" textLength="26" x="388.5" y="1210.4189">-int id</text><line style="stroke: #A80036; stroke-width: 1.5;" x1="383.5" x2="518.5" y1="1216.8359" y2="1216.8359"/><!--MD5=[f4402668d5d5bb8485350c0fdb60ac8e]
class Scooter--><rect fill="#FEFECE" filter="url(#f142une4c3v72d)" height="75.6719" id="Scooter" style="stroke: #A80036; stroke-width: 1.5;" width="337" x="221.5" y="589"/><ellipse cx="364.75" cy="605" fill="#ADD1B2" rx="11" ry="11" style="stroke: #A80036; stroke-width: 1.0;"/><path d="M366.75,601.5 Q366.9531,601 367.1875,600.75 Q367.4219,600.5 367.6875,600.5 Q368.1563,600.5 368.4531,600.7813 Q368.75,601.0625 368.75,601.7188 L368.75,603.2813 Q368.75,603.9375 368.4688,604.2188 Q368.1875,604.5 367.75,604.5 Q367.3594,604.5 367.1094,604.3281 Q366.8594,604.1563 366.75,603.7031 Q366.7031,603.3906 366.5313,603.2188 Q366.2188,602.8906 365.6563,602.7031 Q365.0938,602.5 364.5313,602.5 Q363.8281,602.5 363.2344,602.7813 Q362.6563,603.0625 362.2031,603.6875 Q361.75,604.3125 361.75,605.1719 L361.75,606.0938 Q361.75,607.125 362.5938,607.8125 Q363.4375,608.5 364.9375,608.5 Q365.8281,608.5 366.4531,608.2969 Q366.8125,608.1875 367.2188,607.8281 Q367.4844,607.625 367.625,607.5625 Q367.7656,607.5 367.9375,607.5 Q368.2656,607.5 368.5,607.7656 Q368.75,608.0156 368.75,608.375 Q368.75,608.7188 368.4063,609.125 Q367.9063,609.7188 367.1094,610.0469 Q366.0625,610.5 364.7813,610.5 Q363.2813,610.5 362.0781,609.9063 Q361.1094,609.4375 360.4219,608.4219 Q359.75,607.4063 359.75,606.2031 L359.75,605.1094 Q359.75,603.8594 360.3438,602.7656 Q360.9531,601.6719 362,601.0938 Q363.0625,600.5 364.25,600.5 Q364.9688,600.5 365.5938,600.75 Q366.2188,601 366.75,601.5 Z "/><text fill="#000000" font-family="sans-serif" font-size="12" lengthAdjust="spacingAndGlyphs" textLength="42" x="385.25" y="609.9102">Scooter</text><line style="stroke: #A80036; stroke-width: 1.5;" x1="222.5" x2="557.5" y1="621" y2="621"/><line style="stroke: #A80036; stroke-width: 1.5;" x1="222.5" x2="557.5" y1="629" y2="629"/><text fill="#000000" font-family="sans-serif" font-size="11" lengthAdjust="spacingAndGlyphs" textLength="225" x="227.5" y="644.4189">+Scooter(batteryPerc, charginStatus, potency,</text><text fill="#000000" font-family="sans-serif" font-size="11" lengthAdjust="spacingAndGlyphs" textLength="322" x="230.5" y="658.2549">weight, batteryCapacity, maxPayload, batteryVoltage, pharmacyId)</text><!--MD5=[3aa0d89c6bfdcbf7f32042cedac57549]
class Vehicle--><rect fill="#FEFECE" filter="url(#f142une4c3v72d)" height="103.3438" id="Vehicle" style="stroke: #A80036; stroke-width: 1.5;" width="98" x="173" y="752"/><ellipse cx="199.7" cy="768" fill="#ADD1B2" rx="11" ry="11" style="stroke: #A80036; stroke-width: 1.0;"/><path d="M201.7,764.5 Q201.9031,764 202.1375,763.75 Q202.3719,763.5 202.6375,763.5 Q203.1063,763.5 203.4031,763.7813 Q203.7,764.0625 203.7,764.7188 L203.7,766.2813 Q203.7,766.9375 203.4188,767.2188 Q203.1375,767.5 202.7,767.5 Q202.3094,767.5 202.0594,767.3281 Q201.8094,767.1563 201.7,766.7031 Q201.6531,766.3906 201.4813,766.2188 Q201.1688,765.8906 200.6063,765.7031 Q200.0438,765.5 199.4813,765.5 Q198.7781,765.5 198.1844,765.7813 Q197.6063,766.0625 197.1531,766.6875 Q196.7,767.3125 196.7,768.1719 L196.7,769.0938 Q196.7,770.125 197.5438,770.8125 Q198.3875,771.5 199.8875,771.5 Q200.7781,771.5 201.4031,771.2969 Q201.7625,771.1875 202.1688,770.8281 Q202.4344,770.625 202.575,770.5625 Q202.7156,770.5 202.8875,770.5 Q203.2156,770.5 203.45,770.7656 Q203.7,771.0156 203.7,771.375 Q203.7,771.7188 203.3563,772.125 Q202.8563,772.7188 202.0594,773.0469 Q201.0125,773.5 199.7313,773.5 Q198.2313,773.5 197.0281,772.9063 Q196.0594,772.4375 195.3719,771.4219 Q194.7,770.4063 194.7,769.2031 L194.7,768.1094 Q194.7,766.8594 195.2938,765.7656 Q195.9031,764.6719 196.95,764.0938 Q198.0125,763.5 199.2,763.5 Q199.9188,763.5 200.5438,763.75 Q201.1688,764 201.7,764.5 Z "/><text fill="#000000" font-family="sans-serif" font-size="12" lengthAdjust="spacingAndGlyphs" textLength="40" x="216.3" y="772.9102">Vehicle</text><line style="stroke: #A80036; stroke-width: 1.5;" x1="174" x2="270" y1="784" y2="784"/><text fill="#000000" font-family="sans-serif" font-size="11" lengthAdjust="spacingAndGlyphs" textLength="26" x="179" y="799.4189">-int id</text><text fill="#000000" font-family="sans-serif" font-size="11" lengthAdjust="spacingAndGlyphs" textLength="67" x="179" y="813.2549">-float potency</text><text fill="#000000" font-family="sans-serif" font-size="11" lengthAdjust="spacingAndGlyphs" textLength="61" x="179" y="827.0908">-float weight</text><text fill="#000000" font-family="sans-serif" font-size="11" lengthAdjust="spacingAndGlyphs" textLength="86" x="179" y="840.9268">-float maxPayload</text><line style="stroke: #A80036; stroke-width: 1.5;" x1="174" x2="270" y1="847.3438" y2="847.3438"/><!--MD5=[79eb2d862cef9730b5f9dcab29e35f17]
class Battery--><rect fill="#FEFECE" filter="url(#f142une4c3v72d)" height="103.3438" id="Battery" style="stroke: #A80036; stroke-width: 1.5;" width="111" x="160.5" y="954"/><ellipse cx="194.4" cy="970" fill="#ADD1B2" rx="11" ry="11" style="stroke: #A80036; stroke-width: 1.0;"/><path d="M196.4,966.5 Q196.6031,966 196.8375,965.75 Q197.0719,965.5 197.3375,965.5 Q197.8063,965.5 198.1031,965.7813 Q198.4,966.0625 198.4,966.7188 L198.4,968.2813 Q198.4,968.9375 198.1188,969.2188 Q197.8375,969.5 197.4,969.5 Q197.0094,969.5 196.7594,969.3281 Q196.5094,969.1563 196.4,968.7031 Q196.3531,968.3906 196.1813,968.2188 Q195.8688,967.8906 195.3063,967.7031 Q194.7438,967.5 194.1813,967.5 Q193.4781,967.5 192.8844,967.7813 Q192.3063,968.0625 191.8531,968.6875 Q191.4,969.3125 191.4,970.1719 L191.4,971.0938 Q191.4,972.125 192.2438,972.8125 Q193.0875,973.5 194.5875,973.5 Q195.4781,973.5 196.1031,973.2969 Q196.4625,973.1875 196.8688,972.8281 Q197.1344,972.625 197.275,972.5625 Q197.4156,972.5 197.5875,972.5 Q197.9156,972.5 198.15,972.7656 Q198.4,973.0156 198.4,973.375 Q198.4,973.7188 198.0563,974.125 Q197.5563,974.7188 196.7594,975.0469 Q195.7125,975.5 194.4313,975.5 Q192.9313,975.5 191.7281,974.9063 Q190.7594,974.4375 190.0719,973.4219 Q189.4,972.4063 189.4,971.2031 L189.4,970.1094 Q189.4,968.8594 189.9938,967.7656 Q190.6031,966.6719 191.65,966.0938 Q192.7125,965.5 193.9,965.5 Q194.6188,965.5 195.2438,965.75 Q195.8688,966 196.4,966.5 Z "/><text fill="#000000" font-family="sans-serif" font-size="12" lengthAdjust="spacingAndGlyphs" textLength="37" x="212.6" y="974.9102">Battery</text><line style="stroke: #A80036; stroke-width: 1.5;" x1="161.5" x2="270.5" y1="986" y2="986"/><text fill="#000000" font-family="sans-serif" font-size="11" lengthAdjust="spacingAndGlyphs" textLength="26" x="166.5" y="1001.4189">-int id</text><text fill="#000000" font-family="sans-serif" font-size="11" lengthAdjust="spacingAndGlyphs" textLength="84" x="166.5" y="1015.2549">-float batteryPerc</text><text fill="#000000" font-family="sans-serif" font-size="11" lengthAdjust="spacingAndGlyphs" textLength="94" x="166.5" y="1029.0908">-int batteryCapacity</text><text fill="#000000" font-family="sans-serif" font-size="11" lengthAdjust="spacingAndGlyphs" textLength="99" x="166.5" y="1042.9268">-float batteryVoltage</text><line style="stroke: #A80036; stroke-width: 1.5;" x1="161.5" x2="270.5" y1="1049.3438" y2="1049.3438"/><!--MD5=[0f39e4cb6f03951afbf6d14bd2505654]
class Address--><rect fill="#FEFECE" filter="url(#f142une4c3v72d)" height="144.8516" id="Address" style="stroke: #A80036; stroke-width: 1.5;" width="106" x="453" y="933"/><ellipse cx="480.6" cy="949" fill="#ADD1B2" rx="11" ry="11" style="stroke: #A80036; stroke-width: 1.0;"/><path d="M482.6,945.5 Q482.8031,945 483.0375,944.75 Q483.2719,944.5 483.5375,944.5 Q484.0063,944.5 484.3031,944.7813 Q484.6,945.0625 484.6,945.7188 L484.6,947.2813 Q484.6,947.9375 484.3188,948.2188 Q484.0375,948.5 483.6,948.5 Q483.2094,948.5 482.9594,948.3281 Q482.7094,948.1563 482.6,947.7031 Q482.5531,947.3906 482.3813,947.2188 Q482.0688,946.8906 481.5063,946.7031 Q480.9438,946.5 480.3813,946.5 Q479.6781,946.5 479.0844,946.7813 Q478.5063,947.0625 478.0531,947.6875 Q477.6,948.3125 477.6,949.1719 L477.6,950.0938 Q477.6,951.125 478.4438,951.8125 Q479.2875,952.5 480.7875,952.5 Q481.6781,952.5 482.3031,952.2969 Q482.6625,952.1875 483.0688,951.8281 Q483.3344,951.625 483.475,951.5625 Q483.6156,951.5 483.7875,951.5 Q484.1156,951.5 484.35,951.7656 Q484.6,952.0156 484.6,952.375 Q484.6,952.7188 484.2563,953.125 Q483.7563,953.7188 482.9594,954.0469 Q481.9125,954.5 480.6313,954.5 Q479.1313,954.5 477.9281,953.9063 Q476.9594,953.4375 476.2719,952.4219 Q475.6,951.4063 475.6,950.2031 L475.6,949.1094 Q475.6,947.8594 476.1938,946.7656 Q476.8031,945.6719 477.85,945.0938 Q478.9125,944.5 480.1,944.5 Q480.8188,944.5 481.4438,944.75 Q482.0688,945 482.6,945.5 Z "/><text fill="#000000" font-family="sans-serif" font-size="12" lengthAdjust="spacingAndGlyphs" textLength="46" x="497.4" y="953.9102">Address</text><line style="stroke: #A80036; stroke-width: 1.5;" x1="454" x2="558" y1="965" y2="965"/><text fill="#000000" font-family="sans-serif" font-size="11" lengthAdjust="spacingAndGlyphs" textLength="82" x="459" y="980.4189">-double longitude</text><text fill="#000000" font-family="sans-serif" font-size="11" lengthAdjust="spacingAndGlyphs" textLength="62" x="459" y="994.2549">-float latitude</text><text fill="#000000" font-family="sans-serif" font-size="11" lengthAdjust="spacingAndGlyphs" textLength="94" x="459" y="1008.0908">-String doorNumber</text><text fill="#000000" font-family="sans-serif" font-size="11" lengthAdjust="spacingAndGlyphs" textLength="90" x="459" y="1021.9268">-String streetName</text><text fill="#000000" font-family="sans-serif" font-size="11" lengthAdjust="spacingAndGlyphs" textLength="89" x="459" y="1035.7627">-String postalCode</text><text fill="#000000" font-family="sans-serif" font-size="11" lengthAdjust="spacingAndGlyphs" textLength="68" x="459" y="1049.5986">-String locality</text><text fill="#000000" font-family="sans-serif" font-size="11" lengthAdjust="spacingAndGlyphs" textLength="72" x="459" y="1063.4346">-String country</text><line style="stroke: #A80036; stroke-width: 1.5;" x1="454" x2="558" y1="1069.8516" y2="1069.8516"/><!--MD5=[7f2a9fafcebe4f099f71398fd3e2ed00]
class Pharmacy--><rect fill="#FEFECE" filter="url(#f142une4c3v72d)" height="89.5078" id="Pharmacy" style="stroke: #A80036; stroke-width: 1.5;" width="158" x="311" y="758.5"/><ellipse cx="358.25" cy="774.5" fill="#ADD1B2" rx="11" ry="11" style="stroke: #A80036; stroke-width: 1.0;"/><path d="M360.25,771 Q360.4531,770.5 360.6875,770.25 Q360.9219,770 361.1875,770 Q361.6563,770 361.9531,770.2813 Q362.25,770.5625 362.25,771.2188 L362.25,772.7813 Q362.25,773.4375 361.9688,773.7188 Q361.6875,774 361.25,774 Q360.8594,774 360.6094,773.8281 Q360.3594,773.6563 360.25,773.2031 Q360.2031,772.8906 360.0313,772.7188 Q359.7188,772.3906 359.1563,772.2031 Q358.5938,772 358.0313,772 Q357.3281,772 356.7344,772.2813 Q356.1563,772.5625 355.7031,773.1875 Q355.25,773.8125 355.25,774.6719 L355.25,775.5938 Q355.25,776.625 356.0938,777.3125 Q356.9375,778 358.4375,778 Q359.3281,778 359.9531,777.7969 Q360.3125,777.6875 360.7188,777.3281 Q360.9844,777.125 361.125,777.0625 Q361.2656,777 361.4375,777 Q361.7656,777 362,777.2656 Q362.25,777.5156 362.25,777.875 Q362.25,778.2188 361.9063,778.625 Q361.4063,779.2188 360.6094,779.5469 Q359.5625,780 358.2813,780 Q356.7813,780 355.5781,779.4063 Q354.6094,778.9375 353.9219,777.9219 Q353.25,776.9063 353.25,775.7031 L353.25,774.6094 Q353.25,773.3594 353.8438,772.2656 Q354.4531,771.1719 355.5,770.5938 Q356.5625,770 357.75,770 Q358.4688,770 359.0938,770.25 Q359.7188,770.5 360.25,771 Z "/><text fill="#000000" font-family="sans-serif" font-size="12" lengthAdjust="spacingAndGlyphs" textLength="55" x="378.75" y="779.4102">Pharmacy</text><line style="stroke: #A80036; stroke-width: 1.5;" x1="312" x2="468" y1="790.5" y2="790.5"/><text fill="#000000" font-family="sans-serif" font-size="11" lengthAdjust="spacingAndGlyphs" textLength="26" x="317" y="805.9189">-int id</text><text fill="#000000" font-family="sans-serif" font-size="11" lengthAdjust="spacingAndGlyphs" textLength="61" x="317" y="819.7549">-String name</text><line style="stroke: #A80036; stroke-width: 1.5;" x1="312" x2="468" y1="826.1719" y2="826.1719"/><text fill="#000000" font-family="sans-serif" font-size="11" lengthAdjust="spacingAndGlyphs" textLength="146" x="317" y="841.5908">+getScootersList(pharmacyId)</text><!--MD5=[28160fdc0be430cd6f04db15a7547552]
class PharmacyService--><rect fill="#FEFECE" filter="url(#f142une4c3v72d)" height="75.6719" id="PharmacyService" style="stroke: #A80036; stroke-width: 1.5;" width="127" x="133.5" y="419"/><ellipse cx="148.5" cy="435" fill="#ADD1B2" rx="11" ry="11" style="stroke: #A80036; stroke-width: 1.0;"/><path d="M150.5,431.5 Q150.7031,431 150.9375,430.75 Q151.1719,430.5 151.4375,430.5 Q151.9063,430.5 152.2031,430.7813 Q152.5,431.0625 152.5,431.7188 L152.5,433.2813 Q152.5,433.9375 152.2188,434.2188 Q151.9375,434.5 151.5,434.5 Q151.1094,434.5 150.8594,434.3281 Q150.6094,434.1563 150.5,433.7031 Q150.4531,433.3906 150.2813,433.2188 Q149.9688,432.8906 149.4063,432.7031 Q148.8438,432.5 148.2813,432.5 Q147.5781,432.5 146.9844,432.7813 Q146.4063,433.0625 145.9531,433.6875 Q145.5,434.3125 145.5,435.1719 L145.5,436.0938 Q145.5,437.125 146.3438,437.8125 Q147.1875,438.5 148.6875,438.5 Q149.5781,438.5 150.2031,438.2969 Q150.5625,438.1875 150.9688,437.8281 Q151.2344,437.625 151.375,437.5625 Q151.5156,437.5 151.6875,437.5 Q152.0156,437.5 152.25,437.7656 Q152.5,438.0156 152.5,438.375 Q152.5,438.7188 152.1563,439.125 Q151.6563,439.7188 150.8594,440.0469 Q149.8125,440.5 148.5313,440.5 Q147.0313,440.5 145.8281,439.9063 Q144.8594,439.4375 144.1719,438.4219 Q143.5,437.4063 143.5,436.2031 L143.5,435.1094 Q143.5,433.8594 144.0938,432.7656 Q144.7031,431.6719 145.75,431.0938 Q146.8125,430.5 148,430.5 Q148.7188,430.5 149.3438,430.75 Q149.9688,431 150.5,431.5 Z "/><text fill="#000000" font-family="sans-serif" font-size="12" lengthAdjust="spacingAndGlyphs" textLength="95" x="162.5" y="439.9102">PharmacyService</text><line style="stroke: #A80036; stroke-width: 1.5;" x1="134.5" x2="259.5" y1="451" y2="451"/><line style="stroke: #A80036; stroke-width: 1.5;" x1="134.5" x2="259.5" y1="459" y2="459"/><text fill="#000000" font-family="sans-serif" font-size="11" lengthAdjust="spacingAndGlyphs" textLength="99" x="139.5" y="474.4189">+PharmacyService()</text><text fill="#000000" font-family="sans-serif" font-size="11" lengthAdjust="spacingAndGlyphs" textLength="85" x="139.5" y="488.2549">+getPharmacies()</text><!--MD5=[aa4a745fe56463fab637f55d2a7c778f]
class ScooterService--><rect fill="#FEFECE" filter="url(#f142une4c3v72d)" height="89.5078" id="ScooterService" style="stroke: #A80036; stroke-width: 1.5;" width="145" x="295.5" y="412"/><ellipse cx="324.45" cy="428" fill="#ADD1B2" rx="11" ry="11" style="stroke: #A80036; stroke-width: 1.0;"/><path d="M326.45,424.5 Q326.6531,424 326.8875,423.75 Q327.1219,423.5 327.3875,423.5 Q327.8563,423.5 328.1531,423.7813 Q328.45,424.0625 328.45,424.7188 L328.45,426.2813 Q328.45,426.9375 328.1688,427.2188 Q327.8875,427.5 327.45,427.5 Q327.0594,427.5 326.8094,427.3281 Q326.5594,427.1563 326.45,426.7031 Q326.4031,426.3906 326.2313,426.2188 Q325.9188,425.8906 325.3563,425.7031 Q324.7938,425.5 324.2313,425.5 Q323.5281,425.5 322.9344,425.7813 Q322.3563,426.0625 321.9031,426.6875 Q321.45,427.3125 321.45,428.1719 L321.45,429.0938 Q321.45,430.125 322.2938,430.8125 Q323.1375,431.5 324.6375,431.5 Q325.5281,431.5 326.1531,431.2969 Q326.5125,431.1875 326.9188,430.8281 Q327.1844,430.625 327.325,430.5625 Q327.4656,430.5 327.6375,430.5 Q327.9656,430.5 328.2,430.7656 Q328.45,431.0156 328.45,431.375 Q328.45,431.7188 328.1063,432.125 Q327.6063,432.7188 326.8094,433.0469 Q325.7625,433.5 324.4813,433.5 Q322.9813,433.5 321.7781,432.9063 Q320.8094,432.4375 320.1219,431.4219 Q319.45,430.4063 319.45,429.2031 L319.45,428.1094 Q319.45,426.8594 320.0438,425.7656 Q320.6531,424.6719 321.7,424.0938 Q322.7625,423.5 323.95,423.5 Q324.6688,423.5 325.2938,423.75 Q325.9188,424 326.45,424.5 Z "/><text fill="#000000" font-family="sans-serif" font-size="12" lengthAdjust="spacingAndGlyphs" textLength="82" x="341.55" y="432.9102">ScooterService</text><line style="stroke: #A80036; stroke-width: 1.5;" x1="296.5" x2="439.5" y1="444" y2="444"/><line style="stroke: #A80036; stroke-width: 1.5;" x1="296.5" x2="439.5" y1="452" y2="452"/><text fill="#000000" font-family="sans-serif" font-size="11" lengthAdjust="spacingAndGlyphs" textLength="89" x="301.5" y="467.4189">+ScooterService()</text><text fill="#000000" font-family="sans-serif" font-size="11" lengthAdjust="spacingAndGlyphs" textLength="90" x="301.5" y="481.2549">+getScootersList()</text><text fill="#000000" font-family="sans-serif" font-size="11" lengthAdjust="spacingAndGlyphs" textLength="133" x="301.5" y="495.0908">+removeScooter(scooterId)</text><!--MD5=[4b2d61224b33971326a22fe5d809d926]
class DataHandler--><rect fill="#FEFECE" filter="url(#f142une4c3v72d)" height="75.6719" id="DataHandler" style="stroke: #A80036; stroke-width: 1.5;" width="104" x="891" y="419"/><ellipse cx="906.9" cy="435" fill="#ADD1B2" rx="11" ry="11" style="stroke: #A80036; stroke-width: 1.0;"/><path d="M908.9,431.5 Q909.1031,431 909.3375,430.75 Q909.5719,430.5 909.8375,430.5 Q910.3063,430.5 910.6031,430.7813 Q910.9,431.0625 910.9,431.7188 L910.9,433.2813 Q910.9,433.9375 910.6188,434.2188 Q910.3375,434.5 909.9,434.5 Q909.5094,434.5 909.2594,434.3281 Q909.0094,434.1563 908.9,433.7031 Q908.8531,433.3906 908.6813,433.2188 Q908.3688,432.8906 907.8063,432.7031 Q907.2438,432.5 906.6813,432.5 Q905.9781,432.5 905.3844,432.7813 Q904.8063,433.0625 904.3531,433.6875 Q903.9,434.3125 903.9,435.1719 L903.9,436.0938 Q903.9,437.125 904.7438,437.8125 Q905.5875,438.5 907.0875,438.5 Q907.9781,438.5 908.6031,438.2969 Q908.9625,438.1875 909.3688,437.8281 Q909.6344,437.625 909.775,437.5625 Q909.9156,437.5 910.0875,437.5 Q910.4156,437.5 910.65,437.7656 Q910.9,438.0156 910.9,438.375 Q910.9,438.7188 910.5563,439.125 Q910.0563,439.7188 909.2594,440.0469 Q908.2125,440.5 906.9313,440.5 Q905.4313,440.5 904.2281,439.9063 Q903.2594,439.4375 902.5719,438.4219 Q901.9,437.4063 901.9,436.2031 L901.9,435.1094 Q901.9,433.8594 902.4938,432.7656 Q903.1031,431.6719 904.15,431.0938 Q905.2125,430.5 906.4,430.5 Q907.1188,430.5 907.7438,430.75 Q908.3688,431 908.9,431.5 Z "/><text fill="#000000" font-family="sans-serif" font-size="12" lengthAdjust="spacingAndGlyphs" textLength="70" x="921.1" y="439.9102">DataHandler</text><line style="stroke: #A80036; stroke-width: 1.5;" x1="892" x2="994" y1="451" y2="451"/><line style="stroke: #A80036; stroke-width: 1.5;" x1="892" x2="994" y1="459" y2="459"/><text fill="#000000" font-family="sans-serif" font-size="11" lengthAdjust="spacingAndGlyphs" textLength="92" x="897" y="474.4189">+openConnection()</text><text fill="#000000" font-family="sans-serif" font-size="11" lengthAdjust="spacingAndGlyphs" textLength="52" x="897" y="488.2549">+closeAll()</text><!--MD5=[b860ecc58d0ca70e482845cb1f7b4615]
class PharmacyDB--><rect fill="#FEFECE" filter="url(#f142une4c3v72d)" height="75.6719" id="PharmacyDB" style="stroke: #A80036; stroke-width: 1.5;" width="104" x="980" y="589"/><ellipse cx="995" cy="605" fill="#ADD1B2" rx="11" ry="11" style="stroke: #A80036; stroke-width: 1.0;"/><path d="M997,601.5 Q997.2031,601 997.4375,600.75 Q997.6719,600.5 997.9375,600.5 Q998.4063,600.5 998.7031,600.7813 Q999,601.0625 999,601.7188 L999,603.2813 Q999,603.9375 998.7188,604.2188 Q998.4375,604.5 998,604.5 Q997.6094,604.5 997.3594,604.3281 Q997.1094,604.1563 997,603.7031 Q996.9531,603.3906 996.7813,603.2188 Q996.4688,602.8906 995.9063,602.7031 Q995.3438,602.5 994.7813,602.5 Q994.0781,602.5 993.4844,602.7813 Q992.9063,603.0625 992.4531,603.6875 Q992,604.3125 992,605.1719 L992,606.0938 Q992,607.125 992.8438,607.8125 Q993.6875,608.5 995.1875,608.5 Q996.0781,608.5 996.7031,608.2969 Q997.0625,608.1875 997.4688,607.8281 Q997.7344,607.625 997.875,607.5625 Q998.0156,607.5 998.1875,607.5 Q998.5156,607.5 998.75,607.7656 Q999,608.0156 999,608.375 Q999,608.7188 998.6563,609.125 Q998.1563,609.7188 997.3594,610.0469 Q996.3125,610.5 995.0313,610.5 Q993.5313,610.5 992.3281,609.9063 Q991.3594,609.4375 990.6719,608.4219 Q990,607.4063 990,606.2031 L990,605.1094 Q990,603.8594 990.5938,602.7656 Q991.2031,601.6719 992.25,601.0938 Q993.3125,600.5 994.5,600.5 Q995.2188,600.5 995.8438,600.75 Q996.4688,601 997,601.5 Z "/><text fill="#000000" font-family="sans-serif" font-size="12" lengthAdjust="spacingAndGlyphs" textLength="72" x="1009" y="609.9102">PharmacyDB</text><line style="stroke: #A80036; stroke-width: 1.5;" x1="981" x2="1083" y1="621" y2="621"/><line style="stroke: #A80036; stroke-width: 1.5;" x1="981" x2="1083" y1="629" y2="629"/><text fill="#000000" font-family="sans-serif" font-size="11" lengthAdjust="spacingAndGlyphs" textLength="76" x="986" y="644.4189">+PharmacyDB()</text><text fill="#000000" font-family="sans-serif" font-size="11" lengthAdjust="spacingAndGlyphs" textLength="85" x="986" y="658.2549">+getPharmacies()</text><!--MD5=[48d7298b3bd1f8b3e8f77915e881d788]
class ScooterDB--><rect fill="#FEFECE" filter="url(#f142une4c3v72d)" height="89.5078" id="ScooterDB" style="stroke: #A80036; stroke-width: 1.5;" width="183" x="761.5" y="582"/><ellipse cx="819.25" cy="598" fill="#ADD1B2" rx="11" ry="11" style="stroke: #A80036; stroke-width: 1.0;"/><path d="M821.25,594.5 Q821.4531,594 821.6875,593.75 Q821.9219,593.5 822.1875,593.5 Q822.6563,593.5 822.9531,593.7813 Q823.25,594.0625 823.25,594.7188 L823.25,596.2813 Q823.25,596.9375 822.9688,597.2188 Q822.6875,597.5 822.25,597.5 Q821.8594,597.5 821.6094,597.3281 Q821.3594,597.1563 821.25,596.7031 Q821.2031,596.3906 821.0313,596.2188 Q820.7188,595.8906 820.1563,595.7031 Q819.5938,595.5 819.0313,595.5 Q818.3281,595.5 817.7344,595.7813 Q817.1563,596.0625 816.7031,596.6875 Q816.25,597.3125 816.25,598.1719 L816.25,599.0938 Q816.25,600.125 817.0938,600.8125 Q817.9375,601.5 819.4375,601.5 Q820.3281,601.5 820.9531,601.2969 Q821.3125,601.1875 821.7188,600.8281 Q821.9844,600.625 822.125,600.5625 Q822.2656,600.5 822.4375,600.5 Q822.7656,600.5 823,600.7656 Q823.25,601.0156 823.25,601.375 Q823.25,601.7188 822.9063,602.125 Q822.4063,602.7188 821.6094,603.0469 Q820.5625,603.5 819.2813,603.5 Q817.7813,603.5 816.5781,602.9063 Q815.6094,602.4375 814.9219,601.4219 Q814.25,600.4063 814.25,599.2031 L814.25,598.1094 Q814.25,596.8594 814.8438,595.7656 Q815.4531,594.6719 816.5,594.0938 Q817.5625,593.5 818.75,593.5 Q819.4688,593.5 820.0938,593.75 Q820.7188,594 821.25,594.5 Z "/><text fill="#000000" font-family="sans-serif" font-size="12" lengthAdjust="spacingAndGlyphs" textLength="59" x="839.75" y="602.9102">ScooterDB</text><line style="stroke: #A80036; stroke-width: 1.5;" x1="762.5" x2="943.5" y1="614" y2="614"/><line style="stroke: #A80036; stroke-width: 1.5;" x1="762.5" x2="943.5" y1="622" y2="622"/><text fill="#000000" font-family="sans-serif" font-size="11" lengthAdjust="spacingAndGlyphs" textLength="66" x="767.5" y="637.4189">+ScooterDB()</text><text fill="#000000" font-family="sans-serif" font-size="11" lengthAdjust="spacingAndGlyphs" textLength="146" x="767.5" y="651.2549">+getScootersList(pharmacyId)</text><text fill="#000000" font-family="sans-serif" font-size="11" lengthAdjust="spacingAndGlyphs" textLength="171" x="767.5" y="665.0908">+removeScooterFromDB(scooterId)</text><!--MD5=[f40d64c3825bdc96a4efd5b7e3ff1420]
reverse link DataHandler to PharmacyDB--><path d="M972.116,512.96 C985.285,537.818 1000.503,566.546 1012.3,588.82 " fill="none" id="DataHandler&lt;-PharmacyDB" style="stroke: #A80036; stroke-width: 1.0;"/><polygon fill="none" points="965.929,516.235,962.752,495.285,978.3,509.681,965.929,516.235" style="stroke: #A80036; stroke-width: 1.0;"/><!--MD5=[a2c65173c20bdf66914a8ed43c34e217]
reverse link DataHandler to ScooterDB--><path d="M913.454,513.152 C901.49,535.485 887.867,560.915 876.586,581.973 " fill="none" id="DataHandler&lt;-ScooterDB" style="stroke: #A80036; stroke-width: 1.0;"/><polygon fill="none" points="907.411,509.609,923.026,495.285,919.752,516.22,907.411,509.609" style="stroke: #A80036; stroke-width: 1.0;"/><!--MD5=[d51a3d7ceb60387716e9812879733fde]
link RemoveScooterUI to RemoveScooterController--><path d="M249,108.09 C249,129.11 249,160.85 249,187.58 " fill="none" id="RemoveScooterUI-&gt;RemoveScooterController" style="stroke: #A80036; stroke-width: 1.0; stroke-dasharray: 7.0,7.0;"/><polygon fill="#A80036" points="249,192.85,253,183.85,249,187.85,245,183.85,249,192.85" style="stroke: #A80036; stroke-width: 1.0;"/><!--MD5=[ff5a4a60aaf10293bc99b1ac287cfc38]
link RemoveScooterController to PharmacyService--><path d="M238.414,283.175 C229.263,321.363 216.125,376.19 207.114,413.792 " fill="none" id="RemoveScooterController-&gt;PharmacyService" style="stroke: #A80036; stroke-width: 1.0; stroke-dasharray: 7.0,7.0;"/><polygon fill="#A80036" points="205.926,418.749,211.9143,410.9298,207.0919,413.8868,204.1349,409.0644,205.926,418.749" style="stroke: #A80036; stroke-width: 1.0;"/><!--MD5=[2ee6cd406d0851546e49c24833055b96]
link RemoveScooterController to ScooterService--><path d="M273.225,283.175 C293.011,319.256 320.944,370.191 341.358,407.417 " fill="none" id="RemoveScooterController-&gt;ScooterService" style="stroke: #A80036; stroke-width: 1.0; stroke-dasharray: 7.0,7.0;"/><polygon fill="#A80036" points="343.809,411.887,342.9888,402.0724,341.4048,407.5029,335.9743,405.919,343.809,411.887" style="stroke: #A80036; stroke-width: 1.0;"/><!--MD5=[04ba2cb7f5803b19c0d0e740f2a895e0]
link Database to PharmacyDB--><path d="M691.387,480.593 C704.44,495.894 723.674,515.221 745,526 C763.52,535.361 770.762,529.412 791,534 C867.984,551.452 889.84,549.999 962,582 C966.429,583.964 970.906,586.175 975.343,588.533 " fill="none" id="Database-&gt;PharmacyDB" style="stroke: #A80036; stroke-width: 1.0;"/><polygon fill="#A80036" points="979.762,590.937,973.766,583.1237,975.3694,588.5485,969.9445,590.1519,979.762,590.937" style="stroke: #A80036; stroke-width: 1.0;"/><text fill="#000000" font-family="sans-serif" font-size="13" lengthAdjust="spacingAndGlyphs" textLength="53" x="876" y="548.4951">manages</text><text fill="#000000" font-family="sans-serif" font-size="13" lengthAdjust="spacingAndGlyphs" textLength="7" x="687.5984" y="501.4798">1</text><text fill="#000000" font-family="sans-serif" font-size="13" lengthAdjust="spacingAndGlyphs" textLength="7" x="964.9238" y="582.2835">1</text><!--MD5=[70f68ce34a156c56edce71dba5c758e9]
link Database to ScooterDB--><path d="M684.127,480.555 C694.121,500.989 710.941,531.024 732,552 C741.789,561.75 753.1,570.781 764.795,578.94 " fill="none" id="Database-&gt;ScooterDB" style="stroke: #A80036; stroke-width: 1.0;"/><polygon fill="#A80036" points="769.119,581.906,763.9606,573.5161,764.996,579.0774,759.4348,580.1128,769.119,581.906" style="stroke: #A80036; stroke-width: 1.0;"/><text fill="#000000" font-family="sans-serif" font-size="13" lengthAdjust="spacingAndGlyphs" textLength="53" x="733" y="548.4951">manages</text><text fill="#000000" font-family="sans-serif" font-size="13" lengthAdjust="spacingAndGlyphs" textLength="7" x="678.6595" y="501.433">1</text><text fill="#000000" font-family="sans-serif" font-size="13" lengthAdjust="spacingAndGlyphs" textLength="7" x="748.1927" y="571.0065">1</text><!--MD5=[ee7ed70a83e67b7f86b44988d609d45d]
link ScooterService to PharmacyDB--><path d="M386.816,502.033 C396.906,523.416 409.235,545.817 419,552 C521.105,616.648 846.843,545.343 962,582 C966.42,583.407 970.839,585.16 975.187,587.148 " fill="none" id="ScooterService-&gt;PharmacyDB" style="stroke: #A80036; stroke-width: 1.0;"/><polygon fill="#A80036" points="979.875,589.394,973.4857,581.8989,975.3655,587.2342,970.0301,589.114,979.875,589.394" style="stroke: #A80036; stroke-width: 1.0;"/><text fill="#000000" font-family="sans-serif" font-size="13" lengthAdjust="spacingAndGlyphs" textLength="28" x="420" y="548.4951">uses</text><text fill="#000000" font-family="sans-serif" font-size="13" lengthAdjust="spacingAndGlyphs" textLength="7" x="381.9698" y="523.0452">1</text><text fill="#000000" font-family="sans-serif" font-size="13" lengthAdjust="spacingAndGlyphs" textLength="5" x="970.4152" y="578.2603">*</text><!--MD5=[799b1f05f2692ceb79e345e4105e6b42]
link PharmacyService to ScooterDB--><path d="M232.749,495.246 C245.899,506.867 261.611,518.572 278,526 C299.298,535.652 307.718,526.908 330,534 C347.046,539.426 348.771,547.186 366,552 C524.043,596.165 573.777,546.549 734,582 C741.339,583.624 748.836,585.597 756.319,587.796 " fill="none" id="PharmacyService-&gt;ScooterDB" style="stroke: #A80036; stroke-width: 1.0;"/><polygon fill="#A80036" points="761.494,589.354,754.0289,582.9296,756.7062,587.9128,751.723,590.5901,761.494,589.354" style="stroke: #A80036; stroke-width: 1.0;"/><text fill="#000000" font-family="sans-serif" font-size="13" lengthAdjust="spacingAndGlyphs" textLength="28" x="367" y="548.4951">uses</text><text fill="#000000" font-family="sans-serif" font-size="13" lengthAdjust="spacingAndGlyphs" textLength="7" x="230.8887" y="516.1657">1</text><text fill="#000000" font-family="sans-serif" font-size="13" lengthAdjust="spacingAndGlyphs" textLength="5" x="748.4154" y="582.9627">*</text><!--MD5=[2ed2b43e7f6d114538396b0b10b28567]
link PharmacyService to Pharmacy--><path d="M152.868,495.023 C129.642,517.476 103.4566,548.258 91,582 C73.453,629.531 60.4616,655.571 91,696 C145.863,768.632 203.081,719.225 288,752 C293.949,754.296 300.02,756.816 306.086,759.467 " fill="none" id="PharmacyService-&gt;Pharmacy" style="stroke: #A80036; stroke-width: 1.0;"/><polygon fill="#A80036" points="310.723,761.518,304.1105,754.219,306.1504,759.4953,300.8742,761.5351,310.723,761.518" style="stroke: #A80036; stroke-width: 1.0;"/><text fill="#000000" font-family="sans-serif" font-size="13" lengthAdjust="spacingAndGlyphs" textLength="111" x="92" y="632.4951">manage services of</text><text fill="#000000" font-family="sans-serif" font-size="13" lengthAdjust="spacingAndGlyphs" textLength="7" x="137.979" y="516.197">1</text><text fill="#000000" font-family="sans-serif" font-size="13" lengthAdjust="spacingAndGlyphs" textLength="5" x="297.9286" y="754.2894">*</text><!--MD5=[a4fc43f4c54bc2b04150642bdfef7d93]
link ScooterService to Scooter--><path d="M318.988,502.242 C306.4,511.495 292.34,520.193 278,526 C264.511,531.462 222.642,523.099 213,534 C207.7,539.992 208.566,545.341 213,552 C222.2,565.819 234.528,577.061 248.416,586.208 " fill="none" id="ScooterService-&gt;Scooter" style="stroke: #A80036; stroke-width: 1.0;"/><polygon fill="#A80036" points="252.775,588.979,247.3272,580.774,248.5559,586.2958,243.0341,587.5245,252.775,588.979" style="stroke: #A80036; stroke-width: 1.0;"/><text fill="#000000" font-family="sans-serif" font-size="13" lengthAdjust="spacingAndGlyphs" textLength="111" x="214" y="548.4951">manage services of</text><text fill="#000000" font-family="sans-serif" font-size="13" lengthAdjust="spacingAndGlyphs" textLength="7" x="304.9317" y="522.9482">1</text><text fill="#000000" font-family="sans-serif" font-size="13" lengthAdjust="spacingAndGlyphs" textLength="5" x="222.0132" y="578.0517">*</text><!--MD5=[51d7b9a785c9fb041ca400474ed1d998]
link Database to Pharmacy--><path d="M669.826,480.597 C660.401,526.176 633.649,630.363 576,696 C547.147,728.851 505.597,753.981 469.082,771.558 " fill="none" id="Database-Pharmacy" style="stroke: #A80036; stroke-width: 1.0;"/><text fill="#000000" font-family="sans-serif" font-size="13" lengthAdjust="spacingAndGlyphs" textLength="82" x="642" y="632.4951">has registered</text><polygon fill="#000000" points="678.5,641.3516,681.5,647.3516,684.5,641.3516,678.5,641.3516" style="stroke: #000000; stroke-width: 1.0;"/><text fill="#000000" font-family="sans-serif" font-size="13" lengthAdjust="spacingAndGlyphs" textLength="7" x="661.0514" y="501.4847">1</text><text fill="#000000" font-family="sans-serif" font-size="13" lengthAdjust="spacingAndGlyphs" textLength="5" x="477.1127" y="765.1629">*</text><!--MD5=[f4a94ba2ad2673d4959409a96e63c979]
link Database to Scooter--><path d="M633.224,473.165 C598.303,486.911 547.268,508.83 506,534 C479.886,549.927 452.985,570.926 431.671,588.841 " fill="none" id="Database-Scooter" style="stroke: #A80036; stroke-width: 1.0;"/><polygon fill="#000000" points="514,541.6758,508,544.6758,514,547.6758,514,541.6758" style="stroke: #000000; stroke-width: 1.0;"/><text fill="#000000" font-family="sans-serif" font-size="13" lengthAdjust="spacingAndGlyphs" textLength="82" x="520" y="548.4951">has registered</text><text fill="#000000" font-family="sans-serif" font-size="13" lengthAdjust="spacingAndGlyphs" textLength="7" x="618.6141" y="472.1273">1</text><text fill="#000000" font-family="sans-serif" font-size="13" lengthAdjust="spacingAndGlyphs" textLength="5" x="433.6483" y="578.1746">*</text><!--MD5=[074a56c4439d52c76e1cc7a8f9d070a4]
link Vehicle to Battery--><path d="M220.478,855.227 C219.572,885.432 218.426,923.632 217.52,953.827 " fill="none" id="Vehicle-Battery" style="stroke: #A80036; stroke-width: 1.0;"/><text fill="#000000" font-family="sans-serif" font-size="13" lengthAdjust="spacingAndGlyphs" textLength="21" x="221" y="899.4951">has</text><polygon fill="#000000" points="227,908.3516,230,914.3516,233,908.3516,227,908.3516" style="stroke: #000000; stroke-width: 1.0;"/><text fill="#000000" font-family="sans-serif" font-size="13" lengthAdjust="spacingAndGlyphs" textLength="7" x="212.8032" y="876.7485">1</text><text fill="#000000" font-family="sans-serif" font-size="13" lengthAdjust="spacingAndGlyphs" textLength="7" x="210.2539" y="943.3041">1</text><!--MD5=[52f80c2c106e4280525a8160ec8cd0fa]
link Scooter to Vehicle--><path d="M344.455,665.308 C330.702,677.221 315.851,690.76 303,704 C288.582,718.854 273.891,735.998 261.049,751.776 " fill="none" id="Scooter-Vehicle" style="stroke: #A80036; stroke-width: 1.0;"/><text fill="#000000" font-family="sans-serif" font-size="13" lengthAdjust="spacingAndGlyphs" textLength="64" x="304" y="718.4951">is a type of</text><polygon fill="#000000" points="331.5,727.3516,334.5,733.3516,337.5,727.3516,331.5,727.3516" style="stroke: #000000; stroke-width: 1.0;"/><text fill="#000000" font-family="sans-serif" font-size="13" lengthAdjust="spacingAndGlyphs" textLength="5" x="331.7978" y="686.2376">*</text><text fill="#000000" font-family="sans-serif" font-size="13" lengthAdjust="spacingAndGlyphs" textLength="7" x="258.8259" y="741.2462">1</text><!--MD5=[6f1b2737b94c689eac8b0af6a5ef1443]
link Scooter to Pharmacy--><path d="M390,665.007 C390,692.319 390,729.596 390,758.445 " fill="none" id="Scooter-Pharmacy" style="stroke: #A80036; stroke-width: 1.0;"/><text fill="#000000" font-family="sans-serif" font-size="13" lengthAdjust="spacingAndGlyphs" textLength="60" x="391" y="718.4951">belongs to</text><polygon fill="#000000" points="416.5,727.3516,419.5,733.3516,422.5,727.3516,416.5,727.3516" style="stroke: #000000; stroke-width: 1.0;"/><text fill="#000000" font-family="sans-serif" font-size="13" lengthAdjust="spacingAndGlyphs" textLength="5" x="384.5859" y="686.1783">*</text><text fill="#000000" font-family="sans-serif" font-size="13" lengthAdjust="spacingAndGlyphs" textLength="7" x="382.4422" y="747.5517">1</text><!--MD5=[89baec1bfb4a213750f7c61516e0a0f1]
link Pharmacy to Address--><path d="M415.744,848.886 C430.028,873.514 448.139,904.74 464.382,932.746 " fill="none" id="Pharmacy-Address" style="stroke: #A80036; stroke-width: 1.0;"/><text fill="#000000" font-family="sans-serif" font-size="13" lengthAdjust="spacingAndGlyphs" textLength="21" x="446" y="899.4951">has</text><polygon fill="#000000" points="452,908.3516,455,914.3516,458,908.3516,452,908.3516" style="stroke: #000000; stroke-width: 1.0;"/><text fill="#000000" font-family="sans-serif" font-size="13" lengthAdjust="spacingAndGlyphs" textLength="7" x="411.733" y="869.6116">1</text><text fill="#000000" font-family="sans-serif" font-size="13" lengthAdjust="spacingAndGlyphs" textLength="7" x="452.7292" y="921.9391">1</text><!--MD5=[e7daa03d92f0a94af078cf78578db78d]
link Pharmacy to ScooterPark--><path d="M383.786,848.886 C378.437,887.093 370.865,941.182 366.201,974.49 " fill="none" id="Pharmacy-ScooterPark" style="stroke: #A80036; stroke-width: 1.0;"/><text fill="#000000" font-family="sans-serif" font-size="13" lengthAdjust="spacingAndGlyphs" textLength="21" x="380" y="899.4951">has</text><polygon fill="#000000" points="386,908.3516,389,914.3516,392,908.3516,386,908.3516" style="stroke: #000000; stroke-width: 1.0;"/><text fill="#000000" font-family="sans-serif" font-size="13" lengthAdjust="spacingAndGlyphs" textLength="7" x="375.4807" y="869.6116">1</text><text fill="#000000" font-family="sans-serif" font-size="13" lengthAdjust="spacingAndGlyphs" textLength="7" x="359.3543" y="963.5081">1</text><!--MD5=[6c03f80bb0eb412de4ede466470bd7f4]
link ScooterPark to ScooterChargingSlot--><path d="M347.665,1036.88 C332.324,1069.393 307.976,1120.993 291.511,1155.888 " fill="none" id="ScooterPark-ScooterChargingSlot" style="stroke: #A80036; stroke-width: 1.0;"/><text fill="#000000" font-family="sans-serif" font-size="13" lengthAdjust="spacingAndGlyphs" textLength="21" x="314" y="1122.4951">has</text><polygon fill="#000000" points="320,1131.3516,323,1137.3516,326,1131.3516,320,1131.3516" style="stroke: #000000; stroke-width: 1.0;"/><text fill="#000000" font-family="sans-serif" font-size="13" lengthAdjust="spacingAndGlyphs" textLength="7" x="337.2652" y="1057.9311">1</text><text fill="#000000" font-family="sans-serif" font-size="13" lengthAdjust="spacingAndGlyphs" textLength="7" x="287.0067" y="1145.23">1</text><!--MD5=[8b5c72ddee54db66c8e770f45750c925]
link ScooterPark to ScooterParkingSlot--><path d="M376.497,1036.88 C393.097,1071.664 420.122,1128.294 436.656,1162.943 " fill="none" id="ScooterPark-ScooterParkingSlot" style="stroke: #A80036; stroke-width: 1.0;"/><text fill="#000000" font-family="sans-serif" font-size="13" lengthAdjust="spacingAndGlyphs" textLength="21" x="419" y="1122.4951">has</text><polygon fill="#000000" points="425,1131.3516,428,1137.3516,431,1131.3516,425,1131.3516" style="stroke: #000000; stroke-width: 1.0;"/><text fill="#000000" font-family="sans-serif" font-size="13" lengthAdjust="spacingAndGlyphs" textLength="7" x="371.5933" y="1057.9311">1</text><text fill="#000000" font-family="sans-serif" font-size="13" lengthAdjust="spacingAndGlyphs" textLength="7" x="425.7526" y="1151.9508">1</text><!--MD5=[4b18890930c5f433dc03cf1707259136]
@startuml
skinparam classAttributeIconSize 0

database Database {
}

package "UI" #DDDDDD {
class RemoveScooterUI{
}
}

package "Controller" #DDDDDD {
class RemoveScooterController{
+showPharmacies()
+showScootersList(pharmacyId)
+removeScooter(scooterId)
}
}


package "Model" #DDDDDD {
 package "Service" #DDDDDD {
  class PharmacyService{
      +PharmacyService()
      +getPharmacies()
  }

  class ScooterService{
      +ScooterService()
      +getScootersList()
      +removeScooter(scooterId)
   }
}

package "Model" #DDDDDD {
class ScooterPark{
-   int maxSlotsNumber
}

class ScooterChargingSlot{
-   int id
-   float outputPower
}

class ScooterParkingSlot{
-   int id
}

class Scooter{
+Scooter(batteryPerc, charginStatus, potency,\n weight, batteryCapacity, maxPayload, batteryVoltage, pharmacyId)

}

class Vehicle{
  -int id
  -float potency
  -float weight
  -float maxPayload
}

class Battery{
  -int id
  -float batteryPerc
  -int batteryCapacity
  -float batteryVoltage
}

class Address{
  -double longitude
  -float latitude
  -String doorNumber
  -String streetName
  -String postalCode
  -String locality
  -String country
}

class Pharmacy {
  -int id
  -String name
  +getScootersList(pharmacyId)
}
}


package "Data" #DDDDDD {
class DataHandler{
    +openConnection()
    +closeAll()
}
class PharmacyDB{
     +PharmacyDB()
     +getPharmacies()
 }

 class ScooterDB{
     +ScooterDB()
     +getScootersList(pharmacyId)
     +removeScooterFromDB(scooterId)
  }
}

class PharmacyDB extends DataHandler
class ScooterDB extends DataHandler

RemoveScooterUI ..> RemoveScooterController
RemoveScooterController ..> PharmacyService
RemoveScooterController ..> ScooterService
Database "1" - -> "1" PharmacyDB : manages
Database "1" - -> "1" ScooterDB : manages
ScooterService "1" - -> "*" PharmacyDB : uses
PharmacyService "1" - -> "*" ScooterDB : uses
PharmacyService "1" - -> "*" Pharmacy : manage services of
ScooterService "1" - -> "*" Scooter : manage services of

Database "1" - - "*" Pharmacy : has registered >
Database "1" - - "*" Scooter : has registered >

Vehicle "1" - - "1" Battery : has >
Scooter "*" - - "1" Vehicle : is a type of >
Scooter "*" - - "1" Pharmacy : belongs to >
Pharmacy "1" - - "1" Address : has >
Pharmacy "1" - - "1" ScooterPark : has >
ScooterPark "1" - - "1" ScooterChargingSlot : has >
ScooterPark "1" - - "1" ScooterParkingSlot : has >

@enduml

PlantUML version 1.2020.09(Sun May 10 11:51:06 BST 2020)
(GPL source distribution)
Java Runtime: OpenJDK Runtime Environment
JVM: OpenJDK 64-Bit Server VM
Java Version: 11.0.6+8-b765.40
Operating System: Windows 10
Default Encoding: Cp1252
Language: pt
Country: PT
--></g></svg>