<?xml version="1.0" encoding="UTF-8" standalone="no"?><svg xmlns="http://www.w3.org/2000/svg" xmlns:xlink="http://www.w3.org/1999/xlink" contentScriptType="application/ecmascript" contentStyleType="text/css" height="1441px" preserveAspectRatio="none" style="width:869px;height:1441px;" version="1.1" viewBox="0 0 869 1441" width="869px" zoomAndPan="magnify"><defs><filter height="300%" id="fgdakfhd2nfw5" width="300%" x="-1" y="-1"><feGaussianBlur result="blurOut" stdDeviation="2.0"/><feColorMatrix in="blurOut" result="blurOut2" type="matrix" values="0 0 0 0 0 0 0 0 0 0 0 0 0 0 0 0 0 0 .4 0"/><feOffset dx="4.0" dy="4.0" in="blurOut2" result="blurOut3"/><feBlend in="SourceGraphic" in2="blurOut3" mode="normal"/></filter></defs><g><!--MD5=[9681dc6e01e10c6b4fe06895ae94f592]
cluster UI--><polygon fill="#DDDDDD" filter="url(#fgdakfhd2nfw5)" points="208,24,228,24,235,47.6094,374,47.6094,374,124,208,124,208,24" style="stroke: #000000; stroke-width: 1.5;"/><line style="stroke: #000000; stroke-width: 1.5;" x1="208" x2="235" y1="47.6094" y2="47.6094"/><text fill="#000000" font-family="sans-serif" font-size="14" font-weight="bold" lengthAdjust="spacingAndGlyphs" textLength="14" x="212" y="40.5332">UI</text><!--MD5=[1f2cfc53d9d308f53762fd0fcbaa4873]
cluster Controller--><polygon fill="#DDDDDD" filter="url(#fgdakfhd2nfw5)" points="22,157,99,157,106,180.6094,560,180.6094,560,299,22,299,22,157" style="stroke: #000000; stroke-width: 1.5;"/><line style="stroke: #000000; stroke-width: 1.5;" x1="22" x2="106" y1="180.6094" y2="180.6094"/><text fill="#000000" font-family="sans-serif" font-size="14" font-weight="bold" lengthAdjust="spacingAndGlyphs" textLength="71" x="26" y="173.5332">Controller</text><!--MD5=[15636c1ca4a123c16a2a1a8e90aca7a9]
cluster Model--><polygon fill="#DDDDDD" filter="url(#fgdakfhd2nfw5)" points="35,332,85,332,92,355.6094,434,355.6094,434,1429,35,1429,35,332" style="stroke: #000000; stroke-width: 1.5;"/><line style="stroke: #000000; stroke-width: 1.5;" x1="35" x2="92" y1="355.6094" y2="355.6094"/><text fill="#000000" font-family="sans-serif" font-size="14" font-weight="bold" lengthAdjust="spacingAndGlyphs" textLength="44" x="39" y="348.5332">Model</text><!--MD5=[9dd75fd92da113d30380b27734fd2f01]
cluster Service--><polygon fill="#DDDDDD" filter="url(#fgdakfhd2nfw5)" points="69,376,129,376,136,399.6094,392,399.6094,392,504,69,504,69,376" style="stroke: #000000; stroke-width: 1.5;"/><line style="stroke: #000000; stroke-width: 1.5;" x1="69" x2="136" y1="399.6094" y2="399.6094"/><text fill="#000000" font-family="sans-serif" font-size="14" font-weight="bold" lengthAdjust="spacingAndGlyphs" textLength="54" x="73" y="392.5332">Service</text><!--MD5=[f21b1f164e99c6b37934f23ad048ad54]
cluster Data--><polygon fill="#DDDDDD" filter="url(#fgdakfhd2nfw5)" points="548,376,585,376,592,399.6094,847,399.6094,847,660,548,660,548,376" style="stroke: #000000; stroke-width: 1.5;"/><line style="stroke: #000000; stroke-width: 1.5;" x1="548" x2="592" y1="399.6094" y2="399.6094"/><text fill="#000000" font-family="sans-serif" font-size="14" font-weight="bold" lengthAdjust="spacingAndGlyphs" textLength="31" x="552" y="392.5332">Data</text><!--MD5=[fa1e3283224feb76407c84b7e90ed808]
entity Database--><path d="M450.5,436.5 C450.5,426.5 491,426.5 491,426.5 C491,426.5 531.5,426.5 531.5,436.5 L531.5,463.1094 C531.5,473.1094 491,473.1094 491,473.1094 C491,473.1094 450.5,473.1094 450.5,463.1094 L450.5,436.5 " fill="#FFFFFF" filter="url(#fgdakfhd2nfw5)" style="stroke: #000000; stroke-width: 1.5;"/><path d="M450.5,436.5 C450.5,446.5 491,446.5 491,446.5 C491,446.5 531.5,446.5 531.5,436.5 " fill="none" style="stroke: #000000; stroke-width: 1.5;"/><text fill="#000000" font-family="sans-serif" font-size="14" lengthAdjust="spacingAndGlyphs" textLength="61" x="460.5" y="465.0332">Database</text><!--MD5=[2e02dc687a7adedd6993cedb12e41a52]
class RegisterScooterUI--><rect fill="#FEFECE" filter="url(#fgdakfhd2nfw5)" height="48" id="RegisterScooterUI" style="stroke: #A80036; stroke-width: 1.5;" width="133" x="224.5" y="60"/><ellipse cx="239.5" cy="76" fill="#ADD1B2" rx="11" ry="11" style="stroke: #A80036; stroke-width: 1.0;"/><path d="M241.5,72.5 Q241.7031,72 241.9375,71.75 Q242.1719,71.5 242.4375,71.5 Q242.9063,71.5 243.2031,71.7813 Q243.5,72.0625 243.5,72.7188 L243.5,74.2813 Q243.5,74.9375 243.2188,75.2188 Q242.9375,75.5 242.5,75.5 Q242.1094,75.5 241.8594,75.3281 Q241.6094,75.1563 241.5,74.7031 Q241.4531,74.3906 241.2813,74.2188 Q240.9688,73.8906 240.4063,73.7031 Q239.8438,73.5 239.2813,73.5 Q238.5781,73.5 237.9844,73.7813 Q237.4063,74.0625 236.9531,74.6875 Q236.5,75.3125 236.5,76.1719 L236.5,77.0938 Q236.5,78.125 237.3438,78.8125 Q238.1875,79.5 239.6875,79.5 Q240.5781,79.5 241.2031,79.2969 Q241.5625,79.1875 241.9688,78.8281 Q242.2344,78.625 242.375,78.5625 Q242.5156,78.5 242.6875,78.5 Q243.0156,78.5 243.25,78.7656 Q243.5,79.0156 243.5,79.375 Q243.5,79.7188 243.1563,80.125 Q242.6563,80.7188 241.8594,81.0469 Q240.8125,81.5 239.5313,81.5 Q238.0313,81.5 236.8281,80.9063 Q235.8594,80.4375 235.1719,79.4219 Q234.5,78.4063 234.5,77.2031 L234.5,76.1094 Q234.5,74.8594 235.0938,73.7656 Q235.7031,72.6719 236.75,72.0938 Q237.8125,71.5 239,71.5 Q239.7188,71.5 240.3438,71.75 Q240.9688,72 241.5,72.5 Z "/><text fill="#000000" font-family="sans-serif" font-size="12" lengthAdjust="spacingAndGlyphs" textLength="101" x="253.5" y="80.9102">RegisterScooterUI</text><line style="stroke: #A80036; stroke-width: 1.5;" x1="225.5" x2="356.5" y1="92" y2="92"/><line style="stroke: #A80036; stroke-width: 1.5;" x1="225.5" x2="356.5" y1="100" y2="100"/><!--MD5=[b762eabfe222fdd6cf4857c585db3ba3]
class RegisterScooterController--><rect fill="#FEFECE" filter="url(#fgdakfhd2nfw5)" height="89.5078" id="RegisterScooterController" style="stroke: #A80036; stroke-width: 1.5;" width="505" x="38.5" y="193"/><ellipse cx="215.25" cy="209" fill="#ADD1B2" rx="11" ry="11" style="stroke: #A80036; stroke-width: 1.0;"/><path d="M217.25,205.5 Q217.4531,205 217.6875,204.75 Q217.9219,204.5 218.1875,204.5 Q218.6563,204.5 218.9531,204.7813 Q219.25,205.0625 219.25,205.7188 L219.25,207.2813 Q219.25,207.9375 218.9688,208.2188 Q218.6875,208.5 218.25,208.5 Q217.8594,208.5 217.6094,208.3281 Q217.3594,208.1563 217.25,207.7031 Q217.2031,207.3906 217.0313,207.2188 Q216.7188,206.8906 216.1563,206.7031 Q215.5938,206.5 215.0313,206.5 Q214.3281,206.5 213.7344,206.7813 Q213.1563,207.0625 212.7031,207.6875 Q212.25,208.3125 212.25,209.1719 L212.25,210.0938 Q212.25,211.125 213.0938,211.8125 Q213.9375,212.5 215.4375,212.5 Q216.3281,212.5 216.9531,212.2969 Q217.3125,212.1875 217.7188,211.8281 Q217.9844,211.625 218.125,211.5625 Q218.2656,211.5 218.4375,211.5 Q218.7656,211.5 219,211.7656 Q219.25,212.0156 219.25,212.375 Q219.25,212.7188 218.9063,213.125 Q218.4063,213.7188 217.6094,214.0469 Q216.5625,214.5 215.2813,214.5 Q213.7813,214.5 212.5781,213.9063 Q211.6094,213.4375 210.9219,212.4219 Q210.25,211.4063 210.25,210.2031 L210.25,209.1094 Q210.25,207.8594 210.8438,206.7656 Q211.4531,205.6719 212.5,205.0938 Q213.5625,204.5 214.75,204.5 Q215.4688,204.5 216.0938,204.75 Q216.7188,205 217.25,205.5 Z "/><text fill="#000000" font-family="sans-serif" font-size="12" lengthAdjust="spacingAndGlyphs" textLength="143" x="235.75" y="213.9102">RegisterScooterController</text><line style="stroke: #A80036; stroke-width: 1.5;" x1="39.5" x2="542.5" y1="225" y2="225"/><line style="stroke: #A80036; stroke-width: 1.5;" x1="39.5" x2="542.5" y1="233" y2="233"/><text fill="#000000" font-family="sans-serif" font-size="11" lengthAdjust="spacingAndGlyphs" textLength="85" x="44.5" y="248.4189">+getPharmacies()</text><text fill="#000000" font-family="sans-serif" font-size="11" lengthAdjust="spacingAndGlyphs" textLength="493" x="44.5" y="262.2549">+newScooter(batteryPerc, chargingStatus, potency, weight, batteryCapacity, maxPayload, pharmacy)</text><text fill="#000000" font-family="sans-serif" font-size="11" lengthAdjust="spacingAndGlyphs" textLength="116" x="44.5" y="276.0908">+registerScooter(scoot)</text><!--MD5=[868815390a9e59f0f213a5798810649b]
class ScooterPark--><rect fill="#FEFECE" filter="url(#fgdakfhd2nfw5)" height="61.8359" id="ScooterPark" style="stroke: #A80036; stroke-width: 1.5;" width="111" x="96.5" y="1155.5"/><ellipse cx="116.9" cy="1171.5" fill="#ADD1B2" rx="11" ry="11" style="stroke: #A80036; stroke-width: 1.0;"/><path d="M118.9,1168 Q119.1031,1167.5 119.3375,1167.25 Q119.5719,1167 119.8375,1167 Q120.3063,1167 120.6031,1167.2813 Q120.9,1167.5625 120.9,1168.2188 L120.9,1169.7813 Q120.9,1170.4375 120.6188,1170.7188 Q120.3375,1171 119.9,1171 Q119.5094,1171 119.2594,1170.8281 Q119.0094,1170.6563 118.9,1170.2031 Q118.8531,1169.8906 118.6813,1169.7188 Q118.3688,1169.3906 117.8063,1169.2031 Q117.2438,1169 116.6813,1169 Q115.9781,1169 115.3844,1169.2813 Q114.8063,1169.5625 114.3531,1170.1875 Q113.9,1170.8125 113.9,1171.6719 L113.9,1172.5938 Q113.9,1173.625 114.7438,1174.3125 Q115.5875,1175 117.0875,1175 Q117.9781,1175 118.6031,1174.7969 Q118.9625,1174.6875 119.3688,1174.3281 Q119.6344,1174.125 119.775,1174.0625 Q119.9156,1174 120.0875,1174 Q120.4156,1174 120.65,1174.2656 Q120.9,1174.5156 120.9,1174.875 Q120.9,1175.2188 120.5563,1175.625 Q120.0563,1176.2188 119.2594,1176.5469 Q118.2125,1177 116.9313,1177 Q115.4313,1177 114.2281,1176.4063 Q113.2594,1175.9375 112.5719,1174.9219 Q111.9,1173.9063 111.9,1172.7031 L111.9,1171.6094 Q111.9,1170.3594 112.4938,1169.2656 Q113.1031,1168.1719 114.15,1167.5938 Q115.2125,1167 116.4,1167 Q117.1188,1167 117.7438,1167.25 Q118.3688,1167.5 118.9,1168 Z "/><text fill="#000000" font-family="sans-serif" font-size="12" lengthAdjust="spacingAndGlyphs" textLength="67" x="132.1" y="1176.4102">ScooterPark</text><line style="stroke: #A80036; stroke-width: 1.5;" x1="97.5" x2="206.5" y1="1187.5" y2="1187.5"/><text fill="#000000" font-family="sans-serif" font-size="11" lengthAdjust="spacingAndGlyphs" textLength="99" x="102.5" y="1202.9189">-int maxSlotsNumber</text><line style="stroke: #A80036; stroke-width: 1.5;" x1="97.5" x2="206.5" y1="1209.3359" y2="1209.3359"/><!--MD5=[5efbb0d0731ef97fc2ab2cfe7ed5bd27]
class ScooterChargingSlot--><rect fill="#FEFECE" filter="url(#fgdakfhd2nfw5)" height="75.6719" id="ScooterChargingSlot" style="stroke: #A80036; stroke-width: 1.5;" width="146" x="55" y="1337"/><ellipse cx="70" cy="1353" fill="#ADD1B2" rx="11" ry="11" style="stroke: #A80036; stroke-width: 1.0;"/><path d="M72,1349.5 Q72.2031,1349 72.4375,1348.75 Q72.6719,1348.5 72.9375,1348.5 Q73.4063,1348.5 73.7031,1348.7813 Q74,1349.0625 74,1349.7188 L74,1351.2813 Q74,1351.9375 73.7188,1352.2188 Q73.4375,1352.5 73,1352.5 Q72.6094,1352.5 72.3594,1352.3281 Q72.1094,1352.1563 72,1351.7031 Q71.9531,1351.3906 71.7813,1351.2188 Q71.4688,1350.8906 70.9063,1350.7031 Q70.3438,1350.5 69.7813,1350.5 Q69.0781,1350.5 68.4844,1350.7813 Q67.9063,1351.0625 67.4531,1351.6875 Q67,1352.3125 67,1353.1719 L67,1354.0938 Q67,1355.125 67.8438,1355.8125 Q68.6875,1356.5 70.1875,1356.5 Q71.0781,1356.5 71.7031,1356.2969 Q72.0625,1356.1875 72.4688,1355.8281 Q72.7344,1355.625 72.875,1355.5625 Q73.0156,1355.5 73.1875,1355.5 Q73.5156,1355.5 73.75,1355.7656 Q74,1356.0156 74,1356.375 Q74,1356.7188 73.6563,1357.125 Q73.1563,1357.7188 72.3594,1358.0469 Q71.3125,1358.5 70.0313,1358.5 Q68.5313,1358.5 67.3281,1357.9063 Q66.3594,1357.4375 65.6719,1356.4219 Q65,1355.4063 65,1354.2031 L65,1353.1094 Q65,1351.8594 65.5938,1350.7656 Q66.2031,1349.6719 67.25,1349.0938 Q68.3125,1348.5 69.5,1348.5 Q70.2188,1348.5 70.8438,1348.75 Q71.4688,1349 72,1349.5 Z "/><text fill="#000000" font-family="sans-serif" font-size="12" lengthAdjust="spacingAndGlyphs" textLength="114" x="84" y="1357.9102">ScooterChargingSlot</text><line style="stroke: #A80036; stroke-width: 1.5;" x1="56" x2="200" y1="1369" y2="1369"/><text fill="#000000" font-family="sans-serif" font-size="11" lengthAdjust="spacingAndGlyphs" textLength="26" x="61" y="1384.4189">-int id</text><text fill="#000000" font-family="sans-serif" font-size="11" lengthAdjust="spacingAndGlyphs" textLength="90" x="61" y="1398.2549">-float outputPower</text><line style="stroke: #A80036; stroke-width: 1.5;" x1="56" x2="200" y1="1404.6719" y2="1404.6719"/><!--MD5=[d3cdad78b703b3ff47b8cf68490e772e]
class ScooterParkingSlot--><rect fill="#FEFECE" filter="url(#fgdakfhd2nfw5)" height="61.8359" id="ScooterParkingSlot" style="stroke: #A80036; stroke-width: 1.5;" width="137" x="236.5" y="1344"/><ellipse cx="251.5" cy="1360" fill="#ADD1B2" rx="11" ry="11" style="stroke: #A80036; stroke-width: 1.0;"/><path d="M253.5,1356.5 Q253.7031,1356 253.9375,1355.75 Q254.1719,1355.5 254.4375,1355.5 Q254.9063,1355.5 255.2031,1355.7813 Q255.5,1356.0625 255.5,1356.7188 L255.5,1358.2813 Q255.5,1358.9375 255.2188,1359.2188 Q254.9375,1359.5 254.5,1359.5 Q254.1094,1359.5 253.8594,1359.3281 Q253.6094,1359.1563 253.5,1358.7031 Q253.4531,1358.3906 253.2813,1358.2188 Q252.9688,1357.8906 252.4063,1357.7031 Q251.8438,1357.5 251.2813,1357.5 Q250.5781,1357.5 249.9844,1357.7813 Q249.4063,1358.0625 248.9531,1358.6875 Q248.5,1359.3125 248.5,1360.1719 L248.5,1361.0938 Q248.5,1362.125 249.3438,1362.8125 Q250.1875,1363.5 251.6875,1363.5 Q252.5781,1363.5 253.2031,1363.2969 Q253.5625,1363.1875 253.9688,1362.8281 Q254.2344,1362.625 254.375,1362.5625 Q254.5156,1362.5 254.6875,1362.5 Q255.0156,1362.5 255.25,1362.7656 Q255.5,1363.0156 255.5,1363.375 Q255.5,1363.7188 255.1563,1364.125 Q254.6563,1364.7188 253.8594,1365.0469 Q252.8125,1365.5 251.5313,1365.5 Q250.0313,1365.5 248.8281,1364.9063 Q247.8594,1364.4375 247.1719,1363.4219 Q246.5,1362.4063 246.5,1361.2031 L246.5,1360.1094 Q246.5,1358.8594 247.0938,1357.7656 Q247.7031,1356.6719 248.75,1356.0938 Q249.8125,1355.5 251,1355.5 Q251.7188,1355.5 252.3438,1355.75 Q252.9688,1356 253.5,1356.5 Z "/><text fill="#000000" font-family="sans-serif" font-size="12" lengthAdjust="spacingAndGlyphs" textLength="105" x="265.5" y="1364.9102">ScooterParkingSlot</text><line style="stroke: #A80036; stroke-width: 1.5;" x1="237.5" x2="372.5" y1="1376" y2="1376"/><text fill="#000000" font-family="sans-serif" font-size="11" lengthAdjust="spacingAndGlyphs" textLength="26" x="242.5" y="1391.4189">-int id</text><line style="stroke: #A80036; stroke-width: 1.5;" x1="237.5" x2="372.5" y1="1397.8359" y2="1397.8359"/><!--MD5=[f4402668d5d5bb8485350c0fdb60ac8e]
class Scooter--><rect fill="#FEFECE" filter="url(#fgdakfhd2nfw5)" height="75.6719" id="Scooter" style="stroke: #A80036; stroke-width: 1.5;" width="329" x="88.5" y="568"/><ellipse cx="227.75" cy="584" fill="#ADD1B2" rx="11" ry="11" style="stroke: #A80036; stroke-width: 1.0;"/><path d="M229.75,580.5 Q229.9531,580 230.1875,579.75 Q230.4219,579.5 230.6875,579.5 Q231.1563,579.5 231.4531,579.7813 Q231.75,580.0625 231.75,580.7188 L231.75,582.2813 Q231.75,582.9375 231.4688,583.2188 Q231.1875,583.5 230.75,583.5 Q230.3594,583.5 230.1094,583.3281 Q229.8594,583.1563 229.75,582.7031 Q229.7031,582.3906 229.5313,582.2188 Q229.2188,581.8906 228.6563,581.7031 Q228.0938,581.5 227.5313,581.5 Q226.8281,581.5 226.2344,581.7813 Q225.6563,582.0625 225.2031,582.6875 Q224.75,583.3125 224.75,584.1719 L224.75,585.0938 Q224.75,586.125 225.5938,586.8125 Q226.4375,587.5 227.9375,587.5 Q228.8281,587.5 229.4531,587.2969 Q229.8125,587.1875 230.2188,586.8281 Q230.4844,586.625 230.625,586.5625 Q230.7656,586.5 230.9375,586.5 Q231.2656,586.5 231.5,586.7656 Q231.75,587.0156 231.75,587.375 Q231.75,587.7188 231.4063,588.125 Q230.9063,588.7188 230.1094,589.0469 Q229.0625,589.5 227.7813,589.5 Q226.2813,589.5 225.0781,588.9063 Q224.1094,588.4375 223.4219,587.4219 Q222.75,586.4063 222.75,585.2031 L222.75,584.1094 Q222.75,582.8594 223.3438,581.7656 Q223.9531,580.6719 225,580.0938 Q226.0625,579.5 227.25,579.5 Q227.9688,579.5 228.5938,579.75 Q229.2188,580 229.75,580.5 Z "/><text fill="#000000" font-family="sans-serif" font-size="12" lengthAdjust="spacingAndGlyphs" textLength="42" x="248.25" y="588.9102">Scooter</text><line style="stroke: #A80036; stroke-width: 1.5;" x1="89.5" x2="416.5" y1="600" y2="600"/><line style="stroke: #A80036; stroke-width: 1.5;" x1="89.5" x2="416.5" y1="608" y2="608"/><text fill="#000000" font-family="sans-serif" font-size="11" lengthAdjust="spacingAndGlyphs" textLength="225" x="94.5" y="623.4189">+Scooter(batteryPerc, charginStatus, potency,</text><text fill="#000000" font-family="sans-serif" font-size="11" lengthAdjust="spacingAndGlyphs" textLength="314" x="97.5" y="637.2549">weight, batteryCapacity, maxPayload, batteryVoltage, pharmacy)</text><!--MD5=[3aa0d89c6bfdcbf7f32042cedac57549]
class Vehicle--><rect fill="#FEFECE" filter="url(#fgdakfhd2nfw5)" height="131.0156" id="Vehicle" style="stroke: #A80036; stroke-width: 1.5;" width="126" x="190" y="724"/><ellipse cx="229.3" cy="740" fill="#ADD1B2" rx="11" ry="11" style="stroke: #A80036; stroke-width: 1.0;"/><path d="M231.3,736.5 Q231.5031,736 231.7375,735.75 Q231.9719,735.5 232.2375,735.5 Q232.7063,735.5 233.0031,735.7813 Q233.3,736.0625 233.3,736.7188 L233.3,738.2813 Q233.3,738.9375 233.0188,739.2188 Q232.7375,739.5 232.3,739.5 Q231.9094,739.5 231.6594,739.3281 Q231.4094,739.1563 231.3,738.7031 Q231.2531,738.3906 231.0813,738.2188 Q230.7688,737.8906 230.2063,737.7031 Q229.6438,737.5 229.0813,737.5 Q228.3781,737.5 227.7844,737.7813 Q227.2063,738.0625 226.7531,738.6875 Q226.3,739.3125 226.3,740.1719 L226.3,741.0938 Q226.3,742.125 227.1438,742.8125 Q227.9875,743.5 229.4875,743.5 Q230.3781,743.5 231.0031,743.2969 Q231.3625,743.1875 231.7688,742.8281 Q232.0344,742.625 232.175,742.5625 Q232.3156,742.5 232.4875,742.5 Q232.8156,742.5 233.05,742.7656 Q233.3,743.0156 233.3,743.375 Q233.3,743.7188 232.9563,744.125 Q232.4563,744.7188 231.6594,745.0469 Q230.6125,745.5 229.3313,745.5 Q227.8313,745.5 226.6281,744.9063 Q225.6594,744.4375 224.9719,743.4219 Q224.3,742.4063 224.3,741.2031 L224.3,740.1094 Q224.3,738.8594 224.8938,737.7656 Q225.5031,736.6719 226.55,736.0938 Q227.6125,735.5 228.8,735.5 Q229.5188,735.5 230.1438,735.75 Q230.7688,736 231.3,736.5 Z "/><text fill="#000000" font-family="sans-serif" font-size="12" lengthAdjust="spacingAndGlyphs" textLength="40" x="248.7" y="744.9102">Vehicle</text><line style="stroke: #A80036; stroke-width: 1.5;" x1="191" x2="315" y1="756" y2="756"/><text fill="#000000" font-family="sans-serif" font-size="11" lengthAdjust="spacingAndGlyphs" textLength="26" x="196" y="771.4189">-int id</text><text fill="#000000" font-family="sans-serif" font-size="11" lengthAdjust="spacingAndGlyphs" textLength="93" x="196" y="785.2549">-String vehicleType</text><text fill="#000000" font-family="sans-serif" font-size="11" lengthAdjust="spacingAndGlyphs" textLength="67" x="196" y="799.0908">-float potency</text><text fill="#000000" font-family="sans-serif" font-size="11" lengthAdjust="spacingAndGlyphs" textLength="61" x="196" y="812.9268">-float weight</text><text fill="#000000" font-family="sans-serif" font-size="11" lengthAdjust="spacingAndGlyphs" textLength="86" x="196" y="826.7627">-float maxPayload</text><text fill="#000000" font-family="sans-serif" font-size="11" lengthAdjust="spacingAndGlyphs" textLength="114" x="196" y="840.5986">-String charngingStatus</text><line style="stroke: #A80036; stroke-width: 1.5;" x1="191" x2="315" y1="847.0156" y2="847.0156"/><!--MD5=[79eb2d862cef9730b5f9dcab29e35f17]
class Battery--><rect fill="#FEFECE" filter="url(#fgdakfhd2nfw5)" height="103.3438" id="Battery" style="stroke: #A80036; stroke-width: 1.5;" width="111" x="74.5" y="933"/><ellipse cx="108.4" cy="949" fill="#ADD1B2" rx="11" ry="11" style="stroke: #A80036; stroke-width: 1.0;"/><path d="M110.4,945.5 Q110.6031,945 110.8375,944.75 Q111.0719,944.5 111.3375,944.5 Q111.8063,944.5 112.1031,944.7813 Q112.4,945.0625 112.4,945.7188 L112.4,947.2813 Q112.4,947.9375 112.1188,948.2188 Q111.8375,948.5 111.4,948.5 Q111.0094,948.5 110.7594,948.3281 Q110.5094,948.1563 110.4,947.7031 Q110.3531,947.3906 110.1813,947.2188 Q109.8688,946.8906 109.3063,946.7031 Q108.7438,946.5 108.1813,946.5 Q107.4781,946.5 106.8844,946.7813 Q106.3063,947.0625 105.8531,947.6875 Q105.4,948.3125 105.4,949.1719 L105.4,950.0938 Q105.4,951.125 106.2438,951.8125 Q107.0875,952.5 108.5875,952.5 Q109.4781,952.5 110.1031,952.2969 Q110.4625,952.1875 110.8688,951.8281 Q111.1344,951.625 111.275,951.5625 Q111.4156,951.5 111.5875,951.5 Q111.9156,951.5 112.15,951.7656 Q112.4,952.0156 112.4,952.375 Q112.4,952.7188 112.0563,953.125 Q111.5563,953.7188 110.7594,954.0469 Q109.7125,954.5 108.4313,954.5 Q106.9313,954.5 105.7281,953.9063 Q104.7594,953.4375 104.0719,952.4219 Q103.4,951.4063 103.4,950.2031 L103.4,949.1094 Q103.4,947.8594 103.9938,946.7656 Q104.6031,945.6719 105.65,945.0938 Q106.7125,944.5 107.9,944.5 Q108.6188,944.5 109.2438,944.75 Q109.8688,945 110.4,945.5 Z "/><text fill="#000000" font-family="sans-serif" font-size="12" lengthAdjust="spacingAndGlyphs" textLength="37" x="126.6" y="953.9102">Battery</text><line style="stroke: #A80036; stroke-width: 1.5;" x1="75.5" x2="184.5" y1="965" y2="965"/><text fill="#000000" font-family="sans-serif" font-size="11" lengthAdjust="spacingAndGlyphs" textLength="26" x="80.5" y="980.4189">-int id</text><text fill="#000000" font-family="sans-serif" font-size="11" lengthAdjust="spacingAndGlyphs" textLength="84" x="80.5" y="994.2549">-float batteryPerc</text><text fill="#000000" font-family="sans-serif" font-size="11" lengthAdjust="spacingAndGlyphs" textLength="94" x="80.5" y="1008.0908">-int batteryCapacity</text><text fill="#000000" font-family="sans-serif" font-size="11" lengthAdjust="spacingAndGlyphs" textLength="99" x="80.5" y="1021.9268">-float batteryVoltage</text><line style="stroke: #A80036; stroke-width: 1.5;" x1="75.5" x2="184.5" y1="1028.3438" y2="1028.3438"/><!--MD5=[0f39e4cb6f03951afbf6d14bd2505654]
class Address--><rect fill="#FEFECE" filter="url(#fgdakfhd2nfw5)" height="144.8516" id="Address" style="stroke: #A80036; stroke-width: 1.5;" width="106" x="243" y="1114"/><ellipse cx="270.6" cy="1130" fill="#ADD1B2" rx="11" ry="11" style="stroke: #A80036; stroke-width: 1.0;"/><path d="M272.6,1126.5 Q272.8031,1126 273.0375,1125.75 Q273.2719,1125.5 273.5375,1125.5 Q274.0063,1125.5 274.3031,1125.7813 Q274.6,1126.0625 274.6,1126.7188 L274.6,1128.2813 Q274.6,1128.9375 274.3188,1129.2188 Q274.0375,1129.5 273.6,1129.5 Q273.2094,1129.5 272.9594,1129.3281 Q272.7094,1129.1563 272.6,1128.7031 Q272.5531,1128.3906 272.3813,1128.2188 Q272.0688,1127.8906 271.5063,1127.7031 Q270.9438,1127.5 270.3813,1127.5 Q269.6781,1127.5 269.0844,1127.7813 Q268.5063,1128.0625 268.0531,1128.6875 Q267.6,1129.3125 267.6,1130.1719 L267.6,1131.0938 Q267.6,1132.125 268.4438,1132.8125 Q269.2875,1133.5 270.7875,1133.5 Q271.6781,1133.5 272.3031,1133.2969 Q272.6625,1133.1875 273.0688,1132.8281 Q273.3344,1132.625 273.475,1132.5625 Q273.6156,1132.5 273.7875,1132.5 Q274.1156,1132.5 274.35,1132.7656 Q274.6,1133.0156 274.6,1133.375 Q274.6,1133.7188 274.2563,1134.125 Q273.7563,1134.7188 272.9594,1135.0469 Q271.9125,1135.5 270.6313,1135.5 Q269.1313,1135.5 267.9281,1134.9063 Q266.9594,1134.4375 266.2719,1133.4219 Q265.6,1132.4063 265.6,1131.2031 L265.6,1130.1094 Q265.6,1128.8594 266.1938,1127.7656 Q266.8031,1126.6719 267.85,1126.0938 Q268.9125,1125.5 270.1,1125.5 Q270.8188,1125.5 271.4438,1125.75 Q272.0688,1126 272.6,1126.5 Z "/><text fill="#000000" font-family="sans-serif" font-size="12" lengthAdjust="spacingAndGlyphs" textLength="46" x="287.4" y="1134.9102">Address</text><line style="stroke: #A80036; stroke-width: 1.5;" x1="244" x2="348" y1="1146" y2="1146"/><text fill="#000000" font-family="sans-serif" font-size="11" lengthAdjust="spacingAndGlyphs" textLength="82" x="249" y="1161.4189">-double longitude</text><text fill="#000000" font-family="sans-serif" font-size="11" lengthAdjust="spacingAndGlyphs" textLength="73" x="249" y="1175.2549">-double latitude</text><text fill="#000000" font-family="sans-serif" font-size="11" lengthAdjust="spacingAndGlyphs" textLength="94" x="249" y="1189.0908">-String doorNumber</text><text fill="#000000" font-family="sans-serif" font-size="11" lengthAdjust="spacingAndGlyphs" textLength="90" x="249" y="1202.9268">-String streetName</text><text fill="#000000" font-family="sans-serif" font-size="11" lengthAdjust="spacingAndGlyphs" textLength="89" x="249" y="1216.7627">-String postalCode</text><text fill="#000000" font-family="sans-serif" font-size="11" lengthAdjust="spacingAndGlyphs" textLength="68" x="249" y="1230.5986">-String locality</text><text fill="#000000" font-family="sans-serif" font-size="11" lengthAdjust="spacingAndGlyphs" textLength="72" x="249" y="1244.4346">-String country</text><line style="stroke: #A80036; stroke-width: 1.5;" x1="244" x2="348" y1="1250.8516" y2="1250.8516"/><!--MD5=[7f2a9fafcebe4f099f71398fd3e2ed00]
class Pharmacy--><rect fill="#FEFECE" filter="url(#fgdakfhd2nfw5)" height="89.5078" id="Pharmacy" style="stroke: #A80036; stroke-width: 1.5;" width="87" x="220.5" y="939.5"/><ellipse cx="235.5" cy="955.5" fill="#ADD1B2" rx="11" ry="11" style="stroke: #A80036; stroke-width: 1.0;"/><path d="M237.5,952 Q237.7031,951.5 237.9375,951.25 Q238.1719,951 238.4375,951 Q238.9063,951 239.2031,951.2813 Q239.5,951.5625 239.5,952.2188 L239.5,953.7813 Q239.5,954.4375 239.2188,954.7188 Q238.9375,955 238.5,955 Q238.1094,955 237.8594,954.8281 Q237.6094,954.6563 237.5,954.2031 Q237.4531,953.8906 237.2813,953.7188 Q236.9688,953.3906 236.4063,953.2031 Q235.8438,953 235.2813,953 Q234.5781,953 233.9844,953.2813 Q233.4063,953.5625 232.9531,954.1875 Q232.5,954.8125 232.5,955.6719 L232.5,956.5938 Q232.5,957.625 233.3438,958.3125 Q234.1875,959 235.6875,959 Q236.5781,959 237.2031,958.7969 Q237.5625,958.6875 237.9688,958.3281 Q238.2344,958.125 238.375,958.0625 Q238.5156,958 238.6875,958 Q239.0156,958 239.25,958.2656 Q239.5,958.5156 239.5,958.875 Q239.5,959.2188 239.1563,959.625 Q238.6563,960.2188 237.8594,960.5469 Q236.8125,961 235.5313,961 Q234.0313,961 232.8281,960.4063 Q231.8594,959.9375 231.1719,958.9219 Q230.5,957.9063 230.5,956.7031 L230.5,955.6094 Q230.5,954.3594 231.0938,953.2656 Q231.7031,952.1719 232.75,951.5938 Q233.8125,951 235,951 Q235.7188,951 236.3438,951.25 Q236.9688,951.5 237.5,952 Z "/><text fill="#000000" font-family="sans-serif" font-size="12" lengthAdjust="spacingAndGlyphs" textLength="55" x="249.5" y="960.4102">Pharmacy</text><line style="stroke: #A80036; stroke-width: 1.5;" x1="221.5" x2="306.5" y1="971.5" y2="971.5"/><text fill="#000000" font-family="sans-serif" font-size="11" lengthAdjust="spacingAndGlyphs" textLength="26" x="226.5" y="986.9189">-int id</text><text fill="#000000" font-family="sans-serif" font-size="11" lengthAdjust="spacingAndGlyphs" textLength="61" x="226.5" y="1000.7549">-String name</text><text fill="#000000" font-family="sans-serif" font-size="11" lengthAdjust="spacingAndGlyphs" textLength="59" x="226.5" y="1014.5908">-String email</text><line style="stroke: #A80036; stroke-width: 1.5;" x1="221.5" x2="306.5" y1="1021.0078" y2="1021.0078"/><!--MD5=[28160fdc0be430cd6f04db15a7547552]
class PharmacyService--><rect fill="#FEFECE" filter="url(#fgdakfhd2nfw5)" height="75.6719" id="PharmacyService" style="stroke: #A80036; stroke-width: 1.5;" width="127" x="85.5" y="412"/><ellipse cx="100.5" cy="428" fill="#ADD1B2" rx="11" ry="11" style="stroke: #A80036; stroke-width: 1.0;"/><path d="M102.5,424.5 Q102.7031,424 102.9375,423.75 Q103.1719,423.5 103.4375,423.5 Q103.9063,423.5 104.2031,423.7813 Q104.5,424.0625 104.5,424.7188 L104.5,426.2813 Q104.5,426.9375 104.2188,427.2188 Q103.9375,427.5 103.5,427.5 Q103.1094,427.5 102.8594,427.3281 Q102.6094,427.1563 102.5,426.7031 Q102.4531,426.3906 102.2813,426.2188 Q101.9688,425.8906 101.4063,425.7031 Q100.8438,425.5 100.2813,425.5 Q99.5781,425.5 98.9844,425.7813 Q98.4063,426.0625 97.9531,426.6875 Q97.5,427.3125 97.5,428.1719 L97.5,429.0938 Q97.5,430.125 98.3438,430.8125 Q99.1875,431.5 100.6875,431.5 Q101.5781,431.5 102.2031,431.2969 Q102.5625,431.1875 102.9688,430.8281 Q103.2344,430.625 103.375,430.5625 Q103.5156,430.5 103.6875,430.5 Q104.0156,430.5 104.25,430.7656 Q104.5,431.0156 104.5,431.375 Q104.5,431.7188 104.1563,432.125 Q103.6563,432.7188 102.8594,433.0469 Q101.8125,433.5 100.5313,433.5 Q99.0313,433.5 97.8281,432.9063 Q96.8594,432.4375 96.1719,431.4219 Q95.5,430.4063 95.5,429.2031 L95.5,428.1094 Q95.5,426.8594 96.0938,425.7656 Q96.7031,424.6719 97.75,424.0938 Q98.8125,423.5 100,423.5 Q100.7188,423.5 101.3438,423.75 Q101.9688,424 102.5,424.5 Z "/><text fill="#000000" font-family="sans-serif" font-size="12" lengthAdjust="spacingAndGlyphs" textLength="95" x="114.5" y="432.9102">PharmacyService</text><line style="stroke: #A80036; stroke-width: 1.5;" x1="86.5" x2="211.5" y1="444" y2="444"/><line style="stroke: #A80036; stroke-width: 1.5;" x1="86.5" x2="211.5" y1="452" y2="452"/><text fill="#000000" font-family="sans-serif" font-size="11" lengthAdjust="spacingAndGlyphs" textLength="99" x="91.5" y="467.4189">+PharmacyService()</text><text fill="#000000" font-family="sans-serif" font-size="11" lengthAdjust="spacingAndGlyphs" textLength="85" x="91.5" y="481.2549">+getPharmacies()</text><!--MD5=[aa4a745fe56463fab637f55d2a7c778f]
class ScooterService--><rect fill="#FEFECE" filter="url(#fgdakfhd2nfw5)" height="75.6719" id="ScooterService" style="stroke: #A80036; stroke-width: 1.5;" width="128" x="248" y="412"/><ellipse cx="269.3" cy="428" fill="#ADD1B2" rx="11" ry="11" style="stroke: #A80036; stroke-width: 1.0;"/><path d="M271.3,424.5 Q271.5031,424 271.7375,423.75 Q271.9719,423.5 272.2375,423.5 Q272.7063,423.5 273.0031,423.7813 Q273.3,424.0625 273.3,424.7188 L273.3,426.2813 Q273.3,426.9375 273.0188,427.2188 Q272.7375,427.5 272.3,427.5 Q271.9094,427.5 271.6594,427.3281 Q271.4094,427.1563 271.3,426.7031 Q271.2531,426.3906 271.0813,426.2188 Q270.7688,425.8906 270.2063,425.7031 Q269.6438,425.5 269.0813,425.5 Q268.3781,425.5 267.7844,425.7813 Q267.2063,426.0625 266.7531,426.6875 Q266.3,427.3125 266.3,428.1719 L266.3,429.0938 Q266.3,430.125 267.1438,430.8125 Q267.9875,431.5 269.4875,431.5 Q270.3781,431.5 271.0031,431.2969 Q271.3625,431.1875 271.7688,430.8281 Q272.0344,430.625 272.175,430.5625 Q272.3156,430.5 272.4875,430.5 Q272.8156,430.5 273.05,430.7656 Q273.3,431.0156 273.3,431.375 Q273.3,431.7188 272.9563,432.125 Q272.4563,432.7188 271.6594,433.0469 Q270.6125,433.5 269.3313,433.5 Q267.8313,433.5 266.6281,432.9063 Q265.6594,432.4375 264.9719,431.4219 Q264.3,430.4063 264.3,429.2031 L264.3,428.1094 Q264.3,426.8594 264.8938,425.7656 Q265.5031,424.6719 266.55,424.0938 Q267.6125,423.5 268.8,423.5 Q269.5188,423.5 270.1438,423.75 Q270.7688,424 271.3,424.5 Z "/><text fill="#000000" font-family="sans-serif" font-size="12" lengthAdjust="spacingAndGlyphs" textLength="82" x="284.7" y="432.9102">ScooterService</text><line style="stroke: #A80036; stroke-width: 1.5;" x1="249" x2="375" y1="444" y2="444"/><line style="stroke: #A80036; stroke-width: 1.5;" x1="249" x2="375" y1="452" y2="452"/><text fill="#000000" font-family="sans-serif" font-size="11" lengthAdjust="spacingAndGlyphs" textLength="89" x="254" y="467.4189">+ScooterService()</text><text fill="#000000" font-family="sans-serif" font-size="11" lengthAdjust="spacingAndGlyphs" textLength="116" x="254" y="481.2549">+registerScooter(scoot)</text><!--MD5=[4b2d61224b33971326a22fe5d809d926]
class DataHandler--><rect fill="#FEFECE" filter="url(#fgdakfhd2nfw5)" height="75.6719" id="DataHandler" style="stroke: #A80036; stroke-width: 1.5;" width="104" x="716" y="412"/><ellipse cx="731.9" cy="428" fill="#ADD1B2" rx="11" ry="11" style="stroke: #A80036; stroke-width: 1.0;"/><path d="M733.9,424.5 Q734.1031,424 734.3375,423.75 Q734.5719,423.5 734.8375,423.5 Q735.3063,423.5 735.6031,423.7813 Q735.9,424.0625 735.9,424.7188 L735.9,426.2813 Q735.9,426.9375 735.6188,427.2188 Q735.3375,427.5 734.9,427.5 Q734.5094,427.5 734.2594,427.3281 Q734.0094,427.1563 733.9,426.7031 Q733.8531,426.3906 733.6813,426.2188 Q733.3688,425.8906 732.8063,425.7031 Q732.2438,425.5 731.6813,425.5 Q730.9781,425.5 730.3844,425.7813 Q729.8063,426.0625 729.3531,426.6875 Q728.9,427.3125 728.9,428.1719 L728.9,429.0938 Q728.9,430.125 729.7438,430.8125 Q730.5875,431.5 732.0875,431.5 Q732.9781,431.5 733.6031,431.2969 Q733.9625,431.1875 734.3688,430.8281 Q734.6344,430.625 734.775,430.5625 Q734.9156,430.5 735.0875,430.5 Q735.4156,430.5 735.65,430.7656 Q735.9,431.0156 735.9,431.375 Q735.9,431.7188 735.5563,432.125 Q735.0563,432.7188 734.2594,433.0469 Q733.2125,433.5 731.9313,433.5 Q730.4313,433.5 729.2281,432.9063 Q728.2594,432.4375 727.5719,431.4219 Q726.9,430.4063 726.9,429.2031 L726.9,428.1094 Q726.9,426.8594 727.4938,425.7656 Q728.1031,424.6719 729.15,424.0938 Q730.2125,423.5 731.4,423.5 Q732.1188,423.5 732.7438,423.75 Q733.3688,424 733.9,424.5 Z "/><text fill="#000000" font-family="sans-serif" font-size="12" lengthAdjust="spacingAndGlyphs" textLength="70" x="746.1" y="432.9102">DataHandler</text><line style="stroke: #A80036; stroke-width: 1.5;" x1="717" x2="819" y1="444" y2="444"/><line style="stroke: #A80036; stroke-width: 1.5;" x1="717" x2="819" y1="452" y2="452"/><text fill="#000000" font-family="sans-serif" font-size="11" lengthAdjust="spacingAndGlyphs" textLength="92" x="722" y="467.4189">+openConnection()</text><text fill="#000000" font-family="sans-serif" font-size="11" lengthAdjust="spacingAndGlyphs" textLength="52" x="722" y="481.2549">+closeAll()</text><!--MD5=[b860ecc58d0ca70e482845cb1f7b4615]
class PharmacyDB--><rect fill="#FEFECE" filter="url(#fgdakfhd2nfw5)" height="75.6719" id="PharmacyDB" style="stroke: #A80036; stroke-width: 1.5;" width="104" x="727" y="568"/><ellipse cx="742" cy="584" fill="#ADD1B2" rx="11" ry="11" style="stroke: #A80036; stroke-width: 1.0;"/><path d="M744,580.5 Q744.2031,580 744.4375,579.75 Q744.6719,579.5 744.9375,579.5 Q745.4063,579.5 745.7031,579.7813 Q746,580.0625 746,580.7188 L746,582.2813 Q746,582.9375 745.7188,583.2188 Q745.4375,583.5 745,583.5 Q744.6094,583.5 744.3594,583.3281 Q744.1094,583.1563 744,582.7031 Q743.9531,582.3906 743.7813,582.2188 Q743.4688,581.8906 742.9063,581.7031 Q742.3438,581.5 741.7813,581.5 Q741.0781,581.5 740.4844,581.7813 Q739.9063,582.0625 739.4531,582.6875 Q739,583.3125 739,584.1719 L739,585.0938 Q739,586.125 739.8438,586.8125 Q740.6875,587.5 742.1875,587.5 Q743.0781,587.5 743.7031,587.2969 Q744.0625,587.1875 744.4688,586.8281 Q744.7344,586.625 744.875,586.5625 Q745.0156,586.5 745.1875,586.5 Q745.5156,586.5 745.75,586.7656 Q746,587.0156 746,587.375 Q746,587.7188 745.6563,588.125 Q745.1563,588.7188 744.3594,589.0469 Q743.3125,589.5 742.0313,589.5 Q740.5313,589.5 739.3281,588.9063 Q738.3594,588.4375 737.6719,587.4219 Q737,586.4063 737,585.2031 L737,584.1094 Q737,582.8594 737.5938,581.7656 Q738.2031,580.6719 739.25,580.0938 Q740.3125,579.5 741.5,579.5 Q742.2188,579.5 742.8438,579.75 Q743.4688,580 744,580.5 Z "/><text fill="#000000" font-family="sans-serif" font-size="12" lengthAdjust="spacingAndGlyphs" textLength="72" x="756" y="588.9102">PharmacyDB</text><line style="stroke: #A80036; stroke-width: 1.5;" x1="728" x2="830" y1="600" y2="600"/><line style="stroke: #A80036; stroke-width: 1.5;" x1="728" x2="830" y1="608" y2="608"/><text fill="#000000" font-family="sans-serif" font-size="11" lengthAdjust="spacingAndGlyphs" textLength="76" x="733" y="623.4189">+PharmacyDB()</text><text fill="#000000" font-family="sans-serif" font-size="11" lengthAdjust="spacingAndGlyphs" textLength="85" x="733" y="637.2549">+getPharmacies()</text><!--MD5=[48d7298b3bd1f8b3e8f77915e881d788]
class ScooterDB--><rect fill="#FEFECE" filter="url(#fgdakfhd2nfw5)" height="75.6719" id="ScooterDB" style="stroke: #A80036; stroke-width: 1.5;" width="128" x="564" y="568"/><ellipse cx="595.65" cy="584" fill="#ADD1B2" rx="11" ry="11" style="stroke: #A80036; stroke-width: 1.0;"/><path d="M597.65,580.5 Q597.8531,580 598.0875,579.75 Q598.3219,579.5 598.5875,579.5 Q599.0563,579.5 599.3531,579.7813 Q599.65,580.0625 599.65,580.7188 L599.65,582.2813 Q599.65,582.9375 599.3688,583.2188 Q599.0875,583.5 598.65,583.5 Q598.2594,583.5 598.0094,583.3281 Q597.7594,583.1563 597.65,582.7031 Q597.6031,582.3906 597.4313,582.2188 Q597.1188,581.8906 596.5563,581.7031 Q595.9938,581.5 595.4313,581.5 Q594.7281,581.5 594.1344,581.7813 Q593.5563,582.0625 593.1031,582.6875 Q592.65,583.3125 592.65,584.1719 L592.65,585.0938 Q592.65,586.125 593.4938,586.8125 Q594.3375,587.5 595.8375,587.5 Q596.7281,587.5 597.3531,587.2969 Q597.7125,587.1875 598.1188,586.8281 Q598.3844,586.625 598.525,586.5625 Q598.6656,586.5 598.8375,586.5 Q599.1656,586.5 599.4,586.7656 Q599.65,587.0156 599.65,587.375 Q599.65,587.7188 599.3063,588.125 Q598.8063,588.7188 598.0094,589.0469 Q596.9625,589.5 595.6813,589.5 Q594.1813,589.5 592.9781,588.9063 Q592.0094,588.4375 591.3219,587.4219 Q590.65,586.4063 590.65,585.2031 L590.65,584.1094 Q590.65,582.8594 591.2438,581.7656 Q591.8531,580.6719 592.9,580.0938 Q593.9625,579.5 595.15,579.5 Q595.8688,579.5 596.4938,579.75 Q597.1188,580 597.65,580.5 Z "/><text fill="#000000" font-family="sans-serif" font-size="12" lengthAdjust="spacingAndGlyphs" textLength="59" x="613.35" y="588.9102">ScooterDB</text><line style="stroke: #A80036; stroke-width: 1.5;" x1="565" x2="691" y1="600" y2="600"/><line style="stroke: #A80036; stroke-width: 1.5;" x1="565" x2="691" y1="608" y2="608"/><text fill="#000000" font-family="sans-serif" font-size="11" lengthAdjust="spacingAndGlyphs" textLength="66" x="570" y="623.4189">+ScooterDB()</text><text fill="#000000" font-family="sans-serif" font-size="11" lengthAdjust="spacingAndGlyphs" textLength="116" x="570" y="637.2549">+registerScooter(scoot)</text><!--MD5=[f40d64c3825bdc96a4efd5b7e3ff1420]
reverse link DataHandler to PharmacyDB--><path d="M772.102,508.435 C773.521,528.288 775.071,549.999 776.343,567.798 " fill="none" id="DataHandler&lt;-PharmacyDB" style="stroke: #A80036; stroke-width: 1.0;"/><polygon fill="none" points="765.106,508.727,770.663,488.279,779.07,507.73,765.106,508.727" style="stroke: #A80036; stroke-width: 1.0;"/><!--MD5=[a2c65173c20bdf66914a8ed43c34e217]
reverse link DataHandler to ScooterDB--><path d="M770.874,508.372 C769.214,518.889 765.918,529.282 760,538 C755.453,544.698 723.405,561.033 692.029,575.896 " fill="none" id="DataHandler&lt;-ScooterDB" style="stroke: #A80036; stroke-width: 1.0;"/><polygon fill="none" points="763.893,507.849,772.311,488.403,777.857,508.854,763.893,507.849" style="stroke: #A80036; stroke-width: 1.0;"/><!--MD5=[954f86ea882ac5dcad44771d5b1b4c17]
link RegisterScooterUI to RegisterScooterController--><path d="M291,108.09 C291,129.11 291,160.85 291,187.58 " fill="none" id="RegisterScooterUI-&gt;RegisterScooterController" style="stroke: #A80036; stroke-width: 1.0; stroke-dasharray: 7.0,7.0;"/><polygon fill="#A80036" points="291,192.85,295,183.85,291,187.85,287,183.85,291,192.85" style="stroke: #A80036; stroke-width: 1.0;"/><!--MD5=[3483b254801180bcfb852ef80db9ffdb]
link RegisterScooterController to PharmacyService--><path d="M258.623,283.27 C249.259,296.3 239.111,310.65 230,324 C211.272,351.45 190.937,382.84 175.326,407.29 " fill="none" id="RegisterScooterController-&gt;PharmacyService" style="stroke: #A80036; stroke-width: 1.0; stroke-dasharray: 7.0,7.0;"/><polygon fill="#A80036" points="172.467,411.78,180.6763,406.3387,175.1535,407.563,173.9291,402.0403,172.467,411.78" style="stroke: #A80036; stroke-width: 1.0;"/><!--MD5=[fbd790f96af27a62db13e48d70800838]
link RegisterScooterController to ScooterService--><path d="M295.402,283.02 C299.036,319.36 304.161,370.61 307.752,406.52 " fill="none" id="RegisterScooterController-&gt;ScooterService" style="stroke: #A80036; stroke-width: 1.0; stroke-dasharray: 7.0,7.0;"/><polygon fill="#A80036" points="308.27,411.7,311.3501,402.3452,307.7701,406.7251,303.3902,403.145,308.27,411.7" style="stroke: #A80036; stroke-width: 1.0;"/><!--MD5=[04ba2cb7f5803b19c0d0e740f2a895e0]
link Database to PharmacyDB--><path d="M505.626,473.51 C515.776,487.107 530.577,503.418 548,512 C581.246,528.376 595.692,508.74 631,520 C663.157,530.255 695.999,548.213 722.55,564.989 " fill="none" id="Database-&gt;PharmacyDB" style="stroke: #A80036; stroke-width: 1.0;"/><polygon fill="#A80036" points="727.094,567.886,721.6566,559.6741,722.8783,565.1975,717.355,566.4192,727.094,567.886" style="stroke: #A80036; stroke-width: 1.0;"/><text fill="#000000" font-family="sans-serif" font-size="13" lengthAdjust="spacingAndGlyphs" textLength="53" x="676" y="534.4951">manages</text><text fill="#000000" font-family="sans-serif" font-size="13" lengthAdjust="spacingAndGlyphs" textLength="7" x="501.338" y="494.7761">1</text><text fill="#000000" font-family="sans-serif" font-size="13" lengthAdjust="spacingAndGlyphs" textLength="7" x="711.9562" y="558.658">1</text><!--MD5=[70f68ce34a156c56edce71dba5c758e9]
link Database to ScooterDB--><path d="M511.215,473.723 C532.3,497.425 565.803,535.086 591.529,564.003 " fill="none" id="Database-&gt;ScooterDB" style="stroke: #A80036; stroke-width: 1.0;"/><polygon fill="#A80036" points="594.945,567.844,591.9522,558.4609,591.6219,564.1081,585.9747,563.7778,594.945,567.844" style="stroke: #A80036; stroke-width: 1.0;"/><text fill="#000000" font-family="sans-serif" font-size="13" lengthAdjust="spacingAndGlyphs" textLength="53" x="569" y="534.4951">manages</text><text fill="#000000" font-family="sans-serif" font-size="13" lengthAdjust="spacingAndGlyphs" textLength="7" x="516.6991" y="494.6399">1</text><text fill="#000000" font-family="sans-serif" font-size="13" lengthAdjust="spacingAndGlyphs" textLength="7" x="581.4336" y="557.1781">1</text><!--MD5=[ee7ed70a83e67b7f86b44988d609d45d]
link ScooterService to PharmacyDB--><path d="M294.044,488.081 C288.535,505.285 286.731,524.801 299,538 C330.098,571.457 665.097,555.393 709,568 C713.366,569.254 717.772,570.8 722.133,572.544 " fill="none" id="ScooterService-&gt;PharmacyDB" style="stroke: #A80036; stroke-width: 1.0;"/><polygon fill="#A80036" points="726.845,574.507,720.0753,567.3536,722.2295,572.5842,716.9989,574.7384,726.845,574.507" style="stroke: #A80036; stroke-width: 1.0;"/><text fill="#000000" font-family="sans-serif" font-size="13" lengthAdjust="spacingAndGlyphs" textLength="28" x="300" y="534.4951">uses</text><text fill="#000000" font-family="sans-serif" font-size="13" lengthAdjust="spacingAndGlyphs" textLength="7" x="283.4904" y="509.2646">1</text><text fill="#000000" font-family="sans-serif" font-size="13" lengthAdjust="spacingAndGlyphs" textLength="5" x="714.1591" y="584.7462">*</text><!--MD5=[799b1f05f2692ceb79e345e4105e6b42]
link PharmacyService to ScooterDB--><path d="M183.666,488.149 C202.465,506.029 227.115,526.115 253,538 C327.104,572.025 353.723,553.694 434,568 C475.512,575.398 521.91,584.226 558.92,591.404 " fill="none" id="PharmacyService-&gt;ScooterDB" style="stroke: #A80036; stroke-width: 1.0;"/><polygon fill="#A80036" points="563.847,592.361,555.7742,586.7192,558.9386,591.4082,554.2497,594.5726,563.847,592.361" style="stroke: #A80036; stroke-width: 1.0;"/><text fill="#000000" font-family="sans-serif" font-size="13" lengthAdjust="spacingAndGlyphs" textLength="28" x="254" y="534.4951">uses</text><text fill="#000000" font-family="sans-serif" font-size="13" lengthAdjust="spacingAndGlyphs" textLength="7" x="181.6331" y="509.0533">1</text><text fill="#000000" font-family="sans-serif" font-size="13" lengthAdjust="spacingAndGlyphs" textLength="5" x="551.1402" y="587.3934">*</text><!--MD5=[2ed2b43e7f6d114538396b0b10b28567]
link PharmacyService to Pharmacy--><path d="M100.6597,488.302 C91.422,497.67 82.8287,508.397 77,520 C62.538,548.79 69.0375,658.876 71,668 C95.0943,780.016 110.057,810.012 177,903 C183.427,911.928 199.66,927.439 216.388,942.478 " fill="none" id="PharmacyService-&gt;Pharmacy" style="stroke: #A80036; stroke-width: 1.0;"/><polygon fill="#A80036" points="220.187,945.879,216.148,936.8964,216.4612,942.5446,210.813,942.8578,220.187,945.879" style="stroke: #A80036; stroke-width: 1.0;"/><text fill="#000000" font-family="sans-serif" font-size="13" lengthAdjust="spacingAndGlyphs" textLength="111" x="78" y="690.4951">manage services of</text><text fill="#000000" font-family="sans-serif" font-size="13" lengthAdjust="spacingAndGlyphs" textLength="7" x="85.3977" y="509.2307">1</text><text fill="#000000" font-family="sans-serif" font-size="13" lengthAdjust="spacingAndGlyphs" textLength="5" x="207.5164" y="935.7224">*</text><!--MD5=[a4fc43f4c54bc2b04150642bdfef7d93]
link ScooterService to Scooter--><path d="M271.787,488.115 C259.272,497.583 244.84,506.601 230,512 C215.671,517.214 103.4631,508.908 93,520 C75.8723,538.157 84.7374,553.225 105.1265,565.374 " fill="none" id="ScooterService-&gt;Scooter" style="stroke: #A80036; stroke-width: 1.0;"/><polygon fill="#A80036" points="109.647,567.922,103.7716,560.0176,105.2915,565.4664,99.8427,566.9863,109.647,567.922" style="stroke: #A80036; stroke-width: 1.0;"/><text fill="#000000" font-family="sans-serif" font-size="13" lengthAdjust="spacingAndGlyphs" textLength="111" x="94" y="534.4951">manage services of</text><text fill="#000000" font-family="sans-serif" font-size="13" lengthAdjust="spacingAndGlyphs" textLength="7" x="257.547" y="509.3042">1</text><text fill="#000000" font-family="sans-serif" font-size="13" lengthAdjust="spacingAndGlyphs" textLength="5" x="78.6669" y="557.27">*</text><!--MD5=[51d7b9a785c9fb041ca400474ed1d998]
link Database to Pharmacy--><path d="M491.136,473.767 C490.832,491.457 489.506,516.514 485,538 C449.624,706.684 450.295,760.055 354,903 C341.585,921.429 324.021,938.399 307.7,951.957 " fill="none" id="Database-Pharmacy" style="stroke: #A80036; stroke-width: 1.0;"/><text fill="#000000" font-family="sans-serif" font-size="13" lengthAdjust="spacingAndGlyphs" textLength="82" x="458" y="690.4951">has registered</text><polygon fill="#000000" points="494.5,699.3516,497.5,705.3516,500.5,699.3516,494.5,699.3516" style="stroke: #000000; stroke-width: 1.0;"/><text fill="#000000" font-family="sans-serif" font-size="13" lengthAdjust="spacingAndGlyphs" textLength="7" x="483.3581" y="494.6941">1</text><text fill="#000000" font-family="sans-serif" font-size="13" lengthAdjust="spacingAndGlyphs" textLength="5" x="315.6406" y="942.5563">*</text><!--MD5=[f4a94ba2ad2673d4959409a96e63c979]
link Database to Scooter--><path d="M456.138,473.558 C417.92,498.287 355.997,538.355 310.552,567.761 " fill="none" id="Database-Scooter" style="stroke: #A80036; stroke-width: 1.0;"/><polygon fill="#000000" points="388,527.6758,382,530.6758,388,533.6758,388,527.6758" style="stroke: #000000; stroke-width: 1.0;"/><text fill="#000000" font-family="sans-serif" font-size="13" lengthAdjust="spacingAndGlyphs" textLength="82" x="394" y="534.4951">has registered</text><text fill="#000000" font-family="sans-serif" font-size="13" lengthAdjust="spacingAndGlyphs" textLength="7" x="440.2668" y="494.4367">1</text><text fill="#000000" font-family="sans-serif" font-size="13" lengthAdjust="spacingAndGlyphs" textLength="5" x="315.3581" y="557.0803">*</text><!--MD5=[074a56c4439d52c76e1cc7a8f9d070a4]
link Vehicle to Battery--><path d="M211.872,855.035 C195.739,880.348 177.498,908.97 162.335,932.762 " fill="none" id="Vehicle-Battery" style="stroke: #A80036; stroke-width: 1.0;"/><text fill="#000000" font-family="sans-serif" font-size="13" lengthAdjust="spacingAndGlyphs" textLength="21" x="193" y="899.4951">has</text><polygon fill="#000000" points="199,908.3516,202,914.3516,205,908.3516,199,908.3516" style="stroke: #000000; stroke-width: 1.0;"/><text fill="#000000" font-family="sans-serif" font-size="13" lengthAdjust="spacingAndGlyphs" textLength="7" x="199.9908" y="876.5914">1</text><text fill="#000000" font-family="sans-serif" font-size="13" lengthAdjust="spacingAndGlyphs" textLength="7" x="159.2097" y="922.2303">1</text><!--MD5=[9793812679a856b96e8ba34e2675abcc]
link Vehicle to Pharmacy--><path d="M256.678,855.035 C258.258,882.759 260.065,914.452 261.488,939.422 " fill="none" id="Vehicle-Pharmacy" style="stroke: #A80036; stroke-width: 1.0;"/><text fill="#000000" font-family="sans-serif" font-size="13" lengthAdjust="spacingAndGlyphs" textLength="71" x="261" y="899.4951">belongs to a</text><polygon fill="#000000" points="292,908.3516,295,914.3516,298,908.3516,292,908.3516" style="stroke: #000000; stroke-width: 1.0;"/><text fill="#000000" font-family="sans-serif" font-size="13" lengthAdjust="spacingAndGlyphs" textLength="5" x="251.8068" y="876.5914">*</text><text fill="#000000" font-family="sans-serif" font-size="13" lengthAdjust="spacingAndGlyphs" textLength="7" x="253.5298" y="928.525">1</text><!--MD5=[52f80c2c106e4280525a8160ec8cd0fa]
link Scooter to Vehicle--><path d="M253,644.167 C253,667.087 253,697.112 253,723.838 " fill="none" id="Scooter-Vehicle" style="stroke: #A80036; stroke-width: 1.0;"/><text fill="#000000" font-family="sans-serif" font-size="13" lengthAdjust="spacingAndGlyphs" textLength="64" x="254" y="690.4951">is a type of</text><polygon fill="#000000" points="281.5,699.3516,284.5,705.3516,287.5,699.3516,281.5,699.3516" style="stroke: #000000; stroke-width: 1.0;"/><text fill="#000000" font-family="sans-serif" font-size="13" lengthAdjust="spacingAndGlyphs" textLength="5" x="247.6016" y="665.0741">*</text><text fill="#000000" font-family="sans-serif" font-size="13" lengthAdjust="spacingAndGlyphs" textLength="7" x="245.6172" y="713.2947">1</text><!--MD5=[89baec1bfb4a213750f7c61516e0a0f1]
link Pharmacy to Address--><path d="M271.102,1029.886 C275.042,1054.514 280.038,1085.74 284.519,1113.746 " fill="none" id="Pharmacy-Address" style="stroke: #A80036; stroke-width: 1.0;"/><text fill="#000000" font-family="sans-serif" font-size="13" lengthAdjust="spacingAndGlyphs" textLength="21" x="281" y="1080.4951">has</text><polygon fill="#000000" points="287,1089.3516,290,1095.3516,293,1089.3516,287,1089.3516" style="stroke: #000000; stroke-width: 1.0;"/><text fill="#000000" font-family="sans-serif" font-size="13" lengthAdjust="spacingAndGlyphs" textLength="7" x="264.586" y="1050.6116">1</text><text fill="#000000" font-family="sans-serif" font-size="13" lengthAdjust="spacingAndGlyphs" textLength="7" x="275.9741" y="1102.9391">1</text><!--MD5=[e7daa03d92f0a94af078cf78578db78d]
link Pharmacy to ScooterPark--><path d="M239.144,1029.886 C217.748,1068.093 187.458,1122.182 168.805,1155.49 " fill="none" id="Pharmacy-ScooterPark" style="stroke: #A80036; stroke-width: 1.0;"/><text fill="#000000" font-family="sans-serif" font-size="13" lengthAdjust="spacingAndGlyphs" textLength="21" x="220" y="1080.4951">has</text><polygon fill="#000000" points="226,1089.3516,229,1095.3516,232,1089.3516,226,1089.3516" style="stroke: #000000; stroke-width: 1.0;"/><text fill="#000000" font-family="sans-serif" font-size="13" lengthAdjust="spacingAndGlyphs" textLength="7" x="228.3337" y="1050.6116">1</text><text fill="#000000" font-family="sans-serif" font-size="13" lengthAdjust="spacingAndGlyphs" textLength="7" x="164.7155" y="1144.5081">1</text><!--MD5=[6c03f80bb0eb412de4ede466470bd7f4]
link ScooterPark to ScooterChargingSlot--><path d="M148.091,1217.88 C143.907,1250.393 137.266,1301.993 132.776,1336.888 " fill="none" id="ScooterPark-ScooterChargingSlot" style="stroke: #A80036; stroke-width: 1.0;"/><text fill="#000000" font-family="sans-serif" font-size="13" lengthAdjust="spacingAndGlyphs" textLength="21" x="140" y="1303.4951">has</text><polygon fill="#000000" points="146,1312.3516,149,1318.3516,152,1312.3516,146,1312.3516" style="stroke: #000000; stroke-width: 1.0;"/><text fill="#000000" font-family="sans-serif" font-size="13" lengthAdjust="spacingAndGlyphs" textLength="7" x="139.6787" y="1238.9311">1</text><text fill="#000000" font-family="sans-serif" font-size="13" lengthAdjust="spacingAndGlyphs" textLength="7" x="126.0033" y="1326.23">1</text><!--MD5=[8b5c72ddee54db66c8e770f45750c925]
link ScooterPark to ScooterParkingSlot--><path d="M176.923,1217.88 C205.459,1252.664 251.917,1309.294 280.342,1343.943 " fill="none" id="ScooterPark-ScooterParkingSlot" style="stroke: #A80036; stroke-width: 1.0;"/><text fill="#000000" font-family="sans-serif" font-size="13" lengthAdjust="spacingAndGlyphs" textLength="21" x="248" y="1303.4951">has</text><polygon fill="#000000" points="254,1312.3516,257,1318.3516,260,1312.3516,254,1312.3516" style="stroke: #000000; stroke-width: 1.0;"/><text fill="#000000" font-family="sans-serif" font-size="13" lengthAdjust="spacingAndGlyphs" textLength="7" x="174.0068" y="1238.9311">1</text><text fill="#000000" font-family="sans-serif" font-size="13" lengthAdjust="spacingAndGlyphs" textLength="7" x="267.1824" y="1332.9508">1</text><!--MD5=[429cff5163635dfdf7157b15481f3ce0]
@startuml
skinparam classAttributeIconSize 0

database Database {
}

package "UI" #DDDDDD {
class RegisterScooterUI{
}
}

package "Controller" #DDDDDD {
class RegisterScooterController{
+getPharmacies()
+newScooter(batteryPerc, chargingStatus, potency, weight, batteryCapacity, maxPayload, pharmacy)
+registerScooter(scoot)
}
}


package "Model" #DDDDDD {
 package "Service" #DDDDDD {
  class PharmacyService{
      +PharmacyService()
      +getPharmacies()
  }

  class ScooterService{
      +ScooterService()
      +registerScooter(scoot)
   }
}

package "Model" #DDDDDD {
class ScooterPark{
-   int maxSlotsNumber
}

class ScooterChargingSlot{
-   int id
-   float outputPower
}

class ScooterParkingSlot{
-   int id
}

class Scooter{
+Scooter(batteryPerc, charginStatus, potency,\n weight, batteryCapacity, maxPayload, batteryVoltage, pharmacy)

}

class Vehicle{
  -int id
  -String vehicleType
  -float potency
  -float weight
  -float maxPayload
  -String charngingStatus
}

class Battery{
  -int id
  -float batteryPerc
  -int batteryCapacity
  -float batteryVoltage
}


class Address{
  -double longitude
  -double latitude
  -String doorNumber
  -String streetName
  -String postalCode
  -String locality
  -String country
}

class Pharmacy {
  -int id
  -String name
-   String email
}
}


package "Data" #DDDDDD {
class DataHandler{
    +openConnection()
    +closeAll()
}
class PharmacyDB{
     +PharmacyDB()
     +getPharmacies()
 }

 class ScooterDB{
     +ScooterDB()
     +registerScooter(scoot)
  }
}

class PharmacyDB extends DataHandler
class ScooterDB extends DataHandler

RegisterScooterUI ..> RegisterScooterController
RegisterScooterController ..> PharmacyService
RegisterScooterController ..> ScooterService
Database "1" - -> "1" PharmacyDB : manages
Database "1" - -> "1" ScooterDB : manages
ScooterService "1" - -> "*" PharmacyDB : uses
PharmacyService "1" - -> "*" ScooterDB : uses
PharmacyService "1" - -> "*" Pharmacy : manage services of
ScooterService "1" - -> "*" Scooter : manage services of

Database "1" - - "*" Pharmacy : has registered >
Database "1" - - "*" Scooter : has registered >

Vehicle "1" - - "1" Battery : has >
Vehicle "*" - - "1" Pharmacy : belongs to a >
Scooter "*" - - "1" Vehicle : is a type of >
Pharmacy "1" - - "1" Address : has >
Pharmacy "1" - - "1" ScooterPark : has >
ScooterPark "1" - - "1" ScooterChargingSlot : has >
ScooterPark "1" - - "1" ScooterParkingSlot : has >

@enduml

PlantUML version 1.2020.09(Sun May 10 11:51:06 BST 2020)
(GPL source distribution)
Java Runtime: OpenJDK Runtime Environment
JVM: OpenJDK 64-Bit Server VM
Java Version: 11.0.6+8-b765.40
Operating System: Windows 10
Default Encoding: Cp1252
Language: pt
Country: PT
--></g></svg>