<?xml version="1.0" encoding="UTF-8" standalone="no"?><svg xmlns="http://www.w3.org/2000/svg" xmlns:xlink="http://www.w3.org/1999/xlink" contentScriptType="application/ecmascript" contentStyleType="text/css" height="1260px" preserveAspectRatio="none" style="width:1104px;height:1260px;" version="1.1" viewBox="0 0 1104 1260" width="1104px" zoomAndPan="magnify"><defs><filter height="300%" id="f32ja8qtq27cp" width="300%" x="-1" y="-1"><feGaussianBlur result="blurOut" stdDeviation="2.0"/><feColorMatrix in="blurOut" result="blurOut2" type="matrix" values="0 0 0 0 0 0 0 0 0 0 0 0 0 0 0 0 0 0 .4 0"/><feOffset dx="4.0" dy="4.0" in="blurOut2" result="blurOut3"/><feBlend in="SourceGraphic" in2="blurOut3" mode="normal"/></filter></defs><g><!--MD5=[9681dc6e01e10c6b4fe06895ae94f592]
cluster UI--><polygon fill="#DDDDDD" filter="url(#f32ja8qtq27cp)" points="268,24,288,24,295,47.6094,424,47.6094,424,124,268,124,268,24" style="stroke: #000000; stroke-width: 1.5;"/><line style="stroke: #000000; stroke-width: 1.5;" x1="268" x2="295" y1="47.6094" y2="47.6094"/><text fill="#000000" font-family="sans-serif" font-size="14" font-weight="bold" lengthAdjust="spacingAndGlyphs" textLength="14" x="272" y="40.5332">UI</text><!--MD5=[1f2cfc53d9d308f53762fd0fcbaa4873]
cluster Controller--><polygon fill="#DDDDDD" filter="url(#f32ja8qtq27cp)" points="247,157,324,157,331,180.6094,445,180.6094,445,299,247,299,247,157" style="stroke: #000000; stroke-width: 1.5;"/><line style="stroke: #000000; stroke-width: 1.5;" x1="247" x2="331" y1="180.6094" y2="180.6094"/><text fill="#000000" font-family="sans-serif" font-size="14" font-weight="bold" lengthAdjust="spacingAndGlyphs" textLength="71" x="251" y="173.5332">Controller</text><!--MD5=[15636c1ca4a123c16a2a1a8e90aca7a9]
cluster Model--><polygon fill="#DDDDDD" filter="url(#f32ja8qtq27cp)" points="22,332,72,332,79,355.6094,575,355.6094,575,1248,22,1248,22,332" style="stroke: #000000; stroke-width: 1.5;"/><line style="stroke: #000000; stroke-width: 1.5;" x1="22" x2="79" y1="355.6094" y2="355.6094"/><text fill="#000000" font-family="sans-serif" font-size="14" font-weight="bold" lengthAdjust="spacingAndGlyphs" textLength="44" x="26" y="348.5332">Model</text><!--MD5=[9dd75fd92da113d30380b27734fd2f01]
cluster Service--><polygon fill="#DDDDDD" filter="url(#f32ja8qtq27cp)" points="216,376,276,376,283,399.6094,538,399.6094,538,518,216,518,216,376" style="stroke: #000000; stroke-width: 1.5;"/><line style="stroke: #000000; stroke-width: 1.5;" x1="216" x2="283" y1="399.6094" y2="399.6094"/><text fill="#000000" font-family="sans-serif" font-size="14" font-weight="bold" lengthAdjust="spacingAndGlyphs" textLength="54" x="220" y="392.5332">Service</text><!--MD5=[f21b1f164e99c6b37934f23ad048ad54]
cluster Data--><polygon fill="#DDDDDD" filter="url(#f32ja8qtq27cp)" points="745,383,782,383,789,406.6094,1082,406.6094,1082,688,745,688,745,383" style="stroke: #000000; stroke-width: 1.5;"/><line style="stroke: #000000; stroke-width: 1.5;" x1="745" x2="789" y1="406.6094" y2="406.6094"/><text fill="#000000" font-family="sans-serif" font-size="14" font-weight="bold" lengthAdjust="spacingAndGlyphs" textLength="31" x="749" y="399.5332">Data</text><!--MD5=[fa1e3283224feb76407c84b7e90ed808]
entity Database--><path d="M619.5,443.5 C619.5,433.5 660,433.5 660,433.5 C660,433.5 700.5,433.5 700.5,443.5 L700.5,470.1094 C700.5,480.1094 660,480.1094 660,480.1094 C660,480.1094 619.5,480.1094 619.5,470.1094 L619.5,443.5 " fill="#FFFFFF" filter="url(#f32ja8qtq27cp)" style="stroke: #000000; stroke-width: 1.5;"/><path d="M619.5,443.5 C619.5,453.5 660,453.5 660,453.5 C660,453.5 700.5,453.5 700.5,443.5 " fill="none" style="stroke: #000000; stroke-width: 1.5;"/><text fill="#000000" font-family="sans-serif" font-size="14" lengthAdjust="spacingAndGlyphs" textLength="61" x="629.5" y="472.0332">Database</text><!--MD5=[0773e5207e403cf808ebcb9c2141950b]
class RemoveDroneUI--><rect fill="#FEFECE" filter="url(#f32ja8qtq27cp)" height="48" id="RemoveDroneUI" style="stroke: #A80036; stroke-width: 1.5;" width="124" x="284" y="60"/><ellipse cx="299" cy="76" fill="#ADD1B2" rx="11" ry="11" style="stroke: #A80036; stroke-width: 1.0;"/><path d="M301,72.5 Q301.2031,72 301.4375,71.75 Q301.6719,71.5 301.9375,71.5 Q302.4063,71.5 302.7031,71.7813 Q303,72.0625 303,72.7188 L303,74.2813 Q303,74.9375 302.7188,75.2188 Q302.4375,75.5 302,75.5 Q301.6094,75.5 301.3594,75.3281 Q301.1094,75.1563 301,74.7031 Q300.9531,74.3906 300.7813,74.2188 Q300.4688,73.8906 299.9063,73.7031 Q299.3438,73.5 298.7813,73.5 Q298.0781,73.5 297.4844,73.7813 Q296.9063,74.0625 296.4531,74.6875 Q296,75.3125 296,76.1719 L296,77.0938 Q296,78.125 296.8438,78.8125 Q297.6875,79.5 299.1875,79.5 Q300.0781,79.5 300.7031,79.2969 Q301.0625,79.1875 301.4688,78.8281 Q301.7344,78.625 301.875,78.5625 Q302.0156,78.5 302.1875,78.5 Q302.5156,78.5 302.75,78.7656 Q303,79.0156 303,79.375 Q303,79.7188 302.6563,80.125 Q302.1563,80.7188 301.3594,81.0469 Q300.3125,81.5 299.0313,81.5 Q297.5313,81.5 296.3281,80.9063 Q295.3594,80.4375 294.6719,79.4219 Q294,78.4063 294,77.2031 L294,76.1094 Q294,74.8594 294.5938,73.7656 Q295.2031,72.6719 296.25,72.0938 Q297.3125,71.5 298.5,71.5 Q299.2188,71.5 299.8438,71.75 Q300.4688,72 301,72.5 Z "/><text fill="#000000" font-family="sans-serif" font-size="12" lengthAdjust="spacingAndGlyphs" textLength="92" x="313" y="80.9102">RemoveDroneUI</text><line style="stroke: #A80036; stroke-width: 1.5;" x1="285" x2="407" y1="92" y2="92"/><line style="stroke: #A80036; stroke-width: 1.5;" x1="285" x2="407" y1="100" y2="100"/><!--MD5=[2f1b7d3b2802cc4c49ec6c586f1a6cfb]
class RemoveDroneController--><rect fill="#FEFECE" filter="url(#f32ja8qtq27cp)" height="89.5078" id="RemoveDroneController" style="stroke: #A80036; stroke-width: 1.5;" width="166" x="263" y="193"/><ellipse cx="278" cy="209" fill="#ADD1B2" rx="11" ry="11" style="stroke: #A80036; stroke-width: 1.0;"/><path d="M280,205.5 Q280.2031,205 280.4375,204.75 Q280.6719,204.5 280.9375,204.5 Q281.4063,204.5 281.7031,204.7813 Q282,205.0625 282,205.7188 L282,207.2813 Q282,207.9375 281.7188,208.2188 Q281.4375,208.5 281,208.5 Q280.6094,208.5 280.3594,208.3281 Q280.1094,208.1563 280,207.7031 Q279.9531,207.3906 279.7813,207.2188 Q279.4688,206.8906 278.9063,206.7031 Q278.3438,206.5 277.7813,206.5 Q277.0781,206.5 276.4844,206.7813 Q275.9063,207.0625 275.4531,207.6875 Q275,208.3125 275,209.1719 L275,210.0938 Q275,211.125 275.8438,211.8125 Q276.6875,212.5 278.1875,212.5 Q279.0781,212.5 279.7031,212.2969 Q280.0625,212.1875 280.4688,211.8281 Q280.7344,211.625 280.875,211.5625 Q281.0156,211.5 281.1875,211.5 Q281.5156,211.5 281.75,211.7656 Q282,212.0156 282,212.375 Q282,212.7188 281.6563,213.125 Q281.1563,213.7188 280.3594,214.0469 Q279.3125,214.5 278.0313,214.5 Q276.5313,214.5 275.3281,213.9063 Q274.3594,213.4375 273.6719,212.4219 Q273,211.4063 273,210.2031 L273,209.1094 Q273,207.8594 273.5938,206.7656 Q274.2031,205.6719 275.25,205.0938 Q276.3125,204.5 277.5,204.5 Q278.2188,204.5 278.8438,204.75 Q279.4688,205 280,205.5 Z "/><text fill="#000000" font-family="sans-serif" font-size="12" lengthAdjust="spacingAndGlyphs" textLength="134" x="292" y="213.9102">RemoveDroneController</text><line style="stroke: #A80036; stroke-width: 1.5;" x1="264" x2="428" y1="225" y2="225"/><line style="stroke: #A80036; stroke-width: 1.5;" x1="264" x2="428" y1="233" y2="233"/><text fill="#000000" font-family="sans-serif" font-size="11" lengthAdjust="spacingAndGlyphs" textLength="98" x="269" y="248.4189">+showPharmacies()</text><text fill="#000000" font-family="sans-serif" font-size="11" lengthAdjust="spacingAndGlyphs" textLength="144" x="269" y="262.2549">+showDroneList(pharmacyId)</text><text fill="#000000" font-family="sans-serif" font-size="11" lengthAdjust="spacingAndGlyphs" textLength="115" x="269" y="276.0908">+removeDrone(droneId)</text><!--MD5=[b024fca8ac3dd8106de85a4004acf2e0]
class DronePark--><rect fill="#FEFECE" filter="url(#f32ja8qtq27cp)" height="61.8359" id="DronePark" style="stroke: #A80036; stroke-width: 1.5;" width="111" x="301.5" y="974.5"/><ellipse cx="325.5" cy="990.5" fill="#ADD1B2" rx="11" ry="11" style="stroke: #A80036; stroke-width: 1.0;"/><path d="M327.5,987 Q327.7031,986.5 327.9375,986.25 Q328.1719,986 328.4375,986 Q328.9063,986 329.2031,986.2813 Q329.5,986.5625 329.5,987.2188 L329.5,988.7813 Q329.5,989.4375 329.2188,989.7188 Q328.9375,990 328.5,990 Q328.1094,990 327.8594,989.8281 Q327.6094,989.6563 327.5,989.2031 Q327.4531,988.8906 327.2813,988.7188 Q326.9688,988.3906 326.4063,988.2031 Q325.8438,988 325.2813,988 Q324.5781,988 323.9844,988.2813 Q323.4063,988.5625 322.9531,989.1875 Q322.5,989.8125 322.5,990.6719 L322.5,991.5938 Q322.5,992.625 323.3438,993.3125 Q324.1875,994 325.6875,994 Q326.5781,994 327.2031,993.7969 Q327.5625,993.6875 327.9688,993.3281 Q328.2344,993.125 328.375,993.0625 Q328.5156,993 328.6875,993 Q329.0156,993 329.25,993.2656 Q329.5,993.5156 329.5,993.875 Q329.5,994.2188 329.1563,994.625 Q328.6563,995.2188 327.8594,995.5469 Q326.8125,996 325.5313,996 Q324.0313,996 322.8281,995.4063 Q321.8594,994.9375 321.1719,993.9219 Q320.5,992.9063 320.5,991.7031 L320.5,990.6094 Q320.5,989.3594 321.0938,988.2656 Q321.7031,987.1719 322.75,986.5938 Q323.8125,986 325,986 Q325.7188,986 326.3438,986.25 Q326.9688,986.5 327.5,987 Z "/><text fill="#000000" font-family="sans-serif" font-size="12" lengthAdjust="spacingAndGlyphs" textLength="59" x="341.5" y="995.4102">DronePark</text><line style="stroke: #A80036; stroke-width: 1.5;" x1="302.5" x2="411.5" y1="1006.5" y2="1006.5"/><text fill="#000000" font-family="sans-serif" font-size="11" lengthAdjust="spacingAndGlyphs" textLength="99" x="307.5" y="1021.9189">-int maxSlotsNumber</text><line style="stroke: #A80036; stroke-width: 1.5;" x1="302.5" x2="411.5" y1="1028.3359" y2="1028.3359"/><!--MD5=[fbe13b0c274c50d99f674380efb6c2c4]
class DroneChargingSlot--><rect fill="#FEFECE" filter="url(#f32ja8qtq27cp)" height="75.6719" id="DroneChargingSlot" style="stroke: #A80036; stroke-width: 1.5;" width="138" x="210" y="1156"/><ellipse cx="225" cy="1172" fill="#ADD1B2" rx="11" ry="11" style="stroke: #A80036; stroke-width: 1.0;"/><path d="M227,1168.5 Q227.2031,1168 227.4375,1167.75 Q227.6719,1167.5 227.9375,1167.5 Q228.4063,1167.5 228.7031,1167.7813 Q229,1168.0625 229,1168.7188 L229,1170.2813 Q229,1170.9375 228.7188,1171.2188 Q228.4375,1171.5 228,1171.5 Q227.6094,1171.5 227.3594,1171.3281 Q227.1094,1171.1563 227,1170.7031 Q226.9531,1170.3906 226.7813,1170.2188 Q226.4688,1169.8906 225.9063,1169.7031 Q225.3438,1169.5 224.7813,1169.5 Q224.0781,1169.5 223.4844,1169.7813 Q222.9063,1170.0625 222.4531,1170.6875 Q222,1171.3125 222,1172.1719 L222,1173.0938 Q222,1174.125 222.8438,1174.8125 Q223.6875,1175.5 225.1875,1175.5 Q226.0781,1175.5 226.7031,1175.2969 Q227.0625,1175.1875 227.4688,1174.8281 Q227.7344,1174.625 227.875,1174.5625 Q228.0156,1174.5 228.1875,1174.5 Q228.5156,1174.5 228.75,1174.7656 Q229,1175.0156 229,1175.375 Q229,1175.7188 228.6563,1176.125 Q228.1563,1176.7188 227.3594,1177.0469 Q226.3125,1177.5 225.0313,1177.5 Q223.5313,1177.5 222.3281,1176.9063 Q221.3594,1176.4375 220.6719,1175.4219 Q220,1174.4063 220,1173.2031 L220,1172.1094 Q220,1170.8594 220.5938,1169.7656 Q221.2031,1168.6719 222.25,1168.0938 Q223.3125,1167.5 224.5,1167.5 Q225.2188,1167.5 225.8438,1167.75 Q226.4688,1168 227,1168.5 Z "/><text fill="#000000" font-family="sans-serif" font-size="12" lengthAdjust="spacingAndGlyphs" textLength="106" x="239" y="1176.9102">DroneChargingSlot</text><line style="stroke: #A80036; stroke-width: 1.5;" x1="211" x2="347" y1="1188" y2="1188"/><text fill="#000000" font-family="sans-serif" font-size="11" lengthAdjust="spacingAndGlyphs" textLength="26" x="216" y="1203.4189">-int id</text><text fill="#000000" font-family="sans-serif" font-size="11" lengthAdjust="spacingAndGlyphs" textLength="90" x="216" y="1217.2549">-float outputPower</text><line style="stroke: #A80036; stroke-width: 1.5;" x1="211" x2="347" y1="1223.6719" y2="1223.6719"/><!--MD5=[9b53198e8727c85f4d6d8ebbe9b70e18]
class DroneParkingSlot--><rect fill="#FEFECE" filter="url(#f32ja8qtq27cp)" height="61.8359" id="DroneParkingSlot" style="stroke: #A80036; stroke-width: 1.5;" width="129" x="383.5" y="1163"/><ellipse cx="398.5" cy="1179" fill="#ADD1B2" rx="11" ry="11" style="stroke: #A80036; stroke-width: 1.0;"/><path d="M400.5,1175.5 Q400.7031,1175 400.9375,1174.75 Q401.1719,1174.5 401.4375,1174.5 Q401.9063,1174.5 402.2031,1174.7813 Q402.5,1175.0625 402.5,1175.7188 L402.5,1177.2813 Q402.5,1177.9375 402.2188,1178.2188 Q401.9375,1178.5 401.5,1178.5 Q401.1094,1178.5 400.8594,1178.3281 Q400.6094,1178.1563 400.5,1177.7031 Q400.4531,1177.3906 400.2813,1177.2188 Q399.9688,1176.8906 399.4063,1176.7031 Q398.8438,1176.5 398.2813,1176.5 Q397.5781,1176.5 396.9844,1176.7813 Q396.4063,1177.0625 395.9531,1177.6875 Q395.5,1178.3125 395.5,1179.1719 L395.5,1180.0938 Q395.5,1181.125 396.3438,1181.8125 Q397.1875,1182.5 398.6875,1182.5 Q399.5781,1182.5 400.2031,1182.2969 Q400.5625,1182.1875 400.9688,1181.8281 Q401.2344,1181.625 401.375,1181.5625 Q401.5156,1181.5 401.6875,1181.5 Q402.0156,1181.5 402.25,1181.7656 Q402.5,1182.0156 402.5,1182.375 Q402.5,1182.7188 402.1563,1183.125 Q401.6563,1183.7188 400.8594,1184.0469 Q399.8125,1184.5 398.5313,1184.5 Q397.0313,1184.5 395.8281,1183.9063 Q394.8594,1183.4375 394.1719,1182.4219 Q393.5,1181.4063 393.5,1180.2031 L393.5,1179.1094 Q393.5,1177.8594 394.0938,1176.7656 Q394.7031,1175.6719 395.75,1175.0938 Q396.8125,1174.5 398,1174.5 Q398.7188,1174.5 399.3438,1174.75 Q399.9688,1175 400.5,1175.5 Z "/><text fill="#000000" font-family="sans-serif" font-size="12" lengthAdjust="spacingAndGlyphs" textLength="97" x="412.5" y="1183.9102">DroneParkingSlot</text><line style="stroke: #A80036; stroke-width: 1.5;" x1="384.5" x2="511.5" y1="1195" y2="1195"/><text fill="#000000" font-family="sans-serif" font-size="11" lengthAdjust="spacingAndGlyphs" textLength="26" x="389.5" y="1210.4189">-int id</text><line style="stroke: #A80036; stroke-width: 1.5;" x1="384.5" x2="511.5" y1="1216.8359" y2="1216.8359"/><!--MD5=[2e3f1e60e74253ff42e47f8bfdb04ee2]
class Drone--><rect fill="#FEFECE" filter="url(#f32ja8qtq27cp)" height="75.6719" id="Drone" style="stroke: #A80036; stroke-width: 1.5;" width="337" x="38.5" y="589"/><ellipse cx="185.75" cy="605" fill="#ADD1B2" rx="11" ry="11" style="stroke: #A80036; stroke-width: 1.0;"/><path d="M187.75,601.5 Q187.9531,601 188.1875,600.75 Q188.4219,600.5 188.6875,600.5 Q189.1563,600.5 189.4531,600.7813 Q189.75,601.0625 189.75,601.7188 L189.75,603.2813 Q189.75,603.9375 189.4688,604.2188 Q189.1875,604.5 188.75,604.5 Q188.3594,604.5 188.1094,604.3281 Q187.8594,604.1563 187.75,603.7031 Q187.7031,603.3906 187.5313,603.2188 Q187.2188,602.8906 186.6563,602.7031 Q186.0938,602.5 185.5313,602.5 Q184.8281,602.5 184.2344,602.7813 Q183.6563,603.0625 183.2031,603.6875 Q182.75,604.3125 182.75,605.1719 L182.75,606.0938 Q182.75,607.125 183.5938,607.8125 Q184.4375,608.5 185.9375,608.5 Q186.8281,608.5 187.4531,608.2969 Q187.8125,608.1875 188.2188,607.8281 Q188.4844,607.625 188.625,607.5625 Q188.7656,607.5 188.9375,607.5 Q189.2656,607.5 189.5,607.7656 Q189.75,608.0156 189.75,608.375 Q189.75,608.7188 189.4063,609.125 Q188.9063,609.7188 188.1094,610.0469 Q187.0625,610.5 185.7813,610.5 Q184.2813,610.5 183.0781,609.9063 Q182.1094,609.4375 181.4219,608.4219 Q180.75,607.4063 180.75,606.2031 L180.75,605.1094 Q180.75,603.8594 181.3438,602.7656 Q181.9531,601.6719 183,601.0938 Q184.0625,600.5 185.25,600.5 Q185.9688,600.5 186.5938,600.75 Q187.2188,601 187.75,601.5 Z "/><text fill="#000000" font-family="sans-serif" font-size="12" lengthAdjust="spacingAndGlyphs" textLength="34" x="206.25" y="609.9102">Drone</text><line style="stroke: #A80036; stroke-width: 1.5;" x1="39.5" x2="374.5" y1="621" y2="621"/><line style="stroke: #A80036; stroke-width: 1.5;" x1="39.5" x2="374.5" y1="629" y2="629"/><text fill="#000000" font-family="sans-serif" font-size="11" lengthAdjust="spacingAndGlyphs" textLength="216" x="44.5" y="644.4189">+Drone(batteryPerc, charginStatus, potency,</text><text fill="#000000" font-family="sans-serif" font-size="11" lengthAdjust="spacingAndGlyphs" textLength="322" x="47.5" y="658.2549">weight, batteryCapacity, maxPayload, batteryVoltage, pharmacyId)</text><!--MD5=[3aa0d89c6bfdcbf7f32042cedac57549]
class Vehicle--><rect fill="#FEFECE" filter="url(#f32ja8qtq27cp)" height="103.3438" id="Vehicle" style="stroke: #A80036; stroke-width: 1.5;" width="98" x="158" y="752"/><ellipse cx="184.7" cy="768" fill="#ADD1B2" rx="11" ry="11" style="stroke: #A80036; stroke-width: 1.0;"/><path d="M186.7,764.5 Q186.9031,764 187.1375,763.75 Q187.3719,763.5 187.6375,763.5 Q188.1063,763.5 188.4031,763.7813 Q188.7,764.0625 188.7,764.7188 L188.7,766.2813 Q188.7,766.9375 188.4188,767.2188 Q188.1375,767.5 187.7,767.5 Q187.3094,767.5 187.0594,767.3281 Q186.8094,767.1563 186.7,766.7031 Q186.6531,766.3906 186.4813,766.2188 Q186.1688,765.8906 185.6063,765.7031 Q185.0438,765.5 184.4813,765.5 Q183.7781,765.5 183.1844,765.7813 Q182.6063,766.0625 182.1531,766.6875 Q181.7,767.3125 181.7,768.1719 L181.7,769.0938 Q181.7,770.125 182.5438,770.8125 Q183.3875,771.5 184.8875,771.5 Q185.7781,771.5 186.4031,771.2969 Q186.7625,771.1875 187.1688,770.8281 Q187.4344,770.625 187.575,770.5625 Q187.7156,770.5 187.8875,770.5 Q188.2156,770.5 188.45,770.7656 Q188.7,771.0156 188.7,771.375 Q188.7,771.7188 188.3563,772.125 Q187.8563,772.7188 187.0594,773.0469 Q186.0125,773.5 184.7313,773.5 Q183.2313,773.5 182.0281,772.9063 Q181.0594,772.4375 180.3719,771.4219 Q179.7,770.4063 179.7,769.2031 L179.7,768.1094 Q179.7,766.8594 180.2938,765.7656 Q180.9031,764.6719 181.95,764.0938 Q183.0125,763.5 184.2,763.5 Q184.9188,763.5 185.5438,763.75 Q186.1688,764 186.7,764.5 Z "/><text fill="#000000" font-family="sans-serif" font-size="12" lengthAdjust="spacingAndGlyphs" textLength="40" x="201.3" y="772.9102">Vehicle</text><line style="stroke: #A80036; stroke-width: 1.5;" x1="159" x2="255" y1="784" y2="784"/><text fill="#000000" font-family="sans-serif" font-size="11" lengthAdjust="spacingAndGlyphs" textLength="26" x="164" y="799.4189">-int id</text><text fill="#000000" font-family="sans-serif" font-size="11" lengthAdjust="spacingAndGlyphs" textLength="67" x="164" y="813.2549">-float potency</text><text fill="#000000" font-family="sans-serif" font-size="11" lengthAdjust="spacingAndGlyphs" textLength="61" x="164" y="827.0908">-float weight</text><text fill="#000000" font-family="sans-serif" font-size="11" lengthAdjust="spacingAndGlyphs" textLength="86" x="164" y="840.9268">-float maxPayload</text><line style="stroke: #A80036; stroke-width: 1.5;" x1="159" x2="255" y1="847.3438" y2="847.3438"/><!--MD5=[79eb2d862cef9730b5f9dcab29e35f17]
class Battery--><rect fill="#FEFECE" filter="url(#f32ja8qtq27cp)" height="103.3438" id="Battery" style="stroke: #A80036; stroke-width: 1.5;" width="111" x="151.5" y="954"/><ellipse cx="185.4" cy="970" fill="#ADD1B2" rx="11" ry="11" style="stroke: #A80036; stroke-width: 1.0;"/><path d="M187.4,966.5 Q187.6031,966 187.8375,965.75 Q188.0719,965.5 188.3375,965.5 Q188.8063,965.5 189.1031,965.7813 Q189.4,966.0625 189.4,966.7188 L189.4,968.2813 Q189.4,968.9375 189.1188,969.2188 Q188.8375,969.5 188.4,969.5 Q188.0094,969.5 187.7594,969.3281 Q187.5094,969.1563 187.4,968.7031 Q187.3531,968.3906 187.1813,968.2188 Q186.8688,967.8906 186.3063,967.7031 Q185.7438,967.5 185.1813,967.5 Q184.4781,967.5 183.8844,967.7813 Q183.3063,968.0625 182.8531,968.6875 Q182.4,969.3125 182.4,970.1719 L182.4,971.0938 Q182.4,972.125 183.2438,972.8125 Q184.0875,973.5 185.5875,973.5 Q186.4781,973.5 187.1031,973.2969 Q187.4625,973.1875 187.8688,972.8281 Q188.1344,972.625 188.275,972.5625 Q188.4156,972.5 188.5875,972.5 Q188.9156,972.5 189.15,972.7656 Q189.4,973.0156 189.4,973.375 Q189.4,973.7188 189.0563,974.125 Q188.5563,974.7188 187.7594,975.0469 Q186.7125,975.5 185.4313,975.5 Q183.9313,975.5 182.7281,974.9063 Q181.7594,974.4375 181.0719,973.4219 Q180.4,972.4063 180.4,971.2031 L180.4,970.1094 Q180.4,968.8594 180.9938,967.7656 Q181.6031,966.6719 182.65,966.0938 Q183.7125,965.5 184.9,965.5 Q185.6188,965.5 186.2438,965.75 Q186.8688,966 187.4,966.5 Z "/><text fill="#000000" font-family="sans-serif" font-size="12" lengthAdjust="spacingAndGlyphs" textLength="37" x="203.6" y="974.9102">Battery</text><line style="stroke: #A80036; stroke-width: 1.5;" x1="152.5" x2="261.5" y1="986" y2="986"/><text fill="#000000" font-family="sans-serif" font-size="11" lengthAdjust="spacingAndGlyphs" textLength="26" x="157.5" y="1001.4189">-int id</text><text fill="#000000" font-family="sans-serif" font-size="11" lengthAdjust="spacingAndGlyphs" textLength="84" x="157.5" y="1015.2549">-float batteryPerc</text><text fill="#000000" font-family="sans-serif" font-size="11" lengthAdjust="spacingAndGlyphs" textLength="94" x="157.5" y="1029.0908">-int batteryCapacity</text><text fill="#000000" font-family="sans-serif" font-size="11" lengthAdjust="spacingAndGlyphs" textLength="99" x="157.5" y="1042.9268">-float batteryVoltage</text><line style="stroke: #A80036; stroke-width: 1.5;" x1="152.5" x2="261.5" y1="1049.3438" y2="1049.3438"/><!--MD5=[0f39e4cb6f03951afbf6d14bd2505654]
class Address--><rect fill="#FEFECE" filter="url(#f32ja8qtq27cp)" height="144.8516" id="Address" style="stroke: #A80036; stroke-width: 1.5;" width="106" x="448" y="933"/><ellipse cx="475.6" cy="949" fill="#ADD1B2" rx="11" ry="11" style="stroke: #A80036; stroke-width: 1.0;"/><path d="M477.6,945.5 Q477.8031,945 478.0375,944.75 Q478.2719,944.5 478.5375,944.5 Q479.0063,944.5 479.3031,944.7813 Q479.6,945.0625 479.6,945.7188 L479.6,947.2813 Q479.6,947.9375 479.3188,948.2188 Q479.0375,948.5 478.6,948.5 Q478.2094,948.5 477.9594,948.3281 Q477.7094,948.1563 477.6,947.7031 Q477.5531,947.3906 477.3813,947.2188 Q477.0688,946.8906 476.5063,946.7031 Q475.9438,946.5 475.3813,946.5 Q474.6781,946.5 474.0844,946.7813 Q473.5063,947.0625 473.0531,947.6875 Q472.6,948.3125 472.6,949.1719 L472.6,950.0938 Q472.6,951.125 473.4438,951.8125 Q474.2875,952.5 475.7875,952.5 Q476.6781,952.5 477.3031,952.2969 Q477.6625,952.1875 478.0688,951.8281 Q478.3344,951.625 478.475,951.5625 Q478.6156,951.5 478.7875,951.5 Q479.1156,951.5 479.35,951.7656 Q479.6,952.0156 479.6,952.375 Q479.6,952.7188 479.2563,953.125 Q478.7563,953.7188 477.9594,954.0469 Q476.9125,954.5 475.6313,954.5 Q474.1313,954.5 472.9281,953.9063 Q471.9594,953.4375 471.2719,952.4219 Q470.6,951.4063 470.6,950.2031 L470.6,949.1094 Q470.6,947.8594 471.1938,946.7656 Q471.8031,945.6719 472.85,945.0938 Q473.9125,944.5 475.1,944.5 Q475.8188,944.5 476.4438,944.75 Q477.0688,945 477.6,945.5 Z "/><text fill="#000000" font-family="sans-serif" font-size="12" lengthAdjust="spacingAndGlyphs" textLength="46" x="492.4" y="953.9102">Address</text><line style="stroke: #A80036; stroke-width: 1.5;" x1="449" x2="553" y1="965" y2="965"/><text fill="#000000" font-family="sans-serif" font-size="11" lengthAdjust="spacingAndGlyphs" textLength="82" x="454" y="980.4189">-double longitude</text><text fill="#000000" font-family="sans-serif" font-size="11" lengthAdjust="spacingAndGlyphs" textLength="73" x="454" y="994.2549">-double latitude</text><text fill="#000000" font-family="sans-serif" font-size="11" lengthAdjust="spacingAndGlyphs" textLength="94" x="454" y="1008.0908">-String doorNumber</text><text fill="#000000" font-family="sans-serif" font-size="11" lengthAdjust="spacingAndGlyphs" textLength="90" x="454" y="1021.9268">-String streetName</text><text fill="#000000" font-family="sans-serif" font-size="11" lengthAdjust="spacingAndGlyphs" textLength="89" x="454" y="1035.7627">-String postalCode</text><text fill="#000000" font-family="sans-serif" font-size="11" lengthAdjust="spacingAndGlyphs" textLength="68" x="454" y="1049.5986">-String locality</text><text fill="#000000" font-family="sans-serif" font-size="11" lengthAdjust="spacingAndGlyphs" textLength="72" x="454" y="1063.4346">-String country</text><line style="stroke: #A80036; stroke-width: 1.5;" x1="449" x2="553" y1="1069.8516" y2="1069.8516"/><!--MD5=[7f2a9fafcebe4f099f71398fd3e2ed00]
class Pharmacy--><rect fill="#FEFECE" filter="url(#f32ja8qtq27cp)" height="89.5078" id="Pharmacy" style="stroke: #A80036; stroke-width: 1.5;" width="132" x="380" y="758.5"/><ellipse cx="415.25" cy="774.5" fill="#ADD1B2" rx="11" ry="11" style="stroke: #A80036; stroke-width: 1.0;"/><path d="M417.25,771 Q417.4531,770.5 417.6875,770.25 Q417.9219,770 418.1875,770 Q418.6563,770 418.9531,770.2813 Q419.25,770.5625 419.25,771.2188 L419.25,772.7813 Q419.25,773.4375 418.9688,773.7188 Q418.6875,774 418.25,774 Q417.8594,774 417.6094,773.8281 Q417.3594,773.6563 417.25,773.2031 Q417.2031,772.8906 417.0313,772.7188 Q416.7188,772.3906 416.1563,772.2031 Q415.5938,772 415.0313,772 Q414.3281,772 413.7344,772.2813 Q413.1563,772.5625 412.7031,773.1875 Q412.25,773.8125 412.25,774.6719 L412.25,775.5938 Q412.25,776.625 413.0938,777.3125 Q413.9375,778 415.4375,778 Q416.3281,778 416.9531,777.7969 Q417.3125,777.6875 417.7188,777.3281 Q417.9844,777.125 418.125,777.0625 Q418.2656,777 418.4375,777 Q418.7656,777 419,777.2656 Q419.25,777.5156 419.25,777.875 Q419.25,778.2188 418.9063,778.625 Q418.4063,779.2188 417.6094,779.5469 Q416.5625,780 415.2813,780 Q413.7813,780 412.5781,779.4063 Q411.6094,778.9375 410.9219,777.9219 Q410.25,776.9063 410.25,775.7031 L410.25,774.6094 Q410.25,773.3594 410.8438,772.2656 Q411.4531,771.1719 412.5,770.5938 Q413.5625,770 414.75,770 Q415.4688,770 416.0938,770.25 Q416.7188,770.5 417.25,771 Z "/><text fill="#000000" font-family="sans-serif" font-size="12" lengthAdjust="spacingAndGlyphs" textLength="55" x="433.75" y="779.4102">Pharmacy</text><line style="stroke: #A80036; stroke-width: 1.5;" x1="381" x2="511" y1="790.5" y2="790.5"/><text fill="#000000" font-family="sans-serif" font-size="11" lengthAdjust="spacingAndGlyphs" textLength="26" x="386" y="805.9189">-int id</text><text fill="#000000" font-family="sans-serif" font-size="11" lengthAdjust="spacingAndGlyphs" textLength="61" x="386" y="819.7549">-String name</text><line style="stroke: #A80036; stroke-width: 1.5;" x1="381" x2="511" y1="826.1719" y2="826.1719"/><text fill="#000000" font-family="sans-serif" font-size="11" lengthAdjust="spacingAndGlyphs" textLength="120" x="386" y="841.5908">+getDrones(pharmacyId)</text><!--MD5=[28160fdc0be430cd6f04db15a7547552]
class PharmacyService--><rect fill="#FEFECE" filter="url(#f32ja8qtq27cp)" height="75.6719" id="PharmacyService" style="stroke: #A80036; stroke-width: 1.5;" width="127" x="394.5" y="419"/><ellipse cx="409.5" cy="435" fill="#ADD1B2" rx="11" ry="11" style="stroke: #A80036; stroke-width: 1.0;"/><path d="M411.5,431.5 Q411.7031,431 411.9375,430.75 Q412.1719,430.5 412.4375,430.5 Q412.9063,430.5 413.2031,430.7813 Q413.5,431.0625 413.5,431.7188 L413.5,433.2813 Q413.5,433.9375 413.2188,434.2188 Q412.9375,434.5 412.5,434.5 Q412.1094,434.5 411.8594,434.3281 Q411.6094,434.1563 411.5,433.7031 Q411.4531,433.3906 411.2813,433.2188 Q410.9688,432.8906 410.4063,432.7031 Q409.8438,432.5 409.2813,432.5 Q408.5781,432.5 407.9844,432.7813 Q407.4063,433.0625 406.9531,433.6875 Q406.5,434.3125 406.5,435.1719 L406.5,436.0938 Q406.5,437.125 407.3438,437.8125 Q408.1875,438.5 409.6875,438.5 Q410.5781,438.5 411.2031,438.2969 Q411.5625,438.1875 411.9688,437.8281 Q412.2344,437.625 412.375,437.5625 Q412.5156,437.5 412.6875,437.5 Q413.0156,437.5 413.25,437.7656 Q413.5,438.0156 413.5,438.375 Q413.5,438.7188 413.1563,439.125 Q412.6563,439.7188 411.8594,440.0469 Q410.8125,440.5 409.5313,440.5 Q408.0313,440.5 406.8281,439.9063 Q405.8594,439.4375 405.1719,438.4219 Q404.5,437.4063 404.5,436.2031 L404.5,435.1094 Q404.5,433.8594 405.0938,432.7656 Q405.7031,431.6719 406.75,431.0938 Q407.8125,430.5 409,430.5 Q409.7188,430.5 410.3438,430.75 Q410.9688,431 411.5,431.5 Z "/><text fill="#000000" font-family="sans-serif" font-size="12" lengthAdjust="spacingAndGlyphs" textLength="95" x="423.5" y="439.9102">PharmacyService</text><line style="stroke: #A80036; stroke-width: 1.5;" x1="395.5" x2="520.5" y1="451" y2="451"/><line style="stroke: #A80036; stroke-width: 1.5;" x1="395.5" x2="520.5" y1="459" y2="459"/><text fill="#000000" font-family="sans-serif" font-size="11" lengthAdjust="spacingAndGlyphs" textLength="99" x="400.5" y="474.4189">+PharmacyService()</text><text fill="#000000" font-family="sans-serif" font-size="11" lengthAdjust="spacingAndGlyphs" textLength="85" x="400.5" y="488.2549">+getPharmacies()</text><!--MD5=[f0386d752ae2001320683395ba6b7079]
class DroneService--><rect fill="#FEFECE" filter="url(#f32ja8qtq27cp)" height="89.5078" id="DroneService" style="stroke: #A80036; stroke-width: 1.5;" width="127" x="232.5" y="412"/><ellipse cx="256.95" cy="428" fill="#ADD1B2" rx="11" ry="11" style="stroke: #A80036; stroke-width: 1.0;"/><path d="M258.95,424.5 Q259.1531,424 259.3875,423.75 Q259.6219,423.5 259.8875,423.5 Q260.3563,423.5 260.6531,423.7813 Q260.95,424.0625 260.95,424.7188 L260.95,426.2813 Q260.95,426.9375 260.6688,427.2188 Q260.3875,427.5 259.95,427.5 Q259.5594,427.5 259.3094,427.3281 Q259.0594,427.1563 258.95,426.7031 Q258.9031,426.3906 258.7313,426.2188 Q258.4188,425.8906 257.8563,425.7031 Q257.2938,425.5 256.7313,425.5 Q256.0281,425.5 255.4344,425.7813 Q254.8563,426.0625 254.4031,426.6875 Q253.95,427.3125 253.95,428.1719 L253.95,429.0938 Q253.95,430.125 254.7938,430.8125 Q255.6375,431.5 257.1375,431.5 Q258.0281,431.5 258.6531,431.2969 Q259.0125,431.1875 259.4188,430.8281 Q259.6844,430.625 259.825,430.5625 Q259.9656,430.5 260.1375,430.5 Q260.4656,430.5 260.7,430.7656 Q260.95,431.0156 260.95,431.375 Q260.95,431.7188 260.6063,432.125 Q260.1063,432.7188 259.3094,433.0469 Q258.2625,433.5 256.9813,433.5 Q255.4813,433.5 254.2781,432.9063 Q253.3094,432.4375 252.6219,431.4219 Q251.95,430.4063 251.95,429.2031 L251.95,428.1094 Q251.95,426.8594 252.5438,425.7656 Q253.1531,424.6719 254.2,424.0938 Q255.2625,423.5 256.45,423.5 Q257.1688,423.5 257.7938,423.75 Q258.4188,424 258.95,424.5 Z "/><text fill="#000000" font-family="sans-serif" font-size="12" lengthAdjust="spacingAndGlyphs" textLength="74" x="273.05" y="432.9102">DroneService</text><line style="stroke: #A80036; stroke-width: 1.5;" x1="233.5" x2="358.5" y1="444" y2="444"/><line style="stroke: #A80036; stroke-width: 1.5;" x1="233.5" x2="358.5" y1="452" y2="452"/><text fill="#000000" font-family="sans-serif" font-size="11" lengthAdjust="spacingAndGlyphs" textLength="80" x="238.5" y="467.4189">+DroneService()</text><text fill="#000000" font-family="sans-serif" font-size="11" lengthAdjust="spacingAndGlyphs" textLength="64" x="238.5" y="481.2549">+getDrones()</text><text fill="#000000" font-family="sans-serif" font-size="11" lengthAdjust="spacingAndGlyphs" textLength="115" x="238.5" y="495.0908">+removeDrone(droneId)</text><!--MD5=[4b2d61224b33971326a22fe5d809d926]
class DataHandler--><rect fill="#FEFECE" filter="url(#f32ja8qtq27cp)" height="75.6719" id="DataHandler" style="stroke: #A80036; stroke-width: 1.5;" width="104" x="956" y="419"/><ellipse cx="971.9" cy="435" fill="#ADD1B2" rx="11" ry="11" style="stroke: #A80036; stroke-width: 1.0;"/><path d="M973.9,431.5 Q974.1031,431 974.3375,430.75 Q974.5719,430.5 974.8375,430.5 Q975.3063,430.5 975.6031,430.7813 Q975.9,431.0625 975.9,431.7188 L975.9,433.2813 Q975.9,433.9375 975.6188,434.2188 Q975.3375,434.5 974.9,434.5 Q974.5094,434.5 974.2594,434.3281 Q974.0094,434.1563 973.9,433.7031 Q973.8531,433.3906 973.6813,433.2188 Q973.3688,432.8906 972.8063,432.7031 Q972.2438,432.5 971.6813,432.5 Q970.9781,432.5 970.3844,432.7813 Q969.8063,433.0625 969.3531,433.6875 Q968.9,434.3125 968.9,435.1719 L968.9,436.0938 Q968.9,437.125 969.7438,437.8125 Q970.5875,438.5 972.0875,438.5 Q972.9781,438.5 973.6031,438.2969 Q973.9625,438.1875 974.3688,437.8281 Q974.6344,437.625 974.775,437.5625 Q974.9156,437.5 975.0875,437.5 Q975.4156,437.5 975.65,437.7656 Q975.9,438.0156 975.9,438.375 Q975.9,438.7188 975.5563,439.125 Q975.0563,439.7188 974.2594,440.0469 Q973.2125,440.5 971.9313,440.5 Q970.4313,440.5 969.2281,439.9063 Q968.2594,439.4375 967.5719,438.4219 Q966.9,437.4063 966.9,436.2031 L966.9,435.1094 Q966.9,433.8594 967.4938,432.7656 Q968.1031,431.6719 969.15,431.0938 Q970.2125,430.5 971.4,430.5 Q972.1188,430.5 972.7438,430.75 Q973.3688,431 973.9,431.5 Z "/><text fill="#000000" font-family="sans-serif" font-size="12" lengthAdjust="spacingAndGlyphs" textLength="70" x="986.1" y="439.9102">DataHandler</text><line style="stroke: #A80036; stroke-width: 1.5;" x1="957" x2="1059" y1="451" y2="451"/><line style="stroke: #A80036; stroke-width: 1.5;" x1="957" x2="1059" y1="459" y2="459"/><text fill="#000000" font-family="sans-serif" font-size="11" lengthAdjust="spacingAndGlyphs" textLength="92" x="962" y="474.4189">+openConnection()</text><text fill="#000000" font-family="sans-serif" font-size="11" lengthAdjust="spacingAndGlyphs" textLength="52" x="962" y="488.2549">+closeAll()</text><!--MD5=[b860ecc58d0ca70e482845cb1f7b4615]
class PharmacyDB--><rect fill="#FEFECE" filter="url(#f32ja8qtq27cp)" height="75.6719" id="PharmacyDB" style="stroke: #A80036; stroke-width: 1.5;" width="104" x="962" y="589"/><ellipse cx="977" cy="605" fill="#ADD1B2" rx="11" ry="11" style="stroke: #A80036; stroke-width: 1.0;"/><path d="M979,601.5 Q979.2031,601 979.4375,600.75 Q979.6719,600.5 979.9375,600.5 Q980.4063,600.5 980.7031,600.7813 Q981,601.0625 981,601.7188 L981,603.2813 Q981,603.9375 980.7188,604.2188 Q980.4375,604.5 980,604.5 Q979.6094,604.5 979.3594,604.3281 Q979.1094,604.1563 979,603.7031 Q978.9531,603.3906 978.7813,603.2188 Q978.4688,602.8906 977.9063,602.7031 Q977.3438,602.5 976.7813,602.5 Q976.0781,602.5 975.4844,602.7813 Q974.9063,603.0625 974.4531,603.6875 Q974,604.3125 974,605.1719 L974,606.0938 Q974,607.125 974.8438,607.8125 Q975.6875,608.5 977.1875,608.5 Q978.0781,608.5 978.7031,608.2969 Q979.0625,608.1875 979.4688,607.8281 Q979.7344,607.625 979.875,607.5625 Q980.0156,607.5 980.1875,607.5 Q980.5156,607.5 980.75,607.7656 Q981,608.0156 981,608.375 Q981,608.7188 980.6563,609.125 Q980.1563,609.7188 979.3594,610.0469 Q978.3125,610.5 977.0313,610.5 Q975.5313,610.5 974.3281,609.9063 Q973.3594,609.4375 972.6719,608.4219 Q972,607.4063 972,606.2031 L972,605.1094 Q972,603.8594 972.5938,602.7656 Q973.2031,601.6719 974.25,601.0938 Q975.3125,600.5 976.5,600.5 Q977.2188,600.5 977.8438,600.75 Q978.4688,601 979,601.5 Z "/><text fill="#000000" font-family="sans-serif" font-size="12" lengthAdjust="spacingAndGlyphs" textLength="72" x="991" y="609.9102">PharmacyDB</text><line style="stroke: #A80036; stroke-width: 1.5;" x1="963" x2="1065" y1="621" y2="621"/><line style="stroke: #A80036; stroke-width: 1.5;" x1="963" x2="1065" y1="629" y2="629"/><text fill="#000000" font-family="sans-serif" font-size="11" lengthAdjust="spacingAndGlyphs" textLength="76" x="968" y="644.4189">+PharmacyDB()</text><text fill="#000000" font-family="sans-serif" font-size="11" lengthAdjust="spacingAndGlyphs" textLength="85" x="968" y="658.2549">+getPharmacies()</text><!--MD5=[e5e4874ffcb9901dc5acd0f1e94e7c33]
class DroneDB--><rect fill="#FEFECE" filter="url(#f32ja8qtq27cp)" height="89.5078" id="DroneDB" style="stroke: #A80036; stroke-width: 1.5;" width="165" x="761.5" y="582"/><ellipse cx="814.25" cy="598" fill="#ADD1B2" rx="11" ry="11" style="stroke: #A80036; stroke-width: 1.0;"/><path d="M816.25,594.5 Q816.4531,594 816.6875,593.75 Q816.9219,593.5 817.1875,593.5 Q817.6563,593.5 817.9531,593.7813 Q818.25,594.0625 818.25,594.7188 L818.25,596.2813 Q818.25,596.9375 817.9688,597.2188 Q817.6875,597.5 817.25,597.5 Q816.8594,597.5 816.6094,597.3281 Q816.3594,597.1563 816.25,596.7031 Q816.2031,596.3906 816.0313,596.2188 Q815.7188,595.8906 815.1563,595.7031 Q814.5938,595.5 814.0313,595.5 Q813.3281,595.5 812.7344,595.7813 Q812.1563,596.0625 811.7031,596.6875 Q811.25,597.3125 811.25,598.1719 L811.25,599.0938 Q811.25,600.125 812.0938,600.8125 Q812.9375,601.5 814.4375,601.5 Q815.3281,601.5 815.9531,601.2969 Q816.3125,601.1875 816.7188,600.8281 Q816.9844,600.625 817.125,600.5625 Q817.2656,600.5 817.4375,600.5 Q817.7656,600.5 818,600.7656 Q818.25,601.0156 818.25,601.375 Q818.25,601.7188 817.9063,602.125 Q817.4063,602.7188 816.6094,603.0469 Q815.5625,603.5 814.2813,603.5 Q812.7813,603.5 811.5781,602.9063 Q810.6094,602.4375 809.9219,601.4219 Q809.25,600.4063 809.25,599.2031 L809.25,598.1094 Q809.25,596.8594 809.8438,595.7656 Q810.4531,594.6719 811.5,594.0938 Q812.5625,593.5 813.75,593.5 Q814.4688,593.5 815.0938,593.75 Q815.7188,594 816.25,594.5 Z "/><text fill="#000000" font-family="sans-serif" font-size="12" lengthAdjust="spacingAndGlyphs" textLength="51" x="834.75" y="602.9102">DroneDB</text><line style="stroke: #A80036; stroke-width: 1.5;" x1="762.5" x2="925.5" y1="614" y2="614"/><line style="stroke: #A80036; stroke-width: 1.5;" x1="762.5" x2="925.5" y1="622" y2="622"/><text fill="#000000" font-family="sans-serif" font-size="11" lengthAdjust="spacingAndGlyphs" textLength="57" x="767.5" y="637.4189">+DroneDB()</text><text fill="#000000" font-family="sans-serif" font-size="11" lengthAdjust="spacingAndGlyphs" textLength="146" x="767.5" y="651.2549">+getScootersList(pharmacyId)</text><text fill="#000000" font-family="sans-serif" font-size="11" lengthAdjust="spacingAndGlyphs" textLength="153" x="767.5" y="665.0908">+removeDroneFromDB(droneId)</text><!--MD5=[f40d64c3825bdc96a4efd5b7e3ff1420]
reverse link DataHandler to PharmacyDB--><path d="M1010.05,515.52 C1010.92,539.773 1011.9,567.306 1012.67,588.82 " fill="none" id="DataHandler&lt;-PharmacyDB" style="stroke: #A80036; stroke-width: 1.0;"/><polygon fill="none" points="1003.05,515.522,1009.33,495.285,1017.04,515.022,1003.05,515.522" style="stroke: #A80036; stroke-width: 1.0;"/><!--MD5=[18feea515641fb3f6597b6a3b4d6a380]
reverse link DataHandler to DroneDB--><path d="M1012.36,515.687 C1010.91,528.524 1007.32,541.44 1000,552 C997.427,555.71 962.712,572.323 926.685,588.87 " fill="none" id="DataHandler&lt;-DroneDB" style="stroke: #A80036; stroke-width: 1.0;"/><polygon fill="none" points="1005.381,515.001,1013.09,495.266,1019.37,515.504,1005.381,515.001" style="stroke: #A80036; stroke-width: 1.0;"/><!--MD5=[54818b4ad2b3f16a72cac60a20a84b77]
link RemoveDroneUI to RemoveDroneController--><path d="M346,108.09 C346,129.11 346,160.85 346,187.58 " fill="none" id="RemoveDroneUI-&gt;RemoveDroneController" style="stroke: #A80036; stroke-width: 1.0; stroke-dasharray: 7.0,7.0;"/><polygon fill="#A80036" points="346,192.85,350,183.85,346,187.85,342,183.85,346,192.85" style="stroke: #A80036; stroke-width: 1.0;"/><!--MD5=[d7935f3e26a93d7cb8b61d05015285e6]
link RemoveDroneController to PharmacyService--><path d="M368.8,283.175 C388.59,321.519 417.039,376.637 436.452,414.251 " fill="none" id="RemoveDroneController-&gt;PharmacyService" style="stroke: #A80036; stroke-width: 1.0; stroke-dasharray: 7.0,7.0;"/><polygon fill="#A80036" points="438.774,418.749,438.2011,408.9168,436.481,414.3058,431.092,412.5857,438.774,418.749" style="stroke: #A80036; stroke-width: 1.0;"/><!--MD5=[814170fc06196e02123218753bb3ada3]
link RemoveDroneController to DroneService--><path d="M335.821,283.175 C327.542,319.109 315.867,369.777 307.299,406.963 " fill="none" id="RemoveDroneController-&gt;DroneService" style="stroke: #A80036; stroke-width: 1.0; stroke-dasharray: 7.0,7.0;"/><polygon fill="#A80036" points="306.164,411.887,312.0833,404.0154,307.287,407.0148,304.2877,402.2185,306.164,411.887" style="stroke: #A80036; stroke-width: 1.0;"/><!--MD5=[04ba2cb7f5803b19c0d0e740f2a895e0]
link Database to PharmacyDB--><path d="M680.63,480.778 C696.503,496.595 719.912,516.476 745,526 C777.66,538.399 869.421,521.39 902,534 C930.16,544.899 956.53,565.795 976.6,584.921 " fill="none" id="Database-&gt;PharmacyDB" style="stroke: #A80036; stroke-width: 1.0;"/><polygon fill="#A80036" points="980.528,588.72,976.8388,579.5882,976.9337,585.2442,971.2776,585.3391,980.528,588.72" style="stroke: #A80036; stroke-width: 1.0;"/><text fill="#000000" font-family="sans-serif" font-size="13" lengthAdjust="spacingAndGlyphs" textLength="53" x="934" y="548.4951">manages</text><text fill="#000000" font-family="sans-serif" font-size="13" lengthAdjust="spacingAndGlyphs" textLength="7" x="677.5913" y="501.7076">1</text><text fill="#000000" font-family="sans-serif" font-size="13" lengthAdjust="spacingAndGlyphs" textLength="7" x="966.9424" y="578.032">1</text><!--MD5=[3bc0a5f81cd94df0c3ef53dec7c84f6e]
link Database to DroneDB--><path d="M684.815,480.657 C712.073,505.545 756.632,546.229 791.683,578.233 " fill="none" id="Database-&gt;DroneDB" style="stroke: #A80036; stroke-width: 1.0;"/><polygon fill="#A80036" points="795.476,581.695,791.5263,572.6728,791.7834,578.3238,786.1324,578.5809,795.476,581.695" style="stroke: #A80036; stroke-width: 1.0;"/><text fill="#000000" font-family="sans-serif" font-size="13" lengthAdjust="spacingAndGlyphs" textLength="53" x="759" y="548.4951">manages</text><text fill="#000000" font-family="sans-serif" font-size="13" lengthAdjust="spacingAndGlyphs" textLength="7" x="691.3628" y="501.5586">1</text><text fill="#000000" font-family="sans-serif" font-size="13" lengthAdjust="spacingAndGlyphs" textLength="7" x="780.5098" y="571.0924">1</text><!--MD5=[1838217b62f5cff8f2cd541cc9393f89]
link PharmacyService to PharmacyDB--><path d="M521.533,494.794 C545.896,507.059 574.466,519.296 602,526 C649.317,537.521 773.438,523.54 821,534 C841.234,538.45 844.742,544.361 864,552 C899.298,566.001 909.973,565.143 944,582 C948.437,584.198 952.95,586.603 957.437,589.119 " fill="none" id="PharmacyService-&gt;PharmacyDB" style="stroke: #A80036; stroke-width: 1.0;"/><polygon fill="#A80036" points="961.912,591.669,956.0711,583.739,957.5673,589.1945,952.1119,590.6906,961.912,591.669" style="stroke: #A80036; stroke-width: 1.0;"/><text fill="#000000" font-family="sans-serif" font-size="13" lengthAdjust="spacingAndGlyphs" textLength="28" x="865" y="548.4951">uses</text><text fill="#000000" font-family="sans-serif" font-size="13" lengthAdjust="spacingAndGlyphs" textLength="7" x="524.8512" y="516.2184">1</text><text fill="#000000" font-family="sans-serif" font-size="13" lengthAdjust="spacingAndGlyphs" textLength="5" x="948.8944" y="582.8498">*</text><!--MD5=[4aef795f878f9415740bac6fb901c4c8]
link DroneService to DroneDB--><path d="M337.933,502.006 C349.603,511.634 362.959,520.564 377,526 C418.066,541.898 531.575,526.689 575,534 C647.792,546.254 664.332,557.603 734,582 C741.395,584.59 749.025,587.383 756.656,590.262 " fill="none" id="DroneService-&gt;DroneDB" style="stroke: #A80036; stroke-width: 1.0;"/><polygon fill="#A80036" points="761.405,592.064,754.4103,585.1304,756.7304,590.2896,751.5713,592.6097,761.405,592.064" style="stroke: #A80036; stroke-width: 1.0;"/><text fill="#000000" font-family="sans-serif" font-size="13" lengthAdjust="spacingAndGlyphs" textLength="28" x="652" y="548.4951">uses</text><text fill="#000000" font-family="sans-serif" font-size="13" lengthAdjust="spacingAndGlyphs" textLength="7" x="336.3376" y="523.0144">1</text><text fill="#000000" font-family="sans-serif" font-size="13" lengthAdjust="spacingAndGlyphs" textLength="5" x="748.5603" y="585.6398">*</text><!--MD5=[2ed2b43e7f6d114538396b0b10b28567]
link PharmacyService to Pharmacy--><path d="M454.038,495.069 C452.862,507.436 451.702,521.299 451,534 C446.774,610.439 445.912,699.285 445.837,753.173 " fill="none" id="PharmacyService-&gt;Pharmacy" style="stroke: #A80036; stroke-width: 1.0;"/><polygon fill="#A80036" points="445.833,758.278,449.833,749.278,445.833,753.278,441.833,749.278,445.833,758.278" style="stroke: #A80036; stroke-width: 1.0;"/><text fill="#000000" font-family="sans-serif" font-size="13" lengthAdjust="spacingAndGlyphs" textLength="111" x="450" y="632.4951">manage services of</text><text fill="#000000" font-family="sans-serif" font-size="13" lengthAdjust="spacingAndGlyphs" textLength="7" x="445.8021" y="516.2506">1</text><text fill="#000000" font-family="sans-serif" font-size="13" lengthAdjust="spacingAndGlyphs" textLength="5" x="440.4246" y="747.6881">*</text><!--MD5=[e3cc844120729527281d37c09bce0e7b]
link DroneService to Drone--><path d="M272.616,502.14 C259.138,527.583 242.294,559.377 229.047,584.382 " fill="none" id="DroneService-&gt;Drone" style="stroke: #A80036; stroke-width: 1.0;"/><polygon fill="#A80036" points="226.617,588.969,234.364,582.8875,228.957,584.5504,227.2942,579.1434,226.617,588.969" style="stroke: #A80036; stroke-width: 1.0;"/><text fill="#000000" font-family="sans-serif" font-size="13" lengthAdjust="spacingAndGlyphs" textLength="111" x="256" y="548.4951">manage services of</text><text fill="#000000" font-family="sans-serif" font-size="13" lengthAdjust="spacingAndGlyphs" textLength="7" x="261.8354" y="523.1673">1</text><text fill="#000000" font-family="sans-serif" font-size="13" lengthAdjust="spacingAndGlyphs" textLength="5" x="224.7729" y="578.0398">*</text><!--MD5=[51d7b9a785c9fb041ca400474ed1d998]
link Database to Pharmacy--><path d="M655.376,480.769 C645.511,525.329 619.19,625.823 570,696 C553.549,719.47 530.777,740.998 509.234,758.463 " fill="none" id="Database-Pharmacy" style="stroke: #A80036; stroke-width: 1.0;"/><text fill="#000000" font-family="sans-serif" font-size="13" lengthAdjust="spacingAndGlyphs" textLength="82" x="628" y="632.4951">has registered</text><polygon fill="#000000" points="664.5,641.3516,667.5,647.3516,670.5,641.3516,664.5,641.3516" style="stroke: #000000; stroke-width: 1.0;"/><text fill="#000000" font-family="sans-serif" font-size="13" lengthAdjust="spacingAndGlyphs" textLength="7" x="646.4973" y="501.6965">1</text><text fill="#000000" font-family="sans-serif" font-size="13" lengthAdjust="spacingAndGlyphs" textLength="5" x="513.9135" y="747.5726">*</text><!--MD5=[96117966725c1e8921b92ed7b1677b7b]
link Database to Drone--><path d="M625.187,480.658 C601.419,495.299 568.778,513.823 538,526 C524.368,531.393 520.122,530.065 506,534 C445.049,550.983 377.651,571.562 322.297,588.946 " fill="none" id="Database-Drone" style="stroke: #A80036; stroke-width: 1.0;"/><polygon fill="#000000" points="514,541.6758,508,544.6758,514,547.6758,514,541.6758" style="stroke: #000000; stroke-width: 1.0;"/><text fill="#000000" font-family="sans-serif" font-size="13" lengthAdjust="spacingAndGlyphs" textLength="82" x="520" y="548.4951">has registered</text><text fill="#000000" font-family="sans-serif" font-size="13" lengthAdjust="spacingAndGlyphs" textLength="7" x="609.3271" y="501.5598">1</text><text fill="#000000" font-family="sans-serif" font-size="13" lengthAdjust="spacingAndGlyphs" textLength="5" x="338.0939" y="578.0126">*</text><!--MD5=[074a56c4439d52c76e1cc7a8f9d070a4]
link Vehicle to Battery--><path d="M207,855.227 C207,885.432 207,923.632 207,953.827 " fill="none" id="Vehicle-Battery" style="stroke: #A80036; stroke-width: 1.0;"/><text fill="#000000" font-family="sans-serif" font-size="13" lengthAdjust="spacingAndGlyphs" textLength="21" x="208" y="899.4951">has</text><polygon fill="#000000" points="214,908.3516,217,914.3516,220,908.3516,214,908.3516" style="stroke: #000000; stroke-width: 1.0;"/><text fill="#000000" font-family="sans-serif" font-size="13" lengthAdjust="spacingAndGlyphs" textLength="7" x="199.5297" y="876.7485">1</text><text fill="#000000" font-family="sans-serif" font-size="13" lengthAdjust="spacingAndGlyphs" textLength="7" x="199.5297" y="943.3041">1</text><!--MD5=[3f58d672939e81cd871f2f51e09decba]
link Drone to Vehicle--><path d="M207,665.007 C207,690.318 207,724.187 207,751.976 " fill="none" id="Drone-Vehicle" style="stroke: #A80036; stroke-width: 1.0;"/><text fill="#000000" font-family="sans-serif" font-size="13" lengthAdjust="spacingAndGlyphs" textLength="64" x="208" y="718.4951">is a type of</text><polygon fill="#000000" points="235.5,727.3516,238.5,733.3516,241.5,727.3516,235.5,727.3516" style="stroke: #000000; stroke-width: 1.0;"/><text fill="#000000" font-family="sans-serif" font-size="13" lengthAdjust="spacingAndGlyphs" textLength="5" x="201.5859" y="686.1783">*</text><text fill="#000000" font-family="sans-serif" font-size="13" lengthAdjust="spacingAndGlyphs" textLength="7" x="199.5078" y="741.1011">1</text><!--MD5=[0b0bc9c7f03600b7866f5e5adba791e4]
link Drone to Pharmacy--><path d="M257.686,665.007 C295.093,692.319 346.148,729.596 385.661,758.445 " fill="none" id="Drone-Pharmacy" style="stroke: #A80036; stroke-width: 1.0;"/><text fill="#000000" font-family="sans-serif" font-size="13" lengthAdjust="spacingAndGlyphs" textLength="60" x="335" y="718.4951">belongs to</text><polygon fill="#000000" points="398,711.6758,404,714.6758,398,717.6758,398,711.6758" style="stroke: #000000; stroke-width: 1.0;"/><text fill="#000000" font-family="sans-serif" font-size="13" lengthAdjust="spacingAndGlyphs" textLength="5" x="260.6668" y="686.1783">*</text><text fill="#000000" font-family="sans-serif" font-size="13" lengthAdjust="spacingAndGlyphs" textLength="7" x="368.4867" y="747.5517">1</text><!--MD5=[89baec1bfb4a213750f7c61516e0a0f1]
link Pharmacy to Address--><path d="M458.206,848.886 C464.979,873.514 473.566,904.74 481.268,932.746 " fill="none" id="Pharmacy-Address" style="stroke: #A80036; stroke-width: 1.0;"/><text fill="#000000" font-family="sans-serif" font-size="13" lengthAdjust="spacingAndGlyphs" textLength="21" x="473" y="899.4951">has</text><polygon fill="#000000" points="479,908.3516,482,914.3516,485,908.3516,479,908.3516" style="stroke: #000000; stroke-width: 1.0;"/><text fill="#000000" font-family="sans-serif" font-size="13" lengthAdjust="spacingAndGlyphs" textLength="7" x="452.3759" y="869.6116">1</text><text fill="#000000" font-family="sans-serif" font-size="13" lengthAdjust="spacingAndGlyphs" textLength="7" x="471.8722" y="921.9391">1</text><!--MD5=[38e089e476d423925ff503e653533f7d]
link Pharmacy to DronePark--><path d="M426.248,848.886 C409.246,887.093 385.177,941.182 370.354,974.49 " fill="none" id="Pharmacy-DronePark" style="stroke: #A80036; stroke-width: 1.0;"/><text fill="#000000" font-family="sans-serif" font-size="13" lengthAdjust="spacingAndGlyphs" textLength="21" x="411" y="899.4951">has</text><polygon fill="#000000" points="417,908.3516,420,914.3516,423,908.3516,417,908.3516" style="stroke: #000000; stroke-width: 1.0;"/><text fill="#000000" font-family="sans-serif" font-size="13" lengthAdjust="spacingAndGlyphs" textLength="7" x="416.1235" y="869.6116">1</text><text fill="#000000" font-family="sans-serif" font-size="13" lengthAdjust="spacingAndGlyphs" textLength="7" x="365.5096" y="963.5081">1</text><!--MD5=[7536b4ac16cca54a78c22aa555a9c2ab]
link DronePark to DroneChargingSlot--><path d="M344.294,1036.88 C330.696,1069.393 309.115,1120.993 294.521,1155.888 " fill="none" id="DronePark-DroneChargingSlot" style="stroke: #A80036; stroke-width: 1.0;"/><text fill="#000000" font-family="sans-serif" font-size="13" lengthAdjust="spacingAndGlyphs" textLength="21" x="315" y="1122.4951">has</text><polygon fill="#000000" points="321,1131.3516,324,1137.3516,327,1131.3516,321,1131.3516" style="stroke: #000000; stroke-width: 1.0;"/><text fill="#000000" font-family="sans-serif" font-size="13" lengthAdjust="spacingAndGlyphs" textLength="7" x="334.2047" y="1057.9311">1</text><text fill="#000000" font-family="sans-serif" font-size="13" lengthAdjust="spacingAndGlyphs" textLength="7" x="289.6622" y="1145.23">1</text><!--MD5=[90d11682e395649ab5adc896502c3617]
link DronePark to DroneParkingSlot--><path d="M371.823,1036.88 C388.796,1071.664 416.428,1128.294 433.334,1162.943 " fill="none" id="DronePark-DroneParkingSlot" style="stroke: #A80036; stroke-width: 1.0;"/><text fill="#000000" font-family="sans-serif" font-size="13" lengthAdjust="spacingAndGlyphs" textLength="21" x="415" y="1122.4951">has</text><polygon fill="#000000" points="421,1131.3516,424,1137.3516,427,1131.3516,421,1131.3516" style="stroke: #000000; stroke-width: 1.0;"/><text fill="#000000" font-family="sans-serif" font-size="13" lengthAdjust="spacingAndGlyphs" textLength="7" x="366.9814" y="1057.9311">1</text><text fill="#000000" font-family="sans-serif" font-size="13" lengthAdjust="spacingAndGlyphs" textLength="7" x="422.3602" y="1151.9508">1</text><!--MD5=[27ede9188f6207c5f78cb2fcf9cb01a6]
@startuml
skinparam classAttributeIconSize 0

database Database {
}

package "UI" #DDDDDD {
class RemoveDroneUI{
}
}

package "Controller" #DDDDDD {
class RemoveDroneController{
+showPharmacies()
+showDroneList(pharmacyId)
+removeDrone(droneId)
}
}


package "Model" #DDDDDD {
 package "Service" #DDDDDD {
  class PharmacyService{
      +PharmacyService()
      +getPharmacies()
  }

  class DroneService{
      +DroneService()
      +getDrones()
      +removeDrone(droneId)
   }
}

package "Model" #DDDDDD {
class DronePark{
-   int maxSlotsNumber
}

class DroneChargingSlot{
-   int id
-   float outputPower
}

class DroneParkingSlot{
-   int id
}

class Drone{
  +Drone(batteryPerc, charginStatus, potency,\n weight, batteryCapacity, maxPayload, batteryVoltage, pharmacyId)
}

class Vehicle{
  -int id
  -float potency
  -float weight
  -float maxPayload
}

class Battery{
  -int id
  -float batteryPerc
  -int batteryCapacity
  -float batteryVoltage
}

class Address{
  -double longitude
  -double latitude
  -String doorNumber
  -String streetName
  -String postalCode
  -String locality
  -String country
}

class Pharmacy {
  -int id
  -String name
  +getDrones(pharmacyId)
}
}


package "Data" #DDDDDD {
class DataHandler{
    +openConnection()
    +closeAll()
}
class PharmacyDB{
     +PharmacyDB()
     +getPharmacies()
 }

 class DroneDB{
     +DroneDB()
     +getScootersList(pharmacyId)
     +removeDroneFromDB(droneId)
  }
}

class PharmacyDB extends DataHandler
class DroneDB extends DataHandler

RemoveDroneUI ..> RemoveDroneController
RemoveDroneController ..> PharmacyService
RemoveDroneController ..> DroneService
Database "1" - -> "1" PharmacyDB : manages
Database "1" - -> "1" DroneDB : manages
PharmacyService "1" - -> "*" PharmacyDB : uses
DroneService "1" - -> "*" DroneDB : uses
PharmacyService "1" - -> "*" Pharmacy : manage services of
DroneService "1" - -> "*" Drone : manage services of

Database "1" - - "*" Pharmacy : has registered >
Database "1" - - "*" Drone : has registered >

Vehicle "1" - - "1" Battery : has >
Drone "*" - - "1" Vehicle : is a type of >
Drone "*" - - "1" Pharmacy : belongs to >
Pharmacy "1" - - "1" Address : has >
Pharmacy "1" - - "1" DronePark : has >
DronePark "1" - - "1" DroneChargingSlot : has >
DronePark "1" - - "1" DroneParkingSlot : has >

@enduml

PlantUML version 1.2020.09(Sun May 10 11:51:06 BST 2020)
(GPL source distribution)
Java Runtime: OpenJDK Runtime Environment
JVM: OpenJDK 64-Bit Server VM
Java Version: 11.0.6+8-b765.40
Operating System: Windows 10
Default Encoding: Cp1252
Language: pt
Country: PT
--></g></svg>