<?xml version="1.0" encoding="UTF-8" standalone="no"?><svg xmlns="http://www.w3.org/2000/svg" xmlns:xlink="http://www.w3.org/1999/xlink" contentScriptType="application/ecmascript" contentStyleType="text/css" height="431px" preserveAspectRatio="none" style="width:938px;height:431px;" version="1.1" viewBox="0 0 938 431" width="938px" zoomAndPan="magnify"><defs><filter height="300%" id="f34pxrxlbcxbo" width="300%" x="-1" y="-1"><feGaussianBlur result="blurOut" stdDeviation="2.0"/><feColorMatrix in="blurOut" result="blurOut2" type="matrix" values="0 0 0 0 0 0 0 0 0 0 0 0 0 0 0 0 0 0 .4 0"/><feOffset dx="4.0" dy="4.0" in="blurOut2" result="blurOut3"/><feBlend in="SourceGraphic" in2="blurOut3" mode="normal"/></filter></defs><g><!--MD5=[fa1e3283224feb76407c84b7e90ed808]
entity Database--><path d="M6,241 C6,231 46.5,231 46.5,231 C46.5,231 87,231 87,241 L87,267.6094 C87,277.6094 46.5,277.6094 46.5,277.6094 C46.5,277.6094 6,277.6094 6,267.6094 L6,241 " fill="#FFFFFF" filter="url(#f34pxrxlbcxbo)" style="stroke: #000000; stroke-width: 1.5;"/><path d="M6,241 C6,251 46.5,251 46.5,251 C46.5,251 87,251 87,241 " fill="none" style="stroke: #000000; stroke-width: 1.5;"/><text fill="#000000" font-family="sans-serif" font-size="14" lengthAdjust="spacingAndGlyphs" textLength="61" x="16" y="269.5332">Database</text><!--MD5=[7f2a9fafcebe4f099f71398fd3e2ed00]
class Pharmacy--><rect fill="#FEFECE" filter="url(#f34pxrxlbcxbo)" height="67.6719" id="Pharmacy" style="stroke: #A80036; stroke-width: 1.5;" width="87" x="393.5" y="187.5"/><ellipse cx="408.5" cy="203.5" fill="#ADD1B2" rx="11" ry="11" style="stroke: #A80036; stroke-width: 1.0;"/><path d="M410.5,200 Q410.7031,199.5 410.9375,199.25 Q411.1719,199 411.4375,199 Q411.9063,199 412.2031,199.2813 Q412.5,199.5625 412.5,200.2188 L412.5,201.7813 Q412.5,202.4375 412.2188,202.7188 Q411.9375,203 411.5,203 Q411.1094,203 410.8594,202.8281 Q410.6094,202.6563 410.5,202.2031 Q410.4531,201.8906 410.2813,201.7188 Q409.9688,201.3906 409.4063,201.2031 Q408.8438,201 408.2813,201 Q407.5781,201 406.9844,201.2813 Q406.4063,201.5625 405.9531,202.1875 Q405.5,202.8125 405.5,203.6719 L405.5,204.5938 Q405.5,205.625 406.3438,206.3125 Q407.1875,207 408.6875,207 Q409.5781,207 410.2031,206.7969 Q410.5625,206.6875 410.9688,206.3281 Q411.2344,206.125 411.375,206.0625 Q411.5156,206 411.6875,206 Q412.0156,206 412.25,206.2656 Q412.5,206.5156 412.5,206.875 Q412.5,207.2188 412.1563,207.625 Q411.6563,208.2188 410.8594,208.5469 Q409.8125,209 408.5313,209 Q407.0313,209 405.8281,208.4063 Q404.8594,207.9375 404.1719,206.9219 Q403.5,205.9063 403.5,204.7031 L403.5,203.6094 Q403.5,202.3594 404.0938,201.2656 Q404.7031,200.1719 405.75,199.5938 Q406.8125,199 408,199 Q408.7188,199 409.3438,199.25 Q409.9688,199.5 410.5,200 Z "/><text fill="#000000" font-family="sans-serif" font-size="12" lengthAdjust="spacingAndGlyphs" textLength="55" x="422.5" y="208.4102">Pharmacy</text><line style="stroke: #A80036; stroke-width: 1.5;" x1="394.5" x2="479.5" y1="219.5" y2="219.5"/><text fill="#000000" font-family="sans-serif" font-size="11" lengthAdjust="spacingAndGlyphs" textLength="26" x="399.5" y="234.9189">-int id</text><text fill="#000000" font-family="sans-serif" font-size="11" lengthAdjust="spacingAndGlyphs" textLength="61" x="399.5" y="248.7549">-String name</text><!--MD5=[b024fca8ac3dd8106de85a4004acf2e0]
class DronePark--><rect fill="#FEFECE" filter="url(#f34pxrxlbcxbo)" height="53.8359" id="DronePark" style="stroke: #A80036; stroke-width: 1.5;" width="111" x="582" y="63.5"/><ellipse cx="606" cy="79.5" fill="#ADD1B2" rx="11" ry="11" style="stroke: #A80036; stroke-width: 1.0;"/><path d="M608,76 Q608.2031,75.5 608.4375,75.25 Q608.6719,75 608.9375,75 Q609.4063,75 609.7031,75.2813 Q610,75.5625 610,76.2188 L610,77.7813 Q610,78.4375 609.7188,78.7188 Q609.4375,79 609,79 Q608.6094,79 608.3594,78.8281 Q608.1094,78.6563 608,78.2031 Q607.9531,77.8906 607.7813,77.7188 Q607.4688,77.3906 606.9063,77.2031 Q606.3438,77 605.7813,77 Q605.0781,77 604.4844,77.2813 Q603.9063,77.5625 603.4531,78.1875 Q603,78.8125 603,79.6719 L603,80.5938 Q603,81.625 603.8438,82.3125 Q604.6875,83 606.1875,83 Q607.0781,83 607.7031,82.7969 Q608.0625,82.6875 608.4688,82.3281 Q608.7344,82.125 608.875,82.0625 Q609.0156,82 609.1875,82 Q609.5156,82 609.75,82.2656 Q610,82.5156 610,82.875 Q610,83.2188 609.6563,83.625 Q609.1563,84.2188 608.3594,84.5469 Q607.3125,85 606.0313,85 Q604.5313,85 603.3281,84.4063 Q602.3594,83.9375 601.6719,82.9219 Q601,81.9063 601,80.7031 L601,79.6094 Q601,78.3594 601.5938,77.2656 Q602.2031,76.1719 603.25,75.5938 Q604.3125,75 605.5,75 Q606.2188,75 606.8438,75.25 Q607.4688,75.5 608,76 Z "/><text fill="#000000" font-family="sans-serif" font-size="12" lengthAdjust="spacingAndGlyphs" textLength="59" x="622" y="84.4102">DronePark</text><line style="stroke: #A80036; stroke-width: 1.5;" x1="583" x2="692" y1="95.5" y2="95.5"/><text fill="#000000" font-family="sans-serif" font-size="11" lengthAdjust="spacingAndGlyphs" textLength="99" x="588" y="110.9189">-int maxSlotsNumber</text><!--MD5=[fbe13b0c274c50d99f674380efb6c2c4]
class DroneChargingSlot--><rect fill="#FEFECE" filter="url(#f34pxrxlbcxbo)" height="67.6719" id="DroneChargingSlot" style="stroke: #A80036; stroke-width: 1.5;" width="138" x="789" y="8.5"/><ellipse cx="804" cy="24.5" fill="#ADD1B2" rx="11" ry="11" style="stroke: #A80036; stroke-width: 1.0;"/><path d="M806,21 Q806.2031,20.5 806.4375,20.25 Q806.6719,20 806.9375,20 Q807.4063,20 807.7031,20.2813 Q808,20.5625 808,21.2188 L808,22.7813 Q808,23.4375 807.7188,23.7188 Q807.4375,24 807,24 Q806.6094,24 806.3594,23.8281 Q806.1094,23.6563 806,23.2031 Q805.9531,22.8906 805.7813,22.7188 Q805.4688,22.3906 804.9063,22.2031 Q804.3438,22 803.7813,22 Q803.0781,22 802.4844,22.2813 Q801.9063,22.5625 801.4531,23.1875 Q801,23.8125 801,24.6719 L801,25.5938 Q801,26.625 801.8438,27.3125 Q802.6875,28 804.1875,28 Q805.0781,28 805.7031,27.7969 Q806.0625,27.6875 806.4688,27.3281 Q806.7344,27.125 806.875,27.0625 Q807.0156,27 807.1875,27 Q807.5156,27 807.75,27.2656 Q808,27.5156 808,27.875 Q808,28.2188 807.6563,28.625 Q807.1563,29.2188 806.3594,29.5469 Q805.3125,30 804.0313,30 Q802.5313,30 801.3281,29.4063 Q800.3594,28.9375 799.6719,27.9219 Q799,26.9063 799,25.7031 L799,24.6094 Q799,23.3594 799.5938,22.2656 Q800.2031,21.1719 801.25,20.5938 Q802.3125,20 803.5,20 Q804.2188,20 804.8438,20.25 Q805.4688,20.5 806,21 Z "/><text fill="#000000" font-family="sans-serif" font-size="12" lengthAdjust="spacingAndGlyphs" textLength="106" x="818" y="29.4102">DroneChargingSlot</text><line style="stroke: #A80036; stroke-width: 1.5;" x1="790" x2="926" y1="40.5" y2="40.5"/><text fill="#000000" font-family="sans-serif" font-size="11" lengthAdjust="spacingAndGlyphs" textLength="26" x="795" y="55.9189">-int id</text><text fill="#000000" font-family="sans-serif" font-size="11" lengthAdjust="spacingAndGlyphs" textLength="90" x="795" y="69.7549">-float outputPower</text><!--MD5=[9b53198e8727c85f4d6d8ebbe9b70e18]
class DroneParkingSlot--><rect fill="#FEFECE" filter="url(#f34pxrxlbcxbo)" height="53.8359" id="DroneParkingSlot" style="stroke: #A80036; stroke-width: 1.5;" width="129" x="793.5" y="111.5"/><ellipse cx="808.5" cy="127.5" fill="#ADD1B2" rx="11" ry="11" style="stroke: #A80036; stroke-width: 1.0;"/><path d="M810.5,124 Q810.7031,123.5 810.9375,123.25 Q811.1719,123 811.4375,123 Q811.9063,123 812.2031,123.2813 Q812.5,123.5625 812.5,124.2188 L812.5,125.7813 Q812.5,126.4375 812.2188,126.7188 Q811.9375,127 811.5,127 Q811.1094,127 810.8594,126.8281 Q810.6094,126.6563 810.5,126.2031 Q810.4531,125.8906 810.2813,125.7188 Q809.9688,125.3906 809.4063,125.2031 Q808.8438,125 808.2813,125 Q807.5781,125 806.9844,125.2813 Q806.4063,125.5625 805.9531,126.1875 Q805.5,126.8125 805.5,127.6719 L805.5,128.5938 Q805.5,129.625 806.3438,130.3125 Q807.1875,131 808.6875,131 Q809.5781,131 810.2031,130.7969 Q810.5625,130.6875 810.9688,130.3281 Q811.2344,130.125 811.375,130.0625 Q811.5156,130 811.6875,130 Q812.0156,130 812.25,130.2656 Q812.5,130.5156 812.5,130.875 Q812.5,131.2188 812.1563,131.625 Q811.6563,132.2188 810.8594,132.5469 Q809.8125,133 808.5313,133 Q807.0313,133 805.8281,132.4063 Q804.8594,131.9375 804.1719,130.9219 Q803.5,129.9063 803.5,128.7031 L803.5,127.6094 Q803.5,126.3594 804.0938,125.2656 Q804.7031,124.1719 805.75,123.5938 Q806.8125,123 808,123 Q808.7188,123 809.3438,123.25 Q809.9688,123.5 810.5,124 Z "/><text fill="#000000" font-family="sans-serif" font-size="12" lengthAdjust="spacingAndGlyphs" textLength="97" x="822.5" y="132.4102">DroneParkingSlot</text><line style="stroke: #A80036; stroke-width: 1.5;" x1="794.5" x2="921.5" y1="143.5" y2="143.5"/><text fill="#000000" font-family="sans-serif" font-size="11" lengthAdjust="spacingAndGlyphs" textLength="26" x="799.5" y="158.9189">-int id</text><!--MD5=[2e3f1e60e74253ff42e47f8bfdb04ee2]
class Drone--><rect fill="#FEFECE" filter="url(#f34pxrxlbcxbo)" height="40" id="Drone" style="stroke: #A80036; stroke-width: 1.5;" width="66" x="183" y="291.5"/><ellipse cx="198" cy="307.5" fill="#ADD1B2" rx="11" ry="11" style="stroke: #A80036; stroke-width: 1.0;"/><path d="M200,304 Q200.2031,303.5 200.4375,303.25 Q200.6719,303 200.9375,303 Q201.4063,303 201.7031,303.2813 Q202,303.5625 202,304.2188 L202,305.7813 Q202,306.4375 201.7188,306.7188 Q201.4375,307 201,307 Q200.6094,307 200.3594,306.8281 Q200.1094,306.6563 200,306.2031 Q199.9531,305.8906 199.7813,305.7188 Q199.4688,305.3906 198.9063,305.2031 Q198.3438,305 197.7813,305 Q197.0781,305 196.4844,305.2813 Q195.9063,305.5625 195.4531,306.1875 Q195,306.8125 195,307.6719 L195,308.5938 Q195,309.625 195.8438,310.3125 Q196.6875,311 198.1875,311 Q199.0781,311 199.7031,310.7969 Q200.0625,310.6875 200.4688,310.3281 Q200.7344,310.125 200.875,310.0625 Q201.0156,310 201.1875,310 Q201.5156,310 201.75,310.2656 Q202,310.5156 202,310.875 Q202,311.2188 201.6563,311.625 Q201.1563,312.2188 200.3594,312.5469 Q199.3125,313 198.0313,313 Q196.5313,313 195.3281,312.4063 Q194.3594,311.9375 193.6719,310.9219 Q193,309.9063 193,308.7031 L193,307.6094 Q193,306.3594 193.5938,305.2656 Q194.2031,304.1719 195.25,303.5938 Q196.3125,303 197.5,303 Q198.2188,303 198.8438,303.25 Q199.4688,303.5 200,304 Z "/><text fill="#000000" font-family="sans-serif" font-size="12" lengthAdjust="spacingAndGlyphs" textLength="34" x="212" y="312.4102">Drone</text><line style="stroke: #A80036; stroke-width: 1.5;" x1="184" x2="248" y1="323.5" y2="323.5"/><!--MD5=[3aa0d89c6bfdcbf7f32042cedac57549]
class Vehicle--><rect fill="#FEFECE" filter="url(#f34pxrxlbcxbo)" height="95.3438" id="Vehicle" style="stroke: #A80036; stroke-width: 1.5;" width="98" x="388" y="308"/><ellipse cx="414.7" cy="324" fill="#ADD1B2" rx="11" ry="11" style="stroke: #A80036; stroke-width: 1.0;"/><path d="M416.7,320.5 Q416.9031,320 417.1375,319.75 Q417.3719,319.5 417.6375,319.5 Q418.1063,319.5 418.4031,319.7813 Q418.7,320.0625 418.7,320.7188 L418.7,322.2813 Q418.7,322.9375 418.4188,323.2188 Q418.1375,323.5 417.7,323.5 Q417.3094,323.5 417.0594,323.3281 Q416.8094,323.1563 416.7,322.7031 Q416.6531,322.3906 416.4813,322.2188 Q416.1688,321.8906 415.6063,321.7031 Q415.0438,321.5 414.4813,321.5 Q413.7781,321.5 413.1844,321.7813 Q412.6063,322.0625 412.1531,322.6875 Q411.7,323.3125 411.7,324.1719 L411.7,325.0938 Q411.7,326.125 412.5438,326.8125 Q413.3875,327.5 414.8875,327.5 Q415.7781,327.5 416.4031,327.2969 Q416.7625,327.1875 417.1688,326.8281 Q417.4344,326.625 417.575,326.5625 Q417.7156,326.5 417.8875,326.5 Q418.2156,326.5 418.45,326.7656 Q418.7,327.0156 418.7,327.375 Q418.7,327.7188 418.3563,328.125 Q417.8563,328.7188 417.0594,329.0469 Q416.0125,329.5 414.7313,329.5 Q413.2313,329.5 412.0281,328.9063 Q411.0594,328.4375 410.3719,327.4219 Q409.7,326.4063 409.7,325.2031 L409.7,324.1094 Q409.7,322.8594 410.2938,321.7656 Q410.9031,320.6719 411.95,320.0938 Q413.0125,319.5 414.2,319.5 Q414.9188,319.5 415.5438,319.75 Q416.1688,320 416.7,320.5 Z "/><text fill="#000000" font-family="sans-serif" font-size="12" lengthAdjust="spacingAndGlyphs" textLength="40" x="431.3" y="328.9102">Vehicle</text><line style="stroke: #A80036; stroke-width: 1.5;" x1="389" x2="485" y1="340" y2="340"/><text fill="#000000" font-family="sans-serif" font-size="11" lengthAdjust="spacingAndGlyphs" textLength="26" x="394" y="355.4189">-int id</text><text fill="#000000" font-family="sans-serif" font-size="11" lengthAdjust="spacingAndGlyphs" textLength="67" x="394" y="369.2549">-float potency</text><text fill="#000000" font-family="sans-serif" font-size="11" lengthAdjust="spacingAndGlyphs" textLength="61" x="394" y="383.0908">-float weight</text><text fill="#000000" font-family="sans-serif" font-size="11" lengthAdjust="spacingAndGlyphs" textLength="86" x="394" y="396.9268">-float maxPayload</text><!--MD5=[79eb2d862cef9730b5f9dcab29e35f17]
class Battery--><rect fill="#FEFECE" filter="url(#f34pxrxlbcxbo)" height="95.3438" id="Battery" style="stroke: #A80036; stroke-width: 1.5;" width="111" x="582" y="325"/><ellipse cx="615.9" cy="341" fill="#ADD1B2" rx="11" ry="11" style="stroke: #A80036; stroke-width: 1.0;"/><path d="M617.9,337.5 Q618.1031,337 618.3375,336.75 Q618.5719,336.5 618.8375,336.5 Q619.3063,336.5 619.6031,336.7813 Q619.9,337.0625 619.9,337.7188 L619.9,339.2813 Q619.9,339.9375 619.6188,340.2188 Q619.3375,340.5 618.9,340.5 Q618.5094,340.5 618.2594,340.3281 Q618.0094,340.1563 617.9,339.7031 Q617.8531,339.3906 617.6813,339.2188 Q617.3688,338.8906 616.8063,338.7031 Q616.2438,338.5 615.6813,338.5 Q614.9781,338.5 614.3844,338.7813 Q613.8063,339.0625 613.3531,339.6875 Q612.9,340.3125 612.9,341.1719 L612.9,342.0938 Q612.9,343.125 613.7438,343.8125 Q614.5875,344.5 616.0875,344.5 Q616.9781,344.5 617.6031,344.2969 Q617.9625,344.1875 618.3688,343.8281 Q618.6344,343.625 618.775,343.5625 Q618.9156,343.5 619.0875,343.5 Q619.4156,343.5 619.65,343.7656 Q619.9,344.0156 619.9,344.375 Q619.9,344.7188 619.5563,345.125 Q619.0563,345.7188 618.2594,346.0469 Q617.2125,346.5 615.9313,346.5 Q614.4313,346.5 613.2281,345.9063 Q612.2594,345.4375 611.5719,344.4219 Q610.9,343.4063 610.9,342.2031 L610.9,341.1094 Q610.9,339.8594 611.4938,338.7656 Q612.1031,337.6719 613.15,337.0938 Q614.2125,336.5 615.4,336.5 Q616.1188,336.5 616.7438,336.75 Q617.3688,337 617.9,337.5 Z "/><text fill="#000000" font-family="sans-serif" font-size="12" lengthAdjust="spacingAndGlyphs" textLength="37" x="634.1" y="345.9102">Battery</text><line style="stroke: #A80036; stroke-width: 1.5;" x1="583" x2="692" y1="357" y2="357"/><text fill="#000000" font-family="sans-serif" font-size="11" lengthAdjust="spacingAndGlyphs" textLength="26" x="588" y="372.4189">-int id</text><text fill="#000000" font-family="sans-serif" font-size="11" lengthAdjust="spacingAndGlyphs" textLength="84" x="588" y="386.2549">-float batteryPerc</text><text fill="#000000" font-family="sans-serif" font-size="11" lengthAdjust="spacingAndGlyphs" textLength="94" x="588" y="400.0908">-int batteryCapacity</text><text fill="#000000" font-family="sans-serif" font-size="11" lengthAdjust="spacingAndGlyphs" textLength="99" x="588" y="413.9268">-float batteryVoltage</text><!--MD5=[0f39e4cb6f03951afbf6d14bd2505654]
class Address--><rect fill="#FEFECE" filter="url(#f34pxrxlbcxbo)" height="136.8516" id="Address" style="stroke: #A80036; stroke-width: 1.5;" width="106" x="584.5" y="153"/><ellipse cx="612.1" cy="169" fill="#ADD1B2" rx="11" ry="11" style="stroke: #A80036; stroke-width: 1.0;"/><path d="M614.1,165.5 Q614.3031,165 614.5375,164.75 Q614.7719,164.5 615.0375,164.5 Q615.5063,164.5 615.8031,164.7813 Q616.1,165.0625 616.1,165.7188 L616.1,167.2813 Q616.1,167.9375 615.8188,168.2188 Q615.5375,168.5 615.1,168.5 Q614.7094,168.5 614.4594,168.3281 Q614.2094,168.1563 614.1,167.7031 Q614.0531,167.3906 613.8813,167.2188 Q613.5688,166.8906 613.0063,166.7031 Q612.4438,166.5 611.8813,166.5 Q611.1781,166.5 610.5844,166.7813 Q610.0063,167.0625 609.5531,167.6875 Q609.1,168.3125 609.1,169.1719 L609.1,170.0938 Q609.1,171.125 609.9438,171.8125 Q610.7875,172.5 612.2875,172.5 Q613.1781,172.5 613.8031,172.2969 Q614.1625,172.1875 614.5688,171.8281 Q614.8344,171.625 614.975,171.5625 Q615.1156,171.5 615.2875,171.5 Q615.6156,171.5 615.85,171.7656 Q616.1,172.0156 616.1,172.375 Q616.1,172.7188 615.7563,173.125 Q615.2563,173.7188 614.4594,174.0469 Q613.4125,174.5 612.1313,174.5 Q610.6313,174.5 609.4281,173.9063 Q608.4594,173.4375 607.7719,172.4219 Q607.1,171.4063 607.1,170.2031 L607.1,169.1094 Q607.1,167.8594 607.6938,166.7656 Q608.3031,165.6719 609.35,165.0938 Q610.4125,164.5 611.6,164.5 Q612.3188,164.5 612.9438,164.75 Q613.5688,165 614.1,165.5 Z "/><text fill="#000000" font-family="sans-serif" font-size="12" lengthAdjust="spacingAndGlyphs" textLength="46" x="628.9" y="173.9102">Address</text><line style="stroke: #A80036; stroke-width: 1.5;" x1="585.5" x2="689.5" y1="185" y2="185"/><text fill="#000000" font-family="sans-serif" font-size="11" lengthAdjust="spacingAndGlyphs" textLength="82" x="590.5" y="200.4189">-double longitude</text><text fill="#000000" font-family="sans-serif" font-size="11" lengthAdjust="spacingAndGlyphs" textLength="73" x="590.5" y="214.2549">-double latitude</text><text fill="#000000" font-family="sans-serif" font-size="11" lengthAdjust="spacingAndGlyphs" textLength="94" x="590.5" y="228.0908">-String doorNumber</text><text fill="#000000" font-family="sans-serif" font-size="11" lengthAdjust="spacingAndGlyphs" textLength="90" x="590.5" y="241.9268">-String streetName</text><text fill="#000000" font-family="sans-serif" font-size="11" lengthAdjust="spacingAndGlyphs" textLength="89" x="590.5" y="255.7627">-String postalCode</text><text fill="#000000" font-family="sans-serif" font-size="11" lengthAdjust="spacingAndGlyphs" textLength="68" x="590.5" y="269.5986">-String locality</text><text fill="#000000" font-family="sans-serif" font-size="11" lengthAdjust="spacingAndGlyphs" textLength="72" x="590.5" y="283.4346">-String country</text><!--MD5=[51d7b9a785c9fb041ca400474ed1d998]
link Database to Pharmacy--><path d="M87.2506,251.124 C160.835,244.873 317.661,231.552 393.364,225.122 " fill="none" id="Database-Pharmacy" style="stroke: #A80036; stroke-width: 1.0;"/><text fill="#000000" font-family="sans-serif" font-size="13" lengthAdjust="spacingAndGlyphs" textLength="21" x="199" y="232.9951">has</text><polygon fill="#000000" points="223,226.1758,229,229.1758,223,232.1758,223,226.1758" style="stroke: #000000; stroke-width: 1.0;"/><text fill="#000000" font-family="sans-serif" font-size="13" lengthAdjust="spacingAndGlyphs" textLength="7" x="95.1327" y="265.5089">1</text><text fill="#000000" font-family="sans-serif" font-size="13" lengthAdjust="spacingAndGlyphs" textLength="5" x="380.4344" y="240.6731">*</text><!--MD5=[96117966725c1e8921b92ed7b1677b7b]
link Database to Drone--><path d="M87.1952,268.008 C116.411,277.95 155.627,291.295 182.881,300.57 " fill="none" id="Database-Drone" style="stroke: #A80036; stroke-width: 1.0;"/><text fill="#000000" font-family="sans-serif" font-size="13" lengthAdjust="spacingAndGlyphs" textLength="21" x="118" y="275.9951">has</text><polygon fill="#000000" points="142,269.1758,148,272.1758,142,275.1758,142,269.1758" style="stroke: #000000; stroke-width: 1.0;"/><text fill="#000000" font-family="sans-serif" font-size="13" lengthAdjust="spacingAndGlyphs" textLength="7" x="95.0675" y="285.4003">1</text><text fill="#000000" font-family="sans-serif" font-size="13" lengthAdjust="spacingAndGlyphs" textLength="5" x="170.0893" y="313.4626">*</text><!--MD5=[0b0bc9c7f03600b7866f5e5adba791e4]
link Drone to Pharmacy--><path d="M249.029,303.017 C278.052,294.872 321.704,281.469 358,265.5 C369.812,260.303 382.164,253.851 393.464,247.504 " fill="none" id="Drone-Pharmacy" style="stroke: #A80036; stroke-width: 1.0;"/><text fill="#000000" font-family="sans-serif" font-size="13" lengthAdjust="spacingAndGlyphs" textLength="60" x="282" y="261.9951">belongs to</text><polygon fill="#000000" points="345,255.1758,351,258.1758,345,261.1758,345,255.1758" style="stroke: #000000; stroke-width: 1.0;"/><text fill="#000000" font-family="sans-serif" font-size="13" lengthAdjust="spacingAndGlyphs" textLength="5" x="256.801" y="316.4449">*</text><text fill="#000000" font-family="sans-serif" font-size="13" lengthAdjust="spacingAndGlyphs" textLength="7" x="378.3797" y="266.902">1</text><!--MD5=[3f58d672939e81cd871f2f51e09decba]
link Drone to Vehicle--><path d="M249.175,323.6309 C258.676,326.8761 269.166,330.1349 279,332.5 C315.025,341.1641 356.533,347.0729 387.818,350.7301 " fill="none" id="Drone-Vehicle" style="stroke: #A80036; stroke-width: 1.0;"/><text fill="#000000" font-family="sans-serif" font-size="13" lengthAdjust="spacingAndGlyphs" textLength="64" x="280" y="328.9951">is a type of</text><polygon fill="#000000" points="347,322.1758,353,325.1758,347,328.1758,347,322.1758" style="stroke: #000000; stroke-width: 1.0;"/><text fill="#000000" font-family="sans-serif" font-size="13" lengthAdjust="spacingAndGlyphs" textLength="5" x="256.9789" y="341.5681">*</text><text fill="#000000" font-family="sans-serif" font-size="13" lengthAdjust="spacingAndGlyphs" textLength="7" x="373.0803" y="364.7002">1</text><!--MD5=[074a56c4439d52c76e1cc7a8f9d070a4]
link Vehicle to Battery--><path d="M486.051,359.6152 C514.966,362.0915 551.863,365.2515 581.881,367.8223 " fill="none" id="Vehicle-Battery" style="stroke: #A80036; stroke-width: 1.0;"/><text fill="#000000" font-family="sans-serif" font-size="13" lengthAdjust="spacingAndGlyphs" textLength="21" x="517" y="357.9951">has</text><polygon fill="#000000" points="541,351.1758,547,354.1758,541,357.1758,541,351.1758" style="stroke: #000000; stroke-width: 1.0;"/><text fill="#000000" font-family="sans-serif" font-size="13" lengthAdjust="spacingAndGlyphs" textLength="7" x="494.0979" y="374.9661">1</text><text fill="#000000" font-family="sans-serif" font-size="13" lengthAdjust="spacingAndGlyphs" textLength="7" x="566.9369" y="381.7644">1</text><!--MD5=[89baec1bfb4a213750f7c61516e0a0f1]
link Pharmacy to Address--><path d="M480.583,221.5 C510.999,221.5 552.093,221.5 584.457,221.5 " fill="none" id="Pharmacy-Address" style="stroke: #A80036; stroke-width: 1.0;"/><text fill="#000000" font-family="sans-serif" font-size="13" lengthAdjust="spacingAndGlyphs" textLength="21" x="517" y="217.9951">has</text><polygon fill="#000000" points="541,211.1758,547,214.1758,541,217.1758,541,211.1758" style="stroke: #000000; stroke-width: 1.0;"/><text fill="#000000" font-family="sans-serif" font-size="13" lengthAdjust="spacingAndGlyphs" textLength="7" x="488.3811" y="236.3764">1</text><text fill="#000000" font-family="sans-serif" font-size="13" lengthAdjust="spacingAndGlyphs" textLength="7" x="569.5056" y="236.1553">1</text><!--MD5=[38e089e476d423925ff503e653533f7d]
link Pharmacy to DronePark--><path d="M480.583,193.397 C514.531,170.994 561.78,139.812 595.346,117.659 " fill="none" id="Pharmacy-DronePark" style="stroke: #A80036; stroke-width: 1.0;"/><text fill="#000000" font-family="sans-serif" font-size="13" lengthAdjust="spacingAndGlyphs" textLength="21" x="517" y="143.9951">has</text><polygon fill="#000000" points="541,137.1758,547,140.1758,541,143.1758,541,137.1758" style="stroke: #000000; stroke-width: 1.0;"/><text fill="#000000" font-family="sans-serif" font-size="13" lengthAdjust="spacingAndGlyphs" textLength="7" x="488.3811" y="203.6188">1</text><text fill="#000000" font-family="sans-serif" font-size="13" lengthAdjust="spacingAndGlyphs" textLength="7" x="578.3592" y="138.9015">1</text><!--MD5=[7536b4ac16cca54a78c22aa555a9c2ab]
link DronePark to DroneChargingSlot--><path d="M693.073,78.511 C722.019,72.152 757.865,64.278 788.648,57.515 " fill="none" id="DronePark-DroneChargingSlot" style="stroke: #A80036; stroke-width: 1.0;"/><text fill="#000000" font-family="sans-serif" font-size="13" lengthAdjust="spacingAndGlyphs" textLength="21" x="724" y="60.9951">has</text><polygon fill="#000000" points="748,54.1758,754,57.1758,748,60.1758,748,54.1758" style="stroke: #000000; stroke-width: 1.0;"/><text fill="#000000" font-family="sans-serif" font-size="13" lengthAdjust="spacingAndGlyphs" textLength="7" x="701.0109" y="91.5047">1</text><text fill="#000000" font-family="sans-serif" font-size="13" lengthAdjust="spacingAndGlyphs" textLength="7" x="774.1351" y="73.4186">1</text><!--MD5=[90d11682e395649ab5adc896502c3617]
link DronePark to DroneParkingSlot--><path d="M693.073,102.489 C723.536,109.181 761.641,117.552 793.444,124.538 " fill="none" id="DronePark-DroneParkingSlot" style="stroke: #A80036; stroke-width: 1.0;"/><text fill="#000000" font-family="sans-serif" font-size="13" lengthAdjust="spacingAndGlyphs" textLength="21" x="724" y="105.9951">has</text><polygon fill="#000000" points="748,99.1758,754,102.1758,748,105.1758,748,99.1758" style="stroke: #000000; stroke-width: 1.0;"/><text fill="#000000" font-family="sans-serif" font-size="13" lengthAdjust="spacingAndGlyphs" textLength="7" x="701.0109" y="118.7048">1</text><text fill="#000000" font-family="sans-serif" font-size="13" lengthAdjust="spacingAndGlyphs" textLength="7" x="778.575" y="137.3736">1</text><!--MD5=[58541c33884f33a17bd5dee2a078e64b]
@startuml
skinparam classAttributeIconSize 0
hide methods
left to right direction

database Database {
}

class Pharmacy {
  -int id
  -String name
}

class DronePark{
-   int maxSlotsNumber
}

class DroneChargingSlot{
-   int id
-   float outputPower
}

class DroneParkingSlot{
-   int id
}

class Drone{
}

class Vehicle{
  -int id
  -float potency
  -float weight
  -float maxPayload
}

class Battery{
  -int id
  -float batteryPerc
  -int batteryCapacity
  -float batteryVoltage
}

class Address{
  -double longitude
  -double latitude
  -String doorNumber
  -String streetName
  -String postalCode
  -String locality
  -String country
}



Database "1" - - "*" Pharmacy : has >
Database "1" - - "*" Drone : has >
Drone "*" - - "1" Pharmacy : belongs to >
Drone "*" - - "1" Vehicle : is a type of >
Vehicle "1" - - "1" Battery : has >
Pharmacy "1" - - "1" Address : has >
Pharmacy "1" - - "1" DronePark : has >
DronePark "1" - - "1" DroneChargingSlot : has >
DronePark "1" - - "1" DroneParkingSlot : has >
@enduml

PlantUML version 1.2020.09(Sun May 10 11:51:06 BST 2020)
(GPL source distribution)
Java Runtime: OpenJDK Runtime Environment
JVM: OpenJDK 64-Bit Server VM
Java Version: 11.0.6+8-b765.40
Operating System: Windows 10
Default Encoding: Cp1252
Language: pt
Country: PT
--></g></svg>