<?xml version="1.0" encoding="UTF-8" standalone="no"?><svg xmlns="http://www.w3.org/2000/svg" xmlns:xlink="http://www.w3.org/1999/xlink" contentScriptType="application/ecmascript" contentStyleType="text/css" height="380px" preserveAspectRatio="none" style="width:1212px;height:380px;" version="1.1" viewBox="0 0 1212 380" width="1212px" zoomAndPan="magnify"><defs><filter height="300%" id="f6fcgiz8bc0aw" width="300%" x="-1" y="-1"><feGaussianBlur result="blurOut" stdDeviation="2.0"/><feColorMatrix in="blurOut" result="blurOut2" type="matrix" values="0 0 0 0 0 0 0 0 0 0 0 0 0 0 0 0 0 0 .4 0"/><feOffset dx="4.0" dy="4.0" in="blurOut2" result="blurOut3"/><feBlend in="SourceGraphic" in2="blurOut3" mode="normal"/></filter></defs><g><!--MD5=[fa1e3283224feb76407c84b7e90ed808]
entity Database--><path d="M6,218 C6,208 46.5,208 46.5,208 C46.5,208 87,208 87,218 L87,244.6094 C87,254.6094 46.5,254.6094 46.5,254.6094 C46.5,254.6094 6,254.6094 6,244.6094 L6,218 " fill="#FFFFFF" filter="url(#f6fcgiz8bc0aw)" style="stroke: #000000; stroke-width: 1.5;"/><path d="M6,218 C6,228 46.5,228 46.5,228 C46.5,228 87,228 87,218 " fill="none" style="stroke: #000000; stroke-width: 1.5;"/><text fill="#000000" font-family="sans-serif" font-size="14" lengthAdjust="spacingAndGlyphs" textLength="61" x="16" y="246.5332">Database</text><!--MD5=[7f2a9fafcebe4f099f71398fd3e2ed00]
class Pharmacy--><rect fill="#FEFECE" filter="url(#f6fcgiz8bc0aw)" height="81.5078" id="Pharmacy" style="stroke: #A80036; stroke-width: 1.5;" width="87" x="661" y="151.5"/><ellipse cx="676" cy="167.5" fill="#ADD1B2" rx="11" ry="11" style="stroke: #A80036; stroke-width: 1.0;"/><path d="M678,164 Q678.2031,163.5 678.4375,163.25 Q678.6719,163 678.9375,163 Q679.4063,163 679.7031,163.2813 Q680,163.5625 680,164.2188 L680,165.7813 Q680,166.4375 679.7188,166.7188 Q679.4375,167 679,167 Q678.6094,167 678.3594,166.8281 Q678.1094,166.6563 678,166.2031 Q677.9531,165.8906 677.7813,165.7188 Q677.4688,165.3906 676.9063,165.2031 Q676.3438,165 675.7813,165 Q675.0781,165 674.4844,165.2813 Q673.9063,165.5625 673.4531,166.1875 Q673,166.8125 673,167.6719 L673,168.5938 Q673,169.625 673.8438,170.3125 Q674.6875,171 676.1875,171 Q677.0781,171 677.7031,170.7969 Q678.0625,170.6875 678.4688,170.3281 Q678.7344,170.125 678.875,170.0625 Q679.0156,170 679.1875,170 Q679.5156,170 679.75,170.2656 Q680,170.5156 680,170.875 Q680,171.2188 679.6563,171.625 Q679.1563,172.2188 678.3594,172.5469 Q677.3125,173 676.0313,173 Q674.5313,173 673.3281,172.4063 Q672.3594,171.9375 671.6719,170.9219 Q671,169.9063 671,168.7031 L671,167.6094 Q671,166.3594 671.5938,165.2656 Q672.2031,164.1719 673.25,163.5938 Q674.3125,163 675.5,163 Q676.2188,163 676.8438,163.25 Q677.4688,163.5 678,164 Z "/><text fill="#000000" font-family="sans-serif" font-size="12" lengthAdjust="spacingAndGlyphs" textLength="55" x="690" y="172.4102">Pharmacy</text><line style="stroke: #A80036; stroke-width: 1.5;" x1="662" x2="747" y1="183.5" y2="183.5"/><text fill="#000000" font-family="sans-serif" font-size="11" lengthAdjust="spacingAndGlyphs" textLength="26" x="667" y="198.9189">-int id</text><text fill="#000000" font-family="sans-serif" font-size="11" lengthAdjust="spacingAndGlyphs" textLength="61" x="667" y="212.7549">-String name</text><text fill="#000000" font-family="sans-serif" font-size="11" lengthAdjust="spacingAndGlyphs" textLength="59" x="667" y="226.5908">-String email</text><!--MD5=[b024fca8ac3dd8106de85a4004acf2e0]
class DronePark--><rect fill="#FEFECE" filter="url(#f6fcgiz8bc0aw)" height="53.8359" id="DronePark" style="stroke: #A80036; stroke-width: 1.5;" width="111" x="856" y="63.5"/><ellipse cx="880" cy="79.5" fill="#ADD1B2" rx="11" ry="11" style="stroke: #A80036; stroke-width: 1.0;"/><path d="M882,76 Q882.2031,75.5 882.4375,75.25 Q882.6719,75 882.9375,75 Q883.4063,75 883.7031,75.2813 Q884,75.5625 884,76.2188 L884,77.7813 Q884,78.4375 883.7188,78.7188 Q883.4375,79 883,79 Q882.6094,79 882.3594,78.8281 Q882.1094,78.6563 882,78.2031 Q881.9531,77.8906 881.7813,77.7188 Q881.4688,77.3906 880.9063,77.2031 Q880.3438,77 879.7813,77 Q879.0781,77 878.4844,77.2813 Q877.9063,77.5625 877.4531,78.1875 Q877,78.8125 877,79.6719 L877,80.5938 Q877,81.625 877.8438,82.3125 Q878.6875,83 880.1875,83 Q881.0781,83 881.7031,82.7969 Q882.0625,82.6875 882.4688,82.3281 Q882.7344,82.125 882.875,82.0625 Q883.0156,82 883.1875,82 Q883.5156,82 883.75,82.2656 Q884,82.5156 884,82.875 Q884,83.2188 883.6563,83.625 Q883.1563,84.2188 882.3594,84.5469 Q881.3125,85 880.0313,85 Q878.5313,85 877.3281,84.4063 Q876.3594,83.9375 875.6719,82.9219 Q875,81.9063 875,80.7031 L875,79.6094 Q875,78.3594 875.5938,77.2656 Q876.2031,76.1719 877.25,75.5938 Q878.3125,75 879.5,75 Q880.2188,75 880.8438,75.25 Q881.4688,75.5 882,76 Z "/><text fill="#000000" font-family="sans-serif" font-size="12" lengthAdjust="spacingAndGlyphs" textLength="59" x="896" y="84.4102">DronePark</text><line style="stroke: #A80036; stroke-width: 1.5;" x1="857" x2="966" y1="95.5" y2="95.5"/><text fill="#000000" font-family="sans-serif" font-size="11" lengthAdjust="spacingAndGlyphs" textLength="99" x="862" y="110.9189">-int maxSlotsNumber</text><!--MD5=[fbe13b0c274c50d99f674380efb6c2c4]
class DroneChargingSlot--><rect fill="#FEFECE" filter="url(#f6fcgiz8bc0aw)" height="67.6719" id="DroneChargingSlot" style="stroke: #A80036; stroke-width: 1.5;" width="138" x="1063" y="8.5"/><ellipse cx="1078" cy="24.5" fill="#ADD1B2" rx="11" ry="11" style="stroke: #A80036; stroke-width: 1.0;"/><path d="M1080,21 Q1080.2031,20.5 1080.4375,20.25 Q1080.6719,20 1080.9375,20 Q1081.4063,20 1081.7031,20.2813 Q1082,20.5625 1082,21.2188 L1082,22.7813 Q1082,23.4375 1081.7188,23.7188 Q1081.4375,24 1081,24 Q1080.6094,24 1080.3594,23.8281 Q1080.1094,23.6563 1080,23.2031 Q1079.9531,22.8906 1079.7813,22.7188 Q1079.4688,22.3906 1078.9063,22.2031 Q1078.3438,22 1077.7813,22 Q1077.0781,22 1076.4844,22.2813 Q1075.9063,22.5625 1075.4531,23.1875 Q1075,23.8125 1075,24.6719 L1075,25.5938 Q1075,26.625 1075.8438,27.3125 Q1076.6875,28 1078.1875,28 Q1079.0781,28 1079.7031,27.7969 Q1080.0625,27.6875 1080.4688,27.3281 Q1080.7344,27.125 1080.875,27.0625 Q1081.0156,27 1081.1875,27 Q1081.5156,27 1081.75,27.2656 Q1082,27.5156 1082,27.875 Q1082,28.2188 1081.6563,28.625 Q1081.1563,29.2188 1080.3594,29.5469 Q1079.3125,30 1078.0313,30 Q1076.5313,30 1075.3281,29.4063 Q1074.3594,28.9375 1073.6719,27.9219 Q1073,26.9063 1073,25.7031 L1073,24.6094 Q1073,23.3594 1073.5938,22.2656 Q1074.2031,21.1719 1075.25,20.5938 Q1076.3125,20 1077.5,20 Q1078.2188,20 1078.8438,20.25 Q1079.4688,20.5 1080,21 Z "/><text fill="#000000" font-family="sans-serif" font-size="12" lengthAdjust="spacingAndGlyphs" textLength="106" x="1092" y="29.4102">DroneChargingSlot</text><line style="stroke: #A80036; stroke-width: 1.5;" x1="1064" x2="1200" y1="40.5" y2="40.5"/><text fill="#000000" font-family="sans-serif" font-size="11" lengthAdjust="spacingAndGlyphs" textLength="26" x="1069" y="55.9189">-int id</text><text fill="#000000" font-family="sans-serif" font-size="11" lengthAdjust="spacingAndGlyphs" textLength="90" x="1069" y="69.7549">-float outputPower</text><!--MD5=[9b53198e8727c85f4d6d8ebbe9b70e18]
class DroneParkingSlot--><rect fill="#FEFECE" filter="url(#f6fcgiz8bc0aw)" height="53.8359" id="DroneParkingSlot" style="stroke: #A80036; stroke-width: 1.5;" width="129" x="1067.5" y="111.5"/><ellipse cx="1082.5" cy="127.5" fill="#ADD1B2" rx="11" ry="11" style="stroke: #A80036; stroke-width: 1.0;"/><path d="M1084.5,124 Q1084.7031,123.5 1084.9375,123.25 Q1085.1719,123 1085.4375,123 Q1085.9063,123 1086.2031,123.2813 Q1086.5,123.5625 1086.5,124.2188 L1086.5,125.7813 Q1086.5,126.4375 1086.2188,126.7188 Q1085.9375,127 1085.5,127 Q1085.1094,127 1084.8594,126.8281 Q1084.6094,126.6563 1084.5,126.2031 Q1084.4531,125.8906 1084.2813,125.7188 Q1083.9688,125.3906 1083.4063,125.2031 Q1082.8438,125 1082.2813,125 Q1081.5781,125 1080.9844,125.2813 Q1080.4063,125.5625 1079.9531,126.1875 Q1079.5,126.8125 1079.5,127.6719 L1079.5,128.5938 Q1079.5,129.625 1080.3438,130.3125 Q1081.1875,131 1082.6875,131 Q1083.5781,131 1084.2031,130.7969 Q1084.5625,130.6875 1084.9688,130.3281 Q1085.2344,130.125 1085.375,130.0625 Q1085.5156,130 1085.6875,130 Q1086.0156,130 1086.25,130.2656 Q1086.5,130.5156 1086.5,130.875 Q1086.5,131.2188 1086.1563,131.625 Q1085.6563,132.2188 1084.8594,132.5469 Q1083.8125,133 1082.5313,133 Q1081.0313,133 1079.8281,132.4063 Q1078.8594,131.9375 1078.1719,130.9219 Q1077.5,129.9063 1077.5,128.7031 L1077.5,127.6094 Q1077.5,126.3594 1078.0938,125.2656 Q1078.7031,124.1719 1079.75,123.5938 Q1080.8125,123 1082,123 Q1082.7188,123 1083.3438,123.25 Q1083.9688,123.5 1084.5,124 Z "/><text fill="#000000" font-family="sans-serif" font-size="12" lengthAdjust="spacingAndGlyphs" textLength="97" x="1096.5" y="132.4102">DroneParkingSlot</text><line style="stroke: #A80036; stroke-width: 1.5;" x1="1068.5" x2="1195.5" y1="143.5" y2="143.5"/><text fill="#000000" font-family="sans-serif" font-size="11" lengthAdjust="spacingAndGlyphs" textLength="26" x="1073.5" y="158.9189">-int id</text><!--MD5=[2e3f1e60e74253ff42e47f8bfdb04ee2]
class Drone--><rect fill="#FEFECE" filter="url(#f6fcgiz8bc0aw)" height="40" id="Drone" style="stroke: #A80036; stroke-width: 1.5;" width="66" x="183" y="260.5"/><ellipse cx="198" cy="276.5" fill="#ADD1B2" rx="11" ry="11" style="stroke: #A80036; stroke-width: 1.0;"/><path d="M200,273 Q200.2031,272.5 200.4375,272.25 Q200.6719,272 200.9375,272 Q201.4063,272 201.7031,272.2813 Q202,272.5625 202,273.2188 L202,274.7813 Q202,275.4375 201.7188,275.7188 Q201.4375,276 201,276 Q200.6094,276 200.3594,275.8281 Q200.1094,275.6563 200,275.2031 Q199.9531,274.8906 199.7813,274.7188 Q199.4688,274.3906 198.9063,274.2031 Q198.3438,274 197.7813,274 Q197.0781,274 196.4844,274.2813 Q195.9063,274.5625 195.4531,275.1875 Q195,275.8125 195,276.6719 L195,277.5938 Q195,278.625 195.8438,279.3125 Q196.6875,280 198.1875,280 Q199.0781,280 199.7031,279.7969 Q200.0625,279.6875 200.4688,279.3281 Q200.7344,279.125 200.875,279.0625 Q201.0156,279 201.1875,279 Q201.5156,279 201.75,279.2656 Q202,279.5156 202,279.875 Q202,280.2188 201.6563,280.625 Q201.1563,281.2188 200.3594,281.5469 Q199.3125,282 198.0313,282 Q196.5313,282 195.3281,281.4063 Q194.3594,280.9375 193.6719,279.9219 Q193,278.9063 193,277.7031 L193,276.6094 Q193,275.3594 193.5938,274.2656 Q194.2031,273.1719 195.25,272.5938 Q196.3125,272 197.5,272 Q198.2188,272 198.8438,272.25 Q199.4688,272.5 200,273 Z "/><text fill="#000000" font-family="sans-serif" font-size="12" lengthAdjust="spacingAndGlyphs" textLength="34" x="212" y="281.4102">Drone</text><line style="stroke: #A80036; stroke-width: 1.5;" x1="184" x2="248" y1="292.5" y2="292.5"/><!--MD5=[3aa0d89c6bfdcbf7f32042cedac57549]
class Vehicle--><rect fill="#FEFECE" filter="url(#f6fcgiz8bc0aw)" height="123.0156" id="Vehicle" style="stroke: #A80036; stroke-width: 1.5;" width="126" x="388" y="246"/><ellipse cx="427.3" cy="262" fill="#ADD1B2" rx="11" ry="11" style="stroke: #A80036; stroke-width: 1.0;"/><path d="M429.3,258.5 Q429.5031,258 429.7375,257.75 Q429.9719,257.5 430.2375,257.5 Q430.7063,257.5 431.0031,257.7813 Q431.3,258.0625 431.3,258.7188 L431.3,260.2813 Q431.3,260.9375 431.0188,261.2188 Q430.7375,261.5 430.3,261.5 Q429.9094,261.5 429.6594,261.3281 Q429.4094,261.1563 429.3,260.7031 Q429.2531,260.3906 429.0813,260.2188 Q428.7688,259.8906 428.2063,259.7031 Q427.6438,259.5 427.0813,259.5 Q426.3781,259.5 425.7844,259.7813 Q425.2063,260.0625 424.7531,260.6875 Q424.3,261.3125 424.3,262.1719 L424.3,263.0938 Q424.3,264.125 425.1438,264.8125 Q425.9875,265.5 427.4875,265.5 Q428.3781,265.5 429.0031,265.2969 Q429.3625,265.1875 429.7688,264.8281 Q430.0344,264.625 430.175,264.5625 Q430.3156,264.5 430.4875,264.5 Q430.8156,264.5 431.05,264.7656 Q431.3,265.0156 431.3,265.375 Q431.3,265.7188 430.9563,266.125 Q430.4563,266.7188 429.6594,267.0469 Q428.6125,267.5 427.3313,267.5 Q425.8313,267.5 424.6281,266.9063 Q423.6594,266.4375 422.9719,265.4219 Q422.3,264.4063 422.3,263.2031 L422.3,262.1094 Q422.3,260.8594 422.8938,259.7656 Q423.5031,258.6719 424.55,258.0938 Q425.6125,257.5 426.8,257.5 Q427.5188,257.5 428.1438,257.75 Q428.7688,258 429.3,258.5 Z "/><text fill="#000000" font-family="sans-serif" font-size="12" lengthAdjust="spacingAndGlyphs" textLength="40" x="446.7" y="266.9102">Vehicle</text><line style="stroke: #A80036; stroke-width: 1.5;" x1="389" x2="513" y1="278" y2="278"/><text fill="#000000" font-family="sans-serif" font-size="11" lengthAdjust="spacingAndGlyphs" textLength="26" x="394" y="293.4189">-int id</text><text fill="#000000" font-family="sans-serif" font-size="11" lengthAdjust="spacingAndGlyphs" textLength="93" x="394" y="307.2549">-String vehicleType</text><text fill="#000000" font-family="sans-serif" font-size="11" lengthAdjust="spacingAndGlyphs" textLength="67" x="394" y="321.0908">-float potency</text><text fill="#000000" font-family="sans-serif" font-size="11" lengthAdjust="spacingAndGlyphs" textLength="61" x="394" y="334.9268">-float weight</text><text fill="#000000" font-family="sans-serif" font-size="11" lengthAdjust="spacingAndGlyphs" textLength="86" x="394" y="348.7627">-float maxPayload</text><text fill="#000000" font-family="sans-serif" font-size="11" lengthAdjust="spacingAndGlyphs" textLength="114" x="394" y="362.5986">-String charngingStatus</text><!--MD5=[79eb2d862cef9730b5f9dcab29e35f17]
class Battery--><rect fill="#FEFECE" filter="url(#f6fcgiz8bc0aw)" height="95.3438" id="Battery" style="stroke: #A80036; stroke-width: 1.5;" width="111" x="649" y="269"/><ellipse cx="682.9" cy="285" fill="#ADD1B2" rx="11" ry="11" style="stroke: #A80036; stroke-width: 1.0;"/><path d="M684.9,281.5 Q685.1031,281 685.3375,280.75 Q685.5719,280.5 685.8375,280.5 Q686.3063,280.5 686.6031,280.7813 Q686.9,281.0625 686.9,281.7188 L686.9,283.2813 Q686.9,283.9375 686.6188,284.2188 Q686.3375,284.5 685.9,284.5 Q685.5094,284.5 685.2594,284.3281 Q685.0094,284.1563 684.9,283.7031 Q684.8531,283.3906 684.6813,283.2188 Q684.3688,282.8906 683.8063,282.7031 Q683.2438,282.5 682.6813,282.5 Q681.9781,282.5 681.3844,282.7813 Q680.8063,283.0625 680.3531,283.6875 Q679.9,284.3125 679.9,285.1719 L679.9,286.0938 Q679.9,287.125 680.7438,287.8125 Q681.5875,288.5 683.0875,288.5 Q683.9781,288.5 684.6031,288.2969 Q684.9625,288.1875 685.3688,287.8281 Q685.6344,287.625 685.775,287.5625 Q685.9156,287.5 686.0875,287.5 Q686.4156,287.5 686.65,287.7656 Q686.9,288.0156 686.9,288.375 Q686.9,288.7188 686.5563,289.125 Q686.0563,289.7188 685.2594,290.0469 Q684.2125,290.5 682.9313,290.5 Q681.4313,290.5 680.2281,289.9063 Q679.2594,289.4375 678.5719,288.4219 Q677.9,287.4063 677.9,286.2031 L677.9,285.1094 Q677.9,283.8594 678.4938,282.7656 Q679.1031,281.6719 680.15,281.0938 Q681.2125,280.5 682.4,280.5 Q683.1188,280.5 683.7438,280.75 Q684.3688,281 684.9,281.5 Z "/><text fill="#000000" font-family="sans-serif" font-size="12" lengthAdjust="spacingAndGlyphs" textLength="37" x="701.1" y="289.9102">Battery</text><line style="stroke: #A80036; stroke-width: 1.5;" x1="650" x2="759" y1="301" y2="301"/><text fill="#000000" font-family="sans-serif" font-size="11" lengthAdjust="spacingAndGlyphs" textLength="26" x="655" y="316.4189">-int id</text><text fill="#000000" font-family="sans-serif" font-size="11" lengthAdjust="spacingAndGlyphs" textLength="84" x="655" y="330.2549">-float batteryPerc</text><text fill="#000000" font-family="sans-serif" font-size="11" lengthAdjust="spacingAndGlyphs" textLength="94" x="655" y="344.0908">-int batteryCapacity</text><text fill="#000000" font-family="sans-serif" font-size="11" lengthAdjust="spacingAndGlyphs" textLength="99" x="655" y="357.9268">-float batteryVoltage</text><!--MD5=[0f39e4cb6f03951afbf6d14bd2505654]
class Address--><rect fill="#FEFECE" filter="url(#f6fcgiz8bc0aw)" height="136.8516" id="Address" style="stroke: #A80036; stroke-width: 1.5;" width="106" x="858.5" y="153"/><ellipse cx="886.1" cy="169" fill="#ADD1B2" rx="11" ry="11" style="stroke: #A80036; stroke-width: 1.0;"/><path d="M888.1,165.5 Q888.3031,165 888.5375,164.75 Q888.7719,164.5 889.0375,164.5 Q889.5063,164.5 889.8031,164.7813 Q890.1,165.0625 890.1,165.7188 L890.1,167.2813 Q890.1,167.9375 889.8188,168.2188 Q889.5375,168.5 889.1,168.5 Q888.7094,168.5 888.4594,168.3281 Q888.2094,168.1563 888.1,167.7031 Q888.0531,167.3906 887.8813,167.2188 Q887.5688,166.8906 887.0063,166.7031 Q886.4438,166.5 885.8813,166.5 Q885.1781,166.5 884.5844,166.7813 Q884.0063,167.0625 883.5531,167.6875 Q883.1,168.3125 883.1,169.1719 L883.1,170.0938 Q883.1,171.125 883.9438,171.8125 Q884.7875,172.5 886.2875,172.5 Q887.1781,172.5 887.8031,172.2969 Q888.1625,172.1875 888.5688,171.8281 Q888.8344,171.625 888.975,171.5625 Q889.1156,171.5 889.2875,171.5 Q889.6156,171.5 889.85,171.7656 Q890.1,172.0156 890.1,172.375 Q890.1,172.7188 889.7563,173.125 Q889.2563,173.7188 888.4594,174.0469 Q887.4125,174.5 886.1313,174.5 Q884.6313,174.5 883.4281,173.9063 Q882.4594,173.4375 881.7719,172.4219 Q881.1,171.4063 881.1,170.2031 L881.1,169.1094 Q881.1,167.8594 881.6938,166.7656 Q882.3031,165.6719 883.35,165.0938 Q884.4125,164.5 885.6,164.5 Q886.3188,164.5 886.9438,164.75 Q887.5688,165 888.1,165.5 Z "/><text fill="#000000" font-family="sans-serif" font-size="12" lengthAdjust="spacingAndGlyphs" textLength="46" x="902.9" y="173.9102">Address</text><line style="stroke: #A80036; stroke-width: 1.5;" x1="859.5" x2="963.5" y1="185" y2="185"/><text fill="#000000" font-family="sans-serif" font-size="11" lengthAdjust="spacingAndGlyphs" textLength="82" x="864.5" y="200.4189">-double longitude</text><text fill="#000000" font-family="sans-serif" font-size="11" lengthAdjust="spacingAndGlyphs" textLength="73" x="864.5" y="214.2549">-double latitude</text><text fill="#000000" font-family="sans-serif" font-size="11" lengthAdjust="spacingAndGlyphs" textLength="94" x="864.5" y="228.0908">-String doorNumber</text><text fill="#000000" font-family="sans-serif" font-size="11" lengthAdjust="spacingAndGlyphs" textLength="90" x="864.5" y="241.9268">-String streetName</text><text fill="#000000" font-family="sans-serif" font-size="11" lengthAdjust="spacingAndGlyphs" textLength="89" x="864.5" y="255.7627">-String postalCode</text><text fill="#000000" font-family="sans-serif" font-size="11" lengthAdjust="spacingAndGlyphs" textLength="68" x="864.5" y="269.5986">-String locality</text><text fill="#000000" font-family="sans-serif" font-size="11" lengthAdjust="spacingAndGlyphs" textLength="72" x="864.5" y="283.4346">-String country</text><!--MD5=[51d7b9a785c9fb041ca400474ed1d998]
link Database to Pharmacy--><path d="M87.1868,228.549 C96.934,227.851 107.343,227.127 117,226.5 C320.559,213.278 564.028,199.963 660.805,194.771 " fill="none" id="Database-Pharmacy" style="stroke: #A80036; stroke-width: 1.0;"/><text fill="#000000" font-family="sans-serif" font-size="13" lengthAdjust="spacingAndGlyphs" textLength="21" x="301.5" y="207.9951">has</text><polygon fill="#000000" points="325.5,201.1758,331.5,204.1758,325.5,207.1758,325.5,201.1758" style="stroke: #000000; stroke-width: 1.0;"/><text fill="#000000" font-family="sans-serif" font-size="13" lengthAdjust="spacingAndGlyphs" textLength="7" x="95.0576" y="224.1596">1</text><text fill="#000000" font-family="sans-serif" font-size="13" lengthAdjust="spacingAndGlyphs" textLength="5" x="647.8652" y="210.104">*</text><!--MD5=[96117966725c1e8921b92ed7b1677b7b]
link Database to Drone--><path d="M87.1952,243.112 C116.411,251.659 155.627,263.131 182.881,271.1039 " fill="none" id="Database-Drone" style="stroke: #A80036; stroke-width: 1.0;"/><text fill="#000000" font-family="sans-serif" font-size="13" lengthAdjust="spacingAndGlyphs" textLength="21" x="118" y="248.9951">has</text><polygon fill="#000000" points="142,242.1758,148,245.1758,142,248.1758,142,242.1758" style="stroke: #000000; stroke-width: 1.0;"/><text fill="#000000" font-family="sans-serif" font-size="13" lengthAdjust="spacingAndGlyphs" textLength="7" x="95.0675" y="260.1666">1</text><text fill="#000000" font-family="sans-serif" font-size="13" lengthAdjust="spacingAndGlyphs" textLength="5" x="170.0893" y="284.3321">*</text><!--MD5=[9793812679a856b96e8ba34e2675abcc]
link Vehicle to Pharmacy--><path d="M514.372,282.3402 C545.981,269.2476 584.812,252.638 619,236.5 C632.761,230.004 647.544,222.495 660.838,215.539 " fill="none" id="Vehicle-Pharmacy" style="stroke: #A80036; stroke-width: 1.0;"/><text fill="#000000" font-family="sans-serif" font-size="13" lengthAdjust="spacingAndGlyphs" textLength="60" x="545" y="232.9951">belongs to</text><polygon fill="#000000" points="608,226.1758,614,229.1758,608,232.1758,608,226.1758" style="stroke: #000000; stroke-width: 1.0;"/><text fill="#000000" font-family="sans-serif" font-size="13" lengthAdjust="spacingAndGlyphs" textLength="5" x="521.9885" y="293.8706">*</text><text fill="#000000" font-family="sans-serif" font-size="13" lengthAdjust="spacingAndGlyphs" textLength="7" x="646.0268" y="234.2448">1</text><!--MD5=[3f58d672939e81cd871f2f51e09decba]
link Drone to Vehicle--><path d="M249.398,284.2542 C285.035,288.3839 343.154,295.1187 387.685,300.2789 " fill="none" id="Drone-Vehicle" style="stroke: #A80036; stroke-width: 1.0;"/><text fill="#000000" font-family="sans-serif" font-size="13" lengthAdjust="spacingAndGlyphs" textLength="64" x="280" y="283.9951">is a type of</text><polygon fill="#000000" points="347,277.1758,353,280.1758,347,283.1758,347,277.1758" style="stroke: #000000; stroke-width: 1.0;"/><text fill="#000000" font-family="sans-serif" font-size="13" lengthAdjust="spacingAndGlyphs" textLength="5" x="256.802" y="300.2099">*</text><text fill="#000000" font-family="sans-serif" font-size="13" lengthAdjust="spacingAndGlyphs" textLength="7" x="372.9595" y="313.8835">1</text><!--MD5=[074a56c4439d52c76e1cc7a8f9d070a4]
link Vehicle to Battery--><path d="M514.169,309.7247 C555.48,311.203 609.214,313.126 648.88,314.5454 " fill="none" id="Vehicle-Battery" style="stroke: #A80036; stroke-width: 1.0;"/><text fill="#000000" font-family="sans-serif" font-size="13" lengthAdjust="spacingAndGlyphs" textLength="21" x="564.5" y="306.9951">has</text><polygon fill="#000000" points="588.5,300.1758,594.5,303.1758,588.5,306.1758,588.5,300.1758" style="stroke: #000000; stroke-width: 1.0;"/><text fill="#000000" font-family="sans-serif" font-size="13" lengthAdjust="spacingAndGlyphs" textLength="7" x="521.8776" y="324.4215">1</text><text fill="#000000" font-family="sans-serif" font-size="13" lengthAdjust="spacingAndGlyphs" textLength="7" x="633.9358" y="328.8534">1</text><!--MD5=[89baec1bfb4a213750f7c61516e0a0f1]
link Pharmacy to Address--><path d="M748.475,198.579 C780.527,203.114 824.463,209.329 858.498,214.144 " fill="none" id="Pharmacy-Address" style="stroke: #A80036; stroke-width: 1.0;"/><text fill="#000000" font-family="sans-serif" font-size="13" lengthAdjust="spacingAndGlyphs" textLength="21" x="791" y="200.9951">has</text><polygon fill="#000000" points="815,194.1758,821,197.1758,815,200.1758,815,194.1758" style="stroke: #000000; stroke-width: 1.0;"/><text fill="#000000" font-family="sans-serif" font-size="13" lengthAdjust="spacingAndGlyphs" textLength="7" x="756.0413" y="214.3852">1</text><text fill="#000000" font-family="sans-serif" font-size="13" lengthAdjust="spacingAndGlyphs" textLength="7" x="843.5524" y="227.7648">1</text><!--MD5=[38e089e476d423925ff503e653533f7d]
link Pharmacy to DronePark--><path d="M748.475,171.117 C779.705,155.578 822.218,134.426 855.86,117.687 " fill="none" id="Pharmacy-DronePark" style="stroke: #A80036; stroke-width: 1.0;"/><text fill="#000000" font-family="sans-serif" font-size="13" lengthAdjust="spacingAndGlyphs" textLength="21" x="791" y="130.9951">has</text><polygon fill="#000000" points="815,124.1758,821,127.1758,815,130.1758,815,124.1758" style="stroke: #000000; stroke-width: 1.0;"/><text fill="#000000" font-family="sans-serif" font-size="13" lengthAdjust="spacingAndGlyphs" textLength="7" x="756.0413" y="182.5464">1</text><text fill="#000000" font-family="sans-serif" font-size="13" lengthAdjust="spacingAndGlyphs" textLength="7" x="840.9131" y="135.945">1</text><!--MD5=[7536b4ac16cca54a78c22aa555a9c2ab]
link DronePark to DroneChargingSlot--><path d="M967.073,78.511 C996.019,72.152 1031.87,64.278 1062.65,57.515 " fill="none" id="DronePark-DroneChargingSlot" style="stroke: #A80036; stroke-width: 1.0;"/><text fill="#000000" font-family="sans-serif" font-size="13" lengthAdjust="spacingAndGlyphs" textLength="21" x="998" y="60.9951">has</text><polygon fill="#000000" points="1022,54.1758,1028,57.1758,1022,60.1758,1022,54.1758" style="stroke: #000000; stroke-width: 1.0;"/><text fill="#000000" font-family="sans-serif" font-size="13" lengthAdjust="spacingAndGlyphs" textLength="7" x="975.0109" y="91.5047">1</text><text fill="#000000" font-family="sans-serif" font-size="13" lengthAdjust="spacingAndGlyphs" textLength="7" x="1048.1373" y="73.4186">1</text><!--MD5=[90d11682e395649ab5adc896502c3617]
link DronePark to DroneParkingSlot--><path d="M967.073,102.489 C997.536,109.181 1035.64,117.552 1067.44,124.538 " fill="none" id="DronePark-DroneParkingSlot" style="stroke: #A80036; stroke-width: 1.0;"/><text fill="#000000" font-family="sans-serif" font-size="13" lengthAdjust="spacingAndGlyphs" textLength="21" x="998" y="105.9951">has</text><polygon fill="#000000" points="1022,99.1758,1028,102.1758,1022,105.1758,1022,99.1758" style="stroke: #000000; stroke-width: 1.0;"/><text fill="#000000" font-family="sans-serif" font-size="13" lengthAdjust="spacingAndGlyphs" textLength="7" x="975.0109" y="118.7048">1</text><text fill="#000000" font-family="sans-serif" font-size="13" lengthAdjust="spacingAndGlyphs" textLength="7" x="1052.5706" y="137.3736">1</text><!--MD5=[8304a47699093c0edcab36d149626896]
@startuml
skinparam classAttributeIconSize 0
hide methods
left to right direction

database Database {
}

class Pharmacy {
  -int id
  -String name
-   String email
}

class DronePark{
-   int maxSlotsNumber
}

class DroneChargingSlot{
-   int id
-   float outputPower
}

class DroneParkingSlot{
-   int id
}

class Drone{
}

class Vehicle{
  -int id
  -String vehicleType
  -float potency
  -float weight
  -float maxPayload
  -String charngingStatus
}

class Battery{
  -int id
  -float batteryPerc
  -int batteryCapacity
  -float batteryVoltage
}

class Address{
  -double longitude
  -double latitude
  -String doorNumber
  -String streetName
  -String postalCode
  -String locality
  -String country
}



Database "1" - - "*" Pharmacy : has >
Database "1" - - "*" Drone : has >
Vehicle "*" - - "1" Pharmacy : belongs to >
Drone "*" - - "1" Vehicle : is a type of >
Vehicle "1" - - "1" Battery : has >
Pharmacy "1" - - "1" Address : has >
Pharmacy "1" - - "1" DronePark : has >
DronePark "1" - - "1" DroneChargingSlot : has >
DronePark "1" - - "1" DroneParkingSlot : has >
@enduml

PlantUML version 1.2020.09(Sun May 10 11:51:06 BST 2020)
(GPL source distribution)
Java Runtime: OpenJDK Runtime Environment
JVM: OpenJDK 64-Bit Server VM
Java Version: 11.0.6+8-b765.40
Operating System: Windows 10
Default Encoding: Cp1252
Language: pt
Country: PT
--></g></svg>