<?xml version="1.0" encoding="UTF-8" standalone="no"?><svg xmlns="http://www.w3.org/2000/svg" xmlns:xlink="http://www.w3.org/1999/xlink" contentScriptType="application/ecmascript" contentStyleType="text/css" height="199px" preserveAspectRatio="none" style="width:767px;height:199px;" version="1.1" viewBox="0 0 767 199" width="767px" zoomAndPan="magnify"><defs><filter height="300%" id="fjfw7s74diqms" width="300%" x="-1" y="-1"><feGaussianBlur result="blurOut" stdDeviation="2.0"/><feColorMatrix in="blurOut" result="blurOut2" type="matrix" values="0 0 0 0 0 0 0 0 0 0 0 0 0 0 0 0 0 0 .4 0"/><feOffset dx="4.0" dy="4.0" in="blurOut2" result="blurOut3"/><feBlend in="SourceGraphic" in2="blurOut3" mode="normal"/></filter></defs><g><!--MD5=[99b8db98afdc2c8404e39242ef4c1e65]
class Platform--><rect codeLine="5" fill="#FEFECE" filter="url(#fjfw7s74diqms)" height="53.8359" id="Platform" style="stroke:#A80036;stroke-width:1.5;" width="102" x="7" y="21"/><ellipse cx="32.8" cy="37" fill="#ADD1B2" rx="11" ry="11" style="stroke:#A80036;stroke-width:1.0;"/><path d="M34.8,33.5 Q35.0031,33 35.2375,32.75 Q35.4719,32.5 35.7375,32.5 Q36.2063,32.5 36.5031,32.7813 Q36.8,33.0625 36.8,33.7188 L36.8,35.2813 Q36.8,35.9375 36.5188,36.2188 Q36.2375,36.5 35.8,36.5 Q35.4094,36.5 35.1594,36.3281 Q34.9094,36.1563 34.8,35.7031 Q34.7531,35.3906 34.5813,35.2188 Q34.2688,34.8906 33.7063,34.7031 Q33.1438,34.5 32.5813,34.5 Q31.8781,34.5 31.2844,34.7813 Q30.7062,35.0625 30.2531,35.6875 Q29.8,36.3125 29.8,37.1719 L29.8,38.0938 Q29.8,39.125 30.6437,39.8125 Q31.4875,40.5 32.9875,40.5 Q33.8781,40.5 34.5031,40.2969 Q34.8625,40.1875 35.2688,39.8281 Q35.5344,39.625 35.675,39.5625 Q35.8156,39.5 35.9875,39.5 Q36.3156,39.5 36.55,39.7656 Q36.8,40.0156 36.8,40.375 Q36.8,40.7188 36.4563,41.125 Q35.9563,41.7188 35.1594,42.0469 Q34.1125,42.5 32.8313,42.5 Q31.3312,42.5 30.1281,41.9063 Q29.1594,41.4375 28.4719,40.4219 Q27.8,39.4063 27.8,38.2031 L27.8,37.1094 Q27.8,35.8594 28.3937,34.7656 Q29.0031,33.6719 30.05,33.0938 Q31.1125,32.5 32.3,32.5 Q33.0188,32.5 33.6438,32.75 Q34.2688,33 34.8,33.5 Z " fill="#000000"/><text fill="#000000" font-family="sans-serif" font-size="12" lengthAdjust="spacingAndGlyphs" textLength="46" x="49.2" y="41.9102">Platform</text><line style="stroke:#A80036;stroke-width:1.5;" x1="8" x2="108" y1="53" y2="53"/><text fill="#000000" font-family="sans-serif" font-size="11" lengthAdjust="spacingAndGlyphs" textLength="90" x="13" y="68.4189">-String designation</text><!--MD5=[c6a2171c11447acbe08a3dfeee0e1710]
class Courier--><rect codeLine="8" fill="#FEFECE" filter="url(#fjfw7s74diqms)" height="67.6719" id="Courier" style="stroke:#A80036;stroke-width:1.5;" width="73" x="465" y="14"/><ellipse cx="480" cy="30" fill="#ADD1B2" rx="11" ry="11" style="stroke:#A80036;stroke-width:1.0;"/><path d="M482,26.5 Q482.2031,26 482.4375,25.75 Q482.6719,25.5 482.9375,25.5 Q483.4063,25.5 483.7031,25.7813 Q484,26.0625 484,26.7188 L484,28.2813 Q484,28.9375 483.7188,29.2188 Q483.4375,29.5 483,29.5 Q482.6094,29.5 482.3594,29.3281 Q482.1094,29.1563 482,28.7031 Q481.9531,28.3906 481.7813,28.2188 Q481.4688,27.8906 480.9063,27.7031 Q480.3438,27.5 479.7813,27.5 Q479.0781,27.5 478.4844,27.7813 Q477.9063,28.0625 477.4531,28.6875 Q477,29.3125 477,30.1719 L477,31.0938 Q477,32.125 477.8438,32.8125 Q478.6875,33.5 480.1875,33.5 Q481.0781,33.5 481.7031,33.2969 Q482.0625,33.1875 482.4688,32.8281 Q482.7344,32.625 482.875,32.5625 Q483.0156,32.5 483.1875,32.5 Q483.5156,32.5 483.75,32.7656 Q484,33.0156 484,33.375 Q484,33.7188 483.6563,34.125 Q483.1563,34.7188 482.3594,35.0469 Q481.3125,35.5 480.0313,35.5 Q478.5313,35.5 477.3281,34.9063 Q476.3594,34.4375 475.6719,33.4219 Q475,32.4063 475,31.2031 L475,30.1094 Q475,28.8594 475.5938,27.7656 Q476.2031,26.6719 477.25,26.0938 Q478.3125,25.5 479.5,25.5 Q480.2188,25.5 480.8438,25.75 Q481.4688,26 482,26.5 Z " fill="#000000"/><text fill="#000000" font-family="sans-serif" font-size="12" lengthAdjust="spacingAndGlyphs" textLength="41" x="494" y="34.9102">Courier</text><line style="stroke:#A80036;stroke-width:1.5;" x1="466" x2="537" y1="46" y2="46"/><text fill="#000000" font-family="sans-serif" font-size="11" lengthAdjust="spacingAndGlyphs" textLength="43" x="471" y="61.4189">-String id</text><text fill="#000000" font-family="sans-serif" font-size="11" lengthAdjust="spacingAndGlyphs" textLength="55" x="471" y="75.2549">-String iban</text><!--MD5=[3fd616f346a44cd59a91eb10b19e157c]
class User--><rect codeLine="12" fill="#FEFECE" filter="url(#fjfw7s74diqms)" height="81.5078" id="User" style="stroke:#A80036;stroke-width:1.5;" width="97" x="656" y="7"/><ellipse cx="688.1" cy="23" fill="#ADD1B2" rx="11" ry="11" style="stroke:#A80036;stroke-width:1.0;"/><path d="M690.1,19.5 Q690.3031,19 690.5375,18.75 Q690.7719,18.5 691.0375,18.5 Q691.5063,18.5 691.8031,18.7813 Q692.1,19.0625 692.1,19.7188 L692.1,21.2813 Q692.1,21.9375 691.8188,22.2188 Q691.5375,22.5 691.1,22.5 Q690.7094,22.5 690.4594,22.3281 Q690.2094,22.1563 690.1,21.7031 Q690.0531,21.3906 689.8813,21.2188 Q689.5688,20.8906 689.0063,20.7031 Q688.4438,20.5 687.8813,20.5 Q687.1781,20.5 686.5844,20.7813 Q686.0063,21.0625 685.5531,21.6875 Q685.1,22.3125 685.1,23.1719 L685.1,24.0938 Q685.1,25.125 685.9438,25.8125 Q686.7875,26.5 688.2875,26.5 Q689.1781,26.5 689.8031,26.2969 Q690.1625,26.1875 690.5688,25.8281 Q690.8344,25.625 690.975,25.5625 Q691.1156,25.5 691.2875,25.5 Q691.6156,25.5 691.85,25.7656 Q692.1,26.0156 692.1,26.375 Q692.1,26.7188 691.7563,27.125 Q691.2563,27.7188 690.4594,28.0469 Q689.4125,28.5 688.1313,28.5 Q686.6313,28.5 685.4281,27.9063 Q684.4594,27.4375 683.7719,26.4219 Q683.1,25.4063 683.1,24.2031 L683.1,23.1094 Q683.1,21.8594 683.6938,20.7656 Q684.3031,19.6719 685.35,19.0938 Q686.4125,18.5 687.6,18.5 Q688.3188,18.5 688.9438,18.75 Q689.5688,19 690.1,19.5 Z " fill="#000000"/><text fill="#000000" font-family="sans-serif" font-size="12" lengthAdjust="spacingAndGlyphs" textLength="27" x="705.9" y="27.9102">User</text><line style="stroke:#A80036;stroke-width:1.5;" x1="657" x2="752" y1="39" y2="39"/><text fill="#000000" font-family="sans-serif" font-size="11" lengthAdjust="spacingAndGlyphs" textLength="61" x="662" y="54.4189">-String name</text><text fill="#000000" font-family="sans-serif" font-size="11" lengthAdjust="spacingAndGlyphs" textLength="59" x="662" y="68.2549">-String email</text><text fill="#000000" font-family="sans-serif" font-size="11" lengthAdjust="spacingAndGlyphs" textLength="85" x="662" y="82.0908">-String password</text><!--MD5=[cf4d6237fcae255cd2e1656cf84a30e2]
class Order--><rect codeLine="18" fill="#FEFECE" filter="url(#fjfw7s74diqms)" height="136.8516" id="Order" style="stroke:#A80036;stroke-width:1.5;" width="103" x="266" y="48.5"/><ellipse cx="299" cy="64.5" fill="#ADD1B2" rx="11" ry="11" style="stroke:#A80036;stroke-width:1.0;"/><path d="M301,61 Q301.2031,60.5 301.4375,60.25 Q301.6719,60 301.9375,60 Q302.4063,60 302.7031,60.2813 Q303,60.5625 303,61.2188 L303,62.7813 Q303,63.4375 302.7188,63.7188 Q302.4375,64 302,64 Q301.6094,64 301.3594,63.8281 Q301.1094,63.6563 301,63.2031 Q300.9531,62.8906 300.7813,62.7188 Q300.4688,62.3906 299.9063,62.2031 Q299.3438,62 298.7813,62 Q298.0781,62 297.4844,62.2813 Q296.9063,62.5625 296.4531,63.1875 Q296,63.8125 296,64.6719 L296,65.5938 Q296,66.625 296.8438,67.3125 Q297.6875,68 299.1875,68 Q300.0781,68 300.7031,67.7969 Q301.0625,67.6875 301.4688,67.3281 Q301.7344,67.125 301.875,67.0625 Q302.0156,67 302.1875,67 Q302.5156,67 302.75,67.2656 Q303,67.5156 303,67.875 Q303,68.2188 302.6563,68.625 Q302.1563,69.2188 301.3594,69.5469 Q300.3125,70 299.0313,70 Q297.5313,70 296.3281,69.4063 Q295.3594,68.9375 294.6719,67.9219 Q294,66.9063 294,65.7031 L294,64.6094 Q294,63.3594 294.5938,62.2656 Q295.2031,61.1719 296.25,60.5938 Q297.3125,60 298.5,60 Q299.2188,60 299.8438,60.25 Q300.4688,60.5 301,61 Z " fill="#000000"/><text fill="#000000" font-family="sans-serif" font-size="12" lengthAdjust="spacingAndGlyphs" textLength="31" x="317" y="69.4102">Order</text><line style="stroke:#A80036;stroke-width:1.5;" x1="267" x2="368" y1="80.5" y2="80.5"/><text fill="#000000" font-family="sans-serif" font-size="11" lengthAdjust="spacingAndGlyphs" textLength="26" x="272" y="95.9189">-int id</text><text fill="#000000" font-family="sans-serif" font-size="11" lengthAdjust="spacingAndGlyphs" textLength="63" x="272" y="109.7549">-float amount</text><text fill="#000000" font-family="sans-serif" font-size="11" lengthAdjust="spacingAndGlyphs" textLength="81" x="272" y="123.5908">-float totalWeight</text><text fill="#000000" font-family="sans-serif" font-size="11" lengthAdjust="spacingAndGlyphs" textLength="91" x="272" y="137.4268">-float additionalFee</text><text fill="#000000" font-family="sans-serif" font-size="11" lengthAdjust="spacingAndGlyphs" textLength="77" x="272" y="151.2627">-Date orderDate</text><text fill="#000000" font-family="sans-serif" font-size="11" lengthAdjust="spacingAndGlyphs" textLength="88" x="272" y="165.0986">-String description</text><text fill="#000000" font-family="sans-serif" font-size="11" lengthAdjust="spacingAndGlyphs" textLength="65" x="272" y="178.9346">-String status</text><!--MD5=[f0cfa747e910e280deb3c434245f2238]
link Platform to Courier--><path codeLine="28" d="M109.22,41.57 C170.55,34.57 277.42,25.11 369,31 C401.62,33.1 438.51,38.1 464.9,42.14 " fill="none" id="Platform-Courier" style="stroke:#A80036;stroke-width:1.0;"/><polygon fill="#000000" points="279,21.1838,269.9596,18.2304,269.9502,24.1082,279,21.1838" style="stroke:#000000;stroke-width:1.0;"/><text fill="#000000" font-family="sans-serif" font-size="13" lengthAdjust="spacingAndGlyphs" textLength="82" x="283" y="26.4951">has registered</text><text fill="#000000" font-family="sans-serif" font-size="13" lengthAdjust="spacingAndGlyphs" textLength="7" x="116.915" y="55.3222">1</text><text fill="#000000" font-family="sans-serif" font-size="13" lengthAdjust="spacingAndGlyphs" textLength="5" x="451.8356" y="56.1466">*</text><!--MD5=[46120166855af3d867105a26a4c9094b]
link Platform to Order--><path codeLine="29" d="M109.26,61.47 C154.49,73.59 220.61,91.3 265.93,103.45 " fill="none" id="Platform-Order" style="stroke:#A80036;stroke-width:1.0;"/><polygon fill="#000000" points="148.8296,63.4699,140.8534,58.29,139.3321,63.9676,148.8296,63.4699" style="stroke:#000000;stroke-width:1.0;"/><text fill="#000000" font-family="sans-serif" font-size="13" lengthAdjust="spacingAndGlyphs" textLength="82" x="153" y="67.4951">has registered</text><text fill="#000000" font-family="sans-serif" font-size="13" lengthAdjust="spacingAndGlyphs" textLength="7" x="116.9606" y="78.0206">1</text><text fill="#000000" font-family="sans-serif" font-size="13" lengthAdjust="spacingAndGlyphs" textLength="5" x="252.9885" y="116.1667">*</text><!--MD5=[771c3993b003aea4e1f6128d90cd4122]
link Courier to User--><path codeLine="30" d="M538.43,48 C571.18,48 619.79,48 655.78,48 " fill="none" id="Courier-User" style="stroke:#A80036;stroke-width:1.0;"/><polygon fill="#000000" points="578,39.1758,568.9549,36.2369,568.9549,42.1147,578,39.1758" style="stroke:#000000;stroke-width:1.0;"/><text fill="#000000" font-family="sans-serif" font-size="13" lengthAdjust="spacingAndGlyphs" textLength="43" x="582" y="44.4951">acts as</text><text fill="#000000" font-family="sans-serif" font-size="13" lengthAdjust="spacingAndGlyphs" textLength="22" x="546.0688" y="62.8243">0..1</text><text fill="#000000" font-family="sans-serif" font-size="13" lengthAdjust="spacingAndGlyphs" textLength="7" x="641.1102" y="62.7321">1</text><!--MD5=[e0c68841ed96abd06ddb24eae0836667]
link Order to Courier--><path codeLine="31" d="M369.2,97.78 C399.59,86.26 437.51,71.88 464.77,61.55 " fill="none" id="Order-Courier" style="stroke:#A80036;stroke-width:1.0;"/><polygon fill="#000000" points="408.6753,64.4034,399.1758,64.8616,401.2594,70.3578,408.6753,64.4034" style="stroke:#000000;stroke-width:1.0;"/><text fill="#000000" font-family="sans-serif" font-size="13" lengthAdjust="spacingAndGlyphs" textLength="21" x="413" y="71.4951">has</text><text fill="#000000" font-family="sans-serif" font-size="13" lengthAdjust="spacingAndGlyphs" textLength="7" x="376.9625" y="109.7325">1</text><text fill="#000000" font-family="sans-serif" font-size="13" lengthAdjust="spacingAndGlyphs" textLength="7" x="450.1012" y="79.2179">1</text><!--MD5=[7bd03bf178dfa44463ca13753cf63746]
@startuml
skinparam classAttributeIconSize 0
hide methods
left to right direction

class Platform {
-   String designation
}
class Courier {
      -String id
      -String iban
}
class User{
-   String name
-   String email
-   String password
}

class Order{
-   int id
-   float amount
-   float totalWeight
-   float additionalFee
-   Date orderDate
-   String description
-   String status
}

Platform "1" - - "*" Courier : has registered >
Platform "1" - - "*" Order : has registered >
Courier "0..1" - - "1" User: acts as >
Order "1" - - "1" Courier : has >
@enduml

PlantUML version 1.2020.23(Sun Dec 13 19:14:58 GMT 2020)
(GPL source distribution)
Java Runtime: OpenJDK Runtime Environment
JVM: OpenJDK 64-Bit Server VM
Default Encoding: Cp1252
Language: pt
Country: PT
--></g></svg>