<?xml version="1.0" encoding="UTF-8" standalone="no"?><svg xmlns="http://www.w3.org/2000/svg" xmlns:xlink="http://www.w3.org/1999/xlink" contentScriptType="application/ecmascript" contentStyleType="text/css" height="694px" preserveAspectRatio="none" style="width:552px;height:694px;" version="1.1" viewBox="0 0 552 694" width="552px" zoomAndPan="magnify"><defs><filter height="300%" id="f8v9rpus3sd0e" width="300%" x="-1" y="-1"><feGaussianBlur result="blurOut" stdDeviation="2.0"/><feColorMatrix in="blurOut" result="blurOut2" type="matrix" values="0 0 0 0 0 0 0 0 0 0 0 0 0 0 0 0 0 0 .4 0"/><feOffset dx="4.0" dy="4.0" in="blurOut2" result="blurOut3"/><feBlend in="SourceGraphic" in2="blurOut3" mode="normal"/></filter></defs><g><!--MD5=[1f2cfc53d9d308f53762fd0fcbaa4873]
cluster Controller--><polygon fill="#DDDDDD" filter="url(#f8v9rpus3sd0e)" points="16,139,93,139,100,162.6094,323,162.6094,323,419,16,419,16,139" style="stroke:#000000;stroke-width:1.5;"/><line style="stroke:#000000;stroke-width:1.5;" x1="16" x2="100" y1="162.6094" y2="162.6094"/><text fill="#000000" font-family="sans-serif" font-size="14" font-weight="bold" lengthAdjust="spacingAndGlyphs" textLength="71" x="20" y="155.5332">Controller</text><!--MD5=[9681dc6e01e10c6b4fe06895ae94f592]
cluster UI--><polygon fill="#DDDDDD" filter="url(#f8v9rpus3sd0e)" points="152,6,172,6,179,29.6094,302,29.6094,302,106,152,106,152,6" style="stroke:#000000;stroke-width:1.5;"/><line style="stroke:#000000;stroke-width:1.5;" x1="152" x2="179" y1="29.6094" y2="29.6094"/><text fill="#000000" font-family="sans-serif" font-size="14" font-weight="bold" lengthAdjust="spacingAndGlyphs" textLength="14" x="156" y="22.5332">UI</text><!--MD5=[15636c1ca4a123c16a2a1a8e90aca7a9]
cluster Model--><polygon fill="#DDDDDD" filter="url(#f8v9rpus3sd0e)" points="347,284,397,284,404,307.6094,535,307.6094,535,687,347,687,347,284" style="stroke:#000000;stroke-width:1.5;"/><line style="stroke:#000000;stroke-width:1.5;" x1="347" x2="404" y1="307.6094" y2="307.6094"/><text fill="#000000" font-family="sans-serif" font-size="14" font-weight="bold" lengthAdjust="spacingAndGlyphs" textLength="44" x="351" y="300.5332">Model</text><!--MD5=[e45a4727c47b726c25e081782e8bc183]
class ApplicationPOT--><rect codeLine="4" fill="#FEFECE" filter="url(#f8v9rpus3sd0e)" height="89.5078" id="ApplicationPOT" style="stroke:#A80036;stroke-width:1.5;" width="116" x="32" y="313"/><ellipse cx="47" cy="329" fill="#ADD1B2" rx="11" ry="11" style="stroke:#A80036;stroke-width:1.0;"/><path d="M49,325.5 Q49.2031,325 49.4375,324.75 Q49.6719,324.5 49.9375,324.5 Q50.4063,324.5 50.7031,324.7813 Q51,325.0625 51,325.7188 L51,327.2813 Q51,327.9375 50.7188,328.2188 Q50.4375,328.5 50,328.5 Q49.6094,328.5 49.3594,328.3281 Q49.1094,328.1563 49,327.7031 Q48.9531,327.3906 48.7813,327.2188 Q48.4688,326.8906 47.9063,326.7031 Q47.3438,326.5 46.7813,326.5 Q46.0781,326.5 45.4844,326.7813 Q44.9063,327.0625 44.4531,327.6875 Q44,328.3125 44,329.1719 L44,330.0938 Q44,331.125 44.8438,331.8125 Q45.6875,332.5 47.1875,332.5 Q48.0781,332.5 48.7031,332.2969 Q49.0625,332.1875 49.4688,331.8281 Q49.7344,331.625 49.875,331.5625 Q50.0156,331.5 50.1875,331.5 Q50.5156,331.5 50.75,331.7656 Q51,332.0156 51,332.375 Q51,332.7188 50.6563,333.125 Q50.1563,333.7188 49.3594,334.0469 Q48.3125,334.5 47.0313,334.5 Q45.5313,334.5 44.3281,333.9063 Q43.3594,333.4375 42.6719,332.4219 Q42,331.4063 42,330.2031 L42,329.1094 Q42,327.8594 42.5938,326.7656 Q43.2031,325.6719 44.25,325.0938 Q45.3125,324.5 46.5,324.5 Q47.2188,324.5 47.8438,324.75 Q48.4688,325 49,325.5 Z " fill="#000000"/><text fill="#000000" font-family="sans-serif" font-size="12" lengthAdjust="spacingAndGlyphs" textLength="84" x="61" y="333.9102">ApplicationPOT</text><line style="stroke:#A80036;stroke-width:1.5;" x1="33" x2="147" y1="345" y2="345"/><line style="stroke:#A80036;stroke-width:1.5;" x1="33" x2="147" y1="353" y2="353"/><text fill="#000000" font-family="sans-serif" font-size="11" lengthAdjust="spacingAndGlyphs" textLength="99" x="38" y="368.4189">+static getInstance()</text><text fill="#000000" font-family="sans-serif" font-size="11" lengthAdjust="spacingAndGlyphs" textLength="68" x="38" y="382.2549">+getPlatform()</text><text fill="#000000" font-family="sans-serif" font-size="11" lengthAdjust="spacingAndGlyphs" textLength="104" x="38" y="396.0908">+getCurrentSession()</text><!--MD5=[c5b08e60048ef1bcd788d24cf324082e]
class UserSession--><rect codeLine="11" fill="#FEFECE" filter="url(#f8v9rpus3sd0e)" height="61.8359" id="UserSession" style="stroke:#A80036;stroke-width:1.5;" width="124" x="183" y="327"/><ellipse cx="206.55" cy="343" fill="#ADD1B2" rx="11" ry="11" style="stroke:#A80036;stroke-width:1.0;"/><path d="M208.55,339.5 Q208.7531,339 208.9875,338.75 Q209.2219,338.5 209.4875,338.5 Q209.9563,338.5 210.2531,338.7813 Q210.55,339.0625 210.55,339.7188 L210.55,341.2813 Q210.55,341.9375 210.2688,342.2188 Q209.9875,342.5 209.55,342.5 Q209.1594,342.5 208.9094,342.3281 Q208.6594,342.1563 208.55,341.7031 Q208.5031,341.3906 208.3313,341.2188 Q208.0188,340.8906 207.4563,340.7031 Q206.8938,340.5 206.3313,340.5 Q205.6281,340.5 205.0344,340.7813 Q204.4563,341.0625 204.0031,341.6875 Q203.55,342.3125 203.55,343.1719 L203.55,344.0938 Q203.55,345.125 204.3938,345.8125 Q205.2375,346.5 206.7375,346.5 Q207.6281,346.5 208.2531,346.2969 Q208.6125,346.1875 209.0188,345.8281 Q209.2844,345.625 209.425,345.5625 Q209.5656,345.5 209.7375,345.5 Q210.0656,345.5 210.3,345.7656 Q210.55,346.0156 210.55,346.375 Q210.55,346.7188 210.2063,347.125 Q209.7063,347.7188 208.9094,348.0469 Q207.8625,348.5 206.5813,348.5 Q205.0813,348.5 203.8781,347.9063 Q202.9094,347.4375 202.2219,346.4219 Q201.55,345.4063 201.55,344.2031 L201.55,343.1094 Q201.55,341.8594 202.1438,340.7656 Q202.7531,339.6719 203.8,339.0938 Q204.8625,338.5 206.05,338.5 Q206.7688,338.5 207.3938,338.75 Q208.0188,339 208.55,339.5 Z " fill="#000000"/><text fill="#000000" font-family="sans-serif" font-size="12" lengthAdjust="spacingAndGlyphs" textLength="73" x="222.45" y="347.9102">UserSession</text><line style="stroke:#A80036;stroke-width:1.5;" x1="184" x2="306" y1="359" y2="359"/><line style="stroke:#A80036;stroke-width:1.5;" x1="184" x2="306" y1="367" y2="367"/><text fill="#000000" font-family="sans-serif" font-size="11" lengthAdjust="spacingAndGlyphs" textLength="112" x="189" y="382.4189">+getCurrentUserEmail()</text><!--MD5=[fcb5adf99831ef2bf308f51382f66a48]
class KnowDeliveryController--><rect codeLine="15" fill="#FEFECE" filter="url(#f8v9rpus3sd0e)" height="61.8359" id="KnowDeliveryController" style="stroke:#A80036;stroke-width:1.5;" width="160" x="147" y="175"/><ellipse cx="162" cy="191" fill="#ADD1B2" rx="11" ry="11" style="stroke:#A80036;stroke-width:1.0;"/><path d="M164,187.5 Q164.2031,187 164.4375,186.75 Q164.6719,186.5 164.9375,186.5 Q165.4063,186.5 165.7031,186.7813 Q166,187.0625 166,187.7188 L166,189.2813 Q166,189.9375 165.7188,190.2188 Q165.4375,190.5 165,190.5 Q164.6094,190.5 164.3594,190.3281 Q164.1094,190.1563 164,189.7031 Q163.9531,189.3906 163.7813,189.2188 Q163.4688,188.8906 162.9063,188.7031 Q162.3438,188.5 161.7813,188.5 Q161.0781,188.5 160.4844,188.7813 Q159.9063,189.0625 159.4531,189.6875 Q159,190.3125 159,191.1719 L159,192.0938 Q159,193.125 159.8438,193.8125 Q160.6875,194.5 162.1875,194.5 Q163.0781,194.5 163.7031,194.2969 Q164.0625,194.1875 164.4688,193.8281 Q164.7344,193.625 164.875,193.5625 Q165.0156,193.5 165.1875,193.5 Q165.5156,193.5 165.75,193.7656 Q166,194.0156 166,194.375 Q166,194.7188 165.6563,195.125 Q165.1563,195.7188 164.3594,196.0469 Q163.3125,196.5 162.0313,196.5 Q160.5313,196.5 159.3281,195.9063 Q158.3594,195.4375 157.6719,194.4219 Q157,193.4063 157,192.2031 L157,191.1094 Q157,189.8594 157.5938,188.7656 Q158.2031,187.6719 159.25,187.0938 Q160.3125,186.5 161.5,186.5 Q162.2188,186.5 162.8438,186.75 Q163.4688,187 164,187.5 Z " fill="#000000"/><text fill="#000000" font-family="sans-serif" font-size="12" lengthAdjust="spacingAndGlyphs" textLength="128" x="176" y="195.9102">KnowDeliveryController</text><line style="stroke:#A80036;stroke-width:1.5;" x1="148" x2="306" y1="207" y2="207"/><line style="stroke:#A80036;stroke-width:1.5;" x1="148" x2="306" y1="215" y2="215"/><text fill="#000000" font-family="sans-serif" font-size="11" lengthAdjust="spacingAndGlyphs" textLength="93" x="153" y="230.4189">+getOrderByCour()</text><!--MD5=[90ee25e7cb43e177c619cc29814f7653]
class KnowDeliveryUI--><rect codeLine="20" fill="#FEFECE" filter="url(#f8v9rpus3sd0e)" height="48" id="KnowDeliveryUI" style="stroke:#A80036;stroke-width:1.5;" width="118" x="168" y="42"/><ellipse cx="183" cy="58" fill="#ADD1B2" rx="11" ry="11" style="stroke:#A80036;stroke-width:1.0;"/><path d="M185,54.5 Q185.2031,54 185.4375,53.75 Q185.6719,53.5 185.9375,53.5 Q186.4063,53.5 186.7031,53.7813 Q187,54.0625 187,54.7188 L187,56.2813 Q187,56.9375 186.7188,57.2188 Q186.4375,57.5 186,57.5 Q185.6094,57.5 185.3594,57.3281 Q185.1094,57.1563 185,56.7031 Q184.9531,56.3906 184.7813,56.2188 Q184.4688,55.8906 183.9063,55.7031 Q183.3438,55.5 182.7813,55.5 Q182.0781,55.5 181.4844,55.7813 Q180.9063,56.0625 180.4531,56.6875 Q180,57.3125 180,58.1719 L180,59.0938 Q180,60.125 180.8438,60.8125 Q181.6875,61.5 183.1875,61.5 Q184.0781,61.5 184.7031,61.2969 Q185.0625,61.1875 185.4688,60.8281 Q185.7344,60.625 185.875,60.5625 Q186.0156,60.5 186.1875,60.5 Q186.5156,60.5 186.75,60.7656 Q187,61.0156 187,61.375 Q187,61.7188 186.6563,62.125 Q186.1563,62.7188 185.3594,63.0469 Q184.3125,63.5 183.0313,63.5 Q181.5313,63.5 180.3281,62.9063 Q179.3594,62.4375 178.6719,61.4219 Q178,60.4063 178,59.2031 L178,58.1094 Q178,56.8594 178.5938,55.7656 Q179.2031,54.6719 180.25,54.0938 Q181.3125,53.5 182.5,53.5 Q183.2188,53.5 183.8438,53.75 Q184.4688,54 185,54.5 Z " fill="#000000"/><text fill="#000000" font-family="sans-serif" font-size="12" lengthAdjust="spacingAndGlyphs" textLength="86" x="197" y="62.9102">KnowDeliveryUI</text><line style="stroke:#A80036;stroke-width:1.5;" x1="169" x2="285" y1="74" y2="74"/><line style="stroke:#A80036;stroke-width:1.5;" x1="169" x2="285" y1="82" y2="82"/><!--MD5=[99b8db98afdc2c8404e39242ef4c1e65]
class Platform--><rect codeLine="25" fill="#FEFECE" filter="url(#f8v9rpus3sd0e)" height="75.6719" id="Platform" style="stroke:#A80036;stroke-width:1.5;" width="155" x="363.5" y="320"/><ellipse cx="413.75" cy="336" fill="#ADD1B2" rx="11" ry="11" style="stroke:#A80036;stroke-width:1.0;"/><path d="M415.75,332.5 Q415.9531,332 416.1875,331.75 Q416.4219,331.5 416.6875,331.5 Q417.1563,331.5 417.4531,331.7813 Q417.75,332.0625 417.75,332.7188 L417.75,334.2813 Q417.75,334.9375 417.4688,335.2188 Q417.1875,335.5 416.75,335.5 Q416.3594,335.5 416.1094,335.3281 Q415.8594,335.1563 415.75,334.7031 Q415.7031,334.3906 415.5313,334.2188 Q415.2188,333.8906 414.6563,333.7031 Q414.0938,333.5 413.5313,333.5 Q412.8281,333.5 412.2344,333.7813 Q411.6563,334.0625 411.2031,334.6875 Q410.75,335.3125 410.75,336.1719 L410.75,337.0938 Q410.75,338.125 411.5938,338.8125 Q412.4375,339.5 413.9375,339.5 Q414.8281,339.5 415.4531,339.2969 Q415.8125,339.1875 416.2188,338.8281 Q416.4844,338.625 416.625,338.5625 Q416.7656,338.5 416.9375,338.5 Q417.2656,338.5 417.5,338.7656 Q417.75,339.0156 417.75,339.375 Q417.75,339.7188 417.4063,340.125 Q416.9063,340.7188 416.1094,341.0469 Q415.0625,341.5 413.7813,341.5 Q412.2813,341.5 411.0781,340.9063 Q410.1094,340.4375 409.4219,339.4219 Q408.75,338.4063 408.75,337.2031 L408.75,336.1094 Q408.75,334.8594 409.3438,333.7656 Q409.9531,332.6719 411,332.0938 Q412.0625,331.5 413.25,331.5 Q413.9688,331.5 414.5938,331.75 Q415.2188,332 415.75,332.5 Z " fill="#000000"/><text fill="#000000" font-family="sans-serif" font-size="12" lengthAdjust="spacingAndGlyphs" textLength="46" x="434.25" y="340.9102">Platform</text><line style="stroke:#A80036;stroke-width:1.5;" x1="364.5" x2="517.5" y1="352" y2="352"/><text fill="#000000" font-family="sans-serif" font-size="11" lengthAdjust="spacingAndGlyphs" textLength="90" x="369.5" y="367.4189">-String designation</text><line style="stroke:#A80036;stroke-width:1.5;" x1="364.5" x2="517.5" y1="373.8359" y2="373.8359"/><text fill="#000000" font-family="sans-serif" font-size="11" lengthAdjust="spacingAndGlyphs" textLength="143" x="369.5" y="389.2549">+OrdersRegistry getOrdReg()</text><!--MD5=[973a78770e68676c0fe706987d51f3f8]
class OrdersRegistry--><rect codeLine="30" fill="#FEFECE" filter="url(#f8v9rpus3sd0e)" height="61.8359" id="OrdersRegistry" style="stroke:#A80036;stroke-width:1.5;" width="141" x="370.5" y="483"/><ellipse cx="397.2" cy="499" fill="#ADD1B2" rx="11" ry="11" style="stroke:#A80036;stroke-width:1.0;"/><path d="M399.2,495.5 Q399.4031,495 399.6375,494.75 Q399.8719,494.5 400.1375,494.5 Q400.6063,494.5 400.9031,494.7813 Q401.2,495.0625 401.2,495.7188 L401.2,497.2813 Q401.2,497.9375 400.9188,498.2188 Q400.6375,498.5 400.2,498.5 Q399.8094,498.5 399.5594,498.3281 Q399.3094,498.1563 399.2,497.7031 Q399.1531,497.3906 398.9813,497.2188 Q398.6688,496.8906 398.1063,496.7031 Q397.5438,496.5 396.9813,496.5 Q396.2781,496.5 395.6844,496.7813 Q395.1063,497.0625 394.6531,497.6875 Q394.2,498.3125 394.2,499.1719 L394.2,500.0938 Q394.2,501.125 395.0438,501.8125 Q395.8875,502.5 397.3875,502.5 Q398.2781,502.5 398.9031,502.2969 Q399.2625,502.1875 399.6688,501.8281 Q399.9344,501.625 400.075,501.5625 Q400.2156,501.5 400.3875,501.5 Q400.7156,501.5 400.95,501.7656 Q401.2,502.0156 401.2,502.375 Q401.2,502.7188 400.8563,503.125 Q400.3563,503.7188 399.5594,504.0469 Q398.5125,504.5 397.2313,504.5 Q395.7313,504.5 394.5281,503.9063 Q393.5594,503.4375 392.8719,502.4219 Q392.2,501.4063 392.2,500.2031 L392.2,499.1094 Q392.2,497.8594 392.7938,496.7656 Q393.4031,495.6719 394.45,495.0938 Q395.5125,494.5 396.7,494.5 Q397.4188,494.5 398.0438,494.75 Q398.6688,495 399.2,495.5 Z " fill="#000000"/><text fill="#000000" font-family="sans-serif" font-size="12" lengthAdjust="spacingAndGlyphs" textLength="83" x="413.8" y="503.9102">OrdersRegistry</text><line style="stroke:#A80036;stroke-width:1.5;" x1="371.5" x2="510.5" y1="515" y2="515"/><line style="stroke:#A80036;stroke-width:1.5;" x1="371.5" x2="510.5" y1="523" y2="523"/><text fill="#000000" font-family="sans-serif" font-size="11" lengthAdjust="spacingAndGlyphs" textLength="129" x="376.5" y="538.4189">+getOrderByCourier(email)</text><!--MD5=[ed3afe56f065d25b4329669e73deaf58]
class Database--><rect codeLine="33" fill="#FEFECE" filter="url(#f8v9rpus3sd0e)" height="48" id="Database" style="stroke:#A80036;stroke-width:1.5;" width="86" x="398" y="623"/><ellipse cx="413" cy="639" fill="#ADD1B2" rx="11" ry="11" style="stroke:#A80036;stroke-width:1.0;"/><path d="M415,635.5 Q415.2031,635 415.4375,634.75 Q415.6719,634.5 415.9375,634.5 Q416.4063,634.5 416.7031,634.7813 Q417,635.0625 417,635.7188 L417,637.2813 Q417,637.9375 416.7188,638.2188 Q416.4375,638.5 416,638.5 Q415.6094,638.5 415.3594,638.3281 Q415.1094,638.1563 415,637.7031 Q414.9531,637.3906 414.7813,637.2188 Q414.4688,636.8906 413.9063,636.7031 Q413.3438,636.5 412.7813,636.5 Q412.0781,636.5 411.4844,636.7813 Q410.9063,637.0625 410.4531,637.6875 Q410,638.3125 410,639.1719 L410,640.0938 Q410,641.125 410.8438,641.8125 Q411.6875,642.5 413.1875,642.5 Q414.0781,642.5 414.7031,642.2969 Q415.0625,642.1875 415.4688,641.8281 Q415.7344,641.625 415.875,641.5625 Q416.0156,641.5 416.1875,641.5 Q416.5156,641.5 416.75,641.7656 Q417,642.0156 417,642.375 Q417,642.7188 416.6563,643.125 Q416.1563,643.7188 415.3594,644.0469 Q414.3125,644.5 413.0313,644.5 Q411.5313,644.5 410.3281,643.9063 Q409.3594,643.4375 408.6719,642.4219 Q408,641.4063 408,640.2031 L408,639.1094 Q408,637.8594 408.5938,636.7656 Q409.2031,635.6719 410.25,635.0938 Q411.3125,634.5 412.5,634.5 Q413.2188,634.5 413.8438,634.75 Q414.4688,635 415,635.5 Z " fill="#000000"/><text fill="#000000" font-family="sans-serif" font-size="12" lengthAdjust="spacingAndGlyphs" textLength="54" x="427" y="643.9102">Database</text><line style="stroke:#A80036;stroke-width:1.5;" x1="399" x2="483" y1="655" y2="655"/><line style="stroke:#A80036;stroke-width:1.5;" x1="399" x2="483" y1="663" y2="663"/><!--MD5=[fc2793c14a7c7bf58c04bfe679bc3bb7]
link KnowDeliveryUI to KnowDeliveryController--><path codeLine="37" d="M227,90.1 C227,111.8 227,144.6 227,169.6 " fill="none" id="KnowDeliveryUI-to-KnowDeliveryController" style="stroke:#A80036;stroke-width:1.0;stroke-dasharray:7.0,7.0;"/><polygon fill="#A80036" points="227,174.81,231,165.81,227,169.81,223,165.81,227,174.81" style="stroke:#A80036;stroke-width:1.0;"/><!--MD5=[6209529509848a7f707f55795ba3429b]
link KnowDeliveryController to Platform--><path codeLine="38" d="M270.05,237.17 C302.77,260.11 348.1,291.88 383.86,316.95 " fill="none" id="KnowDeliveryController-to-Platform" style="stroke:#A80036;stroke-width:1.0;stroke-dasharray:7.0,7.0;"/><polygon fill="#A80036" points="388.17,319.97,383.1066,311.5224,384.0792,317.095,378.5066,318.0676,388.17,319.97" style="stroke:#A80036;stroke-width:1.0;"/><!--MD5=[8ae9410c4a9c466762dfc95f718c2f70]
link KnowDeliveryController to ApplicationPOT--><path codeLine="39" d="M199.28,237.35 C180.5,257.91 155.3,285.51 133.82,309.02 " fill="none" id="KnowDeliveryController-to-ApplicationPOT" style="stroke:#A80036;stroke-width:1.0;stroke-dasharray:7.0,7.0;"/><polygon fill="#A80036" points="130.41,312.75,139.4284,308.7916,133.7776,309.0542,133.5151,303.4034,130.41,312.75" style="stroke:#A80036;stroke-width:1.0;"/><!--MD5=[2d4c702808eedbb15de1c6ef476571c7]
link KnowDeliveryController to UserSession--><path codeLine="40" d="M230.64,237.35 C233.58,261.83 237.71,296.29 240.79,321.94 " fill="none" id="KnowDeliveryController-to-UserSession" style="stroke:#A80036;stroke-width:1.0;stroke-dasharray:7.0,7.0;"/><polygon fill="#A80036" points="241.39,326.95,244.2828,317.5356,240.7909,321.986,236.3404,318.4941,241.39,326.95" style="stroke:#A80036;stroke-width:1.0;"/><!--MD5=[cf5883c02043349bf5b8088f08dcf729]
link Platform to OrdersRegistry--><path codeLine="41" d="M441,396.28 C441,421.04 441,453.36 441,477.71 " fill="none" id="Platform-to-OrdersRegistry" style="stroke:#A80036;stroke-width:1.0;"/><polygon fill="#A80036" points="441,482.78,445,473.78,441,477.78,437,473.78,441,482.78" style="stroke:#A80036;stroke-width:1.0;"/><text fill="#000000" font-family="sans-serif" font-size="13" lengthAdjust="spacingAndGlyphs" textLength="21" x="442" y="449.4951">has</text><text fill="#000000" font-family="sans-serif" font-size="13" lengthAdjust="spacingAndGlyphs" textLength="7" x="433.4422" y="417.2052">1</text><text fill="#000000" font-family="sans-serif" font-size="13" lengthAdjust="spacingAndGlyphs" textLength="7" x="433.2781" y="472.2392">1</text><!--MD5=[53b238460db0af46d986dbf0a797ccf6]
link OrdersRegistry to Database--><path codeLine="42" d="M441,545.05 C441,566.78 441,595.95 441,617.35 " fill="none" id="OrdersRegistry-to-Database" style="stroke:#A80036;stroke-width:1.0;"/><polygon fill="#A80036" points="441,622.61,445,613.61,441,617.61,437,613.61,441,622.61" style="stroke:#A80036;stroke-width:1.0;"/><text fill="#000000" font-family="sans-serif" font-size="13" lengthAdjust="spacingAndGlyphs" textLength="68" x="442" y="589.4951">connects to</text><text fill="#000000" font-family="sans-serif" font-size="13" lengthAdjust="spacingAndGlyphs" textLength="7" x="433.3109" y="566.2838">1</text><text fill="#000000" font-family="sans-serif" font-size="13" lengthAdjust="spacingAndGlyphs" textLength="7" x="433.1469" y="612.2529">1</text><!--MD5=[dc4946e6958d0088b3020113f72c1a38]
@startuml
skinparam classAttributeIconSize 0

package "Controller" #DDDDDD {
class ApplicationPOT
{
  +static getInstance()
  +getPlatform()
  +getCurrentSession()
}

class UserSession
{
  +getCurrentUserEmail()
}
class KnowDeliveryController{
+getOrderByCour()
}
}
package "UI" #DDDDDD {
class KnowDeliveryUI{

}
}
package "Model" #DDDDDD {
class Platform {
  -String designation
  +OrdersRegistry getOrdReg()
}

class OrdersRegistry{
+getOrderByCourier(email)
}
class Database{
}
}

KnowDeliveryUI ..> KnowDeliveryController
KnowDeliveryController ..> Platform
KnowDeliveryController ..> ApplicationPOT
KnowDeliveryController ..> UserSession
Platform "1" - -> "1" OrdersRegistry : has
OrdersRegistry "1" - -> "1" Database : connects to

@enduml

PlantUML version 1.2020.23(Sun Dec 13 19:14:58 GMT 2020)
(GPL source distribution)
Java Runtime: OpenJDK Runtime Environment
JVM: OpenJDK 64-Bit Server VM
Default Encoding: Cp1252
Language: pt
Country: PT
--></g></svg>