<?xml version="1.0" encoding="UTF-8" standalone="no"?><svg xmlns="http://www.w3.org/2000/svg" xmlns:xlink="http://www.w3.org/1999/xlink" contentScriptType="application/ecmascript" contentStyleType="text/css" height="1427px" preserveAspectRatio="none" style="width:1164px;height:1427px;" version="1.1" viewBox="0 0 1164 1427" width="1164px" zoomAndPan="magnify"><defs><filter height="300%" id="f1e0g8j0bfcslk" width="300%" x="-1" y="-1"><feGaussianBlur result="blurOut" stdDeviation="2.0"/><feColorMatrix in="blurOut" result="blurOut2" type="matrix" values="0 0 0 0 0 0 0 0 0 0 0 0 0 0 0 0 0 0 .4 0"/><feOffset dx="4.0" dy="4.0" in="blurOut2" result="blurOut3"/><feBlend in="SourceGraphic" in2="blurOut3" mode="normal"/></filter></defs><g><!--MD5=[9681dc6e01e10c6b4fe06895ae94f592]
cluster UI--><polygon fill="#DDDDDD" filter="url(#f1e0g8j0bfcslk)" points="222,24,242,24,249,47.6094,388,47.6094,388,124,222,124,222,24" style="stroke: #000000; stroke-width: 1.5;"/><line style="stroke: #000000; stroke-width: 1.5;" x1="222" x2="249" y1="47.6094" y2="47.6094"/><text fill="#000000" font-family="sans-serif" font-size="14" font-weight="bold" lengthAdjust="spacingAndGlyphs" textLength="14" x="226" y="40.5332">UI</text><!--MD5=[1f2cfc53d9d308f53762fd0fcbaa4873]
cluster Controller--><polygon fill="#DDDDDD" filter="url(#f1e0g8j0bfcslk)" points="76,157,153,157,160,180.6094,534,180.6094,534,340,76,340,76,157" style="stroke: #000000; stroke-width: 1.5;"/><line style="stroke: #000000; stroke-width: 1.5;" x1="76" x2="160" y1="180.6094" y2="180.6094"/><text fill="#000000" font-family="sans-serif" font-size="14" font-weight="bold" lengthAdjust="spacingAndGlyphs" textLength="71" x="80" y="173.5332">Controller</text><!--MD5=[15636c1ca4a123c16a2a1a8e90aca7a9]
cluster Model--><polygon fill="#DDDDDD" filter="url(#f1e0g8j0bfcslk)" points="22,373,72,373,79,396.6094,604,396.6094,604,1415,22,1415,22,373" style="stroke: #000000; stroke-width: 1.5;"/><line style="stroke: #000000; stroke-width: 1.5;" x1="22" x2="79" y1="396.6094" y2="396.6094"/><text fill="#000000" font-family="sans-serif" font-size="14" font-weight="bold" lengthAdjust="spacingAndGlyphs" textLength="44" x="26" y="389.5332">Model</text><!--MD5=[9dd75fd92da113d30380b27734fd2f01]
cluster Service--><polygon fill="#DDDDDD" filter="url(#f1e0g8j0bfcslk)" points="78,417,138,417,145,440.6094,548,440.6094,548,545,78,545,78,417" style="stroke: #000000; stroke-width: 1.5;"/><line style="stroke: #000000; stroke-width: 1.5;" x1="78" x2="145" y1="440.6094" y2="440.6094"/><text fill="#000000" font-family="sans-serif" font-size="14" font-weight="bold" lengthAdjust="spacingAndGlyphs" textLength="54" x="82" y="433.5332">Service</text><!--MD5=[f21b1f164e99c6b37934f23ad048ad54]
cluster Data--><polygon fill="#DDDDDD" filter="url(#f1e0g8j0bfcslk)" points="718,417,755,417,762,440.6094,1142,440.6094,1142,701,718,701,718,417" style="stroke: #000000; stroke-width: 1.5;"/><line style="stroke: #000000; stroke-width: 1.5;" x1="718" x2="762" y1="440.6094" y2="440.6094"/><text fill="#000000" font-family="sans-serif" font-size="14" font-weight="bold" lengthAdjust="spacingAndGlyphs" textLength="31" x="722" y="433.5332">Data</text><!--MD5=[fa1e3283224feb76407c84b7e90ed808]
entity Database--><path d="M620.5,477.5 C620.5,467.5 661,467.5 661,467.5 C661,467.5 701.5,467.5 701.5,477.5 L701.5,504.1094 C701.5,514.1094 661,514.1094 661,514.1094 C661,514.1094 620.5,514.1094 620.5,504.1094 L620.5,477.5 " fill="#FFFFFF" filter="url(#f1e0g8j0bfcslk)" style="stroke: #000000; stroke-width: 1.5;"/><path d="M620.5,477.5 C620.5,487.5 661,487.5 661,487.5 C661,487.5 701.5,487.5 701.5,477.5 " fill="none" style="stroke: #000000; stroke-width: 1.5;"/><text fill="#000000" font-family="sans-serif" font-size="14" lengthAdjust="spacingAndGlyphs" textLength="61" x="630.5" y="506.0332">Database</text><!--MD5=[2e02dc687a7adedd6993cedb12e41a52]
class RegisterScooterUI--><rect fill="#FEFECE" filter="url(#f1e0g8j0bfcslk)" height="48" id="RegisterScooterUI" style="stroke: #A80036; stroke-width: 1.5;" width="133" x="238.5" y="60"/><ellipse cx="253.5" cy="76" fill="#ADD1B2" rx="11" ry="11" style="stroke: #A80036; stroke-width: 1.0;"/><path d="M255.5,72.5 Q255.7031,72 255.9375,71.75 Q256.1719,71.5 256.4375,71.5 Q256.9063,71.5 257.2031,71.7813 Q257.5,72.0625 257.5,72.7188 L257.5,74.2813 Q257.5,74.9375 257.2188,75.2188 Q256.9375,75.5 256.5,75.5 Q256.1094,75.5 255.8594,75.3281 Q255.6094,75.1563 255.5,74.7031 Q255.4531,74.3906 255.2813,74.2188 Q254.9688,73.8906 254.4063,73.7031 Q253.8438,73.5 253.2813,73.5 Q252.5781,73.5 251.9844,73.7813 Q251.4063,74.0625 250.9531,74.6875 Q250.5,75.3125 250.5,76.1719 L250.5,77.0938 Q250.5,78.125 251.3438,78.8125 Q252.1875,79.5 253.6875,79.5 Q254.5781,79.5 255.2031,79.2969 Q255.5625,79.1875 255.9688,78.8281 Q256.2344,78.625 256.375,78.5625 Q256.5156,78.5 256.6875,78.5 Q257.0156,78.5 257.25,78.7656 Q257.5,79.0156 257.5,79.375 Q257.5,79.7188 257.1563,80.125 Q256.6563,80.7188 255.8594,81.0469 Q254.8125,81.5 253.5313,81.5 Q252.0313,81.5 250.8281,80.9063 Q249.8594,80.4375 249.1719,79.4219 Q248.5,78.4063 248.5,77.2031 L248.5,76.1094 Q248.5,74.8594 249.0938,73.7656 Q249.7031,72.6719 250.75,72.0938 Q251.8125,71.5 253,71.5 Q253.7188,71.5 254.3438,71.75 Q254.9688,72 255.5,72.5 Z "/><text fill="#000000" font-family="sans-serif" font-size="12" lengthAdjust="spacingAndGlyphs" textLength="101" x="267.5" y="80.9102">RegisterScooterUI</text><line style="stroke: #A80036; stroke-width: 1.5;" x1="239.5" x2="370.5" y1="92" y2="92"/><line style="stroke: #A80036; stroke-width: 1.5;" x1="239.5" x2="370.5" y1="100" y2="100"/><!--MD5=[b762eabfe222fdd6cf4857c585db3ba3]
class RegisterScooterController--><rect fill="#FEFECE" filter="url(#f1e0g8j0bfcslk)" height="131.0156" id="RegisterScooterController" style="stroke: #A80036; stroke-width: 1.5;" width="426" x="92" y="193"/><ellipse cx="229.25" cy="209" fill="#ADD1B2" rx="11" ry="11" style="stroke: #A80036; stroke-width: 1.0;"/><path d="M231.25,205.5 Q231.4531,205 231.6875,204.75 Q231.9219,204.5 232.1875,204.5 Q232.6563,204.5 232.9531,204.7813 Q233.25,205.0625 233.25,205.7188 L233.25,207.2813 Q233.25,207.9375 232.9688,208.2188 Q232.6875,208.5 232.25,208.5 Q231.8594,208.5 231.6094,208.3281 Q231.3594,208.1563 231.25,207.7031 Q231.2031,207.3906 231.0313,207.2188 Q230.7188,206.8906 230.1563,206.7031 Q229.5938,206.5 229.0313,206.5 Q228.3281,206.5 227.7344,206.7813 Q227.1563,207.0625 226.7031,207.6875 Q226.25,208.3125 226.25,209.1719 L226.25,210.0938 Q226.25,211.125 227.0938,211.8125 Q227.9375,212.5 229.4375,212.5 Q230.3281,212.5 230.9531,212.2969 Q231.3125,212.1875 231.7188,211.8281 Q231.9844,211.625 232.125,211.5625 Q232.2656,211.5 232.4375,211.5 Q232.7656,211.5 233,211.7656 Q233.25,212.0156 233.25,212.375 Q233.25,212.7188 232.9063,213.125 Q232.4063,213.7188 231.6094,214.0469 Q230.5625,214.5 229.2813,214.5 Q227.7813,214.5 226.5781,213.9063 Q225.6094,213.4375 224.9219,212.4219 Q224.25,211.4063 224.25,210.2031 L224.25,209.1094 Q224.25,207.8594 224.8438,206.7656 Q225.4531,205.6719 226.5,205.0938 Q227.5625,204.5 228.75,204.5 Q229.4688,204.5 230.0938,204.75 Q230.7188,205 231.25,205.5 Z "/><text fill="#000000" font-family="sans-serif" font-size="12" lengthAdjust="spacingAndGlyphs" textLength="143" x="249.75" y="213.9102">RegisterScooterController</text><line style="stroke: #A80036; stroke-width: 1.5;" x1="93" x2="517" y1="225" y2="225"/><line style="stroke: #A80036; stroke-width: 1.5;" x1="93" x2="517" y1="233" y2="233"/><text fill="#000000" font-family="sans-serif" font-size="11" lengthAdjust="spacingAndGlyphs" textLength="85" x="98" y="248.4189">+getPharmacies()</text><text fill="#000000" font-family="sans-serif" font-size="11" lengthAdjust="spacingAndGlyphs" textLength="144" x="98" y="262.2549">+chooseVehicleModer(model)</text><text fill="#000000" font-family="sans-serif" font-size="11" lengthAdjust="spacingAndGlyphs" textLength="302" x="98" y="276.0908">+newVehicleModel(designation, potency, weight, maxPayload,</text><text fill="#000000" font-family="sans-serif" font-size="11" lengthAdjust="spacingAndGlyphs" textLength="211" x="98" y="289.9268">batteryCapacity, batteryVoltage, efficiency)</text><text fill="#000000" font-family="sans-serif" font-size="11" lengthAdjust="spacingAndGlyphs" textLength="414" x="98" y="303.7627">+newScooter(batteryPerc, potency, weight, batteryCapacity, maxPayload, pharmacy)</text><text fill="#000000" font-family="sans-serif" font-size="11" lengthAdjust="spacingAndGlyphs" textLength="116" x="98" y="317.5986">+registerScooter(scoot)</text><!--MD5=[d1eeb527b96f439f56c6bd12ac0dd707]
class Park--><rect fill="#FEFECE" filter="url(#f1e0g8j0bfcslk)" height="75.6719" id="Park" style="stroke: #A80036; stroke-width: 1.5;" width="139" x="190.5" y="939.5"/><ellipse cx="243.25" cy="955.5" fill="#ADD1B2" rx="11" ry="11" style="stroke: #A80036; stroke-width: 1.0;"/><path d="M245.25,952 Q245.4531,951.5 245.6875,951.25 Q245.9219,951 246.1875,951 Q246.6563,951 246.9531,951.2813 Q247.25,951.5625 247.25,952.2188 L247.25,953.7813 Q247.25,954.4375 246.9688,954.7188 Q246.6875,955 246.25,955 Q245.8594,955 245.6094,954.8281 Q245.3594,954.6563 245.25,954.2031 Q245.2031,953.8906 245.0313,953.7188 Q244.7188,953.3906 244.1563,953.2031 Q243.5938,953 243.0313,953 Q242.3281,953 241.7344,953.2813 Q241.1563,953.5625 240.7031,954.1875 Q240.25,954.8125 240.25,955.6719 L240.25,956.5938 Q240.25,957.625 241.0938,958.3125 Q241.9375,959 243.4375,959 Q244.3281,959 244.9531,958.7969 Q245.3125,958.6875 245.7188,958.3281 Q245.9844,958.125 246.125,958.0625 Q246.2656,958 246.4375,958 Q246.7656,958 247,958.2656 Q247.25,958.5156 247.25,958.875 Q247.25,959.2188 246.9063,959.625 Q246.4063,960.2188 245.6094,960.5469 Q244.5625,961 243.2813,961 Q241.7813,961 240.5781,960.4063 Q239.6094,959.9375 238.9219,958.9219 Q238.25,957.9063 238.25,956.7031 L238.25,955.6094 Q238.25,954.3594 238.8438,953.2656 Q239.4531,952.1719 240.5,951.5938 Q241.5625,951 242.75,951 Q243.4688,951 244.0938,951.25 Q244.7188,951.5 245.25,952 Z "/><text fill="#000000" font-family="sans-serif" font-size="12" lengthAdjust="spacingAndGlyphs" textLength="25" x="263.75" y="960.4102">Park</text><line style="stroke: #A80036; stroke-width: 1.5;" x1="191.5" x2="328.5" y1="971.5" y2="971.5"/><text fill="#000000" font-family="sans-serif" font-size="11" lengthAdjust="spacingAndGlyphs" textLength="99" x="196.5" y="986.9189">-int maxSlotsNumber</text><text fill="#000000" font-family="sans-serif" font-size="11" lengthAdjust="spacingAndGlyphs" textLength="127" x="196.5" y="1000.7549">-double totalOutputCorrent</text><line style="stroke: #A80036; stroke-width: 1.5;" x1="191.5" x2="328.5" y1="1007.1719" y2="1007.1719"/><!--MD5=[59d2374cee64c81d4b5b0eac02df9f3a]
class ChargingSlot--><rect fill="#FEFECE" filter="url(#f1e0g8j0bfcslk)" height="61.8359" id="ChargingSlot" style="stroke: #A80036; stroke-width: 1.5;" width="104" x="140" y="1337"/><ellipse cx="155" cy="1353" fill="#ADD1B2" rx="11" ry="11" style="stroke: #A80036; stroke-width: 1.0;"/><path d="M157,1349.5 Q157.2031,1349 157.4375,1348.75 Q157.6719,1348.5 157.9375,1348.5 Q158.4063,1348.5 158.7031,1348.7813 Q159,1349.0625 159,1349.7188 L159,1351.2813 Q159,1351.9375 158.7188,1352.2188 Q158.4375,1352.5 158,1352.5 Q157.6094,1352.5 157.3594,1352.3281 Q157.1094,1352.1563 157,1351.7031 Q156.9531,1351.3906 156.7813,1351.2188 Q156.4688,1350.8906 155.9063,1350.7031 Q155.3438,1350.5 154.7813,1350.5 Q154.0781,1350.5 153.4844,1350.7813 Q152.9063,1351.0625 152.4531,1351.6875 Q152,1352.3125 152,1353.1719 L152,1354.0938 Q152,1355.125 152.8438,1355.8125 Q153.6875,1356.5 155.1875,1356.5 Q156.0781,1356.5 156.7031,1356.2969 Q157.0625,1356.1875 157.4688,1355.8281 Q157.7344,1355.625 157.875,1355.5625 Q158.0156,1355.5 158.1875,1355.5 Q158.5156,1355.5 158.75,1355.7656 Q159,1356.0156 159,1356.375 Q159,1356.7188 158.6563,1357.125 Q158.1563,1357.7188 157.3594,1358.0469 Q156.3125,1358.5 155.0313,1358.5 Q153.5313,1358.5 152.3281,1357.9063 Q151.3594,1357.4375 150.6719,1356.4219 Q150,1355.4063 150,1354.2031 L150,1353.1094 Q150,1351.8594 150.5938,1350.7656 Q151.2031,1349.6719 152.25,1349.0938 Q153.3125,1348.5 154.5,1348.5 Q155.2188,1348.5 155.8438,1348.75 Q156.4688,1349 157,1349.5 Z "/><text fill="#000000" font-family="sans-serif" font-size="12" lengthAdjust="spacingAndGlyphs" textLength="72" x="169" y="1357.9102">ChargingSlot</text><line style="stroke: #A80036; stroke-width: 1.5;" x1="141" x2="243" y1="1369" y2="1369"/><text fill="#000000" font-family="sans-serif" font-size="11" lengthAdjust="spacingAndGlyphs" textLength="26" x="146" y="1384.4189">-int id</text><line style="stroke: #A80036; stroke-width: 1.5;" x1="141" x2="243" y1="1390.8359" y2="1390.8359"/><!--MD5=[941956f4bed192556f7b65756093b59d]
class NonChargingSlot--><rect fill="#FEFECE" filter="url(#f1e0g8j0bfcslk)" height="61.8359" id="NonChargingSlot" style="stroke: #A80036; stroke-width: 1.5;" width="127" x="279.5" y="1337"/><ellipse cx="294.5" cy="1353" fill="#ADD1B2" rx="11" ry="11" style="stroke: #A80036; stroke-width: 1.0;"/><path d="M296.5,1349.5 Q296.7031,1349 296.9375,1348.75 Q297.1719,1348.5 297.4375,1348.5 Q297.9063,1348.5 298.2031,1348.7813 Q298.5,1349.0625 298.5,1349.7188 L298.5,1351.2813 Q298.5,1351.9375 298.2188,1352.2188 Q297.9375,1352.5 297.5,1352.5 Q297.1094,1352.5 296.8594,1352.3281 Q296.6094,1352.1563 296.5,1351.7031 Q296.4531,1351.3906 296.2813,1351.2188 Q295.9688,1350.8906 295.4063,1350.7031 Q294.8438,1350.5 294.2813,1350.5 Q293.5781,1350.5 292.9844,1350.7813 Q292.4063,1351.0625 291.9531,1351.6875 Q291.5,1352.3125 291.5,1353.1719 L291.5,1354.0938 Q291.5,1355.125 292.3438,1355.8125 Q293.1875,1356.5 294.6875,1356.5 Q295.5781,1356.5 296.2031,1356.2969 Q296.5625,1356.1875 296.9688,1355.8281 Q297.2344,1355.625 297.375,1355.5625 Q297.5156,1355.5 297.6875,1355.5 Q298.0156,1355.5 298.25,1355.7656 Q298.5,1356.0156 298.5,1356.375 Q298.5,1356.7188 298.1563,1357.125 Q297.6563,1357.7188 296.8594,1358.0469 Q295.8125,1358.5 294.5313,1358.5 Q293.0313,1358.5 291.8281,1357.9063 Q290.8594,1357.4375 290.1719,1356.4219 Q289.5,1355.4063 289.5,1354.2031 L289.5,1353.1094 Q289.5,1351.8594 290.0938,1350.7656 Q290.7031,1349.6719 291.75,1349.0938 Q292.8125,1348.5 294,1348.5 Q294.7188,1348.5 295.3438,1348.75 Q295.9688,1349 296.5,1349.5 Z "/><text fill="#000000" font-family="sans-serif" font-size="12" lengthAdjust="spacingAndGlyphs" textLength="95" x="308.5" y="1357.9102">NonChargingSlot</text><line style="stroke: #A80036; stroke-width: 1.5;" x1="280.5" x2="405.5" y1="1369" y2="1369"/><text fill="#000000" font-family="sans-serif" font-size="11" lengthAdjust="spacingAndGlyphs" textLength="26" x="285.5" y="1384.4189">-int id</text><line style="stroke: #A80036; stroke-width: 1.5;" x1="280.5" x2="405.5" y1="1390.8359" y2="1390.8359"/><!--MD5=[6171c3a2f2c752b4019101857dc83635]
class ParkingSlot--><rect fill="#FEFECE" filter="url(#f1e0g8j0bfcslk)" height="61.8359" id="ParkingSlot" style="stroke: #A80036; stroke-width: 1.5;" width="95" x="198.5" y="1155.5"/><ellipse cx="213.5" cy="1171.5" fill="#ADD1B2" rx="11" ry="11" style="stroke: #A80036; stroke-width: 1.0;"/><path d="M215.5,1168 Q215.7031,1167.5 215.9375,1167.25 Q216.1719,1167 216.4375,1167 Q216.9063,1167 217.2031,1167.2813 Q217.5,1167.5625 217.5,1168.2188 L217.5,1169.7813 Q217.5,1170.4375 217.2188,1170.7188 Q216.9375,1171 216.5,1171 Q216.1094,1171 215.8594,1170.8281 Q215.6094,1170.6563 215.5,1170.2031 Q215.4531,1169.8906 215.2813,1169.7188 Q214.9688,1169.3906 214.4063,1169.2031 Q213.8438,1169 213.2813,1169 Q212.5781,1169 211.9844,1169.2813 Q211.4063,1169.5625 210.9531,1170.1875 Q210.5,1170.8125 210.5,1171.6719 L210.5,1172.5938 Q210.5,1173.625 211.3438,1174.3125 Q212.1875,1175 213.6875,1175 Q214.5781,1175 215.2031,1174.7969 Q215.5625,1174.6875 215.9688,1174.3281 Q216.2344,1174.125 216.375,1174.0625 Q216.5156,1174 216.6875,1174 Q217.0156,1174 217.25,1174.2656 Q217.5,1174.5156 217.5,1174.875 Q217.5,1175.2188 217.1563,1175.625 Q216.6563,1176.2188 215.8594,1176.5469 Q214.8125,1177 213.5313,1177 Q212.0313,1177 210.8281,1176.4063 Q209.8594,1175.9375 209.1719,1174.9219 Q208.5,1173.9063 208.5,1172.7031 L208.5,1171.6094 Q208.5,1170.3594 209.0938,1169.2656 Q209.7031,1168.1719 210.75,1167.5938 Q211.8125,1167 213,1167 Q213.7188,1167 214.3438,1167.25 Q214.9688,1167.5 215.5,1168 Z "/><text fill="#000000" font-family="sans-serif" font-size="12" lengthAdjust="spacingAndGlyphs" textLength="63" x="227.5" y="1176.4102">ParkingSlot</text><line style="stroke: #A80036; stroke-width: 1.5;" x1="199.5" x2="292.5" y1="1187.5" y2="1187.5"/><text fill="#000000" font-family="sans-serif" font-size="11" lengthAdjust="spacingAndGlyphs" textLength="26" x="204.5" y="1202.9189">-int id</text><line style="stroke: #A80036; stroke-width: 1.5;" x1="199.5" x2="292.5" y1="1209.3359" y2="1209.3359"/><!--MD5=[f4402668d5d5bb8485350c0fdb60ac8e]
class Scooter--><rect fill="#FEFECE" filter="url(#f1e0g8j0bfcslk)" height="75.6719" id="Scooter" style="stroke: #A80036; stroke-width: 1.5;" width="329" x="258.5" y="609"/><ellipse cx="397.75" cy="625" fill="#ADD1B2" rx="11" ry="11" style="stroke: #A80036; stroke-width: 1.0;"/><path d="M399.75,621.5 Q399.9531,621 400.1875,620.75 Q400.4219,620.5 400.6875,620.5 Q401.1563,620.5 401.4531,620.7813 Q401.75,621.0625 401.75,621.7188 L401.75,623.2813 Q401.75,623.9375 401.4688,624.2188 Q401.1875,624.5 400.75,624.5 Q400.3594,624.5 400.1094,624.3281 Q399.8594,624.1563 399.75,623.7031 Q399.7031,623.3906 399.5313,623.2188 Q399.2188,622.8906 398.6563,622.7031 Q398.0938,622.5 397.5313,622.5 Q396.8281,622.5 396.2344,622.7813 Q395.6563,623.0625 395.2031,623.6875 Q394.75,624.3125 394.75,625.1719 L394.75,626.0938 Q394.75,627.125 395.5938,627.8125 Q396.4375,628.5 397.9375,628.5 Q398.8281,628.5 399.4531,628.2969 Q399.8125,628.1875 400.2188,627.8281 Q400.4844,627.625 400.625,627.5625 Q400.7656,627.5 400.9375,627.5 Q401.2656,627.5 401.5,627.7656 Q401.75,628.0156 401.75,628.375 Q401.75,628.7188 401.4063,629.125 Q400.9063,629.7188 400.1094,630.0469 Q399.0625,630.5 397.7813,630.5 Q396.2813,630.5 395.0781,629.9063 Q394.1094,629.4375 393.4219,628.4219 Q392.75,627.4063 392.75,626.2031 L392.75,625.1094 Q392.75,623.8594 393.3438,622.7656 Q393.9531,621.6719 395,621.0938 Q396.0625,620.5 397.25,620.5 Q397.9688,620.5 398.5938,620.75 Q399.2188,621 399.75,621.5 Z "/><text fill="#000000" font-family="sans-serif" font-size="12" lengthAdjust="spacingAndGlyphs" textLength="42" x="418.25" y="629.9102">Scooter</text><line style="stroke: #A80036; stroke-width: 1.5;" x1="259.5" x2="586.5" y1="641" y2="641"/><line style="stroke: #A80036; stroke-width: 1.5;" x1="259.5" x2="586.5" y1="649" y2="649"/><text fill="#000000" font-family="sans-serif" font-size="11" lengthAdjust="spacingAndGlyphs" textLength="225" x="264.5" y="664.4189">+Scooter(batteryPerc, charginStatus, potency,</text><text fill="#000000" font-family="sans-serif" font-size="11" lengthAdjust="spacingAndGlyphs" textLength="314" x="267.5" y="678.2549">weight, batteryCapacity, maxPayload, batteryVoltage, pharmacy)</text><!--MD5=[5e13c92683bb853a25438ed3edf51dc3]
class VehicleModel--><rect fill="#FEFECE" filter="url(#f1e0g8j0bfcslk)" height="117.1797" id="VehicleModel" style="stroke: #A80036; stroke-width: 1.5;" width="109" x="364.5" y="919"/><ellipse cx="381.3" cy="935" fill="#ADD1B2" rx="11" ry="11" style="stroke: #A80036; stroke-width: 1.0;"/><path d="M383.3,931.5 Q383.5031,931 383.7375,930.75 Q383.9719,930.5 384.2375,930.5 Q384.7063,930.5 385.0031,930.7813 Q385.3,931.0625 385.3,931.7188 L385.3,933.2813 Q385.3,933.9375 385.0188,934.2188 Q384.7375,934.5 384.3,934.5 Q383.9094,934.5 383.6594,934.3281 Q383.4094,934.1563 383.3,933.7031 Q383.2531,933.3906 383.0813,933.2188 Q382.7688,932.8906 382.2063,932.7031 Q381.6438,932.5 381.0813,932.5 Q380.3781,932.5 379.7844,932.7813 Q379.2063,933.0625 378.7531,933.6875 Q378.3,934.3125 378.3,935.1719 L378.3,936.0938 Q378.3,937.125 379.1438,937.8125 Q379.9875,938.5 381.4875,938.5 Q382.3781,938.5 383.0031,938.2969 Q383.3625,938.1875 383.7688,937.8281 Q384.0344,937.625 384.175,937.5625 Q384.3156,937.5 384.4875,937.5 Q384.8156,937.5 385.05,937.7656 Q385.3,938.0156 385.3,938.375 Q385.3,938.7188 384.9563,939.125 Q384.4563,939.7188 383.6594,940.0469 Q382.6125,940.5 381.3313,940.5 Q379.8313,940.5 378.6281,939.9063 Q377.6594,939.4375 376.9719,938.4219 Q376.3,937.4063 376.3,936.2031 L376.3,935.1094 Q376.3,933.8594 376.8938,932.7656 Q377.5031,931.6719 378.55,931.0938 Q379.6125,930.5 380.8,930.5 Q381.5188,930.5 382.1438,930.75 Q382.7688,931 383.3,931.5 Z "/><text fill="#000000" font-family="sans-serif" font-size="12" lengthAdjust="spacingAndGlyphs" textLength="73" x="395.7" y="939.9102">VehicleModel</text><line style="stroke: #A80036; stroke-width: 1.5;" x1="365.5" x2="472.5" y1="951" y2="951"/><text fill="#000000" font-family="sans-serif" font-size="11" lengthAdjust="spacingAndGlyphs" textLength="26" x="370.5" y="966.4189">-int id</text><text fill="#000000" font-family="sans-serif" font-size="11" lengthAdjust="spacingAndGlyphs" textLength="90" x="370.5" y="980.2549">-String desigantion</text><text fill="#000000" font-family="sans-serif" font-size="11" lengthAdjust="spacingAndGlyphs" textLength="78" x="370.5" y="994.0908">-double potency</text><text fill="#000000" font-family="sans-serif" font-size="11" lengthAdjust="spacingAndGlyphs" textLength="72" x="370.5" y="1007.9268">-double weight</text><text fill="#000000" font-family="sans-serif" font-size="11" lengthAdjust="spacingAndGlyphs" textLength="97" x="370.5" y="1021.7627">-double maxPayload</text><line style="stroke: #A80036; stroke-width: 1.5;" x1="365.5" x2="472.5" y1="1028.1797" y2="1028.1797"/><!--MD5=[9e8cdc57c56bad5cdfc47653c9df3022]
class VehicleType--><rect fill="#FEFECE" filter="url(#f1e0g8j0bfcslk)" height="61.8359" id="VehicleType" style="stroke: #A80036; stroke-width: 1.5;" width="102" x="329" y="1155.5"/><ellipse cx="345.8" cy="1171.5" fill="#ADD1B2" rx="11" ry="11" style="stroke: #A80036; stroke-width: 1.0;"/><path d="M347.8,1168 Q348.0031,1167.5 348.2375,1167.25 Q348.4719,1167 348.7375,1167 Q349.2063,1167 349.5031,1167.2813 Q349.8,1167.5625 349.8,1168.2188 L349.8,1169.7813 Q349.8,1170.4375 349.5188,1170.7188 Q349.2375,1171 348.8,1171 Q348.4094,1171 348.1594,1170.8281 Q347.9094,1170.6563 347.8,1170.2031 Q347.7531,1169.8906 347.5813,1169.7188 Q347.2688,1169.3906 346.7063,1169.2031 Q346.1438,1169 345.5813,1169 Q344.8781,1169 344.2844,1169.2813 Q343.7063,1169.5625 343.2531,1170.1875 Q342.8,1170.8125 342.8,1171.6719 L342.8,1172.5938 Q342.8,1173.625 343.6438,1174.3125 Q344.4875,1175 345.9875,1175 Q346.8781,1175 347.5031,1174.7969 Q347.8625,1174.6875 348.2688,1174.3281 Q348.5344,1174.125 348.675,1174.0625 Q348.8156,1174 348.9875,1174 Q349.3156,1174 349.55,1174.2656 Q349.8,1174.5156 349.8,1174.875 Q349.8,1175.2188 349.4563,1175.625 Q348.9563,1176.2188 348.1594,1176.5469 Q347.1125,1177 345.8313,1177 Q344.3313,1177 343.1281,1176.4063 Q342.1594,1175.9375 341.4719,1174.9219 Q340.8,1173.9063 340.8,1172.7031 L340.8,1171.6094 Q340.8,1170.3594 341.3938,1169.2656 Q342.0031,1168.1719 343.05,1167.5938 Q344.1125,1167 345.3,1167 Q346.0188,1167 346.6438,1167.25 Q347.2688,1167.5 347.8,1168 Z "/><text fill="#000000" font-family="sans-serif" font-size="12" lengthAdjust="spacingAndGlyphs" textLength="66" x="360.2" y="1176.4102">VehicleType</text><line style="stroke: #A80036; stroke-width: 1.5;" x1="330" x2="430" y1="1187.5" y2="1187.5"/><text fill="#000000" font-family="sans-serif" font-size="11" lengthAdjust="spacingAndGlyphs" textLength="90" x="335" y="1202.9189">-String desigantion</text><line style="stroke: #A80036; stroke-width: 1.5;" x1="330" x2="430" y1="1209.3359" y2="1209.3359"/><!--MD5=[3aa0d89c6bfdcbf7f32042cedac57549]
class Vehicle--><rect fill="#FEFECE" filter="url(#f1e0g8j0bfcslk)" height="75.6719" id="Vehicle" style="stroke: #A80036; stroke-width: 1.5;" width="107" x="365.5" y="765"/><ellipse cx="396.25" cy="781" fill="#ADD1B2" rx="11" ry="11" style="stroke: #A80036; stroke-width: 1.0;"/><path d="M398.25,777.5 Q398.4531,777 398.6875,776.75 Q398.9219,776.5 399.1875,776.5 Q399.6563,776.5 399.9531,776.7813 Q400.25,777.0625 400.25,777.7188 L400.25,779.2813 Q400.25,779.9375 399.9688,780.2188 Q399.6875,780.5 399.25,780.5 Q398.8594,780.5 398.6094,780.3281 Q398.3594,780.1563 398.25,779.7031 Q398.2031,779.3906 398.0313,779.2188 Q397.7188,778.8906 397.1563,778.7031 Q396.5938,778.5 396.0313,778.5 Q395.3281,778.5 394.7344,778.7813 Q394.1563,779.0625 393.7031,779.6875 Q393.25,780.3125 393.25,781.1719 L393.25,782.0938 Q393.25,783.125 394.0938,783.8125 Q394.9375,784.5 396.4375,784.5 Q397.3281,784.5 397.9531,784.2969 Q398.3125,784.1875 398.7188,783.8281 Q398.9844,783.625 399.125,783.5625 Q399.2656,783.5 399.4375,783.5 Q399.7656,783.5 400,783.7656 Q400.25,784.0156 400.25,784.375 Q400.25,784.7188 399.9063,785.125 Q399.4063,785.7188 398.6094,786.0469 Q397.5625,786.5 396.2813,786.5 Q394.7813,786.5 393.5781,785.9063 Q392.6094,785.4375 391.9219,784.4219 Q391.25,783.4063 391.25,782.2031 L391.25,781.1094 Q391.25,779.8594 391.8438,778.7656 Q392.4531,777.6719 393.5,777.0938 Q394.5625,776.5 395.75,776.5 Q396.4688,776.5 397.0938,776.75 Q397.7188,777 398.25,777.5 Z "/><text fill="#000000" font-family="sans-serif" font-size="12" lengthAdjust="spacingAndGlyphs" textLength="40" x="413.75" y="785.9102">Vehicle</text><line style="stroke: #A80036; stroke-width: 1.5;" x1="366.5" x2="471.5" y1="797" y2="797"/><text fill="#000000" font-family="sans-serif" font-size="11" lengthAdjust="spacingAndGlyphs" textLength="26" x="371.5" y="812.4189">-int id</text><text fill="#000000" font-family="sans-serif" font-size="11" lengthAdjust="spacingAndGlyphs" textLength="95" x="371.5" y="826.2549">-double batteryPerc</text><line style="stroke: #A80036; stroke-width: 1.5;" x1="366.5" x2="471.5" y1="832.6719" y2="832.6719"/><!--MD5=[79eb2d862cef9730b5f9dcab29e35f17]
class Battery--><rect fill="#FEFECE" filter="url(#f1e0g8j0bfcslk)" height="103.3438" id="Battery" style="stroke: #A80036; stroke-width: 1.5;" width="122" x="466" y="1135"/><ellipse cx="504.85" cy="1151" fill="#ADD1B2" rx="11" ry="11" style="stroke: #A80036; stroke-width: 1.0;"/><path d="M506.85,1147.5 Q507.0531,1147 507.2875,1146.75 Q507.5219,1146.5 507.7875,1146.5 Q508.2563,1146.5 508.5531,1146.7813 Q508.85,1147.0625 508.85,1147.7188 L508.85,1149.2813 Q508.85,1149.9375 508.5688,1150.2188 Q508.2875,1150.5 507.85,1150.5 Q507.4594,1150.5 507.2094,1150.3281 Q506.9594,1150.1563 506.85,1149.7031 Q506.8031,1149.3906 506.6313,1149.2188 Q506.3188,1148.8906 505.7563,1148.7031 Q505.1938,1148.5 504.6313,1148.5 Q503.9281,1148.5 503.3344,1148.7813 Q502.7563,1149.0625 502.3031,1149.6875 Q501.85,1150.3125 501.85,1151.1719 L501.85,1152.0938 Q501.85,1153.125 502.6938,1153.8125 Q503.5375,1154.5 505.0375,1154.5 Q505.9281,1154.5 506.5531,1154.2969 Q506.9125,1154.1875 507.3188,1153.8281 Q507.5844,1153.625 507.725,1153.5625 Q507.8656,1153.5 508.0375,1153.5 Q508.3656,1153.5 508.6,1153.7656 Q508.85,1154.0156 508.85,1154.375 Q508.85,1154.7188 508.5063,1155.125 Q508.0063,1155.7188 507.2094,1156.0469 Q506.1625,1156.5 504.8813,1156.5 Q503.3813,1156.5 502.1781,1155.9063 Q501.2094,1155.4375 500.5219,1154.4219 Q499.85,1153.4063 499.85,1152.2031 L499.85,1151.1094 Q499.85,1149.8594 500.4438,1148.7656 Q501.0531,1147.6719 502.1,1147.0938 Q503.1625,1146.5 504.35,1146.5 Q505.0688,1146.5 505.6938,1146.75 Q506.3188,1147 506.85,1147.5 Z "/><text fill="#000000" font-family="sans-serif" font-size="12" lengthAdjust="spacingAndGlyphs" textLength="37" x="524.15" y="1155.9102">Battery</text><line style="stroke: #A80036; stroke-width: 1.5;" x1="467" x2="587" y1="1167" y2="1167"/><text fill="#000000" font-family="sans-serif" font-size="11" lengthAdjust="spacingAndGlyphs" textLength="26" x="472" y="1182.4189">-int id</text><text fill="#000000" font-family="sans-serif" font-size="11" lengthAdjust="spacingAndGlyphs" textLength="94" x="472" y="1196.2549">-int batteryCapacity</text><text fill="#000000" font-family="sans-serif" font-size="11" lengthAdjust="spacingAndGlyphs" textLength="110" x="472" y="1210.0908">-double batteryVoltage</text><text fill="#000000" font-family="sans-serif" font-size="11" lengthAdjust="spacingAndGlyphs" textLength="87" x="472" y="1223.9268">-double efficiency</text><line style="stroke: #A80036; stroke-width: 1.5;" x1="467" x2="587" y1="1230.3438" y2="1230.3438"/><!--MD5=[0f39e4cb6f03951afbf6d14bd2505654]
class Address--><rect fill="#FEFECE" filter="url(#f1e0g8j0bfcslk)" height="144.8516" id="Address" style="stroke: #A80036; stroke-width: 1.5;" width="106" x="57" y="1114"/><ellipse cx="84.6" cy="1130" fill="#ADD1B2" rx="11" ry="11" style="stroke: #A80036; stroke-width: 1.0;"/><path d="M86.6,1126.5 Q86.8031,1126 87.0375,1125.75 Q87.2719,1125.5 87.5375,1125.5 Q88.0063,1125.5 88.3031,1125.7813 Q88.6,1126.0625 88.6,1126.7188 L88.6,1128.2813 Q88.6,1128.9375 88.3188,1129.2188 Q88.0375,1129.5 87.6,1129.5 Q87.2094,1129.5 86.9594,1129.3281 Q86.7094,1129.1563 86.6,1128.7031 Q86.5531,1128.3906 86.3813,1128.2188 Q86.0688,1127.8906 85.5063,1127.7031 Q84.9438,1127.5 84.3813,1127.5 Q83.6781,1127.5 83.0844,1127.7813 Q82.5063,1128.0625 82.0531,1128.6875 Q81.6,1129.3125 81.6,1130.1719 L81.6,1131.0938 Q81.6,1132.125 82.4438,1132.8125 Q83.2875,1133.5 84.7875,1133.5 Q85.6781,1133.5 86.3031,1133.2969 Q86.6625,1133.1875 87.0688,1132.8281 Q87.3344,1132.625 87.475,1132.5625 Q87.6156,1132.5 87.7875,1132.5 Q88.1156,1132.5 88.35,1132.7656 Q88.6,1133.0156 88.6,1133.375 Q88.6,1133.7188 88.2563,1134.125 Q87.7563,1134.7188 86.9594,1135.0469 Q85.9125,1135.5 84.6313,1135.5 Q83.1313,1135.5 81.9281,1134.9063 Q80.9594,1134.4375 80.2719,1133.4219 Q79.6,1132.4063 79.6,1131.2031 L79.6,1130.1094 Q79.6,1128.8594 80.1938,1127.7656 Q80.8031,1126.6719 81.85,1126.0938 Q82.9125,1125.5 84.1,1125.5 Q84.8188,1125.5 85.4438,1125.75 Q86.0688,1126 86.6,1126.5 Z "/><text fill="#000000" font-family="sans-serif" font-size="12" lengthAdjust="spacingAndGlyphs" textLength="46" x="101.4" y="1134.9102">Address</text><line style="stroke: #A80036; stroke-width: 1.5;" x1="58" x2="162" y1="1146" y2="1146"/><text fill="#000000" font-family="sans-serif" font-size="11" lengthAdjust="spacingAndGlyphs" textLength="82" x="63" y="1161.4189">-double longitude</text><text fill="#000000" font-family="sans-serif" font-size="11" lengthAdjust="spacingAndGlyphs" textLength="73" x="63" y="1175.2549">-double latitude</text><text fill="#000000" font-family="sans-serif" font-size="11" lengthAdjust="spacingAndGlyphs" textLength="94" x="63" y="1189.0908">-String doorNumber</text><text fill="#000000" font-family="sans-serif" font-size="11" lengthAdjust="spacingAndGlyphs" textLength="90" x="63" y="1202.9268">-String streetName</text><text fill="#000000" font-family="sans-serif" font-size="11" lengthAdjust="spacingAndGlyphs" textLength="89" x="63" y="1216.7627">-String postalCode</text><text fill="#000000" font-family="sans-serif" font-size="11" lengthAdjust="spacingAndGlyphs" textLength="68" x="63" y="1230.5986">-String locality</text><text fill="#000000" font-family="sans-serif" font-size="11" lengthAdjust="spacingAndGlyphs" textLength="72" x="63" y="1244.4346">-String country</text><line style="stroke: #A80036; stroke-width: 1.5;" x1="58" x2="162" y1="1250.8516" y2="1250.8516"/><!--MD5=[7f2a9fafcebe4f099f71398fd3e2ed00]
class Pharmacy--><rect fill="#FEFECE" filter="url(#f1e0g8j0bfcslk)" height="89.5078" id="Pharmacy" style="stroke: #A80036; stroke-width: 1.5;" width="87" x="68.5" y="932.5"/><ellipse cx="83.5" cy="948.5" fill="#ADD1B2" rx="11" ry="11" style="stroke: #A80036; stroke-width: 1.0;"/><path d="M85.5,945 Q85.7031,944.5 85.9375,944.25 Q86.1719,944 86.4375,944 Q86.9063,944 87.2031,944.2813 Q87.5,944.5625 87.5,945.2188 L87.5,946.7813 Q87.5,947.4375 87.2188,947.7188 Q86.9375,948 86.5,948 Q86.1094,948 85.8594,947.8281 Q85.6094,947.6563 85.5,947.2031 Q85.4531,946.8906 85.2813,946.7188 Q84.9688,946.3906 84.4063,946.2031 Q83.8438,946 83.2813,946 Q82.5781,946 81.9844,946.2813 Q81.4063,946.5625 80.9531,947.1875 Q80.5,947.8125 80.5,948.6719 L80.5,949.5938 Q80.5,950.625 81.3438,951.3125 Q82.1875,952 83.6875,952 Q84.5781,952 85.2031,951.7969 Q85.5625,951.6875 85.9688,951.3281 Q86.2344,951.125 86.375,951.0625 Q86.5156,951 86.6875,951 Q87.0156,951 87.25,951.2656 Q87.5,951.5156 87.5,951.875 Q87.5,952.2188 87.1563,952.625 Q86.6563,953.2188 85.8594,953.5469 Q84.8125,954 83.5313,954 Q82.0313,954 80.8281,953.4063 Q79.8594,952.9375 79.1719,951.9219 Q78.5,950.9063 78.5,949.7031 L78.5,948.6094 Q78.5,947.3594 79.0938,946.2656 Q79.7031,945.1719 80.75,944.5938 Q81.8125,944 83,944 Q83.7188,944 84.3438,944.25 Q84.9688,944.5 85.5,945 Z "/><text fill="#000000" font-family="sans-serif" font-size="12" lengthAdjust="spacingAndGlyphs" textLength="55" x="97.5" y="953.4102">Pharmacy</text><line style="stroke: #A80036; stroke-width: 1.5;" x1="69.5" x2="154.5" y1="964.5" y2="964.5"/><text fill="#000000" font-family="sans-serif" font-size="11" lengthAdjust="spacingAndGlyphs" textLength="26" x="74.5" y="979.9189">-int id</text><text fill="#000000" font-family="sans-serif" font-size="11" lengthAdjust="spacingAndGlyphs" textLength="61" x="74.5" y="993.7549">-String name</text><text fill="#000000" font-family="sans-serif" font-size="11" lengthAdjust="spacingAndGlyphs" textLength="59" x="74.5" y="1007.5908">-String email</text><line style="stroke: #A80036; stroke-width: 1.5;" x1="69.5" x2="154.5" y1="1014.0078" y2="1014.0078"/><!--MD5=[28160fdc0be430cd6f04db15a7547552]
class PharmacyService--><rect fill="#FEFECE" filter="url(#f1e0g8j0bfcslk)" height="75.6719" id="PharmacyService" style="stroke: #A80036; stroke-width: 1.5;" width="127" x="404.5" y="453"/><ellipse cx="419.5" cy="469" fill="#ADD1B2" rx="11" ry="11" style="stroke: #A80036; stroke-width: 1.0;"/><path d="M421.5,465.5 Q421.7031,465 421.9375,464.75 Q422.1719,464.5 422.4375,464.5 Q422.9063,464.5 423.2031,464.7813 Q423.5,465.0625 423.5,465.7188 L423.5,467.2813 Q423.5,467.9375 423.2188,468.2188 Q422.9375,468.5 422.5,468.5 Q422.1094,468.5 421.8594,468.3281 Q421.6094,468.1563 421.5,467.7031 Q421.4531,467.3906 421.2813,467.2188 Q420.9688,466.8906 420.4063,466.7031 Q419.8438,466.5 419.2813,466.5 Q418.5781,466.5 417.9844,466.7813 Q417.4063,467.0625 416.9531,467.6875 Q416.5,468.3125 416.5,469.1719 L416.5,470.0938 Q416.5,471.125 417.3438,471.8125 Q418.1875,472.5 419.6875,472.5 Q420.5781,472.5 421.2031,472.2969 Q421.5625,472.1875 421.9688,471.8281 Q422.2344,471.625 422.375,471.5625 Q422.5156,471.5 422.6875,471.5 Q423.0156,471.5 423.25,471.7656 Q423.5,472.0156 423.5,472.375 Q423.5,472.7188 423.1563,473.125 Q422.6563,473.7188 421.8594,474.0469 Q420.8125,474.5 419.5313,474.5 Q418.0313,474.5 416.8281,473.9063 Q415.8594,473.4375 415.1719,472.4219 Q414.5,471.4063 414.5,470.2031 L414.5,469.1094 Q414.5,467.8594 415.0938,466.7656 Q415.7031,465.6719 416.75,465.0938 Q417.8125,464.5 419,464.5 Q419.7188,464.5 420.3438,464.75 Q420.9688,465 421.5,465.5 Z "/><text fill="#000000" font-family="sans-serif" font-size="12" lengthAdjust="spacingAndGlyphs" textLength="95" x="433.5" y="473.9102">PharmacyService</text><line style="stroke: #A80036; stroke-width: 1.5;" x1="405.5" x2="530.5" y1="485" y2="485"/><line style="stroke: #A80036; stroke-width: 1.5;" x1="405.5" x2="530.5" y1="493" y2="493"/><text fill="#000000" font-family="sans-serif" font-size="11" lengthAdjust="spacingAndGlyphs" textLength="99" x="410.5" y="508.4189">+PharmacyService()</text><text fill="#000000" font-family="sans-serif" font-size="11" lengthAdjust="spacingAndGlyphs" textLength="85" x="410.5" y="522.2549">+getPharmacies()</text><!--MD5=[aa4a745fe56463fab637f55d2a7c778f]
class ScooterService--><rect fill="#FEFECE" filter="url(#f1e0g8j0bfcslk)" height="75.6719" id="ScooterService" style="stroke: #A80036; stroke-width: 1.5;" width="128" x="241" y="453"/><ellipse cx="262.3" cy="469" fill="#ADD1B2" rx="11" ry="11" style="stroke: #A80036; stroke-width: 1.0;"/><path d="M264.3,465.5 Q264.5031,465 264.7375,464.75 Q264.9719,464.5 265.2375,464.5 Q265.7063,464.5 266.0031,464.7813 Q266.3,465.0625 266.3,465.7188 L266.3,467.2813 Q266.3,467.9375 266.0188,468.2188 Q265.7375,468.5 265.3,468.5 Q264.9094,468.5 264.6594,468.3281 Q264.4094,468.1563 264.3,467.7031 Q264.2531,467.3906 264.0813,467.2188 Q263.7688,466.8906 263.2063,466.7031 Q262.6438,466.5 262.0813,466.5 Q261.3781,466.5 260.7844,466.7813 Q260.2063,467.0625 259.7531,467.6875 Q259.3,468.3125 259.3,469.1719 L259.3,470.0938 Q259.3,471.125 260.1438,471.8125 Q260.9875,472.5 262.4875,472.5 Q263.3781,472.5 264.0031,472.2969 Q264.3625,472.1875 264.7688,471.8281 Q265.0344,471.625 265.175,471.5625 Q265.3156,471.5 265.4875,471.5 Q265.8156,471.5 266.05,471.7656 Q266.3,472.0156 266.3,472.375 Q266.3,472.7188 265.9563,473.125 Q265.4563,473.7188 264.6594,474.0469 Q263.6125,474.5 262.3313,474.5 Q260.8313,474.5 259.6281,473.9063 Q258.6594,473.4375 257.9719,472.4219 Q257.3,471.4063 257.3,470.2031 L257.3,469.1094 Q257.3,467.8594 257.8938,466.7656 Q258.5031,465.6719 259.55,465.0938 Q260.6125,464.5 261.8,464.5 Q262.5188,464.5 263.1438,464.75 Q263.7688,465 264.3,465.5 Z "/><text fill="#000000" font-family="sans-serif" font-size="12" lengthAdjust="spacingAndGlyphs" textLength="82" x="277.7" y="473.9102">ScooterService</text><line style="stroke: #A80036; stroke-width: 1.5;" x1="242" x2="368" y1="485" y2="485"/><line style="stroke: #A80036; stroke-width: 1.5;" x1="242" x2="368" y1="493" y2="493"/><text fill="#000000" font-family="sans-serif" font-size="11" lengthAdjust="spacingAndGlyphs" textLength="89" x="247" y="508.4189">+ScooterService()</text><text fill="#000000" font-family="sans-serif" font-size="11" lengthAdjust="spacingAndGlyphs" textLength="116" x="247" y="522.2549">+registerScooter(scoot)</text><!--MD5=[863f4043e1de722540fac69a90fd79cb]
class VehicleService--><rect fill="#FEFECE" filter="url(#f1e0g8j0bfcslk)" height="75.6719" id="VehicleService" style="stroke: #A80036; stroke-width: 1.5;" width="112" x="94" y="453"/><ellipse cx="109" cy="469" fill="#ADD1B2" rx="11" ry="11" style="stroke: #A80036; stroke-width: 1.0;"/><path d="M111,465.5 Q111.2031,465 111.4375,464.75 Q111.6719,464.5 111.9375,464.5 Q112.4063,464.5 112.7031,464.7813 Q113,465.0625 113,465.7188 L113,467.2813 Q113,467.9375 112.7188,468.2188 Q112.4375,468.5 112,468.5 Q111.6094,468.5 111.3594,468.3281 Q111.1094,468.1563 111,467.7031 Q110.9531,467.3906 110.7813,467.2188 Q110.4688,466.8906 109.9063,466.7031 Q109.3438,466.5 108.7813,466.5 Q108.0781,466.5 107.4844,466.7813 Q106.9063,467.0625 106.4531,467.6875 Q106,468.3125 106,469.1719 L106,470.0938 Q106,471.125 106.8438,471.8125 Q107.6875,472.5 109.1875,472.5 Q110.0781,472.5 110.7031,472.2969 Q111.0625,472.1875 111.4688,471.8281 Q111.7344,471.625 111.875,471.5625 Q112.0156,471.5 112.1875,471.5 Q112.5156,471.5 112.75,471.7656 Q113,472.0156 113,472.375 Q113,472.7188 112.6563,473.125 Q112.1563,473.7188 111.3594,474.0469 Q110.3125,474.5 109.0313,474.5 Q107.5313,474.5 106.3281,473.9063 Q105.3594,473.4375 104.6719,472.4219 Q104,471.4063 104,470.2031 L104,469.1094 Q104,467.8594 104.5938,466.7656 Q105.2031,465.6719 106.25,465.0938 Q107.3125,464.5 108.5,464.5 Q109.2188,464.5 109.8438,464.75 Q110.4688,465 111,465.5 Z "/><text fill="#000000" font-family="sans-serif" font-size="12" lengthAdjust="spacingAndGlyphs" textLength="80" x="123" y="473.9102">VehicleService</text><line style="stroke: #A80036; stroke-width: 1.5;" x1="95" x2="205" y1="485" y2="485"/><line style="stroke: #A80036; stroke-width: 1.5;" x1="95" x2="205" y1="493" y2="493"/><text fill="#000000" font-family="sans-serif" font-size="11" lengthAdjust="spacingAndGlyphs" textLength="87" x="100" y="508.4189">+VehicleService()</text><text fill="#000000" font-family="sans-serif" font-size="11" lengthAdjust="spacingAndGlyphs" textLength="97" x="100" y="522.2549">+generateQRCode()</text><!--MD5=[4b2d61224b33971326a22fe5d809d926]
class DataHandler--><rect fill="#FEFECE" filter="url(#f1e0g8j0bfcslk)" height="75.6719" id="DataHandler" style="stroke: #A80036; stroke-width: 1.5;" width="104" x="900" y="453"/><ellipse cx="915.9" cy="469" fill="#ADD1B2" rx="11" ry="11" style="stroke: #A80036; stroke-width: 1.0;"/><path d="M917.9,465.5 Q918.1031,465 918.3375,464.75 Q918.5719,464.5 918.8375,464.5 Q919.3063,464.5 919.6031,464.7813 Q919.9,465.0625 919.9,465.7188 L919.9,467.2813 Q919.9,467.9375 919.6188,468.2188 Q919.3375,468.5 918.9,468.5 Q918.5094,468.5 918.2594,468.3281 Q918.0094,468.1563 917.9,467.7031 Q917.8531,467.3906 917.6813,467.2188 Q917.3688,466.8906 916.8063,466.7031 Q916.2438,466.5 915.6813,466.5 Q914.9781,466.5 914.3844,466.7813 Q913.8063,467.0625 913.3531,467.6875 Q912.9,468.3125 912.9,469.1719 L912.9,470.0938 Q912.9,471.125 913.7438,471.8125 Q914.5875,472.5 916.0875,472.5 Q916.9781,472.5 917.6031,472.2969 Q917.9625,472.1875 918.3688,471.8281 Q918.6344,471.625 918.775,471.5625 Q918.9156,471.5 919.0875,471.5 Q919.4156,471.5 919.65,471.7656 Q919.9,472.0156 919.9,472.375 Q919.9,472.7188 919.5563,473.125 Q919.0563,473.7188 918.2594,474.0469 Q917.2125,474.5 915.9313,474.5 Q914.4313,474.5 913.2281,473.9063 Q912.2594,473.4375 911.5719,472.4219 Q910.9,471.4063 910.9,470.2031 L910.9,469.1094 Q910.9,467.8594 911.4938,466.7656 Q912.1031,465.6719 913.15,465.0938 Q914.2125,464.5 915.4,464.5 Q916.1188,464.5 916.7438,464.75 Q917.3688,465 917.9,465.5 Z "/><text fill="#000000" font-family="sans-serif" font-size="12" lengthAdjust="spacingAndGlyphs" textLength="70" x="930.1" y="473.9102">DataHandler</text><line style="stroke: #A80036; stroke-width: 1.5;" x1="901" x2="1003" y1="485" y2="485"/><line style="stroke: #A80036; stroke-width: 1.5;" x1="901" x2="1003" y1="493" y2="493"/><text fill="#000000" font-family="sans-serif" font-size="11" lengthAdjust="spacingAndGlyphs" textLength="92" x="906" y="508.4189">+openConnection()</text><text fill="#000000" font-family="sans-serif" font-size="11" lengthAdjust="spacingAndGlyphs" textLength="52" x="906" y="522.2549">+closeAll()</text><!--MD5=[b860ecc58d0ca70e482845cb1f7b4615]
class PharmacyDB--><rect fill="#FEFECE" filter="url(#f1e0g8j0bfcslk)" height="75.6719" id="PharmacyDB" style="stroke: #A80036; stroke-width: 1.5;" width="104" x="859" y="609"/><ellipse cx="874" cy="625" fill="#ADD1B2" rx="11" ry="11" style="stroke: #A80036; stroke-width: 1.0;"/><path d="M876,621.5 Q876.2031,621 876.4375,620.75 Q876.6719,620.5 876.9375,620.5 Q877.4063,620.5 877.7031,620.7813 Q878,621.0625 878,621.7188 L878,623.2813 Q878,623.9375 877.7188,624.2188 Q877.4375,624.5 877,624.5 Q876.6094,624.5 876.3594,624.3281 Q876.1094,624.1563 876,623.7031 Q875.9531,623.3906 875.7813,623.2188 Q875.4688,622.8906 874.9063,622.7031 Q874.3438,622.5 873.7813,622.5 Q873.0781,622.5 872.4844,622.7813 Q871.9063,623.0625 871.4531,623.6875 Q871,624.3125 871,625.1719 L871,626.0938 Q871,627.125 871.8438,627.8125 Q872.6875,628.5 874.1875,628.5 Q875.0781,628.5 875.7031,628.2969 Q876.0625,628.1875 876.4688,627.8281 Q876.7344,627.625 876.875,627.5625 Q877.0156,627.5 877.1875,627.5 Q877.5156,627.5 877.75,627.7656 Q878,628.0156 878,628.375 Q878,628.7188 877.6563,629.125 Q877.1563,629.7188 876.3594,630.0469 Q875.3125,630.5 874.0313,630.5 Q872.5313,630.5 871.3281,629.9063 Q870.3594,629.4375 869.6719,628.4219 Q869,627.4063 869,626.2031 L869,625.1094 Q869,623.8594 869.5938,622.7656 Q870.2031,621.6719 871.25,621.0938 Q872.3125,620.5 873.5,620.5 Q874.2188,620.5 874.8438,620.75 Q875.4688,621 876,621.5 Z "/><text fill="#000000" font-family="sans-serif" font-size="12" lengthAdjust="spacingAndGlyphs" textLength="72" x="888" y="629.9102">PharmacyDB</text><line style="stroke: #A80036; stroke-width: 1.5;" x1="860" x2="962" y1="641" y2="641"/><line style="stroke: #A80036; stroke-width: 1.5;" x1="860" x2="962" y1="649" y2="649"/><text fill="#000000" font-family="sans-serif" font-size="11" lengthAdjust="spacingAndGlyphs" textLength="76" x="865" y="664.4189">+PharmacyDB()</text><text fill="#000000" font-family="sans-serif" font-size="11" lengthAdjust="spacingAndGlyphs" textLength="85" x="865" y="678.2549">+getPharmacies()</text><!--MD5=[48d7298b3bd1f8b3e8f77915e881d788]
class ScooterDB--><rect fill="#FEFECE" filter="url(#f1e0g8j0bfcslk)" height="75.6719" id="ScooterDB" style="stroke: #A80036; stroke-width: 1.5;" width="128" x="998" y="609"/><ellipse cx="1029.65" cy="625" fill="#ADD1B2" rx="11" ry="11" style="stroke: #A80036; stroke-width: 1.0;"/><path d="M1031.65,621.5 Q1031.8531,621 1032.0875,620.75 Q1032.3219,620.5 1032.5875,620.5 Q1033.0563,620.5 1033.3531,620.7813 Q1033.65,621.0625 1033.65,621.7188 L1033.65,623.2813 Q1033.65,623.9375 1033.3688,624.2188 Q1033.0875,624.5 1032.65,624.5 Q1032.2594,624.5 1032.0094,624.3281 Q1031.7594,624.1563 1031.65,623.7031 Q1031.6031,623.3906 1031.4313,623.2188 Q1031.1188,622.8906 1030.5563,622.7031 Q1029.9938,622.5 1029.4313,622.5 Q1028.7281,622.5 1028.1344,622.7813 Q1027.5563,623.0625 1027.1031,623.6875 Q1026.65,624.3125 1026.65,625.1719 L1026.65,626.0938 Q1026.65,627.125 1027.4938,627.8125 Q1028.3375,628.5 1029.8375,628.5 Q1030.7281,628.5 1031.3531,628.2969 Q1031.7125,628.1875 1032.1188,627.8281 Q1032.3844,627.625 1032.525,627.5625 Q1032.6656,627.5 1032.8375,627.5 Q1033.1656,627.5 1033.4,627.7656 Q1033.65,628.0156 1033.65,628.375 Q1033.65,628.7188 1033.3063,629.125 Q1032.8063,629.7188 1032.0094,630.0469 Q1030.9625,630.5 1029.6813,630.5 Q1028.1813,630.5 1026.9781,629.9063 Q1026.0094,629.4375 1025.3219,628.4219 Q1024.65,627.4063 1024.65,626.2031 L1024.65,625.1094 Q1024.65,623.8594 1025.2438,622.7656 Q1025.8531,621.6719 1026.9,621.0938 Q1027.9625,620.5 1029.15,620.5 Q1029.8688,620.5 1030.4938,620.75 Q1031.1188,621 1031.65,621.5 Z "/><text fill="#000000" font-family="sans-serif" font-size="12" lengthAdjust="spacingAndGlyphs" textLength="59" x="1047.35" y="629.9102">ScooterDB</text><line style="stroke: #A80036; stroke-width: 1.5;" x1="999" x2="1125" y1="641" y2="641"/><line style="stroke: #A80036; stroke-width: 1.5;" x1="999" x2="1125" y1="649" y2="649"/><text fill="#000000" font-family="sans-serif" font-size="11" lengthAdjust="spacingAndGlyphs" textLength="66" x="1004" y="664.4189">+ScooterDB()</text><text fill="#000000" font-family="sans-serif" font-size="11" lengthAdjust="spacingAndGlyphs" textLength="116" x="1004" y="678.2549">+registerScooter(scoot)</text><!--MD5=[0eeba38b962813fa642822f4f72de053]
class VehicleDB--><rect fill="#FEFECE" filter="url(#f1e0g8j0bfcslk)" height="61.8359" id="VehicleDB" style="stroke: #A80036; stroke-width: 1.5;" width="89" x="734.5" y="616"/><ellipse cx="749.5" cy="632" fill="#ADD1B2" rx="11" ry="11" style="stroke: #A80036; stroke-width: 1.0;"/><path d="M751.5,628.5 Q751.7031,628 751.9375,627.75 Q752.1719,627.5 752.4375,627.5 Q752.9063,627.5 753.2031,627.7813 Q753.5,628.0625 753.5,628.7188 L753.5,630.2813 Q753.5,630.9375 753.2188,631.2188 Q752.9375,631.5 752.5,631.5 Q752.1094,631.5 751.8594,631.3281 Q751.6094,631.1563 751.5,630.7031 Q751.4531,630.3906 751.2813,630.2188 Q750.9688,629.8906 750.4063,629.7031 Q749.8438,629.5 749.2813,629.5 Q748.5781,629.5 747.9844,629.7813 Q747.4063,630.0625 746.9531,630.6875 Q746.5,631.3125 746.5,632.1719 L746.5,633.0938 Q746.5,634.125 747.3438,634.8125 Q748.1875,635.5 749.6875,635.5 Q750.5781,635.5 751.2031,635.2969 Q751.5625,635.1875 751.9688,634.8281 Q752.2344,634.625 752.375,634.5625 Q752.5156,634.5 752.6875,634.5 Q753.0156,634.5 753.25,634.7656 Q753.5,635.0156 753.5,635.375 Q753.5,635.7188 753.1563,636.125 Q752.6563,636.7188 751.8594,637.0469 Q750.8125,637.5 749.5313,637.5 Q748.0313,637.5 746.8281,636.9063 Q745.8594,636.4375 745.1719,635.4219 Q744.5,634.4063 744.5,633.2031 L744.5,632.1094 Q744.5,630.8594 745.0938,629.7656 Q745.7031,628.6719 746.75,628.0938 Q747.8125,627.5 749,627.5 Q749.7188,627.5 750.3438,627.75 Q750.9688,628 751.5,628.5 Z "/><text fill="#000000" font-family="sans-serif" font-size="12" lengthAdjust="spacingAndGlyphs" textLength="57" x="763.5" y="636.9102">VehicleDB</text><line style="stroke: #A80036; stroke-width: 1.5;" x1="735.5" x2="822.5" y1="648" y2="648"/><line style="stroke: #A80036; stroke-width: 1.5;" x1="735.5" x2="822.5" y1="656" y2="656"/><text fill="#000000" font-family="sans-serif" font-size="11" lengthAdjust="spacingAndGlyphs" textLength="64" x="740.5" y="671.4189">+VehicleDB()</text><!--MD5=[f40d64c3825bdc96a4efd5b7e3ff1420]
reverse link DataHandler to PharmacyDB--><path d="M952.216,549.743 C951.253,559.627 949.626,569.701 947,579 C944.129,589.166 939.537,599.521 934.58,608.955 " fill="none" id="DataHandler&lt;-PharmacyDB" style="stroke: #A80036; stroke-width: 1.0;"/><polygon fill="none" points="945.248,548.983,953.381,529.416,959.225,549.784,945.248,548.983" style="stroke: #A80036; stroke-width: 1.0;"/><!--MD5=[a2c65173c20bdf66914a8ed43c34e217]
reverse link DataHandler to ScooterDB--><path d="M990.341,545.677 C1005.225,566.515 1021.91,589.869 1035.43,608.798 " fill="none" id="DataHandler&lt;-ScooterDB" style="stroke: #A80036; stroke-width: 1.0;"/><polygon fill="none" points="984.557,549.622,978.628,529.279,995.949,541.485,984.557,549.622" style="stroke: #A80036; stroke-width: 1.0;"/><!--MD5=[a5b9aad460591e28976d2736bb1bbcd4]
reverse link DataHandler to VehicleDB--><path d="M948.755,549.691 C946.978,562.642 944.234,574.028 940,579 C910.468,613.68 883.702,590.674 842,609 C835.962,611.654 829.777,614.756 823.754,618.015 " fill="none" id="DataHandler&lt;-VehicleDB" style="stroke: #A80036; stroke-width: 1.0;"/><polygon fill="none" points="941.823,548.666,950.778,529.462,955.753,550.059,941.823,548.666" style="stroke: #A80036; stroke-width: 1.0;"/><!--MD5=[954f86ea882ac5dcad44771d5b1b4c17]
link RegisterScooterUI to RegisterScooterController--><path d="M305,108.26 C305,128.61 305,159.24 305,187.46 " fill="none" id="RegisterScooterUI-&gt;RegisterScooterController" style="stroke: #A80036; stroke-width: 1.0; stroke-dasharray: 7.0,7.0;"/><polygon fill="#A80036" points="305,192.7,309,183.7,305,187.7,301,183.7,305,192.7" style="stroke: #A80036; stroke-width: 1.0;"/><!--MD5=[3483b254801180bcfb852ef80db9ffdb]
link RegisterScooterController to PharmacyService--><path d="M355.888,324.22 C366.046,337.57 376.505,351.63 386,365 C405.386,392.29 426.052,423.81 441.787,448.369 " fill="none" id="RegisterScooterController-&gt;PharmacyService" style="stroke: #A80036; stroke-width: 1.0; stroke-dasharray: 7.0,7.0;"/><polygon fill="#A80036" points="444.666,452.871,443.1868,443.1339,441.9721,448.6588,436.4472,447.4441,444.666,452.871" style="stroke: #A80036; stroke-width: 1.0;"/><!--MD5=[fbd790f96af27a62db13e48d70800838]
link RegisterScooterController to ScooterService--><path d="M305,324.01 C305,363.46 305,412.81 305,447.404 " fill="none" id="RegisterScooterController-&gt;ScooterService" style="stroke: #A80036; stroke-width: 1.0; stroke-dasharray: 7.0,7.0;"/><polygon fill="#A80036" points="305,452.826,309,443.826,305,447.826,301,443.826,305,452.826" style="stroke: #A80036; stroke-width: 1.0;"/><!--MD5=[3bf2ff07311e526774b1a4ba322a6b71]
link RegisterScooterController to VehicleService--><path d="M252.663,324.06 C242.497,337.37 232.162,351.45 223,365 C204.776,391.95 186.318,423.6 172.521,448.314 " fill="none" id="RegisterScooterController-&gt;VehicleService" style="stroke: #A80036; stroke-width: 1.0; stroke-dasharray: 7.0,7.0;"/><polygon fill="#A80036" points="170,452.845,177.8697,446.9232,172.4299,448.4752,170.878,443.0354,170,452.845" style="stroke: #A80036; stroke-width: 1.0;"/><!--MD5=[04ba2cb7f5803b19c0d0e740f2a895e0]
link Database to PharmacyDB--><path d="M676.795,514.537 C687.096,527.619 701.638,543.366 718,553 C730.633,560.438 736.307,555.765 750,561 C760.678,565.082 830.891,603.662 841,609 C845.285,611.262 849.717,613.603 854.174,615.958 " fill="none" id="Database-&gt;PharmacyDB" style="stroke: #A80036; stroke-width: 1.0;"/><polygon fill="#A80036" points="858.636,618.315,852.5466,610.5743,854.215,615.9795,848.8098,617.6479,858.636,618.315" style="stroke: #A80036; stroke-width: 1.0;"/><text fill="#000000" font-family="sans-serif" font-size="13" lengthAdjust="spacingAndGlyphs" textLength="53" x="785" y="575.4951">manages</text><text fill="#000000" font-family="sans-serif" font-size="13" lengthAdjust="spacingAndGlyphs" textLength="7" x="681.257" y="535.4109">1</text><text fill="#000000" font-family="sans-serif" font-size="13" lengthAdjust="spacingAndGlyphs" textLength="7" x="844.1293" y="610.9262">1</text><!--MD5=[70f68ce34a156c56edce71dba5c758e9]
link Database to ScooterDB--><path d="M675.531,514.707 C685.643,528.384 700.437,544.708 718,553 C743.571,565.073 817.292,555.351 845,561 C907.807,573.804 921.567,584.993 981,609 C984.915,610.581 988.917,612.247 992.942,613.96 " fill="none" id="Database-&gt;ScooterDB" style="stroke: #A80036; stroke-width: 1.0;"/><polygon fill="#A80036" points="997.675,615.99,990.9808,608.7659,993.0799,614.0189,987.827,616.118,997.675,615.99" style="stroke: #A80036; stroke-width: 1.0;"/><text fill="#000000" font-family="sans-serif" font-size="13" lengthAdjust="spacingAndGlyphs" textLength="53" x="908" y="575.4951">manages</text><text fill="#000000" font-family="sans-serif" font-size="13" lengthAdjust="spacingAndGlyphs" textLength="7" x="671.0819" y="535.6202">1</text><text fill="#000000" font-family="sans-serif" font-size="13" lengthAdjust="spacingAndGlyphs" textLength="7" x="982.8327" y="609.0139">1</text><!--MD5=[ee7ed70a83e67b7f86b44988d609d45d]
link ScooterService to PharmacyDB--><path d="M345.164,529.252 C357.678,538.722 372.122,547.708 387,553 C425.142,566.568 529.659,551.449 569,561 C587.552,565.504 589.654,573.72 608,579 C708.338,607.877 741.476,577.433 841,609 C845.33,610.373 849.709,612.009 854.051,613.816 " fill="none" id="ScooterService-&gt;PharmacyDB" style="stroke: #A80036; stroke-width: 1.0;"/><polygon fill="#A80036" points="858.745,615.839,852.0627,608.6038,854.1532,613.8603,848.8968,615.9507,858.745,615.839" style="stroke: #A80036; stroke-width: 1.0;"/><text fill="#000000" font-family="sans-serif" font-size="13" lengthAdjust="spacingAndGlyphs" textLength="28" x="609" y="575.4951">uses</text><text fill="#000000" font-family="sans-serif" font-size="13" lengthAdjust="spacingAndGlyphs" textLength="7" x="344.0073" y="550.1727">1</text><text fill="#000000" font-family="sans-serif" font-size="13" lengthAdjust="spacingAndGlyphs" textLength="5" x="846.1332" y="625.5544">*</text><!--MD5=[799b1f05f2692ceb79e345e4105e6b42]
link PharmacyService to ScooterDB--><path d="M531.655,524.558 C553.792,534.852 579.075,545.49 603,553 C621.547,558.822 627.051,556.661 646,561 C675.638,567.786 682.135,573.298 712,579 C830.162,601.561 865.054,576.939 981,609 C984.877,610.072 988.802,611.308 992.726,612.664 " fill="none" id="PharmacyService-&gt;ScooterDB" style="stroke: #A80036; stroke-width: 1.0;"/><polygon fill="#A80036" points="997.691,614.442,990.5665,607.6418,992.9837,612.7562,987.8693,615.1734,997.691,614.442" style="stroke: #A80036; stroke-width: 1.0;"/><text fill="#000000" font-family="sans-serif" font-size="13" lengthAdjust="spacingAndGlyphs" textLength="28" x="713" y="575.4951">uses</text><text fill="#000000" font-family="sans-serif" font-size="13" lengthAdjust="spacingAndGlyphs" textLength="7" x="539.4198" y="525.0476">1</text><text fill="#000000" font-family="sans-serif" font-size="13" lengthAdjust="spacingAndGlyphs" textLength="5" x="985.1315" y="624.6828">*</text><!--MD5=[8ef6fec0705bb095102136c9939e064e]
link VehicleService to VehicleDB--><path d="M184.745,529.033 C195.953,538.624 209.102,547.729 223,553 C251.685,563.88 469.438,552.797 499,561 C514.724,565.363 515.896,572.824 531,579 C597.452,606.17 678.39,625.662 729.322,636.389 " fill="none" id="VehicleService-&gt;VehicleDB" style="stroke: #A80036; stroke-width: 1.0;"/><polygon fill="#A80036" points="734.462,637.463,726.4706,631.7065,729.5677,636.4401,724.8341,639.5373,734.462,637.463" style="stroke: #A80036; stroke-width: 1.0;"/><text fill="#000000" font-family="sans-serif" font-size="13" lengthAdjust="spacingAndGlyphs" textLength="28" x="532" y="575.4951">uses</text><text fill="#000000" font-family="sans-serif" font-size="13" lengthAdjust="spacingAndGlyphs" textLength="7" x="182.92" y="550.2086">1</text><text fill="#000000" font-family="sans-serif" font-size="13" lengthAdjust="spacingAndGlyphs" textLength="5" x="721.3773" y="631.9883">*</text><!--MD5=[ed3f5943e31dc8cca91748edfaeba988]
link VehicleService to Vehicle--><path d="M130.957,529.35 C109.379,577.544 82.7006,660.894 128,709 C138.149,719.778 246.759,712.954 261,717 C295.982,726.939 331.92,745.492 360.665,762.735 " fill="none" id="VehicleService-&gt;Vehicle" style="stroke: #A80036; stroke-width: 1.0;"/><polygon fill="#A80036" points="365.215,765.49,359.5864,757.408,360.9374,762.9012,355.4442,764.2522,365.215,765.49" style="stroke: #A80036; stroke-width: 1.0;"/><text fill="#000000" font-family="sans-serif" font-size="13" lengthAdjust="spacingAndGlyphs" textLength="111" x="129" y="652.4951">manage services of</text><text fill="#000000" font-family="sans-serif" font-size="13" lengthAdjust="spacingAndGlyphs" textLength="7" x="120.3642" y="550.2863">1</text><text fill="#000000" font-family="sans-serif" font-size="13" lengthAdjust="spacingAndGlyphs" textLength="5" x="352.6517" y="756.9154">*</text><!--MD5=[2ed2b43e7f6d114538396b0b10b28567]
link PharmacyService to Pharmacy--><path d="M422.643,529.131 C411.098,537.616 398.429,546.144 386,553 C325.509,586.367 286.495,557.012 241,609 C210.9,643.396 230.716,665.4 217,709 C192.511,786.842 156.452,874.413 133.605,927.504 " fill="none" id="PharmacyService-&gt;Pharmacy" style="stroke: #A80036; stroke-width: 1.0;"/><polygon fill="#A80036" points="131.573,932.216,138.8099,925.5356,133.5529,927.6247,131.4639,922.3677,131.573,932.216" style="stroke: #A80036; stroke-width: 1.0;"/><text fill="#000000" font-family="sans-serif" font-size="13" lengthAdjust="spacingAndGlyphs" textLength="111" x="216" y="731.4951">manage services of</text><text fill="#000000" font-family="sans-serif" font-size="13" lengthAdjust="spacingAndGlyphs" textLength="7" x="407.8564" y="550.0324">1</text><text fill="#000000" font-family="sans-serif" font-size="13" lengthAdjust="spacingAndGlyphs" textLength="5" x="129.1873" y="921.6166">*</text><!--MD5=[a4fc43f4c54bc2b04150642bdfef7d93]
link ScooterService to Scooter--><path d="M256.719,529.275 C242.64,544.676 233.723,562.706 245,579 C252.299,589.547 261.481,598.435 271.807,605.926 " fill="none" id="ScooterService-&gt;Scooter" style="stroke: #A80036; stroke-width: 1.0;"/><polygon fill="#A80036" points="275.978,608.836,270.8849,600.4062,271.8771,605.9754,266.308,606.9676,275.978,608.836" style="stroke: #A80036; stroke-width: 1.0;"/><text fill="#000000" font-family="sans-serif" font-size="13" lengthAdjust="spacingAndGlyphs" textLength="111" x="246" y="575.4951">manage services of</text><text fill="#000000" font-family="sans-serif" font-size="13" lengthAdjust="spacingAndGlyphs" textLength="7" x="241.4664" y="550.1994">1</text><text fill="#000000" font-family="sans-serif" font-size="13" lengthAdjust="spacingAndGlyphs" textLength="5" x="245.2789" y="598.4551">*</text><!--MD5=[51d7b9a785c9fb041ca400474ed1d998]
link Database to Pharmacy--><path d="M658.353,514.638 C648.552,586.556 607.073,809.735 463,889 C349.471,951.46 290.809,865.045 173,919 C165.59,922.394 158.503,927.054 151.952,932.265 " fill="none" id="Database-Pharmacy" style="stroke: #A80036; stroke-width: 1.0;"/><polygon fill="#000000" points="611,724.6758,605,727.6758,611,730.6758,611,724.6758" style="stroke: #000000; stroke-width: 1.0;"/><text fill="#000000" font-family="sans-serif" font-size="13" lengthAdjust="spacingAndGlyphs" textLength="82" x="617" y="731.4951">has registered</text><text fill="#000000" font-family="sans-serif" font-size="13" lengthAdjust="spacingAndGlyphs" textLength="7" x="649.9315" y="535.5352">1</text><text fill="#000000" font-family="sans-serif" font-size="13" lengthAdjust="spacingAndGlyphs" textLength="5" x="152.6868" y="921.6731">*</text><!--MD5=[f4a94ba2ad2673d4959409a96e63c979]
link Database to Scooter--><path d="M628.548,514.54 C606.813,528.334 576.973,544.852 548,553 C531.933,557.518 409.483,548.888 398,561 C385.829,573.837 389.638,592.294 397.526,608.73 " fill="none" id="Database-Scooter" style="stroke: #A80036; stroke-width: 1.0;"/><polygon fill="#000000" points="406,568.6758,400,571.6758,406,574.6758,406,568.6758" style="stroke: #000000; stroke-width: 1.0;"/><text fill="#000000" font-family="sans-serif" font-size="13" lengthAdjust="spacingAndGlyphs" textLength="82" x="412" y="575.4951">has registered</text><text fill="#000000" font-family="sans-serif" font-size="13" lengthAdjust="spacingAndGlyphs" textLength="7" x="613.2341" y="535.4146">1</text><text fill="#000000" font-family="sans-serif" font-size="13" lengthAdjust="spacingAndGlyphs" textLength="5" x="387.5431" y="598.0438">*</text><!--MD5=[074a56c4439d52c76e1cc7a8f9d070a4]
link Vehicle to Battery--><path d="M447.755,841.035 C463.038,862.617 480.739,891.025 491,919 C517.368,990.884 524.726,1080.039 526.61,1134.834 " fill="none" id="Vehicle-Battery" style="stroke: #A80036; stroke-width: 1.0;"/><text fill="#000000" font-family="sans-serif" font-size="13" lengthAdjust="spacingAndGlyphs" textLength="21" x="520" y="982.9951">has</text><polygon fill="#000000" points="526,991.8516,529,997.8516,532,991.8516,526,991.8516" style="stroke: #000000; stroke-width: 1.0;"/><text fill="#000000" font-family="sans-serif" font-size="13" lengthAdjust="spacingAndGlyphs" textLength="7" x="444.9379" y="862.211">1</text><text fill="#000000" font-family="sans-serif" font-size="13" lengthAdjust="spacingAndGlyphs" textLength="7" x="519.0873" y="1124.312">1</text><!--MD5=[9793812679a856b96e8ba34e2675abcc]
link Vehicle to Pharmacy--><path d="M365.05,823.446 C313.384,843.369 234.426,877.283 173,919 C167.101,923.006 161.225,927.586 155.58,932.372 " fill="none" id="Vehicle-Pharmacy" style="stroke: #A80036; stroke-width: 1.0;"/><polygon fill="#000000" points="259,878.6758,253,881.6758,259,884.6758,259,878.6758" style="stroke: #000000; stroke-width: 1.0;"/><text fill="#000000" font-family="sans-serif" font-size="13" lengthAdjust="spacingAndGlyphs" textLength="71" x="265" y="885.4951">belongs to a</text><text fill="#000000" font-family="sans-serif" font-size="13" lengthAdjust="spacingAndGlyphs" textLength="5" x="352.4645" y="822.6592">*</text><text fill="#000000" font-family="sans-serif" font-size="13" lengthAdjust="spacingAndGlyphs" textLength="7" x="162.7891" y="921.7965">1</text><!--MD5=[52f80c2c106e4280525a8160ec8cd0fa]
link Scooter to Vehicle--><path d="M422.032,685.279 C421.405,709.403 420.592,740.689 419.966,764.798 " fill="none" id="Scooter-Vehicle" style="stroke: #A80036; stroke-width: 1.0;"/><text fill="#000000" font-family="sans-serif" font-size="13" lengthAdjust="spacingAndGlyphs" textLength="64" x="423" y="731.4951">is a type of</text><polygon fill="#000000" points="450.5,740.3516,453.5,746.3516,456.5,740.3516,450.5,740.3516" style="stroke: #000000; stroke-width: 1.0;"/><text fill="#000000" font-family="sans-serif" font-size="13" lengthAdjust="spacingAndGlyphs" textLength="5" x="416.4793" y="706.204">*</text><text fill="#000000" font-family="sans-serif" font-size="13" lengthAdjust="spacingAndGlyphs" textLength="7" x="412.5146" y="754.1239">1</text><!--MD5=[7ee5f2eef2f8ef54a9b73b97abb49ae4]
link Vehicle to VehicleModel--><path d="M419,841.006 C419,863.676 419,893.172 419,918.853 " fill="none" id="Vehicle-VehicleModel" style="stroke: #A80036; stroke-width: 1.0;"/><text fill="#000000" font-family="sans-serif" font-size="13" lengthAdjust="spacingAndGlyphs" textLength="21" x="420" y="885.4951">has</text><polygon fill="#000000" points="426,894.3516,429,900.3516,432,894.3516,426,894.3516" style="stroke: #000000; stroke-width: 1.0;"/><text fill="#000000" font-family="sans-serif" font-size="13" lengthAdjust="spacingAndGlyphs" textLength="5" x="413.5859" y="862.1771">*</text><text fill="#000000" font-family="sans-serif" font-size="13" lengthAdjust="spacingAndGlyphs" textLength="7" x="411.5734" y="908.236">1</text><!--MD5=[89baec1bfb4a213750f7c61516e0a0f1]
link Pharmacy to Address--><path d="M111.573,1022.653 C111.318,1049.131 110.986,1083.437 110.693,1113.728 " fill="none" id="Pharmacy-Address" style="stroke: #A80036; stroke-width: 1.0;"/><text fill="#000000" font-family="sans-serif" font-size="13" lengthAdjust="spacingAndGlyphs" textLength="21" x="113" y="1080.4951">has</text><polygon fill="#000000" points="119,1089.3516,122,1095.3516,125,1089.3516,119,1089.3516" style="stroke: #000000; stroke-width: 1.0;"/><text fill="#000000" font-family="sans-serif" font-size="13" lengthAdjust="spacingAndGlyphs" textLength="7" x="104.0458" y="1043.3472">1</text><text fill="#000000" font-family="sans-serif" font-size="13" lengthAdjust="spacingAndGlyphs" textLength="7" x="103.404" y="1102.9193">1</text><!--MD5=[5790d77feb6b26de2794f2f777278d81]
link Park to VehicleType--><path d="M281.454,1015.507 C304.577,1055.395 340.946,1118.131 362.436,1155.201 " fill="none" id="Park-VehicleType" style="stroke: #A80036; stroke-width: 1.0;"/><text fill="#000000" font-family="sans-serif" font-size="13" lengthAdjust="spacingAndGlyphs" textLength="21" x="321" y="1080.4951">has</text><polygon fill="#000000" points="327,1089.3516,330,1095.3516,333,1089.3516,327,1089.3516" style="stroke: #000000; stroke-width: 1.0;"/><text fill="#000000" font-family="sans-serif" font-size="13" lengthAdjust="spacingAndGlyphs" textLength="5" x="279.5933" y="1036.6783">*</text><text fill="#000000" font-family="sans-serif" font-size="13" lengthAdjust="spacingAndGlyphs" textLength="7" x="351.0916" y="1144.6439">1</text><!--MD5=[d231af42e5f994c6ef3dd0db49c43284]
link Park to ParkingSlot--><path d="M255.056,1015.908 C253.184,1031.385 251.215,1049.532 250,1066 C247.771,1096.225 246.783,1130.843 246.346,1155.012 " fill="none" id="Park-ParkingSlot" style="stroke: #A80036; stroke-width: 1.0;"/><text fill="#000000" font-family="sans-serif" font-size="13" lengthAdjust="spacingAndGlyphs" textLength="21" x="251" y="1080.4951">has</text><polygon fill="#000000" points="257,1089.3516,260,1095.3516,263,1089.3516,257,1089.3516" style="stroke: #000000; stroke-width: 1.0;"/><text fill="#000000" font-family="sans-serif" font-size="13" lengthAdjust="spacingAndGlyphs" textLength="7" x="246.763" y="1036.5614">1</text><text fill="#000000" font-family="sans-serif" font-size="13" lengthAdjust="spacingAndGlyphs" textLength="5" x="240.9017" y="1144.4159">*</text><!--MD5=[a4c65a09dd0e5e45daf0263f06c7f061]
link ParkingSlot to ChargingSlot--><path d="M236.962,1217.544 C226.994,1250.679 211.048,1303.684 201.068,1336.8577 " fill="none" id="ParkingSlot-ChargingSlot" style="stroke: #A80036; stroke-width: 1.0;"/><text fill="#000000" font-family="sans-serif" font-size="13" lengthAdjust="spacingAndGlyphs" textLength="10" x="216.5" y="1303.4951">is</text><polygon fill="#000000" points="217,1312.3516,220,1318.3516,223,1312.3516,217,1312.3516" style="stroke: #000000; stroke-width: 1.0;"/><text fill="#000000" font-family="sans-serif" font-size="13" lengthAdjust="spacingAndGlyphs" textLength="7" x="227.4936" y="1238.7767">1</text><text fill="#000000" font-family="sans-serif" font-size="13" lengthAdjust="spacingAndGlyphs" textLength="7" x="195.2164" y="1326.3333">1</text><!--MD5=[142124bf764eff3cd61a820bcd607a89]
link ParkingSlot to NonChargingSlot--><path d="M262.236,1217.544 C280.141,1250.679 308.785,1303.684 326.711,1336.8577 " fill="none" id="ParkingSlot-NonChargingSlot" style="stroke: #A80036; stroke-width: 1.0;"/><text fill="#000000" font-family="sans-serif" font-size="13" lengthAdjust="spacingAndGlyphs" textLength="10" x="310.5" y="1303.4951">is</text><polygon fill="#000000" points="311,1312.3516,314,1318.3516,317,1312.3516,311,1312.3516" style="stroke: #000000; stroke-width: 1.0;"/><text fill="#000000" font-family="sans-serif" font-size="13" lengthAdjust="spacingAndGlyphs" textLength="7" x="257.7434" y="1238.7767">1</text><text fill="#000000" font-family="sans-serif" font-size="13" lengthAdjust="spacingAndGlyphs" textLength="7" x="315.6295" y="1326.3333">1</text><!--MD5=[3fa83f42c878ddc47b59211fc64ec532]
link VehicleModel to Battery--><path d="M449.084,1036.161 C465.249,1067.145 484.998,1104.997 500.568,1134.839 " fill="none" id="VehicleModel-Battery" style="stroke: #A80036; stroke-width: 1.0;"/><text fill="#000000" font-family="sans-serif" font-size="13" lengthAdjust="spacingAndGlyphs" textLength="21" x="474" y="1080.4951">has</text><polygon fill="#000000" points="480,1089.3516,483,1095.3516,486,1089.3516,480,1089.3516" style="stroke: #000000; stroke-width: 1.0;"/><text fill="#000000" font-family="sans-serif" font-size="13" lengthAdjust="spacingAndGlyphs" textLength="7" x="445.3239" y="1057.7909">1</text><text fill="#000000" font-family="sans-serif" font-size="13" lengthAdjust="spacingAndGlyphs" textLength="7" x="489.5459" y="1124.3177">1</text><!--MD5=[eb172a83c7b24bcb2b2c23cfcc7dc290]
link VehicleModel to VehicleType--><path d="M408.136,1036.161 C400.856,1074.801 391.564,1124.123 385.695,1155.271 " fill="none" id="VehicleModel-VehicleType" style="stroke: #A80036; stroke-width: 1.0;"/><text fill="#000000" font-family="sans-serif" font-size="13" lengthAdjust="spacingAndGlyphs" textLength="21" x="403" y="1080.4951">has</text><polygon fill="#000000" points="409,1089.3516,412,1095.3516,415,1089.3516,409,1089.3516" style="stroke: #000000; stroke-width: 1.0;"/><text fill="#000000" font-family="sans-serif" font-size="13" lengthAdjust="spacingAndGlyphs" textLength="5" x="401.5073" y="1057.7909">*</text><text fill="#000000" font-family="sans-serif" font-size="13" lengthAdjust="spacingAndGlyphs" textLength="7" x="379.1477" y="1144.7283">1</text><!--MD5=[1e3b947932af4bd33a0d9b31d957435c]
@startuml
skinparam classAttributeIconSize 0

database Database {
}

package "UI" #DDDDDD {
class RegisterScooterUI{
}
}

package "Controller" #DDDDDD {
class RegisterScooterController{
+getPharmacies()
+chooseVehicleModer(model)
+newVehicleModel(designation, potency, weight, maxPayload,\nbatteryCapacity, batteryVoltage, efficiency)
+newScooter(batteryPerc, potency, weight, batteryCapacity, maxPayload, pharmacy)
+registerScooter(scoot)
}
}


package "Model" #DDDDDD {
 package "Service" #DDDDDD {
  class PharmacyService{
      +PharmacyService()
      +getPharmacies()
  }

  class ScooterService{
      +ScooterService()
      +registerScooter(scoot)
   }

  class VehicleService{
      +VehicleService()
      +generateQRCode()
   }
}

package "Model" #DDDDDD {
class Park{
-   int maxSlotsNumber
-   double totalOutputCorrent
}

class ChargingSlot{
-   int id
}

class NonChargingSlot{
-   int id
}

class ParkingSlot{
-   int id
}

class Scooter{
+Scooter(batteryPerc, charginStatus, potency,\n weight, batteryCapacity, maxPayload, batteryVoltage, pharmacy)

}

class VehicleModel{
  -int id
  -String desigantion
  -double potency
  -double weight
  -double maxPayload
}

class VehicleType{
  -String desigantion
}

class Vehicle{
  -int id
  -double batteryPerc
}

class Battery{
  -int id
  -int batteryCapacity
  -double batteryVoltage
  -double efficiency
}

class Address{
  -double longitude
  -double latitude
  -String doorNumber
  -String streetName
  -String postalCode
  -String locality
  -String country
}

class Pharmacy {
  -int id
  -String name
  -String email
}
}


package "Data" #DDDDDD {
class DataHandler{
    +openConnection()
    +closeAll()
}
class PharmacyDB{
     +PharmacyDB()
     +getPharmacies()
 }

 class ScooterDB{
     +ScooterDB()
     +registerScooter(scoot)
  }

 class VehicleDB{
     +VehicleDB()
  }
}

class PharmacyDB extends DataHandler
class ScooterDB extends DataHandler
class VehicleDB extends DataHandler

RegisterScooterUI ..> RegisterScooterController
RegisterScooterController ..> PharmacyService
RegisterScooterController ..> ScooterService
RegisterScooterController ..> VehicleService

Database "1" - -> "1" PharmacyDB : manages
Database "1" - -> "1" ScooterDB : manages
ScooterService "1" - -> "*" PharmacyDB : uses
PharmacyService "1" - -> "*" ScooterDB : uses
VehicleService "1" - -> "*" VehicleDB : uses
VehicleService "1" - -> "*" Vehicle : manage services of
PharmacyService "1" - -> "*" Pharmacy : manage services of
ScooterService "1" - -> "*" Scooter : manage services of

Database "1" - - "*" Pharmacy : has registered >
Database "1" - - "*" Scooter : has registered >

Vehicle "1" - - "1" Battery : has >
Vehicle "*" - - "1" Pharmacy : belongs to a >
Scooter "*" - - "1" Vehicle : is a type of >
Vehicle "*" - - "1" VehicleModel : has >
Pharmacy "1" - - "1" Address : has >
Park "*" - - "1" VehicleType : has >
Park "1" - - "*" ParkingSlot : has >
ParkingSlot "1" - - "1" ChargingSlot : is >
ParkingSlot "1" - - "1" NonChargingSlot : is >
VehicleModel "1" - - "1" Battery : has >
VehicleModel "*" - - "1" VehicleType : has >

@enduml

PlantUML version 1.2020.09(Sun May 10 11:51:06 BST 2020)
(GPL source distribution)
Java Runtime: OpenJDK Runtime Environment
JVM: OpenJDK 64-Bit Server VM
Java Version: 11.0.6+8-b765.40
Operating System: Windows 10
Default Encoding: Cp1252
Language: pt
Country: PT
--></g></svg>