<?xml version="1.0" encoding="UTF-8" standalone="no"?><svg xmlns="http://www.w3.org/2000/svg" xmlns:xlink="http://www.w3.org/1999/xlink" contentScriptType="application/ecmascript" contentStyleType="text/css" height="1442px" preserveAspectRatio="none" style="width:1378px;height:1442px;" version="1.1" viewBox="0 0 1378 1442" width="1378px" zoomAndPan="magnify"><defs><filter height="300%" id="fcy4i7prrr5wa" width="300%" x="-1" y="-1"><feGaussianBlur result="blurOut" stdDeviation="2.0"/><feColorMatrix in="blurOut" result="blurOut2" type="matrix" values="0 0 0 0 0 0 0 0 0 0 0 0 0 0 0 0 0 0 .4 0"/><feOffset dx="4.0" dy="4.0" in="blurOut2" result="blurOut3"/><feBlend in="SourceGraphic" in2="blurOut3" mode="normal"/></filter></defs><g><!--MD5=[9681dc6e01e10c6b4fe06895ae94f592]
cluster UI--><polygon fill="#DDDDDD" filter="url(#fcy4i7prrr5wa)" points="404,24,424,24,431,47.6094,570,47.6094,570,124,404,124,404,24" style="stroke: #000000; stroke-width: 1.5;"/><line style="stroke: #000000; stroke-width: 1.5;" x1="404" x2="431" y1="47.6094" y2="47.6094"/><text fill="#000000" font-family="sans-serif" font-size="14" font-weight="bold" lengthAdjust="spacingAndGlyphs" textLength="14" x="408" y="40.5332">UI</text><!--MD5=[1f2cfc53d9d308f53762fd0fcbaa4873]
cluster Controller--><polygon fill="#DDDDDD" filter="url(#fcy4i7prrr5wa)" points="258,157,335,157,342,180.6094,716,180.6094,716,340,258,340,258,157" style="stroke: #000000; stroke-width: 1.5;"/><line style="stroke: #000000; stroke-width: 1.5;" x1="258" x2="342" y1="180.6094" y2="180.6094"/><text fill="#000000" font-family="sans-serif" font-size="14" font-weight="bold" lengthAdjust="spacingAndGlyphs" textLength="71" x="262" y="173.5332">Controller</text><!--MD5=[7e40339c58605559321960399585b560]
cluster Utils--><polygon fill="#DDDDDD" filter="url(#fcy4i7prrr5wa)" points="22,595,59,595,66,618.6094,212,618.6094,212,709,22,709,22,595" style="stroke: #000000; stroke-width: 1.5;"/><line style="stroke: #000000; stroke-width: 1.5;" x1="22" x2="66" y1="618.6094" y2="618.6094"/><text fill="#000000" font-family="sans-serif" font-size="14" font-weight="bold" lengthAdjust="spacingAndGlyphs" textLength="31" x="26" y="611.5332">Utils</text><!--MD5=[15636c1ca4a123c16a2a1a8e90aca7a9]
cluster Model--><polygon fill="#DDDDDD" filter="url(#fcy4i7prrr5wa)" points="236,373,286,373,293,396.6094,818,396.6094,818,1430,236,1430,236,373" style="stroke: #000000; stroke-width: 1.5;"/><line style="stroke: #000000; stroke-width: 1.5;" x1="236" x2="293" y1="396.6094" y2="396.6094"/><text fill="#000000" font-family="sans-serif" font-size="14" font-weight="bold" lengthAdjust="spacingAndGlyphs" textLength="44" x="240" y="389.5332">Model</text><!--MD5=[9dd75fd92da113d30380b27734fd2f01]
cluster Service--><polygon fill="#DDDDDD" filter="url(#fcy4i7prrr5wa)" points="260,417,320,417,327,440.6094,730,440.6094,730,545,260,545,260,417" style="stroke: #000000; stroke-width: 1.5;"/><line style="stroke: #000000; stroke-width: 1.5;" x1="260" x2="327" y1="440.6094" y2="440.6094"/><text fill="#000000" font-family="sans-serif" font-size="14" font-weight="bold" lengthAdjust="spacingAndGlyphs" textLength="54" x="264" y="433.5332">Service</text><!--MD5=[f21b1f164e99c6b37934f23ad048ad54]
cluster Data--><polygon fill="#DDDDDD" filter="url(#fcy4i7prrr5wa)" points="932,417,969,417,976,440.6094,1356,440.6094,1356,716,932,716,932,417" style="stroke: #000000; stroke-width: 1.5;"/><line style="stroke: #000000; stroke-width: 1.5;" x1="932" x2="976" y1="440.6094" y2="440.6094"/><text fill="#000000" font-family="sans-serif" font-size="14" font-weight="bold" lengthAdjust="spacingAndGlyphs" textLength="31" x="936" y="433.5332">Data</text><!--MD5=[fa1e3283224feb76407c84b7e90ed808]
entity Database--><path d="M834.5,477.5 C834.5,467.5 875,467.5 875,467.5 C875,467.5 915.5,467.5 915.5,477.5 L915.5,504.1094 C915.5,514.1094 875,514.1094 875,514.1094 C875,514.1094 834.5,514.1094 834.5,504.1094 L834.5,477.5 " fill="#FFFFFF" filter="url(#fcy4i7prrr5wa)" style="stroke: #000000; stroke-width: 1.5;"/><path d="M834.5,477.5 C834.5,487.5 875,487.5 875,487.5 C875,487.5 915.5,487.5 915.5,477.5 " fill="none" style="stroke: #000000; stroke-width: 1.5;"/><text fill="#000000" font-family="sans-serif" font-size="14" lengthAdjust="spacingAndGlyphs" textLength="61" x="844.5" y="506.0332">Database</text><!--MD5=[2e02dc687a7adedd6993cedb12e41a52]
class RegisterScooterUI--><rect fill="#FEFECE" filter="url(#fcy4i7prrr5wa)" height="48" id="RegisterScooterUI" style="stroke: #A80036; stroke-width: 1.5;" width="133" x="420.5" y="60"/><ellipse cx="435.5" cy="76" fill="#ADD1B2" rx="11" ry="11" style="stroke: #A80036; stroke-width: 1.0;"/><path d="M437.5,72.5 Q437.7031,72 437.9375,71.75 Q438.1719,71.5 438.4375,71.5 Q438.9063,71.5 439.2031,71.7813 Q439.5,72.0625 439.5,72.7188 L439.5,74.2813 Q439.5,74.9375 439.2188,75.2188 Q438.9375,75.5 438.5,75.5 Q438.1094,75.5 437.8594,75.3281 Q437.6094,75.1563 437.5,74.7031 Q437.4531,74.3906 437.2813,74.2188 Q436.9688,73.8906 436.4063,73.7031 Q435.8438,73.5 435.2813,73.5 Q434.5781,73.5 433.9844,73.7813 Q433.4063,74.0625 432.9531,74.6875 Q432.5,75.3125 432.5,76.1719 L432.5,77.0938 Q432.5,78.125 433.3438,78.8125 Q434.1875,79.5 435.6875,79.5 Q436.5781,79.5 437.2031,79.2969 Q437.5625,79.1875 437.9688,78.8281 Q438.2344,78.625 438.375,78.5625 Q438.5156,78.5 438.6875,78.5 Q439.0156,78.5 439.25,78.7656 Q439.5,79.0156 439.5,79.375 Q439.5,79.7188 439.1563,80.125 Q438.6563,80.7188 437.8594,81.0469 Q436.8125,81.5 435.5313,81.5 Q434.0313,81.5 432.8281,80.9063 Q431.8594,80.4375 431.1719,79.4219 Q430.5,78.4063 430.5,77.2031 L430.5,76.1094 Q430.5,74.8594 431.0938,73.7656 Q431.7031,72.6719 432.75,72.0938 Q433.8125,71.5 435,71.5 Q435.7188,71.5 436.3438,71.75 Q436.9688,72 437.5,72.5 Z "/><text fill="#000000" font-family="sans-serif" font-size="12" lengthAdjust="spacingAndGlyphs" textLength="101" x="449.5" y="80.9102">RegisterScooterUI</text><line style="stroke: #A80036; stroke-width: 1.5;" x1="421.5" x2="552.5" y1="92" y2="92"/><line style="stroke: #A80036; stroke-width: 1.5;" x1="421.5" x2="552.5" y1="100" y2="100"/><!--MD5=[b762eabfe222fdd6cf4857c585db3ba3]
class RegisterScooterController--><rect fill="#FEFECE" filter="url(#fcy4i7prrr5wa)" height="131.0156" id="RegisterScooterController" style="stroke: #A80036; stroke-width: 1.5;" width="426" x="274" y="193"/><ellipse cx="411.25" cy="209" fill="#ADD1B2" rx="11" ry="11" style="stroke: #A80036; stroke-width: 1.0;"/><path d="M413.25,205.5 Q413.4531,205 413.6875,204.75 Q413.9219,204.5 414.1875,204.5 Q414.6563,204.5 414.9531,204.7813 Q415.25,205.0625 415.25,205.7188 L415.25,207.2813 Q415.25,207.9375 414.9688,208.2188 Q414.6875,208.5 414.25,208.5 Q413.8594,208.5 413.6094,208.3281 Q413.3594,208.1563 413.25,207.7031 Q413.2031,207.3906 413.0313,207.2188 Q412.7188,206.8906 412.1563,206.7031 Q411.5938,206.5 411.0313,206.5 Q410.3281,206.5 409.7344,206.7813 Q409.1563,207.0625 408.7031,207.6875 Q408.25,208.3125 408.25,209.1719 L408.25,210.0938 Q408.25,211.125 409.0938,211.8125 Q409.9375,212.5 411.4375,212.5 Q412.3281,212.5 412.9531,212.2969 Q413.3125,212.1875 413.7188,211.8281 Q413.9844,211.625 414.125,211.5625 Q414.2656,211.5 414.4375,211.5 Q414.7656,211.5 415,211.7656 Q415.25,212.0156 415.25,212.375 Q415.25,212.7188 414.9063,213.125 Q414.4063,213.7188 413.6094,214.0469 Q412.5625,214.5 411.2813,214.5 Q409.7813,214.5 408.5781,213.9063 Q407.6094,213.4375 406.9219,212.4219 Q406.25,211.4063 406.25,210.2031 L406.25,209.1094 Q406.25,207.8594 406.8438,206.7656 Q407.4531,205.6719 408.5,205.0938 Q409.5625,204.5 410.75,204.5 Q411.4688,204.5 412.0938,204.75 Q412.7188,205 413.25,205.5 Z "/><text fill="#000000" font-family="sans-serif" font-size="12" lengthAdjust="spacingAndGlyphs" textLength="143" x="431.75" y="213.9102">RegisterScooterController</text><line style="stroke: #A80036; stroke-width: 1.5;" x1="275" x2="699" y1="225" y2="225"/><line style="stroke: #A80036; stroke-width: 1.5;" x1="275" x2="699" y1="233" y2="233"/><text fill="#000000" font-family="sans-serif" font-size="11" lengthAdjust="spacingAndGlyphs" textLength="85" x="280" y="248.4189">+getPharmacies()</text><text fill="#000000" font-family="sans-serif" font-size="11" lengthAdjust="spacingAndGlyphs" textLength="123" x="280" y="262.2549">+setVehicleModer(model)</text><text fill="#000000" font-family="sans-serif" font-size="11" lengthAdjust="spacingAndGlyphs" textLength="302" x="280" y="276.0908">+newVehicleModel(designation, potency, weight, maxPayload,</text><text fill="#000000" font-family="sans-serif" font-size="11" lengthAdjust="spacingAndGlyphs" textLength="211" x="280" y="289.9268">batteryCapacity, batteryVoltage, efficiency)</text><text fill="#000000" font-family="sans-serif" font-size="11" lengthAdjust="spacingAndGlyphs" textLength="414" x="280" y="303.7627">+newScooter(batteryPerc, potency, weight, batteryCapacity, maxPayload, pharmacy)</text><text fill="#000000" font-family="sans-serif" font-size="11" lengthAdjust="spacingAndGlyphs" textLength="116" x="280" y="317.5986">+registerScooter(scoot)</text><!--MD5=[506621ed787cd332d48b035cccfe5c39]
class QRCode--><rect fill="#FEFECE" filter="url(#fcy4i7prrr5wa)" height="61.8359" id="QRCode" style="stroke: #A80036; stroke-width: 1.5;" width="157" x="38.5" y="631"/><ellipse cx="88.75" cy="647" fill="#ADD1B2" rx="11" ry="11" style="stroke: #A80036; stroke-width: 1.0;"/><path d="M90.75,643.5 Q90.9531,643 91.1875,642.75 Q91.4219,642.5 91.6875,642.5 Q92.1563,642.5 92.4531,642.7813 Q92.75,643.0625 92.75,643.7188 L92.75,645.2813 Q92.75,645.9375 92.4688,646.2188 Q92.1875,646.5 91.75,646.5 Q91.3594,646.5 91.1094,646.3281 Q90.8594,646.1563 90.75,645.7031 Q90.7031,645.3906 90.5313,645.2188 Q90.2188,644.8906 89.6563,644.7031 Q89.0938,644.5 88.5313,644.5 Q87.8281,644.5 87.2344,644.7813 Q86.6563,645.0625 86.2031,645.6875 Q85.75,646.3125 85.75,647.1719 L85.75,648.0938 Q85.75,649.125 86.5938,649.8125 Q87.4375,650.5 88.9375,650.5 Q89.8281,650.5 90.4531,650.2969 Q90.8125,650.1875 91.2188,649.8281 Q91.4844,649.625 91.625,649.5625 Q91.7656,649.5 91.9375,649.5 Q92.2656,649.5 92.5,649.7656 Q92.75,650.0156 92.75,650.375 Q92.75,650.7188 92.4063,651.125 Q91.9063,651.7188 91.1094,652.0469 Q90.0625,652.5 88.7813,652.5 Q87.2813,652.5 86.0781,651.9063 Q85.1094,651.4375 84.4219,650.4219 Q83.75,649.4063 83.75,648.2031 L83.75,647.1094 Q83.75,645.8594 84.3438,644.7656 Q84.9531,643.6719 86,643.0938 Q87.0625,642.5 88.25,642.5 Q88.9688,642.5 89.5938,642.75 Q90.2188,643 90.75,643.5 Z "/><text fill="#000000" font-family="sans-serif" font-size="12" lengthAdjust="spacingAndGlyphs" textLength="48" x="109.25" y="651.9102">QRCode</text><line style="stroke: #A80036; stroke-width: 1.5;" x1="39.5" x2="194.5" y1="663" y2="663"/><line style="stroke: #A80036; stroke-width: 1.5;" x1="39.5" x2="194.5" y1="671" y2="671"/><text fill="#000000" font-family="sans-serif" font-size="11" lengthAdjust="spacingAndGlyphs" textLength="145" x="44.5" y="686.4189">+generateQRCode(data, path)</text><!--MD5=[d1eeb527b96f439f56c6bd12ac0dd707]
class Park--><rect fill="#FEFECE" filter="url(#fcy4i7prrr5wa)" height="75.6719" id="Park" style="stroke: #A80036; stroke-width: 1.5;" width="139" x="384.5" y="954.5"/><ellipse cx="437.25" cy="970.5" fill="#ADD1B2" rx="11" ry="11" style="stroke: #A80036; stroke-width: 1.0;"/><path d="M439.25,967 Q439.4531,966.5 439.6875,966.25 Q439.9219,966 440.1875,966 Q440.6563,966 440.9531,966.2813 Q441.25,966.5625 441.25,967.2188 L441.25,968.7813 Q441.25,969.4375 440.9688,969.7188 Q440.6875,970 440.25,970 Q439.8594,970 439.6094,969.8281 Q439.3594,969.6563 439.25,969.2031 Q439.2031,968.8906 439.0313,968.7188 Q438.7188,968.3906 438.1563,968.2031 Q437.5938,968 437.0313,968 Q436.3281,968 435.7344,968.2813 Q435.1563,968.5625 434.7031,969.1875 Q434.25,969.8125 434.25,970.6719 L434.25,971.5938 Q434.25,972.625 435.0938,973.3125 Q435.9375,974 437.4375,974 Q438.3281,974 438.9531,973.7969 Q439.3125,973.6875 439.7188,973.3281 Q439.9844,973.125 440.125,973.0625 Q440.2656,973 440.4375,973 Q440.7656,973 441,973.2656 Q441.25,973.5156 441.25,973.875 Q441.25,974.2188 440.9063,974.625 Q440.4063,975.2188 439.6094,975.5469 Q438.5625,976 437.2813,976 Q435.7813,976 434.5781,975.4063 Q433.6094,974.9375 432.9219,973.9219 Q432.25,972.9063 432.25,971.7031 L432.25,970.6094 Q432.25,969.3594 432.8438,968.2656 Q433.4531,967.1719 434.5,966.5938 Q435.5625,966 436.75,966 Q437.4688,966 438.0938,966.25 Q438.7188,966.5 439.25,967 Z "/><text fill="#000000" font-family="sans-serif" font-size="12" lengthAdjust="spacingAndGlyphs" textLength="25" x="457.75" y="975.4102">Park</text><line style="stroke: #A80036; stroke-width: 1.5;" x1="385.5" x2="522.5" y1="986.5" y2="986.5"/><text fill="#000000" font-family="sans-serif" font-size="11" lengthAdjust="spacingAndGlyphs" textLength="99" x="390.5" y="1001.9189">-int maxSlotsNumber</text><text fill="#000000" font-family="sans-serif" font-size="11" lengthAdjust="spacingAndGlyphs" textLength="127" x="390.5" y="1015.7549">-double totalOutputCorrent</text><line style="stroke: #A80036; stroke-width: 1.5;" x1="385.5" x2="522.5" y1="1022.1719" y2="1022.1719"/><!--MD5=[59d2374cee64c81d4b5b0eac02df9f3a]
class ChargingSlot--><rect fill="#FEFECE" filter="url(#fcy4i7prrr5wa)" height="61.8359" id="ChargingSlot" style="stroke: #A80036; stroke-width: 1.5;" width="104" x="273" y="1352"/><ellipse cx="288" cy="1368" fill="#ADD1B2" rx="11" ry="11" style="stroke: #A80036; stroke-width: 1.0;"/><path d="M290,1364.5 Q290.2031,1364 290.4375,1363.75 Q290.6719,1363.5 290.9375,1363.5 Q291.4063,1363.5 291.7031,1363.7813 Q292,1364.0625 292,1364.7188 L292,1366.2813 Q292,1366.9375 291.7188,1367.2188 Q291.4375,1367.5 291,1367.5 Q290.6094,1367.5 290.3594,1367.3281 Q290.1094,1367.1563 290,1366.7031 Q289.9531,1366.3906 289.7813,1366.2188 Q289.4688,1365.8906 288.9063,1365.7031 Q288.3438,1365.5 287.7813,1365.5 Q287.0781,1365.5 286.4844,1365.7813 Q285.9063,1366.0625 285.4531,1366.6875 Q285,1367.3125 285,1368.1719 L285,1369.0938 Q285,1370.125 285.8438,1370.8125 Q286.6875,1371.5 288.1875,1371.5 Q289.0781,1371.5 289.7031,1371.2969 Q290.0625,1371.1875 290.4688,1370.8281 Q290.7344,1370.625 290.875,1370.5625 Q291.0156,1370.5 291.1875,1370.5 Q291.5156,1370.5 291.75,1370.7656 Q292,1371.0156 292,1371.375 Q292,1371.7188 291.6563,1372.125 Q291.1563,1372.7188 290.3594,1373.0469 Q289.3125,1373.5 288.0313,1373.5 Q286.5313,1373.5 285.3281,1372.9063 Q284.3594,1372.4375 283.6719,1371.4219 Q283,1370.4063 283,1369.2031 L283,1368.1094 Q283,1366.8594 283.5938,1365.7656 Q284.2031,1364.6719 285.25,1364.0938 Q286.3125,1363.5 287.5,1363.5 Q288.2188,1363.5 288.8438,1363.75 Q289.4688,1364 290,1364.5 Z "/><text fill="#000000" font-family="sans-serif" font-size="12" lengthAdjust="spacingAndGlyphs" textLength="72" x="302" y="1372.9102">ChargingSlot</text><line style="stroke: #A80036; stroke-width: 1.5;" x1="274" x2="376" y1="1384" y2="1384"/><text fill="#000000" font-family="sans-serif" font-size="11" lengthAdjust="spacingAndGlyphs" textLength="26" x="279" y="1399.4189">-int id</text><line style="stroke: #A80036; stroke-width: 1.5;" x1="274" x2="376" y1="1405.8359" y2="1405.8359"/><!--MD5=[941956f4bed192556f7b65756093b59d]
class NonChargingSlot--><rect fill="#FEFECE" filter="url(#fcy4i7prrr5wa)" height="61.8359" id="NonChargingSlot" style="stroke: #A80036; stroke-width: 1.5;" width="127" x="412.5" y="1352"/><ellipse cx="427.5" cy="1368" fill="#ADD1B2" rx="11" ry="11" style="stroke: #A80036; stroke-width: 1.0;"/><path d="M429.5,1364.5 Q429.7031,1364 429.9375,1363.75 Q430.1719,1363.5 430.4375,1363.5 Q430.9063,1363.5 431.2031,1363.7813 Q431.5,1364.0625 431.5,1364.7188 L431.5,1366.2813 Q431.5,1366.9375 431.2188,1367.2188 Q430.9375,1367.5 430.5,1367.5 Q430.1094,1367.5 429.8594,1367.3281 Q429.6094,1367.1563 429.5,1366.7031 Q429.4531,1366.3906 429.2813,1366.2188 Q428.9688,1365.8906 428.4063,1365.7031 Q427.8438,1365.5 427.2813,1365.5 Q426.5781,1365.5 425.9844,1365.7813 Q425.4063,1366.0625 424.9531,1366.6875 Q424.5,1367.3125 424.5,1368.1719 L424.5,1369.0938 Q424.5,1370.125 425.3438,1370.8125 Q426.1875,1371.5 427.6875,1371.5 Q428.5781,1371.5 429.2031,1371.2969 Q429.5625,1371.1875 429.9688,1370.8281 Q430.2344,1370.625 430.375,1370.5625 Q430.5156,1370.5 430.6875,1370.5 Q431.0156,1370.5 431.25,1370.7656 Q431.5,1371.0156 431.5,1371.375 Q431.5,1371.7188 431.1563,1372.125 Q430.6563,1372.7188 429.8594,1373.0469 Q428.8125,1373.5 427.5313,1373.5 Q426.0313,1373.5 424.8281,1372.9063 Q423.8594,1372.4375 423.1719,1371.4219 Q422.5,1370.4063 422.5,1369.2031 L422.5,1368.1094 Q422.5,1366.8594 423.0938,1365.7656 Q423.7031,1364.6719 424.75,1364.0938 Q425.8125,1363.5 427,1363.5 Q427.7188,1363.5 428.3438,1363.75 Q428.9688,1364 429.5,1364.5 Z "/><text fill="#000000" font-family="sans-serif" font-size="12" lengthAdjust="spacingAndGlyphs" textLength="95" x="441.5" y="1372.9102">NonChargingSlot</text><line style="stroke: #A80036; stroke-width: 1.5;" x1="413.5" x2="538.5" y1="1384" y2="1384"/><text fill="#000000" font-family="sans-serif" font-size="11" lengthAdjust="spacingAndGlyphs" textLength="26" x="418.5" y="1399.4189">-int id</text><line style="stroke: #A80036; stroke-width: 1.5;" x1="413.5" x2="538.5" y1="1405.8359" y2="1405.8359"/><!--MD5=[6171c3a2f2c752b4019101857dc83635]
class ParkingSlot--><rect fill="#FEFECE" filter="url(#fcy4i7prrr5wa)" height="61.8359" id="ParkingSlot" style="stroke: #A80036; stroke-width: 1.5;" width="95" x="406.5" y="1170.5"/><ellipse cx="421.5" cy="1186.5" fill="#ADD1B2" rx="11" ry="11" style="stroke: #A80036; stroke-width: 1.0;"/><path d="M423.5,1183 Q423.7031,1182.5 423.9375,1182.25 Q424.1719,1182 424.4375,1182 Q424.9063,1182 425.2031,1182.2813 Q425.5,1182.5625 425.5,1183.2188 L425.5,1184.7813 Q425.5,1185.4375 425.2188,1185.7188 Q424.9375,1186 424.5,1186 Q424.1094,1186 423.8594,1185.8281 Q423.6094,1185.6563 423.5,1185.2031 Q423.4531,1184.8906 423.2813,1184.7188 Q422.9688,1184.3906 422.4063,1184.2031 Q421.8438,1184 421.2813,1184 Q420.5781,1184 419.9844,1184.2813 Q419.4063,1184.5625 418.9531,1185.1875 Q418.5,1185.8125 418.5,1186.6719 L418.5,1187.5938 Q418.5,1188.625 419.3438,1189.3125 Q420.1875,1190 421.6875,1190 Q422.5781,1190 423.2031,1189.7969 Q423.5625,1189.6875 423.9688,1189.3281 Q424.2344,1189.125 424.375,1189.0625 Q424.5156,1189 424.6875,1189 Q425.0156,1189 425.25,1189.2656 Q425.5,1189.5156 425.5,1189.875 Q425.5,1190.2188 425.1563,1190.625 Q424.6563,1191.2188 423.8594,1191.5469 Q422.8125,1192 421.5313,1192 Q420.0313,1192 418.8281,1191.4063 Q417.8594,1190.9375 417.1719,1189.9219 Q416.5,1188.9063 416.5,1187.7031 L416.5,1186.6094 Q416.5,1185.3594 417.0938,1184.2656 Q417.7031,1183.1719 418.75,1182.5938 Q419.8125,1182 421,1182 Q421.7188,1182 422.3438,1182.25 Q422.9688,1182.5 423.5,1183 Z "/><text fill="#000000" font-family="sans-serif" font-size="12" lengthAdjust="spacingAndGlyphs" textLength="63" x="435.5" y="1191.4102">ParkingSlot</text><line style="stroke: #A80036; stroke-width: 1.5;" x1="407.5" x2="500.5" y1="1202.5" y2="1202.5"/><text fill="#000000" font-family="sans-serif" font-size="11" lengthAdjust="spacingAndGlyphs" textLength="26" x="412.5" y="1217.9189">-int id</text><line style="stroke: #A80036; stroke-width: 1.5;" x1="407.5" x2="500.5" y1="1224.3359" y2="1224.3359"/><!--MD5=[f4402668d5d5bb8485350c0fdb60ac8e]
class Scooter--><rect fill="#FEFECE" filter="url(#fcy4i7prrr5wa)" height="75.6719" id="Scooter" style="stroke: #A80036; stroke-width: 1.5;" width="329" x="472.5" y="624"/><ellipse cx="611.75" cy="640" fill="#ADD1B2" rx="11" ry="11" style="stroke: #A80036; stroke-width: 1.0;"/><path d="M613.75,636.5 Q613.9531,636 614.1875,635.75 Q614.4219,635.5 614.6875,635.5 Q615.1563,635.5 615.4531,635.7813 Q615.75,636.0625 615.75,636.7188 L615.75,638.2813 Q615.75,638.9375 615.4688,639.2188 Q615.1875,639.5 614.75,639.5 Q614.3594,639.5 614.1094,639.3281 Q613.8594,639.1563 613.75,638.7031 Q613.7031,638.3906 613.5313,638.2188 Q613.2188,637.8906 612.6563,637.7031 Q612.0938,637.5 611.5313,637.5 Q610.8281,637.5 610.2344,637.7813 Q609.6563,638.0625 609.2031,638.6875 Q608.75,639.3125 608.75,640.1719 L608.75,641.0938 Q608.75,642.125 609.5938,642.8125 Q610.4375,643.5 611.9375,643.5 Q612.8281,643.5 613.4531,643.2969 Q613.8125,643.1875 614.2188,642.8281 Q614.4844,642.625 614.625,642.5625 Q614.7656,642.5 614.9375,642.5 Q615.2656,642.5 615.5,642.7656 Q615.75,643.0156 615.75,643.375 Q615.75,643.7188 615.4063,644.125 Q614.9063,644.7188 614.1094,645.0469 Q613.0625,645.5 611.7813,645.5 Q610.2813,645.5 609.0781,644.9063 Q608.1094,644.4375 607.4219,643.4219 Q606.75,642.4063 606.75,641.2031 L606.75,640.1094 Q606.75,638.8594 607.3438,637.7656 Q607.9531,636.6719 609,636.0938 Q610.0625,635.5 611.25,635.5 Q611.9688,635.5 612.5938,635.75 Q613.2188,636 613.75,636.5 Z "/><text fill="#000000" font-family="sans-serif" font-size="12" lengthAdjust="spacingAndGlyphs" textLength="42" x="632.25" y="644.9102">Scooter</text><line style="stroke: #A80036; stroke-width: 1.5;" x1="473.5" x2="800.5" y1="656" y2="656"/><line style="stroke: #A80036; stroke-width: 1.5;" x1="473.5" x2="800.5" y1="664" y2="664"/><text fill="#000000" font-family="sans-serif" font-size="11" lengthAdjust="spacingAndGlyphs" textLength="225" x="478.5" y="679.4189">+Scooter(batteryPerc, charginStatus, potency,</text><text fill="#000000" font-family="sans-serif" font-size="11" lengthAdjust="spacingAndGlyphs" textLength="314" x="481.5" y="693.2549">weight, batteryCapacity, maxPayload, batteryVoltage, pharmacy)</text><!--MD5=[5e13c92683bb853a25438ed3edf51dc3]
class VehicleModel--><rect fill="#FEFECE" filter="url(#fcy4i7prrr5wa)" height="117.1797" id="VehicleModel" style="stroke: #A80036; stroke-width: 1.5;" width="109" x="558.5" y="934"/><ellipse cx="575.3" cy="950" fill="#ADD1B2" rx="11" ry="11" style="stroke: #A80036; stroke-width: 1.0;"/><path d="M577.3,946.5 Q577.5031,946 577.7375,945.75 Q577.9719,945.5 578.2375,945.5 Q578.7063,945.5 579.0031,945.7813 Q579.3,946.0625 579.3,946.7188 L579.3,948.2813 Q579.3,948.9375 579.0188,949.2188 Q578.7375,949.5 578.3,949.5 Q577.9094,949.5 577.6594,949.3281 Q577.4094,949.1563 577.3,948.7031 Q577.2531,948.3906 577.0813,948.2188 Q576.7688,947.8906 576.2063,947.7031 Q575.6438,947.5 575.0813,947.5 Q574.3781,947.5 573.7844,947.7813 Q573.2063,948.0625 572.7531,948.6875 Q572.3,949.3125 572.3,950.1719 L572.3,951.0938 Q572.3,952.125 573.1438,952.8125 Q573.9875,953.5 575.4875,953.5 Q576.3781,953.5 577.0031,953.2969 Q577.3625,953.1875 577.7688,952.8281 Q578.0344,952.625 578.175,952.5625 Q578.3156,952.5 578.4875,952.5 Q578.8156,952.5 579.05,952.7656 Q579.3,953.0156 579.3,953.375 Q579.3,953.7188 578.9563,954.125 Q578.4563,954.7188 577.6594,955.0469 Q576.6125,955.5 575.3313,955.5 Q573.8313,955.5 572.6281,954.9063 Q571.6594,954.4375 570.9719,953.4219 Q570.3,952.4063 570.3,951.2031 L570.3,950.1094 Q570.3,948.8594 570.8938,947.7656 Q571.5031,946.6719 572.55,946.0938 Q573.6125,945.5 574.8,945.5 Q575.5188,945.5 576.1438,945.75 Q576.7688,946 577.3,946.5 Z "/><text fill="#000000" font-family="sans-serif" font-size="12" lengthAdjust="spacingAndGlyphs" textLength="73" x="589.7" y="954.9102">VehicleModel</text><line style="stroke: #A80036; stroke-width: 1.5;" x1="559.5" x2="666.5" y1="966" y2="966"/><text fill="#000000" font-family="sans-serif" font-size="11" lengthAdjust="spacingAndGlyphs" textLength="26" x="564.5" y="981.4189">-int id</text><text fill="#000000" font-family="sans-serif" font-size="11" lengthAdjust="spacingAndGlyphs" textLength="90" x="564.5" y="995.2549">-String desigantion</text><text fill="#000000" font-family="sans-serif" font-size="11" lengthAdjust="spacingAndGlyphs" textLength="78" x="564.5" y="1009.0908">-double potency</text><text fill="#000000" font-family="sans-serif" font-size="11" lengthAdjust="spacingAndGlyphs" textLength="72" x="564.5" y="1022.9268">-double weight</text><text fill="#000000" font-family="sans-serif" font-size="11" lengthAdjust="spacingAndGlyphs" textLength="97" x="564.5" y="1036.7627">-double maxPayload</text><line style="stroke: #A80036; stroke-width: 1.5;" x1="559.5" x2="666.5" y1="1043.1797" y2="1043.1797"/><!--MD5=[9e8cdc57c56bad5cdfc47653c9df3022]
class VehicleType--><rect fill="#FEFECE" filter="url(#fcy4i7prrr5wa)" height="61.8359" id="VehicleType" style="stroke: #A80036; stroke-width: 1.5;" width="102" x="538" y="1170.5"/><ellipse cx="554.8" cy="1186.5" fill="#ADD1B2" rx="11" ry="11" style="stroke: #A80036; stroke-width: 1.0;"/><path d="M556.8,1183 Q557.0031,1182.5 557.2375,1182.25 Q557.4719,1182 557.7375,1182 Q558.2063,1182 558.5031,1182.2813 Q558.8,1182.5625 558.8,1183.2188 L558.8,1184.7813 Q558.8,1185.4375 558.5188,1185.7188 Q558.2375,1186 557.8,1186 Q557.4094,1186 557.1594,1185.8281 Q556.9094,1185.6563 556.8,1185.2031 Q556.7531,1184.8906 556.5813,1184.7188 Q556.2688,1184.3906 555.7063,1184.2031 Q555.1438,1184 554.5813,1184 Q553.8781,1184 553.2844,1184.2813 Q552.7063,1184.5625 552.2531,1185.1875 Q551.8,1185.8125 551.8,1186.6719 L551.8,1187.5938 Q551.8,1188.625 552.6438,1189.3125 Q553.4875,1190 554.9875,1190 Q555.8781,1190 556.5031,1189.7969 Q556.8625,1189.6875 557.2688,1189.3281 Q557.5344,1189.125 557.675,1189.0625 Q557.8156,1189 557.9875,1189 Q558.3156,1189 558.55,1189.2656 Q558.8,1189.5156 558.8,1189.875 Q558.8,1190.2188 558.4563,1190.625 Q557.9563,1191.2188 557.1594,1191.5469 Q556.1125,1192 554.8313,1192 Q553.3313,1192 552.1281,1191.4063 Q551.1594,1190.9375 550.4719,1189.9219 Q549.8,1188.9063 549.8,1187.7031 L549.8,1186.6094 Q549.8,1185.3594 550.3938,1184.2656 Q551.0031,1183.1719 552.05,1182.5938 Q553.1125,1182 554.3,1182 Q555.0188,1182 555.6438,1182.25 Q556.2688,1182.5 556.8,1183 Z "/><text fill="#000000" font-family="sans-serif" font-size="12" lengthAdjust="spacingAndGlyphs" textLength="66" x="569.2" y="1191.4102">VehicleType</text><line style="stroke: #A80036; stroke-width: 1.5;" x1="539" x2="639" y1="1202.5" y2="1202.5"/><text fill="#000000" font-family="sans-serif" font-size="11" lengthAdjust="spacingAndGlyphs" textLength="90" x="544" y="1217.9189">-String desigantion</text><line style="stroke: #A80036; stroke-width: 1.5;" x1="539" x2="639" y1="1224.3359" y2="1224.3359"/><!--MD5=[3aa0d89c6bfdcbf7f32042cedac57549]
class Vehicle--><rect fill="#FEFECE" filter="url(#fcy4i7prrr5wa)" height="75.6719" id="Vehicle" style="stroke: #A80036; stroke-width: 1.5;" width="107" x="559.5" y="780"/><ellipse cx="590.25" cy="796" fill="#ADD1B2" rx="11" ry="11" style="stroke: #A80036; stroke-width: 1.0;"/><path d="M592.25,792.5 Q592.4531,792 592.6875,791.75 Q592.9219,791.5 593.1875,791.5 Q593.6563,791.5 593.9531,791.7813 Q594.25,792.0625 594.25,792.7188 L594.25,794.2813 Q594.25,794.9375 593.9688,795.2188 Q593.6875,795.5 593.25,795.5 Q592.8594,795.5 592.6094,795.3281 Q592.3594,795.1563 592.25,794.7031 Q592.2031,794.3906 592.0313,794.2188 Q591.7188,793.8906 591.1563,793.7031 Q590.5938,793.5 590.0313,793.5 Q589.3281,793.5 588.7344,793.7813 Q588.1563,794.0625 587.7031,794.6875 Q587.25,795.3125 587.25,796.1719 L587.25,797.0938 Q587.25,798.125 588.0938,798.8125 Q588.9375,799.5 590.4375,799.5 Q591.3281,799.5 591.9531,799.2969 Q592.3125,799.1875 592.7188,798.8281 Q592.9844,798.625 593.125,798.5625 Q593.2656,798.5 593.4375,798.5 Q593.7656,798.5 594,798.7656 Q594.25,799.0156 594.25,799.375 Q594.25,799.7188 593.9063,800.125 Q593.4063,800.7188 592.6094,801.0469 Q591.5625,801.5 590.2813,801.5 Q588.7813,801.5 587.5781,800.9063 Q586.6094,800.4375 585.9219,799.4219 Q585.25,798.4063 585.25,797.2031 L585.25,796.1094 Q585.25,794.8594 585.8438,793.7656 Q586.4531,792.6719 587.5,792.0938 Q588.5625,791.5 589.75,791.5 Q590.4688,791.5 591.0938,791.75 Q591.7188,792 592.25,792.5 Z "/><text fill="#000000" font-family="sans-serif" font-size="12" lengthAdjust="spacingAndGlyphs" textLength="40" x="607.75" y="800.9102">Vehicle</text><line style="stroke: #A80036; stroke-width: 1.5;" x1="560.5" x2="665.5" y1="812" y2="812"/><text fill="#000000" font-family="sans-serif" font-size="11" lengthAdjust="spacingAndGlyphs" textLength="26" x="565.5" y="827.4189">-int id</text><text fill="#000000" font-family="sans-serif" font-size="11" lengthAdjust="spacingAndGlyphs" textLength="95" x="565.5" y="841.2549">-double batteryPerc</text><line style="stroke: #A80036; stroke-width: 1.5;" x1="560.5" x2="665.5" y1="847.6719" y2="847.6719"/><!--MD5=[79eb2d862cef9730b5f9dcab29e35f17]
class Battery--><rect fill="#FEFECE" filter="url(#fcy4i7prrr5wa)" height="103.3438" id="Battery" style="stroke: #A80036; stroke-width: 1.5;" width="122" x="676" y="1150"/><ellipse cx="714.85" cy="1166" fill="#ADD1B2" rx="11" ry="11" style="stroke: #A80036; stroke-width: 1.0;"/><path d="M716.85,1162.5 Q717.0531,1162 717.2875,1161.75 Q717.5219,1161.5 717.7875,1161.5 Q718.2563,1161.5 718.5531,1161.7813 Q718.85,1162.0625 718.85,1162.7188 L718.85,1164.2813 Q718.85,1164.9375 718.5688,1165.2188 Q718.2875,1165.5 717.85,1165.5 Q717.4594,1165.5 717.2094,1165.3281 Q716.9594,1165.1563 716.85,1164.7031 Q716.8031,1164.3906 716.6313,1164.2188 Q716.3188,1163.8906 715.7563,1163.7031 Q715.1938,1163.5 714.6313,1163.5 Q713.9281,1163.5 713.3344,1163.7813 Q712.7563,1164.0625 712.3031,1164.6875 Q711.85,1165.3125 711.85,1166.1719 L711.85,1167.0938 Q711.85,1168.125 712.6938,1168.8125 Q713.5375,1169.5 715.0375,1169.5 Q715.9281,1169.5 716.5531,1169.2969 Q716.9125,1169.1875 717.3188,1168.8281 Q717.5844,1168.625 717.725,1168.5625 Q717.8656,1168.5 718.0375,1168.5 Q718.3656,1168.5 718.6,1168.7656 Q718.85,1169.0156 718.85,1169.375 Q718.85,1169.7188 718.5063,1170.125 Q718.0063,1170.7188 717.2094,1171.0469 Q716.1625,1171.5 714.8813,1171.5 Q713.3813,1171.5 712.1781,1170.9063 Q711.2094,1170.4375 710.5219,1169.4219 Q709.85,1168.4063 709.85,1167.2031 L709.85,1166.1094 Q709.85,1164.8594 710.4438,1163.7656 Q711.0531,1162.6719 712.1,1162.0938 Q713.1625,1161.5 714.35,1161.5 Q715.0688,1161.5 715.6938,1161.75 Q716.3188,1162 716.85,1162.5 Z "/><text fill="#000000" font-family="sans-serif" font-size="12" lengthAdjust="spacingAndGlyphs" textLength="37" x="734.15" y="1170.9102">Battery</text><line style="stroke: #A80036; stroke-width: 1.5;" x1="677" x2="797" y1="1182" y2="1182"/><text fill="#000000" font-family="sans-serif" font-size="11" lengthAdjust="spacingAndGlyphs" textLength="26" x="682" y="1197.4189">-int id</text><text fill="#000000" font-family="sans-serif" font-size="11" lengthAdjust="spacingAndGlyphs" textLength="94" x="682" y="1211.2549">-int batteryCapacity</text><text fill="#000000" font-family="sans-serif" font-size="11" lengthAdjust="spacingAndGlyphs" textLength="110" x="682" y="1225.0908">-double batteryVoltage</text><text fill="#000000" font-family="sans-serif" font-size="11" lengthAdjust="spacingAndGlyphs" textLength="87" x="682" y="1238.9268">-double efficiency</text><line style="stroke: #A80036; stroke-width: 1.5;" x1="677" x2="797" y1="1245.3438" y2="1245.3438"/><!--MD5=[0f39e4cb6f03951afbf6d14bd2505654]
class Address--><rect fill="#FEFECE" filter="url(#fcy4i7prrr5wa)" height="144.8516" id="Address" style="stroke: #A80036; stroke-width: 1.5;" width="106" x="253" y="1129"/><ellipse cx="280.6" cy="1145" fill="#ADD1B2" rx="11" ry="11" style="stroke: #A80036; stroke-width: 1.0;"/><path d="M282.6,1141.5 Q282.8031,1141 283.0375,1140.75 Q283.2719,1140.5 283.5375,1140.5 Q284.0063,1140.5 284.3031,1140.7813 Q284.6,1141.0625 284.6,1141.7188 L284.6,1143.2813 Q284.6,1143.9375 284.3188,1144.2188 Q284.0375,1144.5 283.6,1144.5 Q283.2094,1144.5 282.9594,1144.3281 Q282.7094,1144.1563 282.6,1143.7031 Q282.5531,1143.3906 282.3813,1143.2188 Q282.0688,1142.8906 281.5063,1142.7031 Q280.9438,1142.5 280.3813,1142.5 Q279.6781,1142.5 279.0844,1142.7813 Q278.5063,1143.0625 278.0531,1143.6875 Q277.6,1144.3125 277.6,1145.1719 L277.6,1146.0938 Q277.6,1147.125 278.4438,1147.8125 Q279.2875,1148.5 280.7875,1148.5 Q281.6781,1148.5 282.3031,1148.2969 Q282.6625,1148.1875 283.0688,1147.8281 Q283.3344,1147.625 283.475,1147.5625 Q283.6156,1147.5 283.7875,1147.5 Q284.1156,1147.5 284.35,1147.7656 Q284.6,1148.0156 284.6,1148.375 Q284.6,1148.7188 284.2563,1149.125 Q283.7563,1149.7188 282.9594,1150.0469 Q281.9125,1150.5 280.6313,1150.5 Q279.1313,1150.5 277.9281,1149.9063 Q276.9594,1149.4375 276.2719,1148.4219 Q275.6,1147.4063 275.6,1146.2031 L275.6,1145.1094 Q275.6,1143.8594 276.1938,1142.7656 Q276.8031,1141.6719 277.85,1141.0938 Q278.9125,1140.5 280.1,1140.5 Q280.8188,1140.5 281.4438,1140.75 Q282.0688,1141 282.6,1141.5 Z "/><text fill="#000000" font-family="sans-serif" font-size="12" lengthAdjust="spacingAndGlyphs" textLength="46" x="297.4" y="1149.9102">Address</text><line style="stroke: #A80036; stroke-width: 1.5;" x1="254" x2="358" y1="1161" y2="1161"/><text fill="#000000" font-family="sans-serif" font-size="11" lengthAdjust="spacingAndGlyphs" textLength="82" x="259" y="1176.4189">-double longitude</text><text fill="#000000" font-family="sans-serif" font-size="11" lengthAdjust="spacingAndGlyphs" textLength="73" x="259" y="1190.2549">-double latitude</text><text fill="#000000" font-family="sans-serif" font-size="11" lengthAdjust="spacingAndGlyphs" textLength="94" x="259" y="1204.0908">-String doorNumber</text><text fill="#000000" font-family="sans-serif" font-size="11" lengthAdjust="spacingAndGlyphs" textLength="90" x="259" y="1217.9268">-String streetName</text><text fill="#000000" font-family="sans-serif" font-size="11" lengthAdjust="spacingAndGlyphs" textLength="89" x="259" y="1231.7627">-String postalCode</text><text fill="#000000" font-family="sans-serif" font-size="11" lengthAdjust="spacingAndGlyphs" textLength="68" x="259" y="1245.5986">-String locality</text><text fill="#000000" font-family="sans-serif" font-size="11" lengthAdjust="spacingAndGlyphs" textLength="72" x="259" y="1259.4346">-String country</text><line style="stroke: #A80036; stroke-width: 1.5;" x1="254" x2="358" y1="1265.8516" y2="1265.8516"/><!--MD5=[7f2a9fafcebe4f099f71398fd3e2ed00]
class Pharmacy--><rect fill="#FEFECE" filter="url(#fcy4i7prrr5wa)" height="89.5078" id="Pharmacy" style="stroke: #A80036; stroke-width: 1.5;" width="87" x="262.5" y="947.5"/><ellipse cx="277.5" cy="963.5" fill="#ADD1B2" rx="11" ry="11" style="stroke: #A80036; stroke-width: 1.0;"/><path d="M279.5,960 Q279.7031,959.5 279.9375,959.25 Q280.1719,959 280.4375,959 Q280.9063,959 281.2031,959.2813 Q281.5,959.5625 281.5,960.2188 L281.5,961.7813 Q281.5,962.4375 281.2188,962.7188 Q280.9375,963 280.5,963 Q280.1094,963 279.8594,962.8281 Q279.6094,962.6563 279.5,962.2031 Q279.4531,961.8906 279.2813,961.7188 Q278.9688,961.3906 278.4063,961.2031 Q277.8438,961 277.2813,961 Q276.5781,961 275.9844,961.2813 Q275.4063,961.5625 274.9531,962.1875 Q274.5,962.8125 274.5,963.6719 L274.5,964.5938 Q274.5,965.625 275.3438,966.3125 Q276.1875,967 277.6875,967 Q278.5781,967 279.2031,966.7969 Q279.5625,966.6875 279.9688,966.3281 Q280.2344,966.125 280.375,966.0625 Q280.5156,966 280.6875,966 Q281.0156,966 281.25,966.2656 Q281.5,966.5156 281.5,966.875 Q281.5,967.2188 281.1563,967.625 Q280.6563,968.2188 279.8594,968.5469 Q278.8125,969 277.5313,969 Q276.0313,969 274.8281,968.4063 Q273.8594,967.9375 273.1719,966.9219 Q272.5,965.9063 272.5,964.7031 L272.5,963.6094 Q272.5,962.3594 273.0938,961.2656 Q273.7031,960.1719 274.75,959.5938 Q275.8125,959 277,959 Q277.7188,959 278.3438,959.25 Q278.9688,959.5 279.5,960 Z "/><text fill="#000000" font-family="sans-serif" font-size="12" lengthAdjust="spacingAndGlyphs" textLength="55" x="291.5" y="968.4102">Pharmacy</text><line style="stroke: #A80036; stroke-width: 1.5;" x1="263.5" x2="348.5" y1="979.5" y2="979.5"/><text fill="#000000" font-family="sans-serif" font-size="11" lengthAdjust="spacingAndGlyphs" textLength="26" x="268.5" y="994.9189">-int id</text><text fill="#000000" font-family="sans-serif" font-size="11" lengthAdjust="spacingAndGlyphs" textLength="61" x="268.5" y="1008.7549">-String name</text><text fill="#000000" font-family="sans-serif" font-size="11" lengthAdjust="spacingAndGlyphs" textLength="59" x="268.5" y="1022.5908">-String email</text><line style="stroke: #A80036; stroke-width: 1.5;" x1="263.5" x2="348.5" y1="1029.0078" y2="1029.0078"/><!--MD5=[28160fdc0be430cd6f04db15a7547552]
class PharmacyService--><rect fill="#FEFECE" filter="url(#fcy4i7prrr5wa)" height="75.6719" id="PharmacyService" style="stroke: #A80036; stroke-width: 1.5;" width="127" x="423.5" y="453"/><ellipse cx="438.5" cy="469" fill="#ADD1B2" rx="11" ry="11" style="stroke: #A80036; stroke-width: 1.0;"/><path d="M440.5,465.5 Q440.7031,465 440.9375,464.75 Q441.1719,464.5 441.4375,464.5 Q441.9063,464.5 442.2031,464.7813 Q442.5,465.0625 442.5,465.7188 L442.5,467.2813 Q442.5,467.9375 442.2188,468.2188 Q441.9375,468.5 441.5,468.5 Q441.1094,468.5 440.8594,468.3281 Q440.6094,468.1563 440.5,467.7031 Q440.4531,467.3906 440.2813,467.2188 Q439.9688,466.8906 439.4063,466.7031 Q438.8438,466.5 438.2813,466.5 Q437.5781,466.5 436.9844,466.7813 Q436.4063,467.0625 435.9531,467.6875 Q435.5,468.3125 435.5,469.1719 L435.5,470.0938 Q435.5,471.125 436.3438,471.8125 Q437.1875,472.5 438.6875,472.5 Q439.5781,472.5 440.2031,472.2969 Q440.5625,472.1875 440.9688,471.8281 Q441.2344,471.625 441.375,471.5625 Q441.5156,471.5 441.6875,471.5 Q442.0156,471.5 442.25,471.7656 Q442.5,472.0156 442.5,472.375 Q442.5,472.7188 442.1563,473.125 Q441.6563,473.7188 440.8594,474.0469 Q439.8125,474.5 438.5313,474.5 Q437.0313,474.5 435.8281,473.9063 Q434.8594,473.4375 434.1719,472.4219 Q433.5,471.4063 433.5,470.2031 L433.5,469.1094 Q433.5,467.8594 434.0938,466.7656 Q434.7031,465.6719 435.75,465.0938 Q436.8125,464.5 438,464.5 Q438.7188,464.5 439.3438,464.75 Q439.9688,465 440.5,465.5 Z "/><text fill="#000000" font-family="sans-serif" font-size="12" lengthAdjust="spacingAndGlyphs" textLength="95" x="452.5" y="473.9102">PharmacyService</text><line style="stroke: #A80036; stroke-width: 1.5;" x1="424.5" x2="549.5" y1="485" y2="485"/><line style="stroke: #A80036; stroke-width: 1.5;" x1="424.5" x2="549.5" y1="493" y2="493"/><text fill="#000000" font-family="sans-serif" font-size="11" lengthAdjust="spacingAndGlyphs" textLength="99" x="429.5" y="508.4189">+PharmacyService()</text><text fill="#000000" font-family="sans-serif" font-size="11" lengthAdjust="spacingAndGlyphs" textLength="85" x="429.5" y="522.2549">+getPharmacies()</text><!--MD5=[aa4a745fe56463fab637f55d2a7c778f]
class ScooterService--><rect fill="#FEFECE" filter="url(#fcy4i7prrr5wa)" height="75.6719" id="ScooterService" style="stroke: #A80036; stroke-width: 1.5;" width="128" x="586" y="453"/><ellipse cx="607.3" cy="469" fill="#ADD1B2" rx="11" ry="11" style="stroke: #A80036; stroke-width: 1.0;"/><path d="M609.3,465.5 Q609.5031,465 609.7375,464.75 Q609.9719,464.5 610.2375,464.5 Q610.7063,464.5 611.0031,464.7813 Q611.3,465.0625 611.3,465.7188 L611.3,467.2813 Q611.3,467.9375 611.0188,468.2188 Q610.7375,468.5 610.3,468.5 Q609.9094,468.5 609.6594,468.3281 Q609.4094,468.1563 609.3,467.7031 Q609.2531,467.3906 609.0813,467.2188 Q608.7688,466.8906 608.2063,466.7031 Q607.6438,466.5 607.0813,466.5 Q606.3781,466.5 605.7844,466.7813 Q605.2063,467.0625 604.7531,467.6875 Q604.3,468.3125 604.3,469.1719 L604.3,470.0938 Q604.3,471.125 605.1438,471.8125 Q605.9875,472.5 607.4875,472.5 Q608.3781,472.5 609.0031,472.2969 Q609.3625,472.1875 609.7688,471.8281 Q610.0344,471.625 610.175,471.5625 Q610.3156,471.5 610.4875,471.5 Q610.8156,471.5 611.05,471.7656 Q611.3,472.0156 611.3,472.375 Q611.3,472.7188 610.9563,473.125 Q610.4563,473.7188 609.6594,474.0469 Q608.6125,474.5 607.3313,474.5 Q605.8313,474.5 604.6281,473.9063 Q603.6594,473.4375 602.9719,472.4219 Q602.3,471.4063 602.3,470.2031 L602.3,469.1094 Q602.3,467.8594 602.8938,466.7656 Q603.5031,465.6719 604.55,465.0938 Q605.6125,464.5 606.8,464.5 Q607.5188,464.5 608.1438,464.75 Q608.7688,465 609.3,465.5 Z "/><text fill="#000000" font-family="sans-serif" font-size="12" lengthAdjust="spacingAndGlyphs" textLength="82" x="622.7" y="473.9102">ScooterService</text><line style="stroke: #A80036; stroke-width: 1.5;" x1="587" x2="713" y1="485" y2="485"/><line style="stroke: #A80036; stroke-width: 1.5;" x1="587" x2="713" y1="493" y2="493"/><text fill="#000000" font-family="sans-serif" font-size="11" lengthAdjust="spacingAndGlyphs" textLength="89" x="592" y="508.4189">+ScooterService()</text><text fill="#000000" font-family="sans-serif" font-size="11" lengthAdjust="spacingAndGlyphs" textLength="116" x="592" y="522.2549">+registerScooter(scoot)</text><!--MD5=[863f4043e1de722540fac69a90fd79cb]
class VehicleService--><rect fill="#FEFECE" filter="url(#fcy4i7prrr5wa)" height="75.6719" id="VehicleService" style="stroke: #A80036; stroke-width: 1.5;" width="112" x="276" y="453"/><ellipse cx="291" cy="469" fill="#ADD1B2" rx="11" ry="11" style="stroke: #A80036; stroke-width: 1.0;"/><path d="M293,465.5 Q293.2031,465 293.4375,464.75 Q293.6719,464.5 293.9375,464.5 Q294.4063,464.5 294.7031,464.7813 Q295,465.0625 295,465.7188 L295,467.2813 Q295,467.9375 294.7188,468.2188 Q294.4375,468.5 294,468.5 Q293.6094,468.5 293.3594,468.3281 Q293.1094,468.1563 293,467.7031 Q292.9531,467.3906 292.7813,467.2188 Q292.4688,466.8906 291.9063,466.7031 Q291.3438,466.5 290.7813,466.5 Q290.0781,466.5 289.4844,466.7813 Q288.9063,467.0625 288.4531,467.6875 Q288,468.3125 288,469.1719 L288,470.0938 Q288,471.125 288.8438,471.8125 Q289.6875,472.5 291.1875,472.5 Q292.0781,472.5 292.7031,472.2969 Q293.0625,472.1875 293.4688,471.8281 Q293.7344,471.625 293.875,471.5625 Q294.0156,471.5 294.1875,471.5 Q294.5156,471.5 294.75,471.7656 Q295,472.0156 295,472.375 Q295,472.7188 294.6563,473.125 Q294.1563,473.7188 293.3594,474.0469 Q292.3125,474.5 291.0313,474.5 Q289.5313,474.5 288.3281,473.9063 Q287.3594,473.4375 286.6719,472.4219 Q286,471.4063 286,470.2031 L286,469.1094 Q286,467.8594 286.5938,466.7656 Q287.2031,465.6719 288.25,465.0938 Q289.3125,464.5 290.5,464.5 Q291.2188,464.5 291.8438,464.75 Q292.4688,465 293,465.5 Z "/><text fill="#000000" font-family="sans-serif" font-size="12" lengthAdjust="spacingAndGlyphs" textLength="80" x="305" y="473.9102">VehicleService</text><line style="stroke: #A80036; stroke-width: 1.5;" x1="277" x2="387" y1="485" y2="485"/><line style="stroke: #A80036; stroke-width: 1.5;" x1="277" x2="387" y1="493" y2="493"/><text fill="#000000" font-family="sans-serif" font-size="11" lengthAdjust="spacingAndGlyphs" textLength="87" x="282" y="508.4189">+VehicleService()</text><text fill="#000000" font-family="sans-serif" font-size="11" lengthAdjust="spacingAndGlyphs" textLength="97" x="282" y="522.2549">+generateQRCode()</text><!--MD5=[4b2d61224b33971326a22fe5d809d926]
class DataHandler--><rect fill="#FEFECE" filter="url(#fcy4i7prrr5wa)" height="75.6719" id="DataHandler" style="stroke: #A80036; stroke-width: 1.5;" width="104" x="1184" y="453"/><ellipse cx="1199.9" cy="469" fill="#ADD1B2" rx="11" ry="11" style="stroke: #A80036; stroke-width: 1.0;"/><path d="M1201.9,465.5 Q1202.1031,465 1202.3375,464.75 Q1202.5719,464.5 1202.8375,464.5 Q1203.3063,464.5 1203.6031,464.7813 Q1203.9,465.0625 1203.9,465.7188 L1203.9,467.2813 Q1203.9,467.9375 1203.6188,468.2188 Q1203.3375,468.5 1202.9,468.5 Q1202.5094,468.5 1202.2594,468.3281 Q1202.0094,468.1563 1201.9,467.7031 Q1201.8531,467.3906 1201.6813,467.2188 Q1201.3688,466.8906 1200.8063,466.7031 Q1200.2438,466.5 1199.6813,466.5 Q1198.9781,466.5 1198.3844,466.7813 Q1197.8063,467.0625 1197.3531,467.6875 Q1196.9,468.3125 1196.9,469.1719 L1196.9,470.0938 Q1196.9,471.125 1197.7438,471.8125 Q1198.5875,472.5 1200.0875,472.5 Q1200.9781,472.5 1201.6031,472.2969 Q1201.9625,472.1875 1202.3688,471.8281 Q1202.6344,471.625 1202.775,471.5625 Q1202.9156,471.5 1203.0875,471.5 Q1203.4156,471.5 1203.65,471.7656 Q1203.9,472.0156 1203.9,472.375 Q1203.9,472.7188 1203.5563,473.125 Q1203.0563,473.7188 1202.2594,474.0469 Q1201.2125,474.5 1199.9313,474.5 Q1198.4313,474.5 1197.2281,473.9063 Q1196.2594,473.4375 1195.5719,472.4219 Q1194.9,471.4063 1194.9,470.2031 L1194.9,469.1094 Q1194.9,467.8594 1195.4938,466.7656 Q1196.1031,465.6719 1197.15,465.0938 Q1198.2125,464.5 1199.4,464.5 Q1200.1188,464.5 1200.7438,464.75 Q1201.3688,465 1201.9,465.5 Z "/><text fill="#000000" font-family="sans-serif" font-size="12" lengthAdjust="spacingAndGlyphs" textLength="70" x="1214.1" y="473.9102">DataHandler</text><line style="stroke: #A80036; stroke-width: 1.5;" x1="1185" x2="1287" y1="485" y2="485"/><line style="stroke: #A80036; stroke-width: 1.5;" x1="1185" x2="1287" y1="493" y2="493"/><text fill="#000000" font-family="sans-serif" font-size="11" lengthAdjust="spacingAndGlyphs" textLength="92" x="1190" y="508.4189">+openConnection()</text><text fill="#000000" font-family="sans-serif" font-size="11" lengthAdjust="spacingAndGlyphs" textLength="52" x="1190" y="522.2549">+closeAll()</text><!--MD5=[b860ecc58d0ca70e482845cb1f7b4615]
class PharmacyDB--><rect fill="#FEFECE" filter="url(#fcy4i7prrr5wa)" height="75.6719" id="PharmacyDB" style="stroke: #A80036; stroke-width: 1.5;" width="104" x="1236" y="624"/><ellipse cx="1251" cy="640" fill="#ADD1B2" rx="11" ry="11" style="stroke: #A80036; stroke-width: 1.0;"/><path d="M1253,636.5 Q1253.2031,636 1253.4375,635.75 Q1253.6719,635.5 1253.9375,635.5 Q1254.4063,635.5 1254.7031,635.7813 Q1255,636.0625 1255,636.7188 L1255,638.2813 Q1255,638.9375 1254.7188,639.2188 Q1254.4375,639.5 1254,639.5 Q1253.6094,639.5 1253.3594,639.3281 Q1253.1094,639.1563 1253,638.7031 Q1252.9531,638.3906 1252.7813,638.2188 Q1252.4688,637.8906 1251.9063,637.7031 Q1251.3438,637.5 1250.7813,637.5 Q1250.0781,637.5 1249.4844,637.7813 Q1248.9063,638.0625 1248.4531,638.6875 Q1248,639.3125 1248,640.1719 L1248,641.0938 Q1248,642.125 1248.8438,642.8125 Q1249.6875,643.5 1251.1875,643.5 Q1252.0781,643.5 1252.7031,643.2969 Q1253.0625,643.1875 1253.4688,642.8281 Q1253.7344,642.625 1253.875,642.5625 Q1254.0156,642.5 1254.1875,642.5 Q1254.5156,642.5 1254.75,642.7656 Q1255,643.0156 1255,643.375 Q1255,643.7188 1254.6563,644.125 Q1254.1563,644.7188 1253.3594,645.0469 Q1252.3125,645.5 1251.0313,645.5 Q1249.5313,645.5 1248.3281,644.9063 Q1247.3594,644.4375 1246.6719,643.4219 Q1246,642.4063 1246,641.2031 L1246,640.1094 Q1246,638.8594 1246.5938,637.7656 Q1247.2031,636.6719 1248.25,636.0938 Q1249.3125,635.5 1250.5,635.5 Q1251.2188,635.5 1251.8438,635.75 Q1252.4688,636 1253,636.5 Z "/><text fill="#000000" font-family="sans-serif" font-size="12" lengthAdjust="spacingAndGlyphs" textLength="72" x="1265" y="644.9102">PharmacyDB</text><line style="stroke: #A80036; stroke-width: 1.5;" x1="1237" x2="1339" y1="656" y2="656"/><line style="stroke: #A80036; stroke-width: 1.5;" x1="1237" x2="1339" y1="664" y2="664"/><text fill="#000000" font-family="sans-serif" font-size="11" lengthAdjust="spacingAndGlyphs" textLength="76" x="1242" y="679.4189">+PharmacyDB()</text><text fill="#000000" font-family="sans-serif" font-size="11" lengthAdjust="spacingAndGlyphs" textLength="85" x="1242" y="693.2549">+getPharmacies()</text><!--MD5=[48d7298b3bd1f8b3e8f77915e881d788]
class ScooterDB--><rect fill="#FEFECE" filter="url(#fcy4i7prrr5wa)" height="75.6719" id="ScooterDB" style="stroke: #A80036; stroke-width: 1.5;" width="128" x="948" y="624"/><ellipse cx="979.65" cy="640" fill="#ADD1B2" rx="11" ry="11" style="stroke: #A80036; stroke-width: 1.0;"/><path d="M981.65,636.5 Q981.8531,636 982.0875,635.75 Q982.3219,635.5 982.5875,635.5 Q983.0563,635.5 983.3531,635.7813 Q983.65,636.0625 983.65,636.7188 L983.65,638.2813 Q983.65,638.9375 983.3688,639.2188 Q983.0875,639.5 982.65,639.5 Q982.2594,639.5 982.0094,639.3281 Q981.7594,639.1563 981.65,638.7031 Q981.6031,638.3906 981.4313,638.2188 Q981.1188,637.8906 980.5563,637.7031 Q979.9938,637.5 979.4313,637.5 Q978.7281,637.5 978.1344,637.7813 Q977.5563,638.0625 977.1031,638.6875 Q976.65,639.3125 976.65,640.1719 L976.65,641.0938 Q976.65,642.125 977.4938,642.8125 Q978.3375,643.5 979.8375,643.5 Q980.7281,643.5 981.3531,643.2969 Q981.7125,643.1875 982.1188,642.8281 Q982.3844,642.625 982.525,642.5625 Q982.6656,642.5 982.8375,642.5 Q983.1656,642.5 983.4,642.7656 Q983.65,643.0156 983.65,643.375 Q983.65,643.7188 983.3063,644.125 Q982.8063,644.7188 982.0094,645.0469 Q980.9625,645.5 979.6813,645.5 Q978.1813,645.5 976.9781,644.9063 Q976.0094,644.4375 975.3219,643.4219 Q974.65,642.4063 974.65,641.2031 L974.65,640.1094 Q974.65,638.8594 975.2438,637.7656 Q975.8531,636.6719 976.9,636.0938 Q977.9625,635.5 979.15,635.5 Q979.8688,635.5 980.4938,635.75 Q981.1188,636 981.65,636.5 Z "/><text fill="#000000" font-family="sans-serif" font-size="12" lengthAdjust="spacingAndGlyphs" textLength="59" x="997.35" y="644.9102">ScooterDB</text><line style="stroke: #A80036; stroke-width: 1.5;" x1="949" x2="1075" y1="656" y2="656"/><line style="stroke: #A80036; stroke-width: 1.5;" x1="949" x2="1075" y1="664" y2="664"/><text fill="#000000" font-family="sans-serif" font-size="11" lengthAdjust="spacingAndGlyphs" textLength="66" x="954" y="679.4189">+ScooterDB()</text><text fill="#000000" font-family="sans-serif" font-size="11" lengthAdjust="spacingAndGlyphs" textLength="116" x="954" y="693.2549">+registerScooter(scoot)</text><!--MD5=[0eeba38b962813fa642822f4f72de053]
class VehicleDB--><rect fill="#FEFECE" filter="url(#fcy4i7prrr5wa)" height="61.8359" id="VehicleDB" style="stroke: #A80036; stroke-width: 1.5;" width="89" x="1111.5" y="631"/><ellipse cx="1126.5" cy="647" fill="#ADD1B2" rx="11" ry="11" style="stroke: #A80036; stroke-width: 1.0;"/><path d="M1128.5,643.5 Q1128.7031,643 1128.9375,642.75 Q1129.1719,642.5 1129.4375,642.5 Q1129.9063,642.5 1130.2031,642.7813 Q1130.5,643.0625 1130.5,643.7188 L1130.5,645.2813 Q1130.5,645.9375 1130.2188,646.2188 Q1129.9375,646.5 1129.5,646.5 Q1129.1094,646.5 1128.8594,646.3281 Q1128.6094,646.1563 1128.5,645.7031 Q1128.4531,645.3906 1128.2813,645.2188 Q1127.9688,644.8906 1127.4063,644.7031 Q1126.8438,644.5 1126.2813,644.5 Q1125.5781,644.5 1124.9844,644.7813 Q1124.4063,645.0625 1123.9531,645.6875 Q1123.5,646.3125 1123.5,647.1719 L1123.5,648.0938 Q1123.5,649.125 1124.3438,649.8125 Q1125.1875,650.5 1126.6875,650.5 Q1127.5781,650.5 1128.2031,650.2969 Q1128.5625,650.1875 1128.9688,649.8281 Q1129.2344,649.625 1129.375,649.5625 Q1129.5156,649.5 1129.6875,649.5 Q1130.0156,649.5 1130.25,649.7656 Q1130.5,650.0156 1130.5,650.375 Q1130.5,650.7188 1130.1563,651.125 Q1129.6563,651.7188 1128.8594,652.0469 Q1127.8125,652.5 1126.5313,652.5 Q1125.0313,652.5 1123.8281,651.9063 Q1122.8594,651.4375 1122.1719,650.4219 Q1121.5,649.4063 1121.5,648.2031 L1121.5,647.1094 Q1121.5,645.8594 1122.0938,644.7656 Q1122.7031,643.6719 1123.75,643.0938 Q1124.8125,642.5 1126,642.5 Q1126.7188,642.5 1127.3438,642.75 Q1127.9688,643 1128.5,643.5 Z "/><text fill="#000000" font-family="sans-serif" font-size="12" lengthAdjust="spacingAndGlyphs" textLength="57" x="1140.5" y="651.9102">VehicleDB</text><line style="stroke: #A80036; stroke-width: 1.5;" x1="1112.5" x2="1199.5" y1="663" y2="663"/><line style="stroke: #A80036; stroke-width: 1.5;" x1="1112.5" x2="1199.5" y1="671" y2="671"/><text fill="#000000" font-family="sans-serif" font-size="11" lengthAdjust="spacingAndGlyphs" textLength="64" x="1117.5" y="686.4189">+VehicleDB()</text><!--MD5=[f40d64c3825bdc96a4efd5b7e3ff1420]
reverse link DataHandler to PharmacyDB--><path d="M1253.38,548.483 C1261.03,573.36 1269.81,601.892 1276.61,623.999 " fill="none" id="DataHandler&lt;-PharmacyDB" style="stroke: #A80036; stroke-width: 1.0;"/><polygon fill="none" points="1246.6,550.262,1247.41,529.088,1259.98,546.145,1246.6,550.262" style="stroke: #A80036; stroke-width: 1.0;"/><!--MD5=[a2c65173c20bdf66914a8ed43c34e217]
reverse link DataHandler to ScooterDB--><path d="M1233.64,549.327 C1231.88,562.729 1228.92,574.438 1224,579 C1213.39,588.839 1107.34,581.394 1094,587 C1074.73,595.097 1057,609.715 1043,623.832 " fill="none" id="DataHandler&lt;-ScooterDB" style="stroke: #A80036; stroke-width: 1.0;"/><polygon fill="none" points="1226.69,548.409,1235.45,529.114,1240.63,549.66,1226.69,548.409" style="stroke: #A80036; stroke-width: 1.0;"/><!--MD5=[a5b9aad460591e28976d2736bb1bbcd4]
reverse link DataHandler to VehicleDB--><path d="M1240.14,549.413 C1238.86,559.757 1236.11,570.076 1231,579 C1227.81,584.562 1223.79,582.741 1219,587 C1204.25,600.117 1189.82,616.701 1178.5,630.843 " fill="none" id="DataHandler&lt;-VehicleDB" style="stroke: #A80036; stroke-width: 1.0;"/><polygon fill="none" points="1233.16,548.903,1241.02,529.224,1247.14,549.509,1233.16,548.903" style="stroke: #A80036; stroke-width: 1.0;"/><!--MD5=[954f86ea882ac5dcad44771d5b1b4c17]
link RegisterScooterUI to RegisterScooterController--><path d="M487,108.26 C487,128.61 487,159.24 487,187.46 " fill="none" id="RegisterScooterUI-&gt;RegisterScooterController" style="stroke: #A80036; stroke-width: 1.0; stroke-dasharray: 7.0,7.0;"/><polygon fill="#A80036" points="487,192.7,491,183.7,487,187.7,483,183.7,487,192.7" style="stroke: #A80036; stroke-width: 1.0;"/><!--MD5=[3483b254801180bcfb852ef80db9ffdb]
link RegisterScooterController to PharmacyService--><path d="M487,324.01 C487,363.46 487,412.81 487,447.404 " fill="none" id="RegisterScooterController-&gt;PharmacyService" style="stroke: #A80036; stroke-width: 1.0; stroke-dasharray: 7.0,7.0;"/><polygon fill="#A80036" points="487,452.826,491,443.826,487,447.826,483,443.826,487,452.826" style="stroke: #A80036; stroke-width: 1.0;"/><!--MD5=[fbd790f96af27a62db13e48d70800838]
link RegisterScooterController to ScooterService--><path d="M537.888,324.22 C548.046,337.57 558.505,351.63 568,365 C587.386,392.29 608.052,423.81 623.787,448.369 " fill="none" id="RegisterScooterController-&gt;ScooterService" style="stroke: #A80036; stroke-width: 1.0; stroke-dasharray: 7.0,7.0;"/><polygon fill="#A80036" points="626.666,452.871,625.1868,443.1339,623.9721,448.6588,618.4472,447.4441,626.666,452.871" style="stroke: #A80036; stroke-width: 1.0;"/><!--MD5=[3bf2ff07311e526774b1a4ba322a6b71]
link RegisterScooterController to VehicleService--><path d="M435.411,324.16 C425.36,337.46 415.12,351.51 406,365 C387.712,392.04 368.999,423.69 354.966,448.383 " fill="none" id="RegisterScooterController-&gt;VehicleService" style="stroke: #A80036; stroke-width: 1.0; stroke-dasharray: 7.0,7.0;"/><polygon fill="#A80036" points="352.401,452.909,360.3189,447.0518,354.8666,448.5592,353.3592,443.1069,352.401,452.909" style="stroke: #A80036; stroke-width: 1.0;"/><!--MD5=[04ba2cb7f5803b19c0d0e740f2a895e0]
link Database to PharmacyDB--><path d="M889.244,514.534 C899.335,528.327 914.214,544.844 932,553 C951.913,562.131 1107.38,557.458 1129,561 C1134.08,561.833 1213.61,584.313 1218,587 C1232.22,595.693 1245.46,608.016 1256.51,620.117 " fill="none" id="Database-&gt;PharmacyDB" style="stroke: #A80036; stroke-width: 1.0;"/><polygon fill="#A80036" points="1259.87,623.861,1256.8285,614.4936,1256.5275,620.1424,1250.8787,619.8415,1259.87,623.861" style="stroke: #A80036; stroke-width: 1.0;"/><text fill="#000000" font-family="sans-serif" font-size="13" lengthAdjust="spacingAndGlyphs" textLength="53" x="1192" y="575.4951">manages</text><text fill="#000000" font-family="sans-serif" font-size="13" lengthAdjust="spacingAndGlyphs" textLength="7" x="893.3473" y="535.4072">1</text><text fill="#000000" font-family="sans-serif" font-size="13" lengthAdjust="spacingAndGlyphs" textLength="7" x="1247.2359" y="613.1981">1</text><!--MD5=[70f68ce34a156c56edce71dba5c758e9]
link Database to ScooterDB--><path d="M887.499,514.728 C897.894,532.844 913.594,558.485 930,579 C941.379,593.228 954.959,607.644 967.763,620.336 " fill="none" id="Database-&gt;ScooterDB" style="stroke: #A80036; stroke-width: 1.0;"/><polygon fill="#A80036" points="971.351,623.869,967.745,614.704,967.7884,620.3607,962.1317,620.4041,971.351,623.869" style="stroke: #A80036; stroke-width: 1.0;"/><text fill="#000000" font-family="sans-serif" font-size="13" lengthAdjust="spacingAndGlyphs" textLength="53" x="931" y="575.4951">manages</text><text fill="#000000" font-family="sans-serif" font-size="13" lengthAdjust="spacingAndGlyphs" textLength="7" x="882.58" y="535.646">1</text><text fill="#000000" font-family="sans-serif" font-size="13" lengthAdjust="spacingAndGlyphs" textLength="7" x="956.487" y="613.2076">1</text><!--MD5=[ee7ed70a83e67b7f86b44988d609d45d]
link ScooterService to PharmacyDB--><path d="M714.067,520.818 C744.59,533.13 782.002,546.21 817,553 C869.822,563.248 1007.18,546.507 1059,561 C1074.71,565.395 1075.35,574.371 1091,579 C1118.12,587.022 1192.39,575.005 1218,587 C1233.82,594.41 1247.85,607.119 1259.12,619.935 " fill="none" id="ScooterService-&gt;PharmacyDB" style="stroke: #A80036; stroke-width: 1.0;"/><polygon fill="#A80036" points="1262.53,623.91,1259.714,614.4723,1259.2777,620.1123,1253.6377,619.676,1262.53,623.91" style="stroke: #A80036; stroke-width: 1.0;"/><text fill="#000000" font-family="sans-serif" font-size="13" lengthAdjust="spacingAndGlyphs" textLength="28" x="1092" y="575.4951">uses</text><text fill="#000000" font-family="sans-serif" font-size="13" lengthAdjust="spacingAndGlyphs" textLength="7" x="721.8794" y="520.8751">1</text><text fill="#000000" font-family="sans-serif" font-size="13" lengthAdjust="spacingAndGlyphs" textLength="5" x="1258.4385" y="613.2559">*</text><!--MD5=[799b1f05f2692ceb79e345e4105e6b42]
link PharmacyService to ScooterDB--><path d="M527.234,529.022 C539.5,538.367 553.578,547.343 568,553 C600.442,565.726 614.328,546.463 646,561 C656.572,565.852 654.31,574.413 665,579 C696.288,592.425 784.69,579.959 818,587 C860.866,596.061 906.759,613.199 943.141,628.702 " fill="none" id="PharmacyService-&gt;ScooterDB" style="stroke: #A80036; stroke-width: 1.0;"/><polygon fill="#A80036" points="947.983,630.779,941.2888,623.5549,943.3879,628.8079,938.135,630.907,947.983,630.779" style="stroke: #A80036; stroke-width: 1.0;"/><text fill="#000000" font-family="sans-serif" font-size="13" lengthAdjust="spacingAndGlyphs" textLength="28" x="666" y="575.4951">uses</text><text fill="#000000" font-family="sans-serif" font-size="13" lengthAdjust="spacingAndGlyphs" textLength="7" x="526.3181" y="550.1958">1</text><text fill="#000000" font-family="sans-serif" font-size="13" lengthAdjust="spacingAndGlyphs" textLength="5" x="934.8762" y="623.5355">*</text><!--MD5=[8ef6fec0705bb095102136c9939e064e]
link VehicleService to VehicleDB--><path d="M367.247,529.174 C378.609,538.769 391.932,547.84 406,553 C436.411,564.155 957.722,552.577 989,561 C1004.756,565.243 1005.468,573.998 1021,579 C1051.65,588.869 1064.56,571.902 1093,587 C1110.16,596.113 1124.63,612.003 1135.36,626.729 " fill="none" id="VehicleService-&gt;VehicleDB" style="stroke: #A80036; stroke-width: 1.0;"/><polygon fill="#A80036" points="1138.29,630.845,1136.3471,621.1897,1135.3979,626.7663,1129.8212,625.8171,1138.29,630.845" style="stroke: #A80036; stroke-width: 1.0;"/><text fill="#000000" font-family="sans-serif" font-size="13" lengthAdjust="spacingAndGlyphs" textLength="28" x="1022" y="575.4951">uses</text><text fill="#000000" font-family="sans-serif" font-size="13" lengthAdjust="spacingAndGlyphs" textLength="7" x="365.3067" y="550.0823">1</text><text fill="#000000" font-family="sans-serif" font-size="13" lengthAdjust="spacingAndGlyphs" textLength="5" x="1129.1217" y="620.3176">*</text><!--MD5=[ed3f5943e31dc8cca91748edfaeba988]
link VehicleService to Vehicle--><path d="M320.64,529.153 C307.615,580.045 293.772,671.134 342,724 C350.917,733.775 388.207,728.624 401,732 C454.531,746.128 512.731,770.129 554.584,789.031 " fill="none" id="VehicleService-&gt;Vehicle" style="stroke: #A80036; stroke-width: 1.0;"/><polygon fill="#A80036" points="559.349,791.193,552.805,783.8326,554.7955,789.1276,549.5004,791.1182,559.349,791.193" style="stroke: #A80036; stroke-width: 1.0;"/><text fill="#000000" font-family="sans-serif" font-size="13" lengthAdjust="spacingAndGlyphs" textLength="111" x="343" y="667.4951">manage services of</text><text fill="#000000" font-family="sans-serif" font-size="13" lengthAdjust="spacingAndGlyphs" textLength="7" x="311.2717" y="550.0579">1</text><text fill="#000000" font-family="sans-serif" font-size="13" lengthAdjust="spacingAndGlyphs" textLength="5" x="546.4528" y="783.8412">*</text><!--MD5=[2ed2b43e7f6d114538396b0b10b28567]
link PharmacyService to Pharmacy--><path d="M442.325,529.28 C430.658,537.858 417.763,546.392 405,553 C361.816,575.36 329.548,547.632 301,587 C223.891,693.334 262.117,860.192 288.313,942.387 " fill="none" id="PharmacyService-&gt;Pharmacy" style="stroke: #A80036; stroke-width: 1.0;"/><polygon fill="#A80036" points="289.864,947.197,290.9118,937.404,288.3309,942.4378,283.2972,939.8569,289.864,947.197" style="stroke: #A80036; stroke-width: 1.0;"/><text fill="#000000" font-family="sans-serif" font-size="13" lengthAdjust="spacingAndGlyphs" textLength="111" x="257" y="746.4951">manage services of</text><text fill="#000000" font-family="sans-serif" font-size="13" lengthAdjust="spacingAndGlyphs" textLength="7" x="427.6471" y="550.2052">1</text><text fill="#000000" font-family="sans-serif" font-size="13" lengthAdjust="spacingAndGlyphs" textLength="5" x="282.0104" y="936.5947">*</text><!--MD5=[a4fc43f4c54bc2b04150642bdfef7d93]
link ScooterService to Scooter--><path d="M607.542,529.042 C595.429,538.042 581.765,546.837 568,553 C551.85,560.23 540.184,547.289 529,561 C511.518,582.433 528.125,603.618 553.121,620.934 " fill="none" id="ScooterService-&gt;Scooter" style="stroke: #A80036; stroke-width: 1.0;"/><polygon fill="#A80036" points="557.538,623.9,552.2967,615.5616,553.3872,621.1123,547.8365,622.2028,557.538,623.9" style="stroke: #A80036; stroke-width: 1.0;"/><text fill="#000000" font-family="sans-serif" font-size="13" lengthAdjust="spacingAndGlyphs" textLength="111" x="530" y="575.4951">manage services of</text><text fill="#000000" font-family="sans-serif" font-size="13" lengthAdjust="spacingAndGlyphs" textLength="7" x="592.9302" y="550.2191">1</text><text fill="#000000" font-family="sans-serif" font-size="13" lengthAdjust="spacingAndGlyphs" textLength="5" x="537.9385" y="613.2441">*</text><!--MD5=[79bb0f51744414385f8a242ad15f1832]
link VehicleService to QRCode--><path d="M278.655,529.254 C264.624,539.348 249.609,550.415 236,561 C208.413,582.456 178.283,607.796 155.243,627.599 " fill="none" id="VehicleService-&gt;QRCode" style="stroke: #A80036; stroke-width: 1.0;"/><polygon fill="#A80036" points="151.317,630.978,160.7474,628.1377,155.1063,627.7159,155.5281,622.0748,151.317,630.978" style="stroke: #A80036; stroke-width: 1.0;"/><!--MD5=[51d7b9a785c9fb041ca400474ed1d998]
link Database to Pharmacy--><path d="M873.234,514.716 C869.106,557.81 856.174,653.431 819,724 C768.838,819.225 752.933,855.205 657,904 C541.505,962.745 484.809,880.045 367,934 C359.59,937.394 352.503,942.054 345.952,947.265 " fill="none" id="Database-Pharmacy" style="stroke: #A80036; stroke-width: 1.0;"/><polygon fill="#000000" points="823,739.6758,817,742.6758,823,745.6758,823,739.6758" style="stroke: #000000; stroke-width: 1.0;"/><text fill="#000000" font-family="sans-serif" font-size="13" lengthAdjust="spacingAndGlyphs" textLength="82" x="829" y="746.4951">has registered</text><text fill="#000000" font-family="sans-serif" font-size="13" lengthAdjust="spacingAndGlyphs" textLength="7" x="865.0162" y="535.6313">1</text><text fill="#000000" font-family="sans-serif" font-size="13" lengthAdjust="spacingAndGlyphs" textLength="5" x="346.6868" y="936.6731">*</text><!--MD5=[f4a94ba2ad2673d4959409a96e63c979]
link Database to Scooter--><path d="M834.42,512.079 C809.82,524.898 778.226,542.534 752,561 C725.067,579.964 697.131,604.134 675.538,623.961 " fill="none" id="Database-Scooter" style="stroke: #A80036; stroke-width: 1.0;"/><polygon fill="#000000" points="760,568.6758,754,571.6758,760,574.6758,760,568.6758" style="stroke: #000000; stroke-width: 1.0;"/><text fill="#000000" font-family="sans-serif" font-size="13" lengthAdjust="spacingAndGlyphs" textLength="82" x="766" y="575.4951">has registered</text><text fill="#000000" font-family="sans-serif" font-size="13" lengthAdjust="spacingAndGlyphs" textLength="7" x="819.5682" y="511.9699">1</text><text fill="#000000" font-family="sans-serif" font-size="13" lengthAdjust="spacingAndGlyphs" textLength="5" x="677.1825" y="613.0303">*</text><!--MD5=[074a56c4439d52c76e1cc7a8f9d070a4]
link Vehicle to Battery--><path d="M641.197,856.248 C656.302,877.898 674.012,906.302 685,934 C713.509,1005.861 726.832,1095.022 732.726,1149.825 " fill="none" id="Vehicle-Battery" style="stroke: #A80036; stroke-width: 1.0;"/><text fill="#000000" font-family="sans-serif" font-size="13" lengthAdjust="spacingAndGlyphs" textLength="21" x="719" y="997.9951">has</text><polygon fill="#000000" points="725,1006.8516,728,1012.8516,731,1006.8516,725,1006.8516" style="stroke: #000000; stroke-width: 1.0;"/><text fill="#000000" font-family="sans-serif" font-size="13" lengthAdjust="spacingAndGlyphs" textLength="7" x="638.1331" y="877.1681">1</text><text fill="#000000" font-family="sans-serif" font-size="13" lengthAdjust="spacingAndGlyphs" textLength="7" x="724.6814" y="1139.3018">1</text><!--MD5=[9793812679a856b96e8ba34e2675abcc]
link Vehicle to Pharmacy--><path d="M559.05,838.446 C507.384,858.369 428.426,892.283 367,934 C361.101,938.006 355.225,942.586 349.58,947.372 " fill="none" id="Vehicle-Pharmacy" style="stroke: #A80036; stroke-width: 1.0;"/><polygon fill="#000000" points="453,893.6758,447,896.6758,453,899.6758,453,893.6758" style="stroke: #000000; stroke-width: 1.0;"/><text fill="#000000" font-family="sans-serif" font-size="13" lengthAdjust="spacingAndGlyphs" textLength="71" x="459" y="900.4951">belongs to a</text><text fill="#000000" font-family="sans-serif" font-size="13" lengthAdjust="spacingAndGlyphs" textLength="5" x="546.4645" y="837.6592">*</text><text fill="#000000" font-family="sans-serif" font-size="13" lengthAdjust="spacingAndGlyphs" textLength="7" x="356.7891" y="936.7965">1</text><!--MD5=[52f80c2c106e4280525a8160ec8cd0fa]
link Scooter to Vehicle--><path d="M631.19,700.279 C627.431,724.403 622.555,755.689 618.798,779.798 " fill="none" id="Scooter-Vehicle" style="stroke: #A80036; stroke-width: 1.0;"/><text fill="#000000" font-family="sans-serif" font-size="13" lengthAdjust="spacingAndGlyphs" textLength="64" x="627" y="746.4951">is a type of</text><polygon fill="#000000" points="654.5,755.3516,657.5,761.3516,660.5,755.3516,654.5,755.3516" style="stroke: #000000; stroke-width: 1.0;"/><text fill="#000000" font-family="sans-serif" font-size="13" lengthAdjust="spacingAndGlyphs" textLength="5" x="624.8656" y="721.204">*</text><text fill="#000000" font-family="sans-serif" font-size="13" lengthAdjust="spacingAndGlyphs" textLength="7" x="612.2073" y="769.1239">1</text><!--MD5=[7ee5f2eef2f8ef54a9b73b97abb49ae4]
link Vehicle to VehicleModel--><path d="M613,856.006 C613,878.676 613,908.172 613,933.853 " fill="none" id="Vehicle-VehicleModel" style="stroke: #A80036; stroke-width: 1.0;"/><text fill="#000000" font-family="sans-serif" font-size="13" lengthAdjust="spacingAndGlyphs" textLength="21" x="614" y="900.4951">has</text><polygon fill="#000000" points="620,909.3516,623,915.3516,626,909.3516,620,909.3516" style="stroke: #000000; stroke-width: 1.0;"/><text fill="#000000" font-family="sans-serif" font-size="13" lengthAdjust="spacingAndGlyphs" textLength="5" x="607.5859" y="877.1771">*</text><text fill="#000000" font-family="sans-serif" font-size="13" lengthAdjust="spacingAndGlyphs" textLength="7" x="605.5734" y="923.236">1</text><!--MD5=[89baec1bfb4a213750f7c61516e0a0f1]
link Pharmacy to Address--><path d="M306,1037.653 C306,1064.131 306,1098.437 306,1128.728 " fill="none" id="Pharmacy-Address" style="stroke: #A80036; stroke-width: 1.0;"/><text fill="#000000" font-family="sans-serif" font-size="13" lengthAdjust="spacingAndGlyphs" textLength="21" x="307" y="1095.4951">has</text><polygon fill="#000000" points="313,1104.3516,316,1110.3516,319,1104.3516,313,1104.3516" style="stroke: #000000; stroke-width: 1.0;"/><text fill="#000000" font-family="sans-serif" font-size="13" lengthAdjust="spacingAndGlyphs" textLength="7" x="298.5297" y="1058.3472">1</text><text fill="#000000" font-family="sans-serif" font-size="13" lengthAdjust="spacingAndGlyphs" textLength="7" x="298.6391" y="1117.9193">1</text><!--MD5=[5790d77feb6b26de2794f2f777278d81]
link Park to VehicleType--><path d="M478.135,1030.507 C504.149,1070.395 545.064,1133.131 569.24,1170.201 " fill="none" id="Park-VehicleType" style="stroke: #A80036; stroke-width: 1.0;"/><text fill="#000000" font-family="sans-serif" font-size="13" lengthAdjust="spacingAndGlyphs" textLength="21" x="523" y="1095.4951">has</text><polygon fill="#000000" points="529,1104.3516,532,1110.3516,535,1104.3516,529,1104.3516" style="stroke: #000000; stroke-width: 1.0;"/><text fill="#000000" font-family="sans-serif" font-size="13" lengthAdjust="spacingAndGlyphs" textLength="5" x="476.7183" y="1051.6783">*</text><text fill="#000000" font-family="sans-serif" font-size="13" lengthAdjust="spacingAndGlyphs" textLength="7" x="557.4426" y="1159.6439">1</text><!--MD5=[d231af42e5f994c6ef3dd0db49c43284]
link Park to ParkingSlot--><path d="M453.483,1030.54 C453.29,1046.12 453.095,1064.441 453,1081 C452.827,1111.29 453.177,1145.899 453.509,1170.048 " fill="none" id="Park-ParkingSlot" style="stroke: #A80036; stroke-width: 1.0;"/><text fill="#000000" font-family="sans-serif" font-size="13" lengthAdjust="spacingAndGlyphs" textLength="21" x="454" y="1095.4951">has</text><polygon fill="#000000" points="460,1104.3516,463,1110.3516,466,1104.3516,460,1104.3516" style="stroke: #000000; stroke-width: 1.0;"/><text fill="#000000" font-family="sans-serif" font-size="13" lengthAdjust="spacingAndGlyphs" textLength="7" x="445.8177" y="1051.7168">1</text><text fill="#000000" font-family="sans-serif" font-size="13" lengthAdjust="spacingAndGlyphs" textLength="5" x="447.8921" y="1159.4593">*</text><!--MD5=[a4c65a09dd0e5e45daf0263f06c7f061]
link ParkingSlot to ChargingSlot--><path d="M432.408,1232.544 C408.596,1265.679 370.503,1318.684 346.662,1351.8577 " fill="none" id="ParkingSlot-ChargingSlot" style="stroke: #A80036; stroke-width: 1.0;"/><text fill="#000000" font-family="sans-serif" font-size="13" lengthAdjust="spacingAndGlyphs" textLength="10" x="379.5" y="1318.4951">is</text><polygon fill="#000000" points="380,1327.3516,383,1333.3516,386,1327.3516,380,1327.3516" style="stroke: #000000; stroke-width: 1.0;"/><text fill="#000000" font-family="sans-serif" font-size="13" lengthAdjust="spacingAndGlyphs" textLength="7" x="420.468" y="1253.7767">1</text><text fill="#000000" font-family="sans-serif" font-size="13" lengthAdjust="spacingAndGlyphs" textLength="7" x="343.4079" y="1341.3333">1</text><!--MD5=[142124bf764eff3cd61a820bcd607a89]
link ParkingSlot to NonChargingSlot--><path d="M457.682,1232.544 C461.743,1265.679 468.24,1318.684 472.306,1351.8577 " fill="none" id="ParkingSlot-NonChargingSlot" style="stroke: #A80036; stroke-width: 1.0;"/><text fill="#000000" font-family="sans-serif" font-size="13" lengthAdjust="spacingAndGlyphs" textLength="10" x="470.5" y="1318.4951">is</text><polygon fill="#000000" points="471,1327.3516,474,1333.3516,477,1327.3516,471,1327.3516" style="stroke: #000000; stroke-width: 1.0;"/><text fill="#000000" font-family="sans-serif" font-size="13" lengthAdjust="spacingAndGlyphs" textLength="7" x="450.7178" y="1253.7767">1</text><text fill="#000000" font-family="sans-serif" font-size="13" lengthAdjust="spacingAndGlyphs" textLength="7" x="463.8222" y="1341.3333">1</text><!--MD5=[3fa83f42c878ddc47b59211fc64ec532]
link VehicleModel to Battery--><path d="M647.541,1051.161 C666.101,1082.145 688.776,1119.997 706.653,1149.839 " fill="none" id="VehicleModel-Battery" style="stroke: #A80036; stroke-width: 1.0;"/><text fill="#000000" font-family="sans-serif" font-size="13" lengthAdjust="spacingAndGlyphs" textLength="21" x="676" y="1095.4951">has</text><polygon fill="#000000" points="682,1104.3516,685,1110.3516,688,1104.3516,682,1104.3516" style="stroke: #000000; stroke-width: 1.0;"/><text fill="#000000" font-family="sans-serif" font-size="13" lengthAdjust="spacingAndGlyphs" textLength="7" x="644.3241" y="1072.7909">1</text><text fill="#000000" font-family="sans-serif" font-size="13" lengthAdjust="spacingAndGlyphs" textLength="7" x="695.1048" y="1139.3177">1</text><!--MD5=[eb172a83c7b24bcb2b2c23cfcc7dc290]
link VehicleModel to VehicleType--><path d="M606.315,1051.161 C601.835,1089.801 596.116,1139.123 592.505,1170.271 " fill="none" id="VehicleModel-VehicleType" style="stroke: #A80036; stroke-width: 1.0;"/><text fill="#000000" font-family="sans-serif" font-size="13" lengthAdjust="spacingAndGlyphs" textLength="21" x="604" y="1095.4951">has</text><polygon fill="#000000" points="610,1104.3516,613,1110.3516,616,1104.3516,610,1104.3516" style="stroke: #000000; stroke-width: 1.0;"/><text fill="#000000" font-family="sans-serif" font-size="13" lengthAdjust="spacingAndGlyphs" textLength="5" x="600.1956" y="1072.7909">*</text><text fill="#000000" font-family="sans-serif" font-size="13" lengthAdjust="spacingAndGlyphs" textLength="7" x="585.506" y="1159.7283">1</text><!--MD5=[463f1f78c32500a94c08e72812994185]
@startuml
skinparam classAttributeIconSize 0

database Database {
}

package "UI" #DDDDDD {
class RegisterScooterUI{
}
}

package "Controller" #DDDDDD {
class RegisterScooterController{
+getPharmacies()
+setVehicleModer(model)
+newVehicleModel(designation, potency, weight, maxPayload,\nbatteryCapacity, batteryVoltage, efficiency)
+newScooter(batteryPerc, potency, weight, batteryCapacity, maxPayload, pharmacy)
+registerScooter(scoot)
}
}

package "Utils" #DDDDDD {
class QRCode{
+generateQRCode(data, path)
}
}

package "Model" #DDDDDD {
 package "Service" #DDDDDD {
  class PharmacyService{
      +PharmacyService()
      +getPharmacies()
  }

  class ScooterService{
      +ScooterService()
      +registerScooter(scoot)
   }

  class VehicleService{
      +VehicleService()
      +generateQRCode()
   }
}

package "Model" #DDDDDD {
class Park{
-   int maxSlotsNumber
-   double totalOutputCorrent
}

class ChargingSlot{
-   int id
}

class NonChargingSlot{
-   int id
}

class ParkingSlot{
-   int id
}

class Scooter{
+Scooter(batteryPerc, charginStatus, potency,\n weight, batteryCapacity, maxPayload, batteryVoltage, pharmacy)

}

class VehicleModel{
  -int id
  -String desigantion
  -double potency
  -double weight
  -double maxPayload
}

class VehicleType{
  -String desigantion
}

class Vehicle{
  -int id
  -double batteryPerc
}

class Battery{
  -int id
  -int batteryCapacity
  -double batteryVoltage
  -double efficiency
}

class Address{
  -double longitude
  -double latitude
  -String doorNumber
  -String streetName
  -String postalCode
  -String locality
  -String country
}

class Pharmacy {
  -int id
  -String name
  -String email
}
}


package "Data" #DDDDDD {
class DataHandler{
    +openConnection()
    +closeAll()
}
class PharmacyDB{
     +PharmacyDB()
     +getPharmacies()
 }

 class ScooterDB{
     +ScooterDB()
     +registerScooter(scoot)
  }

 class VehicleDB{
     +VehicleDB()
  }
}

class PharmacyDB extends DataHandler
class ScooterDB extends DataHandler
class VehicleDB extends DataHandler

RegisterScooterUI ..> RegisterScooterController
RegisterScooterController ..> PharmacyService
RegisterScooterController ..> ScooterService
RegisterScooterController ..> VehicleService

Database "1" - -> "1" PharmacyDB : manages
Database "1" - -> "1" ScooterDB : manages
ScooterService "1" - -> "*" PharmacyDB : uses
PharmacyService "1" - -> "*" ScooterDB : uses
VehicleService "1" - -> "*" VehicleDB : uses
VehicleService "1" - -> "*" Vehicle : manage services of
PharmacyService "1" - -> "*" Pharmacy : manage services of
ScooterService "1" - -> "*" Scooter : manage services of
VehicleService - -> QRCode

Database "1" - - "*" Pharmacy : has registered >
Database "1" - - "*" Scooter : has registered >

Vehicle "1" - - "1" Battery : has >
Vehicle "*" - - "1" Pharmacy : belongs to a >
Scooter "*" - - "1" Vehicle : is a type of >
Vehicle "*" - - "1" VehicleModel : has >
Pharmacy "1" - - "1" Address : has >
Park "*" - - "1" VehicleType : has >
Park "1" - - "*" ParkingSlot : has >
ParkingSlot "1" - - "1" ChargingSlot : is >
ParkingSlot "1" - - "1" NonChargingSlot : is >
VehicleModel "1" - - "1" Battery : has >
VehicleModel "*" - - "1" VehicleType : has >

@enduml

PlantUML version 1.2020.09(Sun May 10 11:51:06 BST 2020)
(GPL source distribution)
Java Runtime: OpenJDK Runtime Environment
JVM: OpenJDK 64-Bit Server VM
Java Version: 11.0.6+8-b765.40
Operating System: Windows 10
Default Encoding: Cp1252
Language: pt
Country: PT
--></g></svg>