<?xml version="1.0" encoding="UTF-8" standalone="no"?><svg xmlns="http://www.w3.org/2000/svg" xmlns:xlink="http://www.w3.org/1999/xlink" contentScriptType="application/ecmascript" contentStyleType="text/css" height="160px" preserveAspectRatio="none" style="width:808px;height:160px;" version="1.1" viewBox="0 0 808 160" width="808px" zoomAndPan="magnify"><defs><filter height="300%" id="f1t9njv680el95" width="300%" x="-1" y="-1"><feGaussianBlur result="blurOut" stdDeviation="2.0"/><feColorMatrix in="blurOut" result="blurOut2" type="matrix" values="0 0 0 0 0 0 0 0 0 0 0 0 0 0 0 0 0 0 .4 0"/><feOffset dx="4.0" dy="4.0" in="blurOut2" result="blurOut3"/><feBlend in="SourceGraphic" in2="blurOut3" mode="normal"/></filter></defs><g><!--MD5=[99b8db98afdc2c8404e39242ef4c1e65]
class Platform--><rect codeLine="5" fill="#FEFECE" filter="url(#f1t9njv680el95)" height="53.8359" id="Platform" style="stroke:#A80036;stroke-width:1.5;" width="116" x="7" y="72"/><ellipse cx="39.1" cy="88" fill="#ADD1B2" rx="11" ry="11" style="stroke:#A80036;stroke-width:1.0;"/><path d="M41.1,84.5 Q41.3031,84 41.5375,83.75 Q41.7719,83.5 42.0375,83.5 Q42.5063,83.5 42.8031,83.7813 Q43.1,84.0625 43.1,84.7188 L43.1,86.2813 Q43.1,86.9375 42.8188,87.2188 Q42.5375,87.5 42.1,87.5 Q41.7094,87.5 41.4594,87.3281 Q41.2094,87.1563 41.1,86.7031 Q41.0531,86.3906 40.8813,86.2188 Q40.5688,85.8906 40.0063,85.7031 Q39.4438,85.5 38.8813,85.5 Q38.1781,85.5 37.5844,85.7813 Q37.0063,86.0625 36.5531,86.6875 Q36.1,87.3125 36.1,88.1719 L36.1,89.0938 Q36.1,90.125 36.9438,90.8125 Q37.7875,91.5 39.2875,91.5 Q40.1781,91.5 40.8031,91.2969 Q41.1625,91.1875 41.5688,90.8281 Q41.8344,90.625 41.975,90.5625 Q42.1156,90.5 42.2875,90.5 Q42.6156,90.5 42.85,90.7656 Q43.1,91.0156 43.1,91.375 Q43.1,91.7188 42.7563,92.125 Q42.2563,92.7188 41.4594,93.0469 Q40.4125,93.5 39.1313,93.5 Q37.6313,93.5 36.4281,92.9063 Q35.4594,92.4375 34.7719,91.4219 Q34.1,90.4063 34.1,89.2031 L34.1,88.1094 Q34.1,86.8594 34.6938,85.7656 Q35.3031,84.6719 36.35,84.0938 Q37.4125,83.5 38.6,83.5 Q39.3188,83.5 39.9438,83.75 Q40.5688,84 41.1,84.5 Z " fill="#000000"/><text fill="#000000" font-family="sans-serif" font-size="12" lengthAdjust="spacingAndGlyphs" textLength="46" x="56.9" y="92.9102">Platform</text><line style="stroke:#A80036;stroke-width:1.5;" x1="8" x2="122" y1="104" y2="104"/><text fill="#000000" font-family="sans-serif" font-size="11" lengthAdjust="spacingAndGlyphs" textLength="104" x="13" y="119.4189">-String strDesignation</text><!--MD5=[c6a2171c11447acbe08a3dfeee0e1710]
class Courier--><rect codeLine="9" fill="#FEFECE" filter="url(#f1t9njv680el95)" height="67.6719" id="Courier" style="stroke:#A80036;stroke-width:1.5;" width="73" x="506" y="7"/><ellipse cx="521" cy="23" fill="#ADD1B2" rx="11" ry="11" style="stroke:#A80036;stroke-width:1.0;"/><path d="M523,19.5 Q523.2031,19 523.4375,18.75 Q523.6719,18.5 523.9375,18.5 Q524.4063,18.5 524.7031,18.7813 Q525,19.0625 525,19.7188 L525,21.2813 Q525,21.9375 524.7188,22.2188 Q524.4375,22.5 524,22.5 Q523.6094,22.5 523.3594,22.3281 Q523.1094,22.1563 523,21.7031 Q522.9531,21.3906 522.7813,21.2188 Q522.4688,20.8906 521.9063,20.7031 Q521.3438,20.5 520.7813,20.5 Q520.0781,20.5 519.4844,20.7813 Q518.9063,21.0625 518.4531,21.6875 Q518,22.3125 518,23.1719 L518,24.0938 Q518,25.125 518.8438,25.8125 Q519.6875,26.5 521.1875,26.5 Q522.0781,26.5 522.7031,26.2969 Q523.0625,26.1875 523.4688,25.8281 Q523.7344,25.625 523.875,25.5625 Q524.0156,25.5 524.1875,25.5 Q524.5156,25.5 524.75,25.7656 Q525,26.0156 525,26.375 Q525,26.7188 524.6563,27.125 Q524.1563,27.7188 523.3594,28.0469 Q522.3125,28.5 521.0313,28.5 Q519.5313,28.5 518.3281,27.9063 Q517.3594,27.4375 516.6719,26.4219 Q516,25.4063 516,24.2031 L516,23.1094 Q516,21.8594 516.5938,20.7656 Q517.2031,19.6719 518.25,19.0938 Q519.3125,18.5 520.5,18.5 Q521.2188,18.5 521.8438,18.75 Q522.4688,19 523,19.5 Z " fill="#000000"/><text fill="#000000" font-family="sans-serif" font-size="12" lengthAdjust="spacingAndGlyphs" textLength="41" x="535" y="27.9102">Courier</text><line style="stroke:#A80036;stroke-width:1.5;" x1="507" x2="578" y1="39" y2="39"/><text fill="#000000" font-family="sans-serif" font-size="11" lengthAdjust="spacingAndGlyphs" textLength="48" x="512" y="54.4189">-Integer id</text><text fill="#000000" font-family="sans-serif" font-size="11" lengthAdjust="spacingAndGlyphs" textLength="55" x="512" y="68.2549">-String iban</text><!--MD5=[25d27397beb7751a92f927503ed5c06c]
class Administator--><rect codeLine="14" fill="#FEFECE" filter="url(#f1t9njv680el95)" height="53.8359" id="Administator" style="stroke:#A80036;stroke-width:1.5;" width="101" x="280" y="72"/><ellipse cx="295" cy="88" fill="#ADD1B2" rx="11" ry="11" style="stroke:#A80036;stroke-width:1.0;"/><path d="M297,84.5 Q297.2031,84 297.4375,83.75 Q297.6719,83.5 297.9375,83.5 Q298.4063,83.5 298.7031,83.7813 Q299,84.0625 299,84.7188 L299,86.2813 Q299,86.9375 298.7188,87.2188 Q298.4375,87.5 298,87.5 Q297.6094,87.5 297.3594,87.3281 Q297.1094,87.1563 297,86.7031 Q296.9531,86.3906 296.7813,86.2188 Q296.4688,85.8906 295.9063,85.7031 Q295.3438,85.5 294.7813,85.5 Q294.0781,85.5 293.4844,85.7813 Q292.9063,86.0625 292.4531,86.6875 Q292,87.3125 292,88.1719 L292,89.0938 Q292,90.125 292.8438,90.8125 Q293.6875,91.5 295.1875,91.5 Q296.0781,91.5 296.7031,91.2969 Q297.0625,91.1875 297.4688,90.8281 Q297.7344,90.625 297.875,90.5625 Q298.0156,90.5 298.1875,90.5 Q298.5156,90.5 298.75,90.7656 Q299,91.0156 299,91.375 Q299,91.7188 298.6563,92.125 Q298.1563,92.7188 297.3594,93.0469 Q296.3125,93.5 295.0313,93.5 Q293.5313,93.5 292.3281,92.9063 Q291.3594,92.4375 290.6719,91.4219 Q290,90.4063 290,89.2031 L290,88.1094 Q290,86.8594 290.5938,85.7656 Q291.2031,84.6719 292.25,84.0938 Q293.3125,83.5 294.5,83.5 Q295.2188,83.5 295.8438,83.75 Q296.4688,84 297,84.5 Z " fill="#000000"/><text fill="#000000" font-family="sans-serif" font-size="12" lengthAdjust="spacingAndGlyphs" textLength="69" x="309" y="92.9102">Administator</text><line style="stroke:#A80036;stroke-width:1.5;" x1="281" x2="380" y1="104" y2="104"/><text fill="#000000" font-family="sans-serif" font-size="11" lengthAdjust="spacingAndGlyphs" textLength="48" x="286" y="119.4189">-Integer id</text><!--MD5=[3fd616f346a44cd59a91eb10b19e157c]
class User--><rect codeLine="19" fill="#FEFECE" filter="url(#f1t9njv680el95)" height="95.3438" id="User" style="stroke:#A80036;stroke-width:1.5;" width="97" x="697" y="51.5"/><ellipse cx="729.1" cy="67.5" fill="#ADD1B2" rx="11" ry="11" style="stroke:#A80036;stroke-width:1.0;"/><path d="M731.1,64 Q731.3031,63.5 731.5375,63.25 Q731.7719,63 732.0375,63 Q732.5063,63 732.8031,63.2813 Q733.1,63.5625 733.1,64.2188 L733.1,65.7813 Q733.1,66.4375 732.8188,66.7188 Q732.5375,67 732.1,67 Q731.7094,67 731.4594,66.8281 Q731.2094,66.6563 731.1,66.2031 Q731.0531,65.8906 730.8813,65.7188 Q730.5688,65.3906 730.0063,65.2031 Q729.4438,65 728.8813,65 Q728.1781,65 727.5844,65.2813 Q727.0063,65.5625 726.5531,66.1875 Q726.1,66.8125 726.1,67.6719 L726.1,68.5938 Q726.1,69.625 726.9438,70.3125 Q727.7875,71 729.2875,71 Q730.1781,71 730.8031,70.7969 Q731.1625,70.6875 731.5688,70.3281 Q731.8344,70.125 731.975,70.0625 Q732.1156,70 732.2875,70 Q732.6156,70 732.85,70.2656 Q733.1,70.5156 733.1,70.875 Q733.1,71.2188 732.7563,71.625 Q732.2563,72.2188 731.4594,72.5469 Q730.4125,73 729.1313,73 Q727.6313,73 726.4281,72.4063 Q725.4594,71.9375 724.7719,70.9219 Q724.1,69.9063 724.1,68.7031 L724.1,67.6094 Q724.1,66.3594 724.6938,65.2656 Q725.3031,64.1719 726.35,63.5938 Q727.4125,63 728.6,63 Q729.3188,63 729.9438,63.25 Q730.5688,63.5 731.1,64 Z " fill="#000000"/><text fill="#000000" font-family="sans-serif" font-size="12" lengthAdjust="spacingAndGlyphs" textLength="27" x="746.9" y="72.4102">User</text><line style="stroke:#A80036;stroke-width:1.5;" x1="698" x2="793" y1="83.5" y2="83.5"/><text fill="#000000" font-family="sans-serif" font-size="11" lengthAdjust="spacingAndGlyphs" textLength="59" x="703" y="98.9189">-String email</text><text fill="#000000" font-family="sans-serif" font-size="11" lengthAdjust="spacingAndGlyphs" textLength="85" x="703" y="112.7549">-String password</text><text fill="#000000" font-family="sans-serif" font-size="11" lengthAdjust="spacingAndGlyphs" textLength="30" x="703" y="126.5908">-int nif</text><text fill="#000000" font-family="sans-serif" font-size="11" lengthAdjust="spacingAndGlyphs" textLength="60" x="703" y="140.4268">-string name</text><!--MD5=[adc9222e597a9dc9a64df6764d4713a9]
link Platform to Administator--><path codeLine="26" d="M123.18,99 C169.95,99 235.41,99 279.97,99 " fill="none" id="Platform-Administator" style="stroke:#A80036;stroke-width:1.0;"/><polygon fill="#000000" points="163,90.1758,153.9549,87.2369,153.9549,93.1147,163,90.1758" style="stroke:#000000;stroke-width:1.0;"/><text fill="#000000" font-family="sans-serif" font-size="13" lengthAdjust="spacingAndGlyphs" textLength="82" x="167" y="95.4951">has registered</text><text fill="#000000" font-family="sans-serif" font-size="13" lengthAdjust="spacingAndGlyphs" textLength="7" x="131.0828" y="113.5531">1</text><text fill="#000000" font-family="sans-serif" font-size="13" lengthAdjust="spacingAndGlyphs" textLength="7" x="265.0343" y="113.708">1</text><!--MD5=[40e5d4ff122e1853bd00673e03411a8e]
link Administator to Courier--><path codeLine="27" d="M381,85.33 C419.32,74.75 471.48,60.34 505.79,50.86 " fill="none" id="Administator-Courier" style="stroke:#A80036;stroke-width:1.0;"/><polygon fill="#000000" points="420.8195,49.8445,411.3184,49.42,412.8834,55.0856,420.8195,49.8445" style="stroke:#000000;stroke-width:1.0;"/><text fill="#000000" font-family="sans-serif" font-size="13" lengthAdjust="spacingAndGlyphs" textLength="50" x="425" y="56.4951">registers</text><text fill="#000000" font-family="sans-serif" font-size="13" lengthAdjust="spacingAndGlyphs" textLength="7" x="388.9313" y="98.0302">1</text><text fill="#000000" font-family="sans-serif" font-size="13" lengthAdjust="spacingAndGlyphs" textLength="20" x="478.0537" y="67.3695">1..*</text><!--MD5=[771c3993b003aea4e1f6128d90cd4122]
link Courier to User--><path codeLine="28" d="M579.43,51.37 C612.18,60.82 660.79,74.84 696.78,85.23 " fill="none" id="Courier-User" style="stroke:#A80036;stroke-width:1.0;"/><polygon fill="#000000" points="618.804,54.5619,610.9282,49.2306,609.2987,54.8781,618.804,54.5619" style="stroke:#000000;stroke-width:1.0;"/><text fill="#000000" font-family="sans-serif" font-size="13" lengthAdjust="spacingAndGlyphs" textLength="43" x="623" y="58.4951">acts as</text><text fill="#000000" font-family="sans-serif" font-size="13" lengthAdjust="spacingAndGlyphs" textLength="7" x="586.8843" y="68.3147">1</text><text fill="#000000" font-family="sans-serif" font-size="13" lengthAdjust="spacingAndGlyphs" textLength="7" x="682.1102" y="97.8782">1</text><!--MD5=[c6e88689508e9cf124549eaff5a26b61]
link Administator to User--><path codeLine="29" d="M381.26,103.48 C431.23,107.45 510.43,112.28 579,110 C618.72,108.68 663.71,105.59 696.74,103.02 " fill="none" id="Administator-User" style="stroke:#A80036;stroke-width:1.0;"/><polygon fill="#000000" points="523.5,101.1685,514.4506,98.2428,514.4592,104.1206,523.5,101.1685" style="stroke:#000000;stroke-width:1.0;"/><text fill="#000000" font-family="sans-serif" font-size="13" lengthAdjust="spacingAndGlyphs" textLength="43" x="527.5" y="106.4951">acts as</text><text fill="#000000" font-family="sans-serif" font-size="13" lengthAdjust="spacingAndGlyphs" textLength="7" x="388.8903" y="118.7664">1</text><text fill="#000000" font-family="sans-serif" font-size="13" lengthAdjust="spacingAndGlyphs" textLength="7" x="682.0643" y="118.2811">1</text><!--MD5=[7621ed6ad8e7f39b52de56bf12661f4b]
@startuml
skinparam classAttributeIconSize 0
hide methods
left to right direction

class Platform {
  -String strDesignation
}

class Courier {
      -Integer id
      -String iban
}

class Administator {
      -Integer id
}


class User{
  -String email
  -String password
  -int nif
  -string name
}

Platform "1" - - "1" Administator : has registered >
Administator "1" - - "1..*" Courier : registers >
Courier "1" - - "1" User: acts as  >
Administator "1" - - "1" User: acts as  >
@enduml

PlantUML version 1.2020.23(Sun Dec 13 19:14:58 GMT 2020)
(GPL source distribution)
Java Runtime: OpenJDK Runtime Environment
JVM: OpenJDK 64-Bit Server VM
Default Encoding: Cp1252
Language: pt
Country: PT
--></g></svg>