<?xml version="1.0" encoding="UTF-8" standalone="no"?><svg xmlns="http://www.w3.org/2000/svg" xmlns:xlink="http://www.w3.org/1999/xlink" contentScriptType="application/ecmascript" contentStyleType="text/css" height="201.25px" preserveAspectRatio="none" style="width:750px;height:201px;" version="1.1" viewBox="0 0 750 201" width="750px" zoomAndPan="magnify"><defs><filter height="300%" id="f17uhufbhup4vl" width="300%" x="-1" y="-1"><feGaussianBlur result="blurOut" stdDeviation="2.5"/><feColorMatrix in="blurOut" result="blurOut2" type="matrix" values="0 0 0 0 0 0 0 0 0 0 0 0 0 0 0 0 0 0 .4 0"/><feOffset dx="5.0" dy="5.0" in="blurOut2" result="blurOut3"/><feBlend in="SourceGraphic" in2="blurOut3" mode="normal"/></filter></defs><g><!--MD5=[99b8db98afdc2c8404e39242ef4c1e65]
class Platform--><rect codeLine="5" fill="#FEFECE" filter="url(#f17uhufbhup4vl)" height="67.2949" id="Platform" style="stroke:#A80036;stroke-width:1.875;" width="127.5" x="8.75" y="43.125"/><ellipse cx="41" cy="63.125" fill="#ADD1B2" rx="13.75" ry="13.75" style="stroke:#A80036;stroke-width:1.25;"/><path d="M43.5,58.75 Q43.7539,58.125 44.0469,57.8125 Q44.3398,57.5 44.6719,57.5 Q45.2578,57.5 45.6289,57.8516 Q46,58.2031 46,59.0234 L46,60.9766 Q46,61.7969 45.6484,62.1484 Q45.2969,62.5 44.75,62.5 Q44.2617,62.5 43.9492,62.2852 Q43.6367,62.0703 43.5,61.5039 Q43.4414,61.1133 43.2266,60.8984 Q42.8359,60.4883 42.1328,60.2539 Q41.4297,60 40.7266,60 Q39.8477,60 39.1055,60.3516 Q38.3828,60.7031 37.8164,61.4844 Q37.25,62.2656 37.25,63.3398 L37.25,64.4922 Q37.25,65.7813 38.3047,66.6406 Q39.3594,67.5 41.2344,67.5 Q42.3477,67.5 43.1289,67.2461 Q43.5781,67.1094 44.0859,66.6602 Q44.418,66.4063 44.5938,66.3281 Q44.7695,66.25 44.9844,66.25 Q45.3945,66.25 45.6875,66.582 Q46,66.8945 46,67.3438 Q46,67.7734 45.5703,68.2813 Q44.9453,69.0234 43.9492,69.4336 Q42.6406,70 41.0391,70 Q39.1641,70 37.6602,69.2578 Q36.4492,68.6719 35.5898,67.4023 Q34.75,66.1328 34.75,64.6289 L34.75,63.2617 Q34.75,61.6992 35.4922,60.332 Q36.2539,58.9648 37.5625,58.2422 Q38.8906,57.5 40.375,57.5 Q41.2734,57.5 42.0547,57.8125 Q42.8359,58.125 43.5,58.75 Z " fill="#000000"/><text fill="#000000" font-family="sans-serif" font-size="15" lengthAdjust="spacingAndGlyphs" textLength="57.5" x="61.5" y="69.2627">Platform</text><line style="stroke:#A80036;stroke-width:1.875;" x1="10" x2="135" y1="83.125" y2="83.125"/><text fill="#000000" font-family="sans-serif" font-size="13.75" lengthAdjust="spacingAndGlyphs" textLength="112.5" x="16.25" y="102.3987">-String designation</text><!--MD5=[72136138052d025cffdce3c22fbd185f]
class Product--><rect codeLine="9" fill="#FEFECE" filter="url(#f17uhufbhup4vl)" height="136.4746" id="Product" style="stroke:#A80036;stroke-width:1.875;" width="147.5" x="585" y="8.75"/><ellipse cx="628.5" cy="28.75" fill="#ADD1B2" rx="13.75" ry="13.75" style="stroke:#A80036;stroke-width:1.25;"/><path d="M631,24.375 Q631.2539,23.75 631.5469,23.4375 Q631.8398,23.125 632.1719,23.125 Q632.7578,23.125 633.1289,23.4766 Q633.5,23.8281 633.5,24.6484 L633.5,26.6016 Q633.5,27.4219 633.1484,27.7734 Q632.7969,28.125 632.25,28.125 Q631.7617,28.125 631.4492,27.9102 Q631.1367,27.6953 631,27.1289 Q630.9414,26.7383 630.7266,26.5234 Q630.3359,26.1133 629.6328,25.8789 Q628.9297,25.625 628.2266,25.625 Q627.3477,25.625 626.6055,25.9766 Q625.8828,26.3281 625.3164,27.1094 Q624.75,27.8906 624.75,28.9648 L624.75,30.1172 Q624.75,31.4063 625.8047,32.2656 Q626.8594,33.125 628.7344,33.125 Q629.8477,33.125 630.6289,32.8711 Q631.0781,32.7344 631.5859,32.2852 Q631.918,32.0313 632.0938,31.9531 Q632.2695,31.875 632.4844,31.875 Q632.8945,31.875 633.1875,32.207 Q633.5,32.5195 633.5,32.9688 Q633.5,33.3984 633.0703,33.9063 Q632.4453,34.6484 631.4492,35.0586 Q630.1406,35.625 628.5391,35.625 Q626.6641,35.625 625.1602,34.8828 Q623.9492,34.2969 623.0898,33.0273 Q622.25,31.7578 622.25,30.2539 L622.25,28.8867 Q622.25,27.3242 622.9922,25.957 Q623.7539,24.5898 625.0625,23.8672 Q626.3906,23.125 627.875,23.125 Q628.7734,23.125 629.5547,23.4375 Q630.3359,23.75 631,24.375 Z " fill="#000000"/><text fill="#000000" font-family="sans-serif" font-size="15" lengthAdjust="spacingAndGlyphs" textLength="52.5" x="651.5" y="34.8877">Product</text><line style="stroke:#A80036;stroke-width:1.875;" x1="586.25" x2="731.25" y1="48.75" y2="48.75"/><text fill="#000000" font-family="sans-serif" font-size="13.75" lengthAdjust="spacingAndGlyphs" textLength="100" x="592.5" y="68.0237">-String productId</text><text fill="#000000" font-family="sans-serif" font-size="13.75" lengthAdjust="spacingAndGlyphs" textLength="76.25" x="592.5" y="85.3186">-String name</text><text fill="#000000" font-family="sans-serif" font-size="13.75" lengthAdjust="spacingAndGlyphs" textLength="110" x="592.5" y="102.6135">-String description</text><text fill="#000000" font-family="sans-serif" font-size="13.75" lengthAdjust="spacingAndGlyphs" textLength="121.25" x="592.5" y="119.9084">-Double unitaryPrice</text><text fill="#000000" font-family="sans-serif" font-size="13.75" lengthAdjust="spacingAndGlyphs" textLength="132.5" x="592.5" y="137.2034">-Double unitaryWeight</text><!--MD5=[3fd616f346a44cd59a91eb10b19e157c]
class User--><rect codeLine="17" fill="#FEFECE" filter="url(#f17uhufbhup4vl)" height="84.5898" id="User" style="stroke:#A80036;stroke-width:1.875;" width="121.25" x="332.5" y="99.375"/><ellipse cx="373.1875" cy="119.375" fill="#A9DCDF" rx="13.75" ry="13.75" style="stroke:#A80036;stroke-width:1.25;"/><path d="M375.375,121.25 L371.2539,121.25 L370.707,122.5 L370.707,122.5 L371.293,122.5 L371.9375,123.2813 L371.9375,123.75 L371.9375,124.2188 L371.293,125 L370.707,125 L368.3438,125 L367.582,125 L366.9375,124.2188 L366.9375,123.75 L366.9375,123.2813 L367.582,122.5 L368.3438,122.5 L371.2344,115 L370.1406,115 L368.832,115 L368.1875,114.2188 L368.1875,113.75 L368.1875,113.2813 L368.832,112.5 L370.1406,112.5 L374.7305,112.5 L378.0898,122.5 L378.793,122.5 L378.793,122.5 L379.4375,123.2813 L379.4375,123.75 L379.4375,124.2188 L378.793,125 L378.0898,125 L375.7266,125 L375.082,125 L374.4375,124.2188 L374.4375,123.75 L374.4375,123.2813 L375.082,122.5 L375.7266,122.5 L375.7266,122.5 L375.375,121.25 Z M374.6914,118.75 L373.1875,114.2773 L371.8984,118.75 L374.6914,118.75 Z " fill="#000000"/><text fill="#000000" font-family="sans-serif" font-size="15" font-style="italic" lengthAdjust="spacingAndGlyphs" textLength="32.5" x="395.5625" y="125.5127">User</text><line style="stroke:#A80036;stroke-width:1.875;" x1="333.75" x2="452.5" y1="139.375" y2="139.375"/><text fill="#000000" font-family="sans-serif" font-size="13.75" lengthAdjust="spacingAndGlyphs" textLength="73.75" x="340" y="158.6487">-String email</text><text fill="#000000" font-family="sans-serif" font-size="13.75" lengthAdjust="spacingAndGlyphs" textLength="106.25" x="340" y="175.9436">-String password</text><!--MD5=[057ee07bb7b2e2aedbcccdbc42ce2201]
link User to Product--><path codeLine="22" d="M453.75,127.2125 C492.5625,117.625 543.4875,105.0375 584.725,94.85 " fill="none" id="User-Product" style="stroke:#A80036;stroke-width:1.25;"/><text fill="#000000" font-family="sans-serif" font-size="16.25" lengthAdjust="spacingAndGlyphs" textLength="53.75" x="492.5" y="101.2439">creates</text><text fill="#000000" font-family="sans-serif" font-size="16.25" lengthAdjust="spacingAndGlyphs" textLength="8.75" x="463.7031" y="143.4325">1</text><text fill="#000000" font-family="sans-serif" font-size="16.25" lengthAdjust="spacingAndGlyphs" textLength="6.25" x="568.5902" y="115.317">*</text><!--MD5=[17a83e2477c2a4c4a0146b9f70505d3e]
link Platform to Product--><path codeLine="23" d="M136.6,68.7125 C148.9,67.425 161.7125,66.3 173.75,65.625 C339.6375,56.325 381.4375,67.825 547.5,73.125 C559.5375,73.5125 572.3,73.925 584.725,74.35 " fill="none" id="Platform-Product" style="stroke:#A80036;stroke-width:1.25;"/><polygon fill="#000000" points="344.9995,52.1733,333.7403,48.3578,333.6478,55.7045,344.9995,52.1733" style="stroke:#000000;stroke-width:1.25;"/><text fill="#000000" font-family="sans-serif" font-size="16.25" lengthAdjust="spacingAndGlyphs" textLength="102.5" x="350" y="58.7439">has registered</text><text fill="#000000" font-family="sans-serif" font-size="16.25" lengthAdjust="spacingAndGlyphs" textLength="8.75" x="146.2293" y="85.8851">1</text><text fill="#000000" font-family="sans-serif" font-size="16.25" lengthAdjust="spacingAndGlyphs" textLength="6.25" x="568.5902" y="92.1904">*</text><!--MD5=[0cdafcc0dad84b6396b2a91da681dfee]
link Platform to User--><path codeLine="24" d="M136.6,89.7125 C193.4625,101.3375 276.5875,118.325 332.3875,129.725 " fill="none" id="Platform-User" style="stroke:#A80036;stroke-width:1.25;"/><polygon fill="#000000" points="186.1234,88.3462,175.7816,82.483,174.3105,89.6816,186.1234,88.3462" style="stroke:#000000;stroke-width:1.25;"/><text fill="#000000" font-family="sans-serif" font-size="16.25" lengthAdjust="spacingAndGlyphs" textLength="102.5" x="191.25" y="93.7439">has registered</text><text fill="#000000" font-family="sans-serif" font-size="16.25" lengthAdjust="spacingAndGlyphs" textLength="8.75" x="146.2293" y="109.8382">1</text><text fill="#000000" font-family="sans-serif" font-size="16.25" lengthAdjust="spacingAndGlyphs" textLength="6.25" x="316.3586" y="146.3297">*</text><!--MD5=[67760c94e6ed54585e79ddd6ebefd5b3]
@startuml
skinparam classAttributeIconSize 0
hide methods
left to right direction

class Platform {
    -String designation
}

class Product{
    -String productId
    -String name
    -String description
    -Double unitaryPrice
    -Double unitaryWeight
}

abstract class User{
    -String email
    -String password
}

User "1" - - "*" Product : creates
Platform "1" - - "*" Product : has registered >
Platform "1" - - "*" User : has registered >

@enduml

PlantUML version 1.2020.23(Sun Dec 13 19:14:58 GMT 2020)
(GPL source distribution)
Java Runtime: OpenJDK Runtime Environment
JVM: OpenJDK 64-Bit Server VM
Default Encoding: Cp1252
Language: pt
Country: PT
--></g></svg>