<?xml version="1.0" encoding="UTF-8" standalone="no"?><svg xmlns="http://www.w3.org/2000/svg" xmlns:xlink="http://www.w3.org/1999/xlink" contentScriptType="application/ecmascript" contentStyleType="text/css" height="845px" preserveAspectRatio="none" style="width:760px;height:845px;" version="1.1" viewBox="0 0 760 845" width="760px" zoomAndPan="magnify"><defs><filter height="300%" id="fswiv6gntp30g" width="300%" x="-1" y="-1"><feGaussianBlur result="blurOut" stdDeviation="2.0"/><feColorMatrix in="blurOut" result="blurOut2" type="matrix" values="0 0 0 0 0 0 0 0 0 0 0 0 0 0 0 0 0 0 .4 0"/><feOffset dx="4.0" dy="4.0" in="blurOut2" result="blurOut3"/><feBlend in="SourceGraphic" in2="blurOut3" mode="normal"/></filter></defs><g><!--MD5=[9681dc6e01e10c6b4fe06895ae94f592]
cluster UI--><polygon fill="#DDDDDD" filter="url(#fswiv6gntp30g)" points="37,6,57,6,64,29.6094,201,29.6094,201,106,37,106,37,6" style="stroke:#000000;stroke-width:1.5;"/><line style="stroke:#000000;stroke-width:1.5;" x1="37" x2="64" y1="29.6094" y2="29.6094"/><text fill="#000000" font-family="sans-serif" font-size="14" font-weight="bold" lengthAdjust="spacing" textLength="14" x="41" y="22.5332">UI</text><!--MD5=[1f2cfc53d9d308f53762fd0fcbaa4873]
cluster Controller--><polygon fill="#DDDDDD" filter="url(#fswiv6gntp30g)" points="16,139,93,139,100,162.6094,222,162.6094,222,480,16,480,16,139" style="stroke:#000000;stroke-width:1.5;"/><line style="stroke:#000000;stroke-width:1.5;" x1="16" x2="100" y1="162.6094" y2="162.6094"/><text fill="#000000" font-family="sans-serif" font-size="14" font-weight="bold" lengthAdjust="spacing" textLength="71" x="20" y="155.5332">Controller</text><!--MD5=[15636c1ca4a123c16a2a1a8e90aca7a9]
cluster Model--><polygon fill="#DDDDDD" filter="url(#fswiv6gntp30g)" points="246,315,296,315,303,338.6094,565,338.6094,565,838,246,838,246,315" style="stroke:#000000;stroke-width:1.5;"/><line style="stroke:#000000;stroke-width:1.5;" x1="246" x2="303" y1="338.6094" y2="338.6094"/><text fill="#000000" font-family="sans-serif" font-size="14" font-weight="bold" lengthAdjust="spacing" textLength="44" x="250" y="331.5332">Model</text><!--MD5=[9dd75fd92da113d30380b27734fd2f01]
cluster Service--><polygon fill="#DDDDDD" filter="url(#fswiv6gntp30g)" points="387,359,447,359,454,382.6094,541,382.6094,541,487,387,487,387,359" style="stroke:#000000;stroke-width:1.5;"/><line style="stroke:#000000;stroke-width:1.5;" x1="387" x2="454" y1="382.6094" y2="382.6094"/><text fill="#000000" font-family="sans-serif" font-size="14" font-weight="bold" lengthAdjust="spacing" textLength="54" x="391" y="375.5332">Service</text><!--MD5=[f21b1f164e99c6b37934f23ad048ad54]
cluster Data--><polygon fill="#DDDDDD" filter="url(#fswiv6gntp30g)" points="589,139,626,139,633,162.6094,743,162.6094,743,480,589,480,589,139" style="stroke:#000000;stroke-width:1.5;"/><line style="stroke:#000000;stroke-width:1.5;" x1="589" x2="633" y1="162.6094" y2="162.6094"/><text fill="#000000" font-family="sans-serif" font-size="14" font-weight="bold" lengthAdjust="spacing" textLength="31" x="593" y="155.5332">Data</text><!--MD5=[ae6f9ac2010b8947c3799c71bd42b5d8]
class RemoveCourierUI--><rect codeLine="4" fill="#FEFECE" filter="url(#fswiv6gntp30g)" height="48" id="RemoveCourierUI" style="stroke:#A80036;stroke-width:1.5;" width="131" x="53.5" y="42"/><ellipse cx="68.5" cy="58" fill="#ADD1B2" rx="11" ry="11" style="stroke:#A80036;stroke-width:1.0;"/><path d="M70.5,54.5 Q70.7031,54 70.9375,53.75 Q71.1719,53.5 71.4375,53.5 Q71.9063,53.5 72.2031,53.7813 Q72.5,54.0625 72.5,54.7188 L72.5,56.2813 Q72.5,56.9375 72.2188,57.2188 Q71.9375,57.5 71.5,57.5 Q71.1094,57.5 70.8594,57.3281 Q70.6094,57.1563 70.5,56.7031 Q70.4531,56.3906 70.2813,56.2188 Q69.9688,55.8906 69.4063,55.7031 Q68.8438,55.5 68.2813,55.5 Q67.5781,55.5 66.9844,55.7813 Q66.4063,56.0625 65.9531,56.6875 Q65.5,57.3125 65.5,58.1719 L65.5,59.0938 Q65.5,60.125 66.3438,60.8125 Q67.1875,61.5 68.6875,61.5 Q69.5781,61.5 70.2031,61.2969 Q70.5625,61.1875 70.9688,60.8281 Q71.2344,60.625 71.375,60.5625 Q71.5156,60.5 71.6875,60.5 Q72.0156,60.5 72.25,60.7656 Q72.5,61.0156 72.5,61.375 Q72.5,61.7188 72.1563,62.125 Q71.6563,62.7188 70.8594,63.0469 Q69.8125,63.5 68.5313,63.5 Q67.0313,63.5 65.8281,62.9063 Q64.8594,62.4375 64.1719,61.4219 Q63.5,60.4063 63.5,59.2031 L63.5,58.1094 Q63.5,56.8594 64.0938,55.7656 Q64.7031,54.6719 65.75,54.0938 Q66.8125,53.5 68,53.5 Q68.7188,53.5 69.3438,53.75 Q69.9688,54 70.5,54.5 Z " fill="#000000"/><text fill="#000000" font-family="sans-serif" font-size="12" lengthAdjust="spacing" textLength="99" x="82.5" y="62.9102">RemoveCourierUI</text><line style="stroke:#A80036;stroke-width:1.5;" x1="54.5" x2="183.5" y1="74" y2="74"/><line style="stroke:#A80036;stroke-width:1.5;" x1="54.5" x2="183.5" y1="82" y2="82"/><!--MD5=[88f0956f691d2f7faf4f022863c4fc06]
class RemoveCourierController--><rect codeLine="9" fill="#FEFECE" filter="url(#fswiv6gntp30g)" height="75.6719" id="RemoveCourierController" style="stroke:#A80036;stroke-width:1.5;" width="173" x="32.5" y="175"/><ellipse cx="47.5" cy="191" fill="#ADD1B2" rx="11" ry="11" style="stroke:#A80036;stroke-width:1.0;"/><path d="M49.5,187.5 Q49.7031,187 49.9375,186.75 Q50.1719,186.5 50.4375,186.5 Q50.9063,186.5 51.2031,186.7813 Q51.5,187.0625 51.5,187.7188 L51.5,189.2813 Q51.5,189.9375 51.2188,190.2188 Q50.9375,190.5 50.5,190.5 Q50.1094,190.5 49.8594,190.3281 Q49.6094,190.1563 49.5,189.7031 Q49.4531,189.3906 49.2813,189.2188 Q48.9688,188.8906 48.4063,188.7031 Q47.8438,188.5 47.2813,188.5 Q46.5781,188.5 45.9844,188.7813 Q45.4063,189.0625 44.9531,189.6875 Q44.5,190.3125 44.5,191.1719 L44.5,192.0938 Q44.5,193.125 45.3438,193.8125 Q46.1875,194.5 47.6875,194.5 Q48.5781,194.5 49.2031,194.2969 Q49.5625,194.1875 49.9688,193.8281 Q50.2344,193.625 50.375,193.5625 Q50.5156,193.5 50.6875,193.5 Q51.0156,193.5 51.25,193.7656 Q51.5,194.0156 51.5,194.375 Q51.5,194.7188 51.1563,195.125 Q50.6563,195.7188 49.8594,196.0469 Q48.8125,196.5 47.5313,196.5 Q46.0313,196.5 44.8281,195.9063 Q43.8594,195.4375 43.1719,194.4219 Q42.5,193.4063 42.5,192.2031 L42.5,191.1094 Q42.5,189.8594 43.0938,188.7656 Q43.7031,187.6719 44.75,187.0938 Q45.8125,186.5 47,186.5 Q47.7188,186.5 48.3438,186.75 Q48.9688,187 49.5,187.5 Z " fill="#000000"/><text fill="#000000" font-family="sans-serif" font-size="12" lengthAdjust="spacing" textLength="141" x="61.5" y="195.9102">RemoveCourierController</text><line style="stroke:#A80036;stroke-width:1.5;" x1="33.5" x2="204.5" y1="207" y2="207"/><line style="stroke:#A80036;stroke-width:1.5;" x1="33.5" x2="204.5" y1="215" y2="215"/><text fill="#000000" font-family="sans-serif" font-size="11" lengthAdjust="spacing" textLength="110" x="38.5" y="230.4189">+validateCourier(email)</text><text fill="#000000" font-family="sans-serif" font-size="11" lengthAdjust="spacing" textLength="109" x="38.5" y="244.2549">+removeCourier(email)</text><!--MD5=[e45a4727c47b726c25e081782e8bc183]
class ApplicationPOT--><rect codeLine="14" fill="#FEFECE" filter="url(#fswiv6gntp30g)" height="61.8359" id="ApplicationPOT" style="stroke:#A80036;stroke-width:1.5;" width="116" x="61" y="402"/><ellipse cx="76" cy="418" fill="#ADD1B2" rx="11" ry="11" style="stroke:#A80036;stroke-width:1.0;"/><path d="M78,414.5 Q78.2031,414 78.4375,413.75 Q78.6719,413.5 78.9375,413.5 Q79.4063,413.5 79.7031,413.7813 Q80,414.0625 80,414.7188 L80,416.2813 Q80,416.9375 79.7188,417.2188 Q79.4375,417.5 79,417.5 Q78.6094,417.5 78.3594,417.3281 Q78.1094,417.1563 78,416.7031 Q77.9531,416.3906 77.7813,416.2188 Q77.4688,415.8906 76.9063,415.7031 Q76.3438,415.5 75.7813,415.5 Q75.0781,415.5 74.4844,415.7813 Q73.9063,416.0625 73.4531,416.6875 Q73,417.3125 73,418.1719 L73,419.0938 Q73,420.125 73.8438,420.8125 Q74.6875,421.5 76.1875,421.5 Q77.0781,421.5 77.7031,421.2969 Q78.0625,421.1875 78.4688,420.8281 Q78.7344,420.625 78.875,420.5625 Q79.0156,420.5 79.1875,420.5 Q79.5156,420.5 79.75,420.7656 Q80,421.0156 80,421.375 Q80,421.7188 79.6563,422.125 Q79.1563,422.7188 78.3594,423.0469 Q77.3125,423.5 76.0313,423.5 Q74.5313,423.5 73.3281,422.9063 Q72.3594,422.4375 71.6719,421.4219 Q71,420.4063 71,419.2031 L71,418.1094 Q71,416.8594 71.5938,415.7656 Q72.2031,414.6719 73.25,414.0938 Q74.3125,413.5 75.5,413.5 Q76.2188,413.5 76.8438,413.75 Q77.4688,414 78,414.5 Z " fill="#000000"/><text fill="#000000" font-family="sans-serif" font-size="12" lengthAdjust="spacing" textLength="84" x="90" y="422.9102">ApplicationPOT</text><line style="stroke:#A80036;stroke-width:1.5;" x1="62" x2="176" y1="434" y2="434"/><line style="stroke:#A80036;stroke-width:1.5;" x1="62" x2="176" y1="442" y2="442"/><text fill="#000000" font-family="sans-serif" font-size="11" lengthAdjust="spacing" textLength="99" x="67" y="457.4189">+static getInstance()</text><!--MD5=[3fd616f346a44cd59a91eb10b19e157c]
class User--><rect codeLine="34" fill="#FEFECE" filter="url(#fswiv6gntp30g)" height="117.1797" id="User" style="stroke:#A80036;stroke-width:1.5;" width="97" x="293.5" y="705"/><ellipse cx="326.05" cy="721" fill="#A9DCDF" rx="11" ry="11" style="stroke:#A80036;stroke-width:1.0;"/><path d="M327.8,722.5 L324.5031,722.5 L324.0656,723.5 L324.0656,723.5 L324.5344,723.5 L325.05,724.125 L325.05,724.5 L325.05,724.875 L324.5344,725.5 L324.0656,725.5 L322.175,725.5 L321.5656,725.5 L321.05,724.875 L321.05,724.5 L321.05,724.125 L321.5656,723.5 L322.175,723.5 L324.4875,717.5 L323.6125,717.5 L322.5656,717.5 L322.05,716.875 L322.05,716.5 L322.05,716.125 L322.5656,715.5 L323.6125,715.5 L327.2844,715.5 L329.9719,723.5 L330.5344,723.5 L330.5344,723.5 L331.05,724.125 L331.05,724.5 L331.05,724.875 L330.5344,725.5 L329.9719,725.5 L328.0813,725.5 L327.5656,725.5 L327.05,724.875 L327.05,724.5 L327.05,724.125 L327.5656,723.5 L328.0813,723.5 L328.0813,723.5 L327.8,722.5 Z M327.2531,720.5 L326.05,716.9219 L325.0188,720.5 L327.2531,720.5 Z " fill="#000000"/><text fill="#000000" font-family="sans-serif" font-size="12" font-style="italic" lengthAdjust="spacing" textLength="26" x="343.95" y="725.9102">User</text><line style="stroke:#A80036;stroke-width:1.5;" x1="294.5" x2="389.5" y1="737" y2="737"/><text fill="#000000" font-family="sans-serif" font-size="11" lengthAdjust="spacing" textLength="48" x="299.5" y="752.4189">-Integer Id</text><text fill="#000000" font-family="sans-serif" font-size="11" lengthAdjust="spacing" textLength="59" x="299.5" y="766.2549">-String email</text><text fill="#000000" font-family="sans-serif" font-size="11" lengthAdjust="spacing" textLength="85" x="299.5" y="780.0908">-String password</text><text fill="#000000" font-family="sans-serif" font-size="11" lengthAdjust="spacing" textLength="61" x="299.5" y="793.9268">-String name</text><text fill="#000000" font-family="sans-serif" font-size="11" lengthAdjust="spacing" textLength="52" x="299.5" y="807.7627">-Integer nif</text><line style="stroke:#A80036;stroke-width:1.5;" x1="294.5" x2="389.5" y1="814.1797" y2="814.1797"/><!--MD5=[c6a2171c11447acbe08a3dfeee0e1710]
class Courier--><rect codeLine="42" fill="#FEFECE" filter="url(#fswiv6gntp30g)" height="75.6719" id="Courier" style="stroke:#A80036;stroke-width:1.5;" width="73" x="408.5" y="551"/><ellipse cx="423.5" cy="567" fill="#ADD1B2" rx="11" ry="11" style="stroke:#A80036;stroke-width:1.0;"/><path d="M425.5,563.5 Q425.7031,563 425.9375,562.75 Q426.1719,562.5 426.4375,562.5 Q426.9063,562.5 427.2031,562.7813 Q427.5,563.0625 427.5,563.7188 L427.5,565.2813 Q427.5,565.9375 427.2188,566.2188 Q426.9375,566.5 426.5,566.5 Q426.1094,566.5 425.8594,566.3281 Q425.6094,566.1563 425.5,565.7031 Q425.4531,565.3906 425.2813,565.2188 Q424.9688,564.8906 424.4063,564.7031 Q423.8438,564.5 423.2813,564.5 Q422.5781,564.5 421.9844,564.7813 Q421.4063,565.0625 420.9531,565.6875 Q420.5,566.3125 420.5,567.1719 L420.5,568.0938 Q420.5,569.125 421.3438,569.8125 Q422.1875,570.5 423.6875,570.5 Q424.5781,570.5 425.2031,570.2969 Q425.5625,570.1875 425.9688,569.8281 Q426.2344,569.625 426.375,569.5625 Q426.5156,569.5 426.6875,569.5 Q427.0156,569.5 427.25,569.7656 Q427.5,570.0156 427.5,570.375 Q427.5,570.7188 427.1563,571.125 Q426.6563,571.7188 425.8594,572.0469 Q424.8125,572.5 423.5313,572.5 Q422.0313,572.5 420.8281,571.9063 Q419.8594,571.4375 419.1719,570.4219 Q418.5,569.4063 418.5,568.2031 L418.5,567.1094 Q418.5,565.8594 419.0938,564.7656 Q419.7031,563.6719 420.75,563.0938 Q421.8125,562.5 423,562.5 Q423.7188,562.5 424.3438,562.75 Q424.9688,563 425.5,563.5 Z " fill="#000000"/><text fill="#000000" font-family="sans-serif" font-size="12" lengthAdjust="spacing" textLength="41" x="437.5" y="571.9102">Courier</text><line style="stroke:#A80036;stroke-width:1.5;" x1="409.5" x2="480.5" y1="583" y2="583"/><text fill="#000000" font-family="sans-serif" font-size="11" lengthAdjust="spacing" textLength="48" x="414.5" y="598.4189">-Integer id</text><text fill="#000000" font-family="sans-serif" font-size="11" lengthAdjust="spacing" textLength="55" x="414.5" y="612.2549">-String iban</text><line style="stroke:#A80036;stroke-width:1.5;" x1="409.5" x2="480.5" y1="618.6719" y2="618.6719"/><!--MD5=[da547346deef918ea16944ba046651ef]
class Administrator--><rect codeLine="47" fill="#FEFECE" filter="url(#fswiv6gntp30g)" height="48" id="Administrator" style="stroke:#A80036;stroke-width:1.5;" width="105" x="262.5" y="409"/><ellipse cx="277.5" cy="425" fill="#ADD1B2" rx="11" ry="11" style="stroke:#A80036;stroke-width:1.0;"/><path d="M279.5,421.5 Q279.7031,421 279.9375,420.75 Q280.1719,420.5 280.4375,420.5 Q280.9063,420.5 281.2031,420.7813 Q281.5,421.0625 281.5,421.7188 L281.5,423.2813 Q281.5,423.9375 281.2188,424.2188 Q280.9375,424.5 280.5,424.5 Q280.1094,424.5 279.8594,424.3281 Q279.6094,424.1563 279.5,423.7031 Q279.4531,423.3906 279.2813,423.2188 Q278.9688,422.8906 278.4063,422.7031 Q277.8438,422.5 277.2813,422.5 Q276.5781,422.5 275.9844,422.7813 Q275.4063,423.0625 274.9531,423.6875 Q274.5,424.3125 274.5,425.1719 L274.5,426.0938 Q274.5,427.125 275.3438,427.8125 Q276.1875,428.5 277.6875,428.5 Q278.5781,428.5 279.2031,428.2969 Q279.5625,428.1875 279.9688,427.8281 Q280.2344,427.625 280.375,427.5625 Q280.5156,427.5 280.6875,427.5 Q281.0156,427.5 281.25,427.7656 Q281.5,428.0156 281.5,428.375 Q281.5,428.7188 281.1563,429.125 Q280.6563,429.7188 279.8594,430.0469 Q278.8125,430.5 277.5313,430.5 Q276.0313,430.5 274.8281,429.9063 Q273.8594,429.4375 273.1719,428.4219 Q272.5,427.4063 272.5,426.2031 L272.5,425.1094 Q272.5,423.8594 273.0938,422.7656 Q273.7031,421.6719 274.75,421.0938 Q275.8125,420.5 277,420.5 Q277.7188,420.5 278.3438,420.75 Q278.9688,421 279.5,421.5 Z " fill="#000000"/><text fill="#000000" font-family="sans-serif" font-size="12" lengthAdjust="spacing" textLength="73" x="291.5" y="429.9102">Administrator</text><line style="stroke:#A80036;stroke-width:1.5;" x1="263.5" x2="366.5" y1="441" y2="441"/><line style="stroke:#A80036;stroke-width:1.5;" x1="263.5" x2="366.5" y1="449" y2="449"/><!--MD5=[7f2a9fafcebe4f099f71398fd3e2ed00]
class Pharmacy--><rect codeLine="51" fill="#FEFECE" filter="url(#fswiv6gntp30g)" height="75.6719" id="Pharmacy" style="stroke:#A80036;stroke-width:1.5;" width="87" x="434.5" y="725.5"/><ellipse cx="449.5" cy="741.5" fill="#ADD1B2" rx="11" ry="11" style="stroke:#A80036;stroke-width:1.0;"/><path d="M451.5,738 Q451.7031,737.5 451.9375,737.25 Q452.1719,737 452.4375,737 Q452.9063,737 453.2031,737.2813 Q453.5,737.5625 453.5,738.2188 L453.5,739.7813 Q453.5,740.4375 453.2188,740.7188 Q452.9375,741 452.5,741 Q452.1094,741 451.8594,740.8281 Q451.6094,740.6563 451.5,740.2031 Q451.4531,739.8906 451.2813,739.7188 Q450.9688,739.3906 450.4063,739.2031 Q449.8438,739 449.2813,739 Q448.5781,739 447.9844,739.2813 Q447.4063,739.5625 446.9531,740.1875 Q446.5,740.8125 446.5,741.6719 L446.5,742.5938 Q446.5,743.625 447.3438,744.3125 Q448.1875,745 449.6875,745 Q450.5781,745 451.2031,744.7969 Q451.5625,744.6875 451.9688,744.3281 Q452.2344,744.125 452.375,744.0625 Q452.5156,744 452.6875,744 Q453.0156,744 453.25,744.2656 Q453.5,744.5156 453.5,744.875 Q453.5,745.2188 453.1563,745.625 Q452.6563,746.2188 451.8594,746.5469 Q450.8125,747 449.5313,747 Q448.0313,747 446.8281,746.4063 Q445.8594,745.9375 445.1719,744.9219 Q444.5,743.9063 444.5,742.7031 L444.5,741.6094 Q444.5,740.3594 445.0938,739.2656 Q445.7031,738.1719 446.75,737.5938 Q447.8125,737 449,737 Q449.7188,737 450.3438,737.25 Q450.9688,737.5 451.5,738 Z " fill="#000000"/><text fill="#000000" font-family="sans-serif" font-size="12" lengthAdjust="spacing" textLength="55" x="463.5" y="746.4102">Pharmacy</text><line style="stroke:#A80036;stroke-width:1.5;" x1="435.5" x2="520.5" y1="757.5" y2="757.5"/><text fill="#000000" font-family="sans-serif" font-size="11" lengthAdjust="spacing" textLength="26" x="440.5" y="772.9189">-int id</text><text fill="#000000" font-family="sans-serif" font-size="11" lengthAdjust="spacing" textLength="61" x="440.5" y="786.7549">-String name</text><line style="stroke:#A80036;stroke-width:1.5;" x1="435.5" x2="520.5" y1="793.1719" y2="793.1719"/><!--MD5=[3b6a694fa07a791a99958c0d423d4693]
class CourierService--><rect codeLine="23" fill="#FEFECE" filter="url(#fswiv6gntp30g)" height="75.6719" id="CourierService" style="stroke:#A80036;stroke-width:1.5;" width="122" x="403" y="395"/><ellipse cx="422.05" cy="411" fill="#ADD1B2" rx="11" ry="11" style="stroke:#A80036;stroke-width:1.0;"/><path d="M424.05,407.5 Q424.2531,407 424.4875,406.75 Q424.7219,406.5 424.9875,406.5 Q425.4563,406.5 425.7531,406.7813 Q426.05,407.0625 426.05,407.7188 L426.05,409.2813 Q426.05,409.9375 425.7688,410.2188 Q425.4875,410.5 425.05,410.5 Q424.6594,410.5 424.4094,410.3281 Q424.1594,410.1563 424.05,409.7031 Q424.0031,409.3906 423.8313,409.2188 Q423.5188,408.8906 422.9563,408.7031 Q422.3938,408.5 421.8313,408.5 Q421.1281,408.5 420.5344,408.7813 Q419.9563,409.0625 419.5031,409.6875 Q419.05,410.3125 419.05,411.1719 L419.05,412.0938 Q419.05,413.125 419.8938,413.8125 Q420.7375,414.5 422.2375,414.5 Q423.1281,414.5 423.7531,414.2969 Q424.1125,414.1875 424.5188,413.8281 Q424.7844,413.625 424.925,413.5625 Q425.0656,413.5 425.2375,413.5 Q425.5656,413.5 425.8,413.7656 Q426.05,414.0156 426.05,414.375 Q426.05,414.7188 425.7063,415.125 Q425.2063,415.7188 424.4094,416.0469 Q423.3625,416.5 422.0813,416.5 Q420.5813,416.5 419.3781,415.9063 Q418.4094,415.4375 417.7219,414.4219 Q417.05,413.4063 417.05,412.2031 L417.05,411.1094 Q417.05,409.8594 417.6438,408.7656 Q418.2531,407.6719 419.3,407.0938 Q420.3625,406.5 421.55,406.5 Q422.2688,406.5 422.8938,406.75 Q423.5188,407 424.05,407.5 Z " fill="#000000"/><text fill="#000000" font-family="sans-serif" font-size="12" lengthAdjust="spacing" textLength="81" x="436.95" y="415.9102">CourierService</text><line style="stroke:#A80036;stroke-width:1.5;" x1="404" x2="524" y1="427" y2="427"/><line style="stroke:#A80036;stroke-width:1.5;" x1="404" x2="524" y1="435" y2="435"/><text fill="#000000" font-family="sans-serif" font-size="11" lengthAdjust="spacing" textLength="110" x="409" y="450.4189">+validateCourier(email)</text><text fill="#000000" font-family="sans-serif" font-size="11" lengthAdjust="spacing" textLength="109" x="409" y="464.2549">+removeCourier(email)</text><!--MD5=[4b2d61224b33971326a22fe5d809d926]
class DataHandler--><rect codeLine="60" fill="#FEFECE" filter="url(#fswiv6gntp30g)" height="75.6719" id="DataHandler" style="stroke:#A80036;stroke-width:1.5;" width="104" x="614" y="175"/><ellipse cx="629.9" cy="191" fill="#ADD1B2" rx="11" ry="11" style="stroke:#A80036;stroke-width:1.0;"/><path d="M631.9,187.5 Q632.1031,187 632.3375,186.75 Q632.5719,186.5 632.8375,186.5 Q633.3063,186.5 633.6031,186.7813 Q633.9,187.0625 633.9,187.7188 L633.9,189.2813 Q633.9,189.9375 633.6188,190.2188 Q633.3375,190.5 632.9,190.5 Q632.5094,190.5 632.2594,190.3281 Q632.0094,190.1563 631.9,189.7031 Q631.8531,189.3906 631.6813,189.2188 Q631.3688,188.8906 630.8063,188.7031 Q630.2438,188.5 629.6813,188.5 Q628.9781,188.5 628.3844,188.7813 Q627.8063,189.0625 627.3531,189.6875 Q626.9,190.3125 626.9,191.1719 L626.9,192.0938 Q626.9,193.125 627.7438,193.8125 Q628.5875,194.5 630.0875,194.5 Q630.9781,194.5 631.6031,194.2969 Q631.9625,194.1875 632.3688,193.8281 Q632.6344,193.625 632.775,193.5625 Q632.9156,193.5 633.0875,193.5 Q633.4156,193.5 633.65,193.7656 Q633.9,194.0156 633.9,194.375 Q633.9,194.7188 633.5563,195.125 Q633.0563,195.7188 632.2594,196.0469 Q631.2125,196.5 629.9313,196.5 Q628.4313,196.5 627.2281,195.9063 Q626.2594,195.4375 625.5719,194.4219 Q624.9,193.4063 624.9,192.2031 L624.9,191.1094 Q624.9,189.8594 625.4938,188.7656 Q626.1031,187.6719 627.15,187.0938 Q628.2125,186.5 629.4,186.5 Q630.1188,186.5 630.7438,186.75 Q631.3688,187 631.9,187.5 Z " fill="#000000"/><text fill="#000000" font-family="sans-serif" font-size="12" lengthAdjust="spacing" textLength="70" x="644.1" y="195.9102">DataHandler</text><line style="stroke:#A80036;stroke-width:1.5;" x1="615" x2="717" y1="207" y2="207"/><line style="stroke:#A80036;stroke-width:1.5;" x1="615" x2="717" y1="215" y2="215"/><text fill="#000000" font-family="sans-serif" font-size="11" lengthAdjust="spacing" textLength="92" x="620" y="230.4189">+openConnection()</text><text fill="#000000" font-family="sans-serif" font-size="11" lengthAdjust="spacing" textLength="52" x="620" y="244.2549">+closeAll()</text><!--MD5=[17a3ebf5611c1ba9c6fd429f5d0d77a4]
class CourierDB--><rect codeLine="73" fill="#FEFECE" filter="url(#fswiv6gntp30g)" height="61.8359" id="CourierDB" style="stroke:#A80036;stroke-width:1.5;" width="121" x="605.5" y="402"/><ellipse cx="634.45" cy="418" fill="#ADD1B2" rx="11" ry="11" style="stroke:#A80036;stroke-width:1.0;"/><path d="M636.45,414.5 Q636.6531,414 636.8875,413.75 Q637.1219,413.5 637.3875,413.5 Q637.8563,413.5 638.1531,413.7813 Q638.45,414.0625 638.45,414.7188 L638.45,416.2813 Q638.45,416.9375 638.1688,417.2188 Q637.8875,417.5 637.45,417.5 Q637.0594,417.5 636.8094,417.3281 Q636.5594,417.1563 636.45,416.7031 Q636.4031,416.3906 636.2313,416.2188 Q635.9188,415.8906 635.3563,415.7031 Q634.7938,415.5 634.2313,415.5 Q633.5281,415.5 632.9344,415.7813 Q632.3563,416.0625 631.9031,416.6875 Q631.45,417.3125 631.45,418.1719 L631.45,419.0938 Q631.45,420.125 632.2938,420.8125 Q633.1375,421.5 634.6375,421.5 Q635.5281,421.5 636.1531,421.2969 Q636.5125,421.1875 636.9188,420.8281 Q637.1844,420.625 637.325,420.5625 Q637.4656,420.5 637.6375,420.5 Q637.9656,420.5 638.2,420.7656 Q638.45,421.0156 638.45,421.375 Q638.45,421.7188 638.1063,422.125 Q637.6063,422.7188 636.8094,423.0469 Q635.7625,423.5 634.4813,423.5 Q632.9813,423.5 631.7781,422.9063 Q630.8094,422.4375 630.1219,421.4219 Q629.45,420.4063 629.45,419.2031 L629.45,418.1094 Q629.45,416.8594 630.0438,415.7656 Q630.6531,414.6719 631.7,414.0938 Q632.7625,413.5 633.95,413.5 Q634.6688,413.5 635.2938,413.75 Q635.9188,414 636.45,414.5 Z " fill="#000000"/><text fill="#000000" font-family="sans-serif" font-size="12" lengthAdjust="spacing" textLength="58" x="651.55" y="422.9102">CourierDB</text><line style="stroke:#A80036;stroke-width:1.5;" x1="606.5" x2="725.5" y1="434" y2="434"/><line style="stroke:#A80036;stroke-width:1.5;" x1="606.5" x2="725.5" y1="442" y2="442"/><text fill="#000000" font-family="sans-serif" font-size="11" lengthAdjust="spacing" textLength="109" x="611.5" y="457.4189">+removeCourier(email)</text><!--MD5=[f50ff5e4cd64f259303fc83dba1819fc]
entity database--><path d="M581.5,575.5 C581.5,565.5 621,565.5 621,565.5 C621,565.5 660.5,565.5 660.5,575.5 L660.5,602.1094 C660.5,612.1094 621,612.1094 621,612.1094 C621,612.1094 581.5,612.1094 581.5,602.1094 L581.5,575.5 " fill="#FFFFFF" filter="url(#fswiv6gntp30g)" style="stroke:#000000;stroke-width:1.5;"/><path d="M581.5,575.5 C581.5,585.5 621,585.5 621,585.5 C621,585.5 660.5,585.5 660.5,575.5 " fill="none" style="stroke:#000000;stroke-width:1.5;"/><text fill="#000000" font-family="sans-serif" font-size="14" lengthAdjust="spacing" textLength="59" x="591.5" y="604.0332">database</text><!--MD5=[480dfbb70e72da71ac7a75a9e761c5f4]
reverse link DataHandler to CourierDB--><path d="M666,271.64 C666,313.39 666,368.16 666,401.68 " fill="none" id="DataHandler-backto-CourierDB" style="stroke:#A80036;stroke-width:1.0;"/><polygon fill="none" points="659,271.48,666,251.48,673,271.48,659,271.48" style="stroke:#A80036;stroke-width:1.0;"/><!--MD5=[2b5c5fe04d366ce8e4f3d1277afcee4b]
link RemoveCourierController to ApplicationPOT--><path codeLine="75" d="M119,251.48 C119,292.14 119,356.57 119,396.46 " fill="none" id="RemoveCourierController-to-ApplicationPOT" style="stroke:#A80036;stroke-width:1.0;stroke-dasharray:7.0,7.0;"/><polygon fill="#A80036" points="119,401.68,123,392.68,119,396.68,115,392.68,119,401.68" style="stroke:#A80036;stroke-width:1.0;"/><!--MD5=[61cd806eb4322ea6b3f3872ae9a99bd5]
link RemoveCourierUI to RemoveCourierController--><path codeLine="76" d="M119,90.3 C119,111.69 119,143.89 119,169.81 " fill="none" id="RemoveCourierUI-to-RemoveCourierController" style="stroke:#A80036;stroke-width:1.0;stroke-dasharray:7.0,7.0;"/><polygon fill="#A80036" points="119,174.9,123,165.9,119,169.9,115,165.9,119,174.9" style="stroke:#A80036;stroke-width:1.0;"/><!--MD5=[29fcb56d3ede9cf2a1ffa8cefd16b536]
link RemoveCourierController to CourierService--><path codeLine="77" d="M205.76,225.32 C265.81,237.02 344.43,260.48 399,307 C424.41,328.66 441.2,362.76 451.34,389.88 " fill="none" id="RemoveCourierController-to-CourierService" style="stroke:#A80036;stroke-width:1.0;stroke-dasharray:7.0,7.0;"/><polygon fill="#A80036" points="453.16,394.86,453.8339,385.0342,451.4467,390.1627,446.3182,387.7755,453.16,394.86" style="stroke:#A80036;stroke-width:1.0;"/><text fill="#000000" font-family="sans-serif" font-size="13" lengthAdjust="spacing" textLength="21" x="388" y="295.4951">has</text><!--MD5=[89b25d1c9bf6553681a153895b89905c]
link CourierService to CourierDB--><path codeLine="78" d="M525.15,433 C548.9,433 576.14,433 600.29,433 " fill="none" id="CourierService-to-CourierDB" style="stroke:#A80036;stroke-width:1.0;stroke-dasharray:7.0,7.0;"/><polygon fill="#A80036" points="605.4,433,596.4,429,600.4,433,596.4,437,605.4,433" style="stroke:#A80036;stroke-width:1.0;"/><text fill="#000000" font-family="sans-serif" font-size="13" lengthAdjust="spacing" textLength="21" x="554.75" y="426.4951">has</text><!--MD5=[6186e8b4cee7708710b6e27e9dc51b19]
link CourierDB to database--><path codeLine="79" d="M657.22,464.06 C649.08,491.91 637.07,533.01 629.14,560.14 " fill="none" id="CourierDB-to-database" style="stroke:#A80036;stroke-width:1.0;"/><polygon fill="#A80036" points="627.71,565.04,634.07,557.52,629.11,560.24,626.39,555.28,627.71,565.04" style="stroke:#A80036;stroke-width:1.0;"/><text fill="#000000" font-family="sans-serif" font-size="13" lengthAdjust="spacing" textLength="53" x="645" y="517.4951">manages</text><!--MD5=[91e1cddbbc24b623a543ddae479b49e2]
link database to Administrator--><path codeLine="81" d="M589.46,565.41 C581.67,560.32 573.2,555.19 565,551 C511.27,523.53 496.34,518.42 438,503 C415.82,497.14 407.86,504.55 387,495 C367.49,486.07 349.09,470.3 335.78,457.04 " fill="none" id="database-Administrator" style="stroke:#A80036;stroke-width:1.0;"/><polygon fill="#000000" points="499.402,510.2115,506.5653,516.4675,508.8744,511.0622,499.402,510.2115" style="stroke:#000000;stroke-width:1.0;"/><text fill="#000000" font-family="sans-serif" font-size="13" lengthAdjust="spacing" textLength="82" x="513" y="517.4951">has registered</text><text fill="#000000" font-family="sans-serif" font-size="13" lengthAdjust="spacing" textLength="7" x="573.043" y="554.515">1</text><text fill="#000000" font-family="sans-serif" font-size="13" lengthAdjust="spacing" textLength="7" x="332.992" y="478.3877">1</text><!--MD5=[19ec02e7a53843b8ce567ea50e78d86c]
link database to Pharmacy--><path codeLine="82" d="M604,612.67 C590.88,629.96 572.14,654.27 555,675 C541.07,691.84 525.19,710.05 511.49,725.47 " fill="none" id="database-Pharmacy" style="stroke:#A80036;stroke-width:1.0;"/><polygon fill="#000000" points="569.8293,670.0419,577.8376,664.9117,573.2927,661.1844,569.8293,670.0419" style="stroke:#000000;stroke-width:1.0;"/><text fill="#000000" font-family="sans-serif" font-size="13" lengthAdjust="spacing" textLength="82" x="582" y="671.4951">has registered</text><text fill="#000000" font-family="sans-serif" font-size="13" lengthAdjust="spacing" textLength="7" x="592.2594" y="633.5746">1</text><text fill="#000000" font-family="sans-serif" font-size="13" lengthAdjust="spacing" textLength="7" x="510.0194" y="714.541">1</text><!--MD5=[ee27bb4a35795612dd183df45031e556]
link Administrator to Courier--><path codeLine="83" d="M327.74,457.31 C338.21,475.52 354.04,501 371,521 C382.1,534.08 395.68,547.07 408.16,558.07 " fill="none" id="Administrator-Courier" style="stroke:#A80036;stroke-width:1.0;"/><polygon fill="#000000" points="379.119,516.0837,375.7737,507.1809,371.1796,510.8475,379.119,516.0837" style="stroke:#000000;stroke-width:1.0;"/><text fill="#000000" font-family="sans-serif" font-size="13" lengthAdjust="spacing" textLength="48" x="385" y="517.4951">removes</text><text fill="#000000" font-family="sans-serif" font-size="13" lengthAdjust="spacing" textLength="7" x="322.8768" y="478.3175">1</text><text fill="#000000" font-family="sans-serif" font-size="13" lengthAdjust="spacing" textLength="20" x="380.4021" y="549.1736">1..*</text><!--MD5=[771c3993b003aea4e1f6128d90cd4122]
link Courier to User--><path codeLine="84" d="M413.86,627.27 C406.61,636.69 399.21,646.99 393,657 C383.67,672.04 374.79,689.04 367.14,704.94 " fill="none" id="Courier-User" style="stroke:#A80036;stroke-width:1.0;"/><polygon fill="#000000" points="395.4227,670.4604,402.6035,664.2244,397.5666,661.1946,395.4227,670.4604" style="stroke:#000000;stroke-width:1.0;"/><text fill="#000000" font-family="sans-serif" font-size="13" lengthAdjust="spacing" textLength="43" x="407" y="671.4951">acts as</text><text fill="#000000" font-family="sans-serif" font-size="13" lengthAdjust="spacing" textLength="7" x="401.3393" y="648.1936">1</text><text fill="#000000" font-family="sans-serif" font-size="13" lengthAdjust="spacing" textLength="7" x="362.7774" y="694.3336">1</text><!--MD5=[88616e74bf96530d476f0a19698bdbd4]
link Courier to Pharmacy--><path codeLine="85" d="M452.08,627.01 C457.63,656.01 465.32,696.19 470.88,725.26 " fill="none" id="Courier-Pharmacy" style="stroke:#A80036;stroke-width:1.0;"/><polygon fill="#000000" points="466.9397,671.0867,468.1263,661.6504,462.3532,662.7551,466.9397,671.0867" style="stroke:#000000;stroke-width:1.0;"/><text fill="#000000" font-family="sans-serif" font-size="13" lengthAdjust="spacing" textLength="71" x="475" y="671.4951">belongs to a</text><text fill="#000000" font-family="sans-serif" font-size="13" lengthAdjust="spacing" textLength="7" x="445.6729" y="648.1818">1</text><text fill="#000000" font-family="sans-serif" font-size="13" lengthAdjust="spacing" textLength="7" x="461.9883" y="714.5792">1</text><!--MD5=[edc107c0a572352bcd12c9afaba4390b]
link Administrator to User--><path codeLine="86" d="M316.9,457.1 C321.09,508.07 331.23,631.45 337.26,704.85 " fill="none" id="Administrator-User" style="stroke:#A80036;stroke-width:1.0;"/><polygon fill="#000000" points="336.4095,594.159,338.5977,584.9036,332.7396,585.385,336.4095,594.159" style="stroke:#000000;stroke-width:1.0;"/><text fill="#000000" font-family="sans-serif" font-size="13" lengthAdjust="spacing" textLength="43" x="345" y="594.4951">acts as</text><text fill="#000000" font-family="sans-serif" font-size="13" lengthAdjust="spacing" textLength="7" x="309.51" y="478.4623">1</text><text fill="#000000" font-family="sans-serif" font-size="13" lengthAdjust="spacing" textLength="7" x="329.2558" y="694.2326">1</text><!--MD5=[877ab06ac0de18f6e28d330aff255100]
@startuml
skinparam classAttributeIconSize 0

package "UI" #DDDDDD{
class RemoveCourierUI {

}
}
package "Controller" #DDDDDD {
class RemoveCourierController{
+validateCourier(email)
+removeCourier(email)
}

class ApplicationPOT
{
  +static getInstance()
}
}


package "Model" #DDDDDD {
package "Service" #DDDDDD {
   class CourierService{
          +validateCourier(email)
          +removeCourier(email)

      }


 }
}

package "Model" #DDDDDD {
abstract class User{
-Integer Id
-String email
-String password
-String name
-Integer nif
}

class Courier {
      -Integer id
      -String iban
}

class Administrator {
}


class Pharmacy{
-   int id
-   String name
}


}

package "Data" #DDDDDD {
class DataHandler{
    +openConnection()
    +closeAll()
}

class CourierDB{
 +removeCourier(email)
  }

}
database database{

}
class CourierDB extends DataHandler

RemoveCourierController ..> ApplicationPOT
RemoveCourierUI ..> RemoveCourierController
RemoveCourierController ..> CourierService : has
CourierService ..> CourierDB : has
CourierDB - -> database : manages

database "1" - - "1" Administrator : has registered >
database "1" - - "1" Pharmacy : has registered >
Administrator "1" - - "1..*" Courier : removes >
Courier "1" - - "1" User: acts as  >
Courier "1" - - "1" Pharmacy: belongs to a  >
Administrator "1" - - "1" User: acts as  >

@enduml

PlantUML version 1.2021.00(Sun Jan 10 10:25:05 GMT 2021)
(GPL source distribution)
Java Runtime: OpenJDK Runtime Environment
JVM: OpenJDK 64-Bit Server VM
Default Encoding: Cp1252
Language: pt
Country: PT
--></g></svg>