<?xml version="1.0" encoding="UTF-8" standalone="no"?><svg xmlns="http://www.w3.org/2000/svg" xmlns:xlink="http://www.w3.org/1999/xlink" contentScriptType="application/ecmascript" contentStyleType="text/css" height="709px" preserveAspectRatio="none" style="width:1314px;height:709px;" version="1.1" viewBox="0 0 1314 709" width="1314px" zoomAndPan="magnify"><defs><filter height="300%" id="f5ezrebsbetax" width="300%" x="-1" y="-1"><feGaussianBlur result="blurOut" stdDeviation="2.0"/><feColorMatrix in="blurOut" result="blurOut2" type="matrix" values="0 0 0 0 0 0 0 0 0 0 0 0 0 0 0 0 0 0 .4 0"/><feOffset dx="4.0" dy="4.0" in="blurOut2" result="blurOut3"/><feBlend in="SourceGraphic" in2="blurOut3" mode="normal"/></filter></defs><g><rect fill="#FFFFFF" filter="url(#f5ezrebsbetax)" height="506.1797" style="stroke:#A80036;stroke-width:1.0;" width="10" x="44.5" y="99.6094"/><rect fill="#FFFFFF" filter="url(#f5ezrebsbetax)" height="30.3516" style="stroke:#A80036;stroke-width:1.0;" width="10" x="408.5" y="121.9609"/><rect fill="#FFFFFF" filter="url(#f5ezrebsbetax)" height="241.3672" style="stroke:#A80036;stroke-width:1.0;" width="10" x="408.5" y="182.6641"/><rect fill="#FFFFFF" filter="url(#f5ezrebsbetax)" height="151.4063" style="stroke:#A80036;stroke-width:1.0;" width="10" x="408.5" y="454.3828"/><rect fill="#FFFFFF" filter="url(#f5ezrebsbetax)" height="173.6641" style="stroke:#A80036;stroke-width:1.0;" width="10" x="576.5" y="213.0156"/><rect fill="#FFFFFF" filter="url(#f5ezrebsbetax)" height="121.0547" style="stroke:#A80036;stroke-width:1.0;" width="10" x="576.5" y="484.7344"/><rect fill="#FFFFFF" filter="url(#f5ezrebsbetax)" height="30" style="stroke:#A80036;stroke-width:1.0;" width="10" x="732" y="320.3281"/><rect fill="#FFFFFF" filter="url(#f5ezrebsbetax)" height="30.3516" style="stroke:#A80036;stroke-width:1.0;" width="10" x="1087" y="243.3672"/><rect fill="#FFFFFF" filter="url(#f5ezrebsbetax)" height="90.7031" style="stroke:#A80036;stroke-width:1.0;" width="10" x="1087" y="515.0859"/><rect fill="#FFFFFF" filter="url(#f5ezrebsbetax)" height="30" style="stroke:#A80036;stroke-width:1.0;" width="10" x="1255" y="545.4375"/><line style="stroke:#A80036;stroke-width:1.0;stroke-dasharray:5.0,5.0;" x1="49" x2="49" y1="89.6094" y2="623.7891"/><line style="stroke:#A80036;stroke-width:1.0;stroke-dasharray:5.0,5.0;" x1="413" x2="413" y1="89.6094" y2="623.7891"/><line style="stroke:#A80036;stroke-width:1.0;stroke-dasharray:5.0,5.0;" x1="581" x2="581" y1="89.6094" y2="623.7891"/><line style="stroke:#A80036;stroke-width:1.0;stroke-dasharray:5.0,5.0;" x1="737" x2="737" y1="89.6094" y2="623.7891"/><line style="stroke:#A80036;stroke-width:1.0;stroke-dasharray:5.0,5.0;" x1="857" x2="857" y1="89.6094" y2="623.7891"/><line style="stroke:#A80036;stroke-width:1.0;stroke-dasharray:5.0,5.0;" x1="973" x2="973" y1="89.6094" y2="623.7891"/><line style="stroke:#A80036;stroke-width:1.0;stroke-dasharray:5.0,5.0;" x1="1092" x2="1092" y1="89.6094" y2="623.7891"/><line style="stroke:#A80036;stroke-width:1.0;stroke-dasharray:5.0,5.0;" x1="1260" x2="1260" y1="284.6719" y2="623.7891"/><text fill="#000000" font-family="sans-serif" font-size="14" lengthAdjust="spacing" textLength="83" x="5" y="86.5332">Administrator</text><ellipse cx="49.5" cy="15" fill="#FEFECE" filter="url(#f5ezrebsbetax)" rx="8" ry="8" style="stroke:#A80036;stroke-width:2.0;"/><path d="M49.5,23 L49.5,50 M36.5,31 L62.5,31 M49.5,50 L36.5,65 M49.5,50 L62.5,65 " fill="none" filter="url(#f5ezrebsbetax)" style="stroke:#A80036;stroke-width:2.0;"/><text fill="#000000" font-family="sans-serif" font-size="14" lengthAdjust="spacing" textLength="83" x="5" y="637.3223">Administrator</text><ellipse cx="49.5" cy="650.3984" fill="#FEFECE" filter="url(#f5ezrebsbetax)" rx="8" ry="8" style="stroke:#A80036;stroke-width:2.0;"/><path d="M49.5,658.3984 L49.5,685.3984 M36.5,666.3984 L62.5,666.3984 M49.5,685.3984 L36.5,700.3984 M49.5,685.3984 L62.5,700.3984 " fill="none" filter="url(#f5ezrebsbetax)" style="stroke:#A80036;stroke-width:2.0;"/><rect fill="#FEFECE" filter="url(#f5ezrebsbetax)" height="31.6094" style="stroke:#A80036;stroke-width:1.5;" width="129" x="347" y="53"/><text fill="#000000" font-family="sans-serif" font-size="14" lengthAdjust="spacing" textLength="115" x="354" y="74.5332">:RemoveCourierUI</text><rect fill="#FEFECE" filter="url(#f5ezrebsbetax)" height="31.6094" style="stroke:#A80036;stroke-width:1.5;" width="129" x="347" y="622.7891"/><text fill="#000000" font-family="sans-serif" font-size="14" lengthAdjust="spacing" textLength="115" x="354" y="644.3223">:RemoveCourierUI</text><rect fill="#FEFECE" filter="url(#f5ezrebsbetax)" height="31.6094" style="stroke:#A80036;stroke-width:1.5;" width="179" x="490" y="53"/><text fill="#000000" font-family="sans-serif" font-size="14" lengthAdjust="spacing" textLength="165" x="497" y="74.5332">:RemoveCourierController</text><rect fill="#FEFECE" filter="url(#f5ezrebsbetax)" height="31.6094" style="stroke:#A80036;stroke-width:1.5;" width="179" x="490" y="622.7891"/><text fill="#000000" font-family="sans-serif" font-size="14" lengthAdjust="spacing" textLength="165" x="497" y="644.3223">:RemoveCourierController</text><rect fill="#FEFECE" filter="url(#f5ezrebsbetax)" height="31.6094" style="stroke:#A80036;stroke-width:1.5;" width="104" x="683" y="53"/><text fill="#000000" font-family="sans-serif" font-size="14" lengthAdjust="spacing" textLength="90" x="690" y="74.5332">PotApplication</text><rect fill="#FEFECE" filter="url(#f5ezrebsbetax)" height="31.6094" style="stroke:#A80036;stroke-width:1.5;" width="104" x="683" y="622.7891"/><text fill="#000000" font-family="sans-serif" font-size="14" lengthAdjust="spacing" textLength="90" x="690" y="644.3223">PotApplication</text><rect fill="#FEFECE" filter="url(#f5ezrebsbetax)" height="49.2188" style="stroke:#A80036;stroke-width:1.5;" width="108" x="801" y="35.3906"/><text fill="#000000" font-family="sans-serif" font-size="14" lengthAdjust="spacing" textLength="24" x="841" y="56.9238">app</text><text fill="#000000" font-family="sans-serif" font-size="14" lengthAdjust="spacing" textLength="94" x="808" y="74.5332">:PotApplication</text><rect fill="#FEFECE" filter="url(#f5ezrebsbetax)" height="49.2188" style="stroke:#A80036;stroke-width:1.5;" width="108" x="801" y="622.7891"/><text fill="#000000" font-family="sans-serif" font-size="14" lengthAdjust="spacing" textLength="24" x="841" y="644.3223">app</text><text fill="#000000" font-family="sans-serif" font-size="14" lengthAdjust="spacing" textLength="94" x="808" y="661.9316">:PotApplication</text><rect fill="#FEFECE" filter="url(#f5ezrebsbetax)" height="49.2188" style="stroke:#A80036;stroke-width:1.5;" width="97" x="923" y="35.3906"/><text fill="#000000" font-family="sans-serif" font-size="14" lengthAdjust="spacing" textLength="48" x="945.5" y="56.9238">session</text><text fill="#000000" font-family="sans-serif" font-size="14" lengthAdjust="spacing" textLength="83" x="930" y="74.5332">:UserSession</text><rect fill="#FEFECE" filter="url(#f5ezrebsbetax)" height="49.2188" style="stroke:#A80036;stroke-width:1.5;" width="97" x="923" y="622.7891"/><text fill="#000000" font-family="sans-serif" font-size="14" lengthAdjust="spacing" textLength="48" x="945.5" y="644.3223">session</text><text fill="#000000" font-family="sans-serif" font-size="14" lengthAdjust="spacing" textLength="83" x="930" y="661.9316">:UserSession</text><rect fill="#FEFECE" filter="url(#f5ezrebsbetax)" height="49.2188" style="stroke:#A80036;stroke-width:1.5;" width="112" x="1034" y="35.3906"/><text fill="#000000" font-family="sans-serif" font-size="14" lengthAdjust="spacing" textLength="57" x="1059.5" y="56.9238">courServ</text><text fill="#000000" font-family="sans-serif" font-size="14" lengthAdjust="spacing" textLength="98" x="1041" y="74.5332">:CourierService</text><rect fill="#FEFECE" filter="url(#f5ezrebsbetax)" height="49.2188" style="stroke:#A80036;stroke-width:1.5;" width="112" x="1034" y="622.7891"/><text fill="#000000" font-family="sans-serif" font-size="14" lengthAdjust="spacing" textLength="57" x="1059.5" y="644.3223">courServ</text><text fill="#000000" font-family="sans-serif" font-size="14" lengthAdjust="spacing" textLength="98" x="1041" y="661.9316">:CourierService</text><rect fill="#FEFECE" filter="url(#f5ezrebsbetax)" height="31.6094" style="stroke:#A80036;stroke-width:1.5;" width="84" x="1216" y="622.7891"/><text fill="#000000" font-family="sans-serif" font-size="14" lengthAdjust="spacing" textLength="70" x="1223" y="644.3223">:CourierDB</text><rect fill="#FFFFFF" filter="url(#f5ezrebsbetax)" height="506.1797" style="stroke:#A80036;stroke-width:1.0;" width="10" x="44.5" y="99.6094"/><rect fill="#FFFFFF" filter="url(#f5ezrebsbetax)" height="30.3516" style="stroke:#A80036;stroke-width:1.0;" width="10" x="408.5" y="121.9609"/><rect fill="#FFFFFF" filter="url(#f5ezrebsbetax)" height="241.3672" style="stroke:#A80036;stroke-width:1.0;" width="10" x="408.5" y="182.6641"/><rect fill="#FFFFFF" filter="url(#f5ezrebsbetax)" height="151.4063" style="stroke:#A80036;stroke-width:1.0;" width="10" x="408.5" y="454.3828"/><rect fill="#FFFFFF" filter="url(#f5ezrebsbetax)" height="173.6641" style="stroke:#A80036;stroke-width:1.0;" width="10" x="576.5" y="213.0156"/><rect fill="#FFFFFF" filter="url(#f5ezrebsbetax)" height="121.0547" style="stroke:#A80036;stroke-width:1.0;" width="10" x="576.5" y="484.7344"/><rect fill="#FFFFFF" filter="url(#f5ezrebsbetax)" height="30" style="stroke:#A80036;stroke-width:1.0;" width="10" x="732" y="320.3281"/><rect fill="#FFFFFF" filter="url(#f5ezrebsbetax)" height="30.3516" style="stroke:#A80036;stroke-width:1.0;" width="10" x="1087" y="243.3672"/><rect fill="#FFFFFF" filter="url(#f5ezrebsbetax)" height="90.7031" style="stroke:#A80036;stroke-width:1.0;" width="10" x="1087" y="515.0859"/><rect fill="#FFFFFF" filter="url(#f5ezrebsbetax)" height="30" style="stroke:#A80036;stroke-width:1.0;" width="10" x="1255" y="545.4375"/><polygon fill="#A80036" points="396.5,117.9609,406.5,121.9609,396.5,125.9609,400.5,121.9609" style="stroke:#A80036;stroke-width:1.0;"/><line style="stroke:#A80036;stroke-width:1.0;" x1="54.5" x2="402.5" y1="121.9609" y2="121.9609"/><text fill="#000000" font-family="sans-serif" font-size="13" font-weight="bold" lengthAdjust="spacing" textLength="7" x="61.5" y="117.1045">1</text><text fill="#000000" font-family="sans-serif" font-size="13" lengthAdjust="spacing" textLength="191" x="72.5" y="117.1045">initializes the remove of a Courier</text><polygon fill="#A80036" points="65.5,148.3125,55.5,152.3125,65.5,156.3125,61.5,152.3125" style="stroke:#A80036;stroke-width:1.0;"/><line style="stroke:#A80036;stroke-width:1.0;" x1="59.5" x2="412.5" y1="152.3125" y2="152.3125"/><text fill="#000000" font-family="sans-serif" font-size="13" font-weight="bold" lengthAdjust="spacing" textLength="7" x="71.5" y="147.4561">2</text><text fill="#000000" font-family="sans-serif" font-size="13" lengthAdjust="spacing" textLength="155" x="82.5" y="147.4561">asks for the courier's email</text><polygon fill="#A80036" points="396.5,178.6641,406.5,182.6641,396.5,186.6641,400.5,182.6641" style="stroke:#A80036;stroke-width:1.0;"/><line style="stroke:#A80036;stroke-width:1.0;" x1="54.5" x2="402.5" y1="182.6641" y2="182.6641"/><text fill="#000000" font-family="sans-serif" font-size="13" font-weight="bold" lengthAdjust="spacing" textLength="7" x="61.5" y="177.8076">3</text><text fill="#000000" font-family="sans-serif" font-size="13" lengthAdjust="spacing" textLength="140" x="72.5" y="177.8076">inserts the required data</text><polygon fill="#A80036" points="564.5,209.0156,574.5,213.0156,564.5,217.0156,568.5,213.0156" style="stroke:#A80036;stroke-width:1.0;"/><line style="stroke:#A80036;stroke-width:1.0;" x1="418.5" x2="570.5" y1="213.0156" y2="213.0156"/><text fill="#000000" font-family="sans-serif" font-size="13" font-weight="bold" lengthAdjust="spacing" textLength="7" x="425.5" y="208.1592">4</text><text fill="#000000" font-family="sans-serif" font-size="13" lengthAdjust="spacing" textLength="123" x="436.5" y="208.1592">validateCourier(email)</text><polygon fill="#A80036" points="1075,239.3672,1085,243.3672,1075,247.3672,1079,243.3672" style="stroke:#A80036;stroke-width:1.0;"/><line style="stroke:#A80036;stroke-width:1.0;" x1="586.5" x2="1081" y1="243.3672" y2="243.3672"/><text fill="#000000" font-family="sans-serif" font-size="13" font-weight="bold" lengthAdjust="spacing" textLength="7" x="593.5" y="238.5107">5</text><text fill="#000000" font-family="sans-serif" font-size="13" lengthAdjust="spacing" textLength="44" x="604.5" y="238.5107">create()</text><polygon fill="#A80036" points="1204,269.7188,1214,273.7188,1204,277.7188,1208,273.7188" style="stroke:#A80036;stroke-width:1.0;"/><line style="stroke:#A80036;stroke-width:1.0;" x1="1092" x2="1210" y1="273.7188" y2="273.7188"/><text fill="#000000" font-family="sans-serif" font-size="13" font-weight="bold" lengthAdjust="spacing" textLength="7" x="1099" y="268.8623">6</text><text fill="#000000" font-family="sans-serif" font-size="13" lengthAdjust="spacing" textLength="44" x="1110" y="268.8623">create()</text><rect fill="#FEFECE" filter="url(#f5ezrebsbetax)" height="31.6094" style="stroke:#A80036;stroke-width:1.5;" width="84" x="1216" y="251.3672"/><text fill="#000000" font-family="sans-serif" font-size="14" lengthAdjust="spacing" textLength="70" x="1223" y="272.9004">:CourierDB</text><polygon fill="#A80036" points="720,316.3281,730,320.3281,720,324.3281,724,320.3281" style="stroke:#A80036;stroke-width:1.0;"/><line style="stroke:#A80036;stroke-width:1.0;" x1="586.5" x2="726" y1="320.3281" y2="320.3281"/><text fill="#000000" font-family="sans-serif" font-size="13" font-weight="bold" lengthAdjust="spacing" textLength="7" x="593.5" y="315.4717">7</text><text fill="#000000" font-family="sans-serif" font-size="13" lengthAdjust="spacing" textLength="112" x="604.5" y="315.4717">app = getInstance()</text><line style="stroke:#A80036;stroke-width:1.0;" x1="586.5" x2="628.5" y1="385.6797" y2="385.6797"/><line style="stroke:#A80036;stroke-width:1.0;" x1="628.5" x2="628.5" y1="385.6797" y2="398.6797"/><line style="stroke:#A80036;stroke-width:1.0;" x1="581.5" x2="628.5" y1="398.6797" y2="398.6797"/><polygon fill="#A80036" points="591.5,394.6797,581.5,398.6797,591.5,402.6797,587.5,398.6797" style="stroke:#A80036;stroke-width:1.0;"/><text fill="#000000" font-family="sans-serif" font-size="13" font-weight="bold" lengthAdjust="spacing" textLength="7" x="593.5" y="380.8232">8</text><text fill="#000000" font-family="sans-serif" font-size="13" lengthAdjust="spacing" textLength="110" x="604.5" y="380.8232">validateInput(email)</text><polygon fill="#A80036" points="65.5,420.0313,55.5,424.0313,65.5,428.0313,61.5,424.0313" style="stroke:#A80036;stroke-width:1.0;"/><line style="stroke:#A80036;stroke-width:1.0;" x1="59.5" x2="412.5" y1="424.0313" y2="424.0313"/><text fill="#000000" font-family="sans-serif" font-size="13" font-weight="bold" lengthAdjust="spacing" textLength="7" x="71.5" y="419.1748">9</text><text fill="#000000" font-family="sans-serif" font-size="13" lengthAdjust="spacing" textLength="319" x="82.5" y="419.1748">validates, presents the data and asks for a confirmation</text><polygon fill="#A80036" points="396.5,450.3828,406.5,454.3828,396.5,458.3828,400.5,454.3828" style="stroke:#A80036;stroke-width:1.0;"/><line style="stroke:#A80036;stroke-width:1.0;" x1="54.5" x2="402.5" y1="454.3828" y2="454.3828"/><text fill="#000000" font-family="sans-serif" font-size="13" font-weight="bold" lengthAdjust="spacing" textLength="14" x="61.5" y="449.5264">10</text><text fill="#000000" font-family="sans-serif" font-size="13" lengthAdjust="spacing" textLength="49" x="79.5" y="449.5264">confirms</text><polygon fill="#A80036" points="564.5,480.7344,574.5,484.7344,564.5,488.7344,568.5,484.7344" style="stroke:#A80036;stroke-width:1.0;"/><line style="stroke:#A80036;stroke-width:1.0;" x1="418.5" x2="570.5" y1="484.7344" y2="484.7344"/><text fill="#000000" font-family="sans-serif" font-size="13" font-weight="bold" lengthAdjust="spacing" textLength="14" x="425.5" y="479.8779">11</text><text fill="#000000" font-family="sans-serif" font-size="13" lengthAdjust="spacing" textLength="121" x="443.5" y="479.8779">removeCourier(email)</text><polygon fill="#A80036" points="1075,511.0859,1085,515.0859,1075,519.0859,1079,515.0859" style="stroke:#A80036;stroke-width:1.0;"/><line style="stroke:#A80036;stroke-width:1.0;" x1="586.5" x2="1081" y1="515.0859" y2="515.0859"/><text fill="#000000" font-family="sans-serif" font-size="13" font-weight="bold" lengthAdjust="spacing" textLength="14" x="593.5" y="510.2295">12</text><text fill="#000000" font-family="sans-serif" font-size="13" lengthAdjust="spacing" textLength="121" x="611.5" y="510.2295">removeCourier(email)</text><polygon fill="#A80036" points="1243,541.4375,1253,545.4375,1243,549.4375,1247,545.4375" style="stroke:#A80036;stroke-width:1.0;"/><line style="stroke:#A80036;stroke-width:1.0;" x1="1097" x2="1249" y1="545.4375" y2="545.4375"/><text fill="#000000" font-family="sans-serif" font-size="13" font-weight="bold" lengthAdjust="spacing" textLength="14" x="1104" y="540.5811">13</text><text fill="#000000" font-family="sans-serif" font-size="13" lengthAdjust="spacing" textLength="121" x="1122" y="540.5811">removeCourier(email)</text><polygon fill="#A80036" points="60.5,601.7891,50.5,605.7891,60.5,609.7891,56.5,605.7891" style="stroke:#A80036;stroke-width:1.0;"/><line style="stroke:#A80036;stroke-width:1.0;" x1="54.5" x2="412.5" y1="605.7891" y2="605.7891"/><text fill="#000000" font-family="sans-serif" font-size="13" font-weight="bold" lengthAdjust="spacing" textLength="14" x="66.5" y="600.9326">14</text><text fill="#000000" font-family="sans-serif" font-size="13" lengthAdjust="spacing" textLength="210" x="84.5" y="600.9326">informs the success of the operation</text><!--MD5=[0d7edd53ff423c91857b6ab61b71fb9d]
@startuml
autonumber
actor "Administrator" as ADMIN

participant ":RemoveCourierUI" as UI
participant ":RemoveCourierController" as CTRL
participant "PotApplication" as PA
participant "app \n:PotApplication" as APA
participant "session \n:UserSession" as US
participant "courServ \n:CourierService" as RF
participant ":CourierDB" as CDB

activate ADMIN

ADMIN -> UI : initializes the remove of a Courier
activate UI
UI -> ADMIN : asks for the courier's email
deactivate UI

ADMIN -> UI : inserts the required data
activate UI
UI -> CTRL : validateCourier(email)
activate CTRL
CTRL -> RF : create()
activate RF
RF -> CDB** : create()
deactivate RF
CTRL -> PA : app = getInstance()
activate PA
deactivate PA
deactivate US
CTRL -> CTRL : validateInput(email)
deactivate RF
deactivate CTRL

UI -> ADMIN : validates, presents the data and asks for a confirmation
deactivate UI

ADMIN -> UI : confirms
activate UI
UI -> CTRL : removeCourier(email)
activate CTRL
CTRL -> RF : removeCourier(email)
activate RF
RF -> CDB : removeCourier(email)
activate CDB
deactivate CDB
UI -> ADMIN : informs the success of the operation
deactivate RF
deactivate CTRL
deactivate UI

deactivate ADMIN

@enduml

PlantUML version 1.2021.00(Sun Jan 10 10:25:05 GMT 2021)
(GPL source distribution)
Java Runtime: OpenJDK Runtime Environment
JVM: OpenJDK 64-Bit Server VM
Default Encoding: Cp1252
Language: pt
Country: PT
--></g></svg>