<?xml version="1.0" encoding="UTF-8" standalone="no"?><svg xmlns="http://www.w3.org/2000/svg" xmlns:xlink="http://www.w3.org/1999/xlink" contentScriptType="application/ecmascript" contentStyleType="text/css" height="233px" preserveAspectRatio="none" style="width:800px;height:233px;" version="1.1" viewBox="0 0 800 233" width="800px" zoomAndPan="magnify"><defs><filter height="300%" id="fd9a0xv2zeszd" width="300%" x="-1" y="-1"><feGaussianBlur result="blurOut" stdDeviation="2.0"/><feColorMatrix in="blurOut" result="blurOut2" type="matrix" values="0 0 0 0 0 0 0 0 0 0 0 0 0 0 0 0 0 0 .4 0"/><feOffset dx="4.0" dy="4.0" in="blurOut2" result="blurOut3"/><feBlend in="SourceGraphic" in2="blurOut3" mode="normal"/></filter></defs><g><!--MD5=[f50ff5e4cd64f259303fc83dba1819fc]
entity database--><path d="M6,122.5 C6,112.5 45.5,112.5 45.5,112.5 C45.5,112.5 85,112.5 85,122.5 L85,149.1094 C85,159.1094 45.5,159.1094 45.5,159.1094 C45.5,159.1094 6,159.1094 6,149.1094 L6,122.5 " fill="#FFFFFF" filter="url(#fd9a0xv2zeszd)" style="stroke:#000000;stroke-width:1.5;"/><path d="M6,122.5 C6,132.5 45.5,132.5 45.5,132.5 C45.5,132.5 85,132.5 85,122.5 " fill="none" style="stroke:#000000;stroke-width:1.5;"/><text fill="#000000" font-family="sans-serif" font-size="14" lengthAdjust="spacing" textLength="59" x="16" y="151.0332">database</text><!--MD5=[c6a2171c11447acbe08a3dfeee0e1710]
class Courier--><rect codeLine="8" fill="#FEFECE" filter="url(#fd9a0xv2zeszd)" height="53.8359" id="Courier" style="stroke:#A80036;stroke-width:1.5;" width="73" x="470" y="58"/><ellipse cx="485" cy="74" fill="#ADD1B2" rx="11" ry="11" style="stroke:#A80036;stroke-width:1.0;"/><path d="M487,70.5 Q487.2031,70 487.4375,69.75 Q487.6719,69.5 487.9375,69.5 Q488.4063,69.5 488.7031,69.7813 Q489,70.0625 489,70.7188 L489,72.2813 Q489,72.9375 488.7188,73.2188 Q488.4375,73.5 488,73.5 Q487.6094,73.5 487.3594,73.3281 Q487.1094,73.1563 487,72.7031 Q486.9531,72.3906 486.7813,72.2188 Q486.4688,71.8906 485.9063,71.7031 Q485.3438,71.5 484.7813,71.5 Q484.0781,71.5 483.4844,71.7813 Q482.9063,72.0625 482.4531,72.6875 Q482,73.3125 482,74.1719 L482,75.0938 Q482,76.125 482.8438,76.8125 Q483.6875,77.5 485.1875,77.5 Q486.0781,77.5 486.7031,77.2969 Q487.0625,77.1875 487.4688,76.8281 Q487.7344,76.625 487.875,76.5625 Q488.0156,76.5 488.1875,76.5 Q488.5156,76.5 488.75,76.7656 Q489,77.0156 489,77.375 Q489,77.7188 488.6563,78.125 Q488.1563,78.7188 487.3594,79.0469 Q486.3125,79.5 485.0313,79.5 Q483.5313,79.5 482.3281,78.9063 Q481.3594,78.4375 480.6719,77.4219 Q480,76.4063 480,75.2031 L480,74.1094 Q480,72.8594 480.5938,71.7656 Q481.2031,70.6719 482.25,70.0938 Q483.3125,69.5 484.5,69.5 Q485.2188,69.5 485.8438,69.75 Q486.4688,70 487,70.5 Z " fill="#000000"/><text fill="#000000" font-family="sans-serif" font-size="12" lengthAdjust="spacing" textLength="41" x="499" y="78.9102">Courier</text><line style="stroke:#A80036;stroke-width:1.5;" x1="471" x2="542" y1="90" y2="90"/><text fill="#000000" font-family="sans-serif" font-size="11" lengthAdjust="spacing" textLength="55" x="476" y="105.4189">-String iban</text><!--MD5=[da547346deef918ea16944ba046651ef]
class Administrator--><rect codeLine="12" fill="#FEFECE" filter="url(#fd9a0xv2zeszd)" height="40" id="Administrator" style="stroke:#A80036;stroke-width:1.5;" width="105" x="242" y="116"/><ellipse cx="257" cy="132" fill="#ADD1B2" rx="11" ry="11" style="stroke:#A80036;stroke-width:1.0;"/><path d="M259,128.5 Q259.2031,128 259.4375,127.75 Q259.6719,127.5 259.9375,127.5 Q260.4063,127.5 260.7031,127.7813 Q261,128.0625 261,128.7188 L261,130.2813 Q261,130.9375 260.7188,131.2188 Q260.4375,131.5 260,131.5 Q259.6094,131.5 259.3594,131.3281 Q259.1094,131.1563 259,130.7031 Q258.9531,130.3906 258.7813,130.2188 Q258.4688,129.8906 257.9063,129.7031 Q257.3438,129.5 256.7813,129.5 Q256.0781,129.5 255.4844,129.7813 Q254.9063,130.0625 254.4531,130.6875 Q254,131.3125 254,132.1719 L254,133.0938 Q254,134.125 254.8438,134.8125 Q255.6875,135.5 257.1875,135.5 Q258.0781,135.5 258.7031,135.2969 Q259.0625,135.1875 259.4688,134.8281 Q259.7344,134.625 259.875,134.5625 Q260.0156,134.5 260.1875,134.5 Q260.5156,134.5 260.75,134.7656 Q261,135.0156 261,135.375 Q261,135.7188 260.6563,136.125 Q260.1563,136.7188 259.3594,137.0469 Q258.3125,137.5 257.0313,137.5 Q255.5313,137.5 254.3281,136.9063 Q253.3594,136.4375 252.6719,135.4219 Q252,134.4063 252,133.2031 L252,132.1094 Q252,130.8594 252.5938,129.7656 Q253.2031,128.6719 254.25,128.0938 Q255.3125,127.5 256.5,127.5 Q257.2188,127.5 257.8438,127.75 Q258.4688,128 259,128.5 Z " fill="#000000"/><text fill="#000000" font-family="sans-serif" font-size="12" lengthAdjust="spacing" textLength="73" x="271" y="136.9102">Administrator</text><line style="stroke:#A80036;stroke-width:1.5;" x1="243" x2="346" y1="148" y2="148"/><!--MD5=[3fd616f346a44cd59a91eb10b19e157c]
class User--><rect codeLine="15" fill="#FEFECE" filter="url(#fd9a0xv2zeszd)" height="109.1797" id="User" style="stroke:#A80036;stroke-width:1.5;" width="97" x="689" y="110.5"/><ellipse cx="721.1" cy="126.5" fill="#ADD1B2" rx="11" ry="11" style="stroke:#A80036;stroke-width:1.0;"/><path d="M723.1,123 Q723.3031,122.5 723.5375,122.25 Q723.7719,122 724.0375,122 Q724.5063,122 724.8031,122.2813 Q725.1,122.5625 725.1,123.2188 L725.1,124.7813 Q725.1,125.4375 724.8188,125.7188 Q724.5375,126 724.1,126 Q723.7094,126 723.4594,125.8281 Q723.2094,125.6563 723.1,125.2031 Q723.0531,124.8906 722.8813,124.7188 Q722.5688,124.3906 722.0063,124.2031 Q721.4438,124 720.8813,124 Q720.1781,124 719.5844,124.2813 Q719.0063,124.5625 718.5531,125.1875 Q718.1,125.8125 718.1,126.6719 L718.1,127.5938 Q718.1,128.625 718.9438,129.3125 Q719.7875,130 721.2875,130 Q722.1781,130 722.8031,129.7969 Q723.1625,129.6875 723.5688,129.3281 Q723.8344,129.125 723.975,129.0625 Q724.1156,129 724.2875,129 Q724.6156,129 724.85,129.2656 Q725.1,129.5156 725.1,129.875 Q725.1,130.2188 724.7563,130.625 Q724.2563,131.2188 723.4594,131.5469 Q722.4125,132 721.1313,132 Q719.6313,132 718.4281,131.4063 Q717.4594,130.9375 716.7719,129.9219 Q716.1,128.9063 716.1,127.7031 L716.1,126.6094 Q716.1,125.3594 716.6938,124.2656 Q717.3031,123.1719 718.35,122.5938 Q719.4125,122 720.6,122 Q721.3188,122 721.9438,122.25 Q722.5688,122.5 723.1,123 Z " fill="#000000"/><text fill="#000000" font-family="sans-serif" font-size="12" lengthAdjust="spacing" textLength="27" x="738.9" y="131.4102">User</text><line style="stroke:#A80036;stroke-width:1.5;" x1="690" x2="785" y1="142.5" y2="142.5"/><text fill="#000000" font-family="sans-serif" font-size="11" lengthAdjust="spacing" textLength="48" x="695" y="157.9189">-Integer id</text><text fill="#000000" font-family="sans-serif" font-size="11" lengthAdjust="spacing" textLength="59" x="695" y="171.7549">-String email</text><text fill="#000000" font-family="sans-serif" font-size="11" lengthAdjust="spacing" textLength="85" x="695" y="185.5908">-String password</text><text fill="#000000" font-family="sans-serif" font-size="11" lengthAdjust="spacing" textLength="30" x="695" y="199.4268">-int nif</text><text fill="#000000" font-family="sans-serif" font-size="11" lengthAdjust="spacing" textLength="60" x="695" y="213.2627">-string name</text><!--MD5=[7f2a9fafcebe4f099f71398fd3e2ed00]
class Pharmacy--><rect codeLine="23" fill="#FEFECE" filter="url(#fd9a0xv2zeszd)" height="67.6719" id="Pharmacy" style="stroke:#A80036;stroke-width:1.5;" width="87" x="694" y="7"/><ellipse cx="709" cy="23" fill="#ADD1B2" rx="11" ry="11" style="stroke:#A80036;stroke-width:1.0;"/><path d="M711,19.5 Q711.2031,19 711.4375,18.75 Q711.6719,18.5 711.9375,18.5 Q712.4063,18.5 712.7031,18.7813 Q713,19.0625 713,19.7188 L713,21.2813 Q713,21.9375 712.7188,22.2188 Q712.4375,22.5 712,22.5 Q711.6094,22.5 711.3594,22.3281 Q711.1094,22.1563 711,21.7031 Q710.9531,21.3906 710.7813,21.2188 Q710.4688,20.8906 709.9063,20.7031 Q709.3438,20.5 708.7813,20.5 Q708.0781,20.5 707.4844,20.7813 Q706.9063,21.0625 706.4531,21.6875 Q706,22.3125 706,23.1719 L706,24.0938 Q706,25.125 706.8438,25.8125 Q707.6875,26.5 709.1875,26.5 Q710.0781,26.5 710.7031,26.2969 Q711.0625,26.1875 711.4688,25.8281 Q711.7344,25.625 711.875,25.5625 Q712.0156,25.5 712.1875,25.5 Q712.5156,25.5 712.75,25.7656 Q713,26.0156 713,26.375 Q713,26.7188 712.6563,27.125 Q712.1563,27.7188 711.3594,28.0469 Q710.3125,28.5 709.0313,28.5 Q707.5313,28.5 706.3281,27.9063 Q705.3594,27.4375 704.6719,26.4219 Q704,25.4063 704,24.2031 L704,23.1094 Q704,21.8594 704.5938,20.7656 Q705.2031,19.6719 706.25,19.0938 Q707.3125,18.5 708.5,18.5 Q709.2188,18.5 709.8438,18.75 Q710.4688,19 711,19.5 Z " fill="#000000"/><text fill="#000000" font-family="sans-serif" font-size="12" lengthAdjust="spacing" textLength="55" x="723" y="27.9102">Pharmacy</text><line style="stroke:#A80036;stroke-width:1.5;" x1="695" x2="780" y1="39" y2="39"/><text fill="#000000" font-family="sans-serif" font-size="11" lengthAdjust="spacing" textLength="26" x="700" y="54.4189">-int id</text><text fill="#000000" font-family="sans-serif" font-size="11" lengthAdjust="spacing" textLength="61" x="700" y="68.2549">-String name</text><!--MD5=[91e1cddbbc24b623a543ddae479b49e2]
link database to Administrator--><path codeLine="28" d="M85.09,136 C127.29,136 195.12,136 241.87,136 " fill="none" id="database-Administrator" style="stroke:#A80036;stroke-width:1.0;"/><polygon fill="#000000" points="125,127.1758,115.9549,124.2369,115.9549,130.1147,125,127.1758" style="stroke:#000000;stroke-width:1.0;"/><text fill="#000000" font-family="sans-serif" font-size="13" lengthAdjust="spacing" textLength="82" x="129" y="132.4951">has registered</text><text fill="#000000" font-family="sans-serif" font-size="13" lengthAdjust="spacing" textLength="7" x="93.0347" y="151.0385">1</text><text fill="#000000" font-family="sans-serif" font-size="13" lengthAdjust="spacing" textLength="7" x="226.9767" y="150.6448">1</text><!--MD5=[ee27bb4a35795612dd183df45031e556]
link Administrator to Courier--><path codeLine="29" d="M347.14,123.46 C385.27,114.2 436.2,101.83 469.88,93.65 " fill="none" id="Administrator-Courier" style="stroke:#A80036;stroke-width:1.0;"/><polygon fill="#000000" points="386.8588,91.9957,377.3756,91.2746,378.7628,96.9864,386.8588,91.9957" style="stroke:#000000;stroke-width:1.0;"/><text fill="#000000" font-family="sans-serif" font-size="13" lengthAdjust="spacing" textLength="48" x="391" y="98.4951">removes</text><text fill="#000000" font-family="sans-serif" font-size="13" lengthAdjust="spacing" textLength="7" x="355.0347" y="118.0914">1</text><text fill="#000000" font-family="sans-serif" font-size="13" lengthAdjust="spacing" textLength="20" x="441.8672" y="110.0511">1..*</text><!--MD5=[771c3993b003aea4e1f6128d90cd4122]
link Courier to User--><path codeLine="30" d="M543.28,97.5 C582.4,111.17 645.29,133.14 688.63,148.28 " fill="none" id="Courier-User" style="stroke:#A80036;stroke-width:1.0;"/><polygon fill="#000000" points="596.7202,101.8249,589.1506,96.0672,587.212,101.6161,596.7202,101.8249" style="stroke:#000000;stroke-width:1.0;"/><text fill="#000000" font-family="sans-serif" font-size="13" lengthAdjust="spacing" textLength="43" x="601" y="105.4951">acts as</text><text fill="#000000" font-family="sans-serif" font-size="13" lengthAdjust="spacing" textLength="7" x="550.9584" y="114.9521">1</text><text fill="#000000" font-family="sans-serif" font-size="13" lengthAdjust="spacing" textLength="7" x="673.9382" y="160.507">1</text><!--MD5=[88616e74bf96530d476f0a19698bdbd4]
link Courier to Pharmacy--><path codeLine="31" d="M543.28,78.12 C584.04,70.29 650.59,57.51 693.96,49.17 " fill="none" id="Courier-Pharmacy" style="stroke:#A80036;stroke-width:1.0;"/><polygon fill="#000000" points="582.9102,47.2324,573.4731,46.0529,574.5821,51.8251,582.9102,47.2324" style="stroke:#000000;stroke-width:1.0;"/><text fill="#000000" font-family="sans-serif" font-size="13" lengthAdjust="spacing" textLength="71" x="587" y="53.4951">belongs to a</text><text fill="#000000" font-family="sans-serif" font-size="13" lengthAdjust="spacing" textLength="7" x="550.9584" y="91.8778">1</text><text fill="#000000" font-family="sans-serif" font-size="13" lengthAdjust="spacing" textLength="7" x="678.875" y="65.5027">1</text><!--MD5=[edc107c0a572352bcd12c9afaba4390b]
link Administrator to User--><path codeLine="32" d="M347.39,139.41 C433.68,145.09 605.43,156.38 688.84,161.87 " fill="none" id="Administrator-User" style="stroke:#A80036;stroke-width:1.0;"/><polygon fill="#000000" points="487.4892,139.504,478.6565,135.9777,478.2707,141.8429,487.4892,139.504" style="stroke:#000000;stroke-width:1.0;"/><text fill="#000000" font-family="sans-serif" font-size="13" lengthAdjust="spacing" textLength="43" x="491.5" y="144.4951">acts as</text><text fill="#000000" font-family="sans-serif" font-size="13" lengthAdjust="spacing" textLength="7" x="354.9674" y="154.462">1</text><text fill="#000000" font-family="sans-serif" font-size="13" lengthAdjust="spacing" textLength="7" x="673.853" y="176.124">1</text><!--MD5=[708679a3fad6aca2a997b3ad3e4c2c74]
@startuml
skinparam classAttributeIconSize 0
hide methods
left to right direction

database database {
}

class Courier {
      -String iban
}

class Administrator {
}

class User{
  -Integer id
  -String email
  -String password
  -int nif
  -string name
}

class Pharmacy{
-   int id
-   String name
}

database "1" - - "1" Administrator : has registered >
Administrator "1" - - "1..*" Courier : removes >
Courier "1" - - "1" User: acts as  >
Courier "1" - - "1" Pharmacy: belongs to a  >
Administrator "1" - - "1" User: acts as  >
@enduml

PlantUML version 1.2021.00(Sun Jan 10 10:25:05 GMT 2021)
(GPL source distribution)
Java Runtime: OpenJDK Runtime Environment
JVM: OpenJDK 64-Bit Server VM
Default Encoding: Cp1252
Language: pt
Country: PT
--></g></svg>