<?xml version="1.0" encoding="UTF-8" standalone="no"?><svg xmlns="http://www.w3.org/2000/svg" xmlns:xlink="http://www.w3.org/1999/xlink" contentScriptType="application/ecmascript" contentStyleType="text/css" height="454.2px" preserveAspectRatio="none" style="width:808px;height:454px;" version="1.1" viewBox="0 0 808 454" width="808.8px" zoomAndPan="magnify"><defs><filter height="300%" id="f6v3r0x2h3363" width="300%" x="-1" y="-1"><feGaussianBlur result="blurOut" stdDeviation="1.2"/><feColorMatrix in="blurOut" result="blurOut2" type="matrix" values="0 0 0 0 0 0 0 0 0 0 0 0 0 0 0 0 0 0 .4 0"/><feOffset dx="2.4" dy="2.4" in="blurOut2" result="blurOut3"/><feBlend in="SourceGraphic" in2="blurOut3" mode="normal"/></filter></defs><g><rect fill="#FFFFFF" filter="url(#f6v3r0x2h3363)" height="332.3297" style="stroke:#A80036;stroke-width:0.6;" width="6" x="26.7" y="59.7656"/><rect fill="#FFFFFF" filter="url(#f6v3r0x2h3363)" height="18.2109" style="stroke:#A80036;stroke-width:0.6;" width="6" x="245.1" y="73.1766"/><rect fill="#FFFFFF" filter="url(#f6v3r0x2h3363)" height="144.8203" style="stroke:#A80036;stroke-width:0.6;" width="6" x="245.1" y="109.5984"/><rect fill="#FFFFFF" filter="url(#f6v3r0x2h3363)" height="119.4656" style="stroke:#A80036;stroke-width:0.6;" width="6" x="245.1" y="272.6297"/><rect fill="#FFFFFF" filter="url(#f6v3r0x2h3363)" height="104.1984" style="stroke:#A80036;stroke-width:0.6;" width="6" x="345.9" y="127.8094"/><rect fill="#FFFFFF" filter="url(#f6v3r0x2h3363)" height="101.2547" style="stroke:#A80036;stroke-width:0.6;" width="6" x="345.9" y="290.8406"/><rect fill="#FFFFFF" filter="url(#f6v3r0x2h3363)" height="18" style="stroke:#A80036;stroke-width:0.6;" width="6" x="439.2" y="192.1969"/><rect fill="#FFFFFF" filter="url(#f6v3r0x2h3363)" height="18.2109" style="stroke:#A80036;stroke-width:0.6;" width="6" x="652.2" y="146.0203"/><rect fill="#FFFFFF" filter="url(#f6v3r0x2h3363)" height="83.0438" style="stroke:#A80036;stroke-width:0.6;" width="6" x="652.2" y="309.0516"/><rect fill="#FFFFFF" filter="url(#f6v3r0x2h3363)" height="18" style="stroke:#A80036;stroke-width:0.6;" width="6" x="753" y="327.2625"/><line style="stroke:#A80036;stroke-width:0.6;stroke-dasharray:5.0,5.0;" x1="29.4" x2="29.4" y1="53.7656" y2="402.8953"/><line style="stroke:#A80036;stroke-width:0.6;stroke-dasharray:5.0,5.0;" x1="247.8" x2="247.8" y1="53.7656" y2="402.8953"/><line style="stroke:#A80036;stroke-width:0.6;stroke-dasharray:5.0,5.0;" x1="348.6" x2="348.6" y1="53.7656" y2="402.8953"/><line style="stroke:#A80036;stroke-width:0.6;stroke-dasharray:5.0,5.0;" x1="442.2" x2="442.2" y1="53.7656" y2="402.8953"/><line style="stroke:#A80036;stroke-width:0.6;stroke-dasharray:5.0,5.0;" x1="514.2" x2="514.2" y1="53.7656" y2="402.8953"/><line style="stroke:#A80036;stroke-width:0.6;stroke-dasharray:5.0,5.0;" x1="583.8" x2="583.8" y1="53.7656" y2="402.8953"/><line style="stroke:#A80036;stroke-width:0.6;stroke-dasharray:5.0,5.0;" x1="655.2" x2="655.2" y1="53.7656" y2="402.8953"/><line style="stroke:#A80036;stroke-width:0.6;stroke-dasharray:5.0,5.0;" x1="756" x2="756" y1="170.8031" y2="402.8953"/><text fill="#000000" font-family="sans-serif" font-size="8.4" lengthAdjust="spacing" textLength="49.8" x="3" y="51.9199">Administrator</text><ellipse cx="29.7" cy="9" fill="#FEFECE" filter="url(#f6v3r0x2h3363)" rx="4.8" ry="4.8" style="stroke:#A80036;stroke-width:1.2;"/><path d="M29.7,13.8 L29.7,30 M21.9,18.6 L37.5,18.6 M29.7,30 L21.9,39 M29.7,30 L37.5,39 " fill="none" filter="url(#f6v3r0x2h3363)" style="stroke:#A80036;stroke-width:1.2;"/><text fill="#000000" font-family="sans-serif" font-size="8.4" lengthAdjust="spacing" textLength="49.8" x="3" y="411.0152">Administrator</text><ellipse cx="29.7" cy="418.8609" fill="#FEFECE" filter="url(#f6v3r0x2h3363)" rx="4.8" ry="4.8" style="stroke:#A80036;stroke-width:1.2;"/><path d="M29.7,423.6609 L29.7,439.8609 M21.9,428.4609 L37.5,428.4609 M29.7,439.8609 L21.9,448.8609 M29.7,439.8609 L37.5,448.8609 " fill="none" filter="url(#f6v3r0x2h3363)" style="stroke:#A80036;stroke-width:1.2;"/><rect fill="#FEFECE" filter="url(#f6v3r0x2h3363)" height="18.9656" style="stroke:#A80036;stroke-width:0.8999999999999999;" width="77.4" x="208.2" y="31.8"/><text fill="#000000" font-family="sans-serif" font-size="8.4" lengthAdjust="spacing" textLength="69" x="212.4" y="44.7199">:RemoveCourierUI</text><rect fill="#FEFECE" filter="url(#f6v3r0x2h3363)" height="18.9656" style="stroke:#A80036;stroke-width:0.8999999999999999;" width="77.4" x="208.2" y="402.2953"/><text fill="#000000" font-family="sans-serif" font-size="8.4" lengthAdjust="spacing" textLength="69" x="212.4" y="415.2152">:RemoveCourierUI</text><rect fill="#FEFECE" filter="url(#f6v3r0x2h3363)" height="18.9656" style="stroke:#A80036;stroke-width:0.8999999999999999;" width="107.4" x="294" y="31.8"/><text fill="#000000" font-family="sans-serif" font-size="8.4" lengthAdjust="spacing" textLength="99" x="298.2" y="44.7199">:RemoveCourierController</text><rect fill="#FEFECE" filter="url(#f6v3r0x2h3363)" height="18.9656" style="stroke:#A80036;stroke-width:0.8999999999999999;" width="107.4" x="294" y="402.2953"/><text fill="#000000" font-family="sans-serif" font-size="8.4" lengthAdjust="spacing" textLength="99" x="298.2" y="415.2152">:RemoveCourierController</text><rect fill="#FEFECE" filter="url(#f6v3r0x2h3363)" height="18.9656" style="stroke:#A80036;stroke-width:0.8999999999999999;" width="62.4" x="409.8" y="31.8"/><text fill="#000000" font-family="sans-serif" font-size="8.4" lengthAdjust="spacing" textLength="54" x="414" y="44.7199">PotApplication</text><rect fill="#FEFECE" filter="url(#f6v3r0x2h3363)" height="18.9656" style="stroke:#A80036;stroke-width:0.8999999999999999;" width="62.4" x="409.8" y="402.2953"/><text fill="#000000" font-family="sans-serif" font-size="8.4" lengthAdjust="spacing" textLength="54" x="414" y="415.2152">PotApplication</text><rect fill="#FEFECE" filter="url(#f6v3r0x2h3363)" height="29.5313" style="stroke:#A80036;stroke-width:0.8999999999999999;" width="64.8" x="480.6" y="21.2344"/><text fill="#000000" font-family="sans-serif" font-size="8.4" lengthAdjust="spacing" textLength="14.4" x="504.6" y="34.1543">app</text><text fill="#000000" font-family="sans-serif" font-size="8.4" lengthAdjust="spacing" textLength="56.4" x="484.8" y="44.7199">:PotApplication</text><rect fill="#FEFECE" filter="url(#f6v3r0x2h3363)" height="29.5313" style="stroke:#A80036;stroke-width:0.8999999999999999;" width="64.8" x="480.6" y="402.2953"/><text fill="#000000" font-family="sans-serif" font-size="8.4" lengthAdjust="spacing" textLength="14.4" x="504.6" y="415.2152">app</text><text fill="#000000" font-family="sans-serif" font-size="8.4" lengthAdjust="spacing" textLength="56.4" x="484.8" y="425.7809">:PotApplication</text><rect fill="#FEFECE" filter="url(#f6v3r0x2h3363)" height="29.5313" style="stroke:#A80036;stroke-width:0.8999999999999999;" width="58.2" x="553.8" y="21.2344"/><text fill="#000000" font-family="sans-serif" font-size="8.4" lengthAdjust="spacing" textLength="28.8" x="567.3" y="34.1543">session</text><text fill="#000000" font-family="sans-serif" font-size="8.4" lengthAdjust="spacing" textLength="49.8" x="558" y="44.7199">:UserSession</text><rect fill="#FEFECE" filter="url(#f6v3r0x2h3363)" height="29.5313" style="stroke:#A80036;stroke-width:0.8999999999999999;" width="58.2" x="553.8" y="402.2953"/><text fill="#000000" font-family="sans-serif" font-size="8.4" lengthAdjust="spacing" textLength="28.8" x="567.3" y="415.2152">session</text><text fill="#000000" font-family="sans-serif" font-size="8.4" lengthAdjust="spacing" textLength="49.8" x="558" y="425.7809">:UserSession</text><rect fill="#FEFECE" filter="url(#f6v3r0x2h3363)" height="29.5313" style="stroke:#A80036;stroke-width:0.8999999999999999;" width="67.2" x="620.4" y="21.2344"/><text fill="#000000" font-family="sans-serif" font-size="8.4" lengthAdjust="spacing" textLength="34.2" x="635.7" y="34.1543">courServ</text><text fill="#000000" font-family="sans-serif" font-size="8.4" lengthAdjust="spacing" textLength="58.8" x="624.6" y="44.7199">:CourierService</text><rect fill="#FEFECE" filter="url(#f6v3r0x2h3363)" height="29.5313" style="stroke:#A80036;stroke-width:0.8999999999999999;" width="67.2" x="620.4" y="402.2953"/><text fill="#000000" font-family="sans-serif" font-size="8.4" lengthAdjust="spacing" textLength="34.2" x="635.7" y="415.2152">courServ</text><text fill="#000000" font-family="sans-serif" font-size="8.4" lengthAdjust="spacing" textLength="58.8" x="624.6" y="425.7809">:CourierService</text><rect fill="#FEFECE" filter="url(#f6v3r0x2h3363)" height="18.9656" style="stroke:#A80036;stroke-width:0.8999999999999999;" width="50.4" x="729.6" y="402.2953"/><text fill="#000000" font-family="sans-serif" font-size="8.4" lengthAdjust="spacing" textLength="42" x="733.8" y="415.2152">:CourierDB</text><rect fill="#FFFFFF" filter="url(#f6v3r0x2h3363)" height="332.3297" style="stroke:#A80036;stroke-width:0.6;" width="6" x="26.7" y="59.7656"/><rect fill="#FFFFFF" filter="url(#f6v3r0x2h3363)" height="18.2109" style="stroke:#A80036;stroke-width:0.6;" width="6" x="245.1" y="73.1766"/><rect fill="#FFFFFF" filter="url(#f6v3r0x2h3363)" height="144.8203" style="stroke:#A80036;stroke-width:0.6;" width="6" x="245.1" y="109.5984"/><rect fill="#FFFFFF" filter="url(#f6v3r0x2h3363)" height="119.4656" style="stroke:#A80036;stroke-width:0.6;" width="6" x="245.1" y="272.6297"/><rect fill="#FFFFFF" filter="url(#f6v3r0x2h3363)" height="104.1984" style="stroke:#A80036;stroke-width:0.6;" width="6" x="345.9" y="127.8094"/><rect fill="#FFFFFF" filter="url(#f6v3r0x2h3363)" height="101.2547" style="stroke:#A80036;stroke-width:0.6;" width="6" x="345.9" y="290.8406"/><rect fill="#FFFFFF" filter="url(#f6v3r0x2h3363)" height="18" style="stroke:#A80036;stroke-width:0.6;" width="6" x="439.2" y="192.1969"/><rect fill="#FFFFFF" filter="url(#f6v3r0x2h3363)" height="18.2109" style="stroke:#A80036;stroke-width:0.6;" width="6" x="652.2" y="146.0203"/><rect fill="#FFFFFF" filter="url(#f6v3r0x2h3363)" height="83.0438" style="stroke:#A80036;stroke-width:0.6;" width="6" x="652.2" y="309.0516"/><rect fill="#FFFFFF" filter="url(#f6v3r0x2h3363)" height="18" style="stroke:#A80036;stroke-width:0.6;" width="6" x="753" y="327.2625"/><polygon fill="#A80036" points="237.9,70.7766,243.9,73.1766,237.9,75.5766,240.3,73.1766" style="stroke:#A80036;stroke-width:0.6;"/><line style="stroke:#A80036;stroke-width:0.6;" x1="32.7" x2="241.5" y1="73.1766" y2="73.1766"/><text fill="#000000" font-family="sans-serif" font-size="7.8" font-weight="bold" lengthAdjust="spacing" textLength="4.2" x="36.9" y="70.2627">1</text><text fill="#000000" font-family="sans-serif" font-size="7.8" lengthAdjust="spacing" textLength="114.6" x="43.5" y="70.2627">initializes the remove of a Courier</text><polygon fill="#A80036" points="39.3,88.9875,33.3,91.3875,39.3,93.7875,36.9,91.3875" style="stroke:#A80036;stroke-width:0.6;"/><line style="stroke:#A80036;stroke-width:0.6;" x1="35.7" x2="247.5" y1="91.3875" y2="91.3875"/><text fill="#000000" font-family="sans-serif" font-size="7.8" font-weight="bold" lengthAdjust="spacing" textLength="4.2" x="42.9" y="88.4736">2</text><text fill="#000000" font-family="sans-serif" font-size="7.8" lengthAdjust="spacing" textLength="93" x="49.5" y="88.4736">asks for the courier's email</text><polygon fill="#A80036" points="237.9,107.1984,243.9,109.5984,237.9,111.9984,240.3,109.5984" style="stroke:#A80036;stroke-width:0.6;"/><line style="stroke:#A80036;stroke-width:0.6;" x1="32.7" x2="241.5" y1="109.5984" y2="109.5984"/><text fill="#000000" font-family="sans-serif" font-size="7.8" font-weight="bold" lengthAdjust="spacing" textLength="4.2" x="36.9" y="106.6846">3</text><text fill="#000000" font-family="sans-serif" font-size="7.8" lengthAdjust="spacing" textLength="84" x="43.5" y="106.6846">inserts the required data</text><polygon fill="#A80036" points="338.7,125.4094,344.7,127.8094,338.7,130.2094,341.1,127.8094" style="stroke:#A80036;stroke-width:0.6;"/><line style="stroke:#A80036;stroke-width:0.6;" x1="251.1" x2="342.3" y1="127.8094" y2="127.8094"/><text fill="#000000" font-family="sans-serif" font-size="7.8" font-weight="bold" lengthAdjust="spacing" textLength="4.2" x="255.3" y="124.8955">4</text><text fill="#000000" font-family="sans-serif" font-size="7.8" lengthAdjust="spacing" textLength="73.8" x="261.9" y="124.8955">validateCourier(email)</text><polygon fill="#A80036" points="645,143.6203,651,146.0203,645,148.4203,647.4,146.0203" style="stroke:#A80036;stroke-width:0.6;"/><line style="stroke:#A80036;stroke-width:0.6;" x1="351.9" x2="648.6" y1="146.0203" y2="146.0203"/><text fill="#000000" font-family="sans-serif" font-size="7.8" font-weight="bold" lengthAdjust="spacing" textLength="4.2" x="356.1" y="143.1064">5</text><text fill="#000000" font-family="sans-serif" font-size="7.8" lengthAdjust="spacing" textLength="26.4" x="362.7" y="143.1064">create()</text><polygon fill="#A80036" points="722.4,161.8312,728.4,164.2313,722.4,166.6313,724.8,164.2313" style="stroke:#A80036;stroke-width:0.6;"/><line style="stroke:#A80036;stroke-width:0.6;" x1="655.2" x2="726" y1="164.2313" y2="164.2313"/><text fill="#000000" font-family="sans-serif" font-size="7.8" font-weight="bold" lengthAdjust="spacing" textLength="4.2" x="659.4" y="161.3174">6</text><text fill="#000000" font-family="sans-serif" font-size="7.8" lengthAdjust="spacing" textLength="26.4" x="666" y="161.3174">create()</text><rect fill="#FEFECE" filter="url(#f6v3r0x2h3363)" height="18.9656" style="stroke:#A80036;stroke-width:0.8999999999999999;" width="50.4" x="729.6" y="150.8203"/><text fill="#000000" font-family="sans-serif" font-size="8.4" lengthAdjust="spacing" textLength="42" x="733.8" y="163.7402">:CourierDB</text><polygon fill="#A80036" points="432,189.7969,438,192.1969,432,194.5969,434.4,192.1969" style="stroke:#A80036;stroke-width:0.6;"/><line style="stroke:#A80036;stroke-width:0.6;" x1="351.9" x2="435.6" y1="192.1969" y2="192.1969"/><text fill="#000000" font-family="sans-serif" font-size="7.8" font-weight="bold" lengthAdjust="spacing" textLength="4.2" x="356.1" y="189.283">7</text><text fill="#000000" font-family="sans-serif" font-size="7.8" lengthAdjust="spacing" textLength="67.2" x="362.7" y="189.283">app = getInstance()</text><line style="stroke:#A80036;stroke-width:0.6;" x1="351.9" x2="377.1" y1="231.4078" y2="231.4078"/><line style="stroke:#A80036;stroke-width:0.6;" x1="377.1" x2="377.1" y1="231.4078" y2="239.2078"/><line style="stroke:#A80036;stroke-width:0.6;" x1="348.9" x2="377.1" y1="239.2078" y2="239.2078"/><polygon fill="#A80036" points="354.9,236.8078,348.9,239.2078,354.9,241.6078,352.5,239.2078" style="stroke:#A80036;stroke-width:0.6;"/><text fill="#000000" font-family="sans-serif" font-size="7.8" font-weight="bold" lengthAdjust="spacing" textLength="4.2" x="356.1" y="228.4939">8</text><text fill="#000000" font-family="sans-serif" font-size="7.8" lengthAdjust="spacing" textLength="66" x="362.7" y="228.4939">validateInput(email)</text><polygon fill="#A80036" points="39.3,252.0187,33.3,254.4188,39.3,256.8187,36.9,254.4188" style="stroke:#A80036;stroke-width:0.6;"/><line style="stroke:#A80036;stroke-width:0.6;" x1="35.7" x2="247.5" y1="254.4188" y2="254.4188"/><text fill="#000000" font-family="sans-serif" font-size="7.8" font-weight="bold" lengthAdjust="spacing" textLength="4.2" x="42.9" y="251.5049">9</text><text fill="#000000" font-family="sans-serif" font-size="7.8" lengthAdjust="spacing" textLength="191.4" x="49.5" y="251.5049">validates, presents the data and asks for a confirmation</text><polygon fill="#A80036" points="237.9,270.2297,243.9,272.6297,237.9,275.0297,240.3,272.6297" style="stroke:#A80036;stroke-width:0.6;"/><line style="stroke:#A80036;stroke-width:0.6;" x1="32.7" x2="241.5" y1="272.6297" y2="272.6297"/><text fill="#000000" font-family="sans-serif" font-size="7.8" font-weight="bold" lengthAdjust="spacing" textLength="8.4" x="36.9" y="269.7158">10</text><text fill="#000000" font-family="sans-serif" font-size="7.8" lengthAdjust="spacing" textLength="29.4" x="47.7" y="269.7158">confirms</text><polygon fill="#A80036" points="338.7,288.4406,344.7,290.8406,338.7,293.2406,341.1,290.8406" style="stroke:#A80036;stroke-width:0.6;"/><line style="stroke:#A80036;stroke-width:0.6;" x1="251.1" x2="342.3" y1="290.8406" y2="290.8406"/><text fill="#000000" font-family="sans-serif" font-size="7.8" font-weight="bold" lengthAdjust="spacing" textLength="8.4" x="255.3" y="287.9268">11</text><text fill="#000000" font-family="sans-serif" font-size="7.8" lengthAdjust="spacing" textLength="72.6" x="266.1" y="287.9268">removeCourier(email)</text><polygon fill="#A80036" points="645,306.6516,651,309.0516,645,311.4516,647.4,309.0516" style="stroke:#A80036;stroke-width:0.6;"/><line style="stroke:#A80036;stroke-width:0.6;" x1="351.9" x2="648.6" y1="309.0516" y2="309.0516"/><text fill="#000000" font-family="sans-serif" font-size="7.8" font-weight="bold" lengthAdjust="spacing" textLength="8.4" x="356.1" y="306.1377">12</text><text fill="#000000" font-family="sans-serif" font-size="7.8" lengthAdjust="spacing" textLength="72.6" x="366.9" y="306.1377">removeCourier(email)</text><polygon fill="#A80036" points="745.8,324.8625,751.8,327.2625,745.8,329.6625,748.2,327.2625" style="stroke:#A80036;stroke-width:0.6;"/><line style="stroke:#A80036;stroke-width:0.6;" x1="658.2" x2="749.4" y1="327.2625" y2="327.2625"/><text fill="#000000" font-family="sans-serif" font-size="7.8" font-weight="bold" lengthAdjust="spacing" textLength="8.4" x="662.4" y="324.3486">13</text><text fill="#000000" font-family="sans-serif" font-size="7.8" lengthAdjust="spacing" textLength="72.6" x="673.2" y="324.3486">removeCourier(email)</text><rect fill="#FFFFFF" filter="url(#f6v3r0x2h3363)" height="25.6219" style="stroke:#000000;stroke-width:1.2;" width="75.6" x="727.8" y="350.0625"/><polygon fill="#EEEEEE" points="727.8,350.0625,765,350.0625,765,354.8625,759,360.8625,727.8,360.8625,727.8,350.0625" style="stroke:#000000;stroke-width:1.2;"/><text fill="#000000" font-family="sans-serif" font-size="7.8" font-weight="bold" lengthAdjust="spacing" textLength="10.2" x="735.6" y="359.3596">ref</text><text fill="#000000" font-family="sans-serif" font-size="7.8" lengthAdjust="spacing" textLength="70.8" x="731.4" y="371.3596">SD_CONNECTIONS</text><polygon fill="#A80036" points="36.3,389.6953,30.3,392.0953,36.3,394.4953,33.9,392.0953" style="stroke:#A80036;stroke-width:0.6;"/><line style="stroke:#A80036;stroke-width:0.6;" x1="32.7" x2="247.5" y1="392.0953" y2="392.0953"/><text fill="#000000" font-family="sans-serif" font-size="7.8" font-weight="bold" lengthAdjust="spacing" textLength="8.4" x="39.9" y="389.1814">14</text><text fill="#000000" font-family="sans-serif" font-size="7.8" lengthAdjust="spacing" textLength="126" x="50.7" y="389.1814">informs the success of the operation</text><!--MD5=[e41968733d8ce36c74a726f156b7f31c]
@startuml
autonumber
actor "Administrator" as ADMIN

participant ":RemoveCourierUI" as UI
participant ":RemoveCourierController" as CTRL
participant "PotApplication" as PA
participant "app \n:PotApplication" as APA
participant "session \n:UserSession" as US
participant "courServ \n:CourierService" as RF
participant ":CourierDB" as CDB

activate ADMIN

ADMIN -> UI : initializes the remove of a Courier
activate UI
UI -> ADMIN : asks for the courier's email
deactivate UI

ADMIN -> UI : inserts the required data
activate UI
UI -> CTRL : validateCourier(email)
activate CTRL
CTRL -> RF : create()
activate RF
RF -> CDB** : create()
deactivate RF
CTRL -> PA : app = getInstance()
activate PA
deactivate PA
deactivate US
CTRL -> CTRL : validateInput(email)
deactivate RF
deactivate CTRL

UI -> ADMIN : validates, presents the data and asks for a confirmation
deactivate UI

ADMIN -> UI : confirms
activate UI
UI -> CTRL : removeCourier(email)
activate CTRL
CTRL -> RF : removeCourier(email)
activate RF
RF -> CDB : removeCourier(email)
activate CDB
deactivate CDB
ref over CDB : SD_CONNECTIONS
UI -> ADMIN : informs the success of the operation
deactivate RF
deactivate CTRL
deactivate UI

deactivate ADMIN

@enduml

PlantUML version 1.2021.00(Sun Jan 10 10:25:05 GMT 2021)
(GPL source distribution)
Java Runtime: OpenJDK Runtime Environment
JVM: OpenJDK 64-Bit Server VM
Default Encoding: Cp1252
Language: pt
Country: PT
--></g></svg>