<?xml version="1.0" encoding="UTF-8" standalone="no"?><svg xmlns="http://www.w3.org/2000/svg" xmlns:xlink="http://www.w3.org/1999/xlink" contentScriptType="application/ecmascript" contentStyleType="text/css" height="712.2px" preserveAspectRatio="none" style="width:655px;height:712px;" version="1.1" viewBox="0 0 655 712" width="655.2px" zoomAndPan="magnify"><defs><filter height="300%" id="f8o595uyci7z4" width="300%" x="-1" y="-1"><feGaussianBlur result="blurOut" stdDeviation="1.2"/><feColorMatrix in="blurOut" result="blurOut2" type="matrix" values="0 0 0 0 0 0 0 0 0 0 0 0 0 0 0 0 0 0 .4 0"/><feOffset dx="2.4" dy="2.4" in="blurOut2" result="blurOut3"/><feBlend in="SourceGraphic" in2="blurOut3" mode="normal"/></filter></defs><g><!--MD5=[9681dc6e01e10c6b4fe06895ae94f592]
cluster UI--><polygon fill="#DDDDDD" filter="url(#f8o595uyci7z4)" points="103.8,14.4,115.8,14.4,120,28.5656,198.6,28.5656,198.6,74.4,103.8,74.4,103.8,14.4" style="stroke: #000000; stroke-width: 0.8999999999999999;"/><line style="stroke: #000000; stroke-width: 0.8999999999999999;" x1="103.8" x2="120" y1="28.5656" y2="28.5656"/><text fill="#000000" font-family="sans-serif" font-size="8.4" font-weight="bold" lengthAdjust="spacingAndGlyphs" textLength="8.4" x="106.2" y="24.3199">UI</text><!--MD5=[1f2cfc53d9d308f53762fd0fcbaa4873]
cluster Controller--><polygon fill="#DDDDDD" filter="url(#f8o595uyci7z4)" points="90,94.2,136.2,94.2,140.4,108.3656,212.4,108.3656,212.4,179.4,90,179.4,90,94.2" style="stroke: #000000; stroke-width: 0.8999999999999999;"/><line style="stroke: #000000; stroke-width: 0.8999999999999999;" x1="90" x2="140.4" y1="108.3656" y2="108.3656"/><text fill="#000000" font-family="sans-serif" font-size="8.4" font-weight="bold" lengthAdjust="spacingAndGlyphs" textLength="42.6" x="92.4" y="104.1199">Controller</text><!--MD5=[15636c1ca4a123c16a2a1a8e90aca7a9]
cluster Model--><polygon fill="#DDDDDD" filter="url(#f8o595uyci7z4)" points="13.2,199.2,43.2,199.2,47.4,213.3656,340.2,213.3656,340.2,705,13.2,705,13.2,199.2" style="stroke: #000000; stroke-width: 0.8999999999999999;"/><line style="stroke: #000000; stroke-width: 0.8999999999999999;" x1="13.2" x2="47.4" y1="213.3656" y2="213.3656"/><text fill="#000000" font-family="sans-serif" font-size="8.4" font-weight="bold" lengthAdjust="spacingAndGlyphs" textLength="26.4" x="15.6" y="209.1199">Model</text><!--MD5=[9dd75fd92da113d30380b27734fd2f01]
cluster Service--><polygon fill="#DDDDDD" filter="url(#f8o595uyci7z4)" points="70.8,225.6,106.8,225.6,111,239.7656,282.6,239.7656,282.6,310.8,70.8,310.8,70.8,225.6" style="stroke: #000000; stroke-width: 0.8999999999999999;"/><line style="stroke: #000000; stroke-width: 0.8999999999999999;" x1="70.8" x2="111" y1="239.7656" y2="239.7656"/><text fill="#000000" font-family="sans-serif" font-size="8.4" font-weight="bold" lengthAdjust="spacingAndGlyphs" textLength="32.4" x="73.2" y="235.5199">Service</text><!--MD5=[f21b1f164e99c6b37934f23ad048ad54]
cluster Data--><polygon fill="#DDDDDD" filter="url(#f8o595uyci7z4)" points="442.2,229.8,464.4,229.8,468.6,243.9656,642,243.9656,642,441.6,442.2,441.6,442.2,229.8" style="stroke: #000000; stroke-width: 0.8999999999999999;"/><line style="stroke: #000000; stroke-width: 0.8999999999999999;" x1="442.2" x2="468.6" y1="243.9656" y2="243.9656"/><text fill="#000000" font-family="sans-serif" font-size="8.4" font-weight="bold" lengthAdjust="spacingAndGlyphs" textLength="18.6" x="444.6" y="239.7199">Data</text><!--MD5=[fa1e3283224feb76407c84b7e90ed808]
entity Database--><path d="M366.9,266.1 C366.9,260.1 391.2,260.1 391.2,260.1 C391.2,260.1 415.5,260.1 415.5,266.1 L415.5,282.0656 C415.5,288.0656 391.2,288.0656 391.2,288.0656 C391.2,288.0656 366.9,288.0656 366.9,282.0656 L366.9,266.1 " fill="#FFFFFF" filter="url(#f8o595uyci7z4)" style="stroke: #000000; stroke-width: 0.8999999999999999;"/><path d="M366.9,266.1 C366.9,272.1 391.2,272.1 391.2,272.1 C391.2,272.1 415.5,272.1 415.5,266.1 " fill="none" style="stroke: #000000; stroke-width: 0.8999999999999999;"/><text fill="#000000" font-family="sans-serif" font-size="8.4" lengthAdjust="spacingAndGlyphs" textLength="36.6" x="372.9" y="283.2199">Database</text><!--MD5=[56b05040cba7ba1143e43c771f04a5c5]
class UpdateScooterUI--><rect fill="#FEFECE" filter="url(#f8o595uyci7z4)" height="28.8" id="UpdateScooterUI" style="stroke: #A80036; stroke-width: 0.8999999999999999;" width="75.6" x="113.4" y="36"/><ellipse cx="122.4" cy="45.6" fill="#ADD1B2" rx="6.6" ry="6.6" style="stroke: #A80036; stroke-width: 0.6;"/><path d="M123.6,43.5 Q123.7219,43.2 123.8625,43.05 Q124.0031,42.9 124.1625,42.9 Q124.4438,42.9 124.6219,43.0688 Q124.8,43.2375 124.8,43.6313 L124.8,44.5688 Q124.8,44.9625 124.6313,45.1313 Q124.4625,45.3 124.2,45.3 Q123.9656,45.3 123.8156,45.1969 Q123.6656,45.0938 123.6,44.8219 Q123.5719,44.6344 123.4688,44.5313 Q123.2813,44.3344 122.9438,44.2219 Q122.6062,44.1 122.2688,44.1 Q121.8469,44.1 121.4906,44.2688 Q121.1438,44.4375 120.8719,44.8125 Q120.6,45.1875 120.6,45.7031 L120.6,46.2563 Q120.6,46.875 121.1062,47.2875 Q121.6125,47.7 122.5125,47.7 Q123.0469,47.7 123.4219,47.5781 Q123.6375,47.5125 123.8813,47.2969 Q124.0406,47.175 124.125,47.1375 Q124.2094,47.1 124.3125,47.1 Q124.5094,47.1 124.65,47.2594 Q124.8,47.4094 124.8,47.625 Q124.8,47.8313 124.5938,48.075 Q124.2937,48.4313 123.8156,48.6281 Q123.1875,48.9 122.4187,48.9 Q121.5188,48.9 120.7969,48.5437 Q120.2156,48.2625 119.8031,47.6531 Q119.4,47.0437 119.4,46.3219 L119.4,45.6656 Q119.4,44.9156 119.7563,44.2594 Q120.1219,43.6031 120.75,43.2563 Q121.3875,42.9 122.1,42.9 Q122.5313,42.9 122.9063,43.05 Q123.2813,43.2 123.6,43.5 Z "/><text fill="#000000" font-family="sans-serif" font-size="7.2" lengthAdjust="spacingAndGlyphs" textLength="56.4" x="130.8" y="48.5461">UpdateScooterUI</text><line style="stroke: #A80036; stroke-width: 0.8999999999999999;" x1="114" x2="188.4" y1="55.2" y2="55.2"/><line style="stroke: #A80036; stroke-width: 0.8999999999999999;" x1="114" x2="188.4" y1="60" y2="60"/><!--MD5=[3e55a46d736e61deccb82423bbd922fc]
class UpdateScooterController--><rect fill="#FEFECE" filter="url(#f8o595uyci7z4)" height="53.7047" id="UpdateScooterController" style="stroke: #A80036; stroke-width: 0.8999999999999999;" width="102.6" x="99.9" y="115.8"/><ellipse cx="109.71" cy="125.4" fill="#ADD1B2" rx="6.6" ry="6.6" style="stroke: #A80036; stroke-width: 0.6;"/><path d="M110.91,123.3 Q111.0319,123 111.1725,122.85 Q111.3131,122.7 111.4725,122.7 Q111.7538,122.7 111.9319,122.8687 Q112.11,123.0375 112.11,123.4312 L112.11,124.3687 Q112.11,124.7625 111.9413,124.9312 Q111.7725,125.1 111.51,125.1 Q111.2756,125.1 111.1256,124.9969 Q110.9756,124.8938 110.91,124.6219 Q110.8819,124.4344 110.7787,124.3313 Q110.5912,124.1344 110.2538,124.0219 Q109.9162,123.9 109.5788,123.9 Q109.1569,123.9 108.8006,124.0688 Q108.4538,124.2375 108.1819,124.6125 Q107.91,124.9875 107.91,125.5031 L107.91,126.0562 Q107.91,126.675 108.4162,127.0875 Q108.9225,127.5 109.8225,127.5 Q110.3569,127.5 110.7319,127.3781 Q110.9475,127.3125 111.1913,127.0969 Q111.3506,126.975 111.435,126.9375 Q111.5194,126.9 111.6225,126.9 Q111.8194,126.9 111.96,127.0594 Q112.11,127.2094 112.11,127.425 Q112.11,127.6313 111.9037,127.875 Q111.6037,128.2313 111.1256,128.4281 Q110.4975,128.7 109.7287,128.7 Q108.8288,128.7 108.1069,128.3438 Q107.5256,128.0625 107.1131,127.4531 Q106.71,126.8438 106.71,126.1219 L106.71,125.4656 Q106.71,124.7156 107.0663,124.0594 Q107.4319,123.4031 108.06,123.0562 Q108.6975,122.7 109.41,122.7 Q109.8412,122.7 110.2162,122.85 Q110.5912,123 110.91,123.3 Z "/><text fill="#000000" font-family="sans-serif" font-size="7.2" lengthAdjust="spacingAndGlyphs" textLength="81.6" x="118.29" y="128.3461">UpdateScooterController</text><line style="stroke: #A80036; stroke-width: 0.8999999999999999;" x1="100.5" x2="201.9" y1="135" y2="135"/><line style="stroke: #A80036; stroke-width: 0.8999999999999999;" x1="100.5" x2="201.9" y1="139.8" y2="139.8"/><text fill="#000000" font-family="sans-serif" font-size="6.6" lengthAdjust="spacingAndGlyphs" textLength="58.8" x="103.5" y="149.0514">+showPharmacies()</text><text fill="#000000" font-family="sans-serif" font-size="6.6" lengthAdjust="spacingAndGlyphs" textLength="95.4" x="103.5" y="157.3529">+showScootersList(pharmacyId)</text><text fill="#000000" font-family="sans-serif" font-size="6.6" lengthAdjust="spacingAndGlyphs" textLength="67.2" x="103.5" y="165.6545">+updateScooter(scoot)</text><!--MD5=[f4402668d5d5bb8485350c0fdb60ac8e]
class Scooter--><rect fill="#FEFECE" filter="url(#f8o595uyci7z4)" height="111.8156" id="Scooter" style="stroke: #A80036; stroke-width: 0.8999999999999999;" width="197.4" x="132.9" y="349.2"/><ellipse cx="216.45" cy="358.8" fill="#ADD1B2" rx="6.6" ry="6.6" style="stroke: #A80036; stroke-width: 0.6;"/><path d="M217.65,356.7 Q217.7719,356.4 217.9125,356.25 Q218.0531,356.1 218.2125,356.1 Q218.4938,356.1 218.6719,356.2688 Q218.85,356.4375 218.85,356.8313 L218.85,357.7688 Q218.85,358.1625 218.6813,358.3313 Q218.5125,358.5 218.25,358.5 Q218.0156,358.5 217.8656,358.3969 Q217.7156,358.2938 217.65,358.0219 Q217.6219,357.8344 217.5187,357.7313 Q217.3312,357.5344 216.9938,357.4219 Q216.6563,357.3 216.3188,357.3 Q215.8969,357.3 215.5406,357.4688 Q215.1938,357.6375 214.9219,358.0125 Q214.65,358.3875 214.65,358.9031 L214.65,359.4563 Q214.65,360.075 215.1563,360.4875 Q215.6625,360.9 216.5625,360.9 Q217.0969,360.9 217.4719,360.7781 Q217.6875,360.7125 217.9313,360.4969 Q218.0906,360.375 218.175,360.3375 Q218.2594,360.3 218.3625,360.3 Q218.5594,360.3 218.7,360.4594 Q218.85,360.6094 218.85,360.825 Q218.85,361.0313 218.6437,361.275 Q218.3438,361.6312 217.8656,361.8281 Q217.2375,362.1 216.4688,362.1 Q215.5688,362.1 214.8469,361.7438 Q214.2656,361.4625 213.8531,360.8531 Q213.45,360.2438 213.45,359.5219 L213.45,358.8656 Q213.45,358.1156 213.8063,357.4594 Q214.1719,356.8031 214.8,356.4563 Q215.4375,356.1 216.15,356.1 Q216.5812,356.1 216.9562,356.25 Q217.3312,356.4 217.65,356.7 Z "/><text fill="#000000" font-family="sans-serif" font-size="7.2" lengthAdjust="spacingAndGlyphs" textLength="25.2" x="228.75" y="361.7461">Scooter</text><line style="stroke: #A80036; stroke-width: 0.8999999999999999;" x1="133.5" x2="329.7" y1="368.4" y2="368.4"/><text fill="#000000" font-family="sans-serif" font-size="6.6" lengthAdjust="spacingAndGlyphs" textLength="15.6" x="136.5" y="377.6514">-int id</text><text fill="#000000" font-family="sans-serif" font-size="6.6" lengthAdjust="spacingAndGlyphs" textLength="50.4" x="136.5" y="385.9529">-float batteryPerc</text><text fill="#000000" font-family="sans-serif" font-size="6.6" lengthAdjust="spacingAndGlyphs" textLength="61.2" x="136.5" y="394.2545">-String charginStatus</text><text fill="#000000" font-family="sans-serif" font-size="6.6" lengthAdjust="spacingAndGlyphs" textLength="40.2" x="136.5" y="402.5561">-float potency</text><text fill="#000000" font-family="sans-serif" font-size="6.6" lengthAdjust="spacingAndGlyphs" textLength="36.6" x="136.5" y="410.8576">-float weight</text><text fill="#000000" font-family="sans-serif" font-size="6.6" lengthAdjust="spacingAndGlyphs" textLength="56.4" x="136.5" y="419.1592">-int batteryCapacity</text><text fill="#000000" font-family="sans-serif" font-size="6.6" lengthAdjust="spacingAndGlyphs" textLength="51.6" x="136.5" y="427.4607">-float maxPayload</text><text fill="#000000" font-family="sans-serif" font-size="6.6" lengthAdjust="spacingAndGlyphs" textLength="59.4" x="136.5" y="435.7623">-float batteryVoltage</text><line style="stroke: #A80036; stroke-width: 0.8999999999999999;" x1="133.5" x2="329.7" y1="439.6125" y2="439.6125"/><text fill="#000000" font-family="sans-serif" font-size="6.6" lengthAdjust="spacingAndGlyphs" textLength="135" x="136.5" y="448.8639">+Scooter(batteryPerc, charginStatus, potency,</text><text fill="#000000" font-family="sans-serif" font-size="6.6" lengthAdjust="spacingAndGlyphs" textLength="188.4" x="138.3" y="457.1654">weight, batteryCapacity, maxPayload, batteryVoltage, pharmacy)</text><!--MD5=[0f39e4cb6f03951afbf6d14bd2505654]
class Address--><rect fill="#FEFECE" filter="url(#f8o595uyci7z4)" height="86.9109" id="Address" style="stroke: #A80036; stroke-width: 0.8999999999999999;" width="63.6" x="199.8" y="608.4"/><ellipse cx="216.36" cy="618" fill="#ADD1B2" rx="6.6" ry="6.6" style="stroke: #A80036; stroke-width: 0.6;"/><path d="M217.56,615.9 Q217.6819,615.6 217.8225,615.45 Q217.9631,615.3 218.1225,615.3 Q218.4038,615.3 218.5819,615.4688 Q218.76,615.6375 218.76,616.0313 L218.76,616.9688 Q218.76,617.3625 218.5913,617.5313 Q218.4225,617.7 218.16,617.7 Q217.9256,617.7 217.7756,617.5969 Q217.6256,617.4938 217.56,617.2219 Q217.5319,617.0344 217.4288,616.9313 Q217.2413,616.7344 216.9038,616.6219 Q216.5663,616.5 216.2288,616.5 Q215.8069,616.5 215.4506,616.6687 Q215.1038,616.8375 214.8319,617.2125 Q214.56,617.5875 214.56,618.1031 L214.56,618.6563 Q214.56,619.275 215.0663,619.6875 Q215.5725,620.1 216.4725,620.1 Q217.0069,620.1 217.3819,619.9781 Q217.5975,619.9125 217.8413,619.6969 Q218.0006,619.575 218.085,619.5375 Q218.1694,619.5 218.2725,619.5 Q218.4694,619.5 218.61,619.6594 Q218.76,619.8094 218.76,620.025 Q218.76,620.2312 218.5538,620.475 Q218.2538,620.8313 217.7756,621.0281 Q217.1475,621.3 216.3788,621.3 Q215.4788,621.3 214.7569,620.9438 Q214.1756,620.6625 213.7631,620.0531 Q213.36,619.4438 213.36,618.7219 L213.36,618.0656 Q213.36,617.3156 213.7163,616.6594 Q214.0819,616.0031 214.71,615.6563 Q215.3475,615.3 216.06,615.3 Q216.4913,615.3 216.8663,615.45 Q217.2413,615.6 217.56,615.9 Z "/><text fill="#000000" font-family="sans-serif" font-size="7.2" lengthAdjust="spacingAndGlyphs" textLength="27.6" x="226.44" y="620.9461">Address</text><line style="stroke: #A80036; stroke-width: 0.8999999999999999;" x1="200.4" x2="262.8" y1="627.6" y2="627.6"/><text fill="#000000" font-family="sans-serif" font-size="6.6" lengthAdjust="spacingAndGlyphs" textLength="42.6" x="203.4" y="636.8514">-float longitude</text><text fill="#000000" font-family="sans-serif" font-size="6.6" lengthAdjust="spacingAndGlyphs" textLength="37.2" x="203.4" y="645.1529">-float latitude</text><text fill="#000000" font-family="sans-serif" font-size="6.6" lengthAdjust="spacingAndGlyphs" textLength="56.4" x="203.4" y="653.4545">-String doorNumber</text><text fill="#000000" font-family="sans-serif" font-size="6.6" lengthAdjust="spacingAndGlyphs" textLength="54" x="203.4" y="661.7561">-String streetName</text><text fill="#000000" font-family="sans-serif" font-size="6.6" lengthAdjust="spacingAndGlyphs" textLength="53.4" x="203.4" y="670.0576">-String postalCode</text><text fill="#000000" font-family="sans-serif" font-size="6.6" lengthAdjust="spacingAndGlyphs" textLength="40.8" x="203.4" y="678.3592">-String locality</text><text fill="#000000" font-family="sans-serif" font-size="6.6" lengthAdjust="spacingAndGlyphs" textLength="43.2" x="203.4" y="686.6607">-String country</text><line style="stroke: #A80036; stroke-width: 0.8999999999999999;" x1="200.4" x2="262.8" y1="690.5109" y2="690.5109"/><!--MD5=[7f2a9fafcebe4f099f71398fd3e2ed00]
class Pharmacy--><rect fill="#FEFECE" filter="url(#f8o595uyci7z4)" height="53.7047" id="Pharmacy" style="stroke: #A80036; stroke-width: 0.8999999999999999;" width="61.2" x="201" y="507.6"/><ellipse cx="214.05" cy="517.2" fill="#ADD1B2" rx="6.6" ry="6.6" style="stroke: #A80036; stroke-width: 0.6;"/><path d="M215.25,515.1 Q215.3719,514.8 215.5125,514.65 Q215.6531,514.5 215.8125,514.5 Q216.0938,514.5 216.2719,514.6687 Q216.45,514.8375 216.45,515.2312 L216.45,516.1687 Q216.45,516.5625 216.2813,516.7312 Q216.1125,516.9 215.85,516.9 Q215.6156,516.9 215.4656,516.7969 Q215.3156,516.6938 215.25,516.4219 Q215.2219,516.2344 215.1188,516.1313 Q214.9313,515.9344 214.5938,515.8219 Q214.2563,515.7 213.9188,515.7 Q213.4969,515.7 213.1406,515.8688 Q212.7938,516.0375 212.5219,516.4125 Q212.25,516.7875 212.25,517.3031 L212.25,517.8562 Q212.25,518.475 212.7563,518.8875 Q213.2625,519.3 214.1625,519.3 Q214.6969,519.3 215.0719,519.1781 Q215.2875,519.1125 215.5313,518.8969 Q215.6906,518.775 215.775,518.7375 Q215.8594,518.7 215.9625,518.7 Q216.1594,518.7 216.3,518.8594 Q216.45,519.0094 216.45,519.225 Q216.45,519.4313 216.2438,519.675 Q215.9438,520.0313 215.4656,520.2281 Q214.8375,520.5 214.0688,520.5 Q213.1688,520.5 212.4469,520.1438 Q211.8656,519.8625 211.4531,519.2531 Q211.05,518.6438 211.05,517.9219 L211.05,517.2656 Q211.05,516.5156 211.4063,515.8594 Q211.7719,515.2031 212.4,514.8562 Q213.0375,514.5 213.75,514.5 Q214.1813,514.5 214.5563,514.65 Q214.9313,514.8 215.25,515.1 Z "/><text fill="#000000" font-family="sans-serif" font-size="7.2" lengthAdjust="spacingAndGlyphs" textLength="33" x="223.35" y="520.1461">Pharmacy</text><line style="stroke: #A80036; stroke-width: 0.8999999999999999;" x1="201.6" x2="261.6" y1="526.8" y2="526.8"/><text fill="#000000" font-family="sans-serif" font-size="6.6" lengthAdjust="spacingAndGlyphs" textLength="15.6" x="204.6" y="536.0514">-int id</text><text fill="#000000" font-family="sans-serif" font-size="6.6" lengthAdjust="spacingAndGlyphs" textLength="36.6" x="204.6" y="544.3529">-String name</text><line style="stroke: #A80036; stroke-width: 0.8999999999999999;" x1="201.6" x2="261.6" y1="548.2031" y2="548.2031"/><text fill="#000000" font-family="sans-serif" font-size="6.6" lengthAdjust="spacingAndGlyphs" textLength="54" x="204.6" y="557.4545">+getScootersList()</text><!--MD5=[28160fdc0be430cd6f04db15a7547552]
class PharmacyService--><rect fill="#FEFECE" filter="url(#f8o595uyci7z4)" height="45.4031" id="PharmacyService" style="stroke: #A80036; stroke-width: 0.8999999999999999;" width="76.2" x="80.7" y="251.4"/><ellipse cx="89.7" cy="261" fill="#ADD1B2" rx="6.6" ry="6.6" style="stroke: #A80036; stroke-width: 0.6;"/><path d="M90.9,258.9 Q91.0219,258.6 91.1625,258.45 Q91.3031,258.3 91.4625,258.3 Q91.7437,258.3 91.9219,258.4688 Q92.1,258.6375 92.1,259.0313 L92.1,259.9688 Q92.1,260.3625 91.9312,260.5313 Q91.7625,260.7 91.5,260.7 Q91.2656,260.7 91.1156,260.5969 Q90.9656,260.4938 90.9,260.2219 Q90.8719,260.0344 90.7688,259.9313 Q90.5813,259.7344 90.2437,259.6219 Q89.9063,259.5 89.5688,259.5 Q89.1469,259.5 88.7906,259.6688 Q88.4438,259.8375 88.1719,260.2125 Q87.9,260.5875 87.9,261.1031 L87.9,261.6563 Q87.9,262.275 88.4063,262.6875 Q88.9125,263.1 89.8125,263.1 Q90.3469,263.1 90.7219,262.9781 Q90.9375,262.9125 91.1812,262.6969 Q91.3406,262.575 91.425,262.5375 Q91.5094,262.5 91.6125,262.5 Q91.8094,262.5 91.95,262.6594 Q92.1,262.8094 92.1,263.025 Q92.1,263.2313 91.8938,263.475 Q91.5938,263.8313 91.1156,264.0281 Q90.4875,264.3 89.7188,264.3 Q88.8188,264.3 88.0969,263.9437 Q87.5156,263.6625 87.1031,263.0531 Q86.7,262.4437 86.7,261.7219 L86.7,261.0656 Q86.7,260.3156 87.0562,259.6594 Q87.4219,259.0031 88.05,258.6563 Q88.6875,258.3 89.4,258.3 Q89.8313,258.3 90.2063,258.45 Q90.5813,258.6 90.9,258.9 Z "/><text fill="#000000" font-family="sans-serif" font-size="7.2" lengthAdjust="spacingAndGlyphs" textLength="57" x="98.1" y="263.9461">PharmacyService</text><line style="stroke: #A80036; stroke-width: 0.8999999999999999;" x1="81.3" x2="156.3" y1="270.6" y2="270.6"/><line style="stroke: #A80036; stroke-width: 0.8999999999999999;" x1="81.3" x2="156.3" y1="275.4" y2="275.4"/><text fill="#000000" font-family="sans-serif" font-size="6.6" lengthAdjust="spacingAndGlyphs" textLength="59.4" x="84.3" y="284.6514">+PharmacyService()</text><text fill="#000000" font-family="sans-serif" font-size="6.6" lengthAdjust="spacingAndGlyphs" textLength="51" x="84.3" y="292.9529">+getPharmacies()</text><!--MD5=[aa4a745fe56463fab637f55d2a7c778f]
class ScooterService--><rect fill="#FEFECE" filter="url(#f8o595uyci7z4)" height="53.7047" id="ScooterService" style="stroke: #A80036; stroke-width: 0.8999999999999999;" width="94.8" x="178.2" y="247.2"/><ellipse cx="199.08" cy="256.8" fill="#ADD1B2" rx="6.6" ry="6.6" style="stroke: #A80036; stroke-width: 0.6;"/><path d="M200.28,254.7 Q200.4019,254.4 200.5425,254.25 Q200.6831,254.1 200.8425,254.1 Q201.1238,254.1 201.3019,254.2687 Q201.48,254.4375 201.48,254.8312 L201.48,255.7687 Q201.48,256.1625 201.3113,256.3313 Q201.1425,256.5 200.88,256.5 Q200.6456,256.5 200.4956,256.3969 Q200.3456,256.2938 200.28,256.0219 Q200.2519,255.8344 200.1488,255.7313 Q199.9613,255.5344 199.6238,255.4219 Q199.2863,255.3 198.9488,255.3 Q198.5269,255.3 198.1706,255.4688 Q197.8238,255.6375 197.5519,256.0125 Q197.28,256.3875 197.28,256.9031 L197.28,257.4563 Q197.28,258.075 197.7863,258.4875 Q198.2925,258.9 199.1925,258.9 Q199.7269,258.9 200.1019,258.7781 Q200.3175,258.7125 200.5613,258.4969 Q200.7206,258.375 200.805,258.3375 Q200.8894,258.3 200.9925,258.3 Q201.1894,258.3 201.33,258.4594 Q201.48,258.6094 201.48,258.825 Q201.48,259.0313 201.2738,259.275 Q200.9738,259.6312 200.4956,259.8281 Q199.8675,260.1 199.0988,260.1 Q198.1988,260.1 197.4769,259.7438 Q196.8956,259.4625 196.4831,258.8531 Q196.08,258.2438 196.08,257.5219 L196.08,256.8656 Q196.08,256.1156 196.4363,255.4594 Q196.8019,254.8031 197.43,254.4562 Q198.0675,254.1 198.78,254.1 Q199.2113,254.1 199.5863,254.25 Q199.9613,254.4 200.28,254.7 Z "/><text fill="#000000" font-family="sans-serif" font-size="7.2" lengthAdjust="spacingAndGlyphs" textLength="49.2" x="210.12" y="259.7461">ScooterService</text><line style="stroke: #A80036; stroke-width: 0.8999999999999999;" x1="178.8" x2="272.4" y1="266.4" y2="266.4"/><line style="stroke: #A80036; stroke-width: 0.8999999999999999;" x1="178.8" x2="272.4" y1="271.2" y2="271.2"/><text fill="#000000" font-family="sans-serif" font-size="6.6" lengthAdjust="spacingAndGlyphs" textLength="53.4" x="181.8" y="280.4514">+ScooterService()</text><text fill="#000000" font-family="sans-serif" font-size="6.6" lengthAdjust="spacingAndGlyphs" textLength="87.6" x="181.8" y="288.7529">+getScootersList(pharmacyId)</text><text fill="#000000" font-family="sans-serif" font-size="6.6" lengthAdjust="spacingAndGlyphs" textLength="67.2" x="181.8" y="297.0545">+updateScooter(scoot)</text><!--MD5=[4b2d61224b33971326a22fe5d809d926]
class DataHandler--><rect fill="#FEFECE" filter="url(#f8o595uyci7z4)" height="45.4031" id="DataHandler" style="stroke: #A80036; stroke-width: 0.8999999999999999;" width="62.4" x="562.8" y="251.4"/><ellipse cx="572.34" cy="261" fill="#ADD1B2" rx="6.6" ry="6.6" style="stroke: #A80036; stroke-width: 0.6;"/><path d="M573.54,258.9 Q573.6619,258.6 573.8025,258.45 Q573.9431,258.3 574.1025,258.3 Q574.3838,258.3 574.5619,258.4688 Q574.74,258.6375 574.74,259.0313 L574.74,259.9688 Q574.74,260.3625 574.5713,260.5313 Q574.4025,260.7 574.14,260.7 Q573.9056,260.7 573.7556,260.5969 Q573.6056,260.4938 573.54,260.2219 Q573.5119,260.0344 573.4087,259.9313 Q573.2212,259.7344 572.8838,259.6219 Q572.5463,259.5 572.2088,259.5 Q571.7869,259.5 571.4306,259.6688 Q571.0838,259.8375 570.8119,260.2125 Q570.54,260.5875 570.54,261.1031 L570.54,261.6563 Q570.54,262.275 571.0463,262.6875 Q571.5525,263.1 572.4525,263.1 Q572.9869,263.1 573.3619,262.9781 Q573.5775,262.9125 573.8213,262.6969 Q573.9806,262.575 574.065,262.5375 Q574.1494,262.5 574.2525,262.5 Q574.4494,262.5 574.59,262.6594 Q574.74,262.8094 574.74,263.025 Q574.74,263.2313 574.5337,263.475 Q574.2338,263.8313 573.7556,264.0281 Q573.1275,264.3 572.3588,264.3 Q571.4588,264.3 570.7369,263.9437 Q570.1556,263.6625 569.7431,263.0531 Q569.34,262.4437 569.34,261.7219 L569.34,261.0656 Q569.34,260.3156 569.6963,259.6594 Q570.0619,259.0031 570.69,258.6563 Q571.3275,258.3 572.04,258.3 Q572.4712,258.3 572.8462,258.45 Q573.2212,258.6 573.54,258.9 Z "/><text fill="#000000" font-family="sans-serif" font-size="7.2" lengthAdjust="spacingAndGlyphs" textLength="42" x="580.86" y="263.9461">DataHandler</text><line style="stroke: #A80036; stroke-width: 0.8999999999999999;" x1="563.4" x2="624.6" y1="270.6" y2="270.6"/><line style="stroke: #A80036; stroke-width: 0.8999999999999999;" x1="563.4" x2="624.6" y1="275.4" y2="275.4"/><text fill="#000000" font-family="sans-serif" font-size="6.6" lengthAdjust="spacingAndGlyphs" textLength="55.2" x="566.4" y="284.6514">+openConnection()</text><text fill="#000000" font-family="sans-serif" font-size="6.6" lengthAdjust="spacingAndGlyphs" textLength="31.2" x="566.4" y="292.9529">+closeAll()</text><!--MD5=[b860ecc58d0ca70e482845cb1f7b4615]
class PharmacyDB--><rect fill="#FEFECE" filter="url(#f8o595uyci7z4)" height="45.4031" id="PharmacyDB" style="stroke: #A80036; stroke-width: 0.8999999999999999;" width="62.4" x="570" y="382.2"/><ellipse cx="579" cy="391.8" fill="#ADD1B2" rx="6.6" ry="6.6" style="stroke: #A80036; stroke-width: 0.6;"/><path d="M580.2,389.7 Q580.3219,389.4 580.4625,389.25 Q580.6031,389.1 580.7625,389.1 Q581.0437,389.1 581.2219,389.2688 Q581.4,389.4375 581.4,389.8313 L581.4,390.7688 Q581.4,391.1625 581.2312,391.3313 Q581.0625,391.5 580.8,391.5 Q580.5656,391.5 580.4156,391.3969 Q580.2656,391.2938 580.2,391.0219 Q580.1719,390.8344 580.0688,390.7313 Q579.8813,390.5344 579.5437,390.4219 Q579.2063,390.3 578.8688,390.3 Q578.4469,390.3 578.0906,390.4688 Q577.7438,390.6375 577.4719,391.0125 Q577.2,391.3875 577.2,391.9031 L577.2,392.4563 Q577.2,393.075 577.7063,393.4875 Q578.2125,393.9 579.1125,393.9 Q579.6469,393.9 580.0219,393.7781 Q580.2375,393.7125 580.4812,393.4969 Q580.6406,393.375 580.725,393.3375 Q580.8094,393.3 580.9125,393.3 Q581.1094,393.3 581.25,393.4594 Q581.4,393.6094 581.4,393.825 Q581.4,394.0313 581.1938,394.275 Q580.8938,394.6312 580.4156,394.8281 Q579.7875,395.1 579.0188,395.1 Q578.1188,395.1 577.3969,394.7438 Q576.8156,394.4625 576.4031,393.8531 Q576,393.2438 576,392.5219 L576,391.8656 Q576,391.1156 576.3562,390.4594 Q576.7219,389.8031 577.35,389.4563 Q577.9875,389.1 578.7,389.1 Q579.1313,389.1 579.5063,389.25 Q579.8813,389.4 580.2,389.7 Z "/><text fill="#000000" font-family="sans-serif" font-size="7.2" lengthAdjust="spacingAndGlyphs" textLength="43.2" x="587.4" y="394.7461">PharmacyDB</text><line style="stroke: #A80036; stroke-width: 0.8999999999999999;" x1="570.6" x2="631.8" y1="401.4" y2="401.4"/><line style="stroke: #A80036; stroke-width: 0.8999999999999999;" x1="570.6" x2="631.8" y1="406.2" y2="406.2"/><text fill="#000000" font-family="sans-serif" font-size="6.6" lengthAdjust="spacingAndGlyphs" textLength="45.6" x="573.6" y="415.4514">+PharmacyDB()</text><text fill="#000000" font-family="sans-serif" font-size="6.6" lengthAdjust="spacingAndGlyphs" textLength="51" x="573.6" y="423.7529">+getPharmacies()</text><!--MD5=[48d7298b3bd1f8b3e8f77915e881d788]
class ScooterDB--><rect fill="#FEFECE" filter="url(#f8o595uyci7z4)" height="53.7047" id="ScooterDB" style="stroke: #A80036; stroke-width: 0.8999999999999999;" width="97.2" x="451.8" y="378"/><ellipse cx="480.15" cy="387.6" fill="#ADD1B2" rx="6.6" ry="6.6" style="stroke: #A80036; stroke-width: 0.6;"/><path d="M481.35,385.5 Q481.4719,385.2 481.6125,385.05 Q481.7531,384.9 481.9125,384.9 Q482.1937,384.9 482.3719,385.0687 Q482.55,385.2375 482.55,385.6312 L482.55,386.5687 Q482.55,386.9625 482.3812,387.1312 Q482.2125,387.3 481.95,387.3 Q481.7156,387.3 481.5656,387.1969 Q481.4156,387.0938 481.35,386.8219 Q481.3219,386.6344 481.2188,386.5313 Q481.0313,386.3344 480.6937,386.2219 Q480.3563,386.1 480.0187,386.1 Q479.5969,386.1 479.2406,386.2688 Q478.8937,386.4375 478.6219,386.8125 Q478.35,387.1875 478.35,387.7031 L478.35,388.2562 Q478.35,388.875 478.8563,389.2875 Q479.3625,389.7 480.2625,389.7 Q480.7969,389.7 481.1719,389.5781 Q481.3875,389.5125 481.6312,389.2969 Q481.7906,389.175 481.875,389.1375 Q481.9594,389.1 482.0625,389.1 Q482.2594,389.1 482.4,389.2594 Q482.55,389.4094 482.55,389.625 Q482.55,389.8313 482.3438,390.075 Q482.0438,390.4313 481.5656,390.6281 Q480.9375,390.9 480.1688,390.9 Q479.2687,390.9 478.5469,390.5438 Q477.9656,390.2625 477.5531,389.6531 Q477.15,389.0438 477.15,388.3219 L477.15,387.6656 Q477.15,386.9156 477.5062,386.2594 Q477.8719,385.6031 478.5,385.2562 Q479.1375,384.9 479.85,384.9 Q480.2813,384.9 480.6563,385.05 Q481.0313,385.2 481.35,385.5 Z "/><text fill="#000000" font-family="sans-serif" font-size="7.2" lengthAdjust="spacingAndGlyphs" textLength="35.4" x="492.45" y="390.5461">ScooterDB</text><line style="stroke: #A80036; stroke-width: 0.8999999999999999;" x1="452.4" x2="548.4" y1="397.2" y2="397.2"/><line style="stroke: #A80036; stroke-width: 0.8999999999999999;" x1="452.4" x2="548.4" y1="402" y2="402"/><text fill="#000000" font-family="sans-serif" font-size="6.6" lengthAdjust="spacingAndGlyphs" textLength="39.6" x="455.4" y="411.2514">+ScooterDB()</text><text fill="#000000" font-family="sans-serif" font-size="6.6" lengthAdjust="spacingAndGlyphs" textLength="54" x="455.4" y="419.5529">+getScootersList()</text><text fill="#000000" font-family="sans-serif" font-size="6.6" lengthAdjust="spacingAndGlyphs" textLength="90" x="455.4" y="427.8545">+updateScooterFromDB(scoot)</text><!--MD5=[f40d64c3825bdc96a4efd5b7e3ff1420]
reverse link DataHandler to PharmacyDB--><path d="M595.908,309.1398 C597.1932,332.28 598.8516,362.1294 599.9664,382.1952 " fill="none" id="DataHandler&lt;-PharmacyDB" style="stroke: #A80036; stroke-width: 0.6;"/><polygon fill="none" points="591.7098,309.2934,595.2378,297.0792,600.0972,308.8278,591.7098,309.2934" style="stroke: #A80036; stroke-width: 0.6;"/><!--MD5=[a2c65173c20bdf66914a8ed43c34e217]
reverse link DataHandler to ScooterDB--><path d="M586.5534,308.787 C584.055,316.4832 580.7988,324.3876 576.6,331.2 C573.135,336.822 549.4578,359.28 529.404,377.8548 " fill="none" id="DataHandler&lt;-ScooterDB" style="stroke: #A80036; stroke-width: 0.6;"/><polygon fill="none" points="582.567,307.4496,589.881,297.0504,590.6478,309.741,582.567,307.4496" style="stroke: #A80036; stroke-width: 0.6;"/><!--MD5=[068c19e9ee2b8d6f5118254dd44da898]
link UpdateScooterUI to UpdateScooterController--><path d="M151.2,64.854 C151.2,77.466 151.2,96.51 151.2,112.548 " fill="none" id="UpdateScooterUI-&gt;UpdateScooterController" style="stroke: #A80036; stroke-width: 0.6; stroke-dasharray: 7.0,7.0;"/><polygon fill="#A80036" points="151.2,115.7118,153.6,110.3118,151.2,112.7118,148.8,110.3118,151.2,115.7118" style="stroke: #A80036; stroke-width: 0.6;"/><!--MD5=[8726f40d04d7fff4643080593f315b6b]
link UpdateScooterController to PharmacyService--><path d="M144.6042,169.905 C138.9024,192.8178 130.7166,225.714 125.1018,248.2752 " fill="none" id="UpdateScooterController-&gt;PharmacyService" style="stroke: #A80036; stroke-width: 0.6; stroke-dasharray: 7.0,7.0;"/><polygon fill="#A80036" points="124.362,251.2494,127.9949,246.5887,125.0864,248.3382,123.3369,245.4297,124.362,251.2494" style="stroke: #A80036; stroke-width: 0.6;"/><!--MD5=[ca01bf2db4ec991acca53a5e6a0a6b09]
link UpdateScooterController to ScooterService--><path d="M166.3458,169.905 C178.7166,191.5536 196.1796,222.1146 208.9428,244.4502 " fill="none" id="UpdateScooterController-&gt;ScooterService" style="stroke: #A80036; stroke-width: 0.6; stroke-dasharray: 7.0,7.0;"/><polygon fill="#A80036" points="210.4758,247.1322,209.8813,241.2529,208.9878,244.5273,205.7134,243.6337,210.4758,247.1322" style="stroke: #A80036; stroke-width: 0.6;"/><!--MD5=[04ba2cb7f5803b19c0d0e740f2a895e0]
link Database to PharmacyDB--><path d="M404.1408,288.4788 C413.73,297.7176 427.6152,309.3318 442.2,315.6 C456.5442,321.765 461.8194,316.7508 477,320.4 C514.8834,329.5062 528.3408,326.2134 559.8,349.2 C570.6786,357.1482 579.9888,368.7672 587.01,379.2972 " fill="none" id="Database-&gt;PharmacyDB" style="stroke: #A80036; stroke-width: 0.6;"/><polygon fill="#A80036" points="588.7452,381.948,587.7952,376.1155,587.1019,379.4381,583.7794,378.7448,588.7452,381.948" style="stroke: #A80036; stroke-width: 0.6;"/><text fill="#000000" font-family="sans-serif" font-size="7.8" lengthAdjust="spacingAndGlyphs" textLength="31.8" x="525.6" y="329.0971">manages</text><text fill="#000000" font-family="sans-serif" font-size="7.8" lengthAdjust="spacingAndGlyphs" textLength="4.2" x="402.4477" y="301.0393">1</text><text fill="#000000" font-family="sans-serif" font-size="7.8" lengthAdjust="spacingAndGlyphs" textLength="4.2" x="582.0436" y="375.6931">1</text><!--MD5=[70f68ce34a156c56edce71dba5c758e9]
link Database to ScooterDB--><path d="M403.464,288.4596 C411.4914,297.462 422.166,309.5496 431.4,320.4 C446.847,338.5506 463.8456,359.2356 477.1056,375.537 " fill="none" id="Database-&gt;ScooterDB" style="stroke: #A80036; stroke-width: 0.6;"/><polygon fill="#A80036" points="479.034,377.91,477.4899,372.206,477.1416,375.5822,473.7654,375.2339,479.034,377.91" style="stroke: #A80036; stroke-width: 0.6;"/><text fill="#000000" font-family="sans-serif" font-size="7.8" lengthAdjust="spacingAndGlyphs" textLength="31.8" x="439.8" y="329.0971">manages</text><text fill="#000000" font-family="sans-serif" font-size="7.8" lengthAdjust="spacingAndGlyphs" textLength="4.2" x="406.7857" y="301.0157">1</text><text fill="#000000" font-family="sans-serif" font-size="7.8" lengthAdjust="spacingAndGlyphs" textLength="4.2" x="471.2408" y="371.5627">1</text><!--MD5=[ee7ed70a83e67b7f86b44988d609d45d]
link ScooterService to PharmacyDB--><path d="M273.087,289.7622 C297.8916,297.54 328.7586,307.1592 356.4,315.6 C379.5582,322.6722 384.8904,326.2842 408.6,331.2 C474.8652,344.9394 501.168,315.4044 559.8,349.2 C571.8552,356.1486 581.4942,368.1558 588.4272,379.2006 " fill="none" id="ScooterService-&gt;PharmacyDB" style="stroke: #A80036; stroke-width: 0.6;"/><polygon fill="#A80036" points="590.1312,381.9846,589.3592,376.1259,588.5651,379.4258,585.2652,378.6317,590.1312,381.9846" style="stroke: #A80036; stroke-width: 0.6;"/><text fill="#000000" font-family="sans-serif" font-size="7.8" lengthAdjust="spacingAndGlyphs" textLength="16.8" x="409.2" y="329.0971">uses</text><text fill="#000000" font-family="sans-serif" font-size="7.8" lengthAdjust="spacingAndGlyphs" textLength="4.2" x="277.8133" y="289.3092">1</text><text fill="#000000" font-family="sans-serif" font-size="7.8" lengthAdjust="spacingAndGlyphs" textLength="3" x="588.4866" y="375.7359">*</text><!--MD5=[799b1f05f2692ceb79e345e4105e6b42]
link PharmacyService to ScooterDB--><path d="M139.2444,297.189 C147.2496,304.4376 157.0068,311.6262 167.4,315.6 C182.9754,321.555 300.9936,317.4198 317.4,320.4 C332.0856,323.0676 334.8006,327.2706 349.2,331.2 C387.0408,341.526 400.3746,331.9452 435.6,349.2 C449.1726,355.848 462.2418,365.994 473.0448,375.7812 " fill="none" id="PharmacyService-&gt;ScooterDB" style="stroke: #A80036; stroke-width: 0.6;"/><polygon fill="#A80036" points="475.4556,377.994,473.1,372.5745,473.2454,375.9655,469.8544,376.1108,475.4556,377.994" style="stroke: #A80036; stroke-width: 0.6;"/><text fill="#000000" font-family="sans-serif" font-size="7.8" lengthAdjust="spacingAndGlyphs" textLength="16.8" x="349.8" y="329.0971">uses</text><text fill="#000000" font-family="sans-serif" font-size="7.8" lengthAdjust="spacingAndGlyphs" textLength="4.2" x="137.968" y="309.7474">1</text><text fill="#000000" font-family="sans-serif" font-size="7.8" lengthAdjust="spacingAndGlyphs" textLength="3" x="468.241" y="371.4623">*</text><!--MD5=[2ed2b43e7f6d114538396b0b10b28567]
link PharmacyService to Pharmacy--><path d="M91.9098,297.1248 C77.8854,310.5672 62.1212,328.971 54.6,349.2 C37.3145,395.6904 27.0322,419.5668 54.6,460.8 C86.5278,508.5546 155.9646,525.192 197.7486,530.9622 " fill="none" id="PharmacyService-&gt;Pharmacy" style="stroke: #A80036; stroke-width: 0.6;"/><polygon fill="#A80036" points="200.9568,531.3912,195.9225,528.2967,197.9833,530.9936,195.2863,533.0543,200.9568,531.3912" style="stroke: #A80036; stroke-width: 0.6;"/><text fill="#000000" font-family="sans-serif" font-size="7.8" lengthAdjust="spacingAndGlyphs" textLength="66.6" x="55.2" y="408.2971">manage services of</text><text fill="#000000" font-family="sans-serif" font-size="7.8" lengthAdjust="spacingAndGlyphs" textLength="4.2" x="83.0895" y="309.673">1</text><text fill="#000000" font-family="sans-serif" font-size="7.8" lengthAdjust="spacingAndGlyphs" textLength="3" x="193.2358" y="528.7492">*</text><!--MD5=[a4fc43f4c54bc2b04150642bdfef7d93]
link ScooterService to Scooter--><path d="M179.925,301.3572 C173.904,306.8628 168.5862,313.2132 165,320.4 C162.8568,324.6948 163.2684,326.7234 165,331.2 C167.0136,336.405 169.5888,341.4684 172.5498,346.341 " fill="none" id="ScooterService-&gt;Scooter" style="stroke: #A80036; stroke-width: 0.6;"/><polygon fill="#A80036" points="174.234,349.0284,173.4012,343.1781,172.6414,346.486,169.3334,345.7263,174.234,349.0284" style="stroke: #A80036; stroke-width: 0.6;"/><text fill="#000000" font-family="sans-serif" font-size="7.8" lengthAdjust="spacingAndGlyphs" textLength="66.6" x="165.6" y="329.0971">manage services of</text><text fill="#000000" font-family="sans-serif" font-size="7.8" lengthAdjust="spacingAndGlyphs" textLength="4.2" x="169.3052" y="313.7825">1</text><text fill="#000000" font-family="sans-serif" font-size="7.8" lengthAdjust="spacingAndGlyphs" textLength="3" x="166.5431" y="342.6825">*</text><!--MD5=[51d7b9a785c9fb041ca400474ed1d998]
link Database to Pharmacy--><path d="M388.7886,288.4338 C381.8772,326.3976 361.1832,432.3948 340.8,460.8 C320.9064,488.5224 287.007,508.83 262.2438,520.9284 " fill="none" id="Database-Pharmacy" style="stroke: #A80036; stroke-width: 0.6;"/><text fill="#000000" font-family="sans-serif" font-size="7.8" lengthAdjust="spacingAndGlyphs" textLength="49.2" x="376.8" y="408.2971">has registered</text><polygon fill="#000000" points="398.7,413.6109,400.5,417.2109,402.3,413.6109,398.7,413.6109" style="stroke: #000000; stroke-width: 0.6;"/><text fill="#000000" font-family="sans-serif" font-size="7.8" lengthAdjust="spacingAndGlyphs" textLength="4.2" x="383.5453" y="300.9839">1</text><text fill="#000000" font-family="sans-serif" font-size="7.8" lengthAdjust="spacingAndGlyphs" textLength="3" x="266.9649" y="516.7496">*</text><!--MD5=[f4a94ba2ad2673d4959409a96e63c979]
link Database to Scooter--><path d="M366.8088,285.3732 C345.063,294.4572 312.1884,307.3584 282.6,315.6 C271.3644,318.7296 265.4784,312.6078 256.8,320.4 C248.3598,327.978 242.6982,338.2596 238.9122,349.029 " fill="none" id="Database-Scooter" style="stroke: #A80036; stroke-width: 0.6;"/><polygon fill="#000000" points="261.6,325.0055,258,326.8055,261.6,328.6055,261.6,325.0055" style="stroke: #000000; stroke-width: 0.6;"/><text fill="#000000" font-family="sans-serif" font-size="7.8" lengthAdjust="spacingAndGlyphs" textLength="49.2" x="265.2" y="329.0971">has registered</text><text fill="#000000" font-family="sans-serif" font-size="7.8" lengthAdjust="spacingAndGlyphs" textLength="4.2" x="357.8901" y="285.0452">1</text><text fill="#000000" font-family="sans-serif" font-size="7.8" lengthAdjust="spacingAndGlyphs" textLength="3" x="236.3754" y="342.6832">*</text><!--MD5=[6f1b2737b94c689eac8b0af6a5ef1443]
link Scooter to Pharmacy--><path d="M231.6,460.9848 C231.6,477.1386 231.6,494.0514 231.6,507.5274 " fill="none" id="Scooter-Pharmacy" style="stroke: #A80036; stroke-width: 0.6;"/><text fill="#000000" font-family="sans-serif" font-size="7.8" lengthAdjust="spacingAndGlyphs" textLength="36" x="232.2" y="487.4971">belongs to</text><polygon fill="#000000" points="247.5,492.8109,249.3,496.4109,251.1,492.8109,247.5,492.8109" style="stroke: #000000; stroke-width: 0.6;"/><text fill="#000000" font-family="sans-serif" font-size="7.8" lengthAdjust="spacingAndGlyphs" textLength="3" x="228.4805" y="473.9255">*</text><text fill="#000000" font-family="sans-serif" font-size="7.8" lengthAdjust="spacingAndGlyphs" textLength="4.2" x="227.0784" y="501.1827">1</text><!--MD5=[89baec1bfb4a213750f7c61516e0a0f1]
link Pharmacy to Address--><path d="M231.6,561.8358 C231.6,575.5596 231.6,592.6362 231.6,608.1804 " fill="none" id="Pharmacy-Address" style="stroke: #A80036; stroke-width: 0.6;"/><text fill="#000000" font-family="sans-serif" font-size="7.8" lengthAdjust="spacingAndGlyphs" textLength="12.6" x="232.2" y="588.2971">has</text><polygon fill="#000000" points="235.8,593.6109,237.6,597.2109,239.4,593.6109,235.8,593.6109" style="stroke: #000000; stroke-width: 0.6;"/><text fill="#000000" font-family="sans-serif" font-size="7.8" lengthAdjust="spacingAndGlyphs" textLength="4.2" x="227.1178" y="574.2717">1</text><text fill="#000000" font-family="sans-serif" font-size="7.8" lengthAdjust="spacingAndGlyphs" textLength="4.2" x="227.1933" y="601.9161">1</text><!--MD5=[ede7900c605da27b8670f4c44aa0ef9e]
@startuml
skinparam classAttributeIconSize 0

database Database {
}

package "UI" #DDDDDD {
class UpdateScooterUI{
}
}

package "Controller" #DDDDDD {
class UpdateScooterController{
+showPharmacies()
+showScootersList(pharmacyId)
+updateScooter(scoot)
}
}


package "Model" #DDDDDD {
 package "Service" #DDDDDD {
  class PharmacyService{
      +PharmacyService()
      +getPharmacies()
  }

  class ScooterService{
      +ScooterService()
      +getScootersList(pharmacyId)
      +updateScooter(scoot)
   }
}

package "Model" #DDDDDD {
class Scooter{
  -int id
  -float batteryPerc
  -String charginStatus
  -float potency
  -float weight
  -int batteryCapacity
  -float maxPayload
  -float batteryVoltage
  +Scooter(batteryPerc, charginStatus, potency,\n weight, batteryCapacity, maxPayload, batteryVoltage, pharmacy)
}

class Address{
  -float longitude
  -float latitude
  -String doorNumber
  -String streetName
  -String postalCode
  -String locality
  -String country
}

class Pharmacy {
  -int id
  -String name
  +getScootersList()
}
}


package "Data" #DDDDDD {
class DataHandler{
    +openConnection()
    +closeAll()
}
class PharmacyDB{
     +PharmacyDB()
     +getPharmacies()
 }

 class ScooterDB{
     +ScooterDB()
     +getScootersList()
     +updateScooterFromDB(scoot)
  }
}

class PharmacyDB extends DataHandler
class ScooterDB extends DataHandler

UpdateScooterUI ..> UpdateScooterController
UpdateScooterController ..> PharmacyService
UpdateScooterController ..> ScooterService
Database "1" - -> "1" PharmacyDB : manages
Database "1" - -> "1" ScooterDB : manages
ScooterService "1" - -> "*" PharmacyDB : uses
PharmacyService "1" - -> "*" ScooterDB : uses
PharmacyService "1" - -> "*" Pharmacy : manage services of
ScooterService "1" - -> "*" Scooter : manage services of

Database "1" - - "*" Pharmacy : has registered >
Database "1" - - "*" Scooter : has registered >

Scooter "*" - - "1" Pharmacy : belongs to >
Pharmacy "1" - - "1" Address : has >

@enduml

PlantUML version 1.2020.09(Sun May 10 11:51:06 BST 2020)
(GPL source distribution)
Java Runtime: OpenJDK Runtime Environment
JVM: OpenJDK 64-Bit Server VM
Java Version: 11.0.6+8-b765.40
Operating System: Windows 10
Default Encoding: Cp1252
Language: pt
Country: PT
--></g></svg>