<?xml version="1.0" encoding="UTF-8" standalone="no"?><svg xmlns="http://www.w3.org/2000/svg" xmlns:xlink="http://www.w3.org/1999/xlink" contentScriptType="application/ecmascript" contentStyleType="text/css" height="1469px" preserveAspectRatio="none" style="width:898px;height:1469px;" version="1.1" viewBox="0 0 898 1469" width="898px" zoomAndPan="magnify"><defs><filter height="300%" id="fqeslerfs3kpc" width="300%" x="-1" y="-1"><feGaussianBlur result="blurOut" stdDeviation="2.0"/><feColorMatrix in="blurOut" result="blurOut2" type="matrix" values="0 0 0 0 0 0 0 0 0 0 0 0 0 0 0 0 0 0 .4 0"/><feOffset dx="4.0" dy="4.0" in="blurOut2" result="blurOut3"/><feBlend in="SourceGraphic" in2="blurOut3" mode="normal"/></filter></defs><g><!--MD5=[9681dc6e01e10c6b4fe06895ae94f592]
cluster UI--><polygon fill="#DDDDDD" filter="url(#fqeslerfs3kpc)" points="103,24,123,24,130,47.6094,261,47.6094,261,124,103,124,103,24" style="stroke: #000000; stroke-width: 1.5;"/><line style="stroke: #000000; stroke-width: 1.5;" x1="103" x2="130" y1="47.6094" y2="47.6094"/><text fill="#000000" font-family="sans-serif" font-size="14" font-weight="bold" lengthAdjust="spacingAndGlyphs" textLength="14" x="107" y="40.5332">UI</text><!--MD5=[1f2cfc53d9d308f53762fd0fcbaa4873]
cluster Controller--><polygon fill="#DDDDDD" filter="url(#fqeslerfs3kpc)" points="80,157,157,157,164,180.6094,284,180.6094,284,299,80,299,80,157" style="stroke: #000000; stroke-width: 1.5;"/><line style="stroke: #000000; stroke-width: 1.5;" x1="80" x2="164" y1="180.6094" y2="180.6094"/><text fill="#000000" font-family="sans-serif" font-size="14" font-weight="bold" lengthAdjust="spacingAndGlyphs" textLength="71" x="84" y="173.5332">Controller</text><!--MD5=[15636c1ca4a123c16a2a1a8e90aca7a9]
cluster Model--><polygon fill="#DDDDDD" filter="url(#fqeslerfs3kpc)" points="22,332,72,332,79,355.6094,429,355.6094,429,1457,22,1457,22,332" style="stroke: #000000; stroke-width: 1.5;"/><line style="stroke: #000000; stroke-width: 1.5;" x1="22" x2="79" y1="355.6094" y2="355.6094"/><text fill="#000000" font-family="sans-serif" font-size="14" font-weight="bold" lengthAdjust="spacingAndGlyphs" textLength="44" x="26" y="348.5332">Model</text><!--MD5=[9dd75fd92da113d30380b27734fd2f01]
cluster Service--><polygon fill="#DDDDDD" filter="url(#fqeslerfs3kpc)" points="48,376,108,376,115,399.6094,401,399.6094,401,518,48,518,48,376" style="stroke: #000000; stroke-width: 1.5;"/><line style="stroke: #000000; stroke-width: 1.5;" x1="48" x2="115" y1="399.6094" y2="399.6094"/><text fill="#000000" font-family="sans-serif" font-size="14" font-weight="bold" lengthAdjust="spacingAndGlyphs" textLength="54" x="52" y="392.5332">Service</text><!--MD5=[f21b1f164e99c6b37934f23ad048ad54]
cluster Data--><polygon fill="#DDDDDD" filter="url(#fqeslerfs3kpc)" points="543,383,580,383,587,406.6094,876,406.6094,876,688,543,688,543,383" style="stroke: #000000; stroke-width: 1.5;"/><line style="stroke: #000000; stroke-width: 1.5;" x1="543" x2="587" y1="406.6094" y2="406.6094"/><text fill="#000000" font-family="sans-serif" font-size="14" font-weight="bold" lengthAdjust="spacingAndGlyphs" textLength="31" x="547" y="399.5332">Data</text><!--MD5=[fa1e3283224feb76407c84b7e90ed808]
entity Database--><path d="M445.5,443.5 C445.5,433.5 486,433.5 486,433.5 C486,433.5 526.5,433.5 526.5,443.5 L526.5,470.1094 C526.5,480.1094 486,480.1094 486,480.1094 C486,480.1094 445.5,480.1094 445.5,470.1094 L445.5,443.5 " fill="#FFFFFF" filter="url(#fqeslerfs3kpc)" style="stroke: #000000; stroke-width: 1.5;"/><path d="M445.5,443.5 C445.5,453.5 486,453.5 486,453.5 C486,453.5 526.5,453.5 526.5,443.5 " fill="none" style="stroke: #000000; stroke-width: 1.5;"/><text fill="#000000" font-family="sans-serif" font-size="14" lengthAdjust="spacingAndGlyphs" textLength="61" x="455.5" y="472.0332">Database</text><!--MD5=[56b05040cba7ba1143e43c771f04a5c5]
class UpdateScooterUI--><rect fill="#FEFECE" filter="url(#fqeslerfs3kpc)" height="48" id="UpdateScooterUI" style="stroke: #A80036; stroke-width: 1.5;" width="126" x="119" y="60"/><ellipse cx="134" cy="76" fill="#ADD1B2" rx="11" ry="11" style="stroke: #A80036; stroke-width: 1.0;"/><path d="M136,72.5 Q136.2031,72 136.4375,71.75 Q136.6719,71.5 136.9375,71.5 Q137.4063,71.5 137.7031,71.7813 Q138,72.0625 138,72.7188 L138,74.2813 Q138,74.9375 137.7188,75.2188 Q137.4375,75.5 137,75.5 Q136.6094,75.5 136.3594,75.3281 Q136.1094,75.1563 136,74.7031 Q135.9531,74.3906 135.7813,74.2188 Q135.4688,73.8906 134.9063,73.7031 Q134.3438,73.5 133.7813,73.5 Q133.0781,73.5 132.4844,73.7813 Q131.9063,74.0625 131.4531,74.6875 Q131,75.3125 131,76.1719 L131,77.0938 Q131,78.125 131.8438,78.8125 Q132.6875,79.5 134.1875,79.5 Q135.0781,79.5 135.7031,79.2969 Q136.0625,79.1875 136.4688,78.8281 Q136.7344,78.625 136.875,78.5625 Q137.0156,78.5 137.1875,78.5 Q137.5156,78.5 137.75,78.7656 Q138,79.0156 138,79.375 Q138,79.7188 137.6563,80.125 Q137.1563,80.7188 136.3594,81.0469 Q135.3125,81.5 134.0313,81.5 Q132.5313,81.5 131.3281,80.9063 Q130.3594,80.4375 129.6719,79.4219 Q129,78.4063 129,77.2031 L129,76.1094 Q129,74.8594 129.5938,73.7656 Q130.2031,72.6719 131.25,72.0938 Q132.3125,71.5 133.5,71.5 Q134.2188,71.5 134.8438,71.75 Q135.4688,72 136,72.5 Z "/><text fill="#000000" font-family="sans-serif" font-size="12" lengthAdjust="spacingAndGlyphs" textLength="94" x="148" y="80.9102">UpdateScooterUI</text><line style="stroke: #A80036; stroke-width: 1.5;" x1="120" x2="244" y1="92" y2="92"/><line style="stroke: #A80036; stroke-width: 1.5;" x1="120" x2="244" y1="100" y2="100"/><!--MD5=[3e55a46d736e61deccb82423bbd922fc]
class UpdateScooterController--><rect fill="#FEFECE" filter="url(#fqeslerfs3kpc)" height="89.5078" id="UpdateScooterController" style="stroke: #A80036; stroke-width: 1.5;" width="171" x="96.5" y="193"/><ellipse cx="112.85" cy="209" fill="#ADD1B2" rx="11" ry="11" style="stroke: #A80036; stroke-width: 1.0;"/><path d="M114.85,205.5 Q115.0531,205 115.2875,204.75 Q115.5219,204.5 115.7875,204.5 Q116.2563,204.5 116.5531,204.7813 Q116.85,205.0625 116.85,205.7188 L116.85,207.2813 Q116.85,207.9375 116.5688,208.2188 Q116.2875,208.5 115.85,208.5 Q115.4594,208.5 115.2094,208.3281 Q114.9594,208.1563 114.85,207.7031 Q114.8031,207.3906 114.6313,207.2188 Q114.3188,206.8906 113.7563,206.7031 Q113.1938,206.5 112.6313,206.5 Q111.9281,206.5 111.3344,206.7813 Q110.7563,207.0625 110.3031,207.6875 Q109.85,208.3125 109.85,209.1719 L109.85,210.0938 Q109.85,211.125 110.6938,211.8125 Q111.5375,212.5 113.0375,212.5 Q113.9281,212.5 114.5531,212.2969 Q114.9125,212.1875 115.3188,211.8281 Q115.5844,211.625 115.725,211.5625 Q115.8656,211.5 116.0375,211.5 Q116.3656,211.5 116.6,211.7656 Q116.85,212.0156 116.85,212.375 Q116.85,212.7188 116.5063,213.125 Q116.0063,213.7188 115.2094,214.0469 Q114.1625,214.5 112.8813,214.5 Q111.3813,214.5 110.1781,213.9063 Q109.2094,213.4375 108.5219,212.4219 Q107.85,211.4063 107.85,210.2031 L107.85,209.1094 Q107.85,207.8594 108.4438,206.7656 Q109.0531,205.6719 110.1,205.0938 Q111.1625,204.5 112.35,204.5 Q113.0688,204.5 113.6938,204.75 Q114.3188,205 114.85,205.5 Z "/><text fill="#000000" font-family="sans-serif" font-size="12" lengthAdjust="spacingAndGlyphs" textLength="136" x="127.15" y="213.9102">UpdateScooterController</text><line style="stroke: #A80036; stroke-width: 1.5;" x1="97.5" x2="266.5" y1="225" y2="225"/><line style="stroke: #A80036; stroke-width: 1.5;" x1="97.5" x2="266.5" y1="233" y2="233"/><text fill="#000000" font-family="sans-serif" font-size="11" lengthAdjust="spacingAndGlyphs" textLength="98" x="102.5" y="248.4189">+showPharmacies()</text><text fill="#000000" font-family="sans-serif" font-size="11" lengthAdjust="spacingAndGlyphs" textLength="159" x="102.5" y="262.2549">+showScootersList(pharmacyId)</text><text fill="#000000" font-family="sans-serif" font-size="11" lengthAdjust="spacingAndGlyphs" textLength="112" x="102.5" y="276.0908">+updateScooter(scoot)</text><!--MD5=[868815390a9e59f0f213a5798810649b]
class ScooterPark--><rect fill="#FEFECE" filter="url(#fqeslerfs3kpc)" height="61.8359" id="ScooterPark" style="stroke: #A80036; stroke-width: 1.5;" width="111" x="83.5" y="1183.5"/><ellipse cx="103.9" cy="1199.5" fill="#ADD1B2" rx="11" ry="11" style="stroke: #A80036; stroke-width: 1.0;"/><path d="M105.9,1196 Q106.1031,1195.5 106.3375,1195.25 Q106.5719,1195 106.8375,1195 Q107.3063,1195 107.6031,1195.2813 Q107.9,1195.5625 107.9,1196.2188 L107.9,1197.7813 Q107.9,1198.4375 107.6188,1198.7188 Q107.3375,1199 106.9,1199 Q106.5094,1199 106.2594,1198.8281 Q106.0094,1198.6563 105.9,1198.2031 Q105.8531,1197.8906 105.6813,1197.7188 Q105.3688,1197.3906 104.8063,1197.2031 Q104.2438,1197 103.6813,1197 Q102.9781,1197 102.3844,1197.2813 Q101.8063,1197.5625 101.3531,1198.1875 Q100.9,1198.8125 100.9,1199.6719 L100.9,1200.5938 Q100.9,1201.625 101.7438,1202.3125 Q102.5875,1203 104.0875,1203 Q104.9781,1203 105.6031,1202.7969 Q105.9625,1202.6875 106.3688,1202.3281 Q106.6344,1202.125 106.775,1202.0625 Q106.9156,1202 107.0875,1202 Q107.4156,1202 107.65,1202.2656 Q107.9,1202.5156 107.9,1202.875 Q107.9,1203.2188 107.5563,1203.625 Q107.0563,1204.2188 106.2594,1204.5469 Q105.2125,1205 103.9313,1205 Q102.4313,1205 101.2281,1204.4063 Q100.2594,1203.9375 99.5719,1202.9219 Q98.9,1201.9063 98.9,1200.7031 L98.9,1199.6094 Q98.9,1198.3594 99.4938,1197.2656 Q100.1031,1196.1719 101.15,1195.5938 Q102.2125,1195 103.4,1195 Q104.1188,1195 104.7438,1195.25 Q105.3688,1195.5 105.9,1196 Z "/><text fill="#000000" font-family="sans-serif" font-size="12" lengthAdjust="spacingAndGlyphs" textLength="67" x="119.1" y="1204.4102">ScooterPark</text><line style="stroke: #A80036; stroke-width: 1.5;" x1="84.5" x2="193.5" y1="1215.5" y2="1215.5"/><text fill="#000000" font-family="sans-serif" font-size="11" lengthAdjust="spacingAndGlyphs" textLength="99" x="89.5" y="1230.9189">-int maxSlotsNumber</text><line style="stroke: #A80036; stroke-width: 1.5;" x1="84.5" x2="193.5" y1="1237.3359" y2="1237.3359"/><!--MD5=[5efbb0d0731ef97fc2ab2cfe7ed5bd27]
class ScooterChargingSlot--><rect fill="#FEFECE" filter="url(#fqeslerfs3kpc)" height="75.6719" id="ScooterChargingSlot" style="stroke: #A80036; stroke-width: 1.5;" width="146" x="42" y="1365"/><ellipse cx="57" cy="1381" fill="#ADD1B2" rx="11" ry="11" style="stroke: #A80036; stroke-width: 1.0;"/><path d="M59,1377.5 Q59.2031,1377 59.4375,1376.75 Q59.6719,1376.5 59.9375,1376.5 Q60.4063,1376.5 60.7031,1376.7813 Q61,1377.0625 61,1377.7188 L61,1379.2813 Q61,1379.9375 60.7188,1380.2188 Q60.4375,1380.5 60,1380.5 Q59.6094,1380.5 59.3594,1380.3281 Q59.1094,1380.1563 59,1379.7031 Q58.9531,1379.3906 58.7813,1379.2188 Q58.4688,1378.8906 57.9063,1378.7031 Q57.3438,1378.5 56.7813,1378.5 Q56.0781,1378.5 55.4844,1378.7813 Q54.9063,1379.0625 54.4531,1379.6875 Q54,1380.3125 54,1381.1719 L54,1382.0938 Q54,1383.125 54.8438,1383.8125 Q55.6875,1384.5 57.1875,1384.5 Q58.0781,1384.5 58.7031,1384.2969 Q59.0625,1384.1875 59.4688,1383.8281 Q59.7344,1383.625 59.875,1383.5625 Q60.0156,1383.5 60.1875,1383.5 Q60.5156,1383.5 60.75,1383.7656 Q61,1384.0156 61,1384.375 Q61,1384.7188 60.6563,1385.125 Q60.1563,1385.7188 59.3594,1386.0469 Q58.3125,1386.5 57.0313,1386.5 Q55.5313,1386.5 54.3281,1385.9063 Q53.3594,1385.4375 52.6719,1384.4219 Q52,1383.4063 52,1382.2031 L52,1381.1094 Q52,1379.8594 52.5938,1378.7656 Q53.2031,1377.6719 54.25,1377.0938 Q55.3125,1376.5 56.5,1376.5 Q57.2188,1376.5 57.8438,1376.75 Q58.4688,1377 59,1377.5 Z "/><text fill="#000000" font-family="sans-serif" font-size="12" lengthAdjust="spacingAndGlyphs" textLength="114" x="71" y="1385.9102">ScooterChargingSlot</text><line style="stroke: #A80036; stroke-width: 1.5;" x1="43" x2="187" y1="1397" y2="1397"/><text fill="#000000" font-family="sans-serif" font-size="11" lengthAdjust="spacingAndGlyphs" textLength="26" x="48" y="1412.4189">-int id</text><text fill="#000000" font-family="sans-serif" font-size="11" lengthAdjust="spacingAndGlyphs" textLength="90" x="48" y="1426.2549">-float outputPower</text><line style="stroke: #A80036; stroke-width: 1.5;" x1="43" x2="187" y1="1432.6719" y2="1432.6719"/><!--MD5=[d3cdad78b703b3ff47b8cf68490e772e]
class ScooterParkingSlot--><rect fill="#FEFECE" filter="url(#fqeslerfs3kpc)" height="61.8359" id="ScooterParkingSlot" style="stroke: #A80036; stroke-width: 1.5;" width="137" x="223.5" y="1372"/><ellipse cx="238.5" cy="1388" fill="#ADD1B2" rx="11" ry="11" style="stroke: #A80036; stroke-width: 1.0;"/><path d="M240.5,1384.5 Q240.7031,1384 240.9375,1383.75 Q241.1719,1383.5 241.4375,1383.5 Q241.9063,1383.5 242.2031,1383.7813 Q242.5,1384.0625 242.5,1384.7188 L242.5,1386.2813 Q242.5,1386.9375 242.2188,1387.2188 Q241.9375,1387.5 241.5,1387.5 Q241.1094,1387.5 240.8594,1387.3281 Q240.6094,1387.1563 240.5,1386.7031 Q240.4531,1386.3906 240.2813,1386.2188 Q239.9688,1385.8906 239.4063,1385.7031 Q238.8438,1385.5 238.2813,1385.5 Q237.5781,1385.5 236.9844,1385.7813 Q236.4063,1386.0625 235.9531,1386.6875 Q235.5,1387.3125 235.5,1388.1719 L235.5,1389.0938 Q235.5,1390.125 236.3438,1390.8125 Q237.1875,1391.5 238.6875,1391.5 Q239.5781,1391.5 240.2031,1391.2969 Q240.5625,1391.1875 240.9688,1390.8281 Q241.2344,1390.625 241.375,1390.5625 Q241.5156,1390.5 241.6875,1390.5 Q242.0156,1390.5 242.25,1390.7656 Q242.5,1391.0156 242.5,1391.375 Q242.5,1391.7188 242.1563,1392.125 Q241.6563,1392.7188 240.8594,1393.0469 Q239.8125,1393.5 238.5313,1393.5 Q237.0313,1393.5 235.8281,1392.9063 Q234.8594,1392.4375 234.1719,1391.4219 Q233.5,1390.4063 233.5,1389.2031 L233.5,1388.1094 Q233.5,1386.8594 234.0938,1385.7656 Q234.7031,1384.6719 235.75,1384.0938 Q236.8125,1383.5 238,1383.5 Q238.7188,1383.5 239.3438,1383.75 Q239.9688,1384 240.5,1384.5 Z "/><text fill="#000000" font-family="sans-serif" font-size="12" lengthAdjust="spacingAndGlyphs" textLength="105" x="252.5" y="1392.9102">ScooterParkingSlot</text><line style="stroke: #A80036; stroke-width: 1.5;" x1="224.5" x2="359.5" y1="1404" y2="1404"/><text fill="#000000" font-family="sans-serif" font-size="11" lengthAdjust="spacingAndGlyphs" textLength="26" x="229.5" y="1419.4189">-int id</text><line style="stroke: #A80036; stroke-width: 1.5;" x1="224.5" x2="359.5" y1="1425.8359" y2="1425.8359"/><!--MD5=[f4402668d5d5bb8485350c0fdb60ac8e]
class Scooter--><rect fill="#FEFECE" filter="url(#fqeslerfs3kpc)" height="75.6719" id="Scooter" style="stroke: #A80036; stroke-width: 1.5;" width="337" x="75.5" y="589"/><ellipse cx="218.75" cy="605" fill="#ADD1B2" rx="11" ry="11" style="stroke: #A80036; stroke-width: 1.0;"/><path d="M220.75,601.5 Q220.9531,601 221.1875,600.75 Q221.4219,600.5 221.6875,600.5 Q222.1563,600.5 222.4531,600.7813 Q222.75,601.0625 222.75,601.7188 L222.75,603.2813 Q222.75,603.9375 222.4688,604.2188 Q222.1875,604.5 221.75,604.5 Q221.3594,604.5 221.1094,604.3281 Q220.8594,604.1563 220.75,603.7031 Q220.7031,603.3906 220.5313,603.2188 Q220.2188,602.8906 219.6563,602.7031 Q219.0938,602.5 218.5313,602.5 Q217.8281,602.5 217.2344,602.7813 Q216.6563,603.0625 216.2031,603.6875 Q215.75,604.3125 215.75,605.1719 L215.75,606.0938 Q215.75,607.125 216.5938,607.8125 Q217.4375,608.5 218.9375,608.5 Q219.8281,608.5 220.4531,608.2969 Q220.8125,608.1875 221.2188,607.8281 Q221.4844,607.625 221.625,607.5625 Q221.7656,607.5 221.9375,607.5 Q222.2656,607.5 222.5,607.7656 Q222.75,608.0156 222.75,608.375 Q222.75,608.7188 222.4063,609.125 Q221.9063,609.7188 221.1094,610.0469 Q220.0625,610.5 218.7813,610.5 Q217.2813,610.5 216.0781,609.9063 Q215.1094,609.4375 214.4219,608.4219 Q213.75,607.4063 213.75,606.2031 L213.75,605.1094 Q213.75,603.8594 214.3438,602.7656 Q214.9531,601.6719 216,601.0938 Q217.0625,600.5 218.25,600.5 Q218.9688,600.5 219.5938,600.75 Q220.2188,601 220.75,601.5 Z "/><text fill="#000000" font-family="sans-serif" font-size="12" lengthAdjust="spacingAndGlyphs" textLength="42" x="239.25" y="609.9102">Scooter</text><line style="stroke: #A80036; stroke-width: 1.5;" x1="76.5" x2="411.5" y1="621" y2="621"/><line style="stroke: #A80036; stroke-width: 1.5;" x1="76.5" x2="411.5" y1="629" y2="629"/><text fill="#000000" font-family="sans-serif" font-size="11" lengthAdjust="spacingAndGlyphs" textLength="225" x="81.5" y="644.4189">+Scooter(batteryPerc, charginStatus, potency,</text><text fill="#000000" font-family="sans-serif" font-size="11" lengthAdjust="spacingAndGlyphs" textLength="322" x="84.5" y="658.2549">weight, batteryCapacity, maxPayload, batteryVoltage, pharmacyId)</text><!--MD5=[3aa0d89c6bfdcbf7f32042cedac57549]
class Vehicle--><rect fill="#FEFECE" filter="url(#fqeslerfs3kpc)" height="131.0156" id="Vehicle" style="stroke: #A80036; stroke-width: 1.5;" width="126" x="181" y="752"/><ellipse cx="220.3" cy="768" fill="#ADD1B2" rx="11" ry="11" style="stroke: #A80036; stroke-width: 1.0;"/><path d="M222.3,764.5 Q222.5031,764 222.7375,763.75 Q222.9719,763.5 223.2375,763.5 Q223.7063,763.5 224.0031,763.7813 Q224.3,764.0625 224.3,764.7188 L224.3,766.2813 Q224.3,766.9375 224.0188,767.2188 Q223.7375,767.5 223.3,767.5 Q222.9094,767.5 222.6594,767.3281 Q222.4094,767.1563 222.3,766.7031 Q222.2531,766.3906 222.0813,766.2188 Q221.7688,765.8906 221.2063,765.7031 Q220.6438,765.5 220.0813,765.5 Q219.3781,765.5 218.7844,765.7813 Q218.2063,766.0625 217.7531,766.6875 Q217.3,767.3125 217.3,768.1719 L217.3,769.0938 Q217.3,770.125 218.1438,770.8125 Q218.9875,771.5 220.4875,771.5 Q221.3781,771.5 222.0031,771.2969 Q222.3625,771.1875 222.7688,770.8281 Q223.0344,770.625 223.175,770.5625 Q223.3156,770.5 223.4875,770.5 Q223.8156,770.5 224.05,770.7656 Q224.3,771.0156 224.3,771.375 Q224.3,771.7188 223.9563,772.125 Q223.4563,772.7188 222.6594,773.0469 Q221.6125,773.5 220.3313,773.5 Q218.8313,773.5 217.6281,772.9063 Q216.6594,772.4375 215.9719,771.4219 Q215.3,770.4063 215.3,769.2031 L215.3,768.1094 Q215.3,766.8594 215.8938,765.7656 Q216.5031,764.6719 217.55,764.0938 Q218.6125,763.5 219.8,763.5 Q220.5188,763.5 221.1438,763.75 Q221.7688,764 222.3,764.5 Z "/><text fill="#000000" font-family="sans-serif" font-size="12" lengthAdjust="spacingAndGlyphs" textLength="40" x="239.7" y="772.9102">Vehicle</text><line style="stroke: #A80036; stroke-width: 1.5;" x1="182" x2="306" y1="784" y2="784"/><text fill="#000000" font-family="sans-serif" font-size="11" lengthAdjust="spacingAndGlyphs" textLength="26" x="187" y="799.4189">-int id</text><text fill="#000000" font-family="sans-serif" font-size="11" lengthAdjust="spacingAndGlyphs" textLength="93" x="187" y="813.2549">-String vehicleType</text><text fill="#000000" font-family="sans-serif" font-size="11" lengthAdjust="spacingAndGlyphs" textLength="67" x="187" y="827.0908">-float potency</text><text fill="#000000" font-family="sans-serif" font-size="11" lengthAdjust="spacingAndGlyphs" textLength="61" x="187" y="840.9268">-float weight</text><text fill="#000000" font-family="sans-serif" font-size="11" lengthAdjust="spacingAndGlyphs" textLength="86" x="187" y="854.7627">-float maxPayload</text><text fill="#000000" font-family="sans-serif" font-size="11" lengthAdjust="spacingAndGlyphs" textLength="114" x="187" y="868.5986">-String charngingStatus</text><line style="stroke: #A80036; stroke-width: 1.5;" x1="182" x2="306" y1="875.0156" y2="875.0156"/><!--MD5=[79eb2d862cef9730b5f9dcab29e35f17]
class Battery--><rect fill="#FEFECE" filter="url(#fqeslerfs3kpc)" height="103.3438" id="Battery" style="stroke: #A80036; stroke-width: 1.5;" width="111" x="54.5" y="961"/><ellipse cx="88.4" cy="977" fill="#ADD1B2" rx="11" ry="11" style="stroke: #A80036; stroke-width: 1.0;"/><path d="M90.4,973.5 Q90.6031,973 90.8375,972.75 Q91.0719,972.5 91.3375,972.5 Q91.8063,972.5 92.1031,972.7813 Q92.4,973.0625 92.4,973.7188 L92.4,975.2813 Q92.4,975.9375 92.1188,976.2188 Q91.8375,976.5 91.4,976.5 Q91.0094,976.5 90.7594,976.3281 Q90.5094,976.1563 90.4,975.7031 Q90.3531,975.3906 90.1813,975.2188 Q89.8688,974.8906 89.3063,974.7031 Q88.7438,974.5 88.1813,974.5 Q87.4781,974.5 86.8844,974.7813 Q86.3063,975.0625 85.8531,975.6875 Q85.4,976.3125 85.4,977.1719 L85.4,978.0938 Q85.4,979.125 86.2438,979.8125 Q87.0875,980.5 88.5875,980.5 Q89.4781,980.5 90.1031,980.2969 Q90.4625,980.1875 90.8688,979.8281 Q91.1344,979.625 91.275,979.5625 Q91.4156,979.5 91.5875,979.5 Q91.9156,979.5 92.15,979.7656 Q92.4,980.0156 92.4,980.375 Q92.4,980.7188 92.0563,981.125 Q91.5563,981.7188 90.7594,982.0469 Q89.7125,982.5 88.4313,982.5 Q86.9313,982.5 85.7281,981.9063 Q84.7594,981.4375 84.0719,980.4219 Q83.4,979.4063 83.4,978.2031 L83.4,977.1094 Q83.4,975.8594 83.9938,974.7656 Q84.6031,973.6719 85.65,973.0938 Q86.7125,972.5 87.9,972.5 Q88.6188,972.5 89.2438,972.75 Q89.8688,973 90.4,973.5 Z "/><text fill="#000000" font-family="sans-serif" font-size="12" lengthAdjust="spacingAndGlyphs" textLength="37" x="106.6" y="981.9102">Battery</text><line style="stroke: #A80036; stroke-width: 1.5;" x1="55.5" x2="164.5" y1="993" y2="993"/><text fill="#000000" font-family="sans-serif" font-size="11" lengthAdjust="spacingAndGlyphs" textLength="26" x="60.5" y="1008.4189">-int id</text><text fill="#000000" font-family="sans-serif" font-size="11" lengthAdjust="spacingAndGlyphs" textLength="84" x="60.5" y="1022.2549">-float batteryPerc</text><text fill="#000000" font-family="sans-serif" font-size="11" lengthAdjust="spacingAndGlyphs" textLength="94" x="60.5" y="1036.0908">-int batteryCapacity</text><text fill="#000000" font-family="sans-serif" font-size="11" lengthAdjust="spacingAndGlyphs" textLength="99" x="60.5" y="1049.9268">-float batteryVoltage</text><line style="stroke: #A80036; stroke-width: 1.5;" x1="55.5" x2="164.5" y1="1056.3438" y2="1056.3438"/><!--MD5=[0f39e4cb6f03951afbf6d14bd2505654]
class Address--><rect fill="#FEFECE" filter="url(#fqeslerfs3kpc)" height="144.8516" id="Address" style="stroke: #A80036; stroke-width: 1.5;" width="106" x="230" y="1142"/><ellipse cx="257.6" cy="1158" fill="#ADD1B2" rx="11" ry="11" style="stroke: #A80036; stroke-width: 1.0;"/><path d="M259.6,1154.5 Q259.8031,1154 260.0375,1153.75 Q260.2719,1153.5 260.5375,1153.5 Q261.0063,1153.5 261.3031,1153.7813 Q261.6,1154.0625 261.6,1154.7188 L261.6,1156.2813 Q261.6,1156.9375 261.3188,1157.2188 Q261.0375,1157.5 260.6,1157.5 Q260.2094,1157.5 259.9594,1157.3281 Q259.7094,1157.1563 259.6,1156.7031 Q259.5531,1156.3906 259.3813,1156.2188 Q259.0688,1155.8906 258.5063,1155.7031 Q257.9438,1155.5 257.3813,1155.5 Q256.6781,1155.5 256.0844,1155.7813 Q255.5063,1156.0625 255.0531,1156.6875 Q254.6,1157.3125 254.6,1158.1719 L254.6,1159.0938 Q254.6,1160.125 255.4438,1160.8125 Q256.2875,1161.5 257.7875,1161.5 Q258.6781,1161.5 259.3031,1161.2969 Q259.6625,1161.1875 260.0688,1160.8281 Q260.3344,1160.625 260.475,1160.5625 Q260.6156,1160.5 260.7875,1160.5 Q261.1156,1160.5 261.35,1160.7656 Q261.6,1161.0156 261.6,1161.375 Q261.6,1161.7188 261.2563,1162.125 Q260.7563,1162.7188 259.9594,1163.0469 Q258.9125,1163.5 257.6313,1163.5 Q256.1313,1163.5 254.9281,1162.9063 Q253.9594,1162.4375 253.2719,1161.4219 Q252.6,1160.4063 252.6,1159.2031 L252.6,1158.1094 Q252.6,1156.8594 253.1938,1155.7656 Q253.8031,1154.6719 254.85,1154.0938 Q255.9125,1153.5 257.1,1153.5 Q257.8188,1153.5 258.4438,1153.75 Q259.0688,1154 259.6,1154.5 Z "/><text fill="#000000" font-family="sans-serif" font-size="12" lengthAdjust="spacingAndGlyphs" textLength="46" x="274.4" y="1162.9102">Address</text><line style="stroke: #A80036; stroke-width: 1.5;" x1="231" x2="335" y1="1174" y2="1174"/><text fill="#000000" font-family="sans-serif" font-size="11" lengthAdjust="spacingAndGlyphs" textLength="82" x="236" y="1189.4189">-double longitude</text><text fill="#000000" font-family="sans-serif" font-size="11" lengthAdjust="spacingAndGlyphs" textLength="73" x="236" y="1203.2549">-double latitude</text><text fill="#000000" font-family="sans-serif" font-size="11" lengthAdjust="spacingAndGlyphs" textLength="94" x="236" y="1217.0908">-String doorNumber</text><text fill="#000000" font-family="sans-serif" font-size="11" lengthAdjust="spacingAndGlyphs" textLength="90" x="236" y="1230.9268">-String streetName</text><text fill="#000000" font-family="sans-serif" font-size="11" lengthAdjust="spacingAndGlyphs" textLength="89" x="236" y="1244.7627">-String postalCode</text><text fill="#000000" font-family="sans-serif" font-size="11" lengthAdjust="spacingAndGlyphs" textLength="68" x="236" y="1258.5986">-String locality</text><text fill="#000000" font-family="sans-serif" font-size="11" lengthAdjust="spacingAndGlyphs" textLength="72" x="236" y="1272.4346">-String country</text><line style="stroke: #A80036; stroke-width: 1.5;" x1="231" x2="335" y1="1278.8516" y2="1278.8516"/><!--MD5=[7f2a9fafcebe4f099f71398fd3e2ed00]
class Pharmacy--><rect fill="#FEFECE" filter="url(#fqeslerfs3kpc)" height="89.5078" id="Pharmacy" style="stroke: #A80036; stroke-width: 1.5;" width="102" x="201" y="967.5"/><ellipse cx="222.75" cy="983.5" fill="#ADD1B2" rx="11" ry="11" style="stroke: #A80036; stroke-width: 1.0;"/><path d="M224.75,980 Q224.9531,979.5 225.1875,979.25 Q225.4219,979 225.6875,979 Q226.1563,979 226.4531,979.2813 Q226.75,979.5625 226.75,980.2188 L226.75,981.7813 Q226.75,982.4375 226.4688,982.7188 Q226.1875,983 225.75,983 Q225.3594,983 225.1094,982.8281 Q224.8594,982.6563 224.75,982.2031 Q224.7031,981.8906 224.5313,981.7188 Q224.2188,981.3906 223.6563,981.2031 Q223.0938,981 222.5313,981 Q221.8281,981 221.2344,981.2813 Q220.6563,981.5625 220.2031,982.1875 Q219.75,982.8125 219.75,983.6719 L219.75,984.5938 Q219.75,985.625 220.5938,986.3125 Q221.4375,987 222.9375,987 Q223.8281,987 224.4531,986.7969 Q224.8125,986.6875 225.2188,986.3281 Q225.4844,986.125 225.625,986.0625 Q225.7656,986 225.9375,986 Q226.2656,986 226.5,986.2656 Q226.75,986.5156 226.75,986.875 Q226.75,987.2188 226.4063,987.625 Q225.9063,988.2188 225.1094,988.5469 Q224.0625,989 222.7813,989 Q221.2813,989 220.0781,988.4063 Q219.1094,987.9375 218.4219,986.9219 Q217.75,985.9063 217.75,984.7031 L217.75,983.6094 Q217.75,982.3594 218.3438,981.2656 Q218.9531,980.1719 220,979.5938 Q221.0625,979 222.25,979 Q222.9688,979 223.5938,979.25 Q224.2188,979.5 224.75,980 Z "/><text fill="#000000" font-family="sans-serif" font-size="12" lengthAdjust="spacingAndGlyphs" textLength="55" x="238.25" y="988.4102">Pharmacy</text><line style="stroke: #A80036; stroke-width: 1.5;" x1="202" x2="302" y1="999.5" y2="999.5"/><text fill="#000000" font-family="sans-serif" font-size="11" lengthAdjust="spacingAndGlyphs" textLength="26" x="207" y="1014.9189">-int id</text><text fill="#000000" font-family="sans-serif" font-size="11" lengthAdjust="spacingAndGlyphs" textLength="61" x="207" y="1028.7549">-String name</text><line style="stroke: #A80036; stroke-width: 1.5;" x1="202" x2="302" y1="1035.1719" y2="1035.1719"/><text fill="#000000" font-family="sans-serif" font-size="11" lengthAdjust="spacingAndGlyphs" textLength="90" x="207" y="1050.5908">+getScootersList()</text><!--MD5=[28160fdc0be430cd6f04db15a7547552]
class PharmacyService--><rect fill="#FEFECE" filter="url(#fqeslerfs3kpc)" height="75.6719" id="PharmacyService" style="stroke: #A80036; stroke-width: 1.5;" width="127" x="64.5" y="419"/><ellipse cx="79.5" cy="435" fill="#ADD1B2" rx="11" ry="11" style="stroke: #A80036; stroke-width: 1.0;"/><path d="M81.5,431.5 Q81.7031,431 81.9375,430.75 Q82.1719,430.5 82.4375,430.5 Q82.9063,430.5 83.2031,430.7813 Q83.5,431.0625 83.5,431.7188 L83.5,433.2813 Q83.5,433.9375 83.2188,434.2188 Q82.9375,434.5 82.5,434.5 Q82.1094,434.5 81.8594,434.3281 Q81.6094,434.1563 81.5,433.7031 Q81.4531,433.3906 81.2813,433.2188 Q80.9688,432.8906 80.4063,432.7031 Q79.8438,432.5 79.2813,432.5 Q78.5781,432.5 77.9844,432.7813 Q77.4063,433.0625 76.9531,433.6875 Q76.5,434.3125 76.5,435.1719 L76.5,436.0938 Q76.5,437.125 77.3438,437.8125 Q78.1875,438.5 79.6875,438.5 Q80.5781,438.5 81.2031,438.2969 Q81.5625,438.1875 81.9688,437.8281 Q82.2344,437.625 82.375,437.5625 Q82.5156,437.5 82.6875,437.5 Q83.0156,437.5 83.25,437.7656 Q83.5,438.0156 83.5,438.375 Q83.5,438.7188 83.1563,439.125 Q82.6563,439.7188 81.8594,440.0469 Q80.8125,440.5 79.5313,440.5 Q78.0313,440.5 76.8281,439.9063 Q75.8594,439.4375 75.1719,438.4219 Q74.5,437.4063 74.5,436.2031 L74.5,435.1094 Q74.5,433.8594 75.0938,432.7656 Q75.7031,431.6719 76.75,431.0938 Q77.8125,430.5 79,430.5 Q79.7188,430.5 80.3438,430.75 Q80.9688,431 81.5,431.5 Z "/><text fill="#000000" font-family="sans-serif" font-size="12" lengthAdjust="spacingAndGlyphs" textLength="95" x="93.5" y="439.9102">PharmacyService</text><line style="stroke: #A80036; stroke-width: 1.5;" x1="65.5" x2="190.5" y1="451" y2="451"/><line style="stroke: #A80036; stroke-width: 1.5;" x1="65.5" x2="190.5" y1="459" y2="459"/><text fill="#000000" font-family="sans-serif" font-size="11" lengthAdjust="spacingAndGlyphs" textLength="99" x="70.5" y="474.4189">+PharmacyService()</text><text fill="#000000" font-family="sans-serif" font-size="11" lengthAdjust="spacingAndGlyphs" textLength="85" x="70.5" y="488.2549">+getPharmacies()</text><!--MD5=[aa4a745fe56463fab637f55d2a7c778f]
class ScooterService--><rect fill="#FEFECE" filter="url(#fqeslerfs3kpc)" height="89.5078" id="ScooterService" style="stroke: #A80036; stroke-width: 1.5;" width="158" x="227" y="412"/><ellipse cx="261.8" cy="428" fill="#ADD1B2" rx="11" ry="11" style="stroke: #A80036; stroke-width: 1.0;"/><path d="M263.8,424.5 Q264.0031,424 264.2375,423.75 Q264.4719,423.5 264.7375,423.5 Q265.2063,423.5 265.5031,423.7813 Q265.8,424.0625 265.8,424.7188 L265.8,426.2813 Q265.8,426.9375 265.5188,427.2188 Q265.2375,427.5 264.8,427.5 Q264.4094,427.5 264.1594,427.3281 Q263.9094,427.1563 263.8,426.7031 Q263.7531,426.3906 263.5813,426.2188 Q263.2688,425.8906 262.7063,425.7031 Q262.1438,425.5 261.5813,425.5 Q260.8781,425.5 260.2844,425.7813 Q259.7063,426.0625 259.2531,426.6875 Q258.8,427.3125 258.8,428.1719 L258.8,429.0938 Q258.8,430.125 259.6438,430.8125 Q260.4875,431.5 261.9875,431.5 Q262.8781,431.5 263.5031,431.2969 Q263.8625,431.1875 264.2688,430.8281 Q264.5344,430.625 264.675,430.5625 Q264.8156,430.5 264.9875,430.5 Q265.3156,430.5 265.55,430.7656 Q265.8,431.0156 265.8,431.375 Q265.8,431.7188 265.4563,432.125 Q264.9563,432.7188 264.1594,433.0469 Q263.1125,433.5 261.8313,433.5 Q260.3313,433.5 259.1281,432.9063 Q258.1594,432.4375 257.4719,431.4219 Q256.8,430.4063 256.8,429.2031 L256.8,428.1094 Q256.8,426.8594 257.3938,425.7656 Q258.0031,424.6719 259.05,424.0938 Q260.1125,423.5 261.3,423.5 Q262.0188,423.5 262.6438,423.75 Q263.2688,424 263.8,424.5 Z "/><text fill="#000000" font-family="sans-serif" font-size="12" lengthAdjust="spacingAndGlyphs" textLength="82" x="280.2" y="432.9102">ScooterService</text><line style="stroke: #A80036; stroke-width: 1.5;" x1="228" x2="384" y1="444" y2="444"/><line style="stroke: #A80036; stroke-width: 1.5;" x1="228" x2="384" y1="452" y2="452"/><text fill="#000000" font-family="sans-serif" font-size="11" lengthAdjust="spacingAndGlyphs" textLength="89" x="233" y="467.4189">+ScooterService()</text><text fill="#000000" font-family="sans-serif" font-size="11" lengthAdjust="spacingAndGlyphs" textLength="146" x="233" y="481.2549">+getScootersList(pharmacyId)</text><text fill="#000000" font-family="sans-serif" font-size="11" lengthAdjust="spacingAndGlyphs" textLength="112" x="233" y="495.0908">+updateScooter(scoot)</text><!--MD5=[4b2d61224b33971326a22fe5d809d926]
class DataHandler--><rect fill="#FEFECE" filter="url(#fqeslerfs3kpc)" height="75.6719" id="DataHandler" style="stroke: #A80036; stroke-width: 1.5;" width="104" x="744" y="419"/><ellipse cx="759.9" cy="435" fill="#ADD1B2" rx="11" ry="11" style="stroke: #A80036; stroke-width: 1.0;"/><path d="M761.9,431.5 Q762.1031,431 762.3375,430.75 Q762.5719,430.5 762.8375,430.5 Q763.3063,430.5 763.6031,430.7813 Q763.9,431.0625 763.9,431.7188 L763.9,433.2813 Q763.9,433.9375 763.6188,434.2188 Q763.3375,434.5 762.9,434.5 Q762.5094,434.5 762.2594,434.3281 Q762.0094,434.1563 761.9,433.7031 Q761.8531,433.3906 761.6813,433.2188 Q761.3688,432.8906 760.8063,432.7031 Q760.2438,432.5 759.6813,432.5 Q758.9781,432.5 758.3844,432.7813 Q757.8063,433.0625 757.3531,433.6875 Q756.9,434.3125 756.9,435.1719 L756.9,436.0938 Q756.9,437.125 757.7438,437.8125 Q758.5875,438.5 760.0875,438.5 Q760.9781,438.5 761.6031,438.2969 Q761.9625,438.1875 762.3688,437.8281 Q762.6344,437.625 762.775,437.5625 Q762.9156,437.5 763.0875,437.5 Q763.4156,437.5 763.65,437.7656 Q763.9,438.0156 763.9,438.375 Q763.9,438.7188 763.5563,439.125 Q763.0563,439.7188 762.2594,440.0469 Q761.2125,440.5 759.9313,440.5 Q758.4313,440.5 757.2281,439.9063 Q756.2594,439.4375 755.5719,438.4219 Q754.9,437.4063 754.9,436.2031 L754.9,435.1094 Q754.9,433.8594 755.4938,432.7656 Q756.1031,431.6719 757.15,431.0938 Q758.2125,430.5 759.4,430.5 Q760.1188,430.5 760.7438,430.75 Q761.3688,431 761.9,431.5 Z "/><text fill="#000000" font-family="sans-serif" font-size="12" lengthAdjust="spacingAndGlyphs" textLength="70" x="774.1" y="439.9102">DataHandler</text><line style="stroke: #A80036; stroke-width: 1.5;" x1="745" x2="847" y1="451" y2="451"/><line style="stroke: #A80036; stroke-width: 1.5;" x1="745" x2="847" y1="459" y2="459"/><text fill="#000000" font-family="sans-serif" font-size="11" lengthAdjust="spacingAndGlyphs" textLength="92" x="750" y="474.4189">+openConnection()</text><text fill="#000000" font-family="sans-serif" font-size="11" lengthAdjust="spacingAndGlyphs" textLength="52" x="750" y="488.2549">+closeAll()</text><!--MD5=[b860ecc58d0ca70e482845cb1f7b4615]
class PharmacyDB--><rect fill="#FEFECE" filter="url(#fqeslerfs3kpc)" height="75.6719" id="PharmacyDB" style="stroke: #A80036; stroke-width: 1.5;" width="104" x="756" y="589"/><ellipse cx="771" cy="605" fill="#ADD1B2" rx="11" ry="11" style="stroke: #A80036; stroke-width: 1.0;"/><path d="M773,601.5 Q773.2031,601 773.4375,600.75 Q773.6719,600.5 773.9375,600.5 Q774.4063,600.5 774.7031,600.7813 Q775,601.0625 775,601.7188 L775,603.2813 Q775,603.9375 774.7188,604.2188 Q774.4375,604.5 774,604.5 Q773.6094,604.5 773.3594,604.3281 Q773.1094,604.1563 773,603.7031 Q772.9531,603.3906 772.7813,603.2188 Q772.4688,602.8906 771.9063,602.7031 Q771.3438,602.5 770.7813,602.5 Q770.0781,602.5 769.4844,602.7813 Q768.9063,603.0625 768.4531,603.6875 Q768,604.3125 768,605.1719 L768,606.0938 Q768,607.125 768.8438,607.8125 Q769.6875,608.5 771.1875,608.5 Q772.0781,608.5 772.7031,608.2969 Q773.0625,608.1875 773.4688,607.8281 Q773.7344,607.625 773.875,607.5625 Q774.0156,607.5 774.1875,607.5 Q774.5156,607.5 774.75,607.7656 Q775,608.0156 775,608.375 Q775,608.7188 774.6563,609.125 Q774.1563,609.7188 773.3594,610.0469 Q772.3125,610.5 771.0313,610.5 Q769.5313,610.5 768.3281,609.9063 Q767.3594,609.4375 766.6719,608.4219 Q766,607.4063 766,606.2031 L766,605.1094 Q766,603.8594 766.5938,602.7656 Q767.2031,601.6719 768.25,601.0938 Q769.3125,600.5 770.5,600.5 Q771.2188,600.5 771.8438,600.75 Q772.4688,601 773,601.5 Z "/><text fill="#000000" font-family="sans-serif" font-size="12" lengthAdjust="spacingAndGlyphs" textLength="72" x="785" y="609.9102">PharmacyDB</text><line style="stroke: #A80036; stroke-width: 1.5;" x1="757" x2="859" y1="621" y2="621"/><line style="stroke: #A80036; stroke-width: 1.5;" x1="757" x2="859" y1="629" y2="629"/><text fill="#000000" font-family="sans-serif" font-size="11" lengthAdjust="spacingAndGlyphs" textLength="76" x="762" y="644.4189">+PharmacyDB()</text><text fill="#000000" font-family="sans-serif" font-size="11" lengthAdjust="spacingAndGlyphs" textLength="85" x="762" y="658.2549">+getPharmacies()</text><!--MD5=[48d7298b3bd1f8b3e8f77915e881d788]
class ScooterDB--><rect fill="#FEFECE" filter="url(#fqeslerfs3kpc)" height="89.5078" id="ScooterDB" style="stroke: #A80036; stroke-width: 1.5;" width="162" x="559" y="582"/><ellipse cx="606.25" cy="598" fill="#ADD1B2" rx="11" ry="11" style="stroke: #A80036; stroke-width: 1.0;"/><path d="M608.25,594.5 Q608.4531,594 608.6875,593.75 Q608.9219,593.5 609.1875,593.5 Q609.6563,593.5 609.9531,593.7813 Q610.25,594.0625 610.25,594.7188 L610.25,596.2813 Q610.25,596.9375 609.9688,597.2188 Q609.6875,597.5 609.25,597.5 Q608.8594,597.5 608.6094,597.3281 Q608.3594,597.1563 608.25,596.7031 Q608.2031,596.3906 608.0313,596.2188 Q607.7188,595.8906 607.1563,595.7031 Q606.5938,595.5 606.0313,595.5 Q605.3281,595.5 604.7344,595.7813 Q604.1563,596.0625 603.7031,596.6875 Q603.25,597.3125 603.25,598.1719 L603.25,599.0938 Q603.25,600.125 604.0938,600.8125 Q604.9375,601.5 606.4375,601.5 Q607.3281,601.5 607.9531,601.2969 Q608.3125,601.1875 608.7188,600.8281 Q608.9844,600.625 609.125,600.5625 Q609.2656,600.5 609.4375,600.5 Q609.7656,600.5 610,600.7656 Q610.25,601.0156 610.25,601.375 Q610.25,601.7188 609.9063,602.125 Q609.4063,602.7188 608.6094,603.0469 Q607.5625,603.5 606.2813,603.5 Q604.7813,603.5 603.5781,602.9063 Q602.6094,602.4375 601.9219,601.4219 Q601.25,600.4063 601.25,599.2031 L601.25,598.1094 Q601.25,596.8594 601.8438,595.7656 Q602.4531,594.6719 603.5,594.0938 Q604.5625,593.5 605.75,593.5 Q606.4688,593.5 607.0938,593.75 Q607.7188,594 608.25,594.5 Z "/><text fill="#000000" font-family="sans-serif" font-size="12" lengthAdjust="spacingAndGlyphs" textLength="59" x="626.75" y="602.9102">ScooterDB</text><line style="stroke: #A80036; stroke-width: 1.5;" x1="560" x2="720" y1="614" y2="614"/><line style="stroke: #A80036; stroke-width: 1.5;" x1="560" x2="720" y1="622" y2="622"/><text fill="#000000" font-family="sans-serif" font-size="11" lengthAdjust="spacingAndGlyphs" textLength="66" x="565" y="637.4189">+ScooterDB()</text><text fill="#000000" font-family="sans-serif" font-size="11" lengthAdjust="spacingAndGlyphs" textLength="90" x="565" y="651.2549">+getScootersList()</text><text fill="#000000" font-family="sans-serif" font-size="11" lengthAdjust="spacingAndGlyphs" textLength="150" x="565" y="665.0908">+updateScooterFromDB(scoot)</text><!--MD5=[f40d64c3825bdc96a4efd5b7e3ff1420]
reverse link DataHandler to PharmacyDB--><path d="M800.109,515.52 C801.841,539.773 803.808,567.306 805.344,588.82 " fill="none" id="DataHandler&lt;-PharmacyDB" style="stroke: #A80036; stroke-width: 1.0;"/><polygon fill="none" points="793.106,515.733,798.663,495.285,807.07,514.735,793.106,515.733" style="stroke: #A80036; stroke-width: 1.0;"/><!--MD5=[a2c65173c20bdf66914a8ed43c34e217]
reverse link DataHandler to ScooterDB--><path d="M796.756,515.229 C794.669,528.218 790.551,541.318 783,552 C778.522,558.334 751.043,573.088 721.351,587.769 " fill="none" id="DataHandler&lt;-ScooterDB" style="stroke: #A80036; stroke-width: 1.0;"/><polygon fill="none" points="789.789,514.557,798.567,495.271,803.731,515.822,789.789,514.557" style="stroke: #A80036; stroke-width: 1.0;"/><!--MD5=[068c19e9ee2b8d6f5118254dd44da898]
link UpdateScooterUI to UpdateScooterController--><path d="M182,108.09 C182,129.11 182,160.85 182,187.58 " fill="none" id="UpdateScooterUI-&gt;UpdateScooterController" style="stroke: #A80036; stroke-width: 1.0; stroke-dasharray: 7.0,7.0;"/><polygon fill="#A80036" points="182,192.85,186,183.85,182,187.85,178,183.85,182,192.85" style="stroke: #A80036; stroke-width: 1.0;"/><!--MD5=[8726f40d04d7fff4643080593f315b6b]
link UpdateScooterController to PharmacyService--><path d="M171.007,283.17 C161.504,321.36 147.861,376.19 138.503,413.79 " fill="none" id="UpdateScooterController-&gt;PharmacyService" style="stroke: #A80036; stroke-width: 1.0; stroke-dasharray: 7.0,7.0;"/><polygon fill="#A80036" points="137.27,418.75,143.3355,410.9905,138.484,413.8996,135.5749,409.0481,137.27,418.75" style="stroke: #A80036; stroke-width: 1.0;"/><!--MD5=[ca01bf2db4ec991acca53a5e6a0a6b09]
link UpdateScooterController to ScooterService--><path d="M207.243,283.17 C227.861,319.26 256.966,370.19 278.238,407.42 " fill="none" id="UpdateScooterController-&gt;ScooterService" style="stroke: #A80036; stroke-width: 1.0; stroke-dasharray: 7.0,7.0;"/><polygon fill="#A80036" points="280.793,411.89,279.8167,402.0897,278.3194,407.5447,272.8643,406.0474,280.793,411.89" style="stroke: #A80036; stroke-width: 1.0;"/><!--MD5=[04ba2cb7f5803b19c0d0e740f2a895e0]
link Database to PharmacyDB--><path d="M498.525,480.738 C508.421,496.318 523.759,515.923 543,526 C577.398,544.015 592.409,524.271 630,534 C681.245,547.263 692.326,557.03 739,582 C743.048,584.166 747.173,586.485 751.292,588.886 " fill="none" id="Database-&gt;PharmacyDB" style="stroke: #A80036; stroke-width: 1.0;"/><polygon fill="#A80036" points="755.755,591.52,750.0365,583.5014,751.4487,588.9791,745.971,590.3914,755.755,591.52" style="stroke: #A80036; stroke-width: 1.0;"/><text fill="#000000" font-family="sans-serif" font-size="13" lengthAdjust="spacingAndGlyphs" textLength="53" x="684" y="548.4951">manages</text><text fill="#000000" font-family="sans-serif" font-size="13" lengthAdjust="spacingAndGlyphs" textLength="7" x="493.612" y="501.6583">1</text><text fill="#000000" font-family="sans-serif" font-size="13" lengthAdjust="spacingAndGlyphs" textLength="7" x="740.9159" y="582.9485">1</text><!--MD5=[70f68ce34a156c56edce71dba5c758e9]
link Database to ScooterDB--><path d="M504.339,480.707 C515.321,494.092 529.69,511.244 543,526 C558.663,543.365 576.331,561.878 592.256,578.194 " fill="none" id="Database-&gt;ScooterDB" style="stroke: #A80036; stroke-width: 1.0;"/><polygon fill="#A80036" points="595.838,581.857,592.4048,572.6259,592.342,578.2824,586.6855,578.2195,595.838,581.857" style="stroke: #A80036; stroke-width: 1.0;"/><text fill="#000000" font-family="sans-serif" font-size="13" lengthAdjust="spacingAndGlyphs" textLength="53" x="568" y="548.4951">manages</text><text fill="#000000" font-family="sans-serif" font-size="13" lengthAdjust="spacingAndGlyphs" textLength="7" x="509.3893" y="501.6202">1</text><text fill="#000000" font-family="sans-serif" font-size="13" lengthAdjust="spacingAndGlyphs" textLength="7" x="581.5398" y="571.2792">1</text><!--MD5=[ee7ed70a83e67b7f86b44988d609d45d]
link ScooterService to PharmacyDB--><path d="M283.405,502.33 C277.899,519.799 276.65,538.8 289,552 C323.235,588.593 691.388,566.374 739,582 C743.075,583.337 747.148,584.971 751.164,586.813 " fill="none" id="ScooterService-&gt;PharmacyDB" style="stroke: #A80036; stroke-width: 1.0;"/><polygon fill="#A80036" points="755.848,589.065,749.4702,581.5601,751.3418,586.8983,746.0036,588.7699,755.848,589.065" style="stroke: #A80036; stroke-width: 1.0;"/><text fill="#000000" font-family="sans-serif" font-size="13" lengthAdjust="spacingAndGlyphs" textLength="28" x="290" y="548.4951">uses</text><text fill="#000000" font-family="sans-serif" font-size="13" lengthAdjust="spacingAndGlyphs" textLength="7" x="272.8985" y="523.048">1</text><text fill="#000000" font-family="sans-serif" font-size="13" lengthAdjust="spacingAndGlyphs" textLength="5" x="746.6934" y="578.1535">*</text><!--MD5=[799b1f05f2692ceb79e345e4105e6b42]
link PharmacyService to ScooterDB--><path d="M162.761,495.215 C183.932,515.453 212.682,538.953 243,552 C319.915,585.099 346.659,566.783 429,582 C470.114,589.598 515.534,598.946 553.669,607.068 " fill="none" id="PharmacyService-&gt;ScooterDB" style="stroke: #A80036; stroke-width: 1.0;"/><polygon fill="#A80036" points="558.76,608.154,550.7926,602.3643,553.87,607.1108,549.1235,610.1883,558.76,608.154" style="stroke: #A80036; stroke-width: 1.0;"/><text fill="#000000" font-family="sans-serif" font-size="13" lengthAdjust="spacingAndGlyphs" textLength="28" x="244" y="548.4951">uses</text><text fill="#000000" font-family="sans-serif" font-size="13" lengthAdjust="spacingAndGlyphs" textLength="7" x="160.7432" y="516.1298">1</text><text fill="#000000" font-family="sans-serif" font-size="13" lengthAdjust="spacingAndGlyphs" textLength="5" x="546.0402" y="603.2131">*</text><!--MD5=[2ed2b43e7f6d114538396b0b10b28567]
link PharmacyService to Pharmacy--><path d="M91.243,495.201 C81.6412,506.798 72.2449,520.191 66,534 C36.295,599.683 43.2166,625.444 58,696 C81.3859,807.612 93.8334,838.843 161,931 C171.133,944.903 184.046,958.119 196.94,969.673 " fill="none" id="PharmacyService-&gt;Pharmacy" style="stroke: #A80036; stroke-width: 1.0;"/><polygon fill="#A80036" points="200.938,973.205,196.8409,964.2488,197.1906,969.8948,191.5446,970.2445,200.938,973.205" style="stroke: #A80036; stroke-width: 1.0;"/><text fill="#000000" font-family="sans-serif" font-size="13" lengthAdjust="spacingAndGlyphs" textLength="111" x="65" y="718.4951">manage services of</text><text fill="#000000" font-family="sans-serif" font-size="13" lengthAdjust="spacingAndGlyphs" textLength="7" x="77.827" y="516.1136">1</text><text fill="#000000" font-family="sans-serif" font-size="13" lengthAdjust="spacingAndGlyphs" textLength="5" x="188.0711" y="963.8156">*</text><!--MD5=[a4fc43f4c54bc2b04150642bdfef7d93]
link ScooterService to Scooter--><path d="M254.025,502.154 C240.202,511.653 224.719,520.485 209,526 C195.763,530.644 92.6,523.771 83,534 C63.3193,554.97 76.9787,572.507 103.1062,586.455 " fill="none" id="ScooterService-&gt;Scooter" style="stroke: #A80036; stroke-width: 1.0;"/><polygon fill="#A80036" points="107.762,588.839,101.5751,581.1759,103.3118,586.5596,97.9281,588.2963,107.762,588.839" style="stroke: #A80036; stroke-width: 1.0;"/><text fill="#000000" font-family="sans-serif" font-size="13" lengthAdjust="spacingAndGlyphs" textLength="111" x="84" y="548.4951">manage services of</text><text fill="#000000" font-family="sans-serif" font-size="13" lengthAdjust="spacingAndGlyphs" textLength="7" x="239.5705" y="522.8484">1</text><text fill="#000000" font-family="sans-serif" font-size="13" lengthAdjust="spacingAndGlyphs" textLength="5" x="78.0492" y="578.1722">*</text><!--MD5=[51d7b9a785c9fb041ca400474ed1d998]
link Database to Pharmacy--><path d="M485.229,480.62 C484.245,499.792 482.017,527.926 477,552 C440.548,726.905 443.963,783.599 343,931 C332.153,946.836 317.519,961.585 303.161,974.02 " fill="none" id="Database-Pharmacy" style="stroke: #A80036; stroke-width: 1.0;"/><text fill="#000000" font-family="sans-serif" font-size="13" lengthAdjust="spacingAndGlyphs" textLength="82" x="448" y="718.4951">has registered</text><polygon fill="#000000" points="484.5,727.3516,487.5,733.3516,490.5,727.3516,484.5,727.3516" style="stroke: #000000; stroke-width: 1.0;"/><text fill="#000000" font-family="sans-serif" font-size="13" lengthAdjust="spacingAndGlyphs" textLength="7" x="477.2413" y="501.5131">1</text><text fill="#000000" font-family="sans-serif" font-size="13" lengthAdjust="spacingAndGlyphs" textLength="5" x="311.0425" y="964.7503">*</text><!--MD5=[f4a94ba2ad2673d4959409a96e63c979]
link Database to Scooter--><path d="M462.41,480.81 C446.224,495.422 423.65,513.854 401,526 C390.719,531.513 386.458,528.829 376,534 C345.576,549.043 314.298,570.53 289.829,588.956 " fill="none" id="Database-Scooter" style="stroke: #A80036; stroke-width: 1.0;"/><polygon fill="#000000" points="384,541.6758,378,544.6758,384,547.6758,384,541.6758" style="stroke: #000000; stroke-width: 1.0;"/><text fill="#000000" font-family="sans-serif" font-size="13" lengthAdjust="spacingAndGlyphs" textLength="82" x="390" y="548.4951">has registered</text><text fill="#000000" font-family="sans-serif" font-size="13" lengthAdjust="spacingAndGlyphs" textLength="7" x="449.1454" y="501.747">1</text><text fill="#000000" font-family="sans-serif" font-size="13" lengthAdjust="spacingAndGlyphs" textLength="5" x="292.8178" y="578.0244">*</text><!--MD5=[074a56c4439d52c76e1cc7a8f9d070a4]
link Vehicle to Battery--><path d="M199.194,883.035 C181.618,908.348 161.746,936.97 145.227,960.762 " fill="none" id="Vehicle-Battery" style="stroke: #A80036; stroke-width: 1.0;"/><text fill="#000000" font-family="sans-serif" font-size="13" lengthAdjust="spacingAndGlyphs" textLength="21" x="178" y="927.4951">has</text><polygon fill="#000000" points="184,936.3516,187,942.3516,190,936.3516,184,936.3516" style="stroke: #000000; stroke-width: 1.0;"/><text fill="#000000" font-family="sans-serif" font-size="13" lengthAdjust="spacingAndGlyphs" textLength="7" x="186.9105" y="904.5914">1</text><text fill="#000000" font-family="sans-serif" font-size="13" lengthAdjust="spacingAndGlyphs" textLength="7" x="142.4903" y="950.2303">1</text><!--MD5=[9793812679a856b96e8ba34e2675abcc]
link Vehicle to Pharmacy--><path d="M246.675,883.035 C247.824,910.759 249.138,942.452 250.173,967.422 " fill="none" id="Vehicle-Pharmacy" style="stroke: #A80036; stroke-width: 1.0;"/><text fill="#000000" font-family="sans-serif" font-size="13" lengthAdjust="spacingAndGlyphs" textLength="71" x="250" y="927.4951">belongs to a</text><polygon fill="#000000" points="281,936.3516,284,942.3516,287,936.3516,281,936.3516" style="stroke: #000000; stroke-width: 1.0;"/><text fill="#000000" font-family="sans-serif" font-size="13" lengthAdjust="spacingAndGlyphs" textLength="5" x="241.6941" y="904.5914">*</text><text fill="#000000" font-family="sans-serif" font-size="13" lengthAdjust="spacingAndGlyphs" textLength="7" x="242.324" y="956.525">1</text><!--MD5=[52f80c2c106e4280525a8160ec8cd0fa]
link Scooter to Vehicle--><path d="M244,665.242 C244,689.919 244,722.949 244,751.847 " fill="none" id="Scooter-Vehicle" style="stroke: #A80036; stroke-width: 1.0;"/><text fill="#000000" font-family="sans-serif" font-size="13" lengthAdjust="spacingAndGlyphs" textLength="64" x="245" y="718.4951">is a type of</text><polygon fill="#000000" points="272.5,727.3516,275.5,733.3516,278.5,727.3516,272.5,727.3516" style="stroke: #000000; stroke-width: 1.0;"/><text fill="#000000" font-family="sans-serif" font-size="13" lengthAdjust="spacingAndGlyphs" textLength="5" x="238.6016" y="686.1611">*</text><text fill="#000000" font-family="sans-serif" font-size="13" lengthAdjust="spacingAndGlyphs" textLength="7" x="236.6172" y="741.3047">1</text><!--MD5=[89baec1bfb4a213750f7c61516e0a0f1]
link Pharmacy to Address--><path d="M258.88,1057.886 C262.697,1082.514 267.537,1113.74 271.878,1141.746 " fill="none" id="Pharmacy-Address" style="stroke: #A80036; stroke-width: 1.0;"/><text fill="#000000" font-family="sans-serif" font-size="13" lengthAdjust="spacingAndGlyphs" textLength="21" x="268" y="1108.4951">has</text><polygon fill="#000000" points="274,1117.3516,277,1123.3516,280,1117.3516,274,1117.3516" style="stroke: #000000; stroke-width: 1.0;"/><text fill="#000000" font-family="sans-serif" font-size="13" lengthAdjust="spacingAndGlyphs" textLength="7" x="252.3342" y="1078.6116">1</text><text fill="#000000" font-family="sans-serif" font-size="13" lengthAdjust="spacingAndGlyphs" textLength="7" x="263.3701" y="1130.9391">1</text><!--MD5=[e7daa03d92f0a94af078cf78578db78d]
link Pharmacy to ScooterPark--><path d="M226.922,1057.886 C205.335,1096.093 174.775,1150.182 155.955,1183.49 " fill="none" id="Pharmacy-ScooterPark" style="stroke: #A80036; stroke-width: 1.0;"/><text fill="#000000" font-family="sans-serif" font-size="13" lengthAdjust="spacingAndGlyphs" textLength="21" x="207" y="1108.4951">has</text><polygon fill="#000000" points="213,1117.3516,216,1123.3516,219,1117.3516,213,1117.3516" style="stroke: #000000; stroke-width: 1.0;"/><text fill="#000000" font-family="sans-serif" font-size="13" lengthAdjust="spacingAndGlyphs" textLength="7" x="216.0818" y="1078.6116">1</text><text fill="#000000" font-family="sans-serif" font-size="13" lengthAdjust="spacingAndGlyphs" textLength="7" x="151.8983" y="1172.5081">1</text><!--MD5=[6c03f80bb0eb412de4ede466470bd7f4]
link ScooterPark to ScooterChargingSlot--><path d="M135.091,1245.88 C130.907,1278.393 124.266,1329.993 119.776,1364.888 " fill="none" id="ScooterPark-ScooterChargingSlot" style="stroke: #A80036; stroke-width: 1.0;"/><text fill="#000000" font-family="sans-serif" font-size="13" lengthAdjust="spacingAndGlyphs" textLength="21" x="127" y="1331.4951">has</text><polygon fill="#000000" points="133,1340.3516,136,1346.3516,139,1340.3516,133,1340.3516" style="stroke: #000000; stroke-width: 1.0;"/><text fill="#000000" font-family="sans-serif" font-size="13" lengthAdjust="spacingAndGlyphs" textLength="7" x="126.6787" y="1266.9311">1</text><text fill="#000000" font-family="sans-serif" font-size="13" lengthAdjust="spacingAndGlyphs" textLength="7" x="113.0033" y="1354.23">1</text><!--MD5=[8b5c72ddee54db66c8e770f45750c925]
link ScooterPark to ScooterParkingSlot--><path d="M163.923,1245.88 C192.459,1280.664 238.917,1337.294 267.342,1371.943 " fill="none" id="ScooterPark-ScooterParkingSlot" style="stroke: #A80036; stroke-width: 1.0;"/><text fill="#000000" font-family="sans-serif" font-size="13" lengthAdjust="spacingAndGlyphs" textLength="21" x="235" y="1331.4951">has</text><polygon fill="#000000" points="241,1340.3516,244,1346.3516,247,1340.3516,241,1340.3516" style="stroke: #000000; stroke-width: 1.0;"/><text fill="#000000" font-family="sans-serif" font-size="13" lengthAdjust="spacingAndGlyphs" textLength="7" x="161.0068" y="1266.9311">1</text><text fill="#000000" font-family="sans-serif" font-size="13" lengthAdjust="spacingAndGlyphs" textLength="7" x="254.1824" y="1360.9508">1</text><!--MD5=[0633e8c59563c6e14b727cebb75e5d49]
@startuml
skinparam classAttributeIconSize 0

database Database {
}

package "UI" #DDDDDD {
class UpdateScooterUI{
}
}

package "Controller" #DDDDDD {
class UpdateScooterController{
+showPharmacies()
+showScootersList(pharmacyId)
+updateScooter(scoot)
}
}


package "Model" #DDDDDD {
 package "Service" #DDDDDD {
  class PharmacyService{
      +PharmacyService()
      +getPharmacies()
  }

  class ScooterService{
      +ScooterService()
      +getScootersList(pharmacyId)
      +updateScooter(scoot)
   }
}

package "Model" #DDDDDD {
class ScooterPark{
-   int maxSlotsNumber
}

class ScooterChargingSlot{
-   int id
-   float outputPower
}

class ScooterParkingSlot{
-   int id
}

class Scooter{
+Scooter(batteryPerc, charginStatus, potency,\n weight, batteryCapacity, maxPayload, batteryVoltage, pharmacyId)

}

class Vehicle{
  -int id
  -String vehicleType
  -float potency
  -float weight
  -float maxPayload
  -String charngingStatus
}

class Battery{
  -int id
  -float batteryPerc
  -int batteryCapacity
  -float batteryVoltage
}

class Address{
  -double longitude
  -double latitude
  -String doorNumber
  -String streetName
  -String postalCode
  -String locality
  -String country
}

class Pharmacy {
  -int id
  -String name
  +getScootersList()
}
}


package "Data" #DDDDDD {
class DataHandler{
    +openConnection()
    +closeAll()
}
class PharmacyDB{
     +PharmacyDB()
     +getPharmacies()
 }

 class ScooterDB{
     +ScooterDB()
     +getScootersList()
     +updateScooterFromDB(scoot)
  }
}

class PharmacyDB extends DataHandler
class ScooterDB extends DataHandler

UpdateScooterUI ..> UpdateScooterController
UpdateScooterController ..> PharmacyService
UpdateScooterController ..> ScooterService
Database "1" - -> "1" PharmacyDB : manages
Database "1" - -> "1" ScooterDB : manages
ScooterService "1" - -> "*" PharmacyDB : uses
PharmacyService "1" - -> "*" ScooterDB : uses
PharmacyService "1" - -> "*" Pharmacy : manage services of
ScooterService "1" - -> "*" Scooter : manage services of

Database "1" - - "*" Pharmacy : has registered >
Database "1" - - "*" Scooter : has registered >

Vehicle "1" - - "1" Battery : has >
Vehicle "*" - - "1" Pharmacy : belongs to a >
Scooter "*" - - "1" Vehicle : is a type of >
Pharmacy "1" - - "1" Address : has >
Pharmacy "1" - - "1" ScooterPark : has >
ScooterPark "1" - - "1" ScooterChargingSlot : has >
ScooterPark "1" - - "1" ScooterParkingSlot : has >

@enduml

PlantUML version 1.2020.09(Sun May 10 11:51:06 BST 2020)
(GPL source distribution)
Java Runtime: OpenJDK Runtime Environment
JVM: OpenJDK 64-Bit Server VM
Java Version: 11.0.6+8-b765.40
Operating System: Windows 10
Default Encoding: Cp1252
Language: pt
Country: PT
--></g></svg>