<?xml version="1.0" encoding="UTF-8" standalone="no"?><svg xmlns="http://www.w3.org/2000/svg" xmlns:xlink="http://www.w3.org/1999/xlink" contentScriptType="application/ecmascript" contentStyleType="text/css" height="992px" preserveAspectRatio="none" style="width:1430px;height:992px;" version="1.1" viewBox="0 0 1430 992" width="1430px" zoomAndPan="magnify"><defs><filter height="300%" id="f1rcjmpszyqyl5" width="300%" x="-1" y="-1"><feGaussianBlur result="blurOut" stdDeviation="2.0"/><feColorMatrix in="blurOut" result="blurOut2" type="matrix" values="0 0 0 0 0 0 0 0 0 0 0 0 0 0 0 0 0 0 .4 0"/><feOffset dx="4.0" dy="4.0" in="blurOut2" result="blurOut3"/><feBlend in="SourceGraphic" in2="blurOut3" mode="normal"/></filter></defs><g><!--MD5=[9681dc6e01e10c6b4fe06895ae94f592]
cluster UI--><polygon fill="#DDDDDD" filter="url(#f1rcjmpszyqyl5)" points="45,24,65,24,72,47.6094,203,47.6094,203,124,45,124,45,24" style="stroke: #000000; stroke-width: 1.5;"/><line style="stroke: #000000; stroke-width: 1.5;" x1="45" x2="72" y1="47.6094" y2="47.6094"/><text fill="#000000" font-family="sans-serif" font-size="14" font-weight="bold" lengthAdjust="spacingAndGlyphs" textLength="14" x="49" y="40.5332">UI</text><!--MD5=[1f2cfc53d9d308f53762fd0fcbaa4873]
cluster Controller--><polygon fill="#DDDDDD" filter="url(#f1rcjmpszyqyl5)" points="22,157,99,157,106,180.6094,226,180.6094,226,299,22,299,22,157" style="stroke: #000000; stroke-width: 1.5;"/><line style="stroke: #000000; stroke-width: 1.5;" x1="22" x2="106" y1="180.6094" y2="180.6094"/><text fill="#000000" font-family="sans-serif" font-size="14" font-weight="bold" lengthAdjust="spacingAndGlyphs" textLength="71" x="26" y="173.5332">Controller</text><!--MD5=[15636c1ca4a123c16a2a1a8e90aca7a9]
cluster Model--><polygon fill="#DDDDDD" filter="url(#f1rcjmpszyqyl5)" points="278,349,328,349,335,372.6094,1019,372.6094,1019,980,278,980,278,349" style="stroke: #000000; stroke-width: 1.5;"/><line style="stroke: #000000; stroke-width: 1.5;" x1="278" x2="335" y1="372.6094" y2="372.6094"/><text fill="#000000" font-family="sans-serif" font-size="14" font-weight="bold" lengthAdjust="spacingAndGlyphs" textLength="44" x="282" y="365.5332">Model</text><!--MD5=[9dd75fd92da113d30380b27734fd2f01]
cluster Service--><polygon fill="#DDDDDD" filter="url(#f1rcjmpszyqyl5)" points="302,397,362,397,369,420.6094,655,420.6094,655,539,302,539,302,397" style="stroke: #000000; stroke-width: 1.5;"/><line style="stroke: #000000; stroke-width: 1.5;" x1="302" x2="369" y1="420.6094" y2="420.6094"/><text fill="#000000" font-family="sans-serif" font-size="14" font-weight="bold" lengthAdjust="spacingAndGlyphs" textLength="54" x="306" y="413.5332">Service</text><!--MD5=[f21b1f164e99c6b37934f23ad048ad54]
cluster Data--><polygon fill="#DDDDDD" filter="url(#f1rcjmpszyqyl5)" points="1075,404,1112,404,1119,427.6094,1408,427.6094,1408,755,1075,755,1075,404" style="stroke: #000000; stroke-width: 1.5;"/><line style="stroke: #000000; stroke-width: 1.5;" x1="1075" x2="1119" y1="427.6094" y2="427.6094"/><text fill="#000000" font-family="sans-serif" font-size="14" font-weight="bold" lengthAdjust="spacingAndGlyphs" textLength="31" x="1079" y="420.5332">Data</text><!--MD5=[fa1e3283224feb76407c84b7e90ed808]
entity Database--><path d="M971.5,224.5 C971.5,214.5 1012,214.5 1012,214.5 C1012,214.5 1052.5,214.5 1052.5,224.5 L1052.5,251.1094 C1052.5,261.1094 1012,261.1094 1012,261.1094 C1012,261.1094 971.5,261.1094 971.5,251.1094 L971.5,224.5 " fill="#FFFFFF" filter="url(#f1rcjmpszyqyl5)" style="stroke: #000000; stroke-width: 1.5;"/><path d="M971.5,224.5 C971.5,234.5 1012,234.5 1012,234.5 C1012,234.5 1052.5,234.5 1052.5,224.5 " fill="none" style="stroke: #000000; stroke-width: 1.5;"/><text fill="#000000" font-family="sans-serif" font-size="14" lengthAdjust="spacingAndGlyphs" textLength="61" x="981.5" y="253.0332">Database</text><!--MD5=[56b05040cba7ba1143e43c771f04a5c5]
class UpdateScooterUI--><rect fill="#FEFECE" filter="url(#f1rcjmpszyqyl5)" height="48" id="UpdateScooterUI" style="stroke: #A80036; stroke-width: 1.5;" width="126" x="61" y="60"/><ellipse cx="76" cy="76" fill="#ADD1B2" rx="11" ry="11" style="stroke: #A80036; stroke-width: 1.0;"/><path d="M78,72.5 Q78.2031,72 78.4375,71.75 Q78.6719,71.5 78.9375,71.5 Q79.4063,71.5 79.7031,71.7813 Q80,72.0625 80,72.7188 L80,74.2813 Q80,74.9375 79.7188,75.2188 Q79.4375,75.5 79,75.5 Q78.6094,75.5 78.3594,75.3281 Q78.1094,75.1563 78,74.7031 Q77.9531,74.3906 77.7813,74.2188 Q77.4688,73.8906 76.9063,73.7031 Q76.3438,73.5 75.7813,73.5 Q75.0781,73.5 74.4844,73.7813 Q73.9063,74.0625 73.4531,74.6875 Q73,75.3125 73,76.1719 L73,77.0938 Q73,78.125 73.8438,78.8125 Q74.6875,79.5 76.1875,79.5 Q77.0781,79.5 77.7031,79.2969 Q78.0625,79.1875 78.4688,78.8281 Q78.7344,78.625 78.875,78.5625 Q79.0156,78.5 79.1875,78.5 Q79.5156,78.5 79.75,78.7656 Q80,79.0156 80,79.375 Q80,79.7188 79.6563,80.125 Q79.1563,80.7188 78.3594,81.0469 Q77.3125,81.5 76.0313,81.5 Q74.5313,81.5 73.3281,80.9063 Q72.3594,80.4375 71.6719,79.4219 Q71,78.4063 71,77.2031 L71,76.1094 Q71,74.8594 71.5938,73.7656 Q72.2031,72.6719 73.25,72.0938 Q74.3125,71.5 75.5,71.5 Q76.2188,71.5 76.8438,71.75 Q77.4688,72 78,72.5 Z "/><text fill="#000000" font-family="sans-serif" font-size="12" lengthAdjust="spacingAndGlyphs" textLength="94" x="90" y="80.9102">UpdateScooterUI</text><line style="stroke: #A80036; stroke-width: 1.5;" x1="62" x2="186" y1="92" y2="92"/><line style="stroke: #A80036; stroke-width: 1.5;" x1="62" x2="186" y1="100" y2="100"/><!--MD5=[3e55a46d736e61deccb82423bbd922fc]
class UpdateScooterController--><rect fill="#FEFECE" filter="url(#f1rcjmpszyqyl5)" height="89.5078" id="UpdateScooterController" style="stroke: #A80036; stroke-width: 1.5;" width="171" x="38.5" y="193"/><ellipse cx="54.85" cy="209" fill="#ADD1B2" rx="11" ry="11" style="stroke: #A80036; stroke-width: 1.0;"/><path d="M56.85,205.5 Q57.0531,205 57.2875,204.75 Q57.5219,204.5 57.7875,204.5 Q58.2563,204.5 58.5531,204.7813 Q58.85,205.0625 58.85,205.7188 L58.85,207.2813 Q58.85,207.9375 58.5688,208.2188 Q58.2875,208.5 57.85,208.5 Q57.4594,208.5 57.2094,208.3281 Q56.9594,208.1563 56.85,207.7031 Q56.8031,207.3906 56.6313,207.2188 Q56.3188,206.8906 55.7563,206.7031 Q55.1938,206.5 54.6313,206.5 Q53.9281,206.5 53.3344,206.7813 Q52.7563,207.0625 52.3031,207.6875 Q51.85,208.3125 51.85,209.1719 L51.85,210.0938 Q51.85,211.125 52.6938,211.8125 Q53.5375,212.5 55.0375,212.5 Q55.9281,212.5 56.5531,212.2969 Q56.9125,212.1875 57.3188,211.8281 Q57.5844,211.625 57.725,211.5625 Q57.8656,211.5 58.0375,211.5 Q58.3656,211.5 58.6,211.7656 Q58.85,212.0156 58.85,212.375 Q58.85,212.7188 58.5063,213.125 Q58.0063,213.7188 57.2094,214.0469 Q56.1625,214.5 54.8813,214.5 Q53.3813,214.5 52.1781,213.9063 Q51.2094,213.4375 50.5219,212.4219 Q49.85,211.4063 49.85,210.2031 L49.85,209.1094 Q49.85,207.8594 50.4438,206.7656 Q51.0531,205.6719 52.1,205.0938 Q53.1625,204.5 54.35,204.5 Q55.0688,204.5 55.6938,204.75 Q56.3188,205 56.85,205.5 Z "/><text fill="#000000" font-family="sans-serif" font-size="12" lengthAdjust="spacingAndGlyphs" textLength="136" x="69.15" y="213.9102">UpdateScooterController</text><line style="stroke: #A80036; stroke-width: 1.5;" x1="39.5" x2="208.5" y1="225" y2="225"/><line style="stroke: #A80036; stroke-width: 1.5;" x1="39.5" x2="208.5" y1="233" y2="233"/><text fill="#000000" font-family="sans-serif" font-size="11" lengthAdjust="spacingAndGlyphs" textLength="98" x="44.5" y="248.4189">+showPharmacies()</text><text fill="#000000" font-family="sans-serif" font-size="11" lengthAdjust="spacingAndGlyphs" textLength="159" x="44.5" y="262.2549">+showScootersList(pharmacyId)</text><text fill="#000000" font-family="sans-serif" font-size="11" lengthAdjust="spacingAndGlyphs" textLength="112" x="44.5" y="276.0908">+updateScooter(scoot)</text><!--MD5=[f4402668d5d5bb8485350c0fdb60ac8e]
class Scooter--><rect fill="#FEFECE" filter="url(#f1rcjmpszyqyl5)" height="186.3594" id="Scooter" style="stroke: #A80036; stroke-width: 1.5;" width="329" x="673.5" y="385"/><ellipse cx="812.75" cy="401" fill="#ADD1B2" rx="11" ry="11" style="stroke: #A80036; stroke-width: 1.0;"/><path d="M814.75,397.5 Q814.9531,397 815.1875,396.75 Q815.4219,396.5 815.6875,396.5 Q816.1563,396.5 816.4531,396.7813 Q816.75,397.0625 816.75,397.7188 L816.75,399.2813 Q816.75,399.9375 816.4688,400.2188 Q816.1875,400.5 815.75,400.5 Q815.3594,400.5 815.1094,400.3281 Q814.8594,400.1563 814.75,399.7031 Q814.7031,399.3906 814.5313,399.2188 Q814.2188,398.8906 813.6563,398.7031 Q813.0938,398.5 812.5313,398.5 Q811.8281,398.5 811.2344,398.7813 Q810.6563,399.0625 810.2031,399.6875 Q809.75,400.3125 809.75,401.1719 L809.75,402.0938 Q809.75,403.125 810.5938,403.8125 Q811.4375,404.5 812.9375,404.5 Q813.8281,404.5 814.4531,404.2969 Q814.8125,404.1875 815.2188,403.8281 Q815.4844,403.625 815.625,403.5625 Q815.7656,403.5 815.9375,403.5 Q816.2656,403.5 816.5,403.7656 Q816.75,404.0156 816.75,404.375 Q816.75,404.7188 816.4063,405.125 Q815.9063,405.7188 815.1094,406.0469 Q814.0625,406.5 812.7813,406.5 Q811.2813,406.5 810.0781,405.9063 Q809.1094,405.4375 808.4219,404.4219 Q807.75,403.4063 807.75,402.2031 L807.75,401.1094 Q807.75,399.8594 808.3438,398.7656 Q808.9531,397.6719 810,397.0938 Q811.0625,396.5 812.25,396.5 Q812.9688,396.5 813.5938,396.75 Q814.2188,397 814.75,397.5 Z "/><text fill="#000000" font-family="sans-serif" font-size="12" lengthAdjust="spacingAndGlyphs" textLength="42" x="833.25" y="405.9102">Scooter</text><line style="stroke: #A80036; stroke-width: 1.5;" x1="674.5" x2="1001.5" y1="417" y2="417"/><text fill="#000000" font-family="sans-serif" font-size="11" lengthAdjust="spacingAndGlyphs" textLength="26" x="679.5" y="432.4189">-int id</text><text fill="#000000" font-family="sans-serif" font-size="11" lengthAdjust="spacingAndGlyphs" textLength="84" x="679.5" y="446.2549">-float batteryPerc</text><text fill="#000000" font-family="sans-serif" font-size="11" lengthAdjust="spacingAndGlyphs" textLength="102" x="679.5" y="460.0908">-String charginStatus</text><text fill="#000000" font-family="sans-serif" font-size="11" lengthAdjust="spacingAndGlyphs" textLength="67" x="679.5" y="473.9268">-float potency</text><text fill="#000000" font-family="sans-serif" font-size="11" lengthAdjust="spacingAndGlyphs" textLength="61" x="679.5" y="487.7627">-float weight</text><text fill="#000000" font-family="sans-serif" font-size="11" lengthAdjust="spacingAndGlyphs" textLength="94" x="679.5" y="501.5986">-int batteryCapacity</text><text fill="#000000" font-family="sans-serif" font-size="11" lengthAdjust="spacingAndGlyphs" textLength="86" x="679.5" y="515.4346">-float maxPayload</text><text fill="#000000" font-family="sans-serif" font-size="11" lengthAdjust="spacingAndGlyphs" textLength="99" x="679.5" y="529.2705">-float batteryVoltage</text><line style="stroke: #A80036; stroke-width: 1.5;" x1="674.5" x2="1001.5" y1="535.6875" y2="535.6875"/><text fill="#000000" font-family="sans-serif" font-size="11" lengthAdjust="spacingAndGlyphs" textLength="225" x="679.5" y="551.1064">+Scooter(batteryPerc, charginStatus, potency,</text><text fill="#000000" font-family="sans-serif" font-size="11" lengthAdjust="spacingAndGlyphs" textLength="314" x="682.5" y="564.9424">weight, batteryCapacity, maxPayload, batteryVoltage, pharmacy)</text><!--MD5=[0f39e4cb6f03951afbf6d14bd2505654]
class Address--><rect fill="#FEFECE" filter="url(#f1rcjmpszyqyl5)" height="144.8516" id="Address" style="stroke: #A80036; stroke-width: 1.5;" width="106" x="522" y="819"/><ellipse cx="549.6" cy="835" fill="#ADD1B2" rx="11" ry="11" style="stroke: #A80036; stroke-width: 1.0;"/><path d="M551.6,831.5 Q551.8031,831 552.0375,830.75 Q552.2719,830.5 552.5375,830.5 Q553.0063,830.5 553.3031,830.7813 Q553.6,831.0625 553.6,831.7188 L553.6,833.2813 Q553.6,833.9375 553.3188,834.2188 Q553.0375,834.5 552.6,834.5 Q552.2094,834.5 551.9594,834.3281 Q551.7094,834.1563 551.6,833.7031 Q551.5531,833.3906 551.3813,833.2188 Q551.0688,832.8906 550.5063,832.7031 Q549.9438,832.5 549.3813,832.5 Q548.6781,832.5 548.0844,832.7813 Q547.5063,833.0625 547.0531,833.6875 Q546.6,834.3125 546.6,835.1719 L546.6,836.0938 Q546.6,837.125 547.4438,837.8125 Q548.2875,838.5 549.7875,838.5 Q550.6781,838.5 551.3031,838.2969 Q551.6625,838.1875 552.0688,837.8281 Q552.3344,837.625 552.475,837.5625 Q552.6156,837.5 552.7875,837.5 Q553.1156,837.5 553.35,837.7656 Q553.6,838.0156 553.6,838.375 Q553.6,838.7188 553.2563,839.125 Q552.7563,839.7188 551.9594,840.0469 Q550.9125,840.5 549.6313,840.5 Q548.1313,840.5 546.9281,839.9063 Q545.9594,839.4375 545.2719,838.4219 Q544.6,837.4063 544.6,836.2031 L544.6,835.1094 Q544.6,833.8594 545.1938,832.7656 Q545.8031,831.6719 546.85,831.0938 Q547.9125,830.5 549.1,830.5 Q549.8188,830.5 550.4438,830.75 Q551.0688,831 551.6,831.5 Z "/><text fill="#000000" font-family="sans-serif" font-size="12" lengthAdjust="spacingAndGlyphs" textLength="46" x="566.4" y="839.9102">Address</text><line style="stroke: #A80036; stroke-width: 1.5;" x1="523" x2="627" y1="851" y2="851"/><text fill="#000000" font-family="sans-serif" font-size="11" lengthAdjust="spacingAndGlyphs" textLength="71" x="528" y="866.4189">-float longitude</text><text fill="#000000" font-family="sans-serif" font-size="11" lengthAdjust="spacingAndGlyphs" textLength="62" x="528" y="880.2549">-float latitude</text><text fill="#000000" font-family="sans-serif" font-size="11" lengthAdjust="spacingAndGlyphs" textLength="94" x="528" y="894.0908">-String doorNumber</text><text fill="#000000" font-family="sans-serif" font-size="11" lengthAdjust="spacingAndGlyphs" textLength="90" x="528" y="907.9268">-String streetName</text><text fill="#000000" font-family="sans-serif" font-size="11" lengthAdjust="spacingAndGlyphs" textLength="89" x="528" y="921.7627">-String postalCode</text><text fill="#000000" font-family="sans-serif" font-size="11" lengthAdjust="spacingAndGlyphs" textLength="68" x="528" y="935.5986">-String locality</text><text fill="#000000" font-family="sans-serif" font-size="11" lengthAdjust="spacingAndGlyphs" textLength="72" x="528" y="949.4346">-String country</text><line style="stroke: #A80036; stroke-width: 1.5;" x1="523" x2="627" y1="955.8516" y2="955.8516"/><!--MD5=[7f2a9fafcebe4f099f71398fd3e2ed00]
class Pharmacy--><rect fill="#FEFECE" filter="url(#f1rcjmpszyqyl5)" height="89.5078" id="Pharmacy" style="stroke: #A80036; stroke-width: 1.5;" width="102" x="524" y="649"/><ellipse cx="545.75" cy="665" fill="#ADD1B2" rx="11" ry="11" style="stroke: #A80036; stroke-width: 1.0;"/><path d="M547.75,661.5 Q547.9531,661 548.1875,660.75 Q548.4219,660.5 548.6875,660.5 Q549.1563,660.5 549.4531,660.7813 Q549.75,661.0625 549.75,661.7188 L549.75,663.2813 Q549.75,663.9375 549.4688,664.2188 Q549.1875,664.5 548.75,664.5 Q548.3594,664.5 548.1094,664.3281 Q547.8594,664.1563 547.75,663.7031 Q547.7031,663.3906 547.5313,663.2188 Q547.2188,662.8906 546.6563,662.7031 Q546.0938,662.5 545.5313,662.5 Q544.8281,662.5 544.2344,662.7813 Q543.6563,663.0625 543.2031,663.6875 Q542.75,664.3125 542.75,665.1719 L542.75,666.0938 Q542.75,667.125 543.5938,667.8125 Q544.4375,668.5 545.9375,668.5 Q546.8281,668.5 547.4531,668.2969 Q547.8125,668.1875 548.2188,667.8281 Q548.4844,667.625 548.625,667.5625 Q548.7656,667.5 548.9375,667.5 Q549.2656,667.5 549.5,667.7656 Q549.75,668.0156 549.75,668.375 Q549.75,668.7188 549.4063,669.125 Q548.9063,669.7188 548.1094,670.0469 Q547.0625,670.5 545.7813,670.5 Q544.2813,670.5 543.0781,669.9063 Q542.1094,669.4375 541.4219,668.4219 Q540.75,667.4063 540.75,666.2031 L540.75,665.1094 Q540.75,663.8594 541.3438,662.7656 Q541.9531,661.6719 543,661.0938 Q544.0625,660.5 545.25,660.5 Q545.9688,660.5 546.5938,660.75 Q547.2188,661 547.75,661.5 Z "/><text fill="#000000" font-family="sans-serif" font-size="12" lengthAdjust="spacingAndGlyphs" textLength="55" x="561.25" y="669.9102">Pharmacy</text><line style="stroke: #A80036; stroke-width: 1.5;" x1="525" x2="625" y1="681" y2="681"/><text fill="#000000" font-family="sans-serif" font-size="11" lengthAdjust="spacingAndGlyphs" textLength="26" x="530" y="696.4189">-int id</text><text fill="#000000" font-family="sans-serif" font-size="11" lengthAdjust="spacingAndGlyphs" textLength="61" x="530" y="710.2549">-String name</text><line style="stroke: #A80036; stroke-width: 1.5;" x1="525" x2="625" y1="716.6719" y2="716.6719"/><text fill="#000000" font-family="sans-serif" font-size="11" lengthAdjust="spacingAndGlyphs" textLength="90" x="530" y="732.0908">+getScootersList()</text><!--MD5=[28160fdc0be430cd6f04db15a7547552]
class PharmacyService--><rect fill="#FEFECE" filter="url(#f1rcjmpszyqyl5)" height="75.6719" id="PharmacyService" style="stroke: #A80036; stroke-width: 1.5;" width="127" x="511.5" y="440"/><ellipse cx="526.5" cy="456" fill="#ADD1B2" rx="11" ry="11" style="stroke: #A80036; stroke-width: 1.0;"/><path d="M528.5,452.5 Q528.7031,452 528.9375,451.75 Q529.1719,451.5 529.4375,451.5 Q529.9063,451.5 530.2031,451.7813 Q530.5,452.0625 530.5,452.7188 L530.5,454.2813 Q530.5,454.9375 530.2188,455.2188 Q529.9375,455.5 529.5,455.5 Q529.1094,455.5 528.8594,455.3281 Q528.6094,455.1563 528.5,454.7031 Q528.4531,454.3906 528.2813,454.2188 Q527.9688,453.8906 527.4063,453.7031 Q526.8438,453.5 526.2813,453.5 Q525.5781,453.5 524.9844,453.7813 Q524.4063,454.0625 523.9531,454.6875 Q523.5,455.3125 523.5,456.1719 L523.5,457.0938 Q523.5,458.125 524.3438,458.8125 Q525.1875,459.5 526.6875,459.5 Q527.5781,459.5 528.2031,459.2969 Q528.5625,459.1875 528.9688,458.8281 Q529.2344,458.625 529.375,458.5625 Q529.5156,458.5 529.6875,458.5 Q530.0156,458.5 530.25,458.7656 Q530.5,459.0156 530.5,459.375 Q530.5,459.7188 530.1563,460.125 Q529.6563,460.7188 528.8594,461.0469 Q527.8125,461.5 526.5313,461.5 Q525.0313,461.5 523.8281,460.9063 Q522.8594,460.4375 522.1719,459.4219 Q521.5,458.4063 521.5,457.2031 L521.5,456.1094 Q521.5,454.8594 522.0938,453.7656 Q522.7031,452.6719 523.75,452.0938 Q524.8125,451.5 526,451.5 Q526.7188,451.5 527.3438,451.75 Q527.9688,452 528.5,452.5 Z "/><text fill="#000000" font-family="sans-serif" font-size="12" lengthAdjust="spacingAndGlyphs" textLength="95" x="540.5" y="460.9102">PharmacyService</text><line style="stroke: #A80036; stroke-width: 1.5;" x1="512.5" x2="637.5" y1="472" y2="472"/><line style="stroke: #A80036; stroke-width: 1.5;" x1="512.5" x2="637.5" y1="480" y2="480"/><text fill="#000000" font-family="sans-serif" font-size="11" lengthAdjust="spacingAndGlyphs" textLength="99" x="517.5" y="495.4189">+PharmacyService()</text><text fill="#000000" font-family="sans-serif" font-size="11" lengthAdjust="spacingAndGlyphs" textLength="85" x="517.5" y="509.2549">+getPharmacies()</text><!--MD5=[aa4a745fe56463fab637f55d2a7c778f]
class ScooterService--><rect fill="#FEFECE" filter="url(#f1rcjmpszyqyl5)" height="89.5078" id="ScooterService" style="stroke: #A80036; stroke-width: 1.5;" width="158" x="318" y="433"/><ellipse cx="352.8" cy="449" fill="#ADD1B2" rx="11" ry="11" style="stroke: #A80036; stroke-width: 1.0;"/><path d="M354.8,445.5 Q355.0031,445 355.2375,444.75 Q355.4719,444.5 355.7375,444.5 Q356.2063,444.5 356.5031,444.7813 Q356.8,445.0625 356.8,445.7188 L356.8,447.2813 Q356.8,447.9375 356.5188,448.2188 Q356.2375,448.5 355.8,448.5 Q355.4094,448.5 355.1594,448.3281 Q354.9094,448.1563 354.8,447.7031 Q354.7531,447.3906 354.5813,447.2188 Q354.2688,446.8906 353.7063,446.7031 Q353.1438,446.5 352.5813,446.5 Q351.8781,446.5 351.2844,446.7813 Q350.7063,447.0625 350.2531,447.6875 Q349.8,448.3125 349.8,449.1719 L349.8,450.0938 Q349.8,451.125 350.6438,451.8125 Q351.4875,452.5 352.9875,452.5 Q353.8781,452.5 354.5031,452.2969 Q354.8625,452.1875 355.2688,451.8281 Q355.5344,451.625 355.675,451.5625 Q355.8156,451.5 355.9875,451.5 Q356.3156,451.5 356.55,451.7656 Q356.8,452.0156 356.8,452.375 Q356.8,452.7188 356.4563,453.125 Q355.9563,453.7188 355.1594,454.0469 Q354.1125,454.5 352.8313,454.5 Q351.3313,454.5 350.1281,453.9063 Q349.1594,453.4375 348.4719,452.4219 Q347.8,451.4063 347.8,450.2031 L347.8,449.1094 Q347.8,447.8594 348.3938,446.7656 Q349.0031,445.6719 350.05,445.0938 Q351.1125,444.5 352.3,444.5 Q353.0188,444.5 353.6438,444.75 Q354.2688,445 354.8,445.5 Z "/><text fill="#000000" font-family="sans-serif" font-size="12" lengthAdjust="spacingAndGlyphs" textLength="82" x="371.2" y="453.9102">ScooterService</text><line style="stroke: #A80036; stroke-width: 1.5;" x1="319" x2="475" y1="465" y2="465"/><line style="stroke: #A80036; stroke-width: 1.5;" x1="319" x2="475" y1="473" y2="473"/><text fill="#000000" font-family="sans-serif" font-size="11" lengthAdjust="spacingAndGlyphs" textLength="89" x="324" y="488.4189">+ScooterService()</text><text fill="#000000" font-family="sans-serif" font-size="11" lengthAdjust="spacingAndGlyphs" textLength="146" x="324" y="502.2549">+getScootersList(pharmacyId)</text><text fill="#000000" font-family="sans-serif" font-size="11" lengthAdjust="spacingAndGlyphs" textLength="112" x="324" y="516.0908">+updateScooter(scoot)</text><!--MD5=[4b2d61224b33971326a22fe5d809d926]
class DataHandler--><rect fill="#FEFECE" filter="url(#f1rcjmpszyqyl5)" height="75.6719" id="DataHandler" style="stroke: #A80036; stroke-width: 1.5;" width="104" x="1288" y="440"/><ellipse cx="1303.9" cy="456" fill="#ADD1B2" rx="11" ry="11" style="stroke: #A80036; stroke-width: 1.0;"/><path d="M1305.9,452.5 Q1306.1031,452 1306.3375,451.75 Q1306.5719,451.5 1306.8375,451.5 Q1307.3063,451.5 1307.6031,451.7813 Q1307.9,452.0625 1307.9,452.7188 L1307.9,454.2813 Q1307.9,454.9375 1307.6188,455.2188 Q1307.3375,455.5 1306.9,455.5 Q1306.5094,455.5 1306.2594,455.3281 Q1306.0094,455.1563 1305.9,454.7031 Q1305.8531,454.3906 1305.6813,454.2188 Q1305.3688,453.8906 1304.8063,453.7031 Q1304.2438,453.5 1303.6813,453.5 Q1302.9781,453.5 1302.3844,453.7813 Q1301.8063,454.0625 1301.3531,454.6875 Q1300.9,455.3125 1300.9,456.1719 L1300.9,457.0938 Q1300.9,458.125 1301.7438,458.8125 Q1302.5875,459.5 1304.0875,459.5 Q1304.9781,459.5 1305.6031,459.2969 Q1305.9625,459.1875 1306.3688,458.8281 Q1306.6344,458.625 1306.775,458.5625 Q1306.9156,458.5 1307.0875,458.5 Q1307.4156,458.5 1307.65,458.7656 Q1307.9,459.0156 1307.9,459.375 Q1307.9,459.7188 1307.5563,460.125 Q1307.0563,460.7188 1306.2594,461.0469 Q1305.2125,461.5 1303.9313,461.5 Q1302.4313,461.5 1301.2281,460.9063 Q1300.2594,460.4375 1299.5719,459.4219 Q1298.9,458.4063 1298.9,457.2031 L1298.9,456.1094 Q1298.9,454.8594 1299.4938,453.7656 Q1300.1031,452.6719 1301.15,452.0938 Q1302.2125,451.5 1303.4,451.5 Q1304.1188,451.5 1304.7438,451.75 Q1305.3688,452 1305.9,452.5 Z "/><text fill="#000000" font-family="sans-serif" font-size="12" lengthAdjust="spacingAndGlyphs" textLength="70" x="1318.1" y="460.9102">DataHandler</text><line style="stroke: #A80036; stroke-width: 1.5;" x1="1289" x2="1391" y1="472" y2="472"/><line style="stroke: #A80036; stroke-width: 1.5;" x1="1289" x2="1391" y1="480" y2="480"/><text fill="#000000" font-family="sans-serif" font-size="11" lengthAdjust="spacingAndGlyphs" textLength="92" x="1294" y="495.4189">+openConnection()</text><text fill="#000000" font-family="sans-serif" font-size="11" lengthAdjust="spacingAndGlyphs" textLength="52" x="1294" y="509.2549">+closeAll()</text><!--MD5=[b860ecc58d0ca70e482845cb1f7b4615]
class PharmacyDB--><rect fill="#FEFECE" filter="url(#f1rcjmpszyqyl5)" height="75.6719" id="PharmacyDB" style="stroke: #A80036; stroke-width: 1.5;" width="104" x="1091" y="656"/><ellipse cx="1106" cy="672" fill="#ADD1B2" rx="11" ry="11" style="stroke: #A80036; stroke-width: 1.0;"/><path d="M1108,668.5 Q1108.2031,668 1108.4375,667.75 Q1108.6719,667.5 1108.9375,667.5 Q1109.4063,667.5 1109.7031,667.7813 Q1110,668.0625 1110,668.7188 L1110,670.2813 Q1110,670.9375 1109.7188,671.2188 Q1109.4375,671.5 1109,671.5 Q1108.6094,671.5 1108.3594,671.3281 Q1108.1094,671.1563 1108,670.7031 Q1107.9531,670.3906 1107.7813,670.2188 Q1107.4688,669.8906 1106.9063,669.7031 Q1106.3438,669.5 1105.7813,669.5 Q1105.0781,669.5 1104.4844,669.7813 Q1103.9063,670.0625 1103.4531,670.6875 Q1103,671.3125 1103,672.1719 L1103,673.0938 Q1103,674.125 1103.8438,674.8125 Q1104.6875,675.5 1106.1875,675.5 Q1107.0781,675.5 1107.7031,675.2969 Q1108.0625,675.1875 1108.4688,674.8281 Q1108.7344,674.625 1108.875,674.5625 Q1109.0156,674.5 1109.1875,674.5 Q1109.5156,674.5 1109.75,674.7656 Q1110,675.0156 1110,675.375 Q1110,675.7188 1109.6563,676.125 Q1109.1563,676.7188 1108.3594,677.0469 Q1107.3125,677.5 1106.0313,677.5 Q1104.5313,677.5 1103.3281,676.9063 Q1102.3594,676.4375 1101.6719,675.4219 Q1101,674.4063 1101,673.2031 L1101,672.1094 Q1101,670.8594 1101.5938,669.7656 Q1102.2031,668.6719 1103.25,668.0938 Q1104.3125,667.5 1105.5,667.5 Q1106.2188,667.5 1106.8438,667.75 Q1107.4688,668 1108,668.5 Z "/><text fill="#000000" font-family="sans-serif" font-size="12" lengthAdjust="spacingAndGlyphs" textLength="72" x="1120" y="676.9102">PharmacyDB</text><line style="stroke: #A80036; stroke-width: 1.5;" x1="1092" x2="1194" y1="688" y2="688"/><line style="stroke: #A80036; stroke-width: 1.5;" x1="1092" x2="1194" y1="696" y2="696"/><text fill="#000000" font-family="sans-serif" font-size="11" lengthAdjust="spacingAndGlyphs" textLength="76" x="1097" y="711.4189">+PharmacyDB()</text><text fill="#000000" font-family="sans-serif" font-size="11" lengthAdjust="spacingAndGlyphs" textLength="85" x="1097" y="725.2549">+getPharmacies()</text><!--MD5=[48d7298b3bd1f8b3e8f77915e881d788]
class ScooterDB--><rect fill="#FEFECE" filter="url(#f1rcjmpszyqyl5)" height="89.5078" id="ScooterDB" style="stroke: #A80036; stroke-width: 1.5;" width="162" x="1230" y="649"/><ellipse cx="1277.25" cy="665" fill="#ADD1B2" rx="11" ry="11" style="stroke: #A80036; stroke-width: 1.0;"/><path d="M1279.25,661.5 Q1279.4531,661 1279.6875,660.75 Q1279.9219,660.5 1280.1875,660.5 Q1280.6563,660.5 1280.9531,660.7813 Q1281.25,661.0625 1281.25,661.7188 L1281.25,663.2813 Q1281.25,663.9375 1280.9688,664.2188 Q1280.6875,664.5 1280.25,664.5 Q1279.8594,664.5 1279.6094,664.3281 Q1279.3594,664.1563 1279.25,663.7031 Q1279.2031,663.3906 1279.0313,663.2188 Q1278.7188,662.8906 1278.1563,662.7031 Q1277.5938,662.5 1277.0313,662.5 Q1276.3281,662.5 1275.7344,662.7813 Q1275.1563,663.0625 1274.7031,663.6875 Q1274.25,664.3125 1274.25,665.1719 L1274.25,666.0938 Q1274.25,667.125 1275.0938,667.8125 Q1275.9375,668.5 1277.4375,668.5 Q1278.3281,668.5 1278.9531,668.2969 Q1279.3125,668.1875 1279.7188,667.8281 Q1279.9844,667.625 1280.125,667.5625 Q1280.2656,667.5 1280.4375,667.5 Q1280.7656,667.5 1281,667.7656 Q1281.25,668.0156 1281.25,668.375 Q1281.25,668.7188 1280.9063,669.125 Q1280.4063,669.7188 1279.6094,670.0469 Q1278.5625,670.5 1277.2813,670.5 Q1275.7813,670.5 1274.5781,669.9063 Q1273.6094,669.4375 1272.9219,668.4219 Q1272.25,667.4063 1272.25,666.2031 L1272.25,665.1094 Q1272.25,663.8594 1272.8438,662.7656 Q1273.4531,661.6719 1274.5,661.0938 Q1275.5625,660.5 1276.75,660.5 Q1277.4688,660.5 1278.0938,660.75 Q1278.7188,661 1279.25,661.5 Z "/><text fill="#000000" font-family="sans-serif" font-size="12" lengthAdjust="spacingAndGlyphs" textLength="59" x="1297.75" y="669.9102">ScooterDB</text><line style="stroke: #A80036; stroke-width: 1.5;" x1="1231" x2="1391" y1="681" y2="681"/><line style="stroke: #A80036; stroke-width: 1.5;" x1="1231" x2="1391" y1="689" y2="689"/><text fill="#000000" font-family="sans-serif" font-size="11" lengthAdjust="spacingAndGlyphs" textLength="66" x="1236" y="704.4189">+ScooterDB()</text><text fill="#000000" font-family="sans-serif" font-size="11" lengthAdjust="spacingAndGlyphs" textLength="90" x="1236" y="718.2549">+getScootersList()</text><text fill="#000000" font-family="sans-serif" font-size="11" lengthAdjust="spacingAndGlyphs" textLength="150" x="1236" y="732.0908">+updateScooterFromDB(scoot)</text><!--MD5=[f40d64c3825bdc96a4efd5b7e3ff1420]
reverse link DataHandler to PharmacyDB--><path d="M1295.85,531.507 C1284.63,544.543 1272.49,558.39 1261,571 C1234.5,600.073 1203.55,632.001 1180,655.901 " fill="none" id="DataHandler&lt;-PharmacyDB" style="stroke: #A80036; stroke-width: 1.0;"/><polygon fill="none" points="1290.66,526.805,1308.97,516.144,1301.3,535.898,1290.66,526.805" style="stroke: #A80036; stroke-width: 1.0;"/><!--MD5=[a2c65173c20bdf66914a8ed43c34e217]
reverse link DataHandler to ScooterDB--><path d="M1332.23,536.344 C1327.45,571.638 1321.41,616.193 1317,648.756 " fill="none" id="DataHandler&lt;-ScooterDB" style="stroke: #A80036; stroke-width: 1.0;"/><polygon fill="none" points="1325.33,535.155,1334.95,516.276,1339.2,537.035,1325.33,535.155" style="stroke: #A80036; stroke-width: 1.0;"/><!--MD5=[068c19e9ee2b8d6f5118254dd44da898]
link UpdateScooterUI to UpdateScooterController--><path d="M124,108.086 C124,129.108 124,160.852 124,187.58 " fill="none" id="UpdateScooterUI-&gt;UpdateScooterController" style="stroke: #A80036; stroke-width: 1.0; stroke-dasharray: 7.0,7.0;"/><polygon fill="#A80036" points="124,192.853,128,183.853,124,187.853,120,183.853,124,192.853" style="stroke: #A80036; stroke-width: 1.0;"/><!--MD5=[8726f40d04d7fff4643080593f315b6b]
link UpdateScooterController to PharmacyService--><path d="M209.572,244.671 C289.912,253.86 409.863,277.936 493,341 C524.485,364.883 546.418,404.655 559.627,435.037 " fill="none" id="UpdateScooterController-&gt;PharmacyService" style="stroke: #A80036; stroke-width: 1.0; stroke-dasharray: 7.0,7.0;"/><polygon fill="#A80036" points="561.672,439.829,561.8177,429.9812,559.7091,435.2304,554.46,433.1218,561.672,439.829" style="stroke: #A80036; stroke-width: 1.0;"/><!--MD5=[ca01bf2db4ec991acca53a5e6a0a6b09]
link UpdateScooterController to ScooterService--><path d="M112.99,283.293 C111.347,300.967 113.477,320.132 126,333 C138.801,346.154 274.707,332.547 291,341 C327.344,359.856 355.11,397.384 373.09,428.25 " fill="none" id="UpdateScooterController-&gt;ScooterService" style="stroke: #A80036; stroke-width: 1.0; stroke-dasharray: 7.0,7.0;"/><polygon fill="#A80036" points="375.671,432.753,374.6652,422.9556,373.1843,428.4152,367.7247,426.9343,375.671,432.753" style="stroke: #A80036; stroke-width: 1.0;"/><!--MD5=[04ba2cb7f5803b19c0d0e740f2a895e0]
link Database to PharmacyDB--><path d="M1025.72,261.528 C1034.15,276.268 1044.53,296.21 1051,315 C1088.72,424.532 1069.77,459.17 1100,571 C1107.3,598.02 1117.69,627.648 1126.42,650.94 " fill="none" id="Database-&gt;PharmacyDB" style="stroke: #A80036; stroke-width: 1.0;"/><polygon fill="#A80036" points="1128.26,655.811,1128.8222,645.9782,1126.4934,651.1335,1121.3381,648.8047,1128.26,655.811" style="stroke: #A80036; stroke-width: 1.0;"/><text fill="#000000" font-family="sans-serif" font-size="13" lengthAdjust="spacingAndGlyphs" textLength="53" x="1101" y="483.4951">manages</text><text fill="#000000" font-family="sans-serif" font-size="13" lengthAdjust="spacingAndGlyphs" textLength="7" x="1021.2111" y="282.7985">1</text><text fill="#000000" font-family="sans-serif" font-size="13" lengthAdjust="spacingAndGlyphs" textLength="7" x="1118.011" y="645.1392">1</text><!--MD5=[70f68ce34a156c56edce71dba5c758e9]
link Database to ScooterDB--><path d="M1052.8,257.081 C1086.32,274.023 1132.47,302.51 1159,341 C1218.77,427.708 1169.98,476.274 1216,571 C1228.87,597.481 1248.14,623.665 1265.98,644.945 " fill="none" id="Database-&gt;ScooterDB" style="stroke: #A80036; stroke-width: 1.0;"/><polygon fill="#A80036" points="1269.29,648.86,1266.5285,639.4062,1266.0596,645.0436,1260.4223,644.5748,1269.29,648.86" style="stroke: #A80036; stroke-width: 1.0;"/><text fill="#000000" font-family="sans-serif" font-size="13" lengthAdjust="spacingAndGlyphs" textLength="53" x="1217" y="483.4951">manages</text><text fill="#000000" font-family="sans-serif" font-size="13" lengthAdjust="spacingAndGlyphs" textLength="7" x="1060.4141" y="256.5444">1</text><text fill="#000000" font-family="sans-serif" font-size="13" lengthAdjust="spacingAndGlyphs" textLength="7" x="1255.3672" y="638.2827">1</text><!--MD5=[ee7ed70a83e67b7f86b44988d609d45d]
link ScooterService to PharmacyDB--><path d="M431.548,523.086 C448.321,541.184 470.029,560.357 494,571 C652.888,641.548 715.758,557.217 884,601 C902.475,605.808 905.185,612.139 923,619 C964.714,635.067 976.595,634.856 1019,649 C1041.06,656.358 1065.18,664.821 1086.24,672.348 " fill="none" id="ScooterService-&gt;PharmacyDB" style="stroke: #A80036; stroke-width: 1.0;"/><polygon fill="#A80036" points="1090.96,674.039,1083.8355,667.2388,1086.2527,672.3532,1081.1383,674.7704,1090.96,674.039" style="stroke: #A80036; stroke-width: 1.0;"/><text fill="#000000" font-family="sans-serif" font-size="13" lengthAdjust="spacingAndGlyphs" textLength="28" x="924" y="615.4951">uses</text><text fill="#000000" font-family="sans-serif" font-size="13" lengthAdjust="spacingAndGlyphs" textLength="7" x="428.9141" y="544.1057">1</text><text fill="#000000" font-family="sans-serif" font-size="13" lengthAdjust="spacingAndGlyphs" textLength="5" x="1077.9494" y="667.4773">*</text><!--MD5=[799b1f05f2692ceb79e345e4105e6b42]
link PharmacyService to ScooterDB--><path d="M592.281,516.081 C603.533,535.846 620.193,558.585 642,571 C703.876,606.228 890.505,590.994 961,601 C1073.88,617.022 1104.25,614.75 1213,649 C1216.96,650.248 1220.98,651.613 1225.01,653.063 " fill="none" id="PharmacyService-&gt;ScooterDB" style="stroke: #A80036; stroke-width: 1.0;"/><polygon fill="#A80036" points="1229.74,654.804,1222.6589,647.9588,1225.0435,653.0884,1219.9139,655.4731,1229.74,654.804" style="stroke: #A80036; stroke-width: 1.0;"/><text fill="#000000" font-family="sans-serif" font-size="13" lengthAdjust="spacingAndGlyphs" textLength="28" x="1094" y="615.4951">uses</text><text fill="#000000" font-family="sans-serif" font-size="13" lengthAdjust="spacingAndGlyphs" textLength="7" x="587.5635" y="537.2646">1</text><text fill="#000000" font-family="sans-serif" font-size="13" lengthAdjust="spacingAndGlyphs" textLength="5" x="1217.0184" y="647.9871">*</text><!--MD5=[2ed2b43e7f6d114538396b0b10b28567]
link PharmacyService to Pharmacy--><path d="M575,516.276 C575,551.574 575,604.804 575,643.618 " fill="none" id="PharmacyService-&gt;Pharmacy" style="stroke: #A80036; stroke-width: 1.0;"/><polygon fill="#A80036" points="575,648.756,579,639.756,575,643.756,571,639.756,575,648.756" style="stroke: #A80036; stroke-width: 1.0;"/><text fill="#000000" font-family="sans-serif" font-size="13" lengthAdjust="spacingAndGlyphs" textLength="111" x="576" y="615.4951">manage services of</text><text fill="#000000" font-family="sans-serif" font-size="13" lengthAdjust="spacingAndGlyphs" textLength="7" x="567.4422" y="537.2005">1</text><text fill="#000000" font-family="sans-serif" font-size="13" lengthAdjust="spacingAndGlyphs" textLength="5" x="569.6172" y="638.1627">*</text><!--MD5=[51d7b9a785c9fb041ca400474ed1d998]
link Database to Pharmacy--><path d="M971.393,241.042 C814.801,249.322 256.333,282.77 205,341 C137.402,417.68 145.095,488.17 205,571 C278.726,672.94 440.639,691.151 523.673,693.489 " fill="none" id="Database-Pharmacy" style="stroke: #A80036; stroke-width: 1.0;"/><text fill="#000000" font-family="sans-serif" font-size="13" lengthAdjust="spacingAndGlyphs" textLength="82" x="206" y="483.4951">has registered</text><polygon fill="#000000" points="242.5,492.3516,245.5,498.3516,248.5,492.3516,242.5,492.3516" style="stroke: #000000; stroke-width: 1.0;"/><text fill="#000000" font-family="sans-serif" font-size="13" lengthAdjust="spacingAndGlyphs" textLength="7" x="956.5364" y="237.7201">1</text><text fill="#000000" font-family="sans-serif" font-size="13" lengthAdjust="spacingAndGlyphs" textLength="5" x="511.1036" y="689.8466">*</text><!--MD5=[f4a94ba2ad2673d4959409a96e63c979]
link Database to Scooter--><path d="M992.798,261.571 C980.299,276.495 963.813,296.625 950,315 C933.256,337.275 915.821,361.786 899.833,384.852 " fill="none" id="Database-Scooter" style="stroke: #A80036; stroke-width: 1.0;"/><text fill="#000000" font-family="sans-serif" font-size="13" lengthAdjust="spacingAndGlyphs" textLength="82" x="951" y="329.4951">has registered</text><polygon fill="#000000" points="987.5,338.3516,990.5,344.3516,993.5,338.3516,987.5,338.3516" style="stroke: #000000; stroke-width: 1.0;"/><text fill="#000000" font-family="sans-serif" font-size="13" lengthAdjust="spacingAndGlyphs" textLength="7" x="980.5482" y="282.4527">1</text><text fill="#000000" font-family="sans-serif" font-size="13" lengthAdjust="spacingAndGlyphs" textLength="5" x="899.5611" y="374.2866">*</text><!--MD5=[6f1b2737b94c689eac8b0af6a5ef1443]
link Scooter to Pharmacy--><path d="M750.74,571.153 C733.258,587.825 714.545,604.5 696,619 C674.274,635.987 648.398,652.275 626.162,665.223 " fill="none" id="Scooter-Pharmacy" style="stroke: #A80036; stroke-width: 1.0;"/><polygon fill="#000000" points="725,608.6758,719,611.6758,725,614.6758,725,608.6758" style="stroke: #000000; stroke-width: 1.0;"/><text fill="#000000" font-family="sans-serif" font-size="13" lengthAdjust="spacingAndGlyphs" textLength="60" x="731" y="615.4951">belongs to</text><text fill="#000000" font-family="sans-serif" font-size="13" lengthAdjust="spacingAndGlyphs" textLength="5" x="738.5873" y="592.7084">*</text><text fill="#000000" font-family="sans-serif" font-size="13" lengthAdjust="spacingAndGlyphs" textLength="7" x="633.8488" y="657.6057">1</text><!--MD5=[89baec1bfb4a213750f7c61516e0a0f1]
link Pharmacy to Address--><path d="M575,739.362 C575,762.795 575,792.132 575,818.709 " fill="none" id="Pharmacy-Address" style="stroke: #A80036; stroke-width: 1.0;"/><text fill="#000000" font-family="sans-serif" font-size="13" lengthAdjust="spacingAndGlyphs" textLength="21" x="576" y="785.4951">has</text><polygon fill="#000000" points="582,794.3516,585,800.3516,588,794.3516,582,794.3516" style="stroke: #000000; stroke-width: 1.0;"/><text fill="#000000" font-family="sans-serif" font-size="13" lengthAdjust="spacingAndGlyphs" textLength="7" x="567.5297" y="760.0843">1</text><text fill="#000000" font-family="sans-serif" font-size="13" lengthAdjust="spacingAndGlyphs" textLength="7" x="567.6391" y="807.8983">1</text><!--MD5=[36b77ee97acf5a518f11b910c554e4fc]
@startuml
skinparam classAttributeIconSize 0

database Database {
}

package "UI" #DDDDDD {
class UpdateScooterUI{
}
}

package "Controller" #DDDDDD {
class UpdateScooterController{
+showPharmacies()
+showScootersList(pharmacyId)
+updateScooter(scoot)
}
}


package "Model" #DDDDDD {
 package "Service" #DDDDDD {
  class PharmacyService{
      +PharmacyService()
      +getPharmacies()
  }

  class ScooterService{
      +ScooterService()
      +getScootersList(pharmacyId)
      +updateScooter(scoot)
   }
}

package "Model" #DDDDDD {
class Scooter{
  -int id
  -float batteryPerc
  -String charginStatus
  -float potency
  -float weight
  -int batteryCapacity
  -float maxPayload
  -float batteryVoltage
  +Scooter(batteryPerc, charginStatus, potency,\n weight, batteryCapacity, maxPayload, batteryVoltage, pharmacy)
}

class Address{
  -float longitude
  -float latitude
  -String doorNumber
  -String streetName
  -String postalCode
  -String locality
  -String country
}

class Pharmacy {
  -int id
  -String name
  +getScootersList()
}
}


package "Data" #DDDDDD {
class DataHandler{
    +openConnection()
    +closeAll()
}
class PharmacyDB{
     +PharmacyDB()
     +getPharmacies()
 }

 class ScooterDB{
     +ScooterDB()
     +getScootersList()
     +updateScooterFromDB(scoot)
  }
}

class PharmacyDB extends DataHandler
class ScooterDB extends DataHandler

UpdateScooterUI ..> UpdateScooterController
UpdateScooterController ..> PharmacyService
UpdateScooterController ..> ScooterService
Database "1" - -> "1" PharmacyDB : manages
Database "1" - -> "1" ScooterDB : manages
ScooterService "1" - -> "*" PharmacyDB : uses
PharmacyService "1" - -> "*" ScooterDB : uses
PharmacyService "1" - -> "*" Pharmacy : manage services of

Database "1" - - "*" Pharmacy : has registered >
Database "1" - - "*" Scooter : has registered >

Scooter "*" - - "1" Pharmacy : belongs to >
Pharmacy "1" - - "1" Address : has >

@enduml

PlantUML version 1.2020.09(Sun May 10 11:51:06 BST 2020)
(GPL source distribution)
Java Runtime: OpenJDK Runtime Environment
JVM: OpenJDK 64-Bit Server VM
Java Version: 11.0.6+8-b765.40
Operating System: Windows 10
Default Encoding: Cp1252
Language: pt
Country: PT
--></g></svg>