<?xml version="1.0" encoding="UTF-8" standalone="no"?><svg xmlns="http://www.w3.org/2000/svg" xmlns:xlink="http://www.w3.org/1999/xlink" contentScriptType="application/ecmascript" contentStyleType="text/css" height="882px" preserveAspectRatio="none" style="width:770px;height:882px;" version="1.1" viewBox="0 0 770 882" width="770px" zoomAndPan="magnify"><defs><filter height="300%" id="fqktd5x31o585" width="300%" x="-1" y="-1"><feGaussianBlur result="blurOut" stdDeviation="1.4"/><feColorMatrix in="blurOut" result="blurOut2" type="matrix" values="0 0 0 0 0 0 0 0 0 0 0 0 0 0 0 0 0 0 .4 0"/><feOffset dx="2.8" dy="2.8" in="blurOut2" result="blurOut3"/><feBlend in="SourceGraphic" in2="blurOut3" mode="normal"/></filter></defs><g><!--MD5=[9681dc6e01e10c6b4fe06895ae94f592]
cluster UI--><polygon fill="#DDDDDD" filter="url(#fqktd5x31o585)" points="117.6,16.8,131.6,16.8,136.5,33.3266,228.2,33.3266,228.2,86.8,117.6,86.8,117.6,16.8" style="stroke: #000000; stroke-width: 1.0499999999999998;"/><line style="stroke: #000000; stroke-width: 1.0499999999999998;" x1="117.6" x2="136.5" y1="33.3266" y2="33.3266"/><text fill="#000000" font-family="sans-serif" font-size="9.8" font-weight="bold" lengthAdjust="spacingAndGlyphs" textLength="9.8" x="120.4" y="28.3732">UI</text><!--MD5=[1f2cfc53d9d308f53762fd0fcbaa4873]
cluster Controller--><polygon fill="#DDDDDD" filter="url(#fqktd5x31o585)" points="101.5,109.9,155.4,109.9,160.3,126.4266,244.3,126.4266,244.3,209.3,101.5,209.3,101.5,109.9" style="stroke: #000000; stroke-width: 1.0499999999999998;"/><line style="stroke: #000000; stroke-width: 1.0499999999999998;" x1="101.5" x2="160.3" y1="126.4266" y2="126.4266"/><text fill="#000000" font-family="sans-serif" font-size="9.8" font-weight="bold" lengthAdjust="spacingAndGlyphs" textLength="49.7" x="104.3" y="121.4732">Controller</text><!--MD5=[15636c1ca4a123c16a2a1a8e90aca7a9]
cluster Model--><polygon fill="#DDDDDD" filter="url(#fqktd5x31o585)" points="15.4,232.4,50.4,232.4,55.3,248.9266,402.5,248.9266,402.5,873.6,15.4,873.6,15.4,232.4" style="stroke: #000000; stroke-width: 1.0499999999999998;"/><line style="stroke: #000000; stroke-width: 1.0499999999999998;" x1="15.4" x2="55.3" y1="248.9266" y2="248.9266"/><text fill="#000000" font-family="sans-serif" font-size="9.8" font-weight="bold" lengthAdjust="spacingAndGlyphs" textLength="30.8" x="18.2" y="243.9732">Model</text><!--MD5=[9dd75fd92da113d30380b27734fd2f01]
cluster Service--><polygon fill="#DDDDDD" filter="url(#fqktd5x31o585)" points="79.1,263.2,121.1,263.2,126,279.7266,326.2,279.7266,326.2,362.6,79.1,362.6,79.1,263.2" style="stroke: #000000; stroke-width: 1.0499999999999998;"/><line style="stroke: #000000; stroke-width: 1.0499999999999998;" x1="79.1" x2="126" y1="279.7266" y2="279.7266"/><text fill="#000000" font-family="sans-serif" font-size="9.8" font-weight="bold" lengthAdjust="spacingAndGlyphs" textLength="37.8" x="81.9" y="274.7732">Service</text><!--MD5=[f21b1f164e99c6b37934f23ad048ad54]
cluster Data--><polygon fill="#DDDDDD" filter="url(#fqktd5x31o585)" points="521.5,268.1,547.4,268.1,552.3,284.6266,754.6,284.6266,754.6,481.6,521.5,481.6,521.5,268.1" style="stroke: #000000; stroke-width: 1.0499999999999998;"/><line style="stroke: #000000; stroke-width: 1.0499999999999998;" x1="521.5" x2="552.3" y1="284.6266" y2="284.6266"/><text fill="#000000" font-family="sans-serif" font-size="9.8" font-weight="bold" lengthAdjust="spacingAndGlyphs" textLength="21.7" x="524.3" y="279.6732">Data</text><!--MD5=[fa1e3283224feb76407c84b7e90ed808]
entity Database--><path d="M440.65,310.45 C440.65,303.45 469,303.45 469,303.45 C469,303.45 497.35,303.45 497.35,310.45 L497.35,329.0766 C497.35,336.0766 469,336.0766 469,336.0766 C469,336.0766 440.65,336.0766 440.65,329.0766 L440.65,310.45 " fill="#FFFFFF" filter="url(#fqktd5x31o585)" style="stroke: #000000; stroke-width: 1.0499999999999998;"/><path d="M440.65,310.45 C440.65,317.45 469,317.45 469,317.45 C469,317.45 497.35,317.45 497.35,310.45 " fill="none" style="stroke: #000000; stroke-width: 1.0499999999999998;"/><text fill="#000000" font-family="sans-serif" font-size="9.8" lengthAdjust="spacingAndGlyphs" textLength="42.7" x="447.65" y="330.4232">Database</text><!--MD5=[56b05040cba7ba1143e43c771f04a5c5]
class UpdateScooterUI--><rect fill="#FEFECE" filter="url(#fqktd5x31o585)" height="33.6" id="UpdateScooterUI" style="stroke: #A80036; stroke-width: 1.0499999999999998;" width="88.2" x="128.8" y="42"/><ellipse cx="139.3" cy="53.2" fill="#ADD1B2" rx="7.7" ry="7.7" style="stroke: #A80036; stroke-width: 0.7;"/><path d="M140.7,50.75 Q140.8422,50.4 141.0063,50.225 Q141.1703,50.05 141.3563,50.05 Q141.6844,50.05 141.8922,50.2469 Q142.1,50.4437 142.1,50.9031 L142.1,51.9969 Q142.1,52.4563 141.9031,52.6531 Q141.7062,52.85 141.4,52.85 Q141.1266,52.85 140.9516,52.7297 Q140.7766,52.6094 140.7,52.2922 Q140.6672,52.0734 140.5469,51.9531 Q140.3281,51.7234 139.9344,51.5922 Q139.5406,51.45 139.1469,51.45 Q138.6547,51.45 138.2391,51.6469 Q137.8344,51.8438 137.5172,52.2813 Q137.2,52.7188 137.2,53.3203 L137.2,53.9656 Q137.2,54.6875 137.7906,55.1687 Q138.3813,55.65 139.4312,55.65 Q140.0547,55.65 140.4922,55.5078 Q140.7437,55.4313 141.0281,55.1797 Q141.2141,55.0375 141.3125,54.9938 Q141.4109,54.95 141.5313,54.95 Q141.7609,54.95 141.925,55.1359 Q142.1,55.3109 142.1,55.5625 Q142.1,55.8031 141.8594,56.0875 Q141.5094,56.5031 140.9516,56.7328 Q140.2188,57.05 139.3219,57.05 Q138.2719,57.05 137.4297,56.6344 Q136.7516,56.3063 136.2703,55.5953 Q135.8,54.8844 135.8,54.0422 L135.8,53.2766 Q135.8,52.4016 136.2156,51.6359 Q136.6422,50.8703 137.375,50.4656 Q138.1187,50.05 138.95,50.05 Q139.4531,50.05 139.8906,50.225 Q140.3281,50.4 140.7,50.75 Z "/><text fill="#000000" font-family="sans-serif" font-size="8.4" lengthAdjust="spacingAndGlyphs" textLength="65.8" x="149.1" y="56.6371">UpdateScooterUI</text><line style="stroke: #A80036; stroke-width: 1.0499999999999998;" x1="129.5" x2="216.3" y1="64.4" y2="64.4"/><line style="stroke: #A80036; stroke-width: 1.0499999999999998;" x1="129.5" x2="216.3" y1="70" y2="70"/><!--MD5=[3e55a46d736e61deccb82423bbd922fc]
class UpdateScooterController--><rect fill="#FEFECE" filter="url(#fqktd5x31o585)" height="62.6555" id="UpdateScooterController" style="stroke: #A80036; stroke-width: 1.0499999999999998;" width="119.7" x="113.05" y="135.1"/><ellipse cx="124.495" cy="146.3" fill="#ADD1B2" rx="7.7" ry="7.7" style="stroke: #A80036; stroke-width: 0.7;"/><path d="M125.895,143.85 Q126.0372,143.5 126.2012,143.325 Q126.3653,143.15 126.5512,143.15 Q126.8794,143.15 127.0872,143.3469 Q127.295,143.5438 127.295,144.0031 L127.295,145.0969 Q127.295,145.5562 127.0981,145.7531 Q126.9012,145.95 126.595,145.95 Q126.3216,145.95 126.1466,145.8297 Q125.9716,145.7094 125.895,145.3922 Q125.8622,145.1734 125.7419,145.0531 Q125.5231,144.8234 125.1294,144.6922 Q124.7356,144.55 124.3419,144.55 Q123.8497,144.55 123.4341,144.7469 Q123.0294,144.9438 122.7122,145.3813 Q122.395,145.8188 122.395,146.4203 L122.395,147.0656 Q122.395,147.7875 122.9856,148.2687 Q123.5762,148.75 124.6262,148.75 Q125.2497,148.75 125.6872,148.6078 Q125.9387,148.5313 126.2231,148.2797 Q126.4091,148.1375 126.5075,148.0938 Q126.6059,148.05 126.7263,148.05 Q126.9559,148.05 127.12,148.2359 Q127.295,148.4109 127.295,148.6625 Q127.295,148.9031 127.0544,149.1875 Q126.7044,149.6031 126.1466,149.8328 Q125.4138,150.15 124.5169,150.15 Q123.4669,150.15 122.6247,149.7344 Q121.9466,149.4063 121.4653,148.6953 Q120.995,147.9844 120.995,147.1422 L120.995,146.3766 Q120.995,145.5016 121.4106,144.7359 Q121.8372,143.9703 122.57,143.5656 Q123.3137,143.15 124.145,143.15 Q124.6481,143.15 125.0856,143.325 Q125.5231,143.5 125.895,143.85 Z "/><text fill="#000000" font-family="sans-serif" font-size="8.4" lengthAdjust="spacingAndGlyphs" textLength="95.2" x="134.505" y="149.7371">UpdateScooterController</text><line style="stroke: #A80036; stroke-width: 1.0499999999999998;" x1="113.75" x2="232.05" y1="157.5" y2="157.5"/><line style="stroke: #A80036; stroke-width: 1.0499999999999998;" x1="113.75" x2="232.05" y1="163.1" y2="163.1"/><text fill="#000000" font-family="sans-serif" font-size="7.7" lengthAdjust="spacingAndGlyphs" textLength="68.6" x="117.25" y="173.8933">+showPharmacies()</text><text fill="#000000" font-family="sans-serif" font-size="7.7" lengthAdjust="spacingAndGlyphs" textLength="111.3" x="117.25" y="183.5784">+showScootersList(pharmacyId)</text><text fill="#000000" font-family="sans-serif" font-size="7.7" lengthAdjust="spacingAndGlyphs" textLength="78.4" x="117.25" y="193.2636">+updateScooter(scoot)</text><!--MD5=[868815390a9e59f0f213a5798810649b]
class ScooterPark--><rect fill="#FEFECE" filter="url(#fqktd5x31o585)" height="43.2852" id="ScooterPark" style="stroke: #A80036; stroke-width: 1.0499999999999998;" width="77.7" x="214.55" y="682.15"/><ellipse cx="228.83" cy="693.35" fill="#ADD1B2" rx="7.7" ry="7.7" style="stroke: #A80036; stroke-width: 0.7;"/><path d="M230.23,690.9 Q230.3722,690.55 230.5362,690.375 Q230.7003,690.2 230.8862,690.2 Q231.2144,690.2 231.4222,690.3969 Q231.63,690.5938 231.63,691.0531 L231.63,692.1469 Q231.63,692.6062 231.4331,692.8031 Q231.2362,693 230.93,693 Q230.6566,693 230.4816,692.8797 Q230.3066,692.7594 230.23,692.4422 Q230.1972,692.2234 230.0769,692.1031 Q229.8581,691.8734 229.4644,691.7422 Q229.0706,691.6 228.6769,691.6 Q228.1847,691.6 227.7691,691.7969 Q227.3644,691.9938 227.0472,692.4313 Q226.73,692.8688 226.73,693.4703 L226.73,694.1156 Q226.73,694.8375 227.3206,695.3187 Q227.9112,695.8 228.9612,695.8 Q229.5847,695.8 230.0222,695.6578 Q230.2737,695.5813 230.5581,695.3297 Q230.7441,695.1875 230.8425,695.1438 Q230.9409,695.1 231.0612,695.1 Q231.2909,695.1 231.455,695.2859 Q231.63,695.4609 231.63,695.7125 Q231.63,695.9531 231.3894,696.2375 Q231.0394,696.6531 230.4816,696.8828 Q229.7487,697.2 228.8519,697.2 Q227.8019,697.2 226.9597,696.7844 Q226.2816,696.4563 225.8003,695.7453 Q225.33,695.0344 225.33,694.1922 L225.33,693.4266 Q225.33,692.5516 225.7456,691.7859 Q226.1722,691.0203 226.905,690.6156 Q227.6487,690.2 228.48,690.2 Q228.9831,690.2 229.4206,690.375 Q229.8581,690.55 230.23,690.9 Z "/><text fill="#000000" font-family="sans-serif" font-size="8.4" lengthAdjust="spacingAndGlyphs" textLength="46.9" x="239.47" y="696.7871">ScooterPark</text><line style="stroke: #A80036; stroke-width: 1.0499999999999998;" x1="215.25" x2="291.55" y1="704.55" y2="704.55"/><text fill="#000000" font-family="sans-serif" font-size="7.7" lengthAdjust="spacingAndGlyphs" textLength="69.3" x="218.75" y="715.3433">-int maxSlotsNumber</text><line style="stroke: #A80036; stroke-width: 1.0499999999999998;" x1="215.25" x2="291.55" y1="719.8352" y2="719.8352"/><!--MD5=[5efbb0d0731ef97fc2ab2cfe7ed5bd27]
class ScooterChargingSlot--><rect fill="#FEFECE" filter="url(#fqktd5x31o585)" height="52.9703" id="ScooterChargingSlot" style="stroke: #A80036; stroke-width: 1.0499999999999998;" width="102.2" x="140.7" y="809.2"/><ellipse cx="151.2" cy="820.4" fill="#ADD1B2" rx="7.7" ry="7.7" style="stroke: #A80036; stroke-width: 0.7;"/><path d="M152.6,817.95 Q152.7422,817.6 152.9063,817.425 Q153.0703,817.25 153.2563,817.25 Q153.5844,817.25 153.7922,817.4469 Q154,817.6438 154,818.1031 L154,819.1969 Q154,819.6563 153.8031,819.8531 Q153.6063,820.05 153.3,820.05 Q153.0266,820.05 152.8516,819.9297 Q152.6766,819.8094 152.6,819.4922 Q152.5672,819.2734 152.4469,819.1531 Q152.2281,818.9234 151.8344,818.7922 Q151.4406,818.65 151.0469,818.65 Q150.5547,818.65 150.1391,818.8469 Q149.7344,819.0437 149.4172,819.4812 Q149.1,819.9187 149.1,820.5203 L149.1,821.1656 Q149.1,821.8875 149.6906,822.3688 Q150.2813,822.85 151.3312,822.85 Q151.9547,822.85 152.3922,822.7078 Q152.6437,822.6312 152.9281,822.3797 Q153.1141,822.2375 153.2125,822.1937 Q153.3109,822.15 153.4312,822.15 Q153.6609,822.15 153.825,822.3359 Q154,822.5109 154,822.7625 Q154,823.0031 153.7594,823.2875 Q153.4094,823.7031 152.8516,823.9328 Q152.1187,824.25 151.2219,824.25 Q150.1719,824.25 149.3297,823.8344 Q148.6516,823.5062 148.1703,822.7953 Q147.7,822.0844 147.7,821.2422 L147.7,820.4766 Q147.7,819.6016 148.1156,818.8359 Q148.5422,818.0703 149.275,817.6656 Q150.0187,817.25 150.85,817.25 Q151.3531,817.25 151.7906,817.425 Q152.2281,817.6 152.6,817.95 Z "/><text fill="#000000" font-family="sans-serif" font-size="8.4" lengthAdjust="spacingAndGlyphs" textLength="79.8" x="161" y="823.8371">ScooterChargingSlot</text><line style="stroke: #A80036; stroke-width: 1.0499999999999998;" x1="141.4" x2="242.2" y1="831.6" y2="831.6"/><text fill="#000000" font-family="sans-serif" font-size="7.7" lengthAdjust="spacingAndGlyphs" textLength="18.2" x="144.9" y="842.3933">-int id</text><text fill="#000000" font-family="sans-serif" font-size="7.7" lengthAdjust="spacingAndGlyphs" textLength="63" x="144.9" y="852.0784">-float outputPower</text><line style="stroke: #A80036; stroke-width: 1.0499999999999998;" x1="141.4" x2="242.2" y1="856.5703" y2="856.5703"/><!--MD5=[d3cdad78b703b3ff47b8cf68490e772e]
class ScooterParkingSlot--><rect fill="#FEFECE" filter="url(#fqktd5x31o585)" height="43.2852" id="ScooterParkingSlot" style="stroke: #A80036; stroke-width: 1.0499999999999998;" width="95.9" x="267.75" y="814.1"/><ellipse cx="278.25" cy="825.3" fill="#ADD1B2" rx="7.7" ry="7.7" style="stroke: #A80036; stroke-width: 0.7;"/><path d="M279.65,822.85 Q279.7922,822.5 279.9562,822.325 Q280.1203,822.15 280.3063,822.15 Q280.6344,822.15 280.8422,822.3469 Q281.05,822.5437 281.05,823.0031 L281.05,824.0969 Q281.05,824.5563 280.8531,824.7531 Q280.6563,824.95 280.35,824.95 Q280.0766,824.95 279.9016,824.8297 Q279.7266,824.7094 279.65,824.3922 Q279.6172,824.1734 279.4969,824.0531 Q279.2781,823.8234 278.8844,823.6922 Q278.4906,823.55 278.0969,823.55 Q277.6047,823.55 277.1891,823.7469 Q276.7844,823.9437 276.4672,824.3812 Q276.15,824.8187 276.15,825.4203 L276.15,826.0656 Q276.15,826.7875 276.7406,827.2688 Q277.3312,827.75 278.3812,827.75 Q279.0047,827.75 279.4422,827.6078 Q279.6937,827.5313 279.9781,827.2797 Q280.1641,827.1375 280.2625,827.0938 Q280.3609,827.05 280.4813,827.05 Q280.7109,827.05 280.875,827.2359 Q281.05,827.4109 281.05,827.6625 Q281.05,827.9031 280.8094,828.1875 Q280.4594,828.6031 279.9016,828.8328 Q279.1688,829.15 278.2719,829.15 Q277.2219,829.15 276.3797,828.7344 Q275.7016,828.4063 275.2203,827.6953 Q274.75,826.9844 274.75,826.1422 L274.75,825.3766 Q274.75,824.5016 275.1656,823.7359 Q275.5922,822.9703 276.325,822.5656 Q277.0687,822.15 277.9,822.15 Q278.4031,822.15 278.8406,822.325 Q279.2781,822.5 279.65,822.85 Z "/><text fill="#000000" font-family="sans-serif" font-size="8.4" lengthAdjust="spacingAndGlyphs" textLength="73.5" x="288.05" y="828.7371">ScooterParkingSlot</text><line style="stroke: #A80036; stroke-width: 1.0499999999999998;" x1="268.45" x2="362.95" y1="836.5" y2="836.5"/><text fill="#000000" font-family="sans-serif" font-size="7.7" lengthAdjust="spacingAndGlyphs" textLength="18.2" x="271.95" y="847.2933">-int id</text><line style="stroke: #A80036; stroke-width: 1.0499999999999998;" x1="268.45" x2="362.95" y1="851.7852" y2="851.7852"/><!--MD5=[f4402668d5d5bb8485350c0fdb60ac8e]
class Scooter--><rect fill="#FEFECE" filter="url(#fqktd5x31o585)" height="52.9703" id="Scooter" style="stroke: #A80036; stroke-width: 1.0499999999999998;" width="235.9" x="155.05" y="412.3"/><ellipse cx="255.325" cy="423.5" fill="#ADD1B2" rx="7.7" ry="7.7" style="stroke: #A80036; stroke-width: 0.7;"/><path d="M256.725,421.05 Q256.8672,420.7 257.0313,420.525 Q257.1953,420.35 257.3812,420.35 Q257.7094,420.35 257.9172,420.5469 Q258.125,420.7438 258.125,421.2031 L258.125,422.2969 Q258.125,422.7562 257.9281,422.9531 Q257.7313,423.15 257.425,423.15 Q257.1516,423.15 256.9766,423.0297 Q256.8016,422.9094 256.725,422.5922 Q256.6922,422.3734 256.5719,422.2531 Q256.3531,422.0234 255.9594,421.8922 Q255.5656,421.75 255.1719,421.75 Q254.6797,421.75 254.2641,421.9469 Q253.8594,422.1437 253.5422,422.5812 Q253.225,423.0187 253.225,423.6203 L253.225,424.2656 Q253.225,424.9875 253.8156,425.4688 Q254.4062,425.95 255.4562,425.95 Q256.0797,425.95 256.5172,425.8078 Q256.7688,425.7313 257.0531,425.4797 Q257.2391,425.3375 257.3375,425.2938 Q257.4359,425.25 257.5563,425.25 Q257.7859,425.25 257.95,425.4359 Q258.125,425.6109 258.125,425.8625 Q258.125,426.1031 257.8844,426.3875 Q257.5344,426.8031 256.9766,427.0328 Q256.2438,427.35 255.3469,427.35 Q254.2969,427.35 253.4547,426.9344 Q252.7766,426.6063 252.2953,425.8953 Q251.825,425.1844 251.825,424.3422 L251.825,423.5766 Q251.825,422.7016 252.2406,421.9359 Q252.6672,421.1703 253.4,420.7656 Q254.1437,420.35 254.975,420.35 Q255.4781,420.35 255.9156,420.525 Q256.3531,420.7 256.725,421.05 Z "/><text fill="#000000" font-family="sans-serif" font-size="8.4" lengthAdjust="spacingAndGlyphs" textLength="29.4" x="269.675" y="426.9371">Scooter</text><line style="stroke: #A80036; stroke-width: 1.0499999999999998;" x1="155.75" x2="390.25" y1="434.7" y2="434.7"/><line style="stroke: #A80036; stroke-width: 1.0499999999999998;" x1="155.75" x2="390.25" y1="440.3" y2="440.3"/><text fill="#000000" font-family="sans-serif" font-size="7.7" lengthAdjust="spacingAndGlyphs" textLength="157.5" x="159.25" y="451.0933">+Scooter(batteryPerc, charginStatus, potency,</text><text fill="#000000" font-family="sans-serif" font-size="7.7" lengthAdjust="spacingAndGlyphs" textLength="225.4" x="161.35" y="460.7784">weight, batteryCapacity, maxPayload, batteryVoltage, pharmacyId)</text><!--MD5=[3aa0d89c6bfdcbf7f32042cedac57549]
class Vehicle--><rect fill="#FEFECE" filter="url(#fqktd5x31o585)" height="72.3406" id="Vehicle" style="stroke: #A80036; stroke-width: 1.0499999999999998;" width="68.6" x="130.9" y="526.4"/><ellipse cx="149.59" cy="537.6" fill="#ADD1B2" rx="7.7" ry="7.7" style="stroke: #A80036; stroke-width: 0.7;"/><path d="M150.99,535.15 Q151.1322,534.8 151.2963,534.625 Q151.4603,534.45 151.6462,534.45 Q151.9744,534.45 152.1822,534.6469 Q152.39,534.8438 152.39,535.3031 L152.39,536.3969 Q152.39,536.8562 152.1931,537.0531 Q151.9962,537.25 151.69,537.25 Q151.4166,537.25 151.2416,537.1297 Q151.0666,537.0094 150.99,536.6922 Q150.9572,536.4734 150.8369,536.3531 Q150.6181,536.1234 150.2244,535.9922 Q149.8306,535.85 149.4369,535.85 Q148.9447,535.85 148.5291,536.0469 Q148.1244,536.2438 147.8072,536.6813 Q147.49,537.1188 147.49,537.7203 L147.49,538.3656 Q147.49,539.0875 148.0806,539.5687 Q148.6713,540.05 149.7212,540.05 Q150.3447,540.05 150.7822,539.9078 Q151.0337,539.8313 151.3181,539.5797 Q151.5041,539.4375 151.6025,539.3938 Q151.7009,539.35 151.8213,539.35 Q152.0509,539.35 152.215,539.5359 Q152.39,539.7109 152.39,539.9625 Q152.39,540.2031 152.1494,540.4875 Q151.7994,540.9031 151.2416,541.1328 Q150.5088,541.45 149.6119,541.45 Q148.5619,541.45 147.7197,541.0344 Q147.0416,540.7063 146.5603,539.9953 Q146.09,539.2844 146.09,538.4422 L146.09,537.6766 Q146.09,536.8016 146.5056,536.0359 Q146.9322,535.2703 147.665,534.8656 Q148.4087,534.45 149.24,534.45 Q149.7431,534.45 150.1806,534.625 Q150.6181,534.8 150.99,535.15 Z "/><text fill="#000000" font-family="sans-serif" font-size="8.4" lengthAdjust="spacingAndGlyphs" textLength="28" x="161.21" y="541.0371">Vehicle</text><line style="stroke: #A80036; stroke-width: 1.0499999999999998;" x1="131.6" x2="198.8" y1="548.8" y2="548.8"/><text fill="#000000" font-family="sans-serif" font-size="7.7" lengthAdjust="spacingAndGlyphs" textLength="18.2" x="135.1" y="559.5933">-int id</text><text fill="#000000" font-family="sans-serif" font-size="7.7" lengthAdjust="spacingAndGlyphs" textLength="46.9" x="135.1" y="569.2784">-float potency</text><text fill="#000000" font-family="sans-serif" font-size="7.7" lengthAdjust="spacingAndGlyphs" textLength="42.7" x="135.1" y="578.9636">-float weight</text><text fill="#000000" font-family="sans-serif" font-size="7.7" lengthAdjust="spacingAndGlyphs" textLength="60.2" x="135.1" y="588.6487">-float maxPayload</text><line style="stroke: #A80036; stroke-width: 1.0499999999999998;" x1="131.6" x2="198.8" y1="593.1406" y2="593.1406"/><!--MD5=[79eb2d862cef9730b5f9dcab29e35f17]
class Battery--><rect fill="#FEFECE" filter="url(#fqktd5x31o585)" height="72.3406" id="Battery" style="stroke: #A80036; stroke-width: 1.0499999999999998;" width="77.7" x="112.35" y="667.8"/><ellipse cx="136.08" cy="679" fill="#ADD1B2" rx="7.7" ry="7.7" style="stroke: #A80036; stroke-width: 0.7;"/><path d="M137.48,676.55 Q137.6222,676.2 137.7863,676.025 Q137.9503,675.85 138.1363,675.85 Q138.4644,675.85 138.6722,676.0469 Q138.88,676.2438 138.88,676.7031 L138.88,677.7969 Q138.88,678.2562 138.6831,678.4531 Q138.4862,678.65 138.18,678.65 Q137.9066,678.65 137.7316,678.5297 Q137.5566,678.4094 137.48,678.0922 Q137.4472,677.8734 137.3269,677.7531 Q137.1081,677.5234 136.7144,677.3922 Q136.3206,677.25 135.9269,677.25 Q135.4347,677.25 135.0191,677.4469 Q134.6144,677.6438 134.2972,678.0813 Q133.98,678.5188 133.98,679.1203 L133.98,679.7656 Q133.98,680.4875 134.5706,680.9688 Q135.1613,681.45 136.2113,681.45 Q136.8347,681.45 137.2722,681.3078 Q137.5238,681.2312 137.8081,680.9797 Q137.9941,680.8375 138.0925,680.7937 Q138.1909,680.75 138.3113,680.75 Q138.5409,680.75 138.705,680.9359 Q138.88,681.1109 138.88,681.3625 Q138.88,681.6031 138.6394,681.8875 Q138.2894,682.3031 137.7316,682.5328 Q136.9988,682.85 136.1019,682.85 Q135.0519,682.85 134.2097,682.4344 Q133.5316,682.1062 133.0503,681.3953 Q132.58,680.6844 132.58,679.8422 L132.58,679.0766 Q132.58,678.2016 132.9956,677.4359 Q133.4222,676.6703 134.155,676.2656 Q134.8988,675.85 135.73,675.85 Q136.2331,675.85 136.6706,676.025 Q137.1081,676.2 137.48,676.55 Z "/><text fill="#000000" font-family="sans-serif" font-size="8.4" lengthAdjust="spacingAndGlyphs" textLength="25.9" x="148.82" y="682.4371">Battery</text><line style="stroke: #A80036; stroke-width: 1.0499999999999998;" x1="113.05" x2="189.35" y1="690.2" y2="690.2"/><text fill="#000000" font-family="sans-serif" font-size="7.7" lengthAdjust="spacingAndGlyphs" textLength="18.2" x="116.55" y="700.9933">-int id</text><text fill="#000000" font-family="sans-serif" font-size="7.7" lengthAdjust="spacingAndGlyphs" textLength="58.8" x="116.55" y="710.6784">-float batteryPerc</text><text fill="#000000" font-family="sans-serif" font-size="7.7" lengthAdjust="spacingAndGlyphs" textLength="65.8" x="116.55" y="720.3636">-int batteryCapacity</text><text fill="#000000" font-family="sans-serif" font-size="7.7" lengthAdjust="spacingAndGlyphs" textLength="69.3" x="116.55" y="730.0487">-float batteryVoltage</text><line style="stroke: #A80036; stroke-width: 1.0499999999999998;" x1="113.05" x2="189.35" y1="734.5406" y2="734.5406"/><!--MD5=[0f39e4cb6f03951afbf6d14bd2505654]
class Address--><rect fill="#FEFECE" filter="url(#fqktd5x31o585)" height="101.3961" id="Address" style="stroke: #A80036; stroke-width: 1.0499999999999998;" width="74.2" x="317.1" y="653.1"/><ellipse cx="336.42" cy="664.3" fill="#ADD1B2" rx="7.7" ry="7.7" style="stroke: #A80036; stroke-width: 0.7;"/><path d="M337.82,661.85 Q337.9622,661.5 338.1262,661.325 Q338.2903,661.15 338.4763,661.15 Q338.8044,661.15 339.0122,661.3469 Q339.22,661.5437 339.22,662.0031 L339.22,663.0969 Q339.22,663.5563 339.0231,663.7531 Q338.8263,663.95 338.52,663.95 Q338.2466,663.95 338.0716,663.8297 Q337.8966,663.7094 337.82,663.3922 Q337.7872,663.1734 337.6669,663.0531 Q337.4481,662.8234 337.0544,662.6922 Q336.6606,662.55 336.2669,662.55 Q335.7747,662.55 335.3591,662.7469 Q334.9544,662.9437 334.6372,663.3812 Q334.32,663.8187 334.32,664.4203 L334.32,665.0656 Q334.32,665.7875 334.9106,666.2688 Q335.5012,666.75 336.5513,666.75 Q337.1747,666.75 337.6122,666.6078 Q337.8638,666.5313 338.1481,666.2797 Q338.3341,666.1375 338.4325,666.0938 Q338.5309,666.05 338.6513,666.05 Q338.8809,666.05 339.045,666.2359 Q339.22,666.4109 339.22,666.6625 Q339.22,666.9031 338.9794,667.1875 Q338.6294,667.6031 338.0716,667.8328 Q337.3388,668.15 336.4419,668.15 Q335.3919,668.15 334.5497,667.7344 Q333.8716,667.4063 333.3903,666.6953 Q332.92,665.9844 332.92,665.1422 L332.92,664.3766 Q332.92,663.5016 333.3356,662.7359 Q333.7622,661.9703 334.495,661.5656 Q335.2388,661.15 336.07,661.15 Q336.5731,661.15 337.0106,661.325 Q337.4481,661.5 337.82,661.85 Z "/><text fill="#000000" font-family="sans-serif" font-size="8.4" lengthAdjust="spacingAndGlyphs" textLength="32.2" x="348.18" y="667.7371">Address</text><line style="stroke: #A80036; stroke-width: 1.0499999999999998;" x1="317.8" x2="390.6" y1="675.5" y2="675.5"/><text fill="#000000" font-family="sans-serif" font-size="7.7" lengthAdjust="spacingAndGlyphs" textLength="49.7" x="321.3" y="686.2933">-float longitude</text><text fill="#000000" font-family="sans-serif" font-size="7.7" lengthAdjust="spacingAndGlyphs" textLength="43.4" x="321.3" y="695.9784">-float latitude</text><text fill="#000000" font-family="sans-serif" font-size="7.7" lengthAdjust="spacingAndGlyphs" textLength="65.8" x="321.3" y="705.6636">-String doorNumber</text><text fill="#000000" font-family="sans-serif" font-size="7.7" lengthAdjust="spacingAndGlyphs" textLength="63" x="321.3" y="715.3487">-String streetName</text><text fill="#000000" font-family="sans-serif" font-size="7.7" lengthAdjust="spacingAndGlyphs" textLength="62.3" x="321.3" y="725.0339">-String postalCode</text><text fill="#000000" font-family="sans-serif" font-size="7.7" lengthAdjust="spacingAndGlyphs" textLength="47.6" x="321.3" y="734.719">-String locality</text><text fill="#000000" font-family="sans-serif" font-size="7.7" lengthAdjust="spacingAndGlyphs" textLength="50.4" x="321.3" y="744.4042">-String country</text><line style="stroke: #A80036; stroke-width: 1.0499999999999998;" x1="317.8" x2="390.6" y1="748.8961" y2="748.8961"/><!--MD5=[7f2a9fafcebe4f099f71398fd3e2ed00]
class Pharmacy--><rect fill="#FEFECE" filter="url(#fqktd5x31o585)" height="62.6555" id="Pharmacy" style="stroke: #A80036; stroke-width: 1.0499999999999998;" width="71.4" x="237.3" y="530.95"/><ellipse cx="252.525" cy="542.15" fill="#ADD1B2" rx="7.7" ry="7.7" style="stroke: #A80036; stroke-width: 0.7;"/><path d="M253.925,539.7 Q254.0672,539.35 254.2313,539.175 Q254.3953,539 254.5812,539 Q254.9094,539 255.1172,539.1969 Q255.325,539.3938 255.325,539.8531 L255.325,540.9469 Q255.325,541.4063 255.1281,541.6031 Q254.9312,541.8 254.625,541.8 Q254.3516,541.8 254.1766,541.6797 Q254.0016,541.5594 253.925,541.2422 Q253.8922,541.0234 253.7719,540.9031 Q253.5531,540.6734 253.1594,540.5422 Q252.7656,540.4 252.3719,540.4 Q251.8797,540.4 251.4641,540.5969 Q251.0594,540.7937 250.7422,541.2312 Q250.425,541.6687 250.425,542.2703 L250.425,542.9156 Q250.425,543.6375 251.0156,544.1188 Q251.6063,544.6 252.6562,544.6 Q253.2797,544.6 253.7172,544.4578 Q253.9687,544.3812 254.2531,544.1297 Q254.4391,543.9875 254.5375,543.9437 Q254.6359,543.9 254.7563,543.9 Q254.9859,543.9 255.15,544.0859 Q255.325,544.2609 255.325,544.5125 Q255.325,544.7531 255.0844,545.0375 Q254.7344,545.4531 254.1766,545.6828 Q253.4438,546 252.5469,546 Q251.4969,546 250.6547,545.5844 Q249.9766,545.2562 249.4953,544.5453 Q249.025,543.8344 249.025,542.9922 L249.025,542.2266 Q249.025,541.3516 249.4406,540.5859 Q249.8672,539.8203 250.6,539.4156 Q251.3437,539 252.175,539 Q252.6781,539 253.1156,539.175 Q253.5531,539.35 253.925,539.7 Z "/><text fill="#000000" font-family="sans-serif" font-size="8.4" lengthAdjust="spacingAndGlyphs" textLength="38.5" x="263.375" y="545.5871">Pharmacy</text><line style="stroke: #A80036; stroke-width: 1.0499999999999998;" x1="238" x2="308" y1="553.35" y2="553.35"/><text fill="#000000" font-family="sans-serif" font-size="7.7" lengthAdjust="spacingAndGlyphs" textLength="18.2" x="241.5" y="564.1433">-int id</text><text fill="#000000" font-family="sans-serif" font-size="7.7" lengthAdjust="spacingAndGlyphs" textLength="42.7" x="241.5" y="573.8284">-String name</text><line style="stroke: #A80036; stroke-width: 1.0499999999999998;" x1="238" x2="308" y1="578.3203" y2="578.3203"/><text fill="#000000" font-family="sans-serif" font-size="7.7" lengthAdjust="spacingAndGlyphs" textLength="63" x="241.5" y="589.1136">+getScootersList()</text><!--MD5=[28160fdc0be430cd6f04db15a7547552]
class PharmacyService--><rect fill="#FEFECE" filter="url(#fqktd5x31o585)" height="52.9703" id="PharmacyService" style="stroke: #A80036; stroke-width: 1.0499999999999998;" width="88.9" x="90.65" y="293.3"/><ellipse cx="101.15" cy="304.5" fill="#ADD1B2" rx="7.7" ry="7.7" style="stroke: #A80036; stroke-width: 0.7;"/><path d="M102.55,302.05 Q102.6922,301.7 102.8562,301.525 Q103.0203,301.35 103.2063,301.35 Q103.5344,301.35 103.7422,301.5469 Q103.95,301.7438 103.95,302.2031 L103.95,303.2969 Q103.95,303.7562 103.7531,303.9531 Q103.5562,304.15 103.25,304.15 Q102.9766,304.15 102.8016,304.0297 Q102.6266,303.9094 102.55,303.5922 Q102.5172,303.3734 102.3969,303.2531 Q102.1781,303.0234 101.7844,302.8922 Q101.3906,302.75 100.9969,302.75 Q100.5047,302.75 100.0891,302.9469 Q99.6844,303.1437 99.3672,303.5812 Q99.05,304.0187 99.05,304.6203 L99.05,305.2656 Q99.05,305.9875 99.6406,306.4688 Q100.2312,306.95 101.2813,306.95 Q101.9047,306.95 102.3422,306.8078 Q102.5938,306.7313 102.8781,306.4797 Q103.0641,306.3375 103.1625,306.2938 Q103.2609,306.25 103.3813,306.25 Q103.6109,306.25 103.775,306.4359 Q103.95,306.6109 103.95,306.8625 Q103.95,307.1031 103.7094,307.3875 Q103.3594,307.8031 102.8016,308.0328 Q102.0688,308.35 101.1719,308.35 Q100.1219,308.35 99.2797,307.9344 Q98.6016,307.6063 98.1203,306.8953 Q97.65,306.1844 97.65,305.3422 L97.65,304.5766 Q97.65,303.7016 98.0656,302.9359 Q98.4922,302.1703 99.225,301.7656 Q99.9688,301.35 100.8,301.35 Q101.3031,301.35 101.7406,301.525 Q102.1781,301.7 102.55,302.05 Z "/><text fill="#000000" font-family="sans-serif" font-size="8.4" lengthAdjust="spacingAndGlyphs" textLength="66.5" x="110.95" y="307.9371">PharmacyService</text><line style="stroke: #A80036; stroke-width: 1.0499999999999998;" x1="91.35" x2="178.85" y1="315.7" y2="315.7"/><line style="stroke: #A80036; stroke-width: 1.0499999999999998;" x1="91.35" x2="178.85" y1="321.3" y2="321.3"/><text fill="#000000" font-family="sans-serif" font-size="7.7" lengthAdjust="spacingAndGlyphs" textLength="69.3" x="94.85" y="332.0933">+PharmacyService()</text><text fill="#000000" font-family="sans-serif" font-size="7.7" lengthAdjust="spacingAndGlyphs" textLength="59.5" x="94.85" y="341.7784">+getPharmacies()</text><!--MD5=[aa4a745fe56463fab637f55d2a7c778f]
class ScooterService--><rect fill="#FEFECE" filter="url(#fqktd5x31o585)" height="62.6555" id="ScooterService" style="stroke: #A80036; stroke-width: 1.0499999999999998;" width="110.6" x="204.4" y="288.4"/><ellipse cx="228.76" cy="299.6" fill="#ADD1B2" rx="7.7" ry="7.7" style="stroke: #A80036; stroke-width: 0.7;"/><path d="M230.16,297.15 Q230.3022,296.8 230.4663,296.625 Q230.6303,296.45 230.8163,296.45 Q231.1444,296.45 231.3522,296.6469 Q231.56,296.8438 231.56,297.3031 L231.56,298.3969 Q231.56,298.8563 231.3631,299.0531 Q231.1663,299.25 230.86,299.25 Q230.5866,299.25 230.4116,299.1297 Q230.2366,299.0094 230.16,298.6922 Q230.1272,298.4734 230.0069,298.3531 Q229.7881,298.1234 229.3944,297.9922 Q229.0006,297.85 228.6069,297.85 Q228.1147,297.85 227.6991,298.0469 Q227.2944,298.2438 226.9772,298.6813 Q226.66,299.1188 226.66,299.7203 L226.66,300.3656 Q226.66,301.0875 227.2506,301.5687 Q227.8413,302.05 228.8912,302.05 Q229.5147,302.05 229.9522,301.9078 Q230.2037,301.8312 230.4881,301.5797 Q230.6741,301.4375 230.7725,301.3937 Q230.8709,301.35 230.9912,301.35 Q231.2209,301.35 231.385,301.5359 Q231.56,301.7109 231.56,301.9625 Q231.56,302.2031 231.3194,302.4875 Q230.9694,302.9031 230.4116,303.1328 Q229.6787,303.45 228.7819,303.45 Q227.7319,303.45 226.8897,303.0344 Q226.2116,302.7062 225.7303,301.9953 Q225.26,301.2844 225.26,300.4422 L225.26,299.6766 Q225.26,298.8016 225.6756,298.0359 Q226.1022,297.2703 226.835,296.8656 Q227.5787,296.45 228.41,296.45 Q228.9131,296.45 229.3506,296.625 Q229.7881,296.8 230.16,297.15 Z "/><text fill="#000000" font-family="sans-serif" font-size="8.4" lengthAdjust="spacingAndGlyphs" textLength="57.4" x="241.64" y="303.0371">ScooterService</text><line style="stroke: #A80036; stroke-width: 1.0499999999999998;" x1="205.1" x2="314.3" y1="310.8" y2="310.8"/><line style="stroke: #A80036; stroke-width: 1.0499999999999998;" x1="205.1" x2="314.3" y1="316.4" y2="316.4"/><text fill="#000000" font-family="sans-serif" font-size="7.7" lengthAdjust="spacingAndGlyphs" textLength="62.3" x="208.6" y="327.1933">+ScooterService()</text><text fill="#000000" font-family="sans-serif" font-size="7.7" lengthAdjust="spacingAndGlyphs" textLength="102.2" x="208.6" y="336.8784">+getScootersList(pharmacyId)</text><text fill="#000000" font-family="sans-serif" font-size="7.7" lengthAdjust="spacingAndGlyphs" textLength="78.4" x="208.6" y="346.5636">+updateScooter(scoot)</text><!--MD5=[4b2d61224b33971326a22fe5d809d926]
class DataHandler--><rect fill="#FEFECE" filter="url(#fqktd5x31o585)" height="52.9703" id="DataHandler" style="stroke: #A80036; stroke-width: 1.0499999999999998;" width="72.8" x="654.5" y="293.3"/><ellipse cx="665.63" cy="304.5" fill="#ADD1B2" rx="7.7" ry="7.7" style="stroke: #A80036; stroke-width: 0.7;"/><path d="M667.03,302.05 Q667.1722,301.7 667.3363,301.525 Q667.5003,301.35 667.6863,301.35 Q668.0144,301.35 668.2222,301.5469 Q668.43,301.7438 668.43,302.2031 L668.43,303.2969 Q668.43,303.7562 668.2331,303.9531 Q668.0363,304.15 667.73,304.15 Q667.4566,304.15 667.2816,304.0297 Q667.1066,303.9094 667.03,303.5922 Q666.9972,303.3734 666.8769,303.2531 Q666.6581,303.0234 666.2644,302.8922 Q665.8706,302.75 665.4769,302.75 Q664.9847,302.75 664.5691,302.9469 Q664.1644,303.1437 663.8472,303.5812 Q663.53,304.0187 663.53,304.6203 L663.53,305.2656 Q663.53,305.9875 664.1206,306.4688 Q664.7113,306.95 665.7612,306.95 Q666.3847,306.95 666.8222,306.8078 Q667.0737,306.7313 667.3581,306.4797 Q667.5441,306.3375 667.6425,306.2938 Q667.7409,306.25 667.8612,306.25 Q668.0909,306.25 668.255,306.4359 Q668.43,306.6109 668.43,306.8625 Q668.43,307.1031 668.1894,307.3875 Q667.8394,307.8031 667.2816,308.0328 Q666.5487,308.35 665.6519,308.35 Q664.6019,308.35 663.7597,307.9344 Q663.0816,307.6063 662.6003,306.8953 Q662.13,306.1844 662.13,305.3422 L662.13,304.5766 Q662.13,303.7016 662.5456,302.9359 Q662.9722,302.1703 663.705,301.7656 Q664.4487,301.35 665.28,301.35 Q665.7831,301.35 666.2206,301.525 Q666.6581,301.7 667.03,302.05 Z "/><text fill="#000000" font-family="sans-serif" font-size="8.4" lengthAdjust="spacingAndGlyphs" textLength="49" x="675.57" y="307.9371">DataHandler</text><line style="stroke: #A80036; stroke-width: 1.0499999999999998;" x1="655.2" x2="726.6" y1="315.7" y2="315.7"/><line style="stroke: #A80036; stroke-width: 1.0499999999999998;" x1="655.2" x2="726.6" y1="321.3" y2="321.3"/><text fill="#000000" font-family="sans-serif" font-size="7.7" lengthAdjust="spacingAndGlyphs" textLength="64.4" x="658.7" y="332.0933">+openConnection()</text><text fill="#000000" font-family="sans-serif" font-size="7.7" lengthAdjust="spacingAndGlyphs" textLength="36.4" x="658.7" y="341.7784">+closeAll()</text><!--MD5=[b860ecc58d0ca70e482845cb1f7b4615]
class PharmacyDB--><rect fill="#FEFECE" filter="url(#fqktd5x31o585)" height="52.9703" id="PharmacyDB" style="stroke: #A80036; stroke-width: 1.0499999999999998;" width="72.8" x="670.6" y="412.3"/><ellipse cx="681.1" cy="423.5" fill="#ADD1B2" rx="7.7" ry="7.7" style="stroke: #A80036; stroke-width: 0.7;"/><path d="M682.5,421.05 Q682.6422,420.7 682.8063,420.525 Q682.9703,420.35 683.1563,420.35 Q683.4844,420.35 683.6922,420.5469 Q683.9,420.7438 683.9,421.2031 L683.9,422.2969 Q683.9,422.7562 683.7031,422.9531 Q683.5062,423.15 683.2,423.15 Q682.9266,423.15 682.7516,423.0297 Q682.5766,422.9094 682.5,422.5922 Q682.4672,422.3734 682.3469,422.2531 Q682.1281,422.0234 681.7344,421.8922 Q681.3406,421.75 680.9469,421.75 Q680.4547,421.75 680.0391,421.9469 Q679.6344,422.1437 679.3172,422.5812 Q679,423.0187 679,423.6203 L679,424.2656 Q679,424.9875 679.5906,425.4688 Q680.1813,425.95 681.2312,425.95 Q681.8547,425.95 682.2922,425.8078 Q682.5437,425.7313 682.8281,425.4797 Q683.0141,425.3375 683.1125,425.2938 Q683.2109,425.25 683.3313,425.25 Q683.5609,425.25 683.725,425.4359 Q683.9,425.6109 683.9,425.8625 Q683.9,426.1031 683.6594,426.3875 Q683.3094,426.8031 682.7516,427.0328 Q682.0188,427.35 681.1219,427.35 Q680.0719,427.35 679.2297,426.9344 Q678.5516,426.6063 678.0703,425.8953 Q677.6,425.1844 677.6,424.3422 L677.6,423.5766 Q677.6,422.7016 678.0156,421.9359 Q678.4422,421.1703 679.175,420.7656 Q679.9187,420.35 680.75,420.35 Q681.2531,420.35 681.6906,420.525 Q682.1281,420.7 682.5,421.05 Z "/><text fill="#000000" font-family="sans-serif" font-size="8.4" lengthAdjust="spacingAndGlyphs" textLength="50.4" x="690.9" y="426.9371">PharmacyDB</text><line style="stroke: #A80036; stroke-width: 1.0499999999999998;" x1="671.3" x2="742.7" y1="434.7" y2="434.7"/><line style="stroke: #A80036; stroke-width: 1.0499999999999998;" x1="671.3" x2="742.7" y1="440.3" y2="440.3"/><text fill="#000000" font-family="sans-serif" font-size="7.7" lengthAdjust="spacingAndGlyphs" textLength="53.2" x="674.8" y="451.0933">+PharmacyDB()</text><text fill="#000000" font-family="sans-serif" font-size="7.7" lengthAdjust="spacingAndGlyphs" textLength="59.5" x="674.8" y="460.7784">+getPharmacies()</text><!--MD5=[48d7298b3bd1f8b3e8f77915e881d788]
class ScooterDB--><rect fill="#FEFECE" filter="url(#fqktd5x31o585)" height="62.6555" id="ScooterDB" style="stroke: #A80036; stroke-width: 1.0499999999999998;" width="113.4" x="532.7" y="407.4"/><ellipse cx="565.775" cy="418.6" fill="#ADD1B2" rx="7.7" ry="7.7" style="stroke: #A80036; stroke-width: 0.7;"/><path d="M567.175,416.15 Q567.3172,415.8 567.4812,415.625 Q567.6453,415.45 567.8313,415.45 Q568.1594,415.45 568.3672,415.6469 Q568.575,415.8438 568.575,416.3031 L568.575,417.3969 Q568.575,417.8563 568.3781,418.0531 Q568.1813,418.25 567.875,418.25 Q567.6016,418.25 567.4266,418.1297 Q567.2516,418.0094 567.175,417.6922 Q567.1422,417.4734 567.0219,417.3531 Q566.8031,417.1234 566.4094,416.9922 Q566.0156,416.85 565.6219,416.85 Q565.1297,416.85 564.7141,417.0469 Q564.3094,417.2438 563.9922,417.6813 Q563.675,418.1188 563.675,418.7203 L563.675,419.3656 Q563.675,420.0875 564.2656,420.5687 Q564.8562,421.05 565.9063,421.05 Q566.5297,421.05 566.9672,420.9078 Q567.2188,420.8312 567.5031,420.5797 Q567.6891,420.4375 567.7875,420.3937 Q567.8859,420.35 568.0062,420.35 Q568.2359,420.35 568.4,420.5359 Q568.575,420.7109 568.575,420.9625 Q568.575,421.2031 568.3344,421.4875 Q567.9844,421.9031 567.4266,422.1328 Q566.6937,422.45 565.7969,422.45 Q564.7469,422.45 563.9047,422.0344 Q563.2266,421.7062 562.7453,420.9953 Q562.275,420.2844 562.275,419.4422 L562.275,418.6766 Q562.275,417.8016 562.6906,417.0359 Q563.1172,416.2703 563.85,415.8656 Q564.5938,415.45 565.425,415.45 Q565.9281,415.45 566.3656,415.625 Q566.8031,415.8 567.175,416.15 Z "/><text fill="#000000" font-family="sans-serif" font-size="8.4" lengthAdjust="spacingAndGlyphs" textLength="41.3" x="580.125" y="422.0371">ScooterDB</text><line style="stroke: #A80036; stroke-width: 1.0499999999999998;" x1="533.4" x2="645.4" y1="429.8" y2="429.8"/><line style="stroke: #A80036; stroke-width: 1.0499999999999998;" x1="533.4" x2="645.4" y1="435.4" y2="435.4"/><text fill="#000000" font-family="sans-serif" font-size="7.7" lengthAdjust="spacingAndGlyphs" textLength="46.2" x="536.9" y="446.1933">+ScooterDB()</text><text fill="#000000" font-family="sans-serif" font-size="7.7" lengthAdjust="spacingAndGlyphs" textLength="63" x="536.9" y="455.8784">+getScootersList()</text><text fill="#000000" font-family="sans-serif" font-size="7.7" lengthAdjust="spacingAndGlyphs" textLength="105" x="536.9" y="465.5636">+updateScooterFromDB(scoot)</text><!--MD5=[f40d64c3825bdc96a4efd5b7e3ff1420]
reverse link DataHandler to PharmacyDB--><path d="M696.3768,360.6064 C698.7099,377.6458 701.365,397.0379 703.437,412.174 " fill="none" id="DataHandler&lt;-PharmacyDB" style="stroke: #A80036; stroke-width: 0.7;"/><polygon fill="none" points="691.5174,361.2343,694.4728,346.6995,701.2271,359.905,691.5174,361.2343" style="stroke: #A80036; stroke-width: 0.7;"/><!--MD5=[a2c65173c20bdf66914a8ed43c34e217]
reverse link DataHandler to ScooterDB--><path d="M672.8561,359.2078 C667.6033,368.5815 661.3971,378.245 654.5,386.4 C648.2511,393.7892 640.8143,400.8585 633.2389,407.2698 " fill="none" id="DataHandler&lt;-ScooterDB" style="stroke: #A80036; stroke-width: 0.7;"/><polygon fill="none" points="668.5448,356.8775,679.4025,346.7723,677.2164,361.4429,668.5448,356.8775" style="stroke: #A80036; stroke-width: 0.7;"/><!--MD5=[068c19e9ee2b8d6f5118254dd44da898]
link UpdateScooterUI to UpdateScooterController--><path d="M172.9,75.663 C172.9,90.377 172.9,112.595 172.9,131.306 " fill="none" id="UpdateScooterUI-&gt;UpdateScooterController" style="stroke: #A80036; stroke-width: 0.7; stroke-dasharray: 7.0,7.0;"/><polygon fill="#A80036" points="172.9,134.995,175.7,128.695,172.9,131.495,170.1,128.695,172.9,134.995" style="stroke: #A80036; stroke-width: 0.7;"/><!--MD5=[8726f40d04d7fff4643080593f315b6b]
link UpdateScooterController to PharmacyService--><path d="M165.2049,198.2225 C158.5528,224.9541 149.0027,263.333 142.4521,289.6544 " fill="none" id="UpdateScooterController-&gt;PharmacyService" style="stroke: #A80036; stroke-width: 0.7; stroke-dasharray: 7.0,7.0;"/><polygon fill="#A80036" points="141.589,293.1243,145.8273,287.6868,142.4341,289.7279,140.393,286.3346,141.589,293.1243" style="stroke: #A80036; stroke-width: 0.7;"/><!--MD5=[ca01bf2db4ec991acca53a5e6a0a6b09]
link UpdateScooterController to ScooterService--><path d="M190.5701,198.2225 C205.0027,223.4792 225.3762,259.1337 240.2666,285.1919 " fill="none" id="UpdateScooterController-&gt;ScooterService" style="stroke: #A80036; stroke-width: 0.7; stroke-dasharray: 7.0,7.0;"/><polygon fill="#A80036" points="242.0551,288.3209,241.3615,281.4617,240.319,285.2818,236.4989,284.2394,242.0551,288.3209" style="stroke: #A80036; stroke-width: 0.7;"/><!--MD5=[04ba2cb7f5803b19c0d0e740f2a895e0]
link Database to PharmacyDB--><path d="M481.6672,336.5229 C491.3307,347.4324 505.6464,361.1566 521.5,368.2 C544.3585,378.3556 553.2401,367.7086 577.5,373.8 C615.3805,383.3116 624.057,389.3645 658.7,407.4 C661.5504,408.884 664.4505,410.4842 667.3429,412.1474 " fill="none" id="Database-&gt;PharmacyDB" style="stroke: #A80036; stroke-width: 0.7;"/><polygon fill="#A80036" points="670.4754,413.9744,666.4452,408.3809,667.4524,412.2104,663.6229,413.2176,670.4754,413.9744" style="stroke: #A80036; stroke-width: 0.7;"/><text fill="#000000" font-family="sans-serif" font-size="9.1" lengthAdjust="spacingAndGlyphs" textLength="37.1" x="616.7" y="383.9466">manages</text><text fill="#000000" font-family="sans-serif" font-size="9.1" lengthAdjust="spacingAndGlyphs" textLength="4.9" x="479.1299" y="351.1686">1</text><text fill="#000000" font-family="sans-serif" font-size="9.1" lengthAdjust="spacingAndGlyphs" textLength="4.9" x="660.0946" y="407.9618">1</text><!--MD5=[70f68ce34a156c56edce71dba5c758e9]
link Database to ScooterDB--><path d="M485.2379,336.4599 C503.0018,353.8108 531.9951,382.13 554.8879,404.4901 " fill="none" id="Database-&gt;ScooterDB" style="stroke: #A80036; stroke-width: 0.7;"/><polygon fill="#A80036" points="557.648,407.1865,555.0979,400.7813,555.1443,404.7408,551.1848,404.7872,557.648,407.1865" style="stroke: #A80036; stroke-width: 0.7;"/><text fill="#000000" font-family="sans-serif" font-size="9.1" lengthAdjust="spacingAndGlyphs" textLength="37.1" x="534.1" y="383.9466">manages</text><text fill="#000000" font-family="sans-serif" font-size="9.1" lengthAdjust="spacingAndGlyphs" textLength="4.9" x="489.5595" y="351.091">1</text><text fill="#000000" font-family="sans-serif" font-size="9.1" lengthAdjust="spacingAndGlyphs" textLength="4.9" x="547.5108" y="399.7647">1</text><!--MD5=[ee7ed70a83e67b7f86b44988d609d45d]
link ScooterService to PharmacyDB--><path d="M267.9411,351.5015 C273.0504,364.4886 281.0528,378.4102 293.3,386.4 C361.4198,430.8395 581.3059,382.3918 658.7,407.4 C661.5567,408.3233 664.4113,409.4566 667.2246,410.7383 " fill="none" id="ScooterService-&gt;PharmacyDB" style="stroke: #A80036; stroke-width: 0.7;"/><polygon fill="#A80036" points="670.5062,412.3077,666.0304,407.064,667.3486,410.7979,663.6147,412.1161,670.5062,412.3077" style="stroke: #A80036; stroke-width: 0.7;"/><text fill="#000000" font-family="sans-serif" font-size="9.1" lengthAdjust="spacingAndGlyphs" textLength="19.6" x="294" y="383.9466">uses</text><text fill="#000000" font-family="sans-serif" font-size="9.1" lengthAdjust="spacingAndGlyphs" textLength="4.9" x="263.8193" y="365.9867">1</text><text fill="#000000" font-family="sans-serif" font-size="9.1" lengthAdjust="spacingAndGlyphs" textLength="3.5" x="664.1003" y="404.6627">*</text><!--MD5=[799b1f05f2692ceb79e345e4105e6b42]
link PharmacyService to ScooterDB--><path d="M160.0921,346.7429 C169.295,354.8825 180.2997,363.0627 191.8,368.2 C207.8685,375.3785 214.298,368.2532 231,373.8 C242.0985,377.4855 242.8937,383.0554 254.1,386.4 C365.0633,419.5149 401.1511,380.5746 513.8,407.4 C518.8407,408.6005 523.9836,410.0859 529.0971,411.7512 " fill="none" id="PharmacyService-&gt;ScooterDB" style="stroke: #A80036; stroke-width: 0.7;"/><polygon fill="#A80036" points="532.6307,412.9314,527.5424,408.2796,529.311,411.8225,525.7681,413.5911,532.6307,412.9314" style="stroke: #A80036; stroke-width: 0.7;"/><text fill="#000000" font-family="sans-serif" font-size="9.1" lengthAdjust="spacingAndGlyphs" textLength="19.6" x="254.8" y="383.9466">uses</text><text fill="#000000" font-family="sans-serif" font-size="9.1" lengthAdjust="spacingAndGlyphs" textLength="4.9" x="158.7847" y="361.398">1</text><text fill="#000000" font-family="sans-serif" font-size="9.1" lengthAdjust="spacingAndGlyphs" textLength="3.5" x="523.5531" y="408.1972">*</text><!--MD5=[2ed2b43e7f6d114538396b0b10b28567]
link PharmacyService to Pharmacy--><path d="M105.5362,346.5518 C89.838,362.3578 72.0947,383.9801 63.7,407.4 C51.7327,440.7865 42.0758,459.088 63.7,487.2 C105.1092,541.0328 148.5883,500.5658 211.4,526.4 C218.8837,529.4779 226.5781,533.3006 233.884,537.2843 " fill="none" id="PharmacyService-&gt;Pharmacy" style="stroke: #A80036; stroke-width: 0.7;"/><polygon fill="#A80036" points="236.9899,539,232.8285,533.5034,233.926,537.3081,230.1214,538.4056,236.9899,539" style="stroke: #A80036; stroke-width: 0.7;"/><text fill="#000000" font-family="sans-serif" font-size="9.1" lengthAdjust="spacingAndGlyphs" textLength="77.7" x="64.4" y="442.7466">manage services of</text><text fill="#000000" font-family="sans-serif" font-size="9.1" lengthAdjust="spacingAndGlyphs" textLength="4.9" x="95.3339" y="361.3795">1</text><text fill="#000000" font-family="sans-serif" font-size="9.1" lengthAdjust="spacingAndGlyphs" textLength="3.5" x="228.1799" y="533.203">*</text><!--MD5=[a4fc43f4c54bc2b04150642bdfef7d93]
link ScooterService to Scooter--><path d="M222.4089,351.4868 C212.9232,357.9667 202.3994,364.0777 191.8,368.2 C182.8806,371.6685 155.4119,366.6061 149.1,373.8 C145.4068,378.0091 145.9962,381.7387 149.1,386.4 C155.54,396.0733 164.1696,403.9427 173.8912,410.3456 " fill="none" id="ScooterService-&gt;Scooter" style="stroke: #A80036; stroke-width: 0.7;"/><polygon fill="#A80036" points="176.9425,412.2853,173.129,406.5418,173.9891,410.4071,170.1239,411.2672,176.9425,412.2853" style="stroke: #A80036; stroke-width: 0.7;"/><text fill="#000000" font-family="sans-serif" font-size="9.1" lengthAdjust="spacingAndGlyphs" textLength="77.7" x="149.8" y="383.9466">manage services of</text><text fill="#000000" font-family="sans-serif" font-size="9.1" lengthAdjust="spacingAndGlyphs" textLength="4.9" x="211.9203" y="366.2043">1</text><text fill="#000000" font-family="sans-serif" font-size="9.1" lengthAdjust="spacingAndGlyphs" textLength="3.5" x="155.4092" y="404.6362">*</text><!--MD5=[51d7b9a785c9fb041ca400474ed1d998]
link Database to Pharmacy--><path d="M466.3785,336.4144 C460.3809,368.3127 442.9887,441.2324 403.2,487.2 C377.7998,516.5447 337.8606,536.9847 308.9114,548.9449 " fill="none" id="Database-Pharmacy" style="stroke: #A80036; stroke-width: 0.7;"/><text fill="#000000" font-family="sans-serif" font-size="9.1" lengthAdjust="spacingAndGlyphs" textLength="57.4" x="448" y="442.7466">has registered</text><polygon fill="#000000" points="473.55,448.9461,475.65,453.1461,477.75,448.9461,473.55,448.9461" style="stroke: #000000; stroke-width: 0.7;"/><text fill="#000000" font-family="sans-serif" font-size="9.1" lengthAdjust="spacingAndGlyphs" textLength="4.9" x="460.3057" y="351.035">1</text><text fill="#000000" font-family="sans-serif" font-size="9.1" lengthAdjust="spacingAndGlyphs" textLength="3.5" x="314.2075" y="544.5464">*</text><!--MD5=[f4a94ba2ad2673d4959409a96e63c979]
link Database to Scooter--><path d="M440.4421,331.6166 C416.6134,341.3228 382.1587,356.5723 354.2,373.8 C335.9713,385.0322 317.1441,399.7378 302.2131,412.2601 " fill="none" id="Database-Scooter" style="stroke: #A80036; stroke-width: 0.7;"/><polygon fill="#000000" points="359.8,379.173,355.6,381.273,359.8,383.373,359.8,379.173" style="stroke: #000000; stroke-width: 0.7;"/><text fill="#000000" font-family="sans-serif" font-size="9.1" lengthAdjust="spacingAndGlyphs" textLength="57.4" x="364" y="383.9466">has registered</text><text fill="#000000" font-family="sans-serif" font-size="9.1" lengthAdjust="spacingAndGlyphs" textLength="4.9" x="430.2126" y="330.9591">1</text><text fill="#000000" font-family="sans-serif" font-size="9.1" lengthAdjust="spacingAndGlyphs" textLength="3.5" x="303.7766" y="404.6063">*</text><!--MD5=[074a56c4439d52c76e1cc7a8f9d070a4]
link Vehicle to Battery--><path d="M161.6489,598.6589 C159.5349,619.8024 156.8609,646.5424 154.7469,667.6789 " fill="none" id="Vehicle-Battery" style="stroke: #A80036; stroke-width: 0.7;"/><text fill="#000000" font-family="sans-serif" font-size="9.1" lengthAdjust="spacingAndGlyphs" textLength="14.7" x="160.3" y="629.6466">has</text><polygon fill="#000000" points="164.5,635.8461,166.6,640.0461,168.7,635.8461,164.5,635.8461" style="stroke: #000000; stroke-width: 0.7;"/><text fill="#000000" font-family="sans-serif" font-size="9.1" lengthAdjust="spacingAndGlyphs" textLength="4.9" x="155.9425" y="613.7239">1</text><text fill="#000000" font-family="sans-serif" font-size="9.1" lengthAdjust="spacingAndGlyphs" textLength="4.9" x="149.9943" y="660.3129">1</text><!--MD5=[52f80c2c106e4280525a8160ec8cd0fa]
link Scooter to Vehicle--><path d="M239.9579,465.7681 C230.4939,473.9602 220.479,483.343 212.1,492.8 C203.0273,503.0396 194.2619,515.1153 186.8132,526.2754 " fill="none" id="Scooter-Vehicle" style="stroke: #A80036; stroke-width: 0.7;"/><text fill="#000000" font-family="sans-serif" font-size="9.1" lengthAdjust="spacingAndGlyphs" textLength="44.8" x="212.8" y="502.9466">is a type of</text><polygon fill="#000000" points="232.05,509.1461,234.15,513.3461,236.25,509.1461,232.05,509.1461" style="stroke: #000000; stroke-width: 0.7;"/><text fill="#000000" font-family="sans-serif" font-size="9.1" lengthAdjust="spacingAndGlyphs" textLength="3.5" x="231.1304" y="480.2228">*</text><text fill="#000000" font-family="sans-serif" font-size="9.1" lengthAdjust="spacingAndGlyphs" textLength="4.9" x="184.4883" y="518.9089">1</text><!--MD5=[6f1b2737b94c689eac8b0af6a5ef1443]
link Scooter to Pharmacy--><path d="M273,465.5049 C273,484.6233 273,510.7172 273,530.9115 " fill="none" id="Scooter-Pharmacy" style="stroke: #A80036; stroke-width: 0.7;"/><text fill="#000000" font-family="sans-serif" font-size="9.1" lengthAdjust="spacingAndGlyphs" textLength="42" x="273.7" y="502.9466">belongs to</text><polygon fill="#000000" points="291.55,509.1461,293.65,513.3461,295.75,509.1461,291.55,509.1461" style="stroke: #000000; stroke-width: 0.7;"/><text fill="#000000" font-family="sans-serif" font-size="9.1" lengthAdjust="spacingAndGlyphs" textLength="3.5" x="269.2102" y="480.3248">*</text><text fill="#000000" font-family="sans-serif" font-size="9.1" lengthAdjust="spacingAndGlyphs" textLength="4.9" x="267.7095" y="523.2862">1</text><!--MD5=[89baec1bfb4a213750f7c61516e0a0f1]
link Pharmacy to Address--><path d="M291.0208,594.2202 C301.0196,611.4598 313.6973,633.318 325.0674,652.9222 " fill="none" id="Pharmacy-Address" style="stroke: #A80036; stroke-width: 0.7;"/><text fill="#000000" font-family="sans-serif" font-size="9.1" lengthAdjust="spacingAndGlyphs" textLength="14.7" x="312.2" y="629.6466">has</text><polygon fill="#000000" points="316.4,635.8461,318.5,640.0461,320.6,635.8461,316.4,635.8461" style="stroke: #000000; stroke-width: 0.7;"/><text fill="#000000" font-family="sans-serif" font-size="9.1" lengthAdjust="spacingAndGlyphs" textLength="4.9" x="288.2131" y="608.7281">1</text><text fill="#000000" font-family="sans-serif" font-size="9.1" lengthAdjust="spacingAndGlyphs" textLength="4.9" x="316.9104" y="645.3574">1</text><!--MD5=[e7daa03d92f0a94af078cf78578db78d]
link Pharmacy to ScooterPark--><path d="M268.6502,594.2202 C264.9059,620.9651 259.6055,658.8274 256.3407,682.143 " fill="none" id="Pharmacy-ScooterPark" style="stroke: #A80036; stroke-width: 0.7;"/><text fill="#000000" font-family="sans-serif" font-size="9.1" lengthAdjust="spacingAndGlyphs" textLength="14.7" x="266" y="629.6466">has</text><polygon fill="#000000" points="270.2,635.8461,272.3,640.0461,274.4,635.8461,270.2,635.8461" style="stroke: #000000; stroke-width: 0.7;"/><text fill="#000000" font-family="sans-serif" font-size="9.1" lengthAdjust="spacingAndGlyphs" textLength="4.9" x="262.8365" y="608.7281">1</text><text fill="#000000" font-family="sans-serif" font-size="9.1" lengthAdjust="spacingAndGlyphs" textLength="4.9" x="251.548" y="674.4557">1</text><!--MD5=[6c03f80bb0eb412de4ede466470bd7f4]
link ScooterPark to ScooterChargingSlot--><path d="M243.3655,725.816 C232.6268,748.5751 215.5832,784.6951 204.0577,809.1216 " fill="none" id="ScooterPark-ScooterChargingSlot" style="stroke: #A80036; stroke-width: 0.7;"/><text fill="#000000" font-family="sans-serif" font-size="9.1" lengthAdjust="spacingAndGlyphs" textLength="14.7" x="219.8" y="785.7466">has</text><polygon fill="#000000" points="224,791.9461,226.1,796.1461,228.2,791.9461,224,791.9461" style="stroke: #000000; stroke-width: 0.7;"/><text fill="#000000" font-family="sans-serif" font-size="9.1" lengthAdjust="spacingAndGlyphs" textLength="4.9" x="236.0856" y="740.5518">1</text><text fill="#000000" font-family="sans-serif" font-size="9.1" lengthAdjust="spacingAndGlyphs" textLength="4.9" x="200.9047" y="801.661">1</text><!--MD5=[8b5c72ddee54db66c8e770f45750c925]
link ScooterPark to ScooterParkingSlot--><path d="M263.5479,725.816 C275.1679,750.1648 294.0854,789.8058 305.6592,814.0601 " fill="none" id="ScooterPark-ScooterParkingSlot" style="stroke: #A80036; stroke-width: 0.7;"/><text fill="#000000" font-family="sans-serif" font-size="9.1" lengthAdjust="spacingAndGlyphs" textLength="14.7" x="293.3" y="785.7466">has</text><polygon fill="#000000" points="297.5,791.9461,299.6,796.1461,301.7,791.9461,297.5,791.9461" style="stroke: #000000; stroke-width: 0.7;"/><text fill="#000000" font-family="sans-serif" font-size="9.1" lengthAdjust="spacingAndGlyphs" textLength="4.9" x="260.1153" y="740.5518">1</text><text fill="#000000" font-family="sans-serif" font-size="9.1" lengthAdjust="spacingAndGlyphs" textLength="4.9" x="298.0268" y="806.3656">1</text><!--MD5=[b09b2d31ff591d75e01534cc99b09c4a]
@startuml
skinparam classAttributeIconSize 0

database Database {
}

package "UI" #DDDDDD {
class UpdateScooterUI{
}
}

package "Controller" #DDDDDD {
class UpdateScooterController{
+showPharmacies()
+showScootersList(pharmacyId)
+updateScooter(scoot)
}
}


package "Model" #DDDDDD {
 package "Service" #DDDDDD {
  class PharmacyService{
      +PharmacyService()
      +getPharmacies()
  }

  class ScooterService{
      +ScooterService()
      +getScootersList(pharmacyId)
      +updateScooter(scoot)
   }
}

package "Model" #DDDDDD {
class ScooterPark{
-   int maxSlotsNumber
}

class ScooterChargingSlot{
-   int id
-   float outputPower
}

class ScooterParkingSlot{
-   int id
}

class Scooter{
+Scooter(batteryPerc, charginStatus, potency,\n weight, batteryCapacity, maxPayload, batteryVoltage, pharmacyId)

}

class Vehicle{
  -int id
  -float potency
  -float weight
  -float maxPayload
}

class Battery{
  -int id
  -float batteryPerc
  -int batteryCapacity
  -float batteryVoltage
}

class Address{
  -float longitude
  -float latitude
  -String doorNumber
  -String streetName
  -String postalCode
  -String locality
  -String country
}

class Pharmacy {
  -int id
  -String name
  +getScootersList()
}
}


package "Data" #DDDDDD {
class DataHandler{
    +openConnection()
    +closeAll()
}
class PharmacyDB{
     +PharmacyDB()
     +getPharmacies()
 }

 class ScooterDB{
     +ScooterDB()
     +getScootersList()
     +updateScooterFromDB(scoot)
  }
}

class PharmacyDB extends DataHandler
class ScooterDB extends DataHandler

UpdateScooterUI ..> UpdateScooterController
UpdateScooterController ..> PharmacyService
UpdateScooterController ..> ScooterService
Database "1" - -> "1" PharmacyDB : manages
Database "1" - -> "1" ScooterDB : manages
ScooterService "1" - -> "*" PharmacyDB : uses
PharmacyService "1" - -> "*" ScooterDB : uses
PharmacyService "1" - -> "*" Pharmacy : manage services of
ScooterService "1" - -> "*" Scooter : manage services of

Database "1" - - "*" Pharmacy : has registered >
Database "1" - - "*" Scooter : has registered >

Vehicle "1" - - "1" Battery : has >
Scooter "*" - - "1" Vehicle : is a type of >
Scooter "*" - - "1" Pharmacy : belongs to >
Pharmacy "1" - - "1" Address : has >
Pharmacy "1" - - "1" ScooterPark : has >
ScooterPark "1" - - "1" ScooterChargingSlot : has >
ScooterPark "1" - - "1" ScooterParkingSlot : has >

@enduml

PlantUML version 1.2020.09(Sun May 10 11:51:06 BST 2020)
(GPL source distribution)
Java Runtime: OpenJDK Runtime Environment
JVM: OpenJDK 64-Bit Server VM
Java Version: 11.0.6+8-b765.40
Operating System: Windows 10
Default Encoding: Cp1252
Language: pt
Country: PT
--></g></svg>