<?xml version="1.0" encoding="UTF-8" standalone="no"?><svg xmlns="http://www.w3.org/2000/svg" xmlns:xlink="http://www.w3.org/1999/xlink" contentScriptType="application/ecmascript" contentStyleType="text/css" height="1260px" preserveAspectRatio="none" style="width:1100px;height:1260px;" version="1.1" viewBox="0 0 1100 1260" width="1100px" zoomAndPan="magnify"><defs><filter height="300%" id="fpdk2msjjchyj" width="300%" x="-1" y="-1"><feGaussianBlur result="blurOut" stdDeviation="2.0"/><feColorMatrix in="blurOut" result="blurOut2" type="matrix" values="0 0 0 0 0 0 0 0 0 0 0 0 0 0 0 0 0 0 .4 0"/><feOffset dx="4.0" dy="4.0" in="blurOut2" result="blurOut3"/><feBlend in="SourceGraphic" in2="blurOut3" mode="normal"/></filter></defs><g><!--MD5=[9681dc6e01e10c6b4fe06895ae94f592]
cluster UI--><polygon fill="#DDDDDD" filter="url(#fpdk2msjjchyj)" points="168,24,188,24,195,47.6094,326,47.6094,326,124,168,124,168,24" style="stroke: #000000; stroke-width: 1.5;"/><line style="stroke: #000000; stroke-width: 1.5;" x1="168" x2="195" y1="47.6094" y2="47.6094"/><text fill="#000000" font-family="sans-serif" font-size="14" font-weight="bold" lengthAdjust="spacingAndGlyphs" textLength="14" x="172" y="40.5332">UI</text><!--MD5=[1f2cfc53d9d308f53762fd0fcbaa4873]
cluster Controller--><polygon fill="#DDDDDD" filter="url(#fpdk2msjjchyj)" points="145,157,222,157,229,180.6094,349,180.6094,349,299,145,299,145,157" style="stroke: #000000; stroke-width: 1.5;"/><line style="stroke: #000000; stroke-width: 1.5;" x1="145" x2="229" y1="180.6094" y2="180.6094"/><text fill="#000000" font-family="sans-serif" font-size="14" font-weight="bold" lengthAdjust="spacingAndGlyphs" textLength="71" x="149" y="173.5332">Controller</text><!--MD5=[15636c1ca4a123c16a2a1a8e90aca7a9]
cluster Model--><polygon fill="#DDDDDD" filter="url(#fpdk2msjjchyj)" points="22,332,72,332,79,355.6094,575,355.6094,575,1248,22,1248,22,332" style="stroke: #000000; stroke-width: 1.5;"/><line style="stroke: #000000; stroke-width: 1.5;" x1="22" x2="79" y1="355.6094" y2="355.6094"/><text fill="#000000" font-family="sans-serif" font-size="14" font-weight="bold" lengthAdjust="spacingAndGlyphs" textLength="44" x="26" y="348.5332">Model</text><!--MD5=[9dd75fd92da113d30380b27734fd2f01]
cluster Service--><polygon fill="#DDDDDD" filter="url(#fpdk2msjjchyj)" points="113,376,173,376,180,399.6094,466,399.6094,466,518,113,518,113,376" style="stroke: #000000; stroke-width: 1.5;"/><line style="stroke: #000000; stroke-width: 1.5;" x1="113" x2="180" y1="399.6094" y2="399.6094"/><text fill="#000000" font-family="sans-serif" font-size="14" font-weight="bold" lengthAdjust="spacingAndGlyphs" textLength="54" x="117" y="392.5332">Service</text><!--MD5=[f21b1f164e99c6b37934f23ad048ad54]
cluster Data--><polygon fill="#DDDDDD" filter="url(#fpdk2msjjchyj)" points="745,383,782,383,789,406.6094,1078,406.6094,1078,688,745,688,745,383" style="stroke: #000000; stroke-width: 1.5;"/><line style="stroke: #000000; stroke-width: 1.5;" x1="745" x2="789" y1="406.6094" y2="406.6094"/><text fill="#000000" font-family="sans-serif" font-size="14" font-weight="bold" lengthAdjust="spacingAndGlyphs" textLength="31" x="749" y="399.5332">Data</text><!--MD5=[fa1e3283224feb76407c84b7e90ed808]
entity Database--><path d="M629.5,443.5 C629.5,433.5 670,433.5 670,433.5 C670,433.5 710.5,433.5 710.5,443.5 L710.5,470.1094 C710.5,480.1094 670,480.1094 670,480.1094 C670,480.1094 629.5,480.1094 629.5,470.1094 L629.5,443.5 " fill="#FFFFFF" filter="url(#fpdk2msjjchyj)" style="stroke: #000000; stroke-width: 1.5;"/><path d="M629.5,443.5 C629.5,453.5 670,453.5 670,453.5 C670,453.5 710.5,453.5 710.5,443.5 " fill="none" style="stroke: #000000; stroke-width: 1.5;"/><text fill="#000000" font-family="sans-serif" font-size="14" lengthAdjust="spacingAndGlyphs" textLength="61" x="639.5" y="472.0332">Database</text><!--MD5=[56b05040cba7ba1143e43c771f04a5c5]
class UpdateScooterUI--><rect fill="#FEFECE" filter="url(#fpdk2msjjchyj)" height="48" id="UpdateScooterUI" style="stroke: #A80036; stroke-width: 1.5;" width="126" x="184" y="60"/><ellipse cx="199" cy="76" fill="#ADD1B2" rx="11" ry="11" style="stroke: #A80036; stroke-width: 1.0;"/><path d="M201,72.5 Q201.2031,72 201.4375,71.75 Q201.6719,71.5 201.9375,71.5 Q202.4063,71.5 202.7031,71.7813 Q203,72.0625 203,72.7188 L203,74.2813 Q203,74.9375 202.7188,75.2188 Q202.4375,75.5 202,75.5 Q201.6094,75.5 201.3594,75.3281 Q201.1094,75.1563 201,74.7031 Q200.9531,74.3906 200.7813,74.2188 Q200.4688,73.8906 199.9063,73.7031 Q199.3438,73.5 198.7813,73.5 Q198.0781,73.5 197.4844,73.7813 Q196.9063,74.0625 196.4531,74.6875 Q196,75.3125 196,76.1719 L196,77.0938 Q196,78.125 196.8438,78.8125 Q197.6875,79.5 199.1875,79.5 Q200.0781,79.5 200.7031,79.2969 Q201.0625,79.1875 201.4688,78.8281 Q201.7344,78.625 201.875,78.5625 Q202.0156,78.5 202.1875,78.5 Q202.5156,78.5 202.75,78.7656 Q203,79.0156 203,79.375 Q203,79.7188 202.6563,80.125 Q202.1563,80.7188 201.3594,81.0469 Q200.3125,81.5 199.0313,81.5 Q197.5313,81.5 196.3281,80.9063 Q195.3594,80.4375 194.6719,79.4219 Q194,78.4063 194,77.2031 L194,76.1094 Q194,74.8594 194.5938,73.7656 Q195.2031,72.6719 196.25,72.0938 Q197.3125,71.5 198.5,71.5 Q199.2188,71.5 199.8438,71.75 Q200.4688,72 201,72.5 Z "/><text fill="#000000" font-family="sans-serif" font-size="12" lengthAdjust="spacingAndGlyphs" textLength="94" x="213" y="80.9102">UpdateScooterUI</text><line style="stroke: #A80036; stroke-width: 1.5;" x1="185" x2="309" y1="92" y2="92"/><line style="stroke: #A80036; stroke-width: 1.5;" x1="185" x2="309" y1="100" y2="100"/><!--MD5=[3e55a46d736e61deccb82423bbd922fc]
class UpdateScooterController--><rect fill="#FEFECE" filter="url(#fpdk2msjjchyj)" height="89.5078" id="UpdateScooterController" style="stroke: #A80036; stroke-width: 1.5;" width="171" x="161.5" y="193"/><ellipse cx="177.85" cy="209" fill="#ADD1B2" rx="11" ry="11" style="stroke: #A80036; stroke-width: 1.0;"/><path d="M179.85,205.5 Q180.0531,205 180.2875,204.75 Q180.5219,204.5 180.7875,204.5 Q181.2563,204.5 181.5531,204.7813 Q181.85,205.0625 181.85,205.7188 L181.85,207.2813 Q181.85,207.9375 181.5688,208.2188 Q181.2875,208.5 180.85,208.5 Q180.4594,208.5 180.2094,208.3281 Q179.9594,208.1563 179.85,207.7031 Q179.8031,207.3906 179.6313,207.2188 Q179.3188,206.8906 178.7563,206.7031 Q178.1938,206.5 177.6313,206.5 Q176.9281,206.5 176.3344,206.7813 Q175.7563,207.0625 175.3031,207.6875 Q174.85,208.3125 174.85,209.1719 L174.85,210.0938 Q174.85,211.125 175.6938,211.8125 Q176.5375,212.5 178.0375,212.5 Q178.9281,212.5 179.5531,212.2969 Q179.9125,212.1875 180.3188,211.8281 Q180.5844,211.625 180.725,211.5625 Q180.8656,211.5 181.0375,211.5 Q181.3656,211.5 181.6,211.7656 Q181.85,212.0156 181.85,212.375 Q181.85,212.7188 181.5063,213.125 Q181.0063,213.7188 180.2094,214.0469 Q179.1625,214.5 177.8813,214.5 Q176.3813,214.5 175.1781,213.9063 Q174.2094,213.4375 173.5219,212.4219 Q172.85,211.4063 172.85,210.2031 L172.85,209.1094 Q172.85,207.8594 173.4438,206.7656 Q174.0531,205.6719 175.1,205.0938 Q176.1625,204.5 177.35,204.5 Q178.0688,204.5 178.6938,204.75 Q179.3188,205 179.85,205.5 Z "/><text fill="#000000" font-family="sans-serif" font-size="12" lengthAdjust="spacingAndGlyphs" textLength="136" x="192.15" y="213.9102">UpdateScooterController</text><line style="stroke: #A80036; stroke-width: 1.5;" x1="162.5" x2="331.5" y1="225" y2="225"/><line style="stroke: #A80036; stroke-width: 1.5;" x1="162.5" x2="331.5" y1="233" y2="233"/><text fill="#000000" font-family="sans-serif" font-size="11" lengthAdjust="spacingAndGlyphs" textLength="98" x="167.5" y="248.4189">+showPharmacies()</text><text fill="#000000" font-family="sans-serif" font-size="11" lengthAdjust="spacingAndGlyphs" textLength="159" x="167.5" y="262.2549">+showScootersList(pharmacyId)</text><text fill="#000000" font-family="sans-serif" font-size="11" lengthAdjust="spacingAndGlyphs" textLength="112" x="167.5" y="276.0908">+updateScooter(scoot)</text><!--MD5=[868815390a9e59f0f213a5798810649b]
class ScooterPark--><rect fill="#FEFECE" filter="url(#fpdk2msjjchyj)" height="61.8359" id="ScooterPark" style="stroke: #A80036; stroke-width: 1.5;" width="111" x="306.5" y="974.5"/><ellipse cx="326.9" cy="990.5" fill="#ADD1B2" rx="11" ry="11" style="stroke: #A80036; stroke-width: 1.0;"/><path d="M328.9,987 Q329.1031,986.5 329.3375,986.25 Q329.5719,986 329.8375,986 Q330.3063,986 330.6031,986.2813 Q330.9,986.5625 330.9,987.2188 L330.9,988.7813 Q330.9,989.4375 330.6188,989.7188 Q330.3375,990 329.9,990 Q329.5094,990 329.2594,989.8281 Q329.0094,989.6563 328.9,989.2031 Q328.8531,988.8906 328.6813,988.7188 Q328.3688,988.3906 327.8063,988.2031 Q327.2438,988 326.6813,988 Q325.9781,988 325.3844,988.2813 Q324.8063,988.5625 324.3531,989.1875 Q323.9,989.8125 323.9,990.6719 L323.9,991.5938 Q323.9,992.625 324.7438,993.3125 Q325.5875,994 327.0875,994 Q327.9781,994 328.6031,993.7969 Q328.9625,993.6875 329.3688,993.3281 Q329.6344,993.125 329.775,993.0625 Q329.9156,993 330.0875,993 Q330.4156,993 330.65,993.2656 Q330.9,993.5156 330.9,993.875 Q330.9,994.2188 330.5563,994.625 Q330.0563,995.2188 329.2594,995.5469 Q328.2125,996 326.9313,996 Q325.4313,996 324.2281,995.4063 Q323.2594,994.9375 322.5719,993.9219 Q321.9,992.9063 321.9,991.7031 L321.9,990.6094 Q321.9,989.3594 322.4938,988.2656 Q323.1031,987.1719 324.15,986.5938 Q325.2125,986 326.4,986 Q327.1188,986 327.7438,986.25 Q328.3688,986.5 328.9,987 Z "/><text fill="#000000" font-family="sans-serif" font-size="12" lengthAdjust="spacingAndGlyphs" textLength="67" x="342.1" y="995.4102">ScooterPark</text><line style="stroke: #A80036; stroke-width: 1.5;" x1="307.5" x2="416.5" y1="1006.5" y2="1006.5"/><text fill="#000000" font-family="sans-serif" font-size="11" lengthAdjust="spacingAndGlyphs" textLength="99" x="312.5" y="1021.9189">-int maxSlotsNumber</text><line style="stroke: #A80036; stroke-width: 1.5;" x1="307.5" x2="416.5" y1="1028.3359" y2="1028.3359"/><!--MD5=[5efbb0d0731ef97fc2ab2cfe7ed5bd27]
class ScooterChargingSlot--><rect fill="#FEFECE" filter="url(#fpdk2msjjchyj)" height="75.6719" id="ScooterChargingSlot" style="stroke: #A80036; stroke-width: 1.5;" width="146" x="201" y="1156"/><ellipse cx="216" cy="1172" fill="#ADD1B2" rx="11" ry="11" style="stroke: #A80036; stroke-width: 1.0;"/><path d="M218,1168.5 Q218.2031,1168 218.4375,1167.75 Q218.6719,1167.5 218.9375,1167.5 Q219.4063,1167.5 219.7031,1167.7813 Q220,1168.0625 220,1168.7188 L220,1170.2813 Q220,1170.9375 219.7188,1171.2188 Q219.4375,1171.5 219,1171.5 Q218.6094,1171.5 218.3594,1171.3281 Q218.1094,1171.1563 218,1170.7031 Q217.9531,1170.3906 217.7813,1170.2188 Q217.4688,1169.8906 216.9063,1169.7031 Q216.3438,1169.5 215.7813,1169.5 Q215.0781,1169.5 214.4844,1169.7813 Q213.9063,1170.0625 213.4531,1170.6875 Q213,1171.3125 213,1172.1719 L213,1173.0938 Q213,1174.125 213.8438,1174.8125 Q214.6875,1175.5 216.1875,1175.5 Q217.0781,1175.5 217.7031,1175.2969 Q218.0625,1175.1875 218.4688,1174.8281 Q218.7344,1174.625 218.875,1174.5625 Q219.0156,1174.5 219.1875,1174.5 Q219.5156,1174.5 219.75,1174.7656 Q220,1175.0156 220,1175.375 Q220,1175.7188 219.6563,1176.125 Q219.1563,1176.7188 218.3594,1177.0469 Q217.3125,1177.5 216.0313,1177.5 Q214.5313,1177.5 213.3281,1176.9063 Q212.3594,1176.4375 211.6719,1175.4219 Q211,1174.4063 211,1173.2031 L211,1172.1094 Q211,1170.8594 211.5938,1169.7656 Q212.2031,1168.6719 213.25,1168.0938 Q214.3125,1167.5 215.5,1167.5 Q216.2188,1167.5 216.8438,1167.75 Q217.4688,1168 218,1168.5 Z "/><text fill="#000000" font-family="sans-serif" font-size="12" lengthAdjust="spacingAndGlyphs" textLength="114" x="230" y="1176.9102">ScooterChargingSlot</text><line style="stroke: #A80036; stroke-width: 1.5;" x1="202" x2="346" y1="1188" y2="1188"/><text fill="#000000" font-family="sans-serif" font-size="11" lengthAdjust="spacingAndGlyphs" textLength="26" x="207" y="1203.4189">-int id</text><text fill="#000000" font-family="sans-serif" font-size="11" lengthAdjust="spacingAndGlyphs" textLength="90" x="207" y="1217.2549">-float outputPower</text><line style="stroke: #A80036; stroke-width: 1.5;" x1="202" x2="346" y1="1223.6719" y2="1223.6719"/><!--MD5=[d3cdad78b703b3ff47b8cf68490e772e]
class ScooterParkingSlot--><rect fill="#FEFECE" filter="url(#fpdk2msjjchyj)" height="61.8359" id="ScooterParkingSlot" style="stroke: #A80036; stroke-width: 1.5;" width="137" x="382.5" y="1163"/><ellipse cx="397.5" cy="1179" fill="#ADD1B2" rx="11" ry="11" style="stroke: #A80036; stroke-width: 1.0;"/><path d="M399.5,1175.5 Q399.7031,1175 399.9375,1174.75 Q400.1719,1174.5 400.4375,1174.5 Q400.9063,1174.5 401.2031,1174.7813 Q401.5,1175.0625 401.5,1175.7188 L401.5,1177.2813 Q401.5,1177.9375 401.2188,1178.2188 Q400.9375,1178.5 400.5,1178.5 Q400.1094,1178.5 399.8594,1178.3281 Q399.6094,1178.1563 399.5,1177.7031 Q399.4531,1177.3906 399.2813,1177.2188 Q398.9688,1176.8906 398.4063,1176.7031 Q397.8438,1176.5 397.2813,1176.5 Q396.5781,1176.5 395.9844,1176.7813 Q395.4063,1177.0625 394.9531,1177.6875 Q394.5,1178.3125 394.5,1179.1719 L394.5,1180.0938 Q394.5,1181.125 395.3438,1181.8125 Q396.1875,1182.5 397.6875,1182.5 Q398.5781,1182.5 399.2031,1182.2969 Q399.5625,1182.1875 399.9688,1181.8281 Q400.2344,1181.625 400.375,1181.5625 Q400.5156,1181.5 400.6875,1181.5 Q401.0156,1181.5 401.25,1181.7656 Q401.5,1182.0156 401.5,1182.375 Q401.5,1182.7188 401.1563,1183.125 Q400.6563,1183.7188 399.8594,1184.0469 Q398.8125,1184.5 397.5313,1184.5 Q396.0313,1184.5 394.8281,1183.9063 Q393.8594,1183.4375 393.1719,1182.4219 Q392.5,1181.4063 392.5,1180.2031 L392.5,1179.1094 Q392.5,1177.8594 393.0938,1176.7656 Q393.7031,1175.6719 394.75,1175.0938 Q395.8125,1174.5 397,1174.5 Q397.7188,1174.5 398.3438,1174.75 Q398.9688,1175 399.5,1175.5 Z "/><text fill="#000000" font-family="sans-serif" font-size="12" lengthAdjust="spacingAndGlyphs" textLength="105" x="411.5" y="1183.9102">ScooterParkingSlot</text><line style="stroke: #A80036; stroke-width: 1.5;" x1="383.5" x2="518.5" y1="1195" y2="1195"/><text fill="#000000" font-family="sans-serif" font-size="11" lengthAdjust="spacingAndGlyphs" textLength="26" x="388.5" y="1210.4189">-int id</text><line style="stroke: #A80036; stroke-width: 1.5;" x1="383.5" x2="518.5" y1="1216.8359" y2="1216.8359"/><!--MD5=[f4402668d5d5bb8485350c0fdb60ac8e]
class Scooter--><rect fill="#FEFECE" filter="url(#fpdk2msjjchyj)" height="75.6719" id="Scooter" style="stroke: #A80036; stroke-width: 1.5;" width="337" x="221.5" y="589"/><ellipse cx="364.75" cy="605" fill="#ADD1B2" rx="11" ry="11" style="stroke: #A80036; stroke-width: 1.0;"/><path d="M366.75,601.5 Q366.9531,601 367.1875,600.75 Q367.4219,600.5 367.6875,600.5 Q368.1563,600.5 368.4531,600.7813 Q368.75,601.0625 368.75,601.7188 L368.75,603.2813 Q368.75,603.9375 368.4688,604.2188 Q368.1875,604.5 367.75,604.5 Q367.3594,604.5 367.1094,604.3281 Q366.8594,604.1563 366.75,603.7031 Q366.7031,603.3906 366.5313,603.2188 Q366.2188,602.8906 365.6563,602.7031 Q365.0938,602.5 364.5313,602.5 Q363.8281,602.5 363.2344,602.7813 Q362.6563,603.0625 362.2031,603.6875 Q361.75,604.3125 361.75,605.1719 L361.75,606.0938 Q361.75,607.125 362.5938,607.8125 Q363.4375,608.5 364.9375,608.5 Q365.8281,608.5 366.4531,608.2969 Q366.8125,608.1875 367.2188,607.8281 Q367.4844,607.625 367.625,607.5625 Q367.7656,607.5 367.9375,607.5 Q368.2656,607.5 368.5,607.7656 Q368.75,608.0156 368.75,608.375 Q368.75,608.7188 368.4063,609.125 Q367.9063,609.7188 367.1094,610.0469 Q366.0625,610.5 364.7813,610.5 Q363.2813,610.5 362.0781,609.9063 Q361.1094,609.4375 360.4219,608.4219 Q359.75,607.4063 359.75,606.2031 L359.75,605.1094 Q359.75,603.8594 360.3438,602.7656 Q360.9531,601.6719 362,601.0938 Q363.0625,600.5 364.25,600.5 Q364.9688,600.5 365.5938,600.75 Q366.2188,601 366.75,601.5 Z "/><text fill="#000000" font-family="sans-serif" font-size="12" lengthAdjust="spacingAndGlyphs" textLength="42" x="385.25" y="609.9102">Scooter</text><line style="stroke: #A80036; stroke-width: 1.5;" x1="222.5" x2="557.5" y1="621" y2="621"/><line style="stroke: #A80036; stroke-width: 1.5;" x1="222.5" x2="557.5" y1="629" y2="629"/><text fill="#000000" font-family="sans-serif" font-size="11" lengthAdjust="spacingAndGlyphs" textLength="225" x="227.5" y="644.4189">+Scooter(batteryPerc, charginStatus, potency,</text><text fill="#000000" font-family="sans-serif" font-size="11" lengthAdjust="spacingAndGlyphs" textLength="322" x="230.5" y="658.2549">weight, batteryCapacity, maxPayload, batteryVoltage, pharmacyId)</text><!--MD5=[3aa0d89c6bfdcbf7f32042cedac57549]
class Vehicle--><rect fill="#FEFECE" filter="url(#fpdk2msjjchyj)" height="103.3438" id="Vehicle" style="stroke: #A80036; stroke-width: 1.5;" width="98" x="187" y="752"/><ellipse cx="213.7" cy="768" fill="#ADD1B2" rx="11" ry="11" style="stroke: #A80036; stroke-width: 1.0;"/><path d="M215.7,764.5 Q215.9031,764 216.1375,763.75 Q216.3719,763.5 216.6375,763.5 Q217.1063,763.5 217.4031,763.7813 Q217.7,764.0625 217.7,764.7188 L217.7,766.2813 Q217.7,766.9375 217.4188,767.2188 Q217.1375,767.5 216.7,767.5 Q216.3094,767.5 216.0594,767.3281 Q215.8094,767.1563 215.7,766.7031 Q215.6531,766.3906 215.4813,766.2188 Q215.1688,765.8906 214.6063,765.7031 Q214.0438,765.5 213.4813,765.5 Q212.7781,765.5 212.1844,765.7813 Q211.6063,766.0625 211.1531,766.6875 Q210.7,767.3125 210.7,768.1719 L210.7,769.0938 Q210.7,770.125 211.5438,770.8125 Q212.3875,771.5 213.8875,771.5 Q214.7781,771.5 215.4031,771.2969 Q215.7625,771.1875 216.1688,770.8281 Q216.4344,770.625 216.575,770.5625 Q216.7156,770.5 216.8875,770.5 Q217.2156,770.5 217.45,770.7656 Q217.7,771.0156 217.7,771.375 Q217.7,771.7188 217.3563,772.125 Q216.8563,772.7188 216.0594,773.0469 Q215.0125,773.5 213.7313,773.5 Q212.2313,773.5 211.0281,772.9063 Q210.0594,772.4375 209.3719,771.4219 Q208.7,770.4063 208.7,769.2031 L208.7,768.1094 Q208.7,766.8594 209.2938,765.7656 Q209.9031,764.6719 210.95,764.0938 Q212.0125,763.5 213.2,763.5 Q213.9188,763.5 214.5438,763.75 Q215.1688,764 215.7,764.5 Z "/><text fill="#000000" font-family="sans-serif" font-size="12" lengthAdjust="spacingAndGlyphs" textLength="40" x="230.3" y="772.9102">Vehicle</text><line style="stroke: #A80036; stroke-width: 1.5;" x1="188" x2="284" y1="784" y2="784"/><text fill="#000000" font-family="sans-serif" font-size="11" lengthAdjust="spacingAndGlyphs" textLength="26" x="193" y="799.4189">-int id</text><text fill="#000000" font-family="sans-serif" font-size="11" lengthAdjust="spacingAndGlyphs" textLength="67" x="193" y="813.2549">-float potency</text><text fill="#000000" font-family="sans-serif" font-size="11" lengthAdjust="spacingAndGlyphs" textLength="61" x="193" y="827.0908">-float weight</text><text fill="#000000" font-family="sans-serif" font-size="11" lengthAdjust="spacingAndGlyphs" textLength="86" x="193" y="840.9268">-float maxPayload</text><line style="stroke: #A80036; stroke-width: 1.5;" x1="188" x2="284" y1="847.3438" y2="847.3438"/><!--MD5=[79eb2d862cef9730b5f9dcab29e35f17]
class Battery--><rect fill="#FEFECE" filter="url(#fpdk2msjjchyj)" height="103.3438" id="Battery" style="stroke: #A80036; stroke-width: 1.5;" width="111" x="160.5" y="954"/><ellipse cx="194.4" cy="970" fill="#ADD1B2" rx="11" ry="11" style="stroke: #A80036; stroke-width: 1.0;"/><path d="M196.4,966.5 Q196.6031,966 196.8375,965.75 Q197.0719,965.5 197.3375,965.5 Q197.8063,965.5 198.1031,965.7813 Q198.4,966.0625 198.4,966.7188 L198.4,968.2813 Q198.4,968.9375 198.1188,969.2188 Q197.8375,969.5 197.4,969.5 Q197.0094,969.5 196.7594,969.3281 Q196.5094,969.1563 196.4,968.7031 Q196.3531,968.3906 196.1813,968.2188 Q195.8688,967.8906 195.3063,967.7031 Q194.7438,967.5 194.1813,967.5 Q193.4781,967.5 192.8844,967.7813 Q192.3063,968.0625 191.8531,968.6875 Q191.4,969.3125 191.4,970.1719 L191.4,971.0938 Q191.4,972.125 192.2438,972.8125 Q193.0875,973.5 194.5875,973.5 Q195.4781,973.5 196.1031,973.2969 Q196.4625,973.1875 196.8688,972.8281 Q197.1344,972.625 197.275,972.5625 Q197.4156,972.5 197.5875,972.5 Q197.9156,972.5 198.15,972.7656 Q198.4,973.0156 198.4,973.375 Q198.4,973.7188 198.0563,974.125 Q197.5563,974.7188 196.7594,975.0469 Q195.7125,975.5 194.4313,975.5 Q192.9313,975.5 191.7281,974.9063 Q190.7594,974.4375 190.0719,973.4219 Q189.4,972.4063 189.4,971.2031 L189.4,970.1094 Q189.4,968.8594 189.9938,967.7656 Q190.6031,966.6719 191.65,966.0938 Q192.7125,965.5 193.9,965.5 Q194.6188,965.5 195.2438,965.75 Q195.8688,966 196.4,966.5 Z "/><text fill="#000000" font-family="sans-serif" font-size="12" lengthAdjust="spacingAndGlyphs" textLength="37" x="212.6" y="974.9102">Battery</text><line style="stroke: #A80036; stroke-width: 1.5;" x1="161.5" x2="270.5" y1="986" y2="986"/><text fill="#000000" font-family="sans-serif" font-size="11" lengthAdjust="spacingAndGlyphs" textLength="26" x="166.5" y="1001.4189">-int id</text><text fill="#000000" font-family="sans-serif" font-size="11" lengthAdjust="spacingAndGlyphs" textLength="84" x="166.5" y="1015.2549">-float batteryPerc</text><text fill="#000000" font-family="sans-serif" font-size="11" lengthAdjust="spacingAndGlyphs" textLength="94" x="166.5" y="1029.0908">-int batteryCapacity</text><text fill="#000000" font-family="sans-serif" font-size="11" lengthAdjust="spacingAndGlyphs" textLength="99" x="166.5" y="1042.9268">-float batteryVoltage</text><line style="stroke: #A80036; stroke-width: 1.5;" x1="161.5" x2="270.5" y1="1049.3438" y2="1049.3438"/><!--MD5=[0f39e4cb6f03951afbf6d14bd2505654]
class Address--><rect fill="#FEFECE" filter="url(#fpdk2msjjchyj)" height="144.8516" id="Address" style="stroke: #A80036; stroke-width: 1.5;" width="106" x="453" y="933"/><ellipse cx="480.6" cy="949" fill="#ADD1B2" rx="11" ry="11" style="stroke: #A80036; stroke-width: 1.0;"/><path d="M482.6,945.5 Q482.8031,945 483.0375,944.75 Q483.2719,944.5 483.5375,944.5 Q484.0063,944.5 484.3031,944.7813 Q484.6,945.0625 484.6,945.7188 L484.6,947.2813 Q484.6,947.9375 484.3188,948.2188 Q484.0375,948.5 483.6,948.5 Q483.2094,948.5 482.9594,948.3281 Q482.7094,948.1563 482.6,947.7031 Q482.5531,947.3906 482.3813,947.2188 Q482.0688,946.8906 481.5063,946.7031 Q480.9438,946.5 480.3813,946.5 Q479.6781,946.5 479.0844,946.7813 Q478.5063,947.0625 478.0531,947.6875 Q477.6,948.3125 477.6,949.1719 L477.6,950.0938 Q477.6,951.125 478.4438,951.8125 Q479.2875,952.5 480.7875,952.5 Q481.6781,952.5 482.3031,952.2969 Q482.6625,952.1875 483.0688,951.8281 Q483.3344,951.625 483.475,951.5625 Q483.6156,951.5 483.7875,951.5 Q484.1156,951.5 484.35,951.7656 Q484.6,952.0156 484.6,952.375 Q484.6,952.7188 484.2563,953.125 Q483.7563,953.7188 482.9594,954.0469 Q481.9125,954.5 480.6313,954.5 Q479.1313,954.5 477.9281,953.9063 Q476.9594,953.4375 476.2719,952.4219 Q475.6,951.4063 475.6,950.2031 L475.6,949.1094 Q475.6,947.8594 476.1938,946.7656 Q476.8031,945.6719 477.85,945.0938 Q478.9125,944.5 480.1,944.5 Q480.8188,944.5 481.4438,944.75 Q482.0688,945 482.6,945.5 Z "/><text fill="#000000" font-family="sans-serif" font-size="12" lengthAdjust="spacingAndGlyphs" textLength="46" x="497.4" y="953.9102">Address</text><line style="stroke: #A80036; stroke-width: 1.5;" x1="454" x2="558" y1="965" y2="965"/><text fill="#000000" font-family="sans-serif" font-size="11" lengthAdjust="spacingAndGlyphs" textLength="82" x="459" y="980.4189">-double longitude</text><text fill="#000000" font-family="sans-serif" font-size="11" lengthAdjust="spacingAndGlyphs" textLength="73" x="459" y="994.2549">-double latitude</text><text fill="#000000" font-family="sans-serif" font-size="11" lengthAdjust="spacingAndGlyphs" textLength="94" x="459" y="1008.0908">-String doorNumber</text><text fill="#000000" font-family="sans-serif" font-size="11" lengthAdjust="spacingAndGlyphs" textLength="90" x="459" y="1021.9268">-String streetName</text><text fill="#000000" font-family="sans-serif" font-size="11" lengthAdjust="spacingAndGlyphs" textLength="89" x="459" y="1035.7627">-String postalCode</text><text fill="#000000" font-family="sans-serif" font-size="11" lengthAdjust="spacingAndGlyphs" textLength="68" x="459" y="1049.5986">-String locality</text><text fill="#000000" font-family="sans-serif" font-size="11" lengthAdjust="spacingAndGlyphs" textLength="72" x="459" y="1063.4346">-String country</text><line style="stroke: #A80036; stroke-width: 1.5;" x1="454" x2="558" y1="1069.8516" y2="1069.8516"/><!--MD5=[7f2a9fafcebe4f099f71398fd3e2ed00]
class Pharmacy--><rect fill="#FEFECE" filter="url(#fpdk2msjjchyj)" height="89.5078" id="Pharmacy" style="stroke: #A80036; stroke-width: 1.5;" width="102" x="339" y="758.5"/><ellipse cx="360.75" cy="774.5" fill="#ADD1B2" rx="11" ry="11" style="stroke: #A80036; stroke-width: 1.0;"/><path d="M362.75,771 Q362.9531,770.5 363.1875,770.25 Q363.4219,770 363.6875,770 Q364.1563,770 364.4531,770.2813 Q364.75,770.5625 364.75,771.2188 L364.75,772.7813 Q364.75,773.4375 364.4688,773.7188 Q364.1875,774 363.75,774 Q363.3594,774 363.1094,773.8281 Q362.8594,773.6563 362.75,773.2031 Q362.7031,772.8906 362.5313,772.7188 Q362.2188,772.3906 361.6563,772.2031 Q361.0938,772 360.5313,772 Q359.8281,772 359.2344,772.2813 Q358.6563,772.5625 358.2031,773.1875 Q357.75,773.8125 357.75,774.6719 L357.75,775.5938 Q357.75,776.625 358.5938,777.3125 Q359.4375,778 360.9375,778 Q361.8281,778 362.4531,777.7969 Q362.8125,777.6875 363.2188,777.3281 Q363.4844,777.125 363.625,777.0625 Q363.7656,777 363.9375,777 Q364.2656,777 364.5,777.2656 Q364.75,777.5156 364.75,777.875 Q364.75,778.2188 364.4063,778.625 Q363.9063,779.2188 363.1094,779.5469 Q362.0625,780 360.7813,780 Q359.2813,780 358.0781,779.4063 Q357.1094,778.9375 356.4219,777.9219 Q355.75,776.9063 355.75,775.7031 L355.75,774.6094 Q355.75,773.3594 356.3438,772.2656 Q356.9531,771.1719 358,770.5938 Q359.0625,770 360.25,770 Q360.9688,770 361.5938,770.25 Q362.2188,770.5 362.75,771 Z "/><text fill="#000000" font-family="sans-serif" font-size="12" lengthAdjust="spacingAndGlyphs" textLength="55" x="376.25" y="779.4102">Pharmacy</text><line style="stroke: #A80036; stroke-width: 1.5;" x1="340" x2="440" y1="790.5" y2="790.5"/><text fill="#000000" font-family="sans-serif" font-size="11" lengthAdjust="spacingAndGlyphs" textLength="26" x="345" y="805.9189">-int id</text><text fill="#000000" font-family="sans-serif" font-size="11" lengthAdjust="spacingAndGlyphs" textLength="61" x="345" y="819.7549">-String name</text><line style="stroke: #A80036; stroke-width: 1.5;" x1="340" x2="440" y1="826.1719" y2="826.1719"/><text fill="#000000" font-family="sans-serif" font-size="11" lengthAdjust="spacingAndGlyphs" textLength="90" x="345" y="841.5908">+getScootersList()</text><!--MD5=[28160fdc0be430cd6f04db15a7547552]
class PharmacyService--><rect fill="#FEFECE" filter="url(#fpdk2msjjchyj)" height="75.6719" id="PharmacyService" style="stroke: #A80036; stroke-width: 1.5;" width="127" x="129.5" y="419"/><ellipse cx="144.5" cy="435" fill="#ADD1B2" rx="11" ry="11" style="stroke: #A80036; stroke-width: 1.0;"/><path d="M146.5,431.5 Q146.7031,431 146.9375,430.75 Q147.1719,430.5 147.4375,430.5 Q147.9063,430.5 148.2031,430.7813 Q148.5,431.0625 148.5,431.7188 L148.5,433.2813 Q148.5,433.9375 148.2188,434.2188 Q147.9375,434.5 147.5,434.5 Q147.1094,434.5 146.8594,434.3281 Q146.6094,434.1563 146.5,433.7031 Q146.4531,433.3906 146.2813,433.2188 Q145.9688,432.8906 145.4063,432.7031 Q144.8438,432.5 144.2813,432.5 Q143.5781,432.5 142.9844,432.7813 Q142.4063,433.0625 141.9531,433.6875 Q141.5,434.3125 141.5,435.1719 L141.5,436.0938 Q141.5,437.125 142.3438,437.8125 Q143.1875,438.5 144.6875,438.5 Q145.5781,438.5 146.2031,438.2969 Q146.5625,438.1875 146.9688,437.8281 Q147.2344,437.625 147.375,437.5625 Q147.5156,437.5 147.6875,437.5 Q148.0156,437.5 148.25,437.7656 Q148.5,438.0156 148.5,438.375 Q148.5,438.7188 148.1563,439.125 Q147.6563,439.7188 146.8594,440.0469 Q145.8125,440.5 144.5313,440.5 Q143.0313,440.5 141.8281,439.9063 Q140.8594,439.4375 140.1719,438.4219 Q139.5,437.4063 139.5,436.2031 L139.5,435.1094 Q139.5,433.8594 140.0938,432.7656 Q140.7031,431.6719 141.75,431.0938 Q142.8125,430.5 144,430.5 Q144.7188,430.5 145.3438,430.75 Q145.9688,431 146.5,431.5 Z "/><text fill="#000000" font-family="sans-serif" font-size="12" lengthAdjust="spacingAndGlyphs" textLength="95" x="158.5" y="439.9102">PharmacyService</text><line style="stroke: #A80036; stroke-width: 1.5;" x1="130.5" x2="255.5" y1="451" y2="451"/><line style="stroke: #A80036; stroke-width: 1.5;" x1="130.5" x2="255.5" y1="459" y2="459"/><text fill="#000000" font-family="sans-serif" font-size="11" lengthAdjust="spacingAndGlyphs" textLength="99" x="135.5" y="474.4189">+PharmacyService()</text><text fill="#000000" font-family="sans-serif" font-size="11" lengthAdjust="spacingAndGlyphs" textLength="85" x="135.5" y="488.2549">+getPharmacies()</text><!--MD5=[aa4a745fe56463fab637f55d2a7c778f]
class ScooterService--><rect fill="#FEFECE" filter="url(#fpdk2msjjchyj)" height="89.5078" id="ScooterService" style="stroke: #A80036; stroke-width: 1.5;" width="158" x="292" y="412"/><ellipse cx="326.8" cy="428" fill="#ADD1B2" rx="11" ry="11" style="stroke: #A80036; stroke-width: 1.0;"/><path d="M328.8,424.5 Q329.0031,424 329.2375,423.75 Q329.4719,423.5 329.7375,423.5 Q330.2063,423.5 330.5031,423.7813 Q330.8,424.0625 330.8,424.7188 L330.8,426.2813 Q330.8,426.9375 330.5188,427.2188 Q330.2375,427.5 329.8,427.5 Q329.4094,427.5 329.1594,427.3281 Q328.9094,427.1563 328.8,426.7031 Q328.7531,426.3906 328.5813,426.2188 Q328.2688,425.8906 327.7063,425.7031 Q327.1438,425.5 326.5813,425.5 Q325.8781,425.5 325.2844,425.7813 Q324.7063,426.0625 324.2531,426.6875 Q323.8,427.3125 323.8,428.1719 L323.8,429.0938 Q323.8,430.125 324.6438,430.8125 Q325.4875,431.5 326.9875,431.5 Q327.8781,431.5 328.5031,431.2969 Q328.8625,431.1875 329.2688,430.8281 Q329.5344,430.625 329.675,430.5625 Q329.8156,430.5 329.9875,430.5 Q330.3156,430.5 330.55,430.7656 Q330.8,431.0156 330.8,431.375 Q330.8,431.7188 330.4563,432.125 Q329.9563,432.7188 329.1594,433.0469 Q328.1125,433.5 326.8313,433.5 Q325.3313,433.5 324.1281,432.9063 Q323.1594,432.4375 322.4719,431.4219 Q321.8,430.4063 321.8,429.2031 L321.8,428.1094 Q321.8,426.8594 322.3938,425.7656 Q323.0031,424.6719 324.05,424.0938 Q325.1125,423.5 326.3,423.5 Q327.0188,423.5 327.6438,423.75 Q328.2688,424 328.8,424.5 Z "/><text fill="#000000" font-family="sans-serif" font-size="12" lengthAdjust="spacingAndGlyphs" textLength="82" x="345.2" y="432.9102">ScooterService</text><line style="stroke: #A80036; stroke-width: 1.5;" x1="293" x2="449" y1="444" y2="444"/><line style="stroke: #A80036; stroke-width: 1.5;" x1="293" x2="449" y1="452" y2="452"/><text fill="#000000" font-family="sans-serif" font-size="11" lengthAdjust="spacingAndGlyphs" textLength="89" x="298" y="467.4189">+ScooterService()</text><text fill="#000000" font-family="sans-serif" font-size="11" lengthAdjust="spacingAndGlyphs" textLength="146" x="298" y="481.2549">+getScootersList(pharmacyId)</text><text fill="#000000" font-family="sans-serif" font-size="11" lengthAdjust="spacingAndGlyphs" textLength="112" x="298" y="495.0908">+updateScooter(scoot)</text><!--MD5=[4b2d61224b33971326a22fe5d809d926]
class DataHandler--><rect fill="#FEFECE" filter="url(#fpdk2msjjchyj)" height="75.6719" id="DataHandler" style="stroke: #A80036; stroke-width: 1.5;" width="104" x="935" y="419"/><ellipse cx="950.9" cy="435" fill="#ADD1B2" rx="11" ry="11" style="stroke: #A80036; stroke-width: 1.0;"/><path d="M952.9,431.5 Q953.1031,431 953.3375,430.75 Q953.5719,430.5 953.8375,430.5 Q954.3063,430.5 954.6031,430.7813 Q954.9,431.0625 954.9,431.7188 L954.9,433.2813 Q954.9,433.9375 954.6188,434.2188 Q954.3375,434.5 953.9,434.5 Q953.5094,434.5 953.2594,434.3281 Q953.0094,434.1563 952.9,433.7031 Q952.8531,433.3906 952.6813,433.2188 Q952.3688,432.8906 951.8063,432.7031 Q951.2438,432.5 950.6813,432.5 Q949.9781,432.5 949.3844,432.7813 Q948.8063,433.0625 948.3531,433.6875 Q947.9,434.3125 947.9,435.1719 L947.9,436.0938 Q947.9,437.125 948.7438,437.8125 Q949.5875,438.5 951.0875,438.5 Q951.9781,438.5 952.6031,438.2969 Q952.9625,438.1875 953.3688,437.8281 Q953.6344,437.625 953.775,437.5625 Q953.9156,437.5 954.0875,437.5 Q954.4156,437.5 954.65,437.7656 Q954.9,438.0156 954.9,438.375 Q954.9,438.7188 954.5563,439.125 Q954.0563,439.7188 953.2594,440.0469 Q952.2125,440.5 950.9313,440.5 Q949.4313,440.5 948.2281,439.9063 Q947.2594,439.4375 946.5719,438.4219 Q945.9,437.4063 945.9,436.2031 L945.9,435.1094 Q945.9,433.8594 946.4938,432.7656 Q947.1031,431.6719 948.15,431.0938 Q949.2125,430.5 950.4,430.5 Q951.1188,430.5 951.7438,430.75 Q952.3688,431 952.9,431.5 Z "/><text fill="#000000" font-family="sans-serif" font-size="12" lengthAdjust="spacingAndGlyphs" textLength="70" x="965.1" y="439.9102">DataHandler</text><line style="stroke: #A80036; stroke-width: 1.5;" x1="936" x2="1038" y1="451" y2="451"/><line style="stroke: #A80036; stroke-width: 1.5;" x1="936" x2="1038" y1="459" y2="459"/><text fill="#000000" font-family="sans-serif" font-size="11" lengthAdjust="spacingAndGlyphs" textLength="92" x="941" y="474.4189">+openConnection()</text><text fill="#000000" font-family="sans-serif" font-size="11" lengthAdjust="spacingAndGlyphs" textLength="52" x="941" y="488.2549">+closeAll()</text><!--MD5=[b860ecc58d0ca70e482845cb1f7b4615]
class PharmacyDB--><rect fill="#FEFECE" filter="url(#fpdk2msjjchyj)" height="75.6719" id="PharmacyDB" style="stroke: #A80036; stroke-width: 1.5;" width="104" x="958" y="589"/><ellipse cx="973" cy="605" fill="#ADD1B2" rx="11" ry="11" style="stroke: #A80036; stroke-width: 1.0;"/><path d="M975,601.5 Q975.2031,601 975.4375,600.75 Q975.6719,600.5 975.9375,600.5 Q976.4063,600.5 976.7031,600.7813 Q977,601.0625 977,601.7188 L977,603.2813 Q977,603.9375 976.7188,604.2188 Q976.4375,604.5 976,604.5 Q975.6094,604.5 975.3594,604.3281 Q975.1094,604.1563 975,603.7031 Q974.9531,603.3906 974.7813,603.2188 Q974.4688,602.8906 973.9063,602.7031 Q973.3438,602.5 972.7813,602.5 Q972.0781,602.5 971.4844,602.7813 Q970.9063,603.0625 970.4531,603.6875 Q970,604.3125 970,605.1719 L970,606.0938 Q970,607.125 970.8438,607.8125 Q971.6875,608.5 973.1875,608.5 Q974.0781,608.5 974.7031,608.2969 Q975.0625,608.1875 975.4688,607.8281 Q975.7344,607.625 975.875,607.5625 Q976.0156,607.5 976.1875,607.5 Q976.5156,607.5 976.75,607.7656 Q977,608.0156 977,608.375 Q977,608.7188 976.6563,609.125 Q976.1563,609.7188 975.3594,610.0469 Q974.3125,610.5 973.0313,610.5 Q971.5313,610.5 970.3281,609.9063 Q969.3594,609.4375 968.6719,608.4219 Q968,607.4063 968,606.2031 L968,605.1094 Q968,603.8594 968.5938,602.7656 Q969.2031,601.6719 970.25,601.0938 Q971.3125,600.5 972.5,600.5 Q973.2188,600.5 973.8438,600.75 Q974.4688,601 975,601.5 Z "/><text fill="#000000" font-family="sans-serif" font-size="12" lengthAdjust="spacingAndGlyphs" textLength="72" x="987" y="609.9102">PharmacyDB</text><line style="stroke: #A80036; stroke-width: 1.5;" x1="959" x2="1061" y1="621" y2="621"/><line style="stroke: #A80036; stroke-width: 1.5;" x1="959" x2="1061" y1="629" y2="629"/><text fill="#000000" font-family="sans-serif" font-size="11" lengthAdjust="spacingAndGlyphs" textLength="76" x="964" y="644.4189">+PharmacyDB()</text><text fill="#000000" font-family="sans-serif" font-size="11" lengthAdjust="spacingAndGlyphs" textLength="85" x="964" y="658.2549">+getPharmacies()</text><!--MD5=[48d7298b3bd1f8b3e8f77915e881d788]
class ScooterDB--><rect fill="#FEFECE" filter="url(#fpdk2msjjchyj)" height="89.5078" id="ScooterDB" style="stroke: #A80036; stroke-width: 1.5;" width="162" x="761" y="582"/><ellipse cx="808.25" cy="598" fill="#ADD1B2" rx="11" ry="11" style="stroke: #A80036; stroke-width: 1.0;"/><path d="M810.25,594.5 Q810.4531,594 810.6875,593.75 Q810.9219,593.5 811.1875,593.5 Q811.6563,593.5 811.9531,593.7813 Q812.25,594.0625 812.25,594.7188 L812.25,596.2813 Q812.25,596.9375 811.9688,597.2188 Q811.6875,597.5 811.25,597.5 Q810.8594,597.5 810.6094,597.3281 Q810.3594,597.1563 810.25,596.7031 Q810.2031,596.3906 810.0313,596.2188 Q809.7188,595.8906 809.1563,595.7031 Q808.5938,595.5 808.0313,595.5 Q807.3281,595.5 806.7344,595.7813 Q806.1563,596.0625 805.7031,596.6875 Q805.25,597.3125 805.25,598.1719 L805.25,599.0938 Q805.25,600.125 806.0938,600.8125 Q806.9375,601.5 808.4375,601.5 Q809.3281,601.5 809.9531,601.2969 Q810.3125,601.1875 810.7188,600.8281 Q810.9844,600.625 811.125,600.5625 Q811.2656,600.5 811.4375,600.5 Q811.7656,600.5 812,600.7656 Q812.25,601.0156 812.25,601.375 Q812.25,601.7188 811.9063,602.125 Q811.4063,602.7188 810.6094,603.0469 Q809.5625,603.5 808.2813,603.5 Q806.7813,603.5 805.5781,602.9063 Q804.6094,602.4375 803.9219,601.4219 Q803.25,600.4063 803.25,599.2031 L803.25,598.1094 Q803.25,596.8594 803.8438,595.7656 Q804.4531,594.6719 805.5,594.0938 Q806.5625,593.5 807.75,593.5 Q808.4688,593.5 809.0938,593.75 Q809.7188,594 810.25,594.5 Z "/><text fill="#000000" font-family="sans-serif" font-size="12" lengthAdjust="spacingAndGlyphs" textLength="59" x="828.75" y="602.9102">ScooterDB</text><line style="stroke: #A80036; stroke-width: 1.5;" x1="762" x2="922" y1="614" y2="614"/><line style="stroke: #A80036; stroke-width: 1.5;" x1="762" x2="922" y1="622" y2="622"/><text fill="#000000" font-family="sans-serif" font-size="11" lengthAdjust="spacingAndGlyphs" textLength="66" x="767" y="637.4189">+ScooterDB()</text><text fill="#000000" font-family="sans-serif" font-size="11" lengthAdjust="spacingAndGlyphs" textLength="90" x="767" y="651.2549">+getScootersList()</text><text fill="#000000" font-family="sans-serif" font-size="11" lengthAdjust="spacingAndGlyphs" textLength="150" x="767" y="665.0908">+updateScooterFromDB(scoot)</text><!--MD5=[f40d64c3825bdc96a4efd5b7e3ff1420]
reverse link DataHandler to PharmacyDB--><path d="M994.824,515.152 C998.157,539.494 1001.95,567.197 1004.91,588.82 " fill="none" id="DataHandler&lt;-PharmacyDB" style="stroke: #A80036; stroke-width: 1.0;"/><polygon fill="none" points="987.882,516.049,992.104,495.285,1001.753,514.15,987.882,516.049" style="stroke: #A80036; stroke-width: 1.0;"/><!--MD5=[a2c65173c20bdf66914a8ed43c34e217]
reverse link DataHandler to ScooterDB--><path d="M961.223,513.154 C953.719,526.545 944.853,540.35 935,552 C926.073,562.556 915.449,572.655 904.627,581.814 " fill="none" id="DataHandler&lt;-ScooterDB" style="stroke: #A80036; stroke-width: 1.0;"/><polygon fill="none" points="955.064,509.825,970.575,495.389,967.452,516.347,955.064,509.825" style="stroke: #A80036; stroke-width: 1.0;"/><!--MD5=[068c19e9ee2b8d6f5118254dd44da898]
link UpdateScooterUI to UpdateScooterController--><path d="M247,108.09 C247,129.11 247,160.85 247,187.58 " fill="none" id="UpdateScooterUI-&gt;UpdateScooterController" style="stroke: #A80036; stroke-width: 1.0; stroke-dasharray: 7.0,7.0;"/><polygon fill="#A80036" points="247,192.85,251,183.85,247,187.85,243,183.85,247,192.85" style="stroke: #A80036; stroke-width: 1.0;"/><!--MD5=[8726f40d04d7fff4643080593f315b6b]
link UpdateScooterController to PharmacyService--><path d="M236.007,283.175 C226.504,321.363 212.861,376.19 203.503,413.792 " fill="none" id="UpdateScooterController-&gt;PharmacyService" style="stroke: #A80036; stroke-width: 1.0; stroke-dasharray: 7.0,7.0;"/><polygon fill="#A80036" points="202.27,418.749,208.3248,410.9811,203.4773,413.8969,200.5615,409.0495,202.27,418.749" style="stroke: #A80036; stroke-width: 1.0;"/><!--MD5=[ca01bf2db4ec991acca53a5e6a0a6b09]
link UpdateScooterController to ScooterService--><path d="M272.243,283.175 C292.861,319.256 321.966,370.191 343.238,407.417 " fill="none" id="UpdateScooterController-&gt;ScooterService" style="stroke: #A80036; stroke-width: 1.0; stroke-dasharray: 7.0,7.0;"/><polygon fill="#A80036" points="345.793,411.887,344.8021,402.0881,343.3129,407.5454,337.8556,406.0562,345.793,411.887" style="stroke: #A80036; stroke-width: 1.0;"/><!--MD5=[04ba2cb7f5803b19c0d0e740f2a895e0]
link Database to PharmacyDB--><path d="M688.096,480.747 C701.901,496.332 722.352,515.938 745,526 C777.655,540.508 790.343,525.298 825,534 C879.115,547.588 891.51,556.235 941,582 C945.072,584.12 949.215,586.406 953.347,588.782 " fill="none" id="Database-&gt;PharmacyDB" style="stroke: #A80036; stroke-width: 1.0;"/><polygon fill="#A80036" points="957.822,591.392,952.0646,583.4012,953.5035,588.872,948.0327,590.3109,957.822,591.392" style="stroke: #A80036; stroke-width: 1.0;"/><text fill="#000000" font-family="sans-serif" font-size="13" lengthAdjust="spacingAndGlyphs" textLength="53" x="881" y="548.4951">manages</text><text fill="#000000" font-family="sans-serif" font-size="13" lengthAdjust="spacingAndGlyphs" textLength="7" x="684.4713" y="501.6694">1</text><text fill="#000000" font-family="sans-serif" font-size="13" lengthAdjust="spacingAndGlyphs" textLength="7" x="942.9923" y="582.8025">1</text><!--MD5=[70f68ce34a156c56edce71dba5c758e9]
link Database to ScooterDB--><path d="M693.197,480.657 C718.574,505.444 759.993,545.9 792.697,577.843 " fill="none" id="Database-&gt;ScooterDB" style="stroke: #A80036; stroke-width: 1.0;"/><polygon fill="#A80036" points="796.64,581.695,792.997,572.5447,793.0633,578.2011,787.4068,578.2675,796.64,581.695" style="stroke: #A80036; stroke-width: 1.0;"/><text fill="#000000" font-family="sans-serif" font-size="13" lengthAdjust="spacingAndGlyphs" textLength="53" x="763" y="548.4951">manages</text><text fill="#000000" font-family="sans-serif" font-size="13" lengthAdjust="spacingAndGlyphs" textLength="7" x="699.3707" y="501.5586">1</text><text fill="#000000" font-family="sans-serif" font-size="13" lengthAdjust="spacingAndGlyphs" textLength="7" x="782.1583" y="571.0924">1</text><!--MD5=[ee7ed70a83e67b7f86b44988d609d45d]
link ScooterService to PharmacyDB--><path d="M382.773,502.145 C390.072,520.698 401.504,540.586 419,552 C516.314,615.485 830.437,546.274 941,582 C945.081,583.319 949.159,584.938 953.178,586.769 " fill="none" id="ScooterService-&gt;PharmacyDB" style="stroke: #A80036; stroke-width: 1.0;"/><polygon fill="#A80036" points="957.866,589.011,951.4719,581.5199,953.3551,586.8541,948.0209,588.7373,957.866,589.011" style="stroke: #A80036; stroke-width: 1.0;"/><text fill="#000000" font-family="sans-serif" font-size="13" lengthAdjust="spacingAndGlyphs" textLength="28" x="420" y="548.4951">uses</text><text fill="#000000" font-family="sans-serif" font-size="13" lengthAdjust="spacingAndGlyphs" textLength="7" x="376.8847" y="522.8382">1</text><text fill="#000000" font-family="sans-serif" font-size="13" lengthAdjust="spacingAndGlyphs" textLength="5" x="948.7147" y="578.0896">*</text><!--MD5=[799b1f05f2692ceb79e345e4105e6b42]
link PharmacyService to ScooterDB--><path d="M228.703,495.347 C241.85,506.975 257.571,518.661 274,526 C296.955,536.255 306.14,526.076 330,534 C345.855,539.265 346.991,547.222 363,552 C521.519,599.307 573.073,543.678 734,582 C741.201,583.715 748.548,585.837 755.853,588.216 " fill="none" id="PharmacyService-&gt;ScooterDB" style="stroke: #A80036; stroke-width: 1.0;"/><polygon fill="#A80036" points="760.901,589.902,753.632,583.2566,756.1586,588.3179,751.0973,590.8445,760.901,589.902" style="stroke: #A80036; stroke-width: 1.0;"/><text fill="#000000" font-family="sans-serif" font-size="13" lengthAdjust="spacingAndGlyphs" textLength="28" x="364" y="548.4951">uses</text><text fill="#000000" font-family="sans-serif" font-size="13" lengthAdjust="spacingAndGlyphs" textLength="7" x="226.8354" y="516.2828">1</text><text fill="#000000" font-family="sans-serif" font-size="13" lengthAdjust="spacingAndGlyphs" textLength="5" x="747.933" y="583.1389">*</text><!--MD5=[2ed2b43e7f6d114538396b0b10b28567]
link PharmacyService to Pharmacy--><path d="M150.766,495.074 C128.34,517.654 102.9924,548.543 91,582 C73.9038,629.695 60.1083,655.84 91,696 C150.156,772.904 212.269,715.094 302,752 C312.691,756.397 323.683,761.858 334.12,767.549 " fill="none" id="PharmacyService-&gt;Pharmacy" style="stroke: #A80036; stroke-width: 1.0;"/><polygon fill="#A80036" points="338.557,770,332.6121,762.1477,334.18,767.583,328.7448,769.1509,338.557,770" style="stroke: #A80036; stroke-width: 1.0;"/><text fill="#000000" font-family="sans-serif" font-size="13" lengthAdjust="spacingAndGlyphs" textLength="111" x="92" y="632.4951">manage services of</text><text fill="#000000" font-family="sans-serif" font-size="13" lengthAdjust="spacingAndGlyphs" textLength="7" x="136.1913" y="516.2564">1</text><text fill="#000000" font-family="sans-serif" font-size="13" lengthAdjust="spacingAndGlyphs" textLength="5" x="325.9713" y="761.7185">*</text><!--MD5=[a4fc43f4c54bc2b04150642bdfef7d93]
link ScooterService to Scooter--><path d="M317.727,502.124 C304.176,511.381 289.142,520.111 274,526 C261.258,530.955 222.017,523.723 213,534 C207.724,540.013 208.566,545.341 213,552 C222.2,565.819 234.528,577.061 248.416,586.208 " fill="none" id="ScooterService-&gt;Scooter" style="stroke: #A80036; stroke-width: 1.0;"/><polygon fill="#A80036" points="252.775,588.979,247.3272,580.774,248.5559,586.2958,243.0341,587.5245,252.775,588.979" style="stroke: #A80036; stroke-width: 1.0;"/><text fill="#000000" font-family="sans-serif" font-size="13" lengthAdjust="spacingAndGlyphs" textLength="111" x="214" y="548.4951">manage services of</text><text fill="#000000" font-family="sans-serif" font-size="13" lengthAdjust="spacingAndGlyphs" textLength="7" x="302.7433" y="523.149">1</text><text fill="#000000" font-family="sans-serif" font-size="13" lengthAdjust="spacingAndGlyphs" textLength="5" x="222.0132" y="578.0517">*</text><!--MD5=[51d7b9a785c9fb041ca400474ed1d998]
link Database to Pharmacy--><path d="M666.255,480.592 C657.687,526.161 632.841,630.332 576,696 C539.714,737.921 482.658,767.121 441.302,784.207 " fill="none" id="Database-Pharmacy" style="stroke: #A80036; stroke-width: 1.0;"/><text fill="#000000" font-family="sans-serif" font-size="13" lengthAdjust="spacingAndGlyphs" textLength="82" x="640" y="632.4951">has registered</text><polygon fill="#000000" points="676.5,641.3516,679.5,647.3516,682.5,641.3516,676.5,641.3516" style="stroke: #000000; stroke-width: 1.0;"/><text fill="#000000" font-family="sans-serif" font-size="13" lengthAdjust="spacingAndGlyphs" textLength="7" x="657.5796" y="501.4786">1</text><text fill="#000000" font-family="sans-serif" font-size="13" lengthAdjust="spacingAndGlyphs" textLength="5" x="448.8679" y="777.9234">*</text><!--MD5=[f4a94ba2ad2673d4959409a96e63c979]
link Database to Scooter--><path d="M629.203,473.738 C595.162,487.604 545.941,509.389 506,534 C479.959,550.046 453.063,571.054 431.733,588.943 " fill="none" id="Database-Scooter" style="stroke: #A80036; stroke-width: 1.0;"/><polygon fill="#000000" points="514,541.6758,508,544.6758,514,547.6758,514,541.6758" style="stroke: #000000; stroke-width: 1.0;"/><text fill="#000000" font-family="sans-serif" font-size="13" lengthAdjust="spacingAndGlyphs" textLength="82" x="520" y="548.4951">has registered</text><text fill="#000000" font-family="sans-serif" font-size="13" lengthAdjust="spacingAndGlyphs" textLength="7" x="614.5895" y="472.7987">1</text><text fill="#000000" font-family="sans-serif" font-size="13" lengthAdjust="spacingAndGlyphs" textLength="5" x="433.9666" y="578.009">*</text><!--MD5=[074a56c4439d52c76e1cc7a8f9d070a4]
link Vehicle to Battery--><path d="M230.927,855.227 C227.907,885.432 224.087,923.632 221.067,953.827 " fill="none" id="Vehicle-Battery" style="stroke: #A80036; stroke-width: 1.0;"/><text fill="#000000" font-family="sans-serif" font-size="13" lengthAdjust="spacingAndGlyphs" textLength="21" x="229" y="899.4951">has</text><polygon fill="#000000" points="235,908.3516,238,914.3516,241,908.3516,235,908.3516" style="stroke: #000000; stroke-width: 1.0;"/><text fill="#000000" font-family="sans-serif" font-size="13" lengthAdjust="spacingAndGlyphs" textLength="7" x="222.775" y="876.7485">1</text><text fill="#000000" font-family="sans-serif" font-size="13" lengthAdjust="spacingAndGlyphs" textLength="7" x="214.2776" y="943.3041">1</text><!--MD5=[52f80c2c106e4280525a8160ec8cd0fa]
link Scooter to Vehicle--><path d="M342.797,665.383 C329.277,677.086 314.97,690.49 303,704 C290.039,718.628 277.517,735.879 266.876,751.822 " fill="none" id="Scooter-Vehicle" style="stroke: #A80036; stroke-width: 1.0;"/><text fill="#000000" font-family="sans-serif" font-size="13" lengthAdjust="spacingAndGlyphs" textLength="64" x="304" y="718.4951">is a type of</text><polygon fill="#000000" points="331.5,727.3516,334.5,733.3516,337.5,727.3516,331.5,727.3516" style="stroke: #000000; stroke-width: 1.0;"/><text fill="#000000" font-family="sans-serif" font-size="13" lengthAdjust="spacingAndGlyphs" textLength="5" x="330.1862" y="686.0326">*</text><text fill="#000000" font-family="sans-serif" font-size="13" lengthAdjust="spacingAndGlyphs" textLength="7" x="263.5547" y="741.2984">1</text><!--MD5=[6f1b2737b94c689eac8b0af6a5ef1443]
link Scooter to Pharmacy--><path d="M390,665.007 C390,692.319 390,729.596 390,758.445 " fill="none" id="Scooter-Pharmacy" style="stroke: #A80036; stroke-width: 1.0;"/><text fill="#000000" font-family="sans-serif" font-size="13" lengthAdjust="spacingAndGlyphs" textLength="60" x="391" y="718.4951">belongs to</text><polygon fill="#000000" points="416.5,727.3516,419.5,733.3516,422.5,727.3516,416.5,727.3516" style="stroke: #000000; stroke-width: 1.0;"/><text fill="#000000" font-family="sans-serif" font-size="13" lengthAdjust="spacingAndGlyphs" textLength="5" x="384.5859" y="686.1783">*</text><text fill="#000000" font-family="sans-serif" font-size="13" lengthAdjust="spacingAndGlyphs" textLength="7" x="382.4422" y="747.5517">1</text><!--MD5=[89baec1bfb4a213750f7c61516e0a0f1]
link Pharmacy to Address--><path d="M415.744,848.886 C430.028,873.514 448.139,904.74 464.382,932.746 " fill="none" id="Pharmacy-Address" style="stroke: #A80036; stroke-width: 1.0;"/><text fill="#000000" font-family="sans-serif" font-size="13" lengthAdjust="spacingAndGlyphs" textLength="21" x="446" y="899.4951">has</text><polygon fill="#000000" points="452,908.3516,455,914.3516,458,908.3516,452,908.3516" style="stroke: #000000; stroke-width: 1.0;"/><text fill="#000000" font-family="sans-serif" font-size="13" lengthAdjust="spacingAndGlyphs" textLength="7" x="411.733" y="869.6116">1</text><text fill="#000000" font-family="sans-serif" font-size="13" lengthAdjust="spacingAndGlyphs" textLength="7" x="452.7292" y="921.9391">1</text><!--MD5=[e7daa03d92f0a94af078cf78578db78d]
link Pharmacy to ScooterPark--><path d="M383.786,848.886 C378.437,887.093 370.865,941.182 366.201,974.49 " fill="none" id="Pharmacy-ScooterPark" style="stroke: #A80036; stroke-width: 1.0;"/><text fill="#000000" font-family="sans-serif" font-size="13" lengthAdjust="spacingAndGlyphs" textLength="21" x="380" y="899.4951">has</text><polygon fill="#000000" points="386,908.3516,389,914.3516,392,908.3516,386,908.3516" style="stroke: #000000; stroke-width: 1.0;"/><text fill="#000000" font-family="sans-serif" font-size="13" lengthAdjust="spacingAndGlyphs" textLength="7" x="375.4807" y="869.6116">1</text><text fill="#000000" font-family="sans-serif" font-size="13" lengthAdjust="spacingAndGlyphs" textLength="7" x="359.3543" y="963.5081">1</text><!--MD5=[6c03f80bb0eb412de4ede466470bd7f4]
link ScooterPark to ScooterChargingSlot--><path d="M347.665,1036.88 C332.324,1069.393 307.976,1120.993 291.511,1155.888 " fill="none" id="ScooterPark-ScooterChargingSlot" style="stroke: #A80036; stroke-width: 1.0;"/><text fill="#000000" font-family="sans-serif" font-size="13" lengthAdjust="spacingAndGlyphs" textLength="21" x="314" y="1122.4951">has</text><polygon fill="#000000" points="320,1131.3516,323,1137.3516,326,1131.3516,320,1131.3516" style="stroke: #000000; stroke-width: 1.0;"/><text fill="#000000" font-family="sans-serif" font-size="13" lengthAdjust="spacingAndGlyphs" textLength="7" x="337.2652" y="1057.9311">1</text><text fill="#000000" font-family="sans-serif" font-size="13" lengthAdjust="spacingAndGlyphs" textLength="7" x="287.0067" y="1145.23">1</text><!--MD5=[8b5c72ddee54db66c8e770f45750c925]
link ScooterPark to ScooterParkingSlot--><path d="M376.497,1036.88 C393.097,1071.664 420.122,1128.294 436.656,1162.943 " fill="none" id="ScooterPark-ScooterParkingSlot" style="stroke: #A80036; stroke-width: 1.0;"/><text fill="#000000" font-family="sans-serif" font-size="13" lengthAdjust="spacingAndGlyphs" textLength="21" x="419" y="1122.4951">has</text><polygon fill="#000000" points="425,1131.3516,428,1137.3516,431,1131.3516,425,1131.3516" style="stroke: #000000; stroke-width: 1.0;"/><text fill="#000000" font-family="sans-serif" font-size="13" lengthAdjust="spacingAndGlyphs" textLength="7" x="371.5933" y="1057.9311">1</text><text fill="#000000" font-family="sans-serif" font-size="13" lengthAdjust="spacingAndGlyphs" textLength="7" x="425.7526" y="1151.9508">1</text><!--MD5=[3ae08138ac1a1497d05f84cfcecfb88b]
@startuml
skinparam classAttributeIconSize 0

database Database {
}

package "UI" #DDDDDD {
class UpdateScooterUI{
}
}

package "Controller" #DDDDDD {
class UpdateScooterController{
+showPharmacies()
+showScootersList(pharmacyId)
+updateScooter(scoot)
}
}


package "Model" #DDDDDD {
 package "Service" #DDDDDD {
  class PharmacyService{
      +PharmacyService()
      +getPharmacies()
  }

  class ScooterService{
      +ScooterService()
      +getScootersList(pharmacyId)
      +updateScooter(scoot)
   }
}

package "Model" #DDDDDD {
class ScooterPark{
-   int maxSlotsNumber
}

class ScooterChargingSlot{
-   int id
-   float outputPower
}

class ScooterParkingSlot{
-   int id
}

class Scooter{
+Scooter(batteryPerc, charginStatus, potency,\n weight, batteryCapacity, maxPayload, batteryVoltage, pharmacyId)

}

class Vehicle{
  -int id
  -float potency
  -float weight
  -float maxPayload
}

class Battery{
  -int id
  -float batteryPerc
  -int batteryCapacity
  -float batteryVoltage
}

class Address{
  -double longitude
  -double latitude
  -String doorNumber
  -String streetName
  -String postalCode
  -String locality
  -String country
}

class Pharmacy {
  -int id
  -String name
  +getScootersList()
}
}


package "Data" #DDDDDD {
class DataHandler{
    +openConnection()
    +closeAll()
}
class PharmacyDB{
     +PharmacyDB()
     +getPharmacies()
 }

 class ScooterDB{
     +ScooterDB()
     +getScootersList()
     +updateScooterFromDB(scoot)
  }
}

class PharmacyDB extends DataHandler
class ScooterDB extends DataHandler

UpdateScooterUI ..> UpdateScooterController
UpdateScooterController ..> PharmacyService
UpdateScooterController ..> ScooterService
Database "1" - -> "1" PharmacyDB : manages
Database "1" - -> "1" ScooterDB : manages
ScooterService "1" - -> "*" PharmacyDB : uses
PharmacyService "1" - -> "*" ScooterDB : uses
PharmacyService "1" - -> "*" Pharmacy : manage services of
ScooterService "1" - -> "*" Scooter : manage services of

Database "1" - - "*" Pharmacy : has registered >
Database "1" - - "*" Scooter : has registered >

Vehicle "1" - - "1" Battery : has >
Scooter "*" - - "1" Vehicle : is a type of >
Scooter "*" - - "1" Pharmacy : belongs to >
Pharmacy "1" - - "1" Address : has >
Pharmacy "1" - - "1" ScooterPark : has >
ScooterPark "1" - - "1" ScooterChargingSlot : has >
ScooterPark "1" - - "1" ScooterParkingSlot : has >

@enduml

PlantUML version 1.2020.09(Sun May 10 11:51:06 BST 2020)
(GPL source distribution)
Java Runtime: OpenJDK Runtime Environment
JVM: OpenJDK 64-Bit Server VM
Java Version: 11.0.6+8-b765.40
Operating System: Windows 10
Default Encoding: Cp1252
Language: pt
Country: PT
--></g></svg>