<?xml version="1.0" encoding="UTF-8" standalone="no"?><svg xmlns="http://www.w3.org/2000/svg" xmlns:xlink="http://www.w3.org/1999/xlink" contentScriptType="application/ecmascript" contentStyleType="text/css" height="189.6px" preserveAspectRatio="none" style="width:451px;height:189px;" version="1.1" viewBox="0 0 451 189" width="451.2px" zoomAndPan="magnify"><defs><filter height="300%" id="f1qcgh3ucbzmq9" width="300%" x="-1" y="-1"><feGaussianBlur result="blurOut" stdDeviation="1.6"/><feColorMatrix in="blurOut" result="blurOut2" type="matrix" values="0 0 0 0 0 0 0 0 0 0 0 0 0 0 0 0 0 0 .4 0"/><feOffset dx="3.2" dy="3.2" in="blurOut2" result="blurOut3"/><feBlend in="SourceGraphic" in2="blurOut3" mode="normal"/></filter></defs><g><!--MD5=[fa1e3283224feb76407c84b7e90ed808]
entity Database--><path d="M18,14.4 C18,6.4 50.4,6.4 50.4,6.4 C50.4,6.4 82.8,6.4 82.8,14.4 L82.8,35.6875 C82.8,43.6875 50.4,43.6875 50.4,43.6875 C50.4,43.6875 18,43.6875 18,35.6875 L18,14.4 " fill="#FFFFFF" filter="url(#f1qcgh3ucbzmq9)" style="stroke: #000000; stroke-width: 1.2000000000000002;"/><path d="M18,14.4 C18,22.4 50.4,22.4 50.4,22.4 C50.4,22.4 82.8,22.4 82.8,14.4 " fill="none" style="stroke: #000000; stroke-width: 1.2000000000000002;"/><text fill="#000000" font-family="sans-serif" font-size="11.2" lengthAdjust="spacingAndGlyphs" textLength="48.8" x="26" y="37.2266">Database</text><!--MD5=[7f2a9fafcebe4f099f71398fd3e2ed00]
class Pharmacy--><rect fill="#FEFECE" filter="url(#f1qcgh3ucbzmq9)" height="76.275" id="Pharmacy" style="stroke: #A80036; stroke-width: 1.2000000000000002;" width="76.8" x="204" y="38.4"/><ellipse cx="219.24" cy="51.2" fill="#ADD1B2" rx="8.8" ry="8.8" style="stroke: #A80036; stroke-width: 0.8;"/><path d="M220.84,48.4 Q221.0025,48 221.19,47.8 Q221.3775,47.6 221.59,47.6 Q221.965,47.6 222.2025,47.825 Q222.44,48.05 222.44,48.575 L222.44,49.825 Q222.44,50.35 222.215,50.575 Q221.99,50.8 221.64,50.8 Q221.3275,50.8 221.1275,50.6625 Q220.9275,50.525 220.84,50.1625 Q220.8025,49.9125 220.665,49.775 Q220.415,49.5125 219.965,49.3625 Q219.515,49.2 219.065,49.2 Q218.5025,49.2 218.0275,49.425 Q217.565,49.65 217.2025,50.15 Q216.84,50.65 216.84,51.3375 L216.84,52.075 Q216.84,52.9 217.515,53.45 Q218.19,54 219.39,54 Q220.1025,54 220.6025,53.8375 Q220.89,53.75 221.215,53.4625 Q221.4275,53.3 221.54,53.25 Q221.6525,53.2 221.79,53.2 Q222.0525,53.2 222.24,53.4125 Q222.44,53.6125 222.44,53.9 Q222.44,54.175 222.165,54.5 Q221.765,54.975 221.1275,55.2375 Q220.29,55.6 219.265,55.6 Q218.065,55.6 217.1025,55.125 Q216.3275,54.75 215.7775,53.9375 Q215.24,53.125 215.24,52.1625 L215.24,51.2875 Q215.24,50.2875 215.715,49.4125 Q216.2025,48.5375 217.04,48.075 Q217.89,47.6 218.84,47.6 Q219.415,47.6 219.915,47.8 Q220.415,48 220.84,48.4 Z "/><text fill="#000000" font-family="sans-serif" font-size="9.6" lengthAdjust="spacingAndGlyphs" textLength="44" x="231.16" y="55.1281">Pharmacy</text><line style="stroke: #A80036; stroke-width: 1.2000000000000002;" x1="204.8" x2="280" y1="64" y2="64"/><text fill="#000000" font-family="sans-serif" font-size="8.8" lengthAdjust="spacingAndGlyphs" textLength="20.8" x="208.8" y="76.3352">-int id</text><text fill="#000000" font-family="sans-serif" font-size="8.8" lengthAdjust="spacingAndGlyphs" textLength="48.8" x="208.8" y="87.4039">-String name</text><text fill="#000000" font-family="sans-serif" font-size="8.8" lengthAdjust="spacingAndGlyphs" textLength="61.6" x="208.8" y="98.4727">-int parkingSlots</text><text fill="#000000" font-family="sans-serif" font-size="8.8" lengthAdjust="spacingAndGlyphs" textLength="67.2" x="208.8" y="109.5414">-int chargingSlots</text><!--MD5=[f4402668d5d5bb8485350c0fdb60ac8e]
class Scooter--><rect fill="#FEFECE" filter="url(#f1qcgh3ucbzmq9)" height="109.4813" id="Scooter" style="stroke: #A80036; stroke-width: 1.2000000000000002;" width="91.2" x="4.8" y="72"/><ellipse cx="31.2" cy="84.8" fill="#ADD1B2" rx="8.8" ry="8.8" style="stroke: #A80036; stroke-width: 0.8;"/><path d="M32.8,82 Q32.9625,81.6 33.15,81.4 Q33.3375,81.2 33.55,81.2 Q33.925,81.2 34.1625,81.425 Q34.4,81.65 34.4,82.175 L34.4,83.425 Q34.4,83.95 34.175,84.175 Q33.95,84.4 33.6,84.4 Q33.2875,84.4 33.0875,84.2625 Q32.8875,84.125 32.8,83.7625 Q32.7625,83.5125 32.625,83.375 Q32.375,83.1125 31.925,82.9625 Q31.475,82.8 31.025,82.8 Q30.4625,82.8 29.9875,83.025 Q29.525,83.25 29.1625,83.75 Q28.8,84.25 28.8,84.9375 L28.8,85.675 Q28.8,86.5 29.475,87.05 Q30.15,87.6 31.35,87.6 Q32.0625,87.6 32.5625,87.4375 Q32.85,87.35 33.175,87.0625 Q33.3875,86.9 33.5,86.85 Q33.6125,86.8 33.75,86.8 Q34.0125,86.8 34.2,87.0125 Q34.4,87.2125 34.4,87.5 Q34.4,87.775 34.125,88.1 Q33.725,88.575 33.0875,88.8375 Q32.25,89.2 31.225,89.2 Q30.025,89.2 29.0625,88.725 Q28.2875,88.35 27.7375,87.5375 Q27.2,86.725 27.2,85.7625 L27.2,84.8875 Q27.2,83.8875 27.675,83.0125 Q28.1625,82.1375 29,81.675 Q29.85,81.2 30.8,81.2 Q31.375,81.2 31.875,81.4 Q32.375,81.6 32.8,82 Z "/><text fill="#000000" font-family="sans-serif" font-size="9.6" lengthAdjust="spacingAndGlyphs" textLength="33.6" x="45.6" y="88.7281">Scooter</text><line style="stroke: #A80036; stroke-width: 1.2000000000000002;" x1="5.6" x2="95.2" y1="97.6" y2="97.6"/><text fill="#000000" font-family="sans-serif" font-size="8.8" lengthAdjust="spacingAndGlyphs" textLength="20.8" x="9.6" y="109.9352">-int id</text><text fill="#000000" font-family="sans-serif" font-size="8.8" lengthAdjust="spacingAndGlyphs" textLength="67.2" x="9.6" y="121.0039">-float batteryPerc</text><text fill="#000000" font-family="sans-serif" font-size="8.8" lengthAdjust="spacingAndGlyphs" textLength="81.6" x="9.6" y="132.0727">-String charginStatus</text><text fill="#000000" font-family="sans-serif" font-size="8.8" lengthAdjust="spacingAndGlyphs" textLength="53.6" x="9.6" y="143.1414">-float potency</text><text fill="#000000" font-family="sans-serif" font-size="8.8" lengthAdjust="spacingAndGlyphs" textLength="48.8" x="9.6" y="154.2102">-float weight</text><text fill="#000000" font-family="sans-serif" font-size="8.8" lengthAdjust="spacingAndGlyphs" textLength="75.2" x="9.6" y="165.2789">-int batteryCapacity</text><text fill="#000000" font-family="sans-serif" font-size="8.8" lengthAdjust="spacingAndGlyphs" textLength="68.8" x="9.6" y="176.3477">-float maxPayload</text><!--MD5=[0f39e4cb6f03951afbf6d14bd2505654]
class Address--><rect fill="#FEFECE" filter="url(#f1qcgh3ucbzmq9)" height="109.4813" id="Address" style="stroke: #A80036; stroke-width: 1.2000000000000002;" width="84.8" x="357.6" y="21.6"/><ellipse cx="379.68" cy="34.4" fill="#ADD1B2" rx="8.8" ry="8.8" style="stroke: #A80036; stroke-width: 0.8;"/><path d="M381.28,31.6 Q381.4425,31.2 381.63,31 Q381.8175,30.8 382.03,30.8 Q382.405,30.8 382.6425,31.025 Q382.88,31.25 382.88,31.775 L382.88,33.025 Q382.88,33.55 382.655,33.775 Q382.43,34 382.08,34 Q381.7675,34 381.5675,33.8625 Q381.3675,33.725 381.28,33.3625 Q381.2425,33.1125 381.105,32.975 Q380.855,32.7125 380.405,32.5625 Q379.955,32.4 379.505,32.4 Q378.9425,32.4 378.4675,32.625 Q378.005,32.85 377.6425,33.35 Q377.28,33.85 377.28,34.5375 L377.28,35.275 Q377.28,36.1 377.955,36.65 Q378.63,37.2 379.83,37.2 Q380.5425,37.2 381.0425,37.0375 Q381.33,36.95 381.655,36.6625 Q381.8675,36.5 381.98,36.45 Q382.0925,36.4 382.23,36.4 Q382.4925,36.4 382.68,36.6125 Q382.88,36.8125 382.88,37.1 Q382.88,37.375 382.605,37.7 Q382.205,38.175 381.5675,38.4375 Q380.73,38.8 379.705,38.8 Q378.505,38.8 377.5425,38.325 Q376.7675,37.95 376.2175,37.1375 Q375.68,36.325 375.68,35.3625 L375.68,34.4875 Q375.68,33.4875 376.155,32.6125 Q376.6425,31.7375 377.48,31.275 Q378.33,30.8 379.28,30.8 Q379.855,30.8 380.355,31 Q380.855,31.2 381.28,31.6 Z "/><text fill="#000000" font-family="sans-serif" font-size="9.6" lengthAdjust="spacingAndGlyphs" textLength="36.8" x="393.12" y="38.3281">Address</text><line style="stroke: #A80036; stroke-width: 1.2000000000000002;" x1="358.4" x2="441.6" y1="47.2" y2="47.2"/><text fill="#000000" font-family="sans-serif" font-size="8.8" lengthAdjust="spacingAndGlyphs" textLength="56.8" x="362.4" y="59.5352">-float longitude</text><text fill="#000000" font-family="sans-serif" font-size="8.8" lengthAdjust="spacingAndGlyphs" textLength="49.6" x="362.4" y="70.6039">-float latitude</text><text fill="#000000" font-family="sans-serif" font-size="8.8" lengthAdjust="spacingAndGlyphs" textLength="75.2" x="362.4" y="81.6727">-String doorNumber</text><text fill="#000000" font-family="sans-serif" font-size="8.8" lengthAdjust="spacingAndGlyphs" textLength="72" x="362.4" y="92.7414">-String streetName</text><text fill="#000000" font-family="sans-serif" font-size="8.8" lengthAdjust="spacingAndGlyphs" textLength="71.2" x="362.4" y="103.8102">-String postalCode</text><text fill="#000000" font-family="sans-serif" font-size="8.8" lengthAdjust="spacingAndGlyphs" textLength="54.4" x="362.4" y="114.8789">-String locality</text><text fill="#000000" font-family="sans-serif" font-size="8.8" lengthAdjust="spacingAndGlyphs" textLength="57.6" x="362.4" y="125.9477">-String country</text><!--MD5=[51d7b9a785c9fb041ca400474ed1d998]
link Database to Pharmacy--><path d="M82.8544,33.712 C116.164,42.6696 168.5744,56.7632 203.9744,66.2824 " fill="none" id="Database-Pharmacy" style="stroke: #A80036; stroke-width: 0.8;"/><text fill="#000000" font-family="sans-serif" font-size="10.4" lengthAdjust="spacingAndGlyphs" textLength="16.8" x="136.4" y="42.3961">has</text><polygon fill="#000000" points="155.6,36.9406,160.4,39.3406,155.6,41.7406,155.6,36.9406" style="stroke: #000000; stroke-width: 0.8;"/><text fill="#000000" font-family="sans-serif" font-size="10.4" lengthAdjust="spacingAndGlyphs" textLength="5.6" x="89.1341" y="47.2172">1</text><text fill="#000000" font-family="sans-serif" font-size="10.4" lengthAdjust="spacingAndGlyphs" textLength="4" x="193.5316" y="76.4865">*</text><!--MD5=[6f1b2737b94c689eac8b0af6a5ef1443]
link Scooter to Pharmacy--><path d="M96.0808,114.9198 C128.844,106.2472 172.7648,94.6208 203.756,86.4176 " fill="none" id="Scooter-Pharmacy" style="stroke: #A80036; stroke-width: 0.8;"/><text fill="#000000" font-family="sans-serif" font-size="10.4" lengthAdjust="spacingAndGlyphs" textLength="48" x="120.8" y="91.9961">belongs to</text><polygon fill="#000000" points="171.2,86.5406,176,88.9406,171.2,91.3406,171.2,86.5406" style="stroke: #000000; stroke-width: 0.8;"/><text fill="#000000" font-family="sans-serif" font-size="10.4" lengthAdjust="spacingAndGlyphs" textLength="4" x="102.4879" y="125.0063">*</text><text fill="#000000" font-family="sans-serif" font-size="10.4" lengthAdjust="spacingAndGlyphs" textLength="5.6" x="192.0689" y="99.6255">1</text><!--MD5=[89baec1bfb4a213750f7c61516e0a0f1]
link Pharmacy to Address--><path d="M280.9632,76.4 C304.0472,76.4 333.6064,76.4 357.3952,76.4 " fill="none" id="Pharmacy-Address" style="stroke: #A80036; stroke-width: 0.8;"/><text fill="#000000" font-family="sans-serif" font-size="10.4" lengthAdjust="spacingAndGlyphs" textLength="16.8" x="305.6" y="73.5961">has</text><polygon fill="#000000" points="324.8,68.1406,329.6,70.5406,324.8,72.9406,324.8,68.1406" style="stroke: #000000; stroke-width: 0.8;"/><text fill="#000000" font-family="sans-serif" font-size="10.4" lengthAdjust="spacingAndGlyphs" textLength="5.6" x="287.2969" y="88.1766">1</text><text fill="#000000" font-family="sans-serif" font-size="10.4" lengthAdjust="spacingAndGlyphs" textLength="5.6" x="345.6939" y="88.083">1</text><!--MD5=[724d2f43cbab98d10ffec59a441759d1]
@startuml
skinparam classAttributeIconSize 0
hide methods
left to right direction

database Database {
}

class Pharmacy {
  -int id
  -String name
  -int parkingSlots
  -int chargingSlots
}

class Scooter{
  -int id
  -float batteryPerc
  -String charginStatus
  -float potency
  -float weight
  -int batteryCapacity
  -float maxPayload
}

class Address{
  -float longitude
  -float latitude
  -String doorNumber
  -String streetName
  -String postalCode
  -String locality
  -String country
}



Database "1" - - "*" Pharmacy : has >
Scooter "*" - - "1" Pharmacy : belongs to >
Pharmacy "1" - - "1" Address : has >
@enduml

PlantUML version 1.2020.09(Sun May 10 11:51:06 BST 2020)
(GPL source distribution)
Java Runtime: OpenJDK Runtime Environment
JVM: OpenJDK 64-Bit Server VM
Java Version: 11.0.6+8-b765.40
Operating System: Windows 10
Default Encoding: Cp1252
Language: pt
Country: PT
--></g></svg>