<?xml version="1.0" encoding="UTF-8" standalone="no"?><svg xmlns="http://www.w3.org/2000/svg" xmlns:xlink="http://www.w3.org/1999/xlink" contentScriptType="application/ecmascript" contentStyleType="text/css" height="255px" preserveAspectRatio="none" style="width:413px;height:255px;" version="1.1" viewBox="0 0 413 255" width="413px" zoomAndPan="magnify"><defs><filter height="300%" id="f1qenzfkl0yj2w" width="300%" x="-1" y="-1"><feGaussianBlur result="blurOut" stdDeviation="2.0"/><feColorMatrix in="blurOut" result="blurOut2" type="matrix" values="0 0 0 0 0 0 0 0 0 0 0 0 0 0 0 0 0 0 .4 0"/><feOffset dx="4.0" dy="4.0" in="blurOut2" result="blurOut3"/><feBlend in="SourceGraphic" in2="blurOut3" mode="normal"/></filter></defs><g><rect fill="#FFFFFF" filter="url(#f1qenzfkl0yj2w)" height="52.7031" style="stroke:#A80036;stroke-width:1.0;" width="10" x="22.5" y="99.6094"/><rect fill="#FFFFFF" filter="url(#f1qenzfkl0yj2w)" height="30.3516" style="stroke:#A80036;stroke-width:1.0;" width="10" x="364.5" y="121.9609"/><line style="stroke:#A80036;stroke-width:1.0;stroke-dasharray:5.0,5.0;" x1="27" x2="27" y1="89.6094" y2="170.3125"/><line style="stroke:#A80036;stroke-width:1.0;stroke-dasharray:5.0,5.0;" x1="369.5" x2="369.5" y1="89.6094" y2="170.3125"/><text fill="#000000" font-family="sans-serif" font-size="14" lengthAdjust="spacing" textLength="39" x="5" y="86.5332">Admin</text><ellipse cx="27.5" cy="15" fill="#FEFECE" filter="url(#f1qenzfkl0yj2w)" rx="8" ry="8" style="stroke:#A80036;stroke-width:2.0;"/><path d="M27.5,23 L27.5,50 M14.5,31 L40.5,31 M27.5,50 L14.5,65 M27.5,50 L40.5,65 " fill="none" filter="url(#f1qenzfkl0yj2w)" style="stroke:#A80036;stroke-width:2.0;"/><text fill="#000000" font-family="sans-serif" font-size="14" lengthAdjust="spacing" textLength="39" x="5" y="183.8457">Admin</text><ellipse cx="27.5" cy="196.9219" fill="#FEFECE" filter="url(#f1qenzfkl0yj2w)" rx="8" ry="8" style="stroke:#A80036;stroke-width:2.0;"/><path d="M27.5,204.9219 L27.5,231.9219 M14.5,212.9219 L40.5,212.9219 M27.5,231.9219 L14.5,246.9219 M27.5,231.9219 L40.5,246.9219 " fill="none" filter="url(#f1qenzfkl0yj2w)" style="stroke:#A80036;stroke-width:2.0;"/><rect fill="#FEFECE" filter="url(#f1qenzfkl0yj2w)" height="31.6094" style="stroke:#A80036;stroke-width:1.5;" width="64" x="335.5" y="53"/><text fill="#000000" font-family="sans-serif" font-size="14" lengthAdjust="spacing" textLength="50" x="342.5" y="74.5332">:System</text><rect fill="#FEFECE" filter="url(#f1qenzfkl0yj2w)" height="31.6094" style="stroke:#A80036;stroke-width:1.5;" width="64" x="335.5" y="169.3125"/><text fill="#000000" font-family="sans-serif" font-size="14" lengthAdjust="spacing" textLength="50" x="342.5" y="190.8457">:System</text><rect fill="#FFFFFF" filter="url(#f1qenzfkl0yj2w)" height="52.7031" style="stroke:#A80036;stroke-width:1.0;" width="10" x="22.5" y="99.6094"/><rect fill="#FFFFFF" filter="url(#f1qenzfkl0yj2w)" height="30.3516" style="stroke:#A80036;stroke-width:1.0;" width="10" x="364.5" y="121.9609"/><polygon fill="#A80036" points="352.5,117.9609,362.5,121.9609,352.5,125.9609,356.5,121.9609" style="stroke:#A80036;stroke-width:1.0;"/><line style="stroke:#A80036;stroke-width:1.0;" x1="32.5" x2="358.5" y1="121.9609" y2="121.9609"/><text fill="#000000" font-family="sans-serif" font-size="13" font-weight="bold" lengthAdjust="spacing" textLength="7" x="39.5" y="117.1045">1</text><text fill="#000000" font-family="sans-serif" font-size="13" lengthAdjust="spacing" textLength="302" x="50.5" y="117.1045">wants to see the the best type of vehicle for an order</text><polygon fill="#A80036" points="38.5,148.3125,28.5,152.3125,38.5,156.3125,34.5,152.3125" style="stroke:#A80036;stroke-width:1.0;"/><line style="stroke:#A80036;stroke-width:1.0;stroke-dasharray:2.0,2.0;" x1="32.5" x2="368.5" y1="152.3125" y2="152.3125"/><text fill="#000000" font-family="sans-serif" font-size="13" font-weight="bold" lengthAdjust="spacing" textLength="7" x="44.5" y="147.4561">2</text><text fill="#000000" font-family="sans-serif" font-size="13" lengthAdjust="spacing" textLength="229" x="55.5" y="147.4561">shows the best vehicle type for an order</text><!--MD5=[b618d418ec917a0b6ccdc64861d7dbad]
@startuml
autonumber
actor "Admin" as ADM

activate ADM
ADM -> ":System" : wants to see the the best type of vehicle for an order
activate ":System"
":System" - -> ADM : shows the best vehicle type for an order
deactivate ":System"

deactivate ADM
@enduml

PlantUML version 1.2021.00(Sun Jan 10 10:25:05 GMT 2021)
(GPL source distribution)
Java Runtime: OpenJDK Runtime Environment
JVM: OpenJDK 64-Bit Server VM
Default Encoding: Cp1252
Language: pt
Country: PT
--></g></svg>