<?xml version="1.0" encoding="UTF-8" standalone="no"?><svg xmlns="http://www.w3.org/2000/svg" xmlns:xlink="http://www.w3.org/1999/xlink" contentScriptType="application/ecmascript" contentStyleType="text/css" height="308px" preserveAspectRatio="none" style="width:1041px;height:308px;" version="1.1" viewBox="0 0 1041 308" width="1041px" zoomAndPan="magnify"><defs><filter height="300%" id="f91l3529y3qws" width="300%" x="-1" y="-1"><feGaussianBlur result="blurOut" stdDeviation="2.0"/><feColorMatrix in="blurOut" result="blurOut2" type="matrix" values="0 0 0 0 0 0 0 0 0 0 0 0 0 0 0 0 0 0 .4 0"/><feOffset dx="4.0" dy="4.0" in="blurOut2" result="blurOut3"/><feBlend in="SourceGraphic" in2="blurOut3" mode="normal"/></filter></defs><g><!--MD5=[f50ff5e4cd64f259303fc83dba1819fc]
entity database--><path d="M6,79.5 C6,69.5 45.5,69.5 45.5,69.5 C45.5,69.5 85,69.5 85,79.5 L85,106.1094 C85,116.1094 45.5,116.1094 45.5,116.1094 C45.5,116.1094 6,116.1094 6,106.1094 L6,79.5 " fill="#FFFFFF" filter="url(#f91l3529y3qws)" style="stroke:#000000;stroke-width:1.5;"/><path d="M6,79.5 C6,89.5 45.5,89.5 45.5,89.5 C45.5,89.5 85,89.5 85,79.5 " fill="none" style="stroke:#000000;stroke-width:1.5;"/><text fill="#000000" font-family="sans-serif" font-size="14" lengthAdjust="spacing" textLength="59" x="16" y="108.0332">database</text><!--MD5=[7f2a9fafcebe4f099f71398fd3e2ed00]
class Pharmacy--><rect codeLine="8" fill="#FEFECE" filter="url(#f91l3529y3qws)" height="67.6719" id="Pharmacy" style="stroke:#A80036;stroke-width:1.5;" width="87" x="482" y="59"/><ellipse cx="497" cy="75" fill="#ADD1B2" rx="11" ry="11" style="stroke:#A80036;stroke-width:1.0;"/><path d="M499,71.5 Q499.2031,71 499.4375,70.75 Q499.6719,70.5 499.9375,70.5 Q500.4063,70.5 500.7031,70.7813 Q501,71.0625 501,71.7188 L501,73.2813 Q501,73.9375 500.7188,74.2188 Q500.4375,74.5 500,74.5 Q499.6094,74.5 499.3594,74.3281 Q499.1094,74.1563 499,73.7031 Q498.9531,73.3906 498.7813,73.2188 Q498.4688,72.8906 497.9063,72.7031 Q497.3438,72.5 496.7813,72.5 Q496.0781,72.5 495.4844,72.7813 Q494.9063,73.0625 494.4531,73.6875 Q494,74.3125 494,75.1719 L494,76.0938 Q494,77.125 494.8438,77.8125 Q495.6875,78.5 497.1875,78.5 Q498.0781,78.5 498.7031,78.2969 Q499.0625,78.1875 499.4688,77.8281 Q499.7344,77.625 499.875,77.5625 Q500.0156,77.5 500.1875,77.5 Q500.5156,77.5 500.75,77.7656 Q501,78.0156 501,78.375 Q501,78.7188 500.6563,79.125 Q500.1563,79.7188 499.3594,80.0469 Q498.3125,80.5 497.0313,80.5 Q495.5313,80.5 494.3281,79.9063 Q493.3594,79.4375 492.6719,78.4219 Q492,77.4063 492,76.2031 L492,75.1094 Q492,73.8594 492.5938,72.7656 Q493.2031,71.6719 494.25,71.0938 Q495.3125,70.5 496.5,70.5 Q497.2188,70.5 497.8438,70.75 Q498.4688,71 499,71.5 Z " fill="#000000"/><text fill="#000000" font-family="sans-serif" font-size="12" lengthAdjust="spacing" textLength="55" x="511" y="79.9102">Pharmacy</text><line style="stroke:#A80036;stroke-width:1.5;" x1="483" x2="568" y1="91" y2="91"/><text fill="#000000" font-family="sans-serif" font-size="11" lengthAdjust="spacing" textLength="26" x="488" y="106.4189">-int id</text><text fill="#000000" font-family="sans-serif" font-size="11" lengthAdjust="spacing" textLength="61" x="488" y="120.2549">-String name</text><!--MD5=[d1eeb527b96f439f56c6bd12ac0dd707]
class Park--><rect codeLine="13" fill="#FEFECE" filter="url(#f91l3529y3qws)" height="53.8359" id="Park" style="stroke:#A80036;stroke-width:1.5;" width="111" x="665" y="45"/><ellipse cx="704.3" cy="61" fill="#ADD1B2" rx="11" ry="11" style="stroke:#A80036;stroke-width:1.0;"/><path d="M706.3,57.5 Q706.5031,57 706.7375,56.75 Q706.9719,56.5 707.2375,56.5 Q707.7063,56.5 708.0031,56.7813 Q708.3,57.0625 708.3,57.7188 L708.3,59.2813 Q708.3,59.9375 708.0188,60.2188 Q707.7375,60.5 707.3,60.5 Q706.9094,60.5 706.6594,60.3281 Q706.4094,60.1563 706.3,59.7031 Q706.2531,59.3906 706.0813,59.2188 Q705.7688,58.8906 705.2063,58.7031 Q704.6438,58.5 704.0813,58.5 Q703.3781,58.5 702.7844,58.7813 Q702.2063,59.0625 701.7531,59.6875 Q701.3,60.3125 701.3,61.1719 L701.3,62.0938 Q701.3,63.125 702.1438,63.8125 Q702.9875,64.5 704.4875,64.5 Q705.3781,64.5 706.0031,64.2969 Q706.3625,64.1875 706.7688,63.8281 Q707.0344,63.625 707.175,63.5625 Q707.3156,63.5 707.4875,63.5 Q707.8156,63.5 708.05,63.7656 Q708.3,64.0156 708.3,64.375 Q708.3,64.7188 707.9563,65.125 Q707.4563,65.7188 706.6594,66.0469 Q705.6125,66.5 704.3313,66.5 Q702.8313,66.5 701.6281,65.9063 Q700.6594,65.4375 699.9719,64.4219 Q699.3,63.4063 699.3,62.2031 L699.3,61.1094 Q699.3,59.8594 699.8938,58.7656 Q700.5031,57.6719 701.55,57.0938 Q702.6125,56.5 703.8,56.5 Q704.5188,56.5 705.1438,56.75 Q705.7688,57 706.3,57.5 Z " fill="#000000"/><text fill="#000000" font-family="sans-serif" font-size="12" lengthAdjust="spacing" textLength="25" x="723.7" y="65.9102">Park</text><line style="stroke:#A80036;stroke-width:1.5;" x1="666" x2="775" y1="77" y2="77"/><text fill="#000000" font-family="sans-serif" font-size="11" lengthAdjust="spacing" textLength="99" x="671" y="92.4189">-int maxSlotsNumber</text><!--MD5=[59d2374cee64c81d4b5b0eac02df9f3a]
class ChargingSlot--><rect codeLine="17" fill="#FEFECE" filter="url(#f91l3529y3qws)" height="67.6719" id="ChargingSlot" style="stroke:#A80036;stroke-width:1.5;" width="104" x="917" y="107"/><ellipse cx="932" cy="123" fill="#ADD1B2" rx="11" ry="11" style="stroke:#A80036;stroke-width:1.0;"/><path d="M934,119.5 Q934.2031,119 934.4375,118.75 Q934.6719,118.5 934.9375,118.5 Q935.4063,118.5 935.7031,118.7813 Q936,119.0625 936,119.7188 L936,121.2813 Q936,121.9375 935.7188,122.2188 Q935.4375,122.5 935,122.5 Q934.6094,122.5 934.3594,122.3281 Q934.1094,122.1563 934,121.7031 Q933.9531,121.3906 933.7813,121.2188 Q933.4688,120.8906 932.9063,120.7031 Q932.3438,120.5 931.7813,120.5 Q931.0781,120.5 930.4844,120.7813 Q929.9063,121.0625 929.4531,121.6875 Q929,122.3125 929,123.1719 L929,124.0938 Q929,125.125 929.8438,125.8125 Q930.6875,126.5 932.1875,126.5 Q933.0781,126.5 933.7031,126.2969 Q934.0625,126.1875 934.4688,125.8281 Q934.7344,125.625 934.875,125.5625 Q935.0156,125.5 935.1875,125.5 Q935.5156,125.5 935.75,125.7656 Q936,126.0156 936,126.375 Q936,126.7188 935.6563,127.125 Q935.1563,127.7188 934.3594,128.0469 Q933.3125,128.5 932.0313,128.5 Q930.5313,128.5 929.3281,127.9063 Q928.3594,127.4375 927.6719,126.4219 Q927,125.4063 927,124.2031 L927,123.1094 Q927,121.8594 927.5938,120.7656 Q928.2031,119.6719 929.25,119.0938 Q930.3125,118.5 931.5,118.5 Q932.2188,118.5 932.8438,118.75 Q933.4688,119 934,119.5 Z " fill="#000000"/><text fill="#000000" font-family="sans-serif" font-size="12" lengthAdjust="spacing" textLength="72" x="946" y="127.9102">ChargingSlot</text><line style="stroke:#A80036;stroke-width:1.5;" x1="918" x2="1020" y1="139" y2="139"/><text fill="#000000" font-family="sans-serif" font-size="11" lengthAdjust="spacing" textLength="29" x="923" y="154.4189">-int id;</text><text fill="#000000" font-family="sans-serif" font-size="11" lengthAdjust="spacing" textLength="90" x="923" y="168.2549">-float outputPower</text><!--MD5=[6171c3a2f2c752b4019101857dc83635]
class ParkingSlot--><rect codeLine="22" fill="#FEFECE" filter="url(#f91l3529y3qws)" height="53.8359" id="ParkingSlot" style="stroke:#A80036;stroke-width:1.5;" width="95" x="921.5" y="7"/><ellipse cx="936.5" cy="23" fill="#ADD1B2" rx="11" ry="11" style="stroke:#A80036;stroke-width:1.0;"/><path d="M938.5,19.5 Q938.7031,19 938.9375,18.75 Q939.1719,18.5 939.4375,18.5 Q939.9063,18.5 940.2031,18.7813 Q940.5,19.0625 940.5,19.7188 L940.5,21.2813 Q940.5,21.9375 940.2188,22.2188 Q939.9375,22.5 939.5,22.5 Q939.1094,22.5 938.8594,22.3281 Q938.6094,22.1563 938.5,21.7031 Q938.4531,21.3906 938.2813,21.2188 Q937.9688,20.8906 937.4063,20.7031 Q936.8438,20.5 936.2813,20.5 Q935.5781,20.5 934.9844,20.7813 Q934.4063,21.0625 933.9531,21.6875 Q933.5,22.3125 933.5,23.1719 L933.5,24.0938 Q933.5,25.125 934.3438,25.8125 Q935.1875,26.5 936.6875,26.5 Q937.5781,26.5 938.2031,26.2969 Q938.5625,26.1875 938.9688,25.8281 Q939.2344,25.625 939.375,25.5625 Q939.5156,25.5 939.6875,25.5 Q940.0156,25.5 940.25,25.7656 Q940.5,26.0156 940.5,26.375 Q940.5,26.7188 940.1563,27.125 Q939.6563,27.7188 938.8594,28.0469 Q937.8125,28.5 936.5313,28.5 Q935.0313,28.5 933.8281,27.9063 Q932.8594,27.4375 932.1719,26.4219 Q931.5,25.4063 931.5,24.2031 L931.5,23.1094 Q931.5,21.8594 932.0938,20.7656 Q932.7031,19.6719 933.75,19.0938 Q934.8125,18.5 936,18.5 Q936.7188,18.5 937.3438,18.75 Q937.9688,19 938.5,19.5 Z " fill="#000000"/><text fill="#000000" font-family="sans-serif" font-size="12" lengthAdjust="spacing" textLength="63" x="950.5" y="27.9102">ParkingSlot</text><line style="stroke:#A80036;stroke-width:1.5;" x1="922.5" x2="1015.5" y1="39" y2="39"/><text fill="#000000" font-family="sans-serif" font-size="11" lengthAdjust="spacing" textLength="26" x="927.5" y="54.4189">-int id</text><!--MD5=[c6a2171c11447acbe08a3dfeee0e1710]
class Courier--><rect codeLine="26" fill="#FEFECE" filter="url(#f91l3529y3qws)" height="53.8359" id="Courier" style="stroke:#A80036;stroke-width:1.5;" width="73" x="242" y="66"/><ellipse cx="257" cy="82" fill="#ADD1B2" rx="11" ry="11" style="stroke:#A80036;stroke-width:1.0;"/><path d="M259,78.5 Q259.2031,78 259.4375,77.75 Q259.6719,77.5 259.9375,77.5 Q260.4063,77.5 260.7031,77.7813 Q261,78.0625 261,78.7188 L261,80.2813 Q261,80.9375 260.7188,81.2188 Q260.4375,81.5 260,81.5 Q259.6094,81.5 259.3594,81.3281 Q259.1094,81.1563 259,80.7031 Q258.9531,80.3906 258.7813,80.2188 Q258.4688,79.8906 257.9063,79.7031 Q257.3438,79.5 256.7813,79.5 Q256.0781,79.5 255.4844,79.7813 Q254.9063,80.0625 254.4531,80.6875 Q254,81.3125 254,82.1719 L254,83.0938 Q254,84.125 254.8438,84.8125 Q255.6875,85.5 257.1875,85.5 Q258.0781,85.5 258.7031,85.2969 Q259.0625,85.1875 259.4688,84.8281 Q259.7344,84.625 259.875,84.5625 Q260.0156,84.5 260.1875,84.5 Q260.5156,84.5 260.75,84.7656 Q261,85.0156 261,85.375 Q261,85.7188 260.6563,86.125 Q260.1563,86.7188 259.3594,87.0469 Q258.3125,87.5 257.0313,87.5 Q255.5313,87.5 254.3281,86.9063 Q253.3594,86.4375 252.6719,85.4219 Q252,84.4063 252,83.2031 L252,82.1094 Q252,80.8594 252.5938,79.7656 Q253.2031,78.6719 254.25,78.0938 Q255.3125,77.5 256.5,77.5 Q257.2188,77.5 257.8438,77.75 Q258.4688,78 259,78.5 Z " fill="#000000"/><text fill="#000000" font-family="sans-serif" font-size="12" lengthAdjust="spacing" textLength="41" x="271" y="86.9102">Courier</text><line style="stroke:#A80036;stroke-width:1.5;" x1="243" x2="314" y1="98" y2="98"/><text fill="#000000" font-family="sans-serif" font-size="11" lengthAdjust="spacing" textLength="55" x="248" y="113.4189">-String iban</text><!--MD5=[3aa0d89c6bfdcbf7f32042cedac57549]
class Vehicle--><rect codeLine="30" fill="#FEFECE" filter="url(#f91l3529y3qws)" height="123.0156" id="Vehicle" style="stroke:#A80036;stroke-width:1.5;" width="105" x="668" y="134.5"/><ellipse cx="697.85" cy="150.5" fill="#ADD1B2" rx="11" ry="11" style="stroke:#A80036;stroke-width:1.0;"/><path d="M699.85,147 Q700.0531,146.5 700.2875,146.25 Q700.5219,146 700.7875,146 Q701.2563,146 701.5531,146.2813 Q701.85,146.5625 701.85,147.2188 L701.85,148.7813 Q701.85,149.4375 701.5688,149.7188 Q701.2875,150 700.85,150 Q700.4594,150 700.2094,149.8281 Q699.9594,149.6563 699.85,149.2031 Q699.8031,148.8906 699.6313,148.7188 Q699.3188,148.3906 698.7563,148.2031 Q698.1938,148 697.6313,148 Q696.9281,148 696.3344,148.2813 Q695.7563,148.5625 695.3031,149.1875 Q694.85,149.8125 694.85,150.6719 L694.85,151.5938 Q694.85,152.625 695.6938,153.3125 Q696.5375,154 698.0375,154 Q698.9281,154 699.5531,153.7969 Q699.9125,153.6875 700.3188,153.3281 Q700.5844,153.125 700.725,153.0625 Q700.8656,153 701.0375,153 Q701.3656,153 701.6,153.2656 Q701.85,153.5156 701.85,153.875 Q701.85,154.2188 701.5063,154.625 Q701.0063,155.2188 700.2094,155.5469 Q699.1625,156 697.8813,156 Q696.3813,156 695.1781,155.4063 Q694.2094,154.9375 693.5219,153.9219 Q692.85,152.9063 692.85,151.7031 L692.85,150.6094 Q692.85,149.3594 693.4438,148.2656 Q694.0531,147.1719 695.1,146.5938 Q696.1625,146 697.35,146 Q698.0688,146 698.6938,146.25 Q699.3188,146.5 699.85,147 Z " fill="#000000"/><text fill="#000000" font-family="sans-serif" font-size="12" lengthAdjust="spacing" textLength="40" x="715.15" y="155.4102">Vehicle</text><line style="stroke:#A80036;stroke-width:1.5;" x1="669" x2="772" y1="166.5" y2="166.5"/><text fill="#000000" font-family="sans-serif" font-size="11" lengthAdjust="spacing" textLength="26" x="674" y="181.9189">-int id</text><text fill="#000000" font-family="sans-serif" font-size="11" lengthAdjust="spacing" textLength="93" x="674" y="195.7549">-String vehicleType</text><text fill="#000000" font-family="sans-serif" font-size="11" lengthAdjust="spacing" textLength="67" x="674" y="209.5908">-float potency</text><text fill="#000000" font-family="sans-serif" font-size="11" lengthAdjust="spacing" textLength="67" x="674" y="223.4268">-float potency</text><text fill="#000000" font-family="sans-serif" font-size="11" lengthAdjust="spacing" textLength="61" x="674" y="237.2627">-float weight</text><text fill="#000000" font-family="sans-serif" font-size="11" lengthAdjust="spacing" textLength="86" x="674" y="251.0986">-float maxPayload</text><!--MD5=[79eb2d862cef9730b5f9dcab29e35f17]
class Battery--><rect codeLine="39" fill="#FEFECE" filter="url(#f91l3529y3qws)" height="81.5078" id="Battery" style="stroke:#A80036;stroke-width:1.5;" width="116" x="911" y="213"/><ellipse cx="947.15" cy="229" fill="#ADD1B2" rx="11" ry="11" style="stroke:#A80036;stroke-width:1.0;"/><path d="M949.15,225.5 Q949.3531,225 949.5875,224.75 Q949.8219,224.5 950.0875,224.5 Q950.5563,224.5 950.8531,224.7813 Q951.15,225.0625 951.15,225.7188 L951.15,227.2813 Q951.15,227.9375 950.8688,228.2188 Q950.5875,228.5 950.15,228.5 Q949.7594,228.5 949.5094,228.3281 Q949.2594,228.1563 949.15,227.7031 Q949.1031,227.3906 948.9313,227.2188 Q948.6188,226.8906 948.0563,226.7031 Q947.4938,226.5 946.9313,226.5 Q946.2281,226.5 945.6344,226.7813 Q945.0563,227.0625 944.6031,227.6875 Q944.15,228.3125 944.15,229.1719 L944.15,230.0938 Q944.15,231.125 944.9938,231.8125 Q945.8375,232.5 947.3375,232.5 Q948.2281,232.5 948.8531,232.2969 Q949.2125,232.1875 949.6188,231.8281 Q949.8844,231.625 950.025,231.5625 Q950.1656,231.5 950.3375,231.5 Q950.6656,231.5 950.9,231.7656 Q951.15,232.0156 951.15,232.375 Q951.15,232.7188 950.8063,233.125 Q950.3063,233.7188 949.5094,234.0469 Q948.4625,234.5 947.1813,234.5 Q945.6813,234.5 944.4781,233.9063 Q943.5094,233.4375 942.8219,232.4219 Q942.15,231.4063 942.15,230.2031 L942.15,229.1094 Q942.15,227.8594 942.7438,226.7656 Q943.3531,225.6719 944.4,225.0938 Q945.4625,224.5 946.65,224.5 Q947.3688,224.5 947.9938,224.75 Q948.6188,225 949.15,225.5 Z " fill="#000000"/><text fill="#000000" font-family="sans-serif" font-size="12" lengthAdjust="spacing" textLength="37" x="965.85" y="233.9102">Battery</text><line style="stroke:#A80036;stroke-width:1.5;" x1="912" x2="1026" y1="245" y2="245"/><text fill="#000000" font-family="sans-serif" font-size="11" lengthAdjust="spacing" textLength="84" x="917" y="260.4189">-float batteryPerc</text><text fill="#000000" font-family="sans-serif" font-size="11" lengthAdjust="spacing" textLength="104" x="917" y="274.2549">-float batteryCapacity</text><text fill="#000000" font-family="sans-serif" font-size="11" lengthAdjust="spacing" textLength="99" x="917" y="288.0908">-float batteryVoltage</text><!--MD5=[f4402668d5d5bb8485350c0fdb60ac8e]
class Scooter--><rect codeLine="45" fill="#FEFECE" filter="url(#f91l3529y3qws)" height="40" id="Scooter" style="stroke:#A80036;stroke-width:1.5;" width="74" x="488.5" y="250"/><ellipse cx="503.5" cy="266" fill="#ADD1B2" rx="11" ry="11" style="stroke:#A80036;stroke-width:1.0;"/><path d="M505.5,262.5 Q505.7031,262 505.9375,261.75 Q506.1719,261.5 506.4375,261.5 Q506.9063,261.5 507.2031,261.7813 Q507.5,262.0625 507.5,262.7188 L507.5,264.2813 Q507.5,264.9375 507.2188,265.2188 Q506.9375,265.5 506.5,265.5 Q506.1094,265.5 505.8594,265.3281 Q505.6094,265.1563 505.5,264.7031 Q505.4531,264.3906 505.2813,264.2188 Q504.9688,263.8906 504.4063,263.7031 Q503.8438,263.5 503.2813,263.5 Q502.5781,263.5 501.9844,263.7813 Q501.4063,264.0625 500.9531,264.6875 Q500.5,265.3125 500.5,266.1719 L500.5,267.0938 Q500.5,268.125 501.3438,268.8125 Q502.1875,269.5 503.6875,269.5 Q504.5781,269.5 505.2031,269.2969 Q505.5625,269.1875 505.9688,268.8281 Q506.2344,268.625 506.375,268.5625 Q506.5156,268.5 506.6875,268.5 Q507.0156,268.5 507.25,268.7656 Q507.5,269.0156 507.5,269.375 Q507.5,269.7188 507.1563,270.125 Q506.6563,270.7188 505.8594,271.0469 Q504.8125,271.5 503.5313,271.5 Q502.0313,271.5 500.8281,270.9063 Q499.8594,270.4375 499.1719,269.4219 Q498.5,268.4063 498.5,267.2031 L498.5,266.1094 Q498.5,264.8594 499.0938,263.7656 Q499.7031,262.6719 500.75,262.0938 Q501.8125,261.5 503,261.5 Q503.7188,261.5 504.3438,261.75 Q504.9688,262 505.5,262.5 Z " fill="#000000"/><text fill="#000000" font-family="sans-serif" font-size="12" lengthAdjust="spacing" textLength="42" x="517.5" y="270.9102">Scooter</text><line style="stroke:#A80036;stroke-width:1.5;" x1="489.5" x2="561.5" y1="282" y2="282"/><!--MD5=[2e3f1e60e74253ff42e47f8bfdb04ee2]
class Drone--><rect codeLine="48" fill="#FEFECE" filter="url(#f91l3529y3qws)" height="40" id="Drone" style="stroke:#A80036;stroke-width:1.5;" width="66" x="492.5" y="175"/><ellipse cx="507.5" cy="191" fill="#ADD1B2" rx="11" ry="11" style="stroke:#A80036;stroke-width:1.0;"/><path d="M509.5,187.5 Q509.7031,187 509.9375,186.75 Q510.1719,186.5 510.4375,186.5 Q510.9063,186.5 511.2031,186.7813 Q511.5,187.0625 511.5,187.7188 L511.5,189.2813 Q511.5,189.9375 511.2188,190.2188 Q510.9375,190.5 510.5,190.5 Q510.1094,190.5 509.8594,190.3281 Q509.6094,190.1563 509.5,189.7031 Q509.4531,189.3906 509.2813,189.2188 Q508.9688,188.8906 508.4063,188.7031 Q507.8438,188.5 507.2813,188.5 Q506.5781,188.5 505.9844,188.7813 Q505.4063,189.0625 504.9531,189.6875 Q504.5,190.3125 504.5,191.1719 L504.5,192.0938 Q504.5,193.125 505.3438,193.8125 Q506.1875,194.5 507.6875,194.5 Q508.5781,194.5 509.2031,194.2969 Q509.5625,194.1875 509.9688,193.8281 Q510.2344,193.625 510.375,193.5625 Q510.5156,193.5 510.6875,193.5 Q511.0156,193.5 511.25,193.7656 Q511.5,194.0156 511.5,194.375 Q511.5,194.7188 511.1563,195.125 Q510.6563,195.7188 509.8594,196.0469 Q508.8125,196.5 507.5313,196.5 Q506.0313,196.5 504.8281,195.9063 Q503.8594,195.4375 503.1719,194.4219 Q502.5,193.4063 502.5,192.2031 L502.5,191.1094 Q502.5,189.8594 503.0938,188.7656 Q503.7031,187.6719 504.75,187.0938 Q505.8125,186.5 507,186.5 Q507.7188,186.5 508.3438,186.75 Q508.9688,187 509.5,187.5 Z " fill="#000000"/><text fill="#000000" font-family="sans-serif" font-size="12" lengthAdjust="spacing" textLength="34" x="521.5" y="195.9102">Drone</text><line style="stroke:#A80036;stroke-width:1.5;" x1="493.5" x2="557.5" y1="207" y2="207"/><!--MD5=[706043c1ddfd8af8e2c9f8d50a0c6600]
link database to Courier--><path codeLine="51" d="M85.16,93 C128.83,93 199.32,93 241.75,93 " fill="none" id="database-Courier" style="stroke:#A80036;stroke-width:1.0;"/><polygon fill="#000000" points="125,84.1758,115.9549,81.2369,115.9549,87.1147,125,84.1758" style="stroke:#000000;stroke-width:1.0;"/><text fill="#000000" font-family="sans-serif" font-size="13" lengthAdjust="spacing" textLength="82" x="129" y="89.4951">has registered</text><text fill="#000000" font-family="sans-serif" font-size="13" lengthAdjust="spacing" textLength="7" x="93.1176" y="108.0385">1</text><text fill="#000000" font-family="sans-serif" font-size="13" lengthAdjust="spacing" textLength="5" x="229.0227" y="108.1209">*</text><!--MD5=[88616e74bf96530d476f0a19698bdbd4]
link Courier to Pharmacy--><path codeLine="52" d="M315.13,93 C359.32,93 434.59,93 481.83,93 " fill="none" id="Courier-Pharmacy" style="stroke:#A80036;stroke-width:1.0;"/><polygon fill="#000000" points="355,84.1758,345.9549,81.2369,345.9549,87.1147,355,84.1758" style="stroke:#000000;stroke-width:1.0;"/><text fill="#000000" font-family="sans-serif" font-size="13" lengthAdjust="spacing" textLength="92" x="359" y="89.4951">is associated to</text><text fill="#000000" font-family="sans-serif" font-size="13" lengthAdjust="spacing" textLength="7" x="323.0306" y="108.1209">1</text><text fill="#000000" font-family="sans-serif" font-size="13" lengthAdjust="spacing" textLength="5" x="468.8945" y="107.9285">*</text><!--MD5=[0ae4e3be80761dbc176b3d01b8ab98e4]
link Pharmacy to Park--><path codeLine="53" d="M569.33,88.34 C597.43,85.28 634.43,81.26 664.67,77.97 " fill="none" id="Pharmacy-Park" style="stroke:#A80036;stroke-width:1.0;"/><polygon fill="#000000" points="608.9707,72.6351,599.6608,70.6915,600.2964,76.5349,608.9707,72.6351" style="stroke:#000000;stroke-width:1.0;"/><text fill="#000000" font-family="sans-serif" font-size="13" lengthAdjust="spacing" textLength="21" x="613" y="78.4951">has</text><text fill="#000000" font-family="sans-serif" font-size="13" lengthAdjust="spacing" textLength="7" x="576.8732" y="102.4216">1</text><text fill="#000000" font-family="sans-serif" font-size="13" lengthAdjust="spacing" textLength="7" x="650.0683" y="93.2881">1</text><!--MD5=[54d578fb0508ace1f5af24263b5e5dc0]
link Pharmacy to Vehicle--><path codeLine="54" d="M569.33,115.86 C598.43,131.39 637.07,152.01 667.87,168.44 " fill="none" id="Pharmacy-Vehicle" style="stroke:#A80036;stroke-width:1.0;"/><polygon fill="#000000" points="608.4113,126.5296,601.8147,119.6786,599.0476,124.8644,608.4113,126.5296" style="stroke:#000000;stroke-width:1.0;"/><text fill="#000000" font-family="sans-serif" font-size="13" lengthAdjust="spacing" textLength="21" x="613" y="129.4951">has</text><text fill="#000000" font-family="sans-serif" font-size="13" lengthAdjust="spacing" textLength="7" x="576.8732" y="134.3276">1</text><text fill="#000000" font-family="sans-serif" font-size="13" lengthAdjust="spacing" textLength="5" x="655.1173" y="179.2081">*</text><!--MD5=[074a56c4439d52c76e1cc7a8f9d070a4]
link Vehicle to Battery--><path codeLine="55" d="M773.33,222.23 C783.93,226.75 795.16,230.97 806,234 C840.11,243.54 879.54,248.53 910.95,251.14 " fill="none" id="Vehicle-Battery" style="stroke:#A80036;stroke-width:1.0;"/><polygon fill="#000000" points="835.3932,226.2037,827.1455,221.468,825.9371,227.2203,835.3932,226.2037" style="stroke:#000000;stroke-width:1.0;"/><text fill="#000000" font-family="sans-serif" font-size="13" lengthAdjust="spacing" textLength="21" x="839.5" y="230.4951">has</text><text fill="#000000" font-family="sans-serif" font-size="13" lengthAdjust="spacing" textLength="7" x="780.8993" y="240.3473">1</text><text fill="#000000" font-family="sans-serif" font-size="13" lengthAdjust="spacing" textLength="7" x="896.0639" y="265.3477">1</text><!--MD5=[52f80c2c106e4280525a8160ec8cd0fa]
link Scooter to Vehicle--><path codeLine="56" d="M562.8,256.08 C592.39,244.74 634.56,228.57 667.7,215.86 " fill="none" id="Scooter-Vehicle" style="stroke:#A80036;stroke-width:1.0;"/><polygon fill="#000000" points="608.6686,218.3858,599.1709,218.8798,601.2752,224.3681,608.6686,218.3858" style="stroke:#000000;stroke-width:1.0;"/><text fill="#000000" font-family="sans-serif" font-size="13" lengthAdjust="spacing" textLength="21" x="613" y="225.4951">is a</text><text fill="#000000" font-family="sans-serif" font-size="13" lengthAdjust="spacing" textLength="7" x="570.5775" y="268.4801">1</text><text fill="#000000" font-family="sans-serif" font-size="13" lengthAdjust="spacing" textLength="7" x="653.1347" y="233.1214">1</text><!--MD5=[3f58d672939e81cd871f2f51e09decba]
link Drone to Vehicle--><path codeLine="57" d="M558.8,195.17 C588.53,195.32 633.13,195.55 667.8,195.73 " fill="none" id="Drone-Vehicle" style="stroke:#A80036;stroke-width:1.0;"/><polygon fill="#000000" points="608.9999,187.2015,599.9701,184.2161,599.9399,190.0939,608.9999,187.2015" style="stroke:#000000;stroke-width:1.0;"/><text fill="#000000" font-family="sans-serif" font-size="13" lengthAdjust="spacing" textLength="21" x="613" y="192.4951">is a</text><text fill="#000000" font-family="sans-serif" font-size="13" lengthAdjust="spacing" textLength="7" x="566.39" y="210.3864">1</text><text fill="#000000" font-family="sans-serif" font-size="13" lengthAdjust="spacing" textLength="7" x="652.8969" y="210.3358">1</text><!--MD5=[ad77aa3b7491516c05092123a4a53a0f]
link Park to ChargingSlot--><path codeLine="58" d="M754.45,99.11 C777.82,118.31 805.19,140.71 806,141 C841.5,153.65 884.22,153.06 916.88,149.62 " fill="none" id="Park-ChargingSlot" style="stroke:#A80036;stroke-width:1.0;"/><polygon fill="#000000" points="835.2745,133.6605,827.51,128.1683,825.7647,133.781,835.2745,133.6605" style="stroke:#000000;stroke-width:1.0;"/><text fill="#000000" font-family="sans-serif" font-size="13" lengthAdjust="spacing" textLength="21" x="839.5" y="137.4951">has</text><text fill="#000000" font-family="sans-serif" font-size="13" lengthAdjust="spacing" textLength="7" x="754.1109" y="120.3418">1</text><text fill="#000000" font-family="sans-serif" font-size="13" lengthAdjust="spacing" textLength="7" x="902.0584" y="165.5001">1</text><!--MD5=[d231af42e5f994c6ef3dd0db49c43284]
link Park to ParkingSlot--><path codeLine="59" d="M776.21,63.57 C819.75,56.85 880.03,47.56 921.32,41.2 " fill="none" id="Park-ParkingSlot" style="stroke:#A80036;stroke-width:1.0;"/><polygon fill="#000000" points="835.4416,39.414,826.0544,37.8875,826.9499,43.6967,835.4416,39.414" style="stroke:#000000;stroke-width:1.0;"/><text fill="#000000" font-family="sans-serif" font-size="13" lengthAdjust="spacing" textLength="21" x="839.5" y="45.4951">has</text><text fill="#000000" font-family="sans-serif" font-size="13" lengthAdjust="spacing" textLength="7" x="784.1663" y="77.042">1</text><text fill="#000000" font-family="sans-serif" font-size="13" lengthAdjust="spacing" textLength="7" x="906.4831" y="57.0621">1</text><!--MD5=[03c7690d261ef0f666272cbf2f2a551c]
link Vehicle to ChargingSlot--><path codeLine="60" d="M773.25,204.93 C805.01,208.47 846.14,209.55 881,199 C897.51,194 913.74,184.73 927.64,175.04 " fill="none" id="Vehicle-ChargingSlot" style="stroke:#A80036;stroke-width:1.0;"/><polygon fill="#000000" points="815.9089,189.2254,806.4701,188.0593,807.5873,193.83,815.9089,189.2254" style="stroke:#000000;stroke-width:1.0;"/><text fill="#000000" font-family="sans-serif" font-size="13" lengthAdjust="spacing" textLength="60" x="820" y="195.4951">belongs to</text><text fill="#000000" font-family="sans-serif" font-size="13" lengthAdjust="spacing" textLength="7" x="781.1602" y="220.8295">1</text><text fill="#000000" font-family="sans-serif" font-size="13" lengthAdjust="spacing" textLength="7" x="912.6493" y="196.084">1</text><!--MD5=[ed2467d48e83f74b7efde3137d7a0940]
link Vehicle to ParkingSlot--><path codeLine="61" d="M773.04,144.42 C783.48,135.33 794.73,126.42 806,119 C836.57,98.87 848.5,101.83 881,85 C895.15,77.67 910.23,69.11 923.8,61.12 " fill="none" id="Vehicle-ParkingSlot" style="stroke:#A80036;stroke-width:1.0;"/><polygon fill="#000000" points="815.3764,73.7577,806.0381,75.5597,808.8808,80.7044,815.3764,73.7577" style="stroke:#000000;stroke-width:1.0;"/><text fill="#000000" font-family="sans-serif" font-size="13" lengthAdjust="spacing" textLength="60" x="820" y="81.4951">belongs to</text><text fill="#000000" font-family="sans-serif" font-size="13" lengthAdjust="spacing" textLength="7" x="780.9206" y="151.8103">1</text><text fill="#000000" font-family="sans-serif" font-size="13" lengthAdjust="spacing" textLength="7" x="906.7556" y="81.9118">1</text><!--MD5=[9d0b7cb31ac791e9d66f4993394e67c1]
@startuml
skinparam classAttributeIconSize 0
hide methods
left to right direction

database database {
}

class Pharmacy{
-int id
-String name
}

class Park{
-int maxSlotsNumber
}

class ChargingSlot{
-int id;
-float outputPower
}

class ParkingSlot{
-int id
}

class Courier {
      -String iban
}

class Vehicle {
-int id
-String vehicleType
-float potency
-float potency
-float weight
-float maxPayload
}

class Battery{
-float batteryPerc
-float batteryCapacity
-float batteryVoltage
}

class Scooter{
}

class Drone{
}

database "1" - - "*" Courier : has registered >
Courier "1" - - "*" Pharmacy : is associated to >
Pharmacy "1" - - "1" Park : has >
Pharmacy "1" - - "*" Vehicle : has >
Vehicle "1" - - "1" Battery : has >
Scooter "1" - - "1" Vehicle : is a >
Drone "1" - - "1" Vehicle : is a >
Park "1" - - "1" ChargingSlot : has >
Park "1" - - "1" ParkingSlot : has >
Vehicle "1" - - "1" ChargingSlot : belongs to >
Vehicle "1" - - "1" ParkingSlot : belongs to >
@enduml

PlantUML version 1.2021.00(Sun Jan 10 10:25:05 GMT 2021)
(GPL source distribution)
Java Runtime: OpenJDK Runtime Environment
JVM: OpenJDK 64-Bit Server VM
Default Encoding: Cp1252
Language: pt
Country: PT
--></g></svg>