<?xml version="1.0" encoding="UTF-8" standalone="no"?><svg xmlns="http://www.w3.org/2000/svg" xmlns:xlink="http://www.w3.org/1999/xlink" contentScriptType="application/ecmascript" contentStyleType="text/css" height="1374px" preserveAspectRatio="none" style="width:2667px;height:1374px;" version="1.1" viewBox="0 0 2667 1374" width="2667px" zoomAndPan="magnify"><defs><filter height="300%" id="fozxnp9xx27ef" width="300%" x="-1" y="-1"><feGaussianBlur result="blurOut" stdDeviation="2.0"/><feColorMatrix in="blurOut" result="blurOut2" type="matrix" values="0 0 0 0 0 0 0 0 0 0 0 0 0 0 0 0 0 0 .4 0"/><feOffset dx="4.0" dy="4.0" in="blurOut2" result="blurOut3"/><feBlend in="SourceGraphic" in2="blurOut3" mode="normal"/></filter></defs><g><!--MD5=[9681dc6e01e10c6b4fe06895ae94f592]
cluster UI--><polygon fill="#DDDDDD" filter="url(#fozxnp9xx27ef)" points="2270,24.5,2290,24.5,2297,48.1094,2420,48.1094,2420,144.5,2270,144.5,2270,24.5" style="stroke: #000000; stroke-width: 1.5;"/><line style="stroke: #000000; stroke-width: 1.5;" x1="2270" x2="2297" y1="48.1094" y2="48.1094"/><text fill="#000000" font-family="sans-serif" font-size="14" font-weight="bold" lengthAdjust="spacingAndGlyphs" textLength="14" x="2274" y="41.0332">UI</text><!--MD5=[1f2cfc53d9d308f53762fd0fcbaa4873]
cluster Controller--><polygon fill="#DDDDDD" filter="url(#fozxnp9xx27ef)" points="2134,177.5,2211,177.5,2218,201.1094,2645,201.1094,2645,652.5,2134,652.5,2134,177.5" style="stroke: #000000; stroke-width: 1.5;"/><line style="stroke: #000000; stroke-width: 1.5;" x1="2134" x2="2218" y1="201.1094" y2="201.1094"/><text fill="#000000" font-family="sans-serif" font-size="14" font-weight="bold" lengthAdjust="spacingAndGlyphs" textLength="71" x="2138" y="194.0332">Controller</text><!--MD5=[15636c1ca4a123c16a2a1a8e90aca7a9]
cluster Model--><polygon fill="#DDDDDD" filter="url(#fozxnp9xx27ef)" points="750,453.5,800,453.5,807,477.1094,2110,477.1094,2110,1362,750,1362,750,453.5" style="stroke: #000000; stroke-width: 1.5;"/><line style="stroke: #000000; stroke-width: 1.5;" x1="750" x2="807" y1="477.1094" y2="477.1094"/><text fill="#000000" font-family="sans-serif" font-size="14" font-weight="bold" lengthAdjust="spacingAndGlyphs" textLength="44" x="754" y="470.0332">Model</text><!--MD5=[9dd75fd92da113d30380b27734fd2f01]
cluster Service--><polygon fill="#DDDDDD" filter="url(#fozxnp9xx27ef)" points="774,497.5,834,497.5,841,521.1094,1744,521.1094,1744,659.5,774,659.5,774,497.5" style="stroke: #000000; stroke-width: 1.5;"/><line style="stroke: #000000; stroke-width: 1.5;" x1="774" x2="841" y1="521.1094" y2="521.1094"/><text fill="#000000" font-family="sans-serif" font-size="14" font-weight="bold" lengthAdjust="spacingAndGlyphs" textLength="54" x="778" y="514.0332">Service</text><!--MD5=[f21b1f164e99c6b37934f23ad048ad54]
cluster Data--><polygon fill="#DDDDDD" filter="url(#fozxnp9xx27ef)" points="22,504.5,59,504.5,66,528.1094,726,528.1094,726,847.5,22,847.5,22,504.5" style="stroke: #000000; stroke-width: 1.5;"/><line style="stroke: #000000; stroke-width: 1.5;" x1="22" x2="66" y1="528.1094" y2="528.1094"/><text fill="#000000" font-family="sans-serif" font-size="14" font-weight="bold" lengthAdjust="spacingAndGlyphs" textLength="31" x="26" y="521.0332">Data</text><!--MD5=[35750e3ed6157e0e9f921c1e2e63111c]
class MakeAnOrderUI--><rect fill="#FEFECE" filter="url(#fozxnp9xx27ef)" height="48" id="MakeAnOrderUI" style="stroke: #A80036; stroke-width: 1.5;" width="118" x="2286" y="80.5"/><ellipse cx="2301" cy="96.5" fill="#ADD1B2" rx="11" ry="11" style="stroke: #A80036; stroke-width: 1.0;"/><path d="M2303,93 Q2303.2031,92.5 2303.4375,92.25 Q2303.6719,92 2303.9375,92 Q2304.4063,92 2304.7031,92.2813 Q2305,92.5625 2305,93.2188 L2305,94.7813 Q2305,95.4375 2304.7188,95.7188 Q2304.4375,96 2304,96 Q2303.6094,96 2303.3594,95.8281 Q2303.1094,95.6563 2303,95.2031 Q2302.9531,94.8906 2302.7813,94.7188 Q2302.4688,94.3906 2301.9063,94.2031 Q2301.3438,94 2300.7813,94 Q2300.0781,94 2299.4844,94.2813 Q2298.9063,94.5625 2298.4531,95.1875 Q2298,95.8125 2298,96.6719 L2298,97.5938 Q2298,98.625 2298.8438,99.3125 Q2299.6875,100 2301.1875,100 Q2302.0781,100 2302.7031,99.7969 Q2303.0625,99.6875 2303.4688,99.3281 Q2303.7344,99.125 2303.875,99.0625 Q2304.0156,99 2304.1875,99 Q2304.5156,99 2304.75,99.2656 Q2305,99.5156 2305,99.875 Q2305,100.2188 2304.6563,100.625 Q2304.1563,101.2188 2303.3594,101.5469 Q2302.3125,102 2301.0313,102 Q2299.5313,102 2298.3281,101.4063 Q2297.3594,100.9375 2296.6719,99.9219 Q2296,98.9063 2296,97.7031 L2296,96.6094 Q2296,95.3594 2296.5938,94.2656 Q2297.2031,93.1719 2298.25,92.5938 Q2299.3125,92 2300.5,92 Q2301.2188,92 2301.8438,92.25 Q2302.4688,92.5 2303,93 Z "/><text fill="#000000" font-family="sans-serif" font-size="12" lengthAdjust="spacingAndGlyphs" textLength="86" x="2315" y="101.4102">MakeAnOrderUI</text><line style="stroke: #A80036; stroke-width: 1.5;" x1="2287" x2="2403" y1="112.5" y2="112.5"/><line style="stroke: #A80036; stroke-width: 1.5;" x1="2287" x2="2403" y1="120.5" y2="120.5"/><!--MD5=[7f25cae4ec750c15eb10841bd194e692]
class MakeAnOrderController--><rect fill="#FEFECE" filter="url(#fozxnp9xx27ef)" height="172.5234" id="MakeAnOrderController" style="stroke: #A80036; stroke-width: 1.5;" width="241" x="2150.5" y="233.5"/><ellipse cx="2202.75" cy="249.5" fill="#ADD1B2" rx="11" ry="11" style="stroke: #A80036; stroke-width: 1.0;"/><path d="M2204.75,246 Q2204.9531,245.5 2205.1875,245.25 Q2205.4219,245 2205.6875,245 Q2206.1563,245 2206.4531,245.2813 Q2206.75,245.5625 2206.75,246.2188 L2206.75,247.7813 Q2206.75,248.4375 2206.4688,248.7188 Q2206.1875,249 2205.75,249 Q2205.3594,249 2205.1094,248.8281 Q2204.8594,248.6563 2204.75,248.2031 Q2204.7031,247.8906 2204.5313,247.7188 Q2204.2188,247.3906 2203.6563,247.2031 Q2203.0938,247 2202.5313,247 Q2201.8281,247 2201.2344,247.2813 Q2200.6563,247.5625 2200.2031,248.1875 Q2199.75,248.8125 2199.75,249.6719 L2199.75,250.5938 Q2199.75,251.625 2200.5938,252.3125 Q2201.4375,253 2202.9375,253 Q2203.8281,253 2204.4531,252.7969 Q2204.8125,252.6875 2205.2188,252.3281 Q2205.4844,252.125 2205.625,252.0625 Q2205.7656,252 2205.9375,252 Q2206.2656,252 2206.5,252.2656 Q2206.75,252.5156 2206.75,252.875 Q2206.75,253.2188 2206.4063,253.625 Q2205.9063,254.2188 2205.1094,254.5469 Q2204.0625,255 2202.7813,255 Q2201.2813,255 2200.0781,254.4063 Q2199.1094,253.9375 2198.4219,252.9219 Q2197.75,251.9063 2197.75,250.7031 L2197.75,249.6094 Q2197.75,248.3594 2198.3438,247.2656 Q2198.9531,246.1719 2200,245.5938 Q2201.0625,245 2202.25,245 Q2202.9688,245 2203.5938,245.25 Q2204.2188,245.5 2204.75,246 Z "/><text fill="#000000" font-family="sans-serif" font-size="12" lengthAdjust="spacingAndGlyphs" textLength="128" x="2223.25" y="254.4102">MakeAnOrderController</text><line style="stroke: #A80036; stroke-width: 1.5;" x1="2151.5" x2="2390.5" y1="265.5" y2="265.5"/><line style="stroke: #A80036; stroke-width: 1.5;" x1="2151.5" x2="2390.5" y1="273.5" y2="273.5"/><text fill="#000000" font-family="sans-serif" font-size="11" lengthAdjust="spacingAndGlyphs" textLength="117" x="2156.5" y="288.9189">+newOrder(description)</text><text fill="#000000" font-family="sans-serif" font-size="11" lengthAdjust="spacingAndGlyphs" textLength="79" x="2156.5" y="302.7549">+registerOrder()</text><text fill="#000000" font-family="sans-serif" font-size="11" lengthAdjust="spacingAndGlyphs" textLength="172" x="2156.5" y="316.5908">+getAvailableProducts(pharmacyId)</text><text fill="#000000" font-family="sans-serif" font-size="11" lengthAdjust="spacingAndGlyphs" textLength="85" x="2156.5" y="330.4268">+getPharmacies()</text><text fill="#000000" font-family="sans-serif" font-size="11" lengthAdjust="spacingAndGlyphs" textLength="190" x="2156.5" y="344.2627">+addProductToOrder(product, quantity)</text><text fill="#000000" font-family="sans-serif" font-size="11" lengthAdjust="spacingAndGlyphs" textLength="160" x="2156.5" y="358.0986">+setHomeDelivery(homeDelivery)</text><text fill="#000000" font-family="sans-serif" font-size="11" lengthAdjust="spacingAndGlyphs" textLength="229" x="2156.5" y="371.9346">+lstCreditCards = getCreditCardsByClient(email)</text><text fill="#000000" font-family="sans-serif" font-size="11" lengthAdjust="spacingAndGlyphs" textLength="164" x="2156.5" y="385.7705">+addPayment(creditCard, amount)</text><text fill="#000000" font-family="sans-serif" font-size="11" lengthAdjust="spacingAndGlyphs" textLength="91" x="2156.5" y="399.6064">+generateInvoice()</text><!--MD5=[3289848d71879b0f734b9b16b9111738]
class GenerateInvoiceController--><rect fill="#FEFECE" filter="url(#fozxnp9xx27ef)" height="75.6719" id="GenerateInvoiceController" style="stroke: #A80036; stroke-width: 1.5;" width="202" x="2427" y="282"/><ellipse cx="2454.15" cy="298" fill="#ADD1B2" rx="11" ry="11" style="stroke: #A80036; stroke-width: 1.0;"/><path d="M2456.15,294.5 Q2456.3531,294 2456.5875,293.75 Q2456.8219,293.5 2457.0875,293.5 Q2457.5563,293.5 2457.8531,293.7813 Q2458.15,294.0625 2458.15,294.7188 L2458.15,296.2813 Q2458.15,296.9375 2457.8688,297.2188 Q2457.5875,297.5 2457.15,297.5 Q2456.7594,297.5 2456.5094,297.3281 Q2456.2594,297.1563 2456.15,296.7031 Q2456.1031,296.3906 2455.9313,296.2188 Q2455.6188,295.8906 2455.0563,295.7031 Q2454.4938,295.5 2453.9313,295.5 Q2453.2281,295.5 2452.6344,295.7813 Q2452.0563,296.0625 2451.6031,296.6875 Q2451.15,297.3125 2451.15,298.1719 L2451.15,299.0938 Q2451.15,300.125 2451.9938,300.8125 Q2452.8375,301.5 2454.3375,301.5 Q2455.2281,301.5 2455.8531,301.2969 Q2456.2125,301.1875 2456.6188,300.8281 Q2456.8844,300.625 2457.025,300.5625 Q2457.1656,300.5 2457.3375,300.5 Q2457.6656,300.5 2457.9,300.7656 Q2458.15,301.0156 2458.15,301.375 Q2458.15,301.7188 2457.8063,302.125 Q2457.3063,302.7188 2456.5094,303.0469 Q2455.4625,303.5 2454.1813,303.5 Q2452.6813,303.5 2451.4781,302.9063 Q2450.5094,302.4375 2449.8219,301.4219 Q2449.15,300.4063 2449.15,299.2031 L2449.15,298.1094 Q2449.15,296.8594 2449.7438,295.7656 Q2450.3531,294.6719 2451.4,294.0938 Q2452.4625,293.5 2453.65,293.5 Q2454.3688,293.5 2454.9938,293.75 Q2455.6188,294 2456.15,294.5 Z "/><text fill="#000000" font-family="sans-serif" font-size="12" lengthAdjust="spacingAndGlyphs" textLength="143" x="2470.85" y="302.9102">GenerateInvoiceController</text><line style="stroke: #A80036; stroke-width: 1.5;" x1="2428" x2="2628" y1="314" y2="314"/><line style="stroke: #A80036; stroke-width: 1.5;" x1="2428" x2="2628" y1="322" y2="322"/><text fill="#000000" font-family="sans-serif" font-size="11" lengthAdjust="spacingAndGlyphs" textLength="139" x="2433" y="337.4189">+GenerateInvoiceController()</text><text fill="#000000" font-family="sans-serif" font-size="11" lengthAdjust="spacingAndGlyphs" textLength="190" x="2433" y="351.2549">+generateInvoice(order, mapPayments)</text><!--MD5=[e45a4727c47b726c25e081782e8bc183]
class ApplicationPOT--><rect fill="#FEFECE" filter="url(#fozxnp9xx27ef)" height="75.6719" id="ApplicationPOT" style="stroke: #A80036; stroke-width: 1.5;" width="116" x="2166" y="560.5"/><ellipse cx="2181" cy="576.5" fill="#ADD1B2" rx="11" ry="11" style="stroke: #A80036; stroke-width: 1.0;"/><path d="M2183,573 Q2183.2031,572.5 2183.4375,572.25 Q2183.6719,572 2183.9375,572 Q2184.4063,572 2184.7031,572.2813 Q2185,572.5625 2185,573.2188 L2185,574.7813 Q2185,575.4375 2184.7188,575.7188 Q2184.4375,576 2184,576 Q2183.6094,576 2183.3594,575.8281 Q2183.1094,575.6563 2183,575.2031 Q2182.9531,574.8906 2182.7813,574.7188 Q2182.4688,574.3906 2181.9063,574.2031 Q2181.3438,574 2180.7813,574 Q2180.0781,574 2179.4844,574.2813 Q2178.9063,574.5625 2178.4531,575.1875 Q2178,575.8125 2178,576.6719 L2178,577.5938 Q2178,578.625 2178.8438,579.3125 Q2179.6875,580 2181.1875,580 Q2182.0781,580 2182.7031,579.7969 Q2183.0625,579.6875 2183.4688,579.3281 Q2183.7344,579.125 2183.875,579.0625 Q2184.0156,579 2184.1875,579 Q2184.5156,579 2184.75,579.2656 Q2185,579.5156 2185,579.875 Q2185,580.2188 2184.6563,580.625 Q2184.1563,581.2188 2183.3594,581.5469 Q2182.3125,582 2181.0313,582 Q2179.5313,582 2178.3281,581.4063 Q2177.3594,580.9375 2176.6719,579.9219 Q2176,578.9063 2176,577.7031 L2176,576.6094 Q2176,575.3594 2176.5938,574.2656 Q2177.2031,573.1719 2178.25,572.5938 Q2179.3125,572 2180.5,572 Q2181.2188,572 2181.8438,572.25 Q2182.4688,572.5 2183,573 Z "/><text fill="#000000" font-family="sans-serif" font-size="12" lengthAdjust="spacingAndGlyphs" textLength="84" x="2195" y="581.4102">ApplicationPOT</text><line style="stroke: #A80036; stroke-width: 1.5;" x1="2167" x2="2281" y1="592.5" y2="592.5"/><line style="stroke: #A80036; stroke-width: 1.5;" x1="2167" x2="2281" y1="600.5" y2="600.5"/><text fill="#000000" font-family="sans-serif" font-size="11" lengthAdjust="spacingAndGlyphs" textLength="99" x="2172" y="615.9189">+static getInstance()</text><text fill="#000000" font-family="sans-serif" font-size="11" lengthAdjust="spacingAndGlyphs" textLength="68" x="2172" y="629.7549">+getPlatform()</text><!--MD5=[c5b08e60048ef1bcd788d24cf324082e]
class UserSession--><rect fill="#FEFECE" filter="url(#fozxnp9xx27ef)" height="61.8359" id="UserSession" style="stroke: #A80036; stroke-width: 1.5;" width="116" x="2317" y="567.5"/><ellipse cx="2336.95" cy="583.5" fill="#ADD1B2" rx="11" ry="11" style="stroke: #A80036; stroke-width: 1.0;"/><path d="M2338.95,580 Q2339.1531,579.5 2339.3875,579.25 Q2339.6219,579 2339.8875,579 Q2340.3563,579 2340.6531,579.2813 Q2340.95,579.5625 2340.95,580.2188 L2340.95,581.7813 Q2340.95,582.4375 2340.6688,582.7188 Q2340.3875,583 2339.95,583 Q2339.5594,583 2339.3094,582.8281 Q2339.0594,582.6563 2338.95,582.2031 Q2338.9031,581.8906 2338.7313,581.7188 Q2338.4188,581.3906 2337.8563,581.2031 Q2337.2938,581 2336.7313,581 Q2336.0281,581 2335.4344,581.2813 Q2334.8563,581.5625 2334.4031,582.1875 Q2333.95,582.8125 2333.95,583.6719 L2333.95,584.5938 Q2333.95,585.625 2334.7938,586.3125 Q2335.6375,587 2337.1375,587 Q2338.0281,587 2338.6531,586.7969 Q2339.0125,586.6875 2339.4188,586.3281 Q2339.6844,586.125 2339.825,586.0625 Q2339.9656,586 2340.1375,586 Q2340.4656,586 2340.7,586.2656 Q2340.95,586.5156 2340.95,586.875 Q2340.95,587.2188 2340.6063,587.625 Q2340.1063,588.2188 2339.3094,588.5469 Q2338.2625,589 2336.9813,589 Q2335.4813,589 2334.2781,588.4063 Q2333.3094,587.9375 2332.6219,586.9219 Q2331.95,585.9063 2331.95,584.7031 L2331.95,583.6094 Q2331.95,582.3594 2332.5438,581.2656 Q2333.1531,580.1719 2334.2,579.5938 Q2335.2625,579 2336.45,579 Q2337.1688,579 2337.7938,579.25 Q2338.4188,579.5 2338.95,580 Z "/><text fill="#000000" font-family="sans-serif" font-size="12" lengthAdjust="spacingAndGlyphs" textLength="73" x="2352.05" y="588.4102">UserSession</text><line style="stroke: #A80036; stroke-width: 1.5;" x1="2318" x2="2432" y1="599.5" y2="599.5"/><line style="stroke: #A80036; stroke-width: 1.5;" x1="2318" x2="2432" y1="607.5" y2="607.5"/><text fill="#000000" font-family="sans-serif" font-size="11" lengthAdjust="spacingAndGlyphs" textLength="104" x="2323" y="622.9189">+getCurrentSession()</text><!--MD5=[fa1e3283224feb76407c84b7e90ed808]
entity Database--><path d="M652.5,1023.5 C652.5,1013.5 693,1013.5 693,1013.5 C693,1013.5 733.5,1013.5 733.5,1023.5 L733.5,1050.1094 C733.5,1060.1094 693,1060.1094 693,1060.1094 C693,1060.1094 652.5,1060.1094 652.5,1050.1094 L652.5,1023.5 " fill="#FFFFFF" filter="url(#fozxnp9xx27ef)" style="stroke: #000000; stroke-width: 1.5;"/><path d="M652.5,1023.5 C652.5,1033.5 693,1033.5 693,1033.5 C693,1033.5 733.5,1033.5 733.5,1023.5 " fill="none" style="stroke: #000000; stroke-width: 1.5;"/><text fill="#000000" font-family="sans-serif" font-size="14" lengthAdjust="spacingAndGlyphs" textLength="61" x="662.5" y="1052.0332">Database</text><!--MD5=[3fd616f346a44cd59a91eb10b19e157c]
class User--><rect fill="#FEFECE" filter="url(#fozxnp9xx27ef)" height="103.3438" id="User" style="stroke: #A80036; stroke-width: 1.5;" width="97" x="1996.5" y="547"/><ellipse cx="2029.05" cy="563" fill="#A9DCDF" rx="11" ry="11" style="stroke: #A80036; stroke-width: 1.0;"/><path d="M2030.8,564.5 L2027.5031,564.5 L2027.0656,565.5 L2027.0656,565.5 L2027.5344,565.5 L2028.05,566.125 L2028.05,566.5 L2028.05,566.875 L2027.5344,567.5 L2027.0656,567.5 L2025.175,567.5 L2024.5656,567.5 L2024.05,566.875 L2024.05,566.5 L2024.05,566.125 L2024.5656,565.5 L2025.175,565.5 L2027.4875,559.5 L2026.6125,559.5 L2025.5656,559.5 L2025.05,558.875 L2025.05,558.5 L2025.05,558.125 L2025.5656,557.5 L2026.6125,557.5 L2030.2844,557.5 L2032.9719,565.5 L2033.5344,565.5 L2033.5344,565.5 L2034.05,566.125 L2034.05,566.5 L2034.05,566.875 L2033.5344,567.5 L2032.9719,567.5 L2031.0813,567.5 L2030.5656,567.5 L2030.05,566.875 L2030.05,566.5 L2030.05,566.125 L2030.5656,565.5 L2031.0813,565.5 L2031.0813,565.5 L2030.8,564.5 Z M2030.2531,562.5 L2029.05,558.9219 L2028.0188,562.5 L2030.2531,562.5 Z "/><text fill="#000000" font-family="sans-serif" font-size="12" font-style="italic" lengthAdjust="spacingAndGlyphs" textLength="26" x="2046.95" y="567.9102">User</text><line style="stroke: #A80036; stroke-width: 1.5;" x1="1997.5" x2="2092.5" y1="579" y2="579"/><text fill="#000000" font-family="sans-serif" font-size="11" lengthAdjust="spacingAndGlyphs" textLength="61" x="2002.5" y="594.4189">-String name</text><text fill="#000000" font-family="sans-serif" font-size="11" lengthAdjust="spacingAndGlyphs" textLength="59" x="2002.5" y="608.2549">-String email</text><text fill="#000000" font-family="sans-serif" font-size="11" lengthAdjust="spacingAndGlyphs" textLength="85" x="2002.5" y="622.0908">-String password</text><text fill="#000000" font-family="sans-serif" font-size="11" lengthAdjust="spacingAndGlyphs" textLength="52" x="2002.5" y="635.9268">-Integer nif</text><line style="stroke: #A80036; stroke-width: 1.5;" x1="1997.5" x2="2092.5" y1="642.3438" y2="642.3438"/><!--MD5=[ed6624c6556d5e7b1bd23032162d20b7]
class Client--><rect fill="#FEFECE" filter="url(#fozxnp9xx27ef)" height="117.1797" id="Client" style="stroke: #A80036; stroke-width: 1.5;" width="155" x="1620.5" y="728"/><ellipse cx="1677.75" cy="744" fill="#ADD1B2" rx="11" ry="11" style="stroke: #A80036; stroke-width: 1.0;"/><path d="M1679.75,740.5 Q1679.9531,740 1680.1875,739.75 Q1680.4219,739.5 1680.6875,739.5 Q1681.1563,739.5 1681.4531,739.7813 Q1681.75,740.0625 1681.75,740.7188 L1681.75,742.2813 Q1681.75,742.9375 1681.4688,743.2188 Q1681.1875,743.5 1680.75,743.5 Q1680.3594,743.5 1680.1094,743.3281 Q1679.8594,743.1563 1679.75,742.7031 Q1679.7031,742.3906 1679.5313,742.2188 Q1679.2188,741.8906 1678.6563,741.7031 Q1678.0938,741.5 1677.5313,741.5 Q1676.8281,741.5 1676.2344,741.7813 Q1675.6563,742.0625 1675.2031,742.6875 Q1674.75,743.3125 1674.75,744.1719 L1674.75,745.0938 Q1674.75,746.125 1675.5938,746.8125 Q1676.4375,747.5 1677.9375,747.5 Q1678.8281,747.5 1679.4531,747.2969 Q1679.8125,747.1875 1680.2188,746.8281 Q1680.4844,746.625 1680.625,746.5625 Q1680.7656,746.5 1680.9375,746.5 Q1681.2656,746.5 1681.5,746.7656 Q1681.75,747.0156 1681.75,747.375 Q1681.75,747.7188 1681.4063,748.125 Q1680.9063,748.7188 1680.1094,749.0469 Q1679.0625,749.5 1677.7813,749.5 Q1676.2813,749.5 1675.0781,748.9063 Q1674.1094,748.4375 1673.4219,747.4219 Q1672.75,746.4063 1672.75,745.2031 L1672.75,744.1094 Q1672.75,742.8594 1673.3438,741.7656 Q1673.9531,740.6719 1675,740.0938 Q1676.0625,739.5 1677.25,739.5 Q1677.9688,739.5 1678.5938,739.75 Q1679.2188,740 1679.75,740.5 Z "/><text fill="#000000" font-family="sans-serif" font-size="12" lengthAdjust="spacingAndGlyphs" textLength="32" x="1698.25" y="748.9102">Client</text><line style="stroke: #A80036; stroke-width: 1.5;" x1="1621.5" x2="1774.5" y1="760" y2="760"/><text fill="#000000" font-family="sans-serif" font-size="11" lengthAdjust="spacingAndGlyphs" textLength="42" x="1626.5" y="775.4189">-int IBAN</text><text fill="#000000" font-family="sans-serif" font-size="11" lengthAdjust="spacingAndGlyphs" textLength="114" x="1626.5" y="789.2549">-long creditCardNumber</text><text fill="#000000" font-family="sans-serif" font-size="11" lengthAdjust="spacingAndGlyphs" textLength="73" x="1626.5" y="803.0908">-int validityDate</text><text fill="#000000" font-family="sans-serif" font-size="11" lengthAdjust="spacingAndGlyphs" textLength="40" x="1626.5" y="816.9268">-int CCV</text><line style="stroke: #A80036; stroke-width: 1.5;" x1="1621.5" x2="1774.5" y1="823.3438" y2="823.3438"/><text fill="#000000" font-family="sans-serif" font-size="11" lengthAdjust="spacingAndGlyphs" textLength="143" x="1626.5" y="838.7627">+addCredits(addtionalCredits)</text><!--MD5=[0f39e4cb6f03951afbf6d14bd2505654]
class Address--><rect fill="#FEFECE" filter="url(#fozxnp9xx27ef)" height="158.6875" id="Address" style="stroke: #A80036; stroke-width: 1.5;" width="106" x="1289" y="957.5"/><ellipse cx="1316.6" cy="973.5" fill="#ADD1B2" rx="11" ry="11" style="stroke: #A80036; stroke-width: 1.0;"/><path d="M1318.6,970 Q1318.8031,969.5 1319.0375,969.25 Q1319.2719,969 1319.5375,969 Q1320.0063,969 1320.3031,969.2813 Q1320.6,969.5625 1320.6,970.2188 L1320.6,971.7813 Q1320.6,972.4375 1320.3188,972.7188 Q1320.0375,973 1319.6,973 Q1319.2094,973 1318.9594,972.8281 Q1318.7094,972.6563 1318.6,972.2031 Q1318.5531,971.8906 1318.3813,971.7188 Q1318.0688,971.3906 1317.5063,971.2031 Q1316.9438,971 1316.3813,971 Q1315.6781,971 1315.0844,971.2813 Q1314.5063,971.5625 1314.0531,972.1875 Q1313.6,972.8125 1313.6,973.6719 L1313.6,974.5938 Q1313.6,975.625 1314.4438,976.3125 Q1315.2875,977 1316.7875,977 Q1317.6781,977 1318.3031,976.7969 Q1318.6625,976.6875 1319.0688,976.3281 Q1319.3344,976.125 1319.475,976.0625 Q1319.6156,976 1319.7875,976 Q1320.1156,976 1320.35,976.2656 Q1320.6,976.5156 1320.6,976.875 Q1320.6,977.2188 1320.2563,977.625 Q1319.7563,978.2188 1318.9594,978.5469 Q1317.9125,979 1316.6313,979 Q1315.1313,979 1313.9281,978.4063 Q1312.9594,977.9375 1312.2719,976.9219 Q1311.6,975.9063 1311.6,974.7031 L1311.6,973.6094 Q1311.6,972.3594 1312.1938,971.2656 Q1312.8031,970.1719 1313.85,969.5938 Q1314.9125,969 1316.1,969 Q1316.8188,969 1317.4438,969.25 Q1318.0688,969.5 1318.6,970 Z "/><text fill="#000000" font-family="sans-serif" font-size="12" lengthAdjust="spacingAndGlyphs" textLength="46" x="1333.4" y="978.4102">Address</text><line style="stroke: #A80036; stroke-width: 1.5;" x1="1290" x2="1394" y1="989.5" y2="989.5"/><text fill="#000000" font-family="sans-serif" font-size="11" lengthAdjust="spacingAndGlyphs" textLength="26" x="1295" y="1004.9189">-int id</text><text fill="#000000" font-family="sans-serif" font-size="11" lengthAdjust="spacingAndGlyphs" textLength="90" x="1295" y="1018.7549">-String streetName</text><text fill="#000000" font-family="sans-serif" font-size="11" lengthAdjust="spacingAndGlyphs" textLength="94" x="1295" y="1032.5908">-String doorNumber</text><text fill="#000000" font-family="sans-serif" font-size="11" lengthAdjust="spacingAndGlyphs" textLength="89" x="1295" y="1046.4268">-String postalCode</text><text fill="#000000" font-family="sans-serif" font-size="11" lengthAdjust="spacingAndGlyphs" textLength="68" x="1295" y="1060.2627">-String locality</text><text fill="#000000" font-family="sans-serif" font-size="11" lengthAdjust="spacingAndGlyphs" textLength="72" x="1295" y="1074.0986">-String country</text><text fill="#000000" font-family="sans-serif" font-size="11" lengthAdjust="spacingAndGlyphs" textLength="71" x="1295" y="1087.9346">-float longitude</text><text fill="#000000" font-family="sans-serif" font-size="11" lengthAdjust="spacingAndGlyphs" textLength="62" x="1295" y="1101.7705">-float latitude</text><line style="stroke: #A80036; stroke-width: 1.5;" x1="1290" x2="1394" y1="1108.1875" y2="1108.1875"/><!--MD5=[cf4d6237fcae255cd2e1656cf84a30e2]
class Order--><rect fill="#FEFECE" filter="url(#fozxnp9xx27ef)" height="227.8672" id="Order" style="stroke: #A80036; stroke-width: 1.5;" width="190" x="1064" y="923"/><ellipse cx="1139.25" cy="939" fill="#ADD1B2" rx="11" ry="11" style="stroke: #A80036; stroke-width: 1.0;"/><path d="M1141.25,935.5 Q1141.4531,935 1141.6875,934.75 Q1141.9219,934.5 1142.1875,934.5 Q1142.6563,934.5 1142.9531,934.7813 Q1143.25,935.0625 1143.25,935.7188 L1143.25,937.2813 Q1143.25,937.9375 1142.9688,938.2188 Q1142.6875,938.5 1142.25,938.5 Q1141.8594,938.5 1141.6094,938.3281 Q1141.3594,938.1563 1141.25,937.7031 Q1141.2031,937.3906 1141.0313,937.2188 Q1140.7188,936.8906 1140.1563,936.7031 Q1139.5938,936.5 1139.0313,936.5 Q1138.3281,936.5 1137.7344,936.7813 Q1137.1563,937.0625 1136.7031,937.6875 Q1136.25,938.3125 1136.25,939.1719 L1136.25,940.0938 Q1136.25,941.125 1137.0938,941.8125 Q1137.9375,942.5 1139.4375,942.5 Q1140.3281,942.5 1140.9531,942.2969 Q1141.3125,942.1875 1141.7188,941.8281 Q1141.9844,941.625 1142.125,941.5625 Q1142.2656,941.5 1142.4375,941.5 Q1142.7656,941.5 1143,941.7656 Q1143.25,942.0156 1143.25,942.375 Q1143.25,942.7188 1142.9063,943.125 Q1142.4063,943.7188 1141.6094,944.0469 Q1140.5625,944.5 1139.2813,944.5 Q1137.7813,944.5 1136.5781,943.9063 Q1135.6094,943.4375 1134.9219,942.4219 Q1134.25,941.4063 1134.25,940.2031 L1134.25,939.1094 Q1134.25,937.8594 1134.8438,936.7656 Q1135.4531,935.6719 1136.5,935.0938 Q1137.5625,934.5 1138.75,934.5 Q1139.4688,934.5 1140.0938,934.75 Q1140.7188,935 1141.25,935.5 Z "/><text fill="#000000" font-family="sans-serif" font-size="12" lengthAdjust="spacingAndGlyphs" textLength="31" x="1159.75" y="943.9102">Order</text><line style="stroke: #A80036; stroke-width: 1.5;" x1="1065" x2="1253" y1="955" y2="955"/><text fill="#000000" font-family="sans-serif" font-size="11" lengthAdjust="spacingAndGlyphs" textLength="26" x="1070" y="970.4189">-int id</text><text fill="#000000" font-family="sans-serif" font-size="11" lengthAdjust="spacingAndGlyphs" textLength="63" x="1070" y="984.2549">-float amount</text><text fill="#000000" font-family="sans-serif" font-size="11" lengthAdjust="spacingAndGlyphs" textLength="81" x="1070" y="998.0908">-float totalWeight</text><text fill="#000000" font-family="sans-serif" font-size="11" lengthAdjust="spacingAndGlyphs" textLength="91" x="1070" y="1011.9268">-float additionalFee</text><text fill="#000000" font-family="sans-serif" font-size="11" lengthAdjust="spacingAndGlyphs" textLength="77" x="1070" y="1025.7627">-Date orderDate</text><text fill="#000000" font-family="sans-serif" font-size="11" lengthAdjust="spacingAndGlyphs" textLength="88" x="1070" y="1039.5986">-String description</text><text fill="#000000" font-family="sans-serif" font-size="11" lengthAdjust="spacingAndGlyphs" textLength="65" x="1070" y="1053.4346">-String status</text><text fill="#000000" font-family="sans-serif" font-size="11" lengthAdjust="spacingAndGlyphs" textLength="119" x="1070" y="1067.2705">-boolean isHomeDelivery</text><text fill="#000000" font-family="sans-serif" font-size="11" lengthAdjust="spacingAndGlyphs" textLength="178" x="1070" y="1081.1064">-Map&lt;Product, Integer&gt; mapProducts</text><line style="stroke: #A80036; stroke-width: 1.5;" x1="1065" x2="1253" y1="1087.5234" y2="1087.5234"/><text fill="#000000" font-family="sans-serif" font-size="11" lengthAdjust="spacingAndGlyphs" textLength="163" x="1070" y="1102.9424">+Order(description, mapProducts,</text><text fill="#000000" font-family="sans-serif" font-size="11" lengthAdjust="spacingAndGlyphs" textLength="163" x="1070" y="1116.7783">client, pharmacy, isHomeDelivery)</text><text fill="#000000" font-family="sans-serif" font-size="11" lengthAdjust="spacingAndGlyphs" textLength="94" x="1070" y="1130.6143">+calculateAmount()</text><text fill="#000000" font-family="sans-serif" font-size="11" lengthAdjust="spacingAndGlyphs" textLength="113" x="1070" y="1144.4502">+calculateTotalWeight()</text><!--MD5=[72136138052d025cffdce3c22fbd185f]
class Product--><rect fill="#FEFECE" filter="url(#fozxnp9xx27ef)" height="117.1797" id="Product" style="stroke: #A80036; stroke-width: 1.5;" width="106" x="1040" y="1229"/><ellipse cx="1069.4" cy="1245" fill="#ADD1B2" rx="11" ry="11" style="stroke: #A80036; stroke-width: 1.0;"/><path d="M1071.4,1241.5 Q1071.6031,1241 1071.8375,1240.75 Q1072.0719,1240.5 1072.3375,1240.5 Q1072.8063,1240.5 1073.1031,1240.7813 Q1073.4,1241.0625 1073.4,1241.7188 L1073.4,1243.2813 Q1073.4,1243.9375 1073.1188,1244.2188 Q1072.8375,1244.5 1072.4,1244.5 Q1072.0094,1244.5 1071.7594,1244.3281 Q1071.5094,1244.1563 1071.4,1243.7031 Q1071.3531,1243.3906 1071.1813,1243.2188 Q1070.8688,1242.8906 1070.3063,1242.7031 Q1069.7438,1242.5 1069.1813,1242.5 Q1068.4781,1242.5 1067.8844,1242.7813 Q1067.3063,1243.0625 1066.8531,1243.6875 Q1066.4,1244.3125 1066.4,1245.1719 L1066.4,1246.0938 Q1066.4,1247.125 1067.2438,1247.8125 Q1068.0875,1248.5 1069.5875,1248.5 Q1070.4781,1248.5 1071.1031,1248.2969 Q1071.4625,1248.1875 1071.8688,1247.8281 Q1072.1344,1247.625 1072.275,1247.5625 Q1072.4156,1247.5 1072.5875,1247.5 Q1072.9156,1247.5 1073.15,1247.7656 Q1073.4,1248.0156 1073.4,1248.375 Q1073.4,1248.7188 1073.0563,1249.125 Q1072.5563,1249.7188 1071.7594,1250.0469 Q1070.7125,1250.5 1069.4313,1250.5 Q1067.9313,1250.5 1066.7281,1249.9063 Q1065.7594,1249.4375 1065.0719,1248.4219 Q1064.4,1247.4063 1064.4,1246.2031 L1064.4,1245.1094 Q1064.4,1243.8594 1064.9938,1242.7656 Q1065.6031,1241.6719 1066.65,1241.0938 Q1067.7125,1240.5 1068.9,1240.5 Q1069.6188,1240.5 1070.2438,1240.75 Q1070.8688,1241 1071.4,1241.5 Z "/><text fill="#000000" font-family="sans-serif" font-size="12" lengthAdjust="spacingAndGlyphs" textLength="42" x="1086.6" y="1249.9102">Product</text><line style="stroke: #A80036; stroke-width: 1.5;" x1="1041" x2="1145" y1="1261" y2="1261"/><text fill="#000000" font-family="sans-serif" font-size="11" lengthAdjust="spacingAndGlyphs" textLength="26" x="1046" y="1276.4189">-int id</text><text fill="#000000" font-family="sans-serif" font-size="11" lengthAdjust="spacingAndGlyphs" textLength="61" x="1046" y="1290.2549">-String name</text><text fill="#000000" font-family="sans-serif" font-size="11" lengthAdjust="spacingAndGlyphs" textLength="88" x="1046" y="1304.0908">-String description</text><text fill="#000000" font-family="sans-serif" font-size="11" lengthAdjust="spacingAndGlyphs" textLength="85" x="1046" y="1317.9268">-float unitaryPrice</text><text fill="#000000" font-family="sans-serif" font-size="11" lengthAdjust="spacingAndGlyphs" textLength="94" x="1046" y="1331.7627">-float unitaryWeight</text><line style="stroke: #A80036; stroke-width: 1.5;" x1="1041" x2="1145" y1="1338.1797" y2="1338.1797"/><!--MD5=[7f2a9fafcebe4f099f71398fd3e2ed00]
class Pharmacy--><rect fill="#FEFECE" filter="url(#fozxnp9xx27ef)" height="75.6719" id="Pharmacy" style="stroke: #A80036; stroke-width: 1.5;" width="87" x="871.5" y="1249.5"/><ellipse cx="886.5" cy="1265.5" fill="#ADD1B2" rx="11" ry="11" style="stroke: #A80036; stroke-width: 1.0;"/><path d="M888.5,1262 Q888.7031,1261.5 888.9375,1261.25 Q889.1719,1261 889.4375,1261 Q889.9063,1261 890.2031,1261.2813 Q890.5,1261.5625 890.5,1262.2188 L890.5,1263.7813 Q890.5,1264.4375 890.2188,1264.7188 Q889.9375,1265 889.5,1265 Q889.1094,1265 888.8594,1264.8281 Q888.6094,1264.6563 888.5,1264.2031 Q888.4531,1263.8906 888.2813,1263.7188 Q887.9688,1263.3906 887.4063,1263.2031 Q886.8438,1263 886.2813,1263 Q885.5781,1263 884.9844,1263.2813 Q884.4063,1263.5625 883.9531,1264.1875 Q883.5,1264.8125 883.5,1265.6719 L883.5,1266.5938 Q883.5,1267.625 884.3438,1268.3125 Q885.1875,1269 886.6875,1269 Q887.5781,1269 888.2031,1268.7969 Q888.5625,1268.6875 888.9688,1268.3281 Q889.2344,1268.125 889.375,1268.0625 Q889.5156,1268 889.6875,1268 Q890.0156,1268 890.25,1268.2656 Q890.5,1268.5156 890.5,1268.875 Q890.5,1269.2188 890.1563,1269.625 Q889.6563,1270.2188 888.8594,1270.5469 Q887.8125,1271 886.5313,1271 Q885.0313,1271 883.8281,1270.4063 Q882.8594,1269.9375 882.1719,1268.9219 Q881.5,1267.9063 881.5,1266.7031 L881.5,1265.6094 Q881.5,1264.3594 882.0938,1263.2656 Q882.7031,1262.1719 883.75,1261.5938 Q884.8125,1261 886,1261 Q886.7188,1261 887.3438,1261.25 Q887.9688,1261.5 888.5,1262 Z "/><text fill="#000000" font-family="sans-serif" font-size="12" lengthAdjust="spacingAndGlyphs" textLength="55" x="900.5" y="1270.4102">Pharmacy</text><line style="stroke: #A80036; stroke-width: 1.5;" x1="872.5" x2="957.5" y1="1281.5" y2="1281.5"/><text fill="#000000" font-family="sans-serif" font-size="11" lengthAdjust="spacingAndGlyphs" textLength="26" x="877.5" y="1296.9189">-int id</text><text fill="#000000" font-family="sans-serif" font-size="11" lengthAdjust="spacingAndGlyphs" textLength="61" x="877.5" y="1310.7549">-String name</text><line style="stroke: #A80036; stroke-width: 1.5;" x1="872.5" x2="957.5" y1="1317.1719" y2="1317.1719"/><!--MD5=[91d4151b6d4c9a3d01b6d84b2458eece]
class CreditCard--><rect fill="#FEFECE" filter="url(#fozxnp9xx27ef)" height="103.3438" id="CreditCard" style="stroke: #A80036; stroke-width: 1.5;" width="104" x="1430" y="985.5"/><ellipse cx="1450.4" cy="1001.5" fill="#ADD1B2" rx="11" ry="11" style="stroke: #A80036; stroke-width: 1.0;"/><path d="M1452.4,998 Q1452.6031,997.5 1452.8375,997.25 Q1453.0719,997 1453.3375,997 Q1453.8063,997 1454.1031,997.2813 Q1454.4,997.5625 1454.4,998.2188 L1454.4,999.7813 Q1454.4,1000.4375 1454.1188,1000.7188 Q1453.8375,1001 1453.4,1001 Q1453.0094,1001 1452.7594,1000.8281 Q1452.5094,1000.6563 1452.4,1000.2031 Q1452.3531,999.8906 1452.1813,999.7188 Q1451.8688,999.3906 1451.3063,999.2031 Q1450.7438,999 1450.1813,999 Q1449.4781,999 1448.8844,999.2813 Q1448.3063,999.5625 1447.8531,1000.1875 Q1447.4,1000.8125 1447.4,1001.6719 L1447.4,1002.5938 Q1447.4,1003.625 1448.2438,1004.3125 Q1449.0875,1005 1450.5875,1005 Q1451.4781,1005 1452.1031,1004.7969 Q1452.4625,1004.6875 1452.8688,1004.3281 Q1453.1344,1004.125 1453.275,1004.0625 Q1453.4156,1004 1453.5875,1004 Q1453.9156,1004 1454.15,1004.2656 Q1454.4,1004.5156 1454.4,1004.875 Q1454.4,1005.2188 1454.0563,1005.625 Q1453.5563,1006.2188 1452.7594,1006.5469 Q1451.7125,1007 1450.4313,1007 Q1448.9313,1007 1447.7281,1006.4063 Q1446.7594,1005.9375 1446.0719,1004.9219 Q1445.4,1003.9063 1445.4,1002.7031 L1445.4,1001.6094 Q1445.4,1000.3594 1445.9938,999.2656 Q1446.6031,998.1719 1447.65,997.5938 Q1448.7125,997 1449.9,997 Q1450.6188,997 1451.2438,997.25 Q1451.8688,997.5 1452.4,998 Z "/><text fill="#000000" font-family="sans-serif" font-size="12" lengthAdjust="spacingAndGlyphs" textLength="60" x="1465.6" y="1006.4102">CreditCard</text><line style="stroke: #A80036; stroke-width: 1.5;" x1="1431" x2="1533" y1="1017.5" y2="1017.5"/><text fill="#000000" font-family="sans-serif" font-size="11" lengthAdjust="spacingAndGlyphs" textLength="26" x="1436" y="1032.9189">-int id</text><text fill="#000000" font-family="sans-serif" font-size="11" lengthAdjust="spacingAndGlyphs" textLength="92" x="1436" y="1046.7549">-Long creditCardNr</text><text fill="#000000" font-family="sans-serif" font-size="11" lengthAdjust="spacingAndGlyphs" textLength="90" x="1436" y="1060.5908">-String validityDate</text><text fill="#000000" font-family="sans-serif" font-size="11" lengthAdjust="spacingAndGlyphs" textLength="62" x="1436" y="1074.4268">-Integer CCV</text><line style="stroke: #A80036; stroke-width: 1.5;" x1="1431" x2="1533" y1="1080.8438" y2="1080.8438"/><!--MD5=[894442645724153f40a9f7a43026dbfc]
class Invoice--><rect fill="#FEFECE" filter="url(#fozxnp9xx27ef)" height="103.3438" id="Invoice" style="stroke: #A80036; stroke-width: 1.5;" width="198" x="1763" y="547"/><ellipse cx="1838.75" cy="563" fill="#ADD1B2" rx="11" ry="11" style="stroke: #A80036; stroke-width: 1.0;"/><path d="M1840.75,559.5 Q1840.9531,559 1841.1875,558.75 Q1841.4219,558.5 1841.6875,558.5 Q1842.1563,558.5 1842.4531,558.7813 Q1842.75,559.0625 1842.75,559.7188 L1842.75,561.2813 Q1842.75,561.9375 1842.4688,562.2188 Q1842.1875,562.5 1841.75,562.5 Q1841.3594,562.5 1841.1094,562.3281 Q1840.8594,562.1563 1840.75,561.7031 Q1840.7031,561.3906 1840.5313,561.2188 Q1840.2188,560.8906 1839.6563,560.7031 Q1839.0938,560.5 1838.5313,560.5 Q1837.8281,560.5 1837.2344,560.7813 Q1836.6563,561.0625 1836.2031,561.6875 Q1835.75,562.3125 1835.75,563.1719 L1835.75,564.0938 Q1835.75,565.125 1836.5938,565.8125 Q1837.4375,566.5 1838.9375,566.5 Q1839.8281,566.5 1840.4531,566.2969 Q1840.8125,566.1875 1841.2188,565.8281 Q1841.4844,565.625 1841.625,565.5625 Q1841.7656,565.5 1841.9375,565.5 Q1842.2656,565.5 1842.5,565.7656 Q1842.75,566.0156 1842.75,566.375 Q1842.75,566.7188 1842.4063,567.125 Q1841.9063,567.7188 1841.1094,568.0469 Q1840.0625,568.5 1838.7813,568.5 Q1837.2813,568.5 1836.0781,567.9063 Q1835.1094,567.4375 1834.4219,566.4219 Q1833.75,565.4063 1833.75,564.2031 L1833.75,563.1094 Q1833.75,561.8594 1834.3438,560.7656 Q1834.9531,559.6719 1836,559.0938 Q1837.0625,558.5 1838.25,558.5 Q1838.9688,558.5 1839.5938,558.75 Q1840.2188,559 1840.75,559.5 Z "/><text fill="#000000" font-family="sans-serif" font-size="12" lengthAdjust="spacingAndGlyphs" textLength="38" x="1859.25" y="567.9102">Invoice</text><line style="stroke: #A80036; stroke-width: 1.5;" x1="1764" x2="1960" y1="579" y2="579"/><text fill="#000000" font-family="sans-serif" font-size="11" lengthAdjust="spacingAndGlyphs" textLength="26" x="1769" y="594.4189">-int id</text><text fill="#000000" font-family="sans-serif" font-size="11" lengthAdjust="spacingAndGlyphs" textLength="77" x="1769" y="608.2549">-Date orderDate</text><text fill="#000000" font-family="sans-serif" font-size="11" lengthAdjust="spacingAndGlyphs" textLength="85" x="1769" y="622.0908">-float totalAmount</text><text fill="#000000" font-family="sans-serif" font-size="11" lengthAdjust="spacingAndGlyphs" textLength="186" x="1769" y="635.9268">-Map&lt;CreditCard, Float&gt; mapPayments</text><line style="stroke: #A80036; stroke-width: 1.5;" x1="1764" x2="1960" y1="642.3438" y2="642.3438"/><!--MD5=[7655a4d4bd54a6253b7313a085dd4122]
class OrderService--><rect fill="#FEFECE" filter="url(#fozxnp9xx27ef)" height="89.5078" id="OrderService" style="stroke: #A80036; stroke-width: 1.5;" width="359" x="1172.5" y="553.5"/><ellipse cx="1312.25" cy="569.5" fill="#ADD1B2" rx="11" ry="11" style="stroke: #A80036; stroke-width: 1.0;"/><path d="M1314.25,566 Q1314.4531,565.5 1314.6875,565.25 Q1314.9219,565 1315.1875,565 Q1315.6563,565 1315.9531,565.2813 Q1316.25,565.5625 1316.25,566.2188 L1316.25,567.7813 Q1316.25,568.4375 1315.9688,568.7188 Q1315.6875,569 1315.25,569 Q1314.8594,569 1314.6094,568.8281 Q1314.3594,568.6563 1314.25,568.2031 Q1314.2031,567.8906 1314.0313,567.7188 Q1313.7188,567.3906 1313.1563,567.2031 Q1312.5938,567 1312.0313,567 Q1311.3281,567 1310.7344,567.2813 Q1310.1563,567.5625 1309.7031,568.1875 Q1309.25,568.8125 1309.25,569.6719 L1309.25,570.5938 Q1309.25,571.625 1310.0938,572.3125 Q1310.9375,573 1312.4375,573 Q1313.3281,573 1313.9531,572.7969 Q1314.3125,572.6875 1314.7188,572.3281 Q1314.9844,572.125 1315.125,572.0625 Q1315.2656,572 1315.4375,572 Q1315.7656,572 1316,572.2656 Q1316.25,572.5156 1316.25,572.875 Q1316.25,573.2188 1315.9063,573.625 Q1315.4063,574.2188 1314.6094,574.5469 Q1313.5625,575 1312.2813,575 Q1310.7813,575 1309.5781,574.4063 Q1308.6094,573.9375 1307.9219,572.9219 Q1307.25,571.9063 1307.25,570.7031 L1307.25,569.6094 Q1307.25,568.3594 1307.8438,567.2656 Q1308.4531,566.1719 1309.5,565.5938 Q1310.5625,565 1311.75,565 Q1312.4688,565 1313.0938,565.25 Q1313.7188,565.5 1314.25,566 Z "/><text fill="#000000" font-family="sans-serif" font-size="12" lengthAdjust="spacingAndGlyphs" textLength="71" x="1332.75" y="574.4102">OrderService</text><line style="stroke: #A80036; stroke-width: 1.5;" x1="1173.5" x2="1530.5" y1="585.5" y2="585.5"/><line style="stroke: #A80036; stroke-width: 1.5;" x1="1173.5" x2="1530.5" y1="593.5" y2="593.5"/><text fill="#000000" font-family="sans-serif" font-size="11" lengthAdjust="spacingAndGlyphs" textLength="79" x="1178.5" y="608.9189">+OrderService()</text><text fill="#000000" font-family="sans-serif" font-size="11" lengthAdjust="spacingAndGlyphs" textLength="347" x="1178.5" y="622.7549">+addOrder(description, mapProducts, client, pharmacy, isHomeDelivery)</text><text fill="#000000" font-family="sans-serif" font-size="11" lengthAdjust="spacingAndGlyphs" textLength="105" x="1178.5" y="636.5908">+registerOrder(order)</text><!--MD5=[28160fdc0be430cd6f04db15a7547552]
class PharmacyService--><rect fill="#FEFECE" filter="url(#fozxnp9xx27ef)" height="75.6719" id="PharmacyService" style="stroke: #A80036; stroke-width: 1.5;" width="127" x="790.5" y="560.5"/><ellipse cx="805.5" cy="576.5" fill="#ADD1B2" rx="11" ry="11" style="stroke: #A80036; stroke-width: 1.0;"/><path d="M807.5,573 Q807.7031,572.5 807.9375,572.25 Q808.1719,572 808.4375,572 Q808.9063,572 809.2031,572.2813 Q809.5,572.5625 809.5,573.2188 L809.5,574.7813 Q809.5,575.4375 809.2188,575.7188 Q808.9375,576 808.5,576 Q808.1094,576 807.8594,575.8281 Q807.6094,575.6563 807.5,575.2031 Q807.4531,574.8906 807.2813,574.7188 Q806.9688,574.3906 806.4063,574.2031 Q805.8438,574 805.2813,574 Q804.5781,574 803.9844,574.2813 Q803.4063,574.5625 802.9531,575.1875 Q802.5,575.8125 802.5,576.6719 L802.5,577.5938 Q802.5,578.625 803.3438,579.3125 Q804.1875,580 805.6875,580 Q806.5781,580 807.2031,579.7969 Q807.5625,579.6875 807.9688,579.3281 Q808.2344,579.125 808.375,579.0625 Q808.5156,579 808.6875,579 Q809.0156,579 809.25,579.2656 Q809.5,579.5156 809.5,579.875 Q809.5,580.2188 809.1563,580.625 Q808.6563,581.2188 807.8594,581.5469 Q806.8125,582 805.5313,582 Q804.0313,582 802.8281,581.4063 Q801.8594,580.9375 801.1719,579.9219 Q800.5,578.9063 800.5,577.7031 L800.5,576.6094 Q800.5,575.3594 801.0938,574.2656 Q801.7031,573.1719 802.75,572.5938 Q803.8125,572 805,572 Q805.7188,572 806.3438,572.25 Q806.9688,572.5 807.5,573 Z "/><text fill="#000000" font-family="sans-serif" font-size="12" lengthAdjust="spacingAndGlyphs" textLength="95" x="819.5" y="581.4102">PharmacyService</text><line style="stroke: #A80036; stroke-width: 1.5;" x1="791.5" x2="916.5" y1="592.5" y2="592.5"/><line style="stroke: #A80036; stroke-width: 1.5;" x1="791.5" x2="916.5" y1="600.5" y2="600.5"/><text fill="#000000" font-family="sans-serif" font-size="11" lengthAdjust="spacingAndGlyphs" textLength="99" x="796.5" y="615.9189">+PharmacyService()</text><text fill="#000000" font-family="sans-serif" font-size="11" lengthAdjust="spacingAndGlyphs" textLength="85" x="796.5" y="629.7549">+getPharmacies()</text><!--MD5=[58a28f2d5507ae66b1dc95167690ce61]
class ProductService--><rect fill="#FEFECE" filter="url(#fozxnp9xx27ef)" height="75.6719" id="ProductService" style="stroke: #A80036; stroke-width: 1.5;" width="184" x="953" y="560.5"/><ellipse cx="999.75" cy="576.5" fill="#ADD1B2" rx="11" ry="11" style="stroke: #A80036; stroke-width: 1.0;"/><path d="M1001.75,573 Q1001.9531,572.5 1002.1875,572.25 Q1002.4219,572 1002.6875,572 Q1003.1563,572 1003.4531,572.2813 Q1003.75,572.5625 1003.75,573.2188 L1003.75,574.7813 Q1003.75,575.4375 1003.4688,575.7188 Q1003.1875,576 1002.75,576 Q1002.3594,576 1002.1094,575.8281 Q1001.8594,575.6563 1001.75,575.2031 Q1001.7031,574.8906 1001.5313,574.7188 Q1001.2188,574.3906 1000.6563,574.2031 Q1000.0938,574 999.5313,574 Q998.8281,574 998.2344,574.2813 Q997.6563,574.5625 997.2031,575.1875 Q996.75,575.8125 996.75,576.6719 L996.75,577.5938 Q996.75,578.625 997.5938,579.3125 Q998.4375,580 999.9375,580 Q1000.8281,580 1001.4531,579.7969 Q1001.8125,579.6875 1002.2188,579.3281 Q1002.4844,579.125 1002.625,579.0625 Q1002.7656,579 1002.9375,579 Q1003.2656,579 1003.5,579.2656 Q1003.75,579.5156 1003.75,579.875 Q1003.75,580.2188 1003.4063,580.625 Q1002.9063,581.2188 1002.1094,581.5469 Q1001.0625,582 999.7813,582 Q998.2813,582 997.0781,581.4063 Q996.1094,580.9375 995.4219,579.9219 Q994.75,578.9063 994.75,577.7031 L994.75,576.6094 Q994.75,575.3594 995.3438,574.2656 Q995.9531,573.1719 997,572.5938 Q998.0625,572 999.25,572 Q999.9688,572 1000.5938,572.25 Q1001.2188,572.5 1001.75,573 Z "/><text fill="#000000" font-family="sans-serif" font-size="12" lengthAdjust="spacingAndGlyphs" textLength="82" x="1020.25" y="581.4102">ProductService</text><line style="stroke: #A80036; stroke-width: 1.5;" x1="954" x2="1136" y1="592.5" y2="592.5"/><line style="stroke: #A80036; stroke-width: 1.5;" x1="954" x2="1136" y1="600.5" y2="600.5"/><text fill="#000000" font-family="sans-serif" font-size="11" lengthAdjust="spacingAndGlyphs" textLength="88" x="959" y="615.9189">+ProductService()</text><text fill="#000000" font-family="sans-serif" font-size="11" lengthAdjust="spacingAndGlyphs" textLength="172" x="959" y="629.7549">+getAvailableProducts(pharmacyId)</text><!--MD5=[1694002c828dea395e5c4a77f70ed3d4]
class ClientService--><rect fill="#FEFECE" filter="url(#fozxnp9xx27ef)" height="89.5078" id="ClientService" style="stroke: #A80036; stroke-width: 1.5;" width="161" x="1566.5" y="553.5"/><ellipse cx="1607.15" cy="569.5" fill="#ADD1B2" rx="11" ry="11" style="stroke: #A80036; stroke-width: 1.0;"/><path d="M1609.15,566 Q1609.3531,565.5 1609.5875,565.25 Q1609.8219,565 1610.0875,565 Q1610.5563,565 1610.8531,565.2813 Q1611.15,565.5625 1611.15,566.2188 L1611.15,567.7813 Q1611.15,568.4375 1610.8688,568.7188 Q1610.5875,569 1610.15,569 Q1609.7594,569 1609.5094,568.8281 Q1609.2594,568.6563 1609.15,568.2031 Q1609.1031,567.8906 1608.9313,567.7188 Q1608.6188,567.3906 1608.0563,567.2031 Q1607.4938,567 1606.9313,567 Q1606.2281,567 1605.6344,567.2813 Q1605.0563,567.5625 1604.6031,568.1875 Q1604.15,568.8125 1604.15,569.6719 L1604.15,570.5938 Q1604.15,571.625 1604.9938,572.3125 Q1605.8375,573 1607.3375,573 Q1608.2281,573 1608.8531,572.7969 Q1609.2125,572.6875 1609.6188,572.3281 Q1609.8844,572.125 1610.025,572.0625 Q1610.1656,572 1610.3375,572 Q1610.6656,572 1610.9,572.2656 Q1611.15,572.5156 1611.15,572.875 Q1611.15,573.2188 1610.8063,573.625 Q1610.3063,574.2188 1609.5094,574.5469 Q1608.4625,575 1607.1813,575 Q1605.6813,575 1604.4781,574.4063 Q1603.5094,573.9375 1602.8219,572.9219 Q1602.15,571.9063 1602.15,570.7031 L1602.15,569.6094 Q1602.15,568.3594 1602.7438,567.2656 Q1603.3531,566.1719 1604.4,565.5938 Q1605.4625,565 1606.65,565 Q1607.3688,565 1607.9938,565.25 Q1608.6188,565.5 1609.15,566 Z "/><text fill="#000000" font-family="sans-serif" font-size="12" lengthAdjust="spacingAndGlyphs" textLength="72" x="1626.85" y="574.4102">ClientService</text><line style="stroke: #A80036; stroke-width: 1.5;" x1="1567.5" x2="1726.5" y1="585.5" y2="585.5"/><line style="stroke: #A80036; stroke-width: 1.5;" x1="1567.5" x2="1726.5" y1="593.5" y2="593.5"/><text fill="#000000" font-family="sans-serif" font-size="11" lengthAdjust="spacingAndGlyphs" textLength="77" x="1572.5" y="608.9189">+ClientService()</text><text fill="#000000" font-family="sans-serif" font-size="11" lengthAdjust="spacingAndGlyphs" textLength="113" x="1572.5" y="622.7549">+getUserByEmail(email)</text><text fill="#000000" font-family="sans-serif" font-size="11" lengthAdjust="spacingAndGlyphs" textLength="149" x="1572.5" y="636.5908">+getCreditCardsByClient(email)</text><!--MD5=[4b2d61224b33971326a22fe5d809d926]
class DataHandler--><rect fill="#FEFECE" filter="url(#fozxnp9xx27ef)" height="75.6719" id="DataHandler" style="stroke: #A80036; stroke-width: 1.5;" width="104" x="266" y="560.5"/><ellipse cx="281.9" cy="576.5" fill="#ADD1B2" rx="11" ry="11" style="stroke: #A80036; stroke-width: 1.0;"/><path d="M283.9,573 Q284.1031,572.5 284.3375,572.25 Q284.5719,572 284.8375,572 Q285.3063,572 285.6031,572.2813 Q285.9,572.5625 285.9,573.2188 L285.9,574.7813 Q285.9,575.4375 285.6188,575.7188 Q285.3375,576 284.9,576 Q284.5094,576 284.2594,575.8281 Q284.0094,575.6563 283.9,575.2031 Q283.8531,574.8906 283.6813,574.7188 Q283.3688,574.3906 282.8063,574.2031 Q282.2438,574 281.6813,574 Q280.9781,574 280.3844,574.2813 Q279.8063,574.5625 279.3531,575.1875 Q278.9,575.8125 278.9,576.6719 L278.9,577.5938 Q278.9,578.625 279.7438,579.3125 Q280.5875,580 282.0875,580 Q282.9781,580 283.6031,579.7969 Q283.9625,579.6875 284.3688,579.3281 Q284.6344,579.125 284.775,579.0625 Q284.9156,579 285.0875,579 Q285.4156,579 285.65,579.2656 Q285.9,579.5156 285.9,579.875 Q285.9,580.2188 285.5563,580.625 Q285.0563,581.2188 284.2594,581.5469 Q283.2125,582 281.9313,582 Q280.4313,582 279.2281,581.4063 Q278.2594,580.9375 277.5719,579.9219 Q276.9,578.9063 276.9,577.7031 L276.9,576.6094 Q276.9,575.3594 277.4938,574.2656 Q278.1031,573.1719 279.15,572.5938 Q280.2125,572 281.4,572 Q282.1188,572 282.7438,572.25 Q283.3688,572.5 283.9,573 Z "/><text fill="#000000" font-family="sans-serif" font-size="12" lengthAdjust="spacingAndGlyphs" textLength="70" x="296.1" y="581.4102">DataHandler</text><line style="stroke: #A80036; stroke-width: 1.5;" x1="267" x2="369" y1="592.5" y2="592.5"/><line style="stroke: #A80036; stroke-width: 1.5;" x1="267" x2="369" y1="600.5" y2="600.5"/><text fill="#000000" font-family="sans-serif" font-size="11" lengthAdjust="spacingAndGlyphs" textLength="92" x="272" y="615.9189">+openConnection()</text><text fill="#000000" font-family="sans-serif" font-size="11" lengthAdjust="spacingAndGlyphs" textLength="52" x="272" y="629.7549">+closeAll()</text><!--MD5=[b860ecc58d0ca70e482845cb1f7b4615]
class PharmacyDB--><rect fill="#FEFECE" filter="url(#fozxnp9xx27ef)" height="75.6719" id="PharmacyDB" style="stroke: #A80036; stroke-width: 1.5;" width="104" x="38" y="748.5"/><ellipse cx="53" cy="764.5" fill="#ADD1B2" rx="11" ry="11" style="stroke: #A80036; stroke-width: 1.0;"/><path d="M55,761 Q55.2031,760.5 55.4375,760.25 Q55.6719,760 55.9375,760 Q56.4063,760 56.7031,760.2813 Q57,760.5625 57,761.2188 L57,762.7813 Q57,763.4375 56.7188,763.7188 Q56.4375,764 56,764 Q55.6094,764 55.3594,763.8281 Q55.1094,763.6563 55,763.2031 Q54.9531,762.8906 54.7813,762.7188 Q54.4688,762.3906 53.9063,762.2031 Q53.3438,762 52.7813,762 Q52.0781,762 51.4844,762.2813 Q50.9063,762.5625 50.4531,763.1875 Q50,763.8125 50,764.6719 L50,765.5938 Q50,766.625 50.8438,767.3125 Q51.6875,768 53.1875,768 Q54.0781,768 54.7031,767.7969 Q55.0625,767.6875 55.4688,767.3281 Q55.7344,767.125 55.875,767.0625 Q56.0156,767 56.1875,767 Q56.5156,767 56.75,767.2656 Q57,767.5156 57,767.875 Q57,768.2188 56.6563,768.625 Q56.1563,769.2188 55.3594,769.5469 Q54.3125,770 53.0313,770 Q51.5313,770 50.3281,769.4063 Q49.3594,768.9375 48.6719,767.9219 Q48,766.9063 48,765.7031 L48,764.6094 Q48,763.3594 48.5938,762.2656 Q49.2031,761.1719 50.25,760.5938 Q51.3125,760 52.5,760 Q53.2188,760 53.8438,760.25 Q54.4688,760.5 55,761 Z "/><text fill="#000000" font-family="sans-serif" font-size="12" lengthAdjust="spacingAndGlyphs" textLength="72" x="67" y="769.4102">PharmacyDB</text><line style="stroke: #A80036; stroke-width: 1.5;" x1="39" x2="141" y1="780.5" y2="780.5"/><line style="stroke: #A80036; stroke-width: 1.5;" x1="39" x2="141" y1="788.5" y2="788.5"/><text fill="#000000" font-family="sans-serif" font-size="11" lengthAdjust="spacingAndGlyphs" textLength="76" x="44" y="803.9189">+PharmacyDB()</text><text fill="#000000" font-family="sans-serif" font-size="11" lengthAdjust="spacingAndGlyphs" textLength="85" x="44" y="817.7549">+getPharmacies()</text><!--MD5=[754da686d7bb9aed9b7dcea4de3b7227]
class OrderDB--><rect fill="#FEFECE" filter="url(#fozxnp9xx27ef)" height="75.6719" id="OrderDB" style="stroke: #A80036; stroke-width: 1.5;" width="117" x="396.5" y="748.5"/><ellipse cx="428.15" cy="764.5" fill="#ADD1B2" rx="11" ry="11" style="stroke: #A80036; stroke-width: 1.0;"/><path d="M430.15,761 Q430.3531,760.5 430.5875,760.25 Q430.8219,760 431.0875,760 Q431.5563,760 431.8531,760.2813 Q432.15,760.5625 432.15,761.2188 L432.15,762.7813 Q432.15,763.4375 431.8688,763.7188 Q431.5875,764 431.15,764 Q430.7594,764 430.5094,763.8281 Q430.2594,763.6563 430.15,763.2031 Q430.1031,762.8906 429.9313,762.7188 Q429.6188,762.3906 429.0563,762.2031 Q428.4938,762 427.9313,762 Q427.2281,762 426.6344,762.2813 Q426.0563,762.5625 425.6031,763.1875 Q425.15,763.8125 425.15,764.6719 L425.15,765.5938 Q425.15,766.625 425.9938,767.3125 Q426.8375,768 428.3375,768 Q429.2281,768 429.8531,767.7969 Q430.2125,767.6875 430.6188,767.3281 Q430.8844,767.125 431.025,767.0625 Q431.1656,767 431.3375,767 Q431.6656,767 431.9,767.2656 Q432.15,767.5156 432.15,767.875 Q432.15,768.2188 431.8063,768.625 Q431.3063,769.2188 430.5094,769.5469 Q429.4625,770 428.1813,770 Q426.6813,770 425.4781,769.4063 Q424.5094,768.9375 423.8219,767.9219 Q423.15,766.9063 423.15,765.7031 L423.15,764.6094 Q423.15,763.3594 423.7438,762.2656 Q424.3531,761.1719 425.4,760.5938 Q426.4625,760 427.65,760 Q428.3688,760 428.9938,760.25 Q429.6188,760.5 430.15,761 Z "/><text fill="#000000" font-family="sans-serif" font-size="12" lengthAdjust="spacingAndGlyphs" textLength="48" x="445.85" y="769.4102">OrderDB</text><line style="stroke: #A80036; stroke-width: 1.5;" x1="397.5" x2="512.5" y1="780.5" y2="780.5"/><line style="stroke: #A80036; stroke-width: 1.5;" x1="397.5" x2="512.5" y1="788.5" y2="788.5"/><text fill="#000000" font-family="sans-serif" font-size="11" lengthAdjust="spacingAndGlyphs" textLength="56" x="402.5" y="803.9189">+OrderDB()</text><text fill="#000000" font-family="sans-serif" font-size="11" lengthAdjust="spacingAndGlyphs" textLength="105" x="402.5" y="817.7549">+registerOrder(order)</text><!--MD5=[14642d0f06463c9c71840e97f6df5111]
class ProductDB--><rect fill="#FEFECE" filter="url(#fozxnp9xx27ef)" height="75.6719" id="ProductDB" style="stroke: #A80036; stroke-width: 1.5;" width="184" x="177" y="748.5"/><ellipse cx="235.25" cy="764.5" fill="#ADD1B2" rx="11" ry="11" style="stroke: #A80036; stroke-width: 1.0;"/><path d="M237.25,761 Q237.4531,760.5 237.6875,760.25 Q237.9219,760 238.1875,760 Q238.6563,760 238.9531,760.2813 Q239.25,760.5625 239.25,761.2188 L239.25,762.7813 Q239.25,763.4375 238.9688,763.7188 Q238.6875,764 238.25,764 Q237.8594,764 237.6094,763.8281 Q237.3594,763.6563 237.25,763.2031 Q237.2031,762.8906 237.0313,762.7188 Q236.7188,762.3906 236.1563,762.2031 Q235.5938,762 235.0313,762 Q234.3281,762 233.7344,762.2813 Q233.1563,762.5625 232.7031,763.1875 Q232.25,763.8125 232.25,764.6719 L232.25,765.5938 Q232.25,766.625 233.0938,767.3125 Q233.9375,768 235.4375,768 Q236.3281,768 236.9531,767.7969 Q237.3125,767.6875 237.7188,767.3281 Q237.9844,767.125 238.125,767.0625 Q238.2656,767 238.4375,767 Q238.7656,767 239,767.2656 Q239.25,767.5156 239.25,767.875 Q239.25,768.2188 238.9063,768.625 Q238.4063,769.2188 237.6094,769.5469 Q236.5625,770 235.2813,770 Q233.7813,770 232.5781,769.4063 Q231.6094,768.9375 230.9219,767.9219 Q230.25,766.9063 230.25,765.7031 L230.25,764.6094 Q230.25,763.3594 230.8438,762.2656 Q231.4531,761.1719 232.5,760.5938 Q233.5625,760 234.75,760 Q235.4688,760 236.0938,760.25 Q236.7188,760.5 237.25,761 Z "/><text fill="#000000" font-family="sans-serif" font-size="12" lengthAdjust="spacingAndGlyphs" textLength="59" x="255.75" y="769.4102">ProductDB</text><line style="stroke: #A80036; stroke-width: 1.5;" x1="178" x2="360" y1="780.5" y2="780.5"/><line style="stroke: #A80036; stroke-width: 1.5;" x1="178" x2="360" y1="788.5" y2="788.5"/><text fill="#000000" font-family="sans-serif" font-size="11" lengthAdjust="spacingAndGlyphs" textLength="65" x="183" y="803.9189">+ProductDB()</text><text fill="#000000" font-family="sans-serif" font-size="11" lengthAdjust="spacingAndGlyphs" textLength="172" x="183" y="817.7549">+getAvailableProducts(pharmacyId)</text><!--MD5=[79201099e7ad95730d4f601b46d6ddd1]
class ClientDB--><rect fill="#FEFECE" filter="url(#fozxnp9xx27ef)" height="89.5078" id="ClientDB" style="stroke: #A80036; stroke-width: 1.5;" width="161" x="548.5" y="741.5"/><ellipse cx="600.25" cy="757.5" fill="#ADD1B2" rx="11" ry="11" style="stroke: #A80036; stroke-width: 1.0;"/><path d="M602.25,754 Q602.4531,753.5 602.6875,753.25 Q602.9219,753 603.1875,753 Q603.6563,753 603.9531,753.2813 Q604.25,753.5625 604.25,754.2188 L604.25,755.7813 Q604.25,756.4375 603.9688,756.7188 Q603.6875,757 603.25,757 Q602.8594,757 602.6094,756.8281 Q602.3594,756.6563 602.25,756.2031 Q602.2031,755.8906 602.0313,755.7188 Q601.7188,755.3906 601.1563,755.2031 Q600.5938,755 600.0313,755 Q599.3281,755 598.7344,755.2813 Q598.1563,755.5625 597.7031,756.1875 Q597.25,756.8125 597.25,757.6719 L597.25,758.5938 Q597.25,759.625 598.0938,760.3125 Q598.9375,761 600.4375,761 Q601.3281,761 601.9531,760.7969 Q602.3125,760.6875 602.7188,760.3281 Q602.9844,760.125 603.125,760.0625 Q603.2656,760 603.4375,760 Q603.7656,760 604,760.2656 Q604.25,760.5156 604.25,760.875 Q604.25,761.2188 603.9063,761.625 Q603.4063,762.2188 602.6094,762.5469 Q601.5625,763 600.2813,763 Q598.7813,763 597.5781,762.4063 Q596.6094,761.9375 595.9219,760.9219 Q595.25,759.9063 595.25,758.7031 L595.25,757.6094 Q595.25,756.3594 595.8438,755.2656 Q596.4531,754.1719 597.5,753.5938 Q598.5625,753 599.75,753 Q600.4688,753 601.0938,753.25 Q601.7188,753.5 602.25,754 Z "/><text fill="#000000" font-family="sans-serif" font-size="12" lengthAdjust="spacingAndGlyphs" textLength="49" x="620.75" y="762.4102">ClientDB</text><line style="stroke: #A80036; stroke-width: 1.5;" x1="549.5" x2="708.5" y1="773.5" y2="773.5"/><line style="stroke: #A80036; stroke-width: 1.5;" x1="549.5" x2="708.5" y1="781.5" y2="781.5"/><text fill="#000000" font-family="sans-serif" font-size="11" lengthAdjust="spacingAndGlyphs" textLength="54" x="554.5" y="796.9189">+ClientDB()</text><text fill="#000000" font-family="sans-serif" font-size="11" lengthAdjust="spacingAndGlyphs" textLength="113" x="554.5" y="810.7549">+getUserByEmail(email)</text><text fill="#000000" font-family="sans-serif" font-size="11" lengthAdjust="spacingAndGlyphs" textLength="149" x="554.5" y="824.5908">+getCreditCardsByClient(email)</text><!--MD5=[f40d64c3825bdc96a4efd5b7e3ff1420]
reverse link DataHandler to PharmacyDB--><path d="M255.919,649.315 C226.465,673.041 190.83,701.878 159,728 C151.044,734.529 142.605,741.513 134.459,748.284 " fill="none" id="DataHandler&lt;-PharmacyDB" style="stroke: #A80036; stroke-width: 1.0;"/><polygon fill="none" points="251.614,643.795,271.584,636.71,260.391,654.702,251.614,643.795" style="stroke: #A80036; stroke-width: 1.0;"/><!--MD5=[92b0f60a0e0bbfb4c881030f1b2815dc]
reverse link DataHandler to ProductDB--><path d="M303.045,656.267 C295.164,686.184 285.721,722.029 278.781,748.372 " fill="none" id="DataHandler&lt;-ProductDB" style="stroke: #A80036; stroke-width: 1.0;"/><polygon fill="none" points="296.338,654.25,308.202,636.693,309.876,657.816,296.338,654.25" style="stroke: #A80036; stroke-width: 1.0;"/><!--MD5=[3e68ff64a050c8736bbdec119ca630fc]
reverse link DataHandler to ClientDB--><path d="M373.201,649.592 C393.998,666.633 418.554,684.71 443,698 C479.303,717.737 493.433,710.79 531,728 C539.788,732.026 548.802,736.617 557.633,741.41 " fill="none" id="DataHandler&lt;-ClientDB" style="stroke: #A80036; stroke-width: 1.0;"/><polygon fill="none" points="368.524,654.805,357.749,636.56,377.55,644.103,368.524,654.805" style="stroke: #A80036; stroke-width: 1.0;"/><!--MD5=[a70a1ce0b64eb5f63a24e19fe51145d7]
reverse link DataHandler to OrderDB--><path d="M357.29,652.843 C379.806,683.412 407.504,721.016 427.653,748.372 " fill="none" id="DataHandler&lt;-OrderDB" style="stroke: #A80036; stroke-width: 1.0;"/><polygon fill="none" points="351.62,656.948,345.395,636.693,362.892,648.645,351.62,656.948" style="stroke: #A80036; stroke-width: 1.0;"/><!--MD5=[a605f9a646bac91c0f1ec4bed5c60b13]
reverse link User to Client--><path d="M1983.87,663.317 C1981.93,664.768 1979.97,666.166 1978,667.5 C1915.13,710.129 1834.39,742.137 1775.78,761.983 " fill="none" id="User&lt;-Client" style="stroke: #A80036; stroke-width: 1.0;"/><polygon fill="none" points="1979.66,657.71,1999.52,650.318,1988.61,668.48,1979.66,657.71" style="stroke: #A80036; stroke-width: 1.0;"/><!--MD5=[a36b29e78612905c5aab28d0d19b6079]
link MakeAnOrderUI to MakeAnOrderController--><path d="M2336.94,128.75 C2328.62,152.75 2315.12,191.71 2302.49,228.15 " fill="none" id="MakeAnOrderUI-&gt;MakeAnOrderController" style="stroke: #A80036; stroke-width: 1.0; stroke-dasharray: 7.0,7.0;"/><polygon fill="#A80036" points="2300.8,233.04,2307.5321,225.8512,2302.4409,228.3169,2299.9752,223.2257,2300.8,233.04" style="stroke: #A80036; stroke-width: 1.0;"/><!--MD5=[8786125608facbe9346bb8c78c67cd98]
link MakeAnOrderUI to GenerateInvoiceController--><path d="M2369.36,128.59 C2381.59,140.49 2396.44,155.43 2409,169.5 C2440.51,204.79 2473.83,247.15 2497.18,277.75 " fill="none" id="MakeAnOrderUI-&gt;GenerateInvoiceController" style="stroke: #A80036; stroke-width: 1.0; stroke-dasharray: 7.0,7.0;"/><polygon fill="#A80036" points="2500.26,281.8,2497.9998,272.214,2497.2349,277.8189,2491.63,277.0541,2500.26,281.8" style="stroke: #A80036; stroke-width: 1.0;"/><!--MD5=[da044d77d4d681fe9cef81e1781c5eb3]
link MakeAnOrderController to ApplicationPOT--><path d="M2256.45,406.593 C2248.07,455.924 2237.89,515.772 2231.2,555.154 " fill="none" id="MakeAnOrderController-&gt;ApplicationPOT" style="stroke: #A80036; stroke-width: 1.0; stroke-dasharray: 7.0,7.0;"/><polygon fill="#A80036" points="2230.32,560.332,2235.7729,552.1304,2231.1587,555.4028,2227.8863,550.7886,2230.32,560.332" style="stroke: #A80036; stroke-width: 1.0;"/><!--MD5=[86c56b58e3b3d58f3f9123d18f3804af]
link MakeAnOrderController to UserSession--><path d="M2303.19,406.593 C2322.89,458.96 2347.05,523.178 2361.72,562.185 " fill="none" id="MakeAnOrderController-&gt;UserSession" style="stroke: #A80036; stroke-width: 1.0; stroke-dasharray: 7.0,7.0;"/><polygon fill="#A80036" points="2363.63,567.283,2364.2001,557.4507,2361.8672,562.6041,2356.7138,560.2712,2363.63,567.283" style="stroke: #A80036; stroke-width: 1.0;"/><!--MD5=[79fd64162c648ff92d13068e9668793b]
link MakeAnOrderController to ClientService--><path d="M2150.31,337.17 C2012.04,357.68 1796.14,396.361 1731,445.5 C1697.16,471.026 1675.16,514.356 1662.19,548.238 " fill="none" id="MakeAnOrderController-&gt;ClientService" style="stroke: #A80036; stroke-width: 1.0; stroke-dasharray: 7.0,7.0;"/><polygon fill="#A80036" points="1660.34,553.165,1667.2436,546.1407,1662.0944,548.4829,1659.7522,543.3337,1660.34,553.165" style="stroke: #A80036; stroke-width: 1.0;"/><!--MD5=[5c2735fcd1ce7beac24ed4466545df4f]
link MakeAnOrderController to ProductService--><path d="M2150.41,334.37 C1862.05,366.36 1156.34,444.719 1155,445.5 C1111.91,470.618 1081.01,520.069 1063.14,555.758 " fill="none" id="MakeAnOrderController-&gt;ProductService" style="stroke: #A80036; stroke-width: 1.0; stroke-dasharray: 7.0,7.0;"/><polygon fill="#A80036" points="1060.81,560.479,1068.3789,554.1773,1063.022,555.9949,1061.2044,550.638,1060.81,560.479" style="stroke: #A80036; stroke-width: 1.0;"/><!--MD5=[19bf36e1d1b6cbe30d77ac2da87d0b37]
link MakeAnOrderController to OrderService--><path d="M2150.28,324.16 C2002.64,331.93 1747.84,358.14 1549,445.5 C1492.33,470.396 1437.39,515.038 1399.99,549.524 " fill="none" id="MakeAnOrderController-&gt;OrderService" style="stroke: #A80036; stroke-width: 1.0; stroke-dasharray: 7.0,7.0;"/><polygon fill="#A80036" points="1395.97,553.252,1405.2888,550.0644,1399.6359,549.8518,1399.8485,544.199,1395.97,553.252" style="stroke: #A80036; stroke-width: 1.0;"/><!--MD5=[76e832db1bd687e560623bdcfa245121]
link MakeAnOrderController to PharmacyService--><path d="M2150.29,325.75 C1840.57,338.85 1034.97,378.988 935,445.5 C897.153,470.68 875.692,519.556 864.502,555.106 " fill="none" id="MakeAnOrderController-&gt;PharmacyService" style="stroke: #A80036; stroke-width: 1.0; stroke-dasharray: 7.0,7.0;"/><polygon fill="#A80036" points="862.925,560.25,869.3877,552.8181,864.3908,555.4697,861.7392,550.4728,862.925,560.25" style="stroke: #A80036; stroke-width: 1.0;"/><!--MD5=[ac0c33dc67b04049a5a44d8fea0f9b6c]
link Database to Client--><path d="M690.163,1013.487 C687.077,977.755 687.175,908.669 728,875 C765.083,844.417 1547.06,869.642 1593,855.5 C1602.24,852.657 1611.44,848.747 1620.33,844.228 " fill="none" id="Database-Client" style="stroke: #A80036; stroke-width: 1.0;"/><text fill="#000000" font-family="sans-serif" font-size="13" lengthAdjust="spacingAndGlyphs" textLength="82" x="729" y="889.4951">has registered</text><polygon fill="#000000" points="814,882.6758,820,885.6758,814,888.6758,814,882.6758" style="stroke: #000000; stroke-width: 1.0;"/><text fill="#000000" font-family="sans-serif" font-size="13" lengthAdjust="spacingAndGlyphs" textLength="7" x="681.4599" y="1002.6127">1</text><text fill="#000000" font-family="sans-serif" font-size="13" lengthAdjust="spacingAndGlyphs" textLength="5" x="1607.4383" y="846.6267">*</text><!--MD5=[3105658e3b0e17fcc7b59acd4e6ef463]
link Database to Order--><path d="M733.539,1037 C806.613,1037 962.235,1037 1063.64,1037 " fill="none" id="Database-Order" style="stroke: #A80036; stroke-width: 1.0;"/><text fill="#000000" font-family="sans-serif" font-size="13" lengthAdjust="spacingAndGlyphs" textLength="82" x="851.25" y="1030.4951">has registered</text><polygon fill="#000000" points="936.25,1023.6758,942.25,1026.6758,936.25,1029.6758,936.25,1023.6758" style="stroke: #000000; stroke-width: 1.0;"/><text fill="#000000" font-family="sans-serif" font-size="13" lengthAdjust="spacingAndGlyphs" textLength="7" x="741.3834" y="1033.1362">1</text><text fill="#000000" font-family="sans-serif" font-size="13" lengthAdjust="spacingAndGlyphs" textLength="5" x="1051.1476" y="1033.9012">*</text><!--MD5=[22f0edd2925765a3c38d923b02900659]
link Database to Product--><path d="M698.857,1060.724 C706.528,1086.128 722.364,1126.86 750,1151 C830.028,1220.903 877.906,1188.154 976,1229 C997.207,1237.831 1019.99,1248.698 1039.77,1258.599 " fill="none" id="Database-Product" style="stroke: #A80036; stroke-width: 1.0;"/><text fill="#000000" font-family="sans-serif" font-size="13" lengthAdjust="spacingAndGlyphs" textLength="82" x="845" y="1195.4951">has registered</text><polygon fill="#000000" points="930,1188.6758,936,1191.6758,930,1194.6758,930,1188.6758" style="stroke: #000000; stroke-width: 1.0;"/><text fill="#000000" font-family="sans-serif" font-size="13" lengthAdjust="spacingAndGlyphs" textLength="7" x="692.4021" y="1081.6411">1</text><text fill="#000000" font-family="sans-serif" font-size="13" lengthAdjust="spacingAndGlyphs" textLength="5" x="1026.933" y="1250.917">*</text><!--MD5=[fe65df1e099598e2fce9ebdfea6b3744]
link Database to Address--><path d="M697.567,1013.093 C704.103,986.146 718.947,943.436 750,923 C825.024,873.627 1063.72,902.557 1153.5,900 C1196.59,898.773 1211.16,882.366 1250.5,900 C1275.82,911.348 1295.08,933.766 1309.25,957.235 " fill="none" id="Database-Address" style="stroke: #A80036; stroke-width: 1.0;"/><text fill="#000000" font-family="sans-serif" font-size="13" lengthAdjust="spacingAndGlyphs" textLength="82" x="1154.5" y="889.4951">has registered</text><polygon fill="#000000" points="1239.5,882.6758,1245.5,885.6758,1239.5,888.6758,1239.5,882.6758" style="stroke: #000000; stroke-width: 1.0;"/><text fill="#000000" font-family="sans-serif" font-size="13" lengthAdjust="spacingAndGlyphs" textLength="7" x="699.6342" y="1002.507">1</text><text fill="#000000" font-family="sans-serif" font-size="13" lengthAdjust="spacingAndGlyphs" textLength="5" x="1301.0004" y="946.6699">*</text><!--MD5=[0d6287e6031f223f446ddfea0960667d]
link Database to CreditCard--><path d="M697.526,1013.03 C704.023,986.023 718.83,943.258 750,923 C844.287,861.723 1143.08,902.556 1255.5,900 C1325.78,898.402 1357.98,878.007 1412,923 C1432.08,939.722 1448.03,963.762 1459.6,985.46 " fill="none" id="Database-CreditCard" style="stroke: #A80036; stroke-width: 1.0;"/><text fill="#000000" font-family="sans-serif" font-size="13" lengthAdjust="spacingAndGlyphs" textLength="82" x="1256.5" y="889.4951">has registered</text><polygon fill="#000000" points="1341.5,882.6758,1347.5,885.6758,1341.5,888.6758,1341.5,882.6758" style="stroke: #000000; stroke-width: 1.0;"/><text fill="#000000" font-family="sans-serif" font-size="13" lengthAdjust="spacingAndGlyphs" textLength="7" x="690.7761" y="1002.8229">1</text><text fill="#000000" font-family="sans-serif" font-size="13" lengthAdjust="spacingAndGlyphs" textLength="5" x="1451.0984" y="974.5829">*</text><!--MD5=[f847e2213481e239acbb723827da138e]
link PharmacyDB to Database--><path d="M121.751,824.768 C132.66,835.839 145.539,847.209 159,855.5 C326.275,958.525 559.58,1010.966 652.492,1028.803 " fill="none" id="PharmacyDB-Database" style="stroke: #A80036; stroke-width: 1.0;"/><text fill="#000000" font-family="sans-serif" font-size="13" lengthAdjust="spacingAndGlyphs" textLength="53" x="227" y="889.4951">manages</text><polygon fill="#000000" points="283,882.6758,289,885.6758,283,888.6758,283,882.6758" style="stroke: #000000; stroke-width: 1.0;"/><!--MD5=[c1d40978cf3bbccd0894074af6ae6424]
link ClientDB to Database--><path d="M619.017,831.603 C616.287,850.692 615.229,873.161 620,893 C630.949,938.531 658.966,985.887 676.934,1013.065 " fill="none" id="ClientDB-Database" style="stroke: #A80036; stroke-width: 1.0;"/><text fill="#000000" font-family="sans-serif" font-size="13" lengthAdjust="spacingAndGlyphs" textLength="53" x="621" y="889.4951">manages</text><polygon fill="#000000" points="643,898.3516,646,904.3516,649,898.3516,643,898.3516" style="stroke: #000000; stroke-width: 1.0;"/><!--MD5=[e3614ee0a80fcb9a49b96fae5e25d21b]
link OrderDB to Database--><path d="M483.727,824.571 C500.192,845.236 521.586,871.135 542,893 C583.764,937.732 636.42,985.919 667.236,1013.375 " fill="none" id="OrderDB-Database" style="stroke: #A80036; stroke-width: 1.0;"/><text fill="#000000" font-family="sans-serif" font-size="13" lengthAdjust="spacingAndGlyphs" textLength="53" x="543" y="889.4951">manages</text><polygon fill="#000000" points="565,898.3516,568,904.3516,571,898.3516,565,898.3516" style="stroke: #000000; stroke-width: 1.0;"/><!--MD5=[22b902179b0d2415a8fe6b614787ffd4]
link ProductDB to Database--><path d="M328.159,824.551 C344.561,834.692 362.416,845.611 379,855.5 C476.481,913.628 592.599,979.52 652.612,1013.329 " fill="none" id="ProductDB-Database" style="stroke: #A80036; stroke-width: 1.0;"/><text fill="#000000" font-family="sans-serif" font-size="13" lengthAdjust="spacingAndGlyphs" textLength="53" x="440" y="889.4951">manages</text><polygon fill="#000000" points="496,882.6758,502,885.6758,496,888.6758,496,882.6758" style="stroke: #000000; stroke-width: 1.0;"/><!--MD5=[2ed2b43e7f6d114538396b0b10b28567]
link PharmacyService to Pharmacy--><path d="M856.101,636.598 C859.354,692.316 866.066,800.899 874,893 C885.038,1021.144 901.865,1172.362 910.106,1244.335 " fill="none" id="PharmacyService-&gt;Pharmacy" style="stroke: #A80036; stroke-width: 1.0;"/><polygon fill="#A80036" points="910.685,1249.379,913.6332,1239.9818,910.1151,1244.4116,905.6853,1240.8935,910.685,1249.379" style="stroke: #A80036; stroke-width: 1.0;"/><text fill="#000000" font-family="sans-serif" font-size="13" lengthAdjust="spacingAndGlyphs" textLength="118" x="875" y="889.4951">manages services of</text><text fill="#000000" font-family="sans-serif" font-size="13" lengthAdjust="spacingAndGlyphs" textLength="7" x="848.8693" y="657.7844">1</text><text fill="#000000" font-family="sans-serif" font-size="13" lengthAdjust="spacingAndGlyphs" textLength="5" x="904.4711" y="1238.7193">*</text><!--MD5=[1838217b62f5cff8f2cd541cc9393f89]
link PharmacyService to PharmacyDB--><path d="M796.98,636.611 C775.575,648.671 750.486,660.692 726,667.5 C676.47,681.272 546.162,674.971 495,680 C344.874,694.756 296.842,666.721 159,728 C149.326,732.3 139.931,738.364 131.346,744.953 " fill="none" id="PharmacyService-&gt;PharmacyDB" style="stroke: #A80036; stroke-width: 1.0;"/><polygon fill="#A80036" points="127.199,748.224,136.7423,745.7899,131.1244,745.1271,131.7872,739.5092,127.199,748.224" style="stroke: #A80036; stroke-width: 1.0;"/><text fill="#000000" font-family="sans-serif" font-size="13" lengthAdjust="spacingAndGlyphs" textLength="28" x="496" y="694.4951">uses</text><text fill="#000000" font-family="sans-serif" font-size="13" lengthAdjust="spacingAndGlyphs" textLength="7" x="779.9564" y="657.7995">1</text><text fill="#000000" font-family="sans-serif" font-size="13" lengthAdjust="spacingAndGlyphs" textLength="7" x="126.2016" y="737.5367">1</text><!--MD5=[25822178bb7ccf0ac74068c83bd694ea]
link OrderService to Order--><path d="M1358.36,643.762 C1367.72,715.742 1381.33,854.055 1354,893 C1331.47,925.106 1304.06,901.888 1271,923 C1266.72,925.732 1262.48,928.654 1258.3,931.724 " fill="none" id="OrderService-&gt;Order" style="stroke: #A80036; stroke-width: 1.0;"/><polygon fill="#A80036" points="1254.13,934.843,1263.7308,932.6463,1258.131,931.8444,1258.9329,926.2446,1254.13,934.843" style="stroke: #A80036; stroke-width: 1.0;"/><text fill="#000000" font-family="sans-serif" font-size="13" lengthAdjust="spacingAndGlyphs" textLength="118" x="1372" y="791.9951">manages services of</text><text fill="#000000" font-family="sans-serif" font-size="13" lengthAdjust="spacingAndGlyphs" textLength="7" x="1351.7443" y="664.4709">1</text><text fill="#000000" font-family="sans-serif" font-size="13" lengthAdjust="spacingAndGlyphs" textLength="5" x="1262.1561" y="916.8813">*</text><!--MD5=[e014bfb9ec9545017a6274519c26a430]
link OrderService to OrderDB--><path d="M1243.1,643.563 C1214.57,653.255 1183.51,662.201 1154,667.5 C1042.42,687.535 754.422,654.325 644,680 C625.406,684.323 622.517,690.412 605,698 C572.435,712.107 561.861,710.476 531,728 C522.098,733.055 513.059,739.025 504.47,745.174 " fill="none" id="OrderService-&gt;OrderDB" style="stroke: #A80036; stroke-width: 1.0;"/><polygon fill="#A80036" points="500.292,748.203,509.9267,746.1602,504.3405,745.2688,505.2319,739.6826,500.292,748.203" style="stroke: #A80036; stroke-width: 1.0;"/><text fill="#000000" font-family="sans-serif" font-size="13" lengthAdjust="spacingAndGlyphs" textLength="28" x="645" y="694.4951">uses</text><text fill="#000000" font-family="sans-serif" font-size="13" lengthAdjust="spacingAndGlyphs" textLength="7" x="1220.2937" y="664.5794">1</text><text fill="#000000" font-family="sans-serif" font-size="13" lengthAdjust="spacingAndGlyphs" textLength="7" x="500.7362" y="737.512">1</text><!--MD5=[0c14ad20ad99024cc361e625c7ea3878]
link ClientService to Client--><path d="M1594.96,643.806 C1581.88,660.321 1573.85,679.545 1583,698 C1590.79,713.718 1602.91,727.377 1616.4,738.93 " fill="none" id="ClientService-&gt;Client" style="stroke: #A80036; stroke-width: 1.0;"/><polygon fill="#A80036" points="1620.24,742.133,1615.8867,733.2985,1616.3989,738.9321,1610.7653,739.4442,1620.24,742.133" style="stroke: #A80036; stroke-width: 1.0;"/><text fill="#000000" font-family="sans-serif" font-size="13" lengthAdjust="spacingAndGlyphs" textLength="118" x="1584" y="694.4951">manages services of</text><text fill="#000000" font-family="sans-serif" font-size="13" lengthAdjust="spacingAndGlyphs" textLength="7" x="1580.4968" y="664.5208">1</text><text fill="#000000" font-family="sans-serif" font-size="13" lengthAdjust="spacingAndGlyphs" textLength="5" x="1607.5902" y="734.6451">*</text><!--MD5=[6084c45bafb98ee2a46a6fd7dcb03b82]
link ClientService to ClientDB--><path d="M1595.39,643.665 C1581.23,653.355 1565.27,662.275 1549,667.5 C1505.15,681.588 761.731,660.503 720,680 C694.114,692.094 672.741,715.49 657.229,737.182 " fill="none" id="ClientService-&gt;ClientDB" style="stroke: #A80036; stroke-width: 1.0;"/><polygon fill="#A80036" points="654.205,741.494,662.6476,736.4223,657.076,737.4004,656.0978,731.8287,654.205,741.494" style="stroke: #A80036; stroke-width: 1.0;"/><text fill="#000000" font-family="sans-serif" font-size="13" lengthAdjust="spacingAndGlyphs" textLength="28" x="721" y="694.4951">uses</text><text fill="#000000" font-family="sans-serif" font-size="13" lengthAdjust="spacingAndGlyphs" textLength="7" x="1588.9252" y="664.3609">1</text><text fill="#000000" font-family="sans-serif" font-size="13" lengthAdjust="spacingAndGlyphs" textLength="7" x="650.6642" y="730.6085">1</text><!--MD5=[bd1d3beaf9e1cc8bc587a0b06ae41ee6]
link ProductService to Product--><path d="M1036.08,636.526 C1014.7,732.408 967.006,995.507 1033,1199 C1035.78,1207.574 1039.69,1216.068 1044.2,1224.199 " fill="none" id="ProductService-&gt;Product" style="stroke: #A80036; stroke-width: 1.0;"/><polygon fill="#A80036" points="1046.76,1228.676,1045.7517,1218.8789,1044.2722,1224.3388,1038.8123,1222.8593,1046.76,1228.676" style="stroke: #A80036; stroke-width: 1.0;"/><text fill="#000000" font-family="sans-serif" font-size="13" lengthAdjust="spacingAndGlyphs" textLength="118" x="1003" y="889.4951">manages services of</text><text fill="#000000" font-family="sans-serif" font-size="13" lengthAdjust="spacingAndGlyphs" textLength="7" x="1027.0229" y="657.7005">1</text><text fill="#000000" font-family="sans-serif" font-size="13" lengthAdjust="spacingAndGlyphs" textLength="5" x="1035.8198" y="1218.0374">*</text><!--MD5=[65eab6f40d4d775c122a00bc563858e3]
link ProductService to ProductDB--><path d="M997.268,636.512 C978.833,648.721 956.918,660.864 935,667.5 C857.536,690.954 649.993,662.368 571,680 C551.179,684.424 548.395,691.976 529,698 C464.073,718.166 443.106,705.357 379,728 C365.035,732.933 350.639,739.361 337.052,746.127 " fill="none" id="ProductService-&gt;ProductDB" style="stroke: #A80036; stroke-width: 1.0;"/><polygon fill="#A80036" points="332.476,748.433,342.3132,747.9544,336.941,746.1827,338.7127,740.8104,332.476,748.433" style="stroke: #A80036; stroke-width: 1.0;"/><text fill="#000000" font-family="sans-serif" font-size="13" lengthAdjust="spacingAndGlyphs" textLength="28" x="572" y="694.4951">uses</text><text fill="#000000" font-family="sans-serif" font-size="13" lengthAdjust="spacingAndGlyphs" textLength="7" x="981.7827" y="657.6841">1</text><text fill="#000000" font-family="sans-serif" font-size="13" lengthAdjust="spacingAndGlyphs" textLength="7" x="336.1592" y="737.783">1</text><!--MD5=[5df16df72a49edaa4f00919f1e597f76]
link Order to Product--><path d="M1128.9,1151.342 C1121.76,1178.223 1114.44,1205.791 1108.28,1228.96 " fill="none" id="Order-Product" style="stroke: #A80036; stroke-width: 1.0;"/><text fill="#000000" font-family="sans-serif" font-size="13" lengthAdjust="spacingAndGlyphs" textLength="21" x="1122" y="1195.4951">has</text><polygon fill="#000000" points="1128,1204.3516,1131,1210.3516,1134,1204.3516,1128,1204.3516" style="stroke: #000000; stroke-width: 1.0;"/><text fill="#000000" font-family="sans-serif" font-size="13" lengthAdjust="spacingAndGlyphs" textLength="7" x="1119.8525" y="1172.3071">1</text><text fill="#000000" font-family="sans-serif" font-size="13" lengthAdjust="spacingAndGlyphs" textLength="5" x="1104.9174" y="1217.9407">*</text><!--MD5=[341c66bf56a9f106d2cc06efe44d7382]
link Order to Pharmacy--><path d="M1063.96,1134.788 C1024.62,1174.854 981.346,1218.93 951.624,1249.2 " fill="none" id="Order-Pharmacy" style="stroke: #A80036; stroke-width: 1.0;"/><text fill="#000000" font-family="sans-serif" font-size="13" lengthAdjust="spacingAndGlyphs" textLength="21" x="1017" y="1195.4951">has</text><polygon fill="#000000" points="1023,1204.3516,1026,1210.3516,1029,1204.3516,1023,1204.3516" style="stroke: #000000; stroke-width: 1.0;"/><text fill="#000000" font-family="sans-serif" font-size="13" lengthAdjust="spacingAndGlyphs" textLength="7" x="1049.1076" y="1139.4574">1</text><text fill="#000000" font-family="sans-serif" font-size="13" lengthAdjust="spacingAndGlyphs" textLength="7" x="950.5242" y="1238.5085">1</text><!--MD5=[879bec428a80d843af24dc47845bf14c]
link Client to Order--><path d="M1621.43,845.03 C1590.22,867.974 1559.47,889.766 1551,893 C1434.07,937.63 1383.79,868.754 1271,923 C1265.27,925.754 1259.67,928.924 1254.22,932.415 " fill="none" id="Client-Order" style="stroke: #A80036; stroke-width: 1.0;"/><polygon fill="#000000" points="1585,882.6758,1579,885.6758,1585,888.6758,1585,882.6758" style="stroke: #000000; stroke-width: 1.0;"/><text fill="#000000" font-family="sans-serif" font-size="13" lengthAdjust="spacingAndGlyphs" textLength="39" x="1591" y="889.4951">makes</text><text fill="#000000" font-family="sans-serif" font-size="13" lengthAdjust="spacingAndGlyphs" textLength="7" x="1605.6723" y="865.8112">1</text><text fill="#000000" font-family="sans-serif" font-size="13" lengthAdjust="spacingAndGlyphs" textLength="7" x="1262.0868" y="920.9578">1</text><!--MD5=[bd708f2371c655af07b49ddbdb30848a]
link Client to Address--><path d="M1681.08,845.18 C1673,863.2 1661.39,881.383 1645,893 C1559.82,953.381 1499.78,866.471 1412,923 C1398.52,931.684 1387.19,943.981 1377.85,957.289 " fill="none" id="Client-Address" style="stroke: #A80036; stroke-width: 1.0;"/><polygon fill="#000000" points="1672,882.6758,1666,885.6758,1672,888.6758,1672,882.6758" style="stroke: #000000; stroke-width: 1.0;"/><text fill="#000000" font-family="sans-serif" font-size="13" lengthAdjust="spacingAndGlyphs" textLength="21" x="1678" y="889.4951">has</text><text fill="#000000" font-family="sans-serif" font-size="13" lengthAdjust="spacingAndGlyphs" textLength="7" x="1671.5913" y="866.8122">1</text><text fill="#000000" font-family="sans-serif" font-size="13" lengthAdjust="spacingAndGlyphs" textLength="7" x="1373.8323" y="946.7289">1</text><!--MD5=[0748050afd2139cbb3c9faec3f892ae9]
link Client to CreditCard--><path d="M1725.1,845.084 C1728.96,861.313 1729.23,878.487 1721,893 C1681.17,963.244 1591.6,1002.695 1534.13,1021.637 " fill="none" id="Client-CreditCard" style="stroke: #A80036; stroke-width: 1.0;"/><polygon fill="#000000" points="1735,882.6758,1729,885.6758,1735,888.6758,1735,882.6758" style="stroke: #000000; stroke-width: 1.0;"/><text fill="#000000" font-family="sans-serif" font-size="13" lengthAdjust="spacingAndGlyphs" textLength="21" x="1741" y="889.4951">has</text><text fill="#000000" font-family="sans-serif" font-size="13" lengthAdjust="spacingAndGlyphs" textLength="5" x="1723.0981" y="866.7045">*</text><text fill="#000000" font-family="sans-serif" font-size="13" lengthAdjust="spacingAndGlyphs" textLength="5" x="1542.1538" y="1015.7013">*</text><!--MD5=[72e744b1f7ec345412f1ea79f30940ed]
link Invoice to Product--><path d="M1852.48,650.37 C1841.68,703 1821.74,786.94 1793,855.5 C1740.66,980.37 1660.38,1079.932 1551,1151 C1420.8,1235.595 1236.03,1268.931 1146.18,1280.7349 " fill="none" id="Invoice-Product" style="stroke: #A80036; stroke-width: 1.0;"/><polygon fill="#000000" points="1793,882.6758,1787,885.6758,1793,888.6758,1793,882.6758" style="stroke: #000000; stroke-width: 1.0;"/><text fill="#000000" font-family="sans-serif" font-size="13" lengthAdjust="spacingAndGlyphs" textLength="21" x="1799" y="889.4951">has</text><text fill="#000000" font-family="sans-serif" font-size="13" lengthAdjust="spacingAndGlyphs" textLength="7" x="1843.7304" y="671.9107">1</text><text fill="#000000" font-family="sans-serif" font-size="13" lengthAdjust="spacingAndGlyphs" textLength="5" x="1154.01" y="1276.1659">*</text><!--MD5=[4f0092e2f5693c7657a2634bfbc15acf]
link Invoice to Order--><path d="M1778.93,650.018 C1767.38,656.259 1755.52,662.272 1744,667.5 C1668.3,701.86 1630.31,674.119 1567,728 C1518.09,769.623 1548.76,814.901 1499,855.5 C1417.11,922.307 1361.71,868.771 1271,923 C1265.31,926.402 1259.7,930.159 1254.21,934.175 " fill="none" id="Invoice-Order" style="stroke: #A80036; stroke-width: 1.0;"/><polygon fill="#000000" points="1575,785.1758,1569,788.1758,1575,791.1758,1575,785.1758" style="stroke: #000000; stroke-width: 1.0;"/><text fill="#000000" font-family="sans-serif" font-size="13" lengthAdjust="spacingAndGlyphs" textLength="21" x="1581" y="791.9951">has</text><text fill="#000000" font-family="sans-serif" font-size="13" lengthAdjust="spacingAndGlyphs" textLength="7" x="1759.7561" y="671.8834">1</text><text fill="#000000" font-family="sans-serif" font-size="13" lengthAdjust="spacingAndGlyphs" textLength="7" x="1262.076" y="940.133">1</text><!--MD5=[d526f5d30672b9ad1f9eb1a68f9d4e48]
link Invoice to Client--><path d="M1817.19,650.325 C1796.04,674.311 1770.7,703.046 1748.84,727.843 " fill="none" id="Invoice-Client" style="stroke: #A80036; stroke-width: 1.0;"/><text fill="#000000" font-family="sans-serif" font-size="13" lengthAdjust="spacingAndGlyphs" textLength="21" x="1791" y="694.4951">has</text><polygon fill="#000000" points="1797,703.3516,1800,709.3516,1803,703.3516,1797,703.3516" style="stroke: #000000; stroke-width: 1.0;"/><text fill="#000000" font-family="sans-serif" font-size="13" lengthAdjust="spacingAndGlyphs" textLength="7" x="1803.6983" y="671.8596">1</text><text fill="#000000" font-family="sans-serif" font-size="13" lengthAdjust="spacingAndGlyphs" textLength="7" x="1747.6096" y="717.2248">1</text><!--MD5=[28b08700f29443a329a6be5b5bc24518]
@startuml
skinparam classAttributeIconSize 0

package "UI" #DDDDDD {
class MakeAnOrderUI{
}
}


package "Controller" #DDDDDD {
class MakeAnOrderController{
+newOrder(description)
+registerOrder()
+getAvailableProducts(pharmacyId)
+getPharmacies()
+addProductToOrder(product, quantity)
+setHomeDelivery(homeDelivery)
+lstCreditCards = getCreditCardsByClient(email)
+addPayment(creditCard, amount)
+generateInvoice()
}

class GenerateInvoiceController{
+GenerateInvoiceController()
+generateInvoice(order, mapPayments)
}

class ApplicationPOT
{
  +static getInstance()
  +getPlatform()
}

class UserSession
{
  +getCurrentSession()
}
}

database Database{
}


package "Model" #DDDDDD {
package "Service" #DDDDDD {

  class OrderService{
       +OrderService()
       +addOrder(description, mapProducts, client, pharmacy, isHomeDelivery)
       +registerOrder(order)
  }

  class PharmacyService{
          +PharmacyService()
          +getPharmacies()
  }

  class ProductService{
          +ProductService()
          +getAvailableProducts(pharmacyId)
  }
  class ClientService{
        +ClientService()
        +getUserByEmail(email)
        +getCreditCardsByClient(email)
  }
 }
}

package "Model" #DDDDDD {
abstract class User{
-   String name
-   String email
-   String password
-   Integer nif
}

class Client{
-   int IBAN
-   long creditCardNumber
-   int validityDate
-   int CCV
+addCredits(addtionalCredits)
}

class Address{
-   int id
-   String streetName
-   String doorNumber
-   String postalCode
-   String locality
-   String country
-   float longitude
-   float latitude
}

class Order{
-   int id
-   float amount
-   float totalWeight
-   float additionalFee
-   Date orderDate
-   String description
-   String status
-   boolean isHomeDelivery
-   Map<Product, Integer> mapProducts
+Order(description, mapProducts, \nclient, pharmacy, isHomeDelivery)
+calculateAmount()
+calculateTotalWeight()
}

class Product{
-   int id
-   String name
-   String description
-   float unitaryPrice
-   float unitaryWeight
}

class Pharmacy{
-   int id
-   String name
}

class CreditCard{
-   int id
-   Long creditCardNr
-   String validityDate
-   Integer CCV
}

class Invoice{
-   int id
-   Date orderDate
-   float totalAmount
-   Map<CreditCard, Float> mapPayments
}

}


package "Data" #DDDDDD {
class DataHandler{
    +openConnection()
    +closeAll()
}

class PharmacyDB{
          +PharmacyDB()
          +getPharmacies()
      }

class OrderDB{
       +OrderDB()
       +registerOrder(order)
  }

class ProductDB{
          +ProductDB()
          +getAvailableProducts(pharmacyId)
  }

class ClientDB{
        +ClientDB()
        +getUserByEmail(email)
                +getCreditCardsByClient(email)
  }
}

class PharmacyDB extends DataHandler
class ProductDB extends DataHandler
class ClientDB extends DataHandler
class OrderDB extends DataHandler
class Client extends User

MakeAnOrderUI ..> MakeAnOrderController
MakeAnOrderUI ..> GenerateInvoiceController
MakeAnOrderController ..> ApplicationPOT
MakeAnOrderController ..> UserSession
MakeAnOrderController ..> ClientService
MakeAnOrderController ..> ProductService
MakeAnOrderController ..> OrderService
MakeAnOrderController ..> PharmacyService
Database "1" - - "*" Client : has registered >
Database "1" - - "*" Order : has registered >
Database "1" - - "*" Product : has registered >
Database "1" - - "*" Address : has registered >
Database "1" - - "*" CreditCard : has registered >
PharmacyDB - - Database : manages >
ClientDB - - Database : manages >
OrderDB - - Database : manages >
ProductDB - - Database : manages >
PharmacyService "1" - -> "*" Pharmacy : manages services of
PharmacyService "1" - -> "1" PharmacyDB : uses
OrderService "1" - -> "*" Order : manages services of
OrderService "1" - -> "1" OrderDB : uses
ClientService "1" - -> "*" Client : manages services of
ClientService "1" - -> "1" ClientDB : uses
ProductService "1" - -> "*" Product : manages services of
ProductService "1" - -> "1" ProductDB : uses

Order "1" - - "*" Product : has >
Order "1" - - "1" Pharmacy : has >
Client "1" - - "1" Order : makes >
Client "1" - - "1" Address : has >
Client "*" - - "*" CreditCard : has >
Invoice "1" - - "*" Product : has >
Invoice "1" - - "1" Order : has >
Invoice "1" - - "1" Client : has >

@enduml

PlantUML version 1.2020.09(Sun May 10 11:51:06 BST 2020)
(GPL source distribution)
Java Runtime: OpenJDK Runtime Environment
JVM: OpenJDK 64-Bit Server VM
Java Version: 11.0.6+8-b520.66
Operating System: Windows 10
Default Encoding: Cp1252
Language: pt
Country: PT
--></g></svg>