<?xml version="1.0" encoding="UTF-8" standalone="no"?><svg xmlns="http://www.w3.org/2000/svg" xmlns:xlink="http://www.w3.org/1999/xlink" contentScriptType="application/ecmascript" contentStyleType="text/css" height="1471px" preserveAspectRatio="none" style="width:1338px;height:1471px;" version="1.1" viewBox="0 0 1338 1471" width="1338px" zoomAndPan="magnify"><defs><filter height="300%" id="f16ua9is85jph2" width="300%" x="-1" y="-1"><feGaussianBlur result="blurOut" stdDeviation="2.0"/><feColorMatrix in="blurOut" result="blurOut2" type="matrix" values="0 0 0 0 0 0 0 0 0 0 0 0 0 0 0 0 0 0 .4 0"/><feOffset dx="4.0" dy="4.0" in="blurOut2" result="blurOut3"/><feBlend in="SourceGraphic" in2="blurOut3" mode="normal"/></filter></defs><g><!--MD5=[9681dc6e01e10c6b4fe06895ae94f592]
cluster UI--><polygon fill="#DDDDDD" filter="url(#f16ua9is85jph2)" points="94,24,114,24,121,47.6094,252,47.6094,252,124,94,124,94,24" style="stroke: #000000; stroke-width: 1.5;"/><line style="stroke: #000000; stroke-width: 1.5;" x1="94" x2="121" y1="47.6094" y2="47.6094"/><text fill="#000000" font-family="sans-serif" font-size="14" font-weight="bold" lengthAdjust="spacingAndGlyphs" textLength="14" x="98" y="40.5332">UI</text><!--MD5=[1f2cfc53d9d308f53762fd0fcbaa4873]
cluster Controller--><polygon fill="#DDDDDD" filter="url(#f16ua9is85jph2)" points="22,157,99,157,106,180.6094,324,180.6094,324,465,22,465,22,157" style="stroke: #000000; stroke-width: 1.5;"/><line style="stroke: #000000; stroke-width: 1.5;" x1="22" x2="106" y1="180.6094" y2="180.6094"/><text fill="#000000" font-family="sans-serif" font-size="14" font-weight="bold" lengthAdjust="spacingAndGlyphs" textLength="71" x="26" y="173.5332">Controller</text><!--MD5=[15636c1ca4a123c16a2a1a8e90aca7a9]
cluster Model--><polygon fill="#DDDDDD" filter="url(#f16ua9is85jph2)" points="348,330,398,330,405,353.6094,1156,353.6094,1156,1459,348,1459,348,330" style="stroke: #000000; stroke-width: 1.5;"/><line style="stroke: #000000; stroke-width: 1.5;" x1="348" x2="405" y1="353.6094" y2="353.6094"/><text fill="#000000" font-family="sans-serif" font-size="14" font-weight="bold" lengthAdjust="spacingAndGlyphs" textLength="44" x="352" y="346.5332">Model</text><!--MD5=[7f5e0441b00afcd8fa9ae108c086a015]
cluster Registration--><polygon fill="#DDDDDD" filter="url(#f16ua9is85jph2)" points="589,520,681,520,688,543.6094,1132,543.6094,1132,648,589,648,589,520" style="stroke: #000000; stroke-width: 1.5;"/><line style="stroke: #000000; stroke-width: 1.5;" x1="589" x2="688" y1="543.6094" y2="543.6094"/><text fill="#000000" font-family="sans-serif" font-size="14" font-weight="bold" lengthAdjust="spacingAndGlyphs" textLength="86" x="593" y="536.5332">Registration</text><!--MD5=[f21b1f164e99c6b37934f23ad048ad54]
cluster Data--><polygon fill="#DDDDDD" filter="url(#f16ua9is85jph2)" points="1180,337,1217,337,1224,360.6094,1316,360.6094,1316,465,1180,465,1180,337" style="stroke: #000000; stroke-width: 1.5;"/><line style="stroke: #000000; stroke-width: 1.5;" x1="1180" x2="1224" y1="360.6094" y2="360.6094"/><text fill="#000000" font-family="sans-serif" font-size="14" font-weight="bold" lengthAdjust="spacingAndGlyphs" textLength="31" x="1184" y="353.5332">Data</text><!--MD5=[56b05040cba7ba1143e43c771f04a5c5]
class UpdateScooterUI--><rect fill="#FEFECE" filter="url(#f16ua9is85jph2)" height="48" id="UpdateScooterUI" style="stroke: #A80036; stroke-width: 1.5;" width="126" x="110" y="60"/><ellipse cx="125" cy="76" fill="#ADD1B2" rx="11" ry="11" style="stroke: #A80036; stroke-width: 1.0;"/><path d="M127,72.5 Q127.2031,72 127.4375,71.75 Q127.6719,71.5 127.9375,71.5 Q128.4063,71.5 128.7031,71.7813 Q129,72.0625 129,72.7188 L129,74.2813 Q129,74.9375 128.7188,75.2188 Q128.4375,75.5 128,75.5 Q127.6094,75.5 127.3594,75.3281 Q127.1094,75.1563 127,74.7031 Q126.9531,74.3906 126.7813,74.2188 Q126.4688,73.8906 125.9063,73.7031 Q125.3438,73.5 124.7813,73.5 Q124.0781,73.5 123.4844,73.7813 Q122.9063,74.0625 122.4531,74.6875 Q122,75.3125 122,76.1719 L122,77.0938 Q122,78.125 122.8438,78.8125 Q123.6875,79.5 125.1875,79.5 Q126.0781,79.5 126.7031,79.2969 Q127.0625,79.1875 127.4688,78.8281 Q127.7344,78.625 127.875,78.5625 Q128.0156,78.5 128.1875,78.5 Q128.5156,78.5 128.75,78.7656 Q129,79.0156 129,79.375 Q129,79.7188 128.6563,80.125 Q128.1563,80.7188 127.3594,81.0469 Q126.3125,81.5 125.0313,81.5 Q123.5313,81.5 122.3281,80.9063 Q121.3594,80.4375 120.6719,79.4219 Q120,78.4063 120,77.2031 L120,76.1094 Q120,74.8594 120.5938,73.7656 Q121.2031,72.6719 122.25,72.0938 Q123.3125,71.5 124.5,71.5 Q125.2188,71.5 125.8438,71.75 Q126.4688,72 127,72.5 Z "/><text fill="#000000" font-family="sans-serif" font-size="12" lengthAdjust="spacingAndGlyphs" textLength="94" x="139" y="80.9102">UpdateScooterUI</text><line style="stroke: #A80036; stroke-width: 1.5;" x1="111" x2="235" y1="92" y2="92"/><line style="stroke: #A80036; stroke-width: 1.5;" x1="111" x2="235" y1="100" y2="100"/><!--MD5=[3e55a46d736e61deccb82423bbd922fc]
class UpdateScooterController--><rect fill="#FEFECE" filter="url(#f16ua9is85jph2)" height="89.5078" id="UpdateScooterController" style="stroke: #A80036; stroke-width: 1.5;" width="270" x="38" y="193"/><ellipse cx="100.75" cy="209" fill="#ADD1B2" rx="11" ry="11" style="stroke: #A80036; stroke-width: 1.0;"/><path d="M102.75,205.5 Q102.9531,205 103.1875,204.75 Q103.4219,204.5 103.6875,204.5 Q104.1563,204.5 104.4531,204.7813 Q104.75,205.0625 104.75,205.7188 L104.75,207.2813 Q104.75,207.9375 104.4688,208.2188 Q104.1875,208.5 103.75,208.5 Q103.3594,208.5 103.1094,208.3281 Q102.8594,208.1563 102.75,207.7031 Q102.7031,207.3906 102.5313,207.2188 Q102.2188,206.8906 101.6563,206.7031 Q101.0938,206.5 100.5313,206.5 Q99.8281,206.5 99.2344,206.7813 Q98.6563,207.0625 98.2031,207.6875 Q97.75,208.3125 97.75,209.1719 L97.75,210.0938 Q97.75,211.125 98.5938,211.8125 Q99.4375,212.5 100.9375,212.5 Q101.8281,212.5 102.4531,212.2969 Q102.8125,212.1875 103.2188,211.8281 Q103.4844,211.625 103.625,211.5625 Q103.7656,211.5 103.9375,211.5 Q104.2656,211.5 104.5,211.7656 Q104.75,212.0156 104.75,212.375 Q104.75,212.7188 104.4063,213.125 Q103.9063,213.7188 103.1094,214.0469 Q102.0625,214.5 100.7813,214.5 Q99.2813,214.5 98.0781,213.9063 Q97.1094,213.4375 96.4219,212.4219 Q95.75,211.4063 95.75,210.2031 L95.75,209.1094 Q95.75,207.8594 96.3438,206.7656 Q96.9531,205.6719 98,205.0938 Q99.0625,204.5 100.25,204.5 Q100.9688,204.5 101.5938,204.75 Q102.2188,205 102.75,205.5 Z "/><text fill="#000000" font-family="sans-serif" font-size="12" lengthAdjust="spacingAndGlyphs" textLength="136" x="121.25" y="213.9102">UpdateScooterController</text><line style="stroke: #A80036; stroke-width: 1.5;" x1="39" x2="307" y1="225" y2="225"/><line style="stroke: #A80036; stroke-width: 1.5;" x1="39" x2="307" y1="233" y2="233"/><text fill="#000000" font-family="sans-serif" font-size="11" lengthAdjust="spacingAndGlyphs" textLength="258" x="44" y="248.4189">+updateScooter(batteryPerc, charginStatus, potency,</text><text fill="#000000" font-family="sans-serif" font-size="11" lengthAdjust="spacingAndGlyphs" textLength="173" x="47" y="262.2549">weight, batteryCapacity, pharmacy)</text><text fill="#000000" font-family="sans-serif" font-size="11" lengthAdjust="spacingAndGlyphs" textLength="138" x="44" y="276.0908">+getScootersList(pharmacy)</text><!--MD5=[e45a4727c47b726c25e081782e8bc183]
class ApplicationPOT--><rect fill="#FEFECE" filter="url(#f16ua9is85jph2)" height="75.6719" id="ApplicationPOT" style="stroke: #A80036; stroke-width: 1.5;" width="116" x="39" y="373"/><ellipse cx="54" cy="389" fill="#ADD1B2" rx="11" ry="11" style="stroke: #A80036; stroke-width: 1.0;"/><path d="M56,385.5 Q56.2031,385 56.4375,384.75 Q56.6719,384.5 56.9375,384.5 Q57.4063,384.5 57.7031,384.7813 Q58,385.0625 58,385.7188 L58,387.2813 Q58,387.9375 57.7188,388.2188 Q57.4375,388.5 57,388.5 Q56.6094,388.5 56.3594,388.3281 Q56.1094,388.1563 56,387.7031 Q55.9531,387.3906 55.7813,387.2188 Q55.4688,386.8906 54.9063,386.7031 Q54.3438,386.5 53.7813,386.5 Q53.0781,386.5 52.4844,386.7813 Q51.9063,387.0625 51.4531,387.6875 Q51,388.3125 51,389.1719 L51,390.0938 Q51,391.125 51.8438,391.8125 Q52.6875,392.5 54.1875,392.5 Q55.0781,392.5 55.7031,392.2969 Q56.0625,392.1875 56.4688,391.8281 Q56.7344,391.625 56.875,391.5625 Q57.0156,391.5 57.1875,391.5 Q57.5156,391.5 57.75,391.7656 Q58,392.0156 58,392.375 Q58,392.7188 57.6563,393.125 Q57.1563,393.7188 56.3594,394.0469 Q55.3125,394.5 54.0313,394.5 Q52.5313,394.5 51.3281,393.9063 Q50.3594,393.4375 49.6719,392.4219 Q49,391.4063 49,390.2031 L49,389.1094 Q49,387.8594 49.5938,386.7656 Q50.2031,385.6719 51.25,385.0938 Q52.3125,384.5 53.5,384.5 Q54.2188,384.5 54.8438,384.75 Q55.4688,385 56,385.5 Z "/><text fill="#000000" font-family="sans-serif" font-size="12" lengthAdjust="spacingAndGlyphs" textLength="84" x="68" y="393.9102">ApplicationPOT</text><line style="stroke: #A80036; stroke-width: 1.5;" x1="40" x2="154" y1="405" y2="405"/><line style="stroke: #A80036; stroke-width: 1.5;" x1="40" x2="154" y1="413" y2="413"/><text fill="#000000" font-family="sans-serif" font-size="11" lengthAdjust="spacingAndGlyphs" textLength="99" x="45" y="428.4189">+static getInstance()</text><text fill="#000000" font-family="sans-serif" font-size="11" lengthAdjust="spacingAndGlyphs" textLength="68" x="45" y="442.2549">+getPlatform()</text><!--MD5=[c5b08e60048ef1bcd788d24cf324082e]
class UserSession--><rect fill="#FEFECE" filter="url(#f16ua9is85jph2)" height="61.8359" id="UserSession" style="stroke: #A80036; stroke-width: 1.5;" width="116" x="190" y="380"/><ellipse cx="209.95" cy="396" fill="#ADD1B2" rx="11" ry="11" style="stroke: #A80036; stroke-width: 1.0;"/><path d="M211.95,392.5 Q212.1531,392 212.3875,391.75 Q212.6219,391.5 212.8875,391.5 Q213.3563,391.5 213.6531,391.7813 Q213.95,392.0625 213.95,392.7188 L213.95,394.2813 Q213.95,394.9375 213.6688,395.2188 Q213.3875,395.5 212.95,395.5 Q212.5594,395.5 212.3094,395.3281 Q212.0594,395.1563 211.95,394.7031 Q211.9031,394.3906 211.7313,394.2188 Q211.4188,393.8906 210.8563,393.7031 Q210.2938,393.5 209.7313,393.5 Q209.0281,393.5 208.4344,393.7813 Q207.8563,394.0625 207.4031,394.6875 Q206.95,395.3125 206.95,396.1719 L206.95,397.0938 Q206.95,398.125 207.7938,398.8125 Q208.6375,399.5 210.1375,399.5 Q211.0281,399.5 211.6531,399.2969 Q212.0125,399.1875 212.4188,398.8281 Q212.6844,398.625 212.825,398.5625 Q212.9656,398.5 213.1375,398.5 Q213.4656,398.5 213.7,398.7656 Q213.95,399.0156 213.95,399.375 Q213.95,399.7188 213.6063,400.125 Q213.1063,400.7188 212.3094,401.0469 Q211.2625,401.5 209.9813,401.5 Q208.4813,401.5 207.2781,400.9063 Q206.3094,400.4375 205.6219,399.4219 Q204.95,398.4063 204.95,397.2031 L204.95,396.1094 Q204.95,394.8594 205.5438,393.7656 Q206.1531,392.6719 207.2,392.0938 Q208.2625,391.5 209.45,391.5 Q210.1688,391.5 210.7938,391.75 Q211.4188,392 211.95,392.5 Z "/><text fill="#000000" font-family="sans-serif" font-size="12" lengthAdjust="spacingAndGlyphs" textLength="73" x="225.05" y="400.9102">UserSession</text><line style="stroke: #A80036; stroke-width: 1.5;" x1="191" x2="305" y1="412" y2="412"/><line style="stroke: #A80036; stroke-width: 1.5;" x1="191" x2="305" y1="420" y2="420"/><text fill="#000000" font-family="sans-serif" font-size="11" lengthAdjust="spacingAndGlyphs" textLength="104" x="196" y="435.4189">+getCurrentSession()</text><!--MD5=[99b8db98afdc2c8404e39242ef4c1e65]
class Platform--><rect fill="#FEFECE" filter="url(#f16ua9is85jph2)" height="89.5078" id="Platform" style="stroke: #A80036; stroke-width: 1.5;" width="102" x="385" y="366"/><ellipse cx="410.8" cy="382" fill="#ADD1B2" rx="11" ry="11" style="stroke: #A80036; stroke-width: 1.0;"/><path d="M412.8,378.5 Q413.0031,378 413.2375,377.75 Q413.4719,377.5 413.7375,377.5 Q414.2063,377.5 414.5031,377.7813 Q414.8,378.0625 414.8,378.7188 L414.8,380.2813 Q414.8,380.9375 414.5188,381.2188 Q414.2375,381.5 413.8,381.5 Q413.4094,381.5 413.1594,381.3281 Q412.9094,381.1563 412.8,380.7031 Q412.7531,380.3906 412.5813,380.2188 Q412.2688,379.8906 411.7063,379.7031 Q411.1438,379.5 410.5813,379.5 Q409.8781,379.5 409.2844,379.7813 Q408.7063,380.0625 408.2531,380.6875 Q407.8,381.3125 407.8,382.1719 L407.8,383.0938 Q407.8,384.125 408.6438,384.8125 Q409.4875,385.5 410.9875,385.5 Q411.8781,385.5 412.5031,385.2969 Q412.8625,385.1875 413.2688,384.8281 Q413.5344,384.625 413.675,384.5625 Q413.8156,384.5 413.9875,384.5 Q414.3156,384.5 414.55,384.7656 Q414.8,385.0156 414.8,385.375 Q414.8,385.7188 414.4563,386.125 Q413.9563,386.7188 413.1594,387.0469 Q412.1125,387.5 410.8313,387.5 Q409.3313,387.5 408.1281,386.9063 Q407.1594,386.4375 406.4719,385.4219 Q405.8,384.4063 405.8,383.2031 L405.8,382.1094 Q405.8,380.8594 406.3938,379.7656 Q407.0031,378.6719 408.05,378.0938 Q409.1125,377.5 410.3,377.5 Q411.0188,377.5 411.6438,377.75 Q412.2688,378 412.8,378.5 Z "/><text fill="#000000" font-family="sans-serif" font-size="12" lengthAdjust="spacingAndGlyphs" textLength="46" x="427.2" y="386.9102">Platform</text><line style="stroke: #A80036; stroke-width: 1.5;" x1="386" x2="486" y1="398" y2="398"/><text fill="#000000" font-family="sans-serif" font-size="11" lengthAdjust="spacingAndGlyphs" textLength="90" x="391" y="413.4189">-String designation</text><line style="stroke: #A80036; stroke-width: 1.5;" x1="386" x2="486" y1="419.8359" y2="419.8359"/><text fill="#000000" font-family="sans-serif" font-size="11" lengthAdjust="spacingAndGlyphs" textLength="75" x="391" y="435.2549">+gePharmReg()</text><text fill="#000000" font-family="sans-serif" font-size="11" lengthAdjust="spacingAndGlyphs" textLength="76" x="391" y="449.0908">+getScootReg()</text><!--MD5=[f4402668d5d5bb8485350c0fdb60ac8e]
class Scooter--><rect fill="#FEFECE" filter="url(#f16ua9is85jph2)" height="158.6875" id="Scooter" style="stroke: #A80036; stroke-width: 1.5;" width="237" x="406.5" y="712"/><ellipse cx="499.75" cy="728" fill="#ADD1B2" rx="11" ry="11" style="stroke: #A80036; stroke-width: 1.0;"/><path d="M501.75,724.5 Q501.9531,724 502.1875,723.75 Q502.4219,723.5 502.6875,723.5 Q503.1563,723.5 503.4531,723.7813 Q503.75,724.0625 503.75,724.7188 L503.75,726.2813 Q503.75,726.9375 503.4688,727.2188 Q503.1875,727.5 502.75,727.5 Q502.3594,727.5 502.1094,727.3281 Q501.8594,727.1563 501.75,726.7031 Q501.7031,726.3906 501.5313,726.2188 Q501.2188,725.8906 500.6563,725.7031 Q500.0938,725.5 499.5313,725.5 Q498.8281,725.5 498.2344,725.7813 Q497.6563,726.0625 497.2031,726.6875 Q496.75,727.3125 496.75,728.1719 L496.75,729.0938 Q496.75,730.125 497.5938,730.8125 Q498.4375,731.5 499.9375,731.5 Q500.8281,731.5 501.4531,731.2969 Q501.8125,731.1875 502.2188,730.8281 Q502.4844,730.625 502.625,730.5625 Q502.7656,730.5 502.9375,730.5 Q503.2656,730.5 503.5,730.7656 Q503.75,731.0156 503.75,731.375 Q503.75,731.7188 503.4063,732.125 Q502.9063,732.7188 502.1094,733.0469 Q501.0625,733.5 499.7813,733.5 Q498.2813,733.5 497.0781,732.9063 Q496.1094,732.4375 495.4219,731.4219 Q494.75,730.4063 494.75,729.2031 L494.75,728.1094 Q494.75,726.8594 495.3438,725.7656 Q495.9531,724.6719 497,724.0938 Q498.0625,723.5 499.25,723.5 Q499.9688,723.5 500.5938,723.75 Q501.2188,724 501.75,724.5 Z "/><text fill="#000000" font-family="sans-serif" font-size="12" lengthAdjust="spacingAndGlyphs" textLength="42" x="520.25" y="732.9102">Scooter</text><line style="stroke: #A80036; stroke-width: 1.5;" x1="407.5" x2="642.5" y1="744" y2="744"/><text fill="#000000" font-family="sans-serif" font-size="11" lengthAdjust="spacingAndGlyphs" textLength="26" x="412.5" y="759.4189">-int id</text><text fill="#000000" font-family="sans-serif" font-size="11" lengthAdjust="spacingAndGlyphs" textLength="74" x="412.5" y="773.2549">-int batteryPerc</text><text fill="#000000" font-family="sans-serif" font-size="11" lengthAdjust="spacingAndGlyphs" textLength="85" x="412.5" y="787.0908">-int charginStatus</text><text fill="#000000" font-family="sans-serif" font-size="11" lengthAdjust="spacingAndGlyphs" textLength="57" x="412.5" y="800.9268">-int potency</text><text fill="#000000" font-family="sans-serif" font-size="11" lengthAdjust="spacingAndGlyphs" textLength="51" x="412.5" y="814.7627">-int weight</text><text fill="#000000" font-family="sans-serif" font-size="11" lengthAdjust="spacingAndGlyphs" textLength="94" x="412.5" y="828.5986">-int batteryCapacity</text><line style="stroke: #A80036; stroke-width: 1.5;" x1="407.5" x2="642.5" y1="835.0156" y2="835.0156"/><text fill="#000000" font-family="sans-serif" font-size="11" lengthAdjust="spacingAndGlyphs" textLength="225" x="412.5" y="850.4346">+Scooter(batteryPerc, charginStatus, potency,</text><text fill="#000000" font-family="sans-serif" font-size="11" lengthAdjust="spacingAndGlyphs" textLength="119" x="415.5" y="864.2705">weight, batteryCapacity)</text><!--MD5=[0f39e4cb6f03951afbf6d14bd2505654]
class Address--><rect fill="#FEFECE" filter="url(#f16ua9is85jph2)" height="144.8516" id="Address" style="stroke: #A80036; stroke-width: 1.5;" width="106" x="388" y="1117"/><ellipse cx="415.6" cy="1133" fill="#ADD1B2" rx="11" ry="11" style="stroke: #A80036; stroke-width: 1.0;"/><path d="M417.6,1129.5 Q417.8031,1129 418.0375,1128.75 Q418.2719,1128.5 418.5375,1128.5 Q419.0063,1128.5 419.3031,1128.7813 Q419.6,1129.0625 419.6,1129.7188 L419.6,1131.2813 Q419.6,1131.9375 419.3188,1132.2188 Q419.0375,1132.5 418.6,1132.5 Q418.2094,1132.5 417.9594,1132.3281 Q417.7094,1132.1563 417.6,1131.7031 Q417.5531,1131.3906 417.3813,1131.2188 Q417.0688,1130.8906 416.5063,1130.7031 Q415.9438,1130.5 415.3813,1130.5 Q414.6781,1130.5 414.0844,1130.7813 Q413.5063,1131.0625 413.0531,1131.6875 Q412.6,1132.3125 412.6,1133.1719 L412.6,1134.0938 Q412.6,1135.125 413.4438,1135.8125 Q414.2875,1136.5 415.7875,1136.5 Q416.6781,1136.5 417.3031,1136.2969 Q417.6625,1136.1875 418.0688,1135.8281 Q418.3344,1135.625 418.475,1135.5625 Q418.6156,1135.5 418.7875,1135.5 Q419.1156,1135.5 419.35,1135.7656 Q419.6,1136.0156 419.6,1136.375 Q419.6,1136.7188 419.2563,1137.125 Q418.7563,1137.7188 417.9594,1138.0469 Q416.9125,1138.5 415.6313,1138.5 Q414.1313,1138.5 412.9281,1137.9063 Q411.9594,1137.4375 411.2719,1136.4219 Q410.6,1135.4063 410.6,1134.2031 L410.6,1133.1094 Q410.6,1131.8594 411.1938,1130.7656 Q411.8031,1129.6719 412.85,1129.0938 Q413.9125,1128.5 415.1,1128.5 Q415.8188,1128.5 416.4438,1128.75 Q417.0688,1129 417.6,1129.5 Z "/><text fill="#000000" font-family="sans-serif" font-size="12" lengthAdjust="spacingAndGlyphs" textLength="46" x="432.4" y="1137.9102">Address</text><line style="stroke: #A80036; stroke-width: 1.5;" x1="389" x2="493" y1="1149" y2="1149"/><text fill="#000000" font-family="sans-serif" font-size="11" lengthAdjust="spacingAndGlyphs" textLength="71" x="394" y="1164.4189">-float longitude</text><text fill="#000000" font-family="sans-serif" font-size="11" lengthAdjust="spacingAndGlyphs" textLength="62" x="394" y="1178.2549">-float latitude</text><text fill="#000000" font-family="sans-serif" font-size="11" lengthAdjust="spacingAndGlyphs" textLength="94" x="394" y="1192.0908">-String doorNumber</text><text fill="#000000" font-family="sans-serif" font-size="11" lengthAdjust="spacingAndGlyphs" textLength="90" x="394" y="1205.9268">-String streetName</text><text fill="#000000" font-family="sans-serif" font-size="11" lengthAdjust="spacingAndGlyphs" textLength="89" x="394" y="1219.7627">-String postalCode</text><text fill="#000000" font-family="sans-serif" font-size="11" lengthAdjust="spacingAndGlyphs" textLength="68" x="394" y="1233.5986">-String locality</text><text fill="#000000" font-family="sans-serif" font-size="11" lengthAdjust="spacingAndGlyphs" textLength="72" x="394" y="1247.4346">-String country</text><line style="stroke: #A80036; stroke-width: 1.5;" x1="389" x2="493" y1="1253.8516" y2="1253.8516"/><!--MD5=[7f2a9fafcebe4f099f71398fd3e2ed00]
class Pharmacy--><rect fill="#FEFECE" filter="url(#f16ua9is85jph2)" height="89.5078" id="Pharmacy" style="stroke: #A80036; stroke-width: 1.5;" width="102" x="411" y="949"/><ellipse cx="432.75" cy="965" fill="#ADD1B2" rx="11" ry="11" style="stroke: #A80036; stroke-width: 1.0;"/><path d="M434.75,961.5 Q434.9531,961 435.1875,960.75 Q435.4219,960.5 435.6875,960.5 Q436.1563,960.5 436.4531,960.7813 Q436.75,961.0625 436.75,961.7188 L436.75,963.2813 Q436.75,963.9375 436.4688,964.2188 Q436.1875,964.5 435.75,964.5 Q435.3594,964.5 435.1094,964.3281 Q434.8594,964.1563 434.75,963.7031 Q434.7031,963.3906 434.5313,963.2188 Q434.2188,962.8906 433.6563,962.7031 Q433.0938,962.5 432.5313,962.5 Q431.8281,962.5 431.2344,962.7813 Q430.6563,963.0625 430.2031,963.6875 Q429.75,964.3125 429.75,965.1719 L429.75,966.0938 Q429.75,967.125 430.5938,967.8125 Q431.4375,968.5 432.9375,968.5 Q433.8281,968.5 434.4531,968.2969 Q434.8125,968.1875 435.2188,967.8281 Q435.4844,967.625 435.625,967.5625 Q435.7656,967.5 435.9375,967.5 Q436.2656,967.5 436.5,967.7656 Q436.75,968.0156 436.75,968.375 Q436.75,968.7188 436.4063,969.125 Q435.9063,969.7188 435.1094,970.0469 Q434.0625,970.5 432.7813,970.5 Q431.2813,970.5 430.0781,969.9063 Q429.1094,969.4375 428.4219,968.4219 Q427.75,967.4063 427.75,966.2031 L427.75,965.1094 Q427.75,963.8594 428.3438,962.7656 Q428.9531,961.6719 430,961.0938 Q431.0625,960.5 432.25,960.5 Q432.9688,960.5 433.5938,960.75 Q434.2188,961 434.75,961.5 Z "/><text fill="#000000" font-family="sans-serif" font-size="12" lengthAdjust="spacingAndGlyphs" textLength="55" x="448.25" y="969.9102">Pharmacy</text><line style="stroke: #A80036; stroke-width: 1.5;" x1="412" x2="512" y1="981" y2="981"/><text fill="#000000" font-family="sans-serif" font-size="11" lengthAdjust="spacingAndGlyphs" textLength="26" x="417" y="996.4189">-int id</text><text fill="#000000" font-family="sans-serif" font-size="11" lengthAdjust="spacingAndGlyphs" textLength="61" x="417" y="1010.2549">-String name</text><line style="stroke: #A80036; stroke-width: 1.5;" x1="412" x2="512" y1="1016.6719" y2="1016.6719"/><text fill="#000000" font-family="sans-serif" font-size="11" lengthAdjust="spacingAndGlyphs" textLength="90" x="417" y="1032.0908">+getScootersList()</text><!--MD5=[3fd616f346a44cd59a91eb10b19e157c]
class User--><rect fill="#FEFECE" filter="url(#f16ua9is85jph2)" height="103.3438" id="User" style="stroke: #A80036; stroke-width: 1.5;" width="97" x="548.5" y="1340"/><ellipse cx="580.6" cy="1356" fill="#ADD1B2" rx="11" ry="11" style="stroke: #A80036; stroke-width: 1.0;"/><path d="M582.6,1352.5 Q582.8031,1352 583.0375,1351.75 Q583.2719,1351.5 583.5375,1351.5 Q584.0063,1351.5 584.3031,1351.7813 Q584.6,1352.0625 584.6,1352.7188 L584.6,1354.2813 Q584.6,1354.9375 584.3188,1355.2188 Q584.0375,1355.5 583.6,1355.5 Q583.2094,1355.5 582.9594,1355.3281 Q582.7094,1355.1563 582.6,1354.7031 Q582.5531,1354.3906 582.3813,1354.2188 Q582.0688,1353.8906 581.5063,1353.7031 Q580.9438,1353.5 580.3813,1353.5 Q579.6781,1353.5 579.0844,1353.7813 Q578.5063,1354.0625 578.0531,1354.6875 Q577.6,1355.3125 577.6,1356.1719 L577.6,1357.0938 Q577.6,1358.125 578.4438,1358.8125 Q579.2875,1359.5 580.7875,1359.5 Q581.6781,1359.5 582.3031,1359.2969 Q582.6625,1359.1875 583.0688,1358.8281 Q583.3344,1358.625 583.475,1358.5625 Q583.6156,1358.5 583.7875,1358.5 Q584.1156,1358.5 584.35,1358.7656 Q584.6,1359.0156 584.6,1359.375 Q584.6,1359.7188 584.2563,1360.125 Q583.7563,1360.7188 582.9594,1361.0469 Q581.9125,1361.5 580.6313,1361.5 Q579.1313,1361.5 577.9281,1360.9063 Q576.9594,1360.4375 576.2719,1359.4219 Q575.6,1358.4063 575.6,1357.2031 L575.6,1356.1094 Q575.6,1354.8594 576.1938,1353.7656 Q576.8031,1352.6719 577.85,1352.0938 Q578.9125,1351.5 580.1,1351.5 Q580.8188,1351.5 581.4438,1351.75 Q582.0688,1352 582.6,1352.5 Z "/><text fill="#000000" font-family="sans-serif" font-size="12" lengthAdjust="spacingAndGlyphs" textLength="27" x="598.4" y="1360.9102">User</text><line style="stroke: #A80036; stroke-width: 1.5;" x1="549.5" x2="644.5" y1="1372" y2="1372"/><text fill="#000000" font-family="sans-serif" font-size="11" lengthAdjust="spacingAndGlyphs" textLength="61" x="554.5" y="1387.4189">-String name</text><text fill="#000000" font-family="sans-serif" font-size="11" lengthAdjust="spacingAndGlyphs" textLength="59" x="554.5" y="1401.2549">-String email</text><text fill="#000000" font-family="sans-serif" font-size="11" lengthAdjust="spacingAndGlyphs" textLength="85" x="554.5" y="1415.0908">-String password</text><text fill="#000000" font-family="sans-serif" font-size="11" lengthAdjust="spacingAndGlyphs" textLength="52" x="554.5" y="1428.9268">-Integer nif</text><line style="stroke: #A80036; stroke-width: 1.5;" x1="549.5" x2="644.5" y1="1435.3438" y2="1435.3438"/><!--MD5=[2fa756869cccd4a326cf3bfeb06b754f]
class PharmacyManager--><rect fill="#FEFECE" filter="url(#f16ua9is85jph2)" height="48" id="PharmacyManager" style="stroke: #A80036; stroke-width: 1.5;" width="135" x="529.5" y="1165.5"/><ellipse cx="544.5" cy="1181.5" fill="#ADD1B2" rx="11" ry="11" style="stroke: #A80036; stroke-width: 1.0;"/><path d="M546.5,1178 Q546.7031,1177.5 546.9375,1177.25 Q547.1719,1177 547.4375,1177 Q547.9063,1177 548.2031,1177.2813 Q548.5,1177.5625 548.5,1178.2188 L548.5,1179.7813 Q548.5,1180.4375 548.2188,1180.7188 Q547.9375,1181 547.5,1181 Q547.1094,1181 546.8594,1180.8281 Q546.6094,1180.6563 546.5,1180.2031 Q546.4531,1179.8906 546.2813,1179.7188 Q545.9688,1179.3906 545.4063,1179.2031 Q544.8438,1179 544.2813,1179 Q543.5781,1179 542.9844,1179.2813 Q542.4063,1179.5625 541.9531,1180.1875 Q541.5,1180.8125 541.5,1181.6719 L541.5,1182.5938 Q541.5,1183.625 542.3438,1184.3125 Q543.1875,1185 544.6875,1185 Q545.5781,1185 546.2031,1184.7969 Q546.5625,1184.6875 546.9688,1184.3281 Q547.2344,1184.125 547.375,1184.0625 Q547.5156,1184 547.6875,1184 Q548.0156,1184 548.25,1184.2656 Q548.5,1184.5156 548.5,1184.875 Q548.5,1185.2188 548.1563,1185.625 Q547.6563,1186.2188 546.8594,1186.5469 Q545.8125,1187 544.5313,1187 Q543.0313,1187 541.8281,1186.4063 Q540.8594,1185.9375 540.1719,1184.9219 Q539.5,1183.9063 539.5,1182.7031 L539.5,1181.6094 Q539.5,1180.3594 540.0938,1179.2656 Q540.7031,1178.1719 541.75,1177.5938 Q542.8125,1177 544,1177 Q544.7188,1177 545.3438,1177.25 Q545.9688,1177.5 546.5,1178 Z "/><text fill="#000000" font-family="sans-serif" font-size="12" lengthAdjust="spacingAndGlyphs" textLength="103" x="558.5" y="1186.4102">PharmacyManager</text><line style="stroke: #A80036; stroke-width: 1.5;" x1="530.5" x2="663.5" y1="1197.5" y2="1197.5"/><line style="stroke: #A80036; stroke-width: 1.5;" x1="530.5" x2="663.5" y1="1205.5" y2="1205.5"/><!--MD5=[c5b7c01e8de644a6bcc6ccb0cb86eabf]
class PharmacyRegistration--><rect fill="#FEFECE" filter="url(#f16ua9is85jph2)" height="75.6719" id="PharmacyRegistration" style="stroke: #A80036; stroke-width: 1.5;" width="168" x="605" y="556"/><ellipse cx="626.3" cy="572" fill="#ADD1B2" rx="11" ry="11" style="stroke: #A80036; stroke-width: 1.0;"/><path d="M628.3,568.5 Q628.5031,568 628.7375,567.75 Q628.9719,567.5 629.2375,567.5 Q629.7063,567.5 630.0031,567.7813 Q630.3,568.0625 630.3,568.7188 L630.3,570.2813 Q630.3,570.9375 630.0188,571.2188 Q629.7375,571.5 629.3,571.5 Q628.9094,571.5 628.6594,571.3281 Q628.4094,571.1563 628.3,570.7031 Q628.2531,570.3906 628.0813,570.2188 Q627.7688,569.8906 627.2063,569.7031 Q626.6438,569.5 626.0813,569.5 Q625.3781,569.5 624.7844,569.7813 Q624.2063,570.0625 623.7531,570.6875 Q623.3,571.3125 623.3,572.1719 L623.3,573.0938 Q623.3,574.125 624.1438,574.8125 Q624.9875,575.5 626.4875,575.5 Q627.3781,575.5 628.0031,575.2969 Q628.3625,575.1875 628.7688,574.8281 Q629.0344,574.625 629.175,574.5625 Q629.3156,574.5 629.4875,574.5 Q629.8156,574.5 630.05,574.7656 Q630.3,575.0156 630.3,575.375 Q630.3,575.7188 629.9563,576.125 Q629.4563,576.7188 628.6594,577.0469 Q627.6125,577.5 626.3313,577.5 Q624.8313,577.5 623.6281,576.9063 Q622.6594,576.4375 621.9719,575.4219 Q621.3,574.4063 621.3,573.2031 L621.3,572.1094 Q621.3,570.8594 621.8938,569.7656 Q622.5031,568.6719 623.55,568.0938 Q624.6125,567.5 625.8,567.5 Q626.5188,567.5 627.1438,567.75 Q627.7688,568 628.3,568.5 Z "/><text fill="#000000" font-family="sans-serif" font-size="12" lengthAdjust="spacingAndGlyphs" textLength="122" x="641.7" y="576.9102">PharmacyRegistration</text><line style="stroke: #A80036; stroke-width: 1.5;" x1="606" x2="772" y1="588" y2="588"/><line style="stroke: #A80036; stroke-width: 1.5;" x1="606" x2="772" y1="596" y2="596"/><text fill="#000000" font-family="sans-serif" font-size="11" lengthAdjust="spacingAndGlyphs" textLength="156" x="611" y="611.4189">+getPharmacyByManager(email)</text><text fill="#000000" font-family="sans-serif" font-size="11" lengthAdjust="spacingAndGlyphs" textLength="83" x="611" y="625.2549">+getConnection()</text><!--MD5=[4a15ac34fd2b3f03c890a74250c9952b]
class ScooterRegistration--><rect fill="#FEFECE" filter="url(#f16ua9is85jph2)" height="75.6719" id="ScooterRegistration" style="stroke: #A80036; stroke-width: 1.5;" width="308" x="808" y="556"/><ellipse cx="903.25" cy="572" fill="#ADD1B2" rx="11" ry="11" style="stroke: #A80036; stroke-width: 1.0;"/><path d="M905.25,568.5 Q905.4531,568 905.6875,567.75 Q905.9219,567.5 906.1875,567.5 Q906.6563,567.5 906.9531,567.7813 Q907.25,568.0625 907.25,568.7188 L907.25,570.2813 Q907.25,570.9375 906.9688,571.2188 Q906.6875,571.5 906.25,571.5 Q905.8594,571.5 905.6094,571.3281 Q905.3594,571.1563 905.25,570.7031 Q905.2031,570.3906 905.0313,570.2188 Q904.7188,569.8906 904.1563,569.7031 Q903.5938,569.5 903.0313,569.5 Q902.3281,569.5 901.7344,569.7813 Q901.1563,570.0625 900.7031,570.6875 Q900.25,571.3125 900.25,572.1719 L900.25,573.0938 Q900.25,574.125 901.0938,574.8125 Q901.9375,575.5 903.4375,575.5 Q904.3281,575.5 904.9531,575.2969 Q905.3125,575.1875 905.7188,574.8281 Q905.9844,574.625 906.125,574.5625 Q906.2656,574.5 906.4375,574.5 Q906.7656,574.5 907,574.7656 Q907.25,575.0156 907.25,575.375 Q907.25,575.7188 906.9063,576.125 Q906.4063,576.7188 905.6094,577.0469 Q904.5625,577.5 903.2813,577.5 Q901.7813,577.5 900.5781,576.9063 Q899.6094,576.4375 898.9219,575.4219 Q898.25,574.4063 898.25,573.2031 L898.25,572.1094 Q898.25,570.8594 898.8438,569.7656 Q899.4531,568.6719 900.5,568.0938 Q901.5625,567.5 902.75,567.5 Q903.4688,567.5 904.0938,567.75 Q904.7188,568 905.25,568.5 Z "/><text fill="#000000" font-family="sans-serif" font-size="12" lengthAdjust="spacingAndGlyphs" textLength="109" x="923.75" y="576.9102">ScooterRegistration</text><line style="stroke: #A80036; stroke-width: 1.5;" x1="809" x2="1115" y1="588" y2="588"/><line style="stroke: #A80036; stroke-width: 1.5;" x1="809" x2="1115" y1="596" y2="596"/><text fill="#000000" font-family="sans-serif" font-size="11" lengthAdjust="spacingAndGlyphs" textLength="296" x="814" y="611.4189">+updateScooterFromDB(batteryPerc, charginStatus, potency,</text><text fill="#000000" font-family="sans-serif" font-size="11" lengthAdjust="spacingAndGlyphs" textLength="119" x="817" y="625.2549">weight, batteryCapacity)</text><!--MD5=[4b2d61224b33971326a22fe5d809d926]
class DataHandler--><rect fill="#FEFECE" filter="url(#f16ua9is85jph2)" height="75.6719" id="DataHandler" style="stroke: #A80036; stroke-width: 1.5;" width="104" x="1196" y="373"/><ellipse cx="1211.9" cy="389" fill="#ADD1B2" rx="11" ry="11" style="stroke: #A80036; stroke-width: 1.0;"/><path d="M1213.9,385.5 Q1214.1031,385 1214.3375,384.75 Q1214.5719,384.5 1214.8375,384.5 Q1215.3063,384.5 1215.6031,384.7813 Q1215.9,385.0625 1215.9,385.7188 L1215.9,387.2813 Q1215.9,387.9375 1215.6188,388.2188 Q1215.3375,388.5 1214.9,388.5 Q1214.5094,388.5 1214.2594,388.3281 Q1214.0094,388.1563 1213.9,387.7031 Q1213.8531,387.3906 1213.6813,387.2188 Q1213.3688,386.8906 1212.8063,386.7031 Q1212.2438,386.5 1211.6813,386.5 Q1210.9781,386.5 1210.3844,386.7813 Q1209.8063,387.0625 1209.3531,387.6875 Q1208.9,388.3125 1208.9,389.1719 L1208.9,390.0938 Q1208.9,391.125 1209.7438,391.8125 Q1210.5875,392.5 1212.0875,392.5 Q1212.9781,392.5 1213.6031,392.2969 Q1213.9625,392.1875 1214.3688,391.8281 Q1214.6344,391.625 1214.775,391.5625 Q1214.9156,391.5 1215.0875,391.5 Q1215.4156,391.5 1215.65,391.7656 Q1215.9,392.0156 1215.9,392.375 Q1215.9,392.7188 1215.5563,393.125 Q1215.0563,393.7188 1214.2594,394.0469 Q1213.2125,394.5 1211.9313,394.5 Q1210.4313,394.5 1209.2281,393.9063 Q1208.2594,393.4375 1207.5719,392.4219 Q1206.9,391.4063 1206.9,390.2031 L1206.9,389.1094 Q1206.9,387.8594 1207.4938,386.7656 Q1208.1031,385.6719 1209.15,385.0938 Q1210.2125,384.5 1211.4,384.5 Q1212.1188,384.5 1212.7438,384.75 Q1213.3688,385 1213.9,385.5 Z "/><text fill="#000000" font-family="sans-serif" font-size="12" lengthAdjust="spacingAndGlyphs" textLength="70" x="1226.1" y="393.9102">DataHandler</text><line style="stroke: #A80036; stroke-width: 1.5;" x1="1197" x2="1299" y1="405" y2="405"/><line style="stroke: #A80036; stroke-width: 1.5;" x1="1197" x2="1299" y1="413" y2="413"/><text fill="#000000" font-family="sans-serif" font-size="11" lengthAdjust="spacingAndGlyphs" textLength="92" x="1202" y="428.4189">+openConnection()</text><text fill="#000000" font-family="sans-serif" font-size="11" lengthAdjust="spacingAndGlyphs" textLength="52" x="1202" y="442.2549">+closeAll()</text><!--MD5=[88cdc1ff0babf321196dd88b9a70f9c4]
reverse link DataHandler to PharmacyRegistration--><path d="M1183.88,459.94 C1174.86,465.04 1165.44,469.6 1156,473 C1079.26,500.662 866.485,481.078 791,512 C766.727,521.943 743.508,539.507 725.373,555.743 " fill="none" id="DataHandler&lt;-PharmacyRegistration" style="stroke: #A80036; stroke-width: 1.0;"/><polygon fill="none" points="1180.47,453.82,1201.16,449.26,1187.82,465.73,1180.47,453.82" style="stroke: #A80036; stroke-width: 1.0;"/><!--MD5=[527120703de7dfffd3117b230a6ddff3]
reverse link DataHandler to ScooterRegistration--><path d="M1178.64,458.32 C1171.02,463.31 1163.36,468.28 1156,473 C1111.81,501.304 1061.4,532.456 1023.04,555.925 " fill="none" id="DataHandler&lt;-ScooterRegistration" style="stroke: #A80036; stroke-width: 1.0;"/><polygon fill="none" points="1175.09,452.28,1195.64,447.13,1182.79,463.97,1175.09,452.28" style="stroke: #A80036; stroke-width: 1.0;"/><!--MD5=[068c19e9ee2b8d6f5118254dd44da898]
link UpdateScooterUI to UpdateScooterController--><path d="M173,108.09 C173,129.11 173,160.85 173,187.58 " fill="none" id="UpdateScooterUI-&gt;UpdateScooterController" style="stroke: #A80036; stroke-width: 1.0; stroke-dasharray: 7.0,7.0;"/><polygon fill="#A80036" points="173,192.85,177,183.85,173,187.85,169,183.85,173,192.85" style="stroke: #A80036; stroke-width: 1.0;"/><!--MD5=[f3f1f35345fb8725b15e625f567a1711]
link UpdateScooterController to Platform--><path d="M259.09,283.16 C280.694,295.09 303.539,308.47 324,322 C343.176,334.68 363.195,349.76 380.916,363.82 " fill="none" id="UpdateScooterController-&gt;Platform" style="stroke: #A80036; stroke-width: 1.0; stroke-dasharray: 7.0,7.0;"/><polygon fill="#A80036" points="384.896,366.99,380.3455,358.2554,380.984,363.8761,375.3633,364.5146,384.896,366.99" style="stroke: #A80036; stroke-width: 1.0;"/><!--MD5=[871f2fb6842f01c8edb6904d247d3c77]
link UpdateScooterController to ApplicationPOT--><path d="M153.428,283.04 C141.794,309.21 127.118,342.23 115.65,368.04 " fill="none" id="UpdateScooterController-&gt;ApplicationPOT" style="stroke: #A80036; stroke-width: 1.0; stroke-dasharray: 7.0,7.0;"/><polygon fill="#A80036" points="113.547,372.77,120.8552,366.1677,115.5761,368.2002,113.5436,362.9211,113.547,372.77" style="stroke: #A80036; stroke-width: 1.0;"/><!--MD5=[996c2da959792bedde9a6294472023de]
link UpdateScooterController to UserSession--><path d="M192.314,283.04 C204.858,311.64 220.984,348.4 232.651,375 " fill="none" id="UpdateScooterController-&gt;UserSession" style="stroke: #A80036; stroke-width: 1.0; stroke-dasharray: 7.0,7.0;"/><polygon fill="#A80036" points="234.776,379.85,234.8389,370.0013,232.7745,375.2681,227.5078,373.2037,234.776,379.85" style="stroke: #A80036; stroke-width: 1.0;"/><!--MD5=[f94ed16b1d761a53d4eba61183b6d758]
link Platform to PharmacyRegistration--><path d="M487.003,434.2 C515.001,447.44 549.681,465.62 578,486 C604.803,505.286 631.549,530.832 652.07,552.126 " fill="none" id="Platform-&gt;PharmacyRegistration" style="stroke: #A80036; stroke-width: 1.0;"/><polygon fill="#A80036" points="655.568,555.777,652.2301,546.511,652.109,552.1666,646.4534,552.0455,655.568,555.777" style="stroke: #A80036; stroke-width: 1.0;"/><text fill="#000000" font-family="sans-serif" font-size="13" lengthAdjust="spacingAndGlyphs" textLength="21" x="598" y="500.4951">has</text><text fill="#000000" font-family="sans-serif" font-size="13" lengthAdjust="spacingAndGlyphs" textLength="7" x="495.0081" y="452.3396">1</text><text fill="#000000" font-family="sans-serif" font-size="13" lengthAdjust="spacingAndGlyphs" textLength="7" x="641.9895" y="545.0992">1</text><!--MD5=[10d7a1607bc161c4e7d004457651c20f]
link ScooterRegistration to Scooter--><path d="M861.834,632.11 C805.17,653.887 733.384,682.798 671,712 C663.553,715.486 655.95,719.171 648.319,722.969 " fill="none" id="ScooterRegistration-&gt;Scooter" style="stroke: #A80036; stroke-width: 1.0;"/><polygon fill="#A80036" points="643.564,725.346,653.4026,724.8963,648.0356,723.1088,649.823,717.7418,643.564,725.346" style="stroke: #A80036; stroke-width: 1.0;"/><text fill="#000000" font-family="sans-serif" font-size="13" lengthAdjust="spacingAndGlyphs" textLength="53" x="774" y="678.4951">manages</text><text fill="#000000" font-family="sans-serif" font-size="13" lengthAdjust="spacingAndGlyphs" textLength="7" x="837.6643" y="653.2984">1</text><text fill="#000000" font-family="sans-serif" font-size="13" lengthAdjust="spacingAndGlyphs" textLength="5" x="651.3197" y="718.1119">*</text><!--MD5=[4a07f137c208f82f57837154e1cfa51e]
link Platform to Pharmacy--><path d="M420.874,456.25 C394.833,539.17 348.088,722.949 389,871 C396.692,898.836 412.601,926.711 427.61,948.775 " fill="none" id="Platform-Pharmacy" style="stroke: #A80036; stroke-width: 1.0;"/><text fill="#000000" font-family="sans-serif" font-size="13" lengthAdjust="spacingAndGlyphs" textLength="82" x="378" y="678.4951">has registered</text><polygon fill="#000000" points="414.5,687.3516,417.5,693.3516,420.5,687.3516,414.5,687.3516" style="stroke: #000000; stroke-width: 1.0;"/><text fill="#000000" font-family="sans-serif" font-size="13" lengthAdjust="spacingAndGlyphs" textLength="7" x="411.3711" y="476.9573">1</text><text fill="#000000" font-family="sans-serif" font-size="13" lengthAdjust="spacingAndGlyphs" textLength="5" x="416.9612" y="938.1846">*</text><!--MD5=[423ba1e9b983bd24d1236c4cf89ceca7]
link Platform to Scooter--><path d="M427.041,456.32 C418.886,510.375 414.532,601.288 463,656 C473.294,667.62 486.096,652.951 497,664 C509.719,676.888 517.207,694.179 521.497,711.83 " fill="none" id="Platform-Scooter" style="stroke: #A80036; stroke-width: 1.0;"/><text fill="#000000" font-family="sans-serif" font-size="13" lengthAdjust="spacingAndGlyphs" textLength="82" x="464" y="599.4951">has registered</text><polygon fill="#000000" points="500.5,608.3516,503.5,614.3516,506.5,608.3516,500.5,608.3516" style="stroke: #000000; stroke-width: 1.0;"/><text fill="#000000" font-family="sans-serif" font-size="13" lengthAdjust="spacingAndGlyphs" textLength="7" x="418.3668" y="477.0367">1</text><text fill="#000000" font-family="sans-serif" font-size="13" lengthAdjust="spacingAndGlyphs" textLength="5" x="515.9436" y="701.2736">*</text><!--MD5=[754ae0e32ddeeb427901936d97e772de]
link Platform to PharmacyManager--><path d="M487.051,439.39 C514.198,456.62 545.667,481.398 564,512 C597.383,567.723 555.557,600.313 589,656 C609.872,690.754 642.806,675.773 661,712 C726.233,841.89 697.181,897.034 666,1039 C655.575,1086.465 628.568,1136.817 611.599,1165.29 " fill="none" id="Platform-PharmacyManager" style="stroke: #A80036; stroke-width: 1.0;"/><text fill="#000000" font-family="sans-serif" font-size="13" lengthAdjust="spacingAndGlyphs" textLength="82" x="701" y="796.9951">has registered</text><polygon fill="#000000" points="737.5,805.8516,740.5,811.8516,743.5,805.8516,737.5,805.8516" style="stroke: #000000; stroke-width: 1.0;"/><text fill="#000000" font-family="sans-serif" font-size="13" lengthAdjust="spacingAndGlyphs" textLength="7" x="495.0632" y="439.9419">1</text><text fill="#000000" font-family="sans-serif" font-size="13" lengthAdjust="spacingAndGlyphs" textLength="5" x="609.6994" y="1154.5763">*</text><!--MD5=[63120965f33aa30485eaf56f4034632c]
link PharmacyManager to User--><path d="M597,1213.834 C597,1244.541 597,1299.35 597,1339.803 " fill="none" id="PharmacyManager-User" style="stroke: #A80036; stroke-width: 1.0;"/><text fill="#000000" font-family="sans-serif" font-size="13" lengthAdjust="spacingAndGlyphs" textLength="43" x="598" y="1306.4951">acts as</text><polygon fill="#000000" points="615,1315.3516,618,1321.3516,621,1315.3516,615,1315.3516" style="stroke: #000000; stroke-width: 1.0;"/><text fill="#000000" font-family="sans-serif" font-size="13" lengthAdjust="spacingAndGlyphs" textLength="22" x="572.4563" y="1234.847">0..1</text><text fill="#000000" font-family="sans-serif" font-size="13" lengthAdjust="spacingAndGlyphs" textLength="7" x="589.5297" y="1329.2769">1</text><!--MD5=[09fe915c748217accc4fcc978cf154f9]
link PharmacyManager to Scooter--><path d="M597.645,1165.338 C598.465,1115.922 597.464,996.849 573,901 C570.478,891.121 567.137,881.005 563.388,871.115 " fill="none" id="PharmacyManager-Scooter" style="stroke: #A80036; stroke-width: 1.0;"/><polygon fill="#000000" points="614.5,996,617.5,990,620.5,996,614.5,996" style="stroke: #000000; stroke-width: 1.0;"/><text fill="#000000" font-family="sans-serif" font-size="13" lengthAdjust="spacingAndGlyphs" textLength="50" x="594" y="1012.4951">registers</text><text fill="#000000" font-family="sans-serif" font-size="13" lengthAdjust="spacingAndGlyphs" textLength="7" x="589.9134" y="1154.6366">1</text><text fill="#000000" font-family="sans-serif" font-size="13" lengthAdjust="spacingAndGlyphs" textLength="20" x="545.8276" y="892.1681">1..*</text><!--MD5=[1563ddde69eb8abda9b50e9ab8dfb994]
link Pharmacy to PharmacyManager--><path d="M492.972,1039.393 C520.373,1078.668 559.267,1134.416 580.9,1165.423 " fill="none" id="Pharmacy-PharmacyManager" style="stroke: #A80036; stroke-width: 1.0;"/><text fill="#000000" font-family="sans-serif" font-size="13" lengthAdjust="spacingAndGlyphs" textLength="21" x="527" y="1083.4951">has</text><polygon fill="#000000" points="533,1092.3516,536,1098.3516,539,1092.3516,533,1092.3516" style="stroke: #000000; stroke-width: 1.0;"/><text fill="#000000" font-family="sans-serif" font-size="13" lengthAdjust="spacingAndGlyphs" textLength="7" x="489.6636" y="1060.1195">1</text><text fill="#000000" font-family="sans-serif" font-size="13" lengthAdjust="spacingAndGlyphs" textLength="7" x="568.8775" y="1154.7434">1</text><!--MD5=[6f1b2737b94c689eac8b0af6a5ef1443]
link Scooter to Pharmacy--><path d="M500.282,871.167 C491.974,897.607 483.005,926.15 475.839,948.958 " fill="none" id="Scooter-Pharmacy" style="stroke: #A80036; stroke-width: 1.0;"/><text fill="#000000" font-family="sans-serif" font-size="13" lengthAdjust="spacingAndGlyphs" textLength="60" x="491" y="915.4951">belongs to</text><polygon fill="#000000" points="516.5,924.3516,519.5,930.3516,522.5,924.3516,516.5,924.3516" style="stroke: #000000; stroke-width: 1.0;"/><text fill="#000000" font-family="sans-serif" font-size="13" lengthAdjust="spacingAndGlyphs" textLength="5" x="492.943" y="892.2245">*</text><text fill="#000000" font-family="sans-serif" font-size="13" lengthAdjust="spacingAndGlyphs" textLength="7" x="470.4868" y="938.0668">1</text><!--MD5=[89baec1bfb4a213750f7c61516e0a0f1]
link Pharmacy to Address--><path d="M452.701,1039.071 C450.899,1048.886 449.201,1059.267 448,1069 C446.092,1084.469 444.701,1101.131 443.688,1116.959 " fill="none" id="Pharmacy-Address" style="stroke: #A80036; stroke-width: 1.0;"/><text fill="#000000" font-family="sans-serif" font-size="13" lengthAdjust="spacingAndGlyphs" textLength="21" x="449" y="1083.4951">has</text><polygon fill="#000000" points="455,1092.3516,458,1098.3516,461,1092.3516,455,1092.3516" style="stroke: #000000; stroke-width: 1.0;"/><text fill="#000000" font-family="sans-serif" font-size="13" lengthAdjust="spacingAndGlyphs" textLength="7" x="443.9011" y="1060.0886">1</text><text fill="#000000" font-family="sans-serif" font-size="13" lengthAdjust="spacingAndGlyphs" textLength="7" x="436.6043" y="1106.1741">1</text><!--MD5=[573a42cb8ae3494d9ef17ec5fba08a51]
@startuml
skinparam classAttributeIconSize 0

package "UI" #DDDDDD {
class UpdateScooterUI{

}
}


package "Controller" #DDDDDD {
class UpdateScooterController{
+updateScooter(batteryPerc, charginStatus, potency,\n weight, batteryCapacity, pharmacy)
+getScootersList(pharmacy)
}

class ApplicationPOT
{
  +static getInstance()
  +getPlatform()
}

class UserSession
{
  +getCurrentSession()
}
}


package "Model" #DDDDDD {
class Platform {
  -String designation
  +gePharmReg()
  +getScootReg()
}
package "Registration" #DDDDDD {
 class PharmacyRegistration{
     +getPharmacyByManager(email)
     +getConnection()
 }

 class ScooterRegistration{
      +updateScooterFromDB(batteryPerc, charginStatus, potency,\n weight, batteryCapacity)
  }
 }
}

package "Model" #DDDDDD {
class Scooter{
  -int id
  -int batteryPerc
  -int charginStatus
  -int potency
  -int weight
  -int batteryCapacity
  +Scooter(batteryPerc, charginStatus, potency,\n weight, batteryCapacity)
}

class Address{
  -float longitude
  -float latitude
  -String doorNumber
  -String streetName
  -String postalCode
  -String locality
  -String country
}

class Pharmacy {
  -int id
  -String name
  +getScootersList()
}

class User{
-   String name
-   String email
-   String password
-   Integer nif
}

class PharmacyManager {
}

}


package "Data" #DDDDDD {
class DataHandler{
    +openConnection()
    +closeAll()
}
}

class PharmacyRegistration extends DataHandler
class ScooterRegistration extends DataHandler

UpdateScooterUI ..> UpdateScooterController
UpdateScooterController ..> Platform
UpdateScooterController ..> ApplicationPOT
UpdateScooterController ..> UserSession
Platform "1" - -> "1" PharmacyRegistration : has
ScooterRegistration "1" - -> "*" Scooter : manages

Platform "1" - - "*" Pharmacy : has registered >
Platform "1" - - "*" Scooter : has registered >
Platform "1" - - "*" PharmacyManager : has registered >

PharmacyManager "0..1" - - "1" User: acts as >
PharmacyManager "1" - - "1..*" Scooter : registers >
Pharmacy "1" - - "1" PharmacyManager : has >
Scooter "*" - - "1" Pharmacy : belongs to >
Pharmacy "1" - - "1" Address : has >

@enduml

PlantUML version 1.2020.09(Sun May 10 11:51:06 BST 2020)
(GPL source distribution)
Java Runtime: OpenJDK Runtime Environment
JVM: OpenJDK 64-Bit Server VM
Java Version: 11.0.6+8-b765.40
Operating System: Windows 10
Default Encoding: Cp1252
Language: pt
Country: PT
--></g></svg>