<?xml version="1.0" encoding="UTF-8" standalone="no"?><svg xmlns="http://www.w3.org/2000/svg" xmlns:xlink="http://www.w3.org/1999/xlink" contentScriptType="application/ecmascript" contentStyleType="text/css" height="904px" preserveAspectRatio="none" style="width:1444px;height:904px;" version="1.1" viewBox="0 0 1444 904" width="1444px" zoomAndPan="magnify"><defs><filter height="300%" id="f1wk2e6arvuwra" width="300%" x="-1" y="-1"><feGaussianBlur result="blurOut" stdDeviation="2.0"/><feColorMatrix in="blurOut" result="blurOut2" type="matrix" values="0 0 0 0 0 0 0 0 0 0 0 0 0 0 0 0 0 0 .4 0"/><feOffset dx="4.0" dy="4.0" in="blurOut2" result="blurOut3"/><feBlend in="SourceGraphic" in2="blurOut3" mode="normal"/></filter></defs><g><!--MD5=[9681dc6e01e10c6b4fe06895ae94f592]
cluster UI--><polygon fill="#DDDDDD" filter="url(#f1wk2e6arvuwra)" points="96,24,116,24,123,47.6094,254,47.6094,254,124,96,124,96,24" style="stroke: #000000; stroke-width: 1.5;"/><line style="stroke: #000000; stroke-width: 1.5;" x1="96" x2="123" y1="47.6094" y2="47.6094"/><text fill="#000000" font-family="sans-serif" font-size="14" font-weight="bold" lengthAdjust="spacingAndGlyphs" textLength="14" x="100" y="40.5332">UI</text><!--MD5=[1f2cfc53d9d308f53762fd0fcbaa4873]
cluster Controller--><polygon fill="#DDDDDD" filter="url(#f1wk2e6arvuwra)" points="22,157,99,157,106,180.6094,321,180.6094,321,465,22,465,22,157" style="stroke: #000000; stroke-width: 1.5;"/><line style="stroke: #000000; stroke-width: 1.5;" x1="22" x2="106" y1="180.6094" y2="180.6094"/><text fill="#000000" font-family="sans-serif" font-size="14" font-weight="bold" lengthAdjust="spacingAndGlyphs" textLength="71" x="26" y="173.5332">Controller</text><!--MD5=[15636c1ca4a123c16a2a1a8e90aca7a9]
cluster Model--><polygon fill="#DDDDDD" filter="url(#f1wk2e6arvuwra)" points="345,330,395,330,402,353.6094,1262,353.6094,1262,892,345,892,345,330" style="stroke: #000000; stroke-width: 1.5;"/><line style="stroke: #000000; stroke-width: 1.5;" x1="345" x2="402" y1="353.6094" y2="353.6094"/><text fill="#000000" font-family="sans-serif" font-size="14" font-weight="bold" lengthAdjust="spacingAndGlyphs" textLength="44" x="349" y="346.5332">Model</text><!--MD5=[7f5e0441b00afcd8fa9ae108c086a015]
cluster Registration--><polygon fill="#DDDDDD" filter="url(#f1wk2e6arvuwra)" points="697,520,789,520,796,543.6094,1238,543.6094,1238,648,697,648,697,520" style="stroke: #000000; stroke-width: 1.5;"/><line style="stroke: #000000; stroke-width: 1.5;" x1="697" x2="796" y1="543.6094" y2="543.6094"/><text fill="#000000" font-family="sans-serif" font-size="14" font-weight="bold" lengthAdjust="spacingAndGlyphs" textLength="86" x="701" y="536.5332">Registration</text><!--MD5=[f21b1f164e99c6b37934f23ad048ad54]
cluster Data--><polygon fill="#DDDDDD" filter="url(#f1wk2e6arvuwra)" points="1286,337,1323,337,1330,360.6094,1422,360.6094,1422,465,1286,465,1286,337" style="stroke: #000000; stroke-width: 1.5;"/><line style="stroke: #000000; stroke-width: 1.5;" x1="1286" x2="1330" y1="360.6094" y2="360.6094"/><text fill="#000000" font-family="sans-serif" font-size="14" font-weight="bold" lengthAdjust="spacingAndGlyphs" textLength="31" x="1290" y="353.5332">Data</text><!--MD5=[56b05040cba7ba1143e43c771f04a5c5]
class UpdateScooterUI--><rect fill="#FEFECE" filter="url(#f1wk2e6arvuwra)" height="48" id="UpdateScooterUI" style="stroke: #A80036; stroke-width: 1.5;" width="126" x="112" y="60"/><ellipse cx="127" cy="76" fill="#ADD1B2" rx="11" ry="11" style="stroke: #A80036; stroke-width: 1.0;"/><path d="M129,72.5 Q129.2031,72 129.4375,71.75 Q129.6719,71.5 129.9375,71.5 Q130.4063,71.5 130.7031,71.7813 Q131,72.0625 131,72.7188 L131,74.2813 Q131,74.9375 130.7188,75.2188 Q130.4375,75.5 130,75.5 Q129.6094,75.5 129.3594,75.3281 Q129.1094,75.1563 129,74.7031 Q128.9531,74.3906 128.7813,74.2188 Q128.4688,73.8906 127.9063,73.7031 Q127.3438,73.5 126.7813,73.5 Q126.0781,73.5 125.4844,73.7813 Q124.9063,74.0625 124.4531,74.6875 Q124,75.3125 124,76.1719 L124,77.0938 Q124,78.125 124.8438,78.8125 Q125.6875,79.5 127.1875,79.5 Q128.0781,79.5 128.7031,79.2969 Q129.0625,79.1875 129.4688,78.8281 Q129.7344,78.625 129.875,78.5625 Q130.0156,78.5 130.1875,78.5 Q130.5156,78.5 130.75,78.7656 Q131,79.0156 131,79.375 Q131,79.7188 130.6563,80.125 Q130.1563,80.7188 129.3594,81.0469 Q128.3125,81.5 127.0313,81.5 Q125.5313,81.5 124.3281,80.9063 Q123.3594,80.4375 122.6719,79.4219 Q122,78.4063 122,77.2031 L122,76.1094 Q122,74.8594 122.5938,73.7656 Q123.2031,72.6719 124.25,72.0938 Q125.3125,71.5 126.5,71.5 Q127.2188,71.5 127.8438,71.75 Q128.4688,72 129,72.5 Z "/><text fill="#000000" font-family="sans-serif" font-size="12" lengthAdjust="spacingAndGlyphs" textLength="94" x="141" y="80.9102">UpdateScooterUI</text><line style="stroke: #A80036; stroke-width: 1.5;" x1="113" x2="237" y1="92" y2="92"/><line style="stroke: #A80036; stroke-width: 1.5;" x1="113" x2="237" y1="100" y2="100"/><!--MD5=[3e55a46d736e61deccb82423bbd922fc]
class UpdateScooterController--><rect fill="#FEFECE" filter="url(#f1wk2e6arvuwra)" height="89.5078" id="UpdateScooterController" style="stroke: #A80036; stroke-width: 1.5;" width="259" x="45.5" y="193"/><ellipse cx="102.75" cy="209" fill="#ADD1B2" rx="11" ry="11" style="stroke: #A80036; stroke-width: 1.0;"/><path d="M104.75,205.5 Q104.9531,205 105.1875,204.75 Q105.4219,204.5 105.6875,204.5 Q106.1563,204.5 106.4531,204.7813 Q106.75,205.0625 106.75,205.7188 L106.75,207.2813 Q106.75,207.9375 106.4688,208.2188 Q106.1875,208.5 105.75,208.5 Q105.3594,208.5 105.1094,208.3281 Q104.8594,208.1563 104.75,207.7031 Q104.7031,207.3906 104.5313,207.2188 Q104.2188,206.8906 103.6563,206.7031 Q103.0938,206.5 102.5313,206.5 Q101.8281,206.5 101.2344,206.7813 Q100.6563,207.0625 100.2031,207.6875 Q99.75,208.3125 99.75,209.1719 L99.75,210.0938 Q99.75,211.125 100.5938,211.8125 Q101.4375,212.5 102.9375,212.5 Q103.8281,212.5 104.4531,212.2969 Q104.8125,212.1875 105.2188,211.8281 Q105.4844,211.625 105.625,211.5625 Q105.7656,211.5 105.9375,211.5 Q106.2656,211.5 106.5,211.7656 Q106.75,212.0156 106.75,212.375 Q106.75,212.7188 106.4063,213.125 Q105.9063,213.7188 105.1094,214.0469 Q104.0625,214.5 102.7813,214.5 Q101.2813,214.5 100.0781,213.9063 Q99.1094,213.4375 98.4219,212.4219 Q97.75,211.4063 97.75,210.2031 L97.75,209.1094 Q97.75,207.8594 98.3438,206.7656 Q98.9531,205.6719 100,205.0938 Q101.0625,204.5 102.25,204.5 Q102.9688,204.5 103.5938,204.75 Q104.2188,205 104.75,205.5 Z "/><text fill="#000000" font-family="sans-serif" font-size="12" lengthAdjust="spacingAndGlyphs" textLength="136" x="123.25" y="213.9102">UpdateScooterController</text><line style="stroke: #A80036; stroke-width: 1.5;" x1="46.5" x2="303.5" y1="225" y2="225"/><line style="stroke: #A80036; stroke-width: 1.5;" x1="46.5" x2="303.5" y1="233" y2="233"/><text fill="#000000" font-family="sans-serif" font-size="11" lengthAdjust="spacingAndGlyphs" textLength="247" x="51.5" y="248.4189">+newScooter(batteryPerc, charginStatus, potency,</text><text fill="#000000" font-family="sans-serif" font-size="11" lengthAdjust="spacingAndGlyphs" textLength="173" x="54.5" y="262.2549">weight, batteryCapacity, pharmacy)</text><text fill="#000000" font-family="sans-serif" font-size="11" lengthAdjust="spacingAndGlyphs" textLength="95" x="51.5" y="276.0908">+registersScooter()</text><!--MD5=[e45a4727c47b726c25e081782e8bc183]
class ApplicationPOT--><rect fill="#FEFECE" filter="url(#f1wk2e6arvuwra)" height="75.6719" id="ApplicationPOT" style="stroke: #A80036; stroke-width: 1.5;" width="116" x="38" y="373"/><ellipse cx="53" cy="389" fill="#ADD1B2" rx="11" ry="11" style="stroke: #A80036; stroke-width: 1.0;"/><path d="M55,385.5 Q55.2031,385 55.4375,384.75 Q55.6719,384.5 55.9375,384.5 Q56.4063,384.5 56.7031,384.7813 Q57,385.0625 57,385.7188 L57,387.2813 Q57,387.9375 56.7188,388.2188 Q56.4375,388.5 56,388.5 Q55.6094,388.5 55.3594,388.3281 Q55.1094,388.1563 55,387.7031 Q54.9531,387.3906 54.7813,387.2188 Q54.4688,386.8906 53.9063,386.7031 Q53.3438,386.5 52.7813,386.5 Q52.0781,386.5 51.4844,386.7813 Q50.9063,387.0625 50.4531,387.6875 Q50,388.3125 50,389.1719 L50,390.0938 Q50,391.125 50.8438,391.8125 Q51.6875,392.5 53.1875,392.5 Q54.0781,392.5 54.7031,392.2969 Q55.0625,392.1875 55.4688,391.8281 Q55.7344,391.625 55.875,391.5625 Q56.0156,391.5 56.1875,391.5 Q56.5156,391.5 56.75,391.7656 Q57,392.0156 57,392.375 Q57,392.7188 56.6563,393.125 Q56.1563,393.7188 55.3594,394.0469 Q54.3125,394.5 53.0313,394.5 Q51.5313,394.5 50.3281,393.9063 Q49.3594,393.4375 48.6719,392.4219 Q48,391.4063 48,390.2031 L48,389.1094 Q48,387.8594 48.5938,386.7656 Q49.2031,385.6719 50.25,385.0938 Q51.3125,384.5 52.5,384.5 Q53.2188,384.5 53.8438,384.75 Q54.4688,385 55,385.5 Z "/><text fill="#000000" font-family="sans-serif" font-size="12" lengthAdjust="spacingAndGlyphs" textLength="84" x="67" y="393.9102">ApplicationPOT</text><line style="stroke: #A80036; stroke-width: 1.5;" x1="39" x2="153" y1="405" y2="405"/><line style="stroke: #A80036; stroke-width: 1.5;" x1="39" x2="153" y1="413" y2="413"/><text fill="#000000" font-family="sans-serif" font-size="11" lengthAdjust="spacingAndGlyphs" textLength="99" x="44" y="428.4189">+static getInstance()</text><text fill="#000000" font-family="sans-serif" font-size="11" lengthAdjust="spacingAndGlyphs" textLength="68" x="44" y="442.2549">+getPlatform()</text><!--MD5=[c5b08e60048ef1bcd788d24cf324082e]
class UserSession--><rect fill="#FEFECE" filter="url(#f1wk2e6arvuwra)" height="61.8359" id="UserSession" style="stroke: #A80036; stroke-width: 1.5;" width="116" x="189" y="380"/><ellipse cx="208.95" cy="396" fill="#ADD1B2" rx="11" ry="11" style="stroke: #A80036; stroke-width: 1.0;"/><path d="M210.95,392.5 Q211.1531,392 211.3875,391.75 Q211.6219,391.5 211.8875,391.5 Q212.3563,391.5 212.6531,391.7813 Q212.95,392.0625 212.95,392.7188 L212.95,394.2813 Q212.95,394.9375 212.6688,395.2188 Q212.3875,395.5 211.95,395.5 Q211.5594,395.5 211.3094,395.3281 Q211.0594,395.1563 210.95,394.7031 Q210.9031,394.3906 210.7313,394.2188 Q210.4188,393.8906 209.8563,393.7031 Q209.2938,393.5 208.7313,393.5 Q208.0281,393.5 207.4344,393.7813 Q206.8563,394.0625 206.4031,394.6875 Q205.95,395.3125 205.95,396.1719 L205.95,397.0938 Q205.95,398.125 206.7938,398.8125 Q207.6375,399.5 209.1375,399.5 Q210.0281,399.5 210.6531,399.2969 Q211.0125,399.1875 211.4188,398.8281 Q211.6844,398.625 211.825,398.5625 Q211.9656,398.5 212.1375,398.5 Q212.4656,398.5 212.7,398.7656 Q212.95,399.0156 212.95,399.375 Q212.95,399.7188 212.6063,400.125 Q212.1063,400.7188 211.3094,401.0469 Q210.2625,401.5 208.9813,401.5 Q207.4813,401.5 206.2781,400.9063 Q205.3094,400.4375 204.6219,399.4219 Q203.95,398.4063 203.95,397.2031 L203.95,396.1094 Q203.95,394.8594 204.5438,393.7656 Q205.1531,392.6719 206.2,392.0938 Q207.2625,391.5 208.45,391.5 Q209.1688,391.5 209.7938,391.75 Q210.4188,392 210.95,392.5 Z "/><text fill="#000000" font-family="sans-serif" font-size="12" lengthAdjust="spacingAndGlyphs" textLength="73" x="224.05" y="400.9102">UserSession</text><line style="stroke: #A80036; stroke-width: 1.5;" x1="190" x2="304" y1="412" y2="412"/><line style="stroke: #A80036; stroke-width: 1.5;" x1="190" x2="304" y1="420" y2="420"/><text fill="#000000" font-family="sans-serif" font-size="11" lengthAdjust="spacingAndGlyphs" textLength="104" x="195" y="435.4189">+getCurrentSession()</text><!--MD5=[99b8db98afdc2c8404e39242ef4c1e65]
class Platform--><rect fill="#FEFECE" filter="url(#f1wk2e6arvuwra)" height="89.5078" id="Platform" style="stroke: #A80036; stroke-width: 1.5;" width="102" x="415" y="366"/><ellipse cx="440.8" cy="382" fill="#ADD1B2" rx="11" ry="11" style="stroke: #A80036; stroke-width: 1.0;"/><path d="M442.8,378.5 Q443.0031,378 443.2375,377.75 Q443.4719,377.5 443.7375,377.5 Q444.2063,377.5 444.5031,377.7813 Q444.8,378.0625 444.8,378.7188 L444.8,380.2813 Q444.8,380.9375 444.5188,381.2188 Q444.2375,381.5 443.8,381.5 Q443.4094,381.5 443.1594,381.3281 Q442.9094,381.1563 442.8,380.7031 Q442.7531,380.3906 442.5813,380.2188 Q442.2688,379.8906 441.7063,379.7031 Q441.1438,379.5 440.5813,379.5 Q439.8781,379.5 439.2844,379.7813 Q438.7063,380.0625 438.2531,380.6875 Q437.8,381.3125 437.8,382.1719 L437.8,383.0938 Q437.8,384.125 438.6438,384.8125 Q439.4875,385.5 440.9875,385.5 Q441.8781,385.5 442.5031,385.2969 Q442.8625,385.1875 443.2688,384.8281 Q443.5344,384.625 443.675,384.5625 Q443.8156,384.5 443.9875,384.5 Q444.3156,384.5 444.55,384.7656 Q444.8,385.0156 444.8,385.375 Q444.8,385.7188 444.4563,386.125 Q443.9563,386.7188 443.1594,387.0469 Q442.1125,387.5 440.8313,387.5 Q439.3313,387.5 438.1281,386.9063 Q437.1594,386.4375 436.4719,385.4219 Q435.8,384.4063 435.8,383.2031 L435.8,382.1094 Q435.8,380.8594 436.3938,379.7656 Q437.0031,378.6719 438.05,378.0938 Q439.1125,377.5 440.3,377.5 Q441.0188,377.5 441.6438,377.75 Q442.2688,378 442.8,378.5 Z "/><text fill="#000000" font-family="sans-serif" font-size="12" lengthAdjust="spacingAndGlyphs" textLength="46" x="457.2" y="386.9102">Platform</text><line style="stroke: #A80036; stroke-width: 1.5;" x1="416" x2="516" y1="398" y2="398"/><text fill="#000000" font-family="sans-serif" font-size="11" lengthAdjust="spacingAndGlyphs" textLength="90" x="421" y="413.4189">-String designation</text><line style="stroke: #A80036; stroke-width: 1.5;" x1="416" x2="516" y1="419.8359" y2="419.8359"/><text fill="#000000" font-family="sans-serif" font-size="11" lengthAdjust="spacingAndGlyphs" textLength="75" x="421" y="435.2549">+gePharmReg()</text><text fill="#000000" font-family="sans-serif" font-size="11" lengthAdjust="spacingAndGlyphs" textLength="76" x="421" y="449.0908">+getScootReg()</text><!--MD5=[f4402668d5d5bb8485350c0fdb60ac8e]
class Scooter--><rect fill="#FEFECE" filter="url(#f1wk2e6arvuwra)" height="158.6875" id="Scooter" style="stroke: #A80036; stroke-width: 1.5;" width="237" x="383.5" y="717"/><ellipse cx="476.75" cy="733" fill="#ADD1B2" rx="11" ry="11" style="stroke: #A80036; stroke-width: 1.0;"/><path d="M478.75,729.5 Q478.9531,729 479.1875,728.75 Q479.4219,728.5 479.6875,728.5 Q480.1563,728.5 480.4531,728.7813 Q480.75,729.0625 480.75,729.7188 L480.75,731.2813 Q480.75,731.9375 480.4688,732.2188 Q480.1875,732.5 479.75,732.5 Q479.3594,732.5 479.1094,732.3281 Q478.8594,732.1563 478.75,731.7031 Q478.7031,731.3906 478.5313,731.2188 Q478.2188,730.8906 477.6563,730.7031 Q477.0938,730.5 476.5313,730.5 Q475.8281,730.5 475.2344,730.7813 Q474.6563,731.0625 474.2031,731.6875 Q473.75,732.3125 473.75,733.1719 L473.75,734.0938 Q473.75,735.125 474.5938,735.8125 Q475.4375,736.5 476.9375,736.5 Q477.8281,736.5 478.4531,736.2969 Q478.8125,736.1875 479.2188,735.8281 Q479.4844,735.625 479.625,735.5625 Q479.7656,735.5 479.9375,735.5 Q480.2656,735.5 480.5,735.7656 Q480.75,736.0156 480.75,736.375 Q480.75,736.7188 480.4063,737.125 Q479.9063,737.7188 479.1094,738.0469 Q478.0625,738.5 476.7813,738.5 Q475.2813,738.5 474.0781,737.9063 Q473.1094,737.4375 472.4219,736.4219 Q471.75,735.4063 471.75,734.2031 L471.75,733.1094 Q471.75,731.8594 472.3438,730.7656 Q472.9531,729.6719 474,729.0938 Q475.0625,728.5 476.25,728.5 Q476.9688,728.5 477.5938,728.75 Q478.2188,729 478.75,729.5 Z "/><text fill="#000000" font-family="sans-serif" font-size="12" lengthAdjust="spacingAndGlyphs" textLength="42" x="497.25" y="737.9102">Scooter</text><line style="stroke: #A80036; stroke-width: 1.5;" x1="384.5" x2="619.5" y1="749" y2="749"/><text fill="#000000" font-family="sans-serif" font-size="11" lengthAdjust="spacingAndGlyphs" textLength="26" x="389.5" y="764.4189">-int id</text><text fill="#000000" font-family="sans-serif" font-size="11" lengthAdjust="spacingAndGlyphs" textLength="74" x="389.5" y="778.2549">-int batteryPerc</text><text fill="#000000" font-family="sans-serif" font-size="11" lengthAdjust="spacingAndGlyphs" textLength="85" x="389.5" y="792.0908">-int charginStatus</text><text fill="#000000" font-family="sans-serif" font-size="11" lengthAdjust="spacingAndGlyphs" textLength="57" x="389.5" y="805.9268">-int potency</text><text fill="#000000" font-family="sans-serif" font-size="11" lengthAdjust="spacingAndGlyphs" textLength="51" x="389.5" y="819.7627">-int weight</text><text fill="#000000" font-family="sans-serif" font-size="11" lengthAdjust="spacingAndGlyphs" textLength="94" x="389.5" y="833.5986">-int batteryCapacity</text><line style="stroke: #A80036; stroke-width: 1.5;" x1="384.5" x2="619.5" y1="840.0156" y2="840.0156"/><text fill="#000000" font-family="sans-serif" font-size="11" lengthAdjust="spacingAndGlyphs" textLength="225" x="389.5" y="855.4346">+Scooter(batteryPerc, charginStatus, potency,</text><text fill="#000000" font-family="sans-serif" font-size="11" lengthAdjust="spacingAndGlyphs" textLength="173" x="392.5" y="869.2705">weight, batteryCapacity, pharmacy)</text><!--MD5=[0f39e4cb6f03951afbf6d14bd2505654]
class Address--><rect fill="#FEFECE" filter="url(#f1wk2e6arvuwra)" height="144.8516" id="Address" style="stroke: #A80036; stroke-width: 1.5;" width="106" x="656" y="724"/><ellipse cx="683.6" cy="740" fill="#ADD1B2" rx="11" ry="11" style="stroke: #A80036; stroke-width: 1.0;"/><path d="M685.6,736.5 Q685.8031,736 686.0375,735.75 Q686.2719,735.5 686.5375,735.5 Q687.0063,735.5 687.3031,735.7813 Q687.6,736.0625 687.6,736.7188 L687.6,738.2813 Q687.6,738.9375 687.3188,739.2188 Q687.0375,739.5 686.6,739.5 Q686.2094,739.5 685.9594,739.3281 Q685.7094,739.1563 685.6,738.7031 Q685.5531,738.3906 685.3813,738.2188 Q685.0688,737.8906 684.5063,737.7031 Q683.9438,737.5 683.3813,737.5 Q682.6781,737.5 682.0844,737.7813 Q681.5063,738.0625 681.0531,738.6875 Q680.6,739.3125 680.6,740.1719 L680.6,741.0938 Q680.6,742.125 681.4438,742.8125 Q682.2875,743.5 683.7875,743.5 Q684.6781,743.5 685.3031,743.2969 Q685.6625,743.1875 686.0688,742.8281 Q686.3344,742.625 686.475,742.5625 Q686.6156,742.5 686.7875,742.5 Q687.1156,742.5 687.35,742.7656 Q687.6,743.0156 687.6,743.375 Q687.6,743.7188 687.2563,744.125 Q686.7563,744.7188 685.9594,745.0469 Q684.9125,745.5 683.6313,745.5 Q682.1313,745.5 680.9281,744.9063 Q679.9594,744.4375 679.2719,743.4219 Q678.6,742.4063 678.6,741.2031 L678.6,740.1094 Q678.6,738.8594 679.1938,737.7656 Q679.8031,736.6719 680.85,736.0938 Q681.9125,735.5 683.1,735.5 Q683.8188,735.5 684.4438,735.75 Q685.0688,736 685.6,736.5 Z "/><text fill="#000000" font-family="sans-serif" font-size="12" lengthAdjust="spacingAndGlyphs" textLength="46" x="700.4" y="744.9102">Address</text><line style="stroke: #A80036; stroke-width: 1.5;" x1="657" x2="761" y1="756" y2="756"/><text fill="#000000" font-family="sans-serif" font-size="11" lengthAdjust="spacingAndGlyphs" textLength="71" x="662" y="771.4189">-float longitude</text><text fill="#000000" font-family="sans-serif" font-size="11" lengthAdjust="spacingAndGlyphs" textLength="62" x="662" y="785.2549">-float latitude</text><text fill="#000000" font-family="sans-serif" font-size="11" lengthAdjust="spacingAndGlyphs" textLength="94" x="662" y="799.0908">-String doorNumber</text><text fill="#000000" font-family="sans-serif" font-size="11" lengthAdjust="spacingAndGlyphs" textLength="90" x="662" y="812.9268">-String streetName</text><text fill="#000000" font-family="sans-serif" font-size="11" lengthAdjust="spacingAndGlyphs" textLength="89" x="662" y="826.7627">-String postalCode</text><text fill="#000000" font-family="sans-serif" font-size="11" lengthAdjust="spacingAndGlyphs" textLength="68" x="662" y="840.5986">-String locality</text><text fill="#000000" font-family="sans-serif" font-size="11" lengthAdjust="spacingAndGlyphs" textLength="72" x="662" y="854.4346">-String country</text><line style="stroke: #A80036; stroke-width: 1.5;" x1="657" x2="761" y1="860.8516" y2="860.8516"/><!--MD5=[7f2a9fafcebe4f099f71398fd3e2ed00]
class Pharmacy--><rect fill="#FEFECE" filter="url(#f1wk2e6arvuwra)" height="89.5078" id="Pharmacy" style="stroke: #A80036; stroke-width: 1.5;" width="150" x="528" y="549"/><ellipse cx="571.35" cy="565" fill="#ADD1B2" rx="11" ry="11" style="stroke: #A80036; stroke-width: 1.0;"/><path d="M573.35,561.5 Q573.5531,561 573.7875,560.75 Q574.0219,560.5 574.2875,560.5 Q574.7563,560.5 575.0531,560.7813 Q575.35,561.0625 575.35,561.7188 L575.35,563.2813 Q575.35,563.9375 575.0688,564.2188 Q574.7875,564.5 574.35,564.5 Q573.9594,564.5 573.7094,564.3281 Q573.4594,564.1563 573.35,563.7031 Q573.3031,563.3906 573.1313,563.2188 Q572.8188,562.8906 572.2563,562.7031 Q571.6938,562.5 571.1313,562.5 Q570.4281,562.5 569.8344,562.7813 Q569.2563,563.0625 568.8031,563.6875 Q568.35,564.3125 568.35,565.1719 L568.35,566.0938 Q568.35,567.125 569.1938,567.8125 Q570.0375,568.5 571.5375,568.5 Q572.4281,568.5 573.0531,568.2969 Q573.4125,568.1875 573.8188,567.8281 Q574.0844,567.625 574.225,567.5625 Q574.3656,567.5 574.5375,567.5 Q574.8656,567.5 575.1,567.7656 Q575.35,568.0156 575.35,568.375 Q575.35,568.7188 575.0063,569.125 Q574.5063,569.7188 573.7094,570.0469 Q572.6625,570.5 571.3813,570.5 Q569.8813,570.5 568.6781,569.9063 Q567.7094,569.4375 567.0219,568.4219 Q566.35,567.4063 566.35,566.2031 L566.35,565.1094 Q566.35,563.8594 566.9438,562.7656 Q567.5531,561.6719 568.6,561.0938 Q569.6625,560.5 570.85,560.5 Q571.5688,560.5 572.1938,560.75 Q572.8188,561 573.35,561.5 Z "/><text fill="#000000" font-family="sans-serif" font-size="12" lengthAdjust="spacingAndGlyphs" textLength="55" x="591.65" y="569.9102">Pharmacy</text><line style="stroke: #A80036; stroke-width: 1.5;" x1="529" x2="677" y1="581" y2="581"/><text fill="#000000" font-family="sans-serif" font-size="11" lengthAdjust="spacingAndGlyphs" textLength="26" x="534" y="596.4189">-int id</text><text fill="#000000" font-family="sans-serif" font-size="11" lengthAdjust="spacingAndGlyphs" textLength="61" x="534" y="610.2549">-String name</text><line style="stroke: #A80036; stroke-width: 1.5;" x1="529" x2="677" y1="616.6719" y2="616.6719"/><text fill="#000000" font-family="sans-serif" font-size="11" lengthAdjust="spacingAndGlyphs" textLength="138" x="534" y="632.0908">+getScootersList(pharmacy)</text><!--MD5=[c5b7c01e8de644a6bcc6ccb0cb86eabf]
class PharmacyRegistration--><rect fill="#FEFECE" filter="url(#f1wk2e6arvuwra)" height="75.6719" id="PharmacyRegistration" style="stroke: #A80036; stroke-width: 1.5;" width="166" x="713" y="556"/><ellipse cx="733.4" cy="572" fill="#ADD1B2" rx="11" ry="11" style="stroke: #A80036; stroke-width: 1.0;"/><path d="M735.4,568.5 Q735.6031,568 735.8375,567.75 Q736.0719,567.5 736.3375,567.5 Q736.8063,567.5 737.1031,567.7813 Q737.4,568.0625 737.4,568.7188 L737.4,570.2813 Q737.4,570.9375 737.1188,571.2188 Q736.8375,571.5 736.4,571.5 Q736.0094,571.5 735.7594,571.3281 Q735.5094,571.1563 735.4,570.7031 Q735.3531,570.3906 735.1813,570.2188 Q734.8688,569.8906 734.3063,569.7031 Q733.7438,569.5 733.1813,569.5 Q732.4781,569.5 731.8844,569.7813 Q731.3063,570.0625 730.8531,570.6875 Q730.4,571.3125 730.4,572.1719 L730.4,573.0938 Q730.4,574.125 731.2438,574.8125 Q732.0875,575.5 733.5875,575.5 Q734.4781,575.5 735.1031,575.2969 Q735.4625,575.1875 735.8688,574.8281 Q736.1344,574.625 736.275,574.5625 Q736.4156,574.5 736.5875,574.5 Q736.9156,574.5 737.15,574.7656 Q737.4,575.0156 737.4,575.375 Q737.4,575.7188 737.0563,576.125 Q736.5563,576.7188 735.7594,577.0469 Q734.7125,577.5 733.4313,577.5 Q731.9313,577.5 730.7281,576.9063 Q729.7594,576.4375 729.0719,575.4219 Q728.4,574.4063 728.4,573.2031 L728.4,572.1094 Q728.4,570.8594 728.9938,569.7656 Q729.6031,568.6719 730.65,568.0938 Q731.7125,567.5 732.9,567.5 Q733.6188,567.5 734.2438,567.75 Q734.8688,568 735.4,568.5 Z "/><text fill="#000000" font-family="sans-serif" font-size="12" lengthAdjust="spacingAndGlyphs" textLength="122" x="748.6" y="576.9102">PharmacyRegistration</text><line style="stroke: #A80036; stroke-width: 1.5;" x1="714" x2="878" y1="588" y2="588"/><line style="stroke: #A80036; stroke-width: 1.5;" x1="714" x2="878" y1="596" y2="596"/><text fill="#000000" font-family="sans-serif" font-size="11" lengthAdjust="spacingAndGlyphs" textLength="154" x="719" y="611.4189">+getPharmacyById(pharmacyId)</text><text fill="#000000" font-family="sans-serif" font-size="11" lengthAdjust="spacingAndGlyphs" textLength="83" x="719" y="625.2549">+getConnection()</text><!--MD5=[4a15ac34fd2b3f03c890a74250c9952b]
class ScooterRegistration--><rect fill="#FEFECE" filter="url(#f1wk2e6arvuwra)" height="75.6719" id="ScooterRegistration" style="stroke: #A80036; stroke-width: 1.5;" width="308" x="914" y="556"/><ellipse cx="1009.25" cy="572" fill="#ADD1B2" rx="11" ry="11" style="stroke: #A80036; stroke-width: 1.0;"/><path d="M1011.25,568.5 Q1011.4531,568 1011.6875,567.75 Q1011.9219,567.5 1012.1875,567.5 Q1012.6563,567.5 1012.9531,567.7813 Q1013.25,568.0625 1013.25,568.7188 L1013.25,570.2813 Q1013.25,570.9375 1012.9688,571.2188 Q1012.6875,571.5 1012.25,571.5 Q1011.8594,571.5 1011.6094,571.3281 Q1011.3594,571.1563 1011.25,570.7031 Q1011.2031,570.3906 1011.0313,570.2188 Q1010.7188,569.8906 1010.1563,569.7031 Q1009.5938,569.5 1009.0313,569.5 Q1008.3281,569.5 1007.7344,569.7813 Q1007.1563,570.0625 1006.7031,570.6875 Q1006.25,571.3125 1006.25,572.1719 L1006.25,573.0938 Q1006.25,574.125 1007.0938,574.8125 Q1007.9375,575.5 1009.4375,575.5 Q1010.3281,575.5 1010.9531,575.2969 Q1011.3125,575.1875 1011.7188,574.8281 Q1011.9844,574.625 1012.125,574.5625 Q1012.2656,574.5 1012.4375,574.5 Q1012.7656,574.5 1013,574.7656 Q1013.25,575.0156 1013.25,575.375 Q1013.25,575.7188 1012.9063,576.125 Q1012.4063,576.7188 1011.6094,577.0469 Q1010.5625,577.5 1009.2813,577.5 Q1007.7813,577.5 1006.5781,576.9063 Q1005.6094,576.4375 1004.9219,575.4219 Q1004.25,574.4063 1004.25,573.2031 L1004.25,572.1094 Q1004.25,570.8594 1004.8438,569.7656 Q1005.4531,568.6719 1006.5,568.0938 Q1007.5625,567.5 1008.75,567.5 Q1009.4688,567.5 1010.0938,567.75 Q1010.7188,568 1011.25,568.5 Z "/><text fill="#000000" font-family="sans-serif" font-size="12" lengthAdjust="spacingAndGlyphs" textLength="109" x="1029.75" y="576.9102">ScooterRegistration</text><line style="stroke: #A80036; stroke-width: 1.5;" x1="915" x2="1221" y1="588" y2="588"/><line style="stroke: #A80036; stroke-width: 1.5;" x1="915" x2="1221" y1="596" y2="596"/><text fill="#000000" font-family="sans-serif" font-size="11" lengthAdjust="spacingAndGlyphs" textLength="296" x="920" y="611.4189">+updateScooterFromDB(batteryPerc, charginStatus, potency,</text><text fill="#000000" font-family="sans-serif" font-size="11" lengthAdjust="spacingAndGlyphs" textLength="173" x="923" y="625.2549">weight, batteryCapacity, pharmacy)</text><!--MD5=[4b2d61224b33971326a22fe5d809d926]
class DataHandler--><rect fill="#FEFECE" filter="url(#f1wk2e6arvuwra)" height="75.6719" id="DataHandler" style="stroke: #A80036; stroke-width: 1.5;" width="104" x="1302" y="373"/><ellipse cx="1317.9" cy="389" fill="#ADD1B2" rx="11" ry="11" style="stroke: #A80036; stroke-width: 1.0;"/><path d="M1319.9,385.5 Q1320.1031,385 1320.3375,384.75 Q1320.5719,384.5 1320.8375,384.5 Q1321.3063,384.5 1321.6031,384.7813 Q1321.9,385.0625 1321.9,385.7188 L1321.9,387.2813 Q1321.9,387.9375 1321.6188,388.2188 Q1321.3375,388.5 1320.9,388.5 Q1320.5094,388.5 1320.2594,388.3281 Q1320.0094,388.1563 1319.9,387.7031 Q1319.8531,387.3906 1319.6813,387.2188 Q1319.3688,386.8906 1318.8063,386.7031 Q1318.2438,386.5 1317.6813,386.5 Q1316.9781,386.5 1316.3844,386.7813 Q1315.8063,387.0625 1315.3531,387.6875 Q1314.9,388.3125 1314.9,389.1719 L1314.9,390.0938 Q1314.9,391.125 1315.7438,391.8125 Q1316.5875,392.5 1318.0875,392.5 Q1318.9781,392.5 1319.6031,392.2969 Q1319.9625,392.1875 1320.3688,391.8281 Q1320.6344,391.625 1320.775,391.5625 Q1320.9156,391.5 1321.0875,391.5 Q1321.4156,391.5 1321.65,391.7656 Q1321.9,392.0156 1321.9,392.375 Q1321.9,392.7188 1321.5563,393.125 Q1321.0563,393.7188 1320.2594,394.0469 Q1319.2125,394.5 1317.9313,394.5 Q1316.4313,394.5 1315.2281,393.9063 Q1314.2594,393.4375 1313.5719,392.4219 Q1312.9,391.4063 1312.9,390.2031 L1312.9,389.1094 Q1312.9,387.8594 1313.4938,386.7656 Q1314.1031,385.6719 1315.15,385.0938 Q1316.2125,384.5 1317.4,384.5 Q1318.1188,384.5 1318.7438,384.75 Q1319.3688,385 1319.9,385.5 Z "/><text fill="#000000" font-family="sans-serif" font-size="12" lengthAdjust="spacingAndGlyphs" textLength="70" x="1332.1" y="393.9102">DataHandler</text><line style="stroke: #A80036; stroke-width: 1.5;" x1="1303" x2="1405" y1="405" y2="405"/><line style="stroke: #A80036; stroke-width: 1.5;" x1="1303" x2="1405" y1="413" y2="413"/><text fill="#000000" font-family="sans-serif" font-size="11" lengthAdjust="spacingAndGlyphs" textLength="92" x="1308" y="428.4189">+openConnection()</text><text fill="#000000" font-family="sans-serif" font-size="11" lengthAdjust="spacingAndGlyphs" textLength="52" x="1308" y="442.2549">+closeAll()</text><!--MD5=[88cdc1ff0babf321196dd88b9a70f9c4]
reverse link DataHandler to PharmacyRegistration--><path d="M1289.88,459.936 C1280.86,465.039 1271.44,469.599 1262,473 C1185.26,500.662 972.41,480.897 897,512 C872.896,521.942 849.899,539.505 831.955,555.741 " fill="none" id="DataHandler&lt;-PharmacyRegistration" style="stroke: #A80036; stroke-width: 1.0;"/><polygon fill="none" points="1286.47,453.816,1307.16,449.261,1293.82,465.727,1286.47,453.816" style="stroke: #A80036; stroke-width: 1.0;"/><!--MD5=[527120703de7dfffd3117b230a6ddff3]
reverse link DataHandler to ScooterRegistration--><path d="M1284.64,458.323 C1277.02,463.311 1269.36,468.284 1262,473 C1217.81,501.304 1167.4,532.456 1129.04,555.925 " fill="none" id="DataHandler&lt;-ScooterRegistration" style="stroke: #A80036; stroke-width: 1.0;"/><polygon fill="none" points="1281.09,452.28,1301.64,447.126,1288.79,463.972,1281.09,452.28" style="stroke: #A80036; stroke-width: 1.0;"/><!--MD5=[068c19e9ee2b8d6f5118254dd44da898]
link UpdateScooterUI to UpdateScooterController--><path d="M175,108.086 C175,129.108 175,160.852 175,187.58 " fill="none" id="UpdateScooterUI-&gt;UpdateScooterController" style="stroke: #A80036; stroke-width: 1.0; stroke-dasharray: 7.0,7.0;"/><polygon fill="#A80036" points="175,192.853,179,183.853,175,187.853,171,183.853,175,192.853" style="stroke: #A80036; stroke-width: 1.0;"/><!--MD5=[f3f1f35345fb8725b15e625f567a1711]
link UpdateScooterController to Platform--><path d="M253.659,283.173 C275.536,295.606 299.255,309.224 321,322 C350.763,339.487 383.674,359.412 410.608,375.874 " fill="none" id="UpdateScooterController-&gt;Platform" style="stroke: #A80036; stroke-width: 1.0; stroke-dasharray: 7.0,7.0;"/><polygon fill="#A80036" points="414.878,378.486,409.2867,370.3782,410.6124,375.8775,405.113,377.2032,414.878,378.486" style="stroke: #A80036; stroke-width: 1.0;"/><!--MD5=[871f2fb6842f01c8edb6904d247d3c77]
link UpdateScooterController to ApplicationPOT--><path d="M154.656,283.037 C142.562,309.214 127.307,342.234 115.386,368.038 " fill="none" id="UpdateScooterController-&gt;ApplicationPOT" style="stroke: #A80036; stroke-width: 1.0; stroke-dasharray: 7.0,7.0;"/><polygon fill="#A80036" points="113.2,372.769,120.6062,366.2768,115.2973,368.2301,113.344,362.9212,113.2,372.769" style="stroke: #A80036; stroke-width: 1.0;"/><!--MD5=[996c2da959792bedde9a6294472023de]
link UpdateScooterController to UserSession--><path d="M193.542,283.037 C205.584,311.637 221.065,348.403 232.265,375.004 " fill="none" id="UpdateScooterController-&gt;UserSession" style="stroke: #A80036; stroke-width: 1.0; stroke-dasharray: 7.0,7.0;"/><polygon fill="#A80036" points="234.305,379.848,234.4998,370.0011,232.3651,375.2397,227.1265,373.1049,234.305,379.848" style="stroke: #A80036; stroke-width: 1.0;"/><!--MD5=[f94ed16b1d761a53d4eba61183b6d758]
link Platform to PharmacyRegistration--><path d="M517.442,427.176 C568.488,443.576 647.742,472.731 709,512 C726.618,523.294 743.93,538.35 758.413,552.416 " fill="none" id="Platform-&gt;PharmacyRegistration" style="stroke: #A80036; stroke-width: 1.0;"/><polygon fill="#A80036" points="762.033,555.968,758.4122,546.8089,758.4648,552.4655,752.8082,552.518,762.033,555.968" style="stroke: #A80036; stroke-width: 1.0;"/><text fill="#000000" font-family="sans-serif" font-size="13" lengthAdjust="spacingAndGlyphs" textLength="21" x="691" y="500.4951">has</text><text fill="#000000" font-family="sans-serif" font-size="13" lengthAdjust="spacingAndGlyphs" textLength="7" x="525.1682" y="425.8802">1</text><text fill="#000000" font-family="sans-serif" font-size="13" lengthAdjust="spacingAndGlyphs" textLength="7" x="748.125" y="545.0386">1</text><!--MD5=[10d7a1607bc161c4e7d004457651c20f]
link ScooterRegistration to Scooter--><path d="M970.048,632.035 C946.305,640.43 920.879,648.941 897,656 C784.005,689.401 748.586,673.706 639,717 C634.411,718.813 629.79,720.759 625.164,722.811 " fill="none" id="ScooterRegistration-&gt;Scooter" style="stroke: #A80036; stroke-width: 1.0;"/><polygon fill="#A80036" points="620.538,724.896,630.3867,724.8426,625.096,722.8406,627.098,717.5498,620.538,724.896" style="stroke: #A80036; stroke-width: 1.0;"/><text fill="#000000" font-family="sans-serif" font-size="13" lengthAdjust="spacingAndGlyphs" textLength="53" x="843" y="683.4951">manages</text><text fill="#000000" font-family="sans-serif" font-size="13" lengthAdjust="spacingAndGlyphs" textLength="7" x="946.245" y="653.211">1</text><text fill="#000000" font-family="sans-serif" font-size="13" lengthAdjust="spacingAndGlyphs" textLength="5" x="628.6702" y="717.065">*</text><!--MD5=[4a07f137c208f82f57837154e1cfa51e]
link Platform to Pharmacy--><path d="M499.514,456.278 C520.823,484.431 548.307,520.741 569.595,548.866 " fill="none" id="Platform-Pharmacy" style="stroke: #A80036; stroke-width: 1.0;"/><text fill="#000000" font-family="sans-serif" font-size="13" lengthAdjust="spacingAndGlyphs" textLength="82" x="536" y="500.4951">has registered</text><polygon fill="#000000" points="572.5,509.3516,575.5,515.3516,578.5,509.3516,572.5,509.3516" style="stroke: #000000; stroke-width: 1.0;"/><text fill="#000000" font-family="sans-serif" font-size="13" lengthAdjust="spacingAndGlyphs" textLength="7" x="496.5471" y="476.989">1</text><text fill="#000000" font-family="sans-serif" font-size="13" lengthAdjust="spacingAndGlyphs" textLength="5" x="559.097" y="538.2896">*</text><!--MD5=[423ba1e9b983bd24d1236c4cf89ceca7]
link Platform to Scooter--><path d="M436.506,456.405 C427.048,473.113 417.788,492.741 413,512 C397.558,574.109 395.071,594.563 413,656 C419.116,676.959 429.445,697.768 440.946,716.67 " fill="none" id="Platform-Scooter" style="stroke: #A80036; stroke-width: 1.0;"/><text fill="#000000" font-family="sans-serif" font-size="13" lengthAdjust="spacingAndGlyphs" textLength="82" x="414" y="599.4951">has registered</text><polygon fill="#000000" points="450.5,608.3516,453.5,614.3516,456.5,608.3516,450.5,608.3516" style="stroke: #000000; stroke-width: 1.0;"/><text fill="#000000" font-family="sans-serif" font-size="13" lengthAdjust="spacingAndGlyphs" textLength="7" x="425.0724" y="477.1331">1</text><text fill="#000000" font-family="sans-serif" font-size="13" lengthAdjust="spacingAndGlyphs" textLength="5" x="430.0871" y="706.0989">*</text><!--MD5=[cf4f95b832970cfa6e3a3c87e0aa2b32]
link Pharmacy to Scooter--><path d="M580.835,639.001 C569.338,661.825 554.943,690.401 541.611,716.866 " fill="none" id="Pharmacy-Scooter" style="stroke: #A80036; stroke-width: 1.0;"/><text fill="#000000" font-family="sans-serif" font-size="13" lengthAdjust="spacingAndGlyphs" textLength="21" x="566" y="683.4951">has</text><polygon fill="#000000" points="572,692.3516,575,698.3516,578,692.3516,572,692.3516" style="stroke: #000000; stroke-width: 1.0;"/><text fill="#000000" font-family="sans-serif" font-size="13" lengthAdjust="spacingAndGlyphs" textLength="7" x="570.2259" y="660.0087">1</text><text fill="#000000" font-family="sans-serif" font-size="13" lengthAdjust="spacingAndGlyphs" textLength="5" x="540.1481" y="706.0401">*</text><!--MD5=[89baec1bfb4a213750f7c61516e0a0f1]
link Pharmacy to Address--><path d="M626.262,639.001 C639.365,663.785 656.053,695.35 671.005,723.631 " fill="none" id="Pharmacy-Address" style="stroke: #A80036; stroke-width: 1.0;"/><text fill="#000000" font-family="sans-serif" font-size="13" lengthAdjust="spacingAndGlyphs" textLength="21" x="650" y="683.4951">has</text><polygon fill="#000000" points="656,692.3516,659,698.3516,662,692.3516,656,692.3516" style="stroke: #000000; stroke-width: 1.0;"/><text fill="#000000" font-family="sans-serif" font-size="13" lengthAdjust="spacingAndGlyphs" textLength="7" x="622.041" y="660.0087">1</text><text fill="#000000" font-family="sans-serif" font-size="13" lengthAdjust="spacingAndGlyphs" textLength="7" x="659.9203" y="713.1902">1</text><!--MD5=[d78291dd1cd5eb6871a19d58407d9508]
@startuml
skinparam classAttributeIconSize 0

package "UI" #DDDDDD {
class UpdateScooterUI{

}
}


package "Controller" #DDDDDD {
class UpdateScooterController{
+newScooter(batteryPerc, charginStatus, potency,\n weight, batteryCapacity, pharmacy)
+registersScooter()
}

class ApplicationPOT
{
  +static getInstance()
  +getPlatform()
}

class UserSession
{
  +getCurrentSession()
}
}


package "Model" #DDDDDD {
class Platform {
  -String designation
  +gePharmReg()
  +getScootReg()
}
package "Registration" #DDDDDD {
 class PharmacyRegistration{
     +getPharmacyById(pharmacyId)
     +getConnection()
 }

 class ScooterRegistration{
      +updateScooterFromDB(batteryPerc, charginStatus, potency,\n weight, batteryCapacity, pharmacy)
  }
 }
}

package "Model" #DDDDDD {
class Scooter{
  -int id
  -int batteryPerc
  -int charginStatus
  -int potency
  -int weight
  -int batteryCapacity
  +Scooter(batteryPerc, charginStatus, potency,\n weight, batteryCapacity, pharmacy)
}

class Address{
  -float longitude
  -float latitude
  -String doorNumber
  -String streetName
  -String postalCode
  -String locality
  -String country
}

class Pharmacy {
  -int id
  -String name
  +getScootersList(pharmacy)
}

}


package "Data" #DDDDDD {
class DataHandler{
    +openConnection()
    +closeAll()
}
}

class PharmacyRegistration extends DataHandler
class ScooterRegistration extends DataHandler

UpdateScooterUI ..> UpdateScooterController
UpdateScooterController ..> Platform
UpdateScooterController ..> ApplicationPOT
UpdateScooterController ..> UserSession
Platform "1" - -> "1" PharmacyRegistration : has
ScooterRegistration "1" - -> "*" Scooter : manages

Platform "1" - - "*" Pharmacy : has registered >
Platform "1" - - "*" Scooter : has registered >

Pharmacy "1" - - "*" Scooter : has >
Pharmacy "1" - - "1" Address : has >

@enduml

PlantUML version 1.2020.09(Sun May 10 11:51:06 BST 2020)
(GPL source distribution)
Java Runtime: OpenJDK Runtime Environment
JVM: OpenJDK 64-Bit Server VM
Java Version: 11.0.6+8-b765.40
Operating System: Windows 10
Default Encoding: Cp1252
Language: pt
Country: PT
--></g></svg>