<?xml version="1.0" encoding="UTF-8" standalone="no"?><svg xmlns="http://www.w3.org/2000/svg" xmlns:xlink="http://www.w3.org/1999/xlink" contentScriptType="application/ecmascript" contentStyleType="text/css" height="531.2px" preserveAspectRatio="none" style="width:412px;height:531px;" version="1.1" viewBox="0 0 412 531" width="412.8px" zoomAndPan="magnify"><defs><filter height="300%" id="f19svvi9sdkjbm" width="300%" x="-1" y="-1"><feGaussianBlur result="blurOut" stdDeviation="1.6"/><feColorMatrix in="blurOut" result="blurOut2" type="matrix" values="0 0 0 0 0 0 0 0 0 0 0 0 0 0 0 0 0 0 .4 0"/><feOffset dx="3.2" dy="3.2" in="blurOut2" result="blurOut3"/><feBlend in="SourceGraphic" in2="blurOut3" mode="normal"/></filter></defs><g><!--MD5=[31a99318d73d92502100859279ac7629]
class PotApplication--><rect codeLine="3" fill="#FEFECE" filter="url(#f19svvi9sdkjbm)" height="71.6063" id="PotApplication" style="stroke: #A80036; stroke-width: 1.2000000000000002;" width="92.8" x="5.6" y="202.4"/><ellipse cx="19.76" cy="215.2" fill="#ADD1B2" rx="8.8" ry="8.8" style="stroke: #A80036; stroke-width: 0.8;"/><path d="M21.36,212.4 Q21.5225,212 21.71,211.8 Q21.8975,211.6 22.11,211.6 Q22.485,211.6 22.7225,211.825 Q22.96,212.05 22.96,212.575 L22.96,213.825 Q22.96,214.35 22.735,214.575 Q22.51,214.8 22.16,214.8 Q21.8475,214.8 21.6475,214.6625 Q21.4475,214.525 21.36,214.1625 Q21.3225,213.9125 21.185,213.775 Q20.935,213.5125 20.485,213.3625 Q20.035,213.2 19.585,213.2 Q19.0225,213.2 18.5475,213.425 Q18.085,213.65 17.7225,214.15 Q17.36,214.65 17.36,215.3375 L17.36,216.075 Q17.36,216.9 18.035,217.45 Q18.71,218 19.91,218 Q20.6225,218 21.1225,217.8375 Q21.41,217.75 21.735,217.4625 Q21.9475,217.3 22.06,217.25 Q22.1725,217.2 22.31,217.2 Q22.5725,217.2 22.76,217.4125 Q22.96,217.6125 22.96,217.9 Q22.96,218.175 22.685,218.5 Q22.285,218.975 21.6475,219.2375 Q20.81,219.6 19.785,219.6 Q18.585,219.6 17.6225,219.125 Q16.8475,218.75 16.2975,217.9375 Q15.76,217.125 15.76,216.1625 L15.76,215.2875 Q15.76,214.2875 16.235,213.4125 Q16.7225,212.5375 17.56,212.075 Q18.41,211.6 19.36,211.6 Q19.935,211.6 20.435,211.8 Q20.935,212 21.36,212.4 Z " fill="#000000"/><text fill="#000000" font-family="sans-serif" font-size="9.6" lengthAdjust="spacingAndGlyphs" textLength="62.4" x="31.44" y="219.1281">PotApplication</text><line style="stroke: #A80036; stroke-width: 1.2000000000000002;" x1="6.4" x2="97.6" y1="228" y2="228"/><line style="stroke: #A80036; stroke-width: 1.2000000000000002;" x1="6.4" x2="97.6" y1="234.4" y2="234.4"/><text fill="#000000" font-family="sans-serif" font-size="8.8" lengthAdjust="spacingAndGlyphs" textLength="79.2" x="10.4" y="246.7352">+static getInstance()</text><text fill="#000000" font-family="sans-serif" font-size="8.8" lengthAdjust="spacingAndGlyphs" textLength="54.4" x="10.4" y="257.8039">+getPlatform()</text><text fill="#000000" font-family="sans-serif" font-size="8.8" lengthAdjust="spacingAndGlyphs" textLength="83.2" x="10.4" y="268.8727">+getCurrentSession()</text><!--MD5=[ed3afe56f065d25b4329669e73deaf58]
class Database--><rect codeLine="9" fill="#FEFECE" filter="url(#f19svvi9sdkjbm)" height="71.6063" id="Database" style="stroke: #A80036; stroke-width: 1.2000000000000002;" width="121.6" x="232.8" y="448.8"/><ellipse cx="268.6" cy="461.6" fill="#ADD1B2" rx="8.8" ry="8.8" style="stroke: #A80036; stroke-width: 0.8;"/><path d="M270.2,458.8 Q270.3625,458.4 270.55,458.2 Q270.7375,458 270.95,458 Q271.325,458 271.5625,458.225 Q271.8,458.45 271.8,458.975 L271.8,460.225 Q271.8,460.75 271.575,460.975 Q271.35,461.2 271,461.2 Q270.6875,461.2 270.4875,461.0625 Q270.2875,460.925 270.2,460.5625 Q270.1625,460.3125 270.025,460.175 Q269.775,459.9125 269.325,459.7625 Q268.875,459.6 268.425,459.6 Q267.8625,459.6 267.3875,459.825 Q266.925,460.05 266.5625,460.55 Q266.2,461.05 266.2,461.7375 L266.2,462.475 Q266.2,463.3 266.875,463.85 Q267.55,464.4 268.75,464.4 Q269.4625,464.4 269.9625,464.2375 Q270.25,464.15 270.575,463.8625 Q270.7875,463.7 270.9,463.65 Q271.0125,463.6 271.15,463.6 Q271.4125,463.6 271.6,463.8125 Q271.8,464.0125 271.8,464.3 Q271.8,464.575 271.525,464.9 Q271.125,465.375 270.4875,465.6375 Q269.65,466 268.625,466 Q267.425,466 266.4625,465.525 Q265.6875,465.15 265.1375,464.3375 Q264.6,463.525 264.6,462.5625 L264.6,461.6875 Q264.6,460.6875 265.075,459.8125 Q265.5625,458.9375 266.4,458.475 Q267.25,458 268.2,458 Q268.775,458 269.275,458.2 Q269.775,458.4 270.2,458.8 Z " fill="#000000"/><text fill="#000000" font-family="sans-serif" font-size="9.6" lengthAdjust="spacingAndGlyphs" textLength="43.2" x="285" y="465.5281">Database</text><line style="stroke: #A80036; stroke-width: 1.2000000000000002;" x1="233.6" x2="353.6" y1="474.4" y2="474.4"/><line style="stroke: #A80036; stroke-width: 1.2000000000000002;" x1="233.6" x2="353.6" y1="480.8" y2="480.8"/><text fill="#000000" font-family="sans-serif" font-size="8.8" lengthAdjust="spacingAndGlyphs" textLength="112" x="237.6" y="493.1352">+static executeQuery(query)</text><text fill="#000000" font-family="sans-serif" font-size="8.8" lengthAdjust="spacingAndGlyphs" textLength="73.6" x="237.6" y="504.2039">+openConnection()</text><text fill="#000000" font-family="sans-serif" font-size="8.8" lengthAdjust="spacingAndGlyphs" textLength="41.6" x="237.6" y="515.2727">+closeAll()</text><!--MD5=[c5b08e60048ef1bcd788d24cf324082e]
class UserSession--><rect codeLine="14" fill="#FEFECE" filter="url(#f19svvi9sdkjbm)" height="49.4688" id="UserSession" style="stroke: #A80036; stroke-width: 1.2000000000000002;" width="84" x="126.8" y="213.6"/><ellipse cx="138.8" cy="226.4" fill="#ADD1B2" rx="8.8" ry="8.8" style="stroke: #A80036; stroke-width: 0.8;"/><path d="M140.4,223.6 Q140.5625,223.2 140.75,223 Q140.9375,222.8 141.15,222.8 Q141.525,222.8 141.7625,223.025 Q142,223.25 142,223.775 L142,225.025 Q142,225.55 141.775,225.775 Q141.55,226 141.2,226 Q140.8875,226 140.6875,225.8625 Q140.4875,225.725 140.4,225.3625 Q140.3625,225.1125 140.225,224.975 Q139.975,224.7125 139.525,224.5625 Q139.075,224.4 138.625,224.4 Q138.0625,224.4 137.5875,224.625 Q137.125,224.85 136.7625,225.35 Q136.4,225.85 136.4,226.5375 L136.4,227.275 Q136.4,228.1 137.075,228.65 Q137.75,229.2 138.95,229.2 Q139.6625,229.2 140.1625,229.0375 Q140.45,228.95 140.775,228.6625 Q140.9875,228.5 141.1,228.45 Q141.2125,228.4 141.35,228.4 Q141.6125,228.4 141.8,228.6125 Q142,228.8125 142,229.1 Q142,229.375 141.725,229.7 Q141.325,230.175 140.6875,230.4375 Q139.85,230.8 138.825,230.8 Q137.625,230.8 136.6625,230.325 Q135.8875,229.95 135.3375,229.1375 Q134.8,228.325 134.8,227.3625 L134.8,226.4875 Q134.8,225.4875 135.275,224.6125 Q135.7625,223.7375 136.6,223.275 Q137.45,222.8 138.4,222.8 Q138.975,222.8 139.475,223 Q139.975,223.2 140.4,223.6 Z " fill="#000000"/><text fill="#000000" font-family="sans-serif" font-size="9.6" lengthAdjust="spacingAndGlyphs" textLength="58.4" x="150" y="230.3281">UserSession</text><line style="stroke: #A80036; stroke-width: 1.2000000000000002;" x1="127.6" x2="210" y1="239.2" y2="239.2"/><line style="stroke: #A80036; stroke-width: 1.2000000000000002;" x1="127.6" x2="210" y1="245.6" y2="245.6"/><text fill="#000000" font-family="sans-serif" font-size="8.8" lengthAdjust="spacingAndGlyphs" textLength="60.8" x="131.6" y="257.9352">+getUserEmail()</text><!--MD5=[90ee25e7cb43e177c619cc29814f7653]
class KnowDeliveryUI--><rect codeLine="18" fill="#FEFECE" filter="url(#f19svvi9sdkjbm)" height="38.4" id="KnowDeliveryUI" style="stroke: #A80036; stroke-width: 1.2000000000000002;" width="94.4" x="121.6" y="5.6"/><ellipse cx="133.6" cy="18.4" fill="#ADD1B2" rx="8.8" ry="8.8" style="stroke: #A80036; stroke-width: 0.8;"/><path d="M135.2,15.6 Q135.3625,15.2 135.55,15 Q135.7375,14.8 135.95,14.8 Q136.325,14.8 136.5625,15.025 Q136.8,15.25 136.8,15.775 L136.8,17.025 Q136.8,17.55 136.575,17.775 Q136.35,18 136,18 Q135.6875,18 135.4875,17.8625 Q135.2875,17.725 135.2,17.3625 Q135.1625,17.1125 135.025,16.975 Q134.775,16.7125 134.325,16.5625 Q133.875,16.4 133.425,16.4 Q132.8625,16.4 132.3875,16.625 Q131.925,16.85 131.5625,17.35 Q131.2,17.85 131.2,18.5375 L131.2,19.275 Q131.2,20.1 131.875,20.65 Q132.55,21.2 133.75,21.2 Q134.4625,21.2 134.9625,21.0375 Q135.25,20.95 135.575,20.6625 Q135.7875,20.5 135.9,20.45 Q136.0125,20.4 136.15,20.4 Q136.4125,20.4 136.6,20.6125 Q136.8,20.8125 136.8,21.1 Q136.8,21.375 136.525,21.7 Q136.125,22.175 135.4875,22.4375 Q134.65,22.8 133.625,22.8 Q132.425,22.8 131.4625,22.325 Q130.6875,21.95 130.1375,21.1375 Q129.6,20.325 129.6,19.3625 L129.6,18.4875 Q129.6,17.4875 130.075,16.6125 Q130.5625,15.7375 131.4,15.275 Q132.25,14.8 133.2,14.8 Q133.775,14.8 134.275,15 Q134.775,15.2 135.2,15.6 Z " fill="#000000"/><text fill="#000000" font-family="sans-serif" font-size="9.6" lengthAdjust="spacingAndGlyphs" textLength="68.8" x="144.8" y="22.3281">KnowDeliveryUI</text><line style="stroke: #A80036; stroke-width: 1.2000000000000002;" x1="122.4" x2="215.2" y1="31.2" y2="31.2"/><line style="stroke: #A80036; stroke-width: 1.2000000000000002;" x1="122.4" x2="215.2" y1="37.6" y2="37.6"/><!--MD5=[fcb5adf99831ef2bf308f51382f66a48]
class KnowDeliveryController--><rect codeLine="22" fill="#FEFECE" filter="url(#f19svvi9sdkjbm)" height="60.5375" id="KnowDeliveryController" style="stroke: #A80036; stroke-width: 1.2000000000000002;" width="128" x="104.8" y="92.8"/><ellipse cx="116.8" cy="105.6" fill="#ADD1B2" rx="8.8" ry="8.8" style="stroke: #A80036; stroke-width: 0.8;"/><path d="M118.4,102.8 Q118.5625,102.4 118.75,102.2 Q118.9375,102 119.15,102 Q119.525,102 119.7625,102.225 Q120,102.45 120,102.975 L120,104.225 Q120,104.75 119.775,104.975 Q119.55,105.2 119.2,105.2 Q118.8875,105.2 118.6875,105.0625 Q118.4875,104.925 118.4,104.5625 Q118.3625,104.3125 118.225,104.175 Q117.975,103.9125 117.525,103.7625 Q117.075,103.6 116.625,103.6 Q116.0625,103.6 115.5875,103.825 Q115.125,104.05 114.7625,104.55 Q114.4,105.05 114.4,105.7375 L114.4,106.475 Q114.4,107.3 115.075,107.85 Q115.75,108.4 116.95,108.4 Q117.6625,108.4 118.1625,108.2375 Q118.45,108.15 118.775,107.8625 Q118.9875,107.7 119.1,107.65 Q119.2125,107.6 119.35,107.6 Q119.6125,107.6 119.8,107.8125 Q120,108.0125 120,108.3 Q120,108.575 119.725,108.9 Q119.325,109.375 118.6875,109.6375 Q117.85,110 116.825,110 Q115.625,110 114.6625,109.525 Q113.8875,109.15 113.3375,108.3375 Q112.8,107.525 112.8,106.5625 L112.8,105.6875 Q112.8,104.6875 113.275,103.8125 Q113.7625,102.9375 114.6,102.475 Q115.45,102 116.4,102 Q116.975,102 117.475,102.2 Q117.975,102.4 118.4,102.8 Z " fill="#000000"/><text fill="#000000" font-family="sans-serif" font-size="9.6" lengthAdjust="spacingAndGlyphs" textLength="102.4" x="128" y="109.5281">KnowDeliveryController</text><line style="stroke: #A80036; stroke-width: 1.2000000000000002;" x1="105.6" x2="232" y1="118.4" y2="118.4"/><line style="stroke: #A80036; stroke-width: 1.2000000000000002;" x1="105.6" x2="232" y1="124.8" y2="124.8"/><text fill="#000000" font-family="sans-serif" font-size="8.8" lengthAdjust="spacingAndGlyphs" textLength="65.6" x="109.6" y="137.1352">+getCourierInfo()</text><text fill="#000000" font-family="sans-serif" font-size="8.8" lengthAdjust="spacingAndGlyphs" textLength="74.4" x="109.6" y="148.2039">+getOrderByCour()</text><!--MD5=[99b8db98afdc2c8404e39242ef4c1e65]
class Platform--><rect codeLine="27" fill="#FEFECE" filter="url(#f19svvi9sdkjbm)" height="71.6063" id="Platform" style="stroke: #A80036; stroke-width: 1.2000000000000002;" width="128.8" x="238.8" y="202.4"/><ellipse cx="281.4" cy="215.2" fill="#ADD1B2" rx="8.8" ry="8.8" style="stroke: #A80036; stroke-width: 0.8;"/><path d="M283,212.4 Q283.1625,212 283.35,211.8 Q283.5375,211.6 283.75,211.6 Q284.125,211.6 284.3625,211.825 Q284.6,212.05 284.6,212.575 L284.6,213.825 Q284.6,214.35 284.375,214.575 Q284.15,214.8 283.8,214.8 Q283.4875,214.8 283.2875,214.6625 Q283.0875,214.525 283,214.1625 Q282.9625,213.9125 282.825,213.775 Q282.575,213.5125 282.125,213.3625 Q281.675,213.2 281.225,213.2 Q280.6625,213.2 280.1875,213.425 Q279.725,213.65 279.3625,214.15 Q279,214.65 279,215.3375 L279,216.075 Q279,216.9 279.675,217.45 Q280.35,218 281.55,218 Q282.2625,218 282.7625,217.8375 Q283.05,217.75 283.375,217.4625 Q283.5875,217.3 283.7,217.25 Q283.8125,217.2 283.95,217.2 Q284.2125,217.2 284.4,217.4125 Q284.6,217.6125 284.6,217.9 Q284.6,218.175 284.325,218.5 Q283.925,218.975 283.2875,219.2375 Q282.45,219.6 281.425,219.6 Q280.225,219.6 279.2625,219.125 Q278.4875,218.75 277.9375,217.9375 Q277.4,217.125 277.4,216.1625 L277.4,215.2875 Q277.4,214.2875 277.875,213.4125 Q278.3625,212.5375 279.2,212.075 Q280.05,211.6 281,211.6 Q281.575,211.6 282.075,211.8 Q282.575,212 283,212.4 Z " fill="#000000"/><text fill="#000000" font-family="sans-serif" font-size="9.6" lengthAdjust="spacingAndGlyphs" textLength="36.8" x="297.8" y="219.1281">Platform</text><line style="stroke: #A80036; stroke-width: 1.2000000000000002;" x1="239.6" x2="366.8" y1="228" y2="228"/><text fill="#000000" font-family="sans-serif" font-size="8.8" lengthAdjust="spacingAndGlyphs" textLength="72" x="243.6" y="240.3352">-String designation</text><line style="stroke: #A80036; stroke-width: 1.2000000000000002;" x1="239.6" x2="366.8" y1="245.4688" y2="245.4688"/><text fill="#000000" font-family="sans-serif" font-size="8.8" lengthAdjust="spacingAndGlyphs" textLength="119.2" x="243.6" y="257.8039">+CourierRegistry getCourReg()</text><text fill="#000000" font-family="sans-serif" font-size="8.8" lengthAdjust="spacingAndGlyphs" textLength="114.4" x="243.6" y="268.8727">+OrdersRegistry getOrdReg()</text><!--MD5=[73374f95368988e8705b5dc74d7ebb9b]
class CourierRegistry--><rect codeLine="32" fill="#FEFECE" filter="url(#f19svvi9sdkjbm)" height="49.4688" id="CourierRegistry" style="stroke: #A80036; stroke-width: 1.2000000000000002;" width="100" x="182" y="336.8"/><ellipse cx="196.52" cy="349.6" fill="#ADD1B2" rx="8.8" ry="8.8" style="stroke: #A80036; stroke-width: 0.8;"/><path d="M198.12,346.8 Q198.2825,346.4 198.47,346.2 Q198.6575,346 198.87,346 Q199.245,346 199.4825,346.225 Q199.72,346.45 199.72,346.975 L199.72,348.225 Q199.72,348.75 199.495,348.975 Q199.27,349.2 198.92,349.2 Q198.6075,349.2 198.4075,349.0625 Q198.2075,348.925 198.12,348.5625 Q198.0825,348.3125 197.945,348.175 Q197.695,347.9125 197.245,347.7625 Q196.795,347.6 196.345,347.6 Q195.7825,347.6 195.3075,347.825 Q194.845,348.05 194.4825,348.55 Q194.12,349.05 194.12,349.7375 L194.12,350.475 Q194.12,351.3 194.795,351.85 Q195.47,352.4 196.67,352.4 Q197.3825,352.4 197.8825,352.2375 Q198.17,352.15 198.495,351.8625 Q198.7075,351.7 198.82,351.65 Q198.9325,351.6 199.07,351.6 Q199.3325,351.6 199.52,351.8125 Q199.72,352.0125 199.72,352.3 Q199.72,352.575 199.445,352.9 Q199.045,353.375 198.4075,353.6375 Q197.57,354 196.545,354 Q195.345,354 194.3825,353.525 Q193.6075,353.15 193.0575,352.3375 Q192.52,351.525 192.52,350.5625 L192.52,349.6875 Q192.52,348.6875 192.995,347.8125 Q193.4825,346.9375 194.32,346.475 Q195.17,346 196.12,346 Q196.695,346 197.195,346.2 Q197.695,346.4 198.12,346.8 Z " fill="#000000"/><text fill="#000000" font-family="sans-serif" font-size="9.6" lengthAdjust="spacingAndGlyphs" textLength="68.8" x="208.28" y="353.5281">CourierRegistry</text><line style="stroke: #A80036; stroke-width: 1.2000000000000002;" x1="182.8" x2="281.2" y1="362.4" y2="362.4"/><line style="stroke: #A80036; stroke-width: 1.2000000000000002;" x1="182.8" x2="281.2" y1="368.8" y2="368.8"/><text fill="#000000" font-family="sans-serif" font-size="8.8" lengthAdjust="spacingAndGlyphs" textLength="90.4" x="186.8" y="381.1352">+getCourByEmail(email)</text><!--MD5=[973a78770e68676c0fe706987d51f3f8]
class OrdersRegistry--><rect codeLine="36" fill="#FEFECE" filter="url(#f19svvi9sdkjbm)" height="49.4688" id="OrdersRegistry" style="stroke: #A80036; stroke-width: 1.2000000000000002;" width="92" x="310" y="336.8"/><ellipse cx="322" cy="349.6" fill="#ADD1B2" rx="8.8" ry="8.8" style="stroke: #A80036; stroke-width: 0.8;"/><path d="M323.6,346.8 Q323.7625,346.4 323.95,346.2 Q324.1375,346 324.35,346 Q324.725,346 324.9625,346.225 Q325.2,346.45 325.2,346.975 L325.2,348.225 Q325.2,348.75 324.975,348.975 Q324.75,349.2 324.4,349.2 Q324.0875,349.2 323.8875,349.0625 Q323.6875,348.925 323.6,348.5625 Q323.5625,348.3125 323.425,348.175 Q323.175,347.9125 322.725,347.7625 Q322.275,347.6 321.825,347.6 Q321.2625,347.6 320.7875,347.825 Q320.325,348.05 319.9625,348.55 Q319.6,349.05 319.6,349.7375 L319.6,350.475 Q319.6,351.3 320.275,351.85 Q320.95,352.4 322.15,352.4 Q322.8625,352.4 323.3625,352.2375 Q323.65,352.15 323.975,351.8625 Q324.1875,351.7 324.3,351.65 Q324.4125,351.6 324.55,351.6 Q324.8125,351.6 325,351.8125 Q325.2,352.0125 325.2,352.3 Q325.2,352.575 324.925,352.9 Q324.525,353.375 323.8875,353.6375 Q323.05,354 322.025,354 Q320.825,354 319.8625,353.525 Q319.0875,353.15 318.5375,352.3375 Q318,351.525 318,350.5625 L318,349.6875 Q318,348.6875 318.475,347.8125 Q318.9625,346.9375 319.8,346.475 Q320.65,346 321.6,346 Q322.175,346 322.675,346.2 Q323.175,346.4 323.6,346.8 Z " fill="#000000"/><text fill="#000000" font-family="sans-serif" font-size="9.6" lengthAdjust="spacingAndGlyphs" textLength="66.4" x="333.2" y="353.5281">OrdersRegistry</text><line style="stroke: #A80036; stroke-width: 1.2000000000000002;" x1="310.8" x2="401.2" y1="362.4" y2="362.4"/><line style="stroke: #A80036; stroke-width: 1.2000000000000002;" x1="310.8" x2="401.2" y1="368.8" y2="368.8"/><text fill="#000000" font-family="sans-serif" font-size="8.8" lengthAdjust="spacingAndGlyphs" textLength="64" x="314.8" y="381.1352">+getOrdersList()</text><!--MD5=[fc2793c14a7c7bf58c04bfe679bc3bb7]
link KnowDeliveryUI to KnowDeliveryController--><path codeLine="41" d="M168.8,44.032 C168.8,56.568 168.8,73.528 168.8,88.464 " fill="none" id="KnowDeliveryUI-to-KnowDeliveryController" style="stroke: #A80036; stroke-width: 0.8; stroke-dasharray: 7.0,7.0;"/><polygon fill="#A80036" points="168.8,92.616,172,85.416,168.8,88.616,165.6,85.416,168.8,92.616" style="stroke: #A80036; stroke-width: 0.8;"/><!--MD5=[6209529509848a7f707f55795ba3429b]
link KnowDeliveryController to Platform--><path codeLine="42" d="M204.112,153.848 C220.656,167.832 240.568,184.656 258.176,199.544 " fill="none" id="KnowDeliveryController-to-Platform" style="stroke: #A80036; stroke-width: 0.8; stroke-dasharray: 7.0,7.0;"/><polygon fill="#A80036" points="261.44,202.304,257.9988,195.2161,258.3821,199.7253,253.8729,200.1087,261.44,202.304" style="stroke: #A80036; stroke-width: 0.8;"/><!--MD5=[febba546ac41c7f9a4452f293c52fe24]
link KnowDeliveryController to PotApplication--><path codeLine="43" d="M138.112,153.848 C123.792,167.776 106.576,184.52 91.312,199.36 " fill="none" id="KnowDeliveryController-to-PotApplication" style="stroke: #A80036; stroke-width: 0.8; stroke-dasharray: 7.0,7.0;"/><polygon fill="#A80036" points="88.288,202.304,95.6812,199.5798,91.1561,199.5158,91.2201,194.9908,88.288,202.304" style="stroke: #A80036; stroke-width: 0.8;"/><!--MD5=[2d4c702808eedbb15de1c6ef476571c7]
link KnowDeliveryController to UserSession--><path codeLine="44" d="M168.8,153.848 C168.8,170.936 168.8,192.264 168.8,209.12 " fill="none" id="KnowDeliveryController-to-UserSession" style="stroke: #A80036; stroke-width: 0.8; stroke-dasharray: 7.0,7.0;"/><polygon fill="#A80036" points="168.8,213.304,172,206.104,168.8,209.304,165.6,206.104,168.8,213.304" style="stroke: #A80036; stroke-width: 0.8;"/><!--MD5=[11c746fa5d8049d8bd700511044558de]
link Platform to CourierRegistry--><path codeLine="45" d="M282.416,274.696 C271.528,293.288 258.4,315.712 248.272,333.016 " fill="none" id="Platform-to-CourierRegistry" style="stroke: #A80036; stroke-width: 0.8;"/><polygon fill="#A80036" points="246.152,336.632,252.5421,332.0225,248.1661,333.1761,247.0126,328.8,246.152,336.632" style="stroke: #A80036; stroke-width: 0.8;"/><text fill="#000000" font-family="sans-serif" font-size="10.4" lengthAdjust="spacingAndGlyphs" textLength="16.8" x="268.8" y="309.9961">has</text><text fill="#000000" font-family="sans-serif" font-size="10.4" lengthAdjust="spacingAndGlyphs" textLength="5.6" x="273.6469" y="291.2747">1</text><text fill="#000000" font-family="sans-serif" font-size="10.4" lengthAdjust="spacingAndGlyphs" textLength="5.6" x="242.8934" y="328.201">1</text><!--MD5=[cf5883c02043349bf5b8088f08dcf729]
link Platform to OrdersRegistry--><path codeLine="46" d="M318.616,274.696 C326.648,293.208 336.344,315.528 343.84,332.8 " fill="none" id="Platform-to-OrdersRegistry" style="stroke: #A80036; stroke-width: 0.8;"/><polygon fill="#A80036" points="345.504,336.632,345.5588,328.7531,343.9049,332.9655,339.6925,331.3116,345.504,336.632" style="stroke: #A80036; stroke-width: 0.8;"/><text fill="#000000" font-family="sans-serif" font-size="10.4" lengthAdjust="spacingAndGlyphs" textLength="16.8" x="335.2" y="309.9961">has</text><text fill="#000000" font-family="sans-serif" font-size="10.4" lengthAdjust="spacingAndGlyphs" textLength="5.6" x="314.7113" y="291.2747">1</text><text fill="#000000" font-family="sans-serif" font-size="10.4" lengthAdjust="spacingAndGlyphs" textLength="5.6" x="337.1617" y="328.201">1</text><!--MD5=[55602e876c31d352923209244a92107f]
link CourierRegistry to Database--><path codeLine="47" d="M240.032,386.584 C244.256,398.352 249.84,412.568 256,424.8 C259.376,431.496 263.296,438.4 267.32,445.016 " fill="none" id="CourierRegistry-to-Database" style="stroke: #A80036; stroke-width: 0.8;"/><polygon fill="#A80036" points="269.56,448.664,268.5191,440.854,267.4668,445.2554,263.0654,444.2031,269.56,448.664" style="stroke: #A80036; stroke-width: 0.8;"/><text fill="#000000" font-family="sans-serif" font-size="10.4" lengthAdjust="spacingAndGlyphs" textLength="54.4" x="256.8" y="421.9961">connects to</text><text fill="#000000" font-family="sans-serif" font-size="10.4" lengthAdjust="spacingAndGlyphs" textLength="5.6" x="235.4294" y="403.402">1</text><text fill="#000000" font-family="sans-serif" font-size="10.4" lengthAdjust="spacingAndGlyphs" textLength="5.6" x="259.8501" y="440.1984">1</text><!--MD5=[53b238460db0af46d986dbf0a797ccf6]
link OrdersRegistry to Database--><path codeLine="48" d="M343.672,386.424 C335.08,403.168 323.424,425.88 313.52,445.176 " fill="none" id="OrdersRegistry-to-Database" style="stroke: #A80036; stroke-width: 0.8;"/><polygon fill="#A80036" points="311.696,448.736,317.8353,443.7975,313.5259,445.1791,312.1443,440.8697,311.696,448.736" style="stroke: #A80036; stroke-width: 0.8;"/><text fill="#000000" font-family="sans-serif" font-size="10.4" lengthAdjust="spacingAndGlyphs" textLength="54.4" x="331.2" y="421.9961">connects to</text><text fill="#000000" font-family="sans-serif" font-size="10.4" lengthAdjust="spacingAndGlyphs" textLength="5.6" x="335.0937" y="403.4079">1</text><text fill="#000000" font-family="sans-serif" font-size="10.4" lengthAdjust="spacingAndGlyphs" textLength="5.6" x="308.5338" y="440.0182">1</text><!--MD5=[c80299f1b6e3383af558661a9627c615]
@startuml
skinparam classAttributeIconSize 0

class PotApplication
{
  +static getInstance()
  +getPlatform()
  +getCurrentSession()
}
class Database{
   +static executeQuery(query)
   +openConnection()
   +closeAll()
}
class UserSession
{
  +getUserEmail()
}
class KnowDeliveryUI{

}

class KnowDeliveryController{
+getCourierInfo()
+getOrderByCour()
}

class Platform {
  -String designation
  +CourierRegistry getCourReg()
  +OrdersRegistry getOrdReg()
}
class CourierRegistry{
+getCourByEmail(email)
}

class OrdersRegistry{
+getOrdersList()
}


KnowDeliveryUI ..> KnowDeliveryController
KnowDeliveryController ..> Platform
KnowDeliveryController ..> PotApplication
KnowDeliveryController ..> UserSession
Platform "1" - -> "1" CourierRegistry : has
Platform "1" - -> "1" OrdersRegistry : has
CourierRegistry "1" - -> "1" Database : connects to
OrdersRegistry "1" - -> "1" Database : connects to

@enduml

PlantUML version 1.2020.20(Sat Nov 21 10:02:45 GMT 2020)
(GPL source distribution)
Java Runtime: OpenJDK Runtime Environment
JVM: OpenJDK 64-Bit Server VM
Default Encoding: Cp1252
Language: pt
Country: PT
--></g></svg>