<?xml version="1.0" encoding="UTF-8" standalone="no"?><svg xmlns="http://www.w3.org/2000/svg" xmlns:xlink="http://www.w3.org/1999/xlink" contentScriptType="application/ecmascript" contentStyleType="text/css" height="609px" preserveAspectRatio="none" style="width:467px;height:609px;" version="1.1" viewBox="0 0 467 609" width="467px" zoomAndPan="magnify"><defs><filter height="300%" id="f5pt5r7g1kech" width="300%" x="-1" y="-1"><feGaussianBlur result="blurOut" stdDeviation="2.0"/><feColorMatrix in="blurOut" result="blurOut2" type="matrix" values="0 0 0 0 0 0 0 0 0 0 0 0 0 0 0 0 0 0 .4 0"/><feOffset dx="4.0" dy="4.0" in="blurOut2" result="blurOut3"/><feBlend in="SourceGraphic" in2="blurOut3" mode="normal"/></filter></defs><g><!--MD5=[31a99318d73d92502100859279ac7629]
class PotApplication--><rect codeLine="3" fill="#FEFECE" filter="url(#f5pt5r7g1kech)" height="89.5078" id="PotApplication" style="stroke:#A80036;stroke-width:1.5;" width="116" x="7" y="239"/><ellipse cx="24.7" cy="255" fill="#ADD1B2" rx="11" ry="11" style="stroke:#A80036;stroke-width:1.0;"/><path d="M26.7,251.5 Q26.9031,251 27.1375,250.75 Q27.3719,250.5 27.6375,250.5 Q28.1063,250.5 28.4031,250.7813 Q28.7,251.0625 28.7,251.7188 L28.7,253.2813 Q28.7,253.9375 28.4188,254.2188 Q28.1375,254.5 27.7,254.5 Q27.3094,254.5 27.0594,254.3281 Q26.8094,254.1563 26.7,253.7031 Q26.6531,253.3906 26.4813,253.2188 Q26.1688,252.8906 25.6063,252.7031 Q25.0438,252.5 24.4813,252.5 Q23.7781,252.5 23.1844,252.7813 Q22.6063,253.0625 22.1531,253.6875 Q21.7,254.3125 21.7,255.1719 L21.7,256.0938 Q21.7,257.125 22.5438,257.8125 Q23.3875,258.5 24.8875,258.5 Q25.7781,258.5 26.4031,258.2969 Q26.7625,258.1875 27.1688,257.8281 Q27.4344,257.625 27.575,257.5625 Q27.7156,257.5 27.8875,257.5 Q28.2156,257.5 28.45,257.7656 Q28.7,258.0156 28.7,258.375 Q28.7,258.7188 28.3563,259.125 Q27.8563,259.7188 27.0594,260.0469 Q26.0125,260.5 24.7313,260.5 Q23.2313,260.5 22.0281,259.9063 Q21.0594,259.4375 20.3719,258.4219 Q19.7,257.4063 19.7,256.2031 L19.7,255.1094 Q19.7,253.8594 20.2938,252.7656 Q20.9031,251.6719 21.95,251.0938 Q23.0125,250.5 24.2,250.5 Q24.9188,250.5 25.5438,250.75 Q26.1688,251 26.7,251.5 Z " fill="#000000"/><text fill="#000000" font-family="sans-serif" font-size="12" lengthAdjust="spacingAndGlyphs" textLength="78" x="39.3" y="259.9102">PotApplication</text><line style="stroke:#A80036;stroke-width:1.5;" x1="8" x2="122" y1="271" y2="271"/><line style="stroke:#A80036;stroke-width:1.5;" x1="8" x2="122" y1="279" y2="279"/><text fill="#000000" font-family="sans-serif" font-size="11" lengthAdjust="spacingAndGlyphs" textLength="99" x="13" y="294.4189">+static getInstance()</text><text fill="#000000" font-family="sans-serif" font-size="11" lengthAdjust="spacingAndGlyphs" textLength="68" x="13" y="308.2549">+getPlatform()</text><text fill="#000000" font-family="sans-serif" font-size="11" lengthAdjust="spacingAndGlyphs" textLength="104" x="13" y="322.0908">+getCurrentSession()</text><!--MD5=[c5b08e60048ef1bcd788d24cf324082e]
class UserSession--><rect codeLine="10" fill="#FEFECE" filter="url(#f5pt5r7g1kech)" height="61.8359" id="UserSession" style="stroke:#A80036;stroke-width:1.5;" width="105" x="158.5" y="253"/><ellipse cx="173.5" cy="269" fill="#ADD1B2" rx="11" ry="11" style="stroke:#A80036;stroke-width:1.0;"/><path d="M175.5,265.5 Q175.7031,265 175.9375,264.75 Q176.1719,264.5 176.4375,264.5 Q176.9063,264.5 177.2031,264.7813 Q177.5,265.0625 177.5,265.7188 L177.5,267.2813 Q177.5,267.9375 177.2188,268.2188 Q176.9375,268.5 176.5,268.5 Q176.1094,268.5 175.8594,268.3281 Q175.6094,268.1563 175.5,267.7031 Q175.4531,267.3906 175.2813,267.2188 Q174.9688,266.8906 174.4063,266.7031 Q173.8438,266.5 173.2813,266.5 Q172.5781,266.5 171.9844,266.7813 Q171.4063,267.0625 170.9531,267.6875 Q170.5,268.3125 170.5,269.1719 L170.5,270.0938 Q170.5,271.125 171.3438,271.8125 Q172.1875,272.5 173.6875,272.5 Q174.5781,272.5 175.2031,272.2969 Q175.5625,272.1875 175.9688,271.8281 Q176.2344,271.625 176.375,271.5625 Q176.5156,271.5 176.6875,271.5 Q177.0156,271.5 177.25,271.7656 Q177.5,272.0156 177.5,272.375 Q177.5,272.7188 177.1563,273.125 Q176.6563,273.7188 175.8594,274.0469 Q174.8125,274.5 173.5313,274.5 Q172.0313,274.5 170.8281,273.9063 Q169.8594,273.4375 169.1719,272.4219 Q168.5,271.4063 168.5,270.2031 L168.5,269.1094 Q168.5,267.8594 169.0938,266.7656 Q169.7031,265.6719 170.75,265.0938 Q171.8125,264.5 173,264.5 Q173.7188,264.5 174.3438,264.75 Q174.9688,265 175.5,265.5 Z " fill="#000000"/><text fill="#000000" font-family="sans-serif" font-size="12" lengthAdjust="spacingAndGlyphs" textLength="73" x="187.5" y="273.9102">UserSession</text><line style="stroke:#A80036;stroke-width:1.5;" x1="159.5" x2="262.5" y1="285" y2="285"/><line style="stroke:#A80036;stroke-width:1.5;" x1="159.5" x2="262.5" y1="293" y2="293"/><text fill="#000000" font-family="sans-serif" font-size="11" lengthAdjust="spacingAndGlyphs" textLength="76" x="164.5" y="308.4189">+getUserEmail()</text><!--MD5=[90ee25e7cb43e177c619cc29814f7653]
class KnowDeliveryUI--><rect codeLine="14" fill="#FEFECE" filter="url(#f5pt5r7g1kech)" height="48" id="KnowDeliveryUI" style="stroke:#A80036;stroke-width:1.5;" width="118" x="152" y="7"/><ellipse cx="167" cy="23" fill="#ADD1B2" rx="11" ry="11" style="stroke:#A80036;stroke-width:1.0;"/><path d="M169,19.5 Q169.2031,19 169.4375,18.75 Q169.6719,18.5 169.9375,18.5 Q170.4063,18.5 170.7031,18.7813 Q171,19.0625 171,19.7188 L171,21.2813 Q171,21.9375 170.7188,22.2188 Q170.4375,22.5 170,22.5 Q169.6094,22.5 169.3594,22.3281 Q169.1094,22.1563 169,21.7031 Q168.9531,21.3906 168.7813,21.2188 Q168.4688,20.8906 167.9063,20.7031 Q167.3438,20.5 166.7813,20.5 Q166.0781,20.5 165.4844,20.7813 Q164.9063,21.0625 164.4531,21.6875 Q164,22.3125 164,23.1719 L164,24.0938 Q164,25.125 164.8438,25.8125 Q165.6875,26.5 167.1875,26.5 Q168.0781,26.5 168.7031,26.2969 Q169.0625,26.1875 169.4688,25.8281 Q169.7344,25.625 169.875,25.5625 Q170.0156,25.5 170.1875,25.5 Q170.5156,25.5 170.75,25.7656 Q171,26.0156 171,26.375 Q171,26.7188 170.6563,27.125 Q170.1563,27.7188 169.3594,28.0469 Q168.3125,28.5 167.0313,28.5 Q165.5313,28.5 164.3281,27.9063 Q163.3594,27.4375 162.6719,26.4219 Q162,25.4063 162,24.2031 L162,23.1094 Q162,21.8594 162.5938,20.7656 Q163.2031,19.6719 164.25,19.0938 Q165.3125,18.5 166.5,18.5 Q167.2188,18.5 167.8438,18.75 Q168.4688,19 169,19.5 Z " fill="#000000"/><text fill="#000000" font-family="sans-serif" font-size="12" lengthAdjust="spacingAndGlyphs" textLength="86" x="181" y="27.9102">KnowDeliveryUI</text><line style="stroke:#A80036;stroke-width:1.5;" x1="153" x2="269" y1="39" y2="39"/><line style="stroke:#A80036;stroke-width:1.5;" x1="153" x2="269" y1="47" y2="47"/><!--MD5=[fcb5adf99831ef2bf308f51382f66a48]
class KnowDeliveryController--><rect codeLine="18" fill="#FEFECE" filter="url(#f5pt5r7g1kech)" height="61.8359" id="KnowDeliveryController" style="stroke:#A80036;stroke-width:1.5;" width="160" x="131" y="116"/><ellipse cx="146" cy="132" fill="#ADD1B2" rx="11" ry="11" style="stroke:#A80036;stroke-width:1.0;"/><path d="M148,128.5 Q148.2031,128 148.4375,127.75 Q148.6719,127.5 148.9375,127.5 Q149.4063,127.5 149.7031,127.7813 Q150,128.0625 150,128.7188 L150,130.2813 Q150,130.9375 149.7188,131.2188 Q149.4375,131.5 149,131.5 Q148.6094,131.5 148.3594,131.3281 Q148.1094,131.1563 148,130.7031 Q147.9531,130.3906 147.7813,130.2188 Q147.4688,129.8906 146.9063,129.7031 Q146.3438,129.5 145.7813,129.5 Q145.0781,129.5 144.4844,129.7813 Q143.9063,130.0625 143.4531,130.6875 Q143,131.3125 143,132.1719 L143,133.0938 Q143,134.125 143.8438,134.8125 Q144.6875,135.5 146.1875,135.5 Q147.0781,135.5 147.7031,135.2969 Q148.0625,135.1875 148.4688,134.8281 Q148.7344,134.625 148.875,134.5625 Q149.0156,134.5 149.1875,134.5 Q149.5156,134.5 149.75,134.7656 Q150,135.0156 150,135.375 Q150,135.7188 149.6563,136.125 Q149.1563,136.7188 148.3594,137.0469 Q147.3125,137.5 146.0313,137.5 Q144.5313,137.5 143.3281,136.9063 Q142.3594,136.4375 141.6719,135.4219 Q141,134.4063 141,133.2031 L141,132.1094 Q141,130.8594 141.5938,129.7656 Q142.2031,128.6719 143.25,128.0938 Q144.3125,127.5 145.5,127.5 Q146.2188,127.5 146.8438,127.75 Q147.4688,128 148,128.5 Z " fill="#000000"/><text fill="#000000" font-family="sans-serif" font-size="12" lengthAdjust="spacingAndGlyphs" textLength="128" x="160" y="136.9102">KnowDeliveryController</text><line style="stroke:#A80036;stroke-width:1.5;" x1="132" x2="290" y1="148" y2="148"/><line style="stroke:#A80036;stroke-width:1.5;" x1="132" x2="290" y1="156" y2="156"/><text fill="#000000" font-family="sans-serif" font-size="11" lengthAdjust="spacingAndGlyphs" textLength="93" x="137" y="171.4189">+getOrderByCour()</text><!--MD5=[99b8db98afdc2c8404e39242ef4c1e65]
class Platform--><rect codeLine="22" fill="#FEFECE" filter="url(#f5pt5r7g1kech)" height="75.6719" id="Platform" style="stroke:#A80036;stroke-width:1.5;" width="155" x="298.5" y="246"/><ellipse cx="348.75" cy="262" fill="#ADD1B2" rx="11" ry="11" style="stroke:#A80036;stroke-width:1.0;"/><path d="M350.75,258.5 Q350.9531,258 351.1875,257.75 Q351.4219,257.5 351.6875,257.5 Q352.1563,257.5 352.4531,257.7813 Q352.75,258.0625 352.75,258.7188 L352.75,260.2813 Q352.75,260.9375 352.4688,261.2188 Q352.1875,261.5 351.75,261.5 Q351.3594,261.5 351.1094,261.3281 Q350.8594,261.1563 350.75,260.7031 Q350.7031,260.3906 350.5313,260.2188 Q350.2188,259.8906 349.6563,259.7031 Q349.0938,259.5 348.5313,259.5 Q347.8281,259.5 347.2344,259.7813 Q346.6563,260.0625 346.2031,260.6875 Q345.75,261.3125 345.75,262.1719 L345.75,263.0938 Q345.75,264.125 346.5938,264.8125 Q347.4375,265.5 348.9375,265.5 Q349.8281,265.5 350.4531,265.2969 Q350.8125,265.1875 351.2188,264.8281 Q351.4844,264.625 351.625,264.5625 Q351.7656,264.5 351.9375,264.5 Q352.2656,264.5 352.5,264.7656 Q352.75,265.0156 352.75,265.375 Q352.75,265.7188 352.4063,266.125 Q351.9063,266.7188 351.1094,267.0469 Q350.0625,267.5 348.7813,267.5 Q347.2813,267.5 346.0781,266.9063 Q345.1094,266.4375 344.4219,265.4219 Q343.75,264.4063 343.75,263.2031 L343.75,262.1094 Q343.75,260.8594 344.3438,259.7656 Q344.9531,258.6719 346,258.0938 Q347.0625,257.5 348.25,257.5 Q348.9688,257.5 349.5938,257.75 Q350.2188,258 350.75,258.5 Z " fill="#000000"/><text fill="#000000" font-family="sans-serif" font-size="12" lengthAdjust="spacingAndGlyphs" textLength="46" x="369.25" y="266.9102">Platform</text><line style="stroke:#A80036;stroke-width:1.5;" x1="299.5" x2="452.5" y1="278" y2="278"/><text fill="#000000" font-family="sans-serif" font-size="11" lengthAdjust="spacingAndGlyphs" textLength="90" x="304.5" y="293.4189">-String designation</text><line style="stroke:#A80036;stroke-width:1.5;" x1="299.5" x2="452.5" y1="299.8359" y2="299.8359"/><text fill="#000000" font-family="sans-serif" font-size="11" lengthAdjust="spacingAndGlyphs" textLength="143" x="304.5" y="315.2549">+OrdersRegistry getOrdReg()</text><!--MD5=[973a78770e68676c0fe706987d51f3f8]
class OrdersRegistry--><rect codeLine="27" fill="#FEFECE" filter="url(#f5pt5r7g1kech)" height="61.8359" id="OrdersRegistry" style="stroke:#A80036;stroke-width:1.5;" width="141" x="305.5" y="407"/><ellipse cx="332.2" cy="423" fill="#ADD1B2" rx="11" ry="11" style="stroke:#A80036;stroke-width:1.0;"/><path d="M334.2,419.5 Q334.4031,419 334.6375,418.75 Q334.8719,418.5 335.1375,418.5 Q335.6063,418.5 335.9031,418.7813 Q336.2,419.0625 336.2,419.7188 L336.2,421.2813 Q336.2,421.9375 335.9188,422.2188 Q335.6375,422.5 335.2,422.5 Q334.8094,422.5 334.5594,422.3281 Q334.3094,422.1563 334.2,421.7031 Q334.1531,421.3906 333.9813,421.2188 Q333.6688,420.8906 333.1063,420.7031 Q332.5438,420.5 331.9813,420.5 Q331.2781,420.5 330.6844,420.7813 Q330.1063,421.0625 329.6531,421.6875 Q329.2,422.3125 329.2,423.1719 L329.2,424.0938 Q329.2,425.125 330.0438,425.8125 Q330.8875,426.5 332.3875,426.5 Q333.2781,426.5 333.9031,426.2969 Q334.2625,426.1875 334.6688,425.8281 Q334.9344,425.625 335.075,425.5625 Q335.2156,425.5 335.3875,425.5 Q335.7156,425.5 335.95,425.7656 Q336.2,426.0156 336.2,426.375 Q336.2,426.7188 335.8563,427.125 Q335.3563,427.7188 334.5594,428.0469 Q333.5125,428.5 332.2313,428.5 Q330.7313,428.5 329.5281,427.9063 Q328.5594,427.4375 327.8719,426.4219 Q327.2,425.4063 327.2,424.2031 L327.2,423.1094 Q327.2,421.8594 327.7938,420.7656 Q328.4031,419.6719 329.45,419.0938 Q330.5125,418.5 331.7,418.5 Q332.4188,418.5 333.0438,418.75 Q333.6688,419 334.2,419.5 Z " fill="#000000"/><text fill="#000000" font-family="sans-serif" font-size="12" lengthAdjust="spacingAndGlyphs" textLength="83" x="348.8" y="427.9102">OrdersRegistry</text><line style="stroke:#A80036;stroke-width:1.5;" x1="306.5" x2="445.5" y1="439" y2="439"/><line style="stroke:#A80036;stroke-width:1.5;" x1="306.5" x2="445.5" y1="447" y2="447"/><text fill="#000000" font-family="sans-serif" font-size="11" lengthAdjust="spacingAndGlyphs" textLength="129" x="311.5" y="462.4189">+getOrderByCourier(email)</text><!--MD5=[ed3afe56f065d25b4329669e73deaf58]
class Database--><rect fill="#FEFECE" filter="url(#f5pt5r7g1kech)" height="48" id="Database" style="stroke:#A80036;stroke-width:1.5;" width="86" x="333" y="547"/><ellipse cx="348" cy="563" fill="#ADD1B2" rx="11" ry="11" style="stroke:#A80036;stroke-width:1.0;"/><path d="M350,559.5 Q350.2031,559 350.4375,558.75 Q350.6719,558.5 350.9375,558.5 Q351.4063,558.5 351.7031,558.7813 Q352,559.0625 352,559.7188 L352,561.2813 Q352,561.9375 351.7188,562.2188 Q351.4375,562.5 351,562.5 Q350.6094,562.5 350.3594,562.3281 Q350.1094,562.1563 350,561.7031 Q349.9531,561.3906 349.7813,561.2188 Q349.4688,560.8906 348.9063,560.7031 Q348.3438,560.5 347.7813,560.5 Q347.0781,560.5 346.4844,560.7813 Q345.9063,561.0625 345.4531,561.6875 Q345,562.3125 345,563.1719 L345,564.0938 Q345,565.125 345.8438,565.8125 Q346.6875,566.5 348.1875,566.5 Q349.0781,566.5 349.7031,566.2969 Q350.0625,566.1875 350.4688,565.8281 Q350.7344,565.625 350.875,565.5625 Q351.0156,565.5 351.1875,565.5 Q351.5156,565.5 351.75,565.7656 Q352,566.0156 352,566.375 Q352,566.7188 351.6563,567.125 Q351.1563,567.7188 350.3594,568.0469 Q349.3125,568.5 348.0313,568.5 Q346.5313,568.5 345.3281,567.9063 Q344.3594,567.4375 343.6719,566.4219 Q343,565.4063 343,564.2031 L343,563.1094 Q343,561.8594 343.5938,560.7656 Q344.2031,559.6719 345.25,559.0938 Q346.3125,558.5 347.5,558.5 Q348.2188,558.5 348.8438,558.75 Q349.4688,559 350,559.5 Z " fill="#000000"/><text fill="#000000" font-family="sans-serif" font-size="12" lengthAdjust="spacingAndGlyphs" textLength="54" x="362" y="567.9102">Database</text><line style="stroke:#A80036;stroke-width:1.5;" x1="334" x2="418" y1="579" y2="579"/><line style="stroke:#A80036;stroke-width:1.5;" x1="334" x2="418" y1="587" y2="587"/><!--MD5=[fc2793c14a7c7bf58c04bfe679bc3bb7]
link KnowDeliveryUI to KnowDeliveryController--><path codeLine="32" d="M211,55.07 C211,71.01 211,92.51 211,110.6 " fill="none" id="KnowDeliveryUI-to-KnowDeliveryController" style="stroke:#A80036;stroke-width:1.0;stroke-dasharray:7.0,7.0;"/><polygon fill="#A80036" points="211,115.61,215,106.61,211,110.61,207,106.61,211,115.61" style="stroke:#A80036;stroke-width:1.0;"/><!--MD5=[6209529509848a7f707f55795ba3429b]
link KnowDeliveryController to Platform--><path codeLine="33" d="M248.03,178.3 C271.21,197.26 301.35,221.92 326.56,242.55 " fill="none" id="KnowDeliveryController-to-Platform" style="stroke:#A80036;stroke-width:1.0;stroke-dasharray:7.0,7.0;"/><polygon fill="#A80036" points="330.56,245.82,326.1326,237.0224,326.6921,242.6515,321.063,243.211,330.56,245.82" style="stroke:#A80036;stroke-width:1.0;"/><!--MD5=[febba546ac41c7f9a4452f293c52fe24]
link KnowDeliveryController to PotApplication--><path codeLine="34" d="M178.23,178.3 C160.03,195.13 136.97,216.45 116.42,235.45 " fill="none" id="KnowDeliveryController-to-PotApplication" style="stroke:#A80036;stroke-width:1.0;stroke-dasharray:7.0,7.0;"/><polygon fill="#A80036" points="112.61,238.97,121.9379,235.8092,116.2857,235.5804,116.5145,229.9282,112.61,238.97" style="stroke:#A80036;stroke-width:1.0;"/><!--MD5=[2d4c702808eedbb15de1c6ef476571c7]
link KnowDeliveryController to UserSession--><path codeLine="35" d="M211,178.3 C211,198.88 211,226.18 211,247.74 " fill="none" id="KnowDeliveryController-to-UserSession" style="stroke:#A80036;stroke-width:1.0;stroke-dasharray:7.0,7.0;"/><polygon fill="#A80036" points="211,252.8,215,243.8,211,247.8,207,243.8,211,252.8" style="stroke:#A80036;stroke-width:1.0;"/><!--MD5=[cf5883c02043349bf5b8088f08dcf729]
link Platform to OrdersRegistry--><path codeLine="36" d="M376,322.18 C376,346.37 376,377.72 376,401.56 " fill="none" id="Platform-to-OrdersRegistry" style="stroke:#A80036;stroke-width:1.0;"/><polygon fill="#A80036" points="376,406.83,380,397.83,376,401.83,372,397.83,376,406.83" style="stroke:#A80036;stroke-width:1.0;"/><text fill="#000000" font-family="sans-serif" font-size="13" lengthAdjust="spacingAndGlyphs" textLength="21" x="377" y="373.4951">has</text><text fill="#000000" font-family="sans-serif" font-size="13" lengthAdjust="spacingAndGlyphs" textLength="7" x="368.4422" y="343.0892">1</text><text fill="#000000" font-family="sans-serif" font-size="13" lengthAdjust="spacingAndGlyphs" textLength="7" x="368.2781" y="396.2995">1</text><!--MD5=[53b238460db0af46d986dbf0a797ccf6]
link OrdersRegistry to Database--><path codeLine="37" d="M376,469.05 C376,490.78 376,519.95 376,541.35 " fill="none" id="OrdersRegistry-to-Database" style="stroke:#A80036;stroke-width:1.0;"/><polygon fill="#A80036" points="376,546.61,380,537.61,376,541.61,372,537.61,376,546.61" style="stroke:#A80036;stroke-width:1.0;"/><text fill="#000000" font-family="sans-serif" font-size="13" lengthAdjust="spacingAndGlyphs" textLength="68" x="377" y="513.4951">connects to</text><text fill="#000000" font-family="sans-serif" font-size="13" lengthAdjust="spacingAndGlyphs" textLength="7" x="368.3109" y="490.2838">1</text><text fill="#000000" font-family="sans-serif" font-size="13" lengthAdjust="spacingAndGlyphs" textLength="7" x="368.1469" y="536.2529">1</text><!--MD5=[93b0d1b4e83e1b11dfff017e457fce38]
@startuml
skinparam classAttributeIconSize 0

class PotApplication
{
  +static getInstance()
  +getPlatform()
  +getCurrentSession()
}

class UserSession
{
  +getUserEmail()
}
class KnowDeliveryUI{

}

class KnowDeliveryController{
+getOrderByCour()
}

class Platform {
  -String designation
  +OrdersRegistry getOrdReg()
}

class OrdersRegistry{
+getOrderByCourier(email)
}


KnowDeliveryUI ..> KnowDeliveryController
KnowDeliveryController ..> Platform
KnowDeliveryController ..> PotApplication
KnowDeliveryController ..> UserSession
Platform "1" - -> "1" OrdersRegistry : has
OrdersRegistry "1" - -> "1" Database : connects to

@enduml

PlantUML version 1.2020.23(Sun Dec 13 19:14:58 GMT 2020)
(GPL source distribution)
Java Runtime: OpenJDK Runtime Environment
JVM: OpenJDK 64-Bit Server VM
Default Encoding: Cp1252
Language: pt
Country: PT
--></g></svg>