<?xml version="1.0" encoding="UTF-8" standalone="no"?><svg xmlns="http://www.w3.org/2000/svg" xmlns:xlink="http://www.w3.org/1999/xlink" contentScriptType="application/ecmascript" contentStyleType="text/css" height="956px" preserveAspectRatio="none" style="width:559px;height:956px;" version="1.1" viewBox="0 0 559 956" width="559px" zoomAndPan="magnify"><defs><filter height="300%" id="f1jsvnxq01t5h4" width="300%" x="-1" y="-1"><feGaussianBlur result="blurOut" stdDeviation="2.0"/><feColorMatrix in="blurOut" result="blurOut2" type="matrix" values="0 0 0 0 0 0 0 0 0 0 0 0 0 0 0 0 0 0 .4 0"/><feOffset dx="4.0" dy="4.0" in="blurOut2" result="blurOut3"/><feBlend in="SourceGraphic" in2="blurOut3" mode="normal"/></filter></defs><g><!--MD5=[c365f98fde6e762b4385e710efedc7b8]
class RegisterCourierUI--><rect codeLine="4" fill="#FEFECE" filter="url(#f1jsvnxq01t5h4)" height="48" id="RegisterCourierUI" style="stroke:#A80036;stroke-width:1.5;" width="132" x="225" y="7"/><ellipse cx="240" cy="23" fill="#ADD1B2" rx="11" ry="11" style="stroke:#A80036;stroke-width:1.0;"/><path d="M242,19.5 Q242.2031,19 242.4375,18.75 Q242.6719,18.5 242.9375,18.5 Q243.4063,18.5 243.7031,18.7813 Q244,19.0625 244,19.7188 L244,21.2813 Q244,21.9375 243.7188,22.2188 Q243.4375,22.5 243,22.5 Q242.6094,22.5 242.3594,22.3281 Q242.1094,22.1563 242,21.7031 Q241.9531,21.3906 241.7813,21.2188 Q241.4688,20.8906 240.9063,20.7031 Q240.3438,20.5 239.7813,20.5 Q239.0781,20.5 238.4844,20.7813 Q237.9063,21.0625 237.4531,21.6875 Q237,22.3125 237,23.1719 L237,24.0938 Q237,25.125 237.8438,25.8125 Q238.6875,26.5 240.1875,26.5 Q241.0781,26.5 241.7031,26.2969 Q242.0625,26.1875 242.4688,25.8281 Q242.7344,25.625 242.875,25.5625 Q243.0156,25.5 243.1875,25.5 Q243.5156,25.5 243.75,25.7656 Q244,26.0156 244,26.375 Q244,26.7188 243.6563,27.125 Q243.1563,27.7188 242.3594,28.0469 Q241.3125,28.5 240.0313,28.5 Q238.5313,28.5 237.3281,27.9063 Q236.3594,27.4375 235.6719,26.4219 Q235,25.4063 235,24.2031 L235,23.1094 Q235,21.8594 235.5938,20.7656 Q236.2031,19.6719 237.25,19.0938 Q238.3125,18.5 239.5,18.5 Q240.2188,18.5 240.8438,18.75 Q241.4688,19 242,19.5 Z " fill="#000000"/><text fill="#000000" font-family="sans-serif" font-size="12" lengthAdjust="spacingAndGlyphs" textLength="100" x="254" y="27.9102">RegisterCourierUI</text><line style="stroke:#A80036;stroke-width:1.5;" x1="226" x2="356" y1="39" y2="39"/><line style="stroke:#A80036;stroke-width:1.5;" x1="226" x2="356" y1="47" y2="47"/><!--MD5=[4eb0c4884421df88d70952c6803fb262]
class RegisterCourierController--><rect codeLine="8" fill="#FEFECE" filter="url(#f1jsvnxq01t5h4)" height="75.6719" id="RegisterCourierController" style="stroke:#A80036;stroke-width:1.5;" width="243" x="169.5" y="116"/><ellipse cx="215.75" cy="132" fill="#ADD1B2" rx="11" ry="11" style="stroke:#A80036;stroke-width:1.0;"/><path d="M217.75,128.5 Q217.9531,128 218.1875,127.75 Q218.4219,127.5 218.6875,127.5 Q219.1563,127.5 219.4531,127.7813 Q219.75,128.0625 219.75,128.7188 L219.75,130.2813 Q219.75,130.9375 219.4688,131.2188 Q219.1875,131.5 218.75,131.5 Q218.3594,131.5 218.1094,131.3281 Q217.8594,131.1563 217.75,130.7031 Q217.7031,130.3906 217.5313,130.2188 Q217.2188,129.8906 216.6563,129.7031 Q216.0938,129.5 215.5313,129.5 Q214.8281,129.5 214.2344,129.7813 Q213.6563,130.0625 213.2031,130.6875 Q212.75,131.3125 212.75,132.1719 L212.75,133.0938 Q212.75,134.125 213.5938,134.8125 Q214.4375,135.5 215.9375,135.5 Q216.8281,135.5 217.4531,135.2969 Q217.8125,135.1875 218.2188,134.8281 Q218.4844,134.625 218.625,134.5625 Q218.7656,134.5 218.9375,134.5 Q219.2656,134.5 219.5,134.7656 Q219.75,135.0156 219.75,135.375 Q219.75,135.7188 219.4063,136.125 Q218.9063,136.7188 218.1094,137.0469 Q217.0625,137.5 215.7813,137.5 Q214.2813,137.5 213.0781,136.9063 Q212.1094,136.4375 211.4219,135.4219 Q210.75,134.4063 210.75,133.2031 L210.75,132.1094 Q210.75,130.8594 211.3438,129.7656 Q211.9531,128.6719 213,128.0938 Q214.0625,127.5 215.25,127.5 Q215.9688,127.5 216.5938,127.75 Q217.2188,128 217.75,128.5 Z " fill="#000000"/><text fill="#000000" font-family="sans-serif" font-size="12" lengthAdjust="spacingAndGlyphs" textLength="142" x="236.25" y="136.9102">RegisterCourierController</text><line style="stroke:#A80036;stroke-width:1.5;" x1="170.5" x2="411.5" y1="148" y2="148"/><line style="stroke:#A80036;stroke-width:1.5;" x1="170.5" x2="411.5" y1="156" y2="156"/><text fill="#000000" font-family="sans-serif" font-size="11" lengthAdjust="spacingAndGlyphs" textLength="231" x="175.5" y="171.4189">+newCourier(id, name, email, nif, iban, address)</text><text fill="#000000" font-family="sans-serif" font-size="11" lengthAdjust="spacingAndGlyphs" textLength="92" x="175.5" y="185.2549">+registersCourier()</text><!--MD5=[99b8db98afdc2c8404e39242ef4c1e65]
class Platform--><rect codeLine="14" fill="#FEFECE" filter="url(#f1jsvnxq01t5h4)" height="89.5078" id="Platform" style="stroke:#A80036;stroke-width:1.5;" width="130" x="53" y="253"/><ellipse cx="91.4" cy="269" fill="#ADD1B2" rx="11" ry="11" style="stroke:#A80036;stroke-width:1.0;"/><path d="M93.4,265.5 Q93.6031,265 93.8375,264.75 Q94.0719,264.5 94.3375,264.5 Q94.8063,264.5 95.1031,264.7813 Q95.4,265.0625 95.4,265.7188 L95.4,267.2813 Q95.4,267.9375 95.1188,268.2188 Q94.8375,268.5 94.4,268.5 Q94.0094,268.5 93.7594,268.3281 Q93.5094,268.1563 93.4,267.7031 Q93.3531,267.3906 93.1813,267.2188 Q92.8688,266.8906 92.3063,266.7031 Q91.7438,266.5 91.1813,266.5 Q90.4781,266.5 89.8844,266.7813 Q89.3063,267.0625 88.8531,267.6875 Q88.4,268.3125 88.4,269.1719 L88.4,270.0938 Q88.4,271.125 89.2438,271.8125 Q90.0875,272.5 91.5875,272.5 Q92.4781,272.5 93.1031,272.2969 Q93.4625,272.1875 93.8688,271.8281 Q94.1344,271.625 94.275,271.5625 Q94.4156,271.5 94.5875,271.5 Q94.9156,271.5 95.15,271.7656 Q95.4,272.0156 95.4,272.375 Q95.4,272.7188 95.0563,273.125 Q94.5563,273.7188 93.7594,274.0469 Q92.7125,274.5 91.4313,274.5 Q89.9313,274.5 88.7281,273.9063 Q87.7594,273.4375 87.0719,272.4219 Q86.4,271.4063 86.4,270.2031 L86.4,269.1094 Q86.4,267.8594 86.9938,266.7656 Q87.6031,265.6719 88.65,265.0938 Q89.7125,264.5 90.9,264.5 Q91.6188,264.5 92.2438,264.75 Q92.8688,265 93.4,265.5 Z " fill="#000000"/><text fill="#000000" font-family="sans-serif" font-size="12" lengthAdjust="spacingAndGlyphs" textLength="46" x="110.6" y="273.9102">Platform</text><line style="stroke:#A80036;stroke-width:1.5;" x1="54" x2="182" y1="285" y2="285"/><text fill="#000000" font-family="sans-serif" font-size="11" lengthAdjust="spacingAndGlyphs" textLength="104" x="59" y="300.4189">-String strDesignation</text><line style="stroke:#A80036;stroke-width:1.5;" x1="54" x2="182" y1="306.8359" y2="306.8359"/><text fill="#000000" font-family="sans-serif" font-size="11" lengthAdjust="spacingAndGlyphs" textLength="71" x="59" y="322.2549">+getCourReg()</text><text fill="#000000" font-family="sans-serif" font-size="11" lengthAdjust="spacingAndGlyphs" textLength="118" x="59" y="336.0908">+CourierDB getCourDB()</text><!--MD5=[fed1add0081d3c7b1127626c78d8052e]
class CourierRegistration--><rect codeLine="20" fill="#FEFECE" filter="url(#f1jsvnxq01t5h4)" height="89.5078" id="CourierRegistration" style="stroke:#A80036;stroke-width:1.5;" width="267" x="43.5" y="421"/><ellipse cx="118.75" cy="437" fill="#ADD1B2" rx="11" ry="11" style="stroke:#A80036;stroke-width:1.0;"/><path d="M120.75,433.5 Q120.9531,433 121.1875,432.75 Q121.4219,432.5 121.6875,432.5 Q122.1563,432.5 122.4531,432.7813 Q122.75,433.0625 122.75,433.7188 L122.75,435.2813 Q122.75,435.9375 122.4688,436.2188 Q122.1875,436.5 121.75,436.5 Q121.3594,436.5 121.1094,436.3281 Q120.8594,436.1563 120.75,435.7031 Q120.7031,435.3906 120.5313,435.2188 Q120.2188,434.8906 119.6563,434.7031 Q119.0938,434.5 118.5313,434.5 Q117.8281,434.5 117.2344,434.7813 Q116.6563,435.0625 116.2031,435.6875 Q115.75,436.3125 115.75,437.1719 L115.75,438.0938 Q115.75,439.125 116.5938,439.8125 Q117.4375,440.5 118.9375,440.5 Q119.8281,440.5 120.4531,440.2969 Q120.8125,440.1875 121.2188,439.8281 Q121.4844,439.625 121.625,439.5625 Q121.7656,439.5 121.9375,439.5 Q122.2656,439.5 122.5,439.7656 Q122.75,440.0156 122.75,440.375 Q122.75,440.7188 122.4063,441.125 Q121.9063,441.7188 121.1094,442.0469 Q120.0625,442.5 118.7813,442.5 Q117.2813,442.5 116.0781,441.9063 Q115.1094,441.4375 114.4219,440.4219 Q113.75,439.4063 113.75,438.2031 L113.75,437.1094 Q113.75,435.8594 114.3438,434.7656 Q114.9531,433.6719 116,433.0938 Q117.0625,432.5 118.25,432.5 Q118.9688,432.5 119.5938,432.75 Q120.2188,433 120.75,433.5 Z " fill="#000000"/><text fill="#000000" font-family="sans-serif" font-size="12" lengthAdjust="spacingAndGlyphs" textLength="108" x="139.25" y="441.9102">CourierRegistration</text><line style="stroke:#A80036;stroke-width:1.5;" x1="44.5" x2="309.5" y1="453" y2="453"/><line style="stroke:#A80036;stroke-width:1.5;" x1="44.5" x2="309.5" y1="461" y2="461"/><text fill="#000000" font-family="sans-serif" font-size="11" lengthAdjust="spacingAndGlyphs" textLength="107" x="49.5" y="476.4189">+generatePassword()</text><text fill="#000000" font-family="sans-serif" font-size="11" lengthAdjust="spacingAndGlyphs" textLength="255" x="49.5" y="490.2549">+Courier newCourier(name, email, nif, iban, address)</text><text fill="#000000" font-family="sans-serif" font-size="11" lengthAdjust="spacingAndGlyphs" textLength="126" x="49.5" y="504.0908">+registersCourier(courier)</text><!--MD5=[c6a2171c11447acbe08a3dfeee0e1710]
class Courier--><rect codeLine="29" fill="#FEFECE" filter="url(#f1jsvnxq01t5h4)" height="131.0156" id="Courier" style="stroke:#A80036;stroke-width:1.5;" width="277" x="38.5" y="589"/><ellipse cx="152.25" cy="605" fill="#ADD1B2" rx="11" ry="11" style="stroke:#A80036;stroke-width:1.0;"/><path d="M154.25,601.5 Q154.4531,601 154.6875,600.75 Q154.9219,600.5 155.1875,600.5 Q155.6563,600.5 155.9531,600.7813 Q156.25,601.0625 156.25,601.7188 L156.25,603.2813 Q156.25,603.9375 155.9688,604.2188 Q155.6875,604.5 155.25,604.5 Q154.8594,604.5 154.6094,604.3281 Q154.3594,604.1563 154.25,603.7031 Q154.2031,603.3906 154.0313,603.2188 Q153.7188,602.8906 153.1563,602.7031 Q152.5938,602.5 152.0313,602.5 Q151.3281,602.5 150.7344,602.7813 Q150.1563,603.0625 149.7031,603.6875 Q149.25,604.3125 149.25,605.1719 L149.25,606.0938 Q149.25,607.125 150.0938,607.8125 Q150.9375,608.5 152.4375,608.5 Q153.3281,608.5 153.9531,608.2969 Q154.3125,608.1875 154.7188,607.8281 Q154.9844,607.625 155.125,607.5625 Q155.2656,607.5 155.4375,607.5 Q155.7656,607.5 156,607.7656 Q156.25,608.0156 156.25,608.375 Q156.25,608.7188 155.9063,609.125 Q155.4063,609.7188 154.6094,610.0469 Q153.5625,610.5 152.2813,610.5 Q150.7813,610.5 149.5781,609.9063 Q148.6094,609.4375 147.9219,608.4219 Q147.25,607.4063 147.25,606.2031 L147.25,605.1094 Q147.25,603.8594 147.8438,602.7656 Q148.4531,601.6719 149.5,601.0938 Q150.5625,600.5 151.75,600.5 Q152.4688,600.5 153.0938,600.75 Q153.7188,601 154.25,601.5 Z " fill="#000000"/><text fill="#000000" font-family="sans-serif" font-size="12" lengthAdjust="spacingAndGlyphs" textLength="41" x="172.75" y="609.9102">Courier</text><line style="stroke:#A80036;stroke-width:1.5;" x1="39.5" x2="314.5" y1="621" y2="621"/><text fill="#000000" font-family="sans-serif" font-size="11" lengthAdjust="spacingAndGlyphs" textLength="26" x="44.5" y="636.4189">-int id</text><text fill="#000000" font-family="sans-serif" font-size="11" lengthAdjust="spacingAndGlyphs" textLength="61" x="44.5" y="650.2549">-String name</text><text fill="#000000" font-family="sans-serif" font-size="11" lengthAdjust="spacingAndGlyphs" textLength="30" x="44.5" y="664.0908">-int nif</text><text fill="#000000" font-family="sans-serif" font-size="11" lengthAdjust="spacingAndGlyphs" textLength="55" x="44.5" y="677.9268">-String iban</text><line style="stroke:#A80036;stroke-width:1.5;" x1="39.5" x2="314.5" y1="684.3438" y2="684.3438"/><text fill="#000000" font-family="sans-serif" font-size="11" lengthAdjust="spacingAndGlyphs" textLength="251" x="44.5" y="699.7627">+Courier(name, email, password, nif, iban, address)</text><text fill="#000000" font-family="sans-serif" font-size="11" lengthAdjust="spacingAndGlyphs" textLength="265" x="44.5" y="713.5986">+Courier(id, name, email, password, nif, iban, address)</text><!--MD5=[0f39e4cb6f03951afbf6d14bd2505654]
class Address--><rect codeLine="40" fill="#FEFECE" filter="url(#f1jsvnxq01t5h4)" height="144.8516" id="Address" style="stroke:#A80036;stroke-width:1.5;" width="340" x="7" y="798"/><ellipse cx="149.75" cy="814" fill="#ADD1B2" rx="11" ry="11" style="stroke:#A80036;stroke-width:1.0;"/><path d="M151.75,810.5 Q151.9531,810 152.1875,809.75 Q152.4219,809.5 152.6875,809.5 Q153.1563,809.5 153.4531,809.7813 Q153.75,810.0625 153.75,810.7188 L153.75,812.2813 Q153.75,812.9375 153.4688,813.2188 Q153.1875,813.5 152.75,813.5 Q152.3594,813.5 152.1094,813.3281 Q151.8594,813.1563 151.75,812.7031 Q151.7031,812.3906 151.5313,812.2188 Q151.2188,811.8906 150.6563,811.7031 Q150.0938,811.5 149.5313,811.5 Q148.8281,811.5 148.2344,811.7813 Q147.6563,812.0625 147.2031,812.6875 Q146.75,813.3125 146.75,814.1719 L146.75,815.0938 Q146.75,816.125 147.5938,816.8125 Q148.4375,817.5 149.9375,817.5 Q150.8281,817.5 151.4531,817.2969 Q151.8125,817.1875 152.2188,816.8281 Q152.4844,816.625 152.625,816.5625 Q152.7656,816.5 152.9375,816.5 Q153.2656,816.5 153.5,816.7656 Q153.75,817.0156 153.75,817.375 Q153.75,817.7188 153.4063,818.125 Q152.9063,818.7188 152.1094,819.0469 Q151.0625,819.5 149.7813,819.5 Q148.2813,819.5 147.0781,818.9063 Q146.1094,818.4375 145.4219,817.4219 Q144.75,816.4063 144.75,815.2031 L144.75,814.1094 Q144.75,812.8594 145.3438,811.7656 Q145.9531,810.6719 147,810.0938 Q148.0625,809.5 149.25,809.5 Q149.9688,809.5 150.5938,809.75 Q151.2188,810 151.75,810.5 Z " fill="#000000"/><text fill="#000000" font-family="sans-serif" font-size="12" lengthAdjust="spacingAndGlyphs" textLength="46" x="170.25" y="818.9102">Address</text><line style="stroke:#A80036;stroke-width:1.5;" x1="8" x2="346" y1="830" y2="830"/><text fill="#000000" font-family="sans-serif" font-size="11" lengthAdjust="spacingAndGlyphs" textLength="91" x="13" y="845.4189">-String fullAddress</text><text fill="#000000" font-family="sans-serif" font-size="11" lengthAdjust="spacingAndGlyphs" textLength="89" x="13" y="859.2549">-String postalCode</text><text fill="#000000" font-family="sans-serif" font-size="11" lengthAdjust="spacingAndGlyphs" textLength="68" x="13" y="873.0908">-String locality</text><text fill="#000000" font-family="sans-serif" font-size="11" lengthAdjust="spacingAndGlyphs" textLength="72" x="13" y="886.9268">-String country</text><text fill="#000000" font-family="sans-serif" font-size="11" lengthAdjust="spacingAndGlyphs" textLength="71" x="13" y="900.7627">-float longitude</text><text fill="#000000" font-family="sans-serif" font-size="11" lengthAdjust="spacingAndGlyphs" textLength="62" x="13" y="914.5986">-float latitude</text><line style="stroke:#A80036;stroke-width:1.5;" x1="8" x2="346" y1="921.0156" y2="921.0156"/><text fill="#000000" font-family="sans-serif" font-size="11" lengthAdjust="spacingAndGlyphs" textLength="328" x="13" y="936.4346">+Address(fullAddress,postalCode,locality,country,longitude,latitude)</text><!--MD5=[31a99318d73d92502100859279ac7629]
class PotApplication--><rect codeLine="52" fill="#FEFECE" filter="url(#f1jsvnxq01t5h4)" height="89.5078" id="PotApplication" style="stroke:#A80036;stroke-width:1.5;" width="116" x="289" y="253"/><ellipse cx="306.7" cy="269" fill="#ADD1B2" rx="11" ry="11" style="stroke:#A80036;stroke-width:1.0;"/><path d="M308.7,265.5 Q308.9031,265 309.1375,264.75 Q309.3719,264.5 309.6375,264.5 Q310.1063,264.5 310.4031,264.7813 Q310.7,265.0625 310.7,265.7188 L310.7,267.2813 Q310.7,267.9375 310.4188,268.2188 Q310.1375,268.5 309.7,268.5 Q309.3094,268.5 309.0594,268.3281 Q308.8094,268.1563 308.7,267.7031 Q308.6531,267.3906 308.4813,267.2188 Q308.1688,266.8906 307.6063,266.7031 Q307.0438,266.5 306.4813,266.5 Q305.7781,266.5 305.1844,266.7813 Q304.6063,267.0625 304.1531,267.6875 Q303.7,268.3125 303.7,269.1719 L303.7,270.0938 Q303.7,271.125 304.5438,271.8125 Q305.3875,272.5 306.8875,272.5 Q307.7781,272.5 308.4031,272.2969 Q308.7625,272.1875 309.1688,271.8281 Q309.4344,271.625 309.575,271.5625 Q309.7156,271.5 309.8875,271.5 Q310.2156,271.5 310.45,271.7656 Q310.7,272.0156 310.7,272.375 Q310.7,272.7188 310.3563,273.125 Q309.8563,273.7188 309.0594,274.0469 Q308.0125,274.5 306.7313,274.5 Q305.2313,274.5 304.0281,273.9063 Q303.0594,273.4375 302.3719,272.4219 Q301.7,271.4063 301.7,270.2031 L301.7,269.1094 Q301.7,267.8594 302.2938,266.7656 Q302.9031,265.6719 303.95,265.0938 Q305.0125,264.5 306.2,264.5 Q306.9188,264.5 307.5438,264.75 Q308.1688,265 308.7,265.5 Z " fill="#000000"/><text fill="#000000" font-family="sans-serif" font-size="12" lengthAdjust="spacingAndGlyphs" textLength="78" x="321.3" y="273.9102">PotApplication</text><line style="stroke:#A80036;stroke-width:1.5;" x1="290" x2="404" y1="285" y2="285"/><line style="stroke:#A80036;stroke-width:1.5;" x1="290" x2="404" y1="293" y2="293"/><text fill="#000000" font-family="sans-serif" font-size="11" lengthAdjust="spacingAndGlyphs" textLength="99" x="295" y="308.4189">+static getInstance()</text><text fill="#000000" font-family="sans-serif" font-size="11" lengthAdjust="spacingAndGlyphs" textLength="68" x="295" y="322.2549">+getPlatform()</text><text fill="#000000" font-family="sans-serif" font-size="11" lengthAdjust="spacingAndGlyphs" textLength="104" x="295" y="336.0908">+getCurrentSession()</text><!--MD5=[c5b08e60048ef1bcd788d24cf324082e]
class UserSession--><rect codeLine="59" fill="#FEFECE" filter="url(#f1jsvnxq01t5h4)" height="61.8359" id="UserSession" style="stroke:#A80036;stroke-width:1.5;" width="105" x="440.5" y="267"/><ellipse cx="455.5" cy="283" fill="#ADD1B2" rx="11" ry="11" style="stroke:#A80036;stroke-width:1.0;"/><path d="M457.5,279.5 Q457.7031,279 457.9375,278.75 Q458.1719,278.5 458.4375,278.5 Q458.9063,278.5 459.2031,278.7813 Q459.5,279.0625 459.5,279.7188 L459.5,281.2813 Q459.5,281.9375 459.2188,282.2188 Q458.9375,282.5 458.5,282.5 Q458.1094,282.5 457.8594,282.3281 Q457.6094,282.1563 457.5,281.7031 Q457.4531,281.3906 457.2813,281.2188 Q456.9688,280.8906 456.4063,280.7031 Q455.8438,280.5 455.2813,280.5 Q454.5781,280.5 453.9844,280.7813 Q453.4063,281.0625 452.9531,281.6875 Q452.5,282.3125 452.5,283.1719 L452.5,284.0938 Q452.5,285.125 453.3438,285.8125 Q454.1875,286.5 455.6875,286.5 Q456.5781,286.5 457.2031,286.2969 Q457.5625,286.1875 457.9688,285.8281 Q458.2344,285.625 458.375,285.5625 Q458.5156,285.5 458.6875,285.5 Q459.0156,285.5 459.25,285.7656 Q459.5,286.0156 459.5,286.375 Q459.5,286.7188 459.1563,287.125 Q458.6563,287.7188 457.8594,288.0469 Q456.8125,288.5 455.5313,288.5 Q454.0313,288.5 452.8281,287.9063 Q451.8594,287.4375 451.1719,286.4219 Q450.5,285.4063 450.5,284.2031 L450.5,283.1094 Q450.5,281.8594 451.0938,280.7656 Q451.7031,279.6719 452.75,279.0938 Q453.8125,278.5 455,278.5 Q455.7188,278.5 456.3438,278.75 Q456.9688,279 457.5,279.5 Z " fill="#000000"/><text fill="#000000" font-family="sans-serif" font-size="12" lengthAdjust="spacingAndGlyphs" textLength="73" x="469.5" y="287.9102">UserSession</text><line style="stroke:#A80036;stroke-width:1.5;" x1="441.5" x2="544.5" y1="299" y2="299"/><line style="stroke:#A80036;stroke-width:1.5;" x1="441.5" x2="544.5" y1="307" y2="307"/><text fill="#000000" font-family="sans-serif" font-size="11" lengthAdjust="spacingAndGlyphs" textLength="76" x="446.5" y="322.4189">+getUserEmail()</text><!--MD5=[67ef8feff7a9606170138fd760099c10]
link Platform to CourierRegistration--><path codeLine="64" d="M133.66,343.05 C142.19,367.06 152.72,396.7 161.27,420.75 " fill="none" id="Platform-CourierRegistration" style="stroke:#A80036;stroke-width:1.0;"/><polygon fill="#000000" points="156.6742,386.8872,156.4149,377.3801,150.8763,379.3482,156.6742,386.8872" style="stroke:#000000;stroke-width:1.0;"/><text fill="#000000" font-family="sans-serif" font-size="13" lengthAdjust="spacingAndGlyphs" textLength="21" x="164" y="387.4951">has</text><text fill="#000000" font-family="sans-serif" font-size="13" lengthAdjust="spacingAndGlyphs" textLength="7" x="128.37" y="364.0646">1</text><text fill="#000000" font-family="sans-serif" font-size="13" lengthAdjust="spacingAndGlyphs" textLength="7" x="151.3254" y="410.1558">1</text><!--MD5=[8592f23fbb2cfe4da0e165624efe0768]
link CourierRegistration to Courier--><path codeLine="66" d="M177,511.2 C177,534.36 177,563.16 177,588.78 " fill="none" id="CourierRegistration-Courier" style="stroke:#A80036;stroke-width:1.0;"/><text fill="#000000" font-family="sans-serif" font-size="13" lengthAdjust="spacingAndGlyphs" textLength="176" x="178" y="555.4951">creates and adds to DataBase</text><text fill="#000000" font-family="sans-serif" font-size="13" lengthAdjust="spacingAndGlyphs" textLength="7" x="169.5297" y="531.9006">1</text><text fill="#000000" font-family="sans-serif" font-size="13" lengthAdjust="spacingAndGlyphs" textLength="7" x="169.6172" y="578.2304">1</text><!--MD5=[fbe36f4f0629c0e5b3af8fecd61c50b1]
link RegisterCourierUI to RegisterCourierController--><path codeLine="68" d="M291,55.04 C291,70.71 291,91.91 291,110.58 " fill="none" id="RegisterCourierUI-to-RegisterCourierController" style="stroke:#A80036;stroke-width:1.0;stroke-dasharray:7.0,7.0;"/><polygon fill="#A80036" points="291,115.77,295,106.77,291,110.77,287,106.77,291,115.77" style="stroke:#A80036;stroke-width:1.0;"/><!--MD5=[216a4a785881ea8fb285cd6d0dfc805d]
link RegisterCourierController to Platform--><path codeLine="70" d="M245.55,192.31 C224.16,209.86 198.41,231 175.67,249.67 " fill="none" id="RegisterCourierController-to-Platform" style="stroke:#A80036;stroke-width:1.0;stroke-dasharray:7.0,7.0;"/><polygon fill="#A80036" points="171.75,252.88,181.247,250.271,175.6179,249.7115,176.1774,244.0824,171.75,252.88" style="stroke:#A80036;stroke-width:1.0;"/><!--MD5=[954835742766dfb6b7bb4908b7bf46f0]
link RegisterCourierController to CourierRegistration--><path codeLine="71" d="M277.36,192.09 C256.8,248 217.84,353.95 194.98,416.11 " fill="none" id="RegisterCourierController-to-CourierRegistration" style="stroke:#A80036;stroke-width:1.0;stroke-dasharray:7.0,7.0;"/><polygon fill="#A80036" points="193.22,420.88,200.0687,413.8022,194.9379,416.1844,192.5557,411.0536,193.22,420.88" style="stroke:#A80036;stroke-width:1.0;"/><!--MD5=[ebb55f0977e53fc23b51b8b7d1a0d0f6]
link RegisterCourierController to PotApplication--><path codeLine="72" d="M305.71,192.31 C312.41,209.28 320.42,229.6 327.6,247.81 " fill="none" id="RegisterCourierController-to-PotApplication" style="stroke:#A80036;stroke-width:1.0;stroke-dasharray:7.0,7.0;"/><polygon fill="#A80036" points="329.6,252.88,330.0237,243.0403,327.7678,248.2278,322.5802,245.9719,329.6,252.88" style="stroke:#A80036;stroke-width:1.0;"/><!--MD5=[65539c1db3ff1ac3374e7a2ed56d0548]
link RegisterCourierController to UserSession--><path codeLine="73" d="M343.81,192.12 C375.34,214.29 415.06,242.21 445.58,263.67 " fill="none" id="RegisterCourierController-to-UserSession" style="stroke:#A80036;stroke-width:1.0;stroke-dasharray:7.0,7.0;"/><polygon fill="#A80036" points="450.02,266.78,444.9566,258.3324,445.9292,263.905,440.3566,264.8776,450.02,266.78" style="stroke:#A80036;stroke-width:1.0;"/><!--MD5=[82f669ff494fd69460f2ac20154402f0]
link Courier to Address--><path codeLine="75" d="M177,720.29 C177,744.77 177,772.76 177,797.84 " fill="none" id="Courier-Address" style="stroke:#A80036;stroke-width:1.0;"/><polygon fill="#000000" points="182,764.1758,184.9389,755.1307,179.0611,755.1307,182,764.1758" style="stroke:#000000;stroke-width:1.0;"/><text fill="#000000" font-family="sans-serif" font-size="13" lengthAdjust="spacingAndGlyphs" textLength="21" x="191" y="764.4951">has</text><text fill="#000000" font-family="sans-serif" font-size="13" lengthAdjust="spacingAndGlyphs" textLength="7" x="169.6391" y="741.412">1</text><text fill="#000000" font-family="sans-serif" font-size="13" lengthAdjust="spacingAndGlyphs" textLength="7" x="169.6391" y="787.0428">1</text><!--MD5=[ddd2ab09845641ea7788092d75b15d13]
@startuml
skinparam classAttributeIconSize 0


class RegisterCourierUI {
    
}

class RegisterCourierController {
    
  +newCourier(id, name, email, nif, iban, address)
  +registersCourier()
}

class Platform {
  -String strDesignation
  +getCourReg()
  +CourierDB getCourDB()
}

class CourierRegistration {

  +generatePassword()
  +Courier newCourier(name, email, nif, iban, address)
  +registersCourier(courier)

}


class Courier {
    -int id
    -String name
    -int nif
    -String iban

   +Courier(name, email, password, nif, iban, address)
   +Courier(id, name, email, password, nif, iban, address)

}

class Address{
 -String fullAddress
 -String postalCode
 -String locality
 -String country
 -float longitude
 -float latitude

  +Address(fullAddress,postalCode,locality,country,longitude,latitude)

}

class PotApplication
{
  +static getInstance()
  +getPlatform()
  +getCurrentSession()
}

class UserSession
{
  +getUserEmail()
}

Platform "1" - - "1" CourierRegistration: has >

CourierRegistration "1" - - "1" Courier : creates and adds to DataBase

RegisterCourierUI ..> RegisterCourierController

RegisterCourierController ..> Platform
RegisterCourierController ..> CourierRegistration
RegisterCourierController ..> PotApplication
RegisterCourierController ..> UserSession

Courier "1" - - "1" Address: has  >

@enduml

PlantUML version 1.2020.23(Sun Dec 13 19:14:58 GMT 2020)
(GPL source distribution)
Java Runtime: OpenJDK Runtime Environment
JVM: OpenJDK 64-Bit Server VM
Default Encoding: Cp1252
Language: pt
Country: PT
--></g></svg>