<?xml version="1.0" encoding="UTF-8" standalone="no"?><svg xmlns="http://www.w3.org/2000/svg" xmlns:xlink="http://www.w3.org/1999/xlink" contentScriptType="application/ecmascript" contentStyleType="text/css" height="1066px" preserveAspectRatio="none" style="width:718px;height:1066px;" version="1.1" viewBox="0 0 718 1066" width="718px" zoomAndPan="magnify"><defs><filter height="300%" id="f1b9k8ft3lrc2r" width="300%" x="-1" y="-1"><feGaussianBlur result="blurOut" stdDeviation="2.0"/><feColorMatrix in="blurOut" result="blurOut2" type="matrix" values="0 0 0 0 0 0 0 0 0 0 0 0 0 0 0 0 0 0 .4 0"/><feOffset dx="4.0" dy="4.0" in="blurOut2" result="blurOut3"/><feBlend in="SourceGraphic" in2="blurOut3" mode="normal"/></filter></defs><g><!--MD5=[9681dc6e01e10c6b4fe06895ae94f592]
cluster UI--><polygon fill="#DDDDDD" filter="url(#f1b9k8ft3lrc2r)" points="85,6,105,6,112,29.6094,249,29.6094,249,106,85,106,85,6" style="stroke:#000000;stroke-width:1.5;"/><line style="stroke:#000000;stroke-width:1.5;" x1="85" x2="112" y1="29.6094" y2="29.6094"/><text fill="#000000" font-family="sans-serif" font-size="14" font-weight="bold" lengthAdjust="spacingAndGlyphs" textLength="14" x="89" y="22.5332">UI</text><!--MD5=[10ea673caf457862023e152271927b45]
cluster controller--><polygon fill="#DDDDDD" filter="url(#f1b9k8ft3lrc2r)" points="16,139,91,139,98,162.6094,305,162.6094,305,433,16,433,16,139" style="stroke:#000000;stroke-width:1.5;"/><line style="stroke:#000000;stroke-width:1.5;" x1="16" x2="98" y1="162.6094" y2="162.6094"/><text fill="#000000" font-family="sans-serif" font-size="14" font-weight="bold" lengthAdjust="spacingAndGlyphs" textLength="69" x="20" y="155.5332">controller</text><!--MD5=[5d4cd377749310b66bf14896f5cd8d9b]
cluster model--><polygon fill="#DDDDDD" filter="url(#f1b9k8ft3lrc2r)" points="329,298,378,298,385,321.6094,701,321.6094,701,1059,329,1059,329,298" style="stroke:#000000;stroke-width:1.5;"/><line style="stroke:#000000;stroke-width:1.5;" x1="329" x2="385" y1="321.6094" y2="321.6094"/><text fill="#000000" font-family="sans-serif" font-size="14" font-weight="bold" lengthAdjust="spacingAndGlyphs" textLength="43" x="333" y="314.5332">model</text><!--MD5=[3463acad58c6dd4bee6554fcba7014ba]
cluster registration--><polygon fill="#DDDDDD" filter="url(#f1b9k8ft3lrc2r)" points="357,483,445,483,452,506.6094,657,506.6094,657,625,357,625,357,483" style="stroke:#000000;stroke-width:1.5;"/><line style="stroke:#000000;stroke-width:1.5;" x1="357" x2="452" y1="506.6094" y2="506.6094"/><text fill="#000000" font-family="sans-serif" font-size="14" font-weight="bold" lengthAdjust="spacingAndGlyphs" textLength="82" x="361" y="499.5332">registration</text><!--MD5=[c365f98fde6e762b4385e710efedc7b8]
class RegisterCourierUI--><rect codeLine="4" fill="#FEFECE" filter="url(#f1b9k8ft3lrc2r)" height="48" id="RegisterCourierUI" style="stroke:#A80036;stroke-width:1.5;" width="132" x="101" y="42"/><ellipse cx="116" cy="58" fill="#ADD1B2" rx="11" ry="11" style="stroke:#A80036;stroke-width:1.0;"/><path d="M118,54.5 Q118.2031,54 118.4375,53.75 Q118.6719,53.5 118.9375,53.5 Q119.4063,53.5 119.7031,53.7813 Q120,54.0625 120,54.7188 L120,56.2813 Q120,56.9375 119.7188,57.2188 Q119.4375,57.5 119,57.5 Q118.6094,57.5 118.3594,57.3281 Q118.1094,57.1563 118,56.7031 Q117.9531,56.3906 117.7813,56.2188 Q117.4688,55.8906 116.9063,55.7031 Q116.3438,55.5 115.7813,55.5 Q115.0781,55.5 114.4844,55.7813 Q113.9063,56.0625 113.4531,56.6875 Q113,57.3125 113,58.1719 L113,59.0938 Q113,60.125 113.8438,60.8125 Q114.6875,61.5 116.1875,61.5 Q117.0781,61.5 117.7031,61.2969 Q118.0625,61.1875 118.4688,60.8281 Q118.7344,60.625 118.875,60.5625 Q119.0156,60.5 119.1875,60.5 Q119.5156,60.5 119.75,60.7656 Q120,61.0156 120,61.375 Q120,61.7188 119.6563,62.125 Q119.1563,62.7188 118.3594,63.0469 Q117.3125,63.5 116.0313,63.5 Q114.5313,63.5 113.3281,62.9063 Q112.3594,62.4375 111.6719,61.4219 Q111,60.4063 111,59.2031 L111,58.1094 Q111,56.8594 111.5938,55.7656 Q112.2031,54.6719 113.25,54.0938 Q114.3125,53.5 115.5,53.5 Q116.2188,53.5 116.8438,53.75 Q117.4688,54 118,54.5 Z " fill="#000000"/><text fill="#000000" font-family="sans-serif" font-size="12" lengthAdjust="spacingAndGlyphs" textLength="100" x="130" y="62.9102">RegisterCourierUI</text><line style="stroke:#A80036;stroke-width:1.5;" x1="102" x2="232" y1="74" y2="74"/><line style="stroke:#A80036;stroke-width:1.5;" x1="102" x2="232" y1="82" y2="82"/><!--MD5=[4eb0c4884421df88d70952c6803fb262]
class RegisterCourierController--><rect codeLine="9" fill="#FEFECE" filter="url(#f1b9k8ft3lrc2r)" height="75.6719" id="RegisterCourierController" style="stroke:#A80036;stroke-width:1.5;" width="243" x="45.5" y="175"/><ellipse cx="91.75" cy="191" fill="#ADD1B2" rx="11" ry="11" style="stroke:#A80036;stroke-width:1.0;"/><path d="M93.75,187.5 Q93.9531,187 94.1875,186.75 Q94.4219,186.5 94.6875,186.5 Q95.1563,186.5 95.4531,186.7813 Q95.75,187.0625 95.75,187.7188 L95.75,189.2813 Q95.75,189.9375 95.4688,190.2188 Q95.1875,190.5 94.75,190.5 Q94.3594,190.5 94.1094,190.3281 Q93.8594,190.1563 93.75,189.7031 Q93.7031,189.3906 93.5313,189.2188 Q93.2188,188.8906 92.6563,188.7031 Q92.0938,188.5 91.5313,188.5 Q90.8281,188.5 90.2344,188.7813 Q89.6563,189.0625 89.2031,189.6875 Q88.75,190.3125 88.75,191.1719 L88.75,192.0938 Q88.75,193.125 89.5938,193.8125 Q90.4375,194.5 91.9375,194.5 Q92.8281,194.5 93.4531,194.2969 Q93.8125,194.1875 94.2188,193.8281 Q94.4844,193.625 94.625,193.5625 Q94.7656,193.5 94.9375,193.5 Q95.2656,193.5 95.5,193.7656 Q95.75,194.0156 95.75,194.375 Q95.75,194.7188 95.4063,195.125 Q94.9063,195.7188 94.1094,196.0469 Q93.0625,196.5 91.7813,196.5 Q90.2813,196.5 89.0781,195.9063 Q88.1094,195.4375 87.4219,194.4219 Q86.75,193.4063 86.75,192.2031 L86.75,191.1094 Q86.75,189.8594 87.3438,188.7656 Q87.9531,187.6719 89,187.0938 Q90.0625,186.5 91.25,186.5 Q91.9688,186.5 92.5938,186.75 Q93.2188,187 93.75,187.5 Z " fill="#000000"/><text fill="#000000" font-family="sans-serif" font-size="12" lengthAdjust="spacingAndGlyphs" textLength="142" x="112.25" y="195.9102">RegisterCourierController</text><line style="stroke:#A80036;stroke-width:1.5;" x1="46.5" x2="287.5" y1="207" y2="207"/><line style="stroke:#A80036;stroke-width:1.5;" x1="46.5" x2="287.5" y1="215" y2="215"/><text fill="#000000" font-family="sans-serif" font-size="11" lengthAdjust="spacingAndGlyphs" textLength="231" x="51.5" y="230.4189">+newCourier(id, name, email, nif, iban, address)</text><text fill="#000000" font-family="sans-serif" font-size="11" lengthAdjust="spacingAndGlyphs" textLength="92" x="51.5" y="244.2549">+registersCourier()</text><!--MD5=[31a99318d73d92502100859279ac7629]
class PotApplication--><rect codeLine="14" fill="#FEFECE" filter="url(#f1b9k8ft3lrc2r)" height="89.5078" id="PotApplication" style="stroke:#A80036;stroke-width:1.5;" width="116" x="32" y="327"/><ellipse cx="49.7" cy="343" fill="#ADD1B2" rx="11" ry="11" style="stroke:#A80036;stroke-width:1.0;"/><path d="M51.7,339.5 Q51.9031,339 52.1375,338.75 Q52.3719,338.5 52.6375,338.5 Q53.1063,338.5 53.4031,338.7813 Q53.7,339.0625 53.7,339.7188 L53.7,341.2813 Q53.7,341.9375 53.4188,342.2188 Q53.1375,342.5 52.7,342.5 Q52.3094,342.5 52.0594,342.3281 Q51.8094,342.1563 51.7,341.7031 Q51.6531,341.3906 51.4813,341.2188 Q51.1688,340.8906 50.6063,340.7031 Q50.0438,340.5 49.4813,340.5 Q48.7781,340.5 48.1844,340.7813 Q47.6063,341.0625 47.1531,341.6875 Q46.7,342.3125 46.7,343.1719 L46.7,344.0938 Q46.7,345.125 47.5438,345.8125 Q48.3875,346.5 49.8875,346.5 Q50.7781,346.5 51.4031,346.2969 Q51.7625,346.1875 52.1688,345.8281 Q52.4344,345.625 52.575,345.5625 Q52.7156,345.5 52.8875,345.5 Q53.2156,345.5 53.45,345.7656 Q53.7,346.0156 53.7,346.375 Q53.7,346.7188 53.3563,347.125 Q52.8563,347.7188 52.0594,348.0469 Q51.0125,348.5 49.7313,348.5 Q48.2313,348.5 47.0281,347.9063 Q46.0594,347.4375 45.3719,346.4219 Q44.7,345.4063 44.7,344.2031 L44.7,343.1094 Q44.7,341.8594 45.2938,340.7656 Q45.9031,339.6719 46.95,339.0938 Q48.0125,338.5 49.2,338.5 Q49.9188,338.5 50.5438,338.75 Q51.1688,339 51.7,339.5 Z " fill="#000000"/><text fill="#000000" font-family="sans-serif" font-size="12" lengthAdjust="spacingAndGlyphs" textLength="78" x="64.3" y="347.9102">PotApplication</text><line style="stroke:#A80036;stroke-width:1.5;" x1="33" x2="147" y1="359" y2="359"/><line style="stroke:#A80036;stroke-width:1.5;" x1="33" x2="147" y1="367" y2="367"/><text fill="#000000" font-family="sans-serif" font-size="11" lengthAdjust="spacingAndGlyphs" textLength="99" x="38" y="382.4189">+static getInstance()</text><text fill="#000000" font-family="sans-serif" font-size="11" lengthAdjust="spacingAndGlyphs" textLength="68" x="38" y="396.2549">+getPlatform()</text><text fill="#000000" font-family="sans-serif" font-size="11" lengthAdjust="spacingAndGlyphs" textLength="104" x="38" y="410.0908">+getCurrentSession()</text><!--MD5=[c5b08e60048ef1bcd788d24cf324082e]
class UserSession--><rect codeLine="20" fill="#FEFECE" filter="url(#f1b9k8ft3lrc2r)" height="61.8359" id="UserSession" style="stroke:#A80036;stroke-width:1.5;" width="105" x="183.5" y="341"/><ellipse cx="198.5" cy="357" fill="#ADD1B2" rx="11" ry="11" style="stroke:#A80036;stroke-width:1.0;"/><path d="M200.5,353.5 Q200.7031,353 200.9375,352.75 Q201.1719,352.5 201.4375,352.5 Q201.9063,352.5 202.2031,352.7813 Q202.5,353.0625 202.5,353.7188 L202.5,355.2813 Q202.5,355.9375 202.2188,356.2188 Q201.9375,356.5 201.5,356.5 Q201.1094,356.5 200.8594,356.3281 Q200.6094,356.1563 200.5,355.7031 Q200.4531,355.3906 200.2813,355.2188 Q199.9688,354.8906 199.4063,354.7031 Q198.8438,354.5 198.2813,354.5 Q197.5781,354.5 196.9844,354.7813 Q196.4063,355.0625 195.9531,355.6875 Q195.5,356.3125 195.5,357.1719 L195.5,358.0938 Q195.5,359.125 196.3438,359.8125 Q197.1875,360.5 198.6875,360.5 Q199.5781,360.5 200.2031,360.2969 Q200.5625,360.1875 200.9688,359.8281 Q201.2344,359.625 201.375,359.5625 Q201.5156,359.5 201.6875,359.5 Q202.0156,359.5 202.25,359.7656 Q202.5,360.0156 202.5,360.375 Q202.5,360.7188 202.1563,361.125 Q201.6563,361.7188 200.8594,362.0469 Q199.8125,362.5 198.5313,362.5 Q197.0313,362.5 195.8281,361.9063 Q194.8594,361.4375 194.1719,360.4219 Q193.5,359.4063 193.5,358.2031 L193.5,357.1094 Q193.5,355.8594 194.0938,354.7656 Q194.7031,353.6719 195.75,353.0938 Q196.8125,352.5 198,352.5 Q198.7188,352.5 199.3438,352.75 Q199.9688,353 200.5,353.5 Z " fill="#000000"/><text fill="#000000" font-family="sans-serif" font-size="12" lengthAdjust="spacingAndGlyphs" textLength="73" x="212.5" y="361.9102">UserSession</text><line style="stroke:#A80036;stroke-width:1.5;" x1="184.5" x2="287.5" y1="373" y2="373"/><line style="stroke:#A80036;stroke-width:1.5;" x1="184.5" x2="287.5" y1="381" y2="381"/><text fill="#000000" font-family="sans-serif" font-size="11" lengthAdjust="spacingAndGlyphs" textLength="76" x="189.5" y="396.4189">+getUserEmail()</text><!--MD5=[99b8db98afdc2c8404e39242ef4c1e65]
class Platform--><rect codeLine="26" fill="#FEFECE" filter="url(#f1b9k8ft3lrc2r)" height="75.6719" id="Platform" style="stroke:#A80036;stroke-width:1.5;" width="116" x="345" y="334"/><ellipse cx="377.1" cy="350" fill="#ADD1B2" rx="11" ry="11" style="stroke:#A80036;stroke-width:1.0;"/><path d="M379.1,346.5 Q379.3031,346 379.5375,345.75 Q379.7719,345.5 380.0375,345.5 Q380.5063,345.5 380.8031,345.7813 Q381.1,346.0625 381.1,346.7188 L381.1,348.2813 Q381.1,348.9375 380.8188,349.2188 Q380.5375,349.5 380.1,349.5 Q379.7094,349.5 379.4594,349.3281 Q379.2094,349.1563 379.1,348.7031 Q379.0531,348.3906 378.8813,348.2188 Q378.5688,347.8906 378.0063,347.7031 Q377.4438,347.5 376.8813,347.5 Q376.1781,347.5 375.5844,347.7813 Q375.0063,348.0625 374.5531,348.6875 Q374.1,349.3125 374.1,350.1719 L374.1,351.0938 Q374.1,352.125 374.9438,352.8125 Q375.7875,353.5 377.2875,353.5 Q378.1781,353.5 378.8031,353.2969 Q379.1625,353.1875 379.5688,352.8281 Q379.8344,352.625 379.975,352.5625 Q380.1156,352.5 380.2875,352.5 Q380.6156,352.5 380.85,352.7656 Q381.1,353.0156 381.1,353.375 Q381.1,353.7188 380.7563,354.125 Q380.2563,354.7188 379.4594,355.0469 Q378.4125,355.5 377.1313,355.5 Q375.6313,355.5 374.4281,354.9063 Q373.4594,354.4375 372.7719,353.4219 Q372.1,352.4063 372.1,351.2031 L372.1,350.1094 Q372.1,348.8594 372.6938,347.7656 Q373.3031,346.6719 374.35,346.0938 Q375.4125,345.5 376.6,345.5 Q377.3188,345.5 377.9438,345.75 Q378.5688,346 379.1,346.5 Z " fill="#000000"/><text fill="#000000" font-family="sans-serif" font-size="12" lengthAdjust="spacingAndGlyphs" textLength="46" x="394.9" y="354.9102">Platform</text><line style="stroke:#A80036;stroke-width:1.5;" x1="346" x2="460" y1="366" y2="366"/><text fill="#000000" font-family="sans-serif" font-size="11" lengthAdjust="spacingAndGlyphs" textLength="104" x="351" y="381.4189">-String strDesignation</text><line style="stroke:#A80036;stroke-width:1.5;" x1="346" x2="460" y1="387.8359" y2="387.8359"/><text fill="#000000" font-family="sans-serif" font-size="11" lengthAdjust="spacingAndGlyphs" textLength="71" x="351" y="403.2549">+getCourReg()</text><!--MD5=[c6a2171c11447acbe08a3dfeee0e1710]
class Courier--><rect codeLine="31" fill="#FEFECE" filter="url(#f1b9k8ft3lrc2r)" height="131.0156" id="Courier" style="stroke:#A80036;stroke-width:1.5;" width="277" x="372.5" y="689"/><ellipse cx="486.25" cy="705" fill="#ADD1B2" rx="11" ry="11" style="stroke:#A80036;stroke-width:1.0;"/><path d="M488.25,701.5 Q488.4531,701 488.6875,700.75 Q488.9219,700.5 489.1875,700.5 Q489.6563,700.5 489.9531,700.7813 Q490.25,701.0625 490.25,701.7188 L490.25,703.2813 Q490.25,703.9375 489.9688,704.2188 Q489.6875,704.5 489.25,704.5 Q488.8594,704.5 488.6094,704.3281 Q488.3594,704.1563 488.25,703.7031 Q488.2031,703.3906 488.0313,703.2188 Q487.7188,702.8906 487.1563,702.7031 Q486.5938,702.5 486.0313,702.5 Q485.3281,702.5 484.7344,702.7813 Q484.1563,703.0625 483.7031,703.6875 Q483.25,704.3125 483.25,705.1719 L483.25,706.0938 Q483.25,707.125 484.0938,707.8125 Q484.9375,708.5 486.4375,708.5 Q487.3281,708.5 487.9531,708.2969 Q488.3125,708.1875 488.7188,707.8281 Q488.9844,707.625 489.125,707.5625 Q489.2656,707.5 489.4375,707.5 Q489.7656,707.5 490,707.7656 Q490.25,708.0156 490.25,708.375 Q490.25,708.7188 489.9063,709.125 Q489.4063,709.7188 488.6094,710.0469 Q487.5625,710.5 486.2813,710.5 Q484.7813,710.5 483.5781,709.9063 Q482.6094,709.4375 481.9219,708.4219 Q481.25,707.4063 481.25,706.2031 L481.25,705.1094 Q481.25,703.8594 481.8438,702.7656 Q482.4531,701.6719 483.5,701.0938 Q484.5625,700.5 485.75,700.5 Q486.4688,700.5 487.0938,700.75 Q487.7188,701 488.25,701.5 Z " fill="#000000"/><text fill="#000000" font-family="sans-serif" font-size="12" lengthAdjust="spacingAndGlyphs" textLength="41" x="506.75" y="709.9102">Courier</text><line style="stroke:#A80036;stroke-width:1.5;" x1="373.5" x2="648.5" y1="721" y2="721"/><text fill="#000000" font-family="sans-serif" font-size="11" lengthAdjust="spacingAndGlyphs" textLength="26" x="378.5" y="736.4189">-int id</text><text fill="#000000" font-family="sans-serif" font-size="11" lengthAdjust="spacingAndGlyphs" textLength="61" x="378.5" y="750.2549">-String name</text><text fill="#000000" font-family="sans-serif" font-size="11" lengthAdjust="spacingAndGlyphs" textLength="30" x="378.5" y="764.0908">-int nif</text><text fill="#000000" font-family="sans-serif" font-size="11" lengthAdjust="spacingAndGlyphs" textLength="55" x="378.5" y="777.9268">-String iban</text><line style="stroke:#A80036;stroke-width:1.5;" x1="373.5" x2="648.5" y1="784.3438" y2="784.3438"/><text fill="#000000" font-family="sans-serif" font-size="11" lengthAdjust="spacingAndGlyphs" textLength="251" x="378.5" y="799.7627">+Courier(name, email, password, nif, iban, address)</text><text fill="#000000" font-family="sans-serif" font-size="11" lengthAdjust="spacingAndGlyphs" textLength="265" x="378.5" y="813.5986">+Courier(id, name, email, password, nif, iban, address)</text><!--MD5=[0f39e4cb6f03951afbf6d14bd2505654]
class Address--><rect codeLine="42" fill="#FEFECE" filter="url(#f1b9k8ft3lrc2r)" height="144.8516" id="Address" style="stroke:#A80036;stroke-width:1.5;" width="340" x="345" y="898"/><ellipse cx="487.75" cy="914" fill="#ADD1B2" rx="11" ry="11" style="stroke:#A80036;stroke-width:1.0;"/><path d="M489.75,910.5 Q489.9531,910 490.1875,909.75 Q490.4219,909.5 490.6875,909.5 Q491.1563,909.5 491.4531,909.7813 Q491.75,910.0625 491.75,910.7188 L491.75,912.2813 Q491.75,912.9375 491.4688,913.2188 Q491.1875,913.5 490.75,913.5 Q490.3594,913.5 490.1094,913.3281 Q489.8594,913.1563 489.75,912.7031 Q489.7031,912.3906 489.5313,912.2188 Q489.2188,911.8906 488.6563,911.7031 Q488.0938,911.5 487.5313,911.5 Q486.8281,911.5 486.2344,911.7813 Q485.6563,912.0625 485.2031,912.6875 Q484.75,913.3125 484.75,914.1719 L484.75,915.0938 Q484.75,916.125 485.5938,916.8125 Q486.4375,917.5 487.9375,917.5 Q488.8281,917.5 489.4531,917.2969 Q489.8125,917.1875 490.2188,916.8281 Q490.4844,916.625 490.625,916.5625 Q490.7656,916.5 490.9375,916.5 Q491.2656,916.5 491.5,916.7656 Q491.75,917.0156 491.75,917.375 Q491.75,917.7188 491.4063,918.125 Q490.9063,918.7188 490.1094,919.0469 Q489.0625,919.5 487.7813,919.5 Q486.2813,919.5 485.0781,918.9063 Q484.1094,918.4375 483.4219,917.4219 Q482.75,916.4063 482.75,915.2031 L482.75,914.1094 Q482.75,912.8594 483.3438,911.7656 Q483.9531,910.6719 485,910.0938 Q486.0625,909.5 487.25,909.5 Q487.9688,909.5 488.5938,909.75 Q489.2188,910 489.75,910.5 Z " fill="#000000"/><text fill="#000000" font-family="sans-serif" font-size="12" lengthAdjust="spacingAndGlyphs" textLength="46" x="508.25" y="918.9102">Address</text><line style="stroke:#A80036;stroke-width:1.5;" x1="346" x2="684" y1="930" y2="930"/><text fill="#000000" font-family="sans-serif" font-size="11" lengthAdjust="spacingAndGlyphs" textLength="91" x="351" y="945.4189">-String fullAddress</text><text fill="#000000" font-family="sans-serif" font-size="11" lengthAdjust="spacingAndGlyphs" textLength="89" x="351" y="959.2549">-String postalCode</text><text fill="#000000" font-family="sans-serif" font-size="11" lengthAdjust="spacingAndGlyphs" textLength="68" x="351" y="973.0908">-String locality</text><text fill="#000000" font-family="sans-serif" font-size="11" lengthAdjust="spacingAndGlyphs" textLength="72" x="351" y="986.9268">-String country</text><text fill="#000000" font-family="sans-serif" font-size="11" lengthAdjust="spacingAndGlyphs" textLength="71" x="351" y="1000.7627">-float longitude</text><text fill="#000000" font-family="sans-serif" font-size="11" lengthAdjust="spacingAndGlyphs" textLength="62" x="351" y="1014.5986">-float latitude</text><line style="stroke:#A80036;stroke-width:1.5;" x1="346" x2="684" y1="1021.0156" y2="1021.0156"/><text fill="#000000" font-family="sans-serif" font-size="11" lengthAdjust="spacingAndGlyphs" textLength="328" x="351" y="1036.4346">+Address(fullAddress,postalCode,locality,country,longitude,latitude)</text><!--MD5=[fed1add0081d3c7b1127626c78d8052e]
class CourierRegistration--><rect codeLine="55" fill="#FEFECE" filter="url(#f1b9k8ft3lrc2r)" height="89.5078" id="CourierRegistration" style="stroke:#A80036;stroke-width:1.5;" width="267" x="373.5" y="519"/><ellipse cx="448.75" cy="535" fill="#ADD1B2" rx="11" ry="11" style="stroke:#A80036;stroke-width:1.0;"/><path d="M450.75,531.5 Q450.9531,531 451.1875,530.75 Q451.4219,530.5 451.6875,530.5 Q452.1563,530.5 452.4531,530.7813 Q452.75,531.0625 452.75,531.7188 L452.75,533.2813 Q452.75,533.9375 452.4688,534.2188 Q452.1875,534.5 451.75,534.5 Q451.3594,534.5 451.1094,534.3281 Q450.8594,534.1563 450.75,533.7031 Q450.7031,533.3906 450.5313,533.2188 Q450.2188,532.8906 449.6563,532.7031 Q449.0938,532.5 448.5313,532.5 Q447.8281,532.5 447.2344,532.7813 Q446.6563,533.0625 446.2031,533.6875 Q445.75,534.3125 445.75,535.1719 L445.75,536.0938 Q445.75,537.125 446.5938,537.8125 Q447.4375,538.5 448.9375,538.5 Q449.8281,538.5 450.4531,538.2969 Q450.8125,538.1875 451.2188,537.8281 Q451.4844,537.625 451.625,537.5625 Q451.7656,537.5 451.9375,537.5 Q452.2656,537.5 452.5,537.7656 Q452.75,538.0156 452.75,538.375 Q452.75,538.7188 452.4063,539.125 Q451.9063,539.7188 451.1094,540.0469 Q450.0625,540.5 448.7813,540.5 Q447.2813,540.5 446.0781,539.9063 Q445.1094,539.4375 444.4219,538.4219 Q443.75,537.4063 443.75,536.2031 L443.75,535.1094 Q443.75,533.8594 444.3438,532.7656 Q444.9531,531.6719 446,531.0938 Q447.0625,530.5 448.25,530.5 Q448.9688,530.5 449.5938,530.75 Q450.2188,531 450.75,531.5 Z " fill="#000000"/><text fill="#000000" font-family="sans-serif" font-size="12" lengthAdjust="spacingAndGlyphs" textLength="108" x="469.25" y="539.9102">CourierRegistration</text><line style="stroke:#A80036;stroke-width:1.5;" x1="374.5" x2="639.5" y1="551" y2="551"/><line style="stroke:#A80036;stroke-width:1.5;" x1="374.5" x2="639.5" y1="559" y2="559"/><text fill="#000000" font-family="sans-serif" font-size="11" lengthAdjust="spacingAndGlyphs" textLength="107" x="379.5" y="574.4189">+generatePassword()</text><text fill="#000000" font-family="sans-serif" font-size="11" lengthAdjust="spacingAndGlyphs" textLength="255" x="379.5" y="588.2549">+Courier newCourier(name, email, nif, iban, address)</text><text fill="#000000" font-family="sans-serif" font-size="11" lengthAdjust="spacingAndGlyphs" textLength="126" x="379.5" y="602.0908">+registersCourier(courier)</text><!--MD5=[67ef8feff7a9606170138fd760099c10]
link Platform to CourierRegistration--><path codeLine="71" d="M421.98,410.24 C430.93,427.58 441.85,448.43 452,467 C461.31,484.02 471.83,502.56 481.16,518.76 " fill="none" id="Platform-CourierRegistration" style="stroke:#A80036;stroke-width:1.0;"/><polygon fill="#000000" points="459.3939,462.5655,457.6435,453.2174,452.4831,456.0315,459.3939,462.5655" style="stroke:#000000;stroke-width:1.0;"/><text fill="#000000" font-family="sans-serif" font-size="13" lengthAdjust="spacingAndGlyphs" textLength="21" x="466" y="463.4951">has</text><text fill="#000000" font-family="sans-serif" font-size="13" lengthAdjust="spacingAndGlyphs" textLength="7" x="417.4471" y="431.1588">1</text><text fill="#000000" font-family="sans-serif" font-size="13" lengthAdjust="spacingAndGlyphs" textLength="7" x="469.6673" y="508.1673">1</text><!--MD5=[8592f23fbb2cfe4da0e165624efe0768]
link CourierRegistration to Courier--><path codeLine="73" d="M507.94,609.19 C508.44,632.92 509.07,662.6 509.63,688.87 " fill="none" id="CourierRegistration-Courier" style="stroke:#A80036;stroke-width:1.0;"/><text fill="#000000" font-family="sans-serif" font-size="13" lengthAdjust="spacingAndGlyphs" textLength="176" x="509" y="655.4951">creates and adds to DataBase</text><text fill="#000000" font-family="sans-serif" font-size="13" lengthAdjust="spacingAndGlyphs" textLength="7" x="500.596" y="629.8892">1</text><text fill="#000000" font-family="sans-serif" font-size="13" lengthAdjust="spacingAndGlyphs" textLength="7" x="502.0973" y="678.3302">1</text><!--MD5=[fbe36f4f0629c0e5b3af8fecd61c50b1]
link RegisterCourierUI to RegisterCourierController--><path codeLine="75" d="M167,90.3 C167,111.69 167,143.89 167,169.81 " fill="none" id="RegisterCourierUI-to-RegisterCourierController" style="stroke:#A80036;stroke-width:1.0;stroke-dasharray:7.0,7.0;"/><polygon fill="#A80036" points="167,174.9,171,165.9,167,169.9,163,165.9,167,174.9" style="stroke:#A80036;stroke-width:1.0;"/><!--MD5=[216a4a785881ea8fb285cd6d0dfc805d]
link RegisterCourierController to Platform--><path codeLine="77" d="M240.5,251.16 C261.8,262.81 284.76,276.24 305,290 C322.84,302.13 341.34,316.8 357.39,330.3 " fill="none" id="RegisterCourierController-to-Platform" style="stroke:#A80036;stroke-width:1.0;stroke-dasharray:7.0,7.0;"/><polygon fill="#A80036" points="361.42,333.71,357.1184,324.8502,357.5977,330.4867,351.9611,330.9659,361.42,333.71" style="stroke:#A80036;stroke-width:1.0;"/><!--MD5=[954835742766dfb6b7bb4908b7bf46f0]
link RegisterCourierController to CourierRegistration--><path codeLine="78" d="M288.5,227.22 C369.48,238.75 465.7,258.65 492,290 C544.37,352.43 533.25,453.9 520.24,513.97 " fill="none" id="RegisterCourierController-to-CourierRegistration" style="stroke:#A80036;stroke-width:1.0;stroke-dasharray:7.0,7.0;"/><polygon fill="#A80036" points="519.14,518.94,524.9971,511.022,520.2247,514.0591,517.1876,509.2866,519.14,518.94" style="stroke:#A80036;stroke-width:1.0;"/><!--MD5=[ebb55f0977e53fc23b51b8b7d1a0d0f6]
link RegisterCourierController to PotApplication--><path codeLine="79" d="M148.75,251.21 C138.33,272.46 125.14,299.36 113.9,322.28 " fill="none" id="RegisterCourierController-to-PotApplication" style="stroke:#A80036;stroke-width:1.0;stroke-dasharray:7.0,7.0;"/><polygon fill="#A80036" points="111.67,326.81,119.2244,320.4909,113.8717,322.3208,112.0417,316.9682,111.67,326.81" style="stroke:#A80036;stroke-width:1.0;"/><!--MD5=[65539c1db3ff1ac3374e7a2ed56d0548]
link RegisterCourierController to UserSession--><path codeLine="80" d="M183.35,251.21 C194.68,276.99 209.66,311.07 220.75,336.29 " fill="none" id="RegisterCourierController-to-UserSession" style="stroke:#A80036;stroke-width:1.0;stroke-dasharray:7.0,7.0;"/><polygon fill="#A80036" points="222.77,340.89,222.8128,331.0412,220.7592,336.3122,215.4882,334.2586,222.77,340.89" style="stroke:#A80036;stroke-width:1.0;"/><!--MD5=[82f669ff494fd69460f2ac20154402f0]
link Courier to Address--><path codeLine="82" d="M512.21,820.29 C512.67,844.77 513.19,872.76 513.66,897.84 " fill="none" id="Courier-Address" style="stroke:#A80036;stroke-width:1.0;"/><polygon fill="#000000" points="518.0935,864.1749,520.8628,855.0765,514.986,855.1863,518.0935,864.1749" style="stroke:#000000;stroke-width:1.0;"/><text fill="#000000" font-family="sans-serif" font-size="13" lengthAdjust="spacingAndGlyphs" textLength="21" x="527" y="864.4951">has</text><text fill="#000000" font-family="sans-serif" font-size="13" lengthAdjust="spacingAndGlyphs" textLength="7" x="504.9738" y="841.412">1</text><text fill="#000000" font-family="sans-serif" font-size="13" lengthAdjust="spacingAndGlyphs" textLength="7" x="506.1609" y="887.0428">1</text><!--MD5=[266fa926c35622527779da91b2dc5a04]
@startuml
skinparam classAttributeIconSize 0

package "UI" #DDDDDD{
class RegisterCourierUI {
    
}
}
package "controller" #DDDDDD{
class RegisterCourierController {
    
  +newCourier(id, name, email, nif, iban, address)
  +registersCourier()
}
class PotApplication
  {
    +static getInstance()
    +getPlatform()
    +getCurrentSession()
  }
class UserSession
  {
    +getUserEmail()
  }
}
package "model" #DDDDDD{
class Platform {
  -String strDesignation
  +getCourReg()
}

class Courier {
    -int id
    -String name
    -int nif
    -String iban

   +Courier(name, email, password, nif, iban, address)
   +Courier(id, name, email, password, nif, iban, address)

}

class Address{
  -String fullAddress
  -String postalCode
  -String locality
  -String country
  -float longitude
  -float latitude

   +Address(fullAddress,postalCode,locality,country,longitude,latitude)

 }

  package "registration" #DDDDDD{
class CourierRegistration {

  +generatePassword()
  +Courier newCourier(name, email, nif, iban, address)
  +registersCourier(courier)

}
}
}







Platform "1" - - "1" CourierRegistration: has >

CourierRegistration "1" - - "1" Courier : creates and adds to DataBase

RegisterCourierUI ..> RegisterCourierController

RegisterCourierController ..> Platform
RegisterCourierController ..> CourierRegistration
RegisterCourierController ..> PotApplication
RegisterCourierController ..> UserSession

Courier "1" - - "1" Address: has  >

@enduml

PlantUML version 1.2020.23(Sun Dec 13 19:14:58 GMT 2020)
(GPL source distribution)
Java Runtime: OpenJDK Runtime Environment
JVM: OpenJDK 64-Bit Server VM
Default Encoding: Cp1252
Language: pt
Country: PT
--></g></svg>