<?xml version="1.0" encoding="UTF-8" standalone="no"?><svg xmlns="http://www.w3.org/2000/svg" xmlns:xlink="http://www.w3.org/1999/xlink" contentScriptType="application/ecmascript" contentStyleType="text/css" height="130px" preserveAspectRatio="none" style="width:376px;height:130px;" version="1.1" viewBox="0 0 376 130" width="376px" zoomAndPan="magnify"><defs><filter height="300%" id="fc19lrcgr5gr3" width="300%" x="-1" y="-1"><feGaussianBlur result="blurOut" stdDeviation="2.0"/><feColorMatrix in="blurOut" result="blurOut2" type="matrix" values="0 0 0 0 0 0 0 0 0 0 0 0 0 0 0 0 0 0 .4 0"/><feOffset dx="4.0" dy="4.0" in="blurOut2" result="blurOut3"/><feBlend in="SourceGraphic" in2="blurOut3" mode="normal"/></filter></defs><g><!--MD5=[fa1e3283224feb76407c84b7e90ed808]
entity Database--><path d="M6,48 C6,38 46.5,38 46.5,38 C46.5,38 87,38 87,48 L87,74.6094 C87,84.6094 46.5,84.6094 46.5,84.6094 C46.5,84.6094 6,84.6094 6,74.6094 L6,48 " fill="#FFFFFF" filter="url(#fc19lrcgr5gr3)" style="stroke:#000000;stroke-width:1.5;"/><path d="M6,48 C6,58 46.5,58 46.5,58 C46.5,58 87,58 87,48 " fill="none" style="stroke:#000000;stroke-width:1.5;"/><text fill="#000000" font-family="sans-serif" font-size="14" lengthAdjust="spacing" textLength="61" x="16" y="76.5332">Database</text><!--MD5=[72136138052d025cffdce3c22fbd185f]
class Product--><rect codeLine="8" fill="#FEFECE" filter="url(#fc19lrcgr5gr3)" height="109.1797" id="Product" style="stroke:#A80036;stroke-width:1.5;" width="118" x="244" y="7"/><ellipse cx="278.8" cy="23" fill="#ADD1B2" rx="11" ry="11" style="stroke:#A80036;stroke-width:1.0;"/><path d="M280.8,19.5 Q281.0031,19 281.2375,18.75 Q281.4719,18.5 281.7375,18.5 Q282.2063,18.5 282.5031,18.7813 Q282.8,19.0625 282.8,19.7188 L282.8,21.2813 Q282.8,21.9375 282.5188,22.2188 Q282.2375,22.5 281.8,22.5 Q281.4094,22.5 281.1594,22.3281 Q280.9094,22.1563 280.8,21.7031 Q280.7531,21.3906 280.5813,21.2188 Q280.2688,20.8906 279.7063,20.7031 Q279.1438,20.5 278.5813,20.5 Q277.8781,20.5 277.2844,20.7813 Q276.7063,21.0625 276.2531,21.6875 Q275.8,22.3125 275.8,23.1719 L275.8,24.0938 Q275.8,25.125 276.6438,25.8125 Q277.4875,26.5 278.9875,26.5 Q279.8781,26.5 280.5031,26.2969 Q280.8625,26.1875 281.2688,25.8281 Q281.5344,25.625 281.675,25.5625 Q281.8156,25.5 281.9875,25.5 Q282.3156,25.5 282.55,25.7656 Q282.8,26.0156 282.8,26.375 Q282.8,26.7188 282.4563,27.125 Q281.9563,27.7188 281.1594,28.0469 Q280.1125,28.5 278.8313,28.5 Q277.3313,28.5 276.1281,27.9063 Q275.1594,27.4375 274.4719,26.4219 Q273.8,25.4063 273.8,24.2031 L273.8,23.1094 Q273.8,21.8594 274.3938,20.7656 Q275.0031,19.6719 276.05,19.0938 Q277.1125,18.5 278.3,18.5 Q279.0188,18.5 279.6438,18.75 Q280.2688,19 280.8,19.5 Z " fill="#000000"/><text fill="#000000" font-family="sans-serif" font-size="12" lengthAdjust="spacing" textLength="42" x="297.2" y="27.9102">Product</text><line style="stroke:#A80036;stroke-width:1.5;" x1="245" x2="361" y1="39" y2="39"/><text fill="#000000" font-family="sans-serif" font-size="11" lengthAdjust="spacing" textLength="80" x="250" y="54.4189">-String productId</text><text fill="#000000" font-family="sans-serif" font-size="11" lengthAdjust="spacing" textLength="61" x="250" y="68.2549">-String name</text><text fill="#000000" font-family="sans-serif" font-size="11" lengthAdjust="spacing" textLength="88" x="250" y="82.0908">-String description</text><text fill="#000000" font-family="sans-serif" font-size="11" lengthAdjust="spacing" textLength="97" x="250" y="95.9268">-Double unitaryPrice</text><text fill="#000000" font-family="sans-serif" font-size="11" lengthAdjust="spacing" textLength="106" x="250" y="109.7627">-Double unitaryWeight</text><!--MD5=[22f0edd2925765a3c38d923b02900659]
link Database to Product--><path codeLine="16" d="M87.27,61.5 C129.21,61.5 195.72,61.5 243.61,61.5 " fill="none" id="Database-Product" style="stroke:#A80036;stroke-width:1.0;"/><polygon fill="#000000" points="127,52.6758,117.9549,49.7369,117.9549,55.6147,127,52.6758" style="stroke:#000000;stroke-width:1.0;"/><text fill="#000000" font-family="sans-serif" font-size="13" lengthAdjust="spacing" textLength="82" x="131" y="57.9951">has registered</text><text fill="#000000" font-family="sans-serif" font-size="13" lengthAdjust="spacing" textLength="5" x="231.0672" y="75.9806">*</text><!--MD5=[6fb813297e09708505a241636914604e]
@startuml
skinparam classAttributeIconSize 0
hide methods
left to right direction

database Database {
}

class Product{
    -String productId
    -String name
    -String description
    -Double unitaryPrice
    -Double unitaryWeight
}

Database - - "*" Product : has registered >

@enduml

PlantUML version 1.2021.00(Sun Jan 10 10:25:05 GMT 2021)
(GPL source distribution)
Java Runtime: OpenJDK Runtime Environment
JVM: OpenJDK 64-Bit Server VM
Default Encoding: Cp1252
Language: pt
Country: PT
--></g></svg>