<?xml version="1.0" encoding="UTF-8" standalone="no"?><svg xmlns="http://www.w3.org/2000/svg" xmlns:xlink="http://www.w3.org/1999/xlink" contentScriptType="application/ecmascript" contentStyleType="text/css" height="891px" preserveAspectRatio="none" style="width:2641px;height:891px;" version="1.1" viewBox="0 0 2641 891" width="2641px" zoomAndPan="magnify"><defs><filter height="300%" id="f13g1hl5241tyd" width="300%" x="-1" y="-1"><feGaussianBlur result="blurOut" stdDeviation="2.0"/><feColorMatrix in="blurOut" result="blurOut2" type="matrix" values="0 0 0 0 0 0 0 0 0 0 0 0 0 0 0 0 0 0 .4 0"/><feOffset dx="4.0" dy="4.0" in="blurOut2" result="blurOut3"/><feBlend in="SourceGraphic" in2="blurOut3" mode="normal"/></filter></defs><g><rect fill="#FFFFFF" filter="url(#f13g1hl5241tyd)" height="753.3828" style="stroke:#A80036;stroke-width:1.0;" width="10" x="47.5" y="99.6094"/><rect fill="#FFFFFF" filter="url(#f13g1hl5241tyd)" height="30.3516" style="stroke:#A80036;stroke-width:1.0;" width="10" x="677.5" y="121.9609"/><rect fill="#FFFFFF" filter="url(#f13g1hl5241tyd)" height="670.3281" style="stroke:#A80036;stroke-width:1.0;" width="10" x="677.5" y="182.6641"/><rect fill="#FFFFFF" filter="url(#f13g1hl5241tyd)" height="515.7344" style="stroke:#A80036;stroke-width:1.0;" width="10" x="1167.5" y="213.0156"/><rect fill="#FFFFFF" filter="url(#f13g1hl5241tyd)" height="36.6094" style="stroke:#A80036;stroke-width:1.0;" width="10" x="1664.5" y="253.3672"/><rect fill="#FFFFFF" filter="url(#f13g1hl5241tyd)" height="215.7578" style="stroke:#A80036;stroke-width:1.0;" width="10" x="1664.5" y="512.9922"/><rect fill="#FFFFFF" filter="url(#f13g1hl5241tyd)" height="30" style="stroke:#A80036;stroke-width:1.0;" width="10" x="2180.5" y="698.75"/><rect fill="#FFFFFF" filter="url(#f13g1hl5241tyd)" height="30" style="stroke:#A80036;stroke-width:1.0;" width="10" x="2307" y="336.5859"/><rect fill="#FFFFFF" filter="url(#f13g1hl5241tyd)" height="60.3516" style="stroke:#A80036;stroke-width:1.0;" width="10" x="2447" y="396.9375"/><rect fill="#FFFFFF" filter="url(#f13g1hl5241tyd)" height="30" style="stroke:#A80036;stroke-width:1.0;" width="10" x="2577.5" y="427.2891"/><rect fill="#FFFFFF" filter="url(#f13g1hl5241tyd)" height="395.7031" style="stroke:#000000;stroke-width:2.0;" width="2254" x="10" y="472.2891"/><rect fill="#FFFFFF" filter="url(#f13g1hl5241tyd)" height="202.9453" style="stroke:#000000;stroke-width:2.0;" width="2234" x="20" y="658.0469"/><rect fill="#FFFFFF" height="46.1875" style="stroke:none;stroke-width:1.0;" width="2234" x="20" y="814.8047"/><line style="stroke:#A80036;stroke-width:1.0;stroke-dasharray:5.0,5.0;" x1="52" x2="52" y1="89.6094" y2="884.9922"/><line style="stroke:#A80036;stroke-width:1.0;stroke-dasharray:5.0,5.0;" x1="682.5" x2="682.5" y1="89.6094" y2="884.9922"/><line style="stroke:#A80036;stroke-width:1.0;stroke-dasharray:5.0,5.0;" x1="1172.5" x2="1172.5" y1="89.6094" y2="884.9922"/><line style="stroke:#A80036;stroke-width:1.0;stroke-dasharray:5.0,5.0;" x1="1669" x2="1669" y1="254.3203" y2="884.9922"/><line style="stroke:#A80036;stroke-width:1.0;stroke-dasharray:5.0,5.0;" x1="2185" x2="2185" y1="300.9297" y2="884.9922"/><line style="stroke:#A80036;stroke-width:1.0;stroke-dasharray:5.0,5.0;" x1="2312" x2="2312" y1="89.6094" y2="884.9922"/><line style="stroke:#A80036;stroke-width:1.0;stroke-dasharray:5.0,5.0;" x1="2452" x2="2452" y1="89.6094" y2="884.9922"/><line style="stroke:#A80036;stroke-width:1.0;stroke-dasharray:5.0,5.0;" x1="2582" x2="2582" y1="89.6094" y2="884.9922"/><text fill="#000000" font-family="sans-serif" font-size="14" lengthAdjust="spacing" textLength="39" x="30" y="86.5332">Admin</text><ellipse cx="52.5" cy="15" fill="#FEFECE" filter="url(#f13g1hl5241tyd)" rx="8" ry="8" style="stroke:#A80036;stroke-width:2.0;"/><path d="M52.5,23 L52.5,50 M39.5,31 L65.5,31 M52.5,50 L39.5,65 M52.5,50 L65.5,65 " fill="none" filter="url(#f13g1hl5241tyd)" style="stroke:#A80036;stroke-width:2.0;"/><rect fill="#FEFECE" filter="url(#f13g1hl5241tyd)" height="31.6094" style="stroke:#A80036;stroke-width:1.5;" width="120" x="620.5" y="53"/><text fill="#000000" font-family="sans-serif" font-size="14" lengthAdjust="spacing" textLength="106" x="627.5" y="74.5332">UpdateProductUI</text><rect fill="#FEFECE" filter="url(#f13g1hl5241tyd)" height="31.6094" style="stroke:#A80036;stroke-width:1.5;" width="170" x="1085.5" y="53"/><text fill="#000000" font-family="sans-serif" font-size="14" lengthAdjust="spacing" textLength="156" x="1092.5" y="74.5332">UpdateProductController</text><rect fill="#FEFECE" filter="url(#f13g1hl5241tyd)" height="31.6094" style="stroke:#A80036;stroke-width:1.5;" width="112" x="2254" y="53"/><text fill="#000000" font-family="sans-serif" font-size="14" lengthAdjust="spacing" textLength="98" x="2261" y="74.5332">ApplicationPOT</text><rect fill="#FEFECE" filter="url(#f13g1hl5241tyd)" height="31.6094" style="stroke:#A80036;stroke-width:1.5;" width="140" x="2380" y="53"/><text fill="#000000" font-family="sans-serif" font-size="14" lengthAdjust="spacing" textLength="126" x="2387" y="74.5332">app:ApplicationPOT</text><rect fill="#FEFECE" filter="url(#f13g1hl5241tyd)" height="31.6094" style="stroke:#A80036;stroke-width:1.5;" width="93" x="2534" y="53"/><text fill="#000000" font-family="sans-serif" font-size="14" lengthAdjust="spacing" textLength="79" x="2541" y="74.5332">UserSession</text><rect fill="#FFFFFF" filter="url(#f13g1hl5241tyd)" height="753.3828" style="stroke:#A80036;stroke-width:1.0;" width="10" x="47.5" y="99.6094"/><rect fill="#FFFFFF" filter="url(#f13g1hl5241tyd)" height="30.3516" style="stroke:#A80036;stroke-width:1.0;" width="10" x="677.5" y="121.9609"/><rect fill="#FFFFFF" filter="url(#f13g1hl5241tyd)" height="670.3281" style="stroke:#A80036;stroke-width:1.0;" width="10" x="677.5" y="182.6641"/><rect fill="#FFFFFF" filter="url(#f13g1hl5241tyd)" height="515.7344" style="stroke:#A80036;stroke-width:1.0;" width="10" x="1167.5" y="213.0156"/><rect fill="#FFFFFF" filter="url(#f13g1hl5241tyd)" height="36.6094" style="stroke:#A80036;stroke-width:1.0;" width="10" x="1664.5" y="253.3672"/><rect fill="#FFFFFF" filter="url(#f13g1hl5241tyd)" height="215.7578" style="stroke:#A80036;stroke-width:1.0;" width="10" x="1664.5" y="512.9922"/><rect fill="#FFFFFF" filter="url(#f13g1hl5241tyd)" height="30" style="stroke:#A80036;stroke-width:1.0;" width="10" x="2180.5" y="698.75"/><rect fill="#FFFFFF" filter="url(#f13g1hl5241tyd)" height="30" style="stroke:#A80036;stroke-width:1.0;" width="10" x="2307" y="336.5859"/><rect fill="#FFFFFF" filter="url(#f13g1hl5241tyd)" height="60.3516" style="stroke:#A80036;stroke-width:1.0;" width="10" x="2447" y="396.9375"/><rect fill="#FFFFFF" filter="url(#f13g1hl5241tyd)" height="30" style="stroke:#A80036;stroke-width:1.0;" width="10" x="2577.5" y="427.2891"/><polygon fill="#A80036" points="665.5,117.9609,675.5,121.9609,665.5,125.9609,669.5,121.9609" style="stroke:#A80036;stroke-width:1.0;"/><line style="stroke:#A80036;stroke-width:1.0;" x1="57.5" x2="671.5" y1="121.9609" y2="121.9609"/><text fill="#000000" font-family="sans-serif" font-size="13" font-weight="bold" lengthAdjust="spacing" textLength="7" x="64.5" y="117.1045">1</text><text fill="#000000" font-family="sans-serif" font-size="13" lengthAdjust="spacing" textLength="246" x="75.5" y="117.1045">Engages the update product feature/button</text><polygon fill="#A80036" points="68.5,148.3125,58.5,152.3125,68.5,156.3125,64.5,152.3125" style="stroke:#A80036;stroke-width:1.0;"/><line style="stroke:#A80036;stroke-width:1.0;stroke-dasharray:2.0,2.0;" x1="62.5" x2="681.5" y1="152.3125" y2="152.3125"/><text fill="#000000" font-family="sans-serif" font-size="13" font-weight="bold" lengthAdjust="spacing" textLength="7" x="74.5" y="147.4561">2</text><text fill="#000000" font-family="sans-serif" font-size="13" lengthAdjust="spacing" textLength="585" x="85.5" y="147.4561">Asks for all the information required for the update (id, name, description, unitaryPrice, unitaryWeight)</text><polygon fill="#A80036" points="665.5,178.6641,675.5,182.6641,665.5,186.6641,669.5,182.6641" style="stroke:#A80036;stroke-width:1.0;"/><line style="stroke:#A80036;stroke-width:1.0;" x1="57.5" x2="671.5" y1="182.6641" y2="182.6641"/><text fill="#000000" font-family="sans-serif" font-size="13" font-weight="bold" lengthAdjust="spacing" textLength="7" x="64.5" y="177.8076">3</text><text fill="#000000" font-family="sans-serif" font-size="13" lengthAdjust="spacing" textLength="180" x="75.5" y="177.8076">Fills all the information required</text><polygon fill="#A80036" points="1155.5,209.0156,1165.5,213.0156,1155.5,217.0156,1159.5,213.0156" style="stroke:#A80036;stroke-width:1.0;"/><line style="stroke:#A80036;stroke-width:1.0;" x1="687.5" x2="1161.5" y1="213.0156" y2="213.0156"/><text fill="#000000" font-family="sans-serif" font-size="13" font-weight="bold" lengthAdjust="spacing" textLength="7" x="694.5" y="208.1592">4</text><text fill="#000000" font-family="sans-serif" font-size="13" lengthAdjust="spacing" textLength="450" x="705.5" y="208.1592">updateProduct(intId, strName, strDescription, fltUnitaryPrice, fltUnitaryWeight)</text><polygon fill="#A80036" points="1580,239.3672,1590,243.3672,1580,247.3672,1584,243.3672" style="stroke:#A80036;stroke-width:1.0;"/><line style="stroke:#A80036;stroke-width:1.0;" x1="1177.5" x2="1586" y1="243.3672" y2="243.3672"/><text fill="#000000" font-family="sans-serif" font-size="13" font-weight="bold" lengthAdjust="spacing" textLength="7" x="1184.5" y="238.5107">5</text><text fill="#000000" font-family="sans-serif" font-size="13" lengthAdjust="spacing" textLength="44" x="1195.5" y="238.5107">create()</text><rect fill="#FEFECE" filter="url(#f13g1hl5241tyd)" height="31.6094" style="stroke:#A80036;stroke-width:1.5;" width="151" x="1592" y="221.0156"/><text fill="#000000" font-family="sans-serif" font-size="14" lengthAdjust="spacing" textLength="137" x="1599" y="242.5488">pServ:ProductService</text><polygon fill="#A80036" points="2115,285.9766,2125,289.9766,2115,293.9766,2119,289.9766" style="stroke:#A80036;stroke-width:1.0;"/><line style="stroke:#A80036;stroke-width:1.0;" x1="1669.5" x2="2121" y1="289.9766" y2="289.9766"/><text fill="#000000" font-family="sans-serif" font-size="13" font-weight="bold" lengthAdjust="spacing" textLength="7" x="1676.5" y="285.1201">6</text><text fill="#000000" font-family="sans-serif" font-size="13" lengthAdjust="spacing" textLength="44" x="1687.5" y="285.1201">create()</text><rect fill="#FEFECE" filter="url(#f13g1hl5241tyd)" height="31.6094" style="stroke:#A80036;stroke-width:1.5;" width="113" x="2127" y="267.625"/><text fill="#000000" font-family="sans-serif" font-size="14" lengthAdjust="spacing" textLength="99" x="2134" y="289.1582">pDB:ProductDB</text><polygon fill="#A80036" points="2295,332.5859,2305,336.5859,2295,340.5859,2299,336.5859" style="stroke:#A80036;stroke-width:1.0;"/><line style="stroke:#A80036;stroke-width:1.0;" x1="1177.5" x2="2301" y1="336.5859" y2="336.5859"/><text fill="#000000" font-family="sans-serif" font-size="13" font-weight="bold" lengthAdjust="spacing" textLength="7" x="1184.5" y="331.7295">7</text><text fill="#000000" font-family="sans-serif" font-size="13" lengthAdjust="spacing" textLength="75" x="1195.5" y="331.7295">getInstance()</text><polygon fill="#A80036" points="2435,392.9375,2445,396.9375,2435,400.9375,2439,396.9375" style="stroke:#A80036;stroke-width:1.0;"/><line style="stroke:#A80036;stroke-width:1.0;" x1="1177.5" x2="2441" y1="396.9375" y2="396.9375"/><text fill="#000000" font-family="sans-serif" font-size="13" font-weight="bold" lengthAdjust="spacing" textLength="7" x="1184.5" y="392.0811">8</text><text fill="#000000" font-family="sans-serif" font-size="13" lengthAdjust="spacing" textLength="115" x="1195.5" y="392.0811">getCurrentSession()</text><polygon fill="#A80036" points="2565.5,423.2891,2575.5,427.2891,2565.5,431.2891,2569.5,427.2891" style="stroke:#A80036;stroke-width:1.0;"/><line style="stroke:#A80036;stroke-width:1.0;" x1="2457" x2="2571.5" y1="427.2891" y2="427.2891"/><text fill="#000000" font-family="sans-serif" font-size="13" font-weight="bold" lengthAdjust="spacing" textLength="7" x="2464" y="422.4326">9</text><text fill="#000000" font-family="sans-serif" font-size="13" lengthAdjust="spacing" textLength="52" x="2475" y="422.4326">getRole()</text><path d="M10,472.2891 L71,472.2891 L71,480.2891 L61,490.2891 L10,490.2891 L10,472.2891 " fill="#EEEEEE" style="stroke:#000000;stroke-width:1.0;"/><rect fill="none" height="395.7031" style="stroke:#000000;stroke-width:2.0;" width="2254" x="10" y="472.2891"/><text fill="#000000" font-family="sans-serif" font-size="13" font-weight="bold" lengthAdjust="spacing" textLength="16" x="25" y="486.7842">alt</text><text fill="#000000" font-family="sans-serif" font-size="11" font-weight="bold" lengthAdjust="spacing" textLength="210" x="86" y="485.708">[if user is authorized (if it's an admin)]</text><polygon fill="#A80036" points="1652.5,508.9922,1662.5,512.9922,1652.5,516.9922,1656.5,512.9922" style="stroke:#A80036;stroke-width:1.0;"/><line style="stroke:#A80036;stroke-width:1.0;" x1="1177.5" x2="1658.5" y1="512.9922" y2="512.9922"/><text fill="#000000" font-family="sans-serif" font-size="13" font-weight="bold" lengthAdjust="spacing" textLength="14" x="1184.5" y="508.1357">10</text><text fill="#000000" font-family="sans-serif" font-size="13" lengthAdjust="spacing" textLength="450" x="1202.5" y="508.1357">updateProduct(intId, strName, strDescription, fltUnitaryPrice, fltUnitaryWeight)</text><line style="stroke:#A80036;stroke-width:1.0;" x1="1674.5" x2="1716.5" y1="543.3438" y2="543.3438"/><line style="stroke:#A80036;stroke-width:1.0;" x1="1716.5" x2="1716.5" y1="543.3438" y2="556.3438"/><line style="stroke:#A80036;stroke-width:1.0;" x1="1675.5" x2="1716.5" y1="556.3438" y2="556.3438"/><polygon fill="#A80036" points="1685.5,552.3438,1675.5,556.3438,1685.5,560.3438,1681.5,556.3438" style="stroke:#A80036;stroke-width:1.0;"/><text fill="#000000" font-family="sans-serif" font-size="13" font-weight="bold" lengthAdjust="spacing" textLength="14" x="1681.5" y="538.4873">11</text><text fill="#000000" font-family="sans-serif" font-size="13" lengthAdjust="spacing" textLength="474" x="1699.5" y="538.4873">validateInputWithId(intId, strName, strDescription, fltUnitaryPrice, fltUnitaryWeight)</text><line style="stroke:#A80036;stroke-width:1.0;" x1="1674.5" x2="1716.5" y1="586.6953" y2="586.6953"/><line style="stroke:#A80036;stroke-width:1.0;" x1="1716.5" x2="1716.5" y1="586.6953" y2="599.6953"/><line style="stroke:#A80036;stroke-width:1.0;" x1="1675.5" x2="1716.5" y1="599.6953" y2="599.6953"/><polygon fill="#A80036" points="1685.5,595.6953,1675.5,599.6953,1685.5,603.6953,1681.5,599.6953" style="stroke:#A80036;stroke-width:1.0;"/><text fill="#000000" font-family="sans-serif" font-size="13" font-weight="bold" lengthAdjust="spacing" textLength="14" x="1681.5" y="581.8389">12</text><text fill="#000000" font-family="sans-serif" font-size="13" lengthAdjust="spacing" textLength="85" x="1699.5" y="581.8389">validateId(intId)</text><line style="stroke:#A80036;stroke-width:1.0;" x1="1674.5" x2="1716.5" y1="630.0469" y2="630.0469"/><line style="stroke:#A80036;stroke-width:1.0;" x1="1716.5" x2="1716.5" y1="630.0469" y2="643.0469"/><line style="stroke:#A80036;stroke-width:1.0;" x1="1675.5" x2="1716.5" y1="643.0469" y2="643.0469"/><polygon fill="#A80036" points="1685.5,639.0469,1675.5,643.0469,1685.5,647.0469,1681.5,643.0469" style="stroke:#A80036;stroke-width:1.0;"/><text fill="#000000" font-family="sans-serif" font-size="13" font-weight="bold" lengthAdjust="spacing" textLength="14" x="1681.5" y="625.1904">13</text><text fill="#000000" font-family="sans-serif" font-size="13" lengthAdjust="spacing" textLength="405" x="1699.5" y="625.1904">validateInput(strName, strDescription, fltUnitaryPrice, fltUnitaryWeight)</text><path d="M20,658.0469 L81,658.0469 L81,666.0469 L71,676.0469 L20,676.0469 L20,658.0469 " fill="#EEEEEE" style="stroke:#000000;stroke-width:1.0;"/><rect fill="none" height="202.9453" style="stroke:#000000;stroke-width:2.0;" width="2234" x="20" y="658.0469"/><text fill="#000000" font-family="sans-serif" font-size="13" font-weight="bold" lengthAdjust="spacing" textLength="16" x="35" y="672.542">alt</text><text fill="#000000" font-family="sans-serif" font-size="11" font-weight="bold" lengthAdjust="spacing" textLength="298" x="96" y="671.4658">[if all the information given as input has a valid format]</text><polygon fill="#A80036" points="2168.5,694.75,2178.5,698.75,2168.5,702.75,2172.5,698.75" style="stroke:#A80036;stroke-width:1.0;"/><line style="stroke:#A80036;stroke-width:1.0;" x1="1674.5" x2="2174.5" y1="698.75" y2="698.75"/><text fill="#000000" font-family="sans-serif" font-size="13" font-weight="bold" lengthAdjust="spacing" textLength="14" x="1681.5" y="693.8936">14</text><text fill="#000000" font-family="sans-serif" font-size="13" lengthAdjust="spacing" textLength="183" x="1699.5" y="693.8936">updateProductFromDB(product)</text><rect fill="#FFFFFF" filter="url(#f13g1hl5241tyd)" height="42.7031" style="stroke:#000000;stroke-width:2.0;" width="126" x="2124" y="736.75"/><polygon fill="#EEEEEE" points="2124,736.75,2186,736.75,2186,744.75,2176,754.75,2124,754.75,2124,736.75" style="stroke:#000000;stroke-width:2.0;"/><text fill="#000000" font-family="sans-serif" font-size="13" font-weight="bold" lengthAdjust="spacing" textLength="17" x="2137" y="752.2451">ref</text><text fill="#000000" font-family="sans-serif" font-size="13" lengthAdjust="spacing" textLength="118" x="2130" y="772.2451">SD_CONNECTIONS</text><polygon fill="#A80036" points="68.5,802.8047,58.5,806.8047,68.5,810.8047,64.5,806.8047" style="stroke:#A80036;stroke-width:1.0;"/><line style="stroke:#A80036;stroke-width:1.0;stroke-dasharray:2.0,2.0;" x1="62.5" x2="676.5" y1="806.8047" y2="806.8047"/><text fill="#000000" font-family="sans-serif" font-size="13" font-weight="bold" lengthAdjust="spacing" textLength="14" x="74.5" y="801.9482">15</text><text fill="#000000" font-family="sans-serif" font-size="13" lengthAdjust="spacing" textLength="402" x="92.5" y="801.9482">Validates all the information, informing of the success of the operation</text><line style="stroke:#000000;stroke-width:1.0;stroke-dasharray:2.0,2.0;" x1="20" x2="2254" y1="815.8047" y2="815.8047"/><text fill="#000000" font-family="sans-serif" font-size="11" font-weight="bold" lengthAdjust="spacing" textLength="262" x="25" y="827.2236">[if any information does not have a valid format]</text><polygon fill="#A80036" points="63.5,848.9922,53.5,852.9922,63.5,856.9922,59.5,852.9922" style="stroke:#A80036;stroke-width:1.0;"/><line style="stroke:#A80036;stroke-width:1.0;" x1="57.5" x2="681.5" y1="852.9922" y2="852.9922"/><text fill="#000000" font-family="sans-serif" font-size="13" font-weight="bold" lengthAdjust="spacing" textLength="14" x="69.5" y="848.1357">16</text><text fill="#000000" font-family="sans-serif" font-size="13" lengthAdjust="spacing" textLength="262" x="87.5" y="848.1357">Informs that the operation was not successful</text><!--MD5=[fb8ae93285de7cdee8778834daa94388]
@startuml
autonumber
hide footbox

actor "Admin" as U

participant "UpdateProductUI" as UI
participant "UpdateProductController" as CTRL
participant "pServ:ProductService" as SER
participant "pDB:ProductDB" as DB
participant "ApplicationPOT" as APP
participant "app:ApplicationPOT" as APPP
participant "UserSession" as US

activate U
U -> UI : Engages the update product feature/button
activate UI
UI - -> U : Asks for all the information required for the update (id, name, description, unitaryPrice, unitaryWeight)
deactivate UI
U -> UI : Fills all the information required
activate UI
UI -> CTRL : updateProduct(intId, strName, strDescription, fltUnitaryPrice, fltUnitaryWeight)
activate CTRL
CTRL -> SER** : create()
activate SER
SER -> DB** : create()
deactivate SER
CTRL -> APP : getInstance()
activate APP
deactivate APP
CTRL -> APPP : getCurrentSession()
activate APPP
APPP -> US : getRole()
activate US
deactivate US
deactivate APPP
alt if user is authorized (if it's an admin)
CTRL -> SER : updateProduct(intId, strName, strDescription, fltUnitaryPrice, fltUnitaryWeight)
activate SER
SER -> SER : validateInputWithId(intId, strName, strDescription, fltUnitaryPrice, fltUnitaryWeight)
SER -> SER : validateId(intId)
SER -> SER : validateInput(strName, strDescription, fltUnitaryPrice, fltUnitaryWeight)
alt if all the information given as input has a valid format
SER -> DB : updateProductFromDB(product)
activate DB
deactivate DB
ref over DB
SD_CONNECTIONS
end ref
deactivate SER
deactivate CTRL
deactivate CTRL
UI - -> U : Validates all the information, informing of the success of the operation
else if any information does not have a valid format
UI -> U : Informs that the operation was not successful
deactivate UI
deactivate U
end alt
end alt

@enduml

PlantUML version 1.2021.00(Sun Jan 10 10:25:05 GMT 2021)
(GPL source distribution)
Java Runtime: OpenJDK Runtime Environment
JVM: OpenJDK 64-Bit Server VM
Default Encoding: Cp1252
Language: pt
Country: PT
--></g></svg>