<?xml version="1.0" encoding="UTF-8" standalone="no"?><svg xmlns="http://www.w3.org/2000/svg" xmlns:xlink="http://www.w3.org/1999/xlink" contentScriptType="application/ecmascript" contentStyleType="text/css" height="130px" preserveAspectRatio="none" style="width:342px;height:130px;" version="1.1" viewBox="0 0 342 130" width="342px" zoomAndPan="magnify"><defs><filter height="300%" id="f1rtqxziy77img" width="300%" x="-1" y="-1"><feGaussianBlur result="blurOut" stdDeviation="2.0"/><feColorMatrix in="blurOut" result="blurOut2" type="matrix" values="0 0 0 0 0 0 0 0 0 0 0 0 0 0 0 0 0 0 .4 0"/><feOffset dx="4.0" dy="4.0" in="blurOut2" result="blurOut3"/><feBlend in="SourceGraphic" in2="blurOut3" mode="normal"/></filter></defs><g><!--MD5=[fa1e3283224feb76407c84b7e90ed808]
entity Database--><path d="M6,48 C6,38 46.5,38 46.5,38 C46.5,38 87,38 87,48 L87,74.6094 C87,84.6094 46.5,84.6094 46.5,84.6094 C46.5,84.6094 6,84.6094 6,74.6094 L6,48 " fill="#FFFFFF" filter="url(#f1rtqxziy77img)" style="stroke:#000000;stroke-width:1.5;"/><path d="M6,48 C6,58 46.5,58 46.5,58 C46.5,58 87,58 87,48 " fill="none" style="stroke:#000000;stroke-width:1.5;"/><text fill="#000000" font-family="sans-serif" font-size="14" lengthAdjust="spacingAndGlyphs" textLength="61" x="16" y="76.5332">Database</text><!--MD5=[3fd616f346a44cd59a91eb10b19e157c]
class User--><rect codeLine="7" fill="#FEFECE" filter="url(#f1rtqxziy77img)" height="109.1797" id="User" style="stroke:#A80036;stroke-width:1.5;" width="97" x="231" y="7"/><ellipse cx="263.55" cy="23" fill="#A9DCDF" rx="11" ry="11" style="stroke:#A80036;stroke-width:1.0;"/><path d="M265.3,24.5 L262.0031,24.5 L261.5656,25.5 L261.5656,25.5 L262.0344,25.5 L262.55,26.125 L262.55,26.5 L262.55,26.875 L262.0344,27.5 L261.5656,27.5 L259.675,27.5 L259.0656,27.5 L258.55,26.875 L258.55,26.5 L258.55,26.125 L259.0656,25.5 L259.675,25.5 L261.9875,19.5 L261.1125,19.5 L260.0656,19.5 L259.55,18.875 L259.55,18.5 L259.55,18.125 L260.0656,17.5 L261.1125,17.5 L264.7844,17.5 L267.4719,25.5 L268.0344,25.5 L268.0344,25.5 L268.55,26.125 L268.55,26.5 L268.55,26.875 L268.0344,27.5 L267.4719,27.5 L265.5813,27.5 L265.0656,27.5 L264.55,26.875 L264.55,26.5 L264.55,26.125 L265.0656,25.5 L265.5813,25.5 L265.5813,25.5 L265.3,24.5 Z M264.7531,22.5 L263.55,18.9219 L262.5188,22.5 L264.7531,22.5 Z " fill="#000000"/><text fill="#000000" font-family="sans-serif" font-size="12" font-style="italic" lengthAdjust="spacingAndGlyphs" textLength="26" x="281.45" y="27.9102">User</text><line style="stroke:#A80036;stroke-width:1.5;" x1="232" x2="327" y1="39" y2="39"/><text fill="#000000" font-family="sans-serif" font-size="11" lengthAdjust="spacingAndGlyphs" textLength="48" x="237" y="54.4189">-Integer id</text><text fill="#000000" font-family="sans-serif" font-size="11" lengthAdjust="spacingAndGlyphs" textLength="59" x="237" y="68.2549">-String email</text><text fill="#000000" font-family="sans-serif" font-size="11" lengthAdjust="spacingAndGlyphs" textLength="85" x="237" y="82.0908">-String password</text><text fill="#000000" font-family="sans-serif" font-size="11" lengthAdjust="spacingAndGlyphs" textLength="52" x="237" y="95.9268">-Integer nif</text><text fill="#000000" font-family="sans-serif" font-size="11" lengthAdjust="spacingAndGlyphs" textLength="61" x="237" y="109.7627">-String name</text><!--MD5=[66e25ec2fb5d71c0b850aa388279f367]
link Database to User--><path codeLine="20" d="M87.21,61.5 C127.07,61.5 188.49,61.5 230.93,61.5 " fill="none" id="Database-User" style="stroke:#A80036;stroke-width:1.0;"/><text fill="#000000" font-family="sans-serif" font-size="13" lengthAdjust="spacingAndGlyphs" textLength="82" x="118" y="57.9951">has registered</text><text fill="#000000" font-family="sans-serif" font-size="13" lengthAdjust="spacingAndGlyphs" textLength="7" x="95.0849" y="76.4862">1</text><text fill="#000000" font-family="sans-serif" font-size="13" lengthAdjust="spacingAndGlyphs" textLength="5" x="218.1099" y="76.2333">*</text><!--MD5=[e7910f5727e5a17493af9506902a6b1b]
@startuml
skinparam classAttributeIconSize 0
hide methods
left to right direction



abstract class User{
-Integer id
-String email
-String password
-Integer nif
-String name
}

database Database {

}


Database "1" - - "*" User : has registered



@enduml

PlantUML version 1.2020.23(Sun Dec 13 19:14:58 GMT 2020)
(GPL source distribution)
Java Runtime: OpenJDK Runtime Environment
JVM: OpenJDK 64-Bit Server VM
Default Encoding: Cp1252
Language: pt
Country: PT
--></g></svg>