<?xml version="1.0" encoding="UTF-8" standalone="no"?><svg xmlns="http://www.w3.org/2000/svg" xmlns:xlink="http://www.w3.org/1999/xlink" contentScriptType="application/ecmascript" contentStyleType="text/css" height="1008px" preserveAspectRatio="none" style="width:501px;height:1008px;" version="1.1" viewBox="0 0 501 1008" width="501px" zoomAndPan="magnify"><defs><filter height="300%" id="f10mcuyqyjzo0k" width="300%" x="-1" y="-1"><feGaussianBlur result="blurOut" stdDeviation="2.0"/><feColorMatrix in="blurOut" result="blurOut2" type="matrix" values="0 0 0 0 0 0 0 0 0 0 0 0 0 0 0 0 0 0 .4 0"/><feOffset dx="4.0" dy="4.0" in="blurOut2" result="blurOut3"/><feBlend in="SourceGraphic" in2="blurOut3" mode="normal"/></filter></defs><g><!--MD5=[1f2cfc53d9d308f53762fd0fcbaa4873]
cluster Controller--><polygon fill="#DDDDDD" filter="url(#f10mcuyqyjzo0k)" points="16,146,93,146,100,169.6094,202,169.6094,202,404,16,404,16,146" style="stroke:#000000;stroke-width:1.5;"/><line style="stroke:#000000;stroke-width:1.5;" x1="16" x2="100" y1="169.6094" y2="169.6094"/><text fill="#000000" font-family="sans-serif" font-size="14" font-weight="bold" lengthAdjust="spacingAndGlyphs" textLength="71" x="20" y="162.5332">Controller</text><!--MD5=[9681dc6e01e10c6b4fe06895ae94f592]
cluster UI--><polygon fill="#DDDDDD" filter="url(#f10mcuyqyjzo0k)" points="65,6,85,6,92,29.6094,173,29.6094,173,106,65,106,65,6" style="stroke:#000000;stroke-width:1.5;"/><line style="stroke:#000000;stroke-width:1.5;" x1="65" x2="92" y1="29.6094" y2="29.6094"/><text fill="#000000" font-family="sans-serif" font-size="14" font-weight="bold" lengthAdjust="spacingAndGlyphs" textLength="14" x="69" y="22.5332">UI</text><!--MD5=[15636c1ca4a123c16a2a1a8e90aca7a9]
cluster Model--><polygon fill="#DDDDDD" filter="url(#f10mcuyqyjzo0k)" points="101,454,151,454,158,477.6094,451,477.6094,451,837,101,837,101,454" style="stroke:#000000;stroke-width:1.5;"/><line style="stroke:#000000;stroke-width:1.5;" x1="101" x2="158" y1="477.6094" y2="477.6094"/><text fill="#000000" font-family="sans-serif" font-size="14" font-weight="bold" lengthAdjust="spacingAndGlyphs" textLength="44" x="105" y="470.5332">Model</text><!--MD5=[9dd75fd92da113d30380b27734fd2f01]
cluster Service--><polygon fill="#DDDDDD" filter="url(#f10mcuyqyjzo0k)" points="269,498,329,498,336,521.6094,427,521.6094,427,626,269,626,269,498" style="stroke:#000000;stroke-width:1.5;"/><line style="stroke:#000000;stroke-width:1.5;" x1="269" x2="336" y1="521.6094" y2="521.6094"/><text fill="#000000" font-family="sans-serif" font-size="14" font-weight="bold" lengthAdjust="spacingAndGlyphs" textLength="54" x="273" y="514.5332">Service</text><!--MD5=[f21b1f164e99c6b37934f23ad048ad54]
cluster Data--><polygon fill="#DDDDDD" filter="url(#f10mcuyqyjzo0k)" points="278,139,315,139,322,162.6094,484,162.6094,484,404,278,404,278,139" style="stroke:#000000;stroke-width:1.5;"/><line style="stroke:#000000;stroke-width:1.5;" x1="278" x2="322" y1="162.6094" y2="162.6094"/><text fill="#000000" font-family="sans-serif" font-size="14" font-weight="bold" lengthAdjust="spacingAndGlyphs" textLength="31" x="282" y="155.5332">Data</text><!--MD5=[7e40339c58605559321960399585b560]
cluster Utils--><polygon fill="#DDDDDD" filter="url(#f10mcuyqyjzo0k)" points="94,887,131,887,138,910.6094,310,910.6094,310,1001,94,1001,94,887" style="stroke:#000000;stroke-width:1.5;"/><line style="stroke:#000000;stroke-width:1.5;" x1="94" x2="138" y1="910.6094" y2="910.6094"/><text fill="#000000" font-family="sans-serif" font-size="14" font-weight="bold" lengthAdjust="spacingAndGlyphs" textLength="31" x="98" y="903.5332">Utils</text><!--MD5=[e45a4727c47b726c25e081782e8bc183]
class ApplicationPOT--><rect codeLine="5" fill="#FEFECE" filter="url(#f10mcuyqyjzo0k)" height="75.6719" id="ApplicationPOT" style="stroke:#A80036;stroke-width:1.5;" width="154" x="32" y="312"/><ellipse cx="64.1" cy="328" fill="#ADD1B2" rx="11" ry="11" style="stroke:#A80036;stroke-width:1.0;"/><path d="M66.1,324.5 Q66.3031,324 66.5375,323.75 Q66.7719,323.5 67.0375,323.5 Q67.5063,323.5 67.8031,323.7813 Q68.1,324.0625 68.1,324.7188 L68.1,326.2813 Q68.1,326.9375 67.8188,327.2188 Q67.5375,327.5 67.1,327.5 Q66.7094,327.5 66.4594,327.3281 Q66.2094,327.1563 66.1,326.7031 Q66.0531,326.3906 65.8813,326.2188 Q65.5688,325.8906 65.0063,325.7031 Q64.4438,325.5 63.8812,325.5 Q63.1781,325.5 62.5844,325.7813 Q62.0062,326.0625 61.5531,326.6875 Q61.1,327.3125 61.1,328.1719 L61.1,329.0938 Q61.1,330.125 61.9437,330.8125 Q62.7875,331.5 64.2875,331.5 Q65.1781,331.5 65.8031,331.2969 Q66.1625,331.1875 66.5688,330.8281 Q66.8344,330.625 66.975,330.5625 Q67.1156,330.5 67.2875,330.5 Q67.6156,330.5 67.85,330.7656 Q68.1,331.0156 68.1,331.375 Q68.1,331.7188 67.7563,332.125 Q67.2563,332.7188 66.4594,333.0469 Q65.4125,333.5 64.1313,333.5 Q62.6312,333.5 61.4281,332.9063 Q60.4594,332.4375 59.7719,331.4219 Q59.1,330.4063 59.1,329.2031 L59.1,328.1094 Q59.1,326.8594 59.6937,325.7656 Q60.3031,324.6719 61.35,324.0938 Q62.4125,323.5 63.6,323.5 Q64.3188,323.5 64.9438,323.75 Q65.5688,324 66.1,324.5 Z " fill="#000000"/><text fill="#000000" font-family="sans-serif" font-size="12" lengthAdjust="spacingAndGlyphs" textLength="84" x="81.9" y="332.9102">ApplicationPOT</text><line style="stroke:#A80036;stroke-width:1.5;" x1="33" x2="185" y1="344" y2="344"/><line style="stroke:#A80036;stroke-width:1.5;" x1="33" x2="185" y1="352" y2="352"/><text fill="#000000" font-family="sans-serif" font-size="11" lengthAdjust="spacingAndGlyphs" textLength="99" x="38" y="367.4189">+static getInstance()</text><text fill="#000000" font-family="sans-serif" font-size="11" lengthAdjust="spacingAndGlyphs" textLength="142" x="38" y="381.2549">+setCurrentSession(session)</text><!--MD5=[5103e3471bf31fadd75905833dcba617]
class LoginController--><rect codeLine="21" fill="#FEFECE" filter="url(#f10mcuyqyjzo0k)" height="61.8359" id="LoginController" style="stroke:#A80036;stroke-width:1.5;" width="125" x="56.5" y="182"/><ellipse cx="75.1" cy="198" fill="#ADD1B2" rx="11" ry="11" style="stroke:#A80036;stroke-width:1.0;"/><path d="M77.1,194.5 Q77.3031,194 77.5375,193.75 Q77.7719,193.5 78.0375,193.5 Q78.5063,193.5 78.8031,193.7813 Q79.1,194.0625 79.1,194.7188 L79.1,196.2813 Q79.1,196.9375 78.8188,197.2188 Q78.5375,197.5 78.1,197.5 Q77.7094,197.5 77.4594,197.3281 Q77.2094,197.1563 77.1,196.7031 Q77.0531,196.3906 76.8813,196.2188 Q76.5688,195.8906 76.0063,195.7031 Q75.4438,195.5 74.8813,195.5 Q74.1781,195.5 73.5844,195.7813 Q73.0063,196.0625 72.5531,196.6875 Q72.1,197.3125 72.1,198.1719 L72.1,199.0938 Q72.1,200.125 72.9438,200.8125 Q73.7875,201.5 75.2875,201.5 Q76.1781,201.5 76.8031,201.2969 Q77.1625,201.1875 77.5688,200.8281 Q77.8344,200.625 77.975,200.5625 Q78.1156,200.5 78.2875,200.5 Q78.6156,200.5 78.85,200.7656 Q79.1,201.0156 79.1,201.375 Q79.1,201.7188 78.7563,202.125 Q78.2563,202.7188 77.4594,203.0469 Q76.4125,203.5 75.1313,203.5 Q73.6313,203.5 72.4281,202.9063 Q71.4594,202.4375 70.7719,201.4219 Q70.1,200.4063 70.1,199.2031 L70.1,198.1094 Q70.1,196.8594 70.6938,195.7656 Q71.3031,194.6719 72.35,194.0938 Q73.4125,193.5 74.6,193.5 Q75.3188,193.5 75.9438,193.75 Q76.5688,194 77.1,194.5 Z " fill="#000000"/><text fill="#000000" font-family="sans-serif" font-size="12" lengthAdjust="spacingAndGlyphs" textLength="85" x="89.9" y="202.9102">LoginController</text><line style="stroke:#A80036;stroke-width:1.5;" x1="57.5" x2="180.5" y1="214" y2="214"/><line style="stroke:#A80036;stroke-width:1.5;" x1="57.5" x2="180.5" y1="222" y2="222"/><text fill="#000000" font-family="sans-serif" font-size="11" lengthAdjust="spacingAndGlyphs" textLength="113" x="62.5" y="237.4189">+login(email,password)</text><!--MD5=[963343b82525635de3374bcb96d0dfc1]
class LoginUI--><rect codeLine="14" fill="#FEFECE" filter="url(#f10mcuyqyjzo0k)" height="48" id="LoginUI" style="stroke:#A80036;stroke-width:1.5;" width="75" x="81.5" y="42"/><ellipse cx="96.5" cy="58" fill="#ADD1B2" rx="11" ry="11" style="stroke:#A80036;stroke-width:1.0;"/><path d="M98.5,54.5 Q98.7031,54 98.9375,53.75 Q99.1719,53.5 99.4375,53.5 Q99.9063,53.5 100.2031,53.7813 Q100.5,54.0625 100.5,54.7188 L100.5,56.2813 Q100.5,56.9375 100.2188,57.2188 Q99.9375,57.5 99.5,57.5 Q99.1094,57.5 98.8594,57.3281 Q98.6094,57.1563 98.5,56.7031 Q98.4531,56.3906 98.2813,56.2188 Q97.9688,55.8906 97.4063,55.7031 Q96.8438,55.5 96.2813,55.5 Q95.5781,55.5 94.9844,55.7813 Q94.4063,56.0625 93.9531,56.6875 Q93.5,57.3125 93.5,58.1719 L93.5,59.0938 Q93.5,60.125 94.3438,60.8125 Q95.1875,61.5 96.6875,61.5 Q97.5781,61.5 98.2031,61.2969 Q98.5625,61.1875 98.9688,60.8281 Q99.2344,60.625 99.375,60.5625 Q99.5156,60.5 99.6875,60.5 Q100.0156,60.5 100.25,60.7656 Q100.5,61.0156 100.5,61.375 Q100.5,61.7188 100.1563,62.125 Q99.6563,62.7188 98.8594,63.0469 Q97.8125,63.5 96.5313,63.5 Q95.0313,63.5 93.8281,62.9063 Q92.8594,62.4375 92.1719,61.4219 Q91.5,60.4063 91.5,59.2031 L91.5,58.1094 Q91.5,56.8594 92.0938,55.7656 Q92.7031,54.6719 93.75,54.0938 Q94.8125,53.5 96,53.5 Q96.7188,53.5 97.3438,53.75 Q97.9688,54 98.5,54.5 Z " fill="#000000"/><text fill="#000000" font-family="sans-serif" font-size="12" lengthAdjust="spacingAndGlyphs" textLength="43" x="110.5" y="62.9102">LoginUI</text><line style="stroke:#A80036;stroke-width:1.5;" x1="82.5" x2="155.5" y1="74" y2="74"/><line style="stroke:#A80036;stroke-width:1.5;" x1="82.5" x2="155.5" y1="82" y2="82"/><!--MD5=[3fd616f346a44cd59a91eb10b19e157c]
class User--><rect codeLine="32" fill="#FEFECE" filter="url(#f10mcuyqyjzo0k)" height="131.0156" id="User" style="stroke:#A80036;stroke-width:1.5;" width="170" x="117" y="690"/><ellipse cx="184.75" cy="706" fill="#A9DCDF" rx="11" ry="11" style="stroke:#A80036;stroke-width:1.0;"/><path d="M186.5,707.5 L183.2031,707.5 L182.7656,708.5 L182.7656,708.5 L183.2344,708.5 L183.75,709.125 L183.75,709.5 L183.75,709.875 L183.2344,710.5 L182.7656,710.5 L180.875,710.5 L180.2656,710.5 L179.75,709.875 L179.75,709.5 L179.75,709.125 L180.2656,708.5 L180.875,708.5 L183.1875,702.5 L182.3125,702.5 L181.2656,702.5 L180.75,701.875 L180.75,701.5 L180.75,701.125 L181.2656,700.5 L182.3125,700.5 L185.9844,700.5 L188.6719,708.5 L189.2344,708.5 L189.2344,708.5 L189.75,709.125 L189.75,709.5 L189.75,709.875 L189.2344,710.5 L188.6719,710.5 L186.7813,710.5 L186.2656,710.5 L185.75,709.875 L185.75,709.5 L185.75,709.125 L186.2656,708.5 L186.7813,708.5 L186.7813,708.5 L186.5,707.5 Z M185.9531,705.5 L184.75,701.9219 L183.7188,705.5 L185.9531,705.5 Z " fill="#000000"/><text fill="#000000" font-family="sans-serif" font-size="12" font-style="italic" lengthAdjust="spacingAndGlyphs" textLength="26" x="205.25" y="710.9102">User</text><line style="stroke:#A80036;stroke-width:1.5;" x1="118" x2="286" y1="722" y2="722"/><text fill="#000000" font-family="sans-serif" font-size="11" lengthAdjust="spacingAndGlyphs" textLength="48" x="123" y="737.4189">-Integer id</text><text fill="#000000" font-family="sans-serif" font-size="11" lengthAdjust="spacingAndGlyphs" textLength="59" x="123" y="751.2549">-String email</text><text fill="#000000" font-family="sans-serif" font-size="11" lengthAdjust="spacingAndGlyphs" textLength="85" x="123" y="765.0908">-String password</text><text fill="#000000" font-family="sans-serif" font-size="11" lengthAdjust="spacingAndGlyphs" textLength="52" x="123" y="778.9268">-Integer nif</text><text fill="#000000" font-family="sans-serif" font-size="11" lengthAdjust="spacingAndGlyphs" textLength="61" x="123" y="792.7627">-String name</text><line style="stroke:#A80036;stroke-width:1.5;" x1="118" x2="286" y1="799.1797" y2="799.1797"/><text fill="#000000" font-family="sans-serif" font-size="11" lengthAdjust="spacingAndGlyphs" textLength="158" x="123" y="814.5986">+User(email,password,nif,name)</text><!--MD5=[c5b08e60048ef1bcd788d24cf324082e]
class UserSession--><rect codeLine="50" fill="#FEFECE" filter="url(#f10mcuyqyjzo0k)" height="75.6719" id="UserSession" style="stroke:#A80036;stroke-width:1.5;" width="133" x="117.5" y="534"/><ellipse cx="145.1" cy="550" fill="#ADD1B2" rx="11" ry="11" style="stroke:#A80036;stroke-width:1.0;"/><path d="M147.1,546.5 Q147.3031,546 147.5375,545.75 Q147.7719,545.5 148.0375,545.5 Q148.5063,545.5 148.8031,545.7813 Q149.1,546.0625 149.1,546.7188 L149.1,548.2813 Q149.1,548.9375 148.8188,549.2188 Q148.5375,549.5 148.1,549.5 Q147.7094,549.5 147.4594,549.3281 Q147.2094,549.1563 147.1,548.7031 Q147.0531,548.3906 146.8813,548.2188 Q146.5688,547.8906 146.0063,547.7031 Q145.4438,547.5 144.8813,547.5 Q144.1781,547.5 143.5844,547.7813 Q143.0063,548.0625 142.5531,548.6875 Q142.1,549.3125 142.1,550.1719 L142.1,551.0938 Q142.1,552.125 142.9438,552.8125 Q143.7875,553.5 145.2875,553.5 Q146.1781,553.5 146.8031,553.2969 Q147.1625,553.1875 147.5688,552.8281 Q147.8344,552.625 147.975,552.5625 Q148.1156,552.5 148.2875,552.5 Q148.6156,552.5 148.85,552.7656 Q149.1,553.0156 149.1,553.375 Q149.1,553.7188 148.7563,554.125 Q148.2563,554.7188 147.4594,555.0469 Q146.4125,555.5 145.1313,555.5 Q143.6313,555.5 142.4281,554.9063 Q141.4594,554.4375 140.7719,553.4219 Q140.1,552.4063 140.1,551.2031 L140.1,550.1094 Q140.1,548.8594 140.6938,547.7656 Q141.3031,546.6719 142.35,546.0938 Q143.4125,545.5 144.6,545.5 Q145.3188,545.5 145.9438,545.75 Q146.5688,546 147.1,546.5 Z " fill="#000000"/><text fill="#000000" font-family="sans-serif" font-size="12" lengthAdjust="spacingAndGlyphs" textLength="73" x="161.9" y="554.9102">UserSession</text><line style="stroke:#A80036;stroke-width:1.5;" x1="118.5" x2="249.5" y1="566" y2="566"/><text fill="#000000" font-family="sans-serif" font-size="11" lengthAdjust="spacingAndGlyphs" textLength="59" x="123.5" y="581.4189">-String email</text><line style="stroke:#A80036;stroke-width:1.5;" x1="118.5" x2="249.5" y1="587.8359" y2="587.8359"/><text fill="#000000" font-family="sans-serif" font-size="11" lengthAdjust="spacingAndGlyphs" textLength="121" x="123.5" y="603.2549">+UserSession(email,role)</text><!--MD5=[e4ac4745f81aec2db60ad4ddae80b659]
class UserService--><rect codeLine="43" fill="#FEFECE" filter="url(#f10mcuyqyjzo0k)" height="75.6719" id="UserService" style="stroke:#A80036;stroke-width:1.5;" width="125" x="285.5" y="534"/><ellipse cx="312.2" cy="550" fill="#ADD1B2" rx="11" ry="11" style="stroke:#A80036;stroke-width:1.0;"/><path d="M314.2,546.5 Q314.4031,546 314.6375,545.75 Q314.8719,545.5 315.1375,545.5 Q315.6063,545.5 315.9031,545.7813 Q316.2,546.0625 316.2,546.7188 L316.2,548.2813 Q316.2,548.9375 315.9188,549.2188 Q315.6375,549.5 315.2,549.5 Q314.8094,549.5 314.5594,549.3281 Q314.3094,549.1563 314.2,548.7031 Q314.1531,548.3906 313.9813,548.2188 Q313.6688,547.8906 313.1063,547.7031 Q312.5438,547.5 311.9813,547.5 Q311.2781,547.5 310.6844,547.7813 Q310.1063,548.0625 309.6531,548.6875 Q309.2,549.3125 309.2,550.1719 L309.2,551.0938 Q309.2,552.125 310.0438,552.8125 Q310.8875,553.5 312.3875,553.5 Q313.2781,553.5 313.9031,553.2969 Q314.2625,553.1875 314.6688,552.8281 Q314.9344,552.625 315.075,552.5625 Q315.2156,552.5 315.3875,552.5 Q315.7156,552.5 315.95,552.7656 Q316.2,553.0156 316.2,553.375 Q316.2,553.7188 315.8563,554.125 Q315.3563,554.7188 314.5594,555.0469 Q313.5125,555.5 312.2313,555.5 Q310.7313,555.5 309.5281,554.9063 Q308.5594,554.4375 307.8719,553.4219 Q307.2,552.4063 307.2,551.2031 L307.2,550.1094 Q307.2,548.8594 307.7938,547.7656 Q308.4031,546.6719 309.45,546.0938 Q310.5125,545.5 311.7,545.5 Q312.4188,545.5 313.0438,545.75 Q313.6688,546 314.2,546.5 Z " fill="#000000"/><text fill="#000000" font-family="sans-serif" font-size="12" lengthAdjust="spacingAndGlyphs" textLength="67" x="328.8" y="554.9102">UserService</text><line style="stroke:#A80036;stroke-width:1.5;" x1="286.5" x2="409.5" y1="566" y2="566"/><line style="stroke:#A80036;stroke-width:1.5;" x1="286.5" x2="409.5" y1="574" y2="574"/><text fill="#000000" font-family="sans-serif" font-size="11" lengthAdjust="spacingAndGlyphs" textLength="74" x="291.5" y="589.4189">+UserService()</text><text fill="#000000" font-family="sans-serif" font-size="11" lengthAdjust="spacingAndGlyphs" textLength="113" x="291.5" y="603.2549">+login(email,password)</text><!--MD5=[4b2d61224b33971326a22fe5d809d926]
class DataHandler--><rect codeLine="62" fill="#FEFECE" filter="url(#f10mcuyqyjzo0k)" height="75.6719" id="DataHandler" style="stroke:#A80036;stroke-width:1.5;" width="104" x="329" y="175"/><ellipse cx="344.9" cy="191" fill="#ADD1B2" rx="11" ry="11" style="stroke:#A80036;stroke-width:1.0;"/><path d="M346.9,187.5 Q347.1031,187 347.3375,186.75 Q347.5719,186.5 347.8375,186.5 Q348.3063,186.5 348.6031,186.7813 Q348.9,187.0625 348.9,187.7188 L348.9,189.2813 Q348.9,189.9375 348.6188,190.2188 Q348.3375,190.5 347.9,190.5 Q347.5094,190.5 347.2594,190.3281 Q347.0094,190.1563 346.9,189.7031 Q346.8531,189.3906 346.6813,189.2188 Q346.3688,188.8906 345.8063,188.7031 Q345.2438,188.5 344.6813,188.5 Q343.9781,188.5 343.3844,188.7813 Q342.8063,189.0625 342.3531,189.6875 Q341.9,190.3125 341.9,191.1719 L341.9,192.0938 Q341.9,193.125 342.7438,193.8125 Q343.5875,194.5 345.0875,194.5 Q345.9781,194.5 346.6031,194.2969 Q346.9625,194.1875 347.3688,193.8281 Q347.6344,193.625 347.775,193.5625 Q347.9156,193.5 348.0875,193.5 Q348.4156,193.5 348.65,193.7656 Q348.9,194.0156 348.9,194.375 Q348.9,194.7188 348.5563,195.125 Q348.0563,195.7188 347.2594,196.0469 Q346.2125,196.5 344.9313,196.5 Q343.4313,196.5 342.2281,195.9063 Q341.2594,195.4375 340.5719,194.4219 Q339.9,193.4063 339.9,192.2031 L339.9,191.1094 Q339.9,189.8594 340.4938,188.7656 Q341.1031,187.6719 342.15,187.0938 Q343.2125,186.5 344.4,186.5 Q345.1188,186.5 345.7438,186.75 Q346.3688,187 346.9,187.5 Z " fill="#000000"/><text fill="#000000" font-family="sans-serif" font-size="12" lengthAdjust="spacingAndGlyphs" textLength="70" x="359.1" y="195.9102">DataHandler</text><line style="stroke:#A80036;stroke-width:1.5;" x1="330" x2="432" y1="207" y2="207"/><line style="stroke:#A80036;stroke-width:1.5;" x1="330" x2="432" y1="215" y2="215"/><text fill="#000000" font-family="sans-serif" font-size="11" lengthAdjust="spacingAndGlyphs" textLength="92" x="335" y="230.4189">+openConnection()</text><text fill="#000000" font-family="sans-serif" font-size="11" lengthAdjust="spacingAndGlyphs" textLength="52" x="335" y="244.2549">+closeAll()</text><!--MD5=[f72517c501e7c82bfe817533034f2e49]
class UserDB--><rect codeLine="89" fill="#FEFECE" filter="url(#f10mcuyqyjzo0k)" height="75.6719" id="UserDB" style="stroke:#A80036;stroke-width:1.5;" width="174" x="294" y="312"/><ellipse cx="354.75" cy="328" fill="#ADD1B2" rx="11" ry="11" style="stroke:#A80036;stroke-width:1.0;"/><path d="M356.75,324.5 Q356.9531,324 357.1875,323.75 Q357.4219,323.5 357.6875,323.5 Q358.1563,323.5 358.4531,323.7813 Q358.75,324.0625 358.75,324.7188 L358.75,326.2813 Q358.75,326.9375 358.4688,327.2188 Q358.1875,327.5 357.75,327.5 Q357.3594,327.5 357.1094,327.3281 Q356.8594,327.1563 356.75,326.7031 Q356.7031,326.3906 356.5313,326.2188 Q356.2188,325.8906 355.6563,325.7031 Q355.0938,325.5 354.5313,325.5 Q353.8281,325.5 353.2344,325.7813 Q352.6563,326.0625 352.2031,326.6875 Q351.75,327.3125 351.75,328.1719 L351.75,329.0938 Q351.75,330.125 352.5938,330.8125 Q353.4375,331.5 354.9375,331.5 Q355.8281,331.5 356.4531,331.2969 Q356.8125,331.1875 357.2188,330.8281 Q357.4844,330.625 357.625,330.5625 Q357.7656,330.5 357.9375,330.5 Q358.2656,330.5 358.5,330.7656 Q358.75,331.0156 358.75,331.375 Q358.75,331.7188 358.4063,332.125 Q357.9063,332.7188 357.1094,333.0469 Q356.0625,333.5 354.7813,333.5 Q353.2813,333.5 352.0781,332.9063 Q351.1094,332.4375 350.4219,331.4219 Q349.75,330.4063 349.75,329.2031 L349.75,328.1094 Q349.75,326.8594 350.3438,325.7656 Q350.9531,324.6719 352,324.0938 Q353.0625,323.5 354.25,323.5 Q354.9688,323.5 355.5938,323.75 Q356.2188,324 356.75,324.5 Z " fill="#000000"/><text fill="#000000" font-family="sans-serif" font-size="12" lengthAdjust="spacingAndGlyphs" textLength="44" x="375.25" y="332.9102">UserDB</text><line style="stroke:#A80036;stroke-width:1.5;" x1="295" x2="467" y1="344" y2="344"/><line style="stroke:#A80036;stroke-width:1.5;" x1="295" x2="467" y1="352" y2="352"/><text fill="#000000" font-family="sans-serif" font-size="11" lengthAdjust="spacingAndGlyphs" textLength="51" x="300" y="367.4189">+UserDB()</text><text fill="#000000" font-family="sans-serif" font-size="11" lengthAdjust="spacingAndGlyphs" textLength="162" x="300" y="381.2549">+login(email,encryptedPassword)</text><!--MD5=[c840dcc083a700c3ead433bcdc35255f]
class EncryptPassword--><rect codeLine="75" fill="#FEFECE" filter="url(#f10mcuyqyjzo0k)" height="61.8359" id="EncryptPassword" style="stroke:#A80036;stroke-width:1.5;" width="184" x="110" y="923"/><ellipse cx="150.2" cy="939" fill="#ADD1B2" rx="11" ry="11" style="stroke:#A80036;stroke-width:1.0;"/><path d="M152.2,935.5 Q152.4031,935 152.6375,934.75 Q152.8719,934.5 153.1375,934.5 Q153.6063,934.5 153.9031,934.7813 Q154.2,935.0625 154.2,935.7188 L154.2,937.2813 Q154.2,937.9375 153.9188,938.2188 Q153.6375,938.5 153.2,938.5 Q152.8094,938.5 152.5594,938.3281 Q152.3094,938.1563 152.2,937.7031 Q152.1531,937.3906 151.9813,937.2188 Q151.6688,936.8906 151.1063,936.7031 Q150.5438,936.5 149.9813,936.5 Q149.2781,936.5 148.6844,936.7813 Q148.1063,937.0625 147.6531,937.6875 Q147.2,938.3125 147.2,939.1719 L147.2,940.0938 Q147.2,941.125 148.0438,941.8125 Q148.8875,942.5 150.3875,942.5 Q151.2781,942.5 151.9031,942.2969 Q152.2625,942.1875 152.6688,941.8281 Q152.9344,941.625 153.075,941.5625 Q153.2156,941.5 153.3875,941.5 Q153.7156,941.5 153.95,941.7656 Q154.2,942.0156 154.2,942.375 Q154.2,942.7188 153.8563,943.125 Q153.3563,943.7188 152.5594,944.0469 Q151.5125,944.5 150.2313,944.5 Q148.7313,944.5 147.5281,943.9063 Q146.5594,943.4375 145.8719,942.4219 Q145.2,941.4063 145.2,940.2031 L145.2,939.1094 Q145.2,937.8594 145.7938,936.7656 Q146.4031,935.6719 147.45,935.0938 Q148.5125,934.5 149.7,934.5 Q150.4188,934.5 151.0438,934.75 Q151.6688,935 152.2,935.5 Z " fill="#000000"/><text fill="#000000" font-family="sans-serif" font-size="12" lengthAdjust="spacingAndGlyphs" textLength="96" x="169.8" y="943.9102">EncryptPassword</text><line style="stroke:#A80036;stroke-width:1.5;" x1="111" x2="293" y1="955" y2="955"/><line style="stroke:#A80036;stroke-width:1.5;" x1="111" x2="293" y1="963" y2="963"/><text fill="#000000" font-family="sans-serif" font-size="11" lengthAdjust="spacingAndGlyphs" textLength="172" x="116" y="978.4189">+encryptPasswordMD5(password)</text><!--MD5=[6eb40b7e2b28e3e84cf68ec0bdf96d8e]
link LoginUI to LoginController--><path codeLine="84" d="M119,90.3 C119,113.64 119,149.86 119,176.73 " fill="none" id="LoginUI-to-LoginController" style="stroke:#A80036;stroke-width:1.0;stroke-dasharray:7.0,7.0;"/><polygon fill="#A80036" points="119,181.97,123,172.97,119,176.97,115,172.97,119,181.97" style="stroke:#A80036;stroke-width:1.0;"/><!--MD5=[69b36f574466151ecf750fcd3277da81]
link LoginController to ApplicationPOT--><path codeLine="85" d="M116.76,244.3 C115.4,262.64 113.64,286.32 112.15,306.52 " fill="none" id="LoginController-to-ApplicationPOT" style="stroke:#A80036;stroke-width:1.0;stroke-dasharray:7.0,7.0;"/><polygon fill="#A80036" points="111.77,311.57,116.4276,302.892,112.1415,306.5838,108.4497,302.2977,111.77,311.57" style="stroke:#A80036;stroke-width:1.0;"/><!--MD5=[fc2872c02b5d48da45ab65c7b0081c05]
link LoginController to UserService--><path codeLine="86" d="M148.57,244.23 C165.92,262.87 187.58,287.76 204,312 C239.34,364.17 226.15,391.8 269,438 C273.61,442.97 277.36,441.05 282,446 C304.42,469.95 321.42,502.97 332.55,529.06 " fill="none" id="LoginController-to-UserService" style="stroke:#A80036;stroke-width:1.0;stroke-dasharray:7.0,7.0;"/><polygon fill="#A80036" points="334.56,533.85,334.78,524.0036,332.6319,529.2367,327.3987,527.0886,334.56,533.85" style="stroke:#A80036;stroke-width:1.0;"/><!--MD5=[e464e140ed95aea9ed19e0a590d36ae3]
link UserService to UserDB--><path codeLine="87" d="M353.57,533.86 C359.39,495.1 368.49,434.39 374.6,393.68 " fill="none" id="UserService-to-UserDB" style="stroke:#A80036;stroke-width:1.0;"/><polygon fill="#A80036" points="375.4,388.32,370.1303,396.6405,374.6709,393.2666,378.0448,397.8071,375.4,388.32" style="stroke:#A80036;stroke-width:1.0;"/><text fill="#000000" font-family="sans-serif" font-size="13" lengthAdjust="spacingAndGlyphs" textLength="21" x="371" y="434.4951">has</text><text fill="#000000" font-family="sans-serif" font-size="13" lengthAdjust="spacingAndGlyphs" textLength="7" x="346.9387" y="523.197">1</text><text fill="#000000" font-family="sans-serif" font-size="13" lengthAdjust="spacingAndGlyphs" textLength="7" x="366.9497" y="409.2515">1</text><!--MD5=[54faeaf6202ca84118f5e1aed125f33a]
link UserDB to UserSession--><path codeLine="88" d="M331.56,388.1 C311.07,404.67 287.75,425.14 269,446 C245.86,471.74 224.01,504.13 208.25,529.49 " fill="none" id="UserDB-to-UserSession" style="stroke:#A80036;stroke-width:1.0;"/><polygon fill="#A80036" points="205.58,533.81,213.7118,528.2536,208.2069,529.5556,206.9048,524.0507,205.58,533.81" style="stroke:#A80036;stroke-width:1.0;"/><text fill="#000000" font-family="sans-serif" font-size="13" lengthAdjust="spacingAndGlyphs" textLength="43" x="295" y="434.4951">creates</text><text fill="#000000" font-family="sans-serif" font-size="13" lengthAdjust="spacingAndGlyphs" textLength="7" x="315.7918" y="409.2867">1</text><text fill="#000000" font-family="sans-serif" font-size="13" lengthAdjust="spacingAndGlyphs" textLength="5" x="203.9786" y="523.1381">*</text><!--MD5=[79cd5c28b7771b7b5adedcf51af82baa]
reverse link DataHandler to UserDB--><path d="M381,271.33 C381,285.05 381,299.34 381,311.87 " fill="none" id="DataHandler-backto-UserDB" style="stroke:#A80036;stroke-width:1.0;"/><polygon fill="none" points="374,271.25,381,251.25,388,271.25,374,271.25" style="stroke:#A80036;stroke-width:1.0;"/><!--MD5=[b9af1f772d12807ca45af06731b7d10f]
link ApplicationPOT to UserSession--><path codeLine="90" d="M121.72,388.32 C135.02,427.31 155.83,488.36 169.69,529.01 " fill="none" id="ApplicationPOT-to-UserSession" style="stroke:#A80036;stroke-width:1.0;"/><polygon fill="#A80036" points="171.34,533.86,172.2178,524.0503,169.7246,529.1281,164.6468,526.635,171.34,533.86" style="stroke:#A80036;stroke-width:1.0;"/><text fill="#000000" font-family="sans-serif" font-size="13" lengthAdjust="spacingAndGlyphs" textLength="21" x="138" y="434.4951">has</text><text fill="#000000" font-family="sans-serif" font-size="13" lengthAdjust="spacingAndGlyphs" textLength="7" x="116.1894" y="409.2515">1</text><text fill="#000000" font-family="sans-serif" font-size="13" lengthAdjust="spacingAndGlyphs" textLength="7" x="161.4615" y="523.197">1</text><!--MD5=[261a9f975a95b8b9805b87baf77053d0]
link UserSession to User--><path codeLine="91" d="M187.69,610.17 C189.82,631.65 192.57,659.39 195.09,684.79 " fill="none" id="UserSession-to-User" style="stroke:#A80036;stroke-width:1.0;"/><polygon fill="#A80036" points="195.59,689.84,198.672,680.4858,195.0911,684.865,190.7119,681.2841,195.59,689.84" style="stroke:#A80036;stroke-width:1.0;"/><text fill="#000000" font-family="sans-serif" font-size="13" lengthAdjust="spacingAndGlyphs" textLength="52" x="193" y="656.4951">allocates</text><text fill="#000000" font-family="sans-serif" font-size="13" lengthAdjust="spacingAndGlyphs" textLength="7" x="180.7203" y="631.0776">1</text><text fill="#000000" font-family="sans-serif" font-size="13" lengthAdjust="spacingAndGlyphs" textLength="7" x="187.5061" y="679.2969">1</text><!--MD5=[f3011274975ebac28a81eb7ea4ca3cdc]
link User to EncryptPassword--><path codeLine="92" d="M202,821.11 C202,853.2 202,890.74 202,917.54 " fill="none" id="User-to-EncryptPassword" style="stroke:#A80036;stroke-width:1.0;stroke-dasharray:7.0,7.0;"/><polygon fill="#A80036" points="202,922.75,206,913.75,202,917.75,198,913.75,202,922.75" style="stroke:#A80036;stroke-width:1.0;"/><text fill="#000000" font-family="sans-serif" font-size="13" lengthAdjust="spacingAndGlyphs" textLength="85" x="203" y="867.4951">encrypts using</text><!--MD5=[79c7f850caad6c0b457a9a49c9ca93e6]
@startuml
skinparam classAttributeIconSize 0


package "Controller" #DDDDDD {
class ApplicationPOT
{
  +static getInstance()
  +setCurrentSession(session)
}
}


package "UI" #DDDDDD {
class LoginUI{

}
}


package "Controller" #DDDDDD {
class LoginController{
+login(email,password)
}
}






package "Model" #DDDDDD {
abstract class User{
-Integer id
-String email
-String password
-Integer nif
-String name
+User(email,password,nif,name)
}

package "Service" #DDDDDD {

class UserService {
+UserService()
+login(email,password)
}

}

class UserSession{
-String email
+UserSession(email,role)
}




}


package "Data" #DDDDDD {
class DataHandler{
+openConnection()
+closeAll()
}

 class UserDB{
 +UserDB()
 +login(email,encryptedPassword)
 }

}

package "Utils" #DDDDDD {
class EncryptPassword {
+encryptPasswordMD5(password)
}

}




LoginUI ..> LoginController
LoginController ..> ApplicationPOT
LoginController ..> UserService
UserService "1" - -> "1" UserDB : has
UserDB "1" - -> "*" UserSession : creates
class UserDB extends DataHandler
ApplicationPOT "1" - -> "1" UserSession : has
UserSession "1" - -> "1" User : allocates
User ..> EncryptPassword : encrypts using

@enduml

PlantUML version 1.2020.23(Sun Dec 13 19:14:58 GMT 2020)
(GPL source distribution)
Java Runtime: OpenJDK Runtime Environment
JVM: OpenJDK 64-Bit Server VM
Default Encoding: Cp1252
Language: pt
Country: PT
--></g></svg>