<?xml version="1.0" encoding="UTF-8" standalone="no"?><svg xmlns="http://www.w3.org/2000/svg" xmlns:xlink="http://www.w3.org/1999/xlink" contentScriptType="application/ecmascript" contentStyleType="text/css" height="830px" preserveAspectRatio="none" style="width:805px;height:830px;" version="1.1" viewBox="0 0 805 830" width="805px" zoomAndPan="magnify"><defs><filter height="300%" id="fbaai2k8saljt" width="300%" x="-1" y="-1"><feGaussianBlur result="blurOut" stdDeviation="2.0"/><feColorMatrix in="blurOut" result="blurOut2" type="matrix" values="0 0 0 0 0 0 0 0 0 0 0 0 0 0 0 0 0 0 .4 0"/><feOffset dx="4.0" dy="4.0" in="blurOut2" result="blurOut3"/><feBlend in="SourceGraphic" in2="blurOut3" mode="normal"/></filter></defs><g><!--MD5=[1f2cfc53d9d308f53762fd0fcbaa4873]
cluster Controller--><polygon fill="#DDDDDD" filter="url(#fbaai2k8saljt)" points="217,139,294,139,301,162.6094,403,162.6094,403,390,217,390,217,139" style="stroke:#000000;stroke-width:1.5;"/><line style="stroke:#000000;stroke-width:1.5;" x1="217" x2="301" y1="162.6094" y2="162.6094"/><text fill="#000000" font-family="sans-serif" font-size="14" font-weight="bold" lengthAdjust="spacing" textLength="71" x="221" y="155.5332">Controller</text><!--MD5=[9681dc6e01e10c6b4fe06895ae94f592]
cluster UI--><polygon fill="#DDDDDD" filter="url(#fbaai2k8saljt)" points="238,6,258,6,265,29.6094,382,29.6094,382,106,238,106,238,6" style="stroke:#000000;stroke-width:1.5;"/><line style="stroke:#000000;stroke-width:1.5;" x1="238" x2="265" y1="29.6094" y2="29.6094"/><text fill="#000000" font-family="sans-serif" font-size="14" font-weight="bold" lengthAdjust="spacing" textLength="14" x="242" y="22.5332">UI</text><!--MD5=[15636c1ca4a123c16a2a1a8e90aca7a9]
cluster Model--><polygon fill="#DDDDDD" filter="url(#fbaai2k8saljt)" points="190,440,240,440,247,463.6094,557,463.6094,557,636,190,636,190,440" style="stroke:#000000;stroke-width:1.5;"/><line style="stroke:#000000;stroke-width:1.5;" x1="190" x2="247" y1="463.6094" y2="463.6094"/><text fill="#000000" font-family="sans-serif" font-size="14" font-weight="bold" lengthAdjust="spacing" textLength="44" x="194" y="456.5332">Model</text><!--MD5=[9dd75fd92da113d30380b27734fd2f01]
cluster Service--><polygon fill="#DDDDDD" filter="url(#fbaai2k8saljt)" points="359,484,419,484,426,507.6094,533,507.6094,533,612,359,612,359,484" style="stroke:#000000;stroke-width:1.5;"/><line style="stroke:#000000;stroke-width:1.5;" x1="359" x2="426" y1="507.6094" y2="507.6094"/><text fill="#000000" font-family="sans-serif" font-size="14" font-weight="bold" lengthAdjust="spacing" textLength="54" x="363" y="500.5332">Service</text><!--MD5=[f21b1f164e99c6b37934f23ad048ad54]
cluster Data--><polygon fill="#DDDDDD" filter="url(#fbaai2k8saljt)" points="16,484,53,484,60,507.6094,166,507.6094,166,823,16,823,16,484" style="stroke:#000000;stroke-width:1.5;"/><line style="stroke:#000000;stroke-width:1.5;" x1="16" x2="60" y1="507.6094" y2="507.6094"/><text fill="#000000" font-family="sans-serif" font-size="14" font-weight="bold" lengthAdjust="spacing" textLength="31" x="20" y="500.5332">Data</text><!--MD5=[7e40339c58605559321960399585b560]
cluster Utils--><polygon fill="#DDDDDD" filter="url(#fbaai2k8saljt)" points="227,702,264,702,271,725.6094,788,725.6094,788,816,227,816,227,702" style="stroke:#000000;stroke-width:1.5;"/><line style="stroke:#000000;stroke-width:1.5;" x1="227" x2="271" y1="725.6094" y2="725.6094"/><text fill="#000000" font-family="sans-serif" font-size="14" font-weight="bold" lengthAdjust="spacing" textLength="31" x="231" y="718.5332">Utils</text><!--MD5=[e45a4727c47b726c25e081782e8bc183]
class ApplicationPOT--><rect codeLine="5" fill="#FEFECE" filter="url(#fbaai2k8saljt)" height="75.6719" id="ApplicationPOT" style="stroke:#A80036;stroke-width:1.5;" width="116" x="238" y="298"/><ellipse cx="253" cy="314" fill="#ADD1B2" rx="11" ry="11" style="stroke:#A80036;stroke-width:1.0;"/><path d="M255,310.5 Q255.2031,310 255.4375,309.75 Q255.6719,309.5 255.9375,309.5 Q256.4063,309.5 256.7031,309.7813 Q257,310.0625 257,310.7188 L257,312.2813 Q257,312.9375 256.7188,313.2188 Q256.4375,313.5 256,313.5 Q255.6094,313.5 255.3594,313.3281 Q255.1094,313.1563 255,312.7031 Q254.9531,312.3906 254.7813,312.2188 Q254.4688,311.8906 253.9063,311.7031 Q253.3438,311.5 252.7813,311.5 Q252.0781,311.5 251.4844,311.7813 Q250.9063,312.0625 250.4531,312.6875 Q250,313.3125 250,314.1719 L250,315.0938 Q250,316.125 250.8438,316.8125 Q251.6875,317.5 253.1875,317.5 Q254.0781,317.5 254.7031,317.2969 Q255.0625,317.1875 255.4688,316.8281 Q255.7344,316.625 255.875,316.5625 Q256.0156,316.5 256.1875,316.5 Q256.5156,316.5 256.75,316.7656 Q257,317.0156 257,317.375 Q257,317.7188 256.6563,318.125 Q256.1563,318.7188 255.3594,319.0469 Q254.3125,319.5 253.0313,319.5 Q251.5313,319.5 250.3281,318.9063 Q249.3594,318.4375 248.6719,317.4219 Q248,316.4063 248,315.2031 L248,314.1094 Q248,312.8594 248.5938,311.7656 Q249.2031,310.6719 250.25,310.0938 Q251.3125,309.5 252.5,309.5 Q253.2188,309.5 253.8438,309.75 Q254.4688,310 255,310.5 Z " fill="#000000"/><text fill="#000000" font-family="sans-serif" font-size="12" lengthAdjust="spacing" textLength="84" x="267" y="318.9102">ApplicationPOT</text><line style="stroke:#A80036;stroke-width:1.5;" x1="239" x2="353" y1="330" y2="330"/><line style="stroke:#A80036;stroke-width:1.5;" x1="239" x2="353" y1="338" y2="338"/><text fill="#000000" font-family="sans-serif" font-size="11" lengthAdjust="spacing" textLength="99" x="244" y="353.4189">+static getInstance()</text><text fill="#000000" font-family="sans-serif" font-size="11" lengthAdjust="spacing" textLength="104" x="244" y="367.2549">+getCurrentSession()</text><!--MD5=[fe3052a8410003ac3908e602f42dc854]
class ParkScooterController--><rect codeLine="21" fill="#FEFECE" filter="url(#fbaai2k8saljt)" height="61.8359" id="ParkScooterController" style="stroke:#A80036;stroke-width:1.5;" width="153" x="233.5" y="175"/><ellipse cx="248.5" cy="191" fill="#ADD1B2" rx="11" ry="11" style="stroke:#A80036;stroke-width:1.0;"/><path d="M250.5,187.5 Q250.7031,187 250.9375,186.75 Q251.1719,186.5 251.4375,186.5 Q251.9063,186.5 252.2031,186.7813 Q252.5,187.0625 252.5,187.7188 L252.5,189.2813 Q252.5,189.9375 252.2188,190.2188 Q251.9375,190.5 251.5,190.5 Q251.1094,190.5 250.8594,190.3281 Q250.6094,190.1563 250.5,189.7031 Q250.4531,189.3906 250.2813,189.2188 Q249.9688,188.8906 249.4063,188.7031 Q248.8438,188.5 248.2813,188.5 Q247.5781,188.5 246.9844,188.7813 Q246.4063,189.0625 245.9531,189.6875 Q245.5,190.3125 245.5,191.1719 L245.5,192.0938 Q245.5,193.125 246.3438,193.8125 Q247.1875,194.5 248.6875,194.5 Q249.5781,194.5 250.2031,194.2969 Q250.5625,194.1875 250.9688,193.8281 Q251.2344,193.625 251.375,193.5625 Q251.5156,193.5 251.6875,193.5 Q252.0156,193.5 252.25,193.7656 Q252.5,194.0156 252.5,194.375 Q252.5,194.7188 252.1563,195.125 Q251.6563,195.7188 250.8594,196.0469 Q249.8125,196.5 248.5313,196.5 Q247.0313,196.5 245.8281,195.9063 Q244.8594,195.4375 244.1719,194.4219 Q243.5,193.4063 243.5,192.2031 L243.5,191.1094 Q243.5,189.8594 244.0938,188.7656 Q244.7031,187.6719 245.75,187.0938 Q246.8125,186.5 248,186.5 Q248.7188,186.5 249.3438,186.75 Q249.9688,187 250.5,187.5 Z " fill="#000000"/><text fill="#000000" font-family="sans-serif" font-size="12" lengthAdjust="spacing" textLength="121" x="262.5" y="195.9102">ParkScooterController</text><line style="stroke:#A80036;stroke-width:1.5;" x1="234.5" x2="385.5" y1="207" y2="207"/><line style="stroke:#A80036;stroke-width:1.5;" x1="234.5" x2="385.5" y1="215" y2="215"/><text fill="#000000" font-family="sans-serif" font-size="11" lengthAdjust="spacing" textLength="130" x="239.5" y="230.4189">+parkScooter(intIdScooter)</text><!--MD5=[4088514760ef793873d467f4f01d330c]
class ParkScooterUI--><rect codeLine="14" fill="#FEFECE" filter="url(#fbaai2k8saljt)" height="48" id="ParkScooterUI" style="stroke:#A80036;stroke-width:1.5;" width="111" x="254.5" y="42"/><ellipse cx="269.5" cy="58" fill="#ADD1B2" rx="11" ry="11" style="stroke:#A80036;stroke-width:1.0;"/><path d="M271.5,54.5 Q271.7031,54 271.9375,53.75 Q272.1719,53.5 272.4375,53.5 Q272.9063,53.5 273.2031,53.7813 Q273.5,54.0625 273.5,54.7188 L273.5,56.2813 Q273.5,56.9375 273.2188,57.2188 Q272.9375,57.5 272.5,57.5 Q272.1094,57.5 271.8594,57.3281 Q271.6094,57.1563 271.5,56.7031 Q271.4531,56.3906 271.2813,56.2188 Q270.9688,55.8906 270.4063,55.7031 Q269.8438,55.5 269.2813,55.5 Q268.5781,55.5 267.9844,55.7813 Q267.4063,56.0625 266.9531,56.6875 Q266.5,57.3125 266.5,58.1719 L266.5,59.0938 Q266.5,60.125 267.3438,60.8125 Q268.1875,61.5 269.6875,61.5 Q270.5781,61.5 271.2031,61.2969 Q271.5625,61.1875 271.9688,60.8281 Q272.2344,60.625 272.375,60.5625 Q272.5156,60.5 272.6875,60.5 Q273.0156,60.5 273.25,60.7656 Q273.5,61.0156 273.5,61.375 Q273.5,61.7188 273.1563,62.125 Q272.6563,62.7188 271.8594,63.0469 Q270.8125,63.5 269.5313,63.5 Q268.0313,63.5 266.8281,62.9063 Q265.8594,62.4375 265.1719,61.4219 Q264.5,60.4063 264.5,59.2031 L264.5,58.1094 Q264.5,56.8594 265.0938,55.7656 Q265.7031,54.6719 266.75,54.0938 Q267.8125,53.5 269,53.5 Q269.7188,53.5 270.3438,53.75 Q270.9688,54 271.5,54.5 Z " fill="#000000"/><text fill="#000000" font-family="sans-serif" font-size="12" lengthAdjust="spacing" textLength="79" x="283.5" y="62.9102">ParkScooterUI</text><line style="stroke:#A80036;stroke-width:1.5;" x1="255.5" x2="364.5" y1="74" y2="74"/><line style="stroke:#A80036;stroke-width:1.5;" x1="255.5" x2="364.5" y1="82" y2="82"/><!--MD5=[c5b08e60048ef1bcd788d24cf324082e]
class UserSession--><rect codeLine="43" fill="#FEFECE" filter="url(#fbaai2k8saljt)" height="103.3438" id="UserSession" style="stroke:#A80036;stroke-width:1.5;" width="133" x="206.5" y="506.5"/><ellipse cx="234.1" cy="522.5" fill="#ADD1B2" rx="11" ry="11" style="stroke:#A80036;stroke-width:1.0;"/><path d="M236.1,519 Q236.3031,518.5 236.5375,518.25 Q236.7719,518 237.0375,518 Q237.5063,518 237.8031,518.2813 Q238.1,518.5625 238.1,519.2188 L238.1,520.7813 Q238.1,521.4375 237.8188,521.7188 Q237.5375,522 237.1,522 Q236.7094,522 236.4594,521.8281 Q236.2094,521.6563 236.1,521.2031 Q236.0531,520.8906 235.8813,520.7188 Q235.5688,520.3906 235.0063,520.2031 Q234.4438,520 233.8813,520 Q233.1781,520 232.5844,520.2813 Q232.0063,520.5625 231.5531,521.1875 Q231.1,521.8125 231.1,522.6719 L231.1,523.5938 Q231.1,524.625 231.9438,525.3125 Q232.7875,526 234.2875,526 Q235.1781,526 235.8031,525.7969 Q236.1625,525.6875 236.5688,525.3281 Q236.8344,525.125 236.975,525.0625 Q237.1156,525 237.2875,525 Q237.6156,525 237.85,525.2656 Q238.1,525.5156 238.1,525.875 Q238.1,526.2188 237.7563,526.625 Q237.2563,527.2188 236.4594,527.5469 Q235.4125,528 234.1313,528 Q232.6313,528 231.4281,527.4063 Q230.4594,526.9375 229.7719,525.9219 Q229.1,524.9063 229.1,523.7031 L229.1,522.6094 Q229.1,521.3594 229.6938,520.2656 Q230.3031,519.1719 231.35,518.5938 Q232.4125,518 233.6,518 Q234.3188,518 234.9438,518.25 Q235.5688,518.5 236.1,519 Z " fill="#000000"/><text fill="#000000" font-family="sans-serif" font-size="12" lengthAdjust="spacing" textLength="73" x="250.9" y="527.4102">UserSession</text><line style="stroke:#A80036;stroke-width:1.5;" x1="207.5" x2="338.5" y1="538.5" y2="538.5"/><text fill="#000000" font-family="sans-serif" font-size="11" lengthAdjust="spacing" textLength="59" x="212.5" y="553.9189">-String email</text><text fill="#000000" font-family="sans-serif" font-size="11" lengthAdjust="spacing" textLength="46" x="212.5" y="567.7549">-Role role</text><line style="stroke:#A80036;stroke-width:1.5;" x1="207.5" x2="338.5" y1="574.1719" y2="574.1719"/><text fill="#000000" font-family="sans-serif" font-size="11" lengthAdjust="spacing" textLength="121" x="212.5" y="589.5908">+UserSession(email,role)</text><text fill="#000000" font-family="sans-serif" font-size="11" lengthAdjust="spacing" textLength="50" x="212.5" y="603.4268">+getRole()</text><!--MD5=[3b6a694fa07a791a99958c0d423d4693]
class CourierService--><rect codeLine="36" fill="#FEFECE" filter="url(#fbaai2k8saljt)" height="75.6719" id="CourierService" style="stroke:#A80036;stroke-width:1.5;" width="142" x="375" y="520"/><ellipse cx="403.05" cy="536" fill="#ADD1B2" rx="11" ry="11" style="stroke:#A80036;stroke-width:1.0;"/><path d="M405.05,532.5 Q405.2531,532 405.4875,531.75 Q405.7219,531.5 405.9875,531.5 Q406.4563,531.5 406.7531,531.7813 Q407.05,532.0625 407.05,532.7188 L407.05,534.2813 Q407.05,534.9375 406.7688,535.2188 Q406.4875,535.5 406.05,535.5 Q405.6594,535.5 405.4094,535.3281 Q405.1594,535.1563 405.05,534.7031 Q405.0031,534.3906 404.8313,534.2188 Q404.5188,533.8906 403.9563,533.7031 Q403.3938,533.5 402.8313,533.5 Q402.1281,533.5 401.5344,533.7813 Q400.9563,534.0625 400.5031,534.6875 Q400.05,535.3125 400.05,536.1719 L400.05,537.0938 Q400.05,538.125 400.8938,538.8125 Q401.7375,539.5 403.2375,539.5 Q404.1281,539.5 404.7531,539.2969 Q405.1125,539.1875 405.5188,538.8281 Q405.7844,538.625 405.925,538.5625 Q406.0656,538.5 406.2375,538.5 Q406.5656,538.5 406.8,538.7656 Q407.05,539.0156 407.05,539.375 Q407.05,539.7188 406.7063,540.125 Q406.2063,540.7188 405.4094,541.0469 Q404.3625,541.5 403.0813,541.5 Q401.5813,541.5 400.3781,540.9063 Q399.4094,540.4375 398.7219,539.4219 Q398.05,538.4063 398.05,537.2031 L398.05,536.1094 Q398.05,534.8594 398.6438,533.7656 Q399.2531,532.6719 400.3,532.0938 Q401.3625,531.5 402.55,531.5 Q403.2688,531.5 403.8938,531.75 Q404.5188,532 405.05,532.5 Z " fill="#000000"/><text fill="#000000" font-family="sans-serif" font-size="12" lengthAdjust="spacing" textLength="81" x="419.95" y="540.9102">CourierService</text><line style="stroke:#A80036;stroke-width:1.5;" x1="376" x2="516" y1="552" y2="552"/><line style="stroke:#A80036;stroke-width:1.5;" x1="376" x2="516" y1="560" y2="560"/><text fill="#000000" font-family="sans-serif" font-size="11" lengthAdjust="spacing" textLength="86" x="381" y="575.4189">+CourierService()</text><text fill="#000000" font-family="sans-serif" font-size="11" lengthAdjust="spacing" textLength="130" x="381" y="589.2549">+parkScooter(intIdScooter)</text><!--MD5=[4b2d61224b33971326a22fe5d809d926]
class DataHandler--><rect codeLine="57" fill="#FEFECE" filter="url(#fbaai2k8saljt)" height="75.6719" id="DataHandler" style="stroke:#A80036;stroke-width:1.5;" width="104" x="39" y="520"/><ellipse cx="54.9" cy="536" fill="#ADD1B2" rx="11" ry="11" style="stroke:#A80036;stroke-width:1.0;"/><path d="M56.9,532.5 Q57.1031,532 57.3375,531.75 Q57.5719,531.5 57.8375,531.5 Q58.3063,531.5 58.6031,531.7813 Q58.9,532.0625 58.9,532.7188 L58.9,534.2813 Q58.9,534.9375 58.6188,535.2188 Q58.3375,535.5 57.9,535.5 Q57.5094,535.5 57.2594,535.3281 Q57.0094,535.1563 56.9,534.7031 Q56.8531,534.3906 56.6813,534.2188 Q56.3688,533.8906 55.8063,533.7031 Q55.2438,533.5 54.6813,533.5 Q53.9781,533.5 53.3844,533.7813 Q52.8063,534.0625 52.3531,534.6875 Q51.9,535.3125 51.9,536.1719 L51.9,537.0938 Q51.9,538.125 52.7438,538.8125 Q53.5875,539.5 55.0875,539.5 Q55.9781,539.5 56.6031,539.2969 Q56.9625,539.1875 57.3688,538.8281 Q57.6344,538.625 57.775,538.5625 Q57.9156,538.5 58.0875,538.5 Q58.4156,538.5 58.65,538.7656 Q58.9,539.0156 58.9,539.375 Q58.9,539.7188 58.5563,540.125 Q58.0563,540.7188 57.2594,541.0469 Q56.2125,541.5 54.9313,541.5 Q53.4313,541.5 52.2281,540.9063 Q51.2594,540.4375 50.5719,539.4219 Q49.9,538.4063 49.9,537.2031 L49.9,536.1094 Q49.9,534.8594 50.4938,533.7656 Q51.1031,532.6719 52.15,532.0938 Q53.2125,531.5 54.4,531.5 Q55.1188,531.5 55.7438,531.75 Q56.3688,532 56.9,532.5 Z " fill="#000000"/><text fill="#000000" font-family="sans-serif" font-size="12" lengthAdjust="spacing" textLength="70" x="69.1" y="540.9102">DataHandler</text><line style="stroke:#A80036;stroke-width:1.5;" x1="40" x2="142" y1="552" y2="552"/><line style="stroke:#A80036;stroke-width:1.5;" x1="40" x2="142" y1="560" y2="560"/><text fill="#000000" font-family="sans-serif" font-size="11" lengthAdjust="spacing" textLength="92" x="45" y="575.4189">+openConnection()</text><text fill="#000000" font-family="sans-serif" font-size="11" lengthAdjust="spacing" textLength="52" x="45" y="589.2549">+closeAll()</text><!--MD5=[17a3ebf5611c1ba9c6fd429f5d0d77a4]
class CourierDB--><rect codeLine="91" fill="#FEFECE" filter="url(#fbaai2k8saljt)" height="75.6719" id="CourierDB" style="stroke:#A80036;stroke-width:1.5;" width="118" x="32" y="731"/><ellipse cx="59.6" cy="747" fill="#ADD1B2" rx="11" ry="11" style="stroke:#A80036;stroke-width:1.0;"/><path d="M61.6,743.5 Q61.8031,743 62.0375,742.75 Q62.2719,742.5 62.5375,742.5 Q63.0063,742.5 63.3031,742.7813 Q63.6,743.0625 63.6,743.7188 L63.6,745.2813 Q63.6,745.9375 63.3188,746.2188 Q63.0375,746.5 62.6,746.5 Q62.2094,746.5 61.9594,746.3281 Q61.7094,746.1563 61.6,745.7031 Q61.5531,745.3906 61.3813,745.2188 Q61.0688,744.8906 60.5063,744.7031 Q59.9438,744.5 59.3813,744.5 Q58.6781,744.5 58.0844,744.7813 Q57.5063,745.0625 57.0531,745.6875 Q56.6,746.3125 56.6,747.1719 L56.6,748.0938 Q56.6,749.125 57.4438,749.8125 Q58.2875,750.5 59.7875,750.5 Q60.6781,750.5 61.3031,750.2969 Q61.6625,750.1875 62.0688,749.8281 Q62.3344,749.625 62.475,749.5625 Q62.6156,749.5 62.7875,749.5 Q63.1156,749.5 63.35,749.7656 Q63.6,750.0156 63.6,750.375 Q63.6,750.7188 63.2563,751.125 Q62.7563,751.7188 61.9594,752.0469 Q60.9125,752.5 59.6313,752.5 Q58.1313,752.5 56.9281,751.9063 Q55.9594,751.4375 55.2719,750.4219 Q54.6,749.4063 54.6,748.2031 L54.6,747.1094 Q54.6,745.8594 55.1938,744.7656 Q55.8031,743.6719 56.85,743.0938 Q57.9125,742.5 59.1,742.5 Q59.8188,742.5 60.4438,742.75 Q61.0688,743 61.6,743.5 Z " fill="#000000"/><text fill="#000000" font-family="sans-serif" font-size="12" lengthAdjust="spacing" textLength="58" x="76.4" y="751.9102">CourierDB</text><line style="stroke:#A80036;stroke-width:1.5;" x1="33" x2="149" y1="763" y2="763"/><line style="stroke:#A80036;stroke-width:1.5;" x1="33" x2="149" y1="771" y2="771"/><text fill="#000000" font-family="sans-serif" font-size="11" lengthAdjust="spacing" textLength="63" x="38" y="786.4189">+CourierDB()</text><text fill="#000000" font-family="sans-serif" font-size="11" lengthAdjust="spacing" textLength="106" x="38" y="800.2549">+parkScooter(int intId)</text><!--MD5=[96aa6ccdb1b9b51634446e45f16a94dc]
class DirectoryVerification--><rect codeLine="71" fill="#FEFECE" filter="url(#fbaai2k8saljt)" height="61.8359" id="DirectoryVerification" style="stroke:#A80036;stroke-width:1.5;" width="330" x="243" y="738"/><ellipse cx="349.75" cy="754" fill="#ADD1B2" rx="11" ry="11" style="stroke:#A80036;stroke-width:1.0;"/><path d="M351.75,750.5 Q351.9531,750 352.1875,749.75 Q352.4219,749.5 352.6875,749.5 Q353.1563,749.5 353.4531,749.7813 Q353.75,750.0625 353.75,750.7188 L353.75,752.2813 Q353.75,752.9375 353.4688,753.2188 Q353.1875,753.5 352.75,753.5 Q352.3594,753.5 352.1094,753.3281 Q351.8594,753.1563 351.75,752.7031 Q351.7031,752.3906 351.5313,752.2188 Q351.2188,751.8906 350.6563,751.7031 Q350.0938,751.5 349.5313,751.5 Q348.8281,751.5 348.2344,751.7813 Q347.6563,752.0625 347.2031,752.6875 Q346.75,753.3125 346.75,754.1719 L346.75,755.0938 Q346.75,756.125 347.5938,756.8125 Q348.4375,757.5 349.9375,757.5 Q350.8281,757.5 351.4531,757.2969 Q351.8125,757.1875 352.2188,756.8281 Q352.4844,756.625 352.625,756.5625 Q352.7656,756.5 352.9375,756.5 Q353.2656,756.5 353.5,756.7656 Q353.75,757.0156 353.75,757.375 Q353.75,757.7188 353.4063,758.125 Q352.9063,758.7188 352.1094,759.0469 Q351.0625,759.5 349.7813,759.5 Q348.2813,759.5 347.0781,758.9063 Q346.1094,758.4375 345.4219,757.4219 Q344.75,756.4063 344.75,755.2031 L344.75,754.1094 Q344.75,752.8594 345.3438,751.7656 Q345.9531,750.6719 347,750.0938 Q348.0625,749.5 349.25,749.5 Q349.9688,749.5 350.5938,749.75 Q351.2188,750 351.75,750.5 Z " fill="#000000"/><text fill="#000000" font-family="sans-serif" font-size="12" lengthAdjust="spacing" textLength="108" x="370.25" y="758.9102">DirectoryVerification</text><line style="stroke:#A80036;stroke-width:1.5;" x1="244" x2="572" y1="770" y2="770"/><line style="stroke:#A80036;stroke-width:1.5;" x1="244" x2="572" y1="778" y2="778"/><text fill="#000000" font-family="sans-serif" font-size="11" lengthAdjust="spacing" textLength="318" x="249" y="793.4189">+verifyFileCreation(estimateFilePath, estimateFileFilter, timeToTest)</text><!--MD5=[dbd744789a27dfb7a38205596e031569]
class EmailSender--><rect codeLine="75" fill="#FEFECE" filter="url(#fbaai2k8saljt)" height="61.8359" id="EmailSender" style="stroke:#A80036;stroke-width:1.5;" width="163" x="608.5" y="738"/><ellipse cx="650.05" cy="754" fill="#ADD1B2" rx="11" ry="11" style="stroke:#A80036;stroke-width:1.0;"/><path d="M652.05,750.5 Q652.2531,750 652.4875,749.75 Q652.7219,749.5 652.9875,749.5 Q653.4563,749.5 653.7531,749.7813 Q654.05,750.0625 654.05,750.7188 L654.05,752.2813 Q654.05,752.9375 653.7688,753.2188 Q653.4875,753.5 653.05,753.5 Q652.6594,753.5 652.4094,753.3281 Q652.1594,753.1563 652.05,752.7031 Q652.0031,752.3906 651.8313,752.2188 Q651.5188,751.8906 650.9563,751.7031 Q650.3938,751.5 649.8313,751.5 Q649.1281,751.5 648.5344,751.7813 Q647.9563,752.0625 647.5031,752.6875 Q647.05,753.3125 647.05,754.1719 L647.05,755.0938 Q647.05,756.125 647.8938,756.8125 Q648.7375,757.5 650.2375,757.5 Q651.1281,757.5 651.7531,757.2969 Q652.1125,757.1875 652.5188,756.8281 Q652.7844,756.625 652.925,756.5625 Q653.0656,756.5 653.2375,756.5 Q653.5656,756.5 653.8,756.7656 Q654.05,757.0156 654.05,757.375 Q654.05,757.7188 653.7063,758.125 Q653.2063,758.7188 652.4094,759.0469 Q651.3625,759.5 650.0813,759.5 Q648.5813,759.5 647.3781,758.9063 Q646.4094,758.4375 645.7219,757.4219 Q645.05,756.4063 645.05,755.2031 L645.05,754.1094 Q645.05,752.8594 645.6438,751.7656 Q646.2531,750.6719 647.3,750.0938 Q648.3625,749.5 649.55,749.5 Q650.2688,749.5 650.8938,749.75 Q651.5188,750 652.05,750.5 Z " fill="#000000"/><text fill="#000000" font-family="sans-serif" font-size="12" lengthAdjust="spacing" textLength="72" x="669.95" y="758.9102">EmailSender</text><line style="stroke:#A80036;stroke-width:1.5;" x1="609.5" x2="770.5" y1="770" y2="770"/><line style="stroke:#A80036;stroke-width:1.5;" x1="609.5" x2="770.5" y1="778" y2="778"/><text fill="#000000" font-family="sans-serif" font-size="11" lengthAdjust="spacing" textLength="151" x="614.5" y="793.4189">+sendEmail(email,subject,body)</text><!--MD5=[128d05ab52bb2337d9984b2b419ae39d]
link ParkScooterUI to ParkScooterController--><path codeLine="85" d="M310,90.1 C310,111.8 310,144.6 310,169.6 " fill="none" id="ParkScooterUI-to-ParkScooterController" style="stroke:#A80036;stroke-width:1.0;stroke-dasharray:7.0,7.0;"/><polygon fill="#A80036" points="310,174.81,314,165.81,310,169.81,306,165.81,310,174.81" style="stroke:#A80036;stroke-width:1.0;"/><!--MD5=[2e11866cfafc0f5b10e4033df65838d2]
link ParkScooterController to ApplicationPOT--><path codeLine="86" d="M306.72,237.01 C304.9,253.63 302.61,274.55 300.62,292.79 " fill="none" id="ParkScooterController-to-ApplicationPOT" style="stroke:#A80036;stroke-width:1.0;stroke-dasharray:7.0,7.0;"/><polygon fill="#A80036" points="300.06,297.85,305.0133,289.3374,300.6028,292.8795,297.0606,288.469,300.06,297.85" style="stroke:#A80036;stroke-width:1.0;"/><!--MD5=[519893f4fc0ef99871d7be65bb988b08]
link ParkScooterController to CourierService--><path codeLine="87" d="M334.12,237.1 C346.84,254.16 361.86,276.36 372,298 C406.02,370.61 427.67,462.15 438.25,514.68 " fill="none" id="ParkScooterController-to-CourierService" style="stroke:#A80036;stroke-width:1.0;stroke-dasharray:7.0,7.0;"/><polygon fill="#A80036" points="439.24,519.64,441.4134,510.034,438.2677,514.7355,433.5662,511.5897,439.24,519.64" style="stroke:#A80036;stroke-width:1.0;"/><!--MD5=[89b25d1c9bf6553681a153895b89905c]
link CourierService to CourierDB--><path codeLine="88" d="M420.25,596.05 C407.13,612.63 389.96,631.28 371,644 C314.74,681.75 288.96,666.61 227,694 C202.8,704.7 177.1,718.11 154.64,730.57 " fill="none" id="CourierService-to-CourierDB" style="stroke:#A80036;stroke-width:1.0;"/><polygon fill="#A80036" points="150.19,733.05,159.9978,732.1514,154.5547,730.6109,156.0952,725.1678,150.19,733.05" style="stroke:#A80036;stroke-width:1.0;"/><text fill="#000000" font-family="sans-serif" font-size="13" lengthAdjust="spacing" textLength="21" x="359" y="674.4951">has</text><text fill="#000000" font-family="sans-serif" font-size="13" lengthAdjust="spacing" textLength="7" x="408.4055" y="617.2284">1</text><text fill="#000000" font-family="sans-serif" font-size="13" lengthAdjust="spacing" textLength="7" x="157.8303" y="725.2301">1</text><!--MD5=[3bd682892631c735a82641e2e7864fb1]
link CourierService to EmailSender--><path codeLine="89" d="M489.34,596.12 C535.2,635.41 606.92,696.84 651.04,734.63 " fill="none" id="CourierService-to-EmailSender" style="stroke:#A80036;stroke-width:1.0;"/><polygon fill="#A80036" points="654.96,737.99,650.7271,729.0972,651.1627,734.7372,645.5226,735.1728,654.96,737.99" style="stroke:#A80036;stroke-width:1.0;"/><text fill="#000000" font-family="sans-serif" font-size="13" lengthAdjust="spacing" textLength="105" x="590" y="674.4951">sends email using</text><text fill="#000000" font-family="sans-serif" font-size="13" lengthAdjust="spacing" textLength="7" x="488.9385" y="617.31">1</text><text fill="#000000" font-family="sans-serif" font-size="13" lengthAdjust="spacing" textLength="7" x="639.5294" y="727.0081">1</text><!--MD5=[96990dd9af36dc95a54eebcc18a4f55e]
link CourierService to DirectoryVerification--><path codeLine="90" d="M439.21,596.37 C432.18,635.02 421.29,694.93 414.4,732.77 " fill="none" id="CourierService-to-DirectoryVerification" style="stroke:#A80036;stroke-width:1.0;"/><polygon fill="#A80036" points="413.5,737.74,419.0559,729.6078,414.4007,732.8218,411.1867,728.1667,413.5,737.74" style="stroke:#A80036;stroke-width:1.0;"/><text fill="#000000" font-family="sans-serif" font-size="13" lengthAdjust="spacing" textLength="112" x="429" y="666.4951">checks file creation</text><text fill="#000000" font-family="sans-serif" font-size="13" lengthAdjust="spacing" textLength="31" x="469.5" y="682.8467">using</text><text fill="#000000" font-family="sans-serif" font-size="13" lengthAdjust="spacing" textLength="7" x="430.57" y="617.3095">1</text><text fill="#000000" font-family="sans-serif" font-size="13" lengthAdjust="spacing" textLength="7" x="406.9125" y="727.1909">1</text><!--MD5=[480dfbb70e72da71ac7a75a9e761c5f4]
reverse link DataHandler to CourierDB--><path d="M91,616.57 C91,653.09 91,699.26 91,730.96 " fill="none" id="DataHandler-backto-CourierDB" style="stroke:#A80036;stroke-width:1.0;"/><polygon fill="none" points="84,616.37,91,596.37,98,616.36,84,616.37" style="stroke:#A80036;stroke-width:1.0;"/><!--MD5=[b9af1f772d12807ca45af06731b7d10f]
link ApplicationPOT to UserSession--><path codeLine="92" d="M292.1,374.32 C288.47,409.05 283.01,461.27 278.85,501 " fill="none" id="ApplicationPOT-to-UserSession" style="stroke:#A80036;stroke-width:1.0;"/><polygon fill="#A80036" points="278.3,506.27,283.2291,497.7433,278.8286,501.298,275.274,496.8975,278.3,506.27" style="stroke:#A80036;stroke-width:1.0;"/><text fill="#000000" font-family="sans-serif" font-size="13" lengthAdjust="spacing" textLength="21" x="289" y="420.4951">has</text><text fill="#000000" font-family="sans-serif" font-size="13" lengthAdjust="spacing" textLength="7" x="283.9206" y="395.2515">1</text><text fill="#000000" font-family="sans-serif" font-size="13" lengthAdjust="spacing" textLength="7" x="271.5419" y="495.7394">1</text><!--MD5=[4df9e0a118229fd6bda5a8ff561c9d00]
@startuml
skinparam classAttributeIconSize 0


package "Controller" #DDDDDD {
class ApplicationPOT
{
  +static getInstance()
  +getCurrentSession()
}
}


package "UI" #DDDDDD {
class ParkScooterUI{

}
}


package "Controller" #DDDDDD {
class ParkScooterController{
+parkScooter(intIdScooter)
}
}






package "Model" #DDDDDD {


package "Service" #DDDDDD {

class CourierService {
+CourierService()
+parkScooter(intIdScooter)
}

}

class UserSession{
-String email
-Role role
+UserSession(email,role)
+getRole()
}




}


package "Data" #DDDDDD {
class DataHandler{
+openConnection()
+closeAll()
}

 class CourierDB{
 +CourierDB()
 +parkScooter(int intId)
 }

}

package "Utils" #DDDDDD {

class DirectoryVerification {
+verifyFileCreation(estimateFilePath, estimateFileFilter, timeToTest)
}

class EmailSender {
+sendEmail(email,subject,body)
}


}




ParkScooterUI ..> ParkScooterController
ParkScooterController ..> ApplicationPOT
ParkScooterController ..> CourierService
CourierService "1" - -> "1" CourierDB : has
CourierService "1" - -> "1" EmailSender : sends email using
CourierService "1" - -> "1" DirectoryVerification : checks file creation\nusing
class CourierDB extends DataHandler
ApplicationPOT "1" - -> "1" UserSession : has


@enduml

PlantUML version 1.2021.00(Sun Jan 10 10:25:05 GMT 2021)
(GPL source distribution)
Java Runtime: OpenJDK Runtime Environment
JVM: OpenJDK 64-Bit Server VM
Default Encoding: Cp1252
Language: pt
Country: PT
--></g></svg>