<?xml version="1.0" encoding="UTF-8" standalone="no"?><svg xmlns="http://www.w3.org/2000/svg" xmlns:xlink="http://www.w3.org/1999/xlink" contentScriptType="application/ecmascript" contentStyleType="text/css" height="221px" preserveAspectRatio="none" style="width:1222px;height:221px;" version="1.1" viewBox="0 0 1222 221" width="1222px" zoomAndPan="magnify"><defs><filter height="300%" id="f1e791yidu3uh" width="300%" x="-1" y="-1"><feGaussianBlur result="blurOut" stdDeviation="2.0"/><feColorMatrix in="blurOut" result="blurOut2" type="matrix" values="0 0 0 0 0 0 0 0 0 0 0 0 0 0 0 0 0 0 .4 0"/><feOffset dx="4.0" dy="4.0" in="blurOut2" result="blurOut3"/><feBlend in="SourceGraphic" in2="blurOut3" mode="normal"/></filter></defs><g><!--MD5=[fa1e3283224feb76407c84b7e90ed808]
entity Database--><path d="M15,26.5 C15,16.5 55.5,16.5 55.5,16.5 C55.5,16.5 96,16.5 96,26.5 L96,53.1094 C96,63.1094 55.5,63.1094 55.5,63.1094 C55.5,63.1094 15,63.1094 15,53.1094 L15,26.5 " fill="#FFFFFF" filter="url(#f1e791yidu3uh)" style="stroke:#000000;stroke-width:1.5;"/><path d="M15,26.5 C15,36.5 55.5,36.5 55.5,36.5 C55.5,36.5 96,36.5 96,26.5 " fill="none" style="stroke:#000000;stroke-width:1.5;"/><text fill="#000000" font-family="sans-serif" font-size="14" lengthAdjust="spacing" textLength="61" x="25" y="55.0332">Database</text><!--MD5=[3fd616f346a44cd59a91eb10b19e157c]
class User--><rect codeLine="13" fill="#FEFECE" filter="url(#f1e791yidu3uh)" height="109.1797" id="User" style="stroke:#A80036;stroke-width:1.5;" width="97" x="7" y="98.5"/><ellipse cx="39.55" cy="114.5" fill="#A9DCDF" rx="11" ry="11" style="stroke:#A80036;stroke-width:1.0;"/><path d="M41.3,116 L38.0031,116 L37.5656,117 L37.5656,117 L38.0344,117 L38.55,117.625 L38.55,118 L38.55,118.375 L38.0344,119 L37.5656,119 L35.675,119 L35.0656,119 L34.55,118.375 L34.55,118 L34.55,117.625 L35.0656,117 L35.675,117 L37.9875,111 L37.1125,111 L36.0656,111 L35.55,110.375 L35.55,110 L35.55,109.625 L36.0656,109 L37.1125,109 L40.7844,109 L43.4719,117 L44.0344,117 L44.0344,117 L44.55,117.625 L44.55,118 L44.55,118.375 L44.0344,119 L43.4719,119 L41.5813,119 L41.0656,119 L40.55,118.375 L40.55,118 L40.55,117.625 L41.0656,117 L41.5813,117 L41.5813,117 L41.3,116 Z M40.7531,114 L39.55,110.4219 L38.5188,114 L40.7531,114 Z " fill="#000000"/><text fill="#000000" font-family="sans-serif" font-size="12" font-style="italic" lengthAdjust="spacing" textLength="26" x="57.45" y="119.4102">User</text><line style="stroke:#A80036;stroke-width:1.5;" x1="8" x2="103" y1="130.5" y2="130.5"/><text fill="#000000" font-family="sans-serif" font-size="11" lengthAdjust="spacing" textLength="48" x="13" y="145.9189">-Integer id</text><text fill="#000000" font-family="sans-serif" font-size="11" lengthAdjust="spacing" textLength="59" x="13" y="159.7549">-String email</text><text fill="#000000" font-family="sans-serif" font-size="11" lengthAdjust="spacing" textLength="85" x="13" y="173.5908">-String password</text><text fill="#000000" font-family="sans-serif" font-size="11" lengthAdjust="spacing" textLength="52" x="13" y="187.4268">-Integer nif</text><text fill="#000000" font-family="sans-serif" font-size="11" lengthAdjust="spacing" textLength="61" x="13" y="201.2627">-String name</text><!--MD5=[c6a2171c11447acbe08a3dfeee0e1710]
class Courier--><rect codeLine="50" fill="#FEFECE" filter="url(#f1e791yidu3uh)" height="53.8359" id="Courier" style="stroke:#A80036;stroke-width:1.5;" width="73" x="273" y="110"/><ellipse cx="288" cy="126" fill="#ADD1B2" rx="11" ry="11" style="stroke:#A80036;stroke-width:1.0;"/><path d="M290,122.5 Q290.2031,122 290.4375,121.75 Q290.6719,121.5 290.9375,121.5 Q291.4063,121.5 291.7031,121.7813 Q292,122.0625 292,122.7188 L292,124.2813 Q292,124.9375 291.7188,125.2188 Q291.4375,125.5 291,125.5 Q290.6094,125.5 290.3594,125.3281 Q290.1094,125.1563 290,124.7031 Q289.9531,124.3906 289.7813,124.2188 Q289.4688,123.8906 288.9063,123.7031 Q288.3438,123.5 287.7813,123.5 Q287.0781,123.5 286.4844,123.7813 Q285.9063,124.0625 285.4531,124.6875 Q285,125.3125 285,126.1719 L285,127.0938 Q285,128.125 285.8438,128.8125 Q286.6875,129.5 288.1875,129.5 Q289.0781,129.5 289.7031,129.2969 Q290.0625,129.1875 290.4688,128.8281 Q290.7344,128.625 290.875,128.5625 Q291.0156,128.5 291.1875,128.5 Q291.5156,128.5 291.75,128.7656 Q292,129.0156 292,129.375 Q292,129.7188 291.6563,130.125 Q291.1563,130.7188 290.3594,131.0469 Q289.3125,131.5 288.0313,131.5 Q286.5313,131.5 285.3281,130.9063 Q284.3594,130.4375 283.6719,129.4219 Q283,128.4063 283,127.2031 L283,126.1094 Q283,124.8594 283.5938,123.7656 Q284.2031,122.6719 285.25,122.0938 Q286.3125,121.5 287.5,121.5 Q288.2188,121.5 288.8438,121.75 Q289.4688,122 290,122.5 Z " fill="#000000"/><text fill="#000000" font-family="sans-serif" font-size="12" lengthAdjust="spacing" textLength="41" x="302" y="130.9102">Courier</text><line style="stroke:#A80036;stroke-width:1.5;" x1="274" x2="345" y1="142" y2="142"/><text fill="#000000" font-family="sans-serif" font-size="11" lengthAdjust="spacing" textLength="55" x="279" y="157.4189">-String iban</text><!--MD5=[5e13c92683bb853a25438ed3edf51dc3]
class VehicleModel--><rect codeLine="26" fill="#FEFECE" filter="url(#f1e791yidu3uh)" height="109.1797" id="VehicleModel" style="stroke:#A80036;stroke-width:1.5;" width="109" x="881" y="34.5"/><ellipse cx="897.8" cy="50.5" fill="#ADD1B2" rx="11" ry="11" style="stroke:#A80036;stroke-width:1.0;"/><path d="M899.8,47 Q900.0031,46.5 900.2375,46.25 Q900.4719,46 900.7375,46 Q901.2063,46 901.5031,46.2813 Q901.8,46.5625 901.8,47.2188 L901.8,48.7813 Q901.8,49.4375 901.5188,49.7188 Q901.2375,50 900.8,50 Q900.4094,50 900.1594,49.8281 Q899.9094,49.6563 899.8,49.2031 Q899.7531,48.8906 899.5813,48.7188 Q899.2688,48.3906 898.7063,48.2031 Q898.1438,48 897.5813,48 Q896.8781,48 896.2844,48.2813 Q895.7063,48.5625 895.2531,49.1875 Q894.8,49.8125 894.8,50.6719 L894.8,51.5938 Q894.8,52.625 895.6438,53.3125 Q896.4875,54 897.9875,54 Q898.8781,54 899.5031,53.7969 Q899.8625,53.6875 900.2688,53.3281 Q900.5344,53.125 900.675,53.0625 Q900.8156,53 900.9875,53 Q901.3156,53 901.55,53.2656 Q901.8,53.5156 901.8,53.875 Q901.8,54.2188 901.4563,54.625 Q900.9563,55.2188 900.1594,55.5469 Q899.1125,56 897.8313,56 Q896.3313,56 895.1281,55.4063 Q894.1594,54.9375 893.4719,53.9219 Q892.8,52.9063 892.8,51.7031 L892.8,50.6094 Q892.8,49.3594 893.3938,48.2656 Q894.0031,47.1719 895.05,46.5938 Q896.1125,46 897.3,46 Q898.0188,46 898.6438,46.25 Q899.2688,46.5 899.8,47 Z " fill="#000000"/><text fill="#000000" font-family="sans-serif" font-size="12" lengthAdjust="spacing" textLength="73" x="912.2" y="55.4102">VehicleModel</text><line style="stroke:#A80036;stroke-width:1.5;" x1="882" x2="989" y1="66.5" y2="66.5"/><text fill="#000000" font-family="sans-serif" font-size="11" lengthAdjust="spacing" textLength="26" x="887" y="81.9189">-int id</text><text fill="#000000" font-family="sans-serif" font-size="11" lengthAdjust="spacing" textLength="90" x="887" y="95.7549">-String desigantion</text><text fill="#000000" font-family="sans-serif" font-size="11" lengthAdjust="spacing" textLength="78" x="887" y="109.5908">-double potency</text><text fill="#000000" font-family="sans-serif" font-size="11" lengthAdjust="spacing" textLength="72" x="887" y="123.4268">-double weight</text><text fill="#000000" font-family="sans-serif" font-size="11" lengthAdjust="spacing" textLength="97" x="887" y="137.2627">-double maxPayload</text><!--MD5=[9e8cdc57c56bad5cdfc47653c9df3022]
class VehicleType--><rect codeLine="34" fill="#FEFECE" filter="url(#f1e791yidu3uh)" height="53.8359" id="VehicleType" style="stroke:#A80036;stroke-width:1.5;" width="102" x="1096" y="7"/><ellipse cx="1112.8" cy="23" fill="#ADD1B2" rx="11" ry="11" style="stroke:#A80036;stroke-width:1.0;"/><path d="M1114.8,19.5 Q1115.0031,19 1115.2375,18.75 Q1115.4719,18.5 1115.7375,18.5 Q1116.2063,18.5 1116.5031,18.7813 Q1116.8,19.0625 1116.8,19.7188 L1116.8,21.2813 Q1116.8,21.9375 1116.5188,22.2188 Q1116.2375,22.5 1115.8,22.5 Q1115.4094,22.5 1115.1594,22.3281 Q1114.9094,22.1563 1114.8,21.7031 Q1114.7531,21.3906 1114.5813,21.2188 Q1114.2688,20.8906 1113.7063,20.7031 Q1113.1438,20.5 1112.5813,20.5 Q1111.8781,20.5 1111.2844,20.7813 Q1110.7063,21.0625 1110.2531,21.6875 Q1109.8,22.3125 1109.8,23.1719 L1109.8,24.0938 Q1109.8,25.125 1110.6438,25.8125 Q1111.4875,26.5 1112.9875,26.5 Q1113.8781,26.5 1114.5031,26.2969 Q1114.8625,26.1875 1115.2688,25.8281 Q1115.5344,25.625 1115.675,25.5625 Q1115.8156,25.5 1115.9875,25.5 Q1116.3156,25.5 1116.55,25.7656 Q1116.8,26.0156 1116.8,26.375 Q1116.8,26.7188 1116.4563,27.125 Q1115.9563,27.7188 1115.1594,28.0469 Q1114.1125,28.5 1112.8313,28.5 Q1111.3313,28.5 1110.1281,27.9063 Q1109.1594,27.4375 1108.4719,26.4219 Q1107.8,25.4063 1107.8,24.2031 L1107.8,23.1094 Q1107.8,21.8594 1108.3938,20.7656 Q1109.0031,19.6719 1110.05,19.0938 Q1111.1125,18.5 1112.3,18.5 Q1113.0188,18.5 1113.6438,18.75 Q1114.2688,19 1114.8,19.5 Z " fill="#000000"/><text fill="#000000" font-family="sans-serif" font-size="12" lengthAdjust="spacing" textLength="66" x="1127.2" y="27.9102">VehicleType</text><line style="stroke:#A80036;stroke-width:1.5;" x1="1097" x2="1197" y1="39" y2="39"/><text fill="#000000" font-family="sans-serif" font-size="11" lengthAdjust="spacing" textLength="90" x="1102" y="54.4189">-String desigantion</text><!--MD5=[3aa0d89c6bfdcbf7f32042cedac57549]
class Vehicle--><rect codeLine="38" fill="#FEFECE" filter="url(#f1e791yidu3uh)" height="67.6719" id="Vehicle" style="stroke:#A80036;stroke-width:1.5;" width="107" x="678" y="55"/><ellipse cx="708.75" cy="71" fill="#ADD1B2" rx="11" ry="11" style="stroke:#A80036;stroke-width:1.0;"/><path d="M710.75,67.5 Q710.9531,67 711.1875,66.75 Q711.4219,66.5 711.6875,66.5 Q712.1563,66.5 712.4531,66.7813 Q712.75,67.0625 712.75,67.7188 L712.75,69.2813 Q712.75,69.9375 712.4688,70.2188 Q712.1875,70.5 711.75,70.5 Q711.3594,70.5 711.1094,70.3281 Q710.8594,70.1563 710.75,69.7031 Q710.7031,69.3906 710.5313,69.2188 Q710.2188,68.8906 709.6563,68.7031 Q709.0938,68.5 708.5313,68.5 Q707.8281,68.5 707.2344,68.7813 Q706.6563,69.0625 706.2031,69.6875 Q705.75,70.3125 705.75,71.1719 L705.75,72.0938 Q705.75,73.125 706.5938,73.8125 Q707.4375,74.5 708.9375,74.5 Q709.8281,74.5 710.4531,74.2969 Q710.8125,74.1875 711.2188,73.8281 Q711.4844,73.625 711.625,73.5625 Q711.7656,73.5 711.9375,73.5 Q712.2656,73.5 712.5,73.7656 Q712.75,74.0156 712.75,74.375 Q712.75,74.7188 712.4063,75.125 Q711.9063,75.7188 711.1094,76.0469 Q710.0625,76.5 708.7813,76.5 Q707.2813,76.5 706.0781,75.9063 Q705.1094,75.4375 704.4219,74.4219 Q703.75,73.4063 703.75,72.2031 L703.75,71.1094 Q703.75,69.8594 704.3438,68.7656 Q704.9531,67.6719 706,67.0938 Q707.0625,66.5 708.25,66.5 Q708.9688,66.5 709.5938,66.75 Q710.2188,67 710.75,67.5 Z " fill="#000000"/><text fill="#000000" font-family="sans-serif" font-size="12" lengthAdjust="spacing" textLength="40" x="726.25" y="75.9102">Vehicle</text><line style="stroke:#A80036;stroke-width:1.5;" x1="679" x2="784" y1="87" y2="87"/><text fill="#000000" font-family="sans-serif" font-size="11" lengthAdjust="spacing" textLength="26" x="684" y="102.4189">-int id</text><text fill="#000000" font-family="sans-serif" font-size="11" lengthAdjust="spacing" textLength="95" x="684" y="116.2549">-double batteryPerc</text><!--MD5=[79eb2d862cef9730b5f9dcab29e35f17]
class Battery--><rect codeLine="43" fill="#FEFECE" filter="url(#f1e791yidu3uh)" height="95.3438" id="Battery" style="stroke:#A80036;stroke-width:1.5;" width="122" x="1086" y="96.5"/><ellipse cx="1124.85" cy="112.5" fill="#ADD1B2" rx="11" ry="11" style="stroke:#A80036;stroke-width:1.0;"/><path d="M1126.85,109 Q1127.0531,108.5 1127.2875,108.25 Q1127.5219,108 1127.7875,108 Q1128.2563,108 1128.5531,108.2813 Q1128.85,108.5625 1128.85,109.2188 L1128.85,110.7813 Q1128.85,111.4375 1128.5688,111.7188 Q1128.2875,112 1127.85,112 Q1127.4594,112 1127.2094,111.8281 Q1126.9594,111.6563 1126.85,111.2031 Q1126.8031,110.8906 1126.6313,110.7188 Q1126.3188,110.3906 1125.7563,110.2031 Q1125.1938,110 1124.6313,110 Q1123.9281,110 1123.3344,110.2813 Q1122.7563,110.5625 1122.3031,111.1875 Q1121.85,111.8125 1121.85,112.6719 L1121.85,113.5938 Q1121.85,114.625 1122.6938,115.3125 Q1123.5375,116 1125.0375,116 Q1125.9281,116 1126.5531,115.7969 Q1126.9125,115.6875 1127.3188,115.3281 Q1127.5844,115.125 1127.725,115.0625 Q1127.8656,115 1128.0375,115 Q1128.3656,115 1128.6,115.2656 Q1128.85,115.5156 1128.85,115.875 Q1128.85,116.2188 1128.5063,116.625 Q1128.0063,117.2188 1127.2094,117.5469 Q1126.1625,118 1124.8813,118 Q1123.3813,118 1122.1781,117.4063 Q1121.2094,116.9375 1120.5219,115.9219 Q1119.85,114.9063 1119.85,113.7031 L1119.85,112.6094 Q1119.85,111.3594 1120.4438,110.2656 Q1121.0531,109.1719 1122.1,108.5938 Q1123.1625,108 1124.35,108 Q1125.0688,108 1125.6938,108.25 Q1126.3188,108.5 1126.85,109 Z " fill="#000000"/><text fill="#000000" font-family="sans-serif" font-size="12" lengthAdjust="spacing" textLength="37" x="1144.15" y="117.4102">Battery</text><line style="stroke:#A80036;stroke-width:1.5;" x1="1087" x2="1207" y1="128.5" y2="128.5"/><text fill="#000000" font-family="sans-serif" font-size="11" lengthAdjust="spacing" textLength="26" x="1092" y="143.9189">-int id</text><text fill="#000000" font-family="sans-serif" font-size="11" lengthAdjust="spacing" textLength="94" x="1092" y="157.7549">-int batteryCapacity</text><text fill="#000000" font-family="sans-serif" font-size="11" lengthAdjust="spacing" textLength="110" x="1092" y="171.5908">-double batteryVoltage</text><text fill="#000000" font-family="sans-serif" font-size="11" lengthAdjust="spacing" textLength="87" x="1092" y="185.4268">-double efficiency</text><!--MD5=[f4402668d5d5bb8485350c0fdb60ac8e]
class Scooter--><rect fill="#FEFECE" filter="url(#f1e791yidu3uh)" height="40" id="Scooter" style="stroke:#A80036;stroke-width:1.5;" width="74" x="465" y="69"/><ellipse cx="480" cy="85" fill="#ADD1B2" rx="11" ry="11" style="stroke:#A80036;stroke-width:1.0;"/><path d="M482,81.5 Q482.2031,81 482.4375,80.75 Q482.6719,80.5 482.9375,80.5 Q483.4063,80.5 483.7031,80.7813 Q484,81.0625 484,81.7188 L484,83.2813 Q484,83.9375 483.7188,84.2188 Q483.4375,84.5 483,84.5 Q482.6094,84.5 482.3594,84.3281 Q482.1094,84.1563 482,83.7031 Q481.9531,83.3906 481.7813,83.2188 Q481.4688,82.8906 480.9063,82.7031 Q480.3438,82.5 479.7813,82.5 Q479.0781,82.5 478.4844,82.7813 Q477.9063,83.0625 477.4531,83.6875 Q477,84.3125 477,85.1719 L477,86.0938 Q477,87.125 477.8438,87.8125 Q478.6875,88.5 480.1875,88.5 Q481.0781,88.5 481.7031,88.2969 Q482.0625,88.1875 482.4688,87.8281 Q482.7344,87.625 482.875,87.5625 Q483.0156,87.5 483.1875,87.5 Q483.5156,87.5 483.75,87.7656 Q484,88.0156 484,88.375 Q484,88.7188 483.6563,89.125 Q483.1563,89.7188 482.3594,90.0469 Q481.3125,90.5 480.0313,90.5 Q478.5313,90.5 477.3281,89.9063 Q476.3594,89.4375 475.6719,88.4219 Q475,87.4063 475,86.2031 L475,85.1094 Q475,83.8594 475.5938,82.7656 Q476.2031,81.6719 477.25,81.0938 Q478.3125,80.5 479.5,80.5 Q480.2188,80.5 480.8438,80.75 Q481.4688,81 482,81.5 Z " fill="#000000"/><text fill="#000000" font-family="sans-serif" font-size="12" lengthAdjust="spacing" textLength="42" x="494" y="89.9102">Scooter</text><line style="stroke:#A80036;stroke-width:1.5;" x1="466" x2="538" y1="101" y2="101"/><!--MD5=[e79a66e97299f11101908dd7ccdb061e]
reverse link User to Courier--><path d="M124.36,148.69 C172.19,145.65 234.33,141.71 272.8,139.27 " fill="none" id="User-backto-Courier" style="stroke:#A80036;stroke-width:1.0;"/><polygon fill="none" points="124.6,155.69,104.2,149.97,123.71,141.72,124.6,155.69" style="stroke:#A80036;stroke-width:1.0;"/><!--MD5=[1f74e66c977173bcc34c5159ed1c7544]
link Database to Courier--><path codeLine="52" d="M94.27,63.67 C106.64,70.8 120.64,78.26 134,84 C180.55,103.99 237.08,119.7 272.92,128.66 " fill="none" id="Database-Courier" style="stroke:#A80036;stroke-width:1.0;"/><polygon fill="#000000" points="143.6987,76.8851,136.2034,71.0311,134.1939,76.5548,143.6987,76.8851" style="stroke:#000000;stroke-width:1.0;"/><text fill="#000000" font-family="sans-serif" font-size="13" lengthAdjust="spacing" textLength="82" x="148" y="80.4951">has registered</text><text fill="#000000" font-family="sans-serif" font-size="13" lengthAdjust="spacing" textLength="7" x="95.4262" y="84.5746">1</text><text fill="#000000" font-family="sans-serif" font-size="13" lengthAdjust="spacing" textLength="5" x="259.8598" y="142.1382">*</text><!--MD5=[f4a94ba2ad2673d4959409a96e63c979]
link Database to Scooter--><path codeLine="53" d="M96.08,43.45 C165.03,49.61 311.64,63.31 435,79 C444.66,80.23 455.08,81.73 464.73,83.19 " fill="none" id="Database-Scooter" style="stroke:#A80036;stroke-width:1.0;"/><polygon fill="#000000" points="270.9712,50.7117,262.2932,46.8202,261.6632,52.6642,270.9712,50.7117" style="stroke:#000000;stroke-width:1.0;"/><text fill="#000000" font-family="sans-serif" font-size="13" lengthAdjust="spacing" textLength="82" x="275" y="55.4951">has registered</text><text fill="#000000" font-family="sans-serif" font-size="13" lengthAdjust="spacing" textLength="7" x="103.9318" y="59.0507">1</text><text fill="#000000" font-family="sans-serif" font-size="13" lengthAdjust="spacing" textLength="5" x="451.9003" y="78.0009">*</text><!--MD5=[a6555772697f24f0ba1eb2fefc99ef48]
link Courier to Scooter--><path codeLine="54" d="M346.33,127.97 C380.17,119.44 430.68,106.72 464.68,98.15 " fill="none" id="Courier-Scooter" style="stroke:#A80036;stroke-width:1.0;"/><polygon fill="#000000" points="397.8485,94.9541,388.3594,94.3143,389.7956,100.014,397.8485,94.9541" style="stroke:#000000;stroke-width:1.0;"/><text fill="#000000" font-family="sans-serif" font-size="13" lengthAdjust="spacing" textLength="32" x="402" y="101.4951">parks</text><text fill="#000000" font-family="sans-serif" font-size="13" lengthAdjust="spacing" textLength="7" x="354.0179" y="141.3179">1</text><text fill="#000000" font-family="sans-serif" font-size="13" lengthAdjust="spacing" textLength="7" x="449.8987" y="114.9478">1</text><!--MD5=[3fa83f42c878ddc47b59211fc64ec532]
link VehicleModel to Battery--><path codeLine="55" d="M990.18,103.09 C1019.4,110.76 1055.63,120.28 1085.81,128.2 " fill="none" id="VehicleModel-Battery" style="stroke:#A80036;stroke-width:1.0;"/><polygon fill="#000000" points="1029.8361,103.4456,1021.8339,98.3059,1020.3412,103.991,1029.8361,103.4456" style="stroke:#000000;stroke-width:1.0;"/><text fill="#000000" font-family="sans-serif" font-size="13" lengthAdjust="spacing" textLength="21" x="1034" y="107.4951">has</text><text fill="#000000" font-family="sans-serif" font-size="13" lengthAdjust="spacing" textLength="7" x="997.9979" y="119.565">1</text><text fill="#000000" font-family="sans-serif" font-size="13" lengthAdjust="spacing" textLength="7" x="1070.9259" y="140.745">1</text><!--MD5=[eb172a83c7b24bcb2b2c23cfcc7dc290]
link VehicleModel to VehicleType--><path codeLine="56" d="M990.18,74.91 C1022.67,66.38 1063.84,55.57 1095.7,47.21 " fill="none" id="VehicleModel-VehicleType" style="stroke:#A80036;stroke-width:1.0;"/><polygon fill="#000000" points="1029.8361,47.9062,1020.3413,47.3602,1021.8337,53.0455,1029.8361,47.9062" style="stroke:#000000;stroke-width:1.0;"/><text fill="#000000" font-family="sans-serif" font-size="13" lengthAdjust="spacing" textLength="21" x="1034" y="54.4951">has</text><text fill="#000000" font-family="sans-serif" font-size="13" lengthAdjust="spacing" textLength="5" x="997.8636" y="87.5983">*</text><text fill="#000000" font-family="sans-serif" font-size="13" lengthAdjust="spacing" textLength="7" x="1080.9938" y="63.724">1</text><!--MD5=[52f80c2c106e4280525a8160ec8cd0fa]
link Scooter to Vehicle--><path codeLine="57" d="M539.05,89 C576.38,89 635.12,89 677.69,89 " fill="none" id="Scooter-Vehicle" style="stroke:#A80036;stroke-width:1.0;"/><polygon fill="#000000" points="579,80.1758,569.9549,77.2369,569.9549,83.1147,579,80.1758" style="stroke:#000000;stroke-width:1.0;"/><text fill="#000000" font-family="sans-serif" font-size="13" lengthAdjust="spacing" textLength="64" x="583" y="85.4951">is a type of</text><text fill="#000000" font-family="sans-serif" font-size="13" lengthAdjust="spacing" textLength="5" x="547.2072" y="104.1814">*</text><text fill="#000000" font-family="sans-serif" font-size="13" lengthAdjust="spacing" textLength="7" x="662.989" y="103.6158">1</text><!--MD5=[7ee5f2eef2f8ef54a9b73b97abb49ae4]
link Vehicle to VehicleModel--><path codeLine="58" d="M785.05,89 C814.5,89 851.17,89 880.81,89 " fill="none" id="Vehicle-VehicleModel" style="stroke:#A80036;stroke-width:1.0;"/><polygon fill="#000000" points="825,80.1758,815.9549,77.2369,815.9549,83.1147,825,80.1758" style="stroke:#000000;stroke-width:1.0;"/><text fill="#000000" font-family="sans-serif" font-size="13" lengthAdjust="spacing" textLength="21" x="829" y="85.4951">has</text><text fill="#000000" font-family="sans-serif" font-size="13" lengthAdjust="spacing" textLength="5" x="792.932" y="103.6679">*</text><text fill="#000000" font-family="sans-serif" font-size="13" lengthAdjust="spacing" textLength="7" x="865.9907" y="103.5817">1</text><!--MD5=[8396a9469454978b6e3c5a0cf2371267]
@startuml
skinparam classAttributeIconSize 0
hide methods
left to right direction





database Database {

}

abstract class User{
-Integer id
-String email
-String password
-Integer nif
-String name
}

class Courier {
      -String iban
}


class VehicleModel{
  -int id
  -String desigantion
  -double potency
  -double weight
  -double maxPayload
}

class VehicleType{
  -String desigantion
}

class Vehicle{
  -int id
  -double batteryPerc
}

class Battery{
  -int id
  -int batteryCapacity
  -double batteryVoltage
  -double efficiency
}

class Courier extends User

Database "1" - - "*" Courier : has registered >
Database "1" - - "*" Scooter : has registered >
Courier "1" - - "1" Scooter : parks >
VehicleModel "1" - - "1" Battery : has >
VehicleModel "*" - - "1" VehicleType : has >
Scooter "*" - - "1" Vehicle : is a type of >
Vehicle "*" - - "1" VehicleModel : has >



@enduml

PlantUML version 1.2021.00(Sun Jan 10 10:25:05 GMT 2021)
(GPL source distribution)
Java Runtime: OpenJDK Runtime Environment
JVM: OpenJDK 64-Bit Server VM
Default Encoding: Cp1252
Language: pt
Country: PT
--></g></svg>