<?xml version="1.0" encoding="UTF-8" standalone="no"?><svg xmlns="http://www.w3.org/2000/svg" xmlns:xlink="http://www.w3.org/1999/xlink" contentScriptType="application/ecmascript" contentStyleType="text/css" height="1498px" preserveAspectRatio="none" style="width:1309px;height:1498px;" version="1.1" viewBox="0 0 1309 1498" width="1309px" zoomAndPan="magnify"><defs><filter height="300%" id="fr9us6savglc4" width="300%" x="-1" y="-1"><feGaussianBlur result="blurOut" stdDeviation="2.0"/><feColorMatrix in="blurOut" result="blurOut2" type="matrix" values="0 0 0 0 0 0 0 0 0 0 0 0 0 0 0 0 0 0 .4 0"/><feOffset dx="4.0" dy="4.0" in="blurOut2" result="blurOut3"/><feBlend in="SourceGraphic" in2="blurOut3" mode="normal"/></filter></defs><g><!--MD5=[9681dc6e01e10c6b4fe06895ae94f592]
cluster UI--><polygon fill="#DDDDDD" filter="url(#fr9us6savglc4)" points="92,24,112,24,119,47.6094,258,47.6094,258,124,92,124,92,24" style="stroke: #000000; stroke-width: 1.5;"/><line style="stroke: #000000; stroke-width: 1.5;" x1="92" x2="119" y1="47.6094" y2="47.6094"/><text fill="#000000" font-family="sans-serif" font-size="14" font-weight="bold" lengthAdjust="spacingAndGlyphs" textLength="14" x="96" y="40.5332">UI</text><!--MD5=[1f2cfc53d9d308f53762fd0fcbaa4873]
cluster Controller--><polygon fill="#DDDDDD" filter="url(#fr9us6savglc4)" points="22,157,99,157,106,180.6094,321,180.6094,321,465,22,465,22,157" style="stroke: #000000; stroke-width: 1.5;"/><line style="stroke: #000000; stroke-width: 1.5;" x1="22" x2="106" y1="180.6094" y2="180.6094"/><text fill="#000000" font-family="sans-serif" font-size="14" font-weight="bold" lengthAdjust="spacingAndGlyphs" textLength="71" x="26" y="173.5332">Controller</text><!--MD5=[15636c1ca4a123c16a2a1a8e90aca7a9]
cluster Model--><polygon fill="#DDDDDD" filter="url(#fr9us6savglc4)" points="345,330,395,330,402,353.6094,1127,353.6094,1127,1486,345,1486,345,330" style="stroke: #000000; stroke-width: 1.5;"/><line style="stroke: #000000; stroke-width: 1.5;" x1="345" x2="402" y1="353.6094" y2="353.6094"/><text fill="#000000" font-family="sans-serif" font-size="14" font-weight="bold" lengthAdjust="spacingAndGlyphs" textLength="44" x="349" y="346.5332">Model</text><!--MD5=[7f5e0441b00afcd8fa9ae108c086a015]
cluster Registration--><polygon fill="#DDDDDD" filter="url(#fr9us6savglc4)" points="586,520,678,520,685,543.6094,1103,543.6094,1103,689,586,689,586,520" style="stroke: #000000; stroke-width: 1.5;"/><line style="stroke: #000000; stroke-width: 1.5;" x1="586" x2="685" y1="543.6094" y2="543.6094"/><text fill="#000000" font-family="sans-serif" font-size="14" font-weight="bold" lengthAdjust="spacingAndGlyphs" textLength="86" x="590" y="536.5332">Registration</text><!--MD5=[f21b1f164e99c6b37934f23ad048ad54]
cluster Data--><polygon fill="#DDDDDD" filter="url(#fr9us6savglc4)" points="1151,337,1188,337,1195,360.6094,1287,360.6094,1287,465,1151,465,1151,337" style="stroke: #000000; stroke-width: 1.5;"/><line style="stroke: #000000; stroke-width: 1.5;" x1="1151" x2="1195" y1="360.6094" y2="360.6094"/><text fill="#000000" font-family="sans-serif" font-size="14" font-weight="bold" lengthAdjust="spacingAndGlyphs" textLength="31" x="1155" y="353.5332">Data</text><!--MD5=[2e02dc687a7adedd6993cedb12e41a52]
class RegisterScooterUI--><rect fill="#FEFECE" filter="url(#fr9us6savglc4)" height="48" id="RegisterScooterUI" style="stroke: #A80036; stroke-width: 1.5;" width="133" x="108.5" y="60"/><ellipse cx="123.5" cy="76" fill="#ADD1B2" rx="11" ry="11" style="stroke: #A80036; stroke-width: 1.0;"/><path d="M125.5,72.5 Q125.7031,72 125.9375,71.75 Q126.1719,71.5 126.4375,71.5 Q126.9063,71.5 127.2031,71.7813 Q127.5,72.0625 127.5,72.7188 L127.5,74.2813 Q127.5,74.9375 127.2188,75.2188 Q126.9375,75.5 126.5,75.5 Q126.1094,75.5 125.8594,75.3281 Q125.6094,75.1563 125.5,74.7031 Q125.4531,74.3906 125.2813,74.2188 Q124.9688,73.8906 124.4063,73.7031 Q123.8438,73.5 123.2813,73.5 Q122.5781,73.5 121.9844,73.7813 Q121.4063,74.0625 120.9531,74.6875 Q120.5,75.3125 120.5,76.1719 L120.5,77.0938 Q120.5,78.125 121.3438,78.8125 Q122.1875,79.5 123.6875,79.5 Q124.5781,79.5 125.2031,79.2969 Q125.5625,79.1875 125.9688,78.8281 Q126.2344,78.625 126.375,78.5625 Q126.5156,78.5 126.6875,78.5 Q127.0156,78.5 127.25,78.7656 Q127.5,79.0156 127.5,79.375 Q127.5,79.7188 127.1563,80.125 Q126.6563,80.7188 125.8594,81.0469 Q124.8125,81.5 123.5313,81.5 Q122.0313,81.5 120.8281,80.9063 Q119.8594,80.4375 119.1719,79.4219 Q118.5,78.4063 118.5,77.2031 L118.5,76.1094 Q118.5,74.8594 119.0938,73.7656 Q119.7031,72.6719 120.75,72.0938 Q121.8125,71.5 123,71.5 Q123.7188,71.5 124.3438,71.75 Q124.9688,72 125.5,72.5 Z "/><text fill="#000000" font-family="sans-serif" font-size="12" lengthAdjust="spacingAndGlyphs" textLength="101" x="137.5" y="80.9102">RegisterScooterUI</text><line style="stroke: #A80036; stroke-width: 1.5;" x1="109.5" x2="240.5" y1="92" y2="92"/><line style="stroke: #A80036; stroke-width: 1.5;" x1="109.5" x2="240.5" y1="100" y2="100"/><!--MD5=[b762eabfe222fdd6cf4857c585db3ba3]
class RegisterScooterController--><rect fill="#FEFECE" filter="url(#fr9us6savglc4)" height="89.5078" id="RegisterScooterController" style="stroke: #A80036; stroke-width: 1.5;" width="259" x="45.5" y="193"/><ellipse cx="99.25" cy="209" fill="#ADD1B2" rx="11" ry="11" style="stroke: #A80036; stroke-width: 1.0;"/><path d="M101.25,205.5 Q101.4531,205 101.6875,204.75 Q101.9219,204.5 102.1875,204.5 Q102.6563,204.5 102.9531,204.7813 Q103.25,205.0625 103.25,205.7188 L103.25,207.2813 Q103.25,207.9375 102.9688,208.2188 Q102.6875,208.5 102.25,208.5 Q101.8594,208.5 101.6094,208.3281 Q101.3594,208.1563 101.25,207.7031 Q101.2031,207.3906 101.0313,207.2188 Q100.7188,206.8906 100.1563,206.7031 Q99.5938,206.5 99.0313,206.5 Q98.3281,206.5 97.7344,206.7813 Q97.1563,207.0625 96.7031,207.6875 Q96.25,208.3125 96.25,209.1719 L96.25,210.0938 Q96.25,211.125 97.0938,211.8125 Q97.9375,212.5 99.4375,212.5 Q100.3281,212.5 100.9531,212.2969 Q101.3125,212.1875 101.7188,211.8281 Q101.9844,211.625 102.125,211.5625 Q102.2656,211.5 102.4375,211.5 Q102.7656,211.5 103,211.7656 Q103.25,212.0156 103.25,212.375 Q103.25,212.7188 102.9063,213.125 Q102.4063,213.7188 101.6094,214.0469 Q100.5625,214.5 99.2813,214.5 Q97.7813,214.5 96.5781,213.9063 Q95.6094,213.4375 94.9219,212.4219 Q94.25,211.4063 94.25,210.2031 L94.25,209.1094 Q94.25,207.8594 94.8438,206.7656 Q95.4531,205.6719 96.5,205.0938 Q97.5625,204.5 98.75,204.5 Q99.4688,204.5 100.0938,204.75 Q100.7188,205 101.25,205.5 Z "/><text fill="#000000" font-family="sans-serif" font-size="12" lengthAdjust="spacingAndGlyphs" textLength="143" x="119.75" y="213.9102">RegisterScooterController</text><line style="stroke: #A80036; stroke-width: 1.5;" x1="46.5" x2="303.5" y1="225" y2="225"/><line style="stroke: #A80036; stroke-width: 1.5;" x1="46.5" x2="303.5" y1="233" y2="233"/><text fill="#000000" font-family="sans-serif" font-size="11" lengthAdjust="spacingAndGlyphs" textLength="247" x="51.5" y="248.4189">+newScooter(batteryPerc, charginStatus, potency,</text><text fill="#000000" font-family="sans-serif" font-size="11" lengthAdjust="spacingAndGlyphs" textLength="173" x="54.5" y="262.2549">weight, batteryCapacity, pharmacy)</text><text fill="#000000" font-family="sans-serif" font-size="11" lengthAdjust="spacingAndGlyphs" textLength="95" x="51.5" y="276.0908">+registersScooter()</text><!--MD5=[e45a4727c47b726c25e081782e8bc183]
class ApplicationPOT--><rect fill="#FEFECE" filter="url(#fr9us6savglc4)" height="75.6719" id="ApplicationPOT" style="stroke: #A80036; stroke-width: 1.5;" width="116" x="38" y="373"/><ellipse cx="53" cy="389" fill="#ADD1B2" rx="11" ry="11" style="stroke: #A80036; stroke-width: 1.0;"/><path d="M55,385.5 Q55.2031,385 55.4375,384.75 Q55.6719,384.5 55.9375,384.5 Q56.4063,384.5 56.7031,384.7813 Q57,385.0625 57,385.7188 L57,387.2813 Q57,387.9375 56.7188,388.2188 Q56.4375,388.5 56,388.5 Q55.6094,388.5 55.3594,388.3281 Q55.1094,388.1563 55,387.7031 Q54.9531,387.3906 54.7813,387.2188 Q54.4688,386.8906 53.9063,386.7031 Q53.3438,386.5 52.7813,386.5 Q52.0781,386.5 51.4844,386.7813 Q50.9063,387.0625 50.4531,387.6875 Q50,388.3125 50,389.1719 L50,390.0938 Q50,391.125 50.8438,391.8125 Q51.6875,392.5 53.1875,392.5 Q54.0781,392.5 54.7031,392.2969 Q55.0625,392.1875 55.4688,391.8281 Q55.7344,391.625 55.875,391.5625 Q56.0156,391.5 56.1875,391.5 Q56.5156,391.5 56.75,391.7656 Q57,392.0156 57,392.375 Q57,392.7188 56.6563,393.125 Q56.1563,393.7188 55.3594,394.0469 Q54.3125,394.5 53.0313,394.5 Q51.5313,394.5 50.3281,393.9063 Q49.3594,393.4375 48.6719,392.4219 Q48,391.4063 48,390.2031 L48,389.1094 Q48,387.8594 48.5938,386.7656 Q49.2031,385.6719 50.25,385.0938 Q51.3125,384.5 52.5,384.5 Q53.2188,384.5 53.8438,384.75 Q54.4688,385 55,385.5 Z "/><text fill="#000000" font-family="sans-serif" font-size="12" lengthAdjust="spacingAndGlyphs" textLength="84" x="67" y="393.9102">ApplicationPOT</text><line style="stroke: #A80036; stroke-width: 1.5;" x1="39" x2="153" y1="405" y2="405"/><line style="stroke: #A80036; stroke-width: 1.5;" x1="39" x2="153" y1="413" y2="413"/><text fill="#000000" font-family="sans-serif" font-size="11" lengthAdjust="spacingAndGlyphs" textLength="99" x="44" y="428.4189">+static getInstance()</text><text fill="#000000" font-family="sans-serif" font-size="11" lengthAdjust="spacingAndGlyphs" textLength="68" x="44" y="442.2549">+getPlatform()</text><!--MD5=[c5b08e60048ef1bcd788d24cf324082e]
class UserSession--><rect fill="#FEFECE" filter="url(#fr9us6savglc4)" height="61.8359" id="UserSession" style="stroke: #A80036; stroke-width: 1.5;" width="116" x="189" y="380"/><ellipse cx="208.95" cy="396" fill="#ADD1B2" rx="11" ry="11" style="stroke: #A80036; stroke-width: 1.0;"/><path d="M210.95,392.5 Q211.1531,392 211.3875,391.75 Q211.6219,391.5 211.8875,391.5 Q212.3563,391.5 212.6531,391.7813 Q212.95,392.0625 212.95,392.7188 L212.95,394.2813 Q212.95,394.9375 212.6688,395.2188 Q212.3875,395.5 211.95,395.5 Q211.5594,395.5 211.3094,395.3281 Q211.0594,395.1563 210.95,394.7031 Q210.9031,394.3906 210.7313,394.2188 Q210.4188,393.8906 209.8563,393.7031 Q209.2938,393.5 208.7313,393.5 Q208.0281,393.5 207.4344,393.7813 Q206.8563,394.0625 206.4031,394.6875 Q205.95,395.3125 205.95,396.1719 L205.95,397.0938 Q205.95,398.125 206.7938,398.8125 Q207.6375,399.5 209.1375,399.5 Q210.0281,399.5 210.6531,399.2969 Q211.0125,399.1875 211.4188,398.8281 Q211.6844,398.625 211.825,398.5625 Q211.9656,398.5 212.1375,398.5 Q212.4656,398.5 212.7,398.7656 Q212.95,399.0156 212.95,399.375 Q212.95,399.7188 212.6063,400.125 Q212.1063,400.7188 211.3094,401.0469 Q210.2625,401.5 208.9813,401.5 Q207.4813,401.5 206.2781,400.9063 Q205.3094,400.4375 204.6219,399.4219 Q203.95,398.4063 203.95,397.2031 L203.95,396.1094 Q203.95,394.8594 204.5438,393.7656 Q205.1531,392.6719 206.2,392.0938 Q207.2625,391.5 208.45,391.5 Q209.1688,391.5 209.7938,391.75 Q210.4188,392 210.95,392.5 Z "/><text fill="#000000" font-family="sans-serif" font-size="12" lengthAdjust="spacingAndGlyphs" textLength="73" x="224.05" y="400.9102">UserSession</text><line style="stroke: #A80036; stroke-width: 1.5;" x1="190" x2="304" y1="412" y2="412"/><line style="stroke: #A80036; stroke-width: 1.5;" x1="190" x2="304" y1="420" y2="420"/><text fill="#000000" font-family="sans-serif" font-size="11" lengthAdjust="spacingAndGlyphs" textLength="104" x="195" y="435.4189">+getCurrentSession()</text><!--MD5=[99b8db98afdc2c8404e39242ef4c1e65]
class Platform--><rect fill="#FEFECE" filter="url(#fr9us6savglc4)" height="89.5078" id="Platform" style="stroke: #A80036; stroke-width: 1.5;" width="102" x="382" y="366"/><ellipse cx="407.8" cy="382" fill="#ADD1B2" rx="11" ry="11" style="stroke: #A80036; stroke-width: 1.0;"/><path d="M409.8,378.5 Q410.0031,378 410.2375,377.75 Q410.4719,377.5 410.7375,377.5 Q411.2063,377.5 411.5031,377.7813 Q411.8,378.0625 411.8,378.7188 L411.8,380.2813 Q411.8,380.9375 411.5188,381.2188 Q411.2375,381.5 410.8,381.5 Q410.4094,381.5 410.1594,381.3281 Q409.9094,381.1563 409.8,380.7031 Q409.7531,380.3906 409.5813,380.2188 Q409.2688,379.8906 408.7063,379.7031 Q408.1438,379.5 407.5813,379.5 Q406.8781,379.5 406.2844,379.7813 Q405.7063,380.0625 405.2531,380.6875 Q404.8,381.3125 404.8,382.1719 L404.8,383.0938 Q404.8,384.125 405.6438,384.8125 Q406.4875,385.5 407.9875,385.5 Q408.8781,385.5 409.5031,385.2969 Q409.8625,385.1875 410.2688,384.8281 Q410.5344,384.625 410.675,384.5625 Q410.8156,384.5 410.9875,384.5 Q411.3156,384.5 411.55,384.7656 Q411.8,385.0156 411.8,385.375 Q411.8,385.7188 411.4563,386.125 Q410.9563,386.7188 410.1594,387.0469 Q409.1125,387.5 407.8313,387.5 Q406.3313,387.5 405.1281,386.9063 Q404.1594,386.4375 403.4719,385.4219 Q402.8,384.4063 402.8,383.2031 L402.8,382.1094 Q402.8,380.8594 403.3938,379.7656 Q404.0031,378.6719 405.05,378.0938 Q406.1125,377.5 407.3,377.5 Q408.0188,377.5 408.6438,377.75 Q409.2688,378 409.8,378.5 Z "/><text fill="#000000" font-family="sans-serif" font-size="12" lengthAdjust="spacingAndGlyphs" textLength="46" x="424.2" y="386.9102">Platform</text><line style="stroke: #A80036; stroke-width: 1.5;" x1="383" x2="483" y1="398" y2="398"/><text fill="#000000" font-family="sans-serif" font-size="11" lengthAdjust="spacingAndGlyphs" textLength="90" x="388" y="413.4189">-String designation</text><line style="stroke: #A80036; stroke-width: 1.5;" x1="383" x2="483" y1="419.8359" y2="419.8359"/><text fill="#000000" font-family="sans-serif" font-size="11" lengthAdjust="spacingAndGlyphs" textLength="75" x="388" y="435.2549">+gePharmReg()</text><text fill="#000000" font-family="sans-serif" font-size="11" lengthAdjust="spacingAndGlyphs" textLength="76" x="388" y="449.0908">+getScootReg()</text><!--MD5=[f4402668d5d5bb8485350c0fdb60ac8e]
class Scooter--><rect fill="#FEFECE" filter="url(#fr9us6savglc4)" height="158.6875" id="Scooter" style="stroke: #A80036; stroke-width: 1.5;" width="237" x="420.5" y="753"/><ellipse cx="513.75" cy="769" fill="#ADD1B2" rx="11" ry="11" style="stroke: #A80036; stroke-width: 1.0;"/><path d="M515.75,765.5 Q515.9531,765 516.1875,764.75 Q516.4219,764.5 516.6875,764.5 Q517.1563,764.5 517.4531,764.7813 Q517.75,765.0625 517.75,765.7188 L517.75,767.2813 Q517.75,767.9375 517.4688,768.2188 Q517.1875,768.5 516.75,768.5 Q516.3594,768.5 516.1094,768.3281 Q515.8594,768.1563 515.75,767.7031 Q515.7031,767.3906 515.5313,767.2188 Q515.2188,766.8906 514.6563,766.7031 Q514.0938,766.5 513.5313,766.5 Q512.8281,766.5 512.2344,766.7813 Q511.6563,767.0625 511.2031,767.6875 Q510.75,768.3125 510.75,769.1719 L510.75,770.0938 Q510.75,771.125 511.5938,771.8125 Q512.4375,772.5 513.9375,772.5 Q514.8281,772.5 515.4531,772.2969 Q515.8125,772.1875 516.2188,771.8281 Q516.4844,771.625 516.625,771.5625 Q516.7656,771.5 516.9375,771.5 Q517.2656,771.5 517.5,771.7656 Q517.75,772.0156 517.75,772.375 Q517.75,772.7188 517.4063,773.125 Q516.9063,773.7188 516.1094,774.0469 Q515.0625,774.5 513.7813,774.5 Q512.2813,774.5 511.0781,773.9063 Q510.1094,773.4375 509.4219,772.4219 Q508.75,771.4063 508.75,770.2031 L508.75,769.1094 Q508.75,767.8594 509.3438,766.7656 Q509.9531,765.6719 511,765.0938 Q512.0625,764.5 513.25,764.5 Q513.9688,764.5 514.5938,764.75 Q515.2188,765 515.75,765.5 Z "/><text fill="#000000" font-family="sans-serif" font-size="12" lengthAdjust="spacingAndGlyphs" textLength="42" x="534.25" y="773.9102">Scooter</text><line style="stroke: #A80036; stroke-width: 1.5;" x1="421.5" x2="656.5" y1="785" y2="785"/><text fill="#000000" font-family="sans-serif" font-size="11" lengthAdjust="spacingAndGlyphs" textLength="26" x="426.5" y="800.4189">-int id</text><text fill="#000000" font-family="sans-serif" font-size="11" lengthAdjust="spacingAndGlyphs" textLength="74" x="426.5" y="814.2549">-int batteryPerc</text><text fill="#000000" font-family="sans-serif" font-size="11" lengthAdjust="spacingAndGlyphs" textLength="85" x="426.5" y="828.0908">-int charginStatus</text><text fill="#000000" font-family="sans-serif" font-size="11" lengthAdjust="spacingAndGlyphs" textLength="57" x="426.5" y="841.9268">-int potency</text><text fill="#000000" font-family="sans-serif" font-size="11" lengthAdjust="spacingAndGlyphs" textLength="51" x="426.5" y="855.7627">-int weight</text><text fill="#000000" font-family="sans-serif" font-size="11" lengthAdjust="spacingAndGlyphs" textLength="94" x="426.5" y="869.5986">-int batteryCapacity</text><line style="stroke: #A80036; stroke-width: 1.5;" x1="421.5" x2="656.5" y1="876.0156" y2="876.0156"/><text fill="#000000" font-family="sans-serif" font-size="11" lengthAdjust="spacingAndGlyphs" textLength="225" x="426.5" y="891.4346">+Scooter(batteryPerc, charginStatus, potency,</text><text fill="#000000" font-family="sans-serif" font-size="11" lengthAdjust="spacingAndGlyphs" textLength="173" x="429.5" y="905.2705">weight, batteryCapacity, pharmacy)</text><!--MD5=[0f39e4cb6f03951afbf6d14bd2505654]
class Address--><rect fill="#FEFECE" filter="url(#fr9us6savglc4)" height="144.8516" id="Address" style="stroke: #A80036; stroke-width: 1.5;" width="106" x="373" y="1144"/><ellipse cx="400.6" cy="1160" fill="#ADD1B2" rx="11" ry="11" style="stroke: #A80036; stroke-width: 1.0;"/><path d="M402.6,1156.5 Q402.8031,1156 403.0375,1155.75 Q403.2719,1155.5 403.5375,1155.5 Q404.0063,1155.5 404.3031,1155.7813 Q404.6,1156.0625 404.6,1156.7188 L404.6,1158.2813 Q404.6,1158.9375 404.3188,1159.2188 Q404.0375,1159.5 403.6,1159.5 Q403.2094,1159.5 402.9594,1159.3281 Q402.7094,1159.1563 402.6,1158.7031 Q402.5531,1158.3906 402.3813,1158.2188 Q402.0688,1157.8906 401.5063,1157.7031 Q400.9438,1157.5 400.3813,1157.5 Q399.6781,1157.5 399.0844,1157.7813 Q398.5063,1158.0625 398.0531,1158.6875 Q397.6,1159.3125 397.6,1160.1719 L397.6,1161.0938 Q397.6,1162.125 398.4438,1162.8125 Q399.2875,1163.5 400.7875,1163.5 Q401.6781,1163.5 402.3031,1163.2969 Q402.6625,1163.1875 403.0688,1162.8281 Q403.3344,1162.625 403.475,1162.5625 Q403.6156,1162.5 403.7875,1162.5 Q404.1156,1162.5 404.35,1162.7656 Q404.6,1163.0156 404.6,1163.375 Q404.6,1163.7188 404.2563,1164.125 Q403.7563,1164.7188 402.9594,1165.0469 Q401.9125,1165.5 400.6313,1165.5 Q399.1313,1165.5 397.9281,1164.9063 Q396.9594,1164.4375 396.2719,1163.4219 Q395.6,1162.4063 395.6,1161.2031 L395.6,1160.1094 Q395.6,1158.8594 396.1938,1157.7656 Q396.8031,1156.6719 397.85,1156.0938 Q398.9125,1155.5 400.1,1155.5 Q400.8188,1155.5 401.4438,1155.75 Q402.0688,1156 402.6,1156.5 Z "/><text fill="#000000" font-family="sans-serif" font-size="12" lengthAdjust="spacingAndGlyphs" textLength="46" x="417.4" y="1164.9102">Address</text><line style="stroke: #A80036; stroke-width: 1.5;" x1="374" x2="478" y1="1176" y2="1176"/><text fill="#000000" font-family="sans-serif" font-size="11" lengthAdjust="spacingAndGlyphs" textLength="71" x="379" y="1191.4189">-float longitude</text><text fill="#000000" font-family="sans-serif" font-size="11" lengthAdjust="spacingAndGlyphs" textLength="62" x="379" y="1205.2549">-float latitude</text><text fill="#000000" font-family="sans-serif" font-size="11" lengthAdjust="spacingAndGlyphs" textLength="94" x="379" y="1219.0908">-String doorNumber</text><text fill="#000000" font-family="sans-serif" font-size="11" lengthAdjust="spacingAndGlyphs" textLength="90" x="379" y="1232.9268">-String streetName</text><text fill="#000000" font-family="sans-serif" font-size="11" lengthAdjust="spacingAndGlyphs" textLength="89" x="379" y="1246.7627">-String postalCode</text><text fill="#000000" font-family="sans-serif" font-size="11" lengthAdjust="spacingAndGlyphs" textLength="68" x="379" y="1260.5986">-String locality</text><text fill="#000000" font-family="sans-serif" font-size="11" lengthAdjust="spacingAndGlyphs" textLength="72" x="379" y="1274.4346">-String country</text><line style="stroke: #A80036; stroke-width: 1.5;" x1="374" x2="478" y1="1280.8516" y2="1280.8516"/><!--MD5=[7f2a9fafcebe4f099f71398fd3e2ed00]
class Pharmacy--><rect fill="#FEFECE" filter="url(#fr9us6savglc4)" height="75.6719" id="Pharmacy" style="stroke: #A80036; stroke-width: 1.5;" width="87" x="382.5" y="990"/><ellipse cx="397.5" cy="1006" fill="#ADD1B2" rx="11" ry="11" style="stroke: #A80036; stroke-width: 1.0;"/><path d="M399.5,1002.5 Q399.7031,1002 399.9375,1001.75 Q400.1719,1001.5 400.4375,1001.5 Q400.9063,1001.5 401.2031,1001.7813 Q401.5,1002.0625 401.5,1002.7188 L401.5,1004.2813 Q401.5,1004.9375 401.2188,1005.2188 Q400.9375,1005.5 400.5,1005.5 Q400.1094,1005.5 399.8594,1005.3281 Q399.6094,1005.1563 399.5,1004.7031 Q399.4531,1004.3906 399.2813,1004.2188 Q398.9688,1003.8906 398.4063,1003.7031 Q397.8438,1003.5 397.2813,1003.5 Q396.5781,1003.5 395.9844,1003.7813 Q395.4063,1004.0625 394.9531,1004.6875 Q394.5,1005.3125 394.5,1006.1719 L394.5,1007.0938 Q394.5,1008.125 395.3438,1008.8125 Q396.1875,1009.5 397.6875,1009.5 Q398.5781,1009.5 399.2031,1009.2969 Q399.5625,1009.1875 399.9688,1008.8281 Q400.2344,1008.625 400.375,1008.5625 Q400.5156,1008.5 400.6875,1008.5 Q401.0156,1008.5 401.25,1008.7656 Q401.5,1009.0156 401.5,1009.375 Q401.5,1009.7188 401.1563,1010.125 Q400.6563,1010.7188 399.8594,1011.0469 Q398.8125,1011.5 397.5313,1011.5 Q396.0313,1011.5 394.8281,1010.9063 Q393.8594,1010.4375 393.1719,1009.4219 Q392.5,1008.4063 392.5,1007.2031 L392.5,1006.1094 Q392.5,1004.8594 393.0938,1003.7656 Q393.7031,1002.6719 394.75,1002.0938 Q395.8125,1001.5 397,1001.5 Q397.7188,1001.5 398.3438,1001.75 Q398.9688,1002 399.5,1002.5 Z "/><text fill="#000000" font-family="sans-serif" font-size="12" lengthAdjust="spacingAndGlyphs" textLength="55" x="411.5" y="1010.9102">Pharmacy</text><line style="stroke: #A80036; stroke-width: 1.5;" x1="383.5" x2="468.5" y1="1022" y2="1022"/><text fill="#000000" font-family="sans-serif" font-size="11" lengthAdjust="spacingAndGlyphs" textLength="26" x="388.5" y="1037.4189">-int id</text><text fill="#000000" font-family="sans-serif" font-size="11" lengthAdjust="spacingAndGlyphs" textLength="61" x="388.5" y="1051.2549">-String name</text><line style="stroke: #A80036; stroke-width: 1.5;" x1="383.5" x2="468.5" y1="1057.6719" y2="1057.6719"/><!--MD5=[3fd616f346a44cd59a91eb10b19e157c]
class User--><rect fill="#FEFECE" filter="url(#fr9us6savglc4)" height="103.3438" id="User" style="stroke: #A80036; stroke-width: 1.5;" width="97" x="533.5" y="1367"/><ellipse cx="565.6" cy="1383" fill="#ADD1B2" rx="11" ry="11" style="stroke: #A80036; stroke-width: 1.0;"/><path d="M567.6,1379.5 Q567.8031,1379 568.0375,1378.75 Q568.2719,1378.5 568.5375,1378.5 Q569.0063,1378.5 569.3031,1378.7813 Q569.6,1379.0625 569.6,1379.7188 L569.6,1381.2813 Q569.6,1381.9375 569.3188,1382.2188 Q569.0375,1382.5 568.6,1382.5 Q568.2094,1382.5 567.9594,1382.3281 Q567.7094,1382.1563 567.6,1381.7031 Q567.5531,1381.3906 567.3813,1381.2188 Q567.0688,1380.8906 566.5063,1380.7031 Q565.9438,1380.5 565.3813,1380.5 Q564.6781,1380.5 564.0844,1380.7813 Q563.5063,1381.0625 563.0531,1381.6875 Q562.6,1382.3125 562.6,1383.1719 L562.6,1384.0938 Q562.6,1385.125 563.4438,1385.8125 Q564.2875,1386.5 565.7875,1386.5 Q566.6781,1386.5 567.3031,1386.2969 Q567.6625,1386.1875 568.0688,1385.8281 Q568.3344,1385.625 568.475,1385.5625 Q568.6156,1385.5 568.7875,1385.5 Q569.1156,1385.5 569.35,1385.7656 Q569.6,1386.0156 569.6,1386.375 Q569.6,1386.7188 569.2563,1387.125 Q568.7563,1387.7188 567.9594,1388.0469 Q566.9125,1388.5 565.6313,1388.5 Q564.1313,1388.5 562.9281,1387.9063 Q561.9594,1387.4375 561.2719,1386.4219 Q560.6,1385.4063 560.6,1384.2031 L560.6,1383.1094 Q560.6,1381.8594 561.1938,1380.7656 Q561.8031,1379.6719 562.85,1379.0938 Q563.9125,1378.5 565.1,1378.5 Q565.8188,1378.5 566.4438,1378.75 Q567.0688,1379 567.6,1379.5 Z "/><text fill="#000000" font-family="sans-serif" font-size="12" lengthAdjust="spacingAndGlyphs" textLength="27" x="583.4" y="1387.9102">User</text><line style="stroke: #A80036; stroke-width: 1.5;" x1="534.5" x2="629.5" y1="1399" y2="1399"/><text fill="#000000" font-family="sans-serif" font-size="11" lengthAdjust="spacingAndGlyphs" textLength="61" x="539.5" y="1414.4189">-String name</text><text fill="#000000" font-family="sans-serif" font-size="11" lengthAdjust="spacingAndGlyphs" textLength="59" x="539.5" y="1428.2549">-String email</text><text fill="#000000" font-family="sans-serif" font-size="11" lengthAdjust="spacingAndGlyphs" textLength="85" x="539.5" y="1442.0908">-String password</text><text fill="#000000" font-family="sans-serif" font-size="11" lengthAdjust="spacingAndGlyphs" textLength="52" x="539.5" y="1455.9268">-Integer nif</text><line style="stroke: #A80036; stroke-width: 1.5;" x1="534.5" x2="629.5" y1="1462.3438" y2="1462.3438"/><!--MD5=[2fa756869cccd4a326cf3bfeb06b754f]
class PharmacyManager--><rect fill="#FEFECE" filter="url(#fr9us6savglc4)" height="48" id="PharmacyManager" style="stroke: #A80036; stroke-width: 1.5;" width="135" x="514.5" y="1192.5"/><ellipse cx="529.5" cy="1208.5" fill="#ADD1B2" rx="11" ry="11" style="stroke: #A80036; stroke-width: 1.0;"/><path d="M531.5,1205 Q531.7031,1204.5 531.9375,1204.25 Q532.1719,1204 532.4375,1204 Q532.9063,1204 533.2031,1204.2813 Q533.5,1204.5625 533.5,1205.2188 L533.5,1206.7813 Q533.5,1207.4375 533.2188,1207.7188 Q532.9375,1208 532.5,1208 Q532.1094,1208 531.8594,1207.8281 Q531.6094,1207.6563 531.5,1207.2031 Q531.4531,1206.8906 531.2813,1206.7188 Q530.9688,1206.3906 530.4063,1206.2031 Q529.8438,1206 529.2813,1206 Q528.5781,1206 527.9844,1206.2813 Q527.4063,1206.5625 526.9531,1207.1875 Q526.5,1207.8125 526.5,1208.6719 L526.5,1209.5938 Q526.5,1210.625 527.3438,1211.3125 Q528.1875,1212 529.6875,1212 Q530.5781,1212 531.2031,1211.7969 Q531.5625,1211.6875 531.9688,1211.3281 Q532.2344,1211.125 532.375,1211.0625 Q532.5156,1211 532.6875,1211 Q533.0156,1211 533.25,1211.2656 Q533.5,1211.5156 533.5,1211.875 Q533.5,1212.2188 533.1563,1212.625 Q532.6563,1213.2188 531.8594,1213.5469 Q530.8125,1214 529.5313,1214 Q528.0313,1214 526.8281,1213.4063 Q525.8594,1212.9375 525.1719,1211.9219 Q524.5,1210.9063 524.5,1209.7031 L524.5,1208.6094 Q524.5,1207.3594 525.0938,1206.2656 Q525.7031,1205.1719 526.75,1204.5938 Q527.8125,1204 529,1204 Q529.7188,1204 530.3438,1204.25 Q530.9688,1204.5 531.5,1205 Z "/><text fill="#000000" font-family="sans-serif" font-size="12" lengthAdjust="spacingAndGlyphs" textLength="103" x="543.5" y="1213.4102">PharmacyManager</text><line style="stroke: #A80036; stroke-width: 1.5;" x1="515.5" x2="648.5" y1="1224.5" y2="1224.5"/><line style="stroke: #A80036; stroke-width: 1.5;" x1="515.5" x2="648.5" y1="1232.5" y2="1232.5"/><!--MD5=[c5b7c01e8de644a6bcc6ccb0cb86eabf]
class PharmacyRegistration--><rect fill="#FEFECE" filter="url(#fr9us6savglc4)" height="75.6719" id="PharmacyRegistration" style="stroke: #A80036; stroke-width: 1.5;" width="190" x="602" y="576.5"/><ellipse cx="633.2" cy="592.5" fill="#ADD1B2" rx="11" ry="11" style="stroke: #A80036; stroke-width: 1.0;"/><path d="M635.2,589 Q635.4031,588.5 635.6375,588.25 Q635.8719,588 636.1375,588 Q636.6063,588 636.9031,588.2813 Q637.2,588.5625 637.2,589.2188 L637.2,590.7813 Q637.2,591.4375 636.9188,591.7188 Q636.6375,592 636.2,592 Q635.8094,592 635.5594,591.8281 Q635.3094,591.6563 635.2,591.2031 Q635.1531,590.8906 634.9813,590.7188 Q634.6688,590.3906 634.1063,590.2031 Q633.5438,590 632.9813,590 Q632.2781,590 631.6844,590.2813 Q631.1063,590.5625 630.6531,591.1875 Q630.2,591.8125 630.2,592.6719 L630.2,593.5938 Q630.2,594.625 631.0438,595.3125 Q631.8875,596 633.3875,596 Q634.2781,596 634.9031,595.7969 Q635.2625,595.6875 635.6688,595.3281 Q635.9344,595.125 636.075,595.0625 Q636.2156,595 636.3875,595 Q636.7156,595 636.95,595.2656 Q637.2,595.5156 637.2,595.875 Q637.2,596.2188 636.8563,596.625 Q636.3563,597.2188 635.5594,597.5469 Q634.5125,598 633.2313,598 Q631.7313,598 630.5281,597.4063 Q629.5594,596.9375 628.8719,595.9219 Q628.2,594.9063 628.2,593.7031 L628.2,592.6094 Q628.2,591.3594 628.7938,590.2656 Q629.4031,589.1719 630.45,588.5938 Q631.5125,588 632.7,588 Q633.4188,588 634.0438,588.25 Q634.6688,588.5 635.2,589 Z "/><text fill="#000000" font-family="sans-serif" font-size="12" lengthAdjust="spacingAndGlyphs" textLength="122" x="650.8" y="597.4102">PharmacyRegistration</text><line style="stroke: #A80036; stroke-width: 1.5;" x1="603" x2="791" y1="608.5" y2="608.5"/><line style="stroke: #A80036; stroke-width: 1.5;" x1="603" x2="791" y1="616.5" y2="616.5"/><text fill="#000000" font-family="sans-serif" font-size="11" lengthAdjust="spacingAndGlyphs" textLength="178" x="608" y="631.9189">+getPharmacyByManager(userEmail)</text><text fill="#000000" font-family="sans-serif" font-size="11" lengthAdjust="spacingAndGlyphs" textLength="83" x="608" y="645.7549">+getConnection()</text><!--MD5=[4a15ac34fd2b3f03c890a74250c9952b]
class ScooterRegistration--><rect fill="#FEFECE" filter="url(#fr9us6savglc4)" height="117.1797" id="ScooterRegistration" style="stroke: #A80036; stroke-width: 1.5;" width="259" x="827.5" y="556"/><ellipse cx="898.25" cy="572" fill="#ADD1B2" rx="11" ry="11" style="stroke: #A80036; stroke-width: 1.0;"/><path d="M900.25,568.5 Q900.4531,568 900.6875,567.75 Q900.9219,567.5 901.1875,567.5 Q901.6563,567.5 901.9531,567.7813 Q902.25,568.0625 902.25,568.7188 L902.25,570.2813 Q902.25,570.9375 901.9688,571.2188 Q901.6875,571.5 901.25,571.5 Q900.8594,571.5 900.6094,571.3281 Q900.3594,571.1563 900.25,570.7031 Q900.2031,570.3906 900.0313,570.2188 Q899.7188,569.8906 899.1563,569.7031 Q898.5938,569.5 898.0313,569.5 Q897.3281,569.5 896.7344,569.7813 Q896.1563,570.0625 895.7031,570.6875 Q895.25,571.3125 895.25,572.1719 L895.25,573.0938 Q895.25,574.125 896.0938,574.8125 Q896.9375,575.5 898.4375,575.5 Q899.3281,575.5 899.9531,575.2969 Q900.3125,575.1875 900.7188,574.8281 Q900.9844,574.625 901.125,574.5625 Q901.2656,574.5 901.4375,574.5 Q901.7656,574.5 902,574.7656 Q902.25,575.0156 902.25,575.375 Q902.25,575.7188 901.9063,576.125 Q901.4063,576.7188 900.6094,577.0469 Q899.5625,577.5 898.2813,577.5 Q896.7813,577.5 895.5781,576.9063 Q894.6094,576.4375 893.9219,575.4219 Q893.25,574.4063 893.25,573.2031 L893.25,572.1094 Q893.25,570.8594 893.8438,569.7656 Q894.4531,568.6719 895.5,568.0938 Q896.5625,567.5 897.75,567.5 Q898.4688,567.5 899.0938,567.75 Q899.7188,568 900.25,568.5 Z "/><text fill="#000000" font-family="sans-serif" font-size="12" lengthAdjust="spacingAndGlyphs" textLength="109" x="918.75" y="576.9102">ScooterRegistration</text><line style="stroke: #A80036; stroke-width: 1.5;" x1="828.5" x2="1085.5" y1="588" y2="588"/><line style="stroke: #A80036; stroke-width: 1.5;" x1="828.5" x2="1085.5" y1="596" y2="596"/><text fill="#000000" font-family="sans-serif" font-size="11" lengthAdjust="spacingAndGlyphs" textLength="247" x="833.5" y="611.4189">+newScooter(batteryPerc, charginStatus, potency,</text><text fill="#000000" font-family="sans-serif" font-size="11" lengthAdjust="spacingAndGlyphs" textLength="173" x="836.5" y="625.2549">weight, batteryCapacity, pharmacy)</text><text fill="#000000" font-family="sans-serif" font-size="11" lengthAdjust="spacingAndGlyphs" textLength="218" x="833.5" y="639.0908">+create(batteryPerc, charginStatus, potency,</text><text fill="#000000" font-family="sans-serif" font-size="11" lengthAdjust="spacingAndGlyphs" textLength="173" x="836.5" y="652.9268">weight, batteryCapacity, pharmacy)</text><text fill="#000000" font-family="sans-serif" font-size="11" lengthAdjust="spacingAndGlyphs" textLength="116" x="833.5" y="666.7627">+validateScooter(scoot)</text><!--MD5=[4b2d61224b33971326a22fe5d809d926]
class DataHandler--><rect fill="#FEFECE" filter="url(#fr9us6savglc4)" height="75.6719" id="DataHandler" style="stroke: #A80036; stroke-width: 1.5;" width="104" x="1167" y="373"/><ellipse cx="1182.9" cy="389" fill="#ADD1B2" rx="11" ry="11" style="stroke: #A80036; stroke-width: 1.0;"/><path d="M1184.9,385.5 Q1185.1031,385 1185.3375,384.75 Q1185.5719,384.5 1185.8375,384.5 Q1186.3063,384.5 1186.6031,384.7813 Q1186.9,385.0625 1186.9,385.7188 L1186.9,387.2813 Q1186.9,387.9375 1186.6188,388.2188 Q1186.3375,388.5 1185.9,388.5 Q1185.5094,388.5 1185.2594,388.3281 Q1185.0094,388.1563 1184.9,387.7031 Q1184.8531,387.3906 1184.6813,387.2188 Q1184.3688,386.8906 1183.8063,386.7031 Q1183.2438,386.5 1182.6813,386.5 Q1181.9781,386.5 1181.3844,386.7813 Q1180.8063,387.0625 1180.3531,387.6875 Q1179.9,388.3125 1179.9,389.1719 L1179.9,390.0938 Q1179.9,391.125 1180.7438,391.8125 Q1181.5875,392.5 1183.0875,392.5 Q1183.9781,392.5 1184.6031,392.2969 Q1184.9625,392.1875 1185.3688,391.8281 Q1185.6344,391.625 1185.775,391.5625 Q1185.9156,391.5 1186.0875,391.5 Q1186.4156,391.5 1186.65,391.7656 Q1186.9,392.0156 1186.9,392.375 Q1186.9,392.7188 1186.5563,393.125 Q1186.0563,393.7188 1185.2594,394.0469 Q1184.2125,394.5 1182.9313,394.5 Q1181.4313,394.5 1180.2281,393.9063 Q1179.2594,393.4375 1178.5719,392.4219 Q1177.9,391.4063 1177.9,390.2031 L1177.9,389.1094 Q1177.9,387.8594 1178.4938,386.7656 Q1179.1031,385.6719 1180.15,385.0938 Q1181.2125,384.5 1182.4,384.5 Q1183.1188,384.5 1183.7438,384.75 Q1184.3688,385 1184.9,385.5 Z "/><text fill="#000000" font-family="sans-serif" font-size="12" lengthAdjust="spacingAndGlyphs" textLength="70" x="1197.1" y="393.9102">DataHandler</text><line style="stroke: #A80036; stroke-width: 1.5;" x1="1168" x2="1270" y1="405" y2="405"/><line style="stroke: #A80036; stroke-width: 1.5;" x1="1168" x2="1270" y1="413" y2="413"/><text fill="#000000" font-family="sans-serif" font-size="11" lengthAdjust="spacingAndGlyphs" textLength="92" x="1173" y="428.4189">+openConnection()</text><text fill="#000000" font-family="sans-serif" font-size="11" lengthAdjust="spacingAndGlyphs" textLength="52" x="1173" y="442.2549">+closeAll()</text><!--MD5=[88cdc1ff0babf321196dd88b9a70f9c4]
reverse link DataHandler to PharmacyRegistration--><path d="M1154.83,459.79 C1145.81,464.92 1136.41,469.52 1127,473 C993.848,522.201 939.198,453.2 810,512 C777.839,526.638 748.386,553.762 727.618,576.289 " fill="none" id="DataHandler&lt;-PharmacyRegistration" style="stroke: #A80036; stroke-width: 1.0;"/><polygon fill="none" points="1151.41,453.67,1172.1,449.1,1158.78,465.58,1151.41,453.67" style="stroke: #A80036; stroke-width: 1.0;"/><!--MD5=[527120703de7dfffd3117b230a6ddff3]
reverse link DataHandler to ScooterRegistration--><path d="M1154.59,461.54 C1117.46,490.09 1070.61,526.125 1031.85,555.936 " fill="none" id="DataHandler&lt;-ScooterRegistration" style="stroke: #A80036; stroke-width: 1.0;"/><polygon fill="none" points="1150.52,455.84,1170.64,449.19,1159.05,466.93,1150.52,455.84" style="stroke: #A80036; stroke-width: 1.0;"/><!--MD5=[954f86ea882ac5dcad44771d5b1b4c17]
link RegisterScooterUI to RegisterScooterController--><path d="M175,108.09 C175,129.11 175,160.85 175,187.58 " fill="none" id="RegisterScooterUI-&gt;RegisterScooterController" style="stroke: #A80036; stroke-width: 1.0; stroke-dasharray: 7.0,7.0;"/><polygon fill="#A80036" points="175,192.85,179,183.85,175,187.85,171,183.85,175,192.85" style="stroke: #A80036; stroke-width: 1.0;"/><!--MD5=[2554efbba2da6dcb0c5d97dedc10b799]
link RegisterScooterController to Platform--><path d="M257.769,283.21 C278.771,295.2 301.032,308.59 321,322 C340.085,334.82 360.079,349.93 377.805,363.98 " fill="none" id="RegisterScooterController-&gt;Platform" style="stroke: #A80036; stroke-width: 1.0; stroke-dasharray: 7.0,7.0;"/><polygon fill="#A80036" points="381.786,367.15,377.2336,358.4164,377.8733,364.037,372.2527,364.6767,381.786,367.15" style="stroke: #A80036; stroke-width: 1.0;"/><!--MD5=[2b5e734699f3079cc966a0817e5e5946]
link RegisterScooterController to ApplicationPOT--><path d="M154.656,283.04 C142.562,309.21 127.307,342.23 115.386,368.04 " fill="none" id="RegisterScooterController-&gt;ApplicationPOT" style="stroke: #A80036; stroke-width: 1.0; stroke-dasharray: 7.0,7.0;"/><polygon fill="#A80036" points="113.2,372.77,120.5927,366.2625,115.2879,368.2268,113.3236,362.9219,113.2,372.77" style="stroke: #A80036; stroke-width: 1.0;"/><!--MD5=[d8b0574eccffa1bec6fe4d2aaced6501]
link RegisterScooterController to UserSession--><path d="M193.542,283.04 C205.584,311.64 221.065,348.4 232.265,375 " fill="none" id="RegisterScooterController-&gt;UserSession" style="stroke: #A80036; stroke-width: 1.0; stroke-dasharray: 7.0,7.0;"/><polygon fill="#A80036" points="234.305,379.85,234.4947,370.003,232.3627,375.2427,227.123,373.1107,234.305,379.85" style="stroke: #A80036; stroke-width: 1.0;"/><!--MD5=[f94ed16b1d761a53d4eba61183b6d758]
link Platform to PharmacyRegistration--><path d="M484.328,433.76 C512.426,446.86 547.098,465.06 575,486 C608.395,511.068 640.812,545.584 663.827,572.382 " fill="none" id="Platform-&gt;PharmacyRegistration" style="stroke: #A80036; stroke-width: 1.0;"/><polygon fill="#A80036" points="667.153,576.278,664.349,566.8367,663.9055,572.4762,658.2661,572.0327,667.153,576.278" style="stroke: #A80036; stroke-width: 1.0;"/><text fill="#000000" font-family="sans-serif" font-size="13" lengthAdjust="spacingAndGlyphs" textLength="21" x="594" y="500.4951">has</text><text fill="#000000" font-family="sans-serif" font-size="13" lengthAdjust="spacingAndGlyphs" textLength="7" x="492.0382" y="433.3901">1</text><text fill="#000000" font-family="sans-serif" font-size="13" lengthAdjust="spacingAndGlyphs" textLength="7" x="654.2131" y="565.6004">1</text><!--MD5=[10d7a1607bc161c4e7d004457651c20f]
link ScooterRegistration to Scooter--><path d="M855.586,673.192 C840.416,681.394 824.877,689.561 810,697 C755.553,724.228 739.622,726.124 685,753 C677.623,756.63 670.073,760.428 662.482,764.31 " fill="none" id="ScooterRegistration-&gt;Scooter" style="stroke: #A80036; stroke-width: 1.0;"/><polygon fill="#A80036" points="657.752,766.737,667.5855,766.1867,662.2005,764.4542,663.933,759.0692,657.752,766.737" style="stroke: #A80036; stroke-width: 1.0;"/><text fill="#000000" font-family="sans-serif" font-size="13" lengthAdjust="spacingAndGlyphs" textLength="53" x="792" y="719.4951">manages</text><text fill="#000000" font-family="sans-serif" font-size="13" lengthAdjust="spacingAndGlyphs" textLength="7" x="835.7996" y="694.8257">1</text><text fill="#000000" font-family="sans-serif" font-size="13" lengthAdjust="spacingAndGlyphs" textLength="5" x="665.5197" y="759.5279">*</text><!--MD5=[4a07f137c208f82f57837154e1cfa51e]
link Platform to Pharmacy--><path d="M416.902,456.18 C413.861,465.9 411.009,476.21 409,486 C366.662,692.373 368.108,752.765 406,960 C407.79,969.792 410.486,980.185 413.323,989.789 " fill="none" id="Platform-Pharmacy" style="stroke: #A80036; stroke-width: 1.0;"/><text fill="#000000" font-family="sans-serif" font-size="13" lengthAdjust="spacingAndGlyphs" textLength="82" x="379" y="719.4951">has registered</text><polygon fill="#000000" points="415.5,728.3516,418.5,734.3516,421.5,728.3516,415.5,728.3516" style="stroke: #000000; stroke-width: 1.0;"/><text fill="#000000" font-family="sans-serif" font-size="13" lengthAdjust="spacingAndGlyphs" textLength="7" x="407.2685" y="476.8779">1</text><text fill="#000000" font-family="sans-serif" font-size="13" lengthAdjust="spacingAndGlyphs" textLength="5" x="405.6196" y="979.1133">*</text><!--MD5=[423ba1e9b983bd24d1236c4cf89ceca7]
link Platform to Scooter--><path d="M422.895,456.16 C411.573,517.953 401.697,630.132 460,697 C470.202,708.701 482.433,694.647 494,705 C508.156,717.67 517.859,735.094 524.51,752.96 " fill="none" id="Platform-Scooter" style="stroke: #A80036; stroke-width: 1.0;"/><text fill="#000000" font-family="sans-serif" font-size="13" lengthAdjust="spacingAndGlyphs" textLength="82" x="461" y="619.9951">has registered</text><polygon fill="#000000" points="497.5,628.8516,500.5,634.8516,503.5,628.8516,497.5,628.8516" style="stroke: #000000; stroke-width: 1.0;"/><text fill="#000000" font-family="sans-serif" font-size="13" lengthAdjust="spacingAndGlyphs" textLength="7" x="422.0075" y="476.8552">1</text><text fill="#000000" font-family="sans-serif" font-size="13" lengthAdjust="spacingAndGlyphs" textLength="5" x="517.8906" y="742.1431">*</text><!--MD5=[754ae0e32ddeeb427901936d97e772de]
link Platform to PharmacyManager--><path d="M484.172,438.92 C511.534,456.08 543.175,480.94 561,512 C602.295,583.963 541.105,627.226 586,697 C611.288,736.302 652.406,712.09 675,753 C758.843,904.815 640.357,1121.914 596.89,1192.429 " fill="none" id="Platform-PharmacyManager" style="stroke: #A80036; stroke-width: 1.0;"/><text fill="#000000" font-family="sans-serif" font-size="13" lengthAdjust="spacingAndGlyphs" textLength="82" x="705" y="837.9951">has registered</text><polygon fill="#000000" points="741.5,846.8516,744.5,852.8516,747.5,846.8516,741.5,846.8516" style="stroke: #000000; stroke-width: 1.0;"/><text fill="#000000" font-family="sans-serif" font-size="13" lengthAdjust="spacingAndGlyphs" textLength="7" x="491.8603" y="457.5257">1</text><text fill="#000000" font-family="sans-serif" font-size="13" lengthAdjust="spacingAndGlyphs" textLength="5" x="595.0649" y="1181.751">*</text><!--MD5=[63120965f33aa30485eaf56f4034632c]
link PharmacyManager to User--><path d="M582,1240.834 C582,1271.541 582,1326.35 582,1366.803 " fill="none" id="PharmacyManager-User" style="stroke: #A80036; stroke-width: 1.0;"/><text fill="#000000" font-family="sans-serif" font-size="13" lengthAdjust="spacingAndGlyphs" textLength="43" x="583" y="1333.4951">acts as</text><polygon fill="#000000" points="600,1342.3516,603,1348.3516,606,1342.3516,600,1342.3516" style="stroke: #000000; stroke-width: 1.0;"/><text fill="#000000" font-family="sans-serif" font-size="13" lengthAdjust="spacingAndGlyphs" textLength="22" x="557.4563" y="1261.847">0..1</text><text fill="#000000" font-family="sans-serif" font-size="13" lengthAdjust="spacingAndGlyphs" textLength="7" x="574.5297" y="1356.2769">1</text><!--MD5=[09fe915c748217accc4fcc978cf154f9]
link PharmacyManager to Scooter--><path d="M579.915,1192.417 C575.596,1145.293 565.143,1034.646 554,942 C552.842,932.371 551.55,922.273 550.223,912.274 " fill="none" id="PharmacyManager-Scooter" style="stroke: #A80036; stroke-width: 1.0;"/><polygon fill="#000000" points="588.5,1030,591.5,1024,594.5,1030,588.5,1030" style="stroke: #000000; stroke-width: 1.0;"/><text fill="#000000" font-family="sans-serif" font-size="13" lengthAdjust="spacingAndGlyphs" textLength="50" x="568" y="1046.4951">registers</text><text fill="#000000" font-family="sans-serif" font-size="13" lengthAdjust="spacingAndGlyphs" textLength="7" x="571.4838" y="1181.7359">1</text><text fill="#000000" font-family="sans-serif" font-size="13" lengthAdjust="spacingAndGlyphs" textLength="20" x="530.3243" y="933.0654">1..*</text><!--MD5=[1563ddde69eb8abda9b50e9ab8dfb994]
link Pharmacy to PharmacyManager--><path d="M457.194,1066.293 C488.67,1103.923 536.283,1160.845 562.672,1192.393 " fill="none" id="Pharmacy-PharmacyManager" style="stroke: #A80036; stroke-width: 1.0;"/><text fill="#000000" font-family="sans-serif" font-size="13" lengthAdjust="spacingAndGlyphs" textLength="21" x="496" y="1110.4951">has</text><polygon fill="#000000" points="502,1119.3516,505,1125.3516,508,1119.3516,502,1119.3516" style="stroke: #000000; stroke-width: 1.0;"/><text fill="#000000" font-family="sans-serif" font-size="13" lengthAdjust="spacingAndGlyphs" textLength="7" x="454.6077" y="1087.2202">1</text><text fill="#000000" font-family="sans-serif" font-size="13" lengthAdjust="spacingAndGlyphs" textLength="7" x="549.8223" y="1181.7057">1</text><!--MD5=[cf4f95b832970cfa6e3a3c87e0aa2b32]
link Pharmacy to Scooter--><path d="M469.848,995.055 C481.311,984.93 492.751,972.962 501,960 C510.234,945.49 517.319,928.625 522.721,912.029 " fill="none" id="Pharmacy-Scooter" style="stroke: #A80036; stroke-width: 1.0;"/><polygon fill="#000000" points="517,953,520,947,523,953,517,953" style="stroke: #000000; stroke-width: 1.0;"/><text fill="#000000" font-family="sans-serif" font-size="13" lengthAdjust="spacingAndGlyphs" textLength="21" x="511" y="969.4951">has</text><text fill="#000000" font-family="sans-serif" font-size="13" lengthAdjust="spacingAndGlyphs" textLength="7" x="477.3941" y="986.0787">1</text><text fill="#000000" font-family="sans-serif" font-size="13" lengthAdjust="spacingAndGlyphs" textLength="5" x="516.1072" y="933.0747">*</text><!--MD5=[6f1b2737b94c689eac8b0af6a5ef1443]
link Scooter to Pharmacy--><path d="M436.296,912.19 C429.025,921.474 422.716,931.437 418,942 C411.414,956.753 411.886,974.352 414.601,989.7 " fill="none" id="Scooter-Pharmacy" style="stroke: #A80036; stroke-width: 1.0;"/><text fill="#000000" font-family="sans-serif" font-size="13" lengthAdjust="spacingAndGlyphs" textLength="60" x="419" y="956.4951">belongs to</text><polygon fill="#000000" points="444.5,965.3516,447.5,971.3516,450.5,965.3516,444.5,965.3516" style="stroke: #000000; stroke-width: 1.0;"/><text fill="#000000" font-family="sans-serif" font-size="13" lengthAdjust="spacingAndGlyphs" textLength="5" x="422.255" y="933.2495">*</text><text fill="#000000" font-family="sans-serif" font-size="13" lengthAdjust="spacingAndGlyphs" textLength="7" x="413.194" y="979.0085">1</text><!--MD5=[89baec1bfb4a213750f7c61516e0a0f1]
link Pharmacy to Address--><path d="M426,1066.293 C426,1088.509 426,1117.451 426,1143.924 " fill="none" id="Pharmacy-Address" style="stroke: #A80036; stroke-width: 1.0;"/><text fill="#000000" font-family="sans-serif" font-size="13" lengthAdjust="spacingAndGlyphs" textLength="21" x="427" y="1110.4951">has</text><polygon fill="#000000" points="433,1119.3516,436,1125.3516,439,1119.3516,433,1119.3516" style="stroke: #000000; stroke-width: 1.0;"/><text fill="#000000" font-family="sans-serif" font-size="13" lengthAdjust="spacingAndGlyphs" textLength="7" x="418.4422" y="1087.2202">1</text><text fill="#000000" font-family="sans-serif" font-size="13" lengthAdjust="spacingAndGlyphs" textLength="7" x="418.6391" y="1133.1355">1</text><!--MD5=[57206d39d625a93ac3bc80e9b1b10e67]
@startuml
skinparam classAttributeIconSize 0

package "UI" #DDDDDD {
class RegisterScooterUI{

}
}


package "Controller" #DDDDDD {
class RegisterScooterController{
+newScooter(batteryPerc, charginStatus, potency,\n weight, batteryCapacity, pharmacy)
+registersScooter()
}

class ApplicationPOT
{
  +static getInstance()
  +getPlatform()
}

class UserSession
{
  +getCurrentSession()
}
}


package "Model" #DDDDDD {
class Platform {
  -String designation
  +gePharmReg()
  +getScootReg()
}
package "Registration" #DDDDDD {
 class PharmacyRegistration{
     +getPharmacyByManager(userEmail)
     +getConnection()
 }

 class ScooterRegistration{
      +newScooter(batteryPerc, charginStatus, potency,\n weight, batteryCapacity, pharmacy)
      +create(batteryPerc, charginStatus, potency,\n weight, batteryCapacity, pharmacy)
      +validateScooter(scoot)
  }
 }
}

package "Model" #DDDDDD {
class Scooter{
  -int id
  -int batteryPerc
  -int charginStatus
  -int potency
  -int weight
  -int batteryCapacity
  +Scooter(batteryPerc, charginStatus, potency,\n weight, batteryCapacity, pharmacy)
}

class Address{
  -float longitude
  -float latitude
  -String doorNumber
  -String streetName
  -String postalCode
  -String locality
  -String country
}

class Pharmacy {
  -int id
  -String name
}

class User{
-   String name
-   String email
-   String password
-   Integer nif
}

class PharmacyManager {
}

}


package "Data" #DDDDDD {
class DataHandler{
    +openConnection()
    +closeAll()
}
}

class PharmacyRegistration extends DataHandler
class ScooterRegistration extends DataHandler

RegisterScooterUI ..> RegisterScooterController
RegisterScooterController ..> Platform
RegisterScooterController ..> ApplicationPOT
RegisterScooterController ..> UserSession
Platform "1" - -> "1" PharmacyRegistration : has
ScooterRegistration "1" - -> "*" Scooter : manages

Platform "1" - - "*" Pharmacy : has registered >
Platform "1" - - "*" Scooter : has registered >
Platform "1" - - "*" PharmacyManager : has registered >

PharmacyManager "0..1" - - "1" User: acts as >
PharmacyManager "1" - - "1..*" Scooter : registers >
Pharmacy "1" - - "1" PharmacyManager : has >
Pharmacy "1" - - "*" Scooter : has >
Pharmacy "1" - - "1" Address : has >
Scooter "*" - - "1" Pharmacy : belongs to >

@enduml

PlantUML version 1.2020.09(Sun May 10 11:51:06 BST 2020)
(GPL source distribution)
Java Runtime: OpenJDK Runtime Environment
JVM: OpenJDK 64-Bit Server VM
Java Version: 11.0.6+8-b765.40
Operating System: Windows 10
Default Encoding: Cp1252
Language: pt
Country: PT
--></g></svg>