<?xml version="1.0" encoding="UTF-8" standalone="no"?><svg xmlns="http://www.w3.org/2000/svg" xmlns:xlink="http://www.w3.org/1999/xlink" contentScriptType="application/ecmascript" contentStyleType="text/css" height="424px" preserveAspectRatio="none" style="width:782px;height:424px;" version="1.1" viewBox="0 0 782 424" width="782px" zoomAndPan="magnify"><defs><filter height="300%" id="f11n5nz64i9d3x" width="300%" x="-1" y="-1"><feGaussianBlur result="blurOut" stdDeviation="2.0"/><feColorMatrix in="blurOut" result="blurOut2" type="matrix" values="0 0 0 0 0 0 0 0 0 0 0 0 0 0 0 0 0 0 .4 0"/><feOffset dx="4.0" dy="4.0" in="blurOut2" result="blurOut3"/><feBlend in="SourceGraphic" in2="blurOut3" mode="normal"/></filter></defs><g><!--MD5=[99b8db98afdc2c8404e39242ef4c1e65]
class Platform--><rect fill="#FEFECE" filter="url(#f11n5nz64i9d3x)" height="53.8359" id="Platform" style="stroke: #A80036; stroke-width: 1.5;" width="102" x="6" y="106.5"/><ellipse cx="31.8" cy="122.5" fill="#ADD1B2" rx="11" ry="11" style="stroke: #A80036; stroke-width: 1.0;"/><path d="M33.8,119 Q34.0031,118.5 34.2375,118.25 Q34.4719,118 34.7375,118 Q35.2063,118 35.5031,118.2813 Q35.8,118.5625 35.8,119.2188 L35.8,120.7813 Q35.8,121.4375 35.5188,121.7188 Q35.2375,122 34.8,122 Q34.4094,122 34.1594,121.8281 Q33.9094,121.6563 33.8,121.2031 Q33.7531,120.8906 33.5813,120.7188 Q33.2688,120.3906 32.7063,120.2031 Q32.1438,120 31.5813,120 Q30.8781,120 30.2844,120.2813 Q29.7063,120.5625 29.2531,121.1875 Q28.8,121.8125 28.8,122.6719 L28.8,123.5938 Q28.8,124.625 29.6438,125.3125 Q30.4875,126 31.9875,126 Q32.8781,126 33.5031,125.7969 Q33.8625,125.6875 34.2688,125.3281 Q34.5344,125.125 34.675,125.0625 Q34.8156,125 34.9875,125 Q35.3156,125 35.55,125.2656 Q35.8,125.5156 35.8,125.875 Q35.8,126.2188 35.4563,126.625 Q34.9563,127.2188 34.1594,127.5469 Q33.1125,128 31.8313,128 Q30.3313,128 29.1281,127.4063 Q28.1594,126.9375 27.4719,125.9219 Q26.8,124.9063 26.8,123.7031 L26.8,122.6094 Q26.8,121.3594 27.3938,120.2656 Q28.0031,119.1719 29.05,118.5938 Q30.1125,118 31.3,118 Q32.0188,118 32.6438,118.25 Q33.2688,118.5 33.8,119 Z "/><text fill="#000000" font-family="sans-serif" font-size="12" lengthAdjust="spacingAndGlyphs" textLength="46" x="48.2" y="127.4102">Platform</text><line style="stroke: #A80036; stroke-width: 1.5;" x1="7" x2="107" y1="138.5" y2="138.5"/><text fill="#000000" font-family="sans-serif" font-size="11" lengthAdjust="spacingAndGlyphs" textLength="90" x="12" y="153.9189">-String designation</text><!--MD5=[7f2a9fafcebe4f099f71398fd3e2ed00]
class Pharmacy--><rect fill="#FEFECE" filter="url(#f11n5nz64i9d3x)" height="95.3438" id="Pharmacy" style="stroke: #A80036; stroke-width: 1.5;" width="96" x="204.5" y="164"/><ellipse cx="223.55" cy="180" fill="#ADD1B2" rx="11" ry="11" style="stroke: #A80036; stroke-width: 1.0;"/><path d="M225.55,176.5 Q225.7531,176 225.9875,175.75 Q226.2219,175.5 226.4875,175.5 Q226.9563,175.5 227.2531,175.7813 Q227.55,176.0625 227.55,176.7188 L227.55,178.2813 Q227.55,178.9375 227.2688,179.2188 Q226.9875,179.5 226.55,179.5 Q226.1594,179.5 225.9094,179.3281 Q225.6594,179.1563 225.55,178.7031 Q225.5031,178.3906 225.3313,178.2188 Q225.0188,177.8906 224.4563,177.7031 Q223.8938,177.5 223.3313,177.5 Q222.6281,177.5 222.0344,177.7813 Q221.4563,178.0625 221.0031,178.6875 Q220.55,179.3125 220.55,180.1719 L220.55,181.0938 Q220.55,182.125 221.3938,182.8125 Q222.2375,183.5 223.7375,183.5 Q224.6281,183.5 225.2531,183.2969 Q225.6125,183.1875 226.0188,182.8281 Q226.2844,182.625 226.425,182.5625 Q226.5656,182.5 226.7375,182.5 Q227.0656,182.5 227.3,182.7656 Q227.55,183.0156 227.55,183.375 Q227.55,183.7188 227.2063,184.125 Q226.7063,184.7188 225.9094,185.0469 Q224.8625,185.5 223.5813,185.5 Q222.0813,185.5 220.8781,184.9063 Q219.9094,184.4375 219.2219,183.4219 Q218.55,182.4063 218.55,181.2031 L218.55,180.1094 Q218.55,178.8594 219.1438,177.7656 Q219.7531,176.6719 220.8,176.0938 Q221.8625,175.5 223.05,175.5 Q223.7688,175.5 224.3938,175.75 Q225.0188,176 225.55,176.5 Z "/><text fill="#000000" font-family="sans-serif" font-size="12" lengthAdjust="spacingAndGlyphs" textLength="55" x="238.45" y="184.9102">Pharmacy</text><line style="stroke: #A80036; stroke-width: 1.5;" x1="205.5" x2="299.5" y1="196" y2="196"/><text fill="#000000" font-family="sans-serif" font-size="11" lengthAdjust="spacingAndGlyphs" textLength="26" x="210.5" y="211.4189">-int id</text><text fill="#000000" font-family="sans-serif" font-size="11" lengthAdjust="spacingAndGlyphs" textLength="61" x="210.5" y="225.2549">-String name</text><text fill="#000000" font-family="sans-serif" font-size="11" lengthAdjust="spacingAndGlyphs" textLength="77" x="210.5" y="239.0908">-int parkingSlots</text><text fill="#000000" font-family="sans-serif" font-size="11" lengthAdjust="spacingAndGlyphs" textLength="84" x="210.5" y="252.9268">-int chargingSlots</text><!--MD5=[3fd616f346a44cd59a91eb10b19e157c]
class User--><rect fill="#FEFECE" filter="url(#f11n5nz64i9d3x)" height="95.3438" id="User" style="stroke: #A80036; stroke-width: 1.5;" width="97" x="665.5" y="8"/><ellipse cx="697.6" cy="24" fill="#ADD1B2" rx="11" ry="11" style="stroke: #A80036; stroke-width: 1.0;"/><path d="M699.6,20.5 Q699.8031,20 700.0375,19.75 Q700.2719,19.5 700.5375,19.5 Q701.0063,19.5 701.3031,19.7813 Q701.6,20.0625 701.6,20.7188 L701.6,22.2813 Q701.6,22.9375 701.3188,23.2188 Q701.0375,23.5 700.6,23.5 Q700.2094,23.5 699.9594,23.3281 Q699.7094,23.1563 699.6,22.7031 Q699.5531,22.3906 699.3813,22.2188 Q699.0688,21.8906 698.5063,21.7031 Q697.9438,21.5 697.3813,21.5 Q696.6781,21.5 696.0844,21.7813 Q695.5063,22.0625 695.0531,22.6875 Q694.6,23.3125 694.6,24.1719 L694.6,25.0938 Q694.6,26.125 695.4438,26.8125 Q696.2875,27.5 697.7875,27.5 Q698.6781,27.5 699.3031,27.2969 Q699.6625,27.1875 700.0688,26.8281 Q700.3344,26.625 700.475,26.5625 Q700.6156,26.5 700.7875,26.5 Q701.1156,26.5 701.35,26.7656 Q701.6,27.0156 701.6,27.375 Q701.6,27.7188 701.2563,28.125 Q700.7563,28.7188 699.9594,29.0469 Q698.9125,29.5 697.6313,29.5 Q696.1313,29.5 694.9281,28.9063 Q693.9594,28.4375 693.2719,27.4219 Q692.6,26.4063 692.6,25.2031 L692.6,24.1094 Q692.6,22.8594 693.1938,21.7656 Q693.8031,20.6719 694.85,20.0938 Q695.9125,19.5 697.1,19.5 Q697.8188,19.5 698.4438,19.75 Q699.0688,20 699.6,20.5 Z "/><text fill="#000000" font-family="sans-serif" font-size="12" lengthAdjust="spacingAndGlyphs" textLength="27" x="715.4" y="28.9102">User</text><line style="stroke: #A80036; stroke-width: 1.5;" x1="666.5" x2="761.5" y1="40" y2="40"/><text fill="#000000" font-family="sans-serif" font-size="11" lengthAdjust="spacingAndGlyphs" textLength="61" x="671.5" y="55.4189">-String name</text><text fill="#000000" font-family="sans-serif" font-size="11" lengthAdjust="spacingAndGlyphs" textLength="59" x="671.5" y="69.2549">-String email</text><text fill="#000000" font-family="sans-serif" font-size="11" lengthAdjust="spacingAndGlyphs" textLength="85" x="671.5" y="83.0908">-String password</text><text fill="#000000" font-family="sans-serif" font-size="11" lengthAdjust="spacingAndGlyphs" textLength="52" x="671.5" y="96.9268">-Integer nif</text><!--MD5=[2fa756869cccd4a326cf3bfeb06b754f]
class PharmacyManager--><rect fill="#FEFECE" filter="url(#f11n5nz64i9d3x)" height="40" id="PharmacyManager" style="stroke: #A80036; stroke-width: 1.5;" width="135" x="397" y="98.5"/><ellipse cx="412" cy="114.5" fill="#ADD1B2" rx="11" ry="11" style="stroke: #A80036; stroke-width: 1.0;"/><path d="M414,111 Q414.2031,110.5 414.4375,110.25 Q414.6719,110 414.9375,110 Q415.4063,110 415.7031,110.2813 Q416,110.5625 416,111.2188 L416,112.7813 Q416,113.4375 415.7188,113.7188 Q415.4375,114 415,114 Q414.6094,114 414.3594,113.8281 Q414.1094,113.6563 414,113.2031 Q413.9531,112.8906 413.7813,112.7188 Q413.4688,112.3906 412.9063,112.2031 Q412.3438,112 411.7813,112 Q411.0781,112 410.4844,112.2813 Q409.9063,112.5625 409.4531,113.1875 Q409,113.8125 409,114.6719 L409,115.5938 Q409,116.625 409.8438,117.3125 Q410.6875,118 412.1875,118 Q413.0781,118 413.7031,117.7969 Q414.0625,117.6875 414.4688,117.3281 Q414.7344,117.125 414.875,117.0625 Q415.0156,117 415.1875,117 Q415.5156,117 415.75,117.2656 Q416,117.5156 416,117.875 Q416,118.2188 415.6563,118.625 Q415.1563,119.2188 414.3594,119.5469 Q413.3125,120 412.0313,120 Q410.5313,120 409.3281,119.4063 Q408.3594,118.9375 407.6719,117.9219 Q407,116.9063 407,115.7031 L407,114.6094 Q407,113.3594 407.5938,112.2656 Q408.2031,111.1719 409.25,110.5938 Q410.3125,110 411.5,110 Q412.2188,110 412.8438,110.25 Q413.4688,110.5 414,111 Z "/><text fill="#000000" font-family="sans-serif" font-size="12" lengthAdjust="spacingAndGlyphs" textLength="103" x="426" y="119.4102">PharmacyManager</text><line style="stroke: #A80036; stroke-width: 1.5;" x1="398" x2="531" y1="130.5" y2="130.5"/><!--MD5=[f4402668d5d5bb8485350c0fdb60ac8e]
class Scooter--><rect fill="#FEFECE" filter="url(#f11n5nz64i9d3x)" height="136.8516" id="Scooter" style="stroke: #A80036; stroke-width: 1.5;" width="114" x="657" y="138"/><ellipse cx="690" cy="154" fill="#ADD1B2" rx="11" ry="11" style="stroke: #A80036; stroke-width: 1.0;"/><path d="M692,150.5 Q692.2031,150 692.4375,149.75 Q692.6719,149.5 692.9375,149.5 Q693.4063,149.5 693.7031,149.7813 Q694,150.0625 694,150.7188 L694,152.2813 Q694,152.9375 693.7188,153.2188 Q693.4375,153.5 693,153.5 Q692.6094,153.5 692.3594,153.3281 Q692.1094,153.1563 692,152.7031 Q691.9531,152.3906 691.7813,152.2188 Q691.4688,151.8906 690.9063,151.7031 Q690.3438,151.5 689.7813,151.5 Q689.0781,151.5 688.4844,151.7813 Q687.9063,152.0625 687.4531,152.6875 Q687,153.3125 687,154.1719 L687,155.0938 Q687,156.125 687.8438,156.8125 Q688.6875,157.5 690.1875,157.5 Q691.0781,157.5 691.7031,157.2969 Q692.0625,157.1875 692.4688,156.8281 Q692.7344,156.625 692.875,156.5625 Q693.0156,156.5 693.1875,156.5 Q693.5156,156.5 693.75,156.7656 Q694,157.0156 694,157.375 Q694,157.7188 693.6563,158.125 Q693.1563,158.7188 692.3594,159.0469 Q691.3125,159.5 690.0313,159.5 Q688.5313,159.5 687.3281,158.9063 Q686.3594,158.4375 685.6719,157.4219 Q685,156.4063 685,155.2031 L685,154.1094 Q685,152.8594 685.5938,151.7656 Q686.2031,150.6719 687.25,150.0938 Q688.3125,149.5 689.5,149.5 Q690.2188,149.5 690.8438,149.75 Q691.4688,150 692,150.5 Z "/><text fill="#000000" font-family="sans-serif" font-size="12" lengthAdjust="spacingAndGlyphs" textLength="42" x="708" y="158.9102">Scooter</text><line style="stroke: #A80036; stroke-width: 1.5;" x1="658" x2="770" y1="170" y2="170"/><text fill="#000000" font-family="sans-serif" font-size="11" lengthAdjust="spacingAndGlyphs" textLength="26" x="663" y="185.4189">-int id</text><text fill="#000000" font-family="sans-serif" font-size="11" lengthAdjust="spacingAndGlyphs" textLength="84" x="663" y="199.2549">-float batteryPerc</text><text fill="#000000" font-family="sans-serif" font-size="11" lengthAdjust="spacingAndGlyphs" textLength="102" x="663" y="213.0908">-String charginStatus</text><text fill="#000000" font-family="sans-serif" font-size="11" lengthAdjust="spacingAndGlyphs" textLength="67" x="663" y="226.9268">-float potency</text><text fill="#000000" font-family="sans-serif" font-size="11" lengthAdjust="spacingAndGlyphs" textLength="61" x="663" y="240.7627">-float weight</text><text fill="#000000" font-family="sans-serif" font-size="11" lengthAdjust="spacingAndGlyphs" textLength="94" x="663" y="254.5986">-int batteryCapacity</text><text fill="#000000" font-family="sans-serif" font-size="11" lengthAdjust="spacingAndGlyphs" textLength="86" x="663" y="268.4346">-float maxPayload</text><!--MD5=[0f39e4cb6f03951afbf6d14bd2505654]
class Address--><rect fill="#FEFECE" filter="url(#f11n5nz64i9d3x)" height="136.8516" id="Address" style="stroke: #A80036; stroke-width: 1.5;" width="106" x="411.5" y="277"/><ellipse cx="439.1" cy="293" fill="#ADD1B2" rx="11" ry="11" style="stroke: #A80036; stroke-width: 1.0;"/><path d="M441.1,289.5 Q441.3031,289 441.5375,288.75 Q441.7719,288.5 442.0375,288.5 Q442.5063,288.5 442.8031,288.7813 Q443.1,289.0625 443.1,289.7188 L443.1,291.2813 Q443.1,291.9375 442.8188,292.2188 Q442.5375,292.5 442.1,292.5 Q441.7094,292.5 441.4594,292.3281 Q441.2094,292.1563 441.1,291.7031 Q441.0531,291.3906 440.8813,291.2188 Q440.5688,290.8906 440.0063,290.7031 Q439.4438,290.5 438.8813,290.5 Q438.1781,290.5 437.5844,290.7813 Q437.0063,291.0625 436.5531,291.6875 Q436.1,292.3125 436.1,293.1719 L436.1,294.0938 Q436.1,295.125 436.9438,295.8125 Q437.7875,296.5 439.2875,296.5 Q440.1781,296.5 440.8031,296.2969 Q441.1625,296.1875 441.5688,295.8281 Q441.8344,295.625 441.975,295.5625 Q442.1156,295.5 442.2875,295.5 Q442.6156,295.5 442.85,295.7656 Q443.1,296.0156 443.1,296.375 Q443.1,296.7188 442.7563,297.125 Q442.2563,297.7188 441.4594,298.0469 Q440.4125,298.5 439.1313,298.5 Q437.6313,298.5 436.4281,297.9063 Q435.4594,297.4375 434.7719,296.4219 Q434.1,295.4063 434.1,294.2031 L434.1,293.1094 Q434.1,291.8594 434.6938,290.7656 Q435.3031,289.6719 436.35,289.0938 Q437.4125,288.5 438.6,288.5 Q439.3188,288.5 439.9438,288.75 Q440.5688,289 441.1,289.5 Z "/><text fill="#000000" font-family="sans-serif" font-size="12" lengthAdjust="spacingAndGlyphs" textLength="46" x="455.9" y="297.9102">Address</text><line style="stroke: #A80036; stroke-width: 1.5;" x1="412.5" x2="516.5" y1="309" y2="309"/><text fill="#000000" font-family="sans-serif" font-size="11" lengthAdjust="spacingAndGlyphs" textLength="71" x="417.5" y="324.4189">-float longitude</text><text fill="#000000" font-family="sans-serif" font-size="11" lengthAdjust="spacingAndGlyphs" textLength="62" x="417.5" y="338.2549">-float latitude</text><text fill="#000000" font-family="sans-serif" font-size="11" lengthAdjust="spacingAndGlyphs" textLength="94" x="417.5" y="352.0908">-String doorNumber</text><text fill="#000000" font-family="sans-serif" font-size="11" lengthAdjust="spacingAndGlyphs" textLength="90" x="417.5" y="365.9268">-String streetName</text><text fill="#000000" font-family="sans-serif" font-size="11" lengthAdjust="spacingAndGlyphs" textLength="89" x="417.5" y="379.7627">-String postalCode</text><text fill="#000000" font-family="sans-serif" font-size="11" lengthAdjust="spacingAndGlyphs" textLength="68" x="417.5" y="393.5986">-String locality</text><text fill="#000000" font-family="sans-serif" font-size="11" lengthAdjust="spacingAndGlyphs" textLength="72" x="417.5" y="407.4346">-String country</text><!--MD5=[4a07f137c208f82f57837154e1cfa51e]
link Platform to Pharmacy--><path d="M108.083,153.688 C137.757,165.65 175.134,180.717 204.29,192.47 " fill="none" id="Platform-Pharmacy" style="stroke: #A80036; stroke-width: 1.0;"/><text fill="#000000" font-family="sans-serif" font-size="13" lengthAdjust="spacingAndGlyphs" textLength="21" x="139" y="163.9951">has</text><polygon fill="#000000" points="163,157.1758,169,160.1758,163,163.1758,163,157.1758" style="stroke: #000000; stroke-width: 1.0;"/><text fill="#000000" font-family="sans-serif" font-size="13" lengthAdjust="spacingAndGlyphs" textLength="7" x="116.0999" y="171.3611">1</text><text fill="#000000" font-family="sans-serif" font-size="13" lengthAdjust="spacingAndGlyphs" textLength="5" x="191.525" y="204.2767">*</text><!--MD5=[754ae0e32ddeeb427901936d97e772de]
link Platform to PharmacyManager--><path d="M108.129,131.646 C180.81,128.957 315.599,123.971 396.662,120.972 " fill="none" id="Platform-PharmacyManager" style="stroke: #A80036; stroke-width: 1.0;"/><text fill="#000000" font-family="sans-serif" font-size="13" lengthAdjust="spacingAndGlyphs" textLength="82" x="205" y="120.9951">has registered</text><polygon fill="#000000" points="290,114.1758,296,117.1758,290,120.1758,290,114.1758" style="stroke: #000000; stroke-width: 1.0;"/><text fill="#000000" font-family="sans-serif" font-size="13" lengthAdjust="spacingAndGlyphs" textLength="7" x="116.1526" y="146.0817">1</text><text fill="#000000" font-family="sans-serif" font-size="13" lengthAdjust="spacingAndGlyphs" textLength="5" x="383.9688" y="135.6317">*</text><!--MD5=[63120965f33aa30485eaf56f4034632c]
link PharmacyManager to User--><path d="M532.151,101.534 C574.245,90.82 627.627,77.231 665.455,67.602 " fill="none" id="PharmacyManager-User" style="stroke: #A80036; stroke-width: 1.0;"/><text fill="#000000" font-family="sans-serif" font-size="13" lengthAdjust="spacingAndGlyphs" textLength="43" x="566.5" y="74.9951">acts as</text><polygon fill="#000000" points="612.5,68.1758,618.5,71.1758,612.5,74.1758,612.5,68.1758" style="stroke: #000000; stroke-width: 1.0;"/><text fill="#000000" font-family="sans-serif" font-size="13" lengthAdjust="spacingAndGlyphs" textLength="22" x="539.8932" y="114.1638">0..1</text><text fill="#000000" font-family="sans-serif" font-size="13" lengthAdjust="spacingAndGlyphs" textLength="7" x="650.4856" y="84.1758">1</text><!--MD5=[09fe915c748217accc4fcc978cf154f9]
link PharmacyManager to Scooter--><path d="M521.971,138.579 C562.347,152.934 616.451,172.171 656.771,186.508 " fill="none" id="PharmacyManager-Scooter" style="stroke: #A80036; stroke-width: 1.0;"/><text fill="#000000" font-family="sans-serif" font-size="13" lengthAdjust="spacingAndGlyphs" textLength="50" x="563" y="150.9951">registers</text><polygon fill="#000000" points="616,144.1758,622,147.1758,616,150.1758,616,144.1758" style="stroke: #000000; stroke-width: 1.0;"/><text fill="#000000" font-family="sans-serif" font-size="13" lengthAdjust="spacingAndGlyphs" textLength="7" x="530.1503" y="160.0208">1</text><text fill="#000000" font-family="sans-serif" font-size="13" lengthAdjust="spacingAndGlyphs" textLength="20" x="628.9976" y="198.6454">1..*</text><!--MD5=[1563ddde69eb8abda9b50e9ab8dfb994]
link Pharmacy to PharmacyManager--><path d="M300.628,190.629 C335.818,175.045 383.62,153.876 418.33,138.504 " fill="none" id="Pharmacy-PharmacyManager" style="stroke: #A80036; stroke-width: 1.0;"/><text fill="#000000" font-family="sans-serif" font-size="13" lengthAdjust="spacingAndGlyphs" textLength="21" x="332" y="157.9951">has</text><polygon fill="#000000" points="356,151.1758,362,154.1758,356,157.1758,356,151.1758" style="stroke: #000000; stroke-width: 1.0;"/><text fill="#000000" font-family="sans-serif" font-size="13" lengthAdjust="spacingAndGlyphs" textLength="7" x="308.5335" y="202.1538">1</text><text fill="#000000" font-family="sans-serif" font-size="13" lengthAdjust="spacingAndGlyphs" textLength="7" x="397.3603" y="159.9247">1</text><!--MD5=[6f1b2737b94c689eac8b0af6a5ef1443]
link Scooter to Pharmacy--><path d="M656.799,207.112 C565.278,208.107 385.718,210.061 300.515,210.988 " fill="none" id="Scooter-Pharmacy" style="stroke: #A80036; stroke-width: 1.0;"/><polygon fill="#000000" points="435,198.1758,429,201.1758,435,204.1758,435,198.1758" style="stroke: #000000; stroke-width: 1.0;"/><text fill="#000000" font-family="sans-serif" font-size="13" lengthAdjust="spacingAndGlyphs" textLength="60" x="441" y="204.9951">belongs to</text><text fill="#000000" font-family="sans-serif" font-size="13" lengthAdjust="spacingAndGlyphs" textLength="5" x="644.1498" y="221.7426">*</text><text fill="#000000" font-family="sans-serif" font-size="13" lengthAdjust="spacingAndGlyphs" textLength="7" x="308.4032" y="225.6303">1</text><!--MD5=[89baec1bfb4a213750f7c61516e0a0f1]
link Pharmacy to Address--><path d="M300.628,241.572 C333.52,262.561 377.431,290.58 411.371,312.237 " fill="none" id="Pharmacy-Address" style="stroke: #A80036; stroke-width: 1.0;"/><text fill="#000000" font-family="sans-serif" font-size="13" lengthAdjust="spacingAndGlyphs" textLength="21" x="332" y="258.9951">has</text><polygon fill="#000000" points="356,252.1758,362,255.1758,356,258.1758,356,252.1758" style="stroke: #000000; stroke-width: 1.0;"/><text fill="#000000" font-family="sans-serif" font-size="13" lengthAdjust="spacingAndGlyphs" textLength="7" x="308.5335" y="260.8975">1</text><text fill="#000000" font-family="sans-serif" font-size="13" lengthAdjust="spacingAndGlyphs" textLength="7" x="396.4075" y="322.2147">1</text><!--MD5=[1976ed474b624a3ec63d5e6b752ce46e]
@startuml
skinparam classAttributeIconSize 0
hide methods
left to right direction

class Platform {
  -String designation
}

class Pharmacy {
  -int id
  -String name
  -int parkingSlots
  -int chargingSlots
}

class User{
-   String name
-   String email
-   String password
-   Integer nif
}

class PharmacyManager {
}

class Scooter{
  -int id
  -float batteryPerc
  -String charginStatus
  -float potency
  -float weight
  -int batteryCapacity
  -float maxPayload
}

class Address{
  -float longitude
  -float latitude
  -String doorNumber
  -String streetName
  -String postalCode
  -String locality
  -String country
}



Platform "1" - - "*" Pharmacy : has >
Platform "1" - - "*" PharmacyManager : has registered >
PharmacyManager "0..1" - - "1" User: acts as >
PharmacyManager "1" - - "1..*" Scooter : registers >
Pharmacy "1" - - "1" PharmacyManager : has >
Scooter "*" - - "1" Pharmacy : belongs to >
Pharmacy "1" - - "1" Address : has >
@enduml

PlantUML version 1.2020.09(Sun May 10 11:51:06 BST 2020)
(GPL source distribution)
Java Runtime: OpenJDK Runtime Environment
JVM: OpenJDK 64-Bit Server VM
Java Version: 11.0.6+8-b765.40
Operating System: Windows 10
Default Encoding: Cp1252
Language: pt
Country: PT
--></g></svg>