<?xml version="1.0" encoding="UTF-8" standalone="no"?><svg xmlns="http://www.w3.org/2000/svg" xmlns:xlink="http://www.w3.org/1999/xlink" contentScriptType="application/ecmascript" contentStyleType="text/css" height="940px" preserveAspectRatio="none" style="width:1342px;height:940px;" version="1.1" viewBox="0 0 1342 940" width="1342px" zoomAndPan="magnify"><defs><filter height="300%" id="f1gs5cxznod4k" width="300%" x="-1" y="-1"><feGaussianBlur result="blurOut" stdDeviation="2.0"/><feColorMatrix in="blurOut" result="blurOut2" type="matrix" values="0 0 0 0 0 0 0 0 0 0 0 0 0 0 0 0 0 0 .4 0"/><feOffset dx="4.0" dy="4.0" in="blurOut2" result="blurOut3"/><feBlend in="SourceGraphic" in2="blurOut3" mode="normal"/></filter></defs><g><!--MD5=[9681dc6e01e10c6b4fe06895ae94f592]
cluster UI--><polygon fill="#DDDDDD" filter="url(#f1gs5cxznod4k)" points="92,24,112,24,119,47.6094,258,47.6094,258,124,92,124,92,24" style="stroke: #000000; stroke-width: 1.5;"/><line style="stroke: #000000; stroke-width: 1.5;" x1="92" x2="119" y1="47.6094" y2="47.6094"/><text fill="#000000" font-family="sans-serif" font-size="14" font-weight="bold" lengthAdjust="spacingAndGlyphs" textLength="14" x="96" y="40.5332">UI</text><!--MD5=[1f2cfc53d9d308f53762fd0fcbaa4873]
cluster Controller--><polygon fill="#DDDDDD" filter="url(#f1gs5cxznod4k)" points="22,157,99,157,106,180.6094,321,180.6094,321,465,22,465,22,157" style="stroke: #000000; stroke-width: 1.5;"/><line style="stroke: #000000; stroke-width: 1.5;" x1="22" x2="106" y1="180.6094" y2="180.6094"/><text fill="#000000" font-family="sans-serif" font-size="14" font-weight="bold" lengthAdjust="spacingAndGlyphs" textLength="71" x="26" y="173.5332">Controller</text><!--MD5=[15636c1ca4a123c16a2a1a8e90aca7a9]
cluster Model--><polygon fill="#DDDDDD" filter="url(#f1gs5cxznod4k)" points="345,330,395,330,402,353.6094,1160,353.6094,1160,928,345,928,345,330" style="stroke: #000000; stroke-width: 1.5;"/><line style="stroke: #000000; stroke-width: 1.5;" x1="345" x2="402" y1="353.6094" y2="353.6094"/><text fill="#000000" font-family="sans-serif" font-size="14" font-weight="bold" lengthAdjust="spacingAndGlyphs" textLength="44" x="349" y="346.5332">Model</text><!--MD5=[7f5e0441b00afcd8fa9ae108c086a015]
cluster Registration--><polygon fill="#DDDDDD" filter="url(#f1gs5cxznod4k)" points="643,520,735,520,742,543.6094,1136,543.6094,1136,689,643,689,643,520" style="stroke: #000000; stroke-width: 1.5;"/><line style="stroke: #000000; stroke-width: 1.5;" x1="643" x2="742" y1="543.6094" y2="543.6094"/><text fill="#000000" font-family="sans-serif" font-size="14" font-weight="bold" lengthAdjust="spacingAndGlyphs" textLength="86" x="647" y="536.5332">Registration</text><!--MD5=[f21b1f164e99c6b37934f23ad048ad54]
cluster Data--><polygon fill="#DDDDDD" filter="url(#f1gs5cxznod4k)" points="1184,337,1221,337,1228,360.6094,1320,360.6094,1320,465,1184,465,1184,337" style="stroke: #000000; stroke-width: 1.5;"/><line style="stroke: #000000; stroke-width: 1.5;" x1="1184" x2="1228" y1="360.6094" y2="360.6094"/><text fill="#000000" font-family="sans-serif" font-size="14" font-weight="bold" lengthAdjust="spacingAndGlyphs" textLength="31" x="1188" y="353.5332">Data</text><!--MD5=[2e02dc687a7adedd6993cedb12e41a52]
class RegisterScooterUI--><rect fill="#FEFECE" filter="url(#f1gs5cxznod4k)" height="48" id="RegisterScooterUI" style="stroke: #A80036; stroke-width: 1.5;" width="133" x="108.5" y="60"/><ellipse cx="123.5" cy="76" fill="#ADD1B2" rx="11" ry="11" style="stroke: #A80036; stroke-width: 1.0;"/><path d="M125.5,72.5 Q125.7031,72 125.9375,71.75 Q126.1719,71.5 126.4375,71.5 Q126.9063,71.5 127.2031,71.7813 Q127.5,72.0625 127.5,72.7188 L127.5,74.2813 Q127.5,74.9375 127.2188,75.2188 Q126.9375,75.5 126.5,75.5 Q126.1094,75.5 125.8594,75.3281 Q125.6094,75.1563 125.5,74.7031 Q125.4531,74.3906 125.2813,74.2188 Q124.9688,73.8906 124.4063,73.7031 Q123.8438,73.5 123.2813,73.5 Q122.5781,73.5 121.9844,73.7813 Q121.4063,74.0625 120.9531,74.6875 Q120.5,75.3125 120.5,76.1719 L120.5,77.0938 Q120.5,78.125 121.3438,78.8125 Q122.1875,79.5 123.6875,79.5 Q124.5781,79.5 125.2031,79.2969 Q125.5625,79.1875 125.9688,78.8281 Q126.2344,78.625 126.375,78.5625 Q126.5156,78.5 126.6875,78.5 Q127.0156,78.5 127.25,78.7656 Q127.5,79.0156 127.5,79.375 Q127.5,79.7188 127.1563,80.125 Q126.6563,80.7188 125.8594,81.0469 Q124.8125,81.5 123.5313,81.5 Q122.0313,81.5 120.8281,80.9063 Q119.8594,80.4375 119.1719,79.4219 Q118.5,78.4063 118.5,77.2031 L118.5,76.1094 Q118.5,74.8594 119.0938,73.7656 Q119.7031,72.6719 120.75,72.0938 Q121.8125,71.5 123,71.5 Q123.7188,71.5 124.3438,71.75 Q124.9688,72 125.5,72.5 Z "/><text fill="#000000" font-family="sans-serif" font-size="12" lengthAdjust="spacingAndGlyphs" textLength="101" x="137.5" y="80.9102">RegisterScooterUI</text><line style="stroke: #A80036; stroke-width: 1.5;" x1="109.5" x2="240.5" y1="92" y2="92"/><line style="stroke: #A80036; stroke-width: 1.5;" x1="109.5" x2="240.5" y1="100" y2="100"/><!--MD5=[b762eabfe222fdd6cf4857c585db3ba3]
class RegisterScooterController--><rect fill="#FEFECE" filter="url(#f1gs5cxznod4k)" height="89.5078" id="RegisterScooterController" style="stroke: #A80036; stroke-width: 1.5;" width="259" x="45.5" y="193"/><ellipse cx="99.25" cy="209" fill="#ADD1B2" rx="11" ry="11" style="stroke: #A80036; stroke-width: 1.0;"/><path d="M101.25,205.5 Q101.4531,205 101.6875,204.75 Q101.9219,204.5 102.1875,204.5 Q102.6563,204.5 102.9531,204.7813 Q103.25,205.0625 103.25,205.7188 L103.25,207.2813 Q103.25,207.9375 102.9688,208.2188 Q102.6875,208.5 102.25,208.5 Q101.8594,208.5 101.6094,208.3281 Q101.3594,208.1563 101.25,207.7031 Q101.2031,207.3906 101.0313,207.2188 Q100.7188,206.8906 100.1563,206.7031 Q99.5938,206.5 99.0313,206.5 Q98.3281,206.5 97.7344,206.7813 Q97.1563,207.0625 96.7031,207.6875 Q96.25,208.3125 96.25,209.1719 L96.25,210.0938 Q96.25,211.125 97.0938,211.8125 Q97.9375,212.5 99.4375,212.5 Q100.3281,212.5 100.9531,212.2969 Q101.3125,212.1875 101.7188,211.8281 Q101.9844,211.625 102.125,211.5625 Q102.2656,211.5 102.4375,211.5 Q102.7656,211.5 103,211.7656 Q103.25,212.0156 103.25,212.375 Q103.25,212.7188 102.9063,213.125 Q102.4063,213.7188 101.6094,214.0469 Q100.5625,214.5 99.2813,214.5 Q97.7813,214.5 96.5781,213.9063 Q95.6094,213.4375 94.9219,212.4219 Q94.25,211.4063 94.25,210.2031 L94.25,209.1094 Q94.25,207.8594 94.8438,206.7656 Q95.4531,205.6719 96.5,205.0938 Q97.5625,204.5 98.75,204.5 Q99.4688,204.5 100.0938,204.75 Q100.7188,205 101.25,205.5 Z "/><text fill="#000000" font-family="sans-serif" font-size="12" lengthAdjust="spacingAndGlyphs" textLength="143" x="119.75" y="213.9102">RegisterScooterController</text><line style="stroke: #A80036; stroke-width: 1.5;" x1="46.5" x2="303.5" y1="225" y2="225"/><line style="stroke: #A80036; stroke-width: 1.5;" x1="46.5" x2="303.5" y1="233" y2="233"/><text fill="#000000" font-family="sans-serif" font-size="11" lengthAdjust="spacingAndGlyphs" textLength="247" x="51.5" y="248.4189">+newScooter(batteryPerc, charginStatus, potency,</text><text fill="#000000" font-family="sans-serif" font-size="11" lengthAdjust="spacingAndGlyphs" textLength="181" x="54.5" y="262.2549">weight, batteryCapacity, pharmacyId)</text><text fill="#000000" font-family="sans-serif" font-size="11" lengthAdjust="spacingAndGlyphs" textLength="95" x="51.5" y="276.0908">+registersScooter()</text><!--MD5=[e45a4727c47b726c25e081782e8bc183]
class ApplicationPOT--><rect fill="#FEFECE" filter="url(#f1gs5cxznod4k)" height="75.6719" id="ApplicationPOT" style="stroke: #A80036; stroke-width: 1.5;" width="116" x="38" y="373"/><ellipse cx="53" cy="389" fill="#ADD1B2" rx="11" ry="11" style="stroke: #A80036; stroke-width: 1.0;"/><path d="M55,385.5 Q55.2031,385 55.4375,384.75 Q55.6719,384.5 55.9375,384.5 Q56.4063,384.5 56.7031,384.7813 Q57,385.0625 57,385.7188 L57,387.2813 Q57,387.9375 56.7188,388.2188 Q56.4375,388.5 56,388.5 Q55.6094,388.5 55.3594,388.3281 Q55.1094,388.1563 55,387.7031 Q54.9531,387.3906 54.7813,387.2188 Q54.4688,386.8906 53.9063,386.7031 Q53.3438,386.5 52.7813,386.5 Q52.0781,386.5 51.4844,386.7813 Q50.9063,387.0625 50.4531,387.6875 Q50,388.3125 50,389.1719 L50,390.0938 Q50,391.125 50.8438,391.8125 Q51.6875,392.5 53.1875,392.5 Q54.0781,392.5 54.7031,392.2969 Q55.0625,392.1875 55.4688,391.8281 Q55.7344,391.625 55.875,391.5625 Q56.0156,391.5 56.1875,391.5 Q56.5156,391.5 56.75,391.7656 Q57,392.0156 57,392.375 Q57,392.7188 56.6563,393.125 Q56.1563,393.7188 55.3594,394.0469 Q54.3125,394.5 53.0313,394.5 Q51.5313,394.5 50.3281,393.9063 Q49.3594,393.4375 48.6719,392.4219 Q48,391.4063 48,390.2031 L48,389.1094 Q48,387.8594 48.5938,386.7656 Q49.2031,385.6719 50.25,385.0938 Q51.3125,384.5 52.5,384.5 Q53.2188,384.5 53.8438,384.75 Q54.4688,385 55,385.5 Z "/><text fill="#000000" font-family="sans-serif" font-size="12" lengthAdjust="spacingAndGlyphs" textLength="84" x="67" y="393.9102">ApplicationPOT</text><line style="stroke: #A80036; stroke-width: 1.5;" x1="39" x2="153" y1="405" y2="405"/><line style="stroke: #A80036; stroke-width: 1.5;" x1="39" x2="153" y1="413" y2="413"/><text fill="#000000" font-family="sans-serif" font-size="11" lengthAdjust="spacingAndGlyphs" textLength="99" x="44" y="428.4189">+static getInstance()</text><text fill="#000000" font-family="sans-serif" font-size="11" lengthAdjust="spacingAndGlyphs" textLength="68" x="44" y="442.2549">+getPlatform()</text><!--MD5=[c5b08e60048ef1bcd788d24cf324082e]
class UserSession--><rect fill="#FEFECE" filter="url(#f1gs5cxznod4k)" height="61.8359" id="UserSession" style="stroke: #A80036; stroke-width: 1.5;" width="116" x="189" y="380"/><ellipse cx="208.95" cy="396" fill="#ADD1B2" rx="11" ry="11" style="stroke: #A80036; stroke-width: 1.0;"/><path d="M210.95,392.5 Q211.1531,392 211.3875,391.75 Q211.6219,391.5 211.8875,391.5 Q212.3563,391.5 212.6531,391.7813 Q212.95,392.0625 212.95,392.7188 L212.95,394.2813 Q212.95,394.9375 212.6688,395.2188 Q212.3875,395.5 211.95,395.5 Q211.5594,395.5 211.3094,395.3281 Q211.0594,395.1563 210.95,394.7031 Q210.9031,394.3906 210.7313,394.2188 Q210.4188,393.8906 209.8563,393.7031 Q209.2938,393.5 208.7313,393.5 Q208.0281,393.5 207.4344,393.7813 Q206.8563,394.0625 206.4031,394.6875 Q205.95,395.3125 205.95,396.1719 L205.95,397.0938 Q205.95,398.125 206.7938,398.8125 Q207.6375,399.5 209.1375,399.5 Q210.0281,399.5 210.6531,399.2969 Q211.0125,399.1875 211.4188,398.8281 Q211.6844,398.625 211.825,398.5625 Q211.9656,398.5 212.1375,398.5 Q212.4656,398.5 212.7,398.7656 Q212.95,399.0156 212.95,399.375 Q212.95,399.7188 212.6063,400.125 Q212.1063,400.7188 211.3094,401.0469 Q210.2625,401.5 208.9813,401.5 Q207.4813,401.5 206.2781,400.9063 Q205.3094,400.4375 204.6219,399.4219 Q203.95,398.4063 203.95,397.2031 L203.95,396.1094 Q203.95,394.8594 204.5438,393.7656 Q205.1531,392.6719 206.2,392.0938 Q207.2625,391.5 208.45,391.5 Q209.1688,391.5 209.7938,391.75 Q210.4188,392 210.95,392.5 Z "/><text fill="#000000" font-family="sans-serif" font-size="12" lengthAdjust="spacingAndGlyphs" textLength="73" x="224.05" y="400.9102">UserSession</text><line style="stroke: #A80036; stroke-width: 1.5;" x1="190" x2="304" y1="412" y2="412"/><line style="stroke: #A80036; stroke-width: 1.5;" x1="190" x2="304" y1="420" y2="420"/><text fill="#000000" font-family="sans-serif" font-size="11" lengthAdjust="spacingAndGlyphs" textLength="104" x="195" y="435.4189">+getCurrentSession()</text><!--MD5=[99b8db98afdc2c8404e39242ef4c1e65]
class Platform--><rect fill="#FEFECE" filter="url(#f1gs5cxznod4k)" height="89.5078" id="Platform" style="stroke: #A80036; stroke-width: 1.5;" width="102" x="408" y="366"/><ellipse cx="433.8" cy="382" fill="#ADD1B2" rx="11" ry="11" style="stroke: #A80036; stroke-width: 1.0;"/><path d="M435.8,378.5 Q436.0031,378 436.2375,377.75 Q436.4719,377.5 436.7375,377.5 Q437.2063,377.5 437.5031,377.7813 Q437.8,378.0625 437.8,378.7188 L437.8,380.2813 Q437.8,380.9375 437.5188,381.2188 Q437.2375,381.5 436.8,381.5 Q436.4094,381.5 436.1594,381.3281 Q435.9094,381.1563 435.8,380.7031 Q435.7531,380.3906 435.5813,380.2188 Q435.2688,379.8906 434.7063,379.7031 Q434.1438,379.5 433.5813,379.5 Q432.8781,379.5 432.2844,379.7813 Q431.7063,380.0625 431.2531,380.6875 Q430.8,381.3125 430.8,382.1719 L430.8,383.0938 Q430.8,384.125 431.6438,384.8125 Q432.4875,385.5 433.9875,385.5 Q434.8781,385.5 435.5031,385.2969 Q435.8625,385.1875 436.2688,384.8281 Q436.5344,384.625 436.675,384.5625 Q436.8156,384.5 436.9875,384.5 Q437.3156,384.5 437.55,384.7656 Q437.8,385.0156 437.8,385.375 Q437.8,385.7188 437.4563,386.125 Q436.9563,386.7188 436.1594,387.0469 Q435.1125,387.5 433.8313,387.5 Q432.3313,387.5 431.1281,386.9063 Q430.1594,386.4375 429.4719,385.4219 Q428.8,384.4063 428.8,383.2031 L428.8,382.1094 Q428.8,380.8594 429.3938,379.7656 Q430.0031,378.6719 431.05,378.0938 Q432.1125,377.5 433.3,377.5 Q434.0188,377.5 434.6438,377.75 Q435.2688,378 435.8,378.5 Z "/><text fill="#000000" font-family="sans-serif" font-size="12" lengthAdjust="spacingAndGlyphs" textLength="46" x="450.2" y="386.9102">Platform</text><line style="stroke: #A80036; stroke-width: 1.5;" x1="409" x2="509" y1="398" y2="398"/><text fill="#000000" font-family="sans-serif" font-size="11" lengthAdjust="spacingAndGlyphs" textLength="90" x="414" y="413.4189">-String designation</text><line style="stroke: #A80036; stroke-width: 1.5;" x1="409" x2="509" y1="419.8359" y2="419.8359"/><text fill="#000000" font-family="sans-serif" font-size="11" lengthAdjust="spacingAndGlyphs" textLength="75" x="414" y="435.2549">+gePharmReg()</text><text fill="#000000" font-family="sans-serif" font-size="11" lengthAdjust="spacingAndGlyphs" textLength="76" x="414" y="449.0908">+getScootReg()</text><!--MD5=[f4402668d5d5bb8485350c0fdb60ac8e]
class Scooter--><rect fill="#FEFECE" filter="url(#f1gs5cxznod4k)" height="158.6875" id="Scooter" style="stroke: #A80036; stroke-width: 1.5;" width="237" x="380.5" y="753"/><ellipse cx="473.75" cy="769" fill="#ADD1B2" rx="11" ry="11" style="stroke: #A80036; stroke-width: 1.0;"/><path d="M475.75,765.5 Q475.9531,765 476.1875,764.75 Q476.4219,764.5 476.6875,764.5 Q477.1563,764.5 477.4531,764.7813 Q477.75,765.0625 477.75,765.7188 L477.75,767.2813 Q477.75,767.9375 477.4688,768.2188 Q477.1875,768.5 476.75,768.5 Q476.3594,768.5 476.1094,768.3281 Q475.8594,768.1563 475.75,767.7031 Q475.7031,767.3906 475.5313,767.2188 Q475.2188,766.8906 474.6563,766.7031 Q474.0938,766.5 473.5313,766.5 Q472.8281,766.5 472.2344,766.7813 Q471.6563,767.0625 471.2031,767.6875 Q470.75,768.3125 470.75,769.1719 L470.75,770.0938 Q470.75,771.125 471.5938,771.8125 Q472.4375,772.5 473.9375,772.5 Q474.8281,772.5 475.4531,772.2969 Q475.8125,772.1875 476.2188,771.8281 Q476.4844,771.625 476.625,771.5625 Q476.7656,771.5 476.9375,771.5 Q477.2656,771.5 477.5,771.7656 Q477.75,772.0156 477.75,772.375 Q477.75,772.7188 477.4063,773.125 Q476.9063,773.7188 476.1094,774.0469 Q475.0625,774.5 473.7813,774.5 Q472.2813,774.5 471.0781,773.9063 Q470.1094,773.4375 469.4219,772.4219 Q468.75,771.4063 468.75,770.2031 L468.75,769.1094 Q468.75,767.8594 469.3438,766.7656 Q469.9531,765.6719 471,765.0938 Q472.0625,764.5 473.25,764.5 Q473.9688,764.5 474.5938,764.75 Q475.2188,765 475.75,765.5 Z "/><text fill="#000000" font-family="sans-serif" font-size="12" lengthAdjust="spacingAndGlyphs" textLength="42" x="494.25" y="773.9102">Scooter</text><line style="stroke: #A80036; stroke-width: 1.5;" x1="381.5" x2="616.5" y1="785" y2="785"/><text fill="#000000" font-family="sans-serif" font-size="11" lengthAdjust="spacingAndGlyphs" textLength="26" x="386.5" y="800.4189">-int id</text><text fill="#000000" font-family="sans-serif" font-size="11" lengthAdjust="spacingAndGlyphs" textLength="74" x="386.5" y="814.2549">-int batteryPerc</text><text fill="#000000" font-family="sans-serif" font-size="11" lengthAdjust="spacingAndGlyphs" textLength="85" x="386.5" y="828.0908">-int charginStatus</text><text fill="#000000" font-family="sans-serif" font-size="11" lengthAdjust="spacingAndGlyphs" textLength="57" x="386.5" y="841.9268">-int potency</text><text fill="#000000" font-family="sans-serif" font-size="11" lengthAdjust="spacingAndGlyphs" textLength="51" x="386.5" y="855.7627">-int weight</text><text fill="#000000" font-family="sans-serif" font-size="11" lengthAdjust="spacingAndGlyphs" textLength="94" x="386.5" y="869.5986">-int batteryCapacity</text><line style="stroke: #A80036; stroke-width: 1.5;" x1="381.5" x2="616.5" y1="876.0156" y2="876.0156"/><text fill="#000000" font-family="sans-serif" font-size="11" lengthAdjust="spacingAndGlyphs" textLength="225" x="386.5" y="891.4346">+Scooter(batteryPerc, charginStatus, potency,</text><text fill="#000000" font-family="sans-serif" font-size="11" lengthAdjust="spacingAndGlyphs" textLength="181" x="389.5" y="905.2705">weight, batteryCapacity, pharmacyId)</text><!--MD5=[0f39e4cb6f03951afbf6d14bd2505654]
class Address--><rect fill="#FEFECE" filter="url(#f1gs5cxznod4k)" height="144.8516" id="Address" style="stroke: #A80036; stroke-width: 1.5;" width="106" x="653" y="760"/><ellipse cx="680.6" cy="776" fill="#ADD1B2" rx="11" ry="11" style="stroke: #A80036; stroke-width: 1.0;"/><path d="M682.6,772.5 Q682.8031,772 683.0375,771.75 Q683.2719,771.5 683.5375,771.5 Q684.0063,771.5 684.3031,771.7813 Q684.6,772.0625 684.6,772.7188 L684.6,774.2813 Q684.6,774.9375 684.3188,775.2188 Q684.0375,775.5 683.6,775.5 Q683.2094,775.5 682.9594,775.3281 Q682.7094,775.1563 682.6,774.7031 Q682.5531,774.3906 682.3813,774.2188 Q682.0688,773.8906 681.5063,773.7031 Q680.9438,773.5 680.3813,773.5 Q679.6781,773.5 679.0844,773.7813 Q678.5063,774.0625 678.0531,774.6875 Q677.6,775.3125 677.6,776.1719 L677.6,777.0938 Q677.6,778.125 678.4438,778.8125 Q679.2875,779.5 680.7875,779.5 Q681.6781,779.5 682.3031,779.2969 Q682.6625,779.1875 683.0688,778.8281 Q683.3344,778.625 683.475,778.5625 Q683.6156,778.5 683.7875,778.5 Q684.1156,778.5 684.35,778.7656 Q684.6,779.0156 684.6,779.375 Q684.6,779.7188 684.2563,780.125 Q683.7563,780.7188 682.9594,781.0469 Q681.9125,781.5 680.6313,781.5 Q679.1313,781.5 677.9281,780.9063 Q676.9594,780.4375 676.2719,779.4219 Q675.6,778.4063 675.6,777.2031 L675.6,776.1094 Q675.6,774.8594 676.1938,773.7656 Q676.8031,772.6719 677.85,772.0938 Q678.9125,771.5 680.1,771.5 Q680.8188,771.5 681.4438,771.75 Q682.0688,772 682.6,772.5 Z "/><text fill="#000000" font-family="sans-serif" font-size="12" lengthAdjust="spacingAndGlyphs" textLength="46" x="697.4" y="780.9102">Address</text><line style="stroke: #A80036; stroke-width: 1.5;" x1="654" x2="758" y1="792" y2="792"/><text fill="#000000" font-family="sans-serif" font-size="11" lengthAdjust="spacingAndGlyphs" textLength="71" x="659" y="807.4189">-float longitude</text><text fill="#000000" font-family="sans-serif" font-size="11" lengthAdjust="spacingAndGlyphs" textLength="62" x="659" y="821.2549">-float latitude</text><text fill="#000000" font-family="sans-serif" font-size="11" lengthAdjust="spacingAndGlyphs" textLength="94" x="659" y="835.0908">-String doorNumber</text><text fill="#000000" font-family="sans-serif" font-size="11" lengthAdjust="spacingAndGlyphs" textLength="90" x="659" y="848.9268">-String streetName</text><text fill="#000000" font-family="sans-serif" font-size="11" lengthAdjust="spacingAndGlyphs" textLength="89" x="659" y="862.7627">-String postalCode</text><text fill="#000000" font-family="sans-serif" font-size="11" lengthAdjust="spacingAndGlyphs" textLength="68" x="659" y="876.5986">-String locality</text><text fill="#000000" font-family="sans-serif" font-size="11" lengthAdjust="spacingAndGlyphs" textLength="72" x="659" y="890.4346">-String country</text><line style="stroke: #A80036; stroke-width: 1.5;" x1="654" x2="758" y1="896.8516" y2="896.8516"/><!--MD5=[7f2a9fafcebe4f099f71398fd3e2ed00]
class Pharmacy--><rect fill="#FEFECE" filter="url(#f1gs5cxznod4k)" height="103.3438" id="Pharmacy" style="stroke: #A80036; stroke-width: 1.5;" width="96" x="528" y="563"/><ellipse cx="547.05" cy="579" fill="#ADD1B2" rx="11" ry="11" style="stroke: #A80036; stroke-width: 1.0;"/><path d="M549.05,575.5 Q549.2531,575 549.4875,574.75 Q549.7219,574.5 549.9875,574.5 Q550.4563,574.5 550.7531,574.7813 Q551.05,575.0625 551.05,575.7188 L551.05,577.2813 Q551.05,577.9375 550.7688,578.2188 Q550.4875,578.5 550.05,578.5 Q549.6594,578.5 549.4094,578.3281 Q549.1594,578.1563 549.05,577.7031 Q549.0031,577.3906 548.8313,577.2188 Q548.5188,576.8906 547.9563,576.7031 Q547.3938,576.5 546.8313,576.5 Q546.1281,576.5 545.5344,576.7813 Q544.9563,577.0625 544.5031,577.6875 Q544.05,578.3125 544.05,579.1719 L544.05,580.0938 Q544.05,581.125 544.8938,581.8125 Q545.7375,582.5 547.2375,582.5 Q548.1281,582.5 548.7531,582.2969 Q549.1125,582.1875 549.5188,581.8281 Q549.7844,581.625 549.925,581.5625 Q550.0656,581.5 550.2375,581.5 Q550.5656,581.5 550.8,581.7656 Q551.05,582.0156 551.05,582.375 Q551.05,582.7188 550.7063,583.125 Q550.2063,583.7188 549.4094,584.0469 Q548.3625,584.5 547.0813,584.5 Q545.5813,584.5 544.3781,583.9063 Q543.4094,583.4375 542.7219,582.4219 Q542.05,581.4063 542.05,580.2031 L542.05,579.1094 Q542.05,577.8594 542.6438,576.7656 Q543.2531,575.6719 544.3,575.0938 Q545.3625,574.5 546.55,574.5 Q547.2688,574.5 547.8938,574.75 Q548.5188,575 549.05,575.5 Z "/><text fill="#000000" font-family="sans-serif" font-size="12" lengthAdjust="spacingAndGlyphs" textLength="55" x="561.95" y="583.9102">Pharmacy</text><line style="stroke: #A80036; stroke-width: 1.5;" x1="529" x2="623" y1="595" y2="595"/><text fill="#000000" font-family="sans-serif" font-size="11" lengthAdjust="spacingAndGlyphs" textLength="26" x="534" y="610.4189">-int id</text><text fill="#000000" font-family="sans-serif" font-size="11" lengthAdjust="spacingAndGlyphs" textLength="61" x="534" y="624.2549">-String name</text><text fill="#000000" font-family="sans-serif" font-size="11" lengthAdjust="spacingAndGlyphs" textLength="77" x="534" y="638.0908">-int parkingSlots</text><text fill="#000000" font-family="sans-serif" font-size="11" lengthAdjust="spacingAndGlyphs" textLength="84" x="534" y="651.9268">-int chargingSlots</text><line style="stroke: #A80036; stroke-width: 1.5;" x1="529" x2="623" y1="658.3438" y2="658.3438"/><!--MD5=[c5b7c01e8de644a6bcc6ccb0cb86eabf]
class PharmacyRegistration--><rect fill="#FEFECE" filter="url(#f1gs5cxznod4k)" height="75.6719" id="PharmacyRegistration" style="stroke: #A80036; stroke-width: 1.5;" width="166" x="659" y="576.5"/><ellipse cx="679.4" cy="592.5" fill="#ADD1B2" rx="11" ry="11" style="stroke: #A80036; stroke-width: 1.0;"/><path d="M681.4,589 Q681.6031,588.5 681.8375,588.25 Q682.0719,588 682.3375,588 Q682.8063,588 683.1031,588.2813 Q683.4,588.5625 683.4,589.2188 L683.4,590.7813 Q683.4,591.4375 683.1188,591.7188 Q682.8375,592 682.4,592 Q682.0094,592 681.7594,591.8281 Q681.5094,591.6563 681.4,591.2031 Q681.3531,590.8906 681.1813,590.7188 Q680.8688,590.3906 680.3063,590.2031 Q679.7438,590 679.1813,590 Q678.4781,590 677.8844,590.2813 Q677.3063,590.5625 676.8531,591.1875 Q676.4,591.8125 676.4,592.6719 L676.4,593.5938 Q676.4,594.625 677.2438,595.3125 Q678.0875,596 679.5875,596 Q680.4781,596 681.1031,595.7969 Q681.4625,595.6875 681.8688,595.3281 Q682.1344,595.125 682.275,595.0625 Q682.4156,595 682.5875,595 Q682.9156,595 683.15,595.2656 Q683.4,595.5156 683.4,595.875 Q683.4,596.2188 683.0563,596.625 Q682.5563,597.2188 681.7594,597.5469 Q680.7125,598 679.4313,598 Q677.9313,598 676.7281,597.4063 Q675.7594,596.9375 675.0719,595.9219 Q674.4,594.9063 674.4,593.7031 L674.4,592.6094 Q674.4,591.3594 674.9938,590.2656 Q675.6031,589.1719 676.65,588.5938 Q677.7125,588 678.9,588 Q679.6188,588 680.2438,588.25 Q680.8688,588.5 681.4,589 Z "/><text fill="#000000" font-family="sans-serif" font-size="12" lengthAdjust="spacingAndGlyphs" textLength="122" x="694.6" y="597.4102">PharmacyRegistration</text><line style="stroke: #A80036; stroke-width: 1.5;" x1="660" x2="824" y1="608.5" y2="608.5"/><line style="stroke: #A80036; stroke-width: 1.5;" x1="660" x2="824" y1="616.5" y2="616.5"/><text fill="#000000" font-family="sans-serif" font-size="11" lengthAdjust="spacingAndGlyphs" textLength="154" x="665" y="631.9189">+getPharmacyById(pharmacyId)</text><text fill="#000000" font-family="sans-serif" font-size="11" lengthAdjust="spacingAndGlyphs" textLength="83" x="665" y="645.7549">+getConnection()</text><!--MD5=[4a15ac34fd2b3f03c890a74250c9952b]
class ScooterRegistration--><rect fill="#FEFECE" filter="url(#f1gs5cxznod4k)" height="117.1797" id="ScooterRegistration" style="stroke: #A80036; stroke-width: 1.5;" width="259" x="860.5" y="556"/><ellipse cx="931.25" cy="572" fill="#ADD1B2" rx="11" ry="11" style="stroke: #A80036; stroke-width: 1.0;"/><path d="M933.25,568.5 Q933.4531,568 933.6875,567.75 Q933.9219,567.5 934.1875,567.5 Q934.6563,567.5 934.9531,567.7813 Q935.25,568.0625 935.25,568.7188 L935.25,570.2813 Q935.25,570.9375 934.9688,571.2188 Q934.6875,571.5 934.25,571.5 Q933.8594,571.5 933.6094,571.3281 Q933.3594,571.1563 933.25,570.7031 Q933.2031,570.3906 933.0313,570.2188 Q932.7188,569.8906 932.1563,569.7031 Q931.5938,569.5 931.0313,569.5 Q930.3281,569.5 929.7344,569.7813 Q929.1563,570.0625 928.7031,570.6875 Q928.25,571.3125 928.25,572.1719 L928.25,573.0938 Q928.25,574.125 929.0938,574.8125 Q929.9375,575.5 931.4375,575.5 Q932.3281,575.5 932.9531,575.2969 Q933.3125,575.1875 933.7188,574.8281 Q933.9844,574.625 934.125,574.5625 Q934.2656,574.5 934.4375,574.5 Q934.7656,574.5 935,574.7656 Q935.25,575.0156 935.25,575.375 Q935.25,575.7188 934.9063,576.125 Q934.4063,576.7188 933.6094,577.0469 Q932.5625,577.5 931.2813,577.5 Q929.7813,577.5 928.5781,576.9063 Q927.6094,576.4375 926.9219,575.4219 Q926.25,574.4063 926.25,573.2031 L926.25,572.1094 Q926.25,570.8594 926.8438,569.7656 Q927.4531,568.6719 928.5,568.0938 Q929.5625,567.5 930.75,567.5 Q931.4688,567.5 932.0938,567.75 Q932.7188,568 933.25,568.5 Z "/><text fill="#000000" font-family="sans-serif" font-size="12" lengthAdjust="spacingAndGlyphs" textLength="109" x="951.75" y="576.9102">ScooterRegistration</text><line style="stroke: #A80036; stroke-width: 1.5;" x1="861.5" x2="1118.5" y1="588" y2="588"/><line style="stroke: #A80036; stroke-width: 1.5;" x1="861.5" x2="1118.5" y1="596" y2="596"/><text fill="#000000" font-family="sans-serif" font-size="11" lengthAdjust="spacingAndGlyphs" textLength="247" x="866.5" y="611.4189">+newScooter(batteryPerc, charginStatus, potency,</text><text fill="#000000" font-family="sans-serif" font-size="11" lengthAdjust="spacingAndGlyphs" textLength="181" x="869.5" y="625.2549">weight, batteryCapacity, pharmacyId)</text><text fill="#000000" font-family="sans-serif" font-size="11" lengthAdjust="spacingAndGlyphs" textLength="218" x="866.5" y="639.0908">+create(batteryPerc, charginStatus, potency,</text><text fill="#000000" font-family="sans-serif" font-size="11" lengthAdjust="spacingAndGlyphs" textLength="181" x="869.5" y="652.9268">weight, batteryCapacity, pharmacyId)</text><text fill="#000000" font-family="sans-serif" font-size="11" lengthAdjust="spacingAndGlyphs" textLength="116" x="866.5" y="666.7627">+validateScooter(scoot)</text><!--MD5=[4b2d61224b33971326a22fe5d809d926]
class DataHandler--><rect fill="#FEFECE" filter="url(#f1gs5cxznod4k)" height="75.6719" id="DataHandler" style="stroke: #A80036; stroke-width: 1.5;" width="104" x="1200" y="373"/><ellipse cx="1215.9" cy="389" fill="#ADD1B2" rx="11" ry="11" style="stroke: #A80036; stroke-width: 1.0;"/><path d="M1217.9,385.5 Q1218.1031,385 1218.3375,384.75 Q1218.5719,384.5 1218.8375,384.5 Q1219.3063,384.5 1219.6031,384.7813 Q1219.9,385.0625 1219.9,385.7188 L1219.9,387.2813 Q1219.9,387.9375 1219.6188,388.2188 Q1219.3375,388.5 1218.9,388.5 Q1218.5094,388.5 1218.2594,388.3281 Q1218.0094,388.1563 1217.9,387.7031 Q1217.8531,387.3906 1217.6813,387.2188 Q1217.3688,386.8906 1216.8063,386.7031 Q1216.2438,386.5 1215.6813,386.5 Q1214.9781,386.5 1214.3844,386.7813 Q1213.8063,387.0625 1213.3531,387.6875 Q1212.9,388.3125 1212.9,389.1719 L1212.9,390.0938 Q1212.9,391.125 1213.7438,391.8125 Q1214.5875,392.5 1216.0875,392.5 Q1216.9781,392.5 1217.6031,392.2969 Q1217.9625,392.1875 1218.3688,391.8281 Q1218.6344,391.625 1218.775,391.5625 Q1218.9156,391.5 1219.0875,391.5 Q1219.4156,391.5 1219.65,391.7656 Q1219.9,392.0156 1219.9,392.375 Q1219.9,392.7188 1219.5563,393.125 Q1219.0563,393.7188 1218.2594,394.0469 Q1217.2125,394.5 1215.9313,394.5 Q1214.4313,394.5 1213.2281,393.9063 Q1212.2594,393.4375 1211.5719,392.4219 Q1210.9,391.4063 1210.9,390.2031 L1210.9,389.1094 Q1210.9,387.8594 1211.4938,386.7656 Q1212.1031,385.6719 1213.15,385.0938 Q1214.2125,384.5 1215.4,384.5 Q1216.1188,384.5 1216.7438,384.75 Q1217.3688,385 1217.9,385.5 Z "/><text fill="#000000" font-family="sans-serif" font-size="12" lengthAdjust="spacingAndGlyphs" textLength="70" x="1230.1" y="393.9102">DataHandler</text><line style="stroke: #A80036; stroke-width: 1.5;" x1="1201" x2="1303" y1="405" y2="405"/><line style="stroke: #A80036; stroke-width: 1.5;" x1="1201" x2="1303" y1="413" y2="413"/><text fill="#000000" font-family="sans-serif" font-size="11" lengthAdjust="spacingAndGlyphs" textLength="92" x="1206" y="428.4189">+openConnection()</text><text fill="#000000" font-family="sans-serif" font-size="11" lengthAdjust="spacingAndGlyphs" textLength="52" x="1206" y="442.2549">+closeAll()</text><!--MD5=[88cdc1ff0babf321196dd88b9a70f9c4]
reverse link DataHandler to PharmacyRegistration--><path d="M1187.83,459.793 C1178.81,464.919 1169.41,469.524 1160,473 C1026.85,522.201 970.5,449.6 843,512 C813.08,526.643 786.81,553.767 768.566,576.293 " fill="none" id="DataHandler&lt;-PharmacyRegistration" style="stroke: #A80036; stroke-width: 1.0;"/><polygon fill="none" points="1184.41,453.674,1205.1,449.098,1191.78,465.578,1184.41,453.674" style="stroke: #A80036; stroke-width: 1.0;"/><!--MD5=[527120703de7dfffd3117b230a6ddff3]
reverse link DataHandler to ScooterRegistration--><path d="M1187.59,461.536 C1150.46,490.092 1103.61,526.125 1064.85,555.936 " fill="none" id="DataHandler&lt;-ScooterRegistration" style="stroke: #A80036; stroke-width: 1.0;"/><polygon fill="none" points="1183.52,455.837,1203.64,449.193,1192.05,466.935,1183.52,455.837" style="stroke: #A80036; stroke-width: 1.0;"/><!--MD5=[954f86ea882ac5dcad44771d5b1b4c17]
link RegisterScooterUI to RegisterScooterController--><path d="M175,108.086 C175,129.108 175,160.852 175,187.58 " fill="none" id="RegisterScooterUI-&gt;RegisterScooterController" style="stroke: #A80036; stroke-width: 1.0; stroke-dasharray: 7.0,7.0;"/><polygon fill="#A80036" points="175,192.853,179,183.853,175,187.853,171,183.853,175,192.853" style="stroke: #A80036; stroke-width: 1.0;"/><!--MD5=[2554efbba2da6dcb0c5d97dedc10b799]
link RegisterScooterController to Platform--><path d="M254.227,283.072 C275.999,295.445 299.523,309.059 321,322 C348.494,338.566 378.594,357.648 403.647,373.798 " fill="none" id="RegisterScooterController-&gt;Platform" style="stroke: #A80036; stroke-width: 1.0; stroke-dasharray: 7.0,7.0;"/><polygon fill="#A80036" points="407.943,376.571,402.55,368.3299,403.7419,373.8598,398.212,375.0517,407.943,376.571" style="stroke: #A80036; stroke-width: 1.0;"/><!--MD5=[2b5e734699f3079cc966a0817e5e5946]
link RegisterScooterController to ApplicationPOT--><path d="M154.656,283.037 C142.562,309.214 127.307,342.234 115.386,368.038 " fill="none" id="RegisterScooterController-&gt;ApplicationPOT" style="stroke: #A80036; stroke-width: 1.0; stroke-dasharray: 7.0,7.0;"/><polygon fill="#A80036" points="113.2,372.769,120.6062,366.2768,115.2973,368.2301,113.344,362.9212,113.2,372.769" style="stroke: #A80036; stroke-width: 1.0;"/><!--MD5=[d8b0574eccffa1bec6fe4d2aaced6501]
link RegisterScooterController to UserSession--><path d="M193.542,283.037 C205.584,311.637 221.065,348.403 232.265,375.004 " fill="none" id="RegisterScooterController-&gt;UserSession" style="stroke: #A80036; stroke-width: 1.0; stroke-dasharray: 7.0,7.0;"/><polygon fill="#A80036" points="234.305,379.848,234.4998,370.0011,232.3651,375.2397,227.1265,373.1049,234.305,379.848" style="stroke: #A80036; stroke-width: 1.0;"/><!--MD5=[f94ed16b1d761a53d4eba61183b6d758]
link Platform to PharmacyRegistration--><path d="M510.348,429.856 C552.593,446.383 612.256,474.125 655,512 C675.186,529.887 694.974,552.451 710.564,571.759 " fill="none" id="Platform-&gt;PharmacyRegistration" style="stroke: #A80036; stroke-width: 1.0;"/><polygon fill="#A80036" points="714.028,576.081,711.5203,566.5567,710.9009,572.1796,705.278,571.5602,714.028,576.081" style="stroke: #A80036; stroke-width: 1.0;"/><text fill="#000000" font-family="sans-serif" font-size="13" lengthAdjust="spacingAndGlyphs" textLength="21" x="642" y="500.4951">has</text><text fill="#000000" font-family="sans-serif" font-size="13" lengthAdjust="spacingAndGlyphs" textLength="7" x="518.061" y="428.9371">1</text><text fill="#000000" font-family="sans-serif" font-size="13" lengthAdjust="spacingAndGlyphs" textLength="7" x="701.6188" y="565.6563">1</text><!--MD5=[10d7a1607bc161c4e7d004457651c20f]
link ScooterRegistration to Scooter--><path d="M893.976,673.053 C877.312,681.782 859.901,690.147 843,697 C754.677,732.813 724.068,716.566 636,753 C631.441,754.886 626.845,756.895 622.241,759.001 " fill="none" id="ScooterRegistration-&gt;Scooter" style="stroke: #A80036; stroke-width: 1.0;"/><polygon fill="#A80036" points="617.635,761.137,627.4826,760.9779,622.1706,759.0327,624.1158,753.7208,617.635,761.137" style="stroke: #A80036; stroke-width: 1.0;"/><text fill="#000000" font-family="sans-serif" font-size="13" lengthAdjust="spacingAndGlyphs" textLength="53" x="819" y="719.4951">manages</text><text fill="#000000" font-family="sans-serif" font-size="13" lengthAdjust="spacingAndGlyphs" textLength="7" x="874.8465" y="694.6697">1</text><text fill="#000000" font-family="sans-serif" font-size="13" lengthAdjust="spacingAndGlyphs" textLength="5" x="625.3952" y="753.5692">*</text><!--MD5=[4a07f137c208f82f57837154e1cfa51e]
link Platform to Pharmacy--><path d="M484.676,456.22 C502.973,487.731 527.603,530.15 546.674,562.994 " fill="none" id="Platform-Pharmacy" style="stroke: #A80036; stroke-width: 1.0;"/><text fill="#000000" font-family="sans-serif" font-size="13" lengthAdjust="spacingAndGlyphs" textLength="82" x="512" y="500.4951">has registered</text><polygon fill="#000000" points="548.5,509.3516,551.5,515.3516,554.5,509.3516,548.5,509.3516" style="stroke: #000000; stroke-width: 1.0;"/><text fill="#000000" font-family="sans-serif" font-size="13" lengthAdjust="spacingAndGlyphs" textLength="7" x="480.6559" y="476.9232">1</text><text fill="#000000" font-family="sans-serif" font-size="13" lengthAdjust="spacingAndGlyphs" textLength="5" x="537.1985" y="552.1216">*</text><!--MD5=[423ba1e9b983bd24d1236c4cf89ceca7]
link Platform to Scooter--><path d="M433.615,456.353 C425.319,473.216 417.169,492.959 413,512 C395.412,592.319 389.926,618.082 413,697 C418.639,716.287 427.981,735.437 438.478,752.981 " fill="none" id="Platform-Scooter" style="stroke: #A80036; stroke-width: 1.0;"/><text fill="#000000" font-family="sans-serif" font-size="13" lengthAdjust="spacingAndGlyphs" textLength="82" x="414" y="619.9951">has registered</text><polygon fill="#000000" points="450.5,628.8516,453.5,634.8516,456.5,628.8516,450.5,628.8516" style="stroke: #000000; stroke-width: 1.0;"/><text fill="#000000" font-family="sans-serif" font-size="13" lengthAdjust="spacingAndGlyphs" textLength="7" x="422.7336" y="477.0741">1</text><text fill="#000000" font-family="sans-serif" font-size="13" lengthAdjust="spacingAndGlyphs" textLength="5" x="427.4712" y="742.1661">*</text><!--MD5=[cf4f95b832970cfa6e3a3c87e0aa2b32]
link Pharmacy to Scooter--><path d="M557.947,666.142 C548.746,691.954 537.349,723.923 527.037,752.852 " fill="none" id="Pharmacy-Scooter" style="stroke: #A80036; stroke-width: 1.0;"/><text fill="#000000" font-family="sans-serif" font-size="13" lengthAdjust="spacingAndGlyphs" textLength="21" x="544" y="719.4951">has</text><polygon fill="#000000" points="550,728.3516,553,734.3516,556,728.3516,550,728.3516" style="stroke: #000000; stroke-width: 1.0;"/><text fill="#000000" font-family="sans-serif" font-size="13" lengthAdjust="spacingAndGlyphs" textLength="7" x="547.9161" y="688.0248">1</text><text fill="#000000" font-family="sans-serif" font-size="13" lengthAdjust="spacingAndGlyphs" textLength="5" x="524.471" y="742.0248">*</text><!--MD5=[89baec1bfb4a213750f7c61516e0a0f1]
link Pharmacy to Address--><path d="M606.479,666.142 C623.29,694.074 644.44,729.216 662.915,759.913 " fill="none" id="Pharmacy-Address" style="stroke: #A80036; stroke-width: 1.0;"/><text fill="#000000" font-family="sans-serif" font-size="13" lengthAdjust="spacingAndGlyphs" textLength="21" x="638" y="719.4951">has</text><polygon fill="#000000" points="644,728.3516,647,734.3516,650,728.3516,644,728.3516" style="stroke: #000000; stroke-width: 1.0;"/><text fill="#000000" font-family="sans-serif" font-size="13" lengthAdjust="spacingAndGlyphs" textLength="7" x="603.2729" y="688.0248">1</text><text fill="#000000" font-family="sans-serif" font-size="13" lengthAdjust="spacingAndGlyphs" textLength="7" x="651.1109" y="749.1234">1</text><!--MD5=[c40c48abcde450d8f6121e8b8812febd]
@startuml
skinparam classAttributeIconSize 0

package "UI" #DDDDDD {
class RegisterScooterUI{

}
}


package "Controller" #DDDDDD {
class RegisterScooterController{
+newScooter(batteryPerc, charginStatus, potency,\n weight, batteryCapacity, pharmacyId)
+registersScooter()
}

class ApplicationPOT
{
  +static getInstance()
  +getPlatform()
}

class UserSession
{
  +getCurrentSession()
}
}


package "Model" #DDDDDD {
class Platform {
  -String designation
  +gePharmReg()
  +getScootReg()
}
package "Registration" #DDDDDD {
 class PharmacyRegistration{
     +getPharmacyById(pharmacyId)
     +getConnection()
 }

 class ScooterRegistration{
      +newScooter(batteryPerc, charginStatus, potency,\n weight, batteryCapacity, pharmacyId)
      +create(batteryPerc, charginStatus, potency,\n weight, batteryCapacity, pharmacyId)
      +validateScooter(scoot)
  }
 }
}

package "Model" #DDDDDD {
class Scooter{
  -int id
  -int batteryPerc
  -int charginStatus
  -int potency
  -int weight
  -int batteryCapacity
  +Scooter(batteryPerc, charginStatus, potency,\n weight, batteryCapacity, pharmacyId)
}

class Address{
  -float longitude
  -float latitude
  -String doorNumber
  -String streetName
  -String postalCode
  -String locality
  -String country
}

class Pharmacy {
  -int id
  -String name
  -int parkingSlots
  -int chargingSlots
}

}


package "Data" #DDDDDD {
class DataHandler{
    +openConnection()
    +closeAll()
}
}

class PharmacyRegistration extends DataHandler
class ScooterRegistration extends DataHandler

RegisterScooterUI ..> RegisterScooterController
RegisterScooterController ..> Platform
RegisterScooterController ..> ApplicationPOT
RegisterScooterController ..> UserSession
Platform "1" - -> "1" PharmacyRegistration : has
ScooterRegistration "1" - -> "*" Scooter : manages

Platform "1" - - "*" Pharmacy : has registered >
Platform "1" - - "*" Scooter : has registered >

Pharmacy "1" - - "*" Scooter : has >
Pharmacy "1" - - "1" Address : has >

@enduml

PlantUML version 1.2020.09(Sun May 10 11:51:06 BST 2020)
(GPL source distribution)
Java Runtime: OpenJDK Runtime Environment
JVM: OpenJDK 64-Bit Server VM
Java Version: 11.0.6+8-b765.40
Operating System: Windows 10
Default Encoding: Cp1252
Language: pt
Country: PT
--></g></svg>