<?xml version="1.0" encoding="UTF-8" standalone="no"?><svg xmlns="http://www.w3.org/2000/svg" xmlns:xlink="http://www.w3.org/1999/xlink" contentScriptType="application/ecmascript" contentStyleType="text/css" height="940px" preserveAspectRatio="none" style="width:1334px;height:940px;" version="1.1" viewBox="0 0 1334 940" width="1334px" zoomAndPan="magnify"><defs><filter height="300%" id="f165yvs23ezka7" width="300%" x="-1" y="-1"><feGaussianBlur result="blurOut" stdDeviation="2.0"/><feColorMatrix in="blurOut" result="blurOut2" type="matrix" values="0 0 0 0 0 0 0 0 0 0 0 0 0 0 0 0 0 0 .4 0"/><feOffset dx="4.0" dy="4.0" in="blurOut2" result="blurOut3"/><feBlend in="SourceGraphic" in2="blurOut3" mode="normal"/></filter></defs><g><!--MD5=[9681dc6e01e10c6b4fe06895ae94f592]
cluster UI--><polygon fill="#DDDDDD" filter="url(#f165yvs23ezka7)" points="92,24,112,24,119,47.6094,258,47.6094,258,124,92,124,92,24" style="stroke: #000000; stroke-width: 1.5;"/><line style="stroke: #000000; stroke-width: 1.5;" x1="92" x2="119" y1="47.6094" y2="47.6094"/><text fill="#000000" font-family="sans-serif" font-size="14" font-weight="bold" lengthAdjust="spacingAndGlyphs" textLength="14" x="96" y="40.5332">UI</text><!--MD5=[1f2cfc53d9d308f53762fd0fcbaa4873]
cluster Controller--><polygon fill="#DDDDDD" filter="url(#f165yvs23ezka7)" points="22,157,99,157,106,180.6094,321,180.6094,321,465,22,465,22,157" style="stroke: #000000; stroke-width: 1.5;"/><line style="stroke: #000000; stroke-width: 1.5;" x1="22" x2="106" y1="180.6094" y2="180.6094"/><text fill="#000000" font-family="sans-serif" font-size="14" font-weight="bold" lengthAdjust="spacingAndGlyphs" textLength="71" x="26" y="173.5332">Controller</text><!--MD5=[15636c1ca4a123c16a2a1a8e90aca7a9]
cluster Model--><polygon fill="#DDDDDD" filter="url(#f165yvs23ezka7)" points="345,330,395,330,402,353.6094,1152,353.6094,1152,928,345,928,345,330" style="stroke: #000000; stroke-width: 1.5;"/><line style="stroke: #000000; stroke-width: 1.5;" x1="345" x2="402" y1="353.6094" y2="353.6094"/><text fill="#000000" font-family="sans-serif" font-size="14" font-weight="bold" lengthAdjust="spacingAndGlyphs" textLength="44" x="349" y="346.5332">Model</text><!--MD5=[7f5e0441b00afcd8fa9ae108c086a015]
cluster Registration--><polygon fill="#DDDDDD" filter="url(#f165yvs23ezka7)" points="635,520,727,520,734,543.6094,1128,543.6094,1128,689,635,689,635,520" style="stroke: #000000; stroke-width: 1.5;"/><line style="stroke: #000000; stroke-width: 1.5;" x1="635" x2="734" y1="543.6094" y2="543.6094"/><text fill="#000000" font-family="sans-serif" font-size="14" font-weight="bold" lengthAdjust="spacingAndGlyphs" textLength="86" x="639" y="536.5332">Registration</text><!--MD5=[f21b1f164e99c6b37934f23ad048ad54]
cluster Data--><polygon fill="#DDDDDD" filter="url(#f165yvs23ezka7)" points="1176,337,1213,337,1220,360.6094,1312,360.6094,1312,465,1176,465,1176,337" style="stroke: #000000; stroke-width: 1.5;"/><line style="stroke: #000000; stroke-width: 1.5;" x1="1176" x2="1220" y1="360.6094" y2="360.6094"/><text fill="#000000" font-family="sans-serif" font-size="14" font-weight="bold" lengthAdjust="spacingAndGlyphs" textLength="31" x="1180" y="353.5332">Data</text><!--MD5=[2e02dc687a7adedd6993cedb12e41a52]
class RegisterScooterUI--><rect fill="#FEFECE" filter="url(#f165yvs23ezka7)" height="48" id="RegisterScooterUI" style="stroke: #A80036; stroke-width: 1.5;" width="133" x="108.5" y="60"/><ellipse cx="123.5" cy="76" fill="#ADD1B2" rx="11" ry="11" style="stroke: #A80036; stroke-width: 1.0;"/><path d="M125.5,72.5 Q125.7031,72 125.9375,71.75 Q126.1719,71.5 126.4375,71.5 Q126.9063,71.5 127.2031,71.7813 Q127.5,72.0625 127.5,72.7188 L127.5,74.2813 Q127.5,74.9375 127.2188,75.2188 Q126.9375,75.5 126.5,75.5 Q126.1094,75.5 125.8594,75.3281 Q125.6094,75.1563 125.5,74.7031 Q125.4531,74.3906 125.2813,74.2188 Q124.9688,73.8906 124.4063,73.7031 Q123.8438,73.5 123.2813,73.5 Q122.5781,73.5 121.9844,73.7813 Q121.4063,74.0625 120.9531,74.6875 Q120.5,75.3125 120.5,76.1719 L120.5,77.0938 Q120.5,78.125 121.3438,78.8125 Q122.1875,79.5 123.6875,79.5 Q124.5781,79.5 125.2031,79.2969 Q125.5625,79.1875 125.9688,78.8281 Q126.2344,78.625 126.375,78.5625 Q126.5156,78.5 126.6875,78.5 Q127.0156,78.5 127.25,78.7656 Q127.5,79.0156 127.5,79.375 Q127.5,79.7188 127.1563,80.125 Q126.6563,80.7188 125.8594,81.0469 Q124.8125,81.5 123.5313,81.5 Q122.0313,81.5 120.8281,80.9063 Q119.8594,80.4375 119.1719,79.4219 Q118.5,78.4063 118.5,77.2031 L118.5,76.1094 Q118.5,74.8594 119.0938,73.7656 Q119.7031,72.6719 120.75,72.0938 Q121.8125,71.5 123,71.5 Q123.7188,71.5 124.3438,71.75 Q124.9688,72 125.5,72.5 Z "/><text fill="#000000" font-family="sans-serif" font-size="12" lengthAdjust="spacingAndGlyphs" textLength="101" x="137.5" y="80.9102">RegisterScooterUI</text><line style="stroke: #A80036; stroke-width: 1.5;" x1="109.5" x2="240.5" y1="92" y2="92"/><line style="stroke: #A80036; stroke-width: 1.5;" x1="109.5" x2="240.5" y1="100" y2="100"/><!--MD5=[b762eabfe222fdd6cf4857c585db3ba3]
class RegisterScooterController--><rect fill="#FEFECE" filter="url(#f165yvs23ezka7)" height="89.5078" id="RegisterScooterController" style="stroke: #A80036; stroke-width: 1.5;" width="259" x="45.5" y="193"/><ellipse cx="99.25" cy="209" fill="#ADD1B2" rx="11" ry="11" style="stroke: #A80036; stroke-width: 1.0;"/><path d="M101.25,205.5 Q101.4531,205 101.6875,204.75 Q101.9219,204.5 102.1875,204.5 Q102.6563,204.5 102.9531,204.7813 Q103.25,205.0625 103.25,205.7188 L103.25,207.2813 Q103.25,207.9375 102.9688,208.2188 Q102.6875,208.5 102.25,208.5 Q101.8594,208.5 101.6094,208.3281 Q101.3594,208.1563 101.25,207.7031 Q101.2031,207.3906 101.0313,207.2188 Q100.7188,206.8906 100.1563,206.7031 Q99.5938,206.5 99.0313,206.5 Q98.3281,206.5 97.7344,206.7813 Q97.1563,207.0625 96.7031,207.6875 Q96.25,208.3125 96.25,209.1719 L96.25,210.0938 Q96.25,211.125 97.0938,211.8125 Q97.9375,212.5 99.4375,212.5 Q100.3281,212.5 100.9531,212.2969 Q101.3125,212.1875 101.7188,211.8281 Q101.9844,211.625 102.125,211.5625 Q102.2656,211.5 102.4375,211.5 Q102.7656,211.5 103,211.7656 Q103.25,212.0156 103.25,212.375 Q103.25,212.7188 102.9063,213.125 Q102.4063,213.7188 101.6094,214.0469 Q100.5625,214.5 99.2813,214.5 Q97.7813,214.5 96.5781,213.9063 Q95.6094,213.4375 94.9219,212.4219 Q94.25,211.4063 94.25,210.2031 L94.25,209.1094 Q94.25,207.8594 94.8438,206.7656 Q95.4531,205.6719 96.5,205.0938 Q97.5625,204.5 98.75,204.5 Q99.4688,204.5 100.0938,204.75 Q100.7188,205 101.25,205.5 Z "/><text fill="#000000" font-family="sans-serif" font-size="12" lengthAdjust="spacingAndGlyphs" textLength="143" x="119.75" y="213.9102">RegisterScooterController</text><line style="stroke: #A80036; stroke-width: 1.5;" x1="46.5" x2="303.5" y1="225" y2="225"/><line style="stroke: #A80036; stroke-width: 1.5;" x1="46.5" x2="303.5" y1="233" y2="233"/><text fill="#000000" font-family="sans-serif" font-size="11" lengthAdjust="spacingAndGlyphs" textLength="247" x="51.5" y="248.4189">+newScooter(batteryPerc, charginStatus, potency,</text><text fill="#000000" font-family="sans-serif" font-size="11" lengthAdjust="spacingAndGlyphs" textLength="173" x="54.5" y="262.2549">weight, batteryCapacity, pharmacy)</text><text fill="#000000" font-family="sans-serif" font-size="11" lengthAdjust="spacingAndGlyphs" textLength="95" x="51.5" y="276.0908">+registersScooter()</text><!--MD5=[e45a4727c47b726c25e081782e8bc183]
class ApplicationPOT--><rect fill="#FEFECE" filter="url(#f165yvs23ezka7)" height="75.6719" id="ApplicationPOT" style="stroke: #A80036; stroke-width: 1.5;" width="116" x="38" y="373"/><ellipse cx="53" cy="389" fill="#ADD1B2" rx="11" ry="11" style="stroke: #A80036; stroke-width: 1.0;"/><path d="M55,385.5 Q55.2031,385 55.4375,384.75 Q55.6719,384.5 55.9375,384.5 Q56.4063,384.5 56.7031,384.7813 Q57,385.0625 57,385.7188 L57,387.2813 Q57,387.9375 56.7188,388.2188 Q56.4375,388.5 56,388.5 Q55.6094,388.5 55.3594,388.3281 Q55.1094,388.1563 55,387.7031 Q54.9531,387.3906 54.7813,387.2188 Q54.4688,386.8906 53.9063,386.7031 Q53.3438,386.5 52.7813,386.5 Q52.0781,386.5 51.4844,386.7813 Q50.9063,387.0625 50.4531,387.6875 Q50,388.3125 50,389.1719 L50,390.0938 Q50,391.125 50.8438,391.8125 Q51.6875,392.5 53.1875,392.5 Q54.0781,392.5 54.7031,392.2969 Q55.0625,392.1875 55.4688,391.8281 Q55.7344,391.625 55.875,391.5625 Q56.0156,391.5 56.1875,391.5 Q56.5156,391.5 56.75,391.7656 Q57,392.0156 57,392.375 Q57,392.7188 56.6563,393.125 Q56.1563,393.7188 55.3594,394.0469 Q54.3125,394.5 53.0313,394.5 Q51.5313,394.5 50.3281,393.9063 Q49.3594,393.4375 48.6719,392.4219 Q48,391.4063 48,390.2031 L48,389.1094 Q48,387.8594 48.5938,386.7656 Q49.2031,385.6719 50.25,385.0938 Q51.3125,384.5 52.5,384.5 Q53.2188,384.5 53.8438,384.75 Q54.4688,385 55,385.5 Z "/><text fill="#000000" font-family="sans-serif" font-size="12" lengthAdjust="spacingAndGlyphs" textLength="84" x="67" y="393.9102">ApplicationPOT</text><line style="stroke: #A80036; stroke-width: 1.5;" x1="39" x2="153" y1="405" y2="405"/><line style="stroke: #A80036; stroke-width: 1.5;" x1="39" x2="153" y1="413" y2="413"/><text fill="#000000" font-family="sans-serif" font-size="11" lengthAdjust="spacingAndGlyphs" textLength="99" x="44" y="428.4189">+static getInstance()</text><text fill="#000000" font-family="sans-serif" font-size="11" lengthAdjust="spacingAndGlyphs" textLength="68" x="44" y="442.2549">+getPlatform()</text><!--MD5=[c5b08e60048ef1bcd788d24cf324082e]
class UserSession--><rect fill="#FEFECE" filter="url(#f165yvs23ezka7)" height="61.8359" id="UserSession" style="stroke: #A80036; stroke-width: 1.5;" width="116" x="189" y="380"/><ellipse cx="208.95" cy="396" fill="#ADD1B2" rx="11" ry="11" style="stroke: #A80036; stroke-width: 1.0;"/><path d="M210.95,392.5 Q211.1531,392 211.3875,391.75 Q211.6219,391.5 211.8875,391.5 Q212.3563,391.5 212.6531,391.7813 Q212.95,392.0625 212.95,392.7188 L212.95,394.2813 Q212.95,394.9375 212.6688,395.2188 Q212.3875,395.5 211.95,395.5 Q211.5594,395.5 211.3094,395.3281 Q211.0594,395.1563 210.95,394.7031 Q210.9031,394.3906 210.7313,394.2188 Q210.4188,393.8906 209.8563,393.7031 Q209.2938,393.5 208.7313,393.5 Q208.0281,393.5 207.4344,393.7813 Q206.8563,394.0625 206.4031,394.6875 Q205.95,395.3125 205.95,396.1719 L205.95,397.0938 Q205.95,398.125 206.7938,398.8125 Q207.6375,399.5 209.1375,399.5 Q210.0281,399.5 210.6531,399.2969 Q211.0125,399.1875 211.4188,398.8281 Q211.6844,398.625 211.825,398.5625 Q211.9656,398.5 212.1375,398.5 Q212.4656,398.5 212.7,398.7656 Q212.95,399.0156 212.95,399.375 Q212.95,399.7188 212.6063,400.125 Q212.1063,400.7188 211.3094,401.0469 Q210.2625,401.5 208.9813,401.5 Q207.4813,401.5 206.2781,400.9063 Q205.3094,400.4375 204.6219,399.4219 Q203.95,398.4063 203.95,397.2031 L203.95,396.1094 Q203.95,394.8594 204.5438,393.7656 Q205.1531,392.6719 206.2,392.0938 Q207.2625,391.5 208.45,391.5 Q209.1688,391.5 209.7938,391.75 Q210.4188,392 210.95,392.5 Z "/><text fill="#000000" font-family="sans-serif" font-size="12" lengthAdjust="spacingAndGlyphs" textLength="73" x="224.05" y="400.9102">UserSession</text><line style="stroke: #A80036; stroke-width: 1.5;" x1="190" x2="304" y1="412" y2="412"/><line style="stroke: #A80036; stroke-width: 1.5;" x1="190" x2="304" y1="420" y2="420"/><text fill="#000000" font-family="sans-serif" font-size="11" lengthAdjust="spacingAndGlyphs" textLength="104" x="195" y="435.4189">+getCurrentSession()</text><!--MD5=[99b8db98afdc2c8404e39242ef4c1e65]
class Platform--><rect fill="#FEFECE" filter="url(#f165yvs23ezka7)" height="89.5078" id="Platform" style="stroke: #A80036; stroke-width: 1.5;" width="102" x="407" y="366"/><ellipse cx="432.8" cy="382" fill="#ADD1B2" rx="11" ry="11" style="stroke: #A80036; stroke-width: 1.0;"/><path d="M434.8,378.5 Q435.0031,378 435.2375,377.75 Q435.4719,377.5 435.7375,377.5 Q436.2063,377.5 436.5031,377.7813 Q436.8,378.0625 436.8,378.7188 L436.8,380.2813 Q436.8,380.9375 436.5188,381.2188 Q436.2375,381.5 435.8,381.5 Q435.4094,381.5 435.1594,381.3281 Q434.9094,381.1563 434.8,380.7031 Q434.7531,380.3906 434.5813,380.2188 Q434.2688,379.8906 433.7063,379.7031 Q433.1438,379.5 432.5813,379.5 Q431.8781,379.5 431.2844,379.7813 Q430.7063,380.0625 430.2531,380.6875 Q429.8,381.3125 429.8,382.1719 L429.8,383.0938 Q429.8,384.125 430.6438,384.8125 Q431.4875,385.5 432.9875,385.5 Q433.8781,385.5 434.5031,385.2969 Q434.8625,385.1875 435.2688,384.8281 Q435.5344,384.625 435.675,384.5625 Q435.8156,384.5 435.9875,384.5 Q436.3156,384.5 436.55,384.7656 Q436.8,385.0156 436.8,385.375 Q436.8,385.7188 436.4563,386.125 Q435.9563,386.7188 435.1594,387.0469 Q434.1125,387.5 432.8313,387.5 Q431.3313,387.5 430.1281,386.9063 Q429.1594,386.4375 428.4719,385.4219 Q427.8,384.4063 427.8,383.2031 L427.8,382.1094 Q427.8,380.8594 428.3938,379.7656 Q429.0031,378.6719 430.05,378.0938 Q431.1125,377.5 432.3,377.5 Q433.0188,377.5 433.6438,377.75 Q434.2688,378 434.8,378.5 Z "/><text fill="#000000" font-family="sans-serif" font-size="12" lengthAdjust="spacingAndGlyphs" textLength="46" x="449.2" y="386.9102">Platform</text><line style="stroke: #A80036; stroke-width: 1.5;" x1="408" x2="508" y1="398" y2="398"/><text fill="#000000" font-family="sans-serif" font-size="11" lengthAdjust="spacingAndGlyphs" textLength="90" x="413" y="413.4189">-String designation</text><line style="stroke: #A80036; stroke-width: 1.5;" x1="408" x2="508" y1="419.8359" y2="419.8359"/><text fill="#000000" font-family="sans-serif" font-size="11" lengthAdjust="spacingAndGlyphs" textLength="75" x="413" y="435.2549">+gePharmReg()</text><text fill="#000000" font-family="sans-serif" font-size="11" lengthAdjust="spacingAndGlyphs" textLength="76" x="413" y="449.0908">+getScootReg()</text><!--MD5=[f4402668d5d5bb8485350c0fdb60ac8e]
class Scooter--><rect fill="#FEFECE" filter="url(#f165yvs23ezka7)" height="158.6875" id="Scooter" style="stroke: #A80036; stroke-width: 1.5;" width="237" x="379.5" y="753"/><ellipse cx="472.75" cy="769" fill="#ADD1B2" rx="11" ry="11" style="stroke: #A80036; stroke-width: 1.0;"/><path d="M474.75,765.5 Q474.9531,765 475.1875,764.75 Q475.4219,764.5 475.6875,764.5 Q476.1563,764.5 476.4531,764.7813 Q476.75,765.0625 476.75,765.7188 L476.75,767.2813 Q476.75,767.9375 476.4688,768.2188 Q476.1875,768.5 475.75,768.5 Q475.3594,768.5 475.1094,768.3281 Q474.8594,768.1563 474.75,767.7031 Q474.7031,767.3906 474.5313,767.2188 Q474.2188,766.8906 473.6563,766.7031 Q473.0938,766.5 472.5313,766.5 Q471.8281,766.5 471.2344,766.7813 Q470.6563,767.0625 470.2031,767.6875 Q469.75,768.3125 469.75,769.1719 L469.75,770.0938 Q469.75,771.125 470.5938,771.8125 Q471.4375,772.5 472.9375,772.5 Q473.8281,772.5 474.4531,772.2969 Q474.8125,772.1875 475.2188,771.8281 Q475.4844,771.625 475.625,771.5625 Q475.7656,771.5 475.9375,771.5 Q476.2656,771.5 476.5,771.7656 Q476.75,772.0156 476.75,772.375 Q476.75,772.7188 476.4063,773.125 Q475.9063,773.7188 475.1094,774.0469 Q474.0625,774.5 472.7813,774.5 Q471.2813,774.5 470.0781,773.9063 Q469.1094,773.4375 468.4219,772.4219 Q467.75,771.4063 467.75,770.2031 L467.75,769.1094 Q467.75,767.8594 468.3438,766.7656 Q468.9531,765.6719 470,765.0938 Q471.0625,764.5 472.25,764.5 Q472.9688,764.5 473.5938,764.75 Q474.2188,765 474.75,765.5 Z "/><text fill="#000000" font-family="sans-serif" font-size="12" lengthAdjust="spacingAndGlyphs" textLength="42" x="493.25" y="773.9102">Scooter</text><line style="stroke: #A80036; stroke-width: 1.5;" x1="380.5" x2="615.5" y1="785" y2="785"/><text fill="#000000" font-family="sans-serif" font-size="11" lengthAdjust="spacingAndGlyphs" textLength="26" x="385.5" y="800.4189">-int id</text><text fill="#000000" font-family="sans-serif" font-size="11" lengthAdjust="spacingAndGlyphs" textLength="74" x="385.5" y="814.2549">-int batteryPerc</text><text fill="#000000" font-family="sans-serif" font-size="11" lengthAdjust="spacingAndGlyphs" textLength="85" x="385.5" y="828.0908">-int charginStatus</text><text fill="#000000" font-family="sans-serif" font-size="11" lengthAdjust="spacingAndGlyphs" textLength="57" x="385.5" y="841.9268">-int potency</text><text fill="#000000" font-family="sans-serif" font-size="11" lengthAdjust="spacingAndGlyphs" textLength="51" x="385.5" y="855.7627">-int weight</text><text fill="#000000" font-family="sans-serif" font-size="11" lengthAdjust="spacingAndGlyphs" textLength="94" x="385.5" y="869.5986">-int batteryCapacity</text><line style="stroke: #A80036; stroke-width: 1.5;" x1="380.5" x2="615.5" y1="876.0156" y2="876.0156"/><text fill="#000000" font-family="sans-serif" font-size="11" lengthAdjust="spacingAndGlyphs" textLength="225" x="385.5" y="891.4346">+Scooter(batteryPerc, charginStatus, potency,</text><text fill="#000000" font-family="sans-serif" font-size="11" lengthAdjust="spacingAndGlyphs" textLength="173" x="388.5" y="905.2705">weight, batteryCapacity, pharmacy)</text><!--MD5=[0f39e4cb6f03951afbf6d14bd2505654]
class Address--><rect fill="#FEFECE" filter="url(#f165yvs23ezka7)" height="144.8516" id="Address" style="stroke: #A80036; stroke-width: 1.5;" width="106" x="652" y="760"/><ellipse cx="679.6" cy="776" fill="#ADD1B2" rx="11" ry="11" style="stroke: #A80036; stroke-width: 1.0;"/><path d="M681.6,772.5 Q681.8031,772 682.0375,771.75 Q682.2719,771.5 682.5375,771.5 Q683.0063,771.5 683.3031,771.7813 Q683.6,772.0625 683.6,772.7188 L683.6,774.2813 Q683.6,774.9375 683.3188,775.2188 Q683.0375,775.5 682.6,775.5 Q682.2094,775.5 681.9594,775.3281 Q681.7094,775.1563 681.6,774.7031 Q681.5531,774.3906 681.3813,774.2188 Q681.0688,773.8906 680.5063,773.7031 Q679.9438,773.5 679.3813,773.5 Q678.6781,773.5 678.0844,773.7813 Q677.5063,774.0625 677.0531,774.6875 Q676.6,775.3125 676.6,776.1719 L676.6,777.0938 Q676.6,778.125 677.4438,778.8125 Q678.2875,779.5 679.7875,779.5 Q680.6781,779.5 681.3031,779.2969 Q681.6625,779.1875 682.0688,778.8281 Q682.3344,778.625 682.475,778.5625 Q682.6156,778.5 682.7875,778.5 Q683.1156,778.5 683.35,778.7656 Q683.6,779.0156 683.6,779.375 Q683.6,779.7188 683.2563,780.125 Q682.7563,780.7188 681.9594,781.0469 Q680.9125,781.5 679.6313,781.5 Q678.1313,781.5 676.9281,780.9063 Q675.9594,780.4375 675.2719,779.4219 Q674.6,778.4063 674.6,777.2031 L674.6,776.1094 Q674.6,774.8594 675.1938,773.7656 Q675.8031,772.6719 676.85,772.0938 Q677.9125,771.5 679.1,771.5 Q679.8188,771.5 680.4438,771.75 Q681.0688,772 681.6,772.5 Z "/><text fill="#000000" font-family="sans-serif" font-size="12" lengthAdjust="spacingAndGlyphs" textLength="46" x="696.4" y="780.9102">Address</text><line style="stroke: #A80036; stroke-width: 1.5;" x1="653" x2="757" y1="792" y2="792"/><text fill="#000000" font-family="sans-serif" font-size="11" lengthAdjust="spacingAndGlyphs" textLength="71" x="658" y="807.4189">-float longitude</text><text fill="#000000" font-family="sans-serif" font-size="11" lengthAdjust="spacingAndGlyphs" textLength="62" x="658" y="821.2549">-float latitude</text><text fill="#000000" font-family="sans-serif" font-size="11" lengthAdjust="spacingAndGlyphs" textLength="94" x="658" y="835.0908">-String doorNumber</text><text fill="#000000" font-family="sans-serif" font-size="11" lengthAdjust="spacingAndGlyphs" textLength="90" x="658" y="848.9268">-String streetName</text><text fill="#000000" font-family="sans-serif" font-size="11" lengthAdjust="spacingAndGlyphs" textLength="89" x="658" y="862.7627">-String postalCode</text><text fill="#000000" font-family="sans-serif" font-size="11" lengthAdjust="spacingAndGlyphs" textLength="68" x="658" y="876.5986">-String locality</text><text fill="#000000" font-family="sans-serif" font-size="11" lengthAdjust="spacingAndGlyphs" textLength="72" x="658" y="890.4346">-String country</text><line style="stroke: #A80036; stroke-width: 1.5;" x1="653" x2="757" y1="896.8516" y2="896.8516"/><!--MD5=[7f2a9fafcebe4f099f71398fd3e2ed00]
class Pharmacy--><rect fill="#FEFECE" filter="url(#f165yvs23ezka7)" height="75.6719" id="Pharmacy" style="stroke: #A80036; stroke-width: 1.5;" width="87" x="528.5" y="576.5"/><ellipse cx="543.5" cy="592.5" fill="#ADD1B2" rx="11" ry="11" style="stroke: #A80036; stroke-width: 1.0;"/><path d="M545.5,589 Q545.7031,588.5 545.9375,588.25 Q546.1719,588 546.4375,588 Q546.9063,588 547.2031,588.2813 Q547.5,588.5625 547.5,589.2188 L547.5,590.7813 Q547.5,591.4375 547.2188,591.7188 Q546.9375,592 546.5,592 Q546.1094,592 545.8594,591.8281 Q545.6094,591.6563 545.5,591.2031 Q545.4531,590.8906 545.2813,590.7188 Q544.9688,590.3906 544.4063,590.2031 Q543.8438,590 543.2813,590 Q542.5781,590 541.9844,590.2813 Q541.4063,590.5625 540.9531,591.1875 Q540.5,591.8125 540.5,592.6719 L540.5,593.5938 Q540.5,594.625 541.3438,595.3125 Q542.1875,596 543.6875,596 Q544.5781,596 545.2031,595.7969 Q545.5625,595.6875 545.9688,595.3281 Q546.2344,595.125 546.375,595.0625 Q546.5156,595 546.6875,595 Q547.0156,595 547.25,595.2656 Q547.5,595.5156 547.5,595.875 Q547.5,596.2188 547.1563,596.625 Q546.6563,597.2188 545.8594,597.5469 Q544.8125,598 543.5313,598 Q542.0313,598 540.8281,597.4063 Q539.8594,596.9375 539.1719,595.9219 Q538.5,594.9063 538.5,593.7031 L538.5,592.6094 Q538.5,591.3594 539.0938,590.2656 Q539.7031,589.1719 540.75,588.5938 Q541.8125,588 543,588 Q543.7188,588 544.3438,588.25 Q544.9688,588.5 545.5,589 Z "/><text fill="#000000" font-family="sans-serif" font-size="12" lengthAdjust="spacingAndGlyphs" textLength="55" x="557.5" y="597.4102">Pharmacy</text><line style="stroke: #A80036; stroke-width: 1.5;" x1="529.5" x2="614.5" y1="608.5" y2="608.5"/><text fill="#000000" font-family="sans-serif" font-size="11" lengthAdjust="spacingAndGlyphs" textLength="26" x="534.5" y="623.9189">-int id</text><text fill="#000000" font-family="sans-serif" font-size="11" lengthAdjust="spacingAndGlyphs" textLength="61" x="534.5" y="637.7549">-String name</text><line style="stroke: #A80036; stroke-width: 1.5;" x1="529.5" x2="614.5" y1="644.1719" y2="644.1719"/><!--MD5=[c5b7c01e8de644a6bcc6ccb0cb86eabf]
class PharmacyRegistration--><rect fill="#FEFECE" filter="url(#f165yvs23ezka7)" height="75.6719" id="PharmacyRegistration" style="stroke: #A80036; stroke-width: 1.5;" width="166" x="651" y="576.5"/><ellipse cx="671.4" cy="592.5" fill="#ADD1B2" rx="11" ry="11" style="stroke: #A80036; stroke-width: 1.0;"/><path d="M673.4,589 Q673.6031,588.5 673.8375,588.25 Q674.0719,588 674.3375,588 Q674.8063,588 675.1031,588.2813 Q675.4,588.5625 675.4,589.2188 L675.4,590.7813 Q675.4,591.4375 675.1188,591.7188 Q674.8375,592 674.4,592 Q674.0094,592 673.7594,591.8281 Q673.5094,591.6563 673.4,591.2031 Q673.3531,590.8906 673.1813,590.7188 Q672.8688,590.3906 672.3063,590.2031 Q671.7438,590 671.1813,590 Q670.4781,590 669.8844,590.2813 Q669.3063,590.5625 668.8531,591.1875 Q668.4,591.8125 668.4,592.6719 L668.4,593.5938 Q668.4,594.625 669.2438,595.3125 Q670.0875,596 671.5875,596 Q672.4781,596 673.1031,595.7969 Q673.4625,595.6875 673.8688,595.3281 Q674.1344,595.125 674.275,595.0625 Q674.4156,595 674.5875,595 Q674.9156,595 675.15,595.2656 Q675.4,595.5156 675.4,595.875 Q675.4,596.2188 675.0563,596.625 Q674.5563,597.2188 673.7594,597.5469 Q672.7125,598 671.4313,598 Q669.9313,598 668.7281,597.4063 Q667.7594,596.9375 667.0719,595.9219 Q666.4,594.9063 666.4,593.7031 L666.4,592.6094 Q666.4,591.3594 666.9938,590.2656 Q667.6031,589.1719 668.65,588.5938 Q669.7125,588 670.9,588 Q671.6188,588 672.2438,588.25 Q672.8688,588.5 673.4,589 Z "/><text fill="#000000" font-family="sans-serif" font-size="12" lengthAdjust="spacingAndGlyphs" textLength="122" x="686.6" y="597.4102">PharmacyRegistration</text><line style="stroke: #A80036; stroke-width: 1.5;" x1="652" x2="816" y1="608.5" y2="608.5"/><line style="stroke: #A80036; stroke-width: 1.5;" x1="652" x2="816" y1="616.5" y2="616.5"/><text fill="#000000" font-family="sans-serif" font-size="11" lengthAdjust="spacingAndGlyphs" textLength="154" x="657" y="631.9189">+getPharmacyById(pharmacyId)</text><text fill="#000000" font-family="sans-serif" font-size="11" lengthAdjust="spacingAndGlyphs" textLength="83" x="657" y="645.7549">+getConnection()</text><!--MD5=[4a15ac34fd2b3f03c890a74250c9952b]
class ScooterRegistration--><rect fill="#FEFECE" filter="url(#f165yvs23ezka7)" height="117.1797" id="ScooterRegistration" style="stroke: #A80036; stroke-width: 1.5;" width="259" x="852.5" y="556"/><ellipse cx="923.25" cy="572" fill="#ADD1B2" rx="11" ry="11" style="stroke: #A80036; stroke-width: 1.0;"/><path d="M925.25,568.5 Q925.4531,568 925.6875,567.75 Q925.9219,567.5 926.1875,567.5 Q926.6563,567.5 926.9531,567.7813 Q927.25,568.0625 927.25,568.7188 L927.25,570.2813 Q927.25,570.9375 926.9688,571.2188 Q926.6875,571.5 926.25,571.5 Q925.8594,571.5 925.6094,571.3281 Q925.3594,571.1563 925.25,570.7031 Q925.2031,570.3906 925.0313,570.2188 Q924.7188,569.8906 924.1563,569.7031 Q923.5938,569.5 923.0313,569.5 Q922.3281,569.5 921.7344,569.7813 Q921.1563,570.0625 920.7031,570.6875 Q920.25,571.3125 920.25,572.1719 L920.25,573.0938 Q920.25,574.125 921.0938,574.8125 Q921.9375,575.5 923.4375,575.5 Q924.3281,575.5 924.9531,575.2969 Q925.3125,575.1875 925.7188,574.8281 Q925.9844,574.625 926.125,574.5625 Q926.2656,574.5 926.4375,574.5 Q926.7656,574.5 927,574.7656 Q927.25,575.0156 927.25,575.375 Q927.25,575.7188 926.9063,576.125 Q926.4063,576.7188 925.6094,577.0469 Q924.5625,577.5 923.2813,577.5 Q921.7813,577.5 920.5781,576.9063 Q919.6094,576.4375 918.9219,575.4219 Q918.25,574.4063 918.25,573.2031 L918.25,572.1094 Q918.25,570.8594 918.8438,569.7656 Q919.4531,568.6719 920.5,568.0938 Q921.5625,567.5 922.75,567.5 Q923.4688,567.5 924.0938,567.75 Q924.7188,568 925.25,568.5 Z "/><text fill="#000000" font-family="sans-serif" font-size="12" lengthAdjust="spacingAndGlyphs" textLength="109" x="943.75" y="576.9102">ScooterRegistration</text><line style="stroke: #A80036; stroke-width: 1.5;" x1="853.5" x2="1110.5" y1="588" y2="588"/><line style="stroke: #A80036; stroke-width: 1.5;" x1="853.5" x2="1110.5" y1="596" y2="596"/><text fill="#000000" font-family="sans-serif" font-size="11" lengthAdjust="spacingAndGlyphs" textLength="247" x="858.5" y="611.4189">+newScooter(batteryPerc, charginStatus, potency,</text><text fill="#000000" font-family="sans-serif" font-size="11" lengthAdjust="spacingAndGlyphs" textLength="173" x="861.5" y="625.2549">weight, batteryCapacity, pharmacy)</text><text fill="#000000" font-family="sans-serif" font-size="11" lengthAdjust="spacingAndGlyphs" textLength="218" x="858.5" y="639.0908">+create(batteryPerc, charginStatus, potency,</text><text fill="#000000" font-family="sans-serif" font-size="11" lengthAdjust="spacingAndGlyphs" textLength="173" x="861.5" y="652.9268">weight, batteryCapacity, pharmacy)</text><text fill="#000000" font-family="sans-serif" font-size="11" lengthAdjust="spacingAndGlyphs" textLength="116" x="858.5" y="666.7627">+validateScooter(scoot)</text><!--MD5=[4b2d61224b33971326a22fe5d809d926]
class DataHandler--><rect fill="#FEFECE" filter="url(#f165yvs23ezka7)" height="75.6719" id="DataHandler" style="stroke: #A80036; stroke-width: 1.5;" width="104" x="1192" y="373"/><ellipse cx="1207.9" cy="389" fill="#ADD1B2" rx="11" ry="11" style="stroke: #A80036; stroke-width: 1.0;"/><path d="M1209.9,385.5 Q1210.1031,385 1210.3375,384.75 Q1210.5719,384.5 1210.8375,384.5 Q1211.3063,384.5 1211.6031,384.7813 Q1211.9,385.0625 1211.9,385.7188 L1211.9,387.2813 Q1211.9,387.9375 1211.6188,388.2188 Q1211.3375,388.5 1210.9,388.5 Q1210.5094,388.5 1210.2594,388.3281 Q1210.0094,388.1563 1209.9,387.7031 Q1209.8531,387.3906 1209.6813,387.2188 Q1209.3688,386.8906 1208.8063,386.7031 Q1208.2438,386.5 1207.6813,386.5 Q1206.9781,386.5 1206.3844,386.7813 Q1205.8063,387.0625 1205.3531,387.6875 Q1204.9,388.3125 1204.9,389.1719 L1204.9,390.0938 Q1204.9,391.125 1205.7438,391.8125 Q1206.5875,392.5 1208.0875,392.5 Q1208.9781,392.5 1209.6031,392.2969 Q1209.9625,392.1875 1210.3688,391.8281 Q1210.6344,391.625 1210.775,391.5625 Q1210.9156,391.5 1211.0875,391.5 Q1211.4156,391.5 1211.65,391.7656 Q1211.9,392.0156 1211.9,392.375 Q1211.9,392.7188 1211.5563,393.125 Q1211.0563,393.7188 1210.2594,394.0469 Q1209.2125,394.5 1207.9313,394.5 Q1206.4313,394.5 1205.2281,393.9063 Q1204.2594,393.4375 1203.5719,392.4219 Q1202.9,391.4063 1202.9,390.2031 L1202.9,389.1094 Q1202.9,387.8594 1203.4938,386.7656 Q1204.1031,385.6719 1205.15,385.0938 Q1206.2125,384.5 1207.4,384.5 Q1208.1188,384.5 1208.7438,384.75 Q1209.3688,385 1209.9,385.5 Z "/><text fill="#000000" font-family="sans-serif" font-size="12" lengthAdjust="spacingAndGlyphs" textLength="70" x="1222.1" y="393.9102">DataHandler</text><line style="stroke: #A80036; stroke-width: 1.5;" x1="1193" x2="1295" y1="405" y2="405"/><line style="stroke: #A80036; stroke-width: 1.5;" x1="1193" x2="1295" y1="413" y2="413"/><text fill="#000000" font-family="sans-serif" font-size="11" lengthAdjust="spacingAndGlyphs" textLength="92" x="1198" y="428.4189">+openConnection()</text><text fill="#000000" font-family="sans-serif" font-size="11" lengthAdjust="spacingAndGlyphs" textLength="52" x="1198" y="442.2549">+closeAll()</text><!--MD5=[88cdc1ff0babf321196dd88b9a70f9c4]
reverse link DataHandler to PharmacyRegistration--><path d="M1179.83,459.793 C1170.81,464.919 1161.41,469.524 1152,473 C1018.85,522.201 962.5,449.6 835,512 C805.08,526.643 778.81,553.767 760.566,576.293 " fill="none" id="DataHandler&lt;-PharmacyRegistration" style="stroke: #A80036; stroke-width: 1.0;"/><polygon fill="none" points="1176.41,453.674,1197.1,449.098,1183.78,465.578,1176.41,453.674" style="stroke: #A80036; stroke-width: 1.0;"/><!--MD5=[527120703de7dfffd3117b230a6ddff3]
reverse link DataHandler to ScooterRegistration--><path d="M1179.59,461.536 C1142.46,490.092 1095.61,526.125 1056.85,555.936 " fill="none" id="DataHandler&lt;-ScooterRegistration" style="stroke: #A80036; stroke-width: 1.0;"/><polygon fill="none" points="1175.52,455.837,1195.64,449.193,1184.05,466.935,1175.52,455.837" style="stroke: #A80036; stroke-width: 1.0;"/><!--MD5=[954f86ea882ac5dcad44771d5b1b4c17]
link RegisterScooterUI to RegisterScooterController--><path d="M175,108.086 C175,129.108 175,160.852 175,187.58 " fill="none" id="RegisterScooterUI-&gt;RegisterScooterController" style="stroke: #A80036; stroke-width: 1.0; stroke-dasharray: 7.0,7.0;"/><polygon fill="#A80036" points="175,192.853,179,183.853,175,187.853,171,183.853,175,192.853" style="stroke: #A80036; stroke-width: 1.0;"/><!--MD5=[2554efbba2da6dcb0c5d97dedc10b799]
link RegisterScooterController to Platform--><path d="M254.255,283.025 C276.027,295.398 299.544,309.023 321,322 C348.096,338.388 377.711,357.284 402.452,373.355 " fill="none" id="RegisterScooterController-&gt;Platform" style="stroke: #A80036; stroke-width: 1.0; stroke-dasharray: 7.0,7.0;"/><polygon fill="#A80036" points="406.695,376.114,401.3307,367.8542,402.5034,373.3882,396.9694,374.5608,406.695,376.114" style="stroke: #A80036; stroke-width: 1.0;"/><!--MD5=[2b5e734699f3079cc966a0817e5e5946]
link RegisterScooterController to ApplicationPOT--><path d="M154.656,283.037 C142.562,309.214 127.307,342.234 115.386,368.038 " fill="none" id="RegisterScooterController-&gt;ApplicationPOT" style="stroke: #A80036; stroke-width: 1.0; stroke-dasharray: 7.0,7.0;"/><polygon fill="#A80036" points="113.2,372.769,120.6062,366.2768,115.2973,368.2301,113.344,362.9212,113.2,372.769" style="stroke: #A80036; stroke-width: 1.0;"/><!--MD5=[d8b0574eccffa1bec6fe4d2aaced6501]
link RegisterScooterController to UserSession--><path d="M193.542,283.037 C205.584,311.637 221.065,348.403 232.265,375.004 " fill="none" id="RegisterScooterController-&gt;UserSession" style="stroke: #A80036; stroke-width: 1.0; stroke-dasharray: 7.0,7.0;"/><polygon fill="#A80036" points="234.305,379.848,234.4998,370.0011,232.3651,375.2397,227.1265,373.1049,234.305,379.848" style="stroke: #A80036; stroke-width: 1.0;"/><!--MD5=[f94ed16b1d761a53d4eba61183b6d758]
link Platform to PharmacyRegistration--><path d="M509.365,430.067 C550.382,446.482 607.357,473.962 647,512 C666.306,530.524 685.867,552.948 701.538,572.002 " fill="none" id="Platform-&gt;PharmacyRegistration" style="stroke: #A80036; stroke-width: 1.0;"/><polygon fill="#A80036" points="705.025,576.264,702.4226,566.7652,701.8592,572.3939,696.2305,571.8305,705.025,576.264" style="stroke: #A80036; stroke-width: 1.0;"/><text fill="#000000" font-family="sans-serif" font-size="13" lengthAdjust="spacingAndGlyphs" textLength="21" x="635" y="500.4951">has</text><text fill="#000000" font-family="sans-serif" font-size="13" lengthAdjust="spacingAndGlyphs" textLength="7" x="517.0804" y="429.1777">1</text><text fill="#000000" font-family="sans-serif" font-size="13" lengthAdjust="spacingAndGlyphs" textLength="7" x="692.2404" y="565.5839">1</text><!--MD5=[10d7a1607bc161c4e7d004457651c20f]
link ScooterRegistration to Scooter--><path d="M885.524,673.135 C868.988,681.804 851.736,690.128 835,697 C749.611,732.062 720.14,717.337 635,753 C630.449,754.906 625.86,756.933 621.262,759.053 " fill="none" id="ScooterRegistration-&gt;Scooter" style="stroke: #A80036; stroke-width: 1.0;"/><polygon fill="#A80036" points="616.662,761.203,626.5091,761.0162,621.1917,759.086,623.1219,753.7686,616.662,761.203" style="stroke: #A80036; stroke-width: 1.0;"/><text fill="#000000" font-family="sans-serif" font-size="13" lengthAdjust="spacingAndGlyphs" textLength="53" x="811" y="719.4951">manages</text><text fill="#000000" font-family="sans-serif" font-size="13" lengthAdjust="spacingAndGlyphs" textLength="7" x="866.3394" y="694.7617">1</text><text fill="#000000" font-family="sans-serif" font-size="13" lengthAdjust="spacingAndGlyphs" textLength="5" x="624.4239" y="753.6394">*</text><!--MD5=[4a07f137c208f82f57837154e1cfa51e]
link Platform to Pharmacy--><path d="M483.018,456.22 C503.402,492.249 531.853,542.539 551.051,576.471 " fill="none" id="Platform-Pharmacy" style="stroke: #A80036; stroke-width: 1.0;"/><text fill="#000000" font-family="sans-serif" font-size="13" lengthAdjust="spacingAndGlyphs" textLength="82" x="510" y="500.4951">has registered</text><polygon fill="#000000" points="546.5,509.3516,549.5,515.3516,552.5,509.3516,546.5,509.3516" style="stroke: #000000; stroke-width: 1.0;"/><text fill="#000000" font-family="sans-serif" font-size="13" lengthAdjust="spacingAndGlyphs" textLength="7" x="478.9095" y="476.9232">1</text><text fill="#000000" font-family="sans-serif" font-size="13" lengthAdjust="spacingAndGlyphs" textLength="5" x="541.7276" y="565.5422">*</text><!--MD5=[423ba1e9b983bd24d1236c4cf89ceca7]
link Platform to Scooter--><path d="M433.711,456.471 C425.775,473.346 417.981,493.067 414,512 C397.081,592.463 391.346,617.96 414,697 C419.499,716.187 428.621,735.294 438.872,752.827 " fill="none" id="Platform-Scooter" style="stroke: #A80036; stroke-width: 1.0;"/><text fill="#000000" font-family="sans-serif" font-size="13" lengthAdjust="spacingAndGlyphs" textLength="82" x="415" y="619.9951">has registered</text><polygon fill="#000000" points="451.5,628.8516,454.5,634.8516,457.5,628.8516,451.5,628.8516" style="stroke: #000000; stroke-width: 1.0;"/><text fill="#000000" font-family="sans-serif" font-size="13" lengthAdjust="spacingAndGlyphs" textLength="7" x="423.1505" y="476.8711">1</text><text fill="#000000" font-family="sans-serif" font-size="13" lengthAdjust="spacingAndGlyphs" textLength="5" x="428.1907" y="742.2704">*</text><!--MD5=[cf4f95b832970cfa6e3a3c87e0aa2b32]
link Pharmacy to Scooter--><path d="M559.279,652.632 C549.857,680.133 536.675,718.611 524.95,752.836 " fill="none" id="Pharmacy-Scooter" style="stroke: #A80036; stroke-width: 1.0;"/><text fill="#000000" font-family="sans-serif" font-size="13" lengthAdjust="spacingAndGlyphs" textLength="21" x="541" y="719.4951">has</text><polygon fill="#000000" points="547,728.3516,550,734.3516,553,728.3516,547,728.3516" style="stroke: #000000; stroke-width: 1.0;"/><text fill="#000000" font-family="sans-serif" font-size="13" lengthAdjust="spacingAndGlyphs" textLength="7" x="549.6938" y="673.5336">1</text><text fill="#000000" font-family="sans-serif" font-size="13" lengthAdjust="spacingAndGlyphs" textLength="5" x="522.2804" y="742.0073">*</text><!--MD5=[89baec1bfb4a213750f7c61516e0a0f1]
link Pharmacy to Address--><path d="M594.864,652.632 C612.986,682.063 638.848,724.066 660.958,759.974 " fill="none" id="Pharmacy-Address" style="stroke: #A80036; stroke-width: 1.0;"/><text fill="#000000" font-family="sans-serif" font-size="13" lengthAdjust="spacingAndGlyphs" textLength="21" x="635" y="719.4951">has</text><polygon fill="#000000" points="641,728.3516,644,734.3516,647,728.3516,641,728.3516" style="stroke: #000000; stroke-width: 1.0;"/><text fill="#000000" font-family="sans-serif" font-size="13" lengthAdjust="spacingAndGlyphs" textLength="7" x="590.9501" y="673.5336">1</text><text fill="#000000" font-family="sans-serif" font-size="13" lengthAdjust="spacingAndGlyphs" textLength="7" x="649.0552" y="749.1907">1</text><!--MD5=[04729c4591e860a70b552e299247038e]
@startuml
skinparam classAttributeIconSize 0

package "UI" #DDDDDD {
class RegisterScooterUI{

}
}


package "Controller" #DDDDDD {
class RegisterScooterController{
+newScooter(batteryPerc, charginStatus, potency,\n weight, batteryCapacity, pharmacy)
+registersScooter()
}

class ApplicationPOT
{
  +static getInstance()
  +getPlatform()
}

class UserSession
{
  +getCurrentSession()
}
}


package "Model" #DDDDDD {
class Platform {
  -String designation
  +gePharmReg()
  +getScootReg()
}
package "Registration" #DDDDDD {
 class PharmacyRegistration{
     +getPharmacyById(pharmacyId)
     +getConnection()
 }

 class ScooterRegistration{
      +newScooter(batteryPerc, charginStatus, potency,\n weight, batteryCapacity, pharmacy)
      +create(batteryPerc, charginStatus, potency,\n weight, batteryCapacity, pharmacy)
      +validateScooter(scoot)
  }
 }
}

package "Model" #DDDDDD {
class Scooter{
  -int id
  -int batteryPerc
  -int charginStatus
  -int potency
  -int weight
  -int batteryCapacity
  +Scooter(batteryPerc, charginStatus, potency,\n weight, batteryCapacity, pharmacy)
}

class Address{
  -float longitude
  -float latitude
  -String doorNumber
  -String streetName
  -String postalCode
  -String locality
  -String country
}

class Pharmacy {
  -int id
  -String name
}

}


package "Data" #DDDDDD {
class DataHandler{
    +openConnection()
    +closeAll()
}
}

class PharmacyRegistration extends DataHandler
class ScooterRegistration extends DataHandler

RegisterScooterUI ..> RegisterScooterController
RegisterScooterController ..> Platform
RegisterScooterController ..> ApplicationPOT
RegisterScooterController ..> UserSession
Platform "1" - -> "1" PharmacyRegistration : has
ScooterRegistration "1" - -> "*" Scooter : manages

Platform "1" - - "*" Pharmacy : has registered >
Platform "1" - - "*" Scooter : has registered >

Pharmacy "1" - - "*" Scooter : has >
Pharmacy "1" - - "1" Address : has >

@enduml

PlantUML version 1.2020.09(Sun May 10 11:51:06 BST 2020)
(GPL source distribution)
Java Runtime: OpenJDK Runtime Environment
JVM: OpenJDK 64-Bit Server VM
Java Version: 11.0.6+8-b765.40
Operating System: Windows 10
Default Encoding: Cp1252
Language: pt
Country: PT
--></g></svg>