<?xml version="1.0" encoding="UTF-8" standalone="no"?><svg xmlns="http://www.w3.org/2000/svg" xmlns:xlink="http://www.w3.org/1999/xlink" contentScriptType="application/ecmascript" contentStyleType="text/css" height="564px" preserveAspectRatio="none" style="width:792px;height:564px;" version="1.1" viewBox="0 0 792 564" width="792px" zoomAndPan="magnify"><defs><filter height="300%" id="fgn0tp3g4f8by" width="300%" x="-1" y="-1"><feGaussianBlur result="blurOut" stdDeviation="1.2"/><feColorMatrix in="blurOut" result="blurOut2" type="matrix" values="0 0 0 0 0 0 0 0 0 0 0 0 0 0 0 0 0 0 .4 0"/><feOffset dx="2.4" dy="2.4" in="blurOut2" result="blurOut3"/><feBlend in="SourceGraphic" in2="blurOut3" mode="normal"/></filter></defs><g><!--MD5=[9681dc6e01e10c6b4fe06895ae94f592]
cluster UI--><polygon fill="#DDDDDD" filter="url(#fgn0tp3g4f8by)" points="61.8,14.4,73.8,14.4,78,28.5656,161.4,28.5656,161.4,74.4,61.8,74.4,61.8,14.4" style="stroke: #000000; stroke-width: 0.8999999999999999;"/><line style="stroke: #000000; stroke-width: 0.8999999999999999;" x1="61.8" x2="78" y1="28.5656" y2="28.5656"/><text fill="#000000" font-family="sans-serif" font-size="8.4" font-weight="bold" lengthAdjust="spacingAndGlyphs" textLength="8.4" x="64.2" y="24.3199">UI</text><!--MD5=[1f2cfc53d9d308f53762fd0fcbaa4873]
cluster Controller--><polygon fill="#DDDDDD" filter="url(#fgn0tp3g4f8by)" points="13.2,94.2,59.4,94.2,63.6,108.3656,192.6,108.3656,192.6,279,13.2,279,13.2,94.2" style="stroke: #000000; stroke-width: 0.8999999999999999;"/><line style="stroke: #000000; stroke-width: 0.8999999999999999;" x1="13.2" x2="63.6" y1="108.3656" y2="108.3656"/><text fill="#000000" font-family="sans-serif" font-size="8.4" font-weight="bold" lengthAdjust="spacingAndGlyphs" textLength="42.6" x="15.6" y="104.1199">Controller</text><!--MD5=[15636c1ca4a123c16a2a1a8e90aca7a9]
cluster Model--><polygon fill="#DDDDDD" filter="url(#fgn0tp3g4f8by)" points="207,198,237,198,241.2,212.1656,682.8,212.1656,682.8,556.8,207,556.8,207,198" style="stroke: #000000; stroke-width: 0.8999999999999999;"/><line style="stroke: #000000; stroke-width: 0.8999999999999999;" x1="207" x2="241.2" y1="212.1656" y2="212.1656"/><text fill="#000000" font-family="sans-serif" font-size="8.4" font-weight="bold" lengthAdjust="spacingAndGlyphs" textLength="26.4" x="209.4" y="207.9199">Model</text><!--MD5=[7f5e0441b00afcd8fa9ae108c086a015]
cluster Registration--><polygon fill="#DDDDDD" filter="url(#fgn0tp3g4f8by)" points="385.8,312,441,312,445.2,326.1656,668.4,326.1656,668.4,413.4,385.8,413.4,385.8,312" style="stroke: #000000; stroke-width: 0.8999999999999999;"/><line style="stroke: #000000; stroke-width: 0.8999999999999999;" x1="385.8" x2="445.2" y1="326.1656" y2="326.1656"/><text fill="#000000" font-family="sans-serif" font-size="8.4" font-weight="bold" lengthAdjust="spacingAndGlyphs" textLength="51.6" x="388.2" y="321.9199">Registration</text><!--MD5=[f21b1f164e99c6b37934f23ad048ad54]
cluster Data--><polygon fill="#DDDDDD" filter="url(#fgn0tp3g4f8by)" points="697.2,202.2,719.4,202.2,723.6,216.3656,778.8,216.3656,778.8,279,697.2,279,697.2,202.2" style="stroke: #000000; stroke-width: 0.8999999999999999;"/><line style="stroke: #000000; stroke-width: 0.8999999999999999;" x1="697.2" x2="723.6" y1="216.3656" y2="216.3656"/><text fill="#000000" font-family="sans-serif" font-size="8.4" font-weight="bold" lengthAdjust="spacingAndGlyphs" textLength="18.6" x="699.6" y="212.1199">Data</text><!--MD5=[2e02dc687a7adedd6993cedb12e41a52]
class RegisterScooterUI--><rect fill="#FEFECE" filter="url(#fgn0tp3g4f8by)" height="28.8" id="RegisterScooterUI" style="stroke: #A80036; stroke-width: 0.8999999999999999;" width="79.8" x="71.7" y="36"/><ellipse cx="80.7" cy="45.6" fill="#ADD1B2" rx="6.6" ry="6.6" style="stroke: #A80036; stroke-width: 0.6;"/><path d="M81.9,43.5 Q82.0219,43.2 82.1625,43.05 Q82.3031,42.9 82.4625,42.9 Q82.7437,42.9 82.9219,43.0688 Q83.1,43.2375 83.1,43.6313 L83.1,44.5688 Q83.1,44.9625 82.9312,45.1313 Q82.7625,45.3 82.5,45.3 Q82.2656,45.3 82.1156,45.1969 Q81.9656,45.0938 81.9,44.8219 Q81.8719,44.6344 81.7688,44.5313 Q81.5813,44.3344 81.2437,44.2219 Q80.9063,44.1 80.5688,44.1 Q80.1469,44.1 79.7906,44.2688 Q79.4438,44.4375 79.1719,44.8125 Q78.9,45.1875 78.9,45.7031 L78.9,46.2563 Q78.9,46.875 79.4063,47.2875 Q79.9125,47.7 80.8125,47.7 Q81.3469,47.7 81.7219,47.5781 Q81.9375,47.5125 82.1812,47.2969 Q82.3406,47.175 82.425,47.1375 Q82.5094,47.1 82.6125,47.1 Q82.8094,47.1 82.95,47.2594 Q83.1,47.4094 83.1,47.625 Q83.1,47.8313 82.8938,48.075 Q82.5938,48.4313 82.1156,48.6281 Q81.4875,48.9 80.7188,48.9 Q79.8188,48.9 79.0969,48.5437 Q78.5156,48.2625 78.1031,47.6531 Q77.7,47.0437 77.7,46.3219 L77.7,45.6656 Q77.7,44.9156 78.0562,44.2594 Q78.4219,43.6031 79.05,43.2563 Q79.6875,42.9 80.4,42.9 Q80.8313,42.9 81.2063,43.05 Q81.5813,43.2 81.9,43.5 Z "/><text fill="#000000" font-family="sans-serif" font-size="7.2" lengthAdjust="spacingAndGlyphs" textLength="60.6" x="89.1" y="48.5461">RegisterScooterUI</text><line style="stroke: #A80036; stroke-width: 0.8999999999999999;" x1="72.3" x2="150.9" y1="55.2" y2="55.2"/><line style="stroke: #A80036; stroke-width: 0.8999999999999999;" x1="72.3" x2="150.9" y1="60" y2="60"/><!--MD5=[b762eabfe222fdd6cf4857c585db3ba3]
class RegisterScooterController--><rect fill="#FEFECE" filter="url(#fgn0tp3g4f8by)" height="53.7047" id="RegisterScooterController" style="stroke: #A80036; stroke-width: 0.8999999999999999;" width="142.8" x="40.2" y="115.8"/><ellipse cx="66.21" cy="125.4" fill="#ADD1B2" rx="6.6" ry="6.6" style="stroke: #A80036; stroke-width: 0.6;"/><path d="M67.41,123.3 Q67.5319,123 67.6725,122.85 Q67.8131,122.7 67.9725,122.7 Q68.2538,122.7 68.4319,122.8687 Q68.61,123.0375 68.61,123.4312 L68.61,124.3687 Q68.61,124.7625 68.4413,124.9312 Q68.2725,125.1 68.01,125.1 Q67.7756,125.1 67.6256,124.9969 Q67.4756,124.8938 67.41,124.6219 Q67.3819,124.4344 67.2787,124.3313 Q67.0912,124.1344 66.7538,124.0219 Q66.4162,123.9 66.0788,123.9 Q65.6569,123.9 65.3006,124.0688 Q64.9538,124.2375 64.6819,124.6125 Q64.41,124.9875 64.41,125.5031 L64.41,126.0562 Q64.41,126.675 64.9162,127.0875 Q65.4225,127.5 66.3225,127.5 Q66.8569,127.5 67.2319,127.3781 Q67.4475,127.3125 67.6913,127.0969 Q67.8506,126.975 67.935,126.9375 Q68.0194,126.9 68.1225,126.9 Q68.3194,126.9 68.46,127.0594 Q68.61,127.2094 68.61,127.425 Q68.61,127.6313 68.4037,127.875 Q68.1037,128.2313 67.6256,128.4281 Q66.9975,128.7 66.2287,128.7 Q65.3288,128.7 64.6069,128.3438 Q64.0256,128.0625 63.6131,127.4531 Q63.21,126.8438 63.21,126.1219 L63.21,125.4656 Q63.21,124.7156 63.5663,124.0594 Q63.9319,123.4031 64.56,123.0562 Q65.1975,122.7 65.91,122.7 Q66.3412,122.7 66.7162,122.85 Q67.0912,123 67.41,123.3 Z "/><text fill="#000000" font-family="sans-serif" font-size="7.2" lengthAdjust="spacingAndGlyphs" textLength="85.8" x="78.39" y="128.3461">RegisterScooterController</text><line style="stroke: #A80036; stroke-width: 0.8999999999999999;" x1="40.8" x2="182.4" y1="135" y2="135"/><line style="stroke: #A80036; stroke-width: 0.8999999999999999;" x1="40.8" x2="182.4" y1="139.8" y2="139.8"/><text fill="#000000" font-family="sans-serif" font-size="6.6" lengthAdjust="spacingAndGlyphs" textLength="99.6" x="43.8" y="149.0514">+newScooter(maxWeight, battery,</text><text fill="#000000" font-family="sans-serif" font-size="6.6" lengthAdjust="spacingAndGlyphs" textLength="133.8" x="45.6" y="157.3529">batteryCapacity, status, potency, pharmacyId)</text><text fill="#000000" font-family="sans-serif" font-size="6.6" lengthAdjust="spacingAndGlyphs" textLength="57" x="43.8" y="165.6545">+registersScooter()</text><!--MD5=[e45a4727c47b726c25e081782e8bc183]
class ApplicationPOT--><rect fill="#FEFECE" filter="url(#fgn0tp3g4f8by)" height="45.4031" id="ApplicationPOT" style="stroke: #A80036; stroke-width: 0.8999999999999999;" width="69.6" x="22.8" y="223.8"/><ellipse cx="31.8" cy="233.4" fill="#ADD1B2" rx="6.6" ry="6.6" style="stroke: #A80036; stroke-width: 0.6;"/><path d="M33,231.3 Q33.1219,231 33.2625,230.85 Q33.4031,230.7 33.5625,230.7 Q33.8438,230.7 34.0219,230.8687 Q34.2,231.0375 34.2,231.4312 L34.2,232.3687 Q34.2,232.7625 34.0313,232.9312 Q33.8625,233.1 33.6,233.1 Q33.3656,233.1 33.2156,232.9969 Q33.0656,232.8937 33,232.6219 Q32.9719,232.4344 32.8688,232.3312 Q32.6813,232.1344 32.3438,232.0219 Q32.0063,231.9 31.6688,231.9 Q31.2469,231.9 30.8906,232.0688 Q30.5438,232.2375 30.2719,232.6125 Q30,232.9875 30,233.5031 L30,234.0562 Q30,234.675 30.5062,235.0875 Q31.0125,235.5 31.9125,235.5 Q32.4469,235.5 32.8219,235.3781 Q33.0375,235.3125 33.2813,235.0969 Q33.4406,234.975 33.525,234.9375 Q33.6094,234.9 33.7125,234.9 Q33.9094,234.9 34.05,235.0594 Q34.2,235.2094 34.2,235.425 Q34.2,235.6313 33.9938,235.875 Q33.6938,236.2313 33.2156,236.4281 Q32.5875,236.7 31.8187,236.7 Q30.9188,236.7 30.1969,236.3438 Q29.6156,236.0625 29.2031,235.4531 Q28.8,234.8438 28.8,234.1219 L28.8,233.4656 Q28.8,232.7156 29.1563,232.0594 Q29.5219,231.4031 30.15,231.0562 Q30.7875,230.7 31.5,230.7 Q31.9313,230.7 32.3063,230.85 Q32.6813,231 33,231.3 Z "/><text fill="#000000" font-family="sans-serif" font-size="7.2" lengthAdjust="spacingAndGlyphs" textLength="50.4" x="40.2" y="236.3461">ApplicationPOT</text><line style="stroke: #A80036; stroke-width: 0.8999999999999999;" x1="23.4" x2="91.8" y1="243" y2="243"/><line style="stroke: #A80036; stroke-width: 0.8999999999999999;" x1="23.4" x2="91.8" y1="247.8" y2="247.8"/><text fill="#000000" font-family="sans-serif" font-size="6.6" lengthAdjust="spacingAndGlyphs" textLength="59.4" x="26.4" y="257.0514">+static getInstance()</text><text fill="#000000" font-family="sans-serif" font-size="6.6" lengthAdjust="spacingAndGlyphs" textLength="40.8" x="26.4" y="265.3529">+getPlatform()</text><!--MD5=[c5b08e60048ef1bcd788d24cf324082e]
class UserSession--><rect fill="#FEFECE" filter="url(#fgn0tp3g4f8by)" height="37.1016" id="UserSession" style="stroke: #A80036; stroke-width: 0.8999999999999999;" width="69.6" x="113.4" y="228"/><ellipse cx="125.37" cy="237.6" fill="#ADD1B2" rx="6.6" ry="6.6" style="stroke: #A80036; stroke-width: 0.6;"/><path d="M126.57,235.5 Q126.6919,235.2 126.8325,235.05 Q126.9731,234.9 127.1325,234.9 Q127.4138,234.9 127.5919,235.0688 Q127.77,235.2375 127.77,235.6313 L127.77,236.5688 Q127.77,236.9625 127.6013,237.1313 Q127.4325,237.3 127.17,237.3 Q126.9356,237.3 126.7856,237.1969 Q126.6356,237.0938 126.57,236.8219 Q126.5419,236.6344 126.4387,236.5313 Q126.2512,236.3344 125.9138,236.2219 Q125.5762,236.1 125.2387,236.1 Q124.8169,236.1 124.4606,236.2687 Q124.1137,236.4375 123.8419,236.8125 Q123.57,237.1875 123.57,237.7031 L123.57,238.2563 Q123.57,238.875 124.0762,239.2875 Q124.5825,239.7 125.4825,239.7 Q126.0169,239.7 126.3919,239.5781 Q126.6075,239.5125 126.8513,239.2969 Q127.0106,239.175 127.095,239.1375 Q127.1794,239.1 127.2825,239.1 Q127.4794,239.1 127.62,239.2594 Q127.77,239.4094 127.77,239.625 Q127.77,239.8312 127.5637,240.075 Q127.2637,240.4312 126.7856,240.6281 Q126.1575,240.9 125.3887,240.9 Q124.4887,240.9 123.7669,240.5438 Q123.1856,240.2625 122.7731,239.6531 Q122.37,239.0438 122.37,238.3219 L122.37,237.6656 Q122.37,236.9156 122.7263,236.2594 Q123.0919,235.6031 123.72,235.2563 Q124.3575,234.9 125.07,234.9 Q125.5012,234.9 125.8762,235.05 Q126.2512,235.2 126.57,235.5 Z "/><text fill="#000000" font-family="sans-serif" font-size="7.2" lengthAdjust="spacingAndGlyphs" textLength="43.8" x="134.43" y="240.5461">UserSession</text><line style="stroke: #A80036; stroke-width: 0.8999999999999999;" x1="114" x2="182.4" y1="247.2" y2="247.2"/><line style="stroke: #A80036; stroke-width: 0.8999999999999999;" x1="114" x2="182.4" y1="252" y2="252"/><text fill="#000000" font-family="sans-serif" font-size="6.6" lengthAdjust="spacingAndGlyphs" textLength="62.4" x="117" y="261.2514">+getCurrentSession()</text><!--MD5=[99b8db98afdc2c8404e39242ef4c1e65]
class Platform--><rect fill="#FEFECE" filter="url(#fgn0tp3g4f8by)" height="53.7047" id="Platform" style="stroke: #A80036; stroke-width: 0.8999999999999999;" width="61.2" x="244.8" y="219.6"/><ellipse cx="260.28" cy="229.2" fill="#ADD1B2" rx="6.6" ry="6.6" style="stroke: #A80036; stroke-width: 0.6;"/><path d="M261.48,227.1 Q261.6019,226.8 261.7425,226.65 Q261.8831,226.5 262.0425,226.5 Q262.3238,226.5 262.5019,226.6688 Q262.68,226.8375 262.68,227.2313 L262.68,228.1688 Q262.68,228.5625 262.5113,228.7313 Q262.3425,228.9 262.08,228.9 Q261.8456,228.9 261.6956,228.7969 Q261.5456,228.6938 261.48,228.4219 Q261.4519,228.2344 261.3488,228.1313 Q261.1613,227.9344 260.8238,227.8219 Q260.4863,227.7 260.1488,227.7 Q259.7269,227.7 259.3706,227.8688 Q259.0238,228.0375 258.7519,228.4125 Q258.48,228.7875 258.48,229.3031 L258.48,229.8563 Q258.48,230.475 258.9863,230.8875 Q259.4925,231.3 260.3925,231.3 Q260.9269,231.3 261.3019,231.1781 Q261.5175,231.1125 261.7613,230.8969 Q261.9206,230.775 262.005,230.7375 Q262.0894,230.7 262.1925,230.7 Q262.3894,230.7 262.53,230.8594 Q262.68,231.0094 262.68,231.225 Q262.68,231.4312 262.4738,231.675 Q262.1738,232.0313 261.6956,232.2281 Q261.0675,232.5 260.2988,232.5 Q259.3988,232.5 258.6769,232.1437 Q258.0956,231.8625 257.6831,231.2531 Q257.28,230.6437 257.28,229.9219 L257.28,229.2656 Q257.28,228.5156 257.6363,227.8594 Q258.0019,227.2031 258.63,226.8563 Q259.2675,226.5 259.98,226.5 Q260.4113,226.5 260.7863,226.65 Q261.1613,226.8 261.48,227.1 Z "/><text fill="#000000" font-family="sans-serif" font-size="7.2" lengthAdjust="spacingAndGlyphs" textLength="27.6" x="270.12" y="232.1461">Platform</text><line style="stroke: #A80036; stroke-width: 0.8999999999999999;" x1="245.4" x2="305.4" y1="238.8" y2="238.8"/><text fill="#000000" font-family="sans-serif" font-size="6.6" lengthAdjust="spacingAndGlyphs" textLength="54" x="248.4" y="248.0514">-String designation</text><line style="stroke: #A80036; stroke-width: 0.8999999999999999;" x1="245.4" x2="305.4" y1="251.9016" y2="251.9016"/><text fill="#000000" font-family="sans-serif" font-size="6.6" lengthAdjust="spacingAndGlyphs" textLength="45" x="248.4" y="261.1529">+gePharmReg()</text><text fill="#000000" font-family="sans-serif" font-size="6.6" lengthAdjust="spacingAndGlyphs" textLength="45.6" x="248.4" y="269.4545">+getScootReg()</text><!--MD5=[f4402668d5d5bb8485350c0fdb60ac8e]
class Scooter--><rect fill="#FEFECE" filter="url(#fgn0tp3g4f8by)" height="95.2125" id="Scooter" style="stroke: #A80036; stroke-width: 0.8999999999999999;" width="141" x="228.3" y="451.8"/><ellipse cx="283.65" cy="461.4" fill="#ADD1B2" rx="6.6" ry="6.6" style="stroke: #A80036; stroke-width: 0.6;"/><path d="M284.85,459.3 Q284.9719,459 285.1125,458.85 Q285.2531,458.7 285.4125,458.7 Q285.6937,458.7 285.8719,458.8688 Q286.05,459.0375 286.05,459.4313 L286.05,460.3688 Q286.05,460.7625 285.8812,460.9313 Q285.7125,461.1 285.45,461.1 Q285.2156,461.1 285.0656,460.9969 Q284.9156,460.8937 284.85,460.6219 Q284.8219,460.4344 284.7188,460.3313 Q284.5313,460.1344 284.1937,460.0219 Q283.8563,459.9 283.5188,459.9 Q283.0969,459.9 282.7406,460.0687 Q282.3938,460.2375 282.1219,460.6125 Q281.85,460.9875 281.85,461.5031 L281.85,462.0563 Q281.85,462.675 282.3563,463.0875 Q282.8625,463.5 283.7625,463.5 Q284.2969,463.5 284.6719,463.3781 Q284.8875,463.3125 285.1312,463.0969 Q285.2906,462.975 285.375,462.9375 Q285.4594,462.9 285.5625,462.9 Q285.7594,462.9 285.9,463.0594 Q286.05,463.2094 286.05,463.425 Q286.05,463.6312 285.8438,463.875 Q285.5438,464.2313 285.0656,464.4281 Q284.4375,464.7 283.6688,464.7 Q282.7688,464.7 282.0469,464.3438 Q281.4656,464.0625 281.0531,463.4531 Q280.65,462.8438 280.65,462.1219 L280.65,461.4656 Q280.65,460.7156 281.0062,460.0594 Q281.3719,459.4031 282,459.0563 Q282.6375,458.7 283.35,458.7 Q283.7813,458.7 284.1563,458.85 Q284.5313,459 284.85,459.3 Z "/><text fill="#000000" font-family="sans-serif" font-size="7.2" lengthAdjust="spacingAndGlyphs" textLength="25.2" x="295.95" y="464.3461">Scooter</text><line style="stroke: #A80036; stroke-width: 0.8999999999999999;" x1="228.9" x2="368.7" y1="471" y2="471"/><text fill="#000000" font-family="sans-serif" font-size="6.6" lengthAdjust="spacingAndGlyphs" textLength="15.6" x="231.9" y="480.2514">-int id</text><text fill="#000000" font-family="sans-serif" font-size="6.6" lengthAdjust="spacingAndGlyphs" textLength="41.4" x="231.9" y="488.5529">-String battery</text><text fill="#000000" font-family="sans-serif" font-size="6.6" lengthAdjust="spacingAndGlyphs" textLength="65.4" x="231.9" y="496.8545">-float battery_capacity</text><text fill="#000000" font-family="sans-serif" font-size="6.6" lengthAdjust="spacingAndGlyphs" textLength="39" x="231.9" y="505.1561">-String status</text><text fill="#000000" font-family="sans-serif" font-size="6.6" lengthAdjust="spacingAndGlyphs" textLength="40.2" x="231.9" y="513.4576">-float potency</text><text fill="#000000" font-family="sans-serif" font-size="6.6" lengthAdjust="spacingAndGlyphs" textLength="48.6" x="231.9" y="521.7592">-float maxWeight</text><line style="stroke: #A80036; stroke-width: 0.8999999999999999;" x1="228.9" x2="368.7" y1="525.6094" y2="525.6094"/><text fill="#000000" font-family="sans-serif" font-size="6.6" lengthAdjust="spacingAndGlyphs" textLength="86.4" x="231.9" y="534.8607">+Scooter(maxWeight, battery,</text><text fill="#000000" font-family="sans-serif" font-size="6.6" lengthAdjust="spacingAndGlyphs" textLength="133.8" x="231.9" y="543.1623">batteryCapacity, status, potency, pharmacyId)</text><!--MD5=[0f39e4cb6f03951afbf6d14bd2505654]
class Address--><rect fill="#FEFECE" filter="url(#fgn0tp3g4f8by)" height="78.6094" id="Address" style="stroke: #A80036; stroke-width: 0.8999999999999999;" width="63.6" x="390.6" y="460.2"/><ellipse cx="407.16" cy="469.8" fill="#ADD1B2" rx="6.6" ry="6.6" style="stroke: #A80036; stroke-width: 0.6;"/><path d="M408.36,467.7 Q408.4819,467.4 408.6225,467.25 Q408.7631,467.1 408.9225,467.1 Q409.2038,467.1 409.3819,467.2687 Q409.56,467.4375 409.56,467.8312 L409.56,468.7687 Q409.56,469.1625 409.3913,469.3312 Q409.2225,469.5 408.96,469.5 Q408.7256,469.5 408.5756,469.3969 Q408.4256,469.2938 408.36,469.0219 Q408.3319,468.8344 408.2288,468.7313 Q408.0413,468.5344 407.7038,468.4219 Q407.3663,468.3 407.0288,468.3 Q406.6069,468.3 406.2506,468.4688 Q405.9038,468.6375 405.6319,469.0125 Q405.36,469.3875 405.36,469.9031 L405.36,470.4562 Q405.36,471.075 405.8663,471.4875 Q406.3725,471.9 407.2725,471.9 Q407.8069,471.9 408.1819,471.7781 Q408.3975,471.7125 408.6413,471.4969 Q408.8006,471.375 408.885,471.3375 Q408.9694,471.3 409.0725,471.3 Q409.2694,471.3 409.41,471.4594 Q409.56,471.6094 409.56,471.825 Q409.56,472.0313 409.3538,472.275 Q409.0538,472.6312 408.5756,472.8281 Q407.9475,473.1 407.1788,473.1 Q406.2788,473.1 405.5569,472.7438 Q404.9756,472.4625 404.5631,471.8531 Q404.16,471.2438 404.16,470.5219 L404.16,469.8656 Q404.16,469.1156 404.5163,468.4594 Q404.8819,467.8031 405.51,467.4562 Q406.1475,467.1 406.86,467.1 Q407.2913,467.1 407.6663,467.25 Q408.0413,467.4 408.36,467.7 Z "/><text fill="#000000" font-family="sans-serif" font-size="7.2" lengthAdjust="spacingAndGlyphs" textLength="27.6" x="417.24" y="472.7461">Address</text><line style="stroke: #A80036; stroke-width: 0.8999999999999999;" x1="391.2" x2="453.6" y1="479.4" y2="479.4"/><text fill="#000000" font-family="sans-serif" font-size="6.6" lengthAdjust="spacingAndGlyphs" textLength="54" x="394.2" y="488.6514">-String streetName</text><text fill="#000000" font-family="sans-serif" font-size="6.6" lengthAdjust="spacingAndGlyphs" textLength="56.4" x="394.2" y="496.9529">-String doorNumber</text><text fill="#000000" font-family="sans-serif" font-size="6.6" lengthAdjust="spacingAndGlyphs" textLength="40.8" x="394.2" y="505.2545">-String locality</text><text fill="#000000" font-family="sans-serif" font-size="6.6" lengthAdjust="spacingAndGlyphs" textLength="43.2" x="394.2" y="513.5561">-String country</text><text fill="#000000" font-family="sans-serif" font-size="6.6" lengthAdjust="spacingAndGlyphs" textLength="42.6" x="394.2" y="521.8576">-float longitude</text><text fill="#000000" font-family="sans-serif" font-size="6.6" lengthAdjust="spacingAndGlyphs" textLength="37.2" x="394.2" y="530.1592">-float latitude</text><line style="stroke: #A80036; stroke-width: 0.8999999999999999;" x1="391.2" x2="453.6" y1="534.0094" y2="534.0094"/><!--MD5=[7f2a9fafcebe4f099f71398fd3e2ed00]
class Pharmacy--><rect fill="#FEFECE" filter="url(#fgn0tp3g4f8by)" height="62.0062" id="Pharmacy" style="stroke: #A80036; stroke-width: 0.8999999999999999;" width="57.6" x="316.8" y="337.8"/><ellipse cx="328.23" cy="347.4" fill="#ADD1B2" rx="6.6" ry="6.6" style="stroke: #A80036; stroke-width: 0.6;"/><path d="M329.43,345.3 Q329.5519,345 329.6925,344.85 Q329.8331,344.7 329.9925,344.7 Q330.2737,344.7 330.4519,344.8688 Q330.63,345.0375 330.63,345.4313 L330.63,346.3688 Q330.63,346.7625 330.4612,346.9313 Q330.2925,347.1 330.03,347.1 Q329.7956,347.1 329.6456,346.9969 Q329.4956,346.8938 329.43,346.6219 Q329.4019,346.4344 329.2988,346.3313 Q329.1113,346.1344 328.7737,346.0219 Q328.4363,345.9 328.0987,345.9 Q327.6769,345.9 327.3206,346.0687 Q326.9737,346.2375 326.7019,346.6125 Q326.43,346.9875 326.43,347.5031 L326.43,348.0563 Q326.43,348.675 326.9363,349.0875 Q327.4425,349.5 328.3425,349.5 Q328.8769,349.5 329.2519,349.3781 Q329.4675,349.3125 329.7112,349.0969 Q329.8706,348.975 329.955,348.9375 Q330.0394,348.9 330.1425,348.9 Q330.3394,348.9 330.48,349.0594 Q330.63,349.2094 330.63,349.425 Q330.63,349.6312 330.4238,349.875 Q330.1238,350.2313 329.6456,350.4281 Q329.0175,350.7 328.2488,350.7 Q327.3487,350.7 326.6269,350.3438 Q326.0456,350.0625 325.6331,349.4531 Q325.23,348.8438 325.23,348.1219 L325.23,347.4656 Q325.23,346.7156 325.5862,346.0594 Q325.9519,345.4031 326.58,345.0563 Q327.2175,344.7 327.93,344.7 Q328.3613,344.7 328.7363,344.85 Q329.1113,345 329.43,345.3 Z "/><text fill="#000000" font-family="sans-serif" font-size="7.2" lengthAdjust="spacingAndGlyphs" textLength="33" x="337.17" y="350.3461">Pharmacy</text><line style="stroke: #A80036; stroke-width: 0.8999999999999999;" x1="317.4" x2="373.8" y1="357" y2="357"/><text fill="#000000" font-family="sans-serif" font-size="6.6" lengthAdjust="spacingAndGlyphs" textLength="15.6" x="320.4" y="366.2514">-int id</text><text fill="#000000" font-family="sans-serif" font-size="6.6" lengthAdjust="spacingAndGlyphs" textLength="36.6" x="320.4" y="374.5529">-String name</text><text fill="#000000" font-family="sans-serif" font-size="6.6" lengthAdjust="spacingAndGlyphs" textLength="46.2" x="320.4" y="382.8545">-int parkingSlots</text><text fill="#000000" font-family="sans-serif" font-size="6.6" lengthAdjust="spacingAndGlyphs" textLength="50.4" x="320.4" y="391.1561">-int chargingSlots</text><line style="stroke: #A80036; stroke-width: 0.8999999999999999;" x1="317.4" x2="373.8" y1="395.0062" y2="395.0062"/><!--MD5=[c5b7c01e8de644a6bcc6ccb0cb86eabf]
class PharmacyRegistration--><rect fill="#FEFECE" filter="url(#fgn0tp3g4f8by)" height="45.4031" id="PharmacyRegistration" style="stroke: #A80036; stroke-width: 0.8999999999999999;" width="99.6" x="395.4" y="345.9"/><ellipse cx="407.64" cy="355.5" fill="#ADD1B2" rx="6.6" ry="6.6" style="stroke: #A80036; stroke-width: 0.6;"/><path d="M408.84,353.4 Q408.9619,353.1 409.1025,352.95 Q409.2431,352.8 409.4025,352.8 Q409.6838,352.8 409.8619,352.9688 Q410.04,353.1375 410.04,353.5313 L410.04,354.4688 Q410.04,354.8625 409.8713,355.0313 Q409.7025,355.2 409.44,355.2 Q409.2056,355.2 409.0556,355.0969 Q408.9056,354.9938 408.84,354.7219 Q408.8119,354.5344 408.7087,354.4313 Q408.5212,354.2344 408.1838,354.1219 Q407.8463,354 407.5087,354 Q407.0869,354 406.7306,354.1688 Q406.3837,354.3375 406.1119,354.7125 Q405.84,355.0875 405.84,355.6031 L405.84,356.1563 Q405.84,356.775 406.3463,357.1875 Q406.8525,357.6 407.7525,357.6 Q408.2869,357.6 408.6619,357.4781 Q408.8775,357.4125 409.1213,357.1969 Q409.2806,357.075 409.365,357.0375 Q409.4494,357 409.5525,357 Q409.7494,357 409.89,357.1594 Q410.04,357.3094 410.04,357.525 Q410.04,357.7313 409.8337,357.975 Q409.5338,358.3313 409.0556,358.5281 Q408.4275,358.8 407.6588,358.8 Q406.7587,358.8 406.0369,358.4437 Q405.4556,358.1625 405.0431,357.5531 Q404.64,356.9437 404.64,356.2219 L404.64,355.5656 Q404.64,354.8156 404.9963,354.1594 Q405.3619,353.5031 405.99,353.1563 Q406.6275,352.8 407.34,352.8 Q407.7712,352.8 408.1462,352.95 Q408.5212,353.1 408.84,353.4 Z "/><text fill="#000000" font-family="sans-serif" font-size="7.2" lengthAdjust="spacingAndGlyphs" textLength="73.2" x="416.76" y="358.4461">PharmacyRegistration</text><line style="stroke: #A80036; stroke-width: 0.8999999999999999;" x1="396" x2="494.4" y1="365.1" y2="365.1"/><line style="stroke: #A80036; stroke-width: 0.8999999999999999;" x1="396" x2="494.4" y1="369.9" y2="369.9"/><text fill="#000000" font-family="sans-serif" font-size="6.6" lengthAdjust="spacingAndGlyphs" textLength="92.4" x="399" y="379.1514">+getPharmacyById(pharmacyId)</text><text fill="#000000" font-family="sans-serif" font-size="6.6" lengthAdjust="spacingAndGlyphs" textLength="49.8" x="399" y="387.4529">+getConnection()</text><!--MD5=[4a15ac34fd2b3f03c890a74250c9952b]
class ScooterRegistration--><rect fill="#FEFECE" filter="url(#fgn0tp3g4f8by)" height="70.3078" id="ScooterRegistration" style="stroke: #A80036; stroke-width: 0.8999999999999999;" width="142.8" x="516" y="333.6"/><ellipse cx="552.15" cy="343.2" fill="#ADD1B2" rx="6.6" ry="6.6" style="stroke: #A80036; stroke-width: 0.6;"/><path d="M553.35,341.1 Q553.4719,340.8 553.6125,340.65 Q553.7531,340.5 553.9125,340.5 Q554.1938,340.5 554.3719,340.6688 Q554.55,340.8375 554.55,341.2313 L554.55,342.1688 Q554.55,342.5625 554.3813,342.7313 Q554.2125,342.9 553.95,342.9 Q553.7156,342.9 553.5656,342.7969 Q553.4156,342.6937 553.35,342.4219 Q553.3219,342.2344 553.2188,342.1312 Q553.0313,341.9344 552.6938,341.8219 Q552.3562,341.7 552.0188,341.7 Q551.5969,341.7 551.2406,341.8688 Q550.8938,342.0375 550.6219,342.4125 Q550.35,342.7875 550.35,343.3031 L550.35,343.8563 Q550.35,344.475 550.8562,344.8875 Q551.3625,345.3 552.2625,345.3 Q552.7969,345.3 553.1719,345.1781 Q553.3875,345.1125 553.6313,344.8969 Q553.7906,344.775 553.875,344.7375 Q553.9594,344.7 554.0625,344.7 Q554.2594,344.7 554.4,344.8594 Q554.55,345.0094 554.55,345.225 Q554.55,345.4313 554.3438,345.675 Q554.0437,346.0313 553.5656,346.2281 Q552.9375,346.5 552.1687,346.5 Q551.2688,346.5 550.5469,346.1438 Q549.9656,345.8625 549.5531,345.2531 Q549.15,344.6438 549.15,343.9219 L549.15,343.2656 Q549.15,342.5156 549.5063,341.8594 Q549.8719,341.2031 550.5,340.8563 Q551.1375,340.5 551.85,340.5 Q552.2813,340.5 552.6563,340.65 Q553.0313,340.8 553.35,341.1 Z "/><text fill="#000000" font-family="sans-serif" font-size="7.2" lengthAdjust="spacingAndGlyphs" textLength="65.4" x="564.45" y="346.1461">ScooterRegistration</text><line style="stroke: #A80036; stroke-width: 0.8999999999999999;" x1="516.6" x2="658.2" y1="352.8" y2="352.8"/><line style="stroke: #A80036; stroke-width: 0.8999999999999999;" x1="516.6" x2="658.2" y1="357.6" y2="357.6"/><text fill="#000000" font-family="sans-serif" font-size="6.6" lengthAdjust="spacingAndGlyphs" textLength="99.6" x="519.6" y="366.8514">+newScooter(maxWeight, battery,</text><text fill="#000000" font-family="sans-serif" font-size="6.6" lengthAdjust="spacingAndGlyphs" textLength="133.8" x="521.4" y="375.1529">batteryCapacity, status, potency, pharmacyId)</text><text fill="#000000" font-family="sans-serif" font-size="6.6" lengthAdjust="spacingAndGlyphs" textLength="82.2" x="519.6" y="383.4545">+create(maxWeight, battery,</text><text fill="#000000" font-family="sans-serif" font-size="6.6" lengthAdjust="spacingAndGlyphs" textLength="133.8" x="521.4" y="391.7561">batteryCapacity, status, potency, pharmacyId)</text><text fill="#000000" font-family="sans-serif" font-size="6.6" lengthAdjust="spacingAndGlyphs" textLength="69.6" x="519.6" y="400.0576">+validateScooter(scoot)</text><!--MD5=[4b2d61224b33971326a22fe5d809d926]
class DataHandler--><rect fill="#FEFECE" filter="url(#fgn0tp3g4f8by)" height="45.4031" id="DataHandler" style="stroke: #A80036; stroke-width: 0.8999999999999999;" width="62.4" x="706.8" y="223.8"/><ellipse cx="716.34" cy="233.4" fill="#ADD1B2" rx="6.6" ry="6.6" style="stroke: #A80036; stroke-width: 0.6;"/><path d="M717.54,231.3 Q717.6619,231 717.8025,230.85 Q717.9431,230.7 718.1025,230.7 Q718.3838,230.7 718.5619,230.8687 Q718.74,231.0375 718.74,231.4312 L718.74,232.3687 Q718.74,232.7625 718.5713,232.9312 Q718.4025,233.1 718.14,233.1 Q717.9056,233.1 717.7556,232.9969 Q717.6056,232.8937 717.54,232.6219 Q717.5119,232.4344 717.4088,232.3312 Q717.2213,232.1344 716.8838,232.0219 Q716.5463,231.9 716.2088,231.9 Q715.7869,231.9 715.4306,232.0688 Q715.0838,232.2375 714.8119,232.6125 Q714.54,232.9875 714.54,233.5031 L714.54,234.0562 Q714.54,234.675 715.0463,235.0875 Q715.5525,235.5 716.4525,235.5 Q716.9869,235.5 717.3619,235.3781 Q717.5775,235.3125 717.8213,235.0969 Q717.9806,234.975 718.065,234.9375 Q718.1494,234.9 718.2525,234.9 Q718.4494,234.9 718.59,235.0594 Q718.74,235.2094 718.74,235.425 Q718.74,235.6313 718.5338,235.875 Q718.2338,236.2313 717.7556,236.4281 Q717.1275,236.7 716.3588,236.7 Q715.4588,236.7 714.7369,236.3438 Q714.1556,236.0625 713.7431,235.4531 Q713.34,234.8438 713.34,234.1219 L713.34,233.4656 Q713.34,232.7156 713.6963,232.0594 Q714.0619,231.4031 714.69,231.0562 Q715.3275,230.7 716.04,230.7 Q716.4713,230.7 716.8463,230.85 Q717.2213,231 717.54,231.3 Z "/><text fill="#000000" font-family="sans-serif" font-size="7.2" lengthAdjust="spacingAndGlyphs" textLength="42" x="724.86" y="236.3461">DataHandler</text><line style="stroke: #A80036; stroke-width: 0.8999999999999999;" x1="707.4" x2="768.6" y1="243" y2="243"/><line style="stroke: #A80036; stroke-width: 0.8999999999999999;" x1="707.4" x2="768.6" y1="247.8" y2="247.8"/><text fill="#000000" font-family="sans-serif" font-size="6.6" lengthAdjust="spacingAndGlyphs" textLength="55.2" x="710.4" y="257.0514">+openConnection()</text><text fill="#000000" font-family="sans-serif" font-size="6.6" lengthAdjust="spacingAndGlyphs" textLength="31.2" x="710.4" y="265.3529">+closeAll()</text><!--MD5=[88cdc1ff0babf321196dd88b9a70f9c4]
reverse link DataHandler to PharmacyRegistration--><path d="M699.48,275.8278 C694.074,278.9112 688.434,281.6886 682.8,283.8 C608.49,311.6394 576.915,271.9968 505.8,307.2 C487.8876,316.0668 472.1238,332.337 461.1666,345.831 " fill="none" id="DataHandler&lt;-PharmacyRegistration" style="stroke: #A80036; stroke-width: 0.6;"/><polygon fill="none" points="697.428,272.157,709.842,269.403,701.856,279.2958,697.428,272.157" style="stroke: #A80036; stroke-width: 0.6;"/><!--MD5=[527120703de7dfffd3117b230a6ddff3]
reverse link DataHandler to ScooterRegistration--><path d="M700.836,277.0374 C679.512,294.1524 652.656,315.7152 630.426,333.5616 " fill="none" id="DataHandler&lt;-ScooterRegistration" style="stroke: #A80036; stroke-width: 0.6;"/><polygon fill="none" points="698.214,273.753,710.202,269.5158,703.476,280.3032,698.214,273.753" style="stroke: #A80036; stroke-width: 0.6;"/><!--MD5=[954f86ea882ac5dcad44771d5b1b4c17]
link RegisterScooterUI to RegisterScooterController--><path d="M111.6,64.8516 C111.6,77.4648 111.6,96.5112 111.6,112.548 " fill="none" id="RegisterScooterUI-&gt;RegisterScooterController" style="stroke: #A80036; stroke-width: 0.6; stroke-dasharray: 7.0,7.0;"/><polygon fill="#A80036" points="111.6,115.7118,114,110.3118,111.6,112.7118,109.2,110.3118,111.6,115.7118" style="stroke: #A80036; stroke-width: 0.6;"/><!--MD5=[2554efbba2da6dcb0c5d97dedc10b799]
link RegisterScooterController to Platform--><path d="M154.9794,169.8894 C167.1738,177.3846 180.4278,185.5782 192.6,193.2 C208.923,203.4216 226.9632,214.9032 242.0262,224.5428 " fill="none" id="RegisterScooterController-&gt;Platform" style="stroke: #A80036; stroke-width: 0.6; stroke-dasharray: 7.0,7.0;"/><polygon fill="#A80036" points="244.6098,226.1964,241.3564,221.2633,242.0833,224.5787,238.768,225.3057,244.6098,226.1964" style="stroke: #A80036; stroke-width: 0.6;"/><!--MD5=[2b5e734699f3079cc966a0817e5e5946]
link RegisterScooterController to ApplicationPOT--><path d="M97.6938,169.8222 C89.427,185.5284 78.9996,205.3404 70.851,220.8228 " fill="none" id="RegisterScooterController-&gt;ApplicationPOT" style="stroke: #A80036; stroke-width: 0.6; stroke-dasharray: 7.0,7.0;"/><polygon fill="#A80036" points="69.357,223.6614,73.9958,220.0006,70.7542,221.0066,69.7482,217.7651,69.357,223.6614" style="stroke: #A80036; stroke-width: 0.6;"/><!--MD5=[d8b0574eccffa1bec6fe4d2aaced6501]
link RegisterScooterController to UserSession--><path d="M121.0254,169.8222 C127.1466,186.9822 135.0162,209.0418 140.7096,225.0024 " fill="none" id="RegisterScooterController-&gt;UserSession" style="stroke: #A80036; stroke-width: 0.6; stroke-dasharray: 7.0,7.0;"/><polygon fill="#A80036" points="141.7464,227.9088,142.1922,222.0163,140.7383,225.0833,137.6713,223.6293,141.7464,227.9088" style="stroke: #A80036; stroke-width: 0.6;"/><!--MD5=[f94ed16b1d761a53d4eba61183b6d758]
link Platform to PharmacyRegistration--><path d="M306.2088,257.9136 C331.5558,267.8298 367.3536,284.475 393,307.2 C405.1116,317.9322 416.9844,331.4706 426.3384,343.0554 " fill="none" id="Platform-&gt;PharmacyRegistration" style="stroke: #A80036; stroke-width: 0.6;"/><polygon fill="#A80036" points="428.4168,345.6486,426.9122,339.934,426.5405,343.3078,423.1668,342.9361,428.4168,345.6486" style="stroke: #A80036; stroke-width: 0.6;"/><text fill="#000000" font-family="sans-serif" font-size="7.8" lengthAdjust="spacingAndGlyphs" textLength="12.6" x="385.2" y="300.2971">has</text><text fill="#000000" font-family="sans-serif" font-size="7.8" lengthAdjust="spacingAndGlyphs" textLength="4.2" x="310.8366" y="257.3622">1</text><text fill="#000000" font-family="sans-serif" font-size="7.8" lengthAdjust="spacingAndGlyphs" textLength="4.2" x="420.9713" y="339.3938">1</text><!--MD5=[10d7a1607bc161c4e7d004457651c20f]
link ScooterRegistration to Scooter--><path d="M534.5286,403.8504 C525.1872,409.1172 515.3802,414.1404 505.8,418.2 C452.6742,440.7138 433.7082,429.7224 380.4,451.8 C377.6796,452.9268 374.9388,454.1274 372.1932,455.3868 " fill="none" id="ScooterRegistration-&gt;Scooter" style="stroke: #A80036; stroke-width: 0.6;"/><polygon fill="#A80036" points="369.4464,456.6654,375.3548,456.5631,372.1663,455.3997,373.3297,452.2112,369.4464,456.6654" style="stroke: #A80036; stroke-width: 0.6;"/><text fill="#000000" font-family="sans-serif" font-size="7.8" lengthAdjust="spacingAndGlyphs" textLength="31.8" x="491.4" y="431.6971">manages</text><text fill="#000000" font-family="sans-serif" font-size="7.8" lengthAdjust="spacingAndGlyphs" textLength="4.2" x="523.629" y="416.8227">1</text><text fill="#000000" font-family="sans-serif" font-size="7.8" lengthAdjust="spacingAndGlyphs" textLength="3" x="374.0683" y="452.1236">*</text><!--MD5=[4a07f137c208f82f57837154e1cfa51e]
link Platform to Pharmacy--><path d="M290.8056,273.732 C301.7838,292.6386 316.5618,318.09 328.0044,337.7964 " fill="none" id="Platform-Pharmacy" style="stroke: #A80036; stroke-width: 0.6;"/><text fill="#000000" font-family="sans-serif" font-size="7.8" lengthAdjust="spacingAndGlyphs" textLength="49.2" x="307.2" y="300.2971">has registered</text><polygon fill="#000000" points="329.1,305.6109,330.9,309.2109,332.7,305.6109,329.1,305.6109" style="stroke: #000000; stroke-width: 0.6;"/><text fill="#000000" font-family="sans-serif" font-size="7.8" lengthAdjust="spacingAndGlyphs" textLength="4.2" x="288.3935" y="286.1539">1</text><text fill="#000000" font-family="sans-serif" font-size="7.8" lengthAdjust="spacingAndGlyphs" textLength="3" x="322.3191" y="331.273">*</text><!--MD5=[423ba1e9b983bd24d1236c4cf89ceca7]
link Platform to Scooter--><path d="M260.169,273.8118 C255.1914,283.9296 250.3014,295.7754 247.8,307.2 C237.2472,355.3914 234.081,370.8126 247.8,418.2 C251.1414,429.7422 256.6806,441.219 262.905,451.7424 " fill="none" id="Platform-Scooter" style="stroke: #A80036; stroke-width: 0.6;"/><text fill="#000000" font-family="sans-serif" font-size="7.8" lengthAdjust="spacingAndGlyphs" textLength="49.2" x="248.4" y="371.9971">has registered</text><polygon fill="#000000" points="270.3,377.3109,272.1,380.9109,273.9,377.3109,270.3,377.3109" style="stroke: #000000; stroke-width: 0.6;"/><text fill="#000000" font-family="sans-serif" font-size="7.8" lengthAdjust="spacingAndGlyphs" textLength="4.2" x="253.6401" y="286.2445">1</text><text fill="#000000" font-family="sans-serif" font-size="7.8" lengthAdjust="spacingAndGlyphs" textLength="3" x="256.3408" y="445.2491">*</text><!--MD5=[cf4f95b832970cfa6e3a3c87e0aa2b32]
link Pharmacy to Scooter--><path d="M334.6272,399.6852 C329.0352,415.1724 322.1082,434.3538 315.8406,451.7112 " fill="none" id="Pharmacy-Scooter" style="stroke: #A80036; stroke-width: 0.6;"/><text fill="#000000" font-family="sans-serif" font-size="7.8" lengthAdjust="spacingAndGlyphs" textLength="12.6" x="325.8" y="431.6971">has</text><polygon fill="#000000" points="329.4,437.0109,331.2,440.6109,333,437.0109,329.4,437.0109" style="stroke: #000000; stroke-width: 0.6;"/><text fill="#000000" font-family="sans-serif" font-size="7.8" lengthAdjust="spacingAndGlyphs" textLength="4.2" x="328.5888" y="412.8149">1</text><text fill="#000000" font-family="sans-serif" font-size="7.8" lengthAdjust="spacingAndGlyphs" textLength="3" x="314.3218" y="445.2149">*</text><!--MD5=[89baec1bfb4a213750f7c61516e0a0f1]
link Pharmacy to Address--><path d="M363.606,399.6852 C374.2908,417.7164 387.9438,440.7546 399.4026,460.092 " fill="none" id="Pharmacy-Address" style="stroke: #A80036; stroke-width: 0.6;"/><text fill="#000000" font-family="sans-serif" font-size="7.8" lengthAdjust="spacingAndGlyphs" textLength="12.6" x="382.2" y="431.6971">has</text><polygon fill="#000000" points="385.8,437.0109,387.6,440.6109,389.4,437.0109,385.8,437.0109" style="stroke: #000000; stroke-width: 0.6;"/><text fill="#000000" font-family="sans-serif" font-size="7.8" lengthAdjust="spacingAndGlyphs" textLength="4.2" x="361.6428" y="412.8149">1</text><text fill="#000000" font-family="sans-serif" font-size="7.8" lengthAdjust="spacingAndGlyphs" textLength="4.2" x="392.4576" y="453.7648">1</text><!--MD5=[ee81a57f532b6a4abbe64d473fba341c]
@startuml
skinparam classAttributeIconSize 0

package "UI" #DDDDDD {
class RegisterScooterUI{

}
}


package "Controller" #DDDDDD {
class RegisterScooterController{
+newScooter(maxWeight, battery,\n batteryCapacity, status, potency, pharmacyId)
+registersScooter()
}

class ApplicationPOT
{
  +static getInstance()
  +getPlatform()
}

class UserSession
{
  +getCurrentSession()
}
}


package "Model" #DDDDDD {
class Platform {
  -String designation
  +gePharmReg()
  +getScootReg()
}
package "Registration" #DDDDDD {
 class PharmacyRegistration{
     +getPharmacyById(pharmacyId)
     +getConnection()
 }

 class ScooterRegistration{
      +newScooter(maxWeight, battery,\n batteryCapacity, status, potency, pharmacyId)
      +create(maxWeight, battery,\n batteryCapacity, status, potency, pharmacyId)
      +validateScooter(scoot)
  }
 }
}

package "Model" #DDDDDD {
class Scooter{
  -int id
  -String battery
  -float battery_capacity
  -String status
  -float potency
  -float maxWeight
  +Scooter(maxWeight, battery,\nbatteryCapacity, status, potency, pharmacyId)

}

class Address{
-String streetName
-String doorNumber
-String locality
-String country
-float longitude
-float latitude
}

class Pharmacy {
  -int id
  -String name
  -int parkingSlots
  -int chargingSlots
}

}


package "Data" #DDDDDD {
class DataHandler{
    +openConnection()
    +closeAll()
}
}

class PharmacyRegistration extends DataHandler
class ScooterRegistration extends DataHandler

RegisterScooterUI ..> RegisterScooterController
RegisterScooterController ..> Platform
RegisterScooterController ..> ApplicationPOT
RegisterScooterController ..> UserSession
Platform "1" - -> "1" PharmacyRegistration : has
ScooterRegistration "1" - -> "*" Scooter : manages

Platform "1" - - "*" Pharmacy : has registered >
Platform "1" - - "*" Scooter : has registered >

Pharmacy "1" - - "*" Scooter : has >
Pharmacy "1" - - "1" Address : has >

@enduml

PlantUML version 1.2020.09(Sun May 10 11:51:06 BST 2020)
(GPL source distribution)
Java Runtime: OpenJDK Runtime Environment
JVM: OpenJDK 64-Bit Server VM
Java Version: 11.0.6+8-b765.40
Operating System: Windows 10
Default Encoding: Cp1252
Language: pt
Country: PT
--></g></svg>