<?xml version="1.0" encoding="UTF-8" standalone="no"?><svg xmlns="http://www.w3.org/2000/svg" xmlns:xlink="http://www.w3.org/1999/xlink" contentScriptType="application/ecmascript" contentStyleType="text/css" height="470px" preserveAspectRatio="none" style="width:431px;height:470px;" version="1.1" viewBox="0 0 431 470" width="431px" zoomAndPan="magnify"><defs><filter height="300%" id="f8zgtkhitu18o" width="300%" x="-1" y="-1"><feGaussianBlur result="blurOut" stdDeviation="2.0"/><feColorMatrix in="blurOut" result="blurOut2" type="matrix" values="0 0 0 0 0 0 0 0 0 0 0 0 0 0 0 0 0 0 .4 0"/><feOffset dx="4.0" dy="4.0" in="blurOut2" result="blurOut3"/><feBlend in="SourceGraphic" in2="blurOut3" mode="normal"/></filter></defs><g><rect fill="#FFFFFF" filter="url(#f8zgtkhitu18o)" height="267.5156" style="stroke:#A80036;stroke-width:1.0;" width="10" x="44.5" y="99.6094"/><rect fill="#FFFFFF" filter="url(#f8zgtkhitu18o)" height="30.3516" style="stroke:#A80036;stroke-width:1.0;" width="10" x="382.5" y="121.9609"/><rect fill="#FFFFFF" filter="url(#f8zgtkhitu18o)" height="63.0547" style="stroke:#A80036;stroke-width:1.0;" width="10" x="382.5" y="182.6641"/><rect fill="#FFFFFF" filter="url(#f8zgtkhitu18o)" height="30.3516" style="stroke:#A80036;stroke-width:1.0;" width="10" x="382.5" y="276.0703"/><rect fill="#FFFFFF" filter="url(#f8zgtkhitu18o)" height="30.3516" style="stroke:#A80036;stroke-width:1.0;" width="10" x="382.5" y="336.7734"/><line style="stroke:#A80036;stroke-width:1.0;stroke-dasharray:5.0,5.0;" x1="49" x2="49" y1="89.6094" y2="385.125"/><line style="stroke:#A80036;stroke-width:1.0;stroke-dasharray:5.0,5.0;" x1="387.5" x2="387.5" y1="89.6094" y2="385.125"/><text fill="#000000" font-family="sans-serif" font-size="14" lengthAdjust="spacing" textLength="83" x="5" y="86.5332">Administrator</text><ellipse cx="49.5" cy="15" fill="#FEFECE" filter="url(#f8zgtkhitu18o)" rx="8" ry="8" style="stroke:#A80036;stroke-width:2.0;"/><path d="M49.5,23 L49.5,50 M36.5,31 L62.5,31 M49.5,50 L36.5,65 M49.5,50 L62.5,65 " fill="none" filter="url(#f8zgtkhitu18o)" style="stroke:#A80036;stroke-width:2.0;"/><text fill="#000000" font-family="sans-serif" font-size="14" lengthAdjust="spacing" textLength="83" x="5" y="398.6582">Administrator</text><ellipse cx="49.5" cy="411.7344" fill="#FEFECE" filter="url(#f8zgtkhitu18o)" rx="8" ry="8" style="stroke:#A80036;stroke-width:2.0;"/><path d="M49.5,419.7344 L49.5,446.7344 M36.5,427.7344 L62.5,427.7344 M49.5,446.7344 L36.5,461.7344 M49.5,446.7344 L62.5,461.7344 " fill="none" filter="url(#f8zgtkhitu18o)" style="stroke:#A80036;stroke-width:2.0;"/><rect fill="#FEFECE" filter="url(#f8zgtkhitu18o)" height="31.6094" style="stroke:#A80036;stroke-width:1.5;" width="64" x="353.5" y="53"/><text fill="#000000" font-family="sans-serif" font-size="14" lengthAdjust="spacing" textLength="50" x="360.5" y="74.5332">:System</text><rect fill="#FEFECE" filter="url(#f8zgtkhitu18o)" height="31.6094" style="stroke:#A80036;stroke-width:1.5;" width="64" x="353.5" y="384.125"/><text fill="#000000" font-family="sans-serif" font-size="14" lengthAdjust="spacing" textLength="50" x="360.5" y="405.6582">:System</text><rect fill="#FFFFFF" filter="url(#f8zgtkhitu18o)" height="267.5156" style="stroke:#A80036;stroke-width:1.0;" width="10" x="44.5" y="99.6094"/><rect fill="#FFFFFF" filter="url(#f8zgtkhitu18o)" height="30.3516" style="stroke:#A80036;stroke-width:1.0;" width="10" x="382.5" y="121.9609"/><rect fill="#FFFFFF" filter="url(#f8zgtkhitu18o)" height="63.0547" style="stroke:#A80036;stroke-width:1.0;" width="10" x="382.5" y="182.6641"/><rect fill="#FFFFFF" filter="url(#f8zgtkhitu18o)" height="30.3516" style="stroke:#A80036;stroke-width:1.0;" width="10" x="382.5" y="276.0703"/><rect fill="#FFFFFF" filter="url(#f8zgtkhitu18o)" height="30.3516" style="stroke:#A80036;stroke-width:1.0;" width="10" x="382.5" y="336.7734"/><polygon fill="#A80036" points="370.5,117.9609,380.5,121.9609,370.5,125.9609,374.5,121.9609" style="stroke:#A80036;stroke-width:1.0;"/><line style="stroke:#A80036;stroke-width:1.0;" x1="54.5" x2="376.5" y1="121.9609" y2="121.9609"/><text fill="#000000" font-family="sans-serif" font-size="13" font-weight="bold" lengthAdjust="spacing" textLength="7" x="61.5" y="117.1045">1</text><text fill="#000000" font-family="sans-serif" font-size="13" lengthAdjust="spacing" textLength="189" x="72.5" y="117.1045">initializes the update of a Courier</text><polygon fill="#A80036" points="65.5,148.3125,55.5,152.3125,65.5,156.3125,61.5,152.3125" style="stroke:#A80036;stroke-width:1.0;"/><line style="stroke:#A80036;stroke-width:1.0;stroke-dasharray:2.0,2.0;" x1="59.5" x2="386.5" y1="152.3125" y2="152.3125"/><text fill="#000000" font-family="sans-serif" font-size="13" font-weight="bold" lengthAdjust="spacing" textLength="7" x="71.5" y="147.4561">2</text><text fill="#000000" font-family="sans-serif" font-size="13" lengthAdjust="spacing" textLength="133" x="82.5" y="147.4561">asks for courier's email</text><polygon fill="#A80036" points="370.5,178.6641,380.5,182.6641,370.5,186.6641,374.5,182.6641" style="stroke:#A80036;stroke-width:1.0;"/><line style="stroke:#A80036;stroke-width:1.0;" x1="54.5" x2="376.5" y1="182.6641" y2="182.6641"/><text fill="#000000" font-family="sans-serif" font-size="13" font-weight="bold" lengthAdjust="spacing" textLength="7" x="61.5" y="177.8076">3</text><text fill="#000000" font-family="sans-serif" font-size="13" lengthAdjust="spacing" textLength="140" x="72.5" y="177.8076">inserts the required data</text><polygon fill="#A80036" points="65.5,241.7188,55.5,245.7188,65.5,249.7188,61.5,245.7188" style="stroke:#A80036;stroke-width:1.0;"/><line style="stroke:#A80036;stroke-width:1.0;stroke-dasharray:2.0,2.0;" x1="59.5" x2="386.5" y1="245.7188" y2="245.7188"/><text fill="#000000" font-family="sans-serif" font-size="13" font-weight="bold" lengthAdjust="spacing" textLength="7" x="71.5" y="224.5107">4</text><text fill="#000000" font-family="sans-serif" font-size="13" lengthAdjust="spacing" textLength="265" x="82.5" y="208.1592">presents the courier info and asks for the data</text><text fill="#000000" font-family="sans-serif" font-size="13" lengthAdjust="spacing" textLength="259" x="86.5" y="224.5107">that features the courier's update (i.e., name,</text><text fill="#000000" font-family="sans-serif" font-size="13" lengthAdjust="spacing" textLength="293" x="82.5" y="240.8623">e-mail, NIF, bank account (IBAN) and pharmacyID)</text><polygon fill="#A80036" points="370.5,272.0703,380.5,276.0703,370.5,280.0703,374.5,276.0703" style="stroke:#A80036;stroke-width:1.0;"/><line style="stroke:#A80036;stroke-width:1.0;" x1="54.5" x2="376.5" y1="276.0703" y2="276.0703"/><text fill="#000000" font-family="sans-serif" font-size="13" font-weight="bold" lengthAdjust="spacing" textLength="7" x="61.5" y="271.2139">5</text><text fill="#000000" font-family="sans-serif" font-size="13" lengthAdjust="spacing" textLength="140" x="72.5" y="271.2139">inserts the required data</text><polygon fill="#A80036" points="65.5,302.4219,55.5,306.4219,65.5,310.4219,61.5,306.4219" style="stroke:#A80036;stroke-width:1.0;"/><line style="stroke:#A80036;stroke-width:1.0;stroke-dasharray:2.0,2.0;" x1="59.5" x2="386.5" y1="306.4219" y2="306.4219"/><text fill="#000000" font-family="sans-serif" font-size="13" font-weight="bold" lengthAdjust="spacing" textLength="7" x="71.5" y="301.5654">6</text><text fill="#000000" font-family="sans-serif" font-size="13" lengthAdjust="spacing" textLength="120" x="82.5" y="301.5654">asks for confirmation</text><polygon fill="#A80036" points="370.5,332.7734,380.5,336.7734,370.5,340.7734,374.5,336.7734" style="stroke:#A80036;stroke-width:1.0;"/><line style="stroke:#A80036;stroke-width:1.0;" x1="54.5" x2="376.5" y1="336.7734" y2="336.7734"/><text fill="#000000" font-family="sans-serif" font-size="13" font-weight="bold" lengthAdjust="spacing" textLength="7" x="61.5" y="331.917">7</text><text fill="#000000" font-family="sans-serif" font-size="13" lengthAdjust="spacing" textLength="49" x="72.5" y="331.917">confirms</text><polygon fill="#A80036" points="60.5,363.125,50.5,367.125,60.5,371.125,56.5,367.125" style="stroke:#A80036;stroke-width:1.0;"/><line style="stroke:#A80036;stroke-width:1.0;stroke-dasharray:2.0,2.0;" x1="54.5" x2="386.5" y1="367.125" y2="367.125"/><text fill="#000000" font-family="sans-serif" font-size="13" font-weight="bold" lengthAdjust="spacing" textLength="7" x="66.5" y="362.2686">8</text><text fill="#000000" font-family="sans-serif" font-size="13" lengthAdjust="spacing" textLength="224" x="77.5" y="362.2686">informs of the success of the operation</text><!--MD5=[4f4404b544c263c9e687d7fbef2b9948]
@startuml
autonumber
actor "Administrator" as ADM

activate ADM
ADM -> ":System" : initializes the update of a Courier
activate ":System"
":System" - -> ADM : asks for courier's email
deactivate ":System"


ADM -> ":System" : inserts the required data
activate ":System"
":System" - -> ADM : presents the courier info and asks for the data\n that features the courier's update (i.e., name, \ne-mail, NIF, bank account (IBAN) and pharmacyID)
deactivate ":System"

ADM -> ":System" : inserts the required data
activate ":System"
":System" - -> ADM : asks for confirmation
deactivate ":System"

ADM -> ":System" : confirms
activate ":System"
":System" - -> ADM : informs of the success of the operation
deactivate ":System"
deactivate ADM
@enduml

PlantUML version 1.2021.00(Sun Jan 10 10:25:05 GMT 2021)
(GPL source distribution)
Java Runtime: OpenJDK Runtime Environment
JVM: OpenJDK 64-Bit Server VM
Default Encoding: Cp1252
Language: pt
Country: PT
--></g></svg>