<?xml version="1.0" encoding="UTF-8" standalone="no"?><svg xmlns="http://www.w3.org/2000/svg" xmlns:xlink="http://www.w3.org/1999/xlink" contentScriptType="application/ecmascript" contentStyleType="text/css" height="946px" preserveAspectRatio="none" style="width:1445px;height:946px;" version="1.1" viewBox="0 0 1445 946" width="1445px" zoomAndPan="magnify"><defs><filter height="300%" id="f1be9s2t2cgyae" width="300%" x="-1" y="-1"><feGaussianBlur result="blurOut" stdDeviation="2.0"/><feColorMatrix in="blurOut" result="blurOut2" type="matrix" values="0 0 0 0 0 0 0 0 0 0 0 0 0 0 0 0 0 0 .4 0"/><feOffset dx="4.0" dy="4.0" in="blurOut2" result="blurOut3"/><feBlend in="SourceGraphic" in2="blurOut3" mode="normal"/></filter></defs><g><!--MD5=[9681dc6e01e10c6b4fe06895ae94f592]
cluster UI--><polygon fill="#DDDDDD" filter="url(#f1be9s2t2cgyae)" points="94,6,114,6,121,29.6094,252,29.6094,252,126,94,126,94,6" style="stroke:#000000;stroke-width:1.5;"/><line style="stroke:#000000;stroke-width:1.5;" x1="94" x2="121" y1="29.6094" y2="29.6094"/><text fill="#000000" font-family="sans-serif" font-size="14" font-weight="bold" lengthAdjust="spacing" textLength="14" x="98" y="22.5332">UI</text><!--MD5=[1f2cfc53d9d308f53762fd0fcbaa4873]
cluster Controller--><polygon fill="#DDDDDD" filter="url(#f1be9s2t2cgyae)" points="16,159,93,159,100,182.6094,330,182.6094,330,574,16,574,16,159" style="stroke:#000000;stroke-width:1.5;"/><line style="stroke:#000000;stroke-width:1.5;" x1="16" x2="100" y1="182.6094" y2="182.6094"/><text fill="#000000" font-family="sans-serif" font-size="14" font-weight="bold" lengthAdjust="spacing" textLength="71" x="20" y="175.5332">Controller</text><!--MD5=[15636c1ca4a123c16a2a1a8e90aca7a9]
cluster Model--><polygon fill="#DDDDDD" filter="url(#f1be9s2t2cgyae)" points="354,382,404,382,411,405.6094,1027,405.6094,1027,939,354,939,354,382" style="stroke:#000000;stroke-width:1.5;"/><line style="stroke:#000000;stroke-width:1.5;" x1="354" x2="411" y1="405.6094" y2="405.6094"/><text fill="#000000" font-family="sans-serif" font-size="14" font-weight="bold" lengthAdjust="spacing" textLength="44" x="358" y="398.5332">Model</text><!--MD5=[9dd75fd92da113d30380b27734fd2f01]
cluster Service--><polygon fill="#DDDDDD" filter="url(#f1be9s2t2cgyae)" points="494,426,554,426,561,449.6094,1003,449.6094,1003,588,494,588,494,426" style="stroke:#000000;stroke-width:1.5;"/><line style="stroke:#000000;stroke-width:1.5;" x1="494" x2="561" y1="449.6094" y2="449.6094"/><text fill="#000000" font-family="sans-serif" font-size="14" font-weight="bold" lengthAdjust="spacing" textLength="54" x="498" y="442.5332">Service</text><!--MD5=[f21b1f164e99c6b37934f23ad048ad54]
cluster Data--><polygon fill="#DDDDDD" filter="url(#f1be9s2t2cgyae)" points="1051,172.5,1088,172.5,1095,196.1094,1428,196.1094,1428,581,1051,581,1051,172.5" style="stroke:#000000;stroke-width:1.5;"/><line style="stroke:#000000;stroke-width:1.5;" x1="1051" x2="1095" y1="196.1094" y2="196.1094"/><text fill="#000000" font-family="sans-serif" font-size="14" font-weight="bold" lengthAdjust="spacing" textLength="31" x="1055" y="189.0332">Data</text><!--MD5=[3926f557f6a7a1e345ea8c452795a2eb]
class UpdateCourierUI--><rect codeLine="4" fill="#FEFECE" filter="url(#f1be9s2t2cgyae)" height="48" id="UpdateCourierUI" style="stroke:#A80036;stroke-width:1.5;" width="125" x="110.5" y="62"/><ellipse cx="125.5" cy="78" fill="#ADD1B2" rx="11" ry="11" style="stroke:#A80036;stroke-width:1.0;"/><path d="M127.5,74.5 Q127.7031,74 127.9375,73.75 Q128.1719,73.5 128.4375,73.5 Q128.9063,73.5 129.2031,73.7813 Q129.5,74.0625 129.5,74.7188 L129.5,76.2813 Q129.5,76.9375 129.2188,77.2188 Q128.9375,77.5 128.5,77.5 Q128.1094,77.5 127.8594,77.3281 Q127.6094,77.1563 127.5,76.7031 Q127.4531,76.3906 127.2813,76.2188 Q126.9688,75.8906 126.4063,75.7031 Q125.8438,75.5 125.2813,75.5 Q124.5781,75.5 123.9844,75.7813 Q123.4063,76.0625 122.9531,76.6875 Q122.5,77.3125 122.5,78.1719 L122.5,79.0938 Q122.5,80.125 123.3438,80.8125 Q124.1875,81.5 125.6875,81.5 Q126.5781,81.5 127.2031,81.2969 Q127.5625,81.1875 127.9688,80.8281 Q128.2344,80.625 128.375,80.5625 Q128.5156,80.5 128.6875,80.5 Q129.0156,80.5 129.25,80.7656 Q129.5,81.0156 129.5,81.375 Q129.5,81.7188 129.1563,82.125 Q128.6563,82.7188 127.8594,83.0469 Q126.8125,83.5 125.5313,83.5 Q124.0313,83.5 122.8281,82.9063 Q121.8594,82.4375 121.1719,81.4219 Q120.5,80.4063 120.5,79.2031 L120.5,78.1094 Q120.5,76.8594 121.0938,75.7656 Q121.7031,74.6719 122.75,74.0938 Q123.8125,73.5 125,73.5 Q125.7188,73.5 126.3438,73.75 Q126.9688,74 127.5,74.5 Z " fill="#000000"/><text fill="#000000" font-family="sans-serif" font-size="12" lengthAdjust="spacing" textLength="93" x="139.5" y="82.9102">UpdateCourierUI</text><line style="stroke:#A80036;stroke-width:1.5;" x1="111.5" x2="234.5" y1="94" y2="94"/><line style="stroke:#A80036;stroke-width:1.5;" x1="111.5" x2="234.5" y1="102" y2="102"/><!--MD5=[162791922a04a37ba548caadcbdc9a6b]
class UpdateCourierController--><rect codeLine="9" fill="#FEFECE" filter="url(#f1be9s2t2cgyae)" height="103.3438" id="UpdateCourierController" style="stroke:#A80036;stroke-width:1.5;" width="282" x="32" y="215"/><ellipse cx="101.25" cy="231" fill="#ADD1B2" rx="11" ry="11" style="stroke:#A80036;stroke-width:1.0;"/><path d="M103.25,227.5 Q103.4531,227 103.6875,226.75 Q103.9219,226.5 104.1875,226.5 Q104.6563,226.5 104.9531,226.7813 Q105.25,227.0625 105.25,227.7188 L105.25,229.2813 Q105.25,229.9375 104.9688,230.2188 Q104.6875,230.5 104.25,230.5 Q103.8594,230.5 103.6094,230.3281 Q103.3594,230.1563 103.25,229.7031 Q103.2031,229.3906 103.0313,229.2188 Q102.7188,228.8906 102.1563,228.7031 Q101.5938,228.5 101.0313,228.5 Q100.3281,228.5 99.7344,228.7813 Q99.1563,229.0625 98.7031,229.6875 Q98.25,230.3125 98.25,231.1719 L98.25,232.0938 Q98.25,233.125 99.0938,233.8125 Q99.9375,234.5 101.4375,234.5 Q102.3281,234.5 102.9531,234.2969 Q103.3125,234.1875 103.7188,233.8281 Q103.9844,233.625 104.125,233.5625 Q104.2656,233.5 104.4375,233.5 Q104.7656,233.5 105,233.7656 Q105.25,234.0156 105.25,234.375 Q105.25,234.7188 104.9063,235.125 Q104.4063,235.7188 103.6094,236.0469 Q102.5625,236.5 101.2813,236.5 Q99.7813,236.5 98.5781,235.9063 Q97.6094,235.4375 96.9219,234.4219 Q96.25,233.4063 96.25,232.2031 L96.25,231.1094 Q96.25,229.8594 96.8438,228.7656 Q97.4531,227.6719 98.5,227.0938 Q99.5625,226.5 100.75,226.5 Q101.4688,226.5 102.0938,226.75 Q102.7188,227 103.25,227.5 Z " fill="#000000"/><text fill="#000000" font-family="sans-serif" font-size="12" lengthAdjust="spacing" textLength="135" x="121.75" y="235.9102">UpdateCourierController</text><line style="stroke:#A80036;stroke-width:1.5;" x1="33" x2="313" y1="247" y2="247"/><line style="stroke:#A80036;stroke-width:1.5;" x1="33" x2="313" y1="255" y2="255"/><text fill="#000000" font-family="sans-serif" font-size="11" lengthAdjust="spacing" textLength="125" x="38" y="270.4189">+getCourierByEmail(email)</text><text fill="#000000" font-family="sans-serif" font-size="11" lengthAdjust="spacing" textLength="270" x="38" y="284.2549">+updateCourier(courier,name,email,nif,iban,pharmacyID)</text><text fill="#000000" font-family="sans-serif" font-size="11" lengthAdjust="spacing" textLength="130" x="38" y="298.0908">+updateCourierDB(courier)</text><text fill="#000000" font-family="sans-serif" font-size="11" lengthAdjust="spacing" textLength="98" x="38" y="311.9268">+validateInput(email)</text><!--MD5=[e45a4727c47b726c25e081782e8bc183]
class ApplicationPOT--><rect codeLine="16" fill="#FEFECE" filter="url(#f1be9s2t2cgyae)" height="61.8359" id="ApplicationPOT" style="stroke:#A80036;stroke-width:1.5;" width="116" x="115" y="496"/><ellipse cx="130" cy="512" fill="#ADD1B2" rx="11" ry="11" style="stroke:#A80036;stroke-width:1.0;"/><path d="M132,508.5 Q132.2031,508 132.4375,507.75 Q132.6719,507.5 132.9375,507.5 Q133.4063,507.5 133.7031,507.7813 Q134,508.0625 134,508.7188 L134,510.2813 Q134,510.9375 133.7188,511.2188 Q133.4375,511.5 133,511.5 Q132.6094,511.5 132.3594,511.3281 Q132.1094,511.1563 132,510.7031 Q131.9531,510.3906 131.7813,510.2188 Q131.4688,509.8906 130.9063,509.7031 Q130.3438,509.5 129.7813,509.5 Q129.0781,509.5 128.4844,509.7813 Q127.9063,510.0625 127.4531,510.6875 Q127,511.3125 127,512.1719 L127,513.0938 Q127,514.125 127.8438,514.8125 Q128.6875,515.5 130.1875,515.5 Q131.0781,515.5 131.7031,515.2969 Q132.0625,515.1875 132.4688,514.8281 Q132.7344,514.625 132.875,514.5625 Q133.0156,514.5 133.1875,514.5 Q133.5156,514.5 133.75,514.7656 Q134,515.0156 134,515.375 Q134,515.7188 133.6563,516.125 Q133.1563,516.7188 132.3594,517.0469 Q131.3125,517.5 130.0313,517.5 Q128.5313,517.5 127.3281,516.9063 Q126.3594,516.4375 125.6719,515.4219 Q125,514.4063 125,513.2031 L125,512.1094 Q125,510.8594 125.5938,509.7656 Q126.2031,508.6719 127.25,508.0938 Q128.3125,507.5 129.5,507.5 Q130.2188,507.5 130.8438,507.75 Q131.4688,508 132,508.5 Z " fill="#000000"/><text fill="#000000" font-family="sans-serif" font-size="12" lengthAdjust="spacing" textLength="84" x="144" y="516.9102">ApplicationPOT</text><line style="stroke:#A80036;stroke-width:1.5;" x1="116" x2="230" y1="528" y2="528"/><line style="stroke:#A80036;stroke-width:1.5;" x1="116" x2="230" y1="536" y2="536"/><text fill="#000000" font-family="sans-serif" font-size="11" lengthAdjust="spacing" textLength="99" x="121" y="551.4189">+static getInstance()</text><!--MD5=[3fd616f346a44cd59a91eb10b19e157c]
class User--><rect codeLine="38" fill="#FEFECE" filter="url(#f1be9s2t2cgyae)" height="117.1797" id="User" style="stroke:#A80036;stroke-width:1.5;" width="97" x="417.5" y="806"/><ellipse cx="450.05" cy="822" fill="#A9DCDF" rx="11" ry="11" style="stroke:#A80036;stroke-width:1.0;"/><path d="M451.8,823.5 L448.5031,823.5 L448.0656,824.5 L448.0656,824.5 L448.5344,824.5 L449.05,825.125 L449.05,825.5 L449.05,825.875 L448.5344,826.5 L448.0656,826.5 L446.175,826.5 L445.5656,826.5 L445.05,825.875 L445.05,825.5 L445.05,825.125 L445.5656,824.5 L446.175,824.5 L448.4875,818.5 L447.6125,818.5 L446.5656,818.5 L446.05,817.875 L446.05,817.5 L446.05,817.125 L446.5656,816.5 L447.6125,816.5 L451.2844,816.5 L453.9719,824.5 L454.5344,824.5 L454.5344,824.5 L455.05,825.125 L455.05,825.5 L455.05,825.875 L454.5344,826.5 L453.9719,826.5 L452.0813,826.5 L451.5656,826.5 L451.05,825.875 L451.05,825.5 L451.05,825.125 L451.5656,824.5 L452.0813,824.5 L452.0813,824.5 L451.8,823.5 Z M451.2531,821.5 L450.05,817.9219 L449.0188,821.5 L451.2531,821.5 Z " fill="#000000"/><text fill="#000000" font-family="sans-serif" font-size="12" font-style="italic" lengthAdjust="spacing" textLength="26" x="467.95" y="826.9102">User</text><line style="stroke:#A80036;stroke-width:1.5;" x1="418.5" x2="513.5" y1="838" y2="838"/><text fill="#000000" font-family="sans-serif" font-size="11" lengthAdjust="spacing" textLength="48" x="423.5" y="853.4189">-Integer Id</text><text fill="#000000" font-family="sans-serif" font-size="11" lengthAdjust="spacing" textLength="59" x="423.5" y="867.2549">-String email</text><text fill="#000000" font-family="sans-serif" font-size="11" lengthAdjust="spacing" textLength="85" x="423.5" y="881.0908">-String password</text><text fill="#000000" font-family="sans-serif" font-size="11" lengthAdjust="spacing" textLength="61" x="423.5" y="894.9268">-String name</text><text fill="#000000" font-family="sans-serif" font-size="11" lengthAdjust="spacing" textLength="52" x="423.5" y="908.7627">-Integer nif</text><line style="stroke:#A80036;stroke-width:1.5;" x1="418.5" x2="513.5" y1="915.1797" y2="915.1797"/><!--MD5=[c6a2171c11447acbe08a3dfeee0e1710]
class Courier--><rect codeLine="46" fill="#FEFECE" filter="url(#f1be9s2t2cgyae)" height="75.6719" id="Courier" style="stroke:#A80036;stroke-width:1.5;" width="73" x="516.5" y="652"/><ellipse cx="531.5" cy="668" fill="#ADD1B2" rx="11" ry="11" style="stroke:#A80036;stroke-width:1.0;"/><path d="M533.5,664.5 Q533.7031,664 533.9375,663.75 Q534.1719,663.5 534.4375,663.5 Q534.9063,663.5 535.2031,663.7813 Q535.5,664.0625 535.5,664.7188 L535.5,666.2813 Q535.5,666.9375 535.2188,667.2188 Q534.9375,667.5 534.5,667.5 Q534.1094,667.5 533.8594,667.3281 Q533.6094,667.1563 533.5,666.7031 Q533.4531,666.3906 533.2813,666.2188 Q532.9688,665.8906 532.4063,665.7031 Q531.8438,665.5 531.2813,665.5 Q530.5781,665.5 529.9844,665.7813 Q529.4063,666.0625 528.9531,666.6875 Q528.5,667.3125 528.5,668.1719 L528.5,669.0938 Q528.5,670.125 529.3438,670.8125 Q530.1875,671.5 531.6875,671.5 Q532.5781,671.5 533.2031,671.2969 Q533.5625,671.1875 533.9688,670.8281 Q534.2344,670.625 534.375,670.5625 Q534.5156,670.5 534.6875,670.5 Q535.0156,670.5 535.25,670.7656 Q535.5,671.0156 535.5,671.375 Q535.5,671.7188 535.1563,672.125 Q534.6563,672.7188 533.8594,673.0469 Q532.8125,673.5 531.5313,673.5 Q530.0313,673.5 528.8281,672.9063 Q527.8594,672.4375 527.1719,671.4219 Q526.5,670.4063 526.5,669.2031 L526.5,668.1094 Q526.5,666.8594 527.0938,665.7656 Q527.7031,664.6719 528.75,664.0938 Q529.8125,663.5 531,663.5 Q531.7188,663.5 532.3438,663.75 Q532.9688,664 533.5,664.5 Z " fill="#000000"/><text fill="#000000" font-family="sans-serif" font-size="12" lengthAdjust="spacing" textLength="41" x="545.5" y="672.9102">Courier</text><line style="stroke:#A80036;stroke-width:1.5;" x1="517.5" x2="588.5" y1="684" y2="684"/><text fill="#000000" font-family="sans-serif" font-size="11" lengthAdjust="spacing" textLength="48" x="522.5" y="699.4189">-Integer id</text><text fill="#000000" font-family="sans-serif" font-size="11" lengthAdjust="spacing" textLength="55" x="522.5" y="713.2549">-String iban</text><line style="stroke:#A80036;stroke-width:1.5;" x1="517.5" x2="588.5" y1="719.6719" y2="719.6719"/><!--MD5=[da547346deef918ea16944ba046651ef]
class Administrator--><rect codeLine="51" fill="#FEFECE" filter="url(#f1be9s2t2cgyae)" height="48" id="Administrator" style="stroke:#A80036;stroke-width:1.5;" width="105" x="370.5" y="503"/><ellipse cx="385.5" cy="519" fill="#ADD1B2" rx="11" ry="11" style="stroke:#A80036;stroke-width:1.0;"/><path d="M387.5,515.5 Q387.7031,515 387.9375,514.75 Q388.1719,514.5 388.4375,514.5 Q388.9063,514.5 389.2031,514.7813 Q389.5,515.0625 389.5,515.7188 L389.5,517.2813 Q389.5,517.9375 389.2188,518.2188 Q388.9375,518.5 388.5,518.5 Q388.1094,518.5 387.8594,518.3281 Q387.6094,518.1563 387.5,517.7031 Q387.4531,517.3906 387.2813,517.2188 Q386.9688,516.8906 386.4063,516.7031 Q385.8438,516.5 385.2813,516.5 Q384.5781,516.5 383.9844,516.7813 Q383.4063,517.0625 382.9531,517.6875 Q382.5,518.3125 382.5,519.1719 L382.5,520.0938 Q382.5,521.125 383.3438,521.8125 Q384.1875,522.5 385.6875,522.5 Q386.5781,522.5 387.2031,522.2969 Q387.5625,522.1875 387.9688,521.8281 Q388.2344,521.625 388.375,521.5625 Q388.5156,521.5 388.6875,521.5 Q389.0156,521.5 389.25,521.7656 Q389.5,522.0156 389.5,522.375 Q389.5,522.7188 389.1563,523.125 Q388.6563,523.7188 387.8594,524.0469 Q386.8125,524.5 385.5313,524.5 Q384.0313,524.5 382.8281,523.9063 Q381.8594,523.4375 381.1719,522.4219 Q380.5,521.4063 380.5,520.2031 L380.5,519.1094 Q380.5,517.8594 381.0938,516.7656 Q381.7031,515.6719 382.75,515.0938 Q383.8125,514.5 385,514.5 Q385.7188,514.5 386.3438,514.75 Q386.9688,515 387.5,515.5 Z " fill="#000000"/><text fill="#000000" font-family="sans-serif" font-size="12" lengthAdjust="spacing" textLength="73" x="399.5" y="523.9102">Administrator</text><line style="stroke:#A80036;stroke-width:1.5;" x1="371.5" x2="474.5" y1="535" y2="535"/><line style="stroke:#A80036;stroke-width:1.5;" x1="371.5" x2="474.5" y1="543" y2="543"/><!--MD5=[7f2a9fafcebe4f099f71398fd3e2ed00]
class Pharmacy--><rect codeLine="55" fill="#FEFECE" filter="url(#f1be9s2t2cgyae)" height="75.6719" id="Pharmacy" style="stroke:#A80036;stroke-width:1.5;" width="87" x="688.5" y="826.5"/><ellipse cx="703.5" cy="842.5" fill="#ADD1B2" rx="11" ry="11" style="stroke:#A80036;stroke-width:1.0;"/><path d="M705.5,839 Q705.7031,838.5 705.9375,838.25 Q706.1719,838 706.4375,838 Q706.9063,838 707.2031,838.2813 Q707.5,838.5625 707.5,839.2188 L707.5,840.7813 Q707.5,841.4375 707.2188,841.7188 Q706.9375,842 706.5,842 Q706.1094,842 705.8594,841.8281 Q705.6094,841.6563 705.5,841.2031 Q705.4531,840.8906 705.2813,840.7188 Q704.9688,840.3906 704.4063,840.2031 Q703.8438,840 703.2813,840 Q702.5781,840 701.9844,840.2813 Q701.4063,840.5625 700.9531,841.1875 Q700.5,841.8125 700.5,842.6719 L700.5,843.5938 Q700.5,844.625 701.3438,845.3125 Q702.1875,846 703.6875,846 Q704.5781,846 705.2031,845.7969 Q705.5625,845.6875 705.9688,845.3281 Q706.2344,845.125 706.375,845.0625 Q706.5156,845 706.6875,845 Q707.0156,845 707.25,845.2656 Q707.5,845.5156 707.5,845.875 Q707.5,846.2188 707.1563,846.625 Q706.6563,847.2188 705.8594,847.5469 Q704.8125,848 703.5313,848 Q702.0313,848 700.8281,847.4063 Q699.8594,846.9375 699.1719,845.9219 Q698.5,844.9063 698.5,843.7031 L698.5,842.6094 Q698.5,841.3594 699.0938,840.2656 Q699.7031,839.1719 700.75,838.5938 Q701.8125,838 703,838 Q703.7188,838 704.3438,838.25 Q704.9688,838.5 705.5,839 Z " fill="#000000"/><text fill="#000000" font-family="sans-serif" font-size="12" lengthAdjust="spacing" textLength="55" x="717.5" y="847.4102">Pharmacy</text><line style="stroke:#A80036;stroke-width:1.5;" x1="689.5" x2="774.5" y1="858.5" y2="858.5"/><text fill="#000000" font-family="sans-serif" font-size="11" lengthAdjust="spacing" textLength="26" x="694.5" y="873.9189">-int id</text><text fill="#000000" font-family="sans-serif" font-size="11" lengthAdjust="spacing" textLength="61" x="694.5" y="887.7549">-String name</text><line style="stroke:#A80036;stroke-width:1.5;" x1="689.5" x2="774.5" y1="894.1719" y2="894.1719"/><!--MD5=[3b6a694fa07a791a99958c0d423d4693]
class CourierService--><rect codeLine="25" fill="#FEFECE" filter="url(#f1be9s2t2cgyae)" height="89.5078" id="CourierService" style="stroke:#A80036;stroke-width:1.5;" width="273" x="510.5" y="482"/><ellipse cx="602.25" cy="498" fill="#ADD1B2" rx="11" ry="11" style="stroke:#A80036;stroke-width:1.0;"/><path d="M604.25,494.5 Q604.4531,494 604.6875,493.75 Q604.9219,493.5 605.1875,493.5 Q605.6563,493.5 605.9531,493.7813 Q606.25,494.0625 606.25,494.7188 L606.25,496.2813 Q606.25,496.9375 605.9688,497.2188 Q605.6875,497.5 605.25,497.5 Q604.8594,497.5 604.6094,497.3281 Q604.3594,497.1563 604.25,496.7031 Q604.2031,496.3906 604.0313,496.2188 Q603.7188,495.8906 603.1563,495.7031 Q602.5938,495.5 602.0313,495.5 Q601.3281,495.5 600.7344,495.7813 Q600.1563,496.0625 599.7031,496.6875 Q599.25,497.3125 599.25,498.1719 L599.25,499.0938 Q599.25,500.125 600.0938,500.8125 Q600.9375,501.5 602.4375,501.5 Q603.3281,501.5 603.9531,501.2969 Q604.3125,501.1875 604.7188,500.8281 Q604.9844,500.625 605.125,500.5625 Q605.2656,500.5 605.4375,500.5 Q605.7656,500.5 606,500.7656 Q606.25,501.0156 606.25,501.375 Q606.25,501.7188 605.9063,502.125 Q605.4063,502.7188 604.6094,503.0469 Q603.5625,503.5 602.2813,503.5 Q600.7813,503.5 599.5781,502.9063 Q598.6094,502.4375 597.9219,501.4219 Q597.25,500.4063 597.25,499.2031 L597.25,498.1094 Q597.25,496.8594 597.8438,495.7656 Q598.4531,494.6719 599.5,494.0938 Q600.5625,493.5 601.75,493.5 Q602.4688,493.5 603.0938,493.75 Q603.7188,494 604.25,494.5 Z " fill="#000000"/><text fill="#000000" font-family="sans-serif" font-size="12" lengthAdjust="spacing" textLength="81" x="622.75" y="502.9102">CourierService</text><line style="stroke:#A80036;stroke-width:1.5;" x1="511.5" x2="782.5" y1="514" y2="514"/><line style="stroke:#A80036;stroke-width:1.5;" x1="511.5" x2="782.5" y1="522" y2="522"/><text fill="#000000" font-family="sans-serif" font-size="11" lengthAdjust="spacing" textLength="125" x="516.5" y="537.4189">+getCourierByEmail(email)</text><text fill="#000000" font-family="sans-serif" font-size="11" lengthAdjust="spacing" textLength="261" x="516.5" y="551.2549">+updateCourier(courier,name,email,nif,iban,pharmacy)</text><text fill="#000000" font-family="sans-serif" font-size="11" lengthAdjust="spacing" textLength="130" x="516.5" y="565.0908">+updateCourierDB(courier)</text><!--MD5=[28160fdc0be430cd6f04db15a7547552]
class PharmacyService--><rect codeLine="31" fill="#FEFECE" filter="url(#f1be9s2t2cgyae)" height="61.8359" id="PharmacyService" style="stroke:#A80036;stroke-width:1.5;" width="168" x="819" y="496"/><ellipse cx="852.45" cy="512" fill="#ADD1B2" rx="11" ry="11" style="stroke:#A80036;stroke-width:1.0;"/><path d="M854.45,508.5 Q854.6531,508 854.8875,507.75 Q855.1219,507.5 855.3875,507.5 Q855.8563,507.5 856.1531,507.7813 Q856.45,508.0625 856.45,508.7188 L856.45,510.2813 Q856.45,510.9375 856.1688,511.2188 Q855.8875,511.5 855.45,511.5 Q855.0594,511.5 854.8094,511.3281 Q854.5594,511.1563 854.45,510.7031 Q854.4031,510.3906 854.2313,510.2188 Q853.9188,509.8906 853.3563,509.7031 Q852.7938,509.5 852.2313,509.5 Q851.5281,509.5 850.9344,509.7813 Q850.3563,510.0625 849.9031,510.6875 Q849.45,511.3125 849.45,512.1719 L849.45,513.0938 Q849.45,514.125 850.2938,514.8125 Q851.1375,515.5 852.6375,515.5 Q853.5281,515.5 854.1531,515.2969 Q854.5125,515.1875 854.9188,514.8281 Q855.1844,514.625 855.325,514.5625 Q855.4656,514.5 855.6375,514.5 Q855.9656,514.5 856.2,514.7656 Q856.45,515.0156 856.45,515.375 Q856.45,515.7188 856.1063,516.125 Q855.6063,516.7188 854.8094,517.0469 Q853.7625,517.5 852.4813,517.5 Q850.9813,517.5 849.7781,516.9063 Q848.8094,516.4375 848.1219,515.4219 Q847.45,514.4063 847.45,513.2031 L847.45,512.1094 Q847.45,510.8594 848.0438,509.7656 Q848.6531,508.6719 849.7,508.0938 Q850.7625,507.5 851.95,507.5 Q852.6688,507.5 853.2938,507.75 Q853.9188,508 854.45,508.5 Z " fill="#000000"/><text fill="#000000" font-family="sans-serif" font-size="12" lengthAdjust="spacing" textLength="95" x="870.55" y="516.9102">PharmacyService</text><line style="stroke:#A80036;stroke-width:1.5;" x1="820" x2="986" y1="528" y2="528"/><line style="stroke:#A80036;stroke-width:1.5;" x1="820" x2="986" y1="536" y2="536"/><text fill="#000000" font-family="sans-serif" font-size="11" lengthAdjust="spacing" textLength="156" x="825" y="551.4189">+getPharmacyByID(pharmacyID)</text><!--MD5=[4b2d61224b33971326a22fe5d809d926]
class DataHandler--><rect codeLine="64" fill="#FEFECE" filter="url(#f1be9s2t2cgyae)" height="75.6719" id="DataHandler" style="stroke:#A80036;stroke-width:1.5;" width="104" x="1181" y="228.5"/><ellipse cx="1196.9" cy="244.5" fill="#ADD1B2" rx="11" ry="11" style="stroke:#A80036;stroke-width:1.0;"/><path d="M1198.9,241 Q1199.1031,240.5 1199.3375,240.25 Q1199.5719,240 1199.8375,240 Q1200.3063,240 1200.6031,240.2813 Q1200.9,240.5625 1200.9,241.2188 L1200.9,242.7813 Q1200.9,243.4375 1200.6188,243.7188 Q1200.3375,244 1199.9,244 Q1199.5094,244 1199.2594,243.8281 Q1199.0094,243.6563 1198.9,243.2031 Q1198.8531,242.8906 1198.6813,242.7188 Q1198.3688,242.3906 1197.8063,242.2031 Q1197.2438,242 1196.6813,242 Q1195.9781,242 1195.3844,242.2813 Q1194.8063,242.5625 1194.3531,243.1875 Q1193.9,243.8125 1193.9,244.6719 L1193.9,245.5938 Q1193.9,246.625 1194.7438,247.3125 Q1195.5875,248 1197.0875,248 Q1197.9781,248 1198.6031,247.7969 Q1198.9625,247.6875 1199.3688,247.3281 Q1199.6344,247.125 1199.775,247.0625 Q1199.9156,247 1200.0875,247 Q1200.4156,247 1200.65,247.2656 Q1200.9,247.5156 1200.9,247.875 Q1200.9,248.2188 1200.5563,248.625 Q1200.0563,249.2188 1199.2594,249.5469 Q1198.2125,250 1196.9313,250 Q1195.4313,250 1194.2281,249.4063 Q1193.2594,248.9375 1192.5719,247.9219 Q1191.9,246.9063 1191.9,245.7031 L1191.9,244.6094 Q1191.9,243.3594 1192.4938,242.2656 Q1193.1031,241.1719 1194.15,240.5938 Q1195.2125,240 1196.4,240 Q1197.1188,240 1197.7438,240.25 Q1198.3688,240.5 1198.9,241 Z " fill="#000000"/><text fill="#000000" font-family="sans-serif" font-size="12" lengthAdjust="spacing" textLength="70" x="1211.1" y="249.4102">DataHandler</text><line style="stroke:#A80036;stroke-width:1.5;" x1="1182" x2="1284" y1="260.5" y2="260.5"/><line style="stroke:#A80036;stroke-width:1.5;" x1="1182" x2="1284" y1="268.5" y2="268.5"/><text fill="#000000" font-family="sans-serif" font-size="11" lengthAdjust="spacing" textLength="92" x="1187" y="283.9189">+openConnection()</text><text fill="#000000" font-family="sans-serif" font-size="11" lengthAdjust="spacing" textLength="52" x="1187" y="297.7549">+closeAll()</text><!--MD5=[17a3ebf5611c1ba9c6fd429f5d0d77a4]
class CourierDB--><rect codeLine="81" fill="#FEFECE" filter="url(#f1be9s2t2cgyae)" height="75.6719" id="CourierDB" style="stroke:#A80036;stroke-width:1.5;" width="142" x="1067" y="489"/><ellipse cx="1105.4" cy="505" fill="#ADD1B2" rx="11" ry="11" style="stroke:#A80036;stroke-width:1.0;"/><path d="M1107.4,501.5 Q1107.6031,501 1107.8375,500.75 Q1108.0719,500.5 1108.3375,500.5 Q1108.8063,500.5 1109.1031,500.7813 Q1109.4,501.0625 1109.4,501.7188 L1109.4,503.2813 Q1109.4,503.9375 1109.1188,504.2188 Q1108.8375,504.5 1108.4,504.5 Q1108.0094,504.5 1107.7594,504.3281 Q1107.5094,504.1563 1107.4,503.7031 Q1107.3531,503.3906 1107.1813,503.2188 Q1106.8688,502.8906 1106.3063,502.7031 Q1105.7438,502.5 1105.1813,502.5 Q1104.4781,502.5 1103.8844,502.7813 Q1103.3063,503.0625 1102.8531,503.6875 Q1102.4,504.3125 1102.4,505.1719 L1102.4,506.0938 Q1102.4,507.125 1103.2438,507.8125 Q1104.0875,508.5 1105.5875,508.5 Q1106.4781,508.5 1107.1031,508.2969 Q1107.4625,508.1875 1107.8688,507.8281 Q1108.1344,507.625 1108.275,507.5625 Q1108.4156,507.5 1108.5875,507.5 Q1108.9156,507.5 1109.15,507.7656 Q1109.4,508.0156 1109.4,508.375 Q1109.4,508.7188 1109.0563,509.125 Q1108.5563,509.7188 1107.7594,510.0469 Q1106.7125,510.5 1105.4313,510.5 Q1103.9313,510.5 1102.7281,509.9063 Q1101.7594,509.4375 1101.0719,508.4219 Q1100.4,507.4063 1100.4,506.2031 L1100.4,505.1094 Q1100.4,503.8594 1100.9938,502.7656 Q1101.6031,501.6719 1102.65,501.0938 Q1103.7125,500.5 1104.9,500.5 Q1105.6188,500.5 1106.2438,500.75 Q1106.8688,501 1107.4,501.5 Z " fill="#000000"/><text fill="#000000" font-family="sans-serif" font-size="12" lengthAdjust="spacing" textLength="58" x="1124.6" y="509.9102">CourierDB</text><line style="stroke:#A80036;stroke-width:1.5;" x1="1068" x2="1208" y1="521" y2="521"/><line style="stroke:#A80036;stroke-width:1.5;" x1="1068" x2="1208" y1="529" y2="529"/><text fill="#000000" font-family="sans-serif" font-size="11" lengthAdjust="spacing" textLength="125" x="1073" y="544.4189">+getCourierByEmail(email)</text><text fill="#000000" font-family="sans-serif" font-size="11" lengthAdjust="spacing" textLength="130" x="1073" y="558.2549">+updateCourierDB(courier)</text><!--MD5=[b860ecc58d0ca70e482845cb1f7b4615]
class PharmacyDB--><rect codeLine="82" fill="#FEFECE" filter="url(#f1be9s2t2cgyae)" height="61.8359" id="PharmacyDB" style="stroke:#A80036;stroke-width:1.5;" width="168" x="1244" y="496"/><ellipse cx="1287.8" cy="512" fill="#ADD1B2" rx="11" ry="11" style="stroke:#A80036;stroke-width:1.0;"/><path d="M1289.8,508.5 Q1290.0031,508 1290.2375,507.75 Q1290.4719,507.5 1290.7375,507.5 Q1291.2063,507.5 1291.5031,507.7813 Q1291.8,508.0625 1291.8,508.7188 L1291.8,510.2813 Q1291.8,510.9375 1291.5188,511.2188 Q1291.2375,511.5 1290.8,511.5 Q1290.4094,511.5 1290.1594,511.3281 Q1289.9094,511.1563 1289.8,510.7031 Q1289.7531,510.3906 1289.5813,510.2188 Q1289.2688,509.8906 1288.7063,509.7031 Q1288.1438,509.5 1287.5813,509.5 Q1286.8781,509.5 1286.2844,509.7813 Q1285.7063,510.0625 1285.2531,510.6875 Q1284.8,511.3125 1284.8,512.1719 L1284.8,513.0938 Q1284.8,514.125 1285.6438,514.8125 Q1286.4875,515.5 1287.9875,515.5 Q1288.8781,515.5 1289.5031,515.2969 Q1289.8625,515.1875 1290.2688,514.8281 Q1290.5344,514.625 1290.675,514.5625 Q1290.8156,514.5 1290.9875,514.5 Q1291.3156,514.5 1291.55,514.7656 Q1291.8,515.0156 1291.8,515.375 Q1291.8,515.7188 1291.4563,516.125 Q1290.9563,516.7188 1290.1594,517.0469 Q1289.1125,517.5 1287.8313,517.5 Q1286.3313,517.5 1285.1281,516.9063 Q1284.1594,516.4375 1283.4719,515.4219 Q1282.8,514.4063 1282.8,513.2031 L1282.8,512.1094 Q1282.8,510.8594 1283.3938,509.7656 Q1284.0031,508.6719 1285.05,508.0938 Q1286.1125,507.5 1287.3,507.5 Q1288.0188,507.5 1288.6438,507.75 Q1289.2688,508 1289.8,508.5 Z " fill="#000000"/><text fill="#000000" font-family="sans-serif" font-size="12" lengthAdjust="spacing" textLength="72" x="1308.2" y="516.9102">PharmacyDB</text><line style="stroke:#A80036;stroke-width:1.5;" x1="1245" x2="1411" y1="528" y2="528"/><line style="stroke:#A80036;stroke-width:1.5;" x1="1245" x2="1411" y1="536" y2="536"/><text fill="#000000" font-family="sans-serif" font-size="11" lengthAdjust="spacing" textLength="156" x="1250" y="551.4189">+getPharmacyByID(pharmacyID)</text><!--MD5=[f50ff5e4cd64f259303fc83dba1819fc]
entity database--><path d="M1070.5,676.5 C1070.5,666.5 1110,666.5 1110,666.5 C1110,666.5 1149.5,666.5 1149.5,676.5 L1149.5,703.1094 C1149.5,713.1094 1110,713.1094 1110,713.1094 C1110,713.1094 1070.5,713.1094 1070.5,703.1094 L1070.5,676.5 " fill="#FFFFFF" filter="url(#f1be9s2t2cgyae)" style="stroke:#000000;stroke-width:1.5;"/><path d="M1070.5,676.5 C1070.5,686.5 1110,686.5 1110,686.5 C1110,686.5 1149.5,686.5 1149.5,676.5 " fill="none" style="stroke:#000000;stroke-width:1.5;"/><text fill="#000000" font-family="sans-serif" font-size="14" lengthAdjust="spacing" textLength="59" x="1080.5" y="705.0332">database</text><!--MD5=[480dfbb70e72da71ac7a75a9e761c5f4]
reverse link DataHandler to CourierDB--><path d="M1212.42,323.5 C1194.05,373.48 1167.66,445.29 1151.74,488.61 " fill="none" id="DataHandler-backto-CourierDB" style="stroke:#A80036;stroke-width:1.0;"/><polygon fill="none" points="1205.92,320.89,1219.39,304.54,1219.06,325.72,1205.92,320.89" style="stroke:#A80036;stroke-width:1.0;"/><!--MD5=[f40d64c3825bdc96a4efd5b7e3ff1420]
reverse link DataHandler to PharmacyDB--><path d="M1253.58,323.49 C1273.02,376.39 1301.44,453.73 1316.93,495.88 " fill="none" id="DataHandler-backto-PharmacyDB" style="stroke:#A80036;stroke-width:1.0;"/><polygon fill="none" points="1246.94,325.72,1246.61,304.54,1260.08,320.89,1246.94,325.72" style="stroke:#A80036;stroke-width:1.0;"/><!--MD5=[2a2881be07bfc2e9ace4c24013438a3b]
link UpdateCourierController to ApplicationPOT--><path codeLine="84" d="M173,318.26 C173,369.23 173,446.41 173,490.94 " fill="none" id="UpdateCourierController-to-ApplicationPOT" style="stroke:#A80036;stroke-width:1.0;stroke-dasharray:7.0,7.0;"/><polygon fill="#A80036" points="173,495.94,177,486.94,173,490.94,169,486.94,173,495.94" style="stroke:#A80036;stroke-width:1.0;"/><!--MD5=[b8b60c531ea9f46210fc947827180417]
link UpdateCourierUI to UpdateCourierController--><path codeLine="85" d="M173,110.34 C173,135.36 173,176.01 173,209.43 " fill="none" id="UpdateCourierUI-to-UpdateCourierController" style="stroke:#A80036;stroke-width:1.0;stroke-dasharray:7.0,7.0;"/><polygon fill="#A80036" points="173,214.73,177,205.73,173,209.73,169,205.73,173,214.73" style="stroke:#A80036;stroke-width:1.0;"/><!--MD5=[e054beeca25eefbb56dfb2d50fd17800]
link UpdateCourierController to CourierService--><path codeLine="86" d="M314.04,295.52 C376.13,312.03 447.99,337.12 506,374 C548.76,401.18 587.13,444.43 613.01,477.86 " fill="none" id="UpdateCourierController-to-CourierService" style="stroke:#A80036;stroke-width:1.0;stroke-dasharray:7.0,7.0;"/><polygon fill="#A80036" points="616.1,481.89,613.8014,472.3131,613.059,477.921,607.4511,477.1787,616.1,481.89" style="stroke:#A80036;stroke-width:1.0;"/><text fill="#000000" font-family="sans-serif" font-size="13" lengthAdjust="spacing" textLength="21" x="491" y="362.4951">has</text><!--MD5=[d9b0b74117bd9da52e3eb9b3ed9f2ee8]
link UpdateCourierController to PharmacyService--><path codeLine="87" d="M314.27,275.6 C502.86,287.7 817.97,312.89 858,348 C898.48,383.51 905.13,449.65 904.97,490.55 " fill="none" id="UpdateCourierController-to-PharmacyService" style="stroke:#A80036;stroke-width:1.0;stroke-dasharray:7.0,7.0;"/><polygon fill="#A80036" points="904.91,495.9,909.0126,486.9463,904.9671,490.9003,901.0131,486.8549,904.91,495.9" style="stroke:#A80036;stroke-width:1.0;"/><text fill="#000000" font-family="sans-serif" font-size="13" lengthAdjust="spacing" textLength="21" x="873" y="362.4951">has</text><!--MD5=[89b25d1c9bf6553681a153895b89905c]
link CourierService to CourierDB--><path codeLine="88" d="M681.98,481.8 C710.13,449.38 752.84,408.32 801,390 C884.91,358.08 920.18,355.34 1003,390 C1048.55,409.06 1086.51,451.81 1110.47,484.52 " fill="none" id="CourierService-to-CourierDB" style="stroke:#A80036;stroke-width:1.0;stroke-dasharray:7.0,7.0;"/><polygon fill="#A80036" points="1113.61,488.86,1111.5474,479.2296,1110.6674,484.8176,1105.0794,483.9376,1113.61,488.86" style="stroke:#A80036;stroke-width:1.0;"/><text fill="#000000" font-family="sans-serif" font-size="13" lengthAdjust="spacing" textLength="21" x="829.5" y="362.4951">has</text><!--MD5=[1838217b62f5cff8f2cd541cc9393f89]
link PharmacyService to PharmacyDB--><path codeLine="89" d="M924.95,495.97 C950.72,462.51 996.88,411.2 1051,390 C1123.83,361.47 1157.18,354.73 1227,390 C1268.48,410.95 1297.11,457.86 1313.03,490.93 " fill="none" id="PharmacyService-to-PharmacyDB" style="stroke:#A80036;stroke-width:1.0;stroke-dasharray:7.0,7.0;"/><polygon fill="#A80036" points="1315.28,495.71,1315.0596,485.8636,1313.1476,491.1875,1307.8236,489.2755,1315.28,495.71" style="stroke:#A80036;stroke-width:1.0;"/><text fill="#000000" font-family="sans-serif" font-size="13" lengthAdjust="spacing" textLength="21" x="1065.5" y="362.4951">has</text><!--MD5=[6186e8b4cee7708710b6e27e9dc51b19]
link CourierDB to database--><path codeLine="90" d="M1131.51,565.34 C1126.42,594.6 1119.45,634.67 1114.84,661.16 " fill="none" id="CourierDB-to-database" style="stroke:#A80036;stroke-width:1.0;"/><polygon fill="#A80036" points="1113.95,666.27,1119.4329,658.0885,1114.8067,661.3439,1111.5512,656.7177,1113.95,666.27" style="stroke:#A80036;stroke-width:1.0;"/><text fill="#000000" font-family="sans-serif" font-size="13" lengthAdjust="spacing" textLength="53" x="1125" y="618.4951">manages</text><!--MD5=[8ccf6e71e5a57e60f210c299beaf85c1]
link PharmacyDB to database--><path codeLine="91" d="M1287.25,558.09 C1246.23,588.39 1183.63,634.62 1144.84,663.27 " fill="none" id="PharmacyDB-to-database" style="stroke:#A80036;stroke-width:1.0;"/><polygon fill="#A80036" points="1140.7,666.33,1150.3137,664.1905,1144.7188,663.3552,1145.554,657.7604,1140.7,666.33" style="stroke:#A80036;stroke-width:1.0;"/><text fill="#000000" font-family="sans-serif" font-size="13" lengthAdjust="spacing" textLength="53" x="1220" y="618.4951">manages</text><!--MD5=[91e1cddbbc24b623a543ddae479b49e2]
link database to Administrator--><path codeLine="93" d="M1070.4,668.3 C1056.96,662.11 1041.63,655.92 1027,652 C1026.1,651.76 494.84,596.39 494,596 C472.32,585.95 453.12,566.55 440.17,551.04 " fill="none" id="database-Administrator" style="stroke:#A80036;stroke-width:1.0;"/><polygon fill="#000000" points="729.0844,612.2612,737.4392,616.805,738.5144,611.0264,729.0844,612.2612" style="stroke:#000000;stroke-width:1.0;"/><text fill="#000000" font-family="sans-serif" font-size="13" lengthAdjust="spacing" textLength="82" x="743" y="618.4951">has registered</text><text fill="#000000" font-family="sans-serif" font-size="13" lengthAdjust="spacing" textLength="7" x="1055.4534" y="660.3876">1</text><text fill="#000000" font-family="sans-serif" font-size="13" lengthAdjust="spacing" textLength="7" x="436.5021" y="572.3877">1</text><!--MD5=[19ec02e7a53843b8ce567ea50e78d86c]
link database to Pharmacy--><path codeLine="94" d="M1070.26,709.13 C998.9,741.7 849.58,809.84 775.54,843.63 " fill="none" id="database-Pharmacy" style="stroke:#A80036;stroke-width:1.0;"/><polygon fill="#000000" points="955.4513,769.2517,964.9002,768.17,962.4598,762.8227,955.4513,769.2517" style="stroke:#000000;stroke-width:1.0;"/><text fill="#000000" font-family="sans-serif" font-size="13" lengthAdjust="spacing" textLength="82" x="969" y="772.4951">has registered</text><text fill="#000000" font-family="sans-serif" font-size="13" lengthAdjust="spacing" textLength="7" x="1055.5579" y="708.6737">1</text><text fill="#000000" font-family="sans-serif" font-size="13" lengthAdjust="spacing" textLength="7" x="783.625" y="836.2215">1</text><!--MD5=[ee27bb4a35795612dd183df45031e556]
link Administrator to Courier--><path codeLine="95" d="M441.63,551.07 C462.9,577.41 498,620.88 523.11,651.98 " fill="none" id="Administrator-Courier" style="stroke:#A80036;stroke-width:1.0;"/><polygon fill="#000000" points="504.1411,617.0659,500.7454,608.1823,496.1722,611.8749,504.1411,617.0659" style="stroke:#000000;stroke-width:1.0;"/><text fill="#000000" font-family="sans-serif" font-size="13" lengthAdjust="spacing" textLength="50" x="510" y="618.4951">registers</text><text fill="#000000" font-family="sans-serif" font-size="13" lengthAdjust="spacing" textLength="7" x="447.0242" y="572.425">1</text><text fill="#000000" font-family="sans-serif" font-size="13" lengthAdjust="spacing" textLength="20" x="495.7553" y="641.0528">1..*</text><!--MD5=[771c3993b003aea4e1f6128d90cd4122]
link Courier to User--><path codeLine="96" d="M534.09,728.2 C529.17,737.9 523.88,748.34 519,758 C511.15,773.55 502.67,790.41 494.84,805.99 " fill="none" id="Courier-User" style="stroke:#A80036;stroke-width:1.0;"/><polygon fill="#000000" points="521.7476,771.6397,528.446,764.8883,523.1983,762.2405,521.7476,771.6397" style="stroke:#000000;stroke-width:1.0;"/><text fill="#000000" font-family="sans-serif" font-size="13" lengthAdjust="spacing" textLength="43" x="533" y="772.4951">acts as</text><text fill="#000000" font-family="sans-serif" font-size="13" lengthAdjust="spacing" textLength="7" x="523.5184" y="749.1124">1</text><text fill="#000000" font-family="sans-serif" font-size="13" lengthAdjust="spacing" textLength="7" x="491.0867" y="794.9745">1</text><!--MD5=[88616e74bf96530d476f0a19698bdbd4]
link Courier to Pharmacy--><path codeLine="97" d="M589.66,726.32 C619.93,755.5 662.78,796.79 693.54,826.43 " fill="none" id="Courier-Pharmacy" style="stroke:#A80036;stroke-width:1.0;"/><polygon fill="#000000" points="646.6003,770.6454,642.1267,762.2526,638.0479,766.485,646.6003,770.6454" style="stroke:#000000;stroke-width:1.0;"/><text fill="#000000" font-family="sans-serif" font-size="13" lengthAdjust="spacing" textLength="71" x="652" y="772.4951">belongs to a</text><text fill="#000000" font-family="sans-serif" font-size="13" lengthAdjust="spacing" textLength="7" x="597.5665" y="729.4575">1</text><text fill="#000000" font-family="sans-serif" font-size="13" lengthAdjust="spacing" textLength="7" x="679.0659" y="815.7794">1</text><!--MD5=[edc107c0a572352bcd12c9afaba4390b]
link Administrator to User--><path codeLine="98" d="M424.39,551.18 C426.78,588.52 432.27,664.27 441,728 C444.52,753.71 449.55,781.97 454.17,806 " fill="none" id="Administrator-User" style="stroke:#A80036;stroke-width:1.0;"/><polygon fill="#000000" points="446.5804,695.142,448.4495,685.8169,442.6114,686.4992,446.5804,695.142" style="stroke:#000000;stroke-width:1.0;"/><text fill="#000000" font-family="sans-serif" font-size="13" lengthAdjust="spacing" textLength="43" x="455" y="695.4951">acts as</text><text fill="#000000" font-family="sans-serif" font-size="13" lengthAdjust="spacing" textLength="7" x="416.8757" y="572.5618">1</text><text fill="#000000" font-family="sans-serif" font-size="13" lengthAdjust="spacing" textLength="7" x="445.2058" y="794.9858">1</text><!--MD5=[b806b62d93826c57edde9f162ec27029]
@startuml
skinparam classAttributeIconSize 0

package "UI" #DDDDDD{
class UpdateCourierUI {

}
}
package "Controller" #DDDDDD {
class UpdateCourierController{
+getCourierByEmail(email)
+updateCourier(courier,name,email,nif,iban,pharmacyID)
+updateCourierDB(courier)
+validateInput(email)
}

class ApplicationPOT
{
  +static getInstance()
}
}


package "Model" #DDDDDD {
package "Service" #DDDDDD {
   class CourierService{
          +getCourierByEmail(email)
          +updateCourier(courier,name,email,nif,iban,pharmacy)
          +updateCourierDB(courier)
      }

      class PharmacyService{
                +getPharmacyByID(pharmacyID)
            }
 }
}

package "Model" #DDDDDD {
abstract class User{
-Integer Id
-String email
-String password
-String name
-Integer nif
}

class Courier {
      -Integer id
      -String iban
}

class Administrator {
}


class Pharmacy{
-   int id
-   String name
}


}

package "Data" #DDDDDD {
class DataHandler{
    +openConnection()
    +closeAll()
}

class CourierDB{
 +getCourierByEmail(email)
 +updateCourierDB(courier)
  }

  class PharmacyDB{
   +getPharmacyByID(pharmacyID)
    }
}
database database{

}
class CourierDB extends DataHandler
class PharmacyDB extends DataHandler

UpdateCourierController ..> ApplicationPOT
UpdateCourierUI ..> UpdateCourierController
UpdateCourierController ..> CourierService : has
UpdateCourierController ..> PharmacyService : has
CourierService ..> CourierDB : has
PharmacyService ..> PharmacyDB : has
CourierDB - -> database : manages
PharmacyDB - -> database : manages

database "1" - - "1" Administrator : has registered >
database "1" - - "1" Pharmacy : has registered >
Administrator "1" - - "1..*" Courier : registers >
Courier "1" - - "1" User: acts as  >
Courier "1" - - "1" Pharmacy: belongs to a  >
Administrator "1" - - "1" User: acts as  >

@enduml

PlantUML version 1.2021.00(Sun Jan 10 10:25:05 GMT 2021)
(GPL source distribution)
Java Runtime: OpenJDK Runtime Environment
JVM: OpenJDK 64-Bit Server VM
Default Encoding: Cp1252
Language: pt
Country: PT
--></g></svg>