<?xml version="1.0" encoding="UTF-8" standalone="no"?><svg xmlns="http://www.w3.org/2000/svg" xmlns:xlink="http://www.w3.org/1999/xlink" contentScriptType="application/ecmascript" contentStyleType="text/css" height="233px" preserveAspectRatio="none" style="width:802px;height:233px;" version="1.1" viewBox="0 0 802 233" width="802px" zoomAndPan="magnify"><defs><filter height="300%" id="futhc8dm26n6g" width="300%" x="-1" y="-1"><feGaussianBlur result="blurOut" stdDeviation="2.0"/><feColorMatrix in="blurOut" result="blurOut2" type="matrix" values="0 0 0 0 0 0 0 0 0 0 0 0 0 0 0 0 0 0 .4 0"/><feOffset dx="4.0" dy="4.0" in="blurOut2" result="blurOut3"/><feBlend in="SourceGraphic" in2="blurOut3" mode="normal"/></filter></defs><g><!--MD5=[f50ff5e4cd64f259303fc83dba1819fc]
entity database--><path d="M6,122.5 C6,112.5 45.5,112.5 45.5,112.5 C45.5,112.5 85,112.5 85,122.5 L85,149.1094 C85,159.1094 45.5,159.1094 45.5,159.1094 C45.5,159.1094 6,159.1094 6,149.1094 L6,122.5 " fill="#FFFFFF" filter="url(#futhc8dm26n6g)" style="stroke:#000000;stroke-width:1.5;"/><path d="M6,122.5 C6,132.5 45.5,132.5 45.5,132.5 C45.5,132.5 85,132.5 85,122.5 " fill="none" style="stroke:#000000;stroke-width:1.5;"/><text fill="#000000" font-family="sans-serif" font-size="14" lengthAdjust="spacing" textLength="59" x="16" y="151.0332">database</text><!--MD5=[c6a2171c11447acbe08a3dfeee0e1710]
class Courier--><rect codeLine="8" fill="#FEFECE" filter="url(#futhc8dm26n6g)" height="53.8359" id="Courier" style="stroke:#A80036;stroke-width:1.5;" width="73" x="472" y="58"/><ellipse cx="487" cy="74" fill="#ADD1B2" rx="11" ry="11" style="stroke:#A80036;stroke-width:1.0;"/><path d="M489,70.5 Q489.2031,70 489.4375,69.75 Q489.6719,69.5 489.9375,69.5 Q490.4063,69.5 490.7031,69.7813 Q491,70.0625 491,70.7188 L491,72.2813 Q491,72.9375 490.7188,73.2188 Q490.4375,73.5 490,73.5 Q489.6094,73.5 489.3594,73.3281 Q489.1094,73.1563 489,72.7031 Q488.9531,72.3906 488.7813,72.2188 Q488.4688,71.8906 487.9063,71.7031 Q487.3438,71.5 486.7813,71.5 Q486.0781,71.5 485.4844,71.7813 Q484.9063,72.0625 484.4531,72.6875 Q484,73.3125 484,74.1719 L484,75.0938 Q484,76.125 484.8438,76.8125 Q485.6875,77.5 487.1875,77.5 Q488.0781,77.5 488.7031,77.2969 Q489.0625,77.1875 489.4688,76.8281 Q489.7344,76.625 489.875,76.5625 Q490.0156,76.5 490.1875,76.5 Q490.5156,76.5 490.75,76.7656 Q491,77.0156 491,77.375 Q491,77.7188 490.6563,78.125 Q490.1563,78.7188 489.3594,79.0469 Q488.3125,79.5 487.0313,79.5 Q485.5313,79.5 484.3281,78.9063 Q483.3594,78.4375 482.6719,77.4219 Q482,76.4063 482,75.2031 L482,74.1094 Q482,72.8594 482.5938,71.7656 Q483.2031,70.6719 484.25,70.0938 Q485.3125,69.5 486.5,69.5 Q487.2188,69.5 487.8438,69.75 Q488.4688,70 489,70.5 Z " fill="#000000"/><text fill="#000000" font-family="sans-serif" font-size="12" lengthAdjust="spacing" textLength="41" x="501" y="78.9102">Courier</text><line style="stroke:#A80036;stroke-width:1.5;" x1="473" x2="544" y1="90" y2="90"/><text fill="#000000" font-family="sans-serif" font-size="11" lengthAdjust="spacing" textLength="55" x="478" y="105.4189">-String iban</text><!--MD5=[da547346deef918ea16944ba046651ef]
class Administrator--><rect codeLine="12" fill="#FEFECE" filter="url(#futhc8dm26n6g)" height="40" id="Administrator" style="stroke:#A80036;stroke-width:1.5;" width="105" x="242" y="116"/><ellipse cx="257" cy="132" fill="#ADD1B2" rx="11" ry="11" style="stroke:#A80036;stroke-width:1.0;"/><path d="M259,128.5 Q259.2031,128 259.4375,127.75 Q259.6719,127.5 259.9375,127.5 Q260.4063,127.5 260.7031,127.7813 Q261,128.0625 261,128.7188 L261,130.2813 Q261,130.9375 260.7188,131.2188 Q260.4375,131.5 260,131.5 Q259.6094,131.5 259.3594,131.3281 Q259.1094,131.1563 259,130.7031 Q258.9531,130.3906 258.7813,130.2188 Q258.4688,129.8906 257.9063,129.7031 Q257.3438,129.5 256.7813,129.5 Q256.0781,129.5 255.4844,129.7813 Q254.9063,130.0625 254.4531,130.6875 Q254,131.3125 254,132.1719 L254,133.0938 Q254,134.125 254.8438,134.8125 Q255.6875,135.5 257.1875,135.5 Q258.0781,135.5 258.7031,135.2969 Q259.0625,135.1875 259.4688,134.8281 Q259.7344,134.625 259.875,134.5625 Q260.0156,134.5 260.1875,134.5 Q260.5156,134.5 260.75,134.7656 Q261,135.0156 261,135.375 Q261,135.7188 260.6563,136.125 Q260.1563,136.7188 259.3594,137.0469 Q258.3125,137.5 257.0313,137.5 Q255.5313,137.5 254.3281,136.9063 Q253.3594,136.4375 252.6719,135.4219 Q252,134.4063 252,133.2031 L252,132.1094 Q252,130.8594 252.5938,129.7656 Q253.2031,128.6719 254.25,128.0938 Q255.3125,127.5 256.5,127.5 Q257.2188,127.5 257.8438,127.75 Q258.4688,128 259,128.5 Z " fill="#000000"/><text fill="#000000" font-family="sans-serif" font-size="12" lengthAdjust="spacing" textLength="73" x="271" y="136.9102">Administrator</text><line style="stroke:#A80036;stroke-width:1.5;" x1="243" x2="346" y1="148" y2="148"/><!--MD5=[3fd616f346a44cd59a91eb10b19e157c]
class User--><rect codeLine="15" fill="#FEFECE" filter="url(#futhc8dm26n6g)" height="109.1797" id="User" style="stroke:#A80036;stroke-width:1.5;" width="97" x="691" y="110.5"/><ellipse cx="723.1" cy="126.5" fill="#ADD1B2" rx="11" ry="11" style="stroke:#A80036;stroke-width:1.0;"/><path d="M725.1,123 Q725.3031,122.5 725.5375,122.25 Q725.7719,122 726.0375,122 Q726.5063,122 726.8031,122.2813 Q727.1,122.5625 727.1,123.2188 L727.1,124.7813 Q727.1,125.4375 726.8188,125.7188 Q726.5375,126 726.1,126 Q725.7094,126 725.4594,125.8281 Q725.2094,125.6563 725.1,125.2031 Q725.0531,124.8906 724.8813,124.7188 Q724.5688,124.3906 724.0063,124.2031 Q723.4438,124 722.8813,124 Q722.1781,124 721.5844,124.2813 Q721.0063,124.5625 720.5531,125.1875 Q720.1,125.8125 720.1,126.6719 L720.1,127.5938 Q720.1,128.625 720.9438,129.3125 Q721.7875,130 723.2875,130 Q724.1781,130 724.8031,129.7969 Q725.1625,129.6875 725.5688,129.3281 Q725.8344,129.125 725.975,129.0625 Q726.1156,129 726.2875,129 Q726.6156,129 726.85,129.2656 Q727.1,129.5156 727.1,129.875 Q727.1,130.2188 726.7563,130.625 Q726.2563,131.2188 725.4594,131.5469 Q724.4125,132 723.1313,132 Q721.6313,132 720.4281,131.4063 Q719.4594,130.9375 718.7719,129.9219 Q718.1,128.9063 718.1,127.7031 L718.1,126.6094 Q718.1,125.3594 718.6938,124.2656 Q719.3031,123.1719 720.35,122.5938 Q721.4125,122 722.6,122 Q723.3188,122 723.9438,122.25 Q724.5688,122.5 725.1,123 Z " fill="#000000"/><text fill="#000000" font-family="sans-serif" font-size="12" lengthAdjust="spacing" textLength="27" x="740.9" y="131.4102">User</text><line style="stroke:#A80036;stroke-width:1.5;" x1="692" x2="787" y1="142.5" y2="142.5"/><text fill="#000000" font-family="sans-serif" font-size="11" lengthAdjust="spacing" textLength="48" x="697" y="157.9189">-Integer id</text><text fill="#000000" font-family="sans-serif" font-size="11" lengthAdjust="spacing" textLength="59" x="697" y="171.7549">-String email</text><text fill="#000000" font-family="sans-serif" font-size="11" lengthAdjust="spacing" textLength="85" x="697" y="185.5908">-String password</text><text fill="#000000" font-family="sans-serif" font-size="11" lengthAdjust="spacing" textLength="30" x="697" y="199.4268">-int nif</text><text fill="#000000" font-family="sans-serif" font-size="11" lengthAdjust="spacing" textLength="60" x="697" y="213.2627">-string name</text><!--MD5=[7f2a9fafcebe4f099f71398fd3e2ed00]
class Pharmacy--><rect codeLine="23" fill="#FEFECE" filter="url(#futhc8dm26n6g)" height="67.6719" id="Pharmacy" style="stroke:#A80036;stroke-width:1.5;" width="87" x="696" y="7"/><ellipse cx="711" cy="23" fill="#ADD1B2" rx="11" ry="11" style="stroke:#A80036;stroke-width:1.0;"/><path d="M713,19.5 Q713.2031,19 713.4375,18.75 Q713.6719,18.5 713.9375,18.5 Q714.4063,18.5 714.7031,18.7813 Q715,19.0625 715,19.7188 L715,21.2813 Q715,21.9375 714.7188,22.2188 Q714.4375,22.5 714,22.5 Q713.6094,22.5 713.3594,22.3281 Q713.1094,22.1563 713,21.7031 Q712.9531,21.3906 712.7813,21.2188 Q712.4688,20.8906 711.9063,20.7031 Q711.3438,20.5 710.7813,20.5 Q710.0781,20.5 709.4844,20.7813 Q708.9063,21.0625 708.4531,21.6875 Q708,22.3125 708,23.1719 L708,24.0938 Q708,25.125 708.8438,25.8125 Q709.6875,26.5 711.1875,26.5 Q712.0781,26.5 712.7031,26.2969 Q713.0625,26.1875 713.4688,25.8281 Q713.7344,25.625 713.875,25.5625 Q714.0156,25.5 714.1875,25.5 Q714.5156,25.5 714.75,25.7656 Q715,26.0156 715,26.375 Q715,26.7188 714.6563,27.125 Q714.1563,27.7188 713.3594,28.0469 Q712.3125,28.5 711.0313,28.5 Q709.5313,28.5 708.3281,27.9063 Q707.3594,27.4375 706.6719,26.4219 Q706,25.4063 706,24.2031 L706,23.1094 Q706,21.8594 706.5938,20.7656 Q707.2031,19.6719 708.25,19.0938 Q709.3125,18.5 710.5,18.5 Q711.2188,18.5 711.8438,18.75 Q712.4688,19 713,19.5 Z " fill="#000000"/><text fill="#000000" font-family="sans-serif" font-size="12" lengthAdjust="spacing" textLength="55" x="725" y="27.9102">Pharmacy</text><line style="stroke:#A80036;stroke-width:1.5;" x1="697" x2="782" y1="39" y2="39"/><text fill="#000000" font-family="sans-serif" font-size="11" lengthAdjust="spacing" textLength="26" x="702" y="54.4189">-int id</text><text fill="#000000" font-family="sans-serif" font-size="11" lengthAdjust="spacing" textLength="61" x="702" y="68.2549">-String name</text><!--MD5=[91e1cddbbc24b623a543ddae479b49e2]
link database to Administrator--><path codeLine="28" d="M85.09,136 C127.29,136 195.12,136 241.87,136 " fill="none" id="database-Administrator" style="stroke:#A80036;stroke-width:1.0;"/><polygon fill="#000000" points="125,127.1758,115.9549,124.2369,115.9549,130.1147,125,127.1758" style="stroke:#000000;stroke-width:1.0;"/><text fill="#000000" font-family="sans-serif" font-size="13" lengthAdjust="spacing" textLength="82" x="129" y="132.4951">has registered</text><text fill="#000000" font-family="sans-serif" font-size="13" lengthAdjust="spacing" textLength="7" x="93.0347" y="151.0385">1</text><text fill="#000000" font-family="sans-serif" font-size="13" lengthAdjust="spacing" textLength="7" x="226.9767" y="150.6448">1</text><!--MD5=[ee27bb4a35795612dd183df45031e556]
link Administrator to Courier--><path codeLine="29" d="M347.09,123.59 C385.7,114.3 437.52,101.84 471.68,93.62 " fill="none" id="Administrator-Courier" style="stroke:#A80036;stroke-width:1.0;"/><polygon fill="#000000" points="386.8613,92.0064,377.3798,91.2644,378.7545,96.9793,386.8613,92.0064" style="stroke:#000000;stroke-width:1.0;"/><text fill="#000000" font-family="sans-serif" font-size="13" lengthAdjust="spacing" textLength="50" x="391" y="98.4951">registers</text><text fill="#000000" font-family="sans-serif" font-size="13" lengthAdjust="spacing" textLength="7" x="354.9777" y="118.2397">1</text><text fill="#000000" font-family="sans-serif" font-size="13" lengthAdjust="spacing" textLength="20" x="443.9254" y="109.9105">1..*</text><!--MD5=[771c3993b003aea4e1f6128d90cd4122]
link Courier to User--><path codeLine="30" d="M545.28,97.5 C584.4,111.17 647.29,133.14 690.63,148.28 " fill="none" id="Courier-User" style="stroke:#A80036;stroke-width:1.0;"/><polygon fill="#000000" points="598.7202,101.8249,591.1506,96.0672,589.212,101.6161,598.7202,101.8249" style="stroke:#000000;stroke-width:1.0;"/><text fill="#000000" font-family="sans-serif" font-size="13" lengthAdjust="spacing" textLength="43" x="603" y="105.4951">acts as</text><text fill="#000000" font-family="sans-serif" font-size="13" lengthAdjust="spacing" textLength="7" x="552.9584" y="114.9521">1</text><text fill="#000000" font-family="sans-serif" font-size="13" lengthAdjust="spacing" textLength="7" x="675.9382" y="160.507">1</text><!--MD5=[88616e74bf96530d476f0a19698bdbd4]
link Courier to Pharmacy--><path codeLine="31" d="M545.28,78.12 C586.04,70.29 652.59,57.51 695.96,49.17 " fill="none" id="Courier-Pharmacy" style="stroke:#A80036;stroke-width:1.0;"/><polygon fill="#000000" points="584.9102,47.2324,575.4731,46.0529,576.5821,51.8251,584.9102,47.2324" style="stroke:#000000;stroke-width:1.0;"/><text fill="#000000" font-family="sans-serif" font-size="13" lengthAdjust="spacing" textLength="71" x="589" y="53.4951">belongs to a</text><text fill="#000000" font-family="sans-serif" font-size="13" lengthAdjust="spacing" textLength="7" x="552.9584" y="91.8778">1</text><text fill="#000000" font-family="sans-serif" font-size="13" lengthAdjust="spacing" textLength="7" x="680.875" y="65.5027">1</text><!--MD5=[edc107c0a572352bcd12c9afaba4390b]
link Administrator to User--><path codeLine="32" d="M347.18,139.38 C433.8,145.05 607,156.39 690.85,161.88 " fill="none" id="Administrator-User" style="stroke:#A80036;stroke-width:1.0;"/><polygon fill="#000000" points="489.4893,139.5024,480.6556,135.9789,480.2716,141.8442,489.4893,139.5024" style="stroke:#000000;stroke-width:1.0;"/><text fill="#000000" font-family="sans-serif" font-size="13" lengthAdjust="spacing" textLength="43" x="493.5" y="144.4951">acts as</text><text fill="#000000" font-family="sans-serif" font-size="13" lengthAdjust="spacing" textLength="7" x="355.0803" y="154.5001">1</text><text fill="#000000" font-family="sans-serif" font-size="13" lengthAdjust="spacing" textLength="7" x="675.8645" y="176.1355">1</text><!--MD5=[50ba0fc2fbba15f610308f922e4d9b4d]
@startuml
skinparam classAttributeIconSize 0
hide methods
left to right direction

database database {
}

class Courier {
      -String iban
}

class Administrator {
}

class User{
  -Integer id
  -String email
  -String password
  -int nif
  -string name
}

class Pharmacy{
-   int id
-   String name
}

database "1" - - "1" Administrator : has registered >
Administrator "1" - - "1..*" Courier : registers >
Courier "1" - - "1" User: acts as  >
Courier "1" - - "1" Pharmacy: belongs to a  >
Administrator "1" - - "1" User: acts as  >
@enduml

PlantUML version 1.2021.00(Sun Jan 10 10:25:05 GMT 2021)
(GPL source distribution)
Java Runtime: OpenJDK Runtime Environment
JVM: OpenJDK 64-Bit Server VM
Default Encoding: Cp1252
Language: pt
Country: PT
--></g></svg>