<?xml version="1.0" encoding="UTF-8" standalone="no"?><svg xmlns="http://www.w3.org/2000/svg" xmlns:xlink="http://www.w3.org/1999/xlink" contentScriptType="application/ecmascript" contentStyleType="text/css" height="1010px" preserveAspectRatio="none" style="width:835px;height:1010px;" version="1.1" viewBox="0 0 835 1010" width="835px" zoomAndPan="magnify"><defs><filter height="300%" id="f18kl926nntzvy" width="300%" x="-1" y="-1"><feGaussianBlur result="blurOut" stdDeviation="2.0"/><feColorMatrix in="blurOut" result="blurOut2" type="matrix" values="0 0 0 0 0 0 0 0 0 0 0 0 0 0 0 0 0 0 .4 0"/><feOffset dx="4.0" dy="4.0" in="blurOut2" result="blurOut3"/><feBlend in="SourceGraphic" in2="blurOut3" mode="normal"/></filter></defs><g><!--MD5=[9681dc6e01e10c6b4fe06895ae94f592]
cluster UI--><polygon fill="#DDDDDD" filter="url(#f18kl926nntzvy)" points="50,6,70,6,77,29.6094,214,29.6094,214,106,50,106,50,6" style="stroke:#000000;stroke-width:1.5;"/><line style="stroke:#000000;stroke-width:1.5;" x1="50" x2="77" y1="29.6094" y2="29.6094"/><text fill="#000000" font-family="sans-serif" font-size="14" font-weight="bold" lengthAdjust="spacingAndGlyphs" textLength="14" x="54" y="22.5332">UI</text><!--MD5=[10ea673caf457862023e152271927b45]
cluster controller--><polygon fill="#DDDDDD" filter="url(#f18kl926nntzvy)" points="16,139,91,139,98,162.6094,248,162.6094,248,447,16,447,16,139" style="stroke:#000000;stroke-width:1.5;"/><line style="stroke:#000000;stroke-width:1.5;" x1="16" x2="98" y1="162.6094" y2="162.6094"/><text fill="#000000" font-family="sans-serif" font-size="14" font-weight="bold" lengthAdjust="spacingAndGlyphs" textLength="69" x="20" y="155.5332">controller</text><!--MD5=[5d4cd377749310b66bf14896f5cd8d9b]
cluster model--><polygon fill="#DDDDDD" filter="url(#f18kl926nntzvy)" points="272,312,321,312,328,335.6094,818,335.6094,818,1003,272,1003,272,312" style="stroke:#000000;stroke-width:1.5;"/><line style="stroke:#000000;stroke-width:1.5;" x1="272" x2="328" y1="335.6094" y2="335.6094"/><text fill="#000000" font-family="sans-serif" font-size="14" font-weight="bold" lengthAdjust="spacingAndGlyphs" textLength="43" x="276" y="328.5332">model</text><!--MD5=[3463acad58c6dd4bee6554fcba7014ba]
cluster registration--><polygon fill="#DDDDDD" filter="url(#f18kl926nntzvy)" points="408,497,496,497,503,520.6094,708,520.6094,708,639,408,639,408,497" style="stroke:#000000;stroke-width:1.5;"/><line style="stroke:#000000;stroke-width:1.5;" x1="408" x2="503" y1="520.6094" y2="520.6094"/><text fill="#000000" font-family="sans-serif" font-size="14" font-weight="bold" lengthAdjust="spacingAndGlyphs" textLength="82" x="412" y="513.5332">registration</text><!--MD5=[c365f98fde6e762b4385e710efedc7b8]
class RegisterCourierUI--><rect codeLine="4" fill="#FEFECE" filter="url(#f18kl926nntzvy)" height="48" id="RegisterCourierUI" style="stroke:#A80036;stroke-width:1.5;" width="132" x="66" y="42"/><ellipse cx="81" cy="58" fill="#ADD1B2" rx="11" ry="11" style="stroke:#A80036;stroke-width:1.0;"/><path d="M83,54.5 Q83.2031,54 83.4375,53.75 Q83.6719,53.5 83.9375,53.5 Q84.4063,53.5 84.7031,53.7813 Q85,54.0625 85,54.7188 L85,56.2813 Q85,56.9375 84.7188,57.2188 Q84.4375,57.5 84,57.5 Q83.6094,57.5 83.3594,57.3281 Q83.1094,57.1563 83,56.7031 Q82.9531,56.3906 82.7813,56.2188 Q82.4688,55.8906 81.9063,55.7031 Q81.3438,55.5 80.7813,55.5 Q80.0781,55.5 79.4844,55.7813 Q78.9063,56.0625 78.4531,56.6875 Q78,57.3125 78,58.1719 L78,59.0938 Q78,60.125 78.8438,60.8125 Q79.6875,61.5 81.1875,61.5 Q82.0781,61.5 82.7031,61.2969 Q83.0625,61.1875 83.4688,60.8281 Q83.7344,60.625 83.875,60.5625 Q84.0156,60.5 84.1875,60.5 Q84.5156,60.5 84.75,60.7656 Q85,61.0156 85,61.375 Q85,61.7188 84.6563,62.125 Q84.1563,62.7188 83.3594,63.0469 Q82.3125,63.5 81.0313,63.5 Q79.5313,63.5 78.3281,62.9063 Q77.3594,62.4375 76.6719,61.4219 Q76,60.4063 76,59.2031 L76,58.1094 Q76,56.8594 76.5938,55.7656 Q77.2031,54.6719 78.25,54.0938 Q79.3125,53.5 80.5,53.5 Q81.2188,53.5 81.8438,53.75 Q82.4688,54 83,54.5 Z " fill="#000000"/><text fill="#000000" font-family="sans-serif" font-size="12" lengthAdjust="spacingAndGlyphs" textLength="100" x="95" y="62.9102">RegisterCourierUI</text><line style="stroke:#A80036;stroke-width:1.5;" x1="67" x2="197" y1="74" y2="74"/><line style="stroke:#A80036;stroke-width:1.5;" x1="67" x2="197" y1="82" y2="82"/><!--MD5=[4eb0c4884421df88d70952c6803fb262]
class RegisterCourierController--><rect codeLine="9" fill="#FEFECE" filter="url(#f18kl926nntzvy)" height="89.5078" id="RegisterCourierController" style="stroke:#A80036;stroke-width:1.5;" width="200" x="32" y="175"/><ellipse cx="58.7" cy="191" fill="#ADD1B2" rx="11" ry="11" style="stroke:#A80036;stroke-width:1.0;"/><path d="M60.7,187.5 Q60.9031,187 61.1375,186.75 Q61.3719,186.5 61.6375,186.5 Q62.1063,186.5 62.4031,186.7813 Q62.7,187.0625 62.7,187.7188 L62.7,189.2813 Q62.7,189.9375 62.4188,190.2188 Q62.1375,190.5 61.7,190.5 Q61.3094,190.5 61.0594,190.3281 Q60.8094,190.1563 60.7,189.7031 Q60.6531,189.3906 60.4813,189.2188 Q60.1688,188.8906 59.6063,188.7031 Q59.0438,188.5 58.4813,188.5 Q57.7781,188.5 57.1844,188.7813 Q56.6063,189.0625 56.1531,189.6875 Q55.7,190.3125 55.7,191.1719 L55.7,192.0938 Q55.7,193.125 56.5438,193.8125 Q57.3875,194.5 58.8875,194.5 Q59.7781,194.5 60.4031,194.2969 Q60.7625,194.1875 61.1688,193.8281 Q61.4344,193.625 61.575,193.5625 Q61.7156,193.5 61.8875,193.5 Q62.2156,193.5 62.45,193.7656 Q62.7,194.0156 62.7,194.375 Q62.7,194.7188 62.3563,195.125 Q61.8563,195.7188 61.0594,196.0469 Q60.0125,196.5 58.7313,196.5 Q57.2313,196.5 56.0281,195.9063 Q55.0594,195.4375 54.3719,194.4219 Q53.7,193.4063 53.7,192.2031 L53.7,191.1094 Q53.7,189.8594 54.2938,188.7656 Q54.9031,187.6719 55.95,187.0938 Q57.0125,186.5 58.2,186.5 Q58.9188,186.5 59.5438,186.75 Q60.1688,187 60.7,187.5 Z " fill="#000000"/><text fill="#000000" font-family="sans-serif" font-size="12" lengthAdjust="spacingAndGlyphs" textLength="142" x="75.3" y="195.9102">RegisterCourierController</text><line style="stroke:#A80036;stroke-width:1.5;" x1="33" x2="231" y1="207" y2="207"/><line style="stroke:#A80036;stroke-width:1.5;" x1="33" x2="231" y1="215" y2="215"/><text fill="#000000" font-family="sans-serif" font-size="11" lengthAdjust="spacingAndGlyphs" textLength="185" x="38" y="230.4189">+newCourier(id, name, email, nif, iban)</text><text fill="#000000" font-family="sans-serif" font-size="11" lengthAdjust="spacingAndGlyphs" textLength="188" x="38" y="244.2549">+validateInput(id, name, email, nif, iban)</text><text fill="#000000" font-family="sans-serif" font-size="11" lengthAdjust="spacingAndGlyphs" textLength="92" x="38" y="258.0908">+registersCourier()</text><!--MD5=[31a99318d73d92502100859279ac7629]
class PotApplication--><rect codeLine="15" fill="#FEFECE" filter="url(#f18kl926nntzvy)" height="89.5078" id="PotApplication" style="stroke:#A80036;stroke-width:1.5;" width="116" x="74" y="341"/><ellipse cx="91.7" cy="357" fill="#ADD1B2" rx="11" ry="11" style="stroke:#A80036;stroke-width:1.0;"/><path d="M93.7,353.5 Q93.9031,353 94.1375,352.75 Q94.3719,352.5 94.6375,352.5 Q95.1063,352.5 95.4031,352.7813 Q95.7,353.0625 95.7,353.7188 L95.7,355.2813 Q95.7,355.9375 95.4188,356.2188 Q95.1375,356.5 94.7,356.5 Q94.3094,356.5 94.0594,356.3281 Q93.8094,356.1563 93.7,355.7031 Q93.6531,355.3906 93.4813,355.2188 Q93.1688,354.8906 92.6063,354.7031 Q92.0438,354.5 91.4813,354.5 Q90.7781,354.5 90.1844,354.7813 Q89.6063,355.0625 89.1531,355.6875 Q88.7,356.3125 88.7,357.1719 L88.7,358.0938 Q88.7,359.125 89.5438,359.8125 Q90.3875,360.5 91.8875,360.5 Q92.7781,360.5 93.4031,360.2969 Q93.7625,360.1875 94.1688,359.8281 Q94.4344,359.625 94.575,359.5625 Q94.7156,359.5 94.8875,359.5 Q95.2156,359.5 95.45,359.7656 Q95.7,360.0156 95.7,360.375 Q95.7,360.7188 95.3563,361.125 Q94.8563,361.7188 94.0594,362.0469 Q93.0125,362.5 91.7313,362.5 Q90.2313,362.5 89.0281,361.9063 Q88.0594,361.4375 87.3719,360.4219 Q86.7,359.4063 86.7,358.2031 L86.7,357.1094 Q86.7,355.8594 87.2938,354.7656 Q87.9031,353.6719 88.95,353.0938 Q90.0125,352.5 91.2,352.5 Q91.9188,352.5 92.5438,352.75 Q93.1688,353 93.7,353.5 Z " fill="#000000"/><text fill="#000000" font-family="sans-serif" font-size="12" lengthAdjust="spacingAndGlyphs" textLength="78" x="106.3" y="361.9102">PotApplication</text><line style="stroke:#A80036;stroke-width:1.5;" x1="75" x2="189" y1="373" y2="373"/><line style="stroke:#A80036;stroke-width:1.5;" x1="75" x2="189" y1="381" y2="381"/><text fill="#000000" font-family="sans-serif" font-size="11" lengthAdjust="spacingAndGlyphs" textLength="70" x="80" y="396.4189">+getInstance()</text><text fill="#000000" font-family="sans-serif" font-size="11" lengthAdjust="spacingAndGlyphs" textLength="68" x="80" y="410.2549">+getPlatform()</text><text fill="#000000" font-family="sans-serif" font-size="11" lengthAdjust="spacingAndGlyphs" textLength="104" x="80" y="424.0908">+getCurrentSession()</text><!--MD5=[99b8db98afdc2c8404e39242ef4c1e65]
class Platform--><rect codeLine="24" fill="#FEFECE" filter="url(#f18kl926nntzvy)" height="75.6719" id="Platform" style="stroke:#A80036;stroke-width:1.5;" width="116" x="288" y="348"/><ellipse cx="320.1" cy="364" fill="#ADD1B2" rx="11" ry="11" style="stroke:#A80036;stroke-width:1.0;"/><path d="M322.1,360.5 Q322.3031,360 322.5375,359.75 Q322.7719,359.5 323.0375,359.5 Q323.5063,359.5 323.8031,359.7813 Q324.1,360.0625 324.1,360.7188 L324.1,362.2813 Q324.1,362.9375 323.8188,363.2188 Q323.5375,363.5 323.1,363.5 Q322.7094,363.5 322.4594,363.3281 Q322.2094,363.1563 322.1,362.7031 Q322.0531,362.3906 321.8813,362.2188 Q321.5688,361.8906 321.0063,361.7031 Q320.4438,361.5 319.8813,361.5 Q319.1781,361.5 318.5844,361.7813 Q318.0063,362.0625 317.5531,362.6875 Q317.1,363.3125 317.1,364.1719 L317.1,365.0938 Q317.1,366.125 317.9438,366.8125 Q318.7875,367.5 320.2875,367.5 Q321.1781,367.5 321.8031,367.2969 Q322.1625,367.1875 322.5688,366.8281 Q322.8344,366.625 322.975,366.5625 Q323.1156,366.5 323.2875,366.5 Q323.6156,366.5 323.85,366.7656 Q324.1,367.0156 324.1,367.375 Q324.1,367.7188 323.7563,368.125 Q323.2563,368.7188 322.4594,369.0469 Q321.4125,369.5 320.1313,369.5 Q318.6313,369.5 317.4281,368.9063 Q316.4594,368.4375 315.7719,367.4219 Q315.1,366.4063 315.1,365.2031 L315.1,364.1094 Q315.1,362.8594 315.6938,361.7656 Q316.3031,360.6719 317.35,360.0938 Q318.4125,359.5 319.6,359.5 Q320.3188,359.5 320.9438,359.75 Q321.5688,360 322.1,360.5 Z " fill="#000000"/><text fill="#000000" font-family="sans-serif" font-size="12" lengthAdjust="spacingAndGlyphs" textLength="46" x="337.9" y="368.9102">Platform</text><line style="stroke:#A80036;stroke-width:1.5;" x1="289" x2="403" y1="380" y2="380"/><text fill="#000000" font-family="sans-serif" font-size="11" lengthAdjust="spacingAndGlyphs" textLength="104" x="294" y="395.4189">-String strDesignation</text><line style="stroke:#A80036;stroke-width:1.5;" x1="289" x2="403" y1="401.8359" y2="401.8359"/><text fill="#000000" font-family="sans-serif" font-size="11" lengthAdjust="spacingAndGlyphs" textLength="71" x="294" y="417.2549">+getCourReg()</text><!--MD5=[c6a2171c11447acbe08a3dfeee0e1710]
class Courier--><rect codeLine="29" fill="#FEFECE" filter="url(#f18kl926nntzvy)" height="103.3438" id="Courier" style="stroke:#A80036;stroke-width:1.5;" width="231" x="416.5" y="703"/><ellipse cx="507.25" cy="719" fill="#ADD1B2" rx="11" ry="11" style="stroke:#A80036;stroke-width:1.0;"/><path d="M509.25,715.5 Q509.4531,715 509.6875,714.75 Q509.9219,714.5 510.1875,714.5 Q510.6563,714.5 510.9531,714.7813 Q511.25,715.0625 511.25,715.7188 L511.25,717.2813 Q511.25,717.9375 510.9688,718.2188 Q510.6875,718.5 510.25,718.5 Q509.8594,718.5 509.6094,718.3281 Q509.3594,718.1563 509.25,717.7031 Q509.2031,717.3906 509.0313,717.2188 Q508.7188,716.8906 508.1563,716.7031 Q507.5938,716.5 507.0313,716.5 Q506.3281,716.5 505.7344,716.7813 Q505.1563,717.0625 504.7031,717.6875 Q504.25,718.3125 504.25,719.1719 L504.25,720.0938 Q504.25,721.125 505.0938,721.8125 Q505.9375,722.5 507.4375,722.5 Q508.3281,722.5 508.9531,722.2969 Q509.3125,722.1875 509.7188,721.8281 Q509.9844,721.625 510.125,721.5625 Q510.2656,721.5 510.4375,721.5 Q510.7656,721.5 511,721.7656 Q511.25,722.0156 511.25,722.375 Q511.25,722.7188 510.9063,723.125 Q510.4063,723.7188 509.6094,724.0469 Q508.5625,724.5 507.2813,724.5 Q505.7813,724.5 504.5781,723.9063 Q503.6094,723.4375 502.9219,722.4219 Q502.25,721.4063 502.25,720.2031 L502.25,719.1094 Q502.25,717.8594 502.8438,716.7656 Q503.4531,715.6719 504.5,715.0938 Q505.5625,714.5 506.75,714.5 Q507.4688,714.5 508.0938,714.75 Q508.7188,715 509.25,715.5 Z " fill="#000000"/><text fill="#000000" font-family="sans-serif" font-size="12" lengthAdjust="spacingAndGlyphs" textLength="41" x="527.75" y="723.9102">Courier</text><line style="stroke:#A80036;stroke-width:1.5;" x1="417.5" x2="646.5" y1="735" y2="735"/><text fill="#000000" font-family="sans-serif" font-size="11" lengthAdjust="spacingAndGlyphs" textLength="48" x="422.5" y="750.4189">-Integer id</text><text fill="#000000" font-family="sans-serif" font-size="11" lengthAdjust="spacingAndGlyphs" textLength="55" x="422.5" y="764.2549">-String iban</text><line style="stroke:#A80036;stroke-width:1.5;" x1="417.5" x2="646.5" y1="770.6719" y2="770.6719"/><text fill="#000000" font-family="sans-serif" font-size="11" lengthAdjust="spacingAndGlyphs" textLength="205" x="422.5" y="786.0908">+Courier(name, email, password, nif, iban)</text><text fill="#000000" font-family="sans-serif" font-size="11" lengthAdjust="spacingAndGlyphs" textLength="219" x="422.5" y="799.9268">+Courier(id, name, email, password, nif, iban)</text><!--MD5=[25d27397beb7751a92f927503ed5c06c]
class Administator--><rect codeLine="37" fill="#FEFECE" filter="url(#f18kl926nntzvy)" height="61.8359" id="Administator" style="stroke:#A80036;stroke-width:1.5;" width="101" x="288.5" y="547"/><ellipse cx="303.5" cy="563" fill="#ADD1B2" rx="11" ry="11" style="stroke:#A80036;stroke-width:1.0;"/><path d="M305.5,559.5 Q305.7031,559 305.9375,558.75 Q306.1719,558.5 306.4375,558.5 Q306.9063,558.5 307.2031,558.7813 Q307.5,559.0625 307.5,559.7188 L307.5,561.2813 Q307.5,561.9375 307.2188,562.2188 Q306.9375,562.5 306.5,562.5 Q306.1094,562.5 305.8594,562.3281 Q305.6094,562.1563 305.5,561.7031 Q305.4531,561.3906 305.2813,561.2188 Q304.9688,560.8906 304.4063,560.7031 Q303.8438,560.5 303.2813,560.5 Q302.5781,560.5 301.9844,560.7813 Q301.4063,561.0625 300.9531,561.6875 Q300.5,562.3125 300.5,563.1719 L300.5,564.0938 Q300.5,565.125 301.3438,565.8125 Q302.1875,566.5 303.6875,566.5 Q304.5781,566.5 305.2031,566.2969 Q305.5625,566.1875 305.9688,565.8281 Q306.2344,565.625 306.375,565.5625 Q306.5156,565.5 306.6875,565.5 Q307.0156,565.5 307.25,565.7656 Q307.5,566.0156 307.5,566.375 Q307.5,566.7188 307.1563,567.125 Q306.6563,567.7188 305.8594,568.0469 Q304.8125,568.5 303.5313,568.5 Q302.0313,568.5 300.8281,567.9063 Q299.8594,567.4375 299.1719,566.4219 Q298.5,565.4063 298.5,564.2031 L298.5,563.1094 Q298.5,561.8594 299.0938,560.7656 Q299.7031,559.6719 300.75,559.0938 Q301.8125,558.5 303,558.5 Q303.7188,558.5 304.3438,558.75 Q304.9688,559 305.5,559.5 Z " fill="#000000"/><text fill="#000000" font-family="sans-serif" font-size="12" lengthAdjust="spacingAndGlyphs" textLength="69" x="317.5" y="567.9102">Administator</text><line style="stroke:#A80036;stroke-width:1.5;" x1="289.5" x2="388.5" y1="579" y2="579"/><text fill="#000000" font-family="sans-serif" font-size="11" lengthAdjust="spacingAndGlyphs" textLength="48" x="294.5" y="594.4189">-Integer id</text><line style="stroke:#A80036;stroke-width:1.5;" x1="289.5" x2="388.5" y1="600.8359" y2="600.8359"/><!--MD5=[66cd549c3e90a50eebbc5475fe2b9d17]
class PassGenerator--><rect codeLine="41" fill="#FEFECE" filter="url(#f18kl926nntzvy)" height="75.6719" id="PassGenerator" style="stroke:#A80036;stroke-width:1.5;" width="119" x="682.5" y="716.5"/><ellipse cx="698.85" cy="732.5" fill="#ADD1B2" rx="11" ry="11" style="stroke:#A80036;stroke-width:1.0;"/><path d="M700.85,729 Q701.0531,728.5 701.2875,728.25 Q701.5219,728 701.7875,728 Q702.2563,728 702.5531,728.2813 Q702.85,728.5625 702.85,729.2188 L702.85,730.7813 Q702.85,731.4375 702.5688,731.7188 Q702.2875,732 701.85,732 Q701.4594,732 701.2094,731.8281 Q700.9594,731.6563 700.85,731.2031 Q700.8031,730.8906 700.6313,730.7188 Q700.3188,730.3906 699.7563,730.2031 Q699.1938,730 698.6313,730 Q697.9281,730 697.3344,730.2813 Q696.7563,730.5625 696.3031,731.1875 Q695.85,731.8125 695.85,732.6719 L695.85,733.5938 Q695.85,734.625 696.6938,735.3125 Q697.5375,736 699.0375,736 Q699.9281,736 700.5531,735.7969 Q700.9125,735.6875 701.3188,735.3281 Q701.5844,735.125 701.725,735.0625 Q701.8656,735 702.0375,735 Q702.3656,735 702.6,735.2656 Q702.85,735.5156 702.85,735.875 Q702.85,736.2188 702.5063,736.625 Q702.0063,737.2188 701.2094,737.5469 Q700.1625,738 698.8813,738 Q697.3813,738 696.1781,737.4063 Q695.2094,736.9375 694.5219,735.9219 Q693.85,734.9063 693.85,733.7031 L693.85,732.6094 Q693.85,731.3594 694.4438,730.2656 Q695.0531,729.1719 696.1,728.5938 Q697.1625,728 698.35,728 Q699.0688,728 699.6938,728.25 Q700.3188,728.5 700.85,729 Z " fill="#000000"/><text fill="#000000" font-family="sans-serif" font-size="12" lengthAdjust="spacingAndGlyphs" textLength="84" x="713.15" y="737.4102">PassGenerator</text><line style="stroke:#A80036;stroke-width:1.5;" x1="683.5" x2="800.5" y1="748.5" y2="748.5"/><line style="stroke:#A80036;stroke-width:1.5;" x1="683.5" x2="800.5" y1="756.5" y2="756.5"/><text fill="#000000" font-family="sans-serif" font-size="11" lengthAdjust="spacingAndGlyphs" textLength="87" x="688.5" y="771.9189">+PassGenerator()</text><text fill="#000000" font-family="sans-serif" font-size="11" lengthAdjust="spacingAndGlyphs" textLength="107" x="688.5" y="785.7549">+generatePassword()</text><!--MD5=[3fd616f346a44cd59a91eb10b19e157c]
class User--><rect codeLine="56" fill="#FEFECE" filter="url(#f18kl926nntzvy)" height="103.3438" id="User" style="stroke:#A80036;stroke-width:1.5;" width="97" x="344.5" y="884"/><ellipse cx="376.6" cy="900" fill="#ADD1B2" rx="11" ry="11" style="stroke:#A80036;stroke-width:1.0;"/><path d="M378.6,896.5 Q378.8031,896 379.0375,895.75 Q379.2719,895.5 379.5375,895.5 Q380.0063,895.5 380.3031,895.7813 Q380.6,896.0625 380.6,896.7188 L380.6,898.2813 Q380.6,898.9375 380.3188,899.2188 Q380.0375,899.5 379.6,899.5 Q379.2094,899.5 378.9594,899.3281 Q378.7094,899.1563 378.6,898.7031 Q378.5531,898.3906 378.3813,898.2188 Q378.0688,897.8906 377.5063,897.7031 Q376.9438,897.5 376.3813,897.5 Q375.6781,897.5 375.0844,897.7813 Q374.5063,898.0625 374.0531,898.6875 Q373.6,899.3125 373.6,900.1719 L373.6,901.0938 Q373.6,902.125 374.4438,902.8125 Q375.2875,903.5 376.7875,903.5 Q377.6781,903.5 378.3031,903.2969 Q378.6625,903.1875 379.0688,902.8281 Q379.3344,902.625 379.475,902.5625 Q379.6156,902.5 379.7875,902.5 Q380.1156,902.5 380.35,902.7656 Q380.6,903.0156 380.6,903.375 Q380.6,903.7188 380.2563,904.125 Q379.7563,904.7188 378.9594,905.0469 Q377.9125,905.5 376.6313,905.5 Q375.1313,905.5 373.9281,904.9063 Q372.9594,904.4375 372.2719,903.4219 Q371.6,902.4063 371.6,901.2031 L371.6,900.1094 Q371.6,898.8594 372.1938,897.7656 Q372.8031,896.6719 373.85,896.0938 Q374.9125,895.5 376.1,895.5 Q376.8188,895.5 377.4438,895.75 Q378.0688,896 378.6,896.5 Z " fill="#000000"/><text fill="#000000" font-family="sans-serif" font-size="12" lengthAdjust="spacingAndGlyphs" textLength="27" x="394.4" y="904.9102">User</text><line style="stroke:#A80036;stroke-width:1.5;" x1="345.5" x2="440.5" y1="916" y2="916"/><text fill="#000000" font-family="sans-serif" font-size="11" lengthAdjust="spacingAndGlyphs" textLength="59" x="350.5" y="931.4189">-String email</text><text fill="#000000" font-family="sans-serif" font-size="11" lengthAdjust="spacingAndGlyphs" textLength="85" x="350.5" y="945.2549">-String password</text><text fill="#000000" font-family="sans-serif" font-size="11" lengthAdjust="spacingAndGlyphs" textLength="30" x="350.5" y="959.0908">-int nif</text><text fill="#000000" font-family="sans-serif" font-size="11" lengthAdjust="spacingAndGlyphs" textLength="60" x="350.5" y="972.9268">-string name</text><line style="stroke:#A80036;stroke-width:1.5;" x1="345.5" x2="440.5" y1="979.3438" y2="979.3438"/><!--MD5=[fed1add0081d3c7b1127626c78d8052e]
class CourierRegistration--><rect codeLine="48" fill="#FEFECE" filter="url(#f18kl926nntzvy)" height="89.5078" id="CourierRegistration" style="stroke:#A80036;stroke-width:1.5;" width="267" x="424.5" y="533"/><ellipse cx="499.75" cy="549" fill="#ADD1B2" rx="11" ry="11" style="stroke:#A80036;stroke-width:1.0;"/><path d="M501.75,545.5 Q501.9531,545 502.1875,544.75 Q502.4219,544.5 502.6875,544.5 Q503.1563,544.5 503.4531,544.7813 Q503.75,545.0625 503.75,545.7188 L503.75,547.2813 Q503.75,547.9375 503.4688,548.2188 Q503.1875,548.5 502.75,548.5 Q502.3594,548.5 502.1094,548.3281 Q501.8594,548.1563 501.75,547.7031 Q501.7031,547.3906 501.5313,547.2188 Q501.2188,546.8906 500.6563,546.7031 Q500.0938,546.5 499.5313,546.5 Q498.8281,546.5 498.2344,546.7813 Q497.6563,547.0625 497.2031,547.6875 Q496.75,548.3125 496.75,549.1719 L496.75,550.0938 Q496.75,551.125 497.5938,551.8125 Q498.4375,552.5 499.9375,552.5 Q500.8281,552.5 501.4531,552.2969 Q501.8125,552.1875 502.2188,551.8281 Q502.4844,551.625 502.625,551.5625 Q502.7656,551.5 502.9375,551.5 Q503.2656,551.5 503.5,551.7656 Q503.75,552.0156 503.75,552.375 Q503.75,552.7188 503.4063,553.125 Q502.9063,553.7188 502.1094,554.0469 Q501.0625,554.5 499.7813,554.5 Q498.2813,554.5 497.0781,553.9063 Q496.1094,553.4375 495.4219,552.4219 Q494.75,551.4063 494.75,550.2031 L494.75,549.1094 Q494.75,547.8594 495.3438,546.7656 Q495.9531,545.6719 497,545.0938 Q498.0625,544.5 499.25,544.5 Q499.9688,544.5 500.5938,544.75 Q501.2188,545 501.75,545.5 Z " fill="#000000"/><text fill="#000000" font-family="sans-serif" font-size="12" lengthAdjust="spacingAndGlyphs" textLength="108" x="520.25" y="553.9102">CourierRegistration</text><line style="stroke:#A80036;stroke-width:1.5;" x1="425.5" x2="690.5" y1="565" y2="565"/><line style="stroke:#A80036;stroke-width:1.5;" x1="425.5" x2="690.5" y1="573" y2="573"/><text fill="#000000" font-family="sans-serif" font-size="11" lengthAdjust="spacingAndGlyphs" textLength="107" x="430.5" y="588.4189">+generatePassword()</text><text fill="#000000" font-family="sans-serif" font-size="11" lengthAdjust="spacingAndGlyphs" textLength="255" x="430.5" y="602.2549">+Courier newCourier(name, email, nif, iban, address)</text><text fill="#000000" font-family="sans-serif" font-size="11" lengthAdjust="spacingAndGlyphs" textLength="126" x="430.5" y="616.0908">+registersCourier(courier)</text><!--MD5=[67ef8feff7a9606170138fd760099c10]
link Platform to CourierRegistration--><path codeLine="65" d="M399.17,424.08 C415.29,435.98 432.75,449.58 448,463 C472.67,484.72 498.28,511 518.57,532.85 " fill="none" id="Platform-CourierRegistration" style="stroke:#A80036;stroke-width:1.0;"/><polygon fill="#000000" points="475.6962,475.5429,470.9889,467.2791,467.0305,471.6243,475.6962,475.5429" style="stroke:#000000;stroke-width:1.0;"/><text fill="#000000" font-family="sans-serif" font-size="13" lengthAdjust="spacingAndGlyphs" textLength="21" x="481" y="477.4951">has</text><text fill="#000000" font-family="sans-serif" font-size="13" lengthAdjust="spacingAndGlyphs" textLength="7" x="400.3966" y="445.2634">1</text><text fill="#000000" font-family="sans-serif" font-size="13" lengthAdjust="spacingAndGlyphs" textLength="7" x="504.9963" y="522.2711">1</text><!--MD5=[adc9222e597a9dc9a64df6764d4713a9]
link Platform to Administator--><path codeLine="66" d="M344.63,424.08 C343.31,459.94 341.34,513.59 340.11,546.88 " fill="none" id="Platform-Administator" style="stroke:#A80036;stroke-width:1.0;"/><polygon fill="#000000" points="347.8161,477.1724,351.0857,468.2415,345.2119,468.0253,347.8161,477.1724" style="stroke:#000000;stroke-width:1.0;"/><text fill="#000000" font-family="sans-serif" font-size="13" lengthAdjust="spacingAndGlyphs" textLength="82" x="357" y="477.4951">has registered</text><text fill="#000000" font-family="sans-serif" font-size="13" lengthAdjust="spacingAndGlyphs" textLength="7" x="336.8234" y="445.2634">1</text><text fill="#000000" font-family="sans-serif" font-size="13" lengthAdjust="spacingAndGlyphs" textLength="7" x="332.6171" y="536.3598">1</text><!--MD5=[40e5d4ff122e1853bd00673e03411a8e]
link Administator to Courier--><path codeLine="67" d="M368.79,609.25 C380.8,621.19 394.88,634.93 408,647 C428.26,665.64 450.96,685.44 471.36,702.85 " fill="none" id="Administator-Courier" style="stroke:#A80036;stroke-width:1.0;"/><polygon fill="#000000" points="442.6933,667.5461,437.9931,659.2782,434.031,663.62,442.6933,667.5461" style="stroke:#000000;stroke-width:1.0;"/><text fill="#000000" font-family="sans-serif" font-size="13" lengthAdjust="spacingAndGlyphs" textLength="50" x="448" y="669.4951">registers</text><text fill="#000000" font-family="sans-serif" font-size="13" lengthAdjust="spacingAndGlyphs" textLength="7" x="366.8015" y="630.2763">1</text><text fill="#000000" font-family="sans-serif" font-size="13" lengthAdjust="spacingAndGlyphs" textLength="20" x="441.4263" y="691.9574">1..*</text><!--MD5=[c6e88689508e9cf124549eaff5a26b61]
link Administator to User--><path codeLine="68" d="M335.73,609.11 C331.76,652.93 327.18,736.62 341,806 C346.31,832.67 357.07,860.83 367.42,883.97 " fill="none" id="Administator-User" style="stroke:#A80036;stroke-width:1.0;"/><polygon fill="#000000" points="346.5727,759.6429,348.4563,750.3207,342.6171,750.9939,346.5727,759.6429" style="stroke:#000000;stroke-width:1.0;"/><text fill="#000000" font-family="sans-serif" font-size="13" lengthAdjust="spacingAndGlyphs" textLength="43" x="355" y="759.9951">acts as</text><text fill="#000000" font-family="sans-serif" font-size="13" lengthAdjust="spacingAndGlyphs" textLength="7" x="327.3972" y="630.3557">1</text><text fill="#000000" font-family="sans-serif" font-size="13" lengthAdjust="spacingAndGlyphs" textLength="7" x="356.3306" y="873.0943">1</text><!--MD5=[771c3993b003aea4e1f6128d90cd4122]
link Courier to User--><path codeLine="69" d="M492.54,806.32 C473.68,830.6 451.16,859.6 432.32,883.87 " fill="none" id="Courier-User" style="stroke:#A80036;stroke-width:1.0;"/><polygon fill="#000000" points="467.9334,849.1249,475.8022,843.7834,471.1597,840.1783,467.9334,849.1249" style="stroke:#000000;stroke-width:1.0;"/><text fill="#000000" font-family="sans-serif" font-size="13" lengthAdjust="spacingAndGlyphs" textLength="43" x="480" y="850.4951">acts as</text><text fill="#000000" font-family="sans-serif" font-size="13" lengthAdjust="spacingAndGlyphs" textLength="7" x="479.7673" y="827.854">1</text><text fill="#000000" font-family="sans-serif" font-size="13" lengthAdjust="spacingAndGlyphs" textLength="7" x="430.3572" y="872.9802">1</text><!--MD5=[8592f23fbb2cfe4da0e165624efe0768]
link CourierRegistration to Courier--><path codeLine="71" d="M535.3,623.01 C531.04,633.25 527.22,644.3 525,655 C521.81,670.36 521.79,687.32 523.09,702.78 " fill="none" id="CourierRegistration-Courier" style="stroke:#A80036;stroke-width:1.0;"/><text fill="#000000" font-family="sans-serif" font-size="13" lengthAdjust="spacingAndGlyphs" textLength="176" x="526" y="669.4951">creates and adds to DataBase</text><text fill="#000000" font-family="sans-serif" font-size="13" lengthAdjust="spacingAndGlyphs" textLength="7" x="524.6156" y="644.019">1</text><text fill="#000000" font-family="sans-serif" font-size="13" lengthAdjust="spacingAndGlyphs" textLength="7" x="514.4224" y="692.2508">1</text><!--MD5=[0474cefbac2db620c49776f24424dac2]
link CourierRegistration to PassGenerator--><path codeLine="72" d="M668.71,623.06 C682.88,632.08 696.18,642.67 707,655 C722.08,672.19 730.8,696.32 735.76,716.39 " fill="none" id="CourierRegistration-PassGenerator" style="stroke:#A80036;stroke-width:1.0;"/><text fill="#000000" font-family="sans-serif" font-size="13" lengthAdjust="spacingAndGlyphs" textLength="43" x="719" y="669.4951">creates</text><text fill="#000000" font-family="sans-serif" font-size="13" lengthAdjust="spacingAndGlyphs" textLength="7" x="676.7864" y="644.076">1</text><text fill="#000000" font-family="sans-serif" font-size="13" lengthAdjust="spacingAndGlyphs" textLength="7" x="727.0251" y="705.7323">1</text><!--MD5=[fbe36f4f0629c0e5b3af8fecd61c50b1]
link RegisterCourierUI to RegisterCourierController--><path codeLine="75" d="M132,90.09 C132,111.11 132,142.85 132,169.58 " fill="none" id="RegisterCourierUI-to-RegisterCourierController" style="stroke:#A80036;stroke-width:1.0;stroke-dasharray:7.0,7.0;"/><polygon fill="#A80036" points="132,174.85,136,165.85,132,169.85,128,165.85,132,174.85" style="stroke:#A80036;stroke-width:1.0;"/><!--MD5=[216a4a785881ea8fb285cd6d0dfc805d]
link RegisterCourierController to Platform--><path codeLine="77" d="M195.19,265.01 C212.49,277.38 231.12,291.01 248,304 C264.61,316.78 282.38,331.23 298.17,344.34 " fill="none" id="RegisterCourierController-to-Platform" style="stroke:#A80036;stroke-width:1.0;stroke-dasharray:7.0,7.0;"/><polygon fill="#A80036" points="302.13,347.64,297.7735,338.807,298.2877,344.4405,292.6543,344.9547,302.13,347.64" style="stroke:#A80036;stroke-width:1.0;"/><!--MD5=[954835742766dfb6b7bb4908b7bf46f0]
link RegisterCourierController to CourierRegistration--><path codeLine="78" d="M232.22,228.33 C337.7,238.29 493.81,260.12 533,304 C587.5,365.03 580.08,467.21 569.32,527.74 " fill="none" id="RegisterCourierController-to-CourierRegistration" style="stroke:#A80036;stroke-width:1.0;stroke-dasharray:7.0,7.0;"/><polygon fill="#A80036" points="568.41,532.75,573.9388,524.5994,569.2944,527.8288,566.065,523.1844,568.41,532.75" style="stroke:#A80036;stroke-width:1.0;"/><!--MD5=[ebb55f0977e53fc23b51b8b7d1a0d0f6]
link RegisterCourierController to PotApplication--><path codeLine="79" d="M132,265.38 C132,287.16 132,313.47 132,335.86 " fill="none" id="RegisterCourierController-to-PotApplication" style="stroke:#A80036;stroke-width:1.0;stroke-dasharray:7.0,7.0;"/><polygon fill="#A80036" points="132,340.87,136,331.87,132,335.87,128,331.87,132,340.87" style="stroke:#A80036;stroke-width:1.0;"/><!--MD5=[83f490e67a54e24b9f8b419b1e0bcccd]
@startuml
skinparam classAttributeIconSize 0

package "UI" #DDDDDD{
class RegisterCourierUI {
    
}
}
package "controller" #DDDDDD{
class RegisterCourierController {
    
  +newCourier(id, name, email, nif, iban)
  +validateInput(id, name, email, nif, iban)
  +registersCourier()
}
class PotApplication
  {
    +getInstance()
    +getPlatform()
    +getCurrentSession()
  }

}
package "model" #DDDDDD{
class Platform {
  -String strDesignation
  +getCourReg()
}

class Courier {
    -Integer id
    -String iban

   +Courier(name, email, password, nif, iban)
   +Courier(id, name, email, password, nif, iban)

}
class Administator {
      -Integer id
}

class PassGenerator {
   +PassGenerator()
   +generatePassword()
}


package "registration" #DDDDDD{
class CourierRegistration {

  +generatePassword()
  +Courier newCourier(name, email, nif, iban, address)
  +registersCourier(courier)

}
}
class User{
  -String email
  -String password
  -int nif
  -string name
}
}


Platform "1" - - "1" CourierRegistration: has >
Platform "1" - - "1" Administator: has registered >
Administator "1" - - "1..*" Courier: registers >
Administator "1" - - "1" User: acts as >
Courier "1" - - "1" User: acts as >

CourierRegistration "1" - - "1" Courier : creates and adds to DataBase
CourierRegistration "1" - - "1" PassGenerator : creates


RegisterCourierUI ..> RegisterCourierController

RegisterCourierController ..> Platform
RegisterCourierController ..> CourierRegistration
RegisterCourierController ..> PotApplication

@enduml

PlantUML version 1.2020.23(Sun Dec 13 19:14:58 GMT 2020)
(GPL source distribution)
Java Runtime: OpenJDK Runtime Environment
JVM: OpenJDK 64-Bit Server VM
Default Encoding: Cp1252
Language: pt
Country: PT
--></g></svg>