<?xml version="1.0" encoding="UTF-8" standalone="no"?><svg xmlns="http://www.w3.org/2000/svg" xmlns:xlink="http://www.w3.org/1999/xlink" contentScriptType="application/ecmascript" contentStyleType="text/css" height="962px" preserveAspectRatio="none" style="width:485px;height:962px;" version="1.1" viewBox="0 0 485 962" width="485px" zoomAndPan="magnify"><defs><filter height="300%" id="fwf6s0sxtrvv4" width="300%" x="-1" y="-1"><feGaussianBlur result="blurOut" stdDeviation="2.0"/><feColorMatrix in="blurOut" result="blurOut2" type="matrix" values="0 0 0 0 0 0 0 0 0 0 0 0 0 0 0 0 0 0 .4 0"/><feOffset dx="4.0" dy="4.0" in="blurOut2" result="blurOut3"/><feBlend in="SourceGraphic" in2="blurOut3" mode="normal"/></filter></defs><g><!--MD5=[1f2cfc53d9d308f53762fd0fcbaa4873]
cluster Controller--><polygon fill="#DDDDDD" filter="url(#fwf6s0sxtrvv4)" points="282,146,359,146,366,169.6094,468,169.6094,468,404,282,404,282,146" style="stroke:#000000;stroke-width:1.5;"/><line style="stroke:#000000;stroke-width:1.5;" x1="282" x2="366" y1="169.6094" y2="169.6094"/><text fill="#000000" font-family="sans-serif" font-size="14" font-weight="bold" lengthAdjust="spacingAndGlyphs" textLength="71" x="286" y="162.5332">Controller</text><!--MD5=[9681dc6e01e10c6b4fe06895ae94f592]
cluster UI--><polygon fill="#DDDDDD" filter="url(#fwf6s0sxtrvv4)" points="314,6,334,6,341,29.6094,422,29.6094,422,106,314,106,314,6" style="stroke:#000000;stroke-width:1.5;"/><line style="stroke:#000000;stroke-width:1.5;" x1="314" x2="341" y1="29.6094" y2="29.6094"/><text fill="#000000" font-family="sans-serif" font-size="14" font-weight="bold" lengthAdjust="spacingAndGlyphs" textLength="14" x="318" y="22.5332">UI</text><!--MD5=[15636c1ca4a123c16a2a1a8e90aca7a9]
cluster Model--><polygon fill="#DDDDDD" filter="url(#fwf6s0sxtrvv4)" points="165,454,215,454,222,477.6094,367,477.6094,367,791,165,791,165,454" style="stroke:#000000;stroke-width:1.5;"/><line style="stroke:#000000;stroke-width:1.5;" x1="165" x2="222" y1="477.6094" y2="477.6094"/><text fill="#000000" font-family="sans-serif" font-size="14" font-weight="bold" lengthAdjust="spacingAndGlyphs" textLength="44" x="169" y="470.5332">Model</text><!--MD5=[f21b1f164e99c6b37934f23ad048ad54]
cluster Data--><polygon fill="#DDDDDD" filter="url(#fwf6s0sxtrvv4)" points="16,139,53,139,60,162.6094,258,162.6094,258,404,16,404,16,139" style="stroke:#000000;stroke-width:1.5;"/><line style="stroke:#000000;stroke-width:1.5;" x1="16" x2="60" y1="162.6094" y2="162.6094"/><text fill="#000000" font-family="sans-serif" font-size="14" font-weight="bold" lengthAdjust="spacingAndGlyphs" textLength="31" x="20" y="155.5332">Data</text><!--MD5=[7e40339c58605559321960399585b560]
cluster Utils--><polygon fill="#DDDDDD" filter="url(#fwf6s0sxtrvv4)" points="158,841,195,841,202,864.6094,374,864.6094,374,955,158,955,158,841" style="stroke:#000000;stroke-width:1.5;"/><line style="stroke:#000000;stroke-width:1.5;" x1="158" x2="202" y1="864.6094" y2="864.6094"/><text fill="#000000" font-family="sans-serif" font-size="14" font-weight="bold" lengthAdjust="spacingAndGlyphs" textLength="31" x="162" y="857.5332">Utils</text><!--MD5=[e45a4727c47b726c25e081782e8bc183]
class ApplicationPOT--><rect codeLine="5" fill="#FEFECE" filter="url(#fwf6s0sxtrvv4)" height="75.6719" id="ApplicationPOT" style="stroke:#A80036;stroke-width:1.5;" width="154" x="298" y="312"/><ellipse cx="330.1" cy="328" fill="#ADD1B2" rx="11" ry="11" style="stroke:#A80036;stroke-width:1.0;"/><path d="M332.1,324.5 Q332.3031,324 332.5375,323.75 Q332.7719,323.5 333.0375,323.5 Q333.5063,323.5 333.8031,323.7813 Q334.1,324.0625 334.1,324.7188 L334.1,326.2813 Q334.1,326.9375 333.8188,327.2188 Q333.5375,327.5 333.1,327.5 Q332.7094,327.5 332.4594,327.3281 Q332.2094,327.1563 332.1,326.7031 Q332.0531,326.3906 331.8813,326.2188 Q331.5688,325.8906 331.0063,325.7031 Q330.4438,325.5 329.8813,325.5 Q329.1781,325.5 328.5844,325.7813 Q328.0063,326.0625 327.5531,326.6875 Q327.1,327.3125 327.1,328.1719 L327.1,329.0938 Q327.1,330.125 327.9438,330.8125 Q328.7875,331.5 330.2875,331.5 Q331.1781,331.5 331.8031,331.2969 Q332.1625,331.1875 332.5688,330.8281 Q332.8344,330.625 332.975,330.5625 Q333.1156,330.5 333.2875,330.5 Q333.6156,330.5 333.85,330.7656 Q334.1,331.0156 334.1,331.375 Q334.1,331.7188 333.7563,332.125 Q333.2563,332.7188 332.4594,333.0469 Q331.4125,333.5 330.1313,333.5 Q328.6313,333.5 327.4281,332.9063 Q326.4594,332.4375 325.7719,331.4219 Q325.1,330.4063 325.1,329.2031 L325.1,328.1094 Q325.1,326.8594 325.6938,325.7656 Q326.3031,324.6719 327.35,324.0938 Q328.4125,323.5 329.6,323.5 Q330.3188,323.5 330.9438,323.75 Q331.5688,324 332.1,324.5 Z " fill="#000000"/><text fill="#000000" font-family="sans-serif" font-size="12" lengthAdjust="spacingAndGlyphs" textLength="84" x="347.9" y="332.9102">ApplicationPOT</text><line style="stroke:#A80036;stroke-width:1.5;" x1="299" x2="451" y1="344" y2="344"/><line style="stroke:#A80036;stroke-width:1.5;" x1="299" x2="451" y1="352" y2="352"/><text fill="#000000" font-family="sans-serif" font-size="11" lengthAdjust="spacingAndGlyphs" textLength="99" x="304" y="367.4189">+static getInstance()</text><text fill="#000000" font-family="sans-serif" font-size="11" lengthAdjust="spacingAndGlyphs" textLength="142" x="304" y="381.2549">+setCurrentSession(session)</text><!--MD5=[5103e3471bf31fadd75905833dcba617]
class LoginController--><rect codeLine="21" fill="#FEFECE" filter="url(#fwf6s0sxtrvv4)" height="61.8359" id="LoginController" style="stroke:#A80036;stroke-width:1.5;" width="125" x="305.5" y="182"/><ellipse cx="324.1" cy="198" fill="#ADD1B2" rx="11" ry="11" style="stroke:#A80036;stroke-width:1.0;"/><path d="M326.1,194.5 Q326.3031,194 326.5375,193.75 Q326.7719,193.5 327.0375,193.5 Q327.5063,193.5 327.8031,193.7813 Q328.1,194.0625 328.1,194.7188 L328.1,196.2813 Q328.1,196.9375 327.8188,197.2188 Q327.5375,197.5 327.1,197.5 Q326.7094,197.5 326.4594,197.3281 Q326.2094,197.1563 326.1,196.7031 Q326.0531,196.3906 325.8813,196.2188 Q325.5688,195.8906 325.0063,195.7031 Q324.4438,195.5 323.8813,195.5 Q323.1781,195.5 322.5844,195.7813 Q322.0063,196.0625 321.5531,196.6875 Q321.1,197.3125 321.1,198.1719 L321.1,199.0938 Q321.1,200.125 321.9438,200.8125 Q322.7875,201.5 324.2875,201.5 Q325.1781,201.5 325.8031,201.2969 Q326.1625,201.1875 326.5688,200.8281 Q326.8344,200.625 326.975,200.5625 Q327.1156,200.5 327.2875,200.5 Q327.6156,200.5 327.85,200.7656 Q328.1,201.0156 328.1,201.375 Q328.1,201.7188 327.7563,202.125 Q327.2563,202.7188 326.4594,203.0469 Q325.4125,203.5 324.1313,203.5 Q322.6313,203.5 321.4281,202.9063 Q320.4594,202.4375 319.7719,201.4219 Q319.1,200.4063 319.1,199.2031 L319.1,198.1094 Q319.1,196.8594 319.6938,195.7656 Q320.3031,194.6719 321.35,194.0938 Q322.4125,193.5 323.6,193.5 Q324.3188,193.5 324.9438,193.75 Q325.5688,194 326.1,194.5 Z " fill="#000000"/><text fill="#000000" font-family="sans-serif" font-size="12" lengthAdjust="spacingAndGlyphs" textLength="85" x="338.9" y="202.9102">LoginController</text><line style="stroke:#A80036;stroke-width:1.5;" x1="306.5" x2="429.5" y1="214" y2="214"/><line style="stroke:#A80036;stroke-width:1.5;" x1="306.5" x2="429.5" y1="222" y2="222"/><text fill="#000000" font-family="sans-serif" font-size="11" lengthAdjust="spacingAndGlyphs" textLength="113" x="311.5" y="237.4189">+login(email,password)</text><!--MD5=[963343b82525635de3374bcb96d0dfc1]
class LoginUI--><rect codeLine="14" fill="#FEFECE" filter="url(#fwf6s0sxtrvv4)" height="48" id="LoginUI" style="stroke:#A80036;stroke-width:1.5;" width="75" x="330.5" y="42"/><ellipse cx="345.5" cy="58" fill="#ADD1B2" rx="11" ry="11" style="stroke:#A80036;stroke-width:1.0;"/><path d="M347.5,54.5 Q347.7031,54 347.9375,53.75 Q348.1719,53.5 348.4375,53.5 Q348.9063,53.5 349.2031,53.7813 Q349.5,54.0625 349.5,54.7188 L349.5,56.2813 Q349.5,56.9375 349.2188,57.2188 Q348.9375,57.5 348.5,57.5 Q348.1094,57.5 347.8594,57.3281 Q347.6094,57.1563 347.5,56.7031 Q347.4531,56.3906 347.2813,56.2188 Q346.9688,55.8906 346.4063,55.7031 Q345.8438,55.5 345.2813,55.5 Q344.5781,55.5 343.9844,55.7813 Q343.4063,56.0625 342.9531,56.6875 Q342.5,57.3125 342.5,58.1719 L342.5,59.0938 Q342.5,60.125 343.3438,60.8125 Q344.1875,61.5 345.6875,61.5 Q346.5781,61.5 347.2031,61.2969 Q347.5625,61.1875 347.9688,60.8281 Q348.2344,60.625 348.375,60.5625 Q348.5156,60.5 348.6875,60.5 Q349.0156,60.5 349.25,60.7656 Q349.5,61.0156 349.5,61.375 Q349.5,61.7188 349.1563,62.125 Q348.6563,62.7188 347.8594,63.0469 Q346.8125,63.5 345.5313,63.5 Q344.0313,63.5 342.8281,62.9063 Q341.8594,62.4375 341.1719,61.4219 Q340.5,60.4063 340.5,59.2031 L340.5,58.1094 Q340.5,56.8594 341.0938,55.7656 Q341.7031,54.6719 342.75,54.0938 Q343.8125,53.5 345,53.5 Q345.7188,53.5 346.3438,53.75 Q346.9688,54 347.5,54.5 Z " fill="#000000"/><text fill="#000000" font-family="sans-serif" font-size="12" lengthAdjust="spacingAndGlyphs" textLength="43" x="359.5" y="62.9102">LoginUI</text><line style="stroke:#A80036;stroke-width:1.5;" x1="331.5" x2="404.5" y1="74" y2="74"/><line style="stroke:#A80036;stroke-width:1.5;" x1="331.5" x2="404.5" y1="82" y2="82"/><!--MD5=[3fd616f346a44cd59a91eb10b19e157c]
class User--><rect codeLine="32" fill="#FEFECE" filter="url(#fwf6s0sxtrvv4)" height="131.0156" id="User" style="stroke:#A80036;stroke-width:1.5;" width="170" x="181" y="644"/><ellipse cx="248.75" cy="660" fill="#A9DCDF" rx="11" ry="11" style="stroke:#A80036;stroke-width:1.0;"/><path d="M250.5,661.5 L247.2031,661.5 L246.7656,662.5 L246.7656,662.5 L247.2344,662.5 L247.75,663.125 L247.75,663.5 L247.75,663.875 L247.2344,664.5 L246.7656,664.5 L244.875,664.5 L244.2656,664.5 L243.75,663.875 L243.75,663.5 L243.75,663.125 L244.2656,662.5 L244.875,662.5 L247.1875,656.5 L246.3125,656.5 L245.2656,656.5 L244.75,655.875 L244.75,655.5 L244.75,655.125 L245.2656,654.5 L246.3125,654.5 L249.9844,654.5 L252.6719,662.5 L253.2344,662.5 L253.2344,662.5 L253.75,663.125 L253.75,663.5 L253.75,663.875 L253.2344,664.5 L252.6719,664.5 L250.7813,664.5 L250.2656,664.5 L249.75,663.875 L249.75,663.5 L249.75,663.125 L250.2656,662.5 L250.7813,662.5 L250.7813,662.5 L250.5,661.5 Z M249.9531,659.5 L248.75,655.9219 L247.7188,659.5 L249.9531,659.5 Z " fill="#000000"/><text fill="#000000" font-family="sans-serif" font-size="12" font-style="italic" lengthAdjust="spacingAndGlyphs" textLength="26" x="269.25" y="664.9102">User</text><line style="stroke:#A80036;stroke-width:1.5;" x1="182" x2="350" y1="676" y2="676"/><text fill="#000000" font-family="sans-serif" font-size="11" lengthAdjust="spacingAndGlyphs" textLength="48" x="187" y="691.4189">-Integer id</text><text fill="#000000" font-family="sans-serif" font-size="11" lengthAdjust="spacingAndGlyphs" textLength="59" x="187" y="705.2549">-String email</text><text fill="#000000" font-family="sans-serif" font-size="11" lengthAdjust="spacingAndGlyphs" textLength="85" x="187" y="719.0908">-String password</text><text fill="#000000" font-family="sans-serif" font-size="11" lengthAdjust="spacingAndGlyphs" textLength="52" x="187" y="732.9268">-Integer nif</text><text fill="#000000" font-family="sans-serif" font-size="11" lengthAdjust="spacingAndGlyphs" textLength="61" x="187" y="746.7627">-String name</text><line style="stroke:#A80036;stroke-width:1.5;" x1="182" x2="350" y1="753.1797" y2="753.1797"/><text fill="#000000" font-family="sans-serif" font-size="11" lengthAdjust="spacingAndGlyphs" textLength="158" x="187" y="768.5986">+User(email,password,nif,name)</text><!--MD5=[c5b08e60048ef1bcd788d24cf324082e]
class UserSession--><rect codeLine="41" fill="#FEFECE" filter="url(#fwf6s0sxtrvv4)" height="75.6719" id="UserSession" style="stroke:#A80036;stroke-width:1.5;" width="133" x="199.5" y="490"/><ellipse cx="227.1" cy="506" fill="#ADD1B2" rx="11" ry="11" style="stroke:#A80036;stroke-width:1.0;"/><path d="M229.1,502.5 Q229.3031,502 229.5375,501.75 Q229.7719,501.5 230.0375,501.5 Q230.5063,501.5 230.8031,501.7813 Q231.1,502.0625 231.1,502.7188 L231.1,504.2813 Q231.1,504.9375 230.8188,505.2188 Q230.5375,505.5 230.1,505.5 Q229.7094,505.5 229.4594,505.3281 Q229.2094,505.1563 229.1,504.7031 Q229.0531,504.3906 228.8813,504.2188 Q228.5688,503.8906 228.0063,503.7031 Q227.4438,503.5 226.8813,503.5 Q226.1781,503.5 225.5844,503.7813 Q225.0063,504.0625 224.5531,504.6875 Q224.1,505.3125 224.1,506.1719 L224.1,507.0938 Q224.1,508.125 224.9438,508.8125 Q225.7875,509.5 227.2875,509.5 Q228.1781,509.5 228.8031,509.2969 Q229.1625,509.1875 229.5688,508.8281 Q229.8344,508.625 229.975,508.5625 Q230.1156,508.5 230.2875,508.5 Q230.6156,508.5 230.85,508.7656 Q231.1,509.0156 231.1,509.375 Q231.1,509.7188 230.7563,510.125 Q230.2563,510.7188 229.4594,511.0469 Q228.4125,511.5 227.1313,511.5 Q225.6313,511.5 224.4281,510.9063 Q223.4594,510.4375 222.7719,509.4219 Q222.1,508.4063 222.1,507.2031 L222.1,506.1094 Q222.1,504.8594 222.6938,503.7656 Q223.3031,502.6719 224.35,502.0938 Q225.4125,501.5 226.6,501.5 Q227.3188,501.5 227.9438,501.75 Q228.5688,502 229.1,502.5 Z " fill="#000000"/><text fill="#000000" font-family="sans-serif" font-size="12" lengthAdjust="spacingAndGlyphs" textLength="73" x="243.9" y="510.9102">UserSession</text><line style="stroke:#A80036;stroke-width:1.5;" x1="200.5" x2="331.5" y1="522" y2="522"/><text fill="#000000" font-family="sans-serif" font-size="11" lengthAdjust="spacingAndGlyphs" textLength="59" x="205.5" y="537.4189">-String email</text><line style="stroke:#A80036;stroke-width:1.5;" x1="200.5" x2="331.5" y1="543.8359" y2="543.8359"/><text fill="#000000" font-family="sans-serif" font-size="11" lengthAdjust="spacingAndGlyphs" textLength="121" x="205.5" y="559.2549">+UserSession(email,role)</text><!--MD5=[4b2d61224b33971326a22fe5d809d926]
class DataHandler--><rect codeLine="53" fill="#FEFECE" filter="url(#fwf6s0sxtrvv4)" height="75.6719" id="DataHandler" style="stroke:#A80036;stroke-width:1.5;" width="104" x="85" y="175"/><ellipse cx="100.9" cy="191" fill="#ADD1B2" rx="11" ry="11" style="stroke:#A80036;stroke-width:1.0;"/><path d="M102.9,187.5 Q103.1031,187 103.3375,186.75 Q103.5719,186.5 103.8375,186.5 Q104.3063,186.5 104.6031,186.7813 Q104.9,187.0625 104.9,187.7188 L104.9,189.2813 Q104.9,189.9375 104.6188,190.2188 Q104.3375,190.5 103.9,190.5 Q103.5094,190.5 103.2594,190.3281 Q103.0094,190.1563 102.9,189.7031 Q102.8531,189.3906 102.6813,189.2188 Q102.3688,188.8906 101.8063,188.7031 Q101.2438,188.5 100.6813,188.5 Q99.9781,188.5 99.3844,188.7813 Q98.8063,189.0625 98.3531,189.6875 Q97.9,190.3125 97.9,191.1719 L97.9,192.0938 Q97.9,193.125 98.7438,193.8125 Q99.5875,194.5 101.0875,194.5 Q101.9781,194.5 102.6031,194.2969 Q102.9625,194.1875 103.3688,193.8281 Q103.6344,193.625 103.775,193.5625 Q103.9156,193.5 104.0875,193.5 Q104.4156,193.5 104.65,193.7656 Q104.9,194.0156 104.9,194.375 Q104.9,194.7188 104.5563,195.125 Q104.0563,195.7188 103.2594,196.0469 Q102.2125,196.5 100.9313,196.5 Q99.4313,196.5 98.2281,195.9063 Q97.2594,195.4375 96.5719,194.4219 Q95.9,193.4063 95.9,192.2031 L95.9,191.1094 Q95.9,189.8594 96.4938,188.7656 Q97.1031,187.6719 98.15,187.0938 Q99.2125,186.5 100.4,186.5 Q101.1188,186.5 101.7438,186.75 Q102.3688,187 102.9,187.5 Z " fill="#000000"/><text fill="#000000" font-family="sans-serif" font-size="12" lengthAdjust="spacingAndGlyphs" textLength="70" x="115.1" y="195.9102">DataHandler</text><line style="stroke:#A80036;stroke-width:1.5;" x1="86" x2="188" y1="207" y2="207"/><line style="stroke:#A80036;stroke-width:1.5;" x1="86" x2="188" y1="215" y2="215"/><text fill="#000000" font-family="sans-serif" font-size="11" lengthAdjust="spacingAndGlyphs" textLength="92" x="91" y="230.4189">+openConnection()</text><text fill="#000000" font-family="sans-serif" font-size="11" lengthAdjust="spacingAndGlyphs" textLength="52" x="91" y="244.2549">+closeAll()</text><!--MD5=[f72517c501e7c82bfe817533034f2e49]
class UserDB--><rect codeLine="77" fill="#FEFECE" filter="url(#fwf6s0sxtrvv4)" height="75.6719" id="UserDB" style="stroke:#A80036;stroke-width:1.5;" width="210" x="32" y="312"/><ellipse cx="110.75" cy="328" fill="#ADD1B2" rx="11" ry="11" style="stroke:#A80036;stroke-width:1.0;"/><path d="M112.75,324.5 Q112.9531,324 113.1875,323.75 Q113.4219,323.5 113.6875,323.5 Q114.1563,323.5 114.4531,323.7813 Q114.75,324.0625 114.75,324.7188 L114.75,326.2813 Q114.75,326.9375 114.4688,327.2188 Q114.1875,327.5 113.75,327.5 Q113.3594,327.5 113.1094,327.3281 Q112.8594,327.1563 112.75,326.7031 Q112.7031,326.3906 112.5313,326.2188 Q112.2188,325.8906 111.6563,325.7031 Q111.0938,325.5 110.5313,325.5 Q109.8281,325.5 109.2344,325.7813 Q108.6563,326.0625 108.2031,326.6875 Q107.75,327.3125 107.75,328.1719 L107.75,329.0938 Q107.75,330.125 108.5938,330.8125 Q109.4375,331.5 110.9375,331.5 Q111.8281,331.5 112.4531,331.2969 Q112.8125,331.1875 113.2188,330.8281 Q113.4844,330.625 113.625,330.5625 Q113.7656,330.5 113.9375,330.5 Q114.2656,330.5 114.5,330.7656 Q114.75,331.0156 114.75,331.375 Q114.75,331.7188 114.4063,332.125 Q113.9063,332.7188 113.1094,333.0469 Q112.0625,333.5 110.7813,333.5 Q109.2813,333.5 108.0781,332.9063 Q107.1094,332.4375 106.4219,331.4219 Q105.75,330.4063 105.75,329.2031 L105.75,328.1094 Q105.75,326.8594 106.3438,325.7656 Q106.9531,324.6719 108,324.0938 Q109.0625,323.5 110.25,323.5 Q110.9688,323.5 111.5938,323.75 Q112.2188,324 112.75,324.5 Z " fill="#000000"/><text fill="#000000" font-family="sans-serif" font-size="12" lengthAdjust="spacingAndGlyphs" textLength="44" x="131.25" y="332.9102">UserDB</text><line style="stroke:#A80036;stroke-width:1.5;" x1="33" x2="241" y1="344" y2="344"/><line style="stroke:#A80036;stroke-width:1.5;" x1="33" x2="241" y1="352" y2="352"/><text fill="#000000" font-family="sans-serif" font-size="11" lengthAdjust="spacingAndGlyphs" textLength="113" x="38" y="367.4189">+login(email,password)</text><text fill="#000000" font-family="sans-serif" font-size="11" lengthAdjust="spacingAndGlyphs" textLength="198" x="38" y="381.2549">+checkIfUserExistsInDB(user,password)</text><!--MD5=[c840dcc083a700c3ead433bcdc35255f]
class EncryptPassword--><rect codeLine="66" fill="#FEFECE" filter="url(#fwf6s0sxtrvv4)" height="61.8359" id="EncryptPassword" style="stroke:#A80036;stroke-width:1.5;" width="184" x="174" y="877"/><ellipse cx="214.2" cy="893" fill="#ADD1B2" rx="11" ry="11" style="stroke:#A80036;stroke-width:1.0;"/><path d="M216.2,889.5 Q216.4031,889 216.6375,888.75 Q216.8719,888.5 217.1375,888.5 Q217.6063,888.5 217.9031,888.7813 Q218.2,889.0625 218.2,889.7188 L218.2,891.2813 Q218.2,891.9375 217.9188,892.2188 Q217.6375,892.5 217.2,892.5 Q216.8094,892.5 216.5594,892.3281 Q216.3094,892.1563 216.2,891.7031 Q216.1531,891.3906 215.9813,891.2188 Q215.6688,890.8906 215.1063,890.7031 Q214.5438,890.5 213.9813,890.5 Q213.2781,890.5 212.6844,890.7813 Q212.1063,891.0625 211.6531,891.6875 Q211.2,892.3125 211.2,893.1719 L211.2,894.0938 Q211.2,895.125 212.0438,895.8125 Q212.8875,896.5 214.3875,896.5 Q215.2781,896.5 215.9031,896.2969 Q216.2625,896.1875 216.6688,895.8281 Q216.9344,895.625 217.075,895.5625 Q217.2156,895.5 217.3875,895.5 Q217.7156,895.5 217.95,895.7656 Q218.2,896.0156 218.2,896.375 Q218.2,896.7188 217.8563,897.125 Q217.3563,897.7188 216.5594,898.0469 Q215.5125,898.5 214.2313,898.5 Q212.7313,898.5 211.5281,897.9063 Q210.5594,897.4375 209.8719,896.4219 Q209.2,895.4063 209.2,894.2031 L209.2,893.1094 Q209.2,891.8594 209.7938,890.7656 Q210.4031,889.6719 211.45,889.0938 Q212.5125,888.5 213.7,888.5 Q214.4188,888.5 215.0438,888.75 Q215.6688,889 216.2,889.5 Z " fill="#000000"/><text fill="#000000" font-family="sans-serif" font-size="12" lengthAdjust="spacingAndGlyphs" textLength="96" x="233.8" y="897.9102">EncryptPassword</text><line style="stroke:#A80036;stroke-width:1.5;" x1="175" x2="357" y1="909" y2="909"/><line style="stroke:#A80036;stroke-width:1.5;" x1="175" x2="357" y1="917" y2="917"/><text fill="#000000" font-family="sans-serif" font-size="11" lengthAdjust="spacingAndGlyphs" textLength="172" x="180" y="932.4189">+encryptPasswordMD5(password)</text><!--MD5=[6eb40b7e2b28e3e84cf68ec0bdf96d8e]
link LoginUI to LoginController--><path codeLine="73" d="M368,90.3 C368,113.64 368,149.86 368,176.73 " fill="none" id="LoginUI-to-LoginController" style="stroke:#A80036;stroke-width:1.0;stroke-dasharray:7.0,7.0;"/><polygon fill="#A80036" points="368,181.97,372,172.97,368,176.97,364,172.97,368,181.97" style="stroke:#A80036;stroke-width:1.0;"/><!--MD5=[69b36f574466151ecf750fcd3277da81]
link LoginController to ApplicationPOT--><path codeLine="74" d="M369.57,244.3 C370.52,262.64 371.75,286.32 372.8,306.52 " fill="none" id="LoginController-to-ApplicationPOT" style="stroke:#A80036;stroke-width:1.0;stroke-dasharray:7.0,7.0;"/><polygon fill="#A80036" points="373.06,311.57,376.5925,302.3764,372.8032,306.5766,368.603,302.7873,373.06,311.57" style="stroke:#A80036;stroke-width:1.0;"/><!--MD5=[75e78a9ba6e8039411244d38d087e98b]
link LoginController to UserDB--><path codeLine="75" d="M316.45,244.13 C283.61,263.32 240.72,288.39 205.09,309.2 " fill="none" id="LoginController-to-UserDB" style="stroke:#A80036;stroke-width:1.0;stroke-dasharray:7.0,7.0;"/><polygon fill="#A80036" points="200.34,311.98,210.1299,310.9043,204.6599,309.4624,206.1018,303.9924,200.34,311.98" style="stroke:#A80036;stroke-width:1.0;"/><!--MD5=[54faeaf6202ca84118f5e1aed125f33a]
link UserDB to UserSession--><path codeLine="76" d="M164.36,388.33 C185.22,416.79 213.96,455.99 235.55,485.46 " fill="none" id="UserDB-to-UserSession" style="stroke:#A80036;stroke-width:1.0;"/><polygon fill="#A80036" points="238.68,489.73,236.5952,480.1043,235.7281,485.6944,230.1381,484.8273,238.68,489.73" style="stroke:#A80036;stroke-width:1.0;"/><text fill="#000000" font-family="sans-serif" font-size="13" lengthAdjust="spacingAndGlyphs" textLength="43" x="198" y="434.4951">creates</text><text fill="#000000" font-family="sans-serif" font-size="13" lengthAdjust="spacingAndGlyphs" textLength="7" x="161.1627" y="409.2631">1</text><text fill="#000000" font-family="sans-serif" font-size="13" lengthAdjust="spacingAndGlyphs" textLength="5" x="228.3683" y="479.0438">*</text><!--MD5=[79cd5c28b7771b7b5adedcf51af82baa]
reverse link DataHandler to UserDB--><path d="M137,271.33 C137,285.05 137,299.34 137,311.87 " fill="none" id="DataHandler-backto-UserDB" style="stroke:#A80036;stroke-width:1.0;"/><polygon fill="none" points="130,271.25,137,251.25,144,271.25,130,271.25" style="stroke:#A80036;stroke-width:1.0;"/><!--MD5=[b9af1f772d12807ca45af06731b7d10f]
link ApplicationPOT to UserSession--><path codeLine="78" d="M351.88,388.33 C334.25,416.79 309.98,455.99 291.73,485.46 " fill="none" id="ApplicationPOT-to-UserSession" style="stroke:#A80036;stroke-width:1.0;"/><polygon fill="#A80036" points="289.08,489.73,297.2202,484.1859,291.7133,485.4796,290.4195,479.9727,289.08,489.73" style="stroke:#A80036;stroke-width:1.0;"/><text fill="#000000" font-family="sans-serif" font-size="13" lengthAdjust="spacingAndGlyphs" textLength="21" x="331" y="434.4951">has</text><text fill="#000000" font-family="sans-serif" font-size="13" lengthAdjust="spacingAndGlyphs" textLength="7" x="340.6374" y="409.2631">1</text><text fill="#000000" font-family="sans-serif" font-size="13" lengthAdjust="spacingAndGlyphs" textLength="7" x="285.5677" y="479.0438">1</text><!--MD5=[261a9f975a95b8b9805b87baf77053d0]
link UserSession to User--><path codeLine="79" d="M266,566.19 C266,587.09 266,613.86 266,638.53 " fill="none" id="UserSession-to-User" style="stroke:#A80036;stroke-width:1.0;"/><polygon fill="#A80036" points="266,643.76,270,634.76,266,638.76,262,634.76,266,643.76" style="stroke:#A80036;stroke-width:1.0;"/><text fill="#000000" font-family="sans-serif" font-size="13" lengthAdjust="spacingAndGlyphs" textLength="52" x="267" y="610.4951">allocates</text><text fill="#000000" font-family="sans-serif" font-size="13" lengthAdjust="spacingAndGlyphs" textLength="7" x="258.4422" y="587.1008">1</text><text fill="#000000" font-family="sans-serif" font-size="13" lengthAdjust="spacingAndGlyphs" textLength="7" x="258.6172" y="633.2082">1</text><!--MD5=[f3011274975ebac28a81eb7ea4ca3cdc]
link User to EncryptPassword--><path codeLine="80" d="M266,775.11 C266,807.2 266,844.74 266,871.54 " fill="none" id="User-to-EncryptPassword" style="stroke:#A80036;stroke-width:1.0;stroke-dasharray:7.0,7.0;"/><polygon fill="#A80036" points="266,876.75,270,867.75,266,871.75,262,867.75,266,876.75" style="stroke:#A80036;stroke-width:1.0;"/><text fill="#000000" font-family="sans-serif" font-size="13" lengthAdjust="spacingAndGlyphs" textLength="85" x="267" y="821.4951">encrypts using</text><!--MD5=[29d1604e3b7d863720e67de296b29368]
@startuml
skinparam classAttributeIconSize 0


package "Controller" #DDDDDD {
class ApplicationPOT
{
  +static getInstance()
  +setCurrentSession(session)
}
}


package "UI" #DDDDDD {
class LoginUI{

}
}


package "Controller" #DDDDDD {
class LoginController{
+login(email,password)
}
}






package "Model" #DDDDDD {
abstract class User{
-Integer id
-String email
-String password
-Integer nif
-String name
+User(email,password,nif,name)
}

class UserSession{
-String email
+UserSession(email,role)
}




}


package "Data" #DDDDDD {
class DataHandler{
+openConnection()
+closeAll()
}

 class UserDB{
 +login(email,password)
 +checkIfUserExistsInDB(user,password)
 }

}

package "Utils" #DDDDDD {
class EncryptPassword {
+encryptPasswordMD5(password)
}

}


LoginUI ..> LoginController
LoginController ..> ApplicationPOT
LoginController ..> UserDB
UserDB "1" - -> "*" UserSession : creates
class UserDB extends DataHandler
ApplicationPOT "1" - -> "1" UserSession : has
UserSession "1" - -> "1" User : allocates
User ..> EncryptPassword : encrypts using

@enduml

PlantUML version 1.2020.23(Sun Dec 13 19:14:58 GMT 2020)
(GPL source distribution)
Java Runtime: OpenJDK Runtime Environment
JVM: OpenJDK 64-Bit Server VM
Default Encoding: Cp1252
Language: pt
Country: PT
--></g></svg>