<?xml version="1.0" encoding="UTF-8" standalone="no"?><svg xmlns="http://www.w3.org/2000/svg" xmlns:xlink="http://www.w3.org/1999/xlink" contentScriptType="application/ecmascript" contentStyleType="text/css" height="432px" preserveAspectRatio="none" style="width:941px;height:432px;" version="1.1" viewBox="0 0 941 432" width="941px" zoomAndPan="magnify"><defs><filter height="300%" id="f7cvwv15en7oc" width="300%" x="-1" y="-1"><feGaussianBlur result="blurOut" stdDeviation="2.0"/><feColorMatrix in="blurOut" result="blurOut2" type="matrix" values="0 0 0 0 0 0 0 0 0 0 0 0 0 0 0 0 0 0 .4 0"/><feOffset dx="4.0" dy="4.0" in="blurOut2" result="blurOut3"/><feBlend in="SourceGraphic" in2="blurOut3" mode="normal"/></filter></defs><g><!--MD5=[fa1e3283224feb76407c84b7e90ed808]
entity Database--><path d="M6,251.5 C6,241.5 46.5,241.5 46.5,241.5 C46.5,241.5 87,241.5 87,251.5 L87,278.1094 C87,288.1094 46.5,288.1094 46.5,288.1094 C46.5,288.1094 6,288.1094 6,278.1094 L6,251.5 " fill="#FFFFFF" filter="url(#f7cvwv15en7oc)" style="stroke:#000000;stroke-width:1.5;"/><path d="M6,251.5 C6,261.5 46.5,261.5 46.5,261.5 C46.5,261.5 87,261.5 87,251.5 " fill="none" style="stroke:#000000;stroke-width:1.5;"/><text fill="#000000" font-family="sans-serif" font-size="14" lengthAdjust="spacing" textLength="61" x="16" y="280.0332">Database</text><!--MD5=[7f2a9fafcebe4f099f71398fd3e2ed00]
class Pharmacy--><rect codeLine="8" fill="#FEFECE" filter="url(#f7cvwv15en7oc)" height="67.6719" id="Pharmacy" style="stroke:#A80036;stroke-width:1.5;" width="87" x="393.5" y="186"/><ellipse cx="408.5" cy="202" fill="#ADD1B2" rx="11" ry="11" style="stroke:#A80036;stroke-width:1.0;"/><path d="M410.5,198.5 Q410.7031,198 410.9375,197.75 Q411.1719,197.5 411.4375,197.5 Q411.9063,197.5 412.2031,197.7813 Q412.5,198.0625 412.5,198.7188 L412.5,200.2813 Q412.5,200.9375 412.2188,201.2188 Q411.9375,201.5 411.5,201.5 Q411.1094,201.5 410.8594,201.3281 Q410.6094,201.1563 410.5,200.7031 Q410.4531,200.3906 410.2813,200.2188 Q409.9688,199.8906 409.4063,199.7031 Q408.8438,199.5 408.2813,199.5 Q407.5781,199.5 406.9844,199.7813 Q406.4063,200.0625 405.9531,200.6875 Q405.5,201.3125 405.5,202.1719 L405.5,203.0938 Q405.5,204.125 406.3438,204.8125 Q407.1875,205.5 408.6875,205.5 Q409.5781,205.5 410.2031,205.2969 Q410.5625,205.1875 410.9688,204.8281 Q411.2344,204.625 411.375,204.5625 Q411.5156,204.5 411.6875,204.5 Q412.0156,204.5 412.25,204.7656 Q412.5,205.0156 412.5,205.375 Q412.5,205.7188 412.1563,206.125 Q411.6563,206.7188 410.8594,207.0469 Q409.8125,207.5 408.5313,207.5 Q407.0313,207.5 405.8281,206.9063 Q404.8594,206.4375 404.1719,205.4219 Q403.5,204.4063 403.5,203.2031 L403.5,202.1094 Q403.5,200.8594 404.0938,199.7656 Q404.7031,198.6719 405.75,198.0938 Q406.8125,197.5 408,197.5 Q408.7188,197.5 409.3438,197.75 Q409.9688,198 410.5,198.5 Z " fill="#000000"/><text fill="#000000" font-family="sans-serif" font-size="12" lengthAdjust="spacing" textLength="55" x="422.5" y="206.9102">Pharmacy</text><line style="stroke:#A80036;stroke-width:1.5;" x1="394.5" x2="479.5" y1="218" y2="218"/><text fill="#000000" font-family="sans-serif" font-size="11" lengthAdjust="spacing" textLength="26" x="399.5" y="233.4189">-int id</text><text fill="#000000" font-family="sans-serif" font-size="11" lengthAdjust="spacing" textLength="61" x="399.5" y="247.2549">-String name</text><!--MD5=[b024fca8ac3dd8106de85a4004acf2e0]
class DronePark--><rect codeLine="13" fill="#FEFECE" filter="url(#f7cvwv15en7oc)" height="53.8359" id="DronePark" style="stroke:#A80036;stroke-width:1.5;" width="111" x="582" y="62"/><ellipse cx="606" cy="78" fill="#ADD1B2" rx="11" ry="11" style="stroke:#A80036;stroke-width:1.0;"/><path d="M608,74.5 Q608.2031,74 608.4375,73.75 Q608.6719,73.5 608.9375,73.5 Q609.4063,73.5 609.7031,73.7813 Q610,74.0625 610,74.7188 L610,76.2813 Q610,76.9375 609.7188,77.2188 Q609.4375,77.5 609,77.5 Q608.6094,77.5 608.3594,77.3281 Q608.1094,77.1563 608,76.7031 Q607.9531,76.3906 607.7813,76.2188 Q607.4688,75.8906 606.9063,75.7031 Q606.3438,75.5 605.7813,75.5 Q605.0781,75.5 604.4844,75.7813 Q603.9063,76.0625 603.4531,76.6875 Q603,77.3125 603,78.1719 L603,79.0938 Q603,80.125 603.8438,80.8125 Q604.6875,81.5 606.1875,81.5 Q607.0781,81.5 607.7031,81.2969 Q608.0625,81.1875 608.4688,80.8281 Q608.7344,80.625 608.875,80.5625 Q609.0156,80.5 609.1875,80.5 Q609.5156,80.5 609.75,80.7656 Q610,81.0156 610,81.375 Q610,81.7188 609.6563,82.125 Q609.1563,82.7188 608.3594,83.0469 Q607.3125,83.5 606.0313,83.5 Q604.5313,83.5 603.3281,82.9063 Q602.3594,82.4375 601.6719,81.4219 Q601,80.4063 601,79.2031 L601,78.1094 Q601,76.8594 601.5938,75.7656 Q602.2031,74.6719 603.25,74.0938 Q604.3125,73.5 605.5,73.5 Q606.2188,73.5 606.8438,73.75 Q607.4688,74 608,74.5 Z " fill="#000000"/><text fill="#000000" font-family="sans-serif" font-size="12" lengthAdjust="spacing" textLength="59" x="622" y="82.9102">DronePark</text><line style="stroke:#A80036;stroke-width:1.5;" x1="583" x2="692" y1="94" y2="94"/><text fill="#000000" font-family="sans-serif" font-size="11" lengthAdjust="spacing" textLength="99" x="588" y="109.4189">-int maxSlotsNumber</text><!--MD5=[fbe13b0c274c50d99f674380efb6c2c4]
class DroneChargingSlot--><rect codeLine="17" fill="#FEFECE" filter="url(#f7cvwv15en7oc)" height="67.6719" id="DroneChargingSlot" style="stroke:#A80036;stroke-width:1.5;" width="138" x="789" y="7"/><ellipse cx="804" cy="23" fill="#ADD1B2" rx="11" ry="11" style="stroke:#A80036;stroke-width:1.0;"/><path d="M806,19.5 Q806.2031,19 806.4375,18.75 Q806.6719,18.5 806.9375,18.5 Q807.4063,18.5 807.7031,18.7813 Q808,19.0625 808,19.7188 L808,21.2813 Q808,21.9375 807.7188,22.2188 Q807.4375,22.5 807,22.5 Q806.6094,22.5 806.3594,22.3281 Q806.1094,22.1563 806,21.7031 Q805.9531,21.3906 805.7813,21.2188 Q805.4688,20.8906 804.9063,20.7031 Q804.3438,20.5 803.7813,20.5 Q803.0781,20.5 802.4844,20.7813 Q801.9063,21.0625 801.4531,21.6875 Q801,22.3125 801,23.1719 L801,24.0938 Q801,25.125 801.8438,25.8125 Q802.6875,26.5 804.1875,26.5 Q805.0781,26.5 805.7031,26.2969 Q806.0625,26.1875 806.4688,25.8281 Q806.7344,25.625 806.875,25.5625 Q807.0156,25.5 807.1875,25.5 Q807.5156,25.5 807.75,25.7656 Q808,26.0156 808,26.375 Q808,26.7188 807.6563,27.125 Q807.1563,27.7188 806.3594,28.0469 Q805.3125,28.5 804.0313,28.5 Q802.5313,28.5 801.3281,27.9063 Q800.3594,27.4375 799.6719,26.4219 Q799,25.4063 799,24.2031 L799,23.1094 Q799,21.8594 799.5938,20.7656 Q800.2031,19.6719 801.25,19.0938 Q802.3125,18.5 803.5,18.5 Q804.2188,18.5 804.8438,18.75 Q805.4688,19 806,19.5 Z " fill="#000000"/><text fill="#000000" font-family="sans-serif" font-size="12" lengthAdjust="spacing" textLength="106" x="818" y="27.9102">DroneChargingSlot</text><line style="stroke:#A80036;stroke-width:1.5;" x1="790" x2="926" y1="39" y2="39"/><text fill="#000000" font-family="sans-serif" font-size="11" lengthAdjust="spacing" textLength="26" x="795" y="54.4189">-int id</text><text fill="#000000" font-family="sans-serif" font-size="11" lengthAdjust="spacing" textLength="90" x="795" y="68.2549">-float outputPower</text><!--MD5=[9b53198e8727c85f4d6d8ebbe9b70e18]
class DroneParkingSlot--><rect codeLine="22" fill="#FEFECE" filter="url(#f7cvwv15en7oc)" height="53.8359" id="DroneParkingSlot" style="stroke:#A80036;stroke-width:1.5;" width="129" x="793.5" y="110"/><ellipse cx="808.5" cy="126" fill="#ADD1B2" rx="11" ry="11" style="stroke:#A80036;stroke-width:1.0;"/><path d="M810.5,122.5 Q810.7031,122 810.9375,121.75 Q811.1719,121.5 811.4375,121.5 Q811.9063,121.5 812.2031,121.7813 Q812.5,122.0625 812.5,122.7188 L812.5,124.2813 Q812.5,124.9375 812.2188,125.2188 Q811.9375,125.5 811.5,125.5 Q811.1094,125.5 810.8594,125.3281 Q810.6094,125.1563 810.5,124.7031 Q810.4531,124.3906 810.2813,124.2188 Q809.9688,123.8906 809.4063,123.7031 Q808.8438,123.5 808.2813,123.5 Q807.5781,123.5 806.9844,123.7813 Q806.4063,124.0625 805.9531,124.6875 Q805.5,125.3125 805.5,126.1719 L805.5,127.0938 Q805.5,128.125 806.3438,128.8125 Q807.1875,129.5 808.6875,129.5 Q809.5781,129.5 810.2031,129.2969 Q810.5625,129.1875 810.9688,128.8281 Q811.2344,128.625 811.375,128.5625 Q811.5156,128.5 811.6875,128.5 Q812.0156,128.5 812.25,128.7656 Q812.5,129.0156 812.5,129.375 Q812.5,129.7188 812.1563,130.125 Q811.6563,130.7188 810.8594,131.0469 Q809.8125,131.5 808.5313,131.5 Q807.0313,131.5 805.8281,130.9063 Q804.8594,130.4375 804.1719,129.4219 Q803.5,128.4063 803.5,127.2031 L803.5,126.1094 Q803.5,124.8594 804.0938,123.7656 Q804.7031,122.6719 805.75,122.0938 Q806.8125,121.5 808,121.5 Q808.7188,121.5 809.3438,121.75 Q809.9688,122 810.5,122.5 Z " fill="#000000"/><text fill="#000000" font-family="sans-serif" font-size="12" lengthAdjust="spacing" textLength="97" x="822.5" y="130.9102">DroneParkingSlot</text><line style="stroke:#A80036;stroke-width:1.5;" x1="794.5" x2="921.5" y1="142" y2="142"/><text fill="#000000" font-family="sans-serif" font-size="11" lengthAdjust="spacing" textLength="26" x="799.5" y="157.4189">-int id</text><!--MD5=[2e3f1e60e74253ff42e47f8bfdb04ee2]
class Drone--><rect codeLine="26" fill="#FEFECE" filter="url(#f7cvwv15en7oc)" height="40" id="Drone" style="stroke:#A80036;stroke-width:1.5;" width="66" x="183" y="290"/><ellipse cx="198" cy="306" fill="#ADD1B2" rx="11" ry="11" style="stroke:#A80036;stroke-width:1.0;"/><path d="M200,302.5 Q200.2031,302 200.4375,301.75 Q200.6719,301.5 200.9375,301.5 Q201.4063,301.5 201.7031,301.7813 Q202,302.0625 202,302.7188 L202,304.2813 Q202,304.9375 201.7188,305.2188 Q201.4375,305.5 201,305.5 Q200.6094,305.5 200.3594,305.3281 Q200.1094,305.1563 200,304.7031 Q199.9531,304.3906 199.7813,304.2188 Q199.4688,303.8906 198.9063,303.7031 Q198.3438,303.5 197.7813,303.5 Q197.0781,303.5 196.4844,303.7813 Q195.9063,304.0625 195.4531,304.6875 Q195,305.3125 195,306.1719 L195,307.0938 Q195,308.125 195.8438,308.8125 Q196.6875,309.5 198.1875,309.5 Q199.0781,309.5 199.7031,309.2969 Q200.0625,309.1875 200.4688,308.8281 Q200.7344,308.625 200.875,308.5625 Q201.0156,308.5 201.1875,308.5 Q201.5156,308.5 201.75,308.7656 Q202,309.0156 202,309.375 Q202,309.7188 201.6563,310.125 Q201.1563,310.7188 200.3594,311.0469 Q199.3125,311.5 198.0313,311.5 Q196.5313,311.5 195.3281,310.9063 Q194.3594,310.4375 193.6719,309.4219 Q193,308.4063 193,307.2031 L193,306.1094 Q193,304.8594 193.5938,303.7656 Q194.2031,302.6719 195.25,302.0938 Q196.3125,301.5 197.5,301.5 Q198.2188,301.5 198.8438,301.75 Q199.4688,302 200,302.5 Z " fill="#000000"/><text fill="#000000" font-family="sans-serif" font-size="12" lengthAdjust="spacing" textLength="34" x="212" y="310.9102">Drone</text><line style="stroke:#A80036;stroke-width:1.5;" x1="184" x2="248" y1="322" y2="322"/><!--MD5=[3aa0d89c6bfdcbf7f32042cedac57549]
class Vehicle--><rect codeLine="29" fill="#FEFECE" filter="url(#f7cvwv15en7oc)" height="95.3438" id="Vehicle" style="stroke:#A80036;stroke-width:1.5;" width="98" x="388" y="306.5"/><ellipse cx="414.7" cy="322.5" fill="#ADD1B2" rx="11" ry="11" style="stroke:#A80036;stroke-width:1.0;"/><path d="M416.7,319 Q416.9031,318.5 417.1375,318.25 Q417.3719,318 417.6375,318 Q418.1063,318 418.4031,318.2813 Q418.7,318.5625 418.7,319.2188 L418.7,320.7813 Q418.7,321.4375 418.4188,321.7188 Q418.1375,322 417.7,322 Q417.3094,322 417.0594,321.8281 Q416.8094,321.6563 416.7,321.2031 Q416.6531,320.8906 416.4813,320.7188 Q416.1688,320.3906 415.6063,320.2031 Q415.0438,320 414.4813,320 Q413.7781,320 413.1844,320.2813 Q412.6063,320.5625 412.1531,321.1875 Q411.7,321.8125 411.7,322.6719 L411.7,323.5938 Q411.7,324.625 412.5438,325.3125 Q413.3875,326 414.8875,326 Q415.7781,326 416.4031,325.7969 Q416.7625,325.6875 417.1688,325.3281 Q417.4344,325.125 417.575,325.0625 Q417.7156,325 417.8875,325 Q418.2156,325 418.45,325.2656 Q418.7,325.5156 418.7,325.875 Q418.7,326.2188 418.3563,326.625 Q417.8563,327.2188 417.0594,327.5469 Q416.0125,328 414.7313,328 Q413.2313,328 412.0281,327.4063 Q411.0594,326.9375 410.3719,325.9219 Q409.7,324.9063 409.7,323.7031 L409.7,322.6094 Q409.7,321.3594 410.2938,320.2656 Q410.9031,319.1719 411.95,318.5938 Q413.0125,318 414.2,318 Q414.9188,318 415.5438,318.25 Q416.1688,318.5 416.7,319 Z " fill="#000000"/><text fill="#000000" font-family="sans-serif" font-size="12" lengthAdjust="spacing" textLength="40" x="431.3" y="327.4102">Vehicle</text><line style="stroke:#A80036;stroke-width:1.5;" x1="389" x2="485" y1="338.5" y2="338.5"/><text fill="#000000" font-family="sans-serif" font-size="11" lengthAdjust="spacing" textLength="26" x="394" y="353.9189">-int id</text><text fill="#000000" font-family="sans-serif" font-size="11" lengthAdjust="spacing" textLength="67" x="394" y="367.7549">-float potency</text><text fill="#000000" font-family="sans-serif" font-size="11" lengthAdjust="spacing" textLength="61" x="394" y="381.5908">-float weight</text><text fill="#000000" font-family="sans-serif" font-size="11" lengthAdjust="spacing" textLength="86" x="394" y="395.4268">-float maxPayload</text><!--MD5=[79eb2d862cef9730b5f9dcab29e35f17]
class Battery--><rect codeLine="36" fill="#FEFECE" filter="url(#f7cvwv15en7oc)" height="95.3438" id="Battery" style="stroke:#A80036;stroke-width:1.5;" width="111" x="582" y="323.5"/><ellipse cx="615.9" cy="339.5" fill="#ADD1B2" rx="11" ry="11" style="stroke:#A80036;stroke-width:1.0;"/><path d="M617.9,336 Q618.1031,335.5 618.3375,335.25 Q618.5719,335 618.8375,335 Q619.3063,335 619.6031,335.2813 Q619.9,335.5625 619.9,336.2188 L619.9,337.7813 Q619.9,338.4375 619.6188,338.7188 Q619.3375,339 618.9,339 Q618.5094,339 618.2594,338.8281 Q618.0094,338.6563 617.9,338.2031 Q617.8531,337.8906 617.6813,337.7188 Q617.3688,337.3906 616.8063,337.2031 Q616.2438,337 615.6813,337 Q614.9781,337 614.3844,337.2813 Q613.8063,337.5625 613.3531,338.1875 Q612.9,338.8125 612.9,339.6719 L612.9,340.5938 Q612.9,341.625 613.7438,342.3125 Q614.5875,343 616.0875,343 Q616.9781,343 617.6031,342.7969 Q617.9625,342.6875 618.3688,342.3281 Q618.6344,342.125 618.775,342.0625 Q618.9156,342 619.0875,342 Q619.4156,342 619.65,342.2656 Q619.9,342.5156 619.9,342.875 Q619.9,343.2188 619.5563,343.625 Q619.0563,344.2188 618.2594,344.5469 Q617.2125,345 615.9313,345 Q614.4313,345 613.2281,344.4063 Q612.2594,343.9375 611.5719,342.9219 Q610.9,341.9063 610.9,340.7031 L610.9,339.6094 Q610.9,338.3594 611.4938,337.2656 Q612.1031,336.1719 613.15,335.5938 Q614.2125,335 615.4,335 Q616.1188,335 616.7438,335.25 Q617.3688,335.5 617.9,336 Z " fill="#000000"/><text fill="#000000" font-family="sans-serif" font-size="12" lengthAdjust="spacing" textLength="37" x="634.1" y="344.4102">Battery</text><line style="stroke:#A80036;stroke-width:1.5;" x1="583" x2="692" y1="355.5" y2="355.5"/><text fill="#000000" font-family="sans-serif" font-size="11" lengthAdjust="spacing" textLength="26" x="588" y="370.9189">-int id</text><text fill="#000000" font-family="sans-serif" font-size="11" lengthAdjust="spacing" textLength="84" x="588" y="384.7549">-float batteryPerc</text><text fill="#000000" font-family="sans-serif" font-size="11" lengthAdjust="spacing" textLength="94" x="588" y="398.5908">-int batteryCapacity</text><text fill="#000000" font-family="sans-serif" font-size="11" lengthAdjust="spacing" textLength="99" x="588" y="412.4268">-float batteryVoltage</text><!--MD5=[0f39e4cb6f03951afbf6d14bd2505654]
class Address--><rect codeLine="43" fill="#FEFECE" filter="url(#f7cvwv15en7oc)" height="136.8516" id="Address" style="stroke:#A80036;stroke-width:1.5;" width="106" x="584.5" y="151.5"/><ellipse cx="612.1" cy="167.5" fill="#ADD1B2" rx="11" ry="11" style="stroke:#A80036;stroke-width:1.0;"/><path d="M614.1,164 Q614.3031,163.5 614.5375,163.25 Q614.7719,163 615.0375,163 Q615.5063,163 615.8031,163.2813 Q616.1,163.5625 616.1,164.2188 L616.1,165.7813 Q616.1,166.4375 615.8188,166.7188 Q615.5375,167 615.1,167 Q614.7094,167 614.4594,166.8281 Q614.2094,166.6563 614.1,166.2031 Q614.0531,165.8906 613.8813,165.7188 Q613.5688,165.3906 613.0063,165.2031 Q612.4438,165 611.8813,165 Q611.1781,165 610.5844,165.2813 Q610.0063,165.5625 609.5531,166.1875 Q609.1,166.8125 609.1,167.6719 L609.1,168.5938 Q609.1,169.625 609.9438,170.3125 Q610.7875,171 612.2875,171 Q613.1781,171 613.8031,170.7969 Q614.1625,170.6875 614.5688,170.3281 Q614.8344,170.125 614.975,170.0625 Q615.1156,170 615.2875,170 Q615.6156,170 615.85,170.2656 Q616.1,170.5156 616.1,170.875 Q616.1,171.2188 615.7563,171.625 Q615.2563,172.2188 614.4594,172.5469 Q613.4125,173 612.1313,173 Q610.6313,173 609.4281,172.4063 Q608.4594,171.9375 607.7719,170.9219 Q607.1,169.9063 607.1,168.7031 L607.1,167.6094 Q607.1,166.3594 607.6938,165.2656 Q608.3031,164.1719 609.35,163.5938 Q610.4125,163 611.6,163 Q612.3188,163 612.9438,163.25 Q613.5688,163.5 614.1,164 Z " fill="#000000"/><text fill="#000000" font-family="sans-serif" font-size="12" lengthAdjust="spacing" textLength="46" x="628.9" y="172.4102">Address</text><line style="stroke:#A80036;stroke-width:1.5;" x1="585.5" x2="689.5" y1="183.5" y2="183.5"/><text fill="#000000" font-family="sans-serif" font-size="11" lengthAdjust="spacing" textLength="83" x="590.5" y="198.9189">-Double longitude</text><text fill="#000000" font-family="sans-serif" font-size="11" lengthAdjust="spacing" textLength="74" x="590.5" y="212.7549">-Double latitude</text><text fill="#000000" font-family="sans-serif" font-size="11" lengthAdjust="spacing" textLength="94" x="590.5" y="226.5908">-String doorNumber</text><text fill="#000000" font-family="sans-serif" font-size="11" lengthAdjust="spacing" textLength="90" x="590.5" y="240.4268">-String streetName</text><text fill="#000000" font-family="sans-serif" font-size="11" lengthAdjust="spacing" textLength="89" x="590.5" y="254.2627">-String postalCode</text><text fill="#000000" font-family="sans-serif" font-size="11" lengthAdjust="spacing" textLength="68" x="590.5" y="268.0986">-String locality</text><text fill="#000000" font-family="sans-serif" font-size="11" lengthAdjust="spacing" textLength="72" x="590.5" y="281.9346">-String country</text><!--MD5=[51d7b9a785c9fb041ca400474ed1d998]
link Database to Pharmacy--><path codeLine="55" d="M87.25,260.4 C160.84,251.87 317.66,233.71 393.36,224.94 " fill="none" id="Database-Pharmacy" style="stroke:#A80036;stroke-width:1.0;"/><polygon fill="#000000" points="207.9668,231.6004,198.6436,229.7219,199.32,235.5607,207.9668,231.6004" style="stroke:#000000;stroke-width:1.0;"/><text fill="#000000" font-family="sans-serif" font-size="13" lengthAdjust="spacing" textLength="21" x="212" y="237.4951">has</text><text fill="#000000" font-family="sans-serif" font-size="13" lengthAdjust="spacing" textLength="7" x="95.132" y="274.5668">1</text><text fill="#000000" font-family="sans-serif" font-size="13" lengthAdjust="spacing" textLength="5" x="380.4297" y="240.7176">*</text><!--MD5=[96117966725c1e8921b92ed7b1677b7b]
link Database to Drone--><path codeLine="56" d="M87.2,275.66 C116.41,283.51 155.63,294.05 182.88,301.37 " fill="none" id="Database-Drone" style="stroke:#A80036;stroke-width:1.0;"/><polygon fill="#000000" points="126.8287,276.4733,118.8562,271.2878,117.3308,276.9643,126.8287,276.4733" style="stroke:#000000;stroke-width:1.0;"/><text fill="#000000" font-family="sans-serif" font-size="13" lengthAdjust="spacing" textLength="21" x="131" y="280.4951">has</text><text fill="#000000" font-family="sans-serif" font-size="13" lengthAdjust="spacing" textLength="7" x="95.0731" y="292.545">1</text><text fill="#000000" font-family="sans-serif" font-size="13" lengthAdjust="spacing" textLength="5" x="170.0881" y="314.7658">*</text><!--MD5=[0b0bc9c7f03600b7866f5e5adba791e4]
link Drone to Pharmacy--><path codeLine="57" d="M249.03,301.52 C278.05,293.37 321.7,279.97 358,264 C369.81,258.8 382.16,252.35 393.46,246 " fill="none" id="Drone-Pharmacy" style="stroke:#A80036;stroke-width:1.0;"/><polygon fill="#000000" points="290.6671,253.3817,281.1698,253.884,283.2788,259.3704,290.6671,253.3817" style="stroke:#000000;stroke-width:1.0;"/><text fill="#000000" font-family="sans-serif" font-size="13" lengthAdjust="spacing" textLength="60" x="295" y="260.4951">belongs to</text><text fill="#000000" font-family="sans-serif" font-size="13" lengthAdjust="spacing" textLength="5" x="256.8022" y="314.9486">*</text><text fill="#000000" font-family="sans-serif" font-size="13" lengthAdjust="spacing" textLength="7" x="378.375" y="265.3973">1</text><!--MD5=[3f58d672939e81cd871f2f51e09decba]
link Drone to Vehicle--><path codeLine="58" d="M249.17,322.13 C258.68,325.38 269.17,328.63 279,331 C315.02,339.66 356.53,345.57 387.82,349.23 " fill="none" id="Drone-Vehicle" style="stroke:#A80036;stroke-width:1.0;"/><polygon fill="#000000" points="288.9071,323.1349,280.5938,318.5155,279.4663,324.2842,288.9071,323.1349" style="stroke:#000000;stroke-width:1.0;"/><text fill="#000000" font-family="sans-serif" font-size="13" lengthAdjust="spacing" textLength="64" x="293" y="327.4951">is a type of</text><text fill="#000000" font-family="sans-serif" font-size="13" lengthAdjust="spacing" textLength="5" x="256.9728" y="340.067">*</text><text fill="#000000" font-family="sans-serif" font-size="13" lengthAdjust="spacing" textLength="7" x="373.0826" y="363.2001">1</text><!--MD5=[074a56c4439d52c76e1cc7a8f9d070a4]
link Vehicle to Battery--><path codeLine="59" d="M486.05,358.12 C514.97,360.59 551.86,363.75 581.88,366.32 " fill="none" id="Vehicle-Battery" style="stroke:#A80036;stroke-width:1.0;"/><polygon fill="#000000" points="525.9818,351.6021,517.2202,347.9027,516.7191,353.7591,525.9818,351.6021" style="stroke:#000000;stroke-width:1.0;"/><text fill="#000000" font-family="sans-serif" font-size="13" lengthAdjust="spacing" textLength="21" x="530" y="356.4951">has</text><text fill="#000000" font-family="sans-serif" font-size="13" lengthAdjust="spacing" textLength="7" x="494.0967" y="373.4716">1</text><text fill="#000000" font-family="sans-serif" font-size="13" lengthAdjust="spacing" textLength="7" x="566.9358" y="380.2618">1</text><!--MD5=[89baec1bfb4a213750f7c61516e0a0f1]
link Pharmacy to Address--><path codeLine="60" d="M480.58,220 C511,220 552.09,220 584.46,220 " fill="none" id="Pharmacy-Address" style="stroke:#A80036;stroke-width:1.0;"/><polygon fill="#000000" points="526,211.1758,516.9549,208.2369,516.9549,214.1147,526,211.1758" style="stroke:#000000;stroke-width:1.0;"/><text fill="#000000" font-family="sans-serif" font-size="13" lengthAdjust="spacing" textLength="21" x="530" y="216.4951">has</text><text fill="#000000" font-family="sans-serif" font-size="13" lengthAdjust="spacing" textLength="7" x="488.3776" y="234.8764">1</text><text fill="#000000" font-family="sans-serif" font-size="13" lengthAdjust="spacing" textLength="7" x="569.5091" y="234.6553">1</text><!--MD5=[38e089e476d423925ff503e653533f7d]
link Pharmacy to DronePark--><path codeLine="61" d="M480.58,191.9 C514.53,169.49 561.78,138.31 595.35,116.16 " fill="none" id="Pharmacy-DronePark" style="stroke:#A80036;stroke-width:1.0;"/><polygon fill="#000000" points="525.1732,134.4218,516.0051,136.9509,519.2426,141.8568,525.1732,134.4218" style="stroke:#000000;stroke-width:1.0;"/><text fill="#000000" font-family="sans-serif" font-size="13" lengthAdjust="spacing" textLength="21" x="530" y="142.4951">has</text><text fill="#000000" font-family="sans-serif" font-size="13" lengthAdjust="spacing" textLength="7" x="488.3776" y="202.1223">1</text><text fill="#000000" font-family="sans-serif" font-size="13" lengthAdjust="spacing" textLength="7" x="578.3641" y="137.4028">1</text><!--MD5=[90d11682e395649ab5adc896502c3617]
link DronePark to DroneParkingSlot--><path codeLine="62" d="M693.07,100.99 C723.54,107.68 761.64,116.05 793.44,123.04 " fill="none" id="DronePark-DroneParkingSlot" style="stroke:#A80036;stroke-width:1.0;"/><polygon fill="#000000" points="732.8835,100.2486,724.6797,95.4374,723.4185,101.1783,732.8835,100.2486" style="stroke:#000000;stroke-width:1.0;"/><text fill="#000000" font-family="sans-serif" font-size="13" lengthAdjust="spacing" textLength="21" x="737" y="104.4951">has</text><text fill="#000000" font-family="sans-serif" font-size="13" lengthAdjust="spacing" textLength="7" x="701.0075" y="117.2059">1</text><text fill="#000000" font-family="sans-serif" font-size="13" lengthAdjust="spacing" textLength="7" x="778.5706" y="135.8758">1</text><!--MD5=[7536b4ac16cca54a78c22aa555a9c2ab]
link DronePark to DroneChargingSlot--><path codeLine="63" d="M693.07,77.01 C722.02,70.65 757.87,62.78 788.65,56.02 " fill="none" id="DronePark-DroneChargingSlot" style="stroke:#A80036;stroke-width:1.0;"/><polygon fill="#000000" points="732.8836,53.1033,723.4187,52.1729,724.6795,57.914,732.8836,53.1033" style="stroke:#000000;stroke-width:1.0;"/><text fill="#000000" font-family="sans-serif" font-size="13" lengthAdjust="spacing" textLength="21" x="737" y="59.4951">has</text><text fill="#000000" font-family="sans-serif" font-size="13" lengthAdjust="spacing" textLength="7" x="701.0075" y="90.0036">1</text><text fill="#000000" font-family="sans-serif" font-size="13" lengthAdjust="spacing" textLength="7" x="774.1373" y="71.9241">1</text><!--MD5=[1a9fa3d0a46468454a18ba39c3f34a49]
@startuml
skinparam classAttributeIconSize 0
hide methods
left to right direction

database Database {
}

class Pharmacy {
  -int id
  -String name
}

class DronePark{
-   int maxSlotsNumber
}

class DroneChargingSlot{
-   int id
-   float outputPower
}

class DroneParkingSlot{
-   int id
}

class Drone{
}

class Vehicle{
  -int id
  -float potency
  -float weight
  -float maxPayload
}

class Battery{
  -int id
  -float batteryPerc
  -int batteryCapacity
  -float batteryVoltage
}

class Address{
  -Double longitude
  -Double latitude
  -String doorNumber
  -String streetName
  -String postalCode
  -String locality
  -String country
}



Database "1" - - "*" Pharmacy : has >
Database "1" - - "*" Drone : has >
Drone "*" - - "1" Pharmacy : belongs to >
Drone "*" - - "1" Vehicle : is a type of >
Vehicle "1" - - "1" Battery : has >
Pharmacy "1" - - "1" Address : has >
Pharmacy "1" - - "1" DronePark : has >
DronePark "1" - - "1" DroneParkingSlot : has >
DronePark "1" - - "1" DroneChargingSlot : has >
@enduml

PlantUML version 1.2021.00(Sun Jan 10 10:25:05 GMT 2021)
(GPL source distribution)
Java Runtime: OpenJDK Runtime Environment
JVM: OpenJDK 64-Bit Server VM
Default Encoding: Cp1252
Language: pt
Country: PT
--></g></svg>