<?xml version="1.0" encoding="UTF-8" standalone="no"?><svg xmlns="http://www.w3.org/2000/svg" xmlns:xlink="http://www.w3.org/1999/xlink" contentScriptType="application/ecmascript" contentStyleType="text/css" height="531px" preserveAspectRatio="none" style="width:1429px;height:531px;" version="1.1" viewBox="0 0 1429 531" width="1429px" zoomAndPan="magnify"><defs><filter height="300%" id="fsmtv6pxd4bdn" width="300%" x="-1" y="-1"><feGaussianBlur result="blurOut" stdDeviation="2.0"/><feColorMatrix in="blurOut" result="blurOut2" type="matrix" values="0 0 0 0 0 0 0 0 0 0 0 0 0 0 0 0 0 0 .4 0"/><feOffset dx="4.0" dy="4.0" in="blurOut2" result="blurOut3"/><feBlend in="SourceGraphic" in2="blurOut3" mode="normal"/></filter></defs><g><!--MD5=[fa1e3283224feb76407c84b7e90ed808]
entity Database--><path d="M6,246 C6,236 46.5,236 46.5,236 C46.5,236 87,236 87,246 L87,272.6094 C87,282.6094 46.5,282.6094 46.5,282.6094 C46.5,282.6094 6,282.6094 6,272.6094 L6,246 " fill="#FFFFFF" filter="url(#fsmtv6pxd4bdn)" style="stroke: #000000; stroke-width: 1.5;"/><path d="M6,246 C6,256 46.5,256 46.5,256 C46.5,256 87,256 87,246 " fill="none" style="stroke: #000000; stroke-width: 1.5;"/><text fill="#000000" font-family="sans-serif" font-size="14" lengthAdjust="spacingAndGlyphs" textLength="61" x="16" y="274.5332">Database</text><!--MD5=[7f2a9fafcebe4f099f71398fd3e2ed00]
class Pharmacy--><rect fill="#FEFECE" filter="url(#fsmtv6pxd4bdn)" height="81.5078" id="Pharmacy" style="stroke: #A80036; stroke-width: 1.5;" width="87" x="675" y="183.5"/><ellipse cx="690" cy="199.5" fill="#ADD1B2" rx="11" ry="11" style="stroke: #A80036; stroke-width: 1.0;"/><path d="M692,196 Q692.2031,195.5 692.4375,195.25 Q692.6719,195 692.9375,195 Q693.4063,195 693.7031,195.2813 Q694,195.5625 694,196.2188 L694,197.7813 Q694,198.4375 693.7188,198.7188 Q693.4375,199 693,199 Q692.6094,199 692.3594,198.8281 Q692.1094,198.6563 692,198.2031 Q691.9531,197.8906 691.7813,197.7188 Q691.4688,197.3906 690.9063,197.2031 Q690.3438,197 689.7813,197 Q689.0781,197 688.4844,197.2813 Q687.9063,197.5625 687.4531,198.1875 Q687,198.8125 687,199.6719 L687,200.5938 Q687,201.625 687.8438,202.3125 Q688.6875,203 690.1875,203 Q691.0781,203 691.7031,202.7969 Q692.0625,202.6875 692.4688,202.3281 Q692.7344,202.125 692.875,202.0625 Q693.0156,202 693.1875,202 Q693.5156,202 693.75,202.2656 Q694,202.5156 694,202.875 Q694,203.2188 693.6563,203.625 Q693.1563,204.2188 692.3594,204.5469 Q691.3125,205 690.0313,205 Q688.5313,205 687.3281,204.4063 Q686.3594,203.9375 685.6719,202.9219 Q685,201.9063 685,200.7031 L685,199.6094 Q685,198.3594 685.5938,197.2656 Q686.2031,196.1719 687.25,195.5938 Q688.3125,195 689.5,195 Q690.2188,195 690.8438,195.25 Q691.4688,195.5 692,196 Z "/><text fill="#000000" font-family="sans-serif" font-size="12" lengthAdjust="spacingAndGlyphs" textLength="55" x="704" y="204.4102">Pharmacy</text><line style="stroke: #A80036; stroke-width: 1.5;" x1="676" x2="761" y1="215.5" y2="215.5"/><text fill="#000000" font-family="sans-serif" font-size="11" lengthAdjust="spacingAndGlyphs" textLength="26" x="681" y="230.9189">-int id</text><text fill="#000000" font-family="sans-serif" font-size="11" lengthAdjust="spacingAndGlyphs" textLength="61" x="681" y="244.7549">-String name</text><text fill="#000000" font-family="sans-serif" font-size="11" lengthAdjust="spacingAndGlyphs" textLength="59" x="681" y="258.5908">-String email</text><!--MD5=[d1eeb527b96f439f56c6bd12ac0dd707]
class Park--><rect fill="#FEFECE" filter="url(#fsmtv6pxd4bdn)" height="67.6719" id="Park" style="stroke: #A80036; stroke-width: 1.5;" width="139" x="869" y="46.5"/><ellipse cx="921.75" cy="62.5" fill="#ADD1B2" rx="11" ry="11" style="stroke: #A80036; stroke-width: 1.0;"/><path d="M923.75,59 Q923.9531,58.5 924.1875,58.25 Q924.4219,58 924.6875,58 Q925.1563,58 925.4531,58.2813 Q925.75,58.5625 925.75,59.2188 L925.75,60.7813 Q925.75,61.4375 925.4688,61.7188 Q925.1875,62 924.75,62 Q924.3594,62 924.1094,61.8281 Q923.8594,61.6563 923.75,61.2031 Q923.7031,60.8906 923.5313,60.7188 Q923.2188,60.3906 922.6563,60.2031 Q922.0938,60 921.5313,60 Q920.8281,60 920.2344,60.2813 Q919.6563,60.5625 919.2031,61.1875 Q918.75,61.8125 918.75,62.6719 L918.75,63.5938 Q918.75,64.625 919.5938,65.3125 Q920.4375,66 921.9375,66 Q922.8281,66 923.4531,65.7969 Q923.8125,65.6875 924.2188,65.3281 Q924.4844,65.125 924.625,65.0625 Q924.7656,65 924.9375,65 Q925.2656,65 925.5,65.2656 Q925.75,65.5156 925.75,65.875 Q925.75,66.2188 925.4063,66.625 Q924.9063,67.2188 924.1094,67.5469 Q923.0625,68 921.7813,68 Q920.2813,68 919.0781,67.4063 Q918.1094,66.9375 917.4219,65.9219 Q916.75,64.9063 916.75,63.7031 L916.75,62.6094 Q916.75,61.3594 917.3438,60.2656 Q917.9531,59.1719 919,58.5938 Q920.0625,58 921.25,58 Q921.9688,58 922.5938,58.25 Q923.2188,58.5 923.75,59 Z "/><text fill="#000000" font-family="sans-serif" font-size="12" lengthAdjust="spacingAndGlyphs" textLength="25" x="942.25" y="67.4102">Park</text><line style="stroke: #A80036; stroke-width: 1.5;" x1="870" x2="1007" y1="78.5" y2="78.5"/><text fill="#000000" font-family="sans-serif" font-size="11" lengthAdjust="spacingAndGlyphs" textLength="99" x="875" y="93.9189">-int maxSlotsNumber</text><text fill="#000000" font-family="sans-serif" font-size="11" lengthAdjust="spacingAndGlyphs" textLength="127" x="875" y="107.7549">-double totalOutputCorrent</text><!--MD5=[59d2374cee64c81d4b5b0eac02df9f3a]
class ChargingSlot--><rect fill="#FEFECE" filter="url(#fsmtv6pxd4bdn)" height="53.8359" id="ChargingSlot" style="stroke: #A80036; stroke-width: 1.5;" width="104" x="1302.5" y="8.5"/><ellipse cx="1317.5" cy="24.5" fill="#ADD1B2" rx="11" ry="11" style="stroke: #A80036; stroke-width: 1.0;"/><path d="M1319.5,21 Q1319.7031,20.5 1319.9375,20.25 Q1320.1719,20 1320.4375,20 Q1320.9063,20 1321.2031,20.2813 Q1321.5,20.5625 1321.5,21.2188 L1321.5,22.7813 Q1321.5,23.4375 1321.2188,23.7188 Q1320.9375,24 1320.5,24 Q1320.1094,24 1319.8594,23.8281 Q1319.6094,23.6563 1319.5,23.2031 Q1319.4531,22.8906 1319.2813,22.7188 Q1318.9688,22.3906 1318.4063,22.2031 Q1317.8438,22 1317.2813,22 Q1316.5781,22 1315.9844,22.2813 Q1315.4063,22.5625 1314.9531,23.1875 Q1314.5,23.8125 1314.5,24.6719 L1314.5,25.5938 Q1314.5,26.625 1315.3438,27.3125 Q1316.1875,28 1317.6875,28 Q1318.5781,28 1319.2031,27.7969 Q1319.5625,27.6875 1319.9688,27.3281 Q1320.2344,27.125 1320.375,27.0625 Q1320.5156,27 1320.6875,27 Q1321.0156,27 1321.25,27.2656 Q1321.5,27.5156 1321.5,27.875 Q1321.5,28.2188 1321.1563,28.625 Q1320.6563,29.2188 1319.8594,29.5469 Q1318.8125,30 1317.5313,30 Q1316.0313,30 1314.8281,29.4063 Q1313.8594,28.9375 1313.1719,27.9219 Q1312.5,26.9063 1312.5,25.7031 L1312.5,24.6094 Q1312.5,23.3594 1313.0938,22.2656 Q1313.7031,21.1719 1314.75,20.5938 Q1315.8125,20 1317,20 Q1317.7188,20 1318.3438,20.25 Q1318.9688,20.5 1319.5,21 Z "/><text fill="#000000" font-family="sans-serif" font-size="12" lengthAdjust="spacingAndGlyphs" textLength="72" x="1331.5" y="29.4102">ChargingSlot</text><line style="stroke: #A80036; stroke-width: 1.5;" x1="1303.5" x2="1405.5" y1="40.5" y2="40.5"/><text fill="#000000" font-family="sans-serif" font-size="11" lengthAdjust="spacingAndGlyphs" textLength="26" x="1308.5" y="55.9189">-int id</text><!--MD5=[941956f4bed192556f7b65756093b59d]
class NonChargingSlot--><rect fill="#FEFECE" filter="url(#fsmtv6pxd4bdn)" height="53.8359" id="NonChargingSlot" style="stroke: #A80036; stroke-width: 1.5;" width="127" x="1291" y="97.5"/><ellipse cx="1306" cy="113.5" fill="#ADD1B2" rx="11" ry="11" style="stroke: #A80036; stroke-width: 1.0;"/><path d="M1308,110 Q1308.2031,109.5 1308.4375,109.25 Q1308.6719,109 1308.9375,109 Q1309.4063,109 1309.7031,109.2813 Q1310,109.5625 1310,110.2188 L1310,111.7813 Q1310,112.4375 1309.7188,112.7188 Q1309.4375,113 1309,113 Q1308.6094,113 1308.3594,112.8281 Q1308.1094,112.6563 1308,112.2031 Q1307.9531,111.8906 1307.7813,111.7188 Q1307.4688,111.3906 1306.9063,111.2031 Q1306.3438,111 1305.7813,111 Q1305.0781,111 1304.4844,111.2813 Q1303.9063,111.5625 1303.4531,112.1875 Q1303,112.8125 1303,113.6719 L1303,114.5938 Q1303,115.625 1303.8438,116.3125 Q1304.6875,117 1306.1875,117 Q1307.0781,117 1307.7031,116.7969 Q1308.0625,116.6875 1308.4688,116.3281 Q1308.7344,116.125 1308.875,116.0625 Q1309.0156,116 1309.1875,116 Q1309.5156,116 1309.75,116.2656 Q1310,116.5156 1310,116.875 Q1310,117.2188 1309.6563,117.625 Q1309.1563,118.2188 1308.3594,118.5469 Q1307.3125,119 1306.0313,119 Q1304.5313,119 1303.3281,118.4063 Q1302.3594,117.9375 1301.6719,116.9219 Q1301,115.9063 1301,114.7031 L1301,113.6094 Q1301,112.3594 1301.5938,111.2656 Q1302.2031,110.1719 1303.25,109.5938 Q1304.3125,109 1305.5,109 Q1306.2188,109 1306.8438,109.25 Q1307.4688,109.5 1308,110 Z "/><text fill="#000000" font-family="sans-serif" font-size="12" lengthAdjust="spacingAndGlyphs" textLength="95" x="1320" y="118.4102">NonChargingSlot</text><line style="stroke: #A80036; stroke-width: 1.5;" x1="1292" x2="1417" y1="129.5" y2="129.5"/><text fill="#000000" font-family="sans-serif" font-size="11" lengthAdjust="spacingAndGlyphs" textLength="26" x="1297" y="144.9189">-int id</text><!--MD5=[6171c3a2f2c752b4019101857dc83635]
class ParkingSlot--><rect fill="#FEFECE" filter="url(#fsmtv6pxd4bdn)" height="53.8359" id="ParkingSlot" style="stroke: #A80036; stroke-width: 1.5;" width="95" x="1107.5" y="53.5"/><ellipse cx="1122.5" cy="69.5" fill="#ADD1B2" rx="11" ry="11" style="stroke: #A80036; stroke-width: 1.0;"/><path d="M1124.5,66 Q1124.7031,65.5 1124.9375,65.25 Q1125.1719,65 1125.4375,65 Q1125.9063,65 1126.2031,65.2813 Q1126.5,65.5625 1126.5,66.2188 L1126.5,67.7813 Q1126.5,68.4375 1126.2188,68.7188 Q1125.9375,69 1125.5,69 Q1125.1094,69 1124.8594,68.8281 Q1124.6094,68.6563 1124.5,68.2031 Q1124.4531,67.8906 1124.2813,67.7188 Q1123.9688,67.3906 1123.4063,67.2031 Q1122.8438,67 1122.2813,67 Q1121.5781,67 1120.9844,67.2813 Q1120.4063,67.5625 1119.9531,68.1875 Q1119.5,68.8125 1119.5,69.6719 L1119.5,70.5938 Q1119.5,71.625 1120.3438,72.3125 Q1121.1875,73 1122.6875,73 Q1123.5781,73 1124.2031,72.7969 Q1124.5625,72.6875 1124.9688,72.3281 Q1125.2344,72.125 1125.375,72.0625 Q1125.5156,72 1125.6875,72 Q1126.0156,72 1126.25,72.2656 Q1126.5,72.5156 1126.5,72.875 Q1126.5,73.2188 1126.1563,73.625 Q1125.6563,74.2188 1124.8594,74.5469 Q1123.8125,75 1122.5313,75 Q1121.0313,75 1119.8281,74.4063 Q1118.8594,73.9375 1118.1719,72.9219 Q1117.5,71.9063 1117.5,70.7031 L1117.5,69.6094 Q1117.5,68.3594 1118.0938,67.2656 Q1118.7031,66.1719 1119.75,65.5938 Q1120.8125,65 1122,65 Q1122.7188,65 1123.3438,65.25 Q1123.9688,65.5 1124.5,66 Z "/><text fill="#000000" font-family="sans-serif" font-size="12" lengthAdjust="spacingAndGlyphs" textLength="63" x="1136.5" y="74.4102">ParkingSlot</text><line style="stroke: #A80036; stroke-width: 1.5;" x1="1108.5" x2="1201.5" y1="85.5" y2="85.5"/><text fill="#000000" font-family="sans-serif" font-size="11" lengthAdjust="spacingAndGlyphs" textLength="26" x="1113.5" y="100.9189">-int id</text><!--MD5=[2e3f1e60e74253ff42e47f8bfdb04ee2]
class Drone--><rect fill="#FEFECE" filter="url(#fsmtv6pxd4bdn)" height="40" id="Drone" style="stroke: #A80036; stroke-width: 1.5;" width="66" x="183" y="289.5"/><ellipse cx="198" cy="305.5" fill="#ADD1B2" rx="11" ry="11" style="stroke: #A80036; stroke-width: 1.0;"/><path d="M200,302 Q200.2031,301.5 200.4375,301.25 Q200.6719,301 200.9375,301 Q201.4063,301 201.7031,301.2813 Q202,301.5625 202,302.2188 L202,303.7813 Q202,304.4375 201.7188,304.7188 Q201.4375,305 201,305 Q200.6094,305 200.3594,304.8281 Q200.1094,304.6563 200,304.2031 Q199.9531,303.8906 199.7813,303.7188 Q199.4688,303.3906 198.9063,303.2031 Q198.3438,303 197.7813,303 Q197.0781,303 196.4844,303.2813 Q195.9063,303.5625 195.4531,304.1875 Q195,304.8125 195,305.6719 L195,306.5938 Q195,307.625 195.8438,308.3125 Q196.6875,309 198.1875,309 Q199.0781,309 199.7031,308.7969 Q200.0625,308.6875 200.4688,308.3281 Q200.7344,308.125 200.875,308.0625 Q201.0156,308 201.1875,308 Q201.5156,308 201.75,308.2656 Q202,308.5156 202,308.875 Q202,309.2188 201.6563,309.625 Q201.1563,310.2188 200.3594,310.5469 Q199.3125,311 198.0313,311 Q196.5313,311 195.3281,310.4063 Q194.3594,309.9375 193.6719,308.9219 Q193,307.9063 193,306.7031 L193,305.6094 Q193,304.3594 193.5938,303.2656 Q194.2031,302.1719 195.25,301.5938 Q196.3125,301 197.5,301 Q198.2188,301 198.8438,301.25 Q199.4688,301.5 200,302 Z "/><text fill="#000000" font-family="sans-serif" font-size="12" lengthAdjust="spacingAndGlyphs" textLength="34" x="212" y="310.4102">Drone</text><line style="stroke: #A80036; stroke-width: 1.5;" x1="184" x2="248" y1="321.5" y2="321.5"/><!--MD5=[5e13c92683bb853a25438ed3edf51dc3]
class VehicleModel--><rect fill="#FEFECE" filter="url(#fsmtv6pxd4bdn)" height="109.1797" id="VehicleModel" style="stroke: #A80036; stroke-width: 1.5;" width="109" x="664" y="301"/><ellipse cx="680.8" cy="317" fill="#ADD1B2" rx="11" ry="11" style="stroke: #A80036; stroke-width: 1.0;"/><path d="M682.8,313.5 Q683.0031,313 683.2375,312.75 Q683.4719,312.5 683.7375,312.5 Q684.2063,312.5 684.5031,312.7813 Q684.8,313.0625 684.8,313.7188 L684.8,315.2813 Q684.8,315.9375 684.5188,316.2188 Q684.2375,316.5 683.8,316.5 Q683.4094,316.5 683.1594,316.3281 Q682.9094,316.1563 682.8,315.7031 Q682.7531,315.3906 682.5813,315.2188 Q682.2688,314.8906 681.7063,314.7031 Q681.1438,314.5 680.5813,314.5 Q679.8781,314.5 679.2844,314.7813 Q678.7063,315.0625 678.2531,315.6875 Q677.8,316.3125 677.8,317.1719 L677.8,318.0938 Q677.8,319.125 678.6438,319.8125 Q679.4875,320.5 680.9875,320.5 Q681.8781,320.5 682.5031,320.2969 Q682.8625,320.1875 683.2688,319.8281 Q683.5344,319.625 683.675,319.5625 Q683.8156,319.5 683.9875,319.5 Q684.3156,319.5 684.55,319.7656 Q684.8,320.0156 684.8,320.375 Q684.8,320.7188 684.4563,321.125 Q683.9563,321.7188 683.1594,322.0469 Q682.1125,322.5 680.8313,322.5 Q679.3313,322.5 678.1281,321.9063 Q677.1594,321.4375 676.4719,320.4219 Q675.8,319.4063 675.8,318.2031 L675.8,317.1094 Q675.8,315.8594 676.3938,314.7656 Q677.0031,313.6719 678.05,313.0938 Q679.1125,312.5 680.3,312.5 Q681.0188,312.5 681.6438,312.75 Q682.2688,313 682.8,313.5 Z "/><text fill="#000000" font-family="sans-serif" font-size="12" lengthAdjust="spacingAndGlyphs" textLength="73" x="695.2" y="321.9102">VehicleModel</text><line style="stroke: #A80036; stroke-width: 1.5;" x1="665" x2="772" y1="333" y2="333"/><text fill="#000000" font-family="sans-serif" font-size="11" lengthAdjust="spacingAndGlyphs" textLength="26" x="670" y="348.4189">-int id</text><text fill="#000000" font-family="sans-serif" font-size="11" lengthAdjust="spacingAndGlyphs" textLength="90" x="670" y="362.2549">-String desigantion</text><text fill="#000000" font-family="sans-serif" font-size="11" lengthAdjust="spacingAndGlyphs" textLength="78" x="670" y="376.0908">-double potency</text><text fill="#000000" font-family="sans-serif" font-size="11" lengthAdjust="spacingAndGlyphs" textLength="72" x="670" y="389.9268">-double weight</text><text fill="#000000" font-family="sans-serif" font-size="11" lengthAdjust="spacingAndGlyphs" textLength="97" x="670" y="403.7627">-double maxPayload</text><!--MD5=[9e8cdc57c56bad5cdfc47653c9df3022]
class VehicleType--><rect fill="#FEFECE" filter="url(#fsmtv6pxd4bdn)" height="53.8359" id="VehicleType" style="stroke: #A80036; stroke-width: 1.5;" width="102" x="1104" y="234.5"/><ellipse cx="1120.8" cy="250.5" fill="#ADD1B2" rx="11" ry="11" style="stroke: #A80036; stroke-width: 1.0;"/><path d="M1122.8,247 Q1123.0031,246.5 1123.2375,246.25 Q1123.4719,246 1123.7375,246 Q1124.2063,246 1124.5031,246.2813 Q1124.8,246.5625 1124.8,247.2188 L1124.8,248.7813 Q1124.8,249.4375 1124.5188,249.7188 Q1124.2375,250 1123.8,250 Q1123.4094,250 1123.1594,249.8281 Q1122.9094,249.6563 1122.8,249.2031 Q1122.7531,248.8906 1122.5813,248.7188 Q1122.2688,248.3906 1121.7063,248.2031 Q1121.1438,248 1120.5813,248 Q1119.8781,248 1119.2844,248.2813 Q1118.7063,248.5625 1118.2531,249.1875 Q1117.8,249.8125 1117.8,250.6719 L1117.8,251.5938 Q1117.8,252.625 1118.6438,253.3125 Q1119.4875,254 1120.9875,254 Q1121.8781,254 1122.5031,253.7969 Q1122.8625,253.6875 1123.2688,253.3281 Q1123.5344,253.125 1123.675,253.0625 Q1123.8156,253 1123.9875,253 Q1124.3156,253 1124.55,253.2656 Q1124.8,253.5156 1124.8,253.875 Q1124.8,254.2188 1124.4563,254.625 Q1123.9563,255.2188 1123.1594,255.5469 Q1122.1125,256 1120.8313,256 Q1119.3313,256 1118.1281,255.4063 Q1117.1594,254.9375 1116.4719,253.9219 Q1115.8,252.9063 1115.8,251.7031 L1115.8,250.6094 Q1115.8,249.3594 1116.3938,248.2656 Q1117.0031,247.1719 1118.05,246.5938 Q1119.1125,246 1120.3,246 Q1121.0188,246 1121.6438,246.25 Q1122.2688,246.5 1122.8,247 Z "/><text fill="#000000" font-family="sans-serif" font-size="12" lengthAdjust="spacingAndGlyphs" textLength="66" x="1135.2" y="255.4102">VehicleType</text><line style="stroke: #A80036; stroke-width: 1.5;" x1="1105" x2="1205" y1="266.5" y2="266.5"/><text fill="#000000" font-family="sans-serif" font-size="11" lengthAdjust="spacingAndGlyphs" textLength="90" x="1110" y="281.9189">-String desigantion</text><!--MD5=[3aa0d89c6bfdcbf7f32042cedac57549]
class Vehicle--><rect fill="#FEFECE" filter="url(#fsmtv6pxd4bdn)" height="67.6719" id="Vehicle" style="stroke: #A80036; stroke-width: 1.5;" width="107" x="388" y="299.5"/><ellipse cx="418.75" cy="315.5" fill="#ADD1B2" rx="11" ry="11" style="stroke: #A80036; stroke-width: 1.0;"/><path d="M420.75,312 Q420.9531,311.5 421.1875,311.25 Q421.4219,311 421.6875,311 Q422.1563,311 422.4531,311.2813 Q422.75,311.5625 422.75,312.2188 L422.75,313.7813 Q422.75,314.4375 422.4688,314.7188 Q422.1875,315 421.75,315 Q421.3594,315 421.1094,314.8281 Q420.8594,314.6563 420.75,314.2031 Q420.7031,313.8906 420.5313,313.7188 Q420.2188,313.3906 419.6563,313.2031 Q419.0938,313 418.5313,313 Q417.8281,313 417.2344,313.2813 Q416.6563,313.5625 416.2031,314.1875 Q415.75,314.8125 415.75,315.6719 L415.75,316.5938 Q415.75,317.625 416.5938,318.3125 Q417.4375,319 418.9375,319 Q419.8281,319 420.4531,318.7969 Q420.8125,318.6875 421.2188,318.3281 Q421.4844,318.125 421.625,318.0625 Q421.7656,318 421.9375,318 Q422.2656,318 422.5,318.2656 Q422.75,318.5156 422.75,318.875 Q422.75,319.2188 422.4063,319.625 Q421.9063,320.2188 421.1094,320.5469 Q420.0625,321 418.7813,321 Q417.2813,321 416.0781,320.4063 Q415.1094,319.9375 414.4219,318.9219 Q413.75,317.9063 413.75,316.7031 L413.75,315.6094 Q413.75,314.3594 414.3438,313.2656 Q414.9531,312.1719 416,311.5938 Q417.0625,311 418.25,311 Q418.9688,311 419.5938,311.25 Q420.2188,311.5 420.75,312 Z "/><text fill="#000000" font-family="sans-serif" font-size="12" lengthAdjust="spacingAndGlyphs" textLength="40" x="436.25" y="320.4102">Vehicle</text><line style="stroke: #A80036; stroke-width: 1.5;" x1="389" x2="494" y1="331.5" y2="331.5"/><text fill="#000000" font-family="sans-serif" font-size="11" lengthAdjust="spacingAndGlyphs" textLength="26" x="394" y="346.9189">-int id</text><text fill="#000000" font-family="sans-serif" font-size="11" lengthAdjust="spacingAndGlyphs" textLength="95" x="394" y="360.7549">-double batteryPerc</text><!--MD5=[79eb2d862cef9730b5f9dcab29e35f17]
class Battery--><rect fill="#FEFECE" filter="url(#fsmtv6pxd4bdn)" height="95.3438" id="Battery" style="stroke: #A80036; stroke-width: 1.5;" width="122" x="877.5" y="425"/><ellipse cx="916.35" cy="441" fill="#ADD1B2" rx="11" ry="11" style="stroke: #A80036; stroke-width: 1.0;"/><path d="M918.35,437.5 Q918.5531,437 918.7875,436.75 Q919.0219,436.5 919.2875,436.5 Q919.7563,436.5 920.0531,436.7813 Q920.35,437.0625 920.35,437.7188 L920.35,439.2813 Q920.35,439.9375 920.0688,440.2188 Q919.7875,440.5 919.35,440.5 Q918.9594,440.5 918.7094,440.3281 Q918.4594,440.1563 918.35,439.7031 Q918.3031,439.3906 918.1313,439.2188 Q917.8188,438.8906 917.2563,438.7031 Q916.6938,438.5 916.1313,438.5 Q915.4281,438.5 914.8344,438.7813 Q914.2563,439.0625 913.8031,439.6875 Q913.35,440.3125 913.35,441.1719 L913.35,442.0938 Q913.35,443.125 914.1938,443.8125 Q915.0375,444.5 916.5375,444.5 Q917.4281,444.5 918.0531,444.2969 Q918.4125,444.1875 918.8188,443.8281 Q919.0844,443.625 919.225,443.5625 Q919.3656,443.5 919.5375,443.5 Q919.8656,443.5 920.1,443.7656 Q920.35,444.0156 920.35,444.375 Q920.35,444.7188 920.0063,445.125 Q919.5063,445.7188 918.7094,446.0469 Q917.6625,446.5 916.3813,446.5 Q914.8813,446.5 913.6781,445.9063 Q912.7094,445.4375 912.0219,444.4219 Q911.35,443.4063 911.35,442.2031 L911.35,441.1094 Q911.35,439.8594 911.9438,438.7656 Q912.5531,437.6719 913.6,437.0938 Q914.6625,436.5 915.85,436.5 Q916.5688,436.5 917.1938,436.75 Q917.8188,437 918.35,437.5 Z "/><text fill="#000000" font-family="sans-serif" font-size="12" lengthAdjust="spacingAndGlyphs" textLength="37" x="935.65" y="445.9102">Battery</text><line style="stroke: #A80036; stroke-width: 1.5;" x1="878.5" x2="998.5" y1="457" y2="457"/><text fill="#000000" font-family="sans-serif" font-size="11" lengthAdjust="spacingAndGlyphs" textLength="26" x="883.5" y="472.4189">-int id</text><text fill="#000000" font-family="sans-serif" font-size="11" lengthAdjust="spacingAndGlyphs" textLength="94" x="883.5" y="486.2549">-int batteryCapacity</text><text fill="#000000" font-family="sans-serif" font-size="11" lengthAdjust="spacingAndGlyphs" textLength="110" x="883.5" y="500.0908">-double batteryVoltage</text><text fill="#000000" font-family="sans-serif" font-size="11" lengthAdjust="spacingAndGlyphs" textLength="87" x="883.5" y="513.9268">-double efficiency</text><!--MD5=[0f39e4cb6f03951afbf6d14bd2505654]
class Address--><rect fill="#FEFECE" filter="url(#fsmtv6pxd4bdn)" height="150.6875" id="Address" style="stroke: #A80036; stroke-width: 1.5;" width="106" x="885.5" y="150"/><ellipse cx="913.1" cy="166" fill="#ADD1B2" rx="11" ry="11" style="stroke: #A80036; stroke-width: 1.0;"/><path d="M915.1,162.5 Q915.3031,162 915.5375,161.75 Q915.7719,161.5 916.0375,161.5 Q916.5063,161.5 916.8031,161.7813 Q917.1,162.0625 917.1,162.7188 L917.1,164.2813 Q917.1,164.9375 916.8188,165.2188 Q916.5375,165.5 916.1,165.5 Q915.7094,165.5 915.4594,165.3281 Q915.2094,165.1563 915.1,164.7031 Q915.0531,164.3906 914.8813,164.2188 Q914.5688,163.8906 914.0063,163.7031 Q913.4438,163.5 912.8813,163.5 Q912.1781,163.5 911.5844,163.7813 Q911.0063,164.0625 910.5531,164.6875 Q910.1,165.3125 910.1,166.1719 L910.1,167.0938 Q910.1,168.125 910.9438,168.8125 Q911.7875,169.5 913.2875,169.5 Q914.1781,169.5 914.8031,169.2969 Q915.1625,169.1875 915.5688,168.8281 Q915.8344,168.625 915.975,168.5625 Q916.1156,168.5 916.2875,168.5 Q916.6156,168.5 916.85,168.7656 Q917.1,169.0156 917.1,169.375 Q917.1,169.7188 916.7563,170.125 Q916.2563,170.7188 915.4594,171.0469 Q914.4125,171.5 913.1313,171.5 Q911.6313,171.5 910.4281,170.9063 Q909.4594,170.4375 908.7719,169.4219 Q908.1,168.4063 908.1,167.2031 L908.1,166.1094 Q908.1,164.8594 908.6938,163.7656 Q909.3031,162.6719 910.35,162.0938 Q911.4125,161.5 912.6,161.5 Q913.3188,161.5 913.9438,161.75 Q914.5688,162 915.1,162.5 Z "/><text fill="#000000" font-family="sans-serif" font-size="12" lengthAdjust="spacingAndGlyphs" textLength="46" x="929.9" y="170.9102">Address</text><line style="stroke: #A80036; stroke-width: 1.5;" x1="886.5" x2="990.5" y1="182" y2="182"/><text fill="#000000" font-family="sans-serif" font-size="11" lengthAdjust="spacingAndGlyphs" textLength="82" x="891.5" y="197.4189">-double longitude</text><text fill="#000000" font-family="sans-serif" font-size="11" lengthAdjust="spacingAndGlyphs" textLength="73" x="891.5" y="211.2549">-double latitude</text><text fill="#000000" font-family="sans-serif" font-size="11" lengthAdjust="spacingAndGlyphs" textLength="73" x="891.5" y="225.0908">-double altitude</text><text fill="#000000" font-family="sans-serif" font-size="11" lengthAdjust="spacingAndGlyphs" textLength="94" x="891.5" y="238.9268">-String doorNumber</text><text fill="#000000" font-family="sans-serif" font-size="11" lengthAdjust="spacingAndGlyphs" textLength="90" x="891.5" y="252.7627">-String streetName</text><text fill="#000000" font-family="sans-serif" font-size="11" lengthAdjust="spacingAndGlyphs" textLength="89" x="891.5" y="266.5986">-String postalCode</text><text fill="#000000" font-family="sans-serif" font-size="11" lengthAdjust="spacingAndGlyphs" textLength="68" x="891.5" y="280.4346">-String locality</text><text fill="#000000" font-family="sans-serif" font-size="11" lengthAdjust="spacingAndGlyphs" textLength="72" x="891.5" y="294.2705">-String country</text><!--MD5=[506621ed787cd332d48b035cccfe5c39]
class QRCode--><rect fill="#FEFECE" filter="url(#fsmtv6pxd4bdn)" height="40" id="QRCode" style="stroke: #A80036; stroke-width: 1.5;" width="80" x="678.5" y="445.5"/><ellipse cx="693.5" cy="461.5" fill="#ADD1B2" rx="11" ry="11" style="stroke: #A80036; stroke-width: 1.0;"/><path d="M695.5,458 Q695.7031,457.5 695.9375,457.25 Q696.1719,457 696.4375,457 Q696.9063,457 697.2031,457.2813 Q697.5,457.5625 697.5,458.2188 L697.5,459.7813 Q697.5,460.4375 697.2188,460.7188 Q696.9375,461 696.5,461 Q696.1094,461 695.8594,460.8281 Q695.6094,460.6563 695.5,460.2031 Q695.4531,459.8906 695.2813,459.7188 Q694.9688,459.3906 694.4063,459.2031 Q693.8438,459 693.2813,459 Q692.5781,459 691.9844,459.2813 Q691.4063,459.5625 690.9531,460.1875 Q690.5,460.8125 690.5,461.6719 L690.5,462.5938 Q690.5,463.625 691.3438,464.3125 Q692.1875,465 693.6875,465 Q694.5781,465 695.2031,464.7969 Q695.5625,464.6875 695.9688,464.3281 Q696.2344,464.125 696.375,464.0625 Q696.5156,464 696.6875,464 Q697.0156,464 697.25,464.2656 Q697.5,464.5156 697.5,464.875 Q697.5,465.2188 697.1563,465.625 Q696.6563,466.2188 695.8594,466.5469 Q694.8125,467 693.5313,467 Q692.0313,467 690.8281,466.4063 Q689.8594,465.9375 689.1719,464.9219 Q688.5,463.9063 688.5,462.7031 L688.5,461.6094 Q688.5,460.3594 689.0938,459.2656 Q689.7031,458.1719 690.75,457.5938 Q691.8125,457 693,457 Q693.7188,457 694.3438,457.25 Q694.9688,457.5 695.5,458 Z "/><text fill="#000000" font-family="sans-serif" font-size="12" lengthAdjust="spacingAndGlyphs" textLength="48" x="707.5" y="466.4102">QRCode</text><line style="stroke: #A80036; stroke-width: 1.5;" x1="679.5" x2="757.5" y1="477.5" y2="477.5"/><!--MD5=[51d7b9a785c9fb041ca400474ed1d998]
link Database to Pharmacy--><path d="M87.191,257.175 C96.9381,256.615 107.346,256.027 117,255.5 C326.256,244.077 576.594,231.506 674.903,226.612 " fill="none" id="Database-Pharmacy" style="stroke: #A80036; stroke-width: 1.0;"/><text fill="#000000" font-family="sans-serif" font-size="13" lengthAdjust="spacingAndGlyphs" textLength="21" x="301.5" y="238.9951">has</text><polygon fill="#000000" points="325.5,232.1758,331.5,235.1758,325.5,238.1758,325.5,232.1758" style="stroke: #000000; stroke-width: 1.0;"/><text fill="#000000" font-family="sans-serif" font-size="13" lengthAdjust="spacingAndGlyphs" textLength="7" x="95.0625" y="252.8971">1</text><text fill="#000000" font-family="sans-serif" font-size="13" lengthAdjust="spacingAndGlyphs" textLength="5" x="661.9801" y="241.9176">*</text><!--MD5=[96117966725c1e8921b92ed7b1677b7b]
link Database to Drone--><path d="M87.1952,271.349 C116.411,280.071 155.627,291.777 182.881,299.912 " fill="none" id="Database-Drone" style="stroke: #A80036; stroke-width: 1.0;"/><text fill="#000000" font-family="sans-serif" font-size="13" lengthAdjust="spacingAndGlyphs" textLength="21" x="118" y="277.9951">has</text><polygon fill="#000000" points="142,271.1758,148,274.1758,142,277.1758,142,271.1758" style="stroke: #000000; stroke-width: 1.0;"/><text fill="#000000" font-family="sans-serif" font-size="13" lengthAdjust="spacingAndGlyphs" textLength="7" x="95.0675" y="288.4458">1</text><text fill="#000000" font-family="sans-serif" font-size="13" lengthAdjust="spacingAndGlyphs" textLength="5" x="170.0893" y="313.0982">*</text><!--MD5=[3f58d672939e81cd871f2f51e09decba]
link Drone to Vehicle--><path d="M249.022,312.939 C285.233,316.827 344.748,323.218 387.825,327.844 " fill="none" id="Drone-Vehicle" style="stroke: #A80036; stroke-width: 1.0;"/><text fill="#000000" font-family="sans-serif" font-size="13" lengthAdjust="spacingAndGlyphs" textLength="64" x="280" y="312.9951">is a type of</text><polygon fill="#000000" points="347,306.1758,353,309.1758,347,312.1758,347,306.1758" style="stroke: #000000; stroke-width: 1.0;"/><text fill="#000000" font-family="sans-serif" font-size="13" lengthAdjust="spacingAndGlyphs" textLength="5" x="256.7924" y="328.9749">*</text><text fill="#000000" font-family="sans-serif" font-size="13" lengthAdjust="spacingAndGlyphs" textLength="7" x="373.1421" y="341.6998">1</text><!--MD5=[7ee5f2eef2f8ef54a9b73b97abb49ae4]
link Vehicle to VehicleModel--><path d="M495.197,337.716 C543.545,341.584 614.841,347.287 663.572,351.186 " fill="none" id="Vehicle-VehicleModel" style="stroke: #A80036; stroke-width: 1.0;"/><text fill="#000000" font-family="sans-serif" font-size="13" lengthAdjust="spacingAndGlyphs" textLength="21" x="562.5" y="336.9951">has</text><polygon fill="#000000" points="586.5,330.1758,592.5,333.1758,586.5,336.1758,586.5,330.1758" style="stroke: #000000; stroke-width: 1.0;"/><text fill="#000000" font-family="sans-serif" font-size="13" lengthAdjust="spacingAndGlyphs" textLength="5" x="503.0997" y="352.9768">*</text><text fill="#000000" font-family="sans-serif" font-size="13" lengthAdjust="spacingAndGlyphs" textLength="7" x="649.0859" y="365.1644">1</text><!--MD5=[9793812679a856b96e8ba34e2675abcc]
link Vehicle to Pharmacy--><path d="M495.218,319.984 C534.318,309.179 588.5,292.55 634,272.5 C647.618,266.499 661.86,258.869 674.645,251.468 " fill="none" id="Vehicle-Pharmacy" style="stroke: #A80036; stroke-width: 1.0;"/><text fill="#000000" font-family="sans-serif" font-size="13" lengthAdjust="spacingAndGlyphs" textLength="71" x="537.5" y="268.9951">belongs to a</text><polygon fill="#000000" points="611.5,262.1758,617.5,265.1758,611.5,268.1758,611.5,262.1758" style="stroke: #000000; stroke-width: 1.0;"/><text fill="#000000" font-family="sans-serif" font-size="13" lengthAdjust="spacingAndGlyphs" textLength="5" x="503.1237" y="332.7512">*</text><text fill="#000000" font-family="sans-serif" font-size="13" lengthAdjust="spacingAndGlyphs" textLength="7" x="660.0978" y="270.6034">1</text><!--MD5=[c56f9665aed968baea9131018f1cc577]
link Vehicle to QRCode--><path d="M495.292,359.151 C505.16,363.93 515.391,368.874 525,373.5 C578.066,399.045 639.473,428.3481 678.388,446.8868 " fill="none" id="Vehicle-QRCode" style="stroke: #A80036; stroke-width: 1.0;"/><text fill="#000000" font-family="sans-serif" font-size="13" lengthAdjust="spacingAndGlyphs" textLength="94" x="526" y="369.9951">is identified by a</text><polygon fill="#000000" points="623,363.1758,629,366.1758,623,369.1758,623,363.1758" style="stroke: #000000; stroke-width: 1.0;"/><text fill="#000000" font-family="sans-serif" font-size="13" lengthAdjust="spacingAndGlyphs" textLength="7" x="502.9906" y="377.2136">1</text><text fill="#000000" font-family="sans-serif" font-size="13" lengthAdjust="spacingAndGlyphs" textLength="7" x="663.6196" y="458.5228">1</text><!--MD5=[89baec1bfb4a213750f7c61516e0a0f1]
link Pharmacy to Address--><path d="M762.05,224.695 C797.364,224.857 847.727,225.088 885.443,225.261 " fill="none" id="Pharmacy-Address" style="stroke: #A80036; stroke-width: 1.0;"/><text fill="#000000" font-family="sans-serif" font-size="13" lengthAdjust="spacingAndGlyphs" textLength="21" x="804" y="220.9951">has</text><polygon fill="#000000" points="828,214.1758,834,217.1758,828,220.1758,828,214.1758" style="stroke: #000000; stroke-width: 1.0;"/><text fill="#000000" font-family="sans-serif" font-size="13" lengthAdjust="spacingAndGlyphs" textLength="7" x="770.1367" y="239.6711">1</text><text fill="#000000" font-family="sans-serif" font-size="13" lengthAdjust="spacingAndGlyphs" textLength="7" x="870.4897" y="239.8942">1</text><!--MD5=[0ae4e3be80761dbc176b3d01b8ab98e4]
link Pharmacy to Park--><path d="M762.05,196.394 C797.488,172.985 848.081,139.566 885.839,114.625 " fill="none" id="Pharmacy-Park" style="stroke: #A80036; stroke-width: 1.0;"/><text fill="#000000" font-family="sans-serif" font-size="13" lengthAdjust="spacingAndGlyphs" textLength="21" x="804" y="143.9951">has</text><polygon fill="#000000" points="828,137.1758,834,140.1758,828,143.1758,828,137.1758" style="stroke: #000000; stroke-width: 1.0;"/><text fill="#000000" font-family="sans-serif" font-size="13" lengthAdjust="spacingAndGlyphs" textLength="7" x="770.1367" y="206.5059">1</text><text fill="#000000" font-family="sans-serif" font-size="13" lengthAdjust="spacingAndGlyphs" textLength="5" x="871.0134" y="135.6842">*</text><!--MD5=[5790d77feb6b26de2794f2f777278d81]
link Park to VehicleType--><path d="M985.557,114.719 C993.13,120.557 1000.84,126.633 1008,132.5 C1049.47,166.48 1095.55,207.833 1124.64,234.404 " fill="none" id="Park-VehicleType" style="stroke: #A80036; stroke-width: 1.0;"/><text fill="#000000" font-family="sans-serif" font-size="13" lengthAdjust="spacingAndGlyphs" textLength="21" x="1039" y="155.9951">has</text><polygon fill="#000000" points="1063,149.1758,1069,152.1758,1063,155.1758,1063,149.1758" style="stroke: #000000; stroke-width: 1.0;"/><text fill="#000000" font-family="sans-serif" font-size="13" lengthAdjust="spacingAndGlyphs" textLength="5" x="988.4937" y="135.7949">*</text><text fill="#000000" font-family="sans-serif" font-size="13" lengthAdjust="spacingAndGlyphs" textLength="7" x="1109.8099" y="223.8428">1</text><!--MD5=[d231af42e5f994c6ef3dd0db49c43284]
link Park to ParkingSlot--><path d="M1008.25,80.5 C1040.6,80.5 1078.34,80.5 1107.31,80.5 " fill="none" id="Park-ParkingSlot" style="stroke: #A80036; stroke-width: 1.0;"/><text fill="#000000" font-family="sans-serif" font-size="13" lengthAdjust="spacingAndGlyphs" textLength="21" x="1039" y="76.9951">has</text><polygon fill="#000000" points="1063,70.1758,1069,73.1758,1063,76.1758,1063,70.1758" style="stroke: #000000; stroke-width: 1.0;"/><text fill="#000000" font-family="sans-serif" font-size="13" lengthAdjust="spacingAndGlyphs" textLength="7" x="1015.8039" y="94.8552">1</text><text fill="#000000" font-family="sans-serif" font-size="13" lengthAdjust="spacingAndGlyphs" textLength="5" x="1094.6247" y="95.2596">*</text><!--MD5=[a4c65a09dd0e5e45daf0263f06c7f061]
link ParkingSlot to ChargingSlot--><path d="M1202.8,69.836 C1232.69,63.026 1271.45,54.195 1302.18,47.194 " fill="none" id="ParkingSlot-ChargingSlot" style="stroke: #A80036; stroke-width: 1.0;"/><text fill="#000000" font-family="sans-serif" font-size="13" lengthAdjust="spacingAndGlyphs" textLength="10" x="1237" y="53.9951">is</text><polygon fill="#000000" points="1250,47.1758,1256,50.1758,1250,53.1758,1250,47.1758" style="stroke: #000000; stroke-width: 1.0;"/><text fill="#000000" font-family="sans-serif" font-size="13" lengthAdjust="spacingAndGlyphs" textLength="7" x="1210.6553" y="82.9627">1</text><text fill="#000000" font-family="sans-serif" font-size="13" lengthAdjust="spacingAndGlyphs" textLength="7" x="1287.3303" y="63.4948">1</text><!--MD5=[142124bf764eff3cd61a820bcd607a89]
link ParkingSlot to NonChargingSlot--><path d="M1202.8,90.927 C1229.15,96.798 1262.4,104.205 1290.96,110.567 " fill="none" id="ParkingSlot-NonChargingSlot" style="stroke: #A80036; stroke-width: 1.0;"/><text fill="#000000" font-family="sans-serif" font-size="13" lengthAdjust="spacingAndGlyphs" textLength="10" x="1237" y="94.9951">is</text><polygon fill="#000000" points="1250,88.1758,1256,91.1758,1250,94.1758,1250,88.1758" style="stroke: #000000; stroke-width: 1.0;"/><text fill="#000000" font-family="sans-serif" font-size="13" lengthAdjust="spacingAndGlyphs" textLength="7" x="1210.6553" y="107.2832">1</text><text fill="#000000" font-family="sans-serif" font-size="13" lengthAdjust="spacingAndGlyphs" textLength="7" x="1276.2085" y="123.4059">1</text><!--MD5=[3fa83f42c878ddc47b59211fc64ec532]
link VehicleModel to Battery--><path d="M773.108,384.271 C804.625,401.187 844.558,422.6184 877.174,440.1232 " fill="none" id="VehicleModel-Battery" style="stroke: #A80036; stroke-width: 1.0;"/><text fill="#000000" font-family="sans-serif" font-size="13" lengthAdjust="spacingAndGlyphs" textLength="21" x="804" y="399.9951">has</text><polygon fill="#000000" points="828,393.1758,834,396.1758,828,399.1758,828,393.1758" style="stroke: #000000; stroke-width: 1.0;"/><text fill="#000000" font-family="sans-serif" font-size="13" lengthAdjust="spacingAndGlyphs" textLength="7" x="780.9163" y="402.7188">1</text><text fill="#000000" font-family="sans-serif" font-size="13" lengthAdjust="spacingAndGlyphs" textLength="7" x="862.6785" y="450.8002">1</text><!--MD5=[eb172a83c7b24bcb2b2c23cfcc7dc290]
link VehicleModel to VehicleType--><path d="M773.224,358.399 C831.992,360.098 928.424,358.537 1008,336.5 C1045.35,326.157 1084.22,305.637 1112.45,288.671 " fill="none" id="VehicleModel-VehicleType" style="stroke: #A80036; stroke-width: 1.0;"/><text fill="#000000" font-family="sans-serif" font-size="13" lengthAdjust="spacingAndGlyphs" textLength="21" x="921.5" y="332.9951">has</text><polygon fill="#000000" points="945.5,326.1758,951.5,329.1758,945.5,332.1758,945.5,326.1758" style="stroke: #000000; stroke-width: 1.0;"/><text fill="#000000" font-family="sans-serif" font-size="13" lengthAdjust="spacingAndGlyphs" textLength="5" x="780.9135" y="373.3702">*</text><text fill="#000000" font-family="sans-serif" font-size="13" lengthAdjust="spacingAndGlyphs" textLength="7" x="1095.3766" y="309.9162">1</text><!--MD5=[e8fbff672b818daa97c1257e811cde5c]
@startuml
skinparam classAttributeIconSize 0
hide methods
left to right direction

database Database {
}

class Pharmacy {
  -int id
  -String name
-   String email
}

class Park{
-   int maxSlotsNumber
-   double totalOutputCorrent
}

class ChargingSlot{
-   int id
}

class NonChargingSlot{
-   int id
}

class ParkingSlot{
-   int id
}

class Drone{
}

class VehicleModel{
  -int id
  -String desigantion
  -double potency
  -double weight
  -double maxPayload
}

class VehicleType{
  -String desigantion
}

class Vehicle{
  -int id
  -double batteryPerc
}

class Battery{
  -int id
  -int batteryCapacity
  -double batteryVoltage
  -double efficiency
}

class Address{
  -double longitude
  -double latitude
  -double altitude
  -String doorNumber
  -String streetName
  -String postalCode
  -String locality
  -String country
}

class QRCode{
}


Database "1" - - "*" Pharmacy : has >
Database "1" - - "*" Drone : has >
Drone "*" - - "1" Vehicle : is a type of >
Vehicle "*" - - "1" VehicleModel : has >
Vehicle "*" - - "1" Pharmacy : belongs to a >
Vehicle "1" - - "1" QRCode : is identified by a >
Pharmacy "1" - - "1" Address : has >
Pharmacy "1" - - "*" Park : has >
Park "*" - - "1" VehicleType : has >
Park "1" - - "*" ParkingSlot : has >
ParkingSlot "1" - - "1" ChargingSlot : is >
ParkingSlot "1" - - "1" NonChargingSlot : is >
VehicleModel "1" - - "1" Battery : has >
VehicleModel "*" - - "1" VehicleType : has >
@enduml

PlantUML version 1.2020.09(Sun May 10 11:51:06 BST 2020)
(GPL source distribution)
Java Runtime: OpenJDK Runtime Environment
JVM: OpenJDK 64-Bit Server VM
Java Version: 11.0.6+8-b765.40
Operating System: Windows 10
Default Encoding: Cp1252
Language: pt
Country: PT
--></g></svg>