<?xml version="1.0" encoding="UTF-8" standalone="no"?><svg xmlns="http://www.w3.org/2000/svg" xmlns:xlink="http://www.w3.org/1999/xlink" contentScriptType="application/ecmascript" contentStyleType="text/css" height="1495px" preserveAspectRatio="none" style="width:1190px;height:1495px;" version="1.1" viewBox="0 0 1190 1495" width="1190px" zoomAndPan="magnify"><defs><filter height="300%" id="fhttgy2h1jla" width="300%" x="-1" y="-1"><feGaussianBlur result="blurOut" stdDeviation="2.0"/><feColorMatrix in="blurOut" result="blurOut2" type="matrix" values="0 0 0 0 0 0 0 0 0 0 0 0 0 0 0 0 0 0 .4 0"/><feOffset dx="4.0" dy="4.0" in="blurOut2" result="blurOut3"/><feBlend in="SourceGraphic" in2="blurOut3" mode="normal"/></filter></defs><g><!--MD5=[9681dc6e01e10c6b4fe06895ae94f592]
cluster UI--><polygon fill="#DDDDDD" filter="url(#fhttgy2h1jla)" points="122,24,142,24,149,47.6094,272,47.6094,272,124,122,124,122,24" style="stroke: #000000; stroke-width: 1.5;"/><line style="stroke: #000000; stroke-width: 1.5;" x1="122" x2="149" y1="47.6094" y2="47.6094"/><text fill="#000000" font-family="sans-serif" font-size="14" font-weight="bold" lengthAdjust="spacingAndGlyphs" textLength="14" x="126" y="40.5332">UI</text><!--MD5=[1f2cfc53d9d308f53762fd0fcbaa4873]
cluster Controller--><polygon fill="#DDDDDD" filter="url(#fhttgy2h1jla)" points="100,157,177,157,184,180.6094,294,180.6094,294,299,100,299,100,157" style="stroke: #000000; stroke-width: 1.5;"/><line style="stroke: #000000; stroke-width: 1.5;" x1="100" x2="184" y1="180.6094" y2="180.6094"/><text fill="#000000" font-family="sans-serif" font-size="14" font-weight="bold" lengthAdjust="spacingAndGlyphs" textLength="71" x="104" y="173.5332">Controller</text><!--MD5=[15636c1ca4a123c16a2a1a8e90aca7a9]
cluster Model--><polygon fill="#DDDDDD" filter="url(#fhttgy2h1jla)" points="22,332,72,332,79,355.6094,555,355.6094,555,1483,22,1483,22,332" style="stroke: #000000; stroke-width: 1.5;"/><line style="stroke: #000000; stroke-width: 1.5;" x1="22" x2="79" y1="355.6094" y2="355.6094"/><text fill="#000000" font-family="sans-serif" font-size="14" font-weight="bold" lengthAdjust="spacingAndGlyphs" textLength="44" x="26" y="348.5332">Model</text><!--MD5=[9dd75fd92da113d30380b27734fd2f01]
cluster Service--><polygon fill="#DDDDDD" filter="url(#fhttgy2h1jla)" points="46,376,106,376,113,399.6094,531,399.6094,531,531,46,531,46,376" style="stroke: #000000; stroke-width: 1.5;"/><line style="stroke: #000000; stroke-width: 1.5;" x1="46" x2="113" y1="399.6094" y2="399.6094"/><text fill="#000000" font-family="sans-serif" font-size="14" font-weight="bold" lengthAdjust="spacingAndGlyphs" textLength="54" x="50" y="392.5332">Service</text><!--MD5=[f21b1f164e99c6b37934f23ad048ad54]
cluster Data--><polygon fill="#DDDDDD" filter="url(#fhttgy2h1jla)" points="669,389.5,706,389.5,713,413.1094,1168,413.1094,1168,714,669,714,669,389.5" style="stroke: #000000; stroke-width: 1.5;"/><line style="stroke: #000000; stroke-width: 1.5;" x1="669" x2="713" y1="413.1094" y2="413.1094"/><text fill="#000000" font-family="sans-serif" font-size="14" font-weight="bold" lengthAdjust="spacingAndGlyphs" textLength="31" x="673" y="406.0332">Data</text><!--MD5=[fa1e3283224feb76407c84b7e90ed808]
entity Database--><path d="M571.5,450 C571.5,440 612,440 612,440 C612,440 652.5,440 652.5,450 L652.5,476.6094 C652.5,486.6094 612,486.6094 612,486.6094 C612,486.6094 571.5,486.6094 571.5,476.6094 L571.5,450 " fill="#FFFFFF" filter="url(#fhttgy2h1jla)" style="stroke: #000000; stroke-width: 1.5;"/><path d="M571.5,450 C571.5,460 612,460 612,460 C612,460 652.5,460 652.5,450 " fill="none" style="stroke: #000000; stroke-width: 1.5;"/><text fill="#000000" font-family="sans-serif" font-size="14" lengthAdjust="spacingAndGlyphs" textLength="61" x="581.5" y="478.5332">Database</text><!--MD5=[840b890a952d127710ca2d765faae442]
class UpdateDroneUI--><rect fill="#FEFECE" filter="url(#fhttgy2h1jla)" height="48" id="UpdateDroneUI" style="stroke: #A80036; stroke-width: 1.5;" width="118" x="138" y="60"/><ellipse cx="153" cy="76" fill="#ADD1B2" rx="11" ry="11" style="stroke: #A80036; stroke-width: 1.0;"/><path d="M155,72.5 Q155.2031,72 155.4375,71.75 Q155.6719,71.5 155.9375,71.5 Q156.4063,71.5 156.7031,71.7813 Q157,72.0625 157,72.7188 L157,74.2813 Q157,74.9375 156.7188,75.2188 Q156.4375,75.5 156,75.5 Q155.6094,75.5 155.3594,75.3281 Q155.1094,75.1563 155,74.7031 Q154.9531,74.3906 154.7813,74.2188 Q154.4688,73.8906 153.9063,73.7031 Q153.3438,73.5 152.7813,73.5 Q152.0781,73.5 151.4844,73.7813 Q150.9063,74.0625 150.4531,74.6875 Q150,75.3125 150,76.1719 L150,77.0938 Q150,78.125 150.8438,78.8125 Q151.6875,79.5 153.1875,79.5 Q154.0781,79.5 154.7031,79.2969 Q155.0625,79.1875 155.4688,78.8281 Q155.7344,78.625 155.875,78.5625 Q156.0156,78.5 156.1875,78.5 Q156.5156,78.5 156.75,78.7656 Q157,79.0156 157,79.375 Q157,79.7188 156.6563,80.125 Q156.1563,80.7188 155.3594,81.0469 Q154.3125,81.5 153.0313,81.5 Q151.5313,81.5 150.3281,80.9063 Q149.3594,80.4375 148.6719,79.4219 Q148,78.4063 148,77.2031 L148,76.1094 Q148,74.8594 148.5938,73.7656 Q149.2031,72.6719 150.25,72.0938 Q151.3125,71.5 152.5,71.5 Q153.2188,71.5 153.8438,71.75 Q154.4688,72 155,72.5 Z "/><text fill="#000000" font-family="sans-serif" font-size="12" lengthAdjust="spacingAndGlyphs" textLength="86" x="167" y="80.9102">UpdateDroneUI</text><line style="stroke: #A80036; stroke-width: 1.5;" x1="139" x2="255" y1="92" y2="92"/><line style="stroke: #A80036; stroke-width: 1.5;" x1="139" x2="255" y1="100" y2="100"/><!--MD5=[3ca1333d0a84f8811d80fc5e9c1c87af]
class UpdateDroneController--><rect fill="#FEFECE" filter="url(#fhttgy2h1jla)" height="89.5078" id="UpdateDroneController" style="stroke: #A80036; stroke-width: 1.5;" width="162" x="116" y="193"/><ellipse cx="131.9" cy="209" fill="#ADD1B2" rx="11" ry="11" style="stroke: #A80036; stroke-width: 1.0;"/><path d="M133.9,205.5 Q134.1031,205 134.3375,204.75 Q134.5719,204.5 134.8375,204.5 Q135.3063,204.5 135.6031,204.7813 Q135.9,205.0625 135.9,205.7188 L135.9,207.2813 Q135.9,207.9375 135.6188,208.2188 Q135.3375,208.5 134.9,208.5 Q134.5094,208.5 134.2594,208.3281 Q134.0094,208.1563 133.9,207.7031 Q133.8531,207.3906 133.6813,207.2188 Q133.3688,206.8906 132.8063,206.7031 Q132.2438,206.5 131.6813,206.5 Q130.9781,206.5 130.3844,206.7813 Q129.8063,207.0625 129.3531,207.6875 Q128.9,208.3125 128.9,209.1719 L128.9,210.0938 Q128.9,211.125 129.7438,211.8125 Q130.5875,212.5 132.0875,212.5 Q132.9781,212.5 133.6031,212.2969 Q133.9625,212.1875 134.3688,211.8281 Q134.6344,211.625 134.775,211.5625 Q134.9156,211.5 135.0875,211.5 Q135.4156,211.5 135.65,211.7656 Q135.9,212.0156 135.9,212.375 Q135.9,212.7188 135.5563,213.125 Q135.0563,213.7188 134.2594,214.0469 Q133.2125,214.5 131.9313,214.5 Q130.4313,214.5 129.2281,213.9063 Q128.2594,213.4375 127.5719,212.4219 Q126.9,211.4063 126.9,210.2031 L126.9,209.1094 Q126.9,207.8594 127.4938,206.7656 Q128.1031,205.6719 129.15,205.0938 Q130.2125,204.5 131.4,204.5 Q132.1188,204.5 132.7438,204.75 Q133.3688,205 133.9,205.5 Z "/><text fill="#000000" font-family="sans-serif" font-size="12" lengthAdjust="spacingAndGlyphs" textLength="128" x="146.1" y="213.9102">UpdateDroneController</text><line style="stroke: #A80036; stroke-width: 1.5;" x1="117" x2="277" y1="225" y2="225"/><line style="stroke: #A80036; stroke-width: 1.5;" x1="117" x2="277" y1="233" y2="233"/><text fill="#000000" font-family="sans-serif" font-size="11" lengthAdjust="spacingAndGlyphs" textLength="98" x="122" y="248.4189">+showPharmacies()</text><text fill="#000000" font-family="sans-serif" font-size="11" lengthAdjust="spacingAndGlyphs" textLength="150" x="122" y="262.2549">+showDronesList(pharmacyId)</text><text fill="#000000" font-family="sans-serif" font-size="11" lengthAdjust="spacingAndGlyphs" textLength="104" x="122" y="276.0908">+updateDrone(drone)</text><!--MD5=[d1eeb527b96f439f56c6bd12ac0dd707]
class Park--><rect fill="#FEFECE" filter="url(#fhttgy2h1jla)" height="61.8359" id="Park" style="stroke: #A80036; stroke-width: 1.5;" width="111" x="166.5" y="1209.5"/><ellipse cx="205.8" cy="1225.5" fill="#ADD1B2" rx="11" ry="11" style="stroke: #A80036; stroke-width: 1.0;"/><path d="M207.8,1222 Q208.0031,1221.5 208.2375,1221.25 Q208.4719,1221 208.7375,1221 Q209.2063,1221 209.5031,1221.2813 Q209.8,1221.5625 209.8,1222.2188 L209.8,1223.7813 Q209.8,1224.4375 209.5188,1224.7188 Q209.2375,1225 208.8,1225 Q208.4094,1225 208.1594,1224.8281 Q207.9094,1224.6563 207.8,1224.2031 Q207.7531,1223.8906 207.5813,1223.7188 Q207.2688,1223.3906 206.7063,1223.2031 Q206.1438,1223 205.5813,1223 Q204.8781,1223 204.2844,1223.2813 Q203.7063,1223.5625 203.2531,1224.1875 Q202.8,1224.8125 202.8,1225.6719 L202.8,1226.5938 Q202.8,1227.625 203.6438,1228.3125 Q204.4875,1229 205.9875,1229 Q206.8781,1229 207.5031,1228.7969 Q207.8625,1228.6875 208.2688,1228.3281 Q208.5344,1228.125 208.675,1228.0625 Q208.8156,1228 208.9875,1228 Q209.3156,1228 209.55,1228.2656 Q209.8,1228.5156 209.8,1228.875 Q209.8,1229.2188 209.4563,1229.625 Q208.9563,1230.2188 208.1594,1230.5469 Q207.1125,1231 205.8313,1231 Q204.3313,1231 203.1281,1230.4063 Q202.1594,1229.9375 201.4719,1228.9219 Q200.8,1227.9063 200.8,1226.7031 L200.8,1225.6094 Q200.8,1224.3594 201.3938,1223.2656 Q202.0031,1222.1719 203.05,1221.5938 Q204.1125,1221 205.3,1221 Q206.0188,1221 206.6438,1221.25 Q207.2688,1221.5 207.8,1222 Z "/><text fill="#000000" font-family="sans-serif" font-size="12" lengthAdjust="spacingAndGlyphs" textLength="25" x="225.2" y="1230.4102">Park</text><line style="stroke: #A80036; stroke-width: 1.5;" x1="167.5" x2="276.5" y1="1241.5" y2="1241.5"/><text fill="#000000" font-family="sans-serif" font-size="11" lengthAdjust="spacingAndGlyphs" textLength="99" x="172.5" y="1256.9189">-int maxSlotsNumber</text><line style="stroke: #A80036; stroke-width: 1.5;" x1="167.5" x2="276.5" y1="1263.3359" y2="1263.3359"/><!--MD5=[59d2374cee64c81d4b5b0eac02df9f3a]
class ChargingSlot--><rect fill="#FEFECE" filter="url(#fhttgy2h1jla)" height="75.6719" id="ChargingSlot" style="stroke: #A80036; stroke-width: 1.5;" width="104" x="52" y="1391"/><ellipse cx="67" cy="1407" fill="#ADD1B2" rx="11" ry="11" style="stroke: #A80036; stroke-width: 1.0;"/><path d="M69,1403.5 Q69.2031,1403 69.4375,1402.75 Q69.6719,1402.5 69.9375,1402.5 Q70.4063,1402.5 70.7031,1402.7813 Q71,1403.0625 71,1403.7188 L71,1405.2813 Q71,1405.9375 70.7188,1406.2188 Q70.4375,1406.5 70,1406.5 Q69.6094,1406.5 69.3594,1406.3281 Q69.1094,1406.1563 69,1405.7031 Q68.9531,1405.3906 68.7813,1405.2188 Q68.4688,1404.8906 67.9063,1404.7031 Q67.3438,1404.5 66.7813,1404.5 Q66.0781,1404.5 65.4844,1404.7813 Q64.9063,1405.0625 64.4531,1405.6875 Q64,1406.3125 64,1407.1719 L64,1408.0938 Q64,1409.125 64.8438,1409.8125 Q65.6875,1410.5 67.1875,1410.5 Q68.0781,1410.5 68.7031,1410.2969 Q69.0625,1410.1875 69.4688,1409.8281 Q69.7344,1409.625 69.875,1409.5625 Q70.0156,1409.5 70.1875,1409.5 Q70.5156,1409.5 70.75,1409.7656 Q71,1410.0156 71,1410.375 Q71,1410.7188 70.6563,1411.125 Q70.1563,1411.7188 69.3594,1412.0469 Q68.3125,1412.5 67.0313,1412.5 Q65.5313,1412.5 64.3281,1411.9063 Q63.3594,1411.4375 62.6719,1410.4219 Q62,1409.4063 62,1408.2031 L62,1407.1094 Q62,1405.8594 62.5938,1404.7656 Q63.2031,1403.6719 64.25,1403.0938 Q65.3125,1402.5 66.5,1402.5 Q67.2188,1402.5 67.8438,1402.75 Q68.4688,1403 69,1403.5 Z "/><text fill="#000000" font-family="sans-serif" font-size="12" lengthAdjust="spacingAndGlyphs" textLength="72" x="81" y="1411.9102">ChargingSlot</text><line style="stroke: #A80036; stroke-width: 1.5;" x1="53" x2="155" y1="1423" y2="1423"/><text fill="#000000" font-family="sans-serif" font-size="11" lengthAdjust="spacingAndGlyphs" textLength="26" x="58" y="1438.4189">-int id</text><text fill="#000000" font-family="sans-serif" font-size="11" lengthAdjust="spacingAndGlyphs" textLength="90" x="58" y="1452.2549">-float outputPower</text><line style="stroke: #A80036; stroke-width: 1.5;" x1="53" x2="155" y1="1458.6719" y2="1458.6719"/><!--MD5=[6171c3a2f2c752b4019101857dc83635]
class ParkingSlot--><rect fill="#FEFECE" filter="url(#fhttgy2h1jla)" height="61.8359" id="ParkingSlot" style="stroke: #A80036; stroke-width: 1.5;" width="95" x="191.5" y="1398"/><ellipse cx="206.5" cy="1414" fill="#ADD1B2" rx="11" ry="11" style="stroke: #A80036; stroke-width: 1.0;"/><path d="M208.5,1410.5 Q208.7031,1410 208.9375,1409.75 Q209.1719,1409.5 209.4375,1409.5 Q209.9063,1409.5 210.2031,1409.7813 Q210.5,1410.0625 210.5,1410.7188 L210.5,1412.2813 Q210.5,1412.9375 210.2188,1413.2188 Q209.9375,1413.5 209.5,1413.5 Q209.1094,1413.5 208.8594,1413.3281 Q208.6094,1413.1563 208.5,1412.7031 Q208.4531,1412.3906 208.2813,1412.2188 Q207.9688,1411.8906 207.4063,1411.7031 Q206.8438,1411.5 206.2813,1411.5 Q205.5781,1411.5 204.9844,1411.7813 Q204.4063,1412.0625 203.9531,1412.6875 Q203.5,1413.3125 203.5,1414.1719 L203.5,1415.0938 Q203.5,1416.125 204.3438,1416.8125 Q205.1875,1417.5 206.6875,1417.5 Q207.5781,1417.5 208.2031,1417.2969 Q208.5625,1417.1875 208.9688,1416.8281 Q209.2344,1416.625 209.375,1416.5625 Q209.5156,1416.5 209.6875,1416.5 Q210.0156,1416.5 210.25,1416.7656 Q210.5,1417.0156 210.5,1417.375 Q210.5,1417.7188 210.1563,1418.125 Q209.6563,1418.7188 208.8594,1419.0469 Q207.8125,1419.5 206.5313,1419.5 Q205.0313,1419.5 203.8281,1418.9063 Q202.8594,1418.4375 202.1719,1417.4219 Q201.5,1416.4063 201.5,1415.2031 L201.5,1414.1094 Q201.5,1412.8594 202.0938,1411.7656 Q202.7031,1410.6719 203.75,1410.0938 Q204.8125,1409.5 206,1409.5 Q206.7188,1409.5 207.3438,1409.75 Q207.9688,1410 208.5,1410.5 Z "/><text fill="#000000" font-family="sans-serif" font-size="12" lengthAdjust="spacingAndGlyphs" textLength="63" x="220.5" y="1418.9102">ParkingSlot</text><line style="stroke: #A80036; stroke-width: 1.5;" x1="192.5" x2="285.5" y1="1430" y2="1430"/><text fill="#000000" font-family="sans-serif" font-size="11" lengthAdjust="spacingAndGlyphs" textLength="26" x="197.5" y="1445.4189">-int id</text><line style="stroke: #A80036; stroke-width: 1.5;" x1="192.5" x2="285.5" y1="1451.8359" y2="1451.8359"/><!--MD5=[2e3f1e60e74253ff42e47f8bfdb04ee2]
class Drone--><rect fill="#FEFECE" filter="url(#fhttgy2h1jla)" height="75.6719" id="Drone" style="stroke: #A80036; stroke-width: 1.5;" width="337" x="176.5" y="608.5"/><ellipse cx="323.75" cy="624.5" fill="#ADD1B2" rx="11" ry="11" style="stroke: #A80036; stroke-width: 1.0;"/><path d="M325.75,621 Q325.9531,620.5 326.1875,620.25 Q326.4219,620 326.6875,620 Q327.1563,620 327.4531,620.2813 Q327.75,620.5625 327.75,621.2188 L327.75,622.7813 Q327.75,623.4375 327.4688,623.7188 Q327.1875,624 326.75,624 Q326.3594,624 326.1094,623.8281 Q325.8594,623.6563 325.75,623.2031 Q325.7031,622.8906 325.5313,622.7188 Q325.2188,622.3906 324.6563,622.2031 Q324.0938,622 323.5313,622 Q322.8281,622 322.2344,622.2813 Q321.6563,622.5625 321.2031,623.1875 Q320.75,623.8125 320.75,624.6719 L320.75,625.5938 Q320.75,626.625 321.5938,627.3125 Q322.4375,628 323.9375,628 Q324.8281,628 325.4531,627.7969 Q325.8125,627.6875 326.2188,627.3281 Q326.4844,627.125 326.625,627.0625 Q326.7656,627 326.9375,627 Q327.2656,627 327.5,627.2656 Q327.75,627.5156 327.75,627.875 Q327.75,628.2188 327.4063,628.625 Q326.9063,629.2188 326.1094,629.5469 Q325.0625,630 323.7813,630 Q322.2813,630 321.0781,629.4063 Q320.1094,628.9375 319.4219,627.9219 Q318.75,626.9063 318.75,625.7031 L318.75,624.6094 Q318.75,623.3594 319.3438,622.2656 Q319.9531,621.1719 321,620.5938 Q322.0625,620 323.25,620 Q323.9688,620 324.5938,620.25 Q325.2188,620.5 325.75,621 Z "/><text fill="#000000" font-family="sans-serif" font-size="12" lengthAdjust="spacingAndGlyphs" textLength="34" x="344.25" y="629.4102">Drone</text><line style="stroke: #A80036; stroke-width: 1.5;" x1="177.5" x2="512.5" y1="640.5" y2="640.5"/><line style="stroke: #A80036; stroke-width: 1.5;" x1="177.5" x2="512.5" y1="648.5" y2="648.5"/><text fill="#000000" font-family="sans-serif" font-size="11" lengthAdjust="spacingAndGlyphs" textLength="216" x="182.5" y="663.9189">+Drone(batteryPerc, charginStatus, potency,</text><text fill="#000000" font-family="sans-serif" font-size="11" lengthAdjust="spacingAndGlyphs" textLength="322" x="185.5" y="677.7549">weight, batteryCapacity, maxPayload, batteryVoltage, pharmacyId)</text><!--MD5=[3aa0d89c6bfdcbf7f32042cedac57549]
class Vehicle--><rect fill="#FEFECE" filter="url(#fhttgy2h1jla)" height="131.0156" id="Vehicle" style="stroke: #A80036; stroke-width: 1.5;" width="126" x="282" y="778"/><ellipse cx="321.3" cy="794" fill="#ADD1B2" rx="11" ry="11" style="stroke: #A80036; stroke-width: 1.0;"/><path d="M323.3,790.5 Q323.5031,790 323.7375,789.75 Q323.9719,789.5 324.2375,789.5 Q324.7063,789.5 325.0031,789.7813 Q325.3,790.0625 325.3,790.7188 L325.3,792.2813 Q325.3,792.9375 325.0188,793.2188 Q324.7375,793.5 324.3,793.5 Q323.9094,793.5 323.6594,793.3281 Q323.4094,793.1563 323.3,792.7031 Q323.2531,792.3906 323.0813,792.2188 Q322.7688,791.8906 322.2063,791.7031 Q321.6438,791.5 321.0813,791.5 Q320.3781,791.5 319.7844,791.7813 Q319.2063,792.0625 318.7531,792.6875 Q318.3,793.3125 318.3,794.1719 L318.3,795.0938 Q318.3,796.125 319.1438,796.8125 Q319.9875,797.5 321.4875,797.5 Q322.3781,797.5 323.0031,797.2969 Q323.3625,797.1875 323.7688,796.8281 Q324.0344,796.625 324.175,796.5625 Q324.3156,796.5 324.4875,796.5 Q324.8156,796.5 325.05,796.7656 Q325.3,797.0156 325.3,797.375 Q325.3,797.7188 324.9563,798.125 Q324.4563,798.7188 323.6594,799.0469 Q322.6125,799.5 321.3313,799.5 Q319.8313,799.5 318.6281,798.9063 Q317.6594,798.4375 316.9719,797.4219 Q316.3,796.4063 316.3,795.2031 L316.3,794.1094 Q316.3,792.8594 316.8938,791.7656 Q317.5031,790.6719 318.55,790.0938 Q319.6125,789.5 320.8,789.5 Q321.5188,789.5 322.1438,789.75 Q322.7688,790 323.3,790.5 Z "/><text fill="#000000" font-family="sans-serif" font-size="12" lengthAdjust="spacingAndGlyphs" textLength="40" x="340.7" y="798.9102">Vehicle</text><line style="stroke: #A80036; stroke-width: 1.5;" x1="283" x2="407" y1="810" y2="810"/><text fill="#000000" font-family="sans-serif" font-size="11" lengthAdjust="spacingAndGlyphs" textLength="26" x="288" y="825.4189">-int id</text><text fill="#000000" font-family="sans-serif" font-size="11" lengthAdjust="spacingAndGlyphs" textLength="93" x="288" y="839.2549">-String vehicleType</text><text fill="#000000" font-family="sans-serif" font-size="11" lengthAdjust="spacingAndGlyphs" textLength="67" x="288" y="853.0908">-float potency</text><text fill="#000000" font-family="sans-serif" font-size="11" lengthAdjust="spacingAndGlyphs" textLength="61" x="288" y="866.9268">-float weight</text><text fill="#000000" font-family="sans-serif" font-size="11" lengthAdjust="spacingAndGlyphs" textLength="86" x="288" y="880.7627">-float maxPayload</text><text fill="#000000" font-family="sans-serif" font-size="11" lengthAdjust="spacingAndGlyphs" textLength="114" x="288" y="894.5986">-String charngingStatus</text><line style="stroke: #A80036; stroke-width: 1.5;" x1="283" x2="407" y1="901.0156" y2="901.0156"/><!--MD5=[79eb2d862cef9730b5f9dcab29e35f17]
class Battery--><rect fill="#FEFECE" filter="url(#fhttgy2h1jla)" height="103.3438" id="Battery" style="stroke: #A80036; stroke-width: 1.5;" width="111" x="167.5" y="987"/><ellipse cx="201.4" cy="1003" fill="#ADD1B2" rx="11" ry="11" style="stroke: #A80036; stroke-width: 1.0;"/><path d="M203.4,999.5 Q203.6031,999 203.8375,998.75 Q204.0719,998.5 204.3375,998.5 Q204.8063,998.5 205.1031,998.7813 Q205.4,999.0625 205.4,999.7188 L205.4,1001.2813 Q205.4,1001.9375 205.1188,1002.2188 Q204.8375,1002.5 204.4,1002.5 Q204.0094,1002.5 203.7594,1002.3281 Q203.5094,1002.1563 203.4,1001.7031 Q203.3531,1001.3906 203.1813,1001.2188 Q202.8688,1000.8906 202.3063,1000.7031 Q201.7438,1000.5 201.1813,1000.5 Q200.4781,1000.5 199.8844,1000.7813 Q199.3063,1001.0625 198.8531,1001.6875 Q198.4,1002.3125 198.4,1003.1719 L198.4,1004.0938 Q198.4,1005.125 199.2438,1005.8125 Q200.0875,1006.5 201.5875,1006.5 Q202.4781,1006.5 203.1031,1006.2969 Q203.4625,1006.1875 203.8688,1005.8281 Q204.1344,1005.625 204.275,1005.5625 Q204.4156,1005.5 204.5875,1005.5 Q204.9156,1005.5 205.15,1005.7656 Q205.4,1006.0156 205.4,1006.375 Q205.4,1006.7188 205.0563,1007.125 Q204.5563,1007.7188 203.7594,1008.0469 Q202.7125,1008.5 201.4313,1008.5 Q199.9313,1008.5 198.7281,1007.9063 Q197.7594,1007.4375 197.0719,1006.4219 Q196.4,1005.4063 196.4,1004.2031 L196.4,1003.1094 Q196.4,1001.8594 196.9938,1000.7656 Q197.6031,999.6719 198.65,999.0938 Q199.7125,998.5 200.9,998.5 Q201.6188,998.5 202.2438,998.75 Q202.8688,999 203.4,999.5 Z "/><text fill="#000000" font-family="sans-serif" font-size="12" lengthAdjust="spacingAndGlyphs" textLength="37" x="219.6" y="1007.9102">Battery</text><line style="stroke: #A80036; stroke-width: 1.5;" x1="168.5" x2="277.5" y1="1019" y2="1019"/><text fill="#000000" font-family="sans-serif" font-size="11" lengthAdjust="spacingAndGlyphs" textLength="26" x="173.5" y="1034.4189">-int id</text><text fill="#000000" font-family="sans-serif" font-size="11" lengthAdjust="spacingAndGlyphs" textLength="84" x="173.5" y="1048.2549">-float batteryPerc</text><text fill="#000000" font-family="sans-serif" font-size="11" lengthAdjust="spacingAndGlyphs" textLength="94" x="173.5" y="1062.0908">-int batteryCapacity</text><text fill="#000000" font-family="sans-serif" font-size="11" lengthAdjust="spacingAndGlyphs" textLength="99" x="173.5" y="1075.9268">-float batteryVoltage</text><line style="stroke: #A80036; stroke-width: 1.5;" x1="168.5" x2="277.5" y1="1082.3438" y2="1082.3438"/><!--MD5=[0f39e4cb6f03951afbf6d14bd2505654]
class Address--><rect fill="#FEFECE" filter="url(#fhttgy2h1jla)" height="144.8516" id="Address" style="stroke: #A80036; stroke-width: 1.5;" width="106" x="313" y="1168"/><ellipse cx="340.6" cy="1184" fill="#ADD1B2" rx="11" ry="11" style="stroke: #A80036; stroke-width: 1.0;"/><path d="M342.6,1180.5 Q342.8031,1180 343.0375,1179.75 Q343.2719,1179.5 343.5375,1179.5 Q344.0063,1179.5 344.3031,1179.7813 Q344.6,1180.0625 344.6,1180.7188 L344.6,1182.2813 Q344.6,1182.9375 344.3188,1183.2188 Q344.0375,1183.5 343.6,1183.5 Q343.2094,1183.5 342.9594,1183.3281 Q342.7094,1183.1563 342.6,1182.7031 Q342.5531,1182.3906 342.3813,1182.2188 Q342.0688,1181.8906 341.5063,1181.7031 Q340.9438,1181.5 340.3813,1181.5 Q339.6781,1181.5 339.0844,1181.7813 Q338.5063,1182.0625 338.0531,1182.6875 Q337.6,1183.3125 337.6,1184.1719 L337.6,1185.0938 Q337.6,1186.125 338.4438,1186.8125 Q339.2875,1187.5 340.7875,1187.5 Q341.6781,1187.5 342.3031,1187.2969 Q342.6625,1187.1875 343.0688,1186.8281 Q343.3344,1186.625 343.475,1186.5625 Q343.6156,1186.5 343.7875,1186.5 Q344.1156,1186.5 344.35,1186.7656 Q344.6,1187.0156 344.6,1187.375 Q344.6,1187.7188 344.2563,1188.125 Q343.7563,1188.7188 342.9594,1189.0469 Q341.9125,1189.5 340.6313,1189.5 Q339.1313,1189.5 337.9281,1188.9063 Q336.9594,1188.4375 336.2719,1187.4219 Q335.6,1186.4063 335.6,1185.2031 L335.6,1184.1094 Q335.6,1182.8594 336.1938,1181.7656 Q336.8031,1180.6719 337.85,1180.0938 Q338.9125,1179.5 340.1,1179.5 Q340.8188,1179.5 341.4438,1179.75 Q342.0688,1180 342.6,1180.5 Z "/><text fill="#000000" font-family="sans-serif" font-size="12" lengthAdjust="spacingAndGlyphs" textLength="46" x="357.4" y="1188.9102">Address</text><line style="stroke: #A80036; stroke-width: 1.5;" x1="314" x2="418" y1="1200" y2="1200"/><text fill="#000000" font-family="sans-serif" font-size="11" lengthAdjust="spacingAndGlyphs" textLength="82" x="319" y="1215.4189">-double longitude</text><text fill="#000000" font-family="sans-serif" font-size="11" lengthAdjust="spacingAndGlyphs" textLength="73" x="319" y="1229.2549">-double latitude</text><text fill="#000000" font-family="sans-serif" font-size="11" lengthAdjust="spacingAndGlyphs" textLength="94" x="319" y="1243.0908">-String doorNumber</text><text fill="#000000" font-family="sans-serif" font-size="11" lengthAdjust="spacingAndGlyphs" textLength="90" x="319" y="1256.9268">-String streetName</text><text fill="#000000" font-family="sans-serif" font-size="11" lengthAdjust="spacingAndGlyphs" textLength="89" x="319" y="1270.7627">-String postalCode</text><text fill="#000000" font-family="sans-serif" font-size="11" lengthAdjust="spacingAndGlyphs" textLength="68" x="319" y="1284.5986">-String locality</text><text fill="#000000" font-family="sans-serif" font-size="11" lengthAdjust="spacingAndGlyphs" textLength="72" x="319" y="1298.4346">-String country</text><line style="stroke: #A80036; stroke-width: 1.5;" x1="314" x2="418" y1="1304.8516" y2="1304.8516"/><!--MD5=[7f2a9fafcebe4f099f71398fd3e2ed00]
class Pharmacy--><rect fill="#FEFECE" filter="url(#fhttgy2h1jla)" height="103.3438" id="Pharmacy" style="stroke: #A80036; stroke-width: 1.5;" width="102" x="314" y="987"/><ellipse cx="335.75" cy="1003" fill="#ADD1B2" rx="11" ry="11" style="stroke: #A80036; stroke-width: 1.0;"/><path d="M337.75,999.5 Q337.9531,999 338.1875,998.75 Q338.4219,998.5 338.6875,998.5 Q339.1563,998.5 339.4531,998.7813 Q339.75,999.0625 339.75,999.7188 L339.75,1001.2813 Q339.75,1001.9375 339.4688,1002.2188 Q339.1875,1002.5 338.75,1002.5 Q338.3594,1002.5 338.1094,1002.3281 Q337.8594,1002.1563 337.75,1001.7031 Q337.7031,1001.3906 337.5313,1001.2188 Q337.2188,1000.8906 336.6563,1000.7031 Q336.0938,1000.5 335.5313,1000.5 Q334.8281,1000.5 334.2344,1000.7813 Q333.6563,1001.0625 333.2031,1001.6875 Q332.75,1002.3125 332.75,1003.1719 L332.75,1004.0938 Q332.75,1005.125 333.5938,1005.8125 Q334.4375,1006.5 335.9375,1006.5 Q336.8281,1006.5 337.4531,1006.2969 Q337.8125,1006.1875 338.2188,1005.8281 Q338.4844,1005.625 338.625,1005.5625 Q338.7656,1005.5 338.9375,1005.5 Q339.2656,1005.5 339.5,1005.7656 Q339.75,1006.0156 339.75,1006.375 Q339.75,1006.7188 339.4063,1007.125 Q338.9063,1007.7188 338.1094,1008.0469 Q337.0625,1008.5 335.7813,1008.5 Q334.2813,1008.5 333.0781,1007.9063 Q332.1094,1007.4375 331.4219,1006.4219 Q330.75,1005.4063 330.75,1004.2031 L330.75,1003.1094 Q330.75,1001.8594 331.3438,1000.7656 Q331.9531,999.6719 333,999.0938 Q334.0625,998.5 335.25,998.5 Q335.9688,998.5 336.5938,998.75 Q337.2188,999 337.75,999.5 Z "/><text fill="#000000" font-family="sans-serif" font-size="12" lengthAdjust="spacingAndGlyphs" textLength="55" x="351.25" y="1007.9102">Pharmacy</text><line style="stroke: #A80036; stroke-width: 1.5;" x1="315" x2="415" y1="1019" y2="1019"/><text fill="#000000" font-family="sans-serif" font-size="11" lengthAdjust="spacingAndGlyphs" textLength="26" x="320" y="1034.4189">-int id</text><text fill="#000000" font-family="sans-serif" font-size="11" lengthAdjust="spacingAndGlyphs" textLength="61" x="320" y="1048.2549">-String name</text><text fill="#000000" font-family="sans-serif" font-size="11" lengthAdjust="spacingAndGlyphs" textLength="59" x="320" y="1062.0908">-String email</text><line style="stroke: #A80036; stroke-width: 1.5;" x1="315" x2="415" y1="1068.5078" y2="1068.5078"/><text fill="#000000" font-family="sans-serif" font-size="11" lengthAdjust="spacingAndGlyphs" textLength="90" x="320" y="1083.9268">+getScootersList()</text><!--MD5=[28160fdc0be430cd6f04db15a7547552]
class PharmacyService--><rect fill="#FEFECE" filter="url(#fhttgy2h1jla)" height="75.6719" id="PharmacyService" style="stroke: #A80036; stroke-width: 1.5;" width="127" x="62.5" y="425.5"/><ellipse cx="77.5" cy="441.5" fill="#ADD1B2" rx="11" ry="11" style="stroke: #A80036; stroke-width: 1.0;"/><path d="M79.5,438 Q79.7031,437.5 79.9375,437.25 Q80.1719,437 80.4375,437 Q80.9063,437 81.2031,437.2813 Q81.5,437.5625 81.5,438.2188 L81.5,439.7813 Q81.5,440.4375 81.2188,440.7188 Q80.9375,441 80.5,441 Q80.1094,441 79.8594,440.8281 Q79.6094,440.6563 79.5,440.2031 Q79.4531,439.8906 79.2813,439.7188 Q78.9688,439.3906 78.4063,439.2031 Q77.8438,439 77.2813,439 Q76.5781,439 75.9844,439.2813 Q75.4063,439.5625 74.9531,440.1875 Q74.5,440.8125 74.5,441.6719 L74.5,442.5938 Q74.5,443.625 75.3438,444.3125 Q76.1875,445 77.6875,445 Q78.5781,445 79.2031,444.7969 Q79.5625,444.6875 79.9688,444.3281 Q80.2344,444.125 80.375,444.0625 Q80.5156,444 80.6875,444 Q81.0156,444 81.25,444.2656 Q81.5,444.5156 81.5,444.875 Q81.5,445.2188 81.1563,445.625 Q80.6563,446.2188 79.8594,446.5469 Q78.8125,447 77.5313,447 Q76.0313,447 74.8281,446.4063 Q73.8594,445.9375 73.1719,444.9219 Q72.5,443.9063 72.5,442.7031 L72.5,441.6094 Q72.5,440.3594 73.0938,439.2656 Q73.7031,438.1719 74.75,437.5938 Q75.8125,437 77,437 Q77.7188,437 78.3438,437.25 Q78.9688,437.5 79.5,438 Z "/><text fill="#000000" font-family="sans-serif" font-size="12" lengthAdjust="spacingAndGlyphs" textLength="95" x="91.5" y="446.4102">PharmacyService</text><line style="stroke: #A80036; stroke-width: 1.5;" x1="63.5" x2="188.5" y1="457.5" y2="457.5"/><line style="stroke: #A80036; stroke-width: 1.5;" x1="63.5" x2="188.5" y1="465.5" y2="465.5"/><text fill="#000000" font-family="sans-serif" font-size="11" lengthAdjust="spacingAndGlyphs" textLength="99" x="68.5" y="480.9189">+PharmacyService()</text><text fill="#000000" font-family="sans-serif" font-size="11" lengthAdjust="spacingAndGlyphs" textLength="85" x="68.5" y="494.7549">+getPharmacies()</text><!--MD5=[f0386d752ae2001320683395ba6b7079]
class DroneService--><rect fill="#FEFECE" filter="url(#fhttgy2h1jla)" height="103.3438" id="DroneService" style="stroke: #A80036; stroke-width: 1.5;" width="290" x="225" y="412"/><ellipse cx="328.75" cy="428" fill="#ADD1B2" rx="11" ry="11" style="stroke: #A80036; stroke-width: 1.0;"/><path d="M330.75,424.5 Q330.9531,424 331.1875,423.75 Q331.4219,423.5 331.6875,423.5 Q332.1563,423.5 332.4531,423.7813 Q332.75,424.0625 332.75,424.7188 L332.75,426.2813 Q332.75,426.9375 332.4688,427.2188 Q332.1875,427.5 331.75,427.5 Q331.3594,427.5 331.1094,427.3281 Q330.8594,427.1563 330.75,426.7031 Q330.7031,426.3906 330.5313,426.2188 Q330.2188,425.8906 329.6563,425.7031 Q329.0938,425.5 328.5313,425.5 Q327.8281,425.5 327.2344,425.7813 Q326.6563,426.0625 326.2031,426.6875 Q325.75,427.3125 325.75,428.1719 L325.75,429.0938 Q325.75,430.125 326.5938,430.8125 Q327.4375,431.5 328.9375,431.5 Q329.8281,431.5 330.4531,431.2969 Q330.8125,431.1875 331.2188,430.8281 Q331.4844,430.625 331.625,430.5625 Q331.7656,430.5 331.9375,430.5 Q332.2656,430.5 332.5,430.7656 Q332.75,431.0156 332.75,431.375 Q332.75,431.7188 332.4063,432.125 Q331.9063,432.7188 331.1094,433.0469 Q330.0625,433.5 328.7813,433.5 Q327.2813,433.5 326.0781,432.9063 Q325.1094,432.4375 324.4219,431.4219 Q323.75,430.4063 323.75,429.2031 L323.75,428.1094 Q323.75,426.8594 324.3438,425.7656 Q324.9531,424.6719 326,424.0938 Q327.0625,423.5 328.25,423.5 Q328.9688,423.5 329.5938,423.75 Q330.2188,424 330.75,424.5 Z "/><text fill="#000000" font-family="sans-serif" font-size="12" lengthAdjust="spacingAndGlyphs" textLength="74" x="349.25" y="432.9102">DroneService</text><line style="stroke: #A80036; stroke-width: 1.5;" x1="226" x2="514" y1="444" y2="444"/><line style="stroke: #A80036; stroke-width: 1.5;" x1="226" x2="514" y1="452" y2="452"/><text fill="#000000" font-family="sans-serif" font-size="11" lengthAdjust="spacingAndGlyphs" textLength="80" x="231" y="467.4189">+DroneService()</text><text fill="#000000" font-family="sans-serif" font-size="11" lengthAdjust="spacingAndGlyphs" textLength="137" x="231" y="481.2549">+getDronesList(pharmacyId)</text><text fill="#000000" font-family="sans-serif" font-size="11" lengthAdjust="spacingAndGlyphs" textLength="278" x="231" y="495.0908">+updateDrone(designation, potency, weight, maxPayload,</text><text fill="#000000" font-family="sans-serif" font-size="11" lengthAdjust="spacingAndGlyphs" textLength="211" x="231" y="508.9268">batteryCapacity, batteryVoltage, efficiency)</text><!--MD5=[4b2d61224b33971326a22fe5d809d926]
class DataHandler--><rect fill="#FEFECE" filter="url(#fhttgy2h1jla)" height="75.6719" id="DataHandler" style="stroke: #A80036; stroke-width: 1.5;" width="104" x="861" y="425.5"/><ellipse cx="876.9" cy="441.5" fill="#ADD1B2" rx="11" ry="11" style="stroke: #A80036; stroke-width: 1.0;"/><path d="M878.9,438 Q879.1031,437.5 879.3375,437.25 Q879.5719,437 879.8375,437 Q880.3063,437 880.6031,437.2813 Q880.9,437.5625 880.9,438.2188 L880.9,439.7813 Q880.9,440.4375 880.6188,440.7188 Q880.3375,441 879.9,441 Q879.5094,441 879.2594,440.8281 Q879.0094,440.6563 878.9,440.2031 Q878.8531,439.8906 878.6813,439.7188 Q878.3688,439.3906 877.8063,439.2031 Q877.2438,439 876.6813,439 Q875.9781,439 875.3844,439.2813 Q874.8063,439.5625 874.3531,440.1875 Q873.9,440.8125 873.9,441.6719 L873.9,442.5938 Q873.9,443.625 874.7438,444.3125 Q875.5875,445 877.0875,445 Q877.9781,445 878.6031,444.7969 Q878.9625,444.6875 879.3688,444.3281 Q879.6344,444.125 879.775,444.0625 Q879.9156,444 880.0875,444 Q880.4156,444 880.65,444.2656 Q880.9,444.5156 880.9,444.875 Q880.9,445.2188 880.5563,445.625 Q880.0563,446.2188 879.2594,446.5469 Q878.2125,447 876.9313,447 Q875.4313,447 874.2281,446.4063 Q873.2594,445.9375 872.5719,444.9219 Q871.9,443.9063 871.9,442.7031 L871.9,441.6094 Q871.9,440.3594 872.4938,439.2656 Q873.1031,438.1719 874.15,437.5938 Q875.2125,437 876.4,437 Q877.1188,437 877.7438,437.25 Q878.3688,437.5 878.9,438 Z "/><text fill="#000000" font-family="sans-serif" font-size="12" lengthAdjust="spacingAndGlyphs" textLength="70" x="891.1" y="446.4102">DataHandler</text><line style="stroke: #A80036; stroke-width: 1.5;" x1="862" x2="964" y1="457.5" y2="457.5"/><line style="stroke: #A80036; stroke-width: 1.5;" x1="862" x2="964" y1="465.5" y2="465.5"/><text fill="#000000" font-family="sans-serif" font-size="11" lengthAdjust="spacingAndGlyphs" textLength="92" x="867" y="480.9189">+openConnection()</text><text fill="#000000" font-family="sans-serif" font-size="11" lengthAdjust="spacingAndGlyphs" textLength="52" x="867" y="494.7549">+closeAll()</text><!--MD5=[b860ecc58d0ca70e482845cb1f7b4615]
class PharmacyDB--><rect fill="#FEFECE" filter="url(#fhttgy2h1jla)" height="75.6719" id="PharmacyDB" style="stroke: #A80036; stroke-width: 1.5;" width="104" x="1048" y="608.5"/><ellipse cx="1063" cy="624.5" fill="#ADD1B2" rx="11" ry="11" style="stroke: #A80036; stroke-width: 1.0;"/><path d="M1065,621 Q1065.2031,620.5 1065.4375,620.25 Q1065.6719,620 1065.9375,620 Q1066.4063,620 1066.7031,620.2813 Q1067,620.5625 1067,621.2188 L1067,622.7813 Q1067,623.4375 1066.7188,623.7188 Q1066.4375,624 1066,624 Q1065.6094,624 1065.3594,623.8281 Q1065.1094,623.6563 1065,623.2031 Q1064.9531,622.8906 1064.7813,622.7188 Q1064.4688,622.3906 1063.9063,622.2031 Q1063.3438,622 1062.7813,622 Q1062.0781,622 1061.4844,622.2813 Q1060.9063,622.5625 1060.4531,623.1875 Q1060,623.8125 1060,624.6719 L1060,625.5938 Q1060,626.625 1060.8438,627.3125 Q1061.6875,628 1063.1875,628 Q1064.0781,628 1064.7031,627.7969 Q1065.0625,627.6875 1065.4688,627.3281 Q1065.7344,627.125 1065.875,627.0625 Q1066.0156,627 1066.1875,627 Q1066.5156,627 1066.75,627.2656 Q1067,627.5156 1067,627.875 Q1067,628.2188 1066.6563,628.625 Q1066.1563,629.2188 1065.3594,629.5469 Q1064.3125,630 1063.0313,630 Q1061.5313,630 1060.3281,629.4063 Q1059.3594,628.9375 1058.6719,627.9219 Q1058,626.9063 1058,625.7031 L1058,624.6094 Q1058,623.3594 1058.5938,622.2656 Q1059.2031,621.1719 1060.25,620.5938 Q1061.3125,620 1062.5,620 Q1063.2188,620 1063.8438,620.25 Q1064.4688,620.5 1065,621 Z "/><text fill="#000000" font-family="sans-serif" font-size="12" lengthAdjust="spacingAndGlyphs" textLength="72" x="1077" y="629.4102">PharmacyDB</text><line style="stroke: #A80036; stroke-width: 1.5;" x1="1049" x2="1151" y1="640.5" y2="640.5"/><line style="stroke: #A80036; stroke-width: 1.5;" x1="1049" x2="1151" y1="648.5" y2="648.5"/><text fill="#000000" font-family="sans-serif" font-size="11" lengthAdjust="spacingAndGlyphs" textLength="76" x="1054" y="663.9189">+PharmacyDB()</text><text fill="#000000" font-family="sans-serif" font-size="11" lengthAdjust="spacingAndGlyphs" textLength="85" x="1054" y="677.7549">+getPharmacies()</text><!--MD5=[e5e4874ffcb9901dc5acd0f1e94e7c33]
class DroneDB--><rect fill="#FEFECE" filter="url(#fhttgy2h1jla)" height="103.3438" id="DroneDB" style="stroke: #A80036; stroke-width: 1.5;" width="328" x="685" y="595"/><ellipse cx="819.25" cy="611" fill="#ADD1B2" rx="11" ry="11" style="stroke: #A80036; stroke-width: 1.0;"/><path d="M821.25,607.5 Q821.4531,607 821.6875,606.75 Q821.9219,606.5 822.1875,606.5 Q822.6563,606.5 822.9531,606.7813 Q823.25,607.0625 823.25,607.7188 L823.25,609.2813 Q823.25,609.9375 822.9688,610.2188 Q822.6875,610.5 822.25,610.5 Q821.8594,610.5 821.6094,610.3281 Q821.3594,610.1563 821.25,609.7031 Q821.2031,609.3906 821.0313,609.2188 Q820.7188,608.8906 820.1563,608.7031 Q819.5938,608.5 819.0313,608.5 Q818.3281,608.5 817.7344,608.7813 Q817.1563,609.0625 816.7031,609.6875 Q816.25,610.3125 816.25,611.1719 L816.25,612.0938 Q816.25,613.125 817.0938,613.8125 Q817.9375,614.5 819.4375,614.5 Q820.3281,614.5 820.9531,614.2969 Q821.3125,614.1875 821.7188,613.8281 Q821.9844,613.625 822.125,613.5625 Q822.2656,613.5 822.4375,613.5 Q822.7656,613.5 823,613.7656 Q823.25,614.0156 823.25,614.375 Q823.25,614.7188 822.9063,615.125 Q822.4063,615.7188 821.6094,616.0469 Q820.5625,616.5 819.2813,616.5 Q817.7813,616.5 816.5781,615.9063 Q815.6094,615.4375 814.9219,614.4219 Q814.25,613.4063 814.25,612.2031 L814.25,611.1094 Q814.25,609.8594 814.8438,608.7656 Q815.4531,607.6719 816.5,607.0938 Q817.5625,606.5 818.75,606.5 Q819.4688,606.5 820.0938,606.75 Q820.7188,607 821.25,607.5 Z "/><text fill="#000000" font-family="sans-serif" font-size="12" lengthAdjust="spacingAndGlyphs" textLength="51" x="839.75" y="615.9102">DroneDB</text><line style="stroke: #A80036; stroke-width: 1.5;" x1="686" x2="1012" y1="627" y2="627"/><line style="stroke: #A80036; stroke-width: 1.5;" x1="686" x2="1012" y1="635" y2="635"/><text fill="#000000" font-family="sans-serif" font-size="11" lengthAdjust="spacingAndGlyphs" textLength="57" x="691" y="650.4189">+DroneDB()</text><text fill="#000000" font-family="sans-serif" font-size="11" lengthAdjust="spacingAndGlyphs" textLength="81" x="691" y="664.2549">+getDronesList()</text><text fill="#000000" font-family="sans-serif" font-size="11" lengthAdjust="spacingAndGlyphs" textLength="316" x="691" y="678.0908">+updateDroneFromDB(designation, potency, weight, maxPayload,</text><text fill="#000000" font-family="sans-serif" font-size="11" lengthAdjust="spacingAndGlyphs" textLength="211" x="691" y="691.9268">batteryCapacity, batteryVoltage, efficiency)</text><!--MD5=[f40d64c3825bdc96a4efd5b7e3ff1420]
reverse link DataHandler to PharmacyDB--><path d="M966.06,515.857 C996.557,545.376 1034.16,581.777 1061.76,608.485 " fill="none" id="DataHandler&lt;-PharmacyDB" style="stroke: #A80036; stroke-width: 1.0;"/><polygon fill="none" points="960.796,520.504,951.293,501.565,970.533,510.445,960.796,520.504" style="stroke: #A80036; stroke-width: 1.0;"/><!--MD5=[18feea515641fb3f6597b6a3b4d6a380]
reverse link DataHandler to DroneDB--><path d="M910.71,521.653 C908.91,536.099 905.916,551.372 901,565 C897.33,575.173 892.172,585.37 886.517,594.922 " fill="none" id="DataHandler&lt;-DroneDB" style="stroke: #A80036; stroke-width: 1.0;"/><polygon fill="none" points="903.743,520.974,912.557,501.705,917.683,522.265,903.743,520.974" style="stroke: #A80036; stroke-width: 1.0;"/><!--MD5=[6730c602dc28ce426688e0aa56024d47]
link UpdateDroneUI to UpdateDroneController--><path d="M197,108.09 C197,129.11 197,160.85 197,187.58 " fill="none" id="UpdateDroneUI-&gt;UpdateDroneController" style="stroke: #A80036; stroke-width: 1.0; stroke-dasharray: 7.0,7.0;"/><polygon fill="#A80036" points="197,192.85,201,183.85,197,187.85,193,183.85,197,192.85" style="stroke: #A80036; stroke-width: 1.0;"/><!--MD5=[cb0e76a4430fdd24564764d63f72afb8]
link UpdateDroneController to PharmacyService--><path d="M182.973,283.16 C170.325,322.97 151.854,381.12 139.403,420.31 " fill="none" id="UpdateDroneController-&gt;PharmacyService" style="stroke: #A80036; stroke-width: 1.0; stroke-dasharray: 7.0,7.0;"/><polygon fill="#A80036" points="137.763,425.47,144.3006,418.1039,139.2771,420.7048,136.6763,415.6813,137.763,425.47" style="stroke: #A80036; stroke-width: 1.0;"/><!--MD5=[0310c6a41c9c71922eb716016d3d720d]
link UpdateDroneController to DroneService--><path d="M231.179,283.16 C258.827,318.87 297.898,369.35 327.549,407.66 " fill="none" id="UpdateDroneController-&gt;DroneService" style="stroke: #A80036; stroke-width: 1.0; stroke-dasharray: 7.0,7.0;"/><polygon fill="#A80036" points="330.752,411.8,328.4101,402.2336,327.6931,407.8449,322.0819,407.1279,330.752,411.8" style="stroke: #A80036; stroke-width: 1.0;"/><!--MD5=[04ba2cb7f5803b19c0d0e740f2a895e0]
link Database to PharmacyDB--><path d="M622.78,487.27 C632.323,504.646 648.001,527.505 669,539 C687.584,549.173 742.996,544.234 764,547 C823.768,554.871 975.589,571.256 1031,595 C1037.76,597.898 1044.49,601.567 1050.95,605.599 " fill="none" id="Database-&gt;PharmacyDB" style="stroke: #A80036; stroke-width: 1.0;"/><polygon fill="#A80036" points="1055.37,608.444,1049.9771,600.2028,1051.1689,605.7327,1045.6391,606.9245,1055.37,608.444" style="stroke: #A80036; stroke-width: 1.0;"/><text fill="#000000" font-family="sans-serif" font-size="13" lengthAdjust="spacingAndGlyphs" textLength="53" x="893" y="561.4951">manages</text><text fill="#000000" font-family="sans-serif" font-size="13" lengthAdjust="spacingAndGlyphs" textLength="7" x="617.4635" y="508.1977">1</text><text fill="#000000" font-family="sans-serif" font-size="13" lengthAdjust="spacingAndGlyphs" textLength="7" x="1039.496" y="597.5102">1</text><!--MD5=[3bc0a5f81cd94df0c3ef53dec7c84f6e]
link Database to DroneDB--><path d="M626.001,487.2 C636.501,503.002 651.949,523.864 669,539 C691.332,558.825 717.893,576.903 743.66,592.312 " fill="none" id="Database-&gt;DroneDB" style="stroke: #A80036; stroke-width: 1.0;"/><polygon fill="#A80036" points="748.124,594.959,742.4251,586.9264,743.824,592.4076,738.3428,593.8064,748.124,594.959" style="stroke: #A80036; stroke-width: 1.0;"/><text fill="#000000" font-family="sans-serif" font-size="13" lengthAdjust="spacingAndGlyphs" textLength="53" x="702" y="561.4951">manages</text><text fill="#000000" font-family="sans-serif" font-size="13" lengthAdjust="spacingAndGlyphs" textLength="7" x="630.0481" y="508.1116">1</text><text fill="#000000" font-family="sans-serif" font-size="13" lengthAdjust="spacingAndGlyphs" textLength="7" x="726.4461" y="584.0817">1</text><!--MD5=[319fcd49d9a70ab1205ee2f78c6af69e]
link DroneService to PharmacyDB--><path d="M379.287,515.197 C385.38,533.917 395.435,553.381 412,565 C468.373,604.542 966.086,572.029 1031,595 C1038.53,597.666 1045.95,601.443 1052.96,605.747 " fill="none" id="DroneService-&gt;PharmacyDB" style="stroke: #A80036; stroke-width: 1.0;"/><polygon fill="#A80036" points="1057.28,608.489,1051.8362,600.2814,1053.0622,605.8038,1047.5398,607.0298,1057.28,608.489" style="stroke: #A80036; stroke-width: 1.0;"/><text fill="#000000" font-family="sans-serif" font-size="13" lengthAdjust="spacingAndGlyphs" textLength="28" x="413" y="561.4951">uses</text><text fill="#000000" font-family="sans-serif" font-size="13" lengthAdjust="spacingAndGlyphs" textLength="7" x="373.0646" y="536.7144">1</text><text fill="#000000" font-family="sans-serif" font-size="13" lengthAdjust="spacingAndGlyphs" textLength="5" x="1049.8644" y="597.5635">*</text><!--MD5=[86dd7ef81fb89360d55d798e04222848]
link PharmacyService to DroneDB--><path d="M156.528,501.843 C170.345,516.043 187.869,530.771 207,539 C230.736,549.21 298.071,540.201 323,547 C340.258,551.707 341.952,559.581 359,565 C442.985,591.696 468.014,580.873 555,595 C595.403,601.562 638.882,608.885 679.687,615.875 " fill="none" id="PharmacyService-&gt;DroneDB" style="stroke: #A80036; stroke-width: 1.0;"/><polygon fill="#A80036" points="684.649,616.725,676.4539,611.2624,679.7208,615.8805,675.1027,619.1475,684.649,616.725" style="stroke: #A80036; stroke-width: 1.0;"/><text fill="#000000" font-family="sans-serif" font-size="13" lengthAdjust="spacingAndGlyphs" textLength="28" x="360" y="561.4951">uses</text><text fill="#000000" font-family="sans-serif" font-size="13" lengthAdjust="spacingAndGlyphs" textLength="7" x="153.8356" y="522.7782">1</text><text fill="#000000" font-family="sans-serif" font-size="13" lengthAdjust="spacingAndGlyphs" textLength="5" x="672.0886" y="612.5086">*</text><!--MD5=[2ed2b43e7f6d114538396b0b10b28567]
link PharmacyService to Pharmacy--><path d="M127.173,501.905 C129.576,552.68 136.878,645.823 159,722 C191.16,832.745 198.716,865.573 269,957 C280.511,971.974 295.259,986.052 309.723,998.119 " fill="none" id="PharmacyService-&gt;Pharmacy" style="stroke: #A80036; stroke-width: 1.0;"/><polygon fill="#A80036" points="313.792,1001.468,309.3855,992.6599,309.9316,998.2903,304.3012,998.8364,313.792,1001.468" style="stroke: #A80036; stroke-width: 1.0;"/><text fill="#000000" font-family="sans-serif" font-size="13" lengthAdjust="spacingAndGlyphs" textLength="111" x="168" y="744.4951">manage services of</text><text fill="#000000" font-family="sans-serif" font-size="13" lengthAdjust="spacingAndGlyphs" textLength="7" x="119.8167" y="522.5579">1</text><text fill="#000000" font-family="sans-serif" font-size="13" lengthAdjust="spacingAndGlyphs" textLength="5" x="300.9036" y="992.3496">*</text><!--MD5=[e3cc844120729527281d37c09bce0e7b]
link DroneService to Drone--><path d="M235.134,515.068 C223.694,524.092 213.609,534.655 206,547 C191.33,570.801 206.447,590.456 231.354,605.781 " fill="none" id="DroneService-&gt;Drone" style="stroke: #A80036; stroke-width: 1.0;"/><polygon fill="#A80036" points="235.771,608.397,230.067,600.368,231.4694,605.8483,225.9891,607.2507,235.771,608.397" style="stroke: #A80036; stroke-width: 1.0;"/><text fill="#000000" font-family="sans-serif" font-size="13" lengthAdjust="spacingAndGlyphs" textLength="111" x="207" y="561.4951">manage services of</text><text fill="#000000" font-family="sans-serif" font-size="13" lengthAdjust="spacingAndGlyphs" textLength="7" x="210.4059" y="536.1958">1</text><text fill="#000000" font-family="sans-serif" font-size="13" lengthAdjust="spacingAndGlyphs" textLength="5" x="210.8693" y="597.7406">*</text><!--MD5=[51d7b9a785c9fb041ca400474ed1d998]
link Database to Pharmacy--><path d="M610.879,487.13 C609.49,507.691 606.46,538.722 600,565 C555.508,745.995 554.825,802.212 451,957 C441.431,971.267 428.882,984.838 416.339,996.634 " fill="none" id="Database-Pharmacy" style="stroke: #A80036; stroke-width: 1.0;"/><text fill="#000000" font-family="sans-serif" font-size="13" lengthAdjust="spacingAndGlyphs" textLength="82" x="561" y="744.4951">has registered</text><polygon fill="#000000" points="597.5,753.3516,600.5,759.3516,603.5,753.3516,597.5,753.3516" style="stroke: #000000; stroke-width: 1.0;"/><text fill="#000000" font-family="sans-serif" font-size="13" lengthAdjust="spacingAndGlyphs" textLength="7" x="602.8104" y="508.0254">1</text><text fill="#000000" font-family="sans-serif" font-size="13" lengthAdjust="spacingAndGlyphs" textLength="5" x="423.9101" y="987.1173">*</text><!--MD5=[96117966725c1e8921b92ed7b1677b7b]
link Database to Drone--><path d="M592.962,487.31 C577.821,504.007 555.22,525.948 531,539 C518.095,545.955 512.462,541.197 499,547 C478.672,555.763 434.769,584.224 399.021,608.314 " fill="none" id="Database-Drone" style="stroke: #A80036; stroke-width: 1.0;"/><polygon fill="#000000" points="507,554.6758,501,557.6758,507,560.6758,507,554.6758" style="stroke: #000000; stroke-width: 1.0;"/><text fill="#000000" font-family="sans-serif" font-size="13" lengthAdjust="spacingAndGlyphs" textLength="82" x="513" y="561.4951">has registered</text><text fill="#000000" font-family="sans-serif" font-size="13" lengthAdjust="spacingAndGlyphs" textLength="7" x="580.7501" y="508.247">1</text><text fill="#000000" font-family="sans-serif" font-size="13" lengthAdjust="spacingAndGlyphs" textLength="5" x="403.1982" y="597.6428">*</text><!--MD5=[074a56c4439d52c76e1cc7a8f9d070a4]
link Vehicle to Battery--><path d="M304.206,909.035 C288.205,934.348 270.112,962.97 255.072,986.762 " fill="none" id="Vehicle-Battery" style="stroke: #A80036; stroke-width: 1.0;"/><text fill="#000000" font-family="sans-serif" font-size="13" lengthAdjust="spacingAndGlyphs" textLength="21" x="285" y="953.4951">has</text><polygon fill="#000000" points="291,962.3516,294,968.3516,297,962.3516,291,962.3516" style="stroke: #000000; stroke-width: 1.0;"/><text fill="#000000" font-family="sans-serif" font-size="13" lengthAdjust="spacingAndGlyphs" textLength="7" x="292.3613" y="930.5914">1</text><text fill="#000000" font-family="sans-serif" font-size="13" lengthAdjust="spacingAndGlyphs" textLength="7" x="251.9114" y="976.2303">1</text><!--MD5=[9793812679a856b96e8ba34e2675abcc]
link Vehicle to Pharmacy--><path d="M351.688,909.035 C354.311,934.348 357.277,962.97 359.742,986.762 " fill="none" id="Vehicle-Pharmacy" style="stroke: #A80036; stroke-width: 1.0;"/><text fill="#000000" font-family="sans-serif" font-size="13" lengthAdjust="spacingAndGlyphs" textLength="71" x="358" y="953.4951">belongs to a</text><polygon fill="#000000" points="389,962.3516,392,968.3516,395,962.3516,389,962.3516" style="stroke: #000000; stroke-width: 1.0;"/><text fill="#000000" font-family="sans-serif" font-size="13" lengthAdjust="spacingAndGlyphs" textLength="5" x="347.1461" y="930.5914">*</text><text fill="#000000" font-family="sans-serif" font-size="13" lengthAdjust="spacingAndGlyphs" textLength="7" x="351.5651" y="976.2303">1</text><!--MD5=[3f58d672939e81cd871f2f51e09decba]
link Drone to Vehicle--><path d="M345,684.637 C345,710.937 345,746.897 345,777.853 " fill="none" id="Drone-Vehicle" style="stroke: #A80036; stroke-width: 1.0;"/><text fill="#000000" font-family="sans-serif" font-size="13" lengthAdjust="spacingAndGlyphs" textLength="64" x="346" y="744.4951">is a type of</text><polygon fill="#000000" points="373.5,753.3516,376.5,759.3516,379.5,753.3516,373.5,753.3516" style="stroke: #000000; stroke-width: 1.0;"/><text fill="#000000" font-family="sans-serif" font-size="13" lengthAdjust="spacingAndGlyphs" textLength="5" x="339.6016" y="705.5394">*</text><text fill="#000000" font-family="sans-serif" font-size="13" lengthAdjust="spacingAndGlyphs" textLength="7" x="337.6172" y="767.3113">1</text><!--MD5=[89baec1bfb4a213750f7c61516e0a0f1]
link Pharmacy to Address--><path d="M365.254,1090.227 C365.371,1113.72 365.513,1142.049 365.641,1167.687 " fill="none" id="Pharmacy-Address" style="stroke: #A80036; stroke-width: 1.0;"/><text fill="#000000" font-family="sans-serif" font-size="13" lengthAdjust="spacingAndGlyphs" textLength="21" x="367" y="1134.4951">has</text><polygon fill="#000000" points="373,1143.3516,376,1149.3516,379,1143.3516,373,1143.3516" style="stroke: #000000; stroke-width: 1.0;"/><text fill="#000000" font-family="sans-serif" font-size="13" lengthAdjust="spacingAndGlyphs" textLength="7" x="357.8178" y="1111.7485">1</text><text fill="#000000" font-family="sans-serif" font-size="13" lengthAdjust="spacingAndGlyphs" textLength="7" x="358.2611" y="1157.2517">1</text><!--MD5=[0ae4e3be80761dbc176b3d01b8ab98e4]
link Pharmacy to Park--><path d="M328.73,1090.227 C301.838,1127.838 266.082,1177.847 243.55,1209.36 " fill="none" id="Pharmacy-Park" style="stroke: #A80036; stroke-width: 1.0;"/><text fill="#000000" font-family="sans-serif" font-size="13" lengthAdjust="spacingAndGlyphs" textLength="21" x="308" y="1134.4951">has</text><polygon fill="#000000" points="314,1143.3516,317,1149.3516,320,1143.3516,314,1143.3516" style="stroke: #000000; stroke-width: 1.0;"/><text fill="#000000" font-family="sans-serif" font-size="13" lengthAdjust="spacingAndGlyphs" textLength="7" x="316.3859" y="1111.7485">1</text><text fill="#000000" font-family="sans-serif" font-size="13" lengthAdjust="spacingAndGlyphs" textLength="7" x="240.2728" y="1198.8357">1</text><!--MD5=[ad77aa3b7491516c05092123a4a53a0f]
link Park to ChargingSlot--><path d="M202.779,1271.88 C182.207,1304.393 149.559,1355.993 127.481,1390.888 " fill="none" id="Park-ChargingSlot" style="stroke: #A80036; stroke-width: 1.0;"/><text fill="#000000" font-family="sans-serif" font-size="13" lengthAdjust="spacingAndGlyphs" textLength="21" x="157" y="1357.4951">has</text><polygon fill="#000000" points="163,1366.3516,166,1372.3516,169,1366.3516,163,1366.3516" style="stroke: #000000; stroke-width: 1.0;"/><text fill="#000000" font-family="sans-serif" font-size="13" lengthAdjust="spacingAndGlyphs" textLength="7" x="191.4478" y="1292.9311">1</text><text fill="#000000" font-family="sans-serif" font-size="13" lengthAdjust="spacingAndGlyphs" textLength="7" x="124.0401" y="1380.23">1</text><!--MD5=[d231af42e5f994c6ef3dd0db49c43284]
link Park to ParkingSlot--><path d="M224.769,1271.88 C227.94,1306.664 233.102,1363.294 236.26,1397.943 " fill="none" id="Park-ParkingSlot" style="stroke: #A80036; stroke-width: 1.0;"/><text fill="#000000" font-family="sans-serif" font-size="13" lengthAdjust="spacingAndGlyphs" textLength="21" x="234" y="1357.4951">has</text><polygon fill="#000000" points="240,1366.3516,243,1372.3516,246,1366.3516,240,1366.3516" style="stroke: #000000; stroke-width: 1.0;"/><text fill="#000000" font-family="sans-serif" font-size="13" lengthAdjust="spacingAndGlyphs" textLength="7" x="217.6297" y="1292.9311">1</text><text fill="#000000" font-family="sans-serif" font-size="13" lengthAdjust="spacingAndGlyphs" textLength="7" x="227.895" y="1386.9508">1</text><!--MD5=[b7d0a83f77d37bd6a008b307dfcb7a90]
@startuml
skinparam classAttributeIconSize 0

database Database {
}

package "UI" #DDDDDD {
class UpdateDroneUI{
}
}

package "Controller" #DDDDDD {
class UpdateDroneController{
+showPharmacies()
+showDronesList(pharmacyId)
+updateDrone(drone)
}
}


package "Model" #DDDDDD {
 package "Service" #DDDDDD {
  class PharmacyService{
      +PharmacyService()
      +getPharmacies()
  }

  class DroneService{
      +DroneService()
      +getDronesList(pharmacyId)
      +updateDrone(designation, potency, weight, maxPayload,\nbatteryCapacity, batteryVoltage, efficiency)
   }
}

package "Model" #DDDDDD {
class Park{
-   int maxSlotsNumber
}

class ChargingSlot{
-   int id
-   float outputPower
}

class ParkingSlot{
-   int id
}

class Drone{
+Drone(batteryPerc, charginStatus, potency,\n weight, batteryCapacity, maxPayload, batteryVoltage, pharmacyId)

}

class Vehicle{
  -int id
  -String vehicleType
  -float potency
  -float weight
  -float maxPayload
  -String charngingStatus
}

class Battery{
  -int id
  -float batteryPerc
  -int batteryCapacity
  -float batteryVoltage
}

class Address{
  -double longitude
  -double latitude
  -String doorNumber
  -String streetName
  -String postalCode
  -String locality
  -String country
}

class Pharmacy {
  -int id
  -String name
-   String email
  +getScootersList()
}
}


package "Data" #DDDDDD {
class DataHandler{
    +openConnection()
    +closeAll()
}
class PharmacyDB{
     +PharmacyDB()
     +getPharmacies()
 }

 class DroneDB{
     +DroneDB()
     +getDronesList()
     +updateDroneFromDB(designation, potency, weight, maxPayload,\nbatteryCapacity, batteryVoltage, efficiency)
  }
}

class PharmacyDB extends DataHandler
class DroneDB extends DataHandler

UpdateDroneUI ..> UpdateDroneController
UpdateDroneController ..> PharmacyService
UpdateDroneController ..> DroneService
Database "1" - -> "1" PharmacyDB : manages
Database "1" - -> "1" DroneDB : manages
DroneService "1" - -> "*" PharmacyDB : uses
PharmacyService "1" - -> "*" DroneDB : uses
PharmacyService "1" - -> "*" Pharmacy : manage services of
DroneService "1" - -> "*" Drone : manage services of

Database "1" - - "*" Pharmacy : has registered >
Database "1" - - "*" Drone : has registered >

Vehicle "1" - - "1" Battery : has >
Vehicle "*" - - "1" Pharmacy : belongs to a >
Drone "*" - - "1" Vehicle : is a type of >
Pharmacy "1" - - "1" Address : has >
Pharmacy "1" - - "1" Park : has >
Park "1" - - "1" ChargingSlot : has >
Park "1" - - "1" ParkingSlot : has >

@enduml

PlantUML version 1.2020.09(Sun May 10 11:51:06 BST 2020)
(GPL source distribution)
Java Runtime: OpenJDK Runtime Environment
JVM: OpenJDK 64-Bit Server VM
Java Version: 11.0.6+8-b765.40
Operating System: Windows 10
Default Encoding: Cp1252
Language: pt
Country: PT
--></g></svg>