<?xml version="1.0" encoding="UTF-8" standalone="no"?><svg xmlns="http://www.w3.org/2000/svg" xmlns:xlink="http://www.w3.org/1999/xlink" contentScriptType="application/ecmascript" contentStyleType="text/css" height="680px" preserveAspectRatio="none" style="width:891px;height:680px;" version="1.1" viewBox="0 0 891 680" width="891px" zoomAndPan="magnify"><defs><filter height="300%" id="f10q84u1am7gge" width="300%" x="-1" y="-1"><feGaussianBlur result="blurOut" stdDeviation="2.0"/><feColorMatrix in="blurOut" result="blurOut2" type="matrix" values="0 0 0 0 0 0 0 0 0 0 0 0 0 0 0 0 0 0 .4 0"/><feOffset dx="4.0" dy="4.0" in="blurOut2" result="blurOut3"/><feBlend in="SourceGraphic" in2="blurOut3" mode="normal"/></filter></defs><g><rect fill="#FFFFFF" filter="url(#f10q84u1am7gge)" height="412.0859" style="stroke:#A80036;stroke-width:1.0;" width="10" x="278" y="174.0156"/><rect fill="#FFFFFF" filter="url(#f10q84u1am7gge)" height="308.6797" style="stroke:#A80036;stroke-width:1.0;" width="10" x="399" y="277.4219"/><rect fill="#FFFFFF" filter="url(#f10q84u1am7gge)" height="134.4063" style="stroke:#A80036;stroke-width:1.0;" width="10" x="716.5" y="415.3438"/><rect fill="#FFFFFF" filter="url(#f10q84u1am7gge)" height="60.7031" style="stroke:#A80036;stroke-width:1.0;" width="10" x="851.5" y="489.0469"/><line style="stroke:#A80036;stroke-width:1.0;stroke-dasharray:5.0,5.0;" x1="282.5" x2="282.5" y1="68.6094" y2="611.1016"/><line style="stroke:#A80036;stroke-width:1.0;stroke-dasharray:5.0,5.0;" x1="404" x2="404" y1="68.6094" y2="611.1016"/><line style="stroke:#A80036;stroke-width:1.0;stroke-dasharray:5.0,5.0;" x1="721" x2="721" y1="370.8828" y2="611.1016"/><line style="stroke:#A80036;stroke-width:1.0;stroke-dasharray:5.0,5.0;" x1="856" x2="856" y1="68.6094" y2="611.1016"/><rect fill="#FEFECE" filter="url(#f10q84u1am7gge)" height="49.2188" style="stroke:#A80036;stroke-width:1.5;" width="55" x="253.5" y="14.3906"/><text fill="#000000" font-family="sans-serif" font-size="14" lengthAdjust="spacing" textLength="37" x="262.5" y="35.9238">xxxDB</text><text fill="#000000" font-family="sans-serif" font-size="14" lengthAdjust="spacing" textLength="41" x="260.5" y="53.5332">:xxxDB</text><rect fill="#FEFECE" filter="url(#f10q84u1am7gge)" height="49.2188" style="stroke:#A80036;stroke-width:1.5;" width="55" x="253.5" y="610.1016"/><text fill="#000000" font-family="sans-serif" font-size="14" lengthAdjust="spacing" textLength="37" x="262.5" y="631.6348">xxxDB</text><text fill="#000000" font-family="sans-serif" font-size="14" lengthAdjust="spacing" textLength="41" x="260.5" y="649.2441">:xxxDB</text><rect fill="#FEFECE" filter="url(#f10q84u1am7gge)" height="49.2188" style="stroke:#A80036;stroke-width:1.5;" width="132" x="336" y="14.3906"/><text fill="#FF0000" font-family="sans-serif" font-size="14" font-style="italic" lengthAdjust="spacing" textLength="118" x="343" y="35.9238">extended by xxxDB</text><text fill="#000000" font-family="sans-serif" font-size="14" lengthAdjust="spacing" textLength="83" x="360.5" y="53.5332">:DataHandler</text><rect fill="#FEFECE" filter="url(#f10q84u1am7gge)" height="49.2188" style="stroke:#A80036;stroke-width:1.5;" width="132" x="336" y="610.1016"/><text fill="#FF0000" font-family="sans-serif" font-size="14" font-style="italic" lengthAdjust="spacing" textLength="118" x="343" y="631.6348">extended by xxxDB</text><text fill="#000000" font-family="sans-serif" font-size="14" lengthAdjust="spacing" textLength="83" x="360.5" y="649.2441">:DataHandler</text><rect fill="#FEFECE" filter="url(#f10q84u1am7gge)" height="49.2188" style="stroke:#A80036;stroke-width:1.5;" width="101" x="669" y="610.1016"/><text fill="#000000" font-family="sans-serif" font-size="14" lengthAdjust="spacing" textLength="42" x="698.5" y="631.6348">runner</text><text fill="#000000" font-family="sans-serif" font-size="14" lengthAdjust="spacing" textLength="87" x="676" y="649.2441">:ScriptRunner</text><text fill="#000000" font-family="sans-serif" font-size="14" lengthAdjust="spacing" textLength="61" x="823" y="65.5332">Database</text><path d="M838.5,15 C838.5,5 856.5,5 856.5,5 C856.5,5 874.5,5 874.5,15 L874.5,41 C874.5,51 856.5,51 856.5,51 C856.5,51 838.5,51 838.5,41 L838.5,15 " fill="#FEFECE" filter="url(#f10q84u1am7gge)" style="stroke:#000000;stroke-width:1.5;"/><path d="M838.5,15 C838.5,25 856.5,25 856.5,25 C856.5,25 874.5,25 874.5,15 " fill="none" style="stroke:#000000;stroke-width:1.5;"/><text fill="#000000" font-family="sans-serif" font-size="14" lengthAdjust="spacing" textLength="61" x="823" y="624.6348">Database</text><path d="M838.5,637.7109 C838.5,627.7109 856.5,627.7109 856.5,627.7109 C856.5,627.7109 874.5,627.7109 874.5,637.7109 L874.5,663.7109 C874.5,673.7109 856.5,673.7109 856.5,673.7109 C856.5,673.7109 838.5,673.7109 838.5,663.7109 L838.5,637.7109 " fill="#FEFECE" filter="url(#f10q84u1am7gge)" style="stroke:#000000;stroke-width:1.5;"/><path d="M838.5,637.7109 C838.5,647.7109 856.5,647.7109 856.5,647.7109 C856.5,647.7109 874.5,647.7109 874.5,637.7109 " fill="none" style="stroke:#000000;stroke-width:1.5;"/><rect fill="#FFFFFF" filter="url(#f10q84u1am7gge)" height="412.0859" style="stroke:#A80036;stroke-width:1.0;" width="10" x="278" y="174.0156"/><rect fill="#FFFFFF" filter="url(#f10q84u1am7gge)" height="308.6797" style="stroke:#A80036;stroke-width:1.0;" width="10" x="399" y="277.4219"/><rect fill="#FFFFFF" filter="url(#f10q84u1am7gge)" height="134.4063" style="stroke:#A80036;stroke-width:1.0;" width="10" x="716.5" y="415.3438"/><rect fill="#FFFFFF" filter="url(#f10q84u1am7gge)" height="60.7031" style="stroke:#A80036;stroke-width:1.0;" width="10" x="851.5" y="489.0469"/><path d="M159,83.6094 L159,142.6094 L402,142.6094 L402,93.6094 L392,83.6094 L159,83.6094 " fill="#FBFB77" filter="url(#f10q84u1am7gge)" style="stroke:#A80036;stroke-width:1.0;"/><path d="M392,83.6094 L392,93.6094 L402,93.6094 L392,83.6094 " fill="#FBFB77" style="stroke:#A80036;stroke-width:1.0;"/><text fill="#000000" font-family="sans-serif" font-size="13" lengthAdjust="spacing" textLength="174" x="165" y="102.1045">The "xxxDB" class represents</text><text fill="#000000" font-family="sans-serif" font-size="13" lengthAdjust="spacing" textLength="218" x="165" y="118.4561">all the Database classes because the</text><text fill="#000000" font-family="sans-serif" font-size="13" lengthAdjust="spacing" textLength="219" x="165" y="134.8076">database handler is always the same.</text><ellipse cx="7.5" cy="173.2656" fill="none" rx="4" ry="4" style="stroke:#A80036;stroke-width:1.5;"/><polygon fill="#A80036" points="266,170.0156,276,174.0156,266,178.0156,270,174.0156" style="stroke:#A80036;stroke-width:1.0;"/><line style="stroke:#A80036;stroke-width:1.0;" x1="12" x2="272" y1="174.0156" y2="174.0156"/><text fill="#000000" font-family="sans-serif" font-size="13" font-weight="bold" lengthAdjust="spacing" textLength="7" x="15" y="169.1592">1</text><text fill="#000000" font-family="sans-serif" font-size="13" lengthAdjust="spacing" textLength="157" x="26" y="169.1592">methodRelatedWithQuery()</text><path d="M5,187.0156 L5,246.0156 L269,246.0156 L269,197.0156 L259,187.0156 L5,187.0156 " fill="#FBFB77" filter="url(#f10q84u1am7gge)" style="stroke:#A80036;stroke-width:1.0;"/><path d="M259,187.0156 L259,197.0156 L269,197.0156 L259,187.0156 " fill="#FBFB77" style="stroke:#A80036;stroke-width:1.0;"/><text fill="#000000" font-family="sans-serif" font-size="13" lengthAdjust="spacing" textLength="239" x="11" y="205.5107">The method "methodRelatedWithQuery()"</text><text fill="#000000" font-family="sans-serif" font-size="13" lengthAdjust="spacing" textLength="227" x="11" y="221.8623">represents all the methods that interact</text><text fill="#000000" font-family="sans-serif" font-size="13" lengthAdjust="spacing" textLength="106" x="11" y="238.2139">with the database.</text><polygon fill="#A80036" points="387,273.4219,397,277.4219,387,281.4219,391,277.4219" style="stroke:#A80036;stroke-width:1.0;"/><line style="stroke:#A80036;stroke-width:1.0;" x1="288" x2="393" y1="277.4219" y2="277.4219"/><text fill="#000000" font-family="sans-serif" font-size="13" font-weight="bold" lengthAdjust="spacing" textLength="7" x="295" y="272.5654">2</text><text fill="#000000" font-family="sans-serif" font-size="13" lengthAdjust="spacing" textLength="81" x="306" y="272.5654">scriptRunner()</text><line style="stroke:#A80036;stroke-width:1.0;" x1="409" x2="451" y1="307.7734" y2="307.7734"/><line style="stroke:#A80036;stroke-width:1.0;" x1="451" x2="451" y1="307.7734" y2="320.7734"/><line style="stroke:#A80036;stroke-width:1.0;" x1="410" x2="451" y1="320.7734" y2="320.7734"/><polygon fill="#A80036" points="420,316.7734,410,320.7734,420,324.7734,416,320.7734" style="stroke:#A80036;stroke-width:1.0;"/><text fill="#000000" font-family="sans-serif" font-size="13" font-weight="bold" lengthAdjust="spacing" textLength="7" x="416" y="302.917">3</text><text fill="#000000" font-family="sans-serif" font-size="13" lengthAdjust="spacing" textLength="101" x="427" y="302.917">openConnection()</text><polygon fill="#A80036" points="657,347.125,667,351.125,657,355.125,661,351.125" style="stroke:#A80036;stroke-width:1.0;"/><line style="stroke:#A80036;stroke-width:1.0;" x1="409" x2="663" y1="351.125" y2="351.125"/><text fill="#000000" font-family="sans-serif" font-size="13" font-weight="bold" lengthAdjust="spacing" textLength="7" x="416" y="346.2686">4</text><text fill="#000000" font-family="sans-serif" font-size="13" lengthAdjust="spacing" textLength="225" x="427" y="346.2686">runner = new ScriptRunner(connection)</text><rect fill="#FEFECE" filter="url(#f10q84u1am7gge)" height="49.2188" style="stroke:#A80036;stroke-width:1.5;" width="101" x="669" y="328.7734"/><text fill="#000000" font-family="sans-serif" font-size="14" lengthAdjust="spacing" textLength="42" x="698.5" y="350.3066">runner</text><text fill="#000000" font-family="sans-serif" font-size="14" lengthAdjust="spacing" textLength="87" x="676" y="367.916">:ScriptRunner</text><polygon fill="#A80036" points="704.5,411.3438,714.5,415.3438,704.5,419.3438,708.5,415.3438" style="stroke:#A80036;stroke-width:1.0;"/><line style="stroke:#A80036;stroke-width:1.0;" x1="409" x2="710.5" y1="415.3438" y2="415.3438"/><text fill="#000000" font-family="sans-serif" font-size="13" font-weight="bold" lengthAdjust="spacing" textLength="7" x="416" y="410.4873">5</text><text fill="#000000" font-family="sans-serif" font-size="13" lengthAdjust="spacing" textLength="92" x="427" y="410.4873">runScript(script)</text><line style="stroke:#A80036;stroke-width:1.0;" x1="726.5" x2="768.5" y1="445.6953" y2="445.6953"/><line style="stroke:#A80036;stroke-width:1.0;" x1="768.5" x2="768.5" y1="445.6953" y2="458.6953"/><line style="stroke:#A80036;stroke-width:1.0;" x1="727.5" x2="768.5" y1="458.6953" y2="458.6953"/><polygon fill="#A80036" points="737.5,454.6953,727.5,458.6953,737.5,462.6953,733.5,458.6953" style="stroke:#A80036;stroke-width:1.0;"/><text fill="#000000" font-family="sans-serif" font-size="13" font-weight="bold" lengthAdjust="spacing" textLength="7" x="733.5" y="440.8389">6</text><text fill="#000000" font-family="sans-serif" font-size="13" lengthAdjust="spacing" textLength="92" x="744.5" y="440.8389">runScript(script)</text><polygon fill="#A80036" points="839.5,485.0469,849.5,489.0469,839.5,493.0469,843.5,489.0469" style="stroke:#A80036;stroke-width:1.0;"/><line style="stroke:#A80036;stroke-width:1.0;" x1="726.5" x2="845.5" y1="489.0469" y2="489.0469"/><text fill="#000000" font-family="sans-serif" font-size="13" font-weight="bold" lengthAdjust="spacing" textLength="7" x="733.5" y="484.1904">7</text><text fill="#000000" font-family="sans-serif" font-size="13" lengthAdjust="spacing" textLength="95" x="744.5" y="484.1904">execCommand()</text><polygon fill="#A80036" points="839.5,515.3984,849.5,519.3984,839.5,523.3984,843.5,519.3984" style="stroke:#A80036;stroke-width:1.0;"/><line style="stroke:#A80036;stroke-width:1.0;" x1="726.5" x2="845.5" y1="519.3984" y2="519.3984"/><text fill="#000000" font-family="sans-serif" font-size="13" font-weight="bold" lengthAdjust="spacing" textLength="7" x="733.5" y="514.542">8</text><text fill="#000000" font-family="sans-serif" font-size="13" lengthAdjust="spacing" textLength="39" x="744.5" y="514.542">close()</text><polygon fill="#A80036" points="844.5,545.75,854.5,549.75,844.5,553.75,848.5,549.75" style="stroke:#A80036;stroke-width:1.0;"/><line style="stroke:#A80036;stroke-width:1.0;" x1="721.5" x2="850.5" y1="549.75" y2="549.75"/><text fill="#000000" font-family="sans-serif" font-size="13" font-weight="bold" lengthAdjust="spacing" textLength="7" x="728.5" y="544.8936">9</text><text fill="#000000" font-family="sans-serif" font-size="13" lengthAdjust="spacing" textLength="53" x="739.5" y="544.8936">rollback()</text><line style="stroke:#A80036;stroke-width:1.0;" x1="409" x2="451" y1="585.1016" y2="585.1016"/><line style="stroke:#A80036;stroke-width:1.0;" x1="451" x2="451" y1="585.1016" y2="598.1016"/><line style="stroke:#A80036;stroke-width:1.0;" x1="404" x2="451" y1="598.1016" y2="598.1016"/><polygon fill="#A80036" points="414,594.1016,404,598.1016,414,602.1016,410,598.1016" style="stroke:#A80036;stroke-width:1.0;"/><text fill="#000000" font-family="sans-serif" font-size="13" font-weight="bold" lengthAdjust="spacing" textLength="14" x="416" y="580.2451">10</text><text fill="#000000" font-family="sans-serif" font-size="13" lengthAdjust="spacing" textLength="54" x="434" y="580.2451">closeAll()</text><!--MD5=[083a9d1a5292b1d7b098c53b30539df8]
@startuml
autonumber
participant "xxxDB\n:xxxDB" as XDB
participant "//<color #red>extended by xxxDB//\n:DataHandler" as DH
participant "runner\n:ScriptRunner" as SR
database "Database" as DB

note over XDB : The "xxxDB" class represents\nall the Database classes because the \ndatabase handler is always the same.
[o-> XDB : methodRelatedWithQuery()
note left XDB : The method "methodRelatedWithQuery()" \nrepresents all the methods that interact\nwith the database.
activate XDB
XDB -> DH : scriptRunner()
activate DH
DH -> DH : openConnection()
DH -> SR** : runner = new ScriptRunner(connection)
DH -> SR : runScript(script)
activate SR
SR -> SR : runScript(script)
SR -> DB : execCommand()
activate DB
SR -> DB : close()
SR -> DB : rollback()
deactivate DB
deactivate SR
DH -> DH : closeAll()
deactivate DH
deactivate XDB
@enduml

PlantUML version 1.2021.00(Sun Jan 10 10:25:05 GMT 2021)
(GPL source distribution)
Java Runtime: OpenJDK Runtime Environment
JVM: OpenJDK 64-Bit Server VM
Default Encoding: Cp1252
Language: pt
Country: PT
--></g></svg>