<?xml version="1.0" encoding="UTF-8" standalone="no"?><svg xmlns="http://www.w3.org/2000/svg" xmlns:xlink="http://www.w3.org/1999/xlink" contentScriptType="application/ecmascript" contentStyleType="text/css" height="351px" preserveAspectRatio="none" style="width:591px;height:351px;" version="1.1" viewBox="0 0 591 351" width="591px" zoomAndPan="magnify"><defs><filter height="300%" id="f1ve9wajd4khcs" width="300%" x="-1" y="-1"><feGaussianBlur result="blurOut" stdDeviation="1.2"/><feColorMatrix in="blurOut" result="blurOut2" type="matrix" values="0 0 0 0 0 0 0 0 0 0 0 0 0 0 0 0 0 0 .4 0"/><feOffset dx="2.4" dy="2.4" in="blurOut2" result="blurOut3"/><feBlend in="SourceGraphic" in2="blurOut3" mode="normal"/></filter></defs><g><rect fill="#FFFFFF" filter="url(#f1ve9wajd4khcs)" height="234.15" style="stroke:#A80036;stroke-width:0.6;" width="6" x="21.6" y="59.7656"/><rect fill="#FFFFFF" filter="url(#f1ve9wajd4khcs)" height="211.7391" style="stroke:#A80036;stroke-width:0.6;" width="6" x="212.4" y="73.1766"/><rect fill="#FFFFFF" filter="url(#f1ve9wajd4khcs)" height="131.4844" style="stroke:#A80036;stroke-width:0.6;" width="6" x="321" y="106.5984"/><rect fill="#FFFFFF" filter="url(#f1ve9wajd4khcs)" height="32.5313" style="stroke:#A80036;stroke-width:0.6;" width="6" x="427.2" y="130.8094"/><rect fill="#FFFFFF" filter="url(#f1ve9wajd4khcs)" height="36.2109" style="stroke:#A80036;stroke-width:0.6;" width="6" x="427.2" y="201.8719"/><rect fill="#FFFFFF" filter="url(#f1ve9wajd4khcs)" height="18" style="stroke:#A80036;stroke-width:0.6;" width="6" x="533.4" y="220.0828"/><rect fill="#FFFFFF" filter="url(#f1ve9wajd4khcs)" height="207.5391" style="stroke:#000000;stroke-width:1.2;" width="561" x="6" y="82.1766"/><line style="stroke:#A80036;stroke-width:0.6;stroke-dasharray:5.0,5.0;" x1="24.6" x2="24.6" y1="53.7656" y2="299.9156"/><line style="stroke:#A80036;stroke-width:0.6;stroke-dasharray:5.0,5.0;" x1="215.4" x2="215.4" y1="53.7656" y2="299.9156"/><line style="stroke:#A80036;stroke-width:0.6;stroke-dasharray:5.0,5.0;" x1="324" x2="324" y1="53.7656" y2="299.9156"/><line style="stroke:#A80036;stroke-width:0.6;stroke-dasharray:5.0,5.0;" x1="430.2" x2="430.2" y1="136.6641" y2="299.9156"/><line style="stroke:#A80036;stroke-width:0.6;stroke-dasharray:5.0,5.0;" x1="536.4" x2="536.4" y1="175.1953" y2="299.9156"/><text fill="#000000" font-family="sans-serif" font-size="8.4" lengthAdjust="spacing" textLength="21.6" x="12" y="51.9199">Client</text><ellipse cx="24.6" cy="9" fill="#FEFECE" filter="url(#f1ve9wajd4khcs)" rx="4.8" ry="4.8" style="stroke:#A80036;stroke-width:1.2;"/><path d="M24.6,13.8 L24.6,30 M16.8,18.6 L32.4,18.6 M24.6,30 L16.8,39 M24.6,30 L32.4,39 " fill="none" filter="url(#f1ve9wajd4khcs)" style="stroke:#A80036;stroke-width:1.2;"/><text fill="#000000" font-family="sans-serif" font-size="8.4" lengthAdjust="spacing" textLength="21.6" x="12" y="308.0355">Client</text><ellipse cx="24.6" cy="315.8812" fill="#FEFECE" filter="url(#f1ve9wajd4khcs)" rx="4.8" ry="4.8" style="stroke:#A80036;stroke-width:1.2;"/><path d="M24.6,320.6813 L24.6,336.8812 M16.8,325.4813 L32.4,325.4813 M24.6,336.8812 L16.8,345.8812 M24.6,336.8812 L32.4,345.8812 " fill="none" filter="url(#f1ve9wajd4khcs)" style="stroke:#A80036;stroke-width:1.2;"/><rect fill="#FEFECE" filter="url(#f1ve9wajd4khcs)" height="18.9656" style="stroke:#A80036;stroke-width:0.8999999999999999;" width="85.2" x="171.6" y="31.8"/><text fill="#000000" font-family="sans-serif" font-size="8.4" lengthAdjust="spacing" textLength="76.8" x="175.8" y="44.7199">:NotifyAndRemoveUI</text><rect fill="#FEFECE" filter="url(#f1ve9wajd4khcs)" height="18.9656" style="stroke:#A80036;stroke-width:0.8999999999999999;" width="85.2" x="171.6" y="299.3156"/><text fill="#000000" font-family="sans-serif" font-size="8.4" lengthAdjust="spacing" textLength="76.8" x="175.8" y="312.2355">:NotifyAndRemoveUI</text><rect fill="#FEFECE" filter="url(#f1ve9wajd4khcs)" height="18.9656" style="stroke:#A80036;stroke-width:0.8999999999999999;" width="115.2" x="265.2" y="31.8"/><text fill="#000000" font-family="sans-serif" font-size="8.4" lengthAdjust="spacing" textLength="106.8" x="269.4" y="44.7199">:NotifyAndRemoveController</text><rect fill="#FEFECE" filter="url(#f1ve9wajd4khcs)" height="18.9656" style="stroke:#A80036;stroke-width:0.8999999999999999;" width="115.2" x="265.2" y="299.3156"/><text fill="#000000" font-family="sans-serif" font-size="8.4" lengthAdjust="spacing" textLength="106.8" x="269.4" y="312.2355">:NotifyAndRemoveController</text><rect fill="#FEFECE" filter="url(#f1ve9wajd4khcs)" height="29.5313" style="stroke:#A80036;stroke-width:0.8999999999999999;" width="61.2" x="398.4" y="299.3156"/><text fill="#000000" font-family="sans-serif" font-size="8.4" lengthAdjust="spacing" textLength="48.6" x="403.5" y="312.2355">orderService</text><text fill="#000000" font-family="sans-serif" font-size="8.4" lengthAdjust="spacing" textLength="52.8" x="402.6" y="322.8012">:OrderService</text><rect fill="#FEFECE" filter="url(#f1ve9wajd4khcs)" height="29.5313" style="stroke:#A80036;stroke-width:0.8999999999999999;" width="46.8" x="511.8" y="299.3156"/><text fill="#000000" font-family="sans-serif" font-size="8.4" lengthAdjust="spacing" textLength="36" x="516" y="312.2355">orderReg</text><text fill="#000000" font-family="sans-serif" font-size="8.4" lengthAdjust="spacing" textLength="36" x="517.2" y="322.8012">:OrderDB</text><rect fill="#FFFFFF" filter="url(#f1ve9wajd4khcs)" height="234.15" style="stroke:#A80036;stroke-width:0.6;" width="6" x="21.6" y="59.7656"/><rect fill="#FFFFFF" filter="url(#f1ve9wajd4khcs)" height="211.7391" style="stroke:#A80036;stroke-width:0.6;" width="6" x="212.4" y="73.1766"/><rect fill="#FFFFFF" filter="url(#f1ve9wajd4khcs)" height="131.4844" style="stroke:#A80036;stroke-width:0.6;" width="6" x="321" y="106.5984"/><rect fill="#FFFFFF" filter="url(#f1ve9wajd4khcs)" height="32.5313" style="stroke:#A80036;stroke-width:0.6;" width="6" x="427.2" y="130.8094"/><rect fill="#FFFFFF" filter="url(#f1ve9wajd4khcs)" height="36.2109" style="stroke:#A80036;stroke-width:0.6;" width="6" x="427.2" y="201.8719"/><rect fill="#FFFFFF" filter="url(#f1ve9wajd4khcs)" height="18" style="stroke:#A80036;stroke-width:0.6;" width="6" x="533.4" y="220.0828"/><polygon fill="#A80036" points="205.2,70.7766,211.2,73.1766,205.2,75.5766,207.6,73.1766" style="stroke:#A80036;stroke-width:0.6;"/><line style="stroke:#A80036;stroke-width:0.6;" x1="27.6" x2="208.8" y1="73.1766" y2="73.1766"/><text fill="#000000" font-family="sans-serif" font-size="7.8" font-weight="bold" lengthAdjust="spacing" textLength="4.2" x="31.8" y="70.2627">1</text><text fill="#000000" font-family="sans-serif" font-size="7.8" lengthAdjust="spacing" textLength="54" x="38.4" y="70.2627">makes an order</text><path d="M6,82.1766 L42.6,82.1766 L42.6,86.9766 L36.6,92.9766 L6,92.9766 L6,82.1766 " fill="#EEEEEE" style="stroke:#000000;stroke-width:0.6;"/><rect fill="none" height="207.5391" style="stroke:#000000;stroke-width:1.2;" width="561" x="6" y="82.1766"/><text fill="#000000" font-family="sans-serif" font-size="7.8" font-weight="bold" lengthAdjust="spacing" textLength="9.6" x="15" y="90.8736">alt</text><text fill="#000000" font-family="sans-serif" font-size="6.6" font-weight="bold" lengthAdjust="spacing" textLength="117" x="51.6" y="90.2279">[if order cannot be entirely fulfilled]</text><polygon fill="#A80036" points="313.8,104.1984,319.8,106.5984,313.8,108.9984,316.2,106.5984" style="stroke:#A80036;stroke-width:0.6;"/><line style="stroke:#A80036;stroke-width:0.6;" x1="218.4" x2="317.4" y1="106.5984" y2="106.5984"/><text fill="#000000" font-family="sans-serif" font-size="7.8" font-weight="bold" lengthAdjust="spacing" textLength="4.2" x="222.6" y="103.6846">2</text><text fill="#000000" font-family="sans-serif" font-size="7.8" lengthAdjust="spacing" textLength="82.2" x="229.2" y="103.6846">notifyAndRemove(order)</text><polygon fill="#A80036" points="391.2,122.4094,397.2,124.8094,391.2,127.2094,393.6,124.8094" style="stroke:#A80036;stroke-width:0.6;"/><line style="stroke:#A80036;stroke-width:0.6;" x1="327" x2="394.8" y1="124.8094" y2="124.8094"/><text fill="#000000" font-family="sans-serif" font-size="7.8" font-weight="bold" lengthAdjust="spacing" textLength="4.2" x="331.2" y="121.8955">3</text><text fill="#000000" font-family="sans-serif" font-size="7.8" lengthAdjust="spacing" textLength="26.4" x="337.8" y="121.8955">create()</text><rect fill="#FEFECE" filter="url(#f1ve9wajd4khcs)" height="29.5313" style="stroke:#A80036;stroke-width:0.8999999999999999;" width="61.2" x="398.4" y="111.3984"/><text fill="#000000" font-family="sans-serif" font-size="8.4" lengthAdjust="spacing" textLength="48.6" x="403.5" y="124.3184">orderService</text><text fill="#000000" font-family="sans-serif" font-size="8.4" lengthAdjust="spacing" textLength="52.8" x="402.6" y="134.884">:OrderService</text><polygon fill="#A80036" points="504.6,160.9406,510.6,163.3406,504.6,165.7406,507,163.3406" style="stroke:#A80036;stroke-width:0.6;"/><line style="stroke:#A80036;stroke-width:0.6;" x1="430.2" x2="508.2" y1="163.3406" y2="163.3406"/><text fill="#000000" font-family="sans-serif" font-size="7.8" font-weight="bold" lengthAdjust="spacing" textLength="4.2" x="434.4" y="160.4268">4</text><text fill="#000000" font-family="sans-serif" font-size="7.8" lengthAdjust="spacing" textLength="26.4" x="441" y="160.4268">create()</text><rect fill="#FEFECE" filter="url(#f1ve9wajd4khcs)" height="29.5313" style="stroke:#A80036;stroke-width:0.8999999999999999;" width="46.8" x="511.8" y="149.9297"/><text fill="#000000" font-family="sans-serif" font-size="8.4" lengthAdjust="spacing" textLength="36" x="516" y="162.8496">orderReg</text><text fill="#000000" font-family="sans-serif" font-size="8.4" lengthAdjust="spacing" textLength="36" x="517.2" y="173.4152">:OrderDB</text><polygon fill="#A80036" points="420,199.4719,426,201.8719,420,204.2719,422.4,201.8719" style="stroke:#A80036;stroke-width:0.6;"/><line style="stroke:#A80036;stroke-width:0.6;" x1="327" x2="423.6" y1="201.8719" y2="201.8719"/><text fill="#000000" font-family="sans-serif" font-size="7.8" font-weight="bold" lengthAdjust="spacing" textLength="4.2" x="331.2" y="198.958">5</text><text fill="#000000" font-family="sans-serif" font-size="7.8" lengthAdjust="spacing" textLength="82.2" x="337.8" y="198.958">notifyAndRemove(order)</text><polygon fill="#A80036" points="526.2,217.6828,532.2,220.0828,526.2,222.4828,528.6,220.0828" style="stroke:#A80036;stroke-width:0.6;"/><line style="stroke:#A80036;stroke-width:0.6;" x1="433.2" x2="529.8" y1="220.0828" y2="220.0828"/><text fill="#000000" font-family="sans-serif" font-size="7.8" font-weight="bold" lengthAdjust="spacing" textLength="4.2" x="437.4" y="217.1689">6</text><text fill="#000000" font-family="sans-serif" font-size="7.8" lengthAdjust="spacing" textLength="82.2" x="444" y="217.1689">notifyAndRemove(order)</text><rect fill="#FFFFFF" filter="url(#f1ve9wajd4khcs)" height="25.6219" style="stroke:#000000;stroke-width:1.2;" width="75.6" x="510" y="242.8828"/><polygon fill="#EEEEEE" points="510,242.8828,547.2,242.8828,547.2,247.6828,541.2,253.6828,510,253.6828,510,242.8828" style="stroke:#000000;stroke-width:1.2;"/><text fill="#000000" font-family="sans-serif" font-size="7.8" font-weight="bold" lengthAdjust="spacing" textLength="10.2" x="517.8" y="252.1799">ref</text><text fill="#000000" font-family="sans-serif" font-size="7.8" lengthAdjust="spacing" textLength="70.8" x="513.6" y="264.1799">SD_CONNECTIONS</text><polygon fill="#A80036" points="34.2,282.5156,28.2,284.9156,34.2,287.3156,31.8,284.9156" style="stroke:#A80036;stroke-width:0.6;"/><line style="stroke:#A80036;stroke-width:0.6;" x1="30.6" x2="214.8" y1="284.9156" y2="284.9156"/><text fill="#000000" font-family="sans-serif" font-size="7.8" font-weight="bold" lengthAdjust="spacing" textLength="4.2" x="37.8" y="282.0018">7</text><text fill="#000000" font-family="sans-serif" font-size="7.8" lengthAdjust="spacing" textLength="163.8" x="44.4" y="282.0018">notifies the Client of the unsuccessful operation</text><!--MD5=[e6d22332d403a98e6beb6d5350e55966]
@startuml
autonumber
actor "Client" as Client

participant ":NotifyAndRemoveUI" as UI
participant ":NotifyAndRemoveController" as CTRL
participant "orderService \n:OrderService" as ORDERSV
participant "orderReg \n:OrderDB" as RF


activate Client

Client -> UI : makes an order
alt if order cannot be entirely fulfilled
activate UI
UI -> CTRL : notifyAndRemove(order)
activate CTRL
CTRL -> ORDERSV** :create()
activate ORDERSV
ORDERSV -> RF** : create()
deactivate ORDERSV
CTRL -> ORDERSV : notifyAndRemove(order)
activate ORDERSV
ORDERSV -> RF : notifyAndRemove(order)
ref over RF : SD_CONNECTIONS
activate RF
deactivate ORDERSV
deactivate RF
deactivate CTRL


UI -> Client : notifies the Client of the unsuccessful operation
deactivate UI
end
deactivate Client

@enduml

PlantUML version 1.2021.00(Sun Jan 10 10:25:05 GMT 2021)
(GPL source distribution)
Java Runtime: OpenJDK Runtime Environment
JVM: OpenJDK 64-Bit Server VM
Default Encoding: Cp1252
Language: pt
Country: PT
--></g></svg>