<?xml version="1.0" encoding="UTF-8" standalone="no"?><svg xmlns="http://www.w3.org/2000/svg" xmlns:xlink="http://www.w3.org/1999/xlink" contentScriptType="application/ecmascript" contentStyleType="text/css" height="537px" preserveAspectRatio="none" style="width:985px;height:537px;" version="1.1" viewBox="0 0 985 537" width="985px" zoomAndPan="magnify"><defs><filter height="300%" id="f1f8r34p9dxwm8" width="300%" x="-1" y="-1"><feGaussianBlur result="blurOut" stdDeviation="2.0"/><feColorMatrix in="blurOut" result="blurOut2" type="matrix" values="0 0 0 0 0 0 0 0 0 0 0 0 0 0 0 0 0 0 .4 0"/><feOffset dx="4.0" dy="4.0" in="blurOut2" result="blurOut3"/><feBlend in="SourceGraphic" in2="blurOut3" mode="normal"/></filter></defs><g><rect fill="#FFFFFF" filter="url(#f1f8r34p9dxwm8)" height="342.5469" style="stroke:#A80036;stroke-width:1.0;" width="10" x="36" y="99.6094"/><rect fill="#FFFFFF" filter="url(#f1f8r34p9dxwm8)" height="305.1953" style="stroke:#A80036;stroke-width:1.0;" width="10" x="354" y="121.9609"/><rect fill="#FFFFFF" filter="url(#f1f8r34p9dxwm8)" height="219.1406" style="stroke:#A80036;stroke-width:1.0;" width="10" x="535" y="177.6641"/><rect fill="#FFFFFF" filter="url(#f1f8r34p9dxwm8)" height="54.2188" style="stroke:#A80036;stroke-width:1.0;" width="10" x="712" y="218.0156"/><rect fill="#FFFFFF" filter="url(#f1f8r34p9dxwm8)" height="60.3516" style="stroke:#A80036;stroke-width:1.0;" width="10" x="712" y="336.4531"/><rect fill="#FFFFFF" filter="url(#f1f8r34p9dxwm8)" height="30" style="stroke:#A80036;stroke-width:1.0;" width="10" x="889" y="366.8047"/><rect fill="#FFFFFF" filter="url(#f1f8r34p9dxwm8)" height="298.1953" style="stroke:#000000;stroke-width:2.0;" width="961.5" x="10" y="136.9609"/><line style="stroke:#A80036;stroke-width:1.0;stroke-dasharray:5.0,5.0;" x1="41" x2="41" y1="89.6094" y2="452.1563"/><line style="stroke:#A80036;stroke-width:1.0;stroke-dasharray:5.0,5.0;" x1="359" x2="359" y1="89.6094" y2="452.1563"/><line style="stroke:#A80036;stroke-width:1.0;stroke-dasharray:5.0,5.0;" x1="540" x2="540" y1="89.6094" y2="452.1563"/><line style="stroke:#A80036;stroke-width:1.0;stroke-dasharray:5.0,5.0;" x1="717" x2="717" y1="227.7734" y2="452.1563"/><line style="stroke:#A80036;stroke-width:1.0;stroke-dasharray:5.0,5.0;" x1="893.5" x2="893.5" y1="291.9922" y2="452.1563"/><text fill="#000000" font-family="sans-serif" font-size="14" lengthAdjust="spacing" textLength="36" x="20" y="86.5332">Client</text><ellipse cx="41" cy="15" fill="#FEFECE" filter="url(#f1f8r34p9dxwm8)" rx="8" ry="8" style="stroke:#A80036;stroke-width:2.0;"/><path d="M41,23 L41,50 M28,31 L54,31 M41,50 L28,65 M41,50 L54,65 " fill="none" filter="url(#f1f8r34p9dxwm8)" style="stroke:#A80036;stroke-width:2.0;"/><text fill="#000000" font-family="sans-serif" font-size="14" lengthAdjust="spacing" textLength="36" x="20" y="465.6895">Client</text><ellipse cx="41" cy="478.7656" fill="#FEFECE" filter="url(#f1f8r34p9dxwm8)" rx="8" ry="8" style="stroke:#A80036;stroke-width:2.0;"/><path d="M41,486.7656 L41,513.7656 M28,494.7656 L54,494.7656 M41,513.7656 L28,528.7656 M41,513.7656 L54,528.7656 " fill="none" filter="url(#f1f8r34p9dxwm8)" style="stroke:#A80036;stroke-width:2.0;"/><rect fill="#FEFECE" filter="url(#f1f8r34p9dxwm8)" height="31.6094" style="stroke:#A80036;stroke-width:1.5;" width="142" x="286" y="53"/><text fill="#000000" font-family="sans-serif" font-size="14" lengthAdjust="spacing" textLength="128" x="293" y="74.5332">:NotifyAndRemoveUI</text><rect fill="#FEFECE" filter="url(#f1f8r34p9dxwm8)" height="31.6094" style="stroke:#A80036;stroke-width:1.5;" width="142" x="286" y="451.1563"/><text fill="#000000" font-family="sans-serif" font-size="14" lengthAdjust="spacing" textLength="128" x="293" y="472.6895">:NotifyAndRemoveUI</text><rect fill="#FEFECE" filter="url(#f1f8r34p9dxwm8)" height="31.6094" style="stroke:#A80036;stroke-width:1.5;" width="192" x="442" y="53"/><text fill="#000000" font-family="sans-serif" font-size="14" lengthAdjust="spacing" textLength="178" x="449" y="74.5332">:NotifyAndRemoveController</text><rect fill="#FEFECE" filter="url(#f1f8r34p9dxwm8)" height="31.6094" style="stroke:#A80036;stroke-width:1.5;" width="192" x="442" y="451.1563"/><text fill="#000000" font-family="sans-serif" font-size="14" lengthAdjust="spacing" textLength="178" x="449" y="472.6895">:NotifyAndRemoveController</text><rect fill="#FEFECE" filter="url(#f1f8r34p9dxwm8)" height="49.2188" style="stroke:#A80036;stroke-width:1.5;" width="102" x="664" y="451.1563"/><text fill="#000000" font-family="sans-serif" font-size="14" lengthAdjust="spacing" textLength="81" x="672.5" y="472.6895">orderService</text><text fill="#000000" font-family="sans-serif" font-size="14" lengthAdjust="spacing" textLength="88" x="671" y="490.2988">:OrderService</text><rect fill="#FEFECE" filter="url(#f1f8r34p9dxwm8)" height="49.2188" style="stroke:#A80036;stroke-width:1.5;" width="131" x="826.5" y="451.1563"/><text fill="#000000" font-family="sans-serif" font-size="14" lengthAdjust="spacing" textLength="60" x="860" y="472.6895">orderReg</text><text fill="#000000" font-family="sans-serif" font-size="14" lengthAdjust="spacing" textLength="117" x="833.5" y="490.2988">:OrderRegistration</text><rect fill="#FFFFFF" filter="url(#f1f8r34p9dxwm8)" height="342.5469" style="stroke:#A80036;stroke-width:1.0;" width="10" x="36" y="99.6094"/><rect fill="#FFFFFF" filter="url(#f1f8r34p9dxwm8)" height="305.1953" style="stroke:#A80036;stroke-width:1.0;" width="10" x="354" y="121.9609"/><rect fill="#FFFFFF" filter="url(#f1f8r34p9dxwm8)" height="219.1406" style="stroke:#A80036;stroke-width:1.0;" width="10" x="535" y="177.6641"/><rect fill="#FFFFFF" filter="url(#f1f8r34p9dxwm8)" height="54.2188" style="stroke:#A80036;stroke-width:1.0;" width="10" x="712" y="218.0156"/><rect fill="#FFFFFF" filter="url(#f1f8r34p9dxwm8)" height="60.3516" style="stroke:#A80036;stroke-width:1.0;" width="10" x="712" y="336.4531"/><rect fill="#FFFFFF" filter="url(#f1f8r34p9dxwm8)" height="30" style="stroke:#A80036;stroke-width:1.0;" width="10" x="889" y="366.8047"/><polygon fill="#A80036" points="342,117.9609,352,121.9609,342,125.9609,346,121.9609" style="stroke:#A80036;stroke-width:1.0;"/><line style="stroke:#A80036;stroke-width:1.0;" x1="46" x2="348" y1="121.9609" y2="121.9609"/><text fill="#000000" font-family="sans-serif" font-size="13" font-weight="bold" lengthAdjust="spacing" textLength="7" x="53" y="117.1045">1</text><text fill="#000000" font-family="sans-serif" font-size="13" lengthAdjust="spacing" textLength="90" x="64" y="117.1045">makes an order</text><path d="M10,136.9609 L71,136.9609 L71,144.9609 L61,154.9609 L10,154.9609 L10,136.9609 " fill="#EEEEEE" style="stroke:#000000;stroke-width:1.0;"/><rect fill="none" height="298.1953" style="stroke:#000000;stroke-width:2.0;" width="961.5" x="10" y="136.9609"/><text fill="#000000" font-family="sans-serif" font-size="13" font-weight="bold" lengthAdjust="spacing" textLength="16" x="25" y="151.4561">alt</text><text fill="#000000" font-family="sans-serif" font-size="11" font-weight="bold" lengthAdjust="spacing" textLength="195" x="86" y="150.3799">[if order cannot be entirely fulfilled]</text><polygon fill="#A80036" points="523,173.6641,533,177.6641,523,181.6641,527,177.6641" style="stroke:#A80036;stroke-width:1.0;"/><line style="stroke:#A80036;stroke-width:1.0;" x1="364" x2="529" y1="177.6641" y2="177.6641"/><text fill="#000000" font-family="sans-serif" font-size="13" font-weight="bold" lengthAdjust="spacing" textLength="7" x="371" y="172.8076">2</text><text fill="#000000" font-family="sans-serif" font-size="13" lengthAdjust="spacing" textLength="137" x="382" y="172.8076">notifyAndRemove(order)</text><polygon fill="#A80036" points="652,204.0156,662,208.0156,652,212.0156,656,208.0156" style="stroke:#A80036;stroke-width:1.0;"/><line style="stroke:#A80036;stroke-width:1.0;" x1="545" x2="658" y1="208.0156" y2="208.0156"/><text fill="#000000" font-family="sans-serif" font-size="13" font-weight="bold" lengthAdjust="spacing" textLength="7" x="552" y="203.1592">3</text><text fill="#000000" font-family="sans-serif" font-size="13" lengthAdjust="spacing" textLength="44" x="563" y="203.1592">create()</text><rect fill="#FEFECE" filter="url(#f1f8r34p9dxwm8)" height="49.2188" style="stroke:#A80036;stroke-width:1.5;" width="102" x="664" y="185.6641"/><text fill="#000000" font-family="sans-serif" font-size="14" lengthAdjust="spacing" textLength="81" x="672.5" y="207.1973">orderService</text><text fill="#000000" font-family="sans-serif" font-size="14" lengthAdjust="spacing" textLength="88" x="671" y="224.8066">:OrderService</text><polygon fill="#A80036" points="814.5,268.2344,824.5,272.2344,814.5,276.2344,818.5,272.2344" style="stroke:#A80036;stroke-width:1.0;"/><line style="stroke:#A80036;stroke-width:1.0;" x1="717" x2="820.5" y1="272.2344" y2="272.2344"/><text fill="#000000" font-family="sans-serif" font-size="13" font-weight="bold" lengthAdjust="spacing" textLength="7" x="724" y="267.3779">4</text><text fill="#000000" font-family="sans-serif" font-size="13" lengthAdjust="spacing" textLength="44" x="735" y="267.3779">create()</text><rect fill="#FEFECE" filter="url(#f1f8r34p9dxwm8)" height="49.2188" style="stroke:#A80036;stroke-width:1.5;" width="131" x="826.5" y="249.8828"/><text fill="#000000" font-family="sans-serif" font-size="14" lengthAdjust="spacing" textLength="60" x="860" y="271.416">orderReg</text><text fill="#000000" font-family="sans-serif" font-size="14" lengthAdjust="spacing" textLength="117" x="833.5" y="289.0254">:OrderRegistration</text><polygon fill="#A80036" points="700,332.4531,710,336.4531,700,340.4531,704,336.4531" style="stroke:#A80036;stroke-width:1.0;"/><line style="stroke:#A80036;stroke-width:1.0;" x1="545" x2="706" y1="336.4531" y2="336.4531"/><text fill="#000000" font-family="sans-serif" font-size="13" font-weight="bold" lengthAdjust="spacing" textLength="7" x="552" y="331.5967">5</text><text fill="#000000" font-family="sans-serif" font-size="13" lengthAdjust="spacing" textLength="137" x="563" y="331.5967">notifyAndRemove(order)</text><polygon fill="#A80036" points="877,362.8047,887,366.8047,877,370.8047,881,366.8047" style="stroke:#A80036;stroke-width:1.0;"/><line style="stroke:#A80036;stroke-width:1.0;" x1="722" x2="883" y1="366.8047" y2="366.8047"/><text fill="#000000" font-family="sans-serif" font-size="13" font-weight="bold" lengthAdjust="spacing" textLength="7" x="729" y="361.9482">6</text><text fill="#000000" font-family="sans-serif" font-size="13" lengthAdjust="spacing" textLength="137" x="740" y="361.9482">notifyAndRemove(order)</text><polygon fill="#A80036" points="57,423.1563,47,427.1563,57,431.1563,53,427.1563" style="stroke:#A80036;stroke-width:1.0;"/><line style="stroke:#A80036;stroke-width:1.0;" x1="51" x2="358" y1="427.1563" y2="427.1563"/><text fill="#000000" font-family="sans-serif" font-size="13" font-weight="bold" lengthAdjust="spacing" textLength="7" x="63" y="422.2998">7</text><text fill="#000000" font-family="sans-serif" font-size="13" lengthAdjust="spacing" textLength="273" x="74" y="422.2998">notifies the Client of the unsuccessful operation</text><!--MD5=[10789ef083709fd92b659dab01555548]
@startuml
autonumber
actor "Client" as Client

participant ":NotifyAndRemoveUI" as UI
participant ":NotifyAndRemoveController" as CTRL
participant "orderService \n:OrderService" as ORDERSV
participant "orderReg \n:OrderRegistration" as RF


activate Client

Client -> UI : makes an order
alt if order cannot be entirely fulfilled
activate UI
UI -> CTRL : notifyAndRemove(order)
activate CTRL
CTRL -> ORDERSV** :create()
activate ORDERSV
ORDERSV -> RF** : create()
deactivate ORDERSV
CTRL -> ORDERSV : notifyAndRemove(order)
activate ORDERSV
ORDERSV -> RF : notifyAndRemove(order)
activate RF
deactivate ORDERSV
deactivate RF
deactivate CTRL


UI -> Client : notifies the Client of the unsuccessful operation
deactivate UI
end
deactivate Client

@enduml

PlantUML version 1.2021.00(Sun Jan 10 10:25:05 GMT 2021)
(GPL source distribution)
Java Runtime: OpenJDK Runtime Environment
JVM: OpenJDK 64-Bit Server VM
Default Encoding: Cp1252
Language: pt
Country: PT
--></g></svg>