<?xml version="1.0" encoding="UTF-8" standalone="no"?><svg xmlns="http://www.w3.org/2000/svg" xmlns:xlink="http://www.w3.org/1999/xlink" contentScriptType="application/ecmascript" contentStyleType="text/css" height="347px" preserveAspectRatio="none" style="width:538px;height:347px;" version="1.1" viewBox="0 0 538 347" width="538px" zoomAndPan="magnify"><defs><filter height="300%" id="f1i6dx0bz4wy7e" width="300%" x="-1" y="-1"><feGaussianBlur result="blurOut" stdDeviation="2.0"/><feColorMatrix in="blurOut" result="blurOut2" type="matrix" values="0 0 0 0 0 0 0 0 0 0 0 0 0 0 0 0 0 0 .4 0"/><feOffset dx="4.0" dy="4.0" in="blurOut2" result="blurOut3"/><feBlend in="SourceGraphic" in2="blurOut3" mode="normal"/></filter></defs><g><rect fill="#FFFFFF" filter="url(#f1i6dx0bz4wy7e)" height="152.7578" style="stroke:#A80036;stroke-width:1.0;" width="10" x="36" y="99.6094"/><rect fill="#FFFFFF" filter="url(#f1i6dx0bz4wy7e)" height="130.4063" style="stroke:#A80036;stroke-width:1.0;" width="10" x="354" y="121.9609"/><rect fill="#FFFFFF" filter="url(#f1i6dx0bz4wy7e)" height="108.4063" style="stroke:#000000;stroke-width:2.0;" width="514" x="10" y="136.9609"/><line style="stroke:#A80036;stroke-width:1.0;stroke-dasharray:5.0,5.0;" x1="41" x2="41" y1="89.6094" y2="262.3672"/><line style="stroke:#A80036;stroke-width:1.0;stroke-dasharray:5.0,5.0;" x1="359" x2="359" y1="89.6094" y2="262.3672"/><text fill="#000000" font-family="sans-serif" font-size="14" lengthAdjust="spacing" textLength="36" x="20" y="86.5332">Client</text><ellipse cx="41" cy="15" fill="#FEFECE" filter="url(#f1i6dx0bz4wy7e)" rx="8" ry="8" style="stroke:#A80036;stroke-width:2.0;"/><path d="M41,23 L41,50 M28,31 L54,31 M41,50 L28,65 M41,50 L54,65 " fill="none" filter="url(#f1i6dx0bz4wy7e)" style="stroke:#A80036;stroke-width:2.0;"/><text fill="#000000" font-family="sans-serif" font-size="14" lengthAdjust="spacing" textLength="36" x="20" y="275.9004">Client</text><ellipse cx="41" cy="288.9766" fill="#FEFECE" filter="url(#f1i6dx0bz4wy7e)" rx="8" ry="8" style="stroke:#A80036;stroke-width:2.0;"/><path d="M41,296.9766 L41,323.9766 M28,304.9766 L54,304.9766 M41,323.9766 L28,338.9766 M41,323.9766 L54,338.9766 " fill="none" filter="url(#f1i6dx0bz4wy7e)" style="stroke:#A80036;stroke-width:2.0;"/><rect fill="#FEFECE" filter="url(#f1i6dx0bz4wy7e)" height="31.6094" style="stroke:#A80036;stroke-width:1.5;" width="64" x="325" y="53"/><text fill="#000000" font-family="sans-serif" font-size="14" lengthAdjust="spacing" textLength="50" x="332" y="74.5332">:System</text><rect fill="#FEFECE" filter="url(#f1i6dx0bz4wy7e)" height="31.6094" style="stroke:#A80036;stroke-width:1.5;" width="64" x="325" y="261.3672"/><text fill="#000000" font-family="sans-serif" font-size="14" lengthAdjust="spacing" textLength="50" x="332" y="282.9004">:System</text><rect fill="#FFFFFF" filter="url(#f1i6dx0bz4wy7e)" height="152.7578" style="stroke:#A80036;stroke-width:1.0;" width="10" x="36" y="99.6094"/><rect fill="#FFFFFF" filter="url(#f1i6dx0bz4wy7e)" height="130.4063" style="stroke:#A80036;stroke-width:1.0;" width="10" x="354" y="121.9609"/><polygon fill="#A80036" points="342,117.9609,352,121.9609,342,125.9609,346,121.9609" style="stroke:#A80036;stroke-width:1.0;"/><line style="stroke:#A80036;stroke-width:1.0;" x1="46" x2="348" y1="121.9609" y2="121.9609"/><text fill="#000000" font-family="sans-serif" font-size="13" font-weight="bold" lengthAdjust="spacing" textLength="7" x="53" y="117.1045">1</text><text fill="#000000" font-family="sans-serif" font-size="13" lengthAdjust="spacing" textLength="90" x="64" y="117.1045">makes an order</text><path d="M10,136.9609 L71,136.9609 L71,144.9609 L61,154.9609 L10,154.9609 L10,136.9609 " fill="#EEEEEE" style="stroke:#000000;stroke-width:1.0;"/><rect fill="none" height="108.4063" style="stroke:#000000;stroke-width:2.0;" width="514" x="10" y="136.9609"/><text fill="#000000" font-family="sans-serif" font-size="13" font-weight="bold" lengthAdjust="spacing" textLength="16" x="25" y="151.4561">alt</text><text fill="#000000" font-family="sans-serif" font-size="11" font-weight="bold" lengthAdjust="spacing" textLength="195" x="86" y="150.3799">[if order cannot be entirely fulfilled]</text><line style="stroke:#A80036;stroke-width:1.0;" x1="364" x2="406" y1="194.0156" y2="194.0156"/><line style="stroke:#A80036;stroke-width:1.0;" x1="406" x2="406" y1="194.0156" y2="207.0156"/><line style="stroke:#A80036;stroke-width:1.0;" x1="365" x2="406" y1="207.0156" y2="207.0156"/><polygon fill="#A80036" points="375,203.0156,365,207.0156,375,211.0156,371,207.0156" style="stroke:#A80036;stroke-width:1.0;"/><text fill="#000000" font-family="sans-serif" font-size="13" font-weight="bold" lengthAdjust="spacing" textLength="7" x="371" y="180.9834">2</text><text fill="#000000" font-family="sans-serif" font-size="13" lengthAdjust="spacing" textLength="117" x="382" y="172.8076">removes the product</text><text fill="#000000" font-family="sans-serif" font-size="13" lengthAdjust="spacing" textLength="126" x="386" y="189.1592">from  pharmacy stock</text><polygon fill="#A80036" points="57,233.3672,47,237.3672,57,241.3672,53,237.3672" style="stroke:#A80036;stroke-width:1.0;"/><line style="stroke:#A80036;stroke-width:1.0;stroke-dasharray:2.0,2.0;" x1="51" x2="353" y1="237.3672" y2="237.3672"/><text fill="#000000" font-family="sans-serif" font-size="13" font-weight="bold" lengthAdjust="spacing" textLength="7" x="63" y="232.5107">3</text><text fill="#000000" font-family="sans-serif" font-size="13" lengthAdjust="spacing" textLength="273" x="74" y="232.5107">notifies the Client of the unsuccessful operation</text><!--MD5=[78eb48fa6fc6d35dc9db2323540645d7]
@startuml
autonumber
actor "Client" as CR

activate CR
CR -> ":System" : makes an order
alt if order cannot be entirely fulfilled
activate ":System"

":System" -> ":System" : removes the product\n from  pharmacy stock
":System" - -> CR : notifies the Client of the unsuccessful operation
end
deactivate ":System"

deactivate CR
@enduml

PlantUML version 1.2021.00(Sun Jan 10 10:25:05 GMT 2021)
(GPL source distribution)
Java Runtime: OpenJDK Runtime Environment
JVM: OpenJDK 64-Bit Server VM
Default Encoding: Cp1252
Language: pt
Country: PT
--></g></svg>