<?xml version="1.0" encoding="UTF-8" standalone="no"?><svg xmlns="http://www.w3.org/2000/svg" xmlns:xlink="http://www.w3.org/1999/xlink" contentScriptType="application/ecmascript" contentStyleType="text/css" height="1457px" preserveAspectRatio="none" style="width:1225px;height:1457px;" version="1.1" viewBox="0 0 1225 1457" width="1225px" zoomAndPan="magnify"><defs><filter height="300%" id="f1ix8asfbe0oam" width="300%" x="-1" y="-1"><feGaussianBlur result="blurOut" stdDeviation="2.0"/><feColorMatrix in="blurOut" result="blurOut2" type="matrix" values="0 0 0 0 0 0 0 0 0 0 0 0 0 0 0 0 0 0 .4 0"/><feOffset dx="4.0" dy="4.0" in="blurOut2" result="blurOut3"/><feBlend in="SourceGraphic" in2="blurOut3" mode="normal"/></filter></defs><g><!--MD5=[9681dc6e01e10c6b4fe06895ae94f592]
cluster UI--><polygon fill="#DDDDDD" filter="url(#f1ix8asfbe0oam)" points="142,24,162,24,169,47.6094,300,47.6094,300,124,142,124,142,24" style="stroke: #000000; stroke-width: 1.5;"/><line style="stroke: #000000; stroke-width: 1.5;" x1="142" x2="169" y1="47.6094" y2="47.6094"/><text fill="#000000" font-family="sans-serif" font-size="14" font-weight="bold" lengthAdjust="spacingAndGlyphs" textLength="14" x="146" y="40.5332">UI</text><!--MD5=[1f2cfc53d9d308f53762fd0fcbaa4873]
cluster Controller--><polygon fill="#DDDDDD" filter="url(#f1ix8asfbe0oam)" points="22,157,99,157,106,180.6094,321,180.6094,321,451,22,451,22,157" style="stroke: #000000; stroke-width: 1.5;"/><line style="stroke: #000000; stroke-width: 1.5;" x1="22" x2="106" y1="180.6094" y2="180.6094"/><text fill="#000000" font-family="sans-serif" font-size="14" font-weight="bold" lengthAdjust="spacingAndGlyphs" textLength="71" x="26" y="173.5332">Controller</text><!--MD5=[15636c1ca4a123c16a2a1a8e90aca7a9]
cluster Model--><polygon fill="#DDDDDD" filter="url(#f1ix8asfbe0oam)" points="345,316,395,316,402,339.6094,1043,339.6094,1043,1445,345,1445,345,316" style="stroke: #000000; stroke-width: 1.5;"/><line style="stroke: #000000; stroke-width: 1.5;" x1="345" x2="402" y1="339.6094" y2="339.6094"/><text fill="#000000" font-family="sans-serif" font-size="14" font-weight="bold" lengthAdjust="spacingAndGlyphs" textLength="44" x="349" y="332.5332">Model</text><!--MD5=[7f5e0441b00afcd8fa9ae108c086a015]
cluster Registration--><polygon fill="#DDDDDD" filter="url(#f1ix8asfbe0oam)" points="586,506,678,506,685,529.6094,1019,529.6094,1019,634,586,634,586,506" style="stroke: #000000; stroke-width: 1.5;"/><line style="stroke: #000000; stroke-width: 1.5;" x1="586" x2="685" y1="529.6094" y2="529.6094"/><text fill="#000000" font-family="sans-serif" font-size="14" font-weight="bold" lengthAdjust="spacingAndGlyphs" textLength="86" x="590" y="522.5332">Registration</text><!--MD5=[f21b1f164e99c6b37934f23ad048ad54]
cluster Data--><polygon fill="#DDDDDD" filter="url(#f1ix8asfbe0oam)" points="1067,323,1104,323,1111,346.6094,1203,346.6094,1203,451,1067,451,1067,323" style="stroke: #000000; stroke-width: 1.5;"/><line style="stroke: #000000; stroke-width: 1.5;" x1="1067" x2="1111" y1="346.6094" y2="346.6094"/><text fill="#000000" font-family="sans-serif" font-size="14" font-weight="bold" lengthAdjust="spacingAndGlyphs" textLength="31" x="1071" y="339.5332">Data</text><!--MD5=[56b05040cba7ba1143e43c771f04a5c5]
class UpdateScooterUI--><rect fill="#FEFECE" filter="url(#f1ix8asfbe0oam)" height="48" id="UpdateScooterUI" style="stroke: #A80036; stroke-width: 1.5;" width="126" x="158" y="60"/><ellipse cx="173" cy="76" fill="#ADD1B2" rx="11" ry="11" style="stroke: #A80036; stroke-width: 1.0;"/><path d="M175,72.5 Q175.2031,72 175.4375,71.75 Q175.6719,71.5 175.9375,71.5 Q176.4063,71.5 176.7031,71.7813 Q177,72.0625 177,72.7188 L177,74.2813 Q177,74.9375 176.7188,75.2188 Q176.4375,75.5 176,75.5 Q175.6094,75.5 175.3594,75.3281 Q175.1094,75.1563 175,74.7031 Q174.9531,74.3906 174.7813,74.2188 Q174.4688,73.8906 173.9063,73.7031 Q173.3438,73.5 172.7813,73.5 Q172.0781,73.5 171.4844,73.7813 Q170.9063,74.0625 170.4531,74.6875 Q170,75.3125 170,76.1719 L170,77.0938 Q170,78.125 170.8438,78.8125 Q171.6875,79.5 173.1875,79.5 Q174.0781,79.5 174.7031,79.2969 Q175.0625,79.1875 175.4688,78.8281 Q175.7344,78.625 175.875,78.5625 Q176.0156,78.5 176.1875,78.5 Q176.5156,78.5 176.75,78.7656 Q177,79.0156 177,79.375 Q177,79.7188 176.6563,80.125 Q176.1563,80.7188 175.3594,81.0469 Q174.3125,81.5 173.0313,81.5 Q171.5313,81.5 170.3281,80.9063 Q169.3594,80.4375 168.6719,79.4219 Q168,78.4063 168,77.2031 L168,76.1094 Q168,74.8594 168.5938,73.7656 Q169.2031,72.6719 170.25,72.0938 Q171.3125,71.5 172.5,71.5 Q173.2188,71.5 173.8438,71.75 Q174.4688,72 175,72.5 Z "/><text fill="#000000" font-family="sans-serif" font-size="12" lengthAdjust="spacingAndGlyphs" textLength="94" x="187" y="80.9102">UpdateScooterUI</text><line style="stroke: #A80036; stroke-width: 1.5;" x1="159" x2="283" y1="92" y2="92"/><line style="stroke: #A80036; stroke-width: 1.5;" x1="159" x2="283" y1="100" y2="100"/><!--MD5=[3e55a46d736e61deccb82423bbd922fc]
class UpdateScooterController--><rect fill="#FEFECE" filter="url(#f1ix8asfbe0oam)" height="75.6719" id="UpdateScooterController" style="stroke: #A80036; stroke-width: 1.5;" width="168" x="137" y="193"/><ellipse cx="152" cy="209" fill="#ADD1B2" rx="11" ry="11" style="stroke: #A80036; stroke-width: 1.0;"/><path d="M154,205.5 Q154.2031,205 154.4375,204.75 Q154.6719,204.5 154.9375,204.5 Q155.4063,204.5 155.7031,204.7813 Q156,205.0625 156,205.7188 L156,207.2813 Q156,207.9375 155.7188,208.2188 Q155.4375,208.5 155,208.5 Q154.6094,208.5 154.3594,208.3281 Q154.1094,208.1563 154,207.7031 Q153.9531,207.3906 153.7813,207.2188 Q153.4688,206.8906 152.9063,206.7031 Q152.3438,206.5 151.7813,206.5 Q151.0781,206.5 150.4844,206.7813 Q149.9063,207.0625 149.4531,207.6875 Q149,208.3125 149,209.1719 L149,210.0938 Q149,211.125 149.8438,211.8125 Q150.6875,212.5 152.1875,212.5 Q153.0781,212.5 153.7031,212.2969 Q154.0625,212.1875 154.4688,211.8281 Q154.7344,211.625 154.875,211.5625 Q155.0156,211.5 155.1875,211.5 Q155.5156,211.5 155.75,211.7656 Q156,212.0156 156,212.375 Q156,212.7188 155.6563,213.125 Q155.1563,213.7188 154.3594,214.0469 Q153.3125,214.5 152.0313,214.5 Q150.5313,214.5 149.3281,213.9063 Q148.3594,213.4375 147.6719,212.4219 Q147,211.4063 147,210.2031 L147,209.1094 Q147,207.8594 147.5938,206.7656 Q148.2031,205.6719 149.25,205.0938 Q150.3125,204.5 151.5,204.5 Q152.2188,204.5 152.8438,204.75 Q153.4688,205 154,205.5 Z "/><text fill="#000000" font-family="sans-serif" font-size="12" lengthAdjust="spacingAndGlyphs" textLength="136" x="166" y="213.9102">UpdateScooterController</text><line style="stroke: #A80036; stroke-width: 1.5;" x1="138" x2="304" y1="225" y2="225"/><line style="stroke: #A80036; stroke-width: 1.5;" x1="138" x2="304" y1="233" y2="233"/><text fill="#000000" font-family="sans-serif" font-size="11" lengthAdjust="spacingAndGlyphs" textLength="151" x="143" y="248.4189">+showScootersList(pharmacy)</text><text fill="#000000" font-family="sans-serif" font-size="11" lengthAdjust="spacingAndGlyphs" textLength="149" x="143" y="262.2549">+getScootersImformatio(scoot)</text><!--MD5=[e45a4727c47b726c25e081782e8bc183]
class ApplicationPOT--><rect fill="#FEFECE" filter="url(#f1ix8asfbe0oam)" height="75.6719" id="ApplicationPOT" style="stroke: #A80036; stroke-width: 1.5;" width="116" x="38" y="359"/><ellipse cx="53" cy="375" fill="#ADD1B2" rx="11" ry="11" style="stroke: #A80036; stroke-width: 1.0;"/><path d="M55,371.5 Q55.2031,371 55.4375,370.75 Q55.6719,370.5 55.9375,370.5 Q56.4063,370.5 56.7031,370.7813 Q57,371.0625 57,371.7188 L57,373.2813 Q57,373.9375 56.7188,374.2188 Q56.4375,374.5 56,374.5 Q55.6094,374.5 55.3594,374.3281 Q55.1094,374.1563 55,373.7031 Q54.9531,373.3906 54.7813,373.2188 Q54.4688,372.8906 53.9063,372.7031 Q53.3438,372.5 52.7813,372.5 Q52.0781,372.5 51.4844,372.7813 Q50.9063,373.0625 50.4531,373.6875 Q50,374.3125 50,375.1719 L50,376.0938 Q50,377.125 50.8438,377.8125 Q51.6875,378.5 53.1875,378.5 Q54.0781,378.5 54.7031,378.2969 Q55.0625,378.1875 55.4688,377.8281 Q55.7344,377.625 55.875,377.5625 Q56.0156,377.5 56.1875,377.5 Q56.5156,377.5 56.75,377.7656 Q57,378.0156 57,378.375 Q57,378.7188 56.6563,379.125 Q56.1563,379.7188 55.3594,380.0469 Q54.3125,380.5 53.0313,380.5 Q51.5313,380.5 50.3281,379.9063 Q49.3594,379.4375 48.6719,378.4219 Q48,377.4063 48,376.2031 L48,375.1094 Q48,373.8594 48.5938,372.7656 Q49.2031,371.6719 50.25,371.0938 Q51.3125,370.5 52.5,370.5 Q53.2188,370.5 53.8438,370.75 Q54.4688,371 55,371.5 Z "/><text fill="#000000" font-family="sans-serif" font-size="12" lengthAdjust="spacingAndGlyphs" textLength="84" x="67" y="379.9102">ApplicationPOT</text><line style="stroke: #A80036; stroke-width: 1.5;" x1="39" x2="153" y1="391" y2="391"/><line style="stroke: #A80036; stroke-width: 1.5;" x1="39" x2="153" y1="399" y2="399"/><text fill="#000000" font-family="sans-serif" font-size="11" lengthAdjust="spacingAndGlyphs" textLength="99" x="44" y="414.4189">+static getInstance()</text><text fill="#000000" font-family="sans-serif" font-size="11" lengthAdjust="spacingAndGlyphs" textLength="68" x="44" y="428.2549">+getPlatform()</text><!--MD5=[c5b08e60048ef1bcd788d24cf324082e]
class UserSession--><rect fill="#FEFECE" filter="url(#f1ix8asfbe0oam)" height="61.8359" id="UserSession" style="stroke: #A80036; stroke-width: 1.5;" width="116" x="189" y="366"/><ellipse cx="208.95" cy="382" fill="#ADD1B2" rx="11" ry="11" style="stroke: #A80036; stroke-width: 1.0;"/><path d="M210.95,378.5 Q211.1531,378 211.3875,377.75 Q211.6219,377.5 211.8875,377.5 Q212.3563,377.5 212.6531,377.7813 Q212.95,378.0625 212.95,378.7188 L212.95,380.2813 Q212.95,380.9375 212.6688,381.2188 Q212.3875,381.5 211.95,381.5 Q211.5594,381.5 211.3094,381.3281 Q211.0594,381.1563 210.95,380.7031 Q210.9031,380.3906 210.7313,380.2188 Q210.4188,379.8906 209.8563,379.7031 Q209.2938,379.5 208.7313,379.5 Q208.0281,379.5 207.4344,379.7813 Q206.8563,380.0625 206.4031,380.6875 Q205.95,381.3125 205.95,382.1719 L205.95,383.0938 Q205.95,384.125 206.7938,384.8125 Q207.6375,385.5 209.1375,385.5 Q210.0281,385.5 210.6531,385.2969 Q211.0125,385.1875 211.4188,384.8281 Q211.6844,384.625 211.825,384.5625 Q211.9656,384.5 212.1375,384.5 Q212.4656,384.5 212.7,384.7656 Q212.95,385.0156 212.95,385.375 Q212.95,385.7188 212.6063,386.125 Q212.1063,386.7188 211.3094,387.0469 Q210.2625,387.5 208.9813,387.5 Q207.4813,387.5 206.2781,386.9063 Q205.3094,386.4375 204.6219,385.4219 Q203.95,384.4063 203.95,383.2031 L203.95,382.1094 Q203.95,380.8594 204.5438,379.7656 Q205.1531,378.6719 206.2,378.0938 Q207.2625,377.5 208.45,377.5 Q209.1688,377.5 209.7938,377.75 Q210.4188,378 210.95,378.5 Z "/><text fill="#000000" font-family="sans-serif" font-size="12" lengthAdjust="spacingAndGlyphs" textLength="73" x="224.05" y="386.9102">UserSession</text><line style="stroke: #A80036; stroke-width: 1.5;" x1="190" x2="304" y1="398" y2="398"/><line style="stroke: #A80036; stroke-width: 1.5;" x1="190" x2="304" y1="406" y2="406"/><text fill="#000000" font-family="sans-serif" font-size="11" lengthAdjust="spacingAndGlyphs" textLength="104" x="195" y="421.4189">+getCurrentSession()</text><!--MD5=[99b8db98afdc2c8404e39242ef4c1e65]
class Platform--><rect fill="#FEFECE" filter="url(#f1ix8asfbe0oam)" height="89.5078" id="Platform" style="stroke: #A80036; stroke-width: 1.5;" width="102" x="382" y="352"/><ellipse cx="407.8" cy="368" fill="#ADD1B2" rx="11" ry="11" style="stroke: #A80036; stroke-width: 1.0;"/><path d="M409.8,364.5 Q410.0031,364 410.2375,363.75 Q410.4719,363.5 410.7375,363.5 Q411.2063,363.5 411.5031,363.7813 Q411.8,364.0625 411.8,364.7188 L411.8,366.2813 Q411.8,366.9375 411.5188,367.2188 Q411.2375,367.5 410.8,367.5 Q410.4094,367.5 410.1594,367.3281 Q409.9094,367.1563 409.8,366.7031 Q409.7531,366.3906 409.5813,366.2188 Q409.2688,365.8906 408.7063,365.7031 Q408.1438,365.5 407.5813,365.5 Q406.8781,365.5 406.2844,365.7813 Q405.7063,366.0625 405.2531,366.6875 Q404.8,367.3125 404.8,368.1719 L404.8,369.0938 Q404.8,370.125 405.6438,370.8125 Q406.4875,371.5 407.9875,371.5 Q408.8781,371.5 409.5031,371.2969 Q409.8625,371.1875 410.2688,370.8281 Q410.5344,370.625 410.675,370.5625 Q410.8156,370.5 410.9875,370.5 Q411.3156,370.5 411.55,370.7656 Q411.8,371.0156 411.8,371.375 Q411.8,371.7188 411.4563,372.125 Q410.9563,372.7188 410.1594,373.0469 Q409.1125,373.5 407.8313,373.5 Q406.3313,373.5 405.1281,372.9063 Q404.1594,372.4375 403.4719,371.4219 Q402.8,370.4063 402.8,369.2031 L402.8,368.1094 Q402.8,366.8594 403.3938,365.7656 Q404.0031,364.6719 405.05,364.0938 Q406.1125,363.5 407.3,363.5 Q408.0188,363.5 408.6438,363.75 Q409.2688,364 409.8,364.5 Z "/><text fill="#000000" font-family="sans-serif" font-size="12" lengthAdjust="spacingAndGlyphs" textLength="46" x="424.2" y="372.9102">Platform</text><line style="stroke: #A80036; stroke-width: 1.5;" x1="383" x2="483" y1="384" y2="384"/><text fill="#000000" font-family="sans-serif" font-size="11" lengthAdjust="spacingAndGlyphs" textLength="90" x="388" y="399.4189">-String designation</text><line style="stroke: #A80036; stroke-width: 1.5;" x1="383" x2="483" y1="405.8359" y2="405.8359"/><text fill="#000000" font-family="sans-serif" font-size="11" lengthAdjust="spacingAndGlyphs" textLength="75" x="388" y="421.2549">+gePharmReg()</text><text fill="#000000" font-family="sans-serif" font-size="11" lengthAdjust="spacingAndGlyphs" textLength="76" x="388" y="435.0908">+getScootReg()</text><!--MD5=[f4402668d5d5bb8485350c0fdb60ac8e]
class Scooter--><rect fill="#FEFECE" filter="url(#f1ix8asfbe0oam)" height="158.6875" id="Scooter" style="stroke: #A80036; stroke-width: 1.5;" width="237" x="414.5" y="698"/><ellipse cx="507.75" cy="714" fill="#ADD1B2" rx="11" ry="11" style="stroke: #A80036; stroke-width: 1.0;"/><path d="M509.75,710.5 Q509.9531,710 510.1875,709.75 Q510.4219,709.5 510.6875,709.5 Q511.1563,709.5 511.4531,709.7813 Q511.75,710.0625 511.75,710.7188 L511.75,712.2813 Q511.75,712.9375 511.4688,713.2188 Q511.1875,713.5 510.75,713.5 Q510.3594,713.5 510.1094,713.3281 Q509.8594,713.1563 509.75,712.7031 Q509.7031,712.3906 509.5313,712.2188 Q509.2188,711.8906 508.6563,711.7031 Q508.0938,711.5 507.5313,711.5 Q506.8281,711.5 506.2344,711.7813 Q505.6563,712.0625 505.2031,712.6875 Q504.75,713.3125 504.75,714.1719 L504.75,715.0938 Q504.75,716.125 505.5938,716.8125 Q506.4375,717.5 507.9375,717.5 Q508.8281,717.5 509.4531,717.2969 Q509.8125,717.1875 510.2188,716.8281 Q510.4844,716.625 510.625,716.5625 Q510.7656,716.5 510.9375,716.5 Q511.2656,716.5 511.5,716.7656 Q511.75,717.0156 511.75,717.375 Q511.75,717.7188 511.4063,718.125 Q510.9063,718.7188 510.1094,719.0469 Q509.0625,719.5 507.7813,719.5 Q506.2813,719.5 505.0781,718.9063 Q504.1094,718.4375 503.4219,717.4219 Q502.75,716.4063 502.75,715.2031 L502.75,714.1094 Q502.75,712.8594 503.3438,711.7656 Q503.9531,710.6719 505,710.0938 Q506.0625,709.5 507.25,709.5 Q507.9688,709.5 508.5938,709.75 Q509.2188,710 509.75,710.5 Z "/><text fill="#000000" font-family="sans-serif" font-size="12" lengthAdjust="spacingAndGlyphs" textLength="42" x="528.25" y="718.9102">Scooter</text><line style="stroke: #A80036; stroke-width: 1.5;" x1="415.5" x2="650.5" y1="730" y2="730"/><text fill="#000000" font-family="sans-serif" font-size="11" lengthAdjust="spacingAndGlyphs" textLength="26" x="420.5" y="745.4189">-int id</text><text fill="#000000" font-family="sans-serif" font-size="11" lengthAdjust="spacingAndGlyphs" textLength="74" x="420.5" y="759.2549">-int batteryPerc</text><text fill="#000000" font-family="sans-serif" font-size="11" lengthAdjust="spacingAndGlyphs" textLength="85" x="420.5" y="773.0908">-int charginStatus</text><text fill="#000000" font-family="sans-serif" font-size="11" lengthAdjust="spacingAndGlyphs" textLength="57" x="420.5" y="786.9268">-int potency</text><text fill="#000000" font-family="sans-serif" font-size="11" lengthAdjust="spacingAndGlyphs" textLength="51" x="420.5" y="800.7627">-int weight</text><text fill="#000000" font-family="sans-serif" font-size="11" lengthAdjust="spacingAndGlyphs" textLength="94" x="420.5" y="814.5986">-int batteryCapacity</text><line style="stroke: #A80036; stroke-width: 1.5;" x1="415.5" x2="650.5" y1="821.0156" y2="821.0156"/><text fill="#000000" font-family="sans-serif" font-size="11" lengthAdjust="spacingAndGlyphs" textLength="225" x="420.5" y="836.4346">+Scooter(batteryPerc, charginStatus, potency,</text><text fill="#000000" font-family="sans-serif" font-size="11" lengthAdjust="spacingAndGlyphs" textLength="119" x="423.5" y="850.2705">weight, batteryCapacity)</text><!--MD5=[0f39e4cb6f03951afbf6d14bd2505654]
class Address--><rect fill="#FEFECE" filter="url(#f1ix8asfbe0oam)" height="144.8516" id="Address" style="stroke: #A80036; stroke-width: 1.5;" width="106" x="400" y="1103"/><ellipse cx="427.6" cy="1119" fill="#ADD1B2" rx="11" ry="11" style="stroke: #A80036; stroke-width: 1.0;"/><path d="M429.6,1115.5 Q429.8031,1115 430.0375,1114.75 Q430.2719,1114.5 430.5375,1114.5 Q431.0063,1114.5 431.3031,1114.7813 Q431.6,1115.0625 431.6,1115.7188 L431.6,1117.2813 Q431.6,1117.9375 431.3188,1118.2188 Q431.0375,1118.5 430.6,1118.5 Q430.2094,1118.5 429.9594,1118.3281 Q429.7094,1118.1563 429.6,1117.7031 Q429.5531,1117.3906 429.3813,1117.2188 Q429.0688,1116.8906 428.5063,1116.7031 Q427.9438,1116.5 427.3813,1116.5 Q426.6781,1116.5 426.0844,1116.7813 Q425.5063,1117.0625 425.0531,1117.6875 Q424.6,1118.3125 424.6,1119.1719 L424.6,1120.0938 Q424.6,1121.125 425.4438,1121.8125 Q426.2875,1122.5 427.7875,1122.5 Q428.6781,1122.5 429.3031,1122.2969 Q429.6625,1122.1875 430.0688,1121.8281 Q430.3344,1121.625 430.475,1121.5625 Q430.6156,1121.5 430.7875,1121.5 Q431.1156,1121.5 431.35,1121.7656 Q431.6,1122.0156 431.6,1122.375 Q431.6,1122.7188 431.2563,1123.125 Q430.7563,1123.7188 429.9594,1124.0469 Q428.9125,1124.5 427.6313,1124.5 Q426.1313,1124.5 424.9281,1123.9063 Q423.9594,1123.4375 423.2719,1122.4219 Q422.6,1121.4063 422.6,1120.2031 L422.6,1119.1094 Q422.6,1117.8594 423.1938,1116.7656 Q423.8031,1115.6719 424.85,1115.0938 Q425.9125,1114.5 427.1,1114.5 Q427.8188,1114.5 428.4438,1114.75 Q429.0688,1115 429.6,1115.5 Z "/><text fill="#000000" font-family="sans-serif" font-size="12" lengthAdjust="spacingAndGlyphs" textLength="46" x="444.4" y="1123.9102">Address</text><line style="stroke: #A80036; stroke-width: 1.5;" x1="401" x2="505" y1="1135" y2="1135"/><text fill="#000000" font-family="sans-serif" font-size="11" lengthAdjust="spacingAndGlyphs" textLength="71" x="406" y="1150.4189">-float longitude</text><text fill="#000000" font-family="sans-serif" font-size="11" lengthAdjust="spacingAndGlyphs" textLength="62" x="406" y="1164.2549">-float latitude</text><text fill="#000000" font-family="sans-serif" font-size="11" lengthAdjust="spacingAndGlyphs" textLength="94" x="406" y="1178.0908">-String doorNumber</text><text fill="#000000" font-family="sans-serif" font-size="11" lengthAdjust="spacingAndGlyphs" textLength="90" x="406" y="1191.9268">-String streetName</text><text fill="#000000" font-family="sans-serif" font-size="11" lengthAdjust="spacingAndGlyphs" textLength="89" x="406" y="1205.7627">-String postalCode</text><text fill="#000000" font-family="sans-serif" font-size="11" lengthAdjust="spacingAndGlyphs" textLength="68" x="406" y="1219.5986">-String locality</text><text fill="#000000" font-family="sans-serif" font-size="11" lengthAdjust="spacingAndGlyphs" textLength="72" x="406" y="1233.4346">-String country</text><line style="stroke: #A80036; stroke-width: 1.5;" x1="401" x2="505" y1="1239.8516" y2="1239.8516"/><!--MD5=[7f2a9fafcebe4f099f71398fd3e2ed00]
class Pharmacy--><rect fill="#FEFECE" filter="url(#f1ix8asfbe0oam)" height="89.5078" id="Pharmacy" style="stroke: #A80036; stroke-width: 1.5;" width="150" x="381" y="935"/><ellipse cx="424.35" cy="951" fill="#ADD1B2" rx="11" ry="11" style="stroke: #A80036; stroke-width: 1.0;"/><path d="M426.35,947.5 Q426.5531,947 426.7875,946.75 Q427.0219,946.5 427.2875,946.5 Q427.7563,946.5 428.0531,946.7813 Q428.35,947.0625 428.35,947.7188 L428.35,949.2813 Q428.35,949.9375 428.0688,950.2188 Q427.7875,950.5 427.35,950.5 Q426.9594,950.5 426.7094,950.3281 Q426.4594,950.1563 426.35,949.7031 Q426.3031,949.3906 426.1313,949.2188 Q425.8188,948.8906 425.2563,948.7031 Q424.6938,948.5 424.1313,948.5 Q423.4281,948.5 422.8344,948.7813 Q422.2563,949.0625 421.8031,949.6875 Q421.35,950.3125 421.35,951.1719 L421.35,952.0938 Q421.35,953.125 422.1938,953.8125 Q423.0375,954.5 424.5375,954.5 Q425.4281,954.5 426.0531,954.2969 Q426.4125,954.1875 426.8188,953.8281 Q427.0844,953.625 427.225,953.5625 Q427.3656,953.5 427.5375,953.5 Q427.8656,953.5 428.1,953.7656 Q428.35,954.0156 428.35,954.375 Q428.35,954.7188 428.0063,955.125 Q427.5063,955.7188 426.7094,956.0469 Q425.6625,956.5 424.3813,956.5 Q422.8813,956.5 421.6781,955.9063 Q420.7094,955.4375 420.0219,954.4219 Q419.35,953.4063 419.35,952.2031 L419.35,951.1094 Q419.35,949.8594 419.9438,948.7656 Q420.5531,947.6719 421.6,947.0938 Q422.6625,946.5 423.85,946.5 Q424.5688,946.5 425.1938,946.75 Q425.8188,947 426.35,947.5 Z "/><text fill="#000000" font-family="sans-serif" font-size="12" lengthAdjust="spacingAndGlyphs" textLength="55" x="444.65" y="955.9102">Pharmacy</text><line style="stroke: #A80036; stroke-width: 1.5;" x1="382" x2="530" y1="967" y2="967"/><text fill="#000000" font-family="sans-serif" font-size="11" lengthAdjust="spacingAndGlyphs" textLength="26" x="387" y="982.4189">-int id</text><text fill="#000000" font-family="sans-serif" font-size="11" lengthAdjust="spacingAndGlyphs" textLength="61" x="387" y="996.2549">-String name</text><line style="stroke: #A80036; stroke-width: 1.5;" x1="382" x2="530" y1="1002.6719" y2="1002.6719"/><text fill="#000000" font-family="sans-serif" font-size="11" lengthAdjust="spacingAndGlyphs" textLength="138" x="387" y="1018.0908">+getScootersList(pharmacy)</text><!--MD5=[3fd616f346a44cd59a91eb10b19e157c]
class User--><rect fill="#FEFECE" filter="url(#f1ix8asfbe0oam)" height="103.3438" id="User" style="stroke: #A80036; stroke-width: 1.5;" width="97" x="560.5" y="1326"/><ellipse cx="592.6" cy="1342" fill="#ADD1B2" rx="11" ry="11" style="stroke: #A80036; stroke-width: 1.0;"/><path d="M594.6,1338.5 Q594.8031,1338 595.0375,1337.75 Q595.2719,1337.5 595.5375,1337.5 Q596.0063,1337.5 596.3031,1337.7813 Q596.6,1338.0625 596.6,1338.7188 L596.6,1340.2813 Q596.6,1340.9375 596.3188,1341.2188 Q596.0375,1341.5 595.6,1341.5 Q595.2094,1341.5 594.9594,1341.3281 Q594.7094,1341.1563 594.6,1340.7031 Q594.5531,1340.3906 594.3813,1340.2188 Q594.0688,1339.8906 593.5063,1339.7031 Q592.9438,1339.5 592.3813,1339.5 Q591.6781,1339.5 591.0844,1339.7813 Q590.5063,1340.0625 590.0531,1340.6875 Q589.6,1341.3125 589.6,1342.1719 L589.6,1343.0938 Q589.6,1344.125 590.4438,1344.8125 Q591.2875,1345.5 592.7875,1345.5 Q593.6781,1345.5 594.3031,1345.2969 Q594.6625,1345.1875 595.0688,1344.8281 Q595.3344,1344.625 595.475,1344.5625 Q595.6156,1344.5 595.7875,1344.5 Q596.1156,1344.5 596.35,1344.7656 Q596.6,1345.0156 596.6,1345.375 Q596.6,1345.7188 596.2563,1346.125 Q595.7563,1346.7188 594.9594,1347.0469 Q593.9125,1347.5 592.6313,1347.5 Q591.1313,1347.5 589.9281,1346.9063 Q588.9594,1346.4375 588.2719,1345.4219 Q587.6,1344.4063 587.6,1343.2031 L587.6,1342.1094 Q587.6,1340.8594 588.1938,1339.7656 Q588.8031,1338.6719 589.85,1338.0938 Q590.9125,1337.5 592.1,1337.5 Q592.8188,1337.5 593.4438,1337.75 Q594.0688,1338 594.6,1338.5 Z "/><text fill="#000000" font-family="sans-serif" font-size="12" lengthAdjust="spacingAndGlyphs" textLength="27" x="610.4" y="1346.9102">User</text><line style="stroke: #A80036; stroke-width: 1.5;" x1="561.5" x2="656.5" y1="1358" y2="1358"/><text fill="#000000" font-family="sans-serif" font-size="11" lengthAdjust="spacingAndGlyphs" textLength="61" x="566.5" y="1373.4189">-String name</text><text fill="#000000" font-family="sans-serif" font-size="11" lengthAdjust="spacingAndGlyphs" textLength="59" x="566.5" y="1387.2549">-String email</text><text fill="#000000" font-family="sans-serif" font-size="11" lengthAdjust="spacingAndGlyphs" textLength="85" x="566.5" y="1401.0908">-String password</text><text fill="#000000" font-family="sans-serif" font-size="11" lengthAdjust="spacingAndGlyphs" textLength="52" x="566.5" y="1414.9268">-Integer nif</text><line style="stroke: #A80036; stroke-width: 1.5;" x1="561.5" x2="656.5" y1="1421.3438" y2="1421.3438"/><!--MD5=[2fa756869cccd4a326cf3bfeb06b754f]
class PharmacyManager--><rect fill="#FEFECE" filter="url(#f1ix8asfbe0oam)" height="48" id="PharmacyManager" style="stroke: #A80036; stroke-width: 1.5;" width="135" x="541.5" y="1151.5"/><ellipse cx="556.5" cy="1167.5" fill="#ADD1B2" rx="11" ry="11" style="stroke: #A80036; stroke-width: 1.0;"/><path d="M558.5,1164 Q558.7031,1163.5 558.9375,1163.25 Q559.1719,1163 559.4375,1163 Q559.9063,1163 560.2031,1163.2813 Q560.5,1163.5625 560.5,1164.2188 L560.5,1165.7813 Q560.5,1166.4375 560.2188,1166.7188 Q559.9375,1167 559.5,1167 Q559.1094,1167 558.8594,1166.8281 Q558.6094,1166.6563 558.5,1166.2031 Q558.4531,1165.8906 558.2813,1165.7188 Q557.9688,1165.3906 557.4063,1165.2031 Q556.8438,1165 556.2813,1165 Q555.5781,1165 554.9844,1165.2813 Q554.4063,1165.5625 553.9531,1166.1875 Q553.5,1166.8125 553.5,1167.6719 L553.5,1168.5938 Q553.5,1169.625 554.3438,1170.3125 Q555.1875,1171 556.6875,1171 Q557.5781,1171 558.2031,1170.7969 Q558.5625,1170.6875 558.9688,1170.3281 Q559.2344,1170.125 559.375,1170.0625 Q559.5156,1170 559.6875,1170 Q560.0156,1170 560.25,1170.2656 Q560.5,1170.5156 560.5,1170.875 Q560.5,1171.2188 560.1563,1171.625 Q559.6563,1172.2188 558.8594,1172.5469 Q557.8125,1173 556.5313,1173 Q555.0313,1173 553.8281,1172.4063 Q552.8594,1171.9375 552.1719,1170.9219 Q551.5,1169.9063 551.5,1168.7031 L551.5,1167.6094 Q551.5,1166.3594 552.0938,1165.2656 Q552.7031,1164.1719 553.75,1163.5938 Q554.8125,1163 556,1163 Q556.7188,1163 557.3438,1163.25 Q557.9688,1163.5 558.5,1164 Z "/><text fill="#000000" font-family="sans-serif" font-size="12" lengthAdjust="spacingAndGlyphs" textLength="103" x="570.5" y="1172.4102">PharmacyManager</text><line style="stroke: #A80036; stroke-width: 1.5;" x1="542.5" x2="675.5" y1="1183.5" y2="1183.5"/><line style="stroke: #A80036; stroke-width: 1.5;" x1="542.5" x2="675.5" y1="1191.5" y2="1191.5"/><!--MD5=[c5b7c01e8de644a6bcc6ccb0cb86eabf]
class PharmacyRegistration--><rect fill="#FEFECE" filter="url(#f1ix8asfbe0oam)" height="75.6719" id="PharmacyRegistration" style="stroke: #A80036; stroke-width: 1.5;" width="168" x="602" y="542"/><ellipse cx="623.3" cy="558" fill="#ADD1B2" rx="11" ry="11" style="stroke: #A80036; stroke-width: 1.0;"/><path d="M625.3,554.5 Q625.5031,554 625.7375,553.75 Q625.9719,553.5 626.2375,553.5 Q626.7063,553.5 627.0031,553.7813 Q627.3,554.0625 627.3,554.7188 L627.3,556.2813 Q627.3,556.9375 627.0188,557.2188 Q626.7375,557.5 626.3,557.5 Q625.9094,557.5 625.6594,557.3281 Q625.4094,557.1563 625.3,556.7031 Q625.2531,556.3906 625.0813,556.2188 Q624.7688,555.8906 624.2063,555.7031 Q623.6438,555.5 623.0813,555.5 Q622.3781,555.5 621.7844,555.7813 Q621.2063,556.0625 620.7531,556.6875 Q620.3,557.3125 620.3,558.1719 L620.3,559.0938 Q620.3,560.125 621.1438,560.8125 Q621.9875,561.5 623.4875,561.5 Q624.3781,561.5 625.0031,561.2969 Q625.3625,561.1875 625.7688,560.8281 Q626.0344,560.625 626.175,560.5625 Q626.3156,560.5 626.4875,560.5 Q626.8156,560.5 627.05,560.7656 Q627.3,561.0156 627.3,561.375 Q627.3,561.7188 626.9563,562.125 Q626.4563,562.7188 625.6594,563.0469 Q624.6125,563.5 623.3313,563.5 Q621.8313,563.5 620.6281,562.9063 Q619.6594,562.4375 618.9719,561.4219 Q618.3,560.4063 618.3,559.2031 L618.3,558.1094 Q618.3,556.8594 618.8938,555.7656 Q619.5031,554.6719 620.55,554.0938 Q621.6125,553.5 622.8,553.5 Q623.5188,553.5 624.1438,553.75 Q624.7688,554 625.3,554.5 Z "/><text fill="#000000" font-family="sans-serif" font-size="12" lengthAdjust="spacingAndGlyphs" textLength="122" x="638.7" y="562.9102">PharmacyRegistration</text><line style="stroke: #A80036; stroke-width: 1.5;" x1="603" x2="769" y1="574" y2="574"/><line style="stroke: #A80036; stroke-width: 1.5;" x1="603" x2="769" y1="582" y2="582"/><text fill="#000000" font-family="sans-serif" font-size="11" lengthAdjust="spacingAndGlyphs" textLength="156" x="608" y="597.4189">+getPharmacyByManager(email)</text><text fill="#000000" font-family="sans-serif" font-size="11" lengthAdjust="spacingAndGlyphs" textLength="83" x="608" y="611.2549">+getConnection()</text><!--MD5=[4a15ac34fd2b3f03c890a74250c9952b]
class ScooterRegistration--><rect fill="#FEFECE" filter="url(#f1ix8asfbe0oam)" height="75.6719" id="ScooterRegistration" style="stroke: #A80036; stroke-width: 1.5;" width="197" x="805.5" y="542"/><ellipse cx="845.7" cy="558" fill="#ADD1B2" rx="11" ry="11" style="stroke: #A80036; stroke-width: 1.0;"/><path d="M847.7,554.5 Q847.9031,554 848.1375,553.75 Q848.3719,553.5 848.6375,553.5 Q849.1063,553.5 849.4031,553.7813 Q849.7,554.0625 849.7,554.7188 L849.7,556.2813 Q849.7,556.9375 849.4188,557.2188 Q849.1375,557.5 848.7,557.5 Q848.3094,557.5 848.0594,557.3281 Q847.8094,557.1563 847.7,556.7031 Q847.6531,556.3906 847.4813,556.2188 Q847.1688,555.8906 846.6063,555.7031 Q846.0438,555.5 845.4813,555.5 Q844.7781,555.5 844.1844,555.7813 Q843.6063,556.0625 843.1531,556.6875 Q842.7,557.3125 842.7,558.1719 L842.7,559.0938 Q842.7,560.125 843.5438,560.8125 Q844.3875,561.5 845.8875,561.5 Q846.7781,561.5 847.4031,561.2969 Q847.7625,561.1875 848.1688,560.8281 Q848.4344,560.625 848.575,560.5625 Q848.7156,560.5 848.8875,560.5 Q849.2156,560.5 849.45,560.7656 Q849.7,561.0156 849.7,561.375 Q849.7,561.7188 849.3563,562.125 Q848.8563,562.7188 848.0594,563.0469 Q847.0125,563.5 845.7313,563.5 Q844.2313,563.5 843.0281,562.9063 Q842.0594,562.4375 841.3719,561.4219 Q840.7,560.4063 840.7,559.2031 L840.7,558.1094 Q840.7,556.8594 841.2938,555.7656 Q841.9031,554.6719 842.95,554.0938 Q844.0125,553.5 845.2,553.5 Q845.9188,553.5 846.5438,553.75 Q847.1688,554 847.7,554.5 Z "/><text fill="#000000" font-family="sans-serif" font-size="12" lengthAdjust="spacingAndGlyphs" textLength="109" x="865.3" y="562.9102">ScooterRegistration</text><line style="stroke: #A80036; stroke-width: 1.5;" x1="806.5" x2="1001.5" y1="574" y2="574"/><line style="stroke: #A80036; stroke-width: 1.5;" x1="806.5" x2="1001.5" y1="582" y2="582"/><text fill="#000000" font-family="sans-serif" font-size="11" lengthAdjust="spacingAndGlyphs" textLength="185" x="811.5" y="597.4189">+getScooterInformationFromDB(scoot)</text><text fill="#000000" font-family="sans-serif" font-size="11" lengthAdjust="spacingAndGlyphs" textLength="83" x="811.5" y="611.2549">+getConnection()</text><!--MD5=[4b2d61224b33971326a22fe5d809d926]
class DataHandler--><rect fill="#FEFECE" filter="url(#f1ix8asfbe0oam)" height="75.6719" id="DataHandler" style="stroke: #A80036; stroke-width: 1.5;" width="104" x="1083" y="359"/><ellipse cx="1098.9" cy="375" fill="#ADD1B2" rx="11" ry="11" style="stroke: #A80036; stroke-width: 1.0;"/><path d="M1100.9,371.5 Q1101.1031,371 1101.3375,370.75 Q1101.5719,370.5 1101.8375,370.5 Q1102.3063,370.5 1102.6031,370.7813 Q1102.9,371.0625 1102.9,371.7188 L1102.9,373.2813 Q1102.9,373.9375 1102.6188,374.2188 Q1102.3375,374.5 1101.9,374.5 Q1101.5094,374.5 1101.2594,374.3281 Q1101.0094,374.1563 1100.9,373.7031 Q1100.8531,373.3906 1100.6813,373.2188 Q1100.3688,372.8906 1099.8063,372.7031 Q1099.2438,372.5 1098.6813,372.5 Q1097.9781,372.5 1097.3844,372.7813 Q1096.8063,373.0625 1096.3531,373.6875 Q1095.9,374.3125 1095.9,375.1719 L1095.9,376.0938 Q1095.9,377.125 1096.7438,377.8125 Q1097.5875,378.5 1099.0875,378.5 Q1099.9781,378.5 1100.6031,378.2969 Q1100.9625,378.1875 1101.3688,377.8281 Q1101.6344,377.625 1101.775,377.5625 Q1101.9156,377.5 1102.0875,377.5 Q1102.4156,377.5 1102.65,377.7656 Q1102.9,378.0156 1102.9,378.375 Q1102.9,378.7188 1102.5563,379.125 Q1102.0563,379.7188 1101.2594,380.0469 Q1100.2125,380.5 1098.9313,380.5 Q1097.4313,380.5 1096.2281,379.9063 Q1095.2594,379.4375 1094.5719,378.4219 Q1093.9,377.4063 1093.9,376.2031 L1093.9,375.1094 Q1093.9,373.8594 1094.4938,372.7656 Q1095.1031,371.6719 1096.15,371.0938 Q1097.2125,370.5 1098.4,370.5 Q1099.1188,370.5 1099.7438,370.75 Q1100.3688,371 1100.9,371.5 Z "/><text fill="#000000" font-family="sans-serif" font-size="12" lengthAdjust="spacingAndGlyphs" textLength="70" x="1113.1" y="379.9102">DataHandler</text><line style="stroke: #A80036; stroke-width: 1.5;" x1="1084" x2="1186" y1="391" y2="391"/><line style="stroke: #A80036; stroke-width: 1.5;" x1="1084" x2="1186" y1="399" y2="399"/><text fill="#000000" font-family="sans-serif" font-size="11" lengthAdjust="spacingAndGlyphs" textLength="92" x="1089" y="414.4189">+openConnection()</text><text fill="#000000" font-family="sans-serif" font-size="11" lengthAdjust="spacingAndGlyphs" textLength="52" x="1089" y="428.2549">+closeAll()</text><!--MD5=[88cdc1ff0babf321196dd88b9a70f9c4]
reverse link DataHandler to PharmacyRegistration--><path d="M1070.42,445.71 C1061.52,450.81 1052.25,455.43 1043,459 C936.051,500.313 893.082,452.15 788,498 C764.166,508.4 741.162,525.802 723.052,541.816 " fill="none" id="DataHandler&lt;-PharmacyRegistration" style="stroke: #A80036; stroke-width: 1.0;"/><polygon fill="none" points="1066.82,439.7,1087.51,435.12,1074.2,451.6,1066.82,439.7" style="stroke: #A80036; stroke-width: 1.0;"/><!--MD5=[527120703de7dfffd3117b230a6ddff3]
reverse link DataHandler to ScooterRegistration--><path d="M1071.77,447.55 C1033.7,477.376 986.027,514.728 951.24,541.985 " fill="none" id="DataHandler&lt;-ScooterRegistration" style="stroke: #A80036; stroke-width: 1.0;"/><polygon fill="none" points="1067.64,441.89,1087.7,435.06,1076.27,452.91,1067.64,441.89" style="stroke: #A80036; stroke-width: 1.0;"/><!--MD5=[068c19e9ee2b8d6f5118254dd44da898]
link UpdateScooterUI to UpdateScooterController--><path d="M221,108.3 C221,129.69 221,161.89 221,187.81 " fill="none" id="UpdateScooterUI-&gt;UpdateScooterController" style="stroke: #A80036; stroke-width: 1.0; stroke-dasharray: 7.0,7.0;"/><polygon fill="#A80036" points="221,192.9,225,183.9,221,187.9,217,183.9,221,192.9" style="stroke: #A80036; stroke-width: 1.0;"/><!--MD5=[f3f1f35345fb8725b15e625f567a1711]
link UpdateScooterController to Platform--><path d="M270.203,269.15 C286.422,281.46 304.522,295.27 321,308 C339.555,322.34 359.731,338.13 377.782,352.33 " fill="none" id="UpdateScooterController-&gt;Platform" style="stroke: #A80036; stroke-width: 1.0; stroke-dasharray: 7.0,7.0;"/><polygon fill="#A80036" points="381.839,355.52,377.2245,346.8191,377.9042,352.4349,372.2884,353.1147,381.839,355.52" style="stroke: #A80036; stroke-width: 1.0;"/><!--MD5=[871f2fb6842f01c8edb6904d247d3c77]
link UpdateScooterController to ApplicationPOT--><path d="M192.636,269.21 C173.217,294.69 147.458,328.49 127.418,354.78 " fill="none" id="UpdateScooterController-&gt;ApplicationPOT" style="stroke: #A80036; stroke-width: 1.0; stroke-dasharray: 7.0,7.0;"/><polygon fill="#A80036" points="124.252,358.93,132.8869,354.193,127.2812,354.9521,126.5222,349.3464,124.252,358.93" style="stroke: #A80036; stroke-width: 1.0;"/><!--MD5=[996c2da959792bedde9a6294472023de]
link UpdateScooterController to UserSession--><path d="M226.9,269.21 C231.24,296.59 237.104,333.58 241.377,360.53 " fill="none" id="UpdateScooterController-&gt;UserSession" style="stroke: #A80036; stroke-width: 1.0; stroke-dasharray: 7.0,7.0;"/><polygon fill="#A80036" points="242.21,365.78,244.7462,356.2633,241.4244,360.8421,236.8456,357.5203,242.21,365.78" style="stroke: #A80036; stroke-width: 1.0;"/><!--MD5=[f94ed16b1d761a53d4eba61183b6d758]
link Platform to PharmacyRegistration--><path d="M484.003,420.2 C512.001,433.44 546.681,451.62 575,472 C601.803,491.286 628.549,516.832 649.07,538.126 " fill="none" id="Platform-&gt;PharmacyRegistration" style="stroke: #A80036; stroke-width: 1.0;"/><polygon fill="#A80036" points="652.568,541.777,649.2301,532.511,649.109,538.1666,643.4534,538.0455,652.568,541.777" style="stroke: #A80036; stroke-width: 1.0;"/><text fill="#000000" font-family="sans-serif" font-size="13" lengthAdjust="spacingAndGlyphs" textLength="21" x="595" y="486.4951">has</text><text fill="#000000" font-family="sans-serif" font-size="13" lengthAdjust="spacingAndGlyphs" textLength="7" x="492.0081" y="438.3396">1</text><text fill="#000000" font-family="sans-serif" font-size="13" lengthAdjust="spacingAndGlyphs" textLength="7" x="638.9895" y="531.0992">1</text><!--MD5=[10d7a1607bc161c4e7d004457651c20f]
link ScooterRegistration to Scooter--><path d="M833.82,618.042 C818.719,625.974 802.839,634.287 788,642 C739.675,667.119 727.209,672.658 679,698 C671.617,701.881 664.034,705.89 656.391,709.947 " fill="none" id="ScooterRegistration-&gt;Scooter" style="stroke: #A80036; stroke-width: 1.0;"/><polygon fill="#A80036" points="651.625,712.479,661.4496,711.788,656.0403,710.1327,657.6956,704.7235,651.625,712.479" style="stroke: #A80036; stroke-width: 1.0;"/><text fill="#000000" font-family="sans-serif" font-size="13" lengthAdjust="spacingAndGlyphs" textLength="53" x="773" y="664.4951">manages</text><text fill="#000000" font-family="sans-serif" font-size="13" lengthAdjust="spacingAndGlyphs" textLength="7" x="814.6168" y="639.2191">1</text><text fill="#000000" font-family="sans-serif" font-size="13" lengthAdjust="spacingAndGlyphs" textLength="5" x="659.3846" y="705.3175">*</text><!--MD5=[4a07f137c208f82f57837154e1cfa51e]
link Platform to Pharmacy--><path d="M419.263,442.35 C416.581,452.05 413.988,462.32 412,472 C377.559,639.742 355.236,690.93 397,857 C403.828,884.152 417.057,912.423 429.261,934.905 " fill="none" id="Platform-Pharmacy" style="stroke: #A80036; stroke-width: 1.0;"/><text fill="#000000" font-family="sans-serif" font-size="13" lengthAdjust="spacingAndGlyphs" textLength="82" x="379" y="664.4951">has registered</text><polygon fill="#000000" points="415.5,673.3516,418.5,679.3516,421.5,673.3516,415.5,673.3516" style="stroke: #000000; stroke-width: 1.0;"/><text fill="#000000" font-family="sans-serif" font-size="13" lengthAdjust="spacingAndGlyphs" textLength="7" x="409.9468" y="463.0707">1</text><text fill="#000000" font-family="sans-serif" font-size="13" lengthAdjust="spacingAndGlyphs" textLength="5" x="419.601" y="924.0053">*</text><!--MD5=[423ba1e9b983bd24d1236c4cf89ceca7]
link Platform to Scooter--><path d="M424.041,442.32 C415.886,496.375 411.532,587.288 460,642 C470.294,653.62 482.656,639.402 494,650 C507.603,662.708 516.502,680.039 522.312,697.794 " fill="none" id="Platform-Scooter" style="stroke: #A80036; stroke-width: 1.0;"/><text fill="#000000" font-family="sans-serif" font-size="13" lengthAdjust="spacingAndGlyphs" textLength="82" x="461" y="585.4951">has registered</text><polygon fill="#000000" points="497.5,594.3516,500.5,600.3516,503.5,594.3516,497.5,594.3516" style="stroke: #000000; stroke-width: 1.0;"/><text fill="#000000" font-family="sans-serif" font-size="13" lengthAdjust="spacingAndGlyphs" textLength="7" x="423.3074" y="463.0367">1</text><text fill="#000000" font-family="sans-serif" font-size="13" lengthAdjust="spacingAndGlyphs" textLength="5" x="516.0962" y="687.2343">*</text><!--MD5=[754ae0e32ddeeb427901936d97e772de]
link Platform to PharmacyManager--><path d="M484.051,425.39 C511.198,442.62 542.667,467.398 561,498 C594.383,553.723 550.697,587.473 586,642 C610.185,679.354 648.111,658.707 669,698 C752.171,854.446 655.923,1079.49 620.813,1151.452 " fill="none" id="Platform-PharmacyManager" style="stroke: #A80036; stroke-width: 1.0;"/><text fill="#000000" font-family="sans-serif" font-size="13" lengthAdjust="spacingAndGlyphs" textLength="82" x="702" y="782.9951">has registered</text><polygon fill="#000000" points="738.5,791.8516,741.5,797.8516,744.5,791.8516,738.5,791.8516" style="stroke: #000000; stroke-width: 1.0;"/><text fill="#000000" font-family="sans-serif" font-size="13" lengthAdjust="spacingAndGlyphs" textLength="7" x="492.0632" y="425.9419">1</text><text fill="#000000" font-family="sans-serif" font-size="13" lengthAdjust="spacingAndGlyphs" textLength="5" x="618.1995" y="1140.7799">*</text><!--MD5=[63120965f33aa30485eaf56f4034632c]
link PharmacyManager to User--><path d="M609,1199.834 C609,1230.541 609,1285.35 609,1325.803 " fill="none" id="PharmacyManager-User" style="stroke: #A80036; stroke-width: 1.0;"/><text fill="#000000" font-family="sans-serif" font-size="13" lengthAdjust="spacingAndGlyphs" textLength="43" x="610" y="1292.4951">acts as</text><polygon fill="#000000" points="627,1301.3516,630,1307.3516,633,1301.3516,627,1301.3516" style="stroke: #000000; stroke-width: 1.0;"/><text fill="#000000" font-family="sans-serif" font-size="13" lengthAdjust="spacingAndGlyphs" textLength="22" x="584.4563" y="1220.847">0..1</text><text fill="#000000" font-family="sans-serif" font-size="13" lengthAdjust="spacingAndGlyphs" textLength="7" x="601.5297" y="1315.2769">1</text><!--MD5=[09fe915c748217accc4fcc978cf154f9]
link PharmacyManager to Scooter--><path d="M607.902,1151.444 C605.171,1102.232 596.508,983.527 573,887 C570.625,877.247 567.652,867.165 564.404,857.254 " fill="none" id="PharmacyManager-Scooter" style="stroke: #A80036; stroke-width: 1.0;"/><polygon fill="#000000" points="617.5,982,620.5,976,623.5,982,617.5,982" style="stroke: #000000; stroke-width: 1.0;"/><text fill="#000000" font-family="sans-serif" font-size="13" lengthAdjust="spacingAndGlyphs" textLength="50" x="597" y="998.4951">registers</text><text fill="#000000" font-family="sans-serif" font-size="13" lengthAdjust="spacingAndGlyphs" textLength="7" x="599.7238" y="1140.7698">1</text><text fill="#000000" font-family="sans-serif" font-size="13" lengthAdjust="spacingAndGlyphs" textLength="20" x="546.2434" y="878.319">1..*</text><!--MD5=[1563ddde69eb8abda9b50e9ab8dfb994]
link Pharmacy to PharmacyManager--><path d="M491.101,1025.393 C522.156,1064.668 566.236,1120.416 590.753,1151.423 " fill="none" id="Pharmacy-PharmacyManager" style="stroke: #A80036; stroke-width: 1.0;"/><text fill="#000000" font-family="sans-serif" font-size="13" lengthAdjust="spacingAndGlyphs" textLength="21" x="529" y="1069.4951">has</text><polygon fill="#000000" points="535,1078.3516,538,1084.3516,541,1078.3516,535,1078.3516" style="stroke: #000000; stroke-width: 1.0;"/><text fill="#000000" font-family="sans-serif" font-size="13" lengthAdjust="spacingAndGlyphs" textLength="7" x="488.3474" y="1046.1195">1</text><text fill="#000000" font-family="sans-serif" font-size="13" lengthAdjust="spacingAndGlyphs" textLength="7" x="578.1803" y="1140.7434">1</text><!--MD5=[6f1b2737b94c689eac8b0af6a5ef1443]
link Scooter to Pharmacy--><path d="M502.789,857.167 C492.635,883.607 481.673,912.15 472.914,934.958 " fill="none" id="Scooter-Pharmacy" style="stroke: #A80036; stroke-width: 1.0;"/><text fill="#000000" font-family="sans-serif" font-size="13" lengthAdjust="spacingAndGlyphs" textLength="60" x="491" y="901.4951">belongs to</text><polygon fill="#000000" points="516.5,910.3516,519.5,916.3516,522.5,910.3516,516.5,910.3516" style="stroke: #000000; stroke-width: 1.0;"/><text fill="#000000" font-family="sans-serif" font-size="13" lengthAdjust="spacingAndGlyphs" textLength="5" x="494.9779" y="878.2245">*</text><text fill="#000000" font-family="sans-serif" font-size="13" lengthAdjust="spacingAndGlyphs" textLength="7" x="468.0519" y="924.0668">1</text><!--MD5=[89baec1bfb4a213750f7c61516e0a0f1]
link Pharmacy to Address--><path d="M455.312,1025.393 C454.957,1048.266 454.516,1076.727 454.114,1102.634 " fill="none" id="Pharmacy-Address" style="stroke: #A80036; stroke-width: 1.0;"/><text fill="#000000" font-family="sans-serif" font-size="13" lengthAdjust="spacingAndGlyphs" textLength="21" x="456" y="1069.4951">has</text><polygon fill="#000000" points="462,1078.3516,465,1084.3516,468,1078.3516,462,1078.3516" style="stroke: #000000; stroke-width: 1.0;"/><text fill="#000000" font-family="sans-serif" font-size="13" lengthAdjust="spacingAndGlyphs" textLength="7" x="447.7492" y="1046.1195">1</text><text fill="#000000" font-family="sans-serif" font-size="13" lengthAdjust="spacingAndGlyphs" textLength="7" x="446.8791" y="1092.1935">1</text><!--MD5=[f3bcec887c8c723f416aa11fe0b2edd0]
@startuml
skinparam classAttributeIconSize 0

package "UI" #DDDDDD {
class UpdateScooterUI{

}
}


package "Controller" #DDDDDD {
class UpdateScooterController{
    +showScootersList(pharmacy)
    +getScootersImformatio(scoot)
}

class ApplicationPOT
{
  +static getInstance()
  +getPlatform()
}

class UserSession
{
  +getCurrentSession()
}
}


package "Model" #DDDDDD {
class Platform {
  -String designation
  +gePharmReg()
  +getScootReg()
}
package "Registration" #DDDDDD {
 class PharmacyRegistration{
     +getPharmacyByManager(email)
     +getConnection()
 }

 class ScooterRegistration{
     +getScooterInformationFromDB(scoot)
     +getConnection()
  }
 }
}

package "Model" #DDDDDD {
class Scooter{
  -int id
  -int batteryPerc
  -int charginStatus
  -int potency
  -int weight
  -int batteryCapacity
  +Scooter(batteryPerc, charginStatus, potency,\n weight, batteryCapacity)
}

class Address{
  -float longitude
  -float latitude
  -String doorNumber
  -String streetName
  -String postalCode
  -String locality
  -String country
}

class Pharmacy {
  -int id
  -String name
  +getScootersList(pharmacy)
}

class User{
-   String name
-   String email
-   String password
-   Integer nif
}

class PharmacyManager {
}

}


package "Data" #DDDDDD {
class DataHandler{
    +openConnection()
    +closeAll()
}
}

class PharmacyRegistration extends DataHandler
class ScooterRegistration extends DataHandler

UpdateScooterUI ..> UpdateScooterController
UpdateScooterController ..> Platform
UpdateScooterController ..> ApplicationPOT
UpdateScooterController ..> UserSession
Platform "1" - -> "1" PharmacyRegistration : has
ScooterRegistration "1" - -> "*" Scooter : manages

Platform "1" - - "*" Pharmacy : has registered >
Platform "1" - - "*" Scooter : has registered >
Platform "1" - - "*" PharmacyManager : has registered >

PharmacyManager "0..1" - - "1" User: acts as >
PharmacyManager "1" - - "1..*" Scooter : registers >
Pharmacy "1" - - "1" PharmacyManager : has >
Scooter "*" - - "1" Pharmacy : belongs to >
Pharmacy "1" - - "1" Address : has >

@enduml

PlantUML version 1.2020.09(Sun May 10 11:51:06 BST 2020)
(GPL source distribution)
Java Runtime: OpenJDK Runtime Environment
JVM: OpenJDK 64-Bit Server VM
Java Version: 11.0.6+8-b765.40
Operating System: Windows 10
Default Encoding: Cp1252
Language: pt
Country: PT
--></g></svg>