<?xml version="1.0" encoding="UTF-8" standalone="no"?><svg xmlns="http://www.w3.org/2000/svg" xmlns:xlink="http://www.w3.org/1999/xlink" contentScriptType="application/ecmascript" contentStyleType="text/css" height="890px" preserveAspectRatio="none" style="width:1334px;height:890px;" version="1.1" viewBox="0 0 1334 890" width="1334px" zoomAndPan="magnify"><defs><filter height="300%" id="f13udl4mh74xuu" width="300%" x="-1" y="-1"><feGaussianBlur result="blurOut" stdDeviation="2.0"/><feColorMatrix in="blurOut" result="blurOut2" type="matrix" values="0 0 0 0 0 0 0 0 0 0 0 0 0 0 0 0 0 0 .4 0"/><feOffset dx="4.0" dy="4.0" in="blurOut2" result="blurOut3"/><feBlend in="SourceGraphic" in2="blurOut3" mode="normal"/></filter></defs><g><!--MD5=[9681dc6e01e10c6b4fe06895ae94f592]
cluster UI--><polygon fill="#DDDDDD" filter="url(#f13udl4mh74xuu)" points="142,24,162,24,169,47.6094,300,47.6094,300,124,142,124,142,24" style="stroke: #000000; stroke-width: 1.5;"/><line style="stroke: #000000; stroke-width: 1.5;" x1="142" x2="169" y1="47.6094" y2="47.6094"/><text fill="#000000" font-family="sans-serif" font-size="14" font-weight="bold" lengthAdjust="spacingAndGlyphs" textLength="14" x="146" y="40.5332">UI</text><!--MD5=[1f2cfc53d9d308f53762fd0fcbaa4873]
cluster Controller--><polygon fill="#DDDDDD" filter="url(#f13udl4mh74xuu)" points="22,157,99,157,106,180.6094,321,180.6094,321,451,22,451,22,157" style="stroke: #000000; stroke-width: 1.5;"/><line style="stroke: #000000; stroke-width: 1.5;" x1="22" x2="106" y1="180.6094" y2="180.6094"/><text fill="#000000" font-family="sans-serif" font-size="14" font-weight="bold" lengthAdjust="spacingAndGlyphs" textLength="71" x="26" y="173.5332">Controller</text><!--MD5=[15636c1ca4a123c16a2a1a8e90aca7a9]
cluster Model--><polygon fill="#DDDDDD" filter="url(#f13udl4mh74xuu)" points="345,316,395,316,402,339.6094,1152,339.6094,1152,878,345,878,345,316" style="stroke: #000000; stroke-width: 1.5;"/><line style="stroke: #000000; stroke-width: 1.5;" x1="345" x2="402" y1="339.6094" y2="339.6094"/><text fill="#000000" font-family="sans-serif" font-size="14" font-weight="bold" lengthAdjust="spacingAndGlyphs" textLength="44" x="349" y="332.5332">Model</text><!--MD5=[7f5e0441b00afcd8fa9ae108c086a015]
cluster Registration--><polygon fill="#DDDDDD" filter="url(#f13udl4mh74xuu)" points="697,506,789,506,796,529.6094,1128,529.6094,1128,634,697,634,697,506" style="stroke: #000000; stroke-width: 1.5;"/><line style="stroke: #000000; stroke-width: 1.5;" x1="697" x2="796" y1="529.6094" y2="529.6094"/><text fill="#000000" font-family="sans-serif" font-size="14" font-weight="bold" lengthAdjust="spacingAndGlyphs" textLength="86" x="701" y="522.5332">Registration</text><!--MD5=[f21b1f164e99c6b37934f23ad048ad54]
cluster Data--><polygon fill="#DDDDDD" filter="url(#f13udl4mh74xuu)" points="1176,323,1213,323,1220,346.6094,1312,346.6094,1312,451,1176,451,1176,323" style="stroke: #000000; stroke-width: 1.5;"/><line style="stroke: #000000; stroke-width: 1.5;" x1="1176" x2="1220" y1="346.6094" y2="346.6094"/><text fill="#000000" font-family="sans-serif" font-size="14" font-weight="bold" lengthAdjust="spacingAndGlyphs" textLength="31" x="1180" y="339.5332">Data</text><!--MD5=[56b05040cba7ba1143e43c771f04a5c5]
class UpdateScooterUI--><rect fill="#FEFECE" filter="url(#f13udl4mh74xuu)" height="48" id="UpdateScooterUI" style="stroke: #A80036; stroke-width: 1.5;" width="126" x="158" y="60"/><ellipse cx="173" cy="76" fill="#ADD1B2" rx="11" ry="11" style="stroke: #A80036; stroke-width: 1.0;"/><path d="M175,72.5 Q175.2031,72 175.4375,71.75 Q175.6719,71.5 175.9375,71.5 Q176.4063,71.5 176.7031,71.7813 Q177,72.0625 177,72.7188 L177,74.2813 Q177,74.9375 176.7188,75.2188 Q176.4375,75.5 176,75.5 Q175.6094,75.5 175.3594,75.3281 Q175.1094,75.1563 175,74.7031 Q174.9531,74.3906 174.7813,74.2188 Q174.4688,73.8906 173.9063,73.7031 Q173.3438,73.5 172.7813,73.5 Q172.0781,73.5 171.4844,73.7813 Q170.9063,74.0625 170.4531,74.6875 Q170,75.3125 170,76.1719 L170,77.0938 Q170,78.125 170.8438,78.8125 Q171.6875,79.5 173.1875,79.5 Q174.0781,79.5 174.7031,79.2969 Q175.0625,79.1875 175.4688,78.8281 Q175.7344,78.625 175.875,78.5625 Q176.0156,78.5 176.1875,78.5 Q176.5156,78.5 176.75,78.7656 Q177,79.0156 177,79.375 Q177,79.7188 176.6563,80.125 Q176.1563,80.7188 175.3594,81.0469 Q174.3125,81.5 173.0313,81.5 Q171.5313,81.5 170.3281,80.9063 Q169.3594,80.4375 168.6719,79.4219 Q168,78.4063 168,77.2031 L168,76.1094 Q168,74.8594 168.5938,73.7656 Q169.2031,72.6719 170.25,72.0938 Q171.3125,71.5 172.5,71.5 Q173.2188,71.5 173.8438,71.75 Q174.4688,72 175,72.5 Z "/><text fill="#000000" font-family="sans-serif" font-size="12" lengthAdjust="spacingAndGlyphs" textLength="94" x="187" y="80.9102">UpdateScooterUI</text><line style="stroke: #A80036; stroke-width: 1.5;" x1="159" x2="283" y1="92" y2="92"/><line style="stroke: #A80036; stroke-width: 1.5;" x1="159" x2="283" y1="100" y2="100"/><!--MD5=[3e55a46d736e61deccb82423bbd922fc]
class UpdateScooterController--><rect fill="#FEFECE" filter="url(#f13udl4mh74xuu)" height="75.6719" id="UpdateScooterController" style="stroke: #A80036; stroke-width: 1.5;" width="168" x="137" y="193"/><ellipse cx="152" cy="209" fill="#ADD1B2" rx="11" ry="11" style="stroke: #A80036; stroke-width: 1.0;"/><path d="M154,205.5 Q154.2031,205 154.4375,204.75 Q154.6719,204.5 154.9375,204.5 Q155.4063,204.5 155.7031,204.7813 Q156,205.0625 156,205.7188 L156,207.2813 Q156,207.9375 155.7188,208.2188 Q155.4375,208.5 155,208.5 Q154.6094,208.5 154.3594,208.3281 Q154.1094,208.1563 154,207.7031 Q153.9531,207.3906 153.7813,207.2188 Q153.4688,206.8906 152.9063,206.7031 Q152.3438,206.5 151.7813,206.5 Q151.0781,206.5 150.4844,206.7813 Q149.9063,207.0625 149.4531,207.6875 Q149,208.3125 149,209.1719 L149,210.0938 Q149,211.125 149.8438,211.8125 Q150.6875,212.5 152.1875,212.5 Q153.0781,212.5 153.7031,212.2969 Q154.0625,212.1875 154.4688,211.8281 Q154.7344,211.625 154.875,211.5625 Q155.0156,211.5 155.1875,211.5 Q155.5156,211.5 155.75,211.7656 Q156,212.0156 156,212.375 Q156,212.7188 155.6563,213.125 Q155.1563,213.7188 154.3594,214.0469 Q153.3125,214.5 152.0313,214.5 Q150.5313,214.5 149.3281,213.9063 Q148.3594,213.4375 147.6719,212.4219 Q147,211.4063 147,210.2031 L147,209.1094 Q147,207.8594 147.5938,206.7656 Q148.2031,205.6719 149.25,205.0938 Q150.3125,204.5 151.5,204.5 Q152.2188,204.5 152.8438,204.75 Q153.4688,205 154,205.5 Z "/><text fill="#000000" font-family="sans-serif" font-size="12" lengthAdjust="spacingAndGlyphs" textLength="136" x="166" y="213.9102">UpdateScooterController</text><line style="stroke: #A80036; stroke-width: 1.5;" x1="138" x2="304" y1="225" y2="225"/><line style="stroke: #A80036; stroke-width: 1.5;" x1="138" x2="304" y1="233" y2="233"/><text fill="#000000" font-family="sans-serif" font-size="11" lengthAdjust="spacingAndGlyphs" textLength="151" x="143" y="248.4189">+showScootersList(pharmacy)</text><text fill="#000000" font-family="sans-serif" font-size="11" lengthAdjust="spacingAndGlyphs" textLength="149" x="143" y="262.2549">+getScootersImformatio(scoot)</text><!--MD5=[e45a4727c47b726c25e081782e8bc183]
class ApplicationPOT--><rect fill="#FEFECE" filter="url(#f13udl4mh74xuu)" height="75.6719" id="ApplicationPOT" style="stroke: #A80036; stroke-width: 1.5;" width="116" x="38" y="359"/><ellipse cx="53" cy="375" fill="#ADD1B2" rx="11" ry="11" style="stroke: #A80036; stroke-width: 1.0;"/><path d="M55,371.5 Q55.2031,371 55.4375,370.75 Q55.6719,370.5 55.9375,370.5 Q56.4063,370.5 56.7031,370.7813 Q57,371.0625 57,371.7188 L57,373.2813 Q57,373.9375 56.7188,374.2188 Q56.4375,374.5 56,374.5 Q55.6094,374.5 55.3594,374.3281 Q55.1094,374.1563 55,373.7031 Q54.9531,373.3906 54.7813,373.2188 Q54.4688,372.8906 53.9063,372.7031 Q53.3438,372.5 52.7813,372.5 Q52.0781,372.5 51.4844,372.7813 Q50.9063,373.0625 50.4531,373.6875 Q50,374.3125 50,375.1719 L50,376.0938 Q50,377.125 50.8438,377.8125 Q51.6875,378.5 53.1875,378.5 Q54.0781,378.5 54.7031,378.2969 Q55.0625,378.1875 55.4688,377.8281 Q55.7344,377.625 55.875,377.5625 Q56.0156,377.5 56.1875,377.5 Q56.5156,377.5 56.75,377.7656 Q57,378.0156 57,378.375 Q57,378.7188 56.6563,379.125 Q56.1563,379.7188 55.3594,380.0469 Q54.3125,380.5 53.0313,380.5 Q51.5313,380.5 50.3281,379.9063 Q49.3594,379.4375 48.6719,378.4219 Q48,377.4063 48,376.2031 L48,375.1094 Q48,373.8594 48.5938,372.7656 Q49.2031,371.6719 50.25,371.0938 Q51.3125,370.5 52.5,370.5 Q53.2188,370.5 53.8438,370.75 Q54.4688,371 55,371.5 Z "/><text fill="#000000" font-family="sans-serif" font-size="12" lengthAdjust="spacingAndGlyphs" textLength="84" x="67" y="379.9102">ApplicationPOT</text><line style="stroke: #A80036; stroke-width: 1.5;" x1="39" x2="153" y1="391" y2="391"/><line style="stroke: #A80036; stroke-width: 1.5;" x1="39" x2="153" y1="399" y2="399"/><text fill="#000000" font-family="sans-serif" font-size="11" lengthAdjust="spacingAndGlyphs" textLength="99" x="44" y="414.4189">+static getInstance()</text><text fill="#000000" font-family="sans-serif" font-size="11" lengthAdjust="spacingAndGlyphs" textLength="68" x="44" y="428.2549">+getPlatform()</text><!--MD5=[c5b08e60048ef1bcd788d24cf324082e]
class UserSession--><rect fill="#FEFECE" filter="url(#f13udl4mh74xuu)" height="61.8359" id="UserSession" style="stroke: #A80036; stroke-width: 1.5;" width="116" x="189" y="366"/><ellipse cx="208.95" cy="382" fill="#ADD1B2" rx="11" ry="11" style="stroke: #A80036; stroke-width: 1.0;"/><path d="M210.95,378.5 Q211.1531,378 211.3875,377.75 Q211.6219,377.5 211.8875,377.5 Q212.3563,377.5 212.6531,377.7813 Q212.95,378.0625 212.95,378.7188 L212.95,380.2813 Q212.95,380.9375 212.6688,381.2188 Q212.3875,381.5 211.95,381.5 Q211.5594,381.5 211.3094,381.3281 Q211.0594,381.1563 210.95,380.7031 Q210.9031,380.3906 210.7313,380.2188 Q210.4188,379.8906 209.8563,379.7031 Q209.2938,379.5 208.7313,379.5 Q208.0281,379.5 207.4344,379.7813 Q206.8563,380.0625 206.4031,380.6875 Q205.95,381.3125 205.95,382.1719 L205.95,383.0938 Q205.95,384.125 206.7938,384.8125 Q207.6375,385.5 209.1375,385.5 Q210.0281,385.5 210.6531,385.2969 Q211.0125,385.1875 211.4188,384.8281 Q211.6844,384.625 211.825,384.5625 Q211.9656,384.5 212.1375,384.5 Q212.4656,384.5 212.7,384.7656 Q212.95,385.0156 212.95,385.375 Q212.95,385.7188 212.6063,386.125 Q212.1063,386.7188 211.3094,387.0469 Q210.2625,387.5 208.9813,387.5 Q207.4813,387.5 206.2781,386.9063 Q205.3094,386.4375 204.6219,385.4219 Q203.95,384.4063 203.95,383.2031 L203.95,382.1094 Q203.95,380.8594 204.5438,379.7656 Q205.1531,378.6719 206.2,378.0938 Q207.2625,377.5 208.45,377.5 Q209.1688,377.5 209.7938,377.75 Q210.4188,378 210.95,378.5 Z "/><text fill="#000000" font-family="sans-serif" font-size="12" lengthAdjust="spacingAndGlyphs" textLength="73" x="224.05" y="386.9102">UserSession</text><line style="stroke: #A80036; stroke-width: 1.5;" x1="190" x2="304" y1="398" y2="398"/><line style="stroke: #A80036; stroke-width: 1.5;" x1="190" x2="304" y1="406" y2="406"/><text fill="#000000" font-family="sans-serif" font-size="11" lengthAdjust="spacingAndGlyphs" textLength="104" x="195" y="421.4189">+getCurrentSession()</text><!--MD5=[99b8db98afdc2c8404e39242ef4c1e65]
class Platform--><rect fill="#FEFECE" filter="url(#f13udl4mh74xuu)" height="89.5078" id="Platform" style="stroke: #A80036; stroke-width: 1.5;" width="102" x="415" y="352"/><ellipse cx="440.8" cy="368" fill="#ADD1B2" rx="11" ry="11" style="stroke: #A80036; stroke-width: 1.0;"/><path d="M442.8,364.5 Q443.0031,364 443.2375,363.75 Q443.4719,363.5 443.7375,363.5 Q444.2063,363.5 444.5031,363.7813 Q444.8,364.0625 444.8,364.7188 L444.8,366.2813 Q444.8,366.9375 444.5188,367.2188 Q444.2375,367.5 443.8,367.5 Q443.4094,367.5 443.1594,367.3281 Q442.9094,367.1563 442.8,366.7031 Q442.7531,366.3906 442.5813,366.2188 Q442.2688,365.8906 441.7063,365.7031 Q441.1438,365.5 440.5813,365.5 Q439.8781,365.5 439.2844,365.7813 Q438.7063,366.0625 438.2531,366.6875 Q437.8,367.3125 437.8,368.1719 L437.8,369.0938 Q437.8,370.125 438.6438,370.8125 Q439.4875,371.5 440.9875,371.5 Q441.8781,371.5 442.5031,371.2969 Q442.8625,371.1875 443.2688,370.8281 Q443.5344,370.625 443.675,370.5625 Q443.8156,370.5 443.9875,370.5 Q444.3156,370.5 444.55,370.7656 Q444.8,371.0156 444.8,371.375 Q444.8,371.7188 444.4563,372.125 Q443.9563,372.7188 443.1594,373.0469 Q442.1125,373.5 440.8313,373.5 Q439.3313,373.5 438.1281,372.9063 Q437.1594,372.4375 436.4719,371.4219 Q435.8,370.4063 435.8,369.2031 L435.8,368.1094 Q435.8,366.8594 436.3938,365.7656 Q437.0031,364.6719 438.05,364.0938 Q439.1125,363.5 440.3,363.5 Q441.0188,363.5 441.6438,363.75 Q442.2688,364 442.8,364.5 Z "/><text fill="#000000" font-family="sans-serif" font-size="12" lengthAdjust="spacingAndGlyphs" textLength="46" x="457.2" y="372.9102">Platform</text><line style="stroke: #A80036; stroke-width: 1.5;" x1="416" x2="516" y1="384" y2="384"/><text fill="#000000" font-family="sans-serif" font-size="11" lengthAdjust="spacingAndGlyphs" textLength="90" x="421" y="399.4189">-String designation</text><line style="stroke: #A80036; stroke-width: 1.5;" x1="416" x2="516" y1="405.8359" y2="405.8359"/><text fill="#000000" font-family="sans-serif" font-size="11" lengthAdjust="spacingAndGlyphs" textLength="75" x="421" y="421.2549">+gePharmReg()</text><text fill="#000000" font-family="sans-serif" font-size="11" lengthAdjust="spacingAndGlyphs" textLength="76" x="421" y="435.0908">+getScootReg()</text><!--MD5=[f4402668d5d5bb8485350c0fdb60ac8e]
class Scooter--><rect fill="#FEFECE" filter="url(#f13udl4mh74xuu)" height="158.6875" id="Scooter" style="stroke: #A80036; stroke-width: 1.5;" width="237" x="383.5" y="703"/><ellipse cx="476.75" cy="719" fill="#ADD1B2" rx="11" ry="11" style="stroke: #A80036; stroke-width: 1.0;"/><path d="M478.75,715.5 Q478.9531,715 479.1875,714.75 Q479.4219,714.5 479.6875,714.5 Q480.1563,714.5 480.4531,714.7813 Q480.75,715.0625 480.75,715.7188 L480.75,717.2813 Q480.75,717.9375 480.4688,718.2188 Q480.1875,718.5 479.75,718.5 Q479.3594,718.5 479.1094,718.3281 Q478.8594,718.1563 478.75,717.7031 Q478.7031,717.3906 478.5313,717.2188 Q478.2188,716.8906 477.6563,716.7031 Q477.0938,716.5 476.5313,716.5 Q475.8281,716.5 475.2344,716.7813 Q474.6563,717.0625 474.2031,717.6875 Q473.75,718.3125 473.75,719.1719 L473.75,720.0938 Q473.75,721.125 474.5938,721.8125 Q475.4375,722.5 476.9375,722.5 Q477.8281,722.5 478.4531,722.2969 Q478.8125,722.1875 479.2188,721.8281 Q479.4844,721.625 479.625,721.5625 Q479.7656,721.5 479.9375,721.5 Q480.2656,721.5 480.5,721.7656 Q480.75,722.0156 480.75,722.375 Q480.75,722.7188 480.4063,723.125 Q479.9063,723.7188 479.1094,724.0469 Q478.0625,724.5 476.7813,724.5 Q475.2813,724.5 474.0781,723.9063 Q473.1094,723.4375 472.4219,722.4219 Q471.75,721.4063 471.75,720.2031 L471.75,719.1094 Q471.75,717.8594 472.3438,716.7656 Q472.9531,715.6719 474,715.0938 Q475.0625,714.5 476.25,714.5 Q476.9688,714.5 477.5938,714.75 Q478.2188,715 478.75,715.5 Z "/><text fill="#000000" font-family="sans-serif" font-size="12" lengthAdjust="spacingAndGlyphs" textLength="42" x="497.25" y="723.9102">Scooter</text><line style="stroke: #A80036; stroke-width: 1.5;" x1="384.5" x2="619.5" y1="735" y2="735"/><text fill="#000000" font-family="sans-serif" font-size="11" lengthAdjust="spacingAndGlyphs" textLength="26" x="389.5" y="750.4189">-int id</text><text fill="#000000" font-family="sans-serif" font-size="11" lengthAdjust="spacingAndGlyphs" textLength="74" x="389.5" y="764.2549">-int batteryPerc</text><text fill="#000000" font-family="sans-serif" font-size="11" lengthAdjust="spacingAndGlyphs" textLength="85" x="389.5" y="778.0908">-int charginStatus</text><text fill="#000000" font-family="sans-serif" font-size="11" lengthAdjust="spacingAndGlyphs" textLength="57" x="389.5" y="791.9268">-int potency</text><text fill="#000000" font-family="sans-serif" font-size="11" lengthAdjust="spacingAndGlyphs" textLength="51" x="389.5" y="805.7627">-int weight</text><text fill="#000000" font-family="sans-serif" font-size="11" lengthAdjust="spacingAndGlyphs" textLength="94" x="389.5" y="819.5986">-int batteryCapacity</text><line style="stroke: #A80036; stroke-width: 1.5;" x1="384.5" x2="619.5" y1="826.0156" y2="826.0156"/><text fill="#000000" font-family="sans-serif" font-size="11" lengthAdjust="spacingAndGlyphs" textLength="225" x="389.5" y="841.4346">+Scooter(batteryPerc, charginStatus, potency,</text><text fill="#000000" font-family="sans-serif" font-size="11" lengthAdjust="spacingAndGlyphs" textLength="119" x="392.5" y="855.2705">weight, batteryCapacity)</text><!--MD5=[0f39e4cb6f03951afbf6d14bd2505654]
class Address--><rect fill="#FEFECE" filter="url(#f13udl4mh74xuu)" height="144.8516" id="Address" style="stroke: #A80036; stroke-width: 1.5;" width="106" x="656" y="710"/><ellipse cx="683.6" cy="726" fill="#ADD1B2" rx="11" ry="11" style="stroke: #A80036; stroke-width: 1.0;"/><path d="M685.6,722.5 Q685.8031,722 686.0375,721.75 Q686.2719,721.5 686.5375,721.5 Q687.0063,721.5 687.3031,721.7813 Q687.6,722.0625 687.6,722.7188 L687.6,724.2813 Q687.6,724.9375 687.3188,725.2188 Q687.0375,725.5 686.6,725.5 Q686.2094,725.5 685.9594,725.3281 Q685.7094,725.1563 685.6,724.7031 Q685.5531,724.3906 685.3813,724.2188 Q685.0688,723.8906 684.5063,723.7031 Q683.9438,723.5 683.3813,723.5 Q682.6781,723.5 682.0844,723.7813 Q681.5063,724.0625 681.0531,724.6875 Q680.6,725.3125 680.6,726.1719 L680.6,727.0938 Q680.6,728.125 681.4438,728.8125 Q682.2875,729.5 683.7875,729.5 Q684.6781,729.5 685.3031,729.2969 Q685.6625,729.1875 686.0688,728.8281 Q686.3344,728.625 686.475,728.5625 Q686.6156,728.5 686.7875,728.5 Q687.1156,728.5 687.35,728.7656 Q687.6,729.0156 687.6,729.375 Q687.6,729.7188 687.2563,730.125 Q686.7563,730.7188 685.9594,731.0469 Q684.9125,731.5 683.6313,731.5 Q682.1313,731.5 680.9281,730.9063 Q679.9594,730.4375 679.2719,729.4219 Q678.6,728.4063 678.6,727.2031 L678.6,726.1094 Q678.6,724.8594 679.1938,723.7656 Q679.8031,722.6719 680.85,722.0938 Q681.9125,721.5 683.1,721.5 Q683.8188,721.5 684.4438,721.75 Q685.0688,722 685.6,722.5 Z "/><text fill="#000000" font-family="sans-serif" font-size="12" lengthAdjust="spacingAndGlyphs" textLength="46" x="700.4" y="730.9102">Address</text><line style="stroke: #A80036; stroke-width: 1.5;" x1="657" x2="761" y1="742" y2="742"/><text fill="#000000" font-family="sans-serif" font-size="11" lengthAdjust="spacingAndGlyphs" textLength="71" x="662" y="757.4189">-float longitude</text><text fill="#000000" font-family="sans-serif" font-size="11" lengthAdjust="spacingAndGlyphs" textLength="62" x="662" y="771.2549">-float latitude</text><text fill="#000000" font-family="sans-serif" font-size="11" lengthAdjust="spacingAndGlyphs" textLength="94" x="662" y="785.0908">-String doorNumber</text><text fill="#000000" font-family="sans-serif" font-size="11" lengthAdjust="spacingAndGlyphs" textLength="90" x="662" y="798.9268">-String streetName</text><text fill="#000000" font-family="sans-serif" font-size="11" lengthAdjust="spacingAndGlyphs" textLength="89" x="662" y="812.7627">-String postalCode</text><text fill="#000000" font-family="sans-serif" font-size="11" lengthAdjust="spacingAndGlyphs" textLength="68" x="662" y="826.5986">-String locality</text><text fill="#000000" font-family="sans-serif" font-size="11" lengthAdjust="spacingAndGlyphs" textLength="72" x="662" y="840.4346">-String country</text><line style="stroke: #A80036; stroke-width: 1.5;" x1="657" x2="761" y1="846.8516" y2="846.8516"/><!--MD5=[7f2a9fafcebe4f099f71398fd3e2ed00]
class Pharmacy--><rect fill="#FEFECE" filter="url(#f13udl4mh74xuu)" height="89.5078" id="Pharmacy" style="stroke: #A80036; stroke-width: 1.5;" width="150" x="528" y="535"/><ellipse cx="571.35" cy="551" fill="#ADD1B2" rx="11" ry="11" style="stroke: #A80036; stroke-width: 1.0;"/><path d="M573.35,547.5 Q573.5531,547 573.7875,546.75 Q574.0219,546.5 574.2875,546.5 Q574.7563,546.5 575.0531,546.7813 Q575.35,547.0625 575.35,547.7188 L575.35,549.2813 Q575.35,549.9375 575.0688,550.2188 Q574.7875,550.5 574.35,550.5 Q573.9594,550.5 573.7094,550.3281 Q573.4594,550.1563 573.35,549.7031 Q573.3031,549.3906 573.1313,549.2188 Q572.8188,548.8906 572.2563,548.7031 Q571.6938,548.5 571.1313,548.5 Q570.4281,548.5 569.8344,548.7813 Q569.2563,549.0625 568.8031,549.6875 Q568.35,550.3125 568.35,551.1719 L568.35,552.0938 Q568.35,553.125 569.1938,553.8125 Q570.0375,554.5 571.5375,554.5 Q572.4281,554.5 573.0531,554.2969 Q573.4125,554.1875 573.8188,553.8281 Q574.0844,553.625 574.225,553.5625 Q574.3656,553.5 574.5375,553.5 Q574.8656,553.5 575.1,553.7656 Q575.35,554.0156 575.35,554.375 Q575.35,554.7188 575.0063,555.125 Q574.5063,555.7188 573.7094,556.0469 Q572.6625,556.5 571.3813,556.5 Q569.8813,556.5 568.6781,555.9063 Q567.7094,555.4375 567.0219,554.4219 Q566.35,553.4063 566.35,552.2031 L566.35,551.1094 Q566.35,549.8594 566.9438,548.7656 Q567.5531,547.6719 568.6,547.0938 Q569.6625,546.5 570.85,546.5 Q571.5688,546.5 572.1938,546.75 Q572.8188,547 573.35,547.5 Z "/><text fill="#000000" font-family="sans-serif" font-size="12" lengthAdjust="spacingAndGlyphs" textLength="55" x="591.65" y="555.9102">Pharmacy</text><line style="stroke: #A80036; stroke-width: 1.5;" x1="529" x2="677" y1="567" y2="567"/><text fill="#000000" font-family="sans-serif" font-size="11" lengthAdjust="spacingAndGlyphs" textLength="26" x="534" y="582.4189">-int id</text><text fill="#000000" font-family="sans-serif" font-size="11" lengthAdjust="spacingAndGlyphs" textLength="61" x="534" y="596.2549">-String name</text><line style="stroke: #A80036; stroke-width: 1.5;" x1="529" x2="677" y1="602.6719" y2="602.6719"/><text fill="#000000" font-family="sans-serif" font-size="11" lengthAdjust="spacingAndGlyphs" textLength="138" x="534" y="618.0908">+getScootersList(pharmacy)</text><!--MD5=[c5b7c01e8de644a6bcc6ccb0cb86eabf]
class PharmacyRegistration--><rect fill="#FEFECE" filter="url(#f13udl4mh74xuu)" height="75.6719" id="PharmacyRegistration" style="stroke: #A80036; stroke-width: 1.5;" width="166" x="713" y="542"/><ellipse cx="733.4" cy="558" fill="#ADD1B2" rx="11" ry="11" style="stroke: #A80036; stroke-width: 1.0;"/><path d="M735.4,554.5 Q735.6031,554 735.8375,553.75 Q736.0719,553.5 736.3375,553.5 Q736.8063,553.5 737.1031,553.7813 Q737.4,554.0625 737.4,554.7188 L737.4,556.2813 Q737.4,556.9375 737.1188,557.2188 Q736.8375,557.5 736.4,557.5 Q736.0094,557.5 735.7594,557.3281 Q735.5094,557.1563 735.4,556.7031 Q735.3531,556.3906 735.1813,556.2188 Q734.8688,555.8906 734.3063,555.7031 Q733.7438,555.5 733.1813,555.5 Q732.4781,555.5 731.8844,555.7813 Q731.3063,556.0625 730.8531,556.6875 Q730.4,557.3125 730.4,558.1719 L730.4,559.0938 Q730.4,560.125 731.2438,560.8125 Q732.0875,561.5 733.5875,561.5 Q734.4781,561.5 735.1031,561.2969 Q735.4625,561.1875 735.8688,560.8281 Q736.1344,560.625 736.275,560.5625 Q736.4156,560.5 736.5875,560.5 Q736.9156,560.5 737.15,560.7656 Q737.4,561.0156 737.4,561.375 Q737.4,561.7188 737.0563,562.125 Q736.5563,562.7188 735.7594,563.0469 Q734.7125,563.5 733.4313,563.5 Q731.9313,563.5 730.7281,562.9063 Q729.7594,562.4375 729.0719,561.4219 Q728.4,560.4063 728.4,559.2031 L728.4,558.1094 Q728.4,556.8594 728.9938,555.7656 Q729.6031,554.6719 730.65,554.0938 Q731.7125,553.5 732.9,553.5 Q733.6188,553.5 734.2438,553.75 Q734.8688,554 735.4,554.5 Z "/><text fill="#000000" font-family="sans-serif" font-size="12" lengthAdjust="spacingAndGlyphs" textLength="122" x="748.6" y="562.9102">PharmacyRegistration</text><line style="stroke: #A80036; stroke-width: 1.5;" x1="714" x2="878" y1="574" y2="574"/><line style="stroke: #A80036; stroke-width: 1.5;" x1="714" x2="878" y1="582" y2="582"/><text fill="#000000" font-family="sans-serif" font-size="11" lengthAdjust="spacingAndGlyphs" textLength="154" x="719" y="597.4189">+getPharmacyById(pharmacyId)</text><text fill="#000000" font-family="sans-serif" font-size="11" lengthAdjust="spacingAndGlyphs" textLength="83" x="719" y="611.2549">+getConnection()</text><!--MD5=[4a15ac34fd2b3f03c890a74250c9952b]
class ScooterRegistration--><rect fill="#FEFECE" filter="url(#f13udl4mh74xuu)" height="75.6719" id="ScooterRegistration" style="stroke: #A80036; stroke-width: 1.5;" width="197" x="914.5" y="542"/><ellipse cx="954.7" cy="558" fill="#ADD1B2" rx="11" ry="11" style="stroke: #A80036; stroke-width: 1.0;"/><path d="M956.7,554.5 Q956.9031,554 957.1375,553.75 Q957.3719,553.5 957.6375,553.5 Q958.1063,553.5 958.4031,553.7813 Q958.7,554.0625 958.7,554.7188 L958.7,556.2813 Q958.7,556.9375 958.4188,557.2188 Q958.1375,557.5 957.7,557.5 Q957.3094,557.5 957.0594,557.3281 Q956.8094,557.1563 956.7,556.7031 Q956.6531,556.3906 956.4813,556.2188 Q956.1688,555.8906 955.6063,555.7031 Q955.0438,555.5 954.4813,555.5 Q953.7781,555.5 953.1844,555.7813 Q952.6063,556.0625 952.1531,556.6875 Q951.7,557.3125 951.7,558.1719 L951.7,559.0938 Q951.7,560.125 952.5438,560.8125 Q953.3875,561.5 954.8875,561.5 Q955.7781,561.5 956.4031,561.2969 Q956.7625,561.1875 957.1688,560.8281 Q957.4344,560.625 957.575,560.5625 Q957.7156,560.5 957.8875,560.5 Q958.2156,560.5 958.45,560.7656 Q958.7,561.0156 958.7,561.375 Q958.7,561.7188 958.3563,562.125 Q957.8563,562.7188 957.0594,563.0469 Q956.0125,563.5 954.7313,563.5 Q953.2313,563.5 952.0281,562.9063 Q951.0594,562.4375 950.3719,561.4219 Q949.7,560.4063 949.7,559.2031 L949.7,558.1094 Q949.7,556.8594 950.2938,555.7656 Q950.9031,554.6719 951.95,554.0938 Q953.0125,553.5 954.2,553.5 Q954.9188,553.5 955.5438,553.75 Q956.1688,554 956.7,554.5 Z "/><text fill="#000000" font-family="sans-serif" font-size="12" lengthAdjust="spacingAndGlyphs" textLength="109" x="974.3" y="562.9102">ScooterRegistration</text><line style="stroke: #A80036; stroke-width: 1.5;" x1="915.5" x2="1110.5" y1="574" y2="574"/><line style="stroke: #A80036; stroke-width: 1.5;" x1="915.5" x2="1110.5" y1="582" y2="582"/><text fill="#000000" font-family="sans-serif" font-size="11" lengthAdjust="spacingAndGlyphs" textLength="185" x="920.5" y="597.4189">+getScooterInformationFromDB(scoot)</text><text fill="#000000" font-family="sans-serif" font-size="11" lengthAdjust="spacingAndGlyphs" textLength="83" x="920.5" y="611.2549">+getConnection()</text><!--MD5=[4b2d61224b33971326a22fe5d809d926]
class DataHandler--><rect fill="#FEFECE" filter="url(#f13udl4mh74xuu)" height="75.6719" id="DataHandler" style="stroke: #A80036; stroke-width: 1.5;" width="104" x="1192" y="359"/><ellipse cx="1207.9" cy="375" fill="#ADD1B2" rx="11" ry="11" style="stroke: #A80036; stroke-width: 1.0;"/><path d="M1209.9,371.5 Q1210.1031,371 1210.3375,370.75 Q1210.5719,370.5 1210.8375,370.5 Q1211.3063,370.5 1211.6031,370.7813 Q1211.9,371.0625 1211.9,371.7188 L1211.9,373.2813 Q1211.9,373.9375 1211.6188,374.2188 Q1211.3375,374.5 1210.9,374.5 Q1210.5094,374.5 1210.2594,374.3281 Q1210.0094,374.1563 1209.9,373.7031 Q1209.8531,373.3906 1209.6813,373.2188 Q1209.3688,372.8906 1208.8063,372.7031 Q1208.2438,372.5 1207.6813,372.5 Q1206.9781,372.5 1206.3844,372.7813 Q1205.8063,373.0625 1205.3531,373.6875 Q1204.9,374.3125 1204.9,375.1719 L1204.9,376.0938 Q1204.9,377.125 1205.7438,377.8125 Q1206.5875,378.5 1208.0875,378.5 Q1208.9781,378.5 1209.6031,378.2969 Q1209.9625,378.1875 1210.3688,377.8281 Q1210.6344,377.625 1210.775,377.5625 Q1210.9156,377.5 1211.0875,377.5 Q1211.4156,377.5 1211.65,377.7656 Q1211.9,378.0156 1211.9,378.375 Q1211.9,378.7188 1211.5563,379.125 Q1211.0563,379.7188 1210.2594,380.0469 Q1209.2125,380.5 1207.9313,380.5 Q1206.4313,380.5 1205.2281,379.9063 Q1204.2594,379.4375 1203.5719,378.4219 Q1202.9,377.4063 1202.9,376.2031 L1202.9,375.1094 Q1202.9,373.8594 1203.4938,372.7656 Q1204.1031,371.6719 1205.15,371.0938 Q1206.2125,370.5 1207.4,370.5 Q1208.1188,370.5 1208.7438,370.75 Q1209.3688,371 1209.9,371.5 Z "/><text fill="#000000" font-family="sans-serif" font-size="12" lengthAdjust="spacingAndGlyphs" textLength="70" x="1222.1" y="379.9102">DataHandler</text><line style="stroke: #A80036; stroke-width: 1.5;" x1="1193" x2="1295" y1="391" y2="391"/><line style="stroke: #A80036; stroke-width: 1.5;" x1="1193" x2="1295" y1="399" y2="399"/><text fill="#000000" font-family="sans-serif" font-size="11" lengthAdjust="spacingAndGlyphs" textLength="92" x="1198" y="414.4189">+openConnection()</text><text fill="#000000" font-family="sans-serif" font-size="11" lengthAdjust="spacingAndGlyphs" textLength="52" x="1198" y="428.2549">+closeAll()</text><!--MD5=[88cdc1ff0babf321196dd88b9a70f9c4]
reverse link DataHandler to PharmacyRegistration--><path d="M1179.42,445.71 C1170.52,450.808 1161.25,455.427 1152,459 C1045.05,500.313 1001.972,451.894 897,498 C873.334,508.395 850.548,525.796 832.629,541.811 " fill="none" id="DataHandler&lt;-PharmacyRegistration" style="stroke: #A80036; stroke-width: 1.0;"/><polygon fill="none" points="1175.82,439.702,1196.51,435.116,1183.2,451.602,1175.82,439.702" style="stroke: #A80036; stroke-width: 1.0;"/><!--MD5=[527120703de7dfffd3117b230a6ddff3]
reverse link DataHandler to ScooterRegistration--><path d="M1180.77,447.546 C1142.7,477.376 1095.03,514.728 1060.24,541.985 " fill="none" id="DataHandler&lt;-ScooterRegistration" style="stroke: #A80036; stroke-width: 1.0;"/><polygon fill="none" points="1176.64,441.89,1196.7,435.065,1185.27,452.91,1176.64,441.89" style="stroke: #A80036; stroke-width: 1.0;"/><!--MD5=[068c19e9ee2b8d6f5118254dd44da898]
link UpdateScooterUI to UpdateScooterController--><path d="M221,108.297 C221,129.686 221,161.895 221,187.806 " fill="none" id="UpdateScooterUI-&gt;UpdateScooterController" style="stroke: #A80036; stroke-width: 1.0; stroke-dasharray: 7.0,7.0;"/><polygon fill="#A80036" points="221,192.899,225,183.899,221,187.899,217,183.899,221,192.899" style="stroke: #A80036; stroke-width: 1.0;"/><!--MD5=[f3f1f35345fb8725b15e625f567a1711]
link UpdateScooterController to Platform--><path d="M276.288,269.009 C316.323,295.808 370.229,331.892 410.347,358.747 " fill="none" id="UpdateScooterController-&gt;Platform" style="stroke: #A80036; stroke-width: 1.0; stroke-dasharray: 7.0,7.0;"/><polygon fill="#A80036" points="414.676,361.644,409.4228,353.3131,410.5213,358.8623,404.9721,359.9607,414.676,361.644" style="stroke: #A80036; stroke-width: 1.0;"/><!--MD5=[871f2fb6842f01c8edb6904d247d3c77]
link UpdateScooterController to ApplicationPOT--><path d="M192.636,269.214 C173.217,294.691 147.458,328.487 127.418,354.78 " fill="none" id="UpdateScooterController-&gt;ApplicationPOT" style="stroke: #A80036; stroke-width: 1.0; stroke-dasharray: 7.0,7.0;"/><polygon fill="#A80036" points="124.252,358.933,132.888,354.198,127.2821,354.9557,126.5244,349.3499,124.252,358.933" style="stroke: #A80036; stroke-width: 1.0;"/><!--MD5=[996c2da959792bedde9a6294472023de]
link UpdateScooterController to UserSession--><path d="M226.9,269.214 C231.24,296.591 237.104,333.576 241.377,360.532 " fill="none" id="UpdateScooterController-&gt;UserSession" style="stroke: #A80036; stroke-width: 1.0; stroke-dasharray: 7.0,7.0;"/><polygon fill="#A80036" points="242.21,365.784,244.7516,356.2687,241.4272,360.8457,236.8503,357.5212,242.21,365.784" style="stroke: #A80036; stroke-width: 1.0;"/><!--MD5=[f94ed16b1d761a53d4eba61183b6d758]
link Platform to PharmacyRegistration--><path d="M517.442,413.176 C568.488,429.576 647.742,458.731 709,498 C726.618,509.294 743.93,524.35 758.413,538.416 " fill="none" id="Platform-&gt;PharmacyRegistration" style="stroke: #A80036; stroke-width: 1.0;"/><polygon fill="#A80036" points="762.033,541.968,758.4122,532.8089,758.4648,538.4655,752.8082,538.518,762.033,541.968" style="stroke: #A80036; stroke-width: 1.0;"/><text fill="#000000" font-family="sans-serif" font-size="13" lengthAdjust="spacingAndGlyphs" textLength="21" x="691" y="486.4951">has</text><text fill="#000000" font-family="sans-serif" font-size="13" lengthAdjust="spacingAndGlyphs" textLength="7" x="525.1682" y="411.8802">1</text><text fill="#000000" font-family="sans-serif" font-size="13" lengthAdjust="spacingAndGlyphs" textLength="7" x="748.125" y="531.0386">1</text><!--MD5=[10d7a1607bc161c4e7d004457651c20f]
link ScooterRegistration to Scooter--><path d="M949.602,618.01 C932.877,626.746 914.581,635.42 897,642 C786.648,683.303 748.586,659.706 639,703 C634.411,704.813 629.79,706.759 625.164,708.811 " fill="none" id="ScooterRegistration-&gt;Scooter" style="stroke: #A80036; stroke-width: 1.0;"/><polygon fill="#A80036" points="620.538,710.896,630.3867,710.8426,625.096,708.8406,627.098,703.5498,620.538,710.896" style="stroke: #A80036; stroke-width: 1.0;"/><text fill="#000000" font-family="sans-serif" font-size="13" lengthAdjust="spacingAndGlyphs" textLength="53" x="855" y="669.4951">manages</text><text fill="#000000" font-family="sans-serif" font-size="13" lengthAdjust="spacingAndGlyphs" textLength="7" x="931.522" y="639.1818">1</text><text fill="#000000" font-family="sans-serif" font-size="13" lengthAdjust="spacingAndGlyphs" textLength="5" x="628.6702" y="703.065">*</text><!--MD5=[4a07f137c208f82f57837154e1cfa51e]
link Platform to Pharmacy--><path d="M499.514,442.278 C520.823,470.431 548.307,506.741 569.595,534.866 " fill="none" id="Platform-Pharmacy" style="stroke: #A80036; stroke-width: 1.0;"/><text fill="#000000" font-family="sans-serif" font-size="13" lengthAdjust="spacingAndGlyphs" textLength="82" x="536" y="486.4951">has registered</text><polygon fill="#000000" points="572.5,495.3516,575.5,501.3516,578.5,495.3516,572.5,495.3516" style="stroke: #000000; stroke-width: 1.0;"/><text fill="#000000" font-family="sans-serif" font-size="13" lengthAdjust="spacingAndGlyphs" textLength="7" x="496.5471" y="462.989">1</text><text fill="#000000" font-family="sans-serif" font-size="13" lengthAdjust="spacingAndGlyphs" textLength="5" x="559.097" y="524.2896">*</text><!--MD5=[423ba1e9b983bd24d1236c4cf89ceca7]
link Platform to Scooter--><path d="M436.506,442.405 C427.048,459.113 417.788,478.741 413,498 C397.558,560.109 395.071,580.563 413,642 C419.116,662.959 429.445,683.768 440.946,702.67 " fill="none" id="Platform-Scooter" style="stroke: #A80036; stroke-width: 1.0;"/><text fill="#000000" font-family="sans-serif" font-size="13" lengthAdjust="spacingAndGlyphs" textLength="82" x="414" y="585.4951">has registered</text><polygon fill="#000000" points="450.5,594.3516,453.5,600.3516,456.5,594.3516,450.5,594.3516" style="stroke: #000000; stroke-width: 1.0;"/><text fill="#000000" font-family="sans-serif" font-size="13" lengthAdjust="spacingAndGlyphs" textLength="7" x="425.0724" y="463.1331">1</text><text fill="#000000" font-family="sans-serif" font-size="13" lengthAdjust="spacingAndGlyphs" textLength="5" x="430.0871" y="692.0989">*</text><!--MD5=[cf4f95b832970cfa6e3a3c87e0aa2b32]
link Pharmacy to Scooter--><path d="M580.835,625.001 C569.338,647.825 554.943,676.401 541.611,702.866 " fill="none" id="Pharmacy-Scooter" style="stroke: #A80036; stroke-width: 1.0;"/><text fill="#000000" font-family="sans-serif" font-size="13" lengthAdjust="spacingAndGlyphs" textLength="21" x="566" y="669.4951">has</text><polygon fill="#000000" points="572,678.3516,575,684.3516,578,678.3516,572,678.3516" style="stroke: #000000; stroke-width: 1.0;"/><text fill="#000000" font-family="sans-serif" font-size="13" lengthAdjust="spacingAndGlyphs" textLength="7" x="570.2259" y="646.0087">1</text><text fill="#000000" font-family="sans-serif" font-size="13" lengthAdjust="spacingAndGlyphs" textLength="5" x="540.1481" y="692.0401">*</text><!--MD5=[89baec1bfb4a213750f7c61516e0a0f1]
link Pharmacy to Address--><path d="M626.262,625.001 C639.365,649.785 656.053,681.35 671.005,709.631 " fill="none" id="Pharmacy-Address" style="stroke: #A80036; stroke-width: 1.0;"/><text fill="#000000" font-family="sans-serif" font-size="13" lengthAdjust="spacingAndGlyphs" textLength="21" x="650" y="669.4951">has</text><polygon fill="#000000" points="656,678.3516,659,684.3516,662,678.3516,656,678.3516" style="stroke: #000000; stroke-width: 1.0;"/><text fill="#000000" font-family="sans-serif" font-size="13" lengthAdjust="spacingAndGlyphs" textLength="7" x="622.041" y="646.0087">1</text><text fill="#000000" font-family="sans-serif" font-size="13" lengthAdjust="spacingAndGlyphs" textLength="7" x="659.9203" y="699.1902">1</text><!--MD5=[d108632c2b9f19478bf7c8e0e973ac62]
@startuml
skinparam classAttributeIconSize 0

package "UI" #DDDDDD {
class UpdateScooterUI{

}
}


package "Controller" #DDDDDD {
class UpdateScooterController{
    +showScootersList(pharmacy)
    +getScootersImformatio(scoot)
}

class ApplicationPOT
{
  +static getInstance()
  +getPlatform()
}

class UserSession
{
  +getCurrentSession()
}
}


package "Model" #DDDDDD {
class Platform {
  -String designation
  +gePharmReg()
  +getScootReg()
}
package "Registration" #DDDDDD {
 class PharmacyRegistration{
     +getPharmacyById(pharmacyId)
     +getConnection()
 }

 class ScooterRegistration{
     +getScooterInformationFromDB(scoot)
     +getConnection()
  }
 }
}

package "Model" #DDDDDD {
class Scooter{
  -int id
  -int batteryPerc
  -int charginStatus
  -int potency
  -int weight
  -int batteryCapacity
  +Scooter(batteryPerc, charginStatus, potency,\n weight, batteryCapacity)
}

class Address{
  -float longitude
  -float latitude
  -String doorNumber
  -String streetName
  -String postalCode
  -String locality
  -String country
}

class Pharmacy {
  -int id
  -String name
  +getScootersList(pharmacy)
}

}


package "Data" #DDDDDD {
class DataHandler{
    +openConnection()
    +closeAll()
}
}

class PharmacyRegistration extends DataHandler
class ScooterRegistration extends DataHandler

UpdateScooterUI ..> UpdateScooterController
UpdateScooterController ..> Platform
UpdateScooterController ..> ApplicationPOT
UpdateScooterController ..> UserSession
Platform "1" - -> "1" PharmacyRegistration : has
ScooterRegistration "1" - -> "*" Scooter : manages

Platform "1" - - "*" Pharmacy : has registered >
Platform "1" - - "*" Scooter : has registered >

Pharmacy "1" - - "*" Scooter : has >
Pharmacy "1" - - "1" Address : has >

@enduml

PlantUML version 1.2020.09(Sun May 10 11:51:06 BST 2020)
(GPL source distribution)
Java Runtime: OpenJDK Runtime Environment
JVM: OpenJDK 64-Bit Server VM
Java Version: 11.0.6+8-b765.40
Operating System: Windows 10
Default Encoding: Cp1252
Language: pt
Country: PT
--></g></svg>