<?xml version="1.0" encoding="UTF-8" standalone="no"?><svg xmlns="http://www.w3.org/2000/svg" xmlns:xlink="http://www.w3.org/1999/xlink" contentScriptType="application/ecmascript" contentStyleType="text/css" height="473px" preserveAspectRatio="none" style="width:804px;height:473px;" version="1.1" viewBox="0 0 804 473" width="804px" zoomAndPan="magnify"><defs><filter height="300%" id="fewvjzopn10oz" width="300%" x="-1" y="-1"><feGaussianBlur result="blurOut" stdDeviation="2.0"/><feColorMatrix in="blurOut" result="blurOut2" type="matrix" values="0 0 0 0 0 0 0 0 0 0 0 0 0 0 0 0 0 0 .4 0"/><feOffset dx="4.0" dy="4.0" in="blurOut2" result="blurOut3"/><feBlend in="SourceGraphic" in2="blurOut3" mode="normal"/></filter></defs><g><!--MD5=[fa1e3283224feb76407c84b7e90ed808]
entity Database--><path d="M6,230.5 C6,220.5 46.5,220.5 46.5,220.5 C46.5,220.5 87,220.5 87,230.5 L87,257.1094 C87,267.1094 46.5,267.1094 46.5,267.1094 C46.5,267.1094 6,267.1094 6,257.1094 L6,230.5 " fill="#FFFFFF" filter="url(#fewvjzopn10oz)" style="stroke: #000000; stroke-width: 1.5;"/><path d="M6,230.5 C6,240.5 46.5,240.5 46.5,240.5 C46.5,240.5 87,240.5 87,230.5 " fill="none" style="stroke: #000000; stroke-width: 1.5;"/><text fill="#000000" font-family="sans-serif" font-size="14" lengthAdjust="spacingAndGlyphs" textLength="61" x="16" y="259.0332">Database</text><!--MD5=[ed6624c6556d5e7b1bd23032162d20b7]
class Client--><rect fill="#FEFECE" filter="url(#fewvjzopn10oz)" height="95.3438" id="Client" style="stroke: #A80036; stroke-width: 1.5;" width="126" x="244" y="128.5"/><ellipse cx="286.9" cy="144.5" fill="#ADD1B2" rx="11" ry="11" style="stroke: #A80036; stroke-width: 1.0;"/><path d="M288.9,141 Q289.1031,140.5 289.3375,140.25 Q289.5719,140 289.8375,140 Q290.3063,140 290.6031,140.2813 Q290.9,140.5625 290.9,141.2188 L290.9,142.7813 Q290.9,143.4375 290.6188,143.7188 Q290.3375,144 289.9,144 Q289.5094,144 289.2594,143.8281 Q289.0094,143.6563 288.9,143.2031 Q288.8531,142.8906 288.6813,142.7188 Q288.3688,142.3906 287.8063,142.2031 Q287.2438,142 286.6813,142 Q285.9781,142 285.3844,142.2813 Q284.8063,142.5625 284.3531,143.1875 Q283.9,143.8125 283.9,144.6719 L283.9,145.5938 Q283.9,146.625 284.7438,147.3125 Q285.5875,148 287.0875,148 Q287.9781,148 288.6031,147.7969 Q288.9625,147.6875 289.3688,147.3281 Q289.6344,147.125 289.775,147.0625 Q289.9156,147 290.0875,147 Q290.4156,147 290.65,147.2656 Q290.9,147.5156 290.9,147.875 Q290.9,148.2188 290.5563,148.625 Q290.0563,149.2188 289.2594,149.5469 Q288.2125,150 286.9313,150 Q285.4313,150 284.2281,149.4063 Q283.2594,148.9375 282.5719,147.9219 Q281.9,146.9063 281.9,145.7031 L281.9,144.6094 Q281.9,143.3594 282.4938,142.2656 Q283.1031,141.1719 284.15,140.5938 Q285.2125,140 286.4,140 Q287.1188,140 287.7438,140.25 Q288.3688,140.5 288.9,141 Z "/><text fill="#000000" font-family="sans-serif" font-size="12" lengthAdjust="spacingAndGlyphs" textLength="32" x="307.1" y="149.4102">Client</text><line style="stroke: #A80036; stroke-width: 1.5;" x1="245" x2="369" y1="160.5" y2="160.5"/><text fill="#000000" font-family="sans-serif" font-size="11" lengthAdjust="spacingAndGlyphs" textLength="42" x="250" y="175.9189">-int IBAN</text><text fill="#000000" font-family="sans-serif" font-size="11" lengthAdjust="spacingAndGlyphs" textLength="114" x="250" y="189.7549">-long creditCardNumber</text><text fill="#000000" font-family="sans-serif" font-size="11" lengthAdjust="spacingAndGlyphs" textLength="73" x="250" y="203.5908">-int validityDate</text><text fill="#000000" font-family="sans-serif" font-size="11" lengthAdjust="spacingAndGlyphs" textLength="40" x="250" y="217.4268">-int CCV</text><!--MD5=[3fd616f346a44cd59a91eb10b19e157c]
class User--><rect fill="#FEFECE" filter="url(#fewvjzopn10oz)" height="95.3438" id="User" style="stroke: #A80036; stroke-width: 1.5;" width="97" x="491" y="8.5"/><ellipse cx="523.1" cy="24.5" fill="#ADD1B2" rx="11" ry="11" style="stroke: #A80036; stroke-width: 1.0;"/><path d="M525.1,21 Q525.3031,20.5 525.5375,20.25 Q525.7719,20 526.0375,20 Q526.5063,20 526.8031,20.2813 Q527.1,20.5625 527.1,21.2188 L527.1,22.7813 Q527.1,23.4375 526.8188,23.7188 Q526.5375,24 526.1,24 Q525.7094,24 525.4594,23.8281 Q525.2094,23.6563 525.1,23.2031 Q525.0531,22.8906 524.8813,22.7188 Q524.5688,22.3906 524.0063,22.2031 Q523.4438,22 522.8813,22 Q522.1781,22 521.5844,22.2813 Q521.0063,22.5625 520.5531,23.1875 Q520.1,23.8125 520.1,24.6719 L520.1,25.5938 Q520.1,26.625 520.9438,27.3125 Q521.7875,28 523.2875,28 Q524.1781,28 524.8031,27.7969 Q525.1625,27.6875 525.5688,27.3281 Q525.8344,27.125 525.975,27.0625 Q526.1156,27 526.2875,27 Q526.6156,27 526.85,27.2656 Q527.1,27.5156 527.1,27.875 Q527.1,28.2188 526.7563,28.625 Q526.2563,29.2188 525.4594,29.5469 Q524.4125,30 523.1313,30 Q521.6313,30 520.4281,29.4063 Q519.4594,28.9375 518.7719,27.9219 Q518.1,26.9063 518.1,25.7031 L518.1,24.6094 Q518.1,23.3594 518.6938,22.2656 Q519.3031,21.1719 520.35,20.5938 Q521.4125,20 522.6,20 Q523.3188,20 523.9438,20.25 Q524.5688,20.5 525.1,21 Z "/><text fill="#000000" font-family="sans-serif" font-size="12" lengthAdjust="spacingAndGlyphs" textLength="27" x="540.9" y="29.4102">User</text><line style="stroke: #A80036; stroke-width: 1.5;" x1="492" x2="587" y1="40.5" y2="40.5"/><text fill="#000000" font-family="sans-serif" font-size="11" lengthAdjust="spacingAndGlyphs" textLength="61" x="497" y="55.9189">-String name</text><text fill="#000000" font-family="sans-serif" font-size="11" lengthAdjust="spacingAndGlyphs" textLength="59" x="497" y="69.7549">-String email</text><text fill="#000000" font-family="sans-serif" font-size="11" lengthAdjust="spacingAndGlyphs" textLength="85" x="497" y="83.5908">-String password</text><text fill="#000000" font-family="sans-serif" font-size="11" lengthAdjust="spacingAndGlyphs" textLength="52" x="497" y="97.4268">-Integer nif</text><!--MD5=[0f39e4cb6f03951afbf6d14bd2505654]
class Address--><rect fill="#FEFECE" filter="url(#fewvjzopn10oz)" height="136.8516" id="Address" style="stroke: #A80036; stroke-width: 1.5;" width="106" x="687" y="78.5"/><ellipse cx="714.6" cy="94.5" fill="#ADD1B2" rx="11" ry="11" style="stroke: #A80036; stroke-width: 1.0;"/><path d="M716.6,91 Q716.8031,90.5 717.0375,90.25 Q717.2719,90 717.5375,90 Q718.0063,90 718.3031,90.2813 Q718.6,90.5625 718.6,91.2188 L718.6,92.7813 Q718.6,93.4375 718.3188,93.7188 Q718.0375,94 717.6,94 Q717.2094,94 716.9594,93.8281 Q716.7094,93.6563 716.6,93.2031 Q716.5531,92.8906 716.3813,92.7188 Q716.0688,92.3906 715.5063,92.2031 Q714.9438,92 714.3813,92 Q713.6781,92 713.0844,92.2813 Q712.5063,92.5625 712.0531,93.1875 Q711.6,93.8125 711.6,94.6719 L711.6,95.5938 Q711.6,96.625 712.4438,97.3125 Q713.2875,98 714.7875,98 Q715.6781,98 716.3031,97.7969 Q716.6625,97.6875 717.0688,97.3281 Q717.3344,97.125 717.475,97.0625 Q717.6156,97 717.7875,97 Q718.1156,97 718.35,97.2656 Q718.6,97.5156 718.6,97.875 Q718.6,98.2188 718.2563,98.625 Q717.7563,99.2188 716.9594,99.5469 Q715.9125,100 714.6313,100 Q713.1313,100 711.9281,99.4063 Q710.9594,98.9375 710.2719,97.9219 Q709.6,96.9063 709.6,95.7031 L709.6,94.6094 Q709.6,93.3594 710.1938,92.2656 Q710.8031,91.1719 711.85,90.5938 Q712.9125,90 714.1,90 Q714.8188,90 715.4438,90.25 Q716.0688,90.5 716.6,91 Z "/><text fill="#000000" font-family="sans-serif" font-size="12" lengthAdjust="spacingAndGlyphs" textLength="46" x="731.4" y="99.4102">Address</text><line style="stroke: #A80036; stroke-width: 1.5;" x1="688" x2="792" y1="110.5" y2="110.5"/><text fill="#000000" font-family="sans-serif" font-size="11" lengthAdjust="spacingAndGlyphs" textLength="90" x="693" y="125.9189">-String streetName</text><text fill="#000000" font-family="sans-serif" font-size="11" lengthAdjust="spacingAndGlyphs" textLength="94" x="693" y="139.7549">-String doorNumber</text><text fill="#000000" font-family="sans-serif" font-size="11" lengthAdjust="spacingAndGlyphs" textLength="89" x="693" y="153.5908">-String postalCode</text><text fill="#000000" font-family="sans-serif" font-size="11" lengthAdjust="spacingAndGlyphs" textLength="68" x="693" y="167.4268">-String locality</text><text fill="#000000" font-family="sans-serif" font-size="11" lengthAdjust="spacingAndGlyphs" textLength="72" x="693" y="181.2627">-String country</text><text fill="#000000" font-family="sans-serif" font-size="11" lengthAdjust="spacingAndGlyphs" textLength="71" x="693" y="195.0986">-float longitude</text><text fill="#000000" font-family="sans-serif" font-size="11" lengthAdjust="spacingAndGlyphs" textLength="62" x="693" y="208.9346">-float latitude</text><!--MD5=[cf4d6237fcae255cd2e1656cf84a30e2]
class Order--><rect fill="#FEFECE" filter="url(#fewvjzopn10oz)" height="136.8516" id="Order" style="stroke: #A80036; stroke-width: 1.5;" width="103" x="488" y="227.5"/><ellipse cx="521" cy="243.5" fill="#ADD1B2" rx="11" ry="11" style="stroke: #A80036; stroke-width: 1.0;"/><path d="M523,240 Q523.2031,239.5 523.4375,239.25 Q523.6719,239 523.9375,239 Q524.4063,239 524.7031,239.2813 Q525,239.5625 525,240.2188 L525,241.7813 Q525,242.4375 524.7188,242.7188 Q524.4375,243 524,243 Q523.6094,243 523.3594,242.8281 Q523.1094,242.6563 523,242.2031 Q522.9531,241.8906 522.7813,241.7188 Q522.4688,241.3906 521.9063,241.2031 Q521.3438,241 520.7813,241 Q520.0781,241 519.4844,241.2813 Q518.9063,241.5625 518.4531,242.1875 Q518,242.8125 518,243.6719 L518,244.5938 Q518,245.625 518.8438,246.3125 Q519.6875,247 521.1875,247 Q522.0781,247 522.7031,246.7969 Q523.0625,246.6875 523.4688,246.3281 Q523.7344,246.125 523.875,246.0625 Q524.0156,246 524.1875,246 Q524.5156,246 524.75,246.2656 Q525,246.5156 525,246.875 Q525,247.2188 524.6563,247.625 Q524.1563,248.2188 523.3594,248.5469 Q522.3125,249 521.0313,249 Q519.5313,249 518.3281,248.4063 Q517.3594,247.9375 516.6719,246.9219 Q516,245.9063 516,244.7031 L516,243.6094 Q516,242.3594 516.5938,241.2656 Q517.2031,240.1719 518.25,239.5938 Q519.3125,239 520.5,239 Q521.2188,239 521.8438,239.25 Q522.4688,239.5 523,240 Z "/><text fill="#000000" font-family="sans-serif" font-size="12" lengthAdjust="spacingAndGlyphs" textLength="31" x="539" y="248.4102">Order</text><line style="stroke: #A80036; stroke-width: 1.5;" x1="489" x2="590" y1="259.5" y2="259.5"/><text fill="#000000" font-family="sans-serif" font-size="11" lengthAdjust="spacingAndGlyphs" textLength="26" x="494" y="274.9189">-int id</text><text fill="#000000" font-family="sans-serif" font-size="11" lengthAdjust="spacingAndGlyphs" textLength="63" x="494" y="288.7549">-float amount</text><text fill="#000000" font-family="sans-serif" font-size="11" lengthAdjust="spacingAndGlyphs" textLength="81" x="494" y="302.5908">-float totalWeight</text><text fill="#000000" font-family="sans-serif" font-size="11" lengthAdjust="spacingAndGlyphs" textLength="91" x="494" y="316.4268">-float additionalFee</text><text fill="#000000" font-family="sans-serif" font-size="11" lengthAdjust="spacingAndGlyphs" textLength="77" x="494" y="330.2627">-Date orderDate</text><text fill="#000000" font-family="sans-serif" font-size="11" lengthAdjust="spacingAndGlyphs" textLength="88" x="494" y="344.0986">-String description</text><text fill="#000000" font-family="sans-serif" font-size="11" lengthAdjust="spacingAndGlyphs" textLength="65" x="494" y="357.9346">-String status</text><!--MD5=[72136138052d025cffdce3c22fbd185f]
class Product--><rect fill="#FEFECE" filter="url(#fewvjzopn10oz)" height="109.1797" id="Product" style="stroke: #A80036; stroke-width: 1.5;" width="106" x="687" y="250.5"/><ellipse cx="716.4" cy="266.5" fill="#ADD1B2" rx="11" ry="11" style="stroke: #A80036; stroke-width: 1.0;"/><path d="M718.4,263 Q718.6031,262.5 718.8375,262.25 Q719.0719,262 719.3375,262 Q719.8063,262 720.1031,262.2813 Q720.4,262.5625 720.4,263.2188 L720.4,264.7813 Q720.4,265.4375 720.1188,265.7188 Q719.8375,266 719.4,266 Q719.0094,266 718.7594,265.8281 Q718.5094,265.6563 718.4,265.2031 Q718.3531,264.8906 718.1813,264.7188 Q717.8688,264.3906 717.3063,264.2031 Q716.7438,264 716.1813,264 Q715.4781,264 714.8844,264.2813 Q714.3063,264.5625 713.8531,265.1875 Q713.4,265.8125 713.4,266.6719 L713.4,267.5938 Q713.4,268.625 714.2438,269.3125 Q715.0875,270 716.5875,270 Q717.4781,270 718.1031,269.7969 Q718.4625,269.6875 718.8688,269.3281 Q719.1344,269.125 719.275,269.0625 Q719.4156,269 719.5875,269 Q719.9156,269 720.15,269.2656 Q720.4,269.5156 720.4,269.875 Q720.4,270.2188 720.0563,270.625 Q719.5563,271.2188 718.7594,271.5469 Q717.7125,272 716.4313,272 Q714.9313,272 713.7281,271.4063 Q712.7594,270.9375 712.0719,269.9219 Q711.4,268.9063 711.4,267.7031 L711.4,266.6094 Q711.4,265.3594 711.9938,264.2656 Q712.6031,263.1719 713.65,262.5938 Q714.7125,262 715.9,262 Q716.6188,262 717.2438,262.25 Q717.8688,262.5 718.4,263 Z "/><text fill="#000000" font-family="sans-serif" font-size="12" lengthAdjust="spacingAndGlyphs" textLength="42" x="733.6" y="271.4102">Product</text><line style="stroke: #A80036; stroke-width: 1.5;" x1="688" x2="792" y1="282.5" y2="282.5"/><text fill="#000000" font-family="sans-serif" font-size="11" lengthAdjust="spacingAndGlyphs" textLength="26" x="693" y="297.9189">-int id</text><text fill="#000000" font-family="sans-serif" font-size="11" lengthAdjust="spacingAndGlyphs" textLength="61" x="693" y="311.7549">-String name</text><text fill="#000000" font-family="sans-serif" font-size="11" lengthAdjust="spacingAndGlyphs" textLength="88" x="693" y="325.5908">-String description</text><text fill="#000000" font-family="sans-serif" font-size="11" lengthAdjust="spacingAndGlyphs" textLength="85" x="693" y="339.4268">-float unitaryPrice</text><text fill="#000000" font-family="sans-serif" font-size="11" lengthAdjust="spacingAndGlyphs" textLength="94" x="693" y="353.2627">-float unitaryWeight</text><!--MD5=[7f2a9fafcebe4f099f71398fd3e2ed00]
class Pharmacy--><rect fill="#FEFECE" filter="url(#fewvjzopn10oz)" height="67.6719" id="Pharmacy" style="stroke: #A80036; stroke-width: 1.5;" width="87" x="696.5" y="395"/><ellipse cx="711.5" cy="411" fill="#ADD1B2" rx="11" ry="11" style="stroke: #A80036; stroke-width: 1.0;"/><path d="M713.5,407.5 Q713.7031,407 713.9375,406.75 Q714.1719,406.5 714.4375,406.5 Q714.9063,406.5 715.2031,406.7813 Q715.5,407.0625 715.5,407.7188 L715.5,409.2813 Q715.5,409.9375 715.2188,410.2188 Q714.9375,410.5 714.5,410.5 Q714.1094,410.5 713.8594,410.3281 Q713.6094,410.1563 713.5,409.7031 Q713.4531,409.3906 713.2813,409.2188 Q712.9688,408.8906 712.4063,408.7031 Q711.8438,408.5 711.2813,408.5 Q710.5781,408.5 709.9844,408.7813 Q709.4063,409.0625 708.9531,409.6875 Q708.5,410.3125 708.5,411.1719 L708.5,412.0938 Q708.5,413.125 709.3438,413.8125 Q710.1875,414.5 711.6875,414.5 Q712.5781,414.5 713.2031,414.2969 Q713.5625,414.1875 713.9688,413.8281 Q714.2344,413.625 714.375,413.5625 Q714.5156,413.5 714.6875,413.5 Q715.0156,413.5 715.25,413.7656 Q715.5,414.0156 715.5,414.375 Q715.5,414.7188 715.1563,415.125 Q714.6563,415.7188 713.8594,416.0469 Q712.8125,416.5 711.5313,416.5 Q710.0313,416.5 708.8281,415.9063 Q707.8594,415.4375 707.1719,414.4219 Q706.5,413.4063 706.5,412.2031 L706.5,411.1094 Q706.5,409.8594 707.0938,408.7656 Q707.7031,407.6719 708.75,407.0938 Q709.8125,406.5 711,406.5 Q711.7188,406.5 712.3438,406.75 Q712.9688,407 713.5,407.5 Z "/><text fill="#000000" font-family="sans-serif" font-size="12" lengthAdjust="spacingAndGlyphs" textLength="55" x="725.5" y="415.9102">Pharmacy</text><line style="stroke: #A80036; stroke-width: 1.5;" x1="697.5" x2="782.5" y1="427" y2="427"/><text fill="#000000" font-family="sans-serif" font-size="11" lengthAdjust="spacingAndGlyphs" textLength="26" x="702.5" y="442.4189">-int id</text><text fill="#000000" font-family="sans-serif" font-size="11" lengthAdjust="spacingAndGlyphs" textLength="61" x="702.5" y="456.2549">-String name</text><!--MD5=[ac0c33dc67b04049a5a44d8fea0f9b6c]
link Database to Client--><path d="M87.042,233.598 C128.765,222.623 195.097,205.174 243.829,192.354 " fill="none" id="Database-Client" style="stroke: #A80036; stroke-width: 1.0;"/><text fill="#000000" font-family="sans-serif" font-size="13" lengthAdjust="spacingAndGlyphs" textLength="82" x="118" y="197.4951">has registered</text><polygon fill="#000000" points="203,190.6758,209,193.6758,203,196.6758,203,190.6758" style="stroke: #000000; stroke-width: 1.0;"/><text fill="#000000" font-family="sans-serif" font-size="13" lengthAdjust="spacingAndGlyphs" textLength="7" x="94.887" y="227.8814">1</text><text fill="#000000" font-family="sans-serif" font-size="13" lengthAdjust="spacingAndGlyphs" textLength="5" x="230.8253" y="208.8177">*</text><!--MD5=[3105658e3b0e17fcc7b59acd4e6ef463]
link Database to Order--><path d="M87.2647,248.211 C175.96,257.605 389.857,280.258 487.885,290.64 " fill="none" id="Database-Order" style="stroke: #A80036; stroke-width: 1.0;"/><text fill="#000000" font-family="sans-serif" font-size="13" lengthAdjust="spacingAndGlyphs" textLength="82" x="259.5" y="260.4951">has registered</text><polygon fill="#000000" points="344.5,253.6758,350.5,256.6758,344.5,259.6758,344.5,253.6758" style="stroke: #000000; stroke-width: 1.0;"/><text fill="#000000" font-family="sans-serif" font-size="13" lengthAdjust="spacingAndGlyphs" textLength="7" x="94.8727" y="263.8687">1</text><text fill="#000000" font-family="sans-serif" font-size="13" lengthAdjust="spacingAndGlyphs" textLength="5" x="474.9369" y="304.5596">*</text><!--MD5=[5df16df72a49edaa4f00919f1e597f76]
link Order to Product--><path d="M591.104,298.294 C620.394,299.622 657.194,301.291 686.758,302.631 " fill="none" id="Order-Product" style="stroke: #A80036; stroke-width: 1.0;"/><text fill="#000000" font-family="sans-serif" font-size="13" lengthAdjust="spacingAndGlyphs" textLength="21" x="622" y="295.4951">has</text><polygon fill="#000000" points="646,288.6758,652,291.6758,646,294.6758,646,288.6758" style="stroke: #000000; stroke-width: 1.0;"/><text fill="#000000" font-family="sans-serif" font-size="13" lengthAdjust="spacingAndGlyphs" textLength="7" x="598.853" y="313.2719">1</text><text fill="#000000" font-family="sans-serif" font-size="13" lengthAdjust="spacingAndGlyphs" textLength="5" x="673.9193" y="316.9301">*</text><!--MD5=[341c66bf56a9f106d2cc06efe44d7382]
link Order to Pharmacy--><path d="M591.104,329.906 C623.61,351.686 665.366,379.6636 696.216,400.3335 " fill="none" id="Order-Pharmacy" style="stroke: #A80036; stroke-width: 1.0;"/><text fill="#000000" font-family="sans-serif" font-size="13" lengthAdjust="spacingAndGlyphs" textLength="21" x="622" y="346.4951">has</text><polygon fill="#000000" points="646,339.6758,652,342.6758,646,345.6758,646,339.6758" style="stroke: #000000; stroke-width: 1.0;"/><text fill="#000000" font-family="sans-serif" font-size="13" lengthAdjust="spacingAndGlyphs" textLength="7" x="598.853" y="349.3293">1</text><text fill="#000000" font-family="sans-serif" font-size="13" lengthAdjust="spacingAndGlyphs" textLength="5" x="683.5502" y="410.462">*</text><!--MD5=[9a8dc34b38f85b9f3fcdb440f4bffc6a]
link Client to User--><path d="M370.073,143.684 C408.075,123.9 455.957,98.972 490.945,80.757 " fill="none" id="Client-User" style="stroke: #A80036; stroke-width: 1.0;"/><text fill="#000000" font-family="sans-serif" font-size="13" lengthAdjust="spacingAndGlyphs" textLength="43" x="401" y="95.4951">acts as</text><polygon fill="#000000" points="447,88.6758,453,91.6758,447,94.6758,447,88.6758" style="stroke: #000000; stroke-width: 1.0;"/><text fill="#000000" font-family="sans-serif" font-size="13" lengthAdjust="spacingAndGlyphs" textLength="22" x="378.1747" y="154.52">0..1</text><text fill="#000000" font-family="sans-serif" font-size="13" lengthAdjust="spacingAndGlyphs" textLength="7" x="475.9741" y="99.2686">1</text><!--MD5=[879bec428a80d843af24dc47845bf14c]
link Client to Order--><path d="M370.073,208.316 C407.008,227.545 453.277,251.632 487.969,269.693 " fill="none" id="Client-Order" style="stroke: #A80036; stroke-width: 1.0;"/><text fill="#000000" font-family="sans-serif" font-size="13" lengthAdjust="spacingAndGlyphs" textLength="39" x="403" y="221.4951">makes</text><polygon fill="#000000" points="445,214.6758,451,217.6758,445,220.6758,445,214.6758" style="stroke: #000000; stroke-width: 1.0;"/><text fill="#000000" font-family="sans-serif" font-size="13" lengthAdjust="spacingAndGlyphs" textLength="7" x="378.1866" y="226.7251">1</text><text fill="#000000" font-family="sans-serif" font-size="13" lengthAdjust="spacingAndGlyphs" textLength="7" x="472.8863" y="280.536">1</text><!--MD5=[bd708f2371c655af07b49ddbdb30848a]
link Client to Address--><path d="M370.211,171.814 C455.533,166.073 607.323,155.86 686.953,150.502 " fill="none" id="Client-Address" style="stroke: #A80036; stroke-width: 1.0;"/><text fill="#000000" font-family="sans-serif" font-size="13" lengthAdjust="spacingAndGlyphs" textLength="21" x="522.5" y="153.4951">has</text><polygon fill="#000000" points="546.5,146.6758,552.5,149.6758,546.5,152.6758,546.5,146.6758" style="stroke: #000000; stroke-width: 1.0;"/><text fill="#000000" font-family="sans-serif" font-size="13" lengthAdjust="spacingAndGlyphs" textLength="7" x="377.9245" y="185.7506">1</text><text fill="#000000" font-family="sans-serif" font-size="13" lengthAdjust="spacingAndGlyphs" textLength="7" x="672.0011" y="165.6497">1</text><!--MD5=[dd2bca8e69277b6dcf04d6bf8fed5dca]
link Order to Address--><path d="M591.104,258.015 C620.394,236.029 657.194,208.406 686.758,186.214 " fill="none" id="Order-Address" style="stroke: #A80036; stroke-width: 1.0;"/><text fill="#000000" font-family="sans-serif" font-size="13" lengthAdjust="spacingAndGlyphs" textLength="21" x="622" y="208.4951">has</text><polygon fill="#000000" points="646,201.6758,652,204.6758,646,207.6758,646,201.6758" style="stroke: #000000; stroke-width: 1.0;"/><text fill="#000000" font-family="sans-serif" font-size="13" lengthAdjust="spacingAndGlyphs" textLength="7" x="598.853" y="267.3286">1</text><text fill="#000000" font-family="sans-serif" font-size="13" lengthAdjust="spacingAndGlyphs" textLength="7" x="672.1333" y="206.0871">1</text><!--MD5=[8e2ea03fbd71235cdfae116a4328bbd0]
@startuml
skinparam classAttributeIconSize 0
hide methods
left to right direction

database Database {
}

class Client{
-   int IBAN
-   long creditCardNumber
-   int validityDate
-   int CCV
}

class User{
-   String name
-   String email
-   String password
-   Integer nif
}

class Address{
-   String streetName
-   String doorNumber
-   String postalCode
-   String locality
-   String country
-   float longitude
-   float latitude
}

class Order{
-   int id
-   float amount
-   float totalWeight
-   float additionalFee
-   Date orderDate
-   String description
-   String status
}

class Product{
-   int id
-   String name
-   String description
-   float unitaryPrice
-   float unitaryWeight
}

class Pharmacy{
-   int id
-   String name
}

Database "1" - - "*" Client : has registered >
Database "1" - - "*" Order : has registered >
Order "1" - - "*" Product : has >
Order "1" - - "*" Pharmacy : has >
Client "0..1" - - "1" User: acts as >
Client "1" - - "1" Order : makes >
Client "1" - - "1" Address : has >
Order "1" - - "1" Address : has >
@enduml

PlantUML version 1.2020.09(Sun May 10 11:51:06 BST 2020)
(GPL source distribution)
Java Runtime: OpenJDK Runtime Environment
JVM: OpenJDK 64-Bit Server VM
Java Version: 11.0.6+8-b520.66
Operating System: Windows 10
Default Encoding: Cp1252
Language: pt
Country: PT
--></g></svg>