<?xml version="1.0" encoding="UTF-8" standalone="no"?><svg xmlns="http://www.w3.org/2000/svg" xmlns:xlink="http://www.w3.org/1999/xlink" contentScriptType="application/ecmascript" contentStyleType="text/css" height="730px" preserveAspectRatio="none" style="width:1327px;height:730px;" version="1.1" viewBox="0 0 1327 730" width="1327px" zoomAndPan="magnify"><defs><filter height="300%" id="f1i35ze863jkpf" width="300%" x="-1" y="-1"><feGaussianBlur result="blurOut" stdDeviation="2.0"/><feColorMatrix in="blurOut" result="blurOut2" type="matrix" values="0 0 0 0 0 0 0 0 0 0 0 0 0 0 0 0 0 0 .4 0"/><feOffset dx="4.0" dy="4.0" in="blurOut2" result="blurOut3"/><feBlend in="SourceGraphic" in2="blurOut3" mode="normal"/></filter></defs><g><!--MD5=[fa1e3283224feb76407c84b7e90ed808]
entity Database--><path d="M6,337 C6,327 46.5,327 46.5,327 C46.5,327 87,327 87,337 L87,363.6094 C87,373.6094 46.5,373.6094 46.5,373.6094 C46.5,373.6094 6,373.6094 6,363.6094 L6,337 " fill="#FFFFFF" filter="url(#f1i35ze863jkpf)" style="stroke: #000000; stroke-width: 1.5;"/><path d="M6,337 C6,347 46.5,347 46.5,347 C46.5,347 87,347 87,337 " fill="none" style="stroke: #000000; stroke-width: 1.5;"/><text fill="#000000" font-family="sans-serif" font-size="14" lengthAdjust="spacingAndGlyphs" textLength="61" x="16" y="365.5332">Database</text><!--MD5=[ed6624c6556d5e7b1bd23032162d20b7]
class Client--><rect fill="#FEFECE" filter="url(#f1i35ze863jkpf)" height="95.3438" id="Client" style="stroke: #A80036; stroke-width: 1.5;" width="126" x="498" y="415"/><ellipse cx="540.9" cy="431" fill="#ADD1B2" rx="11" ry="11" style="stroke: #A80036; stroke-width: 1.0;"/><path d="M542.9,427.5 Q543.1031,427 543.3375,426.75 Q543.5719,426.5 543.8375,426.5 Q544.3063,426.5 544.6031,426.7813 Q544.9,427.0625 544.9,427.7188 L544.9,429.2813 Q544.9,429.9375 544.6188,430.2188 Q544.3375,430.5 543.9,430.5 Q543.5094,430.5 543.2594,430.3281 Q543.0094,430.1563 542.9,429.7031 Q542.8531,429.3906 542.6813,429.2188 Q542.3688,428.8906 541.8063,428.7031 Q541.2438,428.5 540.6813,428.5 Q539.9781,428.5 539.3844,428.7813 Q538.8063,429.0625 538.3531,429.6875 Q537.9,430.3125 537.9,431.1719 L537.9,432.0938 Q537.9,433.125 538.7438,433.8125 Q539.5875,434.5 541.0875,434.5 Q541.9781,434.5 542.6031,434.2969 Q542.9625,434.1875 543.3688,433.8281 Q543.6344,433.625 543.775,433.5625 Q543.9156,433.5 544.0875,433.5 Q544.4156,433.5 544.65,433.7656 Q544.9,434.0156 544.9,434.375 Q544.9,434.7188 544.5563,435.125 Q544.0563,435.7188 543.2594,436.0469 Q542.2125,436.5 540.9313,436.5 Q539.4313,436.5 538.2281,435.9063 Q537.2594,435.4375 536.5719,434.4219 Q535.9,433.4063 535.9,432.2031 L535.9,431.1094 Q535.9,429.8594 536.4938,428.7656 Q537.1031,427.6719 538.15,427.0938 Q539.2125,426.5 540.4,426.5 Q541.1188,426.5 541.7438,426.75 Q542.3688,427 542.9,427.5 Z "/><text fill="#000000" font-family="sans-serif" font-size="12" lengthAdjust="spacingAndGlyphs" textLength="32" x="561.1" y="435.9102">Client</text><line style="stroke: #A80036; stroke-width: 1.5;" x1="499" x2="623" y1="447" y2="447"/><text fill="#000000" font-family="sans-serif" font-size="11" lengthAdjust="spacingAndGlyphs" textLength="42" x="504" y="462.4189">-int IBAN</text><text fill="#000000" font-family="sans-serif" font-size="11" lengthAdjust="spacingAndGlyphs" textLength="114" x="504" y="476.2549">-long creditCardNumber</text><text fill="#000000" font-family="sans-serif" font-size="11" lengthAdjust="spacingAndGlyphs" textLength="73" x="504" y="490.0908">-int validityDate</text><text fill="#000000" font-family="sans-serif" font-size="11" lengthAdjust="spacingAndGlyphs" textLength="40" x="504" y="503.9268">-int CCV</text><!--MD5=[3fd616f346a44cd59a91eb10b19e157c]
class User--><rect fill="#FEFECE" filter="url(#f1i35ze863jkpf)" height="109.1797" id="User" style="stroke: #A80036; stroke-width: 1.5;" width="97" x="798" y="408"/><ellipse cx="830.1" cy="424" fill="#ADD1B2" rx="11" ry="11" style="stroke: #A80036; stroke-width: 1.0;"/><path d="M832.1,420.5 Q832.3031,420 832.5375,419.75 Q832.7719,419.5 833.0375,419.5 Q833.5063,419.5 833.8031,419.7813 Q834.1,420.0625 834.1,420.7188 L834.1,422.2813 Q834.1,422.9375 833.8188,423.2188 Q833.5375,423.5 833.1,423.5 Q832.7094,423.5 832.4594,423.3281 Q832.2094,423.1563 832.1,422.7031 Q832.0531,422.3906 831.8813,422.2188 Q831.5688,421.8906 831.0063,421.7031 Q830.4438,421.5 829.8813,421.5 Q829.1781,421.5 828.5844,421.7813 Q828.0063,422.0625 827.5531,422.6875 Q827.1,423.3125 827.1,424.1719 L827.1,425.0938 Q827.1,426.125 827.9438,426.8125 Q828.7875,427.5 830.2875,427.5 Q831.1781,427.5 831.8031,427.2969 Q832.1625,427.1875 832.5688,426.8281 Q832.8344,426.625 832.975,426.5625 Q833.1156,426.5 833.2875,426.5 Q833.6156,426.5 833.85,426.7656 Q834.1,427.0156 834.1,427.375 Q834.1,427.7188 833.7563,428.125 Q833.2563,428.7188 832.4594,429.0469 Q831.4125,429.5 830.1313,429.5 Q828.6313,429.5 827.4281,428.9063 Q826.4594,428.4375 825.7719,427.4219 Q825.1,426.4063 825.1,425.2031 L825.1,424.1094 Q825.1,422.8594 825.6938,421.7656 Q826.3031,420.6719 827.35,420.0938 Q828.4125,419.5 829.6,419.5 Q830.3188,419.5 830.9438,419.75 Q831.5688,420 832.1,420.5 Z "/><text fill="#000000" font-family="sans-serif" font-size="12" lengthAdjust="spacingAndGlyphs" textLength="27" x="847.9" y="428.9102">User</text><line style="stroke: #A80036; stroke-width: 1.5;" x1="799" x2="894" y1="440" y2="440"/><text fill="#000000" font-family="sans-serif" font-size="11" lengthAdjust="spacingAndGlyphs" textLength="26" x="804" y="455.4189">-int id</text><text fill="#000000" font-family="sans-serif" font-size="11" lengthAdjust="spacingAndGlyphs" textLength="61" x="804" y="469.2549">-String name</text><text fill="#000000" font-family="sans-serif" font-size="11" lengthAdjust="spacingAndGlyphs" textLength="59" x="804" y="483.0908">-String email</text><text fill="#000000" font-family="sans-serif" font-size="11" lengthAdjust="spacingAndGlyphs" textLength="85" x="804" y="496.9268">-String password</text><text fill="#000000" font-family="sans-serif" font-size="11" lengthAdjust="spacingAndGlyphs" textLength="52" x="804" y="510.7627">-Integer nif</text><!--MD5=[0f39e4cb6f03951afbf6d14bd2505654]
class Address--><rect fill="#FEFECE" filter="url(#f1i35ze863jkpf)" height="150.6875" id="Address" style="stroke: #A80036; stroke-width: 1.5;" width="106" x="1210" y="222"/><ellipse cx="1237.6" cy="238" fill="#ADD1B2" rx="11" ry="11" style="stroke: #A80036; stroke-width: 1.0;"/><path d="M1239.6,234.5 Q1239.8031,234 1240.0375,233.75 Q1240.2719,233.5 1240.5375,233.5 Q1241.0063,233.5 1241.3031,233.7813 Q1241.6,234.0625 1241.6,234.7188 L1241.6,236.2813 Q1241.6,236.9375 1241.3188,237.2188 Q1241.0375,237.5 1240.6,237.5 Q1240.2094,237.5 1239.9594,237.3281 Q1239.7094,237.1563 1239.6,236.7031 Q1239.5531,236.3906 1239.3813,236.2188 Q1239.0688,235.8906 1238.5063,235.7031 Q1237.9438,235.5 1237.3813,235.5 Q1236.6781,235.5 1236.0844,235.7813 Q1235.5063,236.0625 1235.0531,236.6875 Q1234.6,237.3125 1234.6,238.1719 L1234.6,239.0938 Q1234.6,240.125 1235.4438,240.8125 Q1236.2875,241.5 1237.7875,241.5 Q1238.6781,241.5 1239.3031,241.2969 Q1239.6625,241.1875 1240.0688,240.8281 Q1240.3344,240.625 1240.475,240.5625 Q1240.6156,240.5 1240.7875,240.5 Q1241.1156,240.5 1241.35,240.7656 Q1241.6,241.0156 1241.6,241.375 Q1241.6,241.7188 1241.2563,242.125 Q1240.7563,242.7188 1239.9594,243.0469 Q1238.9125,243.5 1237.6313,243.5 Q1236.1313,243.5 1234.9281,242.9063 Q1233.9594,242.4375 1233.2719,241.4219 Q1232.6,240.4063 1232.6,239.2031 L1232.6,238.1094 Q1232.6,236.8594 1233.1938,235.7656 Q1233.8031,234.6719 1234.85,234.0938 Q1235.9125,233.5 1237.1,233.5 Q1237.8188,233.5 1238.4438,233.75 Q1239.0688,234 1239.6,234.5 Z "/><text fill="#000000" font-family="sans-serif" font-size="12" lengthAdjust="spacingAndGlyphs" textLength="46" x="1254.4" y="242.9102">Address</text><line style="stroke: #A80036; stroke-width: 1.5;" x1="1211" x2="1315" y1="254" y2="254"/><text fill="#000000" font-family="sans-serif" font-size="11" lengthAdjust="spacingAndGlyphs" textLength="26" x="1216" y="269.4189">-int id</text><text fill="#000000" font-family="sans-serif" font-size="11" lengthAdjust="spacingAndGlyphs" textLength="90" x="1216" y="283.2549">-String streetName</text><text fill="#000000" font-family="sans-serif" font-size="11" lengthAdjust="spacingAndGlyphs" textLength="94" x="1216" y="297.0908">-String doorNumber</text><text fill="#000000" font-family="sans-serif" font-size="11" lengthAdjust="spacingAndGlyphs" textLength="89" x="1216" y="310.9268">-String postalCode</text><text fill="#000000" font-family="sans-serif" font-size="11" lengthAdjust="spacingAndGlyphs" textLength="68" x="1216" y="324.7627">-String locality</text><text fill="#000000" font-family="sans-serif" font-size="11" lengthAdjust="spacingAndGlyphs" textLength="72" x="1216" y="338.5986">-String country</text><text fill="#000000" font-family="sans-serif" font-size="11" lengthAdjust="spacingAndGlyphs" textLength="71" x="1216" y="352.4346">-float longitude</text><text fill="#000000" font-family="sans-serif" font-size="11" lengthAdjust="spacingAndGlyphs" textLength="62" x="1216" y="366.2705">-float latitude</text><!--MD5=[cf4d6237fcae255cd2e1656cf84a30e2]
class Order--><rect fill="#FEFECE" filter="url(#f1i35ze863jkpf)" height="150.6875" id="Order" style="stroke: #A80036; stroke-width: 1.5;" width="131" x="781" y="222"/><ellipse cx="826.75" cy="238" fill="#ADD1B2" rx="11" ry="11" style="stroke: #A80036; stroke-width: 1.0;"/><path d="M828.75,234.5 Q828.9531,234 829.1875,233.75 Q829.4219,233.5 829.6875,233.5 Q830.1563,233.5 830.4531,233.7813 Q830.75,234.0625 830.75,234.7188 L830.75,236.2813 Q830.75,236.9375 830.4688,237.2188 Q830.1875,237.5 829.75,237.5 Q829.3594,237.5 829.1094,237.3281 Q828.8594,237.1563 828.75,236.7031 Q828.7031,236.3906 828.5313,236.2188 Q828.2188,235.8906 827.6563,235.7031 Q827.0938,235.5 826.5313,235.5 Q825.8281,235.5 825.2344,235.7813 Q824.6563,236.0625 824.2031,236.6875 Q823.75,237.3125 823.75,238.1719 L823.75,239.0938 Q823.75,240.125 824.5938,240.8125 Q825.4375,241.5 826.9375,241.5 Q827.8281,241.5 828.4531,241.2969 Q828.8125,241.1875 829.2188,240.8281 Q829.4844,240.625 829.625,240.5625 Q829.7656,240.5 829.9375,240.5 Q830.2656,240.5 830.5,240.7656 Q830.75,241.0156 830.75,241.375 Q830.75,241.7188 830.4063,242.125 Q829.9063,242.7188 829.1094,243.0469 Q828.0625,243.5 826.7813,243.5 Q825.2813,243.5 824.0781,242.9063 Q823.1094,242.4375 822.4219,241.4219 Q821.75,240.4063 821.75,239.2031 L821.75,238.1094 Q821.75,236.8594 822.3438,235.7656 Q822.9531,234.6719 824,234.0938 Q825.0625,233.5 826.25,233.5 Q826.9688,233.5 827.5938,233.75 Q828.2188,234 828.75,234.5 Z "/><text fill="#000000" font-family="sans-serif" font-size="12" lengthAdjust="spacingAndGlyphs" textLength="31" x="847.25" y="242.9102">Order</text><line style="stroke: #A80036; stroke-width: 1.5;" x1="782" x2="911" y1="254" y2="254"/><text fill="#000000" font-family="sans-serif" font-size="11" lengthAdjust="spacingAndGlyphs" textLength="26" x="787" y="269.4189">-int id</text><text fill="#000000" font-family="sans-serif" font-size="11" lengthAdjust="spacingAndGlyphs" textLength="63" x="787" y="283.2549">-float amount</text><text fill="#000000" font-family="sans-serif" font-size="11" lengthAdjust="spacingAndGlyphs" textLength="81" x="787" y="297.0908">-float totalWeight</text><text fill="#000000" font-family="sans-serif" font-size="11" lengthAdjust="spacingAndGlyphs" textLength="91" x="787" y="310.9268">-float additionalFee</text><text fill="#000000" font-family="sans-serif" font-size="11" lengthAdjust="spacingAndGlyphs" textLength="77" x="787" y="324.7627">-Date orderDate</text><text fill="#000000" font-family="sans-serif" font-size="11" lengthAdjust="spacingAndGlyphs" textLength="88" x="787" y="338.5986">-String description</text><text fill="#000000" font-family="sans-serif" font-size="11" lengthAdjust="spacingAndGlyphs" textLength="65" x="787" y="352.4346">-String status</text><text fill="#000000" font-family="sans-serif" font-size="11" lengthAdjust="spacingAndGlyphs" textLength="119" x="787" y="366.2705">-boolean isHomeDelivery</text><!--MD5=[72136138052d025cffdce3c22fbd185f]
class Product--><rect fill="#FEFECE" filter="url(#f1i35ze863jkpf)" height="109.1797" id="Product" style="stroke: #A80036; stroke-width: 1.5;" width="106" x="1008" y="114"/><ellipse cx="1037.4" cy="130" fill="#ADD1B2" rx="11" ry="11" style="stroke: #A80036; stroke-width: 1.0;"/><path d="M1039.4,126.5 Q1039.6031,126 1039.8375,125.75 Q1040.0719,125.5 1040.3375,125.5 Q1040.8063,125.5 1041.1031,125.7813 Q1041.4,126.0625 1041.4,126.7188 L1041.4,128.2813 Q1041.4,128.9375 1041.1188,129.2188 Q1040.8375,129.5 1040.4,129.5 Q1040.0094,129.5 1039.7594,129.3281 Q1039.5094,129.1563 1039.4,128.7031 Q1039.3531,128.3906 1039.1813,128.2188 Q1038.8688,127.8906 1038.3063,127.7031 Q1037.7438,127.5 1037.1813,127.5 Q1036.4781,127.5 1035.8844,127.7813 Q1035.3063,128.0625 1034.8531,128.6875 Q1034.4,129.3125 1034.4,130.1719 L1034.4,131.0938 Q1034.4,132.125 1035.2438,132.8125 Q1036.0875,133.5 1037.5875,133.5 Q1038.4781,133.5 1039.1031,133.2969 Q1039.4625,133.1875 1039.8688,132.8281 Q1040.1344,132.625 1040.275,132.5625 Q1040.4156,132.5 1040.5875,132.5 Q1040.9156,132.5 1041.15,132.7656 Q1041.4,133.0156 1041.4,133.375 Q1041.4,133.7188 1041.0563,134.125 Q1040.5563,134.7188 1039.7594,135.0469 Q1038.7125,135.5 1037.4313,135.5 Q1035.9313,135.5 1034.7281,134.9063 Q1033.7594,134.4375 1033.0719,133.4219 Q1032.4,132.4063 1032.4,131.2031 L1032.4,130.1094 Q1032.4,128.8594 1032.9938,127.7656 Q1033.6031,126.6719 1034.65,126.0938 Q1035.7125,125.5 1036.9,125.5 Q1037.6188,125.5 1038.2438,125.75 Q1038.8688,126 1039.4,126.5 Z "/><text fill="#000000" font-family="sans-serif" font-size="12" lengthAdjust="spacingAndGlyphs" textLength="42" x="1054.6" y="134.9102">Product</text><line style="stroke: #A80036; stroke-width: 1.5;" x1="1009" x2="1113" y1="146" y2="146"/><text fill="#000000" font-family="sans-serif" font-size="11" lengthAdjust="spacingAndGlyphs" textLength="26" x="1014" y="161.4189">-int id</text><text fill="#000000" font-family="sans-serif" font-size="11" lengthAdjust="spacingAndGlyphs" textLength="61" x="1014" y="175.2549">-String name</text><text fill="#000000" font-family="sans-serif" font-size="11" lengthAdjust="spacingAndGlyphs" textLength="88" x="1014" y="189.0908">-String description</text><text fill="#000000" font-family="sans-serif" font-size="11" lengthAdjust="spacingAndGlyphs" textLength="85" x="1014" y="202.9268">-float unitaryPrice</text><text fill="#000000" font-family="sans-serif" font-size="11" lengthAdjust="spacingAndGlyphs" textLength="94" x="1014" y="216.7627">-float unitaryWeight</text><!--MD5=[7f2a9fafcebe4f099f71398fd3e2ed00]
class Pharmacy--><rect fill="#FEFECE" filter="url(#f1i35ze863jkpf)" height="67.6719" id="Pharmacy" style="stroke: #A80036; stroke-width: 1.5;" width="87" x="1017.5" y="263.5"/><ellipse cx="1032.5" cy="279.5" fill="#ADD1B2" rx="11" ry="11" style="stroke: #A80036; stroke-width: 1.0;"/><path d="M1034.5,276 Q1034.7031,275.5 1034.9375,275.25 Q1035.1719,275 1035.4375,275 Q1035.9063,275 1036.2031,275.2813 Q1036.5,275.5625 1036.5,276.2188 L1036.5,277.7813 Q1036.5,278.4375 1036.2188,278.7188 Q1035.9375,279 1035.5,279 Q1035.1094,279 1034.8594,278.8281 Q1034.6094,278.6563 1034.5,278.2031 Q1034.4531,277.8906 1034.2813,277.7188 Q1033.9688,277.3906 1033.4063,277.2031 Q1032.8438,277 1032.2813,277 Q1031.5781,277 1030.9844,277.2813 Q1030.4063,277.5625 1029.9531,278.1875 Q1029.5,278.8125 1029.5,279.6719 L1029.5,280.5938 Q1029.5,281.625 1030.3438,282.3125 Q1031.1875,283 1032.6875,283 Q1033.5781,283 1034.2031,282.7969 Q1034.5625,282.6875 1034.9688,282.3281 Q1035.2344,282.125 1035.375,282.0625 Q1035.5156,282 1035.6875,282 Q1036.0156,282 1036.25,282.2656 Q1036.5,282.5156 1036.5,282.875 Q1036.5,283.2188 1036.1563,283.625 Q1035.6563,284.2188 1034.8594,284.5469 Q1033.8125,285 1032.5313,285 Q1031.0313,285 1029.8281,284.4063 Q1028.8594,283.9375 1028.1719,282.9219 Q1027.5,281.9063 1027.5,280.7031 L1027.5,279.6094 Q1027.5,278.3594 1028.0938,277.2656 Q1028.7031,276.1719 1029.75,275.5938 Q1030.8125,275 1032,275 Q1032.7188,275 1033.3438,275.25 Q1033.9688,275.5 1034.5,276 Z "/><text fill="#000000" font-family="sans-serif" font-size="12" lengthAdjust="spacingAndGlyphs" textLength="55" x="1046.5" y="284.4102">Pharmacy</text><line style="stroke: #A80036; stroke-width: 1.5;" x1="1018.5" x2="1103.5" y1="295.5" y2="295.5"/><text fill="#000000" font-family="sans-serif" font-size="11" lengthAdjust="spacingAndGlyphs" textLength="26" x="1023.5" y="310.9189">-int id</text><text fill="#000000" font-family="sans-serif" font-size="11" lengthAdjust="spacingAndGlyphs" textLength="61" x="1023.5" y="324.7549">-String name</text><!--MD5=[91d4151b6d4c9a3d01b6d84b2458eece]
class CreditCard--><rect fill="#FEFECE" filter="url(#f1i35ze863jkpf)" height="95.3438" id="CreditCard" style="stroke: #A80036; stroke-width: 1.5;" width="104" x="794.5" y="624"/><ellipse cx="814.9" cy="640" fill="#ADD1B2" rx="11" ry="11" style="stroke: #A80036; stroke-width: 1.0;"/><path d="M816.9,636.5 Q817.1031,636 817.3375,635.75 Q817.5719,635.5 817.8375,635.5 Q818.3063,635.5 818.6031,635.7813 Q818.9,636.0625 818.9,636.7188 L818.9,638.2813 Q818.9,638.9375 818.6188,639.2188 Q818.3375,639.5 817.9,639.5 Q817.5094,639.5 817.2594,639.3281 Q817.0094,639.1563 816.9,638.7031 Q816.8531,638.3906 816.6813,638.2188 Q816.3688,637.8906 815.8063,637.7031 Q815.2438,637.5 814.6813,637.5 Q813.9781,637.5 813.3844,637.7813 Q812.8063,638.0625 812.3531,638.6875 Q811.9,639.3125 811.9,640.1719 L811.9,641.0938 Q811.9,642.125 812.7438,642.8125 Q813.5875,643.5 815.0875,643.5 Q815.9781,643.5 816.6031,643.2969 Q816.9625,643.1875 817.3688,642.8281 Q817.6344,642.625 817.775,642.5625 Q817.9156,642.5 818.0875,642.5 Q818.4156,642.5 818.65,642.7656 Q818.9,643.0156 818.9,643.375 Q818.9,643.7188 818.5563,644.125 Q818.0563,644.7188 817.2594,645.0469 Q816.2125,645.5 814.9313,645.5 Q813.4313,645.5 812.2281,644.9063 Q811.2594,644.4375 810.5719,643.4219 Q809.9,642.4063 809.9,641.2031 L809.9,640.1094 Q809.9,638.8594 810.4938,637.7656 Q811.1031,636.6719 812.15,636.0938 Q813.2125,635.5 814.4,635.5 Q815.1188,635.5 815.7438,635.75 Q816.3688,636 816.9,636.5 Z "/><text fill="#000000" font-family="sans-serif" font-size="12" lengthAdjust="spacingAndGlyphs" textLength="60" x="830.1" y="644.9102">CreditCard</text><line style="stroke: #A80036; stroke-width: 1.5;" x1="795.5" x2="897.5" y1="656" y2="656"/><text fill="#000000" font-family="sans-serif" font-size="11" lengthAdjust="spacingAndGlyphs" textLength="26" x="800.5" y="671.4189">-int id</text><text fill="#000000" font-family="sans-serif" font-size="11" lengthAdjust="spacingAndGlyphs" textLength="92" x="800.5" y="685.2549">-Long creditCardNr</text><text fill="#000000" font-family="sans-serif" font-size="11" lengthAdjust="spacingAndGlyphs" textLength="90" x="800.5" y="699.0908">-String validityDate</text><text fill="#000000" font-family="sans-serif" font-size="11" lengthAdjust="spacingAndGlyphs" textLength="62" x="800.5" y="712.9268">-Integer CCV</text><!--MD5=[764fca796ce7f635542948d8fc39db5e]
class Payment--><rect fill="#FEFECE" filter="url(#f1i35ze863jkpf)" height="53.8359" id="Payment" style="stroke: #A80036; stroke-width: 1.5;" width="80" x="521" y="545.5"/><ellipse cx="536" cy="561.5" fill="#ADD1B2" rx="11" ry="11" style="stroke: #A80036; stroke-width: 1.0;"/><path d="M538,558 Q538.2031,557.5 538.4375,557.25 Q538.6719,557 538.9375,557 Q539.4063,557 539.7031,557.2813 Q540,557.5625 540,558.2188 L540,559.7813 Q540,560.4375 539.7188,560.7188 Q539.4375,561 539,561 Q538.6094,561 538.3594,560.8281 Q538.1094,560.6563 538,560.2031 Q537.9531,559.8906 537.7813,559.7188 Q537.4688,559.3906 536.9063,559.2031 Q536.3438,559 535.7813,559 Q535.0781,559 534.4844,559.2813 Q533.9063,559.5625 533.4531,560.1875 Q533,560.8125 533,561.6719 L533,562.5938 Q533,563.625 533.8438,564.3125 Q534.6875,565 536.1875,565 Q537.0781,565 537.7031,564.7969 Q538.0625,564.6875 538.4688,564.3281 Q538.7344,564.125 538.875,564.0625 Q539.0156,564 539.1875,564 Q539.5156,564 539.75,564.2656 Q540,564.5156 540,564.875 Q540,565.2188 539.6563,565.625 Q539.1563,566.2188 538.3594,566.5469 Q537.3125,567 536.0313,567 Q534.5313,567 533.3281,566.4063 Q532.3594,565.9375 531.6719,564.9219 Q531,563.9063 531,562.7031 L531,561.6094 Q531,560.3594 531.5938,559.2656 Q532.2031,558.1719 533.25,557.5938 Q534.3125,557 535.5,557 Q536.2188,557 536.8438,557.25 Q537.4688,557.5 538,558 Z "/><text fill="#000000" font-family="sans-serif" font-size="12" lengthAdjust="spacingAndGlyphs" textLength="48" x="550" y="566.4102">Payment</text><line style="stroke: #A80036; stroke-width: 1.5;" x1="522" x2="600" y1="577.5" y2="577.5"/><text fill="#000000" font-family="sans-serif" font-size="11" lengthAdjust="spacingAndGlyphs" textLength="54" x="527" y="592.9189">-float value</text><!--MD5=[894442645724153f40a9f7a43026dbfc]
class Invoice--><rect fill="#FEFECE" filter="url(#f1i35ze863jkpf)" height="81.5078" id="Invoice" style="stroke: #A80036; stroke-width: 1.5;" width="97" x="244" y="215.5"/><ellipse cx="271.15" cy="231.5" fill="#ADD1B2" rx="11" ry="11" style="stroke: #A80036; stroke-width: 1.0;"/><path d="M273.15,228 Q273.3531,227.5 273.5875,227.25 Q273.8219,227 274.0875,227 Q274.5563,227 274.8531,227.2813 Q275.15,227.5625 275.15,228.2188 L275.15,229.7813 Q275.15,230.4375 274.8688,230.7188 Q274.5875,231 274.15,231 Q273.7594,231 273.5094,230.8281 Q273.2594,230.6563 273.15,230.2031 Q273.1031,229.8906 272.9313,229.7188 Q272.6188,229.3906 272.0563,229.2031 Q271.4938,229 270.9313,229 Q270.2281,229 269.6344,229.2813 Q269.0563,229.5625 268.6031,230.1875 Q268.15,230.8125 268.15,231.6719 L268.15,232.5938 Q268.15,233.625 268.9938,234.3125 Q269.8375,235 271.3375,235 Q272.2281,235 272.8531,234.7969 Q273.2125,234.6875 273.6188,234.3281 Q273.8844,234.125 274.025,234.0625 Q274.1656,234 274.3375,234 Q274.6656,234 274.9,234.2656 Q275.15,234.5156 275.15,234.875 Q275.15,235.2188 274.8063,235.625 Q274.3063,236.2188 273.5094,236.5469 Q272.4625,237 271.1813,237 Q269.6813,237 268.4781,236.4063 Q267.5094,235.9375 266.8219,234.9219 Q266.15,233.9063 266.15,232.7031 L266.15,231.6094 Q266.15,230.3594 266.7438,229.2656 Q267.3531,228.1719 268.4,227.5938 Q269.4625,227 270.65,227 Q271.3688,227 271.9938,227.25 Q272.6188,227.5 273.15,228 Z "/><text fill="#000000" font-family="sans-serif" font-size="12" lengthAdjust="spacingAndGlyphs" textLength="38" x="287.85" y="236.4102">Invoice</text><line style="stroke: #A80036; stroke-width: 1.5;" x1="245" x2="340" y1="247.5" y2="247.5"/><text fill="#000000" font-family="sans-serif" font-size="11" lengthAdjust="spacingAndGlyphs" textLength="26" x="250" y="262.9189">-int id</text><text fill="#000000" font-family="sans-serif" font-size="11" lengthAdjust="spacingAndGlyphs" textLength="77" x="250" y="276.7549">-Date orderDate</text><text fill="#000000" font-family="sans-serif" font-size="11" lengthAdjust="spacingAndGlyphs" textLength="85" x="250" y="290.5908">-float totalAmount</text><!--MD5=[ac0c33dc67b04049a5a44d8fea0f9b6c]
link Database to Client--><path d="M87.3286,366.151 C96.9781,369.734 107.307,373.397 117,376.5 C228.302,412.126 255.988,423.777 371,444.5 C413.008,452.069 460.88,456.586 497.933,459.203 " fill="none" id="Database-Client" style="stroke: #A80036; stroke-width: 1.0;"/><text fill="#000000" font-family="sans-serif" font-size="13" lengthAdjust="spacingAndGlyphs" textLength="82" x="245" y="412.9951">has registered</text><polygon fill="#000000" points="330,406.1758,336,409.1758,330,412.1758,330,406.1758" style="stroke: #000000; stroke-width: 1.0;"/><text fill="#000000" font-family="sans-serif" font-size="13" lengthAdjust="spacingAndGlyphs" textLength="7" x="94.9476" y="383.7749">1</text><text fill="#000000" font-family="sans-serif" font-size="13" lengthAdjust="spacingAndGlyphs" textLength="5" x="484.942" y="473.2718">*</text><!--MD5=[3105658e3b0e17fcc7b59acd4e6ef463]
link Database to Order--><path d="M87.0729,347.872 C215.543,339.339 621.803,312.357 780.802,301.797 " fill="none" id="Database-Order" style="stroke: #A80036; stroke-width: 1.0;"/><text fill="#000000" font-family="sans-serif" font-size="13" lengthAdjust="spacingAndGlyphs" textLength="82" x="372" y="318.9951">has registered</text><polygon fill="#000000" points="457,312.1758,463,315.1758,457,318.1758,457,312.1758" style="stroke: #000000; stroke-width: 1.0;"/><text fill="#000000" font-family="sans-serif" font-size="13" lengthAdjust="spacingAndGlyphs" textLength="7" x="94.9234" y="362.3901">1</text><text fill="#000000" font-family="sans-serif" font-size="13" lengthAdjust="spacingAndGlyphs" textLength="5" x="767.9166" y="316.7523">*</text><!--MD5=[22f0edd2925765a3c38d923b02900659]
link Database to Product--><path d="M56.8206,326.698 C83.2176,263.718 164.878,97.5 291.5,97.5 C291.5,97.5 291.5,97.5 847.5,97.5 C904.484,97.5 965.839,120.752 1007.9,140.643 " fill="none" id="Database-Product" style="stroke: #A80036; stroke-width: 1.0;"/><text fill="#000000" font-family="sans-serif" font-size="13" lengthAdjust="spacingAndGlyphs" textLength="82" x="513.5" y="93.9951">has registered</text><polygon fill="#000000" points="598.5,87.1758,604.5,90.1758,598.5,93.1758,598.5,87.1758" style="stroke: #000000; stroke-width: 1.0;"/><text fill="#000000" font-family="sans-serif" font-size="13" lengthAdjust="spacingAndGlyphs" textLength="7" x="51.5684" y="316.1389">1</text><text fill="#000000" font-family="sans-serif" font-size="13" lengthAdjust="spacingAndGlyphs" textLength="5" x="995.0824" y="151.3578">*</text><!--MD5=[fe65df1e099598e2fce9ebdfea6b3744]
link Database to Address--><path d="M49.943,326.971 C55.3572,284.938 71.6972,195.893 117,137.5 C173.343,64.877 199.584,26.5 291.5,26.5 C291.5,26.5 291.5,26.5 1062,26.5 C1159.51,26.5 1214.84,141.48 1241.58,221.651 " fill="none" id="Database-Address" style="stroke: #A80036; stroke-width: 1.0;"/><text fill="#000000" font-family="sans-serif" font-size="13" lengthAdjust="spacingAndGlyphs" textLength="82" x="655" y="22.9951">has registered</text><polygon fill="#000000" points="740,16.1758,746,19.1758,740,22.1758,740,16.1758" style="stroke: #000000; stroke-width: 1.0;"/><text fill="#000000" font-family="sans-serif" font-size="13" lengthAdjust="spacingAndGlyphs" textLength="7" x="42.9277" y="316.0924">1</text><text fill="#000000" font-family="sans-serif" font-size="13" lengthAdjust="spacingAndGlyphs" textLength="5" x="1234.3001" y="211.1859">*</text><!--MD5=[0d6287e6031f223f446ddfea0960667d]
link Database to CreditCard--><path d="M54.3576,374.2 C63.9811,403.727 84.0988,454.111 117,485.5 C161.897,528.334 186.641,519.827 244,543.5 C328.113,578.215 618.278,688.1441 654,694.5 C696.444,702.0521 708.196,699.6341 751,694.5 C765.25,692.7908 780.456,689.681 794.411,686.2891 " fill="none" id="Database-CreditCard" style="stroke: #A80036; stroke-width: 1.0;"/><text fill="#000000" font-family="sans-serif" font-size="13" lengthAdjust="spacingAndGlyphs" textLength="82" x="372" y="590.9951">has registered</text><polygon fill="#000000" points="457,584.1758,463,587.1758,457,590.1758,457,584.1758" style="stroke: #000000; stroke-width: 1.0;"/><text fill="#000000" font-family="sans-serif" font-size="13" lengthAdjust="spacingAndGlyphs" textLength="7" x="48.3653" y="395.1116">1</text><text fill="#000000" font-family="sans-serif" font-size="13" lengthAdjust="spacingAndGlyphs" textLength="5" x="781.3932" y="703.1319">*</text><!--MD5=[a99673c166dda41a8d80658df5cbfd3d]
link Database to Payment--><path d="M69.9611,374.088 C82.9615,386.968 100.0624,402.657 117,414.5 C221.096,487.285 249.998,506.869 371,545.5 C421.205,561.528 481.954,568.062 520.783,570.712 " fill="none" id="Database-Payment" style="stroke: #A80036; stroke-width: 1.0;"/><text fill="#000000" font-family="sans-serif" font-size="13" lengthAdjust="spacingAndGlyphs" textLength="82" x="245" y="492.9951">has registered</text><polygon fill="#000000" points="330,486.1758,336,489.1758,330,492.1758,330,486.1758" style="stroke: #000000; stroke-width: 1.0;"/><text fill="#000000" font-family="sans-serif" font-size="13" lengthAdjust="spacingAndGlyphs" textLength="7" x="67.5771" y="394.9737">1</text><text fill="#000000" font-family="sans-serif" font-size="13" lengthAdjust="spacingAndGlyphs" textLength="5" x="507.9071" y="585.4">*</text><!--MD5=[79ef9072c49a7de144f8667891df3d49]
link Database to Invoice--><path d="M87.2459,335.188 C130.053,318.697 198.151,292.462 243.813,274.871 " fill="none" id="Database-Invoice" style="stroke: #A80036; stroke-width: 1.0;"/><text fill="#000000" font-family="sans-serif" font-size="13" lengthAdjust="spacingAndGlyphs" textLength="82" x="118" y="282.9951">has registered</text><polygon fill="#000000" points="203,276.1758,209,279.1758,203,282.1758,203,276.1758" style="stroke: #000000; stroke-width: 1.0;"/><text fill="#000000" font-family="sans-serif" font-size="13" lengthAdjust="spacingAndGlyphs" textLength="7" x="95.1272" y="328.5968">1</text><text fill="#000000" font-family="sans-serif" font-size="13" lengthAdjust="spacingAndGlyphs" textLength="5" x="230.975" y="292.4688">*</text><!--MD5=[5df16df72a49edaa4f00919f1e597f76]
link Order to Product--><path d="M912.123,258.27 C942.771,239.665 978.909,217.727 1007.79,200.195 " fill="none" id="Order-Product" style="stroke: #A80036; stroke-width: 1.0;"/><text fill="#000000" font-family="sans-serif" font-size="13" lengthAdjust="spacingAndGlyphs" textLength="21" x="943" y="216.9951">has</text><polygon fill="#000000" points="967,210.1758,973,213.1758,967,216.1758,967,210.1758" style="stroke: #000000; stroke-width: 1.0;"/><text fill="#000000" font-family="sans-serif" font-size="13" lengthAdjust="spacingAndGlyphs" textLength="7" x="920.1153" y="268.1925">1</text><text fill="#000000" font-family="sans-serif" font-size="13" lengthAdjust="spacingAndGlyphs" textLength="5" x="994.9546" y="219.2843">*</text><!--MD5=[341c66bf56a9f106d2cc06efe44d7382]
link Order to Pharmacy--><path d="M912.123,297.5 C946.312,297.5 987.333,297.5 1017.49,297.5 " fill="none" id="Order-Pharmacy" style="stroke: #A80036; stroke-width: 1.0;"/><text fill="#000000" font-family="sans-serif" font-size="13" lengthAdjust="spacingAndGlyphs" textLength="21" x="943" y="293.9951">has</text><polygon fill="#000000" points="967,287.1758,973,290.1758,967,293.1758,967,287.1758" style="stroke: #000000; stroke-width: 1.0;"/><text fill="#000000" font-family="sans-serif" font-size="13" lengthAdjust="spacingAndGlyphs" textLength="7" x="920.1153" y="311.9585">1</text><text fill="#000000" font-family="sans-serif" font-size="13" lengthAdjust="spacingAndGlyphs" textLength="5" x="1004.582" y="312.4285">*</text><!--MD5=[9a8dc34b38f85b9f3fcdb440f4bffc6a]
link Client to User--><path d="M624.215,462.5 C676.536,462.5 750.232,462.5 797.935,462.5 " fill="none" id="Client-User" style="stroke: #A80036; stroke-width: 1.0;"/><text fill="#000000" font-family="sans-serif" font-size="13" lengthAdjust="spacingAndGlyphs" textLength="43" x="674.5" y="458.9951">acts as</text><polygon fill="#000000" points="720.5,452.1758,726.5,455.1758,720.5,458.1758,720.5,452.1758" style="stroke: #000000; stroke-width: 1.0;"/><text fill="#000000" font-family="sans-serif" font-size="13" lengthAdjust="spacingAndGlyphs" textLength="22" x="631.8684" y="476.8205">0..1</text><text fill="#000000" font-family="sans-serif" font-size="13" lengthAdjust="spacingAndGlyphs" textLength="7" x="782.9625" y="477.2333">1</text><!--MD5=[879bec428a80d843af24dc47845bf14c]
link Client to Order--><path d="M624.392,447.753 C662.883,436.845 712.148,419.508 751,394.5 C761.379,387.819 771.475,379.799 780.969,371.27 " fill="none" id="Client-Order" style="stroke: #A80036; stroke-width: 1.0;"/><text fill="#000000" font-family="sans-serif" font-size="13" lengthAdjust="spacingAndGlyphs" textLength="39" x="676.5" y="390.9951">makes</text><polygon fill="#000000" points="718.5,384.1758,724.5,387.1758,718.5,390.1758,718.5,384.1758" style="stroke: #000000; stroke-width: 1.0;"/><text fill="#000000" font-family="sans-serif" font-size="13" lengthAdjust="spacingAndGlyphs" textLength="7" x="632.1264" y="442.6184">1</text><text fill="#000000" font-family="sans-serif" font-size="13" lengthAdjust="spacingAndGlyphs" textLength="7" x="765.9873" y="394.2582">1</text><!--MD5=[bd708f2371c655af07b49ddbdb30848a]
link Client to Address--><path d="M624.216,493.854 C694.9,525.222 813.25,564.788 912,534.5 C1030.92,498.025 1145.8,405.953 1209.86,347.897 " fill="none" id="Client-Address" style="stroke: #A80036; stroke-width: 1.0;"/><text fill="#000000" font-family="sans-serif" font-size="13" lengthAdjust="spacingAndGlyphs" textLength="21" x="943" y="504.9951">has</text><polygon fill="#000000" points="967,498.1758,973,501.1758,967,504.1758,967,498.1758" style="stroke: #000000; stroke-width: 1.0;"/><text fill="#000000" font-family="sans-serif" font-size="13" lengthAdjust="spacingAndGlyphs" textLength="7" x="631.93" y="511.8999">1</text><text fill="#000000" font-family="sans-serif" font-size="13" lengthAdjust="spacingAndGlyphs" textLength="7" x="1194.895" y="369.6509">1</text><!--MD5=[89baec1bfb4a213750f7c61516e0a0f1]
link Pharmacy to Address--><path d="M1104.91,297.5 C1135.67,297.5 1177.27,297.5 1209.93,297.5 " fill="none" id="Pharmacy-Address" style="stroke: #A80036; stroke-width: 1.0;"/><text fill="#000000" font-family="sans-serif" font-size="13" lengthAdjust="spacingAndGlyphs" textLength="21" x="1145" y="293.9951">has</text><polygon fill="#000000" points="1169,287.1758,1175,290.1758,1169,293.1758,1169,287.1758" style="stroke: #000000; stroke-width: 1.0;"/><text fill="#000000" font-family="sans-serif" font-size="13" lengthAdjust="spacingAndGlyphs" textLength="7" x="1112.466" y="312.3243">1</text><text fill="#000000" font-family="sans-serif" font-size="13" lengthAdjust="spacingAndGlyphs" textLength="7" x="1194.9748" y="312.1668">1</text><!--MD5=[0748050afd2139cbb3c9faec3f892ae9]
link Client to CreditCard--><path d="M610.84,510.008 C615.657,515.958 620.17,522.181 624,528.5 C644.983,563.119 624.72,586.546 654,614.5 C664.35,624.3807 740.911,645.2036 794.034,658.7588 " fill="none" id="Client-CreditCard" style="stroke: #A80036; stroke-width: 1.0;"/><text fill="#000000" font-family="sans-serif" font-size="13" lengthAdjust="spacingAndGlyphs" textLength="21" x="685.5" y="610.9951">has</text><polygon fill="#000000" points="709.5,604.1758,715.5,607.1758,709.5,610.1758,709.5,604.1758" style="stroke: #000000; stroke-width: 1.0;"/><text fill="#000000" font-family="sans-serif" font-size="13" lengthAdjust="spacingAndGlyphs" textLength="5" x="613.0889" y="532.0034">*</text><text fill="#000000" font-family="sans-serif" font-size="13" lengthAdjust="spacingAndGlyphs" textLength="5" x="781.6479" y="671.6173">*</text><!--MD5=[49c159b428d0616d4661acaa942954ce]
link Payment to CreditCard--><path d="M577.721,599.586 C593.509,623.813 620.3,657.7119 654,672.5 C698.449,692.0053 754.485,688.9371 794.434,682.6991 " fill="none" id="Payment-CreditCard" style="stroke: #A80036; stroke-width: 1.0;"/><text fill="#000000" font-family="sans-serif" font-size="13" lengthAdjust="spacingAndGlyphs" textLength="21" x="685.5" y="668.9951">has</text><polygon fill="#000000" points="709.5,662.1758,715.5,665.1758,709.5,668.1758,709.5,662.1758" style="stroke: #000000; stroke-width: 1.0;"/><text fill="#000000" font-family="sans-serif" font-size="13" lengthAdjust="spacingAndGlyphs" textLength="5" x="575.8318" y="620.8126">*</text><text fill="#000000" font-family="sans-serif" font-size="13" lengthAdjust="spacingAndGlyphs" textLength="7" x="779.62" y="680.6446">1</text><!--MD5=[8057192d0da8c3a76f90b3876072c699]
link Invoice to Payment--><path d="M299.384,297.573 C307.935,344.232 327.773,420.38 371,470.5 C411.302,517.229 478.486,546.169 520.95,560.791 " fill="none" id="Invoice-Payment" style="stroke: #A80036; stroke-width: 1.0;"/><text fill="#000000" font-family="sans-serif" font-size="13" lengthAdjust="spacingAndGlyphs" textLength="21" x="402.5" y="466.9951">has</text><polygon fill="#000000" points="408.5,475.8516,411.5,481.8516,414.5,475.8516,408.5,475.8516" style="stroke: #000000; stroke-width: 1.0;"/><text fill="#000000" font-family="sans-serif" font-size="13" lengthAdjust="spacingAndGlyphs" textLength="7" x="292.9022" y="318.647">1</text><text fill="#000000" font-family="sans-serif" font-size="13" lengthAdjust="spacingAndGlyphs" textLength="5" x="508.1048" y="554.6998">*</text><!--MD5=[72e744b1f7ec345412f1ea79f30940ed]
link Invoice to Product--><path d="M341.294,245.128 C351.082,243.05 361.344,241.051 371,239.5 C607.27,201.538 892.551,179.692 1007.88,171.846 " fill="none" id="Invoice-Product" style="stroke: #A80036; stroke-width: 1.0;"/><text fill="#000000" font-family="sans-serif" font-size="13" lengthAdjust="spacingAndGlyphs" textLength="21" x="685.5" y="188.9951">has</text><polygon fill="#000000" points="709.5,182.1758,715.5,185.1758,709.5,188.1758,709.5,182.1758" style="stroke: #000000; stroke-width: 1.0;"/><text fill="#000000" font-family="sans-serif" font-size="13" lengthAdjust="spacingAndGlyphs" textLength="7" x="348.9747" y="239.8398">1</text><text fill="#000000" font-family="sans-serif" font-size="13" lengthAdjust="spacingAndGlyphs" textLength="5" x="995.0562" y="186.9487">*</text><!--MD5=[4f0092e2f5693c7657a2634bfbc15acf]
link Invoice to Order--><path d="M341.041,260.031 C440.024,267.383 668.347,284.342 780.684,292.686 " fill="none" id="Invoice-Order" style="stroke: #A80036; stroke-width: 1.0;"/><text fill="#000000" font-family="sans-serif" font-size="13" lengthAdjust="spacingAndGlyphs" textLength="21" x="544" y="267.9951">has</text><polygon fill="#000000" points="568,261.1758,574,264.1758,568,267.1758,568,261.1758" style="stroke: #000000; stroke-width: 1.0;"/><text fill="#000000" font-family="sans-serif" font-size="13" lengthAdjust="spacingAndGlyphs" textLength="7" x="349.0098" y="275.3564">1</text><text fill="#000000" font-family="sans-serif" font-size="13" lengthAdjust="spacingAndGlyphs" textLength="7" x="766.1026" y="288.8159">1</text><!--MD5=[d526f5d30672b9ad1f9eb1a68f9d4e48]
link Invoice to Client--><path d="M303.842,297.78 C314.776,333.014 335.479,382.46 371,411.5 C390.471,427.418 450.598,441.977 497.864,451.427 " fill="none" id="Invoice-Client" style="stroke: #A80036; stroke-width: 1.0;"/><text fill="#000000" font-family="sans-serif" font-size="13" lengthAdjust="spacingAndGlyphs" textLength="21" x="402.5" y="407.9951">has</text><polygon fill="#000000" points="426.5,401.1758,432.5,404.1758,426.5,407.1758,426.5,401.1758" style="stroke: #000000; stroke-width: 1.0;"/><text fill="#000000" font-family="sans-serif" font-size="13" lengthAdjust="spacingAndGlyphs" textLength="7" x="297.9938" y="318.5751">1</text><text fill="#000000" font-family="sans-serif" font-size="13" lengthAdjust="spacingAndGlyphs" textLength="7" x="483.1592" y="446.7173">1</text><!--MD5=[05656806d43276f6307cf099d44de3b3]
@startuml
skinparam classAttributeIconSize 0
hide methods
left to right direction

database Database {
}

class Client{
-   int IBAN
-   long creditCardNumber
-   int validityDate
-   int CCV
}

class User{
-   int id
-   String name
-   String email
-   String password
-   Integer nif
}

class Address{
-   int id
-   String streetName
-   String doorNumber
-   String postalCode
-   String locality
-   String country
-   float longitude
-   float latitude
}

class Order{
-   int id
-   float amount
-   float totalWeight
-   float additionalFee
-   Date orderDate
-   String description
-   String status
-   boolean isHomeDelivery
}

class Product{
-   int id
-   String name
-   String description
-   float unitaryPrice
-   float unitaryWeight
}

class Pharmacy{
-   int id
-   String name
}

class CreditCard{
-   int id
-   Long creditCardNr
-   String validityDate
-   Integer CCV
}

class Payment{
-   float value
}

class Invoice{
-   int id
-   Date orderDate
-   float totalAmount
}

Database "1" - - "*" Client : has registered >
Database "1" - - "*" Order : has registered >
Database "1" - - "*" Product : has registered >
Database "1" - - "*" Address : has registered >
Database "1" - - "*" CreditCard : has registered >
Database "1" - - "*" Payment : has registered >
Database "1" - - "*" Invoice : has registered >
Order "1" - - "*" Product : has >
Order "1" - - "*" Pharmacy : has >
Client "0..1" - - "1" User: acts as >
Client "1" - - "1" Order : makes >
Client "1" - - "1" Address : has >
Pharmacy "1" - - "1" Address : has >
Client "*" - - "*" CreditCard : has >
Payment "*" - - "1" CreditCard : has >
Invoice "1" - - "*" Payment : has >
Invoice "1" - - "*" Product : has >
Invoice "1" - - "1" Order : has >
Invoice "1" - - "1" Client : has >
@enduml

PlantUML version 1.2020.09(Sun May 10 11:51:06 BST 2020)
(GPL source distribution)
Java Runtime: OpenJDK Runtime Environment
JVM: OpenJDK 64-Bit Server VM
Java Version: 11.0.6+8-b520.66
Operating System: Windows 10
Default Encoding: Cp1252
Language: pt
Country: PT
--></g></svg>