<?xml version="1.0" encoding="UTF-8" standalone="no"?><svg xmlns="http://www.w3.org/2000/svg" xmlns:xlink="http://www.w3.org/1999/xlink" contentScriptType="application/ecmascript" contentStyleType="text/css" height="1360px" preserveAspectRatio="none" style="width:2667px;height:1360px;" version="1.1" viewBox="0 0 2667 1360" width="2667px" zoomAndPan="magnify"><defs><filter height="300%" id="f1leiyvnrdt24b" width="300%" x="-1" y="-1"><feGaussianBlur result="blurOut" stdDeviation="2.0"/><feColorMatrix in="blurOut" result="blurOut2" type="matrix" values="0 0 0 0 0 0 0 0 0 0 0 0 0 0 0 0 0 0 .4 0"/><feOffset dx="4.0" dy="4.0" in="blurOut2" result="blurOut3"/><feBlend in="SourceGraphic" in2="blurOut3" mode="normal"/></filter></defs><g><!--MD5=[9681dc6e01e10c6b4fe06895ae94f592]
cluster UI--><polygon fill="#DDDDDD" filter="url(#f1leiyvnrdt24b)" points="2270,24.5,2290,24.5,2297,48.1094,2420,48.1094,2420,144.5,2270,144.5,2270,24.5" style="stroke: #000000; stroke-width: 1.5;"/><line style="stroke: #000000; stroke-width: 1.5;" x1="2270" x2="2297" y1="48.1094" y2="48.1094"/><text fill="#000000" font-family="sans-serif" font-size="14" font-weight="bold" lengthAdjust="spacingAndGlyphs" textLength="14" x="2274" y="41.0332">UI</text><!--MD5=[1f2cfc53d9d308f53762fd0fcbaa4873]
cluster Controller--><polygon fill="#DDDDDD" filter="url(#f1leiyvnrdt24b)" points="2134,177.5,2211,177.5,2218,201.1094,2645,201.1094,2645,638.5,2134,638.5,2134,177.5" style="stroke: #000000; stroke-width: 1.5;"/><line style="stroke: #000000; stroke-width: 1.5;" x1="2134" x2="2218" y1="201.1094" y2="201.1094"/><text fill="#000000" font-family="sans-serif" font-size="14" font-weight="bold" lengthAdjust="spacingAndGlyphs" textLength="71" x="2138" y="194.0332">Controller</text><!--MD5=[15636c1ca4a123c16a2a1a8e90aca7a9]
cluster Model--><polygon fill="#DDDDDD" filter="url(#f1leiyvnrdt24b)" points="750,439.5,800,439.5,807,463.1094,2110,463.1094,2110,1348,750,1348,750,439.5" style="stroke: #000000; stroke-width: 1.5;"/><line style="stroke: #000000; stroke-width: 1.5;" x1="750" x2="807" y1="463.1094" y2="463.1094"/><text fill="#000000" font-family="sans-serif" font-size="14" font-weight="bold" lengthAdjust="spacingAndGlyphs" textLength="44" x="754" y="456.0332">Model</text><!--MD5=[9dd75fd92da113d30380b27734fd2f01]
cluster Service--><polygon fill="#DDDDDD" filter="url(#f1leiyvnrdt24b)" points="774,483.5,834,483.5,841,507.1094,1744,507.1094,1744,645.5,774,645.5,774,483.5" style="stroke: #000000; stroke-width: 1.5;"/><line style="stroke: #000000; stroke-width: 1.5;" x1="774" x2="841" y1="507.1094" y2="507.1094"/><text fill="#000000" font-family="sans-serif" font-size="14" font-weight="bold" lengthAdjust="spacingAndGlyphs" textLength="54" x="778" y="500.0332">Service</text><!--MD5=[f21b1f164e99c6b37934f23ad048ad54]
cluster Data--><polygon fill="#DDDDDD" filter="url(#f1leiyvnrdt24b)" points="22,490.5,59,490.5,66,514.1094,726,514.1094,726,833.5,22,833.5,22,490.5" style="stroke: #000000; stroke-width: 1.5;"/><line style="stroke: #000000; stroke-width: 1.5;" x1="22" x2="66" y1="514.1094" y2="514.1094"/><text fill="#000000" font-family="sans-serif" font-size="14" font-weight="bold" lengthAdjust="spacingAndGlyphs" textLength="31" x="26" y="507.0332">Data</text><!--MD5=[35750e3ed6157e0e9f921c1e2e63111c]
class MakeAnOrderUI--><rect fill="#FEFECE" filter="url(#f1leiyvnrdt24b)" height="48" id="MakeAnOrderUI" style="stroke: #A80036; stroke-width: 1.5;" width="118" x="2286" y="80.5"/><ellipse cx="2301" cy="96.5" fill="#ADD1B2" rx="11" ry="11" style="stroke: #A80036; stroke-width: 1.0;"/><path d="M2303,93 Q2303.2031,92.5 2303.4375,92.25 Q2303.6719,92 2303.9375,92 Q2304.4063,92 2304.7031,92.2813 Q2305,92.5625 2305,93.2188 L2305,94.7813 Q2305,95.4375 2304.7188,95.7188 Q2304.4375,96 2304,96 Q2303.6094,96 2303.3594,95.8281 Q2303.1094,95.6563 2303,95.2031 Q2302.9531,94.8906 2302.7813,94.7188 Q2302.4688,94.3906 2301.9063,94.2031 Q2301.3438,94 2300.7813,94 Q2300.0781,94 2299.4844,94.2813 Q2298.9063,94.5625 2298.4531,95.1875 Q2298,95.8125 2298,96.6719 L2298,97.5938 Q2298,98.625 2298.8438,99.3125 Q2299.6875,100 2301.1875,100 Q2302.0781,100 2302.7031,99.7969 Q2303.0625,99.6875 2303.4688,99.3281 Q2303.7344,99.125 2303.875,99.0625 Q2304.0156,99 2304.1875,99 Q2304.5156,99 2304.75,99.2656 Q2305,99.5156 2305,99.875 Q2305,100.2188 2304.6563,100.625 Q2304.1563,101.2188 2303.3594,101.5469 Q2302.3125,102 2301.0313,102 Q2299.5313,102 2298.3281,101.4063 Q2297.3594,100.9375 2296.6719,99.9219 Q2296,98.9063 2296,97.7031 L2296,96.6094 Q2296,95.3594 2296.5938,94.2656 Q2297.2031,93.1719 2298.25,92.5938 Q2299.3125,92 2300.5,92 Q2301.2188,92 2301.8438,92.25 Q2302.4688,92.5 2303,93 Z "/><text fill="#000000" font-family="sans-serif" font-size="12" lengthAdjust="spacingAndGlyphs" textLength="86" x="2315" y="101.4102">MakeAnOrderUI</text><line style="stroke: #A80036; stroke-width: 1.5;" x1="2287" x2="2403" y1="112.5" y2="112.5"/><line style="stroke: #A80036; stroke-width: 1.5;" x1="2287" x2="2403" y1="120.5" y2="120.5"/><!--MD5=[7f25cae4ec750c15eb10841bd194e692]
class MakeAnOrderController--><rect fill="#FEFECE" filter="url(#f1leiyvnrdt24b)" height="158.6875" id="MakeAnOrderController" style="stroke: #A80036; stroke-width: 1.5;" width="241" x="2150.5" y="233.5"/><ellipse cx="2202.75" cy="249.5" fill="#ADD1B2" rx="11" ry="11" style="stroke: #A80036; stroke-width: 1.0;"/><path d="M2204.75,246 Q2204.9531,245.5 2205.1875,245.25 Q2205.4219,245 2205.6875,245 Q2206.1563,245 2206.4531,245.2813 Q2206.75,245.5625 2206.75,246.2188 L2206.75,247.7813 Q2206.75,248.4375 2206.4688,248.7188 Q2206.1875,249 2205.75,249 Q2205.3594,249 2205.1094,248.8281 Q2204.8594,248.6563 2204.75,248.2031 Q2204.7031,247.8906 2204.5313,247.7188 Q2204.2188,247.3906 2203.6563,247.2031 Q2203.0938,247 2202.5313,247 Q2201.8281,247 2201.2344,247.2813 Q2200.6563,247.5625 2200.2031,248.1875 Q2199.75,248.8125 2199.75,249.6719 L2199.75,250.5938 Q2199.75,251.625 2200.5938,252.3125 Q2201.4375,253 2202.9375,253 Q2203.8281,253 2204.4531,252.7969 Q2204.8125,252.6875 2205.2188,252.3281 Q2205.4844,252.125 2205.625,252.0625 Q2205.7656,252 2205.9375,252 Q2206.2656,252 2206.5,252.2656 Q2206.75,252.5156 2206.75,252.875 Q2206.75,253.2188 2206.4063,253.625 Q2205.9063,254.2188 2205.1094,254.5469 Q2204.0625,255 2202.7813,255 Q2201.2813,255 2200.0781,254.4063 Q2199.1094,253.9375 2198.4219,252.9219 Q2197.75,251.9063 2197.75,250.7031 L2197.75,249.6094 Q2197.75,248.3594 2198.3438,247.2656 Q2198.9531,246.1719 2200,245.5938 Q2201.0625,245 2202.25,245 Q2202.9688,245 2203.5938,245.25 Q2204.2188,245.5 2204.75,246 Z "/><text fill="#000000" font-family="sans-serif" font-size="12" lengthAdjust="spacingAndGlyphs" textLength="128" x="2223.25" y="254.4102">MakeAnOrderController</text><line style="stroke: #A80036; stroke-width: 1.5;" x1="2151.5" x2="2390.5" y1="265.5" y2="265.5"/><line style="stroke: #A80036; stroke-width: 1.5;" x1="2151.5" x2="2390.5" y1="273.5" y2="273.5"/><text fill="#000000" font-family="sans-serif" font-size="11" lengthAdjust="spacingAndGlyphs" textLength="117" x="2156.5" y="288.9189">+newOrder(description)</text><text fill="#000000" font-family="sans-serif" font-size="11" lengthAdjust="spacingAndGlyphs" textLength="79" x="2156.5" y="302.7549">+registerOrder()</text><text fill="#000000" font-family="sans-serif" font-size="11" lengthAdjust="spacingAndGlyphs" textLength="172" x="2156.5" y="316.5908">+getAvailableProducts(pharmacyId)</text><text fill="#000000" font-family="sans-serif" font-size="11" lengthAdjust="spacingAndGlyphs" textLength="85" x="2156.5" y="330.4268">+getPharmacies()</text><text fill="#000000" font-family="sans-serif" font-size="11" lengthAdjust="spacingAndGlyphs" textLength="190" x="2156.5" y="344.2627">+addProductToOrder(product, quantity)</text><text fill="#000000" font-family="sans-serif" font-size="11" lengthAdjust="spacingAndGlyphs" textLength="160" x="2156.5" y="358.0986">+setHomeDelivery(homeDelivery)</text><text fill="#000000" font-family="sans-serif" font-size="11" lengthAdjust="spacingAndGlyphs" textLength="229" x="2156.5" y="371.9346">+lstCreditCards = getCreditCardsByClient(email)</text><text fill="#000000" font-family="sans-serif" font-size="11" lengthAdjust="spacingAndGlyphs" textLength="164" x="2156.5" y="385.7705">+addPayment(creditCard, amount)</text><!--MD5=[3289848d71879b0f734b9b16b9111738]
class GenerateInvoiceController--><rect fill="#FEFECE" filter="url(#f1leiyvnrdt24b)" height="61.8359" id="GenerateInvoiceController" style="stroke: #A80036; stroke-width: 1.5;" width="202" x="2427" y="282"/><ellipse cx="2454.15" cy="298" fill="#ADD1B2" rx="11" ry="11" style="stroke: #A80036; stroke-width: 1.0;"/><path d="M2456.15,294.5 Q2456.3531,294 2456.5875,293.75 Q2456.8219,293.5 2457.0875,293.5 Q2457.5563,293.5 2457.8531,293.7813 Q2458.15,294.0625 2458.15,294.7188 L2458.15,296.2813 Q2458.15,296.9375 2457.8688,297.2188 Q2457.5875,297.5 2457.15,297.5 Q2456.7594,297.5 2456.5094,297.3281 Q2456.2594,297.1563 2456.15,296.7031 Q2456.1031,296.3906 2455.9313,296.2188 Q2455.6188,295.8906 2455.0563,295.7031 Q2454.4938,295.5 2453.9313,295.5 Q2453.2281,295.5 2452.6344,295.7813 Q2452.0563,296.0625 2451.6031,296.6875 Q2451.15,297.3125 2451.15,298.1719 L2451.15,299.0938 Q2451.15,300.125 2451.9938,300.8125 Q2452.8375,301.5 2454.3375,301.5 Q2455.2281,301.5 2455.8531,301.2969 Q2456.2125,301.1875 2456.6188,300.8281 Q2456.8844,300.625 2457.025,300.5625 Q2457.1656,300.5 2457.3375,300.5 Q2457.6656,300.5 2457.9,300.7656 Q2458.15,301.0156 2458.15,301.375 Q2458.15,301.7188 2457.8063,302.125 Q2457.3063,302.7188 2456.5094,303.0469 Q2455.4625,303.5 2454.1813,303.5 Q2452.6813,303.5 2451.4781,302.9063 Q2450.5094,302.4375 2449.8219,301.4219 Q2449.15,300.4063 2449.15,299.2031 L2449.15,298.1094 Q2449.15,296.8594 2449.7438,295.7656 Q2450.3531,294.6719 2451.4,294.0938 Q2452.4625,293.5 2453.65,293.5 Q2454.3688,293.5 2454.9938,293.75 Q2455.6188,294 2456.15,294.5 Z "/><text fill="#000000" font-family="sans-serif" font-size="12" lengthAdjust="spacingAndGlyphs" textLength="143" x="2470.85" y="302.9102">GenerateInvoiceController</text><line style="stroke: #A80036; stroke-width: 1.5;" x1="2428" x2="2628" y1="314" y2="314"/><line style="stroke: #A80036; stroke-width: 1.5;" x1="2428" x2="2628" y1="322" y2="322"/><text fill="#000000" font-family="sans-serif" font-size="11" lengthAdjust="spacingAndGlyphs" textLength="190" x="2433" y="337.4189">+generateInvoice(order, mapPayments)</text><!--MD5=[e45a4727c47b726c25e081782e8bc183]
class ApplicationPOT--><rect fill="#FEFECE" filter="url(#f1leiyvnrdt24b)" height="75.6719" id="ApplicationPOT" style="stroke: #A80036; stroke-width: 1.5;" width="116" x="2166" y="546.5"/><ellipse cx="2181" cy="562.5" fill="#ADD1B2" rx="11" ry="11" style="stroke: #A80036; stroke-width: 1.0;"/><path d="M2183,559 Q2183.2031,558.5 2183.4375,558.25 Q2183.6719,558 2183.9375,558 Q2184.4063,558 2184.7031,558.2813 Q2185,558.5625 2185,559.2188 L2185,560.7813 Q2185,561.4375 2184.7188,561.7188 Q2184.4375,562 2184,562 Q2183.6094,562 2183.3594,561.8281 Q2183.1094,561.6563 2183,561.2031 Q2182.9531,560.8906 2182.7813,560.7188 Q2182.4688,560.3906 2181.9063,560.2031 Q2181.3438,560 2180.7813,560 Q2180.0781,560 2179.4844,560.2813 Q2178.9063,560.5625 2178.4531,561.1875 Q2178,561.8125 2178,562.6719 L2178,563.5938 Q2178,564.625 2178.8438,565.3125 Q2179.6875,566 2181.1875,566 Q2182.0781,566 2182.7031,565.7969 Q2183.0625,565.6875 2183.4688,565.3281 Q2183.7344,565.125 2183.875,565.0625 Q2184.0156,565 2184.1875,565 Q2184.5156,565 2184.75,565.2656 Q2185,565.5156 2185,565.875 Q2185,566.2188 2184.6563,566.625 Q2184.1563,567.2188 2183.3594,567.5469 Q2182.3125,568 2181.0313,568 Q2179.5313,568 2178.3281,567.4063 Q2177.3594,566.9375 2176.6719,565.9219 Q2176,564.9063 2176,563.7031 L2176,562.6094 Q2176,561.3594 2176.5938,560.2656 Q2177.2031,559.1719 2178.25,558.5938 Q2179.3125,558 2180.5,558 Q2181.2188,558 2181.8438,558.25 Q2182.4688,558.5 2183,559 Z "/><text fill="#000000" font-family="sans-serif" font-size="12" lengthAdjust="spacingAndGlyphs" textLength="84" x="2195" y="567.4102">ApplicationPOT</text><line style="stroke: #A80036; stroke-width: 1.5;" x1="2167" x2="2281" y1="578.5" y2="578.5"/><line style="stroke: #A80036; stroke-width: 1.5;" x1="2167" x2="2281" y1="586.5" y2="586.5"/><text fill="#000000" font-family="sans-serif" font-size="11" lengthAdjust="spacingAndGlyphs" textLength="99" x="2172" y="601.9189">+static getInstance()</text><text fill="#000000" font-family="sans-serif" font-size="11" lengthAdjust="spacingAndGlyphs" textLength="68" x="2172" y="615.7549">+getPlatform()</text><!--MD5=[c5b08e60048ef1bcd788d24cf324082e]
class UserSession--><rect fill="#FEFECE" filter="url(#f1leiyvnrdt24b)" height="61.8359" id="UserSession" style="stroke: #A80036; stroke-width: 1.5;" width="116" x="2317" y="553.5"/><ellipse cx="2336.95" cy="569.5" fill="#ADD1B2" rx="11" ry="11" style="stroke: #A80036; stroke-width: 1.0;"/><path d="M2338.95,566 Q2339.1531,565.5 2339.3875,565.25 Q2339.6219,565 2339.8875,565 Q2340.3563,565 2340.6531,565.2813 Q2340.95,565.5625 2340.95,566.2188 L2340.95,567.7813 Q2340.95,568.4375 2340.6688,568.7188 Q2340.3875,569 2339.95,569 Q2339.5594,569 2339.3094,568.8281 Q2339.0594,568.6563 2338.95,568.2031 Q2338.9031,567.8906 2338.7313,567.7188 Q2338.4188,567.3906 2337.8563,567.2031 Q2337.2938,567 2336.7313,567 Q2336.0281,567 2335.4344,567.2813 Q2334.8563,567.5625 2334.4031,568.1875 Q2333.95,568.8125 2333.95,569.6719 L2333.95,570.5938 Q2333.95,571.625 2334.7938,572.3125 Q2335.6375,573 2337.1375,573 Q2338.0281,573 2338.6531,572.7969 Q2339.0125,572.6875 2339.4188,572.3281 Q2339.6844,572.125 2339.825,572.0625 Q2339.9656,572 2340.1375,572 Q2340.4656,572 2340.7,572.2656 Q2340.95,572.5156 2340.95,572.875 Q2340.95,573.2188 2340.6063,573.625 Q2340.1063,574.2188 2339.3094,574.5469 Q2338.2625,575 2336.9813,575 Q2335.4813,575 2334.2781,574.4063 Q2333.3094,573.9375 2332.6219,572.9219 Q2331.95,571.9063 2331.95,570.7031 L2331.95,569.6094 Q2331.95,568.3594 2332.5438,567.2656 Q2333.1531,566.1719 2334.2,565.5938 Q2335.2625,565 2336.45,565 Q2337.1688,565 2337.7938,565.25 Q2338.4188,565.5 2338.95,566 Z "/><text fill="#000000" font-family="sans-serif" font-size="12" lengthAdjust="spacingAndGlyphs" textLength="73" x="2352.05" y="574.4102">UserSession</text><line style="stroke: #A80036; stroke-width: 1.5;" x1="2318" x2="2432" y1="585.5" y2="585.5"/><line style="stroke: #A80036; stroke-width: 1.5;" x1="2318" x2="2432" y1="593.5" y2="593.5"/><text fill="#000000" font-family="sans-serif" font-size="11" lengthAdjust="spacingAndGlyphs" textLength="104" x="2323" y="608.9189">+getCurrentSession()</text><!--MD5=[fa1e3283224feb76407c84b7e90ed808]
entity Database--><path d="M652.5,1009.5 C652.5,999.5 693,999.5 693,999.5 C693,999.5 733.5,999.5 733.5,1009.5 L733.5,1036.1094 C733.5,1046.1094 693,1046.1094 693,1046.1094 C693,1046.1094 652.5,1046.1094 652.5,1036.1094 L652.5,1009.5 " fill="#FFFFFF" filter="url(#f1leiyvnrdt24b)" style="stroke: #000000; stroke-width: 1.5;"/><path d="M652.5,1009.5 C652.5,1019.5 693,1019.5 693,1019.5 C693,1019.5 733.5,1019.5 733.5,1009.5 " fill="none" style="stroke: #000000; stroke-width: 1.5;"/><text fill="#000000" font-family="sans-serif" font-size="14" lengthAdjust="spacingAndGlyphs" textLength="61" x="662.5" y="1038.0332">Database</text><!--MD5=[3fd616f346a44cd59a91eb10b19e157c]
class User--><rect fill="#FEFECE" filter="url(#f1leiyvnrdt24b)" height="103.3438" id="User" style="stroke: #A80036; stroke-width: 1.5;" width="97" x="1996.5" y="533"/><ellipse cx="2029.05" cy="549" fill="#A9DCDF" rx="11" ry="11" style="stroke: #A80036; stroke-width: 1.0;"/><path d="M2030.8,550.5 L2027.5031,550.5 L2027.0656,551.5 L2027.0656,551.5 L2027.5344,551.5 L2028.05,552.125 L2028.05,552.5 L2028.05,552.875 L2027.5344,553.5 L2027.0656,553.5 L2025.175,553.5 L2024.5656,553.5 L2024.05,552.875 L2024.05,552.5 L2024.05,552.125 L2024.5656,551.5 L2025.175,551.5 L2027.4875,545.5 L2026.6125,545.5 L2025.5656,545.5 L2025.05,544.875 L2025.05,544.5 L2025.05,544.125 L2025.5656,543.5 L2026.6125,543.5 L2030.2844,543.5 L2032.9719,551.5 L2033.5344,551.5 L2033.5344,551.5 L2034.05,552.125 L2034.05,552.5 L2034.05,552.875 L2033.5344,553.5 L2032.9719,553.5 L2031.0813,553.5 L2030.5656,553.5 L2030.05,552.875 L2030.05,552.5 L2030.05,552.125 L2030.5656,551.5 L2031.0813,551.5 L2031.0813,551.5 L2030.8,550.5 Z M2030.2531,548.5 L2029.05,544.9219 L2028.0188,548.5 L2030.2531,548.5 Z "/><text fill="#000000" font-family="sans-serif" font-size="12" font-style="italic" lengthAdjust="spacingAndGlyphs" textLength="26" x="2046.95" y="553.9102">User</text><line style="stroke: #A80036; stroke-width: 1.5;" x1="1997.5" x2="2092.5" y1="565" y2="565"/><text fill="#000000" font-family="sans-serif" font-size="11" lengthAdjust="spacingAndGlyphs" textLength="61" x="2002.5" y="580.4189">-String name</text><text fill="#000000" font-family="sans-serif" font-size="11" lengthAdjust="spacingAndGlyphs" textLength="59" x="2002.5" y="594.2549">-String email</text><text fill="#000000" font-family="sans-serif" font-size="11" lengthAdjust="spacingAndGlyphs" textLength="85" x="2002.5" y="608.0908">-String password</text><text fill="#000000" font-family="sans-serif" font-size="11" lengthAdjust="spacingAndGlyphs" textLength="52" x="2002.5" y="621.9268">-Integer nif</text><line style="stroke: #A80036; stroke-width: 1.5;" x1="1997.5" x2="2092.5" y1="628.3438" y2="628.3438"/><!--MD5=[ed6624c6556d5e7b1bd23032162d20b7]
class Client--><rect fill="#FEFECE" filter="url(#f1leiyvnrdt24b)" height="117.1797" id="Client" style="stroke: #A80036; stroke-width: 1.5;" width="155" x="1620.5" y="714"/><ellipse cx="1677.75" cy="730" fill="#ADD1B2" rx="11" ry="11" style="stroke: #A80036; stroke-width: 1.0;"/><path d="M1679.75,726.5 Q1679.9531,726 1680.1875,725.75 Q1680.4219,725.5 1680.6875,725.5 Q1681.1563,725.5 1681.4531,725.7813 Q1681.75,726.0625 1681.75,726.7188 L1681.75,728.2813 Q1681.75,728.9375 1681.4688,729.2188 Q1681.1875,729.5 1680.75,729.5 Q1680.3594,729.5 1680.1094,729.3281 Q1679.8594,729.1563 1679.75,728.7031 Q1679.7031,728.3906 1679.5313,728.2188 Q1679.2188,727.8906 1678.6563,727.7031 Q1678.0938,727.5 1677.5313,727.5 Q1676.8281,727.5 1676.2344,727.7813 Q1675.6563,728.0625 1675.2031,728.6875 Q1674.75,729.3125 1674.75,730.1719 L1674.75,731.0938 Q1674.75,732.125 1675.5938,732.8125 Q1676.4375,733.5 1677.9375,733.5 Q1678.8281,733.5 1679.4531,733.2969 Q1679.8125,733.1875 1680.2188,732.8281 Q1680.4844,732.625 1680.625,732.5625 Q1680.7656,732.5 1680.9375,732.5 Q1681.2656,732.5 1681.5,732.7656 Q1681.75,733.0156 1681.75,733.375 Q1681.75,733.7188 1681.4063,734.125 Q1680.9063,734.7188 1680.1094,735.0469 Q1679.0625,735.5 1677.7813,735.5 Q1676.2813,735.5 1675.0781,734.9063 Q1674.1094,734.4375 1673.4219,733.4219 Q1672.75,732.4063 1672.75,731.2031 L1672.75,730.1094 Q1672.75,728.8594 1673.3438,727.7656 Q1673.9531,726.6719 1675,726.0938 Q1676.0625,725.5 1677.25,725.5 Q1677.9688,725.5 1678.5938,725.75 Q1679.2188,726 1679.75,726.5 Z "/><text fill="#000000" font-family="sans-serif" font-size="12" lengthAdjust="spacingAndGlyphs" textLength="32" x="1698.25" y="734.9102">Client</text><line style="stroke: #A80036; stroke-width: 1.5;" x1="1621.5" x2="1774.5" y1="746" y2="746"/><text fill="#000000" font-family="sans-serif" font-size="11" lengthAdjust="spacingAndGlyphs" textLength="42" x="1626.5" y="761.4189">-int IBAN</text><text fill="#000000" font-family="sans-serif" font-size="11" lengthAdjust="spacingAndGlyphs" textLength="114" x="1626.5" y="775.2549">-long creditCardNumber</text><text fill="#000000" font-family="sans-serif" font-size="11" lengthAdjust="spacingAndGlyphs" textLength="73" x="1626.5" y="789.0908">-int validityDate</text><text fill="#000000" font-family="sans-serif" font-size="11" lengthAdjust="spacingAndGlyphs" textLength="40" x="1626.5" y="802.9268">-int CCV</text><line style="stroke: #A80036; stroke-width: 1.5;" x1="1621.5" x2="1774.5" y1="809.3438" y2="809.3438"/><text fill="#000000" font-family="sans-serif" font-size="11" lengthAdjust="spacingAndGlyphs" textLength="143" x="1626.5" y="824.7627">+addCredits(addtionalCredits)</text><!--MD5=[0f39e4cb6f03951afbf6d14bd2505654]
class Address--><rect fill="#FEFECE" filter="url(#f1leiyvnrdt24b)" height="158.6875" id="Address" style="stroke: #A80036; stroke-width: 1.5;" width="106" x="1289" y="943.5"/><ellipse cx="1316.6" cy="959.5" fill="#ADD1B2" rx="11" ry="11" style="stroke: #A80036; stroke-width: 1.0;"/><path d="M1318.6,956 Q1318.8031,955.5 1319.0375,955.25 Q1319.2719,955 1319.5375,955 Q1320.0063,955 1320.3031,955.2813 Q1320.6,955.5625 1320.6,956.2188 L1320.6,957.7813 Q1320.6,958.4375 1320.3188,958.7188 Q1320.0375,959 1319.6,959 Q1319.2094,959 1318.9594,958.8281 Q1318.7094,958.6563 1318.6,958.2031 Q1318.5531,957.8906 1318.3813,957.7188 Q1318.0688,957.3906 1317.5063,957.2031 Q1316.9438,957 1316.3813,957 Q1315.6781,957 1315.0844,957.2813 Q1314.5063,957.5625 1314.0531,958.1875 Q1313.6,958.8125 1313.6,959.6719 L1313.6,960.5938 Q1313.6,961.625 1314.4438,962.3125 Q1315.2875,963 1316.7875,963 Q1317.6781,963 1318.3031,962.7969 Q1318.6625,962.6875 1319.0688,962.3281 Q1319.3344,962.125 1319.475,962.0625 Q1319.6156,962 1319.7875,962 Q1320.1156,962 1320.35,962.2656 Q1320.6,962.5156 1320.6,962.875 Q1320.6,963.2188 1320.2563,963.625 Q1319.7563,964.2188 1318.9594,964.5469 Q1317.9125,965 1316.6313,965 Q1315.1313,965 1313.9281,964.4063 Q1312.9594,963.9375 1312.2719,962.9219 Q1311.6,961.9063 1311.6,960.7031 L1311.6,959.6094 Q1311.6,958.3594 1312.1938,957.2656 Q1312.8031,956.1719 1313.85,955.5938 Q1314.9125,955 1316.1,955 Q1316.8188,955 1317.4438,955.25 Q1318.0688,955.5 1318.6,956 Z "/><text fill="#000000" font-family="sans-serif" font-size="12" lengthAdjust="spacingAndGlyphs" textLength="46" x="1333.4" y="964.4102">Address</text><line style="stroke: #A80036; stroke-width: 1.5;" x1="1290" x2="1394" y1="975.5" y2="975.5"/><text fill="#000000" font-family="sans-serif" font-size="11" lengthAdjust="spacingAndGlyphs" textLength="26" x="1295" y="990.9189">-int id</text><text fill="#000000" font-family="sans-serif" font-size="11" lengthAdjust="spacingAndGlyphs" textLength="90" x="1295" y="1004.7549">-String streetName</text><text fill="#000000" font-family="sans-serif" font-size="11" lengthAdjust="spacingAndGlyphs" textLength="94" x="1295" y="1018.5908">-String doorNumber</text><text fill="#000000" font-family="sans-serif" font-size="11" lengthAdjust="spacingAndGlyphs" textLength="89" x="1295" y="1032.4268">-String postalCode</text><text fill="#000000" font-family="sans-serif" font-size="11" lengthAdjust="spacingAndGlyphs" textLength="68" x="1295" y="1046.2627">-String locality</text><text fill="#000000" font-family="sans-serif" font-size="11" lengthAdjust="spacingAndGlyphs" textLength="72" x="1295" y="1060.0986">-String country</text><text fill="#000000" font-family="sans-serif" font-size="11" lengthAdjust="spacingAndGlyphs" textLength="71" x="1295" y="1073.9346">-float longitude</text><text fill="#000000" font-family="sans-serif" font-size="11" lengthAdjust="spacingAndGlyphs" textLength="62" x="1295" y="1087.7705">-float latitude</text><line style="stroke: #A80036; stroke-width: 1.5;" x1="1290" x2="1394" y1="1094.1875" y2="1094.1875"/><!--MD5=[cf4d6237fcae255cd2e1656cf84a30e2]
class Order--><rect fill="#FEFECE" filter="url(#f1leiyvnrdt24b)" height="227.8672" id="Order" style="stroke: #A80036; stroke-width: 1.5;" width="190" x="1064" y="909"/><ellipse cx="1139.25" cy="925" fill="#ADD1B2" rx="11" ry="11" style="stroke: #A80036; stroke-width: 1.0;"/><path d="M1141.25,921.5 Q1141.4531,921 1141.6875,920.75 Q1141.9219,920.5 1142.1875,920.5 Q1142.6563,920.5 1142.9531,920.7813 Q1143.25,921.0625 1143.25,921.7188 L1143.25,923.2813 Q1143.25,923.9375 1142.9688,924.2188 Q1142.6875,924.5 1142.25,924.5 Q1141.8594,924.5 1141.6094,924.3281 Q1141.3594,924.1563 1141.25,923.7031 Q1141.2031,923.3906 1141.0313,923.2188 Q1140.7188,922.8906 1140.1563,922.7031 Q1139.5938,922.5 1139.0313,922.5 Q1138.3281,922.5 1137.7344,922.7813 Q1137.1563,923.0625 1136.7031,923.6875 Q1136.25,924.3125 1136.25,925.1719 L1136.25,926.0938 Q1136.25,927.125 1137.0938,927.8125 Q1137.9375,928.5 1139.4375,928.5 Q1140.3281,928.5 1140.9531,928.2969 Q1141.3125,928.1875 1141.7188,927.8281 Q1141.9844,927.625 1142.125,927.5625 Q1142.2656,927.5 1142.4375,927.5 Q1142.7656,927.5 1143,927.7656 Q1143.25,928.0156 1143.25,928.375 Q1143.25,928.7188 1142.9063,929.125 Q1142.4063,929.7188 1141.6094,930.0469 Q1140.5625,930.5 1139.2813,930.5 Q1137.7813,930.5 1136.5781,929.9063 Q1135.6094,929.4375 1134.9219,928.4219 Q1134.25,927.4063 1134.25,926.2031 L1134.25,925.1094 Q1134.25,923.8594 1134.8438,922.7656 Q1135.4531,921.6719 1136.5,921.0938 Q1137.5625,920.5 1138.75,920.5 Q1139.4688,920.5 1140.0938,920.75 Q1140.7188,921 1141.25,921.5 Z "/><text fill="#000000" font-family="sans-serif" font-size="12" lengthAdjust="spacingAndGlyphs" textLength="31" x="1159.75" y="929.9102">Order</text><line style="stroke: #A80036; stroke-width: 1.5;" x1="1065" x2="1253" y1="941" y2="941"/><text fill="#000000" font-family="sans-serif" font-size="11" lengthAdjust="spacingAndGlyphs" textLength="26" x="1070" y="956.4189">-int id</text><text fill="#000000" font-family="sans-serif" font-size="11" lengthAdjust="spacingAndGlyphs" textLength="63" x="1070" y="970.2549">-float amount</text><text fill="#000000" font-family="sans-serif" font-size="11" lengthAdjust="spacingAndGlyphs" textLength="81" x="1070" y="984.0908">-float totalWeight</text><text fill="#000000" font-family="sans-serif" font-size="11" lengthAdjust="spacingAndGlyphs" textLength="91" x="1070" y="997.9268">-float additionalFee</text><text fill="#000000" font-family="sans-serif" font-size="11" lengthAdjust="spacingAndGlyphs" textLength="77" x="1070" y="1011.7627">-Date orderDate</text><text fill="#000000" font-family="sans-serif" font-size="11" lengthAdjust="spacingAndGlyphs" textLength="88" x="1070" y="1025.5986">-String description</text><text fill="#000000" font-family="sans-serif" font-size="11" lengthAdjust="spacingAndGlyphs" textLength="65" x="1070" y="1039.4346">-String status</text><text fill="#000000" font-family="sans-serif" font-size="11" lengthAdjust="spacingAndGlyphs" textLength="119" x="1070" y="1053.2705">-boolean isHomeDelivery</text><text fill="#000000" font-family="sans-serif" font-size="11" lengthAdjust="spacingAndGlyphs" textLength="178" x="1070" y="1067.1064">-Map&lt;Product, Integer&gt; mapProducts</text><line style="stroke: #A80036; stroke-width: 1.5;" x1="1065" x2="1253" y1="1073.5234" y2="1073.5234"/><text fill="#000000" font-family="sans-serif" font-size="11" lengthAdjust="spacingAndGlyphs" textLength="163" x="1070" y="1088.9424">+Order(description, mapProducts,</text><text fill="#000000" font-family="sans-serif" font-size="11" lengthAdjust="spacingAndGlyphs" textLength="163" x="1070" y="1102.7783">client, pharmacy, isHomeDelivery)</text><text fill="#000000" font-family="sans-serif" font-size="11" lengthAdjust="spacingAndGlyphs" textLength="94" x="1070" y="1116.6143">+calculateAmount()</text><text fill="#000000" font-family="sans-serif" font-size="11" lengthAdjust="spacingAndGlyphs" textLength="113" x="1070" y="1130.4502">+calculateTotalWeight()</text><!--MD5=[72136138052d025cffdce3c22fbd185f]
class Product--><rect fill="#FEFECE" filter="url(#f1leiyvnrdt24b)" height="117.1797" id="Product" style="stroke: #A80036; stroke-width: 1.5;" width="106" x="1040" y="1215"/><ellipse cx="1069.4" cy="1231" fill="#ADD1B2" rx="11" ry="11" style="stroke: #A80036; stroke-width: 1.0;"/><path d="M1071.4,1227.5 Q1071.6031,1227 1071.8375,1226.75 Q1072.0719,1226.5 1072.3375,1226.5 Q1072.8063,1226.5 1073.1031,1226.7813 Q1073.4,1227.0625 1073.4,1227.7188 L1073.4,1229.2813 Q1073.4,1229.9375 1073.1188,1230.2188 Q1072.8375,1230.5 1072.4,1230.5 Q1072.0094,1230.5 1071.7594,1230.3281 Q1071.5094,1230.1563 1071.4,1229.7031 Q1071.3531,1229.3906 1071.1813,1229.2188 Q1070.8688,1228.8906 1070.3063,1228.7031 Q1069.7438,1228.5 1069.1813,1228.5 Q1068.4781,1228.5 1067.8844,1228.7813 Q1067.3063,1229.0625 1066.8531,1229.6875 Q1066.4,1230.3125 1066.4,1231.1719 L1066.4,1232.0938 Q1066.4,1233.125 1067.2438,1233.8125 Q1068.0875,1234.5 1069.5875,1234.5 Q1070.4781,1234.5 1071.1031,1234.2969 Q1071.4625,1234.1875 1071.8688,1233.8281 Q1072.1344,1233.625 1072.275,1233.5625 Q1072.4156,1233.5 1072.5875,1233.5 Q1072.9156,1233.5 1073.15,1233.7656 Q1073.4,1234.0156 1073.4,1234.375 Q1073.4,1234.7188 1073.0563,1235.125 Q1072.5563,1235.7188 1071.7594,1236.0469 Q1070.7125,1236.5 1069.4313,1236.5 Q1067.9313,1236.5 1066.7281,1235.9063 Q1065.7594,1235.4375 1065.0719,1234.4219 Q1064.4,1233.4063 1064.4,1232.2031 L1064.4,1231.1094 Q1064.4,1229.8594 1064.9938,1228.7656 Q1065.6031,1227.6719 1066.65,1227.0938 Q1067.7125,1226.5 1068.9,1226.5 Q1069.6188,1226.5 1070.2438,1226.75 Q1070.8688,1227 1071.4,1227.5 Z "/><text fill="#000000" font-family="sans-serif" font-size="12" lengthAdjust="spacingAndGlyphs" textLength="42" x="1086.6" y="1235.9102">Product</text><line style="stroke: #A80036; stroke-width: 1.5;" x1="1041" x2="1145" y1="1247" y2="1247"/><text fill="#000000" font-family="sans-serif" font-size="11" lengthAdjust="spacingAndGlyphs" textLength="26" x="1046" y="1262.4189">-int id</text><text fill="#000000" font-family="sans-serif" font-size="11" lengthAdjust="spacingAndGlyphs" textLength="61" x="1046" y="1276.2549">-String name</text><text fill="#000000" font-family="sans-serif" font-size="11" lengthAdjust="spacingAndGlyphs" textLength="88" x="1046" y="1290.0908">-String description</text><text fill="#000000" font-family="sans-serif" font-size="11" lengthAdjust="spacingAndGlyphs" textLength="85" x="1046" y="1303.9268">-float unitaryPrice</text><text fill="#000000" font-family="sans-serif" font-size="11" lengthAdjust="spacingAndGlyphs" textLength="94" x="1046" y="1317.7627">-float unitaryWeight</text><line style="stroke: #A80036; stroke-width: 1.5;" x1="1041" x2="1145" y1="1324.1797" y2="1324.1797"/><!--MD5=[7f2a9fafcebe4f099f71398fd3e2ed00]
class Pharmacy--><rect fill="#FEFECE" filter="url(#f1leiyvnrdt24b)" height="75.6719" id="Pharmacy" style="stroke: #A80036; stroke-width: 1.5;" width="87" x="871.5" y="1235.5"/><ellipse cx="886.5" cy="1251.5" fill="#ADD1B2" rx="11" ry="11" style="stroke: #A80036; stroke-width: 1.0;"/><path d="M888.5,1248 Q888.7031,1247.5 888.9375,1247.25 Q889.1719,1247 889.4375,1247 Q889.9063,1247 890.2031,1247.2813 Q890.5,1247.5625 890.5,1248.2188 L890.5,1249.7813 Q890.5,1250.4375 890.2188,1250.7188 Q889.9375,1251 889.5,1251 Q889.1094,1251 888.8594,1250.8281 Q888.6094,1250.6563 888.5,1250.2031 Q888.4531,1249.8906 888.2813,1249.7188 Q887.9688,1249.3906 887.4063,1249.2031 Q886.8438,1249 886.2813,1249 Q885.5781,1249 884.9844,1249.2813 Q884.4063,1249.5625 883.9531,1250.1875 Q883.5,1250.8125 883.5,1251.6719 L883.5,1252.5938 Q883.5,1253.625 884.3438,1254.3125 Q885.1875,1255 886.6875,1255 Q887.5781,1255 888.2031,1254.7969 Q888.5625,1254.6875 888.9688,1254.3281 Q889.2344,1254.125 889.375,1254.0625 Q889.5156,1254 889.6875,1254 Q890.0156,1254 890.25,1254.2656 Q890.5,1254.5156 890.5,1254.875 Q890.5,1255.2188 890.1563,1255.625 Q889.6563,1256.2188 888.8594,1256.5469 Q887.8125,1257 886.5313,1257 Q885.0313,1257 883.8281,1256.4063 Q882.8594,1255.9375 882.1719,1254.9219 Q881.5,1253.9063 881.5,1252.7031 L881.5,1251.6094 Q881.5,1250.3594 882.0938,1249.2656 Q882.7031,1248.1719 883.75,1247.5938 Q884.8125,1247 886,1247 Q886.7188,1247 887.3438,1247.25 Q887.9688,1247.5 888.5,1248 Z "/><text fill="#000000" font-family="sans-serif" font-size="12" lengthAdjust="spacingAndGlyphs" textLength="55" x="900.5" y="1256.4102">Pharmacy</text><line style="stroke: #A80036; stroke-width: 1.5;" x1="872.5" x2="957.5" y1="1267.5" y2="1267.5"/><text fill="#000000" font-family="sans-serif" font-size="11" lengthAdjust="spacingAndGlyphs" textLength="26" x="877.5" y="1282.9189">-int id</text><text fill="#000000" font-family="sans-serif" font-size="11" lengthAdjust="spacingAndGlyphs" textLength="61" x="877.5" y="1296.7549">-String name</text><line style="stroke: #A80036; stroke-width: 1.5;" x1="872.5" x2="957.5" y1="1303.1719" y2="1303.1719"/><!--MD5=[91d4151b6d4c9a3d01b6d84b2458eece]
class CreditCard--><rect fill="#FEFECE" filter="url(#f1leiyvnrdt24b)" height="103.3438" id="CreditCard" style="stroke: #A80036; stroke-width: 1.5;" width="104" x="1430" y="971.5"/><ellipse cx="1450.4" cy="987.5" fill="#ADD1B2" rx="11" ry="11" style="stroke: #A80036; stroke-width: 1.0;"/><path d="M1452.4,984 Q1452.6031,983.5 1452.8375,983.25 Q1453.0719,983 1453.3375,983 Q1453.8063,983 1454.1031,983.2813 Q1454.4,983.5625 1454.4,984.2188 L1454.4,985.7813 Q1454.4,986.4375 1454.1188,986.7188 Q1453.8375,987 1453.4,987 Q1453.0094,987 1452.7594,986.8281 Q1452.5094,986.6563 1452.4,986.2031 Q1452.3531,985.8906 1452.1813,985.7188 Q1451.8688,985.3906 1451.3063,985.2031 Q1450.7438,985 1450.1813,985 Q1449.4781,985 1448.8844,985.2813 Q1448.3063,985.5625 1447.8531,986.1875 Q1447.4,986.8125 1447.4,987.6719 L1447.4,988.5938 Q1447.4,989.625 1448.2438,990.3125 Q1449.0875,991 1450.5875,991 Q1451.4781,991 1452.1031,990.7969 Q1452.4625,990.6875 1452.8688,990.3281 Q1453.1344,990.125 1453.275,990.0625 Q1453.4156,990 1453.5875,990 Q1453.9156,990 1454.15,990.2656 Q1454.4,990.5156 1454.4,990.875 Q1454.4,991.2188 1454.0563,991.625 Q1453.5563,992.2188 1452.7594,992.5469 Q1451.7125,993 1450.4313,993 Q1448.9313,993 1447.7281,992.4063 Q1446.7594,991.9375 1446.0719,990.9219 Q1445.4,989.9063 1445.4,988.7031 L1445.4,987.6094 Q1445.4,986.3594 1445.9938,985.2656 Q1446.6031,984.1719 1447.65,983.5938 Q1448.7125,983 1449.9,983 Q1450.6188,983 1451.2438,983.25 Q1451.8688,983.5 1452.4,984 Z "/><text fill="#000000" font-family="sans-serif" font-size="12" lengthAdjust="spacingAndGlyphs" textLength="60" x="1465.6" y="992.4102">CreditCard</text><line style="stroke: #A80036; stroke-width: 1.5;" x1="1431" x2="1533" y1="1003.5" y2="1003.5"/><text fill="#000000" font-family="sans-serif" font-size="11" lengthAdjust="spacingAndGlyphs" textLength="26" x="1436" y="1018.9189">-int id</text><text fill="#000000" font-family="sans-serif" font-size="11" lengthAdjust="spacingAndGlyphs" textLength="92" x="1436" y="1032.7549">-Long creditCardNr</text><text fill="#000000" font-family="sans-serif" font-size="11" lengthAdjust="spacingAndGlyphs" textLength="90" x="1436" y="1046.5908">-String validityDate</text><text fill="#000000" font-family="sans-serif" font-size="11" lengthAdjust="spacingAndGlyphs" textLength="62" x="1436" y="1060.4268">-Integer CCV</text><line style="stroke: #A80036; stroke-width: 1.5;" x1="1431" x2="1533" y1="1066.8438" y2="1066.8438"/><!--MD5=[894442645724153f40a9f7a43026dbfc]
class Invoice--><rect fill="#FEFECE" filter="url(#f1leiyvnrdt24b)" height="103.3438" id="Invoice" style="stroke: #A80036; stroke-width: 1.5;" width="198" x="1763" y="533"/><ellipse cx="1838.75" cy="549" fill="#ADD1B2" rx="11" ry="11" style="stroke: #A80036; stroke-width: 1.0;"/><path d="M1840.75,545.5 Q1840.9531,545 1841.1875,544.75 Q1841.4219,544.5 1841.6875,544.5 Q1842.1563,544.5 1842.4531,544.7813 Q1842.75,545.0625 1842.75,545.7188 L1842.75,547.2813 Q1842.75,547.9375 1842.4688,548.2188 Q1842.1875,548.5 1841.75,548.5 Q1841.3594,548.5 1841.1094,548.3281 Q1840.8594,548.1563 1840.75,547.7031 Q1840.7031,547.3906 1840.5313,547.2188 Q1840.2188,546.8906 1839.6563,546.7031 Q1839.0938,546.5 1838.5313,546.5 Q1837.8281,546.5 1837.2344,546.7813 Q1836.6563,547.0625 1836.2031,547.6875 Q1835.75,548.3125 1835.75,549.1719 L1835.75,550.0938 Q1835.75,551.125 1836.5938,551.8125 Q1837.4375,552.5 1838.9375,552.5 Q1839.8281,552.5 1840.4531,552.2969 Q1840.8125,552.1875 1841.2188,551.8281 Q1841.4844,551.625 1841.625,551.5625 Q1841.7656,551.5 1841.9375,551.5 Q1842.2656,551.5 1842.5,551.7656 Q1842.75,552.0156 1842.75,552.375 Q1842.75,552.7188 1842.4063,553.125 Q1841.9063,553.7188 1841.1094,554.0469 Q1840.0625,554.5 1838.7813,554.5 Q1837.2813,554.5 1836.0781,553.9063 Q1835.1094,553.4375 1834.4219,552.4219 Q1833.75,551.4063 1833.75,550.2031 L1833.75,549.1094 Q1833.75,547.8594 1834.3438,546.7656 Q1834.9531,545.6719 1836,545.0938 Q1837.0625,544.5 1838.25,544.5 Q1838.9688,544.5 1839.5938,544.75 Q1840.2188,545 1840.75,545.5 Z "/><text fill="#000000" font-family="sans-serif" font-size="12" lengthAdjust="spacingAndGlyphs" textLength="38" x="1859.25" y="553.9102">Invoice</text><line style="stroke: #A80036; stroke-width: 1.5;" x1="1764" x2="1960" y1="565" y2="565"/><text fill="#000000" font-family="sans-serif" font-size="11" lengthAdjust="spacingAndGlyphs" textLength="26" x="1769" y="580.4189">-int id</text><text fill="#000000" font-family="sans-serif" font-size="11" lengthAdjust="spacingAndGlyphs" textLength="77" x="1769" y="594.2549">-Date orderDate</text><text fill="#000000" font-family="sans-serif" font-size="11" lengthAdjust="spacingAndGlyphs" textLength="85" x="1769" y="608.0908">-float totalAmount</text><text fill="#000000" font-family="sans-serif" font-size="11" lengthAdjust="spacingAndGlyphs" textLength="186" x="1769" y="621.9268">-Map&lt;CreditCard, Float&gt; mapPayments</text><line style="stroke: #A80036; stroke-width: 1.5;" x1="1764" x2="1960" y1="628.3438" y2="628.3438"/><!--MD5=[7655a4d4bd54a6253b7313a085dd4122]
class OrderService--><rect fill="#FEFECE" filter="url(#f1leiyvnrdt24b)" height="89.5078" id="OrderService" style="stroke: #A80036; stroke-width: 1.5;" width="359" x="1172.5" y="539.5"/><ellipse cx="1312.25" cy="555.5" fill="#ADD1B2" rx="11" ry="11" style="stroke: #A80036; stroke-width: 1.0;"/><path d="M1314.25,552 Q1314.4531,551.5 1314.6875,551.25 Q1314.9219,551 1315.1875,551 Q1315.6563,551 1315.9531,551.2813 Q1316.25,551.5625 1316.25,552.2188 L1316.25,553.7813 Q1316.25,554.4375 1315.9688,554.7188 Q1315.6875,555 1315.25,555 Q1314.8594,555 1314.6094,554.8281 Q1314.3594,554.6563 1314.25,554.2031 Q1314.2031,553.8906 1314.0313,553.7188 Q1313.7188,553.3906 1313.1563,553.2031 Q1312.5938,553 1312.0313,553 Q1311.3281,553 1310.7344,553.2813 Q1310.1563,553.5625 1309.7031,554.1875 Q1309.25,554.8125 1309.25,555.6719 L1309.25,556.5938 Q1309.25,557.625 1310.0938,558.3125 Q1310.9375,559 1312.4375,559 Q1313.3281,559 1313.9531,558.7969 Q1314.3125,558.6875 1314.7188,558.3281 Q1314.9844,558.125 1315.125,558.0625 Q1315.2656,558 1315.4375,558 Q1315.7656,558 1316,558.2656 Q1316.25,558.5156 1316.25,558.875 Q1316.25,559.2188 1315.9063,559.625 Q1315.4063,560.2188 1314.6094,560.5469 Q1313.5625,561 1312.2813,561 Q1310.7813,561 1309.5781,560.4063 Q1308.6094,559.9375 1307.9219,558.9219 Q1307.25,557.9063 1307.25,556.7031 L1307.25,555.6094 Q1307.25,554.3594 1307.8438,553.2656 Q1308.4531,552.1719 1309.5,551.5938 Q1310.5625,551 1311.75,551 Q1312.4688,551 1313.0938,551.25 Q1313.7188,551.5 1314.25,552 Z "/><text fill="#000000" font-family="sans-serif" font-size="12" lengthAdjust="spacingAndGlyphs" textLength="71" x="1332.75" y="560.4102">OrderService</text><line style="stroke: #A80036; stroke-width: 1.5;" x1="1173.5" x2="1530.5" y1="571.5" y2="571.5"/><line style="stroke: #A80036; stroke-width: 1.5;" x1="1173.5" x2="1530.5" y1="579.5" y2="579.5"/><text fill="#000000" font-family="sans-serif" font-size="11" lengthAdjust="spacingAndGlyphs" textLength="79" x="1178.5" y="594.9189">+OrderService()</text><text fill="#000000" font-family="sans-serif" font-size="11" lengthAdjust="spacingAndGlyphs" textLength="347" x="1178.5" y="608.7549">+addOrder(description, mapProducts, client, pharmacy, isHomeDelivery)</text><text fill="#000000" font-family="sans-serif" font-size="11" lengthAdjust="spacingAndGlyphs" textLength="105" x="1178.5" y="622.5908">+registerOrder(order)</text><!--MD5=[28160fdc0be430cd6f04db15a7547552]
class PharmacyService--><rect fill="#FEFECE" filter="url(#f1leiyvnrdt24b)" height="75.6719" id="PharmacyService" style="stroke: #A80036; stroke-width: 1.5;" width="127" x="790.5" y="546.5"/><ellipse cx="805.5" cy="562.5" fill="#ADD1B2" rx="11" ry="11" style="stroke: #A80036; stroke-width: 1.0;"/><path d="M807.5,559 Q807.7031,558.5 807.9375,558.25 Q808.1719,558 808.4375,558 Q808.9063,558 809.2031,558.2813 Q809.5,558.5625 809.5,559.2188 L809.5,560.7813 Q809.5,561.4375 809.2188,561.7188 Q808.9375,562 808.5,562 Q808.1094,562 807.8594,561.8281 Q807.6094,561.6563 807.5,561.2031 Q807.4531,560.8906 807.2813,560.7188 Q806.9688,560.3906 806.4063,560.2031 Q805.8438,560 805.2813,560 Q804.5781,560 803.9844,560.2813 Q803.4063,560.5625 802.9531,561.1875 Q802.5,561.8125 802.5,562.6719 L802.5,563.5938 Q802.5,564.625 803.3438,565.3125 Q804.1875,566 805.6875,566 Q806.5781,566 807.2031,565.7969 Q807.5625,565.6875 807.9688,565.3281 Q808.2344,565.125 808.375,565.0625 Q808.5156,565 808.6875,565 Q809.0156,565 809.25,565.2656 Q809.5,565.5156 809.5,565.875 Q809.5,566.2188 809.1563,566.625 Q808.6563,567.2188 807.8594,567.5469 Q806.8125,568 805.5313,568 Q804.0313,568 802.8281,567.4063 Q801.8594,566.9375 801.1719,565.9219 Q800.5,564.9063 800.5,563.7031 L800.5,562.6094 Q800.5,561.3594 801.0938,560.2656 Q801.7031,559.1719 802.75,558.5938 Q803.8125,558 805,558 Q805.7188,558 806.3438,558.25 Q806.9688,558.5 807.5,559 Z "/><text fill="#000000" font-family="sans-serif" font-size="12" lengthAdjust="spacingAndGlyphs" textLength="95" x="819.5" y="567.4102">PharmacyService</text><line style="stroke: #A80036; stroke-width: 1.5;" x1="791.5" x2="916.5" y1="578.5" y2="578.5"/><line style="stroke: #A80036; stroke-width: 1.5;" x1="791.5" x2="916.5" y1="586.5" y2="586.5"/><text fill="#000000" font-family="sans-serif" font-size="11" lengthAdjust="spacingAndGlyphs" textLength="99" x="796.5" y="601.9189">+PharmacyService()</text><text fill="#000000" font-family="sans-serif" font-size="11" lengthAdjust="spacingAndGlyphs" textLength="85" x="796.5" y="615.7549">+getPharmacies()</text><!--MD5=[58a28f2d5507ae66b1dc95167690ce61]
class ProductService--><rect fill="#FEFECE" filter="url(#f1leiyvnrdt24b)" height="75.6719" id="ProductService" style="stroke: #A80036; stroke-width: 1.5;" width="184" x="953" y="546.5"/><ellipse cx="999.75" cy="562.5" fill="#ADD1B2" rx="11" ry="11" style="stroke: #A80036; stroke-width: 1.0;"/><path d="M1001.75,559 Q1001.9531,558.5 1002.1875,558.25 Q1002.4219,558 1002.6875,558 Q1003.1563,558 1003.4531,558.2813 Q1003.75,558.5625 1003.75,559.2188 L1003.75,560.7813 Q1003.75,561.4375 1003.4688,561.7188 Q1003.1875,562 1002.75,562 Q1002.3594,562 1002.1094,561.8281 Q1001.8594,561.6563 1001.75,561.2031 Q1001.7031,560.8906 1001.5313,560.7188 Q1001.2188,560.3906 1000.6563,560.2031 Q1000.0938,560 999.5313,560 Q998.8281,560 998.2344,560.2813 Q997.6563,560.5625 997.2031,561.1875 Q996.75,561.8125 996.75,562.6719 L996.75,563.5938 Q996.75,564.625 997.5938,565.3125 Q998.4375,566 999.9375,566 Q1000.8281,566 1001.4531,565.7969 Q1001.8125,565.6875 1002.2188,565.3281 Q1002.4844,565.125 1002.625,565.0625 Q1002.7656,565 1002.9375,565 Q1003.2656,565 1003.5,565.2656 Q1003.75,565.5156 1003.75,565.875 Q1003.75,566.2188 1003.4063,566.625 Q1002.9063,567.2188 1002.1094,567.5469 Q1001.0625,568 999.7813,568 Q998.2813,568 997.0781,567.4063 Q996.1094,566.9375 995.4219,565.9219 Q994.75,564.9063 994.75,563.7031 L994.75,562.6094 Q994.75,561.3594 995.3438,560.2656 Q995.9531,559.1719 997,558.5938 Q998.0625,558 999.25,558 Q999.9688,558 1000.5938,558.25 Q1001.2188,558.5 1001.75,559 Z "/><text fill="#000000" font-family="sans-serif" font-size="12" lengthAdjust="spacingAndGlyphs" textLength="82" x="1020.25" y="567.4102">ProductService</text><line style="stroke: #A80036; stroke-width: 1.5;" x1="954" x2="1136" y1="578.5" y2="578.5"/><line style="stroke: #A80036; stroke-width: 1.5;" x1="954" x2="1136" y1="586.5" y2="586.5"/><text fill="#000000" font-family="sans-serif" font-size="11" lengthAdjust="spacingAndGlyphs" textLength="88" x="959" y="601.9189">+ProductService()</text><text fill="#000000" font-family="sans-serif" font-size="11" lengthAdjust="spacingAndGlyphs" textLength="172" x="959" y="615.7549">+getAvailableProducts(pharmacyId)</text><!--MD5=[1694002c828dea395e5c4a77f70ed3d4]
class ClientService--><rect fill="#FEFECE" filter="url(#f1leiyvnrdt24b)" height="89.5078" id="ClientService" style="stroke: #A80036; stroke-width: 1.5;" width="161" x="1566.5" y="539.5"/><ellipse cx="1607.15" cy="555.5" fill="#ADD1B2" rx="11" ry="11" style="stroke: #A80036; stroke-width: 1.0;"/><path d="M1609.15,552 Q1609.3531,551.5 1609.5875,551.25 Q1609.8219,551 1610.0875,551 Q1610.5563,551 1610.8531,551.2813 Q1611.15,551.5625 1611.15,552.2188 L1611.15,553.7813 Q1611.15,554.4375 1610.8688,554.7188 Q1610.5875,555 1610.15,555 Q1609.7594,555 1609.5094,554.8281 Q1609.2594,554.6563 1609.15,554.2031 Q1609.1031,553.8906 1608.9313,553.7188 Q1608.6188,553.3906 1608.0563,553.2031 Q1607.4938,553 1606.9313,553 Q1606.2281,553 1605.6344,553.2813 Q1605.0563,553.5625 1604.6031,554.1875 Q1604.15,554.8125 1604.15,555.6719 L1604.15,556.5938 Q1604.15,557.625 1604.9938,558.3125 Q1605.8375,559 1607.3375,559 Q1608.2281,559 1608.8531,558.7969 Q1609.2125,558.6875 1609.6188,558.3281 Q1609.8844,558.125 1610.025,558.0625 Q1610.1656,558 1610.3375,558 Q1610.6656,558 1610.9,558.2656 Q1611.15,558.5156 1611.15,558.875 Q1611.15,559.2188 1610.8063,559.625 Q1610.3063,560.2188 1609.5094,560.5469 Q1608.4625,561 1607.1813,561 Q1605.6813,561 1604.4781,560.4063 Q1603.5094,559.9375 1602.8219,558.9219 Q1602.15,557.9063 1602.15,556.7031 L1602.15,555.6094 Q1602.15,554.3594 1602.7438,553.2656 Q1603.3531,552.1719 1604.4,551.5938 Q1605.4625,551 1606.65,551 Q1607.3688,551 1607.9938,551.25 Q1608.6188,551.5 1609.15,552 Z "/><text fill="#000000" font-family="sans-serif" font-size="12" lengthAdjust="spacingAndGlyphs" textLength="72" x="1626.85" y="560.4102">ClientService</text><line style="stroke: #A80036; stroke-width: 1.5;" x1="1567.5" x2="1726.5" y1="571.5" y2="571.5"/><line style="stroke: #A80036; stroke-width: 1.5;" x1="1567.5" x2="1726.5" y1="579.5" y2="579.5"/><text fill="#000000" font-family="sans-serif" font-size="11" lengthAdjust="spacingAndGlyphs" textLength="77" x="1572.5" y="594.9189">+ClientService()</text><text fill="#000000" font-family="sans-serif" font-size="11" lengthAdjust="spacingAndGlyphs" textLength="113" x="1572.5" y="608.7549">+getUserByEmail(email)</text><text fill="#000000" font-family="sans-serif" font-size="11" lengthAdjust="spacingAndGlyphs" textLength="149" x="1572.5" y="622.5908">+getCreditCardsByClient(email)</text><!--MD5=[4b2d61224b33971326a22fe5d809d926]
class DataHandler--><rect fill="#FEFECE" filter="url(#f1leiyvnrdt24b)" height="75.6719" id="DataHandler" style="stroke: #A80036; stroke-width: 1.5;" width="104" x="266" y="546.5"/><ellipse cx="281.9" cy="562.5" fill="#ADD1B2" rx="11" ry="11" style="stroke: #A80036; stroke-width: 1.0;"/><path d="M283.9,559 Q284.1031,558.5 284.3375,558.25 Q284.5719,558 284.8375,558 Q285.3063,558 285.6031,558.2813 Q285.9,558.5625 285.9,559.2188 L285.9,560.7813 Q285.9,561.4375 285.6188,561.7188 Q285.3375,562 284.9,562 Q284.5094,562 284.2594,561.8281 Q284.0094,561.6563 283.9,561.2031 Q283.8531,560.8906 283.6813,560.7188 Q283.3688,560.3906 282.8063,560.2031 Q282.2438,560 281.6813,560 Q280.9781,560 280.3844,560.2813 Q279.8063,560.5625 279.3531,561.1875 Q278.9,561.8125 278.9,562.6719 L278.9,563.5938 Q278.9,564.625 279.7438,565.3125 Q280.5875,566 282.0875,566 Q282.9781,566 283.6031,565.7969 Q283.9625,565.6875 284.3688,565.3281 Q284.6344,565.125 284.775,565.0625 Q284.9156,565 285.0875,565 Q285.4156,565 285.65,565.2656 Q285.9,565.5156 285.9,565.875 Q285.9,566.2188 285.5563,566.625 Q285.0563,567.2188 284.2594,567.5469 Q283.2125,568 281.9313,568 Q280.4313,568 279.2281,567.4063 Q278.2594,566.9375 277.5719,565.9219 Q276.9,564.9063 276.9,563.7031 L276.9,562.6094 Q276.9,561.3594 277.4938,560.2656 Q278.1031,559.1719 279.15,558.5938 Q280.2125,558 281.4,558 Q282.1188,558 282.7438,558.25 Q283.3688,558.5 283.9,559 Z "/><text fill="#000000" font-family="sans-serif" font-size="12" lengthAdjust="spacingAndGlyphs" textLength="70" x="296.1" y="567.4102">DataHandler</text><line style="stroke: #A80036; stroke-width: 1.5;" x1="267" x2="369" y1="578.5" y2="578.5"/><line style="stroke: #A80036; stroke-width: 1.5;" x1="267" x2="369" y1="586.5" y2="586.5"/><text fill="#000000" font-family="sans-serif" font-size="11" lengthAdjust="spacingAndGlyphs" textLength="92" x="272" y="601.9189">+openConnection()</text><text fill="#000000" font-family="sans-serif" font-size="11" lengthAdjust="spacingAndGlyphs" textLength="52" x="272" y="615.7549">+closeAll()</text><!--MD5=[b860ecc58d0ca70e482845cb1f7b4615]
class PharmacyDB--><rect fill="#FEFECE" filter="url(#f1leiyvnrdt24b)" height="75.6719" id="PharmacyDB" style="stroke: #A80036; stroke-width: 1.5;" width="104" x="38" y="734.5"/><ellipse cx="53" cy="750.5" fill="#ADD1B2" rx="11" ry="11" style="stroke: #A80036; stroke-width: 1.0;"/><path d="M55,747 Q55.2031,746.5 55.4375,746.25 Q55.6719,746 55.9375,746 Q56.4063,746 56.7031,746.2813 Q57,746.5625 57,747.2188 L57,748.7813 Q57,749.4375 56.7188,749.7188 Q56.4375,750 56,750 Q55.6094,750 55.3594,749.8281 Q55.1094,749.6563 55,749.2031 Q54.9531,748.8906 54.7813,748.7188 Q54.4688,748.3906 53.9063,748.2031 Q53.3438,748 52.7813,748 Q52.0781,748 51.4844,748.2813 Q50.9063,748.5625 50.4531,749.1875 Q50,749.8125 50,750.6719 L50,751.5938 Q50,752.625 50.8438,753.3125 Q51.6875,754 53.1875,754 Q54.0781,754 54.7031,753.7969 Q55.0625,753.6875 55.4688,753.3281 Q55.7344,753.125 55.875,753.0625 Q56.0156,753 56.1875,753 Q56.5156,753 56.75,753.2656 Q57,753.5156 57,753.875 Q57,754.2188 56.6563,754.625 Q56.1563,755.2188 55.3594,755.5469 Q54.3125,756 53.0313,756 Q51.5313,756 50.3281,755.4063 Q49.3594,754.9375 48.6719,753.9219 Q48,752.9063 48,751.7031 L48,750.6094 Q48,749.3594 48.5938,748.2656 Q49.2031,747.1719 50.25,746.5938 Q51.3125,746 52.5,746 Q53.2188,746 53.8438,746.25 Q54.4688,746.5 55,747 Z "/><text fill="#000000" font-family="sans-serif" font-size="12" lengthAdjust="spacingAndGlyphs" textLength="72" x="67" y="755.4102">PharmacyDB</text><line style="stroke: #A80036; stroke-width: 1.5;" x1="39" x2="141" y1="766.5" y2="766.5"/><line style="stroke: #A80036; stroke-width: 1.5;" x1="39" x2="141" y1="774.5" y2="774.5"/><text fill="#000000" font-family="sans-serif" font-size="11" lengthAdjust="spacingAndGlyphs" textLength="76" x="44" y="789.9189">+PharmacyDB()</text><text fill="#000000" font-family="sans-serif" font-size="11" lengthAdjust="spacingAndGlyphs" textLength="85" x="44" y="803.7549">+getPharmacies()</text><!--MD5=[754da686d7bb9aed9b7dcea4de3b7227]
class OrderDB--><rect fill="#FEFECE" filter="url(#f1leiyvnrdt24b)" height="75.6719" id="OrderDB" style="stroke: #A80036; stroke-width: 1.5;" width="117" x="396.5" y="734.5"/><ellipse cx="428.15" cy="750.5" fill="#ADD1B2" rx="11" ry="11" style="stroke: #A80036; stroke-width: 1.0;"/><path d="M430.15,747 Q430.3531,746.5 430.5875,746.25 Q430.8219,746 431.0875,746 Q431.5563,746 431.8531,746.2813 Q432.15,746.5625 432.15,747.2188 L432.15,748.7813 Q432.15,749.4375 431.8688,749.7188 Q431.5875,750 431.15,750 Q430.7594,750 430.5094,749.8281 Q430.2594,749.6563 430.15,749.2031 Q430.1031,748.8906 429.9313,748.7188 Q429.6188,748.3906 429.0563,748.2031 Q428.4938,748 427.9313,748 Q427.2281,748 426.6344,748.2813 Q426.0563,748.5625 425.6031,749.1875 Q425.15,749.8125 425.15,750.6719 L425.15,751.5938 Q425.15,752.625 425.9938,753.3125 Q426.8375,754 428.3375,754 Q429.2281,754 429.8531,753.7969 Q430.2125,753.6875 430.6188,753.3281 Q430.8844,753.125 431.025,753.0625 Q431.1656,753 431.3375,753 Q431.6656,753 431.9,753.2656 Q432.15,753.5156 432.15,753.875 Q432.15,754.2188 431.8063,754.625 Q431.3063,755.2188 430.5094,755.5469 Q429.4625,756 428.1813,756 Q426.6813,756 425.4781,755.4063 Q424.5094,754.9375 423.8219,753.9219 Q423.15,752.9063 423.15,751.7031 L423.15,750.6094 Q423.15,749.3594 423.7438,748.2656 Q424.3531,747.1719 425.4,746.5938 Q426.4625,746 427.65,746 Q428.3688,746 428.9938,746.25 Q429.6188,746.5 430.15,747 Z "/><text fill="#000000" font-family="sans-serif" font-size="12" lengthAdjust="spacingAndGlyphs" textLength="48" x="445.85" y="755.4102">OrderDB</text><line style="stroke: #A80036; stroke-width: 1.5;" x1="397.5" x2="512.5" y1="766.5" y2="766.5"/><line style="stroke: #A80036; stroke-width: 1.5;" x1="397.5" x2="512.5" y1="774.5" y2="774.5"/><text fill="#000000" font-family="sans-serif" font-size="11" lengthAdjust="spacingAndGlyphs" textLength="56" x="402.5" y="789.9189">+OrderDB()</text><text fill="#000000" font-family="sans-serif" font-size="11" lengthAdjust="spacingAndGlyphs" textLength="105" x="402.5" y="803.7549">+registerOrder(order)</text><!--MD5=[14642d0f06463c9c71840e97f6df5111]
class ProductDB--><rect fill="#FEFECE" filter="url(#f1leiyvnrdt24b)" height="75.6719" id="ProductDB" style="stroke: #A80036; stroke-width: 1.5;" width="184" x="177" y="734.5"/><ellipse cx="235.25" cy="750.5" fill="#ADD1B2" rx="11" ry="11" style="stroke: #A80036; stroke-width: 1.0;"/><path d="M237.25,747 Q237.4531,746.5 237.6875,746.25 Q237.9219,746 238.1875,746 Q238.6563,746 238.9531,746.2813 Q239.25,746.5625 239.25,747.2188 L239.25,748.7813 Q239.25,749.4375 238.9688,749.7188 Q238.6875,750 238.25,750 Q237.8594,750 237.6094,749.8281 Q237.3594,749.6563 237.25,749.2031 Q237.2031,748.8906 237.0313,748.7188 Q236.7188,748.3906 236.1563,748.2031 Q235.5938,748 235.0313,748 Q234.3281,748 233.7344,748.2813 Q233.1563,748.5625 232.7031,749.1875 Q232.25,749.8125 232.25,750.6719 L232.25,751.5938 Q232.25,752.625 233.0938,753.3125 Q233.9375,754 235.4375,754 Q236.3281,754 236.9531,753.7969 Q237.3125,753.6875 237.7188,753.3281 Q237.9844,753.125 238.125,753.0625 Q238.2656,753 238.4375,753 Q238.7656,753 239,753.2656 Q239.25,753.5156 239.25,753.875 Q239.25,754.2188 238.9063,754.625 Q238.4063,755.2188 237.6094,755.5469 Q236.5625,756 235.2813,756 Q233.7813,756 232.5781,755.4063 Q231.6094,754.9375 230.9219,753.9219 Q230.25,752.9063 230.25,751.7031 L230.25,750.6094 Q230.25,749.3594 230.8438,748.2656 Q231.4531,747.1719 232.5,746.5938 Q233.5625,746 234.75,746 Q235.4688,746 236.0938,746.25 Q236.7188,746.5 237.25,747 Z "/><text fill="#000000" font-family="sans-serif" font-size="12" lengthAdjust="spacingAndGlyphs" textLength="59" x="255.75" y="755.4102">ProductDB</text><line style="stroke: #A80036; stroke-width: 1.5;" x1="178" x2="360" y1="766.5" y2="766.5"/><line style="stroke: #A80036; stroke-width: 1.5;" x1="178" x2="360" y1="774.5" y2="774.5"/><text fill="#000000" font-family="sans-serif" font-size="11" lengthAdjust="spacingAndGlyphs" textLength="65" x="183" y="789.9189">+ProductDB()</text><text fill="#000000" font-family="sans-serif" font-size="11" lengthAdjust="spacingAndGlyphs" textLength="172" x="183" y="803.7549">+getAvailableProducts(pharmacyId)</text><!--MD5=[79201099e7ad95730d4f601b46d6ddd1]
class ClientDB--><rect fill="#FEFECE" filter="url(#f1leiyvnrdt24b)" height="89.5078" id="ClientDB" style="stroke: #A80036; stroke-width: 1.5;" width="161" x="548.5" y="727.5"/><ellipse cx="600.25" cy="743.5" fill="#ADD1B2" rx="11" ry="11" style="stroke: #A80036; stroke-width: 1.0;"/><path d="M602.25,740 Q602.4531,739.5 602.6875,739.25 Q602.9219,739 603.1875,739 Q603.6563,739 603.9531,739.2813 Q604.25,739.5625 604.25,740.2188 L604.25,741.7813 Q604.25,742.4375 603.9688,742.7188 Q603.6875,743 603.25,743 Q602.8594,743 602.6094,742.8281 Q602.3594,742.6563 602.25,742.2031 Q602.2031,741.8906 602.0313,741.7188 Q601.7188,741.3906 601.1563,741.2031 Q600.5938,741 600.0313,741 Q599.3281,741 598.7344,741.2813 Q598.1563,741.5625 597.7031,742.1875 Q597.25,742.8125 597.25,743.6719 L597.25,744.5938 Q597.25,745.625 598.0938,746.3125 Q598.9375,747 600.4375,747 Q601.3281,747 601.9531,746.7969 Q602.3125,746.6875 602.7188,746.3281 Q602.9844,746.125 603.125,746.0625 Q603.2656,746 603.4375,746 Q603.7656,746 604,746.2656 Q604.25,746.5156 604.25,746.875 Q604.25,747.2188 603.9063,747.625 Q603.4063,748.2188 602.6094,748.5469 Q601.5625,749 600.2813,749 Q598.7813,749 597.5781,748.4063 Q596.6094,747.9375 595.9219,746.9219 Q595.25,745.9063 595.25,744.7031 L595.25,743.6094 Q595.25,742.3594 595.8438,741.2656 Q596.4531,740.1719 597.5,739.5938 Q598.5625,739 599.75,739 Q600.4688,739 601.0938,739.25 Q601.7188,739.5 602.25,740 Z "/><text fill="#000000" font-family="sans-serif" font-size="12" lengthAdjust="spacingAndGlyphs" textLength="49" x="620.75" y="748.4102">ClientDB</text><line style="stroke: #A80036; stroke-width: 1.5;" x1="549.5" x2="708.5" y1="759.5" y2="759.5"/><line style="stroke: #A80036; stroke-width: 1.5;" x1="549.5" x2="708.5" y1="767.5" y2="767.5"/><text fill="#000000" font-family="sans-serif" font-size="11" lengthAdjust="spacingAndGlyphs" textLength="54" x="554.5" y="782.9189">+ClientDB()</text><text fill="#000000" font-family="sans-serif" font-size="11" lengthAdjust="spacingAndGlyphs" textLength="113" x="554.5" y="796.7549">+getUserByEmail(email)</text><text fill="#000000" font-family="sans-serif" font-size="11" lengthAdjust="spacingAndGlyphs" textLength="149" x="554.5" y="810.5908">+getCreditCardsByClient(email)</text><!--MD5=[f40d64c3825bdc96a4efd5b7e3ff1420]
reverse link DataHandler to PharmacyDB--><path d="M255.919,635.315 C226.465,659.041 190.83,687.878 159,714 C151.044,720.529 142.605,727.513 134.459,734.284 " fill="none" id="DataHandler&lt;-PharmacyDB" style="stroke: #A80036; stroke-width: 1.0;"/><polygon fill="none" points="251.614,629.795,271.584,622.71,260.391,640.702,251.614,629.795" style="stroke: #A80036; stroke-width: 1.0;"/><!--MD5=[92b0f60a0e0bbfb4c881030f1b2815dc]
reverse link DataHandler to ProductDB--><path d="M303.045,642.267 C295.164,672.184 285.721,708.029 278.781,734.372 " fill="none" id="DataHandler&lt;-ProductDB" style="stroke: #A80036; stroke-width: 1.0;"/><polygon fill="none" points="296.338,640.25,308.202,622.693,309.876,643.816,296.338,640.25" style="stroke: #A80036; stroke-width: 1.0;"/><!--MD5=[3e68ff64a050c8736bbdec119ca630fc]
reverse link DataHandler to ClientDB--><path d="M373.201,635.592 C393.998,652.633 418.554,670.71 443,684 C479.303,703.737 493.433,696.79 531,714 C539.788,718.026 548.802,722.617 557.633,727.41 " fill="none" id="DataHandler&lt;-ClientDB" style="stroke: #A80036; stroke-width: 1.0;"/><polygon fill="none" points="368.524,640.805,357.749,622.56,377.55,630.103,368.524,640.805" style="stroke: #A80036; stroke-width: 1.0;"/><!--MD5=[a70a1ce0b64eb5f63a24e19fe51145d7]
reverse link DataHandler to OrderDB--><path d="M357.29,638.843 C379.806,669.412 407.504,707.016 427.653,734.372 " fill="none" id="DataHandler&lt;-OrderDB" style="stroke: #A80036; stroke-width: 1.0;"/><polygon fill="none" points="351.62,642.948,345.395,622.693,362.892,634.645,351.62,642.948" style="stroke: #A80036; stroke-width: 1.0;"/><!--MD5=[a605f9a646bac91c0f1ec4bed5c60b13]
reverse link User to Client--><path d="M1983.87,649.317 C1981.93,650.768 1979.97,652.166 1978,653.5 C1915.13,696.129 1834.39,728.137 1775.78,747.983 " fill="none" id="User&lt;-Client" style="stroke: #A80036; stroke-width: 1.0;"/><polygon fill="none" points="1979.66,643.71,1999.52,636.318,1988.61,654.48,1979.66,643.71" style="stroke: #A80036; stroke-width: 1.0;"/><!--MD5=[a36b29e78612905c5aab28d0d19b6079]
link MakeAnOrderUI to MakeAnOrderController--><path d="M2336.66,128.79 C2327.97,153.01 2313.87,192.38 2300.95,228.42 " fill="none" id="MakeAnOrderUI-&gt;MakeAnOrderController" style="stroke: #A80036; stroke-width: 1.0; stroke-dasharray: 7.0,7.0;"/><polygon fill="#A80036" points="2299.22,233.25,2306.0236,226.1288,2300.908,228.5436,2298.4933,223.428,2299.22,233.25" style="stroke: #A80036; stroke-width: 1.0;"/><!--MD5=[8786125608facbe9346bb8c78c67cd98]
link MakeAnOrderUI to GenerateInvoiceController--><path d="M2369.22,128.71 C2381.42,140.65 2396.28,155.58 2409,169.5 C2441.75,205.33 2477.15,248.31 2500.75,277.64 " fill="none" id="MakeAnOrderUI-&gt;GenerateInvoiceController" style="stroke: #A80036; stroke-width: 1.0; stroke-dasharray: 7.0,7.0;"/><polygon fill="#A80036" points="2504.14,281.86,2501.6114,272.3413,2501.0043,277.9655,2495.3801,277.3584,2504.14,281.86" style="stroke: #A80036; stroke-width: 1.0;"/><!--MD5=[da044d77d4d681fe9cef81e1781c5eb3]
link MakeAnOrderController to ApplicationPOT--><path d="M2257.28,392.675 C2248.83,441.148 2238.32,501.403 2231.4,541.082 " fill="none" id="MakeAnOrderController-&gt;ApplicationPOT" style="stroke: #A80036; stroke-width: 1.0; stroke-dasharray: 7.0,7.0;"/><polygon fill="#A80036" points="2230.49,546.299,2235.9752,538.119,2231.3481,541.3732,2228.0939,536.7461,2230.49,546.299" style="stroke: #A80036; stroke-width: 1.0;"/><!--MD5=[86c56b58e3b3d58f3f9123d18f3804af]
link MakeAnOrderController to UserSession--><path d="M2301.36,392.675 C2321.21,444.121 2346.19,508.84 2361.36,548.145 " fill="none" id="MakeAnOrderController-&gt;UserSession" style="stroke: #A80036; stroke-width: 1.0; stroke-dasharray: 7.0,7.0;"/><polygon fill="#A80036" points="2363.34,553.282,2363.8264,543.4452,2361.5374,548.6182,2356.3644,546.3293,2363.34,553.282" style="stroke: #A80036; stroke-width: 1.0;"/><!--MD5=[79fd64162c648ff92d13068e9668793b]
link MakeAnOrderController to ClientService--><path d="M2150.35,328.5 C2012.12,347.12 1796.26,382.899 1731,431.5 C1696.89,456.902 1674.86,500.462 1661.96,534.455 " fill="none" id="MakeAnOrderController-&gt;ClientService" style="stroke: #A80036; stroke-width: 1.0; stroke-dasharray: 7.0,7.0;"/><polygon fill="#A80036" points="1660.13,539.398,1667.0166,532.3571,1661.8731,534.7117,1659.5185,529.5681,1660.13,539.398" style="stroke: #A80036; stroke-width: 1.0;"/><!--MD5=[5c2735fcd1ce7beac24ed4466545df4f]
link MakeAnOrderController to ProductService--><path d="M2150.31,326.55 C1862.17,356.53 1157.68,429.948 1155,431.5 C1111.83,456.484 1080.95,505.962 1063.1,541.693 " fill="none" id="MakeAnOrderController-&gt;ProductService" style="stroke: #A80036; stroke-width: 1.0; stroke-dasharray: 7.0,7.0;"/><polygon fill="#A80036" points="1060.77,546.42,1068.3325,540.1106,1062.9774,541.9337,1061.1543,536.5786,1060.77,546.42" style="stroke: #A80036; stroke-width: 1.0;"/><!--MD5=[19bf36e1d1b6cbe30d77ac2da87d0b37]
link MakeAnOrderController to OrderService--><path d="M2150.31,315.71 C2002.7,321.76 1747.94,345.21 1549,431.5 C1492.03,456.212 1436.92,501.104 1399.54,535.717 " fill="none" id="MakeAnOrderController-&gt;OrderService" style="stroke: #A80036; stroke-width: 1.0; stroke-dasharray: 7.0,7.0;"/><polygon fill="#A80036" points="1395.53,539.459,1404.8389,536.2429,1399.1855,536.0476,1399.3807,530.3941,1395.53,539.459" style="stroke: #A80036; stroke-width: 1.0;"/><!--MD5=[76e832db1bd687e560623bdcfa245121]
link MakeAnOrderController to PharmacyService--><path d="M2150.31,318.09 C1840.62,329.51 1035.1,365.279 935,431.5 C897.087,456.581 875.638,505.476 864.469,541.057 " fill="none" id="MakeAnOrderController-&gt;PharmacyService" style="stroke: #A80036; stroke-width: 1.0; stroke-dasharray: 7.0,7.0;"/><polygon fill="#A80036" points="862.895,546.206,869.351,538.7682,864.3565,541.4244,861.7004,536.4299,862.895,546.206" style="stroke: #A80036; stroke-width: 1.0;"/><!--MD5=[ac0c33dc67b04049a5a44d8fea0f9b6c]
link Database to Client--><path d="M690.163,999.487 C687.077,963.755 687.175,894.669 728,861 C765.083,830.417 1547.06,855.642 1593,841.5 C1602.24,838.657 1611.44,834.747 1620.33,830.228 " fill="none" id="Database-Client" style="stroke: #A80036; stroke-width: 1.0;"/><text fill="#000000" font-family="sans-serif" font-size="13" lengthAdjust="spacingAndGlyphs" textLength="82" x="729" y="875.4951">has registered</text><polygon fill="#000000" points="814,868.6758,820,871.6758,814,874.6758,814,868.6758" style="stroke: #000000; stroke-width: 1.0;"/><text fill="#000000" font-family="sans-serif" font-size="13" lengthAdjust="spacingAndGlyphs" textLength="7" x="681.4599" y="988.6127">1</text><text fill="#000000" font-family="sans-serif" font-size="13" lengthAdjust="spacingAndGlyphs" textLength="5" x="1607.4383" y="832.6267">*</text><!--MD5=[3105658e3b0e17fcc7b59acd4e6ef463]
link Database to Order--><path d="M733.539,1023 C806.613,1023 962.235,1023 1063.64,1023 " fill="none" id="Database-Order" style="stroke: #A80036; stroke-width: 1.0;"/><text fill="#000000" font-family="sans-serif" font-size="13" lengthAdjust="spacingAndGlyphs" textLength="82" x="851.25" y="1016.4951">has registered</text><polygon fill="#000000" points="936.25,1009.6758,942.25,1012.6758,936.25,1015.6758,936.25,1009.6758" style="stroke: #000000; stroke-width: 1.0;"/><text fill="#000000" font-family="sans-serif" font-size="13" lengthAdjust="spacingAndGlyphs" textLength="7" x="741.3834" y="1019.1362">1</text><text fill="#000000" font-family="sans-serif" font-size="13" lengthAdjust="spacingAndGlyphs" textLength="5" x="1051.1476" y="1019.9012">*</text><!--MD5=[22f0edd2925765a3c38d923b02900659]
link Database to Product--><path d="M698.857,1046.724 C706.528,1072.128 722.364,1112.86 750,1137 C830.028,1206.903 877.906,1174.154 976,1215 C997.207,1223.831 1019.99,1234.698 1039.77,1244.599 " fill="none" id="Database-Product" style="stroke: #A80036; stroke-width: 1.0;"/><text fill="#000000" font-family="sans-serif" font-size="13" lengthAdjust="spacingAndGlyphs" textLength="82" x="845" y="1181.4951">has registered</text><polygon fill="#000000" points="930,1174.6758,936,1177.6758,930,1180.6758,930,1174.6758" style="stroke: #000000; stroke-width: 1.0;"/><text fill="#000000" font-family="sans-serif" font-size="13" lengthAdjust="spacingAndGlyphs" textLength="7" x="692.4021" y="1067.6411">1</text><text fill="#000000" font-family="sans-serif" font-size="13" lengthAdjust="spacingAndGlyphs" textLength="5" x="1026.933" y="1236.917">*</text><!--MD5=[fe65df1e099598e2fce9ebdfea6b3744]
link Database to Address--><path d="M697.567,999.093 C704.103,972.146 718.947,929.436 750,909 C825.024,859.627 1063.72,888.557 1153.5,886 C1196.59,884.773 1211.16,868.366 1250.5,886 C1275.82,897.348 1295.08,919.766 1309.25,943.235 " fill="none" id="Database-Address" style="stroke: #A80036; stroke-width: 1.0;"/><text fill="#000000" font-family="sans-serif" font-size="13" lengthAdjust="spacingAndGlyphs" textLength="82" x="1154.5" y="875.4951">has registered</text><polygon fill="#000000" points="1239.5,868.6758,1245.5,871.6758,1239.5,874.6758,1239.5,868.6758" style="stroke: #000000; stroke-width: 1.0;"/><text fill="#000000" font-family="sans-serif" font-size="13" lengthAdjust="spacingAndGlyphs" textLength="7" x="699.6342" y="988.507">1</text><text fill="#000000" font-family="sans-serif" font-size="13" lengthAdjust="spacingAndGlyphs" textLength="5" x="1301.0004" y="932.6699">*</text><!--MD5=[0d6287e6031f223f446ddfea0960667d]
link Database to CreditCard--><path d="M697.526,999.03 C704.023,972.023 718.83,929.258 750,909 C844.287,847.723 1143.08,888.556 1255.5,886 C1325.78,884.402 1357.98,864.007 1412,909 C1432.08,925.722 1448.03,949.762 1459.6,971.46 " fill="none" id="Database-CreditCard" style="stroke: #A80036; stroke-width: 1.0;"/><text fill="#000000" font-family="sans-serif" font-size="13" lengthAdjust="spacingAndGlyphs" textLength="82" x="1256.5" y="875.4951">has registered</text><polygon fill="#000000" points="1341.5,868.6758,1347.5,871.6758,1341.5,874.6758,1341.5,868.6758" style="stroke: #000000; stroke-width: 1.0;"/><text fill="#000000" font-family="sans-serif" font-size="13" lengthAdjust="spacingAndGlyphs" textLength="7" x="690.7761" y="988.8229">1</text><text fill="#000000" font-family="sans-serif" font-size="13" lengthAdjust="spacingAndGlyphs" textLength="5" x="1451.0984" y="960.5829">*</text><!--MD5=[f847e2213481e239acbb723827da138e]
link PharmacyDB to Database--><path d="M121.751,810.768 C132.66,821.839 145.539,833.209 159,841.5 C326.275,944.525 559.58,996.966 652.492,1014.803 " fill="none" id="PharmacyDB-Database" style="stroke: #A80036; stroke-width: 1.0;"/><text fill="#000000" font-family="sans-serif" font-size="13" lengthAdjust="spacingAndGlyphs" textLength="53" x="227" y="875.4951">manages</text><polygon fill="#000000" points="283,868.6758,289,871.6758,283,874.6758,283,868.6758" style="stroke: #000000; stroke-width: 1.0;"/><!--MD5=[c1d40978cf3bbccd0894074af6ae6424]
link ClientDB to Database--><path d="M619.017,817.603 C616.287,836.692 615.229,859.161 620,879 C630.949,924.531 658.966,971.887 676.934,999.065 " fill="none" id="ClientDB-Database" style="stroke: #A80036; stroke-width: 1.0;"/><text fill="#000000" font-family="sans-serif" font-size="13" lengthAdjust="spacingAndGlyphs" textLength="53" x="621" y="875.4951">manages</text><polygon fill="#000000" points="643,884.3516,646,890.3516,649,884.3516,643,884.3516" style="stroke: #000000; stroke-width: 1.0;"/><!--MD5=[e3614ee0a80fcb9a49b96fae5e25d21b]
link OrderDB to Database--><path d="M483.727,810.571 C500.192,831.236 521.586,857.135 542,879 C583.764,923.732 636.42,971.919 667.236,999.375 " fill="none" id="OrderDB-Database" style="stroke: #A80036; stroke-width: 1.0;"/><text fill="#000000" font-family="sans-serif" font-size="13" lengthAdjust="spacingAndGlyphs" textLength="53" x="543" y="875.4951">manages</text><polygon fill="#000000" points="565,884.3516,568,890.3516,571,884.3516,565,884.3516" style="stroke: #000000; stroke-width: 1.0;"/><!--MD5=[22b902179b0d2415a8fe6b614787ffd4]
link ProductDB to Database--><path d="M328.159,810.551 C344.561,820.692 362.416,831.611 379,841.5 C476.481,899.628 592.599,965.52 652.612,999.329 " fill="none" id="ProductDB-Database" style="stroke: #A80036; stroke-width: 1.0;"/><text fill="#000000" font-family="sans-serif" font-size="13" lengthAdjust="spacingAndGlyphs" textLength="53" x="440" y="875.4951">manages</text><polygon fill="#000000" points="496,868.6758,502,871.6758,496,874.6758,496,868.6758" style="stroke: #000000; stroke-width: 1.0;"/><!--MD5=[2ed2b43e7f6d114538396b0b10b28567]
link PharmacyService to Pharmacy--><path d="M856.101,622.598 C859.354,678.316 866.066,786.899 874,879 C885.038,1007.144 901.865,1158.362 910.106,1230.335 " fill="none" id="PharmacyService-&gt;Pharmacy" style="stroke: #A80036; stroke-width: 1.0;"/><polygon fill="#A80036" points="910.685,1235.379,913.6332,1225.9818,910.1151,1230.4116,905.6853,1226.8935,910.685,1235.379" style="stroke: #A80036; stroke-width: 1.0;"/><text fill="#000000" font-family="sans-serif" font-size="13" lengthAdjust="spacingAndGlyphs" textLength="118" x="875" y="875.4951">manages services of</text><text fill="#000000" font-family="sans-serif" font-size="13" lengthAdjust="spacingAndGlyphs" textLength="7" x="848.8693" y="643.7844">1</text><text fill="#000000" font-family="sans-serif" font-size="13" lengthAdjust="spacingAndGlyphs" textLength="5" x="904.4711" y="1224.7193">*</text><!--MD5=[1838217b62f5cff8f2cd541cc9393f89]
link PharmacyService to PharmacyDB--><path d="M796.98,622.611 C775.575,634.671 750.486,646.692 726,653.5 C676.47,667.272 546.162,660.971 495,666 C344.874,680.756 296.842,652.721 159,714 C149.326,718.3 139.931,724.364 131.346,730.953 " fill="none" id="PharmacyService-&gt;PharmacyDB" style="stroke: #A80036; stroke-width: 1.0;"/><polygon fill="#A80036" points="127.199,734.224,136.7423,731.7899,131.1244,731.1271,131.7872,725.5092,127.199,734.224" style="stroke: #A80036; stroke-width: 1.0;"/><text fill="#000000" font-family="sans-serif" font-size="13" lengthAdjust="spacingAndGlyphs" textLength="28" x="496" y="680.4951">uses</text><text fill="#000000" font-family="sans-serif" font-size="13" lengthAdjust="spacingAndGlyphs" textLength="7" x="779.9564" y="643.7995">1</text><text fill="#000000" font-family="sans-serif" font-size="13" lengthAdjust="spacingAndGlyphs" textLength="7" x="126.2016" y="723.5367">1</text><!--MD5=[25822178bb7ccf0ac74068c83bd694ea]
link OrderService to Order--><path d="M1358.36,629.762 C1367.72,701.742 1381.33,840.055 1354,879 C1331.47,911.106 1304.06,887.888 1271,909 C1266.72,911.732 1262.48,914.654 1258.3,917.724 " fill="none" id="OrderService-&gt;Order" style="stroke: #A80036; stroke-width: 1.0;"/><polygon fill="#A80036" points="1254.13,920.843,1263.7308,918.6463,1258.131,917.8444,1258.9329,912.2446,1254.13,920.843" style="stroke: #A80036; stroke-width: 1.0;"/><text fill="#000000" font-family="sans-serif" font-size="13" lengthAdjust="spacingAndGlyphs" textLength="118" x="1372" y="777.9951">manages services of</text><text fill="#000000" font-family="sans-serif" font-size="13" lengthAdjust="spacingAndGlyphs" textLength="7" x="1351.7443" y="650.4709">1</text><text fill="#000000" font-family="sans-serif" font-size="13" lengthAdjust="spacingAndGlyphs" textLength="5" x="1262.1561" y="902.8813">*</text><!--MD5=[e014bfb9ec9545017a6274519c26a430]
link OrderService to OrderDB--><path d="M1243.1,629.563 C1214.57,639.255 1183.51,648.201 1154,653.5 C1042.42,673.535 754.422,640.325 644,666 C625.406,670.323 622.517,676.412 605,684 C572.435,698.107 561.861,696.476 531,714 C522.098,719.055 513.059,725.025 504.47,731.174 " fill="none" id="OrderService-&gt;OrderDB" style="stroke: #A80036; stroke-width: 1.0;"/><polygon fill="#A80036" points="500.292,734.203,509.9267,732.1602,504.3405,731.2688,505.2319,725.6826,500.292,734.203" style="stroke: #A80036; stroke-width: 1.0;"/><text fill="#000000" font-family="sans-serif" font-size="13" lengthAdjust="spacingAndGlyphs" textLength="28" x="645" y="680.4951">uses</text><text fill="#000000" font-family="sans-serif" font-size="13" lengthAdjust="spacingAndGlyphs" textLength="7" x="1220.2937" y="650.5794">1</text><text fill="#000000" font-family="sans-serif" font-size="13" lengthAdjust="spacingAndGlyphs" textLength="7" x="500.7362" y="723.512">1</text><!--MD5=[0c14ad20ad99024cc361e625c7ea3878]
link ClientService to Client--><path d="M1594.96,629.806 C1581.88,646.321 1573.85,665.545 1583,684 C1590.79,699.718 1602.91,713.377 1616.4,724.93 " fill="none" id="ClientService-&gt;Client" style="stroke: #A80036; stroke-width: 1.0;"/><polygon fill="#A80036" points="1620.24,728.133,1615.8867,719.2985,1616.3989,724.9321,1610.7653,725.4442,1620.24,728.133" style="stroke: #A80036; stroke-width: 1.0;"/><text fill="#000000" font-family="sans-serif" font-size="13" lengthAdjust="spacingAndGlyphs" textLength="118" x="1584" y="680.4951">manages services of</text><text fill="#000000" font-family="sans-serif" font-size="13" lengthAdjust="spacingAndGlyphs" textLength="7" x="1580.4968" y="650.5208">1</text><text fill="#000000" font-family="sans-serif" font-size="13" lengthAdjust="spacingAndGlyphs" textLength="5" x="1607.5902" y="720.6451">*</text><!--MD5=[6084c45bafb98ee2a46a6fd7dcb03b82]
link ClientService to ClientDB--><path d="M1595.39,629.665 C1581.23,639.355 1565.27,648.275 1549,653.5 C1505.15,667.588 761.731,646.503 720,666 C694.114,678.094 672.741,701.49 657.229,723.182 " fill="none" id="ClientService-&gt;ClientDB" style="stroke: #A80036; stroke-width: 1.0;"/><polygon fill="#A80036" points="654.205,727.494,662.6476,722.4223,657.076,723.4004,656.0978,717.8287,654.205,727.494" style="stroke: #A80036; stroke-width: 1.0;"/><text fill="#000000" font-family="sans-serif" font-size="13" lengthAdjust="spacingAndGlyphs" textLength="28" x="721" y="680.4951">uses</text><text fill="#000000" font-family="sans-serif" font-size="13" lengthAdjust="spacingAndGlyphs" textLength="7" x="1588.9252" y="650.3609">1</text><text fill="#000000" font-family="sans-serif" font-size="13" lengthAdjust="spacingAndGlyphs" textLength="7" x="650.6642" y="716.6085">1</text><!--MD5=[bd1d3beaf9e1cc8bc587a0b06ae41ee6]
link ProductService to Product--><path d="M1036.08,622.526 C1014.7,718.408 967.006,981.507 1033,1185 C1035.78,1193.574 1039.69,1202.068 1044.2,1210.199 " fill="none" id="ProductService-&gt;Product" style="stroke: #A80036; stroke-width: 1.0;"/><polygon fill="#A80036" points="1046.76,1214.676,1045.7517,1204.8789,1044.2722,1210.3388,1038.8123,1208.8593,1046.76,1214.676" style="stroke: #A80036; stroke-width: 1.0;"/><text fill="#000000" font-family="sans-serif" font-size="13" lengthAdjust="spacingAndGlyphs" textLength="118" x="1003" y="875.4951">manages services of</text><text fill="#000000" font-family="sans-serif" font-size="13" lengthAdjust="spacingAndGlyphs" textLength="7" x="1027.0229" y="643.7005">1</text><text fill="#000000" font-family="sans-serif" font-size="13" lengthAdjust="spacingAndGlyphs" textLength="5" x="1035.8198" y="1204.0374">*</text><!--MD5=[65eab6f40d4d775c122a00bc563858e3]
link ProductService to ProductDB--><path d="M997.268,622.512 C978.833,634.721 956.918,646.864 935,653.5 C857.536,676.954 649.993,648.368 571,666 C551.179,670.424 548.395,677.976 529,684 C464.073,704.166 443.106,691.357 379,714 C365.035,718.933 350.639,725.361 337.052,732.127 " fill="none" id="ProductService-&gt;ProductDB" style="stroke: #A80036; stroke-width: 1.0;"/><polygon fill="#A80036" points="332.476,734.433,342.3132,733.9544,336.941,732.1827,338.7127,726.8104,332.476,734.433" style="stroke: #A80036; stroke-width: 1.0;"/><text fill="#000000" font-family="sans-serif" font-size="13" lengthAdjust="spacingAndGlyphs" textLength="28" x="572" y="680.4951">uses</text><text fill="#000000" font-family="sans-serif" font-size="13" lengthAdjust="spacingAndGlyphs" textLength="7" x="981.7827" y="643.6841">1</text><text fill="#000000" font-family="sans-serif" font-size="13" lengthAdjust="spacingAndGlyphs" textLength="7" x="336.1592" y="723.783">1</text><!--MD5=[5df16df72a49edaa4f00919f1e597f76]
link Order to Product--><path d="M1128.9,1137.342 C1121.76,1164.223 1114.44,1191.791 1108.28,1214.96 " fill="none" id="Order-Product" style="stroke: #A80036; stroke-width: 1.0;"/><text fill="#000000" font-family="sans-serif" font-size="13" lengthAdjust="spacingAndGlyphs" textLength="21" x="1122" y="1181.4951">has</text><polygon fill="#000000" points="1128,1190.3516,1131,1196.3516,1134,1190.3516,1128,1190.3516" style="stroke: #000000; stroke-width: 1.0;"/><text fill="#000000" font-family="sans-serif" font-size="13" lengthAdjust="spacingAndGlyphs" textLength="7" x="1119.8525" y="1158.3071">1</text><text fill="#000000" font-family="sans-serif" font-size="13" lengthAdjust="spacingAndGlyphs" textLength="5" x="1104.9174" y="1203.9407">*</text><!--MD5=[341c66bf56a9f106d2cc06efe44d7382]
link Order to Pharmacy--><path d="M1063.96,1120.788 C1024.62,1160.854 981.346,1204.93 951.624,1235.2 " fill="none" id="Order-Pharmacy" style="stroke: #A80036; stroke-width: 1.0;"/><text fill="#000000" font-family="sans-serif" font-size="13" lengthAdjust="spacingAndGlyphs" textLength="21" x="1017" y="1181.4951">has</text><polygon fill="#000000" points="1023,1190.3516,1026,1196.3516,1029,1190.3516,1023,1190.3516" style="stroke: #000000; stroke-width: 1.0;"/><text fill="#000000" font-family="sans-serif" font-size="13" lengthAdjust="spacingAndGlyphs" textLength="7" x="1049.1076" y="1125.4574">1</text><text fill="#000000" font-family="sans-serif" font-size="13" lengthAdjust="spacingAndGlyphs" textLength="7" x="950.5242" y="1224.5085">1</text><!--MD5=[879bec428a80d843af24dc47845bf14c]
link Client to Order--><path d="M1621.43,831.03 C1590.22,853.974 1559.47,875.766 1551,879 C1434.07,923.63 1383.79,854.754 1271,909 C1265.27,911.754 1259.67,914.924 1254.22,918.415 " fill="none" id="Client-Order" style="stroke: #A80036; stroke-width: 1.0;"/><polygon fill="#000000" points="1585,868.6758,1579,871.6758,1585,874.6758,1585,868.6758" style="stroke: #000000; stroke-width: 1.0;"/><text fill="#000000" font-family="sans-serif" font-size="13" lengthAdjust="spacingAndGlyphs" textLength="39" x="1591" y="875.4951">makes</text><text fill="#000000" font-family="sans-serif" font-size="13" lengthAdjust="spacingAndGlyphs" textLength="7" x="1605.6723" y="851.8112">1</text><text fill="#000000" font-family="sans-serif" font-size="13" lengthAdjust="spacingAndGlyphs" textLength="7" x="1262.0868" y="906.9578">1</text><!--MD5=[bd708f2371c655af07b49ddbdb30848a]
link Client to Address--><path d="M1681.08,831.18 C1673,849.2 1661.39,867.383 1645,879 C1559.82,939.381 1499.78,852.471 1412,909 C1398.52,917.684 1387.19,929.981 1377.85,943.289 " fill="none" id="Client-Address" style="stroke: #A80036; stroke-width: 1.0;"/><polygon fill="#000000" points="1672,868.6758,1666,871.6758,1672,874.6758,1672,868.6758" style="stroke: #000000; stroke-width: 1.0;"/><text fill="#000000" font-family="sans-serif" font-size="13" lengthAdjust="spacingAndGlyphs" textLength="21" x="1678" y="875.4951">has</text><text fill="#000000" font-family="sans-serif" font-size="13" lengthAdjust="spacingAndGlyphs" textLength="7" x="1671.5913" y="852.8122">1</text><text fill="#000000" font-family="sans-serif" font-size="13" lengthAdjust="spacingAndGlyphs" textLength="7" x="1373.8323" y="932.7289">1</text><!--MD5=[0748050afd2139cbb3c9faec3f892ae9]
link Client to CreditCard--><path d="M1725.1,831.084 C1728.96,847.313 1729.23,864.487 1721,879 C1681.17,949.244 1591.6,988.695 1534.13,1007.637 " fill="none" id="Client-CreditCard" style="stroke: #A80036; stroke-width: 1.0;"/><polygon fill="#000000" points="1735,868.6758,1729,871.6758,1735,874.6758,1735,868.6758" style="stroke: #000000; stroke-width: 1.0;"/><text fill="#000000" font-family="sans-serif" font-size="13" lengthAdjust="spacingAndGlyphs" textLength="21" x="1741" y="875.4951">has</text><text fill="#000000" font-family="sans-serif" font-size="13" lengthAdjust="spacingAndGlyphs" textLength="5" x="1723.0981" y="852.7045">*</text><text fill="#000000" font-family="sans-serif" font-size="13" lengthAdjust="spacingAndGlyphs" textLength="5" x="1542.1538" y="1001.7013">*</text><!--MD5=[72e744b1f7ec345412f1ea79f30940ed]
link Invoice to Product--><path d="M1852.48,636.37 C1841.68,689 1821.74,772.94 1793,841.5 C1740.66,966.37 1660.38,1065.932 1551,1137 C1420.8,1221.595 1236.03,1254.931 1146.18,1266.7349 " fill="none" id="Invoice-Product" style="stroke: #A80036; stroke-width: 1.0;"/><polygon fill="#000000" points="1793,868.6758,1787,871.6758,1793,874.6758,1793,868.6758" style="stroke: #000000; stroke-width: 1.0;"/><text fill="#000000" font-family="sans-serif" font-size="13" lengthAdjust="spacingAndGlyphs" textLength="21" x="1799" y="875.4951">has</text><text fill="#000000" font-family="sans-serif" font-size="13" lengthAdjust="spacingAndGlyphs" textLength="7" x="1843.7304" y="657.9107">1</text><text fill="#000000" font-family="sans-serif" font-size="13" lengthAdjust="spacingAndGlyphs" textLength="5" x="1154.01" y="1262.1659">*</text><!--MD5=[4f0092e2f5693c7657a2634bfbc15acf]
link Invoice to Order--><path d="M1778.93,636.018 C1767.38,642.259 1755.52,648.272 1744,653.5 C1668.3,687.86 1630.31,660.119 1567,714 C1518.09,755.623 1548.76,800.901 1499,841.5 C1417.11,908.307 1361.71,854.771 1271,909 C1265.31,912.402 1259.7,916.159 1254.21,920.175 " fill="none" id="Invoice-Order" style="stroke: #A80036; stroke-width: 1.0;"/><polygon fill="#000000" points="1575,771.1758,1569,774.1758,1575,777.1758,1575,771.1758" style="stroke: #000000; stroke-width: 1.0;"/><text fill="#000000" font-family="sans-serif" font-size="13" lengthAdjust="spacingAndGlyphs" textLength="21" x="1581" y="777.9951">has</text><text fill="#000000" font-family="sans-serif" font-size="13" lengthAdjust="spacingAndGlyphs" textLength="7" x="1759.7561" y="657.8834">1</text><text fill="#000000" font-family="sans-serif" font-size="13" lengthAdjust="spacingAndGlyphs" textLength="7" x="1262.076" y="926.133">1</text><!--MD5=[d526f5d30672b9ad1f9eb1a68f9d4e48]
link Invoice to Client--><path d="M1817.19,636.325 C1796.04,660.311 1770.7,689.046 1748.84,713.843 " fill="none" id="Invoice-Client" style="stroke: #A80036; stroke-width: 1.0;"/><text fill="#000000" font-family="sans-serif" font-size="13" lengthAdjust="spacingAndGlyphs" textLength="21" x="1791" y="680.4951">has</text><polygon fill="#000000" points="1797,689.3516,1800,695.3516,1803,689.3516,1797,689.3516" style="stroke: #000000; stroke-width: 1.0;"/><text fill="#000000" font-family="sans-serif" font-size="13" lengthAdjust="spacingAndGlyphs" textLength="7" x="1803.6983" y="657.8596">1</text><text fill="#000000" font-family="sans-serif" font-size="13" lengthAdjust="spacingAndGlyphs" textLength="7" x="1747.6096" y="703.2248">1</text><!--MD5=[865e17cd79143707121c0d71a4b7fa48]
@startuml
skinparam classAttributeIconSize 0

package "UI" #DDDDDD {
class MakeAnOrderUI{
}
}


package "Controller" #DDDDDD {
class MakeAnOrderController{
+newOrder(description)
+registerOrder()
+getAvailableProducts(pharmacyId)
+getPharmacies()
+addProductToOrder(product, quantity)
+setHomeDelivery(homeDelivery)
+lstCreditCards = getCreditCardsByClient(email)
+addPayment(creditCard, amount)
}

class GenerateInvoiceController{
+generateInvoice(order, mapPayments)
}

class ApplicationPOT
{
  +static getInstance()
  +getPlatform()
}

class UserSession
{
  +getCurrentSession()
}
}

database Database{
}


package "Model" #DDDDDD {
package "Service" #DDDDDD {

  class OrderService{
       +OrderService()
       +addOrder(description, mapProducts, client, pharmacy, isHomeDelivery)
       +registerOrder(order)
  }

  class PharmacyService{
          +PharmacyService()
          +getPharmacies()
  }

  class ProductService{
          +ProductService()
          +getAvailableProducts(pharmacyId)
  }
  class ClientService{
        +ClientService()
        +getUserByEmail(email)
        +getCreditCardsByClient(email)
  }
 }
}

package "Model" #DDDDDD {
abstract class User{
-   String name
-   String email
-   String password
-   Integer nif
}

class Client{
-   int IBAN
-   long creditCardNumber
-   int validityDate
-   int CCV
+addCredits(addtionalCredits)
}

class Address{
-   int id
-   String streetName
-   String doorNumber
-   String postalCode
-   String locality
-   String country
-   float longitude
-   float latitude
}

class Order{
-   int id
-   float amount
-   float totalWeight
-   float additionalFee
-   Date orderDate
-   String description
-   String status
-   boolean isHomeDelivery
-   Map<Product, Integer> mapProducts
+Order(description, mapProducts, \nclient, pharmacy, isHomeDelivery)
+calculateAmount()
+calculateTotalWeight()
}

class Product{
-   int id
-   String name
-   String description
-   float unitaryPrice
-   float unitaryWeight
}

class Pharmacy{
-   int id
-   String name
}

class CreditCard{
-   int id
-   Long creditCardNr
-   String validityDate
-   Integer CCV
}

class Invoice{
-   int id
-   Date orderDate
-   float totalAmount
-   Map<CreditCard, Float> mapPayments
}

}


package "Data" #DDDDDD {
class DataHandler{
    +openConnection()
    +closeAll()
}

class PharmacyDB{
          +PharmacyDB()
          +getPharmacies()
      }

class OrderDB{
       +OrderDB()
       +registerOrder(order)
  }

class ProductDB{
          +ProductDB()
          +getAvailableProducts(pharmacyId)
  }

class ClientDB{
        +ClientDB()
        +getUserByEmail(email)
                +getCreditCardsByClient(email)
  }
}

class PharmacyDB extends DataHandler
class ProductDB extends DataHandler
class ClientDB extends DataHandler
class OrderDB extends DataHandler
class Client extends User

MakeAnOrderUI ..> MakeAnOrderController
MakeAnOrderUI ..> GenerateInvoiceController
MakeAnOrderController ..> ApplicationPOT
MakeAnOrderController ..> UserSession
MakeAnOrderController ..> ClientService
MakeAnOrderController ..> ProductService
MakeAnOrderController ..> OrderService
MakeAnOrderController ..> PharmacyService
Database "1" - - "*" Client : has registered >
Database "1" - - "*" Order : has registered >
Database "1" - - "*" Product : has registered >
Database "1" - - "*" Address : has registered >
Database "1" - - "*" CreditCard : has registered >
PharmacyDB - - Database : manages >
ClientDB - - Database : manages >
OrderDB - - Database : manages >
ProductDB - - Database : manages >
PharmacyService "1" - -> "*" Pharmacy : manages services of
PharmacyService "1" - -> "1" PharmacyDB : uses
OrderService "1" - -> "*" Order : manages services of
OrderService "1" - -> "1" OrderDB : uses
ClientService "1" - -> "*" Client : manages services of
ClientService "1" - -> "1" ClientDB : uses
ProductService "1" - -> "*" Product : manages services of
ProductService "1" - -> "1" ProductDB : uses

Order "1" - - "*" Product : has >
Order "1" - - "1" Pharmacy : has >
Client "1" - - "1" Order : makes >
Client "1" - - "1" Address : has >
Client "*" - - "*" CreditCard : has >
Invoice "1" - - "*" Product : has >
Invoice "1" - - "1" Order : has >
Invoice "1" - - "1" Client : has >

@enduml

PlantUML version 1.2020.09(Sun May 10 11:51:06 BST 2020)
(GPL source distribution)
Java Runtime: OpenJDK Runtime Environment
JVM: OpenJDK 64-Bit Server VM
Java Version: 11.0.6+8-b520.66
Operating System: Windows 10
Default Encoding: Cp1252
Language: pt
Country: PT
--></g></svg>