<?xml version="1.0" encoding="UTF-8" standalone="no"?><svg xmlns="http://www.w3.org/2000/svg" xmlns:xlink="http://www.w3.org/1999/xlink" contentScriptType="application/ecmascript" contentStyleType="text/css" height="1330px" preserveAspectRatio="none" style="width:1901px;height:1330px;" version="1.1" viewBox="0 0 1901 1330" width="1901px" zoomAndPan="magnify"><defs><filter height="300%" id="fm6bxpyzvfqy5" width="300%" x="-1" y="-1"><feGaussianBlur result="blurOut" stdDeviation="2.0"/><feColorMatrix in="blurOut" result="blurOut2" type="matrix" values="0 0 0 0 0 0 0 0 0 0 0 0 0 0 0 0 0 0 .4 0"/><feOffset dx="4.0" dy="4.0" in="blurOut2" result="blurOut3"/><feBlend in="SourceGraphic" in2="blurOut3" mode="normal"/></filter></defs><g><!--MD5=[9681dc6e01e10c6b4fe06895ae94f592]
cluster UI--><polygon fill="#DDDDDD" filter="url(#fm6bxpyzvfqy5)" points="197,24,217,24,224,47.6094,347,47.6094,347,124,197,124,197,24" style="stroke: #000000; stroke-width: 1.5;"/><line style="stroke: #000000; stroke-width: 1.5;" x1="197" x2="224" y1="47.6094" y2="47.6094"/><text fill="#000000" font-family="sans-serif" font-size="14" font-weight="bold" lengthAdjust="spacingAndGlyphs" textLength="14" x="201" y="40.5332">UI</text><!--MD5=[1f2cfc53d9d308f53762fd0fcbaa4873]
cluster Controller--><polygon fill="#DDDDDD" filter="url(#fm6bxpyzvfqy5)" points="22,157,99,157,106,180.6094,522,180.6094,522,443.5,22,443.5,22,157" style="stroke: #000000; stroke-width: 1.5;"/><line style="stroke: #000000; stroke-width: 1.5;" x1="22" x2="106" y1="180.6094" y2="180.6094"/><text fill="#000000" font-family="sans-serif" font-size="14" font-weight="bold" lengthAdjust="spacingAndGlyphs" textLength="71" x="26" y="173.5332">Controller</text><!--MD5=[15636c1ca4a123c16a2a1a8e90aca7a9]
cluster Model--><polygon fill="#DDDDDD" filter="url(#fm6bxpyzvfqy5)" points="546,302,596,302,603,325.6094,1719,325.6094,1719,1318,546,1318,546,302" style="stroke: #000000; stroke-width: 1.5;"/><line style="stroke: #000000; stroke-width: 1.5;" x1="546" x2="603" y1="325.6094" y2="325.6094"/><text fill="#000000" font-family="sans-serif" font-size="14" font-weight="bold" lengthAdjust="spacingAndGlyphs" textLength="44" x="550" y="318.5332">Model</text><!--MD5=[7f5e0441b00afcd8fa9ae108c086a015]
cluster Registration--><polygon fill="#DDDDDD" filter="url(#fm6bxpyzvfqy5)" points="883,505,975,505,982,528.6094,1695,528.6094,1695,647,883,647,883,505" style="stroke: #000000; stroke-width: 1.5;"/><line style="stroke: #000000; stroke-width: 1.5;" x1="883" x2="982" y1="528.6094" y2="528.6094"/><text fill="#000000" font-family="sans-serif" font-size="14" font-weight="bold" lengthAdjust="spacingAndGlyphs" textLength="86" x="887" y="521.5332">Registration</text><!--MD5=[f21b1f164e99c6b37934f23ad048ad54]
cluster Data--><polygon fill="#DDDDDD" filter="url(#fm6bxpyzvfqy5)" points="1743,315.5,1780,315.5,1787,339.1094,1879,339.1094,1879,443.5,1743,443.5,1743,315.5" style="stroke: #000000; stroke-width: 1.5;"/><line style="stroke: #000000; stroke-width: 1.5;" x1="1743" x2="1787" y1="339.1094" y2="339.1094"/><text fill="#000000" font-family="sans-serif" font-size="14" font-weight="bold" lengthAdjust="spacingAndGlyphs" textLength="31" x="1747" y="332.0332">Data</text><!--MD5=[35750e3ed6157e0e9f921c1e2e63111c]
class MakeAnOrderUI--><rect fill="#FEFECE" filter="url(#fm6bxpyzvfqy5)" height="48" id="MakeAnOrderUI" style="stroke: #A80036; stroke-width: 1.5;" width="118" x="213" y="60"/><ellipse cx="228" cy="76" fill="#ADD1B2" rx="11" ry="11" style="stroke: #A80036; stroke-width: 1.0;"/><path d="M230,72.5 Q230.2031,72 230.4375,71.75 Q230.6719,71.5 230.9375,71.5 Q231.4063,71.5 231.7031,71.7813 Q232,72.0625 232,72.7188 L232,74.2813 Q232,74.9375 231.7188,75.2188 Q231.4375,75.5 231,75.5 Q230.6094,75.5 230.3594,75.3281 Q230.1094,75.1563 230,74.7031 Q229.9531,74.3906 229.7813,74.2188 Q229.4688,73.8906 228.9063,73.7031 Q228.3438,73.5 227.7813,73.5 Q227.0781,73.5 226.4844,73.7813 Q225.9063,74.0625 225.4531,74.6875 Q225,75.3125 225,76.1719 L225,77.0938 Q225,78.125 225.8438,78.8125 Q226.6875,79.5 228.1875,79.5 Q229.0781,79.5 229.7031,79.2969 Q230.0625,79.1875 230.4688,78.8281 Q230.7344,78.625 230.875,78.5625 Q231.0156,78.5 231.1875,78.5 Q231.5156,78.5 231.75,78.7656 Q232,79.0156 232,79.375 Q232,79.7188 231.6563,80.125 Q231.1563,80.7188 230.3594,81.0469 Q229.3125,81.5 228.0313,81.5 Q226.5313,81.5 225.3281,80.9063 Q224.3594,80.4375 223.6719,79.4219 Q223,78.4063 223,77.2031 L223,76.1094 Q223,74.8594 223.5938,73.7656 Q224.2031,72.6719 225.25,72.0938 Q226.3125,71.5 227.5,71.5 Q228.2188,71.5 228.8438,71.75 Q229.4688,72 230,72.5 Z "/><text fill="#000000" font-family="sans-serif" font-size="12" lengthAdjust="spacingAndGlyphs" textLength="86" x="242" y="80.9102">MakeAnOrderUI</text><line style="stroke: #A80036; stroke-width: 1.5;" x1="214" x2="330" y1="92" y2="92"/><line style="stroke: #A80036; stroke-width: 1.5;" x1="214" x2="330" y1="100" y2="100"/><!--MD5=[7f25cae4ec750c15eb10841bd194e692]
class MakeAnOrderController--><rect fill="#FEFECE" filter="url(#fm6bxpyzvfqy5)" height="61.8359" id="MakeAnOrderController" style="stroke: #A80036; stroke-width: 1.5;" width="467" x="38.5" y="193"/><ellipse cx="203.75" cy="209" fill="#ADD1B2" rx="11" ry="11" style="stroke: #A80036; stroke-width: 1.0;"/><path d="M205.75,205.5 Q205.9531,205 206.1875,204.75 Q206.4219,204.5 206.6875,204.5 Q207.1563,204.5 207.4531,204.7813 Q207.75,205.0625 207.75,205.7188 L207.75,207.2813 Q207.75,207.9375 207.4688,208.2188 Q207.1875,208.5 206.75,208.5 Q206.3594,208.5 206.1094,208.3281 Q205.8594,208.1563 205.75,207.7031 Q205.7031,207.3906 205.5313,207.2188 Q205.2188,206.8906 204.6563,206.7031 Q204.0938,206.5 203.5313,206.5 Q202.8281,206.5 202.2344,206.7813 Q201.6563,207.0625 201.2031,207.6875 Q200.75,208.3125 200.75,209.1719 L200.75,210.0938 Q200.75,211.125 201.5938,211.8125 Q202.4375,212.5 203.9375,212.5 Q204.8281,212.5 205.4531,212.2969 Q205.8125,212.1875 206.2188,211.8281 Q206.4844,211.625 206.625,211.5625 Q206.7656,211.5 206.9375,211.5 Q207.2656,211.5 207.5,211.7656 Q207.75,212.0156 207.75,212.375 Q207.75,212.7188 207.4063,213.125 Q206.9063,213.7188 206.1094,214.0469 Q205.0625,214.5 203.7813,214.5 Q202.2813,214.5 201.0781,213.9063 Q200.1094,213.4375 199.4219,212.4219 Q198.75,211.4063 198.75,210.2031 L198.75,209.1094 Q198.75,207.8594 199.3438,206.7656 Q199.9531,205.6719 201,205.0938 Q202.0625,204.5 203.25,204.5 Q203.9688,204.5 204.5938,204.75 Q205.2188,205 205.75,205.5 Z "/><text fill="#000000" font-family="sans-serif" font-size="12" lengthAdjust="spacingAndGlyphs" textLength="128" x="224.25" y="213.9102">MakeAnOrderController</text><line style="stroke: #A80036; stroke-width: 1.5;" x1="39.5" x2="504.5" y1="225" y2="225"/><line style="stroke: #A80036; stroke-width: 1.5;" x1="39.5" x2="504.5" y1="233" y2="233"/><text fill="#000000" font-family="sans-serif" font-size="11" lengthAdjust="spacingAndGlyphs" textLength="455" x="44.5" y="248.4189">+registerNewUser(name,email,password,address,gpsLocation,creditCardNr,validityDate,CCV)</text><!--MD5=[e45a4727c47b726c25e081782e8bc183]
class ApplicationPOT--><rect fill="#FEFECE" filter="url(#fm6bxpyzvfqy5)" height="75.6719" id="ApplicationPOT" style="stroke: #A80036; stroke-width: 1.5;" width="116" x="325" y="351.5"/><ellipse cx="340" cy="367.5" fill="#ADD1B2" rx="11" ry="11" style="stroke: #A80036; stroke-width: 1.0;"/><path d="M342,364 Q342.2031,363.5 342.4375,363.25 Q342.6719,363 342.9375,363 Q343.4063,363 343.7031,363.2813 Q344,363.5625 344,364.2188 L344,365.7813 Q344,366.4375 343.7188,366.7188 Q343.4375,367 343,367 Q342.6094,367 342.3594,366.8281 Q342.1094,366.6563 342,366.2031 Q341.9531,365.8906 341.7813,365.7188 Q341.4688,365.3906 340.9063,365.2031 Q340.3438,365 339.7813,365 Q339.0781,365 338.4844,365.2813 Q337.9063,365.5625 337.4531,366.1875 Q337,366.8125 337,367.6719 L337,368.5938 Q337,369.625 337.8438,370.3125 Q338.6875,371 340.1875,371 Q341.0781,371 341.7031,370.7969 Q342.0625,370.6875 342.4688,370.3281 Q342.7344,370.125 342.875,370.0625 Q343.0156,370 343.1875,370 Q343.5156,370 343.75,370.2656 Q344,370.5156 344,370.875 Q344,371.2188 343.6563,371.625 Q343.1563,372.2188 342.3594,372.5469 Q341.3125,373 340.0313,373 Q338.5313,373 337.3281,372.4063 Q336.3594,371.9375 335.6719,370.9219 Q335,369.9063 335,368.7031 L335,367.6094 Q335,366.3594 335.5938,365.2656 Q336.2031,364.1719 337.25,363.5938 Q338.3125,363 339.5,363 Q340.2188,363 340.8438,363.25 Q341.4688,363.5 342,364 Z "/><text fill="#000000" font-family="sans-serif" font-size="12" lengthAdjust="spacingAndGlyphs" textLength="84" x="354" y="372.4102">ApplicationPOT</text><line style="stroke: #A80036; stroke-width: 1.5;" x1="326" x2="440" y1="383.5" y2="383.5"/><line style="stroke: #A80036; stroke-width: 1.5;" x1="326" x2="440" y1="391.5" y2="391.5"/><text fill="#000000" font-family="sans-serif" font-size="11" lengthAdjust="spacingAndGlyphs" textLength="99" x="331" y="406.9189">+static getInstance()</text><text fill="#000000" font-family="sans-serif" font-size="11" lengthAdjust="spacingAndGlyphs" textLength="68" x="331" y="420.7549">+getPlatform()</text><!--MD5=[c5b08e60048ef1bcd788d24cf324082e]
class UserSession--><rect fill="#FEFECE" filter="url(#fm6bxpyzvfqy5)" height="61.8359" id="UserSession" style="stroke: #A80036; stroke-width: 1.5;" width="116" x="174" y="358.5"/><ellipse cx="193.95" cy="374.5" fill="#ADD1B2" rx="11" ry="11" style="stroke: #A80036; stroke-width: 1.0;"/><path d="M195.95,371 Q196.1531,370.5 196.3875,370.25 Q196.6219,370 196.8875,370 Q197.3563,370 197.6531,370.2813 Q197.95,370.5625 197.95,371.2188 L197.95,372.7813 Q197.95,373.4375 197.6688,373.7188 Q197.3875,374 196.95,374 Q196.5594,374 196.3094,373.8281 Q196.0594,373.6563 195.95,373.2031 Q195.9031,372.8906 195.7313,372.7188 Q195.4188,372.3906 194.8563,372.2031 Q194.2938,372 193.7313,372 Q193.0281,372 192.4344,372.2813 Q191.8563,372.5625 191.4031,373.1875 Q190.95,373.8125 190.95,374.6719 L190.95,375.5938 Q190.95,376.625 191.7938,377.3125 Q192.6375,378 194.1375,378 Q195.0281,378 195.6531,377.7969 Q196.0125,377.6875 196.4188,377.3281 Q196.6844,377.125 196.825,377.0625 Q196.9656,377 197.1375,377 Q197.4656,377 197.7,377.2656 Q197.95,377.5156 197.95,377.875 Q197.95,378.2188 197.6063,378.625 Q197.1063,379.2188 196.3094,379.5469 Q195.2625,380 193.9813,380 Q192.4813,380 191.2781,379.4063 Q190.3094,378.9375 189.6219,377.9219 Q188.95,376.9063 188.95,375.7031 L188.95,374.6094 Q188.95,373.3594 189.5438,372.2656 Q190.1531,371.1719 191.2,370.5938 Q192.2625,370 193.45,370 Q194.1688,370 194.7938,370.25 Q195.4188,370.5 195.95,371 Z "/><text fill="#000000" font-family="sans-serif" font-size="12" lengthAdjust="spacingAndGlyphs" textLength="73" x="209.05" y="379.4102">UserSession</text><line style="stroke: #A80036; stroke-width: 1.5;" x1="175" x2="289" y1="390.5" y2="390.5"/><line style="stroke: #A80036; stroke-width: 1.5;" x1="175" x2="289" y1="398.5" y2="398.5"/><text fill="#000000" font-family="sans-serif" font-size="11" lengthAdjust="spacingAndGlyphs" textLength="104" x="180" y="413.9189">+getCurrentSession()</text><!--MD5=[99b8db98afdc2c8404e39242ef4c1e65]
class Platform--><rect fill="#FEFECE" filter="url(#fm6bxpyzvfqy5)" height="103.3438" id="Platform" style="stroke: #A80036; stroke-width: 1.5;" width="102" x="687" y="338"/><ellipse cx="712.8" cy="354" fill="#ADD1B2" rx="11" ry="11" style="stroke: #A80036; stroke-width: 1.0;"/><path d="M714.8,350.5 Q715.0031,350 715.2375,349.75 Q715.4719,349.5 715.7375,349.5 Q716.2063,349.5 716.5031,349.7813 Q716.8,350.0625 716.8,350.7188 L716.8,352.2813 Q716.8,352.9375 716.5188,353.2188 Q716.2375,353.5 715.8,353.5 Q715.4094,353.5 715.1594,353.3281 Q714.9094,353.1563 714.8,352.7031 Q714.7531,352.3906 714.5813,352.2188 Q714.2688,351.8906 713.7063,351.7031 Q713.1438,351.5 712.5813,351.5 Q711.8781,351.5 711.2844,351.7813 Q710.7063,352.0625 710.2531,352.6875 Q709.8,353.3125 709.8,354.1719 L709.8,355.0938 Q709.8,356.125 710.6438,356.8125 Q711.4875,357.5 712.9875,357.5 Q713.8781,357.5 714.5031,357.2969 Q714.8625,357.1875 715.2688,356.8281 Q715.5344,356.625 715.675,356.5625 Q715.8156,356.5 715.9875,356.5 Q716.3156,356.5 716.55,356.7656 Q716.8,357.0156 716.8,357.375 Q716.8,357.7188 716.4563,358.125 Q715.9563,358.7188 715.1594,359.0469 Q714.1125,359.5 712.8313,359.5 Q711.3313,359.5 710.1281,358.9063 Q709.1594,358.4375 708.4719,357.4219 Q707.8,356.4063 707.8,355.2031 L707.8,354.1094 Q707.8,352.8594 708.3938,351.7656 Q709.0031,350.6719 710.05,350.0938 Q711.1125,349.5 712.3,349.5 Q713.0188,349.5 713.6438,349.75 Q714.2688,350 714.8,350.5 Z "/><text fill="#000000" font-family="sans-serif" font-size="12" lengthAdjust="spacingAndGlyphs" textLength="46" x="729.2" y="358.9102">Platform</text><line style="stroke: #A80036; stroke-width: 1.5;" x1="688" x2="788" y1="370" y2="370"/><text fill="#000000" font-family="sans-serif" font-size="11" lengthAdjust="spacingAndGlyphs" textLength="90" x="693" y="385.4189">-String designation</text><line style="stroke: #A80036; stroke-width: 1.5;" x1="688" x2="788" y1="391.8359" y2="391.8359"/><text fill="#000000" font-family="sans-serif" font-size="11" lengthAdjust="spacingAndGlyphs" textLength="74" x="693" y="407.2549">+getClientReg()</text><text fill="#000000" font-family="sans-serif" font-size="11" lengthAdjust="spacingAndGlyphs" textLength="85" x="693" y="421.0908">+getProductReg()</text><text fill="#000000" font-family="sans-serif" font-size="11" lengthAdjust="spacingAndGlyphs" textLength="76" x="693" y="434.9268">+getOrderReg()</text><!--MD5=[3fd616f346a44cd59a91eb10b19e157c]
class User--><rect fill="#FEFECE" filter="url(#fm6bxpyzvfqy5)" height="89.5078" id="User" style="stroke: #A80036; stroke-width: 1.5;" width="97" x="729.5" y="541"/><ellipse cx="762.05" cy="557" fill="#A9DCDF" rx="11" ry="11" style="stroke: #A80036; stroke-width: 1.0;"/><path d="M763.8,558.5 L760.5031,558.5 L760.0656,559.5 L760.0656,559.5 L760.5344,559.5 L761.05,560.125 L761.05,560.5 L761.05,560.875 L760.5344,561.5 L760.0656,561.5 L758.175,561.5 L757.5656,561.5 L757.05,560.875 L757.05,560.5 L757.05,560.125 L757.5656,559.5 L758.175,559.5 L760.4875,553.5 L759.6125,553.5 L758.5656,553.5 L758.05,552.875 L758.05,552.5 L758.05,552.125 L758.5656,551.5 L759.6125,551.5 L763.2844,551.5 L765.9719,559.5 L766.5344,559.5 L766.5344,559.5 L767.05,560.125 L767.05,560.5 L767.05,560.875 L766.5344,561.5 L765.9719,561.5 L764.0813,561.5 L763.5656,561.5 L763.05,560.875 L763.05,560.5 L763.05,560.125 L763.5656,559.5 L764.0813,559.5 L764.0813,559.5 L763.8,558.5 Z M763.2531,556.5 L762.05,552.9219 L761.0188,556.5 L763.2531,556.5 Z "/><text fill="#000000" font-family="sans-serif" font-size="12" font-style="italic" lengthAdjust="spacingAndGlyphs" textLength="26" x="779.95" y="561.9102">User</text><line style="stroke: #A80036; stroke-width: 1.5;" x1="730.5" x2="825.5" y1="573" y2="573"/><text fill="#000000" font-family="sans-serif" font-size="11" lengthAdjust="spacingAndGlyphs" textLength="59" x="735.5" y="588.4189">-String email</text><text fill="#000000" font-family="sans-serif" font-size="11" lengthAdjust="spacingAndGlyphs" textLength="85" x="735.5" y="602.2549">-String password</text><text fill="#000000" font-family="sans-serif" font-size="11" lengthAdjust="spacingAndGlyphs" textLength="61" x="735.5" y="616.0908">-String name</text><line style="stroke: #A80036; stroke-width: 1.5;" x1="730.5" x2="825.5" y1="622.5078" y2="622.5078"/><!--MD5=[ed6624c6556d5e7b1bd23032162d20b7]
class Client--><rect fill="#FEFECE" filter="url(#fm6bxpyzvfqy5)" height="117.1797" id="Client" style="stroke: #A80036; stroke-width: 1.5;" width="126" x="701" y="711"/><ellipse cx="743.9" cy="727" fill="#ADD1B2" rx="11" ry="11" style="stroke: #A80036; stroke-width: 1.0;"/><path d="M745.9,723.5 Q746.1031,723 746.3375,722.75 Q746.5719,722.5 746.8375,722.5 Q747.3063,722.5 747.6031,722.7813 Q747.9,723.0625 747.9,723.7188 L747.9,725.2813 Q747.9,725.9375 747.6188,726.2188 Q747.3375,726.5 746.9,726.5 Q746.5094,726.5 746.2594,726.3281 Q746.0094,726.1563 745.9,725.7031 Q745.8531,725.3906 745.6813,725.2188 Q745.3688,724.8906 744.8063,724.7031 Q744.2438,724.5 743.6813,724.5 Q742.9781,724.5 742.3844,724.7813 Q741.8063,725.0625 741.3531,725.6875 Q740.9,726.3125 740.9,727.1719 L740.9,728.0938 Q740.9,729.125 741.7438,729.8125 Q742.5875,730.5 744.0875,730.5 Q744.9781,730.5 745.6031,730.2969 Q745.9625,730.1875 746.3688,729.8281 Q746.6344,729.625 746.775,729.5625 Q746.9156,729.5 747.0875,729.5 Q747.4156,729.5 747.65,729.7656 Q747.9,730.0156 747.9,730.375 Q747.9,730.7188 747.5563,731.125 Q747.0563,731.7188 746.2594,732.0469 Q745.2125,732.5 743.9313,732.5 Q742.4313,732.5 741.2281,731.9063 Q740.2594,731.4375 739.5719,730.4219 Q738.9,729.4063 738.9,728.2031 L738.9,727.1094 Q738.9,725.8594 739.4938,724.7656 Q740.1031,723.6719 741.15,723.0938 Q742.2125,722.5 743.4,722.5 Q744.1188,722.5 744.7438,722.75 Q745.3688,723 745.9,723.5 Z "/><text fill="#000000" font-family="sans-serif" font-size="12" lengthAdjust="spacingAndGlyphs" textLength="32" x="764.1" y="731.9102">Client</text><line style="stroke: #A80036; stroke-width: 1.5;" x1="702" x2="826" y1="743" y2="743"/><text fill="#000000" font-family="sans-serif" font-size="11" lengthAdjust="spacingAndGlyphs" textLength="45" x="707" y="758.4189">-int IBAN;</text><text fill="#000000" font-family="sans-serif" font-size="11" lengthAdjust="spacingAndGlyphs" textLength="114" x="707" y="772.2549">-long creditCardNumber</text><text fill="#000000" font-family="sans-serif" font-size="11" lengthAdjust="spacingAndGlyphs" textLength="89" x="707" y="786.0908">-Address address</text><text fill="#000000" font-family="sans-serif" font-size="11" lengthAdjust="spacingAndGlyphs" textLength="73" x="707" y="799.9268">-int validityDate</text><text fill="#000000" font-family="sans-serif" font-size="11" lengthAdjust="spacingAndGlyphs" textLength="40" x="707" y="813.7627">-int CCV</text><line style="stroke: #A80036; stroke-width: 1.5;" x1="702" x2="826" y1="820.1797" y2="820.1797"/><!--MD5=[0f39e4cb6f03951afbf6d14bd2505654]
class Address--><rect fill="#FEFECE" filter="url(#fm6bxpyzvfqy5)" height="158.6875" id="Address" style="stroke: #A80036; stroke-width: 1.5;" width="342" x="751" y="1143"/><ellipse cx="894.75" cy="1159" fill="#ADD1B2" rx="11" ry="11" style="stroke: #A80036; stroke-width: 1.0;"/><path d="M896.75,1155.5 Q896.9531,1155 897.1875,1154.75 Q897.4219,1154.5 897.6875,1154.5 Q898.1563,1154.5 898.4531,1154.7813 Q898.75,1155.0625 898.75,1155.7188 L898.75,1157.2813 Q898.75,1157.9375 898.4688,1158.2188 Q898.1875,1158.5 897.75,1158.5 Q897.3594,1158.5 897.1094,1158.3281 Q896.8594,1158.1563 896.75,1157.7031 Q896.7031,1157.3906 896.5313,1157.2188 Q896.2188,1156.8906 895.6563,1156.7031 Q895.0938,1156.5 894.5313,1156.5 Q893.8281,1156.5 893.2344,1156.7813 Q892.6563,1157.0625 892.2031,1157.6875 Q891.75,1158.3125 891.75,1159.1719 L891.75,1160.0938 Q891.75,1161.125 892.5938,1161.8125 Q893.4375,1162.5 894.9375,1162.5 Q895.8281,1162.5 896.4531,1162.2969 Q896.8125,1162.1875 897.2188,1161.8281 Q897.4844,1161.625 897.625,1161.5625 Q897.7656,1161.5 897.9375,1161.5 Q898.2656,1161.5 898.5,1161.7656 Q898.75,1162.0156 898.75,1162.375 Q898.75,1162.7188 898.4063,1163.125 Q897.9063,1163.7188 897.1094,1164.0469 Q896.0625,1164.5 894.7813,1164.5 Q893.2813,1164.5 892.0781,1163.9063 Q891.1094,1163.4375 890.4219,1162.4219 Q889.75,1161.4063 889.75,1160.2031 L889.75,1159.1094 Q889.75,1157.8594 890.3438,1156.7656 Q890.9531,1155.6719 892,1155.0938 Q893.0625,1154.5 894.25,1154.5 Q894.9688,1154.5 895.5938,1154.75 Q896.2188,1155 896.75,1155.5 Z "/><text fill="#000000" font-family="sans-serif" font-size="12" lengthAdjust="spacingAndGlyphs" textLength="46" x="915.25" y="1163.9102">Address</text><line style="stroke: #A80036; stroke-width: 1.5;" x1="752" x2="1092" y1="1175" y2="1175"/><text fill="#000000" font-family="sans-serif" font-size="11" lengthAdjust="spacingAndGlyphs" textLength="90" x="757" y="1190.4189">-String streetName</text><text fill="#000000" font-family="sans-serif" font-size="11" lengthAdjust="spacingAndGlyphs" textLength="94" x="757" y="1204.2549">-String doorNumber</text><text fill="#000000" font-family="sans-serif" font-size="11" lengthAdjust="spacingAndGlyphs" textLength="89" x="757" y="1218.0908">-String postalCode</text><text fill="#000000" font-family="sans-serif" font-size="11" lengthAdjust="spacingAndGlyphs" textLength="68" x="757" y="1231.9268">-String locality</text><text fill="#000000" font-family="sans-serif" font-size="11" lengthAdjust="spacingAndGlyphs" textLength="72" x="757" y="1245.7627">-String country</text><text fill="#000000" font-family="sans-serif" font-size="11" lengthAdjust="spacingAndGlyphs" textLength="71" x="757" y="1259.5986">-float longitude</text><text fill="#000000" font-family="sans-serif" font-size="11" lengthAdjust="spacingAndGlyphs" textLength="62" x="757" y="1273.4346">-float latitude</text><line style="stroke: #A80036; stroke-width: 1.5;" x1="752" x2="1092" y1="1279.8516" y2="1279.8516"/><text fill="#000000" font-family="sans-serif" font-size="11" lengthAdjust="spacingAndGlyphs" textLength="330" x="757" y="1295.2705">+create(streetName,doorNumber,locality,country,longitude,longitude)</text><!--MD5=[cf4d6237fcae255cd2e1656cf84a30e2]
class Order--><rect fill="#FEFECE" filter="url(#fm6bxpyzvfqy5)" height="158.6875" id="Order" style="stroke: #A80036; stroke-width: 1.5;" width="666" x="833" y="906"/><ellipse cx="1146.25" cy="922" fill="#ADD1B2" rx="11" ry="11" style="stroke: #A80036; stroke-width: 1.0;"/><path d="M1148.25,918.5 Q1148.4531,918 1148.6875,917.75 Q1148.9219,917.5 1149.1875,917.5 Q1149.6563,917.5 1149.9531,917.7813 Q1150.25,918.0625 1150.25,918.7188 L1150.25,920.2813 Q1150.25,920.9375 1149.9688,921.2188 Q1149.6875,921.5 1149.25,921.5 Q1148.8594,921.5 1148.6094,921.3281 Q1148.3594,921.1563 1148.25,920.7031 Q1148.2031,920.3906 1148.0313,920.2188 Q1147.7188,919.8906 1147.1563,919.7031 Q1146.5938,919.5 1146.0313,919.5 Q1145.3281,919.5 1144.7344,919.7813 Q1144.1563,920.0625 1143.7031,920.6875 Q1143.25,921.3125 1143.25,922.1719 L1143.25,923.0938 Q1143.25,924.125 1144.0938,924.8125 Q1144.9375,925.5 1146.4375,925.5 Q1147.3281,925.5 1147.9531,925.2969 Q1148.3125,925.1875 1148.7188,924.8281 Q1148.9844,924.625 1149.125,924.5625 Q1149.2656,924.5 1149.4375,924.5 Q1149.7656,924.5 1150,924.7656 Q1150.25,925.0156 1150.25,925.375 Q1150.25,925.7188 1149.9063,926.125 Q1149.4063,926.7188 1148.6094,927.0469 Q1147.5625,927.5 1146.2813,927.5 Q1144.7813,927.5 1143.5781,926.9063 Q1142.6094,926.4375 1141.9219,925.4219 Q1141.25,924.4063 1141.25,923.2031 L1141.25,922.1094 Q1141.25,920.8594 1141.8438,919.7656 Q1142.4531,918.6719 1143.5,918.0938 Q1144.5625,917.5 1145.75,917.5 Q1146.4688,917.5 1147.0938,917.75 Q1147.7188,918 1148.25,918.5 Z "/><text fill="#000000" font-family="sans-serif" font-size="12" lengthAdjust="spacingAndGlyphs" textLength="31" x="1166.75" y="926.9102">Order</text><line style="stroke: #A80036; stroke-width: 1.5;" x1="834" x2="1498" y1="938" y2="938"/><text fill="#000000" font-family="sans-serif" font-size="11" lengthAdjust="spacingAndGlyphs" textLength="26" x="839" y="953.4189">-int id</text><text fill="#000000" font-family="sans-serif" font-size="11" lengthAdjust="spacingAndGlyphs" textLength="63" x="839" y="967.2549">-float amount</text><text fill="#000000" font-family="sans-serif" font-size="11" lengthAdjust="spacingAndGlyphs" textLength="81" x="839" y="981.0908">-float totalWeight</text><text fill="#000000" font-family="sans-serif" font-size="11" lengthAdjust="spacingAndGlyphs" textLength="91" x="839" y="994.9268">-float additionalFee</text><text fill="#000000" font-family="sans-serif" font-size="11" lengthAdjust="spacingAndGlyphs" textLength="77" x="839" y="1008.7627">-Date orderDate</text><text fill="#000000" font-family="sans-serif" font-size="11" lengthAdjust="spacingAndGlyphs" textLength="88" x="839" y="1022.5986">-String description</text><text fill="#000000" font-family="sans-serif" font-size="11" lengthAdjust="spacingAndGlyphs" textLength="65" x="839" y="1036.4346">-String status</text><line style="stroke: #A80036; stroke-width: 1.5;" x1="834" x2="1498" y1="1042.8516" y2="1042.8516"/><text fill="#000000" font-family="sans-serif" font-size="11" lengthAdjust="spacingAndGlyphs" textLength="654" x="839" y="1058.2705">+create(amount, additionalFee, dateOrder, description, mapProducts, client, streetName,doorNumber,locality,country,longitude,longitude)</text><!--MD5=[72136138052d025cffdce3c22fbd185f]
class Product--><rect fill="#FEFECE" filter="url(#fm6bxpyzvfqy5)" height="117.1797" id="Product" style="stroke: #A80036; stroke-width: 1.5;" width="106" x="1288" y="1164"/><ellipse cx="1317.4" cy="1180" fill="#ADD1B2" rx="11" ry="11" style="stroke: #A80036; stroke-width: 1.0;"/><path d="M1319.4,1176.5 Q1319.6031,1176 1319.8375,1175.75 Q1320.0719,1175.5 1320.3375,1175.5 Q1320.8063,1175.5 1321.1031,1175.7813 Q1321.4,1176.0625 1321.4,1176.7188 L1321.4,1178.2813 Q1321.4,1178.9375 1321.1188,1179.2188 Q1320.8375,1179.5 1320.4,1179.5 Q1320.0094,1179.5 1319.7594,1179.3281 Q1319.5094,1179.1563 1319.4,1178.7031 Q1319.3531,1178.3906 1319.1813,1178.2188 Q1318.8688,1177.8906 1318.3063,1177.7031 Q1317.7438,1177.5 1317.1813,1177.5 Q1316.4781,1177.5 1315.8844,1177.7813 Q1315.3063,1178.0625 1314.8531,1178.6875 Q1314.4,1179.3125 1314.4,1180.1719 L1314.4,1181.0938 Q1314.4,1182.125 1315.2438,1182.8125 Q1316.0875,1183.5 1317.5875,1183.5 Q1318.4781,1183.5 1319.1031,1183.2969 Q1319.4625,1183.1875 1319.8688,1182.8281 Q1320.1344,1182.625 1320.275,1182.5625 Q1320.4156,1182.5 1320.5875,1182.5 Q1320.9156,1182.5 1321.15,1182.7656 Q1321.4,1183.0156 1321.4,1183.375 Q1321.4,1183.7188 1321.0563,1184.125 Q1320.5563,1184.7188 1319.7594,1185.0469 Q1318.7125,1185.5 1317.4313,1185.5 Q1315.9313,1185.5 1314.7281,1184.9063 Q1313.7594,1184.4375 1313.0719,1183.4219 Q1312.4,1182.4063 1312.4,1181.2031 L1312.4,1180.1094 Q1312.4,1178.8594 1312.9938,1177.7656 Q1313.6031,1176.6719 1314.65,1176.0938 Q1315.7125,1175.5 1316.9,1175.5 Q1317.6188,1175.5 1318.2438,1175.75 Q1318.8688,1176 1319.4,1176.5 Z "/><text fill="#000000" font-family="sans-serif" font-size="12" lengthAdjust="spacingAndGlyphs" textLength="42" x="1334.6" y="1184.9102">Product</text><line style="stroke: #A80036; stroke-width: 1.5;" x1="1289" x2="1393" y1="1196" y2="1196"/><text fill="#000000" font-family="sans-serif" font-size="11" lengthAdjust="spacingAndGlyphs" textLength="26" x="1294" y="1211.4189">-int id</text><text fill="#000000" font-family="sans-serif" font-size="11" lengthAdjust="spacingAndGlyphs" textLength="61" x="1294" y="1225.2549">-String name</text><text fill="#000000" font-family="sans-serif" font-size="11" lengthAdjust="spacingAndGlyphs" textLength="88" x="1294" y="1239.0908">-String description</text><text fill="#000000" font-family="sans-serif" font-size="11" lengthAdjust="spacingAndGlyphs" textLength="85" x="1294" y="1252.9268">-float unitaryPrice</text><text fill="#000000" font-family="sans-serif" font-size="11" lengthAdjust="spacingAndGlyphs" textLength="94" x="1294" y="1266.7627">-float unitaryWeight</text><line style="stroke: #A80036; stroke-width: 1.5;" x1="1289" x2="1393" y1="1273.1797" y2="1273.1797"/><!--MD5=[d0b42ea7f64b79a0b58ded84ada2dba0]
class ClientRegistration--><rect fill="#FEFECE" filter="url(#fm6bxpyzvfqy5)" height="75.6719" id="ClientRegistration" style="stroke: #A80036; stroke-width: 1.5;" width="131" x="899.5" y="548"/><ellipse cx="914.5" cy="564" fill="#ADD1B2" rx="11" ry="11" style="stroke: #A80036; stroke-width: 1.0;"/><path d="M916.5,560.5 Q916.7031,560 916.9375,559.75 Q917.1719,559.5 917.4375,559.5 Q917.9063,559.5 918.2031,559.7813 Q918.5,560.0625 918.5,560.7188 L918.5,562.2813 Q918.5,562.9375 918.2188,563.2188 Q917.9375,563.5 917.5,563.5 Q917.1094,563.5 916.8594,563.3281 Q916.6094,563.1563 916.5,562.7031 Q916.4531,562.3906 916.2813,562.2188 Q915.9688,561.8906 915.4063,561.7031 Q914.8438,561.5 914.2813,561.5 Q913.5781,561.5 912.9844,561.7813 Q912.4063,562.0625 911.9531,562.6875 Q911.5,563.3125 911.5,564.1719 L911.5,565.0938 Q911.5,566.125 912.3438,566.8125 Q913.1875,567.5 914.6875,567.5 Q915.5781,567.5 916.2031,567.2969 Q916.5625,567.1875 916.9688,566.8281 Q917.2344,566.625 917.375,566.5625 Q917.5156,566.5 917.6875,566.5 Q918.0156,566.5 918.25,566.7656 Q918.5,567.0156 918.5,567.375 Q918.5,567.7188 918.1563,568.125 Q917.6563,568.7188 916.8594,569.0469 Q915.8125,569.5 914.5313,569.5 Q913.0313,569.5 911.8281,568.9063 Q910.8594,568.4375 910.1719,567.4219 Q909.5,566.4063 909.5,565.2031 L909.5,564.1094 Q909.5,562.8594 910.0938,561.7656 Q910.7031,560.6719 911.75,560.0938 Q912.8125,559.5 914,559.5 Q914.7188,559.5 915.3438,559.75 Q915.9688,560 916.5,560.5 Z "/><text fill="#000000" font-family="sans-serif" font-size="12" lengthAdjust="spacingAndGlyphs" textLength="99" x="928.5" y="568.9102">ClientRegistration</text><line style="stroke: #A80036; stroke-width: 1.5;" x1="900.5" x2="1029.5" y1="580" y2="580"/><line style="stroke: #A80036; stroke-width: 1.5;" x1="900.5" x2="1029.5" y1="588" y2="588"/><text fill="#000000" font-family="sans-serif" font-size="11" lengthAdjust="spacingAndGlyphs" textLength="113" x="905.5" y="603.4189">+getUserByEmail(email)</text><text fill="#000000" font-family="sans-serif" font-size="11" lengthAdjust="spacingAndGlyphs" textLength="83" x="905.5" y="617.2549">+getConnection()</text><!--MD5=[9c2d4e25e0086734e4ce1577f70bbb4e]
class ProductRegistration--><rect fill="#FEFECE" filter="url(#fm6bxpyzvfqy5)" height="75.6719" id="ProductRegistration" style="stroke: #A80036; stroke-width: 1.5;" width="141" x="1537.5" y="548"/><ellipse cx="1552.5" cy="564" fill="#ADD1B2" rx="11" ry="11" style="stroke: #A80036; stroke-width: 1.0;"/><path d="M1554.5,560.5 Q1554.7031,560 1554.9375,559.75 Q1555.1719,559.5 1555.4375,559.5 Q1555.9063,559.5 1556.2031,559.7813 Q1556.5,560.0625 1556.5,560.7188 L1556.5,562.2813 Q1556.5,562.9375 1556.2188,563.2188 Q1555.9375,563.5 1555.5,563.5 Q1555.1094,563.5 1554.8594,563.3281 Q1554.6094,563.1563 1554.5,562.7031 Q1554.4531,562.3906 1554.2813,562.2188 Q1553.9688,561.8906 1553.4063,561.7031 Q1552.8438,561.5 1552.2813,561.5 Q1551.5781,561.5 1550.9844,561.7813 Q1550.4063,562.0625 1549.9531,562.6875 Q1549.5,563.3125 1549.5,564.1719 L1549.5,565.0938 Q1549.5,566.125 1550.3438,566.8125 Q1551.1875,567.5 1552.6875,567.5 Q1553.5781,567.5 1554.2031,567.2969 Q1554.5625,567.1875 1554.9688,566.8281 Q1555.2344,566.625 1555.375,566.5625 Q1555.5156,566.5 1555.6875,566.5 Q1556.0156,566.5 1556.25,566.7656 Q1556.5,567.0156 1556.5,567.375 Q1556.5,567.7188 1556.1563,568.125 Q1555.6563,568.7188 1554.8594,569.0469 Q1553.8125,569.5 1552.5313,569.5 Q1551.0313,569.5 1549.8281,568.9063 Q1548.8594,568.4375 1548.1719,567.4219 Q1547.5,566.4063 1547.5,565.2031 L1547.5,564.1094 Q1547.5,562.8594 1548.0938,561.7656 Q1548.7031,560.6719 1549.75,560.0938 Q1550.8125,559.5 1552,559.5 Q1552.7188,559.5 1553.3438,559.75 Q1553.9688,560 1554.5,560.5 Z "/><text fill="#000000" font-family="sans-serif" font-size="12" lengthAdjust="spacingAndGlyphs" textLength="109" x="1566.5" y="568.9102">ProductRegistration</text><line style="stroke: #A80036; stroke-width: 1.5;" x1="1538.5" x2="1677.5" y1="580" y2="580"/><line style="stroke: #A80036; stroke-width: 1.5;" x1="1538.5" x2="1677.5" y1="588" y2="588"/><text fill="#000000" font-family="sans-serif" font-size="11" lengthAdjust="spacingAndGlyphs" textLength="110" x="1543.5" y="603.4189">+getAvailableProduts()</text><text fill="#000000" font-family="sans-serif" font-size="11" lengthAdjust="spacingAndGlyphs" textLength="83" x="1543.5" y="617.2549">+getConnection()</text><!--MD5=[fa2eb4bbb726c410908f1f53a3c9f4ac]
class OrderRegistration--><rect fill="#FEFECE" filter="url(#fm6bxpyzvfqy5)" height="89.5078" id="OrderRegistration" style="stroke: #A80036; stroke-width: 1.5;" width="436" x="1066" y="541"/><ellipse cx="1230.75" cy="557" fill="#ADD1B2" rx="11" ry="11" style="stroke: #A80036; stroke-width: 1.0;"/><path d="M1232.75,553.5 Q1232.9531,553 1233.1875,552.75 Q1233.4219,552.5 1233.6875,552.5 Q1234.1563,552.5 1234.4531,552.7813 Q1234.75,553.0625 1234.75,553.7188 L1234.75,555.2813 Q1234.75,555.9375 1234.4688,556.2188 Q1234.1875,556.5 1233.75,556.5 Q1233.3594,556.5 1233.1094,556.3281 Q1232.8594,556.1563 1232.75,555.7031 Q1232.7031,555.3906 1232.5313,555.2188 Q1232.2188,554.8906 1231.6563,554.7031 Q1231.0938,554.5 1230.5313,554.5 Q1229.8281,554.5 1229.2344,554.7813 Q1228.6563,555.0625 1228.2031,555.6875 Q1227.75,556.3125 1227.75,557.1719 L1227.75,558.0938 Q1227.75,559.125 1228.5938,559.8125 Q1229.4375,560.5 1230.9375,560.5 Q1231.8281,560.5 1232.4531,560.2969 Q1232.8125,560.1875 1233.2188,559.8281 Q1233.4844,559.625 1233.625,559.5625 Q1233.7656,559.5 1233.9375,559.5 Q1234.2656,559.5 1234.5,559.7656 Q1234.75,560.0156 1234.75,560.375 Q1234.75,560.7188 1234.4063,561.125 Q1233.9063,561.7188 1233.1094,562.0469 Q1232.0625,562.5 1230.7813,562.5 Q1229.2813,562.5 1228.0781,561.9063 Q1227.1094,561.4375 1226.4219,560.4219 Q1225.75,559.4063 1225.75,558.2031 L1225.75,557.1094 Q1225.75,555.8594 1226.3438,554.7656 Q1226.9531,553.6719 1228,553.0938 Q1229.0625,552.5 1230.25,552.5 Q1230.9688,552.5 1231.5938,552.75 Q1232.2188,553 1232.75,553.5 Z "/><text fill="#000000" font-family="sans-serif" font-size="12" lengthAdjust="spacingAndGlyphs" textLength="98" x="1251.25" y="561.9102">OrderRegistration</text><line style="stroke: #A80036; stroke-width: 1.5;" x1="1067" x2="1501" y1="573" y2="573"/><line style="stroke: #A80036; stroke-width: 1.5;" x1="1067" x2="1501" y1="581" y2="581"/><text fill="#000000" font-family="sans-serif" font-size="11" lengthAdjust="spacingAndGlyphs" textLength="424" x="1072" y="596.4189">+addOrder(address, amount, additionalFee, dateOrder, description, mapProducts, client)</text><text fill="#000000" font-family="sans-serif" font-size="11" lengthAdjust="spacingAndGlyphs" textLength="105" x="1072" y="610.2549">+validateOrder(order)</text><text fill="#000000" font-family="sans-serif" font-size="11" lengthAdjust="spacingAndGlyphs" textLength="83" x="1072" y="624.0908">+getConnection()</text><!--MD5=[4b2d61224b33971326a22fe5d809d926]
class DataHandler--><rect fill="#FEFECE" filter="url(#fm6bxpyzvfqy5)" height="75.6719" id="DataHandler" style="stroke: #A80036; stroke-width: 1.5;" width="104" x="1759" y="351.5"/><ellipse cx="1774.9" cy="367.5" fill="#ADD1B2" rx="11" ry="11" style="stroke: #A80036; stroke-width: 1.0;"/><path d="M1776.9,364 Q1777.1031,363.5 1777.3375,363.25 Q1777.5719,363 1777.8375,363 Q1778.3063,363 1778.6031,363.2813 Q1778.9,363.5625 1778.9,364.2188 L1778.9,365.7813 Q1778.9,366.4375 1778.6188,366.7188 Q1778.3375,367 1777.9,367 Q1777.5094,367 1777.2594,366.8281 Q1777.0094,366.6563 1776.9,366.2031 Q1776.8531,365.8906 1776.6813,365.7188 Q1776.3688,365.3906 1775.8063,365.2031 Q1775.2438,365 1774.6813,365 Q1773.9781,365 1773.3844,365.2813 Q1772.8063,365.5625 1772.3531,366.1875 Q1771.9,366.8125 1771.9,367.6719 L1771.9,368.5938 Q1771.9,369.625 1772.7438,370.3125 Q1773.5875,371 1775.0875,371 Q1775.9781,371 1776.6031,370.7969 Q1776.9625,370.6875 1777.3688,370.3281 Q1777.6344,370.125 1777.775,370.0625 Q1777.9156,370 1778.0875,370 Q1778.4156,370 1778.65,370.2656 Q1778.9,370.5156 1778.9,370.875 Q1778.9,371.2188 1778.5563,371.625 Q1778.0563,372.2188 1777.2594,372.5469 Q1776.2125,373 1774.9313,373 Q1773.4313,373 1772.2281,372.4063 Q1771.2594,371.9375 1770.5719,370.9219 Q1769.9,369.9063 1769.9,368.7031 L1769.9,367.6094 Q1769.9,366.3594 1770.4938,365.2656 Q1771.1031,364.1719 1772.15,363.5938 Q1773.2125,363 1774.4,363 Q1775.1188,363 1775.7438,363.25 Q1776.3688,363.5 1776.9,364 Z "/><text fill="#000000" font-family="sans-serif" font-size="12" lengthAdjust="spacingAndGlyphs" textLength="70" x="1789.1" y="372.4102">DataHandler</text><line style="stroke: #A80036; stroke-width: 1.5;" x1="1760" x2="1862" y1="383.5" y2="383.5"/><line style="stroke: #A80036; stroke-width: 1.5;" x1="1760" x2="1862" y1="391.5" y2="391.5"/><text fill="#000000" font-family="sans-serif" font-size="11" lengthAdjust="spacingAndGlyphs" textLength="92" x="1765" y="406.9189">+openConnection()</text><text fill="#000000" font-family="sans-serif" font-size="11" lengthAdjust="spacingAndGlyphs" textLength="52" x="1765" y="420.7549">+closeAll()</text><!--MD5=[67d8189a9792620110f434aadc3cc064]
reverse link DataHandler to ClientRegistration--><path d="M1747.98,438.232 C1738.65,443.505 1728.84,448.165 1719,451.5 C1577.66,499.384 1184.13,433.676 1049,497 C1025.29,508.113 1004.836,529.107 990.053,547.802 " fill="none" id="DataHandler&lt;-ClientRegistration" style="stroke: #A80036; stroke-width: 1.0;"/><polygon fill="none" points="1744.56,432.114,1765.25,427.521,1751.94,444.012,1744.56,432.114" style="stroke: #A80036; stroke-width: 1.0;"/><!--MD5=[236efe61c3b933e5e93090a082570e59]
reverse link DataHandler to ProductRegistration--><path d="M1757.62,441.643 C1722.85,474.955 1678.28,517.66 1646.86,547.765 " fill="none" id="DataHandler&lt;-ProductRegistration" style="stroke: #A80036; stroke-width: 1.0;"/><polygon fill="none" points="1753.06,436.324,1772.34,427.542,1762.74,446.433,1753.06,436.324" style="stroke: #A80036; stroke-width: 1.0;"/><!--MD5=[09bb80ac49ff7f1738cb05fab67061cd]
reverse link DataHandler to OrderRegistration--><path d="M1745.2,438.129 C1736.64,443.118 1727.78,447.733 1719,451.5 C1635.62,487.259 1606.92,470.983 1520,497 C1477.9,509.602 1432.48,525.872 1392.84,540.988 " fill="none" id="DataHandler&lt;-OrderRegistration" style="stroke: #A80036; stroke-width: 1.0;"/><polygon fill="none" points="1741.57,432.142,1762.25,427.515,1748.97,444.027,1741.57,432.142" style="stroke: #A80036; stroke-width: 1.0;"/><!--MD5=[a605f9a646bac91c0f1ec4bed5c60b13]
reverse link User to Client--><path d="M773.023,651.524 C771.531,670.872 769.904,691.959 768.448,710.835 " fill="none" id="User&lt;-Client" style="stroke: #A80036; stroke-width: 1.0;"/><polygon fill="none" points="766.058,650.802,774.575,631.4,780.016,651.879,766.058,650.802" style="stroke: #A80036; stroke-width: 1.0;"/><!--MD5=[a36b29e78612905c5aab28d0d19b6079]
link MakeAnOrderUI to MakeAnOrderController--><path d="M272,108.1 C272,129.8 272,162.6 272,187.6 " fill="none" id="MakeAnOrderUI-&gt;MakeAnOrderController" style="stroke: #A80036; stroke-width: 1.0; stroke-dasharray: 7.0,7.0;"/><polygon fill="#A80036" points="272,192.81,276,183.81,272,187.81,268,183.81,272,192.81" style="stroke: #A80036; stroke-width: 1.0;"/><!--MD5=[feca89a249e60d462d16f9719ea3f968]
link MakeAnOrderController to Platform--><path d="M394.522,255.06 C435.449,266.1 481.05,279.48 522,294 C577.645,313.74 639.159,341.234 682.262,361.48 " fill="none" id="MakeAnOrderController-&gt;Platform" style="stroke: #A80036; stroke-width: 1.0; stroke-dasharray: 7.0,7.0;"/><polygon fill="#A80036" points="686.899,363.664,680.461,356.2107,682.3755,361.5337,677.0525,363.4483,686.899,363.664" style="stroke: #A80036; stroke-width: 1.0;"/><!--MD5=[da044d77d4d681fe9cef81e1781c5eb3]
link MakeAnOrderController to ApplicationPOT--><path d="M292.618,255.37 C310.187,281.25 335.598,318.68 355.004,347.263 " fill="none" id="MakeAnOrderController-&gt;ApplicationPOT" style="stroke: #A80036; stroke-width: 1.0; stroke-dasharray: 7.0,7.0;"/><polygon fill="#A80036" points="357.822,351.414,356.0764,341.7211,355.0137,347.2772,349.4575,346.2144,357.822,351.414" style="stroke: #A80036; stroke-width: 1.0;"/><!--MD5=[86c56b58e3b3d58f3f9123d18f3804af]
link MakeAnOrderController to UserSession--><path d="M264.57,255.37 C257.778,283.13 247.734,324.19 240.598,353.355 " fill="none" id="MakeAnOrderController-&gt;UserSession" style="stroke: #A80036; stroke-width: 1.0; stroke-dasharray: 7.0,7.0;"/><polygon fill="#A80036" points="239.39,358.293,245.4151,350.5021,240.5788,353.4364,237.6445,348.6,239.39,358.293" style="stroke: #A80036; stroke-width: 1.0;"/><!--MD5=[a11b4989068d0b492dc06e46ace33666]
link Platform to ClientRegistration--><path d="M789.243,416.754 C815.203,431.153 846.531,450.271 872,471 C884.197,480.927 885.807,485.025 896,497 C908.653,511.865 922.01,528.628 933.568,543.505 " fill="none" id="Platform-&gt;ClientRegistration" style="stroke: #A80036; stroke-width: 1.0;"/><polygon fill="#A80036" points="936.777,547.648,934.4286,538.0832,933.7154,543.6949,928.1037,542.9818,936.777,547.648" style="stroke: #A80036; stroke-width: 1.0;"/><text fill="#000000" font-family="sans-serif" font-size="13" lengthAdjust="spacingAndGlyphs" textLength="21" x="890" y="485.4951">has</text><text fill="#000000" font-family="sans-serif" font-size="13" lengthAdjust="spacingAndGlyphs" textLength="7" x="796.9412" y="416.9573">1</text><text fill="#000000" font-family="sans-serif" font-size="13" lengthAdjust="spacingAndGlyphs" textLength="7" x="924.3246" y="537.2348">1</text><!--MD5=[b397f3671494b735fa996c3471f458db]
link ClientRegistration to Client--><path d="M972.115,624.221 C973.624,642.768 972.122,664.662 961,681 C931.902,723.746 876.824,745.839 832.288,757.121 " fill="none" id="ClientRegistration-&gt;Client" style="stroke: #A80036; stroke-width: 1.0;"/><polygon fill="#A80036" points="827.188,758.377,836.884,760.1057,832.0426,757.1798,834.9684,752.3384,827.188,758.377" style="stroke: #A80036; stroke-width: 1.0;"/><text fill="#000000" font-family="sans-serif" font-size="13" lengthAdjust="spacingAndGlyphs" textLength="53" x="969" y="677.4951">manages</text><text fill="#000000" font-family="sans-serif" font-size="13" lengthAdjust="spacingAndGlyphs" textLength="7" x="965.6911" y="645.1368">1</text><text fill="#000000" font-family="sans-serif" font-size="13" lengthAdjust="spacingAndGlyphs" textLength="5" x="835.1937" y="753.552">*</text><!--MD5=[3952d548186971eff118ff5187ac3af9]
link ProductRegistration to Product--><path d="M1608.81,624.201 C1609.04,708.438 1600.47,917.865 1517,1065 C1488.58,1115.098 1438.14,1157.448 1398.53,1185.408 " fill="none" id="ProductRegistration-&gt;Product" style="stroke: #A80036; stroke-width: 1.0;"/><polygon fill="#A80036" points="1394.24,1188.407,1403.9103,1186.54,1398.3413,1185.547,1399.3343,1179.978,1394.24,1188.407" style="stroke: #A80036; stroke-width: 1.0;"/><text fill="#000000" font-family="sans-serif" font-size="13" lengthAdjust="spacingAndGlyphs" textLength="53" x="1588" y="872.4951">manages</text><text fill="#000000" font-family="sans-serif" font-size="13" lengthAdjust="spacingAndGlyphs" textLength="7" x="1601.3813" y="645.1136">1</text><text fill="#000000" font-family="sans-serif" font-size="13" lengthAdjust="spacingAndGlyphs" textLength="5" x="1402.0784" y="1179.9949">*</text><!--MD5=[6ac8005c0de3a3c9973530d8c311fc29]
link OrderRegistration to Order--><path d="M1270.92,631.058 C1251.65,695.965 1215.29,818.476 1190.84,900.808 " fill="none" id="OrderRegistration-&gt;Order" style="stroke: #A80036; stroke-width: 1.0;"/><polygon fill="#A80036" points="1189.4,905.679,1195.7929,898.1869,1190.821,900.8852,1188.1228,895.9133,1189.4,905.679" style="stroke: #A80036; stroke-width: 1.0;"/><text fill="#000000" font-family="sans-serif" font-size="13" lengthAdjust="spacingAndGlyphs" textLength="53" x="1247" y="774.9951">manages</text><text fill="#000000" font-family="sans-serif" font-size="13" lengthAdjust="spacingAndGlyphs" textLength="7" x="1261.5884" y="652.0737">1</text><text fill="#000000" font-family="sans-serif" font-size="13" lengthAdjust="spacingAndGlyphs" textLength="5" x="1186.3267" y="895.1087">*</text><!--MD5=[6f4f5a959b7eecf0b4982552d890dec0]
link Platform to Client--><path d="M686.819,419.736 C660.057,438.114 629.85,464.5 615,497 C585.817,560.871 583.831,592.074 615,655 C632.97,691.279 668.702,719.115 700.67,738.14 " fill="none" id="Platform-Client" style="stroke: #A80036; stroke-width: 1.0;"/><text fill="#000000" font-family="sans-serif" font-size="13" lengthAdjust="spacingAndGlyphs" textLength="82" x="616" y="591.4951">has registered</text><polygon fill="#000000" points="652.5,600.3516,655.5,606.3516,658.5,600.3516,652.5,600.3516" style="stroke: #000000; stroke-width: 1.0;"/><text fill="#000000" font-family="sans-serif" font-size="13" lengthAdjust="spacingAndGlyphs" textLength="7" x="672.1295" y="420.3586">1</text><text fill="#000000" font-family="sans-serif" font-size="13" lengthAdjust="spacingAndGlyphs" textLength="5" x="688.0584" y="731.0941">*</text><!--MD5=[46120166855af3d867105a26a4c9094b]
link Platform to Order--><path d="M789.196,428.161 C809.991,446.446 831.924,470.252 844,497 C877.722,571.692 821.795,606.528 856,681 C898.125,772.715 981.086,851.571 1050.59,905.901 " fill="none" id="Platform-Order" style="stroke: #A80036; stroke-width: 1.0;"/><text fill="#000000" font-family="sans-serif" font-size="13" lengthAdjust="spacingAndGlyphs" textLength="82" x="857" y="677.4951">has registered</text><polygon fill="#000000" points="893.5,686.3516,896.5,692.3516,899.5,686.3516,893.5,686.3516" style="stroke: #000000; stroke-width: 1.0;"/><text fill="#000000" font-family="sans-serif" font-size="13" lengthAdjust="spacingAndGlyphs" textLength="7" x="796.8876" y="448.2184">1</text><text fill="#000000" font-family="sans-serif" font-size="13" lengthAdjust="spacingAndGlyphs" textLength="5" x="1034.3517" y="895.0785">*</text><!--MD5=[5df16df72a49edaa4f00919f1e597f76]
link Order to Product--><path d="M1224.52,1065.078 C1248.56,1097.368 1275.9,1134.079 1298.05,1163.819 " fill="none" id="Order-Product" style="stroke: #A80036; stroke-width: 1.0;"/><text fill="#000000" font-family="sans-serif" font-size="13" lengthAdjust="spacingAndGlyphs" textLength="21" x="1259" y="1109.4951">has</text><polygon fill="#000000" points="1265,1118.3516,1268,1124.3516,1271,1118.3516,1265,1118.3516" style="stroke: #000000; stroke-width: 1.0;"/><text fill="#000000" font-family="sans-serif" font-size="13" lengthAdjust="spacingAndGlyphs" textLength="7" x="1222.2483" y="1086.1279">1</text><text fill="#000000" font-family="sans-serif" font-size="13" lengthAdjust="spacingAndGlyphs" textLength="5" x="1287.5108" y="1153.1978">*</text><!--MD5=[879bec428a80d843af24dc47845bf14c]
link Client to Order--><path d="M773.071,828.088 C778.361,845.455 786.738,863.267 800,876 C811.473,887.016 824.012,896.921 837.316,905.825 " fill="none" id="Client-Order" style="stroke: #A80036; stroke-width: 1.0;"/><text fill="#000000" font-family="sans-serif" font-size="13" lengthAdjust="spacingAndGlyphs" textLength="39" x="801" y="872.4951">makes</text><polygon fill="#000000" points="816,881.3516,819,887.3516,822,881.3516,816,881.3516" style="stroke: #000000; stroke-width: 1.0;"/><text fill="#000000" font-family="sans-serif" font-size="13" lengthAdjust="spacingAndGlyphs" textLength="7" x="766.75" y="849.709">1</text><text fill="#000000" font-family="sans-serif" font-size="13" lengthAdjust="spacingAndGlyphs" textLength="7" x="818.3781" y="900.1812">1</text><!--MD5=[bd708f2371c655af07b49ddbdb30848a]
link Client to Address--><path d="M756.095,828.085 C750.154,889.347 747.79,987.865 780,1065 C791.804,1093.268 811.015,1119.746 831.545,1142.593 " fill="none" id="Client-Address" style="stroke: #A80036; stroke-width: 1.0;"/><text fill="#000000" font-family="sans-serif" font-size="13" lengthAdjust="spacingAndGlyphs" textLength="21" x="781" y="990.9951">has</text><polygon fill="#000000" points="787,999.8516,790,1005.8516,793,999.8516,787,999.8516" style="stroke: #000000; stroke-width: 1.0;"/><text fill="#000000" font-family="sans-serif" font-size="13" lengthAdjust="spacingAndGlyphs" textLength="7" x="747.705" y="849.7056">1</text><text fill="#000000" font-family="sans-serif" font-size="13" lengthAdjust="spacingAndGlyphs" textLength="7" x="815.8835" y="1132.0148">1</text><!--MD5=[dd2bca8e69277b6dcf04d6bf8fed5dca]
link Order to Address--><path d="M1084.41,1065.078 C1058.37,1090.163 1029.55,1117.916 1003.511,1142.996 " fill="none" id="Order-Address" style="stroke: #A80036; stroke-width: 1.0;"/><polygon fill="#000000" points="1059,1102.6758,1053,1105.6758,1059,1108.6758,1059,1102.6758" style="stroke: #000000; stroke-width: 1.0;"/><text fill="#000000" font-family="sans-serif" font-size="13" lengthAdjust="spacingAndGlyphs" textLength="21" x="1065" y="1109.4951">has</text><text fill="#000000" font-family="sans-serif" font-size="13" lengthAdjust="spacingAndGlyphs" textLength="7" x="1070.0976" y="1086.1279">1</text><text fill="#000000" font-family="sans-serif" font-size="13" lengthAdjust="spacingAndGlyphs" textLength="7" x="1003.9464" y="1132.1825">1</text><!--MD5=[bd22efd8b74c7deb6e6d465d0c557913]
@startuml
skinparam classAttributeIconSize 0

package "UI" #DDDDDD {
class MakeAnOrderUI{

}
}


package "Controller" #DDDDDD {
class MakeAnOrderController{
+registerNewUser(name,email,password,address,gpsLocation,creditCardNr,validityDate,CCV)
}

class ApplicationPOT
{
  +static getInstance()
  +getPlatform()
}

class UserSession
{
  +getCurrentSession()
}
}


package "Model" #DDDDDD {
class Platform {
  -String designation
  +getClientReg()
  +getProductReg()
  +getOrderReg()
}
package "Registration" #DDDDDD {
 class ClientRegistration{
     +getUserByEmail(email)
     +getConnection()
 }

 class ProductRegistration{
      +getAvailableProduts()
      +getConnection()
  }

  class OrderRegistration{
       +addOrder(address, amount, additionalFee, dateOrder, description, mapProducts, client)
       +validateOrder(order)
       +getConnection()
   }
 }
}

package "Model" #DDDDDD {
abstract class User{
-String email
-String password
-String name
}

class Client{
-int IBAN;
-long creditCardNumber
-Address address
-int validityDate
-int CCV
}

class Address{
-   String streetName
-   String doorNumber
-   String postalCode
-   String locality
-   String country
-   float longitude
-   float latitude
+create(streetName,doorNumber,locality,country,longitude,longitude)
}

class Order{
-   int id
-   float amount
-   float totalWeight
-   float additionalFee
-   Date orderDate
-   String description
-   String status
+create(amount, additionalFee, dateOrder, description, mapProducts, client, streetName,doorNumber,locality,country,longitude,longitude)
}

class Product{
-   int id
-   String name
-   String description
-   float unitaryPrice
-   float unitaryWeight
}

}


package "Data" #DDDDDD {
class DataHandler{
    +openConnection()
    +closeAll()
}
}

class ClientRegistration extends DataHandler
class ProductRegistration extends DataHandler
class OrderRegistration extends DataHandler

class Client extends User

MakeAnOrderUI ..> MakeAnOrderController
MakeAnOrderController ..> Platform
MakeAnOrderController ..> ApplicationPOT
MakeAnOrderController ..> UserSession
Platform "1" - -> "1" ClientRegistration : has
ClientRegistration "1" - -> "*" Client : manages
ProductRegistration "1" - -> "*" Product : manages
OrderRegistration "1" - -> "*" Order : manages

Platform "1" - - "*" Client : has registered >
Platform "1" - - "*" Order : has registered >
Order "1" - - "*" Product : has >
Client "1" - - "1" Order : makes >
Client "1" - - "1" Address : has >
Order "1" - - "1" Address : has >

@enduml

PlantUML version 1.2020.09(Sun May 10 11:51:06 BST 2020)
(GPL source distribution)
Java Runtime: OpenJDK Runtime Environment
JVM: OpenJDK 64-Bit Server VM
Java Version: 11.0.6+8-b520.66
Operating System: Windows 10
Default Encoding: Cp1252
Language: pt
Country: PT
--></g></svg>