<?xml version="1.0" encoding="UTF-8" standalone="no"?><svg xmlns="http://www.w3.org/2000/svg" xmlns:xlink="http://www.w3.org/1999/xlink" contentScriptType="application/ecmascript" contentStyleType="text/css" height="434px" preserveAspectRatio="none" style="width:825px;height:434px;" version="1.1" viewBox="0 0 825 434" width="825px" zoomAndPan="magnify"><defs><filter height="300%" id="f1xcexfn0ikkqn" width="300%" x="-1" y="-1"><feGaussianBlur result="blurOut" stdDeviation="2.0"/><feColorMatrix in="blurOut" result="blurOut2" type="matrix" values="0 0 0 0 0 0 0 0 0 0 0 0 0 0 0 0 0 0 .4 0"/><feOffset dx="4.0" dy="4.0" in="blurOut2" result="blurOut3"/><feBlend in="SourceGraphic" in2="blurOut3" mode="normal"/></filter></defs><g><!--MD5=[99b8db98afdc2c8404e39242ef4c1e65]
class Platform--><rect fill="#FEFECE" filter="url(#f1xcexfn0ikkqn)" height="53.8359" id="Platform" style="stroke: #A80036; stroke-width: 1.5;" width="102" x="6" y="202"/><ellipse cx="31.8" cy="218" fill="#ADD1B2" rx="11" ry="11" style="stroke: #A80036; stroke-width: 1.0;"/><path d="M33.8,214.5 Q34.0031,214 34.2375,213.75 Q34.4719,213.5 34.7375,213.5 Q35.2063,213.5 35.5031,213.7813 Q35.8,214.0625 35.8,214.7188 L35.8,216.2813 Q35.8,216.9375 35.5188,217.2188 Q35.2375,217.5 34.8,217.5 Q34.4094,217.5 34.1594,217.3281 Q33.9094,217.1563 33.8,216.7031 Q33.7531,216.3906 33.5813,216.2188 Q33.2688,215.8906 32.7063,215.7031 Q32.1438,215.5 31.5813,215.5 Q30.8781,215.5 30.2844,215.7813 Q29.7063,216.0625 29.2531,216.6875 Q28.8,217.3125 28.8,218.1719 L28.8,219.0938 Q28.8,220.125 29.6438,220.8125 Q30.4875,221.5 31.9875,221.5 Q32.8781,221.5 33.5031,221.2969 Q33.8625,221.1875 34.2688,220.8281 Q34.5344,220.625 34.675,220.5625 Q34.8156,220.5 34.9875,220.5 Q35.3156,220.5 35.55,220.7656 Q35.8,221.0156 35.8,221.375 Q35.8,221.7188 35.4563,222.125 Q34.9563,222.7188 34.1594,223.0469 Q33.1125,223.5 31.8313,223.5 Q30.3313,223.5 29.1281,222.9063 Q28.1594,222.4375 27.4719,221.4219 Q26.8,220.4063 26.8,219.2031 L26.8,218.1094 Q26.8,216.8594 27.3938,215.7656 Q28.0031,214.6719 29.05,214.0938 Q30.1125,213.5 31.3,213.5 Q32.0188,213.5 32.6438,213.75 Q33.2688,214 33.8,214.5 Z "/><text fill="#000000" font-family="sans-serif" font-size="12" lengthAdjust="spacingAndGlyphs" textLength="46" x="48.2" y="222.9102">Platform</text><line style="stroke: #A80036; stroke-width: 1.5;" x1="7" x2="107" y1="234" y2="234"/><text fill="#000000" font-family="sans-serif" font-size="11" lengthAdjust="spacingAndGlyphs" textLength="90" x="12" y="249.4189">-String designation</text><!--MD5=[ed6624c6556d5e7b1bd23032162d20b7]
class Client--><rect fill="#FEFECE" filter="url(#f1xcexfn0ikkqn)" height="95.3438" id="Client" style="stroke: #A80036; stroke-width: 1.5;" width="126" x="265" y="109.5"/><ellipse cx="307.9" cy="125.5" fill="#ADD1B2" rx="11" ry="11" style="stroke: #A80036; stroke-width: 1.0;"/><path d="M309.9,122 Q310.1031,121.5 310.3375,121.25 Q310.5719,121 310.8375,121 Q311.3063,121 311.6031,121.2813 Q311.9,121.5625 311.9,122.2188 L311.9,123.7813 Q311.9,124.4375 311.6188,124.7188 Q311.3375,125 310.9,125 Q310.5094,125 310.2594,124.8281 Q310.0094,124.6563 309.9,124.2031 Q309.8531,123.8906 309.6813,123.7188 Q309.3688,123.3906 308.8063,123.2031 Q308.2438,123 307.6813,123 Q306.9781,123 306.3844,123.2813 Q305.8063,123.5625 305.3531,124.1875 Q304.9,124.8125 304.9,125.6719 L304.9,126.5938 Q304.9,127.625 305.7438,128.3125 Q306.5875,129 308.0875,129 Q308.9781,129 309.6031,128.7969 Q309.9625,128.6875 310.3688,128.3281 Q310.6344,128.125 310.775,128.0625 Q310.9156,128 311.0875,128 Q311.4156,128 311.65,128.2656 Q311.9,128.5156 311.9,128.875 Q311.9,129.2188 311.5563,129.625 Q311.0563,130.2188 310.2594,130.5469 Q309.2125,131 307.9313,131 Q306.4313,131 305.2281,130.4063 Q304.2594,129.9375 303.5719,128.9219 Q302.9,127.9063 302.9,126.7031 L302.9,125.6094 Q302.9,124.3594 303.4938,123.2656 Q304.1031,122.1719 305.15,121.5938 Q306.2125,121 307.4,121 Q308.1188,121 308.7438,121.25 Q309.3688,121.5 309.9,122 Z "/><text fill="#000000" font-family="sans-serif" font-size="12" lengthAdjust="spacingAndGlyphs" textLength="32" x="328.1" y="130.4102">Client</text><line style="stroke: #A80036; stroke-width: 1.5;" x1="266" x2="390" y1="141.5" y2="141.5"/><text fill="#000000" font-family="sans-serif" font-size="11" lengthAdjust="spacingAndGlyphs" textLength="42" x="271" y="156.9189">-int IBAN</text><text fill="#000000" font-family="sans-serif" font-size="11" lengthAdjust="spacingAndGlyphs" textLength="114" x="271" y="170.7549">-long creditCardNumber</text><text fill="#000000" font-family="sans-serif" font-size="11" lengthAdjust="spacingAndGlyphs" textLength="73" x="271" y="184.5908">-int validityDate</text><text fill="#000000" font-family="sans-serif" font-size="11" lengthAdjust="spacingAndGlyphs" textLength="40" x="271" y="198.4268">-int CCV</text><!--MD5=[3fd616f346a44cd59a91eb10b19e157c]
class User--><rect fill="#FEFECE" filter="url(#f1xcexfn0ikkqn)" height="81.5078" id="User" style="stroke: #A80036; stroke-width: 1.5;" width="97" x="512" y="8"/><ellipse cx="544.1" cy="24" fill="#ADD1B2" rx="11" ry="11" style="stroke: #A80036; stroke-width: 1.0;"/><path d="M546.1,20.5 Q546.3031,20 546.5375,19.75 Q546.7719,19.5 547.0375,19.5 Q547.5063,19.5 547.8031,19.7813 Q548.1,20.0625 548.1,20.7188 L548.1,22.2813 Q548.1,22.9375 547.8188,23.2188 Q547.5375,23.5 547.1,23.5 Q546.7094,23.5 546.4594,23.3281 Q546.2094,23.1563 546.1,22.7031 Q546.0531,22.3906 545.8813,22.2188 Q545.5688,21.8906 545.0063,21.7031 Q544.4438,21.5 543.8813,21.5 Q543.1781,21.5 542.5844,21.7813 Q542.0063,22.0625 541.5531,22.6875 Q541.1,23.3125 541.1,24.1719 L541.1,25.0938 Q541.1,26.125 541.9438,26.8125 Q542.7875,27.5 544.2875,27.5 Q545.1781,27.5 545.8031,27.2969 Q546.1625,27.1875 546.5688,26.8281 Q546.8344,26.625 546.975,26.5625 Q547.1156,26.5 547.2875,26.5 Q547.6156,26.5 547.85,26.7656 Q548.1,27.0156 548.1,27.375 Q548.1,27.7188 547.7563,28.125 Q547.2563,28.7188 546.4594,29.0469 Q545.4125,29.5 544.1313,29.5 Q542.6313,29.5 541.4281,28.9063 Q540.4594,28.4375 539.7719,27.4219 Q539.1,26.4063 539.1,25.2031 L539.1,24.1094 Q539.1,22.8594 539.6938,21.7656 Q540.3031,20.6719 541.35,20.0938 Q542.4125,19.5 543.6,19.5 Q544.3188,19.5 544.9438,19.75 Q545.5688,20 546.1,20.5 Z "/><text fill="#000000" font-family="sans-serif" font-size="12" lengthAdjust="spacingAndGlyphs" textLength="27" x="561.9" y="28.9102">User</text><line style="stroke: #A80036; stroke-width: 1.5;" x1="513" x2="608" y1="40" y2="40"/><text fill="#000000" font-family="sans-serif" font-size="11" lengthAdjust="spacingAndGlyphs" textLength="61" x="518" y="55.4189">-String name</text><text fill="#000000" font-family="sans-serif" font-size="11" lengthAdjust="spacingAndGlyphs" textLength="59" x="518" y="69.2549">-String email</text><text fill="#000000" font-family="sans-serif" font-size="11" lengthAdjust="spacingAndGlyphs" textLength="85" x="518" y="83.0908">-String password</text><!--MD5=[0f39e4cb6f03951afbf6d14bd2505654]
class Address--><rect fill="#FEFECE" filter="url(#f1xcexfn0ikkqn)" height="136.8516" id="Address" style="stroke: #A80036; stroke-width: 1.5;" width="106" x="708" y="106.5"/><ellipse cx="735.6" cy="122.5" fill="#ADD1B2" rx="11" ry="11" style="stroke: #A80036; stroke-width: 1.0;"/><path d="M737.6,119 Q737.8031,118.5 738.0375,118.25 Q738.2719,118 738.5375,118 Q739.0063,118 739.3031,118.2813 Q739.6,118.5625 739.6,119.2188 L739.6,120.7813 Q739.6,121.4375 739.3188,121.7188 Q739.0375,122 738.6,122 Q738.2094,122 737.9594,121.8281 Q737.7094,121.6563 737.6,121.2031 Q737.5531,120.8906 737.3813,120.7188 Q737.0688,120.3906 736.5063,120.2031 Q735.9438,120 735.3813,120 Q734.6781,120 734.0844,120.2813 Q733.5063,120.5625 733.0531,121.1875 Q732.6,121.8125 732.6,122.6719 L732.6,123.5938 Q732.6,124.625 733.4438,125.3125 Q734.2875,126 735.7875,126 Q736.6781,126 737.3031,125.7969 Q737.6625,125.6875 738.0688,125.3281 Q738.3344,125.125 738.475,125.0625 Q738.6156,125 738.7875,125 Q739.1156,125 739.35,125.2656 Q739.6,125.5156 739.6,125.875 Q739.6,126.2188 739.2563,126.625 Q738.7563,127.2188 737.9594,127.5469 Q736.9125,128 735.6313,128 Q734.1313,128 732.9281,127.4063 Q731.9594,126.9375 731.2719,125.9219 Q730.6,124.9063 730.6,123.7031 L730.6,122.6094 Q730.6,121.3594 731.1938,120.2656 Q731.8031,119.1719 732.85,118.5938 Q733.9125,118 735.1,118 Q735.8188,118 736.4438,118.25 Q737.0688,118.5 737.6,119 Z "/><text fill="#000000" font-family="sans-serif" font-size="12" lengthAdjust="spacingAndGlyphs" textLength="46" x="752.4" y="127.4102">Address</text><line style="stroke: #A80036; stroke-width: 1.5;" x1="709" x2="813" y1="138.5" y2="138.5"/><text fill="#000000" font-family="sans-serif" font-size="11" lengthAdjust="spacingAndGlyphs" textLength="90" x="714" y="153.9189">-String streetName</text><text fill="#000000" font-family="sans-serif" font-size="11" lengthAdjust="spacingAndGlyphs" textLength="94" x="714" y="167.7549">-String doorNumber</text><text fill="#000000" font-family="sans-serif" font-size="11" lengthAdjust="spacingAndGlyphs" textLength="89" x="714" y="181.5908">-String postalCode</text><text fill="#000000" font-family="sans-serif" font-size="11" lengthAdjust="spacingAndGlyphs" textLength="68" x="714" y="195.4268">-String locality</text><text fill="#000000" font-family="sans-serif" font-size="11" lengthAdjust="spacingAndGlyphs" textLength="72" x="714" y="209.2627">-String country</text><text fill="#000000" font-family="sans-serif" font-size="11" lengthAdjust="spacingAndGlyphs" textLength="71" x="714" y="223.0986">-float longitude</text><text fill="#000000" font-family="sans-serif" font-size="11" lengthAdjust="spacingAndGlyphs" textLength="62" x="714" y="236.9346">-float latitude</text><!--MD5=[cf4d6237fcae255cd2e1656cf84a30e2]
class Order--><rect fill="#FEFECE" filter="url(#f1xcexfn0ikkqn)" height="136.8516" id="Order" style="stroke: #A80036; stroke-width: 1.5;" width="103" x="509" y="213.5"/><ellipse cx="542" cy="229.5" fill="#ADD1B2" rx="11" ry="11" style="stroke: #A80036; stroke-width: 1.0;"/><path d="M544,226 Q544.2031,225.5 544.4375,225.25 Q544.6719,225 544.9375,225 Q545.4063,225 545.7031,225.2813 Q546,225.5625 546,226.2188 L546,227.7813 Q546,228.4375 545.7188,228.7188 Q545.4375,229 545,229 Q544.6094,229 544.3594,228.8281 Q544.1094,228.6563 544,228.2031 Q543.9531,227.8906 543.7813,227.7188 Q543.4688,227.3906 542.9063,227.2031 Q542.3438,227 541.7813,227 Q541.0781,227 540.4844,227.2813 Q539.9063,227.5625 539.4531,228.1875 Q539,228.8125 539,229.6719 L539,230.5938 Q539,231.625 539.8438,232.3125 Q540.6875,233 542.1875,233 Q543.0781,233 543.7031,232.7969 Q544.0625,232.6875 544.4688,232.3281 Q544.7344,232.125 544.875,232.0625 Q545.0156,232 545.1875,232 Q545.5156,232 545.75,232.2656 Q546,232.5156 546,232.875 Q546,233.2188 545.6563,233.625 Q545.1563,234.2188 544.3594,234.5469 Q543.3125,235 542.0313,235 Q540.5313,235 539.3281,234.4063 Q538.3594,233.9375 537.6719,232.9219 Q537,231.9063 537,230.7031 L537,229.6094 Q537,228.3594 537.5938,227.2656 Q538.2031,226.1719 539.25,225.5938 Q540.3125,225 541.5,225 Q542.2188,225 542.8438,225.25 Q543.4688,225.5 544,226 Z "/><text fill="#000000" font-family="sans-serif" font-size="12" lengthAdjust="spacingAndGlyphs" textLength="31" x="560" y="234.4102">Order</text><line style="stroke: #A80036; stroke-width: 1.5;" x1="510" x2="611" y1="245.5" y2="245.5"/><text fill="#000000" font-family="sans-serif" font-size="11" lengthAdjust="spacingAndGlyphs" textLength="26" x="515" y="260.9189">-int id</text><text fill="#000000" font-family="sans-serif" font-size="11" lengthAdjust="spacingAndGlyphs" textLength="63" x="515" y="274.7549">-float amount</text><text fill="#000000" font-family="sans-serif" font-size="11" lengthAdjust="spacingAndGlyphs" textLength="81" x="515" y="288.5908">-float totalWeight</text><text fill="#000000" font-family="sans-serif" font-size="11" lengthAdjust="spacingAndGlyphs" textLength="91" x="515" y="302.4268">-float additionalFee</text><text fill="#000000" font-family="sans-serif" font-size="11" lengthAdjust="spacingAndGlyphs" textLength="77" x="515" y="316.2627">-Date orderDate</text><text fill="#000000" font-family="sans-serif" font-size="11" lengthAdjust="spacingAndGlyphs" textLength="88" x="515" y="330.0986">-String description</text><text fill="#000000" font-family="sans-serif" font-size="11" lengthAdjust="spacingAndGlyphs" textLength="65" x="515" y="343.9346">-String status</text><!--MD5=[72136138052d025cffdce3c22fbd185f]
class Product--><rect fill="#FEFECE" filter="url(#f1xcexfn0ikkqn)" height="109.1797" id="Product" style="stroke: #A80036; stroke-width: 1.5;" width="106" x="708" y="310.5"/><ellipse cx="737.4" cy="326.5" fill="#ADD1B2" rx="11" ry="11" style="stroke: #A80036; stroke-width: 1.0;"/><path d="M739.4,323 Q739.6031,322.5 739.8375,322.25 Q740.0719,322 740.3375,322 Q740.8063,322 741.1031,322.2813 Q741.4,322.5625 741.4,323.2188 L741.4,324.7813 Q741.4,325.4375 741.1188,325.7188 Q740.8375,326 740.4,326 Q740.0094,326 739.7594,325.8281 Q739.5094,325.6563 739.4,325.2031 Q739.3531,324.8906 739.1813,324.7188 Q738.8688,324.3906 738.3063,324.2031 Q737.7438,324 737.1813,324 Q736.4781,324 735.8844,324.2813 Q735.3063,324.5625 734.8531,325.1875 Q734.4,325.8125 734.4,326.6719 L734.4,327.5938 Q734.4,328.625 735.2438,329.3125 Q736.0875,330 737.5875,330 Q738.4781,330 739.1031,329.7969 Q739.4625,329.6875 739.8688,329.3281 Q740.1344,329.125 740.275,329.0625 Q740.4156,329 740.5875,329 Q740.9156,329 741.15,329.2656 Q741.4,329.5156 741.4,329.875 Q741.4,330.2188 741.0563,330.625 Q740.5563,331.2188 739.7594,331.5469 Q738.7125,332 737.4313,332 Q735.9313,332 734.7281,331.4063 Q733.7594,330.9375 733.0719,329.9219 Q732.4,328.9063 732.4,327.7031 L732.4,326.6094 Q732.4,325.3594 732.9938,324.2656 Q733.6031,323.1719 734.65,322.5938 Q735.7125,322 736.9,322 Q737.6188,322 738.2438,322.25 Q738.8688,322.5 739.4,323 Z "/><text fill="#000000" font-family="sans-serif" font-size="12" lengthAdjust="spacingAndGlyphs" textLength="42" x="754.6" y="331.4102">Product</text><line style="stroke: #A80036; stroke-width: 1.5;" x1="709" x2="813" y1="342.5" y2="342.5"/><text fill="#000000" font-family="sans-serif" font-size="11" lengthAdjust="spacingAndGlyphs" textLength="26" x="714" y="357.9189">-int id</text><text fill="#000000" font-family="sans-serif" font-size="11" lengthAdjust="spacingAndGlyphs" textLength="61" x="714" y="371.7549">-String name</text><text fill="#000000" font-family="sans-serif" font-size="11" lengthAdjust="spacingAndGlyphs" textLength="88" x="714" y="385.5908">-String description</text><text fill="#000000" font-family="sans-serif" font-size="11" lengthAdjust="spacingAndGlyphs" textLength="85" x="714" y="399.4268">-float unitaryPrice</text><text fill="#000000" font-family="sans-serif" font-size="11" lengthAdjust="spacingAndGlyphs" textLength="94" x="714" y="413.2627">-float unitaryWeight</text><!--MD5=[894442645724153f40a9f7a43026dbfc]
class Invoice--><rect fill="#FEFECE" filter="url(#f1xcexfn0ikkqn)" height="67.6719" id="Invoice" style="stroke: #A80036; stroke-width: 1.5;" width="89" x="283.5" y="356"/><ellipse cx="307.05" cy="372" fill="#ADD1B2" rx="11" ry="11" style="stroke: #A80036; stroke-width: 1.0;"/><path d="M309.05,368.5 Q309.2531,368 309.4875,367.75 Q309.7219,367.5 309.9875,367.5 Q310.4563,367.5 310.7531,367.7813 Q311.05,368.0625 311.05,368.7188 L311.05,370.2813 Q311.05,370.9375 310.7688,371.2188 Q310.4875,371.5 310.05,371.5 Q309.6594,371.5 309.4094,371.3281 Q309.1594,371.1563 309.05,370.7031 Q309.0031,370.3906 308.8313,370.2188 Q308.5188,369.8906 307.9563,369.7031 Q307.3938,369.5 306.8313,369.5 Q306.1281,369.5 305.5344,369.7813 Q304.9563,370.0625 304.5031,370.6875 Q304.05,371.3125 304.05,372.1719 L304.05,373.0938 Q304.05,374.125 304.8938,374.8125 Q305.7375,375.5 307.2375,375.5 Q308.1281,375.5 308.7531,375.2969 Q309.1125,375.1875 309.5188,374.8281 Q309.7844,374.625 309.925,374.5625 Q310.0656,374.5 310.2375,374.5 Q310.5656,374.5 310.8,374.7656 Q311.05,375.0156 311.05,375.375 Q311.05,375.7188 310.7063,376.125 Q310.2063,376.7188 309.4094,377.0469 Q308.3625,377.5 307.0813,377.5 Q305.5813,377.5 304.3781,376.9063 Q303.4094,376.4375 302.7219,375.4219 Q302.05,374.4063 302.05,373.2031 L302.05,372.1094 Q302.05,370.8594 302.6438,369.7656 Q303.2531,368.6719 304.3,368.0938 Q305.3625,367.5 306.55,367.5 Q307.2688,367.5 307.8938,367.75 Q308.5188,368 309.05,368.5 Z "/><text fill="#000000" font-family="sans-serif" font-size="12" lengthAdjust="spacingAndGlyphs" textLength="38" x="322.95" y="376.9102">Invoice</text><line style="stroke: #A80036; stroke-width: 1.5;" x1="284.5" x2="371.5" y1="388" y2="388"/><text fill="#000000" font-family="sans-serif" font-size="11" lengthAdjust="spacingAndGlyphs" textLength="77" x="289.5" y="403.4189">-Date orderDate</text><text fill="#000000" font-family="sans-serif" font-size="11" lengthAdjust="spacingAndGlyphs" textLength="63" x="289.5" y="417.2549">-float amount</text><!--MD5=[6f4f5a959b7eecf0b4982552d890dec0]
link Platform to Client--><path d="M108.281,215.542 C152.533,203.698 217.136,186.406 264.662,173.685 " fill="none" id="Platform-Client" style="stroke: #A80036; stroke-width: 1.0;"/><text fill="#000000" font-family="sans-serif" font-size="13" lengthAdjust="spacingAndGlyphs" textLength="82" x="139" y="178.4951">has registered</text><polygon fill="#000000" points="224,171.6758,230,174.6758,224,177.6758,224,171.6758" style="stroke: #000000; stroke-width: 1.0;"/><text fill="#000000" font-family="sans-serif" font-size="13" lengthAdjust="spacingAndGlyphs" textLength="7" x="115.9846" y="228.3058">1</text><text fill="#000000" font-family="sans-serif" font-size="13" lengthAdjust="spacingAndGlyphs" textLength="5" x="252.0495" y="190.0348">*</text><!--MD5=[46120166855af3d867105a26a4c9094b]
link Platform to Order--><path d="M108.382,234.325 C204.383,244.47 412.514,266.466 508.779,276.64 " fill="none" id="Platform-Order" style="stroke: #A80036; stroke-width: 1.0;"/><text fill="#000000" font-family="sans-serif" font-size="13" lengthAdjust="spacingAndGlyphs" textLength="82" x="280.5" y="247.4951">has registered</text><polygon fill="#000000" points="365.5,240.6758,371.5,243.6758,365.5,246.6758,365.5,240.6758" style="stroke: #000000; stroke-width: 1.0;"/><text fill="#000000" font-family="sans-serif" font-size="13" lengthAdjust="spacingAndGlyphs" textLength="7" x="116.0998" y="249.7302">1</text><text fill="#000000" font-family="sans-serif" font-size="13" lengthAdjust="spacingAndGlyphs" textLength="5" x="496.1542" y="290.5415">*</text><!--MD5=[5df16df72a49edaa4f00919f1e597f76]
link Order to Product--><path d="M612.415,310.807 C622.102,315.825 632.259,320.781 642,325 C663.14,334.1557 687.113,342.6163 707.903,349.3756 " fill="none" id="Order-Product" style="stroke: #A80036; stroke-width: 1.0;"/><text fill="#000000" font-family="sans-serif" font-size="13" lengthAdjust="spacingAndGlyphs" textLength="21" x="643" y="321.4951">has</text><polygon fill="#000000" points="667,314.6758,673,317.6758,667,320.6758,667,314.6758" style="stroke: #000000; stroke-width: 1.0;"/><text fill="#000000" font-family="sans-serif" font-size="13" lengthAdjust="spacingAndGlyphs" textLength="7" x="619.8614" y="329.2817">1</text><text fill="#000000" font-family="sans-serif" font-size="13" lengthAdjust="spacingAndGlyphs" textLength="5" x="695.0847" y="361.8106">*</text><!--MD5=[9a8dc34b38f85b9f3fcdb440f4bffc6a]
link Client to User--><path d="M391.073,127.916 C429.075,110.11 476.957,87.675 511.945,71.282 " fill="none" id="Client-User" style="stroke: #A80036; stroke-width: 1.0;"/><text fill="#000000" font-family="sans-serif" font-size="13" lengthAdjust="spacingAndGlyphs" textLength="43" x="422" y="84.4951">acts as</text><polygon fill="#000000" points="468,77.6758,474,80.6758,468,83.6758,468,77.6758" style="stroke: #000000; stroke-width: 1.0;"/><text fill="#000000" font-family="sans-serif" font-size="13" lengthAdjust="spacingAndGlyphs" textLength="22" x="399.1747" y="139.1055">0..1</text><text fill="#000000" font-family="sans-serif" font-size="13" lengthAdjust="spacingAndGlyphs" textLength="7" x="496.9741" y="89.4786">1</text><!--MD5=[879bec428a80d843af24dc47845bf14c]
link Client to Order--><path d="M391.073,190.662 C428.008,210.692 474.277,235.784 508.969,254.597 " fill="none" id="Client-Order" style="stroke: #A80036; stroke-width: 1.0;"/><text fill="#000000" font-family="sans-serif" font-size="13" lengthAdjust="spacingAndGlyphs" textLength="39" x="424" y="204.4951">makes</text><polygon fill="#000000" points="466,197.6758,472,200.6758,466,203.6758,466,197.6758" style="stroke: #000000; stroke-width: 1.0;"/><text fill="#000000" font-family="sans-serif" font-size="13" lengthAdjust="spacingAndGlyphs" textLength="7" x="399.1866" y="209.2351">1</text><text fill="#000000" font-family="sans-serif" font-size="13" lengthAdjust="spacingAndGlyphs" textLength="7" x="493.8863" y="265.279">1</text><!--MD5=[bd708f2371c655af07b49ddbdb30848a]
link Client to Address--><path d="M391.211,159.598 C476.533,163.161 628.323,169.501 707.953,172.826 " fill="none" id="Client-Address" style="stroke: #A80036; stroke-width: 1.0;"/><text fill="#000000" font-family="sans-serif" font-size="13" lengthAdjust="spacingAndGlyphs" textLength="21" x="543.5" y="160.4951">has</text><polygon fill="#000000" points="567.5,153.6758,573.5,156.6758,567.5,159.6758,567.5,153.6758" style="stroke: #000000; stroke-width: 1.0;"/><text fill="#000000" font-family="sans-serif" font-size="13" lengthAdjust="spacingAndGlyphs" textLength="7" x="398.9245" y="174.319">1</text><text fill="#000000" font-family="sans-serif" font-size="13" lengthAdjust="spacingAndGlyphs" textLength="7" x="693.0011" y="187.1756">1</text><!--MD5=[dd2bca8e69277b6dcf04d6bf8fed5dca]
link Order to Address--><path d="M612.104,254.723 C641.394,238.934 678.194,219.097 707.758,203.161 " fill="none" id="Order-Address" style="stroke: #A80036; stroke-width: 1.0;"/><text fill="#000000" font-family="sans-serif" font-size="13" lengthAdjust="spacingAndGlyphs" textLength="21" x="643" y="218.4951">has</text><polygon fill="#000000" points="667,211.6758,673,214.6758,667,217.6758,667,211.6758" style="stroke: #000000; stroke-width: 1.0;"/><text fill="#000000" font-family="sans-serif" font-size="13" lengthAdjust="spacingAndGlyphs" textLength="7" x="619.853" y="265.5424">1</text><text fill="#000000" font-family="sans-serif" font-size="13" lengthAdjust="spacingAndGlyphs" textLength="7" x="693.1333" y="221.5488">1</text><!--MD5=[4f0092e2f5693c7657a2634bfbc15acf]
link Invoice to Order--><path d="M372.626,369.5591 C411.39,351.3966 468.063,324.8426 508.824,305.744 " fill="none" id="Invoice-Order" style="stroke: #A80036; stroke-width: 1.0;"/><text fill="#000000" font-family="sans-serif" font-size="13" lengthAdjust="spacingAndGlyphs" textLength="21" x="433" y="316.4951">has</text><polygon fill="#000000" points="457,309.6758,463,312.6758,457,315.6758,457,309.6758" style="stroke: #000000; stroke-width: 1.0;"/><text fill="#000000" font-family="sans-serif" font-size="13" lengthAdjust="spacingAndGlyphs" textLength="7" x="380.5969" y="381.05">1</text><text fill="#000000" font-family="sans-serif" font-size="13" lengthAdjust="spacingAndGlyphs" textLength="7" x="494.0649" y="323.7383">1</text><!--MD5=[72e744b1f7ec345412f1ea79f30940ed]
link Invoice to Product--><path d="M372.711,391.0966 C428.378,392.0994 527.494,392.566 612,386 C643.954,383.5172 679.522,378.5426 707.78,374.0582 " fill="none" id="Invoice-Product" style="stroke: #A80036; stroke-width: 1.0;"/><text fill="#000000" font-family="sans-serif" font-size="13" lengthAdjust="spacingAndGlyphs" textLength="21" x="543.5" y="382.4951">has</text><polygon fill="#000000" points="567.5,375.6758,573.5,378.6758,567.5,381.6758,567.5,375.6758" style="stroke: #000000; stroke-width: 1.0;"/><text fill="#000000" font-family="sans-serif" font-size="13" lengthAdjust="spacingAndGlyphs" textLength="7" x="380.3946" y="406.0957">1</text><text fill="#000000" font-family="sans-serif" font-size="13" lengthAdjust="spacingAndGlyphs" textLength="5" x="694.9444" y="389.9642">*</text><!--MD5=[130f41f4a283071f4f8771aff393e5f3]
@startuml
skinparam classAttributeIconSize 0
hide methods
left to right direction

class Platform {
-   String designation
}
class Client{
-   int IBAN
-   long creditCardNumber
-   int validityDate
-   int CCV
}

class User{
-   String name
-   String email
-   String password
}

class Address{
-   String streetName
-   String doorNumber
-   String postalCode
-   String locality
-   String country
-   float longitude
-   float latitude
}

class Order{
-   int id
-   float amount
-   float totalWeight
-   float additionalFee
-   Date orderDate
-   String description
-   String status
}

class Product{
-   int id
-   String name
-   String description
-   float unitaryPrice
-   float unitaryWeight
}

class Invoice{
-   Date orderDate
-   float amount
}

Platform "1" - - "*" Client : has registered >
Platform "1" - - "*" Order : has registered >
Order "1" - - "*" Product : has >
Client "0..1" - - "1" User: acts as >
Client "1" - - "1" Order : makes >
Client "1" - - "1" Address : has >
Order "1" - - "1" Address : has >
Invoice "1" - - "1" Order : has >
Invoice "1" - - "*" Product : has >
@enduml

PlantUML version 1.2020.09(Sun May 10 11:51:06 BST 2020)
(GPL source distribution)
Java Runtime: OpenJDK Runtime Environment
JVM: OpenJDK 64-Bit Server VM
Java Version: 11.0.6+8-b520.66
Operating System: Windows 10
Default Encoding: Cp1252
Language: pt
Country: PT
--></g></svg>